<?xml version="1.0" encoding="UTF-8" standalone="no"?>
<!DOCTYPE svg PUBLIC "-//W3C//DTD SVG 1.1//EN"
 "http://www.w3.org/Graphics/SVG/1.1/DTD/svg11.dtd">
<!-- Generated by graphviz version 2.43.0 (0)
 -->
<!-- Title: lib/Target/AArch64/AArch64ExpandImm.h Pages: 1 -->
<svg width="650pt" height="106pt"
 viewBox="0.00 0.00 650.00 106.00" xmlns="http://www.w3.org/2000/svg" xmlns:xlink="http://www.w3.org/1999/xlink">
<g id="graph0" class="graph" transform="scale(1 1) rotate(0) translate(4 102)">
<title>lib/Target/AArch64/AArch64ExpandImm.h</title>
<!-- Node33 -->
<g id="node1" class="node">
<title>Node33</title>
<polygon fill="#bfbfbf" stroke="black" points="252,-67.5 252,-97.5 370,-97.5 370,-67.5 252,-67.5"/>
<text text-anchor="start" x="260" y="-85.5" font-family="Helvetica,sans-Serif" font-size="10.00">lib/Target/AArch64</text>
<text text-anchor="middle" x="311" y="-74.5" font-family="Helvetica,sans-Serif" font-size="10.00">/AArch64ExpandImm.h</text>
</g>
<!-- Node34 -->
<g id="node2" class="node">
<title>Node34</title>
<g id="a_node2"><a xlink:href="AArch64ExpandImm_8cpp.html" target="_top" xlink:title="lib/Target/AArch64\l/AArch64ExpandImm.cpp">
<polygon fill="none" stroke="black" points="0,-0.5 0,-30.5 128,-30.5 128,-0.5 0,-0.5"/>
<text text-anchor="start" x="8" y="-18.5" font-family="Helvetica,sans-Serif" font-size="10.00">lib/Target/AArch64</text>
<text text-anchor="middle" x="64" y="-7.5" font-family="Helvetica,sans-Serif" font-size="10.00">/AArch64ExpandImm.cpp</text>
</a>
</g>
</g>
<!-- Node33&#45;&gt;Node34 -->
<g id="edge1" class="edge">
<title>Node33&#45;&gt;Node34</title>
<path fill="none" stroke="midnightblue" d="M247.99,-64.92C207.68,-54.31 155.96,-40.7 117.62,-30.61"/>
<polygon fill="midnightblue" stroke="midnightblue" points="247.15,-68.32 257.71,-67.48 248.93,-61.55 247.15,-68.32"/>
</g>
<!-- Node35 -->
<g id="node3" class="node">
<title>Node35</title>
<g id="a_node3"><a xlink:href="AArch64ExpandPseudoInsts_8cpp.html" target="_top" xlink:title="lib/Target/AArch64\l/AArch64ExpandPseudoInsts.cpp">
<polygon fill="none" stroke="black" points="146,-0.5 146,-30.5 310,-30.5 310,-0.5 146,-0.5"/>
<text text-anchor="start" x="154" y="-18.5" font-family="Helvetica,sans-Serif" font-size="10.00">lib/Target/AArch64</text>
<text text-anchor="middle" x="228" y="-7.5" font-family="Helvetica,sans-Serif" font-size="10.00">/AArch64ExpandPseudoInsts.cpp</text>
</a>
</g>
</g>
<!-- Node33&#45;&gt;Node35 -->
<g id="edge2" class="edge">
<title>Node33&#45;&gt;Node35</title>
<path fill="none" stroke="midnightblue" d="M285.04,-61.17C272.35,-51.23 257.39,-39.51 245.97,-30.58"/>
<polygon fill="midnightblue" stroke="midnightblue" points="282.96,-63.99 292.99,-67.4 287.28,-58.47 282.96,-63.99"/>
</g>
<!-- Node36 -->
<g id="node4" class="node">
<title>Node36</title>
<g id="a_node4"><a xlink:href="AArch64ISelLowering_8cpp.html" target="_top" xlink:title="lib/Target/AArch64\l/AArch64ISelLowering.cpp">
<polygon fill="none" stroke="black" points="328,-0.5 328,-30.5 460,-30.5 460,-0.5 328,-0.5"/>
<text text-anchor="start" x="336" y="-18.5" font-family="Helvetica,sans-Serif" font-size="10.00">lib/Target/AArch64</text>
<text text-anchor="middle" x="394" y="-7.5" font-family="Helvetica,sans-Serif" font-size="10.00">/AArch64ISelLowering.cpp</text>
</a>
</g>
</g>
<!-- Node33&#45;&gt;Node36 -->
<g id="edge3" class="edge">
<title>Node33&#45;&gt;Node36</title>
<path fill="none" stroke="midnightblue" d="M336.96,-61.17C349.65,-51.23 364.61,-39.51 376.03,-30.58"/>
<polygon fill="midnightblue" stroke="midnightblue" points="334.72,-58.47 329.01,-67.4 339.04,-63.99 334.72,-58.47"/>
</g>
<!-- Node37 -->
<g id="node5" class="node">
<title>Node37</title>
<g id="a_node5"><a xlink:href="AArch64TargetTransformInfo_8cpp.html" target="_top" xlink:title="lib/Target/AArch64\l/AArch64TargetTransformInfo.cpp">
<polygon fill="none" stroke="black" points="478,-0.5 478,-30.5 642,-30.5 642,-0.5 478,-0.5"/>
<text text-anchor="start" x="486" y="-18.5" font-family="Helvetica,sans-Serif" font-size="10.00">lib/Target/AArch64</text>
<text text-anchor="middle" x="560" y="-7.5" font-family="Helvetica,sans-Serif" font-size="10.00">/AArch64TargetTransformInfo.cpp</text>
</a>
</g>
</g>
<!-- Node33&#45;&gt;Node37 -->
<g id="edge4" class="edge">
<title>Node33&#45;&gt;Node37</title>
<path fill="none" stroke="midnightblue" d="M374.53,-64.92C415.16,-54.31 467.3,-40.7 505.94,-30.61"/>
<polygon fill="midnightblue" stroke="midnightblue" points="373.51,-61.56 364.72,-67.48 375.28,-68.34 373.51,-61.56"/>
</g>
</g>
</svg>
