<?xml version="1.0" encoding="UTF-8" standalone="no"?>
<!DOCTYPE svg PUBLIC "-//W3C//DTD SVG 1.1//EN"
 "http://www.w3.org/Graphics/SVG/1.1/DTD/svg11.dtd">
<!-- Generated by graphviz version 2.43.0 (0)
 -->
<!-- Title: lib/Target/AMDGPU/MCTargetDesc/AMDGPUTargetStreamer.h Pages: 1 -->
<svg width="1129pt" height="106pt"
 viewBox="0.00 0.00 1129.00 106.00" xmlns="http://www.w3.org/2000/svg" xmlns:xlink="http://www.w3.org/1999/xlink">
<g id="graph0" class="graph" transform="scale(1 1) rotate(0) translate(4 102)">
<title>lib/Target/AMDGPU/MCTargetDesc/AMDGPUTargetStreamer.h</title>
<!-- Node122 -->
<g id="node1" class="node">
<title>Node122</title>
<polygon fill="#bfbfbf" stroke="black" points="509.5,-67.5 509.5,-97.5 672.5,-97.5 672.5,-67.5 509.5,-67.5"/>
<text text-anchor="start" x="517.5" y="-85.5" font-family="Helvetica,sans-Serif" font-size="10.00">lib/Target/AMDGPU/MCTarget</text>
<text text-anchor="middle" x="591" y="-74.5" font-family="Helvetica,sans-Serif" font-size="10.00">Desc/AMDGPUTargetStreamer.h</text>
</g>
<!-- Node123 -->
<g id="node2" class="node">
<title>Node123</title>
<g id="a_node2"><a xlink:href="AMDGPUAsmPrinter_8cpp.html" target="_top" xlink:title="The AMDGPUAsmPrinter is used to print both assembly string and also binary code. ">
<polygon fill="none" stroke="black" points="0,-0.5 0,-30.5 172,-30.5 172,-0.5 0,-0.5"/>
<text text-anchor="start" x="8" y="-18.5" font-family="Helvetica,sans-Serif" font-size="10.00">lib/Target/AMDGPU/AMDGPUAsm</text>
<text text-anchor="middle" x="86" y="-7.5" font-family="Helvetica,sans-Serif" font-size="10.00">Printer.cpp</text>
</a>
</g>
</g>
<!-- Node122&#45;&gt;Node123 -->
<g id="edge1" class="edge">
<title>Node122&#45;&gt;Node123</title>
<path fill="none" stroke="midnightblue" d="M499.05,-70.94C415.89,-61.22 290.12,-46.04 181,-31 178.11,-30.6 175.17,-30.19 172.2,-29.77"/>
<polygon fill="midnightblue" stroke="midnightblue" points="498.89,-74.45 509.23,-72.13 499.7,-67.5 498.89,-74.45"/>
</g>
<!-- Node124 -->
<g id="node3" class="node">
<title>Node124</title>
<g id="a_node3"><a xlink:href="AMDGPUHSAMetadataStreamer_8cpp.html" target="_top" xlink:title="AMDGPU HSA Metadata Streamer. ">
<polygon fill="none" stroke="black" points="190.5,-0.5 190.5,-30.5 403.5,-30.5 403.5,-0.5 190.5,-0.5"/>
<text text-anchor="start" x="198.5" y="-18.5" font-family="Helvetica,sans-Serif" font-size="10.00">lib/Target/AMDGPU/AMDGPUHSAMetadata</text>
<text text-anchor="middle" x="297" y="-7.5" font-family="Helvetica,sans-Serif" font-size="10.00">Streamer.cpp</text>
</a>
</g>
</g>
<!-- Node122&#45;&gt;Node124 -->
<g id="edge2" class="edge">
<title>Node122&#45;&gt;Node124</title>
<path fill="none" stroke="midnightblue" d="M517.8,-65.32C469.48,-54.63 406.8,-40.77 360.57,-30.55"/>
<polygon fill="midnightblue" stroke="midnightblue" points="517.05,-68.73 527.57,-67.48 518.56,-61.9 517.05,-68.73"/>
</g>
<!-- Node125 -->
<g id="node4" class="node">
<title>Node125</title>
<g id="a_node4"><a xlink:href="AMDGPUAsmParser_8cpp.html" target="_top" xlink:title="lib/Target/AMDGPU/AsmParser\l/AMDGPUAsmParser.cpp">
<polygon fill="none" stroke="black" points="422,-0.5 422,-30.5 578,-30.5 578,-0.5 422,-0.5"/>
<text text-anchor="start" x="430" y="-18.5" font-family="Helvetica,sans-Serif" font-size="10.00">lib/Target/AMDGPU/AsmParser</text>
<text text-anchor="middle" x="500" y="-7.5" font-family="Helvetica,sans-Serif" font-size="10.00">/AMDGPUAsmParser.cpp</text>
</a>
</g>
</g>
<!-- Node122&#45;&gt;Node125 -->
<g id="edge3" class="edge">
<title>Node122&#45;&gt;Node125</title>
<path fill="none" stroke="midnightblue" d="M562.93,-61.45C548.93,-51.45 532.34,-39.6 519.71,-30.58"/>
<polygon fill="midnightblue" stroke="midnightblue" points="561.08,-64.43 571.25,-67.4 565.15,-58.74 561.08,-64.43"/>
</g>
<!-- Node126 -->
<g id="node5" class="node">
<title>Node126</title>
<g id="a_node5"><a xlink:href="AMDGPUMCTargetDesc_8cpp.html" target="_top" xlink:title="This file provides AMDGPU specific target descriptions. ">
<polygon fill="none" stroke="black" points="596.5,-0.5 596.5,-30.5 769.5,-30.5 769.5,-0.5 596.5,-0.5"/>
<text text-anchor="start" x="604.5" y="-18.5" font-family="Helvetica,sans-Serif" font-size="10.00">lib/Target/AMDGPU/MCTarget</text>
<text text-anchor="middle" x="683" y="-7.5" font-family="Helvetica,sans-Serif" font-size="10.00">Desc/AMDGPUMCTargetDesc.cpp</text>
</a>
</g>
</g>
<!-- Node122&#45;&gt;Node126 -->
<g id="edge4" class="edge">
<title>Node122&#45;&gt;Node126</title>
<path fill="none" stroke="midnightblue" d="M619.38,-61.45C633.53,-51.45 650.31,-39.6 663.08,-30.58"/>
<polygon fill="midnightblue" stroke="midnightblue" points="617.11,-58.77 610.96,-67.4 621.15,-64.48 617.11,-58.77"/>
</g>
<!-- Node127 -->
<g id="node6" class="node">
<title>Node127</title>
<g id="a_node6"><a xlink:href="AMDGPUTargetStreamer_8cpp.html" target="_top" xlink:title="lib/Target/AMDGPU/MCTarget\lDesc/AMDGPUTargetStreamer.cpp">
<polygon fill="none" stroke="black" points="787.5,-0.5 787.5,-30.5 960.5,-30.5 960.5,-0.5 787.5,-0.5"/>
<text text-anchor="start" x="795.5" y="-18.5" font-family="Helvetica,sans-Serif" font-size="10.00">lib/Target/AMDGPU/MCTarget</text>
<text text-anchor="middle" x="874" y="-7.5" font-family="Helvetica,sans-Serif" font-size="10.00">Desc/AMDGPUTargetStreamer.cpp</text>
</a>
</g>
</g>
<!-- Node122&#45;&gt;Node127 -->
<g id="edge5" class="edge">
<title>Node122&#45;&gt;Node127</title>
<path fill="none" stroke="midnightblue" d="M662.03,-65.19C708.38,-54.54 768.27,-40.78 812.56,-30.61"/>
<polygon fill="midnightblue" stroke="midnightblue" points="661.02,-61.83 652.06,-67.48 662.59,-68.65 661.02,-61.83"/>
</g>
<!-- Node128 -->
<g id="node7" class="node">
<title>Node128</title>
<g id="a_node7"><a xlink:href="AMDGPUPALMetadata_8cpp.html" target="_top" xlink:title="This class has methods called by AMDGPUAsmPrinter to accumulate and print the PAL metadata...">
<polygon fill="none" stroke="black" points="979,-0.5 979,-30.5 1121,-30.5 1121,-0.5 979,-0.5"/>
<text text-anchor="start" x="987" y="-18.5" font-family="Helvetica,sans-Serif" font-size="10.00">lib/Target/AMDGPU/Utils</text>
<text text-anchor="middle" x="1050" y="-7.5" font-family="Helvetica,sans-Serif" font-size="10.00">/AMDGPUPALMetadata.cpp</text>
</a>
</g>
</g>
<!-- Node122&#45;&gt;Node128 -->
<g id="edge6" class="edge">
<title>Node122&#45;&gt;Node128</title>
<path fill="none" stroke="midnightblue" d="M682.99,-70.47C759.85,-60.95 872.26,-46.36 970,-31 972.93,-30.54 975.91,-30.06 978.93,-29.56"/>
<polygon fill="midnightblue" stroke="midnightblue" points="682.35,-67.02 672.85,-71.72 683.21,-73.97 682.35,-67.02"/>
</g>
</g>
</svg>
