<?xml version="1.0" encoding="UTF-8" standalone="no"?>
<!DOCTYPE svg PUBLIC "-//W3C//DTD SVG 1.1//EN"
 "http://www.w3.org/Graphics/SVG/1.1/DTD/svg11.dtd">
<!-- Generated by graphviz version 2.43.0 (0)
 -->
<!-- Title: lib/Target/AMDGPU/AMDGPURegisterBankInfo.h Pages: 1 -->
<svg width="814pt" height="106pt"
 viewBox="0.00 0.00 813.50 106.00" xmlns="http://www.w3.org/2000/svg" xmlns:xlink="http://www.w3.org/1999/xlink">
<g id="graph0" class="graph" transform="scale(1 1) rotate(0) translate(4 102)">
<title>lib/Target/AMDGPU/AMDGPURegisterBankInfo.h</title>
<!-- Node142 -->
<g id="node1" class="node">
<title>Node142</title>
<polygon fill="#bfbfbf" stroke="black" points="324.5,-67.5 324.5,-97.5 512.5,-97.5 512.5,-67.5 324.5,-67.5"/>
<text text-anchor="start" x="332.5" y="-85.5" font-family="Helvetica,sans-Serif" font-size="10.00">lib/Target/AMDGPU/AMDGPURegister</text>
<text text-anchor="middle" x="418.5" y="-74.5" font-family="Helvetica,sans-Serif" font-size="10.00">BankInfo.h</text>
</g>
<!-- Node143 -->
<g id="node2" class="node">
<title>Node143</title>
<g id="a_node2"><a xlink:href="AMDGPUInstructionSelector_8cpp.html" target="_top" xlink:title="This file implements the targeting of the InstructionSelector class for AMDGPU. ">
<polygon fill="none" stroke="black" points="0,-0.5 0,-30.5 197,-30.5 197,-0.5 0,-0.5"/>
<text text-anchor="start" x="8" y="-18.5" font-family="Helvetica,sans-Serif" font-size="10.00">lib/Target/AMDGPU/AMDGPUInstruction</text>
<text text-anchor="middle" x="98.5" y="-7.5" font-family="Helvetica,sans-Serif" font-size="10.00">Selector.cpp</text>
</a>
</g>
</g>
<!-- Node142&#45;&gt;Node143 -->
<g id="edge1" class="edge">
<title>Node142&#45;&gt;Node143</title>
<path fill="none" stroke="midnightblue" d="M339.48,-65.45C286.8,-54.75 218.22,-40.82 167.69,-30.55"/>
<polygon fill="midnightblue" stroke="midnightblue" points="338.96,-68.92 349.46,-67.48 340.36,-62.06 338.96,-68.92"/>
</g>
<!-- Node144 -->
<g id="node3" class="node">
<title>Node144</title>
<g id="a_node3"><a xlink:href="AMDGPURegisterBankInfo_8cpp.html" target="_top" xlink:title="This file implements the targeting of the RegisterBankInfo class for AMDGPU. ">
<polygon fill="none" stroke="black" points="215.5,-0.5 215.5,-30.5 403.5,-30.5 403.5,-0.5 215.5,-0.5"/>
<text text-anchor="start" x="223.5" y="-18.5" font-family="Helvetica,sans-Serif" font-size="10.00">lib/Target/AMDGPU/AMDGPURegister</text>
<text text-anchor="middle" x="309.5" y="-7.5" font-family="Helvetica,sans-Serif" font-size="10.00">BankInfo.cpp</text>
</a>
</g>
</g>
<!-- Node142&#45;&gt;Node144 -->
<g id="edge2" class="edge">
<title>Node142&#45;&gt;Node144</title>
<path fill="none" stroke="midnightblue" d="M385.83,-62.02C368.86,-51.9 348.52,-39.77 333.11,-30.58"/>
<polygon fill="midnightblue" stroke="midnightblue" points="384.47,-65.28 394.85,-67.4 388.05,-59.27 384.47,-65.28"/>
</g>
<!-- Node145 -->
<g id="node4" class="node">
<title>Node145</title>
<g id="a_node4"><a xlink:href="AMDGPUSubtarget_8cpp.html" target="_top" xlink:title="Implements the AMDGPU specific subclass of TargetSubtarget. ">
<polygon fill="none" stroke="black" points="421.5,-6 421.5,-25 633.5,-25 633.5,-6 421.5,-6"/>
<text text-anchor="middle" x="527.5" y="-13" font-family="Helvetica,sans-Serif" font-size="10.00">lib/Target/AMDGPU/AMDGPUSubtarget.cpp</text>
</a>
</g>
</g>
<!-- Node142&#45;&gt;Node145 -->
<g id="edge3" class="edge">
<title>Node142&#45;&gt;Node145</title>
<path fill="none" stroke="midnightblue" d="M450.96,-62.14C471.68,-49.79 497.5,-34.39 513.23,-25.01"/>
<polygon fill="midnightblue" stroke="midnightblue" points="448.95,-59.27 442.15,-67.4 452.53,-65.28 448.95,-59.27"/>
</g>
<!-- Node146 -->
<g id="node5" class="node">
<title>Node146</title>
<g id="a_node5"><a xlink:href="SIRegisterInfo_8cpp.html" target="_top" xlink:title="SI implementation of the TargetRegisterInfo class. ">
<polygon fill="none" stroke="black" points="651.5,-0.5 651.5,-30.5 805.5,-30.5 805.5,-0.5 651.5,-0.5"/>
<text text-anchor="start" x="659.5" y="-18.5" font-family="Helvetica,sans-Serif" font-size="10.00">lib/Target/AMDGPU/SIRegister</text>
<text text-anchor="middle" x="728.5" y="-7.5" font-family="Helvetica,sans-Serif" font-size="10.00">Info.cpp</text>
</a>
</g>
</g>
<!-- Node142&#45;&gt;Node146 -->
<g id="edge4" class="edge">
<title>Node142&#45;&gt;Node146</title>
<path fill="none" stroke="midnightblue" d="M495.37,-65.38C546.36,-54.69 612.63,-40.8 661.47,-30.55"/>
<polygon fill="midnightblue" stroke="midnightblue" points="494.45,-62 485.38,-67.48 495.89,-68.85 494.45,-62"/>
</g>
</g>
</svg>
