<?xml version="1.0" encoding="UTF-8" standalone="no"?>
<!DOCTYPE svg PUBLIC "-//W3C//DTD SVG 1.1//EN"
 "http://www.w3.org/Graphics/SVG/1.1/DTD/svg11.dtd">
<!-- Generated by graphviz version 2.43.0 (0)
 -->
<!-- Title: lib/Target/ARC/MCTargetDesc/ARCInfo.h Pages: 1 -->
<svg width="695pt" height="106pt"
 viewBox="0.00 0.00 694.50 106.00" xmlns="http://www.w3.org/2000/svg" xmlns:xlink="http://www.w3.org/1999/xlink">
<g id="graph0" class="graph" transform="scale(1 1) rotate(0) translate(4 102)">
<title>lib/Target/ARC/MCTargetDesc/ARCInfo.h</title>
<!-- Node1 -->
<g id="node1" class="node">
<title>Node1</title>
<polygon fill="#bfbfbf" stroke="black" points="254.5,-67.5 254.5,-97.5 406.5,-97.5 406.5,-67.5 254.5,-67.5"/>
<text text-anchor="start" x="262.5" y="-85.5" font-family="Helvetica,sans-Serif" font-size="10.00">lib/Target/ARC/MCTargetDesc</text>
<text text-anchor="middle" x="330.5" y="-74.5" font-family="Helvetica,sans-Serif" font-size="10.00">/ARCInfo.h</text>
</g>
<!-- Node2 -->
<g id="node2" class="node">
<title>Node2</title>
<g id="a_node2"><a xlink:href="ARCBranchFinalize_8cpp.html" target="_top" xlink:title="lib/Target/ARC/ARCBranch\lFinalize.cpp">
<polygon fill="none" stroke="black" points="0,-0.5 0,-30.5 137,-30.5 137,-0.5 0,-0.5"/>
<text text-anchor="start" x="8" y="-18.5" font-family="Helvetica,sans-Serif" font-size="10.00">lib/Target/ARC/ARCBranch</text>
<text text-anchor="middle" x="68.5" y="-7.5" font-family="Helvetica,sans-Serif" font-size="10.00">Finalize.cpp</text>
</a>
</g>
</g>
<!-- Node1&#45;&gt;Node2 -->
<g id="edge1" class="edge">
<title>Node1&#45;&gt;Node2</title>
<path fill="none" stroke="midnightblue" d="M264.2,-65.05C221.37,-54.43 166.21,-40.74 125.38,-30.61"/>
<polygon fill="midnightblue" stroke="midnightblue" points="263.42,-68.47 273.97,-67.48 265.11,-61.67 263.42,-68.47"/>
</g>
<!-- Node3 -->
<g id="node3" class="node">
<title>Node3</title>
<g id="a_node3"><a xlink:href="ARCInstrInfo_8cpp.html" target="_top" xlink:title="lib/Target/ARC/ARCInstrInfo.cpp">
<polygon fill="none" stroke="black" points="155,-6 155,-25 316,-25 316,-6 155,-6"/>
<text text-anchor="middle" x="235.5" y="-13" font-family="Helvetica,sans-Serif" font-size="10.00">lib/Target/ARC/ARCInstrInfo.cpp</text>
</a>
</g>
</g>
<!-- Node1&#45;&gt;Node3 -->
<g id="edge2" class="edge">
<title>Node1&#45;&gt;Node3</title>
<path fill="none" stroke="midnightblue" d="M301.48,-61.64C283.55,-49.37 261.46,-34.26 247.93,-25.01"/>
<polygon fill="midnightblue" stroke="midnightblue" points="299.66,-64.64 309.89,-67.4 303.61,-58.86 299.66,-64.64"/>
</g>
<!-- Node4 -->
<g id="node4" class="node">
<title>Node4</title>
<g id="a_node4"><a xlink:href="ARCISelLowering_8cpp.html" target="_top" xlink:title="lib/Target/ARC/ARCISelLowering.cpp">
<polygon fill="none" stroke="black" points="334.5,-6 334.5,-25 516.5,-25 516.5,-6 334.5,-6"/>
<text text-anchor="middle" x="425.5" y="-13" font-family="Helvetica,sans-Serif" font-size="10.00">lib/Target/ARC/ARCISelLowering.cpp</text>
</a>
</g>
</g>
<!-- Node1&#45;&gt;Node4 -->
<g id="edge3" class="edge">
<title>Node1&#45;&gt;Node4</title>
<path fill="none" stroke="midnightblue" d="M359.52,-61.64C377.45,-49.37 399.54,-34.26 413.07,-25.01"/>
<polygon fill="midnightblue" stroke="midnightblue" points="357.39,-58.86 351.11,-67.4 361.34,-64.64 357.39,-58.86"/>
</g>
<!-- Node5 -->
<g id="node5" class="node">
<title>Node5</title>
<g id="a_node5"><a xlink:href="ARCInstPrinter_8cpp.html" target="_top" xlink:title="lib/Target/ARC/MCTargetDesc\l/ARCInstPrinter.cpp">
<polygon fill="none" stroke="black" points="534.5,-0.5 534.5,-30.5 686.5,-30.5 686.5,-0.5 534.5,-0.5"/>
<text text-anchor="start" x="542.5" y="-18.5" font-family="Helvetica,sans-Serif" font-size="10.00">lib/Target/ARC/MCTargetDesc</text>
<text text-anchor="middle" x="610.5" y="-7.5" font-family="Helvetica,sans-Serif" font-size="10.00">/ARCInstPrinter.cpp</text>
</a>
</g>
</g>
<!-- Node1&#45;&gt;Node5 -->
<g id="edge4" class="edge">
<title>Node1&#45;&gt;Node5</title>
<path fill="none" stroke="midnightblue" d="M400.78,-65.19C446.63,-54.54 505.89,-40.78 549.71,-30.61"/>
<polygon fill="midnightblue" stroke="midnightblue" points="399.86,-61.81 390.91,-67.48 401.44,-68.62 399.86,-61.81"/>
</g>
</g>
</svg>
