<?xml version="1.0" encoding="UTF-8" standalone="no"?>
<!DOCTYPE svg PUBLIC "-//W3C//DTD SVG 1.1//EN"
 "http://www.w3.org/Graphics/SVG/1.1/DTD/svg11.dtd">
<!-- Generated by graphviz version 2.43.0 (0)
 -->
<!-- Title: lib/Target/ARC/MCTargetDesc/ARCMCTargetDesc.h Pages: 1 -->
<svg width="1679pt" height="374pt"
 viewBox="0.00 0.00 1678.50 374.00" xmlns="http://www.w3.org/2000/svg" xmlns:xlink="http://www.w3.org/1999/xlink">
<g id="graph0" class="graph" transform="scale(1 1) rotate(0) translate(4 370)">
<title>lib/Target/ARC/MCTargetDesc/ARCMCTargetDesc.h</title>
<!-- Node10 -->
<g id="node1" class="node">
<title>Node10</title>
<polygon fill="#bfbfbf" stroke="black" points="1323,-335.5 1323,-365.5 1475,-365.5 1475,-335.5 1323,-335.5"/>
<text text-anchor="start" x="1331" y="-353.5" font-family="Helvetica,sans-Serif" font-size="10.00">lib/Target/ARC/MCTargetDesc</text>
<text text-anchor="middle" x="1399" y="-342.5" font-family="Helvetica,sans-Serif" font-size="10.00">/ARCMCTargetDesc.h</text>
</g>
<!-- Node11 -->
<g id="node2" class="node">
<title>Node11</title>
<g id="a_node2"><a xlink:href="ARC_8h.html" target="_top" xlink:title="lib/Target/ARC/ARC.h">
<polygon fill="none" stroke="black" points="1035.5,-274 1035.5,-293 1150.5,-293 1150.5,-274 1035.5,-274"/>
<text text-anchor="middle" x="1093" y="-281" font-family="Helvetica,sans-Serif" font-size="10.00">lib/Target/ARC/ARC.h</text>
</a>
</g>
</g>
<!-- Node10&#45;&gt;Node11 -->
<g id="edge1" class="edge">
<title>Node10&#45;&gt;Node11</title>
<path fill="none" stroke="midnightblue" d="M1323.14,-333.39C1262.99,-320.61 1181.29,-303.25 1133.15,-293.03"/>
<polygon fill="midnightblue" stroke="midnightblue" points="1322.47,-336.82 1332.98,-335.48 1323.92,-329.97 1322.47,-336.82"/>
</g>
<!-- Node28 -->
<g id="node19" class="node">
<title>Node28</title>
<g id="a_node19"><a xlink:href="ARCDisassembler_8cpp.html" target="_top" xlink:title="This file is part of the ARC Disassembler. ">
<polygon fill="none" stroke="black" points="1525.5,-201.5 1525.5,-231.5 1670.5,-231.5 1670.5,-201.5 1525.5,-201.5"/>
<text text-anchor="start" x="1533.5" y="-219.5" font-family="Helvetica,sans-Serif" font-size="10.00">lib/Target/ARC/Disassembler</text>
<text text-anchor="middle" x="1598" y="-208.5" font-family="Helvetica,sans-Serif" font-size="10.00">/ARCDisassembler.cpp</text>
</a>
</g>
</g>
<!-- Node10&#45;&gt;Node28 -->
<g id="edge34" class="edge">
<title>Node10&#45;&gt;Node28</title>
<path fill="none" stroke="midnightblue" d="M1398.41,-325.32C1399.29,-307.27 1403.46,-283.2 1418,-268 1433.09,-252.23 1482.01,-239.09 1525.04,-230.17"/>
<polygon fill="midnightblue" stroke="midnightblue" points="1394.91,-325.33 1398.22,-335.39 1401.91,-325.46 1394.91,-325.33"/>
</g>
<!-- Node29 -->
<g id="node20" class="node">
<title>Node29</title>
<g id="a_node20"><a xlink:href="ARCMCTargetDesc_8cpp.html" target="_top" xlink:title="lib/Target/ARC/MCTargetDesc\l/ARCMCTargetDesc.cpp">
<polygon fill="none" stroke="black" points="1427,-268.5 1427,-298.5 1579,-298.5 1579,-268.5 1427,-268.5"/>
<text text-anchor="start" x="1435" y="-286.5" font-family="Helvetica,sans-Serif" font-size="10.00">lib/Target/ARC/MCTargetDesc</text>
<text text-anchor="middle" x="1503" y="-275.5" font-family="Helvetica,sans-Serif" font-size="10.00">/ARCMCTargetDesc.cpp</text>
</a>
</g>
</g>
<!-- Node10&#45;&gt;Node29 -->
<g id="edge35" class="edge">
<title>Node10&#45;&gt;Node29</title>
<path fill="none" stroke="midnightblue" d="M1430.18,-330.02C1446.36,-319.9 1465.77,-307.77 1480.48,-298.58"/>
<polygon fill="midnightblue" stroke="midnightblue" points="1428.19,-327.13 1421.57,-335.4 1431.9,-333.06 1428.19,-327.13"/>
</g>
<!-- Node12 -->
<g id="node3" class="node">
<title>Node12</title>
<g id="a_node3"><a xlink:href="ARCAsmPrinter_8cpp.html" target="_top" xlink:title="lib/Target/ARC/ARCAsmPrinter.cpp">
<polygon fill="none" stroke="black" points="219,-6 219,-25 393,-25 393,-6 219,-6"/>
<text text-anchor="middle" x="306" y="-13" font-family="Helvetica,sans-Serif" font-size="10.00">lib/Target/ARC/ARCAsmPrinter.cpp</text>
</a>
</g>
</g>
<!-- Node11&#45;&gt;Node12 -->
<g id="edge2" class="edge">
<title>Node11&#45;&gt;Node12</title>
<path fill="none" stroke="midnightblue" d="M1024.89,-282.9C860.09,-283.09 443.83,-278.78 314,-232 210.35,-194.66 62.64,-154.94 129,-67 143.68,-47.55 203.68,-33.35 249.8,-25.05"/>
<polygon fill="midnightblue" stroke="midnightblue" points="1025.38,-286.4 1035.38,-282.88 1025.37,-279.4 1025.38,-286.4"/>
</g>
<!-- Node13 -->
<g id="node4" class="node">
<title>Node13</title>
<g id="a_node4"><a xlink:href="ARCFrameLowering_8h.html" target="_top" xlink:title="lib/Target/ARC/ARCFrameLowering.h">
<polygon fill="none" stroke="black" points="567,-207 567,-226 749,-226 749,-207 567,-207"/>
<text text-anchor="middle" x="658" y="-214" font-family="Helvetica,sans-Serif" font-size="10.00">lib/Target/ARC/ARCFrameLowering.h</text>
</a>
</g>
</g>
<!-- Node11&#45;&gt;Node13 -->
<g id="edge3" class="edge">
<title>Node11&#45;&gt;Node13</title>
<path fill="none" stroke="midnightblue" d="M1025.6,-272.43C940.37,-259.69 795.12,-237.99 715.1,-226.03"/>
<polygon fill="midnightblue" stroke="midnightblue" points="1025.28,-275.92 1035.68,-273.94 1026.31,-269 1025.28,-275.92"/>
</g>
<!-- Node17 -->
<g id="node8" class="node">
<title>Node17</title>
<g id="a_node8"><a xlink:href="ARCISelDAGToDAG_8cpp.html" target="_top" xlink:title="lib/Target/ARC/ARCISelDAGTo\lDAG.cpp">
<polygon fill="none" stroke="black" points="1051.5,-0.5 1051.5,-30.5 1208.5,-30.5 1208.5,-0.5 1051.5,-0.5"/>
<text text-anchor="start" x="1059.5" y="-18.5" font-family="Helvetica,sans-Serif" font-size="10.00">lib/Target/ARC/ARCISelDAGTo</text>
<text text-anchor="middle" x="1130" y="-7.5" font-family="Helvetica,sans-Serif" font-size="10.00">DAG.cpp</text>
</a>
</g>
</g>
<!-- Node11&#45;&gt;Node17 -->
<g id="edge25" class="edge">
<title>Node11&#45;&gt;Node17</title>
<path fill="none" stroke="midnightblue" d="M1160.97,-273.27C1209.2,-265.16 1267.95,-251.58 1283,-232 1327.7,-173.87 1325.97,-126.43 1283,-67 1265.71,-43.09 1236.69,-30.3 1208.54,-23.54"/>
<polygon fill="midnightblue" stroke="midnightblue" points="1160.17,-269.85 1150.86,-274.91 1161.29,-276.76 1160.17,-269.85"/>
</g>
<!-- Node18 -->
<g id="node9" class="node">
<title>Node18</title>
<g id="a_node9"><a xlink:href="ARCISelLowering_8cpp.html" target="_top" xlink:title="lib/Target/ARC/ARCISelLowering.cpp">
<polygon fill="none" stroke="black" points="0,-6 0,-25 182,-25 182,-6 0,-6"/>
<text text-anchor="middle" x="91" y="-13" font-family="Helvetica,sans-Serif" font-size="10.00">lib/Target/ARC/ARCISelLowering.cpp</text>
</a>
</g>
</g>
<!-- Node11&#45;&gt;Node18 -->
<g id="edge26" class="edge">
<title>Node11&#45;&gt;Node18</title>
<path fill="none" stroke="midnightblue" d="M1025.06,-282.76C847.93,-282.78 375.44,-278.35 227,-232 172.36,-214.94 150.02,-211.76 117,-165 85.45,-120.32 88.08,-49.61 90.12,-25.16"/>
<polygon fill="midnightblue" stroke="midnightblue" points="1025.3,-286.26 1035.29,-282.76 1025.29,-279.26 1025.3,-286.26"/>
</g>
<!-- Node19 -->
<g id="node10" class="node">
<title>Node19</title>
<g id="a_node10"><a xlink:href="ARCOptAddrMode_8cpp.html" target="_top" xlink:title="This pass folds LD/ST + ADD pairs into Pre/Post&#45;increment form of load/store instructions. ">
<polygon fill="none" stroke="black" points="674.5,-0.5 674.5,-30.5 817.5,-30.5 817.5,-0.5 674.5,-0.5"/>
<text text-anchor="start" x="682.5" y="-18.5" font-family="Helvetica,sans-Serif" font-size="10.00">lib/Target/ARC/ARCOptAddr</text>
<text text-anchor="middle" x="746" y="-7.5" font-family="Helvetica,sans-Serif" font-size="10.00">Mode.cpp</text>
</a>
</g>
</g>
<!-- Node11&#45;&gt;Node19 -->
<g id="edge27" class="edge">
<title>Node11&#45;&gt;Node19</title>
<path fill="none" stroke="midnightblue" d="M1116.72,-268.67C1174.58,-233.3 1313.69,-137.39 1250,-67 1235.68,-51.18 953.27,-30.31 817.59,-21.15"/>
<polygon fill="midnightblue" stroke="midnightblue" points="1114.63,-265.85 1107.86,-274 1118.24,-271.84 1114.63,-265.85"/>
</g>
<!-- Node20 -->
<g id="node11" class="node">
<title>Node20</title>
<g id="a_node11"><a xlink:href="ARCTargetMachine_8cpp.html" target="_top" xlink:title="lib/Target/ARC/ARCTarget\lMachine.cpp">
<polygon fill="none" stroke="black" points="1335,-0.5 1335,-30.5 1469,-30.5 1469,-0.5 1335,-0.5"/>
<text text-anchor="start" x="1343" y="-18.5" font-family="Helvetica,sans-Serif" font-size="10.00">lib/Target/ARC/ARCTarget</text>
<text text-anchor="middle" x="1402" y="-7.5" font-family="Helvetica,sans-Serif" font-size="10.00">Machine.cpp</text>
</a>
</g>
</g>
<!-- Node11&#45;&gt;Node20 -->
<g id="edge30" class="edge">
<title>Node11&#45;&gt;Node20</title>
<path fill="none" stroke="midnightblue" d="M1160.68,-275.28C1214.5,-268.16 1291.1,-254.93 1355,-232 1413.59,-210.97 1446.21,-218.52 1478,-165 1506.4,-117.19 1449.45,-57.57 1419.2,-30.74"/>
<polygon fill="midnightblue" stroke="midnightblue" points="1160.04,-271.83 1150.57,-276.58 1160.93,-278.77 1160.04,-271.83"/>
</g>
<!-- Node21 -->
<g id="node12" class="node">
<title>Node21</title>
<g id="a_node12"><a xlink:href="ARCExpandPseudos_8cpp.html" target="_top" xlink:title="lib/Target/ARC/ARCExpand\lPseudos.cpp">
<polygon fill="none" stroke="black" points="138,-67.5 138,-97.5 278,-97.5 278,-67.5 138,-67.5"/>
<text text-anchor="start" x="146" y="-85.5" font-family="Helvetica,sans-Serif" font-size="10.00">lib/Target/ARC/ARCExpand</text>
<text text-anchor="middle" x="208" y="-74.5" font-family="Helvetica,sans-Serif" font-size="10.00">Pseudos.cpp</text>
</a>
</g>
</g>
<!-- Node11&#45;&gt;Node21 -->
<g id="edge23" class="edge">
<title>Node11&#45;&gt;Node21</title>
<path fill="none" stroke="midnightblue" d="M1025.36,-280.35C856.8,-274.64 427.35,-257.71 368,-232 298.8,-202.02 240.5,-128.92 217.97,-97.85"/>
<polygon fill="midnightblue" stroke="midnightblue" points="1025.24,-283.85 1035.36,-280.69 1025.48,-276.85 1025.24,-283.85"/>
</g>
<!-- Node23 -->
<g id="node14" class="node">
<title>Node23</title>
<g id="a_node14"><a xlink:href="ARCInstrInfo_8cpp.html" target="_top" xlink:title="lib/Target/ARC/ARCInstrInfo.cpp">
<polygon fill="none" stroke="black" points="734.5,-73 734.5,-92 895.5,-92 895.5,-73 734.5,-73"/>
<text text-anchor="middle" x="815" y="-80" font-family="Helvetica,sans-Serif" font-size="10.00">lib/Target/ARC/ARCInstrInfo.cpp</text>
</a>
</g>
</g>
<!-- Node11&#45;&gt;Node23 -->
<g id="edge24" class="edge">
<title>Node11&#45;&gt;Node23</title>
<path fill="none" stroke="midnightblue" d="M1072.89,-268.11C1018.57,-229.22 870.05,-122.9 826.9,-92.02"/>
<polygon fill="midnightblue" stroke="midnightblue" points="1070.89,-270.97 1081.05,-273.95 1074.96,-265.28 1070.89,-270.97"/>
</g>
<!-- Node24 -->
<g id="node15" class="node">
<title>Node24</title>
<g id="a_node15"><a xlink:href="ARCRegisterInfo_8cpp.html" target="_top" xlink:title="lib/Target/ARC/ARCRegister\lInfo.cpp">
<polygon fill="none" stroke="black" points="913.5,-67.5 913.5,-97.5 1056.5,-97.5 1056.5,-67.5 913.5,-67.5"/>
<text text-anchor="start" x="921.5" y="-85.5" font-family="Helvetica,sans-Serif" font-size="10.00">lib/Target/ARC/ARCRegister</text>
<text text-anchor="middle" x="985" y="-74.5" font-family="Helvetica,sans-Serif" font-size="10.00">Info.cpp</text>
</a>
</g>
</g>
<!-- Node11&#45;&gt;Node24 -->
<g id="edge28" class="edge">
<title>Node11&#45;&gt;Node24</title>
<path fill="none" stroke="midnightblue" d="M1083.56,-265.11C1062.48,-226.26 1011.87,-133.02 992.62,-97.53"/>
<polygon fill="midnightblue" stroke="midnightblue" points="1080.51,-266.83 1088.36,-273.95 1086.67,-263.49 1080.51,-266.83"/>
</g>
<!-- Node25 -->
<g id="node16" class="node">
<title>Node25</title>
<g id="a_node16"><a xlink:href="ARCSubtarget_8cpp.html" target="_top" xlink:title="lib/Target/ARC/ARCSubtarget.cpp">
<polygon fill="none" stroke="black" points="1074.5,-73 1074.5,-92 1241.5,-92 1241.5,-73 1074.5,-73"/>
<text text-anchor="middle" x="1158" y="-80" font-family="Helvetica,sans-Serif" font-size="10.00">lib/Target/ARC/ARCSubtarget.cpp</text>
</a>
</g>
</g>
<!-- Node11&#45;&gt;Node25 -->
<g id="edge29" class="edge">
<title>Node11&#45;&gt;Node25</title>
<path fill="none" stroke="midnightblue" d="M1098.93,-264.33C1112.48,-222.86 1145.28,-122.45 1155.14,-92.24"/>
<polygon fill="midnightblue" stroke="midnightblue" points="1095.57,-263.36 1095.79,-273.95 1102.22,-265.53 1095.57,-263.36"/>
</g>
<!-- Node26 -->
<g id="node17" class="node">
<title>Node26</title>
<g id="a_node17"><a xlink:href="ARCISelLowering_8h.html" target="_top" xlink:title="lib/Target/ARC/ARCISelLowering.h">
<polygon fill="none" stroke="black" points="377.5,-207 377.5,-226 548.5,-226 548.5,-207 377.5,-207"/>
<text text-anchor="middle" x="463" y="-214" font-family="Helvetica,sans-Serif" font-size="10.00">lib/Target/ARC/ARCISelLowering.h</text>
</a>
</g>
</g>
<!-- Node11&#45;&gt;Node26 -->
<g id="edge20" class="edge">
<title>Node11&#45;&gt;Node26</title>
<path fill="none" stroke="midnightblue" d="M1025.36,-277.37C923.71,-269.37 725.62,-252.69 558,-232 544.09,-230.28 529.08,-228.13 515.19,-226.02"/>
<polygon fill="midnightblue" stroke="midnightblue" points="1025.24,-280.87 1035.48,-278.16 1025.79,-273.89 1025.24,-280.87"/>
</g>
<!-- Node27 -->
<g id="node18" class="node">
<title>Node27</title>
<g id="a_node18"><a xlink:href="ARCTargetTransformInfo_8h.html" target="_top" xlink:title="lib/Target/ARC/ARCTarget\lTransformInfo.h">
<polygon fill="none" stroke="black" points="1335,-134.5 1335,-164.5 1469,-164.5 1469,-134.5 1335,-134.5"/>
<text text-anchor="start" x="1343" y="-152.5" font-family="Helvetica,sans-Serif" font-size="10.00">lib/Target/ARC/ARCTarget</text>
<text text-anchor="middle" x="1402" y="-141.5" font-family="Helvetica,sans-Serif" font-size="10.00">TransformInfo.h</text>
</a>
</g>
</g>
<!-- Node11&#45;&gt;Node27 -->
<g id="edge31" class="edge">
<title>Node11&#45;&gt;Node27</title>
<path fill="none" stroke="midnightblue" d="M1161.12,-277.56C1208.4,-271.78 1271.53,-259.23 1321,-232 1351.58,-215.16 1378.2,-183.26 1391.99,-164.76"/>
<polygon fill="midnightblue" stroke="midnightblue" points="1160.51,-274.11 1150.98,-278.73 1161.31,-281.06 1160.51,-274.11"/>
</g>
<!-- Node11&#45;&gt;Node28 -->
<g id="edge33" class="edge">
<title>Node11&#45;&gt;Node28</title>
<path fill="none" stroke="midnightblue" d="M1160.61,-275.28C1243.36,-266.22 1387.71,-249.71 1511,-232 1515.7,-231.32 1520.54,-230.6 1525.41,-229.85"/>
<polygon fill="midnightblue" stroke="midnightblue" points="1160.14,-271.81 1150.58,-276.37 1160.9,-278.77 1160.14,-271.81"/>
</g>
<!-- Node14 -->
<g id="node5" class="node">
<title>Node14</title>
<g id="a_node5"><a xlink:href="ARCSubtarget_8h.html" target="_top" xlink:title="lib/Target/ARC/ARCSubtarget.h">
<polygon fill="none" stroke="black" points="397.5,-140 397.5,-159 554.5,-159 554.5,-140 397.5,-140"/>
<text text-anchor="middle" x="476" y="-147" font-family="Helvetica,sans-Serif" font-size="10.00">lib/Target/ARC/ARCSubtarget.h</text>
</a>
</g>
</g>
<!-- Node13&#45;&gt;Node14 -->
<g id="edge4" class="edge">
<title>Node13&#45;&gt;Node14</title>
<path fill="none" stroke="midnightblue" d="M624.22,-203.44C588.12,-190.54 531.79,-170.42 499.98,-159.06"/>
<polygon fill="midnightblue" stroke="midnightblue" points="623.24,-206.8 633.83,-206.87 625.59,-200.21 623.24,-206.8"/>
</g>
<!-- Node22 -->
<g id="node13" class="node">
<title>Node22</title>
<g id="a_node13"><a xlink:href="ARCFrameLowering_8cpp.html" target="_top" xlink:title="lib/Target/ARC/ARCFrameLowering.cpp">
<polygon fill="none" stroke="black" points="524,-73 524,-92 716,-92 716,-73 524,-73"/>
<text text-anchor="middle" x="620" y="-80" font-family="Helvetica,sans-Serif" font-size="10.00">lib/Target/ARC/ARCFrameLowering.cpp</text>
</a>
</g>
</g>
<!-- Node13&#45;&gt;Node22 -->
<g id="edge19" class="edge">
<title>Node13&#45;&gt;Node22</title>
<path fill="none" stroke="midnightblue" d="M652.72,-197.16C644.39,-168.23 628.53,-113.13 622.45,-92.02"/>
<polygon fill="midnightblue" stroke="midnightblue" points="649.38,-198.2 655.51,-206.84 656.1,-196.26 649.38,-198.2"/>
</g>
<!-- Node14&#45;&gt;Node12 -->
<g id="edge5" class="edge">
<title>Node14&#45;&gt;Node12</title>
<path fill="none" stroke="midnightblue" d="M436.21,-136.67C413.12,-128.44 384.45,-115.72 363,-98 337.44,-76.89 318.16,-41.6 310.11,-25.28"/>
<polygon fill="midnightblue" stroke="midnightblue" points="435.13,-140.01 445.73,-139.93 437.4,-133.38 435.13,-140.01"/>
</g>
<!-- Node15 -->
<g id="node6" class="node">
<title>Node15</title>
<g id="a_node6"><a xlink:href="ARCTargetMachine_8h.html" target="_top" xlink:title="lib/Target/ARC/ARCTarget\lMachine.h">
<polygon fill="none" stroke="black" points="372,-67.5 372,-97.5 506,-97.5 506,-67.5 372,-67.5"/>
<text text-anchor="start" x="380" y="-85.5" font-family="Helvetica,sans-Serif" font-size="10.00">lib/Target/ARC/ARCTarget</text>
<text text-anchor="middle" x="439" y="-74.5" font-family="Helvetica,sans-Serif" font-size="10.00">Machine.h</text>
</a>
</g>
</g>
<!-- Node14&#45;&gt;Node15 -->
<g id="edge6" class="edge">
<title>Node14&#45;&gt;Node15</title>
<path fill="none" stroke="midnightblue" d="M466.06,-131.03C460.09,-120.56 452.61,-107.4 447.02,-97.59"/>
<polygon fill="midnightblue" stroke="midnightblue" points="463.02,-132.77 471.01,-139.73 469.1,-129.31 463.02,-132.77"/>
</g>
<!-- Node14&#45;&gt;Node18 -->
<g id="edge16" class="edge">
<title>Node14&#45;&gt;Node18</title>
<path fill="none" stroke="midnightblue" d="M434.18,-137.06C404.77,-128.25 364.96,-114.75 332,-98 310.35,-87 309.1,-77.07 287,-67 241.12,-46.08 185.09,-32.75 144.7,-25.07"/>
<polygon fill="midnightblue" stroke="midnightblue" points="433.53,-140.52 444.11,-139.98 435.5,-133.8 433.53,-140.52"/>
</g>
<!-- Node14&#45;&gt;Node21 -->
<g id="edge13" class="edge">
<title>Node14&#45;&gt;Node21</title>
<path fill="none" stroke="midnightblue" d="M430.84,-137.55C385.48,-126.55 315.41,-109.55 265.97,-97.56"/>
<polygon fill="midnightblue" stroke="midnightblue" points="430.14,-140.98 440.69,-139.94 431.79,-134.18 430.14,-140.98"/>
</g>
<!-- Node14&#45;&gt;Node22 -->
<g id="edge14" class="edge">
<title>Node14&#45;&gt;Node22</title>
<path fill="none" stroke="midnightblue" d="M504.55,-135.61C533.07,-122.74 576.12,-103.31 600.8,-92.17"/>
<polygon fill="midnightblue" stroke="midnightblue" points="502.8,-132.56 495.12,-139.87 505.68,-138.94 502.8,-132.56"/>
</g>
<!-- Node14&#45;&gt;Node23 -->
<g id="edge15" class="edge">
<title>Node14&#45;&gt;Node23</title>
<path fill="none" stroke="midnightblue" d="M530.57,-138.04C597.24,-125.25 708.77,-103.87 770.5,-92.03"/>
<polygon fill="midnightblue" stroke="midnightblue" points="529.83,-134.61 520.67,-139.94 531.15,-141.49 529.83,-134.61"/>
</g>
<!-- Node14&#45;&gt;Node24 -->
<g id="edge17" class="edge">
<title>Node14&#45;&gt;Node24</title>
<path fill="none" stroke="midnightblue" d="M564.74,-139.59C651.45,-130.52 787.07,-115.35 904,-98 907.11,-97.54 910.28,-97.05 913.48,-96.54"/>
<polygon fill="midnightblue" stroke="midnightblue" points="564.26,-136.12 554.68,-140.64 564.99,-143.08 564.26,-136.12"/>
</g>
<!-- Node14&#45;&gt;Node25 -->
<g id="edge18" class="edge">
<title>Node14&#45;&gt;Node25</title>
<path fill="none" stroke="midnightblue" d="M564.98,-142.8C680.48,-134.95 888.2,-119.34 1065,-98 1078.79,-96.34 1093.67,-94.18 1107.41,-92.04"/>
<polygon fill="midnightblue" stroke="midnightblue" points="564.52,-139.32 554.78,-143.48 564.99,-146.3 564.52,-139.32"/>
</g>
<!-- Node15&#45;&gt;Node12 -->
<g id="edge7" class="edge">
<title>Node15&#45;&gt;Node12</title>
<path fill="none" stroke="midnightblue" d="M401.08,-62.97C375.53,-50.48 343.03,-34.6 323.41,-25.01"/>
<polygon fill="midnightblue" stroke="midnightblue" points="399.62,-66.15 410.14,-67.4 402.69,-59.86 399.62,-66.15"/>
</g>
<!-- Node16 -->
<g id="node7" class="node">
<title>Node16</title>
<g id="a_node7"><a xlink:href="ARCBranchFinalize_8cpp.html" target="_top" xlink:title="lib/Target/ARC/ARCBranch\lFinalize.cpp">
<polygon fill="none" stroke="black" points="411.5,-0.5 411.5,-30.5 548.5,-30.5 548.5,-0.5 411.5,-0.5"/>
<text text-anchor="start" x="419.5" y="-18.5" font-family="Helvetica,sans-Serif" font-size="10.00">lib/Target/ARC/ARCBranch</text>
<text text-anchor="middle" x="480" y="-7.5" font-family="Helvetica,sans-Serif" font-size="10.00">Finalize.cpp</text>
</a>
</g>
</g>
<!-- Node15&#45;&gt;Node16 -->
<g id="edge8" class="edge">
<title>Node15&#45;&gt;Node16</title>
<path fill="none" stroke="midnightblue" d="M453.28,-58.87C459.21,-49.46 465.91,-38.83 471.12,-30.58"/>
<polygon fill="midnightblue" stroke="midnightblue" points="450.27,-57.07 447.9,-67.4 456.19,-60.81 450.27,-57.07"/>
</g>
<!-- Node15&#45;&gt;Node17 -->
<g id="edge9" class="edge">
<title>Node15&#45;&gt;Node17</title>
<path fill="none" stroke="midnightblue" d="M516.08,-66.95C714.12,-40.45 935.7,-26.41 1051.07,-20.28"/>
<polygon fill="midnightblue" stroke="midnightblue" points="515.51,-63.49 506.07,-68.3 516.45,-70.43 515.51,-63.49"/>
</g>
<!-- Node15&#45;&gt;Node18 -->
<g id="edge10" class="edge">
<title>Node15&#45;&gt;Node18</title>
<path fill="none" stroke="midnightblue" d="M361.93,-67.11C292.83,-54.2 193.77,-35.7 136.55,-25.01"/>
<polygon fill="midnightblue" stroke="midnightblue" points="361.43,-70.57 371.9,-68.97 362.71,-63.69 361.43,-70.57"/>
</g>
<!-- Node15&#45;&gt;Node19 -->
<g id="edge11" class="edge">
<title>Node15&#45;&gt;Node19</title>
<path fill="none" stroke="midnightblue" d="M515.12,-65.38C565.62,-54.69 631.25,-40.8 679.62,-30.55"/>
<polygon fill="midnightblue" stroke="midnightblue" points="514.29,-61.98 505.24,-67.48 515.74,-68.83 514.29,-61.98"/>
</g>
<!-- Node15&#45;&gt;Node20 -->
<g id="edge12" class="edge">
<title>Node15&#45;&gt;Node20</title>
<path fill="none" stroke="midnightblue" d="M516.26,-66.97C826.91,-30.1 908.59,-50.99 1217,-31 1256.06,-28.47 1299.72,-25.07 1334.81,-22.21"/>
<polygon fill="midnightblue" stroke="midnightblue" points="515.57,-63.52 506.06,-68.19 516.4,-70.47 515.57,-63.52"/>
</g>
<!-- Node26&#45;&gt;Node14 -->
<g id="edge21" class="edge">
<title>Node26&#45;&gt;Node14</title>
<path fill="none" stroke="midnightblue" d="M466.72,-196.91C469.2,-184.49 472.36,-168.72 474.27,-159.13"/>
<polygon fill="midnightblue" stroke="midnightblue" points="463.28,-196.24 464.75,-206.73 470.15,-197.61 463.28,-196.24"/>
</g>
<!-- Node26&#45;&gt;Node18 -->
<g id="edge22" class="edge">
<title>Node26&#45;&gt;Node18</title>
<path fill="none" stroke="midnightblue" d="M382.33,-205.18C308.42,-191.92 200.01,-162.37 129,-98 106.68,-77.76 96.41,-41.72 92.72,-25.2"/>
<polygon fill="midnightblue" stroke="midnightblue" points="382.07,-208.69 392.52,-206.95 383.26,-201.79 382.07,-208.69"/>
</g>
<!-- Node27&#45;&gt;Node20 -->
<g id="edge32" class="edge">
<title>Node27&#45;&gt;Node20</title>
<path fill="none" stroke="midnightblue" d="M1402,-124.02C1402,-96.51 1402,-52.79 1402,-30.52"/>
<polygon fill="midnightblue" stroke="midnightblue" points="1398.5,-124.37 1402,-134.37 1405.5,-124.37 1398.5,-124.37"/>
</g>
</g>
</svg>
