<?xml version="1.0" encoding="UTF-8" standalone="no"?>
<!DOCTYPE svg PUBLIC "-//W3C//DTD SVG 1.1//EN"
 "http://www.w3.org/Graphics/SVG/1.1/DTD/svg11.dtd">
<!-- Generated by graphviz version 2.43.0 (0)
 -->
<!-- Title: lib/Target/ARM/MCTargetDesc/ARMMCAsmInfo.h Pages: 1 -->
<svg width="330pt" height="106pt"
 viewBox="0.00 0.00 330.00 106.00" xmlns="http://www.w3.org/2000/svg" xmlns:xlink="http://www.w3.org/1999/xlink">
<g id="graph0" class="graph" transform="scale(1 1) rotate(0) translate(4 102)">
<title>lib/Target/ARM/MCTargetDesc/ARMMCAsmInfo.h</title>
<!-- Node36 -->
<g id="node1" class="node">
<title>Node36</title>
<polygon fill="#bfbfbf" stroke="black" points="85,-67.5 85,-97.5 237,-97.5 237,-67.5 85,-67.5"/>
<text text-anchor="start" x="93" y="-85.5" font-family="Helvetica,sans-Serif" font-size="10.00">lib/Target/ARM/MCTargetDesc</text>
<text text-anchor="middle" x="161" y="-74.5" font-family="Helvetica,sans-Serif" font-size="10.00">/ARMMCAsmInfo.h</text>
</g>
<!-- Node37 -->
<g id="node2" class="node">
<title>Node37</title>
<g id="a_node2"><a xlink:href="ARMMCAsmInfo_8cpp.html" target="_top" xlink:title="lib/Target/ARM/MCTargetDesc\l/ARMMCAsmInfo.cpp">
<polygon fill="none" stroke="black" points="0,-0.5 0,-30.5 152,-30.5 152,-0.5 0,-0.5"/>
<text text-anchor="start" x="8" y="-18.5" font-family="Helvetica,sans-Serif" font-size="10.00">lib/Target/ARM/MCTargetDesc</text>
<text text-anchor="middle" x="76" y="-7.5" font-family="Helvetica,sans-Serif" font-size="10.00">/ARMMCAsmInfo.cpp</text>
</a>
</g>
</g>
<!-- Node36&#45;&gt;Node37 -->
<g id="edge1" class="edge">
<title>Node36&#45;&gt;Node37</title>
<path fill="none" stroke="midnightblue" d="M134.41,-61.17C121.41,-51.23 106.1,-39.51 94.41,-30.58"/>
<polygon fill="midnightblue" stroke="midnightblue" points="132.49,-64.1 142.56,-67.4 136.74,-58.54 132.49,-64.1"/>
</g>
<!-- Node38 -->
<g id="node3" class="node">
<title>Node38</title>
<g id="a_node3"><a xlink:href="ARMMCTargetDesc_8cpp.html" target="_top" xlink:title="lib/Target/ARM/MCTargetDesc\l/ARMMCTargetDesc.cpp">
<polygon fill="none" stroke="black" points="170,-0.5 170,-30.5 322,-30.5 322,-0.5 170,-0.5"/>
<text text-anchor="start" x="178" y="-18.5" font-family="Helvetica,sans-Serif" font-size="10.00">lib/Target/ARM/MCTargetDesc</text>
<text text-anchor="middle" x="246" y="-7.5" font-family="Helvetica,sans-Serif" font-size="10.00">/ARMMCTargetDesc.cpp</text>
</a>
</g>
</g>
<!-- Node36&#45;&gt;Node38 -->
<g id="edge2" class="edge">
<title>Node36&#45;&gt;Node38</title>
<path fill="none" stroke="midnightblue" d="M187.59,-61.17C200.59,-51.23 215.9,-39.51 227.59,-30.58"/>
<polygon fill="midnightblue" stroke="midnightblue" points="185.26,-58.54 179.44,-67.4 189.51,-64.1 185.26,-58.54"/>
</g>
</g>
</svg>
