<?xml version="1.0" encoding="UTF-8" standalone="no"?>
<!DOCTYPE svg PUBLIC "-//W3C//DTD SVG 1.1//EN"
 "http://www.w3.org/Graphics/SVG/1.1/DTD/svg11.dtd">
<!-- Generated by graphviz version 2.43.0 (0)
 -->
<!-- Title: include/llvm/Analysis/AssumptionCache.h Pages: 1 -->
<svg width="4679pt" height="498pt"
 viewBox="0.00 0.00 4678.86 498.00" xmlns="http://www.w3.org/2000/svg" xmlns:xlink="http://www.w3.org/1999/xlink">
<g id="graph0" class="graph" transform="scale(1 1) rotate(0) translate(4 494)">
<title>include/llvm/Analysis/AssumptionCache.h</title>
<!-- Node0 -->
<g id="node1" class="node">
<title>Node0</title>
<polygon fill="#bfbfbf" stroke="black" points="2553.36,-459.5 2553.36,-489.5 2662.36,-489.5 2662.36,-459.5 2553.36,-459.5"/>
<text text-anchor="start" x="2561.36" y="-477.5" font-family="Helvetica,sans-Serif" font-size="10.00">include/llvm/Analysis</text>
<text text-anchor="middle" x="2607.86" y="-466.5" font-family="Helvetica,sans-Serif" font-size="10.00">/AssumptionCache.h</text>
</g>
<!-- Node1 -->
<g id="node2" class="node">
<title>Node1</title>
<g id="a_node2"><a xlink:href="ArrayRef_8h.html" target="_top" xlink:title="llvm/ADT/ArrayRef.h">
<polygon fill="none" stroke="black" points="1808.86,-235.5 1808.86,-254.5 1916.86,-254.5 1916.86,-235.5 1808.86,-235.5"/>
<text text-anchor="middle" x="1862.86" y="-242.5" font-family="Helvetica,sans-Serif" font-size="10.00">llvm/ADT/ArrayRef.h</text>
</a>
</g>
</g>
<!-- Node0&#45;&gt;Node1 -->
<g id="edge1" class="edge">
<title>Node0&#45;&gt;Node1</title>
<path fill="none" stroke="midnightblue" d="M2553.09,-471.07C2368.33,-462.32 1776.38,-429.58 1720.86,-367 1680.9,-321.95 1773.89,-278.51 1827.79,-258.11"/>
<polygon fill="midnightblue" stroke="midnightblue" points="1829.19,-261.32 1837.35,-254.57 1826.76,-254.76 1829.19,-261.32"/>
</g>
<!-- Node24 -->
<g id="node13" class="node">
<title>Node24</title>
<g id="a_node13"><a xlink:href="SmallVector_8h.html" target="_top" xlink:title="llvm/ADT/SmallVector.h">
<polygon fill="none" stroke="black" points="1637.86,-179.5 1637.86,-198.5 1759.86,-198.5 1759.86,-179.5 1637.86,-179.5"/>
<text text-anchor="middle" x="1698.86" y="-186.5" font-family="Helvetica,sans-Serif" font-size="10.00">llvm/ADT/SmallVector.h</text>
</a>
</g>
</g>
<!-- Node0&#45;&gt;Node24 -->
<g id="edge110" class="edge">
<title>Node0&#45;&gt;Node24</title>
<path fill="none" stroke="midnightblue" d="M2553.27,-473.85C2324.13,-474.61 1451.86,-470.13 1451.86,-358 1451.86,-358 1451.86,-358 1451.86,-300 1451.86,-222.44 1554.75,-199.17 1627.72,-192.43"/>
<polygon fill="midnightblue" stroke="midnightblue" points="1628.13,-195.91 1637.81,-191.58 1627.55,-188.93 1628.13,-195.91"/>
</g>
<!-- Node34 -->
<g id="node22" class="node">
<title>Node34</title>
<polygon fill="none" stroke="#bfbfbf" points="3418.86,-118 3418.86,-137 3470.86,-137 3470.86,-118 3418.86,-118"/>
<text text-anchor="middle" x="3444.86" y="-125" font-family="Helvetica,sans-Serif" font-size="10.00">memory</text>
</g>
<!-- Node0&#45;&gt;Node34 -->
<g id="edge201" class="edge">
<title>Node0&#45;&gt;Node34</title>
<path fill="none" stroke="midnightblue" d="M2662.56,-472.31C2936.36,-466.02 4144.86,-433.93 4144.86,-358 4144.86,-358 4144.86,-358 4144.86,-244 4144.86,-177.41 4074.06,-196.69 4009.86,-179 3909.48,-151.33 3589.44,-134.92 3481.11,-130.04"/>
<polygon fill="midnightblue" stroke="midnightblue" points="3481.15,-126.54 3471,-129.59 3480.84,-133.53 3481.15,-126.54"/>
</g>
<!-- Node45 -->
<g id="node29" class="node">
<title>Node45</title>
<g id="a_node29"><a xlink:href="DenseMap_8h.html" target="_top" xlink:title="llvm/ADT/DenseMap.h">
<polygon fill="none" stroke="black" points="1241.86,-347.5 1241.86,-366.5 1357.86,-366.5 1357.86,-347.5 1241.86,-347.5"/>
<text text-anchor="middle" x="1299.86" y="-354.5" font-family="Helvetica,sans-Serif" font-size="10.00">llvm/ADT/DenseMap.h</text>
</a>
</g>
</g>
<!-- Node0&#45;&gt;Node45 -->
<g id="edge69" class="edge">
<title>Node0&#45;&gt;Node45</title>
<path fill="none" stroke="midnightblue" d="M2553.09,-473.99C2351.78,-475.36 1653.28,-476.1 1437.86,-423 1394.58,-412.33 1348.55,-387.59 1322.1,-371.9"/>
<polygon fill="midnightblue" stroke="midnightblue" points="1323.65,-368.74 1313.28,-366.56 1320.03,-374.73 1323.65,-368.74"/>
</g>
<!-- Node46 -->
<g id="node30" class="node">
<title>Node46</title>
<g id="a_node30"><a xlink:href="DenseMapInfo_8h.html" target="_top" xlink:title="llvm/ADT/DenseMapInfo.h">
<polygon fill="none" stroke="black" points="2725.36,-291.5 2725.36,-310.5 2858.36,-310.5 2858.36,-291.5 2725.36,-291.5"/>
<text text-anchor="middle" x="2791.86" y="-298.5" font-family="Helvetica,sans-Serif" font-size="10.00">llvm/ADT/DenseMapInfo.h</text>
</a>
</g>
</g>
<!-- Node0&#45;&gt;Node46 -->
<g id="edge109" class="edge">
<title>Node0&#45;&gt;Node46</title>
<path fill="none" stroke="midnightblue" d="M2642.17,-459.5C2679.08,-442.75 2737.01,-411.33 2770.86,-367 2781.2,-353.47 2786.55,-334.66 2789.25,-320.76"/>
<polygon fill="midnightblue" stroke="midnightblue" points="2792.71,-321.29 2790.9,-310.85 2785.8,-320.15 2792.71,-321.29"/>
</g>
<!-- Node53 -->
<g id="node36" class="node">
<title>Node53</title>
<g id="a_node36"><a xlink:href="PassManager_8h.html" target="_top" xlink:title="This header defines various interfaces for pass management in LLVM. ">
<polygon fill="none" stroke="black" points="2429.36,-403.5 2429.36,-422.5 2548.36,-422.5 2548.36,-403.5 2429.36,-403.5"/>
<text text-anchor="middle" x="2488.86" y="-410.5" font-family="Helvetica,sans-Serif" font-size="10.00">llvm/IR/PassManager.h</text>
</a>
</g>
</g>
<!-- Node0&#45;&gt;Node53 -->
<g id="edge111" class="edge">
<title>Node0&#45;&gt;Node53</title>
<path fill="none" stroke="midnightblue" d="M2579.66,-459.4C2560.14,-449.64 2534.34,-436.74 2515.23,-427.18"/>
<polygon fill="midnightblue" stroke="midnightblue" points="2516.69,-424 2506.18,-422.66 2513.56,-430.26 2516.69,-424"/>
</g>
<!-- Node123 -->
<g id="node45" class="node">
<title>Node123</title>
<g id="a_node45"><a xlink:href="Pass_8h.html" target="_top" xlink:title="llvm/Pass.h">
<polygon fill="none" stroke="red" points="2693.86,-347.5 2693.86,-366.5 2761.86,-366.5 2761.86,-347.5 2693.86,-347.5"/>
<text text-anchor="middle" x="2727.86" y="-354.5" font-family="Helvetica,sans-Serif" font-size="10.00">llvm/Pass.h</text>
</a>
</g>
</g>
<!-- Node0&#45;&gt;Node123 -->
<g id="edge200" class="edge">
<title>Node0&#45;&gt;Node123</title>
<path fill="none" stroke="midnightblue" d="M2622.58,-459.34C2645.08,-437.68 2687.91,-396.45 2711.41,-373.83"/>
<polygon fill="midnightblue" stroke="midnightblue" points="2714.08,-376.13 2718.85,-366.67 2709.22,-371.08 2714.08,-376.13"/>
</g>
<!-- Node137 -->
<g id="node49" class="node">
<title>Node137</title>
<g id="a_node49"><a xlink:href="ValueHandle_8h.html" target="_top" xlink:title="llvm/IR/ValueHandle.h">
<polygon fill="none" stroke="red" points="4173.36,-347.5 4173.36,-366.5 4288.36,-366.5 4288.36,-347.5 4173.36,-347.5"/>
<text text-anchor="middle" x="4230.86" y="-354.5" font-family="Helvetica,sans-Serif" font-size="10.00">llvm/IR/ValueHandle.h</text>
</a>
</g>
</g>
<!-- Node0&#45;&gt;Node137 -->
<g id="edge190" class="edge">
<title>Node0&#45;&gt;Node137</title>
<path fill="none" stroke="midnightblue" d="M2662.53,-472.77C2929.7,-469.09 4088.16,-451.52 4158.86,-423 4183.63,-413.01 4205.35,-390.44 4218.29,-374.72"/>
<polygon fill="midnightblue" stroke="midnightblue" points="4221.08,-376.83 4224.53,-366.82 4215.59,-372.49 4221.08,-376.83"/>
</g>
<!-- Node2 -->
<g id="node3" class="node">
<title>Node2</title>
<g id="a_node3"><a xlink:href="Hashing_8h.html" target="_top" xlink:title="llvm/ADT/Hashing.h">
<polygon fill="none" stroke="red" points="1992.36,-179.5 1992.36,-198.5 2097.36,-198.5 2097.36,-179.5 1992.36,-179.5"/>
<text text-anchor="middle" x="2044.86" y="-186.5" font-family="Helvetica,sans-Serif" font-size="10.00">llvm/ADT/Hashing.h</text>
</a>
</g>
</g>
<!-- Node1&#45;&gt;Node2 -->
<g id="edge2" class="edge">
<title>Node1&#45;&gt;Node2</title>
<path fill="none" stroke="midnightblue" d="M1891.7,-235.44C1922.72,-226.24 1972.19,-211.56 2006.48,-201.39"/>
<polygon fill="midnightblue" stroke="midnightblue" points="2007.57,-204.72 2016.16,-198.52 2005.58,-198.01 2007.57,-204.72"/>
</g>
<!-- Node10 -->
<g id="node5" class="node">
<title>Node10</title>
<g id="a_node5"><a xlink:href="Compiler_8h.html" target="_top" xlink:title="llvm/Support/Compiler.h">
<polygon fill="none" stroke="red" points="1641.86,-0.5 1641.86,-19.5 1763.86,-19.5 1763.86,-0.5 1641.86,-0.5"/>
<text text-anchor="middle" x="1702.86" y="-7.5" font-family="Helvetica,sans-Serif" font-size="10.00">llvm/Support/Compiler.h</text>
</a>
</g>
</g>
<!-- Node1&#45;&gt;Node10 -->
<g id="edge59" class="edge">
<title>Node1&#45;&gt;Node10</title>
<path fill="none" stroke="midnightblue" d="M1808.68,-240.61C1694.55,-233.27 1432.74,-215.22 1344.86,-199 1313.04,-193.13 1306.3,-186.64 1274.86,-179 1196.01,-159.84 1147.27,-205.78 1095.86,-143 1025.85,-57.51 1456.85,-24.31 1631.64,-14.46"/>
<polygon fill="midnightblue" stroke="midnightblue" points="1631.98,-17.94 1641.77,-13.9 1631.6,-10.96 1631.98,-17.94"/>
</g>
<!-- Node16 -->
<g id="node7" class="node">
<title>Node16</title>
<polygon fill="none" stroke="#bfbfbf" points="846.86,-56.5 846.86,-75.5 908.86,-75.5 908.86,-56.5 846.86,-56.5"/>
<text text-anchor="middle" x="877.86" y="-63.5" font-family="Helvetica,sans-Serif" font-size="10.00">type_traits</text>
</g>
<!-- Node1&#45;&gt;Node16 -->
<g id="edge67" class="edge">
<title>Node1&#45;&gt;Node16</title>
<path fill="none" stroke="midnightblue" d="M1808.57,-242.5C1634.06,-237.48 1094.45,-220.38 1018.86,-199 1006.33,-195.45 924.91,-152.37 915.86,-143 899.88,-126.47 889.28,-101.89 883.42,-85.2"/>
<polygon fill="midnightblue" stroke="midnightblue" points="886.69,-83.94 880.25,-75.53 880.04,-86.12 886.69,-83.94"/>
</g>
<!-- Node20 -->
<g id="node9" class="node">
<title>Node20</title>
<polygon fill="none" stroke="#bfbfbf" points="279.86,-56.5 279.86,-75.5 335.86,-75.5 335.86,-56.5 279.86,-56.5"/>
<text text-anchor="middle" x="307.86" y="-63.5" font-family="Helvetica,sans-Serif" font-size="10.00">algorithm</text>
</g>
<!-- Node1&#45;&gt;Node20 -->
<g id="edge60" class="edge">
<title>Node1&#45;&gt;Node20</title>
<path fill="none" stroke="midnightblue" d="M1808.62,-242.79C1628.2,-238.56 1055.18,-223.34 975.86,-199 959.47,-193.97 959.26,-184.02 942.86,-179 865.53,-155.32 271.62,-201.59 215.86,-143 206.36,-133.02 208.57,-123.69 215.86,-112 227.7,-93.03 250.11,-81.84 269.84,-75.36"/>
<polygon fill="midnightblue" stroke="midnightblue" points="270.97,-78.68 279.55,-72.47 268.97,-71.97 270.97,-78.68"/>
</g>
<!-- Node21 -->
<g id="node10" class="node">
<title>Node21</title>
<polygon fill="none" stroke="#bfbfbf" points="3744.36,-56.5 3744.36,-75.5 3793.36,-75.5 3793.36,-56.5 3744.36,-56.5"/>
<text text-anchor="middle" x="3768.86" y="-63.5" font-family="Helvetica,sans-Serif" font-size="10.00">cassert</text>
</g>
<!-- Node1&#45;&gt;Node21 -->
<g id="edge62" class="edge">
<title>Node1&#45;&gt;Node21</title>
<path fill="none" stroke="midnightblue" d="M1917.06,-238.49C1932.2,-237.14 1948.66,-235.84 1963.86,-235 2056.63,-229.87 3551.19,-237.26 3635.86,-199 3683.73,-177.37 3677.99,-148.4 3715.86,-112 3726.74,-101.54 3739.63,-90.57 3749.98,-82.08"/>
<polygon fill="midnightblue" stroke="midnightblue" points="3752.41,-84.61 3757.97,-75.59 3748,-79.18 3752.41,-84.61"/>
</g>
<!-- Node23 -->
<g id="node12" class="node">
<title>Node23</title>
<g id="a_node12"><a xlink:href="None_8h.html" target="_top" xlink:title="llvm/ADT/None.h">
<polygon fill="none" stroke="black" points="841.86,-179.5 841.86,-198.5 933.86,-198.5 933.86,-179.5 841.86,-179.5"/>
<text text-anchor="middle" x="887.86" y="-186.5" font-family="Helvetica,sans-Serif" font-size="10.00">llvm/ADT/None.h</text>
</a>
</g>
</g>
<!-- Node1&#45;&gt;Node23 -->
<g id="edge13" class="edge">
<title>Node1&#45;&gt;Node23</title>
<path fill="none" stroke="midnightblue" d="M1808.84,-243.22C1667.22,-240.78 1273.69,-231.37 947.86,-199 946.59,-198.87 945.31,-198.74 944.02,-198.6"/>
<polygon fill="midnightblue" stroke="midnightblue" points="944.34,-195.11 933.99,-197.39 943.5,-202.06 944.34,-195.11"/>
</g>
<!-- Node1&#45;&gt;Node24 -->
<g id="edge14" class="edge">
<title>Node1&#45;&gt;Node24</title>
<path fill="none" stroke="midnightblue" d="M1836.88,-235.44C1809.17,-226.32 1765.11,-211.81 1734.25,-201.65"/>
<polygon fill="midnightblue" stroke="midnightblue" points="1735.32,-198.32 1724.73,-198.52 1733.13,-204.97 1735.32,-198.32"/>
</g>
<!-- Node26 -->
<g id="node15" class="node">
<title>Node26</title>
<polygon fill="none" stroke="#bfbfbf" points="3116.36,-56.5 3116.36,-75.5 3163.36,-75.5 3163.36,-56.5 3116.36,-56.5"/>
<text text-anchor="middle" x="3139.86" y="-63.5" font-family="Helvetica,sans-Serif" font-size="10.00">iterator</text>
</g>
<!-- Node1&#45;&gt;Node26 -->
<g id="edge65" class="edge">
<title>Node1&#45;&gt;Node26</title>
<path fill="none" stroke="midnightblue" d="M1916.92,-236.51C2132.9,-206.57 2930.72,-95.99 3105.77,-71.73"/>
<polygon fill="midnightblue" stroke="midnightblue" points="3106.51,-75.16 3115.93,-70.32 3105.54,-68.22 3106.51,-75.16"/>
</g>
<!-- Node15 -->
<g id="node17" class="node">
<title>Node15</title>
<polygon fill="none" stroke="#bfbfbf" points="2309.36,-56.5 2309.36,-75.5 2358.36,-75.5 2358.36,-56.5 2309.36,-56.5"/>
<text text-anchor="middle" x="2333.86" y="-63.5" font-family="Helvetica,sans-Serif" font-size="10.00">cstddef</text>
</g>
<!-- Node1&#45;&gt;Node15 -->
<g id="edge63" class="edge">
<title>Node1&#45;&gt;Node15</title>
<path fill="none" stroke="midnightblue" d="M1916.98,-239.09C1979.17,-232.59 2076.58,-219.48 2106.86,-199 2144.75,-173.37 2124.94,-139 2161.86,-112 2202.68,-82.15 2261.69,-72.07 2298.9,-68.69"/>
<polygon fill="midnightblue" stroke="midnightblue" points="2299.55,-72.15 2309.24,-67.87 2299,-65.17 2299.55,-72.15"/>
</g>
<!-- Node33 -->
<g id="node21" class="node">
<title>Node33</title>
<polygon fill="none" stroke="#bfbfbf" points="1105.36,-118 1105.36,-137 1178.36,-137 1178.36,-118 1105.36,-118"/>
<text text-anchor="middle" x="1141.86" y="-125" font-family="Helvetica,sans-Serif" font-size="10.00">initializer_list</text>
</g>
<!-- Node1&#45;&gt;Node33 -->
<g id="edge64" class="edge">
<title>Node1&#45;&gt;Node33</title>
<path fill="none" stroke="midnightblue" d="M1808.72,-236.76C1671.19,-218.24 1310.96,-168.74 1192.86,-143 1188.44,-142.04 1183.84,-140.91 1179.29,-139.72"/>
<polygon fill="midnightblue" stroke="midnightblue" points="1180.06,-136.3 1169.49,-137.04 1178.22,-143.05 1180.06,-136.3"/>
</g>
<!-- Node1&#45;&gt;Node34 -->
<g id="edge66" class="edge">
<title>Node1&#45;&gt;Node34</title>
<path fill="none" stroke="midnightblue" d="M1917.07,-238.63C1932.2,-237.27 1948.66,-235.94 1963.86,-235 2423.7,-206.54 2540.81,-238.22 2999.86,-199 3183.11,-183.34 3232.33,-191.04 3409.86,-143 3412.31,-142.34 3414.81,-141.55 3417.29,-140.68"/>
<polygon fill="midnightblue" stroke="midnightblue" points="3418.57,-143.94 3426.64,-137.08 3416.05,-137.41 3418.57,-143.94"/>
</g>
<!-- Node36 -->
<g id="node24" class="node">
<title>Node36</title>
<g id="a_node24"><a xlink:href="STLExtras_8h.html" target="_top" xlink:title="llvm/ADT/STLExtras.h">
<polygon fill="none" stroke="red" points="2874.86,-179.5 2874.86,-198.5 2990.86,-198.5 2990.86,-179.5 2874.86,-179.5"/>
<text text-anchor="middle" x="2932.86" y="-186.5" font-family="Helvetica,sans-Serif" font-size="10.00">llvm/ADT/STLExtras.h</text>
</a>
</g>
</g>
<!-- Node1&#45;&gt;Node36 -->
<g id="edge45" class="edge">
<title>Node1&#45;&gt;Node36</title>
<path fill="none" stroke="midnightblue" d="M1917.08,-238.74C1932.21,-237.39 1948.67,-236.03 1963.86,-235 2301.53,-212.13 2706.19,-197.43 2864.58,-192.17"/>
<polygon fill="midnightblue" stroke="midnightblue" points="2864.77,-195.67 2874.65,-191.84 2864.54,-188.67 2864.77,-195.67"/>
</g>
<!-- Node43 -->
<g id="node27" class="node">
<title>Node43</title>
<polygon fill="none" stroke="#bfbfbf" points="1353.86,-179.5 1353.86,-198.5 1391.86,-198.5 1391.86,-179.5 1353.86,-179.5"/>
<text text-anchor="middle" x="1372.86" y="-186.5" font-family="Helvetica,sans-Serif" font-size="10.00">array</text>
</g>
<!-- Node1&#45;&gt;Node43 -->
<g id="edge61" class="edge">
<title>Node1&#45;&gt;Node43</title>
<path fill="none" stroke="midnightblue" d="M1808.63,-241.61C1722.63,-237.17 1549.93,-225.54 1405.86,-199 1404.58,-198.76 1403.28,-198.5 1401.96,-198.22"/>
<polygon fill="midnightblue" stroke="midnightblue" points="1402.47,-194.74 1391.93,-195.79 1400.82,-201.55 1402.47,-194.74"/>
</g>
<!-- Node44 -->
<g id="node28" class="node">
<title>Node44</title>
<polygon fill="none" stroke="#bfbfbf" points="1929.86,-179.5 1929.86,-198.5 1973.86,-198.5 1973.86,-179.5 1929.86,-179.5"/>
<text text-anchor="middle" x="1951.86" y="-186.5" font-family="Helvetica,sans-Serif" font-size="10.00">vector</text>
</g>
<!-- Node1&#45;&gt;Node44 -->
<g id="edge68" class="edge">
<title>Node1&#45;&gt;Node44</title>
<path fill="none" stroke="midnightblue" d="M1877.16,-235.32C1891.04,-226.9 1912.35,-213.97 1928.67,-204.07"/>
<polygon fill="midnightblue" stroke="midnightblue" points="1930.86,-206.83 1937.6,-198.65 1927.23,-200.85 1930.86,-206.83"/>
</g>
<!-- Node9 -->
<g id="node4" class="node">
<title>Node9</title>
<g id="a_node4"><a xlink:href="Support_2ErrorHandling_8h.html" target="_top" xlink:title="llvm/Support/ErrorHandling.h">
<polygon fill="none" stroke="red" points="1713.86,-56.5 1713.86,-75.5 1855.86,-75.5 1855.86,-56.5 1713.86,-56.5"/>
<text text-anchor="middle" x="1784.86" y="-63.5" font-family="Helvetica,sans-Serif" font-size="10.00">llvm/Support/ErrorHandling.h</text>
</a>
</g>
</g>
<!-- Node2&#45;&gt;Node9 -->
<g id="edge3" class="edge">
<title>Node2&#45;&gt;Node9</title>
<path fill="none" stroke="midnightblue" d="M2041.4,-179.34C2034.52,-163.32 2017.56,-129.13 1991.86,-112 1954.91,-87.37 1906.75,-75.96 1866.19,-70.78"/>
<polygon fill="midnightblue" stroke="midnightblue" points="1866.39,-67.28 1856.05,-69.6 1865.58,-74.23 1866.39,-67.28"/>
</g>
<!-- Node18 -->
<g id="node6" class="node">
<title>Node18</title>
<g id="a_node6"><a xlink:href="type__traits_8h.html" target="_top" xlink:title="llvm/Support/type_traits.h">
<polygon fill="none" stroke="black" points="1854.86,-118 1854.86,-137 1982.86,-137 1982.86,-118 1854.86,-118"/>
<text text-anchor="middle" x="1918.86" y="-125" font-family="Helvetica,sans-Serif" font-size="10.00">llvm/Support/type_traits.h</text>
</a>
</g>
</g>
<!-- Node2&#45;&gt;Node18 -->
<g id="edge5" class="edge">
<title>Node2&#45;&gt;Node18</title>
<path fill="none" stroke="midnightblue" d="M2026.81,-179.48C2005.66,-169.49 1970.42,-152.85 1945.98,-141.31"/>
<polygon fill="midnightblue" stroke="midnightblue" points="1947.42,-138.11 1936.88,-137.01 1944.43,-144.44 1947.42,-138.11"/>
</g>
<!-- Node19 -->
<g id="node8" class="node">
<title>Node19</title>
<polygon fill="none" stroke="#bfbfbf" points="2636.86,-56.5 2636.86,-75.5 2676.86,-75.5 2676.86,-56.5 2636.86,-56.5"/>
<text text-anchor="middle" x="2656.86" y="-63.5" font-family="Helvetica,sans-Serif" font-size="10.00">utility</text>
</g>
<!-- Node2&#45;&gt;Node19 -->
<g id="edge12" class="edge">
<title>Node2&#45;&gt;Node19</title>
<path fill="none" stroke="midnightblue" d="M2087.9,-179.49C2204.85,-156.37 2526.44,-92.79 2626.64,-72.97"/>
<polygon fill="midnightblue" stroke="midnightblue" points="2627.56,-76.36 2636.69,-70.99 2626.21,-69.49 2627.56,-76.36"/>
</g>
<!-- Node2&#45;&gt;Node20 -->
<g id="edge9" class="edge">
<title>Node2&#45;&gt;Node20</title>
<path fill="none" stroke="midnightblue" d="M1992.15,-179.91C1989.01,-179.57 1985.9,-179.26 1982.86,-179 1663.46,-151.93 855.19,-205.84 540.86,-143 503.47,-135.52 496.96,-124.28 460.86,-112 422.12,-98.82 377.12,-85.86 345.99,-77.26"/>
<polygon fill="midnightblue" stroke="midnightblue" points="346.57,-73.79 336,-74.52 344.72,-80.54 346.57,-73.79"/>
</g>
<!-- Node2&#45;&gt;Node21 -->
<g id="edge10" class="edge">
<title>Node2&#45;&gt;Node21</title>
<path fill="none" stroke="midnightblue" d="M2097.41,-184C2249.57,-172.44 2703.72,-138.17 3080.86,-112 3331.16,-94.63 3632.83,-75.54 3733.93,-69.19"/>
<polygon fill="midnightblue" stroke="midnightblue" points="3734.41,-72.66 3744.17,-68.54 3733.98,-65.68 3734.41,-72.66"/>
</g>
<!-- Node22 -->
<g id="node11" class="node">
<title>Node22</title>
<polygon fill="none" stroke="#bfbfbf" points="398.86,-56.5 398.86,-75.5 444.86,-75.5 444.86,-56.5 398.86,-56.5"/>
<text text-anchor="middle" x="421.86" y="-63.5" font-family="Helvetica,sans-Serif" font-size="10.00">cstring</text>
</g>
<!-- Node2&#45;&gt;Node22 -->
<g id="edge11" class="edge">
<title>Node2&#45;&gt;Node22</title>
<path fill="none" stroke="midnightblue" d="M1992.14,-180.02C1989,-179.65 1985.89,-179.3 1982.86,-179 1698.07,-150.41 1623.75,-179.51 1339.86,-143 1271.05,-134.15 1255.66,-120.95 1186.86,-112 905.61,-75.42 562.29,-68.56 455.31,-67.29"/>
<polygon fill="midnightblue" stroke="midnightblue" points="455.17,-63.78 445.13,-67.17 455.09,-70.78 455.17,-63.78"/>
</g>
<!-- Node9&#45;&gt;Node10 -->
<g id="edge4" class="edge">
<title>Node9&#45;&gt;Node10</title>
<path fill="none" stroke="midnightblue" d="M1771.69,-56.32C1759.01,-47.98 1739.63,-35.21 1724.66,-25.35"/>
<polygon fill="midnightblue" stroke="midnightblue" points="1726.28,-22.23 1716,-19.65 1722.43,-28.08 1726.28,-22.23"/>
</g>
<!-- Node18&#45;&gt;Node10 -->
<g id="edge6" class="edge">
<title>Node18&#45;&gt;Node10</title>
<path fill="none" stroke="midnightblue" d="M1914.54,-117.65C1906.74,-102.64 1888.88,-72.22 1864.86,-56 1838.02,-37.87 1804.02,-27 1774.1,-20.51"/>
<polygon fill="midnightblue" stroke="midnightblue" points="1774.62,-17.04 1764.12,-18.47 1773.22,-23.9 1774.62,-17.04"/>
</g>
<!-- Node18&#45;&gt;Node16 -->
<g id="edge7" class="edge">
<title>Node18&#45;&gt;Node16</title>
<path fill="none" stroke="midnightblue" d="M1854.38,-122.19C1809.4,-119.21 1747.98,-115.24 1693.86,-112 1396.91,-94.24 1039,-75.39 919.18,-69.14"/>
<polygon fill="midnightblue" stroke="midnightblue" points="919.16,-65.64 909,-68.61 918.8,-72.63 919.16,-65.64"/>
</g>
<!-- Node18&#45;&gt;Node19 -->
<g id="edge8" class="edge">
<title>Node18&#45;&gt;Node19</title>
<path fill="none" stroke="midnightblue" d="M1983.06,-121.32C2135.79,-109.01 2516.19,-78.34 2626.46,-69.45"/>
<polygon fill="midnightblue" stroke="midnightblue" points="2626.87,-72.93 2636.56,-68.64 2626.31,-65.95 2626.87,-72.93"/>
</g>
<!-- Node24&#45;&gt;Node9 -->
<g id="edge33" class="edge">
<title>Node24&#45;&gt;Node9</title>
<path fill="none" stroke="midnightblue" d="M1701.97,-179.47C1707.56,-164.8 1720.28,-134.23 1736.86,-112 1745.1,-100.95 1756.23,-90.32 1765.71,-82.17"/>
<polygon fill="midnightblue" stroke="midnightblue" points="1768.04,-84.78 1773.49,-75.7 1763.56,-79.4 1768.04,-84.78"/>
</g>
<!-- Node24&#45;&gt;Node10 -->
<g id="edge21" class="edge">
<title>Node24&#45;&gt;Node10</title>
<path fill="none" stroke="midnightblue" d="M1637.81,-180.6C1535.66,-168.19 1341.09,-144.39 1339.86,-143 1254.43,-46.19 1502.83,-20.34 1631.24,-13.47"/>
<polygon fill="midnightblue" stroke="midnightblue" points="1631.59,-16.95 1641.4,-12.95 1631.24,-9.96 1631.59,-16.95"/>
</g>
<!-- Node24&#45;&gt;Node18 -->
<g id="edge32" class="edge">
<title>Node24&#45;&gt;Node18</title>
<path fill="none" stroke="midnightblue" d="M1730.38,-179.48C1769.1,-169 1834.88,-151.21 1877.6,-139.66"/>
<polygon fill="midnightblue" stroke="midnightblue" points="1878.66,-143 1887.4,-137.01 1876.83,-136.24 1878.66,-143"/>
</g>
<!-- Node24&#45;&gt;Node16 -->
<g id="edge43" class="edge">
<title>Node24&#45;&gt;Node16</title>
<path fill="none" stroke="midnightblue" d="M1637.48,-180.54C1632.87,-180.01 1628.29,-179.49 1623.86,-179 1466.24,-161.55 1418.51,-195.48 1268.86,-143 1244.9,-134.6 1244.7,-120.75 1220.86,-112 1117.26,-73.95 985.65,-67.34 919.63,-66.64"/>
<polygon fill="midnightblue" stroke="midnightblue" points="919.25,-63.14 909.23,-66.57 919.2,-70.14 919.25,-63.14"/>
</g>
<!-- Node24&#45;&gt;Node19 -->
<g id="edge44" class="edge">
<title>Node24&#45;&gt;Node19</title>
<path fill="none" stroke="midnightblue" d="M1720.16,-179.39C1740.51,-170.92 1771.85,-157.21 1797.86,-143 1820.15,-130.82 1821.71,-119.85 1845.86,-112 1883.64,-99.71 2483.49,-74.18 2626.45,-68.25"/>
<polygon fill="midnightblue" stroke="midnightblue" points="2626.83,-71.74 2636.67,-67.83 2626.54,-64.74 2626.83,-71.74"/>
</g>
<!-- Node24&#45;&gt;Node20 -->
<g id="edge34" class="edge">
<title>Node24&#45;&gt;Node20</title>
<path fill="none" stroke="midnightblue" d="M1637.78,-185.86C1394.5,-177.34 506.99,-146.06 492.86,-143 432.69,-129.95 367.11,-98.51 332.49,-80.42"/>
<polygon fill="midnightblue" stroke="midnightblue" points="334.05,-77.29 323.57,-75.7 330.77,-83.48 334.05,-77.29"/>
</g>
<!-- Node24&#45;&gt;Node21 -->
<g id="edge35" class="edge">
<title>Node24&#45;&gt;Node21</title>
<path fill="none" stroke="midnightblue" d="M1759.98,-184.89C1911.75,-177.07 2302.91,-156.24 2432.86,-143 2529.78,-133.12 2552.84,-120.86 2649.86,-112 3075.44,-73.15 3595.12,-67.84 3733.59,-67.11"/>
<polygon fill="midnightblue" stroke="midnightblue" points="3734.01,-70.61 3743.99,-67.06 3733.97,-63.61 3734.01,-70.61"/>
</g>
<!-- Node24&#45;&gt;Node22 -->
<g id="edge38" class="edge">
<title>Node24&#45;&gt;Node22</title>
<path fill="none" stroke="midnightblue" d="M1637.58,-184.94C1600.6,-183.13 1552.53,-180.84 1509.86,-179 1301.9,-170.05 775.49,-194.71 573.86,-143 524.05,-130.23 471.61,-99.62 443.2,-81.38"/>
<polygon fill="midnightblue" stroke="midnightblue" points="444.82,-78.25 434.53,-75.71 440.99,-84.11 444.82,-78.25"/>
</g>
<!-- Node25 -->
<g id="node14" class="node">
<title>Node25</title>
<g id="a_node14"><a xlink:href="iterator__range_8h.html" target="_top" xlink:title="This provides a very simple, boring adaptor for a begin and end iterator into a range type...">
<polygon fill="none" stroke="black" points="3140.86,-118 3140.86,-137 3268.86,-137 3268.86,-118 3140.86,-118"/>
<text text-anchor="middle" x="3204.86" y="-125" font-family="Helvetica,sans-Serif" font-size="10.00">llvm/ADT/iterator_range.h</text>
</a>
</g>
</g>
<!-- Node24&#45;&gt;Node25 -->
<g id="edge15" class="edge">
<title>Node24&#45;&gt;Node25</title>
<path fill="none" stroke="midnightblue" d="M1760.11,-185.5C1804.69,-183.68 1866.52,-181.17 1920.86,-179 2380.75,-160.63 2933.31,-139.07 3130.49,-131.39"/>
<polygon fill="midnightblue" stroke="midnightblue" points="3130.87,-134.88 3140.73,-130.99 3130.6,-127.89 3130.87,-134.88"/>
</g>
<!-- Node24&#45;&gt;Node26 -->
<g id="edge40" class="edge">
<title>Node24&#45;&gt;Node26</title>
<path fill="none" stroke="midnightblue" d="M1760.32,-182.84C2006.81,-162.14 2919.46,-85.51 3106.31,-69.82"/>
<polygon fill="midnightblue" stroke="midnightblue" points="3106.69,-73.3 3116.36,-68.97 3106.1,-66.32 3106.69,-73.3"/>
</g>
<!-- Node27 -->
<g id="node16" class="node">
<title>Node27</title>
<g id="a_node16"><a xlink:href="AlignOf_8h.html" target="_top" xlink:title="llvm/Support/AlignOf.h">
<polygon fill="none" stroke="black" points="1349.36,-118 1349.36,-137 1464.36,-137 1464.36,-118 1349.36,-118"/>
<text text-anchor="middle" x="1406.86" y="-125" font-family="Helvetica,sans-Serif" font-size="10.00">llvm/Support/AlignOf.h</text>
</a>
</g>
</g>
<!-- Node24&#45;&gt;Node27 -->
<g id="edge18" class="edge">
<title>Node24&#45;&gt;Node27</title>
<path fill="none" stroke="midnightblue" d="M1657.02,-179.48C1604.66,-168.8 1514.99,-150.53 1458.43,-139.01"/>
<polygon fill="midnightblue" stroke="midnightblue" points="1459.12,-135.58 1448.62,-137.01 1457.72,-142.44 1459.12,-135.58"/>
</g>
<!-- Node24&#45;&gt;Node15 -->
<g id="edge36" class="edge">
<title>Node24&#45;&gt;Node15</title>
<path fill="none" stroke="midnightblue" d="M1708.02,-179.47C1726.3,-163.04 1769.31,-127.26 1812.86,-112 1903.16,-80.35 2197.99,-70.31 2299.3,-67.75"/>
<polygon fill="midnightblue" stroke="midnightblue" points="2299.4,-71.25 2309.31,-67.51 2299.23,-64.25 2299.4,-71.25"/>
</g>
<!-- Node28 -->
<g id="node18" class="node">
<title>Node28</title>
<g id="a_node18"><a xlink:href="MathExtras_8h.html" target="_top" xlink:title="llvm/Support/MathExtras.h">
<polygon fill="none" stroke="red" points="583.36,-118 583.36,-137 716.36,-137 716.36,-118 583.36,-118"/>
<text text-anchor="middle" x="649.86" y="-125" font-family="Helvetica,sans-Serif" font-size="10.00">llvm/Support/MathExtras.h</text>
</a>
</g>
</g>
<!-- Node24&#45;&gt;Node28 -->
<g id="edge22" class="edge">
<title>Node24&#45;&gt;Node28</title>
<path fill="none" stroke="midnightblue" d="M1637.54,-184.52C1456.74,-174.27 925.99,-144.16 726.68,-132.86"/>
<polygon fill="midnightblue" stroke="midnightblue" points="726.77,-129.36 716.58,-132.28 726.37,-136.35 726.77,-129.36"/>
</g>
<!-- Node31 -->
<g id="node19" class="node">
<title>Node31</title>
<g id="a_node19"><a xlink:href="MemAlloc_8h.html" target="_top" xlink:title="This file defines counterparts of C library allocation functions defined in the namespace &#39;std&#39;...">
<polygon fill="none" stroke="black" points="1558.86,-118 1558.86,-137 1684.86,-137 1684.86,-118 1558.86,-118"/>
<text text-anchor="middle" x="1621.86" y="-125" font-family="Helvetica,sans-Serif" font-size="10.00">llvm/Support/MemAlloc.h</text>
</a>
</g>
</g>
<!-- Node24&#45;&gt;Node31 -->
<g id="edge28" class="edge">
<title>Node24&#45;&gt;Node31</title>
<path fill="none" stroke="midnightblue" d="M1687.83,-179.48C1675.59,-170.02 1655.63,-154.6 1640.87,-143.19"/>
<polygon fill="midnightblue" stroke="midnightblue" points="1642.93,-140.35 1632.87,-137.01 1638.65,-145.89 1642.93,-140.35"/>
</g>
<!-- Node32 -->
<g id="node20" class="node">
<title>Node32</title>
<polygon fill="none" stroke="#bfbfbf" points="1650.36,-56.5 1650.36,-75.5 1695.36,-75.5 1695.36,-56.5 1650.36,-56.5"/>
<text text-anchor="middle" x="1672.86" y="-63.5" font-family="Helvetica,sans-Serif" font-size="10.00">cstdlib</text>
</g>
<!-- Node24&#45;&gt;Node32 -->
<g id="edge37" class="edge">
<title>Node24&#45;&gt;Node32</title>
<path fill="none" stroke="midnightblue" d="M1648.82,-179.46C1610.37,-171.75 1561.86,-159.16 1549.86,-143 1541.65,-131.94 1541.97,-123.29 1549.86,-112 1570.05,-83.12 1610.87,-72.71 1639.94,-69"/>
<polygon fill="midnightblue" stroke="midnightblue" points="1640.49,-72.46 1650.06,-67.91 1639.75,-65.5 1640.49,-72.46"/>
</g>
<!-- Node24&#45;&gt;Node33 -->
<g id="edge39" class="edge">
<title>Node24&#45;&gt;Node33</title>
<path fill="none" stroke="midnightblue" d="M1637.77,-182.63C1529.47,-173.02 1307.97,-152.98 1230.86,-143 1217.13,-141.22 1202.26,-138.94 1188.68,-136.72"/>
<polygon fill="midnightblue" stroke="midnightblue" points="1189.03,-133.23 1178.59,-135.04 1187.88,-140.13 1189.03,-133.23"/>
</g>
<!-- Node24&#45;&gt;Node34 -->
<g id="edge41" class="edge">
<title>Node24&#45;&gt;Node34</title>
<path fill="none" stroke="midnightblue" d="M1760.1,-185.25C1804.68,-183.31 1866.5,-180.76 1920.86,-179 2086.27,-173.65 3247.95,-177.25 3409.86,-143 3412.7,-142.4 3415.59,-141.58 3418.44,-140.63"/>
<polygon fill="midnightblue" stroke="midnightblue" points="3419.73,-143.88 3427.82,-137.03 3417.23,-137.34 3419.73,-143.88"/>
</g>
<!-- Node35 -->
<g id="node23" class="node">
<title>Node35</title>
<polygon fill="none" stroke="#bfbfbf" points="225.36,-118 225.36,-137 260.36,-137 260.36,-118 225.36,-118"/>
<text text-anchor="middle" x="242.86" y="-125" font-family="Helvetica,sans-Serif" font-size="10.00">new</text>
</g>
<!-- Node24&#45;&gt;Node35 -->
<g id="edge42" class="edge">
<title>Node24&#45;&gt;Node35</title>
<path fill="none" stroke="midnightblue" d="M1637.81,-186.16C1374.31,-178.2 346.2,-146.96 312.86,-143 298.8,-141.33 283.38,-138.27 270.59,-135.39"/>
<polygon fill="midnightblue" stroke="midnightblue" points="271.09,-131.91 260.56,-133.05 269.5,-138.73 271.09,-131.91"/>
</g>
<!-- Node25&#45;&gt;Node19 -->
<g id="edge17" class="edge">
<title>Node25&#45;&gt;Node19</title>
<path fill="none" stroke="midnightblue" d="M3140.66,-119.53C3022.21,-106.67 2773.54,-79.67 2687.18,-70.29"/>
<polygon fill="midnightblue" stroke="midnightblue" points="2687.33,-66.79 2677.01,-69.19 2686.58,-73.75 2687.33,-66.79"/>
</g>
<!-- Node25&#45;&gt;Node26 -->
<g id="edge16" class="edge">
<title>Node25&#45;&gt;Node26</title>
<path fill="none" stroke="midnightblue" d="M3195.55,-117.98C3185.41,-108.7 3169,-93.67 3156.61,-82.33"/>
<polygon fill="midnightblue" stroke="midnightblue" points="3158.9,-79.68 3149.16,-75.51 3154.17,-84.84 3158.9,-79.68"/>
</g>
<!-- Node27&#45;&gt;Node10 -->
<g id="edge19" class="edge">
<title>Node27&#45;&gt;Node10</title>
<path fill="none" stroke="midnightblue" d="M1429.11,-117.82C1481.2,-97.49 1611.21,-46.76 1671.38,-23.28"/>
<polygon fill="midnightblue" stroke="midnightblue" points="1672.72,-26.52 1680.76,-19.62 1670.17,-20 1672.72,-26.52"/>
</g>
<!-- Node27&#45;&gt;Node15 -->
<g id="edge20" class="edge">
<title>Node27&#45;&gt;Node15</title>
<path fill="none" stroke="midnightblue" d="M1464.56,-120.07C1490.6,-117.32 1521.75,-114.23 1549.86,-112 1838.89,-89.06 2188.76,-73.18 2298.92,-68.46"/>
<polygon fill="midnightblue" stroke="midnightblue" points="2299.28,-71.95 2309.12,-68.03 2298.98,-64.95 2299.28,-71.95"/>
</g>
<!-- Node28&#45;&gt;Node10 -->
<g id="edge23" class="edge">
<title>Node28&#45;&gt;Node10</title>
<path fill="none" stroke="midnightblue" d="M667.2,-117.92C699.73,-102.31 772.51,-69.61 837.86,-56 988.77,-24.56 1452.76,-14.62 1631.57,-11.9"/>
<polygon fill="midnightblue" stroke="midnightblue" points="1631.71,-15.4 1641.65,-11.75 1631.6,-8.4 1631.71,-15.4"/>
</g>
<!-- Node28&#45;&gt;Node16 -->
<g id="edge27" class="edge">
<title>Node28&#45;&gt;Node16</title>
<path fill="none" stroke="midnightblue" d="M682.53,-117.98C723.2,-107.36 792.68,-89.23 836.88,-77.7"/>
<polygon fill="midnightblue" stroke="midnightblue" points="837.93,-81.04 846.72,-75.13 836.16,-74.27 837.93,-81.04"/>
</g>
<!-- Node28&#45;&gt;Node20 -->
<g id="edge24" class="edge">
<title>Node28&#45;&gt;Node20</title>
<path fill="none" stroke="midnightblue" d="M602.33,-117.94C591.34,-115.97 579.7,-113.9 568.86,-112 489.63,-98.08 396.8,-82.17 345.96,-73.49"/>
<polygon fill="midnightblue" stroke="midnightblue" points="346.51,-70.03 336.07,-71.8 345.33,-76.93 346.51,-70.03"/>
</g>
<!-- Node28&#45;&gt;Node21 -->
<g id="edge25" class="edge">
<title>Node28&#45;&gt;Node21</title>
<path fill="none" stroke="midnightblue" d="M716.51,-122.15C770.3,-118.81 847.92,-114.39 915.86,-112 989.82,-109.4 3413.06,-72.42 3733.91,-67.53"/>
<polygon fill="midnightblue" stroke="midnightblue" points="3734.08,-71.03 3744.02,-67.38 3733.97,-64.03 3734.08,-71.03"/>
</g>
<!-- Node28&#45;&gt;Node22 -->
<g id="edge26" class="edge">
<title>Node28&#45;&gt;Node22</title>
<path fill="none" stroke="midnightblue" d="M617.19,-117.98C573.99,-106.7 498.27,-86.94 454.89,-75.62"/>
<polygon fill="midnightblue" stroke="midnightblue" points="455.67,-72.21 445.11,-73.07 453.9,-78.98 455.67,-72.21"/>
</g>
<!-- Node31&#45;&gt;Node9 -->
<g id="edge30" class="edge">
<title>Node31&#45;&gt;Node9</title>
<path fill="none" stroke="midnightblue" d="M1645.22,-117.98C1673.18,-107.77 1720.19,-90.61 1751.85,-79.05"/>
<polygon fill="midnightblue" stroke="midnightblue" points="1753.36,-82.23 1761.55,-75.51 1750.96,-75.65 1753.36,-82.23"/>
</g>
<!-- Node31&#45;&gt;Node10 -->
<g id="edge29" class="edge">
<title>Node31&#45;&gt;Node10</title>
<path fill="none" stroke="midnightblue" d="M1622.35,-117.92C1623.52,-103.84 1627.49,-75.42 1640.86,-56 1649.85,-42.95 1663.89,-32.31 1676.34,-24.65"/>
<polygon fill="midnightblue" stroke="midnightblue" points="1678.13,-27.66 1685.03,-19.61 1674.62,-21.6 1678.13,-27.66"/>
</g>
<!-- Node31&#45;&gt;Node32 -->
<g id="edge31" class="edge">
<title>Node31&#45;&gt;Node32</title>
<path fill="none" stroke="midnightblue" d="M1629.17,-117.98C1636.89,-108.96 1649.27,-94.52 1658.88,-83.31"/>
<polygon fill="midnightblue" stroke="midnightblue" points="1661.72,-85.38 1665.57,-75.51 1656.4,-80.82 1661.72,-85.38"/>
</g>
<!-- Node36&#45;&gt;Node9 -->
<g id="edge47" class="edge">
<title>Node36&#45;&gt;Node9</title>
<path fill="none" stroke="midnightblue" d="M2874.75,-181.88C2685.41,-161.92 2085.86,-98.73 1866.38,-75.59"/>
<polygon fill="midnightblue" stroke="midnightblue" points="1866.53,-72.09 1856.22,-74.52 1865.8,-79.05 1866.53,-72.09"/>
</g>
<!-- Node36&#45;&gt;Node16 -->
<g id="edge57" class="edge">
<title>Node36&#45;&gt;Node16</title>
<path fill="none" stroke="midnightblue" d="M2874.73,-187.31C2628.81,-184.2 1680.62,-170.55 1549.86,-143 1513.76,-135.39 1508.79,-120.38 1472.86,-112 1367.2,-87.36 1036.12,-72.92 919.23,-68.48"/>
<polygon fill="midnightblue" stroke="midnightblue" points="919.04,-64.97 908.92,-68.09 918.78,-71.96 919.04,-64.97"/>
</g>
<!-- Node36&#45;&gt;Node19 -->
<g id="edge58" class="edge">
<title>Node36&#45;&gt;Node19</title>
<path fill="none" stroke="midnightblue" d="M2931.64,-179.34C2928.89,-163.33 2920.67,-129.17 2898.86,-112 2866.37,-86.42 2744.71,-73.8 2687.26,-69.16"/>
<polygon fill="midnightblue" stroke="midnightblue" points="2687.23,-65.65 2676.99,-68.36 2686.69,-72.63 2687.23,-65.65"/>
</g>
<!-- Node36&#45;&gt;Node20 -->
<g id="edge48" class="edge">
<title>Node36&#45;&gt;Node20</title>
<path fill="none" stroke="midnightblue" d="M2874.63,-187.26C2516.98,-182.66 631.31,-157.76 573.86,-143 545.17,-135.63 542.7,-122.13 514.86,-112 457.83,-91.25 388.31,-78.55 346.11,-72.15"/>
<polygon fill="midnightblue" stroke="midnightblue" points="346.39,-68.65 335.99,-70.66 345.37,-75.58 346.39,-68.65"/>
</g>
<!-- Node36&#45;&gt;Node21 -->
<g id="edge49" class="edge">
<title>Node36&#45;&gt;Node21</title>
<path fill="none" stroke="midnightblue" d="M2973.4,-179.45C3004.72,-172.03 3048.68,-159.83 3084.86,-143 3107.55,-132.44 3108.16,-120.03 3131.86,-112 3244.88,-73.69 3618.28,-67.99 3734.22,-67.15"/>
<polygon fill="midnightblue" stroke="midnightblue" points="3734.33,-70.65 3744.3,-67.08 3734.28,-63.65 3734.33,-70.65"/>
</g>
<!-- Node36&#45;&gt;Node25 -->
<g id="edge46" class="edge">
<title>Node36&#45;&gt;Node25</title>
<path fill="none" stroke="midnightblue" d="M2971.83,-179.48C3020.41,-168.85 3103.45,-150.68 3156.16,-139.15"/>
<polygon fill="midnightblue" stroke="midnightblue" points="3156.94,-142.57 3165.96,-137.01 3155.45,-135.73 3156.94,-142.57"/>
</g>
<!-- Node36&#45;&gt;Node26 -->
<g id="edge54" class="edge">
<title>Node36&#45;&gt;Node26</title>
<path fill="none" stroke="midnightblue" d="M2963.5,-179.5C2988.11,-171.93 3023.05,-159.5 3050.86,-143 3079.39,-126.07 3107.73,-99.82 3124.52,-83.02"/>
<polygon fill="midnightblue" stroke="midnightblue" points="3127.28,-85.21 3131.78,-75.62 3122.28,-80.31 3127.28,-85.21"/>
</g>
<!-- Node36&#45;&gt;Node15 -->
<g id="edge50" class="edge">
<title>Node36&#45;&gt;Node15</title>
<path fill="none" stroke="midnightblue" d="M2890.74,-179.49C2778.1,-156.74 2471.51,-94.81 2368.3,-73.96"/>
<polygon fill="midnightblue" stroke="midnightblue" points="2368.9,-70.51 2358.4,-71.96 2367.51,-77.37 2368.9,-70.51"/>
</g>
<!-- Node36&#45;&gt;Node32 -->
<g id="edge52" class="edge">
<title>Node36&#45;&gt;Node32</title>
<path fill="none" stroke="midnightblue" d="M2874.82,-185.79C2752.91,-180.84 2461.36,-167.33 2217.86,-143 2116.98,-132.92 2092.38,-125.2 1991.86,-112 1867.64,-95.69 1832.63,-101.17 1705.6,-75.86"/>
<polygon fill="midnightblue" stroke="midnightblue" points="1705.98,-72.36 1695.48,-73.81 1704.59,-79.22 1705.98,-72.36"/>
</g>
<!-- Node36&#45;&gt;Node33 -->
<g id="edge53" class="edge">
<title>Node36&#45;&gt;Node33</title>
<path fill="none" stroke="midnightblue" d="M2874.6,-187.3C2666.32,-184.59 1939.13,-173.39 1339.86,-143 1288.09,-140.37 1228.8,-135.83 1188.71,-132.53"/>
<polygon fill="midnightblue" stroke="midnightblue" points="1188.94,-129.03 1178.69,-131.69 1188.36,-136.01 1188.94,-129.03"/>
</g>
<!-- Node36&#45;&gt;Node34 -->
<g id="edge55" class="edge">
<title>Node36&#45;&gt;Node34</title>
<path fill="none" stroke="midnightblue" d="M2991.06,-188.06C3081.86,-186.92 3262.13,-179.69 3409.86,-143 3412.37,-142.38 3414.94,-141.6 3417.49,-140.74"/>
<polygon fill="midnightblue" stroke="midnightblue" points="3418.95,-143.92 3427.04,-137.08 3416.45,-137.38 3418.95,-143.92"/>
</g>
<!-- Node40 -->
<g id="node25" class="node">
<title>Node40</title>
<polygon fill="none" stroke="#bfbfbf" points="4083.86,-118 4083.86,-137 4129.86,-137 4129.86,-118 4083.86,-118"/>
<text text-anchor="middle" x="4106.86" y="-125" font-family="Helvetica,sans-Serif" font-size="10.00">cstdint</text>
</g>
<!-- Node36&#45;&gt;Node40 -->
<g id="edge51" class="edge">
<title>Node36&#45;&gt;Node40</title>
<path fill="none" stroke="midnightblue" d="M2991.08,-185.05C3200.26,-174.45 3910.04,-138.48 4073.22,-130.2"/>
<polygon fill="midnightblue" stroke="midnightblue" points="4073.78,-133.68 4083.59,-129.68 4073.43,-126.69 4073.78,-133.68"/>
</g>
<!-- Node42 -->
<g id="node26" class="node">
<title>Node42</title>
<polygon fill="none" stroke="#bfbfbf" points="3362.86,-118 3362.86,-137 3400.86,-137 3400.86,-118 3362.86,-118"/>
<text text-anchor="middle" x="3381.86" y="-125" font-family="Helvetica,sans-Serif" font-size="10.00">tuple</text>
</g>
<!-- Node36&#45;&gt;Node42 -->
<g id="edge56" class="edge">
<title>Node36&#45;&gt;Node42</title>
<path fill="none" stroke="midnightblue" d="M2990.87,-180.59C3059.45,-171.8 3177,-156.61 3277.86,-143 3303.09,-139.6 3331.75,-135.59 3352.58,-132.65"/>
<polygon fill="midnightblue" stroke="midnightblue" points="3353.29,-136.09 3362.7,-131.22 3352.31,-129.16 3353.29,-136.09"/>
</g>
<!-- Node45&#45;&gt;Node10 -->
<g id="edge95" class="edge">
<title>Node45&#45;&gt;Node10</title>
<path fill="none" stroke="midnightblue" d="M1241.54,-355.12C1054.39,-352.03 470.4,-340.24 283.86,-311 190.55,-296.38 158.66,-305.52 78.86,-255 22.22,-219.14 -10.81,-164.52 30.86,-112 98.95,-26.2 162.26,-70.23 270.86,-56 538.29,-20.95 1380.3,-12.99 1631.46,-11.38"/>
<polygon fill="midnightblue" stroke="midnightblue" points="1631.58,-14.88 1641.56,-11.31 1631.54,-7.88 1631.58,-14.88"/>
</g>
<!-- Node45&#45;&gt;Node18 -->
<g id="edge99" class="edge">
<title>Node45&#45;&gt;Node18</title>
<path fill="none" stroke="midnightblue" d="M1329.38,-347.43C1404,-325.47 1605.87,-264.33 1768.86,-199 1813.25,-181.21 1863.23,-156.8 1892.83,-141.87"/>
<polygon fill="midnightblue" stroke="midnightblue" points="1894.72,-144.84 1902.05,-137.19 1891.55,-138.59 1894.72,-144.84"/>
</g>
<!-- Node45&#45;&gt;Node16 -->
<g id="edge107" class="edge">
<title>Node45&#45;&gt;Node16</title>
<path fill="none" stroke="midnightblue" d="M1241.65,-350.06C1102.01,-334.48 754.52,-287.43 685.86,-199 680.41,-191.98 682.03,-187.02 685.86,-179 690.97,-168.31 758.67,-118.05 768.86,-112 791.92,-98.32 819.91,-86.87 841.75,-78.93"/>
<polygon fill="midnightblue" stroke="midnightblue" points="843.06,-82.18 851.31,-75.54 840.72,-75.59 843.06,-82.18"/>
</g>
<!-- Node45&#45;&gt;Node19 -->
<g id="edge108" class="edge">
<title>Node45&#45;&gt;Node19</title>
<path fill="none" stroke="midnightblue" d="M1358.02,-354.71C1507.18,-351.04 1900.54,-338.92 2027.86,-311 2272.73,-257.3 2547.81,-122.84 2631.43,-80.2"/>
<polygon fill="midnightblue" stroke="midnightblue" points="2633.14,-83.25 2640.44,-75.57 2629.95,-77.02 2633.14,-83.25"/>
</g>
<!-- Node45&#45;&gt;Node20 -->
<g id="edge100" class="edge">
<title>Node45&#45;&gt;Node20</title>
<path fill="none" stroke="midnightblue" d="M1241.57,-353.83C999.09,-344.4 82.86,-304.9 82.86,-246 82.86,-246 82.86,-246 82.86,-188 82.86,-104.18 205.47,-78.18 269.67,-70.3"/>
<polygon fill="midnightblue" stroke="midnightblue" points="270.28,-73.76 279.82,-69.15 269.49,-66.8 270.28,-73.76"/>
</g>
<!-- Node45&#45;&gt;Node21 -->
<g id="edge101" class="edge">
<title>Node45&#45;&gt;Node21</title>
<path fill="none" stroke="midnightblue" d="M1358.09,-354.66C1439.33,-352.82 1591.3,-349.45 1720.86,-347 2209.51,-337.78 3432.43,-346.69 3919.86,-311 4188.23,-291.35 4354.04,-414.74 4514.86,-199 4537.98,-167.99 4543.38,-140.16 4516.86,-112 4510.66,-105.42 3950.53,-76.3 3803.75,-68.78"/>
<polygon fill="midnightblue" stroke="midnightblue" points="3803.69,-65.27 3793.52,-68.26 3803.33,-72.26 3803.69,-65.27"/>
</g>
<!-- Node45&#45;&gt;Node22 -->
<g id="edge103" class="edge">
<title>Node45&#45;&gt;Node22</title>
<path fill="none" stroke="midnightblue" d="M1241.72,-354.98C1091.62,-351.92 693.94,-341.15 565.86,-311 503.83,-296.4 491.82,-281.5 433.86,-255 331.19,-208.05 265.55,-238.83 205.86,-143 198.58,-131.31 197.17,-122.69 205.86,-112 217.35,-97.87 330.96,-79.9 388.63,-71.59"/>
<polygon fill="midnightblue" stroke="midnightblue" points="389.31,-75.03 398.71,-70.16 388.32,-68.1 389.31,-75.03"/>
</g>
<!-- Node45&#45;&gt;Node26 -->
<g id="edge105" class="edge">
<title>Node45&#45;&gt;Node26</title>
<path fill="none" stroke="midnightblue" d="M1357.94,-354.74C1657.8,-348.18 3017.58,-318.08 3037.86,-311 3060.85,-302.97 3192.44,-192.27 3212.86,-179 3240.56,-161.01 3261.1,-171.45 3277.86,-143 3284.86,-131.13 3285.95,-123.15 3277.86,-112 3254.15,-79.33 3206.09,-69.93 3173.43,-67.46"/>
<polygon fill="midnightblue" stroke="midnightblue" points="3173.6,-63.97 3163.42,-66.89 3173.2,-70.96 3173.6,-63.97"/>
</g>
<!-- Node45&#45;&gt;Node27 -->
<g id="edge94" class="edge">
<title>Node45&#45;&gt;Node27</title>
<path fill="none" stroke="midnightblue" d="M1300.19,-347.13C1301.57,-319.86 1308.69,-235.66 1344.86,-179 1354.39,-164.07 1369.82,-151.48 1382.9,-142.61"/>
<polygon fill="midnightblue" stroke="midnightblue" points="1384.97,-145.43 1391.48,-137.07 1381.18,-139.55 1384.97,-145.43"/>
</g>
<!-- Node45&#45;&gt;Node15 -->
<g id="edge102" class="edge">
<title>Node45&#45;&gt;Node15</title>
<path fill="none" stroke="midnightblue" d="M1358.09,-354.14C1499.43,-349.29 1857.64,-334.96 1974.86,-311 2048.68,-295.91 2067.43,-288.61 2134.86,-255 2210.61,-217.25 2233.35,-206.89 2288.86,-143 2304.37,-125.15 2317.52,-101.22 2325.53,-85.02"/>
<polygon fill="midnightblue" stroke="midnightblue" points="2328.87,-86.16 2330.02,-75.63 2322.55,-83.14 2328.87,-86.16"/>
</g>
<!-- Node45&#45;&gt;Node28 -->
<g id="edge96" class="edge">
<title>Node45&#45;&gt;Node28</title>
<path fill="none" stroke="midnightblue" d="M1241.75,-356.4C1089.49,-356.85 687.93,-353.93 647.86,-311 605.55,-265.67 629.09,-183.01 642.53,-146.57"/>
<polygon fill="midnightblue" stroke="midnightblue" points="645.81,-147.8 646.15,-137.21 639.28,-145.28 645.81,-147.8"/>
</g>
<!-- Node45&#45;&gt;Node33 -->
<g id="edge104" class="edge">
<title>Node45&#45;&gt;Node33</title>
<path fill="none" stroke="midnightblue" d="M1295.56,-347.44C1282.1,-321.04 1238.9,-239.09 1191.86,-179 1182.02,-166.43 1169.35,-153.66 1159.23,-144.11"/>
<polygon fill="midnightblue" stroke="midnightblue" points="1161.48,-141.42 1151.76,-137.21 1156.73,-146.56 1161.48,-141.42"/>
</g>
<!-- Node45&#45;&gt;Node35 -->
<g id="edge106" class="edge">
<title>Node45&#45;&gt;Node35</title>
<path fill="none" stroke="midnightblue" d="M1241.72,-354.85C1101.07,-351.63 745.59,-340.71 630.86,-311 482.73,-272.64 322.33,-178.22 264.86,-142.5"/>
<polygon fill="midnightblue" stroke="midnightblue" points="266.58,-139.44 256.24,-137.1 262.86,-145.37 266.58,-139.44"/>
</g>
<!-- Node45&#45;&gt;Node46 -->
<g id="edge70" class="edge">
<title>Node45&#45;&gt;Node46</title>
<path fill="none" stroke="midnightblue" d="M1357.89,-353.9C1589.93,-345.5 2451.19,-314.33 2714.73,-304.79"/>
<polygon fill="midnightblue" stroke="midnightblue" points="2715.1,-308.28 2724.97,-304.42 2714.85,-301.29 2715.1,-308.28"/>
</g>
<!-- Node51 -->
<g id="node34" class="node">
<title>Node51</title>
<g id="a_node34"><a xlink:href="EpochTracker_8h.html" target="_top" xlink:title="llvm/ADT/EpochTracker.h">
<polygon fill="none" stroke="red" points="3834.86,-179.5 3834.86,-198.5 3964.86,-198.5 3964.86,-179.5 3834.86,-179.5"/>
<text text-anchor="middle" x="3899.86" y="-186.5" font-family="Helvetica,sans-Serif" font-size="10.00">llvm/ADT/EpochTracker.h</text>
</a>
</g>
</g>
<!-- Node45&#45;&gt;Node51 -->
<g id="edge92" class="edge">
<title>Node45&#45;&gt;Node51</title>
<path fill="none" stroke="midnightblue" d="M1358.07,-354.66C1654.27,-347.82 2983.65,-316.92 3070.86,-311 3296.6,-295.67 3353.29,-289.8 3576.86,-255 3675.64,-239.63 3790.09,-214.95 3852.77,-200.84"/>
<polygon fill="midnightblue" stroke="midnightblue" points="3853.77,-204.2 3862.75,-198.58 3852.23,-197.37 3853.77,-204.2"/>
</g>
<!-- Node52 -->
<g id="node35" class="node">
<title>Node52</title>
<g id="a_node35"><a xlink:href="ReverseIteration_8h.html" target="_top" xlink:title="llvm/Support/ReverseIteration.h">
<polygon fill="none" stroke="red" points="1028.36,-179.5 1028.36,-198.5 1183.36,-198.5 1183.36,-179.5 1028.36,-179.5"/>
<text text-anchor="middle" x="1105.86" y="-186.5" font-family="Helvetica,sans-Serif" font-size="10.00">llvm/Support/ReverseIteration.h</text>
</a>
</g>
</g>
<!-- Node45&#45;&gt;Node52 -->
<g id="edge97" class="edge">
<title>Node45&#45;&gt;Node52</title>
<path fill="none" stroke="midnightblue" d="M1276.59,-347.38C1257.51,-339.62 1230.39,-327 1209.86,-311 1170.35,-280.19 1134.75,-232.51 1117.26,-207.18"/>
<polygon fill="midnightblue" stroke="midnightblue" points="1119.98,-204.96 1111.48,-198.65 1114.19,-208.89 1119.98,-204.96"/>
</g>
<!-- Node46&#45;&gt;Node1 -->
<g id="edge71" class="edge">
<title>Node46&#45;&gt;Node1</title>
<path fill="none" stroke="midnightblue" d="M2725.27,-297.16C2584.57,-291 2246.74,-275.28 1963.86,-255 1952,-254.15 1939.36,-253.12 1927.18,-252.07"/>
<polygon fill="midnightblue" stroke="midnightblue" points="1927.35,-248.57 1917.08,-251.18 1926.74,-255.54 1927.35,-248.57"/>
</g>
<!-- Node46&#45;&gt;Node2 -->
<g id="edge72" class="edge">
<title>Node46&#45;&gt;Node2</title>
<path fill="none" stroke="midnightblue" d="M2733.87,-291.46C2596.11,-271.17 2250.15,-220.23 2107.68,-199.25"/>
<polygon fill="midnightblue" stroke="midnightblue" points="2108.18,-195.79 2097.78,-197.79 2107.16,-202.71 2108.18,-195.79"/>
</g>
<!-- Node46&#45;&gt;Node19 -->
<g id="edge91" class="edge">
<title>Node46&#45;&gt;Node19</title>
<path fill="none" stroke="midnightblue" d="M2789.68,-291.37C2784.31,-270.95 2769.22,-218.37 2746.86,-179 2725.55,-141.47 2691.93,-103.51 2672.38,-82.84"/>
<polygon fill="midnightblue" stroke="midnightblue" points="2674.85,-80.36 2665.4,-75.57 2669.8,-85.21 2674.85,-80.36"/>
</g>
<!-- Node46&#45;&gt;Node21 -->
<g id="edge88" class="edge">
<title>Node46&#45;&gt;Node21</title>
<path fill="none" stroke="midnightblue" d="M2858.56,-291.78C2861.7,-291.49 2864.81,-291.23 2867.86,-291 3349.86,-254.54 3472.74,-289.82 3954.86,-255 3982.85,-252.98 4438.15,-219.91 4456.86,-199 4482.64,-170.18 4483.3,-140.22 4456.86,-112 4411.9,-64 3936.97,-65.25 3803.55,-66.57"/>
<polygon fill="midnightblue" stroke="midnightblue" points="3803.44,-63.07 3793.48,-66.67 3803.51,-70.07 3803.44,-63.07"/>
</g>
<!-- Node46&#45;&gt;Node15 -->
<g id="edge89" class="edge">
<title>Node46&#45;&gt;Node15</title>
<path fill="none" stroke="midnightblue" d="M2783.18,-291.27C2769.76,-278.05 2742.79,-252.64 2716.86,-235 2619.06,-168.48 2590.32,-156.83 2480.86,-112 2443.41,-96.66 2398.76,-83.71 2368.57,-75.69"/>
<polygon fill="midnightblue" stroke="midnightblue" points="2369.09,-72.21 2358.53,-73.07 2367.32,-78.98 2369.09,-72.21"/>
</g>
<!-- Node46&#45;&gt;Node40 -->
<g id="edge90" class="edge">
<title>Node46&#45;&gt;Node40</title>
<path fill="none" stroke="midnightblue" d="M2858.56,-291.79C2861.7,-291.5 2864.81,-291.24 2867.86,-291 3305.51,-257.16 3420.12,-315.67 3854.86,-255 3958.21,-240.58 4005.93,-269.49 4082.86,-199 4097.28,-185.79 4103.04,-163.57 4105.34,-147.61"/>
<polygon fill="midnightblue" stroke="midnightblue" points="4108.86,-147.63 4106.47,-137.3 4101.9,-146.86 4108.86,-147.63"/>
</g>
<!-- Node47 -->
<g id="node31" class="node">
<title>Node47</title>
<g id="a_node31"><a xlink:href="StringRef_8h.html" target="_top" xlink:title="llvm/ADT/StringRef.h">
<polygon fill="none" stroke="red" points="2597.86,-235.5 2597.86,-254.5 2707.86,-254.5 2707.86,-235.5 2597.86,-235.5"/>
<text text-anchor="middle" x="2652.86" y="-242.5" font-family="Helvetica,sans-Serif" font-size="10.00">llvm/ADT/StringRef.h</text>
</a>
</g>
</g>
<!-- Node46&#45;&gt;Node47 -->
<g id="edge73" class="edge">
<title>Node46&#45;&gt;Node47</title>
<path fill="none" stroke="midnightblue" d="M2769.84,-291.44C2746.76,-282.48 2710.3,-268.31 2684.22,-258.18"/>
<polygon fill="midnightblue" stroke="midnightblue" points="2685.37,-254.88 2674.78,-254.52 2682.84,-261.4 2685.37,-254.88"/>
</g>
<!-- Node48 -->
<g id="node32" class="node">
<title>Node48</title>
<g id="a_node32"><a xlink:href="PointerLikeTypeTraits_8h.html" target="_top" xlink:title="llvm/Support/PointerLike\lTypeTraits.h">
<polygon fill="none" stroke="red" points="925.36,-112.5 925.36,-142.5 1048.36,-142.5 1048.36,-112.5 925.36,-112.5"/>
<text text-anchor="start" x="933.36" y="-130.5" font-family="Helvetica,sans-Serif" font-size="10.00">llvm/Support/PointerLike</text>
<text text-anchor="middle" x="986.86" y="-119.5" font-family="Helvetica,sans-Serif" font-size="10.00">TypeTraits.h</text>
</a>
</g>
</g>
<!-- Node46&#45;&gt;Node48 -->
<g id="edge83" class="edge">
<title>Node46&#45;&gt;Node48</title>
<path fill="none" stroke="midnightblue" d="M2725.11,-297.57C2532.89,-290.49 1980.41,-269.44 1799.86,-255 1582.24,-237.6 1527.25,-234.63 1311.86,-199 1221.52,-184.06 1118.37,-160.57 1052.96,-144.86"/>
<polygon fill="midnightblue" stroke="midnightblue" points="1053.73,-141.44 1043.19,-142.5 1052.09,-148.25 1053.73,-141.44"/>
</g>
<!-- Node50 -->
<g id="node33" class="node">
<title>Node50</title>
<g id="a_node33"><a xlink:href="TypeSize_8h.html" target="_top" xlink:title="llvm/Support/TypeSize.h">
<polygon fill="none" stroke="black" points="3502.86,-179.5 3502.86,-198.5 3626.86,-198.5 3626.86,-179.5 3502.86,-179.5"/>
<text text-anchor="middle" x="3564.86" y="-186.5" font-family="Helvetica,sans-Serif" font-size="10.00">llvm/Support/TypeSize.h</text>
</a>
</g>
</g>
<!-- Node46&#45;&gt;Node50 -->
<g id="edge85" class="edge">
<title>Node46&#45;&gt;Node50</title>
<path fill="none" stroke="midnightblue" d="M2858.56,-291.85C2861.71,-291.54 2864.82,-291.26 2867.86,-291 2944.36,-284.48 3502.1,-307.77 3557.86,-255 3570.08,-243.44 3570.5,-223.47 3568.68,-208.71"/>
<polygon fill="midnightblue" stroke="midnightblue" points="3572.1,-207.96 3567.02,-198.67 3565.2,-209.1 3572.1,-207.96"/>
</g>
<!-- Node47&#45;&gt;Node10 -->
<g id="edge76" class="edge">
<title>Node47&#45;&gt;Node10</title>
<path fill="none" stroke="midnightblue" d="M2660.06,-235.34C2666.76,-226.73 2676.37,-212.83 2680.86,-199 2700.5,-138.51 2729.79,-101.98 2685.86,-56 2654.44,-23.11 1994.84,-13.8 1774.1,-11.6"/>
<polygon fill="midnightblue" stroke="midnightblue" points="1773.96,-8.1 1763.93,-11.5 1773.9,-15.1 1773.96,-8.1"/>
</g>
<!-- Node47&#45;&gt;Node16 -->
<g id="edge81" class="edge">
<title>Node47&#45;&gt;Node16</title>
<path fill="none" stroke="midnightblue" d="M2597.66,-243.22C2413.03,-240.37 1818.01,-229.03 1628.86,-199 1596.06,-193.79 1589.48,-185.23 1556.86,-179 1409.34,-150.81 1357.81,-204.65 1220.86,-143 1202.21,-134.61 1205.35,-120.75 1186.86,-112 1140.21,-89.93 992.05,-75.8 919.16,-70"/>
<polygon fill="midnightblue" stroke="midnightblue" points="919.21,-66.5 908.97,-69.21 918.67,-73.48 919.21,-66.5"/>
</g>
<!-- Node47&#45;&gt;Node19 -->
<g id="edge82" class="edge">
<title>Node47&#45;&gt;Node19</title>
<path fill="none" stroke="midnightblue" d="M2655.76,-235.34C2662.46,-214.22 2677.92,-158.42 2670.86,-112 2669.49,-103 2666.67,-93.33 2663.92,-85.26"/>
<polygon fill="midnightblue" stroke="midnightblue" points="2667.17,-83.98 2660.46,-75.78 2660.6,-86.37 2667.17,-83.98"/>
</g>
<!-- Node47&#45;&gt;Node20 -->
<g id="edge77" class="edge">
<title>Node47&#45;&gt;Node20</title>
<path fill="none" stroke="midnightblue" d="M2597.61,-243.02C2376.85,-238.95 1564.65,-222.52 1451.86,-199 1428.03,-194.03 1424.7,-183.95 1400.86,-179 1182.05,-133.56 603.88,-224.66 395.86,-143 364.53,-130.7 336.69,-102.19 321.07,-83.8"/>
<polygon fill="midnightblue" stroke="midnightblue" points="323.48,-81.21 314.43,-75.7 318.07,-85.65 323.48,-81.21"/>
</g>
<!-- Node47&#45;&gt;Node21 -->
<g id="edge78" class="edge">
<title>Node47&#45;&gt;Node21</title>
<path fill="none" stroke="midnightblue" d="M2708.12,-243.22C2919.21,-240.04 3665,-226.86 3706.86,-199 3745.92,-173 3760.92,-115.47 3766.23,-85.68"/>
<polygon fill="midnightblue" stroke="midnightblue" points="3769.69,-86.18 3767.81,-75.75 3762.78,-85.07 3769.69,-86.18"/>
</g>
<!-- Node47&#45;&gt;Node22 -->
<g id="edge80" class="edge">
<title>Node47&#45;&gt;Node22</title>
<path fill="none" stroke="midnightblue" d="M2597.72,-242.93C2404.46,-239 1758.46,-224.23 1552.86,-199 1509.17,-193.64 1499.56,-184.28 1455.86,-179 1349.56,-166.14 590.26,-187.48 492.86,-143 465.73,-130.61 444.05,-102.56 432.08,-84.22"/>
<polygon fill="midnightblue" stroke="midnightblue" points="434.99,-82.28 426.73,-75.65 429.06,-85.99 434.99,-82.28"/>
</g>
<!-- Node47&#45;&gt;Node25 -->
<g id="edge75" class="edge">
<title>Node47&#45;&gt;Node25</title>
<path fill="none" stroke="midnightblue" d="M2708.01,-242.04C2777.36,-238.41 2899.51,-228.09 2999.86,-199 3020.11,-193.13 3023.2,-186.6 3042.86,-179 3083.08,-163.46 3130.26,-149.18 3163.3,-139.8"/>
<polygon fill="midnightblue" stroke="midnightblue" points="3164.4,-143.13 3173.08,-137.05 3162.5,-136.39 3164.4,-143.13"/>
</g>
<!-- Node47&#45;&gt;Node15 -->
<g id="edge79" class="edge">
<title>Node47&#45;&gt;Node15</title>
<path fill="none" stroke="midnightblue" d="M2638.95,-235.43C2610.86,-218.1 2545.43,-177.63 2490.86,-143 2469.42,-129.39 2465.36,-123.78 2442.86,-112 2418.48,-99.23 2389.66,-87.47 2367.77,-79.17"/>
<polygon fill="midnightblue" stroke="midnightblue" points="2368.84,-75.83 2358.25,-75.61 2366.39,-82.39 2368.84,-75.83"/>
</g>
<!-- Node47&#45;&gt;Node36 -->
<g id="edge74" class="edge">
<title>Node47&#45;&gt;Node36</title>
<path fill="none" stroke="midnightblue" d="M2697.23,-235.44C2746.48,-225.94 2825.99,-210.61 2878.83,-200.42"/>
<polygon fill="midnightblue" stroke="midnightblue" points="2879.55,-203.85 2888.7,-198.52 2878.22,-196.97 2879.55,-203.85"/>
</g>
<!-- Node48&#45;&gt;Node16 -->
<g id="edge84" class="edge">
<title>Node48&#45;&gt;Node16</title>
<path fill="none" stroke="midnightblue" d="M961.03,-112.4C943.39,-102.77 920.16,-90.09 902.73,-80.58"/>
<polygon fill="midnightblue" stroke="midnightblue" points="904.18,-77.38 893.72,-75.66 900.82,-83.52 904.18,-77.38"/>
</g>
<!-- Node50&#45;&gt;Node21 -->
<g id="edge86" class="edge">
<title>Node50&#45;&gt;Node21</title>
<path fill="none" stroke="midnightblue" d="M3571.43,-179.22C3583.53,-163.6 3610.86,-130.88 3640.86,-112 3670.03,-93.64 3707.67,-81.57 3734.56,-74.59"/>
<polygon fill="midnightblue" stroke="midnightblue" points="3735.45,-77.98 3744.31,-72.17 3733.76,-71.19 3735.45,-77.98"/>
</g>
<!-- Node50&#45;&gt;Node42 -->
<g id="edge87" class="edge">
<title>Node50&#45;&gt;Node42</title>
<path fill="none" stroke="midnightblue" d="M3527.85,-179.42C3496.02,-171.54 3449.15,-158.7 3409.86,-143 3408.66,-142.52 3407.44,-142.01 3406.22,-141.47"/>
<polygon fill="midnightblue" stroke="midnightblue" points="3407.54,-138.22 3397.01,-137.03 3404.5,-144.52 3407.54,-138.22"/>
</g>
<!-- Node51&#45;&gt;Node40 -->
<g id="edge93" class="edge">
<title>Node51&#45;&gt;Node40</title>
<path fill="none" stroke="midnightblue" d="M3929.52,-179.48C3967.78,-168.48 4034.12,-149.41 4073.91,-137.97"/>
<polygon fill="midnightblue" stroke="midnightblue" points="4075.02,-141.29 4083.66,-135.17 4073.08,-134.57 4075.02,-141.29"/>
</g>
<!-- Node52&#45;&gt;Node48 -->
<g id="edge98" class="edge">
<title>Node52&#45;&gt;Node48</title>
<path fill="none" stroke="midnightblue" d="M1088.81,-179.48C1071.94,-171.04 1045.57,-157.86 1023.88,-147.01"/>
<polygon fill="midnightblue" stroke="midnightblue" points="1025.42,-143.86 1014.91,-142.52 1022.29,-150.13 1025.42,-143.86"/>
</g>
<!-- Node53&#45;&gt;Node16 -->
<g id="edge187" class="edge">
<title>Node53&#45;&gt;Node16</title>
<path fill="none" stroke="midnightblue" d="M2429.13,-410.68C2118.91,-403.55 703.09,-368.01 630.86,-311 558.65,-254 513.76,-181.65 573.86,-112 607.32,-73.23 761.54,-67.3 836.6,-66.76"/>
<polygon fill="midnightblue" stroke="midnightblue" points="836.66,-70.26 846.65,-66.72 836.63,-63.26 836.66,-70.26"/>
</g>
<!-- Node53&#45;&gt;Node19 -->
<g id="edge188" class="edge">
<title>Node53&#45;&gt;Node19</title>
<path fill="none" stroke="midnightblue" d="M2468.99,-403.37C2430.72,-385.41 2352.62,-341.44 2376.86,-291 2391.19,-261.19 2574.74,-126.47 2636.64,-81.59"/>
<polygon fill="midnightblue" stroke="midnightblue" points="2638.8,-84.35 2644.85,-75.65 2634.7,-78.68 2638.8,-84.35"/>
</g>
<!-- Node53&#45;&gt;Node20 -->
<g id="edge180" class="edge">
<title>Node53&#45;&gt;Node20</title>
<path fill="none" stroke="midnightblue" d="M2429.34,-411.6C2136.89,-409.5 850.19,-398.58 450.86,-367 267.52,-352.5 173.54,-438.36 40.86,-311 -23.33,-249.38 -7.79,-166.09 62.86,-112 94.69,-87.63 208.88,-74.96 269.47,-69.82"/>
<polygon fill="midnightblue" stroke="midnightblue" points="270.1,-73.28 279.78,-68.98 269.52,-66.31 270.1,-73.28"/>
</g>
<!-- Node53&#45;&gt;Node21 -->
<g id="edge181" class="edge">
<title>Node53&#45;&gt;Node21</title>
<path fill="none" stroke="midnightblue" d="M2548.64,-412.19C2899.03,-412.95 4670.86,-411.37 4670.86,-302 4670.86,-302 4670.86,-302 4670.86,-244 4670.86,-176.3 4652.52,-147.47 4594.86,-112 4526.76,-70.12 3952.17,-67.05 3803.74,-66.96"/>
<polygon fill="midnightblue" stroke="midnightblue" points="3803.41,-63.46 3793.41,-66.96 3803.41,-70.46 3803.41,-63.46"/>
</g>
<!-- Node53&#45;&gt;Node22 -->
<g id="edge182" class="edge">
<title>Node53&#45;&gt;Node22</title>
<path fill="none" stroke="midnightblue" d="M2429.36,-410.92C2055.34,-403.95 44.86,-363.64 44.86,-302 44.86,-302 44.86,-302 44.86,-188 44.86,-112.87 124.82,-136.45 195.86,-112 262.23,-89.16 343.77,-76.49 388.52,-70.78"/>
<polygon fill="midnightblue" stroke="midnightblue" points="389.05,-74.24 398.55,-69.54 388.19,-67.29 389.05,-74.24"/>
</g>
<!-- Node53&#45;&gt;Node26 -->
<g id="edge183" class="edge">
<title>Node53&#45;&gt;Node26</title>
<path fill="none" stroke="midnightblue" d="M2548.52,-411.37C2756.49,-408.41 3436.86,-391.83 3436.86,-302 3436.86,-302 3436.86,-302 3436.86,-244 3436.86,-182.3 3520.53,-158.4 3479.86,-112 3459.82,-89.13 3255.24,-74.1 3173.41,-68.97"/>
<polygon fill="midnightblue" stroke="midnightblue" points="3173.58,-65.47 3163.39,-68.35 3173.15,-72.46 3173.58,-65.47"/>
</g>
<!-- Node53&#45;&gt;Node34 -->
<g id="edge185" class="edge">
<title>Node53&#45;&gt;Node34</title>
<path fill="none" stroke="midnightblue" d="M2548.45,-411.58C2708.74,-410 3162.43,-402.48 3537.86,-367 3734.9,-348.38 3864.69,-423.29 3968.86,-255 3987.44,-224.99 4015.64,-205.08 3991.86,-179 3957.47,-141.29 3598.12,-131.33 3481.31,-129.09"/>
<polygon fill="midnightblue" stroke="midnightblue" points="3481.16,-125.58 3471.1,-128.9 3481.03,-132.58 3481.16,-125.58"/>
</g>
<!-- Node53&#45;&gt;Node42 -->
<g id="edge186" class="edge">
<title>Node53&#45;&gt;Node42</title>
<path fill="none" stroke="midnightblue" d="M2548.37,-411.39C2710.41,-409.28 3151.08,-400.5 3206.86,-367 3235.94,-349.53 3246.86,-335.92 3246.86,-302 3246.86,-302 3246.86,-302 3246.86,-244 3246.86,-188.41 3313.77,-153.85 3353.38,-138.26"/>
<polygon fill="midnightblue" stroke="midnightblue" points="3354.68,-141.5 3362.81,-134.7 3352.21,-134.96 3354.68,-141.5"/>
</g>
<!-- Node53&#45;&gt;Node44 -->
<g id="edge189" class="edge">
<title>Node53&#45;&gt;Node44</title>
<path fill="none" stroke="midnightblue" d="M2446.09,-403.42C2409.25,-395.54 2354.9,-382.7 2308.86,-367 2250.09,-346.96 2232.26,-345.84 2180.86,-311 2141.06,-284.02 2145.27,-259.45 2103.86,-235 2098.57,-231.87 2026.62,-211.19 1983.64,-198.98"/>
<polygon fill="midnightblue" stroke="midnightblue" points="1984.48,-195.58 1973.91,-196.22 1982.57,-202.32 1984.48,-195.58"/>
</g>
<!-- Node53&#45;&gt;Node45 -->
<g id="edge112" class="edge">
<title>Node53&#45;&gt;Node45</title>
<path fill="none" stroke="midnightblue" d="M2429.08,-409.29C2228.58,-400.18 1580.64,-370.75 1368.09,-361.1"/>
<polygon fill="midnightblue" stroke="midnightblue" points="1368.15,-357.6 1358,-360.64 1367.83,-364.59 1368.15,-357.6"/>
</g>
<!-- Node53&#45;&gt;Node47 -->
<g id="edge125" class="edge">
<title>Node53&#45;&gt;Node47</title>
<path fill="none" stroke="midnightblue" d="M2489.74,-403.2C2491.45,-389.9 2496.22,-364.38 2508.86,-347 2538.94,-305.64 2591.29,-275.17 2623.9,-259.04"/>
<polygon fill="midnightblue" stroke="midnightblue" points="2625.45,-262.18 2632.94,-254.69 2622.41,-255.88 2625.45,-262.18"/>
</g>
<!-- Node54 -->
<g id="node37" class="node">
<title>Node54</title>
<g id="a_node37"><a xlink:href="SmallPtrSet_8h.html" target="_top" xlink:title="llvm/ADT/SmallPtrSet.h">
<polygon fill="none" stroke="black" points="1972.86,-235.5 1972.86,-254.5 2094.86,-254.5 2094.86,-235.5 1972.86,-235.5"/>
<text text-anchor="middle" x="2033.86" y="-242.5" font-family="Helvetica,sans-Serif" font-size="10.00">llvm/ADT/SmallPtrSet.h</text>
</a>
</g>
</g>
<!-- Node53&#45;&gt;Node54 -->
<g id="edge113" class="edge">
<title>Node53&#45;&gt;Node54</title>
<path fill="none" stroke="midnightblue" d="M2429.35,-411.15C2336.06,-408.81 2160.7,-400 2108.86,-367 2070.76,-342.75 2048.84,-291.46 2039.41,-264.1"/>
<polygon fill="midnightblue" stroke="midnightblue" points="2042.74,-263 2036.31,-254.58 2036.08,-265.17 2042.74,-263"/>
</g>
<!-- Node55 -->
<g id="node38" class="node">
<title>Node55</title>
<g id="a_node38"><a xlink:href="TinyPtrVector_8h.html" target="_top" xlink:title="llvm/ADT/TinyPtrVector.h">
<polygon fill="none" stroke="red" points="1836.36,-291.5 1836.36,-310.5 1965.36,-310.5 1965.36,-291.5 1836.36,-291.5"/>
<text text-anchor="middle" x="1900.86" y="-298.5" font-family="Helvetica,sans-Serif" font-size="10.00">llvm/ADT/TinyPtrVector.h</text>
</a>
</g>
</g>
<!-- Node53&#45;&gt;Node55 -->
<g id="edge126" class="edge">
<title>Node53&#45;&gt;Node55</title>
<path fill="none" stroke="midnightblue" d="M2429.2,-409.03C2321.72,-403.22 2099.9,-388.95 2025.86,-367 1986.94,-355.46 1945.95,-331.56 1921.93,-316.18"/>
<polygon fill="midnightblue" stroke="midnightblue" points="1923.59,-313.09 1913.3,-310.56 1919.76,-318.95 1923.59,-313.09"/>
</g>
<!-- Node58 -->
<g id="node39" class="node">
<title>Node58</title>
<g id="a_node39"><a xlink:href="Function_8h.html" target="_top" xlink:title="llvm/IR/Function.h">
<polygon fill="none" stroke="red" points="3813.36,-291.5 3813.36,-310.5 3910.36,-310.5 3910.36,-291.5 3813.36,-291.5"/>
<text text-anchor="middle" x="3861.86" y="-298.5" font-family="Helvetica,sans-Serif" font-size="10.00">llvm/IR/Function.h</text>
</a>
</g>
</g>
<!-- Node53&#45;&gt;Node58 -->
<g id="edge134" class="edge">
<title>Node53&#45;&gt;Node58</title>
<path fill="none" stroke="midnightblue" d="M2548.42,-411.49C2699.63,-409.71 3110.51,-401.77 3450.86,-367 3579.82,-353.83 3729.93,-327.18 3808.18,-312.43"/>
<polygon fill="midnightblue" stroke="midnightblue" points="3809.1,-315.82 3818.27,-310.51 3807.8,-308.94 3809.1,-315.82"/>
</g>
<!-- Node109 -->
<g id="node41" class="node">
<title>Node109</title>
<g id="a_node41"><a xlink:href="Module_8h.html" target="_top" xlink:title="Module.h This file contains the declarations for the Module class. ">
<polygon fill="none" stroke="red" points="3106.36,-347.5 3106.36,-366.5 3197.36,-366.5 3197.36,-347.5 3106.36,-347.5"/>
<text text-anchor="middle" x="3151.86" y="-354.5" font-family="Helvetica,sans-Serif" font-size="10.00">llvm/IR/Module.h</text>
</a>
</g>
</g>
<!-- Node53&#45;&gt;Node109 -->
<g id="edge148" class="edge">
<title>Node53&#45;&gt;Node109</title>
<path fill="none" stroke="midnightblue" d="M2548.57,-407.14C2675.82,-396.77 2972.14,-372.64 3095.94,-362.55"/>
<polygon fill="midnightblue" stroke="midnightblue" points="3096.28,-366.04 3105.97,-361.74 3095.72,-359.06 3096.28,-366.04"/>
</g>
<!-- Node118 -->
<g id="node42" class="node">
<title>Node118</title>
<g id="a_node42"><a xlink:href="PassInstrumentation_8h.html" target="_top" xlink:title="This file defines the Pass Instrumentation classes that provide instrumentation points into the pass ...">
<polygon fill="none" stroke="red" points="1729.36,-347.5 1729.36,-366.5 1878.36,-366.5 1878.36,-347.5 1729.36,-347.5"/>
<text text-anchor="middle" x="1803.86" y="-354.5" font-family="Helvetica,sans-Serif" font-size="10.00">llvm/IR/PassInstrumentation.h</text>
</a>
</g>
</g>
<!-- Node53&#45;&gt;Node118 -->
<g id="edge158" class="edge">
<title>Node53&#45;&gt;Node118</title>
<path fill="none" stroke="midnightblue" d="M2429.27,-407.3C2307.41,-397.7 2029.37,-375.78 1888.71,-364.69"/>
<polygon fill="midnightblue" stroke="midnightblue" points="1888.66,-361.17 1878.41,-363.88 1888.11,-368.15 1888.66,-361.17"/>
</g>
<!-- Node121 -->
<g id="node43" class="node">
<title>Node121</title>
<g id="a_node43"><a xlink:href="TypeName_8h.html" target="_top" xlink:title="llvm/Support/TypeName.h">
<polygon fill="none" stroke="black" points="2385.36,-291.5 2385.36,-310.5 2516.36,-310.5 2516.36,-291.5 2385.36,-291.5"/>
<text text-anchor="middle" x="2450.86" y="-298.5" font-family="Helvetica,sans-Serif" font-size="10.00">llvm/Support/TypeName.h</text>
</a>
</g>
</g>
<!-- Node53&#45;&gt;Node121 -->
<g id="edge171" class="edge">
<title>Node53&#45;&gt;Node121</title>
<path fill="none" stroke="midnightblue" d="M2485.88,-403.37C2479.72,-385.54 2465.47,-344.3 2457.17,-320.27"/>
<polygon fill="midnightblue" stroke="midnightblue" points="2460.4,-318.9 2453.83,-310.59 2453.79,-321.19 2460.4,-318.9"/>
</g>
<!-- Node122 -->
<g id="node44" class="node">
<title>Node122</title>
<g id="a_node44"><a xlink:href="PassManagerInternal_8h.html" target="_top" xlink:title="This header provides internal APIs and implementation details used by the pass management interfaces ...">
<polygon fill="none" stroke="black" points="2876.86,-291.5 2876.86,-310.5 3028.86,-310.5 3028.86,-291.5 2876.86,-291.5"/>
<text text-anchor="middle" x="2952.86" y="-298.5" font-family="Helvetica,sans-Serif" font-size="10.00">llvm/IR/PassManagerInternal.h</text>
</a>
</g>
</g>
<!-- Node53&#45;&gt;Node122 -->
<g id="edge163" class="edge">
<title>Node53&#45;&gt;Node122</title>
<path fill="none" stroke="midnightblue" d="M2548.38,-405.74C2605.91,-398.94 2695.22,-386.37 2770.86,-367 2825.97,-352.89 2887.92,-328.96 2923.47,-314.4"/>
<polygon fill="midnightblue" stroke="midnightblue" points="2924.87,-317.61 2932.77,-310.56 2922.19,-311.14 2924.87,-317.61"/>
</g>
<!-- Node53&#45;&gt;Node123 -->
<g id="edge168" class="edge">
<title>Node53&#45;&gt;Node123</title>
<path fill="none" stroke="midnightblue" d="M2526.73,-403.44C2569.44,-393.79 2638.79,-378.12 2683.86,-367.94"/>
<polygon fill="midnightblue" stroke="midnightblue" points="2684.67,-371.35 2693.65,-365.73 2683.13,-364.52 2684.67,-371.35"/>
</g>
<!-- Node133 -->
<g id="node46" class="node">
<title>Node133</title>
<g id="a_node46"><a xlink:href="Debug_8h.html" target="_top" xlink:title="llvm/Support/Debug.h">
<polygon fill="none" stroke="black" points="2517.36,-347.5 2517.36,-366.5 2628.36,-366.5 2628.36,-347.5 2517.36,-347.5"/>
<text text-anchor="middle" x="2572.86" y="-354.5" font-family="Helvetica,sans-Serif" font-size="10.00">llvm/Support/Debug.h</text>
</a>
</g>
</g>
<!-- Node53&#45;&gt;Node133 -->
<g id="edge170" class="edge">
<title>Node53&#45;&gt;Node133</title>
<path fill="none" stroke="midnightblue" d="M2502.36,-403.32C2515.46,-394.9 2535.57,-381.97 2550.97,-372.07"/>
<polygon fill="midnightblue" stroke="midnightblue" points="2552.88,-375.01 2559.4,-366.65 2549.09,-369.12 2552.88,-375.01"/>
</g>
<!-- Node134 -->
<g id="node47" class="node">
<title>Node134</title>
<g id="a_node47"><a xlink:href="raw__ostream_8h.html" target="_top" xlink:title="llvm/Support/raw_ostream.h">
<polygon fill="none" stroke="red" points="2189.36,-291.5 2189.36,-310.5 2328.36,-310.5 2328.36,-291.5 2189.36,-291.5"/>
<text text-anchor="middle" x="2258.86" y="-298.5" font-family="Helvetica,sans-Serif" font-size="10.00">llvm/Support/raw_ostream.h</text>
</a>
</g>
</g>
<!-- Node53&#45;&gt;Node134 -->
<g id="edge172" class="edge">
<title>Node53&#45;&gt;Node134</title>
<path fill="none" stroke="midnightblue" d="M2447.68,-403.5C2417.56,-396.3 2376.29,-384.35 2342.86,-367 2317.22,-353.69 2291.5,-332.32 2275.4,-317.75"/>
<polygon fill="midnightblue" stroke="midnightblue" points="2277.63,-315.04 2267.91,-310.82 2272.88,-320.18 2277.63,-315.04"/>
</g>
<!-- Node136 -->
<g id="node48" class="node">
<title>Node136</title>
<polygon fill="none" stroke="#bfbfbf" points="2646.36,-347.5 2646.36,-366.5 2675.36,-366.5 2675.36,-347.5 2646.36,-347.5"/>
<text text-anchor="middle" x="2660.86" y="-354.5" font-family="Helvetica,sans-Serif" font-size="10.00">list</text>
</g>
<!-- Node53&#45;&gt;Node136 -->
<g id="edge184" class="edge">
<title>Node53&#45;&gt;Node136</title>
<path fill="none" stroke="midnightblue" d="M2519.62,-403.48C2547.9,-395.49 2591.16,-382.83 2636.6,-367.26"/>
<polygon fill="midnightblue" stroke="midnightblue" points="2638.02,-370.47 2646.33,-363.89 2635.73,-363.85 2638.02,-370.47"/>
</g>
<!-- Node54&#45;&gt;Node10 -->
<g id="edge115" class="edge">
<title>Node54&#45;&gt;Node10</title>
<path fill="none" stroke="midnightblue" d="M1977.95,-235.46C1956.39,-229.14 1933.84,-218.14 1920.86,-199 1891.55,-155.78 1977.79,-165.91 1991.86,-143 1999.07,-131.26 1998.9,-123.84 1991.86,-112 1948.04,-38.3 1844.69,-17.38 1774.24,-11.98"/>
<polygon fill="midnightblue" stroke="midnightblue" points="1774.31,-8.48 1764.09,-11.3 1773.83,-15.47 1774.31,-8.48"/>
</g>
<!-- Node54&#45;&gt;Node18 -->
<g id="edge117" class="edge">
<title>Node54&#45;&gt;Node18</title>
<path fill="none" stroke="midnightblue" d="M1985.57,-235.48C1947.77,-227.7 1899.68,-215 1887.86,-199 1875.53,-182.3 1889.56,-159.93 1902.51,-144.9"/>
<polygon fill="midnightblue" stroke="midnightblue" points="1905.22,-147.12 1909.42,-137.4 1900.07,-142.38 1905.22,-147.12"/>
</g>
<!-- Node54&#45;&gt;Node19 -->
<g id="edge124" class="edge">
<title>Node54&#45;&gt;Node19</title>
<path fill="none" stroke="midnightblue" d="M2063.91,-235.46C2169.41,-205.49 2522.17,-105.27 2627.15,-75.44"/>
<polygon fill="midnightblue" stroke="midnightblue" points="2628.13,-78.8 2636.79,-72.7 2626.22,-72.07 2628.13,-78.8"/>
</g>
<!-- Node54&#45;&gt;Node21 -->
<g id="edge118" class="edge">
<title>Node54&#45;&gt;Node21</title>
<path fill="none" stroke="midnightblue" d="M2094.97,-243.04C2387.63,-238.35 3633.21,-217.33 3668.86,-199 3693.64,-186.26 3738.24,-117.11 3758.43,-84.3"/>
<polygon fill="midnightblue" stroke="midnightblue" points="3761.43,-86.1 3763.65,-75.74 3755.46,-82.45 3761.43,-86.1"/>
</g>
<!-- Node54&#45;&gt;Node22 -->
<g id="edge121" class="edge">
<title>Node54&#45;&gt;Node22</title>
<path fill="none" stroke="midnightblue" d="M1972.75,-238.88C1957.44,-237.61 1941.05,-236.25 1925.86,-235 1728.55,-218.78 1677.27,-230.83 1481.86,-199 1445.26,-193.04 1437.58,-184.16 1400.86,-179 1347.24,-171.47 465.7,-180.73 426.86,-143 411.92,-128.49 413.47,-103.06 416.88,-85.65"/>
<polygon fill="midnightblue" stroke="midnightblue" points="420.37,-86.09 419.23,-75.56 413.55,-84.5 420.37,-86.09"/>
</g>
<!-- Node54&#45;&gt;Node26 -->
<g id="edge123" class="edge">
<title>Node54&#45;&gt;Node26</title>
<path fill="none" stroke="midnightblue" d="M2094.98,-241.46C2192.94,-236.77 2390.94,-224.8 2556.86,-199 2768.44,-166.1 3017.68,-100.49 3106.43,-76.26"/>
<polygon fill="midnightblue" stroke="midnightblue" points="3107.49,-79.6 3116.21,-73.59 3105.64,-72.85 3107.49,-79.6"/>
</g>
<!-- Node54&#45;&gt;Node15 -->
<g id="edge119" class="edge">
<title>Node54&#45;&gt;Node15</title>
<path fill="none" stroke="midnightblue" d="M2069.64,-235.37C2091.94,-228.52 2120.05,-217.03 2139.86,-199 2172.36,-169.42 2152.86,-139.85 2186.86,-112 2219.14,-85.56 2266.81,-74.63 2299.04,-70.13"/>
<polygon fill="midnightblue" stroke="midnightblue" points="2299.85,-73.56 2309.33,-68.84 2298.98,-66.61 2299.85,-73.56"/>
</g>
<!-- Node54&#45;&gt;Node32 -->
<g id="edge120" class="edge">
<title>Node54&#45;&gt;Node32</title>
<path fill="none" stroke="midnightblue" d="M1992.58,-235.43C1960.67,-228 1915.86,-215.8 1878.86,-199 1805.06,-165.49 1726.82,-108.59 1691.77,-81.79"/>
<polygon fill="midnightblue" stroke="midnightblue" points="1693.87,-79 1683.81,-75.66 1689.6,-84.54 1693.87,-79"/>
</g>
<!-- Node54&#45;&gt;Node33 -->
<g id="edge122" class="edge">
<title>Node54&#45;&gt;Node33</title>
<path fill="none" stroke="midnightblue" d="M1972.62,-238.34C1869.86,-228.73 1666.98,-209.28 1595.86,-199 1547.98,-192.08 1536.68,-186.37 1488.86,-179 1357.88,-158.82 1322.77,-169.2 1192.86,-143 1188.32,-142.08 1183.6,-140.97 1178.94,-139.77"/>
<polygon fill="midnightblue" stroke="midnightblue" points="1179.5,-136.29 1168.93,-137.04 1177.66,-143.05 1179.5,-136.29"/>
</g>
<!-- Node54&#45;&gt;Node51 -->
<g id="edge114" class="edge">
<title>Node54&#45;&gt;Node51</title>
<path fill="none" stroke="midnightblue" d="M2095.02,-242.79C2313.68,-238.37 3077.14,-222.15 3706.86,-199 3745.61,-197.58 3788.71,-195.6 3824.34,-193.87"/>
<polygon fill="midnightblue" stroke="midnightblue" points="3824.84,-197.35 3834.66,-193.36 3824.5,-190.35 3824.84,-197.35"/>
</g>
<!-- Node54&#45;&gt;Node52 -->
<g id="edge116" class="edge">
<title>Node54&#45;&gt;Node52</title>
<path fill="none" stroke="midnightblue" d="M1972.77,-238.61C1957.46,-237.34 1941.07,-236.05 1925.86,-235 1659.42,-216.59 1343.86,-201.03 1193.72,-194"/>
<polygon fill="midnightblue" stroke="midnightblue" points="1193.79,-190.5 1183.63,-193.53 1193.46,-197.5 1193.79,-190.5"/>
</g>
<!-- Node55&#45;&gt;Node1 -->
<g id="edge127" class="edge">
<title>Node55&#45;&gt;Node1</title>
<path fill="none" stroke="midnightblue" d="M1894.59,-291.08C1889.22,-283.46 1881.34,-272.26 1874.78,-262.94"/>
<polygon fill="midnightblue" stroke="midnightblue" points="1877.64,-260.91 1869.02,-254.75 1871.91,-264.94 1877.64,-260.91"/>
</g>
<!-- Node55&#45;&gt;Node16 -->
<g id="edge133" class="edge">
<title>Node55&#45;&gt;Node16</title>
<path fill="none" stroke="midnightblue" d="M1836.05,-297.06C1740.22,-292.06 1555.29,-279.93 1399.86,-255 1361.11,-248.79 1352.67,-240.83 1313.86,-235 1257.25,-226.49 838.9,-240.87 799.86,-199 765.53,-162.18 824.48,-107.73 857.63,-81.79"/>
<polygon fill="midnightblue" stroke="midnightblue" points="859.99,-84.4 865.82,-75.55 855.74,-78.83 859.99,-84.4"/>
</g>
<!-- Node55&#45;&gt;Node21 -->
<g id="edge130" class="edge">
<title>Node55&#45;&gt;Node21</title>
<path fill="none" stroke="midnightblue" d="M1965.64,-297.81C2022.39,-295.91 2107.09,-293.15 2180.86,-291 2486.84,-282.08 3254.98,-299.28 3557.86,-255 3652.17,-241.21 3694.87,-263.68 3764.86,-199 3794,-172.07 3791.61,-151.1 3784.86,-112 3783.29,-102.91 3780.07,-93.22 3776.92,-85.17"/>
<polygon fill="midnightblue" stroke="midnightblue" points="3780.06,-83.6 3772.97,-75.72 3773.6,-86.3 3780.06,-83.6"/>
</g>
<!-- Node55&#45;&gt;Node23 -->
<g id="edge128" class="edge">
<title>Node55&#45;&gt;Node23</title>
<path fill="none" stroke="midnightblue" d="M1836.14,-292.62C1759.27,-283.81 1627.19,-268.58 1513.86,-255 1441.83,-246.37 1424,-242.67 1351.86,-235 1172.6,-215.95 1126.86,-220.38 947.86,-199 946.6,-198.85 945.32,-198.69 944.03,-198.53"/>
<polygon fill="midnightblue" stroke="midnightblue" points="944.38,-195.05 934.01,-197.21 943.47,-201.99 944.38,-195.05"/>
</g>
<!-- Node55&#45;&gt;Node24 -->
<g id="edge129" class="edge">
<title>Node55&#45;&gt;Node24</title>
<path fill="none" stroke="midnightblue" d="M1879.13,-291.44C1858.36,-283.01 1826.38,-269.33 1799.86,-255 1770.91,-239.35 1739.27,-218.29 1719.26,-204.44"/>
<polygon fill="midnightblue" stroke="midnightblue" points="1721.13,-201.48 1710.93,-198.63 1717.13,-207.22 1721.13,-201.48"/>
</g>
<!-- Node55&#45;&gt;Node26 -->
<g id="edge132" class="edge">
<title>Node55&#45;&gt;Node26</title>
<path fill="none" stroke="midnightblue" d="M1965.49,-294.78C2127.84,-280.64 2565.08,-236.25 2917.86,-143 2987.14,-124.69 3066.02,-95.66 3108.61,-79.29"/>
<polygon fill="midnightblue" stroke="midnightblue" points="3110.06,-82.48 3118.12,-75.61 3107.53,-75.95 3110.06,-82.48"/>
</g>
<!-- Node55&#45;&gt;Node15 -->
<g id="edge131" class="edge">
<title>Node55&#45;&gt;Node15</title>
<path fill="none" stroke="midnightblue" d="M1965.58,-293.47C2006.76,-287.45 2060.34,-276.11 2103.86,-255 2196.65,-209.98 2284.81,-120.58 2318.96,-83.61"/>
<polygon fill="midnightblue" stroke="midnightblue" points="2321.96,-85.52 2326.11,-75.77 2316.79,-80.8 2321.96,-85.52"/>
</g>
<!-- Node58&#45;&gt;Node10 -->
<g id="edge143" class="edge">
<title>Node58&#45;&gt;Node10</title>
<path fill="none" stroke="midnightblue" d="M3910.63,-299.22C4074.66,-295.69 4591.86,-276.77 4514.86,-179 4355.85,22.89 4205.4,-83.28 3949.86,-56 3513.18,-9.38 2107.08,-9.95 1774.06,-10.77"/>
<polygon fill="midnightblue" stroke="midnightblue" points="1774.05,-7.27 1764.06,-10.8 1774.07,-14.27 1774.05,-7.27"/>
</g>
<!-- Node58&#45;&gt;Node21 -->
<g id="edge144" class="edge">
<title>Node58&#45;&gt;Node21</title>
<path fill="none" stroke="midnightblue" d="M3910.44,-295.9C4052.14,-283.45 4457.4,-244.15 4494.86,-199 4519.55,-169.24 4521.34,-140.17 4494.86,-112 4470.94,-86.55 3946.15,-71.48 3804.07,-67.86"/>
<polygon fill="midnightblue" stroke="midnightblue" points="3803.84,-64.35 3793.76,-67.6 3803.66,-71.35 3803.84,-64.35"/>
</g>
<!-- Node58&#45;&gt;Node25 -->
<g id="edge136" class="edge">
<title>Node58&#45;&gt;Node25</title>
<path fill="none" stroke="midnightblue" d="M3813.12,-299.54C3735.95,-297.72 3581.49,-289.61 3455.86,-255 3397.95,-239.05 3386.54,-225.95 3332.86,-199 3295.87,-180.43 3254.04,-156.89 3228.56,-142.26"/>
<polygon fill="midnightblue" stroke="midnightblue" points="3230.05,-139.08 3219.64,-137.12 3226.56,-145.15 3230.05,-139.08"/>
</g>
<!-- Node58&#45;&gt;Node15 -->
<g id="edge145" class="edge">
<title>Node58&#45;&gt;Node15</title>
<path fill="none" stroke="midnightblue" d="M3910.43,-292.35C4037.41,-272.11 4370.6,-217.49 4385.86,-199 4391.52,-192.15 4391.26,-186.06 4385.86,-179 4292.2,-56.55 3897.41,-110.56 2627.86,-76 2534.3,-73.45 2424.01,-69.94 2368.9,-68.15"/>
<polygon fill="midnightblue" stroke="midnightblue" points="2368.75,-64.64 2358.64,-67.82 2368.52,-71.64 2368.75,-64.64"/>
</g>
<!-- Node58&#45;&gt;Node34 -->
<g id="edge147" class="edge">
<title>Node58&#45;&gt;Node34</title>
<path fill="none" stroke="midnightblue" d="M3880.81,-291.39C3921.9,-271.64 4012.47,-221.47 3973.86,-179 3940.76,-142.59 3595.36,-131.79 3481.23,-129.21"/>
<polygon fill="midnightblue" stroke="midnightblue" points="3481,-125.7 3470.93,-128.98 3480.85,-132.7 3481,-125.7"/>
</g>
<!-- Node58&#45;&gt;Node40 -->
<g id="edge146" class="edge">
<title>Node58&#45;&gt;Node40</title>
<path fill="none" stroke="midnightblue" d="M3910.62,-297.52C3972.47,-291.38 4076.4,-270.38 4120.86,-199 4130.83,-182.99 4124.15,-161.32 4117.01,-146.24"/>
<polygon fill="midnightblue" stroke="midnightblue" points="4119.92,-144.25 4112.18,-137.01 4113.71,-147.5 4119.92,-144.25"/>
</g>
<!-- Node58&#45;&gt;Node47 -->
<g id="edge135" class="edge">
<title>Node58&#45;&gt;Node47</title>
<path fill="none" stroke="midnightblue" d="M3813.35,-297.83C3623.96,-289.37 2934.28,-258.57 2718.11,-248.91"/>
<polygon fill="midnightblue" stroke="midnightblue" points="2718.03,-245.41 2707.88,-248.46 2717.71,-252.4 2718.03,-245.41"/>
</g>
<!-- Node74 -->
<g id="node40" class="node">
<title>Node74</title>
<g id="a_node40"><a xlink:href="Value_8h.html" target="_top" xlink:title="llvm/IR/Value.h">
<polygon fill="none" stroke="red" points="3464.86,-235.5 3464.86,-254.5 3548.86,-254.5 3548.86,-235.5 3464.86,-235.5"/>
<text text-anchor="middle" x="3506.86" y="-242.5" font-family="Helvetica,sans-Serif" font-size="10.00">llvm/IR/Value.h</text>
</a>
</g>
</g>
<!-- Node58&#45;&gt;Node74 -->
<g id="edge137" class="edge">
<title>Node58&#45;&gt;Node74</title>
<path fill="none" stroke="midnightblue" d="M3813.24,-292.6C3746.69,-282.48 3627.67,-264.38 3559.21,-253.96"/>
<polygon fill="midnightblue" stroke="midnightblue" points="3559.49,-250.47 3549.08,-252.42 3558.44,-257.39 3559.49,-250.47"/>
</g>
<!-- Node74&#45;&gt;Node21 -->
<g id="edge140" class="edge">
<title>Node74&#45;&gt;Node21</title>
<path fill="none" stroke="midnightblue" d="M3549.02,-241.65C3609.88,-237.35 3718.01,-226.04 3744.86,-199 3774.87,-168.78 3774.26,-114.41 3771.45,-85.79"/>
<polygon fill="midnightblue" stroke="midnightblue" points="3774.9,-85.08 3770.25,-75.56 3767.94,-85.9 3774.9,-85.08"/>
</g>
<!-- Node74&#45;&gt;Node25 -->
<g id="edge139" class="edge">
<title>Node74&#45;&gt;Node25</title>
<path fill="none" stroke="midnightblue" d="M3484.16,-235.32C3431.02,-214.99 3298.37,-164.26 3236.98,-140.78"/>
<polygon fill="midnightblue" stroke="midnightblue" points="3238,-137.43 3227.41,-137.12 3235.5,-143.97 3238,-137.43"/>
</g>
<!-- Node74&#45;&gt;Node26 -->
<g id="edge141" class="edge">
<title>Node74&#45;&gt;Node26</title>
<path fill="none" stroke="midnightblue" d="M3503.52,-235.2C3500.31,-226.24 3495.68,-211.88 3493.86,-199 3492.62,-190.2 3491.72,-187.63 3493.86,-179 3498.21,-161.44 3508.51,-160.56 3512.86,-143 3516.17,-129.63 3522,-122.31 3512.86,-112 3490.51,-86.79 3261.23,-72.96 3173.63,-68.56"/>
<polygon fill="midnightblue" stroke="midnightblue" points="3173.6,-65.06 3163.44,-68.06 3173.25,-72.05 3173.6,-65.06"/>
</g>
<!-- Node74&#45;&gt;Node34 -->
<g id="edge142" class="edge">
<title>Node74&#45;&gt;Node34</title>
<path fill="none" stroke="midnightblue" d="M3494.77,-235.41C3484.2,-227.25 3469.26,-214.02 3460.86,-199 3451.88,-182.94 3447.94,-162.15 3446.21,-147.31"/>
<polygon fill="midnightblue" stroke="midnightblue" points="3449.69,-146.94 3445.27,-137.31 3442.72,-147.59 3449.69,-146.94"/>
</g>
<!-- Node74&#45;&gt;Node36 -->
<g id="edge138" class="edge">
<title>Node74&#45;&gt;Node36</title>
<path fill="none" stroke="midnightblue" d="M3464.65,-240.03C3366.29,-230.78 3121.09,-207.71 3001.13,-196.42"/>
<polygon fill="midnightblue" stroke="midnightblue" points="3001.25,-192.92 2990.96,-195.47 3000.59,-199.89 3001.25,-192.92"/>
</g>
<!-- Node109&#45;&gt;Node25 -->
<g id="edge151" class="edge">
<title>Node109&#45;&gt;Node25</title>
<path fill="none" stroke="midnightblue" d="M3153.87,-347.36C3161.63,-314.07 3189.68,-193.65 3200.53,-147.07"/>
<polygon fill="midnightblue" stroke="midnightblue" points="3203.99,-147.68 3202.85,-137.15 3197.17,-146.09 3203.99,-147.68"/>
</g>
<!-- Node109&#45;&gt;Node26 -->
<g id="edge155" class="edge">
<title>Node109&#45;&gt;Node26</title>
<path fill="none" stroke="midnightblue" d="M3157.39,-347.22C3162.9,-338.28 3171.46,-323.94 3177.86,-311 3206.04,-254.03 3188.77,-224.78 3232.86,-179 3259.35,-151.5 3290.28,-175.16 3310.86,-143 3318.29,-131.39 3319.27,-122.91 3310.86,-112 3294.25,-90.45 3218.63,-77.17 3173.71,-71.03"/>
<polygon fill="midnightblue" stroke="midnightblue" points="3173.91,-67.53 3163.54,-69.7 3173,-74.47 3173.91,-67.53"/>
</g>
<!-- Node109&#45;&gt;Node15 -->
<g id="edge153" class="edge">
<title>Node109&#45;&gt;Node15</title>
<path fill="none" stroke="midnightblue" d="M3106.21,-354.06C3004.75,-349.34 2763.36,-335.82 2685.86,-311 2536.89,-263.29 2395.06,-129.22 2349.23,-82.95"/>
<polygon fill="midnightblue" stroke="midnightblue" points="2351.53,-80.29 2342.03,-75.6 2346.53,-85.19 2351.53,-80.29"/>
</g>
<!-- Node109&#45;&gt;Node34 -->
<g id="edge156" class="edge">
<title>Node109&#45;&gt;Node34</title>
<path fill="none" stroke="midnightblue" d="M3166.62,-347.37C3181.23,-338.67 3204.06,-324.6 3222.86,-311 3302.19,-253.59 3390.37,-176.94 3427.2,-144.29"/>
<polygon fill="midnightblue" stroke="midnightblue" points="3429.89,-146.59 3435.04,-137.32 3425.24,-141.35 3429.89,-146.59"/>
</g>
<!-- Node109&#45;&gt;Node36 -->
<g id="edge149" class="edge">
<title>Node109&#45;&gt;Node36</title>
<path fill="none" stroke="midnightblue" d="M3140.4,-347.31C3104.92,-320.42 2996.65,-238.35 2952.21,-204.67"/>
<polygon fill="midnightblue" stroke="midnightblue" points="2954.3,-201.86 2944.21,-198.61 2950.07,-207.44 2954.3,-201.86"/>
</g>
<!-- Node109&#45;&gt;Node40 -->
<g id="edge154" class="edge">
<title>Node109&#45;&gt;Node40</title>
<path fill="none" stroke="midnightblue" d="M3197.51,-354.89C3340.75,-351.16 3780.08,-337.77 3919.86,-311 3997.58,-296.11 4023.16,-299.09 4088.86,-255 4116.08,-236.73 4125.49,-229.74 4136.86,-199 4143.82,-180.2 4132.18,-159.1 4121.44,-144.92"/>
<polygon fill="midnightblue" stroke="midnightblue" points="4124.07,-142.61 4115.04,-137.08 4118.65,-147.04 4124.07,-142.61"/>
</g>
<!-- Node109&#45;&gt;Node44 -->
<g id="edge157" class="edge">
<title>Node109&#45;&gt;Node44</title>
<path fill="none" stroke="midnightblue" d="M3106.34,-354.7C3012.41,-351.47 2790.5,-341.06 2606.86,-311 2570.27,-305.01 2562.17,-298.55 2525.86,-291 2289.92,-241.92 2224.04,-252.3 1984.24,-198.86"/>
<polygon fill="midnightblue" stroke="midnightblue" points="1984.69,-195.37 1974.16,-196.6 1983.16,-202.2 1984.69,-195.37"/>
</g>
<!-- Node109&#45;&gt;Node47 -->
<g id="edge150" class="edge">
<title>Node109&#45;&gt;Node47</title>
<path fill="none" stroke="midnightblue" d="M3106.16,-355.15C3008.91,-352.72 2784.78,-343.65 2716.86,-311 2694.64,-300.32 2675.78,-278.59 2664.4,-263.2"/>
<polygon fill="midnightblue" stroke="midnightblue" points="2666.96,-260.74 2658.33,-254.59 2661.24,-264.78 2666.96,-260.74"/>
</g>
<!-- Node109&#45;&gt;Node58 -->
<g id="edge152" class="edge">
<title>Node109&#45;&gt;Node58</title>
<path fill="none" stroke="midnightblue" d="M3197.63,-352.52C3321.79,-343.08 3664.93,-316.98 3803.1,-306.47"/>
<polygon fill="midnightblue" stroke="midnightblue" points="3803.37,-309.96 3813.08,-305.71 3802.84,-302.98 3803.37,-309.96"/>
</g>
<!-- Node118&#45;&gt;Node16 -->
<g id="edge162" class="edge">
<title>Node118&#45;&gt;Node16</title>
<path fill="none" stroke="midnightblue" d="M1728.98,-356.41C1515.1,-355.82 908.97,-341.4 786.86,-199 773.81,-183.78 767.32,-154.64 796.86,-112 807.18,-97.11 824.1,-86.61 839.81,-79.52"/>
<polygon fill="midnightblue" stroke="midnightblue" points="841.48,-82.62 849.37,-75.54 838.79,-76.15 841.48,-82.62"/>
</g>
<!-- Node118&#45;&gt;Node24 -->
<g id="edge159" class="edge">
<title>Node118&#45;&gt;Node24</title>
<path fill="none" stroke="midnightblue" d="M1798.22,-347.08C1781.47,-320.61 1731.89,-242.21 1709.75,-207.21"/>
<polygon fill="midnightblue" stroke="midnightblue" points="1712.58,-205.15 1704.28,-198.57 1706.67,-208.89 1712.58,-205.15"/>
</g>
<!-- Node118&#45;&gt;Node121 -->
<g id="edge160" class="edge">
<title>Node118&#45;&gt;Node121</title>
<path fill="none" stroke="midnightblue" d="M1878.4,-349.78C2002.5,-339.42 2250.18,-318.75 2375.1,-308.32"/>
<polygon fill="midnightblue" stroke="midnightblue" points="2375.66,-311.79 2385.34,-307.47 2375.08,-304.81 2375.66,-311.79"/>
</g>
<!-- Node121&#45;&gt;Node47 -->
<g id="edge161" class="edge">
<title>Node121&#45;&gt;Node47</title>
<path fill="none" stroke="midnightblue" d="M2482.87,-291.44C2517.59,-282.16 2573.15,-267.31 2611.24,-257.13"/>
<polygon fill="midnightblue" stroke="midnightblue" points="2612.25,-260.48 2621,-254.52 2610.44,-253.72 2612.25,-260.48"/>
</g>
<!-- Node122&#45;&gt;Node19 -->
<g id="edge167" class="edge">
<title>Node122&#45;&gt;Node19</title>
<path fill="none" stroke="midnightblue" d="M2943.16,-291.37C2912.21,-263.98 2812.7,-177 2724.86,-112 2710.07,-101.05 2692.76,-89.62 2679.31,-81.02"/>
<polygon fill="midnightblue" stroke="midnightblue" points="2681.02,-77.95 2670.7,-75.55 2677.27,-83.86 2681.02,-77.95"/>
</g>
<!-- Node122&#45;&gt;Node34 -->
<g id="edge166" class="edge">
<title>Node122&#45;&gt;Node34</title>
<path fill="none" stroke="midnightblue" d="M2979.6,-291.46C3050.33,-268.71 3248.04,-204.25 3409.86,-143 3411.51,-142.38 3413.2,-141.72 3414.9,-141.06"/>
<polygon fill="midnightblue" stroke="midnightblue" points="3416.62,-144.13 3424.59,-137.15 3414,-137.64 3416.62,-144.13"/>
</g>
<!-- Node122&#45;&gt;Node36 -->
<g id="edge164" class="edge">
<title>Node122&#45;&gt;Node36</title>
<path fill="none" stroke="midnightblue" d="M2951.29,-291.37C2948.06,-273.62 2940.62,-232.67 2936.24,-208.6"/>
<polygon fill="midnightblue" stroke="midnightblue" points="2939.66,-207.8 2934.42,-198.59 2932.77,-209.06 2939.66,-207.8"/>
</g>
<!-- Node122&#45;&gt;Node47 -->
<g id="edge165" class="edge">
<title>Node122&#45;&gt;Node47</title>
<path fill="none" stroke="midnightblue" d="M2905.33,-291.44C2852.33,-281.9 2766.66,-266.48 2710.04,-256.29"/>
<polygon fill="midnightblue" stroke="midnightblue" points="2710.64,-252.84 2700.17,-254.52 2709.4,-259.73 2710.64,-252.84"/>
</g>
<!-- Node123&#45;&gt;Node47 -->
<g id="edge169" class="edge">
<title>Node123&#45;&gt;Node47</title>
<path fill="none" stroke="midnightblue" d="M2717.14,-347.24C2707.27,-338.76 2692.72,-325.14 2682.86,-311 2672.65,-296.36 2664.46,-277.69 2659.23,-264.12"/>
<polygon fill="midnightblue" stroke="midnightblue" points="2662.43,-262.68 2655.69,-254.5 2655.86,-265.1 2662.43,-262.68"/>
</g>
<!-- Node134&#45;&gt;Node16 -->
<g id="edge179" class="edge">
<title>Node134&#45;&gt;Node16</title>
<path fill="none" stroke="midnightblue" d="M2189.13,-296.66C2063.68,-290.39 1791.69,-275.61 1562.86,-255 1485.77,-248.06 1466.95,-241.94 1389.86,-235 1328.09,-229.44 875.28,-244.25 832.86,-199 801.93,-166.01 840.09,-110.89 862.99,-83.49"/>
<polygon fill="midnightblue" stroke="midnightblue" points="865.89,-85.49 869.78,-75.64 860.59,-80.91 865.89,-85.49"/>
</g>
<!-- Node134&#45;&gt;Node21 -->
<g id="edge175" class="edge">
<title>Node134&#45;&gt;Node21</title>
<path fill="none" stroke="midnightblue" d="M2328.39,-294.1C2344.31,-292.91 2361.16,-291.79 2376.86,-291 3026.9,-258.24 3193.4,-321.42 3840.86,-255 3890.29,-249.93 3901.6,-241.5 3950.86,-235 3998.94,-228.65 4353.01,-234.68 4385.86,-199 4468.02,-109.76 3946.2,-76.13 3803.97,-68.68"/>
<polygon fill="midnightblue" stroke="midnightblue" points="3803.81,-65.17 3793.65,-68.16 3803.46,-72.16 3803.81,-65.17"/>
</g>
<!-- Node134&#45;&gt;Node22 -->
<g id="edge178" class="edge">
<title>Node134&#45;&gt;Node22</title>
<path fill="none" stroke="midnightblue" d="M2189.24,-297.42C2041.72,-291.73 1686.86,-276.85 1389.86,-255 1128.49,-235.77 392.16,-336.91 215.86,-143 206.59,-132.81 207.22,-122.73 215.86,-112 226.67,-98.57 333.1,-80.54 388.58,-71.95"/>
<polygon fill="midnightblue" stroke="midnightblue" points="389.28,-75.39 398.64,-70.41 388.22,-68.47 389.28,-75.39"/>
</g>
<!-- Node134&#45;&gt;Node24 -->
<g id="edge173" class="edge">
<title>Node134&#45;&gt;Node24</title>
<path fill="none" stroke="midnightblue" d="M2189.09,-295.92C2128.34,-290.83 2038.54,-279.58 1963.86,-255 1945.73,-249.03 1943.85,-241.37 1925.86,-235 1875.16,-217.06 1815.4,-205.58 1769.93,-198.7"/>
<polygon fill="midnightblue" stroke="midnightblue" points="1770.28,-195.22 1759.87,-197.22 1769.26,-202.14 1770.28,-195.22"/>
</g>
<!-- Node134&#45;&gt;Node15 -->
<g id="edge176" class="edge">
<title>Node134&#45;&gt;Node15</title>
<path fill="none" stroke="midnightblue" d="M2283.18,-291.36C2299.21,-284.26 2319,-272.5 2328.86,-255 2359.81,-200.07 2346.91,-121.04 2338.71,-85.52"/>
<polygon fill="midnightblue" stroke="midnightblue" points="2342.06,-84.48 2336.27,-75.6 2335.26,-86.15 2342.06,-84.48"/>
</g>
<!-- Node134&#45;&gt;Node40 -->
<g id="edge177" class="edge">
<title>Node134&#45;&gt;Node40</title>
<path fill="none" stroke="midnightblue" d="M2328.4,-294.11C2344.31,-292.93 2361.16,-291.8 2376.86,-291 2688.12,-275.14 3470.83,-302.39 3778.86,-255 3867.98,-241.29 3890.24,-232.74 3973.86,-199 4014.22,-182.71 4058.36,-157.78 4084.28,-142.34"/>
<polygon fill="midnightblue" stroke="midnightblue" points="4086.2,-145.27 4092.96,-137.12 4082.59,-139.27 4086.2,-145.27"/>
</g>
<!-- Node134&#45;&gt;Node47 -->
<g id="edge174" class="edge">
<title>Node134&#45;&gt;Node47</title>
<path fill="none" stroke="midnightblue" d="M2321.29,-291.44C2394.03,-281.47 2513.66,-265.08 2587.6,-254.94"/>
<polygon fill="midnightblue" stroke="midnightblue" points="2588.28,-258.38 2597.72,-253.56 2587.33,-251.45 2588.28,-258.38"/>
</g>
<!-- Node137&#45;&gt;Node21 -->
<g id="edge199" class="edge">
<title>Node137&#45;&gt;Node21</title>
<path fill="none" stroke="midnightblue" d="M4288.54,-350.61C4391.18,-339.41 4594.86,-309.21 4594.86,-246 4594.86,-246 4594.86,-246 4594.86,-188 4594.86,-152.58 4598.83,-133.73 4570.86,-112 4509.69,-64.48 3950.56,-65.55 3803.93,-66.66"/>
<polygon fill="midnightblue" stroke="midnightblue" points="3803.69,-63.16 3793.71,-66.74 3803.74,-70.16 3803.69,-63.16"/>
</g>
<!-- Node137&#45;&gt;Node46 -->
<g id="edge191" class="edge">
<title>Node137&#45;&gt;Node46</title>
<path fill="none" stroke="midnightblue" d="M4173.31,-355.85C3986.61,-354.97 3380.85,-349.24 2868.74,-310.99"/>
<polygon fill="midnightblue" stroke="midnightblue" points="2868.79,-307.48 2858.56,-310.22 2868.27,-314.46 2868.79,-307.48"/>
</g>
<!-- Node137&#45;&gt;Node74 -->
<g id="edge198" class="edge">
<title>Node137&#45;&gt;Node74</title>
<path fill="none" stroke="midnightblue" d="M4173.06,-351.91C4090.89,-345.65 3935.73,-332.12 3804.86,-311 3713.38,-296.24 3607.72,-271.28 3550.01,-256.97"/>
<polygon fill="midnightblue" stroke="midnightblue" points="3550.7,-253.54 3540.15,-254.51 3549.01,-260.33 3550.7,-253.54"/>
</g>
<!-- Node57 -->
<g id="node50" class="node">
<title>Node57</title>
<g id="a_node50"><a xlink:href="PointerIntPair_8h.html" target="_top" xlink:title="llvm/ADT/PointerIntPair.h">
<polygon fill="none" stroke="red" points="4248.86,-179.5 4248.86,-198.5 4376.86,-198.5 4376.86,-179.5 4248.86,-179.5"/>
<text text-anchor="middle" x="4312.86" y="-186.5" font-family="Helvetica,sans-Serif" font-size="10.00">llvm/ADT/PointerIntPair.h</text>
</a>
</g>
</g>
<!-- Node137&#45;&gt;Node57 -->
<g id="edge192" class="edge">
<title>Node137&#45;&gt;Node57</title>
<path fill="none" stroke="midnightblue" d="M4235.27,-347.08C4248.29,-320.72 4286.74,-242.88 4304.14,-207.66"/>
<polygon fill="midnightblue" stroke="midnightblue" points="4307.34,-209.08 4308.63,-198.57 4301.06,-205.98 4307.34,-209.08"/>
</g>
<!-- Node57&#45;&gt;Node10 -->
<g id="edge193" class="edge">
<title>Node57&#45;&gt;Node10</title>
<path fill="none" stroke="midnightblue" d="M4302.85,-179.45C4283.33,-163.3 4238.22,-128.46 4193.86,-112 4029.28,-50.93 3977.82,-70.35 3802.86,-56 3395.79,-22.61 2093.22,-13.2 1773.99,-11.37"/>
<polygon fill="midnightblue" stroke="midnightblue" points="1773.96,-7.87 1763.94,-11.31 1773.92,-14.87 1773.96,-7.87"/>
</g>
<!-- Node57&#45;&gt;Node18 -->
<g id="edge195" class="edge">
<title>Node57&#45;&gt;Node18</title>
<path fill="none" stroke="midnightblue" d="M4248.82,-186.26C4180.66,-184.42 4069.65,-181.45 3973.86,-179 3199.77,-159.21 2261.62,-136.69 1993.6,-130.28"/>
<polygon fill="midnightblue" stroke="midnightblue" points="1993.3,-126.78 1983.21,-130.04 1993.13,-133.77 1993.3,-126.78"/>
</g>
<!-- Node57&#45;&gt;Node21 -->
<g id="edge196" class="edge">
<title>Node57&#45;&gt;Node21</title>
<path fill="none" stroke="midnightblue" d="M4297.12,-179.25C4267.27,-163.08 4199.92,-128.66 4138.86,-112 4018.82,-79.24 3870.35,-70.31 3803.89,-67.89"/>
<polygon fill="midnightblue" stroke="midnightblue" points="3803.69,-64.38 3793.58,-67.54 3803.45,-71.37 3803.69,-64.38"/>
</g>
<!-- Node57&#45;&gt;Node40 -->
<g id="edge197" class="edge">
<title>Node57&#45;&gt;Node40</title>
<path fill="none" stroke="midnightblue" d="M4283.35,-179.48C4245.27,-168.48 4179.25,-149.41 4139.65,-137.97"/>
<polygon fill="midnightblue" stroke="midnightblue" points="4140.53,-134.58 4129.95,-135.17 4138.58,-141.31 4140.53,-134.58"/>
</g>
<!-- Node57&#45;&gt;Node48 -->
<g id="edge194" class="edge">
<title>Node57&#45;&gt;Node48</title>
<path fill="none" stroke="midnightblue" d="M4248.82,-186.03C4180.67,-184 4069.66,-180.87 3973.86,-179 3334.38,-166.51 1733.79,-189.25 1095.86,-143 1083.81,-142.13 1071.06,-140.8 1058.69,-139.29"/>
<polygon fill="midnightblue" stroke="midnightblue" points="1058.77,-135.78 1048.41,-138 1057.89,-142.72 1058.77,-135.78"/>
</g>
</g>
</svg>
