<?xml version="1.0" encoding="UTF-8" standalone="no"?>
<!DOCTYPE svg PUBLIC "-//W3C//DTD SVG 1.1//EN"
 "http://www.w3.org/Graphics/SVG/1.1/DTD/svg11.dtd">
<!-- Generated by graphviz version 2.43.0 (0)
 -->
<!-- Title: lib/Support/BinaryStreamWriter.cpp Pages: 1 -->
<svg width="4422pt" height="811pt"
 viewBox="0.00 0.00 4421.50 811.00" xmlns="http://www.w3.org/2000/svg" xmlns:xlink="http://www.w3.org/1999/xlink">
<g id="graph0" class="graph" transform="scale(1 1) rotate(0) translate(4 807)">
<title>lib/Support/BinaryStreamWriter.cpp</title>
<!-- Node0 -->
<g id="node1" class="node">
<title>Node0</title>
<polygon fill="#bfbfbf" stroke="black" points="739,-772.5 739,-802.5 864,-802.5 864,-772.5 739,-772.5"/>
<text text-anchor="start" x="747" y="-790.5" font-family="Helvetica,sans-Serif" font-size="10.00">lib/Support/BinaryStream</text>
<text text-anchor="middle" x="801.5" y="-779.5" font-family="Helvetica,sans-Serif" font-size="10.00">Writer.cpp</text>
</g>
<!-- Node1 -->
<g id="node2" class="node">
<title>Node1</title>
<g id="a_node2"><a xlink:href="BinaryStreamWriter_8h.html" target="_top" xlink:title="llvm/Support/BinaryStream\lWriter.h">
<polygon fill="none" stroke="black" points="2542.5,-705.5 2542.5,-735.5 2676.5,-735.5 2676.5,-705.5 2542.5,-705.5"/>
<text text-anchor="start" x="2550.5" y="-723.5" font-family="Helvetica,sans-Serif" font-size="10.00">llvm/Support/BinaryStream</text>
<text text-anchor="middle" x="2609.5" y="-712.5" font-family="Helvetica,sans-Serif" font-size="10.00">Writer.h</text>
</a>
</g>
</g>
<!-- Node0&#45;&gt;Node1 -->
<g id="edge1" class="edge">
<title>Node0&#45;&gt;Node1</title>
<path fill="none" stroke="midnightblue" d="M864.03,-785.29C1077.54,-781.01 1797.39,-765.18 2391.5,-736 2438.22,-733.7 2490.53,-730.26 2532.19,-727.3"/>
<polygon fill="midnightblue" stroke="midnightblue" points="2532.54,-730.78 2542.26,-726.58 2532.04,-723.8 2532.54,-730.78"/>
</g>
<!-- Node48 -->
<g id="node36" class="node">
<title>Node48</title>
<g id="a_node36"><a xlink:href="BinaryStreamRef_8h.html" target="_top" xlink:title="llvm/Support/BinaryStream\lRef.h">
<polygon fill="none" stroke="black" points="2481.5,-571.5 2481.5,-601.5 2615.5,-601.5 2615.5,-571.5 2481.5,-571.5"/>
<text text-anchor="start" x="2489.5" y="-589.5" font-family="Helvetica,sans-Serif" font-size="10.00">llvm/Support/BinaryStream</text>
<text text-anchor="middle" x="2548.5" y="-578.5" font-family="Helvetica,sans-Serif" font-size="10.00">Ref.h</text>
</a>
</g>
</g>
<!-- Node0&#45;&gt;Node48 -->
<g id="edge200" class="edge">
<title>Node0&#45;&gt;Node48</title>
<path fill="none" stroke="midnightblue" d="M864.19,-779.36C1131.61,-748.9 2176.64,-629.86 2470.97,-596.33"/>
<polygon fill="midnightblue" stroke="midnightblue" points="2471.58,-599.78 2481.12,-595.18 2470.79,-592.83 2471.58,-599.78"/>
</g>
<!-- Node51 -->
<g id="node38" class="node">
<title>Node51</title>
<g id="a_node38"><a xlink:href="BinaryStreamError_8h.html" target="_top" xlink:title="llvm/Support/BinaryStream\lError.h">
<polygon fill="none" stroke="black" points="2023.5,-448.5 2023.5,-478.5 2157.5,-478.5 2157.5,-448.5 2023.5,-448.5"/>
<text text-anchor="start" x="2031.5" y="-466.5" font-family="Helvetica,sans-Serif" font-size="10.00">llvm/Support/BinaryStream</text>
<text text-anchor="middle" x="2090.5" y="-455.5" font-family="Helvetica,sans-Serif" font-size="10.00">Error.h</text>
</a>
</g>
</g>
<!-- Node0&#45;&gt;Node51 -->
<g id="edge186" class="edge">
<title>Node0&#45;&gt;Node51</title>
<path fill="none" stroke="midnightblue" d="M772.27,-772.48C742.94,-756.57 704.85,-729.6 725.5,-705 892.55,-505.94 1749.39,-471.58 2013.14,-465.7"/>
<polygon fill="midnightblue" stroke="midnightblue" points="2013.46,-469.19 2023.39,-465.48 2013.31,-462.2 2013.46,-469.19"/>
</g>
<!-- Node71 -->
<g id="node48" class="node">
<title>Node71</title>
<g id="a_node48"><a xlink:href="BinaryStreamReader_8h.html" target="_top" xlink:title="llvm/Support/BinaryStream\lReader.h">
<polygon fill="none" stroke="black" points="734.5,-705.5 734.5,-735.5 868.5,-735.5 868.5,-705.5 734.5,-705.5"/>
<text text-anchor="start" x="742.5" y="-723.5" font-family="Helvetica,sans-Serif" font-size="10.00">llvm/Support/BinaryStream</text>
<text text-anchor="middle" x="801.5" y="-712.5" font-family="Helvetica,sans-Serif" font-size="10.00">Reader.h</text>
</a>
</g>
</g>
<!-- Node0&#45;&gt;Node71 -->
<g id="edge187" class="edge">
<title>Node0&#45;&gt;Node71</title>
<path fill="none" stroke="midnightblue" d="M801.5,-772.4C801.5,-764.64 801.5,-754.81 801.5,-745.86"/>
<polygon fill="midnightblue" stroke="midnightblue" points="805,-745.58 801.5,-735.58 798,-745.58 805,-745.58"/>
</g>
<!-- Node73 -->
<g id="node50" class="node">
<title>Node73</title>
<g id="a_node50"><a xlink:href="LEB128_8h.html" target="_top" xlink:title="llvm/Support/LEB128.h">
<polygon fill="none" stroke="black" points="0,-644 0,-663 117,-663 117,-644 0,-644"/>
<text text-anchor="middle" x="58.5" y="-651" font-family="Helvetica,sans-Serif" font-size="10.00">llvm/Support/LEB128.h</text>
</a>
</g>
</g>
<!-- Node0&#45;&gt;Node73 -->
<g id="edge201" class="edge">
<title>Node0&#45;&gt;Node73</title>
<path fill="none" stroke="midnightblue" d="M738.98,-785.84C639.41,-783.61 439.24,-774.25 274.5,-736 203.99,-719.63 125.46,-685.79 85.32,-667.28"/>
<polygon fill="midnightblue" stroke="midnightblue" points="86.74,-664.08 76.2,-663.03 83.79,-670.43 86.74,-664.08"/>
</g>
<!-- Node2 -->
<g id="node3" class="node">
<title>Node2</title>
<g id="a_node3"><a xlink:href="ArrayRef_8h.html" target="_top" xlink:title="llvm/ADT/ArrayRef.h">
<polygon fill="none" stroke="black" points="2842.5,-224.5 2842.5,-243.5 2950.5,-243.5 2950.5,-224.5 2842.5,-224.5"/>
<text text-anchor="middle" x="2896.5" y="-231.5" font-family="Helvetica,sans-Serif" font-size="10.00">llvm/ADT/ArrayRef.h</text>
</a>
</g>
</g>
<!-- Node1&#45;&gt;Node2 -->
<g id="edge2" class="edge">
<title>Node1&#45;&gt;Node2</title>
<path fill="none" stroke="midnightblue" d="M2676.59,-718.06C2824.35,-714.28 3168.02,-702.02 3208.5,-669 3237.76,-645.13 3232.5,-625.26 3232.5,-587.5 3232.5,-587.5 3232.5,-587.5 3232.5,-345 3232.5,-305.08 3205.8,-298.64 3170.5,-280 3135.07,-261.29 3030.14,-247.91 2960.89,-240.82"/>
<polygon fill="midnightblue" stroke="midnightblue" points="2960.83,-237.29 2950.53,-239.78 2960.13,-244.26 2960.83,-237.29"/>
</g>
<!-- Node17 -->
<g id="node10" class="node">
<title>Node17</title>
<polygon fill="none" stroke="#bfbfbf" points="1178.5,-0.5 1178.5,-19.5 1240.5,-19.5 1240.5,-0.5 1178.5,-0.5"/>
<text text-anchor="middle" x="1209.5" y="-7.5" font-family="Helvetica,sans-Serif" font-size="10.00">type_traits</text>
</g>
<!-- Node1&#45;&gt;Node17 -->
<g id="edge184" class="edge">
<title>Node1&#45;&gt;Node17</title>
<path fill="none" stroke="midnightblue" d="M2542.33,-719.87C2204.42,-720.85 706.5,-714.56 706.5,-526 706.5,-526 706.5,-526 706.5,-401 706.5,-390.69 1392.68,-140.51 1398.5,-132 1439.93,-71.44 1318.11,-34.5 1250.82,-19.2"/>
<polygon fill="midnightblue" stroke="midnightblue" points="1251.44,-15.75 1240.92,-17.01 1249.93,-22.59 1251.44,-15.75"/>
</g>
<!-- Node20 -->
<g id="node12" class="node">
<title>Node20</title>
<polygon fill="none" stroke="#bfbfbf" points="3369.5,-0.5 3369.5,-19.5 3409.5,-19.5 3409.5,-0.5 3369.5,-0.5"/>
<text text-anchor="middle" x="3389.5" y="-7.5" font-family="Helvetica,sans-Serif" font-size="10.00">utility</text>
</g>
<!-- Node1&#45;&gt;Node20 -->
<g id="edge185" class="edge">
<title>Node1&#45;&gt;Node20</title>
<path fill="none" stroke="midnightblue" d="M2676.66,-718.17C3003.65,-711.26 4413.5,-676.34 4413.5,-587.5 4413.5,-587.5 4413.5,-587.5 4413.5,-121 4413.5,-18.38 3589.98,-11.35 3419.98,-10.99"/>
<polygon fill="midnightblue" stroke="midnightblue" points="3419.96,-7.49 3409.95,-10.98 3419.95,-14.49 3419.96,-7.49"/>
</g>
<!-- Node37 -->
<g id="node24" class="node">
<title>Node37</title>
<g id="a_node24"><a xlink:href="STLExtras_8h.html" target="_top" xlink:title="llvm/ADT/STLExtras.h">
<polygon fill="none" stroke="black" points="3076.5,-168.5 3076.5,-187.5 3192.5,-187.5 3192.5,-168.5 3076.5,-168.5"/>
<text text-anchor="middle" x="3134.5" y="-175.5" font-family="Helvetica,sans-Serif" font-size="10.00">llvm/ADT/STLExtras.h</text>
</a>
</g>
</g>
<!-- Node1&#45;&gt;Node37 -->
<g id="edge82" class="edge">
<title>Node1&#45;&gt;Node37</title>
<path fill="none" stroke="midnightblue" d="M2676.5,-719.41C2933.18,-718.18 3839.5,-705.49 3839.5,-587.5 3839.5,-587.5 3839.5,-587.5 3839.5,-289 3839.5,-225.01 3380.18,-192.65 3203.04,-182.55"/>
<polygon fill="midnightblue" stroke="midnightblue" points="3202.97,-179.05 3192.79,-181.98 3202.58,-186.03 3202.97,-179.05"/>
</g>
<!-- Node41 -->
<g id="node28" class="node">
<title>Node41</title>
<polygon fill="none" stroke="#bfbfbf" points="519.5,-112.5 519.5,-131.5 565.5,-131.5 565.5,-112.5 519.5,-112.5"/>
<text text-anchor="middle" x="542.5" y="-119.5" font-family="Helvetica,sans-Serif" font-size="10.00">cstdint</text>
</g>
<!-- Node1&#45;&gt;Node41 -->
<g id="edge183" class="edge">
<title>Node1&#45;&gt;Node41</title>
<path fill="none" stroke="midnightblue" d="M2542.33,-719.18C2199.68,-717.39 658.89,-707.25 565.5,-669 516.47,-648.92 478.5,-640.48 478.5,-587.5 478.5,-587.5 478.5,-587.5 478.5,-462.5 478.5,-337.87 520.66,-191.9 536.54,-141.33"/>
<polygon fill="midnightblue" stroke="midnightblue" points="539.96,-142.14 539.67,-131.54 533.29,-140.01 539.96,-142.14"/>
</g>
<!-- Node46 -->
<g id="node34" class="node">
<title>Node46</title>
<g id="a_node34"><a xlink:href="StringRef_8h.html" target="_top" xlink:title="llvm/ADT/StringRef.h">
<polygon fill="none" stroke="black" points="2205.5,-224.5 2205.5,-243.5 2315.5,-243.5 2315.5,-224.5 2205.5,-224.5"/>
<text text-anchor="middle" x="2260.5" y="-231.5" font-family="Helvetica,sans-Serif" font-size="10.00">llvm/ADT/StringRef.h</text>
</a>
</g>
</g>
<!-- Node1&#45;&gt;Node46 -->
<g id="edge83" class="edge">
<title>Node1&#45;&gt;Node46</title>
<path fill="none" stroke="midnightblue" d="M2676.74,-718.42C2818.5,-715.45 3137.76,-704.82 3170.5,-669 3179.8,-658.83 3178.02,-649.55 3170.5,-638 2975.17,-337.87 2499.7,-259.57 2325.69,-240.63"/>
<polygon fill="midnightblue" stroke="midnightblue" points="2325.97,-237.14 2315.65,-239.56 2325.23,-244.1 2325.97,-237.14"/>
</g>
<!-- Node47 -->
<g id="node35" class="node">
<title>Node47</title>
<g id="a_node35"><a xlink:href="BinaryStreamArray_8h.html" target="_top" xlink:title="llvm/Support/BinaryStream\lArray.h">
<polygon fill="none" stroke="black" points="2671.5,-638.5 2671.5,-668.5 2805.5,-668.5 2805.5,-638.5 2671.5,-638.5"/>
<text text-anchor="start" x="2679.5" y="-656.5" font-family="Helvetica,sans-Serif" font-size="10.00">llvm/Support/BinaryStream</text>
<text text-anchor="middle" x="2738.5" y="-645.5" font-family="Helvetica,sans-Serif" font-size="10.00">Array.h</text>
</a>
</g>
</g>
<!-- Node1&#45;&gt;Node47 -->
<g id="edge95" class="edge">
<title>Node1&#45;&gt;Node47</title>
<path fill="none" stroke="midnightblue" d="M2637.49,-705.4C2656.25,-695.94 2681.17,-683.39 2701.55,-673.12"/>
<polygon fill="midnightblue" stroke="midnightblue" points="2703.21,-676.2 2710.56,-668.58 2700.06,-669.95 2703.21,-676.2"/>
</g>
<!-- Node1&#45;&gt;Node48 -->
<g id="edge180" class="edge">
<title>Node1&#45;&gt;Node48</title>
<path fill="none" stroke="midnightblue" d="M2602.97,-705.37C2592.52,-682.75 2571.9,-638.14 2559.25,-610.76"/>
<polygon fill="midnightblue" stroke="midnightblue" points="2562.35,-609.13 2554.98,-601.52 2556,-612.07 2562.35,-609.13"/>
</g>
<!-- Node1&#45;&gt;Node51 -->
<g id="edge179" class="edge">
<title>Node1&#45;&gt;Node51</title>
<path fill="none" stroke="midnightblue" d="M2580.86,-705.43C2492.95,-662.24 2227.01,-531.57 2128.09,-482.97"/>
<polygon fill="midnightblue" stroke="midnightblue" points="2129.57,-479.8 2119.05,-478.53 2126.49,-486.08 2129.57,-479.8"/>
</g>
<!-- Node52 -->
<g id="node39" class="node">
<title>Node52</title>
<g id="a_node39"><a xlink:href="Support_2Error_8h.html" target="_top" xlink:title="llvm/Support/Error.h">
<polygon fill="none" stroke="red" points="2038.5,-392.5 2038.5,-411.5 2142.5,-411.5 2142.5,-392.5 2038.5,-392.5"/>
<text text-anchor="middle" x="2090.5" y="-399.5" font-family="Helvetica,sans-Serif" font-size="10.00">llvm/Support/Error.h</text>
</a>
</g>
</g>
<!-- Node1&#45;&gt;Node52 -->
<g id="edge182" class="edge">
<title>Node1&#45;&gt;Node52</title>
<path fill="none" stroke="midnightblue" d="M2615.74,-705.16C2625.55,-681.25 2643.5,-631.52 2643.5,-587.5 2643.5,-587.5 2643.5,-587.5 2643.5,-524 2643.5,-424.43 2297.02,-406.67 2152.57,-403.6"/>
<polygon fill="midnightblue" stroke="midnightblue" points="2152.59,-400.1 2142.52,-403.4 2152.45,-407.1 2152.59,-400.1"/>
</g>
<!-- Node64 -->
<g id="node46" class="node">
<title>Node64</title>
<g id="a_node46"><a xlink:href="Endian_8h.html" target="_top" xlink:title="llvm/Support/Endian.h">
<polygon fill="none" stroke="black" points="925,-168.5 925,-187.5 1038,-187.5 1038,-168.5 925,-168.5"/>
<text text-anchor="middle" x="981.5" y="-175.5" font-family="Helvetica,sans-Serif" font-size="10.00">llvm/Support/Endian.h</text>
</a>
</g>
</g>
<!-- Node1&#45;&gt;Node64 -->
<g id="edge181" class="edge">
<title>Node1&#45;&gt;Node64</title>
<path fill="none" stroke="midnightblue" d="M2542.17,-719.78C2261.16,-720.6 1180.88,-720.28 844.5,-669 712.15,-648.82 554.5,-721.38 554.5,-587.5 554.5,-587.5 554.5,-587.5 554.5,-462.5 554.5,-287.84 805.51,-214.35 922.63,-189.57"/>
<polygon fill="midnightblue" stroke="midnightblue" points="923.43,-192.98 932.52,-187.53 922.02,-186.12 923.43,-192.98"/>
</g>
<!-- Node3 -->
<g id="node4" class="node">
<title>Node3</title>
<g id="a_node4"><a xlink:href="Hashing_8h.html" target="_top" xlink:title="llvm/ADT/Hashing.h">
<polygon fill="none" stroke="red" points="2136,-168.5 2136,-187.5 2241,-187.5 2241,-168.5 2136,-168.5"/>
<text text-anchor="middle" x="2188.5" y="-175.5" font-family="Helvetica,sans-Serif" font-size="10.00">llvm/ADT/Hashing.h</text>
</a>
</g>
</g>
<!-- Node2&#45;&gt;Node3 -->
<g id="edge3" class="edge">
<title>Node2&#45;&gt;Node3</title>
<path fill="none" stroke="midnightblue" d="M2842.41,-228.87C2713.56,-219.05 2388.98,-194.29 2251.55,-183.81"/>
<polygon fill="midnightblue" stroke="midnightblue" points="2251.43,-180.29 2241.19,-183.02 2250.9,-187.27 2251.43,-180.29"/>
</g>
<!-- Node11 -->
<g id="node6" class="node">
<title>Node11</title>
<g id="a_node6"><a xlink:href="Compiler_8h.html" target="_top" xlink:title="llvm/Support/Compiler.h">
<polygon fill="none" stroke="red" points="2097.5,-0.5 2097.5,-19.5 2219.5,-19.5 2219.5,-0.5 2097.5,-0.5"/>
<text text-anchor="middle" x="2158.5" y="-7.5" font-family="Helvetica,sans-Serif" font-size="10.00">llvm/Support/Compiler.h</text>
</a>
</g>
</g>
<!-- Node2&#45;&gt;Node11 -->
<g id="edge72" class="edge">
<title>Node2&#45;&gt;Node11</title>
<path fill="none" stroke="midnightblue" d="M2891.69,-224.38C2883.78,-210.85 2866.86,-184.49 2846.5,-168 2801.7,-131.72 2783.84,-131.26 2729.5,-112 2556.28,-50.6 2339.75,-25.41 2229.76,-16.01"/>
<polygon fill="midnightblue" stroke="midnightblue" points="2230.03,-12.52 2219.78,-15.17 2229.45,-19.49 2230.03,-12.52"/>
</g>
<!-- Node16 -->
<g id="node9" class="node">
<title>Node16</title>
<polygon fill="none" stroke="#bfbfbf" points="1132,-56.5 1132,-75.5 1181,-75.5 1181,-56.5 1132,-56.5"/>
<text text-anchor="middle" x="1156.5" y="-63.5" font-family="Helvetica,sans-Serif" font-size="10.00">cstddef</text>
</g>
<!-- Node2&#45;&gt;Node16 -->
<g id="edge76" class="edge">
<title>Node2&#45;&gt;Node16</title>
<path fill="none" stroke="midnightblue" d="M2842.17,-231.86C2598.23,-226.67 1610.07,-204.79 1472.5,-188 1354.73,-173.62 1313.26,-192.99 1211.5,-132 1192.15,-120.4 1176.33,-99.54 1166.7,-84.58"/>
<polygon fill="midnightblue" stroke="midnightblue" points="1169.51,-82.45 1161.3,-75.75 1163.54,-86.11 1169.51,-82.45"/>
</g>
<!-- Node2&#45;&gt;Node17 -->
<g id="edge80" class="edge">
<title>Node2&#45;&gt;Node17</title>
<path fill="none" stroke="midnightblue" d="M2842.15,-232.2C2569.73,-228.13 1363.03,-208.94 1286.5,-188 1201.37,-164.7 1158.66,-156.52 1122.5,-76 1111.24,-50.92 1141.03,-33.32 1168.76,-22.82"/>
<polygon fill="midnightblue" stroke="midnightblue" points="1170.16,-26.04 1178.41,-19.4 1167.82,-19.44 1170.16,-26.04"/>
</g>
<!-- Node21 -->
<g id="node13" class="node">
<title>Node21</title>
<polygon fill="none" stroke="#bfbfbf" points="3955.5,-56.5 3955.5,-75.5 4011.5,-75.5 4011.5,-56.5 3955.5,-56.5"/>
<text text-anchor="middle" x="3983.5" y="-63.5" font-family="Helvetica,sans-Serif" font-size="10.00">algorithm</text>
</g>
<!-- Node2&#45;&gt;Node21 -->
<g id="edge73" class="edge">
<title>Node2&#45;&gt;Node21</title>
<path fill="none" stroke="midnightblue" d="M2950.64,-229.25C3176,-213.5 4028.79,-152.63 4047.5,-132 4064.29,-113.49 4036.05,-93.09 4011.92,-80.18"/>
<polygon fill="midnightblue" stroke="midnightblue" points="4013.48,-77.04 4002.98,-75.61 4010.29,-83.27 4013.48,-77.04"/>
</g>
<!-- Node22 -->
<g id="node14" class="node">
<title>Node22</title>
<polygon fill="none" stroke="#bfbfbf" points="1952,-56.5 1952,-75.5 2001,-75.5 2001,-56.5 1952,-56.5"/>
<text text-anchor="middle" x="1976.5" y="-63.5" font-family="Helvetica,sans-Serif" font-size="10.00">cassert</text>
</g>
<!-- Node2&#45;&gt;Node22 -->
<g id="edge75" class="edge">
<title>Node2&#45;&gt;Node22</title>
<path fill="none" stroke="midnightblue" d="M2887.69,-224.07C2874.04,-210.59 2846.52,-184.84 2819.5,-168 2785.72,-146.95 2773.77,-148.39 2737.5,-132 2718.29,-123.32 2714.93,-117.19 2694.5,-112 2562.91,-78.54 2136.97,-69.46 2011.55,-67.48"/>
<polygon fill="midnightblue" stroke="midnightblue" points="2011.42,-63.98 2001.37,-67.32 2011.31,-70.98 2011.42,-63.98"/>
</g>
<!-- Node24 -->
<g id="node16" class="node">
<title>Node24</title>
<g id="a_node16"><a xlink:href="None_8h.html" target="_top" xlink:title="llvm/ADT/None.h">
<polygon fill="none" stroke="black" points="3379.5,-56.5 3379.5,-75.5 3471.5,-75.5 3471.5,-56.5 3379.5,-56.5"/>
<text text-anchor="middle" x="3425.5" y="-63.5" font-family="Helvetica,sans-Serif" font-size="10.00">llvm/ADT/None.h</text>
</a>
</g>
</g>
<!-- Node2&#45;&gt;Node24 -->
<g id="edge20" class="edge">
<title>Node2&#45;&gt;Node24</title>
<path fill="none" stroke="midnightblue" d="M2950.74,-228.15C3094.77,-214.74 3478.3,-175.25 3514.5,-132 3533.48,-109.33 3497.12,-90.35 3465.32,-78.86"/>
<polygon fill="midnightblue" stroke="midnightblue" points="3466.25,-75.48 3455.66,-75.54 3463.98,-82.1 3466.25,-75.48"/>
</g>
<!-- Node25 -->
<g id="node17" class="node">
<title>Node25</title>
<g id="a_node17"><a xlink:href="SmallVector_8h.html" target="_top" xlink:title="llvm/ADT/SmallVector.h">
<polygon fill="none" stroke="red" points="2398.5,-168.5 2398.5,-187.5 2520.5,-187.5 2520.5,-168.5 2398.5,-168.5"/>
<text text-anchor="middle" x="2459.5" y="-175.5" font-family="Helvetica,sans-Serif" font-size="10.00">llvm/ADT/SmallVector.h</text>
</a>
</g>
</g>
<!-- Node2&#45;&gt;Node25 -->
<g id="edge21" class="edge">
<title>Node2&#45;&gt;Node25</title>
<path fill="none" stroke="midnightblue" d="M2842.32,-225.78C2837.64,-225.17 2832.99,-224.57 2828.5,-224 2725.01,-210.84 2605.09,-196.36 2530.75,-187.47"/>
<polygon fill="midnightblue" stroke="midnightblue" points="2530.92,-183.96 2520.57,-186.25 2530.09,-190.92 2530.92,-183.96"/>
</g>
<!-- Node27 -->
<g id="node19" class="node">
<title>Node27</title>
<polygon fill="none" stroke="#bfbfbf" points="4257,-0.5 4257,-19.5 4304,-19.5 4304,-0.5 4257,-0.5"/>
<text text-anchor="middle" x="4280.5" y="-7.5" font-family="Helvetica,sans-Serif" font-size="10.00">iterator</text>
</g>
<!-- Node2&#45;&gt;Node27 -->
<g id="edge78" class="edge">
<title>Node2&#45;&gt;Node27</title>
<path fill="none" stroke="midnightblue" d="M2950.61,-231.48C3185.71,-224.51 4111.85,-193.34 4225.5,-132 4253.6,-116.84 4257.63,-105.22 4270.5,-76 4276.91,-61.45 4279.3,-43.5 4280.15,-30.16"/>
<polygon fill="midnightblue" stroke="midnightblue" points="4283.67,-29.94 4280.57,-19.81 4276.67,-29.66 4283.67,-29.94"/>
</g>
<!-- Node34 -->
<g id="node22" class="node">
<title>Node34</title>
<polygon fill="none" stroke="#bfbfbf" points="2818,-112.5 2818,-131.5 2891,-131.5 2891,-112.5 2818,-112.5"/>
<text text-anchor="middle" x="2854.5" y="-119.5" font-family="Helvetica,sans-Serif" font-size="10.00">initializer_list</text>
</g>
<!-- Node2&#45;&gt;Node34 -->
<g id="edge77" class="edge">
<title>Node2&#45;&gt;Node34</title>
<path fill="none" stroke="midnightblue" d="M2913.36,-224.35C2934.25,-212.43 2965.5,-189.93 2951.5,-168 2940.27,-150.41 2920.2,-139.59 2901.22,-132.99"/>
<polygon fill="midnightblue" stroke="midnightblue" points="2902.04,-129.58 2891.45,-129.91 2899.93,-136.25 2902.04,-129.58"/>
</g>
<!-- Node35 -->
<g id="node23" class="node">
<title>Node35</title>
<polygon fill="none" stroke="#bfbfbf" points="3610.5,-56.5 3610.5,-75.5 3662.5,-75.5 3662.5,-56.5 3610.5,-56.5"/>
<text text-anchor="middle" x="3636.5" y="-63.5" font-family="Helvetica,sans-Serif" font-size="10.00">memory</text>
</g>
<!-- Node2&#45;&gt;Node35 -->
<g id="edge79" class="edge">
<title>Node2&#45;&gt;Node35</title>
<path fill="none" stroke="midnightblue" d="M2950.72,-230.11C3038.5,-224.91 3217.01,-212.21 3366.5,-188 3476.33,-170.22 3525.97,-204.35 3610.5,-132 3624.19,-120.29 3630.74,-100.35 3633.83,-85.63"/>
<polygon fill="midnightblue" stroke="midnightblue" points="3637.31,-86.08 3635.58,-75.62 3630.41,-84.87 3637.31,-86.08"/>
</g>
<!-- Node2&#45;&gt;Node37 -->
<g id="edge41" class="edge">
<title>Node2&#45;&gt;Node37</title>
<path fill="none" stroke="midnightblue" d="M2934.21,-224.44C2975.64,-215.04 3042.26,-199.93 3087.17,-189.74"/>
<polygon fill="midnightblue" stroke="midnightblue" points="3087.99,-193.14 3096.96,-187.52 3086.44,-186.32 3087.99,-193.14"/>
</g>
<!-- Node44 -->
<g id="node32" class="node">
<title>Node44</title>
<polygon fill="none" stroke="#bfbfbf" points="2904.5,-168.5 2904.5,-187.5 2942.5,-187.5 2942.5,-168.5 2904.5,-168.5"/>
<text text-anchor="middle" x="2923.5" y="-175.5" font-family="Helvetica,sans-Serif" font-size="10.00">array</text>
</g>
<!-- Node2&#45;&gt;Node44 -->
<g id="edge74" class="edge">
<title>Node2&#45;&gt;Node44</title>
<path fill="none" stroke="midnightblue" d="M2900.96,-224.08C2904.65,-216.69 2910.02,-205.95 2914.59,-196.81"/>
<polygon fill="midnightblue" stroke="midnightblue" points="2917.78,-198.26 2919.12,-187.75 2911.52,-195.13 2917.78,-198.26"/>
</g>
<!-- Node45 -->
<g id="node33" class="node">
<title>Node45</title>
<polygon fill="none" stroke="#bfbfbf" points="2766.5,-168.5 2766.5,-187.5 2810.5,-187.5 2810.5,-168.5 2766.5,-168.5"/>
<text text-anchor="middle" x="2788.5" y="-175.5" font-family="Helvetica,sans-Serif" font-size="10.00">vector</text>
</g>
<!-- Node2&#45;&gt;Node45 -->
<g id="edge81" class="edge">
<title>Node2&#45;&gt;Node45</title>
<path fill="none" stroke="midnightblue" d="M2879.15,-224.32C2861.83,-215.66 2834.98,-202.24 2815,-192.25"/>
<polygon fill="midnightblue" stroke="midnightblue" points="2816.32,-189 2805.81,-187.65 2813.19,-195.26 2816.32,-189"/>
</g>
<!-- Node10 -->
<g id="node5" class="node">
<title>Node10</title>
<g id="a_node5"><a xlink:href="Support_2ErrorHandling_8h.html" target="_top" xlink:title="llvm/Support/ErrorHandling.h">
<polygon fill="none" stroke="black" points="2023.5,-112.5 2023.5,-131.5 2165.5,-131.5 2165.5,-112.5 2023.5,-112.5"/>
<text text-anchor="middle" x="2094.5" y="-119.5" font-family="Helvetica,sans-Serif" font-size="10.00">llvm/Support/ErrorHandling.h</text>
</a>
</g>
</g>
<!-- Node3&#45;&gt;Node10 -->
<g id="edge4" class="edge">
<title>Node3&#45;&gt;Node10</title>
<path fill="none" stroke="midnightblue" d="M2173.4,-168.32C2158.6,-159.82 2135.81,-146.73 2118.52,-136.8"/>
<polygon fill="midnightblue" stroke="midnightblue" points="2119.98,-133.6 2109.57,-131.65 2116.49,-139.67 2119.98,-133.6"/>
</g>
<!-- Node14 -->
<g id="node7" class="node">
<title>Node14</title>
<polygon fill="none" stroke="#bfbfbf" points="611,-56.5 611,-75.5 652,-75.5 652,-56.5 611,-56.5"/>
<text text-anchor="middle" x="631.5" y="-63.5" font-family="Helvetica,sans-Serif" font-size="10.00">string</text>
</g>
<!-- Node3&#45;&gt;Node14 -->
<g id="edge18" class="edge">
<title>Node3&#45;&gt;Node14</title>
<path fill="none" stroke="midnightblue" d="M2135.88,-175.67C1991,-171.77 1574.09,-158.89 1228.5,-132 1010.97,-115.08 750.14,-82.39 662.17,-71.01"/>
<polygon fill="midnightblue" stroke="midnightblue" points="662.45,-67.52 652.08,-69.71 661.55,-74.46 662.45,-67.52"/>
</g>
<!-- Node15 -->
<g id="node8" class="node">
<title>Node15</title>
<g id="a_node8"><a xlink:href="SwapByteOrder_8h.html" target="_top" xlink:title="llvm/Support/SwapByteOrder.h">
<polygon fill="none" stroke="red" points="1237.5,-112.5 1237.5,-131.5 1389.5,-131.5 1389.5,-112.5 1237.5,-112.5"/>
<text text-anchor="middle" x="1313.5" y="-119.5" font-family="Helvetica,sans-Serif" font-size="10.00">llvm/Support/SwapByteOrder.h</text>
</a>
</g>
</g>
<!-- Node3&#45;&gt;Node15 -->
<g id="edge7" class="edge">
<title>Node3&#45;&gt;Node15</title>
<path fill="none" stroke="midnightblue" d="M2135.74,-173.74C1989.76,-164.73 1579.48,-139.41 1399.71,-128.32"/>
<polygon fill="midnightblue" stroke="midnightblue" points="1399.7,-124.81 1389.51,-127.69 1399.27,-131.8 1399.7,-124.81"/>
</g>
<!-- Node19 -->
<g id="node11" class="node">
<title>Node19</title>
<g id="a_node11"><a xlink:href="type__traits_8h.html" target="_top" xlink:title="llvm/Support/type_traits.h">
<polygon fill="none" stroke="black" points="2341.5,-56.5 2341.5,-75.5 2469.5,-75.5 2469.5,-56.5 2341.5,-56.5"/>
<text text-anchor="middle" x="2405.5" y="-63.5" font-family="Helvetica,sans-Serif" font-size="10.00">llvm/Support/type_traits.h</text>
</a>
</g>
</g>
<!-- Node3&#45;&gt;Node19 -->
<g id="edge11" class="edge">
<title>Node3&#45;&gt;Node19</title>
<path fill="none" stroke="midnightblue" d="M2205.53,-168.37C2243.32,-149.21 2334.41,-103.04 2379.43,-80.22"/>
<polygon fill="midnightblue" stroke="midnightblue" points="2381.21,-83.23 2388.55,-75.59 2378.05,-76.99 2381.21,-83.23"/>
</g>
<!-- Node3&#45;&gt;Node20 -->
<g id="edge19" class="edge">
<title>Node3&#45;&gt;Node20</title>
<path fill="none" stroke="midnightblue" d="M2241.11,-173.78C2333.23,-167.81 2529.67,-153.64 2694.5,-132 2695.56,-131.86 3226.57,-39.38 3359.57,-16.21"/>
<polygon fill="midnightblue" stroke="midnightblue" points="3360.23,-19.65 3369.48,-14.49 3359.03,-12.75 3360.23,-19.65"/>
</g>
<!-- Node3&#45;&gt;Node21 -->
<g id="edge15" class="edge">
<title>Node3&#45;&gt;Node21</title>
<path fill="none" stroke="midnightblue" d="M2241.4,-174.63C2281.93,-172.81 2339.25,-170.25 2389.5,-168 2748.17,-151.97 2842.04,-189.05 3196.5,-132 3228.87,-126.79 3235.18,-117.5 3267.5,-112 3399.76,-89.48 3816.51,-72.99 3945.24,-68.33"/>
<polygon fill="midnightblue" stroke="midnightblue" points="3945.53,-71.83 3955.4,-67.97 3945.28,-64.83 3945.53,-71.83"/>
</g>
<!-- Node3&#45;&gt;Node22 -->
<g id="edge16" class="edge">
<title>Node3&#45;&gt;Node22</title>
<path fill="none" stroke="midnightblue" d="M2189.34,-168.05C2190.13,-154.08 2189.43,-127.1 2174.5,-112 2152,-89.24 2061.8,-76.13 2011.26,-70.43"/>
<polygon fill="midnightblue" stroke="midnightblue" points="2011.44,-66.93 2001.12,-69.32 2010.68,-73.88 2011.44,-66.93"/>
</g>
<!-- Node23 -->
<g id="node15" class="node">
<title>Node23</title>
<polygon fill="none" stroke="#bfbfbf" points="1883.5,-112.5 1883.5,-131.5 1929.5,-131.5 1929.5,-112.5 1883.5,-112.5"/>
<text text-anchor="middle" x="1906.5" y="-119.5" font-family="Helvetica,sans-Serif" font-size="10.00">cstring</text>
</g>
<!-- Node3&#45;&gt;Node23 -->
<g id="edge17" class="edge">
<title>Node3&#45;&gt;Node23</title>
<path fill="none" stroke="midnightblue" d="M2143.82,-168.44C2087.12,-157.59 1990.64,-139.11 1939.92,-129.4"/>
<polygon fill="midnightblue" stroke="midnightblue" points="1940.3,-125.91 1929.82,-127.47 1938.99,-132.78 1940.3,-125.91"/>
</g>
<!-- Node10&#45;&gt;Node11 -->
<g id="edge5" class="edge">
<title>Node10&#45;&gt;Node11</title>
<path fill="none" stroke="midnightblue" d="M2099.52,-112.37C2110.04,-94.3 2134.54,-52.18 2148.43,-28.31"/>
<polygon fill="midnightblue" stroke="midnightblue" points="2151.5,-30 2153.5,-19.59 2145.45,-26.47 2151.5,-30"/>
</g>
<!-- Node10&#45;&gt;Node14 -->
<g id="edge6" class="edge">
<title>Node10&#45;&gt;Node14</title>
<path fill="none" stroke="midnightblue" d="M2023.46,-116.55C1996.82,-114.98 1966.28,-113.28 1938.5,-112 1428.99,-88.53 807.23,-71.6 662.58,-67.8"/>
<polygon fill="midnightblue" stroke="midnightblue" points="662.35,-64.3 652.26,-67.53 662.16,-71.29 662.35,-64.3"/>
</g>
<!-- Node15&#45;&gt;Node11 -->
<g id="edge8" class="edge">
<title>Node15&#45;&gt;Node11</title>
<path fill="none" stroke="midnightblue" d="M1328.32,-112.32C1354.15,-97.69 1409.55,-68.49 1460.5,-56 1577.74,-27.27 1933.84,-16.02 2087.11,-12.43"/>
<polygon fill="midnightblue" stroke="midnightblue" points="2087.43,-15.93 2097.34,-12.2 2087.27,-8.93 2087.43,-15.93"/>
</g>
<!-- Node15&#45;&gt;Node16 -->
<g id="edge9" class="edge">
<title>Node15&#45;&gt;Node16</title>
<path fill="none" stroke="midnightblue" d="M1288.62,-112.44C1262.13,-103.33 1220.04,-88.85 1190.5,-78.69"/>
<polygon fill="midnightblue" stroke="midnightblue" points="1191.6,-75.37 1181,-75.43 1189.32,-81.99 1191.6,-75.37"/>
</g>
<!-- Node15&#45;&gt;Node17 -->
<g id="edge10" class="edge">
<title>Node15&#45;&gt;Node17</title>
<path fill="none" stroke="midnightblue" d="M1305.34,-112.37C1287.95,-93.97 1247.01,-50.67 1224.68,-27.05"/>
<polygon fill="midnightblue" stroke="midnightblue" points="1227.04,-24.45 1217.62,-19.59 1221.95,-29.26 1227.04,-24.45"/>
</g>
<!-- Node19&#45;&gt;Node11 -->
<g id="edge12" class="edge">
<title>Node19&#45;&gt;Node11</title>
<path fill="none" stroke="midnightblue" d="M2366.36,-56.44C2323.27,-47.02 2253.94,-31.87 2207.33,-21.68"/>
<polygon fill="midnightblue" stroke="midnightblue" points="2207.97,-18.23 2197.45,-19.52 2206.48,-25.07 2207.97,-18.23"/>
</g>
<!-- Node19&#45;&gt;Node17 -->
<g id="edge13" class="edge">
<title>Node19&#45;&gt;Node17</title>
<path fill="none" stroke="midnightblue" d="M2341.28,-61.2C2312.06,-59.52 2277.04,-57.57 2245.5,-56 1859.09,-36.74 1391.37,-18.11 1251.15,-12.62"/>
<polygon fill="midnightblue" stroke="midnightblue" points="1251,-9.11 1240.87,-12.22 1250.72,-16.1 1251,-9.11"/>
</g>
<!-- Node19&#45;&gt;Node20 -->
<g id="edge14" class="edge">
<title>Node19&#45;&gt;Node20</title>
<path fill="none" stroke="midnightblue" d="M2469.56,-61.2C2497.22,-59.57 2529.95,-57.66 2559.5,-56 2871.87,-38.4 3250.45,-18.34 3359.06,-12.6"/>
<polygon fill="midnightblue" stroke="midnightblue" points="3359.47,-16.09 3369.28,-12.07 3359.11,-9.1 3359.47,-16.09"/>
</g>
<!-- Node25&#45;&gt;Node10 -->
<g id="edge30" class="edge">
<title>Node25&#45;&gt;Node10</title>
<path fill="none" stroke="midnightblue" d="M2401.66,-168.44C2336.66,-158.83 2231.22,-143.23 2162.37,-133.04"/>
<polygon fill="midnightblue" stroke="midnightblue" points="2162.47,-129.52 2152.06,-131.52 2161.44,-136.44 2162.47,-129.52"/>
</g>
<!-- Node25&#45;&gt;Node11 -->
<g id="edge28" class="edge">
<title>Node25&#45;&gt;Node11</title>
<path fill="none" stroke="midnightblue" d="M2467.17,-168.46C2474.28,-159.93 2484.35,-146.09 2488.5,-132 2494.84,-110.45 2481.65,-59.03 2478.5,-56 2443.99,-22.74 2312.98,-13.83 2229.67,-11.59"/>
<polygon fill="midnightblue" stroke="midnightblue" points="2229.59,-8.08 2219.51,-11.34 2229.42,-15.08 2229.59,-8.08"/>
</g>
<!-- Node25&#45;&gt;Node16 -->
<g id="edge33" class="edge">
<title>Node25&#45;&gt;Node16</title>
<path fill="none" stroke="midnightblue" d="M2430.28,-168.5C2379.01,-153.99 2269.3,-124.8 2174.5,-112 1978.47,-85.53 1348.08,-70.97 1191.8,-67.71"/>
<polygon fill="midnightblue" stroke="midnightblue" points="1191.45,-64.2 1181.38,-67.49 1191.31,-71.2 1191.45,-64.2"/>
</g>
<!-- Node25&#45;&gt;Node17 -->
<g id="edge39" class="edge">
<title>Node25&#45;&gt;Node17</title>
<path fill="none" stroke="midnightblue" d="M2449.73,-168.4C2432.97,-154.16 2397.07,-125.87 2361.5,-112 2213.91,-54.46 2167.01,-72.91 2009.5,-56 1720.17,-24.93 1369.51,-14.59 1250.95,-11.85"/>
<polygon fill="midnightblue" stroke="midnightblue" points="1250.93,-8.35 1240.85,-11.62 1250.77,-15.34 1250.93,-8.35"/>
</g>
<!-- Node25&#45;&gt;Node19 -->
<g id="edge29" class="edge">
<title>Node25&#45;&gt;Node19</title>
<path fill="none" stroke="midnightblue" d="M2464.83,-168.49C2472.17,-155.55 2483.44,-130.51 2473.5,-112 2465.88,-97.82 2451.6,-87.35 2438.09,-80.1"/>
<polygon fill="midnightblue" stroke="midnightblue" points="2439.47,-76.88 2428.95,-75.59 2436.37,-83.16 2439.47,-76.88"/>
</g>
<!-- Node25&#45;&gt;Node20 -->
<g id="edge40" class="edge">
<title>Node25&#45;&gt;Node20</title>
<path fill="none" stroke="midnightblue" d="M2472.37,-168.36C2507.73,-145.17 2610.1,-81.52 2705.5,-56 2831.49,-22.29 3243.13,-13.32 3358.94,-11.43"/>
<polygon fill="midnightblue" stroke="midnightblue" points="3359.26,-14.93 3369.2,-11.27 3359.15,-7.93 3359.26,-14.93"/>
</g>
<!-- Node25&#45;&gt;Node21 -->
<g id="edge31" class="edge">
<title>Node25&#45;&gt;Node21</title>
<path fill="none" stroke="midnightblue" d="M2520.67,-174.23C2702.84,-165.88 3231.45,-141.03 3267.5,-132 3287.95,-126.88 3290.08,-117.24 3310.5,-112 3432.01,-80.83 3821.54,-70.32 3945.34,-67.71"/>
<polygon fill="midnightblue" stroke="midnightblue" points="3945.55,-71.21 3955.48,-67.51 3945.41,-64.21 3945.55,-71.21"/>
</g>
<!-- Node25&#45;&gt;Node22 -->
<g id="edge32" class="edge">
<title>Node25&#45;&gt;Node22</title>
<path fill="none" stroke="midnightblue" d="M2445.19,-168.41C2420.75,-154.19 2369.03,-125.92 2321.5,-112 2211.36,-79.74 2074.66,-70.58 2011.5,-68"/>
<polygon fill="midnightblue" stroke="midnightblue" points="2011.42,-64.49 2001.3,-67.61 2011.16,-71.49 2011.42,-64.49"/>
</g>
<!-- Node25&#45;&gt;Node23 -->
<g id="edge35" class="edge">
<title>Node25&#45;&gt;Node23</title>
<path fill="none" stroke="midnightblue" d="M2398.47,-171.04C2281.73,-159.64 2030.35,-135.09 1939.83,-126.26"/>
<polygon fill="midnightblue" stroke="midnightblue" points="1939.91,-122.75 1929.61,-125.26 1939.23,-129.71 1939.91,-122.75"/>
</g>
<!-- Node26 -->
<g id="node18" class="node">
<title>Node26</title>
<g id="a_node18"><a xlink:href="iterator__range_8h.html" target="_top" xlink:title="This provides a very simple, boring adaptor for a begin and end iterator into a range type...">
<polygon fill="none" stroke="black" points="4029.5,-56.5 4029.5,-75.5 4157.5,-75.5 4157.5,-56.5 4029.5,-56.5"/>
<text text-anchor="middle" x="4093.5" y="-63.5" font-family="Helvetica,sans-Serif" font-size="10.00">llvm/ADT/iterator_range.h</text>
</a>
</g>
</g>
<!-- Node25&#45;&gt;Node26 -->
<g id="edge22" class="edge">
<title>Node25&#45;&gt;Node26</title>
<path fill="none" stroke="midnightblue" d="M2520.57,-175.13C2580.8,-173.29 2675.5,-170.41 2757.5,-168 2897.16,-163.89 3883.66,-181.03 4014.5,-132 4040.88,-122.11 4064.9,-99.52 4079.36,-83.77"/>
<polygon fill="midnightblue" stroke="midnightblue" points="4082.36,-85.65 4086.36,-75.84 4077.11,-81.02 4082.36,-85.65"/>
</g>
<!-- Node25&#45;&gt;Node27 -->
<g id="edge37" class="edge">
<title>Node25&#45;&gt;Node27</title>
<path fill="none" stroke="midnightblue" d="M2520.57,-175.12C2580.8,-173.27 2675.5,-170.39 2757.5,-168 2900.5,-163.84 3905.18,-164.49 4044.5,-132 4131.26,-111.76 4221.69,-53 4260.68,-25.5"/>
<polygon fill="midnightblue" stroke="midnightblue" points="4262.93,-28.19 4269.03,-19.53 4258.86,-22.5 4262.93,-28.19"/>
</g>
<!-- Node28 -->
<g id="node20" class="node">
<title>Node28</title>
<g id="a_node20"><a xlink:href="AlignOf_8h.html" target="_top" xlink:title="llvm/Support/AlignOf.h">
<polygon fill="none" stroke="black" points="1522,-112.5 1522,-131.5 1637,-131.5 1637,-112.5 1522,-112.5"/>
<text text-anchor="middle" x="1579.5" y="-119.5" font-family="Helvetica,sans-Serif" font-size="10.00">llvm/Support/AlignOf.h</text>
</a>
</g>
</g>
<!-- Node25&#45;&gt;Node28 -->
<g id="edge25" class="edge">
<title>Node25&#45;&gt;Node28</title>
<path fill="none" stroke="midnightblue" d="M2398.32,-173.25C2239.21,-163.48 1813.33,-137.35 1647.2,-127.15"/>
<polygon fill="midnightblue" stroke="midnightblue" points="1647.3,-123.65 1637.11,-126.53 1646.87,-130.64 1647.3,-123.65"/>
</g>
<!-- Node33 -->
<g id="node21" class="node">
<title>Node33</title>
<polygon fill="none" stroke="#bfbfbf" points="2640,-112.5 2640,-131.5 2685,-131.5 2685,-112.5 2640,-112.5"/>
<text text-anchor="middle" x="2662.5" y="-119.5" font-family="Helvetica,sans-Serif" font-size="10.00">cstdlib</text>
</g>
<!-- Node25&#45;&gt;Node33 -->
<g id="edge34" class="edge">
<title>Node25&#45;&gt;Node33</title>
<path fill="none" stroke="midnightblue" d="M2491.67,-168.44C2529.48,-158.39 2591.88,-141.79 2629.88,-131.68"/>
<polygon fill="midnightblue" stroke="midnightblue" points="2631.15,-134.96 2639.91,-129.01 2629.35,-128.2 2631.15,-134.96"/>
</g>
<!-- Node25&#45;&gt;Node34 -->
<g id="edge36" class="edge">
<title>Node25&#45;&gt;Node34</title>
<path fill="none" stroke="midnightblue" d="M2520.51,-169.85C2589.37,-161.59 2704.67,-147.18 2803.5,-132 2804.94,-131.78 2806.41,-131.55 2807.89,-131.31"/>
<polygon fill="midnightblue" stroke="midnightblue" points="2808.46,-134.77 2817.76,-129.68 2807.33,-127.86 2808.46,-134.77"/>
</g>
<!-- Node25&#45;&gt;Node35 -->
<g id="edge38" class="edge">
<title>Node25&#45;&gt;Node35</title>
<path fill="none" stroke="midnightblue" d="M2520.69,-174.69C2673.11,-168.72 3066.77,-151.81 3196.5,-132 3233.16,-126.4 3241.04,-118.76 3277.5,-112 3394.51,-90.3 3534.95,-76.07 3600.06,-70.14"/>
<polygon fill="midnightblue" stroke="midnightblue" points="3600.57,-73.61 3610.21,-69.23 3599.94,-66.64 3600.57,-73.61"/>
</g>
<!-- Node26&#45;&gt;Node20 -->
<g id="edge24" class="edge">
<title>Node26&#45;&gt;Node20</title>
<path fill="none" stroke="midnightblue" d="M4029.43,-56.91C4026.41,-56.59 4023.42,-56.28 4020.5,-56 3789.93,-33.58 3510.95,-17.56 3419.85,-12.61"/>
<polygon fill="midnightblue" stroke="midnightblue" points="3419.87,-9.1 3409.69,-12.06 3419.49,-16.09 3419.87,-9.1"/>
</g>
<!-- Node26&#45;&gt;Node27 -->
<g id="edge23" class="edge">
<title>Node26&#45;&gt;Node27</title>
<path fill="none" stroke="midnightblue" d="M4123.13,-56.44C4156.87,-46.7 4211.88,-30.82 4247.11,-20.64"/>
<polygon fill="midnightblue" stroke="midnightblue" points="4248.29,-23.94 4256.93,-17.81 4246.35,-17.22 4248.29,-23.94"/>
</g>
<!-- Node28&#45;&gt;Node11 -->
<g id="edge26" class="edge">
<title>Node28&#45;&gt;Node11</title>
<path fill="none" stroke="midnightblue" d="M1585.9,-112.36C1597.25,-97.78 1622.48,-68.66 1651.5,-56 1727.74,-22.73 1966.04,-14.06 2086.81,-11.8"/>
<polygon fill="midnightblue" stroke="midnightblue" points="2087.13,-15.29 2097.06,-11.62 2087,-8.29 2087.13,-15.29"/>
</g>
<!-- Node28&#45;&gt;Node16 -->
<g id="edge27" class="edge">
<title>Node28&#45;&gt;Node16</title>
<path fill="none" stroke="midnightblue" d="M1521.57,-113.6C1432.29,-102.21 1263.78,-80.7 1191.2,-71.43"/>
<polygon fill="midnightblue" stroke="midnightblue" points="1191.57,-67.95 1181.21,-70.15 1190.69,-74.89 1191.57,-67.95"/>
</g>
<!-- Node37&#45;&gt;Node10 -->
<g id="edge58" class="edge">
<title>Node37&#45;&gt;Node10</title>
<path fill="none" stroke="midnightblue" d="M3076.36,-173.98C2901.24,-164.89 2378.44,-137.74 2175.91,-127.23"/>
<polygon fill="midnightblue" stroke="midnightblue" points="2175.81,-123.72 2165.64,-126.69 2175.45,-130.71 2175.81,-123.72"/>
</g>
<!-- Node37&#45;&gt;Node16 -->
<g id="edge61" class="edge">
<title>Node37&#45;&gt;Node16</title>
<path fill="none" stroke="midnightblue" d="M3099.25,-168.44C3069.76,-160.69 3026.95,-148.04 2991.5,-132 2975.87,-124.93 2974.96,-116.82 2958.5,-112 2870.55,-86.24 1434.54,-69.94 1191.35,-67.36"/>
<polygon fill="midnightblue" stroke="midnightblue" points="1191.34,-63.86 1181.31,-67.25 1191.27,-70.86 1191.34,-63.86"/>
</g>
<!-- Node37&#45;&gt;Node17 -->
<g id="edge70" class="edge">
<title>Node37&#45;&gt;Node17</title>
<path fill="none" stroke="midnightblue" d="M3124.07,-168.41C3105.81,-153.9 3066.28,-124.89 3027.5,-112 2869.04,-59.32 2819.57,-93.48 2653.5,-76 2575.65,-67.8 2556.57,-61.84 2478.5,-56 1997.12,-20.01 1410.81,-12.67 1251.26,-11.29"/>
<polygon fill="midnightblue" stroke="midnightblue" points="1250.97,-7.79 1240.94,-11.21 1250.92,-14.79 1250.97,-7.79"/>
</g>
<!-- Node37&#45;&gt;Node20 -->
<g id="edge71" class="edge">
<title>Node37&#45;&gt;Node20</title>
<path fill="none" stroke="midnightblue" d="M3192.67,-174.29C3293.85,-168.99 3493.51,-155.62 3514.5,-132 3552.32,-89.44 3466.66,-43.95 3418.87,-22.92"/>
<polygon fill="midnightblue" stroke="midnightblue" points="3420.15,-19.66 3409.58,-18.93 3417.39,-26.09 3420.15,-19.66"/>
</g>
<!-- Node37&#45;&gt;Node21 -->
<g id="edge59" class="edge">
<title>Node37&#45;&gt;Node21</title>
<path fill="none" stroke="midnightblue" d="M3192.64,-173.63C3282.59,-167.94 3460.73,-154.77 3610.5,-132 3653.16,-125.51 3663.08,-119.89 3705.5,-112 3790.89,-96.11 3891.65,-80.6 3945.32,-72.6"/>
<polygon fill="midnightblue" stroke="midnightblue" points="3946.03,-76.03 3955.41,-71.1 3945,-69.11 3946.03,-76.03"/>
</g>
<!-- Node37&#45;&gt;Node22 -->
<g id="edge60" class="edge">
<title>Node37&#45;&gt;Node22</title>
<path fill="none" stroke="midnightblue" d="M3116.76,-168.48C3081.41,-151.56 3004.49,-115.12 2991.5,-112 2894.68,-88.77 2179.05,-71.51 2011.52,-67.76"/>
<polygon fill="midnightblue" stroke="midnightblue" points="2011.36,-64.26 2001.29,-67.53 2011.21,-71.26 2011.36,-64.26"/>
</g>
<!-- Node37&#45;&gt;Node26 -->
<g id="edge56" class="edge">
<title>Node37&#45;&gt;Node26</title>
<path fill="none" stroke="midnightblue" d="M3192.84,-175.25C3397.18,-168.98 4069.06,-147.24 4085.5,-132 4097.86,-120.54 4098.59,-100.56 4097.01,-85.77"/>
<polygon fill="midnightblue" stroke="midnightblue" points="4100.45,-85.07 4095.51,-75.7 4093.52,-86.1 4100.45,-85.07"/>
</g>
<!-- Node37&#45;&gt;Node27 -->
<g id="edge66" class="edge">
<title>Node37&#45;&gt;Node27</title>
<path fill="none" stroke="midnightblue" d="M3192.78,-175.99C3409.04,-172.07 4155.38,-156.77 4199.5,-132 4239.78,-109.39 4263.83,-57.4 4274.29,-29.5"/>
<polygon fill="midnightblue" stroke="midnightblue" points="4277.69,-30.38 4277.75,-19.79 4271.1,-28.03 4277.69,-30.38"/>
</g>
<!-- Node37&#45;&gt;Node33 -->
<g id="edge63" class="edge">
<title>Node37&#45;&gt;Node33</title>
<path fill="none" stroke="midnightblue" d="M3076.15,-170.32C2976.03,-158.87 2774.67,-135.83 2695.53,-126.78"/>
<polygon fill="midnightblue" stroke="midnightblue" points="2695.52,-123.26 2685.19,-125.6 2694.73,-130.21 2695.52,-123.26"/>
</g>
<!-- Node37&#45;&gt;Node34 -->
<g id="edge65" class="edge">
<title>Node37&#45;&gt;Node34</title>
<path fill="none" stroke="midnightblue" d="M3090.07,-168.5C3045.11,-159.89 2973.31,-146.11 2901.31,-132.15"/>
<polygon fill="midnightblue" stroke="midnightblue" points="2901.64,-128.65 2891.16,-130.18 2900.31,-135.52 2901.64,-128.65"/>
</g>
<!-- Node37&#45;&gt;Node35 -->
<g id="edge68" class="edge">
<title>Node37&#45;&gt;Node35</title>
<path fill="none" stroke="midnightblue" d="M3192.56,-176.79C3298.71,-175.5 3519.3,-168.38 3585.5,-132 3604.89,-121.35 3619.42,-99.94 3627.92,-84.6"/>
<polygon fill="midnightblue" stroke="midnightblue" points="3631.11,-86.06 3632.62,-75.57 3624.9,-82.83 3631.11,-86.06"/>
</g>
<!-- Node38 -->
<g id="node25" class="node">
<title>Node38</title>
<g id="a_node25"><a xlink:href="Optional_8h.html" target="_top" xlink:title="llvm/ADT/Optional.h">
<polygon fill="none" stroke="red" points="3082,-112.5 3082,-131.5 3187,-131.5 3187,-112.5 3082,-112.5"/>
<text text-anchor="middle" x="3134.5" y="-119.5" font-family="Helvetica,sans-Serif" font-size="10.00">llvm/ADT/Optional.h</text>
</a>
</g>
</g>
<!-- Node37&#45;&gt;Node38 -->
<g id="edge42" class="edge">
<title>Node37&#45;&gt;Node38</title>
<path fill="none" stroke="midnightblue" d="M3134.5,-168.08C3134.5,-161.01 3134.5,-150.86 3134.5,-141.99"/>
<polygon fill="midnightblue" stroke="midnightblue" points="3138,-141.75 3134.5,-131.75 3131,-141.75 3138,-141.75"/>
</g>
<!-- Node39 -->
<g id="node26" class="node">
<title>Node39</title>
<g id="a_node26"><a xlink:href="iterator_8h.html" target="_top" xlink:title="llvm/ADT/iterator.h">
<polygon fill="none" stroke="black" points="3906,-112.5 3906,-131.5 4005,-131.5 4005,-112.5 3906,-112.5"/>
<text text-anchor="middle" x="3955.5" y="-119.5" font-family="Helvetica,sans-Serif" font-size="10.00">llvm/ADT/iterator.h</text>
</a>
</g>
</g>
<!-- Node37&#45;&gt;Node39 -->
<g id="edge49" class="edge">
<title>Node37&#45;&gt;Node39</title>
<path fill="none" stroke="midnightblue" d="M3192.56,-173.18C3342.87,-163.29 3743.59,-136.94 3895.75,-126.93"/>
<polygon fill="midnightblue" stroke="midnightblue" points="3896.09,-130.42 3905.84,-126.27 3895.63,-123.43 3896.09,-130.42"/>
</g>
<!-- Node40 -->
<g id="node27" class="node">
<title>Node40</title>
<polygon fill="none" stroke="#bfbfbf" points="3319.5,-112.5 3319.5,-131.5 3449.5,-131.5 3449.5,-112.5 3319.5,-112.5"/>
<text text-anchor="middle" x="3384.5" y="-119.5" font-family="Helvetica,sans-Serif" font-size="10.00">llvm/Config/abi&#45;breaking.h</text>
</g>
<!-- Node37&#45;&gt;Node40 -->
<g id="edge57" class="edge">
<title>Node37&#45;&gt;Node40</title>
<path fill="none" stroke="midnightblue" d="M3174.11,-168.44C3217.73,-159.02 3287.9,-143.87 3335.08,-133.68"/>
<polygon fill="midnightblue" stroke="midnightblue" points="3336.04,-137.05 3345.07,-131.52 3334.56,-130.21 3336.04,-137.05"/>
</g>
<!-- Node37&#45;&gt;Node41 -->
<g id="edge62" class="edge">
<title>Node37&#45;&gt;Node41</title>
<path fill="none" stroke="midnightblue" d="M3076.42,-173.66C3040.45,-171.71 2993.31,-169.37 2951.5,-168 1979.89,-136.12 1736.24,-159.69 764.5,-132 697.5,-130.09 619.17,-126.63 575.76,-124.6"/>
<polygon fill="midnightblue" stroke="midnightblue" points="575.66,-121.09 565.5,-124.12 575.33,-128.08 575.66,-121.09"/>
</g>
<!-- Node42 -->
<g id="node29" class="node">
<title>Node42</title>
<polygon fill="none" stroke="#bfbfbf" points="3714,-112.5 3714,-131.5 3773,-131.5 3773,-112.5 3714,-112.5"/>
<text text-anchor="middle" x="3743.5" y="-119.5" font-family="Helvetica,sans-Serif" font-size="10.00">functional</text>
</g>
<!-- Node37&#45;&gt;Node42 -->
<g id="edge64" class="edge">
<title>Node37&#45;&gt;Node42</title>
<path fill="none" stroke="midnightblue" d="M3192.51,-174.72C3295.15,-170.17 3515.36,-158.07 3699.5,-132 3700.95,-131.8 3702.42,-131.57 3703.9,-131.33"/>
<polygon fill="midnightblue" stroke="midnightblue" points="3704.52,-134.78 3713.76,-129.6 3703.31,-127.89 3704.52,-134.78"/>
</g>
<!-- Node31 -->
<g id="node30" class="node">
<title>Node31</title>
<polygon fill="none" stroke="#bfbfbf" points="2909.5,-112.5 2909.5,-131.5 2949.5,-131.5 2949.5,-112.5 2909.5,-112.5"/>
<text text-anchor="middle" x="2929.5" y="-119.5" font-family="Helvetica,sans-Serif" font-size="10.00">limits</text>
</g>
<!-- Node37&#45;&gt;Node31 -->
<g id="edge67" class="edge">
<title>Node37&#45;&gt;Node31</title>
<path fill="none" stroke="midnightblue" d="M3102.03,-168.47C3067.63,-159.43 3011.73,-144.73 2963.5,-132 2962.24,-131.67 2960.95,-131.33 2959.65,-130.98"/>
<polygon fill="midnightblue" stroke="midnightblue" points="2960.2,-127.51 2949.63,-128.33 2958.41,-134.28 2960.2,-127.51"/>
</g>
<!-- Node43 -->
<g id="node31" class="node">
<title>Node43</title>
<polygon fill="none" stroke="#bfbfbf" points="3467.5,-112.5 3467.5,-131.5 3505.5,-131.5 3505.5,-112.5 3467.5,-112.5"/>
<text text-anchor="middle" x="3486.5" y="-119.5" font-family="Helvetica,sans-Serif" font-size="10.00">tuple</text>
</g>
<!-- Node37&#45;&gt;Node43 -->
<g id="edge69" class="edge">
<title>Node37&#45;&gt;Node43</title>
<path fill="none" stroke="midnightblue" d="M3192.7,-171.98C3255.87,-165.84 3359.77,-153.77 3457.59,-131.86"/>
<polygon fill="midnightblue" stroke="midnightblue" points="3458.37,-135.27 3467.34,-129.64 3456.81,-128.45 3458.37,-135.27"/>
</g>
<!-- Node38&#45;&gt;Node11 -->
<g id="edge44" class="edge">
<title>Node38&#45;&gt;Node11</title>
<path fill="none" stroke="midnightblue" d="M3081.66,-113C2993.78,-99.87 2811.97,-73.48 2657.5,-56 2505.36,-38.78 2326.53,-23.97 2229.63,-16.39"/>
<polygon fill="midnightblue" stroke="midnightblue" points="2229.9,-12.9 2219.66,-15.61 2229.36,-19.88 2229.9,-12.9"/>
</g>
<!-- Node38&#45;&gt;Node19 -->
<g id="edge45" class="edge">
<title>Node38&#45;&gt;Node19</title>
<path fill="none" stroke="midnightblue" d="M3081.9,-116.35C3065.16,-114.91 3046.55,-113.35 3029.5,-112 2831.11,-96.35 2597.07,-80.05 2480.02,-72.05"/>
<polygon fill="midnightblue" stroke="midnightblue" points="2479.96,-68.54 2469.75,-71.35 2479.49,-75.52 2479.96,-68.54"/>
</g>
<!-- Node38&#45;&gt;Node20 -->
<g id="edge48" class="edge">
<title>Node38&#45;&gt;Node20</title>
<path fill="none" stroke="midnightblue" d="M3154.51,-112.37C3199.29,-93.05 3307.76,-46.26 3360.18,-23.65"/>
<polygon fill="midnightblue" stroke="midnightblue" points="3361.79,-26.77 3369.58,-19.59 3359.02,-20.34 3361.79,-26.77"/>
</g>
<!-- Node38&#45;&gt;Node22 -->
<g id="edge46" class="edge">
<title>Node38&#45;&gt;Node22</title>
<path fill="none" stroke="midnightblue" d="M3081.92,-116.05C3065.18,-114.59 3046.57,-113.1 3029.5,-112 2629.88,-86.35 2143.97,-71.67 2011.35,-67.95"/>
<polygon fill="midnightblue" stroke="midnightblue" points="2011.1,-64.44 2001.01,-67.66 2010.91,-71.44 2011.1,-64.44"/>
</g>
<!-- Node38&#45;&gt;Node24 -->
<g id="edge43" class="edge">
<title>Node38&#45;&gt;Node24</title>
<path fill="none" stroke="midnightblue" d="M3180.61,-112.44C3231.91,-102.92 3314.77,-87.55 3369.69,-77.36"/>
<polygon fill="midnightblue" stroke="midnightblue" points="3370.41,-80.78 3379.61,-75.52 3369.14,-73.9 3370.41,-80.78"/>
</g>
<!-- Node38&#45;&gt;Node35 -->
<g id="edge47" class="edge">
<title>Node38&#45;&gt;Node35</title>
<path fill="none" stroke="midnightblue" d="M3187.15,-113.77C3192,-113.15 3196.84,-112.55 3201.5,-112 3349.17,-94.45 3525.52,-77.41 3600.22,-70.38"/>
<polygon fill="midnightblue" stroke="midnightblue" points="3600.85,-73.83 3610.48,-69.41 3600.2,-66.86 3600.85,-73.83"/>
</g>
<!-- Node39&#45;&gt;Node16 -->
<g id="edge52" class="edge">
<title>Node39&#45;&gt;Node16</title>
<path fill="none" stroke="midnightblue" d="M3905.93,-117.96C3871.35,-115.96 3824.13,-113.44 3782.5,-112 3244,-93.38 1461.6,-70.79 1191.05,-67.43"/>
<polygon fill="midnightblue" stroke="midnightblue" points="1191.06,-63.93 1181.02,-67.3 1190.98,-70.93 1191.06,-63.93"/>
</g>
<!-- Node39&#45;&gt;Node17 -->
<g id="edge54" class="edge">
<title>Node39&#45;&gt;Node17</title>
<path fill="none" stroke="midnightblue" d="M3927.22,-112.47C3876.55,-97.66 3766.64,-67.63 3671.5,-56 3546.48,-40.72 1564.56,-15.43 1251.11,-11.52"/>
<polygon fill="midnightblue" stroke="midnightblue" points="1250.71,-8.01 1240.67,-11.39 1250.62,-15.01 1250.71,-8.01"/>
</g>
<!-- Node39&#45;&gt;Node20 -->
<g id="edge55" class="edge">
<title>Node39&#45;&gt;Node20</title>
<path fill="none" stroke="midnightblue" d="M3945.63,-112.4C3928.34,-97.89 3890.82,-68.87 3853.5,-56 3772.71,-28.15 3509.5,-15.63 3419.78,-12.09"/>
<polygon fill="midnightblue" stroke="midnightblue" points="3419.85,-8.59 3409.72,-11.71 3419.58,-15.59 3419.85,-8.59"/>
</g>
<!-- Node39&#45;&gt;Node21 -->
<g id="edge51" class="edge">
<title>Node39&#45;&gt;Node21</title>
<path fill="none" stroke="midnightblue" d="M3960.12,-112.08C3963.96,-104.69 3969.52,-93.95 3974.26,-84.81"/>
<polygon fill="midnightblue" stroke="midnightblue" points="3977.47,-86.24 3978.96,-75.75 3971.25,-83.02 3977.47,-86.24"/>
</g>
<!-- Node39&#45;&gt;Node26 -->
<g id="edge50" class="edge">
<title>Node39&#45;&gt;Node26</title>
<path fill="none" stroke="midnightblue" d="M3977.37,-112.44C4000.28,-103.48 4036.48,-89.31 4062.37,-79.18"/>
<polygon fill="midnightblue" stroke="midnightblue" points="4063.7,-82.42 4071.74,-75.52 4061.15,-75.9 4063.7,-82.42"/>
</g>
<!-- Node39&#45;&gt;Node27 -->
<g id="edge53" class="edge">
<title>Node39&#45;&gt;Node27</title>
<path fill="none" stroke="midnightblue" d="M3950.49,-112.21C3943.39,-98.46 3932.7,-71.78 3946.5,-56 3985.3,-11.62 4169.99,-9.22 4246.83,-10.22"/>
<polygon fill="midnightblue" stroke="midnightblue" points="4246.88,-13.72 4256.93,-10.37 4246.99,-6.72 4246.88,-13.72"/>
</g>
<!-- Node46&#45;&gt;Node11 -->
<g id="edge86" class="edge">
<title>Node46&#45;&gt;Node11</title>
<path fill="none" stroke="midnightblue" d="M2260.02,-224.34C2259.09,-211.64 2256.5,-187.38 2249.5,-168 2229.7,-113.16 2190.97,-55.55 2171.02,-27.85"/>
<polygon fill="midnightblue" stroke="midnightblue" points="2173.76,-25.66 2165.04,-19.64 2168.1,-29.78 2173.76,-25.66"/>
</g>
<!-- Node46&#45;&gt;Node14 -->
<g id="edge92" class="edge">
<title>Node46&#45;&gt;Node14</title>
<path fill="none" stroke="midnightblue" d="M2205.43,-232.38C1964.95,-229.49 1013.13,-216.35 882.5,-188 859.91,-183.1 856.08,-176.26 834.5,-168 789.21,-150.67 775.03,-153.37 731.5,-132 701.84,-117.44 670.31,-95.78 650.75,-81.52"/>
<polygon fill="midnightblue" stroke="midnightblue" points="652.79,-78.68 642.66,-75.55 648.63,-84.31 652.79,-78.68"/>
</g>
<!-- Node46&#45;&gt;Node16 -->
<g id="edge89" class="edge">
<title>Node46&#45;&gt;Node16</title>
<path fill="none" stroke="midnightblue" d="M2205.27,-233.21C2025.43,-233.47 1457.98,-230.79 1280.5,-188 1222.11,-173.92 1190.39,-182.26 1157.5,-132 1148.62,-118.44 1149.39,-99.64 1151.78,-85.74"/>
<polygon fill="midnightblue" stroke="midnightblue" points="1155.23,-86.35 1153.88,-75.85 1148.38,-84.9 1155.23,-86.35"/>
</g>
<!-- Node46&#45;&gt;Node17 -->
<g id="edge93" class="edge">
<title>Node46&#45;&gt;Node17</title>
<path fill="none" stroke="midnightblue" d="M2205.13,-232.45C1967.72,-229.93 1042.12,-218.24 915.5,-188 895,-183.1 892.08,-175.79 872.5,-168 825.49,-149.3 794.08,-173.05 764.5,-132 715.2,-63.59 1048.31,-25.84 1167.9,-14.61"/>
<polygon fill="midnightblue" stroke="midnightblue" points="1168.49,-18.07 1178.13,-13.66 1167.85,-11.1 1168.49,-18.07"/>
</g>
<!-- Node46&#45;&gt;Node20 -->
<g id="edge94" class="edge">
<title>Node46&#45;&gt;Node20</title>
<path fill="none" stroke="midnightblue" d="M2315.69,-231.33C2371.61,-227.93 2459.59,-217.81 2529.5,-188 2581.5,-165.83 2579.13,-133.31 2631.5,-112 2767.58,-56.63 3234.91,-21.51 3359.03,-13.01"/>
<polygon fill="midnightblue" stroke="midnightblue" points="3359.57,-16.48 3369.31,-12.31 3359.1,-9.5 3359.57,-16.48"/>
</g>
<!-- Node46&#45;&gt;Node21 -->
<g id="edge87" class="edge">
<title>Node46&#45;&gt;Node21</title>
<path fill="none" stroke="midnightblue" d="M2315.67,-230.77C2460.79,-224.8 2865.15,-207.62 3201.5,-188 3207.15,-187.67 4010.64,-136.14 4014.5,-132 4027.74,-117.81 4013.52,-96.93 4000.28,-82.69"/>
<polygon fill="midnightblue" stroke="midnightblue" points="4002.73,-80.18 3993.2,-75.54 3997.75,-85.11 4002.73,-80.18"/>
</g>
<!-- Node46&#45;&gt;Node22 -->
<g id="edge88" class="edge">
<title>Node46&#45;&gt;Node22</title>
<path fill="none" stroke="midnightblue" d="M2214.31,-224.41C2160.41,-212.27 2071.44,-185.34 2014.5,-132 2000.37,-118.77 1989.88,-99.1 1983.54,-84.87"/>
<polygon fill="midnightblue" stroke="midnightblue" points="1986.76,-83.5 1979.66,-75.63 1980.3,-86.21 1986.76,-83.5"/>
</g>
<!-- Node46&#45;&gt;Node23 -->
<g id="edge90" class="edge">
<title>Node46&#45;&gt;Node23</title>
<path fill="none" stroke="midnightblue" d="M2205.2,-226.64C2158.08,-220.16 2089.05,-208.15 2031.5,-188 1993.59,-174.73 1952.89,-151.74 1928.57,-136.96"/>
<polygon fill="midnightblue" stroke="midnightblue" points="1930.14,-133.82 1919.8,-131.55 1926.47,-139.78 1930.14,-133.82"/>
</g>
<!-- Node46&#45;&gt;Node26 -->
<g id="edge85" class="edge">
<title>Node46&#45;&gt;Node26</title>
<path fill="none" stroke="midnightblue" d="M2315.53,-231.45C2477.09,-226.75 2964.02,-211.52 3367.5,-188 3388,-186.81 4090.54,-147.06 4104.5,-132 4116.13,-119.45 4110.43,-99.39 4103.67,-84.87"/>
<polygon fill="midnightblue" stroke="midnightblue" points="4106.72,-83.15 4099.02,-75.87 4100.49,-86.36 4106.72,-83.15"/>
</g>
<!-- Node46&#45;&gt;Node37 -->
<g id="edge84" class="edge">
<title>Node46&#45;&gt;Node37</title>
<path fill="none" stroke="midnightblue" d="M2315.5,-229.6C2468.37,-220.16 2898.07,-193.61 3066.02,-183.23"/>
<polygon fill="midnightblue" stroke="midnightblue" points="3066.45,-186.71 3076.22,-182.6 3066.02,-179.72 3066.45,-186.71"/>
</g>
<!-- Node46&#45;&gt;Node31 -->
<g id="edge91" class="edge">
<title>Node46&#45;&gt;Node31</title>
<path fill="none" stroke="midnightblue" d="M2315.65,-225.06C2376.22,-216.27 2476.36,-201.55 2562.5,-188 2579.94,-185.26 2839.99,-143.18 2899.32,-131.73"/>
<polygon fill="midnightblue" stroke="midnightblue" points="2900.24,-135.12 2909.32,-129.65 2898.81,-128.26 2900.24,-135.12"/>
</g>
<!-- Node47&#45;&gt;Node2 -->
<g id="edge96" class="edge">
<title>Node47&#45;&gt;Node2</title>
<path fill="none" stroke="midnightblue" d="M2805.56,-648.97C2914.65,-639.21 3118.5,-602.51 3118.5,-464.5 3118.5,-464.5 3118.5,-464.5 3118.5,-401 3118.5,-313.29 3005.99,-266.33 2941.16,-246.56"/>
<polygon fill="midnightblue" stroke="midnightblue" points="2941.77,-243.09 2931.19,-243.61 2939.79,-249.8 2941.77,-243.09"/>
</g>
<!-- Node47&#45;&gt;Node22 -->
<g id="edge177" class="edge">
<title>Node47&#45;&gt;Node22</title>
<path fill="none" stroke="midnightblue" d="M2745.82,-638.28C2762.33,-604.15 2798.96,-515.45 2771.5,-448 2732.15,-351.36 2695.1,-336.69 2607.5,-280 2507.75,-215.45 2466.16,-233.72 2356.5,-188 2283.09,-157.4 2270.15,-136.52 2194.5,-112 2116.33,-86.66 2090.48,-95.9 2011.08,-77.26"/>
<polygon fill="midnightblue" stroke="midnightblue" points="2011.67,-73.81 2001.13,-74.85 2010.02,-80.61 2011.67,-73.81"/>
</g>
<!-- Node47&#45;&gt;Node39 -->
<g id="edge97" class="edge">
<title>Node47&#45;&gt;Node39</title>
<path fill="none" stroke="midnightblue" d="M2805.79,-644.42C2869.73,-636.1 2968.34,-621.59 3052.5,-602 3415.21,-517.56 3575.51,-603.81 3853.5,-356 3920.07,-296.66 3945.09,-185.94 3952.68,-141.84"/>
<polygon fill="midnightblue" stroke="midnightblue" points="3956.18,-142.12 3954.32,-131.69 3949.27,-141.01 3956.18,-142.12"/>
</g>
<!-- Node47&#45;&gt;Node41 -->
<g id="edge178" class="edge">
<title>Node47&#45;&gt;Node41</title>
<path fill="none" stroke="midnightblue" d="M2671.24,-651.43C2313.23,-645.19 640.59,-609.19 454.5,-479 372.73,-421.79 321.19,-375.39 350.5,-280 368.17,-222.5 379.44,-205.47 426.5,-168 439.73,-157.47 480.15,-142.99 509.57,-133.33"/>
<polygon fill="midnightblue" stroke="midnightblue" points="511.02,-136.54 519.45,-130.13 508.86,-129.88 511.02,-136.54"/>
</g>
<!-- Node47&#45;&gt;Node48 -->
<g id="edge98" class="edge">
<title>Node47&#45;&gt;Node48</title>
<path fill="none" stroke="midnightblue" d="M2697.27,-638.4C2668.52,-628.56 2629.96,-615.37 2599.3,-604.88"/>
<polygon fill="midnightblue" stroke="midnightblue" points="2600.24,-601.5 2589.65,-601.58 2597.98,-608.13 2600.24,-601.5"/>
</g>
<!-- Node47&#45;&gt;Node52 -->
<g id="edge176" class="edge">
<title>Node47&#45;&gt;Node52</title>
<path fill="none" stroke="midnightblue" d="M2737.74,-638.33C2734.86,-600.2 2721.22,-495.09 2657.5,-448 2617.65,-418.55 2291.7,-407.62 2152.81,-404.27"/>
<polygon fill="midnightblue" stroke="midnightblue" points="2152.82,-400.77 2142.74,-404.03 2152.66,-407.77 2152.82,-400.77"/>
</g>
<!-- Node48&#45;&gt;Node2 -->
<g id="edge99" class="edge">
<title>Node48&#45;&gt;Node2</title>
<path fill="none" stroke="midnightblue" d="M2612.71,-571.41C2644.34,-563.12 2682.46,-551.08 2714.5,-535 2752,-516.18 2759.21,-506.95 2790.5,-479 2846.08,-429.34 2877.29,-425.39 2904.5,-356 2917.96,-321.67 2909.26,-277.67 2902.42,-253.3"/>
<polygon fill="midnightblue" stroke="midnightblue" points="2905.73,-252.16 2899.49,-243.6 2899.02,-254.18 2905.73,-252.16"/>
</g>
<!-- Node48&#45;&gt;Node21 -->
<g id="edge173" class="edge">
<title>Node48&#45;&gt;Node21</title>
<path fill="none" stroke="midnightblue" d="M2615.57,-572.96C2663.68,-563.57 2729.9,-549.84 2787.5,-535 3078.75,-459.98 3906.96,-378.34 4079.5,-132 4098,-105.59 4055.76,-86.78 4021.55,-76.4"/>
<polygon fill="midnightblue" stroke="midnightblue" points="4022.3,-72.98 4011.72,-73.58 4020.36,-79.7 4022.3,-72.98"/>
</g>
<!-- Node48&#45;&gt;Node35 -->
<g id="edge175" class="edge">
<title>Node48&#45;&gt;Node35</title>
<path fill="none" stroke="midnightblue" d="M2610.83,-571.44C2649.62,-562.2 2700.35,-549.21 2744.5,-535 2976.89,-460.19 3026.66,-418.31 3256.5,-336 3455.11,-264.87 3516.13,-276.78 3707.5,-188 3750.58,-168.01 3775.33,-173.46 3798.5,-132 3839.33,-58.92 3774.46,-102.23 3672.22,-77.14"/>
<polygon fill="midnightblue" stroke="midnightblue" points="3673.1,-73.76 3662.54,-74.59 3671.32,-80.53 3673.1,-73.76"/>
</g>
<!-- Node48&#45;&gt;Node38 -->
<g id="edge100" class="edge">
<title>Node48&#45;&gt;Node38</title>
<path fill="none" stroke="midnightblue" d="M2595.47,-571.41C2662.21,-548.15 2776.5,-494.9 2776.5,-403 2776.5,-403 2776.5,-403 2776.5,-289 2776.5,-234.56 2721.36,-208.71 2757.5,-168 2777.97,-144.95 2969.84,-131.56 3071.68,-126.02"/>
<polygon fill="midnightblue" stroke="midnightblue" points="3072.05,-129.5 3081.84,-125.47 3071.67,-122.51 3072.05,-129.5"/>
</g>
<!-- Node48&#45;&gt;Node41 -->
<g id="edge174" class="edge">
<title>Node48&#45;&gt;Node41</title>
<path fill="none" stroke="midnightblue" d="M2481.4,-585.27C2169.85,-583.96 876.32,-576.09 801.5,-535 639.8,-446.2 565.52,-209.17 547.17,-141.36"/>
<polygon fill="midnightblue" stroke="midnightblue" points="550.55,-140.44 544.62,-131.66 543.78,-142.22 550.55,-140.44"/>
</g>
<!-- Node49 -->
<g id="node37" class="node">
<title>Node49</title>
<g id="a_node37"><a xlink:href="BinaryStream_8h.html" target="_top" xlink:title="llvm/Support/BinaryStream.h">
<polygon fill="none" stroke="red" points="810.5,-515.5 810.5,-534.5 952.5,-534.5 952.5,-515.5 810.5,-515.5"/>
<text text-anchor="middle" x="881.5" y="-522.5" font-family="Helvetica,sans-Serif" font-size="10.00">llvm/Support/BinaryStream.h</text>
</a>
</g>
</g>
<!-- Node48&#45;&gt;Node49 -->
<g id="edge101" class="edge">
<title>Node48&#45;&gt;Node49</title>
<path fill="none" stroke="midnightblue" d="M2481.35,-583.1C2217.29,-573.68 1250.79,-539.18 962.93,-528.91"/>
<polygon fill="midnightblue" stroke="midnightblue" points="962.69,-525.4 952.57,-528.54 962.44,-532.39 962.69,-525.4"/>
</g>
<!-- Node48&#45;&gt;Node51 -->
<g id="edge171" class="edge">
<title>Node48&#45;&gt;Node51</title>
<path fill="none" stroke="midnightblue" d="M2495.07,-571.38C2410,-548.91 2244.17,-505.1 2153.47,-481.14"/>
<polygon fill="midnightblue" stroke="midnightblue" points="2154.16,-477.7 2143.59,-478.53 2152.37,-484.47 2154.16,-477.7"/>
</g>
<!-- Node48&#45;&gt;Node52 -->
<g id="edge172" class="edge">
<title>Node48&#45;&gt;Node52</title>
<path fill="none" stroke="midnightblue" d="M2513.32,-571.48C2426.56,-536.91 2203.43,-448 2121.38,-415.3"/>
<polygon fill="midnightblue" stroke="midnightblue" points="2122.45,-411.96 2111.87,-411.51 2119.86,-418.47 2122.45,-411.96"/>
</g>
<!-- Node49&#45;&gt;Node2 -->
<g id="edge102" class="edge">
<title>Node49&#45;&gt;Node2</title>
<path fill="none" stroke="midnightblue" d="M952.85,-524.02C1186.98,-523.7 1930.39,-519.44 2166.5,-479 2450.17,-430.41 2773.24,-290.87 2868.62,-247.81"/>
<polygon fill="midnightblue" stroke="midnightblue" points="2870.22,-250.93 2877.88,-243.61 2867.33,-244.55 2870.22,-250.93"/>
</g>
<!-- Node49&#45;&gt;Node41 -->
<g id="edge170" class="edge">
<title>Node49&#45;&gt;Node41</title>
<path fill="none" stroke="midnightblue" d="M869.82,-515.25C858.52,-506.56 841.15,-492.61 827.5,-479 707.97,-359.83 682.97,-324.36 583.5,-188 572.11,-172.39 560.48,-153.63 552.54,-140.29"/>
<polygon fill="midnightblue" stroke="midnightblue" points="555.54,-138.5 547.45,-131.65 549.51,-142.05 555.54,-138.5"/>
</g>
<!-- Node49&#45;&gt;Node51 -->
<g id="edge103" class="edge">
<title>Node49&#45;&gt;Node51</title>
<path fill="none" stroke="midnightblue" d="M952.89,-516.12C957.49,-515.71 962.06,-515.33 966.5,-515 1359.35,-485.4 1830.85,-471.1 2013.24,-466.36"/>
<polygon fill="midnightblue" stroke="midnightblue" points="2013.36,-469.86 2023.27,-466.1 2013.18,-462.86 2013.36,-469.86"/>
</g>
<!-- Node49&#45;&gt;Node52 -->
<g id="edge169" class="edge">
<title>Node49&#45;&gt;Node52</title>
<path fill="none" stroke="midnightblue" d="M952.92,-516.41C957.51,-515.93 962.07,-515.46 966.5,-515 1371.31,-473.4 1858.38,-425.65 2028.37,-409.06"/>
<polygon fill="midnightblue" stroke="midnightblue" points="2028.77,-412.53 2038.39,-408.08 2028.09,-405.57 2028.77,-412.53"/>
</g>
<!-- Node49&#45;&gt;Node64 -->
<g id="edge158" class="edge">
<title>Node49&#45;&gt;Node64</title>
<path fill="none" stroke="midnightblue" d="M873.53,-515.35C856.99,-496.49 820.5,-449.58 820.5,-403 820.5,-403 820.5,-403 820.5,-345 820.5,-269.66 907.01,-215.58 953.2,-192.07"/>
<polygon fill="midnightblue" stroke="midnightblue" points="954.99,-195.09 962.4,-187.52 951.88,-188.82 954.99,-195.09"/>
</g>
<!-- Node51&#45;&gt;Node14 -->
<g id="edge157" class="edge">
<title>Node51&#45;&gt;Node14</title>
<path fill="none" stroke="midnightblue" d="M2023.49,-462.23C1725.4,-459.31 526.88,-429.03 354.5,-132 350.04,-124.31 348.74,-118.77 354.5,-112 385.82,-75.18 535.04,-68.4 600.55,-67.22"/>
<polygon fill="midnightblue" stroke="midnightblue" points="600.73,-70.72 610.68,-67.07 600.62,-63.72 600.73,-70.72"/>
</g>
<!-- Node51&#45;&gt;Node46 -->
<g id="edge104" class="edge">
<title>Node51&#45;&gt;Node46</title>
<path fill="none" stroke="midnightblue" d="M2110.47,-448.36C2123.06,-438.9 2139.19,-425.71 2151.5,-412 2197.82,-360.41 2236.01,-286.56 2252.18,-252.92"/>
<polygon fill="midnightblue" stroke="midnightblue" points="2255.36,-254.38 2256.48,-243.84 2249.04,-251.39 2255.36,-254.38"/>
</g>
<!-- Node51&#45;&gt;Node52 -->
<g id="edge105" class="edge">
<title>Node51&#45;&gt;Node52</title>
<path fill="none" stroke="midnightblue" d="M2090.5,-448.4C2090.5,-440.47 2090.5,-430.46 2090.5,-421.86"/>
<polygon fill="midnightblue" stroke="midnightblue" points="2094,-421.66 2090.5,-411.66 2087,-421.66 2094,-421.66"/>
</g>
<!-- Node52&#45;&gt;Node10 -->
<g id="edge132" class="edge">
<title>Node52&#45;&gt;Node10</title>
<path fill="none" stroke="midnightblue" d="M2038.46,-397.64C1961.38,-391.98 1821.17,-378.86 1776.5,-356 1745.72,-340.25 1735.44,-332.06 1722.5,-300 1672.97,-177.27 1889.41,-139.49 2013.2,-127.97"/>
<polygon fill="midnightblue" stroke="midnightblue" points="2013.76,-131.43 2023.41,-127.06 2013.14,-124.46 2013.76,-131.43"/>
</g>
<!-- Node52&#45;&gt;Node11 -->
<g id="edge130" class="edge">
<title>Node52&#45;&gt;Node11</title>
<path fill="none" stroke="midnightblue" d="M2038.2,-399.78C1862.99,-393.88 1316.31,-360.03 1472.5,-168 1522.05,-107.07 1572.23,-160.29 1645.5,-132 1661.86,-125.69 1663.16,-118.35 1679.5,-112 1790.89,-68.7 1825.56,-80.63 1942.5,-56 1998.83,-44.13 2063.47,-30.69 2107.24,-21.61"/>
<polygon fill="midnightblue" stroke="midnightblue" points="2108,-25.03 2117.08,-19.57 2106.58,-18.18 2108,-25.03"/>
</g>
<!-- Node52&#45;&gt;Node14 -->
<g id="edge153" class="edge">
<title>Node52&#45;&gt;Node14</title>
<path fill="none" stroke="midnightblue" d="M2038.27,-401.41C1889.63,-401.97 1451.73,-399.5 1091.5,-356 836.92,-325.25 762.91,-340.93 525.5,-244 441.39,-209.66 397.69,-211.93 354.5,-132 350.27,-124.18 348.74,-118.77 354.5,-112 385.82,-75.18 535.04,-68.4 600.55,-67.22"/>
<polygon fill="midnightblue" stroke="midnightblue" points="600.73,-70.72 610.68,-67.07 600.62,-63.72 600.73,-70.72"/>
</g>
<!-- Node52&#45;&gt;Node17 -->
<g id="edge154" class="edge">
<title>Node52&#45;&gt;Node17</title>
<path fill="none" stroke="midnightblue" d="M2038.19,-400.69C1756.15,-398.44 425.35,-380.64 312.5,-244 246.99,-164.69 348.78,-84.9 447.5,-56 584.32,-15.95 1029.36,-11.44 1167.93,-11.01"/>
<polygon fill="midnightblue" stroke="midnightblue" points="1168.13,-14.51 1178.12,-10.99 1168.11,-7.51 1168.13,-14.51"/>
</g>
<!-- Node52&#45;&gt;Node20 -->
<g id="edge155" class="edge">
<title>Node52&#45;&gt;Node20</title>
<path fill="none" stroke="midnightblue" d="M2142.62,-400C2275.37,-397.07 2636.92,-386.69 2936.5,-356 3380.03,-310.57 3491.95,-292.03 3925.5,-188 4040.35,-160.44 4127.28,-187.41 4166.5,-76 4169.45,-67.62 4172.6,-62.46 4166.5,-56 4140.4,-28.35 3559.27,-14.53 3419.52,-11.6"/>
<polygon fill="midnightblue" stroke="midnightblue" points="3419.59,-8.1 3409.52,-11.39 3419.44,-15.1 3419.59,-8.1"/>
</g>
<!-- Node52&#45;&gt;Node21 -->
<g id="edge147" class="edge">
<title>Node52&#45;&gt;Node21</title>
<path fill="none" stroke="midnightblue" d="M2142.91,-399.64C2266.8,-396.05 2587.31,-384.54 2853.5,-356 2921.47,-348.71 4020.09,-184.82 4063.5,-132 4081.16,-110.51 4047.89,-91.16 4019.02,-79.26"/>
<polygon fill="midnightblue" stroke="midnightblue" points="4020.06,-75.91 4009.47,-75.52 4017.51,-82.43 4020.06,-75.91"/>
</g>
<!-- Node52&#45;&gt;Node22 -->
<g id="edge148" class="edge">
<title>Node52&#45;&gt;Node22</title>
<path fill="none" stroke="midnightblue" d="M2111.98,-392.36C2126.89,-385.09 2145.61,-373.12 2154.5,-356 2158.6,-348.11 2157.39,-344.41 2154.5,-336 2117.14,-227.29 2047.89,-234.32 1995.5,-132 1987.96,-117.28 1982.97,-99.12 1980.01,-85.74"/>
<polygon fill="midnightblue" stroke="midnightblue" points="1983.41,-84.9 1977.98,-75.8 1976.55,-86.3 1983.41,-84.9"/>
</g>
<!-- Node52&#45;&gt;Node25 -->
<g id="edge108" class="edge">
<title>Node52&#45;&gt;Node25</title>
<path fill="none" stroke="midnightblue" d="M2111.59,-392.39C2131.74,-383.91 2162.77,-370.21 2188.5,-356 2286.3,-302 2395.63,-225.13 2439.61,-193.47"/>
<polygon fill="midnightblue" stroke="midnightblue" points="2441.68,-196.29 2447.74,-187.59 2437.58,-190.61 2441.68,-196.29"/>
</g>
<!-- Node52&#45;&gt;Node28 -->
<g id="edge129" class="edge">
<title>Node52&#45;&gt;Node28</title>
<path fill="none" stroke="midnightblue" d="M2038.36,-400.05C1863.38,-396.62 1306.59,-383.58 1280.5,-356 1240.18,-313.38 1253.72,-276.2 1280.5,-224 1299.98,-186.03 1319.39,-185.08 1358.5,-168 1407.37,-146.66 1466.8,-135.29 1511.71,-129.32"/>
<polygon fill="midnightblue" stroke="midnightblue" points="1512.16,-132.79 1521.64,-128.05 1511.28,-125.84 1512.16,-132.79"/>
</g>
<!-- Node52&#45;&gt;Node33 -->
<g id="edge150" class="edge">
<title>Node52&#45;&gt;Node33</title>
<path fill="none" stroke="midnightblue" d="M2117.43,-392.35C2143.7,-383.74 2184.67,-369.85 2219.5,-356 2389.21,-288.53 2442.95,-289.91 2594.5,-188 2615.34,-173.98 2635.69,-153.34 2648.61,-139.1"/>
<polygon fill="midnightblue" stroke="midnightblue" points="2651.29,-141.36 2655.31,-131.55 2646.05,-136.71 2651.29,-141.36"/>
</g>
<!-- Node52&#45;&gt;Node35 -->
<g id="edge152" class="edge">
<title>Node52&#45;&gt;Node35</title>
<path fill="none" stroke="midnightblue" d="M2142.9,-399.7C2257.5,-396.4 2538.84,-385.7 2772.5,-356 2886.53,-341.51 3711.13,-222.11 3782.5,-132 3788.02,-125.03 3787.78,-119.15 3782.5,-112 3780.8,-109.7 3714.98,-90.03 3672.31,-77.47"/>
<polygon fill="midnightblue" stroke="midnightblue" points="3673.11,-74.06 3662.53,-74.6 3671.14,-80.78 3673.11,-74.06"/>
</g>
<!-- Node52&#45;&gt;Node37 -->
<g id="edge107" class="edge">
<title>Node52&#45;&gt;Node37</title>
<path fill="none" stroke="midnightblue" d="M2142.81,-401.29C2242.01,-400.83 2463.8,-395.06 2645.5,-356 2790.36,-324.86 2820.27,-294.68 2959.5,-244 3009.39,-225.84 3067.1,-204.3 3102.18,-191.15"/>
<polygon fill="midnightblue" stroke="midnightblue" points="3103.75,-194.3 3111.88,-187.51 3101.29,-187.74 3103.75,-194.3"/>
</g>
<!-- Node52&#45;&gt;Node40 -->
<g id="edge128" class="edge">
<title>Node52&#45;&gt;Node40</title>
<path fill="none" stroke="midnightblue" d="M2126.04,-392.49C2160.41,-384.03 2213.86,-370.29 2259.5,-356 2329.4,-334.11 2345.87,-325.6 2414.5,-300 2567.54,-242.91 2597.98,-203.11 2757.5,-168 2994.57,-115.82 3060.68,-153.25 3302.5,-132 3304.7,-131.81 3306.94,-131.6 3309.19,-131.39"/>
<polygon fill="midnightblue" stroke="midnightblue" points="3309.56,-134.87 3319.18,-130.43 3308.89,-127.91 3309.56,-134.87"/>
</g>
<!-- Node52&#45;&gt;Node41 -->
<g id="edge149" class="edge">
<title>Node52&#45;&gt;Node41</title>
<path fill="none" stroke="midnightblue" d="M2038.45,-399.68C1872.68,-395.27 1358.31,-379.98 1193.5,-356 1089.39,-340.85 1065.71,-324.94 963.5,-300 804.42,-261.18 748.62,-279.02 612.5,-188 591.29,-173.82 570.3,-153.22 556.92,-139.02"/>
<polygon fill="midnightblue" stroke="midnightblue" points="559.33,-136.48 549.98,-131.51 554.19,-141.23 559.33,-136.48"/>
</g>
<!-- Node52&#45;&gt;Node42 -->
<g id="edge151" class="edge">
<title>Node52&#45;&gt;Node42</title>
<path fill="none" stroke="midnightblue" d="M2142.82,-399.59C2248.38,-396.19 2494.23,-385.55 2698.5,-356 3047.31,-305.54 3129.93,-266.58 3473.5,-188 3555.68,-169.2 3651.55,-145.76 3704.08,-132.79"/>
<polygon fill="midnightblue" stroke="midnightblue" points="3705.12,-136.14 3713.99,-130.34 3703.44,-129.34 3705.12,-136.14"/>
</g>
<!-- Node52&#45;&gt;Node45 -->
<g id="edge156" class="edge">
<title>Node52&#45;&gt;Node45</title>
<path fill="none" stroke="midnightblue" d="M2142.85,-398.82C2255.05,-393.75 2515.42,-379.76 2600.5,-356 2654.87,-340.82 2672.79,-338.03 2714.5,-300 2747.13,-270.25 2770.35,-222.82 2781.34,-197.07"/>
<polygon fill="midnightblue" stroke="midnightblue" points="2784.6,-198.34 2785.18,-187.76 2778.13,-195.67 2784.6,-198.34"/>
</g>
<!-- Node53 -->
<g id="node40" class="node">
<title>Node53</title>
<g id="a_node40"><a xlink:href="c_2Error_8h.html" target="_top" xlink:title="llvm&#45;c/Error.h">
<polygon fill="none" stroke="red" points="1942,-336.5 1942,-355.5 2017,-355.5 2017,-336.5 1942,-336.5"/>
<text text-anchor="middle" x="1979.5" y="-343.5" font-family="Helvetica,sans-Serif" font-size="10.00">llvm&#45;c/Error.h</text>
</a>
</g>
</g>
<!-- Node52&#45;&gt;Node53 -->
<g id="edge106" class="edge">
<title>Node52&#45;&gt;Node53</title>
<path fill="none" stroke="midnightblue" d="M2072.67,-392.32C2054.78,-383.62 2027.02,-370.12 2006.45,-360.11"/>
<polygon fill="midnightblue" stroke="midnightblue" points="2007.81,-356.88 1997.29,-355.65 2004.75,-363.18 2007.81,-356.88"/>
</g>
<!-- Node55 -->
<g id="node41" class="node">
<title>Node55</title>
<g id="a_node41"><a xlink:href="StringExtras_8h.html" target="_top" xlink:title="llvm/ADT/StringExtras.h">
<polygon fill="none" stroke="red" points="1801,-336.5 1801,-355.5 1924,-355.5 1924,-336.5 1801,-336.5"/>
<text text-anchor="middle" x="1862.5" y="-343.5" font-family="Helvetica,sans-Serif" font-size="10.00">llvm/ADT/StringExtras.h</text>
</a>
</g>
</g>
<!-- Node52&#45;&gt;Node55 -->
<g id="edge109" class="edge">
<title>Node52&#45;&gt;Node55</title>
<path fill="none" stroke="midnightblue" d="M2054.37,-392.44C2014.85,-383.08 1951.4,-368.06 1908.39,-357.87"/>
<polygon fill="midnightblue" stroke="midnightblue" points="1909,-354.42 1898.46,-355.52 1907.38,-361.23 1909,-354.42"/>
</g>
<!-- Node57 -->
<g id="node42" class="node">
<title>Node57</title>
<g id="a_node42"><a xlink:href="Twine_8h.html" target="_top" xlink:title="llvm/ADT/Twine.h">
<polygon fill="none" stroke="black" points="1732,-280.5 1732,-299.5 1827,-299.5 1827,-280.5 1732,-280.5"/>
<text text-anchor="middle" x="1779.5" y="-287.5" font-family="Helvetica,sans-Serif" font-size="10.00">llvm/ADT/Twine.h</text>
</a>
</g>
</g>
<!-- Node52&#45;&gt;Node57 -->
<g id="edge127" class="edge">
<title>Node52&#45;&gt;Node57</title>
<path fill="none" stroke="midnightblue" d="M2038.29,-400.21C1962.1,-397.92 1825.79,-389.17 1791.5,-356 1779.28,-344.17 1777.18,-324.25 1777.59,-309.57"/>
<polygon fill="midnightblue" stroke="midnightblue" points="1781.08,-309.81 1778.26,-299.59 1774.1,-309.34 1781.08,-309.81"/>
</g>
<!-- Node58 -->
<g id="node43" class="node">
<title>Node58</title>
<g id="a_node43"><a xlink:href="Debug_8h.html" target="_top" xlink:title="llvm/Support/Debug.h">
<polygon fill="none" stroke="black" points="2035,-336.5 2035,-355.5 2146,-355.5 2146,-336.5 2035,-336.5"/>
<text text-anchor="middle" x="2090.5" y="-343.5" font-family="Helvetica,sans-Serif" font-size="10.00">llvm/Support/Debug.h</text>
</a>
</g>
</g>
<!-- Node52&#45;&gt;Node58 -->
<g id="edge131" class="edge">
<title>Node52&#45;&gt;Node58</title>
<path fill="none" stroke="midnightblue" d="M2090.5,-392.08C2090.5,-385.01 2090.5,-374.86 2090.5,-365.99"/>
<polygon fill="midnightblue" stroke="midnightblue" points="2094,-365.75 2090.5,-355.75 2087,-365.75 2094,-365.75"/>
</g>
<!-- Node59 -->
<g id="node44" class="node">
<title>Node59</title>
<g id="a_node44"><a xlink:href="ErrorOr_8h.html" target="_top" xlink:title="Provides ErrorOr&lt;T&gt; smart pointer. ">
<polygon fill="none" stroke="red" points="1481.5,-168.5 1481.5,-187.5 1595.5,-187.5 1595.5,-168.5 1481.5,-168.5"/>
<text text-anchor="middle" x="1538.5" y="-175.5" font-family="Helvetica,sans-Serif" font-size="10.00">llvm/Support/ErrorOr.h</text>
</a>
</g>
</g>
<!-- Node52&#45;&gt;Node59 -->
<g id="edge133" class="edge">
<title>Node52&#45;&gt;Node59</title>
<path fill="none" stroke="midnightblue" d="M2038.24,-399.86C1943.74,-397.03 1748.74,-387.46 1689.5,-356 1619.06,-318.6 1567.46,-233.61 1547.53,-196.68"/>
<polygon fill="midnightblue" stroke="midnightblue" points="1550.52,-194.84 1542.76,-187.62 1544.32,-198.1 1550.52,-194.84"/>
</g>
<!-- Node63 -->
<g id="node45" class="node">
<title>Node63</title>
<g id="a_node45"><a xlink:href="raw__ostream_8h.html" target="_top" xlink:title="llvm/Support/raw_ostream.h">
<polygon fill="none" stroke="red" points="1062,-280.5 1062,-299.5 1201,-299.5 1201,-280.5 1062,-280.5"/>
<text text-anchor="middle" x="1131.5" y="-287.5" font-family="Helvetica,sans-Serif" font-size="10.00">llvm/Support/raw_ostream.h</text>
</a>
</g>
</g>
<!-- Node52&#45;&gt;Node63 -->
<g id="edge138" class="edge">
<title>Node52&#45;&gt;Node63</title>
<path fill="none" stroke="midnightblue" d="M2038.36,-401.44C1877.79,-402.3 1392.54,-401 1242.5,-356 1207.13,-345.39 1171.13,-321.36 1150.08,-305.68"/>
<polygon fill="midnightblue" stroke="midnightblue" points="1152.1,-302.81 1142.02,-299.53 1147.85,-308.38 1152.1,-302.81"/>
</g>
<!-- Node55&#45;&gt;Node2 -->
<g id="edge110" class="edge">
<title>Node55&#45;&gt;Node2</title>
<path fill="none" stroke="midnightblue" d="M1924.31,-336.85C1927.08,-336.55 1929.82,-336.27 1932.5,-336 2161.27,-313.33 2220.12,-326.33 2448.5,-300 2503.96,-293.61 2517.29,-288.28 2572.5,-280 2662.46,-266.5 2766.69,-252.28 2832.11,-243.52"/>
<polygon fill="midnightblue" stroke="midnightblue" points="2832.83,-246.96 2842.27,-242.16 2831.9,-240.02 2832.83,-246.96"/>
</g>
<!-- Node55&#45;&gt;Node14 -->
<g id="edge125" class="edge">
<title>Node55&#45;&gt;Node14</title>
<path fill="none" stroke="midnightblue" d="M1800.91,-343.44C1637.6,-339.02 1196.19,-325.04 1052.5,-300 966.61,-285.04 946.87,-272.56 864.5,-244 758.96,-207.4 698.14,-227.08 639.5,-132 631.01,-118.24 629.49,-99.71 629.81,-85.96"/>
<polygon fill="midnightblue" stroke="midnightblue" points="633.31,-85.92 630.4,-75.74 626.33,-85.52 633.31,-85.92"/>
</g>
<!-- Node55&#45;&gt;Node16 -->
<g id="edge120" class="edge">
<title>Node55&#45;&gt;Node16</title>
<path fill="none" stroke="midnightblue" d="M1800.77,-343.47C1676.51,-337.75 1391.25,-311.1 1193.5,-188 1166.16,-170.98 1158.36,-162.32 1147.5,-132 1142.1,-116.92 1145.35,-98.79 1149.37,-85.52"/>
<polygon fill="midnightblue" stroke="midnightblue" points="1152.81,-86.27 1152.76,-75.68 1146.2,-83.99 1152.81,-86.27"/>
</g>
<!-- Node55&#45;&gt;Node20 -->
<g id="edge126" class="edge">
<title>Node55&#45;&gt;Node20</title>
<path fill="none" stroke="midnightblue" d="M1924.31,-336.82C1927.08,-336.53 1929.82,-336.25 1932.5,-336 2194.93,-311.18 2261.95,-323.46 2524.5,-300 2664.96,-287.45 3692.11,-240.24 3782.5,-132 3882.15,-12.67 3527.87,-8.8 3419.84,-10.31"/>
<polygon fill="midnightblue" stroke="midnightblue" points="3419.55,-6.81 3409.61,-10.48 3419.67,-13.81 3419.55,-6.81"/>
</g>
<!-- Node55&#45;&gt;Node22 -->
<g id="edge119" class="edge">
<title>Node55&#45;&gt;Node22</title>
<path fill="none" stroke="midnightblue" d="M1860.03,-336.38C1851.17,-303.63 1824.17,-185.04 1874.5,-112 1889.81,-89.79 1918.68,-78.42 1941.81,-72.68"/>
<polygon fill="midnightblue" stroke="midnightblue" points="1942.64,-76.08 1951.64,-70.48 1941.12,-69.25 1942.64,-76.08"/>
</g>
<!-- Node55&#45;&gt;Node23 -->
<g id="edge123" class="edge">
<title>Node55&#45;&gt;Node23</title>
<path fill="none" stroke="midnightblue" d="M1864.22,-336.3C1870.7,-303.63 1893.64,-187.87 1902.74,-141.96"/>
<polygon fill="midnightblue" stroke="midnightblue" points="1906.23,-142.37 1904.74,-131.88 1899.36,-141.01 1906.23,-142.37"/>
</g>
<!-- Node55&#45;&gt;Node27 -->
<g id="edge124" class="edge">
<title>Node55&#45;&gt;Node27</title>
<path fill="none" stroke="midnightblue" d="M1924.31,-336.78C1927.07,-336.5 1929.81,-336.24 1932.5,-336 2265.81,-306.64 2350.62,-321.96 2684.5,-300 3249.47,-262.84 3392.78,-266.51 3953.5,-188 4087.39,-169.25 4140.81,-208.19 4252.5,-132 4276.75,-115.46 4279.41,-104.21 4287.5,-76 4291.9,-60.66 4289.35,-42.56 4286.17,-29.36"/>
<polygon fill="midnightblue" stroke="midnightblue" points="4289.5,-28.3 4283.47,-19.59 4282.76,-30.16 4289.5,-28.3"/>
</g>
<!-- Node55&#45;&gt;Node33 -->
<g id="edge122" class="edge">
<title>Node55&#45;&gt;Node33</title>
<path fill="none" stroke="midnightblue" d="M1903.77,-336.45C1946.7,-327.51 2015.86,-313.01 2075.5,-300 2292.49,-252.68 2358.26,-275.25 2562.5,-188 2593.21,-174.88 2624.92,-152.49 2644.18,-137.72"/>
<polygon fill="midnightblue" stroke="midnightblue" points="2646.38,-140.44 2652.1,-131.53 2642.07,-134.93 2646.38,-140.44"/>
</g>
<!-- Node55&#45;&gt;Node41 -->
<g id="edge121" class="edge">
<title>Node55&#45;&gt;Node41</title>
<path fill="none" stroke="midnightblue" d="M1800.81,-340.98C1705.35,-334.44 1516.19,-320.15 1356.5,-300 1216.94,-282.39 869.35,-224.48 733.5,-188 676.36,-172.66 611.48,-149.26 573.94,-135.12"/>
<polygon fill="midnightblue" stroke="midnightblue" points="575.15,-131.84 564.56,-131.57 572.67,-138.38 575.15,-131.84"/>
</g>
<!-- Node55&#45;&gt;Node46 -->
<g id="edge111" class="edge">
<title>Node55&#45;&gt;Node46</title>
<path fill="none" stroke="midnightblue" d="M1893.4,-336.46C1964.6,-316.78 2140.19,-268.25 2219.93,-246.21"/>
<polygon fill="midnightblue" stroke="midnightblue" points="2220.91,-249.57 2229.62,-243.53 2219.05,-242.83 2220.91,-249.57"/>
</g>
<!-- Node55&#45;&gt;Node57 -->
<g id="edge112" class="edge">
<title>Node55&#45;&gt;Node57</title>
<path fill="none" stroke="midnightblue" d="M1849.16,-336.32C1836.34,-327.98 1816.72,-315.21 1801.56,-305.35"/>
<polygon fill="midnightblue" stroke="midnightblue" points="1803.09,-302.17 1792.8,-299.65 1799.28,-308.04 1803.09,-302.17"/>
</g>
<!-- Node57&#45;&gt;Node10 -->
<g id="edge115" class="edge">
<title>Node57&#45;&gt;Node10</title>
<path fill="none" stroke="midnightblue" d="M1795.99,-280.31C1847.66,-253.08 2006.66,-169.29 2069.02,-136.43"/>
<polygon fill="midnightblue" stroke="midnightblue" points="2070.96,-139.36 2078.17,-131.61 2067.69,-133.17 2070.96,-139.36"/>
</g>
<!-- Node57&#45;&gt;Node14 -->
<g id="edge118" class="edge">
<title>Node57&#45;&gt;Node14</title>
<path fill="none" stroke="midnightblue" d="M1731.51,-288.44C1591.29,-285.84 1170.87,-271.12 834.5,-188 801.77,-179.91 721.45,-150.86 693.5,-132 673.8,-118.71 655.59,-98.21 644.07,-83.8"/>
<polygon fill="midnightblue" stroke="midnightblue" points="646.7,-81.48 637.81,-75.72 641.17,-85.77 646.7,-81.48"/>
</g>
<!-- Node57&#45;&gt;Node22 -->
<g id="edge116" class="edge">
<title>Node57&#45;&gt;Node22</title>
<path fill="none" stroke="midnightblue" d="M1777.67,-280.28C1772.28,-251.98 1759.47,-161.65 1803.5,-112 1821.65,-91.54 1896.83,-77.92 1941.89,-71.42"/>
<polygon fill="midnightblue" stroke="midnightblue" points="1942.41,-74.88 1951.83,-70.03 1941.45,-67.95 1942.41,-74.88"/>
</g>
<!-- Node57&#45;&gt;Node25 -->
<g id="edge113" class="edge">
<title>Node57&#45;&gt;Node25</title>
<path fill="none" stroke="midnightblue" d="M1827.05,-281.31C1946.89,-261.92 2261.35,-211.05 2396.4,-189.21"/>
<polygon fill="midnightblue" stroke="midnightblue" points="2397.27,-192.61 2406.58,-187.56 2396.15,-185.7 2397.27,-192.61"/>
</g>
<!-- Node57&#45;&gt;Node41 -->
<g id="edge117" class="edge">
<title>Node57&#45;&gt;Node41</title>
<path fill="none" stroke="midnightblue" d="M1731.59,-285.6C1593.36,-275.41 1182.19,-242.43 844.5,-188 746.01,-172.13 631.2,-145 575.79,-131.36"/>
<polygon fill="midnightblue" stroke="midnightblue" points="576.39,-127.9 565.84,-128.9 574.7,-134.7 576.39,-127.9"/>
</g>
<!-- Node57&#45;&gt;Node46 -->
<g id="edge114" class="edge">
<title>Node57&#45;&gt;Node46</title>
<path fill="none" stroke="midnightblue" d="M1827.38,-283.62C1914.13,-273.89 2097.38,-253.31 2195.41,-242.31"/>
<polygon fill="midnightblue" stroke="midnightblue" points="2195.94,-245.77 2205.48,-241.18 2195.16,-238.81 2195.94,-245.77"/>
</g>
<!-- Node59&#45;&gt;Node17 -->
<g id="edge136" class="edge">
<title>Node59&#45;&gt;Node17</title>
<path fill="none" stroke="midnightblue" d="M1481.3,-176.54C1401.66,-174.63 1263.21,-166.31 1228.5,-132 1201.24,-105.05 1202.95,-56.07 1206.35,-29.44"/>
<polygon fill="midnightblue" stroke="midnightblue" points="1209.81,-29.93 1207.83,-19.52 1202.89,-28.89 1209.81,-29.93"/>
</g>
<!-- Node59&#45;&gt;Node20 -->
<g id="edge137" class="edge">
<title>Node59&#45;&gt;Node20</title>
<path fill="none" stroke="midnightblue" d="M1577.91,-168.45C1640.52,-155.09 1766.66,-129 1874.5,-112 2077.07,-80.06 2128.12,-72.82 2332.5,-56 2738.04,-22.63 3233.28,-13.31 3359.25,-11.41"/>
<polygon fill="midnightblue" stroke="midnightblue" points="3359.36,-14.91 3369.31,-11.26 3359.26,-7.91 3359.36,-14.91"/>
</g>
<!-- Node59&#45;&gt;Node22 -->
<g id="edge135" class="edge">
<title>Node59&#45;&gt;Node22</title>
<path fill="none" stroke="midnightblue" d="M1567.64,-168.5C1596.33,-159.94 1641.27,-146.04 1679.5,-132 1701.2,-124.03 1705.33,-118.54 1727.5,-112 1802.28,-89.95 1893.05,-76.84 1941.7,-70.88"/>
<polygon fill="midnightblue" stroke="midnightblue" points="1942.19,-74.35 1951.7,-69.68 1941.36,-67.39 1942.19,-74.35"/>
</g>
<!-- Node59&#45;&gt;Node28 -->
<g id="edge134" class="edge">
<title>Node59&#45;&gt;Node28</title>
<path fill="none" stroke="midnightblue" d="M1545.27,-168.08C1551.06,-160.46 1559.56,-149.26 1566.64,-139.94"/>
<polygon fill="midnightblue" stroke="midnightblue" points="1569.6,-141.83 1572.86,-131.75 1564.02,-137.6 1569.6,-141.83"/>
</g>
<!-- Node63&#45;&gt;Node14 -->
<g id="edge145" class="edge">
<title>Node63&#45;&gt;Node14</title>
<path fill="none" stroke="midnightblue" d="M1077.88,-280.47C1034.8,-272.92 973.02,-260.53 920.5,-244 890.01,-234.4 677.58,-155.12 655.5,-132 643.44,-119.37 637.34,-100.16 634.32,-85.89"/>
<polygon fill="midnightblue" stroke="midnightblue" points="637.71,-84.96 632.5,-75.73 630.82,-86.19 637.71,-84.96"/>
</g>
<!-- Node63&#45;&gt;Node16 -->
<g id="edge142" class="edge">
<title>Node63&#45;&gt;Node16</title>
<path fill="none" stroke="midnightblue" d="M1124.62,-280.33C1104.32,-253.63 1048.15,-170.91 1081.5,-112 1090.36,-96.35 1107.07,-85.55 1122.48,-78.46"/>
<polygon fill="midnightblue" stroke="midnightblue" points="1123.96,-81.63 1131.82,-74.52 1121.24,-75.18 1123.96,-81.63"/>
</g>
<!-- Node63&#45;&gt;Node17 -->
<g id="edge146" class="edge">
<title>Node63&#45;&gt;Node17</title>
<path fill="none" stroke="midnightblue" d="M1061.69,-285.22C854.5,-272.67 263.09,-226.46 354.5,-112 405.96,-47.57 1003.91,-19.17 1168.05,-12.56"/>
<polygon fill="midnightblue" stroke="midnightblue" points="1168.37,-16.05 1178.22,-12.16 1168.09,-9.06 1168.37,-16.05"/>
</g>
<!-- Node63&#45;&gt;Node22 -->
<g id="edge141" class="edge">
<title>Node63&#45;&gt;Node22</title>
<path fill="none" stroke="midnightblue" d="M1158.62,-280.45C1202.39,-266.91 1291.5,-240.37 1368.5,-224 1472.28,-201.93 1504.76,-224.19 1604.5,-188 1620.62,-182.15 1622.07,-175.49 1637.5,-168 1701.13,-137.09 1718.83,-132.64 1786.5,-112 1840,-95.68 1903.46,-81.71 1941.82,-73.83"/>
<polygon fill="midnightblue" stroke="midnightblue" points="1942.84,-77.2 1951.94,-71.78 1941.44,-70.34 1942.84,-77.2"/>
</g>
<!-- Node63&#45;&gt;Node23 -->
<g id="edge144" class="edge">
<title>Node63&#45;&gt;Node23</title>
<path fill="none" stroke="midnightblue" d="M1177.33,-280.49C1266.28,-263.82 1468.44,-225.26 1637.5,-188 1722.88,-169.18 1822.79,-144.28 1873.44,-131.44"/>
<polygon fill="midnightblue" stroke="midnightblue" points="1874.35,-134.82 1883.19,-128.97 1872.63,-128.04 1874.35,-134.82"/>
</g>
<!-- Node63&#45;&gt;Node25 -->
<g id="edge139" class="edge">
<title>Node63&#45;&gt;Node25</title>
<path fill="none" stroke="midnightblue" d="M1201.03,-283.24C1429.78,-264.29 2157.52,-204.01 2388.46,-184.88"/>
<polygon fill="midnightblue" stroke="midnightblue" points="2388.75,-188.37 2398.42,-184.06 2388.17,-181.4 2388.75,-188.37"/>
</g>
<!-- Node63&#45;&gt;Node41 -->
<g id="edge143" class="edge">
<title>Node63&#45;&gt;Node41</title>
<path fill="none" stroke="midnightblue" d="M1061.88,-283.73C995.51,-277.68 893.12,-265.68 806.5,-244 736.66,-226.52 719.65,-218.63 654.5,-188 621.92,-172.69 586.28,-151.1 564.15,-137.08"/>
<polygon fill="midnightblue" stroke="midnightblue" points="565.85,-134.01 555.54,-131.57 562.08,-139.91 565.85,-134.01"/>
</g>
<!-- Node63&#45;&gt;Node46 -->
<g id="edge140" class="edge">
<title>Node63&#45;&gt;Node46</title>
<path fill="none" stroke="midnightblue" d="M1201.27,-285.66C1404.95,-275.92 1996.83,-247.61 2194.99,-238.13"/>
<polygon fill="midnightblue" stroke="midnightblue" points="2195.42,-241.62 2205.24,-237.64 2195.08,-234.62 2195.42,-241.62"/>
</g>
<!-- Node64&#45;&gt;Node11 -->
<g id="edge160" class="edge">
<title>Node64&#45;&gt;Node11</title>
<path fill="none" stroke="midnightblue" d="M1038.07,-173.94C1136.05,-168.14 1333.14,-154.11 1398.5,-132 1414.75,-126.5 1415.83,-118.97 1431.5,-112 1510.38,-76.9 1532.68,-72.11 1617.5,-56 1783.95,-24.38 1983.4,-14.98 2087.43,-12.18"/>
<polygon fill="midnightblue" stroke="midnightblue" points="2087.59,-15.68 2097.5,-11.93 2087.41,-8.68 2087.59,-15.68"/>
</g>
<!-- Node64&#45;&gt;Node15 -->
<g id="edge163" class="edge">
<title>Node64&#45;&gt;Node15</title>
<path fill="none" stroke="midnightblue" d="M1034.11,-168.44C1092.99,-158.87 1188.35,-143.36 1250.99,-133.17"/>
<polygon fill="midnightblue" stroke="midnightblue" points="1251.83,-136.58 1261.14,-131.52 1250.71,-129.67 1251.83,-136.58"/>
</g>
<!-- Node64&#45;&gt;Node16 -->
<g id="edge165" class="edge">
<title>Node64&#45;&gt;Node16</title>
<path fill="none" stroke="midnightblue" d="M987.81,-168.28C998.09,-154.61 1019.72,-128.06 1043.5,-112 1067.58,-95.73 1098.43,-83.95 1121.81,-76.53"/>
<polygon fill="midnightblue" stroke="midnightblue" points="1123.11,-79.79 1131.66,-73.53 1121.07,-73.1 1123.11,-79.79"/>
</g>
<!-- Node64&#45;&gt;Node17 -->
<g id="edge168" class="edge">
<title>Node64&#45;&gt;Node17</title>
<path fill="none" stroke="midnightblue" d="M980.32,-168.24C977.87,-146.09 974.79,-87.37 1005.5,-56 1027.74,-33.28 1115.19,-20.58 1168.11,-14.82"/>
<polygon fill="midnightblue" stroke="midnightblue" points="1168.62,-18.29 1178.2,-13.76 1167.89,-11.33 1168.62,-18.29"/>
</g>
<!-- Node64&#45;&gt;Node22 -->
<g id="edge164" class="edge">
<title>Node64&#45;&gt;Node22</title>
<path fill="none" stroke="midnightblue" d="M1038.33,-173.92C1124.03,-168.69 1291.26,-156.2 1431.5,-132 1468.04,-125.69 1475.95,-118.25 1512.5,-112 1671.36,-84.83 1863.83,-72.7 1941.5,-68.65"/>
<polygon fill="midnightblue" stroke="midnightblue" points="1941.87,-72.14 1951.68,-68.13 1941.52,-65.15 1941.87,-72.14"/>
</g>
<!-- Node64&#45;&gt;Node23 -->
<g id="edge167" class="edge">
<title>Node64&#45;&gt;Node23</title>
<path fill="none" stroke="midnightblue" d="M1038.32,-173.68C1212.45,-163.52 1735.21,-133 1872.94,-124.96"/>
<polygon fill="midnightblue" stroke="midnightblue" points="1873.49,-128.43 1883.27,-124.36 1873.08,-121.45 1873.49,-128.43"/>
</g>
<!-- Node64&#45;&gt;Node28 -->
<g id="edge159" class="edge">
<title>Node64&#45;&gt;Node28</title>
<path fill="none" stroke="midnightblue" d="M1038,-172.89C1134.41,-165.72 1336.82,-149.96 1507.5,-132 1508.8,-131.86 1510.12,-131.72 1511.45,-131.58"/>
<polygon fill="midnightblue" stroke="midnightblue" points="1512.21,-135.01 1521.75,-130.42 1511.43,-128.06 1512.21,-135.01"/>
</g>
<!-- Node64&#45;&gt;Node41 -->
<g id="edge166" class="edge">
<title>Node64&#45;&gt;Node41</title>
<path fill="none" stroke="midnightblue" d="M924.56,-170C831.69,-158.57 650.49,-136.28 575.85,-127.1"/>
<polygon fill="midnightblue" stroke="midnightblue" points="575.99,-123.59 565.64,-125.85 575.13,-130.54 575.99,-123.59"/>
</g>
<!-- Node65 -->
<g id="node47" class="node">
<title>Node65</title>
<g id="a_node47"><a xlink:href="Host_8h.html" target="_top" xlink:title="llvm/Support/Host.h">
<polygon fill="none" stroke="red" points="773.5,-112.5 773.5,-131.5 877.5,-131.5 877.5,-112.5 773.5,-112.5"/>
<text text-anchor="middle" x="825.5" y="-119.5" font-family="Helvetica,sans-Serif" font-size="10.00">llvm/Support/Host.h</text>
</a>
</g>
</g>
<!-- Node64&#45;&gt;Node65 -->
<g id="edge161" class="edge">
<title>Node64&#45;&gt;Node65</title>
<path fill="none" stroke="midnightblue" d="M956.78,-168.44C930.65,-159.4 889.24,-145.06 859.92,-134.92"/>
<polygon fill="midnightblue" stroke="midnightblue" points="860.7,-131.48 850.1,-131.52 858.41,-138.1 860.7,-131.48"/>
</g>
<!-- Node65&#45;&gt;Node14 -->
<g id="edge162" class="edge">
<title>Node65&#45;&gt;Node14</title>
<path fill="none" stroke="midnightblue" d="M794.76,-112.44C758.49,-102.35 698.54,-85.66 662.26,-75.56"/>
<polygon fill="midnightblue" stroke="midnightblue" points="662.83,-72.09 652.25,-72.78 660.95,-78.83 662.83,-72.09"/>
</g>
<!-- Node71&#45;&gt;Node2 -->
<g id="edge188" class="edge">
<title>Node71&#45;&gt;Node2</title>
<path fill="none" stroke="midnightblue" d="M868.54,-719.22C1231.77,-717.58 2951.38,-707.74 3056.5,-669 3110.3,-649.17 3156.5,-644.84 3156.5,-587.5 3156.5,-587.5 3156.5,-587.5 3156.5,-345 3156.5,-260.22 3037.79,-239.79 2960.79,-235.45"/>
<polygon fill="midnightblue" stroke="midnightblue" points="2960.85,-231.95 2950.69,-234.96 2960.51,-238.94 2960.85,-231.95"/>
</g>
<!-- Node71&#45;&gt;Node14 -->
<g id="edge198" class="edge">
<title>Node71&#45;&gt;Node14</title>
<path fill="none" stroke="midnightblue" d="M734.11,-717.1C634.34,-712.55 453.05,-700.17 396.5,-669 362.76,-650.4 358.39,-636.63 341.5,-602 246.02,-406.25 200.01,-272.25 347.5,-112 381.13,-75.47 533.98,-68.54 600.46,-67.27"/>
<polygon fill="midnightblue" stroke="midnightblue" points="600.78,-70.76 610.72,-67.1 600.67,-63.76 600.78,-70.76"/>
</g>
<!-- Node71&#45;&gt;Node17 -->
<g id="edge199" class="edge">
<title>Node71&#45;&gt;Node17</title>
<path fill="none" stroke="midnightblue" d="M734.38,-720.05C567.19,-719.62 145.5,-706.72 145.5,-587.5 145.5,-587.5 145.5,-587.5 145.5,-121 145.5,-16.26 971.8,-10.7 1168.05,-10.85"/>
<polygon fill="midnightblue" stroke="midnightblue" points="1168.23,-14.35 1178.23,-10.87 1168.24,-7.35 1168.23,-14.35"/>
</g>
<!-- Node71&#45;&gt;Node19 -->
<g id="edge197" class="edge">
<title>Node71&#45;&gt;Node19</title>
<path fill="none" stroke="midnightblue" d="M868.59,-719.08C1196.21,-716.87 2620.05,-705.23 2814.5,-669 2920.29,-649.29 3042.5,-695.11 3042.5,-587.5 3042.5,-587.5 3042.5,-587.5 3042.5,-524 3042.5,-256.03 2770.45,-317.97 2519.5,-224 2463.35,-202.98 2425.8,-235.72 2389.5,-188 2366.5,-157.76 2383.56,-110.53 2395.86,-84.93"/>
<polygon fill="midnightblue" stroke="midnightblue" points="2399.14,-86.19 2400.55,-75.69 2392.9,-83.02 2399.14,-86.19"/>
</g>
<!-- Node71&#45;&gt;Node37 -->
<g id="edge189" class="edge">
<title>Node71&#45;&gt;Node37</title>
<path fill="none" stroke="midnightblue" d="M868.76,-719.48C1225.11,-719.21 2884.6,-715.42 3108.5,-669 3202.49,-649.51 3308.5,-683.49 3308.5,-587.5 3308.5,-587.5 3308.5,-587.5 3308.5,-289 3308.5,-232.38 3241.85,-203.71 3191.05,-190.08"/>
<polygon fill="midnightblue" stroke="midnightblue" points="3191.68,-186.63 3181.13,-187.55 3189.95,-193.41 3191.68,-186.63"/>
</g>
<!-- Node71&#45;&gt;Node47 -->
<g id="edge190" class="edge">
<title>Node71&#45;&gt;Node47</title>
<path fill="none" stroke="midnightblue" d="M868.74,-717.24C1164.14,-707.33 2346.04,-667.67 2661.03,-657.1"/>
<polygon fill="midnightblue" stroke="midnightblue" points="2661.55,-660.58 2671.43,-656.75 2661.31,-653.59 2661.55,-660.58"/>
</g>
<!-- Node71&#45;&gt;Node48 -->
<g id="edge191" class="edge">
<title>Node71&#45;&gt;Node48</title>
<path fill="none" stroke="midnightblue" d="M868.65,-714.43C1143.08,-693.69 2178.71,-615.44 2471.16,-593.34"/>
<polygon fill="midnightblue" stroke="midnightblue" points="2471.54,-596.82 2481.25,-592.58 2471.02,-589.84 2471.54,-596.82"/>
</g>
<!-- Node71&#45;&gt;Node52 -->
<g id="edge196" class="edge">
<title>Node71&#45;&gt;Node52</title>
<path fill="none" stroke="midnightblue" d="M798.1,-705.34C792.64,-681.27 782.5,-630.8 782.5,-587.5 782.5,-587.5 782.5,-587.5 782.5,-524 782.5,-460.64 1768.62,-416.08 2028.4,-405.45"/>
<polygon fill="midnightblue" stroke="midnightblue" points="2028.57,-408.94 2038.42,-405.04 2028.28,-401.95 2028.57,-408.94"/>
</g>
<!-- Node71&#45;&gt;Node64 -->
<g id="edge195" class="edge">
<title>Node71&#45;&gt;Node64</title>
<path fill="none" stroke="midnightblue" d="M734.42,-719.37C646.27,-717.6 498.62,-708.61 464.5,-669 400.4,-594.58 448.51,-544.91 464.5,-448 484.09,-329.29 508.14,-276.29 616.5,-224 667.65,-199.32 823.96,-187.21 914.59,-182.12"/>
<polygon fill="midnightblue" stroke="midnightblue" points="914.97,-185.6 924.76,-181.56 914.58,-178.61 914.97,-185.6"/>
</g>
<!-- Node72 -->
<g id="node49" class="node">
<title>Node72</title>
<g id="a_node49"><a xlink:href="ConvertUTF_8h.html" target="_top" xlink:title="llvm/Support/ConvertUTF.h">
<polygon fill="none" stroke="red" points="364,-112.5 364,-131.5 501,-131.5 501,-112.5 364,-112.5"/>
<text text-anchor="middle" x="432.5" y="-119.5" font-family="Helvetica,sans-Serif" font-size="10.00">llvm/Support/ConvertUTF.h</text>
</a>
</g>
</g>
<!-- Node71&#45;&gt;Node72 -->
<g id="edge192" class="edge">
<title>Node71&#45;&gt;Node72</title>
<path fill="none" stroke="midnightblue" d="M734.32,-717.16C643.34,-712.81 486.97,-700.83 440.5,-669 354.65,-610.19 326.5,-568.56 326.5,-464.5 326.5,-464.5 326.5,-464.5 326.5,-345 326.5,-260.74 389.45,-174.51 418.33,-139.38"/>
<polygon fill="midnightblue" stroke="midnightblue" points="421.13,-141.49 424.88,-131.59 415.77,-136.99 421.13,-141.49"/>
</g>
<!-- Node72&#45;&gt;Node14 -->
<g id="edge194" class="edge">
<title>Node72&#45;&gt;Node14</title>
<path fill="none" stroke="midnightblue" d="M464.03,-112.44C501.6,-102.25 563.92,-85.34 601.02,-75.27"/>
<polygon fill="midnightblue" stroke="midnightblue" points="602.04,-78.62 610.77,-72.62 600.21,-71.87 602.04,-78.62"/>
</g>
<!-- Node72&#45;&gt;Node16 -->
<g id="edge193" class="edge">
<title>Node72&#45;&gt;Node16</title>
<path fill="none" stroke="midnightblue" d="M501.39,-112.88C504.46,-112.57 507.51,-112.28 510.5,-112 743.57,-90.45 1024.81,-74.19 1121.72,-68.87"/>
<polygon fill="midnightblue" stroke="midnightblue" points="1122.03,-72.35 1131.82,-68.31 1121.65,-65.37 1122.03,-72.35"/>
</g>
<!-- Node73&#45;&gt;Node63 -->
<g id="edge202" class="edge">
<title>Node73&#45;&gt;Node63</title>
<path fill="none" stroke="midnightblue" d="M83.67,-643.95C147.4,-622.31 320.29,-563.63 464.5,-515 706.22,-433.48 997.42,-335.9 1096.53,-302.71"/>
<polygon fill="midnightblue" stroke="midnightblue" points="1097.68,-306.02 1106.05,-299.52 1095.45,-299.38 1097.68,-306.02"/>
</g>
</g>
</svg>
