<?xml version="1.0" encoding="UTF-8" standalone="no"?>
<!DOCTYPE svg PUBLIC "-//W3C//DTD SVG 1.1//EN"
 "http://www.w3.org/Graphics/SVG/1.1/DTD/svg11.dtd">
<!-- Generated by graphviz version 2.43.0 (0)
 -->
<!-- Title: include/llvm/Support/BinaryStreamRef.h Pages: 1 -->
<svg width="4543pt" height="610pt"
 viewBox="0.00 0.00 4543.00 610.00" xmlns="http://www.w3.org/2000/svg" xmlns:xlink="http://www.w3.org/1999/xlink">
<g id="graph0" class="graph" transform="scale(1 1) rotate(0) translate(4 606)">
<title>include/llvm/Support/BinaryStreamRef.h</title>
<!-- Node0 -->
<g id="node1" class="node">
<title>Node0</title>
<polygon fill="#bfbfbf" stroke="black" points="828.5,-571.5 828.5,-601.5 933.5,-601.5 933.5,-571.5 828.5,-571.5"/>
<text text-anchor="start" x="836.5" y="-589.5" font-family="Helvetica,sans-Serif" font-size="10.00">include/llvm/Support</text>
<text text-anchor="middle" x="881" y="-578.5" font-family="Helvetica,sans-Serif" font-size="10.00">/BinaryStreamRef.h</text>
</g>
<!-- Node1 -->
<g id="node2" class="node">
<title>Node1</title>
<g id="a_node2"><a xlink:href="ArrayRef_8h.html" target="_top" xlink:title="llvm/ADT/ArrayRef.h">
<polygon fill="none" stroke="black" points="1449,-224.5 1449,-243.5 1557,-243.5 1557,-224.5 1449,-224.5"/>
<text text-anchor="middle" x="1503" y="-231.5" font-family="Helvetica,sans-Serif" font-size="10.00">llvm/ADT/ArrayRef.h</text>
</a>
</g>
</g>
<!-- Node0&#45;&gt;Node1 -->
<g id="edge1" class="edge">
<title>Node0&#45;&gt;Node1</title>
<path fill="none" stroke="midnightblue" d="M877.34,-571.45C871.82,-549.02 862,-503.63 862,-464.5 862,-464.5 862,-464.5 862,-401 862,-370.2 862.66,-356.09 886,-336 945.86,-284.49 983.25,-318.58 1060,-300 1092.28,-292.19 1099.42,-286.46 1132,-280 1238.52,-258.87 1364.35,-246.13 1438.7,-239.85"/>
<polygon fill="midnightblue" stroke="midnightblue" points="1439.16,-243.32 1448.84,-239 1438.58,-236.35 1439.16,-243.32"/>
</g>
<!-- Node20 -->
<g id="node13" class="node">
<title>Node20</title>
<polygon fill="none" stroke="#bfbfbf" points="1614,-56.5 1614,-75.5 1670,-75.5 1670,-56.5 1614,-56.5"/>
<text text-anchor="middle" x="1642" y="-63.5" font-family="Helvetica,sans-Serif" font-size="10.00">algorithm</text>
</g>
<!-- Node0&#45;&gt;Node20 -->
<g id="edge196" class="edge">
<title>Node0&#45;&gt;Node20</title>
<path fill="none" stroke="midnightblue" d="M828.4,-581.55C758.58,-573.11 644,-546.73 644,-464.5 644,-464.5 644,-464.5 644,-345 644,-246.6 690.47,-214.84 777,-168 883.74,-110.22 1206,-167.73 1322,-132 1338.75,-126.84 1339.49,-117.91 1356,-112 1400.92,-95.91 1536.5,-78.94 1603.57,-71.24"/>
<polygon fill="midnightblue" stroke="midnightblue" points="1604.18,-74.69 1613.72,-70.09 1603.39,-67.74 1604.18,-74.69"/>
</g>
<!-- Node34 -->
<g id="node26" class="node">
<title>Node34</title>
<polygon fill="none" stroke="#bfbfbf" points="488,-56.5 488,-75.5 540,-75.5 540,-56.5 488,-56.5"/>
<text text-anchor="middle" x="514" y="-63.5" font-family="Helvetica,sans-Serif" font-size="10.00">memory</text>
</g>
<!-- Node0&#45;&gt;Node34 -->
<g id="edge198" class="edge">
<title>Node0&#45;&gt;Node34</title>
<path fill="none" stroke="midnightblue" d="M828.2,-583.84C638.13,-577.19 0,-548.59 0,-464.5 0,-464.5 0,-464.5 0,-177 0,-79.21 360.22,-68.06 477.54,-67.02"/>
<polygon fill="midnightblue" stroke="midnightblue" points="477.83,-70.52 487.8,-66.95 477.78,-63.52 477.83,-70.52"/>
</g>
<!-- Node37 -->
<g id="node29" class="node">
<title>Node37</title>
<g id="a_node29"><a xlink:href="Optional_8h.html" target="_top" xlink:title="llvm/ADT/Optional.h">
<polygon fill="none" stroke="black" points="1208.5,-112.5 1208.5,-131.5 1313.5,-131.5 1313.5,-112.5 1208.5,-112.5"/>
<text text-anchor="middle" x="1261" y="-119.5" font-family="Helvetica,sans-Serif" font-size="10.00">llvm/ADT/Optional.h</text>
</a>
</g>
</g>
<!-- Node0&#45;&gt;Node37 -->
<g id="edge97" class="edge">
<title>Node0&#45;&gt;Node37</title>
<path fill="none" stroke="midnightblue" d="M828.13,-580.24C721.77,-568.18 492,-534.08 492,-464.5 492,-464.5 492,-464.5 492,-289 492,-164.76 624.17,-200.81 744,-168 786.83,-156.27 1070.34,-135.92 1198.41,-127.18"/>
<polygon fill="midnightblue" stroke="midnightblue" points="1198.72,-130.67 1208.46,-126.5 1198.25,-123.68 1198.72,-130.67"/>
</g>
<!-- Node40 -->
<g id="node32" class="node">
<title>Node40</title>
<polygon fill="none" stroke="#bfbfbf" points="1784,-112.5 1784,-131.5 1830,-131.5 1830,-112.5 1784,-112.5"/>
<text text-anchor="middle" x="1807" y="-119.5" font-family="Helvetica,sans-Serif" font-size="10.00">cstdint</text>
</g>
<!-- Node0&#45;&gt;Node40 -->
<g id="edge197" class="edge">
<title>Node0&#45;&gt;Node40</title>
<path fill="none" stroke="midnightblue" d="M884.66,-571.45C890.18,-549.02 900,-503.63 900,-464.5 900,-464.5 900,-464.5 900,-401 900,-293.04 1780.55,-272.29 1848,-188 1860.85,-171.94 1843.36,-151.66 1827.41,-138.06"/>
<polygon fill="midnightblue" stroke="midnightblue" points="1829.37,-135.14 1819.38,-131.61 1824.99,-140.6 1829.37,-135.14"/>
</g>
<!-- Node45 -->
<g id="node37" class="node">
<title>Node45</title>
<g id="a_node37"><a xlink:href="BinaryStream_8h.html" target="_top" xlink:title="llvm/Support/BinaryStream.h">
<polygon fill="none" stroke="black" points="1594,-515.5 1594,-534.5 1736,-534.5 1736,-515.5 1594,-515.5"/>
<text text-anchor="middle" x="1665" y="-522.5" font-family="Helvetica,sans-Serif" font-size="10.00">llvm/Support/BinaryStream.h</text>
</a>
</g>
</g>
<!-- Node0&#45;&gt;Node45 -->
<g id="edge98" class="edge">
<title>Node0&#45;&gt;Node45</title>
<path fill="none" stroke="midnightblue" d="M933.66,-581.5C1067.7,-571.33 1422.58,-544.4 1583.55,-532.18"/>
<polygon fill="midnightblue" stroke="midnightblue" points="1584.17,-535.64 1593.87,-531.4 1583.64,-528.67 1584.17,-535.64"/>
</g>
<!-- Node47 -->
<g id="node39" class="node">
<title>Node47</title>
<g id="a_node39"><a xlink:href="BinaryStreamError_8h.html" target="_top" xlink:title="llvm/Support/BinaryStream\lError.h">
<polygon fill="none" stroke="black" points="1731,-448.5 1731,-478.5 1865,-478.5 1865,-448.5 1731,-448.5"/>
<text text-anchor="start" x="1739" y="-466.5" font-family="Helvetica,sans-Serif" font-size="10.00">llvm/Support/BinaryStream</text>
<text text-anchor="middle" x="1798" y="-455.5" font-family="Helvetica,sans-Serif" font-size="10.00">Error.h</text>
</a>
</g>
</g>
<!-- Node0&#45;&gt;Node47 -->
<g id="edge194" class="edge">
<title>Node0&#45;&gt;Node47</title>
<path fill="none" stroke="midnightblue" d="M933.67,-584.98C1110.18,-582.89 1673.66,-573.26 1745,-535 1764.29,-524.65 1778.56,-503.88 1787.41,-487.55"/>
<polygon fill="midnightblue" stroke="midnightblue" points="1790.56,-489.06 1791.98,-478.56 1784.33,-485.89 1790.56,-489.06"/>
</g>
<!-- Node49 -->
<g id="node41" class="node">
<title>Node49</title>
<g id="a_node41"><a xlink:href="Support_2Error_8h.html" target="_top" xlink:title="llvm/Support/Error.h">
<polygon fill="none" stroke="black" points="2315,-392.5 2315,-411.5 2419,-411.5 2419,-392.5 2315,-392.5"/>
<text text-anchor="middle" x="2367" y="-399.5" font-family="Helvetica,sans-Serif" font-size="10.00">llvm/Support/Error.h</text>
</a>
</g>
</g>
<!-- Node0&#45;&gt;Node49 -->
<g id="edge195" class="edge">
<title>Node0&#45;&gt;Node49</title>
<path fill="none" stroke="midnightblue" d="M933.7,-585.47C1071.81,-584.74 1455.38,-578.61 1771,-535 1982.95,-505.71 2231.28,-440.52 2326.79,-414.27"/>
<polygon fill="midnightblue" stroke="midnightblue" points="2327.9,-417.6 2336.61,-411.56 2326.04,-410.85 2327.9,-417.6"/>
</g>
<!-- Node2 -->
<g id="node3" class="node">
<title>Node2</title>
<g id="a_node3"><a xlink:href="Hashing_8h.html" target="_top" xlink:title="llvm/ADT/Hashing.h">
<polygon fill="none" stroke="black" points="2303.5,-112.5 2303.5,-131.5 2408.5,-131.5 2408.5,-112.5 2303.5,-112.5"/>
<text text-anchor="middle" x="2356" y="-119.5" font-family="Helvetica,sans-Serif" font-size="10.00">llvm/ADT/Hashing.h</text>
</a>
</g>
</g>
<!-- Node1&#45;&gt;Node2 -->
<g id="edge2" class="edge">
<title>Node1&#45;&gt;Node2</title>
<path fill="none" stroke="midnightblue" d="M1557.23,-226.4C1683.93,-210.91 2009.51,-170.71 2293.17,-132.09"/>
<polygon fill="midnightblue" stroke="midnightblue" points="2293.81,-135.54 2303.24,-130.72 2292.86,-128.6 2293.81,-135.54"/>
</g>
<!-- Node10 -->
<g id="node6" class="node">
<title>Node10</title>
<g id="a_node6"><a xlink:href="Compiler_8h.html" target="_top" xlink:title="llvm/Support/Compiler.h">
<polygon fill="none" stroke="red" points="2946,-0.5 2946,-19.5 3068,-19.5 3068,-0.5 2946,-0.5"/>
<text text-anchor="middle" x="3007" y="-7.5" font-family="Helvetica,sans-Serif" font-size="10.00">llvm/Support/Compiler.h</text>
</a>
</g>
</g>
<!-- Node1&#45;&gt;Node10 -->
<g id="edge87" class="edge">
<title>Node1&#45;&gt;Node10</title>
<path fill="none" stroke="midnightblue" d="M1557.1,-228.13C1642.98,-220.31 1815.76,-204.17 1962,-188 2164.51,-165.61 2218.7,-178.82 2417,-132 2515.23,-108.81 2532.73,-79.03 2631,-56 2735.23,-31.57 2859,-20.02 2935.27,-14.84"/>
<polygon fill="midnightblue" stroke="midnightblue" points="2935.97,-18.3 2945.71,-14.15 2935.5,-11.31 2935.97,-18.3"/>
</g>
<!-- Node15 -->
<g id="node9" class="node">
<title>Node15</title>
<polygon fill="none" stroke="#bfbfbf" points="3753.5,-0.5 3753.5,-19.5 3802.5,-19.5 3802.5,-0.5 3753.5,-0.5"/>
<text text-anchor="middle" x="3778" y="-7.5" font-family="Helvetica,sans-Serif" font-size="10.00">cstddef</text>
</g>
<!-- Node1&#45;&gt;Node15 -->
<g id="edge91" class="edge">
<title>Node1&#45;&gt;Node15</title>
<path fill="none" stroke="midnightblue" d="M1557.32,-232.82C1820.59,-231.76 2957.54,-225.07 3111,-188 3243.17,-156.07 3256.33,-93.62 3387,-56 3514.46,-19.3 3673.43,-12.38 3742.85,-11.18"/>
<polygon fill="midnightblue" stroke="midnightblue" points="3743.25,-14.68 3753.2,-11.04 3743.15,-7.68 3743.25,-14.68"/>
</g>
<!-- Node16 -->
<g id="node10" class="node">
<title>Node16</title>
<polygon fill="none" stroke="#bfbfbf" points="1899,-0.5 1899,-19.5 1961,-19.5 1961,-0.5 1899,-0.5"/>
<text text-anchor="middle" x="1930" y="-7.5" font-family="Helvetica,sans-Serif" font-size="10.00">type_traits</text>
</g>
<!-- Node1&#45;&gt;Node16 -->
<g id="edge95" class="edge">
<title>Node1&#45;&gt;Node16</title>
<path fill="none" stroke="midnightblue" d="M1448.95,-231.35C1354.85,-227.78 1155.08,-217.19 989,-188 893.86,-171.28 866.33,-173.29 779,-132 735.24,-111.31 667.41,-90.85 701,-56 743.1,-12.33 1679.31,-10.73 1888.71,-10.92"/>
<polygon fill="midnightblue" stroke="midnightblue" points="1888.96,-14.42 1898.96,-10.93 1888.96,-7.42 1888.96,-14.42"/>
</g>
<!-- Node1&#45;&gt;Node20 -->
<g id="edge88" class="edge">
<title>Node1&#45;&gt;Node20</title>
<path fill="none" stroke="midnightblue" d="M1510.47,-224.08C1532.83,-197.38 1599.41,-117.87 1628.33,-83.32"/>
<polygon fill="midnightblue" stroke="midnightblue" points="1631.09,-85.48 1634.83,-75.57 1625.72,-80.99 1631.09,-85.48"/>
</g>
<!-- Node21 -->
<g id="node14" class="node">
<title>Node21</title>
<polygon fill="none" stroke="#bfbfbf" points="2640.5,-56.5 2640.5,-75.5 2689.5,-75.5 2689.5,-56.5 2640.5,-56.5"/>
<text text-anchor="middle" x="2665" y="-63.5" font-family="Helvetica,sans-Serif" font-size="10.00">cassert</text>
</g>
<!-- Node1&#45;&gt;Node21 -->
<g id="edge90" class="edge">
<title>Node1&#45;&gt;Node21</title>
<path fill="none" stroke="midnightblue" d="M1557.27,-232.26C1725.69,-229.65 2237.92,-219.29 2401,-188 2476.64,-173.49 2495.74,-165.69 2565,-132 2594.71,-117.55 2626.23,-95.86 2645.77,-81.57"/>
<polygon fill="midnightblue" stroke="midnightblue" points="2647.9,-84.35 2653.85,-75.58 2643.73,-78.72 2647.9,-84.35"/>
</g>
<!-- Node23 -->
<g id="node16" class="node">
<title>Node23</title>
<g id="a_node16"><a xlink:href="None_8h.html" target="_top" xlink:title="llvm/ADT/None.h">
<polygon fill="none" stroke="black" points="1084,-56.5 1084,-75.5 1176,-75.5 1176,-56.5 1084,-56.5"/>
<text text-anchor="middle" x="1130" y="-63.5" font-family="Helvetica,sans-Serif" font-size="10.00">llvm/ADT/None.h</text>
</a>
</g>
</g>
<!-- Node1&#45;&gt;Node23 -->
<g id="edge21" class="edge">
<title>Node1&#45;&gt;Node23</title>
<path fill="none" stroke="midnightblue" d="M1448.94,-231.65C1284.47,-227.3 799.96,-212.43 777,-188 688.29,-93.62 953.43,-72.86 1073.84,-68.29"/>
<polygon fill="midnightblue" stroke="midnightblue" points="1074.11,-71.78 1083.98,-67.93 1073.87,-64.79 1074.11,-71.78"/>
</g>
<!-- Node24 -->
<g id="node17" class="node">
<title>Node24</title>
<g id="a_node17"><a xlink:href="SmallVector_8h.html" target="_top" xlink:title="llvm/ADT/SmallVector.h">
<polygon fill="none" stroke="black" points="2681,-168.5 2681,-187.5 2803,-187.5 2803,-168.5 2681,-168.5"/>
<text text-anchor="middle" x="2742" y="-175.5" font-family="Helvetica,sans-Serif" font-size="10.00">llvm/ADT/SmallVector.h</text>
</a>
</g>
</g>
<!-- Node1&#45;&gt;Node24 -->
<g id="edge22" class="edge">
<title>Node1&#45;&gt;Node24</title>
<path fill="none" stroke="midnightblue" d="M1557.03,-230.64C1755.77,-221.98 2446.25,-191.89 2670.83,-182.1"/>
<polygon fill="midnightblue" stroke="midnightblue" points="2671.01,-185.6 2680.85,-181.67 2670.7,-178.6 2671.01,-185.6"/>
</g>
<!-- Node26 -->
<g id="node19" class="node">
<title>Node26</title>
<polygon fill="none" stroke="#bfbfbf" points="620.5,-0.5 620.5,-19.5 667.5,-19.5 667.5,-0.5 620.5,-0.5"/>
<text text-anchor="middle" x="644" y="-7.5" font-family="Helvetica,sans-Serif" font-size="10.00">iterator</text>
</g>
<!-- Node1&#45;&gt;Node26 -->
<g id="edge93" class="edge">
<title>Node1&#45;&gt;Node26</title>
<path fill="none" stroke="midnightblue" d="M1448.86,-233.24C1286.28,-233.48 804.29,-230.48 654,-188 560.25,-161.5 419.87,-133.42 479,-56 494.86,-35.24 566.89,-21.75 610.37,-15.35"/>
<polygon fill="midnightblue" stroke="midnightblue" points="611.09,-18.79 620.49,-13.92 610.1,-11.86 611.09,-18.79"/>
</g>
<!-- Node33 -->
<g id="node25" class="node">
<title>Node33</title>
<polygon fill="none" stroke="#bfbfbf" points="1502.5,-112.5 1502.5,-131.5 1575.5,-131.5 1575.5,-112.5 1502.5,-112.5"/>
<text text-anchor="middle" x="1539" y="-119.5" font-family="Helvetica,sans-Serif" font-size="10.00">initializer_list</text>
</g>
<!-- Node1&#45;&gt;Node33 -->
<g id="edge92" class="edge">
<title>Node1&#45;&gt;Node33</title>
<path fill="none" stroke="midnightblue" d="M1505.82,-224.37C1511.66,-206.54 1525.16,-165.3 1533.02,-141.27"/>
<polygon fill="midnightblue" stroke="midnightblue" points="1536.4,-142.18 1536.19,-131.59 1529.75,-140.01 1536.4,-142.18"/>
</g>
<!-- Node1&#45;&gt;Node34 -->
<g id="edge94" class="edge">
<title>Node1&#45;&gt;Node34</title>
<path fill="none" stroke="midnightblue" d="M1448.91,-231.42C1301.05,-226.82 892.36,-212.23 760,-188 677.59,-172.91 651.87,-175.05 580,-132 558.78,-119.29 539.23,-98.39 527.01,-83.73"/>
<polygon fill="midnightblue" stroke="midnightblue" points="529.71,-81.5 520.7,-75.92 524.27,-85.9 529.71,-81.5"/>
</g>
<!-- Node36 -->
<g id="node28" class="node">
<title>Node36</title>
<g id="a_node28"><a xlink:href="STLExtras_8h.html" target="_top" xlink:title="llvm/ADT/STLExtras.h">
<polygon fill="none" stroke="black" points="1221,-168.5 1221,-187.5 1337,-187.5 1337,-168.5 1221,-168.5"/>
<text text-anchor="middle" x="1279" y="-175.5" font-family="Helvetica,sans-Serif" font-size="10.00">llvm/ADT/STLExtras.h</text>
</a>
</g>
</g>
<!-- Node1&#45;&gt;Node36 -->
<g id="edge55" class="edge">
<title>Node1&#45;&gt;Node36</title>
<path fill="none" stroke="midnightblue" d="M1467.51,-224.44C1428.68,-215.08 1366.34,-200.06 1324.08,-189.87"/>
<polygon fill="midnightblue" stroke="midnightblue" points="1324.87,-186.46 1314.33,-187.52 1323.23,-193.26 1324.87,-186.46"/>
</g>
<!-- Node43 -->
<g id="node35" class="node">
<title>Node43</title>
<polygon fill="none" stroke="#bfbfbf" points="786,-168.5 786,-187.5 824,-187.5 824,-168.5 786,-168.5"/>
<text text-anchor="middle" x="805" y="-175.5" font-family="Helvetica,sans-Serif" font-size="10.00">array</text>
</g>
<!-- Node1&#45;&gt;Node43 -->
<g id="edge89" class="edge">
<title>Node1&#45;&gt;Node43</title>
<path fill="none" stroke="midnightblue" d="M1448.7,-232.96C1334.72,-232.09 1062.51,-225.82 838,-188 836.72,-187.78 835.41,-187.54 834.09,-187.27"/>
<polygon fill="midnightblue" stroke="midnightblue" points="834.59,-183.79 824.05,-184.89 832.97,-190.6 834.59,-183.79"/>
</g>
<!-- Node44 -->
<g id="node36" class="node">
<title>Node44</title>
<polygon fill="none" stroke="#bfbfbf" points="1570,-168.5 1570,-187.5 1614,-187.5 1614,-168.5 1570,-168.5"/>
<text text-anchor="middle" x="1592" y="-175.5" font-family="Helvetica,sans-Serif" font-size="10.00">vector</text>
</g>
<!-- Node1&#45;&gt;Node44 -->
<g id="edge96" class="edge">
<title>Node1&#45;&gt;Node44</title>
<path fill="none" stroke="midnightblue" d="M1517.3,-224.32C1531.18,-215.9 1552.49,-202.97 1568.8,-193.07"/>
<polygon fill="midnightblue" stroke="midnightblue" points="1571,-195.83 1577.74,-187.65 1567.37,-189.85 1571,-195.83"/>
</g>
<!-- Node3 -->
<g id="node4" class="node">
<title>Node3</title>
<g id="a_node4"><a xlink:href="Support_2DataTypes_8h.html" target="_top" xlink:title="llvm/Support/DataTypes.h">
<polygon fill="none" stroke="red" points="2214.5,-0.5 2214.5,-19.5 2345.5,-19.5 2345.5,-0.5 2214.5,-0.5"/>
<text text-anchor="middle" x="2280" y="-7.5" font-family="Helvetica,sans-Serif" font-size="10.00">llvm/Support/DataTypes.h</text>
</a>
</g>
</g>
<!-- Node2&#45;&gt;Node3 -->
<g id="edge3" class="edge">
<title>Node2&#45;&gt;Node3</title>
<path fill="none" stroke="midnightblue" d="M2350.04,-112.37C2337.49,-94.22 2308.19,-51.8 2291.74,-27.99"/>
<polygon fill="midnightblue" stroke="midnightblue" points="2294.5,-25.83 2285.94,-19.59 2288.74,-29.81 2294.5,-25.83"/>
</g>
<!-- Node9 -->
<g id="node5" class="node">
<title>Node9</title>
<g id="a_node5"><a xlink:href="Support_2ErrorHandling_8h.html" target="_top" xlink:title="llvm/Support/ErrorHandling.h">
<polygon fill="none" stroke="black" points="3551,-56.5 3551,-75.5 3693,-75.5 3693,-56.5 3551,-56.5"/>
<text text-anchor="middle" x="3622" y="-63.5" font-family="Helvetica,sans-Serif" font-size="10.00">llvm/Support/ErrorHandling.h</text>
</a>
</g>
</g>
<!-- Node2&#45;&gt;Node9 -->
<g id="edge4" class="edge">
<title>Node2&#45;&gt;Node9</title>
<path fill="none" stroke="midnightblue" d="M2408.68,-120.39C2573.92,-118.19 3096.86,-108.98 3540.78,-76.03"/>
<polygon fill="midnightblue" stroke="midnightblue" points="3541.21,-79.51 3550.93,-75.27 3540.69,-72.53 3541.21,-79.51"/>
</g>
<!-- Node13 -->
<g id="node7" class="node">
<title>Node13</title>
<polygon fill="none" stroke="#bfbfbf" points="4203.5,-0.5 4203.5,-19.5 4244.5,-19.5 4244.5,-0.5 4203.5,-0.5"/>
<text text-anchor="middle" x="4224" y="-7.5" font-family="Helvetica,sans-Serif" font-size="10.00">string</text>
</g>
<!-- Node2&#45;&gt;Node13 -->
<g id="edge19" class="edge">
<title>Node2&#45;&gt;Node13</title>
<path fill="none" stroke="midnightblue" d="M2383.76,-112.45C2432.99,-97.73 2539.06,-68.04 2631,-56 2711.3,-45.49 3977.69,-16.55 4193,-11.7"/>
<polygon fill="midnightblue" stroke="midnightblue" points="4193.35,-15.19 4203.27,-11.46 4193.19,-8.19 4193.35,-15.19"/>
</g>
<!-- Node14 -->
<g id="node8" class="node">
<title>Node14</title>
<g id="a_node8"><a xlink:href="SwapByteOrder_8h.html" target="_top" xlink:title="llvm/Support/SwapByteOrder.h">
<polygon fill="none" stroke="red" points="2346,-56.5 2346,-75.5 2498,-75.5 2498,-56.5 2346,-56.5"/>
<text text-anchor="middle" x="2422" y="-63.5" font-family="Helvetica,sans-Serif" font-size="10.00">llvm/Support/SwapByteOrder.h</text>
</a>
</g>
</g>
<!-- Node2&#45;&gt;Node14 -->
<g id="edge7" class="edge">
<title>Node2&#45;&gt;Node14</title>
<path fill="none" stroke="midnightblue" d="M2366.6,-112.32C2376.46,-104.26 2391.35,-92.08 2403.22,-82.37"/>
<polygon fill="midnightblue" stroke="midnightblue" points="2405.68,-84.88 2411.2,-75.83 2401.25,-79.46 2405.68,-84.88"/>
</g>
<!-- Node18 -->
<g id="node11" class="node">
<title>Node18</title>
<g id="a_node11"><a xlink:href="type__traits_8h.html" target="_top" xlink:title="llvm/Support/type_traits.h">
<polygon fill="none" stroke="black" points="1866,-56.5 1866,-75.5 1994,-75.5 1994,-56.5 1866,-56.5"/>
<text text-anchor="middle" x="1930" y="-63.5" font-family="Helvetica,sans-Serif" font-size="10.00">llvm/Support/type_traits.h</text>
</a>
</g>
</g>
<!-- Node2&#45;&gt;Node18 -->
<g id="edge12" class="edge">
<title>Node2&#45;&gt;Node18</title>
<path fill="none" stroke="midnightblue" d="M2303.25,-113.26C2300.12,-112.83 2297.02,-112.41 2294,-112 2193.8,-98.53 2077.86,-84.46 2004.26,-75.71"/>
<polygon fill="midnightblue" stroke="midnightblue" points="2004.5,-72.22 1994.16,-74.52 2003.68,-79.17 2004.5,-72.22"/>
</g>
<!-- Node19 -->
<g id="node12" class="node">
<title>Node19</title>
<polygon fill="none" stroke="#bfbfbf" points="884,-0.5 884,-19.5 924,-19.5 924,-0.5 884,-0.5"/>
<text text-anchor="middle" x="904" y="-7.5" font-family="Helvetica,sans-Serif" font-size="10.00">utility</text>
</g>
<!-- Node2&#45;&gt;Node19 -->
<g id="edge20" class="edge">
<title>Node2&#45;&gt;Node19</title>
<path fill="none" stroke="midnightblue" d="M2319.41,-112.49C2255.59,-98.06 2119.58,-69.05 2003,-56 1581.65,-8.82 1064.5,-9.63 934.66,-10.67"/>
<polygon fill="midnightblue" stroke="midnightblue" points="934.28,-7.18 924.31,-10.77 934.34,-14.18 934.28,-7.18"/>
</g>
<!-- Node2&#45;&gt;Node20 -->
<g id="edge16" class="edge">
<title>Node2&#45;&gt;Node20</title>
<path fill="none" stroke="midnightblue" d="M2303.27,-113.06C2300.14,-112.68 2297.03,-112.32 2294,-112 2057.9,-86.93 1997.82,-92.95 1761,-76 1734.12,-74.08 1703.83,-71.78 1680.54,-69.99"/>
<polygon fill="midnightblue" stroke="midnightblue" points="1680.61,-66.49 1670.37,-69.21 1680.07,-73.47 1680.61,-66.49"/>
</g>
<!-- Node2&#45;&gt;Node21 -->
<g id="edge17" class="edge">
<title>Node2&#45;&gt;Node21</title>
<path fill="none" stroke="midnightblue" d="M2405.67,-112.46C2457.82,-103.48 2542.19,-88.88 2615,-76 2619.9,-75.13 2625.07,-74.21 2630.15,-73.3"/>
<polygon fill="midnightblue" stroke="midnightblue" points="2631.11,-76.68 2640.34,-71.47 2629.88,-69.79 2631.11,-76.68"/>
</g>
<!-- Node22 -->
<g id="node15" class="node">
<title>Node22</title>
<polygon fill="none" stroke="#bfbfbf" points="3098,-56.5 3098,-75.5 3144,-75.5 3144,-56.5 3098,-56.5"/>
<text text-anchor="middle" x="3121" y="-63.5" font-family="Helvetica,sans-Serif" font-size="10.00">cstring</text>
</g>
<!-- Node2&#45;&gt;Node22 -->
<g id="edge18" class="edge">
<title>Node2&#45;&gt;Node22</title>
<path fill="none" stroke="midnightblue" d="M2408.58,-117.29C2555.55,-106.91 2967.68,-77.82 3087.77,-69.35"/>
<polygon fill="midnightblue" stroke="midnightblue" points="3088.1,-72.83 3097.83,-68.64 3087.61,-65.85 3088.1,-72.83"/>
</g>
<!-- Node9&#45;&gt;Node10 -->
<g id="edge5" class="edge">
<title>Node9&#45;&gt;Node10</title>
<path fill="none" stroke="midnightblue" d="M3550.91,-56.9C3547.9,-56.59 3544.92,-56.29 3542,-56 3376.09,-39.69 3180.86,-24.21 3078.27,-16.35"/>
<polygon fill="midnightblue" stroke="midnightblue" points="3078.27,-12.84 3068.03,-15.57 3077.73,-19.82 3078.27,-12.84"/>
</g>
<!-- Node9&#45;&gt;Node13 -->
<g id="edge6" class="edge">
<title>Node9&#45;&gt;Node13</title>
<path fill="none" stroke="midnightblue" d="M3693.12,-58.62C3824.66,-46.82 4100.92,-22.04 4193.23,-13.76"/>
<polygon fill="midnightblue" stroke="midnightblue" points="4193.66,-17.24 4203.31,-12.86 4193.03,-10.26 4193.66,-17.24"/>
</g>
<!-- Node14&#45;&gt;Node3 -->
<g id="edge9" class="edge">
<title>Node14&#45;&gt;Node3</title>
<path fill="none" stroke="midnightblue" d="M2399.5,-56.44C2375.92,-47.48 2338.68,-33.31 2312.04,-23.18"/>
<polygon fill="midnightblue" stroke="midnightblue" points="2312.99,-19.8 2302.4,-19.52 2310.5,-26.34 2312.99,-19.8"/>
</g>
<!-- Node14&#45;&gt;Node10 -->
<g id="edge8" class="edge">
<title>Node14&#45;&gt;Node10</title>
<path fill="none" stroke="midnightblue" d="M2498.18,-57.97C2611.9,-47.47 2824.54,-27.84 2935.49,-17.6"/>
<polygon fill="midnightblue" stroke="midnightblue" points="2935.94,-21.07 2945.58,-16.67 2935.3,-14.1 2935.94,-21.07"/>
</g>
<!-- Node14&#45;&gt;Node15 -->
<g id="edge10" class="edge">
<title>Node14&#45;&gt;Node15</title>
<path fill="none" stroke="midnightblue" d="M2498.38,-60.57C2526.27,-59.02 2558.06,-57.34 2587,-56 3043.79,-34.91 3599.47,-16.7 3742.9,-12.11"/>
<polygon fill="midnightblue" stroke="midnightblue" points="3743.38,-15.6 3753.26,-11.78 3743.16,-8.6 3743.38,-15.6"/>
</g>
<!-- Node14&#45;&gt;Node16 -->
<g id="edge11" class="edge">
<title>Node14&#45;&gt;Node16</title>
<path fill="none" stroke="midnightblue" d="M2345.93,-56.65C2240.53,-45.08 2053.72,-24.58 1971.18,-15.52"/>
<polygon fill="midnightblue" stroke="midnightblue" points="1971.49,-12.03 1961.17,-14.42 1970.73,-18.99 1971.49,-12.03"/>
</g>
<!-- Node18&#45;&gt;Node10 -->
<g id="edge13" class="edge">
<title>Node18&#45;&gt;Node10</title>
<path fill="none" stroke="midnightblue" d="M1994.24,-57.23C1998.89,-56.78 2003.52,-56.36 2008,-56 2354.94,-28.2 2771.13,-16.35 2935.36,-12.51"/>
<polygon fill="midnightblue" stroke="midnightblue" points="2935.89,-16 2945.81,-12.27 2935.73,-9 2935.89,-16"/>
</g>
<!-- Node18&#45;&gt;Node16 -->
<g id="edge14" class="edge">
<title>Node18&#45;&gt;Node16</title>
<path fill="none" stroke="midnightblue" d="M1930,-56.08C1930,-49.01 1930,-38.86 1930,-29.99"/>
<polygon fill="midnightblue" stroke="midnightblue" points="1933.5,-29.75 1930,-19.75 1926.5,-29.75 1933.5,-29.75"/>
</g>
<!-- Node18&#45;&gt;Node19 -->
<g id="edge15" class="edge">
<title>Node18&#45;&gt;Node19</title>
<path fill="none" stroke="midnightblue" d="M1865.76,-57.24C1861.11,-56.78 1856.48,-56.36 1852,-56 1491.29,-26.66 1051.69,-14.54 934.1,-11.69"/>
<polygon fill="midnightblue" stroke="midnightblue" points="934.13,-8.19 924.05,-11.45 933.96,-15.19 934.13,-8.19"/>
</g>
<!-- Node24&#45;&gt;Node9 -->
<g id="edge43" class="edge">
<title>Node24&#45;&gt;Node9</title>
<path fill="none" stroke="midnightblue" d="M2803.04,-174.56C3006.85,-166.35 3651.6,-139.77 3659,-132 3672.95,-117.35 3656.21,-96.45 3640.97,-82.34"/>
<polygon fill="midnightblue" stroke="midnightblue" points="3643.14,-79.59 3633.31,-75.64 3638.54,-84.86 3643.14,-79.59"/>
</g>
<!-- Node24&#45;&gt;Node10 -->
<g id="edge29" class="edge">
<title>Node24&#45;&gt;Node10</title>
<path fill="none" stroke="midnightblue" d="M2755.87,-168.31C2799.07,-141.25 2931.45,-58.32 2984.59,-25.04"/>
<polygon fill="midnightblue" stroke="midnightblue" points="2986.65,-27.88 2993.26,-19.61 2982.93,-21.95 2986.65,-27.88"/>
</g>
<!-- Node24&#45;&gt;Node15 -->
<g id="edge46" class="edge">
<title>Node24&#45;&gt;Node15</title>
<path fill="none" stroke="midnightblue" d="M2803.19,-174.7C3007.65,-166.94 3655.4,-141.64 3675,-132 3720.64,-109.56 3753.96,-56.69 3769.04,-28.85"/>
<polygon fill="midnightblue" stroke="midnightblue" points="3772.22,-30.32 3773.76,-19.83 3766.02,-27.07 3772.22,-30.32"/>
</g>
<!-- Node24&#45;&gt;Node16 -->
<g id="edge53" class="edge">
<title>Node24&#45;&gt;Node16</title>
<path fill="none" stroke="midnightblue" d="M2680.91,-174.87C2513.85,-168.83 2060.08,-150.75 2034,-132 2004.38,-110.7 2026.58,-83.83 2003,-56 1991.47,-42.39 1974.76,-31.67 1960.23,-24.11"/>
<polygon fill="midnightblue" stroke="midnightblue" points="1961.59,-20.88 1951.07,-19.6 1958.49,-27.16 1961.59,-20.88"/>
</g>
<!-- Node24&#45;&gt;Node18 -->
<g id="edge42" class="edge">
<title>Node24&#45;&gt;Node18</title>
<path fill="none" stroke="midnightblue" d="M2680.84,-173.88C2505.34,-164.86 2011.58,-138.94 1996,-132 1972.91,-121.72 1953.3,-99.56 1941.59,-83.99"/>
<polygon fill="midnightblue" stroke="midnightblue" points="1944.33,-81.8 1935.65,-75.72 1938.64,-85.88 1944.33,-81.8"/>
</g>
<!-- Node24&#45;&gt;Node19 -->
<g id="edge54" class="edge">
<title>Node24&#45;&gt;Node19</title>
<path fill="none" stroke="midnightblue" d="M2680.86,-176.26C2397.86,-172.7 1227.61,-156.53 1199,-132 1172.93,-109.64 1209.57,-80 1185,-56 1149.85,-21.66 999.65,-13.52 934.43,-11.59"/>
<polygon fill="midnightblue" stroke="midnightblue" points="934.45,-8.09 924.36,-11.33 934.27,-15.09 934.45,-8.09"/>
</g>
<!-- Node24&#45;&gt;Node20 -->
<g id="edge44" class="edge">
<title>Node24&#45;&gt;Node20</title>
<path fill="none" stroke="midnightblue" d="M2680.87,-174.59C2522.49,-168.18 2101.55,-149.94 1963,-132 1859.59,-118.61 1739.61,-91.05 1679.86,-76.49"/>
<polygon fill="midnightblue" stroke="midnightblue" points="1680.66,-73.08 1670.11,-74.1 1678.99,-79.88 1680.66,-73.08"/>
</g>
<!-- Node24&#45;&gt;Node21 -->
<g id="edge45" class="edge">
<title>Node24&#45;&gt;Node21</title>
<path fill="none" stroke="midnightblue" d="M2747.39,-168.31C2754.8,-155.15 2766.01,-129.82 2755,-112 2742.9,-92.42 2719.42,-81.08 2699.48,-74.68"/>
<polygon fill="midnightblue" stroke="midnightblue" points="2700.32,-71.28 2689.74,-71.84 2698.36,-78 2700.32,-71.28"/>
</g>
<!-- Node24&#45;&gt;Node22 -->
<g id="edge48" class="edge">
<title>Node24&#45;&gt;Node22</title>
<path fill="none" stroke="midnightblue" d="M2803.23,-169.97C2852.59,-163.25 2923.36,-151.26 2983,-132 3024.75,-118.52 3070.25,-95.27 3097.17,-80.53"/>
<polygon fill="midnightblue" stroke="midnightblue" points="3099.15,-83.44 3106.2,-75.53 3095.76,-77.31 3099.15,-83.44"/>
</g>
<!-- Node25 -->
<g id="node18" class="node">
<title>Node25</title>
<g id="a_node18"><a xlink:href="iterator__range_8h.html" target="_top" xlink:title="This provides a very simple, boring adaptor for a begin and end iterator into a range type...">
<polygon fill="none" stroke="black" points="710,-56.5 710,-75.5 838,-75.5 838,-56.5 710,-56.5"/>
<text text-anchor="middle" x="774" y="-63.5" font-family="Helvetica,sans-Serif" font-size="10.00">llvm/ADT/iterator_range.h</text>
</a>
</g>
</g>
<!-- Node24&#45;&gt;Node25 -->
<g id="edge23" class="edge">
<title>Node24&#45;&gt;Node25</title>
<path fill="none" stroke="midnightblue" d="M2680.86,-176.15C2378.26,-171.85 1052.04,-151.94 967,-132 946.48,-127.19 943.7,-119.49 924,-112 888.73,-98.59 847.6,-86.49 817.35,-78.22"/>
<polygon fill="midnightblue" stroke="midnightblue" points="818.09,-74.8 807.53,-75.57 816.27,-81.56 818.09,-74.8"/>
</g>
<!-- Node24&#45;&gt;Node26 -->
<g id="edge50" class="edge">
<title>Node24&#45;&gt;Node26</title>
<path fill="none" stroke="midnightblue" d="M2680.73,-176.29C2383.72,-172.73 1100.85,-156.09 924,-132 911.34,-130.28 711.9,-82.66 701,-76 681.46,-64.06 664.96,-43.26 654.82,-28.41"/>
<polygon fill="midnightblue" stroke="midnightblue" points="657.51,-26.12 649.11,-19.66 651.65,-29.94 657.51,-26.12"/>
</g>
<!-- Node27 -->
<g id="node20" class="node">
<title>Node27</title>
<g id="a_node20"><a xlink:href="AlignOf_8h.html" target="_top" xlink:title="llvm/Support/AlignOf.h">
<polygon fill="none" stroke="black" points="3825.5,-112.5 3825.5,-131.5 3940.5,-131.5 3940.5,-112.5 3825.5,-112.5"/>
<text text-anchor="middle" x="3883" y="-119.5" font-family="Helvetica,sans-Serif" font-size="10.00">llvm/Support/AlignOf.h</text>
</a>
</g>
</g>
<!-- Node24&#45;&gt;Node27 -->
<g id="edge26" class="edge">
<title>Node24&#45;&gt;Node27</title>
<path fill="none" stroke="midnightblue" d="M2803.03,-174.56C2958.51,-168.28 3382.15,-150.72 3735,-132 3761.21,-130.61 3790.01,-128.9 3815.19,-127.34"/>
<polygon fill="midnightblue" stroke="midnightblue" points="3815.61,-130.82 3825.38,-126.71 3815.18,-123.84 3815.61,-130.82"/>
</g>
<!-- Node28 -->
<g id="node21" class="node">
<title>Node28</title>
<g id="a_node21"><a xlink:href="MathExtras_8h.html" target="_top" xlink:title="llvm/Support/MathExtras.h">
<polygon fill="none" stroke="red" points="2152.5,-112.5 2152.5,-131.5 2285.5,-131.5 2285.5,-112.5 2152.5,-112.5"/>
<text text-anchor="middle" x="2219" y="-119.5" font-family="Helvetica,sans-Serif" font-size="10.00">llvm/Support/MathExtras.h</text>
</a>
</g>
</g>
<!-- Node24&#45;&gt;Node28 -->
<g id="edge30" class="edge">
<title>Node24&#45;&gt;Node28</title>
<path fill="none" stroke="midnightblue" d="M2680.73,-171.22C2596.44,-163.19 2439.68,-147.96 2295.97,-132.2"/>
<polygon fill="midnightblue" stroke="midnightblue" points="2295.97,-128.68 2285.65,-131.07 2295.21,-135.64 2295.97,-128.68"/>
</g>
<!-- Node31 -->
<g id="node23" class="node">
<title>Node31</title>
<g id="a_node23"><a xlink:href="MemAlloc_8h.html" target="_top" xlink:title="This file defines counterparts of C library allocation functions defined in the namespace &#39;std&#39;...">
<polygon fill="none" stroke="black" points="3453,-112.5 3453,-131.5 3579,-131.5 3579,-112.5 3453,-112.5"/>
<text text-anchor="middle" x="3516" y="-119.5" font-family="Helvetica,sans-Serif" font-size="10.00">llvm/Support/MemAlloc.h</text>
</a>
</g>
</g>
<!-- Node24&#45;&gt;Node31 -->
<g id="edge38" class="edge">
<title>Node24&#45;&gt;Node31</title>
<path fill="none" stroke="midnightblue" d="M2803.06,-172.74C2943.86,-162.92 3290.84,-138.71 3442.77,-128.11"/>
<polygon fill="midnightblue" stroke="midnightblue" points="3443.19,-131.59 3452.92,-127.4 3442.71,-124.61 3443.19,-131.59"/>
</g>
<!-- Node32 -->
<g id="node24" class="node">
<title>Node32</title>
<polygon fill="none" stroke="#bfbfbf" points="3395.5,-56.5 3395.5,-75.5 3440.5,-75.5 3440.5,-56.5 3395.5,-56.5"/>
<text text-anchor="middle" x="3418" y="-63.5" font-family="Helvetica,sans-Serif" font-size="10.00">cstdlib</text>
</g>
<!-- Node24&#45;&gt;Node32 -->
<g id="edge47" class="edge">
<title>Node24&#45;&gt;Node32</title>
<path fill="none" stroke="midnightblue" d="M2795.43,-168.47C2851.78,-159.46 2943.15,-144.81 3022,-132 3156.8,-110.11 3317.33,-83.63 3385.16,-72.43"/>
<polygon fill="midnightblue" stroke="midnightblue" points="3385.94,-75.85 3395.24,-70.76 3384.8,-68.94 3385.94,-75.85"/>
</g>
<!-- Node24&#45;&gt;Node33 -->
<g id="edge49" class="edge">
<title>Node24&#45;&gt;Node33</title>
<path fill="none" stroke="midnightblue" d="M2680.69,-174.25C2469.22,-164.76 1773.07,-133.51 1585.76,-125.1"/>
<polygon fill="midnightblue" stroke="midnightblue" points="1585.84,-121.6 1575.69,-124.65 1585.52,-128.59 1585.84,-121.6"/>
</g>
<!-- Node24&#45;&gt;Node34 -->
<g id="edge51" class="edge">
<title>Node24&#45;&gt;Node34</title>
<path fill="none" stroke="midnightblue" d="M2680.83,-176.7C2402.53,-175.13 1253.98,-166.64 896,-132 767.93,-119.61 617.99,-89.45 550.36,-74.99"/>
<polygon fill="midnightblue" stroke="midnightblue" points="550.74,-71.49 540.22,-72.81 549.26,-78.33 550.74,-71.49"/>
</g>
<!-- Node35 -->
<g id="node27" class="node">
<title>Node35</title>
<polygon fill="none" stroke="#bfbfbf" points="3497.5,-56.5 3497.5,-75.5 3532.5,-75.5 3532.5,-56.5 3497.5,-56.5"/>
<text text-anchor="middle" x="3515" y="-63.5" font-family="Helvetica,sans-Serif" font-size="10.00">new</text>
</g>
<!-- Node24&#45;&gt;Node35 -->
<g id="edge52" class="edge">
<title>Node24&#45;&gt;Node35</title>
<path fill="none" stroke="midnightblue" d="M2803.31,-174.29C2996.66,-165.69 3581.24,-139.13 3588,-132 3607.53,-111.4 3570.37,-89.97 3542.27,-77.59"/>
<polygon fill="midnightblue" stroke="midnightblue" points="3543.38,-74.26 3532.81,-73.6 3540.66,-80.71 3543.38,-74.26"/>
</g>
<!-- Node25&#45;&gt;Node19 -->
<g id="edge25" class="edge">
<title>Node25&#45;&gt;Node19</title>
<path fill="none" stroke="midnightblue" d="M794.6,-56.44C816.12,-47.5 850.08,-33.4 874.45,-23.27"/>
<polygon fill="midnightblue" stroke="midnightblue" points="876.03,-26.41 883.92,-19.34 873.35,-19.94 876.03,-26.41"/>
</g>
<!-- Node25&#45;&gt;Node26 -->
<g id="edge24" class="edge">
<title>Node25&#45;&gt;Node26</title>
<path fill="none" stroke="midnightblue" d="M753.4,-56.44C732.01,-47.56 698.32,-33.56 673.98,-23.45"/>
<polygon fill="midnightblue" stroke="midnightblue" points="675.08,-20.12 664.5,-19.52 672.39,-26.58 675.08,-20.12"/>
</g>
<!-- Node27&#45;&gt;Node10 -->
<g id="edge27" class="edge">
<title>Node27&#45;&gt;Node10</title>
<path fill="none" stroke="midnightblue" d="M3864.74,-112.49C3832.63,-97.99 3763.62,-68.79 3702,-56 3584.39,-31.58 3230.7,-17.96 3078.23,-13.08"/>
<polygon fill="midnightblue" stroke="midnightblue" points="3078.15,-9.58 3068.04,-12.76 3077.92,-16.58 3078.15,-9.58"/>
</g>
<!-- Node27&#45;&gt;Node15 -->
<g id="edge28" class="edge">
<title>Node27&#45;&gt;Node15</title>
<path fill="none" stroke="midnightblue" d="M3880.05,-112.12C3875.26,-98.71 3864.7,-73.06 3849,-56 3836.92,-42.87 3820.19,-32.02 3806.01,-24.27"/>
<polygon fill="midnightblue" stroke="midnightblue" points="3807.61,-21.16 3797.12,-19.63 3804.37,-27.36 3807.61,-21.16"/>
</g>
<!-- Node28&#45;&gt;Node10 -->
<g id="edge31" class="edge">
<title>Node28&#45;&gt;Node10</title>
<path fill="none" stroke="midnightblue" d="M2230.62,-112.3C2250.95,-97.63 2294.81,-68.37 2337,-56 2447.48,-23.6 2786.3,-14.41 2935.36,-11.9"/>
<polygon fill="midnightblue" stroke="midnightblue" points="2935.81,-15.39 2945.76,-11.73 2935.7,-8.39 2935.81,-15.39"/>
</g>
<!-- Node28&#45;&gt;Node14 -->
<g id="edge32" class="edge">
<title>Node28&#45;&gt;Node14</title>
<path fill="none" stroke="midnightblue" d="M2251.17,-112.44C2286.06,-103.16 2341.89,-88.31 2380.17,-78.13"/>
<polygon fill="midnightblue" stroke="midnightblue" points="2381.22,-81.47 2389.98,-75.52 2379.42,-74.7 2381.22,-81.47"/>
</g>
<!-- Node28&#45;&gt;Node16 -->
<g id="edge37" class="edge">
<title>Node28&#45;&gt;Node16</title>
<path fill="none" stroke="midnightblue" d="M2217.47,-112.23C2214.49,-98 2206.52,-70.06 2188,-56 2154.64,-30.68 2035.66,-18.5 1971.58,-13.66"/>
<polygon fill="midnightblue" stroke="midnightblue" points="1971.65,-10.15 1961.42,-12.91 1971.14,-17.13 1971.65,-10.15"/>
</g>
<!-- Node28&#45;&gt;Node20 -->
<g id="edge33" class="edge">
<title>Node28&#45;&gt;Node20</title>
<path fill="none" stroke="midnightblue" d="M2152.25,-114.75C2030.73,-103.38 1777.03,-79.64 1680.45,-70.6"/>
<polygon fill="midnightblue" stroke="midnightblue" points="1680.55,-67.09 1670.27,-69.65 1679.9,-74.06 1680.55,-67.09"/>
</g>
<!-- Node28&#45;&gt;Node21 -->
<g id="edge34" class="edge">
<title>Node28&#45;&gt;Node21</title>
<path fill="none" stroke="midnightblue" d="M2285.77,-112.92C2381.89,-101.28 2555.83,-80.22 2629.99,-71.24"/>
<polygon fill="midnightblue" stroke="midnightblue" points="2630.68,-74.68 2640.18,-70 2629.83,-67.73 2630.68,-74.68"/>
</g>
<!-- Node28&#45;&gt;Node22 -->
<g id="edge35" class="edge">
<title>Node28&#45;&gt;Node22</title>
<path fill="none" stroke="midnightblue" d="M2285.63,-112.78C2288.46,-112.5 2291.26,-112.24 2294,-112 2601.76,-85.19 2975.43,-71.69 3087.61,-68.04"/>
<polygon fill="midnightblue" stroke="midnightblue" points="3088.06,-71.52 3097.94,-67.7 3087.83,-64.53 3088.06,-71.52"/>
</g>
<!-- Node30 -->
<g id="node22" class="node">
<title>Node30</title>
<polygon fill="none" stroke="#bfbfbf" points="1770,-56.5 1770,-75.5 1810,-75.5 1810,-56.5 1770,-56.5"/>
<text text-anchor="middle" x="1790" y="-63.5" font-family="Helvetica,sans-Serif" font-size="10.00">limits</text>
</g>
<!-- Node28&#45;&gt;Node30 -->
<g id="edge36" class="edge">
<title>Node28&#45;&gt;Node30</title>
<path fill="none" stroke="midnightblue" d="M2152.26,-112.9C2079.6,-104.04 1960.01,-89.32 1857,-76 1844.97,-74.44 1831.73,-72.68 1820.22,-71.12"/>
<polygon fill="midnightblue" stroke="midnightblue" points="1820.6,-67.64 1810.22,-69.77 1819.66,-74.58 1820.6,-67.64"/>
</g>
<!-- Node31&#45;&gt;Node9 -->
<g id="edge40" class="edge">
<title>Node31&#45;&gt;Node9</title>
<path fill="none" stroke="midnightblue" d="M3533.03,-112.32C3550.03,-103.66 3576.38,-90.24 3595.99,-80.25"/>
<polygon fill="midnightblue" stroke="midnightblue" points="3597.69,-83.31 3605.01,-75.65 3594.51,-77.08 3597.69,-83.31"/>
</g>
<!-- Node31&#45;&gt;Node10 -->
<g id="edge39" class="edge">
<title>Node31&#45;&gt;Node10</title>
<path fill="none" stroke="midnightblue" d="M3510.3,-112.4C3500.13,-97.89 3477.36,-68.86 3450,-56 3385.87,-25.85 3186.39,-15.8 3078.31,-12.53"/>
<polygon fill="midnightblue" stroke="midnightblue" points="3078.24,-9.03 3068.15,-12.23 3078.04,-16.02 3078.24,-9.03"/>
</g>
<!-- Node31&#45;&gt;Node32 -->
<g id="edge41" class="edge">
<title>Node31&#45;&gt;Node32</title>
<path fill="none" stroke="midnightblue" d="M3500.25,-112.32C3484.68,-103.74 3460.62,-90.49 3442.54,-80.52"/>
<polygon fill="midnightblue" stroke="midnightblue" points="3444.15,-77.42 3433.71,-75.65 3440.78,-83.55 3444.15,-77.42"/>
</g>
<!-- Node36&#45;&gt;Node9 -->
<g id="edge73" class="edge">
<title>Node36&#45;&gt;Node9</title>
<path fill="none" stroke="midnightblue" d="M1337.05,-174.91C1394.06,-172.91 1483.51,-169.92 1561,-168 1617.3,-166.6 3540.09,-161.59 3588,-132 3604.39,-121.88 3613.28,-101.02 3617.82,-85.65"/>
<polygon fill="midnightblue" stroke="midnightblue" points="3621.28,-86.22 3620.39,-75.66 3614.5,-84.47 3621.28,-86.22"/>
</g>
<!-- Node36&#45;&gt;Node15 -->
<g id="edge76" class="edge">
<title>Node36&#45;&gt;Node15</title>
<path fill="none" stroke="midnightblue" d="M1337.11,-175.1C1560.56,-167.73 2357.59,-141.1 2471,-132 2746.85,-109.87 2813.48,-81.92 3089,-56 3339.16,-32.47 3641.59,-17.3 3742.97,-12.58"/>
<polygon fill="midnightblue" stroke="midnightblue" points="3743.41,-16.06 3753.24,-12.1 3743.09,-9.07 3743.41,-16.06"/>
</g>
<!-- Node36&#45;&gt;Node16 -->
<g id="edge85" class="edge">
<title>Node36&#45;&gt;Node16</title>
<path fill="none" stroke="midnightblue" d="M1252.8,-168.41C1222.62,-157.14 1179.52,-135.95 1199,-112 1243.01,-57.89 1741.13,-22.75 1888.91,-13.46"/>
<polygon fill="midnightblue" stroke="midnightblue" points="1889.17,-16.95 1898.94,-12.84 1888.74,-9.97 1889.17,-16.95"/>
</g>
<!-- Node36&#45;&gt;Node19 -->
<g id="edge86" class="edge">
<title>Node36&#45;&gt;Node19</title>
<path fill="none" stroke="midnightblue" d="M1220.65,-175.01C1110.72,-170.65 881.8,-158.48 858,-132 830.47,-101.37 865.94,-52.57 888.31,-27.33"/>
<polygon fill="midnightblue" stroke="midnightblue" points="891.1,-29.46 895.28,-19.73 885.94,-24.73 891.1,-29.46"/>
</g>
<!-- Node36&#45;&gt;Node20 -->
<g id="edge74" class="edge">
<title>Node36&#45;&gt;Node20</title>
<path fill="none" stroke="midnightblue" d="M1292.28,-168.42C1314.5,-154.45 1361.01,-126.88 1404,-112 1472.16,-88.41 1555.83,-76.23 1603.63,-70.76"/>
<polygon fill="midnightblue" stroke="midnightblue" points="1604.28,-74.21 1613.83,-69.63 1603.51,-67.25 1604.28,-74.21"/>
</g>
<!-- Node36&#45;&gt;Node21 -->
<g id="edge75" class="edge">
<title>Node36&#45;&gt;Node21</title>
<path fill="none" stroke="midnightblue" d="M1337.38,-175.04C1562.34,-167.46 2363.25,-140.01 2417,-132 2438.16,-128.85 2567.46,-93.76 2630.5,-76.49"/>
<polygon fill="midnightblue" stroke="midnightblue" points="2631.67,-79.8 2640.38,-73.78 2629.82,-73.05 2631.67,-79.8"/>
</g>
<!-- Node36&#45;&gt;Node25 -->
<g id="edge71" class="edge">
<title>Node36&#45;&gt;Node25</title>
<path fill="none" stroke="midnightblue" d="M1220.59,-177.21C1112.59,-176.65 886.64,-170.72 820,-132 801.74,-121.39 788.89,-100.3 781.5,-85.01"/>
<polygon fill="midnightblue" stroke="midnightblue" points="784.54,-83.25 777.26,-75.56 778.16,-86.11 784.54,-83.25"/>
</g>
<!-- Node36&#45;&gt;Node26 -->
<g id="edge81" class="edge">
<title>Node36&#45;&gt;Node26</title>
<path fill="none" stroke="midnightblue" d="M1220.73,-177.51C1128.92,-177 945.63,-170.63 796,-132 735.88,-116.48 710.6,-121.18 668,-76 656.02,-63.29 649.91,-44.09 646.86,-29.85"/>
<polygon fill="midnightblue" stroke="midnightblue" points="650.25,-28.93 645.02,-19.71 643.36,-30.18 650.25,-28.93"/>
</g>
<!-- Node36&#45;&gt;Node30 -->
<g id="edge82" class="edge">
<title>Node36&#45;&gt;Node30</title>
<path fill="none" stroke="midnightblue" d="M1302.76,-168.37C1326.35,-159.67 1363.46,-145.6 1395,-132 1413.98,-123.81 1417.16,-117.82 1437,-112 1497.45,-94.25 1685.66,-76.22 1759.67,-69.62"/>
<polygon fill="midnightblue" stroke="midnightblue" points="1760.08,-73.1 1769.73,-68.73 1759.47,-66.13 1760.08,-73.1"/>
</g>
<!-- Node36&#45;&gt;Node32 -->
<g id="edge78" class="edge">
<title>Node36&#45;&gt;Node32</title>
<path fill="none" stroke="midnightblue" d="M1337.22,-175.04C1544.54,-168.02 2246.36,-143.95 2471,-132 2829.62,-112.93 3263.92,-79.22 3385.18,-69.62"/>
<polygon fill="midnightblue" stroke="midnightblue" points="3385.6,-73.1 3395.3,-68.82 3385.05,-66.12 3385.6,-73.1"/>
</g>
<!-- Node36&#45;&gt;Node33 -->
<g id="edge80" class="edge">
<title>Node36&#45;&gt;Node33</title>
<path fill="none" stroke="midnightblue" d="M1320.2,-168.44C1366.99,-158.73 1443.17,-142.9 1492.17,-132.73"/>
<polygon fill="midnightblue" stroke="midnightblue" points="1493.12,-136.1 1502.2,-130.64 1491.7,-129.25 1493.12,-136.1"/>
</g>
<!-- Node36&#45;&gt;Node34 -->
<g id="edge83" class="edge">
<title>Node36&#45;&gt;Node34</title>
<path fill="none" stroke="midnightblue" d="M1220.94,-176.22C1083.15,-173.86 739.78,-164.76 630,-132 593.45,-121.09 555.76,-97.19 533.62,-81.61"/>
<polygon fill="midnightblue" stroke="midnightblue" points="535.56,-78.69 525.4,-75.7 531.48,-84.38 535.56,-78.69"/>
</g>
<!-- Node36&#45;&gt;Node37 -->
<g id="edge56" class="edge">
<title>Node36&#45;&gt;Node37</title>
<path fill="none" stroke="midnightblue" d="M1276.03,-168.08C1273.62,-160.85 1270.14,-150.41 1267.13,-141.4"/>
<polygon fill="midnightblue" stroke="midnightblue" points="1270.4,-140.13 1263.92,-131.75 1263.76,-142.34 1270.4,-140.13"/>
</g>
<!-- Node38 -->
<g id="node30" class="node">
<title>Node38</title>
<g id="a_node30"><a xlink:href="iterator_8h.html" target="_top" xlink:title="llvm/ADT/iterator.h">
<polygon fill="none" stroke="black" points="976.5,-112.5 976.5,-131.5 1075.5,-131.5 1075.5,-112.5 976.5,-112.5"/>
<text text-anchor="middle" x="1026" y="-119.5" font-family="Helvetica,sans-Serif" font-size="10.00">llvm/ADT/iterator.h</text>
</a>
</g>
</g>
<!-- Node36&#45;&gt;Node38 -->
<g id="edge64" class="edge">
<title>Node36&#45;&gt;Node38</title>
<path fill="none" stroke="midnightblue" d="M1238.91,-168.44C1194.68,-159 1123.46,-143.8 1075.72,-133.61"/>
<polygon fill="midnightblue" stroke="midnightblue" points="1076.41,-130.18 1065.9,-131.52 1074.95,-137.03 1076.41,-130.18"/>
</g>
<!-- Node39 -->
<g id="node31" class="node">
<title>Node39</title>
<polygon fill="none" stroke="#bfbfbf" points="180,-112.5 180,-131.5 310,-131.5 310,-112.5 180,-112.5"/>
<text text-anchor="middle" x="245" y="-119.5" font-family="Helvetica,sans-Serif" font-size="10.00">llvm/Config/abi&#45;breaking.h</text>
</g>
<!-- Node36&#45;&gt;Node39 -->
<g id="edge72" class="edge">
<title>Node36&#45;&gt;Node39</title>
<path fill="none" stroke="midnightblue" d="M1220.98,-174.8C1075.5,-169.15 683.45,-153.08 357,-132 345.14,-131.23 332.58,-130.32 320.32,-129.38"/>
<polygon fill="midnightblue" stroke="midnightblue" points="320.36,-125.87 310.12,-128.58 319.82,-132.85 320.36,-125.87"/>
</g>
<!-- Node36&#45;&gt;Node40 -->
<g id="edge77" class="edge">
<title>Node36&#45;&gt;Node40</title>
<path fill="none" stroke="midnightblue" d="M1337.02,-171.07C1447.72,-159.74 1685.91,-135.38 1773.66,-126.41"/>
<polygon fill="midnightblue" stroke="midnightblue" points="1774.24,-129.87 1783.83,-125.37 1773.53,-122.91 1774.24,-129.87"/>
</g>
<!-- Node41 -->
<g id="node33" class="node">
<title>Node41</title>
<polygon fill="none" stroke="#bfbfbf" points="366.5,-112.5 366.5,-131.5 425.5,-131.5 425.5,-112.5 366.5,-112.5"/>
<text text-anchor="middle" x="396" y="-119.5" font-family="Helvetica,sans-Serif" font-size="10.00">functional</text>
</g>
<!-- Node36&#45;&gt;Node41 -->
<g id="edge79" class="edge">
<title>Node36&#45;&gt;Node41</title>
<path fill="none" stroke="midnightblue" d="M1220.59,-173.87C1092.8,-166.96 778.81,-149.6 516,-132 489.25,-130.21 459.16,-127.95 435.8,-126.15"/>
<polygon fill="midnightblue" stroke="midnightblue" points="435.82,-122.64 425.58,-125.35 435.28,-129.62 435.82,-122.64"/>
</g>
<!-- Node42 -->
<g id="node34" class="node">
<title>Node42</title>
<polygon fill="none" stroke="#bfbfbf" points="1446,-112.5 1446,-131.5 1484,-131.5 1484,-112.5 1446,-112.5"/>
<text text-anchor="middle" x="1465" y="-119.5" font-family="Helvetica,sans-Serif" font-size="10.00">tuple</text>
</g>
<!-- Node36&#45;&gt;Node42 -->
<g id="edge84" class="edge">
<title>Node36&#45;&gt;Node42</title>
<path fill="none" stroke="midnightblue" d="M1308.47,-168.44C1343.38,-158.31 1401.15,-141.54 1435.9,-131.45"/>
<polygon fill="midnightblue" stroke="midnightblue" points="1437.26,-134.7 1445.89,-128.55 1435.31,-127.98 1437.26,-134.7"/>
</g>
<!-- Node37&#45;&gt;Node10 -->
<g id="edge58" class="edge">
<title>Node37&#45;&gt;Node10</title>
<path fill="none" stroke="midnightblue" d="M1296.38,-112.44C1358.43,-97.84 1491.12,-68.51 1605,-56 1866.91,-27.23 2687.77,-14.94 2935.51,-11.83"/>
<polygon fill="midnightblue" stroke="midnightblue" points="2935.87,-15.33 2945.83,-11.7 2935.78,-8.33 2935.87,-15.33"/>
</g>
<!-- Node37&#45;&gt;Node18 -->
<g id="edge59" class="edge">
<title>Node37&#45;&gt;Node18</title>
<path fill="none" stroke="midnightblue" d="M1313.7,-116.76C1412.7,-108.79 1633.25,-91.02 1819,-76 1830.82,-75.04 1843.35,-74.03 1855.56,-73.04"/>
<polygon fill="midnightblue" stroke="midnightblue" points="1856.04,-76.51 1865.73,-72.22 1855.48,-69.54 1856.04,-76.51"/>
</g>
<!-- Node37&#45;&gt;Node19 -->
<g id="edge63" class="edge">
<title>Node37&#45;&gt;Node19</title>
<path fill="none" stroke="midnightblue" d="M1257.88,-112.1C1252.33,-97.67 1239.26,-69.46 1218,-56 1171.18,-26.36 1003.94,-15.51 934.53,-12.23"/>
<polygon fill="midnightblue" stroke="midnightblue" points="934.42,-8.72 924.27,-11.76 934.1,-15.71 934.42,-8.72"/>
</g>
<!-- Node37&#45;&gt;Node21 -->
<g id="edge60" class="edge">
<title>Node37&#45;&gt;Node21</title>
<path fill="none" stroke="midnightblue" d="M1313.74,-118.06C1348.7,-116.17 1395.58,-113.76 1437,-112 1912.4,-91.85 2031.66,-97.53 2507,-76 2549.41,-74.08 2598.19,-71.2 2630.2,-69.22"/>
<polygon fill="midnightblue" stroke="midnightblue" points="2630.62,-72.7 2640.38,-68.58 2630.18,-65.71 2630.62,-72.7"/>
</g>
<!-- Node37&#45;&gt;Node23 -->
<g id="edge57" class="edge">
<title>Node37&#45;&gt;Node23</title>
<path fill="none" stroke="midnightblue" d="M1240.24,-112.44C1218.68,-103.56 1184.74,-89.56 1160.21,-79.45"/>
<polygon fill="midnightblue" stroke="midnightblue" points="1161.24,-76.09 1150.66,-75.52 1158.57,-82.56 1161.24,-76.09"/>
</g>
<!-- Node37&#45;&gt;Node34 -->
<g id="edge61" class="edge">
<title>Node37&#45;&gt;Node34</title>
<path fill="none" stroke="midnightblue" d="M1208.47,-117.2C1065.5,-106.87 671.97,-78.42 550.31,-69.63"/>
<polygon fill="midnightblue" stroke="midnightblue" points="550.28,-66.11 540.06,-68.88 549.78,-73.1 550.28,-66.11"/>
</g>
<!-- Node37&#45;&gt;Node35 -->
<g id="edge62" class="edge">
<title>Node37&#45;&gt;Node35</title>
<path fill="none" stroke="midnightblue" d="M1313.74,-117.85C1348.69,-115.87 1395.57,-113.43 1437,-112 2331.28,-81.15 2557.89,-145.49 3450,-76 3462.35,-75.04 3475.93,-73.27 3487.47,-71.55"/>
<polygon fill="midnightblue" stroke="midnightblue" points="3488.06,-75.01 3497.41,-70.02 3486.99,-68.09 3488.06,-75.01"/>
</g>
<!-- Node38&#45;&gt;Node15 -->
<g id="edge67" class="edge">
<title>Node38&#45;&gt;Node15</title>
<path fill="none" stroke="midnightblue" d="M1075.59,-118.33C1110.17,-116.48 1157.39,-114.01 1199,-112 1556.27,-94.71 1645.8,-94.69 2003,-76 2151.51,-68.23 2188.44,-62.77 2337,-56 2897.94,-30.45 3582.39,-15.12 3743.08,-11.72"/>
<polygon fill="midnightblue" stroke="midnightblue" points="3743.4,-15.22 3753.32,-11.51 3743.25,-8.22 3743.4,-15.22"/>
</g>
<!-- Node38&#45;&gt;Node16 -->
<g id="edge69" class="edge">
<title>Node38&#45;&gt;Node16</title>
<path fill="none" stroke="midnightblue" d="M1025.2,-112.16C1024.44,-97.84 1025.33,-69.76 1042,-56 1075.03,-28.73 1718.43,-14.92 1888.87,-11.73"/>
<polygon fill="midnightblue" stroke="midnightblue" points="1889.01,-15.23 1898.94,-11.54 1888.88,-8.23 1889.01,-15.23"/>
</g>
<!-- Node38&#45;&gt;Node19 -->
<g id="edge70" class="edge">
<title>Node38&#45;&gt;Node19</title>
<path fill="none" stroke="midnightblue" d="M1017.03,-112.48C1003.8,-99.97 978.23,-75.93 956,-56 944.75,-45.91 931.91,-34.8 921.81,-26.14"/>
<polygon fill="midnightblue" stroke="midnightblue" points="923.94,-23.36 914.06,-19.52 919.39,-28.68 923.94,-23.36"/>
</g>
<!-- Node38&#45;&gt;Node20 -->
<g id="edge66" class="edge">
<title>Node38&#45;&gt;Node20</title>
<path fill="none" stroke="midnightblue" d="M1075.63,-116.65C1195.18,-106.17 1497.13,-79.7 1603.89,-70.34"/>
<polygon fill="midnightblue" stroke="midnightblue" points="1604.23,-73.82 1613.89,-69.46 1603.62,-66.85 1604.23,-73.82"/>
</g>
<!-- Node38&#45;&gt;Node25 -->
<g id="edge65" class="edge">
<title>Node38&#45;&gt;Node25</title>
<path fill="none" stroke="midnightblue" d="M986.07,-112.44C942.11,-103.02 871.37,-87.87 823.82,-77.68"/>
<polygon fill="midnightblue" stroke="midnightblue" points="824.25,-74.19 813.74,-75.52 822.79,-81.03 824.25,-74.19"/>
</g>
<!-- Node38&#45;&gt;Node26 -->
<g id="edge68" class="edge">
<title>Node38&#45;&gt;Node26</title>
<path fill="none" stroke="midnightblue" d="M1005.08,-112.39C971.96,-99 905.25,-72.95 847,-56 788.17,-38.88 718.12,-24.68 677.58,-17.05"/>
<polygon fill="midnightblue" stroke="midnightblue" points="678.17,-13.6 667.7,-15.21 676.89,-20.48 678.17,-13.6"/>
</g>
<!-- Node45&#45;&gt;Node1 -->
<g id="edge99" class="edge">
<title>Node45&#45;&gt;Node1</title>
<path fill="none" stroke="midnightblue" d="M1593.88,-523.86C1444.82,-522.81 1110.55,-516.29 1076,-479 1032.81,-432.38 1036.57,-385.85 1076,-336 1120.53,-279.71 1330.83,-251.57 1438.75,-240.63"/>
<polygon fill="midnightblue" stroke="midnightblue" points="1439.26,-244.1 1448.87,-239.63 1438.57,-237.13 1439.26,-244.1"/>
</g>
<!-- Node45&#45;&gt;Node40 -->
<g id="edge193" class="edge">
<title>Node45&#45;&gt;Node40</title>
<path fill="none" stroke="midnightblue" d="M1665,-515.49C1665,-495.74 1665,-445.22 1665,-403 1665,-403 1665,-403 1665,-345 1665,-211.91 1855.09,-304.19 1920,-188 1924.34,-180.24 1924.99,-175.36 1920,-168 1915.21,-160.94 1871.48,-144.88 1839.86,-133.98"/>
<polygon fill="midnightblue" stroke="midnightblue" points="1840.67,-130.56 1830.08,-130.64 1838.41,-137.19 1840.67,-130.56"/>
</g>
<!-- Node46 -->
<g id="node38" class="node">
<title>Node46</title>
<g id="a_node38"><a xlink:href="BitmaskEnum_8h.html" target="_top" xlink:title="llvm/ADT/BitmaskEnum.h">
<polygon fill="none" stroke="black" points="1708.5,-168.5 1708.5,-187.5 1839.5,-187.5 1839.5,-168.5 1708.5,-168.5"/>
<text text-anchor="middle" x="1774" y="-175.5" font-family="Helvetica,sans-Serif" font-size="10.00">llvm/ADT/BitmaskEnum.h</text>
</a>
</g>
</g>
<!-- Node45&#45;&gt;Node46 -->
<g id="edge100" class="edge">
<title>Node45&#45;&gt;Node46</title>
<path fill="none" stroke="midnightblue" d="M1661.72,-515.45C1649.76,-482.85 1611.28,-364.01 1651,-280 1670.61,-238.53 1716.52,-208.37 1746.37,-192.29"/>
<polygon fill="midnightblue" stroke="midnightblue" points="1748.19,-195.29 1755.44,-187.57 1744.95,-189.08 1748.19,-195.29"/>
</g>
<!-- Node45&#45;&gt;Node47 -->
<g id="edge105" class="edge">
<title>Node45&#45;&gt;Node47</title>
<path fill="none" stroke="midnightblue" d="M1684.06,-515.48C1703.08,-506.96 1732.91,-493.62 1757.28,-482.72"/>
<polygon fill="midnightblue" stroke="midnightblue" points="1758.96,-485.8 1766.65,-478.52 1756.1,-479.41 1758.96,-485.8"/>
</g>
<!-- Node45&#45;&gt;Node49 -->
<g id="edge192" class="edge">
<title>Node45&#45;&gt;Node49</title>
<path fill="none" stroke="midnightblue" d="M1668.47,-515.48C1675.65,-499.05 1693.9,-463.3 1722,-448 1772.36,-420.59 2153.15,-408.27 2304.88,-404.41"/>
<polygon fill="midnightblue" stroke="midnightblue" points="2305.06,-407.91 2314.97,-404.16 2304.89,-400.91 2305.06,-407.91"/>
</g>
<!-- Node61 -->
<g id="node50" class="node">
<title>Node61</title>
<g id="a_node50"><a xlink:href="Endian_8h.html" target="_top" xlink:title="llvm/Support/Endian.h">
<polygon fill="none" stroke="red" points="2988.5,-168.5 2988.5,-187.5 3101.5,-187.5 3101.5,-168.5 2988.5,-168.5"/>
<text text-anchor="middle" x="3045" y="-175.5" font-family="Helvetica,sans-Serif" font-size="10.00">llvm/Support/Endian.h</text>
</a>
</g>
</g>
<!-- Node45&#45;&gt;Node61 -->
<g id="edge183" class="edge">
<title>Node45&#45;&gt;Node61</title>
<path fill="none" stroke="midnightblue" d="M1736.15,-522.42C2160.69,-512.64 4344.45,-457.51 4440,-356 4533.39,-256.79 3403.08,-196.01 3112.27,-182.08"/>
<polygon fill="midnightblue" stroke="midnightblue" points="3112.03,-178.56 3101.88,-181.58 3111.7,-185.56 3112.03,-178.56"/>
</g>
<!-- Node46&#45;&gt;Node16 -->
<g id="edge102" class="edge">
<title>Node46&#45;&gt;Node16</title>
<path fill="none" stroke="midnightblue" d="M1765.53,-168.48C1745.56,-147.37 1699.32,-91.77 1728,-56 1747.75,-31.36 1835.62,-19.34 1888.75,-14.23"/>
<polygon fill="midnightblue" stroke="midnightblue" points="1889.24,-17.7 1898.88,-13.3 1888.6,-10.73 1889.24,-17.7"/>
</g>
<!-- Node46&#45;&gt;Node19 -->
<g id="edge103" class="edge">
<title>Node46&#45;&gt;Node19</title>
<path fill="none" stroke="midnightblue" d="M1708.22,-173.01C1681.75,-171.42 1650.92,-169.6 1623,-168 1550.12,-163.83 1028.35,-171.56 967,-132 930.79,-108.65 914.23,-57.37 907.68,-29.66"/>
<polygon fill="midnightblue" stroke="midnightblue" points="911.05,-28.71 905.51,-19.68 904.21,-30.2 911.05,-28.71"/>
</g>
<!-- Node46&#45;&gt;Node21 -->
<g id="edge101" class="edge">
<title>Node46&#45;&gt;Node21</title>
<path fill="none" stroke="midnightblue" d="M1770.91,-168.46C1766.49,-154.57 1760.41,-127.09 1775,-112 1803.3,-82.73 2466.34,-78.16 2507,-76 2549.4,-73.75 2598.18,-70.94 2630.19,-69.06"/>
<polygon fill="midnightblue" stroke="midnightblue" points="2630.6,-72.54 2640.37,-68.46 2630.18,-65.56 2630.6,-72.54"/>
</g>
<!-- Node46&#45;&gt;Node28 -->
<g id="edge104" class="edge">
<title>Node46&#45;&gt;Node28</title>
<path fill="none" stroke="midnightblue" d="M1839.66,-169.03C1920.28,-159.25 2056.78,-142.68 2142.19,-132.32"/>
<polygon fill="midnightblue" stroke="midnightblue" points="2142.84,-135.77 2152.34,-131.09 2141.99,-128.82 2142.84,-135.77"/>
</g>
<!-- Node47&#45;&gt;Node13 -->
<g id="edge182" class="edge">
<title>Node47&#45;&gt;Node13</title>
<path fill="none" stroke="midnightblue" d="M1865.32,-461.47C2285.92,-454.81 4535,-415.98 4535,-347 4535,-347 4535,-347 4535,-121 4535,-62.06 4333.97,-26.79 4255.16,-15.23"/>
<polygon fill="midnightblue" stroke="midnightblue" points="4255.28,-11.71 4244.89,-13.75 4254.29,-18.64 4255.28,-11.71"/>
</g>
<!-- Node48 -->
<g id="node40" class="node">
<title>Node48</title>
<g id="a_node40"><a xlink:href="StringRef_8h.html" target="_top" xlink:title="llvm/ADT/StringRef.h">
<polygon fill="none" stroke="black" points="2439,-224.5 2439,-243.5 2549,-243.5 2549,-224.5 2439,-224.5"/>
<text text-anchor="middle" x="2494" y="-231.5" font-family="Helvetica,sans-Serif" font-size="10.00">llvm/ADT/StringRef.h</text>
</a>
</g>
</g>
<!-- Node47&#45;&gt;Node48 -->
<g id="edge106" class="edge">
<title>Node47&#45;&gt;Node48</title>
<path fill="none" stroke="midnightblue" d="M1798.54,-448.5C1800.37,-422.02 1808.35,-364.69 1843,-336 1931.46,-262.77 2281.69,-242.28 2428.6,-236.85"/>
<polygon fill="midnightblue" stroke="midnightblue" points="2428.95,-240.34 2438.82,-236.48 2428.7,-233.34 2428.95,-240.34"/>
</g>
<!-- Node47&#45;&gt;Node49 -->
<g id="edge118" class="edge">
<title>Node47&#45;&gt;Node49</title>
<path fill="none" stroke="midnightblue" d="M1865.23,-455.47C1976.33,-443.85 2196.69,-420.81 2304.56,-409.53"/>
<polygon fill="midnightblue" stroke="midnightblue" points="2305.06,-413 2314.64,-408.47 2304.33,-406.03 2305.06,-413"/>
</g>
<!-- Node48&#45;&gt;Node10 -->
<g id="edge109" class="edge">
<title>Node48&#45;&gt;Node10</title>
<path fill="none" stroke="midnightblue" d="M2549.22,-232.79C2695.93,-231.71 3087.26,-225.34 3131,-188 3176.24,-149.38 3188.32,-103.85 3153,-56 3135.67,-32.53 3106.28,-20.92 3078.39,-15.31"/>
<polygon fill="midnightblue" stroke="midnightblue" points="3078.67,-11.81 3068.21,-13.51 3077.45,-18.7 3078.67,-11.81"/>
</g>
<!-- Node48&#45;&gt;Node13 -->
<g id="edge115" class="edge">
<title>Node48&#45;&gt;Node13</title>
<path fill="none" stroke="midnightblue" d="M2549.12,-232.84C2762.07,-231.94 3531.05,-226.08 3772,-188 3861.49,-173.86 3884.18,-166.39 3968,-132 4033.14,-105.28 4043.11,-85.59 4107,-56 4135.86,-42.63 4169.89,-29.87 4193.79,-21.37"/>
<polygon fill="midnightblue" stroke="midnightblue" points="4195.1,-24.62 4203.37,-18 4192.77,-18.01 4195.1,-24.62"/>
</g>
<!-- Node48&#45;&gt;Node15 -->
<g id="edge112" class="edge">
<title>Node48&#45;&gt;Node15</title>
<path fill="none" stroke="midnightblue" d="M2549.25,-231.93C2749.15,-227.89 3434.33,-212.55 3652,-188 3718.96,-180.45 3906.98,-183.86 3950,-132 3994.94,-77.83 3874.67,-36.63 3812.52,-19.59"/>
<polygon fill="midnightblue" stroke="midnightblue" points="3813.28,-16.17 3802.72,-16.96 3811.48,-22.93 3813.28,-16.17"/>
</g>
<!-- Node48&#45;&gt;Node16 -->
<g id="edge116" class="edge">
<title>Node48&#45;&gt;Node16</title>
<path fill="none" stroke="midnightblue" d="M2456.69,-224.48C2379.76,-206.91 2210.55,-168.26 2209,-168 2070.1,-144.3 2030.31,-167.7 1894,-132 1886.24,-129.97 1765.43,-82.68 1761,-76 1729.26,-28.2 1828.71,-15.52 1888.4,-12.18"/>
<polygon fill="midnightblue" stroke="midnightblue" points="1888.87,-15.66 1898.68,-11.67 1888.52,-8.67 1888.87,-15.66"/>
</g>
<!-- Node48&#45;&gt;Node19 -->
<g id="edge117" class="edge">
<title>Node48&#45;&gt;Node19</title>
<path fill="none" stroke="midnightblue" d="M2438.61,-233.05C2202.23,-233.01 1276.91,-230.11 989,-188 918.38,-177.67 722.81,-138.3 688,-76 683.66,-68.24 682.39,-62.9 688,-56 711.06,-27.64 819.79,-16.55 873.63,-12.75"/>
<polygon fill="midnightblue" stroke="midnightblue" points="874.19,-16.22 883.94,-12.06 873.72,-9.24 874.19,-16.22"/>
</g>
<!-- Node48&#45;&gt;Node20 -->
<g id="edge110" class="edge">
<title>Node48&#45;&gt;Node20</title>
<path fill="none" stroke="midnightblue" d="M2438.81,-233.1C2268.66,-232.97 1759.95,-229.12 1699,-188 1680.83,-175.74 1658.47,-115.78 1647.97,-85.13"/>
<polygon fill="midnightblue" stroke="midnightblue" points="1651.29,-84 1644.78,-75.63 1644.65,-86.23 1651.29,-84"/>
</g>
<!-- Node48&#45;&gt;Node21 -->
<g id="edge111" class="edge">
<title>Node48&#45;&gt;Node21</title>
<path fill="none" stroke="midnightblue" d="M2508.79,-224.42C2542.17,-204.82 2621.89,-156.56 2641,-132 2651.61,-118.37 2657.87,-99.57 2661.32,-85.7"/>
<polygon fill="midnightblue" stroke="midnightblue" points="2664.76,-86.34 2663.51,-75.82 2657.93,-84.83 2664.76,-86.34"/>
</g>
<!-- Node48&#45;&gt;Node22 -->
<g id="edge113" class="edge">
<title>Node48&#45;&gt;Node22</title>
<path fill="none" stroke="midnightblue" d="M2549.08,-232.98C2692.93,-232.39 3071.53,-227.09 3111,-188 3138,-161.26 3131.93,-112.19 3125.98,-85.49"/>
<polygon fill="midnightblue" stroke="midnightblue" points="3129.32,-84.42 3123.54,-75.55 3122.53,-86.09 3129.32,-84.42"/>
</g>
<!-- Node48&#45;&gt;Node25 -->
<g id="edge108" class="edge">
<title>Node48&#45;&gt;Node25</title>
<path fill="none" stroke="midnightblue" d="M2438.91,-233.01C2260.98,-232.62 1685.78,-228.11 1212,-188 1165.53,-184.07 832,-161.66 796,-132 782.37,-120.77 777.15,-100.76 775.17,-85.89"/>
<polygon fill="midnightblue" stroke="midnightblue" points="778.64,-85.38 774.2,-75.76 771.67,-86.05 778.64,-85.38"/>
</g>
<!-- Node48&#45;&gt;Node30 -->
<g id="edge114" class="edge">
<title>Node48&#45;&gt;Node30</title>
<path fill="none" stroke="midnightblue" d="M2473.13,-224.48C2437.6,-210.36 2362.83,-182.24 2297,-168 2151.07,-136.43 2108.26,-166.53 1963,-132 1909.87,-119.37 1850.92,-94.8 1817.37,-79.75"/>
<polygon fill="midnightblue" stroke="midnightblue" points="1818.76,-76.54 1808.21,-75.6 1815.87,-82.92 1818.76,-76.54"/>
</g>
<!-- Node48&#45;&gt;Node36 -->
<g id="edge107" class="edge">
<title>Node48&#45;&gt;Node36</title>
<path fill="none" stroke="midnightblue" d="M2438.64,-230.54C2240.19,-221.72 1564.79,-191.7 1347.17,-182.03"/>
<polygon fill="midnightblue" stroke="midnightblue" points="1347.3,-178.53 1337.16,-181.58 1346.99,-185.53 1347.3,-178.53"/>
</g>
<!-- Node49&#45;&gt;Node9 -->
<g id="edge145" class="edge">
<title>Node49&#45;&gt;Node9</title>
<path fill="none" stroke="midnightblue" d="M2419.09,-400.55C2710.63,-397.94 4130.02,-383.81 4218,-356 4260.78,-342.48 4280.48,-339.37 4302,-300 4343.26,-224.52 4332.63,-151.09 4256,-112 4243.84,-105.8 3871.39,-82.28 3703.12,-71.93"/>
<polygon fill="midnightblue" stroke="midnightblue" points="3703.27,-68.44 3693.07,-71.32 3702.84,-75.42 3703.27,-68.44"/>
</g>
<!-- Node49&#45;&gt;Node10 -->
<g id="edge143" class="edge">
<title>Node49&#45;&gt;Node10</title>
<path fill="none" stroke="midnightblue" d="M2419.21,-400.86C2653.47,-400 3609.07,-394.18 3906,-356 4099.69,-331.1 4219.16,-316.2 4284,-132 4323.87,-18.73 3868.67,-65.89 3749,-56 3503,-35.68 3210.39,-20.6 3078.15,-14.28"/>
<polygon fill="midnightblue" stroke="midnightblue" points="3078.3,-10.78 3068.14,-13.8 3077.96,-17.77 3078.3,-10.78"/>
</g>
<!-- Node49&#45;&gt;Node13 -->
<g id="edge177" class="edge">
<title>Node49&#45;&gt;Node13</title>
<path fill="none" stroke="midnightblue" d="M2419.07,-400.87C2736.93,-399.93 4403.56,-393.24 4440,-356 4546.88,-246.78 4319.06,-75.9 4245.74,-25.47"/>
<polygon fill="midnightblue" stroke="midnightblue" points="4247.45,-22.4 4237.21,-19.67 4243.51,-28.19 4247.45,-22.4"/>
</g>
<!-- Node49&#45;&gt;Node16 -->
<g id="edge179" class="edge">
<title>Node49&#45;&gt;Node16</title>
<path fill="none" stroke="midnightblue" d="M2314.73,-400.63C2116.95,-398.99 1414.56,-390.79 1194,-356 1161.62,-350.89 1154.98,-343.21 1123,-336 959.84,-299.21 848.11,-339.39 777,-188 773.22,-179.95 771.09,-174.64 777,-168 868.31,-65.36 992.69,-234.64 1084,-132 1106.61,-106.59 1051.59,-80.68 1075,-56 1103.29,-26.18 1721.34,-14.29 1888.59,-11.61"/>
<polygon fill="midnightblue" stroke="midnightblue" points="1888.77,-15.11 1898.72,-11.45 1888.66,-8.11 1888.77,-15.11"/>
</g>
<!-- Node49&#45;&gt;Node19 -->
<g id="edge180" class="edge">
<title>Node49&#45;&gt;Node19</title>
<path fill="none" stroke="midnightblue" d="M2314.94,-400.19C2096.67,-396.64 1254.42,-381.55 990,-356 834.51,-340.97 795.38,-334.43 643,-300 418.85,-249.35 272.62,-328.82 154,-132 142.17,-112.37 154.68,-67.07 168,-56 181.81,-44.52 737.03,-18.59 873.8,-12.36"/>
<polygon fill="midnightblue" stroke="midnightblue" points="874.14,-15.85 883.97,-11.9 873.82,-8.86 874.14,-15.85"/>
</g>
<!-- Node49&#45;&gt;Node20 -->
<g id="edge170" class="edge">
<title>Node49&#45;&gt;Node20</title>
<path fill="none" stroke="midnightblue" d="M2314.59,-401.1C2198.91,-400.59 1925.49,-395.15 1843,-356 1796.01,-333.7 1708.84,-231.29 1680,-188 1658.51,-155.74 1648.61,-110.63 1644.52,-85.6"/>
<polygon fill="midnightblue" stroke="midnightblue" points="1647.97,-85 1643.03,-75.63 1641.04,-86.04 1647.97,-85"/>
</g>
<!-- Node49&#45;&gt;Node21 -->
<g id="edge171" class="edge">
<title>Node49&#45;&gt;Node21</title>
<path fill="none" stroke="midnightblue" d="M2419.27,-400.35C2545.33,-397.47 2859.69,-382.03 2914,-300 2965.57,-222.11 2897.14,-164.69 2820,-112 2783.46,-87.04 2733.02,-75.75 2699.74,-70.76"/>
<polygon fill="midnightblue" stroke="midnightblue" points="2699.96,-67.26 2689.57,-69.36 2699,-74.2 2699.96,-67.26"/>
</g>
<!-- Node49&#45;&gt;Node24 -->
<g id="edge121" class="edge">
<title>Node49&#45;&gt;Node24</title>
<path fill="none" stroke="midnightblue" d="M2419.27,-396.49C2469.61,-390.97 2547.29,-379.31 2611,-356 2658.11,-338.76 2678.28,-339.66 2709,-300 2732.59,-269.54 2739.33,-223.4 2741.25,-197.79"/>
<polygon fill="midnightblue" stroke="midnightblue" points="2744.76,-197.79 2741.83,-187.6 2737.77,-197.39 2744.76,-197.79"/>
</g>
<!-- Node49&#45;&gt;Node27 -->
<g id="edge142" class="edge">
<title>Node49&#45;&gt;Node27</title>
<path fill="none" stroke="midnightblue" d="M2419.01,-400.56C2711.38,-397.73 4137,-379.42 4137,-291 4137,-291 4137,-291 4137,-233 4137,-151.76 4026.24,-129.85 3951,-124.33"/>
<polygon fill="midnightblue" stroke="midnightblue" points="3950.84,-120.82 3940.64,-123.66 3950.39,-127.8 3950.84,-120.82"/>
</g>
<!-- Node49&#45;&gt;Node32 -->
<g id="edge173" class="edge">
<title>Node49&#45;&gt;Node32</title>
<path fill="none" stroke="midnightblue" d="M2419.02,-401.32C2663.65,-402.55 3701.17,-404.77 4021,-356 4126.01,-339.99 4251,-397.23 4251,-291 4251,-291 4251,-291 4251,-233 4251,-173.55 4243.37,-145.11 4194,-112 4128.86,-68.31 3567.13,-82.94 3489,-76 3476.46,-74.89 3462.72,-73.24 3450.7,-71.67"/>
<polygon fill="midnightblue" stroke="midnightblue" points="3451.03,-68.18 3440.66,-70.31 3450.1,-75.12 3451.03,-68.18"/>
</g>
<!-- Node49&#45;&gt;Node34 -->
<g id="edge175" class="edge">
<title>Node49&#45;&gt;Node34</title>
<path fill="none" stroke="midnightblue" d="M2314.98,-400.63C2083.61,-398.78 1153.84,-389.35 1028,-356 1009.55,-351.11 1008.21,-341.7 990,-336 864.36,-296.7 822.17,-337.55 696,-300 641.89,-283.9 632.31,-269.59 582,-244 564.99,-235.35 561.84,-230.78 544,-224 504.1,-208.84 197.32,-165.6 171,-132 165.52,-125 165.14,-118.68 171,-112 191.04,-89.16 393.69,-74.31 477.76,-69.09"/>
<polygon fill="midnightblue" stroke="midnightblue" points="478.1,-72.58 487.87,-68.48 477.67,-65.59 478.1,-72.58"/>
</g>
<!-- Node49&#45;&gt;Node35 -->
<g id="edge176" class="edge">
<title>Node49&#45;&gt;Node35</title>
<path fill="none" stroke="midnightblue" d="M2419.03,-400.89C2693.94,-400.18 3971.32,-394.77 4143,-356 4212.28,-340.35 4289,-362.03 4289,-291 4289,-291 4289,-291 4289,-177 4289,-134.87 4258.73,-128.57 4220,-112 4084.13,-53.86 3706.17,-102.05 3542.53,-75.37"/>
<polygon fill="midnightblue" stroke="midnightblue" points="3543,-71.9 3532.54,-73.6 3541.77,-78.79 3543,-71.9"/>
</g>
<!-- Node49&#45;&gt;Node36 -->
<g id="edge120" class="edge">
<title>Node49&#45;&gt;Node36</title>
<path fill="none" stroke="midnightblue" d="M2314.81,-399.45C2175.31,-395.1 1782.21,-381.37 1456,-356 1426.65,-353.72 948.69,-321.89 929,-300 846.1,-207.82 1086.66,-185.86 1210.44,-180.63"/>
<polygon fill="midnightblue" stroke="midnightblue" points="1210.74,-184.12 1220.59,-180.23 1210.46,-177.13 1210.74,-184.12"/>
</g>
<!-- Node49&#45;&gt;Node39 -->
<g id="edge141" class="edge">
<title>Node49&#45;&gt;Node39</title>
<path fill="none" stroke="midnightblue" d="M2314.94,-400.57C2087.62,-398.52 1187.98,-388.39 1066,-356 1047.55,-351.1 1046.21,-341.71 1028,-336 903.65,-297.02 861.9,-337.2 737,-300 735.85,-299.66 583.12,-224.44 582,-224 526.96,-202.43 362.5,-155.74 285.54,-134.25"/>
<polygon fill="midnightblue" stroke="midnightblue" points="286.3,-130.82 275.72,-131.51 284.42,-137.56 286.3,-130.82"/>
</g>
<!-- Node49&#45;&gt;Node40 -->
<g id="edge172" class="edge">
<title>Node49&#45;&gt;Node40</title>
<path fill="none" stroke="midnightblue" d="M2352.96,-392.42C2291.07,-354.7 2041.98,-203.88 1958,-168 1947.04,-163.32 1881.05,-144.16 1840.02,-132.41"/>
<polygon fill="midnightblue" stroke="midnightblue" points="1840.75,-128.98 1830.17,-129.59 1838.82,-135.71 1840.75,-128.98"/>
</g>
<!-- Node49&#45;&gt;Node41 -->
<g id="edge174" class="edge">
<title>Node49&#45;&gt;Node41</title>
<path fill="none" stroke="midnightblue" d="M2314.99,-400.4C2113.21,-397.87 1382.02,-386.72 1152,-356 1113.1,-350.81 1104.63,-342.92 1066,-336 940.76,-313.56 902.03,-342.19 782,-300 721.02,-278.57 715.95,-252.63 658,-224 580.35,-185.64 484.3,-151.88 432.78,-134.81"/>
<polygon fill="midnightblue" stroke="midnightblue" points="433.68,-131.42 423.09,-131.62 431.49,-138.07 433.68,-131.42"/>
</g>
<!-- Node49&#45;&gt;Node44 -->
<g id="edge181" class="edge">
<title>Node49&#45;&gt;Node44</title>
<path fill="none" stroke="midnightblue" d="M2314.8,-400.7C2194.44,-399.38 1900.84,-392.42 1810,-356 1719.51,-319.72 1637.38,-232.12 1605.75,-195.51"/>
<polygon fill="midnightblue" stroke="midnightblue" points="1608.29,-193.09 1599.14,-187.74 1602.96,-197.63 1608.29,-193.09"/>
</g>
<!-- Node50 -->
<g id="node42" class="node">
<title>Node50</title>
<g id="a_node42"><a xlink:href="c_2Error_8h.html" target="_top" xlink:title="llvm&#45;c/Error.h">
<polygon fill="none" stroke="red" points="4355.5,-336.5 4355.5,-355.5 4430.5,-355.5 4430.5,-336.5 4355.5,-336.5"/>
<text text-anchor="middle" x="4393" y="-343.5" font-family="Helvetica,sans-Serif" font-size="10.00">llvm&#45;c/Error.h</text>
</a>
</g>
</g>
<!-- Node49&#45;&gt;Node50 -->
<g id="edge119" class="edge">
<title>Node49&#45;&gt;Node50</title>
<path fill="none" stroke="midnightblue" d="M2419.17,-400.86C2691.5,-399.97 3952.26,-393.86 4341,-356 4342.31,-355.87 4343.63,-355.73 4344.97,-355.58"/>
<polygon fill="midnightblue" stroke="midnightblue" points="4345.87,-358.99 4355.32,-354.2 4344.94,-352.05 4345.87,-358.99"/>
</g>
<!-- Node52 -->
<g id="node43" class="node">
<title>Node52</title>
<g id="a_node43"><a xlink:href="StringExtras_8h.html" target="_top" xlink:title="llvm/ADT/StringExtras.h">
<polygon fill="none" stroke="red" points="2450.5,-336.5 2450.5,-355.5 2573.5,-355.5 2573.5,-336.5 2450.5,-336.5"/>
<text text-anchor="middle" x="2512" y="-343.5" font-family="Helvetica,sans-Serif" font-size="10.00">llvm/ADT/StringExtras.h</text>
</a>
</g>
</g>
<!-- Node49&#45;&gt;Node52 -->
<g id="edge122" class="edge">
<title>Node49&#45;&gt;Node52</title>
<path fill="none" stroke="midnightblue" d="M2389.98,-392.44C2414.16,-383.44 2452.42,-369.19 2479.65,-359.05"/>
<polygon fill="midnightblue" stroke="midnightblue" points="2480.98,-362.29 2489.13,-355.52 2478.54,-355.73 2480.98,-362.29"/>
</g>
<!-- Node54 -->
<g id="node44" class="node">
<title>Node54</title>
<g id="a_node44"><a xlink:href="Twine_8h.html" target="_top" xlink:title="llvm/ADT/Twine.h">
<polygon fill="none" stroke="black" points="2605.5,-280.5 2605.5,-299.5 2700.5,-299.5 2700.5,-280.5 2605.5,-280.5"/>
<text text-anchor="middle" x="2653" y="-287.5" font-family="Helvetica,sans-Serif" font-size="10.00">llvm/ADT/Twine.h</text>
</a>
</g>
</g>
<!-- Node49&#45;&gt;Node54 -->
<g id="edge140" class="edge">
<title>Node49&#45;&gt;Node54</title>
<path fill="none" stroke="midnightblue" d="M2419.08,-397.85C2464.3,-393.35 2530.42,-382.45 2582,-356 2605.12,-344.14 2626.35,-322.71 2639.45,-307.71"/>
<polygon fill="midnightblue" stroke="midnightblue" points="2642.4,-309.64 2646.18,-299.74 2637.06,-305.12 2642.4,-309.64"/>
</g>
<!-- Node55 -->
<g id="node45" class="node">
<title>Node55</title>
<g id="a_node45"><a xlink:href="Debug_8h.html" target="_top" xlink:title="llvm/Support/Debug.h">
<polygon fill="none" stroke="black" points="1852.5,-336.5 1852.5,-355.5 1963.5,-355.5 1963.5,-336.5 1852.5,-336.5"/>
<text text-anchor="middle" x="1908" y="-343.5" font-family="Helvetica,sans-Serif" font-size="10.00">llvm/Support/Debug.h</text>
</a>
</g>
</g>
<!-- Node49&#45;&gt;Node55 -->
<g id="edge144" class="edge">
<title>Node49&#45;&gt;Node55</title>
<path fill="none" stroke="midnightblue" d="M2314.75,-395.17C2240.06,-386.78 2098.46,-370.71 1978,-356 1976.7,-355.84 1975.39,-355.68 1974.06,-355.52"/>
<polygon fill="midnightblue" stroke="midnightblue" points="1974.13,-352 1963.78,-354.24 1973.27,-358.94 1974.13,-352"/>
</g>
<!-- Node56 -->
<g id="node46" class="node">
<title>Node56</title>
<g id="a_node46"><a xlink:href="ErrorOr_8h.html" target="_top" xlink:title="Provides ErrorOr&lt;T&gt; smart pointer. ">
<polygon fill="none" stroke="black" points="3529,-168.5 3529,-187.5 3643,-187.5 3643,-168.5 3529,-168.5"/>
<text text-anchor="middle" x="3586" y="-175.5" font-family="Helvetica,sans-Serif" font-size="10.00">llvm/Support/ErrorOr.h</text>
</a>
</g>
</g>
<!-- Node49&#45;&gt;Node56 -->
<g id="edge146" class="edge">
<title>Node49&#45;&gt;Node56</title>
<path fill="none" stroke="midnightblue" d="M2419.06,-399.51C2679.84,-391.81 3833.79,-354.73 3885,-300 3908.08,-275.34 3907.04,-249.6 3885,-224 3855.75,-190.02 3732.39,-181.35 3653.55,-179.34"/>
<polygon fill="midnightblue" stroke="midnightblue" points="3653.29,-175.84 3643.21,-179.11 3653.13,-182.84 3653.29,-175.84"/>
</g>
<!-- Node57 -->
<g id="node47" class="node">
<title>Node57</title>
<polygon fill="none" stroke="#bfbfbf" points="4111,-112.5 4111,-131.5 4185,-131.5 4185,-112.5 4111,-112.5"/>
<text text-anchor="middle" x="4148" y="-119.5" font-family="Helvetica,sans-Serif" font-size="10.00">system_error</text>
</g>
<!-- Node49&#45;&gt;Node57 -->
<g id="edge178" class="edge">
<title>Node49&#45;&gt;Node57</title>
<path fill="none" stroke="midnightblue" d="M2419.21,-400.86C2653.47,-400 3609.07,-394.18 3906,-356 4015.93,-341.87 4078.45,-385.48 4149,-300 4186.94,-254.04 4166.82,-176.13 4154.84,-141.06"/>
<polygon fill="midnightblue" stroke="midnightblue" points="4158.13,-139.86 4151.45,-131.63 4151.54,-142.23 4158.13,-139.86"/>
</g>
<!-- Node58 -->
<g id="node48" class="node">
<title>Node58</title>
<g id="a_node48"><a xlink:href="Format_8h.html" target="_top" xlink:title="llvm/Support/Format.h">
<polygon fill="none" stroke="red" points="938.5,-280.5 938.5,-299.5 1051.5,-299.5 1051.5,-280.5 938.5,-280.5"/>
<text text-anchor="middle" x="995" y="-287.5" font-family="Helvetica,sans-Serif" font-size="10.00">llvm/Support/Format.h</text>
</a>
</g>
</g>
<!-- Node49&#45;&gt;Node58 -->
<g id="edge152" class="edge">
<title>Node49&#45;&gt;Node58</title>
<path fill="none" stroke="midnightblue" d="M2314.65,-398.01C2200.79,-391.4 1922.13,-374.65 1689,-356 1458.45,-337.56 1185.32,-310.42 1061.7,-297.85"/>
<polygon fill="midnightblue" stroke="midnightblue" points="1061.93,-294.36 1051.63,-296.83 1061.22,-301.32 1061.93,-294.36"/>
</g>
<!-- Node60 -->
<g id="node49" class="node">
<title>Node60</title>
<g id="a_node49"><a xlink:href="raw__ostream_8h.html" target="_top" xlink:title="llvm/Support/raw_ostream.h">
<polygon fill="none" stroke="black" points="2766.5,-280.5 2766.5,-299.5 2905.5,-299.5 2905.5,-280.5 2766.5,-280.5"/>
<text text-anchor="middle" x="2836" y="-287.5" font-family="Helvetica,sans-Serif" font-size="10.00">llvm/Support/raw_ostream.h</text>
</a>
</g>
</g>
<!-- Node49&#45;&gt;Node60 -->
<g id="edge160" class="edge">
<title>Node49&#45;&gt;Node60</title>
<path fill="none" stroke="midnightblue" d="M2419.34,-398.3C2509.96,-393.06 2692.05,-379.87 2751,-356 2778.57,-344.84 2804.9,-322.22 2820.76,-306.83"/>
<polygon fill="midnightblue" stroke="midnightblue" points="2823.45,-309.09 2828.05,-299.55 2818.5,-304.14 2823.45,-309.09"/>
</g>
<!-- Node52&#45;&gt;Node1 -->
<g id="edge123" class="edge">
<title>Node52&#45;&gt;Node1</title>
<path fill="none" stroke="midnightblue" d="M2450.4,-338.28C2270.99,-318.72 1749.99,-261.93 1567.25,-242"/>
<polygon fill="midnightblue" stroke="midnightblue" points="1567.57,-238.52 1557.25,-240.91 1566.82,-245.48 1567.57,-238.52"/>
</g>
<!-- Node52&#45;&gt;Node13 -->
<g id="edge138" class="edge">
<title>Node52&#45;&gt;Node13</title>
<path fill="none" stroke="midnightblue" d="M2573.7,-344.05C2822.36,-339.72 3751.09,-318.77 4034,-244 4125.09,-219.92 4164.71,-212.3 4214,-132 4232.27,-102.23 4237.81,-90.72 4234,-56 4233.03,-47.14 4231.01,-37.47 4229.04,-29.38"/>
<polygon fill="midnightblue" stroke="midnightblue" points="4232.38,-28.33 4226.48,-19.53 4225.61,-30.09 4232.38,-28.33"/>
</g>
<!-- Node52&#45;&gt;Node15 -->
<g id="edge133" class="edge">
<title>Node52&#45;&gt;Node15</title>
<path fill="none" stroke="midnightblue" d="M2573.8,-341.05C2693.12,-333.39 2963.54,-315.87 3191,-300 3416.45,-284.27 4072.75,-322.72 4194,-132 4237.01,-64.35 3920,-25.47 3812.68,-14.35"/>
<polygon fill="midnightblue" stroke="midnightblue" points="3812.98,-10.86 3802.67,-13.33 3812.27,-17.83 3812.98,-10.86"/>
</g>
<!-- Node52&#45;&gt;Node19 -->
<g id="edge139" class="edge">
<title>Node52&#45;&gt;Node19</title>
<path fill="none" stroke="midnightblue" d="M2450.35,-343.95C2167.47,-339.02 1004.17,-317.75 929,-300 908.49,-295.16 906,-286.66 886,-280 771.37,-241.83 739.1,-244.27 620,-224 498.05,-203.24 464.86,-214.38 344,-188 323.43,-183.51 175.49,-148.94 163,-132 145.1,-107.72 174.2,-66.63 190,-56 204.41,-46.31 738.88,-19.19 873.48,-12.5"/>
<polygon fill="midnightblue" stroke="midnightblue" points="874.05,-15.98 883.86,-11.99 873.7,-8.99 874.05,-15.98"/>
</g>
<!-- Node52&#45;&gt;Node21 -->
<g id="edge132" class="edge">
<title>Node52&#45;&gt;Node21</title>
<path fill="none" stroke="midnightblue" d="M2520.9,-336.29C2547.98,-309.12 2629.46,-222.33 2661,-132 2666.19,-117.14 2666.92,-99.22 2666.5,-85.96"/>
<polygon fill="midnightblue" stroke="midnightblue" points="2669.98,-85.49 2665.93,-75.7 2662.99,-85.89 2669.98,-85.49"/>
</g>
<!-- Node52&#45;&gt;Node22 -->
<g id="edge136" class="edge">
<title>Node52&#45;&gt;Node22</title>
<path fill="none" stroke="midnightblue" d="M2573.59,-342.07C2653.03,-337.38 2795.13,-325.94 2914,-300 2991.72,-283.04 3014.47,-282.64 3084,-244 3117.92,-225.15 3131.82,-221.74 3151,-188 3163.46,-166.09 3157.99,-157.13 3160,-132 3160.71,-123.14 3163.11,-120.33 3160,-112 3155.83,-100.81 3147.48,-90.56 3139.58,-82.68"/>
<polygon fill="midnightblue" stroke="midnightblue" points="3141.7,-79.87 3131.99,-75.63 3136.94,-85 3141.7,-79.87"/>
</g>
<!-- Node52&#45;&gt;Node26 -->
<g id="edge137" class="edge">
<title>Node52&#45;&gt;Node26</title>
<path fill="none" stroke="midnightblue" d="M2450.44,-343.84C2172.75,-338.54 1043.49,-316.18 886,-300 604.84,-271.12 529.16,-274.24 260,-188 149.44,-152.57 86.05,-174.13 24,-76 19.25,-68.49 17.95,-62.51 24,-56 64.13,-12.85 486.98,-10.57 610.38,-10.83"/>
<polygon fill="midnightblue" stroke="midnightblue" points="610.38,-14.33 620.39,-10.86 610.4,-7.33 610.38,-14.33"/>
</g>
<!-- Node52&#45;&gt;Node32 -->
<g id="edge135" class="edge">
<title>Node52&#45;&gt;Node32</title>
<path fill="none" stroke="midnightblue" d="M2573.67,-341.24C2800.83,-326.75 3581.38,-271.2 3652,-188 3657.75,-181.22 3657.72,-174.8 3652,-168 3591.58,-96.23 3516.9,-191.05 3444,-132 3430,-120.66 3423.5,-100.66 3420.5,-85.83"/>
<polygon fill="midnightblue" stroke="midnightblue" points="3423.92,-85.02 3418.83,-75.73 3417.01,-86.17 3423.92,-85.02"/>
</g>
<!-- Node52&#45;&gt;Node40 -->
<g id="edge134" class="edge">
<title>Node52&#45;&gt;Node40</title>
<path fill="none" stroke="midnightblue" d="M2489.83,-336.33C2419.18,-308.94 2192.69,-222.8 2000,-168 1929.89,-148.06 1910.73,-149.59 1840,-132 1839.9,-131.97 1839.8,-131.95 1839.7,-131.92"/>
<polygon fill="midnightblue" stroke="midnightblue" points="1840.6,-128.54 1830.04,-129.43 1838.85,-135.32 1840.6,-128.54"/>
</g>
<!-- Node52&#45;&gt;Node48 -->
<g id="edge124" class="edge">
<title>Node52&#45;&gt;Node48</title>
<path fill="none" stroke="midnightblue" d="M2510.59,-336.37C2507.68,-318.62 2500.98,-277.67 2497.04,-253.6"/>
<polygon fill="midnightblue" stroke="midnightblue" points="2500.47,-252.89 2495.41,-243.59 2493.57,-254.03 2500.47,-252.89"/>
</g>
<!-- Node52&#45;&gt;Node54 -->
<g id="edge125" class="edge">
<title>Node52&#45;&gt;Node54</title>
<path fill="none" stroke="midnightblue" d="M2534.34,-336.44C2557.75,-327.48 2594.74,-313.31 2621.19,-303.18"/>
<polygon fill="midnightblue" stroke="midnightblue" points="2622.68,-306.36 2630.76,-299.52 2620.17,-299.82 2622.68,-306.36"/>
</g>
<!-- Node54&#45;&gt;Node9 -->
<g id="edge128" class="edge">
<title>Node54&#45;&gt;Node9</title>
<path fill="none" stroke="midnightblue" d="M2700.82,-284.84C2897.25,-267.65 3632.63,-202.45 3652,-188 3680.29,-166.9 3689.82,-144.03 3675,-112 3669.08,-99.21 3657.53,-88.72 3646.72,-81.1"/>
<polygon fill="midnightblue" stroke="midnightblue" points="3648.62,-78.16 3638.33,-75.61 3644.79,-84.02 3648.62,-78.16"/>
</g>
<!-- Node54&#45;&gt;Node13 -->
<g id="edge131" class="edge">
<title>Node54&#45;&gt;Node13</title>
<path fill="none" stroke="midnightblue" d="M2700.62,-284.72C2718.32,-283.17 2738.57,-281.44 2757,-280 3236.38,-242.44 3364.83,-288.79 3835,-188 3911.55,-171.59 3930.24,-163.3 4002,-132 4077.99,-98.86 4162.68,-48.76 4201.88,-24.76"/>
<polygon fill="midnightblue" stroke="midnightblue" points="4203.72,-27.74 4210.4,-19.52 4200.05,-21.78 4203.72,-27.74"/>
</g>
<!-- Node54&#45;&gt;Node21 -->
<g id="edge129" class="edge">
<title>Node54&#45;&gt;Node21</title>
<path fill="none" stroke="midnightblue" d="M2652.32,-280.39C2651.08,-259.54 2650.33,-205.33 2672,-168 2684.86,-145.85 2705.9,-155.08 2717,-132 2726.41,-112.41 2706.82,-93.41 2689.05,-81.06"/>
<polygon fill="midnightblue" stroke="midnightblue" points="2690.9,-78.09 2680.61,-75.56 2687.08,-83.95 2690.9,-78.09"/>
</g>
<!-- Node54&#45;&gt;Node24 -->
<g id="edge126" class="edge">
<title>Node54&#45;&gt;Node24</title>
<path fill="none" stroke="midnightblue" d="M2659.98,-280.37C2674.74,-262.14 2709.29,-219.43 2728.51,-195.68"/>
<polygon fill="midnightblue" stroke="midnightblue" points="2731.48,-197.57 2735.05,-187.59 2726.04,-193.16 2731.48,-197.57"/>
</g>
<!-- Node54&#45;&gt;Node40 -->
<g id="edge130" class="edge">
<title>Node54&#45;&gt;Node40</title>
<path fill="none" stroke="midnightblue" d="M2605.81,-280.44C2560.54,-272 2490.33,-258.32 2430,-244 2305.37,-214.43 2277.75,-192.39 2152,-168 2016.7,-141.75 1979.66,-156.33 1844,-132 1842.72,-131.77 1841.42,-131.52 1840.1,-131.26"/>
<polygon fill="midnightblue" stroke="midnightblue" points="1840.52,-127.77 1830,-129.06 1839.02,-134.61 1840.52,-127.77"/>
</g>
<!-- Node54&#45;&gt;Node48 -->
<g id="edge127" class="edge">
<title>Node54&#45;&gt;Node48</title>
<path fill="none" stroke="midnightblue" d="M2627.81,-280.44C2601.06,-271.36 2558.6,-256.94 2528.69,-246.78"/>
<polygon fill="midnightblue" stroke="midnightblue" points="2529.67,-243.42 2519.08,-243.52 2527.42,-250.05 2529.67,-243.42"/>
</g>
<!-- Node56&#45;&gt;Node16 -->
<g id="edge150" class="edge">
<title>Node56&#45;&gt;Node16</title>
<path fill="none" stroke="midnightblue" d="M3546.26,-168.49C3510.48,-160.43 3456.66,-147.3 3411,-132 3389.09,-124.66 3384.88,-119.44 3363,-112 3271.55,-80.91 3248.53,-70.31 3153,-56 3123.13,-51.53 2181.24,-19.49 1971.23,-12.39"/>
<polygon fill="midnightblue" stroke="midnightblue" points="1971.34,-8.89 1961.23,-12.05 1971.11,-15.89 1971.34,-8.89"/>
</g>
<!-- Node56&#45;&gt;Node19 -->
<g id="edge151" class="edge">
<title>Node56&#45;&gt;Node19</title>
<path fill="none" stroke="midnightblue" d="M3528.86,-175.77C3278.21,-170.28 2282.16,-147.69 2143,-132 2014.29,-117.49 1979.16,-119.06 1857,-76 1839,-69.65 1837.41,-61.03 1819,-56 1646.85,-8.95 1073.34,-9.81 934.47,-10.74"/>
<polygon fill="midnightblue" stroke="midnightblue" points="934.14,-7.24 924.16,-10.81 934.19,-14.24 934.14,-7.24"/>
</g>
<!-- Node56&#45;&gt;Node21 -->
<g id="edge148" class="edge">
<title>Node56&#45;&gt;Node21</title>
<path fill="none" stroke="midnightblue" d="M3528.74,-170.16C3355.23,-149.44 2838.71,-87.75 2699.75,-71.15"/>
<polygon fill="midnightblue" stroke="midnightblue" points="2700.02,-67.66 2689.67,-69.95 2699.19,-74.61 2700.02,-67.66"/>
</g>
<!-- Node56&#45;&gt;Node27 -->
<g id="edge147" class="edge">
<title>Node56&#45;&gt;Node27</title>
<path fill="none" stroke="midnightblue" d="M3633.06,-168.44C3685.41,-158.92 3769.99,-143.55 3826.04,-133.36"/>
<polygon fill="midnightblue" stroke="midnightblue" points="3826.95,-136.75 3836.16,-131.52 3825.69,-129.86 3826.95,-136.75"/>
</g>
<!-- Node56&#45;&gt;Node57 -->
<g id="edge149" class="edge">
<title>Node56&#45;&gt;Node57</title>
<path fill="none" stroke="midnightblue" d="M3643.24,-171.5C3754.53,-160.81 3998.16,-137.4 4100.86,-127.53"/>
<polygon fill="midnightblue" stroke="midnightblue" points="4101.31,-131 4110.93,-126.56 4100.64,-124.03 4101.31,-131"/>
</g>
<!-- Node58&#45;&gt;Node1 -->
<g id="edge153" class="edge">
<title>Node58&#45;&gt;Node1</title>
<path fill="none" stroke="midnightblue" d="M1051.57,-281.71C1056.45,-281.12 1061.31,-280.54 1066,-280 1198.33,-264.8 1353.5,-249.4 1438.75,-241.14"/>
<polygon fill="midnightblue" stroke="midnightblue" points="1439.18,-244.62 1448.79,-240.17 1438.5,-237.65 1439.18,-244.62"/>
</g>
<!-- Node58&#45;&gt;Node3 -->
<g id="edge156" class="edge">
<title>Node58&#45;&gt;Node3</title>
<path fill="none" stroke="midnightblue" d="M975.46,-280.44C942.19,-266.25 872.09,-238.04 810,-224 663.51,-190.89 622.62,-209.66 474,-188 457.06,-185.53 181.95,-145.16 171,-132 165.31,-125.17 165.3,-118.82 171,-112 312.75,57.84 -291.16,-80.12 1970,-20 2049.92,-17.88 2141.42,-15.19 2204.18,-13.3"/>
<polygon fill="midnightblue" stroke="midnightblue" points="2204.5,-16.8 2214.39,-13 2204.29,-9.8 2204.5,-16.8"/>
</g>
<!-- Node58&#45;&gt;Node19 -->
<g id="edge159" class="edge">
<title>Node58&#45;&gt;Node19</title>
<path fill="none" stroke="midnightblue" d="M983.96,-280.42C965.06,-266.21 924.76,-237.97 886,-224 829.87,-203.78 395.08,-177.93 357,-132 288.16,-48.96 749.24,-18.98 873.64,-12.46"/>
<polygon fill="midnightblue" stroke="midnightblue" points="874.16,-15.93 883.96,-11.93 873.8,-8.94 874.16,-15.93"/>
</g>
<!-- Node58&#45;&gt;Node21 -->
<g id="edge157" class="edge">
<title>Node58&#45;&gt;Node21</title>
<path fill="none" stroke="midnightblue" d="M1051.7,-287.42C1286.23,-280.5 2181.11,-250.49 2456,-188 2521.75,-173.05 2540.25,-168.41 2597,-132 2618.14,-118.43 2638.43,-97.71 2651.25,-83.32"/>
<polygon fill="midnightblue" stroke="midnightblue" points="2653.97,-85.52 2657.89,-75.68 2648.69,-80.93 2653.97,-85.52"/>
</g>
<!-- Node58&#45;&gt;Node36 -->
<g id="edge154" class="edge">
<title>Node58&#45;&gt;Node36</title>
<path fill="none" stroke="midnightblue" d="M1017.29,-280.37C1067.47,-260.93 1189.48,-213.67 1247.43,-191.23"/>
<polygon fill="midnightblue" stroke="midnightblue" points="1248.76,-194.47 1256.82,-187.59 1246.23,-187.94 1248.76,-194.47"/>
</g>
<!-- Node58&#45;&gt;Node42 -->
<g id="edge158" class="edge">
<title>Node58&#45;&gt;Node42</title>
<path fill="none" stroke="midnightblue" d="M1035.18,-280.48C1101.42,-265.75 1237.06,-232.79 1346,-188 1381.21,-173.52 1419.42,-151.4 1442.79,-137.06"/>
<polygon fill="midnightblue" stroke="midnightblue" points="1444.91,-139.87 1451.56,-131.62 1441.22,-133.92 1444.91,-139.87"/>
</g>
<!-- Node58&#45;&gt;Node48 -->
<g id="edge155" class="edge">
<title>Node58&#45;&gt;Node48</title>
<path fill="none" stroke="midnightblue" d="M1051.6,-287.11C1230.5,-281.1 1799.74,-261.82 2271,-244 2323.98,-242 2384.04,-239.56 2428.47,-237.73"/>
<polygon fill="midnightblue" stroke="midnightblue" points="2428.71,-241.23 2438.56,-237.32 2428.42,-234.23 2428.71,-241.23"/>
</g>
<!-- Node60&#45;&gt;Node13 -->
<g id="edge167" class="edge">
<title>Node60&#45;&gt;Node13</title>
<path fill="none" stroke="midnightblue" d="M2905.9,-287.8C3134.88,-283.64 3853.59,-268.73 3955,-244 4068.97,-216.21 4119.53,-222.64 4194,-132 4218.31,-102.42 4223.35,-55.94 4224.14,-30.04"/>
<polygon fill="midnightblue" stroke="midnightblue" points="4227.64,-29.77 4224.26,-19.73 4220.64,-29.69 4227.64,-29.77"/>
</g>
<!-- Node60&#45;&gt;Node15 -->
<g id="edge164" class="edge">
<title>Node60&#45;&gt;Node15</title>
<path fill="none" stroke="midnightblue" d="M2905.68,-284.72C3141.66,-269.52 3899.79,-214.54 3968,-132 3987.54,-108.35 3957.87,-71.34 3939,-56 3902.68,-26.46 3848.2,-16.28 3812.88,-12.79"/>
<polygon fill="midnightblue" stroke="midnightblue" points="3812.83,-9.27 3802.57,-11.91 3812.23,-16.25 3812.83,-9.27"/>
</g>
<!-- Node60&#45;&gt;Node16 -->
<g id="edge169" class="edge">
<title>Node60&#45;&gt;Node16</title>
<path fill="none" stroke="midnightblue" d="M2837.43,-280.26C2840.56,-257.64 2845.34,-196.89 2812,-168 2754.9,-118.53 2204.5,-156.39 2133,-132 2076.76,-112.81 2074.34,-85.92 2023,-56 2002.28,-43.93 1977.84,-32.19 1959.21,-23.73"/>
<polygon fill="midnightblue" stroke="midnightblue" points="1960.61,-20.52 1950.05,-19.62 1957.74,-26.91 1960.61,-20.52"/>
</g>
<!-- Node60&#45;&gt;Node21 -->
<g id="edge163" class="edge">
<title>Node60&#45;&gt;Node21</title>
<path fill="none" stroke="midnightblue" d="M2839.54,-280.21C2847.34,-259.44 2863.82,-206.16 2845,-168 2817.34,-111.92 2743.75,-85.36 2699.7,-74.14"/>
<polygon fill="midnightblue" stroke="midnightblue" points="2700.25,-70.67 2689.71,-71.73 2698.61,-77.48 2700.25,-70.67"/>
</g>
<!-- Node60&#45;&gt;Node22 -->
<g id="edge166" class="edge">
<title>Node60&#45;&gt;Node22</title>
<path fill="none" stroke="midnightblue" d="M2905.8,-284.04C2973.17,-275.44 3073.22,-251.98 3131,-188 3153.97,-162.57 3152.02,-145.32 3144,-112 3141.69,-102.42 3136.98,-92.58 3132.42,-84.56"/>
<polygon fill="midnightblue" stroke="midnightblue" points="3135.29,-82.54 3127.1,-75.81 3129.31,-86.17 3135.29,-82.54"/>
</g>
<!-- Node60&#45;&gt;Node24 -->
<g id="edge161" class="edge">
<title>Node60&#45;&gt;Node24</title>
<path fill="none" stroke="midnightblue" d="M2828.62,-280.37C2812.97,-262.05 2776.22,-219.05 2755.98,-195.36"/>
<polygon fill="midnightblue" stroke="midnightblue" points="2758.5,-192.92 2749.34,-187.59 2753.18,-197.47 2758.5,-192.92"/>
</g>
<!-- Node60&#45;&gt;Node40 -->
<g id="edge165" class="edge">
<title>Node60&#45;&gt;Node40</title>
<path fill="none" stroke="midnightblue" d="M2802.79,-280.43C2750.81,-267.21 2647,-241.52 2558,-224 2403.86,-193.65 2364.8,-188.16 2209,-168 2047.34,-147.08 2004.7,-159.33 1844,-132 1842.75,-131.79 1841.49,-131.56 1840.21,-131.31"/>
<polygon fill="midnightblue" stroke="midnightblue" points="1840.9,-127.88 1830.38,-129.21 1839.43,-134.73 1840.9,-127.88"/>
</g>
<!-- Node60&#45;&gt;Node48 -->
<g id="edge162" class="edge">
<title>Node60&#45;&gt;Node48</title>
<path fill="none" stroke="midnightblue" d="M2781.81,-280.44C2721.02,-270.85 2622.51,-255.29 2557.99,-245.1"/>
<polygon fill="midnightblue" stroke="midnightblue" points="2558.36,-241.62 2547.94,-243.52 2557.27,-248.53 2558.36,-241.62"/>
</g>
<!-- Node60&#45;&gt;Node57 -->
<g id="edge168" class="edge">
<title>Node60&#45;&gt;Node57</title>
<path fill="none" stroke="midnightblue" d="M2905.52,-287.93C3129.81,-284.24 3825.43,-270.73 3923,-244 3928.41,-242.52 4065.77,-167.82 4123.16,-136.54"/>
<polygon fill="midnightblue" stroke="midnightblue" points="4125.18,-139.43 4132.28,-131.58 4121.83,-133.29 4125.18,-139.43"/>
</g>
<!-- Node61&#45;&gt;Node10 -->
<g id="edge185" class="edge">
<title>Node61&#45;&gt;Node10</title>
<path fill="none" stroke="midnightblue" d="M3042.96,-168.08C3036.98,-141.95 3019.41,-65.21 3011.25,-29.58"/>
<polygon fill="midnightblue" stroke="midnightblue" points="3014.6,-28.53 3008.96,-19.57 3007.78,-30.1 3014.6,-28.53"/>
</g>
<!-- Node61&#45;&gt;Node14 -->
<g id="edge186" class="edge">
<title>Node61&#45;&gt;Node14</title>
<path fill="none" stroke="midnightblue" d="M2996.63,-168.46C2883.6,-148.5 2602.46,-98.86 2480.26,-77.29"/>
<polygon fill="midnightblue" stroke="midnightblue" points="2480.79,-73.83 2470.34,-75.53 2479.58,-80.72 2480.79,-73.83"/>
</g>
<!-- Node61&#45;&gt;Node15 -->
<g id="edge188" class="edge">
<title>Node61&#45;&gt;Node15</title>
<path fill="none" stroke="midnightblue" d="M3101.73,-176.83C3257.75,-175.87 3685.02,-169.78 3735,-132 3767.21,-107.65 3775.37,-57.19 3777.38,-29.75"/>
<polygon fill="midnightblue" stroke="midnightblue" points="3780.89,-29.71 3777.92,-19.54 3773.9,-29.34 3780.89,-29.71"/>
</g>
<!-- Node61&#45;&gt;Node16 -->
<g id="edge191" class="edge">
<title>Node61&#45;&gt;Node16</title>
<path fill="none" stroke="midnightblue" d="M2988.49,-174.44C2791.48,-165.47 2146.66,-135.85 2143,-132 2119.62,-107.42 2171.45,-82.28 2150,-56 2127.9,-28.92 2028.8,-17.7 1971.42,-13.4"/>
<polygon fill="midnightblue" stroke="midnightblue" points="1971.45,-9.9 1961.23,-12.68 1970.95,-16.88 1971.45,-9.9"/>
</g>
<!-- Node61&#45;&gt;Node21 -->
<g id="edge187" class="edge">
<title>Node61&#45;&gt;Node21</title>
<path fill="none" stroke="midnightblue" d="M3030.2,-168.47C3005.49,-154.58 2953.88,-127.12 2907,-112 2835.16,-88.83 2747.24,-76.21 2699.64,-70.61"/>
<polygon fill="midnightblue" stroke="midnightblue" points="2699.89,-67.12 2689.55,-69.46 2699.09,-74.07 2699.89,-67.12"/>
</g>
<!-- Node61&#45;&gt;Node22 -->
<g id="edge190" class="edge">
<title>Node61&#45;&gt;Node22</title>
<path fill="none" stroke="midnightblue" d="M3050.96,-168.37C3063.51,-150.22 3092.81,-107.8 3109.26,-83.99"/>
<polygon fill="midnightblue" stroke="midnightblue" points="3112.26,-85.81 3115.06,-75.59 3106.5,-81.83 3112.26,-85.81"/>
</g>
<!-- Node61&#45;&gt;Node27 -->
<g id="edge184" class="edge">
<title>Node61&#45;&gt;Node27</title>
<path fill="none" stroke="midnightblue" d="M3101.66,-173.88C3224.19,-167.06 3522.92,-149.96 3773,-132 3786.69,-131.02 3801.33,-129.88 3815.31,-128.75"/>
<polygon fill="midnightblue" stroke="midnightblue" points="3815.67,-132.23 3825.36,-127.93 3815.11,-125.26 3815.67,-132.23"/>
</g>
<!-- Node61&#45;&gt;Node40 -->
<g id="edge189" class="edge">
<title>Node61&#45;&gt;Node40</title>
<path fill="none" stroke="midnightblue" d="M2988.18,-174.52C2772.73,-165.12 2009.8,-131.85 1840.46,-124.46"/>
<polygon fill="midnightblue" stroke="midnightblue" points="1840.54,-120.96 1830.4,-124.02 1840.23,-127.95 1840.54,-120.96"/>
</g>
</g>
</svg>
