<?xml version="1.0" encoding="UTF-8" standalone="no"?>
<!DOCTYPE svg PUBLIC "-//W3C//DTD SVG 1.1//EN"
 "http://www.w3.org/Graphics/SVG/1.1/DTD/svg11.dtd">
<!-- Generated by graphviz version 2.43.0 (0)
 -->
<!-- Title: lib/Target/Hexagon/BitTracker.h Pages: 1 -->
<svg width="419pt" height="173pt"
 viewBox="0.00 0.00 418.50 173.00" xmlns="http://www.w3.org/2000/svg" xmlns:xlink="http://www.w3.org/1999/xlink">
<g id="graph0" class="graph" transform="scale(1 1) rotate(0) translate(4 169)">
<title>lib/Target/Hexagon/BitTracker.h</title>
<!-- Node137 -->
<g id="node1" class="node">
<title>Node137</title>
<polygon fill="#bfbfbf" stroke="black" points="120,-134.5 120,-164.5 219,-164.5 219,-134.5 120,-134.5"/>
<text text-anchor="start" x="128" y="-152.5" font-family="Helvetica,sans-Serif" font-size="10.00">lib/Target/Hexagon</text>
<text text-anchor="middle" x="169.5" y="-141.5" font-family="Helvetica,sans-Serif" font-size="10.00">/BitTracker.h</text>
</g>
<!-- Node138 -->
<g id="node2" class="node">
<title>Node138</title>
<g id="a_node2"><a xlink:href="BitTracker_8cpp.html" target="_top" xlink:title="lib/Target/Hexagon\l/BitTracker.cpp">
<polygon fill="none" stroke="black" points="0,-67.5 0,-97.5 99,-97.5 99,-67.5 0,-67.5"/>
<text text-anchor="start" x="8" y="-85.5" font-family="Helvetica,sans-Serif" font-size="10.00">lib/Target/Hexagon</text>
<text text-anchor="middle" x="49.5" y="-74.5" font-family="Helvetica,sans-Serif" font-size="10.00">/BitTracker.cpp</text>
</a>
</g>
</g>
<!-- Node137&#45;&gt;Node138 -->
<g id="edge1" class="edge">
<title>Node137&#45;&gt;Node138</title>
<path fill="none" stroke="midnightblue" d="M134.56,-129.57C115.68,-119.35 92.77,-106.94 75.49,-97.58"/>
<polygon fill="midnightblue" stroke="midnightblue" points="133,-132.71 143.46,-134.4 136.34,-126.56 133,-132.71"/>
</g>
<!-- Node139 -->
<g id="node3" class="node">
<title>Node139</title>
<g id="a_node3"><a xlink:href="HexagonBitSimplify_8cpp.html" target="_top" xlink:title="lib/Target/Hexagon\l/HexagonBitSimplify.cpp">
<polygon fill="none" stroke="black" points="7,-0.5 7,-30.5 132,-30.5 132,-0.5 7,-0.5"/>
<text text-anchor="start" x="15" y="-18.5" font-family="Helvetica,sans-Serif" font-size="10.00">lib/Target/Hexagon</text>
<text text-anchor="middle" x="69.5" y="-7.5" font-family="Helvetica,sans-Serif" font-size="10.00">/HexagonBitSimplify.cpp</text>
</a>
</g>
</g>
<!-- Node137&#45;&gt;Node139 -->
<g id="edge2" class="edge">
<title>Node137&#45;&gt;Node139</title>
<path fill="none" stroke="midnightblue" d="M152.6,-126.19C131.89,-98.86 97.44,-53.38 80.12,-30.52"/>
<polygon fill="midnightblue" stroke="midnightblue" points="149.97,-128.52 158.8,-134.37 155.55,-124.29 149.97,-128.52"/>
</g>
<!-- Node140 -->
<g id="node4" class="node">
<title>Node140</title>
<g id="a_node4"><a xlink:href="HexagonBitTracker_8h.html" target="_top" xlink:title="lib/Target/Hexagon\l/HexagonBitTracker.h">
<polygon fill="none" stroke="black" points="155.5,-67.5 155.5,-97.5 267.5,-97.5 267.5,-67.5 155.5,-67.5"/>
<text text-anchor="start" x="163.5" y="-85.5" font-family="Helvetica,sans-Serif" font-size="10.00">lib/Target/Hexagon</text>
<text text-anchor="middle" x="211.5" y="-74.5" font-family="Helvetica,sans-Serif" font-size="10.00">/HexagonBitTracker.h</text>
</a>
</g>
</g>
<!-- Node137&#45;&gt;Node140 -->
<g id="edge3" class="edge">
<title>Node137&#45;&gt;Node140</title>
<path fill="none" stroke="midnightblue" d="M184.12,-125.87C190.2,-116.46 197.07,-105.83 202.4,-97.58"/>
<polygon fill="midnightblue" stroke="midnightblue" points="181.1,-124.1 178.61,-134.4 186.98,-127.9 181.1,-124.1"/>
</g>
<!-- Node142 -->
<g id="node6" class="node">
<title>Node142</title>
<g id="a_node6"><a xlink:href="HexagonGenInsert_8cpp.html" target="_top" xlink:title="lib/Target/Hexagon\l/HexagonGenInsert.cpp">
<polygon fill="none" stroke="black" points="290.5,-0.5 290.5,-30.5 410.5,-30.5 410.5,-0.5 290.5,-0.5"/>
<text text-anchor="start" x="298.5" y="-18.5" font-family="Helvetica,sans-Serif" font-size="10.00">lib/Target/Hexagon</text>
<text text-anchor="middle" x="350.5" y="-7.5" font-family="Helvetica,sans-Serif" font-size="10.00">/HexagonGenInsert.cpp</text>
</a>
</g>
</g>
<!-- Node137&#45;&gt;Node142 -->
<g id="edge7" class="edge">
<title>Node137&#45;&gt;Node142</title>
<path fill="none" stroke="midnightblue" d="M217.64,-130.58C236.9,-122.22 258.69,-111.18 276.5,-98 302.92,-78.44 327.24,-48.37 340.36,-30.75"/>
<polygon fill="midnightblue" stroke="midnightblue" points="216.27,-127.36 208.41,-134.47 218.99,-133.81 216.27,-127.36"/>
</g>
<!-- Node140&#45;&gt;Node139 -->
<g id="edge4" class="edge">
<title>Node140&#45;&gt;Node139</title>
<path fill="none" stroke="midnightblue" d="M171.37,-63.13C148.81,-52.8 121.08,-40.11 100.25,-30.58"/>
<polygon fill="midnightblue" stroke="midnightblue" points="170.14,-66.42 180.69,-67.4 173.05,-60.05 170.14,-66.42"/>
</g>
<!-- Node141 -->
<g id="node5" class="node">
<title>Node141</title>
<g id="a_node5"><a xlink:href="HexagonBitTracker_8cpp.html" target="_top" xlink:title="lib/Target/Hexagon\l/HexagonBitTracker.cpp">
<polygon fill="none" stroke="black" points="150.5,-0.5 150.5,-30.5 272.5,-30.5 272.5,-0.5 150.5,-0.5"/>
<text text-anchor="start" x="158.5" y="-18.5" font-family="Helvetica,sans-Serif" font-size="10.00">lib/Target/Hexagon</text>
<text text-anchor="middle" x="211.5" y="-7.5" font-family="Helvetica,sans-Serif" font-size="10.00">/HexagonBitTracker.cpp</text>
</a>
</g>
</g>
<!-- Node140&#45;&gt;Node141 -->
<g id="edge5" class="edge">
<title>Node140&#45;&gt;Node141</title>
<path fill="none" stroke="midnightblue" d="M211.5,-57.11C211.5,-48.15 211.5,-38.32 211.5,-30.58"/>
<polygon fill="midnightblue" stroke="midnightblue" points="208,-57.4 211.5,-67.4 215,-57.4 208,-57.4"/>
</g>
<!-- Node140&#45;&gt;Node142 -->
<g id="edge6" class="edge">
<title>Node140&#45;&gt;Node142</title>
<path fill="none" stroke="midnightblue" d="M250.78,-63.13C272.87,-52.8 300.01,-40.11 320.4,-30.58"/>
<polygon fill="midnightblue" stroke="midnightblue" points="249.24,-59.99 241.66,-67.4 252.2,-66.33 249.24,-59.99"/>
</g>
</g>
</svg>
