<?xml version="1.0" encoding="UTF-8" standalone="no"?>
<!DOCTYPE svg PUBLIC "-//W3C//DTD SVG 1.1//EN"
 "http://www.w3.org/Graphics/SVG/1.1/DTD/svg11.dtd">
<!-- Generated by graphviz version 2.43.0 (0)
 -->
<!-- Title: include/llvm/Analysis/BlockFrequencyInfoImpl.h Pages: 1 -->
<svg width="733pt" height="106pt"
 viewBox="0.00 0.00 733.00 106.00" xmlns="http://www.w3.org/2000/svg" xmlns:xlink="http://www.w3.org/1999/xlink">
<g id="graph0" class="graph" transform="scale(1 1) rotate(0) translate(4 102)">
<title>include/llvm/Analysis/BlockFrequencyInfoImpl.h</title>
<!-- Node104 -->
<g id="node1" class="node">
<title>Node104</title>
<polygon fill="#bfbfbf" stroke="black" points="317,-67.5 317,-97.5 451,-97.5 451,-67.5 317,-67.5"/>
<text text-anchor="start" x="325" y="-85.5" font-family="Helvetica,sans-Serif" font-size="10.00">include/llvm/Analysis</text>
<text text-anchor="middle" x="384" y="-74.5" font-family="Helvetica,sans-Serif" font-size="10.00">/BlockFrequencyInfoImpl.h</text>
</g>
<!-- Node105 -->
<g id="node2" class="node">
<title>Node105</title>
<g id="a_node2"><a xlink:href="BlockFrequencyInfo_8cpp.html" target="_top" xlink:title="lib/Analysis/BlockFrequency\lInfo.cpp">
<polygon fill="none" stroke="black" points="0,-0.5 0,-30.5 140,-30.5 140,-0.5 0,-0.5"/>
<text text-anchor="start" x="8" y="-18.5" font-family="Helvetica,sans-Serif" font-size="10.00">lib/Analysis/BlockFrequency</text>
<text text-anchor="middle" x="70" y="-7.5" font-family="Helvetica,sans-Serif" font-size="10.00">Info.cpp</text>
</a>
</g>
</g>
<!-- Node104&#45;&gt;Node105 -->
<g id="edge1" class="edge">
<title>Node104&#45;&gt;Node105</title>
<path fill="none" stroke="midnightblue" d="M306.83,-65.53C255.06,-54.81 187.5,-40.82 137.79,-30.53"/>
<polygon fill="midnightblue" stroke="midnightblue" points="306.14,-68.96 316.64,-67.56 307.56,-62.1 306.14,-68.96"/>
</g>
<!-- Node106 -->
<g id="node3" class="node">
<title>Node106</title>
<g id="a_node3"><a xlink:href="BlockFrequencyInfoImpl_8cpp.html" target="_top" xlink:title="lib/Analysis/BlockFrequency\lInfoImpl.cpp">
<polygon fill="none" stroke="black" points="158,-0.5 158,-30.5 298,-30.5 298,-0.5 158,-0.5"/>
<text text-anchor="start" x="166" y="-18.5" font-family="Helvetica,sans-Serif" font-size="10.00">lib/Analysis/BlockFrequency</text>
<text text-anchor="middle" x="228" y="-7.5" font-family="Helvetica,sans-Serif" font-size="10.00">InfoImpl.cpp</text>
</a>
</g>
</g>
<!-- Node104&#45;&gt;Node106 -->
<g id="edge2" class="edge">
<title>Node104&#45;&gt;Node106</title>
<path fill="none" stroke="midnightblue" d="M340.91,-63.54C315.94,-53.14 284.97,-40.24 261.78,-30.58"/>
<polygon fill="midnightblue" stroke="midnightblue" points="339.57,-66.78 350.15,-67.4 342.27,-60.32 339.57,-66.78"/>
</g>
<!-- Node107 -->
<g id="node4" class="node">
<title>Node107</title>
<g id="a_node4"><a xlink:href="MachineBlockFrequencyInfo_8cpp.html" target="_top" xlink:title="lib/CodeGen/MachineBlock\lFrequencyInfo.cpp">
<polygon fill="none" stroke="black" points="316.5,-0.5 316.5,-30.5 451.5,-30.5 451.5,-0.5 316.5,-0.5"/>
<text text-anchor="start" x="324.5" y="-18.5" font-family="Helvetica,sans-Serif" font-size="10.00">lib/CodeGen/MachineBlock</text>
<text text-anchor="middle" x="384" y="-7.5" font-family="Helvetica,sans-Serif" font-size="10.00">FrequencyInfo.cpp</text>
</a>
</g>
</g>
<!-- Node104&#45;&gt;Node107 -->
<g id="edge3" class="edge">
<title>Node104&#45;&gt;Node107</title>
<path fill="none" stroke="midnightblue" d="M384,-57.11C384,-48.15 384,-38.32 384,-30.58"/>
<polygon fill="midnightblue" stroke="midnightblue" points="380.5,-57.4 384,-67.4 387.5,-57.4 380.5,-57.4"/>
</g>
<!-- Node108 -->
<g id="node5" class="node">
<title>Node108</title>
<g id="a_node5"><a xlink:href="MachineBlockPlacement_8cpp.html" target="_top" xlink:title="lib/CodeGen/MachineBlock\lPlacement.cpp">
<polygon fill="none" stroke="black" points="469.5,-0.5 469.5,-30.5 604.5,-30.5 604.5,-0.5 469.5,-0.5"/>
<text text-anchor="start" x="477.5" y="-18.5" font-family="Helvetica,sans-Serif" font-size="10.00">lib/CodeGen/MachineBlock</text>
<text text-anchor="middle" x="537" y="-7.5" font-family="Helvetica,sans-Serif" font-size="10.00">Placement.cpp</text>
</a>
</g>
</g>
<!-- Node104&#45;&gt;Node108 -->
<g id="edge4" class="edge">
<title>Node104&#45;&gt;Node108</title>
<path fill="none" stroke="midnightblue" d="M426.59,-63.41C451.02,-53.03 481.22,-40.2 503.87,-30.58"/>
<polygon fill="midnightblue" stroke="midnightblue" points="425.03,-60.26 417.2,-67.4 427.77,-66.71 425.03,-60.26"/>
</g>
<!-- Node109 -->
<g id="node6" class="node">
<title>Node109</title>
<g id="a_node6"><a xlink:href="CodeExtractor_8cpp.html" target="_top" xlink:title="lib/Transforms/Utils\l/CodeExtractor.cpp">
<polygon fill="none" stroke="black" points="623,-0.5 623,-30.5 725,-30.5 725,-0.5 623,-0.5"/>
<text text-anchor="start" x="631" y="-18.5" font-family="Helvetica,sans-Serif" font-size="10.00">lib/Transforms/Utils</text>
<text text-anchor="middle" x="674" y="-7.5" font-family="Helvetica,sans-Serif" font-size="10.00">/CodeExtractor.cpp</text>
</a>
</g>
</g>
<!-- Node104&#45;&gt;Node109 -->
<g id="edge5" class="edge">
<title>Node104&#45;&gt;Node109</title>
<path fill="none" stroke="midnightblue" d="M459.47,-65.35C504.41,-55.62 562.52,-42.87 614,-31 616.92,-30.33 619.93,-29.63 622.95,-28.91"/>
<polygon fill="midnightblue" stroke="midnightblue" points="458.55,-61.96 449.51,-67.5 460.03,-68.81 458.55,-61.96"/>
</g>
</g>
</svg>
