<?xml version="1.0" encoding="UTF-8" standalone="no"?>
<!DOCTYPE svg PUBLIC "-//W3C//DTD SVG 1.1//EN"
 "http://www.w3.org/Graphics/SVG/1.1/DTD/svg11.dtd">
<!-- Generated by graphviz version 2.43.0 (0)
 -->
<!-- Title: lib/Target/BPF/BPF.h Pages: 1 -->
<svg width="1645pt" height="274pt"
 viewBox="0.00 0.00 1645.00 274.00" xmlns="http://www.w3.org/2000/svg" xmlns:xlink="http://www.w3.org/1999/xlink">
<g id="graph0" class="graph" transform="scale(1 1) rotate(0) translate(4 270)">
<title>lib/Target/BPF/BPF.h</title>
<!-- Node90 -->
<g id="node1" class="node">
<title>Node90</title>
<polygon fill="#bfbfbf" stroke="black" points="1077.5,-246.5 1077.5,-265.5 1187.5,-265.5 1187.5,-246.5 1077.5,-246.5"/>
<text text-anchor="middle" x="1132.5" y="-253.5" font-family="Helvetica,sans-Serif" font-size="10.00">lib/Target/BPF/BPF.h</text>
</g>
<!-- Node91 -->
<g id="node2" class="node">
<title>Node91</title>
<g id="a_node2"><a xlink:href="BPFAbstractMemberAccess_8cpp.html" target="_top" xlink:title="lib/Target/BPF/BPFAbstract\lMemberAccess.cpp">
<polygon fill="none" stroke="black" points="195,-0.5 195,-30.5 334,-30.5 334,-0.5 195,-0.5"/>
<text text-anchor="start" x="203" y="-18.5" font-family="Helvetica,sans-Serif" font-size="10.00">lib/Target/BPF/BPFAbstract</text>
<text text-anchor="middle" x="264.5" y="-7.5" font-family="Helvetica,sans-Serif" font-size="10.00">MemberAccess.cpp</text>
</a>
</g>
</g>
<!-- Node90&#45;&gt;Node91 -->
<g id="edge1" class="edge">
<title>Node90&#45;&gt;Node91</title>
<path fill="none" stroke="midnightblue" d="M1067.02,-253.46C931.26,-249.74 623.38,-238.37 522.5,-210 410.12,-178.4 309.66,-69.92 276.24,-30.75"/>
<polygon fill="midnightblue" stroke="midnightblue" points="1067.18,-256.97 1077.27,-253.74 1067.37,-249.97 1067.18,-256.97"/>
</g>
<!-- Node92 -->
<g id="node3" class="node">
<title>Node92</title>
<g id="a_node3"><a xlink:href="BPFISelLowering_8h.html" target="_top" xlink:title="lib/Target/BPF/BPFISelLowering.h">
<polygon fill="none" stroke="black" points="93,-190.5 93,-209.5 260,-209.5 260,-190.5 93,-190.5"/>
<text text-anchor="middle" x="176.5" y="-197.5" font-family="Helvetica,sans-Serif" font-size="10.00">lib/Target/BPF/BPFISelLowering.h</text>
</a>
</g>
</g>
<!-- Node90&#45;&gt;Node92 -->
<g id="edge2" class="edge">
<title>Node90&#45;&gt;Node92</title>
<path fill="none" stroke="midnightblue" d="M1067.04,-252.47C923.32,-246.72 569.38,-231.47 273.5,-210 269.11,-209.68 264.62,-209.34 260.08,-208.97"/>
<polygon fill="midnightblue" stroke="midnightblue" points="1067.3,-255.98 1077.43,-252.88 1067.58,-248.99 1067.3,-255.98"/>
</g>
<!-- Node95 -->
<g id="node6" class="node">
<title>Node95</title>
<g id="a_node6"><a xlink:href="BPFAsmPrinter_8cpp.html" target="_top" xlink:title="lib/Target/BPF/BPFAsmPrinter.cpp">
<polygon fill="none" stroke="black" points="684.5,-6 684.5,-25 854.5,-25 854.5,-6 684.5,-6"/>
<text text-anchor="middle" x="769.5" y="-13" font-family="Helvetica,sans-Serif" font-size="10.00">lib/Target/BPF/BPFAsmPrinter.cpp</text>
</a>
</g>
</g>
<!-- Node90&#45;&gt;Node95 -->
<g id="edge20" class="edge">
<title>Node90&#45;&gt;Node95</title>
<path fill="none" stroke="midnightblue" d="M1137.1,-236.35C1145.17,-198.7 1157.07,-113.28 1112.5,-67 1073.72,-26.73 918.79,-39.26 863.5,-31 850.76,-29.1 837.06,-27.01 824.16,-25.02"/>
<polygon fill="midnightblue" stroke="midnightblue" points="1133.62,-235.87 1134.79,-246.4 1140.44,-237.45 1133.62,-235.87"/>
</g>
<!-- Node96 -->
<g id="node7" class="node">
<title>Node96</title>
<g id="a_node7"><a xlink:href="BPFISelDAGToDAG_8cpp.html" target="_top" xlink:title="lib/Target/BPF/BPFISelDAGTo\lDAG.cpp">
<polygon fill="none" stroke="black" points="352.5,-0.5 352.5,-30.5 504.5,-30.5 504.5,-0.5 352.5,-0.5"/>
<text text-anchor="start" x="360.5" y="-18.5" font-family="Helvetica,sans-Serif" font-size="10.00">lib/Target/BPF/BPFISelDAGTo</text>
<text text-anchor="middle" x="428.5" y="-7.5" font-family="Helvetica,sans-Serif" font-size="10.00">DAG.cpp</text>
</a>
</g>
</g>
<!-- Node90&#45;&gt;Node96 -->
<g id="edge22" class="edge">
<title>Node90&#45;&gt;Node96</title>
<path fill="none" stroke="midnightblue" d="M1067.06,-252.97C914.16,-247.05 538.85,-225.45 438.5,-154 405.3,-130.36 402.21,-107.1 409.5,-67 411.81,-54.28 417.15,-40.6 421.59,-30.69"/>
<polygon fill="midnightblue" stroke="midnightblue" points="1067.11,-256.47 1077.24,-253.35 1067.38,-249.48 1067.11,-256.47"/>
</g>
<!-- Node97 -->
<g id="node8" class="node">
<title>Node97</title>
<g id="a_node8"><a xlink:href="BPFISelLowering_8cpp.html" target="_top" xlink:title="lib/Target/BPF/BPFISelLowering.cpp">
<polygon fill="none" stroke="black" points="0,-6 0,-25 177,-25 177,-6 0,-6"/>
<text text-anchor="middle" x="88.5" y="-13" font-family="Helvetica,sans-Serif" font-size="10.00">lib/Target/BPF/BPFISelLowering.cpp</text>
</a>
</g>
</g>
<!-- Node90&#45;&gt;Node97 -->
<g id="edge23" class="edge">
<title>Node90&#45;&gt;Node97</title>
<path fill="none" stroke="midnightblue" d="M1067.15,-254.66C843.06,-253.16 117.6,-245.59 83.5,-210 33.29,-157.59 71.37,-55.86 84.49,-25.36"/>
<polygon fill="midnightblue" stroke="midnightblue" points="1067.42,-258.16 1077.44,-254.72 1067.46,-251.16 1067.42,-258.16"/>
</g>
<!-- Node98 -->
<g id="node9" class="node">
<title>Node98</title>
<g id="a_node9"><a xlink:href="BPFMIChecking_8cpp.html" target="_top" xlink:title="lib/Target/BPF/BPFMIChecking.cpp">
<polygon fill="none" stroke="black" points="873,-6 873,-25 1046,-25 1046,-6 873,-6"/>
<text text-anchor="middle" x="959.5" y="-13" font-family="Helvetica,sans-Serif" font-size="10.00">lib/Target/BPF/BPFMIChecking.cpp</text>
</a>
</g>
</g>
<!-- Node90&#45;&gt;Node98 -->
<g id="edge24" class="edge">
<title>Node90&#45;&gt;Node98</title>
<path fill="none" stroke="midnightblue" d="M1140.95,-237.08C1156.67,-200.81 1185.44,-117.85 1146.5,-67 1131.17,-46.98 1069.6,-33.08 1021.24,-25"/>
<polygon fill="midnightblue" stroke="midnightblue" points="1137.68,-235.82 1136.75,-246.38 1144.06,-238.7 1137.68,-235.82"/>
</g>
<!-- Node99 -->
<g id="node10" class="node">
<title>Node99</title>
<g id="a_node10"><a xlink:href="BPFMIPeephole_8cpp.html" target="_top" xlink:title="lib/Target/BPF/BPFMIPeephole.cpp">
<polygon fill="none" stroke="black" points="1064,-6 1064,-25 1237,-25 1237,-6 1064,-6"/>
<text text-anchor="middle" x="1150.5" y="-13" font-family="Helvetica,sans-Serif" font-size="10.00">lib/Target/BPF/BPFMIPeephole.cpp</text>
</a>
</g>
</g>
<!-- Node90&#45;&gt;Node99 -->
<g id="edge25" class="edge">
<title>Node90&#45;&gt;Node99</title>
<path fill="none" stroke="midnightblue" d="M1156.87,-240.73C1167.45,-233.09 1178.72,-222.64 1184.5,-210 1210.92,-152.2 1203.06,-127.79 1184.5,-67 1179.5,-50.62 1167.21,-34.75 1158.86,-25.3"/>
<polygon fill="midnightblue" stroke="midnightblue" points="1154.65,-238 1148.28,-246.47 1158.54,-243.82 1154.65,-238"/>
</g>
<!-- Node100 -->
<g id="node11" class="node">
<title>Node100</title>
<g id="a_node11"><a xlink:href="BPFMISimplifyPatchable_8cpp.html" target="_top" xlink:title="lib/Target/BPF/BPFMISimplify\lPatchable.cpp">
<polygon fill="none" stroke="black" points="1255,-0.5 1255,-30.5 1404,-30.5 1404,-0.5 1255,-0.5"/>
<text text-anchor="start" x="1263" y="-18.5" font-family="Helvetica,sans-Serif" font-size="10.00">lib/Target/BPF/BPFMISimplify</text>
<text text-anchor="middle" x="1329.5" y="-7.5" font-family="Helvetica,sans-Serif" font-size="10.00">Patchable.cpp</text>
</a>
</g>
</g>
<!-- Node90&#45;&gt;Node100 -->
<g id="edge26" class="edge">
<title>Node90&#45;&gt;Node100</title>
<path fill="none" stroke="midnightblue" d="M1161.03,-241.79C1175.22,-234.1 1191.79,-223.3 1203.5,-210 1249.89,-157.33 1228,-122.85 1270.5,-67 1281.28,-52.84 1296.63,-39.85 1308.97,-30.6"/>
<polygon fill="midnightblue" stroke="midnightblue" points="1159.41,-238.69 1152.13,-246.39 1162.62,-244.91 1159.41,-238.69"/>
</g>
<!-- Node102 -->
<g id="node13" class="node">
<title>Node102</title>
<g id="a_node13"><a xlink:href="BPFTargetMachine_8cpp.html" target="_top" xlink:title="lib/Target/BPF/BPFTarget\lMachine.cpp">
<polygon fill="none" stroke="black" points="1422.5,-0.5 1422.5,-30.5 1552.5,-30.5 1552.5,-0.5 1422.5,-0.5"/>
<text text-anchor="start" x="1430.5" y="-18.5" font-family="Helvetica,sans-Serif" font-size="10.00">lib/Target/BPF/BPFTarget</text>
<text text-anchor="middle" x="1487.5" y="-7.5" font-family="Helvetica,sans-Serif" font-size="10.00">Machine.cpp</text>
</a>
</g>
</g>
<!-- Node90&#45;&gt;Node102 -->
<g id="edge29" class="edge">
<title>Node90&#45;&gt;Node102</title>
<path fill="none" stroke="midnightblue" d="M1162.2,-242.33C1180.83,-233.97 1205.1,-222.32 1225.5,-210 1323.51,-150.79 1430.4,-64.18 1470.8,-30.56"/>
<polygon fill="midnightblue" stroke="midnightblue" points="1160.75,-239.14 1153.02,-246.39 1163.58,-245.55 1160.75,-239.14"/>
</g>
<!-- Node104 -->
<g id="node15" class="node">
<title>Node104</title>
<g id="a_node15"><a xlink:href="BPFRegisterInfo_8cpp.html" target="_top" xlink:title="lib/Target/BPF/BPFRegister\lInfo.cpp">
<polygon fill="none" stroke="black" points="784,-67.5 784,-97.5 923,-97.5 923,-67.5 784,-67.5"/>
<text text-anchor="start" x="792" y="-85.5" font-family="Helvetica,sans-Serif" font-size="10.00">lib/Target/BPF/BPFRegister</text>
<text text-anchor="middle" x="853.5" y="-74.5" font-family="Helvetica,sans-Serif" font-size="10.00">Info.cpp</text>
</a>
</g>
</g>
<!-- Node90&#45;&gt;Node104 -->
<g id="edge27" class="edge">
<title>Node90&#45;&gt;Node104</title>
<path fill="none" stroke="midnightblue" d="M1110.14,-241.26C1058.02,-209.22 928.9,-129.85 876.32,-97.53"/>
<polygon fill="midnightblue" stroke="midnightblue" points="1108.31,-244.24 1118.66,-246.5 1111.98,-238.28 1108.31,-244.24"/>
</g>
<!-- Node105 -->
<g id="node16" class="node">
<title>Node105</title>
<g id="a_node16"><a xlink:href="BPFSubtarget_8cpp.html" target="_top" xlink:title="lib/Target/BPF/BPFSubtarget.cpp">
<polygon fill="none" stroke="black" points="941,-73 941,-92 1104,-92 1104,-73 941,-73"/>
<text text-anchor="middle" x="1022.5" y="-80" font-family="Helvetica,sans-Serif" font-size="10.00">lib/Target/BPF/BPFSubtarget.cpp</text>
</a>
</g>
</g>
<!-- Node90&#45;&gt;Node105 -->
<g id="edge28" class="edge">
<title>Node90&#45;&gt;Node105</title>
<path fill="none" stroke="midnightblue" d="M1121.43,-237.74C1098.21,-201.53 1045.13,-118.78 1027.96,-92.02"/>
<polygon fill="midnightblue" stroke="midnightblue" points="1118.55,-239.73 1126.89,-246.26 1124.44,-235.95 1118.55,-239.73"/>
</g>
<!-- Node106 -->
<g id="node17" class="node">
<title>Node106</title>
<g id="a_node17"><a xlink:href="BPFInstrInfo_8cpp.html" target="_top" xlink:title="lib/Target/BPF/BPFInstrInfo.cpp">
<polygon fill="none" stroke="black" points="1313,-190.5 1313,-209.5 1470,-209.5 1470,-190.5 1313,-190.5"/>
<text text-anchor="middle" x="1391.5" y="-197.5" font-family="Helvetica,sans-Serif" font-size="10.00">lib/Target/BPF/BPFInstrInfo.cpp</text>
</a>
</g>
</g>
<!-- Node90&#45;&gt;Node106 -->
<g id="edge21" class="edge">
<title>Node90&#45;&gt;Node106</title>
<path fill="none" stroke="midnightblue" d="M1183.6,-244.35C1232.55,-234.14 1305.45,-218.94 1350.65,-209.52"/>
<polygon fill="midnightblue" stroke="midnightblue" points="1182.61,-240.98 1173.54,-246.44 1184.04,-247.83 1182.61,-240.98"/>
</g>
<!-- Node107 -->
<g id="node18" class="node">
<title>Node107</title>
<g id="a_node18"><a xlink:href="BTFDebug_8cpp.html" target="_top" xlink:title="lib/Target/BPF/BTFDebug.cpp">
<polygon fill="none" stroke="black" points="1488,-190.5 1488,-209.5 1637,-209.5 1637,-190.5 1488,-190.5"/>
<text text-anchor="middle" x="1562.5" y="-197.5" font-family="Helvetica,sans-Serif" font-size="10.00">lib/Target/BPF/BTFDebug.cpp</text>
</a>
</g>
</g>
<!-- Node90&#45;&gt;Node107 -->
<g id="edge30" class="edge">
<title>Node90&#45;&gt;Node107</title>
<path fill="none" stroke="midnightblue" d="M1197.81,-246.8C1277.99,-236.73 1413.31,-219.74 1494.64,-209.52"/>
<polygon fill="midnightblue" stroke="midnightblue" points="1197.32,-243.33 1187.83,-248.05 1198.19,-250.28 1197.32,-243.33"/>
</g>
<!-- Node93 -->
<g id="node4" class="node">
<title>Node93</title>
<g id="a_node4"><a xlink:href="BPFSubtarget_8h.html" target="_top" xlink:title="lib/Target/BPF/BPFSubtarget.h">
<polygon fill="none" stroke="black" points="447.5,-134.5 447.5,-153.5 599.5,-153.5 599.5,-134.5 447.5,-134.5"/>
<text text-anchor="middle" x="523.5" y="-141.5" font-family="Helvetica,sans-Serif" font-size="10.00">lib/Target/BPF/BPFSubtarget.h</text>
</a>
</g>
</g>
<!-- Node92&#45;&gt;Node93 -->
<g id="edge3" class="edge">
<title>Node92&#45;&gt;Node93</title>
<path fill="none" stroke="midnightblue" d="M241.7,-188.85C307.26,-178.65 407.21,-163.1 468.77,-153.52"/>
<polygon fill="midnightblue" stroke="midnightblue" points="240.83,-185.45 231.48,-190.44 241.9,-192.36 240.83,-185.45"/>
</g>
<!-- Node92&#45;&gt;Node97 -->
<g id="edge19" class="edge">
<title>Node92&#45;&gt;Node97</title>
<path fill="none" stroke="midnightblue" d="M167.68,-180.72C149.05,-142.07 106.26,-53.33 92.7,-25.21"/>
<polygon fill="midnightblue" stroke="midnightblue" points="164.76,-182.71 172.26,-190.2 171.06,-179.67 164.76,-182.71"/>
</g>
<!-- Node94 -->
<g id="node5" class="node">
<title>Node94</title>
<g id="a_node5"><a xlink:href="BPFTargetMachine_8h.html" target="_top" xlink:title="lib/Target/BPF/BPFTarget\lMachine.h">
<polygon fill="none" stroke="black" points="635.5,-67.5 635.5,-97.5 765.5,-97.5 765.5,-67.5 635.5,-67.5"/>
<text text-anchor="start" x="643.5" y="-85.5" font-family="Helvetica,sans-Serif" font-size="10.00">lib/Target/BPF/BPFTarget</text>
<text text-anchor="middle" x="700.5" y="-74.5" font-family="Helvetica,sans-Serif" font-size="10.00">Machine.h</text>
</a>
</g>
</g>
<!-- Node93&#45;&gt;Node94 -->
<g id="edge4" class="edge">
<title>Node93&#45;&gt;Node94</title>
<path fill="none" stroke="midnightblue" d="M558.51,-131.23C587.33,-121.54 628.27,-107.78 658.78,-97.52"/>
<polygon fill="midnightblue" stroke="midnightblue" points="557.22,-127.97 548.86,-134.48 559.45,-134.61 557.22,-127.97"/>
</g>
<!-- Node93&#45;&gt;Node96 -->
<g id="edge15" class="edge">
<title>Node93&#45;&gt;Node96</title>
<path fill="none" stroke="midnightblue" d="M466.35,-131.08C448.63,-124.41 431,-114.05 420.5,-98 407.19,-77.66 415.23,-48.13 422.04,-30.76"/>
<polygon fill="midnightblue" stroke="midnightblue" points="465.57,-134.51 476.17,-134.42 467.83,-127.89 465.57,-134.51"/>
</g>
<!-- Node93&#45;&gt;Node97 -->
<g id="edge16" class="edge">
<title>Node93&#45;&gt;Node97</title>
<path fill="none" stroke="midnightblue" d="M484.28,-131.59C398.12,-106.54 193.96,-47.17 117.81,-25.02"/>
<polygon fill="midnightblue" stroke="midnightblue" points="483.36,-134.97 493.94,-134.4 485.32,-128.25 483.36,-134.97"/>
</g>
<!-- Node103 -->
<g id="node14" class="node">
<title>Node103</title>
<g id="a_node14"><a xlink:href="BPFFrameLowering_8cpp.html" target="_top" xlink:title="lib/Target/BPF/BPFFrameLowering.cpp">
<polygon fill="none" stroke="black" points="429.5,-73 429.5,-92 617.5,-92 617.5,-73 429.5,-73"/>
<text text-anchor="middle" x="523.5" y="-80" font-family="Helvetica,sans-Serif" font-size="10.00">lib/Target/BPF/BPFFrameLowering.cpp</text>
</a>
</g>
</g>
<!-- Node93&#45;&gt;Node103 -->
<g id="edge14" class="edge">
<title>Node93&#45;&gt;Node103</title>
<path fill="none" stroke="midnightblue" d="M523.5,-124.32C523.5,-113.5 523.5,-100.4 523.5,-92.01"/>
<polygon fill="midnightblue" stroke="midnightblue" points="520,-124.48 523.5,-134.48 527,-124.48 520,-124.48"/>
</g>
<!-- Node93&#45;&gt;Node104 -->
<g id="edge17" class="edge">
<title>Node93&#45;&gt;Node104</title>
<path fill="none" stroke="midnightblue" d="M581.78,-132.62C632.66,-123.54 708.48,-109.98 774.5,-98 777.52,-97.45 780.6,-96.89 783.72,-96.32"/>
<polygon fill="midnightblue" stroke="midnightblue" points="580.86,-129.23 571.63,-134.43 582.09,-136.12 580.86,-129.23"/>
</g>
<!-- Node93&#45;&gt;Node105 -->
<g id="edge18" class="edge">
<title>Node93&#45;&gt;Node105</title>
<path fill="none" stroke="midnightblue" d="M609.68,-134.71C692.36,-126.47 820.65,-112.94 931.5,-98 944.5,-96.25 958.51,-94.13 971.55,-92.06"/>
<polygon fill="midnightblue" stroke="midnightblue" points="609.19,-131.24 599.58,-135.71 609.88,-138.21 609.19,-131.24"/>
</g>
<!-- Node94&#45;&gt;Node91 -->
<g id="edge5" class="edge">
<title>Node94&#45;&gt;Node91</title>
<path fill="none" stroke="midnightblue" d="M625.17,-66.85C499.62,-46.97 465.61,-49.96 343.5,-31 340.47,-30.53 337.37,-30.03 334.25,-29.52"/>
<polygon fill="midnightblue" stroke="midnightblue" points="624.74,-70.33 635.17,-68.45 625.85,-63.42 624.74,-70.33"/>
</g>
<!-- Node94&#45;&gt;Node95 -->
<g id="edge6" class="edge">
<title>Node94&#45;&gt;Node95</title>
<path fill="none" stroke="midnightblue" d="M722.97,-60.34C735.64,-48.4 750.78,-34.14 760.27,-25.19"/>
<polygon fill="midnightblue" stroke="midnightblue" points="720.35,-57.99 715.47,-67.4 725.15,-63.09 720.35,-57.99"/>
</g>
<!-- Node94&#45;&gt;Node96 -->
<g id="edge7" class="edge">
<title>Node94&#45;&gt;Node96</title>
<path fill="none" stroke="midnightblue" d="M631.95,-65.12C587.44,-54.48 530.03,-40.76 487.55,-30.61"/>
<polygon fill="midnightblue" stroke="midnightblue" points="631.28,-68.56 641.81,-67.48 632.9,-61.75 631.28,-68.56"/>
</g>
<!-- Node94&#45;&gt;Node97 -->
<g id="edge8" class="edge">
<title>Node94&#45;&gt;Node97</title>
<path fill="none" stroke="midnightblue" d="M625.19,-66.92C429.98,-40.49 377.61,-53.17 185.5,-31 171.04,-29.33 155.42,-27.16 141.02,-25.01"/>
<polygon fill="midnightblue" stroke="midnightblue" points="624.81,-70.4 635.2,-68.29 625.76,-63.47 624.81,-70.4"/>
</g>
<!-- Node94&#45;&gt;Node98 -->
<g id="edge9" class="edge">
<title>Node94&#45;&gt;Node98</title>
<path fill="none" stroke="midnightblue" d="M766.29,-64.99C817.04,-52.25 885.19,-35.15 925.52,-25.03"/>
<polygon fill="midnightblue" stroke="midnightblue" points="765.23,-61.65 756.38,-67.48 766.93,-68.44 765.23,-61.65"/>
</g>
<!-- Node94&#45;&gt;Node99 -->
<g id="edge10" class="edge">
<title>Node94&#45;&gt;Node99</title>
<path fill="none" stroke="midnightblue" d="M775.73,-66.86C900.03,-46.99 933.39,-47.93 1054.5,-31 1067.77,-29.14 1082.06,-27.04 1095.45,-25.03"/>
<polygon fill="midnightblue" stroke="midnightblue" points="775.14,-63.41 765.83,-68.46 776.26,-70.32 775.14,-63.41"/>
</g>
<!-- Node94&#45;&gt;Node100 -->
<g id="edge11" class="edge">
<title>Node94&#45;&gt;Node100</title>
<path fill="none" stroke="midnightblue" d="M775.84,-66.93C984.28,-39.32 1040.41,-56.48 1245.5,-31 1248.58,-30.62 1251.73,-30.2 1254.9,-29.75"/>
<polygon fill="midnightblue" stroke="midnightblue" points="775.25,-63.47 765.8,-68.27 776.18,-70.41 775.25,-63.47"/>
</g>
<!-- Node101 -->
<g id="node12" class="node">
<title>Node101</title>
<g id="a_node12"><a xlink:href="BPFSelectionDAGInfo_8cpp.html" target="_top" xlink:title="lib/Target/BPF/BPFSelection\lDAGInfo.cpp">
<polygon fill="none" stroke="black" points="523,-0.5 523,-30.5 666,-30.5 666,-0.5 523,-0.5"/>
<text text-anchor="start" x="531" y="-18.5" font-family="Helvetica,sans-Serif" font-size="10.00">lib/Target/BPF/BPFSelection</text>
<text text-anchor="middle" x="594.5" y="-7.5" font-family="Helvetica,sans-Serif" font-size="10.00">DAGInfo.cpp</text>
</a>
</g>
</g>
<!-- Node94&#45;&gt;Node101 -->
<g id="edge12" class="edge">
<title>Node94&#45;&gt;Node101</title>
<path fill="none" stroke="midnightblue" d="M668.72,-62.02C652.23,-51.9 632.45,-39.77 617.46,-30.58"/>
<polygon fill="midnightblue" stroke="midnightblue" points="667.15,-65.15 677.5,-67.4 670.8,-59.18 667.15,-65.15"/>
</g>
<!-- Node94&#45;&gt;Node102 -->
<g id="edge13" class="edge">
<title>Node94&#45;&gt;Node102</title>
<path fill="none" stroke="midnightblue" d="M775.92,-66.95C1058.06,-32.41 1133.97,-65.62 1412.5,-31 1415.66,-30.61 1418.88,-30.16 1422.14,-29.67"/>
<polygon fill="midnightblue" stroke="midnightblue" points="775.28,-63.5 765.79,-68.2 776.15,-70.44 775.28,-63.5"/>
</g>
</g>
</svg>
