<?xml version="1.0" encoding="UTF-8" standalone="no"?>
<!DOCTYPE svg PUBLIC "-//W3C//DTD SVG 1.1//EN"
 "http://www.w3.org/Graphics/SVG/1.1/DTD/svg11.dtd">
<!-- Generated by graphviz version 2.43.0 (0)
 -->
<!-- Title: lib/Target/BPF/BPFMCInstLower.h Pages: 1 -->
<svg width="330pt" height="106pt"
 viewBox="0.00 0.00 330.00 106.00" xmlns="http://www.w3.org/2000/svg" xmlns:xlink="http://www.w3.org/1999/xlink">
<g id="graph0" class="graph" transform="scale(1 1) rotate(0) translate(4 102)">
<title>lib/Target/BPF/BPFMCInstLower.h</title>
<!-- Node4 -->
<g id="node1" class="node">
<title>Node4</title>
<polygon fill="#bfbfbf" stroke="black" points="103,-67.5 103,-97.5 237,-97.5 237,-67.5 103,-67.5"/>
<text text-anchor="start" x="111" y="-85.5" font-family="Helvetica,sans-Serif" font-size="10.00">lib/Target/BPF/BPFMCInst</text>
<text text-anchor="middle" x="170" y="-74.5" font-family="Helvetica,sans-Serif" font-size="10.00">Lower.h</text>
</g>
<!-- Node5 -->
<g id="node2" class="node">
<title>Node5</title>
<g id="a_node2"><a xlink:href="BPFAsmPrinter_8cpp.html" target="_top" xlink:title="lib/Target/BPF/BPFAsmPrinter.cpp">
<polygon fill="none" stroke="black" points="0,-6 0,-25 170,-25 170,-6 0,-6"/>
<text text-anchor="middle" x="85" y="-13" font-family="Helvetica,sans-Serif" font-size="10.00">lib/Target/BPF/BPFAsmPrinter.cpp</text>
</a>
</g>
</g>
<!-- Node4&#45;&gt;Node5 -->
<g id="edge1" class="edge">
<title>Node4&#45;&gt;Node5</title>
<path fill="none" stroke="midnightblue" d="M143.2,-61.01C127.42,-48.94 108.28,-34.3 96.37,-25.19"/>
<polygon fill="midnightblue" stroke="midnightblue" points="141.49,-64.1 151.56,-67.4 145.74,-58.54 141.49,-64.1"/>
</g>
<!-- Node6 -->
<g id="node3" class="node">
<title>Node6</title>
<g id="a_node3"><a xlink:href="BPFMCInstLower_8cpp.html" target="_top" xlink:title="lib/Target/BPF/BPFMCInst\lLower.cpp">
<polygon fill="none" stroke="black" points="188,-0.5 188,-30.5 322,-30.5 322,-0.5 188,-0.5"/>
<text text-anchor="start" x="196" y="-18.5" font-family="Helvetica,sans-Serif" font-size="10.00">lib/Target/BPF/BPFMCInst</text>
<text text-anchor="middle" x="255" y="-7.5" font-family="Helvetica,sans-Serif" font-size="10.00">Lower.cpp</text>
</a>
</g>
</g>
<!-- Node4&#45;&gt;Node6 -->
<g id="edge2" class="edge">
<title>Node4&#45;&gt;Node6</title>
<path fill="none" stroke="midnightblue" d="M196.59,-61.17C209.59,-51.23 224.9,-39.51 236.59,-30.58"/>
<polygon fill="midnightblue" stroke="midnightblue" points="194.26,-58.54 188.44,-67.4 198.51,-64.1 194.26,-58.54"/>
</g>
</g>
</svg>
