<?xml version="1.0" encoding="UTF-8" standalone="no"?>
<!DOCTYPE svg PUBLIC "-//W3C//DTD SVG 1.1//EN"
 "http://www.w3.org/Graphics/SVG/1.1/DTD/svg11.dtd">
<!-- Generated by graphviz version 2.43.0 (0)
 -->
<!-- Title: lib/Target/BPF/MCTargetDesc/BPFMCTargetDesc.h Pages: 1 -->
<svg width="744pt" height="207pt"
 viewBox="0.00 0.00 744.00 207.00" xmlns="http://www.w3.org/2000/svg" xmlns:xlink="http://www.w3.org/1999/xlink">
<g id="graph0" class="graph" transform="scale(1 1) rotate(0) translate(4 203)">
<title>lib/Target/BPF/MCTargetDesc/BPFMCTargetDesc.h</title>
<!-- Node0 -->
<g id="node1" class="node">
<title>Node0</title>
<polygon fill="#bfbfbf" stroke="black" points="276.5,-168.5 276.5,-198.5 425.5,-198.5 425.5,-168.5 276.5,-168.5"/>
<text text-anchor="start" x="284.5" y="-186.5" font-family="Helvetica,sans-Serif" font-size="10.00">lib/Target/BPF/MCTargetDesc</text>
<text text-anchor="middle" x="351" y="-175.5" font-family="Helvetica,sans-Serif" font-size="10.00">/BPFMCTargetDesc.h</text>
</g>
<!-- Node1 -->
<g id="node2" class="node">
<title>Node1</title>
<polygon fill="none" stroke="#bfbfbf" points="0,-112.5 0,-131.5 104,-131.5 104,-112.5 0,-112.5"/>
<text text-anchor="middle" x="52" y="-119.5" font-family="Helvetica,sans-Serif" font-size="10.00">llvm/Config/config.h</text>
</g>
<!-- Node0&#45;&gt;Node1 -->
<g id="edge1" class="edge">
<title>Node0&#45;&gt;Node1</title>
<path fill="none" stroke="midnightblue" d="M280.52,-168.47C226.68,-157.76 153.66,-143.23 104.79,-133.51"/>
<polygon fill="midnightblue" stroke="midnightblue" points="105.24,-130.03 94.75,-131.51 103.87,-136.89 105.24,-130.03"/>
</g>
<!-- Node2 -->
<g id="node3" class="node">
<title>Node2</title>
<g id="a_node3"><a xlink:href="Support_2DataTypes_8h.html" target="_top" xlink:title="llvm/Support/DataTypes.h">
<polygon fill="none" stroke="black" points="122.5,-112.5 122.5,-131.5 253.5,-131.5 253.5,-112.5 122.5,-112.5"/>
<text text-anchor="middle" x="188" y="-119.5" font-family="Helvetica,sans-Serif" font-size="10.00">llvm/Support/DataTypes.h</text>
</a>
</g>
</g>
<!-- Node0&#45;&gt;Node2 -->
<g id="edge2" class="edge">
<title>Node0&#45;&gt;Node2</title>
<path fill="none" stroke="midnightblue" d="M312.37,-168.4C284.66,-158.28 247.69,-144.79 221.28,-135.15"/>
<polygon fill="midnightblue" stroke="midnightblue" points="222.31,-131.8 211.72,-131.66 219.91,-138.37 222.31,-131.8"/>
</g>
<!-- Node8 -->
<g id="node9" class="node">
<title>Node8</title>
<polygon fill="none" stroke="#bfbfbf" points="272,-112.5 272,-131.5 324,-131.5 324,-112.5 272,-112.5"/>
<text text-anchor="middle" x="298" y="-119.5" font-family="Helvetica,sans-Serif" font-size="10.00">memory</text>
</g>
<!-- Node0&#45;&gt;Node8 -->
<g id="edge8" class="edge">
<title>Node0&#45;&gt;Node8</title>
<path fill="none" stroke="midnightblue" d="M338.44,-168.4C330.66,-159.66 320.64,-148.41 312.52,-139.3"/>
<polygon fill="midnightblue" stroke="midnightblue" points="314.98,-136.8 305.71,-131.66 309.75,-141.45 314.98,-136.8"/>
</g>
<!-- Node9 -->
<g id="node10" class="node">
<title>Node9</title>
<polygon fill="none" stroke="#bfbfbf" points="342.5,-112.5 342.5,-131.5 465.5,-131.5 465.5,-112.5 342.5,-112.5"/>
<text text-anchor="middle" x="404" y="-119.5" font-family="Helvetica,sans-Serif" font-size="10.00">BPFGenRegisterInfo.inc</text>
</g>
<!-- Node0&#45;&gt;Node9 -->
<g id="edge9" class="edge">
<title>Node0&#45;&gt;Node9</title>
<path fill="none" stroke="midnightblue" d="M363.56,-168.4C371.34,-159.66 381.36,-148.41 389.48,-139.3"/>
<polygon fill="midnightblue" stroke="midnightblue" points="392.25,-141.45 396.29,-131.66 387.02,-136.8 392.25,-141.45"/>
</g>
<!-- Node10 -->
<g id="node11" class="node">
<title>Node10</title>
<polygon fill="none" stroke="#bfbfbf" points="484,-112.5 484,-131.5 590,-131.5 590,-112.5 484,-112.5"/>
<text text-anchor="middle" x="537" y="-119.5" font-family="Helvetica,sans-Serif" font-size="10.00">BPFGenInstrInfo.inc</text>
</g>
<!-- Node0&#45;&gt;Node10 -->
<g id="edge10" class="edge">
<title>Node0&#45;&gt;Node10</title>
<path fill="none" stroke="midnightblue" d="M395.08,-168.4C427.22,-158.12 470.26,-144.35 500.48,-134.68"/>
<polygon fill="midnightblue" stroke="midnightblue" points="501.75,-137.95 510.21,-131.57 499.62,-131.28 501.75,-137.95"/>
</g>
<!-- Node11 -->
<g id="node12" class="node">
<title>Node11</title>
<polygon fill="none" stroke="#bfbfbf" points="608,-112.5 608,-131.5 736,-131.5 736,-112.5 608,-112.5"/>
<text text-anchor="middle" x="672" y="-119.5" font-family="Helvetica,sans-Serif" font-size="10.00">BPFGenSubtargetInfo.inc</text>
</g>
<!-- Node0&#45;&gt;Node11 -->
<g id="edge11" class="edge">
<title>Node0&#45;&gt;Node11</title>
<path fill="none" stroke="midnightblue" d="M425.86,-168.62C483.99,-157.85 563.31,-143.15 616.02,-133.38"/>
<polygon fill="midnightblue" stroke="midnightblue" points="616.68,-136.81 625.87,-131.55 615.4,-129.93 616.68,-136.81"/>
</g>
<!-- Node3 -->
<g id="node4" class="node">
<title>Node3</title>
<g id="a_node4"><a xlink:href="c_2DataTypes_8h.html" target="_top" xlink:title="llvm&#45;c/DataTypes.h">
<polygon fill="none" stroke="black" points="137,-56.5 137,-75.5 239,-75.5 239,-56.5 137,-56.5"/>
<text text-anchor="middle" x="188" y="-63.5" font-family="Helvetica,sans-Serif" font-size="10.00">llvm&#45;c/DataTypes.h</text>
</a>
</g>
</g>
<!-- Node2&#45;&gt;Node3 -->
<g id="edge3" class="edge">
<title>Node2&#45;&gt;Node3</title>
<path fill="none" stroke="midnightblue" d="M188,-112.08C188,-105.01 188,-94.86 188,-85.99"/>
<polygon fill="midnightblue" stroke="midnightblue" points="191.5,-85.75 188,-75.75 184.5,-85.75 191.5,-85.75"/>
</g>
<!-- Node4 -->
<g id="node5" class="node">
<title>Node4</title>
<polygon fill="none" stroke="#bfbfbf" points="57.5,-0.5 57.5,-19.5 104.5,-19.5 104.5,-0.5 57.5,-0.5"/>
<text text-anchor="middle" x="81" y="-7.5" font-family="Helvetica,sans-Serif" font-size="10.00">math.h</text>
</g>
<!-- Node3&#45;&gt;Node4 -->
<g id="edge4" class="edge">
<title>Node3&#45;&gt;Node4</title>
<path fill="none" stroke="midnightblue" d="M170.81,-56.32C153.65,-47.66 127.05,-34.24 107.25,-24.25"/>
<polygon fill="midnightblue" stroke="midnightblue" points="108.65,-21.04 98.15,-19.65 105.5,-27.28 108.65,-21.04"/>
</g>
<!-- Node5 -->
<g id="node6" class="node">
<title>Node5</title>
<polygon fill="none" stroke="#bfbfbf" points="122.5,-0.5 122.5,-19.5 181.5,-19.5 181.5,-0.5 122.5,-0.5"/>
<text text-anchor="middle" x="152" y="-7.5" font-family="Helvetica,sans-Serif" font-size="10.00">inttypes.h</text>
</g>
<!-- Node3&#45;&gt;Node5 -->
<g id="edge5" class="edge">
<title>Node3&#45;&gt;Node5</title>
<path fill="none" stroke="midnightblue" d="M182.06,-56.08C177.02,-48.53 169.66,-37.49 163.49,-28.23"/>
<polygon fill="midnightblue" stroke="midnightblue" points="166.29,-26.13 157.83,-19.75 160.47,-30.01 166.29,-26.13"/>
</g>
<!-- Node6 -->
<g id="node7" class="node">
<title>Node6</title>
<polygon fill="none" stroke="#bfbfbf" points="199.5,-0.5 199.5,-19.5 248.5,-19.5 248.5,-0.5 199.5,-0.5"/>
<text text-anchor="middle" x="224" y="-7.5" font-family="Helvetica,sans-Serif" font-size="10.00">stdint.h</text>
</g>
<!-- Node3&#45;&gt;Node6 -->
<g id="edge6" class="edge">
<title>Node3&#45;&gt;Node6</title>
<path fill="none" stroke="midnightblue" d="M193.94,-56.08C198.98,-48.53 206.34,-37.49 212.51,-28.23"/>
<polygon fill="midnightblue" stroke="midnightblue" points="215.53,-30.01 218.17,-19.75 209.71,-26.13 215.53,-30.01"/>
</g>
<!-- Node7 -->
<g id="node8" class="node">
<title>Node7</title>
<polygon fill="none" stroke="#bfbfbf" points="267,-0.5 267,-19.5 335,-19.5 335,-0.5 267,-0.5"/>
<text text-anchor="middle" x="301" y="-7.5" font-family="Helvetica,sans-Serif" font-size="10.00">sys/types.h</text>
</g>
<!-- Node3&#45;&gt;Node7 -->
<g id="edge7" class="edge">
<title>Node3&#45;&gt;Node7</title>
<path fill="none" stroke="midnightblue" d="M205.91,-56.44C224.25,-47.68 253.01,-33.94 274.09,-23.86"/>
<polygon fill="midnightblue" stroke="midnightblue" points="275.67,-26.99 283.18,-19.52 272.65,-20.67 275.67,-26.99"/>
</g>
</g>
</svg>
