<?xml version="1.0" encoding="UTF-8" standalone="no"?>
<!DOCTYPE svg PUBLIC "-//W3C//DTD SVG 1.1//EN"
 "http://www.w3.org/Graphics/SVG/1.1/DTD/svg11.dtd">
<!-- Generated by graphviz version 2.43.0 (0)
 -->
<!-- Title: lib/Target/BPF/BTFDebug.cpp Pages: 1 -->
<svg width="3224pt" height="330pt"
 viewBox="0.00 0.00 3223.88 330.00" xmlns="http://www.w3.org/2000/svg" xmlns:xlink="http://www.w3.org/1999/xlink">
<g id="graph0" class="graph" transform="scale(1 1) rotate(0) translate(4 326)">
<title>lib/Target/BPF/BTFDebug.cpp</title>
<!-- Node0 -->
<g id="node1" class="node">
<title>Node0</title>
<polygon fill="#bfbfbf" stroke="black" points="2115.5,-302.5 2115.5,-321.5 2264.5,-321.5 2264.5,-302.5 2115.5,-302.5"/>
<text text-anchor="middle" x="2190" y="-309.5" font-family="Helvetica,sans-Serif" font-size="10.00">lib/Target/BPF/BTFDebug.cpp</text>
</g>
<!-- Node1 -->
<g id="node2" class="node">
<title>Node1</title>
<g id="a_node2"><a xlink:href="BTFDebug_8h.html" target="_top" xlink:title="This file contains support for writing BTF debug info. ">
<polygon fill="none" stroke="black" points="1407,-241 1407,-260 1479,-260 1479,-241 1407,-241"/>
<text text-anchor="middle" x="1443" y="-248" font-family="Helvetica,sans-Serif" font-size="10.00">BTFDebug.h</text>
</a>
</g>
</g>
<!-- Node0&#45;&gt;Node1 -->
<g id="edge1" class="edge">
<title>Node0&#45;&gt;Node1</title>
<path fill="none" stroke="midnightblue" d="M2115.27,-307.95C1993.6,-302.52 1745.24,-289.47 1536,-266 1520.69,-264.28 1504.05,-261.87 1489.13,-259.5"/>
<polygon fill="midnightblue" stroke="midnightblue" points="1489.55,-256.02 1479.12,-257.87 1488.43,-262.93 1489.55,-256.02"/>
</g>
<!-- Node150 -->
<g id="node11" class="node">
<title>Node150</title>
<polygon fill="none" stroke="#bfbfbf" points="1216,-112.5 1216,-131.5 1268,-131.5 1268,-112.5 1216,-112.5"/>
<text text-anchor="middle" x="1242" y="-119.5" font-family="Helvetica,sans-Serif" font-size="10.00">BTF.def</text>
</g>
<!-- Node0&#45;&gt;Node150 -->
<g id="edge79" class="edge">
<title>Node0&#45;&gt;Node150</title>
<path fill="none" stroke="midnightblue" d="M2115.23,-307.52C1997.67,-301.47 1775.18,-287.58 1699,-266 1634.55,-247.74 1619,-237.23 1564,-199 1547.48,-187.51 1549.08,-176.83 1531,-168 1525.33,-165.23 1354.43,-139.66 1278.15,-128.35"/>
<polygon fill="midnightblue" stroke="midnightblue" points="1278.45,-124.85 1268.04,-126.85 1277.42,-131.78 1278.45,-124.85"/>
</g>
<!-- Node151 -->
<g id="node12" class="node">
<title>Node151</title>
<g id="a_node12"><a xlink:href="BPF_8h.html" target="_top" xlink:title="BPF.h">
<polygon fill="none" stroke="black" points="2168,-241 2168,-260 2212,-260 2212,-241 2168,-241"/>
<text text-anchor="middle" x="2190" y="-248" font-family="Helvetica,sans-Serif" font-size="10.00">BPF.h</text>
</a>
</g>
</g>
<!-- Node0&#45;&gt;Node151 -->
<g id="edge12" class="edge">
<title>Node0&#45;&gt;Node151</title>
<path fill="none" stroke="midnightblue" d="M2190,-302.48C2190,-294.08 2190,-280.98 2190,-270.16"/>
<polygon fill="midnightblue" stroke="midnightblue" points="2193.5,-270.01 2190,-260.01 2186.5,-270.01 2193.5,-270.01"/>
</g>
<!-- Node152 -->
<g id="node13" class="node">
<title>Node152</title>
<g id="a_node13"><a xlink:href="BPFMCTargetDesc_8h.html" target="_top" xlink:title="MCTargetDesc/BPFMCTarget\lDesc.h">
<polygon fill="none" stroke="black" points="2009.5,-168.5 2009.5,-198.5 2158.5,-198.5 2158.5,-168.5 2009.5,-168.5"/>
<text text-anchor="start" x="2017.5" y="-186.5" font-family="Helvetica,sans-Serif" font-size="10.00">MCTargetDesc/BPFMCTarget</text>
<text text-anchor="middle" x="2084" y="-175.5" font-family="Helvetica,sans-Serif" font-size="10.00">Desc.h</text>
</a>
</g>
</g>
<!-- Node0&#45;&gt;Node152 -->
<g id="edge23" class="edge">
<title>Node0&#45;&gt;Node152</title>
<path fill="none" stroke="midnightblue" d="M2182.71,-302.31C2166.37,-282.8 2126.34,-235.03 2102.58,-206.67"/>
<polygon fill="midnightblue" stroke="midnightblue" points="2105.16,-204.3 2096.06,-198.89 2099.8,-208.8 2105.16,-204.3"/>
</g>
<!-- Node169 -->
<g id="node21" class="node">
<title>Node169</title>
<g id="a_node21"><a xlink:href="BPFCORE_8h.html" target="_top" xlink:title="BPFCORE.h">
<polygon fill="none" stroke="black" points="2038,-241 2038,-260 2112,-260 2112,-241 2038,-241"/>
<text text-anchor="middle" x="2075" y="-248" font-family="Helvetica,sans-Serif" font-size="10.00">BPFCORE.h</text>
</a>
</g>
</g>
<!-- Node0&#45;&gt;Node169 -->
<g id="edge22" class="edge">
<title>Node0&#45;&gt;Node169</title>
<path fill="none" stroke="midnightblue" d="M2173.52,-302.48C2154.39,-292.58 2122.63,-276.14 2100.35,-264.62"/>
<polygon fill="midnightblue" stroke="midnightblue" points="2101.94,-261.5 2091.45,-260.01 2098.72,-267.71 2101.94,-261.5"/>
</g>
<!-- Node170 -->
<g id="node22" class="node">
<title>Node170</title>
<g id="a_node22"><a xlink:href="BinaryFormat_2ELF_8h.html" target="_top" xlink:title="llvm/BinaryFormat/ELF.h">
<polygon fill="none" stroke="black" points="1313.5,-112.5 1313.5,-131.5 1438.5,-131.5 1438.5,-112.5 1313.5,-112.5"/>
<text text-anchor="middle" x="1376" y="-119.5" font-family="Helvetica,sans-Serif" font-size="10.00">llvm/BinaryFormat/ELF.h</text>
</a>
</g>
</g>
<!-- Node0&#45;&gt;Node170 -->
<g id="edge24" class="edge">
<title>Node0&#45;&gt;Node170</title>
<path fill="none" stroke="midnightblue" d="M2115.2,-308.57C2034.39,-304.56 1902.38,-293.96 1792,-266 1714.88,-246.46 1698.53,-231.71 1626,-199 1597.92,-186.34 1592.95,-178.54 1564,-168 1522.06,-152.72 1472.96,-141.18 1435.45,-133.6"/>
<polygon fill="midnightblue" stroke="midnightblue" points="1435.69,-130.08 1425.2,-131.57 1434.33,-136.95 1435.69,-130.08"/>
</g>
<!-- Node189 -->
<g id="node41" class="node">
<title>Node189</title>
<g id="a_node41"><a xlink:href="AsmPrinter_8h.html" target="_top" xlink:title="llvm/CodeGen/AsmPrinter.h">
<polygon fill="none" stroke="red" points="2814.5,-174 2814.5,-193 2953.5,-193 2953.5,-174 2814.5,-174"/>
<text text-anchor="middle" x="2884" y="-181" font-family="Helvetica,sans-Serif" font-size="10.00">llvm/CodeGen/AsmPrinter.h</text>
</a>
</g>
</g>
<!-- Node0&#45;&gt;Node189 -->
<g id="edge45" class="edge">
<title>Node0&#45;&gt;Node189</title>
<path fill="none" stroke="midnightblue" d="M2264.75,-308.86C2393.89,-304.5 2653.29,-292.66 2740,-266 2788.14,-251.2 2837.88,-218.44 2864.45,-199.27"/>
<polygon fill="midnightblue" stroke="midnightblue" points="2866.86,-201.85 2872.85,-193.11 2862.71,-196.2 2866.86,-201.85"/>
</g>
<!-- Node218 -->
<g id="node45" class="node">
<title>Node218</title>
<g id="a_node45"><a xlink:href="MachineModuleInfo_8h.html" target="_top" xlink:title="llvm/CodeGen/MachineModule\lInfo.h">
<polygon fill="none" stroke="red" points="2581,-235.5 2581,-265.5 2731,-265.5 2731,-235.5 2581,-235.5"/>
<text text-anchor="start" x="2589" y="-253.5" font-family="Helvetica,sans-Serif" font-size="10.00">llvm/CodeGen/MachineModule</text>
<text text-anchor="middle" x="2656" y="-242.5" font-family="Helvetica,sans-Serif" font-size="10.00">Info.h</text>
</a>
</g>
</g>
<!-- Node0&#45;&gt;Node218 -->
<g id="edge58" class="edge">
<title>Node0&#45;&gt;Node218</title>
<path fill="none" stroke="midnightblue" d="M2256.77,-302.48C2339.48,-291.91 2480.52,-273.91 2570.92,-262.36"/>
<polygon fill="midnightblue" stroke="midnightblue" points="2571.39,-265.83 2580.87,-261.09 2570.5,-258.89 2571.39,-265.83"/>
</g>
<!-- Node245 -->
<g id="node46" class="node">
<title>Node245</title>
<g id="a_node46"><a xlink:href="MCContext_8h.html" target="_top" xlink:title="llvm/MC/MCContext.h">
<polygon fill="none" stroke="red" points="2598.5,-174 2598.5,-193 2713.5,-193 2713.5,-174 2598.5,-174"/>
<text text-anchor="middle" x="2656" y="-181" font-family="Helvetica,sans-Serif" font-size="10.00">llvm/MC/MCContext.h</text>
</a>
</g>
</g>
<!-- Node0&#45;&gt;Node245 -->
<g id="edge67" class="edge">
<title>Node0&#45;&gt;Node245</title>
<path fill="none" stroke="midnightblue" d="M2204.26,-302.49C2218.63,-293.76 2241.29,-279.58 2260,-266 2277.64,-253.2 2278.03,-243.73 2298,-235 2324,-223.63 2491.93,-203.12 2588.28,-192.06"/>
<polygon fill="midnightblue" stroke="midnightblue" points="2588.7,-195.54 2598.23,-190.92 2587.9,-188.58 2588.7,-195.54"/>
</g>
<!-- Node256 -->
<g id="node47" class="node">
<title>Node256</title>
<g id="a_node47"><a xlink:href="MCObjectFileInfo_8h.html" target="_top" xlink:title="llvm/MC/MCObjectFileInfo.h">
<polygon fill="none" stroke="red" points="2306.5,-241 2306.5,-260 2447.5,-260 2447.5,-241 2306.5,-241"/>
<text text-anchor="middle" x="2377" y="-248" font-family="Helvetica,sans-Serif" font-size="10.00">llvm/MC/MCObjectFileInfo.h</text>
</a>
</g>
</g>
<!-- Node0&#45;&gt;Node256 -->
<g id="edge68" class="edge">
<title>Node0&#45;&gt;Node256</title>
<path fill="none" stroke="midnightblue" d="M2216.79,-302.48C2249.29,-292.14 2304.21,-274.66 2340.54,-263.1"/>
<polygon fill="midnightblue" stroke="midnightblue" points="2341.79,-266.38 2350.26,-260.01 2339.67,-259.71 2341.79,-266.38"/>
</g>
<!-- Node258 -->
<g id="node48" class="node">
<title>Node258</title>
<g id="a_node48"><a xlink:href="MCSectionELF_8h.html" target="_top" xlink:title="llvm/MC/MCSectionELF.h">
<polygon fill="none" stroke="red" points="1800.5,-241 1800.5,-260 1931.5,-260 1931.5,-241 1800.5,-241"/>
<text text-anchor="middle" x="1866" y="-248" font-family="Helvetica,sans-Serif" font-size="10.00">llvm/MC/MCSectionELF.h</text>
</a>
</g>
</g>
<!-- Node0&#45;&gt;Node258 -->
<g id="edge69" class="edge">
<title>Node0&#45;&gt;Node258</title>
<path fill="none" stroke="midnightblue" d="M2143.58,-302.48C2085.23,-291.76 1985.16,-273.38 1922.45,-261.87"/>
<polygon fill="midnightblue" stroke="midnightblue" points="1922.8,-258.37 1912.34,-260.01 1921.54,-265.26 1922.8,-258.37"/>
</g>
<!-- Node260 -->
<g id="node49" class="node">
<title>Node260</title>
<g id="a_node49"><a xlink:href="MCStreamer_8h.html" target="_top" xlink:title="llvm/MC/MCStreamer.h">
<polygon fill="none" stroke="red" points="2912,-112.5 2912,-131.5 3032,-131.5 3032,-112.5 2912,-112.5"/>
<text text-anchor="middle" x="2972" y="-119.5" font-family="Helvetica,sans-Serif" font-size="10.00">llvm/MC/MCStreamer.h</text>
</a>
</g>
</g>
<!-- Node0&#45;&gt;Node260 -->
<g id="edge71" class="edge">
<title>Node0&#45;&gt;Node260</title>
<path fill="none" stroke="midnightblue" d="M2264.75,-308.05C2402.12,-302.19 2689.55,-287.74 2787,-266 2868.69,-247.78 2911.52,-264.99 2963,-199 2975.62,-182.83 2976.29,-158.52 2974.84,-141.78"/>
<polygon fill="midnightblue" stroke="midnightblue" points="2978.28,-141.09 2973.61,-131.58 2971.33,-141.93 2978.28,-141.09"/>
</g>
<!-- Node272 -->
<g id="node50" class="node">
<title>Node272</title>
<g id="a_node50"><a xlink:href="LineIterator_8h.html" target="_top" xlink:title="llvm/Support/LineIterator.h">
<polygon fill="none" stroke="red" points="2335.5,-174 2335.5,-193 2466.5,-193 2466.5,-174 2335.5,-174"/>
<text text-anchor="middle" x="2401" y="-181" font-family="Helvetica,sans-Serif" font-size="10.00">llvm/Support/LineIterator.h</text>
</a>
</g>
</g>
<!-- Node0&#45;&gt;Node272 -->
<g id="edge76" class="edge">
<title>Node0&#45;&gt;Node272</title>
<path fill="none" stroke="midnightblue" d="M2196.37,-302.25C2208.11,-286.69 2234.65,-254.06 2264,-235 2291.93,-216.86 2327.27,-204.04 2355.06,-195.86"/>
<polygon fill="midnightblue" stroke="midnightblue" points="2356.27,-199.15 2364.93,-193.05 2354.35,-192.42 2356.27,-199.15"/>
</g>
<!-- Node2 -->
<g id="node3" class="node">
<title>Node2</title>
<g id="a_node3"><a xlink:href="StringMap_8h.html" target="_top" xlink:title="llvm/ADT/StringMap.h">
<polygon fill="none" stroke="red" points="2438.5,-112.5 2438.5,-131.5 2551.5,-131.5 2551.5,-112.5 2438.5,-112.5"/>
<text text-anchor="middle" x="2495" y="-119.5" font-family="Helvetica,sans-Serif" font-size="10.00">llvm/ADT/StringMap.h</text>
</a>
</g>
</g>
<!-- Node1&#45;&gt;Node2 -->
<g id="edge2" class="edge">
<title>Node1&#45;&gt;Node2</title>
<path fill="none" stroke="midnightblue" d="M1479.09,-248.03C1660.67,-240.57 2466.15,-207.09 2476,-199 2492.64,-185.34 2495.96,-159.53 2496.08,-141.81"/>
<polygon fill="midnightblue" stroke="midnightblue" points="2499.58,-141.67 2495.82,-131.77 2492.58,-141.86 2499.58,-141.67"/>
</g>
<!-- Node48 -->
<g id="node7" class="node">
<title>Node48</title>
<g id="a_node7"><a xlink:href="DebugHandlerBase_8h.html" target="_top" xlink:title="llvm/CodeGen/DebugHandler\lBase.h">
<polygon fill="none" stroke="red" points="1228,-168.5 1228,-198.5 1372,-198.5 1372,-168.5 1228,-168.5"/>
<text text-anchor="start" x="1236" y="-186.5" font-family="Helvetica,sans-Serif" font-size="10.00">llvm/CodeGen/DebugHandler</text>
<text text-anchor="middle" x="1300" y="-175.5" font-family="Helvetica,sans-Serif" font-size="10.00">Base.h</text>
</a>
</g>
</g>
<!-- Node1&#45;&gt;Node48 -->
<g id="edge7" class="edge">
<title>Node1&#45;&gt;Node48</title>
<path fill="none" stroke="midnightblue" d="M1424.01,-240.87C1402.74,-231.2 1367.65,-215.25 1340.21,-202.78"/>
<polygon fill="midnightblue" stroke="midnightblue" points="1341.41,-199.48 1330.86,-198.53 1338.52,-205.85 1341.41,-199.48"/>
</g>
<!-- Node148 -->
<g id="node8" class="node">
<title>Node148</title>
<polygon fill="none" stroke="#bfbfbf" points="1390,-174 1390,-193 1420,-193 1420,-174 1390,-174"/>
<text text-anchor="middle" x="1405" y="-181" font-family="Helvetica,sans-Serif" font-size="10.00">set</text>
</g>
<!-- Node1&#45;&gt;Node148 -->
<g id="edge8" class="edge">
<title>Node1&#45;&gt;Node148</title>
<path fill="none" stroke="midnightblue" d="M1437.88,-240.73C1432.06,-230.79 1422.44,-214.34 1415.11,-201.79"/>
<polygon fill="midnightblue" stroke="midnightblue" points="1418.11,-199.99 1410.04,-193.13 1412.07,-203.53 1418.11,-199.99"/>
</g>
<!-- Node100 -->
<g id="node9" class="node">
<title>Node100</title>
<polygon fill="none" stroke="#bfbfbf" points="1438.5,-174 1438.5,-193 1521.5,-193 1521.5,-174 1438.5,-174"/>
<text text-anchor="middle" x="1480" y="-181" font-family="Helvetica,sans-Serif" font-size="10.00">unordered_map</text>
</g>
<!-- Node1&#45;&gt;Node100 -->
<g id="edge9" class="edge">
<title>Node1&#45;&gt;Node100</title>
<path fill="none" stroke="midnightblue" d="M1447.99,-240.73C1453.59,-230.89 1462.83,-214.66 1469.95,-202.16"/>
<polygon fill="midnightblue" stroke="midnightblue" points="1473.18,-203.55 1475.09,-193.13 1467.1,-200.09 1473.18,-203.55"/>
</g>
<!-- Node149 -->
<g id="node10" class="node">
<title>Node149</title>
<g id="a_node10"><a xlink:href="BTF_8h.html" target="_top" xlink:title="This file contains the layout of .BTF and .BTF.ext ELF sections. ">
<polygon fill="none" stroke="black" points="1166,-174 1166,-193 1210,-193 1210,-174 1166,-174"/>
<text text-anchor="middle" x="1188" y="-181" font-family="Helvetica,sans-Serif" font-size="10.00">BTF.h</text>
</a>
</g>
</g>
<!-- Node1&#45;&gt;Node149 -->
<g id="edge10" class="edge">
<title>Node1&#45;&gt;Node149</title>
<path fill="none" stroke="midnightblue" d="M1406.65,-243.79C1361.78,-236.19 1283.5,-221.07 1219,-199 1217.34,-198.43 1215.65,-197.8 1213.95,-197.13"/>
<polygon fill="midnightblue" stroke="midnightblue" points="1215.03,-193.78 1204.46,-193 1212.23,-200.2 1215.03,-193.78"/>
</g>
<!-- Node3 -->
<g id="node4" class="node">
<title>Node3</title>
<g id="a_node4"><a xlink:href="StringRef_8h.html" target="_top" xlink:title="llvm/ADT/StringRef.h">
<polygon fill="none" stroke="red" points="2518,-56.5 2518,-75.5 2628,-75.5 2628,-56.5 2518,-56.5"/>
<text text-anchor="middle" x="2573" y="-63.5" font-family="Helvetica,sans-Serif" font-size="10.00">llvm/ADT/StringRef.h</text>
</a>
</g>
</g>
<!-- Node2&#45;&gt;Node3 -->
<g id="edge3" class="edge">
<title>Node2&#45;&gt;Node3</title>
<path fill="none" stroke="midnightblue" d="M2507.53,-112.32C2519.59,-103.98 2538.03,-91.21 2552.27,-81.35"/>
<polygon fill="midnightblue" stroke="midnightblue" points="2554.27,-84.22 2560.5,-75.65 2550.28,-78.47 2554.27,-84.22"/>
</g>
<!-- Node30 -->
<g id="node5" class="node">
<title>Node30</title>
<polygon fill="none" stroke="#bfbfbf" points="2509,-0.5 2509,-19.5 2555,-19.5 2555,-0.5 2509,-0.5"/>
<text text-anchor="middle" x="2532" y="-7.5" font-family="Helvetica,sans-Serif" font-size="10.00">cstring</text>
</g>
<!-- Node2&#45;&gt;Node30 -->
<g id="edge6" class="edge">
<title>Node2&#45;&gt;Node30</title>
<path fill="none" stroke="midnightblue" d="M2496.12,-112.39C2497.94,-99.76 2502.03,-75.57 2509,-56 2512.35,-46.6 2517.26,-36.67 2521.69,-28.53"/>
<polygon fill="midnightblue" stroke="midnightblue" points="2524.83,-30.09 2526.71,-19.66 2518.74,-26.64 2524.83,-30.09"/>
</g>
<!-- Node24 -->
<g id="node6" class="node">
<title>Node24</title>
<polygon fill="none" stroke="#bfbfbf" points="2716,-56.5 2716,-75.5 2762,-75.5 2762,-56.5 2716,-56.5"/>
<text text-anchor="middle" x="2739" y="-63.5" font-family="Helvetica,sans-Serif" font-size="10.00">cstdint</text>
</g>
<!-- Node2&#45;&gt;Node24 -->
<g id="edge5" class="edge">
<title>Node2&#45;&gt;Node24</title>
<path fill="none" stroke="midnightblue" d="M2533.66,-112.44C2581.29,-101.9 2661.36,-84.18 2706.15,-74.27"/>
<polygon fill="midnightblue" stroke="midnightblue" points="2706.93,-77.68 2715.94,-72.1 2705.42,-70.85 2706.93,-77.68"/>
</g>
<!-- Node3&#45;&gt;Node30 -->
<g id="edge4" class="edge">
<title>Node3&#45;&gt;Node30</title>
<path fill="none" stroke="midnightblue" d="M2566.23,-56.08C2560.44,-48.46 2551.94,-37.26 2544.86,-27.94"/>
<polygon fill="midnightblue" stroke="midnightblue" points="2547.48,-25.6 2538.64,-19.75 2541.9,-29.83 2547.48,-25.6"/>
</g>
<!-- Node149&#45;&gt;Node150 -->
<g id="edge11" class="edge">
<title>Node149&#45;&gt;Node150</title>
<path fill="none" stroke="midnightblue" d="M1195.74,-173.98C1204,-164.87 1217.28,-150.24 1227.49,-138.98"/>
<polygon fill="midnightblue" stroke="midnightblue" points="1230.15,-141.27 1234.28,-131.51 1224.97,-136.56 1230.15,-141.27"/>
</g>
<!-- Node151&#45;&gt;Node152 -->
<g id="edge13" class="edge">
<title>Node151&#45;&gt;Node152</title>
<path fill="none" stroke="midnightblue" d="M2175.7,-240.73C2160.41,-231.36 2135.68,-216.19 2115.74,-203.97"/>
<polygon fill="midnightblue" stroke="midnightblue" points="2117.33,-200.83 2106.98,-198.59 2113.67,-206.8 2117.33,-200.83"/>
</g>
<!-- Node157 -->
<g id="node20" class="node">
<title>Node157</title>
<g id="a_node20"><a xlink:href="Target_2TargetMachine_8h.html" target="_top" xlink:title="llvm/Target/TargetMachine.h">
<polygon fill="none" stroke="red" points="2176.5,-174 2176.5,-193 2317.5,-193 2317.5,-174 2176.5,-174"/>
<text text-anchor="middle" x="2247" y="-181" font-family="Helvetica,sans-Serif" font-size="10.00">llvm/Target/TargetMachine.h</text>
</a>
</g>
</g>
<!-- Node151&#45;&gt;Node157 -->
<g id="edge20" class="edge">
<title>Node151&#45;&gt;Node157</title>
<path fill="none" stroke="midnightblue" d="M2197.69,-240.73C2206.66,-230.5 2221.69,-213.36 2232.8,-200.69"/>
<polygon fill="midnightblue" stroke="midnightblue" points="2235.47,-202.95 2239.43,-193.13 2230.21,-198.34 2235.47,-202.95"/>
</g>
<!-- Node153 -->
<g id="node14" class="node">
<title>Node153</title>
<polygon fill="none" stroke="#bfbfbf" points="1786,-112.5 1786,-131.5 1890,-131.5 1890,-112.5 1786,-112.5"/>
<text text-anchor="middle" x="1838" y="-119.5" font-family="Helvetica,sans-Serif" font-size="10.00">llvm/Config/config.h</text>
</g>
<!-- Node152&#45;&gt;Node153 -->
<g id="edge14" class="edge">
<title>Node152&#45;&gt;Node153</title>
<path fill="none" stroke="midnightblue" d="M2026.01,-168.47C1982.28,-157.9 1923.15,-143.59 1882.96,-133.87"/>
<polygon fill="midnightblue" stroke="midnightblue" points="1883.71,-130.46 1873.17,-131.51 1882.07,-137.26 1883.71,-130.46"/>
</g>
<!-- Node36 -->
<g id="node15" class="node">
<title>Node36</title>
<g id="a_node15"><a xlink:href="Support_2DataTypes_8h.html" target="_top" xlink:title="llvm/Support/DataTypes.h">
<polygon fill="none" stroke="red" points="2212.5,-112.5 2212.5,-131.5 2343.5,-131.5 2343.5,-112.5 2212.5,-112.5"/>
<text text-anchor="middle" x="2278" y="-119.5" font-family="Helvetica,sans-Serif" font-size="10.00">llvm/Support/DataTypes.h</text>
</a>
</g>
</g>
<!-- Node152&#45;&gt;Node36 -->
<g id="edge15" class="edge">
<title>Node152&#45;&gt;Node36</title>
<path fill="none" stroke="midnightblue" d="M2129.98,-168.4C2163.64,-158.07 2208.78,-144.23 2240.32,-134.56"/>
<polygon fill="midnightblue" stroke="midnightblue" points="2241.52,-137.85 2250.05,-131.57 2239.47,-131.16 2241.52,-137.85"/>
</g>
<!-- Node14 -->
<g id="node16" class="node">
<title>Node14</title>
<polygon fill="none" stroke="#bfbfbf" points="2901,-0.5 2901,-19.5 2953,-19.5 2953,-0.5 2901,-0.5"/>
<text text-anchor="middle" x="2927" y="-7.5" font-family="Helvetica,sans-Serif" font-size="10.00">memory</text>
</g>
<!-- Node152&#45;&gt;Node14 -->
<g id="edge16" class="edge">
<title>Node152&#45;&gt;Node14</title>
<path fill="none" stroke="midnightblue" d="M2105.98,-168.28C2134.79,-149.87 2184.02,-119.28 2204,-112 2294.21,-79.14 2322.73,-94.2 2417,-76 2458.08,-68.07 2467.69,-62.69 2509,-56 2649.43,-33.24 2818.34,-19.05 2890.95,-13.58"/>
<polygon fill="midnightblue" stroke="midnightblue" points="2891.23,-17.07 2900.95,-12.83 2890.71,-10.08 2891.23,-17.07"/>
</g>
<!-- Node154 -->
<g id="node17" class="node">
<title>Node154</title>
<polygon fill="none" stroke="#bfbfbf" points="1908.5,-112.5 1908.5,-131.5 2031.5,-131.5 2031.5,-112.5 1908.5,-112.5"/>
<text text-anchor="middle" x="1970" y="-119.5" font-family="Helvetica,sans-Serif" font-size="10.00">BPFGenRegisterInfo.inc</text>
</g>
<!-- Node152&#45;&gt;Node154 -->
<g id="edge17" class="edge">
<title>Node152&#45;&gt;Node154</title>
<path fill="none" stroke="midnightblue" d="M2056.98,-168.4C2038.37,-158.68 2013.79,-145.86 1995.51,-136.31"/>
<polygon fill="midnightblue" stroke="midnightblue" points="1997.07,-133.18 1986.59,-131.66 1993.83,-139.39 1997.07,-133.18"/>
</g>
<!-- Node155 -->
<g id="node18" class="node">
<title>Node155</title>
<polygon fill="none" stroke="#bfbfbf" points="2050,-112.5 2050,-131.5 2156,-131.5 2156,-112.5 2050,-112.5"/>
<text text-anchor="middle" x="2103" y="-119.5" font-family="Helvetica,sans-Serif" font-size="10.00">BPFGenInstrInfo.inc</text>
</g>
<!-- Node152&#45;&gt;Node155 -->
<g id="edge18" class="edge">
<title>Node152&#45;&gt;Node155</title>
<path fill="none" stroke="midnightblue" d="M2088.5,-168.4C2091.09,-160.29 2094.38,-150.01 2097.16,-141.28"/>
<polygon fill="midnightblue" stroke="midnightblue" points="2100.53,-142.25 2100.24,-131.66 2093.86,-140.12 2100.53,-142.25"/>
</g>
<!-- Node156 -->
<g id="node19" class="node">
<title>Node156</title>
<polygon fill="none" stroke="#bfbfbf" points="1640,-112.5 1640,-131.5 1768,-131.5 1768,-112.5 1640,-112.5"/>
<text text-anchor="middle" x="1704" y="-119.5" font-family="Helvetica,sans-Serif" font-size="10.00">BPFGenSubtargetInfo.inc</text>
</g>
<!-- Node152&#45;&gt;Node156 -->
<g id="edge19" class="edge">
<title>Node152&#45;&gt;Node156</title>
<path fill="none" stroke="midnightblue" d="M2009.38,-170.82C1939.17,-159.82 1835.13,-143.53 1768.45,-133.09"/>
<polygon fill="midnightblue" stroke="midnightblue" points="1768.9,-129.62 1758.48,-131.53 1767.82,-136.54 1768.9,-129.62"/>
</g>
<!-- Node157&#45;&gt;Node3 -->
<g id="edge21" class="edge">
<title>Node157&#45;&gt;Node3</title>
<path fill="none" stroke="midnightblue" d="M2264.88,-173.86C2294.69,-159.68 2356.63,-131.14 2411,-112 2449.55,-98.43 2494.39,-86.24 2527.11,-77.98"/>
<polygon fill="midnightblue" stroke="midnightblue" points="2528,-81.37 2536.86,-75.55 2526.31,-74.58 2528,-81.37"/>
</g>
<!-- Node170&#45;&gt;Node30 -->
<g id="edge26" class="edge">
<title>Node170&#45;&gt;Node30</title>
<path fill="none" stroke="midnightblue" d="M1438.5,-118.37C1656.48,-109.16 2370.49,-78.82 2382,-76 2402.47,-70.99 2405.73,-64.53 2425,-56 2450.73,-44.61 2480.22,-32.26 2501.72,-23.38"/>
<polygon fill="midnightblue" stroke="midnightblue" points="2503.07,-26.61 2510.99,-19.57 2500.41,-20.14 2503.07,-26.61"/>
</g>
<!-- Node170&#45;&gt;Node24 -->
<g id="edge25" class="edge">
<title>Node170&#45;&gt;Node24</title>
<path fill="none" stroke="midnightblue" d="M1438.56,-118.79C1691,-109.87 2621.88,-76.94 2637,-76 2660.01,-74.58 2685.89,-72.28 2705.82,-70.37"/>
<polygon fill="midnightblue" stroke="midnightblue" points="2706.32,-73.84 2715.94,-69.38 2705.64,-66.87 2706.32,-73.84"/>
</g>
<!-- Node171 -->
<g id="node23" class="node">
<title>Node171</title>
<polygon fill="none" stroke="#bfbfbf" points="252,-56.5 252,-75.5 368,-75.5 368,-56.5 252,-56.5"/>
<text text-anchor="middle" x="310" y="-63.5" font-family="Helvetica,sans-Serif" font-size="10.00">ELFRelocs/x86_64.def</text>
</g>
<!-- Node170&#45;&gt;Node171 -->
<g id="edge27" class="edge">
<title>Node170&#45;&gt;Node171</title>
<path fill="none" stroke="midnightblue" d="M1313.46,-114.83C1301.37,-113.77 1288.8,-112.77 1277,-112 880.85,-86.09 777.52,-110.28 378.16,-76.01"/>
<polygon fill="midnightblue" stroke="midnightblue" points="378.33,-72.51 368.07,-75.14 377.73,-79.49 378.33,-72.51"/>
</g>
<!-- Node172 -->
<g id="node24" class="node">
<title>Node172</title>
<polygon fill="none" stroke="#bfbfbf" points="386.5,-56.5 386.5,-75.5 489.5,-75.5 489.5,-56.5 386.5,-56.5"/>
<text text-anchor="middle" x="438" y="-63.5" font-family="Helvetica,sans-Serif" font-size="10.00">ELFRelocs/i386.def</text>
</g>
<!-- Node170&#45;&gt;Node172 -->
<g id="edge28" class="edge">
<title>Node170&#45;&gt;Node172</title>
<path fill="none" stroke="midnightblue" d="M1313.45,-114.89C1301.37,-113.83 1288.79,-112.81 1277,-112 934.51,-88.53 844.65,-109.35 499.69,-76.07"/>
<polygon fill="midnightblue" stroke="midnightblue" points="499.96,-72.58 489.67,-75.09 499.28,-79.55 499.96,-72.58"/>
</g>
<!-- Node173 -->
<g id="node25" class="node">
<title>Node173</title>
<polygon fill="none" stroke="#bfbfbf" points="507.5,-56.5 507.5,-75.5 634.5,-75.5 634.5,-56.5 507.5,-56.5"/>
<text text-anchor="middle" x="571" y="-63.5" font-family="Helvetica,sans-Serif" font-size="10.00">ELFRelocs/PowerPC.def</text>
</g>
<!-- Node170&#45;&gt;Node173 -->
<g id="edge29" class="edge">
<title>Node170&#45;&gt;Node173</title>
<path fill="none" stroke="midnightblue" d="M1313.45,-114.99C1301.36,-113.92 1288.79,-112.87 1277,-112 998.83,-91.46 925.78,-101.28 644.67,-76.09"/>
<polygon fill="midnightblue" stroke="midnightblue" points="644.85,-72.6 634.58,-75.18 644.22,-79.57 644.85,-72.6"/>
</g>
<!-- Node174 -->
<g id="node26" class="node">
<title>Node174</title>
<polygon fill="none" stroke="#bfbfbf" points="652.5,-56.5 652.5,-75.5 789.5,-75.5 789.5,-56.5 652.5,-56.5"/>
<text text-anchor="middle" x="721" y="-63.5" font-family="Helvetica,sans-Serif" font-size="10.00">ELFRelocs/PowerPC64.def</text>
</g>
<!-- Node170&#45;&gt;Node174 -->
<g id="edge30" class="edge">
<title>Node170&#45;&gt;Node174</title>
<path fill="none" stroke="midnightblue" d="M1313.43,-115.16C1301.35,-114.08 1288.78,-112.98 1277,-112 1068,-94.63 1012.8,-96.16 800.13,-76.07"/>
<polygon fill="midnightblue" stroke="midnightblue" points="800.17,-72.56 789.89,-75.1 799.51,-79.53 800.17,-72.56"/>
</g>
<!-- Node175 -->
<g id="node27" class="node">
<title>Node175</title>
<polygon fill="none" stroke="#bfbfbf" points="808,-56.5 808,-75.5 930,-75.5 930,-56.5 808,-56.5"/>
<text text-anchor="middle" x="869" y="-63.5" font-family="Helvetica,sans-Serif" font-size="10.00">ELFRelocs/AArch64.def</text>
</g>
<!-- Node170&#45;&gt;Node175 -->
<g id="edge31" class="edge">
<title>Node170&#45;&gt;Node175</title>
<path fill="none" stroke="midnightblue" d="M1313.35,-115.05C1230.44,-107.06 1079.44,-92.13 940.08,-76.1"/>
<polygon fill="midnightblue" stroke="midnightblue" points="940.41,-72.61 930.07,-74.94 939.6,-79.57 940.41,-72.61"/>
</g>
<!-- Node176 -->
<g id="node28" class="node">
<title>Node176</title>
<polygon fill="none" stroke="#bfbfbf" points="948.5,-56.5 948.5,-75.5 1055.5,-75.5 1055.5,-56.5 948.5,-56.5"/>
<text text-anchor="middle" x="1002" y="-63.5" font-family="Helvetica,sans-Serif" font-size="10.00">ELFRelocs/ARM.def</text>
</g>
<!-- Node170&#45;&gt;Node176 -->
<g id="edge32" class="edge">
<title>Node170&#45;&gt;Node176</title>
<path fill="none" stroke="midnightblue" d="M1316.77,-112.47C1256.21,-103.75 1159.14,-89.76 1065.94,-76.28"/>
<polygon fill="midnightblue" stroke="midnightblue" points="1066.17,-72.78 1055.77,-74.81 1065.16,-79.7 1066.17,-72.78"/>
</g>
<!-- Node177 -->
<g id="node29" class="node">
<title>Node177</title>
<polygon fill="none" stroke="#bfbfbf" points="1073.5,-56.5 1073.5,-75.5 1180.5,-75.5 1180.5,-56.5 1073.5,-56.5"/>
<text text-anchor="middle" x="1127" y="-63.5" font-family="Helvetica,sans-Serif" font-size="10.00">ELFRelocs/ARC.def</text>
</g>
<!-- Node170&#45;&gt;Node177 -->
<g id="edge33" class="edge">
<title>Node170&#45;&gt;Node177</title>
<path fill="none" stroke="midnightblue" d="M1336.55,-112.44C1293.11,-103.02 1223.21,-87.87 1176.22,-77.68"/>
<polygon fill="midnightblue" stroke="midnightblue" points="1176.78,-74.22 1166.27,-75.52 1175.3,-81.06 1176.78,-74.22"/>
</g>
<!-- Node178 -->
<g id="node30" class="node">
<title>Node178</title>
<polygon fill="none" stroke="#bfbfbf" points="1199,-56.5 1199,-75.5 1305,-75.5 1305,-56.5 1199,-56.5"/>
<text text-anchor="middle" x="1252" y="-63.5" font-family="Helvetica,sans-Serif" font-size="10.00">ELFRelocs/AVR.def</text>
</g>
<!-- Node170&#45;&gt;Node178 -->
<g id="edge34" class="edge">
<title>Node170&#45;&gt;Node178</title>
<path fill="none" stroke="midnightblue" d="M1356.35,-112.44C1336.04,-103.6 1304.1,-89.69 1280.9,-79.59"/>
<polygon fill="midnightblue" stroke="midnightblue" points="1282.12,-76.3 1271.56,-75.52 1279.33,-82.72 1282.12,-76.3"/>
</g>
<!-- Node179 -->
<g id="node31" class="node">
<title>Node179</title>
<polygon fill="none" stroke="#bfbfbf" points="1323,-56.5 1323,-75.5 1429,-75.5 1429,-56.5 1323,-56.5"/>
<text text-anchor="middle" x="1376" y="-63.5" font-family="Helvetica,sans-Serif" font-size="10.00">ELFRelocs/Mips.def</text>
</g>
<!-- Node170&#45;&gt;Node179 -->
<g id="edge35" class="edge">
<title>Node170&#45;&gt;Node179</title>
<path fill="none" stroke="midnightblue" d="M1376,-112.08C1376,-105.01 1376,-94.86 1376,-85.99"/>
<polygon fill="midnightblue" stroke="midnightblue" points="1379.5,-85.75 1376,-75.75 1372.5,-85.75 1379.5,-85.75"/>
</g>
<!-- Node180 -->
<g id="node32" class="node">
<title>Node180</title>
<polygon fill="none" stroke="#bfbfbf" points="1447,-56.5 1447,-75.5 1571,-75.5 1571,-56.5 1447,-56.5"/>
<text text-anchor="middle" x="1509" y="-63.5" font-family="Helvetica,sans-Serif" font-size="10.00">ELFRelocs/Hexagon.def</text>
</g>
<!-- Node170&#45;&gt;Node180 -->
<g id="edge36" class="edge">
<title>Node170&#45;&gt;Node180</title>
<path fill="none" stroke="midnightblue" d="M1397.07,-112.44C1419.06,-103.52 1453.73,-89.44 1478.66,-79.32"/>
<polygon fill="midnightblue" stroke="midnightblue" points="1480.08,-82.52 1488.02,-75.52 1477.44,-76.04 1480.08,-82.52"/>
</g>
<!-- Node181 -->
<g id="node33" class="node">
<title>Node181</title>
<polygon fill="none" stroke="#bfbfbf" points="1589,-56.5 1589,-75.5 1697,-75.5 1697,-56.5 1589,-56.5"/>
<text text-anchor="middle" x="1643" y="-63.5" font-family="Helvetica,sans-Serif" font-size="10.00">ELFRelocs/Lanai.def</text>
</g>
<!-- Node170&#45;&gt;Node181 -->
<g id="edge37" class="edge">
<title>Node170&#45;&gt;Node181</title>
<path fill="none" stroke="midnightblue" d="M1418.31,-112.44C1465.08,-102.98 1540.46,-87.74 1590.85,-77.55"/>
<polygon fill="midnightblue" stroke="midnightblue" points="1591.78,-80.93 1600.89,-75.52 1590.4,-74.07 1591.78,-80.93"/>
</g>
<!-- Node182 -->
<g id="node34" class="node">
<title>Node182</title>
<polygon fill="none" stroke="#bfbfbf" points="1715,-56.5 1715,-75.5 1831,-75.5 1831,-56.5 1715,-56.5"/>
<text text-anchor="middle" x="1773" y="-63.5" font-family="Helvetica,sans-Serif" font-size="10.00">ELFRelocs/RISCV.def</text>
</g>
<!-- Node170&#45;&gt;Node182 -->
<g id="edge38" class="edge">
<title>Node170&#45;&gt;Node182</title>
<path fill="none" stroke="midnightblue" d="M1438.91,-112.44C1511.37,-102.59 1630,-86.45 1704.67,-76.29"/>
<polygon fill="midnightblue" stroke="midnightblue" points="1705.47,-79.72 1714.91,-74.9 1704.53,-72.78 1705.47,-79.72"/>
</g>
<!-- Node183 -->
<g id="node35" class="node">
<title>Node183</title>
<polygon fill="none" stroke="#bfbfbf" points="1849.5,-56.5 1849.5,-75.5 1974.5,-75.5 1974.5,-56.5 1849.5,-56.5"/>
<text text-anchor="middle" x="1912" y="-63.5" font-family="Helvetica,sans-Serif" font-size="10.00">ELFRelocs/SystemZ.def</text>
</g>
<!-- Node170&#45;&gt;Node183 -->
<g id="edge39" class="edge">
<title>Node170&#45;&gt;Node183</title>
<path fill="none" stroke="midnightblue" d="M1438.72,-115.47C1525.95,-107.66 1689.08,-92.61 1838.88,-76.1"/>
<polygon fill="midnightblue" stroke="midnightblue" points="1839.63,-79.53 1849.18,-74.96 1838.86,-72.58 1839.63,-79.53"/>
</g>
<!-- Node184 -->
<g id="node36" class="node">
<title>Node184</title>
<polygon fill="none" stroke="#bfbfbf" points="1993,-56.5 1993,-75.5 2103,-75.5 2103,-56.5 1993,-56.5"/>
<text text-anchor="middle" x="2048" y="-63.5" font-family="Helvetica,sans-Serif" font-size="10.00">ELFRelocs/Sparc.def</text>
</g>
<!-- Node170&#45;&gt;Node184 -->
<g id="edge40" class="edge">
<title>Node170&#45;&gt;Node184</title>
<path fill="none" stroke="midnightblue" d="M1438.7,-117.72C1547.34,-111.75 1777.78,-97.76 1982.82,-76.06"/>
<polygon fill="midnightblue" stroke="midnightblue" points="1983.3,-79.53 1992.87,-74.99 1982.56,-72.57 1983.3,-79.53"/>
</g>
<!-- Node185 -->
<g id="node37" class="node">
<title>Node185</title>
<polygon fill="none" stroke="#bfbfbf" points="2121.5,-56.5 2121.5,-75.5 2250.5,-75.5 2250.5,-56.5 2121.5,-56.5"/>
<text text-anchor="middle" x="2186" y="-63.5" font-family="Helvetica,sans-Serif" font-size="10.00">ELFRelocs/AMDGPU.def</text>
</g>
<!-- Node170&#45;&gt;Node185 -->
<g id="edge41" class="edge">
<title>Node170&#45;&gt;Node185</title>
<path fill="none" stroke="midnightblue" d="M1438.62,-118.44C1564.05,-113.03 1855.27,-99.1 2111.21,-76.01"/>
<polygon fill="midnightblue" stroke="midnightblue" points="2111.81,-79.47 2121.45,-75.08 2111.17,-72.5 2111.81,-79.47"/>
</g>
<!-- Node186 -->
<g id="node38" class="node">
<title>Node186</title>
<polygon fill="none" stroke="#bfbfbf" points="2269,-56.5 2269,-75.5 2373,-75.5 2373,-56.5 2269,-56.5"/>
<text text-anchor="middle" x="2321" y="-63.5" font-family="Helvetica,sans-Serif" font-size="10.00">ELFRelocs/BPF.def</text>
</g>
<!-- Node170&#45;&gt;Node186 -->
<g id="edge42" class="edge">
<title>Node170&#45;&gt;Node186</title>
<path fill="none" stroke="midnightblue" d="M1438.52,-118.16C1620.49,-109.86 2143.77,-85.65 2258.7,-75.96"/>
<polygon fill="midnightblue" stroke="midnightblue" points="2259.16,-79.43 2268.8,-75.04 2258.52,-72.46 2259.16,-79.43"/>
</g>
<!-- Node187 -->
<g id="node39" class="node">
<title>Node187</title>
<polygon fill="none" stroke="#bfbfbf" points="0,-56.5 0,-75.5 122,-75.5 122,-56.5 0,-56.5"/>
<text text-anchor="middle" x="61" y="-63.5" font-family="Helvetica,sans-Serif" font-size="10.00">ELFRelocs/MSP430.def</text>
</g>
<!-- Node170&#45;&gt;Node187 -->
<g id="edge43" class="edge">
<title>Node170&#45;&gt;Node187</title>
<path fill="none" stroke="midnightblue" d="M1313.46,-114.75C1301.37,-113.7 1288.8,-112.72 1277,-112 771.72,-81.12 640.69,-116.07 132.22,-76.01"/>
<polygon fill="midnightblue" stroke="midnightblue" points="132.29,-72.5 122.05,-75.2 131.74,-79.48 132.29,-72.5"/>
</g>
<!-- Node188 -->
<g id="node40" class="node">
<title>Node188</title>
<polygon fill="none" stroke="#bfbfbf" points="140,-56.5 140,-75.5 234,-75.5 234,-56.5 140,-56.5"/>
<text text-anchor="middle" x="187" y="-63.5" font-family="Helvetica,sans-Serif" font-size="10.00">DynamicTags.def</text>
</g>
<!-- Node170&#45;&gt;Node188 -->
<g id="edge44" class="edge">
<title>Node170&#45;&gt;Node188</title>
<path fill="none" stroke="midnightblue" d="M1313.46,-114.78C1301.37,-113.73 1288.8,-112.74 1277,-112 821.43,-83.38 702.41,-120.02 244.49,-76.01"/>
<polygon fill="midnightblue" stroke="midnightblue" points="244.59,-72.51 234.3,-75.03 243.92,-79.47 244.59,-72.51"/>
</g>
<!-- Node189&#45;&gt;Node3 -->
<g id="edge51" class="edge">
<title>Node189&#45;&gt;Node3</title>
<path fill="none" stroke="midnightblue" d="M2849.98,-173.93C2815.32,-164.85 2760.24,-149.42 2714,-132 2672.71,-116.44 2626.57,-94.2 2598.67,-80.19"/>
<polygon fill="midnightblue" stroke="midnightblue" points="2600.1,-76.99 2589.6,-75.6 2596.94,-83.24 2600.1,-76.99"/>
</g>
<!-- Node189&#45;&gt;Node24 -->
<g id="edge56" class="edge">
<title>Node189&#45;&gt;Node24</title>
<path fill="none" stroke="midnightblue" d="M2878.64,-173.71C2869.52,-159.31 2849.73,-130.45 2827,-112 2810.25,-98.41 2788.73,-87.31 2771.16,-79.54"/>
<polygon fill="midnightblue" stroke="midnightblue" points="2772.44,-76.28 2761.86,-75.57 2769.69,-82.71 2772.44,-76.28"/>
</g>
<!-- Node189&#45;&gt;Node14 -->
<g id="edge57" class="edge">
<title>Node189&#45;&gt;Node14</title>
<path fill="none" stroke="midnightblue" d="M2953.53,-181.12C3034.55,-177.88 3161.16,-167.16 3191,-132 3257.64,-53.5 3049.93,-23.24 2963.2,-14.21"/>
<polygon fill="midnightblue" stroke="midnightblue" points="2963.3,-10.71 2953,-13.19 2962.61,-17.67 2963.3,-10.71"/>
</g>
<!-- Node51 -->
<g id="node42" class="node">
<title>Node51</title>
<g id="a_node42"><a xlink:href="MapVector_8h.html" target="_top" xlink:title="llvm/ADT/MapVector.h">
<polygon fill="none" stroke="red" points="3050,-112.5 3050,-131.5 3166,-131.5 3166,-112.5 3050,-112.5"/>
<text text-anchor="middle" x="3108" y="-119.5" font-family="Helvetica,sans-Serif" font-size="10.00">llvm/ADT/MapVector.h</text>
</a>
</g>
</g>
<!-- Node189&#45;&gt;Node51 -->
<g id="edge46" class="edge">
<title>Node189&#45;&gt;Node51</title>
<path fill="none" stroke="midnightblue" d="M2916.09,-173.98C2955.6,-163.48 3022.78,-145.64 3066.26,-134.09"/>
<polygon fill="midnightblue" stroke="midnightblue" points="3067.2,-137.46 3075.97,-131.51 3065.4,-130.69 3067.2,-137.46"/>
</g>
<!-- Node32 -->
<g id="node43" class="node">
<title>Node32</title>
<g id="a_node43"><a xlink:href="SmallVector_8h.html" target="_top" xlink:title="llvm/ADT/SmallVector.h">
<polygon fill="none" stroke="red" points="2822,-56.5 2822,-75.5 2944,-75.5 2944,-56.5 2822,-56.5"/>
<text text-anchor="middle" x="2883" y="-63.5" font-family="Helvetica,sans-Serif" font-size="10.00">llvm/ADT/SmallVector.h</text>
</a>
</g>
</g>
<!-- Node189&#45;&gt;Node32 -->
<g id="edge50" class="edge">
<title>Node189&#45;&gt;Node32</title>
<path fill="none" stroke="midnightblue" d="M2953.69,-180.38C3030.61,-176.41 3147.27,-164.96 3175,-132 3180.72,-125.2 3180.79,-118.75 3175,-112 3147.12,-79.49 3031.35,-70.25 2954.23,-67.75"/>
<polygon fill="midnightblue" stroke="midnightblue" points="2954.18,-64.24 2944.08,-67.45 2953.98,-71.24 2954.18,-64.24"/>
</g>
<!-- Node72 -->
<g id="node44" class="node">
<title>Node72</title>
<g id="a_node44"><a xlink:href="Twine_8h.html" target="_top" xlink:title="llvm/ADT/Twine.h">
<polygon fill="none" stroke="red" points="2722.5,-112.5 2722.5,-131.5 2817.5,-131.5 2817.5,-112.5 2722.5,-112.5"/>
<text text-anchor="middle" x="2770" y="-119.5" font-family="Helvetica,sans-Serif" font-size="10.00">llvm/ADT/Twine.h</text>
</a>
</g>
</g>
<!-- Node189&#45;&gt;Node72 -->
<g id="edge52" class="edge">
<title>Node189&#45;&gt;Node72</title>
<path fill="none" stroke="midnightblue" d="M2867.67,-173.98C2848.79,-164.12 2817.49,-147.79 2795.42,-136.27"/>
<polygon fill="midnightblue" stroke="midnightblue" points="2796.79,-133.03 2786.3,-131.51 2793.55,-139.24 2796.79,-133.03"/>
</g>
<!-- Node51&#45;&gt;Node32 -->
<g id="edge47" class="edge">
<title>Node51&#45;&gt;Node32</title>
<path fill="none" stroke="midnightblue" d="M3072.35,-112.44C3033.34,-103.08 2970.73,-88.06 2928.28,-77.87"/>
<polygon fill="midnightblue" stroke="midnightblue" points="2929.03,-74.45 2918.49,-75.52 2927.39,-81.25 2929.03,-74.45"/>
</g>
<!-- Node32&#45;&gt;Node30 -->
<g id="edge48" class="edge">
<title>Node32&#45;&gt;Node30</title>
<path fill="none" stroke="midnightblue" d="M2827.38,-56.44C2753.53,-45.08 2625.42,-25.37 2565.15,-16.1"/>
<polygon fill="midnightblue" stroke="midnightblue" points="2565.47,-12.61 2555.05,-14.55 2564.4,-19.53 2565.47,-12.61"/>
</g>
<!-- Node32&#45;&gt;Node14 -->
<g id="edge49" class="edge">
<title>Node32&#45;&gt;Node14</title>
<path fill="none" stroke="midnightblue" d="M2890.27,-56.08C2896.54,-48.38 2905.79,-37.03 2913.43,-27.65"/>
<polygon fill="midnightblue" stroke="midnightblue" points="2916.27,-29.71 2919.87,-19.75 2910.84,-25.29 2916.27,-29.71"/>
</g>
<!-- Node72&#45;&gt;Node3 -->
<g id="edge54" class="edge">
<title>Node72&#45;&gt;Node3</title>
<path fill="none" stroke="midnightblue" d="M2738.78,-112.44C2705.07,-103.2 2651.2,-88.44 2614.07,-78.26"/>
<polygon fill="midnightblue" stroke="midnightblue" points="2614.64,-74.78 2604.07,-75.52 2612.79,-81.54 2614.64,-74.78"/>
</g>
<!-- Node72&#45;&gt;Node24 -->
<g id="edge55" class="edge">
<title>Node72&#45;&gt;Node24</title>
<path fill="none" stroke="midnightblue" d="M2764.88,-112.08C2760.59,-104.61 2754.34,-93.72 2749.06,-84.52"/>
<polygon fill="midnightblue" stroke="midnightblue" points="2752.04,-82.68 2744.02,-75.75 2745.97,-86.17 2752.04,-82.68"/>
</g>
<!-- Node72&#45;&gt;Node32 -->
<g id="edge53" class="edge">
<title>Node72&#45;&gt;Node32</title>
<path fill="none" stroke="midnightblue" d="M2787.91,-112.44C2806.25,-103.68 2835.01,-89.94 2856.09,-79.86"/>
<polygon fill="midnightblue" stroke="midnightblue" points="2857.67,-82.99 2865.18,-75.52 2854.65,-76.67 2857.67,-82.99"/>
</g>
<!-- Node218&#45;&gt;Node14 -->
<g id="edge66" class="edge">
<title>Node218&#45;&gt;Node14</title>
<path fill="none" stroke="midnightblue" d="M2731,-245.25C2868.6,-235.69 3152.54,-207.12 3210,-132 3225.98,-111.11 3205.66,-69.78 3189,-56 3155.14,-28 3026.72,-16.76 2963.13,-12.83"/>
<polygon fill="midnightblue" stroke="midnightblue" points="2963.32,-9.34 2953.13,-12.25 2962.91,-16.33 2963.32,-9.34"/>
</g>
<!-- Node218&#45;&gt;Node245 -->
<g id="edge59" class="edge">
<title>Node218&#45;&gt;Node245</title>
<path fill="none" stroke="midnightblue" d="M2656,-235.4C2656,-226.06 2656,-213.71 2656,-203.52"/>
<polygon fill="midnightblue" stroke="midnightblue" points="2659.5,-203.19 2656,-193.19 2652.5,-203.19 2659.5,-203.19"/>
</g>
<!-- Node245&#45;&gt;Node2 -->
<g id="edge61" class="edge">
<title>Node245&#45;&gt;Node2</title>
<path fill="none" stroke="midnightblue" d="M2632.93,-173.98C2605.32,-163.77 2558.88,-146.61 2527.6,-135.05"/>
<polygon fill="midnightblue" stroke="midnightblue" points="2528.62,-131.69 2518.02,-131.51 2526.19,-138.26 2528.62,-131.69"/>
</g>
<!-- Node245&#45;&gt;Node3 -->
<g id="edge62" class="edge">
<title>Node245&#45;&gt;Node3</title>
<path fill="none" stroke="midnightblue" d="M2644.92,-173.77C2633.55,-164.39 2615.89,-148.56 2604,-132 2593.53,-117.41 2585.05,-98.74 2579.63,-85.15"/>
<polygon fill="midnightblue" stroke="midnightblue" points="2582.78,-83.61 2575.95,-75.52 2576.25,-86.11 2582.78,-83.61"/>
</g>
<!-- Node245&#45;&gt;Node24 -->
<g id="edge64" class="edge">
<title>Node245&#45;&gt;Node24</title>
<path fill="none" stroke="midnightblue" d="M2662.24,-173.82C2675.94,-154.76 2708.86,-108.95 2726.81,-83.96"/>
<polygon fill="midnightblue" stroke="midnightblue" points="2729.7,-85.95 2732.69,-75.78 2724.01,-81.86 2729.7,-85.95"/>
</g>
<!-- Node245&#45;&gt;Node14 -->
<g id="edge65" class="edge">
<title>Node245&#45;&gt;Node14</title>
<path fill="none" stroke="midnightblue" d="M2656.75,-173.82C2659.24,-150.72 2669.34,-87.38 2707,-56 2734.5,-33.08 2835.78,-19.89 2890.82,-14.26"/>
<polygon fill="midnightblue" stroke="midnightblue" points="2891.25,-17.73 2900.85,-13.26 2890.56,-10.77 2891.25,-17.73"/>
</g>
<!-- Node245&#45;&gt;Node32 -->
<g id="edge60" class="edge">
<title>Node245&#45;&gt;Node32</title>
<path fill="none" stroke="midnightblue" d="M2713.73,-173.95C2748.62,-166.8 2792.8,-154.08 2827,-132 2846.09,-119.67 2862.32,-98.95 2872.31,-84.22"/>
<polygon fill="midnightblue" stroke="midnightblue" points="2875.43,-85.84 2877.95,-75.55 2869.56,-82.03 2875.43,-85.84"/>
</g>
<!-- Node245&#45;&gt;Node72 -->
<g id="edge63" class="edge">
<title>Node245&#45;&gt;Node72</title>
<path fill="none" stroke="midnightblue" d="M2672.33,-173.98C2691.21,-164.12 2722.51,-147.79 2744.58,-136.27"/>
<polygon fill="midnightblue" stroke="midnightblue" points="2746.45,-139.24 2753.7,-131.51 2743.21,-133.03 2746.45,-139.24"/>
</g>
<!-- Node258&#45;&gt;Node3 -->
<g id="edge70" class="edge">
<title>Node258&#45;&gt;Node3</title>
<path fill="none" stroke="midnightblue" d="M1820.51,-240.95C1735.71,-223.2 1567.58,-178.4 1631,-112 1661.19,-80.39 2373.35,-78.26 2417,-76 2446.8,-74.46 2479.79,-72.58 2507.73,-70.94"/>
<polygon fill="midnightblue" stroke="midnightblue" points="2508,-74.43 2517.78,-70.35 2507.59,-67.44 2508,-74.43"/>
</g>
<!-- Node260&#45;&gt;Node3 -->
<g id="edge73" class="edge">
<title>Node260&#45;&gt;Node3</title>
<path fill="none" stroke="midnightblue" d="M2911.83,-112.86C2838.18,-102.89 2713.93,-86.07 2638.1,-75.81"/>
<polygon fill="midnightblue" stroke="midnightblue" points="2638.56,-72.34 2628.18,-74.47 2637.63,-79.28 2638.56,-72.34"/>
</g>
<!-- Node260&#45;&gt;Node24 -->
<g id="edge74" class="edge">
<title>Node260&#45;&gt;Node24</title>
<path fill="none" stroke="midnightblue" d="M2935.08,-112.44C2890.27,-102.06 2815.37,-84.7 2772.27,-74.71"/>
<polygon fill="midnightblue" stroke="midnightblue" points="2772.83,-71.25 2762.3,-72.4 2771.25,-78.07 2772.83,-71.25"/>
</g>
<!-- Node260&#45;&gt;Node14 -->
<g id="edge75" class="edge">
<title>Node260&#45;&gt;Node14</title>
<path fill="none" stroke="midnightblue" d="M2970.17,-112.36C2967.33,-99.69 2961.32,-75.46 2953,-56 2948.92,-46.46 2943.26,-36.41 2938.26,-28.23"/>
<polygon fill="midnightblue" stroke="midnightblue" points="2941.13,-26.22 2932.83,-19.64 2935.21,-29.96 2941.13,-26.22"/>
</g>
<!-- Node260&#45;&gt;Node32 -->
<g id="edge72" class="edge">
<title>Node260&#45;&gt;Node32</title>
<path fill="none" stroke="midnightblue" d="M2957.7,-112.32C2943.82,-103.9 2922.51,-90.97 2906.2,-81.07"/>
<polygon fill="midnightblue" stroke="midnightblue" points="2907.63,-77.85 2897.26,-75.65 2904,-83.83 2907.63,-77.85"/>
</g>
<!-- Node272&#45;&gt;Node3 -->
<g id="edge77" class="edge">
<title>Node272&#45;&gt;Node3</title>
<path fill="none" stroke="midnightblue" d="M2402.17,-173.78C2404.62,-158.96 2411.67,-128.83 2430,-112 2451.25,-92.49 2480.91,-81.44 2507.71,-75.18"/>
<polygon fill="midnightblue" stroke="midnightblue" points="2508.77,-78.53 2517.81,-73.01 2507.3,-71.69 2508.77,-78.53"/>
</g>
<!-- Node272&#45;&gt;Node36 -->
<g id="edge78" class="edge">
<title>Node272&#45;&gt;Node36</title>
<path fill="none" stroke="midnightblue" d="M2383.38,-173.98C2362.83,-164.03 2328.64,-147.49 2304.79,-135.96"/>
<polygon fill="midnightblue" stroke="midnightblue" points="2306.12,-132.71 2295.59,-131.51 2303.07,-139.01 2306.12,-132.71"/>
</g>
</g>
</svg>
