<?xml version="1.0" encoding="UTF-8" standalone="no"?>
<!DOCTYPE svg PUBLIC "-//W3C//DTD SVG 1.1//EN"
 "http://www.w3.org/Graphics/SVG/1.1/DTD/svg11.dtd">
<!-- Generated by graphviz version 2.43.0 (0)
 -->
<!-- Title: include/llvm/Analysis/CFLAliasAnalysisUtils.h Pages: 1 -->
<svg width="1125pt" height="173pt"
 viewBox="0.00 0.00 1125.00 173.00" xmlns="http://www.w3.org/2000/svg" xmlns:xlink="http://www.w3.org/1999/xlink">
<g id="graph0" class="graph" transform="scale(1 1) rotate(0) translate(4 169)">
<title>include/llvm/Analysis/CFLAliasAnalysisUtils.h</title>
<!-- Node108 -->
<g id="node1" class="node">
<title>Node108</title>
<polygon fill="#bfbfbf" stroke="black" points="504.5,-134.5 504.5,-164.5 630.5,-164.5 630.5,-134.5 504.5,-134.5"/>
<text text-anchor="start" x="512.5" y="-152.5" font-family="Helvetica,sans-Serif" font-size="10.00">include/llvm/Analysis</text>
<text text-anchor="middle" x="567.5" y="-141.5" font-family="Helvetica,sans-Serif" font-size="10.00">/CFLAliasAnalysisUtils.h</text>
</g>
<!-- Node109 -->
<g id="node2" class="node">
<title>Node109</title>
<g id="a_node2"><a xlink:href="CFLAndersAliasAnalysis_8h.html" target="_top" xlink:title="This is the interface for LLVM&#39;s inclusion&#45;based alias analysis implemented with CFL graph reachabili...">
<polygon fill="none" stroke="black" points="577,-67.5 577,-97.5 714,-97.5 714,-67.5 577,-67.5"/>
<text text-anchor="start" x="585" y="-85.5" font-family="Helvetica,sans-Serif" font-size="10.00">include/llvm/Analysis</text>
<text text-anchor="middle" x="645.5" y="-74.5" font-family="Helvetica,sans-Serif" font-size="10.00">/CFLAndersAliasAnalysis.h</text>
</a>
</g>
</g>
<!-- Node108&#45;&gt;Node109 -->
<g id="edge1" class="edge">
<title>Node108&#45;&gt;Node109</title>
<path fill="none" stroke="midnightblue" d="M592.24,-127.88C604.09,-118.01 617.98,-106.43 628.61,-97.58"/>
<polygon fill="midnightblue" stroke="midnightblue" points="589.87,-125.31 584.42,-134.4 594.35,-130.68 589.87,-125.31"/>
</g>
<!-- Node116 -->
<g id="node9" class="node">
<title>Node116</title>
<g id="a_node9"><a xlink:href="CFLSteensAliasAnalysis_8h.html" target="_top" xlink:title="This is the interface for LLVM&#39;s unification&#45;based alias analysis implemented with CFL graph reachabi...">
<polygon fill="none" stroke="black" points="422,-67.5 422,-97.5 559,-97.5 559,-67.5 422,-67.5"/>
<text text-anchor="start" x="430" y="-85.5" font-family="Helvetica,sans-Serif" font-size="10.00">include/llvm/Analysis</text>
<text text-anchor="middle" x="490.5" y="-74.5" font-family="Helvetica,sans-Serif" font-size="10.00">/CFLSteensAliasAnalysis.h</text>
</a>
</g>
</g>
<!-- Node108&#45;&gt;Node116 -->
<g id="edge8" class="edge">
<title>Node108&#45;&gt;Node116</title>
<path fill="none" stroke="midnightblue" d="M543.08,-127.88C531.38,-118.01 517.66,-106.43 507.18,-97.58"/>
<polygon fill="midnightblue" stroke="midnightblue" points="540.89,-130.62 550.79,-134.4 545.41,-125.27 540.89,-130.62"/>
</g>
<!-- Node110 -->
<g id="node3" class="node">
<title>Node110</title>
<g id="a_node3"><a xlink:href="LinkAllPasses_8h.html" target="_top" xlink:title="include/llvm/LinkAllPasses.h">
<polygon fill="none" stroke="black" points="649.5,-6 649.5,-25 791.5,-25 791.5,-6 649.5,-6"/>
<text text-anchor="middle" x="720.5" y="-13" font-family="Helvetica,sans-Serif" font-size="10.00">include/llvm/LinkAllPasses.h</text>
</a>
</g>
</g>
<!-- Node109&#45;&gt;Node110 -->
<g id="edge2" class="edge">
<title>Node109&#45;&gt;Node110</title>
<path fill="none" stroke="midnightblue" d="M669.53,-60.67C683.38,-48.67 700.05,-34.22 710.47,-25.19"/>
<polygon fill="midnightblue" stroke="midnightblue" points="667.04,-58.2 661.77,-67.4 671.62,-63.49 667.04,-58.2"/>
</g>
<!-- Node111 -->
<g id="node4" class="node">
<title>Node111</title>
<g id="a_node4"><a xlink:href="AliasAnalysis_8cpp.html" target="_top" xlink:title="lib/Analysis/AliasAnalysis.cpp">
<polygon fill="none" stroke="black" points="809.5,-6 809.5,-25 957.5,-25 957.5,-6 809.5,-6"/>
<text text-anchor="middle" x="883.5" y="-13" font-family="Helvetica,sans-Serif" font-size="10.00">lib/Analysis/AliasAnalysis.cpp</text>
</a>
</g>
</g>
<!-- Node109&#45;&gt;Node111 -->
<g id="edge3" class="edge">
<title>Node109&#45;&gt;Node111</title>
<path fill="none" stroke="midnightblue" d="M706.54,-64.83C753.12,-52.11 815.37,-35.11 852.27,-25.03"/>
<polygon fill="midnightblue" stroke="midnightblue" points="705.57,-61.46 696.85,-67.48 707.42,-68.22 705.57,-61.46"/>
</g>
<!-- Node112 -->
<g id="node5" class="node">
<title>Node112</title>
<g id="a_node5"><a xlink:href="CFLAndersAliasAnalysis_8cpp.html" target="_top" xlink:title="lib/Analysis/CFLAndersAlias\lAnalysis.cpp">
<polygon fill="none" stroke="black" points="976,-0.5 976,-30.5 1117,-30.5 1117,-0.5 976,-0.5"/>
<text text-anchor="start" x="984" y="-18.5" font-family="Helvetica,sans-Serif" font-size="10.00">lib/Analysis/CFLAndersAlias</text>
<text text-anchor="middle" x="1046.5" y="-7.5" font-family="Helvetica,sans-Serif" font-size="10.00">Analysis.cpp</text>
</a>
</g>
</g>
<!-- Node109&#45;&gt;Node112 -->
<g id="edge4" class="edge">
<title>Node109&#45;&gt;Node112</title>
<path fill="none" stroke="midnightblue" d="M724.32,-69.62C789.35,-59.7 884,-44.96 966.5,-31 969.56,-30.48 972.69,-29.95 975.85,-29.4"/>
<polygon fill="midnightblue" stroke="midnightblue" points="723.5,-66.21 714.14,-71.17 724.56,-73.13 723.5,-66.21"/>
</g>
<!-- Node113 -->
<g id="node6" class="node">
<title>Node113</title>
<g id="a_node6"><a xlink:href="TargetPassConfig_8cpp.html" target="_top" xlink:title="lib/CodeGen/TargetPassConfig.cpp">
<polygon fill="none" stroke="black" points="159,-6 159,-25 330,-25 330,-6 159,-6"/>
<text text-anchor="middle" x="244.5" y="-13" font-family="Helvetica,sans-Serif" font-size="10.00">lib/CodeGen/TargetPassConfig.cpp</text>
</a>
</g>
</g>
<!-- Node109&#45;&gt;Node113 -->
<g id="edge5" class="edge">
<title>Node109&#45;&gt;Node113</title>
<path fill="none" stroke="midnightblue" d="M566.52,-66.72C518.45,-58.81 378.65,-37.19 299.8,-25.02"/>
<polygon fill="midnightblue" stroke="midnightblue" points="566.23,-70.22 576.67,-68.43 567.39,-63.32 566.23,-70.22"/>
</g>
<!-- Node114 -->
<g id="node7" class="node">
<title>Node114</title>
<g id="a_node7"><a xlink:href="PassBuilder_8cpp.html" target="_top" xlink:title="This file provides the implementation of the PassBuilder based on our static pass registry as well as...">
<polygon fill="none" stroke="black" points="348,-6 348,-25 485,-25 485,-6 348,-6"/>
<text text-anchor="middle" x="416.5" y="-13" font-family="Helvetica,sans-Serif" font-size="10.00">lib/Passes/PassBuilder.cpp</text>
</a>
</g>
</g>
<!-- Node109&#45;&gt;Node114 -->
<g id="edge6" class="edge">
<title>Node109&#45;&gt;Node114</title>
<path fill="none" stroke="midnightblue" d="M586.21,-64.67C541.45,-51.97 481.9,-35.06 446.55,-25.03"/>
<polygon fill="midnightblue" stroke="midnightblue" points="585.52,-68.11 596.09,-67.48 587.43,-61.38 585.52,-68.11"/>
</g>
<!-- Node115 -->
<g id="node8" class="node">
<title>Node115</title>
<g id="a_node8"><a xlink:href="PassManagerBuilder_8cpp.html" target="_top" xlink:title="lib/Transforms/IPO\l/PassManagerBuilder.cpp">
<polygon fill="none" stroke="black" points="503.5,-0.5 503.5,-30.5 631.5,-30.5 631.5,-0.5 503.5,-0.5"/>
<text text-anchor="start" x="511.5" y="-18.5" font-family="Helvetica,sans-Serif" font-size="10.00">lib/Transforms/IPO</text>
<text text-anchor="middle" x="567.5" y="-7.5" font-family="Helvetica,sans-Serif" font-size="10.00">/PassManagerBuilder.cpp</text>
</a>
</g>
</g>
<!-- Node109&#45;&gt;Node115 -->
<g id="edge7" class="edge">
<title>Node109&#45;&gt;Node115</title>
<path fill="none" stroke="midnightblue" d="M620.76,-60.88C608.91,-51.01 595.02,-39.43 584.39,-30.58"/>
<polygon fill="midnightblue" stroke="midnightblue" points="618.65,-63.68 628.58,-67.4 623.13,-58.31 618.65,-63.68"/>
</g>
<!-- Node116&#45;&gt;Node110 -->
<g id="edge9" class="edge">
<title>Node116&#45;&gt;Node110</title>
<path fill="none" stroke="midnightblue" d="M549.77,-64.75C594.75,-52.04 654.74,-35.09 690.32,-25.03"/>
<polygon fill="midnightblue" stroke="midnightblue" points="548.79,-61.39 540.12,-67.48 550.7,-68.12 548.79,-61.39"/>
</g>
<!-- Node116&#45;&gt;Node111 -->
<g id="edge10" class="edge">
<title>Node116&#45;&gt;Node111</title>
<path fill="none" stroke="midnightblue" d="M569.32,-66.89C673.02,-49.36 700.66,-47.47 800.5,-31 811.9,-29.12 824.17,-27.02 835.69,-25.01"/>
<polygon fill="midnightblue" stroke="midnightblue" points="568.66,-63.45 559.38,-68.58 569.83,-70.35 568.66,-63.45"/>
</g>
<!-- Node116&#45;&gt;Node113 -->
<g id="edge12" class="edge">
<title>Node116&#45;&gt;Node113</title>
<path fill="none" stroke="midnightblue" d="M427.71,-64.91C379.54,-52.18 315,-35.13 276.78,-25.03"/>
<polygon fill="midnightblue" stroke="midnightblue" points="426.86,-68.31 437.42,-67.48 428.65,-61.54 426.86,-68.31"/>
</g>
<!-- Node116&#45;&gt;Node114 -->
<g id="edge13" class="edge">
<title>Node116&#45;&gt;Node114</title>
<path fill="none" stroke="midnightblue" d="M466.79,-60.67C453.13,-48.67 436.67,-34.22 426.4,-25.19"/>
<polygon fill="midnightblue" stroke="midnightblue" points="464.62,-63.43 474.44,-67.4 469.24,-58.17 464.62,-63.43"/>
</g>
<!-- Node116&#45;&gt;Node115 -->
<g id="edge14" class="edge">
<title>Node116&#45;&gt;Node115</title>
<path fill="none" stroke="midnightblue" d="M514.92,-60.88C526.62,-51.01 540.34,-39.43 550.82,-30.58"/>
<polygon fill="midnightblue" stroke="midnightblue" points="512.59,-58.27 507.21,-67.4 517.11,-63.62 512.59,-58.27"/>
</g>
<!-- Node117 -->
<g id="node10" class="node">
<title>Node117</title>
<g id="a_node10"><a xlink:href="CFLSteensAliasAnalysis_8cpp.html" target="_top" xlink:title="lib/Analysis/CFLSteensAlias\lAnalysis.cpp">
<polygon fill="none" stroke="black" points="0,-0.5 0,-30.5 141,-30.5 141,-0.5 0,-0.5"/>
<text text-anchor="start" x="8" y="-18.5" font-family="Helvetica,sans-Serif" font-size="10.00">lib/Analysis/CFLSteensAlias</text>
<text text-anchor="middle" x="70.5" y="-7.5" font-family="Helvetica,sans-Serif" font-size="10.00">Analysis.cpp</text>
</a>
</g>
</g>
<!-- Node116&#45;&gt;Node117 -->
<g id="edge11" class="edge">
<title>Node116&#45;&gt;Node117</title>
<path fill="none" stroke="midnightblue" d="M411.86,-70.64C342.66,-60.9 239.26,-45.88 149.5,-31 146.75,-30.54 143.95,-30.07 141.11,-29.59"/>
<polygon fill="midnightblue" stroke="midnightblue" points="411.42,-74.11 421.81,-72.04 412.4,-67.18 411.42,-74.11"/>
</g>
</g>
</svg>
