<?xml version="1.0" encoding="UTF-8" standalone="no"?>
<!DOCTYPE svg PUBLIC "-//W3C//DTD SVG 1.1//EN"
 "http://www.w3.org/Graphics/SVG/1.1/DTD/svg11.dtd">
<!-- Generated by graphviz version 2.43.0 (0)
 -->
<!-- Title: llvm::codeview::BitFieldRecord Pages: 1 -->
<svg width="396pt" height="217pt"
 viewBox="0.00 0.00 395.50 217.00" xmlns="http://www.w3.org/2000/svg" xmlns:xlink="http://www.w3.org/1999/xlink">
<g id="graph0" class="graph" transform="scale(1 1) rotate(0) translate(4 213)">
<title>llvm::codeview::BitFieldRecord</title>
<!-- Node2 -->
<g id="node1" class="node">
<title>Node2</title>
<polygon fill="#bfbfbf" stroke="black" points="122,-0.5 122,-30.5 243,-30.5 243,-0.5 122,-0.5"/>
<text text-anchor="start" x="130" y="-18.5" font-family="Helvetica,sans-Serif" font-size="10.00">llvm::codeview::BitField</text>
<text text-anchor="middle" x="182.5" y="-7.5" font-family="Helvetica,sans-Serif" font-size="10.00">Record</text>
</g>
<!-- Node3 -->
<g id="node2" class="node">
<title>Node3</title>
<g id="a_node2"><a xlink:href="classllvm_1_1codeview_1_1TypeRecord.html" target="_top" xlink:title="llvm::codeview::TypeRecord">
<polygon fill="none" stroke="black" points="0,-89.5 0,-108.5 141,-108.5 141,-89.5 0,-89.5"/>
<text text-anchor="middle" x="70.5" y="-96.5" font-family="Helvetica,sans-Serif" font-size="10.00">llvm::codeview::TypeRecord</text>
</a>
</g>
</g>
<!-- Node3&#45;&gt;Node2 -->
<g id="edge1" class="edge">
<title>Node3&#45;&gt;Node2</title>
<path fill="none" stroke="midnightblue" d="M90.82,-83.22C111.37,-68.26 142.92,-45.3 163.13,-30.6"/>
<polygon fill="midnightblue" stroke="midnightblue" points="88.51,-80.56 82.49,-89.28 92.63,-86.22 88.51,-80.56"/>
</g>
<!-- Node4 -->
<g id="node3" class="node">
<title>Node4</title>
<polygon fill="none" stroke="#bfbfbf" points="26,-189.5 26,-208.5 115,-208.5 115,-189.5 26,-189.5"/>
<text text-anchor="middle" x="70.5" y="-196.5" font-family="Helvetica,sans-Serif" font-size="10.00">TypeRecordKind</text>
</g>
<!-- Node4&#45;&gt;Node3 -->
<g id="edge2" class="edge">
<title>Node4&#45;&gt;Node3</title>
<path fill="none" stroke="#9a32cd" stroke-dasharray="5,2" d="M70.5,-179.22C70.5,-157.95 70.5,-124.22 70.5,-108.54"/>
<polygon fill="#9a32cd" stroke="#9a32cd" points="67,-179.3 70.5,-189.3 74,-179.3 67,-179.3"/>
<text text-anchor="middle" x="82" y="-146.5" font-family="Helvetica,sans-Serif" font-size="10.00"> Kind</text>
</g>
<!-- Node5 -->
<g id="node4" class="node">
<title>Node5</title>
<polygon fill="none" stroke="#bfbfbf" points="159.5,-89.5 159.5,-108.5 205.5,-108.5 205.5,-89.5 159.5,-89.5"/>
<text text-anchor="middle" x="182.5" y="-96.5" font-family="Helvetica,sans-Serif" font-size="10.00">uint8_t</text>
</g>
<!-- Node5&#45;&gt;Node2 -->
<g id="edge3" class="edge">
<title>Node5&#45;&gt;Node2</title>
<path fill="none" stroke="#9a32cd" stroke-dasharray="5,2" d="M182.5,-79.23C182.5,-64.41 182.5,-44.05 182.5,-30.6"/>
<polygon fill="#9a32cd" stroke="#9a32cd" points="179,-79.28 182.5,-89.28 186,-79.28 179,-79.28"/>
<text text-anchor="middle" x="202.5" y="-63" font-family="Helvetica,sans-Serif" font-size="10.00"> BitSize</text>
<text text-anchor="middle" x="202.5" y="-52" font-family="Helvetica,sans-Serif" font-size="10.00">BitOffset</text>
</g>
<!-- Node6 -->
<g id="node5" class="node">
<title>Node6</title>
<g id="a_node5"><a xlink:href="classllvm_1_1codeview_1_1TypeIndex.html" target="_top" xlink:title="A 32&#45;bit type reference. ">
<polygon fill="none" stroke="black" points="223.5,-89.5 223.5,-108.5 357.5,-108.5 357.5,-89.5 223.5,-89.5"/>
<text text-anchor="middle" x="290.5" y="-96.5" font-family="Helvetica,sans-Serif" font-size="10.00">llvm::codeview::TypeIndex</text>
</a>
</g>
</g>
<!-- Node6&#45;&gt;Node2 -->
<g id="edge4" class="edge">
<title>Node6&#45;&gt;Node2</title>
<path fill="none" stroke="#9a32cd" stroke-dasharray="5,2" d="M271.21,-83.09C258.54,-73.34 241.58,-60.34 226.5,-49 218.45,-42.95 209.53,-36.34 201.83,-30.67"/>
<polygon fill="#9a32cd" stroke="#9a32cd" points="269.16,-85.93 279.22,-89.27 273.43,-80.39 269.16,-85.93"/>
<text text-anchor="middle" x="268" y="-57.5" font-family="Helvetica,sans-Serif" font-size="10.00"> Type</text>
</g>
<!-- Node7 -->
<g id="node6" class="node">
<title>Node7</title>
<g id="a_node6"><a xlink:href="classuint32__t.html" target="_top" xlink:title="uint32_t">
<polygon fill="none" stroke="black" points="265,-189.5 265,-208.5 316,-208.5 316,-189.5 265,-189.5"/>
<text text-anchor="middle" x="290.5" y="-196.5" font-family="Helvetica,sans-Serif" font-size="10.00">uint32_t</text>
</a>
</g>
</g>
<!-- Node7&#45;&gt;Node6 -->
<g id="edge5" class="edge">
<title>Node7&#45;&gt;Node6</title>
<path fill="none" stroke="#9a32cd" stroke-dasharray="5,2" d="M290.5,-179.22C290.5,-157.95 290.5,-124.22 290.5,-108.54"/>
<polygon fill="#9a32cd" stroke="#9a32cd" points="287,-179.3 290.5,-189.3 294,-179.3 287,-179.3"/>
<text text-anchor="middle" x="339" y="-163" font-family="Helvetica,sans-Serif" font-size="10.00"> SimpleModeMask</text>
<text text-anchor="middle" x="339" y="-152" font-family="Helvetica,sans-Serif" font-size="10.00">SimpleKindMask</text>
<text text-anchor="middle" x="339" y="-141" font-family="Helvetica,sans-Serif" font-size="10.00">FirstNonSimpleIndex</text>
<text text-anchor="middle" x="339" y="-130" font-family="Helvetica,sans-Serif" font-size="10.00">DecoratedItemIdMask</text>
</g>
</g>
</svg>
