<?xml version="1.0" encoding="UTF-8" standalone="no"?>
<!DOCTYPE svg PUBLIC "-//W3C//DTD SVG 1.1//EN"
 "http://www.w3.org/Graphics/SVG/1.1/DTD/svg11.dtd">
<!-- Generated by graphviz version 2.43.0 (0)
 -->
<!-- Title: llvm::codeview::DefRangeRegisterSym Pages: 1 -->
<svg width="579pt" height="234pt"
 viewBox="0.00 0.00 579.00 234.00" xmlns="http://www.w3.org/2000/svg" xmlns:xlink="http://www.w3.org/1999/xlink">
<g id="graph0" class="graph" transform="scale(1 1) rotate(0) translate(4 230)">
<title>llvm::codeview::DefRangeRegisterSym</title>
<!-- Node2 -->
<g id="node1" class="node">
<title>Node2</title>
<polygon fill="#bfbfbf" stroke="black" points="439,-111 439,-141 571,-141 571,-111 439,-111"/>
<text text-anchor="start" x="447" y="-129" font-family="Helvetica,sans-Serif" font-size="10.00">llvm::codeview::DefRange</text>
<text text-anchor="middle" x="505" y="-118" font-family="Helvetica,sans-Serif" font-size="10.00">RegisterSym</text>
</g>
<!-- Node3 -->
<g id="node2" class="node">
<title>Node3</title>
<g id="a_node2"><a xlink:href="classllvm_1_1codeview_1_1SymbolRecord.html" target="_top" xlink:title="llvm::codeview::SymbolRecord">
<polygon fill="none" stroke="black" points="219,-205.5 219,-224.5 371,-224.5 371,-205.5 219,-205.5"/>
<text text-anchor="middle" x="295" y="-212.5" font-family="Helvetica,sans-Serif" font-size="10.00">llvm::codeview::SymbolRecord</text>
</a>
</g>
</g>
<!-- Node3&#45;&gt;Node2 -->
<g id="edge1" class="edge">
<title>Node3&#45;&gt;Node2</title>
<path fill="none" stroke="midnightblue" d="M350.93,-202.69C357.76,-200.69 364.6,-198.46 371,-196 410.47,-180.86 453.24,-156.85 479.34,-141.26"/>
<polygon fill="midnightblue" stroke="midnightblue" points="349.66,-199.41 340.96,-205.45 351.53,-206.15 349.66,-199.41"/>
</g>
<!-- Node4 -->
<g id="node3" class="node">
<title>Node4</title>
<polygon fill="none" stroke="#bfbfbf" points="0,-205.5 0,-224.5 101,-224.5 101,-205.5 0,-205.5"/>
<text text-anchor="middle" x="50.5" y="-212.5" font-family="Helvetica,sans-Serif" font-size="10.00">SymbolRecordKind</text>
</g>
<!-- Node4&#45;&gt;Node3 -->
<g id="edge2" class="edge">
<title>Node4&#45;&gt;Node3</title>
<path fill="none" stroke="#9a32cd" stroke-dasharray="5,2" d="M111.38,-215C143.76,-215 184.09,-215 218.6,-215"/>
<polygon fill="#9a32cd" stroke="#9a32cd" points="111.16,-211.5 101.16,-215 111.16,-218.5 111.16,-211.5"/>
<text text-anchor="middle" x="160" y="-218" font-family="Helvetica,sans-Serif" font-size="10.00"> Kind</text>
</g>
<!-- Node5 -->
<g id="node4" class="node">
<title>Node5</title>
<polygon fill="none" stroke="#bfbfbf" points="231,-156 231,-186 359,-186 359,-156 231,-156"/>
<text text-anchor="start" x="239" y="-174" font-family="Helvetica,sans-Serif" font-size="10.00">vector&lt; llvm::codeview</text>
<text text-anchor="middle" x="295" y="-163" font-family="Helvetica,sans-Serif" font-size="10.00">::LocalVariableAddrGap &gt;</text>
</g>
<!-- Node5&#45;&gt;Node2 -->
<g id="edge3" class="edge">
<title>Node5&#45;&gt;Node2</title>
<path fill="none" stroke="#9a32cd" stroke-dasharray="5,2" d="M369.18,-155.17C391.89,-150.25 416.76,-144.87 438.89,-140.09"/>
<polygon fill="#9a32cd" stroke="#9a32cd" points="368.29,-151.78 359.25,-157.32 369.77,-158.62 368.29,-151.78"/>
<text text-anchor="middle" x="405" y="-152" font-family="Helvetica,sans-Serif" font-size="10.00"> Gaps</text>
</g>
<!-- Node6 -->
<g id="node5" class="node">
<title>Node6</title>
<g id="a_node5"><a xlink:href="classuint32__t.html" target="_top" xlink:title="uint32_t">
<polygon fill="none" stroke="black" points="25,-103.5 25,-122.5 76,-122.5 76,-103.5 25,-103.5"/>
<text text-anchor="middle" x="50.5" y="-110.5" font-family="Helvetica,sans-Serif" font-size="10.00">uint32_t</text>
</a>
</g>
</g>
<!-- Node6&#45;&gt;Node2 -->
<g id="edge4" class="edge">
<title>Node6&#45;&gt;Node2</title>
<path fill="none" stroke="#9a32cd" stroke-dasharray="5,2" d="M86.53,-114.01C162.15,-116.18 341.69,-121.34 438.86,-124.13"/>
<polygon fill="#9a32cd" stroke="#9a32cd" points="86.25,-110.5 76.15,-113.71 86.05,-117.49 86.25,-110.5"/>
<text text-anchor="middle" x="295" y="-125" font-family="Helvetica,sans-Serif" font-size="10.00"> RecordOffset</text>
</g>
<!-- Node9 -->
<g id="node8" class="node">
<title>Node9</title>
<g id="a_node8"><a xlink:href="structllvm_1_1codeview_1_1LocalVariableAddrRange.html" target="_top" xlink:title="llvm::codeview::LocalVariable\lAddrRange">
<polygon fill="none" stroke="black" points="222,-59 222,-89 368,-89 368,-59 222,-59"/>
<text text-anchor="start" x="230" y="-77" font-family="Helvetica,sans-Serif" font-size="10.00">llvm::codeview::LocalVariable</text>
<text text-anchor="middle" x="295" y="-66" font-family="Helvetica,sans-Serif" font-size="10.00">AddrRange</text>
</a>
</g>
</g>
<!-- Node6&#45;&gt;Node9 -->
<g id="edge9" class="edge">
<title>Node6&#45;&gt;Node9</title>
<path fill="none" stroke="#9a32cd" stroke-dasharray="5,2" d="M86.25,-106.67C96.76,-104.79 108.34,-102.77 119,-101 152.81,-95.39 190.37,-89.54 221.99,-84.73"/>
<polygon fill="#9a32cd" stroke="#9a32cd" points="85.39,-103.26 76.16,-108.48 86.62,-110.15 85.39,-103.26"/>
<text text-anchor="middle" x="160" y="-104" font-family="Helvetica,sans-Serif" font-size="10.00"> OffsetStart</text>
</g>
<!-- Node7 -->
<g id="node6" class="node">
<title>Node7</title>
<g id="a_node6"><a xlink:href="structllvm_1_1codeview_1_1DefRangeRegisterHeader.html" target="_top" xlink:title="llvm::codeview::DefRange\lRegisterHeader">
<polygon fill="none" stroke="black" points="229,-3 229,-33 361,-33 361,-3 229,-3"/>
<text text-anchor="start" x="237" y="-21" font-family="Helvetica,sans-Serif" font-size="10.00">llvm::codeview::DefRange</text>
<text text-anchor="middle" x="295" y="-10" font-family="Helvetica,sans-Serif" font-size="10.00">RegisterHeader</text>
</a>
</g>
</g>
<!-- Node7&#45;&gt;Node2 -->
<g id="edge5" class="edge">
<title>Node7&#45;&gt;Node2</title>
<path fill="none" stroke="#9a32cd" stroke-dasharray="5,2" d="M342.66,-36.99C352.13,-41.1 361.95,-45.55 371,-50 409.9,-69.12 453.18,-94.71 479.5,-110.77"/>
<polygon fill="#9a32cd" stroke="#9a32cd" points="343.93,-33.73 333.36,-33.01 341.18,-40.16 343.93,-33.73"/>
<text text-anchor="middle" x="405" y="-78" font-family="Helvetica,sans-Serif" font-size="10.00"> Hdr</text>
</g>
<!-- Node8 -->
<g id="node7" class="node">
<title>Node8</title>
<polygon fill="none" stroke="#bfbfbf" points="21,-0.5 21,-19.5 80,-19.5 80,-0.5 21,-0.5"/>
<text text-anchor="middle" x="50.5" y="-7.5" font-family="Helvetica,sans-Serif" font-size="10.00">ulittle16_t</text>
</g>
<!-- Node8&#45;&gt;Node7 -->
<g id="edge6" class="edge">
<title>Node8&#45;&gt;Node7</title>
<path fill="none" stroke="#9a32cd" stroke-dasharray="5,2" d="M90.29,-9.53C120.48,-9.34 163.42,-9.46 201,-11 210.06,-11.37 219.61,-11.91 228.99,-12.54"/>
<polygon fill="#9a32cd" stroke="#9a32cd" points="90.15,-6.03 80.17,-9.61 90.2,-13.03 90.15,-6.03"/>
<text text-anchor="middle" x="160" y="-25" font-family="Helvetica,sans-Serif" font-size="10.00"> Register</text>
<text text-anchor="middle" x="160" y="-14" font-family="Helvetica,sans-Serif" font-size="10.00">MayHaveNoName</text>
</g>
<!-- Node9&#45;&gt;Node2 -->
<g id="edge7" class="edge">
<title>Node9&#45;&gt;Node2</title>
<path fill="none" stroke="#9a32cd" stroke-dasharray="5,2" d="M378.13,-90.76C392.46,-93.96 407.2,-97.44 421,-101 432.51,-103.97 444.82,-107.49 456.34,-110.93"/>
<polygon fill="#9a32cd" stroke="#9a32cd" points="378.8,-87.32 368.28,-88.59 377.29,-94.16 378.8,-87.32"/>
<text text-anchor="middle" x="405" y="-104" font-family="Helvetica,sans-Serif" font-size="10.00"> Range</text>
</g>
<!-- Node10 -->
<g id="node9" class="node">
<title>Node10</title>
<g id="a_node9"><a xlink:href="classuint16__t.html" target="_top" xlink:title="uint16_t">
<polygon fill="none" stroke="black" points="25,-45.5 25,-64.5 76,-64.5 76,-45.5 25,-45.5"/>
<text text-anchor="middle" x="50.5" y="-52.5" font-family="Helvetica,sans-Serif" font-size="10.00">uint16_t</text>
</a>
</g>
</g>
<!-- Node10&#45;&gt;Node9 -->
<g id="edge8" class="edge">
<title>Node10&#45;&gt;Node9</title>
<path fill="none" stroke="#9a32cd" stroke-dasharray="5,2" d="M86.26,-53.42C116.62,-52.48 161.84,-52.11 201,-56 208.36,-56.73 216.01,-57.76 223.62,-58.96"/>
<polygon fill="#9a32cd" stroke="#9a32cd" points="86.05,-49.93 76.18,-53.78 86.29,-56.93 86.05,-49.93"/>
<text text-anchor="middle" x="160" y="-70" font-family="Helvetica,sans-Serif" font-size="10.00"> Range</text>
<text text-anchor="middle" x="160" y="-59" font-family="Helvetica,sans-Serif" font-size="10.00">ISectStart</text>
</g>
</g>
</svg>
