<?xml version="1.0" encoding="UTF-8" standalone="no"?>
<!DOCTYPE svg PUBLIC "-//W3C//DTD SVG 1.1//EN"
 "http://www.w3.org/Graphics/SVG/1.1/DTD/svg11.dtd">
<!-- Generated by graphviz version 2.43.0 (0)
 -->
<!-- Title: llvm::CrashRecoveryContextDestructorCleanup&lt; T &gt; Pages: 1 -->
<svg width="1372pt" height="97pt"
 viewBox="0.00 0.00 1372.00 96.50" xmlns="http://www.w3.org/2000/svg" xmlns:xlink="http://www.w3.org/1999/xlink">
<g id="graph0" class="graph" transform="scale(1 1) rotate(0) translate(4 92.5)">
<title>llvm::CrashRecoveryContextDestructorCleanup&lt; T &gt;</title>
<!-- Node4 -->
<g id="node1" class="node">
<title>Node4</title>
<polygon fill="#bfbfbf" stroke="black" points="1221,-23.5 1221,-53.5 1364,-53.5 1364,-23.5 1221,-23.5"/>
<text text-anchor="start" x="1229" y="-41.5" font-family="Helvetica,sans-Serif" font-size="10.00">llvm::CrashRecoveryContext</text>
<text text-anchor="middle" x="1292.5" y="-30.5" font-family="Helvetica,sans-Serif" font-size="10.00">DestructorCleanup&lt; T &gt;</text>
</g>
<!-- Node5 -->
<g id="node2" class="node">
<title>Node5</title>
<g id="a_node2"><a xlink:href="classllvm_1_1CrashRecoveryContextCleanupBase.html" target="_top" xlink:title="llvm::CrashRecoveryContext\lCleanupBase\&lt; CrashRecoveryContext\lDestructorCleanup\&lt; T \&gt;, T \&gt;">
<polygon fill="none" stroke="black" points="997,-18 997,-59 1184,-59 1184,-18 997,-18"/>
<text text-anchor="start" x="1005" y="-47" font-family="Helvetica,sans-Serif" font-size="10.00">llvm::CrashRecoveryContext</text>
<text text-anchor="start" x="1005" y="-36" font-family="Helvetica,sans-Serif" font-size="10.00">CleanupBase&lt; CrashRecoveryContext</text>
<text text-anchor="middle" x="1090.5" y="-25" font-family="Helvetica,sans-Serif" font-size="10.00">DestructorCleanup&lt; T &gt;, T &gt;</text>
</a>
</g>
</g>
<!-- Node5&#45;&gt;Node4 -->
<g id="edge1" class="edge">
<title>Node5&#45;&gt;Node4</title>
<path fill="none" stroke="midnightblue" d="M1194.34,-38.5C1203.34,-38.5 1212.31,-38.5 1220.96,-38.5"/>
<polygon fill="midnightblue" stroke="midnightblue" points="1194.18,-35 1184.18,-38.5 1194.18,-42 1194.18,-35"/>
</g>
<!-- Node6 -->
<g id="node3" class="node">
<title>Node6</title>
<g id="a_node3"><a xlink:href="classllvm_1_1CrashRecoveryContextCleanup.html" target="_top" xlink:title="Abstract base class of cleanup handlers. ">
<polygon fill="none" stroke="black" points="437,-0.5 437,-30.5 580,-30.5 580,-0.5 437,-0.5"/>
<text text-anchor="start" x="445" y="-18.5" font-family="Helvetica,sans-Serif" font-size="10.00">llvm::CrashRecoveryContext</text>
<text text-anchor="middle" x="508.5" y="-7.5" font-family="Helvetica,sans-Serif" font-size="10.00">Cleanup</text>
</a>
</g>
</g>
<!-- Node6&#45;&gt;Node5 -->
<g id="edge2" class="edge">
<title>Node6&#45;&gt;Node5</title>
<path fill="none" stroke="midnightblue" d="M590.19,-14.85C611.88,-14.71 635.34,-14.57 657,-14.5 720.56,-14.28 736.5,-11.87 800,-14.5 865.88,-17.23 939.99,-23.43 996.73,-28.84"/>
<polygon fill="midnightblue" stroke="midnightblue" points="590,-11.36 580.02,-14.92 590.05,-18.36 590,-11.36"/>
</g>
<!-- Node11 -->
<g id="node8" class="node">
<title>Node11</title>
<g id="a_node8"><a xlink:href="classllvm_1_1CrashRecoveryContextCleanupBase.html" target="_top" xlink:title="Base class of cleanup handler that controls recovery of resources of the given type. ">
<polygon fill="none" stroke="black" points="657,-23.5 657,-53.5 800,-53.5 800,-23.5 657,-23.5"/>
<text text-anchor="start" x="665" y="-41.5" font-family="Helvetica,sans-Serif" font-size="10.00">llvm::CrashRecoveryContext</text>
<text text-anchor="middle" x="728.5" y="-30.5" font-family="Helvetica,sans-Serif" font-size="10.00">CleanupBase&lt; Derived, T &gt;</text>
</a>
</g>
</g>
<!-- Node6&#45;&gt;Node11 -->
<g id="edge9" class="edge">
<title>Node6&#45;&gt;Node11</title>
<path fill="none" stroke="midnightblue" d="M590.47,-24.04C612.22,-26.34 635.56,-28.8 656.7,-31.03"/>
<polygon fill="midnightblue" stroke="midnightblue" points="590.59,-20.54 580.28,-22.97 589.86,-27.5 590.59,-20.54"/>
</g>
<!-- Node7 -->
<g id="node4" class="node">
<title>Node7</title>
<g id="a_node4"><a xlink:href="classllvm_1_1CrashRecoveryContext.html" target="_top" xlink:title="Crash recovery helper object. ">
<polygon fill="none" stroke="black" points="222,-27 222,-46 365,-46 365,-27 222,-27"/>
<text text-anchor="middle" x="293.5" y="-34" font-family="Helvetica,sans-Serif" font-size="10.00">llvm::CrashRecoveryContext</text>
</a>
</g>
</g>
<!-- Node7&#45;&gt;Node6 -->
<g id="edge3" class="edge">
<title>Node7&#45;&gt;Node6</title>
<path fill="none" stroke="#9a32cd" stroke-dasharray="5,2" d="M375.25,-28.54C395.47,-26.55 417,-24.42 436.7,-22.48"/>
<polygon fill="#9a32cd" stroke="#9a32cd" points="374.74,-25.07 365.13,-29.54 375.43,-32.04 374.74,-25.07"/>
<text text-anchor="middle" x="401" y="-30.5" font-family="Helvetica,sans-Serif" font-size="10.00"> context</text>
</g>
<!-- Node8 -->
<g id="node5" class="node">
<title>Node8</title>
<polygon fill="none" stroke="#bfbfbf" points="3,-55 3,-74 32,-74 32,-55 3,-55"/>
<text text-anchor="middle" x="17.5" y="-62" font-family="Helvetica,sans-Serif" font-size="10.00">int</text>
</g>
<!-- Node8&#45;&gt;Node7 -->
<g id="edge4" class="edge">
<title>Node8&#45;&gt;Node7</title>
<path fill="none" stroke="#9a32cd" stroke-dasharray="5,2" d="M42.08,-62.09C81.6,-58.05 162.69,-49.77 221.92,-43.71"/>
<polygon fill="#9a32cd" stroke="#9a32cd" points="41.68,-58.61 32.09,-63.11 42.39,-65.58 41.68,-58.61"/>
<text text-anchor="middle" x="128.5" y="-62.5" font-family="Helvetica,sans-Serif" font-size="10.00"> RetCode</text>
</g>
<!-- Node9 -->
<g id="node6" class="node">
<title>Node9</title>
<g id="a_node6"><a xlink:href="classbool.html" target="_top" xlink:title="bool">
<polygon fill="none" stroke="black" points="0,-3 0,-22 35,-22 35,-3 0,-3"/>
<text text-anchor="middle" x="17.5" y="-10" font-family="Helvetica,sans-Serif" font-size="10.00">bool</text>
</a>
</g>
</g>
<!-- Node9&#45;&gt;Node6 -->
<g id="edge6" class="edge">
<title>Node9&#45;&gt;Node6</title>
<path fill="none" stroke="#9a32cd" stroke-dasharray="5,2" d="M45.27,-11.15C103.45,-8.4 245.8,-2.74 365,-6.5 388.41,-7.24 413.96,-8.66 436.87,-10.16"/>
<polygon fill="#9a32cd" stroke="#9a32cd" points="44.91,-7.66 35.09,-11.64 45.25,-14.65 44.91,-7.66"/>
<text text-anchor="middle" x="293.5" y="-9.5" font-family="Helvetica,sans-Serif" font-size="10.00"> cleanupFired</text>
</g>
<!-- Node9&#45;&gt;Node7 -->
<g id="edge5" class="edge">
<title>Node9&#45;&gt;Node7</title>
<path fill="none" stroke="#9a32cd" stroke-dasharray="5,2" d="M45.4,-14.86C86.02,-18.41 164.37,-25.28 221.99,-30.32"/>
<polygon fill="#9a32cd" stroke="#9a32cd" points="45.49,-11.35 35.23,-13.97 44.88,-18.32 45.49,-11.35"/>
<text text-anchor="middle" x="128.5" y="-32.5" font-family="Helvetica,sans-Serif" font-size="10.00"> DumpStackAndCleanupOnFailure</text>
</g>
<!-- Node10 -->
<g id="node7" class="node">
<title>Node10</title>
<polygon fill="none" stroke="#bfbfbf" points="494,-61 494,-80 523,-80 523,-61 494,-61"/>
<text text-anchor="middle" x="508.5" y="-68" font-family="Helvetica,sans-Serif" font-size="10.00">T</text>
</g>
<!-- Node10&#45;&gt;Node5 -->
<g id="edge7" class="edge">
<title>Node10&#45;&gt;Node5</title>
<path fill="none" stroke="#9a32cd" stroke-dasharray="5,2" d="M533.26,-72.08C602.39,-76.28 809.31,-85.97 979,-64.5 989.56,-63.16 1000.58,-61.24 1011.4,-59.02"/>
<polygon fill="#9a32cd" stroke="#9a32cd" points="533.22,-68.57 523.02,-71.44 532.78,-75.56 533.22,-68.57"/>
<text text-anchor="middle" x="728.5" y="-80.5" font-family="Helvetica,sans-Serif" font-size="10.00"> resource</text>
</g>
<!-- Node10&#45;&gt;Node11 -->
<g id="edge10" class="edge">
<title>Node10&#45;&gt;Node11</title>
<path fill="none" stroke="#9a32cd" stroke-dasharray="5,2" d="M533.28,-67.01C562.72,-62.69 614.19,-55.13 656.75,-48.89"/>
<polygon fill="#9a32cd" stroke="#9a32cd" points="532.52,-63.58 523.14,-68.5 533.54,-70.51 532.52,-63.58"/>
<text text-anchor="middle" x="618.5" y="-59.5" font-family="Helvetica,sans-Serif" font-size="10.00"> resource</text>
</g>
<!-- Node11&#45;&gt;Node5 -->
<g id="edge8" class="edge">
<title>Node11&#45;&gt;Node5</title>
<path fill="none" stroke="orange" stroke-dasharray="5,2" d="M810.3,-38.5C865.61,-38.5 939.09,-38.5 996.78,-38.5"/>
<polygon fill="orange" stroke="orange" points="810.19,-35 800.19,-38.5 810.19,-42 810.19,-35"/>
<text text-anchor="start" x="818" y="-52.5" font-family="Helvetica,sans-Serif" font-size="10.00"> &lt; CrashRecoveryContextDestructor</text>
<text text-anchor="middle" x="898.5" y="-41.5" font-family="Helvetica,sans-Serif" font-size="10.00">Cleanup&lt; T &gt;, T &gt;</text>
</g>
</g>
</svg>
