<?xml version="1.0" encoding="UTF-8" standalone="no"?>
<!DOCTYPE svg PUBLIC "-//W3C//DTD SVG 1.1//EN"
 "http://www.w3.org/Graphics/SVG/1.1/DTD/svg11.dtd">
<!-- Generated by graphviz version 2.43.0 (0)
 -->
<!-- Title: llvm::CGSCCToFunctionPassAdaptor&lt; FunctionPassT &gt; Pages: 1 -->
<svg width="246pt" height="207pt"
 viewBox="0.00 0.00 245.50 207.00" xmlns="http://www.w3.org/2000/svg" xmlns:xlink="http://www.w3.org/1999/xlink">
<g id="graph0" class="graph" transform="scale(1 1) rotate(0) translate(4 203)">
<title>llvm::CGSCCToFunctionPassAdaptor&lt; FunctionPassT &gt;</title>
<!-- Node0 -->
<g id="node1" class="node">
<title>Node0</title>
<polygon fill="#bfbfbf" stroke="black" points="9,-0.5 9,-30.5 158,-30.5 158,-0.5 9,-0.5"/>
<text text-anchor="start" x="17" y="-18.5" font-family="Helvetica,sans-Serif" font-size="10.00">llvm::CGSCCToFunctionPass</text>
<text text-anchor="middle" x="83.5" y="-7.5" font-family="Helvetica,sans-Serif" font-size="10.00">Adaptor&lt; FunctionPassT &gt;</text>
</g>
<!-- Node1 -->
<g id="node2" class="node">
<title>Node1</title>
<g id="a_node2"><a xlink:href="structllvm_1_1PassInfoMixin.html" target="_top" xlink:title="llvm::PassInfoMixin\l\&lt; CGSCCToFunctionPassAdaptor\l\&lt; FunctionPassT \&gt; \&gt;">
<polygon fill="none" stroke="black" points="0,-68.5 0,-109.5 167,-109.5 167,-68.5 0,-68.5"/>
<text text-anchor="start" x="8" y="-97.5" font-family="Helvetica,sans-Serif" font-size="10.00">llvm::PassInfoMixin</text>
<text text-anchor="start" x="8" y="-86.5" font-family="Helvetica,sans-Serif" font-size="10.00">&lt; CGSCCToFunctionPassAdaptor</text>
<text text-anchor="middle" x="83.5" y="-75.5" font-family="Helvetica,sans-Serif" font-size="10.00">&lt; FunctionPassT &gt; &gt;</text>
</a>
</g>
</g>
<!-- Node1&#45;&gt;Node0 -->
<g id="edge1" class="edge">
<title>Node1&#45;&gt;Node0</title>
<path fill="none" stroke="midnightblue" d="M83.5,-58.16C83.5,-48.69 83.5,-38.65 83.5,-30.8"/>
<polygon fill="midnightblue" stroke="midnightblue" points="80,-58.46 83.5,-68.46 87,-58.46 80,-58.46"/>
</g>
<!-- Node2 -->
<g id="node3" class="node">
<title>Node2</title>
<g id="a_node3"><a xlink:href="structllvm_1_1PassInfoMixin.html" target="_top" xlink:title="A CRTP mix&#45;in to automatically provide informational APIs needed for passes. ">
<polygon fill="none" stroke="black" points="32,-168.5 32,-198.5 135,-198.5 135,-168.5 32,-168.5"/>
<text text-anchor="start" x="40" y="-186.5" font-family="Helvetica,sans-Serif" font-size="10.00">llvm::PassInfoMixin</text>
<text text-anchor="middle" x="83.5" y="-175.5" font-family="Helvetica,sans-Serif" font-size="10.00">&lt; DerivedT &gt;</text>
</a>
</g>
</g>
<!-- Node2&#45;&gt;Node1 -->
<g id="edge2" class="edge">
<title>Node2&#45;&gt;Node1</title>
<path fill="none" stroke="orange" stroke-dasharray="5,2" d="M83.5,-158.28C83.5,-143.14 83.5,-123.88 83.5,-109.68"/>
<polygon fill="orange" stroke="orange" points="80,-158.45 83.5,-168.45 87,-158.45 80,-158.45"/>
<text text-anchor="start" x="83.5" y="-142" font-family="Helvetica,sans-Serif" font-size="10.00"> &lt; CGSCCToFunctionPassAdaptor</text>
<text text-anchor="middle" x="160.5" y="-131" font-family="Helvetica,sans-Serif" font-size="10.00">&lt; FunctionPassT &gt; &gt;</text>
</g>
</g>
</svg>
