<?xml version="1.0" encoding="UTF-8" standalone="no"?>
<!DOCTYPE svg PUBLIC "-//W3C//DTD SVG 1.1//EN"
 "http://www.w3.org/Graphics/SVG/1.1/DTD/svg11.dtd">
<!-- Generated by graphviz version 2.43.0 (0)
 -->
<!-- Title: llvm::BinaryStreamRefBase&lt; RefType, StreamType &gt; Pages: 1 -->
<svg width="447pt" height="173pt"
 viewBox="0.00 0.00 446.50 173.00" xmlns="http://www.w3.org/2000/svg" xmlns:xlink="http://www.w3.org/1999/xlink">
<g id="graph0" class="graph" transform="scale(1 1) rotate(0) translate(4 169)">
<title>llvm::BinaryStreamRefBase&lt; RefType, StreamType &gt;</title>
<!-- Node5 -->
<g id="node1" class="node">
<title>Node5</title>
<polygon fill="#bfbfbf" stroke="black" points="142.5,-0.5 142.5,-30.5 280.5,-30.5 280.5,-0.5 142.5,-0.5"/>
<text text-anchor="start" x="150.5" y="-18.5" font-family="Helvetica,sans-Serif" font-size="10.00">llvm::BinaryStreamRefBase</text>
<text text-anchor="middle" x="211.5" y="-7.5" font-family="Helvetica,sans-Serif" font-size="10.00">&lt; RefType, StreamType &gt;</text>
</g>
<!-- Node6 -->
<g id="node2" class="node">
<title>Node6</title>
<g id="a_node2"><a xlink:href="classllvm_1_1Optional.html" target="_top" xlink:title="llvm::Optional\&lt; uint32_t \&gt;">
<polygon fill="none" stroke="black" points="0,-78.5 0,-97.5 129,-97.5 129,-78.5 0,-78.5"/>
<text text-anchor="middle" x="64.5" y="-85.5" font-family="Helvetica,sans-Serif" font-size="10.00">llvm::Optional&lt; uint32_t &gt;</text>
</a>
</g>
</g>
<!-- Node6&#45;&gt;Node5 -->
<g id="edge1" class="edge">
<title>Node6&#45;&gt;Node5</title>
<path fill="none" stroke="#9a32cd" stroke-dasharray="5,2" d="M88.94,-73.5C102.77,-66.02 120.45,-56.7 136.5,-49 149.81,-42.62 164.68,-36.06 177.65,-30.52"/>
<polygon fill="#9a32cd" stroke="#9a32cd" points="87.16,-70.49 80.05,-78.35 90.51,-76.63 87.16,-70.49"/>
<text text-anchor="middle" x="153" y="-52" font-family="Helvetica,sans-Serif" font-size="10.00"> Length</text>
</g>
<!-- Node7 -->
<g id="node3" class="node">
<title>Node7</title>
<g id="a_node3"><a xlink:href="classllvm_1_1Optional.html" target="_top" xlink:title="llvm::Optional\&lt; T \&gt;">
<polygon fill="none" stroke="black" points="14,-145.5 14,-164.5 115,-164.5 115,-145.5 14,-145.5"/>
<text text-anchor="middle" x="64.5" y="-152.5" font-family="Helvetica,sans-Serif" font-size="10.00">llvm::Optional&lt; T &gt;</text>
</a>
</g>
</g>
<!-- Node7&#45;&gt;Node6 -->
<g id="edge2" class="edge">
<title>Node7&#45;&gt;Node6</title>
<path fill="none" stroke="orange" stroke-dasharray="5,2" d="M64.5,-135.04C64.5,-122.67 64.5,-107.12 64.5,-97.63"/>
<polygon fill="orange" stroke="orange" points="61,-135.23 64.5,-145.23 68,-135.23 61,-135.23"/>
<text text-anchor="middle" x="92.5" y="-119" font-family="Helvetica,sans-Serif" font-size="10.00"> &lt; uint32_t &gt;</text>
</g>
<!-- Node8 -->
<g id="node4" class="node">
<title>Node8</title>
<g id="a_node4"><a xlink:href="classuint32__t.html" target="_top" xlink:title="uint32_t">
<polygon fill="none" stroke="black" points="147,-78.5 147,-97.5 198,-97.5 198,-78.5 147,-78.5"/>
<text text-anchor="middle" x="172.5" y="-85.5" font-family="Helvetica,sans-Serif" font-size="10.00">uint32_t</text>
</a>
</g>
</g>
<!-- Node8&#45;&gt;Node5 -->
<g id="edge3" class="edge">
<title>Node8&#45;&gt;Node5</title>
<path fill="none" stroke="#9a32cd" stroke-dasharray="5,2" d="M172.5,-67.99C173.14,-61.68 174.57,-54.79 177.5,-49 181.05,-42.01 186.71,-35.69 192.41,-30.52"/>
<polygon fill="#9a32cd" stroke="#9a32cd" points="168.99,-68.23 172.04,-78.37 175.98,-68.54 168.99,-68.23"/>
<text text-anchor="middle" x="203.5" y="-52" font-family="Helvetica,sans-Serif" font-size="10.00"> ViewOffset</text>
</g>
<!-- Node9 -->
<g id="node5" class="node">
<title>Node9</title>
<polygon fill="none" stroke="#bfbfbf" points="216.5,-78.5 216.5,-97.5 286.5,-97.5 286.5,-78.5 216.5,-78.5"/>
<text text-anchor="middle" x="251.5" y="-85.5" font-family="Helvetica,sans-Serif" font-size="10.00">StreamType</text>
</g>
<!-- Node9&#45;&gt;Node5 -->
<g id="edge4" class="edge">
<title>Node9&#45;&gt;Node5</title>
<path fill="none" stroke="#9a32cd" stroke-dasharray="5,2" d="M241.47,-69.32C234.67,-57.34 225.81,-41.72 219.49,-30.58"/>
<polygon fill="#9a32cd" stroke="#9a32cd" points="238.62,-71.38 246.6,-78.36 244.7,-67.93 238.62,-71.38"/>
<text text-anchor="middle" x="266.5" y="-52" font-family="Helvetica,sans-Serif" font-size="10.00"> BorrowedImpl</text>
</g>
<!-- Node10 -->
<g id="node6" class="node">
<title>Node10</title>
<polygon fill="none" stroke="#bfbfbf" points="304.5,-78.5 304.5,-97.5 438.5,-97.5 438.5,-78.5 304.5,-78.5"/>
<text text-anchor="middle" x="371.5" y="-85.5" font-family="Helvetica,sans-Serif" font-size="10.00">shared_ptr&lt; StreamType &gt;</text>
</g>
<!-- Node10&#45;&gt;Node5 -->
<g id="edge5" class="edge">
<title>Node10&#45;&gt;Node5</title>
<path fill="none" stroke="#9a32cd" stroke-dasharray="5,2" d="M348.7,-73.24C335.48,-65.56 318.35,-56.14 302.5,-49 287.51,-42.25 270.66,-35.9 255.57,-30.64"/>
<polygon fill="#9a32cd" stroke="#9a32cd" points="347.18,-76.4 357.57,-78.46 350.73,-70.37 347.18,-76.4"/>
<text text-anchor="middle" x="350" y="-52" font-family="Helvetica,sans-Serif" font-size="10.00"> SharedImpl</text>
</g>
</g>
</svg>
