<?xml version="1.0" encoding="UTF-8" standalone="no"?>
<!DOCTYPE svg PUBLIC "-//W3C//DTD SVG 1.1//EN"
 "http://www.w3.org/Graphics/SVG/1.1/DTD/svg11.dtd">
<!-- Generated by graphviz version 2.43.0 (0)
 -->
<!-- Title: llvm::sys::fs::basic_file_status Pages: 1 -->
<svg width="491pt" height="117pt"
 viewBox="0.00 0.00 491.00 117.00" xmlns="http://www.w3.org/2000/svg" xmlns:xlink="http://www.w3.org/1999/xlink">
<g id="graph0" class="graph" transform="scale(1 1) rotate(0) translate(4 113)">
<title>llvm::sys::fs::basic_file_status</title>
<!-- Node2 -->
<g id="node1" class="node">
<title>Node2</title>
<polygon fill="#bfbfbf" stroke="black" points="223,-0.5 223,-30.5 323,-30.5 323,-0.5 223,-0.5"/>
<text text-anchor="start" x="231" y="-18.5" font-family="Helvetica,sans-Serif" font-size="10.00">llvm::sys::fs::basic</text>
<text text-anchor="middle" x="273" y="-7.5" font-family="Helvetica,sans-Serif" font-size="10.00">_file_status</text>
</g>
<!-- Node3 -->
<g id="node2" class="node">
<title>Node3</title>
<polygon fill="none" stroke="#bfbfbf" points="0,-89.5 0,-108.5 38,-108.5 38,-89.5 0,-89.5"/>
<text text-anchor="middle" x="19" y="-96.5" font-family="Helvetica,sans-Serif" font-size="10.00">gid_t</text>
</g>
<!-- Node3&#45;&gt;Node2 -->
<g id="edge1" class="edge">
<title>Node3&#45;&gt;Node2</title>
<path fill="none" stroke="#9a32cd" stroke-dasharray="5,2" d="M23.69,-79.8C27.41,-69.12 33.74,-56.32 44,-49 71.86,-29.11 164.19,-21.3 222.75,-18.3"/>
<polygon fill="#9a32cd" stroke="#9a32cd" points="20.31,-78.91 20.79,-89.5 27.01,-80.92 20.31,-78.91"/>
<text text-anchor="middle" x="65.5" y="-57.5" font-family="Helvetica,sans-Serif" font-size="10.00"> fs_st_gid</text>
</g>
<!-- Node4 -->
<g id="node3" class="node">
<title>Node4</title>
<polygon fill="none" stroke="#bfbfbf" points="63,-89.5 63,-108.5 107,-108.5 107,-89.5 63,-89.5"/>
<text text-anchor="middle" x="85" y="-96.5" font-family="Helvetica,sans-Serif" font-size="10.00">time_t</text>
</g>
<!-- Node4&#45;&gt;Node2 -->
<g id="edge2" class="edge">
<title>Node4&#45;&gt;Node2</title>
<path fill="none" stroke="#9a32cd" stroke-dasharray="5,2" d="M88.11,-79.37C90.82,-68.93 95.83,-56.53 105,-49 122.68,-34.49 179.89,-25.68 222.66,-20.96"/>
<polygon fill="#9a32cd" stroke="#9a32cd" points="84.66,-78.75 86.04,-89.26 91.51,-80.19 84.66,-78.75"/>
<text text-anchor="middle" x="134" y="-63" font-family="Helvetica,sans-Serif" font-size="10.00"> fs_st_mtime</text>
<text text-anchor="middle" x="134" y="-52" font-family="Helvetica,sans-Serif" font-size="10.00">fs_st_atime</text>
</g>
<!-- Node5 -->
<g id="node4" class="node">
<title>Node5</title>
<g id="a_node4"><a xlink:href="classuint32__t.html" target="_top" xlink:title="uint32_t">
<polygon fill="none" stroke="black" points="140.5,-89.5 140.5,-108.5 191.5,-108.5 191.5,-89.5 140.5,-89.5"/>
<text text-anchor="middle" x="166" y="-96.5" font-family="Helvetica,sans-Serif" font-size="10.00">uint32_t</text>
</a>
</g>
</g>
<!-- Node5&#45;&gt;Node2 -->
<g id="edge3" class="edge">
<title>Node5&#45;&gt;Node2</title>
<path fill="none" stroke="#9a32cd" stroke-dasharray="5,2" d="M165.97,-79C166.92,-68.97 169.71,-57.1 177,-49 188.77,-35.92 205.99,-28.1 222.61,-23.42"/>
<polygon fill="#9a32cd" stroke="#9a32cd" points="162.46,-79.1 165.54,-89.24 169.45,-79.39 162.46,-79.1"/>
<text text-anchor="middle" x="219" y="-63" font-family="Helvetica,sans-Serif" font-size="10.00"> fs_st_mtime_nsec</text>
<text text-anchor="middle" x="219" y="-52" font-family="Helvetica,sans-Serif" font-size="10.00">fs_st_atime_nsec</text>
</g>
<!-- Node6 -->
<g id="node5" class="node">
<title>Node6</title>
<polygon fill="none" stroke="#bfbfbf" points="239,-89.5 239,-108.5 283,-108.5 283,-89.5 239,-89.5"/>
<text text-anchor="middle" x="261" y="-96.5" font-family="Helvetica,sans-Serif" font-size="10.00">perms</text>
</g>
<!-- Node6&#45;&gt;Node2 -->
<g id="edge4" class="edge">
<title>Node6&#45;&gt;Node2</title>
<path fill="none" stroke="#9a32cd" stroke-dasharray="5,2" d="M263.76,-79.23C265.95,-64.41 268.94,-44.05 270.92,-30.6"/>
<polygon fill="#9a32cd" stroke="#9a32cd" points="260.28,-78.87 262.28,-89.28 267.2,-79.89 260.28,-78.87"/>
<text text-anchor="middle" x="284" y="-57.5" font-family="Helvetica,sans-Serif" font-size="10.00"> Perms</text>
</g>
<!-- Node7 -->
<g id="node6" class="node">
<title>Node7</title>
<polygon fill="none" stroke="#bfbfbf" points="301.5,-89.5 301.5,-108.5 354.5,-108.5 354.5,-89.5 301.5,-89.5"/>
<text text-anchor="middle" x="328" y="-96.5" font-family="Helvetica,sans-Serif" font-size="10.00">file_type</text>
</g>
<!-- Node7&#45;&gt;Node2 -->
<g id="edge5" class="edge">
<title>Node7&#45;&gt;Node2</title>
<path fill="none" stroke="#9a32cd" stroke-dasharray="5,2" d="M320.73,-79.89C316.5,-70.32 310.68,-58.59 304,-49 299.45,-42.47 293.61,-35.99 288.22,-30.55"/>
<polygon fill="#9a32cd" stroke="#9a32cd" points="317.56,-81.38 324.67,-89.24 324.01,-78.66 317.56,-81.38"/>
<text text-anchor="middle" x="328.5" y="-57.5" font-family="Helvetica,sans-Serif" font-size="10.00"> Type</text>
</g>
<!-- Node8 -->
<g id="node7" class="node">
<title>Node8</title>
<polygon fill="none" stroke="#bfbfbf" points="373,-89.5 373,-108.5 409,-108.5 409,-89.5 373,-89.5"/>
<text text-anchor="middle" x="391" y="-96.5" font-family="Helvetica,sans-Serif" font-size="10.00">off_t</text>
</g>
<!-- Node8&#45;&gt;Node2 -->
<g id="edge6" class="edge">
<title>Node8&#45;&gt;Node2</title>
<path fill="none" stroke="#9a32cd" stroke-dasharray="5,2" d="M378.35,-81.5C369.8,-71.16 357.76,-58.12 345,-49 334.85,-41.74 322.81,-35.54 311.52,-30.56"/>
<polygon fill="#9a32cd" stroke="#9a32cd" points="375.69,-83.77 384.67,-89.4 381.16,-79.41 375.69,-83.77"/>
<text text-anchor="middle" x="392.5" y="-57.5" font-family="Helvetica,sans-Serif" font-size="10.00"> fs_st_size</text>
</g>
<!-- Node9 -->
<g id="node8" class="node">
<title>Node9</title>
<polygon fill="none" stroke="#bfbfbf" points="436,-89.5 436,-108.5 474,-108.5 474,-89.5 436,-89.5"/>
<text text-anchor="middle" x="455" y="-96.5" font-family="Helvetica,sans-Serif" font-size="10.00">uid_t</text>
</g>
<!-- Node9&#45;&gt;Node2 -->
<g id="edge7" class="edge">
<title>Node9&#45;&gt;Node2</title>
<path fill="none" stroke="#9a32cd" stroke-dasharray="5,2" d="M446.77,-79.97C441.02,-69.37 432.34,-56.6 421,-49 392.15,-29.68 353.7,-21.64 323.23,-18.39"/>
<polygon fill="#9a32cd" stroke="#9a32cd" points="443.79,-81.83 451.38,-89.22 450.06,-78.71 443.79,-81.83"/>
<text text-anchor="middle" x="461.5" y="-57.5" font-family="Helvetica,sans-Serif" font-size="10.00"> fs_st_uid</text>
</g>
</g>
</svg>
