<?xml version="1.0" encoding="UTF-8" standalone="no"?>
<!DOCTYPE svg PUBLIC "-//W3C//DTD SVG 1.1//EN"
 "http://www.w3.org/Graphics/SVG/1.1/DTD/svg11.dtd">
<!-- Generated by graphviz version 2.43.0 (0)
 -->
<!-- Title: llvm::orc::OrcX86_64_Base Pages: 1 -->
<svg width="274pt" height="95pt"
 viewBox="0.00 0.00 273.50 95.00" xmlns="http://www.w3.org/2000/svg" xmlns:xlink="http://www.w3.org/1999/xlink">
<g id="graph0" class="graph" transform="scale(1 1) rotate(0) translate(4 91)">
<title>llvm::orc::OrcX86_64_Base</title>
<!-- Node0 -->
<g id="node1" class="node">
<title>Node0</title>
<polygon fill="#bfbfbf" stroke="black" points="71.5,-67.5 71.5,-86.5 208.5,-86.5 208.5,-67.5 71.5,-67.5"/>
<text text-anchor="middle" x="140" y="-74.5" font-family="Helvetica,sans-Serif" font-size="10.00">llvm::orc::OrcX86_64_Base</text>
</g>
<!-- Node1 -->
<g id="node2" class="node">
<title>Node1</title>
<g id="a_node2"><a xlink:href="classllvm_1_1orc_1_1OrcX86__64__SysV.html" target="_top" xlink:title="X86_64 support for SysV ABI (Linux, MacOSX). ">
<polygon fill="none" stroke="black" points="0,-6 0,-25 138,-25 138,-6 0,-6"/>
<text text-anchor="middle" x="69" y="-13" font-family="Helvetica,sans-Serif" font-size="10.00">llvm::orc::OrcX86_64_SysV</text>
</a>
</g>
</g>
<!-- Node0&#45;&gt;Node1 -->
<g id="edge1" class="edge">
<title>Node0&#45;&gt;Node1</title>
<path fill="none" stroke="midnightblue" d="M122.07,-60.97C108.49,-49.59 90.32,-34.37 79.15,-25.01"/>
<polygon fill="midnightblue" stroke="midnightblue" points="119.91,-63.73 129.83,-67.48 124.41,-58.37 119.91,-63.73"/>
</g>
<!-- Node2 -->
<g id="node3" class="node">
<title>Node2</title>
<g id="a_node3"><a xlink:href="classllvm_1_1orc_1_1OrcX86__64__Win32.html" target="_top" xlink:title="X86_64 support for Win32. ">
<polygon fill="none" stroke="black" points="156.5,-0.5 156.5,-30.5 265.5,-30.5 265.5,-0.5 156.5,-0.5"/>
<text text-anchor="start" x="164.5" y="-18.5" font-family="Helvetica,sans-Serif" font-size="10.00">llvm::orc::OrcX86_64</text>
<text text-anchor="middle" x="211" y="-7.5" font-family="Helvetica,sans-Serif" font-size="10.00">_Win32</text>
</a>
</g>
</g>
<!-- Node0&#45;&gt;Node2 -->
<g id="edge2" class="edge">
<title>Node0&#45;&gt;Node2</title>
<path fill="none" stroke="midnightblue" d="M157.99,-60.92C169.14,-51.58 183.36,-39.66 194.27,-30.52"/>
<polygon fill="midnightblue" stroke="midnightblue" points="155.59,-58.37 150.17,-67.48 160.09,-63.73 155.59,-58.37"/>
</g>
</g>
</svg>
