<?xml version="1.0" encoding="UTF-8" standalone="no"?>
<!DOCTYPE svg PUBLIC "-//W3C//DTD SVG 1.1//EN"
 "http://www.w3.org/Graphics/SVG/1.1/DTD/svg11.dtd">
<!-- Generated by graphviz version 2.43.0 (0)
 -->
<!-- Title: llvm::coverage::LineCoverageIterator Pages: 1 -->
<svg width="855pt" height="144pt"
 viewBox="0.00 0.00 855.00 143.50" xmlns="http://www.w3.org/2000/svg" xmlns:xlink="http://www.w3.org/1999/xlink">
<g id="graph0" class="graph" transform="scale(1 1) rotate(0) translate(4 139.5)">
<title>llvm::coverage::LineCoverageIterator</title>
<!-- Node5 -->
<g id="node1" class="node">
<title>Node5</title>
<polygon fill="#bfbfbf" stroke="black" points="701,-50.5 701,-80.5 847,-80.5 847,-50.5 701,-50.5"/>
<text text-anchor="start" x="709" y="-68.5" font-family="Helvetica,sans-Serif" font-size="10.00">llvm::coverage::LineCoverage</text>
<text text-anchor="middle" x="774" y="-57.5" font-family="Helvetica,sans-Serif" font-size="10.00">Iterator</text>
</g>
<!-- Node6 -->
<g id="node2" class="node">
<title>Node6</title>
<g id="a_node2"><a xlink:href="classllvm_1_1iterator__facade__base.html" target="_top" xlink:title="llvm::iterator_facade\l_base\&lt; LineCoverageIterator,\l std::forward_iterator_tag,\l LineCoverageStats \&gt;">
<polygon fill="none" stroke="black" points="518,-39.5 518,-91.5 664,-91.5 664,-39.5 518,-39.5"/>
<text text-anchor="start" x="526" y="-79.5" font-family="Helvetica,sans-Serif" font-size="10.00">llvm::iterator_facade</text>
<text text-anchor="start" x="526" y="-68.5" font-family="Helvetica,sans-Serif" font-size="10.00">_base&lt; LineCoverageIterator,</text>
<text text-anchor="start" x="526" y="-57.5" font-family="Helvetica,sans-Serif" font-size="10.00"> std::forward_iterator_tag,</text>
<text text-anchor="middle" x="591" y="-46.5" font-family="Helvetica,sans-Serif" font-size="10.00"> LineCoverageStats &gt;</text>
</a>
</g>
</g>
<!-- Node6&#45;&gt;Node5 -->
<g id="edge1" class="edge">
<title>Node6&#45;&gt;Node5</title>
<path fill="none" stroke="midnightblue" d="M674.09,-65.5C683.03,-65.5 692.09,-65.5 700.9,-65.5"/>
<polygon fill="midnightblue" stroke="midnightblue" points="674.06,-62 664.06,-65.5 674.06,-69 674.06,-62"/>
</g>
<!-- Node7 -->
<g id="node3" class="node">
<title>Node7</title>
<polygon fill="none" stroke="#bfbfbf" points="207.5,-72 207.5,-135 352.5,-135 352.5,-72 207.5,-72"/>
<text text-anchor="start" x="215.5" y="-123" font-family="Helvetica,sans-Serif" font-size="10.00">std::iterator&lt; std</text>
<text text-anchor="start" x="215.5" y="-112" font-family="Helvetica,sans-Serif" font-size="10.00">::forward_iterator_tag,</text>
<text text-anchor="start" x="215.5" y="-101" font-family="Helvetica,sans-Serif" font-size="10.00"> LineCoverageStats, std</text>
<text text-anchor="start" x="215.5" y="-90" font-family="Helvetica,sans-Serif" font-size="10.00">::ptrdiff_t, LineCoverageStats</text>
<text text-anchor="middle" x="280" y="-79" font-family="Helvetica,sans-Serif" font-size="10.00"> *, LineCoverageStats &amp; &gt;</text>
</g>
<!-- Node7&#45;&gt;Node6 -->
<g id="edge2" class="edge">
<title>Node7&#45;&gt;Node6</title>
<path fill="none" stroke="midnightblue" d="M362.57,-94.77C403.8,-90.21 454.6,-84.37 500,-78.5 505.79,-77.75 511.79,-76.95 517.82,-76.12"/>
<polygon fill="midnightblue" stroke="midnightblue" points="362.13,-91.3 352.57,-95.87 362.9,-98.26 362.13,-91.3"/>
</g>
<!-- Node8 -->
<g id="node4" class="node">
<title>Node8</title>
<g id="a_node4"><a xlink:href="classllvm_1_1iterator__facade__base.html" target="_top" xlink:title="CRTP base class which implements the entire standard iterator facade in terms of a minimal subset of ...">
<polygon fill="none" stroke="black" points="196,-0.5 196,-52.5 364,-52.5 364,-0.5 196,-0.5"/>
<text text-anchor="start" x="204" y="-40.5" font-family="Helvetica,sans-Serif" font-size="10.00">llvm::iterator_facade</text>
<text text-anchor="start" x="204" y="-29.5" font-family="Helvetica,sans-Serif" font-size="10.00">_base&lt; DerivedT, IteratorCategory</text>
<text text-anchor="start" x="204" y="-18.5" font-family="Helvetica,sans-Serif" font-size="10.00">T, T, DifferenceTypeT, PointerT,</text>
<text text-anchor="middle" x="280" y="-7.5" font-family="Helvetica,sans-Serif" font-size="10.00"> ReferenceT &gt;</text>
</a>
</g>
</g>
<!-- Node8&#45;&gt;Node6 -->
<g id="edge3" class="edge">
<title>Node8&#45;&gt;Node6</title>
<path fill="none" stroke="orange" stroke-dasharray="5,2" d="M374.4,-28.94C413.42,-30.98 459.1,-34.71 500,-41.5 505.74,-42.45 511.65,-43.61 517.56,-44.9"/>
<polygon fill="orange" stroke="orange" points="374.27,-25.43 364.11,-28.43 373.93,-32.42 374.27,-25.43"/>
<text text-anchor="start" x="382" y="-66.5" font-family="Helvetica,sans-Serif" font-size="10.00"> &lt; LineCoverageIterator,</text>
<text text-anchor="start" x="382" y="-55.5" font-family="Helvetica,sans-Serif" font-size="10.00"> std::forward_iterator</text>
<text text-anchor="middle" x="441" y="-44.5" font-family="Helvetica,sans-Serif" font-size="10.00">_tag, LineCoverageStats &gt;</text>
</g>
<!-- Node9 -->
<g id="node5" class="node">
<title>Node9</title>
<polygon fill="none" stroke="#bfbfbf" points="0,-6 0,-47 159,-47 159,-6 0,-6"/>
<text text-anchor="start" x="8" y="-35" font-family="Helvetica,sans-Serif" font-size="10.00">std::iterator&lt; IteratorCategory</text>
<text text-anchor="start" x="8" y="-24" font-family="Helvetica,sans-Serif" font-size="10.00">T, T, DifferenceTypeT, PointerT,</text>
<text text-anchor="middle" x="79.5" y="-13" font-family="Helvetica,sans-Serif" font-size="10.00"> ReferenceT &gt;</text>
</g>
<!-- Node9&#45;&gt;Node8 -->
<g id="edge4" class="edge">
<title>Node9&#45;&gt;Node8</title>
<path fill="none" stroke="midnightblue" d="M169.46,-26.5C178.22,-26.5 187.09,-26.5 195.79,-26.5"/>
<polygon fill="midnightblue" stroke="midnightblue" points="169.24,-23 159.24,-26.5 169.24,-30 169.24,-23"/>
</g>
</g>
</svg>
