<?xml version="1.0" encoding="UTF-8" standalone="no"?>
<!DOCTYPE svg PUBLIC "-//W3C//DTD SVG 1.1//EN"
 "http://www.w3.org/Graphics/SVG/1.1/DTD/svg11.dtd">
<!-- Generated by graphviz version 2.43.0 (0)
 -->
<!-- Title: llvm::codeview::StringListRecord Pages: 1 -->
<svg width="286pt" height="184pt"
 viewBox="0.00 0.00 285.50 184.00" xmlns="http://www.w3.org/2000/svg" xmlns:xlink="http://www.w3.org/1999/xlink">
<g id="graph0" class="graph" transform="scale(1 1) rotate(0) translate(4 180)">
<title>llvm::codeview::StringListRecord</title>
<!-- Node2 -->
<g id="node1" class="node">
<title>Node2</title>
<polygon fill="#bfbfbf" stroke="black" points="80,-0.5 80,-30.5 209,-30.5 209,-0.5 80,-0.5"/>
<text text-anchor="start" x="88" y="-18.5" font-family="Helvetica,sans-Serif" font-size="10.00">llvm::codeview::StringList</text>
<text text-anchor="middle" x="144.5" y="-7.5" font-family="Helvetica,sans-Serif" font-size="10.00">Record</text>
</g>
<!-- Node3 -->
<g id="node2" class="node">
<title>Node3</title>
<g id="a_node2"><a xlink:href="classllvm_1_1codeview_1_1TypeRecord.html" target="_top" xlink:title="llvm::codeview::TypeRecord">
<polygon fill="none" stroke="black" points="0,-84 0,-103 141,-103 141,-84 0,-84"/>
<text text-anchor="middle" x="70.5" y="-91" font-family="Helvetica,sans-Serif" font-size="10.00">llvm::codeview::TypeRecord</text>
</a>
</g>
</g>
<!-- Node3&#45;&gt;Node2 -->
<g id="edge1" class="edge">
<title>Node3&#45;&gt;Node2</title>
<path fill="none" stroke="midnightblue" d="M86.06,-76.52C99.31,-62.91 118.17,-43.54 130.85,-30.52"/>
<polygon fill="midnightblue" stroke="midnightblue" points="83.46,-74.18 78.99,-83.78 88.47,-79.06 83.46,-74.18"/>
</g>
<!-- Node4 -->
<g id="node3" class="node">
<title>Node4</title>
<polygon fill="none" stroke="#bfbfbf" points="26,-156.5 26,-175.5 115,-175.5 115,-156.5 26,-156.5"/>
<text text-anchor="middle" x="70.5" y="-163.5" font-family="Helvetica,sans-Serif" font-size="10.00">TypeRecordKind</text>
</g>
<!-- Node4&#45;&gt;Node3 -->
<g id="edge2" class="edge">
<title>Node4&#45;&gt;Node3</title>
<path fill="none" stroke="#9a32cd" stroke-dasharray="5,2" d="M70.5,-145.94C70.5,-132.03 70.5,-113.82 70.5,-103.22"/>
<polygon fill="#9a32cd" stroke="#9a32cd" points="67,-146.36 70.5,-156.36 74,-146.36 67,-146.36"/>
<text text-anchor="middle" x="82" y="-130" font-family="Helvetica,sans-Serif" font-size="10.00"> Kind</text>
</g>
<!-- Node5 -->
<g id="node4" class="node">
<title>Node5</title>
<polygon fill="none" stroke="#bfbfbf" points="159.5,-78.5 159.5,-108.5 277.5,-108.5 277.5,-78.5 159.5,-78.5"/>
<text text-anchor="start" x="167.5" y="-96.5" font-family="Helvetica,sans-Serif" font-size="10.00">vector&lt; llvm::codeview</text>
<text text-anchor="middle" x="218.5" y="-85.5" font-family="Helvetica,sans-Serif" font-size="10.00">::TypeIndex &gt;</text>
</g>
<!-- Node5&#45;&gt;Node2 -->
<g id="edge3" class="edge">
<title>Node5&#45;&gt;Node2</title>
<path fill="none" stroke="#9a32cd" stroke-dasharray="5,2" d="M197.6,-71.03C185.04,-58.13 169.4,-42.07 158.36,-30.73"/>
<polygon fill="#9a32cd" stroke="#9a32cd" points="195.1,-73.48 204.58,-78.2 200.11,-68.6 195.1,-73.48"/>
<text text-anchor="middle" x="216" y="-52" font-family="Helvetica,sans-Serif" font-size="10.00"> StringIndices</text>
</g>
</g>
</svg>
