<?xml version="1.0" encoding="UTF-8" standalone="no"?>
<!DOCTYPE svg PUBLIC "-//W3C//DTD SVG 1.1//EN"
 "http://www.w3.org/Graphics/SVG/1.1/DTD/svg11.dtd">
<!-- Generated by graphviz version 2.43.0 (0)
 -->
<!-- Title: llvm::SmallSet&lt; T, N, C &gt; Pages: 1 -->
<svg width="414pt" height="347pt"
 viewBox="0.00 0.00 414.00 346.50" xmlns="http://www.w3.org/2000/svg" xmlns:xlink="http://www.w3.org/1999/xlink">
<g id="graph0" class="graph" transform="scale(1 1) rotate(0) translate(4 342.5)">
<title>llvm::SmallSet&lt; T, N, C &gt;</title>
<!-- Node0 -->
<g id="node1" class="node">
<title>Node0</title>
<polygon fill="#bfbfbf" stroke="black" points="0,-156.5 0,-186.5 98,-186.5 98,-156.5 0,-156.5"/>
<text text-anchor="start" x="8" y="-174.5" font-family="Helvetica,sans-Serif" font-size="10.00">llvm::SmallSet&lt; T,</text>
<text text-anchor="middle" x="49" y="-163.5" font-family="Helvetica,sans-Serif" font-size="10.00"> N, C &gt;</text>
</g>
<!-- Node1 -->
<g id="node2" class="node">
<title>Node1</title>
<g id="a_node2"><a xlink:href="classllvm_1_1SmallSet.html" target="_top" xlink:title="llvm::SmallSet\&lt; llvm\l::AssertingVH\&lt; llvm::\lMemoryPhi \&gt;, 8 \&gt;">
<polygon fill="none" stroke="black" points="276,-297 276,-338 387,-338 387,-297 276,-297"/>
<text text-anchor="start" x="284" y="-326" font-family="Helvetica,sans-Serif" font-size="10.00">llvm::SmallSet&lt; llvm</text>
<text text-anchor="start" x="284" y="-315" font-family="Helvetica,sans-Serif" font-size="10.00">::AssertingVH&lt; llvm::</text>
<text text-anchor="middle" x="331.5" y="-304" font-family="Helvetica,sans-Serif" font-size="10.00">MemoryPhi &gt;, 8 &gt;</text>
</a>
</g>
</g>
<!-- Node0&#45;&gt;Node1 -->
<g id="edge1" class="edge">
<title>Node0&#45;&gt;Node1</title>
<path fill="none" stroke="orange" stroke-dasharray="5,2" d="M59.35,-195.81C69.64,-219.19 88.46,-253.68 116,-272.5 163.44,-304.91 229.54,-314.75 275.79,-317.36"/>
<polygon fill="orange" stroke="orange" points="62.56,-194.41 55.47,-186.55 56.11,-197.12 62.56,-194.41"/>
<text text-anchor="start" x="121.5" y="-327.5" font-family="Helvetica,sans-Serif" font-size="10.00"> &lt; llvm::AssertingVH</text>
<text text-anchor="middle" x="177.5" y="-316.5" font-family="Helvetica,sans-Serif" font-size="10.00">&lt; llvm::MemoryPhi &gt;, 8 &gt;</text>
</g>
<!-- Node2 -->
<g id="node3" class="node">
<title>Node2</title>
<g id="a_node3"><a xlink:href="classllvm_1_1SmallSet.html" target="_top" xlink:title="llvm::SmallSet\&lt; llvm\l::AssertingVH\&lt; llvm::\lFunction \&gt;, 20 \&gt;">
<polygon fill="none" stroke="black" points="276,-237 276,-278 387,-278 387,-237 276,-237"/>
<text text-anchor="start" x="284" y="-266" font-family="Helvetica,sans-Serif" font-size="10.00">llvm::SmallSet&lt; llvm</text>
<text text-anchor="start" x="284" y="-255" font-family="Helvetica,sans-Serif" font-size="10.00">::AssertingVH&lt; llvm::</text>
<text text-anchor="middle" x="331.5" y="-244" font-family="Helvetica,sans-Serif" font-size="10.00">Function &gt;, 20 &gt;</text>
</a>
</g>
</g>
<!-- Node0&#45;&gt;Node2 -->
<g id="edge2" class="edge">
<title>Node0&#45;&gt;Node2</title>
<path fill="none" stroke="orange" stroke-dasharray="5,2" d="M76.51,-192.67C88.05,-200.93 102.1,-209.77 116,-215.5 167.93,-236.89 231.51,-247.58 275.91,-252.8"/>
<polygon fill="orange" stroke="orange" points="78.34,-189.67 68.22,-186.53 74.17,-195.29 78.34,-189.67"/>
<text text-anchor="start" x="124.5" y="-260.5" font-family="Helvetica,sans-Serif" font-size="10.00"> &lt; llvm::AssertingVH</text>
<text text-anchor="middle" x="177.5" y="-249.5" font-family="Helvetica,sans-Serif" font-size="10.00">&lt; llvm::Function &gt;, 20 &gt;</text>
</g>
<!-- Node3 -->
<g id="node4" class="node">
<title>Node3</title>
<g id="a_node4"><a xlink:href="classllvm_1_1SmallSet.html" target="_top" xlink:title="llvm::SmallSet\&lt; unsigned, 8 \&gt;">
<polygon fill="none" stroke="black" points="257,-199 257,-218 406,-218 406,-199 257,-199"/>
<text text-anchor="middle" x="331.5" y="-206" font-family="Helvetica,sans-Serif" font-size="10.00">llvm::SmallSet&lt; unsigned, 8 &gt;</text>
</a>
</g>
</g>
<!-- Node0&#45;&gt;Node3 -->
<g id="edge3" class="edge">
<title>Node0&#45;&gt;Node3</title>
<path fill="none" stroke="orange" stroke-dasharray="5,2" d="M108.29,-184.2C110.89,-184.66 113.47,-185.1 116,-185.5 162.6,-192.92 215.29,-198.61 256.79,-202.47"/>
<polygon fill="orange" stroke="orange" points="108.67,-180.71 98.2,-182.32 107.38,-187.59 108.67,-180.71"/>
<text text-anchor="middle" x="177.5" y="-203.5" font-family="Helvetica,sans-Serif" font-size="10.00"> &lt; unsigned, 8 &gt;</text>
</g>
<!-- Node4 -->
<g id="node5" class="node">
<title>Node4</title>
<g id="a_node5"><a xlink:href="classllvm_1_1SmallSet.html" target="_top" xlink:title="llvm::SmallSet\&lt; unsigned, 2 \&gt;">
<polygon fill="none" stroke="black" points="257,-161 257,-180 406,-180 406,-161 257,-161"/>
<text text-anchor="middle" x="331.5" y="-168" font-family="Helvetica,sans-Serif" font-size="10.00">llvm::SmallSet&lt; unsigned, 2 &gt;</text>
</a>
</g>
</g>
<!-- Node0&#45;&gt;Node4 -->
<g id="edge4" class="edge">
<title>Node0&#45;&gt;Node4</title>
<path fill="none" stroke="orange" stroke-dasharray="5,2" d="M108.27,-171.29C151.39,-171.14 210.46,-170.93 256.85,-170.76"/>
<polygon fill="orange" stroke="orange" points="108.21,-167.79 98.22,-171.33 108.23,-174.79 108.21,-167.79"/>
<text text-anchor="middle" x="177.5" y="-173.5" font-family="Helvetica,sans-Serif" font-size="10.00"> &lt; unsigned, 2 &gt;</text>
</g>
<!-- Node5 -->
<g id="node6" class="node">
<title>Node5</title>
<g id="a_node6"><a xlink:href="classllvm_1_1SmallSet.html" target="_top" xlink:title="llvm::SmallSet\&lt; llvm\l::MachineBasicBlock *, 32 \&gt;">
<polygon fill="none" stroke="black" points="261,-111.5 261,-141.5 402,-141.5 402,-111.5 261,-111.5"/>
<text text-anchor="start" x="269" y="-129.5" font-family="Helvetica,sans-Serif" font-size="10.00">llvm::SmallSet&lt; llvm</text>
<text text-anchor="middle" x="331.5" y="-118.5" font-family="Helvetica,sans-Serif" font-size="10.00">::MachineBasicBlock *, 32 &gt;</text>
</a>
</g>
</g>
<!-- Node0&#45;&gt;Node5 -->
<g id="edge5" class="edge">
<title>Node0&#45;&gt;Node5</title>
<path fill="none" stroke="orange" stroke-dasharray="5,2" d="M90.65,-152.62C98.89,-149.44 107.61,-146.52 116,-144.5 163.42,-133.1 218.23,-128.64 260.58,-127.01"/>
<polygon fill="orange" stroke="orange" points="89.19,-149.44 81.24,-156.44 91.82,-155.92 89.19,-149.44"/>
<text text-anchor="start" x="116" y="-158.5" font-family="Helvetica,sans-Serif" font-size="10.00"> &lt; llvm::MachineBasicBlock</text>
<text text-anchor="middle" x="177.5" y="-147.5" font-family="Helvetica,sans-Serif" font-size="10.00"> *, 32 &gt;</text>
</g>
<!-- Node6 -->
<g id="node7" class="node">
<title>Node6</title>
<g id="a_node7"><a xlink:href="classllvm_1_1SmallSet.html" target="_top" xlink:title="llvm::SmallSet\&lt; llvm\l::AssertingVH\&lt; const\l llvm::BasicBlock \&gt;, 16 \&gt;">
<polygon fill="none" stroke="black" points="267.5,-50 267.5,-91 395.5,-91 395.5,-50 267.5,-50"/>
<text text-anchor="start" x="275.5" y="-79" font-family="Helvetica,sans-Serif" font-size="10.00">llvm::SmallSet&lt; llvm</text>
<text text-anchor="start" x="275.5" y="-68" font-family="Helvetica,sans-Serif" font-size="10.00">::AssertingVH&lt; const</text>
<text text-anchor="middle" x="331.5" y="-57" font-family="Helvetica,sans-Serif" font-size="10.00"> llvm::BasicBlock &gt;, 16 &gt;</text>
</a>
</g>
</g>
<!-- Node0&#45;&gt;Node6 -->
<g id="edge6" class="edge">
<title>Node0&#45;&gt;Node6</title>
<path fill="none" stroke="orange" stroke-dasharray="5,2" d="M62.33,-147.75C73.58,-128.75 92.07,-103.27 116,-90.5 162.36,-65.77 222.45,-62.16 267.22,-63.94"/>
<polygon fill="orange" stroke="orange" points="59.28,-146.04 57.4,-156.46 65.37,-149.48 59.28,-146.04"/>
<text text-anchor="start" x="122.5" y="-115.5" font-family="Helvetica,sans-Serif" font-size="10.00"> &lt; llvm::AssertingVH</text>
<text text-anchor="start" x="122.5" y="-104.5" font-family="Helvetica,sans-Serif" font-size="10.00">&lt; const llvm::BasicBlock</text>
<text text-anchor="middle" x="177.5" y="-93.5" font-family="Helvetica,sans-Serif" font-size="10.00"> &gt;, 16 &gt;</text>
</g>
<!-- Node7 -->
<g id="node8" class="node">
<title>Node7</title>
<g id="a_node8"><a xlink:href="classllvm_1_1SmallSet.html" target="_top" xlink:title="llvm::SmallSet\&lt; unsigned,\l 16 \&gt;">
<polygon fill="none" stroke="black" points="266,-0.5 266,-30.5 397,-30.5 397,-0.5 266,-0.5"/>
<text text-anchor="start" x="274" y="-18.5" font-family="Helvetica,sans-Serif" font-size="10.00">llvm::SmallSet&lt; unsigned,</text>
<text text-anchor="middle" x="331.5" y="-7.5" font-family="Helvetica,sans-Serif" font-size="10.00"> 16 &gt;</text>
</a>
</g>
</g>
<!-- Node0&#45;&gt;Node7 -->
<g id="edge7" class="edge">
<title>Node0&#45;&gt;Node7</title>
<path fill="none" stroke="orange" stroke-dasharray="5,2" d="M56.07,-146.84C64.46,-118.3 82.52,-72.18 116,-48.5 159.38,-17.83 220.04,-10.93 265.79,-10.93"/>
<polygon fill="orange" stroke="orange" points="52.69,-145.92 53.4,-156.49 59.44,-147.78 52.69,-145.92"/>
<text text-anchor="middle" x="177.5" y="-51.5" font-family="Helvetica,sans-Serif" font-size="10.00"> &lt; unsigned, 16 &gt;</text>
</g>
</g>
</svg>
