<?xml version="1.0" encoding="UTF-8" standalone="no"?>
<!DOCTYPE svg PUBLIC "-//W3C//DTD SVG 1.1//EN"
 "http://www.w3.org/Graphics/SVG/1.1/DTD/svg11.dtd">
<!-- Generated by graphviz version 2.43.0 (0)
 -->
<!-- Title: llvm::DICompositeType Pages: 1 -->
<svg width="128pt" height="308pt"
 viewBox="0.00 0.00 128.00 308.00" xmlns="http://www.w3.org/2000/svg" xmlns:xlink="http://www.w3.org/1999/xlink">
<g id="graph0" class="graph" transform="scale(1 1) rotate(0) translate(4 304)">
<title>llvm::DICompositeType</title>
<!-- Node0 -->
<g id="node1" class="node">
<title>Node0</title>
<polygon fill="#bfbfbf" stroke="black" points="0,-0.5 0,-19.5 120,-19.5 120,-0.5 0,-0.5"/>
<text text-anchor="middle" x="60" y="-7.5" font-family="Helvetica,sans-Serif" font-size="10.00">llvm::DICompositeType</text>
</g>
<!-- Node1 -->
<g id="node2" class="node">
<title>Node1</title>
<g id="a_node2"><a xlink:href="classllvm_1_1DIType.html" target="_top" xlink:title="Base class for types. ">
<polygon fill="none" stroke="black" points="23.5,-56.5 23.5,-75.5 96.5,-75.5 96.5,-56.5 23.5,-56.5"/>
<text text-anchor="middle" x="60" y="-63.5" font-family="Helvetica,sans-Serif" font-size="10.00">llvm::DIType</text>
</a>
</g>
</g>
<!-- Node1&#45;&gt;Node0 -->
<g id="edge1" class="edge">
<title>Node1&#45;&gt;Node0</title>
<path fill="none" stroke="midnightblue" d="M60,-45.8C60,-36.91 60,-26.78 60,-19.75"/>
<polygon fill="midnightblue" stroke="midnightblue" points="56.5,-46.08 60,-56.08 63.5,-46.08 56.5,-46.08"/>
</g>
<!-- Node2 -->
<g id="node3" class="node">
<title>Node2</title>
<g id="a_node3"><a xlink:href="classllvm_1_1DIScope.html" target="_top" xlink:title="Base class for scope&#45;like contexts. ">
<polygon fill="none" stroke="black" points="20.5,-112.5 20.5,-131.5 99.5,-131.5 99.5,-112.5 20.5,-112.5"/>
<text text-anchor="middle" x="60" y="-119.5" font-family="Helvetica,sans-Serif" font-size="10.00">llvm::DIScope</text>
</a>
</g>
</g>
<!-- Node2&#45;&gt;Node1 -->
<g id="edge2" class="edge">
<title>Node2&#45;&gt;Node1</title>
<path fill="none" stroke="midnightblue" d="M60,-101.8C60,-92.91 60,-82.78 60,-75.75"/>
<polygon fill="midnightblue" stroke="midnightblue" points="56.5,-102.08 60,-112.08 63.5,-102.08 56.5,-102.08"/>
</g>
<!-- Node3 -->
<g id="node4" class="node">
<title>Node3</title>
<g id="a_node4"><a xlink:href="classllvm_1_1DINode.html" target="_top" xlink:title="Tagged DWARF&#45;like metadata node. ">
<polygon fill="none" stroke="black" points="23,-168.5 23,-187.5 97,-187.5 97,-168.5 23,-168.5"/>
<text text-anchor="middle" x="60" y="-175.5" font-family="Helvetica,sans-Serif" font-size="10.00">llvm::DINode</text>
</a>
</g>
</g>
<!-- Node3&#45;&gt;Node2 -->
<g id="edge3" class="edge">
<title>Node3&#45;&gt;Node2</title>
<path fill="none" stroke="midnightblue" d="M60,-157.8C60,-148.91 60,-138.78 60,-131.75"/>
<polygon fill="midnightblue" stroke="midnightblue" points="56.5,-158.08 60,-168.08 63.5,-158.08 56.5,-158.08"/>
</g>
<!-- Node4 -->
<g id="node5" class="node">
<title>Node4</title>
<g id="a_node5"><a xlink:href="classllvm_1_1MDNode.html" target="_top" xlink:title="Metadata node. ">
<polygon fill="none" stroke="black" points="20,-224.5 20,-243.5 100,-243.5 100,-224.5 20,-224.5"/>
<text text-anchor="middle" x="60" y="-231.5" font-family="Helvetica,sans-Serif" font-size="10.00">llvm::MDNode</text>
</a>
</g>
</g>
<!-- Node4&#45;&gt;Node3 -->
<g id="edge4" class="edge">
<title>Node4&#45;&gt;Node3</title>
<path fill="none" stroke="midnightblue" d="M60,-213.8C60,-204.91 60,-194.78 60,-187.75"/>
<polygon fill="midnightblue" stroke="midnightblue" points="56.5,-214.08 60,-224.08 63.5,-214.08 56.5,-214.08"/>
</g>
<!-- Node5 -->
<g id="node6" class="node">
<title>Node5</title>
<g id="a_node6"><a xlink:href="classllvm_1_1Metadata.html" target="_top" xlink:title="Root of the metadata hierarchy. ">
<polygon fill="none" stroke="black" points="19.5,-280.5 19.5,-299.5 100.5,-299.5 100.5,-280.5 19.5,-280.5"/>
<text text-anchor="middle" x="60" y="-287.5" font-family="Helvetica,sans-Serif" font-size="10.00">llvm::Metadata</text>
</a>
</g>
</g>
<!-- Node5&#45;&gt;Node4 -->
<g id="edge5" class="edge">
<title>Node5&#45;&gt;Node4</title>
<path fill="none" stroke="midnightblue" d="M60,-269.8C60,-260.91 60,-250.78 60,-243.75"/>
<polygon fill="midnightblue" stroke="midnightblue" points="56.5,-270.08 60,-280.08 63.5,-270.08 56.5,-270.08"/>
</g>
</g>
</svg>
