<?xml version="1.0" encoding="UTF-8" standalone="no"?>
<!DOCTYPE svg PUBLIC "-//W3C//DTD SVG 1.1//EN"
 "http://www.w3.org/Graphics/SVG/1.1/DTD/svg11.dtd">
<!-- Generated by graphviz version 2.43.0 (0)
 -->
<!-- Title: llvm::orc::rpc::detail::ResponseHandler&lt; ChannelT &gt; Pages: 1 -->
<svg width="372pt" height="242pt"
 viewBox="0.00 0.00 372.00 242.00" xmlns="http://www.w3.org/2000/svg" xmlns:xlink="http://www.w3.org/1999/xlink">
<g id="graph0" class="graph" transform="scale(1 1) rotate(0) translate(4 238)">
<title>llvm::orc::rpc::detail::ResponseHandler&lt; ChannelT &gt;</title>
<!-- Node0 -->
<g id="node1" class="node">
<title>Node0</title>
<polygon fill="#bfbfbf" stroke="black" points="0,-105 0,-135 161,-135 161,-105 0,-105"/>
<text text-anchor="start" x="8" y="-123" font-family="Helvetica,sans-Serif" font-size="10.00">llvm::orc::rpc::detail</text>
<text text-anchor="middle" x="80.5" y="-112" font-family="Helvetica,sans-Serif" font-size="10.00">::ResponseHandler&lt; ChannelT &gt;</text>
</g>
<!-- Node1 -->
<g id="node2" class="node">
<title>Node1</title>
<g id="a_node2"><a xlink:href="classllvm_1_1orc_1_1rpc_1_1detail_1_1ResponseHandlerImpl.html" target="_top" xlink:title="llvm::orc::rpc::detail\l::ResponseHandlerImpl\l\&lt; ChannelT \&gt;">
<polygon fill="none" stroke="black" points="221,-192.5 221,-233.5 340,-233.5 340,-192.5 221,-192.5"/>
<text text-anchor="start" x="229" y="-221.5" font-family="Helvetica,sans-Serif" font-size="10.00">llvm::orc::rpc::detail</text>
<text text-anchor="start" x="229" y="-210.5" font-family="Helvetica,sans-Serif" font-size="10.00">::ResponseHandlerImpl</text>
<text text-anchor="middle" x="280.5" y="-199.5" font-family="Helvetica,sans-Serif" font-size="10.00">&lt; ChannelT &gt;</text>
</a>
</g>
</g>
<!-- Node0&#45;&gt;Node1 -->
<g id="edge1" class="edge">
<title>Node0&#45;&gt;Node1</title>
<path fill="none" stroke="midnightblue" d="M115.5,-140.31C138.15,-153.4 168.82,-170.28 197,-183 204.64,-186.45 212.8,-189.8 220.92,-192.94"/>
<polygon fill="midnightblue" stroke="midnightblue" points="117.03,-137.15 106.63,-135.14 113.51,-143.2 117.03,-137.15"/>
</g>
<!-- Node2 -->
<g id="node3" class="node">
<title>Node2</title>
<g id="a_node3"><a xlink:href="classllvm_1_1orc_1_1rpc_1_1detail_1_1ResponseHandlerImpl_3_01ChannelT_00_01Error_00_01HandlerT_01_4.html" target="_top" xlink:title="llvm::orc::rpc::detail\l::ResponseHandlerImpl\l\&lt; ChannelT, Error, HandlerT \&gt;">
<polygon fill="none" stroke="black" points="206,-132.5 206,-173.5 355,-173.5 355,-132.5 206,-132.5"/>
<text text-anchor="start" x="214" y="-161.5" font-family="Helvetica,sans-Serif" font-size="10.00">llvm::orc::rpc::detail</text>
<text text-anchor="start" x="214" y="-150.5" font-family="Helvetica,sans-Serif" font-size="10.00">::ResponseHandlerImpl</text>
<text text-anchor="middle" x="280.5" y="-139.5" font-family="Helvetica,sans-Serif" font-size="10.00">&lt; ChannelT, Error, HandlerT &gt;</text>
</a>
</g>
</g>
<!-- Node0&#45;&gt;Node2 -->
<g id="edge2" class="edge">
<title>Node0&#45;&gt;Node2</title>
<path fill="none" stroke="midnightblue" d="M171.26,-134.96C182.8,-136.88 194.51,-138.83 205.75,-140.71"/>
<polygon fill="midnightblue" stroke="midnightblue" points="171.62,-131.47 161.18,-133.28 170.47,-138.38 171.62,-131.47"/>
</g>
<!-- Node3 -->
<g id="node4" class="node">
<title>Node3</title>
<g id="a_node4"><a xlink:href="classllvm_1_1orc_1_1rpc_1_1detail_1_1ResponseHandlerImpl_3_01ChannelT_00_01Expected_3_01FuncRetT_01_4_00_01HandlerT_01_4.html" target="_top" xlink:title="llvm::orc::rpc::detail\l::ResponseHandlerImpl\l\&lt; ChannelT, Expected\&lt; FuncRetT\l \&gt;, HandlerT \&gt;">
<polygon fill="none" stroke="black" points="197,-61 197,-113 364,-113 364,-61 197,-61"/>
<text text-anchor="start" x="205" y="-101" font-family="Helvetica,sans-Serif" font-size="10.00">llvm::orc::rpc::detail</text>
<text text-anchor="start" x="205" y="-90" font-family="Helvetica,sans-Serif" font-size="10.00">::ResponseHandlerImpl</text>
<text text-anchor="start" x="205" y="-79" font-family="Helvetica,sans-Serif" font-size="10.00">&lt; ChannelT, Expected&lt; FuncRetT</text>
<text text-anchor="middle" x="280.5" y="-68" font-family="Helvetica,sans-Serif" font-size="10.00"> &gt;, HandlerT &gt;</text>
</a>
</g>
</g>
<!-- Node0&#45;&gt;Node3 -->
<g id="edge3" class="edge">
<title>Node0&#45;&gt;Node3</title>
<path fill="none" stroke="midnightblue" d="M171.13,-105.06C179.67,-103.64 188.29,-102.2 196.75,-100.79"/>
<polygon fill="midnightblue" stroke="midnightblue" points="170.47,-101.62 161.18,-106.72 171.62,-108.53 170.47,-101.62"/>
</g>
<!-- Node4 -->
<g id="node5" class="node">
<title>Node4</title>
<g id="a_node5"><a xlink:href="classllvm_1_1orc_1_1rpc_1_1detail_1_1ResponseHandlerImpl_3_01ChannelT_00_01void_00_01HandlerT_01_4.html" target="_top" xlink:title="llvm::orc::rpc::detail\l::ResponseHandlerImpl\l\&lt; ChannelT, void, HandlerT \&gt;">
<polygon fill="none" stroke="black" points="207.5,-0.5 207.5,-41.5 353.5,-41.5 353.5,-0.5 207.5,-0.5"/>
<text text-anchor="start" x="215.5" y="-29.5" font-family="Helvetica,sans-Serif" font-size="10.00">llvm::orc::rpc::detail</text>
<text text-anchor="start" x="215.5" y="-18.5" font-family="Helvetica,sans-Serif" font-size="10.00">::ResponseHandlerImpl</text>
<text text-anchor="middle" x="280.5" y="-7.5" font-family="Helvetica,sans-Serif" font-size="10.00">&lt; ChannelT, void, HandlerT &gt;</text>
</a>
</g>
</g>
<!-- Node0&#45;&gt;Node4 -->
<g id="edge4" class="edge">
<title>Node0&#45;&gt;Node4</title>
<path fill="none" stroke="midnightblue" d="M112.87,-99.53C135.65,-85.17 167.53,-66.08 197,-52 204.59,-48.37 212.73,-44.87 220.83,-41.61"/>
<polygon fill="midnightblue" stroke="midnightblue" points="110.86,-96.66 104.3,-104.98 114.62,-102.57 110.86,-96.66"/>
</g>
</g>
</svg>
