<?xml version="1.0" encoding="UTF-8" standalone="no"?>
<!DOCTYPE svg PUBLIC "-//W3C//DTD SVG 1.1//EN"
 "http://www.w3.org/Graphics/SVG/1.1/DTD/svg11.dtd">
<!-- Generated by graphviz version 2.43.0 (0)
 -->
<!-- Title: llvm::BinaryStreamError Pages: 1 -->
<svg width="253pt" height="241pt"
 viewBox="0.00 0.00 252.50 241.00" xmlns="http://www.w3.org/2000/svg" xmlns:xlink="http://www.w3.org/1999/xlink">
<g id="graph0" class="graph" transform="scale(1 1) rotate(0) translate(4 237)">
<title>llvm::BinaryStreamError</title>
<!-- Node5 -->
<g id="node1" class="node">
<title>Node5</title>
<polygon fill="#bfbfbf" stroke="black" points="66.5,-0.5 66.5,-19.5 187.5,-19.5 187.5,-0.5 66.5,-0.5"/>
<text text-anchor="middle" x="127" y="-7.5" font-family="Helvetica,sans-Serif" font-size="10.00">llvm::BinaryStreamError</text>
</g>
<!-- Node6 -->
<g id="node2" class="node">
<title>Node6</title>
<g id="a_node2"><a xlink:href="classllvm_1_1ErrorInfo.html" target="_top" xlink:title="llvm::ErrorInfo\&lt; BinaryStream\lError \&gt;">
<polygon fill="none" stroke="black" points="0,-67.5 0,-97.5 146,-97.5 146,-67.5 0,-67.5"/>
<text text-anchor="start" x="8" y="-85.5" font-family="Helvetica,sans-Serif" font-size="10.00">llvm::ErrorInfo&lt; BinaryStream</text>
<text text-anchor="middle" x="73" y="-74.5" font-family="Helvetica,sans-Serif" font-size="10.00">Error &gt;</text>
</a>
</g>
</g>
<!-- Node6&#45;&gt;Node5 -->
<g id="edge1" class="edge">
<title>Node6&#45;&gt;Node5</title>
<path fill="none" stroke="midnightblue" d="M90.23,-59.01C100.4,-45.73 112.71,-29.66 120.19,-19.89"/>
<polygon fill="midnightblue" stroke="midnightblue" points="87.23,-57.17 83.93,-67.23 92.79,-61.42 87.23,-57.17"/>
</g>
<!-- Node7 -->
<g id="node3" class="node">
<title>Node7</title>
<g id="a_node3"><a xlink:href="classllvm_1_1ErrorInfoBase.html" target="_top" xlink:title="Base class for error info classes. ">
<polygon fill="none" stroke="black" points="6.5,-151 6.5,-170 107.5,-170 107.5,-151 6.5,-151"/>
<text text-anchor="middle" x="57" y="-158" font-family="Helvetica,sans-Serif" font-size="10.00">llvm::ErrorInfoBase</text>
</a>
</g>
</g>
<!-- Node7&#45;&gt;Node6 -->
<g id="edge2" class="edge">
<title>Node7&#45;&gt;Node6</title>
<path fill="none" stroke="midnightblue" d="M60.94,-140.78C63.76,-127.4 67.49,-109.69 70.05,-97.52"/>
<polygon fill="midnightblue" stroke="midnightblue" points="57.47,-140.28 58.84,-150.78 64.32,-141.72 57.47,-140.28"/>
</g>
<!-- Node8 -->
<g id="node4" class="node">
<title>Node8</title>
<g id="a_node4"><a xlink:href="classllvm_1_1ErrorInfo.html" target="_top" xlink:title="Base class for user error types. ">
<polygon fill="none" stroke="black" points="125.5,-145.5 125.5,-175.5 244.5,-175.5 244.5,-145.5 125.5,-145.5"/>
<text text-anchor="start" x="133.5" y="-163.5" font-family="Helvetica,sans-Serif" font-size="10.00">llvm::ErrorInfo&lt; ThisErr</text>
<text text-anchor="middle" x="185" y="-152.5" font-family="Helvetica,sans-Serif" font-size="10.00">T, ParentErrT &gt;</text>
</a>
</g>
</g>
<!-- Node8&#45;&gt;Node6 -->
<g id="edge3" class="edge">
<title>Node8&#45;&gt;Node6</title>
<path fill="none" stroke="orange" stroke-dasharray="5,2" d="M155.69,-139.61C136.21,-126.39 111.1,-109.36 93.69,-97.54"/>
<polygon fill="orange" stroke="orange" points="153.96,-142.66 164.2,-145.38 157.89,-136.87 153.96,-142.66"/>
<text text-anchor="middle" x="187" y="-119" font-family="Helvetica,sans-Serif" font-size="10.00"> &lt; BinaryStreamError &gt;</text>
</g>
<!-- Node9 -->
<g id="node5" class="node">
<title>Node9</title>
<g id="a_node5"><a xlink:href="classllvm_1_1ParentErrT.html" target="_top" xlink:title="ParentErrT">
<polygon fill="none" stroke="black" points="153,-213.5 153,-232.5 217,-232.5 217,-213.5 153,-213.5"/>
<text text-anchor="middle" x="185" y="-220.5" font-family="Helvetica,sans-Serif" font-size="10.00">ParentErrT</text>
</a>
</g>
</g>
<!-- Node9&#45;&gt;Node8 -->
<g id="edge4" class="edge">
<title>Node9&#45;&gt;Node8</title>
<path fill="none" stroke="midnightblue" d="M185,-203.22C185,-194.36 185,-183.96 185,-175.76"/>
<polygon fill="midnightblue" stroke="midnightblue" points="181.5,-203.33 185,-213.33 188.5,-203.33 181.5,-203.33"/>
</g>
<!-- Node10 -->
<g id="node6" class="node">
<title>Node10</title>
<g id="a_node6"><a xlink:href="classchar.html" target="_top" xlink:title="char">
<polygon fill="none" stroke="black" points="164.5,-73 164.5,-92 199.5,-92 199.5,-73 164.5,-73"/>
<text text-anchor="middle" x="182" y="-80" font-family="Helvetica,sans-Serif" font-size="10.00">char</text>
</a>
</g>
</g>
<!-- Node10&#45;&gt;Node5 -->
<g id="edge5" class="edge">
<title>Node10&#45;&gt;Node5</title>
<path fill="none" stroke="#9a32cd" stroke-dasharray="5,2" d="M169.05,-64.9C158.01,-50.74 142.57,-30.96 133.8,-19.72"/>
<polygon fill="#9a32cd" stroke="#9a32cd" points="166.35,-67.12 175.26,-72.86 171.86,-62.82 166.35,-67.12"/>
<text text-anchor="middle" x="163" y="-41" font-family="Helvetica,sans-Serif" font-size="10.00"> ID</text>
</g>
</g>
</svg>
