<?xml version="1.0" encoding="UTF-8" standalone="no"?>
<!DOCTYPE svg PUBLIC "-//W3C//DTD SVG 1.1//EN"
 "http://www.w3.org/Graphics/SVG/1.1/DTD/svg11.dtd">
<!-- Generated by graphviz version 2.43.0 (0)
 -->
<!-- Title: llvm::unique_function&lt; FunctionT &gt; Pages: 1 -->
<svg width="490pt" height="88pt"
 viewBox="0.00 0.00 490.00 88.00" xmlns="http://www.w3.org/2000/svg" xmlns:xlink="http://www.w3.org/1999/xlink">
<g id="graph0" class="graph" transform="scale(1 1) rotate(0) translate(4 84)">
<title>llvm::unique_function&lt; FunctionT &gt;</title>
<!-- Node0 -->
<g id="node1" class="node">
<title>Node0</title>
<polygon fill="#bfbfbf" stroke="black" points="0,-24.5 0,-54.5 109,-54.5 109,-24.5 0,-24.5"/>
<text text-anchor="start" x="8" y="-42.5" font-family="Helvetica,sans-Serif" font-size="10.00">llvm::unique_function</text>
<text text-anchor="middle" x="54.5" y="-31.5" font-family="Helvetica,sans-Serif" font-size="10.00">&lt; FunctionT &gt;</text>
</g>
<!-- Node1 -->
<g id="node2" class="node">
<title>Node1</title>
<g id="a_node2"><a xlink:href="classllvm_1_1unique__function.html" target="_top" xlink:title="llvm::unique_function\l\&lt; void(Expected\&lt; SymbolMap \&gt;)\&gt;">
<polygon fill="none" stroke="black" points="311,-49.5 311,-79.5 478,-79.5 478,-49.5 311,-49.5"/>
<text text-anchor="start" x="319" y="-67.5" font-family="Helvetica,sans-Serif" font-size="10.00">llvm::unique_function</text>
<text text-anchor="middle" x="394.5" y="-56.5" font-family="Helvetica,sans-Serif" font-size="10.00">&lt; void(Expected&lt; SymbolMap &gt;)&gt;</text>
</a>
</g>
</g>
<!-- Node0&#45;&gt;Node1 -->
<g id="edge1" class="edge">
<title>Node0&#45;&gt;Node1</title>
<path fill="none" stroke="orange" stroke-dasharray="5,2" d="M119.24,-44.21C173.49,-48.23 251.8,-54.02 310.86,-58.39"/>
<polygon fill="orange" stroke="orange" points="119.29,-40.71 109.06,-43.46 118.77,-47.69 119.29,-40.71"/>
<text text-anchor="middle" x="208" y="-58.5" font-family="Helvetica,sans-Serif" font-size="10.00"> &lt; void(Expected&lt; SymbolMap &gt;)&gt;</text>
</g>
<!-- Node2 -->
<g id="node3" class="node">
<title>Node2</title>
<g id="a_node3"><a xlink:href="classllvm_1_1unique__function.html" target="_top" xlink:title="llvm::unique_function\l\&lt; Expected\&lt; JITTargetAddress \&gt;()\&gt;">
<polygon fill="none" stroke="black" points="307,-0.5 307,-30.5 482,-30.5 482,-0.5 307,-0.5"/>
<text text-anchor="start" x="315" y="-18.5" font-family="Helvetica,sans-Serif" font-size="10.00">llvm::unique_function</text>
<text text-anchor="middle" x="394.5" y="-7.5" font-family="Helvetica,sans-Serif" font-size="10.00">&lt; Expected&lt; JITTargetAddress &gt;()&gt;</text>
</a>
</g>
</g>
<!-- Node0&#45;&gt;Node2 -->
<g id="edge2" class="edge">
<title>Node0&#45;&gt;Node2</title>
<path fill="none" stroke="orange" stroke-dasharray="5,2" d="M119.37,-32.19C121.94,-31.95 124.5,-31.72 127,-31.5 186.92,-26.35 254.56,-22.31 306.7,-19.58"/>
<polygon fill="orange" stroke="orange" points="118.96,-28.71 109.35,-33.17 119.64,-35.68 118.96,-28.71"/>
<text text-anchor="middle" x="208" y="-34.5" font-family="Helvetica,sans-Serif" font-size="10.00"> &lt; Expected&lt; JITTargetAddress &gt;()&gt;</text>
</g>
</g>
</svg>
