<?xml version="1.0" encoding="UTF-8" standalone="no"?>
<!DOCTYPE svg PUBLIC "-//W3C//DTD SVG 1.1//EN"
 "http://www.w3.org/Graphics/SVG/1.1/DTD/svg11.dtd">
<!-- Generated by graphviz version 2.43.0 (0)
 -->
<!-- Title: llvm::SymbolTableList&lt; T &gt; Pages: 1 -->
<svg width="1746pt" height="288pt"
 viewBox="0.00 0.00 1746.00 287.50" xmlns="http://www.w3.org/2000/svg" xmlns:xlink="http://www.w3.org/1999/xlink">
<g id="graph0" class="graph" transform="scale(1 1) rotate(0) translate(4 283.5)">
<title>llvm::SymbolTableList&lt; T &gt;</title>
<!-- Node0 -->
<g id="node1" class="node">
<title>Node0</title>
<polygon fill="#bfbfbf" stroke="black" points="1367,-128 1367,-147 1504,-147 1504,-128 1367,-128"/>
<text text-anchor="middle" x="1435.5" y="-135" font-family="Helvetica,sans-Serif" font-size="10.00">llvm::SymbolTableList&lt; T &gt;</text>
</g>
<!-- Node16 -->
<g id="node17" class="node">
<title>Node16</title>
<g id="a_node17"><a xlink:href="classllvm_1_1SymbolTableList.html" target="_top" xlink:title="llvm::SymbolTableList\l\&lt; GlobalVariable \&gt;">
<polygon fill="none" stroke="black" points="1625,-245.5 1625,-275.5 1738,-275.5 1738,-245.5 1625,-245.5"/>
<text text-anchor="start" x="1633" y="-263.5" font-family="Helvetica,sans-Serif" font-size="10.00">llvm::SymbolTableList</text>
<text text-anchor="middle" x="1681.5" y="-252.5" font-family="Helvetica,sans-Serif" font-size="10.00">&lt; GlobalVariable &gt;</text>
</a>
</g>
</g>
<!-- Node0&#45;&gt;Node16 -->
<g id="edge20" class="edge">
<title>Node0&#45;&gt;Node16</title>
<path fill="none" stroke="orange" stroke-dasharray="5,2" d="M1453.57,-154.33C1469.95,-169.7 1495.97,-192.15 1522,-206.5 1554.33,-224.32 1593.6,-237.75 1624.95,-246.76"/>
<polygon fill="orange" stroke="orange" points="1455.58,-151.41 1445.93,-147.02 1450.74,-156.47 1455.58,-151.41"/>
<text text-anchor="middle" x="1564.5" y="-243.5" font-family="Helvetica,sans-Serif" font-size="10.00"> &lt; GlobalVariable &gt;</text>
</g>
<!-- Node17 -->
<g id="node18" class="node">
<title>Node17</title>
<g id="a_node18"><a xlink:href="classllvm_1_1SymbolTableList.html" target="_top" xlink:title="llvm::SymbolTableList\l\&lt; BasicBlock \&gt;">
<polygon fill="none" stroke="black" points="1625,-196.5 1625,-226.5 1738,-226.5 1738,-196.5 1625,-196.5"/>
<text text-anchor="start" x="1633" y="-214.5" font-family="Helvetica,sans-Serif" font-size="10.00">llvm::SymbolTableList</text>
<text text-anchor="middle" x="1681.5" y="-203.5" font-family="Helvetica,sans-Serif" font-size="10.00">&lt; BasicBlock &gt;</text>
</a>
</g>
</g>
<!-- Node0&#45;&gt;Node17 -->
<g id="edge21" class="edge">
<title>Node0&#45;&gt;Node17</title>
<path fill="none" stroke="orange" stroke-dasharray="5,2" d="M1471.06,-150.77C1486.54,-156.52 1505.08,-163.15 1522,-168.5 1555.84,-179.21 1594.26,-189.67 1624.79,-197.59"/>
<polygon fill="orange" stroke="orange" points="1471.97,-147.37 1461.38,-147.14 1469.51,-153.93 1471.97,-147.37"/>
<text text-anchor="middle" x="1564.5" y="-194.5" font-family="Helvetica,sans-Serif" font-size="10.00"> &lt; BasicBlock &gt;</text>
</g>
<!-- Node18 -->
<g id="node19" class="node">
<title>Node18</title>
<g id="a_node19"><a xlink:href="classllvm_1_1SymbolTableList.html" target="_top" xlink:title="llvm::SymbolTableList\l\&lt; GlobalAlias \&gt;">
<polygon fill="none" stroke="black" points="1625,-147.5 1625,-177.5 1738,-177.5 1738,-147.5 1625,-147.5"/>
<text text-anchor="start" x="1633" y="-165.5" font-family="Helvetica,sans-Serif" font-size="10.00">llvm::SymbolTableList</text>
<text text-anchor="middle" x="1681.5" y="-154.5" font-family="Helvetica,sans-Serif" font-size="10.00">&lt; GlobalAlias &gt;</text>
</a>
</g>
</g>
<!-- Node0&#45;&gt;Node18 -->
<g id="edge22" class="edge">
<title>Node0&#45;&gt;Node18</title>
<path fill="none" stroke="orange" stroke-dasharray="5,2" d="M1514.11,-145.45C1550.04,-149.13 1591.92,-153.42 1624.67,-156.78"/>
<polygon fill="orange" stroke="orange" points="1514.45,-141.97 1504.14,-144.43 1513.73,-148.93 1514.45,-141.97"/>
<text text-anchor="middle" x="1564.5" y="-156.5" font-family="Helvetica,sans-Serif" font-size="10.00"> &lt; GlobalAlias &gt;</text>
</g>
<!-- Node19 -->
<g id="node20" class="node">
<title>Node19</title>
<g id="a_node20"><a xlink:href="classllvm_1_1SymbolTableList.html" target="_top" xlink:title="llvm::SymbolTableList\l\&lt; Function \&gt;">
<polygon fill="none" stroke="black" points="1625,-98.5 1625,-128.5 1738,-128.5 1738,-98.5 1625,-98.5"/>
<text text-anchor="start" x="1633" y="-116.5" font-family="Helvetica,sans-Serif" font-size="10.00">llvm::SymbolTableList</text>
<text text-anchor="middle" x="1681.5" y="-105.5" font-family="Helvetica,sans-Serif" font-size="10.00">&lt; Function &gt;</text>
</a>
</g>
</g>
<!-- Node0&#45;&gt;Node19 -->
<g id="edge23" class="edge">
<title>Node0&#45;&gt;Node19</title>
<path fill="none" stroke="orange" stroke-dasharray="5,2" d="M1514.11,-129.87C1550.04,-126.33 1591.92,-122.21 1624.67,-118.99"/>
<polygon fill="orange" stroke="orange" points="1513.75,-126.38 1504.14,-130.85 1514.44,-133.35 1513.75,-126.38"/>
<text text-anchor="middle" x="1564.5" y="-131.5" font-family="Helvetica,sans-Serif" font-size="10.00"> &lt; Function &gt;</text>
</g>
<!-- Node20 -->
<g id="node21" class="node">
<title>Node20</title>
<g id="a_node21"><a xlink:href="classllvm_1_1SymbolTableList.html" target="_top" xlink:title="llvm::SymbolTableList\l\&lt; GlobalIFunc \&gt;">
<polygon fill="none" stroke="black" points="1625,-49.5 1625,-79.5 1738,-79.5 1738,-49.5 1625,-49.5"/>
<text text-anchor="start" x="1633" y="-67.5" font-family="Helvetica,sans-Serif" font-size="10.00">llvm::SymbolTableList</text>
<text text-anchor="middle" x="1681.5" y="-56.5" font-family="Helvetica,sans-Serif" font-size="10.00">&lt; GlobalIFunc &gt;</text>
</a>
</g>
</g>
<!-- Node0&#45;&gt;Node20 -->
<g id="edge24" class="edge">
<title>Node0&#45;&gt;Node20</title>
<path fill="none" stroke="orange" stroke-dasharray="5,2" d="M1469.2,-124.34C1485.01,-118.21 1504.35,-111.07 1522,-105.5 1555.75,-94.85 1594.16,-84.86 1624.71,-77.41"/>
<polygon fill="orange" stroke="orange" points="1467.89,-121.09 1459.86,-128 1470.45,-127.61 1467.89,-121.09"/>
<text text-anchor="middle" x="1564.5" y="-108.5" font-family="Helvetica,sans-Serif" font-size="10.00"> &lt; GlobalIFunc &gt;</text>
</g>
<!-- Node21 -->
<g id="node22" class="node">
<title>Node21</title>
<g id="a_node22"><a xlink:href="classllvm_1_1SymbolTableList.html" target="_top" xlink:title="llvm::SymbolTableList\l\&lt; Instruction \&gt;">
<polygon fill="none" stroke="black" points="1625,-0.5 1625,-30.5 1738,-30.5 1738,-0.5 1625,-0.5"/>
<text text-anchor="start" x="1633" y="-18.5" font-family="Helvetica,sans-Serif" font-size="10.00">llvm::SymbolTableList</text>
<text text-anchor="middle" x="1681.5" y="-7.5" font-family="Helvetica,sans-Serif" font-size="10.00">&lt; Instruction &gt;</text>
</a>
</g>
</g>
<!-- Node0&#45;&gt;Node21 -->
<g id="edge25" class="edge">
<title>Node0&#45;&gt;Node21</title>
<path fill="none" stroke="orange" stroke-dasharray="5,2" d="M1453.31,-120.51C1469.61,-104.85 1495.69,-81.93 1522,-67.5 1554.25,-49.82 1593.51,-36.88 1624.89,-28.33"/>
<polygon fill="orange" stroke="orange" points="1450.82,-118.04 1446.13,-127.54 1455.72,-123.04 1450.82,-118.04"/>
<text text-anchor="middle" x="1564.5" y="-70.5" font-family="Helvetica,sans-Serif" font-size="10.00"> &lt; Instruction &gt;</text>
</g>
<!-- Node1 -->
<g id="node2" class="node">
<title>Node1</title>
<g id="a_node2"><a xlink:href="classllvm_1_1iplist__impl.html" target="_top" xlink:title="llvm::iplist_impl\&lt;\l simple_ilist\&lt; T \&gt;,\l SymbolTableListTraits\l\&lt; T \&gt; \&gt;">
<polygon fill="none" stroke="black" points="1213,-111.5 1213,-163.5 1330,-163.5 1330,-111.5 1213,-111.5"/>
<text text-anchor="start" x="1221" y="-151.5" font-family="Helvetica,sans-Serif" font-size="10.00">llvm::iplist_impl&lt;</text>
<text text-anchor="start" x="1221" y="-140.5" font-family="Helvetica,sans-Serif" font-size="10.00"> simple_ilist&lt; T &gt;,</text>
<text text-anchor="start" x="1221" y="-129.5" font-family="Helvetica,sans-Serif" font-size="10.00"> SymbolTableListTraits</text>
<text text-anchor="middle" x="1271.5" y="-118.5" font-family="Helvetica,sans-Serif" font-size="10.00">&lt; T &gt; &gt;</text>
</a>
</g>
</g>
<!-- Node1&#45;&gt;Node0 -->
<g id="edge1" class="edge">
<title>Node1&#45;&gt;Node0</title>
<path fill="none" stroke="midnightblue" d="M1340.27,-137.5C1349.07,-137.5 1358.08,-137.5 1366.87,-137.5"/>
<polygon fill="midnightblue" stroke="midnightblue" points="1340.07,-134 1330.07,-137.5 1340.07,-141 1340.07,-134"/>
</g>
<!-- Node2 -->
<g id="node3" class="node">
<title>Node2</title>
<g id="a_node3"><a xlink:href="classllvm_1_1SymbolTableListTraits.html" target="_top" xlink:title="llvm::SymbolTableListTraits\&lt; T \&gt;">
<polygon fill="none" stroke="black" points="911,-216 911,-235 1073,-235 1073,-216 911,-216"/>
<text text-anchor="middle" x="992" y="-223" font-family="Helvetica,sans-Serif" font-size="10.00">llvm::SymbolTableListTraits&lt; T &gt;</text>
</a>
</g>
</g>
<!-- Node2&#45;&gt;Node1 -->
<g id="edge2" class="edge">
<title>Node2&#45;&gt;Node1</title>
<path fill="none" stroke="midnightblue" d="M1032.52,-212.97C1079.71,-198 1159.01,-172.86 1212.98,-155.74"/>
<polygon fill="midnightblue" stroke="midnightblue" points="1031.44,-209.64 1022.96,-216 1033.55,-216.31 1031.44,-209.64"/>
</g>
<!-- Node3 -->
<g id="node4" class="node">
<title>Node3</title>
<g id="a_node4"><a xlink:href="structllvm_1_1ilist__alloc__traits.html" target="_top" xlink:title="llvm::ilist_alloc_traits\&lt; T \&gt;">
<polygon fill="none" stroke="black" points="559,-260 559,-279 691,-279 691,-260 559,-260"/>
<text text-anchor="middle" x="625" y="-267" font-family="Helvetica,sans-Serif" font-size="10.00">llvm::ilist_alloc_traits&lt; T &gt;</text>
</a>
</g>
</g>
<!-- Node3&#45;&gt;Node2 -->
<g id="edge3" class="edge">
<title>Node3&#45;&gt;Node2</title>
<path fill="none" stroke="midnightblue" d="M701.49,-264.63C744.27,-261.46 798.74,-256.75 847,-250.5 878.83,-246.38 914.37,-240.22 942.17,-235.05"/>
<polygon fill="midnightblue" stroke="midnightblue" points="701.15,-261.14 691.43,-265.36 701.66,-268.12 701.15,-261.14"/>
</g>
<!-- Node4 -->
<g id="node5" class="node">
<title>Node4</title>
<g id="a_node5"><a xlink:href="structllvm_1_1ilist__alloc__traits.html" target="_top" xlink:title="Use delete by default for iplist and ilist. ">
<polygon fill="none" stroke="black" points="124,-237.5 124,-267.5 232,-267.5 232,-237.5 124,-237.5"/>
<text text-anchor="start" x="132" y="-255.5" font-family="Helvetica,sans-Serif" font-size="10.00">llvm::ilist_alloc_traits</text>
<text text-anchor="middle" x="178" y="-244.5" font-family="Helvetica,sans-Serif" font-size="10.00">&lt; NodeTy &gt;</text>
</a>
</g>
</g>
<!-- Node4&#45;&gt;Node3 -->
<g id="edge4" class="edge">
<title>Node4&#45;&gt;Node3</title>
<path fill="none" stroke="orange" stroke-dasharray="5,2" d="M242.41,-254.92C326.43,-258.13 473.9,-263.77 558.81,-267.01"/>
<polygon fill="orange" stroke="orange" points="242.36,-251.42 232.24,-254.53 242.09,-258.41 242.36,-251.42"/>
<text text-anchor="middle" x="316.5" y="-262.5" font-family="Helvetica,sans-Serif" font-size="10.00"> &lt; T &gt;</text>
</g>
<!-- Node6 -->
<g id="node7" class="node">
<title>Node6</title>
<g id="a_node7"><a xlink:href="structllvm_1_1ilist__alloc__traits.html" target="_top" xlink:title="llvm::ilist_alloc_traits\l\&lt; ValueSubClass \&gt;">
<polygon fill="none" stroke="black" points="415.5,-210.5 415.5,-240.5 523.5,-240.5 523.5,-210.5 415.5,-210.5"/>
<text text-anchor="start" x="423.5" y="-228.5" font-family="Helvetica,sans-Serif" font-size="10.00">llvm::ilist_alloc_traits</text>
<text text-anchor="middle" x="469.5" y="-217.5" font-family="Helvetica,sans-Serif" font-size="10.00">&lt; ValueSubClass &gt;</text>
</a>
</g>
</g>
<!-- Node4&#45;&gt;Node6 -->
<g id="edge7" class="edge">
<title>Node4&#45;&gt;Node6</title>
<path fill="none" stroke="orange" stroke-dasharray="5,2" d="M242.33,-238.1C245.93,-237.51 249.51,-236.96 253,-236.5 307.96,-229.2 371.4,-226.67 415.14,-225.83"/>
<polygon fill="orange" stroke="orange" points="241.4,-234.72 232.17,-239.93 242.63,-241.61 241.4,-234.72"/>
<text text-anchor="middle" x="316.5" y="-239.5" font-family="Helvetica,sans-Serif" font-size="10.00"> &lt; ValueSubClass &gt;</text>
</g>
<!-- Node5 -->
<g id="node6" class="node">
<title>Node5</title>
<g id="a_node6"><a xlink:href="classllvm_1_1SymbolTableListTraits.html" target="_top" xlink:title="llvm::SymbolTableListTraits\l\&lt; ValueSubClass \&gt;">
<polygon fill="none" stroke="black" points="709,-210.5 709,-240.5 847,-240.5 847,-210.5 709,-210.5"/>
<text text-anchor="start" x="717" y="-228.5" font-family="Helvetica,sans-Serif" font-size="10.00">llvm::SymbolTableListTraits</text>
<text text-anchor="middle" x="778" y="-217.5" font-family="Helvetica,sans-Serif" font-size="10.00">&lt; ValueSubClass &gt;</text>
</a>
</g>
</g>
<!-- Node5&#45;&gt;Node2 -->
<g id="edge5" class="edge">
<title>Node5&#45;&gt;Node2</title>
<path fill="none" stroke="orange" stroke-dasharray="5,2" d="M857.35,-225.5C874.75,-225.5 893.21,-225.5 910.68,-225.5"/>
<polygon fill="orange" stroke="orange" points="857.25,-222 847.25,-225.5 857.25,-229 857.25,-222"/>
<text text-anchor="middle" x="879" y="-228.5" font-family="Helvetica,sans-Serif" font-size="10.00"> &lt; T &gt;</text>
</g>
<!-- Node6&#45;&gt;Node5 -->
<g id="edge6" class="edge">
<title>Node6&#45;&gt;Node5</title>
<path fill="none" stroke="midnightblue" d="M533.78,-225.5C584.82,-225.5 656.47,-225.5 708.78,-225.5"/>
<polygon fill="midnightblue" stroke="midnightblue" points="533.54,-222 523.54,-225.5 533.54,-229 533.54,-222"/>
</g>
<!-- Node7 -->
<g id="node8" class="node">
<title>Node7</title>
<g id="a_node8"><a xlink:href="classllvm_1_1simple__ilist.html" target="_top" xlink:title="llvm::simple_ilist\&lt; T \&gt;">
<polygon fill="none" stroke="black" points="935.5,-128 935.5,-147 1048.5,-147 1048.5,-128 935.5,-128"/>
<text text-anchor="middle" x="992" y="-135" font-family="Helvetica,sans-Serif" font-size="10.00">llvm::simple_ilist&lt; T &gt;</text>
</a>
</g>
</g>
<!-- Node7&#45;&gt;Node1 -->
<g id="edge8" class="edge">
<title>Node7&#45;&gt;Node1</title>
<path fill="none" stroke="#8b1a1a" d="M1058.87,-137.5C1105.7,-137.5 1167.99,-137.5 1212.86,-137.5"/>
<polygon fill="#8b1a1a" stroke="#8b1a1a" points="1058.82,-134 1048.82,-137.5 1058.82,-141 1058.82,-134"/>
</g>
<!-- Node8 -->
<g id="node9" class="node">
<title>Node8</title>
<g id="a_node9"><a xlink:href="classllvm_1_1ilist__base.html" target="_top" xlink:title="Implementations of list algorithms using ilist_node_base. ">
<polygon fill="none" stroke="black" points="398,-149 398,-190 541,-190 541,-149 398,-149"/>
<text text-anchor="start" x="406" y="-178" font-family="Helvetica,sans-Serif" font-size="10.00">ilist_detail::compute</text>
<text text-anchor="start" x="406" y="-167" font-family="Helvetica,sans-Serif" font-size="10.00">_node_options&lt; T, Options...</text>
<text text-anchor="middle" x="469.5" y="-156" font-family="Helvetica,sans-Serif" font-size="10.00"> &gt;::type::list_base_type</text>
</a>
</g>
</g>
<!-- Node8&#45;&gt;Node7 -->
<g id="edge9" class="edge">
<title>Node8&#45;&gt;Node7</title>
<path fill="none" stroke="#8b1a1a" d="M551.18,-171.88C627.57,-173.21 745.39,-172.9 847,-162.5 880.32,-159.09 917.56,-152.55 945.83,-147.01"/>
<polygon fill="#8b1a1a" stroke="#8b1a1a" points="551.21,-168.38 541.14,-171.69 551.07,-175.38 551.21,-168.38"/>
</g>
<!-- Node12 -->
<g id="node13" class="node">
<title>Node12</title>
<g id="a_node13"><a xlink:href="classllvm_1_1simple__ilist.html" target="_top" xlink:title="A simple intrusive list implementation. ">
<polygon fill="none" stroke="black" points="733.5,-122.5 733.5,-152.5 822.5,-152.5 822.5,-122.5 733.5,-122.5"/>
<text text-anchor="start" x="741.5" y="-140.5" font-family="Helvetica,sans-Serif" font-size="10.00">llvm::simple_ilist</text>
<text text-anchor="middle" x="778" y="-129.5" font-family="Helvetica,sans-Serif" font-size="10.00">&lt; T, Options &gt;</text>
</a>
</g>
</g>
<!-- Node8&#45;&gt;Node12 -->
<g id="edge15" class="edge">
<title>Node8&#45;&gt;Node12</title>
<path fill="none" stroke="#8b1a1a" d="M551.48,-161.05C609.69,-154.97 685.93,-147.01 733.18,-142.08"/>
<polygon fill="#8b1a1a" stroke="#8b1a1a" points="550.78,-157.6 541.2,-162.12 551.51,-164.56 550.78,-157.6"/>
</g>
<!-- Node9 -->
<g id="node10" class="node">
<title>Node9</title>
<g id="a_node10"><a xlink:href="structllvm_1_1ilist__detail_1_1SpecificNodeAccess.html" target="_top" xlink:title="llvm::ilist_detail\l::SpecificNodeAccess\l\&lt; ilist_detail::compute\l_node_options\&lt; T, Options...\l \&gt;::type \&gt;">
<polygon fill="none" stroke="black" points="398,-64 398,-127 541,-127 541,-64 398,-64"/>
<text text-anchor="start" x="406" y="-115" font-family="Helvetica,sans-Serif" font-size="10.00">llvm::ilist_detail</text>
<text text-anchor="start" x="406" y="-104" font-family="Helvetica,sans-Serif" font-size="10.00">::SpecificNodeAccess</text>
<text text-anchor="start" x="406" y="-93" font-family="Helvetica,sans-Serif" font-size="10.00">&lt; ilist_detail::compute</text>
<text text-anchor="start" x="406" y="-82" font-family="Helvetica,sans-Serif" font-size="10.00">_node_options&lt; T, Options...</text>
<text text-anchor="middle" x="469.5" y="-71" font-family="Helvetica,sans-Serif" font-size="10.00"> &gt;::type &gt;</text>
</a>
</g>
</g>
<!-- Node9&#45;&gt;Node7 -->
<g id="edge10" class="edge">
<title>Node9&#45;&gt;Node7</title>
<path fill="none" stroke="#8b1a1a" d="M551.15,-96.62C627.53,-98.33 745.34,-102.64 847,-113.5 879.01,-116.92 914.7,-122.85 942.54,-127.96"/>
<polygon fill="#8b1a1a" stroke="#8b1a1a" points="551.19,-93.12 541.12,-96.41 551.04,-100.12 551.19,-93.12"/>
</g>
<!-- Node9&#45;&gt;Node12 -->
<g id="edge16" class="edge">
<title>Node9&#45;&gt;Node12</title>
<path fill="none" stroke="#8b1a1a" d="M551.12,-106.55C609.37,-114.53 685.84,-125.01 733.18,-131.49"/>
<polygon fill="#8b1a1a" stroke="#8b1a1a" points="551.58,-103.08 541.2,-105.19 550.63,-110.01 551.58,-103.08"/>
</g>
<!-- Node10 -->
<g id="node11" class="node">
<title>Node10</title>
<g id="a_node11"><a xlink:href="structllvm_1_1ilist__detail_1_1NodeAccess.html" target="_top" xlink:title="An access class for ilist_node private API. ">
<polygon fill="none" stroke="black" points="0,-80.5 0,-110.5 84,-110.5 84,-80.5 0,-80.5"/>
<text text-anchor="start" x="8" y="-98.5" font-family="Helvetica,sans-Serif" font-size="10.00">llvm::ilist_detail</text>
<text text-anchor="middle" x="42" y="-87.5" font-family="Helvetica,sans-Serif" font-size="10.00">::NodeAccess</text>
</a>
</g>
</g>
<!-- Node10&#45;&gt;Node9 -->
<g id="edge11" class="edge">
<title>Node10&#45;&gt;Node9</title>
<path fill="none" stroke="midnightblue" d="M94.16,-100.17C160.24,-105.51 278.79,-112.77 380,-106.5 385.72,-106.15 391.63,-105.66 397.56,-105.1"/>
<polygon fill="midnightblue" stroke="midnightblue" points="94.27,-96.67 84.02,-99.33 93.7,-103.64 94.27,-96.67"/>
</g>
<!-- Node11 -->
<g id="node12" class="node">
<title>Node11</title>
<g id="a_node12"><a xlink:href="structllvm_1_1ilist__detail_1_1SpecificNodeAccess.html" target="_top" xlink:title="llvm::ilist_detail\l::SpecificNodeAccess\l\&lt; OptionsT \&gt;">
<polygon fill="none" stroke="black" points="121,-51 121,-92 235,-92 235,-51 121,-51"/>
<text text-anchor="start" x="129" y="-80" font-family="Helvetica,sans-Serif" font-size="10.00">llvm::ilist_detail</text>
<text text-anchor="start" x="129" y="-69" font-family="Helvetica,sans-Serif" font-size="10.00">::SpecificNodeAccess</text>
<text text-anchor="middle" x="178" y="-58" font-family="Helvetica,sans-Serif" font-size="10.00">&lt; OptionsT &gt;</text>
</a>
</g>
</g>
<!-- Node10&#45;&gt;Node11 -->
<g id="edge13" class="edge">
<title>Node10&#45;&gt;Node11</title>
<path fill="none" stroke="midnightblue" d="M94.28,-86.32C102.96,-84.76 112.01,-83.14 120.8,-81.56"/>
<polygon fill="midnightblue" stroke="midnightblue" points="93.52,-82.9 84.3,-88.1 94.76,-89.79 93.52,-82.9"/>
</g>
<!-- Node11&#45;&gt;Node9 -->
<g id="edge12" class="edge">
<title>Node11&#45;&gt;Node9</title>
<path fill="none" stroke="orange" stroke-dasharray="5,2" d="M245.12,-68.29C284.46,-67.34 335.26,-67.8 380,-73.5 385.81,-74.24 391.79,-75.23 397.77,-76.37"/>
<polygon fill="orange" stroke="orange" points="245.02,-64.79 235.12,-68.57 245.22,-71.79 245.02,-64.79"/>
<text text-anchor="start" x="253" y="-98.5" font-family="Helvetica,sans-Serif" font-size="10.00"> &lt; ilist_detail::compute</text>
<text text-anchor="start" x="253" y="-87.5" font-family="Helvetica,sans-Serif" font-size="10.00">_node_options&lt; T, Options...</text>
<text text-anchor="middle" x="316.5" y="-76.5" font-family="Helvetica,sans-Serif" font-size="10.00"> &gt;::type &gt;</text>
</g>
<!-- Node12&#45;&gt;Node7 -->
<g id="edge14" class="edge">
<title>Node12&#45;&gt;Node7</title>
<path fill="none" stroke="orange" stroke-dasharray="5,2" d="M832.96,-137.5C864.28,-137.5 903.66,-137.5 935.27,-137.5"/>
<polygon fill="orange" stroke="orange" points="832.67,-134 822.67,-137.5 832.67,-141 832.67,-134"/>
<text text-anchor="middle" x="879" y="-140.5" font-family="Helvetica,sans-Serif" font-size="10.00"> &lt; T &gt;</text>
</g>
<!-- Node13 -->
<g id="node14" class="node">
<title>Node13</title>
<g id="a_node14"><a xlink:href="classllvm_1_1iplist__impl.html" target="_top" xlink:title="A wrapper around an intrusive list with callbacks and non&#45;intrusive ownership. ">
<polygon fill="none" stroke="black" points="929.5,-40.5 929.5,-70.5 1054.5,-70.5 1054.5,-40.5 929.5,-40.5"/>
<text text-anchor="start" x="937.5" y="-58.5" font-family="Helvetica,sans-Serif" font-size="10.00">llvm::iplist_impl&lt;</text>
<text text-anchor="middle" x="992" y="-47.5" font-family="Helvetica,sans-Serif" font-size="10.00"> IntrusiveListT, TraitsT &gt;</text>
</a>
</g>
</g>
<!-- Node13&#45;&gt;Node1 -->
<g id="edge17" class="edge">
<title>Node13&#45;&gt;Node1</title>
<path fill="none" stroke="orange" stroke-dasharray="5,2" d="M1064.84,-67.22C1103.95,-74.66 1152.83,-85.7 1195,-100.5 1203.68,-103.54 1212.66,-107.33 1221.26,-111.31"/>
<polygon fill="orange" stroke="orange" points="1065.07,-63.7 1054.6,-65.31 1063.79,-70.59 1065.07,-63.7"/>
<text text-anchor="start" x="1091" y="-125.5" font-family="Helvetica,sans-Serif" font-size="10.00"> &lt; simple_ilist&lt; T &gt;</text>
<text text-anchor="start" x="1091" y="-114.5" font-family="Helvetica,sans-Serif" font-size="10.00">, SymbolTableListTraits</text>
<text text-anchor="middle" x="1143" y="-103.5" font-family="Helvetica,sans-Serif" font-size="10.00">&lt; T &gt; &gt;</text>
</g>
<!-- Node14 -->
<g id="node15" class="node">
<title>Node14</title>
<g id="a_node15"><a xlink:href="classllvm_1_1TraitsT.html" target="_top" xlink:title="TraitsT">
<polygon fill="none" stroke="black" points="754.5,-46 754.5,-65 801.5,-65 801.5,-46 754.5,-46"/>
<text text-anchor="middle" x="778" y="-53" font-family="Helvetica,sans-Serif" font-size="10.00">TraitsT</text>
</a>
</g>
</g>
<!-- Node14&#45;&gt;Node13 -->
<g id="edge18" class="edge">
<title>Node14&#45;&gt;Node13</title>
<path fill="none" stroke="midnightblue" d="M812.02,-55.5C843.31,-55.5 891.08,-55.5 929.4,-55.5"/>
<polygon fill="midnightblue" stroke="midnightblue" points="811.69,-52 801.69,-55.5 811.69,-59 811.69,-52"/>
</g>
<!-- Node15 -->
<g id="node16" class="node">
<title>Node15</title>
<g id="a_node16"><a xlink:href="classllvm_1_1IntrusiveListT.html" target="_top" xlink:title="IntrusiveListT">
<polygon fill="none" stroke="black" points="740,-8 740,-27 816,-27 816,-8 740,-8"/>
<text text-anchor="middle" x="778" y="-15" font-family="Helvetica,sans-Serif" font-size="10.00">IntrusiveListT</text>
</a>
</g>
</g>
<!-- Node15&#45;&gt;Node13 -->
<g id="edge19" class="edge">
<title>Node15&#45;&gt;Node13</title>
<path fill="none" stroke="#8b1a1a" d="M826.35,-25.99C856.77,-31.44 896.6,-38.58 929.47,-44.47"/>
<polygon fill="#8b1a1a" stroke="#8b1a1a" points="826.87,-22.53 816.41,-24.21 825.64,-29.42 826.87,-22.53"/>
</g>
</g>
</svg>
