<?xml version="1.0" encoding="UTF-8" standalone="no"?>
<!DOCTYPE svg PUBLIC "-//W3C//DTD SVG 1.1//EN"
 "http://www.w3.org/Graphics/SVG/1.1/DTD/svg11.dtd">
<!-- Generated by graphviz version 2.43.0 (0)
 -->
<!-- Title: FunctionEncoding Pages: 1 -->
<svg width="157pt" height="174pt"
 viewBox="0.00 0.00 156.50 174.00" xmlns="http://www.w3.org/2000/svg" xmlns:xlink="http://www.w3.org/1999/xlink">
<g id="graph0" class="graph" transform="scale(1 1) rotate(0) translate(4 170)">
<title>FunctionEncoding</title>
<!-- Node2 -->
<g id="node1" class="node">
<title>Node2</title>
<polygon fill="#bfbfbf" stroke="black" points="0,-0.5 0,-19.5 95,-19.5 95,-0.5 0,-0.5"/>
<text text-anchor="middle" x="47.5" y="-7.5" font-family="Helvetica,sans-Serif" font-size="10.00">FunctionEncoding</text>
</g>
<!-- Node3 -->
<g id="node2" class="node">
<title>Node3</title>
<g id="a_node2"><a xlink:href="classNode.html" target="_top" xlink:title="Node">
<polygon fill="none" stroke="black" points="27.5,-57.5 27.5,-76.5 67.5,-76.5 67.5,-57.5 27.5,-57.5"/>
<text text-anchor="middle" x="47.5" y="-64.5" font-family="Helvetica,sans-Serif" font-size="10.00">Node</text>
</a>
</g>
</g>
<!-- Node3&#45;&gt;Node2 -->
<g id="edge1" class="edge">
<title>Node3&#45;&gt;Node2</title>
<path fill="none" stroke="midnightblue" d="M47.5,-47.12C47.5,-37.82 47.5,-27.06 47.5,-19.71"/>
<polygon fill="midnightblue" stroke="midnightblue" points="44,-47.41 47.5,-57.41 51,-47.41 44,-47.41"/>
</g>
<!-- Node4 -->
<g id="node3" class="node">
<title>Node4</title>
<polygon fill="none" stroke="#bfbfbf" points="25,-146.5 25,-165.5 70,-165.5 70,-146.5 25,-146.5"/>
<text text-anchor="middle" x="47.5" y="-153.5" font-family="Helvetica,sans-Serif" font-size="10.00">Cache</text>
</g>
<!-- Node4&#45;&gt;Node3 -->
<g id="edge2" class="edge">
<title>Node4&#45;&gt;Node3</title>
<path fill="none" stroke="#9a32cd" stroke-dasharray="5,2" d="M47.5,-136.19C47.5,-117.74 47.5,-90.41 47.5,-76.62"/>
<polygon fill="#9a32cd" stroke="#9a32cd" points="44,-136.34 47.5,-146.34 51,-136.34 44,-136.34"/>
<text text-anchor="middle" x="98" y="-120" font-family="Helvetica,sans-Serif" font-size="10.00"> FunctionCache</text>
<text text-anchor="middle" x="98" y="-109" font-family="Helvetica,sans-Serif" font-size="10.00">RHSComponentCache</text>
<text text-anchor="middle" x="98" y="-98" font-family="Helvetica,sans-Serif" font-size="10.00">ArrayCache</text>
</g>
</g>
</svg>
