<?xml version="1.0" encoding="UTF-8" standalone="no"?>
<!DOCTYPE svg PUBLIC "-//W3C//DTD SVG 1.1//EN"
 "http://www.w3.org/Graphics/SVG/1.1/DTD/svg11.dtd">
<!-- Generated by graphviz version 2.43.0 (0)
 -->
<!-- Title: llvm::orc::LLLazyJITBuilderState Pages: 1 -->
<svg width="1068pt" height="313pt"
 viewBox="0.00 0.00 1068.00 313.00" xmlns="http://www.w3.org/2000/svg" xmlns:xlink="http://www.w3.org/1999/xlink">
<g id="graph0" class="graph" transform="scale(1 1) rotate(0) translate(4 309)">
<title>llvm::orc::LLLazyJITBuilderState</title>
<!-- Node3 -->
<g id="node1" class="node">
<title>Node3</title>
<polygon fill="#bfbfbf" stroke="black" points="924,-88.5 924,-118.5 1060,-118.5 1060,-88.5 924,-88.5"/>
<text text-anchor="start" x="932" y="-106.5" font-family="Helvetica,sans-Serif" font-size="10.00">llvm::orc::LLLazyJITBuilder</text>
<text text-anchor="middle" x="992" y="-95.5" font-family="Helvetica,sans-Serif" font-size="10.00">State</text>
</g>
<!-- Node4 -->
<g id="node2" class="node">
<title>Node4</title>
<g id="a_node2"><a xlink:href="classllvm_1_1orc_1_1LLJITBuilderState.html" target="_top" xlink:title="llvm::orc::LLJITBuilderState">
<polygon fill="none" stroke="black" points="630,-176 630,-195 768,-195 768,-176 630,-176"/>
<text text-anchor="middle" x="699" y="-183" font-family="Helvetica,sans-Serif" font-size="10.00">llvm::orc::LLJITBuilderState</text>
</a>
</g>
</g>
<!-- Node4&#45;&gt;Node3 -->
<g id="edge1" class="edge">
<title>Node4&#45;&gt;Node3</title>
<path fill="none" stroke="midnightblue" d="M778.4,-177.22C817.47,-171.64 865.01,-162.65 906,-148.5 927.78,-140.98 950.78,-128.49 967.35,-118.58"/>
<polygon fill="midnightblue" stroke="midnightblue" points="777.56,-173.8 768.13,-178.63 778.52,-180.73 777.56,-173.8"/>
</g>
<!-- Node5 -->
<g id="node3" class="node">
<title>Node5</title>
<polygon fill="none" stroke="#bfbfbf" points="315,-274.5 315,-304.5 425,-304.5 425,-274.5 315,-274.5"/>
<text text-anchor="start" x="323" y="-292.5" font-family="Helvetica,sans-Serif" font-size="10.00">unique_ptr&lt; llvm::orc</text>
<text text-anchor="middle" x="370" y="-281.5" font-family="Helvetica,sans-Serif" font-size="10.00">::ExecutionSession &gt;</text>
</g>
<!-- Node5&#45;&gt;Node4 -->
<g id="edge2" class="edge">
<title>Node5&#45;&gt;Node4</title>
<path fill="none" stroke="#9a32cd" stroke-dasharray="5,2" d="M435.39,-278.93C482.44,-270.14 547.31,-255.77 602,-235.5 631.78,-224.46 664.08,-206.21 682.59,-195.08"/>
<polygon fill="#9a32cd" stroke="#9a32cd" points="434.54,-275.53 425.33,-280.78 435.8,-282.41 434.54,-275.53"/>
<text text-anchor="middle" x="544" y="-270.5" font-family="Helvetica,sans-Serif" font-size="10.00"> ES</text>
</g>
<!-- Node6 -->
<g id="node4" class="node">
<title>Node6</title>
<g id="a_node4"><a xlink:href="classllvm_1_1Optional.html" target="_top" xlink:title="llvm::Optional\&lt; llvm\l::orc::JITTargetMachineBuilder \&gt;">
<polygon fill="none" stroke="black" points="290,-225.5 290,-255.5 450,-255.5 450,-225.5 290,-225.5"/>
<text text-anchor="start" x="298" y="-243.5" font-family="Helvetica,sans-Serif" font-size="10.00">llvm::Optional&lt; llvm</text>
<text text-anchor="middle" x="370" y="-232.5" font-family="Helvetica,sans-Serif" font-size="10.00">::orc::JITTargetMachineBuilder &gt;</text>
</a>
</g>
</g>
<!-- Node6&#45;&gt;Node4 -->
<g id="edge3" class="edge">
<title>Node6&#45;&gt;Node4</title>
<path fill="none" stroke="#9a32cd" stroke-dasharray="5,2" d="M460.02,-225.53C517.82,-215.81 591.41,-203.43 641.34,-195.03"/>
<polygon fill="#9a32cd" stroke="#9a32cd" points="459.44,-222.08 450.16,-227.19 460.6,-228.98 459.44,-222.08"/>
<text text-anchor="middle" x="544" y="-223.5" font-family="Helvetica,sans-Serif" font-size="10.00"> JTMB</text>
</g>
<!-- Node7 -->
<g id="node5" class="node">
<title>Node7</title>
<g id="a_node5"><a xlink:href="classllvm_1_1Optional.html" target="_top" xlink:title="llvm::Optional\&lt; T \&gt;">
<polygon fill="none" stroke="black" points="0,-231 0,-250 101,-250 101,-231 0,-231"/>
<text text-anchor="middle" x="50.5" y="-238" font-family="Helvetica,sans-Serif" font-size="10.00">llvm::Optional&lt; T &gt;</text>
</a>
</g>
</g>
<!-- Node7&#45;&gt;Node6 -->
<g id="edge4" class="edge">
<title>Node7&#45;&gt;Node6</title>
<path fill="none" stroke="orange" stroke-dasharray="5,2" d="M111.22,-240.5C161.71,-240.5 234.45,-240.5 289.8,-240.5"/>
<polygon fill="orange" stroke="orange" points="111.11,-237 101.11,-240.5 111.11,-244 111.11,-237"/>
<text text-anchor="start" x="119" y="-254.5" font-family="Helvetica,sans-Serif" font-size="10.00"> &lt; llvm::orc::JITTargetMachine</text>
<text text-anchor="middle" x="186.5" y="-243.5" font-family="Helvetica,sans-Serif" font-size="10.00">Builder &gt;</text>
</g>
<!-- Node8 -->
<g id="node6" class="node">
<title>Node8</title>
<polygon fill="none" stroke="#bfbfbf" points="295,-165 295,-206 445,-206 445,-165 295,-165"/>
<text text-anchor="start" x="303" y="-194" font-family="Helvetica,sans-Serif" font-size="10.00">function&lt; std::unique</text>
<text text-anchor="start" x="303" y="-183" font-family="Helvetica,sans-Serif" font-size="10.00">_ptr&lt; ObjectLayer &gt;(Execution</text>
<text text-anchor="middle" x="370" y="-172" font-family="Helvetica,sans-Serif" font-size="10.00">Session &amp;, const Triple &amp;TT)&gt;</text>
</g>
<!-- Node8&#45;&gt;Node4 -->
<g id="edge5" class="edge">
<title>Node8&#45;&gt;Node4</title>
<path fill="none" stroke="#9a32cd" stroke-dasharray="5,2" d="M455.49,-185.5C509.73,-185.5 579.25,-185.5 629.94,-185.5"/>
<polygon fill="#9a32cd" stroke="#9a32cd" points="455.2,-182 445.2,-185.5 455.2,-189 455.2,-182"/>
<text text-anchor="middle" x="544" y="-188.5" font-family="Helvetica,sans-Serif" font-size="10.00"> CreateObjectLinkingLayer</text>
</g>
<!-- Node9 -->
<g id="node7" class="node">
<title>Node9</title>
<g id="a_node7"><a xlink:href="classunsigned.html" target="_top" xlink:title="unsigned">
<polygon fill="none" stroke="black" points="342,-127 342,-146 398,-146 398,-127 342,-127"/>
<text text-anchor="middle" x="370" y="-134" font-family="Helvetica,sans-Serif" font-size="10.00">unsigned</text>
</a>
</g>
</g>
<!-- Node9&#45;&gt;Node4 -->
<g id="edge6" class="edge">
<title>Node9&#45;&gt;Node4</title>
<path fill="none" stroke="#9a32cd" stroke-dasharray="5,2" d="M408.06,-141.85C453.7,-148.47 533.59,-160.12 602,-170.5 613.51,-172.25 625.79,-174.14 637.58,-175.98"/>
<polygon fill="#9a32cd" stroke="#9a32cd" points="408.44,-138.37 398.04,-140.4 407.43,-145.3 408.44,-138.37"/>
<text text-anchor="middle" x="544" y="-173.5" font-family="Helvetica,sans-Serif" font-size="10.00"> NumCompileThreads</text>
</g>
<!-- Node10 -->
<g id="node8" class="node">
<title>Node10</title>
<polygon fill="none" stroke="#bfbfbf" points="272,-55.5 272,-107.5 468,-107.5 468,-55.5 272,-55.5"/>
<text text-anchor="start" x="280" y="-95.5" font-family="Helvetica,sans-Serif" font-size="10.00">function&lt; Expected</text>
<text text-anchor="start" x="280" y="-84.5" font-family="Helvetica,sans-Serif" font-size="10.00">&lt; std::unique_ptr&lt; IRCompile</text>
<text text-anchor="start" x="280" y="-73.5" font-family="Helvetica,sans-Serif" font-size="10.00">Layer::IRCompiler &gt; &gt;(JITTargetMachine</text>
<text text-anchor="middle" x="370" y="-62.5" font-family="Helvetica,sans-Serif" font-size="10.00">Builder JTMB)&gt;</text>
</g>
<!-- Node10&#45;&gt;Node4 -->
<g id="edge7" class="edge">
<title>Node10&#45;&gt;Node4</title>
<path fill="none" stroke="#9a32cd" stroke-dasharray="5,2" d="M477.94,-90.79C519.65,-98.58 565.99,-112.76 602,-138.5 614.03,-147.1 607.95,-157.91 620,-166.5 625.45,-170.38 631.6,-173.48 637.99,-175.94"/>
<polygon fill="#9a32cd" stroke="#9a32cd" points="478.46,-87.33 468.01,-89.04 477.25,-94.22 478.46,-87.33"/>
<text text-anchor="middle" x="544" y="-141.5" font-family="Helvetica,sans-Serif" font-size="10.00"> CreateCompileFunction</text>
</g>
<!-- Node11 -->
<g id="node9" class="node">
<title>Node11</title>
<polygon fill="none" stroke="#bfbfbf" points="673.5,-138 673.5,-157 724.5,-157 724.5,-138 673.5,-138"/>
<text text-anchor="middle" x="699" y="-145" font-family="Helvetica,sans-Serif" font-size="10.00">uint64_t</text>
</g>
<!-- Node11&#45;&gt;Node3 -->
<g id="edge8" class="edge">
<title>Node11&#45;&gt;Node3</title>
<path fill="none" stroke="#9a32cd" stroke-dasharray="5,2" d="M734.79,-142.98C775.8,-137.56 845.95,-128.02 906,-118.5 911.77,-117.58 917.76,-116.6 923.76,-115.59"/>
<polygon fill="#9a32cd" stroke="#9a32cd" points="734.23,-139.52 724.77,-144.3 735.15,-146.46 734.23,-139.52"/>
<text text-anchor="middle" x="851" y="-136.5" font-family="Helvetica,sans-Serif" font-size="10.00"> LazyCompileFailureAddr</text>
</g>
<!-- Node12 -->
<g id="node10" class="node">
<title>Node12</title>
<polygon fill="none" stroke="#bfbfbf" points="620,-88.5 620,-118.5 778,-118.5 778,-88.5 620,-88.5"/>
<text text-anchor="start" x="628" y="-106.5" font-family="Helvetica,sans-Serif" font-size="10.00">function&lt; std::unique</text>
<text text-anchor="middle" x="699" y="-95.5" font-family="Helvetica,sans-Serif" font-size="10.00">_ptr&lt; IndirectStubsManager &gt;()&gt;</text>
</g>
<!-- Node12&#45;&gt;Node3 -->
<g id="edge9" class="edge">
<title>Node12&#45;&gt;Node3</title>
<path fill="none" stroke="#9a32cd" stroke-dasharray="5,2" d="M788.39,-103.5C831.94,-103.5 883.6,-103.5 923.86,-103.5"/>
<polygon fill="#9a32cd" stroke="#9a32cd" points="788.37,-100 778.37,-103.5 788.37,-107 788.37,-100"/>
<text text-anchor="middle" x="851" y="-106.5" font-family="Helvetica,sans-Serif" font-size="10.00"> ISMBuilder</text>
</g>
<!-- Node13 -->
<g id="node11" class="node">
<title>Node13</title>
<g id="a_node11"><a xlink:href="classllvm_1_1Triple.html" target="_top" xlink:title="Triple &#45; Helper class for working with autoconf configuration names. ">
<polygon fill="none" stroke="black" points="666.5,-50 666.5,-69 731.5,-69 731.5,-50 666.5,-50"/>
<text text-anchor="middle" x="699" y="-57" font-family="Helvetica,sans-Serif" font-size="10.00">llvm::Triple</text>
</a>
</g>
</g>
<!-- Node13&#45;&gt;Node3 -->
<g id="edge10" class="edge">
<title>Node13&#45;&gt;Node3</title>
<path fill="none" stroke="#9a32cd" stroke-dasharray="5,2" d="M741.87,-64.96C783.53,-70.49 849.28,-79.5 906,-88.5 911.77,-89.42 917.76,-90.4 923.76,-91.41"/>
<polygon fill="#9a32cd" stroke="#9a32cd" points="742.18,-61.47 731.81,-63.63 741.27,-68.41 742.18,-61.47"/>
<text text-anchor="middle" x="851" y="-91.5" font-family="Helvetica,sans-Serif" font-size="10.00"> TT</text>
</g>
<!-- Node14 -->
<g id="node12" class="node">
<title>Node14</title>
<polygon fill="none" stroke="#bfbfbf" points="627.5,-0.5 627.5,-30.5 770.5,-30.5 770.5,-0.5 627.5,-0.5"/>
<text text-anchor="start" x="635.5" y="-18.5" font-family="Helvetica,sans-Serif" font-size="10.00">unique_ptr&lt; llvm::orc</text>
<text text-anchor="middle" x="699" y="-7.5" font-family="Helvetica,sans-Serif" font-size="10.00">::LazyCallThroughManager &gt;</text>
</g>
<!-- Node14&#45;&gt;Node3 -->
<g id="edge11" class="edge">
<title>Node14&#45;&gt;Node3</title>
<path fill="none" stroke="#9a32cd" stroke-dasharray="5,2" d="M780.71,-26.29C819.35,-32.88 865.85,-42.91 906,-57.5 927.92,-65.47 951.1,-78.34 967.7,-88.45"/>
<polygon fill="#9a32cd" stroke="#9a32cd" points="780.98,-22.79 770.54,-24.61 779.84,-29.7 780.98,-22.79"/>
<text text-anchor="middle" x="851" y="-60.5" font-family="Helvetica,sans-Serif" font-size="10.00"> LCTMgr</text>
</g>
</g>
</svg>
