<?xml version="1.0" encoding="UTF-8" standalone="no"?>
<!DOCTYPE svg PUBLIC "-//W3C//DTD SVG 1.1//EN"
 "http://www.w3.org/Graphics/SVG/1.1/DTD/svg11.dtd">
<!-- Generated by graphviz version 2.43.0 (0)
 -->
<!-- Title: llvm::codeview::TagRecord Pages: 1 -->
<svg width="479pt" height="140pt"
 viewBox="0.00 0.00 479.00 140.00" xmlns="http://www.w3.org/2000/svg" xmlns:xlink="http://www.w3.org/1999/xlink">
<g id="graph0" class="graph" transform="scale(1 1) rotate(0) translate(4 136)">
<title>llvm::codeview::TagRecord</title>
<!-- Node0 -->
<g id="node1" class="node">
<title>Node0</title>
<polygon fill="#bfbfbf" stroke="black" points="167.5,-56.5 167.5,-75.5 303.5,-75.5 303.5,-56.5 167.5,-56.5"/>
<text text-anchor="middle" x="235.5" y="-63.5" font-family="Helvetica,sans-Serif" font-size="10.00">llvm::codeview::TagRecord</text>
</g>
<!-- Node2 -->
<g id="node3" class="node">
<title>Node2</title>
<g id="a_node3"><a xlink:href="classllvm_1_1codeview_1_1ClassRecord.html" target="_top" xlink:title="llvm::codeview::ClassRecord">
<polygon fill="none" stroke="black" points="0,-0.5 0,-19.5 145,-19.5 145,-0.5 0,-0.5"/>
<text text-anchor="middle" x="72.5" y="-7.5" font-family="Helvetica,sans-Serif" font-size="10.00">llvm::codeview::ClassRecord</text>
</a>
</g>
</g>
<!-- Node0&#45;&gt;Node2 -->
<g id="edge2" class="edge">
<title>Node0&#45;&gt;Node2</title>
<path fill="none" stroke="midnightblue" d="M199.8,-53.17C169.1,-43 125.58,-28.59 98.21,-19.52"/>
<polygon fill="midnightblue" stroke="midnightblue" points="199.08,-56.62 209.67,-56.44 201.28,-49.98 199.08,-56.62"/>
</g>
<!-- Node3 -->
<g id="node4" class="node">
<title>Node3</title>
<g id="a_node4"><a xlink:href="classllvm_1_1codeview_1_1EnumRecord.html" target="_top" xlink:title="llvm::codeview::EnumRecord">
<polygon fill="none" stroke="black" points="163,-0.5 163,-19.5 308,-19.5 308,-0.5 163,-0.5"/>
<text text-anchor="middle" x="235.5" y="-7.5" font-family="Helvetica,sans-Serif" font-size="10.00">llvm::codeview::EnumRecord</text>
</a>
</g>
</g>
<!-- Node0&#45;&gt;Node3 -->
<g id="edge3" class="edge">
<title>Node0&#45;&gt;Node3</title>
<path fill="none" stroke="midnightblue" d="M235.5,-45.8C235.5,-36.91 235.5,-26.78 235.5,-19.75"/>
<polygon fill="midnightblue" stroke="midnightblue" points="232,-46.08 235.5,-56.08 239,-46.08 232,-46.08"/>
</g>
<!-- Node4 -->
<g id="node5" class="node">
<title>Node4</title>
<g id="a_node5"><a xlink:href="structllvm_1_1codeview_1_1UnionRecord.html" target="_top" xlink:title="llvm::codeview::UnionRecord">
<polygon fill="none" stroke="black" points="326,-0.5 326,-19.5 471,-19.5 471,-0.5 326,-0.5"/>
<text text-anchor="middle" x="398.5" y="-7.5" font-family="Helvetica,sans-Serif" font-size="10.00">llvm::codeview::UnionRecord</text>
</a>
</g>
</g>
<!-- Node0&#45;&gt;Node4 -->
<g id="edge4" class="edge">
<title>Node0&#45;&gt;Node4</title>
<path fill="none" stroke="midnightblue" d="M271.2,-53.17C301.9,-43 345.42,-28.59 372.79,-19.52"/>
<polygon fill="midnightblue" stroke="midnightblue" points="269.72,-49.98 261.33,-56.44 271.92,-56.62 269.72,-49.98"/>
</g>
<!-- Node1 -->
<g id="node2" class="node">
<title>Node1</title>
<g id="a_node2"><a xlink:href="classllvm_1_1codeview_1_1TypeRecord.html" target="_top" xlink:title="llvm::codeview::TypeRecord">
<polygon fill="none" stroke="black" points="165,-112.5 165,-131.5 306,-131.5 306,-112.5 165,-112.5"/>
<text text-anchor="middle" x="235.5" y="-119.5" font-family="Helvetica,sans-Serif" font-size="10.00">llvm::codeview::TypeRecord</text>
</a>
</g>
</g>
<!-- Node1&#45;&gt;Node0 -->
<g id="edge1" class="edge">
<title>Node1&#45;&gt;Node0</title>
<path fill="none" stroke="midnightblue" d="M235.5,-101.8C235.5,-92.91 235.5,-82.78 235.5,-75.75"/>
<polygon fill="midnightblue" stroke="midnightblue" points="232,-102.08 235.5,-112.08 239,-102.08 232,-102.08"/>
</g>
</g>
</svg>
