<?xml version="1.0" encoding="UTF-8" standalone="no"?>
<!DOCTYPE svg PUBLIC "-//W3C//DTD SVG 1.1//EN"
 "http://www.w3.org/Graphics/SVG/1.1/DTD/svg11.dtd">
<!-- Generated by graphviz version 2.43.0 (0)
 -->
<!-- Title: llvm::MachineModuleInfoImpl Pages: 1 -->
<svg width="551pt" height="104pt"
 viewBox="0.00 0.00 551.00 104.00" xmlns="http://www.w3.org/2000/svg" xmlns:xlink="http://www.w3.org/1999/xlink">
<g id="graph0" class="graph" transform="scale(1 1) rotate(0) translate(4 100)">
<title>llvm::MachineModuleInfoImpl</title>
<!-- Node0 -->
<g id="node1" class="node">
<title>Node0</title>
<polygon fill="#bfbfbf" stroke="black" points="0,-38.5 0,-57.5 144,-57.5 144,-38.5 0,-38.5"/>
<text text-anchor="middle" x="72" y="-45.5" font-family="Helvetica,sans-Serif" font-size="10.00">llvm::MachineModuleInfoImpl</text>
</g>
<!-- Node1 -->
<g id="node2" class="node">
<title>Node1</title>
<g id="a_node2"><a xlink:href="classllvm_1_1MachineModuleInfoCOFF.html" target="_top" xlink:title="MachineModuleInfoCOFF &#45; This is a MachineModuleInfoImpl implementation for COFF targets. ">
<polygon fill="none" stroke="black" points="182.5,-76.5 182.5,-95.5 334.5,-95.5 334.5,-76.5 182.5,-76.5"/>
<text text-anchor="middle" x="258.5" y="-83.5" font-family="Helvetica,sans-Serif" font-size="10.00">llvm::MachineModuleInfoCOFF</text>
</a>
</g>
</g>
<!-- Node0&#45;&gt;Node1 -->
<g id="edge1" class="edge">
<title>Node0&#45;&gt;Node1</title>
<path fill="none" stroke="midnightblue" d="M129.37,-59.61C155.61,-65.01 186.44,-71.36 211.28,-76.48"/>
<polygon fill="midnightblue" stroke="midnightblue" points="130.06,-56.18 119.56,-57.59 128.65,-63.03 130.06,-56.18"/>
</g>
<!-- Node2 -->
<g id="node3" class="node">
<title>Node2</title>
<g id="a_node3"><a xlink:href="classllvm_1_1MachineModuleInfoELF.html" target="_top" xlink:title="MachineModuleInfoELF &#45; This is a MachineModuleInfoImpl implementation for ELF targets. ">
<polygon fill="none" stroke="black" points="187,-38.5 187,-57.5 330,-57.5 330,-38.5 187,-38.5"/>
<text text-anchor="middle" x="258.5" y="-45.5" font-family="Helvetica,sans-Serif" font-size="10.00">llvm::MachineModuleInfoELF</text>
</a>
</g>
</g>
<!-- Node0&#45;&gt;Node2 -->
<g id="edge2" class="edge">
<title>Node0&#45;&gt;Node2</title>
<path fill="none" stroke="midnightblue" d="M154.35,-48C165.16,-48 176.16,-48 186.77,-48"/>
<polygon fill="midnightblue" stroke="midnightblue" points="154.07,-44.5 144.07,-48 154.07,-51.5 154.07,-44.5"/>
</g>
<!-- Node4 -->
<g id="node5" class="node">
<title>Node4</title>
<g id="a_node5"><a xlink:href="classllvm_1_1MachineModuleInfoMachO.html" target="_top" xlink:title="MachineModuleInfoMachO &#45; This is a MachineModuleInfoImpl implementation for MachO targets...">
<polygon fill="none" stroke="black" points="180,-0.5 180,-19.5 337,-19.5 337,-0.5 180,-0.5"/>
<text text-anchor="middle" x="258.5" y="-7.5" font-family="Helvetica,sans-Serif" font-size="10.00">llvm::MachineModuleInfoMachO</text>
</a>
</g>
</g>
<!-- Node0&#45;&gt;Node4 -->
<g id="edge4" class="edge">
<title>Node0&#45;&gt;Node4</title>
<path fill="none" stroke="midnightblue" d="M129.37,-36.39C155.61,-30.99 186.44,-24.64 211.28,-19.52"/>
<polygon fill="midnightblue" stroke="midnightblue" points="128.65,-32.97 119.56,-38.41 130.06,-39.82 128.65,-32.97"/>
</g>
<!-- Node3 -->
<g id="node4" class="node">
<title>Node3</title>
<g id="a_node4"><a xlink:href="classllvm_1_1AMDGPUMachineModuleInfo.html" target="_top" xlink:title="llvm::AMDGPUMachineModuleInfo">
<polygon fill="none" stroke="black" points="373,-38.5 373,-57.5 543,-57.5 543,-38.5 373,-38.5"/>
<text text-anchor="middle" x="458" y="-45.5" font-family="Helvetica,sans-Serif" font-size="10.00">llvm::AMDGPUMachineModuleInfo</text>
</a>
</g>
</g>
<!-- Node2&#45;&gt;Node3 -->
<g id="edge3" class="edge">
<title>Node2&#45;&gt;Node3</title>
<path fill="none" stroke="midnightblue" d="M340.42,-48C351.14,-48 362.16,-48 372.93,-48"/>
<polygon fill="midnightblue" stroke="midnightblue" points="340.24,-44.5 330.24,-48 340.24,-51.5 340.24,-44.5"/>
</g>
</g>
</svg>
