<?xml version="1.0" encoding="UTF-8" standalone="no"?>
<!DOCTYPE svg PUBLIC "-//W3C//DTD SVG 1.1//EN"
 "http://www.w3.org/Graphics/SVG/1.1/DTD/svg11.dtd">
<!-- Generated by graphviz version 2.43.0 (0)
 -->
<!-- Title: llvm::DiagnosticInfoResourceLimit Pages: 1 -->
<svg width="157pt" height="151pt"
 viewBox="0.00 0.00 157.00 151.00" xmlns="http://www.w3.org/2000/svg" xmlns:xlink="http://www.w3.org/1999/xlink">
<g id="graph0" class="graph" transform="scale(1 1) rotate(0) translate(4 147)">
<title>llvm::DiagnosticInfoResourceLimit</title>
<!-- Node0 -->
<g id="node1" class="node">
<title>Node0</title>
<polygon fill="#bfbfbf" stroke="black" points="1.5,-56.5 1.5,-86.5 147.5,-86.5 147.5,-56.5 1.5,-56.5"/>
<text text-anchor="start" x="9.5" y="-74.5" font-family="Helvetica,sans-Serif" font-size="10.00">llvm::DiagnosticInfoResource</text>
<text text-anchor="middle" x="74.5" y="-63.5" font-family="Helvetica,sans-Serif" font-size="10.00">Limit</text>
</g>
<!-- Node2 -->
<g id="node3" class="node">
<title>Node2</title>
<g id="a_node3"><a xlink:href="classllvm_1_1DiagnosticInfoStackSize.html" target="_top" xlink:title="llvm::DiagnosticInfoStackSize">
<polygon fill="none" stroke="black" points="0,-0.5 0,-19.5 149,-19.5 149,-0.5 0,-0.5"/>
<text text-anchor="middle" x="74.5" y="-7.5" font-family="Helvetica,sans-Serif" font-size="10.00">llvm::DiagnosticInfoStackSize</text>
</a>
</g>
</g>
<!-- Node0&#45;&gt;Node2 -->
<g id="edge2" class="edge">
<title>Node0&#45;&gt;Node2</title>
<path fill="none" stroke="midnightblue" d="M74.5,-46.29C74.5,-36.86 74.5,-26.65 74.5,-19.66"/>
<polygon fill="midnightblue" stroke="midnightblue" points="71,-46.4 74.5,-56.4 78,-46.4 71,-46.4"/>
</g>
<!-- Node1 -->
<g id="node2" class="node">
<title>Node1</title>
<g id="a_node2"><a xlink:href="classllvm_1_1DiagnosticInfo.html" target="_top" xlink:title="This is the base abstract class for diagnostic reporting in the backend. ">
<polygon fill="none" stroke="black" points="22.5,-123.5 22.5,-142.5 126.5,-142.5 126.5,-123.5 22.5,-123.5"/>
<text text-anchor="middle" x="74.5" y="-130.5" font-family="Helvetica,sans-Serif" font-size="10.00">llvm::DiagnosticInfo</text>
</a>
</g>
</g>
<!-- Node1&#45;&gt;Node0 -->
<g id="edge1" class="edge">
<title>Node1&#45;&gt;Node0</title>
<path fill="none" stroke="midnightblue" d="M74.5,-113.23C74.5,-104.59 74.5,-94.5 74.5,-86.52"/>
<polygon fill="midnightblue" stroke="midnightblue" points="71,-113.48 74.5,-123.48 78,-113.48 71,-113.48"/>
</g>
</g>
</svg>
