<?xml version="1.0" encoding="UTF-8" standalone="no"?>
<!DOCTYPE svg PUBLIC "-//W3C//DTD SVG 1.1//EN"
 "http://www.w3.org/Graphics/SVG/1.1/DTD/svg11.dtd">
<!-- Generated by graphviz version 2.43.0 (0)
 -->
<!-- Title: llvm::legacy::FunctionPassManagerImpl Pages: 1 -->
<svg width="355pt" height="95pt"
 viewBox="0.00 0.00 355.00 95.00" xmlns="http://www.w3.org/2000/svg" xmlns:xlink="http://www.w3.org/1999/xlink">
<g id="graph0" class="graph" transform="scale(1 1) rotate(0) translate(4 91)">
<title>llvm::legacy::FunctionPassManagerImpl</title>
<!-- Node0 -->
<g id="node1" class="node">
<title>Node0</title>
<polygon fill="#bfbfbf" stroke="black" points="71,-0.5 71,-30.5 206,-30.5 206,-0.5 71,-0.5"/>
<text text-anchor="start" x="79" y="-18.5" font-family="Helvetica,sans-Serif" font-size="10.00">llvm::legacy::FunctionPass</text>
<text text-anchor="middle" x="138.5" y="-7.5" font-family="Helvetica,sans-Serif" font-size="10.00">ManagerImpl</text>
</g>
<!-- Node1 -->
<g id="node2" class="node">
<title>Node1</title>
<g id="a_node2"><a xlink:href="classllvm_1_1Pass.html" target="_top" xlink:title="Pass interface &#45; Implemented by all &#39;passes&#39;. ">
<polygon fill="none" stroke="black" points="0,-67.5 0,-86.5 63,-86.5 63,-67.5 0,-67.5"/>
<text text-anchor="middle" x="31.5" y="-74.5" font-family="Helvetica,sans-Serif" font-size="10.00">llvm::Pass</text>
</a>
</g>
</g>
<!-- Node1&#45;&gt;Node0 -->
<g id="edge1" class="edge">
<title>Node1&#45;&gt;Node0</title>
<path fill="none" stroke="midnightblue" d="M55.7,-62.54C72.88,-52.99 95.88,-40.2 113.28,-30.52"/>
<polygon fill="midnightblue" stroke="midnightblue" points="53.87,-59.56 46.83,-67.48 57.27,-65.67 53.87,-59.56"/>
</g>
<!-- Node2 -->
<g id="node3" class="node">
<title>Node2</title>
<g id="a_node3"><a xlink:href="classllvm_1_1PMDataManager.html" target="_top" xlink:title="PMDataManager provides the common place to manage the analysis data used by pass managers. ">
<polygon fill="none" stroke="black" points="81.5,-67.5 81.5,-86.5 195.5,-86.5 195.5,-67.5 81.5,-67.5"/>
<text text-anchor="middle" x="138.5" y="-74.5" font-family="Helvetica,sans-Serif" font-size="10.00">llvm::PMDataManager</text>
</a>
</g>
</g>
<!-- Node2&#45;&gt;Node0 -->
<g id="edge2" class="edge">
<title>Node2&#45;&gt;Node0</title>
<path fill="none" stroke="midnightblue" d="M138.5,-57.23C138.5,-48.59 138.5,-38.5 138.5,-30.52"/>
<polygon fill="midnightblue" stroke="midnightblue" points="135,-57.48 138.5,-67.48 142,-57.48 135,-57.48"/>
</g>
<!-- Node3 -->
<g id="node4" class="node">
<title>Node3</title>
<g id="a_node4"><a xlink:href="classllvm_1_1PMTopLevelManager.html" target="_top" xlink:title="PMTopLevelManager manages LastUser info and collects common APIs used by top level pass managers...">
<polygon fill="none" stroke="black" points="214,-67.5 214,-86.5 347,-86.5 347,-67.5 214,-67.5"/>
<text text-anchor="middle" x="280.5" y="-74.5" font-family="Helvetica,sans-Serif" font-size="10.00">llvm::PMTopLevelManager</text>
</a>
</g>
</g>
<!-- Node3&#45;&gt;Node0 -->
<g id="edge3" class="edge">
<title>Node3&#45;&gt;Node0</title>
<path fill="none" stroke="midnightblue" d="M250.88,-63.59C227.86,-53.94 195.91,-40.56 171.97,-30.52"/>
<polygon fill="midnightblue" stroke="midnightblue" points="249.58,-66.84 260.15,-67.48 252.28,-60.38 249.58,-66.84"/>
</g>
</g>
</svg>
