<?xml version="1.0" encoding="UTF-8" standalone="no"?>
<!DOCTYPE svg PUBLIC "-//W3C//DTD SVG 1.1//EN"
 "http://www.w3.org/Graphics/SVG/1.1/DTD/svg11.dtd">
<!-- Generated by graphviz version 2.43.0 (0)
 -->
<!-- Title: llvm::Resolver Pages: 1 -->
<svg width="278pt" height="218pt"
 viewBox="0.00 0.00 278.00 218.00" xmlns="http://www.w3.org/2000/svg" xmlns:xlink="http://www.w3.org/1999/xlink">
<g id="graph0" class="graph" transform="scale(1 1) rotate(0) translate(4 214)">
<title>llvm::Resolver</title>
<!-- Node0 -->
<g id="node1" class="node">
<title>Node0</title>
<polygon fill="#bfbfbf" stroke="black" points="0,-95.5 0,-114.5 80,-114.5 80,-95.5 0,-95.5"/>
<text text-anchor="middle" x="40" y="-102.5" font-family="Helvetica,sans-Serif" font-size="10.00">llvm::Resolver</text>
</g>
<!-- Node1 -->
<g id="node2" class="node">
<title>Node1</title>
<g id="a_node2"><a xlink:href="classllvm_1_1HasReferenceResolver.html" target="_top" xlink:title="Do not resolve anything, but keep track of whether a given variable was referenced. ">
<polygon fill="none" stroke="black" points="121.5,-190.5 121.5,-209.5 264.5,-209.5 264.5,-190.5 121.5,-190.5"/>
<text text-anchor="middle" x="193" y="-197.5" font-family="Helvetica,sans-Serif" font-size="10.00">llvm::HasReferenceResolver</text>
</a>
</g>
</g>
<!-- Node0&#45;&gt;Node1 -->
<g id="edge1" class="edge">
<title>Node0&#45;&gt;Node1</title>
<path fill="none" stroke="midnightblue" d="M53.84,-122.82C67.36,-140.26 90.22,-166.29 116,-181 122.85,-184.91 130.5,-188.02 138.23,-190.5"/>
<polygon fill="midnightblue" stroke="midnightblue" points="56.46,-120.48 47.66,-114.58 50.86,-124.68 56.46,-120.48"/>
</g>
<!-- Node2 -->
<g id="node3" class="node">
<title>Node2</title>
<g id="a_node3"><a xlink:href="classllvm_1_1MapResolver.html" target="_top" xlink:title="Resolve arbitrary mappings. ">
<polygon fill="none" stroke="black" points="144,-152.5 144,-171.5 242,-171.5 242,-152.5 144,-152.5"/>
<text text-anchor="middle" x="193" y="-159.5" font-family="Helvetica,sans-Serif" font-size="10.00">llvm::MapResolver</text>
</a>
</g>
</g>
<!-- Node0&#45;&gt;Node2 -->
<g id="edge2" class="edge">
<title>Node0&#45;&gt;Node2</title>
<path fill="none" stroke="midnightblue" d="M66.35,-119.64C80.59,-127.4 98.89,-136.62 116,-143 125.81,-146.66 136.6,-149.84 146.88,-152.49"/>
<polygon fill="midnightblue" stroke="midnightblue" points="67.64,-116.35 57.2,-114.55 64.24,-122.47 67.64,-116.35"/>
</g>
<!-- Node3 -->
<g id="node4" class="node">
<title>Node3</title>
<g id="a_node4"><a xlink:href="classllvm_1_1RecordResolver.html" target="_top" xlink:title="Resolve all variables from a record except for unset variables. ">
<polygon fill="none" stroke="black" points="137.5,-114.5 137.5,-133.5 248.5,-133.5 248.5,-114.5 137.5,-114.5"/>
<text text-anchor="middle" x="193" y="-121.5" font-family="Helvetica,sans-Serif" font-size="10.00">llvm::RecordResolver</text>
</a>
</g>
</g>
<!-- Node0&#45;&gt;Node3 -->
<g id="edge3" class="edge">
<title>Node0&#45;&gt;Node3</title>
<path fill="none" stroke="midnightblue" d="M90.38,-111.21C105.38,-113.1 121.96,-115.19 137.29,-117.12"/>
<polygon fill="midnightblue" stroke="midnightblue" points="90.64,-107.72 80.28,-109.94 89.76,-114.66 90.64,-107.72"/>
</g>
<!-- Node4 -->
<g id="node5" class="node">
<title>Node4</title>
<g id="a_node5"><a xlink:href="classllvm_1_1RecordValResolver.html" target="_top" xlink:title="Resolve all references to a specific RecordVal. ">
<polygon fill="none" stroke="black" points="130.5,-76.5 130.5,-95.5 255.5,-95.5 255.5,-76.5 130.5,-76.5"/>
<text text-anchor="middle" x="193" y="-83.5" font-family="Helvetica,sans-Serif" font-size="10.00">llvm::RecordValResolver</text>
</a>
</g>
</g>
<!-- Node0&#45;&gt;Node4 -->
<g id="edge4" class="edge">
<title>Node0&#45;&gt;Node4</title>
<path fill="none" stroke="midnightblue" d="M90.27,-98.8C103.08,-97.19 117.03,-95.43 130.39,-93.75"/>
<polygon fill="midnightblue" stroke="midnightblue" points="89.76,-95.34 80.28,-100.06 90.64,-102.28 89.76,-95.34"/>
</g>
<!-- Node5 -->
<g id="node6" class="node">
<title>Node5</title>
<g id="a_node6"><a xlink:href="classllvm_1_1ShadowResolver.html" target="_top" xlink:title="Delegate resolving to a sub&#45;resolver, but shadow some variable names. ">
<polygon fill="none" stroke="black" points="135.5,-38.5 135.5,-57.5 250.5,-57.5 250.5,-38.5 135.5,-38.5"/>
<text text-anchor="middle" x="193" y="-45.5" font-family="Helvetica,sans-Serif" font-size="10.00">llvm::ShadowResolver</text>
</a>
</g>
</g>
<!-- Node0&#45;&gt;Node5 -->
<g id="edge5" class="edge">
<title>Node0&#45;&gt;Node5</title>
<path fill="none" stroke="midnightblue" d="M66.35,-90.36C80.59,-82.6 98.89,-73.38 116,-67 125.81,-63.34 136.6,-60.16 146.88,-57.51"/>
<polygon fill="midnightblue" stroke="midnightblue" points="64.24,-87.53 57.2,-95.45 67.64,-93.65 64.24,-87.53"/>
</g>
<!-- Node6 -->
<g id="node7" class="node">
<title>Node6</title>
<g id="a_node7"><a xlink:href="classllvm_1_1TrackUnresolvedResolver.html" target="_top" xlink:title="(Optionally) delegate resolving to a sub&#45;resolver, and keep track whether there were unresolved refer...">
<polygon fill="none" stroke="black" points="116,-0.5 116,-19.5 270,-19.5 270,-0.5 116,-0.5"/>
<text text-anchor="middle" x="193" y="-7.5" font-family="Helvetica,sans-Serif" font-size="10.00">llvm::TrackUnresolvedResolver</text>
</a>
</g>
</g>
<!-- Node0&#45;&gt;Node6 -->
<g id="edge6" class="edge">
<title>Node0&#45;&gt;Node6</title>
<path fill="none" stroke="midnightblue" d="M53.84,-87.18C67.36,-69.74 90.22,-43.71 116,-29 122.85,-25.09 130.5,-21.98 138.23,-19.5"/>
<polygon fill="midnightblue" stroke="midnightblue" points="50.86,-85.32 47.66,-95.42 56.46,-89.52 50.86,-85.32"/>
</g>
</g>
</svg>
