<?xml version="1.0" encoding="UTF-8" standalone="no"?>
<!DOCTYPE svg PUBLIC "-//W3C//DTD SVG 1.1//EN"
 "http://www.w3.org/Graphics/SVG/1.1/DTD/svg11.dtd">
<!-- Generated by graphviz version 2.43.0 (0)
 -->
<!-- Title: llvm::DWARFAcceleratorTable Pages: 1 -->
<svg width="304pt" height="84pt"
 viewBox="0.00 0.00 303.50 84.00" xmlns="http://www.w3.org/2000/svg" xmlns:xlink="http://www.w3.org/1999/xlink">
<g id="graph0" class="graph" transform="scale(1 1) rotate(0) translate(4 80)">
<title>llvm::DWARFAcceleratorTable</title>
<!-- Node0 -->
<g id="node1" class="node">
<title>Node0</title>
<polygon fill="#bfbfbf" stroke="black" points="71.5,-56.5 71.5,-75.5 223.5,-75.5 223.5,-56.5 71.5,-56.5"/>
<text text-anchor="middle" x="147.5" y="-63.5" font-family="Helvetica,sans-Serif" font-size="10.00">llvm::DWARFAcceleratorTable</text>
</g>
<!-- Node1 -->
<g id="node2" class="node">
<title>Node1</title>
<g id="a_node2"><a xlink:href="classllvm_1_1AppleAcceleratorTable.html" target="_top" xlink:title="This implements the Apple accelerator table format, a precursor of the DWARF 5 accelerator table form...">
<polygon fill="none" stroke="black" points="0,-0.5 0,-19.5 139,-19.5 139,-0.5 0,-0.5"/>
<text text-anchor="middle" x="69.5" y="-7.5" font-family="Helvetica,sans-Serif" font-size="10.00">llvm::AppleAcceleratorTable</text>
</a>
</g>
</g>
<!-- Node0&#45;&gt;Node1 -->
<g id="edge1" class="edge">
<title>Node0&#45;&gt;Node1</title>
<path fill="none" stroke="midnightblue" d="M126.73,-50.62C112.48,-40.76 94.04,-27.99 82,-19.65"/>
<polygon fill="midnightblue" stroke="midnightblue" points="124.75,-53.51 134.97,-56.32 128.74,-47.75 124.75,-53.51"/>
</g>
<!-- Node2 -->
<g id="node3" class="node">
<title>Node2</title>
<g id="a_node3"><a xlink:href="classllvm_1_1DWARFDebugNames.html" target="_top" xlink:title=".debug_names section consists of one or more units. ">
<polygon fill="none" stroke="black" points="157.5,-0.5 157.5,-19.5 295.5,-19.5 295.5,-0.5 157.5,-0.5"/>
<text text-anchor="middle" x="226.5" y="-7.5" font-family="Helvetica,sans-Serif" font-size="10.00">llvm::DWARFDebugNames</text>
</a>
</g>
</g>
<!-- Node0&#45;&gt;Node2 -->
<g id="edge2" class="edge">
<title>Node0&#45;&gt;Node2</title>
<path fill="none" stroke="midnightblue" d="M168.53,-50.62C182.97,-40.76 201.64,-27.99 213.84,-19.65"/>
<polygon fill="midnightblue" stroke="midnightblue" points="166.47,-47.79 160.19,-56.32 170.42,-53.57 166.47,-47.79"/>
</g>
</g>
</svg>
