<?xml version="1.0" encoding="UTF-8" standalone="no"?>
<!DOCTYPE svg PUBLIC "-//W3C//DTD SVG 1.1//EN"
 "http://www.w3.org/Graphics/SVG/1.1/DTD/svg11.dtd">
<!-- Generated by graphviz version 2.43.0 (0)
 -->
<!-- Title: llvm::orc::rpc::CouldNotNegotiate Pages: 1 -->
<svg width="246pt" height="252pt"
 viewBox="0.00 0.00 246.00 252.00" xmlns="http://www.w3.org/2000/svg" xmlns:xlink="http://www.w3.org/1999/xlink">
<g id="graph0" class="graph" transform="scale(1 1) rotate(0) translate(4 248)">
<title>llvm::orc::rpc::CouldNotNegotiate</title>
<!-- Node5 -->
<g id="node1" class="node">
<title>Node5</title>
<polygon fill="#bfbfbf" stroke="black" points="56,-0.5 56,-30.5 177,-30.5 177,-0.5 56,-0.5"/>
<text text-anchor="start" x="64" y="-18.5" font-family="Helvetica,sans-Serif" font-size="10.00">llvm::orc::rpc::CouldNot</text>
<text text-anchor="middle" x="116.5" y="-7.5" font-family="Helvetica,sans-Serif" font-size="10.00">Negotiate</text>
</g>
<!-- Node6 -->
<g id="node2" class="node">
<title>Node6</title>
<g id="a_node2"><a xlink:href="classllvm_1_1ErrorInfo.html" target="_top" xlink:title="llvm::ErrorInfo\&lt; CouldNot\lNegotiate \&gt;">
<polygon fill="none" stroke="black" points="2.5,-78.5 2.5,-108.5 130.5,-108.5 130.5,-78.5 2.5,-78.5"/>
<text text-anchor="start" x="10.5" y="-96.5" font-family="Helvetica,sans-Serif" font-size="10.00">llvm::ErrorInfo&lt; CouldNot</text>
<text text-anchor="middle" x="66.5" y="-85.5" font-family="Helvetica,sans-Serif" font-size="10.00">Negotiate &gt;</text>
</a>
</g>
</g>
<!-- Node6&#45;&gt;Node5 -->
<g id="edge1" class="edge">
<title>Node6&#45;&gt;Node5</title>
<path fill="none" stroke="midnightblue" d="M81.58,-69.57C89.9,-56.94 99.96,-41.65 107.14,-30.73"/>
<polygon fill="midnightblue" stroke="midnightblue" points="78.48,-67.93 75.9,-78.2 84.32,-71.77 78.48,-67.93"/>
</g>
<!-- Node7 -->
<g id="node3" class="node">
<title>Node7</title>
<g id="a_node3"><a xlink:href="classllvm_1_1ErrorInfoBase.html" target="_top" xlink:title="Base class for error info classes. ">
<polygon fill="none" stroke="black" points="0,-162 0,-181 101,-181 101,-162 0,-162"/>
<text text-anchor="middle" x="50.5" y="-169" font-family="Helvetica,sans-Serif" font-size="10.00">llvm::ErrorInfoBase</text>
</a>
</g>
</g>
<!-- Node7&#45;&gt;Node6 -->
<g id="edge2" class="edge">
<title>Node7&#45;&gt;Node6</title>
<path fill="none" stroke="midnightblue" d="M54.44,-151.78C57.26,-138.4 60.99,-120.69 63.55,-108.52"/>
<polygon fill="midnightblue" stroke="midnightblue" points="50.97,-151.28 52.34,-161.78 57.82,-152.72 50.97,-151.28"/>
</g>
<!-- Node8 -->
<g id="node4" class="node">
<title>Node8</title>
<g id="a_node4"><a xlink:href="classllvm_1_1ErrorInfo.html" target="_top" xlink:title="Base class for user error types. ">
<polygon fill="none" stroke="black" points="119,-156.5 119,-186.5 238,-186.5 238,-156.5 119,-156.5"/>
<text text-anchor="start" x="127" y="-174.5" font-family="Helvetica,sans-Serif" font-size="10.00">llvm::ErrorInfo&lt; ThisErr</text>
<text text-anchor="middle" x="178.5" y="-163.5" font-family="Helvetica,sans-Serif" font-size="10.00">T, ParentErrT &gt;</text>
</a>
</g>
</g>
<!-- Node8&#45;&gt;Node6 -->
<g id="edge3" class="edge">
<title>Node8&#45;&gt;Node6</title>
<path fill="none" stroke="orange" stroke-dasharray="5,2" d="M149.19,-150.61C129.71,-137.39 104.6,-120.36 87.19,-108.54"/>
<polygon fill="orange" stroke="orange" points="147.46,-153.66 157.7,-156.38 151.39,-147.87 147.46,-153.66"/>
<text text-anchor="middle" x="182" y="-130" font-family="Helvetica,sans-Serif" font-size="10.00"> &lt; CouldNotNegotiate &gt;</text>
</g>
<!-- Node9 -->
<g id="node5" class="node">
<title>Node9</title>
<g id="a_node5"><a xlink:href="classllvm_1_1ParentErrT.html" target="_top" xlink:title="ParentErrT">
<polygon fill="none" stroke="black" points="146.5,-224.5 146.5,-243.5 210.5,-243.5 210.5,-224.5 146.5,-224.5"/>
<text text-anchor="middle" x="178.5" y="-231.5" font-family="Helvetica,sans-Serif" font-size="10.00">ParentErrT</text>
</a>
</g>
</g>
<!-- Node9&#45;&gt;Node8 -->
<g id="edge4" class="edge">
<title>Node9&#45;&gt;Node8</title>
<path fill="none" stroke="midnightblue" d="M178.5,-214.22C178.5,-205.36 178.5,-194.96 178.5,-186.76"/>
<polygon fill="midnightblue" stroke="midnightblue" points="175,-214.33 178.5,-224.33 182,-214.33 175,-214.33"/>
</g>
<!-- Node10 -->
<g id="node6" class="node">
<title>Node10</title>
<g id="a_node6"><a xlink:href="classchar.html" target="_top" xlink:title="char">
<polygon fill="none" stroke="black" points="149,-84 149,-103 184,-103 184,-84 149,-84"/>
<text text-anchor="middle" x="166.5" y="-91" font-family="Helvetica,sans-Serif" font-size="10.00">char</text>
</a>
</g>
</g>
<!-- Node10&#45;&gt;Node5 -->
<g id="edge5" class="edge">
<title>Node10&#45;&gt;Node5</title>
<path fill="none" stroke="#9a32cd" stroke-dasharray="5,2" d="M155.23,-75.37C146.32,-61.83 134.05,-43.17 125.72,-30.52"/>
<polygon fill="#9a32cd" stroke="#9a32cd" points="152.34,-77.35 160.76,-83.78 158.19,-73.5 152.34,-77.35"/>
<text text-anchor="middle" x="150.5" y="-52" font-family="Helvetica,sans-Serif" font-size="10.00"> ID</text>
</g>
</g>
</svg>
