<?xml version="1.0" encoding="UTF-8" standalone="no"?>
<!DOCTYPE svg PUBLIC "-//W3C//DTD SVG 1.1//EN"
 "http://www.w3.org/Graphics/SVG/1.1/DTD/svg11.dtd">
<!-- Generated by graphviz version 2.43.0 (0)
 -->
<!-- Title: llvm::codeview::RegRelativeSym Pages: 1 -->
<svg width="632pt" height="210pt"
 viewBox="0.00 0.00 632.00 210.00" xmlns="http://www.w3.org/2000/svg" xmlns:xlink="http://www.w3.org/1999/xlink">
<g id="graph0" class="graph" transform="scale(1 1) rotate(0) translate(4 206)">
<title>llvm::codeview::RegRelativeSym</title>
<!-- Node2 -->
<g id="node1" class="node">
<title>Node2</title>
<polygon fill="#bfbfbf" stroke="black" points="462,-93.5 462,-112.5 624,-112.5 624,-93.5 462,-93.5"/>
<text text-anchor="middle" x="543" y="-100.5" font-family="Helvetica,sans-Serif" font-size="10.00">llvm::codeview::RegRelativeSym</text>
</g>
<!-- Node3 -->
<g id="node2" class="node">
<title>Node3</title>
<g id="a_node2"><a xlink:href="classllvm_1_1codeview_1_1SymbolRecord.html" target="_top" xlink:title="llvm::codeview::SymbolRecord">
<polygon fill="none" stroke="black" points="234,-181.5 234,-200.5 386,-200.5 386,-181.5 234,-181.5"/>
<text text-anchor="middle" x="310" y="-188.5" font-family="Helvetica,sans-Serif" font-size="10.00">llvm::codeview::SymbolRecord</text>
</a>
</g>
</g>
<!-- Node3&#45;&gt;Node2 -->
<g id="edge1" class="edge">
<title>Node3&#45;&gt;Node2</title>
<path fill="none" stroke="midnightblue" d="M363.63,-178.8C371.2,-176.72 378.84,-174.43 386,-172 437.03,-154.66 494.35,-127.1 523.22,-112.62"/>
<polygon fill="midnightblue" stroke="midnightblue" points="362.55,-175.46 353.78,-181.41 364.35,-182.23 362.55,-175.46"/>
</g>
<!-- Node4 -->
<g id="node3" class="node">
<title>Node4</title>
<polygon fill="none" stroke="#bfbfbf" points="0,-181.5 0,-200.5 101,-200.5 101,-181.5 0,-181.5"/>
<text text-anchor="middle" x="50.5" y="-188.5" font-family="Helvetica,sans-Serif" font-size="10.00">SymbolRecordKind</text>
</g>
<!-- Node4&#45;&gt;Node3 -->
<g id="edge2" class="edge">
<title>Node4&#45;&gt;Node3</title>
<path fill="none" stroke="#9a32cd" stroke-dasharray="5,2" d="M111.61,-191C148.01,-191 194.77,-191 233.63,-191"/>
<polygon fill="#9a32cd" stroke="#9a32cd" points="111.15,-187.5 101.15,-191 111.15,-194.5 111.15,-187.5"/>
<text text-anchor="middle" x="167.5" y="-194" font-family="Helvetica,sans-Serif" font-size="10.00"> Kind</text>
</g>
<!-- Node5 -->
<g id="node4" class="node">
<title>Node5</title>
<polygon fill="none" stroke="#bfbfbf" points="279,-143.5 279,-162.5 341,-162.5 341,-143.5 279,-143.5"/>
<text text-anchor="middle" x="310" y="-150.5" font-family="Helvetica,sans-Serif" font-size="10.00">RegisterId</text>
</g>
<!-- Node5&#45;&gt;Node2 -->
<g id="edge3" class="edge">
<title>Node5&#45;&gt;Node2</title>
<path fill="none" stroke="#9a32cd" stroke-dasharray="5,2" d="M351.11,-144.32C392.1,-135.45 455.6,-121.7 497.96,-112.53"/>
<polygon fill="#9a32cd" stroke="#9a32cd" points="350.23,-140.93 341.2,-146.46 351.71,-147.77 350.23,-140.93"/>
<text text-anchor="middle" x="424" y="-135" font-family="Helvetica,sans-Serif" font-size="10.00"> Register</text>
</g>
<!-- Node6 -->
<g id="node5" class="node">
<title>Node6</title>
<g id="a_node5"><a xlink:href="classuint32__t.html" target="_top" xlink:title="uint32_t">
<polygon fill="none" stroke="black" points="25,-66.5 25,-85.5 76,-85.5 76,-66.5 25,-66.5"/>
<text text-anchor="middle" x="50.5" y="-73.5" font-family="Helvetica,sans-Serif" font-size="10.00">uint32_t</text>
</a>
</g>
</g>
<!-- Node6&#45;&gt;Node2 -->
<g id="edge4" class="edge">
<title>Node6&#45;&gt;Node2</title>
<path fill="none" stroke="#9a32cd" stroke-dasharray="5,2" d="M86.11,-83.75C96.62,-85.81 108.24,-87.79 119,-89 237.84,-102.33 376.54,-104.37 461.82,-104.09"/>
<polygon fill="#9a32cd" stroke="#9a32cd" points="86.54,-80.26 76.04,-81.69 85.14,-87.12 86.54,-80.26"/>
<text text-anchor="middle" x="310" y="-117" font-family="Helvetica,sans-Serif" font-size="10.00"> Offset</text>
<text text-anchor="middle" x="310" y="-106" font-family="Helvetica,sans-Serif" font-size="10.00">RecordOffset</text>
</g>
<!-- Node9 -->
<g id="node8" class="node">
<title>Node9</title>
<g id="a_node8"><a xlink:href="classllvm_1_1codeview_1_1TypeIndex.html" target="_top" xlink:title="A 32&#45;bit type reference. ">
<polygon fill="none" stroke="black" points="243,-45.5 243,-64.5 377,-64.5 377,-45.5 243,-45.5"/>
<text text-anchor="middle" x="310" y="-52.5" font-family="Helvetica,sans-Serif" font-size="10.00">llvm::codeview::TypeIndex</text>
</a>
</g>
</g>
<!-- Node6&#45;&gt;Node9 -->
<g id="edge8" class="edge">
<title>Node6&#45;&gt;Node9</title>
<path fill="none" stroke="#9a32cd" stroke-dasharray="5,2" d="M76.01,-61.64C88.44,-55.18 104.04,-48.27 119,-45 166.44,-34.63 222.04,-39.46 260.8,-45.46"/>
<polygon fill="#9a32cd" stroke="#9a32cd" points="74.3,-58.58 67.18,-66.43 77.64,-64.74 74.3,-58.58"/>
<text text-anchor="middle" x="167.5" y="-81" font-family="Helvetica,sans-Serif" font-size="10.00"> SimpleModeMask</text>
<text text-anchor="middle" x="167.5" y="-70" font-family="Helvetica,sans-Serif" font-size="10.00">SimpleKindMask</text>
<text text-anchor="middle" x="167.5" y="-59" font-family="Helvetica,sans-Serif" font-size="10.00">FirstNonSimpleIndex</text>
<text text-anchor="middle" x="167.5" y="-48" font-family="Helvetica,sans-Serif" font-size="10.00">DecoratedItemIdMask</text>
</g>
<!-- Node7 -->
<g id="node6" class="node">
<title>Node7</title>
<g id="a_node6"><a xlink:href="classllvm_1_1StringRef.html" target="_top" xlink:title="StringRef &#45; Represent a constant reference to a string, i.e. ">
<polygon fill="none" stroke="black" points="269,-3.5 269,-22.5 351,-22.5 351,-3.5 269,-3.5"/>
<text text-anchor="middle" x="310" y="-10.5" font-family="Helvetica,sans-Serif" font-size="10.00">llvm::StringRef</text>
</a>
</g>
</g>
<!-- Node7&#45;&gt;Node2 -->
<g id="edge5" class="edge">
<title>Node7&#45;&gt;Node2</title>
<path fill="none" stroke="#9a32cd" stroke-dasharray="5,2" d="M352.52,-25.58C363.43,-28.92 375.17,-32.56 386,-36 411.86,-44.2 418.87,-44.79 444,-55 472.78,-66.7 504.91,-83.11 524.28,-93.39"/>
<polygon fill="#9a32cd" stroke="#9a32cd" points="353.38,-22.18 342.79,-22.6 351.33,-28.87 353.38,-22.18"/>
<text text-anchor="middle" x="424" y="-58" font-family="Helvetica,sans-Serif" font-size="10.00"> Name</text>
</g>
<!-- Node8 -->
<g id="node7" class="node">
<title>Node8</title>
<g id="a_node7"><a xlink:href="classsize__t.html" target="_top" xlink:title="size_t">
<polygon fill="none" stroke="black" points="29,-0.5 29,-19.5 72,-19.5 72,-0.5 29,-0.5"/>
<text text-anchor="middle" x="50.5" y="-7.5" font-family="Helvetica,sans-Serif" font-size="10.00">size_t</text>
</a>
</g>
</g>
<!-- Node8&#45;&gt;Node7 -->
<g id="edge6" class="edge">
<title>Node8&#45;&gt;Node7</title>
<path fill="none" stroke="#9a32cd" stroke-dasharray="5,2" d="M82.39,-10.05C115.45,-10.13 169.43,-10.36 216,-11 233.28,-11.24 252.36,-11.63 268.72,-12"/>
<polygon fill="#9a32cd" stroke="#9a32cd" points="82.02,-6.55 72.02,-10.02 82.01,-13.55 82.02,-6.55"/>
<text text-anchor="middle" x="167.5" y="-14" font-family="Helvetica,sans-Serif" font-size="10.00"> npos</text>
</g>
<!-- Node9&#45;&gt;Node2 -->
<g id="edge7" class="edge">
<title>Node9&#45;&gt;Node2</title>
<path fill="none" stroke="#9a32cd" stroke-dasharray="5,2" d="M382.11,-66.24C402.19,-69.7 424,-73.73 444,-78 465.12,-82.51 488.57,-88.46 507.23,-93.42"/>
<polygon fill="#9a32cd" stroke="#9a32cd" points="382.55,-62.76 372.11,-64.53 381.38,-69.66 382.55,-62.76"/>
<text text-anchor="middle" x="424" y="-81" font-family="Helvetica,sans-Serif" font-size="10.00"> Type</text>
</g>
</g>
</svg>
