<?xml version="1.0" encoding="UTF-8" standalone="no"?>
<!DOCTYPE svg PUBLIC "-//W3C//DTD SVG 1.1//EN"
 "http://www.w3.org/Graphics/SVG/1.1/DTD/svg11.dtd">
<!-- Generated by graphviz version 2.43.0 (0)
 -->
<!-- Title: llvm::orc::LocalCXXRuntimeOverridesBase Pages: 1 -->
<svg width="340pt" height="106pt"
 viewBox="0.00 0.00 340.00 106.00" xmlns="http://www.w3.org/2000/svg" xmlns:xlink="http://www.w3.org/1999/xlink">
<g id="graph0" class="graph" transform="scale(1 1) rotate(0) translate(4 102)">
<title>llvm::orc::LocalCXXRuntimeOverridesBase</title>
<!-- Node0 -->
<g id="node1" class="node">
<title>Node0</title>
<polygon fill="#bfbfbf" stroke="black" points="103,-67.5 103,-97.5 244,-97.5 244,-67.5 103,-67.5"/>
<text text-anchor="start" x="111" y="-85.5" font-family="Helvetica,sans-Serif" font-size="10.00">llvm::orc::LocalCXXRuntime</text>
<text text-anchor="middle" x="173.5" y="-74.5" font-family="Helvetica,sans-Serif" font-size="10.00">OverridesBase</text>
</g>
<!-- Node1 -->
<g id="node2" class="node">
<title>Node1</title>
<g id="a_node2"><a xlink:href="classllvm_1_1orc_1_1LegacyLocalCXXRuntimeOverrides.html" target="_top" xlink:title="llvm::orc::LegacyLocalCXXRuntime\lOverrides">
<polygon fill="none" stroke="black" points="0,-0.5 0,-30.5 173,-30.5 173,-0.5 0,-0.5"/>
<text text-anchor="start" x="8" y="-18.5" font-family="Helvetica,sans-Serif" font-size="10.00">llvm::orc::LegacyLocalCXXRuntime</text>
<text text-anchor="middle" x="86.5" y="-7.5" font-family="Helvetica,sans-Serif" font-size="10.00">Overrides</text>
</a>
</g>
</g>
<!-- Node0&#45;&gt;Node1 -->
<g id="edge1" class="edge">
<title>Node0&#45;&gt;Node1</title>
<path fill="none" stroke="midnightblue" d="M146.29,-61.17C132.98,-51.23 117.3,-39.51 105.34,-30.58"/>
<polygon fill="midnightblue" stroke="midnightblue" points="144.52,-64.21 154.62,-67.4 148.71,-58.61 144.52,-64.21"/>
</g>
<!-- Node2 -->
<g id="node3" class="node">
<title>Node2</title>
<g id="a_node3"><a xlink:href="classllvm_1_1orc_1_1LocalCXXRuntimeOverrides.html" target="_top" xlink:title="llvm::orc::LocalCXXRuntime\lOverrides">
<polygon fill="none" stroke="black" points="191,-0.5 191,-30.5 332,-30.5 332,-0.5 191,-0.5"/>
<text text-anchor="start" x="199" y="-18.5" font-family="Helvetica,sans-Serif" font-size="10.00">llvm::orc::LocalCXXRuntime</text>
<text text-anchor="middle" x="261.5" y="-7.5" font-family="Helvetica,sans-Serif" font-size="10.00">Overrides</text>
</a>
</g>
</g>
<!-- Node0&#45;&gt;Node2 -->
<g id="edge2" class="edge">
<title>Node0&#45;&gt;Node2</title>
<path fill="none" stroke="midnightblue" d="M200.64,-61.45C214.18,-51.45 230.23,-39.6 242.44,-30.58"/>
<polygon fill="midnightblue" stroke="midnightblue" points="198.56,-58.64 192.59,-67.4 202.72,-64.27 198.56,-58.64"/>
</g>
</g>
</svg>
