<?xml version="1.0" encoding="UTF-8" standalone="no"?>
<!DOCTYPE svg PUBLIC "-//W3C//DTD SVG 1.1//EN"
 "http://www.w3.org/Graphics/SVG/1.1/DTD/svg11.dtd">
<!-- Generated by graphviz version 2.43.0 (0)
 -->
<!-- Title: llvm::DagInit Pages: 1 -->
<svg width="1328pt" height="197pt"
 viewBox="0.00 0.00 1328.00 196.50" xmlns="http://www.w3.org/2000/svg" xmlns:xlink="http://www.w3.org/1999/xlink">
<g id="graph0" class="graph" transform="scale(1 1) rotate(0) translate(4 192.5)">
<title>llvm::DagInit</title>
<!-- Node9 -->
<g id="node1" class="node">
<title>Node9</title>
<polygon fill="#bfbfbf" stroke="black" points="1248,-130 1248,-149 1320,-149 1320,-130 1248,-130"/>
<text text-anchor="middle" x="1284" y="-137" font-family="Helvetica,sans-Serif" font-size="10.00">llvm::DagInit</text>
</g>
<!-- Node10 -->
<g id="node2" class="node">
<title>Node10</title>
<g id="a_node2"><a xlink:href="classllvm_1_1TypedInit.html" target="_top" xlink:title="This is the common super&#45;class of types that have a specific, explicit, type. ">
<polygon fill="none" stroke="black" points="1100,-168 1100,-187 1181,-187 1181,-168 1100,-168"/>
<text text-anchor="middle" x="1140.5" y="-175" font-family="Helvetica,sans-Serif" font-size="10.00">llvm::TypedInit</text>
</a>
</g>
</g>
<!-- Node10&#45;&gt;Node9 -->
<g id="edge1" class="edge">
<title>Node10&#45;&gt;Node9</title>
<path fill="none" stroke="midnightblue" d="M1186.91,-165.31C1206.63,-160.01 1229.38,-153.9 1247.8,-148.95"/>
<polygon fill="midnightblue" stroke="midnightblue" points="1185.96,-161.94 1177.21,-167.91 1187.77,-168.7 1185.96,-161.94"/>
</g>
<!-- Node11 -->
<g id="node3" class="node">
<title>Node11</title>
<g id="a_node3"><a xlink:href="classllvm_1_1Init.html" target="_top" xlink:title="llvm::Init">
<polygon fill="none" stroke="black" points="873,-168 873,-187 927,-187 927,-168 873,-168"/>
<text text-anchor="middle" x="900" y="-175" font-family="Helvetica,sans-Serif" font-size="10.00">llvm::Init</text>
</a>
</g>
</g>
<!-- Node11&#45;&gt;Node10 -->
<g id="edge2" class="edge">
<title>Node11&#45;&gt;Node10</title>
<path fill="none" stroke="midnightblue" d="M937.66,-177.5C981.54,-177.5 1054.74,-177.5 1099.89,-177.5"/>
<polygon fill="midnightblue" stroke="midnightblue" points="937.43,-174 927.43,-177.5 937.43,-181 937.43,-174"/>
</g>
<!-- Node12 -->
<g id="node4" class="node">
<title>Node12</title>
<polygon fill="none" stroke="#bfbfbf" points="474.5,-168 474.5,-187 520.5,-187 520.5,-168 474.5,-168"/>
<text text-anchor="middle" x="497.5" y="-175" font-family="Helvetica,sans-Serif" font-size="10.00">uint8_t</text>
</g>
<!-- Node12&#45;&gt;Node11 -->
<g id="edge3" class="edge">
<title>Node12&#45;&gt;Node11</title>
<path fill="none" stroke="#9a32cd" stroke-dasharray="5,2" d="M530.69,-177.5C607.88,-177.5 802.3,-177.5 872.88,-177.5"/>
<polygon fill="#9a32cd" stroke="#9a32cd" points="530.6,-174 520.6,-177.5 530.6,-181 530.6,-174"/>
<text text-anchor="middle" x="729" y="-180.5" font-family="Helvetica,sans-Serif" font-size="10.00"> Opc</text>
</g>
<!-- Node13 -->
<g id="node5" class="node">
<title>Node13</title>
<g id="a_node5"><a xlink:href="classllvm_1_1FoldingSetBase_1_1Node.html" target="_top" xlink:title="Node &#45; This class is used to maintain the singly linked bucket list in a folding set. ">
<polygon fill="none" stroke="black" points="1097.5,-130 1097.5,-149 1183.5,-149 1183.5,-130 1097.5,-130"/>
<text text-anchor="middle" x="1140.5" y="-137" font-family="Helvetica,sans-Serif" font-size="10.00">FoldingSetNode</text>
</a>
</g>
</g>
<!-- Node13&#45;&gt;Node9 -->
<g id="edge4" class="edge">
<title>Node13&#45;&gt;Node9</title>
<path fill="none" stroke="midnightblue" d="M1193.62,-139.5C1211.56,-139.5 1231.23,-139.5 1247.54,-139.5"/>
<polygon fill="midnightblue" stroke="midnightblue" points="1193.57,-136 1183.57,-139.5 1193.57,-143 1193.57,-136"/>
</g>
<!-- Node14 -->
<g id="node6" class="node">
<title>Node14</title>
<g id="a_node6"><a xlink:href="classllvm_1_1TrailingObjects.html" target="_top" xlink:title="llvm::TrailingObjects\l\&lt; DagInit, Init *, StringInit *\&gt;">
<polygon fill="none" stroke="black" points="1070,-80.5 1070,-110.5 1211,-110.5 1211,-80.5 1070,-80.5"/>
<text text-anchor="start" x="1078" y="-98.5" font-family="Helvetica,sans-Serif" font-size="10.00">llvm::TrailingObjects</text>
<text text-anchor="middle" x="1140.5" y="-87.5" font-family="Helvetica,sans-Serif" font-size="10.00">&lt; DagInit, Init *, StringInit *&gt;</text>
</a>
</g>
</g>
<!-- Node14&#45;&gt;Node9 -->
<g id="edge5" class="edge">
<title>Node14&#45;&gt;Node9</title>
<path fill="none" stroke="midnightblue" d="M1199.66,-113.59C1217.67,-119.19 1236.81,-125.14 1252.2,-129.92"/>
<polygon fill="midnightblue" stroke="midnightblue" points="1200.39,-110.15 1189.8,-110.52 1198.31,-116.83 1200.39,-110.15"/>
</g>
<!-- Node15 -->
<g id="node7" class="node">
<title>Node15</title>
<g id="a_node7"><a xlink:href="classllvm_1_1trailing__objects__internal_1_1TrailingObjectsImpl.html" target="_top" xlink:title="llvm::trailing_objects\l_internal::TrailingObjectsImpl\l\&lt; trailing_objects_internal\l::AlignmentCalcHelper\&lt; TrailingTys...\l \&gt;::Alignment, DagInit, TrailingObjects\l\&lt; DagInit, TrailingTys... \&gt;, DagInit,\l TrailingTys... \&gt;">
<polygon fill="none" stroke="black" points="637,-65 637,-150 821,-150 821,-65 637,-65"/>
<text text-anchor="start" x="645" y="-138" font-family="Helvetica,sans-Serif" font-size="10.00">llvm::trailing_objects</text>
<text text-anchor="start" x="645" y="-127" font-family="Helvetica,sans-Serif" font-size="10.00">_internal::TrailingObjectsImpl</text>
<text text-anchor="start" x="645" y="-116" font-family="Helvetica,sans-Serif" font-size="10.00">&lt; trailing_objects_internal</text>
<text text-anchor="start" x="645" y="-105" font-family="Helvetica,sans-Serif" font-size="10.00">::AlignmentCalcHelper&lt; TrailingTys...</text>
<text text-anchor="start" x="645" y="-94" font-family="Helvetica,sans-Serif" font-size="10.00"> &gt;::Alignment, DagInit, TrailingObjects</text>
<text text-anchor="start" x="645" y="-83" font-family="Helvetica,sans-Serif" font-size="10.00">&lt; DagInit, TrailingTys... &gt;, DagInit,</text>
<text text-anchor="middle" x="729" y="-72" font-family="Helvetica,sans-Serif" font-size="10.00"> TrailingTys... &gt;</text>
</a>
</g>
</g>
<!-- Node15&#45;&gt;Node14 -->
<g id="edge6" class="edge">
<title>Node15&#45;&gt;Node14</title>
<path fill="none" stroke="#8b1a1a" d="M831.44,-104.53C905.68,-102.35 1004.48,-99.46 1069.94,-97.54"/>
<polygon fill="#8b1a1a" stroke="#8b1a1a" points="831.03,-101.04 821.14,-104.83 831.23,-108.03 831.03,-101.04"/>
</g>
<!-- Node16 -->
<g id="node8" class="node">
<title>Node16</title>
<g id="a_node8"><a xlink:href="classllvm_1_1trailing__objects__internal_1_1TrailingObjectsImpl.html" target="_top" xlink:title="llvm::trailing_objects\l_internal::TrailingObjectsImpl\l\&lt; Align, BaseTy, TopTrailingObj,\l PrevTy, MoreTys \&gt;">
<polygon fill="none" stroke="black" points="0,-45.5 0,-97.5 159,-97.5 159,-45.5 0,-45.5"/>
<text text-anchor="start" x="8" y="-85.5" font-family="Helvetica,sans-Serif" font-size="10.00">llvm::trailing_objects</text>
<text text-anchor="start" x="8" y="-74.5" font-family="Helvetica,sans-Serif" font-size="10.00">_internal::TrailingObjectsImpl</text>
<text text-anchor="start" x="8" y="-63.5" font-family="Helvetica,sans-Serif" font-size="10.00">&lt; Align, BaseTy, TopTrailingObj,</text>
<text text-anchor="middle" x="79.5" y="-52.5" font-family="Helvetica,sans-Serif" font-size="10.00"> PrevTy, MoreTys &gt;</text>
</a>
</g>
</g>
<!-- Node16&#45;&gt;Node15 -->
<g id="edge7" class="edge">
<title>Node16&#45;&gt;Node15</title>
<path fill="none" stroke="orange" stroke-dasharray="5,2" d="M169.25,-87.62C171.86,-87.94 174.45,-88.23 177,-88.5 338.12,-105.39 527.04,-108.25 636.57,-108.25"/>
<polygon fill="orange" stroke="orange" points="169.48,-84.12 159.11,-86.28 168.56,-91.06 169.48,-84.12"/>
<text text-anchor="start" x="178" y="-148.5" font-family="Helvetica,sans-Serif" font-size="10.00"> &lt; trailing_objects</text>
<text text-anchor="start" x="178" y="-137.5" font-family="Helvetica,sans-Serif" font-size="10.00">_internal::AlignmentCalcHelper</text>
<text text-anchor="start" x="178" y="-126.5" font-family="Helvetica,sans-Serif" font-size="10.00">&lt; TrailingTys... &gt;::Alignment,</text>
<text text-anchor="start" x="178" y="-115.5" font-family="Helvetica,sans-Serif" font-size="10.00"> DagInit, TrailingObjects&lt; DagInit,</text>
<text text-anchor="middle" x="267.5" y="-104.5" font-family="Helvetica,sans-Serif" font-size="10.00"> TrailingTys... &gt;, DagInit, TrailingTys... &gt;</text>
</g>
<!-- Node18 -->
<g id="node10" class="node">
<title>Node18</title>
<g id="a_node10"><a xlink:href="classllvm_1_1trailing__objects__internal_1_1TrailingObjectsImpl.html" target="_top" xlink:title="llvm::trailing_objects\l_internal::TrailingObjectsImpl\l\&lt; trailing_objects_internal\l::AlignmentCalcHelper\&lt; TrailingTys...\l \&gt;::Alignment, BaseTy, TrailingObjects\l\&lt; BaseTy, TrailingTys... \&gt;, BaseTy, TrailingTys... \&gt;">
<polygon fill="none" stroke="black" points="376,-0.5 376,-74.5 619,-74.5 619,-0.5 376,-0.5"/>
<text text-anchor="start" x="384" y="-62.5" font-family="Helvetica,sans-Serif" font-size="10.00">llvm::trailing_objects</text>
<text text-anchor="start" x="384" y="-51.5" font-family="Helvetica,sans-Serif" font-size="10.00">_internal::TrailingObjectsImpl</text>
<text text-anchor="start" x="384" y="-40.5" font-family="Helvetica,sans-Serif" font-size="10.00">&lt; trailing_objects_internal</text>
<text text-anchor="start" x="384" y="-29.5" font-family="Helvetica,sans-Serif" font-size="10.00">::AlignmentCalcHelper&lt; TrailingTys...</text>
<text text-anchor="start" x="384" y="-18.5" font-family="Helvetica,sans-Serif" font-size="10.00"> &gt;::Alignment, BaseTy, TrailingObjects</text>
<text text-anchor="middle" x="497.5" y="-7.5" font-family="Helvetica,sans-Serif" font-size="10.00">&lt; BaseTy, TrailingTys... &gt;, BaseTy, TrailingTys... &gt;</text>
</a>
</g>
</g>
<!-- Node16&#45;&gt;Node18 -->
<g id="edge10" class="edge">
<title>Node16&#45;&gt;Node18</title>
<path fill="none" stroke="orange" stroke-dasharray="5,2" d="M145.99,-41.96C156.19,-38.46 166.74,-35.45 177,-33.5 241.86,-21.19 315.45,-21.19 375.65,-24.71"/>
<polygon fill="orange" stroke="orange" points="144.56,-38.75 136.34,-45.44 146.93,-45.34 144.56,-38.75"/>
<text text-anchor="start" x="177" y="-80.5" font-family="Helvetica,sans-Serif" font-size="10.00"> &lt; trailing_objects</text>
<text text-anchor="start" x="177" y="-69.5" font-family="Helvetica,sans-Serif" font-size="10.00">_internal::AlignmentCalcHelper</text>
<text text-anchor="start" x="177" y="-58.5" font-family="Helvetica,sans-Serif" font-size="10.00">&lt; TrailingTys... &gt;::Alignment,</text>
<text text-anchor="start" x="177" y="-47.5" font-family="Helvetica,sans-Serif" font-size="10.00"> BaseTy, TrailingObjects&lt; BaseTy,</text>
<text text-anchor="middle" x="267.5" y="-36.5" font-family="Helvetica,sans-Serif" font-size="10.00"> TrailingTys... &gt;, BaseTy, TrailingTys... &gt;</text>
</g>
<!-- Node17 -->
<g id="node9" class="node">
<title>Node17</title>
<g id="a_node9"><a xlink:href="classllvm_1_1TrailingObjects.html" target="_top" xlink:title="See the file comment for details on the usage of the TrailingObjects type. ">
<polygon fill="none" stroke="black" points="839,-35.5 839,-65.5 961,-65.5 961,-35.5 839,-35.5"/>
<text text-anchor="start" x="847" y="-53.5" font-family="Helvetica,sans-Serif" font-size="10.00">llvm::TrailingObjects</text>
<text text-anchor="middle" x="900" y="-42.5" font-family="Helvetica,sans-Serif" font-size="10.00">&lt; BaseTy, TrailingTys &gt;</text>
</a>
</g>
</g>
<!-- Node17&#45;&gt;Node14 -->
<g id="edge8" class="edge">
<title>Node17&#45;&gt;Node14</title>
<path fill="none" stroke="orange" stroke-dasharray="5,2" d="M971.08,-53.37C996.75,-55.37 1025.9,-58.76 1052,-64.5 1069.31,-68.31 1087.9,-74.57 1103.48,-80.47"/>
<polygon fill="orange" stroke="orange" points="971.28,-49.88 961.05,-52.64 970.77,-56.86 971.28,-49.88"/>
<text text-anchor="start" x="979" y="-78.5" font-family="Helvetica,sans-Serif" font-size="10.00"> &lt; DagInit, Init *,</text>
<text text-anchor="middle" x="1015.5" y="-67.5" font-family="Helvetica,sans-Serif" font-size="10.00"> StringInit *&gt;</text>
</g>
<!-- Node18&#45;&gt;Node17 -->
<g id="edge9" class="edge">
<title>Node18&#45;&gt;Node17</title>
<path fill="none" stroke="#8b1a1a" d="M629.51,-41.75C700.05,-44.04 783.66,-46.76 838.83,-48.55"/>
<polygon fill="#8b1a1a" stroke="#8b1a1a" points="629.31,-38.24 619.21,-41.42 629.09,-45.24 629.31,-38.24"/>
</g>
</g>
</svg>
