<?xml version="1.0" encoding="UTF-8" standalone="no"?>
<!DOCTYPE svg PUBLIC "-//W3C//DTD SVG 1.1//EN"
 "http://www.w3.org/Graphics/SVG/1.1/DTD/svg11.dtd">
<!-- Generated by graphviz version 2.43.0 (0)
 -->
<!-- Title: llvm::AAQueryInfo Pages: 1 -->
<svg width="1397pt" height="363pt"
 viewBox="0.00 0.00 1397.00 363.35" xmlns="http://www.w3.org/2000/svg" xmlns:xlink="http://www.w3.org/1999/xlink">
<g id="graph0" class="graph" transform="scale(1 1) rotate(0) translate(4 359.35)">
<title>llvm::AAQueryInfo</title>
<!-- Node1 -->
<g id="node1" class="node">
<title>Node1</title>
<polygon fill="#bfbfbf" stroke="black" points="1292,-141.5 1292,-160.5 1389,-160.5 1389,-141.5 1292,-141.5"/>
<text text-anchor="middle" x="1340.5" y="-148.5" font-family="Helvetica,sans-Serif" font-size="10.00">llvm::AAQueryInfo</text>
</g>
<!-- Node2 -->
<g id="node2" class="node">
<title>Node2</title>
<g id="a_node2"><a xlink:href="classllvm_1_1SmallDenseMap.html" target="_top" xlink:title="llvm::SmallDenseMap\l\&lt; const Value *, bool, 8 \&gt;">
<polygon fill="none" stroke="black" points="1044.5,-161 1044.5,-191 1172.5,-191 1172.5,-161 1044.5,-161"/>
<text text-anchor="start" x="1052.5" y="-179" font-family="Helvetica,sans-Serif" font-size="10.00">llvm::SmallDenseMap</text>
<text text-anchor="middle" x="1108.5" y="-168" font-family="Helvetica,sans-Serif" font-size="10.00">&lt; const Value *, bool, 8 &gt;</text>
</a>
</g>
</g>
<!-- Node2&#45;&gt;Node1 -->
<g id="edge1" class="edge">
<title>Node2&#45;&gt;Node1</title>
<path fill="none" stroke="#9a32cd" stroke-dasharray="5,2" d="M1183.01,-168.01C1218.63,-164.14 1260.39,-159.6 1291.81,-156.18"/>
<polygon fill="#9a32cd" stroke="#9a32cd" points="1182.22,-164.58 1172.65,-169.14 1182.97,-171.53 1182.22,-164.58"/>
<text text-anchor="middle" x="1234" y="-169" font-family="Helvetica,sans-Serif" font-size="10.00"> IsCapturedCache</text>
</g>
<!-- Node3 -->
<g id="node3" class="node">
<title>Node3</title>
<g id="a_node3"><a xlink:href="classllvm_1_1DenseMapBase.html" target="_top" xlink:title="llvm::DenseMapBase\l\&lt; SmallDenseMap\&lt; const\l Value *, bool, InlineBuckets,\l DenseMapInfo\&lt; const Value\l *\&gt;, llvm::detail::DenseMapPair\l\&lt; const Value *, bool \&gt; \&gt;, const\l Value *, bool, DenseMapInfo\&lt; const\l Value *\&gt;, llvm::detail::DenseMapPair\l\&lt; const Value *, bool \&gt; \&gt;">
<polygon fill="none" stroke="black" points="506,-208.5 506,-315.5 687,-315.5 687,-208.5 506,-208.5"/>
<text text-anchor="start" x="514" y="-303.5" font-family="Helvetica,sans-Serif" font-size="10.00">llvm::DenseMapBase</text>
<text text-anchor="start" x="514" y="-292.5" font-family="Helvetica,sans-Serif" font-size="10.00">&lt; SmallDenseMap&lt; const</text>
<text text-anchor="start" x="514" y="-281.5" font-family="Helvetica,sans-Serif" font-size="10.00"> Value *, bool, InlineBuckets,</text>
<text text-anchor="start" x="514" y="-270.5" font-family="Helvetica,sans-Serif" font-size="10.00"> DenseMapInfo&lt; const Value</text>
<text text-anchor="start" x="514" y="-259.5" font-family="Helvetica,sans-Serif" font-size="10.00"> *&gt;, llvm::detail::DenseMapPair</text>
<text text-anchor="start" x="514" y="-248.5" font-family="Helvetica,sans-Serif" font-size="10.00">&lt; const Value *, bool &gt; &gt;, const</text>
<text text-anchor="start" x="514" y="-237.5" font-family="Helvetica,sans-Serif" font-size="10.00"> Value *, bool, DenseMapInfo&lt; const</text>
<text text-anchor="start" x="514" y="-226.5" font-family="Helvetica,sans-Serif" font-size="10.00"> Value *&gt;, llvm::detail::DenseMapPair</text>
<text text-anchor="middle" x="596.5" y="-215.5" font-family="Helvetica,sans-Serif" font-size="10.00">&lt; const Value *, bool &gt; &gt;</text>
</a>
</g>
</g>
<!-- Node3&#45;&gt;Node2 -->
<g id="edge2" class="edge">
<title>Node3&#45;&gt;Node2</title>
<path fill="none" stroke="midnightblue" d="M697.31,-245.17C800.24,-227.81 957.6,-201.28 1044.45,-186.63"/>
<polygon fill="midnightblue" stroke="midnightblue" points="696.49,-241.76 687.21,-246.87 697.65,-248.66 696.49,-241.76"/>
</g>
<!-- Node4 -->
<g id="node4" class="node">
<title>Node4</title>
<g id="a_node4"><a xlink:href="classllvm_1_1DebugEpochBase.html" target="_top" xlink:title="A base class for data structure classes wishing to make iterators (&quot;handles&quot;) pointing into themselve...">
<polygon fill="none" stroke="black" points="0,-98.5 0,-117.5 119,-117.5 119,-98.5 0,-98.5"/>
<text text-anchor="middle" x="59.5" y="-105.5" font-family="Helvetica,sans-Serif" font-size="10.00">llvm::DebugEpochBase</text>
</a>
</g>
</g>
<!-- Node4&#45;&gt;Node3 -->
<g id="edge3" class="edge">
<title>Node4&#45;&gt;Node3</title>
<path fill="none" stroke="midnightblue" d="M72.61,-126.12C104.52,-172.03 196.24,-292.37 308,-336 380.45,-364.29 408.49,-358.31 483,-336 498.34,-331.41 513.53,-323.97 527.54,-315.55"/>
<polygon fill="midnightblue" stroke="midnightblue" points="75.41,-124.02 66.87,-117.74 69.63,-127.97 75.41,-124.02"/>
</g>
<!-- Node5 -->
<g id="node5" class="node">
<title>Node5</title>
<g id="a_node5"><a xlink:href="classllvm_1_1DenseMapBase.html" target="_top" xlink:title="llvm::DenseMapBase\l\&lt; DerivedT, KeyT, ValueT,\l KeyInfoT, BucketT \&gt;">
<polygon fill="none" stroke="black" points="156,-123.5 156,-164.5 290,-164.5 290,-123.5 156,-123.5"/>
<text text-anchor="start" x="164" y="-152.5" font-family="Helvetica,sans-Serif" font-size="10.00">llvm::DenseMapBase</text>
<text text-anchor="start" x="164" y="-141.5" font-family="Helvetica,sans-Serif" font-size="10.00">&lt; DerivedT, KeyT, ValueT,</text>
<text text-anchor="middle" x="223" y="-130.5" font-family="Helvetica,sans-Serif" font-size="10.00"> KeyInfoT, BucketT &gt;</text>
</a>
</g>
</g>
<!-- Node4&#45;&gt;Node5 -->
<g id="edge5" class="edge">
<title>Node4&#45;&gt;Node5</title>
<path fill="none" stroke="midnightblue" d="M113.44,-119.8C126.97,-122.82 141.69,-126.1 155.79,-129.24"/>
<polygon fill="midnightblue" stroke="midnightblue" points="113.88,-116.31 103.36,-117.55 112.35,-123.14 113.88,-116.31"/>
</g>
<!-- Node7 -->
<g id="node7" class="node">
<title>Node7</title>
<g id="a_node7"><a xlink:href="classllvm_1_1DenseMapBase.html" target="_top" xlink:title="llvm::DenseMapBase\l\&lt; SmallDenseMap\&lt; KeyT,\l ValueT, InlineBuckets,\l KeyInfoT, BucketT \&gt;, KeyT,\l ValueT, KeyInfoT, BucketT \&gt;">
<polygon fill="none" stroke="black" points="522.5,-126.5 522.5,-189.5 670.5,-189.5 670.5,-126.5 522.5,-126.5"/>
<text text-anchor="start" x="530.5" y="-177.5" font-family="Helvetica,sans-Serif" font-size="10.00">llvm::DenseMapBase</text>
<text text-anchor="start" x="530.5" y="-166.5" font-family="Helvetica,sans-Serif" font-size="10.00">&lt; SmallDenseMap&lt; KeyT,</text>
<text text-anchor="start" x="530.5" y="-155.5" font-family="Helvetica,sans-Serif" font-size="10.00"> ValueT, InlineBuckets,</text>
<text text-anchor="start" x="530.5" y="-144.5" font-family="Helvetica,sans-Serif" font-size="10.00"> KeyInfoT, BucketT &gt;, KeyT,</text>
<text text-anchor="middle" x="596.5" y="-133.5" font-family="Helvetica,sans-Serif" font-size="10.00"> ValueT, KeyInfoT, BucketT &gt;</text>
</a>
</g>
</g>
<!-- Node4&#45;&gt;Node7 -->
<g id="edge8" class="edge">
<title>Node4&#45;&gt;Node7</title>
<path fill="none" stroke="midnightblue" d="M100.19,-95.53C193.51,-67.3 423.48,-4.36 483,-50 507.47,-68.76 480.86,-93.66 501,-117 506.96,-123.91 514.29,-129.69 522.22,-134.52"/>
<polygon fill="midnightblue" stroke="midnightblue" points="99.09,-92.21 90.55,-98.47 101.13,-98.9 99.09,-92.21"/>
</g>
<!-- Node9 -->
<g id="node9" class="node">
<title>Node9</title>
<g id="a_node9"><a xlink:href="classllvm_1_1DenseMapBase.html" target="_top" xlink:title="llvm::DenseMapBase\l\&lt; SmallDenseMap\&lt; LocPair,\l AliasResult, InlineBuckets,\l DenseMapInfo\&lt; LocPair \&gt;,\l llvm::detail::DenseMapPair\l\&lt; LocPair, AliasResult \&gt; \&gt;,\l LocPair, AliasResult, DenseMapInfo\l\&lt; LocPair \&gt;, llvm::detail::DenseMapPair\l\&lt; LocPair, AliasResult \&gt; \&gt;">
<polygon fill="none" stroke="black" points="501,-0.5 501,-107.5 692,-107.5 692,-0.5 501,-0.5"/>
<text text-anchor="start" x="509" y="-95.5" font-family="Helvetica,sans-Serif" font-size="10.00">llvm::DenseMapBase</text>
<text text-anchor="start" x="509" y="-84.5" font-family="Helvetica,sans-Serif" font-size="10.00">&lt; SmallDenseMap&lt; LocPair,</text>
<text text-anchor="start" x="509" y="-73.5" font-family="Helvetica,sans-Serif" font-size="10.00"> AliasResult, InlineBuckets,</text>
<text text-anchor="start" x="509" y="-62.5" font-family="Helvetica,sans-Serif" font-size="10.00"> DenseMapInfo&lt; LocPair &gt;,</text>
<text text-anchor="start" x="509" y="-51.5" font-family="Helvetica,sans-Serif" font-size="10.00"> llvm::detail::DenseMapPair</text>
<text text-anchor="start" x="509" y="-40.5" font-family="Helvetica,sans-Serif" font-size="10.00">&lt; LocPair, AliasResult &gt; &gt;,</text>
<text text-anchor="start" x="509" y="-29.5" font-family="Helvetica,sans-Serif" font-size="10.00"> LocPair, AliasResult, DenseMapInfo</text>
<text text-anchor="start" x="509" y="-18.5" font-family="Helvetica,sans-Serif" font-size="10.00">&lt; LocPair &gt;, llvm::detail::DenseMapPair</text>
<text text-anchor="middle" x="596.5" y="-7.5" font-family="Helvetica,sans-Serif" font-size="10.00">&lt; LocPair, AliasResult &gt; &gt;</text>
</a>
</g>
</g>
<!-- Node4&#45;&gt;Node9 -->
<g id="edge12" class="edge">
<title>Node4&#45;&gt;Node9</title>
<path fill="none" stroke="midnightblue" d="M78.62,-91.46C96.74,-75.99 126.15,-53.72 156,-43 292.91,6.16 338.4,-13.13 483,-29 488.87,-29.64 494.88,-30.47 500.92,-31.43"/>
<polygon fill="midnightblue" stroke="midnightblue" points="75.88,-89.2 70.67,-98.43 80.5,-94.47 75.88,-89.2"/>
</g>
<!-- Node5&#45;&gt;Node3 -->
<g id="edge4" class="edge">
<title>Node5&#45;&gt;Node3</title>
<path fill="none" stroke="orange" stroke-dasharray="5,2" d="M251.75,-171.48C267.11,-185.14 287.26,-200.68 308,-210 342.64,-225.57 435.13,-240.72 505.94,-250.61"/>
<polygon fill="orange" stroke="orange" points="253.92,-168.72 244.18,-164.56 249.2,-173.89 253.92,-168.72"/>
<text text-anchor="start" x="313" y="-327" font-family="Helvetica,sans-Serif" font-size="10.00"> &lt; SmallDenseMap&lt; const</text>
<text text-anchor="start" x="313" y="-316" font-family="Helvetica,sans-Serif" font-size="10.00"> Value *, bool, InlineBuckets,</text>
<text text-anchor="start" x="313" y="-305" font-family="Helvetica,sans-Serif" font-size="10.00"> DenseMapInfo&lt; const Value</text>
<text text-anchor="start" x="313" y="-294" font-family="Helvetica,sans-Serif" font-size="10.00"> *&gt;, llvm::detail::DenseMapPair</text>
<text text-anchor="start" x="313" y="-283" font-family="Helvetica,sans-Serif" font-size="10.00">&lt; const Value *, bool &gt; &gt;, const</text>
<text text-anchor="start" x="313" y="-272" font-family="Helvetica,sans-Serif" font-size="10.00"> Value *, bool, DenseMapInfo&lt; const</text>
<text text-anchor="start" x="313" y="-261" font-family="Helvetica,sans-Serif" font-size="10.00"> Value *&gt;, llvm::detail::DenseMapPair</text>
<text text-anchor="middle" x="395.5" y="-250" font-family="Helvetica,sans-Serif" font-size="10.00">&lt; const Value *, bool &gt; &gt;</text>
</g>
<!-- Node5&#45;&gt;Node7 -->
<g id="edge9" class="edge">
<title>Node5&#45;&gt;Node7</title>
<path fill="none" stroke="orange" stroke-dasharray="5,2" d="M300.36,-157.28C302.93,-157.55 305.49,-157.79 308,-158 380.75,-164.02 464.21,-163.16 522.4,-161.32"/>
<polygon fill="orange" stroke="orange" points="300.7,-153.79 290.36,-156.1 299.88,-160.75 300.7,-153.79"/>
<text text-anchor="start" x="329.5" y="-198" font-family="Helvetica,sans-Serif" font-size="10.00"> &lt; SmallDenseMap&lt; KeyT,</text>
<text text-anchor="start" x="329.5" y="-187" font-family="Helvetica,sans-Serif" font-size="10.00"> ValueT, InlineBuckets,</text>
<text text-anchor="start" x="329.5" y="-176" font-family="Helvetica,sans-Serif" font-size="10.00"> KeyInfoT, BucketT &gt;, KeyT,</text>
<text text-anchor="middle" x="395.5" y="-165" font-family="Helvetica,sans-Serif" font-size="10.00"> ValueT, KeyInfoT, BucketT &gt;</text>
</g>
<!-- Node5&#45;&gt;Node9 -->
<g id="edge13" class="edge">
<title>Node5&#45;&gt;Node9</title>
<path fill="none" stroke="orange" stroke-dasharray="5,2" d="M245.55,-115.58C260.83,-97.83 282.99,-76.43 308,-66 368.75,-40.67 443.12,-38.23 501,-41.84"/>
<polygon fill="orange" stroke="orange" points="242.73,-113.49 239.03,-123.42 248.11,-117.97 242.73,-113.49"/>
<text text-anchor="start" x="308" y="-146" font-family="Helvetica,sans-Serif" font-size="10.00"> &lt; SmallDenseMap&lt; LocPair,</text>
<text text-anchor="start" x="308" y="-135" font-family="Helvetica,sans-Serif" font-size="10.00"> AliasResult, InlineBuckets,</text>
<text text-anchor="start" x="308" y="-124" font-family="Helvetica,sans-Serif" font-size="10.00"> DenseMapInfo&lt; LocPair &gt;,</text>
<text text-anchor="start" x="308" y="-113" font-family="Helvetica,sans-Serif" font-size="10.00"> llvm::detail::DenseMapPair</text>
<text text-anchor="start" x="308" y="-102" font-family="Helvetica,sans-Serif" font-size="10.00">&lt; LocPair, AliasResult &gt; &gt;,</text>
<text text-anchor="start" x="308" y="-91" font-family="Helvetica,sans-Serif" font-size="10.00"> LocPair, AliasResult, DenseMapInfo</text>
<text text-anchor="start" x="308" y="-80" font-family="Helvetica,sans-Serif" font-size="10.00">&lt; LocPair &gt;, llvm::detail::DenseMapPair</text>
<text text-anchor="middle" x="395.5" y="-69" font-family="Helvetica,sans-Serif" font-size="10.00">&lt; LocPair, AliasResult &gt; &gt;</text>
</g>
<!-- Node6 -->
<g id="node6" class="node">
<title>Node6</title>
<g id="a_node6"><a xlink:href="classllvm_1_1SmallDenseMap.html" target="_top" xlink:title="llvm::SmallDenseMap\l\&lt; KeyT, ValueT, InlineBuckets,\l KeyInfoT, BucketT \&gt;">
<polygon fill="none" stroke="black" points="729,-137.5 729,-178.5 883,-178.5 883,-137.5 729,-137.5"/>
<text text-anchor="start" x="737" y="-166.5" font-family="Helvetica,sans-Serif" font-size="10.00">llvm::SmallDenseMap</text>
<text text-anchor="start" x="737" y="-155.5" font-family="Helvetica,sans-Serif" font-size="10.00">&lt; KeyT, ValueT, InlineBuckets,</text>
<text text-anchor="middle" x="806" y="-144.5" font-family="Helvetica,sans-Serif" font-size="10.00"> KeyInfoT, BucketT &gt;</text>
</a>
</g>
</g>
<!-- Node6&#45;&gt;Node2 -->
<g id="edge6" class="edge">
<title>Node6&#45;&gt;Node2</title>
<path fill="none" stroke="orange" stroke-dasharray="5,2" d="M893.31,-163.17C941.39,-166.05 1000.22,-169.57 1044.05,-172.2"/>
<polygon fill="orange" stroke="orange" points="893.41,-159.67 883.22,-162.57 892.99,-166.66 893.41,-159.67"/>
<text text-anchor="middle" x="962" y="-173" font-family="Helvetica,sans-Serif" font-size="10.00"> &lt; const Value *, bool, 8 &gt;</text>
</g>
<!-- Node8 -->
<g id="node8" class="node">
<title>Node8</title>
<g id="a_node8"><a xlink:href="classllvm_1_1SmallDenseMap.html" target="_top" xlink:title="llvm::SmallDenseMap\l\&lt; LocPair, AliasResult, 8 \&gt;">
<polygon fill="none" stroke="black" points="1041,-112 1041,-142 1176,-142 1176,-112 1041,-112"/>
<text text-anchor="start" x="1049" y="-130" font-family="Helvetica,sans-Serif" font-size="10.00">llvm::SmallDenseMap</text>
<text text-anchor="middle" x="1108.5" y="-119" font-family="Helvetica,sans-Serif" font-size="10.00">&lt; LocPair, AliasResult, 8 &gt;</text>
</a>
</g>
</g>
<!-- Node6&#45;&gt;Node8 -->
<g id="edge14" class="edge">
<title>Node6&#45;&gt;Node8</title>
<path fill="none" stroke="orange" stroke-dasharray="5,2" d="M893.29,-148.8C895.89,-148.53 898.46,-148.26 901,-148 947.77,-143.13 1000.52,-137.77 1041,-133.68"/>
<polygon fill="orange" stroke="orange" points="892.76,-145.34 883.18,-149.87 893.49,-152.3 892.76,-145.34"/>
<text text-anchor="middle" x="962" y="-151" font-family="Helvetica,sans-Serif" font-size="10.00"> &lt; LocPair, AliasResult, 8 &gt;</text>
</g>
<!-- Node7&#45;&gt;Node6 -->
<g id="edge7" class="edge">
<title>Node7&#45;&gt;Node6</title>
<path fill="none" stroke="midnightblue" d="M680.97,-158C696.84,-158 713.37,-158 728.99,-158"/>
<polygon fill="midnightblue" stroke="midnightblue" points="680.66,-154.5 670.66,-158 680.66,-161.5 680.66,-154.5"/>
</g>
<!-- Node8&#45;&gt;Node1 -->
<g id="edge10" class="edge">
<title>Node8&#45;&gt;Node1</title>
<path fill="none" stroke="#9a32cd" stroke-dasharray="5,2" d="M1186.13,-130.86C1213.88,-132.71 1245.41,-135.35 1274,-139 1279.73,-139.73 1285.73,-140.64 1291.66,-141.62"/>
<polygon fill="#9a32cd" stroke="#9a32cd" points="1186.3,-127.36 1176.1,-130.21 1185.85,-134.35 1186.3,-127.36"/>
<text text-anchor="middle" x="1234" y="-142" font-family="Helvetica,sans-Serif" font-size="10.00"> AliasCache</text>
</g>
<!-- Node9&#45;&gt;Node8 -->
<g id="edge11" class="edge">
<title>Node9&#45;&gt;Node8</title>
<path fill="none" stroke="midnightblue" d="M702.21,-68.99C803.76,-83.52 954.75,-105.14 1040.89,-117.47"/>
<polygon fill="midnightblue" stroke="midnightblue" points="702.63,-65.51 692.23,-67.56 701.64,-72.44 702.63,-65.51"/>
</g>
</g>
</svg>
