<?xml version="1.0" encoding="UTF-8" standalone="no"?>
<!DOCTYPE svg PUBLIC "-//W3C//DTD SVG 1.1//EN"
 "http://www.w3.org/Graphics/SVG/1.1/DTD/svg11.dtd">
<!-- Generated by graphviz version 2.43.0 (0)
 -->
<!-- Title: llvm::orc::LLJITBuilder Pages: 1 -->
<svg width="952pt" height="307pt"
 viewBox="0.00 0.00 952.00 307.00" xmlns="http://www.w3.org/2000/svg" xmlns:xlink="http://www.w3.org/1999/xlink">
<g id="graph0" class="graph" transform="scale(1 1) rotate(0) translate(4 303)">
<title>llvm::orc::LLJITBuilder</title>
<!-- Node4 -->
<g id="node1" class="node">
<title>Node4</title>
<polygon fill="#bfbfbf" stroke="black" points="829,-87 829,-106 944,-106 944,-87 829,-87"/>
<text text-anchor="middle" x="886.5" y="-94" font-family="Helvetica,sans-Serif" font-size="10.00">llvm::orc::LLJITBuilder</text>
</g>
<!-- Node5 -->
<g id="node2" class="node">
<title>Node5</title>
<g id="a_node2"><a xlink:href="classllvm_1_1orc_1_1LLJITBuilderState.html" target="_top" xlink:title="llvm::orc::LLJITBuilderState">
<polygon fill="none" stroke="black" points="637,-145 637,-164 775,-164 775,-145 637,-145"/>
<text text-anchor="middle" x="706" y="-152" font-family="Helvetica,sans-Serif" font-size="10.00">llvm::orc::LLJITBuilderState</text>
</a>
</g>
</g>
<!-- Node5&#45;&gt;Node4 -->
<g id="edge1" class="edge">
<title>Node5&#45;&gt;Node4</title>
<path fill="none" stroke="midnightblue" d="M746.28,-141.74C779.37,-130.98 825.99,-115.84 855.98,-106.09"/>
<polygon fill="midnightblue" stroke="midnightblue" points="744.9,-138.5 736.48,-144.92 747.07,-145.16 744.9,-138.5"/>
</g>
<!-- Node6 -->
<g id="node3" class="node">
<title>Node6</title>
<polygon fill="none" stroke="#bfbfbf" points="315,-268.5 315,-298.5 425,-298.5 425,-268.5 315,-268.5"/>
<text text-anchor="start" x="323" y="-286.5" font-family="Helvetica,sans-Serif" font-size="10.00">unique_ptr&lt; llvm::orc</text>
<text text-anchor="middle" x="370" y="-275.5" font-family="Helvetica,sans-Serif" font-size="10.00">::ExecutionSession &gt;</text>
</g>
<!-- Node6&#45;&gt;Node5 -->
<g id="edge2" class="edge">
<title>Node6&#45;&gt;Node5</title>
<path fill="none" stroke="#9a32cd" stroke-dasharray="5,2" d="M434.98,-273.83C482.53,-265.13 548.22,-249.91 602,-225.5 638.59,-208.9 676.09,-179.21 694.07,-164.02"/>
<polygon fill="#9a32cd" stroke="#9a32cd" points="434.35,-270.38 425.11,-275.58 435.57,-277.28 434.35,-270.38"/>
<text text-anchor="middle" x="544" y="-264.5" font-family="Helvetica,sans-Serif" font-size="10.00"> ES</text>
</g>
<!-- Node7 -->
<g id="node4" class="node">
<title>Node7</title>
<g id="a_node4"><a xlink:href="classllvm_1_1Optional.html" target="_top" xlink:title="llvm::Optional\&lt; llvm\l::orc::JITTargetMachineBuilder \&gt;">
<polygon fill="none" stroke="black" points="290,-219.5 290,-249.5 450,-249.5 450,-219.5 290,-219.5"/>
<text text-anchor="start" x="298" y="-237.5" font-family="Helvetica,sans-Serif" font-size="10.00">llvm::Optional&lt; llvm</text>
<text text-anchor="middle" x="370" y="-226.5" font-family="Helvetica,sans-Serif" font-size="10.00">::orc::JITTargetMachineBuilder &gt;</text>
</a>
</g>
</g>
<!-- Node7&#45;&gt;Node5 -->
<g id="edge3" class="edge">
<title>Node7&#45;&gt;Node5</title>
<path fill="none" stroke="#9a32cd" stroke-dasharray="5,2" d="M459.6,-217.51C502.76,-208.77 555.3,-197.46 602,-185.5 626.97,-179.11 654.95,-170.6 675.44,-164.11"/>
<polygon fill="#9a32cd" stroke="#9a32cd" points="458.81,-214.09 449.7,-219.5 460.19,-220.96 458.81,-214.09"/>
<text text-anchor="middle" x="544" y="-213.5" font-family="Helvetica,sans-Serif" font-size="10.00"> JTMB</text>
</g>
<!-- Node8 -->
<g id="node5" class="node">
<title>Node8</title>
<g id="a_node5"><a xlink:href="classllvm_1_1Optional.html" target="_top" xlink:title="llvm::Optional\&lt; T \&gt;">
<polygon fill="none" stroke="black" points="0,-225 0,-244 101,-244 101,-225 0,-225"/>
<text text-anchor="middle" x="50.5" y="-232" font-family="Helvetica,sans-Serif" font-size="10.00">llvm::Optional&lt; T &gt;</text>
</a>
</g>
</g>
<!-- Node8&#45;&gt;Node7 -->
<g id="edge4" class="edge">
<title>Node8&#45;&gt;Node7</title>
<path fill="none" stroke="orange" stroke-dasharray="5,2" d="M111.22,-234.5C161.71,-234.5 234.45,-234.5 289.8,-234.5"/>
<polygon fill="orange" stroke="orange" points="111.11,-231 101.11,-234.5 111.11,-238 111.11,-231"/>
<text text-anchor="start" x="119" y="-248.5" font-family="Helvetica,sans-Serif" font-size="10.00"> &lt; llvm::orc::JITTargetMachine</text>
<text text-anchor="middle" x="186.5" y="-237.5" font-family="Helvetica,sans-Serif" font-size="10.00">Builder &gt;</text>
</g>
<!-- Node9 -->
<g id="node6" class="node">
<title>Node9</title>
<polygon fill="none" stroke="#bfbfbf" points="295,-159 295,-200 445,-200 445,-159 295,-159"/>
<text text-anchor="start" x="303" y="-188" font-family="Helvetica,sans-Serif" font-size="10.00">function&lt; std::unique</text>
<text text-anchor="start" x="303" y="-177" font-family="Helvetica,sans-Serif" font-size="10.00">_ptr&lt; ObjectLayer &gt;(Execution</text>
<text text-anchor="middle" x="370" y="-166" font-family="Helvetica,sans-Serif" font-size="10.00">Session &amp;, const Triple &amp;TT)&gt;</text>
</g>
<!-- Node9&#45;&gt;Node5 -->
<g id="edge5" class="edge">
<title>Node9&#45;&gt;Node5</title>
<path fill="none" stroke="#9a32cd" stroke-dasharray="5,2" d="M455.4,-173.18C511.53,-168.98 584.3,-163.53 636.77,-159.61"/>
<polygon fill="#9a32cd" stroke="#9a32cd" points="454.84,-169.71 445.13,-173.95 455.36,-176.7 454.84,-169.71"/>
<text text-anchor="middle" x="544" y="-173.5" font-family="Helvetica,sans-Serif" font-size="10.00"> CreateObjectLinkingLayer</text>
</g>
<!-- Node10 -->
<g id="node7" class="node">
<title>Node10</title>
<g id="a_node7"><a xlink:href="classunsigned.html" target="_top" xlink:title="unsigned">
<polygon fill="none" stroke="black" points="342,-121 342,-140 398,-140 398,-121 342,-121"/>
<text text-anchor="middle" x="370" y="-128" font-family="Helvetica,sans-Serif" font-size="10.00">unsigned</text>
</a>
</g>
</g>
<!-- Node10&#45;&gt;Node5 -->
<g id="edge6" class="edge">
<title>Node10&#45;&gt;Node5</title>
<path fill="none" stroke="#9a32cd" stroke-dasharray="5,2" d="M408.05,-132.97C453.68,-136.04 533.56,-141.47 602,-146.5 613.27,-147.33 625.23,-148.23 636.86,-149.13"/>
<polygon fill="#9a32cd" stroke="#9a32cd" points="408.25,-129.48 398.03,-132.3 407.78,-136.46 408.25,-129.48"/>
<text text-anchor="middle" x="544" y="-149.5" font-family="Helvetica,sans-Serif" font-size="10.00"> NumCompileThreads</text>
</g>
<!-- Node11 -->
<g id="node8" class="node">
<title>Node11</title>
<polygon fill="none" stroke="#bfbfbf" points="272,-49.5 272,-101.5 468,-101.5 468,-49.5 272,-49.5"/>
<text text-anchor="start" x="280" y="-89.5" font-family="Helvetica,sans-Serif" font-size="10.00">function&lt; Expected</text>
<text text-anchor="start" x="280" y="-78.5" font-family="Helvetica,sans-Serif" font-size="10.00">&lt; std::unique_ptr&lt; IRCompile</text>
<text text-anchor="start" x="280" y="-67.5" font-family="Helvetica,sans-Serif" font-size="10.00">Layer::IRCompiler &gt; &gt;(JITTargetMachine</text>
<text text-anchor="middle" x="370" y="-56.5" font-family="Helvetica,sans-Serif" font-size="10.00">Builder JTMB)&gt;</text>
</g>
<!-- Node11&#45;&gt;Node5 -->
<g id="edge7" class="edge">
<title>Node11&#45;&gt;Node5</title>
<path fill="none" stroke="#9a32cd" stroke-dasharray="5,2" d="M478,-94.94C517.2,-102.68 561.8,-112.19 602,-122.5 627.58,-129.06 656.22,-138.1 676.8,-144.9"/>
<polygon fill="#9a32cd" stroke="#9a32cd" points="478.64,-91.5 468.15,-93.02 477.29,-98.37 478.64,-91.5"/>
<text text-anchor="middle" x="544" y="-125.5" font-family="Helvetica,sans-Serif" font-size="10.00"> CreateCompileFunction</text>
</g>
<!-- Node12 -->
<g id="node9" class="node">
<title>Node12</title>
<g id="a_node9"><a xlink:href="classllvm_1_1orc_1_1LLJITBuilderSetters.html" target="_top" xlink:title="llvm::orc::LLJITBuilderSetters\l\&lt; LLJIT, LLJITBuilder, LLJITBuilder\lState \&gt;">
<polygon fill="none" stroke="black" points="620,-52 620,-93 792,-93 792,-52 620,-52"/>
<text text-anchor="start" x="628" y="-81" font-family="Helvetica,sans-Serif" font-size="10.00">llvm::orc::LLJITBuilderSetters</text>
<text text-anchor="start" x="628" y="-70" font-family="Helvetica,sans-Serif" font-size="10.00">&lt; LLJIT, LLJITBuilder, LLJITBuilder</text>
<text text-anchor="middle" x="706" y="-59" font-family="Helvetica,sans-Serif" font-size="10.00">State &gt;</text>
</a>
</g>
</g>
<!-- Node12&#45;&gt;Node4 -->
<g id="edge8" class="edge">
<title>Node12&#45;&gt;Node4</title>
<path fill="none" stroke="midnightblue" d="M802.02,-85.28C811.18,-86.51 820.25,-87.73 828.86,-88.88"/>
<polygon fill="midnightblue" stroke="midnightblue" points="802.45,-81.8 792.07,-83.94 801.51,-88.74 802.45,-81.8"/>
</g>
<!-- Node13 -->
<g id="node10" class="node">
<title>Node13</title>
<g id="a_node10"><a xlink:href="classllvm_1_1orc_1_1LLJITBuilderSetters.html" target="_top" xlink:title="llvm::orc::LLJITBuilderSetters\l\&lt; JITType, SetterImpl, State \&gt;">
<polygon fill="none" stroke="black" points="294.5,-0.5 294.5,-30.5 445.5,-30.5 445.5,-0.5 294.5,-0.5"/>
<text text-anchor="start" x="302.5" y="-18.5" font-family="Helvetica,sans-Serif" font-size="10.00">llvm::orc::LLJITBuilderSetters</text>
<text text-anchor="middle" x="370" y="-7.5" font-family="Helvetica,sans-Serif" font-size="10.00">&lt; JITType, SetterImpl, State &gt;</text>
</a>
</g>
</g>
<!-- Node13&#45;&gt;Node12 -->
<g id="edge9" class="edge">
<title>Node13&#45;&gt;Node12</title>
<path fill="none" stroke="orange" stroke-dasharray="5,2" d="M455.82,-15.12C499.9,-16.49 554.36,-20.65 602,-31.5 622.27,-36.12 643.77,-44.14 661.85,-51.86"/>
<polygon fill="orange" stroke="orange" points="455.8,-11.62 445.71,-14.85 455.62,-18.62 455.8,-11.62"/>
<text text-anchor="start" x="493.5" y="-45.5" font-family="Helvetica,sans-Serif" font-size="10.00"> &lt; LLJIT, LLJITBuilder,</text>
<text text-anchor="middle" x="544" y="-34.5" font-family="Helvetica,sans-Serif" font-size="10.00"> LLJITBuilderState &gt;</text>
</g>
</g>
</svg>
