<?xml version="1.0" encoding="UTF-8" standalone="no"?>
<!DOCTYPE svg PUBLIC "-//W3C//DTD SVG 1.1//EN"
 "http://www.w3.org/Graphics/SVG/1.1/DTD/svg11.dtd">
<!-- Generated by graphviz version 2.43.0 (0)
 -->
<!-- Title: llvm::codeview::BaseClassRecord Pages: 1 -->
<svg width="598pt" height="164pt"
 viewBox="0.00 0.00 598.00 164.00" xmlns="http://www.w3.org/2000/svg" xmlns:xlink="http://www.w3.org/1999/xlink">
<g id="graph0" class="graph" transform="scale(1 1) rotate(0) translate(4 160)">
<title>llvm::codeview::BaseClassRecord</title>
<!-- Node2 -->
<g id="node1" class="node">
<title>Node2</title>
<polygon fill="#bfbfbf" stroke="black" points="454,-73 454,-103 590,-103 590,-73 454,-73"/>
<text text-anchor="start" x="462" y="-91" font-family="Helvetica,sans-Serif" font-size="10.00">llvm::codeview::BaseClass</text>
<text text-anchor="middle" x="522" y="-80" font-family="Helvetica,sans-Serif" font-size="10.00">Record</text>
</g>
<!-- Node3 -->
<g id="node2" class="node">
<title>Node3</title>
<g id="a_node2"><a xlink:href="classllvm_1_1codeview_1_1TypeRecord.html" target="_top" xlink:title="llvm::codeview::TypeRecord">
<polygon fill="none" stroke="black" points="234,-135.5 234,-154.5 375,-154.5 375,-135.5 234,-135.5"/>
<text text-anchor="middle" x="304.5" y="-142.5" font-family="Helvetica,sans-Serif" font-size="10.00">llvm::codeview::TypeRecord</text>
</a>
</g>
</g>
<!-- Node3&#45;&gt;Node2 -->
<g id="edge1" class="edge">
<title>Node3&#45;&gt;Node2</title>
<path fill="none" stroke="midnightblue" d="M357.18,-133.2C367.09,-130.87 377.38,-128.4 387,-126 414.92,-119.04 445.84,-110.34 470.94,-103.02"/>
<polygon fill="midnightblue" stroke="midnightblue" points="356.38,-129.79 347.44,-135.48 357.97,-136.61 356.38,-129.79"/>
</g>
<!-- Node4 -->
<g id="node3" class="node">
<title>Node4</title>
<polygon fill="none" stroke="#bfbfbf" points="0,-135.5 0,-154.5 89,-154.5 89,-135.5 0,-135.5"/>
<text text-anchor="middle" x="44.5" y="-142.5" font-family="Helvetica,sans-Serif" font-size="10.00">TypeRecordKind</text>
</g>
<!-- Node4&#45;&gt;Node3 -->
<g id="edge2" class="edge">
<title>Node4&#45;&gt;Node3</title>
<path fill="none" stroke="#9a32cd" stroke-dasharray="5,2" d="M99.39,-145C138.47,-145 191.66,-145 233.95,-145"/>
<polygon fill="#9a32cd" stroke="#9a32cd" points="99.27,-141.5 89.27,-145 99.27,-148.5 99.27,-141.5"/>
<text text-anchor="middle" x="155.5" y="-148" font-family="Helvetica,sans-Serif" font-size="10.00"> Kind</text>
</g>
<!-- Node5 -->
<g id="node4" class="node">
<title>Node5</title>
<polygon fill="none" stroke="#bfbfbf" points="279,-97.5 279,-116.5 330,-116.5 330,-97.5 279,-97.5"/>
<text text-anchor="middle" x="304.5" y="-104.5" font-family="Helvetica,sans-Serif" font-size="10.00">uint64_t</text>
</g>
<!-- Node5&#45;&gt;Node2 -->
<g id="edge3" class="edge">
<title>Node5&#45;&gt;Node2</title>
<path fill="none" stroke="#9a32cd" stroke-dasharray="5,2" d="M340.39,-103.92C370.98,-101.23 416.31,-97.23 453.9,-93.92"/>
<polygon fill="#9a32cd" stroke="#9a32cd" points="339.87,-100.46 330.22,-104.82 340.49,-107.43 339.87,-100.46"/>
<text text-anchor="middle" x="420.5" y="-101" font-family="Helvetica,sans-Serif" font-size="10.00"> Offset</text>
</g>
<!-- Node6 -->
<g id="node5" class="node">
<title>Node6</title>
<g id="a_node5"><a xlink:href="structllvm_1_1codeview_1_1MemberAttributes.html" target="_top" xlink:title="Equvalent to CV_fldattr_t in cvinfo.h. ">
<polygon fill="none" stroke="black" points="222,-59.5 222,-78.5 387,-78.5 387,-59.5 222,-59.5"/>
<text text-anchor="middle" x="304.5" y="-66.5" font-family="Helvetica,sans-Serif" font-size="10.00">llvm::codeview::MemberAttributes</text>
</a>
</g>
</g>
<!-- Node6&#45;&gt;Node2 -->
<g id="edge4" class="edge">
<title>Node6&#45;&gt;Node2</title>
<path fill="none" stroke="#9a32cd" stroke-dasharray="5,2" d="M397.59,-76.65C410.49,-77.75 423.58,-78.89 436,-80 441.76,-80.51 447.73,-81.06 453.73,-81.61"/>
<polygon fill="#9a32cd" stroke="#9a32cd" points="397.57,-73.13 387.31,-75.77 396.97,-80.11 397.57,-73.13"/>
<text text-anchor="middle" x="420.5" y="-83" font-family="Helvetica,sans-Serif" font-size="10.00"> Attrs</text>
</g>
<!-- Node7 -->
<g id="node6" class="node">
<title>Node7</title>
<g id="a_node6"><a xlink:href="classuint16__t.html" target="_top" xlink:title="uint16_t">
<polygon fill="none" stroke="black" points="19,-67.5 19,-86.5 70,-86.5 70,-67.5 19,-67.5"/>
<text text-anchor="middle" x="44.5" y="-74.5" font-family="Helvetica,sans-Serif" font-size="10.00">uint16_t</text>
</a>
</g>
</g>
<!-- Node7&#45;&gt;Node6 -->
<g id="edge5" class="edge">
<title>Node7&#45;&gt;Node6</title>
<path fill="none" stroke="#9a32cd" stroke-dasharray="5,2" d="M80.26,-75.92C116.36,-74.8 174.12,-73.01 221.84,-71.53"/>
<polygon fill="#9a32cd" stroke="#9a32cd" points="80.12,-72.42 70.24,-76.23 80.34,-79.42 80.12,-72.42"/>
<text text-anchor="middle" x="155.5" y="-78" font-family="Helvetica,sans-Serif" font-size="10.00"> Attrs</text>
</g>
<!-- Node8 -->
<g id="node7" class="node">
<title>Node8</title>
<g id="a_node7"><a xlink:href="classllvm_1_1codeview_1_1TypeIndex.html" target="_top" xlink:title="A 32&#45;bit type reference. ">
<polygon fill="none" stroke="black" points="237.5,-14.5 237.5,-33.5 371.5,-33.5 371.5,-14.5 237.5,-14.5"/>
<text text-anchor="middle" x="304.5" y="-21.5" font-family="Helvetica,sans-Serif" font-size="10.00">llvm::codeview::TypeIndex</text>
</a>
</g>
</g>
<!-- Node8&#45;&gt;Node2 -->
<g id="edge6" class="edge">
<title>Node8&#45;&gt;Node2</title>
<path fill="none" stroke="#9a32cd" stroke-dasharray="5,2" d="M348.51,-36.37C373.98,-43.73 406.86,-53.3 436,-62 447.68,-65.49 460.25,-69.3 472.04,-72.9"/>
<polygon fill="#9a32cd" stroke="#9a32cd" points="349.37,-32.97 338.79,-33.56 347.43,-39.7 349.37,-32.97"/>
<text text-anchor="middle" x="420.5" y="-65" font-family="Helvetica,sans-Serif" font-size="10.00"> Type</text>
</g>
<!-- Node9 -->
<g id="node8" class="node">
<title>Node9</title>
<g id="a_node8"><a xlink:href="classuint32__t.html" target="_top" xlink:title="uint32_t">
<polygon fill="none" stroke="black" points="19,-0.5 19,-19.5 70,-19.5 70,-0.5 19,-0.5"/>
<text text-anchor="middle" x="44.5" y="-7.5" font-family="Helvetica,sans-Serif" font-size="10.00">uint32_t</text>
</a>
</g>
</g>
<!-- Node9&#45;&gt;Node8 -->
<g id="edge7" class="edge">
<title>Node9&#45;&gt;Node8</title>
<path fill="none" stroke="#9a32cd" stroke-dasharray="5,2" d="M80.33,-11.89C120.48,-14.07 187.36,-17.7 237.46,-20.42"/>
<polygon fill="#9a32cd" stroke="#9a32cd" points="80.41,-8.39 70.24,-11.34 80.03,-15.38 80.41,-8.39"/>
<text text-anchor="middle" x="155.5" y="-54" font-family="Helvetica,sans-Serif" font-size="10.00"> SimpleModeMask</text>
<text text-anchor="middle" x="155.5" y="-43" font-family="Helvetica,sans-Serif" font-size="10.00">SimpleKindMask</text>
<text text-anchor="middle" x="155.5" y="-32" font-family="Helvetica,sans-Serif" font-size="10.00">FirstNonSimpleIndex</text>
<text text-anchor="middle" x="155.5" y="-21" font-family="Helvetica,sans-Serif" font-size="10.00">DecoratedItemIdMask</text>
</g>
</g>
</svg>
