<?xml version="1.0" encoding="UTF-8" standalone="no"?>
<!DOCTYPE svg PUBLIC "-//W3C//DTD SVG 1.1//EN"
 "http://www.w3.org/Graphics/SVG/1.1/DTD/svg11.dtd">
<!-- Generated by graphviz version 2.43.0 (0)
 -->
<!-- Title: llvm::orc::SpeculateQuery Pages: 1 -->
<svg width="300pt" height="84pt"
 viewBox="0.00 0.00 300.00 84.00" xmlns="http://www.w3.org/2000/svg" xmlns:xlink="http://www.w3.org/1999/xlink">
<g id="graph0" class="graph" transform="scale(1 1) rotate(0) translate(4 80)">
<title>llvm::orc::SpeculateQuery</title>
<!-- Node0 -->
<g id="node1" class="node">
<title>Node0</title>
<polygon fill="#bfbfbf" stroke="black" points="77.5,-56.5 77.5,-75.5 207.5,-75.5 207.5,-56.5 77.5,-56.5"/>
<text text-anchor="middle" x="142.5" y="-63.5" font-family="Helvetica,sans-Serif" font-size="10.00">llvm::orc::SpeculateQuery</text>
</g>
<!-- Node1 -->
<g id="node2" class="node">
<title>Node1</title>
<g id="a_node2"><a xlink:href="classllvm_1_1orc_1_1BlockFreqQuery.html" target="_top" xlink:title="llvm::orc::BlockFreqQuery">
<polygon fill="none" stroke="black" points="0,-0.5 0,-19.5 131,-19.5 131,-0.5 0,-0.5"/>
<text text-anchor="middle" x="65.5" y="-7.5" font-family="Helvetica,sans-Serif" font-size="10.00">llvm::orc::BlockFreqQuery</text>
</a>
</g>
</g>
<!-- Node0&#45;&gt;Node1 -->
<g id="edge1" class="edge">
<title>Node0&#45;&gt;Node1</title>
<path fill="none" stroke="midnightblue" d="M121.6,-50.34C107.59,-40.52 89.62,-27.91 77.84,-19.65"/>
<polygon fill="midnightblue" stroke="midnightblue" points="119.93,-53.45 130.13,-56.32 123.95,-47.72 119.93,-53.45"/>
</g>
<!-- Node2 -->
<g id="node3" class="node">
<title>Node2</title>
<g id="a_node3"><a xlink:href="classllvm_1_1orc_1_1SequenceBBQuery.html" target="_top" xlink:title="llvm::orc::SequenceBBQuery">
<polygon fill="none" stroke="black" points="149,-0.5 149,-19.5 292,-19.5 292,-0.5 149,-0.5"/>
<text text-anchor="middle" x="220.5" y="-7.5" font-family="Helvetica,sans-Serif" font-size="10.00">llvm::orc::SequenceBBQuery</text>
</a>
</g>
</g>
<!-- Node0&#45;&gt;Node2 -->
<g id="edge2" class="edge">
<title>Node0&#45;&gt;Node2</title>
<path fill="none" stroke="midnightblue" d="M163.27,-50.62C177.52,-40.76 195.96,-27.99 208,-19.65"/>
<polygon fill="midnightblue" stroke="midnightblue" points="161.26,-47.75 155.03,-56.32 165.25,-53.51 161.26,-47.75"/>
</g>
</g>
</svg>
