<?xml version="1.0" encoding="UTF-8" standalone="no"?>
<!DOCTYPE svg PUBLIC "-//W3C//DTD SVG 1.1//EN"
 "http://www.w3.org/Graphics/SVG/1.1/DTD/svg11.dtd">
<!-- Generated by graphviz version 2.43.0 (0)
 -->
<!-- Title: llvm::memoryaccess_def_iterator_base&lt; T &gt; Pages: 1 -->
<svg width="1050pt" height="122pt"
 viewBox="0.00 0.00 1050.00 121.50" xmlns="http://www.w3.org/2000/svg" xmlns:xlink="http://www.w3.org/1999/xlink">
<g id="graph0" class="graph" transform="scale(1 1) rotate(0) translate(4 117.5)">
<title>llvm::memoryaccess_def_iterator_base&lt; T &gt;</title>
<!-- Node0 -->
<g id="node1" class="node">
<title>Node0</title>
<polygon fill="#bfbfbf" stroke="black" points="688,-44.5 688,-74.5 809,-74.5 809,-44.5 688,-44.5"/>
<text text-anchor="start" x="696" y="-62.5" font-family="Helvetica,sans-Serif" font-size="10.00">llvm::memoryaccess</text>
<text text-anchor="middle" x="748.5" y="-51.5" font-family="Helvetica,sans-Serif" font-size="10.00">_def_iterator_base&lt; T &gt;</text>
</g>
<!-- Node5 -->
<g id="node6" class="node">
<title>Node5</title>
<g id="a_node6"><a xlink:href="classllvm_1_1memoryaccess__def__iterator__base.html" target="_top" xlink:title="llvm::memoryaccess\l_def_iterator_base\&lt;\l MemoryAccess \&gt;">
<polygon fill="none" stroke="black" points="935,-39 935,-80 1042,-80 1042,-39 935,-39"/>
<text text-anchor="start" x="943" y="-68" font-family="Helvetica,sans-Serif" font-size="10.00">llvm::memoryaccess</text>
<text text-anchor="start" x="943" y="-57" font-family="Helvetica,sans-Serif" font-size="10.00">_def_iterator_base&lt;</text>
<text text-anchor="middle" x="988.5" y="-46" font-family="Helvetica,sans-Serif" font-size="10.00"> MemoryAccess &gt;</text>
</a>
</g>
</g>
<!-- Node0&#45;&gt;Node5 -->
<g id="edge5" class="edge">
<title>Node0&#45;&gt;Node5</title>
<path fill="none" stroke="orange" stroke-dasharray="5,2" d="M819.42,-59.5C856.25,-59.5 900.69,-59.5 934.62,-59.5"/>
<polygon fill="orange" stroke="orange" points="819.25,-56 809.25,-59.5 819.25,-63 819.25,-56"/>
<text text-anchor="middle" x="872" y="-62.5" font-family="Helvetica,sans-Serif" font-size="10.00"> &lt; MemoryAccess &gt;</text>
</g>
<!-- Node1 -->
<g id="node2" class="node">
<title>Node1</title>
<g id="a_node2"><a xlink:href="classllvm_1_1iterator__facade__base.html" target="_top" xlink:title="llvm::iterator_facade\l_base\&lt; memoryaccess_def\l_iterator_base\&lt; T \&gt;, std\l::forward_iterator_tag, T,\l ptrdiff_t, T *, T *\&gt;">
<polygon fill="none" stroke="black" points="514,-28 514,-91 651,-91 651,-28 514,-28"/>
<text text-anchor="start" x="522" y="-79" font-family="Helvetica,sans-Serif" font-size="10.00">llvm::iterator_facade</text>
<text text-anchor="start" x="522" y="-68" font-family="Helvetica,sans-Serif" font-size="10.00">_base&lt; memoryaccess_def</text>
<text text-anchor="start" x="522" y="-57" font-family="Helvetica,sans-Serif" font-size="10.00">_iterator_base&lt; T &gt;, std</text>
<text text-anchor="start" x="522" y="-46" font-family="Helvetica,sans-Serif" font-size="10.00">::forward_iterator_tag, T,</text>
<text text-anchor="middle" x="582.5" y="-35" font-family="Helvetica,sans-Serif" font-size="10.00"> ptrdiff_t, T *, T *&gt;</text>
</a>
</g>
</g>
<!-- Node1&#45;&gt;Node0 -->
<g id="edge1" class="edge">
<title>Node1&#45;&gt;Node0</title>
<path fill="none" stroke="midnightblue" d="M661.22,-59.5C670.17,-59.5 679.2,-59.5 687.87,-59.5"/>
<polygon fill="midnightblue" stroke="midnightblue" points="661.15,-56 651.15,-59.5 661.15,-63 661.15,-56"/>
</g>
<!-- Node2 -->
<g id="node3" class="node">
<title>Node2</title>
<polygon fill="none" stroke="#bfbfbf" points="224,-72 224,-113 336,-113 336,-72 224,-72"/>
<text text-anchor="start" x="232" y="-101" font-family="Helvetica,sans-Serif" font-size="10.00">std::iterator&lt; std</text>
<text text-anchor="start" x="232" y="-90" font-family="Helvetica,sans-Serif" font-size="10.00">::forward_iterator_tag,</text>
<text text-anchor="middle" x="280" y="-79" font-family="Helvetica,sans-Serif" font-size="10.00"> T, ptrdiff_t, T *, T * &gt;</text>
</g>
<!-- Node2&#45;&gt;Node1 -->
<g id="edge2" class="edge">
<title>Node2&#45;&gt;Node1</title>
<path fill="none" stroke="midnightblue" d="M346.03,-90.86C388.82,-89.15 445.95,-85.65 496,-78.5 501.72,-77.68 507.63,-76.69 513.54,-75.59"/>
<polygon fill="midnightblue" stroke="midnightblue" points="345.89,-87.37 336.03,-91.24 346.15,-94.36 345.89,-87.37"/>
</g>
<!-- Node3 -->
<g id="node4" class="node">
<title>Node3</title>
<g id="a_node4"><a xlink:href="classllvm_1_1iterator__facade__base.html" target="_top" xlink:title="CRTP base class which implements the entire standard iterator facade in terms of a minimal subset of ...">
<polygon fill="none" stroke="black" points="196,-0.5 196,-52.5 364,-52.5 364,-0.5 196,-0.5"/>
<text text-anchor="start" x="204" y="-40.5" font-family="Helvetica,sans-Serif" font-size="10.00">llvm::iterator_facade</text>
<text text-anchor="start" x="204" y="-29.5" font-family="Helvetica,sans-Serif" font-size="10.00">_base&lt; DerivedT, IteratorCategory</text>
<text text-anchor="start" x="204" y="-18.5" font-family="Helvetica,sans-Serif" font-size="10.00">T, T, DifferenceTypeT, PointerT,</text>
<text text-anchor="middle" x="280" y="-7.5" font-family="Helvetica,sans-Serif" font-size="10.00"> ReferenceT &gt;</text>
</a>
</g>
</g>
<!-- Node3&#45;&gt;Node1 -->
<g id="edge3" class="edge">
<title>Node3&#45;&gt;Node1</title>
<path fill="none" stroke="orange" stroke-dasharray="5,2" d="M374.05,-22.01C412.11,-21.78 456.42,-23.59 496,-30.5 501.87,-31.52 507.88,-32.88 513.86,-34.46"/>
<polygon fill="orange" stroke="orange" points="373.97,-18.51 364.01,-22.12 374.05,-25.51 373.97,-18.51"/>
<text text-anchor="start" x="382" y="-66.5" font-family="Helvetica,sans-Serif" font-size="10.00"> &lt; memoryaccess_def</text>
<text text-anchor="start" x="382" y="-55.5" font-family="Helvetica,sans-Serif" font-size="10.00">_iterator_base&lt; T &gt;,</text>
<text text-anchor="start" x="382" y="-44.5" font-family="Helvetica,sans-Serif" font-size="10.00"> std::forward_iterator</text>
<text text-anchor="middle" x="439" y="-33.5" font-family="Helvetica,sans-Serif" font-size="10.00">_tag, T, ptrdiff_t, T *, T *&gt;</text>
</g>
<!-- Node4 -->
<g id="node5" class="node">
<title>Node4</title>
<polygon fill="none" stroke="#bfbfbf" points="0,-6 0,-47 159,-47 159,-6 0,-6"/>
<text text-anchor="start" x="8" y="-35" font-family="Helvetica,sans-Serif" font-size="10.00">std::iterator&lt; IteratorCategory</text>
<text text-anchor="start" x="8" y="-24" font-family="Helvetica,sans-Serif" font-size="10.00">T, T, DifferenceTypeT, PointerT,</text>
<text text-anchor="middle" x="79.5" y="-13" font-family="Helvetica,sans-Serif" font-size="10.00"> ReferenceT &gt;</text>
</g>
<!-- Node4&#45;&gt;Node3 -->
<g id="edge4" class="edge">
<title>Node4&#45;&gt;Node3</title>
<path fill="none" stroke="midnightblue" d="M169.46,-26.5C178.22,-26.5 187.09,-26.5 195.79,-26.5"/>
<polygon fill="midnightblue" stroke="midnightblue" points="169.24,-23 159.24,-26.5 169.24,-30 169.24,-23"/>
</g>
</g>
</svg>
