<?xml version="1.0" encoding="UTF-8" standalone="no"?>
<!DOCTYPE svg PUBLIC "-//W3C//DTD SVG 1.1//EN"
 "http://www.w3.org/Graphics/SVG/1.1/DTD/svg11.dtd">
<!-- Generated by graphviz version 2.43.0 (0)
 -->
<!-- Title: llvm::LanaiTTIImpl Pages: 1 -->
<svg width="334pt" height="320pt"
 viewBox="0.00 0.00 333.50 320.00" xmlns="http://www.w3.org/2000/svg" xmlns:xlink="http://www.w3.org/1999/xlink">
<g id="graph0" class="graph" transform="scale(1 1) rotate(0) translate(4 316)">
<title>llvm::LanaiTTIImpl</title>
<!-- Node0 -->
<g id="node1" class="node">
<title>Node0</title>
<polygon fill="#bfbfbf" stroke="black" points="116.5,-0.5 116.5,-19.5 214.5,-19.5 214.5,-0.5 116.5,-0.5"/>
<text text-anchor="middle" x="165.5" y="-7.5" font-family="Helvetica,sans-Serif" font-size="10.00">llvm::LanaiTTIImpl</text>
</g>
<!-- Node1 -->
<g id="node2" class="node">
<title>Node1</title>
<g id="a_node2"><a xlink:href="classllvm_1_1BasicTTIImplBase.html" target="_top" xlink:title="llvm::BasicTTIImplBase\l\&lt; LanaiTTIImpl \&gt;">
<polygon fill="none" stroke="black" points="104.5,-57.5 104.5,-87.5 226.5,-87.5 226.5,-57.5 104.5,-57.5"/>
<text text-anchor="start" x="112.5" y="-75.5" font-family="Helvetica,sans-Serif" font-size="10.00">llvm::BasicTTIImplBase</text>
<text text-anchor="middle" x="165.5" y="-64.5" font-family="Helvetica,sans-Serif" font-size="10.00">&lt; LanaiTTIImpl &gt;</text>
</a>
</g>
</g>
<!-- Node1&#45;&gt;Node0 -->
<g id="edge1" class="edge">
<title>Node1&#45;&gt;Node0</title>
<path fill="none" stroke="midnightblue" d="M165.5,-47.35C165.5,-37.51 165.5,-26.78 165.5,-19.54"/>
<polygon fill="midnightblue" stroke="midnightblue" points="162,-47.47 165.5,-57.47 169,-47.47 162,-47.47"/>
</g>
<!-- Node2 -->
<g id="node3" class="node">
<title>Node2</title>
<g id="a_node3"><a xlink:href="classllvm_1_1TargetTransformInfoImplCRTPBase.html" target="_top" xlink:title="llvm::TargetTransformInfo\lImplCRTPBase\&lt; LanaiTTIImpl \&gt;">
<polygon fill="none" stroke="black" points="0,-135.5 0,-165.5 161,-165.5 161,-135.5 0,-135.5"/>
<text text-anchor="start" x="8" y="-153.5" font-family="Helvetica,sans-Serif" font-size="10.00">llvm::TargetTransformInfo</text>
<text text-anchor="middle" x="80.5" y="-142.5" font-family="Helvetica,sans-Serif" font-size="10.00">ImplCRTPBase&lt; LanaiTTIImpl &gt;</text>
</a>
</g>
</g>
<!-- Node2&#45;&gt;Node1 -->
<g id="edge2" class="edge">
<title>Node2&#45;&gt;Node1</title>
<path fill="none" stroke="midnightblue" d="M104.11,-128.39C118.6,-115.43 136.78,-99.18 149.58,-87.73"/>
<polygon fill="midnightblue" stroke="midnightblue" points="101.61,-125.93 96.49,-135.2 106.28,-131.15 101.61,-125.93"/>
</g>
<!-- Node3 -->
<g id="node4" class="node">
<title>Node3</title>
<g id="a_node4"><a xlink:href="classllvm_1_1TargetTransformInfoImplBase.html" target="_top" xlink:title="Base class for use as a mix&#45;in that aids implementing a TargetTransformInfo&#45;compatible class...">
<polygon fill="none" stroke="black" points="28,-281.5 28,-311.5 157,-311.5 157,-281.5 28,-281.5"/>
<text text-anchor="start" x="36" y="-299.5" font-family="Helvetica,sans-Serif" font-size="10.00">llvm::TargetTransformInfo</text>
<text text-anchor="middle" x="92.5" y="-288.5" font-family="Helvetica,sans-Serif" font-size="10.00">ImplBase</text>
</a>
</g>
</g>
<!-- Node3&#45;&gt;Node2 -->
<g id="edge3" class="edge">
<title>Node3&#45;&gt;Node2</title>
<path fill="none" stroke="midnightblue" d="M90.49,-271.32C87.97,-241.14 83.75,-190.49 81.69,-165.84"/>
<polygon fill="midnightblue" stroke="midnightblue" points="87.01,-271.76 91.33,-281.43 93.98,-271.17 87.01,-271.76"/>
</g>
<!-- Node4 -->
<g id="node5" class="node">
<title>Node4</title>
<g id="a_node5"><a xlink:href="classllvm_1_1TargetTransformInfoImplCRTPBase.html" target="_top" xlink:title="CRTP base class for use as a mix&#45;in that aids implementing a TargetTransformInfo&#45;compatible class...">
<polygon fill="none" stroke="black" points="109,-213.5 109,-243.5 238,-243.5 238,-213.5 109,-213.5"/>
<text text-anchor="start" x="117" y="-231.5" font-family="Helvetica,sans-Serif" font-size="10.00">llvm::TargetTransformInfo</text>
<text text-anchor="middle" x="173.5" y="-220.5" font-family="Helvetica,sans-Serif" font-size="10.00">ImplCRTPBase&lt; T &gt;</text>
</a>
</g>
</g>
<!-- Node3&#45;&gt;Node4 -->
<g id="edge5" class="edge">
<title>Node3&#45;&gt;Node4</title>
<path fill="none" stroke="midnightblue" d="M117.89,-274.81C130.37,-264.64 145.08,-252.66 156.24,-243.57"/>
<polygon fill="midnightblue" stroke="midnightblue" points="115.62,-272.15 110.08,-281.18 120.04,-277.58 115.62,-272.15"/>
</g>
<!-- Node4&#45;&gt;Node2 -->
<g id="edge4" class="edge">
<title>Node4&#45;&gt;Node2</title>
<path fill="none" stroke="orange" stroke-dasharray="5,2" d="M148.11,-206.75C132.18,-193.73 112.05,-177.28 97.91,-165.73"/>
<polygon fill="orange" stroke="orange" points="146.05,-209.59 156.01,-213.2 150.48,-204.17 146.05,-209.59"/>
<text text-anchor="middle" x="173" y="-187" font-family="Helvetica,sans-Serif" font-size="10.00"> &lt; LanaiTTIImpl &gt;</text>
</g>
<!-- Node5 -->
<g id="node6" class="node">
<title>Node5</title>
<g id="a_node6"><a xlink:href="classllvm_1_1BasicTTIImplBase.html" target="_top" xlink:title="Base class which can be used to help build a TTI implementation. ">
<polygon fill="none" stroke="black" points="179.5,-141 179.5,-160 325.5,-160 325.5,-141 179.5,-141"/>
<text text-anchor="middle" x="252.5" y="-148" font-family="Helvetica,sans-Serif" font-size="10.00">llvm::BasicTTIImplBase&lt; T &gt;</text>
</a>
</g>
</g>
<!-- Node4&#45;&gt;Node5 -->
<g id="edge7" class="edge">
<title>Node4&#45;&gt;Node5</title>
<path fill="none" stroke="midnightblue" d="M203.96,-207.31C209.01,-203.46 214.05,-199.28 218.5,-195 229.82,-184.1 240.59,-169.31 246.87,-160.09"/>
<polygon fill="midnightblue" stroke="midnightblue" points="201.55,-204.73 195.53,-213.45 205.67,-210.39 201.55,-204.73"/>
</g>
<!-- Node5&#45;&gt;Node1 -->
<g id="edge6" class="edge">
<title>Node5&#45;&gt;Node1</title>
<path fill="none" stroke="orange" stroke-dasharray="5,2" d="M234.65,-133.9C219.04,-120.27 196.59,-100.66 181.55,-87.52"/>
<polygon fill="orange" stroke="orange" points="232.69,-136.84 242.52,-140.78 237.29,-131.57 232.69,-136.84"/>
<text text-anchor="middle" x="253" y="-109" font-family="Helvetica,sans-Serif" font-size="10.00"> &lt; LanaiTTIImpl &gt;</text>
</g>
</g>
</svg>
