<?xml version="1.0" encoding="UTF-8" standalone="no"?>
<!DOCTYPE svg PUBLIC "-//W3C//DTD SVG 1.1//EN"
 "http://www.w3.org/Graphics/SVG/1.1/DTD/svg11.dtd">
<!-- Generated by graphviz version 2.43.0 (0)
 -->
<!-- Title: llvm::AbstractDependenceGraphBuilder&lt; GraphType &gt; Pages: 1 -->
<svg width="211pt" height="185pt"
 viewBox="0.00 0.00 211.00 185.00" xmlns="http://www.w3.org/2000/svg" xmlns:xlink="http://www.w3.org/1999/xlink">
<g id="graph0" class="graph" transform="scale(1 1) rotate(0) translate(4 181)">
<title>llvm::AbstractDependenceGraphBuilder&lt; GraphType &gt;</title>
<!-- Node0 -->
<g id="node1" class="node">
<title>Node0</title>
<polygon fill="#bfbfbf" stroke="black" points="9.5,-146.5 9.5,-176.5 148.5,-176.5 148.5,-146.5 9.5,-146.5"/>
<text text-anchor="start" x="17.5" y="-164.5" font-family="Helvetica,sans-Serif" font-size="10.00">llvm::AbstractDependence</text>
<text text-anchor="middle" x="79" y="-153.5" font-family="Helvetica,sans-Serif" font-size="10.00">GraphBuilder&lt; GraphType &gt;</text>
</g>
<!-- Node1 -->
<g id="node2" class="node">
<title>Node1</title>
<g id="a_node2"><a xlink:href="classllvm_1_1AbstractDependenceGraphBuilder.html" target="_top" xlink:title="llvm::AbstractDependence\lGraphBuilder\&lt; DataDependence\lGraph \&gt;">
<polygon fill="none" stroke="black" points="0,-57.5 0,-98.5 158,-98.5 158,-57.5 0,-57.5"/>
<text text-anchor="start" x="8" y="-86.5" font-family="Helvetica,sans-Serif" font-size="10.00">llvm::AbstractDependence</text>
<text text-anchor="start" x="8" y="-75.5" font-family="Helvetica,sans-Serif" font-size="10.00">GraphBuilder&lt; DataDependence</text>
<text text-anchor="middle" x="79" y="-64.5" font-family="Helvetica,sans-Serif" font-size="10.00">Graph &gt;</text>
</a>
</g>
</g>
<!-- Node0&#45;&gt;Node1 -->
<g id="edge1" class="edge">
<title>Node0&#45;&gt;Node1</title>
<path fill="none" stroke="orange" stroke-dasharray="5,2" d="M79,-136.07C79,-124.06 79,-109.79 79,-98.53"/>
<polygon fill="orange" stroke="orange" points="75.5,-136.3 79,-146.3 82.5,-136.3 75.5,-136.3"/>
<text text-anchor="middle" x="141" y="-120" font-family="Helvetica,sans-Serif" font-size="10.00"> &lt; DataDependenceGraph &gt;</text>
</g>
<!-- Node2 -->
<g id="node3" class="node">
<title>Node2</title>
<g id="a_node3"><a xlink:href="classllvm_1_1DDGBuilder.html" target="_top" xlink:title="Concrete implementation of a pure data dependence graph builder. ">
<polygon fill="none" stroke="black" points="32.5,-0.5 32.5,-19.5 125.5,-19.5 125.5,-0.5 32.5,-0.5"/>
<text text-anchor="middle" x="79" y="-7.5" font-family="Helvetica,sans-Serif" font-size="10.00">llvm::DDGBuilder</text>
</a>
</g>
</g>
<!-- Node1&#45;&gt;Node2 -->
<g id="edge2" class="edge">
<title>Node1&#45;&gt;Node2</title>
<path fill="none" stroke="midnightblue" d="M79,-47.12C79,-37.17 79,-26.84 79,-19.79"/>
<polygon fill="midnightblue" stroke="midnightblue" points="75.5,-47.2 79,-57.2 82.5,-47.2 75.5,-47.2"/>
</g>
</g>
</svg>
