<?xml version="1.0" encoding="UTF-8" standalone="no"?>
<!DOCTYPE svg PUBLIC "-//W3C//DTD SVG 1.1//EN"
 "http://www.w3.org/Graphics/SVG/1.1/DTD/svg11.dtd">
<!-- Generated by graphviz version 2.43.0 (0)
 -->
<!-- Title: llvm::MDNode Pages: 1 -->
<svg width="122pt" height="185pt"
 viewBox="0.00 0.00 121.50 185.00" xmlns="http://www.w3.org/2000/svg" xmlns:xlink="http://www.w3.org/1999/xlink">
<g id="graph0" class="graph" transform="scale(1 1) rotate(0) translate(4 181)">
<title>llvm::MDNode</title>
<!-- Node38 -->
<g id="node1" class="node">
<title>Node38</title>
<polygon fill="#bfbfbf" stroke="black" points="0.5,-0.5 0.5,-19.5 80.5,-19.5 80.5,-0.5 0.5,-0.5"/>
<text text-anchor="middle" x="40.5" y="-7.5" font-family="Helvetica,sans-Serif" font-size="10.00">llvm::MDNode</text>
</g>
<!-- Node39 -->
<g id="node2" class="node">
<title>Node39</title>
<g id="a_node2"><a xlink:href="classllvm_1_1Metadata.html" target="_top" xlink:title="Root of the metadata hierarchy. ">
<polygon fill="none" stroke="black" points="0,-57.5 0,-76.5 81,-76.5 81,-57.5 0,-57.5"/>
<text text-anchor="middle" x="40.5" y="-64.5" font-family="Helvetica,sans-Serif" font-size="10.00">llvm::Metadata</text>
</a>
</g>
</g>
<!-- Node39&#45;&gt;Node38 -->
<g id="edge1" class="edge">
<title>Node39&#45;&gt;Node38</title>
<path fill="none" stroke="midnightblue" d="M40.5,-47.12C40.5,-37.82 40.5,-27.06 40.5,-19.71"/>
<polygon fill="midnightblue" stroke="midnightblue" points="37,-47.41 40.5,-57.41 44,-47.41 37,-47.41"/>
</g>
<!-- Node40 -->
<g id="node3" class="node">
<title>Node40</title>
<g id="a_node3"><a xlink:href="classunsigned.html" target="_top" xlink:title="unsigned">
<polygon fill="none" stroke="black" points="12.5,-157.5 12.5,-176.5 68.5,-176.5 68.5,-157.5 12.5,-157.5"/>
<text text-anchor="middle" x="40.5" y="-164.5" font-family="Helvetica,sans-Serif" font-size="10.00">unsigned</text>
</a>
</g>
</g>
<!-- Node40&#45;&gt;Node39 -->
<g id="edge2" class="edge">
<title>Node40&#45;&gt;Node39</title>
<path fill="none" stroke="#9a32cd" stroke-dasharray="5,2" d="M40.5,-147.22C40.5,-125.95 40.5,-92.22 40.5,-76.54"/>
<polygon fill="#9a32cd" stroke="#9a32cd" points="37,-147.3 40.5,-157.3 44,-147.3 37,-147.3"/>
<text text-anchor="middle" x="77" y="-131" font-family="Helvetica,sans-Serif" font-size="10.00"> ImplicitCode</text>
<text text-anchor="middle" x="77" y="-120" font-family="Helvetica,sans-Serif" font-size="10.00">Storage</text>
<text text-anchor="middle" x="77" y="-109" font-family="Helvetica,sans-Serif" font-size="10.00">SubclassData32</text>
<text text-anchor="middle" x="77" y="-98" font-family="Helvetica,sans-Serif" font-size="10.00">SubclassData16</text>
</g>
</g>
</svg>
