<?xml version="1.0" encoding="UTF-8" standalone="no"?>
<!DOCTYPE svg PUBLIC "-//W3C//DTD SVG 1.1//EN"
 "http://www.w3.org/Graphics/SVG/1.1/DTD/svg11.dtd">
<!-- Generated by graphviz version 2.43.0 (0)
 -->
<!-- Title: llvm::DWARFDebugLoc Pages: 1 -->
<svg width="147pt" height="209pt"
 viewBox="0.00 0.00 147.00 209.00" xmlns="http://www.w3.org/2000/svg" xmlns:xlink="http://www.w3.org/1999/xlink">
<g id="graph0" class="graph" transform="scale(1 1) rotate(0) translate(4 205)">
<title>llvm::DWARFDebugLoc</title>
<!-- Node2 -->
<g id="node1" class="node">
<title>Node2</title>
<polygon fill="#bfbfbf" stroke="black" points="8.5,-0.5 8.5,-19.5 130.5,-19.5 130.5,-0.5 8.5,-0.5"/>
<text text-anchor="middle" x="69.5" y="-7.5" font-family="Helvetica,sans-Serif" font-size="10.00">llvm::DWARFDebugLoc</text>
</g>
<!-- Node3 -->
<g id="node2" class="node">
<title>Node3</title>
<g id="a_node2"><a xlink:href="classllvm_1_1DWARFLocationTable.html" target="_top" xlink:title="An abstract base class for various kinds of location tables (.debug_loc, .debug_loclists, and their dwo variants). ">
<polygon fill="none" stroke="black" points="0,-57.5 0,-76.5 139,-76.5 139,-57.5 0,-57.5"/>
<text text-anchor="middle" x="69.5" y="-64.5" font-family="Helvetica,sans-Serif" font-size="10.00">llvm::DWARFLocationTable</text>
</a>
</g>
</g>
<!-- Node3&#45;&gt;Node2 -->
<g id="edge1" class="edge">
<title>Node3&#45;&gt;Node2</title>
<path fill="none" stroke="midnightblue" d="M69.5,-47.12C69.5,-37.82 69.5,-27.06 69.5,-19.71"/>
<polygon fill="midnightblue" stroke="midnightblue" points="66,-47.41 69.5,-57.41 73,-47.41 66,-47.41"/>
</g>
<!-- Node4 -->
<g id="node3" class="node">
<title>Node4</title>
<g id="a_node3"><a xlink:href="classllvm_1_1DWARFDataExtractor.html" target="_top" xlink:title="A DataExtractor (typically for an in&#45;memory copy of an object&#45;file section) plus a relocation map for...">
<polygon fill="none" stroke="black" points="0,-124.5 0,-143.5 139,-143.5 139,-124.5 0,-124.5"/>
<text text-anchor="middle" x="69.5" y="-131.5" font-family="Helvetica,sans-Serif" font-size="10.00">llvm::DWARFDataExtractor</text>
</a>
</g>
</g>
<!-- Node4&#45;&gt;Node3 -->
<g id="edge2" class="edge">
<title>Node4&#45;&gt;Node3</title>
<path fill="none" stroke="#9a32cd" stroke-dasharray="5,2" d="M69.5,-114.04C69.5,-101.67 69.5,-86.12 69.5,-76.63"/>
<polygon fill="#9a32cd" stroke="#9a32cd" points="66,-114.23 69.5,-124.23 73,-114.23 66,-114.23"/>
<text text-anchor="middle" x="82" y="-98" font-family="Helvetica,sans-Serif" font-size="10.00"> Data</text>
</g>
<!-- Node5 -->
<g id="node4" class="node">
<title>Node5</title>
<g id="a_node4"><a xlink:href="classllvm_1_1DataExtractor.html" target="_top" xlink:title="llvm::DataExtractor">
<polygon fill="none" stroke="black" points="19,-181.5 19,-200.5 120,-200.5 120,-181.5 19,-181.5"/>
<text text-anchor="middle" x="69.5" y="-188.5" font-family="Helvetica,sans-Serif" font-size="10.00">llvm::DataExtractor</text>
</a>
</g>
</g>
<!-- Node5&#45;&gt;Node4 -->
<g id="edge3" class="edge">
<title>Node5&#45;&gt;Node4</title>
<path fill="none" stroke="midnightblue" d="M69.5,-171.12C69.5,-161.82 69.5,-151.06 69.5,-143.71"/>
<polygon fill="midnightblue" stroke="midnightblue" points="66,-171.41 69.5,-181.41 73,-171.41 66,-171.41"/>
</g>
</g>
</svg>
