<?xml version="1.0" encoding="UTF-8" standalone="no"?>
<!DOCTYPE svg PUBLIC "-//W3C//DTD SVG 1.1//EN"
 "http://www.w3.org/Graphics/SVG/1.1/DTD/svg11.dtd">
<!-- Generated by graphviz version 2.43.0 (0)
 -->
<!-- Title: llvm::SCEVRewriteVisitor&lt; SC &gt; Pages: 1 -->
<svg width="1438pt" height="236pt"
 viewBox="0.00 0.00 1438.00 235.57" xmlns="http://www.w3.org/2000/svg" xmlns:xlink="http://www.w3.org/1999/xlink">
<g id="graph0" class="graph" transform="scale(1 1) rotate(0) translate(4 231.57)">
<title>llvm::SCEVRewriteVisitor&lt; SC &gt;</title>
<!-- Node7 -->
<g id="node1" class="node">
<title>Node7</title>
<polygon fill="#bfbfbf" stroke="black" points="1300,-107.5 1300,-137.5 1430,-137.5 1430,-107.5 1300,-107.5"/>
<text text-anchor="start" x="1308" y="-125.5" font-family="Helvetica,sans-Serif" font-size="10.00">llvm::SCEVRewriteVisitor</text>
<text text-anchor="middle" x="1365" y="-114.5" font-family="Helvetica,sans-Serif" font-size="10.00">&lt; SC &gt;</text>
</g>
<!-- Node8 -->
<g id="node2" class="node">
<title>Node8</title>
<g id="a_node2"><a xlink:href="structllvm_1_1SCEVVisitor.html" target="_top" xlink:title="llvm::SCEVVisitor\&lt;\l SC, const SCEV *\&gt;">
<polygon fill="none" stroke="black" points="1079,-162.5 1079,-192.5 1186,-192.5 1186,-162.5 1079,-162.5"/>
<text text-anchor="start" x="1087" y="-180.5" font-family="Helvetica,sans-Serif" font-size="10.00">llvm::SCEVVisitor&lt;</text>
<text text-anchor="middle" x="1132.5" y="-169.5" font-family="Helvetica,sans-Serif" font-size="10.00"> SC, const SCEV *&gt;</text>
</a>
</g>
</g>
<!-- Node8&#45;&gt;Node7 -->
<g id="edge1" class="edge">
<title>Node8&#45;&gt;Node7</title>
<path fill="none" stroke="midnightblue" d="M1195.96,-162.6C1228.54,-154.82 1268.31,-145.33 1300.98,-137.54"/>
<polygon fill="midnightblue" stroke="midnightblue" points="1195.01,-159.23 1186.09,-164.95 1196.63,-166.03 1195.01,-159.23"/>
</g>
<!-- Node9 -->
<g id="node3" class="node">
<title>Node9</title>
<g id="a_node3"><a xlink:href="structllvm_1_1SCEVVisitor.html" target="_top" xlink:title="This class defines a simple visitor class that may be used for various SCEV analysis purposes...">
<polygon fill="none" stroke="black" points="806,-162.5 806,-192.5 908,-192.5 908,-162.5 806,-162.5"/>
<text text-anchor="start" x="814" y="-180.5" font-family="Helvetica,sans-Serif" font-size="10.00">llvm::SCEVVisitor&lt;</text>
<text text-anchor="middle" x="857" y="-169.5" font-family="Helvetica,sans-Serif" font-size="10.00"> SC, RetVal &gt;</text>
</a>
</g>
</g>
<!-- Node9&#45;&gt;Node8 -->
<g id="edge2" class="edge">
<title>Node9&#45;&gt;Node8</title>
<path fill="none" stroke="orange" stroke-dasharray="5,2" d="M918.42,-177.5C966.46,-177.5 1032.98,-177.5 1078.86,-177.5"/>
<polygon fill="orange" stroke="orange" points="918.16,-174 908.16,-177.5 918.16,-181 918.16,-174"/>
<text text-anchor="middle" x="1001.5" y="-180.5" font-family="Helvetica,sans-Serif" font-size="10.00"> &lt; SC, const SCEV *&gt;</text>
</g>
<!-- Node10 -->
<g id="node4" class="node">
<title>Node10</title>
<g id="a_node4"><a xlink:href="classllvm_1_1DenseMap.html" target="_top" xlink:title="llvm::DenseMap\&lt; const\l llvm::SCEV *, const\l llvm::SCEV *\&gt;">
<polygon fill="none" stroke="black" points="1072,-102 1072,-143 1193,-143 1193,-102 1072,-102"/>
<text text-anchor="start" x="1080" y="-131" font-family="Helvetica,sans-Serif" font-size="10.00">llvm::DenseMap&lt; const</text>
<text text-anchor="start" x="1080" y="-120" font-family="Helvetica,sans-Serif" font-size="10.00"> llvm::SCEV *, const</text>
<text text-anchor="middle" x="1132.5" y="-109" font-family="Helvetica,sans-Serif" font-size="10.00"> llvm::SCEV *&gt;</text>
</a>
</g>
</g>
<!-- Node10&#45;&gt;Node7 -->
<g id="edge3" class="edge">
<title>Node10&#45;&gt;Node7</title>
<path fill="none" stroke="#9a32cd" stroke-dasharray="5,2" d="M1203.34,-122.5C1234,-122.5 1269.75,-122.5 1299.74,-122.5"/>
<polygon fill="#9a32cd" stroke="#9a32cd" points="1203.16,-119 1193.16,-122.5 1203.16,-126 1203.16,-119"/>
<text text-anchor="middle" x="1246.5" y="-125.5" font-family="Helvetica,sans-Serif" font-size="10.00"> RewriteResults</text>
</g>
<!-- Node11 -->
<g id="node5" class="node">
<title>Node11</title>
<g id="a_node5"><a xlink:href="classllvm_1_1DenseMapBase.html" target="_top" xlink:title="llvm::DenseMapBase\l\&lt; DenseMap\&lt; const llvm\l::SCEV *, const llvm::\lSCEV *, DenseMapInfo\&lt; const\l llvm::SCEV *\&gt;, llvm::detail\l::DenseMapPair\&lt; const llvm::\lSCEV *, const llvm::SCEV *\&gt; \&gt;\l, const llvm::SCEV *, const llvm\l::SCEV *, DenseMapInfo\&lt; const llvm\l::SCEV *\&gt;, llvm::detail::DenseMapPair\l\&lt; const llvm::SCEV *, const llvm::SCEV *\&gt; \&gt;">
<polygon fill="none" stroke="black" points="528,-72 528,-201 746,-201 746,-72 528,-72"/>
<text text-anchor="start" x="536" y="-189" font-family="Helvetica,sans-Serif" font-size="10.00">llvm::DenseMapBase</text>
<text text-anchor="start" x="536" y="-178" font-family="Helvetica,sans-Serif" font-size="10.00">&lt; DenseMap&lt; const llvm</text>
<text text-anchor="start" x="536" y="-167" font-family="Helvetica,sans-Serif" font-size="10.00">::SCEV *, const llvm::</text>
<text text-anchor="start" x="536" y="-156" font-family="Helvetica,sans-Serif" font-size="10.00">SCEV *, DenseMapInfo&lt; const</text>
<text text-anchor="start" x="536" y="-145" font-family="Helvetica,sans-Serif" font-size="10.00"> llvm::SCEV *&gt;, llvm::detail</text>
<text text-anchor="start" x="536" y="-134" font-family="Helvetica,sans-Serif" font-size="10.00">::DenseMapPair&lt; const llvm::</text>
<text text-anchor="start" x="536" y="-123" font-family="Helvetica,sans-Serif" font-size="10.00">SCEV *, const llvm::SCEV *&gt; &gt;</text>
<text text-anchor="start" x="536" y="-112" font-family="Helvetica,sans-Serif" font-size="10.00">, const llvm::SCEV *, const llvm</text>
<text text-anchor="start" x="536" y="-101" font-family="Helvetica,sans-Serif" font-size="10.00">::SCEV *, DenseMapInfo&lt; const llvm</text>
<text text-anchor="start" x="536" y="-90" font-family="Helvetica,sans-Serif" font-size="10.00">::SCEV *&gt;, llvm::detail::DenseMapPair</text>
<text text-anchor="middle" x="637" y="-79" font-family="Helvetica,sans-Serif" font-size="10.00">&lt; const llvm::SCEV *, const llvm::SCEV *&gt; &gt;</text>
</a>
</g>
</g>
<!-- Node11&#45;&gt;Node10 -->
<g id="edge4" class="edge">
<title>Node11&#45;&gt;Node10</title>
<path fill="none" stroke="midnightblue" d="M756.41,-133.14C855.87,-130.32 993.87,-126.4 1071.76,-124.19"/>
<polygon fill="midnightblue" stroke="midnightblue" points="756.2,-129.65 746.3,-133.43 756.4,-136.64 756.2,-129.65"/>
</g>
<!-- Node12 -->
<g id="node6" class="node">
<title>Node12</title>
<g id="a_node6"><a xlink:href="classllvm_1_1DebugEpochBase.html" target="_top" xlink:title="A base class for data structure classes wishing to make iterators (&quot;handles&quot;) pointing into themselve...">
<polygon fill="none" stroke="black" points="0,-70 0,-89 119,-89 119,-70 0,-70"/>
<text text-anchor="middle" x="59.5" y="-77" font-family="Helvetica,sans-Serif" font-size="10.00">llvm::DebugEpochBase</text>
</a>
</g>
</g>
<!-- Node12&#45;&gt;Node11 -->
<g id="edge5" class="edge">
<title>Node12&#45;&gt;Node11</title>
<path fill="none" stroke="midnightblue" d="M81.31,-95.12C122.14,-124.67 216.76,-187.84 308,-210.5 395.13,-232.14 423.37,-234.06 510,-210.5 518.94,-208.07 527.88,-204.83 536.66,-201.06"/>
<polygon fill="midnightblue" stroke="midnightblue" points="83.12,-92.11 72.99,-89.02 78.99,-97.75 83.12,-92.11"/>
</g>
<!-- Node13 -->
<g id="node7" class="node">
<title>Node13</title>
<g id="a_node7"><a xlink:href="classllvm_1_1DenseMapBase.html" target="_top" xlink:title="llvm::DenseMapBase\l\&lt; DerivedT, KeyT, ValueT,\l KeyInfoT, BucketT \&gt;">
<polygon fill="none" stroke="black" points="156,-59 156,-100 290,-100 290,-59 156,-59"/>
<text text-anchor="start" x="164" y="-88" font-family="Helvetica,sans-Serif" font-size="10.00">llvm::DenseMapBase</text>
<text text-anchor="start" x="164" y="-77" font-family="Helvetica,sans-Serif" font-size="10.00">&lt; DerivedT, KeyT, ValueT,</text>
<text text-anchor="middle" x="223" y="-66" font-family="Helvetica,sans-Serif" font-size="10.00"> KeyInfoT, BucketT &gt;</text>
</a>
</g>
</g>
<!-- Node12&#45;&gt;Node13 -->
<g id="edge7" class="edge">
<title>Node12&#45;&gt;Node13</title>
<path fill="none" stroke="midnightblue" d="M129.45,-79.5C138.22,-79.5 147.18,-79.5 155.9,-79.5"/>
<polygon fill="midnightblue" stroke="midnightblue" points="129.26,-76 119.26,-79.5 129.26,-83 129.26,-76"/>
</g>
<!-- Node15 -->
<g id="node9" class="node">
<title>Node15</title>
<g id="a_node9"><a xlink:href="classllvm_1_1DenseMapBase.html" target="_top" xlink:title="llvm::DenseMapBase\l\&lt; DenseMap\&lt; KeyT, ValueT,\l KeyInfoT, BucketT \&gt;, KeyT,\l ValueT, KeyInfoT, BucketT \&gt;">
<polygon fill="none" stroke="black" points="563,-0.5 563,-52.5 711,-52.5 711,-0.5 563,-0.5"/>
<text text-anchor="start" x="571" y="-40.5" font-family="Helvetica,sans-Serif" font-size="10.00">llvm::DenseMapBase</text>
<text text-anchor="start" x="571" y="-29.5" font-family="Helvetica,sans-Serif" font-size="10.00">&lt; DenseMap&lt; KeyT, ValueT,</text>
<text text-anchor="start" x="571" y="-18.5" font-family="Helvetica,sans-Serif" font-size="10.00"> KeyInfoT, BucketT &gt;, KeyT,</text>
<text text-anchor="middle" x="637" y="-7.5" font-family="Helvetica,sans-Serif" font-size="10.00"> ValueT, KeyInfoT, BucketT &gt;</text>
</a>
</g>
</g>
<!-- Node12&#45;&gt;Node15 -->
<g id="edge10" class="edge">
<title>Node12&#45;&gt;Node15</title>
<path fill="none" stroke="midnightblue" d="M97.26,-66.61C114.87,-60.79 136.36,-54.18 156,-49.5 309.44,-12.98 352.28,-23.25 510,-24.5 527.06,-24.64 545.43,-24.87 562.71,-25.14"/>
<polygon fill="midnightblue" stroke="midnightblue" points="95.75,-63.43 87.38,-69.93 97.98,-70.07 95.75,-63.43"/>
</g>
<!-- Node13&#45;&gt;Node11 -->
<g id="edge6" class="edge">
<title>Node13&#45;&gt;Node11</title>
<path fill="none" stroke="orange" stroke-dasharray="5,2" d="M300.25,-80.86C358.17,-82.91 439.6,-87.99 510,-100.5 515.82,-101.53 521.76,-102.73 527.74,-104.04"/>
<polygon fill="orange" stroke="orange" points="300.19,-77.35 290.07,-80.52 299.95,-84.35 300.19,-77.35"/>
<text text-anchor="start" x="308" y="-202.5" font-family="Helvetica,sans-Serif" font-size="10.00"> &lt; DenseMap&lt; const llvm</text>
<text text-anchor="start" x="308" y="-191.5" font-family="Helvetica,sans-Serif" font-size="10.00">::SCEV *, const llvm::</text>
<text text-anchor="start" x="308" y="-180.5" font-family="Helvetica,sans-Serif" font-size="10.00">SCEV *, DenseMapInfo&lt; const</text>
<text text-anchor="start" x="308" y="-169.5" font-family="Helvetica,sans-Serif" font-size="10.00"> llvm::SCEV *&gt;, llvm::detail</text>
<text text-anchor="start" x="308" y="-158.5" font-family="Helvetica,sans-Serif" font-size="10.00">::DenseMapPair&lt; const llvm::</text>
<text text-anchor="start" x="308" y="-147.5" font-family="Helvetica,sans-Serif" font-size="10.00">SCEV *, const llvm::SCEV *&gt; &gt;</text>
<text text-anchor="start" x="308" y="-136.5" font-family="Helvetica,sans-Serif" font-size="10.00">, const llvm::SCEV *, const llvm</text>
<text text-anchor="start" x="308" y="-125.5" font-family="Helvetica,sans-Serif" font-size="10.00">::SCEV *, DenseMapInfo&lt; const llvm</text>
<text text-anchor="start" x="308" y="-114.5" font-family="Helvetica,sans-Serif" font-size="10.00">::SCEV *&gt;, llvm::detail::DenseMapPair</text>
<text text-anchor="middle" x="409" y="-103.5" font-family="Helvetica,sans-Serif" font-size="10.00">&lt; const llvm::SCEV *, const llvm::SCEV *&gt; &gt;</text>
</g>
<!-- Node13&#45;&gt;Node15 -->
<g id="edge11" class="edge">
<title>Node13&#45;&gt;Node15</title>
<path fill="none" stroke="orange" stroke-dasharray="5,2" d="M274.65,-55.17C285.44,-50.91 296.92,-47.03 308,-44.5 393.89,-24.86 495.58,-22.37 562.71,-23.48"/>
<polygon fill="orange" stroke="orange" points="273.29,-51.94 265.38,-58.98 275.96,-58.41 273.29,-51.94"/>
<text text-anchor="start" x="343" y="-69.5" font-family="Helvetica,sans-Serif" font-size="10.00"> &lt; DenseMap&lt; KeyT, ValueT,</text>
<text text-anchor="start" x="343" y="-58.5" font-family="Helvetica,sans-Serif" font-size="10.00"> KeyInfoT, BucketT &gt;, KeyT,</text>
<text text-anchor="middle" x="409" y="-47.5" font-family="Helvetica,sans-Serif" font-size="10.00"> ValueT, KeyInfoT, BucketT &gt;</text>
</g>
<!-- Node14 -->
<g id="node8" class="node">
<title>Node14</title>
<g id="a_node8"><a xlink:href="classllvm_1_1DenseMap.html" target="_top" xlink:title="llvm::DenseMap\&lt; KeyT,\l ValueT, KeyInfoT, BucketT \&gt;">
<polygon fill="none" stroke="black" points="783,-60.5 783,-90.5 931,-90.5 931,-60.5 783,-60.5"/>
<text text-anchor="start" x="791" y="-78.5" font-family="Helvetica,sans-Serif" font-size="10.00">llvm::DenseMap&lt; KeyT,</text>
<text text-anchor="middle" x="857" y="-67.5" font-family="Helvetica,sans-Serif" font-size="10.00"> ValueT, KeyInfoT, BucketT &gt;</text>
</a>
</g>
</g>
<!-- Node14&#45;&gt;Node10 -->
<g id="edge8" class="edge">
<title>Node14&#45;&gt;Node10</title>
<path fill="none" stroke="orange" stroke-dasharray="5,2" d="M941.62,-76.83C976.7,-78.8 1017.7,-82.96 1054,-91.5 1064.86,-94.05 1076.2,-97.88 1086.75,-101.97"/>
<polygon fill="orange" stroke="orange" points="941.57,-73.32 931.41,-76.31 941.22,-80.31 941.57,-73.32"/>
<text text-anchor="start" x="949" y="-105.5" font-family="Helvetica,sans-Serif" font-size="10.00"> &lt; const llvm::SCEV</text>
<text text-anchor="middle" x="1001.5" y="-94.5" font-family="Helvetica,sans-Serif" font-size="10.00"> *, const llvm::SCEV *&gt;</text>
</g>
<!-- Node15&#45;&gt;Node14 -->
<g id="edge9" class="edge">
<title>Node15&#45;&gt;Node14</title>
<path fill="none" stroke="midnightblue" d="M721.09,-45.18C743.62,-50.24 767.73,-55.66 789.24,-60.49"/>
<polygon fill="midnightblue" stroke="midnightblue" points="721.72,-41.73 711.2,-42.95 720.19,-48.56 721.72,-41.73"/>
</g>
<!-- Node16 -->
<g id="node10" class="node">
<title>Node16</title>
<g id="a_node10"><a xlink:href="classllvm_1_1ScalarEvolution.html" target="_top" xlink:title="The main scalar evolution driver. ">
<polygon fill="none" stroke="black" points="1078,-64 1078,-83 1187,-83 1187,-64 1078,-64"/>
<text text-anchor="middle" x="1132.5" y="-71" font-family="Helvetica,sans-Serif" font-size="10.00">llvm::ScalarEvolution</text>
</a>
</g>
</g>
<!-- Node16&#45;&gt;Node7 -->
<g id="edge12" class="edge">
<title>Node16&#45;&gt;Node7</title>
<path fill="none" stroke="#9a32cd" stroke-dasharray="5,2" d="M1188.28,-85.15C1221.75,-92.26 1264.72,-101.4 1299.79,-108.85"/>
<polygon fill="#9a32cd" stroke="#9a32cd" points="1188.73,-81.66 1178.22,-83.01 1187.27,-88.51 1188.73,-81.66"/>
<text text-anchor="middle" x="1246.5" y="-106.5" font-family="Helvetica,sans-Serif" font-size="10.00"> SE</text>
</g>
</g>
</svg>
