<?xml version="1.0" encoding="UTF-8" standalone="no"?>
<!DOCTYPE svg PUBLIC "-//W3C//DTD SVG 1.1//EN"
 "http://www.w3.org/Graphics/SVG/1.1/DTD/svg11.dtd">
<!-- Generated by graphviz version 2.43.0 (0)
 -->
<!-- Title: llvm::object::COFFImportFile Pages: 1 -->
<svg width="151pt" height="209pt"
 viewBox="0.00 0.00 151.00 209.00" xmlns="http://www.w3.org/2000/svg" xmlns:xlink="http://www.w3.org/1999/xlink">
<g id="graph0" class="graph" transform="scale(1 1) rotate(0) translate(4 205)">
<title>llvm::object::COFFImportFile</title>
<!-- Node3 -->
<g id="node1" class="node">
<title>Node3</title>
<polygon fill="#bfbfbf" stroke="black" points="0,-0.5 0,-19.5 143,-19.5 143,-0.5 0,-0.5"/>
<text text-anchor="middle" x="71.5" y="-7.5" font-family="Helvetica,sans-Serif" font-size="10.00">llvm::object::COFFImportFile</text>
</g>
<!-- Node4 -->
<g id="node2" class="node">
<title>Node4</title>
<g id="a_node2"><a xlink:href="classllvm_1_1object_1_1SymbolicFile.html" target="_top" xlink:title="llvm::object::SymbolicFile">
<polygon fill="none" stroke="black" points="7,-57.5 7,-76.5 136,-76.5 136,-57.5 7,-57.5"/>
<text text-anchor="middle" x="71.5" y="-64.5" font-family="Helvetica,sans-Serif" font-size="10.00">llvm::object::SymbolicFile</text>
</a>
</g>
</g>
<!-- Node4&#45;&gt;Node3 -->
<g id="edge1" class="edge">
<title>Node4&#45;&gt;Node3</title>
<path fill="none" stroke="midnightblue" d="M71.5,-47.12C71.5,-37.82 71.5,-27.06 71.5,-19.71"/>
<polygon fill="midnightblue" stroke="midnightblue" points="68,-47.41 71.5,-57.41 75,-47.41 68,-47.41"/>
</g>
<!-- Node5 -->
<g id="node3" class="node">
<title>Node5</title>
<g id="a_node3"><a xlink:href="classllvm_1_1object_1_1Binary.html" target="_top" xlink:title="llvm::object::Binary">
<polygon fill="none" stroke="black" points="21,-114.5 21,-133.5 122,-133.5 122,-114.5 21,-114.5"/>
<text text-anchor="middle" x="71.5" y="-121.5" font-family="Helvetica,sans-Serif" font-size="10.00">llvm::object::Binary</text>
</a>
</g>
</g>
<!-- Node5&#45;&gt;Node4 -->
<g id="edge2" class="edge">
<title>Node5&#45;&gt;Node4</title>
<path fill="none" stroke="midnightblue" d="M71.5,-104.12C71.5,-94.82 71.5,-84.06 71.5,-76.71"/>
<polygon fill="midnightblue" stroke="midnightblue" points="68,-104.41 71.5,-114.41 75,-104.41 68,-104.41"/>
</g>
<!-- Node6 -->
<g id="node4" class="node">
<title>Node6</title>
<g id="a_node4"><a xlink:href="classllvm_1_1MemoryBufferRef.html" target="_top" xlink:title="llvm::MemoryBufferRef">
<polygon fill="none" stroke="black" points="12.5,-181.5 12.5,-200.5 130.5,-200.5 130.5,-181.5 12.5,-181.5"/>
<text text-anchor="middle" x="71.5" y="-188.5" font-family="Helvetica,sans-Serif" font-size="10.00">llvm::MemoryBufferRef</text>
</a>
</g>
</g>
<!-- Node6&#45;&gt;Node5 -->
<g id="edge3" class="edge">
<title>Node6&#45;&gt;Node5</title>
<path fill="none" stroke="#9a32cd" stroke-dasharray="5,2" d="M71.5,-171.04C71.5,-158.67 71.5,-143.12 71.5,-133.63"/>
<polygon fill="#9a32cd" stroke="#9a32cd" points="68,-171.23 71.5,-181.23 75,-171.23 68,-171.23"/>
<text text-anchor="middle" x="84" y="-155" font-family="Helvetica,sans-Serif" font-size="10.00"> Data</text>
</g>
</g>
</svg>
