<?xml version="1.0" encoding="UTF-8" standalone="no"?>
<!DOCTYPE svg PUBLIC "-//W3C//DTD SVG 1.1//EN"
 "http://www.w3.org/Graphics/SVG/1.1/DTD/svg11.dtd">
<!-- Generated by graphviz version 2.43.0 (0)
 -->
<!-- Title: llvm::LoopBase&lt; BlockT, LoopT &gt; Pages: 1 -->
<svg width="586pt" height="137pt"
 viewBox="0.00 0.00 586.00 137.00" xmlns="http://www.w3.org/2000/svg" xmlns:xlink="http://www.w3.org/1999/xlink">
<g id="graph0" class="graph" transform="scale(1 1) rotate(0) translate(4 133)">
<title>llvm::LoopBase&lt; BlockT, LoopT &gt;</title>
<!-- Node0 -->
<g id="node1" class="node">
<title>Node0</title>
<polygon fill="#bfbfbf" stroke="black" points="0,-49.5 0,-79.5 127,-79.5 127,-49.5 0,-49.5"/>
<text text-anchor="start" x="8" y="-67.5" font-family="Helvetica,sans-Serif" font-size="10.00">llvm::LoopBase&lt; BlockT,</text>
<text text-anchor="middle" x="63.5" y="-56.5" font-family="Helvetica,sans-Serif" font-size="10.00"> LoopT &gt;</text>
</g>
<!-- Node1 -->
<g id="node2" class="node">
<title>Node1</title>
<g id="a_node2"><a xlink:href="classllvm_1_1LoopBase.html" target="_top" xlink:title="llvm::LoopBase\&lt; MachineBasic\lBlock, MachineLoop \&gt;">
<polygon fill="none" stroke="black" points="287,-98.5 287,-128.5 442,-128.5 442,-98.5 287,-98.5"/>
<text text-anchor="start" x="295" y="-116.5" font-family="Helvetica,sans-Serif" font-size="10.00">llvm::LoopBase&lt; MachineBasic</text>
<text text-anchor="middle" x="364.5" y="-105.5" font-family="Helvetica,sans-Serif" font-size="10.00">Block, MachineLoop &gt;</text>
</a>
</g>
</g>
<!-- Node0&#45;&gt;Node1 -->
<g id="edge1" class="edge">
<title>Node0&#45;&gt;Node1</title>
<path fill="none" stroke="orange" stroke-dasharray="5,2" d="M137.35,-78.17C139.93,-78.63 142.49,-79.07 145,-79.5 192.02,-87.54 244.87,-95.78 286.81,-102.14"/>
<polygon fill="orange" stroke="orange" points="137.77,-74.69 127.31,-76.39 136.54,-81.59 137.77,-74.69"/>
<text text-anchor="start" x="155.5" y="-112.5" font-family="Helvetica,sans-Serif" font-size="10.00"> &lt; MachineBasicBlock,</text>
<text text-anchor="middle" x="206.5" y="-101.5" font-family="Helvetica,sans-Serif" font-size="10.00"> MachineLoop &gt;</text>
</g>
<!-- Node3 -->
<g id="node4" class="node">
<title>Node3</title>
<g id="a_node4"><a xlink:href="classllvm_1_1LoopBase.html" target="_top" xlink:title="llvm::LoopBase\&lt; VPBlockBase,\l VPLoop \&gt;">
<polygon fill="none" stroke="black" points="286,-49.5 286,-79.5 443,-79.5 443,-49.5 286,-49.5"/>
<text text-anchor="start" x="294" y="-67.5" font-family="Helvetica,sans-Serif" font-size="10.00">llvm::LoopBase&lt; VPBlockBase,</text>
<text text-anchor="middle" x="364.5" y="-56.5" font-family="Helvetica,sans-Serif" font-size="10.00"> VPLoop &gt;</text>
</a>
</g>
</g>
<!-- Node0&#45;&gt;Node3 -->
<g id="edge3" class="edge">
<title>Node0&#45;&gt;Node3</title>
<path fill="none" stroke="orange" stroke-dasharray="5,2" d="M137.44,-64.5C182.37,-64.5 239.94,-64.5 285.74,-64.5"/>
<polygon fill="orange" stroke="orange" points="137.18,-61 127.18,-64.5 137.18,-68 137.18,-61"/>
<text text-anchor="middle" x="206.5" y="-67.5" font-family="Helvetica,sans-Serif" font-size="10.00"> &lt; VPBlockBase, VPLoop &gt;</text>
</g>
<!-- Node5 -->
<g id="node6" class="node">
<title>Node5</title>
<g id="a_node6"><a xlink:href="classllvm_1_1LoopBase.html" target="_top" xlink:title="llvm::LoopBase\&lt; BasicBlock,\l Loop \&gt;">
<polygon fill="none" stroke="black" points="291.5,-0.5 291.5,-30.5 437.5,-30.5 437.5,-0.5 291.5,-0.5"/>
<text text-anchor="start" x="299.5" y="-18.5" font-family="Helvetica,sans-Serif" font-size="10.00">llvm::LoopBase&lt; BasicBlock,</text>
<text text-anchor="middle" x="364.5" y="-7.5" font-family="Helvetica,sans-Serif" font-size="10.00"> Loop &gt;</text>
</a>
</g>
</g>
<!-- Node0&#45;&gt;Node5 -->
<g id="edge5" class="edge">
<title>Node0&#45;&gt;Node5</title>
<path fill="none" stroke="orange" stroke-dasharray="5,2" d="M137.35,-50.83C139.93,-50.37 142.49,-49.93 145,-49.5 193.63,-41.19 248.49,-32.65 291.08,-26.22"/>
<polygon fill="orange" stroke="orange" points="136.54,-47.41 127.31,-52.61 137.77,-54.31 136.54,-47.41"/>
<text text-anchor="middle" x="206.5" y="-52.5" font-family="Helvetica,sans-Serif" font-size="10.00"> &lt; BasicBlock, Loop &gt;</text>
</g>
<!-- Node2 -->
<g id="node3" class="node">
<title>Node2</title>
<g id="a_node3"><a xlink:href="classllvm_1_1MachineLoop.html" target="_top" xlink:title="llvm::MachineLoop">
<polygon fill="none" stroke="black" points="480,-104 480,-123 578,-123 578,-104 480,-104"/>
<text text-anchor="middle" x="529" y="-111" font-family="Helvetica,sans-Serif" font-size="10.00">llvm::MachineLoop</text>
</a>
</g>
</g>
<!-- Node1&#45;&gt;Node2 -->
<g id="edge2" class="edge">
<title>Node1&#45;&gt;Node2</title>
<path fill="none" stroke="midnightblue" d="M452.54,-113.5C461.81,-113.5 470.98,-113.5 479.56,-113.5"/>
<polygon fill="midnightblue" stroke="midnightblue" points="452.47,-110 442.47,-113.5 452.47,-117 452.47,-110"/>
</g>
<!-- Node4 -->
<g id="node5" class="node">
<title>Node4</title>
<g id="a_node5"><a xlink:href="classllvm_1_1VPLoop.html" target="_top" xlink:title="Hold analysis information for every loop detected by VPLoopInfo. ">
<polygon fill="none" stroke="black" points="491.5,-55 491.5,-74 566.5,-74 566.5,-55 491.5,-55"/>
<text text-anchor="middle" x="529" y="-62" font-family="Helvetica,sans-Serif" font-size="10.00">llvm::VPLoop</text>
</a>
</g>
</g>
<!-- Node3&#45;&gt;Node4 -->
<g id="edge4" class="edge">
<title>Node3&#45;&gt;Node4</title>
<path fill="none" stroke="midnightblue" d="M453.64,-64.5C466.98,-64.5 480.07,-64.5 491.46,-64.5"/>
<polygon fill="midnightblue" stroke="midnightblue" points="453.42,-61 443.42,-64.5 453.42,-68 453.42,-61"/>
</g>
<!-- Node6 -->
<g id="node7" class="node">
<title>Node6</title>
<g id="a_node7"><a xlink:href="classllvm_1_1Loop.html" target="_top" xlink:title="Represents a single loop in the control flow graph. ">
<polygon fill="none" stroke="black" points="498,-6 498,-25 560,-25 560,-6 498,-6"/>
<text text-anchor="middle" x="529" y="-13" font-family="Helvetica,sans-Serif" font-size="10.00">llvm::Loop</text>
</a>
</g>
</g>
<!-- Node5&#45;&gt;Node6 -->
<g id="edge6" class="edge">
<title>Node5&#45;&gt;Node6</title>
<path fill="none" stroke="midnightblue" d="M448.19,-15.5C466,-15.5 483.72,-15.5 497.92,-15.5"/>
<polygon fill="midnightblue" stroke="midnightblue" points="447.72,-12 437.72,-15.5 447.72,-19 447.72,-12"/>
</g>
</g>
</svg>
