<?xml version="1.0" encoding="UTF-8" standalone="no"?>
<!DOCTYPE svg PUBLIC "-//W3C//DTD SVG 1.1//EN"
 "http://www.w3.org/Graphics/SVG/1.1/DTD/svg11.dtd">
<!-- Generated by graphviz version 2.43.0 (0)
 -->
<!-- Title: llvm::orc::remote::utils::GetRemoteInfo Pages: 1 -->
<svg width="558pt" height="79pt"
 viewBox="0.00 0.00 558.00 78.50" xmlns="http://www.w3.org/2000/svg" xmlns:xlink="http://www.w3.org/1999/xlink">
<g id="graph0" class="graph" transform="scale(1 1) rotate(0) translate(4 74.5)">
<title>llvm::orc::remote::utils::GetRemoteInfo</title>
<!-- Node0 -->
<g id="node1" class="node">
<title>Node0</title>
<polygon fill="#bfbfbf" stroke="black" points="443,-11.5 443,-41.5 550,-41.5 550,-11.5 443,-11.5"/>
<text text-anchor="start" x="451" y="-29.5" font-family="Helvetica,sans-Serif" font-size="10.00">llvm::orc::remote::</text>
<text text-anchor="middle" x="496.5" y="-18.5" font-family="Helvetica,sans-Serif" font-size="10.00">utils::GetRemoteInfo</text>
</g>
<!-- Node1 -->
<g id="node2" class="node">
<title>Node1</title>
<g id="a_node2"><a xlink:href="classllvm_1_1orc_1_1rpc_1_1Function.html" target="_top" xlink:title="llvm::orc::rpc::Function\l\&lt; GetRemoteInfo, std::tuple\l\&lt; std::string, uint32_t, uint32\l_t, uint32_t, uint32_t \&gt;()\&gt;">
<polygon fill="none" stroke="black" points="264,-0.5 264,-52.5 406,-52.5 406,-0.5 264,-0.5"/>
<text text-anchor="start" x="272" y="-40.5" font-family="Helvetica,sans-Serif" font-size="10.00">llvm::orc::rpc::Function</text>
<text text-anchor="start" x="272" y="-29.5" font-family="Helvetica,sans-Serif" font-size="10.00">&lt; GetRemoteInfo, std::tuple</text>
<text text-anchor="start" x="272" y="-18.5" font-family="Helvetica,sans-Serif" font-size="10.00">&lt; std::string, uint32_t, uint32</text>
<text text-anchor="middle" x="335" y="-7.5" font-family="Helvetica,sans-Serif" font-size="10.00">_t, uint32_t, uint32_t &gt;()&gt;</text>
</a>
</g>
</g>
<!-- Node1&#45;&gt;Node0 -->
<g id="edge1" class="edge">
<title>Node1&#45;&gt;Node0</title>
<path fill="none" stroke="midnightblue" d="M416.46,-26.5C425.37,-26.5 434.26,-26.5 442.7,-26.5"/>
<polygon fill="midnightblue" stroke="midnightblue" points="416.42,-23 406.42,-26.5 416.42,-30 416.42,-23"/>
</g>
<!-- Node2 -->
<g id="node3" class="node">
<title>Node2</title>
<g id="a_node3"><a xlink:href="classllvm_1_1orc_1_1rpc_1_1Function.html" target="_top" xlink:title="llvm::orc::rpc::Function\l\&lt; DerivedFunc, FnT \&gt;">
<polygon fill="none" stroke="black" points="0,-11.5 0,-41.5 117,-41.5 117,-11.5 0,-11.5"/>
<text text-anchor="start" x="8" y="-29.5" font-family="Helvetica,sans-Serif" font-size="10.00">llvm::orc::rpc::Function</text>
<text text-anchor="middle" x="58.5" y="-18.5" font-family="Helvetica,sans-Serif" font-size="10.00">&lt; DerivedFunc, FnT &gt;</text>
</a>
</g>
</g>
<!-- Node2&#45;&gt;Node1 -->
<g id="edge2" class="edge">
<title>Node2&#45;&gt;Node1</title>
<path fill="none" stroke="orange" stroke-dasharray="5,2" d="M127.08,-26.5C168.65,-26.5 221.83,-26.5 263.87,-26.5"/>
<polygon fill="orange" stroke="orange" points="127.04,-23 117.04,-26.5 127.04,-30 127.04,-23"/>
<text text-anchor="start" x="135" y="-62.5" font-family="Helvetica,sans-Serif" font-size="10.00"> &lt; GetRemoteInfo, std</text>
<text text-anchor="start" x="135" y="-51.5" font-family="Helvetica,sans-Serif" font-size="10.00">::tuple&lt; std::string,</text>
<text text-anchor="start" x="135" y="-40.5" font-family="Helvetica,sans-Serif" font-size="10.00"> uint32_t, uint32_t, uint32</text>
<text text-anchor="middle" x="190.5" y="-29.5" font-family="Helvetica,sans-Serif" font-size="10.00">_t, uint32_t &gt;()&gt;</text>
</g>
</g>
</svg>
