<?xml version="1.0" encoding="UTF-8" standalone="no"?>
<!DOCTYPE svg PUBLIC "-//W3C//DTD SVG 1.1//EN"
 "http://www.w3.org/Graphics/SVG/1.1/DTD/svg11.dtd">
<!-- Generated by graphviz version 2.43.0 (0)
 -->
<!-- Title: llvm::LPPassManager Pages: 1 -->
<svg width="242pt" height="140pt"
 viewBox="0.00 0.00 241.50 140.00" xmlns="http://www.w3.org/2000/svg" xmlns:xlink="http://www.w3.org/1999/xlink">
<g id="graph0" class="graph" transform="scale(1 1) rotate(0) translate(4 136)">
<title>llvm::LPPassManager</title>
<!-- Node0 -->
<g id="node1" class="node">
<title>Node0</title>
<polygon fill="#bfbfbf" stroke="black" points="57,-0.5 57,-19.5 170,-19.5 170,-0.5 57,-0.5"/>
<text text-anchor="middle" x="113.5" y="-7.5" font-family="Helvetica,sans-Serif" font-size="10.00">llvm::LPPassManager</text>
</g>
<!-- Node1 -->
<g id="node2" class="node">
<title>Node1</title>
<g id="a_node2"><a xlink:href="classllvm_1_1FunctionPass.html" target="_top" xlink:title="FunctionPass class &#45; This class is used to implement most global optimizations. ">
<polygon fill="none" stroke="black" points="0,-56.5 0,-75.5 101,-75.5 101,-56.5 0,-56.5"/>
<text text-anchor="middle" x="50.5" y="-63.5" font-family="Helvetica,sans-Serif" font-size="10.00">llvm::FunctionPass</text>
</a>
</g>
</g>
<!-- Node1&#45;&gt;Node0 -->
<g id="edge1" class="edge">
<title>Node1&#45;&gt;Node0</title>
<path fill="none" stroke="midnightblue" d="M68.54,-49.54C79.77,-39.91 93.82,-27.87 103.19,-19.83"/>
<polygon fill="midnightblue" stroke="midnightblue" points="65.94,-47.16 60.62,-56.32 70.49,-52.47 65.94,-47.16"/>
</g>
<!-- Node2 -->
<g id="node3" class="node">
<title>Node2</title>
<g id="a_node3"><a xlink:href="classllvm_1_1Pass.html" target="_top" xlink:title="Pass interface &#45; Implemented by all &#39;passes&#39;. ">
<polygon fill="none" stroke="black" points="19,-112.5 19,-131.5 82,-131.5 82,-112.5 19,-112.5"/>
<text text-anchor="middle" x="50.5" y="-119.5" font-family="Helvetica,sans-Serif" font-size="10.00">llvm::Pass</text>
</a>
</g>
</g>
<!-- Node2&#45;&gt;Node1 -->
<g id="edge2" class="edge">
<title>Node2&#45;&gt;Node1</title>
<path fill="none" stroke="midnightblue" d="M50.5,-101.8C50.5,-92.91 50.5,-82.78 50.5,-75.75"/>
<polygon fill="midnightblue" stroke="midnightblue" points="47,-102.08 50.5,-112.08 54,-102.08 47,-102.08"/>
</g>
<!-- Node3 -->
<g id="node4" class="node">
<title>Node3</title>
<g id="a_node4"><a xlink:href="classllvm_1_1PMDataManager.html" target="_top" xlink:title="PMDataManager provides the common place to manage the analysis data used by pass managers. ">
<polygon fill="none" stroke="black" points="119.5,-56.5 119.5,-75.5 233.5,-75.5 233.5,-56.5 119.5,-56.5"/>
<text text-anchor="middle" x="176.5" y="-63.5" font-family="Helvetica,sans-Serif" font-size="10.00">llvm::PMDataManager</text>
</a>
</g>
</g>
<!-- Node3&#45;&gt;Node0 -->
<g id="edge3" class="edge">
<title>Node3&#45;&gt;Node0</title>
<path fill="none" stroke="midnightblue" d="M158.46,-49.54C147.23,-39.91 133.18,-27.87 123.81,-19.83"/>
<polygon fill="midnightblue" stroke="midnightblue" points="156.51,-52.47 166.38,-56.32 161.06,-47.16 156.51,-52.47"/>
</g>
</g>
</svg>
