<?xml version="1.0" encoding="UTF-8" standalone="no"?>
<!DOCTYPE svg PUBLIC "-//W3C//DTD SVG 1.1//EN"
 "http://www.w3.org/Graphics/SVG/1.1/DTD/svg11.dtd">
<!-- Generated by graphviz version 2.43.0 (0)
 -->
<!-- Title: llvm::RegionInfo Pages: 1 -->
<svg width="214pt" height="174pt"
 viewBox="0.00 0.00 214.00 174.00" xmlns="http://www.w3.org/2000/svg" xmlns:xlink="http://www.w3.org/1999/xlink">
<g id="graph0" class="graph" transform="scale(1 1) rotate(0) translate(4 170)">
<title>llvm::RegionInfo</title>
<!-- Node0 -->
<g id="node1" class="node">
<title>Node0</title>
<polygon fill="#bfbfbf" stroke="black" points="29,-0.5 29,-19.5 117,-19.5 117,-0.5 29,-0.5"/>
<text text-anchor="middle" x="73" y="-7.5" font-family="Helvetica,sans-Serif" font-size="10.00">llvm::RegionInfo</text>
</g>
<!-- Node1 -->
<g id="node2" class="node">
<title>Node1</title>
<g id="a_node2"><a xlink:href="classllvm_1_1RegionInfoBase.html" target="_top" xlink:title="llvm::RegionInfoBase\l\&lt; RegionTraits\&lt; Function \&gt; \&gt;">
<polygon fill="none" stroke="black" points="0,-57.5 0,-87.5 146,-87.5 146,-57.5 0,-57.5"/>
<text text-anchor="start" x="8" y="-75.5" font-family="Helvetica,sans-Serif" font-size="10.00">llvm::RegionInfoBase</text>
<text text-anchor="middle" x="73" y="-64.5" font-family="Helvetica,sans-Serif" font-size="10.00">&lt; RegionTraits&lt; Function &gt; &gt;</text>
</a>
</g>
</g>
<!-- Node1&#45;&gt;Node0 -->
<g id="edge1" class="edge">
<title>Node1&#45;&gt;Node0</title>
<path fill="none" stroke="midnightblue" d="M73,-47.35C73,-37.51 73,-26.78 73,-19.54"/>
<polygon fill="midnightblue" stroke="midnightblue" points="69.5,-47.47 73,-57.47 76.5,-47.47 69.5,-47.47"/>
</g>
<!-- Node2 -->
<g id="node3" class="node">
<title>Node2</title>
<g id="a_node3"><a xlink:href="classllvm_1_1RegionInfoBase.html" target="_top" xlink:title="Analysis that detects all canonical Regions. ">
<polygon fill="none" stroke="black" points="18,-135.5 18,-165.5 128,-165.5 128,-135.5 18,-135.5"/>
<text text-anchor="start" x="26" y="-153.5" font-family="Helvetica,sans-Serif" font-size="10.00">llvm::RegionInfoBase</text>
<text text-anchor="middle" x="73" y="-142.5" font-family="Helvetica,sans-Serif" font-size="10.00">&lt; Tr &gt;</text>
</a>
</g>
</g>
<!-- Node2&#45;&gt;Node1 -->
<g id="edge2" class="edge">
<title>Node2&#45;&gt;Node1</title>
<path fill="none" stroke="orange" stroke-dasharray="5,2" d="M73,-125.09C73,-112.76 73,-98.22 73,-87.73"/>
<polygon fill="orange" stroke="orange" points="69.5,-125.2 73,-135.2 76.5,-125.21 69.5,-125.2"/>
<text text-anchor="middle" x="139.5" y="-109" font-family="Helvetica,sans-Serif" font-size="10.00"> &lt; RegionTraits&lt; Function &gt; &gt;</text>
</g>
</g>
</svg>
