<?xml version="1.0" encoding="UTF-8" standalone="no"?>
<!DOCTYPE svg PUBLIC "-//W3C//DTD SVG 1.1//EN"
 "http://www.w3.org/Graphics/SVG/1.1/DTD/svg11.dtd">
<!-- Generated by graphviz version 2.43.0 (0)
 -->
<!-- Title: llvm::TargetLibraryAnalysis Pages: 1 -->
<svg width="299pt" height="252pt"
 viewBox="0.00 0.00 298.50 252.00" xmlns="http://www.w3.org/2000/svg" xmlns:xlink="http://www.w3.org/1999/xlink">
<g id="graph0" class="graph" transform="scale(1 1) rotate(0) translate(4 248)">
<title>llvm::TargetLibraryAnalysis</title>
<!-- Node0 -->
<g id="node1" class="node">
<title>Node0</title>
<polygon fill="#bfbfbf" stroke="black" points="67,-0.5 67,-19.5 202,-19.5 202,-0.5 67,-0.5"/>
<text text-anchor="middle" x="134.5" y="-7.5" font-family="Helvetica,sans-Serif" font-size="10.00">llvm::TargetLibraryAnalysis</text>
</g>
<!-- Node1 -->
<g id="node2" class="node">
<title>Node1</title>
<g id="a_node2"><a xlink:href="structllvm_1_1AnalysisInfoMixin.html" target="_top" xlink:title="llvm::AnalysisInfoMixin\l\&lt; TargetLibraryAnalysis \&gt;">
<polygon fill="none" stroke="black" points="70,-57.5 70,-87.5 199,-87.5 199,-57.5 70,-57.5"/>
<text text-anchor="start" x="78" y="-75.5" font-family="Helvetica,sans-Serif" font-size="10.00">llvm::AnalysisInfoMixin</text>
<text text-anchor="middle" x="134.5" y="-64.5" font-family="Helvetica,sans-Serif" font-size="10.00">&lt; TargetLibraryAnalysis &gt;</text>
</a>
</g>
</g>
<!-- Node1&#45;&gt;Node0 -->
<g id="edge1" class="edge">
<title>Node1&#45;&gt;Node0</title>
<path fill="none" stroke="midnightblue" d="M134.5,-47.35C134.5,-37.51 134.5,-26.78 134.5,-19.54"/>
<polygon fill="midnightblue" stroke="midnightblue" points="131,-47.47 134.5,-57.47 138,-47.47 131,-47.47"/>
</g>
<!-- Node2 -->
<g id="node3" class="node">
<title>Node2</title>
<g id="a_node3"><a xlink:href="structllvm_1_1PassInfoMixin.html" target="_top" xlink:title="llvm::PassInfoMixin\l\&lt; TargetLibraryAnalysis \&gt;">
<polygon fill="none" stroke="black" points="0,-135.5 0,-165.5 129,-165.5 129,-135.5 0,-135.5"/>
<text text-anchor="start" x="8" y="-153.5" font-family="Helvetica,sans-Serif" font-size="10.00">llvm::PassInfoMixin</text>
<text text-anchor="middle" x="64.5" y="-142.5" font-family="Helvetica,sans-Serif" font-size="10.00">&lt; TargetLibraryAnalysis &gt;</text>
</a>
</g>
</g>
<!-- Node2&#45;&gt;Node1 -->
<g id="edge2" class="edge">
<title>Node2&#45;&gt;Node1</title>
<path fill="none" stroke="midnightblue" d="M84.61,-127.67C96.43,-114.83 111.04,-98.97 121.39,-87.73"/>
<polygon fill="midnightblue" stroke="midnightblue" points="81.87,-125.48 77.67,-135.2 87.02,-130.22 81.87,-125.48"/>
</g>
<!-- Node3 -->
<g id="node4" class="node">
<title>Node3</title>
<g id="a_node4"><a xlink:href="structllvm_1_1PassInfoMixin.html" target="_top" xlink:title="A CRTP mix&#45;in to automatically provide informational APIs needed for passes. ">
<polygon fill="none" stroke="black" points="83,-213.5 83,-243.5 186,-243.5 186,-213.5 83,-213.5"/>
<text text-anchor="start" x="91" y="-231.5" font-family="Helvetica,sans-Serif" font-size="10.00">llvm::PassInfoMixin</text>
<text text-anchor="middle" x="134.5" y="-220.5" font-family="Helvetica,sans-Serif" font-size="10.00">&lt; DerivedT &gt;</text>
</a>
</g>
</g>
<!-- Node3&#45;&gt;Node2 -->
<g id="edge3" class="edge">
<title>Node3&#45;&gt;Node2</title>
<path fill="none" stroke="orange" stroke-dasharray="5,2" d="M87.3,-208.1C82.07,-204.38 77.28,-200.04 73.5,-195 67.21,-186.6 65.07,-174.85 64.44,-165.68"/>
<polygon fill="orange" stroke="orange" points="85.47,-211.09 95.81,-213.43 89.19,-205.16 85.47,-211.09"/>
<text text-anchor="middle" x="131.5" y="-187" font-family="Helvetica,sans-Serif" font-size="10.00"> &lt; TargetLibraryAnalysis &gt;</text>
</g>
<!-- Node4 -->
<g id="node5" class="node">
<title>Node4</title>
<g id="a_node5"><a xlink:href="structllvm_1_1AnalysisInfoMixin.html" target="_top" xlink:title="A CRTP mix&#45;in that provides informational APIs needed for analysis passes. ">
<polygon fill="none" stroke="black" points="147.5,-135.5 147.5,-165.5 265.5,-165.5 265.5,-135.5 147.5,-135.5"/>
<text text-anchor="start" x="155.5" y="-153.5" font-family="Helvetica,sans-Serif" font-size="10.00">llvm::AnalysisInfoMixin</text>
<text text-anchor="middle" x="206.5" y="-142.5" font-family="Helvetica,sans-Serif" font-size="10.00">&lt; DerivedT &gt;</text>
</a>
</g>
</g>
<!-- Node3&#45;&gt;Node4 -->
<g id="edge5" class="edge">
<title>Node3&#45;&gt;Node4</title>
<path fill="none" stroke="midnightblue" d="M174.9,-207.99C180.27,-204.21 185.35,-199.88 189.5,-195 196.64,-186.6 201,-174.85 203.51,-165.68"/>
<polygon fill="midnightblue" stroke="midnightblue" points="172.84,-205.15 166.3,-213.49 176.61,-211.05 172.84,-205.15"/>
</g>
<!-- Node4&#45;&gt;Node1 -->
<g id="edge4" class="edge">
<title>Node4&#45;&gt;Node1</title>
<path fill="none" stroke="orange" stroke-dasharray="5,2" d="M185.82,-127.67C173.66,-114.83 158.63,-98.97 147.98,-87.73"/>
<polygon fill="orange" stroke="orange" points="183.54,-130.35 192.96,-135.2 188.62,-125.54 183.54,-130.35"/>
<text text-anchor="middle" x="232.5" y="-109" font-family="Helvetica,sans-Serif" font-size="10.00"> &lt; TargetLibraryAnalysis &gt;</text>
</g>
</g>
</svg>
