<?xml version="1.0" encoding="UTF-8" standalone="no"?>
<!DOCTYPE svg PUBLIC "-//W3C//DTD SVG 1.1//EN"
 "http://www.w3.org/Graphics/SVG/1.1/DTD/svg11.dtd">
<!-- Generated by graphviz version 2.43.0 (0)
 -->
<!-- Title: llvm::SCEVCommutativeExpr Pages: 1 -->
<svg width="515pt" height="308pt"
 viewBox="0.00 0.00 515.00 308.00" xmlns="http://www.w3.org/2000/svg" xmlns:xlink="http://www.w3.org/1999/xlink">
<g id="graph0" class="graph" transform="scale(1 1) rotate(0) translate(4 304)">
<title>llvm::SCEVCommutativeExpr</title>
<!-- Node0 -->
<g id="node1" class="node">
<title>Node0</title>
<polygon fill="#bfbfbf" stroke="black" points="179.5,-112.5 179.5,-131.5 326.5,-131.5 326.5,-112.5 179.5,-112.5"/>
<text text-anchor="middle" x="253" y="-119.5" font-family="Helvetica,sans-Serif" font-size="10.00">llvm::SCEVCommutativeExpr</text>
</g>
<!-- Node4 -->
<g id="node5" class="node">
<title>Node4</title>
<g id="a_node5"><a xlink:href="classllvm_1_1SCEVAddExpr.html" target="_top" xlink:title="This node represents an addition of some number of SCEVs. ">
<polygon fill="none" stroke="black" points="67,-56.5 67,-75.5 173,-75.5 173,-56.5 67,-56.5"/>
<text text-anchor="middle" x="120" y="-63.5" font-family="Helvetica,sans-Serif" font-size="10.00">llvm::SCEVAddExpr</text>
</a>
</g>
</g>
<!-- Node0&#45;&gt;Node4 -->
<g id="edge4" class="edge">
<title>Node0&#45;&gt;Node4</title>
<path fill="none" stroke="midnightblue" d="M222.55,-108.64C197.59,-98.5 162.92,-84.43 140.98,-75.52"/>
<polygon fill="midnightblue" stroke="midnightblue" points="221.34,-111.92 231.93,-112.44 223.98,-105.44 221.34,-111.92"/>
</g>
<!-- Node5 -->
<g id="node6" class="node">
<title>Node5</title>
<g id="a_node6"><a xlink:href="classllvm_1_1SCEVMinMaxExpr.html" target="_top" xlink:title="This node is the base class min/max selections. ">
<polygon fill="none" stroke="black" points="191.5,-56.5 191.5,-75.5 314.5,-75.5 314.5,-56.5 191.5,-56.5"/>
<text text-anchor="middle" x="253" y="-63.5" font-family="Helvetica,sans-Serif" font-size="10.00">llvm::SCEVMinMaxExpr</text>
</a>
</g>
</g>
<!-- Node0&#45;&gt;Node5 -->
<g id="edge5" class="edge">
<title>Node0&#45;&gt;Node5</title>
<path fill="none" stroke="midnightblue" d="M253,-101.8C253,-92.91 253,-82.78 253,-75.75"/>
<polygon fill="midnightblue" stroke="midnightblue" points="249.5,-102.08 253,-112.08 256.5,-102.08 249.5,-102.08"/>
</g>
<!-- Node10 -->
<g id="node11" class="node">
<title>Node10</title>
<g id="a_node11"><a xlink:href="classllvm_1_1SCEVMulExpr.html" target="_top" xlink:title="This node represents multiplication of some number of SCEVs. ">
<polygon fill="none" stroke="black" points="333,-56.5 333,-75.5 437,-75.5 437,-56.5 333,-56.5"/>
<text text-anchor="middle" x="385" y="-63.5" font-family="Helvetica,sans-Serif" font-size="10.00">llvm::SCEVMulExpr</text>
</a>
</g>
</g>
<!-- Node0&#45;&gt;Node10 -->
<g id="edge10" class="edge">
<title>Node0&#45;&gt;Node10</title>
<path fill="none" stroke="midnightblue" d="M283.22,-108.64C307.99,-98.5 342.4,-84.43 364.18,-75.52"/>
<polygon fill="midnightblue" stroke="midnightblue" points="281.85,-105.42 273.92,-112.44 284.5,-111.9 281.85,-105.42"/>
</g>
<!-- Node1 -->
<g id="node2" class="node">
<title>Node1</title>
<g id="a_node2"><a xlink:href="classllvm_1_1SCEVNAryExpr.html" target="_top" xlink:title="This node is a base class providing common functionality for n&#39;ary operators. ">
<polygon fill="none" stroke="black" points="197.5,-168.5 197.5,-187.5 308.5,-187.5 308.5,-168.5 197.5,-168.5"/>
<text text-anchor="middle" x="253" y="-175.5" font-family="Helvetica,sans-Serif" font-size="10.00">llvm::SCEVNAryExpr</text>
</a>
</g>
</g>
<!-- Node1&#45;&gt;Node0 -->
<g id="edge1" class="edge">
<title>Node1&#45;&gt;Node0</title>
<path fill="none" stroke="midnightblue" d="M253,-157.8C253,-148.91 253,-138.78 253,-131.75"/>
<polygon fill="midnightblue" stroke="midnightblue" points="249.5,-158.08 253,-168.08 256.5,-158.08 249.5,-158.08"/>
</g>
<!-- Node2 -->
<g id="node3" class="node">
<title>Node2</title>
<g id="a_node3"><a xlink:href="classllvm_1_1SCEV.html" target="_top" xlink:title="This class represents an analyzed expression in the program. ">
<polygon fill="none" stroke="black" points="219,-224.5 219,-243.5 287,-243.5 287,-224.5 219,-224.5"/>
<text text-anchor="middle" x="253" y="-231.5" font-family="Helvetica,sans-Serif" font-size="10.00">llvm::SCEV</text>
</a>
</g>
</g>
<!-- Node2&#45;&gt;Node1 -->
<g id="edge2" class="edge">
<title>Node2&#45;&gt;Node1</title>
<path fill="none" stroke="midnightblue" d="M253,-213.8C253,-204.91 253,-194.78 253,-187.75"/>
<polygon fill="midnightblue" stroke="midnightblue" points="249.5,-214.08 253,-224.08 256.5,-214.08 249.5,-214.08"/>
</g>
<!-- Node3 -->
<g id="node4" class="node">
<title>Node3</title>
<g id="a_node4"><a xlink:href="classllvm_1_1FoldingSetBase_1_1Node.html" target="_top" xlink:title="Node &#45; This class is used to maintain the singly linked bucket list in a folding set. ">
<polygon fill="none" stroke="black" points="210,-280.5 210,-299.5 296,-299.5 296,-280.5 210,-280.5"/>
<text text-anchor="middle" x="253" y="-287.5" font-family="Helvetica,sans-Serif" font-size="10.00">FoldingSetNode</text>
</a>
</g>
</g>
<!-- Node3&#45;&gt;Node2 -->
<g id="edge3" class="edge">
<title>Node3&#45;&gt;Node2</title>
<path fill="none" stroke="midnightblue" d="M253,-269.8C253,-260.91 253,-250.78 253,-243.75"/>
<polygon fill="midnightblue" stroke="midnightblue" points="249.5,-270.08 253,-280.08 256.5,-270.08 249.5,-270.08"/>
</g>
<!-- Node6 -->
<g id="node7" class="node">
<title>Node6</title>
<g id="a_node7"><a xlink:href="classllvm_1_1SCEVSMaxExpr.html" target="_top" xlink:title="This class represents a signed maximum selection. ">
<polygon fill="none" stroke="black" points="0,-0.5 0,-19.5 114,-19.5 114,-0.5 0,-0.5"/>
<text text-anchor="middle" x="57" y="-7.5" font-family="Helvetica,sans-Serif" font-size="10.00">llvm::SCEVSMaxExpr</text>
</a>
</g>
</g>
<!-- Node5&#45;&gt;Node6 -->
<g id="edge6" class="edge">
<title>Node5&#45;&gt;Node6</title>
<path fill="none" stroke="midnightblue" d="M211.98,-53.7C174.99,-43.51 121.4,-28.74 87.91,-19.52"/>
<polygon fill="midnightblue" stroke="midnightblue" points="211.37,-57.16 221.94,-56.44 213.23,-50.41 211.37,-57.16"/>
</g>
<!-- Node7 -->
<g id="node8" class="node">
<title>Node7</title>
<g id="a_node8"><a xlink:href="classllvm_1_1SCEVSMinExpr.html" target="_top" xlink:title="This class represents a signed minimum selection. ">
<polygon fill="none" stroke="black" points="132.5,-0.5 132.5,-19.5 243.5,-19.5 243.5,-0.5 132.5,-0.5"/>
<text text-anchor="middle" x="188" y="-7.5" font-family="Helvetica,sans-Serif" font-size="10.00">llvm::SCEVSMinExpr</text>
</a>
</g>
</g>
<!-- Node5&#45;&gt;Node7 -->
<g id="edge7" class="edge">
<title>Node5&#45;&gt;Node7</title>
<path fill="none" stroke="midnightblue" d="M234.73,-49.82C223.08,-40.15 208.4,-27.95 198.63,-19.83"/>
<polygon fill="midnightblue" stroke="midnightblue" points="232.63,-52.63 242.56,-56.32 237.1,-47.24 232.63,-52.63"/>
</g>
<!-- Node8 -->
<g id="node9" class="node">
<title>Node8</title>
<g id="a_node9"><a xlink:href="classllvm_1_1SCEVUMaxExpr.html" target="_top" xlink:title="This class represents an unsigned maximum selection. ">
<polygon fill="none" stroke="black" points="261.5,-0.5 261.5,-19.5 376.5,-19.5 376.5,-0.5 261.5,-0.5"/>
<text text-anchor="middle" x="319" y="-7.5" font-family="Helvetica,sans-Serif" font-size="10.00">llvm::SCEVUMaxExpr</text>
</a>
</g>
</g>
<!-- Node5&#45;&gt;Node8 -->
<g id="edge8" class="edge">
<title>Node5&#45;&gt;Node8</title>
<path fill="none" stroke="midnightblue" d="M271.55,-49.82C283.38,-40.15 298.29,-27.95 308.2,-19.83"/>
<polygon fill="midnightblue" stroke="midnightblue" points="269.13,-47.28 263.6,-56.32 273.56,-52.7 269.13,-47.28"/>
</g>
<!-- Node9 -->
<g id="node10" class="node">
<title>Node9</title>
<g id="a_node10"><a xlink:href="classllvm_1_1SCEVUMinExpr.html" target="_top" xlink:title="This class represents an unsigned minimum selection. ">
<polygon fill="none" stroke="black" points="395,-0.5 395,-19.5 507,-19.5 507,-0.5 395,-0.5"/>
<text text-anchor="middle" x="451" y="-7.5" font-family="Helvetica,sans-Serif" font-size="10.00">llvm::SCEVUMinExpr</text>
</a>
</g>
</g>
<!-- Node5&#45;&gt;Node9 -->
<g id="edge9" class="edge">
<title>Node5&#45;&gt;Node9</title>
<path fill="none" stroke="midnightblue" d="M294.44,-53.7C331.81,-43.51 385.94,-28.74 419.77,-19.52"/>
<polygon fill="midnightblue" stroke="midnightblue" points="293.1,-50.44 284.37,-56.44 294.94,-57.19 293.1,-50.44"/>
</g>
</g>
</svg>
