<?xml version="1.0" encoding="UTF-8" standalone="no"?>
<!DOCTYPE svg PUBLIC "-//W3C//DTD SVG 1.1//EN"
 "http://www.w3.org/Graphics/SVG/1.1/DTD/svg11.dtd">
<!-- Generated by graphviz version 2.43.0 (0)
 -->
<!-- Title: llvm::VarDefInit Pages: 1 -->
<svg width="1335pt" height="197pt"
 viewBox="0.00 0.00 1335.00 196.50" xmlns="http://www.w3.org/2000/svg" xmlns:xlink="http://www.w3.org/1999/xlink">
<g id="graph0" class="graph" transform="scale(1 1) rotate(0) translate(4 192.5)">
<title>llvm::VarDefInit</title>
<!-- Node9 -->
<g id="node1" class="node">
<title>Node9</title>
<polygon fill="#bfbfbf" stroke="black" points="1242,-130 1242,-149 1327,-149 1327,-130 1242,-130"/>
<text text-anchor="middle" x="1284.5" y="-137" font-family="Helvetica,sans-Serif" font-size="10.00">llvm::VarDefInit</text>
</g>
<!-- Node10 -->
<g id="node2" class="node">
<title>Node10</title>
<g id="a_node2"><a xlink:href="classllvm_1_1TypedInit.html" target="_top" xlink:title="This is the common super&#45;class of types that have a specific, explicit, type. ">
<polygon fill="none" stroke="black" points="1111.5,-168 1111.5,-187 1192.5,-187 1192.5,-168 1111.5,-168"/>
<text text-anchor="middle" x="1152" y="-175" font-family="Helvetica,sans-Serif" font-size="10.00">llvm::TypedInit</text>
</a>
</g>
</g>
<!-- Node10&#45;&gt;Node9 -->
<g id="edge1" class="edge">
<title>Node10&#45;&gt;Node9</title>
<path fill="none" stroke="midnightblue" d="M1195.55,-165.11C1213.42,-159.91 1233.89,-153.95 1250.58,-149.09"/>
<polygon fill="midnightblue" stroke="midnightblue" points="1194.55,-161.75 1185.93,-167.91 1196.51,-168.48 1194.55,-161.75"/>
</g>
<!-- Node11 -->
<g id="node3" class="node">
<title>Node11</title>
<g id="a_node3"><a xlink:href="classllvm_1_1Init.html" target="_top" xlink:title="llvm::Init">
<polygon fill="none" stroke="black" points="886,-168 886,-187 940,-187 940,-168 886,-168"/>
<text text-anchor="middle" x="913" y="-175" font-family="Helvetica,sans-Serif" font-size="10.00">llvm::Init</text>
</a>
</g>
</g>
<!-- Node11&#45;&gt;Node10 -->
<g id="edge2" class="edge">
<title>Node11&#45;&gt;Node10</title>
<path fill="none" stroke="midnightblue" d="M950.4,-177.5C993.86,-177.5 1066.31,-177.5 1111.21,-177.5"/>
<polygon fill="midnightblue" stroke="midnightblue" points="950.27,-174 940.27,-177.5 950.27,-181 950.27,-174"/>
</g>
<!-- Node12 -->
<g id="node4" class="node">
<title>Node12</title>
<polygon fill="none" stroke="#bfbfbf" points="474.5,-168 474.5,-187 520.5,-187 520.5,-168 474.5,-168"/>
<text text-anchor="middle" x="497.5" y="-175" font-family="Helvetica,sans-Serif" font-size="10.00">uint8_t</text>
</g>
<!-- Node12&#45;&gt;Node11 -->
<g id="edge3" class="edge">
<title>Node12&#45;&gt;Node11</title>
<path fill="none" stroke="#9a32cd" stroke-dasharray="5,2" d="M531.11,-177.5C610.62,-177.5 813.27,-177.5 885.74,-177.5"/>
<polygon fill="#9a32cd" stroke="#9a32cd" points="530.73,-174 520.73,-177.5 530.73,-181 530.73,-174"/>
<text text-anchor="middle" x="735.5" y="-180.5" font-family="Helvetica,sans-Serif" font-size="10.00"> Opc</text>
</g>
<!-- Node13 -->
<g id="node5" class="node">
<title>Node13</title>
<g id="a_node5"><a xlink:href="classllvm_1_1FoldingSetBase_1_1Node.html" target="_top" xlink:title="Node &#45; This class is used to maintain the singly linked bucket list in a folding set. ">
<polygon fill="none" stroke="black" points="1109,-130 1109,-149 1195,-149 1195,-130 1109,-130"/>
<text text-anchor="middle" x="1152" y="-137" font-family="Helvetica,sans-Serif" font-size="10.00">FoldingSetNode</text>
</a>
</g>
</g>
<!-- Node13&#45;&gt;Node9 -->
<g id="edge4" class="edge">
<title>Node13&#45;&gt;Node9</title>
<path fill="none" stroke="midnightblue" d="M1205.02,-139.5C1217.16,-139.5 1229.93,-139.5 1241.57,-139.5"/>
<polygon fill="midnightblue" stroke="midnightblue" points="1205.01,-136 1195.01,-139.5 1205.01,-143 1205.01,-136"/>
</g>
<!-- Node14 -->
<g id="node6" class="node">
<title>Node14</title>
<g id="a_node6"><a xlink:href="classllvm_1_1TrailingObjects.html" target="_top" xlink:title="llvm::TrailingObjects\l\&lt; VarDefInit, Init *\&gt;">
<polygon fill="none" stroke="black" points="1099,-80.5 1099,-110.5 1205,-110.5 1205,-80.5 1099,-80.5"/>
<text text-anchor="start" x="1107" y="-98.5" font-family="Helvetica,sans-Serif" font-size="10.00">llvm::TrailingObjects</text>
<text text-anchor="middle" x="1152" y="-87.5" font-family="Helvetica,sans-Serif" font-size="10.00">&lt; VarDefInit, Init *&gt;</text>
</a>
</g>
</g>
<!-- Node14&#45;&gt;Node9 -->
<g id="edge5" class="edge">
<title>Node14&#45;&gt;Node9</title>
<path fill="none" stroke="midnightblue" d="M1207.1,-113.74C1223.58,-119.3 1241.03,-125.18 1255.09,-129.92"/>
<polygon fill="midnightblue" stroke="midnightblue" points="1208.14,-110.4 1197.55,-110.52 1205.9,-117.03 1208.14,-110.4"/>
</g>
<!-- Node15 -->
<g id="node7" class="node">
<title>Node15</title>
<g id="a_node7"><a xlink:href="classllvm_1_1trailing__objects__internal_1_1TrailingObjectsImpl.html" target="_top" xlink:title="llvm::trailing_objects\l_internal::TrailingObjectsImpl\l\&lt; trailing_objects_internal\l::AlignmentCalcHelper\&lt; TrailingTys...\l \&gt;::Alignment, VarDefInit, TrailingObjects\l\&lt; VarDefInit, TrailingTys... \&gt;, VarDefInit,\l TrailingTys... \&gt;">
<polygon fill="none" stroke="black" points="637,-65 637,-150 834,-150 834,-65 637,-65"/>
<text text-anchor="start" x="645" y="-138" font-family="Helvetica,sans-Serif" font-size="10.00">llvm::trailing_objects</text>
<text text-anchor="start" x="645" y="-127" font-family="Helvetica,sans-Serif" font-size="10.00">_internal::TrailingObjectsImpl</text>
<text text-anchor="start" x="645" y="-116" font-family="Helvetica,sans-Serif" font-size="10.00">&lt; trailing_objects_internal</text>
<text text-anchor="start" x="645" y="-105" font-family="Helvetica,sans-Serif" font-size="10.00">::AlignmentCalcHelper&lt; TrailingTys...</text>
<text text-anchor="start" x="645" y="-94" font-family="Helvetica,sans-Serif" font-size="10.00"> &gt;::Alignment, VarDefInit, TrailingObjects</text>
<text text-anchor="start" x="645" y="-83" font-family="Helvetica,sans-Serif" font-size="10.00">&lt; VarDefInit, TrailingTys... &gt;, VarDefInit,</text>
<text text-anchor="middle" x="735.5" y="-72" font-family="Helvetica,sans-Serif" font-size="10.00"> TrailingTys... &gt;</text>
</a>
</g>
</g>
<!-- Node15&#45;&gt;Node14 -->
<g id="edge6" class="edge">
<title>Node15&#45;&gt;Node14</title>
<path fill="none" stroke="#8b1a1a" d="M844.31,-104.38C926.19,-102.01 1035.23,-98.85 1098.81,-97.01"/>
<polygon fill="#8b1a1a" stroke="#8b1a1a" points="844.1,-100.88 834.21,-104.67 844.3,-107.88 844.1,-100.88"/>
</g>
<!-- Node16 -->
<g id="node8" class="node">
<title>Node16</title>
<g id="a_node8"><a xlink:href="classllvm_1_1trailing__objects__internal_1_1TrailingObjectsImpl.html" target="_top" xlink:title="llvm::trailing_objects\l_internal::TrailingObjectsImpl\l\&lt; Align, BaseTy, TopTrailingObj,\l PrevTy, MoreTys \&gt;">
<polygon fill="none" stroke="black" points="0,-45.5 0,-97.5 159,-97.5 159,-45.5 0,-45.5"/>
<text text-anchor="start" x="8" y="-85.5" font-family="Helvetica,sans-Serif" font-size="10.00">llvm::trailing_objects</text>
<text text-anchor="start" x="8" y="-74.5" font-family="Helvetica,sans-Serif" font-size="10.00">_internal::TrailingObjectsImpl</text>
<text text-anchor="start" x="8" y="-63.5" font-family="Helvetica,sans-Serif" font-size="10.00">&lt; Align, BaseTy, TopTrailingObj,</text>
<text text-anchor="middle" x="79.5" y="-52.5" font-family="Helvetica,sans-Serif" font-size="10.00"> PrevTy, MoreTys &gt;</text>
</a>
</g>
</g>
<!-- Node16&#45;&gt;Node15 -->
<g id="edge7" class="edge">
<title>Node16&#45;&gt;Node15</title>
<path fill="none" stroke="orange" stroke-dasharray="5,2" d="M169.25,-87.62C171.86,-87.94 174.45,-88.23 177,-88.5 337.49,-105.29 525.24,-108.27 636.78,-108.31"/>
<polygon fill="orange" stroke="orange" points="169.48,-84.12 159.11,-86.29 168.56,-91.06 169.48,-84.12"/>
<text text-anchor="start" x="199.5" y="-160.5" font-family="Helvetica,sans-Serif" font-size="10.00"> &lt; trailing_objects</text>
<text text-anchor="start" x="199.5" y="-149.5" font-family="Helvetica,sans-Serif" font-size="10.00">_internal::AlignmentCalcHelper</text>
<text text-anchor="start" x="199.5" y="-138.5" font-family="Helvetica,sans-Serif" font-size="10.00">&lt; TrailingTys... &gt;::Alignment,</text>
<text text-anchor="start" x="199.5" y="-127.5" font-family="Helvetica,sans-Serif" font-size="10.00"> VarDefInit, TrailingObjects</text>
<text text-anchor="start" x="199.5" y="-116.5" font-family="Helvetica,sans-Serif" font-size="10.00">&lt; VarDefInit, TrailingTys... &gt;</text>
<text text-anchor="middle" x="267.5" y="-105.5" font-family="Helvetica,sans-Serif" font-size="10.00">, VarDefInit, TrailingTys... &gt;</text>
</g>
<!-- Node18 -->
<g id="node10" class="node">
<title>Node18</title>
<g id="a_node10"><a xlink:href="classllvm_1_1trailing__objects__internal_1_1TrailingObjectsImpl.html" target="_top" xlink:title="llvm::trailing_objects\l_internal::TrailingObjectsImpl\l\&lt; trailing_objects_internal\l::AlignmentCalcHelper\&lt; TrailingTys...\l \&gt;::Alignment, BaseTy, TrailingObjects\l\&lt; BaseTy, TrailingTys... \&gt;, BaseTy, TrailingTys... \&gt;">
<polygon fill="none" stroke="black" points="376,-0.5 376,-74.5 619,-74.5 619,-0.5 376,-0.5"/>
<text text-anchor="start" x="384" y="-62.5" font-family="Helvetica,sans-Serif" font-size="10.00">llvm::trailing_objects</text>
<text text-anchor="start" x="384" y="-51.5" font-family="Helvetica,sans-Serif" font-size="10.00">_internal::TrailingObjectsImpl</text>
<text text-anchor="start" x="384" y="-40.5" font-family="Helvetica,sans-Serif" font-size="10.00">&lt; trailing_objects_internal</text>
<text text-anchor="start" x="384" y="-29.5" font-family="Helvetica,sans-Serif" font-size="10.00">::AlignmentCalcHelper&lt; TrailingTys...</text>
<text text-anchor="start" x="384" y="-18.5" font-family="Helvetica,sans-Serif" font-size="10.00"> &gt;::Alignment, BaseTy, TrailingObjects</text>
<text text-anchor="middle" x="497.5" y="-7.5" font-family="Helvetica,sans-Serif" font-size="10.00">&lt; BaseTy, TrailingTys... &gt;, BaseTy, TrailingTys... &gt;</text>
</a>
</g>
</g>
<!-- Node16&#45;&gt;Node18 -->
<g id="edge10" class="edge">
<title>Node16&#45;&gt;Node18</title>
<path fill="none" stroke="orange" stroke-dasharray="5,2" d="M145.99,-41.96C156.19,-38.46 166.74,-35.45 177,-33.5 241.86,-21.19 315.45,-21.19 375.65,-24.71"/>
<polygon fill="orange" stroke="orange" points="144.56,-38.75 136.34,-45.44 146.93,-45.34 144.56,-38.75"/>
<text text-anchor="start" x="177" y="-80.5" font-family="Helvetica,sans-Serif" font-size="10.00"> &lt; trailing_objects</text>
<text text-anchor="start" x="177" y="-69.5" font-family="Helvetica,sans-Serif" font-size="10.00">_internal::AlignmentCalcHelper</text>
<text text-anchor="start" x="177" y="-58.5" font-family="Helvetica,sans-Serif" font-size="10.00">&lt; TrailingTys... &gt;::Alignment,</text>
<text text-anchor="start" x="177" y="-47.5" font-family="Helvetica,sans-Serif" font-size="10.00"> BaseTy, TrailingObjects&lt; BaseTy,</text>
<text text-anchor="middle" x="267.5" y="-36.5" font-family="Helvetica,sans-Serif" font-size="10.00"> TrailingTys... &gt;, BaseTy, TrailingTys... &gt;</text>
</g>
<!-- Node17 -->
<g id="node9" class="node">
<title>Node17</title>
<g id="a_node9"><a xlink:href="classllvm_1_1TrailingObjects.html" target="_top" xlink:title="See the file comment for details on the usage of the TrailingObjects type. ">
<polygon fill="none" stroke="black" points="852,-35.5 852,-65.5 974,-65.5 974,-35.5 852,-35.5"/>
<text text-anchor="start" x="860" y="-53.5" font-family="Helvetica,sans-Serif" font-size="10.00">llvm::TrailingObjects</text>
<text text-anchor="middle" x="913" y="-42.5" font-family="Helvetica,sans-Serif" font-size="10.00">&lt; BaseTy, TrailingTys &gt;</text>
</a>
</g>
</g>
<!-- Node17&#45;&gt;Node14 -->
<g id="edge8" class="edge">
<title>Node17&#45;&gt;Node14</title>
<path fill="none" stroke="orange" stroke-dasharray="5,2" d="M984.2,-58.95C1014.18,-63.09 1049.47,-68.67 1081,-75.5 1087.67,-76.95 1094.64,-78.67 1101.49,-80.49"/>
<polygon fill="orange" stroke="orange" points="984.62,-55.47 974.24,-57.6 983.68,-62.41 984.62,-55.47"/>
<text text-anchor="middle" x="1036.5" y="-78.5" font-family="Helvetica,sans-Serif" font-size="10.00"> &lt; VarDefInit, Init *&gt;</text>
</g>
<!-- Node18&#45;&gt;Node17 -->
<g id="edge9" class="edge">
<title>Node18&#45;&gt;Node17</title>
<path fill="none" stroke="#8b1a1a" d="M629.62,-41.62C704.12,-43.96 793.82,-46.78 851.83,-48.61"/>
<polygon fill="#8b1a1a" stroke="#8b1a1a" points="629.32,-38.11 619.21,-41.3 629.1,-45.11 629.32,-38.11"/>
</g>
</g>
</svg>
