<?xml version="1.0" encoding="UTF-8" standalone="no"?>
<!DOCTYPE svg PUBLIC "-//W3C//DTD SVG 1.1//EN"
 "http://www.w3.org/Graphics/SVG/1.1/DTD/svg11.dtd">
<!-- Generated by graphviz version 2.43.0 (0)
 -->
<!-- Title: llvm::DILocation Pages: 1 -->
<svg width="156pt" height="296pt"
 viewBox="0.00 0.00 156.00 296.00" xmlns="http://www.w3.org/2000/svg" xmlns:xlink="http://www.w3.org/1999/xlink">
<g id="graph0" class="graph" transform="scale(1 1) rotate(0) translate(4 292)">
<title>llvm::DILocation</title>
<!-- Node3 -->
<g id="node1" class="node">
<title>Node3</title>
<polygon fill="#bfbfbf" stroke="black" points="0,-0.5 0,-19.5 88,-19.5 88,-0.5 0,-0.5"/>
<text text-anchor="middle" x="44" y="-7.5" font-family="Helvetica,sans-Serif" font-size="10.00">llvm::DILocation</text>
</g>
<!-- Node4 -->
<g id="node2" class="node">
<title>Node4</title>
<g id="a_node2"><a xlink:href="classllvm_1_1MDNode.html" target="_top" xlink:title="Metadata node. ">
<polygon fill="none" stroke="black" points="51,-57.5 51,-76.5 131,-76.5 131,-57.5 51,-57.5"/>
<text text-anchor="middle" x="91" y="-64.5" font-family="Helvetica,sans-Serif" font-size="10.00">llvm::MDNode</text>
</a>
</g>
</g>
<!-- Node4&#45;&gt;Node3 -->
<g id="edge1" class="edge">
<title>Node4&#45;&gt;Node3</title>
<path fill="none" stroke="midnightblue" d="M76.93,-49.53C68.56,-39.74 58.27,-27.7 51.45,-19.71"/>
<polygon fill="midnightblue" stroke="midnightblue" points="74.5,-52.08 83.66,-57.41 79.82,-47.53 74.5,-52.08"/>
</g>
<!-- Node5 -->
<g id="node3" class="node">
<title>Node5</title>
<g id="a_node3"><a xlink:href="classllvm_1_1Metadata.html" target="_top" xlink:title="Root of the metadata hierarchy. ">
<polygon fill="none" stroke="black" points="51.5,-168.5 51.5,-187.5 132.5,-187.5 132.5,-168.5 51.5,-168.5"/>
<text text-anchor="middle" x="92" y="-175.5" font-family="Helvetica,sans-Serif" font-size="10.00">llvm::Metadata</text>
</a>
</g>
</g>
<!-- Node5&#45;&gt;Node4 -->
<g id="edge2" class="edge">
<title>Node5&#45;&gt;Node4</title>
<path fill="none" stroke="midnightblue" d="M91.83,-158.19C91.61,-134.28 91.24,-93.99 91.08,-76.51"/>
<polygon fill="midnightblue" stroke="midnightblue" points="88.33,-158.48 91.92,-168.45 95.33,-158.42 88.33,-158.48"/>
</g>
<!-- Node6 -->
<g id="node4" class="node">
<title>Node6</title>
<g id="a_node4"><a xlink:href="classunsigned.html" target="_top" xlink:title="unsigned">
<polygon fill="none" stroke="black" points="9,-268.5 9,-287.5 65,-287.5 65,-268.5 9,-268.5"/>
<text text-anchor="middle" x="37" y="-275.5" font-family="Helvetica,sans-Serif" font-size="10.00">unsigned</text>
</a>
</g>
</g>
<!-- Node6&#45;&gt;Node3 -->
<g id="edge4" class="edge">
<title>Node6&#45;&gt;Node3</title>
<path fill="none" stroke="#9a32cd" stroke-dasharray="5,2" d="M34.54,-258.23C30.58,-225.18 23.73,-154.46 29,-95 31.46,-67.26 38.4,-34.96 41.91,-19.76"/>
<polygon fill="#9a32cd" stroke="#9a32cd" points="31.08,-258.78 35.8,-268.27 38.03,-257.91 31.08,-258.78"/>
<text text-anchor="middle" x="58" y="-142" font-family="Helvetica,sans-Serif" font-size="10.00"> ImplicitCode</text>
<text text-anchor="middle" x="58" y="-131" font-family="Helvetica,sans-Serif" font-size="10.00">Column</text>
<text text-anchor="middle" x="58" y="-120" font-family="Helvetica,sans-Serif" font-size="10.00">Line</text>
<text text-anchor="middle" x="58" y="-109" font-family="Helvetica,sans-Serif" font-size="10.00">InlinedAt</text>
<text text-anchor="middle" x="58" y="-98" font-family="Helvetica,sans-Serif" font-size="10.00">Scope</text>
</g>
<!-- Node6&#45;&gt;Node5 -->
<g id="edge3" class="edge">
<title>Node6&#45;&gt;Node5</title>
<path fill="none" stroke="#9a32cd" stroke-dasharray="5,2" d="M46.89,-259.38C58.77,-238.2 78.25,-203.51 87.21,-187.54"/>
<polygon fill="#9a32cd" stroke="#9a32cd" points="43.72,-257.87 41.88,-268.3 49.83,-261.3 43.72,-257.87"/>
<text text-anchor="middle" x="111.5" y="-242" font-family="Helvetica,sans-Serif" font-size="10.00"> ImplicitCode</text>
<text text-anchor="middle" x="111.5" y="-231" font-family="Helvetica,sans-Serif" font-size="10.00">Storage</text>
<text text-anchor="middle" x="111.5" y="-220" font-family="Helvetica,sans-Serif" font-size="10.00">SubclassData32</text>
<text text-anchor="middle" x="111.5" y="-209" font-family="Helvetica,sans-Serif" font-size="10.00">SubclassData16</text>
</g>
</g>
</svg>
