<?xml version="1.0" encoding="UTF-8" standalone="no"?>
<!DOCTYPE svg PUBLIC "-//W3C//DTD SVG 1.1//EN"
 "http://www.w3.org/Graphics/SVG/1.1/DTD/svg11.dtd">
<!-- Generated by graphviz version 2.43.0 (0)
 -->
<!-- Title: llvm::optional_detail::OptionalStorage&lt; T, true &gt; Pages: 1 -->
<svg width="118pt" height="117pt"
 viewBox="0.00 0.00 118.00 117.00" xmlns="http://www.w3.org/2000/svg" xmlns:xlink="http://www.w3.org/1999/xlink">
<g id="graph0" class="graph" transform="scale(1 1) rotate(0) translate(4 113)">
<title>llvm::optional_detail::OptionalStorage&lt; T, true &gt;</title>
<!-- Node1 -->
<g id="node1" class="node">
<title>Node1</title>
<polygon fill="#bfbfbf" stroke="black" points="0,-0.5 0,-41.5 110,-41.5 110,-0.5 0,-0.5"/>
<text text-anchor="start" x="8" y="-29.5" font-family="Helvetica,sans-Serif" font-size="10.00">llvm::optional_detail</text>
<text text-anchor="start" x="8" y="-18.5" font-family="Helvetica,sans-Serif" font-size="10.00">::OptionalStorage&lt; T,</text>
<text text-anchor="middle" x="55" y="-7.5" font-family="Helvetica,sans-Serif" font-size="10.00"> true &gt;</text>
</g>
<!-- Node2 -->
<g id="node2" class="node">
<title>Node2</title>
<g id="a_node2"><a xlink:href="classchar.html" target="_top" xlink:title="char">
<polygon fill="none" stroke="black" points="10.5,-89.5 10.5,-108.5 45.5,-108.5 45.5,-89.5 10.5,-89.5"/>
<text text-anchor="middle" x="28" y="-96.5" font-family="Helvetica,sans-Serif" font-size="10.00">char</text>
</a>
</g>
</g>
<!-- Node2&#45;&gt;Node1 -->
<g id="edge1" class="edge">
<title>Node2&#45;&gt;Node1</title>
<path fill="none" stroke="#9a32cd" stroke-dasharray="5,2" d="M26.4,-79.14C26.42,-72.91 27.04,-66.04 29,-60 31.07,-53.61 34.58,-47.32 38.36,-41.76"/>
<polygon fill="#9a32cd" stroke="#9a32cd" points="22.91,-79.48 26.86,-89.31 29.9,-79.17 22.91,-79.48"/>
<text text-anchor="middle" x="44.5" y="-63" font-family="Helvetica,sans-Serif" font-size="10.00"> empty</text>
</g>
<!-- Node3 -->
<g id="node3" class="node">
<title>Node3</title>
<polygon fill="none" stroke="#bfbfbf" points="67.5,-89.5 67.5,-108.5 96.5,-108.5 96.5,-89.5 67.5,-89.5"/>
<text text-anchor="middle" x="82" y="-96.5" font-family="Helvetica,sans-Serif" font-size="10.00">T</text>
</g>
<!-- Node3&#45;&gt;Node1 -->
<g id="edge2" class="edge">
<title>Node3&#45;&gt;Node1</title>
<path fill="none" stroke="#9a32cd" stroke-dasharray="5,2" d="M75.55,-79.85C71.46,-68.34 66.17,-53.45 61.98,-41.66"/>
<polygon fill="#9a32cd" stroke="#9a32cd" points="72.26,-81.03 78.9,-89.28 78.85,-78.69 72.26,-81.03"/>
<text text-anchor="middle" x="84.5" y="-63" font-family="Helvetica,sans-Serif" font-size="10.00"> value</text>
</g>
</g>
</svg>
