<?xml version="1.0" encoding="UTF-8" standalone="no"?>
<!DOCTYPE svg PUBLIC "-//W3C//DTD SVG 1.1//EN"
 "http://www.w3.org/Graphics/SVG/1.1/DTD/svg11.dtd">
<!-- Generated by graphviz version 2.43.0 (0)
 -->
<!-- Title: llvm::SCEVLoopAddRecRewriter Pages: 1 -->
<svg width="1229pt" height="89pt"
 viewBox="0.00 0.00 1229.00 88.50" xmlns="http://www.w3.org/2000/svg" xmlns:xlink="http://www.w3.org/1999/xlink">
<g id="graph0" class="graph" transform="scale(1 1) rotate(0) translate(4 84.5)">
<title>llvm::SCEVLoopAddRecRewriter</title>
<!-- Node0 -->
<g id="node1" class="node">
<title>Node0</title>
<polygon fill="#bfbfbf" stroke="black" points="1060,-32 1060,-51 1221,-51 1221,-32 1060,-32"/>
<text text-anchor="middle" x="1140.5" y="-39" font-family="Helvetica,sans-Serif" font-size="10.00">llvm::SCEVLoopAddRecRewriter</text>
</g>
<!-- Node1 -->
<g id="node2" class="node">
<title>Node1</title>
<g id="a_node2"><a xlink:href="classllvm_1_1SCEVRewriteVisitor.html" target="_top" xlink:title="llvm::SCEVRewriteVisitor\l\&lt; SCEVLoopAddRecRewriter \&gt;">
<polygon fill="none" stroke="black" points="868,-26.5 868,-56.5 1023,-56.5 1023,-26.5 868,-26.5"/>
<text text-anchor="start" x="876" y="-44.5" font-family="Helvetica,sans-Serif" font-size="10.00">llvm::SCEVRewriteVisitor</text>
<text text-anchor="middle" x="945.5" y="-33.5" font-family="Helvetica,sans-Serif" font-size="10.00">&lt; SCEVLoopAddRecRewriter &gt;</text>
</a>
</g>
</g>
<!-- Node1&#45;&gt;Node0 -->
<g id="edge1" class="edge">
<title>Node1&#45;&gt;Node0</title>
<path fill="none" stroke="midnightblue" d="M1033.07,-41.5C1041.99,-41.5 1051.03,-41.5 1059.87,-41.5"/>
<polygon fill="midnightblue" stroke="midnightblue" points="1033.06,-38 1023.06,-41.5 1033.06,-45 1033.06,-38"/>
</g>
<!-- Node2 -->
<g id="node3" class="node">
<title>Node2</title>
<g id="a_node3"><a xlink:href="structllvm_1_1SCEVVisitor.html" target="_top" xlink:title="llvm::SCEVVisitor\&lt;\l SCEVLoopAddRecRewriter,\l const SCEV *\&gt;">
<polygon fill="none" stroke="black" points="399,-39 399,-80 542,-80 542,-39 399,-39"/>
<text text-anchor="start" x="407" y="-68" font-family="Helvetica,sans-Serif" font-size="10.00">llvm::SCEVVisitor&lt;</text>
<text text-anchor="start" x="407" y="-57" font-family="Helvetica,sans-Serif" font-size="10.00"> SCEVLoopAddRecRewriter,</text>
<text text-anchor="middle" x="470.5" y="-46" font-family="Helvetica,sans-Serif" font-size="10.00"> const SCEV *&gt;</text>
</a>
</g>
</g>
<!-- Node2&#45;&gt;Node1 -->
<g id="edge2" class="edge">
<title>Node2&#45;&gt;Node1</title>
<path fill="none" stroke="midnightblue" d="M552.38,-56.63C629.01,-53.89 747.35,-49.57 850,-45.5 855.82,-45.27 861.85,-45.03 867.91,-44.78"/>
<polygon fill="midnightblue" stroke="midnightblue" points="552.18,-53.14 542.31,-56.99 552.43,-60.13 552.18,-53.14"/>
</g>
<!-- Node3 -->
<g id="node4" class="node">
<title>Node3</title>
<g id="a_node4"><a xlink:href="structllvm_1_1SCEVVisitor.html" target="_top" xlink:title="This class defines a simple visitor class that may be used for various SCEV analysis purposes...">
<polygon fill="none" stroke="black" points="0,-22.5 0,-52.5 102,-52.5 102,-22.5 0,-22.5"/>
<text text-anchor="start" x="8" y="-40.5" font-family="Helvetica,sans-Serif" font-size="10.00">llvm::SCEVVisitor&lt;</text>
<text text-anchor="middle" x="51" y="-29.5" font-family="Helvetica,sans-Serif" font-size="10.00"> SC, RetVal &gt;</text>
</a>
</g>
</g>
<!-- Node3&#45;&gt;Node2 -->
<g id="edge3" class="edge">
<title>Node3&#45;&gt;Node2</title>
<path fill="none" stroke="orange" stroke-dasharray="5,2" d="M112.71,-40.7C188.63,-44.7 318.39,-51.54 398.75,-55.77"/>
<polygon fill="orange" stroke="orange" points="112.53,-37.18 102.36,-40.15 112.16,-44.18 112.53,-37.18"/>
<text text-anchor="start" x="120" y="-62.5" font-family="Helvetica,sans-Serif" font-size="10.00"> &lt; SCEVLoopAddRecRewriter,</text>
<text text-anchor="middle" x="188" y="-51.5" font-family="Helvetica,sans-Serif" font-size="10.00"> const SCEV *&gt;</text>
</g>
<!-- Node5 -->
<g id="node6" class="node">
<title>Node5</title>
<g id="a_node6"><a xlink:href="structllvm_1_1SCEVVisitor.html" target="_top" xlink:title="llvm::SCEVVisitor\&lt;\l SC, const SCEV *\&gt;">
<polygon fill="none" stroke="black" points="274,-0.5 274,-30.5 381,-30.5 381,-0.5 274,-0.5"/>
<text text-anchor="start" x="282" y="-18.5" font-family="Helvetica,sans-Serif" font-size="10.00">llvm::SCEVVisitor&lt;</text>
<text text-anchor="middle" x="327.5" y="-7.5" font-family="Helvetica,sans-Serif" font-size="10.00"> SC, const SCEV *&gt;</text>
</a>
</g>
</g>
<!-- Node3&#45;&gt;Node5 -->
<g id="edge6" class="edge">
<title>Node3&#45;&gt;Node5</title>
<path fill="none" stroke="orange" stroke-dasharray="5,2" d="M112.23,-27.41C114.85,-27.08 117.45,-26.77 120,-26.5 172.12,-20.91 231.95,-18.12 273.75,-16.75"/>
<polygon fill="orange" stroke="orange" points="111.49,-23.97 102.05,-28.78 112.43,-30.91 111.49,-23.97"/>
<text text-anchor="middle" x="188" y="-29.5" font-family="Helvetica,sans-Serif" font-size="10.00"> &lt; SC, const SCEV *&gt;</text>
</g>
<!-- Node4 -->
<g id="node5" class="node">
<title>Node4</title>
<g id="a_node5"><a xlink:href="classllvm_1_1SCEVRewriteVisitor.html" target="_top" xlink:title="This visitor recursively visits a SCEV expression and re&#45;writes it. ">
<polygon fill="none" stroke="black" points="560,-0.5 560,-30.5 690,-30.5 690,-0.5 560,-0.5"/>
<text text-anchor="start" x="568" y="-18.5" font-family="Helvetica,sans-Serif" font-size="10.00">llvm::SCEVRewriteVisitor</text>
<text text-anchor="middle" x="625" y="-7.5" font-family="Helvetica,sans-Serif" font-size="10.00">&lt; SC &gt;</text>
</a>
</g>
</g>
<!-- Node4&#45;&gt;Node1 -->
<g id="edge4" class="edge">
<title>Node4&#45;&gt;Node1</title>
<path fill="none" stroke="orange" stroke-dasharray="5,2" d="M700.24,-21.56C750.61,-25.67 817.04,-31.09 867.9,-35.25"/>
<polygon fill="orange" stroke="orange" points="700.32,-18.06 690.07,-20.73 699.75,-25.03 700.32,-18.06"/>
<text text-anchor="middle" x="779" y="-36.5" font-family="Helvetica,sans-Serif" font-size="10.00"> &lt; SCEVLoopAddRecRewriter &gt;</text>
</g>
<!-- Node5&#45;&gt;Node4 -->
<g id="edge5" class="edge">
<title>Node5&#45;&gt;Node4</title>
<path fill="none" stroke="midnightblue" d="M391.6,-15.5C441.17,-15.5 509.93,-15.5 559.79,-15.5"/>
<polygon fill="midnightblue" stroke="midnightblue" points="391.33,-12 381.33,-15.5 391.33,-19 391.33,-12"/>
</g>
</g>
</svg>
