<?xml version="1.0" encoding="UTF-8" standalone="no"?>
<!DOCTYPE svg PUBLIC "-//W3C//DTD SVG 1.1//EN"
 "http://www.w3.org/Graphics/SVG/1.1/DTD/svg11.dtd">
<!-- Generated by graphviz version 2.43.0 (0)
 -->
<!-- Title: llvm::ilist_node_with_parent&lt; NodeTy, ParentTy, Options &gt; Pages: 1 -->
<svg width="1212pt" height="193pt"
 viewBox="0.00 0.00 1212.00 192.50" xmlns="http://www.w3.org/2000/svg" xmlns:xlink="http://www.w3.org/1999/xlink">
<g id="graph0" class="graph" transform="scale(1 1) rotate(0) translate(4 188.5)">
<title>llvm::ilist_node_with_parent&lt; NodeTy, ParentTy, Options &gt;</title>
<!-- Node173 -->
<g id="node1" class="node">
<title>Node173</title>
<polygon fill="#bfbfbf" stroke="black" points="1063,-70.5 1063,-111.5 1204,-111.5 1204,-70.5 1063,-70.5"/>
<text text-anchor="start" x="1071" y="-99.5" font-family="Helvetica,sans-Serif" font-size="10.00">llvm::ilist_node_with</text>
<text text-anchor="start" x="1071" y="-88.5" font-family="Helvetica,sans-Serif" font-size="10.00">_parent&lt; NodeTy, ParentTy,</text>
<text text-anchor="middle" x="1133.5" y="-77.5" font-family="Helvetica,sans-Serif" font-size="10.00"> Options &gt;</text>
</g>
<!-- Node174 -->
<g id="node2" class="node">
<title>Node174</title>
<g id="a_node2"><a xlink:href="classllvm_1_1ilist__node.html" target="_top" xlink:title="llvm::ilist_node\&lt; NodeTy,\l Options... \&gt;">
<polygon fill="none" stroke="black" points="898,-76 898,-106 1026,-106 1026,-76 898,-76"/>
<text text-anchor="start" x="906" y="-94" font-family="Helvetica,sans-Serif" font-size="10.00">llvm::ilist_node&lt; NodeTy,</text>
<text text-anchor="middle" x="962" y="-83" font-family="Helvetica,sans-Serif" font-size="10.00"> Options... &gt;</text>
</a>
</g>
</g>
<!-- Node174&#45;&gt;Node173 -->
<g id="edge1" class="edge">
<title>Node174&#45;&gt;Node173</title>
<path fill="none" stroke="midnightblue" d="M1036.32,-91C1045.11,-91 1054.05,-91 1062.78,-91"/>
<polygon fill="midnightblue" stroke="midnightblue" points="1036.12,-87.5 1026.12,-91 1036.12,-94.5 1036.12,-87.5"/>
</g>
<!-- Node175 -->
<g id="node3" class="node">
<title>Node175</title>
<g id="a_node3"><a xlink:href="classllvm_1_1ilist__node__impl.html" target="_top" xlink:title="llvm::ilist_node_impl\l\&lt; ilist_detail::compute\l_node_options\&lt; NodeTy,\l Options... \&gt;::type \&gt;">
<polygon fill="none" stroke="black" points="485.5,-91 485.5,-143 611.5,-143 611.5,-91 485.5,-91"/>
<text text-anchor="start" x="493.5" y="-131" font-family="Helvetica,sans-Serif" font-size="10.00">llvm::ilist_node_impl</text>
<text text-anchor="start" x="493.5" y="-120" font-family="Helvetica,sans-Serif" font-size="10.00">&lt; ilist_detail::compute</text>
<text text-anchor="start" x="493.5" y="-109" font-family="Helvetica,sans-Serif" font-size="10.00">_node_options&lt; NodeTy,</text>
<text text-anchor="middle" x="548.5" y="-98" font-family="Helvetica,sans-Serif" font-size="10.00"> Options... &gt;::type &gt;</text>
</a>
</g>
</g>
<!-- Node175&#45;&gt;Node174 -->
<g id="edge2" class="edge">
<title>Node175&#45;&gt;Node174</title>
<path fill="none" stroke="midnightblue" d="M621.67,-112.91C688.64,-109.06 791.08,-102.98 880,-97 885.77,-96.61 891.77,-96.19 897.77,-95.77"/>
<polygon fill="midnightblue" stroke="midnightblue" points="621.43,-109.42 611.65,-113.49 621.83,-116.41 621.43,-109.42"/>
</g>
<!-- Node176 -->
<g id="node4" class="node">
<title>Node176</title>
<polygon fill="none" stroke="#bfbfbf" points="172.5,-132 172.5,-184 312.5,-184 312.5,-132 172.5,-132"/>
<text text-anchor="start" x="180.5" y="-172" font-family="Helvetica,sans-Serif" font-size="10.00">ilist_detail::compute</text>
<text text-anchor="start" x="180.5" y="-161" font-family="Helvetica,sans-Serif" font-size="10.00">_node_options::type </text>
<text text-anchor="start" x="180.5" y="-150" font-family="Helvetica,sans-Serif" font-size="10.00">::node_base_type&lt; NodeTy,</text>
<text text-anchor="middle" x="242.5" y="-139" font-family="Helvetica,sans-Serif" font-size="10.00"> Options... &gt;</text>
</g>
<!-- Node176&#45;&gt;Node175 -->
<g id="edge3" class="edge">
<title>Node176&#45;&gt;Node175</title>
<path fill="none" stroke="#8b1a1a" d="M323.09,-157.21C363.98,-155.7 414.46,-152.13 459,-144 467.53,-142.44 476.4,-140.34 485.09,-137.99"/>
<polygon fill="#8b1a1a" stroke="#8b1a1a" points="322.78,-153.72 312.9,-157.55 323.02,-160.72 322.78,-153.72"/>
</g>
<!-- Node177 -->
<g id="node5" class="node">
<title>Node177</title>
<g id="a_node5"><a xlink:href="classllvm_1_1ilist__node__impl.html" target="_top" xlink:title="Implementation for an ilist node. ">
<polygon fill="none" stroke="black" points="190,-72 190,-102 295,-102 295,-72 190,-72"/>
<text text-anchor="start" x="198" y="-90" font-family="Helvetica,sans-Serif" font-size="10.00">llvm::ilist_node_impl</text>
<text text-anchor="middle" x="242.5" y="-79" font-family="Helvetica,sans-Serif" font-size="10.00">&lt; OptionsT &gt;</text>
</a>
</g>
</g>
<!-- Node177&#45;&gt;Node175 -->
<g id="edge4" class="edge">
<title>Node177&#45;&gt;Node175</title>
<path fill="none" stroke="orange" stroke-dasharray="5,2" d="M305.26,-93.09C357.77,-98.28 432.82,-105.68 485.42,-110.87"/>
<polygon fill="orange" stroke="orange" points="305.36,-89.59 295.07,-92.09 304.68,-96.55 305.36,-89.59"/>
<text text-anchor="start" x="340.5" y="-133" font-family="Helvetica,sans-Serif" font-size="10.00"> &lt; ilist_detail::compute</text>
<text text-anchor="start" x="340.5" y="-122" font-family="Helvetica,sans-Serif" font-size="10.00">_node_options&lt; NodeTy,</text>
<text text-anchor="middle" x="395.5" y="-111" font-family="Helvetica,sans-Serif" font-size="10.00"> Options... &gt;::type &gt;</text>
</g>
<!-- Node180 -->
<g id="node8" class="node">
<title>Node180</title>
<g id="a_node8"><a xlink:href="classllvm_1_1ilist__node__impl.html" target="_top" xlink:title="llvm::ilist_node_impl\l\&lt; ilist_detail::compute\l_node_options\&lt; T, Options...\l \&gt;::type \&gt;">
<polygon fill="none" stroke="black" points="477,-20 477,-72 620,-72 620,-20 477,-20"/>
<text text-anchor="start" x="485" y="-60" font-family="Helvetica,sans-Serif" font-size="10.00">llvm::ilist_node_impl</text>
<text text-anchor="start" x="485" y="-49" font-family="Helvetica,sans-Serif" font-size="10.00">&lt; ilist_detail::compute</text>
<text text-anchor="start" x="485" y="-38" font-family="Helvetica,sans-Serif" font-size="10.00">_node_options&lt; T, Options...</text>
<text text-anchor="middle" x="548.5" y="-27" font-family="Helvetica,sans-Serif" font-size="10.00"> &gt;::type &gt;</text>
</a>
</g>
</g>
<!-- Node177&#45;&gt;Node180 -->
<g id="edge9" class="edge">
<title>Node177&#45;&gt;Node180</title>
<path fill="none" stroke="orange" stroke-dasharray="5,2" d="M291.74,-68.67C304.65,-64.47 318.71,-60.5 332,-58 379.69,-49.02 434.27,-46.05 476.58,-45.32"/>
<polygon fill="orange" stroke="orange" points="290.49,-65.4 282.13,-71.91 292.73,-72.03 290.49,-65.4"/>
<text text-anchor="start" x="332" y="-83" font-family="Helvetica,sans-Serif" font-size="10.00"> &lt; ilist_detail::compute</text>
<text text-anchor="start" x="332" y="-72" font-family="Helvetica,sans-Serif" font-size="10.00">_node_options&lt; T, Options...</text>
<text text-anchor="middle" x="395.5" y="-61" font-family="Helvetica,sans-Serif" font-size="10.00"> &gt;::type &gt;</text>
</g>
<!-- Node178 -->
<g id="node6" class="node">
<title>Node178</title>
<polygon fill="none" stroke="#bfbfbf" points="0,-77.5 0,-96.5 134,-96.5 134,-77.5 0,-77.5"/>
<text text-anchor="middle" x="67" y="-84.5" font-family="Helvetica,sans-Serif" font-size="10.00">OptionsT::node_base_type</text>
</g>
<!-- Node178&#45;&gt;Node177 -->
<g id="edge5" class="edge">
<title>Node178&#45;&gt;Node177</title>
<path fill="none" stroke="#8b1a1a" d="M144.16,-87C159.62,-87 175.53,-87 189.89,-87"/>
<polygon fill="#8b1a1a" stroke="#8b1a1a" points="144.09,-83.5 134.09,-87 144.09,-90.5 144.09,-83.5"/>
</g>
<!-- Node179 -->
<g id="node7" class="node">
<title>Node179</title>
<g id="a_node7"><a xlink:href="classllvm_1_1ilist__node.html" target="_top" xlink:title="llvm::ilist_node\&lt; T,\l Options \&gt;">
<polygon fill="none" stroke="black" points="657,-51 657,-81 757,-81 757,-51 657,-51"/>
<text text-anchor="start" x="665" y="-69" font-family="Helvetica,sans-Serif" font-size="10.00">llvm::ilist_node&lt; T,</text>
<text text-anchor="middle" x="707" y="-58" font-family="Helvetica,sans-Serif" font-size="10.00"> Options &gt;</text>
</a>
</g>
</g>
<!-- Node179&#45;&gt;Node174 -->
<g id="edge6" class="edge">
<title>Node179&#45;&gt;Node174</title>
<path fill="none" stroke="orange" stroke-dasharray="5,2" d="M767.27,-71.86C806.43,-75.73 857.69,-80.79 897.65,-84.74"/>
<polygon fill="orange" stroke="orange" points="767.38,-68.35 757.08,-70.85 766.69,-75.32 767.38,-68.35"/>
<text text-anchor="middle" x="827.5" y="-85" font-family="Helvetica,sans-Serif" font-size="10.00"> &lt; NodeTy, Options... &gt;</text>
</g>
<!-- Node180&#45;&gt;Node179 -->
<g id="edge7" class="edge">
<title>Node180&#45;&gt;Node179</title>
<path fill="none" stroke="midnightblue" d="M630.54,-56.36C639.5,-57.5 648.41,-58.64 656.8,-59.71"/>
<polygon fill="midnightblue" stroke="midnightblue" points="630.79,-52.86 620.42,-55.06 629.9,-59.8 630.79,-52.86"/>
</g>
<!-- Node181 -->
<g id="node9" class="node">
<title>Node181</title>
<polygon fill="none" stroke="#bfbfbf" points="171,-0.5 171,-41.5 314,-41.5 314,-0.5 171,-0.5"/>
<text text-anchor="start" x="179" y="-29.5" font-family="Helvetica,sans-Serif" font-size="10.00">ilist_detail::compute</text>
<text text-anchor="start" x="179" y="-18.5" font-family="Helvetica,sans-Serif" font-size="10.00">_node_options&lt; T, Options...</text>
<text text-anchor="middle" x="242.5" y="-7.5" font-family="Helvetica,sans-Serif" font-size="10.00"> &gt;::type ::node_base_type</text>
</g>
<!-- Node181&#45;&gt;Node180 -->
<g id="edge8" class="edge">
<title>Node181&#45;&gt;Node180</title>
<path fill="none" stroke="#8b1a1a" d="M324.51,-25.13C364.96,-27.48 414.61,-30.8 459,-35 464.7,-35.54 470.61,-36.15 476.53,-36.81"/>
<polygon fill="#8b1a1a" stroke="#8b1a1a" points="324.62,-21.63 314.44,-24.56 324.22,-28.62 324.62,-21.63"/>
</g>
</g>
</svg>
