<?xml version="1.0" encoding="UTF-8" standalone="no"?>
<!DOCTYPE svg PUBLIC "-//W3C//DTD SVG 1.1//EN"
 "http://www.w3.org/Graphics/SVG/1.1/DTD/svg11.dtd">
<!-- Generated by graphviz version 2.43.0 (0)
 -->
<!-- Title: llvm::AMDGPUMCCodeEmitter Pages: 1 -->
<svg width="230pt" height="95pt"
 viewBox="0.00 0.00 229.50 95.00" xmlns="http://www.w3.org/2000/svg" xmlns:xlink="http://www.w3.org/1999/xlink">
<g id="graph0" class="graph" transform="scale(1 1) rotate(0) translate(4 91)">
<title>llvm::AMDGPUMCCodeEmitter</title>
<!-- Node2 -->
<g id="node1" class="node">
<title>Node2</title>
<polygon fill="#bfbfbf" stroke="black" points="38,-0.5 38,-19.5 193,-19.5 193,-0.5 38,-0.5"/>
<text text-anchor="middle" x="115.5" y="-7.5" font-family="Helvetica,sans-Serif" font-size="10.00">llvm::AMDGPUMCCodeEmitter</text>
</g>
<!-- Node3 -->
<g id="node2" class="node">
<title>Node3</title>
<g id="a_node2"><a xlink:href="classllvm_1_1MCCodeEmitter.html" target="_top" xlink:title="MCCodeEmitter &#45; Generic instruction encoding interface. ">
<polygon fill="none" stroke="black" points="0,-67.5 0,-86.5 111,-86.5 111,-67.5 0,-67.5"/>
<text text-anchor="middle" x="55.5" y="-74.5" font-family="Helvetica,sans-Serif" font-size="10.00">llvm::MCCodeEmitter</text>
</a>
</g>
</g>
<!-- Node3&#45;&gt;Node2 -->
<g id="edge1" class="edge">
<title>Node3&#45;&gt;Node2</title>
<path fill="none" stroke="midnightblue" d="M70.61,-59.63C82.34,-46.92 98.15,-29.8 107.54,-19.63"/>
<polygon fill="midnightblue" stroke="midnightblue" points="67.8,-57.51 63.59,-67.23 72.95,-62.26 67.8,-57.51"/>
</g>
<!-- Node4 -->
<g id="node3" class="node">
<title>Node4</title>
<g id="a_node3"><a xlink:href="classllvm_1_1MCInstrInfo.html" target="_top" xlink:title="Interface to description of machine instruction set. ">
<polygon fill="none" stroke="black" points="129.5,-67.5 129.5,-86.5 221.5,-86.5 221.5,-67.5 129.5,-67.5"/>
<text text-anchor="middle" x="175.5" y="-74.5" font-family="Helvetica,sans-Serif" font-size="10.00">llvm::MCInstrInfo</text>
</a>
</g>
</g>
<!-- Node4&#45;&gt;Node2 -->
<g id="edge2" class="edge">
<title>Node4&#45;&gt;Node2</title>
<path fill="none" stroke="#9a32cd" stroke-dasharray="5,2" d="M160.39,-59.63C148.66,-46.92 132.85,-29.8 123.46,-19.63"/>
<polygon fill="#9a32cd" stroke="#9a32cd" points="158.05,-62.26 167.41,-67.23 163.2,-57.51 158.05,-62.26"/>
<text text-anchor="middle" x="161" y="-41" font-family="Helvetica,sans-Serif" font-size="10.00"> MCII</text>
</g>
</g>
</svg>
