<?xml version="1.0" encoding="UTF-8" standalone="no"?>
<!DOCTYPE svg PUBLIC "-//W3C//DTD SVG 1.1//EN"
 "http://www.w3.org/Graphics/SVG/1.1/DTD/svg11.dtd">
<!-- Generated by graphviz version 2.43.0 (0)
 -->
<!-- Title: llvm::xray::RecordInitializer Pages: 1 -->
<svg width="221pt" height="95pt"
 viewBox="0.00 0.00 220.50 95.00" xmlns="http://www.w3.org/2000/svg" xmlns:xlink="http://www.w3.org/1999/xlink">
<g id="graph0" class="graph" transform="scale(1 1) rotate(0) translate(4 91)">
<title>llvm::xray::RecordInitializer</title>
<!-- Node2 -->
<g id="node1" class="node">
<title>Node2</title>
<polygon fill="#bfbfbf" stroke="black" points="47.5,-0.5 47.5,-19.5 183.5,-19.5 183.5,-0.5 47.5,-0.5"/>
<text text-anchor="middle" x="115.5" y="-7.5" font-family="Helvetica,sans-Serif" font-size="10.00">llvm::xray::RecordInitializer</text>
</g>
<!-- Node3 -->
<g id="node2" class="node">
<title>Node3</title>
<g id="a_node2"><a xlink:href="classllvm_1_1xray_1_1RecordVisitor.html" target="_top" xlink:title="llvm::xray::RecordVisitor">
<polygon fill="none" stroke="black" points="0,-67.5 0,-86.5 125,-86.5 125,-67.5 0,-67.5"/>
<text text-anchor="middle" x="62.5" y="-74.5" font-family="Helvetica,sans-Serif" font-size="10.00">llvm::xray::RecordVisitor</text>
</a>
</g>
</g>
<!-- Node3&#45;&gt;Node2 -->
<g id="edge1" class="edge">
<title>Node3&#45;&gt;Node2</title>
<path fill="none" stroke="midnightblue" d="M76.14,-59.27C86.47,-46.6 100.25,-29.7 108.47,-19.63"/>
<polygon fill="midnightblue" stroke="midnightblue" points="73.25,-57.27 69.65,-67.23 78.68,-61.7 73.25,-57.27"/>
</g>
<!-- Node4 -->
<g id="node3" class="node">
<title>Node4</title>
<g id="a_node3"><a xlink:href="classuint16__t.html" target="_top" xlink:title="uint16_t">
<polygon fill="none" stroke="black" points="143,-67.5 143,-86.5 194,-86.5 194,-67.5 143,-67.5"/>
<text text-anchor="middle" x="168.5" y="-74.5" font-family="Helvetica,sans-Serif" font-size="10.00">uint16_t</text>
</a>
</g>
</g>
<!-- Node4&#45;&gt;Node2 -->
<g id="edge2" class="edge">
<title>Node4&#45;&gt;Node2</title>
<path fill="none" stroke="#9a32cd" stroke-dasharray="5,2" d="M154.86,-59.27C144.53,-46.6 130.75,-29.7 122.53,-19.63"/>
<polygon fill="#9a32cd" stroke="#9a32cd" points="152.32,-61.7 161.35,-67.23 157.75,-57.27 152.32,-61.7"/>
<text text-anchor="middle" x="178.5" y="-41" font-family="Helvetica,sans-Serif" font-size="10.00"> DefaultVersion</text>
</g>
</g>
</svg>
