<?xml version="1.0" encoding="UTF-8" standalone="no"?>
<!DOCTYPE svg PUBLIC "-//W3C//DTD SVG 1.1//EN"
 "http://www.w3.org/Graphics/SVG/1.1/DTD/svg11.dtd">
<!-- Generated by graphviz version 2.43.0 (0)
 -->
<!-- Title: llvm::codeview::ExportSym Pages: 1 -->
<svg width="489pt" height="162pt"
 viewBox="0.00 0.00 489.00 162.00" xmlns="http://www.w3.org/2000/svg" xmlns:xlink="http://www.w3.org/1999/xlink">
<g id="graph0" class="graph" transform="scale(1 1) rotate(0) translate(4 158)">
<title>llvm::codeview::ExportSym</title>
<!-- Node2 -->
<g id="node1" class="node">
<title>Node2</title>
<polygon fill="#bfbfbf" stroke="black" points="192.5,-0.5 192.5,-19.5 329.5,-19.5 329.5,-0.5 192.5,-0.5"/>
<text text-anchor="middle" x="261" y="-7.5" font-family="Helvetica,sans-Serif" font-size="10.00">llvm::codeview::ExportSym</text>
</g>
<!-- Node3 -->
<g id="node2" class="node">
<title>Node3</title>
<g id="a_node2"><a xlink:href="classllvm_1_1codeview_1_1SymbolRecord.html" target="_top" xlink:title="llvm::codeview::SymbolRecord">
<polygon fill="none" stroke="black" points="0,-67.5 0,-86.5 152,-86.5 152,-67.5 0,-67.5"/>
<text text-anchor="middle" x="76" y="-74.5" font-family="Helvetica,sans-Serif" font-size="10.00">llvm::codeview::SymbolRecord</text>
</a>
</g>
</g>
<!-- Node3&#45;&gt;Node2 -->
<g id="edge1" class="edge">
<title>Node3&#45;&gt;Node2</title>
<path fill="none" stroke="midnightblue" d="M110.34,-63.94C147.04,-51.04 204.29,-30.92 236.63,-19.56"/>
<polygon fill="midnightblue" stroke="midnightblue" points="108.84,-60.75 100.57,-67.37 111.16,-67.36 108.84,-60.75"/>
</g>
<!-- Node4 -->
<g id="node3" class="node">
<title>Node4</title>
<polygon fill="none" stroke="#bfbfbf" points="25.5,-134.5 25.5,-153.5 126.5,-153.5 126.5,-134.5 25.5,-134.5"/>
<text text-anchor="middle" x="76" y="-141.5" font-family="Helvetica,sans-Serif" font-size="10.00">SymbolRecordKind</text>
</g>
<!-- Node4&#45;&gt;Node3 -->
<g id="edge2" class="edge">
<title>Node4&#45;&gt;Node3</title>
<path fill="none" stroke="#9a32cd" stroke-dasharray="5,2" d="M76,-124.04C76,-111.67 76,-96.12 76,-86.63"/>
<polygon fill="#9a32cd" stroke="#9a32cd" points="72.5,-124.23 76,-134.23 79.5,-124.23 72.5,-124.23"/>
<text text-anchor="middle" x="87.5" y="-108" font-family="Helvetica,sans-Serif" font-size="10.00"> Kind</text>
</g>
<!-- Node5 -->
<g id="node4" class="node">
<title>Node5</title>
<g id="a_node4"><a xlink:href="classuint16__t.html" target="_top" xlink:title="uint16_t">
<polygon fill="none" stroke="black" points="170.5,-67.5 170.5,-86.5 221.5,-86.5 221.5,-67.5 170.5,-67.5"/>
<text text-anchor="middle" x="196" y="-74.5" font-family="Helvetica,sans-Serif" font-size="10.00">uint16_t</text>
</a>
</g>
</g>
<!-- Node5&#45;&gt;Node2 -->
<g id="edge3" class="edge">
<title>Node5&#45;&gt;Node2</title>
<path fill="none" stroke="#9a32cd" stroke-dasharray="5,2" d="M207.07,-58.7C211.85,-51.87 217.77,-44.2 224,-38 230.99,-31.04 239.89,-24.49 247.21,-19.58"/>
<polygon fill="#9a32cd" stroke="#9a32cd" points="203.99,-57.01 201.33,-67.26 209.8,-60.9 203.99,-57.01"/>
<text text-anchor="middle" x="241" y="-41" font-family="Helvetica,sans-Serif" font-size="10.00"> Ordinal</text>
</g>
<!-- Node6 -->
<g id="node5" class="node">
<title>Node6</title>
<g id="a_node5"><a xlink:href="classuint32__t.html" target="_top" xlink:title="uint32_t">
<polygon fill="none" stroke="black" points="239.5,-67.5 239.5,-86.5 290.5,-86.5 290.5,-67.5 239.5,-67.5"/>
<text text-anchor="middle" x="265" y="-74.5" font-family="Helvetica,sans-Serif" font-size="10.00">uint32_t</text>
</a>
</g>
</g>
<!-- Node6&#45;&gt;Node2 -->
<g id="edge4" class="edge">
<title>Node6&#45;&gt;Node2</title>
<path fill="none" stroke="#9a32cd" stroke-dasharray="5,2" d="M262.67,-56.84C262.41,-54.21 262.17,-51.54 262,-49 261.31,-38.99 261.09,-27.47 261.02,-19.76"/>
<polygon fill="#9a32cd" stroke="#9a32cd" points="259.22,-57.47 263.81,-67.02 266.17,-56.69 259.22,-57.47"/>
<text text-anchor="middle" x="293" y="-41" font-family="Helvetica,sans-Serif" font-size="10.00"> RecordOffset</text>
</g>
<!-- Node7 -->
<g id="node6" class="node">
<title>Node7</title>
<polygon fill="none" stroke="#bfbfbf" points="311.5,-67.5 311.5,-86.5 380.5,-86.5 380.5,-67.5 311.5,-67.5"/>
<text text-anchor="middle" x="346" y="-74.5" font-family="Helvetica,sans-Serif" font-size="10.00">ExportFlags</text>
</g>
<!-- Node7&#45;&gt;Node2 -->
<g id="edge5" class="edge">
<title>Node7&#45;&gt;Node2</title>
<path fill="none" stroke="#9a32cd" stroke-dasharray="5,2" d="M338.57,-57.96C334.99,-51.01 330.13,-43.44 324,-38 314.74,-29.79 302.61,-23.79 291.46,-19.57"/>
<polygon fill="#9a32cd" stroke="#9a32cd" points="335.54,-59.76 342.89,-67.39 341.91,-56.84 335.54,-59.76"/>
<text text-anchor="middle" x="348" y="-41" font-family="Helvetica,sans-Serif" font-size="10.00"> Flags</text>
</g>
<!-- Node8 -->
<g id="node7" class="node">
<title>Node8</title>
<g id="a_node7"><a xlink:href="classllvm_1_1StringRef.html" target="_top" xlink:title="StringRef &#45; Represent a constant reference to a string, i.e. ">
<polygon fill="none" stroke="black" points="399,-67.5 399,-86.5 481,-86.5 481,-67.5 399,-67.5"/>
<text text-anchor="middle" x="440" y="-74.5" font-family="Helvetica,sans-Serif" font-size="10.00">llvm::StringRef</text>
</a>
</g>
</g>
<!-- Node8&#45;&gt;Node2 -->
<g id="edge6" class="edge">
<title>Node8&#45;&gt;Node2</title>
<path fill="none" stroke="#9a32cd" stroke-dasharray="5,2" d="M416.62,-62.29C402.36,-54.36 383.55,-44.67 366,-38 345.77,-30.31 322.52,-24.08 303.06,-19.55"/>
<polygon fill="#9a32cd" stroke="#9a32cd" points="415.27,-65.55 425.7,-67.44 418.73,-59.46 415.27,-65.55"/>
<text text-anchor="middle" x="407" y="-41" font-family="Helvetica,sans-Serif" font-size="10.00"> Name</text>
</g>
<!-- Node9 -->
<g id="node8" class="node">
<title>Node9</title>
<g id="a_node8"><a xlink:href="classsize__t.html" target="_top" xlink:title="size_t">
<polygon fill="none" stroke="black" points="418.5,-134.5 418.5,-153.5 461.5,-153.5 461.5,-134.5 418.5,-134.5"/>
<text text-anchor="middle" x="440" y="-141.5" font-family="Helvetica,sans-Serif" font-size="10.00">size_t</text>
</a>
</g>
</g>
<!-- Node9&#45;&gt;Node8 -->
<g id="edge7" class="edge">
<title>Node9&#45;&gt;Node8</title>
<path fill="none" stroke="#9a32cd" stroke-dasharray="5,2" d="M440,-124.04C440,-111.67 440,-96.12 440,-86.63"/>
<polygon fill="#9a32cd" stroke="#9a32cd" points="436.5,-124.23 440,-134.23 443.5,-124.23 436.5,-124.23"/>
<text text-anchor="middle" x="452.5" y="-108" font-family="Helvetica,sans-Serif" font-size="10.00"> npos</text>
</g>
</g>
</svg>
