<?xml version="1.0" encoding="UTF-8" standalone="no"?>
<!DOCTYPE svg PUBLIC "-//W3C//DTD SVG 1.1//EN"
 "http://www.w3.org/Graphics/SVG/1.1/DTD/svg11.dtd">
<!-- Generated by graphviz version 2.43.0 (0)
 -->
<!-- Title: llvm::RecordRecTy Pages: 1 -->
<svg width="1448pt" height="180pt"
 viewBox="0.00 0.00 1448.00 179.50" xmlns="http://www.w3.org/2000/svg" xmlns:xlink="http://www.w3.org/1999/xlink">
<g id="graph0" class="graph" transform="scale(1 1) rotate(0) translate(4 175.5)">
<title>llvm::RecordRecTy</title>
<!-- Node0 -->
<g id="node1" class="node">
<title>Node0</title>
<polygon fill="#bfbfbf" stroke="black" points="1339,-114 1339,-133 1440,-133 1440,-114 1339,-114"/>
<text text-anchor="middle" x="1389.5" y="-121" font-family="Helvetica,sans-Serif" font-size="10.00">llvm::RecordRecTy</text>
</g>
<!-- Node1 -->
<g id="node2" class="node">
<title>Node1</title>
<g id="a_node2"><a xlink:href="classllvm_1_1RecTy.html" target="_top" xlink:title="llvm::RecTy">
<polygon fill="none" stroke="black" points="1198.5,-152 1198.5,-171 1268.5,-171 1268.5,-152 1198.5,-152"/>
<text text-anchor="middle" x="1233.5" y="-159" font-family="Helvetica,sans-Serif" font-size="10.00">llvm::RecTy</text>
</a>
</g>
</g>
<!-- Node1&#45;&gt;Node0 -->
<g id="edge1" class="edge">
<title>Node1&#45;&gt;Node0</title>
<path fill="none" stroke="midnightblue" d="M1278.64,-150.61C1301.11,-145.06 1328.17,-138.39 1349.81,-133.05"/>
<polygon fill="midnightblue" stroke="midnightblue" points="1277.55,-147.27 1268.68,-153.07 1279.22,-154.07 1277.55,-147.27"/>
</g>
<!-- Node2 -->
<g id="node3" class="node">
<title>Node2</title>
<g id="a_node3"><a xlink:href="classllvm_1_1FoldingSetBase_1_1Node.html" target="_top" xlink:title="Node &#45; This class is used to maintain the singly linked bucket list in a folding set. ">
<polygon fill="none" stroke="black" points="1190.5,-114 1190.5,-133 1276.5,-133 1276.5,-114 1190.5,-114"/>
<text text-anchor="middle" x="1233.5" y="-121" font-family="Helvetica,sans-Serif" font-size="10.00">FoldingSetNode</text>
</a>
</g>
</g>
<!-- Node2&#45;&gt;Node0 -->
<g id="edge2" class="edge">
<title>Node2&#45;&gt;Node0</title>
<path fill="none" stroke="midnightblue" d="M1286.79,-123.5C1303.61,-123.5 1322.19,-123.5 1338.82,-123.5"/>
<polygon fill="midnightblue" stroke="midnightblue" points="1286.58,-120 1276.58,-123.5 1286.58,-127 1286.58,-120"/>
</g>
<!-- Node3 -->
<g id="node4" class="node">
<title>Node3</title>
<g id="a_node4"><a xlink:href="classllvm_1_1TrailingObjects.html" target="_top" xlink:title="llvm::TrailingObjects\l\&lt; RecordRecTy, Record *\&gt;">
<polygon fill="none" stroke="black" points="1165,-64.5 1165,-94.5 1302,-94.5 1302,-64.5 1165,-64.5"/>
<text text-anchor="start" x="1173" y="-82.5" font-family="Helvetica,sans-Serif" font-size="10.00">llvm::TrailingObjects</text>
<text text-anchor="middle" x="1233.5" y="-71.5" font-family="Helvetica,sans-Serif" font-size="10.00">&lt; RecordRecTy, Record *&gt;</text>
</a>
</g>
</g>
<!-- Node3&#45;&gt;Node0 -->
<g id="edge3" class="edge">
<title>Node3&#45;&gt;Node0</title>
<path fill="none" stroke="midnightblue" d="M1296.71,-97.27C1316.63,-102.97 1337.92,-109.05 1354.98,-113.92"/>
<polygon fill="midnightblue" stroke="midnightblue" points="1297.64,-93.9 1287.07,-94.52 1295.72,-100.63 1297.64,-93.9"/>
</g>
<!-- Node4 -->
<g id="node5" class="node">
<title>Node4</title>
<g id="a_node5"><a xlink:href="classllvm_1_1trailing__objects__internal_1_1TrailingObjectsImpl.html" target="_top" xlink:title="llvm::trailing_objects\l_internal::TrailingObjectsImpl\l\&lt; trailing_objects_internal\l::AlignmentCalcHelper\&lt; TrailingTys...\l \&gt;::Alignment, RecordRecTy, TrailingObjects\l\&lt; RecordRecTy, TrailingTys... \&gt;, RecordRecTy,\l TrailingTys... \&gt;">
<polygon fill="none" stroke="black" points="637,-62 637,-147 865,-147 865,-62 637,-62"/>
<text text-anchor="start" x="645" y="-135" font-family="Helvetica,sans-Serif" font-size="10.00">llvm::trailing_objects</text>
<text text-anchor="start" x="645" y="-124" font-family="Helvetica,sans-Serif" font-size="10.00">_internal::TrailingObjectsImpl</text>
<text text-anchor="start" x="645" y="-113" font-family="Helvetica,sans-Serif" font-size="10.00">&lt; trailing_objects_internal</text>
<text text-anchor="start" x="645" y="-102" font-family="Helvetica,sans-Serif" font-size="10.00">::AlignmentCalcHelper&lt; TrailingTys...</text>
<text text-anchor="start" x="645" y="-91" font-family="Helvetica,sans-Serif" font-size="10.00"> &gt;::Alignment, RecordRecTy, TrailingObjects</text>
<text text-anchor="start" x="645" y="-80" font-family="Helvetica,sans-Serif" font-size="10.00">&lt; RecordRecTy, TrailingTys... &gt;, RecordRecTy,</text>
<text text-anchor="middle" x="751" y="-69" font-family="Helvetica,sans-Serif" font-size="10.00"> TrailingTys... &gt;</text>
</a>
</g>
</g>
<!-- Node4&#45;&gt;Node3 -->
<g id="edge4" class="edge">
<title>Node4&#45;&gt;Node3</title>
<path fill="none" stroke="#8b1a1a" d="M875.58,-98.49C953.46,-94.64 1056.12,-89.46 1147,-84.5 1152.79,-84.18 1158.8,-83.85 1164.83,-83.51"/>
<polygon fill="#8b1a1a" stroke="#8b1a1a" points="875.05,-95.01 865.24,-99 875.4,-102 875.05,-95.01"/>
</g>
<!-- Node5 -->
<g id="node6" class="node">
<title>Node5</title>
<g id="a_node6"><a xlink:href="classllvm_1_1trailing__objects__internal_1_1TrailingObjectsImpl.html" target="_top" xlink:title="llvm::trailing_objects\l_internal::TrailingObjectsImpl\l\&lt; Align, BaseTy, TopTrailingObj,\l PrevTy, MoreTys \&gt;">
<polygon fill="none" stroke="black" points="0,-44.5 0,-96.5 159,-96.5 159,-44.5 0,-44.5"/>
<text text-anchor="start" x="8" y="-84.5" font-family="Helvetica,sans-Serif" font-size="10.00">llvm::trailing_objects</text>
<text text-anchor="start" x="8" y="-73.5" font-family="Helvetica,sans-Serif" font-size="10.00">_internal::TrailingObjectsImpl</text>
<text text-anchor="start" x="8" y="-62.5" font-family="Helvetica,sans-Serif" font-size="10.00">&lt; Align, BaseTy, TopTrailingObj,</text>
<text text-anchor="middle" x="79.5" y="-51.5" font-family="Helvetica,sans-Serif" font-size="10.00"> PrevTy, MoreTys &gt;</text>
</a>
</g>
</g>
<!-- Node5&#45;&gt;Node4 -->
<g id="edge5" class="edge">
<title>Node5&#45;&gt;Node4</title>
<path fill="none" stroke="orange" stroke-dasharray="5,2" d="M169.25,-86.63C171.86,-86.95 174.45,-87.24 177,-87.5 336.03,-103.78 521.07,-106.32 636.88,-105.96"/>
<polygon fill="orange" stroke="orange" points="169.47,-83.13 159.1,-85.31 168.57,-90.08 169.47,-83.13"/>
<text text-anchor="start" x="193.5" y="-158.5" font-family="Helvetica,sans-Serif" font-size="10.00"> &lt; trailing_objects</text>
<text text-anchor="start" x="193.5" y="-147.5" font-family="Helvetica,sans-Serif" font-size="10.00">_internal::AlignmentCalcHelper</text>
<text text-anchor="start" x="193.5" y="-136.5" font-family="Helvetica,sans-Serif" font-size="10.00">&lt; TrailingTys... &gt;::Alignment,</text>
<text text-anchor="start" x="193.5" y="-125.5" font-family="Helvetica,sans-Serif" font-size="10.00"> RecordRecTy, TrailingObjects</text>
<text text-anchor="start" x="193.5" y="-114.5" font-family="Helvetica,sans-Serif" font-size="10.00">&lt; RecordRecTy, TrailingTys...</text>
<text text-anchor="middle" x="267.5" y="-103.5" font-family="Helvetica,sans-Serif" font-size="10.00"> &gt;, RecordRecTy, TrailingTys... &gt;</text>
</g>
<!-- Node7 -->
<g id="node8" class="node">
<title>Node7</title>
<g id="a_node8"><a xlink:href="classllvm_1_1trailing__objects__internal_1_1TrailingObjectsImpl.html" target="_top" xlink:title="llvm::trailing_objects\l_internal::TrailingObjectsImpl\l\&lt; trailing_objects_internal\l::AlignmentCalcHelper\&lt; TrailingTys...\l \&gt;::Alignment, BaseTy, TrailingObjects\l\&lt; BaseTy, TrailingTys... \&gt;, BaseTy, TrailingTys... \&gt;">
<polygon fill="none" stroke="black" points="376,-0.5 376,-74.5 619,-74.5 619,-0.5 376,-0.5"/>
<text text-anchor="start" x="384" y="-62.5" font-family="Helvetica,sans-Serif" font-size="10.00">llvm::trailing_objects</text>
<text text-anchor="start" x="384" y="-51.5" font-family="Helvetica,sans-Serif" font-size="10.00">_internal::TrailingObjectsImpl</text>
<text text-anchor="start" x="384" y="-40.5" font-family="Helvetica,sans-Serif" font-size="10.00">&lt; trailing_objects_internal</text>
<text text-anchor="start" x="384" y="-29.5" font-family="Helvetica,sans-Serif" font-size="10.00">::AlignmentCalcHelper&lt; TrailingTys...</text>
<text text-anchor="start" x="384" y="-18.5" font-family="Helvetica,sans-Serif" font-size="10.00"> &gt;::Alignment, BaseTy, TrailingObjects</text>
<text text-anchor="middle" x="497.5" y="-7.5" font-family="Helvetica,sans-Serif" font-size="10.00">&lt; BaseTy, TrailingTys... &gt;, BaseTy, TrailingTys... &gt;</text>
</a>
</g>
</g>
<!-- Node5&#45;&gt;Node7 -->
<g id="edge8" class="edge">
<title>Node5&#45;&gt;Node7</title>
<path fill="none" stroke="orange" stroke-dasharray="5,2" d="M145.99,-40.96C156.19,-37.46 166.74,-34.45 177,-32.5 241.86,-20.19 315.46,-20.4 375.65,-24.16"/>
<polygon fill="orange" stroke="orange" points="144.56,-37.75 136.34,-44.44 146.93,-44.34 144.56,-37.75"/>
<text text-anchor="start" x="177" y="-79.5" font-family="Helvetica,sans-Serif" font-size="10.00"> &lt; trailing_objects</text>
<text text-anchor="start" x="177" y="-68.5" font-family="Helvetica,sans-Serif" font-size="10.00">_internal::AlignmentCalcHelper</text>
<text text-anchor="start" x="177" y="-57.5" font-family="Helvetica,sans-Serif" font-size="10.00">&lt; TrailingTys... &gt;::Alignment,</text>
<text text-anchor="start" x="177" y="-46.5" font-family="Helvetica,sans-Serif" font-size="10.00"> BaseTy, TrailingObjects&lt; BaseTy,</text>
<text text-anchor="middle" x="267.5" y="-35.5" font-family="Helvetica,sans-Serif" font-size="10.00"> TrailingTys... &gt;, BaseTy, TrailingTys... &gt;</text>
</g>
<!-- Node6 -->
<g id="node7" class="node">
<title>Node6</title>
<g id="a_node7"><a xlink:href="classllvm_1_1TrailingObjects.html" target="_top" xlink:title="See the file comment for details on the usage of the TrailingObjects type. ">
<polygon fill="none" stroke="black" points="883,-33.5 883,-63.5 1005,-63.5 1005,-33.5 883,-33.5"/>
<text text-anchor="start" x="891" y="-51.5" font-family="Helvetica,sans-Serif" font-size="10.00">llvm::TrailingObjects</text>
<text text-anchor="middle" x="944" y="-40.5" font-family="Helvetica,sans-Serif" font-size="10.00">&lt; BaseTy, TrailingTys &gt;</text>
</a>
</g>
</g>
<!-- Node6&#45;&gt;Node3 -->
<g id="edge6" class="edge">
<title>Node6&#45;&gt;Node3</title>
<path fill="none" stroke="orange" stroke-dasharray="5,2" d="M1015.35,-56.09C1060.86,-60.99 1119.78,-67.35 1164.76,-72.2"/>
<polygon fill="orange" stroke="orange" points="1015.59,-52.59 1005.27,-55 1014.84,-59.55 1015.59,-52.59"/>
<text text-anchor="middle" x="1085" y="-72.5" font-family="Helvetica,sans-Serif" font-size="10.00"> &lt; RecordRecTy, Record *&gt;</text>
</g>
<!-- Node7&#45;&gt;Node6 -->
<g id="edge7" class="edge">
<title>Node7&#45;&gt;Node6</title>
<path fill="none" stroke="#8b1a1a" d="M629.21,-40.73C713.18,-42.81 818.26,-45.41 883,-47.02"/>
<polygon fill="#8b1a1a" stroke="#8b1a1a" points="629.16,-37.23 619.08,-40.48 628.99,-44.23 629.16,-37.23"/>
</g>
</g>
</svg>
