<?xml version="1.0" encoding="UTF-8" standalone="no"?>
<!DOCTYPE svg PUBLIC "-//W3C//DTD SVG 1.1//EN"
 "http://www.w3.org/Graphics/SVG/1.1/DTD/svg11.dtd">
<!-- Generated by graphviz version 2.43.0 (0)
 -->
<!-- Title: llvm::CSEConfigBase Pages: 1 -->
<svg width="282pt" height="84pt"
 viewBox="0.00 0.00 282.00 84.00" xmlns="http://www.w3.org/2000/svg" xmlns:xlink="http://www.w3.org/1999/xlink">
<g id="graph0" class="graph" transform="scale(1 1) rotate(0) translate(4 80)">
<title>llvm::CSEConfigBase</title>
<!-- Node0 -->
<g id="node1" class="node">
<title>Node0</title>
<polygon fill="#bfbfbf" stroke="black" points="91.5,-56.5 91.5,-75.5 204.5,-75.5 204.5,-56.5 91.5,-56.5"/>
<text text-anchor="middle" x="148" y="-63.5" font-family="Helvetica,sans-Serif" font-size="10.00">llvm::CSEConfigBase</text>
</g>
<!-- Node1 -->
<g id="node2" class="node">
<title>Node1</title>
<g id="a_node2"><a xlink:href="classllvm_1_1CSEConfigConstantOnly.html" target="_top" xlink:title="llvm::CSEConfigConstantOnly">
<polygon fill="none" stroke="black" points="0,-0.5 0,-19.5 150,-19.5 150,-0.5 0,-0.5"/>
<text text-anchor="middle" x="75" y="-7.5" font-family="Helvetica,sans-Serif" font-size="10.00">llvm::CSEConfigConstantOnly</text>
</a>
</g>
</g>
<!-- Node0&#45;&gt;Node1 -->
<g id="edge1" class="edge">
<title>Node0&#45;&gt;Node1</title>
<path fill="none" stroke="midnightblue" d="M127.86,-50.1C114.72,-40.38 98.02,-28.03 86.94,-19.83"/>
<polygon fill="midnightblue" stroke="midnightblue" points="126.15,-53.19 136.27,-56.32 130.31,-47.56 126.15,-53.19"/>
</g>
<!-- Node2 -->
<g id="node3" class="node">
<title>Node2</title>
<g id="a_node3"><a xlink:href="classllvm_1_1CSEConfigFull.html" target="_top" xlink:title="llvm::CSEConfigFull">
<polygon fill="none" stroke="black" points="168,-0.5 168,-19.5 274,-19.5 274,-0.5 168,-0.5"/>
<text text-anchor="middle" x="221" y="-7.5" font-family="Helvetica,sans-Serif" font-size="10.00">llvm::CSEConfigFull</text>
</a>
</g>
</g>
<!-- Node0&#45;&gt;Node2 -->
<g id="edge2" class="edge">
<title>Node0&#45;&gt;Node2</title>
<path fill="none" stroke="midnightblue" d="M168.14,-50.1C181.28,-40.38 197.98,-28.03 209.06,-19.83"/>
<polygon fill="midnightblue" stroke="midnightblue" points="165.69,-47.56 159.73,-56.32 169.85,-53.19 165.69,-47.56"/>
</g>
</g>
</svg>
