<?xml version="1.0" encoding="UTF-8" standalone="no"?>
<!DOCTYPE svg PUBLIC "-//W3C//DTD SVG 1.1//EN"
 "http://www.w3.org/Graphics/SVG/1.1/DTD/svg11.dtd">
<!-- Generated by graphviz version 2.43.0 (0)
 -->
<!-- Title: llvm::MCRegisterInfo::DiffListIterator Pages: 1 -->
<svg width="421pt" height="95pt"
 viewBox="0.00 0.00 421.00 95.00" xmlns="http://www.w3.org/2000/svg" xmlns:xlink="http://www.w3.org/1999/xlink">
<g id="graph0" class="graph" transform="scale(1 1) rotate(0) translate(4 91)">
<title>llvm::MCRegisterInfo::DiffListIterator</title>
<!-- Node0 -->
<g id="node1" class="node">
<title>Node0</title>
<polygon fill="#bfbfbf" stroke="black" points="147.5,-56.5 147.5,-86.5 257.5,-86.5 257.5,-56.5 147.5,-56.5"/>
<text text-anchor="start" x="155.5" y="-74.5" font-family="Helvetica,sans-Serif" font-size="10.00">llvm::MCRegisterInfo</text>
<text text-anchor="middle" x="202.5" y="-63.5" font-family="Helvetica,sans-Serif" font-size="10.00">::DiffListIterator</text>
</g>
<!-- Node1 -->
<g id="node2" class="node">
<title>Node1</title>
<g id="a_node2"><a xlink:href="classllvm_1_1MCRegUnitIterator.html" target="_top" xlink:title="llvm::MCRegUnitIterator">
<polygon fill="none" stroke="black" points="0,-0.5 0,-19.5 123,-19.5 123,-0.5 0,-0.5"/>
<text text-anchor="middle" x="61.5" y="-7.5" font-family="Helvetica,sans-Serif" font-size="10.00">llvm::MCRegUnitIterator</text>
</a>
</g>
</g>
<!-- Node0&#45;&gt;Node1 -->
<g id="edge1" class="edge">
<title>Node0&#45;&gt;Node1</title>
<path fill="none" stroke="midnightblue" d="M159.54,-52.37C133.8,-41.51 102.25,-28.2 82.02,-19.66"/>
<polygon fill="midnightblue" stroke="midnightblue" points="158.51,-55.74 169.08,-56.4 161.23,-49.29 158.51,-55.74"/>
</g>
<!-- Node2 -->
<g id="node3" class="node">
<title>Node2</title>
<g id="a_node3"><a xlink:href="classllvm_1_1MCSubRegIterator.html" target="_top" xlink:title="MCSubRegIterator enumerates all sub&#45;registers of Reg. ">
<polygon fill="none" stroke="black" points="141.5,-0.5 141.5,-19.5 263.5,-19.5 263.5,-0.5 141.5,-0.5"/>
<text text-anchor="middle" x="202.5" y="-7.5" font-family="Helvetica,sans-Serif" font-size="10.00">llvm::MCSubRegIterator</text>
</a>
</g>
</g>
<!-- Node0&#45;&gt;Node2 -->
<g id="edge2" class="edge">
<title>Node0&#45;&gt;Node2</title>
<path fill="none" stroke="midnightblue" d="M202.5,-46.29C202.5,-36.86 202.5,-26.65 202.5,-19.66"/>
<polygon fill="midnightblue" stroke="midnightblue" points="199,-46.4 202.5,-56.4 206,-46.4 199,-46.4"/>
</g>
<!-- Node3 -->
<g id="node4" class="node">
<title>Node3</title>
<g id="a_node4"><a xlink:href="classllvm_1_1MCSuperRegIterator.html" target="_top" xlink:title="MCSuperRegIterator enumerates all super&#45;registers of Reg. ">
<polygon fill="none" stroke="black" points="282,-0.5 282,-19.5 413,-19.5 413,-0.5 282,-0.5"/>
<text text-anchor="middle" x="347.5" y="-7.5" font-family="Helvetica,sans-Serif" font-size="10.00">llvm::MCSuperRegIterator</text>
</a>
</g>
</g>
<!-- Node0&#45;&gt;Node3 -->
<g id="edge3" class="edge">
<title>Node0&#45;&gt;Node3</title>
<path fill="none" stroke="midnightblue" d="M246.33,-52.52C272.86,-41.63 305.5,-28.23 326.4,-19.66"/>
<polygon fill="midnightblue" stroke="midnightblue" points="244.79,-49.37 236.86,-56.4 247.44,-55.84 244.79,-49.37"/>
</g>
</g>
</svg>
