<?xml version="1.0" encoding="UTF-8" standalone="no"?>
<!DOCTYPE svg PUBLIC "-//W3C//DTD SVG 1.1//EN"
 "http://www.w3.org/Graphics/SVG/1.1/DTD/svg11.dtd">
<!-- Generated by graphviz version 2.43.0 (0)
 -->
<!-- Title: llvm::msf::WritableMappedBlockStream Pages: 1 -->
<svg width="144pt" height="151pt"
 viewBox="0.00 0.00 144.00 151.00" xmlns="http://www.w3.org/2000/svg" xmlns:xlink="http://www.w3.org/1999/xlink">
<g id="graph0" class="graph" transform="scale(1 1) rotate(0) translate(4 147)">
<title>llvm::msf::WritableMappedBlockStream</title>
<!-- Node3 -->
<g id="node1" class="node">
<title>Node3</title>
<polygon fill="#bfbfbf" stroke="black" points="1,-0.5 1,-30.5 135,-30.5 135,-0.5 1,-0.5"/>
<text text-anchor="start" x="9" y="-18.5" font-family="Helvetica,sans-Serif" font-size="10.00">llvm::msf::WritableMapped</text>
<text text-anchor="middle" x="68" y="-7.5" font-family="Helvetica,sans-Serif" font-size="10.00">BlockStream</text>
</g>
<!-- Node4 -->
<g id="node2" class="node">
<title>Node4</title>
<g id="a_node2"><a xlink:href="classllvm_1_1WritableBinaryStream.html" target="_top" xlink:title="A BinaryStream which can be read from as well as written to. ">
<polygon fill="none" stroke="black" points="0,-67.5 0,-86.5 136,-86.5 136,-67.5 0,-67.5"/>
<text text-anchor="middle" x="68" y="-74.5" font-family="Helvetica,sans-Serif" font-size="10.00">llvm::WritableBinaryStream</text>
</a>
</g>
</g>
<!-- Node4&#45;&gt;Node3 -->
<g id="edge1" class="edge">
<title>Node4&#45;&gt;Node3</title>
<path fill="none" stroke="midnightblue" d="M68,-57.23C68,-48.59 68,-38.5 68,-30.52"/>
<polygon fill="midnightblue" stroke="midnightblue" points="64.5,-57.48 68,-67.48 71.5,-57.48 64.5,-57.48"/>
</g>
<!-- Node5 -->
<g id="node3" class="node">
<title>Node5</title>
<g id="a_node3"><a xlink:href="classllvm_1_1BinaryStream.html" target="_top" xlink:title="An interface for accessing data in a stream&#45;like format, but which discourages copying. ">
<polygon fill="none" stroke="black" points="18,-123.5 18,-142.5 118,-142.5 118,-123.5 18,-123.5"/>
<text text-anchor="middle" x="68" y="-130.5" font-family="Helvetica,sans-Serif" font-size="10.00">llvm::BinaryStream</text>
</a>
</g>
</g>
<!-- Node5&#45;&gt;Node4 -->
<g id="edge2" class="edge">
<title>Node5&#45;&gt;Node4</title>
<path fill="none" stroke="midnightblue" d="M68,-112.8C68,-103.91 68,-93.78 68,-86.75"/>
<polygon fill="midnightblue" stroke="midnightblue" points="64.5,-113.08 68,-123.08 71.5,-113.08 64.5,-113.08"/>
</g>
</g>
</svg>
