<?xml version="1.0" encoding="UTF-8" standalone="no"?>
<!DOCTYPE svg PUBLIC "-//W3C//DTD SVG 1.1//EN"
 "http://www.w3.org/Graphics/SVG/1.1/DTD/svg11.dtd">
<!-- Generated by graphviz version 2.43.0 (0)
 -->
<!-- Title: llvm::SmallVectorBase Pages: 1 -->
<svg width="914pt" height="2008pt"
 viewBox="0.00 0.00 914.00 2008.00" xmlns="http://www.w3.org/2000/svg" xmlns:xlink="http://www.w3.org/1999/xlink">
<g id="graph0" class="graph" transform="scale(1 1) rotate(0) translate(4 2004)">
<title>llvm::SmallVectorBase</title>
<!-- Node0 -->
<g id="node1" class="node">
<title>Node0</title>
<polygon fill="#bfbfbf" stroke="black" points="0,-46 0,-65 116,-65 116,-46 0,-46"/>
<text text-anchor="middle" x="58" y="-53" font-family="Helvetica,sans-Serif" font-size="10.00">llvm::SmallVectorBase</text>
</g>
<!-- Node1 -->
<g id="node2" class="node">
<title>Node1</title>
<g id="a_node2"><a xlink:href="classllvm_1_1SmallVectorTemplateCommon.html" target="_top" xlink:title="This is the part of SmallVectorTemplateBase which does not depend on whether the type T is a POD...">
<polygon fill="none" stroke="black" points="153,-72.5 153,-102.5 287,-102.5 287,-72.5 153,-72.5"/>
<text text-anchor="start" x="161" y="-90.5" font-family="Helvetica,sans-Serif" font-size="10.00">llvm::SmallVectorTemplate</text>
<text text-anchor="middle" x="220" y="-79.5" font-family="Helvetica,sans-Serif" font-size="10.00">Common&lt; T, typename &gt;</text>
</a>
</g>
</g>
<!-- Node0&#45;&gt;Node1 -->
<g id="edge1" class="edge">
<title>Node0&#45;&gt;Node1</title>
<path fill="none" stroke="midnightblue" d="M116.7,-67.04C128.47,-69.39 140.93,-71.89 152.96,-74.29"/>
<polygon fill="midnightblue" stroke="midnightblue" points="117.06,-63.54 106.57,-65.01 115.69,-70.41 117.06,-63.54"/>
</g>
<!-- Node2 -->
<g id="node3" class="node">
<title>Node2</title>
<g id="a_node3"><a xlink:href="classllvm_1_1SmallVectorTemplateCommon.html" target="_top" xlink:title="llvm::SmallVectorTemplate\lCommon\&lt; T \&gt;">
<polygon fill="none" stroke="black" points="351,-44.5 351,-74.5 485,-74.5 485,-44.5 351,-44.5"/>
<text text-anchor="start" x="359" y="-62.5" font-family="Helvetica,sans-Serif" font-size="10.00">llvm::SmallVectorTemplate</text>
<text text-anchor="middle" x="418" y="-51.5" font-family="Helvetica,sans-Serif" font-size="10.00">Common&lt; T &gt;</text>
</a>
</g>
</g>
<!-- Node0&#45;&gt;Node2 -->
<g id="edge50" class="edge">
<title>Node0&#45;&gt;Node2</title>
<path fill="none" stroke="midnightblue" d="M126.16,-56.25C190.5,-56.97 287,-58.05 350.96,-58.76"/>
<polygon fill="midnightblue" stroke="midnightblue" points="126.16,-52.75 116.12,-56.14 126.08,-59.75 126.16,-52.75"/>
</g>
<!-- Node1&#45;&gt;Node2 -->
<g id="edge2" class="edge">
<title>Node1&#45;&gt;Node2</title>
<path fill="none" stroke="orange" stroke-dasharray="5,2" d="M297.35,-76.59C315.02,-74.07 333.68,-71.4 350.87,-68.95"/>
<polygon fill="orange" stroke="orange" points="296.49,-73.18 287.08,-78.06 297.48,-80.11 296.49,-73.18"/>
<text text-anchor="middle" x="319" y="-77.5" font-family="Helvetica,sans-Serif" font-size="10.00"> &lt; T &gt;</text>
</g>
<!-- Node3 -->
<g id="node4" class="node">
<title>Node3</title>
<g id="a_node4"><a xlink:href="classllvm_1_1SmallVectorTemplateBase.html" target="_top" xlink:title="SmallVectorTemplateBase&lt;TriviallyCopyable = false&gt; &#45; This is where we put method implementations that...">
<polygon fill="none" stroke="red" points="522,-1052.5 522,-1082.5 656,-1082.5 656,-1052.5 522,-1052.5"/>
<text text-anchor="start" x="530" y="-1070.5" font-family="Helvetica,sans-Serif" font-size="10.00">llvm::SmallVectorTemplate</text>
<text text-anchor="middle" x="589" y="-1059.5" font-family="Helvetica,sans-Serif" font-size="10.00">Base&lt; T, bool &gt;</text>
</a>
</g>
</g>
<!-- Node2&#45;&gt;Node3 -->
<g id="edge3" class="edge">
<title>Node2&#45;&gt;Node3</title>
<path fill="none" stroke="midnightblue" d="M423.2,-84.54C447.19,-227.62 566.53,-939.41 585.47,-1052.38"/>
<polygon fill="midnightblue" stroke="midnightblue" points="426.63,-83.82 421.52,-74.53 419.72,-84.97 426.63,-83.82"/>
</g>
<!-- Node828 -->
<g id="node48" class="node">
<title>Node828</title>
<g id="a_node48"><a xlink:href="classllvm_1_1SmallVectorTemplateBase.html" target="_top" xlink:title="llvm::SmallVectorTemplate\lBase\&lt; T \&gt;">
<polygon fill="none" stroke="red" points="746,-44.5 746,-74.5 880,-74.5 880,-44.5 746,-44.5"/>
<text text-anchor="start" x="754" y="-62.5" font-family="Helvetica,sans-Serif" font-size="10.00">llvm::SmallVectorTemplate</text>
<text text-anchor="middle" x="813" y="-51.5" font-family="Helvetica,sans-Serif" font-size="10.00">Base&lt; T &gt;</text>
</a>
</g>
</g>
<!-- Node2&#45;&gt;Node828 -->
<g id="edge49" class="edge">
<title>Node2&#45;&gt;Node828</title>
<path fill="none" stroke="midnightblue" d="M495.25,-59.5C568.04,-59.5 676.6,-59.5 745.83,-59.5"/>
<polygon fill="midnightblue" stroke="midnightblue" points="495.22,-56 485.22,-59.5 495.22,-63 495.22,-56"/>
</g>
<!-- Node1202 -->
<g id="node49" class="node">
<title>Node1202</title>
<g id="a_node49"><a xlink:href="classllvm_1_1SmallVectorTemplateBase_3_01T_00_01true_01_4.html" target="_top" xlink:title="SmallVectorTemplateBase&lt;TriviallyCopyable = true&gt; &#45; This is where we put method implementations that ...">
<polygon fill="none" stroke="black" points="522,-0.5 522,-30.5 656,-30.5 656,-0.5 522,-0.5"/>
<text text-anchor="start" x="530" y="-18.5" font-family="Helvetica,sans-Serif" font-size="10.00">llvm::SmallVectorTemplate</text>
<text text-anchor="middle" x="589" y="-7.5" font-family="Helvetica,sans-Serif" font-size="10.00">Base&lt; T, true &gt;</text>
</a>
</g>
</g>
<!-- Node2&#45;&gt;Node1202 -->
<g id="edge48" class="edge">
<title>Node2&#45;&gt;Node1202</title>
<path fill="none" stroke="midnightblue" d="M486.58,-41.91C501.05,-38.14 516.22,-34.19 530.29,-30.53"/>
<polygon fill="midnightblue" stroke="midnightblue" points="485.48,-38.57 476.69,-44.48 487.25,-45.35 485.48,-38.57"/>
</g>
<!-- Node4 -->
<g id="node5" class="node">
<title>Node4</title>
<g id="a_node5"><a xlink:href="classllvm_1_1SmallVectorImpl.html" target="_top" xlink:title="SmallVectorImpl\&lt; Abstract\lAttribute * \&gt;">
<polygon fill="none" stroke="red" points="746,-1969.5 746,-1999.5 880,-1999.5 880,-1969.5 746,-1969.5"/>
<text text-anchor="start" x="754" y="-1987.5" font-family="Helvetica,sans-Serif" font-size="10.00">SmallVectorImpl&lt; Abstract</text>
<text text-anchor="middle" x="813" y="-1976.5" font-family="Helvetica,sans-Serif" font-size="10.00">Attribute * &gt;</text>
</a>
</g>
</g>
<!-- Node3&#45;&gt;Node4 -->
<g id="edge4" class="edge">
<title>Node3&#45;&gt;Node4</title>
<path fill="none" stroke="midnightblue" d="M591.1,-1092.71C596.6,-1213.32 622.87,-1731.93 674,-1884.5 686.55,-1921.94 688.35,-1936.89 720,-1960.5 727.67,-1966.22 736.59,-1970.59 745.8,-1973.91"/>
<polygon fill="midnightblue" stroke="midnightblue" points="594.59,-1092.43 590.65,-1082.6 587.6,-1092.75 594.59,-1092.43"/>
</g>
<!-- Node6 -->
<g id="node6" class="node">
<title>Node6</title>
<g id="a_node6"><a xlink:href="classllvm_1_1SmallVectorImpl.html" target="_top" xlink:title="SmallVectorImpl\&lt; Address\lEntry \&gt;">
<polygon fill="none" stroke="red" points="746,-1920.5 746,-1950.5 880,-1950.5 880,-1920.5 746,-1920.5"/>
<text text-anchor="start" x="754" y="-1938.5" font-family="Helvetica,sans-Serif" font-size="10.00">SmallVectorImpl&lt; Address</text>
<text text-anchor="middle" x="813" y="-1927.5" font-family="Helvetica,sans-Serif" font-size="10.00">Entry &gt;</text>
</a>
</g>
</g>
<!-- Node3&#45;&gt;Node6 -->
<g id="edge5" class="edge">
<title>Node3&#45;&gt;Node6</title>
<path fill="none" stroke="midnightblue" d="M591.02,-1092.69C596.01,-1209.93 619.92,-1702.56 674,-1845.5 686.52,-1878.6 690.99,-1890.22 720,-1910.5 727.73,-1915.91 736.58,-1920.14 745.67,-1923.47"/>
<polygon fill="midnightblue" stroke="midnightblue" points="594.51,-1092.38 590.59,-1082.54 587.51,-1092.67 594.51,-1092.38"/>
</g>
<!-- Node8 -->
<g id="node7" class="node">
<title>Node8</title>
<g id="a_node7"><a xlink:href="classllvm_1_1SmallVectorImpl.html" target="_top" xlink:title="SmallVectorImpl\&lt; AllocaInfo \&gt;">
<polygon fill="none" stroke="red" points="738,-1882 738,-1901 888,-1901 888,-1882 738,-1882"/>
<text text-anchor="middle" x="813" y="-1889" font-family="Helvetica,sans-Serif" font-size="10.00">SmallVectorImpl&lt; AllocaInfo &gt;</text>
</a>
</g>
</g>
<!-- Node3&#45;&gt;Node8 -->
<g id="edge6" class="edge">
<title>Node3&#45;&gt;Node8</title>
<path fill="none" stroke="midnightblue" d="M591.21,-1092.85C596.91,-1206.71 622.92,-1671.17 674,-1806.5 686.63,-1839.95 690.15,-1852.82 720,-1872.5 725.86,-1876.36 732.34,-1879.46 739.07,-1881.95"/>
<polygon fill="midnightblue" stroke="midnightblue" points="594.7,-1092.48 590.71,-1082.67 587.71,-1092.83 594.7,-1092.48"/>
</g>
<!-- Node10 -->
<g id="node8" class="node">
<title>Node10</title>
<g id="a_node8"><a xlink:href="classllvm_1_1SmallVectorImpl.html" target="_top" xlink:title="SmallVectorImpl\&lt; AnalysisID \&gt;">
<polygon fill="none" stroke="red" points="735.5,-1844 735.5,-1863 890.5,-1863 890.5,-1844 735.5,-1844"/>
<text text-anchor="middle" x="813" y="-1851" font-family="Helvetica,sans-Serif" font-size="10.00">SmallVectorImpl&lt; AnalysisID &gt;</text>
</a>
</g>
</g>
<!-- Node3&#45;&gt;Node10 -->
<g id="edge7" class="edge">
<title>Node3&#45;&gt;Node10</title>
<path fill="none" stroke="midnightblue" d="M591.44,-1092.86C597.95,-1202.83 626.33,-1638.77 674,-1766.5 686.76,-1800.68 689.68,-1814.2 720,-1834.5 725.69,-1838.31 731.99,-1841.38 738.55,-1843.85"/>
<polygon fill="midnightblue" stroke="midnightblue" points="594.93,-1092.48 590.85,-1082.7 587.94,-1092.89 594.93,-1092.48"/>
</g>
<!-- Node14 -->
<g id="node9" class="node">
<title>Node14</title>
<g id="a_node9"><a xlink:href="classllvm_1_1SmallVectorImpl.html" target="_top" xlink:title="SmallVectorImpl\&lt; Arg * \&gt;">
<polygon fill="none" stroke="red" points="749,-1806 749,-1825 877,-1825 877,-1806 749,-1806"/>
<text text-anchor="middle" x="813" y="-1813" font-family="Helvetica,sans-Serif" font-size="10.00">SmallVectorImpl&lt; Arg * &gt;</text>
</a>
</g>
</g>
<!-- Node3&#45;&gt;Node14 -->
<g id="edge8" class="edge">
<title>Node3&#45;&gt;Node14</title>
<path fill="none" stroke="midnightblue" d="M589.32,-1092.92C587.73,-1182.46 589.15,-1490.49 674,-1724.5 686.94,-1760.2 688.72,-1774.97 720,-1796.5 728.6,-1802.42 738.65,-1806.57 748.88,-1809.46"/>
<polygon fill="midnightblue" stroke="midnightblue" points="592.82,-1092.94 589.53,-1082.87 585.82,-1092.8 592.82,-1092.94"/>
</g>
<!-- Node16 -->
<g id="node10" class="node">
<title>Node16</title>
<g id="a_node10"><a xlink:href="classllvm_1_1SmallVectorImpl.html" target="_top" xlink:title="SmallVectorImpl\&lt; Attachment \&gt;">
<polygon fill="none" stroke="red" points="734.5,-1768 734.5,-1787 891.5,-1787 891.5,-1768 734.5,-1768"/>
<text text-anchor="middle" x="813" y="-1775" font-family="Helvetica,sans-Serif" font-size="10.00">SmallVectorImpl&lt; Attachment &gt;</text>
</a>
</g>
</g>
<!-- Node3&#45;&gt;Node16 -->
<g id="edge9" class="edge">
<title>Node3&#45;&gt;Node16</title>
<path fill="none" stroke="midnightblue" d="M589.99,-1092.7C590.68,-1177.81 598.85,-1461.43 674,-1679.5 687.24,-1717.91 687.02,-1734.77 720,-1758.5 725.3,-1762.31 731.18,-1765.39 737.35,-1767.88"/>
<polygon fill="midnightblue" stroke="midnightblue" points="593.49,-1092.66 589.94,-1082.68 586.49,-1092.7 593.49,-1092.66"/>
</g>
<!-- Node18 -->
<g id="node11" class="node">
<title>Node18</title>
<g id="a_node11"><a xlink:href="classllvm_1_1SmallVectorImpl.html" target="_top" xlink:title="SmallVectorImpl\&lt; Attribute\lSpec \&gt;">
<polygon fill="none" stroke="red" points="746,-1718.5 746,-1748.5 880,-1748.5 880,-1718.5 746,-1718.5"/>
<text text-anchor="start" x="754" y="-1736.5" font-family="Helvetica,sans-Serif" font-size="10.00">SmallVectorImpl&lt; Attribute</text>
<text text-anchor="middle" x="813" y="-1725.5" font-family="Helvetica,sans-Serif" font-size="10.00">Spec &gt;</text>
</a>
</g>
</g>
<!-- Node3&#45;&gt;Node18 -->
<g id="edge10" class="edge">
<title>Node3&#45;&gt;Node18</title>
<path fill="none" stroke="midnightblue" d="M589.88,-1092.75C590.29,-1174.53 597.83,-1438.4 674,-1638.5 687.24,-1673.29 689.86,-1686.65 720,-1708.5 727.77,-1714.14 736.74,-1718.5 745.97,-1721.88"/>
<polygon fill="midnightblue" stroke="midnightblue" points="593.38,-1092.65 589.87,-1082.65 586.38,-1092.66 593.38,-1092.65"/>
</g>
<!-- Node20 -->
<g id="node12" class="node">
<title>Node20</title>
<g id="a_node12"><a xlink:href="classllvm_1_1SmallVectorImpl.html" target="_top" xlink:title="SmallVectorImpl\&lt; BasicBlock * \&gt;">
<polygon fill="none" stroke="red" points="731.5,-1680 731.5,-1699 894.5,-1699 894.5,-1680 731.5,-1680"/>
<text text-anchor="middle" x="813" y="-1687" font-family="Helvetica,sans-Serif" font-size="10.00">SmallVectorImpl&lt; BasicBlock * &gt;</text>
</a>
</g>
</g>
<!-- Node3&#45;&gt;Node20 -->
<g id="edge11" class="edge">
<title>Node3&#45;&gt;Node20</title>
<path fill="none" stroke="midnightblue" d="M590.62,-1092.95C593.22,-1170.61 606.56,-1410.43 674,-1594.5 687.58,-1631.57 687.75,-1647.72 720,-1670.5 725.46,-1674.36 731.53,-1677.47 737.88,-1679.97"/>
<polygon fill="midnightblue" stroke="midnightblue" points="594.11,-1092.59 590.31,-1082.7 587.11,-1092.8 594.11,-1092.59"/>
</g>
<!-- Node22 -->
<g id="node13" class="node">
<title>Node22</title>
<g id="a_node13"><a xlink:href="classllvm_1_1SmallVectorImpl.html" target="_top" xlink:title="SmallVectorImpl\&lt; BitTest\lCase \&gt;">
<polygon fill="none" stroke="red" points="748.5,-1630.5 748.5,-1660.5 877.5,-1660.5 877.5,-1630.5 748.5,-1630.5"/>
<text text-anchor="start" x="756.5" y="-1648.5" font-family="Helvetica,sans-Serif" font-size="10.00">SmallVectorImpl&lt; BitTest</text>
<text text-anchor="middle" x="813" y="-1637.5" font-family="Helvetica,sans-Serif" font-size="10.00">Case &gt;</text>
</a>
</g>
</g>
<!-- Node3&#45;&gt;Node22 -->
<g id="edge12" class="edge">
<title>Node3&#45;&gt;Node22</title>
<path fill="none" stroke="midnightblue" d="M590.32,-1092.89C592.07,-1167.34 603.31,-1390.41 674,-1557.5 687.51,-1589.43 691.44,-1600.85 720,-1620.5 728.45,-1626.32 738.21,-1630.78 748.14,-1634.21"/>
<polygon fill="midnightblue" stroke="midnightblue" points="593.81,-1092.55 590.11,-1082.62 586.81,-1092.69 593.81,-1092.55"/>
</g>
<!-- Node24 -->
<g id="node14" class="node">
<title>Node24</title>
<g id="a_node14"><a xlink:href="classllvm_1_1SmallVectorImpl.html" target="_top" xlink:title="SmallVectorImpl\&lt; BitValue \&gt;">
<polygon fill="none" stroke="red" points="741.5,-1592 741.5,-1611 884.5,-1611 884.5,-1592 741.5,-1592"/>
<text text-anchor="middle" x="813" y="-1599" font-family="Helvetica,sans-Serif" font-size="10.00">SmallVectorImpl&lt; BitValue &gt;</text>
</a>
</g>
</g>
<!-- Node3&#45;&gt;Node24 -->
<g id="edge13" class="edge">
<title>Node3&#45;&gt;Node24</title>
<path fill="none" stroke="midnightblue" d="M590.8,-1092.78C593.84,-1163.25 608.14,-1366.8 674,-1519.5 687.73,-1551.33 690.85,-1563.74 720,-1582.5 726.45,-1586.65 733.63,-1589.91 741.05,-1592.48"/>
<polygon fill="midnightblue" stroke="midnightblue" points="594.29,-1092.49 590.4,-1082.63 587.3,-1092.76 594.29,-1092.49"/>
</g>
<!-- Node26 -->
<g id="node15" class="node">
<title>Node26</title>
<g id="a_node15"><a xlink:href="classllvm_1_1SmallVectorImpl.html" target="_top" xlink:title="SmallVectorImpl\&lt; Block \&gt;">
<polygon fill="none" stroke="red" points="747.5,-1554 747.5,-1573 878.5,-1573 878.5,-1554 747.5,-1554"/>
<text text-anchor="middle" x="813" y="-1561" font-family="Helvetica,sans-Serif" font-size="10.00">SmallVectorImpl&lt; Block &gt;</text>
</a>
</g>
</g>
<!-- Node3&#45;&gt;Node26 -->
<g id="edge14" class="edge">
<title>Node3&#45;&gt;Node26</title>
<path fill="none" stroke="midnightblue" d="M591.38,-1092.86C595.79,-1159.38 613.02,-1343.25 674,-1481.5 687.99,-1513.22 690.85,-1525.74 720,-1544.5 728.23,-1549.8 737.65,-1553.65 747.26,-1556.46"/>
<polygon fill="midnightblue" stroke="midnightblue" points="594.87,-1092.63 590.76,-1082.87 587.89,-1093.07 594.87,-1092.63"/>
</g>
<!-- Node28 -->
<g id="node16" class="node">
<title>Node28</title>
<g id="a_node16"><a xlink:href="classllvm_1_1SmallVectorImpl.html" target="_top" xlink:title="SmallVectorImpl\&lt; BlockInterference \&gt;">
<polygon fill="none" stroke="red" points="721.5,-1516 721.5,-1535 904.5,-1535 904.5,-1516 721.5,-1516"/>
<text text-anchor="middle" x="813" y="-1523" font-family="Helvetica,sans-Serif" font-size="10.00">SmallVectorImpl&lt; BlockInterference &gt;</text>
</a>
</g>
</g>
<!-- Node3&#45;&gt;Node28 -->
<g id="edge15" class="edge">
<title>Node3&#45;&gt;Node28</title>
<path fill="none" stroke="midnightblue" d="M591.97,-1092.66C597.6,-1154.94 617.19,-1320.23 674,-1444.5 688.27,-1475.71 691.08,-1488.04 720,-1506.5 726.05,-1510.36 732.74,-1513.46 739.66,-1515.93"/>
<polygon fill="midnightblue" stroke="midnightblue" points="595.45,-1092.25 591.1,-1082.59 588.47,-1092.85 595.45,-1092.25"/>
</g>
<!-- Node30 -->
<g id="node17" class="node">
<title>Node30</title>
<g id="a_node17"><a xlink:href="classllvm_1_1SmallVectorImpl.html" target="_top" xlink:title="SmallVectorImpl\&lt; BlockMass \&gt;">
<polygon fill="none" stroke="red" points="735.5,-1478 735.5,-1497 890.5,-1497 890.5,-1478 735.5,-1478"/>
<text text-anchor="middle" x="813" y="-1485" font-family="Helvetica,sans-Serif" font-size="10.00">SmallVectorImpl&lt; BlockMass &gt;</text>
</a>
</g>
</g>
<!-- Node3&#45;&gt;Node30 -->
<g id="edge16" class="edge">
<title>Node3&#45;&gt;Node30</title>
<path fill="none" stroke="midnightblue" d="M592.61,-1092.62C599.41,-1150.75 620.93,-1298.01 674,-1408.5 688.55,-1438.79 691.53,-1450.65 720,-1468.5 726.08,-1472.31 732.79,-1475.38 739.73,-1477.84"/>
<polygon fill="midnightblue" stroke="midnightblue" points="596.07,-1092.07 591.48,-1082.53 589.12,-1092.86 596.07,-1092.07"/>
</g>
<!-- Node32 -->
<g id="node18" class="node">
<title>Node32</title>
<g id="a_node18"><a xlink:href="classllvm_1_1SmallVectorImpl.html" target="_top" xlink:title="SmallVectorImpl\&lt; BlockNode \&gt;">
<polygon fill="none" stroke="red" points="735.5,-1440 735.5,-1459 890.5,-1459 890.5,-1440 735.5,-1440"/>
<text text-anchor="middle" x="813" y="-1447" font-family="Helvetica,sans-Serif" font-size="10.00">SmallVectorImpl&lt; BlockNode &gt;</text>
</a>
</g>
</g>
<!-- Node3&#45;&gt;Node32 -->
<g id="edge17" class="edge">
<title>Node3&#45;&gt;Node32</title>
<path fill="none" stroke="midnightblue" d="M593.34,-1092.66C601.24,-1146.63 624.3,-1276.48 674,-1373.5 688.84,-1402.47 692.21,-1413.55 720,-1430.5 726.27,-1434.32 733.17,-1437.39 740.3,-1439.84"/>
<polygon fill="midnightblue" stroke="midnightblue" points="596.78,-1092.03 591.92,-1082.62 589.85,-1093.02 596.78,-1092.03"/>
</g>
<!-- Node34 -->
<g id="node19" class="node">
<title>Node34</title>
<g id="a_node19"><a xlink:href="classllvm_1_1SmallVectorImpl.html" target="_top" xlink:title="SmallVectorImpl\&lt; BlockT * \&gt;">
<polygon fill="none" stroke="red" points="741,-1402 741,-1421 885,-1421 885,-1402 741,-1402"/>
<text text-anchor="middle" x="813" y="-1409" font-family="Helvetica,sans-Serif" font-size="10.00">SmallVectorImpl&lt; BlockT * &gt;</text>
</a>
</g>
</g>
<!-- Node3&#45;&gt;Node34 -->
<g id="edge18" class="edge">
<title>Node3&#45;&gt;Node34</title>
<path fill="none" stroke="midnightblue" d="M594.01,-1092.47C602.78,-1142.25 626.75,-1256.3 674,-1340.5 689.1,-1367.41 693.3,-1377.03 720,-1392.5 726.63,-1396.34 733.93,-1399.41 741.43,-1401.87"/>
<polygon fill="midnightblue" stroke="midnightblue" points="597.46,-1091.86 592.33,-1082.59 590.56,-1093.03 597.46,-1091.86"/>
</g>
<!-- Node36 -->
<g id="node20" class="node">
<title>Node36</title>
<g id="a_node20"><a xlink:href="classllvm_1_1SmallVectorImpl.html" target="_top" xlink:title="SmallVectorImpl\&lt; bool \&gt;">
<polygon fill="none" stroke="red" points="750.5,-1364 750.5,-1383 875.5,-1383 875.5,-1364 750.5,-1364"/>
<text text-anchor="middle" x="813" y="-1371" font-family="Helvetica,sans-Serif" font-size="10.00">SmallVectorImpl&lt; bool &gt;</text>
</a>
</g>
</g>
<!-- Node3&#45;&gt;Node36 -->
<g id="edge19" class="edge">
<title>Node3&#45;&gt;Node36</title>
<path fill="none" stroke="midnightblue" d="M592.59,-1092.82C600.09,-1151.13 627.54,-1294.5 720,-1354.5 729.03,-1360.36 739.52,-1364.46 750.11,-1367.32"/>
<polygon fill="midnightblue" stroke="midnightblue" points="596.04,-1092.16 591.38,-1082.65 589.09,-1092.99 596.04,-1092.16"/>
</g>
<!-- Node38 -->
<g id="node21" class="node">
<title>Node38</title>
<g id="a_node21"><a xlink:href="classllvm_1_1SmallVectorImpl.html" target="_top" xlink:title="SmallVectorImpl\&lt; BoUpSLP\l::EdgeInfo \&gt;">
<polygon fill="none" stroke="red" points="742.5,-1314.5 742.5,-1344.5 883.5,-1344.5 883.5,-1314.5 742.5,-1314.5"/>
<text text-anchor="start" x="750.5" y="-1332.5" font-family="Helvetica,sans-Serif" font-size="10.00">SmallVectorImpl&lt; BoUpSLP</text>
<text text-anchor="middle" x="813" y="-1321.5" font-family="Helvetica,sans-Serif" font-size="10.00">::EdgeInfo &gt;</text>
</a>
</g>
</g>
<!-- Node3&#45;&gt;Node38 -->
<g id="edge20" class="edge">
<title>Node3&#45;&gt;Node38</title>
<path fill="none" stroke="midnightblue" d="M595.07,-1092.6C606.82,-1143.3 641.14,-1257.11 720,-1304.5 726.95,-1308.68 734.61,-1312.17 742.46,-1315.09"/>
<polygon fill="midnightblue" stroke="midnightblue" points="598.48,-1091.8 592.9,-1082.79 591.65,-1093.31 598.48,-1091.8"/>
</g>
<!-- Node40 -->
<g id="node22" class="node">
<title>Node40</title>
<g id="a_node22"><a xlink:href="classllvm_1_1SmallVectorImpl.html" target="_top" xlink:title="SmallVectorImpl\&lt; ByValInfo \&gt;">
<polygon fill="none" stroke="red" points="738.5,-1276 738.5,-1295 887.5,-1295 887.5,-1276 738.5,-1276"/>
<text text-anchor="middle" x="813" y="-1283" font-family="Helvetica,sans-Serif" font-size="10.00">SmallVectorImpl&lt; ByValInfo &gt;</text>
</a>
</g>
</g>
<!-- Node3&#45;&gt;Node40 -->
<g id="edge21" class="edge">
<title>Node3&#45;&gt;Node40</title>
<path fill="none" stroke="midnightblue" d="M597.58,-1092.37C612.62,-1136.82 650.93,-1228.78 720,-1266.5 727.16,-1270.41 735.03,-1273.52 743.06,-1275.98"/>
<polygon fill="midnightblue" stroke="midnightblue" points="600.83,-1091.06 594.4,-1082.65 594.18,-1093.24 600.83,-1091.06"/>
</g>
<!-- Node42 -->
<g id="node23" class="node">
<title>Node42</title>
<g id="a_node23"><a xlink:href="classllvm_1_1SmallVectorImpl.html" target="_top" xlink:title="SmallVectorImpl\&lt; CallInst * \&gt;">
<polygon fill="none" stroke="red" points="739.5,-1238 739.5,-1257 886.5,-1257 886.5,-1238 739.5,-1238"/>
<text text-anchor="middle" x="813" y="-1245" font-family="Helvetica,sans-Serif" font-size="10.00">SmallVectorImpl&lt; CallInst * &gt;</text>
</a>
</g>
</g>
<!-- Node3&#45;&gt;Node42 -->
<g id="edge22" class="edge">
<title>Node3&#45;&gt;Node42</title>
<path fill="none" stroke="midnightblue" d="M601.53,-1091.62C620.51,-1128.33 662.09,-1197.27 720,-1228.5 727.18,-1232.37 735.06,-1235.45 743.1,-1237.91"/>
<polygon fill="midnightblue" stroke="midnightblue" points="604.61,-1089.95 596.98,-1082.59 598.35,-1093.1 604.61,-1089.95"/>
</g>
<!-- Node44 -->
<g id="node24" class="node">
<title>Node44</title>
<g id="a_node24"><a xlink:href="classllvm_1_1SmallVectorImpl.html" target="_top" xlink:title="SmallVectorImpl\&lt; char \&gt;">
<polygon fill="none" stroke="red" points="750.5,-1200 750.5,-1219 875.5,-1219 875.5,-1200 750.5,-1200"/>
<text text-anchor="middle" x="813" y="-1207" font-family="Helvetica,sans-Serif" font-size="10.00">SmallVectorImpl&lt; char &gt;</text>
</a>
</g>
</g>
<!-- Node3&#45;&gt;Node44 -->
<g id="edge23" class="edge">
<title>Node3&#45;&gt;Node44</title>
<path fill="none" stroke="midnightblue" d="M607.79,-1090.91C630.57,-1119.15 672.81,-1165.89 720,-1190.5 729.4,-1195.4 739.96,-1199.04 750.48,-1201.74"/>
<polygon fill="midnightblue" stroke="midnightblue" points="610.3,-1088.45 601.35,-1082.79 604.82,-1092.8 610.3,-1088.45"/>
</g>
<!-- Node56 -->
<g id="node25" class="node">
<title>Node56</title>
<g id="a_node25"><a xlink:href="classllvm_1_1SmallVectorImpl.html" target="_top" xlink:title="SmallVectorImpl\&lt; CompUnit\lEntry \&gt;">
<polygon fill="none" stroke="red" points="742,-1150.5 742,-1180.5 884,-1180.5 884,-1150.5 742,-1150.5"/>
<text text-anchor="start" x="750" y="-1168.5" font-family="Helvetica,sans-Serif" font-size="10.00">SmallVectorImpl&lt; CompUnit</text>
<text text-anchor="middle" x="813" y="-1157.5" font-family="Helvetica,sans-Serif" font-size="10.00">Entry &gt;</text>
</a>
</g>
</g>
<!-- Node3&#45;&gt;Node56 -->
<g id="edge24" class="edge">
<title>Node3&#45;&gt;Node56</title>
<path fill="none" stroke="midnightblue" d="M621.09,-1088.3C646.72,-1104.67 684.49,-1127.06 720,-1141.5 728.1,-1144.8 736.8,-1147.76 745.48,-1150.38"/>
<polygon fill="midnightblue" stroke="midnightblue" points="622.85,-1085.27 612.56,-1082.78 619.05,-1091.15 622.85,-1085.27"/>
</g>
<!-- Node58 -->
<g id="node26" class="node">
<title>Node58</title>
<g id="a_node26"><a xlink:href="classllvm_1_1SmallVectorImpl.html" target="_top" xlink:title="SmallVectorImpl\&lt; const\l char * \&gt;">
<polygon fill="none" stroke="red" points="752,-1101.5 752,-1131.5 874,-1131.5 874,-1101.5 752,-1101.5"/>
<text text-anchor="start" x="760" y="-1119.5" font-family="Helvetica,sans-Serif" font-size="10.00">SmallVectorImpl&lt; const</text>
<text text-anchor="middle" x="813" y="-1108.5" font-family="Helvetica,sans-Serif" font-size="10.00"> char * &gt;</text>
</a>
</g>
</g>
<!-- Node3&#45;&gt;Node58 -->
<g id="edge25" class="edge">
<title>Node3&#45;&gt;Node58</title>
<path fill="none" stroke="midnightblue" d="M665.8,-1084.23C693.92,-1090.44 725.4,-1097.39 751.93,-1103.24"/>
<polygon fill="midnightblue" stroke="midnightblue" points="666.53,-1080.81 656.01,-1082.07 665.02,-1087.64 666.53,-1080.81"/>
</g>
<!-- Node63 -->
<g id="node27" class="node">
<title>Node63</title>
<g id="a_node27"><a xlink:href="classllvm_1_1SmallVectorImpl.html" target="_top" xlink:title="SmallVectorImpl\&lt; const\l llvm::CallInst * \&gt;">
<polygon fill="none" stroke="red" points="752,-1052.5 752,-1082.5 874,-1082.5 874,-1052.5 752,-1052.5"/>
<text text-anchor="start" x="760" y="-1070.5" font-family="Helvetica,sans-Serif" font-size="10.00">SmallVectorImpl&lt; const</text>
<text text-anchor="middle" x="813" y="-1059.5" font-family="Helvetica,sans-Serif" font-size="10.00"> llvm::CallInst * &gt;</text>
</a>
</g>
</g>
<!-- Node3&#45;&gt;Node63 -->
<g id="edge26" class="edge">
<title>Node3&#45;&gt;Node63</title>
<path fill="none" stroke="midnightblue" d="M666.17,-1067.5C694.19,-1067.5 725.51,-1067.5 751.93,-1067.5"/>
<polygon fill="midnightblue" stroke="midnightblue" points="666.01,-1064 656.01,-1067.5 666.01,-1071 666.01,-1064"/>
</g>
<!-- Node65 -->
<g id="node28" class="node">
<title>Node65</title>
<g id="a_node28"><a xlink:href="classllvm_1_1SmallVectorImpl.html" target="_top" xlink:title="SmallVectorImpl\&lt; const\l llvm::coverage::CoverageSegment * \&gt;">
<polygon fill="none" stroke="red" points="720,-1003.5 720,-1033.5 906,-1033.5 906,-1003.5 720,-1003.5"/>
<text text-anchor="start" x="728" y="-1021.5" font-family="Helvetica,sans-Serif" font-size="10.00">SmallVectorImpl&lt; const</text>
<text text-anchor="middle" x="813" y="-1010.5" font-family="Helvetica,sans-Serif" font-size="10.00"> llvm::coverage::CoverageSegment * &gt;</text>
</a>
</g>
</g>
<!-- Node3&#45;&gt;Node65 -->
<g id="edge27" class="edge">
<title>Node3&#45;&gt;Node65</title>
<path fill="none" stroke="midnightblue" d="M665.93,-1050.74C691.24,-1045.15 719.26,-1038.97 743.94,-1033.52"/>
<polygon fill="midnightblue" stroke="midnightblue" points="665.02,-1047.36 656.01,-1052.93 666.53,-1054.19 665.02,-1047.36"/>
</g>
<!-- Node67 -->
<g id="node29" class="node">
<title>Node67</title>
<g id="a_node29"><a xlink:href="classllvm_1_1SmallVectorImpl.html" target="_top" xlink:title="SmallVectorImpl\&lt; const\l llvm::DICompositeType * \&gt;">
<polygon fill="none" stroke="red" points="743.5,-954.5 743.5,-984.5 882.5,-984.5 882.5,-954.5 743.5,-954.5"/>
<text text-anchor="start" x="751.5" y="-972.5" font-family="Helvetica,sans-Serif" font-size="10.00">SmallVectorImpl&lt; const</text>
<text text-anchor="middle" x="813" y="-961.5" font-family="Helvetica,sans-Serif" font-size="10.00"> llvm::DICompositeType * &gt;</text>
</a>
</g>
</g>
<!-- Node3&#45;&gt;Node67 -->
<g id="edge28" class="edge">
<title>Node3&#45;&gt;Node67</title>
<path fill="none" stroke="midnightblue" d="M621.64,-1046.81C647.3,-1030.76 684.86,-1008.88 720,-994.5 729.04,-990.8 738.8,-987.48 748.46,-984.56"/>
<polygon fill="midnightblue" stroke="midnightblue" points="619.66,-1043.92 613.08,-1052.22 623.4,-1049.83 619.66,-1043.92"/>
</g>
<!-- Node69 -->
<g id="node30" class="node">
<title>Node69</title>
<g id="a_node30"><a xlink:href="classllvm_1_1SmallVectorImpl.html" target="_top" xlink:title="SmallVectorImpl\&lt; const\l llvm::DILocation * \&gt;">
<polygon fill="none" stroke="red" points="752,-905.5 752,-935.5 874,-935.5 874,-905.5 752,-905.5"/>
<text text-anchor="start" x="760" y="-923.5" font-family="Helvetica,sans-Serif" font-size="10.00">SmallVectorImpl&lt; const</text>
<text text-anchor="middle" x="813" y="-912.5" font-family="Helvetica,sans-Serif" font-size="10.00"> llvm::DILocation * &gt;</text>
</a>
</g>
</g>
<!-- Node3&#45;&gt;Node69 -->
<g id="edge29" class="edge">
<title>Node3&#45;&gt;Node69</title>
<path fill="none" stroke="midnightblue" d="M608.45,-1044.32C631.62,-1016.74 673.96,-971.22 720,-945.5 729.83,-940.01 740.92,-935.67 751.92,-932.26"/>
<polygon fill="midnightblue" stroke="midnightblue" points="605.56,-1042.32 601.89,-1052.26 610.96,-1046.78 605.56,-1042.32"/>
</g>
<!-- Node71 -->
<g id="node31" class="node">
<title>Node71</title>
<g id="a_node31"><a xlink:href="classllvm_1_1SmallVectorImpl.html" target="_top" xlink:title="SmallVectorImpl\&lt; const\l llvm::DISubprogram * \&gt;">
<polygon fill="none" stroke="red" points="752,-856.5 752,-886.5 874,-886.5 874,-856.5 752,-856.5"/>
<text text-anchor="start" x="760" y="-874.5" font-family="Helvetica,sans-Serif" font-size="10.00">SmallVectorImpl&lt; const</text>
<text text-anchor="middle" x="813" y="-863.5" font-family="Helvetica,sans-Serif" font-size="10.00"> llvm::DISubprogram * &gt;</text>
</a>
</g>
</g>
<!-- Node3&#45;&gt;Node71 -->
<g id="edge30" class="edge">
<title>Node3&#45;&gt;Node71</title>
<path fill="none" stroke="midnightblue" d="M601.56,-1043.18C620.71,-1005.63 662.68,-933.94 720,-896.5 729.56,-890.26 740.65,-885.56 751.75,-882.03"/>
<polygon fill="midnightblue" stroke="midnightblue" points="598.3,-1041.88 596.98,-1052.39 604.57,-1045 598.3,-1041.88"/>
</g>
<!-- Node74 -->
<g id="node32" class="node">
<title>Node74</title>
<g id="a_node32"><a xlink:href="classllvm_1_1SmallVectorImpl.html" target="_top" xlink:title="SmallVectorImpl\&lt; const\l llvm::GCRelocateInst * \&gt;">
<polygon fill="none" stroke="red" points="748,-807.5 748,-837.5 878,-837.5 878,-807.5 748,-807.5"/>
<text text-anchor="start" x="756" y="-825.5" font-family="Helvetica,sans-Serif" font-size="10.00">SmallVectorImpl&lt; const</text>
<text text-anchor="middle" x="813" y="-814.5" font-family="Helvetica,sans-Serif" font-size="10.00"> llvm::GCRelocateInst * &gt;</text>
</a>
</g>
</g>
<!-- Node3&#45;&gt;Node74 -->
<g id="edge31" class="edge">
<title>Node3&#45;&gt;Node74</title>
<path fill="none" stroke="midnightblue" d="M596.78,-1042.58C610.96,-995.64 648.54,-894.6 720,-847.5 728.43,-841.94 738.07,-837.62 747.85,-834.25"/>
<polygon fill="midnightblue" stroke="midnightblue" points="593.39,-1041.68 593.95,-1052.26 600.11,-1043.64 593.39,-1041.68"/>
</g>
<!-- Node76 -->
<g id="node33" class="node">
<title>Node76</title>
<g id="a_node33"><a xlink:href="classllvm_1_1SmallVectorImpl.html" target="_top" xlink:title="SmallVectorImpl\&lt; const\l llvm::MachineInstr * \&gt;">
<polygon fill="none" stroke="red" points="752,-758.5 752,-788.5 874,-788.5 874,-758.5 752,-758.5"/>
<text text-anchor="start" x="760" y="-776.5" font-family="Helvetica,sans-Serif" font-size="10.00">SmallVectorImpl&lt; const</text>
<text text-anchor="middle" x="813" y="-765.5" font-family="Helvetica,sans-Serif" font-size="10.00"> llvm::MachineInstr * &gt;</text>
</a>
</g>
</g>
<!-- Node3&#45;&gt;Node76 -->
<g id="edge32" class="edge">
<title>Node3&#45;&gt;Node76</title>
<path fill="none" stroke="midnightblue" d="M593.72,-1042.22C603.31,-987.1 634.43,-856.42 720,-798.5 729.46,-792.1 740.5,-787.33 751.59,-783.78"/>
<polygon fill="midnightblue" stroke="midnightblue" points="590.25,-1041.75 592.08,-1052.19 597.16,-1042.89 590.25,-1041.75"/>
</g>
<!-- Node78 -->
<g id="node34" class="node">
<title>Node78</title>
<g id="a_node34"><a xlink:href="classllvm_1_1SmallVectorImpl.html" target="_top" xlink:title="SmallVectorImpl\&lt; const\l llvm::SCEV * \&gt;">
<polygon fill="none" stroke="red" points="752,-709.5 752,-739.5 874,-739.5 874,-709.5 752,-709.5"/>
<text text-anchor="start" x="760" y="-727.5" font-family="Helvetica,sans-Serif" font-size="10.00">SmallVectorImpl&lt; const</text>
<text text-anchor="middle" x="813" y="-716.5" font-family="Helvetica,sans-Serif" font-size="10.00"> llvm::SCEV * &gt;</text>
</a>
</g>
</g>
<!-- Node3&#45;&gt;Node78 -->
<g id="edge33" class="edge">
<title>Node3&#45;&gt;Node78</title>
<path fill="none" stroke="midnightblue" d="M595.07,-1042.44C605.34,-994.83 631.34,-888.88 674,-808.5 689.59,-779.13 692.31,-767.91 720,-749.5 729.51,-743.17 740.58,-738.44 751.67,-734.91"/>
<polygon fill="midnightblue" stroke="midnightblue" points="591.59,-1041.96 592.95,-1052.46 598.44,-1043.4 591.59,-1041.96"/>
</g>
<!-- Node81 -->
<g id="node35" class="node">
<title>Node81</title>
<g id="a_node35"><a xlink:href="classllvm_1_1SmallVectorImpl.html" target="_top" xlink:title="SmallVectorImpl\&lt; const\l llvm::SCEVPredicate * \&gt;">
<polygon fill="none" stroke="red" points="749,-660.5 749,-690.5 877,-690.5 877,-660.5 749,-660.5"/>
<text text-anchor="start" x="757" y="-678.5" font-family="Helvetica,sans-Serif" font-size="10.00">SmallVectorImpl&lt; const</text>
<text text-anchor="middle" x="813" y="-667.5" font-family="Helvetica,sans-Serif" font-size="10.00"> llvm::SCEVPredicate * &gt;</text>
</a>
</g>
</g>
<!-- Node3&#45;&gt;Node81 -->
<g id="edge34" class="edge">
<title>Node3&#45;&gt;Node81</title>
<path fill="none" stroke="midnightblue" d="M593.43,-1042.24C601.52,-988.04 624.9,-857.56 674,-759.5 688.89,-729.77 692.31,-718.91 720,-700.5 728.68,-694.72 738.66,-690.28 748.78,-686.86"/>
<polygon fill="midnightblue" stroke="midnightblue" points="589.94,-1041.92 591.97,-1052.32 596.87,-1042.92 589.94,-1041.92"/>
</g>
<!-- Node83 -->
<g id="node36" class="node">
<title>Node83</title>
<g id="a_node36"><a xlink:href="classllvm_1_1SmallVectorImpl.html" target="_top" xlink:title="SmallVectorImpl\&lt; const\l llvm::Value * \&gt;">
<polygon fill="none" stroke="red" points="752,-611.5 752,-641.5 874,-641.5 874,-611.5 752,-611.5"/>
<text text-anchor="start" x="760" y="-629.5" font-family="Helvetica,sans-Serif" font-size="10.00">SmallVectorImpl&lt; const</text>
<text text-anchor="middle" x="813" y="-618.5" font-family="Helvetica,sans-Serif" font-size="10.00"> llvm::Value * &gt;</text>
</a>
</g>
</g>
<!-- Node3&#45;&gt;Node83 -->
<g id="edge35" class="edge">
<title>Node3&#45;&gt;Node83</title>
<path fill="none" stroke="midnightblue" d="M592.18,-1042.39C598.18,-982.33 618.33,-826.73 674,-710.5 688.36,-680.51 692.31,-669.91 720,-651.5 729.51,-645.17 740.58,-640.44 751.67,-636.91"/>
<polygon fill="midnightblue" stroke="midnightblue" points="588.69,-1042.18 591.22,-1052.46 595.66,-1042.84 588.69,-1042.18"/>
</g>
<!-- Node86 -->
<g id="node37" class="node">
<title>Node86</title>
<g id="a_node37"><a xlink:href="classllvm_1_1SmallVectorImpl.html" target="_top" xlink:title="SmallVectorImpl\&lt; const\l SamplesWithLoc * \&gt;">
<polygon fill="none" stroke="red" points="752,-562.5 752,-592.5 874,-592.5 874,-562.5 752,-562.5"/>
<text text-anchor="start" x="760" y="-580.5" font-family="Helvetica,sans-Serif" font-size="10.00">SmallVectorImpl&lt; const</text>
<text text-anchor="middle" x="813" y="-569.5" font-family="Helvetica,sans-Serif" font-size="10.00"> SamplesWithLoc * &gt;</text>
</a>
</g>
</g>
<!-- Node3&#45;&gt;Node86 -->
<g id="edge36" class="edge">
<title>Node3&#45;&gt;Node86</title>
<path fill="none" stroke="midnightblue" d="M591.26,-1042.11C595.36,-976.27 611.89,-795.83 674,-661.5 687.96,-631.32 692.31,-620.91 720,-602.5 729.51,-596.17 740.58,-591.44 751.67,-587.91"/>
<polygon fill="midnightblue" stroke="midnightblue" points="587.75,-1042.17 590.67,-1052.36 594.74,-1042.57 587.75,-1042.17"/>
</g>
<!-- Node88 -->
<g id="node38" class="node">
<title>Node88</title>
<g id="a_node38"><a xlink:href="classllvm_1_1SmallVectorImpl.html" target="_top" xlink:title="SmallVectorImpl\&lt; const\l uint32_t * \&gt;">
<polygon fill="none" stroke="red" points="752,-513.5 752,-543.5 874,-543.5 874,-513.5 752,-513.5"/>
<text text-anchor="start" x="760" y="-531.5" font-family="Helvetica,sans-Serif" font-size="10.00">SmallVectorImpl&lt; const</text>
<text text-anchor="middle" x="813" y="-520.5" font-family="Helvetica,sans-Serif" font-size="10.00"> uint32_t * &gt;</text>
</a>
</g>
</g>
<!-- Node3&#45;&gt;Node88 -->
<g id="edge37" class="edge">
<title>Node3&#45;&gt;Node88</title>
<path fill="none" stroke="midnightblue" d="M590.52,-1041.95C592.82,-970.72 605.39,-765.16 674,-612.5 687.63,-582.17 692.31,-571.91 720,-553.5 729.51,-547.17 740.58,-542.44 751.67,-538.91"/>
<polygon fill="midnightblue" stroke="midnightblue" points="587.01,-1042.1 590.23,-1052.2 594.01,-1042.3 587.01,-1042.1"/>
</g>
<!-- Node90 -->
<g id="node39" class="node">
<title>Node90</title>
<g id="a_node39"><a xlink:href="classllvm_1_1SmallVectorImpl.html" target="_top" xlink:title="SmallVectorImpl\&lt; const\l Value * \&gt;">
<polygon fill="none" stroke="red" points="752,-464.5 752,-494.5 874,-494.5 874,-464.5 752,-464.5"/>
<text text-anchor="start" x="760" y="-482.5" font-family="Helvetica,sans-Serif" font-size="10.00">SmallVectorImpl&lt; const</text>
<text text-anchor="middle" x="813" y="-471.5" font-family="Helvetica,sans-Serif" font-size="10.00"> Value * &gt;</text>
</a>
</g>
</g>
<!-- Node3&#45;&gt;Node90 -->
<g id="edge38" class="edge">
<title>Node3&#45;&gt;Node90</title>
<path fill="none" stroke="midnightblue" d="M589.9,-1042.27C590.48,-966.39 598.72,-734.98 674,-563.5 687.37,-533.05 692.31,-522.91 720,-504.5 729.51,-498.17 740.58,-493.44 751.67,-489.91"/>
<polygon fill="midnightblue" stroke="midnightblue" points="586.4,-1042.3 589.86,-1052.31 593.4,-1042.32 586.4,-1042.3"/>
</g>
<!-- Node92 -->
<g id="node40" class="node">
<title>Node92</title>
<g id="a_node40"><a xlink:href="classllvm_1_1SmallVectorImpl.html" target="_top" xlink:title="SmallVectorImpl\&lt; Constant\lPoolEntry \&gt;">
<polygon fill="none" stroke="red" points="744.5,-415.5 744.5,-445.5 881.5,-445.5 881.5,-415.5 744.5,-415.5"/>
<text text-anchor="start" x="752.5" y="-433.5" font-family="Helvetica,sans-Serif" font-size="10.00">SmallVectorImpl&lt; Constant</text>
<text text-anchor="middle" x="813" y="-422.5" font-family="Helvetica,sans-Serif" font-size="10.00">PoolEntry &gt;</text>
</a>
</g>
</g>
<!-- Node3&#45;&gt;Node92 -->
<g id="edge39" class="edge">
<title>Node3&#45;&gt;Node92</title>
<path fill="none" stroke="midnightblue" d="M589.39,-1042C588.38,-961.11 592.23,-704.47 674,-514.5 687.15,-483.96 692.31,-473.91 720,-455.5 727.44,-450.55 735.84,-446.58 744.45,-443.39"/>
<polygon fill="midnightblue" stroke="midnightblue" points="585.9,-1042.28 589.56,-1052.22 592.89,-1042.16 585.9,-1042.28"/>
</g>
<!-- Node94 -->
<g id="node41" class="node">
<title>Node94</title>
<g id="a_node41"><a xlink:href="classllvm_1_1SmallVectorImpl.html" target="_top" xlink:title="SmallVectorImpl\&lt; Constant\lUser \&gt;">
<polygon fill="none" stroke="red" points="744.5,-366.5 744.5,-396.5 881.5,-396.5 881.5,-366.5 744.5,-366.5"/>
<text text-anchor="start" x="752.5" y="-384.5" font-family="Helvetica,sans-Serif" font-size="10.00">SmallVectorImpl&lt; Constant</text>
<text text-anchor="middle" x="813" y="-373.5" font-family="Helvetica,sans-Serif" font-size="10.00">User &gt;</text>
</a>
</g>
</g>
<!-- Node3&#45;&gt;Node94 -->
<g id="edge40" class="edge">
<title>Node3&#45;&gt;Node94</title>
<path fill="none" stroke="midnightblue" d="M591.78,-1042.14C599.11,-941.78 628.65,-572.63 674,-465.5 686.96,-434.88 692.31,-424.91 720,-406.5 727.44,-401.55 735.84,-397.58 744.45,-394.39"/>
<polygon fill="midnightblue" stroke="midnightblue" points="588.28,-1042.04 591.05,-1052.27 595.26,-1042.54 588.28,-1042.04"/>
</g>
<!-- Node96 -->
<g id="node42" class="node">
<title>Node96</title>
<g id="a_node42"><a xlink:href="classllvm_1_1SmallVectorImpl.html" target="_top" xlink:title="SmallVectorImpl\&lt; consthoist\l::ConstantInfo \&gt;">
<polygon fill="none" stroke="red" points="741.5,-317.5 741.5,-347.5 884.5,-347.5 884.5,-317.5 741.5,-317.5"/>
<text text-anchor="start" x="749.5" y="-335.5" font-family="Helvetica,sans-Serif" font-size="10.00">SmallVectorImpl&lt; consthoist</text>
<text text-anchor="middle" x="813" y="-324.5" font-family="Helvetica,sans-Serif" font-size="10.00">::ConstantInfo &gt;</text>
</a>
</g>
</g>
<!-- Node3&#45;&gt;Node96 -->
<g id="edge41" class="edge">
<title>Node3&#45;&gt;Node96</title>
<path fill="none" stroke="midnightblue" d="M591.46,-1042.48C597.86,-937.57 625.26,-533.31 674,-416.5 686.8,-385.81 692.31,-375.91 720,-357.5 726.48,-353.19 733.68,-349.62 741.12,-346.67"/>
<polygon fill="midnightblue" stroke="midnightblue" points="587.97,-1042.27 590.86,-1052.46 594.96,-1042.69 587.97,-1042.27"/>
</g>
<!-- Node98 -->
<g id="node43" class="node">
<title>Node98</title>
<g id="a_node43"><a xlink:href="classllvm_1_1SmallVectorImpl.html" target="_top" xlink:title="SmallVectorImpl\&lt; Critical\lEdge \&gt;">
<polygon fill="none" stroke="red" points="749,-268.5 749,-298.5 877,-298.5 877,-268.5 749,-268.5"/>
<text text-anchor="start" x="757" y="-286.5" font-family="Helvetica,sans-Serif" font-size="10.00">SmallVectorImpl&lt; Critical</text>
<text text-anchor="middle" x="813" y="-275.5" font-family="Helvetica,sans-Serif" font-size="10.00">Edge &gt;</text>
</a>
</g>
</g>
<!-- Node3&#45;&gt;Node98 -->
<g id="edge42" class="edge">
<title>Node3&#45;&gt;Node98</title>
<path fill="none" stroke="midnightblue" d="M591.23,-1042.03C596.84,-931.54 621.99,-493.73 674,-367.5 686.67,-336.76 692.31,-326.91 720,-308.5 728.68,-302.72 738.66,-298.28 748.78,-294.86"/>
<polygon fill="midnightblue" stroke="midnightblue" points="587.72,-1042.06 590.72,-1052.22 594.71,-1042.41 587.72,-1042.06"/>
</g>
<!-- Node100 -->
<g id="node44" class="node">
<title>Node100</title>
<g id="a_node44"><a xlink:href="classllvm_1_1SmallVectorImpl.html" target="_top" xlink:title="SmallVectorImpl\&lt; CVGlobal\lVariable \&gt;">
<polygon fill="none" stroke="red" points="743,-219.5 743,-249.5 883,-249.5 883,-219.5 743,-219.5"/>
<text text-anchor="start" x="751" y="-237.5" font-family="Helvetica,sans-Serif" font-size="10.00">SmallVectorImpl&lt; CVGlobal</text>
<text text-anchor="middle" x="813" y="-226.5" font-family="Helvetica,sans-Serif" font-size="10.00">Variable &gt;</text>
</a>
</g>
</g>
<!-- Node3&#45;&gt;Node100 -->
<g id="edge43" class="edge">
<title>Node3&#45;&gt;Node100</title>
<path fill="none" stroke="midnightblue" d="M591,-1042.11C595.8,-927.07 618.63,-454.39 674,-318.5 686.55,-287.71 692.31,-277.91 720,-259.5 726.89,-254.92 734.6,-251.17 742.54,-248.11"/>
<polygon fill="midnightblue" stroke="midnightblue" points="587.49,-1042.26 590.58,-1052.39 594.48,-1042.54 587.49,-1042.26"/>
</g>
<!-- Node102 -->
<g id="node45" class="node">
<title>Node102</title>
<g id="a_node45"><a xlink:href="classllvm_1_1SmallVectorImpl.html" target="_top" xlink:title="SmallVectorImpl\&lt; DDGNode * \&gt;">
<polygon fill="none" stroke="red" points="733.5,-181 733.5,-200 892.5,-200 892.5,-181 733.5,-181"/>
<text text-anchor="middle" x="813" y="-188" font-family="Helvetica,sans-Serif" font-size="10.00">SmallVectorImpl&lt; DDGNode * &gt;</text>
</a>
</g>
</g>
<!-- Node3&#45;&gt;Node102 -->
<g id="edge44" class="edge">
<title>Node3&#45;&gt;Node102</title>
<path fill="none" stroke="midnightblue" d="M590.79,-1042.36C594.82,-923.21 615.23,-415.13 674,-269.5 686.44,-238.67 691.85,-228.2 720,-210.5 726.92,-206.15 734.64,-202.74 742.6,-200.06"/>
<polygon fill="midnightblue" stroke="midnightblue" points="587.29,-1042.25 590.46,-1052.36 594.29,-1042.48 587.29,-1042.25"/>
</g>
<!-- Node104 -->
<g id="node46" class="node">
<title>Node104</title>
<g id="a_node46"><a xlink:href="classllvm_1_1SmallVectorImpl.html" target="_top" xlink:title="SmallVectorImpl\&lt; DefPath \&gt;">
<polygon fill="none" stroke="red" points="741.5,-143 741.5,-162 884.5,-162 884.5,-143 741.5,-143"/>
<text text-anchor="middle" x="813" y="-150" font-family="Helvetica,sans-Serif" font-size="10.00">SmallVectorImpl&lt; DefPath &gt;</text>
</a>
</g>
</g>
<!-- Node3&#45;&gt;Node104 -->
<g id="edge45" class="edge">
<title>Node3&#45;&gt;Node104</title>
<path fill="none" stroke="midnightblue" d="M590.3,-1042.24C592.11,-918 603.96,-371.64 674,-219.5 686.36,-192.66 694.14,-185.8 720,-171.5 726.99,-167.63 734.68,-164.55 742.54,-162.09"/>
<polygon fill="midnightblue" stroke="midnightblue" points="586.8,-1042.27 590.16,-1052.31 593.8,-1042.36 586.8,-1042.27"/>
</g>
<!-- Node106 -->
<g id="node47" class="node">
<title>Node106</title>
<g id="a_node47"><a xlink:href="classllvm_1_1SmallVectorImpl.html" target="_top" xlink:title="SmallVectorImpl\&lt; Dominator\lTree::UpdateType \&gt;">
<polygon fill="none" stroke="red" points="741.5,-93.5 741.5,-123.5 884.5,-123.5 884.5,-93.5 741.5,-93.5"/>
<text text-anchor="start" x="749.5" y="-111.5" font-family="Helvetica,sans-Serif" font-size="10.00">SmallVectorImpl&lt; Dominator</text>
<text text-anchor="middle" x="813" y="-100.5" font-family="Helvetica,sans-Serif" font-size="10.00">Tree::UpdateType &gt;</text>
</a>
</g>
</g>
<!-- Node3&#45;&gt;Node106 -->
<g id="edge46" class="edge">
<title>Node3&#45;&gt;Node106</title>
<path fill="none" stroke="midnightblue" d="M590.07,-1042.19C590.77,-914.13 598.17,-337.39 674,-178.5 686.32,-152.69 695.18,-147.71 720,-133.5 726.75,-129.64 734.12,-126.35 741.66,-123.55"/>
<polygon fill="midnightblue" stroke="midnightblue" points="586.57,-1042.21 590.02,-1052.23 593.57,-1042.24 586.57,-1042.21"/>
</g>
<!-- Node3&#45;&gt;Node828 -->
<g id="edge47" class="edge">
<title>Node3&#45;&gt;Node828</title>
<path fill="none" stroke="orange" stroke-dasharray="5,2" d="M589.93,-1042.09C589.9,-909.62 594.18,-297.8 674,-129.5 686.26,-103.66 695.18,-98.71 720,-84.5 727.9,-79.98 736.65,-76.24 745.53,-73.17"/>
<polygon fill="orange" stroke="orange" points="586.43,-1042.43 589.94,-1052.43 593.43,-1042.42 586.43,-1042.43"/>
<text text-anchor="middle" x="688" y="-132.5" font-family="Helvetica,sans-Serif" font-size="10.00"> &lt; T &gt;</text>
</g>
</g>
</svg>
