<?xml version="1.0" encoding="UTF-8" standalone="no"?>
<!DOCTYPE svg PUBLIC "-//W3C//DTD SVG 1.1//EN"
 "http://www.w3.org/Graphics/SVG/1.1/DTD/svg11.dtd">
<!-- Generated by graphviz version 2.43.0 (0)
 -->
<!-- Title: llvm::X86LinuxNaClTargetObjectFile Pages: 1 -->
<svg width="160pt" height="274pt"
 viewBox="0.00 0.00 160.00 274.00" xmlns="http://www.w3.org/2000/svg" xmlns:xlink="http://www.w3.org/1999/xlink">
<g id="graph0" class="graph" transform="scale(1 1) rotate(0) translate(4 270)">
<title>llvm::X86LinuxNaClTargetObjectFile</title>
<!-- Node0 -->
<g id="node1" class="node">
<title>Node0</title>
<polygon fill="#bfbfbf" stroke="black" points="10.5,-0.5 10.5,-30.5 141.5,-30.5 141.5,-0.5 10.5,-0.5"/>
<text text-anchor="start" x="18.5" y="-18.5" font-family="Helvetica,sans-Serif" font-size="10.00">llvm::X86LinuxNaClTarget</text>
<text text-anchor="middle" x="76" y="-7.5" font-family="Helvetica,sans-Serif" font-size="10.00">ObjectFile</text>
</g>
<!-- Node1 -->
<g id="node2" class="node">
<title>Node1</title>
<g id="a_node2"><a xlink:href="classllvm_1_1X86ELFTargetObjectFile.html" target="_top" xlink:title="This implemenatation is used for X86 ELF targets that don&#39;t have a further specialization. ">
<polygon fill="none" stroke="black" points="2,-67.5 2,-86.5 150,-86.5 150,-67.5 2,-67.5"/>
<text text-anchor="middle" x="76" y="-74.5" font-family="Helvetica,sans-Serif" font-size="10.00">llvm::X86ELFTargetObjectFile</text>
</a>
</g>
</g>
<!-- Node1&#45;&gt;Node0 -->
<g id="edge1" class="edge">
<title>Node1&#45;&gt;Node0</title>
<path fill="none" stroke="midnightblue" d="M76,-57.23C76,-48.59 76,-38.5 76,-30.52"/>
<polygon fill="midnightblue" stroke="midnightblue" points="72.5,-57.48 76,-67.48 79.5,-57.48 72.5,-57.48"/>
</g>
<!-- Node2 -->
<g id="node3" class="node">
<title>Node2</title>
<g id="a_node3"><a xlink:href="classllvm_1_1TargetLoweringObjectFileELF.html" target="_top" xlink:title="llvm::TargetLoweringObject\lFileELF">
<polygon fill="none" stroke="black" points="8,-123.5 8,-153.5 144,-153.5 144,-123.5 8,-123.5"/>
<text text-anchor="start" x="16" y="-141.5" font-family="Helvetica,sans-Serif" font-size="10.00">llvm::TargetLoweringObject</text>
<text text-anchor="middle" x="76" y="-130.5" font-family="Helvetica,sans-Serif" font-size="10.00">FileELF</text>
</a>
</g>
</g>
<!-- Node2&#45;&gt;Node1 -->
<g id="edge2" class="edge">
<title>Node2&#45;&gt;Node1</title>
<path fill="none" stroke="midnightblue" d="M76,-113.29C76,-103.86 76,-93.65 76,-86.66"/>
<polygon fill="midnightblue" stroke="midnightblue" points="72.5,-113.4 76,-123.4 79.5,-113.4 72.5,-113.4"/>
</g>
<!-- Node3 -->
<g id="node4" class="node">
<title>Node3</title>
<g id="a_node4"><a xlink:href="classllvm_1_1TargetLoweringObjectFile.html" target="_top" xlink:title="llvm::TargetLoweringObjectFile">
<polygon fill="none" stroke="black" points="0,-190.5 0,-209.5 152,-209.5 152,-190.5 0,-190.5"/>
<text text-anchor="middle" x="76" y="-197.5" font-family="Helvetica,sans-Serif" font-size="10.00">llvm::TargetLoweringObjectFile</text>
</a>
</g>
</g>
<!-- Node3&#45;&gt;Node2 -->
<g id="edge3" class="edge">
<title>Node3&#45;&gt;Node2</title>
<path fill="none" stroke="midnightblue" d="M76,-180.23C76,-171.59 76,-161.5 76,-153.52"/>
<polygon fill="midnightblue" stroke="midnightblue" points="72.5,-180.48 76,-190.48 79.5,-180.48 72.5,-180.48"/>
</g>
<!-- Node4 -->
<g id="node5" class="node">
<title>Node4</title>
<g id="a_node5"><a xlink:href="classllvm_1_1MCObjectFileInfo.html" target="_top" xlink:title="llvm::MCObjectFileInfo">
<polygon fill="none" stroke="black" points="17.5,-246.5 17.5,-265.5 134.5,-265.5 134.5,-246.5 17.5,-246.5"/>
<text text-anchor="middle" x="76" y="-253.5" font-family="Helvetica,sans-Serif" font-size="10.00">llvm::MCObjectFileInfo</text>
</a>
</g>
</g>
<!-- Node4&#45;&gt;Node3 -->
<g id="edge4" class="edge">
<title>Node4&#45;&gt;Node3</title>
<path fill="none" stroke="midnightblue" d="M76,-235.8C76,-226.91 76,-216.78 76,-209.75"/>
<polygon fill="midnightblue" stroke="midnightblue" points="72.5,-236.08 76,-246.08 79.5,-236.08 72.5,-236.08"/>
</g>
</g>
</svg>
