<?xml version="1.0" encoding="UTF-8" standalone="no"?>
<!DOCTYPE svg PUBLIC "-//W3C//DTD SVG 1.1//EN"
 "http://www.w3.org/Graphics/SVG/1.1/DTD/svg11.dtd">
<!-- Generated by graphviz version 2.43.0 (0)
 -->
<!-- Title: llvm::ConcreteOperator&lt; SuperClass, Opc &gt; Pages: 1 -->
<svg width="696pt" height="715pt"
 viewBox="0.00 0.00 696.00 715.00" xmlns="http://www.w3.org/2000/svg" xmlns:xlink="http://www.w3.org/1999/xlink">
<g id="graph0" class="graph" transform="scale(1 1) rotate(0) translate(4 711)">
<title>llvm::ConcreteOperator&lt; SuperClass, Opc &gt;</title>
<!-- Node0 -->
<g id="node1" class="node">
<title>Node0</title>
<polygon fill="#bfbfbf" stroke="black" points="105,-335 105,-365 223,-365 223,-335 105,-335"/>
<text text-anchor="start" x="113" y="-353" font-family="Helvetica,sans-Serif" font-size="10.00">llvm::ConcreteOperator</text>
<text text-anchor="middle" x="164" y="-342" font-family="Helvetica,sans-Serif" font-size="10.00">&lt; SuperClass, Opc &gt;</text>
</g>
<!-- Node2 -->
<g id="node3" class="node">
<title>Node2</title>
<g id="a_node3"><a xlink:href="classllvm_1_1ConcreteOperator.html" target="_top" xlink:title="llvm::ConcreteOperator\l\&lt; Operator, Instruction\l::ZExt \&gt;">
<polygon fill="none" stroke="black" points="406,-660.5 406,-701.5 524,-701.5 524,-660.5 406,-660.5"/>
<text text-anchor="start" x="414" y="-689.5" font-family="Helvetica,sans-Serif" font-size="10.00">llvm::ConcreteOperator</text>
<text text-anchor="start" x="414" y="-678.5" font-family="Helvetica,sans-Serif" font-size="10.00">&lt; Operator, Instruction</text>
<text text-anchor="middle" x="465" y="-667.5" font-family="Helvetica,sans-Serif" font-size="10.00">::ZExt &gt;</text>
</a>
</g>
</g>
<!-- Node0&#45;&gt;Node2 -->
<g id="edge2" class="edge">
<title>Node0&#45;&gt;Node2</title>
<path fill="none" stroke="orange" stroke-dasharray="5,2" d="M168.14,-374.96C176.61,-438.27 201.97,-602.65 241,-639 284.96,-679.95 355.68,-687.01 405.68,-686.04"/>
<polygon fill="orange" stroke="orange" points="171.61,-374.49 166.84,-365.03 164.67,-375.4 171.61,-374.49"/>
<text text-anchor="start" x="256.5" y="-699" font-family="Helvetica,sans-Serif" font-size="10.00"> &lt; Operator, Instruction</text>
<text text-anchor="middle" x="307.5" y="-688" font-family="Helvetica,sans-Serif" font-size="10.00">::ZExt &gt;</text>
</g>
<!-- Node4 -->
<g id="node5" class="node">
<title>Node4</title>
<g id="a_node5"><a xlink:href="classllvm_1_1ConcreteOperator.html" target="_top" xlink:title="llvm::ConcreteOperator\l\&lt; PossiblyExactOperator,\l Instruction::SDiv \&gt;">
<polygon fill="none" stroke="black" points="400.5,-600.5 400.5,-641.5 529.5,-641.5 529.5,-600.5 400.5,-600.5"/>
<text text-anchor="start" x="408.5" y="-629.5" font-family="Helvetica,sans-Serif" font-size="10.00">llvm::ConcreteOperator</text>
<text text-anchor="start" x="408.5" y="-618.5" font-family="Helvetica,sans-Serif" font-size="10.00">&lt; PossiblyExactOperator,</text>
<text text-anchor="middle" x="465" y="-607.5" font-family="Helvetica,sans-Serif" font-size="10.00"> Instruction::SDiv &gt;</text>
</a>
</g>
</g>
<!-- Node0&#45;&gt;Node4 -->
<g id="edge4" class="edge">
<title>Node0&#45;&gt;Node4</title>
<path fill="none" stroke="orange" stroke-dasharray="5,2" d="M165.43,-375.27C167.69,-423.06 179.82,-526.69 241,-580 264.33,-600.33 343.14,-611.16 400.47,-616.48"/>
<polygon fill="orange" stroke="orange" points="168.92,-375.03 165.06,-365.16 161.92,-375.29 168.92,-375.03"/>
<text text-anchor="start" x="249.5" y="-627" font-family="Helvetica,sans-Serif" font-size="10.00"> &lt; PossiblyExactOperator,</text>
<text text-anchor="middle" x="307.5" y="-616" font-family="Helvetica,sans-Serif" font-size="10.00"> Instruction::SDiv &gt;</text>
</g>
<!-- Node6 -->
<g id="node7" class="node">
<title>Node6</title>
<g id="a_node7"><a xlink:href="classllvm_1_1ConcreteOperator.html" target="_top" xlink:title="llvm::ConcreteOperator\l\&lt; Operator, Instruction\l::BitCast \&gt;">
<polygon fill="none" stroke="black" points="406,-540.5 406,-581.5 524,-581.5 524,-540.5 406,-540.5"/>
<text text-anchor="start" x="414" y="-569.5" font-family="Helvetica,sans-Serif" font-size="10.00">llvm::ConcreteOperator</text>
<text text-anchor="start" x="414" y="-558.5" font-family="Helvetica,sans-Serif" font-size="10.00">&lt; Operator, Instruction</text>
<text text-anchor="middle" x="465" y="-547.5" font-family="Helvetica,sans-Serif" font-size="10.00">::BitCast &gt;</text>
</a>
</g>
</g>
<!-- Node0&#45;&gt;Node6 -->
<g id="edge6" class="edge">
<title>Node0&#45;&gt;Node6</title>
<path fill="none" stroke="orange" stroke-dasharray="5,2" d="M168.53,-375.49C175.28,-413.94 193.81,-486.16 241,-523 266.04,-542.54 348.46,-552.56 405.76,-557.29"/>
<polygon fill="orange" stroke="orange" points="171.91,-374.47 166.86,-365.16 165,-375.59 171.91,-374.47"/>
<text text-anchor="start" x="256.5" y="-568" font-family="Helvetica,sans-Serif" font-size="10.00"> &lt; Operator, Instruction</text>
<text text-anchor="middle" x="307.5" y="-557" font-family="Helvetica,sans-Serif" font-size="10.00">::BitCast &gt;</text>
</g>
<!-- Node8 -->
<g id="node9" class="node">
<title>Node8</title>
<g id="a_node9"><a xlink:href="classllvm_1_1ConcreteOperator.html" target="_top" xlink:title="llvm::ConcreteOperator\l\&lt; OverflowingBinaryOperator,\l Instruction::Add \&gt;">
<polygon fill="none" stroke="black" points="392,-480.5 392,-521.5 538,-521.5 538,-480.5 392,-480.5"/>
<text text-anchor="start" x="400" y="-509.5" font-family="Helvetica,sans-Serif" font-size="10.00">llvm::ConcreteOperator</text>
<text text-anchor="start" x="400" y="-498.5" font-family="Helvetica,sans-Serif" font-size="10.00">&lt; OverflowingBinaryOperator,</text>
<text text-anchor="middle" x="465" y="-487.5" font-family="Helvetica,sans-Serif" font-size="10.00"> Instruction::Add &gt;</text>
</a>
</g>
</g>
<!-- Node0&#45;&gt;Node8 -->
<g id="edge8" class="edge">
<title>Node0&#45;&gt;Node8</title>
<path fill="none" stroke="orange" stroke-dasharray="5,2" d="M176.1,-374.59C188.4,-398.95 210.6,-435.35 241,-455 285.9,-484.02 345.6,-495.22 391.93,-499.32"/>
<polygon fill="orange" stroke="orange" points="179.1,-372.76 171.58,-365.29 172.8,-375.82 179.1,-372.76"/>
<text text-anchor="start" x="241" y="-511" font-family="Helvetica,sans-Serif" font-size="10.00"> &lt; OverflowingBinaryOperator,</text>
<text text-anchor="middle" x="307.5" y="-500" font-family="Helvetica,sans-Serif" font-size="10.00"> Instruction::Add &gt;</text>
</g>
<!-- Node10 -->
<g id="node11" class="node">
<title>Node10</title>
<g id="a_node11"><a xlink:href="classllvm_1_1ConcreteOperator.html" target="_top" xlink:title="llvm::ConcreteOperator\l\&lt; OverflowingBinaryOperator,\l Instruction::Sub \&gt;">
<polygon fill="none" stroke="black" points="392,-420.5 392,-461.5 538,-461.5 538,-420.5 392,-420.5"/>
<text text-anchor="start" x="400" y="-449.5" font-family="Helvetica,sans-Serif" font-size="10.00">llvm::ConcreteOperator</text>
<text text-anchor="start" x="400" y="-438.5" font-family="Helvetica,sans-Serif" font-size="10.00">&lt; OverflowingBinaryOperator,</text>
<text text-anchor="middle" x="465" y="-427.5" font-family="Helvetica,sans-Serif" font-size="10.00"> Instruction::Sub &gt;</text>
</a>
</g>
</g>
<!-- Node0&#45;&gt;Node10 -->
<g id="edge10" class="edge">
<title>Node0&#45;&gt;Node10</title>
<path fill="none" stroke="orange" stroke-dasharray="5,2" d="M194.08,-370.86C207.75,-379.79 224.61,-389.61 241,-396 289.57,-414.94 347.34,-426.31 391.91,-432.88"/>
<polygon fill="orange" stroke="orange" points="195.85,-367.83 185.6,-365.16 191.95,-373.64 195.85,-367.83"/>
<text text-anchor="start" x="241" y="-443" font-family="Helvetica,sans-Serif" font-size="10.00"> &lt; OverflowingBinaryOperator,</text>
<text text-anchor="middle" x="307.5" y="-432" font-family="Helvetica,sans-Serif" font-size="10.00"> Instruction::Sub &gt;</text>
</g>
<!-- Node12 -->
<g id="node13" class="node">
<title>Node12</title>
<g id="a_node13"><a xlink:href="classllvm_1_1ConcreteOperator.html" target="_top" xlink:title="llvm::ConcreteOperator\l\&lt; OverflowingBinaryOperator,\l Instruction::Shl \&gt;">
<polygon fill="none" stroke="black" points="392,-360.5 392,-401.5 538,-401.5 538,-360.5 392,-360.5"/>
<text text-anchor="start" x="400" y="-389.5" font-family="Helvetica,sans-Serif" font-size="10.00">llvm::ConcreteOperator</text>
<text text-anchor="start" x="400" y="-378.5" font-family="Helvetica,sans-Serif" font-size="10.00">&lt; OverflowingBinaryOperator,</text>
<text text-anchor="middle" x="465" y="-367.5" font-family="Helvetica,sans-Serif" font-size="10.00"> Instruction::Shl &gt;</text>
</a>
</g>
</g>
<!-- Node0&#45;&gt;Node12 -->
<g id="edge12" class="edge">
<title>Node0&#45;&gt;Node12</title>
<path fill="none" stroke="orange" stroke-dasharray="5,2" d="M233.17,-357.07C280.57,-361.98 343.65,-368.52 391.89,-373.52"/>
<polygon fill="orange" stroke="orange" points="233.31,-353.56 223,-356.01 232.59,-360.53 233.31,-353.56"/>
<text text-anchor="start" x="241" y="-384" font-family="Helvetica,sans-Serif" font-size="10.00"> &lt; OverflowingBinaryOperator,</text>
<text text-anchor="middle" x="307.5" y="-373" font-family="Helvetica,sans-Serif" font-size="10.00"> Instruction::Shl &gt;</text>
</g>
<!-- Node14 -->
<g id="node15" class="node">
<title>Node14</title>
<g id="a_node15"><a xlink:href="classllvm_1_1ConcreteOperator.html" target="_top" xlink:title="llvm::ConcreteOperator\l\&lt; PossiblyExactOperator,\l Instruction::UDiv \&gt;">
<polygon fill="none" stroke="black" points="400.5,-300.5 400.5,-341.5 529.5,-341.5 529.5,-300.5 400.5,-300.5"/>
<text text-anchor="start" x="408.5" y="-329.5" font-family="Helvetica,sans-Serif" font-size="10.00">llvm::ConcreteOperator</text>
<text text-anchor="start" x="408.5" y="-318.5" font-family="Helvetica,sans-Serif" font-size="10.00">&lt; PossiblyExactOperator,</text>
<text text-anchor="middle" x="465" y="-307.5" font-family="Helvetica,sans-Serif" font-size="10.00"> Instruction::UDiv &gt;</text>
</a>
</g>
</g>
<!-- Node0&#45;&gt;Node14 -->
<g id="edge14" class="edge">
<title>Node0&#45;&gt;Node14</title>
<path fill="none" stroke="orange" stroke-dasharray="5,2" d="M233.34,-334.16C235.92,-333.74 238.48,-333.35 241,-333 294.39,-325.64 355.54,-322.74 400.29,-321.62"/>
<polygon fill="orange" stroke="orange" points="232.56,-330.74 223.33,-335.93 233.78,-337.63 232.56,-330.74"/>
<text text-anchor="start" x="249.5" y="-347" font-family="Helvetica,sans-Serif" font-size="10.00"> &lt; PossiblyExactOperator,</text>
<text text-anchor="middle" x="307.5" y="-336" font-family="Helvetica,sans-Serif" font-size="10.00"> Instruction::UDiv &gt;</text>
</g>
<!-- Node16 -->
<g id="node17" class="node">
<title>Node16</title>
<g id="a_node17"><a xlink:href="classllvm_1_1ConcreteOperator.html" target="_top" xlink:title="llvm::ConcreteOperator\l\&lt; PossiblyExactOperator,\l Instruction::LShr \&gt;">
<polygon fill="none" stroke="black" points="400.5,-240.5 400.5,-281.5 529.5,-281.5 529.5,-240.5 400.5,-240.5"/>
<text text-anchor="start" x="408.5" y="-269.5" font-family="Helvetica,sans-Serif" font-size="10.00">llvm::ConcreteOperator</text>
<text text-anchor="start" x="408.5" y="-258.5" font-family="Helvetica,sans-Serif" font-size="10.00">&lt; PossiblyExactOperator,</text>
<text text-anchor="middle" x="465" y="-247.5" font-family="Helvetica,sans-Serif" font-size="10.00"> Instruction::LShr &gt;</text>
</a>
</g>
</g>
<!-- Node0&#45;&gt;Node16 -->
<g id="edge16" class="edge">
<title>Node0&#45;&gt;Node16</title>
<path fill="none" stroke="orange" stroke-dasharray="5,2" d="M189.56,-328.6C203.69,-317.44 222.3,-304.57 241,-297 292.26,-276.26 354.7,-267.44 400.46,-263.71"/>
<polygon fill="orange" stroke="orange" points="187.34,-325.89 181.8,-334.92 191.76,-331.32 187.34,-325.89"/>
<text text-anchor="start" x="249.5" y="-311" font-family="Helvetica,sans-Serif" font-size="10.00"> &lt; PossiblyExactOperator,</text>
<text text-anchor="middle" x="307.5" y="-300" font-family="Helvetica,sans-Serif" font-size="10.00"> Instruction::LShr &gt;</text>
</g>
<!-- Node18 -->
<g id="node19" class="node">
<title>Node18</title>
<g id="a_node19"><a xlink:href="classllvm_1_1ConcreteOperator.html" target="_top" xlink:title="llvm::ConcreteOperator\l\&lt; Operator, Instruction\l::GetElementPtr \&gt;">
<polygon fill="none" stroke="black" points="406,-180.5 406,-221.5 524,-221.5 524,-180.5 406,-180.5"/>
<text text-anchor="start" x="414" y="-209.5" font-family="Helvetica,sans-Serif" font-size="10.00">llvm::ConcreteOperator</text>
<text text-anchor="start" x="414" y="-198.5" font-family="Helvetica,sans-Serif" font-size="10.00">&lt; Operator, Instruction</text>
<text text-anchor="middle" x="465" y="-187.5" font-family="Helvetica,sans-Serif" font-size="10.00">::GetElementPtr &gt;</text>
</a>
</g>
</g>
<!-- Node0&#45;&gt;Node18 -->
<g id="edge18" class="edge">
<title>Node0&#45;&gt;Node18</title>
<path fill="none" stroke="orange" stroke-dasharray="5,2" d="M175.2,-325.48C187.1,-300.08 209.27,-261.32 241,-241 267.7,-223.89 349.24,-212.47 405.94,-206.35"/>
<polygon fill="orange" stroke="orange" points="171.91,-324.25 171,-334.81 178.29,-327.12 171.91,-324.25"/>
<text text-anchor="start" x="256.5" y="-255" font-family="Helvetica,sans-Serif" font-size="10.00"> &lt; Operator, Instruction</text>
<text text-anchor="middle" x="307.5" y="-244" font-family="Helvetica,sans-Serif" font-size="10.00">::GetElementPtr &gt;</text>
</g>
<!-- Node20 -->
<g id="node21" class="node">
<title>Node20</title>
<g id="a_node21"><a xlink:href="classllvm_1_1ConcreteOperator.html" target="_top" xlink:title="llvm::ConcreteOperator\l\&lt; PossiblyExactOperator,\l Instruction::AShr \&gt;">
<polygon fill="none" stroke="black" points="400.5,-120.5 400.5,-161.5 529.5,-161.5 529.5,-120.5 400.5,-120.5"/>
<text text-anchor="start" x="408.5" y="-149.5" font-family="Helvetica,sans-Serif" font-size="10.00">llvm::ConcreteOperator</text>
<text text-anchor="start" x="408.5" y="-138.5" font-family="Helvetica,sans-Serif" font-size="10.00">&lt; PossiblyExactOperator,</text>
<text text-anchor="middle" x="465" y="-127.5" font-family="Helvetica,sans-Serif" font-size="10.00"> Instruction::AShr &gt;</text>
</a>
</g>
</g>
<!-- Node0&#45;&gt;Node20 -->
<g id="edge20" class="edge">
<title>Node0&#45;&gt;Node20</title>
<path fill="none" stroke="orange" stroke-dasharray="5,2" d="M169.18,-324.98C176.7,-288.26 196.12,-220.34 241,-185 286.11,-149.48 351.98,-140.12 400.44,-138.66"/>
<polygon fill="orange" stroke="orange" points="165.73,-324.4 167.29,-334.88 172.61,-325.71 165.73,-324.4"/>
<text text-anchor="start" x="249.5" y="-199" font-family="Helvetica,sans-Serif" font-size="10.00"> &lt; PossiblyExactOperator,</text>
<text text-anchor="middle" x="307.5" y="-188" font-family="Helvetica,sans-Serif" font-size="10.00"> Instruction::AShr &gt;</text>
</g>
<!-- Node22 -->
<g id="node23" class="node">
<title>Node22</title>
<g id="a_node23"><a xlink:href="classllvm_1_1ConcreteOperator.html" target="_top" xlink:title="llvm::ConcreteOperator\l\&lt; OverflowingBinaryOperator,\l Instruction::Mul \&gt;">
<polygon fill="none" stroke="black" points="392,-60.5 392,-101.5 538,-101.5 538,-60.5 392,-60.5"/>
<text text-anchor="start" x="400" y="-89.5" font-family="Helvetica,sans-Serif" font-size="10.00">llvm::ConcreteOperator</text>
<text text-anchor="start" x="400" y="-78.5" font-family="Helvetica,sans-Serif" font-size="10.00">&lt; OverflowingBinaryOperator,</text>
<text text-anchor="middle" x="465" y="-67.5" font-family="Helvetica,sans-Serif" font-size="10.00"> Instruction::Mul &gt;</text>
</a>
</g>
</g>
<!-- Node0&#45;&gt;Node22 -->
<g id="edge22" class="edge">
<title>Node0&#45;&gt;Node22</title>
<path fill="none" stroke="orange" stroke-dasharray="5,2" d="M165.07,-324.69C166.68,-275.88 177.68,-168.84 241,-115 282.17,-79.99 343.76,-72.85 391.78,-73.7"/>
<polygon fill="orange" stroke="orange" points="161.57,-324.64 164.84,-334.71 168.57,-324.79 161.57,-324.64"/>
<text text-anchor="start" x="241" y="-129" font-family="Helvetica,sans-Serif" font-size="10.00"> &lt; OverflowingBinaryOperator,</text>
<text text-anchor="middle" x="307.5" y="-118" font-family="Helvetica,sans-Serif" font-size="10.00"> Instruction::Mul &gt;</text>
</g>
<!-- Node24 -->
<g id="node25" class="node">
<title>Node24</title>
<g id="a_node25"><a xlink:href="classllvm_1_1ConcreteOperator.html" target="_top" xlink:title="llvm::ConcreteOperator\l\&lt; Operator, Instruction\l::PtrToInt \&gt;">
<polygon fill="none" stroke="black" points="406,-0.5 406,-41.5 524,-41.5 524,-0.5 406,-0.5"/>
<text text-anchor="start" x="414" y="-29.5" font-family="Helvetica,sans-Serif" font-size="10.00">llvm::ConcreteOperator</text>
<text text-anchor="start" x="414" y="-18.5" font-family="Helvetica,sans-Serif" font-size="10.00">&lt; Operator, Instruction</text>
<text text-anchor="middle" x="465" y="-7.5" font-family="Helvetica,sans-Serif" font-size="10.00">::PtrToInt &gt;</text>
</a>
</g>
</g>
<!-- Node0&#45;&gt;Node24 -->
<g id="edge24" class="edge">
<title>Node0&#45;&gt;Node24</title>
<path fill="none" stroke="orange" stroke-dasharray="5,2" d="M167.72,-324.68C175.34,-258.86 199.11,-84.92 241,-48 285.47,-8.81 355.75,-6.64 405.51,-11.34"/>
<polygon fill="orange" stroke="orange" points="164.2,-324.64 166.56,-334.97 171.16,-325.43 164.2,-324.64"/>
<text text-anchor="start" x="256.5" y="-62" font-family="Helvetica,sans-Serif" font-size="10.00"> &lt; Operator, Instruction</text>
<text text-anchor="middle" x="307.5" y="-51" font-family="Helvetica,sans-Serif" font-size="10.00">::PtrToInt &gt;</text>
</g>
<!-- Node1 -->
<g id="node2" class="node">
<title>Node1</title>
<g id="a_node2"><a xlink:href="classllvm_1_1SuperClass.html" target="_top" xlink:title="SuperClass">
<polygon fill="none" stroke="black" points="0,-340.5 0,-359.5 68,-359.5 68,-340.5 0,-340.5"/>
<text text-anchor="middle" x="34" y="-347.5" font-family="Helvetica,sans-Serif" font-size="10.00">SuperClass</text>
</a>
</g>
</g>
<!-- Node1&#45;&gt;Node0 -->
<g id="edge1" class="edge">
<title>Node1&#45;&gt;Node0</title>
<path fill="none" stroke="midnightblue" d="M78.57,-350C86.94,-350 95.83,-350 104.58,-350"/>
<polygon fill="midnightblue" stroke="midnightblue" points="78.3,-346.5 68.3,-350 78.3,-353.5 78.3,-346.5"/>
</g>
<!-- Node3 -->
<g id="node4" class="node">
<title>Node3</title>
<g id="a_node4"><a xlink:href="classllvm_1_1ZExtOperator.html" target="_top" xlink:title="llvm::ZExtOperator">
<polygon fill="none" stroke="black" points="582,-671.5 582,-690.5 681,-690.5 681,-671.5 582,-671.5"/>
<text text-anchor="middle" x="631.5" y="-678.5" font-family="Helvetica,sans-Serif" font-size="10.00">llvm::ZExtOperator</text>
</a>
</g>
</g>
<!-- Node2&#45;&gt;Node3 -->
<g id="edge3" class="edge">
<title>Node2&#45;&gt;Node3</title>
<path fill="none" stroke="midnightblue" d="M534.77,-681C550.64,-681 567.2,-681 582,-681"/>
<polygon fill="midnightblue" stroke="midnightblue" points="534.46,-677.5 524.46,-681 534.46,-684.5 534.46,-677.5"/>
</g>
<!-- Node5 -->
<g id="node6" class="node">
<title>Node5</title>
<g id="a_node6"><a xlink:href="classllvm_1_1SDivOperator.html" target="_top" xlink:title="llvm::SDivOperator">
<polygon fill="none" stroke="black" points="581.5,-611.5 581.5,-630.5 681.5,-630.5 681.5,-611.5 581.5,-611.5"/>
<text text-anchor="middle" x="631.5" y="-618.5" font-family="Helvetica,sans-Serif" font-size="10.00">llvm::SDivOperator</text>
</a>
</g>
</g>
<!-- Node4&#45;&gt;Node5 -->
<g id="edge5" class="edge">
<title>Node4&#45;&gt;Node5</title>
<path fill="none" stroke="midnightblue" d="M539.77,-621C553.86,-621 568.28,-621 581.36,-621"/>
<polygon fill="midnightblue" stroke="midnightblue" points="539.6,-617.5 529.6,-621 539.6,-624.5 539.6,-617.5"/>
</g>
<!-- Node7 -->
<g id="node8" class="node">
<title>Node7</title>
<g id="a_node8"><a xlink:href="classllvm_1_1BitCastOperator.html" target="_top" xlink:title="llvm::BitCastOperator">
<polygon fill="none" stroke="black" points="576,-551.5 576,-570.5 687,-570.5 687,-551.5 576,-551.5"/>
<text text-anchor="middle" x="631.5" y="-558.5" font-family="Helvetica,sans-Serif" font-size="10.00">llvm::BitCastOperator</text>
</a>
</g>
</g>
<!-- Node6&#45;&gt;Node7 -->
<g id="edge7" class="edge">
<title>Node6&#45;&gt;Node7</title>
<path fill="none" stroke="midnightblue" d="M534.8,-561C548.48,-561 562.67,-561 575.8,-561"/>
<polygon fill="midnightblue" stroke="midnightblue" points="534.46,-557.5 524.46,-561 534.46,-564.5 534.46,-557.5"/>
</g>
<!-- Node9 -->
<g id="node10" class="node">
<title>Node9</title>
<g id="a_node10"><a xlink:href="classllvm_1_1AddOperator.html" target="_top" xlink:title="llvm::AddOperator">
<polygon fill="none" stroke="black" points="584,-491.5 584,-510.5 679,-510.5 679,-491.5 584,-491.5"/>
<text text-anchor="middle" x="631.5" y="-498.5" font-family="Helvetica,sans-Serif" font-size="10.00">llvm::AddOperator</text>
</a>
</g>
</g>
<!-- Node8&#45;&gt;Node9 -->
<g id="edge9" class="edge">
<title>Node8&#45;&gt;Node9</title>
<path fill="none" stroke="midnightblue" d="M548.4,-501C560.62,-501 572.84,-501 583.97,-501"/>
<polygon fill="midnightblue" stroke="midnightblue" points="548.15,-497.5 538.15,-501 548.15,-504.5 548.15,-497.5"/>
</g>
<!-- Node11 -->
<g id="node12" class="node">
<title>Node11</title>
<g id="a_node12"><a xlink:href="classllvm_1_1SubOperator.html" target="_top" xlink:title="llvm::SubOperator">
<polygon fill="none" stroke="black" points="584,-431.5 584,-450.5 679,-450.5 679,-431.5 584,-431.5"/>
<text text-anchor="middle" x="631.5" y="-438.5" font-family="Helvetica,sans-Serif" font-size="10.00">llvm::SubOperator</text>
</a>
</g>
</g>
<!-- Node10&#45;&gt;Node11 -->
<g id="edge11" class="edge">
<title>Node10&#45;&gt;Node11</title>
<path fill="none" stroke="midnightblue" d="M548.4,-441C560.62,-441 572.84,-441 583.97,-441"/>
<polygon fill="midnightblue" stroke="midnightblue" points="548.15,-437.5 538.15,-441 548.15,-444.5 548.15,-437.5"/>
</g>
<!-- Node13 -->
<g id="node14" class="node">
<title>Node13</title>
<g id="a_node14"><a xlink:href="classllvm_1_1ShlOperator.html" target="_top" xlink:title="llvm::ShlOperator">
<polygon fill="none" stroke="black" points="585.5,-371.5 585.5,-390.5 677.5,-390.5 677.5,-371.5 585.5,-371.5"/>
<text text-anchor="middle" x="631.5" y="-378.5" font-family="Helvetica,sans-Serif" font-size="10.00">llvm::ShlOperator</text>
</a>
</g>
</g>
<!-- Node12&#45;&gt;Node13 -->
<g id="edge13" class="edge">
<title>Node12&#45;&gt;Node13</title>
<path fill="none" stroke="midnightblue" d="M548.36,-381C561.11,-381 573.87,-381 585.39,-381"/>
<polygon fill="midnightblue" stroke="midnightblue" points="548.15,-377.5 538.15,-381 548.15,-384.5 548.15,-377.5"/>
</g>
<!-- Node15 -->
<g id="node16" class="node">
<title>Node15</title>
<g id="a_node16"><a xlink:href="classllvm_1_1UDivOperator.html" target="_top" xlink:title="llvm::UDivOperator">
<polygon fill="none" stroke="black" points="581,-311.5 581,-330.5 682,-330.5 682,-311.5 581,-311.5"/>
<text text-anchor="middle" x="631.5" y="-318.5" font-family="Helvetica,sans-Serif" font-size="10.00">llvm::UDivOperator</text>
</a>
</g>
</g>
<!-- Node14&#45;&gt;Node15 -->
<g id="edge15" class="edge">
<title>Node14&#45;&gt;Node15</title>
<path fill="none" stroke="midnightblue" d="M539.66,-321C553.6,-321 567.87,-321 580.84,-321"/>
<polygon fill="midnightblue" stroke="midnightblue" points="539.6,-317.5 529.6,-321 539.6,-324.5 539.6,-317.5"/>
</g>
<!-- Node17 -->
<g id="node18" class="node">
<title>Node17</title>
<g id="a_node18"><a xlink:href="classllvm_1_1LShrOperator.html" target="_top" xlink:title="llvm::LShrOperator">
<polygon fill="none" stroke="black" points="582.5,-251.5 582.5,-270.5 680.5,-270.5 680.5,-251.5 582.5,-251.5"/>
<text text-anchor="middle" x="631.5" y="-258.5" font-family="Helvetica,sans-Serif" font-size="10.00">llvm::LShrOperator</text>
</a>
</g>
</g>
<!-- Node16&#45;&gt;Node17 -->
<g id="edge17" class="edge">
<title>Node16&#45;&gt;Node17</title>
<path fill="none" stroke="midnightblue" d="M539.99,-261C554.37,-261 569.1,-261 582.38,-261"/>
<polygon fill="midnightblue" stroke="midnightblue" points="539.6,-257.5 529.6,-261 539.6,-264.5 539.6,-257.5"/>
</g>
<!-- Node19 -->
<g id="node20" class="node">
<title>Node19</title>
<g id="a_node20"><a xlink:href="classllvm_1_1GEPOperator.html" target="_top" xlink:title="llvm::GEPOperator">
<polygon fill="none" stroke="black" points="582,-191.5 582,-210.5 681,-210.5 681,-191.5 582,-191.5"/>
<text text-anchor="middle" x="631.5" y="-198.5" font-family="Helvetica,sans-Serif" font-size="10.00">llvm::GEPOperator</text>
</a>
</g>
</g>
<!-- Node18&#45;&gt;Node19 -->
<g id="edge19" class="edge">
<title>Node18&#45;&gt;Node19</title>
<path fill="none" stroke="midnightblue" d="M534.77,-201C550.64,-201 567.2,-201 582,-201"/>
<polygon fill="midnightblue" stroke="midnightblue" points="534.46,-197.5 524.46,-201 534.46,-204.5 534.46,-197.5"/>
</g>
<!-- Node21 -->
<g id="node22" class="node">
<title>Node21</title>
<g id="a_node22"><a xlink:href="classllvm_1_1AShrOperator.html" target="_top" xlink:title="llvm::AShrOperator">
<polygon fill="none" stroke="black" points="581.5,-131.5 581.5,-150.5 681.5,-150.5 681.5,-131.5 581.5,-131.5"/>
<text text-anchor="middle" x="631.5" y="-138.5" font-family="Helvetica,sans-Serif" font-size="10.00">llvm::AShrOperator</text>
</a>
</g>
</g>
<!-- Node20&#45;&gt;Node21 -->
<g id="edge21" class="edge">
<title>Node20&#45;&gt;Node21</title>
<path fill="none" stroke="midnightblue" d="M539.77,-141C553.86,-141 568.28,-141 581.36,-141"/>
<polygon fill="midnightblue" stroke="midnightblue" points="539.6,-137.5 529.6,-141 539.6,-144.5 539.6,-137.5"/>
</g>
<!-- Node23 -->
<g id="node24" class="node">
<title>Node23</title>
<g id="a_node24"><a xlink:href="classllvm_1_1MulOperator.html" target="_top" xlink:title="llvm::MulOperator">
<polygon fill="none" stroke="black" points="584.5,-71.5 584.5,-90.5 678.5,-90.5 678.5,-71.5 584.5,-71.5"/>
<text text-anchor="middle" x="631.5" y="-78.5" font-family="Helvetica,sans-Serif" font-size="10.00">llvm::MulOperator</text>
</a>
</g>
</g>
<!-- Node22&#45;&gt;Node23 -->
<g id="edge23" class="edge">
<title>Node22&#45;&gt;Node23</title>
<path fill="none" stroke="midnightblue" d="M548.51,-81C560.87,-81 573.22,-81 584.44,-81"/>
<polygon fill="midnightblue" stroke="midnightblue" points="548.15,-77.5 538.15,-81 548.15,-84.5 548.15,-77.5"/>
</g>
<!-- Node25 -->
<g id="node26" class="node">
<title>Node25</title>
<g id="a_node26"><a xlink:href="classllvm_1_1PtrToIntOperator.html" target="_top" xlink:title="llvm::PtrToIntOperator">
<polygon fill="none" stroke="black" points="575,-11.5 575,-30.5 688,-30.5 688,-11.5 575,-11.5"/>
<text text-anchor="middle" x="631.5" y="-18.5" font-family="Helvetica,sans-Serif" font-size="10.00">llvm::PtrToIntOperator</text>
</a>
</g>
</g>
<!-- Node24&#45;&gt;Node25 -->
<g id="edge25" class="edge">
<title>Node24&#45;&gt;Node25</title>
<path fill="none" stroke="midnightblue" d="M534.62,-21C548.07,-21 562.03,-21 574.98,-21"/>
<polygon fill="midnightblue" stroke="midnightblue" points="534.46,-17.5 524.46,-21 534.46,-24.5 534.46,-17.5"/>
</g>
</g>
</svg>
