<?xml version="1.0" encoding="UTF-8" standalone="no"?>
<!DOCTYPE svg PUBLIC "-//W3C//DTD SVG 1.1//EN"
 "http://www.w3.org/Graphics/SVG/1.1/DTD/svg11.dtd">
<!-- Generated by graphviz version 2.43.0 (0)
 -->
<!-- Title: llvm::BinOpInit Pages: 1 -->
<svg width="187pt" height="196pt"
 viewBox="0.00 0.00 186.50 196.00" xmlns="http://www.w3.org/2000/svg" xmlns:xlink="http://www.w3.org/1999/xlink">
<g id="graph0" class="graph" transform="scale(1 1) rotate(0) translate(4 192)">
<title>llvm::BinOpInit</title>
<!-- Node0 -->
<g id="node1" class="node">
<title>Node0</title>
<polygon fill="#bfbfbf" stroke="black" points="47,-0.5 47,-19.5 128,-19.5 128,-0.5 47,-0.5"/>
<text text-anchor="middle" x="87.5" y="-7.5" font-family="Helvetica,sans-Serif" font-size="10.00">llvm::BinOpInit</text>
</g>
<!-- Node1 -->
<g id="node2" class="node">
<title>Node1</title>
<g id="a_node2"><a xlink:href="classllvm_1_1OpInit.html" target="_top" xlink:title="Base class for operators. ">
<polygon fill="none" stroke="black" points="7,-56.5 7,-75.5 74,-75.5 74,-56.5 7,-56.5"/>
<text text-anchor="middle" x="40.5" y="-63.5" font-family="Helvetica,sans-Serif" font-size="10.00">llvm::OpInit</text>
</a>
</g>
</g>
<!-- Node1&#45;&gt;Node0 -->
<g id="edge1" class="edge">
<title>Node1&#45;&gt;Node0</title>
<path fill="none" stroke="midnightblue" d="M54.92,-48.43C63.16,-38.97 73.15,-27.48 79.88,-19.75"/>
<polygon fill="midnightblue" stroke="midnightblue" points="52.19,-46.24 48.26,-56.08 57.47,-50.84 52.19,-46.24"/>
</g>
<!-- Node2 -->
<g id="node3" class="node">
<title>Node2</title>
<g id="a_node3"><a xlink:href="classllvm_1_1TypedInit.html" target="_top" xlink:title="This is the common super&#45;class of types that have a specific, explicit, type. ">
<polygon fill="none" stroke="black" points="0,-112.5 0,-131.5 81,-131.5 81,-112.5 0,-112.5"/>
<text text-anchor="middle" x="40.5" y="-119.5" font-family="Helvetica,sans-Serif" font-size="10.00">llvm::TypedInit</text>
</a>
</g>
</g>
<!-- Node2&#45;&gt;Node1 -->
<g id="edge2" class="edge">
<title>Node2&#45;&gt;Node1</title>
<path fill="none" stroke="midnightblue" d="M40.5,-101.8C40.5,-92.91 40.5,-82.78 40.5,-75.75"/>
<polygon fill="midnightblue" stroke="midnightblue" points="37,-102.08 40.5,-112.08 44,-102.08 37,-102.08"/>
</g>
<!-- Node3 -->
<g id="node4" class="node">
<title>Node3</title>
<g id="a_node4"><a xlink:href="classllvm_1_1Init.html" target="_top" xlink:title="llvm::Init">
<polygon fill="none" stroke="black" points="13.5,-168.5 13.5,-187.5 67.5,-187.5 67.5,-168.5 13.5,-168.5"/>
<text text-anchor="middle" x="40.5" y="-175.5" font-family="Helvetica,sans-Serif" font-size="10.00">llvm::Init</text>
</a>
</g>
</g>
<!-- Node3&#45;&gt;Node2 -->
<g id="edge3" class="edge">
<title>Node3&#45;&gt;Node2</title>
<path fill="none" stroke="midnightblue" d="M40.5,-157.8C40.5,-148.91 40.5,-138.78 40.5,-131.75"/>
<polygon fill="midnightblue" stroke="midnightblue" points="37,-158.08 40.5,-168.08 44,-158.08 37,-158.08"/>
</g>
<!-- Node4 -->
<g id="node5" class="node">
<title>Node4</title>
<g id="a_node5"><a xlink:href="classllvm_1_1FoldingSetBase_1_1Node.html" target="_top" xlink:title="Node &#45; This class is used to maintain the singly linked bucket list in a folding set. ">
<polygon fill="none" stroke="black" points="92.5,-56.5 92.5,-75.5 178.5,-75.5 178.5,-56.5 92.5,-56.5"/>
<text text-anchor="middle" x="135.5" y="-63.5" font-family="Helvetica,sans-Serif" font-size="10.00">FoldingSetNode</text>
</a>
</g>
</g>
<!-- Node4&#45;&gt;Node0 -->
<g id="edge4" class="edge">
<title>Node4&#45;&gt;Node0</title>
<path fill="none" stroke="midnightblue" d="M120.77,-48.43C112.36,-38.97 102.15,-27.48 95.28,-19.75"/>
<polygon fill="midnightblue" stroke="midnightblue" points="118.31,-50.93 127.57,-56.08 123.55,-46.28 118.31,-50.93"/>
</g>
</g>
</svg>
