<?xml version="1.0" encoding="UTF-8" standalone="no"?>
<!DOCTYPE svg PUBLIC "-//W3C//DTD SVG 1.1//EN"
 "http://www.w3.org/Graphics/SVG/1.1/DTD/svg11.dtd">
<!-- Generated by graphviz version 2.43.0 (0)
 -->
<!-- Title: llvm::WebAssemblyTTIImpl Pages: 1 -->
<svg width="1264pt" height="78pt"
 viewBox="0.00 0.00 1264.00 77.50" xmlns="http://www.w3.org/2000/svg" xmlns:xlink="http://www.w3.org/1999/xlink">
<g id="graph0" class="graph" transform="scale(1 1) rotate(0) translate(4 73.5)">
<title>llvm::WebAssemblyTTIImpl</title>
<!-- Node6 -->
<g id="node1" class="node">
<title>Node6</title>
<polygon fill="#bfbfbf" stroke="black" points="1118,-22.5 1118,-41.5 1256,-41.5 1256,-22.5 1118,-22.5"/>
<text text-anchor="middle" x="1187" y="-29.5" font-family="Helvetica,sans-Serif" font-size="10.00">llvm::WebAssemblyTTIImpl</text>
</g>
<!-- Node7 -->
<g id="node2" class="node">
<title>Node7</title>
<g id="a_node2"><a xlink:href="classllvm_1_1BasicTTIImplBase.html" target="_top" xlink:title="llvm::BasicTTIImplBase\l\&lt; WebAssemblyTTIImpl \&gt;">
<polygon fill="none" stroke="black" points="949,-17 949,-47 1081,-47 1081,-17 949,-17"/>
<text text-anchor="start" x="957" y="-35" font-family="Helvetica,sans-Serif" font-size="10.00">llvm::BasicTTIImplBase</text>
<text text-anchor="middle" x="1015" y="-24" font-family="Helvetica,sans-Serif" font-size="10.00">&lt; WebAssemblyTTIImpl &gt;</text>
</a>
</g>
</g>
<!-- Node7&#45;&gt;Node6 -->
<g id="edge1" class="edge">
<title>Node7&#45;&gt;Node6</title>
<path fill="none" stroke="midnightblue" d="M1091.46,-32C1100.24,-32 1109.16,-32 1117.83,-32"/>
<polygon fill="midnightblue" stroke="midnightblue" points="1091.24,-28.5 1081.24,-32 1091.24,-35.5 1091.24,-28.5"/>
</g>
<!-- Node8 -->
<g id="node3" class="node">
<title>Node8</title>
<g id="a_node3"><a xlink:href="classllvm_1_1TargetTransformInfoImplCRTPBase.html" target="_top" xlink:title="llvm::TargetTransformInfo\lImplCRTPBase\&lt; WebAssemblyTTIImpl \&gt;">
<polygon fill="none" stroke="black" points="593,-39 593,-69 794,-69 794,-39 593,-39"/>
<text text-anchor="start" x="601" y="-57" font-family="Helvetica,sans-Serif" font-size="10.00">llvm::TargetTransformInfo</text>
<text text-anchor="middle" x="693.5" y="-46" font-family="Helvetica,sans-Serif" font-size="10.00">ImplCRTPBase&lt; WebAssemblyTTIImpl &gt;</text>
</a>
</g>
</g>
<!-- Node8&#45;&gt;Node7 -->
<g id="edge2" class="edge">
<title>Node8&#45;&gt;Node7</title>
<path fill="none" stroke="midnightblue" d="M804.42,-46.43C852.48,-43.12 907.23,-39.35 948.71,-36.5"/>
<polygon fill="midnightblue" stroke="midnightblue" points="804.01,-42.95 794.28,-47.13 804.49,-49.93 804.01,-42.95"/>
</g>
<!-- Node9 -->
<g id="node4" class="node">
<title>Node9</title>
<g id="a_node4"><a xlink:href="classllvm_1_1TargetTransformInfoImplBase.html" target="_top" xlink:title="Base class for use as a mix&#45;in that aids implementing a TargetTransformInfo&#45;compatible class...">
<polygon fill="none" stroke="black" points="143,-32 143,-62 272,-62 272,-32 143,-32"/>
<text text-anchor="start" x="151" y="-50" font-family="Helvetica,sans-Serif" font-size="10.00">llvm::TargetTransformInfo</text>
<text text-anchor="middle" x="207.5" y="-39" font-family="Helvetica,sans-Serif" font-size="10.00">ImplBase</text>
</a>
</g>
</g>
<!-- Node9&#45;&gt;Node8 -->
<g id="edge3" class="edge">
<title>Node9&#45;&gt;Node8</title>
<path fill="none" stroke="midnightblue" d="M282.27,-49.74C284.88,-49.83 287.46,-49.92 290,-50 363.77,-52.47 382.2,-53.89 456,-55 508.88,-55.8 522.11,-55.23 575,-55 580.81,-54.98 586.79,-54.94 592.82,-54.91"/>
<polygon fill="midnightblue" stroke="midnightblue" points="282.24,-46.23 272.12,-49.38 281.99,-53.23 282.24,-46.23"/>
</g>
<!-- Node11 -->
<g id="node6" class="node">
<title>Node11</title>
<g id="a_node6"><a xlink:href="classllvm_1_1TargetTransformInfoImplCRTPBase.html" target="_top" xlink:title="CRTP base class for use as a mix&#45;in that aids implementing a TargetTransformInfo&#45;compatible class...">
<polygon fill="none" stroke="black" points="309,-10 309,-40 438,-40 438,-10 309,-10"/>
<text text-anchor="start" x="317" y="-28" font-family="Helvetica,sans-Serif" font-size="10.00">llvm::TargetTransformInfo</text>
<text text-anchor="middle" x="373.5" y="-17" font-family="Helvetica,sans-Serif" font-size="10.00">ImplCRTPBase&lt; T &gt;</text>
</a>
</g>
</g>
<!-- Node9&#45;&gt;Node11 -->
<g id="edge6" class="edge">
<title>Node9&#45;&gt;Node11</title>
<path fill="none" stroke="midnightblue" d="M282.29,-37.1C291.14,-35.91 300.11,-34.71 308.8,-33.55"/>
<polygon fill="midnightblue" stroke="midnightblue" points="281.82,-33.63 272.38,-38.43 282.75,-40.57 281.82,-33.63"/>
</g>
<!-- Node10 -->
<g id="node5" class="node">
<title>Node10</title>
<g id="a_node5"><a xlink:href="classllvm_1_1DataLayout.html" target="_top" xlink:title="A parsed version of the target data layout string in and methods for querying it. ...">
<polygon fill="none" stroke="black" points="0,-37.5 0,-56.5 91,-56.5 91,-37.5 0,-37.5"/>
<text text-anchor="middle" x="45.5" y="-44.5" font-family="Helvetica,sans-Serif" font-size="10.00">llvm::DataLayout</text>
</a>
</g>
</g>
<!-- Node10&#45;&gt;Node9 -->
<g id="edge4" class="edge">
<title>Node10&#45;&gt;Node9</title>
<path fill="none" stroke="#9a32cd" stroke-dasharray="5,2" d="M101.08,-47C114.48,-47 128.95,-47 142.74,-47"/>
<polygon fill="#9a32cd" stroke="#9a32cd" points="101.07,-43.5 91.07,-47 101.07,-50.5 101.07,-43.5"/>
<text text-anchor="middle" x="117" y="-50" font-family="Helvetica,sans-Serif" font-size="10.00"> DL</text>
</g>
<!-- Node11&#45;&gt;Node8 -->
<g id="edge5" class="edge">
<title>Node11&#45;&gt;Node8</title>
<path fill="none" stroke="orange" stroke-dasharray="5,2" d="M448.18,-31.72C491.15,-35.64 545.92,-40.63 592.71,-44.9"/>
<polygon fill="orange" stroke="orange" points="448.36,-28.22 438.09,-30.8 447.73,-35.19 448.36,-28.22"/>
<text text-anchor="middle" x="515.5" y="-46" font-family="Helvetica,sans-Serif" font-size="10.00"> &lt; WebAssemblyTTIImpl &gt;</text>
</g>
<!-- Node12 -->
<g id="node7" class="node">
<title>Node12</title>
<g id="a_node7"><a xlink:href="classllvm_1_1BasicTTIImplBase.html" target="_top" xlink:title="Base class which can be used to help build a TTI implementation. ">
<polygon fill="none" stroke="black" points="620.5,-0.5 620.5,-19.5 766.5,-19.5 766.5,-0.5 620.5,-0.5"/>
<text text-anchor="middle" x="693.5" y="-7.5" font-family="Helvetica,sans-Serif" font-size="10.00">llvm::BasicTTIImplBase&lt; T &gt;</text>
</a>
</g>
</g>
<!-- Node11&#45;&gt;Node12 -->
<g id="edge8" class="edge">
<title>Node11&#45;&gt;Node12</title>
<path fill="none" stroke="midnightblue" d="M448.21,-21.52C500.01,-19.08 568.98,-15.83 620.42,-13.4"/>
<polygon fill="midnightblue" stroke="midnightblue" points="447.91,-18.03 438.09,-22 448.24,-25.03 447.91,-18.03"/>
</g>
<!-- Node12&#45;&gt;Node7 -->
<g id="edge7" class="edge">
<title>Node12&#45;&gt;Node7</title>
<path fill="none" stroke="orange" stroke-dasharray="5,2" d="M776.87,-13.45C822.36,-15.63 879.85,-18.82 931,-23 936.78,-23.47 942.78,-24.02 948.79,-24.6"/>
<polygon fill="orange" stroke="orange" points="776.91,-9.95 766.76,-12.98 776.59,-16.94 776.91,-9.95"/>
<text text-anchor="middle" x="871.5" y="-26" font-family="Helvetica,sans-Serif" font-size="10.00"> &lt; WebAssemblyTTIImpl &gt;</text>
</g>
</g>
</svg>
