<?xml version="1.0" encoding="UTF-8" standalone="no"?>
<!DOCTYPE svg PUBLIC "-//W3C//DTD SVG 1.1//EN"
 "http://www.w3.org/Graphics/SVG/1.1/DTD/svg11.dtd">
<!-- Generated by graphviz version 2.43.0 (0)
 -->
<!-- Title: llvm::TargetLoweringBase Pages: 1 -->
<svg width="330pt" height="205pt"
 viewBox="0.00 0.00 329.50 205.00" xmlns="http://www.w3.org/2000/svg" xmlns:xlink="http://www.w3.org/1999/xlink">
<g id="graph0" class="graph" transform="scale(1 1) rotate(0) translate(4 201)">
<title>llvm::TargetLoweringBase</title>
<!-- Node25 -->
<g id="node1" class="node">
<title>Node25</title>
<polygon fill="#bfbfbf" stroke="black" points="30.5,-0.5 30.5,-19.5 160.5,-19.5 160.5,-0.5 30.5,-0.5"/>
<text text-anchor="middle" x="95.5" y="-7.5" font-family="Helvetica,sans-Serif" font-size="10.00">llvm::TargetLoweringBase</text>
</g>
<!-- Node26 -->
<g id="node2" class="node">
<title>Node26</title>
<g id="a_node2"><a xlink:href="classbool.html" target="_top" xlink:title="bool">
<polygon fill="none" stroke="black" points="0,-177.5 0,-196.5 35,-196.5 35,-177.5 0,-177.5"/>
<text text-anchor="middle" x="17.5" y="-184.5" font-family="Helvetica,sans-Serif" font-size="10.00">bool</text>
</a>
</g>
</g>
<!-- Node26&#45;&gt;Node25 -->
<g id="edge1" class="edge">
<title>Node26&#45;&gt;Node25</title>
<path fill="none" stroke="#9a32cd" stroke-dasharray="5,2" d="M11.47,-167.65C2.8,-137.49 -9.3,-76.92 18.5,-38 24.59,-29.47 33.6,-23.61 43.32,-19.6"/>
<polygon fill="#9a32cd" stroke="#9a32cd" points="8.15,-168.75 14.43,-177.29 14.84,-166.7 8.15,-168.75"/>
<text text-anchor="middle" x="85.5" y="-107" font-family="Helvetica,sans-Serif" font-size="10.00"> PredictableSelectIsExpensive</text>
<text text-anchor="middle" x="85.5" y="-96" font-family="Helvetica,sans-Serif" font-size="10.00">EnableExtLdPromotion</text>
<text text-anchor="middle" x="85.5" y="-85" font-family="Helvetica,sans-Serif" font-size="10.00">IsStrictFPEnabled</text>
</g>
<!-- Node27 -->
<g id="node3" class="node">
<title>Node27</title>
<g id="a_node3"><a xlink:href="classunsigned.html" target="_top" xlink:title="unsigned">
<polygon fill="none" stroke="black" points="146.5,-177.5 146.5,-196.5 202.5,-196.5 202.5,-177.5 146.5,-177.5"/>
<text text-anchor="middle" x="174.5" y="-184.5" font-family="Helvetica,sans-Serif" font-size="10.00">unsigned</text>
</a>
</g>
</g>
<!-- Node27&#45;&gt;Node25 -->
<g id="edge2" class="edge">
<title>Node27&#45;&gt;Node25</title>
<path fill="none" stroke="#9a32cd" stroke-dasharray="5,2" d="M176.95,-167.23C179.86,-136.91 181.17,-76.67 152.5,-38 146.24,-29.56 136.66,-23.65 127.13,-19.56"/>
<polygon fill="#9a32cd" stroke="#9a32cd" points="173.46,-166.95 175.82,-177.28 180.42,-167.73 173.46,-166.95"/>
<text text-anchor="middle" x="249.5" y="-151" font-family="Helvetica,sans-Serif" font-size="10.00"> MaxStoresPerMemcpyOptSize</text>
<text text-anchor="middle" x="249.5" y="-140" font-family="Helvetica,sans-Serif" font-size="10.00">MaxLoadsPerMemcmpOptSize</text>
<text text-anchor="middle" x="249.5" y="-129" font-family="Helvetica,sans-Serif" font-size="10.00">MaxStoresPerMemsetOptSize</text>
<text text-anchor="middle" x="249.5" y="-118" font-family="Helvetica,sans-Serif" font-size="10.00">MaxStoresPerMemmoveOptSize</text>
<text text-anchor="middle" x="249.5" y="-107" font-family="Helvetica,sans-Serif" font-size="10.00">MaxStoresPerMemcpy</text>
<text text-anchor="middle" x="249.5" y="-96" font-family="Helvetica,sans-Serif" font-size="10.00">MaxGluedStoresPerMemcpy</text>
<text text-anchor="middle" x="249.5" y="-85" font-family="Helvetica,sans-Serif" font-size="10.00">MaxStoresPerMemset</text>
<text text-anchor="middle" x="249.5" y="-74" font-family="Helvetica,sans-Serif" font-size="10.00">MaxStoresPerMemmove</text>
<text text-anchor="middle" x="249.5" y="-63" font-family="Helvetica,sans-Serif" font-size="10.00">MaxLoadsPerMemcmp</text>
<text text-anchor="middle" x="249.5" y="-52" font-family="Helvetica,sans-Serif" font-size="10.00">GatherAllAliasesMaxDepth</text>
<text text-anchor="middle" x="249.5" y="-41" font-family="Helvetica,sans-Serif" font-size="10.00">...</text>
</g>
</g>
</svg>
