<?xml version="1.0" encoding="UTF-8" standalone="no"?>
<!DOCTYPE svg PUBLIC "-//W3C//DTD SVG 1.1//EN"
 "http://www.w3.org/Graphics/SVG/1.1/DTD/svg11.dtd">
<!-- Generated by graphviz version 2.43.0 (0)
 -->
<!-- Title: llvm::ErrorHandlerTraits&lt; RetT(C::*)(std::unique_ptr&lt; ErrT &gt;)&gt; Pages: 1 -->
<svg width="170pt" height="218pt"
 viewBox="0.00 0.00 170.00 218.00" xmlns="http://www.w3.org/2000/svg" xmlns:xlink="http://www.w3.org/1999/xlink">
<g id="graph0" class="graph" transform="scale(1 1) rotate(0) translate(4 214)">
<title>llvm::ErrorHandlerTraits&lt; RetT(C::*)(std::unique_ptr&lt; ErrT &gt;)&gt;</title>
<!-- Node0 -->
<g id="node1" class="node">
<title>Node0</title>
<polygon fill="#bfbfbf" stroke="black" points="3,-0.5 3,-41.5 125,-41.5 125,-0.5 3,-0.5"/>
<text text-anchor="start" x="11" y="-29.5" font-family="Helvetica,sans-Serif" font-size="10.00">llvm::ErrorHandlerTraits</text>
<text text-anchor="start" x="11" y="-18.5" font-family="Helvetica,sans-Serif" font-size="10.00">&lt; RetT(C::*)(std::unique</text>
<text text-anchor="middle" x="64" y="-7.5" font-family="Helvetica,sans-Serif" font-size="10.00">_ptr&lt; ErrT &gt;)&gt;</text>
</g>
<!-- Node1 -->
<g id="node2" class="node">
<title>Node1</title>
<g id="a_node2"><a xlink:href="classllvm_1_1ErrorHandlerTraits.html" target="_top" xlink:title="llvm::ErrorHandlerTraits\l\&lt; RetT(&amp;)(std::unique_ptr\l\&lt; ErrT \&gt;)\&gt;">
<polygon fill="none" stroke="black" points="0,-79.5 0,-120.5 128,-120.5 128,-79.5 0,-79.5"/>
<text text-anchor="start" x="8" y="-108.5" font-family="Helvetica,sans-Serif" font-size="10.00">llvm::ErrorHandlerTraits</text>
<text text-anchor="start" x="8" y="-97.5" font-family="Helvetica,sans-Serif" font-size="10.00">&lt; RetT(&amp;)(std::unique_ptr</text>
<text text-anchor="middle" x="64" y="-86.5" font-family="Helvetica,sans-Serif" font-size="10.00">&lt; ErrT &gt;)&gt;</text>
</a>
</g>
</g>
<!-- Node1&#45;&gt;Node0 -->
<g id="edge1" class="edge">
<title>Node1&#45;&gt;Node0</title>
<path fill="none" stroke="midnightblue" d="M64,-68.91C64,-59.79 64,-50.02 64,-41.76"/>
<polygon fill="midnightblue" stroke="midnightblue" points="60.5,-69.17 64,-79.17 67.5,-69.17 60.5,-69.17"/>
</g>
<!-- Node2 -->
<g id="node3" class="node">
<title>Node2</title>
<g id="a_node3"><a xlink:href="classllvm_1_1ErrorHandlerTraits.html" target="_top" xlink:title="Helper for testing applicability of, and applying, handlers for ErrorInfo types. ">
<polygon fill="none" stroke="black" points="4,-179.5 4,-209.5 124,-209.5 124,-179.5 4,-179.5"/>
<text text-anchor="start" x="12" y="-197.5" font-family="Helvetica,sans-Serif" font-size="10.00">llvm::ErrorHandlerTraits</text>
<text text-anchor="middle" x="64" y="-186.5" font-family="Helvetica,sans-Serif" font-size="10.00">&lt; HandlerT &gt;</text>
</a>
</g>
</g>
<!-- Node2&#45;&gt;Node1 -->
<g id="edge2" class="edge">
<title>Node2&#45;&gt;Node1</title>
<path fill="none" stroke="orange" stroke-dasharray="5,2" d="M64,-169.28C64,-154.14 64,-134.88 64,-120.68"/>
<polygon fill="orange" stroke="orange" points="60.5,-169.45 64,-179.45 67.5,-169.45 60.5,-169.45"/>
<text text-anchor="start" x="64" y="-153" font-family="Helvetica,sans-Serif" font-size="10.00"> &lt; RetT(&amp;)(std::unique</text>
<text text-anchor="middle" x="113" y="-142" font-family="Helvetica,sans-Serif" font-size="10.00">_ptr&lt; ErrT &gt;)&gt;</text>
</g>
</g>
</svg>
