<?xml version="1.0" encoding="UTF-8" standalone="no"?>
<!DOCTYPE svg PUBLIC "-//W3C//DTD SVG 1.1//EN"
 "http://www.w3.org/Graphics/SVG/1.1/DTD/svg11.dtd">
<!-- Generated by graphviz version 2.43.0 (0)
 -->
<!-- Title: llvm::MipsDAGToDAGISel Pages: 1 -->
<svg width="318pt" height="308pt"
 viewBox="0.00 0.00 317.50 308.00" xmlns="http://www.w3.org/2000/svg" xmlns:xlink="http://www.w3.org/1999/xlink">
<g id="graph0" class="graph" transform="scale(1 1) rotate(0) translate(4 304)">
<title>llvm::MipsDAGToDAGISel</title>
<!-- Node0 -->
<g id="node1" class="node">
<title>Node0</title>
<polygon fill="#bfbfbf" stroke="black" points="87,-56.5 87,-75.5 221,-75.5 221,-56.5 87,-56.5"/>
<text text-anchor="middle" x="154" y="-63.5" font-family="Helvetica,sans-Serif" font-size="10.00">llvm::MipsDAGToDAGISel</text>
</g>
<!-- Node5 -->
<g id="node6" class="node">
<title>Node5</title>
<g id="a_node6"><a xlink:href="classllvm_1_1Mips16DAGToDAGISel.html" target="_top" xlink:title="llvm::Mips16DAGToDAGISel">
<polygon fill="none" stroke="black" points="0,-0.5 0,-19.5 144,-19.5 144,-0.5 0,-0.5"/>
<text text-anchor="middle" x="72" y="-7.5" font-family="Helvetica,sans-Serif" font-size="10.00">llvm::Mips16DAGToDAGISel</text>
</a>
</g>
</g>
<!-- Node0&#45;&gt;Node5 -->
<g id="edge5" class="edge">
<title>Node0&#45;&gt;Node5</title>
<path fill="none" stroke="midnightblue" d="M132.17,-50.62C117.19,-40.76 97.8,-27.99 85.14,-19.65"/>
<polygon fill="midnightblue" stroke="midnightblue" points="130.55,-53.75 140.83,-56.32 134.4,-47.9 130.55,-53.75"/>
</g>
<!-- Node6 -->
<g id="node7" class="node">
<title>Node6</title>
<g id="a_node7"><a xlink:href="classllvm_1_1MipsSEDAGToDAGISel.html" target="_top" xlink:title="llvm::MipsSEDAGToDAGISel">
<polygon fill="none" stroke="black" points="162.5,-0.5 162.5,-19.5 309.5,-19.5 309.5,-0.5 162.5,-0.5"/>
<text text-anchor="middle" x="236" y="-7.5" font-family="Helvetica,sans-Serif" font-size="10.00">llvm::MipsSEDAGToDAGISel</text>
</a>
</g>
</g>
<!-- Node0&#45;&gt;Node6 -->
<g id="edge6" class="edge">
<title>Node0&#45;&gt;Node6</title>
<path fill="none" stroke="midnightblue" d="M175.83,-50.62C190.81,-40.76 210.2,-27.99 222.86,-19.65"/>
<polygon fill="midnightblue" stroke="midnightblue" points="173.6,-47.9 167.17,-56.32 177.45,-53.75 173.6,-47.9"/>
</g>
<!-- Node1 -->
<g id="node2" class="node">
<title>Node1</title>
<g id="a_node2"><a xlink:href="classllvm_1_1SelectionDAGISel.html" target="_top" xlink:title="SelectionDAGISel &#45; This is the common base class used for SelectionDAG&#45;based pattern&#45;matching instruc...">
<polygon fill="none" stroke="black" points="94,-112.5 94,-131.5 214,-131.5 214,-112.5 94,-112.5"/>
<text text-anchor="middle" x="154" y="-119.5" font-family="Helvetica,sans-Serif" font-size="10.00">llvm::SelectionDAGISel</text>
</a>
</g>
</g>
<!-- Node1&#45;&gt;Node0 -->
<g id="edge1" class="edge">
<title>Node1&#45;&gt;Node0</title>
<path fill="none" stroke="midnightblue" d="M154,-101.8C154,-92.91 154,-82.78 154,-75.75"/>
<polygon fill="midnightblue" stroke="midnightblue" points="150.5,-102.08 154,-112.08 157.5,-102.08 150.5,-102.08"/>
</g>
<!-- Node2 -->
<g id="node3" class="node">
<title>Node2</title>
<g id="a_node3"><a xlink:href="classllvm_1_1MachineFunctionPass.html" target="_top" xlink:title="MachineFunctionPass &#45; This class adapts the FunctionPass interface to allow convenient creation of pa...">
<polygon fill="none" stroke="black" points="85.5,-168.5 85.5,-187.5 222.5,-187.5 222.5,-168.5 85.5,-168.5"/>
<text text-anchor="middle" x="154" y="-175.5" font-family="Helvetica,sans-Serif" font-size="10.00">llvm::MachineFunctionPass</text>
</a>
</g>
</g>
<!-- Node2&#45;&gt;Node1 -->
<g id="edge2" class="edge">
<title>Node2&#45;&gt;Node1</title>
<path fill="none" stroke="midnightblue" d="M154,-157.8C154,-148.91 154,-138.78 154,-131.75"/>
<polygon fill="midnightblue" stroke="midnightblue" points="150.5,-158.08 154,-168.08 157.5,-158.08 150.5,-158.08"/>
</g>
<!-- Node3 -->
<g id="node4" class="node">
<title>Node3</title>
<g id="a_node4"><a xlink:href="classllvm_1_1FunctionPass.html" target="_top" xlink:title="FunctionPass class &#45; This class is used to implement most global optimizations. ">
<polygon fill="none" stroke="black" points="103.5,-224.5 103.5,-243.5 204.5,-243.5 204.5,-224.5 103.5,-224.5"/>
<text text-anchor="middle" x="154" y="-231.5" font-family="Helvetica,sans-Serif" font-size="10.00">llvm::FunctionPass</text>
</a>
</g>
</g>
<!-- Node3&#45;&gt;Node2 -->
<g id="edge3" class="edge">
<title>Node3&#45;&gt;Node2</title>
<path fill="none" stroke="midnightblue" d="M154,-213.8C154,-204.91 154,-194.78 154,-187.75"/>
<polygon fill="midnightblue" stroke="midnightblue" points="150.5,-214.08 154,-224.08 157.5,-214.08 150.5,-214.08"/>
</g>
<!-- Node4 -->
<g id="node5" class="node">
<title>Node4</title>
<g id="a_node5"><a xlink:href="classllvm_1_1Pass.html" target="_top" xlink:title="Pass interface &#45; Implemented by all &#39;passes&#39;. ">
<polygon fill="none" stroke="black" points="122.5,-280.5 122.5,-299.5 185.5,-299.5 185.5,-280.5 122.5,-280.5"/>
<text text-anchor="middle" x="154" y="-287.5" font-family="Helvetica,sans-Serif" font-size="10.00">llvm::Pass</text>
</a>
</g>
</g>
<!-- Node4&#45;&gt;Node3 -->
<g id="edge4" class="edge">
<title>Node4&#45;&gt;Node3</title>
<path fill="none" stroke="midnightblue" d="M154,-269.8C154,-260.91 154,-250.78 154,-243.75"/>
<polygon fill="midnightblue" stroke="midnightblue" points="150.5,-270.08 154,-280.08 157.5,-270.08 150.5,-270.08"/>
</g>
</g>
</svg>
