<?xml version="1.0" encoding="UTF-8" standalone="no"?>
<!DOCTYPE svg PUBLIC "-//W3C//DTD SVG 1.1//EN"
 "http://www.w3.org/Graphics/SVG/1.1/DTD/svg11.dtd">
<!-- Generated by graphviz version 2.43.0 (0)
 -->
<!-- Title: llvm::UnaryInstruction Pages: 1 -->
<svg width="2096pt" height="541pt"
 viewBox="0.00 0.00 2096.00 540.50" xmlns="http://www.w3.org/2000/svg" xmlns:xlink="http://www.w3.org/1999/xlink">
<g id="graph0" class="graph" transform="scale(1 1) rotate(0) translate(4 536.5)">
<title>llvm::UnaryInstruction</title>
<!-- Node0 -->
<g id="node1" class="node">
<title>Node0</title>
<polygon fill="#bfbfbf" stroke="black" points="1662,-209 1662,-228 1775,-228 1775,-209 1662,-209"/>
<text text-anchor="middle" x="1718.5" y="-216" font-family="Helvetica,sans-Serif" font-size="10.00">llvm::UnaryInstruction</text>
</g>
<!-- Node17 -->
<g id="node18" class="node">
<title>Node17</title>
<g id="a_node18"><a xlink:href="classllvm_1_1AllocaInst.html" target="_top" xlink:title="an instruction to allocate memory on the stack ">
<polygon fill="none" stroke="black" points="1826.5,-323 1826.5,-342 1910.5,-342 1910.5,-323 1826.5,-323"/>
<text text-anchor="middle" x="1868.5" y="-330" font-family="Helvetica,sans-Serif" font-size="10.00">llvm::AllocaInst</text>
</a>
</g>
</g>
<!-- Node0&#45;&gt;Node17 -->
<g id="edge20" class="edge">
<title>Node0&#45;&gt;Node17</title>
<path fill="none" stroke="midnightblue" d="M1732.43,-236.14C1748.77,-257.29 1778.81,-292.49 1812,-313.5 1817.94,-317.26 1824.71,-320.37 1831.43,-322.91"/>
<polygon fill="midnightblue" stroke="midnightblue" points="1735.11,-233.89 1726.29,-228.02 1729.53,-238.11 1735.11,-233.89"/>
</g>
<!-- Node18 -->
<g id="node19" class="node">
<title>Node18</title>
<g id="a_node19"><a xlink:href="classllvm_1_1CastInst.html" target="_top" xlink:title="This is the base class for all instructions that perform data casts. ">
<polygon fill="none" stroke="black" points="1829.5,-285 1829.5,-304 1907.5,-304 1907.5,-285 1829.5,-285"/>
<text text-anchor="middle" x="1868.5" y="-292" font-family="Helvetica,sans-Serif" font-size="10.00">llvm::CastInst</text>
</a>
</g>
</g>
<!-- Node0&#45;&gt;Node18 -->
<g id="edge21" class="edge">
<title>Node0&#45;&gt;Node18</title>
<path fill="none" stroke="midnightblue" d="M1741.52,-234.01C1759.78,-246.39 1786.75,-263.58 1812,-275.5 1819.46,-279.02 1827.76,-282.22 1835.61,-284.94"/>
<polygon fill="midnightblue" stroke="midnightblue" points="1743.28,-230.98 1733.06,-228.2 1739.32,-236.75 1743.28,-230.98"/>
</g>
<!-- Node32 -->
<g id="node33" class="node">
<title>Node32</title>
<g id="a_node33"><a xlink:href="classllvm_1_1ExtractValueInst.html" target="_top" xlink:title="This instruction extracts a struct member or array element value from an aggregate value...">
<polygon fill="none" stroke="black" points="1812,-247 1812,-266 1925,-266 1925,-247 1812,-247"/>
<text text-anchor="middle" x="1868.5" y="-254" font-family="Helvetica,sans-Serif" font-size="10.00">llvm::ExtractValueInst</text>
</a>
</g>
</g>
<!-- Node0&#45;&gt;Node32 -->
<g id="edge35" class="edge">
<title>Node0&#45;&gt;Node32</title>
<path fill="none" stroke="midnightblue" d="M1766.67,-230.61C1787.29,-235.9 1811.11,-242.02 1830.42,-246.98"/>
<polygon fill="midnightblue" stroke="midnightblue" points="1767.4,-227.19 1756.85,-228.09 1765.66,-233.97 1767.4,-227.19"/>
</g>
<!-- Node33 -->
<g id="node34" class="node">
<title>Node33</title>
<g id="a_node34"><a xlink:href="classllvm_1_1FreezeInst.html" target="_top" xlink:title="This class represents a freeze function that returns random concrete value if an operand is either a ...">
<polygon fill="none" stroke="black" points="1825,-209 1825,-228 1912,-228 1912,-209 1825,-209"/>
<text text-anchor="middle" x="1868.5" y="-216" font-family="Helvetica,sans-Serif" font-size="10.00">llvm::FreezeInst</text>
</a>
</g>
</g>
<!-- Node0&#45;&gt;Node33 -->
<g id="edge36" class="edge">
<title>Node0&#45;&gt;Node33</title>
<path fill="none" stroke="midnightblue" d="M1785.16,-218.5C1798.53,-218.5 1812.28,-218.5 1824.61,-218.5"/>
<polygon fill="midnightblue" stroke="midnightblue" points="1785.03,-215 1775.03,-218.5 1785.03,-222 1785.03,-215"/>
</g>
<!-- Node34 -->
<g id="node35" class="node">
<title>Node34</title>
<g id="a_node35"><a xlink:href="classllvm_1_1LoadInst.html" target="_top" xlink:title="An instruction for reading from memory. ">
<polygon fill="none" stroke="black" points="1829.5,-171 1829.5,-190 1907.5,-190 1907.5,-171 1829.5,-171"/>
<text text-anchor="middle" x="1868.5" y="-178" font-family="Helvetica,sans-Serif" font-size="10.00">llvm::LoadInst</text>
</a>
</g>
</g>
<!-- Node0&#45;&gt;Node34 -->
<g id="edge37" class="edge">
<title>Node0&#45;&gt;Node34</title>
<path fill="none" stroke="midnightblue" d="M1766.67,-206.39C1787.29,-201.1 1811.11,-194.98 1830.42,-190.02"/>
<polygon fill="midnightblue" stroke="midnightblue" points="1765.66,-203.03 1756.85,-208.91 1767.4,-209.81 1765.66,-203.03"/>
</g>
<!-- Node35 -->
<g id="node36" class="node">
<title>Node35</title>
<g id="a_node36"><a xlink:href="classllvm_1_1UnaryOperator.html" target="_top" xlink:title="llvm::UnaryOperator">
<polygon fill="none" stroke="black" points="1816.5,-133 1816.5,-152 1920.5,-152 1920.5,-133 1816.5,-133"/>
<text text-anchor="middle" x="1868.5" y="-140" font-family="Helvetica,sans-Serif" font-size="10.00">llvm::UnaryOperator</text>
</a>
</g>
</g>
<!-- Node0&#45;&gt;Node35 -->
<g id="edge38" class="edge">
<title>Node0&#45;&gt;Node35</title>
<path fill="none" stroke="midnightblue" d="M1741.52,-202.99C1759.78,-190.61 1786.75,-173.42 1812,-161.5 1819.46,-157.98 1827.76,-154.78 1835.61,-152.06"/>
<polygon fill="midnightblue" stroke="midnightblue" points="1739.32,-200.25 1733.06,-208.8 1743.28,-206.02 1739.32,-200.25"/>
</g>
<!-- Node36 -->
<g id="node37" class="node">
<title>Node36</title>
<g id="a_node37"><a xlink:href="classllvm_1_1VAArgInst.html" target="_top" xlink:title="This class represents the va_arg llvm instruction, which returns an argument of the specified type gi...">
<polygon fill="none" stroke="black" points="1825.5,-95 1825.5,-114 1911.5,-114 1911.5,-95 1825.5,-95"/>
<text text-anchor="middle" x="1868.5" y="-102" font-family="Helvetica,sans-Serif" font-size="10.00">llvm::VAArgInst</text>
</a>
</g>
</g>
<!-- Node0&#45;&gt;Node36 -->
<g id="edge39" class="edge">
<title>Node0&#45;&gt;Node36</title>
<path fill="none" stroke="midnightblue" d="M1732.43,-200.86C1748.77,-179.71 1778.81,-144.51 1812,-123.5 1817.94,-119.74 1824.71,-116.63 1831.43,-114.09"/>
<polygon fill="midnightblue" stroke="midnightblue" points="1729.53,-198.89 1726.29,-208.98 1735.11,-203.11 1729.53,-198.89"/>
</g>
<!-- Node1 -->
<g id="node2" class="node">
<title>Node1</title>
<g id="a_node2"><a xlink:href="classllvm_1_1Instruction.html" target="_top" xlink:title="llvm::Instruction">
<polygon fill="none" stroke="black" points="1539,-209 1539,-228 1625,-228 1625,-209 1539,-209"/>
<text text-anchor="middle" x="1582" y="-216" font-family="Helvetica,sans-Serif" font-size="10.00">llvm::Instruction</text>
</a>
</g>
</g>
<!-- Node1&#45;&gt;Node0 -->
<g id="edge1" class="edge">
<title>Node1&#45;&gt;Node0</title>
<path fill="none" stroke="midnightblue" d="M1635.46,-218.5C1644.05,-218.5 1652.98,-218.5 1661.65,-218.5"/>
<polygon fill="midnightblue" stroke="midnightblue" points="1635.19,-215 1625.19,-218.5 1635.19,-222 1635.19,-215"/>
</g>
<!-- Node2 -->
<g id="node3" class="node">
<title>Node2</title>
<g id="a_node3"><a xlink:href="classllvm_1_1User.html" target="_top" xlink:title="llvm::User">
<polygon fill="none" stroke="black" points="1417.5,-234 1417.5,-253 1479.5,-253 1479.5,-234 1417.5,-234"/>
<text text-anchor="middle" x="1448.5" y="-241" font-family="Helvetica,sans-Serif" font-size="10.00">llvm::User</text>
</a>
</g>
</g>
<!-- Node2&#45;&gt;Node1 -->
<g id="edge2" class="edge">
<title>Node2&#45;&gt;Node1</title>
<path fill="none" stroke="midnightblue" d="M1489.53,-235.89C1505.11,-232.93 1522.98,-229.53 1538.76,-226.53"/>
<polygon fill="midnightblue" stroke="midnightblue" points="1488.84,-232.46 1479.67,-237.76 1490.15,-239.34 1488.84,-232.46"/>
</g>
<!-- Node3 -->
<g id="node4" class="node">
<title>Node3</title>
<g id="a_node4"><a xlink:href="classllvm_1_1Value.html" target="_top" xlink:title="LLVM Value Representation. ">
<polygon fill="none" stroke="black" points="1133,-234 1133,-253 1198,-253 1198,-234 1133,-234"/>
<text text-anchor="middle" x="1165.5" y="-241" font-family="Helvetica,sans-Serif" font-size="10.00">llvm::Value</text>
</a>
</g>
</g>
<!-- Node3&#45;&gt;Node2 -->
<g id="edge3" class="edge">
<title>Node3&#45;&gt;Node2</title>
<path fill="none" stroke="midnightblue" d="M1208.33,-243.5C1265.53,-243.5 1366.78,-243.5 1417.21,-243.5"/>
<polygon fill="midnightblue" stroke="midnightblue" points="1208.19,-240 1198.19,-243.5 1208.19,-247 1208.19,-240"/>
</g>
<!-- Node4 -->
<g id="node5" class="node">
<title>Node4</title>
<g id="a_node5"><a xlink:href="classllvm_1_1ilist__node__with__parent.html" target="_top" xlink:title="llvm::ilist_node_with\l_parent\&lt; Instruction,\l BasicBlock \&gt;">
<polygon fill="none" stroke="black" points="1395,-174 1395,-215 1502,-215 1502,-174 1395,-174"/>
<text text-anchor="start" x="1403" y="-203" font-family="Helvetica,sans-Serif" font-size="10.00">llvm::ilist_node_with</text>
<text text-anchor="start" x="1403" y="-192" font-family="Helvetica,sans-Serif" font-size="10.00">_parent&lt; Instruction,</text>
<text text-anchor="middle" x="1448.5" y="-181" font-family="Helvetica,sans-Serif" font-size="10.00"> BasicBlock &gt;</text>
</a>
</g>
</g>
<!-- Node4&#45;&gt;Node1 -->
<g id="edge4" class="edge">
<title>Node4&#45;&gt;Node1</title>
<path fill="none" stroke="midnightblue" d="M1512.3,-205.96C1521.27,-207.6 1530.32,-209.25 1538.77,-210.79"/>
<polygon fill="midnightblue" stroke="midnightblue" points="1512.69,-202.48 1502.23,-204.12 1511.44,-209.36 1512.69,-202.48"/>
</g>
<!-- Node5 -->
<g id="node6" class="node">
<title>Node5</title>
<g id="a_node6"><a xlink:href="classllvm_1_1ilist__node.html" target="_top" xlink:title="llvm::ilist_node\&lt; Instruction,\l Options... \&gt;">
<polygon fill="none" stroke="black" points="918,-130.5 918,-160.5 1058,-160.5 1058,-130.5 918,-130.5"/>
<text text-anchor="start" x="926" y="-148.5" font-family="Helvetica,sans-Serif" font-size="10.00">llvm::ilist_node&lt; Instruction,</text>
<text text-anchor="middle" x="988" y="-137.5" font-family="Helvetica,sans-Serif" font-size="10.00"> Options... &gt;</text>
</a>
</g>
</g>
<!-- Node5&#45;&gt;Node4 -->
<g id="edge5" class="edge">
<title>Node5&#45;&gt;Node4</title>
<path fill="none" stroke="midnightblue" d="M1068.17,-150.29C1116.69,-153.55 1180.02,-158.38 1236,-164.5 1290.19,-170.42 1351.89,-179.43 1394.6,-186.04"/>
<polygon fill="midnightblue" stroke="midnightblue" points="1068.26,-146.79 1058.05,-149.62 1067.8,-153.78 1068.26,-146.79"/>
</g>
<!-- Node6 -->
<g id="node7" class="node">
<title>Node6</title>
<g id="a_node7"><a xlink:href="classllvm_1_1ilist__node__impl.html" target="_top" xlink:title="llvm::ilist_node_impl\l\&lt; ilist_detail::compute\l_node_options\&lt; Instruction,\l Options... \&gt;::type \&gt;">
<polygon fill="none" stroke="black" points="489,-76.5 489,-128.5 626,-128.5 626,-76.5 489,-76.5"/>
<text text-anchor="start" x="497" y="-116.5" font-family="Helvetica,sans-Serif" font-size="10.00">llvm::ilist_node_impl</text>
<text text-anchor="start" x="497" y="-105.5" font-family="Helvetica,sans-Serif" font-size="10.00">&lt; ilist_detail::compute</text>
<text text-anchor="start" x="497" y="-94.5" font-family="Helvetica,sans-Serif" font-size="10.00">_node_options&lt; Instruction,</text>
<text text-anchor="middle" x="557.5" y="-83.5" font-family="Helvetica,sans-Serif" font-size="10.00"> Options... &gt;::type &gt;</text>
</a>
</g>
</g>
<!-- Node6&#45;&gt;Node5 -->
<g id="edge6" class="edge">
<title>Node6&#45;&gt;Node5</title>
<path fill="none" stroke="midnightblue" d="M636.45,-110.32C716.73,-118.38 840.67,-130.82 917.65,-138.54"/>
<polygon fill="midnightblue" stroke="midnightblue" points="636.7,-106.83 626.4,-109.31 636,-113.79 636.7,-106.83"/>
</g>
<!-- Node7 -->
<g id="node8" class="node">
<title>Node7</title>
<polygon fill="none" stroke="#bfbfbf" points="171,-0.5 171,-52.5 323,-52.5 323,-0.5 171,-0.5"/>
<text text-anchor="start" x="179" y="-40.5" font-family="Helvetica,sans-Serif" font-size="10.00">ilist_detail::compute</text>
<text text-anchor="start" x="179" y="-29.5" font-family="Helvetica,sans-Serif" font-size="10.00">_node_options::type </text>
<text text-anchor="start" x="179" y="-18.5" font-family="Helvetica,sans-Serif" font-size="10.00">::node_base_type&lt; Instruction,</text>
<text text-anchor="middle" x="247" y="-7.5" font-family="Helvetica,sans-Serif" font-size="10.00"> Options... &gt;</text>
</g>
<!-- Node7&#45;&gt;Node6 -->
<g id="edge7" class="edge">
<title>Node7&#45;&gt;Node6</title>
<path fill="none" stroke="#8b1a1a" d="M333.16,-45.95C374.03,-55.45 423.63,-67.24 468,-78.5 474.79,-80.22 481.86,-82.06 488.91,-83.93"/>
<polygon fill="#8b1a1a" stroke="#8b1a1a" points="333.78,-42.49 323.24,-43.64 332.19,-49.31 333.78,-42.49"/>
</g>
<!-- Node8 -->
<g id="node9" class="node">
<title>Node8</title>
<g id="a_node9"><a xlink:href="classllvm_1_1ilist__node__impl.html" target="_top" xlink:title="Implementation for an ilist node. ">
<polygon fill="none" stroke="black" points="194.5,-166.5 194.5,-196.5 299.5,-196.5 299.5,-166.5 194.5,-166.5"/>
<text text-anchor="start" x="202.5" y="-184.5" font-family="Helvetica,sans-Serif" font-size="10.00">llvm::ilist_node_impl</text>
<text text-anchor="middle" x="247" y="-173.5" font-family="Helvetica,sans-Serif" font-size="10.00">&lt; OptionsT &gt;</text>
</a>
</g>
</g>
<!-- Node8&#45;&gt;Node6 -->
<g id="edge8" class="edge">
<title>Node8&#45;&gt;Node6</title>
<path fill="none" stroke="orange" stroke-dasharray="5,2" d="M285.1,-161.57C301.78,-153.34 321.96,-144.38 341,-138.5 389.39,-123.57 445.91,-114.42 488.93,-109.08"/>
<polygon fill="orange" stroke="orange" points="283.07,-158.67 275.71,-166.3 286.22,-164.92 283.07,-158.67"/>
<text text-anchor="start" x="344" y="-163.5" font-family="Helvetica,sans-Serif" font-size="10.00"> &lt; ilist_detail::compute</text>
<text text-anchor="start" x="344" y="-152.5" font-family="Helvetica,sans-Serif" font-size="10.00">_node_options&lt; Instruction,</text>
<text text-anchor="middle" x="404.5" y="-141.5" font-family="Helvetica,sans-Serif" font-size="10.00"> Options... &gt;::type &gt;</text>
</g>
<!-- Node11 -->
<g id="node12" class="node">
<title>Node11</title>
<g id="a_node12"><a xlink:href="classllvm_1_1ilist__node__impl.html" target="_top" xlink:title="llvm::ilist_node_impl\l\&lt; ilist_detail::compute\l_node_options\&lt; T, Options...\l \&gt;::type \&gt;">
<polygon fill="none" stroke="black" points="486,-147.5 486,-199.5 629,-199.5 629,-147.5 486,-147.5"/>
<text text-anchor="start" x="494" y="-187.5" font-family="Helvetica,sans-Serif" font-size="10.00">llvm::ilist_node_impl</text>
<text text-anchor="start" x="494" y="-176.5" font-family="Helvetica,sans-Serif" font-size="10.00">&lt; ilist_detail::compute</text>
<text text-anchor="start" x="494" y="-165.5" font-family="Helvetica,sans-Serif" font-size="10.00">_node_options&lt; T, Options...</text>
<text text-anchor="middle" x="557.5" y="-154.5" font-family="Helvetica,sans-Serif" font-size="10.00"> &gt;::type &gt;</text>
</a>
</g>
</g>
<!-- Node8&#45;&gt;Node11 -->
<g id="edge13" class="edge">
<title>Node8&#45;&gt;Node11</title>
<path fill="none" stroke="orange" stroke-dasharray="5,2" d="M309.83,-179.9C360.69,-178.58 432.78,-176.71 485.89,-175.33"/>
<polygon fill="orange" stroke="orange" points="309.54,-176.4 299.64,-180.16 309.72,-183.4 309.54,-176.4"/>
<text text-anchor="start" x="341" y="-203.5" font-family="Helvetica,sans-Serif" font-size="10.00"> &lt; ilist_detail::compute</text>
<text text-anchor="start" x="341" y="-192.5" font-family="Helvetica,sans-Serif" font-size="10.00">_node_options&lt; T, Options...</text>
<text text-anchor="middle" x="404.5" y="-181.5" font-family="Helvetica,sans-Serif" font-size="10.00"> &gt;::type &gt;</text>
</g>
<!-- Node15 -->
<g id="node16" class="node">
<title>Node15</title>
<g id="a_node16"><a xlink:href="classllvm_1_1ilist__node__impl.html" target="_top" xlink:title="llvm::ilist_node_impl\l\&lt; ilist_detail::compute\l_node_options\&lt; NodeTy,\l Options... \&gt;::type \&gt;">
<polygon fill="none" stroke="black" points="494.5,-218.5 494.5,-270.5 620.5,-270.5 620.5,-218.5 494.5,-218.5"/>
<text text-anchor="start" x="502.5" y="-258.5" font-family="Helvetica,sans-Serif" font-size="10.00">llvm::ilist_node_impl</text>
<text text-anchor="start" x="502.5" y="-247.5" font-family="Helvetica,sans-Serif" font-size="10.00">&lt; ilist_detail::compute</text>
<text text-anchor="start" x="502.5" y="-236.5" font-family="Helvetica,sans-Serif" font-size="10.00">_node_options&lt; NodeTy,</text>
<text text-anchor="middle" x="557.5" y="-225.5" font-family="Helvetica,sans-Serif" font-size="10.00"> Options... &gt;::type &gt;</text>
</a>
</g>
</g>
<!-- Node8&#45;&gt;Node15 -->
<g id="edge18" class="edge">
<title>Node8&#45;&gt;Node15</title>
<path fill="none" stroke="orange" stroke-dasharray="5,2" d="M293.2,-200.25C308.19,-205.87 325.12,-211.58 341,-215.5 355.66,-219.12 436.17,-229.54 494.5,-236.85"/>
<polygon fill="orange" stroke="orange" points="294.24,-196.91 283.65,-196.59 291.73,-203.44 294.24,-196.91"/>
<text text-anchor="start" x="349.5" y="-257.5" font-family="Helvetica,sans-Serif" font-size="10.00"> &lt; ilist_detail::compute</text>
<text text-anchor="start" x="349.5" y="-246.5" font-family="Helvetica,sans-Serif" font-size="10.00">_node_options&lt; NodeTy,</text>
<text text-anchor="middle" x="404.5" y="-235.5" font-family="Helvetica,sans-Serif" font-size="10.00"> Options... &gt;::type &gt;</text>
</g>
<!-- Node9 -->
<g id="node10" class="node">
<title>Node9</title>
<polygon fill="none" stroke="#bfbfbf" points="0,-172 0,-191 134,-191 134,-172 0,-172"/>
<text text-anchor="middle" x="67" y="-179" font-family="Helvetica,sans-Serif" font-size="10.00">OptionsT::node_base_type</text>
</g>
<!-- Node9&#45;&gt;Node8 -->
<g id="edge9" class="edge">
<title>Node9&#45;&gt;Node8</title>
<path fill="none" stroke="#8b1a1a" d="M144.41,-181.5C161.24,-181.5 178.68,-181.5 194.26,-181.5"/>
<polygon fill="#8b1a1a" stroke="#8b1a1a" points="144.03,-178 134.03,-181.5 144.03,-185 144.03,-178"/>
</g>
<!-- Node10 -->
<g id="node11" class="node">
<title>Node10</title>
<g id="a_node11"><a xlink:href="classllvm_1_1ilist__node.html" target="_top" xlink:title="llvm::ilist_node\&lt; T,\l Options \&gt;">
<polygon fill="none" stroke="black" points="666,-158.5 666,-188.5 766,-188.5 766,-158.5 666,-158.5"/>
<text text-anchor="start" x="674" y="-176.5" font-family="Helvetica,sans-Serif" font-size="10.00">llvm::ilist_node&lt; T,</text>
<text text-anchor="middle" x="716" y="-165.5" font-family="Helvetica,sans-Serif" font-size="10.00"> Options &gt;</text>
</a>
</g>
</g>
<!-- Node10&#45;&gt;Node5 -->
<g id="edge10" class="edge">
<title>Node10&#45;&gt;Node5</title>
<path fill="none" stroke="orange" stroke-dasharray="5,2" d="M776.36,-164.45C778.94,-164.12 781.5,-163.8 784,-163.5 828.44,-158.22 878.53,-153.76 917.84,-150.6"/>
<polygon fill="orange" stroke="orange" points="775.8,-160.99 766.35,-165.79 776.73,-167.93 775.8,-160.99"/>
<text text-anchor="middle" x="842" y="-166.5" font-family="Helvetica,sans-Serif" font-size="10.00"> &lt; Instruction, Options... &gt;</text>
</g>
<!-- Node14 -->
<g id="node15" class="node">
<title>Node14</title>
<g id="a_node15"><a xlink:href="classllvm_1_1ilist__node.html" target="_top" xlink:title="llvm::ilist_node\&lt; NodeTy,\l Options... \&gt;">
<polygon fill="none" stroke="black" points="924,-179.5 924,-209.5 1052,-209.5 1052,-179.5 924,-179.5"/>
<text text-anchor="start" x="932" y="-197.5" font-family="Helvetica,sans-Serif" font-size="10.00">llvm::ilist_node&lt; NodeTy,</text>
<text text-anchor="middle" x="988" y="-186.5" font-family="Helvetica,sans-Serif" font-size="10.00"> Options... &gt;</text>
</a>
</g>
</g>
<!-- Node10&#45;&gt;Node14 -->
<g id="edge19" class="edge">
<title>Node10&#45;&gt;Node14</title>
<path fill="none" stroke="orange" stroke-dasharray="5,2" d="M776.4,-178.12C820.06,-181.52 879.31,-186.12 923.84,-189.59"/>
<polygon fill="orange" stroke="orange" points="776.45,-174.61 766.21,-177.33 775.91,-181.59 776.45,-174.61"/>
<text text-anchor="middle" x="842" y="-190.5" font-family="Helvetica,sans-Serif" font-size="10.00"> &lt; NodeTy, Options... &gt;</text>
</g>
<!-- Node11&#45;&gt;Node10 -->
<g id="edge11" class="edge">
<title>Node11&#45;&gt;Node10</title>
<path fill="none" stroke="midnightblue" d="M639.54,-173.5C648.5,-173.5 657.41,-173.5 665.8,-173.5"/>
<polygon fill="midnightblue" stroke="midnightblue" points="639.42,-170 629.42,-173.5 639.42,-177 639.42,-170"/>
</g>
<!-- Node12 -->
<g id="node13" class="node">
<title>Node12</title>
<polygon fill="none" stroke="#bfbfbf" points="175.5,-72 175.5,-113 318.5,-113 318.5,-72 175.5,-72"/>
<text text-anchor="start" x="183.5" y="-101" font-family="Helvetica,sans-Serif" font-size="10.00">ilist_detail::compute</text>
<text text-anchor="start" x="183.5" y="-90" font-family="Helvetica,sans-Serif" font-size="10.00">_node_options&lt; T, Options...</text>
<text text-anchor="middle" x="247" y="-79" font-family="Helvetica,sans-Serif" font-size="10.00"> &gt;::type ::node_base_type</text>
</g>
<!-- Node12&#45;&gt;Node11 -->
<g id="edge12" class="edge">
<title>Node12&#45;&gt;Node11</title>
<path fill="none" stroke="#8b1a1a" d="M328.71,-80.48C372.96,-77.98 426.98,-81.99 468,-107.5 481.53,-115.91 474.37,-127.61 486,-138.5 489.39,-141.68 493.12,-144.63 497.05,-147.35"/>
<polygon fill="#8b1a1a" stroke="#8b1a1a" points="328.3,-77 318.56,-81.17 328.77,-83.98 328.3,-77"/>
</g>
<!-- Node13 -->
<g id="node14" class="node">
<title>Node13</title>
<g id="a_node14"><a xlink:href="classllvm_1_1ilist__node__with__parent.html" target="_top" xlink:title="An ilist node that can access its parent list. ">
<polygon fill="none" stroke="black" points="1095,-174 1095,-215 1236,-215 1236,-174 1095,-174"/>
<text text-anchor="start" x="1103" y="-203" font-family="Helvetica,sans-Serif" font-size="10.00">llvm::ilist_node_with</text>
<text text-anchor="start" x="1103" y="-192" font-family="Helvetica,sans-Serif" font-size="10.00">_parent&lt; NodeTy, ParentTy,</text>
<text text-anchor="middle" x="1165.5" y="-181" font-family="Helvetica,sans-Serif" font-size="10.00"> Options &gt;</text>
</a>
</g>
</g>
<!-- Node13&#45;&gt;Node4 -->
<g id="edge14" class="edge">
<title>Node13&#45;&gt;Node4</title>
<path fill="none" stroke="orange" stroke-dasharray="5,2" d="M1246.6,-194.5C1294.16,-194.5 1353.12,-194.5 1394.84,-194.5"/>
<polygon fill="orange" stroke="orange" points="1246.32,-191 1236.32,-194.5 1246.32,-198 1246.32,-191"/>
<text text-anchor="middle" x="1315.5" y="-197.5" font-family="Helvetica,sans-Serif" font-size="10.00"> &lt; Instruction, BasicBlock &gt;</text>
</g>
<!-- Node14&#45;&gt;Node13 -->
<g id="edge15" class="edge">
<title>Node14&#45;&gt;Node13</title>
<path fill="none" stroke="midnightblue" d="M1062.55,-194.5C1073.3,-194.5 1084.33,-194.5 1095,-194.5"/>
<polygon fill="midnightblue" stroke="midnightblue" points="1062.36,-191 1052.36,-194.5 1062.36,-198 1062.36,-191"/>
</g>
<!-- Node15&#45;&gt;Node14 -->
<g id="edge16" class="edge">
<title>Node15&#45;&gt;Node14</title>
<path fill="none" stroke="midnightblue" d="M630.82,-236.06C712.99,-226.47 845.79,-210.98 923.92,-201.86"/>
<polygon fill="midnightblue" stroke="midnightblue" points="630.33,-232.59 620.81,-237.23 631.15,-239.55 630.33,-232.59"/>
</g>
<!-- Node16 -->
<g id="node17" class="node">
<title>Node16</title>
<polygon fill="none" stroke="#bfbfbf" points="177,-259.5 177,-311.5 317,-311.5 317,-259.5 177,-259.5"/>
<text text-anchor="start" x="185" y="-299.5" font-family="Helvetica,sans-Serif" font-size="10.00">ilist_detail::compute</text>
<text text-anchor="start" x="185" y="-288.5" font-family="Helvetica,sans-Serif" font-size="10.00">_node_options::type </text>
<text text-anchor="start" x="185" y="-277.5" font-family="Helvetica,sans-Serif" font-size="10.00">::node_base_type&lt; NodeTy,</text>
<text text-anchor="middle" x="247" y="-266.5" font-family="Helvetica,sans-Serif" font-size="10.00"> Options... &gt;</text>
</g>
<!-- Node16&#45;&gt;Node15 -->
<g id="edge17" class="edge">
<title>Node16&#45;&gt;Node15</title>
<path fill="none" stroke="#8b1a1a" d="M327.55,-284.89C369.6,-283.45 421.91,-279.88 468,-271.5 476.53,-269.95 485.41,-267.85 494.09,-265.5"/>
<polygon fill="#8b1a1a" stroke="#8b1a1a" points="327.25,-281.39 317.37,-285.2 327.47,-288.39 327.25,-281.39"/>
</g>
<!-- Node19 -->
<g id="node20" class="node">
<title>Node19</title>
<g id="a_node20"><a xlink:href="classllvm_1_1AddrSpaceCastInst.html" target="_top" xlink:title="This class represents a conversion between pointers from one address space to another. ">
<polygon fill="none" stroke="black" points="1962,-513 1962,-532 2088,-532 2088,-513 1962,-513"/>
<text text-anchor="middle" x="2025" y="-520" font-family="Helvetica,sans-Serif" font-size="10.00">llvm::AddrSpaceCastInst</text>
</a>
</g>
</g>
<!-- Node18&#45;&gt;Node19 -->
<g id="edge22" class="edge">
<title>Node18&#45;&gt;Node19</title>
<path fill="none" stroke="midnightblue" d="M1916.79,-306.42C1919.83,-308.43 1922.62,-310.77 1925,-313.5 1939.13,-329.72 1947.61,-487.51 1962,-503.5 1965.46,-507.35 1969.69,-510.43 1974.28,-512.89"/>
<polygon fill="midnightblue" stroke="midnightblue" points="1918.17,-303.19 1907.69,-301.62 1914.9,-309.38 1918.17,-303.19"/>
</g>
<!-- Node20 -->
<g id="node21" class="node">
<title>Node20</title>
<g id="a_node21"><a xlink:href="classllvm_1_1BitCastInst.html" target="_top" xlink:title="This class represents a no&#45;op cast from one type to another. ">
<polygon fill="none" stroke="black" points="1980,-475 1980,-494 2070,-494 2070,-475 1980,-475"/>
<text text-anchor="middle" x="2025" y="-482" font-family="Helvetica,sans-Serif" font-size="10.00">llvm::BitCastInst</text>
</a>
</g>
</g>
<!-- Node18&#45;&gt;Node20 -->
<g id="edge23" class="edge">
<title>Node18&#45;&gt;Node20</title>
<path fill="none" stroke="midnightblue" d="M1916.78,-306.64C1919.8,-308.59 1922.59,-310.86 1925,-313.5 1948.44,-339.18 1938.15,-440.21 1962,-465.5 1966.87,-470.66 1973.09,-474.43 1979.71,-477.18"/>
<polygon fill="midnightblue" stroke="midnightblue" points="1918.26,-303.46 1907.78,-301.92 1915.01,-309.66 1918.26,-303.46"/>
</g>
<!-- Node21 -->
<g id="node22" class="node">
<title>Node21</title>
<g id="a_node22"><a xlink:href="classllvm_1_1FPExtInst.html" target="_top" xlink:title="This class represents an extension of floating point types. ">
<polygon fill="none" stroke="black" points="1982.5,-437 1982.5,-456 2067.5,-456 2067.5,-437 1982.5,-437"/>
<text text-anchor="middle" x="2025" y="-444" font-family="Helvetica,sans-Serif" font-size="10.00">llvm::FPExtInst</text>
</a>
</g>
</g>
<!-- Node18&#45;&gt;Node21 -->
<g id="edge24" class="edge">
<title>Node18&#45;&gt;Node21</title>
<path fill="none" stroke="midnightblue" d="M1916.7,-306.93C1919.72,-308.82 1922.53,-310.99 1925,-313.5 1943.68,-332.48 1943.01,-408.82 1962,-427.5 1967.62,-433.03 1974.8,-436.95 1982.27,-439.74"/>
<polygon fill="midnightblue" stroke="midnightblue" points="1918.25,-303.79 1907.76,-302.32 1915.05,-310.01 1918.25,-303.79"/>
</g>
<!-- Node22 -->
<g id="node23" class="node">
<title>Node22</title>
<g id="a_node23"><a xlink:href="classllvm_1_1FPToSIInst.html" target="_top" xlink:title="This class represents a cast from floating point to signed integer. ">
<polygon fill="none" stroke="black" points="1979.5,-399 1979.5,-418 2070.5,-418 2070.5,-399 1979.5,-399"/>
<text text-anchor="middle" x="2025" y="-406" font-family="Helvetica,sans-Serif" font-size="10.00">llvm::FPToSIInst</text>
</a>
</g>
</g>
<!-- Node18&#45;&gt;Node22 -->
<g id="edge25" class="edge">
<title>Node18&#45;&gt;Node22</title>
<path fill="none" stroke="midnightblue" d="M1916.74,-307.57C1919.69,-309.31 1922.48,-311.27 1925,-313.5 1953.15,-338.38 1933.45,-365.08 1962,-389.5 1967.05,-393.82 1973.06,-397.15 1979.33,-399.73"/>
<polygon fill="midnightblue" stroke="midnightblue" points="1918.03,-304.3 1907.51,-303.01 1914.93,-310.58 1918.03,-304.3"/>
</g>
<!-- Node23 -->
<g id="node24" class="node">
<title>Node23</title>
<g id="a_node24"><a xlink:href="classllvm_1_1FPToUIInst.html" target="_top" xlink:title="This class represents a cast from floating point to unsigned integer. ">
<polygon fill="none" stroke="black" points="1979,-361 1979,-380 2071,-380 2071,-361 1979,-361"/>
<text text-anchor="middle" x="2025" y="-368" font-family="Helvetica,sans-Serif" font-size="10.00">llvm::FPToUIInst</text>
</a>
</g>
</g>
<!-- Node18&#45;&gt;Node23 -->
<g id="edge26" class="edge">
<title>Node18&#45;&gt;Node23</title>
<path fill="none" stroke="midnightblue" d="M1914.96,-308.05C1918.46,-309.69 1921.85,-311.5 1925,-313.5 1944.92,-326.11 1941.88,-339.22 1962,-351.5 1968.25,-355.31 1975.32,-358.41 1982.39,-360.92"/>
<polygon fill="midnightblue" stroke="midnightblue" points="1916.15,-304.75 1905.57,-304.09 1913.43,-311.2 1916.15,-304.75"/>
</g>
<!-- Node24 -->
<g id="node25" class="node">
<title>Node24</title>
<g id="a_node25"><a xlink:href="classllvm_1_1FPTruncInst.html" target="_top" xlink:title="This class represents a truncation of floating point types. ">
<polygon fill="none" stroke="black" points="1977.5,-323 1977.5,-342 2072.5,-342 2072.5,-323 1977.5,-323"/>
<text text-anchor="middle" x="2025" y="-330" font-family="Helvetica,sans-Serif" font-size="10.00">llvm::FPTruncInst</text>
</a>
</g>
</g>
<!-- Node18&#45;&gt;Node24 -->
<g id="edge27" class="edge">
<title>Node18&#45;&gt;Node24</title>
<path fill="none" stroke="midnightblue" d="M1917.41,-306.28C1939.19,-311.64 1964.62,-317.89 1985.18,-322.95"/>
<polygon fill="midnightblue" stroke="midnightblue" points="1918.24,-302.88 1907.69,-303.89 1916.57,-309.68 1918.24,-302.88"/>
</g>
<!-- Node25 -->
<g id="node26" class="node">
<title>Node25</title>
<g id="a_node26"><a xlink:href="classllvm_1_1IntToPtrInst.html" target="_top" xlink:title="This class represents a cast from an integer to a pointer. ">
<polygon fill="none" stroke="black" points="1979,-285 1979,-304 2071,-304 2071,-285 1979,-285"/>
<text text-anchor="middle" x="2025" y="-292" font-family="Helvetica,sans-Serif" font-size="10.00">llvm::IntToPtrInst</text>
</a>
</g>
</g>
<!-- Node18&#45;&gt;Node25 -->
<g id="edge28" class="edge">
<title>Node18&#45;&gt;Node25</title>
<path fill="none" stroke="midnightblue" d="M1917.88,-294.5C1937.36,-294.5 1959.7,-294.5 1978.84,-294.5"/>
<polygon fill="midnightblue" stroke="midnightblue" points="1917.69,-291 1907.69,-294.5 1917.69,-298 1917.69,-291"/>
</g>
<!-- Node26 -->
<g id="node27" class="node">
<title>Node26</title>
<g id="a_node27"><a xlink:href="classllvm_1_1PtrToIntInst.html" target="_top" xlink:title="This class represents a cast from a pointer to an integer. ">
<polygon fill="none" stroke="black" points="1979,-247 1979,-266 2071,-266 2071,-247 1979,-247"/>
<text text-anchor="middle" x="2025" y="-254" font-family="Helvetica,sans-Serif" font-size="10.00">llvm::PtrToIntInst</text>
</a>
</g>
</g>
<!-- Node18&#45;&gt;Node26 -->
<g id="edge29" class="edge">
<title>Node18&#45;&gt;Node26</title>
<path fill="none" stroke="midnightblue" d="M1917.41,-282.72C1939.19,-277.36 1964.62,-271.11 1985.18,-266.05"/>
<polygon fill="midnightblue" stroke="midnightblue" points="1916.57,-279.32 1907.69,-285.11 1918.24,-286.12 1916.57,-279.32"/>
</g>
<!-- Node27 -->
<g id="node28" class="node">
<title>Node27</title>
<g id="a_node28"><a xlink:href="classllvm_1_1SExtInst.html" target="_top" xlink:title="This class represents a sign extension of integer types. ">
<polygon fill="none" stroke="black" points="1985.5,-209 1985.5,-228 2064.5,-228 2064.5,-209 1985.5,-209"/>
<text text-anchor="middle" x="2025" y="-216" font-family="Helvetica,sans-Serif" font-size="10.00">llvm::SExtInst</text>
</a>
</g>
</g>
<!-- Node18&#45;&gt;Node27 -->
<g id="edge30" class="edge">
<title>Node18&#45;&gt;Node27</title>
<path fill="none" stroke="midnightblue" d="M1914.96,-280.95C1918.46,-279.31 1921.85,-277.5 1925,-275.5 1944.92,-262.89 1941.88,-249.78 1962,-237.5 1969.11,-233.16 1977.29,-229.74 1985.33,-227.07"/>
<polygon fill="midnightblue" stroke="midnightblue" points="1913.43,-277.8 1905.57,-284.91 1916.15,-284.25 1913.43,-277.8"/>
</g>
<!-- Node28 -->
<g id="node29" class="node">
<title>Node28</title>
<g id="a_node29"><a xlink:href="classllvm_1_1SIToFPInst.html" target="_top" xlink:title="This class represents a cast from signed integer to floating point. ">
<polygon fill="none" stroke="black" points="1979.5,-171 1979.5,-190 2070.5,-190 2070.5,-171 1979.5,-171"/>
<text text-anchor="middle" x="2025" y="-178" font-family="Helvetica,sans-Serif" font-size="10.00">llvm::SIToFPInst</text>
</a>
</g>
</g>
<!-- Node18&#45;&gt;Node28 -->
<g id="edge31" class="edge">
<title>Node18&#45;&gt;Node28</title>
<path fill="none" stroke="midnightblue" d="M1916.74,-281.43C1919.69,-279.69 1922.48,-277.73 1925,-275.5 1953.15,-250.62 1933.45,-223.92 1962,-199.5 1967.05,-195.18 1973.06,-191.85 1979.33,-189.27"/>
<polygon fill="midnightblue" stroke="midnightblue" points="1914.93,-278.42 1907.51,-285.99 1918.03,-284.7 1914.93,-278.42"/>
</g>
<!-- Node29 -->
<g id="node30" class="node">
<title>Node29</title>
<g id="a_node30"><a xlink:href="classllvm_1_1TruncInst.html" target="_top" xlink:title="This class represents a truncation of integer types. ">
<polygon fill="none" stroke="black" points="1984,-133 1984,-152 2066,-152 2066,-133 1984,-133"/>
<text text-anchor="middle" x="2025" y="-140" font-family="Helvetica,sans-Serif" font-size="10.00">llvm::TruncInst</text>
</a>
</g>
</g>
<!-- Node18&#45;&gt;Node29 -->
<g id="edge32" class="edge">
<title>Node18&#45;&gt;Node29</title>
<path fill="none" stroke="midnightblue" d="M1916.7,-282.07C1919.72,-280.18 1922.53,-278.01 1925,-275.5 1943.68,-256.52 1943.01,-180.18 1962,-161.5 1968.02,-155.58 1975.83,-151.5 1983.87,-148.68"/>
<polygon fill="midnightblue" stroke="midnightblue" points="1915.05,-278.99 1907.76,-286.68 1918.25,-285.21 1915.05,-278.99"/>
</g>
<!-- Node30 -->
<g id="node31" class="node">
<title>Node30</title>
<g id="a_node31"><a xlink:href="classllvm_1_1UIToFPInst.html" target="_top" xlink:title="This class represents a cast unsigned integer to floating point. ">
<polygon fill="none" stroke="black" points="1979,-95 1979,-114 2071,-114 2071,-95 1979,-95"/>
<text text-anchor="middle" x="2025" y="-102" font-family="Helvetica,sans-Serif" font-size="10.00">llvm::UIToFPInst</text>
</a>
</g>
</g>
<!-- Node18&#45;&gt;Node30 -->
<g id="edge33" class="edge">
<title>Node18&#45;&gt;Node30</title>
<path fill="none" stroke="midnightblue" d="M1916.78,-282.36C1919.8,-280.41 1922.59,-278.14 1925,-275.5 1948.44,-249.82 1938.15,-148.79 1962,-123.5 1966.63,-118.59 1972.5,-114.93 1978.77,-112.22"/>
<polygon fill="midnightblue" stroke="midnightblue" points="1915.01,-279.34 1907.78,-287.08 1918.26,-285.54 1915.01,-279.34"/>
</g>
<!-- Node31 -->
<g id="node32" class="node">
<title>Node31</title>
<g id="a_node32"><a xlink:href="classllvm_1_1ZExtInst.html" target="_top" xlink:title="This class represents zero extension of integer types. ">
<polygon fill="none" stroke="black" points="1986,-57 1986,-76 2064,-76 2064,-57 1986,-57"/>
<text text-anchor="middle" x="2025" y="-64" font-family="Helvetica,sans-Serif" font-size="10.00">llvm::ZExtInst</text>
</a>
</g>
</g>
<!-- Node18&#45;&gt;Node31 -->
<g id="edge34" class="edge">
<title>Node18&#45;&gt;Node31</title>
<path fill="none" stroke="midnightblue" d="M1916.79,-282.58C1919.83,-280.57 1922.62,-278.23 1925,-275.5 1953.26,-243.07 1933.22,-117.47 1962,-85.5 1968.25,-78.55 1976.97,-74.12 1985.89,-71.29"/>
<polygon fill="midnightblue" stroke="midnightblue" points="1914.9,-279.62 1907.69,-287.38 1918.17,-285.81 1914.9,-279.62"/>
</g>
</g>
</svg>
