<?xml version="1.0" encoding="UTF-8" standalone="no"?>
<!DOCTYPE svg PUBLIC "-//W3C//DTD SVG 1.1//EN"
 "http://www.w3.org/Graphics/SVG/1.1/DTD/svg11.dtd">
<!-- Generated by graphviz version 2.43.0 (0)
 -->
<!-- Title: llvm::function_ref&lt; Fn &gt; Pages: 1 -->
<svg width="399pt" height="340pt"
 viewBox="0.00 0.00 399.00 340.00" xmlns="http://www.w3.org/2000/svg" xmlns:xlink="http://www.w3.org/1999/xlink">
<g id="graph0" class="graph" transform="scale(1 1) rotate(0) translate(4 336)">
<title>llvm::function_ref&lt; Fn &gt;</title>
<!-- Node0 -->
<g id="node1" class="node">
<title>Node0</title>
<polygon fill="#bfbfbf" stroke="black" points="0,-156 0,-186 92,-186 92,-156 0,-156"/>
<text text-anchor="start" x="8" y="-174" font-family="Helvetica,sans-Serif" font-size="10.00">llvm::function_ref</text>
<text text-anchor="middle" x="46" y="-163" font-family="Helvetica,sans-Serif" font-size="10.00">&lt; Fn &gt;</text>
</g>
<!-- Node1 -->
<g id="node2" class="node">
<title>Node1</title>
<g id="a_node2"><a xlink:href="classllvm_1_1function__ref.html" target="_top" xlink:title="llvm::function_ref\l\&lt; void(llvm::Instruction\l *, llvm::Value *)\&gt;">
<polygon fill="none" stroke="black" points="264,-290.5 264,-331.5 380,-331.5 380,-290.5 264,-290.5"/>
<text text-anchor="start" x="272" y="-319.5" font-family="Helvetica,sans-Serif" font-size="10.00">llvm::function_ref</text>
<text text-anchor="start" x="272" y="-308.5" font-family="Helvetica,sans-Serif" font-size="10.00">&lt; void(llvm::Instruction</text>
<text text-anchor="middle" x="322" y="-297.5" font-family="Helvetica,sans-Serif" font-size="10.00"> *, llvm::Value *)&gt;</text>
</a>
</g>
</g>
<!-- Node0&#45;&gt;Node1 -->
<g id="edge1" class="edge">
<title>Node0&#45;&gt;Node1</title>
<path fill="none" stroke="orange" stroke-dasharray="5,2" d="M57.36,-195.33C67.63,-216.48 85.4,-246.28 110,-263 155.67,-294.05 218.46,-305.26 263.66,-309.19"/>
<polygon fill="orange" stroke="orange" points="60.43,-193.62 53.05,-186.02 54.07,-196.57 60.43,-193.62"/>
<text text-anchor="start" x="121" y="-319" font-family="Helvetica,sans-Serif" font-size="10.00"> &lt; void(llvm::Instruction</text>
<text text-anchor="middle" x="172.5" y="-308" font-family="Helvetica,sans-Serif" font-size="10.00"> *, llvm::Value *)&gt;</text>
</g>
<!-- Node2 -->
<g id="node3" class="node">
<title>Node2</title>
<g id="a_node3"><a xlink:href="classllvm_1_1function__ref.html" target="_top" xlink:title="llvm::function_ref\l\&lt; void(llvm::Instruction *)\&gt;">
<polygon fill="none" stroke="black" points="256,-241 256,-271 388,-271 388,-241 256,-241"/>
<text text-anchor="start" x="264" y="-259" font-family="Helvetica,sans-Serif" font-size="10.00">llvm::function_ref</text>
<text text-anchor="middle" x="322" y="-248" font-family="Helvetica,sans-Serif" font-size="10.00">&lt; void(llvm::Instruction *)&gt;</text>
</a>
</g>
</g>
<!-- Node0&#45;&gt;Node2 -->
<g id="edge2" class="edge">
<title>Node0&#45;&gt;Node2</title>
<path fill="none" stroke="orange" stroke-dasharray="5,2" d="M71.28,-192.7C82.38,-201.52 96.12,-211.02 110,-217 156.36,-236.97 212.76,-246.72 255.58,-251.48"/>
<polygon fill="orange" stroke="orange" points="73.3,-189.82 63.36,-186.15 68.84,-195.22 73.3,-189.82"/>
<text text-anchor="middle" x="172.5" y="-251" font-family="Helvetica,sans-Serif" font-size="10.00"> &lt; void(llvm::Instruction *)&gt;</text>
</g>
<!-- Node3 -->
<g id="node4" class="node">
<title>Node3</title>
<g id="a_node4"><a xlink:href="classllvm_1_1function__ref.html" target="_top" xlink:title="llvm::function_ref\l\&lt; llvm::AssumptionCache\l *(llvm::Function &amp;)\&gt;">
<polygon fill="none" stroke="black" points="257,-180.5 257,-221.5 387,-221.5 387,-180.5 257,-180.5"/>
<text text-anchor="start" x="265" y="-209.5" font-family="Helvetica,sans-Serif" font-size="10.00">llvm::function_ref</text>
<text text-anchor="start" x="265" y="-198.5" font-family="Helvetica,sans-Serif" font-size="10.00">&lt; llvm::AssumptionCache</text>
<text text-anchor="middle" x="322" y="-187.5" font-family="Helvetica,sans-Serif" font-size="10.00"> *(llvm::Function &amp;)&gt;</text>
</a>
</g>
</g>
<!-- Node0&#45;&gt;Node3 -->
<g id="edge3" class="edge">
<title>Node0&#45;&gt;Node3</title>
<path fill="none" stroke="orange" stroke-dasharray="5,2" d="M102.35,-177.06C147.07,-181.96 210.08,-188.86 256.98,-193.99"/>
<polygon fill="orange" stroke="orange" points="102.57,-173.56 92.25,-175.95 101.81,-180.52 102.57,-173.56"/>
<text text-anchor="start" x="114" y="-205" font-family="Helvetica,sans-Serif" font-size="10.00"> &lt; llvm::AssumptionCache</text>
<text text-anchor="middle" x="172.5" y="-194" font-family="Helvetica,sans-Serif" font-size="10.00"> *(llvm::Function &amp;)&gt;</text>
</g>
<!-- Node4 -->
<g id="node5" class="node">
<title>Node4</title>
<g id="a_node5"><a xlink:href="classllvm_1_1function__ref.html" target="_top" xlink:title="llvm::function_ref\l\&lt; llvm::BlockFrequencyInfo\l *(llvm::Function &amp;)\&gt;">
<polygon fill="none" stroke="black" points="253.5,-120.5 253.5,-161.5 390.5,-161.5 390.5,-120.5 253.5,-120.5"/>
<text text-anchor="start" x="261.5" y="-149.5" font-family="Helvetica,sans-Serif" font-size="10.00">llvm::function_ref</text>
<text text-anchor="start" x="261.5" y="-138.5" font-family="Helvetica,sans-Serif" font-size="10.00">&lt; llvm::BlockFrequencyInfo</text>
<text text-anchor="middle" x="322" y="-127.5" font-family="Helvetica,sans-Serif" font-size="10.00"> *(llvm::Function &amp;)&gt;</text>
</a>
</g>
</g>
<!-- Node0&#45;&gt;Node4 -->
<g id="edge4" class="edge">
<title>Node0&#45;&gt;Node4</title>
<path fill="none" stroke="orange" stroke-dasharray="5,2" d="M101.94,-153.6C104.65,-153 107.35,-152.46 110,-152 157.34,-143.75 211.48,-141.06 253.07,-140.41"/>
<polygon fill="orange" stroke="orange" points="101,-150.22 92.11,-155.98 102.65,-157.02 101,-150.22"/>
<text text-anchor="start" x="110.5" y="-166" font-family="Helvetica,sans-Serif" font-size="10.00"> &lt; llvm::BlockFrequencyInfo</text>
<text text-anchor="middle" x="172.5" y="-155" font-family="Helvetica,sans-Serif" font-size="10.00"> *(llvm::Function &amp;)&gt;</text>
</g>
<!-- Node5 -->
<g id="node6" class="node">
<title>Node5</title>
<g id="a_node6"><a xlink:href="classllvm_1_1function__ref.html" target="_top" xlink:title="llvm::function_ref\l\&lt; llvm::TargetTransformInfo\l &amp;(llvm::Function &amp;)\&gt;">
<polygon fill="none" stroke="black" points="253,-60.5 253,-101.5 391,-101.5 391,-60.5 253,-60.5"/>
<text text-anchor="start" x="261" y="-89.5" font-family="Helvetica,sans-Serif" font-size="10.00">llvm::function_ref</text>
<text text-anchor="start" x="261" y="-78.5" font-family="Helvetica,sans-Serif" font-size="10.00">&lt; llvm::TargetTransformInfo</text>
<text text-anchor="middle" x="322" y="-67.5" font-family="Helvetica,sans-Serif" font-size="10.00"> &amp;(llvm::Function &amp;)&gt;</text>
</a>
</g>
</g>
<!-- Node0&#45;&gt;Node5 -->
<g id="edge5" class="edge">
<title>Node0&#45;&gt;Node5</title>
<path fill="none" stroke="orange" stroke-dasharray="5,2" d="M65.95,-148.35C77.42,-136.19 93.07,-122.08 110,-114 154.67,-92.68 210.13,-84.62 252.98,-81.79"/>
<polygon fill="orange" stroke="orange" points="63.16,-146.22 59.05,-155.98 68.35,-150.92 63.16,-146.22"/>
<text text-anchor="start" x="110" y="-128" font-family="Helvetica,sans-Serif" font-size="10.00"> &lt; llvm::TargetTransformInfo</text>
<text text-anchor="middle" x="172.5" y="-117" font-family="Helvetica,sans-Serif" font-size="10.00"> &amp;(llvm::Function &amp;)&gt;</text>
</g>
<!-- Node6 -->
<g id="node7" class="node">
<title>Node6</title>
<g id="a_node7"><a xlink:href="classllvm_1_1function__ref.html" target="_top" xlink:title="llvm::function_ref\l\&lt; void(const llvm::xray\l::XRayRecord &amp;)\&gt;">
<polygon fill="none" stroke="black" points="264,-0.5 264,-41.5 380,-41.5 380,-0.5 264,-0.5"/>
<text text-anchor="start" x="272" y="-29.5" font-family="Helvetica,sans-Serif" font-size="10.00">llvm::function_ref</text>
<text text-anchor="start" x="272" y="-18.5" font-family="Helvetica,sans-Serif" font-size="10.00">&lt; void(const llvm::xray</text>
<text text-anchor="middle" x="322" y="-7.5" font-family="Helvetica,sans-Serif" font-size="10.00">::XRayRecord &amp;)&gt;</text>
</a>
</g>
</g>
<!-- Node0&#45;&gt;Node6 -->
<g id="edge6" class="edge">
<title>Node0&#45;&gt;Node6</title>
<path fill="none" stroke="orange" stroke-dasharray="5,2" d="M53.68,-146.26C62.18,-119.76 79.56,-78.61 110,-57 154.84,-25.16 218.36,-18.1 263.97,-17.81"/>
<polygon fill="orange" stroke="orange" points="50.29,-145.37 50.75,-155.95 56.99,-147.39 50.29,-145.37"/>
<text text-anchor="start" x="122.5" y="-71" font-family="Helvetica,sans-Serif" font-size="10.00"> &lt; void(const llvm::</text>
<text text-anchor="middle" x="172.5" y="-60" font-family="Helvetica,sans-Serif" font-size="10.00">xray::XRayRecord &amp;)&gt;</text>
</g>
</g>
</svg>
