<?xml version="1.0" encoding="UTF-8" standalone="no"?>
<!DOCTYPE svg PUBLIC "-//W3C//DTD SVG 1.1//EN"
 "http://www.w3.org/Graphics/SVG/1.1/DTD/svg11.dtd">
<!-- Generated by graphviz version 2.43.0 (0)
 -->
<!-- Title: llvm::OverflowingBinaryOperator Pages: 1 -->
<svg width="792pt" height="230pt"
 viewBox="0.00 0.00 792.00 230.00" xmlns="http://www.w3.org/2000/svg" xmlns:xlink="http://www.w3.org/1999/xlink">
<g id="graph0" class="graph" transform="scale(1 1) rotate(0) translate(4 226)">
<title>llvm::OverflowingBinaryOperator</title>
<!-- Node0 -->
<g id="node1" class="node">
<title>Node0</title>
<polygon fill="#bfbfbf" stroke="black" points="313,-101.5 313,-120.5 471,-120.5 471,-101.5 313,-101.5"/>
<text text-anchor="middle" x="392" y="-108.5" font-family="Helvetica,sans-Serif" font-size="10.00">llvm::OverflowingBinaryOperator</text>
</g>
<!-- Node4 -->
<g id="node5" class="node">
<title>Node4</title>
<g id="a_node5"><a xlink:href="classllvm_1_1ConcreteOperator.html" target="_top" xlink:title="llvm::ConcreteOperator\l\&lt; OverflowingBinaryOperator,\l Instruction::Add \&gt;">
<polygon fill="none" stroke="black" points="507,-180.5 507,-221.5 653,-221.5 653,-180.5 507,-180.5"/>
<text text-anchor="start" x="515" y="-209.5" font-family="Helvetica,sans-Serif" font-size="10.00">llvm::ConcreteOperator</text>
<text text-anchor="start" x="515" y="-198.5" font-family="Helvetica,sans-Serif" font-size="10.00">&lt; OverflowingBinaryOperator,</text>
<text text-anchor="middle" x="580" y="-187.5" font-family="Helvetica,sans-Serif" font-size="10.00"> Instruction::Add &gt;</text>
</a>
</g>
</g>
<!-- Node0&#45;&gt;Node4 -->
<g id="edge4" class="edge">
<title>Node0&#45;&gt;Node4</title>
<path fill="none" stroke="midnightblue" d="M418.9,-125.48C441.79,-138.08 476.23,-156.53 507,-171 513.74,-174.17 520.91,-177.36 528.01,-180.42"/>
<polygon fill="midnightblue" stroke="midnightblue" points="420.58,-122.41 410.14,-120.64 417.2,-128.54 420.58,-122.41"/>
</g>
<!-- Node6 -->
<g id="node7" class="node">
<title>Node6</title>
<g id="a_node7"><a xlink:href="classllvm_1_1ConcreteOperator.html" target="_top" xlink:title="llvm::ConcreteOperator\l\&lt; OverflowingBinaryOperator,\l Instruction::Mul \&gt;">
<polygon fill="none" stroke="black" points="507,-120.5 507,-161.5 653,-161.5 653,-120.5 507,-120.5"/>
<text text-anchor="start" x="515" y="-149.5" font-family="Helvetica,sans-Serif" font-size="10.00">llvm::ConcreteOperator</text>
<text text-anchor="start" x="515" y="-138.5" font-family="Helvetica,sans-Serif" font-size="10.00">&lt; OverflowingBinaryOperator,</text>
<text text-anchor="middle" x="580" y="-127.5" font-family="Helvetica,sans-Serif" font-size="10.00"> Instruction::Mul &gt;</text>
</a>
</g>
</g>
<!-- Node0&#45;&gt;Node6 -->
<g id="edge6" class="edge">
<title>Node0&#45;&gt;Node6</title>
<path fill="none" stroke="midnightblue" d="M462.03,-122.13C476.59,-124.48 491.99,-126.97 506.67,-129.33"/>
<polygon fill="midnightblue" stroke="midnightblue" points="462.54,-118.67 452.11,-120.53 461.42,-125.58 462.54,-118.67"/>
</g>
<!-- Node8 -->
<g id="node9" class="node">
<title>Node8</title>
<g id="a_node9"><a xlink:href="classllvm_1_1ConcreteOperator.html" target="_top" xlink:title="llvm::ConcreteOperator\l\&lt; OverflowingBinaryOperator,\l Instruction::Shl \&gt;">
<polygon fill="none" stroke="black" points="507,-60.5 507,-101.5 653,-101.5 653,-60.5 507,-60.5"/>
<text text-anchor="start" x="515" y="-89.5" font-family="Helvetica,sans-Serif" font-size="10.00">llvm::ConcreteOperator</text>
<text text-anchor="start" x="515" y="-78.5" font-family="Helvetica,sans-Serif" font-size="10.00">&lt; OverflowingBinaryOperator,</text>
<text text-anchor="middle" x="580" y="-67.5" font-family="Helvetica,sans-Serif" font-size="10.00"> Instruction::Shl &gt;</text>
</a>
</g>
</g>
<!-- Node0&#45;&gt;Node8 -->
<g id="edge8" class="edge">
<title>Node0&#45;&gt;Node8</title>
<path fill="none" stroke="midnightblue" d="M462.03,-99.87C476.59,-97.52 491.99,-95.03 506.67,-92.67"/>
<polygon fill="midnightblue" stroke="midnightblue" points="461.42,-96.42 452.11,-101.47 462.54,-103.33 461.42,-96.42"/>
</g>
<!-- Node10 -->
<g id="node11" class="node">
<title>Node10</title>
<g id="a_node11"><a xlink:href="classllvm_1_1ConcreteOperator.html" target="_top" xlink:title="llvm::ConcreteOperator\l\&lt; OverflowingBinaryOperator,\l Instruction::Sub \&gt;">
<polygon fill="none" stroke="black" points="507,-0.5 507,-41.5 653,-41.5 653,-0.5 507,-0.5"/>
<text text-anchor="start" x="515" y="-29.5" font-family="Helvetica,sans-Serif" font-size="10.00">llvm::ConcreteOperator</text>
<text text-anchor="start" x="515" y="-18.5" font-family="Helvetica,sans-Serif" font-size="10.00">&lt; OverflowingBinaryOperator,</text>
<text text-anchor="middle" x="580" y="-7.5" font-family="Helvetica,sans-Serif" font-size="10.00"> Instruction::Sub &gt;</text>
</a>
</g>
</g>
<!-- Node0&#45;&gt;Node10 -->
<g id="edge10" class="edge">
<title>Node0&#45;&gt;Node10</title>
<path fill="none" stroke="midnightblue" d="M418.9,-96.52C441.79,-83.92 476.23,-65.47 507,-51 513.74,-47.83 520.91,-44.64 528.01,-41.58"/>
<polygon fill="midnightblue" stroke="midnightblue" points="417.2,-93.46 410.14,-101.36 420.58,-99.59 417.2,-93.46"/>
</g>
<!-- Node1 -->
<g id="node2" class="node">
<title>Node1</title>
<g id="a_node2"><a xlink:href="classllvm_1_1Operator.html" target="_top" xlink:title="This is a utility class that provides an abstraction for the common functionality between Instruction...">
<polygon fill="none" stroke="black" points="199,-101.5 199,-120.5 277,-120.5 277,-101.5 199,-101.5"/>
<text text-anchor="middle" x="238" y="-108.5" font-family="Helvetica,sans-Serif" font-size="10.00">llvm::Operator</text>
</a>
</g>
</g>
<!-- Node1&#45;&gt;Node0 -->
<g id="edge1" class="edge">
<title>Node1&#45;&gt;Node0</title>
<path fill="none" stroke="midnightblue" d="M287.4,-111C295.56,-111 304.22,-111 312.91,-111"/>
<polygon fill="midnightblue" stroke="midnightblue" points="287.36,-107.5 277.36,-111 287.36,-114.5 287.36,-107.5"/>
</g>
<!-- Node2 -->
<g id="node3" class="node">
<title>Node2</title>
<g id="a_node3"><a xlink:href="classllvm_1_1User.html" target="_top" xlink:title="llvm::User">
<polygon fill="none" stroke="black" points="101,-101.5 101,-120.5 163,-120.5 163,-101.5 101,-101.5"/>
<text text-anchor="middle" x="132" y="-108.5" font-family="Helvetica,sans-Serif" font-size="10.00">llvm::User</text>
</a>
</g>
</g>
<!-- Node2&#45;&gt;Node1 -->
<g id="edge2" class="edge">
<title>Node2&#45;&gt;Node1</title>
<path fill="none" stroke="midnightblue" d="M173.11,-111C181.56,-111 190.45,-111 198.83,-111"/>
<polygon fill="midnightblue" stroke="midnightblue" points="173.08,-107.5 163.08,-111 173.08,-114.5 173.08,-107.5"/>
</g>
<!-- Node3 -->
<g id="node4" class="node">
<title>Node3</title>
<g id="a_node4"><a xlink:href="classllvm_1_1Value.html" target="_top" xlink:title="LLVM Value Representation. ">
<polygon fill="none" stroke="black" points="0,-101.5 0,-120.5 65,-120.5 65,-101.5 0,-101.5"/>
<text text-anchor="middle" x="32.5" y="-108.5" font-family="Helvetica,sans-Serif" font-size="10.00">llvm::Value</text>
</a>
</g>
</g>
<!-- Node3&#45;&gt;Node2 -->
<g id="edge3" class="edge">
<title>Node3&#45;&gt;Node2</title>
<path fill="none" stroke="midnightblue" d="M75.38,-111C83.93,-111 92.78,-111 100.83,-111"/>
<polygon fill="midnightblue" stroke="midnightblue" points="75.16,-107.5 65.16,-111 75.16,-114.5 75.16,-107.5"/>
</g>
<!-- Node5 -->
<g id="node6" class="node">
<title>Node5</title>
<g id="a_node6"><a xlink:href="classllvm_1_1AddOperator.html" target="_top" xlink:title="llvm::AddOperator">
<polygon fill="none" stroke="black" points="689,-191.5 689,-210.5 784,-210.5 784,-191.5 689,-191.5"/>
<text text-anchor="middle" x="736.5" y="-198.5" font-family="Helvetica,sans-Serif" font-size="10.00">llvm::AddOperator</text>
</a>
</g>
</g>
<!-- Node4&#45;&gt;Node5 -->
<g id="edge5" class="edge">
<title>Node4&#45;&gt;Node5</title>
<path fill="none" stroke="midnightblue" d="M663.49,-201C672.18,-201 680.78,-201 688.86,-201"/>
<polygon fill="midnightblue" stroke="midnightblue" points="663.27,-197.5 653.27,-201 663.27,-204.5 663.27,-197.5"/>
</g>
<!-- Node7 -->
<g id="node8" class="node">
<title>Node7</title>
<g id="a_node8"><a xlink:href="classllvm_1_1MulOperator.html" target="_top" xlink:title="llvm::MulOperator">
<polygon fill="none" stroke="black" points="689.5,-131.5 689.5,-150.5 783.5,-150.5 783.5,-131.5 689.5,-131.5"/>
<text text-anchor="middle" x="736.5" y="-138.5" font-family="Helvetica,sans-Serif" font-size="10.00">llvm::MulOperator</text>
</a>
</g>
</g>
<!-- Node6&#45;&gt;Node7 -->
<g id="edge7" class="edge">
<title>Node6&#45;&gt;Node7</title>
<path fill="none" stroke="midnightblue" d="M663.34,-141C672.24,-141 681.05,-141 689.29,-141"/>
<polygon fill="midnightblue" stroke="midnightblue" points="663.27,-137.5 653.27,-141 663.27,-144.5 663.27,-137.5"/>
</g>
<!-- Node9 -->
<g id="node10" class="node">
<title>Node9</title>
<g id="a_node10"><a xlink:href="classllvm_1_1ShlOperator.html" target="_top" xlink:title="llvm::ShlOperator">
<polygon fill="none" stroke="black" points="690.5,-71.5 690.5,-90.5 782.5,-90.5 782.5,-71.5 690.5,-71.5"/>
<text text-anchor="middle" x="736.5" y="-78.5" font-family="Helvetica,sans-Serif" font-size="10.00">llvm::ShlOperator</text>
</a>
</g>
</g>
<!-- Node8&#45;&gt;Node9 -->
<g id="edge9" class="edge">
<title>Node8&#45;&gt;Node9</title>
<path fill="none" stroke="midnightblue" d="M663.3,-81C672.53,-81 681.66,-81 690.16,-81"/>
<polygon fill="midnightblue" stroke="midnightblue" points="663.27,-77.5 653.27,-81 663.27,-84.5 663.27,-77.5"/>
</g>
<!-- Node11 -->
<g id="node12" class="node">
<title>Node11</title>
<g id="a_node12"><a xlink:href="classllvm_1_1SubOperator.html" target="_top" xlink:title="llvm::SubOperator">
<polygon fill="none" stroke="black" points="689,-11.5 689,-30.5 784,-30.5 784,-11.5 689,-11.5"/>
<text text-anchor="middle" x="736.5" y="-18.5" font-family="Helvetica,sans-Serif" font-size="10.00">llvm::SubOperator</text>
</a>
</g>
</g>
<!-- Node10&#45;&gt;Node11 -->
<g id="edge11" class="edge">
<title>Node10&#45;&gt;Node11</title>
<path fill="none" stroke="midnightblue" d="M663.49,-21C672.18,-21 680.78,-21 688.86,-21"/>
<polygon fill="midnightblue" stroke="midnightblue" points="663.27,-17.5 653.27,-21 663.27,-24.5 663.27,-17.5"/>
</g>
</g>
</svg>
