<?xml version="1.0" encoding="UTF-8" standalone="no"?>
<!DOCTYPE svg PUBLIC "-//W3C//DTD SVG 1.1//EN"
 "http://www.w3.org/Graphics/SVG/1.1/DTD/svg11.dtd">
<!-- Generated by graphviz version 2.43.0 (0)
 -->
<!-- Title: llvm::X86_MC::X86MCInstrAnalysis Pages: 1 -->
<svg width="145pt" height="163pt"
 viewBox="0.00 0.00 145.00 163.00" xmlns="http://www.w3.org/2000/svg" xmlns:xlink="http://www.w3.org/1999/xlink">
<g id="graph0" class="graph" transform="scale(1 1) rotate(0) translate(4 159)">
<title>llvm::X86_MC::X86MCInstrAnalysis</title>
<!-- Node2 -->
<g id="node1" class="node">
<title>Node2</title>
<polygon fill="#bfbfbf" stroke="black" points="0,-0.5 0,-30.5 137,-30.5 137,-0.5 0,-0.5"/>
<text text-anchor="start" x="8" y="-18.5" font-family="Helvetica,sans-Serif" font-size="10.00">llvm::X86_MC::X86MCInstr</text>
<text text-anchor="middle" x="68.5" y="-7.5" font-family="Helvetica,sans-Serif" font-size="10.00">Analysis</text>
</g>
<!-- Node3 -->
<g id="node2" class="node">
<title>Node3</title>
<g id="a_node2"><a xlink:href="classllvm_1_1MCInstrAnalysis.html" target="_top" xlink:title="llvm::MCInstrAnalysis">
<polygon fill="none" stroke="black" points="12,-68.5 12,-87.5 125,-87.5 125,-68.5 12,-68.5"/>
<text text-anchor="middle" x="68.5" y="-75.5" font-family="Helvetica,sans-Serif" font-size="10.00">llvm::MCInstrAnalysis</text>
</a>
</g>
</g>
<!-- Node3&#45;&gt;Node2 -->
<g id="edge1" class="edge">
<title>Node3&#45;&gt;Node2</title>
<path fill="none" stroke="midnightblue" d="M68.5,-58.22C68.5,-49.36 68.5,-38.96 68.5,-30.76"/>
<polygon fill="midnightblue" stroke="midnightblue" points="65,-58.33 68.5,-68.33 72,-58.33 65,-58.33"/>
</g>
<!-- Node4 -->
<g id="node3" class="node">
<title>Node4</title>
<g id="a_node3"><a xlink:href="classllvm_1_1MCInstrInfo.html" target="_top" xlink:title="Interface to description of machine instruction set. ">
<polygon fill="none" stroke="black" points="22.5,-135.5 22.5,-154.5 114.5,-154.5 114.5,-135.5 22.5,-135.5"/>
<text text-anchor="middle" x="68.5" y="-142.5" font-family="Helvetica,sans-Serif" font-size="10.00">llvm::MCInstrInfo</text>
</a>
</g>
</g>
<!-- Node4&#45;&gt;Node3 -->
<g id="edge2" class="edge">
<title>Node4&#45;&gt;Node3</title>
<path fill="none" stroke="#9a32cd" stroke-dasharray="5,2" d="M68.5,-125.04C68.5,-112.67 68.5,-97.12 68.5,-87.63"/>
<polygon fill="#9a32cd" stroke="#9a32cd" points="65,-125.23 68.5,-135.23 72,-125.23 65,-125.23"/>
<text text-anchor="middle" x="78.5" y="-109" font-family="Helvetica,sans-Serif" font-size="10.00"> Info</text>
</g>
</g>
</svg>
