<?xml version="1.0" encoding="UTF-8" standalone="no"?>
<!DOCTYPE svg PUBLIC "-//W3C//DTD SVG 1.1//EN"
 "http://www.w3.org/Graphics/SVG/1.1/DTD/svg11.dtd">
<!-- Generated by graphviz version 2.43.0 (0)
 -->
<!-- Title: llvm::codeview::EnvBlockSym Pages: 1 -->
<svg width="375pt" height="162pt"
 viewBox="0.00 0.00 374.50 162.00" xmlns="http://www.w3.org/2000/svg" xmlns:xlink="http://www.w3.org/1999/xlink">
<g id="graph0" class="graph" transform="scale(1 1) rotate(0) translate(4 158)">
<title>llvm::codeview::EnvBlockSym</title>
<!-- Node2 -->
<g id="node1" class="node">
<title>Node2</title>
<polygon fill="#bfbfbf" stroke="black" points="121,-0.5 121,-19.5 271,-19.5 271,-0.5 121,-0.5"/>
<text text-anchor="middle" x="196" y="-7.5" font-family="Helvetica,sans-Serif" font-size="10.00">llvm::codeview::EnvBlockSym</text>
</g>
<!-- Node3 -->
<g id="node2" class="node">
<title>Node3</title>
<g id="a_node2"><a xlink:href="classllvm_1_1codeview_1_1SymbolRecord.html" target="_top" xlink:title="llvm::codeview::SymbolRecord">
<polygon fill="none" stroke="black" points="0,-67.5 0,-86.5 152,-86.5 152,-67.5 0,-67.5"/>
<text text-anchor="middle" x="76" y="-74.5" font-family="Helvetica,sans-Serif" font-size="10.00">llvm::codeview::SymbolRecord</text>
</a>
</g>
</g>
<!-- Node3&#45;&gt;Node2 -->
<g id="edge1" class="edge">
<title>Node3&#45;&gt;Node2</title>
<path fill="none" stroke="midnightblue" d="M101,-62.46C124.79,-49.57 159.87,-30.57 180.07,-19.63"/>
<polygon fill="midnightblue" stroke="midnightblue" points="99.31,-59.39 92.18,-67.23 102.64,-65.55 99.31,-59.39"/>
</g>
<!-- Node4 -->
<g id="node3" class="node">
<title>Node4</title>
<polygon fill="none" stroke="#bfbfbf" points="25.5,-134.5 25.5,-153.5 126.5,-153.5 126.5,-134.5 25.5,-134.5"/>
<text text-anchor="middle" x="76" y="-141.5" font-family="Helvetica,sans-Serif" font-size="10.00">SymbolRecordKind</text>
</g>
<!-- Node4&#45;&gt;Node3 -->
<g id="edge2" class="edge">
<title>Node4&#45;&gt;Node3</title>
<path fill="none" stroke="#9a32cd" stroke-dasharray="5,2" d="M76,-124.04C76,-111.67 76,-96.12 76,-86.63"/>
<polygon fill="#9a32cd" stroke="#9a32cd" points="72.5,-124.23 76,-134.23 79.5,-124.23 72.5,-124.23"/>
<text text-anchor="middle" x="87.5" y="-108" font-family="Helvetica,sans-Serif" font-size="10.00"> Kind</text>
</g>
<!-- Node5 -->
<g id="node4" class="node">
<title>Node5</title>
<g id="a_node4"><a xlink:href="classuint32__t.html" target="_top" xlink:title="uint32_t">
<polygon fill="none" stroke="black" points="170.5,-67.5 170.5,-86.5 221.5,-86.5 221.5,-67.5 170.5,-67.5"/>
<text text-anchor="middle" x="196" y="-74.5" font-family="Helvetica,sans-Serif" font-size="10.00">uint32_t</text>
</a>
</g>
</g>
<!-- Node5&#45;&gt;Node2 -->
<g id="edge3" class="edge">
<title>Node5&#45;&gt;Node2</title>
<path fill="none" stroke="#9a32cd" stroke-dasharray="5,2" d="M196,-57.04C196,-44.67 196,-29.12 196,-19.63"/>
<polygon fill="#9a32cd" stroke="#9a32cd" points="192.5,-57.23 196,-67.23 199.5,-57.23 192.5,-57.23"/>
<text text-anchor="middle" x="227" y="-41" font-family="Helvetica,sans-Serif" font-size="10.00"> RecordOffset</text>
</g>
<!-- Node6 -->
<g id="node5" class="node">
<title>Node6</title>
<polygon fill="none" stroke="#bfbfbf" points="239.5,-67.5 239.5,-86.5 366.5,-86.5 366.5,-67.5 239.5,-67.5"/>
<text text-anchor="middle" x="303" y="-74.5" font-family="Helvetica,sans-Serif" font-size="10.00">vector&lt; llvm::StringRef &gt;</text>
</g>
<!-- Node6&#45;&gt;Node2 -->
<g id="edge4" class="edge">
<title>Node6&#45;&gt;Node2</title>
<path fill="none" stroke="#9a32cd" stroke-dasharray="5,2" d="M288.42,-60.05C281.04,-52.64 271.61,-44.13 262,-38 250,-30.34 235.46,-24.12 223.09,-19.58"/>
<polygon fill="#9a32cd" stroke="#9a32cd" points="286.11,-62.69 295.55,-67.5 291.17,-57.85 286.11,-62.69"/>
<text text-anchor="middle" x="290" y="-41" font-family="Helvetica,sans-Serif" font-size="10.00"> Fields</text>
</g>
</g>
</svg>
