<?xml version="1.0" encoding="UTF-8" standalone="no"?>
<!DOCTYPE svg PUBLIC "-//W3C//DTD SVG 1.1//EN"
 "http://www.w3.org/Graphics/SVG/1.1/DTD/svg11.dtd">
<!-- Generated by graphviz version 2.43.0 (0)
 -->
<!-- Title: llvm::DeadArgumentEliminationPass Pages: 1 -->
<svg width="222pt" height="185pt"
 viewBox="0.00 0.00 222.00 185.00" xmlns="http://www.w3.org/2000/svg" xmlns:xlink="http://www.w3.org/1999/xlink">
<g id="graph0" class="graph" transform="scale(1 1) rotate(0) translate(4 181)">
<title>llvm::DeadArgumentEliminationPass</title>
<!-- Node0 -->
<g id="node1" class="node">
<title>Node0</title>
<polygon fill="#bfbfbf" stroke="black" points="0,-0.5 0,-19.5 176,-19.5 176,-0.5 0,-0.5"/>
<text text-anchor="middle" x="88" y="-7.5" font-family="Helvetica,sans-Serif" font-size="10.00">llvm::DeadArgumentEliminationPass</text>
</g>
<!-- Node1 -->
<g id="node2" class="node">
<title>Node1</title>
<g id="a_node2"><a xlink:href="structllvm_1_1PassInfoMixin.html" target="_top" xlink:title="llvm::PassInfoMixin\l\&lt; DeadArgumentEliminationPass \&gt;">
<polygon fill="none" stroke="black" points="3,-57.5 3,-87.5 173,-87.5 173,-57.5 3,-57.5"/>
<text text-anchor="start" x="11" y="-75.5" font-family="Helvetica,sans-Serif" font-size="10.00">llvm::PassInfoMixin</text>
<text text-anchor="middle" x="88" y="-64.5" font-family="Helvetica,sans-Serif" font-size="10.00">&lt; DeadArgumentEliminationPass &gt;</text>
</a>
</g>
</g>
<!-- Node1&#45;&gt;Node0 -->
<g id="edge1" class="edge">
<title>Node1&#45;&gt;Node0</title>
<path fill="none" stroke="midnightblue" d="M88,-47.35C88,-37.51 88,-26.78 88,-19.54"/>
<polygon fill="midnightblue" stroke="midnightblue" points="84.5,-47.47 88,-57.47 91.5,-47.47 84.5,-47.47"/>
</g>
<!-- Node2 -->
<g id="node3" class="node">
<title>Node2</title>
<g id="a_node3"><a xlink:href="structllvm_1_1PassInfoMixin.html" target="_top" xlink:title="A CRTP mix&#45;in to automatically provide informational APIs needed for passes. ">
<polygon fill="none" stroke="black" points="36.5,-146.5 36.5,-176.5 139.5,-176.5 139.5,-146.5 36.5,-146.5"/>
<text text-anchor="start" x="44.5" y="-164.5" font-family="Helvetica,sans-Serif" font-size="10.00">llvm::PassInfoMixin</text>
<text text-anchor="middle" x="88" y="-153.5" font-family="Helvetica,sans-Serif" font-size="10.00">&lt; DerivedT &gt;</text>
</a>
</g>
</g>
<!-- Node2&#45;&gt;Node1 -->
<g id="edge2" class="edge">
<title>Node2&#45;&gt;Node1</title>
<path fill="none" stroke="orange" stroke-dasharray="5,2" d="M88,-136.09C88,-120.44 88,-100.68 88,-87.6"/>
<polygon fill="orange" stroke="orange" points="84.5,-136.13 88,-146.13 91.5,-136.13 84.5,-136.13"/>
<text text-anchor="start" x="88" y="-120" font-family="Helvetica,sans-Serif" font-size="10.00"> &lt; DeadArgumentElimination</text>
<text text-anchor="middle" x="151" y="-109" font-family="Helvetica,sans-Serif" font-size="10.00">Pass &gt;</text>
</g>
</g>
</svg>
