<?xml version="1.0" encoding="UTF-8" standalone="no"?>
<!DOCTYPE svg PUBLIC "-//W3C//DTD SVG 1.1//EN"
 "http://www.w3.org/Graphics/SVG/1.1/DTD/svg11.dtd">
<!-- Generated by graphviz version 2.43.0 (0)
 -->
<!-- Title: llvm::sys::fs::file_status Pages: 1 -->
<svg width="491pt" height="185pt"
 viewBox="0.00 0.00 491.00 185.00" xmlns="http://www.w3.org/2000/svg" xmlns:xlink="http://www.w3.org/1999/xlink">
<g id="graph0" class="graph" transform="scale(1 1) rotate(0) translate(4 181)">
<title>llvm::sys::fs::file_status</title>
<!-- Node2 -->
<g id="node1" class="node">
<title>Node2</title>
<polygon fill="#bfbfbf" stroke="black" points="228.5,-0.5 228.5,-30.5 317.5,-30.5 317.5,-0.5 228.5,-0.5"/>
<text text-anchor="start" x="236.5" y="-18.5" font-family="Helvetica,sans-Serif" font-size="10.00">llvm::sys::fs::file</text>
<text text-anchor="middle" x="273" y="-7.5" font-family="Helvetica,sans-Serif" font-size="10.00">_status</text>
</g>
<!-- Node3 -->
<g id="node2" class="node">
<title>Node3</title>
<g id="a_node2"><a xlink:href="classllvm_1_1sys_1_1fs_1_1basic__file__status.html" target="_top" xlink:title="Represents the result of a call to directory_iterator::status(). ">
<polygon fill="none" stroke="black" points="223,-68.5 223,-98.5 323,-98.5 323,-68.5 223,-68.5"/>
<text text-anchor="start" x="231" y="-86.5" font-family="Helvetica,sans-Serif" font-size="10.00">llvm::sys::fs::basic</text>
<text text-anchor="middle" x="273" y="-75.5" font-family="Helvetica,sans-Serif" font-size="10.00">_file_status</text>
</a>
</g>
</g>
<!-- Node3&#45;&gt;Node2 -->
<g id="edge1" class="edge">
<title>Node3&#45;&gt;Node2</title>
<path fill="none" stroke="midnightblue" d="M273,-58.03C273,-48.86 273,-38.74 273,-30.79"/>
<polygon fill="midnightblue" stroke="midnightblue" points="269.5,-58.18 273,-68.18 276.5,-58.18 269.5,-58.18"/>
</g>
<!-- Node4 -->
<g id="node3" class="node">
<title>Node4</title>
<polygon fill="none" stroke="#bfbfbf" points="0,-157.5 0,-176.5 38,-176.5 38,-157.5 0,-157.5"/>
<text text-anchor="middle" x="19" y="-164.5" font-family="Helvetica,sans-Serif" font-size="10.00">gid_t</text>
</g>
<!-- Node4&#45;&gt;Node3 -->
<g id="edge2" class="edge">
<title>Node4&#45;&gt;Node3</title>
<path fill="none" stroke="#9a32cd" stroke-dasharray="5,2" d="M23.69,-147.8C27.41,-137.12 33.74,-124.32 44,-117 71.86,-97.11 164.19,-89.3 222.75,-86.3"/>
<polygon fill="#9a32cd" stroke="#9a32cd" points="20.31,-146.91 20.79,-157.5 27.01,-148.92 20.31,-146.91"/>
<text text-anchor="middle" x="65.5" y="-125.5" font-family="Helvetica,sans-Serif" font-size="10.00"> fs_st_gid</text>
</g>
<!-- Node5 -->
<g id="node4" class="node">
<title>Node5</title>
<polygon fill="none" stroke="#bfbfbf" points="63,-157.5 63,-176.5 107,-176.5 107,-157.5 63,-157.5"/>
<text text-anchor="middle" x="85" y="-164.5" font-family="Helvetica,sans-Serif" font-size="10.00">time_t</text>
</g>
<!-- Node5&#45;&gt;Node3 -->
<g id="edge3" class="edge">
<title>Node5&#45;&gt;Node3</title>
<path fill="none" stroke="#9a32cd" stroke-dasharray="5,2" d="M88.11,-147.37C90.82,-136.93 95.83,-124.53 105,-117 122.68,-102.49 179.89,-93.68 222.66,-88.96"/>
<polygon fill="#9a32cd" stroke="#9a32cd" points="84.66,-146.75 86.04,-157.26 91.51,-148.19 84.66,-146.75"/>
<text text-anchor="middle" x="134" y="-131" font-family="Helvetica,sans-Serif" font-size="10.00"> fs_st_mtime</text>
<text text-anchor="middle" x="134" y="-120" font-family="Helvetica,sans-Serif" font-size="10.00">fs_st_atime</text>
</g>
<!-- Node6 -->
<g id="node5" class="node">
<title>Node6</title>
<g id="a_node5"><a xlink:href="classuint32__t.html" target="_top" xlink:title="uint32_t">
<polygon fill="none" stroke="black" points="140.5,-157.5 140.5,-176.5 191.5,-176.5 191.5,-157.5 140.5,-157.5"/>
<text text-anchor="middle" x="166" y="-164.5" font-family="Helvetica,sans-Serif" font-size="10.00">uint32_t</text>
</a>
</g>
</g>
<!-- Node6&#45;&gt;Node3 -->
<g id="edge4" class="edge">
<title>Node6&#45;&gt;Node3</title>
<path fill="none" stroke="#9a32cd" stroke-dasharray="5,2" d="M165.97,-147C166.92,-136.97 169.71,-125.1 177,-117 188.77,-103.92 205.99,-96.1 222.61,-91.42"/>
<polygon fill="#9a32cd" stroke="#9a32cd" points="162.46,-147.1 165.54,-157.24 169.45,-147.39 162.46,-147.1"/>
<text text-anchor="middle" x="219" y="-131" font-family="Helvetica,sans-Serif" font-size="10.00"> fs_st_mtime_nsec</text>
<text text-anchor="middle" x="219" y="-120" font-family="Helvetica,sans-Serif" font-size="10.00">fs_st_atime_nsec</text>
</g>
<!-- Node7 -->
<g id="node6" class="node">
<title>Node7</title>
<polygon fill="none" stroke="#bfbfbf" points="239,-157.5 239,-176.5 283,-176.5 283,-157.5 239,-157.5"/>
<text text-anchor="middle" x="261" y="-164.5" font-family="Helvetica,sans-Serif" font-size="10.00">perms</text>
</g>
<!-- Node7&#45;&gt;Node3 -->
<g id="edge5" class="edge">
<title>Node7&#45;&gt;Node3</title>
<path fill="none" stroke="#9a32cd" stroke-dasharray="5,2" d="M263.76,-147.23C265.95,-132.41 268.94,-112.05 270.92,-98.6"/>
<polygon fill="#9a32cd" stroke="#9a32cd" points="260.28,-146.87 262.28,-157.28 267.2,-147.89 260.28,-146.87"/>
<text text-anchor="middle" x="284" y="-125.5" font-family="Helvetica,sans-Serif" font-size="10.00"> Perms</text>
</g>
<!-- Node8 -->
<g id="node7" class="node">
<title>Node8</title>
<polygon fill="none" stroke="#bfbfbf" points="301.5,-157.5 301.5,-176.5 354.5,-176.5 354.5,-157.5 301.5,-157.5"/>
<text text-anchor="middle" x="328" y="-164.5" font-family="Helvetica,sans-Serif" font-size="10.00">file_type</text>
</g>
<!-- Node8&#45;&gt;Node3 -->
<g id="edge6" class="edge">
<title>Node8&#45;&gt;Node3</title>
<path fill="none" stroke="#9a32cd" stroke-dasharray="5,2" d="M320.73,-147.89C316.5,-138.32 310.68,-126.59 304,-117 299.45,-110.47 293.61,-103.99 288.22,-98.55"/>
<polygon fill="#9a32cd" stroke="#9a32cd" points="317.56,-149.38 324.67,-157.24 324.01,-146.66 317.56,-149.38"/>
<text text-anchor="middle" x="328.5" y="-125.5" font-family="Helvetica,sans-Serif" font-size="10.00"> Type</text>
</g>
<!-- Node9 -->
<g id="node8" class="node">
<title>Node9</title>
<polygon fill="none" stroke="#bfbfbf" points="373,-157.5 373,-176.5 409,-176.5 409,-157.5 373,-157.5"/>
<text text-anchor="middle" x="391" y="-164.5" font-family="Helvetica,sans-Serif" font-size="10.00">off_t</text>
</g>
<!-- Node9&#45;&gt;Node3 -->
<g id="edge7" class="edge">
<title>Node9&#45;&gt;Node3</title>
<path fill="none" stroke="#9a32cd" stroke-dasharray="5,2" d="M378.35,-149.5C369.8,-139.16 357.76,-126.12 345,-117 334.85,-109.74 322.81,-103.54 311.52,-98.56"/>
<polygon fill="#9a32cd" stroke="#9a32cd" points="375.69,-151.77 384.67,-157.4 381.16,-147.41 375.69,-151.77"/>
<text text-anchor="middle" x="392.5" y="-125.5" font-family="Helvetica,sans-Serif" font-size="10.00"> fs_st_size</text>
</g>
<!-- Node10 -->
<g id="node9" class="node">
<title>Node10</title>
<polygon fill="none" stroke="#bfbfbf" points="436,-157.5 436,-176.5 474,-176.5 474,-157.5 436,-157.5"/>
<text text-anchor="middle" x="455" y="-164.5" font-family="Helvetica,sans-Serif" font-size="10.00">uid_t</text>
</g>
<!-- Node10&#45;&gt;Node3 -->
<g id="edge8" class="edge">
<title>Node10&#45;&gt;Node3</title>
<path fill="none" stroke="#9a32cd" stroke-dasharray="5,2" d="M446.77,-147.97C441.02,-137.37 432.34,-124.6 421,-117 392.15,-97.68 353.7,-89.64 323.23,-86.39"/>
<polygon fill="#9a32cd" stroke="#9a32cd" points="443.79,-149.83 451.38,-157.22 450.06,-146.71 443.79,-149.83"/>
<text text-anchor="middle" x="461.5" y="-125.5" font-family="Helvetica,sans-Serif" font-size="10.00"> fs_st_uid</text>
</g>
</g>
</svg>
