<?xml version="1.0" encoding="UTF-8" standalone="no"?>
<!DOCTYPE svg PUBLIC "-//W3C//DTD SVG 1.1//EN"
 "http://www.w3.org/Graphics/SVG/1.1/DTD/svg11.dtd">
<!-- Generated by graphviz version 2.43.0 (0)
 -->
<!-- Title: llvm::SrcValueSDNode Pages: 1 -->
<svg width="1406pt" height="496pt"
 viewBox="0.00 0.00 1406.00 495.50" xmlns="http://www.w3.org/2000/svg" xmlns:xlink="http://www.w3.org/1999/xlink">
<g id="graph0" class="graph" transform="scale(1 1) rotate(0) translate(4 491.5)">
<title>llvm::SrcValueSDNode</title>
<!-- Node11 -->
<g id="node1" class="node">
<title>Node11</title>
<polygon fill="#bfbfbf" stroke="black" points="1280,-219.5 1280,-238.5 1398,-238.5 1398,-219.5 1280,-219.5"/>
<text text-anchor="middle" x="1339" y="-226.5" font-family="Helvetica,sans-Serif" font-size="10.00">llvm::SrcValueSDNode</text>
</g>
<!-- Node12 -->
<g id="node2" class="node">
<title>Node12</title>
<g id="a_node2"><a xlink:href="classllvm_1_1SDNode.html" target="_top" xlink:title="Represents one node in the SelectionDAG. ">
<polygon fill="none" stroke="black" points="1165,-219.5 1165,-238.5 1243,-238.5 1243,-219.5 1165,-219.5"/>
<text text-anchor="middle" x="1204" y="-226.5" font-family="Helvetica,sans-Serif" font-size="10.00">llvm::SDNode</text>
</a>
</g>
</g>
<!-- Node12&#45;&gt;Node11 -->
<g id="edge1" class="edge">
<title>Node12&#45;&gt;Node11</title>
<path fill="none" stroke="midnightblue" d="M1253.33,-229C1261.93,-229 1270.96,-229 1279.79,-229"/>
<polygon fill="midnightblue" stroke="midnightblue" points="1253.11,-225.5 1243.11,-229 1253.11,-232.5 1253.11,-225.5"/>
</g>
<!-- Node13 -->
<g id="node3" class="node">
<title>Node13</title>
<g id="a_node3"><a xlink:href="classllvm_1_1FoldingSetBase_1_1Node.html" target="_top" xlink:title="Node &#45; This class is used to maintain the singly linked bucket list in a folding set. ">
<polygon fill="none" stroke="black" points="898.5,-427.5 898.5,-446.5 984.5,-446.5 984.5,-427.5 898.5,-427.5"/>
<text text-anchor="middle" x="941.5" y="-434.5" font-family="Helvetica,sans-Serif" font-size="10.00">FoldingSetNode</text>
</a>
</g>
</g>
<!-- Node13&#45;&gt;Node12 -->
<g id="edge2" class="edge">
<title>Node13&#45;&gt;Node12</title>
<path fill="none" stroke="midnightblue" d="M994.89,-441.46C1040.4,-442.4 1105.36,-436.28 1147,-400 1196.94,-356.5 1202.57,-267.78 1203.03,-238.56"/>
<polygon fill="midnightblue" stroke="midnightblue" points="994.74,-437.95 984.63,-441.12 994.51,-444.95 994.74,-437.95"/>
</g>
<!-- Node14 -->
<g id="node4" class="node">
<title>Node14</title>
<g id="a_node4"><a xlink:href="classllvm_1_1ilist__node.html" target="_top" xlink:title="llvm::ilist_node\&lt; SDNode \&gt;">
<polygon fill="none" stroke="black" points="873,-389.5 873,-408.5 1010,-408.5 1010,-389.5 873,-389.5"/>
<text text-anchor="middle" x="941.5" y="-396.5" font-family="Helvetica,sans-Serif" font-size="10.00">llvm::ilist_node&lt; SDNode &gt;</text>
</a>
</g>
</g>
<!-- Node14&#45;&gt;Node12 -->
<g id="edge3" class="edge">
<title>Node14&#45;&gt;Node12</title>
<path fill="none" stroke="midnightblue" d="M1020.5,-405.3C1062.06,-404.61 1111.74,-396.82 1147,-369 1189.54,-335.44 1199.9,-264.62 1202.31,-238.73"/>
<polygon fill="midnightblue" stroke="midnightblue" points="1020.39,-401.8 1010.4,-405.33 1020.41,-408.8 1020.39,-401.8"/>
</g>
<!-- Node15 -->
<g id="node5" class="node">
<title>Node15</title>
<g id="a_node5"><a xlink:href="classllvm_1_1ilist__node__impl.html" target="_top" xlink:title="llvm::ilist_node_impl\l\&lt; ilist_detail::compute\l_node_options\&lt; SDNode,\l Options... \&gt;::type \&gt;">
<polygon fill="none" stroke="black" points="484,-394 484,-446 613,-446 613,-394 484,-394"/>
<text text-anchor="start" x="492" y="-434" font-family="Helvetica,sans-Serif" font-size="10.00">llvm::ilist_node_impl</text>
<text text-anchor="start" x="492" y="-423" font-family="Helvetica,sans-Serif" font-size="10.00">&lt; ilist_detail::compute</text>
<text text-anchor="start" x="492" y="-412" font-family="Helvetica,sans-Serif" font-size="10.00">_node_options&lt; SDNode,</text>
<text text-anchor="middle" x="548.5" y="-401" font-family="Helvetica,sans-Serif" font-size="10.00"> Options... &gt;::type &gt;</text>
</a>
</g>
</g>
<!-- Node15&#45;&gt;Node14 -->
<g id="edge4" class="edge">
<title>Node15&#45;&gt;Node14</title>
<path fill="none" stroke="midnightblue" d="M623.51,-416.02C695.32,-412.17 803.35,-406.37 872.9,-402.63"/>
<polygon fill="midnightblue" stroke="midnightblue" points="622.99,-412.55 613.19,-416.58 623.36,-419.54 622.99,-412.55"/>
</g>
<!-- Node16 -->
<g id="node6" class="node">
<title>Node16</title>
<polygon fill="none" stroke="#bfbfbf" points="171,-435 171,-487 314,-487 314,-435 171,-435"/>
<text text-anchor="start" x="179" y="-475" font-family="Helvetica,sans-Serif" font-size="10.00">ilist_detail::compute</text>
<text text-anchor="start" x="179" y="-464" font-family="Helvetica,sans-Serif" font-size="10.00">_node_options::type </text>
<text text-anchor="start" x="179" y="-453" font-family="Helvetica,sans-Serif" font-size="10.00">::node_base_type&lt; SDNode,</text>
<text text-anchor="middle" x="242.5" y="-442" font-family="Helvetica,sans-Serif" font-size="10.00"> Options... &gt;</text>
</g>
<!-- Node16&#45;&gt;Node15 -->
<g id="edge5" class="edge">
<title>Node16&#45;&gt;Node15</title>
<path fill="none" stroke="#8b1a1a" d="M324.49,-460.16C365.14,-458.62 414.97,-455.03 459,-447 467.06,-445.53 475.42,-443.57 483.64,-441.38"/>
<polygon fill="#8b1a1a" stroke="#8b1a1a" points="324.24,-456.67 314.37,-460.51 324.48,-463.66 324.24,-456.67"/>
</g>
<!-- Node17 -->
<g id="node7" class="node">
<title>Node17</title>
<g id="a_node7"><a xlink:href="classllvm_1_1ilist__node__impl.html" target="_top" xlink:title="Implementation for an ilist node. ">
<polygon fill="none" stroke="black" points="190,-375 190,-405 295,-405 295,-375 190,-375"/>
<text text-anchor="start" x="198" y="-393" font-family="Helvetica,sans-Serif" font-size="10.00">llvm::ilist_node_impl</text>
<text text-anchor="middle" x="242.5" y="-382" font-family="Helvetica,sans-Serif" font-size="10.00">&lt; OptionsT &gt;</text>
</a>
</g>
</g>
<!-- Node17&#45;&gt;Node15 -->
<g id="edge6" class="edge">
<title>Node17&#45;&gt;Node15</title>
<path fill="none" stroke="orange" stroke-dasharray="5,2" d="M305.16,-396.08C357.14,-401.21 431.24,-408.53 483.79,-413.71"/>
<polygon fill="orange" stroke="orange" points="305.36,-392.59 295.07,-395.09 304.68,-399.55 305.36,-392.59"/>
<text text-anchor="start" x="339" y="-436" font-family="Helvetica,sans-Serif" font-size="10.00"> &lt; ilist_detail::compute</text>
<text text-anchor="start" x="339" y="-425" font-family="Helvetica,sans-Serif" font-size="10.00">_node_options&lt; SDNode,</text>
<text text-anchor="middle" x="395.5" y="-414" font-family="Helvetica,sans-Serif" font-size="10.00"> Options... &gt;::type &gt;</text>
</g>
<!-- Node20 -->
<g id="node10" class="node">
<title>Node20</title>
<g id="a_node10"><a xlink:href="classllvm_1_1ilist__node__impl.html" target="_top" xlink:title="llvm::ilist_node_impl\l\&lt; ilist_detail::compute\l_node_options\&lt; T, Options...\l \&gt;::type \&gt;">
<polygon fill="none" stroke="black" points="477,-323 477,-375 620,-375 620,-323 477,-323"/>
<text text-anchor="start" x="485" y="-363" font-family="Helvetica,sans-Serif" font-size="10.00">llvm::ilist_node_impl</text>
<text text-anchor="start" x="485" y="-352" font-family="Helvetica,sans-Serif" font-size="10.00">&lt; ilist_detail::compute</text>
<text text-anchor="start" x="485" y="-341" font-family="Helvetica,sans-Serif" font-size="10.00">_node_options&lt; T, Options...</text>
<text text-anchor="middle" x="548.5" y="-330" font-family="Helvetica,sans-Serif" font-size="10.00"> &gt;::type &gt;</text>
</a>
</g>
</g>
<!-- Node17&#45;&gt;Node20 -->
<g id="edge11" class="edge">
<title>Node17&#45;&gt;Node20</title>
<path fill="none" stroke="orange" stroke-dasharray="5,2" d="M291.74,-371.67C304.65,-367.47 318.71,-363.5 332,-361 379.69,-352.02 434.27,-349.05 476.58,-348.32"/>
<polygon fill="orange" stroke="orange" points="290.49,-368.4 282.13,-374.91 292.73,-375.03 290.49,-368.4"/>
<text text-anchor="start" x="332" y="-386" font-family="Helvetica,sans-Serif" font-size="10.00"> &lt; ilist_detail::compute</text>
<text text-anchor="start" x="332" y="-375" font-family="Helvetica,sans-Serif" font-size="10.00">_node_options&lt; T, Options...</text>
<text text-anchor="middle" x="395.5" y="-364" font-family="Helvetica,sans-Serif" font-size="10.00"> &gt;::type &gt;</text>
</g>
<!-- Node18 -->
<g id="node8" class="node">
<title>Node18</title>
<polygon fill="none" stroke="#bfbfbf" points="0,-380.5 0,-399.5 134,-399.5 134,-380.5 0,-380.5"/>
<text text-anchor="middle" x="67" y="-387.5" font-family="Helvetica,sans-Serif" font-size="10.00">OptionsT::node_base_type</text>
</g>
<!-- Node18&#45;&gt;Node17 -->
<g id="edge7" class="edge">
<title>Node18&#45;&gt;Node17</title>
<path fill="none" stroke="#8b1a1a" d="M144.16,-390C159.62,-390 175.53,-390 189.89,-390"/>
<polygon fill="#8b1a1a" stroke="#8b1a1a" points="144.09,-386.5 134.09,-390 144.09,-393.5 144.09,-386.5"/>
</g>
<!-- Node19 -->
<g id="node9" class="node">
<title>Node19</title>
<g id="a_node9"><a xlink:href="classllvm_1_1ilist__node.html" target="_top" xlink:title="llvm::ilist_node\&lt; T,\l Options \&gt;">
<polygon fill="none" stroke="black" points="657,-354 657,-384 757,-384 757,-354 657,-354"/>
<text text-anchor="start" x="665" y="-372" font-family="Helvetica,sans-Serif" font-size="10.00">llvm::ilist_node&lt; T,</text>
<text text-anchor="middle" x="707" y="-361" font-family="Helvetica,sans-Serif" font-size="10.00"> Options &gt;</text>
</a>
</g>
</g>
<!-- Node19&#45;&gt;Node14 -->
<g id="edge8" class="edge">
<title>Node19&#45;&gt;Node14</title>
<path fill="none" stroke="orange" stroke-dasharray="5,2" d="M767.17,-376.63C799.3,-380.78 839.18,-385.93 872.58,-390.24"/>
<polygon fill="orange" stroke="orange" points="767.39,-373.13 757.02,-375.33 766.49,-380.08 767.39,-373.13"/>
<text text-anchor="middle" x="804.5" y="-387" font-family="Helvetica,sans-Serif" font-size="10.00"> &lt; SDNode &gt;</text>
</g>
<!-- Node20&#45;&gt;Node19 -->
<g id="edge9" class="edge">
<title>Node20&#45;&gt;Node19</title>
<path fill="none" stroke="midnightblue" d="M630.54,-359.36C639.5,-360.5 648.41,-361.64 656.8,-362.71"/>
<polygon fill="midnightblue" stroke="midnightblue" points="630.79,-355.86 620.42,-358.06 629.9,-362.8 630.79,-355.86"/>
</g>
<!-- Node21 -->
<g id="node11" class="node">
<title>Node21</title>
<polygon fill="none" stroke="#bfbfbf" points="171,-303.5 171,-344.5 314,-344.5 314,-303.5 171,-303.5"/>
<text text-anchor="start" x="179" y="-332.5" font-family="Helvetica,sans-Serif" font-size="10.00">ilist_detail::compute</text>
<text text-anchor="start" x="179" y="-321.5" font-family="Helvetica,sans-Serif" font-size="10.00">_node_options&lt; T, Options...</text>
<text text-anchor="middle" x="242.5" y="-310.5" font-family="Helvetica,sans-Serif" font-size="10.00"> &gt;::type ::node_base_type</text>
</g>
<!-- Node21&#45;&gt;Node20 -->
<g id="edge10" class="edge">
<title>Node21&#45;&gt;Node20</title>
<path fill="none" stroke="#8b1a1a" d="M324.51,-328.13C364.96,-330.48 414.61,-333.8 459,-338 464.7,-338.54 470.61,-339.15 476.53,-339.81"/>
<polygon fill="#8b1a1a" stroke="#8b1a1a" points="324.62,-324.63 314.44,-327.56 324.22,-331.62 324.62,-324.63"/>
</g>
<!-- Node22 -->
<g id="node12" class="node">
<title>Node22</title>
<g id="a_node12"><a xlink:href="classllvm_1_1SDNode_1_1SDNodeBitfields.html" target="_top" xlink:title="llvm::SDNode::SDNodeBitfields">
<polygon fill="none" stroke="black" points="863,-351.5 863,-370.5 1020,-370.5 1020,-351.5 863,-351.5"/>
<text text-anchor="middle" x="941.5" y="-358.5" font-family="Helvetica,sans-Serif" font-size="10.00">llvm::SDNode::SDNodeBitfields</text>
</a>
</g>
</g>
<!-- Node22&#45;&gt;Node12 -->
<g id="edge12" class="edge">
<title>Node22&#45;&gt;Node12</title>
<path fill="none" stroke="#9a32cd" stroke-dasharray="5,2" d="M1030.34,-358.34C1068.97,-353.49 1113.15,-342.58 1147,-319 1176.3,-298.6 1193.35,-257.43 1199.89,-238.69"/>
<polygon fill="#9a32cd" stroke="#9a32cd" points="1029.67,-354.9 1020.13,-359.5 1030.46,-361.85 1029.67,-354.9"/>
<text text-anchor="middle" x="1098" y="-357" font-family="Helvetica,sans-Serif" font-size="10.00"> SDNodeBits</text>
</g>
<!-- Node23 -->
<g id="node13" class="node">
<title>Node23</title>
<g id="a_node13"><a xlink:href="classllvm_1_1SDNode_1_1StoreSDNodeBitfields.html" target="_top" xlink:title="llvm::SDNode::StoreSDNode\lBitfields">
<polygon fill="none" stroke="black" points="869,-302 869,-332 1014,-332 1014,-302 869,-302"/>
<text text-anchor="start" x="877" y="-320" font-family="Helvetica,sans-Serif" font-size="10.00">llvm::SDNode::StoreSDNode</text>
<text text-anchor="middle" x="941.5" y="-309" font-family="Helvetica,sans-Serif" font-size="10.00">Bitfields</text>
</a>
</g>
</g>
<!-- Node23&#45;&gt;Node12 -->
<g id="edge13" class="edge">
<title>Node23&#45;&gt;Node12</title>
<path fill="none" stroke="#9a32cd" stroke-dasharray="5,2" d="M1024.38,-308.73C1062.95,-302.63 1108.77,-292.1 1147,-274 1165.49,-265.25 1183.27,-249.24 1193.66,-238.87"/>
<polygon fill="#9a32cd" stroke="#9a32cd" points="1023.59,-305.31 1014.22,-310.26 1024.63,-312.23 1023.59,-305.31"/>
<text text-anchor="middle" x="1098" y="-307" font-family="Helvetica,sans-Serif" font-size="10.00"> StoreSDNodeBits</text>
</g>
<!-- Node24 -->
<g id="node14" class="node">
<title>Node24</title>
<g id="a_node14"><a xlink:href="classllvm_1_1SDNode_1_1MemSDNodeBitfields.html" target="_top" xlink:title="llvm::SDNode::MemSDNodeBitfields">
<polygon fill="none" stroke="black" points="852,-263.5 852,-282.5 1031,-282.5 1031,-263.5 852,-263.5"/>
<text text-anchor="middle" x="941.5" y="-270.5" font-family="Helvetica,sans-Serif" font-size="10.00">llvm::SDNode::MemSDNodeBitfields</text>
</a>
</g>
</g>
<!-- Node24&#45;&gt;Node12 -->
<g id="edge14" class="edge">
<title>Node24&#45;&gt;Node12</title>
<path fill="none" stroke="#9a32cd" stroke-dasharray="5,2" d="M1036.17,-262.14C1071.11,-257.45 1111.02,-251.34 1147,-244 1154.49,-242.47 1162.48,-240.53 1169.99,-238.55"/>
<polygon fill="#9a32cd" stroke="#9a32cd" points="1035.43,-258.7 1025.97,-263.48 1036.34,-265.64 1035.43,-258.7"/>
<text text-anchor="middle" x="1098" y="-262" font-family="Helvetica,sans-Serif" font-size="10.00"> MemSDNodeBits</text>
</g>
<!-- Node25 -->
<g id="node15" class="node">
<title>Node25</title>
<g id="a_node15"><a xlink:href="classllvm_1_1SDNode_1_1ConstantSDNodeBitfields.html" target="_top" xlink:title="llvm::SDNode::ConstantSDNode\lBitfields">
<polygon fill="none" stroke="black" points="861,-214 861,-244 1022,-244 1022,-214 861,-214"/>
<text text-anchor="start" x="869" y="-232" font-family="Helvetica,sans-Serif" font-size="10.00">llvm::SDNode::ConstantSDNode</text>
<text text-anchor="middle" x="941.5" y="-221" font-family="Helvetica,sans-Serif" font-size="10.00">Bitfields</text>
</a>
</g>
</g>
<!-- Node25&#45;&gt;Node12 -->
<g id="edge15" class="edge">
<title>Node25&#45;&gt;Node12</title>
<path fill="none" stroke="#9a32cd" stroke-dasharray="5,2" d="M1032.23,-229C1077.57,-229 1130.18,-229 1164.9,-229"/>
<polygon fill="#9a32cd" stroke="#9a32cd" points="1032.07,-225.5 1022.07,-229 1032.07,-232.5 1032.07,-225.5"/>
<text text-anchor="middle" x="1098" y="-232" font-family="Helvetica,sans-Serif" font-size="10.00"> ConstantSDNodeBits</text>
</g>
<!-- Node26 -->
<g id="node16" class="node">
<title>Node26</title>
<g id="a_node16"><a xlink:href="classuint16__t.html" target="_top" xlink:title="uint16_t">
<polygon fill="none" stroke="black" points="916,-175.5 916,-194.5 967,-194.5 967,-175.5 916,-175.5"/>
<text text-anchor="middle" x="941.5" y="-182.5" font-family="Helvetica,sans-Serif" font-size="10.00">uint16_t</text>
</a>
</g>
</g>
<!-- Node26&#45;&gt;Node12 -->
<g id="edge16" class="edge">
<title>Node26&#45;&gt;Node12</title>
<path fill="none" stroke="#9a32cd" stroke-dasharray="5,2" d="M977.2,-188.63C1018.06,-193.19 1087.85,-201.93 1147,-214 1154.49,-215.53 1162.48,-217.47 1169.99,-219.45"/>
<polygon fill="#9a32cd" stroke="#9a32cd" points="977.54,-185.14 967.22,-187.53 976.78,-192.1 977.54,-185.14"/>
<text text-anchor="middle" x="1098" y="-217" font-family="Helvetica,sans-Serif" font-size="10.00"> PersistentId</text>
</g>
<!-- Node27 -->
<g id="node17" class="node">
<title>Node27</title>
<g id="a_node17"><a xlink:href="classchar.html" target="_top" xlink:title="char">
<polygon fill="none" stroke="black" points="924,-137.5 924,-156.5 959,-156.5 959,-137.5 924,-137.5"/>
<text text-anchor="middle" x="941.5" y="-144.5" font-family="Helvetica,sans-Serif" font-size="10.00">char</text>
</a>
</g>
</g>
<!-- Node27&#45;&gt;Node12 -->
<g id="edge17" class="edge">
<title>Node27&#45;&gt;Node12</title>
<path fill="none" stroke="#9a32cd" stroke-dasharray="5,2" d="M969.36,-147.43C1009.72,-149.01 1087.6,-155.69 1147,-183 1165.98,-191.72 1183.89,-208.48 1194.14,-219.18"/>
<polygon fill="#9a32cd" stroke="#9a32cd" points="969.35,-143.93 959.25,-147.11 969.13,-150.93 969.35,-143.93"/>
<text text-anchor="middle" x="1098" y="-186" font-family="Helvetica,sans-Serif" font-size="10.00"> RawSDNodeBits</text>
</g>
<!-- Node28 -->
<g id="node18" class="node">
<title>Node28</title>
<g id="a_node18"><a xlink:href="classllvm_1_1SDNode_1_1LoadSDNodeBitfields.html" target="_top" xlink:title="llvm::SDNode::LoadSDNode\lBitfields">
<polygon fill="none" stroke="black" points="870,-88 870,-118 1013,-118 1013,-88 870,-88"/>
<text text-anchor="start" x="878" y="-106" font-family="Helvetica,sans-Serif" font-size="10.00">llvm::SDNode::LoadSDNode</text>
<text text-anchor="middle" x="941.5" y="-95" font-family="Helvetica,sans-Serif" font-size="10.00">Bitfields</text>
</a>
</g>
</g>
<!-- Node28&#45;&gt;Node12 -->
<g id="edge18" class="edge">
<title>Node28&#45;&gt;Node12</title>
<path fill="none" stroke="#9a32cd" stroke-dasharray="5,2" d="M1023.18,-102.65C1063.34,-106 1110.89,-115.61 1147,-140 1176.35,-159.82 1193.38,-200.71 1199.9,-219.36"/>
<polygon fill="#9a32cd" stroke="#9a32cd" points="1023.37,-99.15 1013.14,-101.93 1022.87,-106.13 1023.37,-99.15"/>
<text text-anchor="middle" x="1098" y="-143" font-family="Helvetica,sans-Serif" font-size="10.00"> LoadSDNodeBits</text>
</g>
<!-- Node29 -->
<g id="node19" class="node">
<title>Node29</title>
<g id="a_node19"><a xlink:href="classllvm_1_1SDNode_1_1LSBaseSDNodeBitfields.html" target="_top" xlink:title="llvm::SDNode::LSBaseSDNode\lBitfields">
<polygon fill="none" stroke="black" points="863.5,-39 863.5,-69 1019.5,-69 1019.5,-39 863.5,-39"/>
<text text-anchor="start" x="871.5" y="-57" font-family="Helvetica,sans-Serif" font-size="10.00">llvm::SDNode::LSBaseSDNode</text>
<text text-anchor="middle" x="941.5" y="-46" font-family="Helvetica,sans-Serif" font-size="10.00">Bitfields</text>
</a>
</g>
</g>
<!-- Node29&#45;&gt;Node12 -->
<g id="edge19" class="edge">
<title>Node29&#45;&gt;Node12</title>
<path fill="none" stroke="#9a32cd" stroke-dasharray="5,2" d="M1030.03,-51.43C1069.55,-54.56 1114.54,-64.63 1147,-91 1188.54,-124.74 1199.52,-194.15 1202.2,-219.48"/>
<polygon fill="#9a32cd" stroke="#9a32cd" points="1030.05,-47.92 1019.85,-50.76 1029.6,-54.91 1030.05,-47.92"/>
<text text-anchor="middle" x="1098" y="-94" font-family="Helvetica,sans-Serif" font-size="10.00"> LSBaseSDNodeBits</text>
</g>
<!-- Node30 -->
<g id="node20" class="node">
<title>Node30</title>
<polygon fill="none" stroke="#bfbfbf" points="893.5,-0.5 893.5,-19.5 989.5,-19.5 989.5,-0.5 893.5,-0.5"/>
<text text-anchor="middle" x="941.5" y="-7.5" font-family="Helvetica,sans-Serif" font-size="10.00">anonymous:@187</text>
</g>
<!-- Node30&#45;&gt;Node12 -->
<g id="edge20" class="edge">
<title>Node30&#45;&gt;Node12</title>
<path fill="none" stroke="#9a32cd" stroke-dasharray="5,2" d="M999.97,-2.24C1045.15,0.53 1106.94,-3.51 1147,-38 1203.04,-86.25 1204.52,-187.3 1203.5,-219.16"/>
<polygon fill="#9a32cd" stroke="#9a32cd" points="999.45,1.23 989.73,-3 999.97,-5.75 999.45,1.23"/>
<text text-anchor="middle" x="1098" y="-41" font-family="Helvetica,sans-Serif" font-size="10.00"> @187</text>
</g>
</g>
</svg>
