<?xml version="1.0" encoding="UTF-8" standalone="no"?>
<!DOCTYPE svg PUBLIC "-//W3C//DTD SVG 1.1//EN"
 "http://www.w3.org/Graphics/SVG/1.1/DTD/svg11.dtd">
<!-- Generated by graphviz version 2.43.0 (0)
 -->
<!-- Title: llvm::PGOIndirectCallPromotion Pages: 1 -->
<svg width="223pt" height="174pt"
 viewBox="0.00 0.00 223.00 174.00" xmlns="http://www.w3.org/2000/svg" xmlns:xlink="http://www.w3.org/1999/xlink">
<g id="graph0" class="graph" transform="scale(1 1) rotate(0) translate(4 170)">
<title>llvm::PGOIndirectCallPromotion</title>
<!-- Node3 -->
<g id="node1" class="node">
<title>Node3</title>
<polygon fill="#bfbfbf" stroke="black" points="0,-0.5 0,-19.5 156,-19.5 156,-0.5 0,-0.5"/>
<text text-anchor="middle" x="78" y="-7.5" font-family="Helvetica,sans-Serif" font-size="10.00">llvm::PGOIndirectCallPromotion</text>
</g>
<!-- Node4 -->
<g id="node2" class="node">
<title>Node4</title>
<g id="a_node2"><a xlink:href="structllvm_1_1PassInfoMixin.html" target="_top" xlink:title="llvm::PassInfoMixin\l\&lt; PGOIndirectCallPromotion \&gt;">
<polygon fill="none" stroke="black" points="3,-57.5 3,-87.5 153,-87.5 153,-57.5 3,-57.5"/>
<text text-anchor="start" x="11" y="-75.5" font-family="Helvetica,sans-Serif" font-size="10.00">llvm::PassInfoMixin</text>
<text text-anchor="middle" x="78" y="-64.5" font-family="Helvetica,sans-Serif" font-size="10.00">&lt; PGOIndirectCallPromotion &gt;</text>
</a>
</g>
</g>
<!-- Node4&#45;&gt;Node3 -->
<g id="edge1" class="edge">
<title>Node4&#45;&gt;Node3</title>
<path fill="none" stroke="midnightblue" d="M78,-47.35C78,-37.51 78,-26.78 78,-19.54"/>
<polygon fill="midnightblue" stroke="midnightblue" points="74.5,-47.47 78,-57.47 81.5,-47.47 74.5,-47.47"/>
</g>
<!-- Node5 -->
<g id="node3" class="node">
<title>Node5</title>
<g id="a_node3"><a xlink:href="structllvm_1_1PassInfoMixin.html" target="_top" xlink:title="A CRTP mix&#45;in to automatically provide informational APIs needed for passes. ">
<polygon fill="none" stroke="black" points="26.5,-135.5 26.5,-165.5 129.5,-165.5 129.5,-135.5 26.5,-135.5"/>
<text text-anchor="start" x="34.5" y="-153.5" font-family="Helvetica,sans-Serif" font-size="10.00">llvm::PassInfoMixin</text>
<text text-anchor="middle" x="78" y="-142.5" font-family="Helvetica,sans-Serif" font-size="10.00">&lt; DerivedT &gt;</text>
</a>
</g>
</g>
<!-- Node5&#45;&gt;Node4 -->
<g id="edge2" class="edge">
<title>Node5&#45;&gt;Node4</title>
<path fill="none" stroke="orange" stroke-dasharray="5,2" d="M78,-125.09C78,-112.76 78,-98.22 78,-87.73"/>
<polygon fill="orange" stroke="orange" points="74.5,-125.2 78,-135.2 81.5,-125.21 74.5,-125.2"/>
<text text-anchor="middle" x="146.5" y="-109" font-family="Helvetica,sans-Serif" font-size="10.00"> &lt; PGOIndirectCallPromotion &gt;</text>
</g>
</g>
</svg>
