<?xml version="1.0" encoding="UTF-8" standalone="no"?>
<!DOCTYPE svg PUBLIC "-//W3C//DTD SVG 1.1//EN"
 "http://www.w3.org/Graphics/SVG/1.1/DTD/svg11.dtd">
<!-- Generated by graphviz version 2.43.0 (0)
 -->
<!-- Title: llvm::JITSymbol Pages: 1 -->
<svg width="146pt" height="95pt"
 viewBox="0.00 0.00 145.50 95.00" xmlns="http://www.w3.org/2000/svg" xmlns:xlink="http://www.w3.org/1999/xlink">
<g id="graph0" class="graph" transform="scale(1 1) rotate(0) translate(4 91)">
<title>llvm::JITSymbol</title>
<!-- Node1 -->
<g id="node1" class="node">
<title>Node1</title>
<polygon fill="#bfbfbf" stroke="black" points="21.5,-0.5 21.5,-19.5 109.5,-19.5 109.5,-0.5 21.5,-0.5"/>
<text text-anchor="middle" x="65.5" y="-7.5" font-family="Helvetica,sans-Serif" font-size="10.00">llvm::JITSymbol</text>
</g>
<!-- Node2 -->
<g id="node2" class="node">
<title>Node2</title>
<polygon fill="none" stroke="#bfbfbf" points="0,-67.5 0,-86.5 51,-86.5 51,-67.5 0,-67.5"/>
<text text-anchor="middle" x="25.5" y="-74.5" font-family="Helvetica,sans-Serif" font-size="10.00">uint64_t</text>
</g>
<!-- Node2&#45;&gt;Node1 -->
<g id="edge1" class="edge">
<title>Node2&#45;&gt;Node1</title>
<path fill="none" stroke="#9a32cd" stroke-dasharray="5,2" d="M22.66,-57.32C22.52,-50.86 23.36,-43.8 26.5,-38 30.81,-30.03 38.62,-23.93 46.12,-19.55"/>
<polygon fill="#9a32cd" stroke="#9a32cd" points="19.18,-57.65 23.6,-67.28 26.15,-57 19.18,-57.65"/>
<text text-anchor="middle" x="55.5" y="-41" font-family="Helvetica,sans-Serif" font-size="10.00"> CachedAddr</text>
</g>
<!-- Node3 -->
<g id="node3" class="node">
<title>Node3</title>
<g id="a_node3"><a xlink:href="classllvm_1_1Error.html" target="_top" xlink:title="Lightweight error class with error context and mandatory checking. ">
<polygon fill="none" stroke="black" points="75.5,-67.5 75.5,-86.5 137.5,-86.5 137.5,-67.5 75.5,-67.5"/>
<text text-anchor="middle" x="106.5" y="-74.5" font-family="Helvetica,sans-Serif" font-size="10.00">llvm::Error</text>
</a>
</g>
</g>
<!-- Node3&#45;&gt;Node1 -->
<g id="edge2" class="edge">
<title>Node3&#45;&gt;Node1</title>
<path fill="none" stroke="#9a32cd" stroke-dasharray="5,2" d="M96.9,-58.68C93.16,-52.13 88.75,-44.64 84.5,-38 80.55,-31.82 75.8,-25.07 72.04,-19.86"/>
<polygon fill="#9a32cd" stroke="#9a32cd" points="93.86,-60.42 101.82,-67.42 99.97,-56.99 93.86,-60.42"/>
<text text-anchor="middle" x="98.5" y="-41" font-family="Helvetica,sans-Serif" font-size="10.00"> Err</text>
</g>
</g>
</svg>
