<?xml version="1.0" encoding="UTF-8" standalone="no"?>
<!DOCTYPE svg PUBLIC "-//W3C//DTD SVG 1.1//EN"
 "http://www.w3.org/Graphics/SVG/1.1/DTD/svg11.dtd">
<!-- Generated by graphviz version 2.43.0 (0)
 -->
<!-- Title: llvm::DebugHandlerBase Pages: 1 -->
<svg width="342pt" height="140pt"
 viewBox="0.00 0.00 341.50 140.00" xmlns="http://www.w3.org/2000/svg" xmlns:xlink="http://www.w3.org/1999/xlink">
<g id="graph0" class="graph" transform="scale(1 1) rotate(0) translate(4 136)">
<title>llvm::DebugHandlerBase</title>
<!-- Node0 -->
<g id="node1" class="node">
<title>Node0</title>
<polygon fill="#bfbfbf" stroke="black" points="100.5,-56.5 100.5,-75.5 225.5,-75.5 225.5,-56.5 100.5,-56.5"/>
<text text-anchor="middle" x="163" y="-63.5" font-family="Helvetica,sans-Serif" font-size="10.00">llvm::DebugHandlerBase</text>
</g>
<!-- Node2 -->
<g id="node3" class="node">
<title>Node2</title>
<g id="a_node3"><a xlink:href="classllvm_1_1BTFDebug.html" target="_top" xlink:title="Collect and emit BTF information. ">
<polygon fill="none" stroke="black" points="0,-0.5 0,-19.5 88,-19.5 88,-0.5 0,-0.5"/>
<text text-anchor="middle" x="44" y="-7.5" font-family="Helvetica,sans-Serif" font-size="10.00">llvm::BTFDebug</text>
</a>
</g>
</g>
<!-- Node0&#45;&gt;Node2 -->
<g id="edge2" class="edge">
<title>Node0&#45;&gt;Node2</title>
<path fill="none" stroke="midnightblue" d="M134.86,-52.23C112.6,-42.13 82.14,-28.31 62.77,-19.52"/>
<polygon fill="midnightblue" stroke="midnightblue" points="133.59,-55.5 144.14,-56.44 136.48,-49.12 133.59,-55.5"/>
</g>
<!-- Node3 -->
<g id="node4" class="node">
<title>Node3</title>
<g id="a_node4"><a xlink:href="classllvm_1_1CodeViewDebug.html" target="_top" xlink:title="Collects and handles line tables information in a CodeView format. ">
<polygon fill="none" stroke="black" points="106,-0.5 106,-19.5 220,-19.5 220,-0.5 106,-0.5"/>
<text text-anchor="middle" x="163" y="-7.5" font-family="Helvetica,sans-Serif" font-size="10.00">llvm::CodeViewDebug</text>
</a>
</g>
</g>
<!-- Node0&#45;&gt;Node3 -->
<g id="edge3" class="edge">
<title>Node0&#45;&gt;Node3</title>
<path fill="none" stroke="midnightblue" d="M163,-45.8C163,-36.91 163,-26.78 163,-19.75"/>
<polygon fill="midnightblue" stroke="midnightblue" points="159.5,-46.08 163,-56.08 166.5,-46.08 159.5,-46.08"/>
</g>
<!-- Node4 -->
<g id="node5" class="node">
<title>Node4</title>
<g id="a_node5"><a xlink:href="classllvm_1_1DwarfDebug.html" target="_top" xlink:title="Collects and handles dwarf debug information. ">
<polygon fill="none" stroke="black" points="238.5,-0.5 238.5,-19.5 333.5,-19.5 333.5,-0.5 238.5,-0.5"/>
<text text-anchor="middle" x="286" y="-7.5" font-family="Helvetica,sans-Serif" font-size="10.00">llvm::DwarfDebug</text>
</a>
</g>
</g>
<!-- Node0&#45;&gt;Node4 -->
<g id="edge4" class="edge">
<title>Node0&#45;&gt;Node4</title>
<path fill="none" stroke="midnightblue" d="M191.77,-52.37C214.81,-42.26 246.48,-28.35 266.6,-19.52"/>
<polygon fill="midnightblue" stroke="midnightblue" points="190.24,-49.22 182.49,-56.44 193.05,-55.63 190.24,-49.22"/>
</g>
<!-- Node1 -->
<g id="node2" class="node">
<title>Node1</title>
<g id="a_node2"><a xlink:href="classllvm_1_1AsmPrinterHandler.html" target="_top" xlink:title="Collects and handles AsmPrinter objects required to build debug or EH information. ">
<polygon fill="none" stroke="black" points="101.5,-112.5 101.5,-131.5 224.5,-131.5 224.5,-112.5 101.5,-112.5"/>
<text text-anchor="middle" x="163" y="-119.5" font-family="Helvetica,sans-Serif" font-size="10.00">llvm::AsmPrinterHandler</text>
</a>
</g>
</g>
<!-- Node1&#45;&gt;Node0 -->
<g id="edge1" class="edge">
<title>Node1&#45;&gt;Node0</title>
<path fill="none" stroke="midnightblue" d="M163,-101.8C163,-92.91 163,-82.78 163,-75.75"/>
<polygon fill="midnightblue" stroke="midnightblue" points="159.5,-102.08 163,-112.08 166.5,-102.08 159.5,-102.08"/>
</g>
</g>
</svg>
