<?xml version="1.0" encoding="UTF-8" standalone="no"?>
<!DOCTYPE svg PUBLIC "-//W3C//DTD SVG 1.1//EN"
 "http://www.w3.org/Graphics/SVG/1.1/DTD/svg11.dtd">
<!-- Generated by graphviz version 2.43.0 (0)
 -->
<!-- Title: llvm::MCObjectFileInfo Pages: 1 -->
<svg width="1529pt" height="423pt"
 viewBox="0.00 0.00 1529.00 422.89" xmlns="http://www.w3.org/2000/svg" xmlns:xlink="http://www.w3.org/1999/xlink">
<g id="graph0" class="graph" transform="scale(1 1) rotate(0) translate(4 418.89)">
<title>llvm::MCObjectFileInfo</title>
<!-- Node29 -->
<g id="node1" class="node">
<title>Node29</title>
<polygon fill="#bfbfbf" stroke="black" points="1404,-129.72 1404,-148.72 1521,-148.72 1521,-129.72 1404,-129.72"/>
<text text-anchor="middle" x="1462.5" y="-136.72" font-family="Helvetica,sans-Serif" font-size="10.00">llvm::MCObjectFileInfo</text>
</g>
<!-- Node30 -->
<g id="node2" class="node">
<title>Node30</title>
<g id="a_node2"><a xlink:href="classllvm_1_1DenseMap.html" target="_top" xlink:title="llvm::DenseMap\&lt; const\l llvm::MCSymbol *, unsigned \&gt;">
<polygon fill="none" stroke="black" points="1027,-263.22 1027,-293.22 1180,-293.22 1180,-263.22 1027,-263.22"/>
<text text-anchor="start" x="1035" y="-281.22" font-family="Helvetica,sans-Serif" font-size="10.00">llvm::DenseMap&lt; const</text>
<text text-anchor="middle" x="1103.5" y="-270.22" font-family="Helvetica,sans-Serif" font-size="10.00"> llvm::MCSymbol *, unsigned &gt;</text>
</a>
</g>
</g>
<!-- Node30&#45;&gt;Node29 -->
<g id="edge1" class="edge">
<title>Node30&#45;&gt;Node29</title>
<path fill="none" stroke="#9a32cd" stroke-dasharray="5,2" d="M1190.23,-290.49C1249.3,-294.62 1327.4,-291.17 1386,-256.22 1428.15,-231.07 1450.93,-172.24 1458.55,-148.95"/>
<polygon fill="#9a32cd" stroke="#9a32cd" points="1190.42,-286.99 1180.18,-289.7 1189.87,-293.97 1190.42,-286.99"/>
<text text-anchor="middle" x="1292" y="-294.22" font-family="Helvetica,sans-Serif" font-size="10.00"> StackSizesUniquing</text>
</g>
<!-- Node31 -->
<g id="node3" class="node">
<title>Node31</title>
<g id="a_node3"><a xlink:href="classllvm_1_1DenseMapBase.html" target="_top" xlink:title="llvm::DenseMapBase\l\&lt; DenseMap\&lt; const llvm\l::MCSymbol *, unsigned,\l DenseMapInfo\&lt; const llvm\l::MCSymbol *\&gt;, llvm::detail\l::DenseMapPair\&lt; const llvm\l::MCSymbol *, unsigned \&gt; \&gt;,\l const llvm::MCSymbol *, unsigned,\l DenseMapInfo\&lt; const llvm::MCSymbol\l *\&gt;, llvm::detail::DenseMapPair\&lt; const\l llvm::MCSymbol *, unsigned \&gt; \&gt;">
<polygon fill="none" stroke="black" points="502,-260.72 502,-389.72 694,-389.72 694,-260.72 502,-260.72"/>
<text text-anchor="start" x="510" y="-377.72" font-family="Helvetica,sans-Serif" font-size="10.00">llvm::DenseMapBase</text>
<text text-anchor="start" x="510" y="-366.72" font-family="Helvetica,sans-Serif" font-size="10.00">&lt; DenseMap&lt; const llvm</text>
<text text-anchor="start" x="510" y="-355.72" font-family="Helvetica,sans-Serif" font-size="10.00">::MCSymbol *, unsigned,</text>
<text text-anchor="start" x="510" y="-344.72" font-family="Helvetica,sans-Serif" font-size="10.00"> DenseMapInfo&lt; const llvm</text>
<text text-anchor="start" x="510" y="-333.72" font-family="Helvetica,sans-Serif" font-size="10.00">::MCSymbol *&gt;, llvm::detail</text>
<text text-anchor="start" x="510" y="-322.72" font-family="Helvetica,sans-Serif" font-size="10.00">::DenseMapPair&lt; const llvm</text>
<text text-anchor="start" x="510" y="-311.72" font-family="Helvetica,sans-Serif" font-size="10.00">::MCSymbol *, unsigned &gt; &gt;,</text>
<text text-anchor="start" x="510" y="-300.72" font-family="Helvetica,sans-Serif" font-size="10.00"> const llvm::MCSymbol *, unsigned,</text>
<text text-anchor="start" x="510" y="-289.72" font-family="Helvetica,sans-Serif" font-size="10.00"> DenseMapInfo&lt; const llvm::MCSymbol</text>
<text text-anchor="start" x="510" y="-278.72" font-family="Helvetica,sans-Serif" font-size="10.00"> *&gt;, llvm::detail::DenseMapPair&lt; const</text>
<text text-anchor="middle" x="598" y="-267.72" font-family="Helvetica,sans-Serif" font-size="10.00"> llvm::MCSymbol *, unsigned &gt; &gt;</text>
</a>
</g>
</g>
<!-- Node31&#45;&gt;Node30 -->
<g id="edge2" class="edge">
<title>Node31&#45;&gt;Node30</title>
<path fill="none" stroke="midnightblue" d="M704.19,-318.1C787.11,-312.11 905.59,-302.68 1009,-291.22 1014.78,-290.57 1020.76,-289.86 1026.77,-289.11"/>
<polygon fill="midnightblue" stroke="midnightblue" points="703.73,-314.63 694,-318.84 704.23,-321.61 703.73,-314.63"/>
</g>
<!-- Node32 -->
<g id="node4" class="node">
<title>Node32</title>
<g id="a_node4"><a xlink:href="classllvm_1_1DebugEpochBase.html" target="_top" xlink:title="A base class for data structure classes wishing to make iterators (&quot;handles&quot;) pointing into themselve...">
<polygon fill="none" stroke="black" points="0,-258.72 0,-277.72 119,-277.72 119,-258.72 0,-258.72"/>
<text text-anchor="middle" x="59.5" y="-265.72" font-family="Helvetica,sans-Serif" font-size="10.00">llvm::DebugEpochBase</text>
</a>
</g>
</g>
<!-- Node32&#45;&gt;Node31 -->
<g id="edge3" class="edge">
<title>Node32&#45;&gt;Node31</title>
<path fill="none" stroke="midnightblue" d="M81.31,-283.83C122.14,-313.38 216.76,-376.56 308,-399.22 383.92,-418.07 409.04,-421.58 484,-399.22 492.2,-396.77 500.36,-393.52 508.33,-389.74"/>
<polygon fill="midnightblue" stroke="midnightblue" points="83.12,-280.82 72.99,-277.73 78.99,-286.47 83.12,-280.82"/>
</g>
<!-- Node33 -->
<g id="node5" class="node">
<title>Node33</title>
<g id="a_node5"><a xlink:href="classllvm_1_1DenseMapBase.html" target="_top" xlink:title="llvm::DenseMapBase\l\&lt; DerivedT, KeyT, ValueT,\l KeyInfoT, BucketT \&gt;">
<polygon fill="none" stroke="black" points="156,-247.72 156,-288.72 290,-288.72 290,-247.72 156,-247.72"/>
<text text-anchor="start" x="164" y="-276.72" font-family="Helvetica,sans-Serif" font-size="10.00">llvm::DenseMapBase</text>
<text text-anchor="start" x="164" y="-265.72" font-family="Helvetica,sans-Serif" font-size="10.00">&lt; DerivedT, KeyT, ValueT,</text>
<text text-anchor="middle" x="223" y="-254.72" font-family="Helvetica,sans-Serif" font-size="10.00"> KeyInfoT, BucketT &gt;</text>
</a>
</g>
</g>
<!-- Node32&#45;&gt;Node33 -->
<g id="edge5" class="edge">
<title>Node32&#45;&gt;Node33</title>
<path fill="none" stroke="midnightblue" d="M129.45,-268.22C138.22,-268.22 147.18,-268.22 155.9,-268.22"/>
<polygon fill="midnightblue" stroke="midnightblue" points="129.26,-264.72 119.26,-268.22 129.26,-271.72 129.26,-264.72"/>
</g>
<!-- Node35 -->
<g id="node7" class="node">
<title>Node35</title>
<g id="a_node7"><a xlink:href="classllvm_1_1DenseMapBase.html" target="_top" xlink:title="llvm::DenseMapBase\l\&lt; DenseMap\&lt; KeyT, ValueT,\l KeyInfoT, BucketT \&gt;, KeyT,\l ValueT, KeyInfoT, BucketT \&gt;">
<polygon fill="none" stroke="black" points="524,-189.22 524,-241.22 672,-241.22 672,-189.22 524,-189.22"/>
<text text-anchor="start" x="532" y="-229.22" font-family="Helvetica,sans-Serif" font-size="10.00">llvm::DenseMapBase</text>
<text text-anchor="start" x="532" y="-218.22" font-family="Helvetica,sans-Serif" font-size="10.00">&lt; DenseMap&lt; KeyT, ValueT,</text>
<text text-anchor="start" x="532" y="-207.22" font-family="Helvetica,sans-Serif" font-size="10.00"> KeyInfoT, BucketT &gt;, KeyT,</text>
<text text-anchor="middle" x="598" y="-196.22" font-family="Helvetica,sans-Serif" font-size="10.00"> ValueT, KeyInfoT, BucketT &gt;</text>
</a>
</g>
</g>
<!-- Node32&#45;&gt;Node35 -->
<g id="edge8" class="edge">
<title>Node32&#45;&gt;Node35</title>
<path fill="none" stroke="midnightblue" d="M97.26,-255.33C114.87,-249.5 136.36,-242.89 156,-238.22 298.23,-204.36 337.81,-211.92 484,-213.22 496.85,-213.33 510.52,-213.52 523.76,-213.73"/>
<polygon fill="midnightblue" stroke="midnightblue" points="95.75,-252.15 87.38,-258.65 97.98,-258.78 95.75,-252.15"/>
</g>
<!-- Node33&#45;&gt;Node31 -->
<g id="edge4" class="edge">
<title>Node33&#45;&gt;Node31</title>
<path fill="none" stroke="orange" stroke-dasharray="5,2" d="M300.19,-269.81C352.35,-272.01 422.87,-277.17 484,-289.22 489.86,-290.37 495.84,-291.72 501.84,-293.22"/>
<polygon fill="orange" stroke="orange" points="300.14,-266.3 290.01,-269.41 299.87,-273.3 300.14,-266.3"/>
<text text-anchor="start" x="308" y="-391.22" font-family="Helvetica,sans-Serif" font-size="10.00"> &lt; DenseMap&lt; const llvm</text>
<text text-anchor="start" x="308" y="-380.22" font-family="Helvetica,sans-Serif" font-size="10.00">::MCSymbol *, unsigned,</text>
<text text-anchor="start" x="308" y="-369.22" font-family="Helvetica,sans-Serif" font-size="10.00"> DenseMapInfo&lt; const llvm</text>
<text text-anchor="start" x="308" y="-358.22" font-family="Helvetica,sans-Serif" font-size="10.00">::MCSymbol *&gt;, llvm::detail</text>
<text text-anchor="start" x="308" y="-347.22" font-family="Helvetica,sans-Serif" font-size="10.00">::DenseMapPair&lt; const llvm</text>
<text text-anchor="start" x="308" y="-336.22" font-family="Helvetica,sans-Serif" font-size="10.00">::MCSymbol *, unsigned &gt; &gt;,</text>
<text text-anchor="start" x="308" y="-325.22" font-family="Helvetica,sans-Serif" font-size="10.00"> const llvm::MCSymbol *, unsigned,</text>
<text text-anchor="start" x="308" y="-314.22" font-family="Helvetica,sans-Serif" font-size="10.00"> DenseMapInfo&lt; const llvm::MCSymbol</text>
<text text-anchor="start" x="308" y="-303.22" font-family="Helvetica,sans-Serif" font-size="10.00"> *&gt;, llvm::detail::DenseMapPair&lt; const</text>
<text text-anchor="middle" x="396" y="-292.22" font-family="Helvetica,sans-Serif" font-size="10.00"> llvm::MCSymbol *, unsigned &gt; &gt;</text>
</g>
<!-- Node33&#45;&gt;Node35 -->
<g id="edge9" class="edge">
<title>Node33&#45;&gt;Node35</title>
<path fill="none" stroke="orange" stroke-dasharray="5,2" d="M275.34,-243.68C285.93,-239.52 297.16,-235.74 308,-233.22 380.1,-216.45 464.87,-213.01 523.88,-213.12"/>
<polygon fill="orange" stroke="orange" points="273.75,-240.55 265.82,-247.58 276.4,-247.03 273.75,-240.55"/>
<text text-anchor="start" x="330" y="-258.22" font-family="Helvetica,sans-Serif" font-size="10.00"> &lt; DenseMap&lt; KeyT, ValueT,</text>
<text text-anchor="start" x="330" y="-247.22" font-family="Helvetica,sans-Serif" font-size="10.00"> KeyInfoT, BucketT &gt;, KeyT,</text>
<text text-anchor="middle" x="396" y="-236.22" font-family="Helvetica,sans-Serif" font-size="10.00"> ValueT, KeyInfoT, BucketT &gt;</text>
</g>
<!-- Node34 -->
<g id="node6" class="node">
<title>Node34</title>
<g id="a_node6"><a xlink:href="classllvm_1_1DenseMap.html" target="_top" xlink:title="llvm::DenseMap\&lt; KeyT,\l ValueT, KeyInfoT, BucketT \&gt;">
<polygon fill="none" stroke="black" points="731,-224.22 731,-254.22 879,-254.22 879,-224.22 731,-224.22"/>
<text text-anchor="start" x="739" y="-242.22" font-family="Helvetica,sans-Serif" font-size="10.00">llvm::DenseMap&lt; KeyT,</text>
<text text-anchor="middle" x="805" y="-231.22" font-family="Helvetica,sans-Serif" font-size="10.00"> ValueT, KeyInfoT, BucketT &gt;</text>
</a>
</g>
</g>
<!-- Node34&#45;&gt;Node30 -->
<g id="edge6" class="edge">
<title>Node34&#45;&gt;Node30</title>
<path fill="none" stroke="orange" stroke-dasharray="5,2" d="M889.22,-250.16C932.45,-255.85 984.89,-262.75 1026.96,-268.28"/>
<polygon fill="orange" stroke="orange" points="889.66,-246.69 879.29,-248.86 888.75,-253.63 889.66,-246.69"/>
<text text-anchor="start" x="897" y="-279.22" font-family="Helvetica,sans-Serif" font-size="10.00"> &lt; const llvm::MCSymbol</text>
<text text-anchor="middle" x="953" y="-268.22" font-family="Helvetica,sans-Serif" font-size="10.00"> *, unsigned &gt;</text>
</g>
<!-- Node35&#45;&gt;Node34 -->
<g id="edge7" class="edge">
<title>Node35&#45;&gt;Node34</title>
<path fill="none" stroke="midnightblue" d="M682.1,-224.94C698.26,-226.84 715.08,-228.81 730.89,-230.66"/>
<polygon fill="midnightblue" stroke="midnightblue" points="682.48,-221.47 672.14,-223.78 681.67,-228.42 682.48,-221.47"/>
</g>
<!-- Node36 -->
<g id="node8" class="node">
<title>Node36</title>
<g id="a_node8"><a xlink:href="classbool.html" target="_top" xlink:title="bool">
<polygon fill="none" stroke="black" points="1086,-201.72 1086,-220.72 1121,-220.72 1121,-201.72 1086,-201.72"/>
<text text-anchor="middle" x="1103.5" y="-208.72" font-family="Helvetica,sans-Serif" font-size="10.00">bool</text>
</a>
</g>
</g>
<!-- Node36&#45;&gt;Node29 -->
<g id="edge10" class="edge">
<title>Node36&#45;&gt;Node29</title>
<path fill="none" stroke="#9a32cd" stroke-dasharray="5,2" d="M1131.46,-210.83C1192.46,-209.67 1339.42,-205.25 1386,-189.22 1411.57,-180.42 1436.86,-160.87 1450.71,-148.99"/>
<polygon fill="#9a32cd" stroke="#9a32cd" points="1131.05,-207.33 1121.11,-211.01 1131.17,-214.33 1131.05,-207.33"/>
<text text-anchor="middle" x="1292" y="-244.22" font-family="Helvetica,sans-Serif" font-size="10.00"> OmitDwarfIfHaveCompactUnwind</text>
<text text-anchor="middle" x="1292" y="-233.22" font-family="Helvetica,sans-Serif" font-size="10.00">SupportsWeakOmittedEHFrame</text>
<text text-anchor="middle" x="1292" y="-222.22" font-family="Helvetica,sans-Serif" font-size="10.00">SupportsCompactUnwindWithoutEHFrame</text>
<text text-anchor="middle" x="1292" y="-211.22" font-family="Helvetica,sans-Serif" font-size="10.00">CommDirectiveSupportsAlignment</text>
</g>
<!-- Node37 -->
<g id="node9" class="node">
<title>Node37</title>
<g id="a_node9"><a xlink:href="classllvm_1_1MCSection.html" target="_top" xlink:title="Instances of this class represent a uniqued identifier for a section in the current translation unit...">
<polygon fill="none" stroke="black" points="1059,-57.72 1059,-76.72 1148,-76.72 1148,-57.72 1059,-57.72"/>
<text text-anchor="middle" x="1103.5" y="-64.72" font-family="Helvetica,sans-Serif" font-size="10.00">llvm::MCSection</text>
</a>
</g>
</g>
<!-- Node37&#45;&gt;Node29 -->
<g id="edge11" class="edge">
<title>Node37&#45;&gt;Node29</title>
<path fill="none" stroke="#9a32cd" stroke-dasharray="5,2" d="M1158.46,-61.69C1228.46,-55.36 1346.3,-47.85 1386,-64.22 1418.45,-77.6 1444.32,-112.43 1455.5,-129.5"/>
<polygon fill="#9a32cd" stroke="#9a32cd" points="1157.71,-58.24 1148.08,-62.65 1158.36,-65.21 1157.71,-58.24"/>
<text text-anchor="middle" x="1292" y="-177.22" font-family="Helvetica,sans-Serif" font-size="10.00"> MergeableConst16Section</text>
<text text-anchor="middle" x="1292" y="-166.22" font-family="Helvetica,sans-Serif" font-size="10.00">MergeableConst4Section</text>
<text text-anchor="middle" x="1292" y="-155.22" font-family="Helvetica,sans-Serif" font-size="10.00">CompactUnwindSection</text>
<text text-anchor="middle" x="1292" y="-144.22" font-family="Helvetica,sans-Serif" font-size="10.00">DrectveSection</text>
<text text-anchor="middle" x="1292" y="-133.22" font-family="Helvetica,sans-Serif" font-size="10.00">TextCoalSection</text>
<text text-anchor="middle" x="1292" y="-122.22" font-family="Helvetica,sans-Serif" font-size="10.00">DwarfGnuPubTypesSection</text>
<text text-anchor="middle" x="1292" y="-111.22" font-family="Helvetica,sans-Serif" font-size="10.00">DwarfLoclistsDWOSection</text>
<text text-anchor="middle" x="1292" y="-100.22" font-family="Helvetica,sans-Serif" font-size="10.00">DwarfLoclistsSection</text>
<text text-anchor="middle" x="1292" y="-89.22" font-family="Helvetica,sans-Serif" font-size="10.00">ReadOnlySection</text>
<text text-anchor="middle" x="1292" y="-78.22" font-family="Helvetica,sans-Serif" font-size="10.00">ThreadLocalPointerSection</text>
<text text-anchor="middle" x="1292" y="-67.22" font-family="Helvetica,sans-Serif" font-size="10.00">...</text>
</g>
<!-- Node38 -->
<g id="node10" class="node">
<title>Node38</title>
<g id="a_node10"><a xlink:href="classllvm_1_1SectionKind.html" target="_top" xlink:title="SectionKind &#45; This is a simple POD value that classifies the properties of a section. ">
<polygon fill="none" stroke="black" points="758.5,-76.72 758.5,-95.72 851.5,-95.72 851.5,-76.72 758.5,-76.72"/>
<text text-anchor="middle" x="805" y="-83.72" font-family="Helvetica,sans-Serif" font-size="10.00">llvm::SectionKind</text>
</a>
</g>
</g>
<!-- Node38&#45;&gt;Node37 -->
<g id="edge12" class="edge">
<title>Node38&#45;&gt;Node37</title>
<path fill="none" stroke="#9a32cd" stroke-dasharray="5,2" d="M861.97,-82.63C919.06,-78.97 1006.47,-73.37 1058.7,-70.02"/>
<polygon fill="#9a32cd" stroke="#9a32cd" points="861.43,-79.16 851.68,-83.29 861.88,-86.14 861.43,-79.16"/>
<text text-anchor="middle" x="953" y="-82.22" font-family="Helvetica,sans-Serif" font-size="10.00"> Kind</text>
</g>
<!-- Node39 -->
<g id="node11" class="node">
<title>Node39</title>
<polygon fill="none" stroke="#bfbfbf" points="765,-38.72 765,-57.72 845,-57.72 845,-38.72 765,-38.72"/>
<text text-anchor="middle" x="805" y="-45.72" font-family="Helvetica,sans-Serif" font-size="10.00">SectionVariant</text>
</g>
<!-- Node39&#45;&gt;Node37 -->
<g id="edge13" class="edge">
<title>Node39&#45;&gt;Node37</title>
<path fill="none" stroke="#9a32cd" stroke-dasharray="5,2" d="M855.36,-50C896.49,-51.64 956.6,-54.41 1009,-58.22 1025.26,-59.4 1043.09,-61.03 1058.77,-62.58"/>
<polygon fill="#9a32cd" stroke="#9a32cd" points="855.46,-46.5 845.33,-49.61 855.18,-53.5 855.46,-46.5"/>
<text text-anchor="middle" x="953" y="-61.22" font-family="Helvetica,sans-Serif" font-size="10.00"> Variant</text>
</g>
<!-- Node40 -->
<g id="node12" class="node">
<title>Node40</title>
<g id="a_node12"><a xlink:href="classunsigned.html" target="_top" xlink:title="unsigned">
<polygon fill="none" stroke="black" points="1075.5,-12.72 1075.5,-31.72 1131.5,-31.72 1131.5,-12.72 1075.5,-12.72"/>
<text text-anchor="middle" x="1103.5" y="-19.72" font-family="Helvetica,sans-Serif" font-size="10.00">unsigned</text>
</a>
</g>
</g>
<!-- Node40&#45;&gt;Node29 -->
<g id="edge14" class="edge">
<title>Node40&#45;&gt;Node29</title>
<path fill="none" stroke="#9a32cd" stroke-dasharray="5,2" d="M1141.72,-12.82C1198.32,-0.67 1307.74,14.27 1386,-28.22 1427.37,-50.68 1450.46,-106.8 1458.36,-129.48"/>
<polygon fill="#9a32cd" stroke="#9a32cd" points="1140.77,-9.45 1131.78,-15.04 1142.3,-16.28 1140.77,-9.45"/>
<text text-anchor="middle" x="1292" y="-42.22" font-family="Helvetica,sans-Serif" font-size="10.00"> FDECFIEncoding</text>
<text text-anchor="middle" x="1292" y="-31.22" font-family="Helvetica,sans-Serif" font-size="10.00">CompactUnwindDwarfEHFrameOnly</text>
</g>
</g>
</svg>
