<?xml version="1.0" encoding="UTF-8" standalone="no"?>
<!DOCTYPE svg PUBLIC "-//W3C//DTD SVG 1.1//EN"
 "http://www.w3.org/Graphics/SVG/1.1/DTD/svg11.dtd">
<!-- Generated by graphviz version 2.43.0 (0)
 -->
<!-- Title: llvm::DICommonBlock Pages: 1 -->
<svg width="180pt" height="391pt"
 viewBox="0.00 0.00 180.00 391.00" xmlns="http://www.w3.org/2000/svg" xmlns:xlink="http://www.w3.org/1999/xlink">
<g id="graph0" class="graph" transform="scale(1 1) rotate(0) translate(4 387)">
<title>llvm::DICommonBlock</title>
<!-- Node5 -->
<g id="node1" class="node">
<title>Node5</title>
<polygon fill="#bfbfbf" stroke="black" points="0,-0.5 0,-19.5 116,-19.5 116,-0.5 0,-0.5"/>
<text text-anchor="middle" x="58" y="-7.5" font-family="Helvetica,sans-Serif" font-size="10.00">llvm::DICommonBlock</text>
</g>
<!-- Node6 -->
<g id="node2" class="node">
<title>Node6</title>
<g id="a_node2"><a xlink:href="classllvm_1_1DIScope.html" target="_top" xlink:title="Base class for scope&#45;like contexts. ">
<polygon fill="none" stroke="black" points="84.5,-57.5 84.5,-76.5 163.5,-76.5 163.5,-57.5 84.5,-57.5"/>
<text text-anchor="middle" x="124" y="-64.5" font-family="Helvetica,sans-Serif" font-size="10.00">llvm::DIScope</text>
</a>
</g>
</g>
<!-- Node6&#45;&gt;Node5 -->
<g id="edge1" class="edge">
<title>Node6&#45;&gt;Node5</title>
<path fill="none" stroke="midnightblue" d="M106,-51C93.95,-40.96 78.53,-28.1 68.46,-19.71"/>
<polygon fill="midnightblue" stroke="midnightblue" points="103.76,-53.69 113.69,-57.41 108.25,-48.32 103.76,-53.69"/>
</g>
<!-- Node7 -->
<g id="node3" class="node">
<title>Node7</title>
<g id="a_node3"><a xlink:href="classllvm_1_1DINode.html" target="_top" xlink:title="Tagged DWARF&#45;like metadata node. ">
<polygon fill="none" stroke="black" points="98,-132 98,-151 172,-151 172,-132 98,-132"/>
<text text-anchor="middle" x="135" y="-139" font-family="Helvetica,sans-Serif" font-size="10.00">llvm::DINode</text>
</a>
</g>
</g>
<!-- Node7&#45;&gt;Node6 -->
<g id="edge2" class="edge">
<title>Node7&#45;&gt;Node6</title>
<path fill="none" stroke="midnightblue" d="M132.19,-121.96C129.97,-107.37 126.99,-87.7 125.3,-76.59"/>
<polygon fill="midnightblue" stroke="midnightblue" points="128.73,-122.54 133.69,-131.9 135.66,-121.49 128.73,-122.54"/>
</g>
<!-- Node8 -->
<g id="node4" class="node">
<title>Node8</title>
<g id="a_node4"><a xlink:href="classllvm_1_1MDNode.html" target="_top" xlink:title="Metadata node. ">
<polygon fill="none" stroke="black" points="84,-206.5 84,-225.5 164,-225.5 164,-206.5 84,-206.5"/>
<text text-anchor="middle" x="124" y="-213.5" font-family="Helvetica,sans-Serif" font-size="10.00">llvm::MDNode</text>
</a>
</g>
</g>
<!-- Node8&#45;&gt;Node7 -->
<g id="edge3" class="edge">
<title>Node8&#45;&gt;Node7</title>
<path fill="none" stroke="midnightblue" d="M126.81,-196.46C129.03,-181.87 132.01,-162.2 133.7,-151.09"/>
<polygon fill="midnightblue" stroke="midnightblue" points="123.34,-195.99 125.31,-206.4 130.27,-197.04 123.34,-195.99"/>
</g>
<!-- Node9 -->
<g id="node5" class="node">
<title>Node9</title>
<g id="a_node5"><a xlink:href="classllvm_1_1Metadata.html" target="_top" xlink:title="Root of the metadata hierarchy. ">
<polygon fill="none" stroke="black" points="17.5,-263.5 17.5,-282.5 98.5,-282.5 98.5,-263.5 17.5,-263.5"/>
<text text-anchor="middle" x="58" y="-270.5" font-family="Helvetica,sans-Serif" font-size="10.00">llvm::Metadata</text>
</a>
</g>
</g>
<!-- Node9&#45;&gt;Node5 -->
<g id="edge6" class="edge">
<title>Node9&#45;&gt;Node5</title>
<path fill="none" stroke="#9a32cd" stroke-dasharray="5,2" d="M51.87,-253.43C48.91,-242.87 46,-229.33 46,-217 46,-217 46,-217 46,-66 46,-49.39 51.29,-30.58 54.85,-19.83"/>
<polygon fill="#9a32cd" stroke="#9a32cd" points="48.58,-254.63 54.85,-263.17 55.28,-252.59 48.58,-254.63"/>
<text text-anchor="middle" x="63" y="-161" font-family="Helvetica,sans-Serif" font-size="10.00"> LineNo</text>
<text text-anchor="middle" x="63" y="-150" font-family="Helvetica,sans-Serif" font-size="10.00">Decl</text>
<text text-anchor="middle" x="63" y="-139" font-family="Helvetica,sans-Serif" font-size="10.00">File</text>
<text text-anchor="middle" x="63" y="-128" font-family="Helvetica,sans-Serif" font-size="10.00">Name</text>
<text text-anchor="middle" x="63" y="-117" font-family="Helvetica,sans-Serif" font-size="10.00">Scope</text>
</g>
<!-- Node9&#45;&gt;Node8 -->
<g id="edge4" class="edge">
<title>Node9&#45;&gt;Node8</title>
<path fill="none" stroke="midnightblue" d="M76,-257C88.05,-246.96 103.47,-234.1 113.54,-225.71"/>
<polygon fill="midnightblue" stroke="midnightblue" points="73.75,-254.32 68.31,-263.41 78.24,-259.69 73.75,-254.32"/>
</g>
<!-- Node10 -->
<g id="node6" class="node">
<title>Node10</title>
<g id="a_node6"><a xlink:href="classunsigned.html" target="_top" xlink:title="unsigned">
<polygon fill="none" stroke="black" points="30,-363.5 30,-382.5 86,-382.5 86,-363.5 30,-363.5"/>
<text text-anchor="middle" x="58" y="-370.5" font-family="Helvetica,sans-Serif" font-size="10.00">unsigned</text>
</a>
</g>
</g>
<!-- Node10&#45;&gt;Node9 -->
<g id="edge5" class="edge">
<title>Node10&#45;&gt;Node9</title>
<path fill="none" stroke="#9a32cd" stroke-dasharray="5,2" d="M58,-353.22C58,-331.95 58,-298.22 58,-282.54"/>
<polygon fill="#9a32cd" stroke="#9a32cd" points="54.5,-353.3 58,-363.3 61.5,-353.3 54.5,-353.3"/>
<text text-anchor="middle" x="94.5" y="-337" font-family="Helvetica,sans-Serif" font-size="10.00"> ImplicitCode</text>
<text text-anchor="middle" x="94.5" y="-326" font-family="Helvetica,sans-Serif" font-size="10.00">Storage</text>
<text text-anchor="middle" x="94.5" y="-315" font-family="Helvetica,sans-Serif" font-size="10.00">SubclassData32</text>
<text text-anchor="middle" x="94.5" y="-304" font-family="Helvetica,sans-Serif" font-size="10.00">SubclassData16</text>
</g>
</g>
</svg>
