<?xml version="1.0" encoding="UTF-8" standalone="no"?>
<!DOCTYPE svg PUBLIC "-//W3C//DTD SVG 1.1//EN"
 "http://www.w3.org/Graphics/SVG/1.1/DTD/svg11.dtd">
<!-- Generated by graphviz version 2.43.0 (0)
 -->
<!-- Title: llvm::MulOperator Pages: 1 -->
<svg width="349pt" height="367pt"
 viewBox="0.00 0.00 349.00 367.00" xmlns="http://www.w3.org/2000/svg" xmlns:xlink="http://www.w3.org/1999/xlink">
<g id="graph0" class="graph" transform="scale(1 1) rotate(0) translate(4 363)">
<title>llvm::MulOperator</title>
<!-- Node0 -->
<g id="node1" class="node">
<title>Node0</title>
<polygon fill="#bfbfbf" stroke="black" points="109,-0.5 109,-19.5 203,-19.5 203,-0.5 109,-0.5"/>
<text text-anchor="middle" x="156" y="-7.5" font-family="Helvetica,sans-Serif" font-size="10.00">llvm::MulOperator</text>
</g>
<!-- Node1 -->
<g id="node2" class="node">
<title>Node1</title>
<g id="a_node2"><a xlink:href="classllvm_1_1ConcreteOperator.html" target="_top" xlink:title="llvm::ConcreteOperator\l\&lt; OverflowingBinaryOperator,\l Instruction::Mul \&gt;">
<polygon fill="none" stroke="black" points="83,-57.5 83,-98.5 229,-98.5 229,-57.5 83,-57.5"/>
<text text-anchor="start" x="91" y="-86.5" font-family="Helvetica,sans-Serif" font-size="10.00">llvm::ConcreteOperator</text>
<text text-anchor="start" x="91" y="-75.5" font-family="Helvetica,sans-Serif" font-size="10.00">&lt; OverflowingBinaryOperator,</text>
<text text-anchor="middle" x="156" y="-64.5" font-family="Helvetica,sans-Serif" font-size="10.00"> Instruction::Mul &gt;</text>
</a>
</g>
</g>
<!-- Node1&#45;&gt;Node0 -->
<g id="edge1" class="edge">
<title>Node1&#45;&gt;Node0</title>
<path fill="none" stroke="midnightblue" d="M156,-47.12C156,-37.17 156,-26.84 156,-19.79"/>
<polygon fill="midnightblue" stroke="midnightblue" points="152.5,-47.2 156,-57.2 159.5,-47.2 152.5,-47.2"/>
</g>
<!-- Node2 -->
<g id="node3" class="node">
<title>Node2</title>
<g id="a_node3"><a xlink:href="classllvm_1_1OverflowingBinaryOperator.html" target="_top" xlink:title="Utility class for integer operators which may exhibit overflow &#45; Add, Sub, Mul, and Shl...">
<polygon fill="none" stroke="black" points="0,-163 0,-182 158,-182 158,-163 0,-163"/>
<text text-anchor="middle" x="79" y="-170" font-family="Helvetica,sans-Serif" font-size="10.00">llvm::OverflowingBinaryOperator</text>
</a>
</g>
</g>
<!-- Node2&#45;&gt;Node1 -->
<g id="edge2" class="edge">
<title>Node2&#45;&gt;Node1</title>
<path fill="none" stroke="midnightblue" d="M92.61,-155.15C105.71,-139.41 125.54,-115.59 139.53,-98.79"/>
<polygon fill="midnightblue" stroke="midnightblue" points="89.81,-153.04 86.11,-162.96 95.19,-157.52 89.81,-153.04"/>
</g>
<!-- Node3 -->
<g id="node4" class="node">
<title>Node3</title>
<g id="a_node4"><a xlink:href="classllvm_1_1Operator.html" target="_top" xlink:title="This is a utility class that provides an abstraction for the common functionality between Instruction...">
<polygon fill="none" stroke="black" points="40,-225.5 40,-244.5 118,-244.5 118,-225.5 40,-225.5"/>
<text text-anchor="middle" x="79" y="-232.5" font-family="Helvetica,sans-Serif" font-size="10.00">llvm::Operator</text>
</a>
</g>
</g>
<!-- Node3&#45;&gt;Node2 -->
<g id="edge3" class="edge">
<title>Node3&#45;&gt;Node2</title>
<path fill="none" stroke="midnightblue" d="M79,-215C79,-204 79,-190.68 79,-182.15"/>
<polygon fill="midnightblue" stroke="midnightblue" points="75.5,-215.33 79,-225.33 82.5,-215.33 75.5,-215.33"/>
</g>
<!-- Node4 -->
<g id="node5" class="node">
<title>Node4</title>
<g id="a_node5"><a xlink:href="classllvm_1_1User.html" target="_top" xlink:title="llvm::User">
<polygon fill="none" stroke="black" points="48,-282.5 48,-301.5 110,-301.5 110,-282.5 48,-282.5"/>
<text text-anchor="middle" x="79" y="-289.5" font-family="Helvetica,sans-Serif" font-size="10.00">llvm::User</text>
</a>
</g>
</g>
<!-- Node4&#45;&gt;Node3 -->
<g id="edge4" class="edge">
<title>Node4&#45;&gt;Node3</title>
<path fill="none" stroke="midnightblue" d="M79,-272.12C79,-262.82 79,-252.06 79,-244.71"/>
<polygon fill="midnightblue" stroke="midnightblue" points="75.5,-272.41 79,-282.41 82.5,-272.41 75.5,-272.41"/>
</g>
<!-- Node5 -->
<g id="node6" class="node">
<title>Node5</title>
<g id="a_node6"><a xlink:href="classllvm_1_1Value.html" target="_top" xlink:title="LLVM Value Representation. ">
<polygon fill="none" stroke="black" points="46.5,-339.5 46.5,-358.5 111.5,-358.5 111.5,-339.5 46.5,-339.5"/>
<text text-anchor="middle" x="79" y="-346.5" font-family="Helvetica,sans-Serif" font-size="10.00">llvm::Value</text>
</a>
</g>
</g>
<!-- Node5&#45;&gt;Node4 -->
<g id="edge5" class="edge">
<title>Node5&#45;&gt;Node4</title>
<path fill="none" stroke="midnightblue" d="M79,-329.12C79,-319.82 79,-309.06 79,-301.71"/>
<polygon fill="midnightblue" stroke="midnightblue" points="75.5,-329.41 79,-339.41 82.5,-329.41 75.5,-329.41"/>
</g>
<!-- Node6 -->
<g id="node7" class="node">
<title>Node6</title>
<g id="a_node7"><a xlink:href="classllvm_1_1ConcreteOperator.html" target="_top" xlink:title="A helper template for defining operators for individual opcodes. ">
<polygon fill="none" stroke="black" points="176,-157.5 176,-187.5 294,-187.5 294,-157.5 176,-157.5"/>
<text text-anchor="start" x="184" y="-175.5" font-family="Helvetica,sans-Serif" font-size="10.00">llvm::ConcreteOperator</text>
<text text-anchor="middle" x="235" y="-164.5" font-family="Helvetica,sans-Serif" font-size="10.00">&lt; SuperClass, Opc &gt;</text>
</a>
</g>
</g>
<!-- Node6&#45;&gt;Node1 -->
<g id="edge6" class="edge">
<title>Node6&#45;&gt;Node1</title>
<path fill="none" stroke="orange" stroke-dasharray="5,2" d="M216.17,-149.46C202.99,-134.02 185.53,-113.57 172.81,-98.68"/>
<polygon fill="orange" stroke="orange" points="213.85,-152.12 223,-157.45 219.17,-147.57 213.85,-152.12"/>
<text text-anchor="start" x="208" y="-131" font-family="Helvetica,sans-Serif" font-size="10.00"> &lt; OverflowingBinaryOperator,</text>
<text text-anchor="middle" x="274.5" y="-120" font-family="Helvetica,sans-Serif" font-size="10.00"> Instruction::Mul &gt;</text>
</g>
<!-- Node7 -->
<g id="node8" class="node">
<title>Node7</title>
<g id="a_node8"><a xlink:href="classllvm_1_1SuperClass.html" target="_top" xlink:title="SuperClass">
<polygon fill="none" stroke="black" points="201,-225.5 201,-244.5 269,-244.5 269,-225.5 201,-225.5"/>
<text text-anchor="middle" x="235" y="-232.5" font-family="Helvetica,sans-Serif" font-size="10.00">SuperClass</text>
</a>
</g>
</g>
<!-- Node7&#45;&gt;Node6 -->
<g id="edge7" class="edge">
<title>Node7&#45;&gt;Node6</title>
<path fill="none" stroke="midnightblue" d="M235,-215.22C235,-206.36 235,-195.96 235,-187.76"/>
<polygon fill="midnightblue" stroke="midnightblue" points="231.5,-215.33 235,-225.33 238.5,-215.33 231.5,-215.33"/>
</g>
</g>
</svg>
