<?xml version="1.0" encoding="UTF-8" standalone="no"?>
<!DOCTYPE svg PUBLIC "-//W3C//DTD SVG 1.1//EN"
 "http://www.w3.org/Graphics/SVG/1.1/DTD/svg11.dtd">
<!-- Generated by graphviz version 2.43.0 (0)
 -->
<!-- Title: llvm::RuntimeDyldELF Pages: 1 -->
<svg width="145pt" height="140pt"
 viewBox="0.00 0.00 145.00 140.00" xmlns="http://www.w3.org/2000/svg" xmlns:xlink="http://www.w3.org/1999/xlink">
<g id="graph0" class="graph" transform="scale(1 1) rotate(0) translate(4 136)">
<title>llvm::RuntimeDyldELF</title>
<!-- Node0 -->
<g id="node1" class="node">
<title>Node0</title>
<polygon fill="#bfbfbf" stroke="black" points="10.5,-56.5 10.5,-75.5 126.5,-75.5 126.5,-56.5 10.5,-56.5"/>
<text text-anchor="middle" x="68.5" y="-63.5" font-family="Helvetica,sans-Serif" font-size="10.00">llvm::RuntimeDyldELF</text>
</g>
<!-- Node2 -->
<g id="node3" class="node">
<title>Node2</title>
<g id="a_node3"><a xlink:href="classllvm_1_1RuntimeDyldELFMips.html" target="_top" xlink:title="llvm::RuntimeDyldELFMips">
<polygon fill="none" stroke="black" points="0,-0.5 0,-19.5 137,-19.5 137,-0.5 0,-0.5"/>
<text text-anchor="middle" x="68.5" y="-7.5" font-family="Helvetica,sans-Serif" font-size="10.00">llvm::RuntimeDyldELFMips</text>
</a>
</g>
</g>
<!-- Node0&#45;&gt;Node2 -->
<g id="edge2" class="edge">
<title>Node0&#45;&gt;Node2</title>
<path fill="none" stroke="midnightblue" d="M68.5,-45.8C68.5,-36.91 68.5,-26.78 68.5,-19.75"/>
<polygon fill="midnightblue" stroke="midnightblue" points="65,-46.08 68.5,-56.08 72,-46.08 65,-46.08"/>
</g>
<!-- Node1 -->
<g id="node2" class="node">
<title>Node1</title>
<g id="a_node2"><a xlink:href="classllvm_1_1RuntimeDyldImpl.html" target="_top" xlink:title="llvm::RuntimeDyldImpl">
<polygon fill="none" stroke="black" points="10.5,-112.5 10.5,-131.5 126.5,-131.5 126.5,-112.5 10.5,-112.5"/>
<text text-anchor="middle" x="68.5" y="-119.5" font-family="Helvetica,sans-Serif" font-size="10.00">llvm::RuntimeDyldImpl</text>
</a>
</g>
</g>
<!-- Node1&#45;&gt;Node0 -->
<g id="edge1" class="edge">
<title>Node1&#45;&gt;Node0</title>
<path fill="none" stroke="midnightblue" d="M68.5,-101.8C68.5,-92.91 68.5,-82.78 68.5,-75.75"/>
<polygon fill="midnightblue" stroke="midnightblue" points="65,-102.08 68.5,-112.08 72,-102.08 65,-102.08"/>
</g>
</g>
</svg>
