<?xml version="1.0" encoding="UTF-8" standalone="no"?>
<!DOCTYPE svg PUBLIC "-//W3C//DTD SVG 1.1//EN"
 "http://www.w3.org/Graphics/SVG/1.1/DTD/svg11.dtd">
<!-- Generated by graphviz version 2.43.0 (0)
 -->
<!-- Title: llvm::SCEVCommutativeExpr Pages: 1 -->
<svg width="232pt" height="230pt"
 viewBox="0.00 0.00 232.00 230.00" xmlns="http://www.w3.org/2000/svg" xmlns:xlink="http://www.w3.org/1999/xlink">
<g id="graph0" class="graph" transform="scale(1 1) rotate(0) translate(4 226)">
<title>llvm::SCEVCommutativeExpr</title>
<!-- Node11 -->
<g id="node1" class="node">
<title>Node11</title>
<polygon fill="#bfbfbf" stroke="black" points="32.5,-0.5 32.5,-19.5 179.5,-19.5 179.5,-0.5 32.5,-0.5"/>
<text text-anchor="middle" x="106" y="-7.5" font-family="Helvetica,sans-Serif" font-size="10.00">llvm::SCEVCommutativeExpr</text>
</g>
<!-- Node12 -->
<g id="node2" class="node">
<title>Node12</title>
<g id="a_node2"><a xlink:href="classllvm_1_1SCEVNAryExpr.html" target="_top" xlink:title="This node is a base class providing common functionality for n&#39;ary operators. ">
<polygon fill="none" stroke="black" points="50.5,-57.5 50.5,-76.5 161.5,-76.5 161.5,-57.5 50.5,-57.5"/>
<text text-anchor="middle" x="106" y="-64.5" font-family="Helvetica,sans-Serif" font-size="10.00">llvm::SCEVNAryExpr</text>
</a>
</g>
</g>
<!-- Node12&#45;&gt;Node11 -->
<g id="edge1" class="edge">
<title>Node12&#45;&gt;Node11</title>
<path fill="none" stroke="midnightblue" d="M106,-47.12C106,-37.82 106,-27.06 106,-19.71"/>
<polygon fill="midnightblue" stroke="midnightblue" points="102.5,-47.41 106,-57.41 109.5,-47.41 102.5,-47.41"/>
</g>
<!-- Node13 -->
<g id="node3" class="node">
<title>Node13</title>
<g id="a_node3"><a xlink:href="classllvm_1_1SCEV.html" target="_top" xlink:title="This class represents an analyzed expression in the program. ">
<polygon fill="none" stroke="black" points="53,-124.5 53,-143.5 121,-143.5 121,-124.5 53,-124.5"/>
<text text-anchor="middle" x="87" y="-131.5" font-family="Helvetica,sans-Serif" font-size="10.00">llvm::SCEV</text>
</a>
</g>
</g>
<!-- Node13&#45;&gt;Node12 -->
<g id="edge2" class="edge">
<title>Node13&#45;&gt;Node12</title>
<path fill="none" stroke="midnightblue" d="M84.76,-114.15C84.61,-107.93 85.08,-101.05 87,-95 89.15,-88.22 93.67,-81.68 97.77,-76.73"/>
<polygon fill="midnightblue" stroke="midnightblue" points="81.29,-114.62 85.54,-124.32 88.27,-114.08 81.29,-114.62"/>
</g>
<!-- Node13&#45;&gt;Node12 -->
<g id="edge6" class="edge">
<title>Node13&#45;&gt;Node12</title>
<path fill="none" stroke="#9a32cd" stroke-dasharray="5,2" d="M92.43,-114.41C96.06,-101.99 100.68,-86.22 103.48,-76.63"/>
<polygon fill="#9a32cd" stroke="#9a32cd" points="89.01,-113.65 89.56,-124.23 95.73,-115.62 89.01,-113.65"/>
<text text-anchor="middle" x="121" y="-98" font-family="Helvetica,sans-Serif" font-size="10.00"> Operands</text>
</g>
<!-- Node14 -->
<g id="node4" class="node">
<title>Node14</title>
<g id="a_node4"><a xlink:href="classllvm_1_1FoldingSetBase_1_1Node.html" target="_top" xlink:title="Node &#45; This class is used to maintain the singly linked bucket list in a folding set. ">
<polygon fill="none" stroke="black" points="0,-202.5 0,-221.5 86,-221.5 86,-202.5 0,-202.5"/>
<text text-anchor="middle" x="43" y="-209.5" font-family="Helvetica,sans-Serif" font-size="10.00">FoldingSetNode</text>
</a>
</g>
</g>
<!-- Node14&#45;&gt;Node13 -->
<g id="edge3" class="edge">
<title>Node14&#45;&gt;Node13</title>
<path fill="none" stroke="midnightblue" d="M53.09,-193.57C62.14,-177.95 75.02,-155.7 82.01,-143.62"/>
<polygon fill="midnightblue" stroke="midnightblue" points="50.03,-191.87 48.05,-202.28 56.09,-195.38 50.03,-191.87"/>
</g>
<!-- Node15 -->
<g id="node5" class="node">
<title>Node15</title>
<g id="a_node5"><a xlink:href="classunsigned.html" target="_top" xlink:title="unsigned">
<polygon fill="none" stroke="black" points="104,-202.5 104,-221.5 160,-221.5 160,-202.5 104,-202.5"/>
<text text-anchor="middle" x="132" y="-209.5" font-family="Helvetica,sans-Serif" font-size="10.00">unsigned</text>
</a>
</g>
</g>
<!-- Node15&#45;&gt;Node13 -->
<g id="edge4" class="edge">
<title>Node15&#45;&gt;Node13</title>
<path fill="none" stroke="#9a32cd" stroke-dasharray="5,2" d="M121.68,-193.57C112.43,-177.95 99.26,-155.7 92.1,-143.62"/>
<polygon fill="#9a32cd" stroke="#9a32cd" points="118.73,-195.46 126.84,-202.28 124.75,-191.89 118.73,-195.46"/>
<text text-anchor="middle" x="148.5" y="-176" font-family="Helvetica,sans-Serif" font-size="10.00"> SubclassData</text>
<text text-anchor="middle" x="148.5" y="-165" font-family="Helvetica,sans-Serif" font-size="10.00">ExpressionSize</text>
</g>
<!-- Node16 -->
<g id="node6" class="node">
<title>Node16</title>
<g id="a_node6"><a xlink:href="classsize__t.html" target="_top" xlink:title="size_t">
<polygon fill="none" stroke="black" points="153.5,-124.5 153.5,-143.5 196.5,-143.5 196.5,-124.5 153.5,-124.5"/>
<text text-anchor="middle" x="175" y="-131.5" font-family="Helvetica,sans-Serif" font-size="10.00">size_t</text>
</a>
</g>
</g>
<!-- Node16&#45;&gt;Node12 -->
<g id="edge5" class="edge">
<title>Node16&#45;&gt;Node12</title>
<path fill="none" stroke="#9a32cd" stroke-dasharray="5,2" d="M164.78,-115.75C160.18,-108.83 154.36,-101.07 148,-95 140.48,-87.82 130.78,-81.44 122.6,-76.68"/>
<polygon fill="#9a32cd" stroke="#9a32cd" points="161.95,-117.83 170.23,-124.44 167.88,-114.11 161.95,-117.83"/>
<text text-anchor="middle" x="190.5" y="-98" font-family="Helvetica,sans-Serif" font-size="10.00"> NumOperands</text>
</g>
</g>
</svg>
