<?xml version="1.0" encoding="UTF-8" standalone="no"?>
<!DOCTYPE svg PUBLIC "-//W3C//DTD SVG 1.1//EN"
 "http://www.w3.org/Graphics/SVG/1.1/DTD/svg11.dtd">
<!-- Generated by graphviz version 2.43.0 (0)
 -->
<!-- Title: llvm::FoldingSetIterator&lt; T &gt; Pages: 1 -->
<svg width="150pt" height="163pt"
 viewBox="0.00 0.00 150.00 163.00" xmlns="http://www.w3.org/2000/svg" xmlns:xlink="http://www.w3.org/1999/xlink">
<g id="graph0" class="graph" transform="scale(1 1) rotate(0) translate(4 159)">
<title>llvm::FoldingSetIterator&lt; T &gt;</title>
<!-- Node2 -->
<g id="node1" class="node">
<title>Node2</title>
<polygon fill="#bfbfbf" stroke="black" points="0,-0.5 0,-19.5 142,-19.5 142,-0.5 0,-0.5"/>
<text text-anchor="middle" x="71" y="-7.5" font-family="Helvetica,sans-Serif" font-size="10.00">llvm::FoldingSetIterator&lt; T &gt;</text>
</g>
<!-- Node3 -->
<g id="node2" class="node">
<title>Node3</title>
<g id="a_node2"><a xlink:href="classllvm_1_1FoldingSetIteratorImpl.html" target="_top" xlink:title="FoldingSetIteratorImpl &#45; This is the common iterator support shared by all folding sets...">
<polygon fill="none" stroke="black" points="2.5,-57.5 2.5,-76.5 139.5,-76.5 139.5,-57.5 2.5,-57.5"/>
<text text-anchor="middle" x="71" y="-64.5" font-family="Helvetica,sans-Serif" font-size="10.00">llvm::FoldingSetIteratorImpl</text>
</a>
</g>
</g>
<!-- Node3&#45;&gt;Node2 -->
<g id="edge1" class="edge">
<title>Node3&#45;&gt;Node2</title>
<path fill="none" stroke="midnightblue" d="M71,-47.12C71,-37.82 71,-27.06 71,-19.71"/>
<polygon fill="midnightblue" stroke="midnightblue" points="67.5,-47.41 71,-57.41 74.5,-47.41 67.5,-47.41"/>
</g>
<!-- Node4 -->
<g id="node3" class="node">
<title>Node4</title>
<g id="a_node3"><a xlink:href="classllvm_1_1FoldingSetBase_1_1Node.html" target="_top" xlink:title="Node &#45; This class is used to maintain the singly linked bucket list in a folding set. ">
<polygon fill="none" stroke="black" points="16,-124.5 16,-154.5 126,-154.5 126,-124.5 16,-124.5"/>
<text text-anchor="start" x="24" y="-142.5" font-family="Helvetica,sans-Serif" font-size="10.00">llvm::FoldingSetBase</text>
<text text-anchor="middle" x="71" y="-131.5" font-family="Helvetica,sans-Serif" font-size="10.00">::Node</text>
</a>
</g>
</g>
<!-- Node4&#45;&gt;Node3 -->
<g id="edge2" class="edge">
<title>Node4&#45;&gt;Node3</title>
<path fill="none" stroke="#9a32cd" stroke-dasharray="5,2" d="M71,-114.09C71,-101.21 71,-86.2 71,-76.89"/>
<polygon fill="#9a32cd" stroke="#9a32cd" points="67.5,-114.23 71,-124.23 74.5,-114.23 67.5,-114.23"/>
<text text-anchor="middle" x="91" y="-98" font-family="Helvetica,sans-Serif" font-size="10.00"> NodePtr</text>
</g>
</g>
</svg>
