<?xml version="1.0" encoding="UTF-8" standalone="no"?>
<!DOCTYPE svg PUBLIC "-//W3C//DTD SVG 1.1//EN"
 "http://www.w3.org/Graphics/SVG/1.1/DTD/svg11.dtd">
<!-- Generated by graphviz version 2.43.0 (0)
 -->
<!-- Title: llvm::CombinerHelper Pages: 1 -->
<svg width="758pt" height="176pt"
 viewBox="0.00 0.00 758.00 176.00" xmlns="http://www.w3.org/2000/svg" xmlns:xlink="http://www.w3.org/1999/xlink">
<g id="graph0" class="graph" transform="scale(1 1) rotate(0) translate(4 172)">
<title>llvm::CombinerHelper</title>
<!-- Node1 -->
<g id="node1" class="node">
<title>Node1</title>
<polygon fill="#bfbfbf" stroke="black" points="639,-76.5 639,-95.5 750,-95.5 750,-76.5 639,-76.5"/>
<text text-anchor="middle" x="694.5" y="-83.5" font-family="Helvetica,sans-Serif" font-size="10.00">llvm::CombinerHelper</text>
</g>
<!-- Node2 -->
<g id="node2" class="node">
<title>Node2</title>
<g id="a_node2"><a xlink:href="classllvm_1_1GISelChangeObserver.html" target="_top" xlink:title="Abstract class that contains various methods for clients to notify about changes. ...">
<polygon fill="none" stroke="black" points="238,-143.5 238,-162.5 377,-162.5 377,-143.5 238,-143.5"/>
<text text-anchor="middle" x="307.5" y="-150.5" font-family="Helvetica,sans-Serif" font-size="10.00">llvm::GISelChangeObserver</text>
</a>
</g>
</g>
<!-- Node2&#45;&gt;Node1 -->
<g id="edge1" class="edge">
<title>Node2&#45;&gt;Node1</title>
<path fill="none" stroke="#9a32cd" stroke-dasharray="5,2" d="M387.38,-157.66C439.58,-158.87 509.17,-156.9 569,-143 610.68,-133.32 655.3,-109.07 678.12,-95.53"/>
<polygon fill="#9a32cd" stroke="#9a32cd" points="387.27,-154.15 377.18,-157.37 387.07,-161.15 387.27,-154.15"/>
<text text-anchor="middle" x="498" y="-160" font-family="Helvetica,sans-Serif" font-size="10.00"> Observer</text>
</g>
<!-- Node10 -->
<g id="node10" class="node">
<title>Node10</title>
<g id="a_node10"><a xlink:href="classllvm_1_1GISelKnownBits.html" target="_top" xlink:title="llvm::GISelKnownBits">
<polygon fill="none" stroke="black" points="441.5,-114.5 441.5,-133.5 554.5,-133.5 554.5,-114.5 441.5,-114.5"/>
<text text-anchor="middle" x="498" y="-121.5" font-family="Helvetica,sans-Serif" font-size="10.00">llvm::GISelKnownBits</text>
</a>
</g>
</g>
<!-- Node2&#45;&gt;Node10 -->
<g id="edge10" class="edge">
<title>Node2&#45;&gt;Node10</title>
<path fill="none" stroke="midnightblue" d="M380.55,-141.91C400.71,-138.81 422.29,-135.49 441.34,-132.56"/>
<polygon fill="midnightblue" stroke="midnightblue" points="379.83,-138.48 370.48,-143.46 380.9,-145.4 379.83,-138.48"/>
</g>
<!-- Node3 -->
<g id="node3" class="node">
<title>Node3</title>
<g id="a_node3"><a xlink:href="classllvm_1_1MachineDominatorTree.html" target="_top" xlink:title="DominatorTree Class &#45; Concrete subclass of DominatorTreeBase that is used to compute a normal dominat...">
<polygon fill="none" stroke="black" points="427,-76.5 427,-95.5 569,-95.5 569,-76.5 427,-76.5"/>
<text text-anchor="middle" x="498" y="-83.5" font-family="Helvetica,sans-Serif" font-size="10.00">llvm::MachineDominatorTree</text>
</a>
</g>
</g>
<!-- Node3&#45;&gt;Node1 -->
<g id="edge2" class="edge">
<title>Node3&#45;&gt;Node1</title>
<path fill="none" stroke="#9a32cd" stroke-dasharray="5,2" d="M579.29,-86C599.37,-86 620.45,-86 638.95,-86"/>
<polygon fill="#9a32cd" stroke="#9a32cd" points="579.22,-82.5 569.22,-86 579.22,-89.5 579.22,-82.5"/>
<text text-anchor="middle" x="604" y="-89" font-family="Helvetica,sans-Serif" font-size="10.00"> MDT</text>
</g>
<!-- Node4 -->
<g id="node4" class="node">
<title>Node4</title>
<g id="a_node4"><a xlink:href="classllvm_1_1MachineFunctionPass.html" target="_top" xlink:title="MachineFunctionPass &#45; This class adapts the FunctionPass interface to allow convenient creation of pa...">
<polygon fill="none" stroke="black" points="239,-88.5 239,-107.5 376,-107.5 376,-88.5 239,-88.5"/>
<text text-anchor="middle" x="307.5" y="-95.5" font-family="Helvetica,sans-Serif" font-size="10.00">llvm::MachineFunctionPass</text>
</a>
</g>
</g>
<!-- Node4&#45;&gt;Node3 -->
<g id="edge3" class="edge">
<title>Node4&#45;&gt;Node3</title>
<path fill="none" stroke="midnightblue" d="M386.19,-93.05C399.63,-92.2 413.54,-91.31 426.77,-90.47"/>
<polygon fill="midnightblue" stroke="midnightblue" points="385.78,-89.57 376.02,-93.7 386.22,-96.56 385.78,-89.57"/>
</g>
<!-- Node5 -->
<g id="node5" class="node">
<title>Node5</title>
<g id="a_node5"><a xlink:href="classllvm_1_1FunctionPass.html" target="_top" xlink:title="FunctionPass class &#45; This class is used to implement most global optimizations. ">
<polygon fill="none" stroke="black" points="100,-88.5 100,-107.5 201,-107.5 201,-88.5 100,-88.5"/>
<text text-anchor="middle" x="150.5" y="-95.5" font-family="Helvetica,sans-Serif" font-size="10.00">llvm::FunctionPass</text>
</a>
</g>
</g>
<!-- Node5&#45;&gt;Node4 -->
<g id="edge4" class="edge">
<title>Node5&#45;&gt;Node4</title>
<path fill="none" stroke="midnightblue" d="M211.69,-98C220.6,-98 229.84,-98 238.9,-98"/>
<polygon fill="midnightblue" stroke="midnightblue" points="211.4,-94.5 201.4,-98 211.4,-101.5 211.4,-94.5"/>
</g>
<!-- Node6 -->
<g id="node6" class="node">
<title>Node6</title>
<g id="a_node6"><a xlink:href="classllvm_1_1Pass.html" target="_top" xlink:title="Pass interface &#45; Implemented by all &#39;passes&#39;. ">
<polygon fill="none" stroke="black" points="0,-88.5 0,-107.5 63,-107.5 63,-88.5 0,-88.5"/>
<text text-anchor="middle" x="31.5" y="-95.5" font-family="Helvetica,sans-Serif" font-size="10.00">llvm::Pass</text>
</a>
</g>
</g>
<!-- Node6&#45;&gt;Node5 -->
<g id="edge5" class="edge">
<title>Node6&#45;&gt;Node5</title>
<path fill="none" stroke="midnightblue" d="M73.38,-98C81.96,-98 91.1,-98 99.96,-98"/>
<polygon fill="midnightblue" stroke="midnightblue" points="73.24,-94.5 63.24,-98 73.24,-101.5 73.24,-94.5"/>
</g>
<!-- Node7 -->
<g id="node7" class="node">
<title>Node7</title>
<g id="a_node7"><a xlink:href="classchar.html" target="_top" xlink:title="char">
<polygon fill="none" stroke="black" points="290,-50.5 290,-69.5 325,-69.5 325,-50.5 290,-50.5"/>
<text text-anchor="middle" x="307.5" y="-57.5" font-family="Helvetica,sans-Serif" font-size="10.00">char</text>
</a>
</g>
</g>
<!-- Node7&#45;&gt;Node3 -->
<g id="edge6" class="edge">
<title>Node7&#45;&gt;Node3</title>
<path fill="none" stroke="#9a32cd" stroke-dasharray="5,2" d="M335.37,-63.71C359.45,-67.03 395.83,-72.05 427.98,-76.48"/>
<polygon fill="#9a32cd" stroke="#9a32cd" points="335.61,-60.21 325.23,-62.31 334.66,-67.14 335.61,-60.21"/>
<text text-anchor="middle" x="402" y="-76" font-family="Helvetica,sans-Serif" font-size="10.00"> ID</text>
</g>
<!-- Node8 -->
<g id="node8" class="node">
<title>Node8</title>
<g id="a_node8"><a xlink:href="classllvm_1_1MachineRegisterInfo.html" target="_top" xlink:title="MachineRegisterInfo &#45; Keep track of information for virtual and physical registers, including vreg register classes, use/def chains for registers, etc. ">
<polygon fill="none" stroke="black" points="432.5,-38.5 432.5,-57.5 563.5,-57.5 563.5,-38.5 432.5,-38.5"/>
<text text-anchor="middle" x="498" y="-45.5" font-family="Helvetica,sans-Serif" font-size="10.00">llvm::MachineRegisterInfo</text>
</a>
</g>
</g>
<!-- Node8&#45;&gt;Node1 -->
<g id="edge7" class="edge">
<title>Node8&#45;&gt;Node1</title>
<path fill="none" stroke="#9a32cd" stroke-dasharray="5,2" d="M560.59,-59.39C579.94,-63.03 601.37,-67.12 621,-71 629.7,-72.72 638.98,-74.6 647.89,-76.44"/>
<polygon fill="#9a32cd" stroke="#9a32cd" points="561.16,-55.94 550.68,-57.53 559.87,-62.82 561.16,-55.94"/>
<text text-anchor="middle" x="604" y="-74" font-family="Helvetica,sans-Serif" font-size="10.00"> MRI</text>
</g>
<!-- Node9 -->
<g id="node9" class="node">
<title>Node9</title>
<g id="a_node9"><a xlink:href="classllvm_1_1MachineIRBuilder.html" target="_top" xlink:title="Helper class to build MachineInstr. ">
<polygon fill="none" stroke="black" points="439,-0.5 439,-19.5 557,-19.5 557,-0.5 439,-0.5"/>
<text text-anchor="middle" x="498" y="-7.5" font-family="Helvetica,sans-Serif" font-size="10.00">llvm::MachineIRBuilder</text>
</a>
</g>
</g>
<!-- Node9&#45;&gt;Node1 -->
<g id="edge8" class="edge">
<title>Node9&#45;&gt;Node1</title>
<path fill="none" stroke="#9a32cd" stroke-dasharray="5,2" d="M546.71,-22.25C554.21,-24.38 561.84,-26.66 569,-29 592.53,-36.7 598.39,-38.91 621,-49 640.1,-57.52 661.35,-68.55 675.88,-76.35"/>
<polygon fill="#9a32cd" stroke="#9a32cd" points="547.56,-18.85 536.99,-19.55 545.69,-25.6 547.56,-18.85"/>
<text text-anchor="middle" x="604" y="-52" font-family="Helvetica,sans-Serif" font-size="10.00"> Builder</text>
</g>
<!-- Node10&#45;&gt;Node1 -->
<g id="edge9" class="edge">
<title>Node10&#45;&gt;Node1</title>
<path fill="none" stroke="#9a32cd" stroke-dasharray="5,2" d="M557.81,-112.51C585.56,-107.09 618.29,-100.69 644.65,-95.54"/>
<polygon fill="#9a32cd" stroke="#9a32cd" points="556.97,-109.11 547.83,-114.46 558.32,-115.98 556.97,-109.11"/>
<text text-anchor="middle" x="604" y="-109" font-family="Helvetica,sans-Serif" font-size="10.00"> KB</text>
</g>
</g>
</svg>
