<?xml version="1.0" encoding="UTF-8" standalone="no"?>
<!DOCTYPE svg PUBLIC "-//W3C//DTD SVG 1.1//EN"
 "http://www.w3.org/Graphics/SVG/1.1/DTD/svg11.dtd">
<!-- Generated by graphviz version 2.43.0 (0)
 -->
<!-- Title: llvm::object::ELFObjectFile&lt; ELFT &gt; Pages: 1 -->
<svg width="1113pt" height="198pt"
 viewBox="0.00 0.00 1113.00 198.00" xmlns="http://www.w3.org/2000/svg" xmlns:xlink="http://www.w3.org/1999/xlink">
<g id="graph0" class="graph" transform="scale(1 1) rotate(0) translate(4 194)">
<title>llvm::object::ELFObjectFile&lt; ELFT &gt;</title>
<!-- Node5 -->
<g id="node1" class="node">
<title>Node5</title>
<polygon fill="#bfbfbf" stroke="black" points="970,-76 970,-106 1105,-106 1105,-76 970,-76"/>
<text text-anchor="start" x="978" y="-94" font-family="Helvetica,sans-Serif" font-size="10.00">llvm::object::ELFObjectFile</text>
<text text-anchor="middle" x="1037.5" y="-83" font-family="Helvetica,sans-Serif" font-size="10.00">&lt; ELFT &gt;</text>
</g>
<!-- Node6 -->
<g id="node2" class="node">
<title>Node6</title>
<g id="a_node2"><a xlink:href="classllvm_1_1object_1_1ELFObjectFileBase.html" target="_top" xlink:title="llvm::object::ELFObjectFileBase">
<polygon fill="none" stroke="black" points="698,-169.5 698,-188.5 856,-188.5 856,-169.5 698,-169.5"/>
<text text-anchor="middle" x="777" y="-176.5" font-family="Helvetica,sans-Serif" font-size="10.00">llvm::object::ELFObjectFileBase</text>
</a>
</g>
</g>
<!-- Node6&#45;&gt;Node5 -->
<g id="edge1" class="edge">
<title>Node6&#45;&gt;Node5</title>
<path fill="none" stroke="midnightblue" d="M828.05,-167.01C837.35,-164.72 846.98,-162.32 856,-160 898.81,-148.99 910.75,-149.89 952,-134 972.12,-126.25 993.78,-115.17 1010.13,-106.2"/>
<polygon fill="midnightblue" stroke="midnightblue" points="827.01,-163.66 818.13,-169.43 828.68,-170.46 827.01,-163.66"/>
</g>
<!-- Node7 -->
<g id="node3" class="node">
<title>Node7</title>
<g id="a_node3"><a xlink:href="classllvm_1_1object_1_1ObjectFile.html" target="_top" xlink:title="This class is the base class for all object file types. ">
<polygon fill="none" stroke="black" points="483,-169.5 483,-188.5 600,-188.5 600,-169.5 483,-169.5"/>
<text text-anchor="middle" x="541.5" y="-176.5" font-family="Helvetica,sans-Serif" font-size="10.00">llvm::object::ObjectFile</text>
</a>
</g>
</g>
<!-- Node7&#45;&gt;Node6 -->
<g id="edge2" class="edge">
<title>Node7&#45;&gt;Node6</title>
<path fill="none" stroke="midnightblue" d="M610.47,-179C637.81,-179 669.51,-179 697.81,-179"/>
<polygon fill="midnightblue" stroke="midnightblue" points="610.22,-175.5 600.22,-179 610.22,-182.5 610.22,-175.5"/>
</g>
<!-- Node8 -->
<g id="node4" class="node">
<title>Node8</title>
<g id="a_node4"><a xlink:href="classllvm_1_1object_1_1SymbolicFile.html" target="_top" xlink:title="llvm::object::SymbolicFile">
<polygon fill="none" stroke="black" points="317,-169.5 317,-188.5 446,-188.5 446,-169.5 317,-169.5"/>
<text text-anchor="middle" x="381.5" y="-176.5" font-family="Helvetica,sans-Serif" font-size="10.00">llvm::object::SymbolicFile</text>
</a>
</g>
</g>
<!-- Node8&#45;&gt;Node7 -->
<g id="edge3" class="edge">
<title>Node8&#45;&gt;Node7</title>
<path fill="none" stroke="midnightblue" d="M456.59,-179C465.4,-179 474.29,-179 482.83,-179"/>
<polygon fill="midnightblue" stroke="midnightblue" points="456.31,-175.5 446.31,-179 456.31,-182.5 456.31,-175.5"/>
</g>
<!-- Node9 -->
<g id="node5" class="node">
<title>Node9</title>
<g id="a_node5"><a xlink:href="classllvm_1_1object_1_1Binary.html" target="_top" xlink:title="llvm::object::Binary">
<polygon fill="none" stroke="black" points="179,-169.5 179,-188.5 280,-188.5 280,-169.5 179,-169.5"/>
<text text-anchor="middle" x="229.5" y="-176.5" font-family="Helvetica,sans-Serif" font-size="10.00">llvm::object::Binary</text>
</a>
</g>
</g>
<!-- Node9&#45;&gt;Node8 -->
<g id="edge4" class="edge">
<title>Node9&#45;&gt;Node8</title>
<path fill="none" stroke="midnightblue" d="M290.16,-179C298.93,-179 308,-179 316.84,-179"/>
<polygon fill="midnightblue" stroke="midnightblue" points="290.03,-175.5 280.03,-179 290.03,-182.5 290.03,-175.5"/>
</g>
<!-- Node10 -->
<g id="node6" class="node">
<title>Node10</title>
<g id="a_node6"><a xlink:href="classllvm_1_1MemoryBufferRef.html" target="_top" xlink:title="llvm::MemoryBufferRef">
<polygon fill="none" stroke="black" points="0,-169.5 0,-188.5 118,-188.5 118,-169.5 0,-169.5"/>
<text text-anchor="middle" x="59" y="-176.5" font-family="Helvetica,sans-Serif" font-size="10.00">llvm::MemoryBufferRef</text>
</a>
</g>
</g>
<!-- Node10&#45;&gt;Node9 -->
<g id="edge5" class="edge">
<title>Node10&#45;&gt;Node9</title>
<path fill="none" stroke="#9a32cd" stroke-dasharray="5,2" d="M128.76,-179C145.53,-179 163.14,-179 178.82,-179"/>
<polygon fill="#9a32cd" stroke="#9a32cd" points="128.46,-175.5 118.46,-179 128.46,-182.5 128.46,-175.5"/>
<text text-anchor="middle" x="148.5" y="-182" font-family="Helvetica,sans-Serif" font-size="10.00"> Data</text>
</g>
<!-- Node11 -->
<g id="node7" class="node">
<title>Node11</title>
<g id="a_node7"><a xlink:href="classllvm_1_1ArrayRef.html" target="_top" xlink:title="llvm::ArrayRef\&lt; Elf\l_Word \&gt;">
<polygon fill="none" stroke="black" points="726.5,-120 726.5,-150 827.5,-150 827.5,-120 726.5,-120"/>
<text text-anchor="start" x="734.5" y="-138" font-family="Helvetica,sans-Serif" font-size="10.00">llvm::ArrayRef&lt; Elf</text>
<text text-anchor="middle" x="777" y="-127" font-family="Helvetica,sans-Serif" font-size="10.00">_Word &gt;</text>
</a>
</g>
</g>
<!-- Node11&#45;&gt;Node5 -->
<g id="edge6" class="edge">
<title>Node11&#45;&gt;Node5</title>
<path fill="none" stroke="#9a32cd" stroke-dasharray="5,2" d="M837.64,-125.22C871.25,-119.67 913.98,-112.54 952,-106 957.73,-105.01 963.67,-103.98 969.63,-102.94"/>
<polygon fill="#9a32cd" stroke="#9a32cd" points="836.82,-121.81 827.52,-126.89 837.96,-128.71 836.82,-121.81"/>
<text text-anchor="middle" x="913" y="-122" font-family="Helvetica,sans-Serif" font-size="10.00"> ShndxTable</text>
</g>
<!-- Node12 -->
<g id="node8" class="node">
<title>Node12</title>
<g id="a_node8"><a xlink:href="classllvm_1_1ArrayRef.html" target="_top" xlink:title="ArrayRef &#45; Represent a constant reference to an array (0 or more elements consecutively in memory)...">
<polygon fill="none" stroke="black" points="489.5,-125.5 489.5,-144.5 593.5,-144.5 593.5,-125.5 489.5,-125.5"/>
<text text-anchor="middle" x="541.5" y="-132.5" font-family="Helvetica,sans-Serif" font-size="10.00">llvm::ArrayRef&lt; T &gt;</text>
</a>
</g>
</g>
<!-- Node12&#45;&gt;Node11 -->
<g id="edge7" class="edge">
<title>Node12&#45;&gt;Node11</title>
<path fill="none" stroke="orange" stroke-dasharray="5,2" d="M604.23,-135C642.42,-135 690.8,-135 726.48,-135"/>
<polygon fill="orange" stroke="orange" points="603.74,-131.5 593.74,-135 603.74,-138.5 603.74,-131.5"/>
<text text-anchor="middle" x="649" y="-138" font-family="Helvetica,sans-Serif" font-size="10.00"> &lt; Elf_Word &gt;</text>
</g>
<!-- Node13 -->
<g id="node9" class="node">
<title>Node13</title>
<polygon fill="none" stroke="#bfbfbf" points="731,-81.5 731,-100.5 823,-100.5 823,-81.5 731,-81.5"/>
<text text-anchor="middle" x="777" y="-88.5" font-family="Helvetica,sans-Serif" font-size="10.00">ELFFile&lt; ELFT &gt;</text>
</g>
<!-- Node13&#45;&gt;Node5 -->
<g id="edge8" class="edge">
<title>Node13&#45;&gt;Node5</title>
<path fill="none" stroke="#9a32cd" stroke-dasharray="5,2" d="M833.12,-91C873.06,-91 927.27,-91 969.68,-91"/>
<polygon fill="#9a32cd" stroke="#9a32cd" points="833.03,-87.5 823.03,-91 833.03,-94.5 833.03,-87.5"/>
<text text-anchor="middle" x="913" y="-94" font-family="Helvetica,sans-Serif" font-size="10.00"> EF</text>
</g>
<!-- Node14 -->
<g id="node10" class="node">
<title>Node14</title>
<g id="a_node10"><a xlink:href="classbool.html" target="_top" xlink:title="bool">
<polygon fill="none" stroke="black" points="759.5,-43.5 759.5,-62.5 794.5,-62.5 794.5,-43.5 759.5,-43.5"/>
<text text-anchor="middle" x="777" y="-50.5" font-family="Helvetica,sans-Serif" font-size="10.00">bool</text>
</a>
</g>
</g>
<!-- Node14&#45;&gt;Node5 -->
<g id="edge9" class="edge">
<title>Node14&#45;&gt;Node5</title>
<path fill="none" stroke="#9a32cd" stroke-dasharray="5,2" d="M804.97,-56.19C839.22,-60.33 900.1,-67.97 952,-76 957.74,-76.89 963.7,-77.85 969.66,-78.85"/>
<polygon fill="#9a32cd" stroke="#9a32cd" points="805.18,-52.69 794.83,-54.97 804.34,-59.64 805.18,-52.69"/>
<text text-anchor="middle" x="913" y="-79" font-family="Helvetica,sans-Serif" font-size="10.00"> isDyldELFObject</text>
</g>
<!-- Node15 -->
<g id="node11" class="node">
<title>Node15</title>
<polygon fill="none" stroke="#bfbfbf" points="733,-0.5 733,-19.5 821,-19.5 821,-0.5 733,-0.5"/>
<text text-anchor="middle" x="777" y="-7.5" font-family="Helvetica,sans-Serif" font-size="10.00">const Elf_Shdr *</text>
</g>
<!-- Node15&#45;&gt;Node5 -->
<g id="edge10" class="edge">
<title>Node15&#45;&gt;Node5</title>
<path fill="none" stroke="#9a32cd" stroke-dasharray="5,2" d="M831.41,-14.03C866.54,-17.92 913.05,-25.48 952,-40 975.6,-48.8 999.96,-64.31 1016.42,-75.92"/>
<polygon fill="#9a32cd" stroke="#9a32cd" points="831.66,-10.54 821.35,-12.98 830.94,-17.5 831.66,-10.54"/>
<text text-anchor="middle" x="913" y="-54" font-family="Helvetica,sans-Serif" font-size="10.00"> DotDynSymSec</text>
<text text-anchor="middle" x="913" y="-43" font-family="Helvetica,sans-Serif" font-size="10.00">DotSymtabSec</text>
</g>
</g>
</svg>
