<?xml version="1.0" encoding="UTF-8" standalone="no"?>
<!DOCTYPE svg PUBLIC "-//W3C//DTD SVG 1.1//EN"
 "http://www.w3.org/Graphics/SVG/1.1/DTD/svg11.dtd">
<!-- Generated by graphviz version 2.43.0 (0)
 -->
<!-- Title: QualType Pages: 1 -->
<svg width="154pt" height="184pt"
 viewBox="0.00 0.00 154.00 184.00" xmlns="http://www.w3.org/2000/svg" xmlns:xlink="http://www.w3.org/1999/xlink">
<g id="graph0" class="graph" transform="scale(1 1) rotate(0) translate(4 180)">
<title>QualType</title>
<!-- Node2 -->
<g id="node1" class="node">
<title>Node2</title>
<polygon fill="#bfbfbf" stroke="black" points="25,-0.5 25,-19.5 84,-19.5 84,-0.5 25,-0.5"/>
<text text-anchor="middle" x="54.5" y="-7.5" font-family="Helvetica,sans-Serif" font-size="10.00">QualType</text>
</g>
<!-- Node3 -->
<g id="node2" class="node">
<title>Node3</title>
<g id="a_node2"><a xlink:href="classNode.html" target="_top" xlink:title="Node">
<polygon fill="none" stroke="black" points="2.5,-67.5 2.5,-86.5 42.5,-86.5 42.5,-67.5 2.5,-67.5"/>
<text text-anchor="middle" x="22.5" y="-74.5" font-family="Helvetica,sans-Serif" font-size="10.00">Node</text>
</a>
</g>
</g>
<!-- Node3&#45;&gt;Node2 -->
<g id="edge1" class="edge">
<title>Node3&#45;&gt;Node2</title>
<path fill="none" stroke="midnightblue" d="M27.66,-57.53C29.73,-51.18 32.38,-44.13 35.5,-38 38.83,-31.46 43.58,-24.71 47.5,-19.6"/>
<polygon fill="midnightblue" stroke="midnightblue" points="24.25,-56.68 24.72,-67.27 30.96,-58.7 24.25,-56.68"/>
</g>
<!-- Node3&#45;&gt;Node2 -->
<g id="edge3" class="edge">
<title>Node3&#45;&gt;Node2</title>
<path fill="none" stroke="#9a32cd" stroke-dasharray="5,2" d="M31.28,-58.16C37.45,-45.63 45.44,-29.41 50.25,-19.63"/>
<polygon fill="#9a32cd" stroke="#9a32cd" points="28.09,-56.72 26.82,-67.23 34.37,-59.81 28.09,-56.72"/>
<text text-anchor="middle" x="52.5" y="-41" font-family="Helvetica,sans-Serif" font-size="10.00"> Child</text>
</g>
<!-- Node4 -->
<g id="node3" class="node">
<title>Node4</title>
<polygon fill="none" stroke="#bfbfbf" points="0,-156.5 0,-175.5 45,-175.5 45,-156.5 0,-156.5"/>
<text text-anchor="middle" x="22.5" y="-163.5" font-family="Helvetica,sans-Serif" font-size="10.00">Cache</text>
</g>
<!-- Node4&#45;&gt;Node3 -->
<g id="edge2" class="edge">
<title>Node4&#45;&gt;Node3</title>
<path fill="none" stroke="#9a32cd" stroke-dasharray="5,2" d="M22.5,-146.19C22.5,-127.74 22.5,-100.41 22.5,-86.62"/>
<polygon fill="#9a32cd" stroke="#9a32cd" points="19,-146.34 22.5,-156.34 26,-146.34 19,-146.34"/>
<text text-anchor="middle" x="73" y="-130" font-family="Helvetica,sans-Serif" font-size="10.00"> FunctionCache</text>
<text text-anchor="middle" x="73" y="-119" font-family="Helvetica,sans-Serif" font-size="10.00">RHSComponentCache</text>
<text text-anchor="middle" x="73" y="-108" font-family="Helvetica,sans-Serif" font-size="10.00">ArrayCache</text>
</g>
<!-- Node5 -->
<g id="node4" class="node">
<title>Node5</title>
<polygon fill="none" stroke="#bfbfbf" points="61,-67.5 61,-86.5 146,-86.5 146,-67.5 61,-67.5"/>
<text text-anchor="middle" x="103.5" y="-74.5" font-family="Helvetica,sans-Serif" font-size="10.00">const Qualifiers</text>
</g>
<!-- Node5&#45;&gt;Node2 -->
<g id="edge4" class="edge">
<title>Node5&#45;&gt;Node2</title>
<path fill="none" stroke="#9a32cd" stroke-dasharray="5,2" d="M90.61,-58.9C81.09,-46.27 68.52,-29.6 61,-19.63"/>
<polygon fill="#9a32cd" stroke="#9a32cd" points="88.08,-61.36 96.89,-67.23 93.67,-57.14 88.08,-61.36"/>
<text text-anchor="middle" x="96" y="-41" font-family="Helvetica,sans-Serif" font-size="10.00"> Quals</text>
</g>
</g>
</svg>
