<?xml version="1.0" encoding="UTF-8" standalone="no"?>
<!DOCTYPE svg PUBLIC "-//W3C//DTD SVG 1.1//EN"
 "http://www.w3.org/Graphics/SVG/1.1/DTD/svg11.dtd">
<!-- Generated by graphviz version 2.43.0 (0)
 -->
<!-- Title: llvm::PPC64LinuxTargetObjectFile Pages: 1 -->
<svg width="175pt" height="207pt"
 viewBox="0.00 0.00 175.00 207.00" xmlns="http://www.w3.org/2000/svg" xmlns:xlink="http://www.w3.org/1999/xlink">
<g id="graph0" class="graph" transform="scale(1 1) rotate(0) translate(4 203)">
<title>llvm::PPC64LinuxTargetObjectFile</title>
<!-- Node0 -->
<g id="node1" class="node">
<title>Node0</title>
<polygon fill="#bfbfbf" stroke="black" points="0,-0.5 0,-19.5 167,-19.5 167,-0.5 0,-0.5"/>
<text text-anchor="middle" x="83.5" y="-7.5" font-family="Helvetica,sans-Serif" font-size="10.00">llvm::PPC64LinuxTargetObjectFile</text>
</g>
<!-- Node1 -->
<g id="node2" class="node">
<title>Node1</title>
<g id="a_node2"><a xlink:href="classllvm_1_1TargetLoweringObjectFileELF.html" target="_top" xlink:title="llvm::TargetLoweringObject\lFileELF">
<polygon fill="none" stroke="black" points="15.5,-56.5 15.5,-86.5 151.5,-86.5 151.5,-56.5 15.5,-56.5"/>
<text text-anchor="start" x="23.5" y="-74.5" font-family="Helvetica,sans-Serif" font-size="10.00">llvm::TargetLoweringObject</text>
<text text-anchor="middle" x="83.5" y="-63.5" font-family="Helvetica,sans-Serif" font-size="10.00">FileELF</text>
</a>
</g>
</g>
<!-- Node1&#45;&gt;Node0 -->
<g id="edge1" class="edge">
<title>Node1&#45;&gt;Node0</title>
<path fill="none" stroke="midnightblue" d="M83.5,-46.29C83.5,-36.86 83.5,-26.65 83.5,-19.66"/>
<polygon fill="midnightblue" stroke="midnightblue" points="80,-46.4 83.5,-56.4 87,-46.4 80,-46.4"/>
</g>
<!-- Node2 -->
<g id="node3" class="node">
<title>Node2</title>
<g id="a_node3"><a xlink:href="classllvm_1_1TargetLoweringObjectFile.html" target="_top" xlink:title="llvm::TargetLoweringObjectFile">
<polygon fill="none" stroke="black" points="7.5,-123.5 7.5,-142.5 159.5,-142.5 159.5,-123.5 7.5,-123.5"/>
<text text-anchor="middle" x="83.5" y="-130.5" font-family="Helvetica,sans-Serif" font-size="10.00">llvm::TargetLoweringObjectFile</text>
</a>
</g>
</g>
<!-- Node2&#45;&gt;Node1 -->
<g id="edge2" class="edge">
<title>Node2&#45;&gt;Node1</title>
<path fill="none" stroke="midnightblue" d="M83.5,-113.23C83.5,-104.59 83.5,-94.5 83.5,-86.52"/>
<polygon fill="midnightblue" stroke="midnightblue" points="80,-113.48 83.5,-123.48 87,-113.48 80,-113.48"/>
</g>
<!-- Node3 -->
<g id="node4" class="node">
<title>Node3</title>
<g id="a_node4"><a xlink:href="classllvm_1_1MCObjectFileInfo.html" target="_top" xlink:title="llvm::MCObjectFileInfo">
<polygon fill="none" stroke="black" points="25,-179.5 25,-198.5 142,-198.5 142,-179.5 25,-179.5"/>
<text text-anchor="middle" x="83.5" y="-186.5" font-family="Helvetica,sans-Serif" font-size="10.00">llvm::MCObjectFileInfo</text>
</a>
</g>
</g>
<!-- Node3&#45;&gt;Node2 -->
<g id="edge3" class="edge">
<title>Node3&#45;&gt;Node2</title>
<path fill="none" stroke="midnightblue" d="M83.5,-168.8C83.5,-159.91 83.5,-149.78 83.5,-142.75"/>
<polygon fill="midnightblue" stroke="midnightblue" points="80,-169.08 83.5,-179.08 87,-169.08 80,-169.08"/>
</g>
</g>
</svg>
