<?xml version="1.0" encoding="UTF-8" standalone="no"?>
<!DOCTYPE svg PUBLIC "-//W3C//DTD SVG 1.1//EN"
 "http://www.w3.org/Graphics/SVG/1.1/DTD/svg11.dtd">
<!-- Generated by graphviz version 2.43.0 (0)
 -->
<!-- Title: llvm::InstructionSelector Pages: 1 -->
<svg width="2392pt" height="242pt"
 viewBox="0.00 0.00 2392.00 241.50" xmlns="http://www.w3.org/2000/svg" xmlns:xlink="http://www.w3.org/1999/xlink">
<g id="graph0" class="graph" transform="scale(1 1) rotate(0) translate(4 237.5)">
<title>llvm::InstructionSelector</title>
<!-- Node2 -->
<g id="node1" class="node">
<title>Node2</title>
<polygon fill="#bfbfbf" stroke="black" points="2262,-79 2262,-98 2384,-98 2384,-79 2262,-79"/>
<text text-anchor="middle" x="2323" y="-86" font-family="Helvetica,sans-Serif" font-size="10.00">llvm::InstructionSelector</text>
</g>
<!-- Node3 -->
<g id="node2" class="node">
<title>Node3</title>
<g id="a_node2"><a xlink:href="classllvm_1_1MachineFunction.html" target="_top" xlink:title="llvm::MachineFunction">
<polygon fill="none" stroke="black" points="2044.5,-120 2044.5,-139 2159.5,-139 2159.5,-120 2044.5,-120"/>
<text text-anchor="middle" x="2102" y="-127" font-family="Helvetica,sans-Serif" font-size="10.00">llvm::MachineFunction</text>
</a>
</g>
</g>
<!-- Node3&#45;&gt;Node2 -->
<g id="edge1" class="edge">
<title>Node3&#45;&gt;Node2</title>
<path fill="none" stroke="#9a32cd" stroke-dasharray="5,2" d="M2163.99,-118.08C2197.72,-111.77 2239.13,-104.01 2271.1,-98.03"/>
<polygon fill="#9a32cd" stroke="#9a32cd" points="2162.98,-114.71 2153.79,-119.99 2164.27,-121.59 2162.98,-114.71"/>
<text text-anchor="middle" x="2213" y="-116.5" font-family="Helvetica,sans-Serif" font-size="10.00"> MF</text>
</g>
<!-- Node4 -->
<g id="node3" class="node">
<title>Node4</title>
<g id="a_node3"><a xlink:href="classllvm_1_1SmallVector.html" target="_top" xlink:title="llvm::SmallVector\&lt;\l VariableDbgInfo, 4 \&gt;">
<polygon fill="none" stroke="black" points="1800.5,-117.5 1800.5,-147.5 1910.5,-147.5 1910.5,-117.5 1800.5,-117.5"/>
<text text-anchor="start" x="1808.5" y="-135.5" font-family="Helvetica,sans-Serif" font-size="10.00">llvm::SmallVector&lt;</text>
<text text-anchor="middle" x="1855.5" y="-124.5" font-family="Helvetica,sans-Serif" font-size="10.00"> VariableDbgInfo, 4 &gt;</text>
</a>
</g>
</g>
<!-- Node4&#45;&gt;Node3 -->
<g id="edge2" class="edge">
<title>Node4&#45;&gt;Node3</title>
<path fill="none" stroke="#9a32cd" stroke-dasharray="5,2" d="M1920.79,-131.71C1959.15,-131.24 2007.42,-130.65 2044.34,-130.2"/>
<polygon fill="#9a32cd" stroke="#9a32cd" points="1920.72,-128.21 1910.76,-131.83 1920.8,-135.21 1920.72,-128.21"/>
<text text-anchor="middle" x="1982.5" y="-133.5" font-family="Helvetica,sans-Serif" font-size="10.00"> VariableDbgInfos</text>
</g>
<!-- Node5 -->
<g id="node4" class="node">
<title>Node5</title>
<g id="a_node4"><a xlink:href="classllvm_1_1SmallVectorImpl.html" target="_top" xlink:title="llvm::SmallVectorImpl\l\&lt; VariableDbgInfo \&gt;">
<polygon fill="none" stroke="black" points="1526.5,-68.5 1526.5,-98.5 1639.5,-98.5 1639.5,-68.5 1526.5,-68.5"/>
<text text-anchor="start" x="1534.5" y="-86.5" font-family="Helvetica,sans-Serif" font-size="10.00">llvm::SmallVectorImpl</text>
<text text-anchor="middle" x="1583" y="-75.5" font-family="Helvetica,sans-Serif" font-size="10.00">&lt; VariableDbgInfo &gt;</text>
</a>
</g>
</g>
<!-- Node5&#45;&gt;Node4 -->
<g id="edge3" class="edge">
<title>Node5&#45;&gt;Node4</title>
<path fill="none" stroke="midnightblue" d="M1649.63,-95.39C1695.79,-103.75 1756.82,-114.81 1800.24,-122.67"/>
<polygon fill="midnightblue" stroke="midnightblue" points="1650.18,-91.93 1639.72,-93.59 1648.94,-98.82 1650.18,-91.93"/>
</g>
<!-- Node6 -->
<g id="node5" class="node">
<title>Node6</title>
<g id="a_node5"><a xlink:href="classllvm_1_1SmallVectorTemplateBase.html" target="_top" xlink:title="SmallVectorTemplateBase&lt;TriviallyCopyable = false&gt; &#45; This is where we put method implementations that...">
<polygon fill="none" stroke="black" points="842,-0.5 842,-30.5 976,-30.5 976,-0.5 842,-0.5"/>
<text text-anchor="start" x="850" y="-18.5" font-family="Helvetica,sans-Serif" font-size="10.00">llvm::SmallVectorTemplate</text>
<text text-anchor="middle" x="909" y="-7.5" font-family="Helvetica,sans-Serif" font-size="10.00">Base&lt; VariableDbgInfo &gt;</text>
</a>
</g>
</g>
<!-- Node6&#45;&gt;Node5 -->
<g id="edge4" class="edge">
<title>Node6&#45;&gt;Node5</title>
<path fill="none" stroke="midnightblue" d="M986.25,-23.22C1122.84,-37.04 1406.19,-65.71 1526.28,-77.86"/>
<polygon fill="midnightblue" stroke="midnightblue" points="986.57,-19.73 976.27,-22.21 985.87,-26.7 986.57,-19.73"/>
</g>
<!-- Node7 -->
<g id="node6" class="node">
<title>Node7</title>
<g id="a_node6"><a xlink:href="classllvm_1_1SmallVectorTemplateCommon.html" target="_top" xlink:title="llvm::SmallVectorTemplate\lCommon\&lt; T \&gt;">
<polygon fill="none" stroke="black" points="483,-34.5 483,-64.5 617,-64.5 617,-34.5 483,-34.5"/>
<text text-anchor="start" x="491" y="-52.5" font-family="Helvetica,sans-Serif" font-size="10.00">llvm::SmallVectorTemplate</text>
<text text-anchor="middle" x="550" y="-41.5" font-family="Helvetica,sans-Serif" font-size="10.00">Common&lt; T &gt;</text>
</a>
</g>
</g>
<!-- Node7&#45;&gt;Node6 -->
<g id="edge5" class="edge">
<title>Node7&#45;&gt;Node6</title>
<path fill="none" stroke="midnightblue" d="M627.38,-36.46C629.95,-36.12 632.5,-35.8 635,-35.5 705.43,-27.07 786.53,-21.67 841.92,-18.63"/>
<polygon fill="midnightblue" stroke="midnightblue" points="626.83,-33.01 617.4,-37.85 627.79,-39.94 626.83,-33.01"/>
</g>
<!-- Node13 -->
<g id="node12" class="node">
<title>Node13</title>
<g id="a_node12"><a xlink:href="classllvm_1_1SmallVectorTemplateBase.html" target="_top" xlink:title="llvm::SmallVectorTemplate\lBase\&lt; T \&gt;">
<polygon fill="none" stroke="black" points="1010.5,-74.5 1010.5,-104.5 1144.5,-104.5 1144.5,-74.5 1010.5,-74.5"/>
<text text-anchor="start" x="1018.5" y="-92.5" font-family="Helvetica,sans-Serif" font-size="10.00">llvm::SmallVectorTemplate</text>
<text text-anchor="middle" x="1077.5" y="-81.5" font-family="Helvetica,sans-Serif" font-size="10.00">Base&lt; T &gt;</text>
</a>
</g>
</g>
<!-- Node7&#45;&gt;Node13 -->
<g id="edge13" class="edge">
<title>Node7&#45;&gt;Node13</title>
<path fill="none" stroke="midnightblue" d="M627.18,-54.96C681.94,-58.91 757.53,-64.43 824,-69.5 887.25,-74.32 959.39,-80.06 1010.32,-84.15"/>
<polygon fill="midnightblue" stroke="midnightblue" points="627.43,-51.47 617.21,-54.24 626.93,-58.45 627.43,-51.47"/>
</g>
<!-- Node14 -->
<g id="node13" class="node">
<title>Node14</title>
<g id="a_node13"><a xlink:href="classllvm_1_1SmallVectorTemplateBase.html" target="_top" xlink:title="SmallVectorTemplateBase&lt;TriviallyCopyable = false&gt; &#45; This is where we put method implementations that...">
<polygon fill="none" stroke="black" points="685.5,-78.5 685.5,-108.5 819.5,-108.5 819.5,-78.5 685.5,-78.5"/>
<text text-anchor="start" x="693.5" y="-96.5" font-family="Helvetica,sans-Serif" font-size="10.00">llvm::SmallVectorTemplate</text>
<text text-anchor="middle" x="752.5" y="-85.5" font-family="Helvetica,sans-Serif" font-size="10.00">Base&lt; T, bool &gt;</text>
</a>
</g>
</g>
<!-- Node7&#45;&gt;Node14 -->
<g id="edge15" class="edge">
<title>Node7&#45;&gt;Node14</title>
<path fill="none" stroke="midnightblue" d="M627.11,-66.2C646.28,-70.41 666.72,-74.89 685.36,-78.99"/>
<polygon fill="midnightblue" stroke="midnightblue" points="627.72,-62.75 617.21,-64.03 626.22,-69.59 627.72,-62.75"/>
</g>
<!-- Node8 -->
<g id="node7" class="node">
<title>Node8</title>
<g id="a_node7"><a xlink:href="classllvm_1_1SmallVectorBase.html" target="_top" xlink:title="This is all the non&#45;templated stuff common to all SmallVectors. ">
<polygon fill="none" stroke="black" points="132,-45 132,-64 248,-64 248,-45 132,-45"/>
<text text-anchor="middle" x="190" y="-52" font-family="Helvetica,sans-Serif" font-size="10.00">llvm::SmallVectorBase</text>
</a>
</g>
</g>
<!-- Node8&#45;&gt;Node7 -->
<g id="edge6" class="edge">
<title>Node8&#45;&gt;Node7</title>
<path fill="none" stroke="midnightblue" d="M258.27,-55.08C313.74,-55.36 394.49,-55.31 465,-53.5 470.84,-53.35 476.9,-53.15 482.98,-52.92"/>
<polygon fill="midnightblue" stroke="midnightblue" points="258.23,-51.58 248.21,-55.02 258.19,-58.58 258.23,-51.58"/>
</g>
<!-- Node11 -->
<g id="node10" class="node">
<title>Node11</title>
<g id="a_node10"><a xlink:href="classllvm_1_1SmallVectorTemplateCommon.html" target="_top" xlink:title="This is the part of SmallVectorTemplateBase which does not depend on whether the type T is a POD...">
<polygon fill="none" stroke="black" points="285,-8.5 285,-38.5 419,-38.5 419,-8.5 285,-8.5"/>
<text text-anchor="start" x="293" y="-26.5" font-family="Helvetica,sans-Serif" font-size="10.00">llvm::SmallVectorTemplate</text>
<text text-anchor="middle" x="352" y="-15.5" font-family="Helvetica,sans-Serif" font-size="10.00">Common&lt; T, typename &gt;</text>
</a>
</g>
</g>
<!-- Node8&#45;&gt;Node11 -->
<g id="edge10" class="edge">
<title>Node8&#45;&gt;Node11</title>
<path fill="none" stroke="midnightblue" d="M250.41,-42.99C261.61,-40.82 273.38,-38.54 284.78,-36.33"/>
<polygon fill="midnightblue" stroke="midnightblue" points="249.46,-39.61 240.31,-44.95 250.79,-46.48 249.46,-39.61"/>
</g>
<!-- Node9 -->
<g id="node8" class="node">
<title>Node9</title>
<g id="a_node8"><a xlink:href="classunsigned.html" target="_top" xlink:title="unsigned">
<polygon fill="none" stroke="black" points="0,-64 0,-83 56,-83 56,-64 0,-64"/>
<text text-anchor="middle" x="28" y="-71" font-family="Helvetica,sans-Serif" font-size="10.00">unsigned</text>
</a>
</g>
</g>
<!-- Node9&#45;&gt;Node8 -->
<g id="edge7" class="edge">
<title>Node9&#45;&gt;Node8</title>
<path fill="none" stroke="#9a32cd" stroke-dasharray="5,2" d="M66.15,-69.09C85.65,-66.77 109.97,-63.88 131.82,-61.29"/>
<polygon fill="#9a32cd" stroke="#9a32cd" points="65.66,-65.62 56.14,-70.28 66.48,-72.57 65.66,-65.62"/>
<text text-anchor="middle" x="94" y="-82.5" font-family="Helvetica,sans-Serif" font-size="10.00"> Size</text>
<text text-anchor="middle" x="94" y="-71.5" font-family="Helvetica,sans-Serif" font-size="10.00">Capacity</text>
</g>
<!-- Node10 -->
<g id="node9" class="node">
<title>Node10</title>
<polygon fill="none" stroke="#bfbfbf" points="7.5,-26 7.5,-45 48.5,-45 48.5,-26 7.5,-26"/>
<text text-anchor="middle" x="28" y="-33" font-family="Helvetica,sans-Serif" font-size="10.00">void *</text>
</g>
<!-- Node10&#45;&gt;Node8 -->
<g id="edge8" class="edge">
<title>Node10&#45;&gt;Node8</title>
<path fill="none" stroke="#9a32cd" stroke-dasharray="5,2" d="M58.59,-39.01C79.05,-41.44 106.94,-44.76 131.67,-47.69"/>
<polygon fill="#9a32cd" stroke="#9a32cd" points="58.96,-35.53 48.62,-37.83 58.14,-42.48 58.96,-35.53"/>
<text text-anchor="middle" x="94" y="-49.5" font-family="Helvetica,sans-Serif" font-size="10.00"> BeginX</text>
</g>
<!-- Node11&#45;&gt;Node7 -->
<g id="edge9" class="edge">
<title>Node11&#45;&gt;Node7</title>
<path fill="none" stroke="orange" stroke-dasharray="5,2" d="M429.35,-33.63C447.02,-35.97 465.68,-38.45 482.87,-40.73"/>
<polygon fill="orange" stroke="orange" points="429.46,-30.11 419.08,-32.27 428.54,-37.05 429.46,-30.11"/>
<text text-anchor="middle" x="451" y="-41.5" font-family="Helvetica,sans-Serif" font-size="10.00"> &lt; T &gt;</text>
</g>
<!-- Node12 -->
<g id="node11" class="node">
<title>Node12</title>
<g id="a_node11"><a xlink:href="classllvm_1_1SmallVectorImpl.html" target="_top" xlink:title="This class consists of common code factored out of the SmallVector class to reduce code duplication b...">
<polygon fill="none" stroke="black" points="1241,-80 1241,-99 1378,-99 1378,-80 1241,-80"/>
<text text-anchor="middle" x="1309.5" y="-87" font-family="Helvetica,sans-Serif" font-size="10.00">llvm::SmallVectorImpl&lt; T &gt;</text>
</a>
</g>
</g>
<!-- Node12&#45;&gt;Node5 -->
<g id="edge11" class="edge">
<title>Node12&#45;&gt;Node5</title>
<path fill="none" stroke="orange" stroke-dasharray="5,2" d="M1388.42,-87.78C1432.54,-86.8 1486.67,-85.61 1526.46,-84.73"/>
<polygon fill="orange" stroke="orange" points="1388.23,-84.28 1378.31,-88 1388.39,-91.28 1388.23,-84.28"/>
<text text-anchor="middle" x="1448.5" y="-90.5" font-family="Helvetica,sans-Serif" font-size="10.00"> &lt; VariableDbgInfo &gt;</text>
</g>
<!-- Node21 -->
<g id="node20" class="node">
<title>Node21</title>
<g id="a_node20"><a xlink:href="classllvm_1_1SmallVector.html" target="_top" xlink:title="This is a &#39;vector&#39; (really, a variable&#45;sized array), optimized for the case when the array is small...">
<polygon fill="none" stroke="black" points="1533,-117.5 1533,-147.5 1633,-147.5 1633,-117.5 1533,-117.5"/>
<text text-anchor="start" x="1541" y="-135.5" font-family="Helvetica,sans-Serif" font-size="10.00">llvm::SmallVector&lt;</text>
<text text-anchor="middle" x="1583" y="-124.5" font-family="Helvetica,sans-Serif" font-size="10.00"> T, N &gt;</text>
</a>
</g>
</g>
<!-- Node12&#45;&gt;Node21 -->
<g id="edge26" class="edge">
<title>Node12&#45;&gt;Node21</title>
<path fill="none" stroke="midnightblue" d="M1380.7,-100.62C1428.4,-108.17 1490.3,-117.98 1532.79,-124.71"/>
<polygon fill="midnightblue" stroke="midnightblue" points="1381.18,-97.15 1370.75,-99.04 1380.08,-104.06 1381.18,-97.15"/>
</g>
<!-- Node13&#45;&gt;Node12 -->
<g id="edge12" class="edge">
<title>Node13&#45;&gt;Node12</title>
<path fill="none" stroke="midnightblue" d="M1154.78,-89.5C1182.57,-89.5 1213.76,-89.5 1240.76,-89.5"/>
<polygon fill="midnightblue" stroke="midnightblue" points="1154.72,-86 1144.72,-89.5 1154.72,-93 1154.72,-86"/>
</g>
<!-- Node14&#45;&gt;Node13 -->
<g id="edge14" class="edge">
<title>Node14&#45;&gt;Node13</title>
<path fill="none" stroke="orange" stroke-dasharray="5,2" d="M829.67,-92.56C884.6,-91.88 958,-90.97 1010.45,-90.32"/>
<polygon fill="orange" stroke="orange" points="829.6,-89.06 819.64,-92.68 829.69,-96.06 829.6,-89.06"/>
<text text-anchor="middle" x="909" y="-94.5" font-family="Helvetica,sans-Serif" font-size="10.00"> &lt; T &gt;</text>
</g>
<!-- Node15 -->
<g id="node14" class="node">
<title>Node15</title>
<g id="a_node14"><a xlink:href="structllvm_1_1SmallVectorStorage.html" target="_top" xlink:title="llvm::SmallVectorStorage\l\&lt; VariableDbgInfo, N \&gt;">
<polygon fill="none" stroke="black" points="1519,-166.5 1519,-196.5 1647,-196.5 1647,-166.5 1519,-166.5"/>
<text text-anchor="start" x="1527" y="-184.5" font-family="Helvetica,sans-Serif" font-size="10.00">llvm::SmallVectorStorage</text>
<text text-anchor="middle" x="1583" y="-173.5" font-family="Helvetica,sans-Serif" font-size="10.00">&lt; VariableDbgInfo, N &gt;</text>
</a>
</g>
</g>
<!-- Node15&#45;&gt;Node4 -->
<g id="edge16" class="edge">
<title>Node15&#45;&gt;Node4</title>
<path fill="none" stroke="#8b1a1a" d="M1657.12,-168.25C1702.32,-160.07 1759.34,-149.74 1800.46,-142.29"/>
<polygon fill="#8b1a1a" stroke="#8b1a1a" points="1656.29,-164.85 1647.08,-170.07 1657.54,-171.73 1656.29,-164.85"/>
</g>
<!-- Node16 -->
<g id="node15" class="node">
<title>Node16</title>
<g id="a_node15"><a xlink:href="structllvm_1_1AlignedCharArrayUnion.html" target="_top" xlink:title="llvm::AlignedCharArrayUnion\l\&lt; VariableDbgInfo \&gt;">
<polygon fill="none" stroke="black" points="1006,-197.5 1006,-227.5 1149,-227.5 1149,-197.5 1006,-197.5"/>
<text text-anchor="start" x="1014" y="-215.5" font-family="Helvetica,sans-Serif" font-size="10.00">llvm::AlignedCharArrayUnion</text>
<text text-anchor="middle" x="1077.5" y="-204.5" font-family="Helvetica,sans-Serif" font-size="10.00">&lt; VariableDbgInfo &gt;</text>
</a>
</g>
</g>
<!-- Node16&#45;&gt;Node15 -->
<g id="edge17" class="edge">
<title>Node16&#45;&gt;Node15</title>
<path fill="none" stroke="#9a32cd" stroke-dasharray="5,2" d="M1159.09,-207.54C1259.08,-201.38 1427.47,-191.01 1518.69,-185.4"/>
<polygon fill="#9a32cd" stroke="#9a32cd" points="1158.81,-204.05 1149.04,-208.16 1159.24,-211.04 1158.81,-204.05"/>
<text text-anchor="middle" x="1309.5" y="-204.5" font-family="Helvetica,sans-Serif" font-size="10.00"> InlineElts</text>
</g>
<!-- Node17 -->
<g id="node16" class="node">
<title>Node17</title>
<g id="a_node16"><a xlink:href="classchar.html" target="_top" xlink:title="char">
<polygon fill="none" stroke="black" points="532.5,-181 532.5,-200 567.5,-200 567.5,-181 532.5,-181"/>
<text text-anchor="middle" x="550" y="-188" font-family="Helvetica,sans-Serif" font-size="10.00">char</text>
</a>
</g>
</g>
<!-- Node17&#45;&gt;Node16 -->
<g id="edge18" class="edge">
<title>Node17&#45;&gt;Node16</title>
<path fill="none" stroke="#9a32cd" stroke-dasharray="5,2" d="M577.59,-196.95C603.73,-202.97 644.85,-211.6 681,-215.5 794.16,-227.7 926.58,-222.85 1005.89,-217.91"/>
<polygon fill="#9a32cd" stroke="#9a32cd" points="578.23,-193.51 567.69,-194.63 576.63,-200.32 578.23,-193.51"/>
<text text-anchor="middle" x="752.5" y="-225.5" font-family="Helvetica,sans-Serif" font-size="10.00"> buffer</text>
</g>
<!-- Node18 -->
<g id="node17" class="node">
<title>Node18</title>
<g id="a_node17"><a xlink:href="structllvm_1_1AlignedCharArrayUnion.html" target="_top" xlink:title="A suitably aligned and sized character array member which can hold elements of any type...">
<polygon fill="none" stroke="black" points="681,-175.5 681,-205.5 824,-205.5 824,-175.5 681,-175.5"/>
<text text-anchor="start" x="689" y="-193.5" font-family="Helvetica,sans-Serif" font-size="10.00">llvm::AlignedCharArrayUnion</text>
<text text-anchor="middle" x="752.5" y="-182.5" font-family="Helvetica,sans-Serif" font-size="10.00">&lt; T, Ts &gt;</text>
</a>
</g>
</g>
<!-- Node17&#45;&gt;Node18 -->
<g id="edge20" class="edge">
<title>Node17&#45;&gt;Node18</title>
<path fill="none" stroke="#9a32cd" stroke-dasharray="5,2" d="M578.05,-190.5C604.34,-190.5 645.39,-190.5 680.96,-190.5"/>
<polygon fill="#9a32cd" stroke="#9a32cd" points="577.75,-187 567.75,-190.5 577.75,-194 577.75,-187"/>
<text text-anchor="middle" x="649" y="-193.5" font-family="Helvetica,sans-Serif" font-size="10.00"> buffer</text>
</g>
<!-- Node20 -->
<g id="node19" class="node">
<title>Node20</title>
<g id="a_node19"><a xlink:href="structllvm_1_1AlignedCharArrayUnion.html" target="_top" xlink:title="llvm::AlignedCharArrayUnion\&lt; T \&gt;">
<polygon fill="none" stroke="black" points="994,-137 994,-156 1161,-156 1161,-137 994,-137"/>
<text text-anchor="middle" x="1077.5" y="-144" font-family="Helvetica,sans-Serif" font-size="10.00">llvm::AlignedCharArrayUnion&lt; T &gt;</text>
</a>
</g>
</g>
<!-- Node17&#45;&gt;Node20 -->
<g id="edge23" class="edge">
<title>Node17&#45;&gt;Node20</title>
<path fill="none" stroke="#9a32cd" stroke-dasharray="5,2" d="M577.05,-181.5C603.02,-173 644.24,-160.79 681,-155.5 788.24,-140.07 913.49,-140.24 993.84,-142.64"/>
<polygon fill="#9a32cd" stroke="#9a32cd" points="575.94,-178.18 567.56,-184.66 578.15,-184.82 575.94,-178.18"/>
<text text-anchor="middle" x="752.5" y="-158.5" font-family="Helvetica,sans-Serif" font-size="10.00"> buffer</text>
</g>
<!-- Node18&#45;&gt;Node16 -->
<g id="edge19" class="edge">
<title>Node18&#45;&gt;Node16</title>
<path fill="none" stroke="orange" stroke-dasharray="5,2" d="M834.38,-196.01C887.09,-199.6 955.23,-204.24 1005.78,-207.68"/>
<polygon fill="orange" stroke="orange" points="834.6,-192.52 824.38,-195.33 834.12,-199.5 834.6,-192.52"/>
<text text-anchor="middle" x="909" y="-207.5" font-family="Helvetica,sans-Serif" font-size="10.00"> &lt; VariableDbgInfo &gt;</text>
</g>
<!-- Node18&#45;&gt;Node20 -->
<g id="edge24" class="edge">
<title>Node18&#45;&gt;Node20</title>
<path fill="none" stroke="orange" stroke-dasharray="5,2" d="M834.43,-179.48C887.43,-172.26 955.99,-162.92 1006.62,-156.02"/>
<polygon fill="orange" stroke="orange" points="833.82,-176.03 824.38,-180.84 834.76,-182.96 833.82,-176.03"/>
<text text-anchor="middle" x="909" y="-179.5" font-family="Helvetica,sans-Serif" font-size="10.00"> &lt; T &gt;</text>
</g>
<!-- Node19 -->
<g id="node18" class="node">
<title>Node19</title>
<g id="a_node18"><a xlink:href="structllvm_1_1SmallVectorStorage.html" target="_top" xlink:title="Storage for the SmallVector elements. ">
<polygon fill="none" stroke="black" points="1245.5,-131.5 1245.5,-161.5 1373.5,-161.5 1373.5,-131.5 1245.5,-131.5"/>
<text text-anchor="start" x="1253.5" y="-149.5" font-family="Helvetica,sans-Serif" font-size="10.00">llvm::SmallVectorStorage</text>
<text text-anchor="middle" x="1309.5" y="-138.5" font-family="Helvetica,sans-Serif" font-size="10.00">&lt; T, N &gt;</text>
</a>
</g>
</g>
<!-- Node19&#45;&gt;Node15 -->
<g id="edge21" class="edge">
<title>Node19&#45;&gt;Node15</title>
<path fill="none" stroke="orange" stroke-dasharray="5,2" d="M1383.73,-155.94C1425.85,-161.37 1478.24,-168.12 1518.59,-173.33"/>
<polygon fill="orange" stroke="orange" points="1384.18,-152.47 1373.81,-154.66 1383.28,-159.41 1384.18,-152.47"/>
<text text-anchor="middle" x="1448.5" y="-172.5" font-family="Helvetica,sans-Serif" font-size="10.00"> &lt; VariableDbgInfo, N &gt;</text>
</g>
<!-- Node19&#45;&gt;Node21 -->
<g id="edge27" class="edge">
<title>Node19&#45;&gt;Node21</title>
<path fill="none" stroke="#8b1a1a" d="M1383.97,-142.71C1431.13,-140.28 1491.08,-137.19 1532.6,-135.05"/>
<polygon fill="#8b1a1a" stroke="#8b1a1a" points="1383.62,-139.22 1373.81,-143.24 1383.98,-146.22 1383.62,-139.22"/>
</g>
<!-- Node20&#45;&gt;Node19 -->
<g id="edge22" class="edge">
<title>Node20&#45;&gt;Node19</title>
<path fill="none" stroke="#9a32cd" stroke-dasharray="5,2" d="M1171.38,-146.5C1196.2,-146.5 1222.45,-146.5 1245.27,-146.5"/>
<polygon fill="#9a32cd" stroke="#9a32cd" points="1171.21,-143 1161.21,-146.5 1171.21,-150 1171.21,-143"/>
<text text-anchor="middle" x="1201" y="-149.5" font-family="Helvetica,sans-Serif" font-size="10.00"> InlineElts</text>
</g>
<!-- Node21&#45;&gt;Node4 -->
<g id="edge25" class="edge">
<title>Node21&#45;&gt;Node4</title>
<path fill="none" stroke="orange" stroke-dasharray="5,2" d="M1643.31,-132.5C1690.16,-132.5 1755,-132.5 1800.43,-132.5"/>
<polygon fill="orange" stroke="orange" points="1643.3,-129 1633.3,-132.5 1643.3,-136 1643.3,-129"/>
<text text-anchor="middle" x="1716.5" y="-135.5" font-family="Helvetica,sans-Serif" font-size="10.00"> &lt; VariableDbgInfo, 4 &gt;</text>
</g>
<!-- Node22 -->
<g id="node21" class="node">
<title>Node22</title>
<g id="a_node21"><a xlink:href="classllvm_1_1CodeGenCoverage.html" target="_top" xlink:title="llvm::CodeGenCoverage">
<polygon fill="none" stroke="black" points="2040,-79 2040,-98 2164,-98 2164,-79 2040,-79"/>
<text text-anchor="middle" x="2102" y="-86" font-family="Helvetica,sans-Serif" font-size="10.00">llvm::CodeGenCoverage</text>
</a>
</g>
</g>
<!-- Node22&#45;&gt;Node2 -->
<g id="edge28" class="edge">
<title>Node22&#45;&gt;Node2</title>
<path fill="none" stroke="#9a32cd" stroke-dasharray="5,2" d="M2174.22,-88.5C2202.48,-88.5 2234.62,-88.5 2261.7,-88.5"/>
<polygon fill="#9a32cd" stroke="#9a32cd" points="2174,-85 2164,-88.5 2174,-92 2174,-85"/>
<text text-anchor="middle" x="2213" y="-91.5" font-family="Helvetica,sans-Serif" font-size="10.00"> CoverageInfo</text>
</g>
<!-- Node23 -->
<g id="node22" class="node">
<title>Node23</title>
<g id="a_node22"><a xlink:href="classllvm_1_1BitVector.html" target="_top" xlink:title="llvm::BitVector">
<polygon fill="none" stroke="black" points="1815,-79 1815,-98 1896,-98 1896,-79 1815,-79"/>
<text text-anchor="middle" x="1855.5" y="-86" font-family="Helvetica,sans-Serif" font-size="10.00">llvm::BitVector</text>
</a>
</g>
</g>
<!-- Node23&#45;&gt;Node22 -->
<g id="edge29" class="edge">
<title>Node23&#45;&gt;Node22</title>
<path fill="none" stroke="#9a32cd" stroke-dasharray="5,2" d="M1906.53,-88.5C1945.18,-88.5 1998.83,-88.5 2039.99,-88.5"/>
<polygon fill="#9a32cd" stroke="#9a32cd" points="1906.05,-85 1896.05,-88.5 1906.05,-92 1906.05,-85"/>
<text text-anchor="middle" x="1982.5" y="-91.5" font-family="Helvetica,sans-Serif" font-size="10.00"> RuleCoverage</text>
</g>
<!-- Node24 -->
<g id="node23" class="node">
<title>Node24</title>
<g id="a_node23"><a xlink:href="classllvm_1_1GISelKnownBits.html" target="_top" xlink:title="llvm::GISelKnownBits">
<polygon fill="none" stroke="black" points="2045.5,-41 2045.5,-60 2158.5,-60 2158.5,-41 2045.5,-41"/>
<text text-anchor="middle" x="2102" y="-48" font-family="Helvetica,sans-Serif" font-size="10.00">llvm::GISelKnownBits</text>
</a>
</g>
</g>
<!-- Node24&#45;&gt;Node2 -->
<g id="edge30" class="edge">
<title>Node24&#45;&gt;Node2</title>
<path fill="none" stroke="#9a32cd" stroke-dasharray="5,2" d="M2168.62,-60.81C2192.39,-64.65 2219.43,-69.13 2244,-73.5 2253.5,-75.19 2263.64,-77.08 2273.36,-78.93"/>
<polygon fill="#9a32cd" stroke="#9a32cd" points="2169.07,-57.34 2158.65,-59.2 2167.96,-64.25 2169.07,-57.34"/>
<text text-anchor="middle" x="2213" y="-76.5" font-family="Helvetica,sans-Serif" font-size="10.00"> KnownBits</text>
</g>
<!-- Node25 -->
<g id="node24" class="node">
<title>Node25</title>
<g id="a_node24"><a xlink:href="classllvm_1_1GISelChangeObserver.html" target="_top" xlink:title="Abstract class that contains various methods for clients to notify about changes. ...">
<polygon fill="none" stroke="black" points="1786,-41 1786,-60 1925,-60 1925,-41 1786,-41"/>
<text text-anchor="middle" x="1855.5" y="-48" font-family="Helvetica,sans-Serif" font-size="10.00">llvm::GISelChangeObserver</text>
</a>
</g>
</g>
<!-- Node25&#45;&gt;Node24 -->
<g id="edge31" class="edge">
<title>Node25&#45;&gt;Node24</title>
<path fill="none" stroke="midnightblue" d="M1935.69,-50.5C1971.53,-50.5 2013.04,-50.5 2045.49,-50.5"/>
<polygon fill="midnightblue" stroke="midnightblue" points="1935.26,-47 1925.26,-50.5 1935.26,-54 1935.26,-47"/>
</g>
</g>
</svg>
