<?xml version="1.0" encoding="UTF-8" standalone="no"?>
<!DOCTYPE svg PUBLIC "-//W3C//DTD SVG 1.1//EN"
 "http://www.w3.org/Graphics/SVG/1.1/DTD/svg11.dtd">
<!-- Generated by graphviz version 2.43.0 (0)
 -->
<!-- Title: include/llvm/Object/COFFImportFile.h Pages: 1 -->
<svg width="610pt" height="173pt"
 viewBox="0.00 0.00 609.50 173.00" xmlns="http://www.w3.org/2000/svg" xmlns:xlink="http://www.w3.org/1999/xlink">
<g id="graph0" class="graph" transform="scale(1 1) rotate(0) translate(4 169)">
<title>include/llvm/Object/COFFImportFile.h</title>
<!-- Node119 -->
<g id="node1" class="node">
<title>Node119</title>
<polygon fill="#bfbfbf" stroke="black" points="219.5,-134.5 219.5,-164.5 319.5,-164.5 319.5,-134.5 219.5,-134.5"/>
<text text-anchor="start" x="227.5" y="-152.5" font-family="Helvetica,sans-Serif" font-size="10.00">include/llvm/Object</text>
<text text-anchor="middle" x="269.5" y="-141.5" font-family="Helvetica,sans-Serif" font-size="10.00">/COFFImportFile.h</text>
</g>
<!-- Node120 -->
<g id="node2" class="node">
<title>Node120</title>
<g id="a_node2"><a xlink:href="COFFModuleDefinition_8h.html" target="_top" xlink:title="include/llvm/Object\l/COFFModuleDefinition.h">
<polygon fill="none" stroke="black" points="113.5,-67.5 113.5,-97.5 241.5,-97.5 241.5,-67.5 113.5,-67.5"/>
<text text-anchor="start" x="121.5" y="-85.5" font-family="Helvetica,sans-Serif" font-size="10.00">include/llvm/Object</text>
<text text-anchor="middle" x="177.5" y="-74.5" font-family="Helvetica,sans-Serif" font-size="10.00">/COFFModuleDefinition.h</text>
</a>
</g>
</g>
<!-- Node119&#45;&gt;Node120 -->
<g id="edge1" class="edge">
<title>Node119&#45;&gt;Node120</title>
<path fill="none" stroke="midnightblue" d="M241.12,-128.45C226.97,-118.45 210.19,-106.6 197.42,-97.58"/>
<polygon fill="midnightblue" stroke="midnightblue" points="239.35,-131.48 249.54,-134.4 243.39,-125.77 239.35,-131.48"/>
</g>
<!-- Node121 -->
<g id="node3" class="node">
<title>Node121</title>
<g id="a_node3"><a xlink:href="COFFModuleDefinition_8cpp.html" target="_top" xlink:title="lib/Object/COFFModuleDefinition.cpp">
<polygon fill="none" stroke="black" points="0,-6 0,-25 179,-25 179,-6 0,-6"/>
<text text-anchor="middle" x="89.5" y="-13" font-family="Helvetica,sans-Serif" font-size="10.00">lib/Object/COFFModuleDefinition.cpp</text>
</a>
</g>
</g>
<!-- Node119&#45;&gt;Node121 -->
<g id="edge5" class="edge">
<title>Node119&#45;&gt;Node121</title>
<path fill="none" stroke="midnightblue" d="M208.99,-145.16C173.54,-139.93 130.71,-127.41 104.5,-98 86.12,-77.38 86.87,-41.84 88.4,-25.37"/>
<polygon fill="midnightblue" stroke="midnightblue" points="208.88,-148.67 219.25,-146.5 209.79,-141.73 208.88,-148.67"/>
</g>
<!-- Node122 -->
<g id="node4" class="node">
<title>Node122</title>
<g id="a_node4"><a xlink:href="DlltoolDriver_8cpp.html" target="_top" xlink:title="lib/ToolDrivers/llvm\l&#45;dlltool/DlltoolDriver.cpp">
<polygon fill="none" stroke="black" points="205,-0.5 205,-30.5 326,-30.5 326,-0.5 205,-0.5"/>
<text text-anchor="start" x="213" y="-18.5" font-family="Helvetica,sans-Serif" font-size="10.00">lib/ToolDrivers/llvm</text>
<text text-anchor="middle" x="265.5" y="-7.5" font-family="Helvetica,sans-Serif" font-size="10.00">&#45;dlltool/DlltoolDriver.cpp</text>
</a>
</g>
</g>
<!-- Node119&#45;&gt;Node122 -->
<g id="edge7" class="edge">
<title>Node119&#45;&gt;Node122</title>
<path fill="none" stroke="midnightblue" d="M268.76,-124.02C267.92,-96.51 266.6,-52.79 265.92,-30.52"/>
<polygon fill="midnightblue" stroke="midnightblue" points="265.27,-124.48 269.07,-134.37 272.27,-124.27 265.27,-124.48"/>
</g>
<!-- Node123 -->
<g id="node5" class="node">
<title>Node123</title>
<g id="a_node5"><a xlink:href="COFFImportFile_8cpp.html" target="_top" xlink:title="lib/Object/COFFImportFile.cpp">
<polygon fill="none" stroke="black" points="297.5,-73 297.5,-92 447.5,-92 447.5,-73 297.5,-73"/>
<text text-anchor="middle" x="372.5" y="-80" font-family="Helvetica,sans-Serif" font-size="10.00">lib/Object/COFFImportFile.cpp</text>
</a>
</g>
</g>
<!-- Node119&#45;&gt;Node123 -->
<g id="edge4" class="edge">
<title>Node119&#45;&gt;Node123</title>
<path fill="none" stroke="midnightblue" d="M300.44,-128.97C319.97,-116.65 344.22,-101.35 359.02,-92.01"/>
<polygon fill="midnightblue" stroke="midnightblue" points="298.44,-126.1 291.85,-134.4 302.17,-132.02 298.44,-126.1"/>
</g>
<!-- Node124 -->
<g id="node6" class="node">
<title>Node124</title>
<g id="a_node6"><a xlink:href="SymbolicFile_8cpp.html" target="_top" xlink:title="lib/Object/SymbolicFile.cpp">
<polygon fill="none" stroke="black" points="465.5,-73 465.5,-92 601.5,-92 601.5,-73 465.5,-73"/>
<text text-anchor="middle" x="533.5" y="-80" font-family="Helvetica,sans-Serif" font-size="10.00">lib/Object/SymbolicFile.cpp</text>
</a>
</g>
</g>
<!-- Node119&#45;&gt;Node124 -->
<g id="edge6" class="edge">
<title>Node119&#45;&gt;Node124</title>
<path fill="none" stroke="midnightblue" d="M329.61,-133.7C381.96,-120.81 456.01,-102.58 498.97,-92"/>
<polygon fill="midnightblue" stroke="midnightblue" points="328.65,-130.33 319.78,-136.12 330.32,-137.13 328.65,-130.33"/>
</g>
<!-- Node120&#45;&gt;Node121 -->
<g id="edge2" class="edge">
<title>Node120&#45;&gt;Node121</title>
<path fill="none" stroke="midnightblue" d="M150.16,-61.31C133.64,-49.1 113.43,-34.18 101.02,-25.01"/>
<polygon fill="midnightblue" stroke="midnightblue" points="148.28,-64.27 158.41,-67.4 152.44,-58.64 148.28,-64.27"/>
</g>
<!-- Node120&#45;&gt;Node122 -->
<g id="edge3" class="edge">
<title>Node120&#45;&gt;Node122</title>
<path fill="none" stroke="midnightblue" d="M204.64,-61.45C218.18,-51.45 234.23,-39.6 246.44,-30.58"/>
<polygon fill="midnightblue" stroke="midnightblue" points="202.56,-58.64 196.59,-67.4 206.72,-64.27 202.56,-58.64"/>
</g>
</g>
</svg>
