<?xml version="1.0" encoding="UTF-8" standalone="no"?>
<!DOCTYPE svg PUBLIC "-//W3C//DTD SVG 1.1//EN"
 "http://www.w3.org/Graphics/SVG/1.1/DTD/svg11.dtd">
<!-- Generated by graphviz version 2.43.0 (0)
 -->
<!-- Title: include/llvm/MC/ConstantPools.h Pages: 1 -->
<svg width="483pt" height="117pt"
 viewBox="0.00 0.00 482.50 117.00" xmlns="http://www.w3.org/2000/svg" xmlns:xlink="http://www.w3.org/1999/xlink">
<g id="graph0" class="graph" transform="scale(1 1) rotate(0) translate(4 113)">
<title>include/llvm/MC/ConstantPools.h</title>
<!-- Node56 -->
<g id="node1" class="node">
<title>Node56</title>
<polygon fill="#bfbfbf" stroke="black" points="161.5,-78.5 161.5,-108.5 291.5,-108.5 291.5,-78.5 161.5,-78.5"/>
<text text-anchor="start" x="169.5" y="-96.5" font-family="Helvetica,sans-Serif" font-size="10.00">include/llvm/MC/Constant</text>
<text text-anchor="middle" x="226.5" y="-85.5" font-family="Helvetica,sans-Serif" font-size="10.00">Pools.h</text>
</g>
<!-- Node57 -->
<g id="node2" class="node">
<title>Node57</title>
<g id="a_node2"><a xlink:href="ConstantPools_8cpp.html" target="_top" xlink:title="lib/MC/ConstantPools.cpp">
<polygon fill="none" stroke="black" points="0,-11.5 0,-30.5 131,-30.5 131,-11.5 0,-11.5"/>
<text text-anchor="middle" x="65.5" y="-18.5" font-family="Helvetica,sans-Serif" font-size="10.00">lib/MC/ConstantPools.cpp</text>
</a>
</g>
</g>
<!-- Node56&#45;&gt;Node57 -->
<g id="edge1" class="edge">
<title>Node56&#45;&gt;Node57</title>
<path fill="none" stroke="midnightblue" d="M185.12,-74.38C152.92,-60.28 109.69,-41.35 84.99,-30.53"/>
<polygon fill="midnightblue" stroke="midnightblue" points="183.74,-77.6 194.31,-78.4 186.55,-71.19 183.74,-77.6"/>
</g>
<!-- Node58 -->
<g id="node3" class="node">
<title>Node58</title>
<g id="a_node3"><a xlink:href="AArch64TargetStreamer_8cpp.html" target="_top" xlink:title="lib/Target/AArch64\l/MCTargetDesc/AArch64Target\lStreamer.cpp">
<polygon fill="none" stroke="black" points="149,-0.5 149,-41.5 304,-41.5 304,-0.5 149,-0.5"/>
<text text-anchor="start" x="157" y="-29.5" font-family="Helvetica,sans-Serif" font-size="10.00">lib/Target/AArch64</text>
<text text-anchor="start" x="157" y="-18.5" font-family="Helvetica,sans-Serif" font-size="10.00">/MCTargetDesc/AArch64Target</text>
<text text-anchor="middle" x="226.5" y="-7.5" font-family="Helvetica,sans-Serif" font-size="10.00">Streamer.cpp</text>
</a>
</g>
</g>
<!-- Node56&#45;&gt;Node58 -->
<g id="edge2" class="edge">
<title>Node56&#45;&gt;Node58</title>
<path fill="none" stroke="midnightblue" d="M226.5,-67.98C226.5,-59.35 226.5,-49.76 226.5,-41.59"/>
<polygon fill="midnightblue" stroke="midnightblue" points="223,-68.23 226.5,-78.23 230,-68.23 223,-68.23"/>
</g>
<!-- Node59 -->
<g id="node4" class="node">
<title>Node59</title>
<g id="a_node4"><a xlink:href="ARMTargetStreamer_8cpp.html" target="_top" xlink:title="lib/Target/ARM/MCTargetDesc\l/ARMTargetStreamer.cpp">
<polygon fill="none" stroke="black" points="322.5,-6 322.5,-36 474.5,-36 474.5,-6 322.5,-6"/>
<text text-anchor="start" x="330.5" y="-24" font-family="Helvetica,sans-Serif" font-size="10.00">lib/Target/ARM/MCTargetDesc</text>
<text text-anchor="middle" x="398.5" y="-13" font-family="Helvetica,sans-Serif" font-size="10.00">/ARMTargetStreamer.cpp</text>
</a>
</g>
</g>
<!-- Node56&#45;&gt;Node59 -->
<g id="edge3" class="edge">
<title>Node56&#45;&gt;Node59</title>
<path fill="none" stroke="midnightblue" d="M270.42,-74.5C299.55,-62.56 337.23,-47.11 364.17,-36.07"/>
<polygon fill="midnightblue" stroke="midnightblue" points="268.82,-71.37 260.89,-78.4 271.47,-77.85 268.82,-71.37"/>
</g>
</g>
</svg>
