<?xml version="1.0" encoding="UTF-8" standalone="no"?>
<!DOCTYPE svg PUBLIC "-//W3C//DTD SVG 1.1//EN"
 "http://www.w3.org/Graphics/SVG/1.1/DTD/svg11.dtd">
<!-- Generated by graphviz version 2.43.0 (0)
 -->
<!-- Title: include/llvm/Support/CRC.h Pages: 1 -->
<svg width="286pt" height="207pt"
 viewBox="0.00 0.00 285.50 207.00" xmlns="http://www.w3.org/2000/svg" xmlns:xlink="http://www.w3.org/1999/xlink">
<g id="graph0" class="graph" transform="scale(1 1) rotate(0) translate(4 203)">
<title>include/llvm/Support/CRC.h</title>
<!-- Node0 -->
<g id="node1" class="node">
<title>Node0</title>
<polygon fill="#bfbfbf" stroke="black" points="78,-168.5 78,-198.5 183,-198.5 183,-168.5 78,-168.5"/>
<text text-anchor="start" x="86" y="-186.5" font-family="Helvetica,sans-Serif" font-size="10.00">include/llvm/Support</text>
<text text-anchor="middle" x="130.5" y="-175.5" font-family="Helvetica,sans-Serif" font-size="10.00">/CRC.h</text>
</g>
<!-- Node1 -->
<g id="node2" class="node">
<title>Node1</title>
<g id="a_node2"><a xlink:href="Support_2DataTypes_8h.html" target="_top" xlink:title="llvm/Support/DataTypes.h">
<polygon fill="none" stroke="black" points="65,-112.5 65,-131.5 196,-131.5 196,-112.5 65,-112.5"/>
<text text-anchor="middle" x="130.5" y="-119.5" font-family="Helvetica,sans-Serif" font-size="10.00">llvm/Support/DataTypes.h</text>
</a>
</g>
</g>
<!-- Node0&#45;&gt;Node1 -->
<g id="edge1" class="edge">
<title>Node0&#45;&gt;Node1</title>
<path fill="none" stroke="midnightblue" d="M130.5,-168.4C130.5,-160.47 130.5,-150.46 130.5,-141.86"/>
<polygon fill="midnightblue" stroke="midnightblue" points="134,-141.66 130.5,-131.66 127,-141.66 134,-141.66"/>
</g>
<!-- Node2 -->
<g id="node3" class="node">
<title>Node2</title>
<g id="a_node3"><a xlink:href="c_2DataTypes_8h.html" target="_top" xlink:title="llvm&#45;c/DataTypes.h">
<polygon fill="none" stroke="black" points="79.5,-56.5 79.5,-75.5 181.5,-75.5 181.5,-56.5 79.5,-56.5"/>
<text text-anchor="middle" x="130.5" y="-63.5" font-family="Helvetica,sans-Serif" font-size="10.00">llvm&#45;c/DataTypes.h</text>
</a>
</g>
</g>
<!-- Node1&#45;&gt;Node2 -->
<g id="edge2" class="edge">
<title>Node1&#45;&gt;Node2</title>
<path fill="none" stroke="midnightblue" d="M130.5,-112.08C130.5,-105.01 130.5,-94.86 130.5,-85.99"/>
<polygon fill="midnightblue" stroke="midnightblue" points="134,-85.75 130.5,-75.75 127,-85.75 134,-85.75"/>
</g>
<!-- Node3 -->
<g id="node4" class="node">
<title>Node3</title>
<polygon fill="none" stroke="#bfbfbf" points="0,-0.5 0,-19.5 47,-19.5 47,-0.5 0,-0.5"/>
<text text-anchor="middle" x="23.5" y="-7.5" font-family="Helvetica,sans-Serif" font-size="10.00">math.h</text>
</g>
<!-- Node2&#45;&gt;Node3 -->
<g id="edge3" class="edge">
<title>Node2&#45;&gt;Node3</title>
<path fill="none" stroke="midnightblue" d="M113.31,-56.32C96.15,-47.66 69.55,-34.24 49.75,-24.25"/>
<polygon fill="midnightblue" stroke="midnightblue" points="51.15,-21.04 40.65,-19.65 48,-27.28 51.15,-21.04"/>
</g>
<!-- Node4 -->
<g id="node5" class="node">
<title>Node4</title>
<polygon fill="none" stroke="#bfbfbf" points="65,-0.5 65,-19.5 124,-19.5 124,-0.5 65,-0.5"/>
<text text-anchor="middle" x="94.5" y="-7.5" font-family="Helvetica,sans-Serif" font-size="10.00">inttypes.h</text>
</g>
<!-- Node2&#45;&gt;Node4 -->
<g id="edge4" class="edge">
<title>Node2&#45;&gt;Node4</title>
<path fill="none" stroke="midnightblue" d="M124.56,-56.08C119.52,-48.53 112.16,-37.49 105.99,-28.23"/>
<polygon fill="midnightblue" stroke="midnightblue" points="108.79,-26.13 100.33,-19.75 102.97,-30.01 108.79,-26.13"/>
</g>
<!-- Node5 -->
<g id="node6" class="node">
<title>Node5</title>
<polygon fill="none" stroke="#bfbfbf" points="142,-0.5 142,-19.5 191,-19.5 191,-0.5 142,-0.5"/>
<text text-anchor="middle" x="166.5" y="-7.5" font-family="Helvetica,sans-Serif" font-size="10.00">stdint.h</text>
</g>
<!-- Node2&#45;&gt;Node5 -->
<g id="edge5" class="edge">
<title>Node2&#45;&gt;Node5</title>
<path fill="none" stroke="midnightblue" d="M136.44,-56.08C141.48,-48.53 148.84,-37.49 155.01,-28.23"/>
<polygon fill="midnightblue" stroke="midnightblue" points="158.03,-30.01 160.67,-19.75 152.21,-26.13 158.03,-30.01"/>
</g>
<!-- Node6 -->
<g id="node7" class="node">
<title>Node6</title>
<polygon fill="none" stroke="#bfbfbf" points="209.5,-0.5 209.5,-19.5 277.5,-19.5 277.5,-0.5 209.5,-0.5"/>
<text text-anchor="middle" x="243.5" y="-7.5" font-family="Helvetica,sans-Serif" font-size="10.00">sys/types.h</text>
</g>
<!-- Node2&#45;&gt;Node6 -->
<g id="edge6" class="edge">
<title>Node2&#45;&gt;Node6</title>
<path fill="none" stroke="midnightblue" d="M148.41,-56.44C166.75,-47.68 195.51,-33.94 216.59,-23.86"/>
<polygon fill="midnightblue" stroke="midnightblue" points="218.17,-26.99 225.68,-19.52 215.15,-20.67 218.17,-26.99"/>
</g>
</g>
</svg>
