<?xml version="1.0" encoding="UTF-8" standalone="no"?>
<!DOCTYPE svg PUBLIC "-//W3C//DTD SVG 1.1//EN"
 "http://www.w3.org/Graphics/SVG/1.1/DTD/svg11.dtd">
<!-- Generated by graphviz version 2.43.0 (0)
 -->
<!-- Title: include/llvm/Transforms/Utils/CtorUtils.h Pages: 1 -->
<svg width="345pt" height="106pt"
 viewBox="0.00 0.00 344.50 106.00" xmlns="http://www.w3.org/2000/svg" xmlns:xlink="http://www.w3.org/1999/xlink">
<g id="graph0" class="graph" transform="scale(1 1) rotate(0) translate(4 102)">
<title>include/llvm/Transforms/Utils/CtorUtils.h</title>
<!-- Node27 -->
<g id="node1" class="node">
<title>Node27</title>
<polygon fill="#bfbfbf" stroke="black" points="106,-67.5 106,-97.5 227,-97.5 227,-67.5 106,-67.5"/>
<text text-anchor="start" x="114" y="-85.5" font-family="Helvetica,sans-Serif" font-size="10.00">include/llvm/Transforms</text>
<text text-anchor="middle" x="166.5" y="-74.5" font-family="Helvetica,sans-Serif" font-size="10.00">/Utils/CtorUtils.h</text>
</g>
<!-- Node28 -->
<g id="node2" class="node">
<title>Node28</title>
<g id="a_node2"><a xlink:href="GlobalDCE_8cpp.html" target="_top" xlink:title="lib/Transforms/IPO\l/GlobalDCE.cpp">
<polygon fill="none" stroke="black" points="0,-0.5 0,-30.5 99,-30.5 99,-0.5 0,-0.5"/>
<text text-anchor="start" x="8" y="-18.5" font-family="Helvetica,sans-Serif" font-size="10.00">lib/Transforms/IPO</text>
<text text-anchor="middle" x="49.5" y="-7.5" font-family="Helvetica,sans-Serif" font-size="10.00">/GlobalDCE.cpp</text>
</a>
</g>
</g>
<!-- Node27&#45;&gt;Node28 -->
<g id="edge1" class="edge">
<title>Node27&#45;&gt;Node28</title>
<path fill="none" stroke="midnightblue" d="M132.18,-62.44C113.83,-52.24 91.62,-39.9 74.84,-30.58"/>
<polygon fill="midnightblue" stroke="midnightblue" points="130.67,-65.6 141.11,-67.4 134.07,-59.48 130.67,-65.6"/>
</g>
<!-- Node29 -->
<g id="node3" class="node">
<title>Node29</title>
<g id="a_node3"><a xlink:href="GlobalOpt_8cpp.html" target="_top" xlink:title="lib/Transforms/IPO\l/GlobalOpt.cpp">
<polygon fill="none" stroke="black" points="117,-0.5 117,-30.5 216,-30.5 216,-0.5 117,-0.5"/>
<text text-anchor="start" x="125" y="-18.5" font-family="Helvetica,sans-Serif" font-size="10.00">lib/Transforms/IPO</text>
<text text-anchor="middle" x="166.5" y="-7.5" font-family="Helvetica,sans-Serif" font-size="10.00">/GlobalOpt.cpp</text>
</a>
</g>
</g>
<!-- Node27&#45;&gt;Node29 -->
<g id="edge2" class="edge">
<title>Node27&#45;&gt;Node29</title>
<path fill="none" stroke="midnightblue" d="M166.5,-57.11C166.5,-48.15 166.5,-38.32 166.5,-30.58"/>
<polygon fill="midnightblue" stroke="midnightblue" points="163,-57.4 166.5,-67.4 170,-57.4 163,-57.4"/>
</g>
<!-- Node30 -->
<g id="node4" class="node">
<title>Node30</title>
<g id="a_node4"><a xlink:href="CtorUtils_8cpp.html" target="_top" xlink:title="lib/Transforms/Utils\l/CtorUtils.cpp">
<polygon fill="none" stroke="black" points="234.5,-0.5 234.5,-30.5 336.5,-30.5 336.5,-0.5 234.5,-0.5"/>
<text text-anchor="start" x="242.5" y="-18.5" font-family="Helvetica,sans-Serif" font-size="10.00">lib/Transforms/Utils</text>
<text text-anchor="middle" x="285.5" y="-7.5" font-family="Helvetica,sans-Serif" font-size="10.00">/CtorUtils.cpp</text>
</a>
</g>
</g>
<!-- Node27&#45;&gt;Node30 -->
<g id="edge3" class="edge">
<title>Node27&#45;&gt;Node30</title>
<path fill="none" stroke="midnightblue" d="M201.15,-62.57C219.87,-52.35 242.59,-39.94 259.73,-30.58"/>
<polygon fill="midnightblue" stroke="midnightblue" points="199.42,-59.53 192.32,-67.4 202.78,-65.67 199.42,-59.53"/>
</g>
</g>
</svg>
