<?xml version="1.0" encoding="UTF-8" standalone="no"?>
<!DOCTYPE svg PUBLIC "-//W3C//DTD SVG 1.1//EN"
 "http://www.w3.org/Graphics/SVG/1.1/DTD/svg11.dtd">
<!-- Generated by graphviz version 2.43.0 (0)
 -->
<!-- Title: include/llvm/DebugInfo/CodeView/DebugFrameDataSubsection.h Pages: 1 -->
<svg width="4382pt" height="777pt"
 viewBox="0.00 0.00 4382.16 777.00" xmlns="http://www.w3.org/2000/svg" xmlns:xlink="http://www.w3.org/1999/xlink">
<g id="graph0" class="graph" transform="scale(1 1) rotate(0) translate(4 773)">
<title>include/llvm/DebugInfo/CodeView/DebugFrameDataSubsection.h</title>
<!-- Node0 -->
<g id="node1" class="node">
<title>Node0</title>
<polygon fill="#bfbfbf" stroke="black" points="586.16,-738.5 586.16,-768.5 788.16,-768.5 788.16,-738.5 586.16,-738.5"/>
<text text-anchor="start" x="594.16" y="-756.5" font-family="Helvetica,sans-Serif" font-size="10.00">include/llvm/DebugInfo</text>
<text text-anchor="middle" x="687.16" y="-745.5" font-family="Helvetica,sans-Serif" font-size="10.00">/CodeView/DebugFrameDataSubsection.h</text>
</g>
<!-- Node1 -->
<g id="node2" class="node">
<title>Node1</title>
<g id="a_node2"><a xlink:href="CodeView_8h.html" target="_top" xlink:title="llvm/DebugInfo/CodeView\l/CodeView.h">
<polygon fill="none" stroke="black" points="357.66,-224.5 357.66,-254.5 488.66,-254.5 488.66,-224.5 357.66,-224.5"/>
<text text-anchor="start" x="365.66" y="-242.5" font-family="Helvetica,sans-Serif" font-size="10.00">llvm/DebugInfo/CodeView</text>
<text text-anchor="middle" x="423.16" y="-231.5" font-family="Helvetica,sans-Serif" font-size="10.00">/CodeView.h</text>
</a>
</g>
</g>
<!-- Node0&#45;&gt;Node1 -->
<g id="edge1" class="edge">
<title>Node0&#45;&gt;Node1</title>
<path fill="none" stroke="midnightblue" d="M585.83,-742.72C510.66,-729.21 421.16,-697.06 421.16,-620.5 421.16,-620.5 421.16,-620.5 421.16,-356 421.16,-324.49 421.91,-288.15 422.49,-264.78"/>
<polygon fill="midnightblue" stroke="midnightblue" points="425.99,-264.81 422.75,-254.72 418.99,-264.63 425.99,-264.81"/>
</g>
<!-- Node4 -->
<g id="node5" class="node">
<title>Node4</title>
<g id="a_node5"><a xlink:href="Endian_8h.html" target="_top" xlink:title="llvm/Support/Endian.h">
<polygon fill="none" stroke="black" points="1347.66,-168.5 1347.66,-187.5 1460.66,-187.5 1460.66,-168.5 1347.66,-168.5"/>
<text text-anchor="middle" x="1404.16" y="-175.5" font-family="Helvetica,sans-Serif" font-size="10.00">llvm/Support/Endian.h</text>
</a>
</g>
</g>
<!-- Node0&#45;&gt;Node4 -->
<g id="edge188" class="edge">
<title>Node0&#45;&gt;Node4</title>
<path fill="none" stroke="midnightblue" d="M688.65,-738.22C695.91,-676.07 732.84,-426.3 869.16,-291 909.51,-250.94 924.33,-242.33 978.16,-224 1011.27,-212.73 1225.77,-193.72 1337.18,-184.43"/>
<polygon fill="midnightblue" stroke="midnightblue" points="1337.63,-187.91 1347.31,-183.59 1337.05,-180.93 1337.63,-187.91"/>
</g>
<!-- Node54 -->
<g id="node18" class="node">
<title>Node54</title>
<g id="a_node18"><a xlink:href="DebugSubsection_8h.html" target="_top" xlink:title="llvm/DebugInfo/CodeView\l/DebugSubsection.h">
<polygon fill="none" stroke="black" points="488.66,-671.5 488.66,-701.5 619.66,-701.5 619.66,-671.5 488.66,-671.5"/>
<text text-anchor="start" x="496.66" y="-689.5" font-family="Helvetica,sans-Serif" font-size="10.00">llvm/DebugInfo/CodeView</text>
<text text-anchor="middle" x="554.16" y="-678.5" font-family="Helvetica,sans-Serif" font-size="10.00">/DebugSubsection.h</text>
</a>
</g>
</g>
<!-- Node0&#45;&gt;Node54 -->
<g id="edge23" class="edge">
<title>Node0&#45;&gt;Node54</title>
<path fill="none" stroke="midnightblue" d="M658.3,-738.4C638.86,-728.9 613.04,-716.28 591.96,-705.98"/>
<polygon fill="midnightblue" stroke="midnightblue" points="593.48,-702.82 582.96,-701.58 590.41,-709.11 593.48,-702.82"/>
</g>
<!-- Node65 -->
<g id="node39" class="node">
<title>Node65</title>
<g id="a_node39"><a xlink:href="Support_2Error_8h.html" target="_top" xlink:title="llvm/Support/Error.h">
<polygon fill="none" stroke="black" points="3027.16,-347.5 3027.16,-366.5 3131.16,-366.5 3131.16,-347.5 3027.16,-347.5"/>
<text text-anchor="middle" x="3079.16" y="-354.5" font-family="Helvetica,sans-Serif" font-size="10.00">llvm/Support/Error.h</text>
</a>
</g>
</g>
<!-- Node0&#45;&gt;Node65 -->
<g id="edge189" class="edge">
<title>Node0&#45;&gt;Node65</title>
<path fill="none" stroke="midnightblue" d="M788.44,-752.77C1290.22,-753.27 3495.25,-745.3 3738.16,-568 3797.39,-524.77 3797.22,-446.46 3738.16,-403 3690.81,-368.16 3296.56,-360.26 3141.47,-358.5"/>
<polygon fill="midnightblue" stroke="midnightblue" points="3141.21,-354.99 3131.17,-358.39 3141.13,-361.99 3141.21,-354.99"/>
</g>
<!-- Node78 -->
<g id="node49" class="node">
<title>Node78</title>
<g id="a_node49"><a xlink:href="BinaryStreamReader_8h.html" target="_top" xlink:title="llvm/Support/BinaryStream\lReader.h">
<polygon fill="none" stroke="black" points="2164.16,-604.5 2164.16,-634.5 2298.16,-634.5 2298.16,-604.5 2164.16,-604.5"/>
<text text-anchor="start" x="2172.16" y="-622.5" font-family="Helvetica,sans-Serif" font-size="10.00">llvm/Support/BinaryStream</text>
<text text-anchor="middle" x="2231.16" y="-611.5" font-family="Helvetica,sans-Serif" font-size="10.00">Reader.h</text>
</a>
</g>
</g>
<!-- Node0&#45;&gt;Node78 -->
<g id="edge174" class="edge">
<title>Node0&#45;&gt;Node78</title>
<path fill="none" stroke="midnightblue" d="M788.16,-743.86C1076.23,-719.24 1897.48,-649.03 2153.78,-627.12"/>
<polygon fill="midnightblue" stroke="midnightblue" points="2154.44,-630.57 2164.11,-626.23 2153.85,-623.6 2154.44,-630.57"/>
</g>
<!-- Node2 -->
<g id="node3" class="node">
<title>Node2</title>
<polygon fill="none" stroke="#bfbfbf" points="410.16,-168.5 410.16,-187.5 466.16,-187.5 466.16,-168.5 410.16,-168.5"/>
<text text-anchor="middle" x="438.16" y="-175.5" font-family="Helvetica,sans-Serif" font-size="10.00">cinttypes</text>
</g>
<!-- Node1&#45;&gt;Node2 -->
<g id="edge2" class="edge">
<title>Node1&#45;&gt;Node2</title>
<path fill="none" stroke="midnightblue" d="M426.71,-224.4C428.73,-216.38 431.29,-206.23 433.47,-197.57"/>
<polygon fill="midnightblue" stroke="midnightblue" points="436.92,-198.21 435.97,-187.66 430.13,-196.5 436.92,-198.21"/>
</g>
<!-- Node3 -->
<g id="node4" class="node">
<title>Node3</title>
<polygon fill="none" stroke="#bfbfbf" points="1071.16,-56.5 1071.16,-75.5 1133.16,-75.5 1133.16,-56.5 1071.16,-56.5"/>
<text text-anchor="middle" x="1102.16" y="-63.5" font-family="Helvetica,sans-Serif" font-size="10.00">type_traits</text>
</g>
<!-- Node1&#45;&gt;Node3 -->
<g id="edge3" class="edge">
<title>Node1&#45;&gt;Node3</title>
<path fill="none" stroke="midnightblue" d="M437.92,-224.21C471.8,-191.46 552.48,-113.65 556.16,-112 646.34,-71.59 949.86,-67.13 1060.96,-66.89"/>
<polygon fill="midnightblue" stroke="midnightblue" points="1061.11,-70.39 1071.1,-66.88 1061.1,-63.39 1061.11,-70.39"/>
</g>
<!-- Node1&#45;&gt;Node4 -->
<g id="edge4" class="edge">
<title>Node1&#45;&gt;Node4</title>
<path fill="none" stroke="midnightblue" d="M488.66,-234.53C666.68,-223.73 1158,-193.93 1337.43,-183.05"/>
<polygon fill="midnightblue" stroke="midnightblue" points="1337.76,-186.53 1347.53,-182.43 1337.33,-179.55 1337.76,-186.53"/>
</g>
<!-- Node51 -->
<g id="node15" class="node">
<title>Node51</title>
<polygon fill="none" stroke="#bfbfbf" points="14.66,-168.5 14.66,-187.5 119.66,-187.5 119.66,-168.5 14.66,-168.5"/>
<text text-anchor="middle" x="67.16" y="-175.5" font-family="Helvetica,sans-Serif" font-size="10.00">CodeViewTypes.def</text>
</g>
<!-- Node1&#45;&gt;Node51 -->
<g id="edge20" class="edge">
<title>Node1&#45;&gt;Node51</title>
<path fill="none" stroke="midnightblue" d="M357.44,-227.52C291.84,-216.55 191.85,-199.84 128.01,-189.17"/>
<polygon fill="midnightblue" stroke="midnightblue" points="128.53,-185.71 118.08,-187.51 127.37,-192.61 128.53,-185.71"/>
</g>
<!-- Node52 -->
<g id="node16" class="node">
<title>Node52</title>
<polygon fill="none" stroke="#bfbfbf" points="138.16,-168.5 138.16,-187.5 254.16,-187.5 254.16,-168.5 138.16,-168.5"/>
<text text-anchor="middle" x="196.16" y="-175.5" font-family="Helvetica,sans-Serif" font-size="10.00">CodeViewSymbols.def</text>
</g>
<!-- Node1&#45;&gt;Node52 -->
<g id="edge21" class="edge">
<title>Node1&#45;&gt;Node52</title>
<path fill="none" stroke="midnightblue" d="M369.65,-224.47C329.63,-213.99 275.65,-199.84 238.59,-190.12"/>
<polygon fill="midnightblue" stroke="midnightblue" points="239.17,-186.66 228.61,-187.51 237.39,-193.43 239.17,-186.66"/>
</g>
<!-- Node53 -->
<g id="node17" class="node">
<title>Node53</title>
<polygon fill="none" stroke="#bfbfbf" points="272.16,-168.5 272.16,-187.5 392.16,-187.5 392.16,-168.5 272.16,-168.5"/>
<text text-anchor="middle" x="332.16" y="-175.5" font-family="Helvetica,sans-Serif" font-size="10.00">CodeViewRegisters.def</text>
</g>
<!-- Node1&#45;&gt;Node53 -->
<g id="edge22" class="edge">
<title>Node1&#45;&gt;Node53</title>
<path fill="none" stroke="midnightblue" d="M401.59,-224.4C387.28,-215.04 368.54,-202.79 354.14,-193.38"/>
<polygon fill="midnightblue" stroke="midnightblue" points="355.68,-190.2 345.4,-187.66 351.85,-196.06 355.68,-190.2"/>
</g>
<!-- Node4&#45;&gt;Node3 -->
<g id="edge19" class="edge">
<title>Node4&#45;&gt;Node3</title>
<path fill="none" stroke="midnightblue" d="M1347.58,-174.47C1276.29,-170.17 1159.09,-159.11 1126.16,-132 1112.39,-120.67 1106.52,-100.67 1104.02,-85.84"/>
<polygon fill="midnightblue" stroke="midnightblue" points="1107.46,-85.19 1102.68,-75.73 1100.52,-86.1 1107.46,-85.19"/>
</g>
<!-- Node5 -->
<g id="node6" class="node">
<title>Node5</title>
<g id="a_node6"><a xlink:href="AlignOf_8h.html" target="_top" xlink:title="llvm/Support/AlignOf.h">
<polygon fill="none" stroke="black" points="1986.66,-112.5 1986.66,-131.5 2101.66,-131.5 2101.66,-112.5 1986.66,-112.5"/>
<text text-anchor="middle" x="2044.16" y="-119.5" font-family="Helvetica,sans-Serif" font-size="10.00">llvm/Support/AlignOf.h</text>
</a>
</g>
</g>
<!-- Node4&#45;&gt;Node5 -->
<g id="edge5" class="edge">
<title>Node4&#45;&gt;Node5</title>
<path fill="none" stroke="midnightblue" d="M1460.67,-172.23C1578.45,-162.29 1849.72,-139.41 1976.53,-128.71"/>
<polygon fill="midnightblue" stroke="midnightblue" points="1976.83,-132.19 1986.5,-127.86 1976.24,-125.22 1976.83,-132.19"/>
</g>
<!-- Node6 -->
<g id="node7" class="node">
<title>Node6</title>
<g id="a_node7"><a xlink:href="Compiler_8h.html" target="_top" xlink:title="llvm/Support/Compiler.h">
<polygon fill="none" stroke="red" points="1373.16,-0.5 1373.16,-19.5 1495.16,-19.5 1495.16,-0.5 1373.16,-0.5"/>
<text text-anchor="middle" x="1434.16" y="-7.5" font-family="Helvetica,sans-Serif" font-size="10.00">llvm/Support/Compiler.h</text>
</a>
</g>
</g>
<!-- Node4&#45;&gt;Node6 -->
<g id="edge8" class="edge">
<title>Node4&#45;&gt;Node6</title>
<path fill="none" stroke="midnightblue" d="M1347.59,-175.59C1230.53,-170.78 979.23,-149.56 1062.16,-56 1081.71,-33.94 1260.1,-20.56 1362.57,-14.62"/>
<polygon fill="midnightblue" stroke="midnightblue" points="1363.07,-18.1 1372.85,-14.04 1362.67,-11.11 1363.07,-18.1"/>
</g>
<!-- Node9 -->
<g id="node8" class="node">
<title>Node9</title>
<polygon fill="none" stroke="#bfbfbf" points="2219.66,-56.5 2219.66,-75.5 2268.66,-75.5 2268.66,-56.5 2219.66,-56.5"/>
<text text-anchor="middle" x="2244.16" y="-63.5" font-family="Helvetica,sans-Serif" font-size="10.00">cstddef</text>
</g>
<!-- Node4&#45;&gt;Node9 -->
<g id="edge16" class="edge">
<title>Node4&#45;&gt;Node9</title>
<path fill="none" stroke="midnightblue" d="M1460.9,-169.57C1622.04,-148.47 2079.12,-88.61 2209.21,-71.58"/>
<polygon fill="midnightblue" stroke="midnightblue" points="2209.94,-75.01 2219.4,-70.24 2209.03,-68.07 2209.94,-75.01"/>
</g>
<!-- Node10 -->
<g id="node9" class="node">
<title>Node10</title>
<g id="a_node9"><a xlink:href="Host_8h.html" target="_top" xlink:title="llvm/Support/Host.h">
<polygon fill="none" stroke="red" points="1352.16,-112.5 1352.16,-131.5 1456.16,-131.5 1456.16,-112.5 1352.16,-112.5"/>
<text text-anchor="middle" x="1404.16" y="-119.5" font-family="Helvetica,sans-Serif" font-size="10.00">llvm/Support/Host.h</text>
</a>
</g>
</g>
<!-- Node4&#45;&gt;Node10 -->
<g id="edge9" class="edge">
<title>Node4&#45;&gt;Node10</title>
<path fill="none" stroke="midnightblue" d="M1404.16,-168.08C1404.16,-161.01 1404.16,-150.86 1404.16,-141.99"/>
<polygon fill="midnightblue" stroke="midnightblue" points="1407.66,-141.75 1404.16,-131.75 1400.66,-141.75 1407.66,-141.75"/>
</g>
<!-- Node38 -->
<g id="node11" class="node">
<title>Node38</title>
<g id="a_node11"><a xlink:href="SwapByteOrder_8h.html" target="_top" xlink:title="llvm/Support/SwapByteOrder.h">
<polygon fill="none" stroke="red" points="1474.16,-112.5 1474.16,-131.5 1626.16,-131.5 1626.16,-112.5 1474.16,-112.5"/>
<text text-anchor="middle" x="1550.16" y="-119.5" font-family="Helvetica,sans-Serif" font-size="10.00">llvm/Support/SwapByteOrder.h</text>
</a>
</g>
</g>
<!-- Node4&#45;&gt;Node38 -->
<g id="edge11" class="edge">
<title>Node4&#45;&gt;Node38</title>
<path fill="none" stroke="midnightblue" d="M1427.29,-168.44C1451.64,-159.44 1490.16,-145.19 1517.58,-135.05"/>
<polygon fill="midnightblue" stroke="midnightblue" points="1518.96,-138.27 1527.13,-131.52 1516.54,-131.7 1518.96,-138.27"/>
</g>
<!-- Node18 -->
<g id="node12" class="node">
<title>Node18</title>
<polygon fill="none" stroke="#bfbfbf" points="3237.66,-56.5 3237.66,-75.5 3286.66,-75.5 3286.66,-56.5 3237.66,-56.5"/>
<text text-anchor="middle" x="3262.16" y="-63.5" font-family="Helvetica,sans-Serif" font-size="10.00">cassert</text>
</g>
<!-- Node4&#45;&gt;Node18 -->
<g id="edge15" class="edge">
<title>Node4&#45;&gt;Node18</title>
<path fill="none" stroke="midnightblue" d="M1460.76,-171.83C1543.68,-164.11 1703.02,-148.65 1838.16,-132 1900.54,-124.31 1915.55,-117.55 1978.16,-112 2105.52,-100.7 3034.78,-73.54 3227.3,-68"/>
<polygon fill="midnightblue" stroke="midnightblue" points="3227.52,-71.49 3237.42,-67.71 3227.32,-64.5 3227.52,-71.49"/>
</g>
<!-- Node28 -->
<g id="node13" class="node">
<title>Node28</title>
<polygon fill="none" stroke="#bfbfbf" points="674.16,-56.5 674.16,-75.5 720.16,-75.5 720.16,-56.5 674.16,-56.5"/>
<text text-anchor="middle" x="697.16" y="-63.5" font-family="Helvetica,sans-Serif" font-size="10.00">cstdint</text>
</g>
<!-- Node4&#45;&gt;Node28 -->
<g id="edge17" class="edge">
<title>Node4&#45;&gt;Node28</title>
<path fill="none" stroke="midnightblue" d="M1347.54,-174.66C1259.11,-170.31 1083.1,-158.85 936.16,-132 896.33,-124.72 785.81,-92.99 730.12,-76.71"/>
<polygon fill="midnightblue" stroke="midnightblue" points="730.97,-73.31 720.39,-73.86 729,-80.03 730.97,-73.31"/>
</g>
<!-- Node34 -->
<g id="node14" class="node">
<title>Node34</title>
<polygon fill="none" stroke="#bfbfbf" points="2462.16,-112.5 2462.16,-131.5 2508.16,-131.5 2508.16,-112.5 2462.16,-112.5"/>
<text text-anchor="middle" x="2485.16" y="-119.5" font-family="Helvetica,sans-Serif" font-size="10.00">cstring</text>
</g>
<!-- Node4&#45;&gt;Node34 -->
<g id="edge18" class="edge">
<title>Node4&#45;&gt;Node34</title>
<path fill="none" stroke="midnightblue" d="M1460.75,-174.17C1655.9,-164.42 2297.19,-132.39 2451.53,-124.68"/>
<polygon fill="midnightblue" stroke="midnightblue" points="2451.97,-128.16 2461.79,-124.17 2451.62,-121.17 2451.97,-128.16"/>
</g>
<!-- Node5&#45;&gt;Node6 -->
<g id="edge6" class="edge">
<title>Node5&#45;&gt;Node6</title>
<path fill="none" stroke="midnightblue" d="M2037.76,-112.34C2026.42,-97.74 2001.21,-68.59 1972.16,-56 1890.28,-20.52 1632.6,-12.93 1505.91,-11.36"/>
<polygon fill="midnightblue" stroke="midnightblue" points="1505.58,-7.86 1495.54,-11.24 1505.5,-14.86 1505.58,-7.86"/>
</g>
<!-- Node5&#45;&gt;Node9 -->
<g id="edge7" class="edge">
<title>Node5&#45;&gt;Node9</title>
<path fill="none" stroke="midnightblue" d="M2075.85,-112.44C2112.29,-102.6 2171.93,-86.5 2209.56,-76.34"/>
<polygon fill="midnightblue" stroke="midnightblue" points="2210.81,-79.63 2219.55,-73.64 2208.98,-72.87 2210.81,-79.63"/>
</g>
<!-- Node27 -->
<g id="node10" class="node">
<title>Node27</title>
<polygon fill="none" stroke="#bfbfbf" points="3177.66,-0.5 3177.66,-19.5 3218.66,-19.5 3218.66,-0.5 3177.66,-0.5"/>
<text text-anchor="middle" x="3198.16" y="-7.5" font-family="Helvetica,sans-Serif" font-size="10.00">string</text>
</g>
<!-- Node10&#45;&gt;Node27 -->
<g id="edge10" class="edge">
<title>Node10&#45;&gt;Node27</title>
<path fill="none" stroke="midnightblue" d="M1431.81,-112.46C1480.86,-97.76 1586.55,-68.09 1678.16,-56 1981.12,-16 2979.18,-11.55 3167.39,-11.06"/>
<polygon fill="midnightblue" stroke="midnightblue" points="3167.44,-14.56 3177.43,-11.03 3167.42,-7.56 3167.44,-14.56"/>
</g>
<!-- Node38&#45;&gt;Node3 -->
<g id="edge14" class="edge">
<title>Node38&#45;&gt;Node3</title>
<path fill="none" stroke="midnightblue" d="M1479.17,-112.44C1384.56,-101.04 1220.19,-81.23 1143.62,-72"/>
<polygon fill="midnightblue" stroke="midnightblue" points="1143.76,-68.49 1133.42,-70.77 1142.92,-75.44 1143.76,-68.49"/>
</g>
<!-- Node38&#45;&gt;Node6 -->
<g id="edge12" class="edge">
<title>Node38&#45;&gt;Node6</title>
<path fill="none" stroke="midnightblue" d="M1541.05,-112.37C1521.57,-93.89 1475.59,-50.29 1450.76,-26.74"/>
<polygon fill="midnightblue" stroke="midnightblue" points="1452.88,-23.93 1443.22,-19.59 1448.06,-29.01 1452.88,-23.93"/>
</g>
<!-- Node38&#45;&gt;Node9 -->
<g id="edge13" class="edge">
<title>Node38&#45;&gt;Node9</title>
<path fill="none" stroke="midnightblue" d="M1626.41,-115.07C1775.86,-103.44 2102.03,-78.06 2209.24,-69.72"/>
<polygon fill="midnightblue" stroke="midnightblue" points="2209.79,-73.18 2219.49,-68.92 2209.25,-66.21 2209.79,-73.18"/>
</g>
<!-- Node54&#45;&gt;Node1 -->
<g id="edge24" class="edge">
<title>Node54&#45;&gt;Node1</title>
<path fill="none" stroke="midnightblue" d="M526.03,-671.46C511.32,-662.8 494.13,-650.39 483.16,-635 461.23,-604.26 459.16,-591.26 459.16,-553.5 459.16,-553.5 459.16,-553.5 459.16,-356 459.16,-322.88 445.5,-286.75 435.01,-263.87"/>
<polygon fill="midnightblue" stroke="midnightblue" points="438.07,-262.17 430.61,-254.64 431.75,-265.18 438.07,-262.17"/>
</g>
<!-- Node55 -->
<g id="node19" class="node">
<title>Node55</title>
<g id="a_node19"><a xlink:href="BinaryStreamWriter_8h.html" target="_top" xlink:title="llvm/Support/BinaryStream\lWriter.h">
<polygon fill="none" stroke="black" points="1530.16,-604.5 1530.16,-634.5 1664.16,-634.5 1664.16,-604.5 1530.16,-604.5"/>
<text text-anchor="start" x="1538.16" y="-622.5" font-family="Helvetica,sans-Serif" font-size="10.00">llvm/Support/BinaryStream</text>
<text text-anchor="middle" x="1597.16" y="-611.5" font-family="Helvetica,sans-Serif" font-size="10.00">Writer.h</text>
</a>
</g>
</g>
<!-- Node54&#45;&gt;Node55 -->
<g id="edge25" class="edge">
<title>Node54&#45;&gt;Node55</title>
<path fill="none" stroke="midnightblue" d="M619.8,-681.41C803.62,-669.95 1322.93,-637.59 1520.01,-625.31"/>
<polygon fill="midnightblue" stroke="midnightblue" points="1520.23,-628.8 1529.99,-624.69 1519.79,-621.81 1520.23,-628.8"/>
</g>
<!-- Node77 -->
<g id="node48" class="node">
<title>Node77</title>
<g id="a_node48"><a xlink:href="Casting_8h.html" target="_top" xlink:title="llvm/Support/Casting.h">
<polygon fill="none" stroke="black" points="978.16,-168.5 978.16,-187.5 1094.16,-187.5 1094.16,-168.5 978.16,-168.5"/>
<text text-anchor="middle" x="1036.16" y="-175.5" font-family="Helvetica,sans-Serif" font-size="10.00">llvm/Support/Casting.h</text>
</a>
</g>
</g>
<!-- Node54&#45;&gt;Node77 -->
<g id="edge168" class="edge">
<title>Node54&#45;&gt;Node77</title>
<path fill="none" stroke="midnightblue" d="M543.43,-671.33C526.92,-648.05 497.16,-599.68 497.16,-553.5 497.16,-553.5 497.16,-553.5 497.16,-356 497.16,-230.74 627.29,-263.48 746.16,-224 819.75,-199.56 908.33,-188.27 968.08,-183.14"/>
<polygon fill="midnightblue" stroke="midnightblue" points="968.47,-186.62 978.15,-182.31 967.89,-179.64 968.47,-186.62"/>
</g>
<!-- Node55&#45;&gt;Node3 -->
<g id="edge166" class="edge">
<title>Node55&#45;&gt;Node3</title>
<path fill="none" stroke="midnightblue" d="M1530.02,-619.37C1339.38,-620.44 800.28,-613.26 673.16,-501 644.85,-476.01 649.16,-457.26 649.16,-419.5 649.16,-419.5 649.16,-419.5 649.16,-356 649.16,-244.43 612.7,-169.76 708.16,-112 766.74,-76.55 972.16,-69.02 1060.86,-67.43"/>
<polygon fill="midnightblue" stroke="midnightblue" points="1061.14,-70.92 1071.08,-67.26 1061.02,-63.92 1061.14,-70.92"/>
</g>
<!-- Node55&#45;&gt;Node4 -->
<g id="edge163" class="edge">
<title>Node55&#45;&gt;Node4</title>
<path fill="none" stroke="midnightblue" d="M1530.02,-611.97C1364.78,-594.36 945.77,-539.95 863.16,-434 731.13,-264.68 1165.34,-202.52 1337.2,-184.88"/>
<polygon fill="midnightblue" stroke="midnightblue" points="1337.8,-188.34 1347.4,-183.85 1337.09,-181.37 1337.8,-188.34"/>
</g>
<!-- Node55&#45;&gt;Node28 -->
<g id="edge165" class="edge">
<title>Node55&#45;&gt;Node28</title>
<path fill="none" stroke="midnightblue" d="M1530.09,-618.15C1354.08,-616.67 882.19,-608.88 732.16,-568 655.54,-547.13 573.16,-565.91 573.16,-486.5 573.16,-486.5 573.16,-486.5 573.16,-356 573.16,-246.99 527.68,-195.17 598.16,-112 615.01,-92.1 642.5,-80.58 664.24,-74.18"/>
<polygon fill="midnightblue" stroke="midnightblue" points="665.33,-77.51 674.07,-71.52 663.5,-70.75 665.33,-77.51"/>
</g>
<!-- Node56 -->
<g id="node20" class="node">
<title>Node56</title>
<g id="a_node20"><a xlink:href="ArrayRef_8h.html" target="_top" xlink:title="llvm/ADT/ArrayRef.h">
<polygon fill="none" stroke="red" points="2190.16,-230 2190.16,-249 2298.16,-249 2298.16,-230 2190.16,-230"/>
<text text-anchor="middle" x="2244.16" y="-237" font-family="Helvetica,sans-Serif" font-size="10.00">llvm/ADT/ArrayRef.h</text>
</a>
</g>
</g>
<!-- Node55&#45;&gt;Node56 -->
<g id="edge26" class="edge">
<title>Node55&#45;&gt;Node56</title>
<path fill="none" stroke="midnightblue" d="M1591.86,-604.23C1586.52,-587.86 1579.77,-560.27 1585.16,-537 1613.15,-416.12 1610.04,-353.62 1717.16,-291 1794.14,-246 2057.2,-240.2 2180.02,-240.03"/>
<polygon fill="midnightblue" stroke="midnightblue" points="2180.04,-243.53 2190.04,-240.03 2180.04,-236.53 2180.04,-243.53"/>
</g>
<!-- Node17 -->
<g id="node24" class="node">
<title>Node17</title>
<polygon fill="none" stroke="#bfbfbf" points="3616.16,-56.5 3616.16,-75.5 3656.16,-75.5 3656.16,-56.5 3616.16,-56.5"/>
<text text-anchor="middle" x="3636.16" y="-63.5" font-family="Helvetica,sans-Serif" font-size="10.00">utility</text>
</g>
<!-- Node55&#45;&gt;Node17 -->
<g id="edge167" class="edge">
<title>Node55&#45;&gt;Node17</title>
<path fill="none" stroke="midnightblue" d="M1664.21,-616.6C1883.44,-610.23 2577.75,-588.9 2801.16,-568 3390.16,-512.9 3533.16,-454.16 4107.16,-311 4210.48,-285.23 4336.16,-346.99 4336.16,-240.5 4336.16,-240.5 4336.16,-240.5 4336.16,-177 4336.16,-108.13 3800.53,-75.58 3666.35,-68.5"/>
<polygon fill="midnightblue" stroke="midnightblue" points="3666.52,-65.01 3656.35,-67.98 3666.16,-72 3666.52,-65.01"/>
</g>
<!-- Node13 -->
<g id="node31" class="node">
<title>Node13</title>
<g id="a_node31"><a xlink:href="STLExtras_8h.html" target="_top" xlink:title="llvm/ADT/STLExtras.h">
<polygon fill="none" stroke="red" points="3378.16,-112.5 3378.16,-131.5 3494.16,-131.5 3494.16,-112.5 3378.16,-112.5"/>
<text text-anchor="middle" x="3436.16" y="-119.5" font-family="Helvetica,sans-Serif" font-size="10.00">llvm/ADT/STLExtras.h</text>
</a>
</g>
</g>
<!-- Node55&#45;&gt;Node13 -->
<g id="edge75" class="edge">
<title>Node55&#45;&gt;Node13</title>
<path fill="none" stroke="midnightblue" d="M1664.21,-616.49C1843.23,-610.84 2329.55,-593.53 2488.16,-568 2922.54,-498.07 3176.46,-660.16 3444.16,-311 3483.05,-260.27 3457.81,-177.25 3443.76,-140.94"/>
<polygon fill="midnightblue" stroke="midnightblue" points="3446.99,-139.59 3439.99,-131.63 3440.5,-142.22 3446.99,-139.59"/>
</g>
<!-- Node12 -->
<g id="node35" class="node">
<title>Node12</title>
<g id="a_node35"><a xlink:href="StringRef_8h.html" target="_top" xlink:title="llvm/ADT/StringRef.h">
<polygon fill="none" stroke="red" points="3067.16,-168.5 3067.16,-187.5 3177.16,-187.5 3177.16,-168.5 3067.16,-168.5"/>
<text text-anchor="middle" x="3122.16" y="-175.5" font-family="Helvetica,sans-Serif" font-size="10.00">llvm/ADT/StringRef.h</text>
</a>
</g>
</g>
<!-- Node55&#45;&gt;Node12 -->
<g id="edge76" class="edge">
<title>Node55&#45;&gt;Node12</title>
<path fill="none" stroke="midnightblue" d="M1664.34,-604.72C1806.83,-575.37 2127.11,-508.74 2136.16,-501 2171.65,-470.63 2140.22,-435.1 2174.16,-403 2222.2,-357.56 2394.3,-331.54 2457.16,-311 2574.99,-272.5 2601.04,-250.4 2722.16,-224 2784.25,-210.47 2960,-193.45 3056.58,-184.73"/>
<polygon fill="midnightblue" stroke="midnightblue" points="3057.17,-188.19 3066.82,-183.81 3056.54,-181.22 3057.17,-188.19"/>
</g>
<!-- Node60 -->
<g id="node36" class="node">
<title>Node60</title>
<g id="a_node36"><a xlink:href="BinaryStreamArray_8h.html" target="_top" xlink:title="llvm/Support/BinaryStream\lArray.h">
<polygon fill="none" stroke="red" points="2259.16,-537.5 2259.16,-567.5 2393.16,-567.5 2393.16,-537.5 2259.16,-537.5"/>
<text text-anchor="start" x="2267.16" y="-555.5" font-family="Helvetica,sans-Serif" font-size="10.00">llvm/Support/BinaryStream</text>
<text text-anchor="middle" x="2326.16" y="-544.5" font-family="Helvetica,sans-Serif" font-size="10.00">Array.h</text>
</a>
</g>
</g>
<!-- Node55&#45;&gt;Node60 -->
<g id="edge86" class="edge">
<title>Node55&#45;&gt;Node60</title>
<path fill="none" stroke="midnightblue" d="M1664.48,-613.78C1776.98,-605.7 2010.26,-588.14 2207.16,-568 2220.65,-566.62 2234.99,-565 2248.86,-563.36"/>
<polygon fill="midnightblue" stroke="midnightblue" points="2249.36,-566.82 2258.87,-562.16 2248.52,-559.87 2249.36,-566.82"/>
</g>
<!-- Node61 -->
<g id="node37" class="node">
<title>Node61</title>
<g id="a_node37"><a xlink:href="BinaryStreamRef_8h.html" target="_top" xlink:title="llvm/Support/BinaryStream\lRef.h">
<polygon fill="none" stroke="red" points="1993.16,-470.5 1993.16,-500.5 2127.16,-500.5 2127.16,-470.5 1993.16,-470.5"/>
<text text-anchor="start" x="2001.16" y="-488.5" font-family="Helvetica,sans-Serif" font-size="10.00">llvm/Support/BinaryStream</text>
<text text-anchor="middle" x="2060.16" y="-477.5" font-family="Helvetica,sans-Serif" font-size="10.00">Ref.h</text>
</a>
</g>
</g>
<!-- Node55&#45;&gt;Node61 -->
<g id="edge162" class="edge">
<title>Node55&#45;&gt;Node61</title>
<path fill="none" stroke="midnightblue" d="M1593.13,-604.27C1588.95,-586.09 1585.14,-554.86 1602.16,-537 1627.88,-509.99 1859.22,-495.53 1982.92,-489.67"/>
<polygon fill="midnightblue" stroke="midnightblue" points="1983.26,-493.16 1993.09,-489.2 1982.94,-486.17 1983.26,-493.16"/>
</g>
<!-- Node64 -->
<g id="node38" class="node">
<title>Node64</title>
<g id="a_node38"><a xlink:href="BinaryStreamError_8h.html" target="_top" xlink:title="llvm/Support/BinaryStream\lError.h">
<polygon fill="none" stroke="black" points="2183.16,-403.5 2183.16,-433.5 2317.16,-433.5 2317.16,-403.5 2183.16,-403.5"/>
<text text-anchor="start" x="2191.16" y="-421.5" font-family="Helvetica,sans-Serif" font-size="10.00">llvm/Support/BinaryStream</text>
<text text-anchor="middle" x="2250.16" y="-410.5" font-family="Helvetica,sans-Serif" font-size="10.00">Error.h</text>
</a>
</g>
</g>
<!-- Node55&#45;&gt;Node64 -->
<g id="edge161" class="edge">
<title>Node55&#45;&gt;Node64</title>
<path fill="none" stroke="midnightblue" d="M1664.41,-617.08C1775.87,-612.12 2003.05,-590.78 2169.16,-501 2195.94,-486.52 2219.58,-460.34 2234.3,-441.55"/>
<polygon fill="midnightblue" stroke="midnightblue" points="2237.15,-443.59 2240.42,-433.51 2231.58,-439.35 2237.15,-443.59"/>
</g>
<!-- Node55&#45;&gt;Node65 -->
<g id="edge164" class="edge">
<title>Node55&#45;&gt;Node65</title>
<path fill="none" stroke="midnightblue" d="M1664.26,-619.24C1803.12,-619.69 2131.59,-615.13 2402.16,-568 2612.78,-531.31 2660.62,-499.43 2864.16,-434 2929.58,-412.97 3005.13,-385.52 3047,-370.02"/>
<polygon fill="midnightblue" stroke="midnightblue" points="3048.23,-373.29 3056.39,-366.53 3045.8,-366.73 3048.23,-373.29"/>
</g>
<!-- Node56&#45;&gt;Node3 -->
<g id="edge73" class="edge">
<title>Node56&#45;&gt;Node3</title>
<path fill="none" stroke="midnightblue" d="M2189.87,-236.85C1948.01,-229.46 979.9,-199.18 969.16,-188 928.61,-145.82 1018.72,-100.55 1069.91,-79.32"/>
<polygon fill="midnightblue" stroke="midnightblue" points="1071.32,-82.52 1079.27,-75.52 1068.69,-76.03 1071.32,-82.52"/>
</g>
<!-- Node56&#45;&gt;Node6 -->
<g id="edge68" class="edge">
<title>Node56&#45;&gt;Node6</title>
<path fill="none" stroke="midnightblue" d="M2190.07,-237.88C1951.72,-234.94 1001.2,-221.23 872.16,-188 770.86,-161.92 717.25,-166.71 665.16,-76 660.73,-68.29 659.06,-62.47 665.16,-56 688.89,-30.83 1176.86,-16.95 1362.93,-12.55"/>
<polygon fill="midnightblue" stroke="midnightblue" points="1363.24,-16.04 1373.15,-12.31 1363.07,-9.05 1363.24,-16.04"/>
</g>
<!-- Node56&#45;&gt;Node9 -->
<g id="edge71" class="edge">
<title>Node56&#45;&gt;Node9</title>
<path fill="none" stroke="midnightblue" d="M2230.05,-229.68C2217.44,-220.88 2199.8,-206.08 2192.16,-188 2179,-156.89 2178.11,-142.72 2192.16,-112 2197.93,-99.36 2209.21,-88.91 2219.79,-81.27"/>
<polygon fill="midnightblue" stroke="midnightblue" points="2222,-84 2228.37,-75.53 2218.11,-78.18 2222,-84"/>
</g>
<!-- Node56&#45;&gt;Node18 -->
<g id="edge70" class="edge">
<title>Node56&#45;&gt;Node18</title>
<path fill="none" stroke="midnightblue" d="M2298.49,-233.59C2409.23,-223.4 2653.68,-199.92 2690.16,-188 2707.18,-182.43 2708.24,-173.91 2725.16,-168 2824.5,-133.32 2855.67,-151.04 2959.16,-132 3057.04,-113.99 3171.67,-88.07 3227.74,-75.07"/>
<polygon fill="midnightblue" stroke="midnightblue" points="3228.56,-78.47 3237.51,-72.8 3226.98,-71.66 3228.56,-78.47"/>
</g>
<!-- Node57 -->
<g id="node21" class="node">
<title>Node57</title>
<g id="a_node21"><a xlink:href="Hashing_8h.html" target="_top" xlink:title="llvm/ADT/Hashing.h">
<polygon fill="none" stroke="red" points="2575.66,-168.5 2575.66,-187.5 2680.66,-187.5 2680.66,-168.5 2575.66,-168.5"/>
<text text-anchor="middle" x="2628.16" y="-175.5" font-family="Helvetica,sans-Serif" font-size="10.00">llvm/ADT/Hashing.h</text>
</a>
</g>
</g>
<!-- Node56&#45;&gt;Node57 -->
<g id="edge27" class="edge">
<title>Node56&#45;&gt;Node57</title>
<path fill="none" stroke="midnightblue" d="M2298.36,-230.1C2368.65,-219.21 2491.02,-200.25 2565.31,-188.74"/>
<polygon fill="midnightblue" stroke="midnightblue" points="2566.11,-192.16 2575.46,-187.16 2565.04,-185.24 2566.11,-192.16"/>
</g>
<!-- Node24 -->
<g id="node25" class="node">
<title>Node24</title>
<polygon fill="none" stroke="#bfbfbf" points="2828.16,-56.5 2828.16,-75.5 2884.16,-75.5 2884.16,-56.5 2828.16,-56.5"/>
<text text-anchor="middle" x="2856.16" y="-63.5" font-family="Helvetica,sans-Serif" font-size="10.00">algorithm</text>
</g>
<!-- Node56&#45;&gt;Node24 -->
<g id="edge69" class="edge">
<title>Node56&#45;&gt;Node24</title>
<path fill="none" stroke="midnightblue" d="M2248.15,-230C2254.99,-216.02 2269.99,-187.75 2288.16,-168 2316.32,-137.38 2324.31,-126.9 2363.16,-112 2446.18,-80.16 2717.09,-70.39 2817.91,-67.82"/>
<polygon fill="midnightblue" stroke="midnightblue" points="2818.04,-71.31 2827.95,-67.57 2817.87,-64.32 2818.04,-71.31"/>
</g>
<!-- Node15 -->
<g id="node26" class="node">
<title>Node15</title>
<g id="a_node26"><a xlink:href="None_8h.html" target="_top" xlink:title="llvm/ADT/None.h">
<polygon fill="none" stroke="black" points="1934.16,-168.5 1934.16,-187.5 2026.16,-187.5 2026.16,-168.5 1934.16,-168.5"/>
<text text-anchor="middle" x="1980.16" y="-175.5" font-family="Helvetica,sans-Serif" font-size="10.00">llvm/ADT/None.h</text>
</a>
</g>
</g>
<!-- Node56&#45;&gt;Node15 -->
<g id="edge41" class="edge">
<title>Node56&#45;&gt;Node15</title>
<path fill="none" stroke="midnightblue" d="M2206.33,-229.98C2159.28,-219.37 2078.92,-201.26 2027.74,-189.72"/>
<polygon fill="midnightblue" stroke="midnightblue" points="2028.44,-186.29 2017.91,-187.51 2026.9,-193.12 2028.44,-186.29"/>
</g>
<!-- Node36 -->
<g id="node27" class="node">
<title>Node36</title>
<g id="a_node27"><a xlink:href="SmallVector_8h.html" target="_top" xlink:title="llvm/ADT/SmallVector.h">
<polygon fill="none" stroke="red" points="2297.16,-168.5 2297.16,-187.5 2419.16,-187.5 2419.16,-168.5 2297.16,-168.5"/>
<text text-anchor="middle" x="2358.16" y="-175.5" font-family="Helvetica,sans-Serif" font-size="10.00">llvm/ADT/SmallVector.h</text>
</a>
</g>
</g>
<!-- Node56&#45;&gt;Node36 -->
<g id="edge42" class="edge">
<title>Node56&#45;&gt;Node36</title>
<path fill="none" stroke="midnightblue" d="M2260.49,-229.98C2279.37,-220.12 2310.66,-203.79 2332.73,-192.27"/>
<polygon fill="midnightblue" stroke="midnightblue" points="2334.61,-195.24 2341.85,-187.51 2331.37,-189.03 2334.61,-195.24"/>
</g>
<!-- Node19 -->
<g id="node29" class="node">
<title>Node19</title>
<polygon fill="none" stroke="#bfbfbf" points="1799.16,-56.5 1799.16,-75.5 1851.16,-75.5 1851.16,-56.5 1799.16,-56.5"/>
<text text-anchor="middle" x="1825.16" y="-63.5" font-family="Helvetica,sans-Serif" font-size="10.00">memory</text>
</g>
<!-- Node56&#45;&gt;Node19 -->
<g id="edge72" class="edge">
<title>Node56&#45;&gt;Node19</title>
<path fill="none" stroke="midnightblue" d="M2220.52,-229.89C2181.97,-216 2103.07,-188.16 2035.16,-168 1973.56,-149.72 1951.54,-162.8 1895.16,-132 1872.53,-119.64 1851.56,-98.31 1838.59,-83.48"/>
<polygon fill="midnightblue" stroke="midnightblue" points="1841.06,-80.97 1831.92,-75.6 1835.72,-85.5 1841.06,-80.97"/>
</g>
<!-- Node56&#45;&gt;Node13 -->
<g id="edge56" class="edge">
<title>Node56&#45;&gt;Node13</title>
<path fill="none" stroke="midnightblue" d="M2298.42,-233.23C2406.2,-222.69 2643.83,-199.09 2725.16,-188 2778.29,-180.75 2790.92,-174.48 2844.16,-168 3033.17,-144.98 3257.66,-131.75 3368.01,-126.17"/>
<polygon fill="midnightblue" stroke="midnightblue" points="3368.19,-129.66 3378,-125.67 3367.84,-122.67 3368.19,-129.66"/>
</g>
<!-- Node59 -->
<g id="node34" class="node">
<title>Node59</title>
<polygon fill="none" stroke="#bfbfbf" points="2853.16,-168.5 2853.16,-187.5 2897.16,-187.5 2897.16,-168.5 2853.16,-168.5"/>
<text text-anchor="middle" x="2875.16" y="-175.5" font-family="Helvetica,sans-Serif" font-size="10.00">vector</text>
</g>
<!-- Node56&#45;&gt;Node59 -->
<g id="edge74" class="edge">
<title>Node56&#45;&gt;Node59</title>
<path fill="none" stroke="midnightblue" d="M2298.24,-233.45C2328.99,-230.61 2368.22,-227.03 2403.16,-224 2596.86,-207.17 2647.32,-219.68 2839.16,-188 2840.41,-187.79 2841.68,-187.57 2842.96,-187.32"/>
<polygon fill="midnightblue" stroke="midnightblue" points="2843.77,-190.73 2852.8,-185.19 2842.29,-183.88 2843.77,-190.73"/>
</g>
<!-- Node57&#45;&gt;Node27 -->
<g id="edge39" class="edge">
<title>Node57&#45;&gt;Node27</title>
<path fill="none" stroke="midnightblue" d="M2637.59,-168.48C2663.93,-145.28 2741.46,-81.08 2819.16,-56 2943.7,-15.8 3101.66,-10.84 3167.34,-10.68"/>
<polygon fill="midnightblue" stroke="midnightblue" points="3167.43,-14.18 3177.43,-10.69 3167.44,-7.18 3167.43,-14.18"/>
</g>
<!-- Node57&#45;&gt;Node38 -->
<g id="edge31" class="edge">
<title>Node57&#45;&gt;Node38</title>
<path fill="none" stroke="midnightblue" d="M2575.43,-174.36C2402.42,-165.69 1850.81,-138.06 1636.48,-127.32"/>
<polygon fill="midnightblue" stroke="midnightblue" points="1636.39,-123.82 1626.23,-126.81 1636.04,-130.81 1636.39,-123.82"/>
</g>
<!-- Node57&#45;&gt;Node18 -->
<g id="edge37" class="edge">
<title>Node57&#45;&gt;Node18</title>
<path fill="none" stroke="midnightblue" d="M2677.38,-168.46C2800.84,-147.04 3121.37,-91.43 3227.48,-73.02"/>
<polygon fill="midnightblue" stroke="midnightblue" points="3228.1,-76.46 3237.35,-71.3 3226.9,-69.56 3228.1,-76.46"/>
</g>
<!-- Node57&#45;&gt;Node34 -->
<g id="edge38" class="edge">
<title>Node57&#45;&gt;Node34</title>
<path fill="none" stroke="midnightblue" d="M2605.5,-168.44C2581.75,-159.48 2544.25,-145.31 2517.42,-135.18"/>
<polygon fill="midnightblue" stroke="midnightblue" points="2518.3,-131.77 2507.71,-131.52 2515.83,-138.32 2518.3,-131.77"/>
</g>
<!-- Node26 -->
<g id="node22" class="node">
<title>Node26</title>
<g id="a_node22"><a xlink:href="Support_2ErrorHandling_8h.html" target="_top" xlink:title="llvm/Support/ErrorHandling.h">
<polygon fill="none" stroke="black" points="2465.16,-56.5 2465.16,-75.5 2607.16,-75.5 2607.16,-56.5 2465.16,-56.5"/>
<text text-anchor="middle" x="2536.16" y="-63.5" font-family="Helvetica,sans-Serif" font-size="10.00">llvm/Support/ErrorHandling.h</text>
</a>
</g>
</g>
<!-- Node57&#45;&gt;Node26 -->
<g id="edge28" class="edge">
<title>Node57&#45;&gt;Node26</title>
<path fill="none" stroke="midnightblue" d="M2627.56,-168.11C2626.26,-154.69 2622.13,-129.02 2609.16,-112 2598.49,-98.01 2582.13,-87.35 2567.59,-79.93"/>
<polygon fill="midnightblue" stroke="midnightblue" points="2568.91,-76.68 2558.38,-75.51 2565.89,-82.99 2568.91,-76.68"/>
</g>
<!-- Node16 -->
<g id="node23" class="node">
<title>Node16</title>
<g id="a_node23"><a xlink:href="type__traits_8h.html" target="_top" xlink:title="llvm/Support/type_traits.h">
<polygon fill="none" stroke="black" points="1206.16,-112.5 1206.16,-131.5 1334.16,-131.5 1334.16,-112.5 1206.16,-112.5"/>
<text text-anchor="middle" x="1270.16" y="-119.5" font-family="Helvetica,sans-Serif" font-size="10.00">llvm/Support/type_traits.h</text>
</a>
</g>
</g>
<!-- Node57&#45;&gt;Node16 -->
<g id="edge32" class="edge">
<title>Node57&#45;&gt;Node16</title>
<path fill="none" stroke="midnightblue" d="M2575.53,-174.46C2535.2,-172.56 2478.17,-169.95 2428.16,-168 1949.33,-149.28 1825.86,-169.28 1344.21,-132"/>
<polygon fill="midnightblue" stroke="midnightblue" points="1344.46,-128.51 1334.22,-131.23 1343.92,-135.49 1344.46,-128.51"/>
</g>
<!-- Node57&#45;&gt;Node17 -->
<g id="edge40" class="edge">
<title>Node57&#45;&gt;Node17</title>
<path fill="none" stroke="midnightblue" d="M2680.93,-171.24C2863.33,-151.34 3463.69,-85.82 3605.8,-70.31"/>
<polygon fill="midnightblue" stroke="midnightblue" points="3606.4,-73.77 3615.96,-69.2 3605.64,-66.81 3606.4,-73.77"/>
</g>
<!-- Node57&#45;&gt;Node24 -->
<g id="edge36" class="edge">
<title>Node57&#45;&gt;Node24</title>
<path fill="none" stroke="midnightblue" d="M2646.05,-168.37C2685.84,-149.17 2781.87,-102.84 2829.06,-80.07"/>
<polygon fill="midnightblue" stroke="midnightblue" points="2830.86,-83.09 2838.35,-75.59 2827.82,-76.78 2830.86,-83.09"/>
</g>
<!-- Node26&#45;&gt;Node6 -->
<g id="edge29" class="edge">
<title>Node26&#45;&gt;Node6</title>
<path fill="none" stroke="midnightblue" d="M2465.12,-61.52C2266.16,-51.77 1704.95,-24.27 1505.55,-14.5"/>
<polygon fill="midnightblue" stroke="midnightblue" points="1505.64,-11 1495.48,-14.01 1505.3,-17.99 1505.64,-11"/>
</g>
<!-- Node26&#45;&gt;Node27 -->
<g id="edge30" class="edge">
<title>Node26&#45;&gt;Node27</title>
<path fill="none" stroke="midnightblue" d="M2607.32,-59.2C2750.37,-47.53 3067.67,-21.64 3167.48,-13.5"/>
<polygon fill="midnightblue" stroke="midnightblue" points="3167.82,-16.99 3177.5,-12.68 3167.25,-10.01 3167.82,-16.99"/>
</g>
<!-- Node16&#45;&gt;Node3 -->
<g id="edge34" class="edge">
<title>Node16&#45;&gt;Node3</title>
<path fill="none" stroke="midnightblue" d="M1243.54,-112.44C1215.15,-103.32 1170.02,-88.81 1138.4,-78.65"/>
<polygon fill="midnightblue" stroke="midnightblue" points="1139.24,-75.24 1128.65,-75.52 1137.1,-81.91 1139.24,-75.24"/>
</g>
<!-- Node16&#45;&gt;Node6 -->
<g id="edge33" class="edge">
<title>Node16&#45;&gt;Node6</title>
<path fill="none" stroke="midnightblue" d="M1283.02,-112.37C1311.17,-93.49 1378.42,-48.38 1412.93,-25.24"/>
<polygon fill="midnightblue" stroke="midnightblue" points="1414.99,-28.07 1421.35,-19.59 1411.09,-22.26 1414.99,-28.07"/>
</g>
<!-- Node16&#45;&gt;Node17 -->
<g id="edge35" class="edge">
<title>Node16&#45;&gt;Node17</title>
<path fill="none" stroke="midnightblue" d="M1334.21,-112.72C1337.23,-112.45 1340.23,-112.21 1343.16,-112 2209.14,-50.8 2428.23,-95.49 3296.16,-76 3410.36,-73.44 3546.12,-69.61 3605.64,-67.89"/>
<polygon fill="midnightblue" stroke="midnightblue" points="3605.95,-71.38 3615.85,-67.59 3605.75,-64.39 3605.95,-71.38"/>
</g>
<!-- Node36&#45;&gt;Node3 -->
<g id="edge54" class="edge">
<title>Node36&#45;&gt;Node3</title>
<path fill="none" stroke="midnightblue" d="M2296.9,-175.08C2061.04,-167.65 1223.47,-140.7 1197.16,-132 1166.5,-121.86 1136.7,-98.63 1118.89,-82.87"/>
<polygon fill="midnightblue" stroke="midnightblue" points="1120.9,-79.97 1111.15,-75.83 1116.19,-85.15 1120.9,-79.97"/>
</g>
<!-- Node36&#45;&gt;Node5 -->
<g id="edge43" class="edge">
<title>Node36&#45;&gt;Node5</title>
<path fill="none" stroke="midnightblue" d="M2308.4,-168.44C2252.82,-158.89 2162.89,-143.42 2103.64,-133.23"/>
<polygon fill="midnightblue" stroke="midnightblue" points="2104.13,-129.76 2093.68,-131.52 2102.94,-136.66 2104.13,-129.76"/>
</g>
<!-- Node36&#45;&gt;Node6 -->
<g id="edge44" class="edge">
<title>Node36&#45;&gt;Node6</title>
<path fill="none" stroke="midnightblue" d="M2297.03,-173.12C2204.96,-166.72 2035.36,-152.56 1978.16,-132 1919.45,-110.9 1918.99,-76.73 1860.16,-56 1796.51,-33.58 1609.06,-20.33 1505.29,-14.52"/>
<polygon fill="midnightblue" stroke="midnightblue" points="1505.39,-11.02 1495.21,-13.97 1505,-18.01 1505.39,-11.02"/>
</g>
<!-- Node36&#45;&gt;Node9 -->
<g id="edge49" class="edge">
<title>Node36&#45;&gt;Node9</title>
<path fill="none" stroke="midnightblue" d="M2347.54,-168.32C2336.84,-159.46 2319.99,-145.18 2306.16,-132 2289.32,-115.97 2271.07,-96.57 2258.76,-83.16"/>
<polygon fill="midnightblue" stroke="midnightblue" points="2261.26,-80.7 2251.93,-75.67 2256.08,-85.41 2261.26,-80.7"/>
</g>
<!-- Node36&#45;&gt;Node18 -->
<g id="edge48" class="edge">
<title>Node36&#45;&gt;Node18</title>
<path fill="none" stroke="midnightblue" d="M2363.32,-168.27C2372.57,-153.56 2393.52,-124.25 2420.16,-112 2457.33,-94.9 3072.1,-73.33 3226.96,-68.16"/>
<polygon fill="midnightblue" stroke="midnightblue" points="3227.43,-71.64 3237.3,-67.81 3227.19,-64.65 3227.43,-71.64"/>
</g>
<!-- Node36&#45;&gt;Node34 -->
<g id="edge51" class="edge">
<title>Node36&#45;&gt;Node34</title>
<path fill="none" stroke="midnightblue" d="M2378.28,-168.44C2399.18,-159.56 2432.09,-145.56 2455.87,-135.45"/>
<polygon fill="midnightblue" stroke="midnightblue" points="2457.29,-138.65 2465.13,-131.52 2454.55,-132.21 2457.29,-138.65"/>
</g>
<!-- Node36&#45;&gt;Node26 -->
<g id="edge46" class="edge">
<title>Node36&#45;&gt;Node26</title>
<path fill="none" stroke="midnightblue" d="M2352.33,-168.42C2343.97,-154.94 2330.96,-128.64 2344.16,-112 2358.25,-94.22 2409.2,-82.79 2455.08,-75.9"/>
<polygon fill="midnightblue" stroke="midnightblue" points="2455.68,-79.35 2465.08,-74.46 2454.68,-72.42 2455.68,-79.35"/>
</g>
<!-- Node36&#45;&gt;Node16 -->
<g id="edge45" class="edge">
<title>Node36&#45;&gt;Node16</title>
<path fill="none" stroke="midnightblue" d="M2297.04,-174.92C2110.5,-168.48 1549.19,-148.33 1344.29,-132.01"/>
<polygon fill="midnightblue" stroke="midnightblue" points="1344.47,-128.51 1334.22,-131.19 1343.9,-135.49 1344.47,-128.51"/>
</g>
<!-- Node36&#45;&gt;Node17 -->
<g id="edge55" class="edge">
<title>Node36&#45;&gt;Node17</title>
<path fill="none" stroke="midnightblue" d="M2369.83,-168.47C2393.11,-151.54 2443.86,-115.07 2453.16,-112 2481.37,-102.68 3424.13,-73.47 3605.97,-67.92"/>
<polygon fill="midnightblue" stroke="midnightblue" points="3606.26,-71.41 3616.15,-67.61 3606.05,-64.41 3606.26,-71.41"/>
</g>
<!-- Node36&#45;&gt;Node24 -->
<g id="edge47" class="edge">
<title>Node36&#45;&gt;Node24</title>
<path fill="none" stroke="midnightblue" d="M2358.58,-168.14C2359.79,-153.78 2364.42,-125.65 2382.16,-112 2416.43,-85.62 2711.45,-72.3 2817.98,-68.31"/>
<polygon fill="midnightblue" stroke="midnightblue" points="2818.12,-71.81 2827.98,-67.95 2817.86,-64.82 2818.12,-71.81"/>
</g>
<!-- Node29 -->
<g id="node28" class="node">
<title>Node29</title>
<polygon fill="none" stroke="#bfbfbf" points="3922.66,-56.5 3922.66,-75.5 3967.66,-75.5 3967.66,-56.5 3922.66,-56.5"/>
<text text-anchor="middle" x="3945.16" y="-63.5" font-family="Helvetica,sans-Serif" font-size="10.00">cstdlib</text>
</g>
<!-- Node36&#45;&gt;Node29 -->
<g id="edge50" class="edge">
<title>Node36&#45;&gt;Node29</title>
<path fill="none" stroke="midnightblue" d="M2419.4,-172.76C2682.85,-154.49 3715.3,-82.93 3912.51,-69.26"/>
<polygon fill="midnightblue" stroke="midnightblue" points="3912.8,-72.75 3922.53,-68.57 3912.31,-65.77 3912.8,-72.75"/>
</g>
<!-- Node36&#45;&gt;Node19 -->
<g id="edge52" class="edge">
<title>Node36&#45;&gt;Node19</title>
<path fill="none" stroke="midnightblue" d="M2297,-177.72C2214.86,-177.04 2065.22,-169.99 1944.16,-132 1907.04,-120.35 1868.26,-96.66 1845.43,-81.33"/>
<polygon fill="midnightblue" stroke="midnightblue" points="1847.17,-78.28 1836.95,-75.52 1843.22,-84.05 1847.17,-78.28"/>
</g>
<!-- Node20 -->
<g id="node30" class="node">
<title>Node20</title>
<polygon fill="none" stroke="#bfbfbf" points="2564.66,-112.5 2564.66,-131.5 2599.66,-131.5 2599.66,-112.5 2564.66,-112.5"/>
<text text-anchor="middle" x="2582.16" y="-119.5" font-family="Helvetica,sans-Serif" font-size="10.00">new</text>
</g>
<!-- Node36&#45;&gt;Node20 -->
<g id="edge53" class="edge">
<title>Node36&#45;&gt;Node20</title>
<path fill="none" stroke="midnightblue" d="M2393.65,-168.44C2438.36,-157.66 2514.24,-139.37 2554.75,-129.61"/>
<polygon fill="midnightblue" stroke="midnightblue" points="2555.58,-133.01 2564.48,-127.26 2553.94,-126.2 2555.58,-133.01"/>
</g>
<!-- Node13&#45;&gt;Node3 -->
<g id="edge66" class="edge">
<title>Node13&#45;&gt;Node3</title>
<path fill="none" stroke="midnightblue" d="M3377.88,-119.65C3048.35,-112.03 1423.35,-74.43 1143.29,-67.95"/>
<polygon fill="midnightblue" stroke="midnightblue" points="1143.24,-64.45 1133.16,-67.72 1143.08,-71.45 1143.24,-64.45"/>
</g>
<!-- Node13&#45;&gt;Node9 -->
<g id="edge61" class="edge">
<title>Node13&#45;&gt;Node9</title>
<path fill="none" stroke="midnightblue" d="M3377.86,-118.36C3166.78,-108.8 2446.11,-76.15 2278.97,-68.58"/>
<polygon fill="midnightblue" stroke="midnightblue" points="2278.92,-65.07 2268.77,-68.12 2278.6,-72.06 2278.92,-65.07"/>
</g>
<!-- Node13&#45;&gt;Node18 -->
<g id="edge60" class="edge">
<title>Node13&#45;&gt;Node18</title>
<path fill="none" stroke="midnightblue" d="M3408.58,-112.44C3378.19,-103.01 3329.26,-87.82 3296.42,-77.63"/>
<polygon fill="midnightblue" stroke="midnightblue" points="3297.37,-74.26 3286.78,-74.64 3295.3,-80.95 3297.37,-74.26"/>
</g>
<!-- Node13&#45;&gt;Node28 -->
<g id="edge62" class="edge">
<title>Node13&#45;&gt;Node28</title>
<path fill="none" stroke="midnightblue" d="M3377.87,-120.02C3111.8,-115.51 1985.84,-96.14 1062.16,-76 939.95,-73.34 794.74,-69.58 730.53,-67.89"/>
<polygon fill="midnightblue" stroke="midnightblue" points="730.3,-64.38 720.21,-67.61 730.12,-71.38 730.3,-64.38"/>
</g>
<!-- Node13&#45;&gt;Node26 -->
<g id="edge58" class="edge">
<title>Node13&#45;&gt;Node26</title>
<path fill="none" stroke="midnightblue" d="M3378.14,-117.52C3222.75,-108.2 2796.76,-82.64 2617.43,-71.88"/>
<polygon fill="midnightblue" stroke="midnightblue" points="2617.46,-68.37 2607.27,-71.27 2617.04,-75.36 2617.46,-68.37"/>
</g>
<!-- Node13&#45;&gt;Node17 -->
<g id="edge67" class="edge">
<title>Node13&#45;&gt;Node17</title>
<path fill="none" stroke="midnightblue" d="M3467.85,-112.44C3505.8,-102.2 3568.91,-85.16 3606.12,-75.11"/>
<polygon fill="midnightblue" stroke="midnightblue" points="3607.14,-78.46 3615.88,-72.47 3605.32,-71.7 3607.14,-78.46"/>
</g>
<!-- Node13&#45;&gt;Node24 -->
<g id="edge59" class="edge">
<title>Node13&#45;&gt;Node24</title>
<path fill="none" stroke="midnightblue" d="M3378.02,-113.55C3373.33,-113.01 3368.67,-112.48 3364.16,-112 3188.97,-93.3 2979.19,-76.48 2894.45,-69.92"/>
<polygon fill="midnightblue" stroke="midnightblue" points="2894.52,-66.41 2884.28,-69.13 2893.98,-73.39 2894.52,-66.41"/>
</g>
<!-- Node13&#45;&gt;Node29 -->
<g id="edge63" class="edge">
<title>Node13&#45;&gt;Node29</title>
<path fill="none" stroke="midnightblue" d="M3494.54,-114.81C3602.1,-103.4 3828.22,-79.41 3912.54,-70.46"/>
<polygon fill="midnightblue" stroke="midnightblue" points="3912.99,-73.93 3922.56,-69.4 3912.25,-66.97 3912.99,-73.93"/>
</g>
<!-- Node13&#45;&gt;Node19 -->
<g id="edge65" class="edge">
<title>Node13&#45;&gt;Node19</title>
<path fill="none" stroke="midnightblue" d="M3377.87,-119.05C3118.24,-110.34 2070.7,-75.23 1861.58,-68.22"/>
<polygon fill="midnightblue" stroke="midnightblue" points="1861.56,-64.72 1851.44,-67.88 1861.32,-71.71 1861.56,-64.72"/>
</g>
<!-- Node25 -->
<g id="node32" class="node">
<title>Node25</title>
<polygon fill="none" stroke="#bfbfbf" points="3986.16,-56.5 3986.16,-75.5 4116.16,-75.5 4116.16,-56.5 3986.16,-56.5"/>
<text text-anchor="middle" x="4051.16" y="-63.5" font-family="Helvetica,sans-Serif" font-size="10.00">llvm/Config/abi&#45;breaking.h</text>
</g>
<!-- Node13&#45;&gt;Node25 -->
<g id="edge57" class="edge">
<title>Node13&#45;&gt;Node25</title>
<path fill="none" stroke="midnightblue" d="M3494.27,-116.9C3591.63,-109.86 3794.11,-94.54 3975.79,-76.11"/>
<polygon fill="midnightblue" stroke="midnightblue" points="3976.21,-79.58 3985.8,-75.09 3975.5,-72.62 3976.21,-79.58"/>
</g>
<!-- Node30 -->
<g id="node33" class="node">
<title>Node30</title>
<polygon fill="none" stroke="#bfbfbf" points="4172.66,-56.5 4172.66,-75.5 4231.66,-75.5 4231.66,-56.5 4172.66,-56.5"/>
<text text-anchor="middle" x="4202.16" y="-63.5" font-family="Helvetica,sans-Serif" font-size="10.00">functional</text>
</g>
<!-- Node13&#45;&gt;Node30 -->
<g id="edge64" class="edge">
<title>Node13&#45;&gt;Node30</title>
<path fill="none" stroke="midnightblue" d="M3494.31,-118.21C3613.02,-112.29 3891.77,-97.25 4125.16,-76 4137.28,-74.9 4150.46,-73.45 4162.43,-72.04"/>
<polygon fill="midnightblue" stroke="midnightblue" points="4163.06,-75.49 4172.58,-70.82 4162.23,-68.54 4163.06,-75.49"/>
</g>
<!-- Node12&#45;&gt;Node3 -->
<g id="edge84" class="edge">
<title>Node12&#45;&gt;Node3</title>
<path fill="none" stroke="midnightblue" d="M3068.41,-168.46C2975.21,-154.04 2777.42,-125.14 2609.16,-112 2312.44,-88.83 1353.68,-71.31 1143.24,-67.69"/>
<polygon fill="midnightblue" stroke="midnightblue" points="1143.29,-64.19 1133.23,-67.52 1143.17,-71.19 1143.29,-64.19"/>
</g>
<!-- Node12&#45;&gt;Node6 -->
<g id="edge78" class="edge">
<title>Node12&#45;&gt;Node6</title>
<path fill="none" stroke="midnightblue" d="M3114.99,-168.2C3103.36,-154.43 3079.03,-127.73 3053.16,-112 2988.77,-72.87 2967.23,-69.77 2893.16,-56 2756.32,-30.57 1779.99,-15.65 1505.68,-11.92"/>
<polygon fill="midnightblue" stroke="midnightblue" points="1505.5,-8.42 1495.45,-11.79 1505.4,-15.42 1505.5,-8.42"/>
</g>
<!-- Node12&#45;&gt;Node9 -->
<g id="edge81" class="edge">
<title>Node12&#45;&gt;Node9</title>
<path fill="none" stroke="midnightblue" d="M3091.11,-168.49C3038.33,-154.38 2927.58,-126.27 2832.16,-112 2724.24,-95.86 2388.39,-75.4 2278.99,-69"/>
<polygon fill="midnightblue" stroke="midnightblue" points="2279.02,-65.5 2268.83,-68.41 2278.61,-72.49 2279.02,-65.5"/>
</g>
<!-- Node12&#45;&gt;Node27 -->
<g id="edge83" class="edge">
<title>Node12&#45;&gt;Node27</title>
<path fill="none" stroke="midnightblue" d="M3126.24,-168.08C3138.31,-141.72 3173.95,-63.88 3190.07,-28.66"/>
<polygon fill="midnightblue" stroke="midnightblue" points="3193.25,-30.12 3194.23,-19.57 3186.89,-27.2 3193.25,-30.12"/>
</g>
<!-- Node12&#45;&gt;Node18 -->
<g id="edge80" class="edge">
<title>Node12&#45;&gt;Node18</title>
<path fill="none" stroke="midnightblue" d="M3146.43,-168.36C3165.61,-160.75 3192.34,-148.33 3212.16,-132 3228.58,-118.46 3242.87,-98.57 3251.92,-84.36"/>
<polygon fill="midnightblue" stroke="midnightblue" points="3255.06,-85.93 3257.31,-75.58 3249.1,-82.27 3255.06,-85.93"/>
</g>
<!-- Node12&#45;&gt;Node34 -->
<g id="edge82" class="edge">
<title>Node12&#45;&gt;Node34</title>
<path fill="none" stroke="midnightblue" d="M3067.04,-173.48C2965.74,-166.81 2743.19,-151.28 2556.16,-132 2543.82,-130.73 2530.32,-129.08 2518.43,-127.54"/>
<polygon fill="midnightblue" stroke="midnightblue" points="2518.84,-124.07 2508.47,-126.23 2517.93,-131.01 2518.84,-124.07"/>
</g>
<!-- Node12&#45;&gt;Node17 -->
<g id="edge85" class="edge">
<title>Node12&#45;&gt;Node17</title>
<path fill="none" stroke="midnightblue" d="M3177.25,-176.26C3252.39,-173.97 3390.53,-165.13 3503.16,-132 3544.22,-119.92 3588.14,-96.05 3613.83,-80.84"/>
<polygon fill="midnightblue" stroke="midnightblue" points="3615.66,-83.82 3622.43,-75.67 3612.05,-77.82 3615.66,-83.82"/>
</g>
<!-- Node12&#45;&gt;Node24 -->
<g id="edge79" class="edge">
<title>Node12&#45;&gt;Node24</title>
<path fill="none" stroke="midnightblue" d="M3111.42,-168.38C3093.78,-154.62 3057.12,-127.64 3022.16,-112 2980.29,-93.27 2928.9,-80.82 2894.48,-73.85"/>
<polygon fill="midnightblue" stroke="midnightblue" points="2894.87,-70.36 2884.38,-71.86 2893.52,-77.23 2894.87,-70.36"/>
</g>
<!-- Node12&#45;&gt;Node13 -->
<g id="edge77" class="edge">
<title>Node12&#45;&gt;Node13</title>
<path fill="none" stroke="midnightblue" d="M3171.91,-168.44C3227.49,-158.89 3317.42,-143.42 3376.67,-133.23"/>
<polygon fill="midnightblue" stroke="midnightblue" points="3377.37,-136.66 3386.63,-131.52 3376.19,-129.76 3377.37,-136.66"/>
</g>
<!-- Node60&#45;&gt;Node18 -->
<g id="edge159" class="edge">
<title>Node60&#45;&gt;Node18</title>
<path fill="none" stroke="midnightblue" d="M2393.24,-550.31C2688.58,-543.31 3863.34,-496.13 3975.16,-188 3993.13,-138.47 3934.31,-128.17 3884.16,-112 3773.6,-76.35 3411.38,-68.85 3297.06,-67.35"/>
<polygon fill="midnightblue" stroke="midnightblue" points="3296.83,-63.85 3286.78,-67.23 3296.74,-70.85 3296.83,-63.85"/>
</g>
<!-- Node60&#45;&gt;Node28 -->
<g id="edge160" class="edge">
<title>Node60&#45;&gt;Node28</title>
<path fill="none" stroke="midnightblue" d="M2259.05,-546.39C2103.81,-533.85 1708.35,-497.86 1383.16,-434 1022.72,-363.22 809.15,-485.82 594.16,-188 564.33,-146.69 631.15,-102 670.69,-80.32"/>
<polygon fill="midnightblue" stroke="midnightblue" points="672.44,-83.35 679.61,-75.56 669.14,-77.18 672.44,-83.35"/>
</g>
<!-- Node60&#45;&gt;Node56 -->
<g id="edge87" class="edge">
<title>Node60&#45;&gt;Node56</title>
<path fill="none" stroke="midnightblue" d="M2329.55,-537.34C2335.02,-513.27 2345.16,-462.8 2345.16,-419.5 2345.16,-419.5 2345.16,-419.5 2345.16,-356 2345.16,-309.89 2298.98,-273.33 2269.07,-254.49"/>
<polygon fill="midnightblue" stroke="midnightblue" points="2270.75,-251.41 2260.38,-249.22 2267.12,-257.4 2270.75,-251.41"/>
</g>
<!-- Node60&#45;&gt;Node61 -->
<g id="edge88" class="edge">
<title>Node60&#45;&gt;Node61</title>
<path fill="none" stroke="midnightblue" d="M2268.77,-537.48C2227.39,-527.37 2171.4,-513.68 2127.84,-503.04"/>
<polygon fill="midnightblue" stroke="midnightblue" points="2128.45,-499.58 2117.9,-500.61 2126.79,-506.38 2128.45,-499.58"/>
</g>
<!-- Node60&#45;&gt;Node65 -->
<g id="edge158" class="edge">
<title>Node60&#45;&gt;Node65</title>
<path fill="none" stroke="midnightblue" d="M2380.92,-537.43C2523.92,-500.68 2906.47,-402.37 3035.77,-369.15"/>
<polygon fill="midnightblue" stroke="midnightblue" points="3036.89,-372.47 3045.7,-366.6 3035.15,-365.7 3036.89,-372.47"/>
</g>
<!-- Node61&#45;&gt;Node28 -->
<g id="edge156" class="edge">
<title>Node61&#45;&gt;Node28</title>
<path fill="none" stroke="midnightblue" d="M1993.14,-481.18C1807.35,-470 1272.79,-424.26 868.16,-255 787.34,-221.2 756.31,-208.78 714.16,-132 706.26,-117.62 701.91,-99.43 699.59,-85.95"/>
<polygon fill="midnightblue" stroke="midnightblue" points="703.03,-85.29 698.09,-75.92 696.11,-86.33 703.03,-85.29"/>
</g>
<!-- Node61&#45;&gt;Node56 -->
<g id="edge89" class="edge">
<title>Node61&#45;&gt;Node56</title>
<path fill="none" stroke="midnightblue" d="M2066.39,-470.39C2074.04,-453.68 2087.89,-425.31 2103.16,-403 2142.89,-344.92 2200.51,-284.32 2228.17,-256.36"/>
<polygon fill="midnightblue" stroke="midnightblue" points="2230.85,-258.62 2235.43,-249.07 2225.9,-253.68 2230.85,-258.62"/>
</g>
<!-- Node61&#45;&gt;Node24 -->
<g id="edge155" class="edge">
<title>Node61&#45;&gt;Node24</title>
<path fill="none" stroke="midnightblue" d="M2070.73,-470.48C2084.94,-452.54 2111.82,-421.56 2141.16,-403 2308.06,-297.42 2385.17,-346.57 2560.16,-255 2581.03,-244.08 2582.58,-235.47 2603.16,-224 2639.71,-203.63 2653.66,-208.47 2690.16,-188 2747.91,-155.61 2809.21,-106.55 2838.53,-82.05"/>
<polygon fill="midnightblue" stroke="midnightblue" points="2840.85,-84.66 2846.25,-75.54 2836.34,-79.31 2840.85,-84.66"/>
</g>
<!-- Node61&#45;&gt;Node19 -->
<g id="edge157" class="edge">
<title>Node61&#45;&gt;Node19</title>
<path fill="none" stroke="midnightblue" d="M1993.11,-483.64C1877.8,-478.24 1654.16,-448.83 1654.16,-302 1654.16,-302 1654.16,-302 1654.16,-177 1654.16,-113.43 1738.78,-84.86 1788.97,-73.51"/>
<polygon fill="midnightblue" stroke="midnightblue" points="1789.77,-76.92 1798.81,-71.4 1788.3,-70.07 1789.77,-76.92"/>
</g>
<!-- Node61&#45;&gt;Node64 -->
<g id="edge90" class="edge">
<title>Node61&#45;&gt;Node64</title>
<path fill="none" stroke="midnightblue" d="M2101.38,-470.4C2130.14,-460.56 2168.7,-447.37 2199.36,-436.88"/>
<polygon fill="midnightblue" stroke="midnightblue" points="2200.68,-440.13 2209.01,-433.58 2198.41,-433.5 2200.68,-440.13"/>
</g>
<!-- Node61&#45;&gt;Node65 -->
<g id="edge154" class="edge">
<title>Node61&#45;&gt;Node65</title>
<path fill="none" stroke="midnightblue" d="M2127.41,-476.15C2314,-452.99 2836.27,-388.15 3016.81,-365.74"/>
<polygon fill="midnightblue" stroke="midnightblue" points="3017.45,-369.19 3026.94,-364.48 3016.58,-362.24 3017.45,-369.19"/>
</g>
<!-- Node64&#45;&gt;Node27 -->
<g id="edge153" class="edge">
<title>Node64&#45;&gt;Node27</title>
<path fill="none" stroke="midnightblue" d="M2182.79,-411.25C2096.22,-400.88 1943.49,-374.55 1829.16,-311 1755.25,-269.92 1692.16,-263.55 1692.16,-179 1692.16,-179 1692.16,-179 1692.16,-121 1692.16,-68.73 1740.36,-71.88 1790.16,-56 1925.43,-12.85 2973.99,-10.95 3167.5,-10.98"/>
<polygon fill="midnightblue" stroke="midnightblue" points="3167.55,-14.48 3177.55,-10.98 3167.55,-7.48 3167.55,-14.48"/>
</g>
<!-- Node64&#45;&gt;Node12 -->
<g id="edge91" class="edge">
<title>Node64&#45;&gt;Node12</title>
<path fill="none" stroke="midnightblue" d="M2317.3,-412.62C2377.81,-406.66 2468.47,-393.85 2543.16,-367 2663.61,-323.69 2671.97,-265.21 2793.16,-224 2840.59,-207.87 2975.28,-192.9 3056.87,-184.95"/>
<polygon fill="midnightblue" stroke="midnightblue" points="3057.42,-188.41 3067.04,-183.97 3056.75,-181.44 3057.42,-188.41"/>
</g>
<!-- Node64&#45;&gt;Node65 -->
<g id="edge92" class="edge">
<title>Node64&#45;&gt;Node65</title>
<path fill="none" stroke="midnightblue" d="M2317.29,-412.68C2474.52,-401.4 2864.74,-373.39 3016.95,-362.46"/>
<polygon fill="midnightblue" stroke="midnightblue" points="3017.34,-365.95 3027.06,-361.74 3016.84,-358.96 3017.34,-365.95"/>
</g>
<!-- Node65&#45;&gt;Node3 -->
<g id="edge150" class="edge">
<title>Node65&#45;&gt;Node3</title>
<path fill="none" stroke="midnightblue" d="M3027.09,-356.12C2714.39,-356.3 1094.48,-349.43 954.16,-188 937.8,-169.18 955.18,-130.88 974.16,-112 997.43,-88.84 1033.3,-77.56 1061.16,-72.09"/>
<polygon fill="midnightblue" stroke="midnightblue" points="1061.79,-75.53 1071.02,-70.33 1060.56,-68.64 1061.79,-75.53"/>
</g>
<!-- Node65&#45;&gt;Node5 -->
<g id="edge115" class="edge">
<title>Node65&#45;&gt;Node5</title>
<path fill="none" stroke="midnightblue" d="M3027.06,-356.01C2803.14,-355.82 1932.03,-352.41 1892.16,-311 1848.07,-265.22 1854.13,-218.92 1892.16,-168 1911.7,-141.84 1945.78,-130.26 1976.72,-125.37"/>
<polygon fill="midnightblue" stroke="midnightblue" points="1977.21,-128.83 1986.64,-124 1976.25,-121.9 1977.21,-128.83"/>
</g>
<!-- Node65&#45;&gt;Node6 -->
<g id="edge116" class="edge">
<title>Node65&#45;&gt;Node6</title>
<path fill="none" stroke="midnightblue" d="M3027.13,-355.59C2805.08,-353.65 1914.8,-344.13 1184.16,-311 812.15,-294.13 717.41,-303.24 348.16,-255 194.14,-234.88 103.9,-307.9 5.16,-188 -83.24,-80.67 1061.36,-26.21 1362.55,-13.79"/>
<polygon fill="midnightblue" stroke="midnightblue" points="1363.06,-17.27 1372.91,-13.36 1362.77,-10.28 1363.06,-17.27"/>
</g>
<!-- Node65&#45;&gt;Node27 -->
<g id="edge148" class="edge">
<title>Node65&#45;&gt;Node27</title>
<path fill="none" stroke="midnightblue" d="M3131.62,-355.3C3261.92,-353.1 3610.57,-344.29 3899.16,-311 4078.05,-290.36 4298.16,-420.58 4298.16,-240.5 4298.16,-240.5 4298.16,-240.5 4298.16,-121 4298.16,-86.84 4286.71,-73.13 4257.16,-56 4211.54,-29.56 3398.6,-14.39 3229.01,-11.51"/>
<polygon fill="midnightblue" stroke="midnightblue" points="3228.84,-8 3218.78,-11.33 3228.72,-15 3228.84,-8"/>
</g>
<!-- Node65&#45;&gt;Node18 -->
<g id="edge142" class="edge">
<title>Node65&#45;&gt;Node18</title>
<path fill="none" stroke="midnightblue" d="M3131.35,-356.06C3220.44,-355.12 3396.84,-348.43 3444.16,-311 3497.31,-268.95 3454.9,-221 3497.16,-168 3515.37,-145.16 3538.26,-157.7 3552.16,-132 3556.38,-124.18 3557.94,-118.75 3552.16,-112 3519.68,-74.09 3367.03,-67.85 3297.19,-67.01"/>
<polygon fill="midnightblue" stroke="midnightblue" points="3297.15,-63.51 3287.11,-66.92 3297.08,-70.51 3297.15,-63.51"/>
</g>
<!-- Node65&#45;&gt;Node28 -->
<g id="edge143" class="edge">
<title>Node65&#45;&gt;Node28</title>
<path fill="none" stroke="midnightblue" d="M3027.11,-355.49C2778.76,-352.92 1712.54,-340.36 1381.16,-311 1215.49,-296.32 1172.8,-294.13 1011.16,-255 879.84,-223.21 823.25,-232.68 733.16,-132 720.68,-118.06 710.79,-99.05 704.55,-85.19"/>
<polygon fill="midnightblue" stroke="midnightblue" points="707.67,-83.58 700.52,-75.77 701.23,-86.34 707.67,-83.58"/>
</g>
<!-- Node65&#45;&gt;Node26 -->
<g id="edge118" class="edge">
<title>Node65&#45;&gt;Node26</title>
<path fill="none" stroke="midnightblue" d="M3026.83,-353.93C2923,-349.41 2683.71,-336.91 2484.16,-311 2348.35,-293.37 2314.82,-284.8 2181.16,-255 2066.36,-229.41 1997.02,-281.1 1925.16,-188 1919.72,-180.96 1919.41,-174.78 1925.16,-168 1933.96,-157.62 2311.34,-100.44 2468.53,-77.01"/>
<polygon fill="midnightblue" stroke="midnightblue" points="2469.18,-80.45 2478.56,-75.52 2468.15,-73.53 2469.18,-80.45"/>
</g>
<!-- Node65&#45;&gt;Node17 -->
<g id="edge151" class="edge">
<title>Node65&#45;&gt;Node17</title>
<path fill="none" stroke="midnightblue" d="M3131.36,-354.98C3307.27,-350.29 3872.98,-324.66 3975.16,-188 4055.4,-80.66 3763.29,-68.25 3666.37,-67.05"/>
<polygon fill="midnightblue" stroke="midnightblue" points="3666.36,-63.55 3656.33,-66.95 3666.3,-70.54 3666.36,-63.55"/>
</g>
<!-- Node65&#45;&gt;Node24 -->
<g id="edge141" class="edge">
<title>Node65&#45;&gt;Node24</title>
<path fill="none" stroke="midnightblue" d="M3065.43,-347.42C3048.05,-335.4 3021.66,-312.6 3033.16,-291 3042.78,-272.91 3176.53,-206.09 3186.16,-188 3190.33,-180.15 3191.07,-175.41 3186.16,-168 3153.37,-118.62 2974.12,-85.24 2894.41,-72.62"/>
<polygon fill="midnightblue" stroke="midnightblue" points="2894.71,-69.13 2884.29,-71.05 2893.64,-76.04 2894.71,-69.13"/>
</g>
<!-- Node65&#45;&gt;Node36 -->
<g id="edge95" class="edge">
<title>Node65&#45;&gt;Node36</title>
<path fill="none" stroke="midnightblue" d="M3027,-354.39C2886.22,-349.1 2502.45,-328.17 2403.16,-255 2383.53,-240.54 2370.92,-214.72 2364.19,-197.24"/>
<polygon fill="midnightblue" stroke="midnightblue" points="2367.41,-195.84 2360.74,-187.6 2360.81,-198.19 2367.41,-195.84"/>
</g>
<!-- Node65&#45;&gt;Node29 -->
<g id="edge144" class="edge">
<title>Node65&#45;&gt;Node29</title>
<path fill="none" stroke="midnightblue" d="M3131.42,-355.75C3240.51,-354.46 3500.07,-347.46 3714.16,-311 3807.26,-295.14 3836.17,-300.11 3919.16,-255 3958.43,-233.65 3975.9,-228.8 3994.16,-188 3999.56,-175.93 4004.31,-139.12 3992.16,-112 3986.79,-100.04 3976.64,-89.68 3967.14,-81.92"/>
<polygon fill="midnightblue" stroke="midnightblue" points="3969.17,-79.07 3959.09,-75.8 3964.93,-84.64 3969.17,-79.07"/>
</g>
<!-- Node65&#45;&gt;Node19 -->
<g id="edge146" class="edge">
<title>Node65&#45;&gt;Node19</title>
<path fill="none" stroke="midnightblue" d="M3026.86,-356.41C2808.63,-357.78 1977.01,-359.75 1871.16,-311 1832.45,-293.17 1806.16,-283.12 1806.16,-240.5 1806.16,-240.5 1806.16,-240.5 1806.16,-177 1806.16,-144.49 1814.31,-107.35 1819.94,-85.61"/>
<polygon fill="midnightblue" stroke="midnightblue" points="1823.37,-86.32 1822.59,-75.75 1816.61,-84.5 1823.37,-86.32"/>
</g>
<!-- Node65&#45;&gt;Node20 -->
<g id="edge147" class="edge">
<title>Node65&#45;&gt;Node20</title>
<path fill="none" stroke="midnightblue" d="M3093.26,-347.4C3111.11,-335.35 3138.18,-312.52 3126.16,-291 3075.24,-199.91 3024.51,-202.87 2926.16,-168 2924.28,-167.34 2691.75,-137.19 2610.1,-126.62"/>
<polygon fill="midnightblue" stroke="midnightblue" points="2610.42,-123.13 2600.05,-125.32 2609.52,-130.07 2610.42,-123.13"/>
</g>
<!-- Node65&#45;&gt;Node13 -->
<g id="edge94" class="edge">
<title>Node65&#45;&gt;Node13</title>
<path fill="none" stroke="midnightblue" d="M3131.42,-352.95C3223.34,-347.05 3406.09,-332.7 3425.16,-311 3468.48,-261.68 3362.06,-228.24 3388.16,-168 3393.42,-155.84 3403.78,-145.46 3413.52,-137.74"/>
<polygon fill="midnightblue" stroke="midnightblue" points="3415.8,-140.41 3421.79,-131.67 3411.65,-134.77 3415.8,-140.41"/>
</g>
<!-- Node65&#45;&gt;Node25 -->
<g id="edge114" class="edge">
<title>Node65&#45;&gt;Node25</title>
<path fill="none" stroke="midnightblue" d="M3131.41,-354.38C3272.78,-349.71 3660.6,-335.04 3786.16,-311 3865.12,-295.88 3892.39,-301.24 3958.16,-255 4016.99,-213.64 4040.4,-124.2 4048.02,-85.48"/>
<polygon fill="midnightblue" stroke="midnightblue" points="4051.47,-86.06 4049.84,-75.6 4044.59,-84.8 4051.47,-86.06"/>
</g>
<!-- Node65&#45;&gt;Node30 -->
<g id="edge145" class="edge">
<title>Node65&#45;&gt;Node30</title>
<path fill="none" stroke="midnightblue" d="M3131.4,-355.21C3281.76,-352.57 3713.64,-342.39 3851.16,-311 3914.88,-296.45 3931.58,-289.42 3987.16,-255 4071.06,-203.03 4154.46,-118.22 4187.42,-83.06"/>
<polygon fill="midnightblue" stroke="midnightblue" points="4190.11,-85.31 4194.35,-75.6 4184.98,-80.55 4190.11,-85.31"/>
</g>
<!-- Node65&#45;&gt;Node59 -->
<g id="edge152" class="edge">
<title>Node65&#45;&gt;Node59</title>
<path fill="none" stroke="midnightblue" d="M3026.7,-356.1C2975.77,-353.99 2897.92,-344.79 2840.16,-311 2802.22,-288.81 2770.77,-261.82 2793.16,-224 2803.97,-205.72 2825.14,-194.38 2843.26,-187.65"/>
<polygon fill="midnightblue" stroke="midnightblue" points="2844.58,-190.9 2852.92,-184.37 2842.33,-184.27 2844.58,-190.9"/>
</g>
<!-- Node66 -->
<g id="node40" class="node">
<title>Node66</title>
<g id="a_node40"><a xlink:href="c_2Error_8h.html" target="_top" xlink:title="llvm&#45;c/Error.h">
<polygon fill="none" stroke="red" points="3041.66,-291.5 3041.66,-310.5 3116.66,-310.5 3116.66,-291.5 3041.66,-291.5"/>
<text text-anchor="middle" x="3079.16" y="-298.5" font-family="Helvetica,sans-Serif" font-size="10.00">llvm&#45;c/Error.h</text>
</a>
</g>
</g>
<!-- Node65&#45;&gt;Node66 -->
<g id="edge93" class="edge">
<title>Node65&#45;&gt;Node66</title>
<path fill="none" stroke="midnightblue" d="M3079.16,-347.08C3079.16,-340.01 3079.16,-329.86 3079.16,-320.99"/>
<polygon fill="midnightblue" stroke="midnightblue" points="3082.66,-320.75 3079.16,-310.75 3075.66,-320.75 3082.66,-320.75"/>
</g>
<!-- Node68 -->
<g id="node41" class="node">
<title>Node68</title>
<g id="a_node41"><a xlink:href="StringExtras_8h.html" target="_top" xlink:title="llvm/ADT/StringExtras.h">
<polygon fill="none" stroke="red" points="2861.66,-291.5 2861.66,-310.5 2984.66,-310.5 2984.66,-291.5 2861.66,-291.5"/>
<text text-anchor="middle" x="2923.16" y="-298.5" font-family="Helvetica,sans-Serif" font-size="10.00">llvm/ADT/StringExtras.h</text>
</a>
</g>
</g>
<!-- Node65&#45;&gt;Node68 -->
<g id="edge96" class="edge">
<title>Node65&#45;&gt;Node68</title>
<path fill="none" stroke="midnightblue" d="M3054.44,-347.44C3028.31,-338.4 2986.9,-324.06 2957.58,-313.92"/>
<polygon fill="midnightblue" stroke="midnightblue" points="2958.35,-310.48 2947.76,-310.52 2956.06,-317.1 2958.35,-310.48"/>
</g>
<!-- Node70 -->
<g id="node42" class="node">
<title>Node70</title>
<g id="a_node42"><a xlink:href="Twine_8h.html" target="_top" xlink:title="llvm/ADT/Twine.h">
<polygon fill="none" stroke="black" points="2801.66,-230 2801.66,-249 2896.66,-249 2896.66,-230 2801.66,-230"/>
<text text-anchor="middle" x="2849.16" y="-237" font-family="Helvetica,sans-Serif" font-size="10.00">llvm/ADT/Twine.h</text>
</a>
</g>
</g>
<!-- Node65&#45;&gt;Node70 -->
<g id="edge113" class="edge">
<title>Node65&#45;&gt;Node70</title>
<path fill="none" stroke="midnightblue" d="M3027.07,-352.85C2967.53,-348.06 2875.43,-336.63 2853.16,-311 2840.99,-297 2841.81,-274.93 2844.51,-259.21"/>
<polygon fill="midnightblue" stroke="midnightblue" points="2848,-259.61 2846.65,-249.1 2841.16,-258.16 2848,-259.61"/>
</g>
<!-- Node71 -->
<g id="node43" class="node">
<title>Node71</title>
<g id="a_node43"><a xlink:href="Debug_8h.html" target="_top" xlink:title="llvm/Support/Debug.h">
<polygon fill="none" stroke="black" points="3173.66,-291.5 3173.66,-310.5 3284.66,-310.5 3284.66,-291.5 3173.66,-291.5"/>
<text text-anchor="middle" x="3229.16" y="-298.5" font-family="Helvetica,sans-Serif" font-size="10.00">llvm/Support/Debug.h</text>
</a>
</g>
</g>
<!-- Node65&#45;&gt;Node71 -->
<g id="edge117" class="edge">
<title>Node65&#45;&gt;Node71</title>
<path fill="none" stroke="midnightblue" d="M3102.92,-347.44C3128.05,-338.4 3167.87,-324.06 3196.06,-313.92"/>
<polygon fill="midnightblue" stroke="midnightblue" points="3197.28,-317.2 3205.5,-310.52 3194.9,-310.61 3197.28,-317.2"/>
</g>
<!-- Node72 -->
<g id="node44" class="node">
<title>Node72</title>
<g id="a_node44"><a xlink:href="ErrorOr_8h.html" target="_top" xlink:title="Provides ErrorOr&lt;T&gt; smart pointer. ">
<polygon fill="none" stroke="black" points="3506.16,-168.5 3506.16,-187.5 3620.16,-187.5 3620.16,-168.5 3506.16,-168.5"/>
<text text-anchor="middle" x="3563.16" y="-175.5" font-family="Helvetica,sans-Serif" font-size="10.00">llvm/Support/ErrorOr.h</text>
</a>
</g>
</g>
<!-- Node65&#45;&gt;Node72 -->
<g id="edge119" class="edge">
<title>Node65&#45;&gt;Node72</title>
<path fill="none" stroke="midnightblue" d="M3131.22,-356.42C3229.61,-356.25 3438.18,-351.03 3496.16,-311 3535.35,-283.94 3552.91,-226.88 3559.62,-197.44"/>
<polygon fill="midnightblue" stroke="midnightblue" points="3563.05,-198.13 3561.68,-187.63 3556.2,-196.69 3563.05,-198.13"/>
</g>
<!-- Node73 -->
<g id="node45" class="node">
<title>Node73</title>
<polygon fill="none" stroke="#bfbfbf" points="3778.16,-112.5 3778.16,-131.5 3852.16,-131.5 3852.16,-112.5 3778.16,-112.5"/>
<text text-anchor="middle" x="3815.16" y="-119.5" font-family="Helvetica,sans-Serif" font-size="10.00">system_error</text>
</g>
<!-- Node65&#45;&gt;Node73 -->
<g id="edge149" class="edge">
<title>Node65&#45;&gt;Node73</title>
<path fill="none" stroke="midnightblue" d="M3131.43,-353.69C3232.18,-348.75 3449.55,-335.54 3520.16,-311 3636.86,-270.43 3754.37,-175.62 3797.71,-138.39"/>
<polygon fill="midnightblue" stroke="midnightblue" points="3800.11,-140.95 3805.37,-131.75 3795.52,-135.66 3800.11,-140.95"/>
</g>
<!-- Node74 -->
<g id="node46" class="node">
<title>Node74</title>
<g id="a_node46"><a xlink:href="Format_8h.html" target="_top" xlink:title="llvm/Support/Format.h">
<polygon fill="none" stroke="red" points="3302.66,-291.5 3302.66,-310.5 3415.66,-310.5 3415.66,-291.5 3302.66,-291.5"/>
<text text-anchor="middle" x="3359.16" y="-298.5" font-family="Helvetica,sans-Serif" font-size="10.00">llvm/Support/Format.h</text>
</a>
</g>
</g>
<!-- Node65&#45;&gt;Node74 -->
<g id="edge125" class="edge">
<title>Node65&#45;&gt;Node74</title>
<path fill="none" stroke="midnightblue" d="M3123.52,-347.44C3172.78,-337.94 3252.28,-322.61 3305.13,-312.42"/>
<polygon fill="midnightblue" stroke="midnightblue" points="3305.84,-315.85 3315,-310.52 3304.51,-308.97 3305.84,-315.85"/>
</g>
<!-- Node76 -->
<g id="node47" class="node">
<title>Node76</title>
<g id="a_node47"><a xlink:href="raw__ostream_8h.html" target="_top" xlink:title="llvm/Support/raw_ostream.h">
<polygon fill="none" stroke="black" points="2411.66,-230 2411.66,-249 2550.66,-249 2550.66,-230 2411.66,-230"/>
<text text-anchor="middle" x="2481.16" y="-237" font-family="Helvetica,sans-Serif" font-size="10.00">llvm/Support/raw_ostream.h</text>
</a>
</g>
</g>
<!-- Node65&#45;&gt;Node76 -->
<g id="edge131" class="edge">
<title>Node65&#45;&gt;Node76</title>
<path fill="none" stroke="midnightblue" d="M3027.15,-352.01C2957.43,-346.08 2830.05,-333.18 2723.16,-311 2647.71,-295.34 2561.56,-267.87 2515.13,-252.25"/>
<polygon fill="midnightblue" stroke="midnightblue" points="2516.16,-248.9 2505.57,-249.01 2513.91,-255.53 2516.16,-248.9"/>
</g>
<!-- Node68&#45;&gt;Node9 -->
<g id="edge107" class="edge">
<title>Node68&#45;&gt;Node9</title>
<path fill="none" stroke="midnightblue" d="M2928.54,-291.44C2933.71,-282.68 2941.17,-268.47 2944.16,-255 2952.71,-216.45 2955.91,-193.96 2926.16,-168 2876.7,-124.86 2411.36,-81.5 2279.08,-69.97"/>
<polygon fill="midnightblue" stroke="midnightblue" points="2278.99,-66.45 2268.73,-69.07 2278.39,-73.42 2278.99,-66.45"/>
</g>
<!-- Node68&#45;&gt;Node27 -->
<g id="edge111" class="edge">
<title>Node68&#45;&gt;Node27</title>
<path fill="none" stroke="midnightblue" d="M2984.8,-294.66C3000.56,-293.38 3017.48,-292.07 3033.16,-291 3470.97,-261.1 3600.24,-330.91 4015.16,-188 4121.15,-151.49 4182.05,-171.26 4241.16,-76 4245.84,-68.45 4247.3,-62.42 4241.16,-56 4205.24,-18.5 3397.46,-12.08 3228.84,-11.14"/>
<polygon fill="midnightblue" stroke="midnightblue" points="3228.69,-7.64 3218.67,-11.09 3228.65,-14.64 3228.69,-7.64"/>
</g>
<!-- Node68&#45;&gt;Node18 -->
<g id="edge106" class="edge">
<title>Node68&#45;&gt;Node18</title>
<path fill="none" stroke="midnightblue" d="M2962.59,-291.45C3087.72,-263.92 3469.57,-176.83 3503.16,-132 3508.49,-124.89 3508.83,-118.84 3503.16,-112 3477.37,-80.96 3357.57,-71.21 3297.17,-68.25"/>
<polygon fill="midnightblue" stroke="midnightblue" points="3297.11,-64.74 3286.96,-67.78 3296.79,-71.73 3297.11,-64.74"/>
</g>
<!-- Node68&#45;&gt;Node28 -->
<g id="edge108" class="edge">
<title>Node68&#45;&gt;Node28</title>
<path fill="none" stroke="midnightblue" d="M2861.3,-300.03C2561.87,-299.65 1261.48,-291.94 872.16,-188 818.77,-173.75 805.8,-164.56 761.16,-132 741.87,-117.93 723.11,-97.9 710.94,-83.8"/>
<polygon fill="midnightblue" stroke="midnightblue" points="713.39,-81.28 704.27,-75.9 708.04,-85.8 713.39,-81.28"/>
</g>
<!-- Node68&#45;&gt;Node34 -->
<g id="edge110" class="edge">
<title>Node68&#45;&gt;Node34</title>
<path fill="none" stroke="midnightblue" d="M2925.22,-291.36C2930.28,-267.72 2940.57,-201.55 2906.16,-168 2850.17,-113.42 2633.83,-140.92 2556.16,-132 2543.74,-130.58 2530.13,-128.88 2518.17,-127.35"/>
<polygon fill="midnightblue" stroke="midnightblue" points="2518.53,-123.87 2508.16,-126.06 2517.63,-130.81 2518.53,-123.87"/>
</g>
<!-- Node68&#45;&gt;Node56 -->
<g id="edge97" class="edge">
<title>Node68&#45;&gt;Node56</title>
<path fill="none" stroke="midnightblue" d="M2861.51,-294.76C2764.14,-286.46 2568.78,-269.72 2403.16,-255 2371.91,-252.22 2337.22,-249.07 2308.24,-246.41"/>
<polygon fill="midnightblue" stroke="midnightblue" points="2308.52,-242.92 2298.24,-245.49 2307.88,-249.89 2308.52,-242.92"/>
</g>
<!-- Node68&#45;&gt;Node17 -->
<g id="edge112" class="edge">
<title>Node68&#45;&gt;Node17</title>
<path fill="none" stroke="midnightblue" d="M2984.84,-294.1C3134.45,-279.17 3512.83,-237.53 3629.16,-188 3667.1,-171.84 3684.79,-168.93 3703.16,-132 3714.19,-109.81 3688.13,-90.93 3665.36,-79.33"/>
<polygon fill="midnightblue" stroke="midnightblue" points="3666.77,-76.13 3656.24,-74.96 3663.74,-82.44 3666.77,-76.13"/>
</g>
<!-- Node68&#45;&gt;Node29 -->
<g id="edge109" class="edge">
<title>Node68&#45;&gt;Node29</title>
<path fill="none" stroke="midnightblue" d="M2984.82,-294.95C3078.37,-287.17 3261.71,-271.41 3417.16,-255 3665.56,-228.78 3809.4,-374.85 3975.16,-188 4001.38,-158.44 3974.94,-109.5 3957.61,-83.86"/>
<polygon fill="midnightblue" stroke="midnightblue" points="3960.38,-81.7 3951.76,-75.54 3954.66,-85.73 3960.38,-81.7"/>
</g>
<!-- Node68&#45;&gt;Node12 -->
<g id="edge98" class="edge">
<title>Node68&#45;&gt;Node12</title>
<path fill="none" stroke="midnightblue" d="M2963.9,-291.48C2990.79,-284.56 3025.95,-272.96 3053.16,-255 3077.12,-239.18 3098.26,-213.16 3110.63,-196.05"/>
<polygon fill="midnightblue" stroke="midnightblue" points="3113.69,-197.78 3116.56,-187.58 3107.96,-193.76 3113.69,-197.78"/>
</g>
<!-- Node68&#45;&gt;Node70 -->
<g id="edge99" class="edge">
<title>Node68&#45;&gt;Node70</title>
<path fill="none" stroke="midnightblue" d="M2912.55,-291.48C2900.9,-282.11 2881.97,-266.88 2867.82,-255.51"/>
<polygon fill="midnightblue" stroke="midnightblue" points="2869.72,-252.55 2859.74,-249.01 2865.34,-258 2869.72,-252.55"/>
</g>
<!-- Node70&#45;&gt;Node27 -->
<g id="edge105" class="edge">
<title>Node70&#45;&gt;Node27</title>
<path fill="none" stroke="midnightblue" d="M2896.69,-238.01C3097.74,-235.73 3872.65,-224.62 3975.16,-188 4053.51,-160.01 4087.87,-150.38 4125.16,-76 4129.14,-68.05 4131.29,-62.44 4125.16,-56 4093.58,-22.85 3387.31,-13.09 3229.32,-11.32"/>
<polygon fill="midnightblue" stroke="midnightblue" points="3228.94,-7.82 3218.91,-11.21 3228.87,-14.82 3228.94,-7.82"/>
</g>
<!-- Node70&#45;&gt;Node18 -->
<g id="edge103" class="edge">
<title>Node70&#45;&gt;Node18</title>
<path fill="none" stroke="midnightblue" d="M2896.88,-235.4C2977.64,-229.49 3137.23,-214.75 3186.16,-188 3226.12,-166.15 3247.86,-113.39 3256.95,-85.31"/>
<polygon fill="midnightblue" stroke="midnightblue" points="3260.35,-86.14 3259.92,-75.56 3253.66,-84.1 3260.35,-86.14"/>
</g>
<!-- Node70&#45;&gt;Node28 -->
<g id="edge104" class="edge">
<title>Node70&#45;&gt;Node28</title>
<path fill="none" stroke="midnightblue" d="M2801.61,-235.71C2744.36,-232.45 2645.25,-227.1 2560.16,-224 2383.45,-217.57 1141.69,-226.69 969.16,-188 956.33,-185.12 792.03,-110.37 725.17,-79.82"/>
<polygon fill="midnightblue" stroke="midnightblue" points="726.59,-76.62 716.04,-75.65 723.68,-82.99 726.59,-76.62"/>
</g>
<!-- Node70&#45;&gt;Node26 -->
<g id="edge102" class="edge">
<title>Node70&#45;&gt;Node26</title>
<path fill="none" stroke="midnightblue" d="M2801.58,-236.08C2730.27,-231.47 2600.5,-218.97 2567.16,-188 2538.65,-161.52 2534.87,-112.71 2535.17,-85.88"/>
<polygon fill="midnightblue" stroke="midnightblue" points="2538.67,-85.67 2535.5,-75.56 2531.68,-85.45 2538.67,-85.67"/>
</g>
<!-- Node70&#45;&gt;Node36 -->
<g id="edge100" class="edge">
<title>Node70&#45;&gt;Node36</title>
<path fill="none" stroke="midnightblue" d="M2801.63,-232.74C2715.07,-222.25 2531.3,-199.98 2429.6,-187.66"/>
<polygon fill="midnightblue" stroke="midnightblue" points="2429.76,-184.15 2419.41,-186.42 2428.92,-191.1 2429.76,-184.15"/>
</g>
<!-- Node70&#45;&gt;Node12 -->
<g id="edge101" class="edge">
<title>Node70&#45;&gt;Node12</title>
<path fill="none" stroke="midnightblue" d="M2888.27,-229.98C2937.02,-219.35 3020.37,-201.18 3073.28,-189.65"/>
<polygon fill="midnightblue" stroke="midnightblue" points="3074.09,-193.06 3083.11,-187.51 3072.6,-186.22 3074.09,-193.06"/>
</g>
<!-- Node72&#45;&gt;Node3 -->
<g id="edge123" class="edge">
<title>Node72&#45;&gt;Node3</title>
<path fill="none" stroke="midnightblue" d="M3506.08,-171.67C3369.45,-159.12 3012.73,-127.59 2714.16,-112 2089.17,-79.37 1326.57,-69.41 1143.2,-67.41"/>
<polygon fill="midnightblue" stroke="midnightblue" points="1143.22,-63.91 1133.18,-67.31 1143.14,-70.91 1143.22,-63.91"/>
</g>
<!-- Node72&#45;&gt;Node5 -->
<g id="edge120" class="edge">
<title>Node72&#45;&gt;Node5</title>
<path fill="none" stroke="midnightblue" d="M3505.92,-174.97C3269.33,-166.55 2368.05,-134.51 2112.23,-125.42"/>
<polygon fill="midnightblue" stroke="midnightblue" points="2112.08,-121.91 2101.97,-125.06 2111.84,-128.91 2112.08,-121.91"/>
</g>
<!-- Node72&#45;&gt;Node18 -->
<g id="edge121" class="edge">
<title>Node72&#45;&gt;Node18</title>
<path fill="none" stroke="midnightblue" d="M3592.08,-168.42C3625.04,-157.23 3671.73,-136.22 3650.16,-112 3626.81,-85.79 3387.42,-72.54 3296.72,-68.43"/>
<polygon fill="midnightblue" stroke="midnightblue" points="3296.82,-64.93 3286.67,-67.99 3296.51,-71.93 3296.82,-64.93"/>
</g>
<!-- Node72&#45;&gt;Node17 -->
<g id="edge124" class="edge">
<title>Node72&#45;&gt;Node17</title>
<path fill="none" stroke="midnightblue" d="M3620.29,-171.06C3645.43,-165.28 3672.7,-153.98 3688.16,-132 3700.98,-113.75 3679.44,-93.88 3660.3,-80.97"/>
<polygon fill="midnightblue" stroke="midnightblue" points="3662.13,-77.99 3651.82,-75.56 3658.37,-83.89 3662.13,-77.99"/>
</g>
<!-- Node72&#45;&gt;Node73 -->
<g id="edge122" class="edge">
<title>Node72&#45;&gt;Node73</title>
<path fill="none" stroke="midnightblue" d="M3603.09,-168.44C3647.82,-158.86 3720.29,-143.33 3767.83,-133.14"/>
<polygon fill="midnightblue" stroke="midnightblue" points="3768.83,-136.51 3777.88,-130.99 3767.37,-129.66 3768.83,-136.51"/>
</g>
<!-- Node74&#45;&gt;Node18 -->
<g id="edge129" class="edge">
<title>Node74&#45;&gt;Node18</title>
<path fill="none" stroke="midnightblue" d="M3364.24,-291.21C3377.86,-268.31 3417.3,-205.99 3464.16,-168 3495.65,-142.47 3562.4,-142.9 3536.16,-112 3505.87,-76.34 3363.97,-68.88 3297.14,-67.37"/>
<polygon fill="midnightblue" stroke="midnightblue" points="3297.15,-63.86 3287.09,-67.17 3297.02,-70.86 3297.15,-63.86"/>
</g>
<!-- Node74&#45;&gt;Node56 -->
<g id="edge126" class="edge">
<title>Node74&#45;&gt;Node56</title>
<path fill="none" stroke="midnightblue" d="M3302.47,-291.82C3299.66,-291.52 3296.88,-291.24 3294.16,-291 2899.4,-255.78 2798.62,-281 2403.16,-255 2371.86,-252.94 2337.16,-249.87 2308.19,-247.08"/>
<polygon fill="midnightblue" stroke="midnightblue" points="2308.48,-243.6 2298.19,-246.11 2307.81,-250.56 2308.48,-243.6"/>
</g>
<!-- Node74&#45;&gt;Node17 -->
<g id="edge130" class="edge">
<title>Node74&#45;&gt;Node17</title>
<path fill="none" stroke="midnightblue" d="M3406.1,-291.44C3520.13,-269.59 3806.39,-208.08 3861.16,-132 3866.35,-124.79 3866.79,-118.87 3861.16,-112 3848.85,-96.99 3724.9,-78.76 3666.41,-70.9"/>
<polygon fill="midnightblue" stroke="midnightblue" points="3666.67,-67.41 3656.29,-69.56 3665.75,-74.35 3666.67,-67.41"/>
</g>
<!-- Node74&#45;&gt;Node13 -->
<g id="edge127" class="edge">
<title>Node74&#45;&gt;Node13</title>
<path fill="none" stroke="midnightblue" d="M3355.46,-291.49C3346.41,-269.28 3325.65,-208.48 3350.16,-168 3359.57,-152.46 3376.31,-142.02 3392.54,-135.15"/>
<polygon fill="midnightblue" stroke="midnightblue" points="3393.9,-138.37 3401.97,-131.51 3391.38,-131.85 3393.9,-138.37"/>
</g>
<!-- Node74&#45;&gt;Node12 -->
<g id="edge128" class="edge">
<title>Node74&#45;&gt;Node12</title>
<path fill="none" stroke="midnightblue" d="M3342.49,-291.49C3301.79,-270.71 3197.1,-217.27 3148.14,-192.26"/>
<polygon fill="midnightblue" stroke="midnightblue" points="3149.62,-189.09 3139.12,-187.66 3146.43,-195.33 3149.62,-189.09"/>
</g>
<!-- Node76&#45;&gt;Node3 -->
<g id="edge140" class="edge">
<title>Node76&#45;&gt;Node3</title>
<path fill="none" stroke="midnightblue" d="M2438,-229.97C2358.63,-214.66 2183.96,-182.75 2035.16,-168 1937.66,-158.34 1241.57,-176.23 1154.16,-132 1134.27,-121.94 1119.47,-100.41 1110.85,-84.88"/>
<polygon fill="midnightblue" stroke="midnightblue" points="1113.8,-82.98 1106.08,-75.73 1107.6,-86.21 1113.8,-82.98"/>
</g>
<!-- Node76&#45;&gt;Node9 -->
<g id="edge135" class="edge">
<title>Node76&#45;&gt;Node9</title>
<path fill="none" stroke="midnightblue" d="M2411.57,-235.94C2371.07,-230.97 2321.56,-218.44 2288.16,-188 2258.52,-160.99 2248.81,-112.43 2245.66,-85.77"/>
<polygon fill="midnightblue" stroke="midnightblue" points="2249.14,-85.42 2244.67,-75.82 2242.17,-86.12 2249.14,-85.42"/>
</g>
<!-- Node76&#45;&gt;Node27 -->
<g id="edge138" class="edge">
<title>Node76&#45;&gt;Node27</title>
<path fill="none" stroke="midnightblue" d="M2521.53,-229.98C2563.86,-220.76 2632.14,-205.07 2690.16,-188 2874.08,-133.88 3089.69,-52.74 3167.9,-22.72"/>
<polygon fill="midnightblue" stroke="midnightblue" points="3169.51,-25.85 3177.59,-18.99 3167,-19.31 3169.51,-25.85"/>
</g>
<!-- Node76&#45;&gt;Node18 -->
<g id="edge134" class="edge">
<title>Node76&#45;&gt;Node18</title>
<path fill="none" stroke="midnightblue" d="M2550.83,-230.22C2567.94,-228.18 2586.21,-226.01 2603.16,-224 2841.87,-195.63 2910.97,-216.13 3136.16,-132 3173.98,-117.87 3215.07,-95.16 3239.7,-80.67"/>
<polygon fill="midnightblue" stroke="midnightblue" points="3241.5,-83.67 3248.3,-75.55 3237.92,-77.66 3241.5,-83.67"/>
</g>
<!-- Node76&#45;&gt;Node28 -->
<g id="edge136" class="edge">
<title>Node76&#45;&gt;Node28</title>
<path fill="none" stroke="midnightblue" d="M2411.37,-231.77C2379.6,-228.94 2341.51,-225.88 2307.16,-224 2155,-215.67 1084.12,-224.43 936.16,-188 849.01,-166.54 757.45,-108.68 717.64,-81.49"/>
<polygon fill="midnightblue" stroke="midnightblue" points="719.52,-78.54 709.31,-75.73 715.54,-84.29 719.52,-78.54"/>
</g>
<!-- Node76&#45;&gt;Node34 -->
<g id="edge137" class="edge">
<title>Node76&#45;&gt;Node34</title>
<path fill="none" stroke="midnightblue" d="M2481.46,-229.82C2482.1,-211.26 2483.62,-167.34 2484.5,-141.97"/>
<polygon fill="midnightblue" stroke="midnightblue" points="2488,-141.9 2484.85,-131.78 2481.01,-141.65 2488,-141.9"/>
</g>
<!-- Node76&#45;&gt;Node36 -->
<g id="edge132" class="edge">
<title>Node76&#45;&gt;Node36</title>
<path fill="none" stroke="midnightblue" d="M2463.53,-229.98C2442.98,-220.03 2408.79,-203.49 2384.95,-191.96"/>
<polygon fill="midnightblue" stroke="midnightblue" points="2386.27,-188.71 2375.75,-187.51 2383.22,-195.01 2386.27,-188.71"/>
</g>
<!-- Node76&#45;&gt;Node12 -->
<g id="edge133" class="edge">
<title>Node76&#45;&gt;Node12</title>
<path fill="none" stroke="midnightblue" d="M2549.51,-229.99C2566.99,-227.92 2585.76,-225.79 2603.16,-224 2647.17,-219.48 2927.19,-195.57 3056.66,-184.56"/>
<polygon fill="midnightblue" stroke="midnightblue" points="3057.17,-188.03 3066.84,-183.7 3056.58,-181.06 3057.17,-188.03"/>
</g>
<!-- Node76&#45;&gt;Node73 -->
<g id="edge139" class="edge">
<title>Node76&#45;&gt;Node73</title>
<path fill="none" stroke="midnightblue" d="M2550.86,-235.19C2614.08,-232.21 2709.87,-227.73 2793.16,-224 2978.92,-215.68 3446.54,-223.05 3629.16,-188 3687.19,-176.86 3751.6,-151.16 3787.36,-135.62"/>
<polygon fill="midnightblue" stroke="midnightblue" points="3788.91,-138.76 3796.65,-131.52 3786.09,-132.35 3788.91,-138.76"/>
</g>
<!-- Node77&#45;&gt;Node3 -->
<g id="edge173" class="edge">
<title>Node77&#45;&gt;Node3</title>
<path fill="none" stroke="midnightblue" d="M1036.3,-168.38C1036.89,-155.3 1039.45,-130.08 1050.16,-112 1057.38,-99.8 1069.09,-89.24 1079.57,-81.42"/>
<polygon fill="midnightblue" stroke="midnightblue" points="1081.8,-84.13 1087.96,-75.52 1077.77,-78.41 1081.8,-84.13"/>
</g>
<!-- Node77&#45;&gt;Node6 -->
<g id="edge169" class="edge">
<title>Node77&#45;&gt;Node6</title>
<path fill="none" stroke="midnightblue" d="M1033.44,-168.23C1027.17,-146.04 1014.39,-87.25 1044.16,-56 1065.7,-33.38 1256.41,-20.08 1362.94,-14.35"/>
<polygon fill="midnightblue" stroke="midnightblue" points="1363.17,-17.84 1372.97,-13.82 1362.8,-10.85 1363.17,-17.84"/>
</g>
<!-- Node77&#45;&gt;Node18 -->
<g id="edge171" class="edge">
<title>Node77&#45;&gt;Node18</title>
<path fill="none" stroke="midnightblue" d="M1094.44,-173.11C1201.57,-165.85 1436.99,-149.4 1635.16,-132 1723.7,-124.23 1745.46,-117.85 1834.16,-112 1976.93,-102.59 3022.48,-73.58 3227.38,-67.95"/>
<polygon fill="midnightblue" stroke="midnightblue" points="3227.66,-71.45 3237.56,-67.67 3227.47,-64.45 3227.66,-71.45"/>
</g>
<!-- Node77&#45;&gt;Node16 -->
<g id="edge170" class="edge">
<title>Node77&#45;&gt;Node16</title>
<path fill="none" stroke="midnightblue" d="M1073.23,-168.44C1113.88,-159.06 1179.19,-143.99 1223.34,-133.8"/>
<polygon fill="midnightblue" stroke="midnightblue" points="1224.29,-137.18 1233.25,-131.52 1222.72,-130.35 1224.29,-137.18"/>
</g>
<!-- Node77&#45;&gt;Node19 -->
<g id="edge172" class="edge">
<title>Node77&#45;&gt;Node19</title>
<path fill="none" stroke="midnightblue" d="M1052.51,-168.38C1081,-153.85 1141.95,-124.79 1197.16,-112 1311,-85.63 1672.79,-71.92 1788.91,-68.11"/>
<polygon fill="midnightblue" stroke="midnightblue" points="1789.17,-71.61 1799.05,-67.79 1788.94,-64.61 1789.17,-71.61"/>
</g>
<!-- Node78&#45;&gt;Node3 -->
<g id="edge187" class="edge">
<title>Node78&#45;&gt;Node3</title>
<path fill="none" stroke="midnightblue" d="M2163.82,-617.02C1866.64,-609.61 687.16,-570.68 687.16,-419.5 687.16,-419.5 687.16,-419.5 687.16,-356 687.16,-175.02 956.23,-98.12 1061.05,-75.02"/>
<polygon fill="midnightblue" stroke="midnightblue" points="1061.92,-78.42 1070.96,-72.89 1060.45,-71.57 1061.92,-78.42"/>
</g>
<!-- Node78&#45;&gt;Node4 -->
<g id="edge183" class="edge">
<title>Node78&#45;&gt;Node4</title>
<path fill="none" stroke="midnightblue" d="M2163.87,-616.58C2044.76,-612.41 1802.04,-600.13 1724.16,-568 1587.48,-511.62 1466.16,-505.85 1466.16,-358 1466.16,-358 1466.16,-358 1466.16,-300 1466.16,-258.74 1437.25,-217.41 1418.91,-195.35"/>
<polygon fill="midnightblue" stroke="midnightblue" points="1421.44,-192.92 1412.26,-187.62 1416.13,-197.48 1421.44,-192.92"/>
</g>
<!-- Node78&#45;&gt;Node27 -->
<g id="edge186" class="edge">
<title>Node78&#45;&gt;Node27</title>
<path fill="none" stroke="midnightblue" d="M2298.36,-618.47C2582.62,-618.04 3687.34,-613.43 4032.16,-568 4187.07,-547.59 4374.16,-642.76 4374.16,-486.5 4374.16,-486.5 4374.16,-486.5 4374.16,-121 4374.16,-71.66 4330.78,-72.15 4284.16,-56 4182.19,-20.68 3395.49,-12.55 3229.03,-11.22"/>
<polygon fill="midnightblue" stroke="midnightblue" points="3229.01,-7.72 3218.98,-11.14 3228.95,-14.72 3229.01,-7.72"/>
</g>
<!-- Node78&#45;&gt;Node56 -->
<g id="edge175" class="edge">
<title>Node78&#45;&gt;Node56</title>
<path fill="none" stroke="midnightblue" d="M2163.98,-616.09C2019.49,-609.08 1692.16,-582.6 1692.16,-486.5 1692.16,-486.5 1692.16,-486.5 1692.16,-356 1692.16,-257.34 2034.27,-242.44 2179.84,-240.56"/>
<polygon fill="midnightblue" stroke="midnightblue" points="2180.01,-244.06 2189.97,-240.45 2179.93,-237.06 2180.01,-244.06"/>
</g>
<!-- Node78&#45;&gt;Node16 -->
<g id="edge185" class="edge">
<title>Node78&#45;&gt;Node16</title>
<path fill="none" stroke="midnightblue" d="M2164.02,-616.01C2030,-610.53 1733.79,-595.62 1636.16,-568 1572.47,-549.98 1561.62,-532.03 1503.16,-501 1449.2,-472.36 1422.74,-480.52 1383.16,-434 1305.45,-342.69 1279.34,-193.55 1272.34,-141.57"/>
<polygon fill="midnightblue" stroke="midnightblue" points="1275.8,-140.99 1271.07,-131.51 1268.85,-141.87 1275.8,-140.99"/>
</g>
<!-- Node78&#45;&gt;Node13 -->
<g id="edge176" class="edge">
<title>Node78&#45;&gt;Node13</title>
<path fill="none" stroke="midnightblue" d="M2298.39,-618.47C2572.87,-618.06 3600.51,-613.46 3738.16,-568 3837.66,-535.14 3870.17,-518.49 3932.16,-434 3971.06,-380.98 4000.71,-349.23 3970.16,-291 3945.81,-244.6 3921.09,-245.16 3873.16,-224 3749.48,-169.39 3592.55,-142.4 3504.36,-130.68"/>
<polygon fill="midnightblue" stroke="midnightblue" points="3504.58,-127.18 3494.22,-129.36 3503.68,-134.12 3504.58,-127.18"/>
</g>
<!-- Node78&#45;&gt;Node60 -->
<g id="edge177" class="edge">
<title>Node78&#45;&gt;Node60</title>
<path fill="none" stroke="midnightblue" d="M2251.77,-604.4C2265.09,-595.28 2282.62,-583.29 2297.31,-573.24"/>
<polygon fill="midnightblue" stroke="midnightblue" points="2299.31,-576.11 2305.58,-567.58 2295.35,-570.33 2299.31,-576.11"/>
</g>
<!-- Node78&#45;&gt;Node61 -->
<g id="edge178" class="edge">
<title>Node78&#45;&gt;Node61</title>
<path fill="none" stroke="midnightblue" d="M2212.86,-604.37C2182.51,-580.95 2121.67,-533.99 2086.64,-506.94"/>
<polygon fill="midnightblue" stroke="midnightblue" points="2088.38,-503.86 2078.32,-500.52 2084.1,-509.41 2088.38,-503.86"/>
</g>
<!-- Node78&#45;&gt;Node65 -->
<g id="edge184" class="edge">
<title>Node78&#45;&gt;Node65</title>
<path fill="none" stroke="midnightblue" d="M2298.57,-618.78C2581.84,-619.62 3663.42,-619.46 3713.16,-568 3764.12,-515.27 3763.14,-456.66 3713.16,-403 3674.72,-361.74 3293.38,-357.68 3141.3,-357.72"/>
<polygon fill="midnightblue" stroke="midnightblue" points="3141.18,-354.22 3131.19,-357.73 3141.19,-361.22 3141.18,-354.22"/>
</g>
<!-- Node79 -->
<g id="node50" class="node">
<title>Node79</title>
<g id="a_node50"><a xlink:href="ConvertUTF_8h.html" target="_top" xlink:title="llvm/Support/ConvertUTF.h">
<polygon fill="none" stroke="black" points="3828.66,-168.5 3828.66,-187.5 3965.66,-187.5 3965.66,-168.5 3828.66,-168.5"/>
<text text-anchor="middle" x="3897.16" y="-175.5" font-family="Helvetica,sans-Serif" font-size="10.00">llvm/Support/ConvertUTF.h</text>
</a>
</g>
</g>
<!-- Node78&#45;&gt;Node79 -->
<g id="edge179" class="edge">
<title>Node78&#45;&gt;Node79</title>
<path fill="none" stroke="midnightblue" d="M2298.38,-618.39C2565.87,-617.63 3555.16,-611.85 3865.16,-568 4010.05,-547.51 4184.16,-632.83 4184.16,-486.5 4184.16,-486.5 4184.16,-486.5 4184.16,-300 4184.16,-209.33 4061.02,-185.52 3976.06,-179.89"/>
<polygon fill="midnightblue" stroke="midnightblue" points="3976.09,-176.39 3965.9,-179.29 3975.68,-183.38 3976.09,-176.39"/>
</g>
<!-- Node79&#45;&gt;Node9 -->
<g id="edge180" class="edge">
<title>Node79&#45;&gt;Node9</title>
<path fill="none" stroke="midnightblue" d="M3895.27,-168.34C3891.59,-153.74 3881.89,-124.58 3861.16,-112 3794.4,-71.5 2534.19,-78.66 2456.16,-76 2393.84,-73.88 2321.25,-70.63 2279.21,-68.67"/>
<polygon fill="midnightblue" stroke="midnightblue" points="2279.11,-65.16 2268.96,-68.19 2278.78,-72.15 2279.11,-65.16"/>
</g>
<!-- Node79&#45;&gt;Node27 -->
<g id="edge181" class="edge">
<title>Node79&#45;&gt;Node27</title>
<path fill="none" stroke="midnightblue" d="M3907.92,-168.39C3922.97,-155.32 3946.86,-130.11 3932.16,-112 3886.95,-56.33 3363.63,-21.01 3229.38,-12.83"/>
<polygon fill="midnightblue" stroke="midnightblue" points="3229.19,-9.31 3219,-12.2 3228.77,-16.3 3229.19,-9.31"/>
</g>
<!-- Node79&#45;&gt;Node73 -->
<g id="edge182" class="edge">
<title>Node79&#45;&gt;Node73</title>
<path fill="none" stroke="midnightblue" d="M3883.98,-168.32C3871.31,-159.98 3851.92,-147.21 3836.95,-137.35"/>
<polygon fill="midnightblue" stroke="midnightblue" points="3838.57,-134.23 3828.3,-131.65 3834.72,-140.08 3838.57,-134.23"/>
</g>
</g>
</svg>
