<?xml version="1.0" encoding="UTF-8" standalone="no"?>
<!DOCTYPE svg PUBLIC "-//W3C//DTD SVG 1.1//EN"
 "http://www.w3.org/Graphics/SVG/1.1/DTD/svg11.dtd">
<!-- Generated by graphviz version 2.43.0 (0)
 -->
<!-- Title: include/llvm/DebugInfo/CodeView/DebugCrossExSubsection.h Pages: 1 -->
<svg width="530pt" height="106pt"
 viewBox="0.00 0.00 530.00 106.00" xmlns="http://www.w3.org/2000/svg" xmlns:xlink="http://www.w3.org/1999/xlink">
<g id="graph0" class="graph" transform="scale(1 1) rotate(0) translate(4 102)">
<title>include/llvm/DebugInfo/CodeView/DebugCrossExSubsection.h</title>
<!-- Node81 -->
<g id="node1" class="node">
<title>Node81</title>
<polygon fill="#bfbfbf" stroke="black" points="148.5,-67.5 148.5,-97.5 339.5,-97.5 339.5,-67.5 148.5,-67.5"/>
<text text-anchor="start" x="156.5" y="-85.5" font-family="Helvetica,sans-Serif" font-size="10.00">include/llvm/DebugInfo</text>
<text text-anchor="middle" x="244" y="-74.5" font-family="Helvetica,sans-Serif" font-size="10.00">/CodeView/DebugCrossExSubsection.h</text>
</g>
<!-- Node82 -->
<g id="node2" class="node">
<title>Node82</title>
<g id="a_node2"><a xlink:href="DebugCrossExSubsection_8cpp.html" target="_top" xlink:title="lib/DebugInfo/CodeView\l/DebugCrossExSubsection.cpp">
<polygon fill="none" stroke="black" points="0,-0.5 0,-30.5 154,-30.5 154,-0.5 0,-0.5"/>
<text text-anchor="start" x="8" y="-18.5" font-family="Helvetica,sans-Serif" font-size="10.00">lib/DebugInfo/CodeView</text>
<text text-anchor="middle" x="77" y="-7.5" font-family="Helvetica,sans-Serif" font-size="10.00">/DebugCrossExSubsection.cpp</text>
</a>
</g>
</g>
<!-- Node81&#45;&gt;Node82 -->
<g id="edge1" class="edge">
<title>Node81&#45;&gt;Node82</title>
<path fill="none" stroke="midnightblue" d="M198.22,-63.68C171.44,-53.26 138.1,-40.28 113.17,-30.58"/>
<polygon fill="midnightblue" stroke="midnightblue" points="197.17,-67.03 207.76,-67.4 199.71,-60.51 197.17,-67.03"/>
</g>
<!-- Node83 -->
<g id="node3" class="node">
<title>Node83</title>
<g id="a_node3"><a xlink:href="DebugSubsectionVisitor_8cpp.html" target="_top" xlink:title="lib/DebugInfo/CodeView\l/DebugSubsectionVisitor.cpp">
<polygon fill="none" stroke="black" points="172.5,-0.5 172.5,-30.5 315.5,-30.5 315.5,-0.5 172.5,-0.5"/>
<text text-anchor="start" x="180.5" y="-18.5" font-family="Helvetica,sans-Serif" font-size="10.00">lib/DebugInfo/CodeView</text>
<text text-anchor="middle" x="244" y="-7.5" font-family="Helvetica,sans-Serif" font-size="10.00">/DebugSubsectionVisitor.cpp</text>
</a>
</g>
</g>
<!-- Node81&#45;&gt;Node83 -->
<g id="edge2" class="edge">
<title>Node81&#45;&gt;Node83</title>
<path fill="none" stroke="midnightblue" d="M244,-57.11C244,-48.15 244,-38.32 244,-30.58"/>
<polygon fill="midnightblue" stroke="midnightblue" points="240.5,-57.4 244,-67.4 247.5,-57.4 240.5,-57.4"/>
</g>
<!-- Node84 -->
<g id="node4" class="node">
<title>Node84</title>
<g id="a_node4"><a xlink:href="CodeViewYAMLDebugSections_8cpp.html" target="_top" xlink:title="lib/ObjectYAML/CodeViewYAMLDebug\lSections.cpp">
<polygon fill="none" stroke="black" points="334,-0.5 334,-30.5 522,-30.5 522,-0.5 334,-0.5"/>
<text text-anchor="start" x="342" y="-18.5" font-family="Helvetica,sans-Serif" font-size="10.00">lib/ObjectYAML/CodeViewYAMLDebug</text>
<text text-anchor="middle" x="428" y="-7.5" font-family="Helvetica,sans-Serif" font-size="10.00">Sections.cpp</text>
</a>
</g>
</g>
<!-- Node81&#45;&gt;Node84 -->
<g id="edge3" class="edge">
<title>Node81&#45;&gt;Node84</title>
<path fill="none" stroke="midnightblue" d="M293.67,-63.96C323.3,-53.48 360.44,-40.37 388.15,-30.58"/>
<polygon fill="midnightblue" stroke="midnightblue" points="292.19,-60.76 283.93,-67.4 294.52,-67.37 292.19,-60.76"/>
</g>
</g>
</svg>
