<?xml version="1.0" encoding="UTF-8" standalone="no"?>
<!DOCTYPE svg PUBLIC "-//W3C//DTD SVG 1.1//EN"
 "http://www.w3.org/Graphics/SVG/1.1/DTD/svg11.dtd">
<!-- Generated by graphviz version 2.43.0 (0)
 -->
<!-- Title: include/llvm/DebugInfo/CodeView/DebugSubsectionVisitor.h Pages: 1 -->
<svg width="358pt" height="106pt"
 viewBox="0.00 0.00 357.50 106.00" xmlns="http://www.w3.org/2000/svg" xmlns:xlink="http://www.w3.org/1999/xlink">
<g id="graph0" class="graph" transform="scale(1 1) rotate(0) translate(4 102)">
<title>include/llvm/DebugInfo/CodeView/DebugSubsectionVisitor.h</title>
<!-- Node89 -->
<g id="node1" class="node">
<title>Node89</title>
<polygon fill="#bfbfbf" stroke="black" points="73,-67.5 73,-97.5 254,-97.5 254,-67.5 73,-67.5"/>
<text text-anchor="start" x="81" y="-85.5" font-family="Helvetica,sans-Serif" font-size="10.00">include/llvm/DebugInfo</text>
<text text-anchor="middle" x="163.5" y="-74.5" font-family="Helvetica,sans-Serif" font-size="10.00">/CodeView/DebugSubsectionVisitor.h</text>
</g>
<!-- Node90 -->
<g id="node2" class="node">
<title>Node90</title>
<g id="a_node2"><a xlink:href="DebugSubsectionVisitor_8cpp.html" target="_top" xlink:title="lib/DebugInfo/CodeView\l/DebugSubsectionVisitor.cpp">
<polygon fill="none" stroke="black" points="0,-0.5 0,-30.5 143,-30.5 143,-0.5 0,-0.5"/>
<text text-anchor="start" x="8" y="-18.5" font-family="Helvetica,sans-Serif" font-size="10.00">lib/DebugInfo/CodeView</text>
<text text-anchor="middle" x="71.5" y="-7.5" font-family="Helvetica,sans-Serif" font-size="10.00">/DebugSubsectionVisitor.cpp</text>
</a>
</g>
</g>
<!-- Node89&#45;&gt;Node90 -->
<g id="edge1" class="edge">
<title>Node89&#45;&gt;Node90</title>
<path fill="none" stroke="midnightblue" d="M135.12,-61.45C120.97,-51.45 104.19,-39.6 91.42,-30.58"/>
<polygon fill="midnightblue" stroke="midnightblue" points="133.35,-64.48 143.54,-67.4 137.39,-58.77 133.35,-64.48"/>
</g>
<!-- Node91 -->
<g id="node3" class="node">
<title>Node91</title>
<g id="a_node3"><a xlink:href="CodeViewYAMLDebugSections_8cpp.html" target="_top" xlink:title="lib/ObjectYAML/CodeViewYAMLDebug\lSections.cpp">
<polygon fill="none" stroke="black" points="161.5,-0.5 161.5,-30.5 349.5,-30.5 349.5,-0.5 161.5,-0.5"/>
<text text-anchor="start" x="169.5" y="-18.5" font-family="Helvetica,sans-Serif" font-size="10.00">lib/ObjectYAML/CodeViewYAMLDebug</text>
<text text-anchor="middle" x="255.5" y="-7.5" font-family="Helvetica,sans-Serif" font-size="10.00">Sections.cpp</text>
</a>
</g>
</g>
<!-- Node89&#45;&gt;Node91 -->
<g id="edge2" class="edge">
<title>Node89&#45;&gt;Node91</title>
<path fill="none" stroke="midnightblue" d="M191.88,-61.45C206.03,-51.45 222.81,-39.6 235.58,-30.58"/>
<polygon fill="midnightblue" stroke="midnightblue" points="189.61,-58.77 183.46,-67.4 193.65,-64.48 189.61,-58.77"/>
</g>
</g>
</svg>
