<?xml version="1.0" encoding="UTF-8" standalone="no"?>
<!DOCTYPE svg PUBLIC "-//W3C//DTD SVG 1.1//EN"
 "http://www.w3.org/Graphics/SVG/1.1/DTD/svg11.dtd">
<!-- Generated by graphviz version 2.43.0 (0)
 -->
<!-- Title: include/llvm/DebugInfo/CodeView/DebugSymbolsSubsection.h Pages: 1 -->
<svg width="530pt" height="106pt"
 viewBox="0.00 0.00 529.50 106.00" xmlns="http://www.w3.org/2000/svg" xmlns:xlink="http://www.w3.org/1999/xlink">
<g id="graph0" class="graph" transform="scale(1 1) rotate(0) translate(4 102)">
<title>include/llvm/DebugInfo/CodeView/DebugSymbolsSubsection.h</title>
<!-- Node89 -->
<g id="node1" class="node">
<title>Node89</title>
<polygon fill="#bfbfbf" stroke="black" points="143,-67.5 143,-97.5 334,-97.5 334,-67.5 143,-67.5"/>
<text text-anchor="start" x="151" y="-85.5" font-family="Helvetica,sans-Serif" font-size="10.00">include/llvm/DebugInfo</text>
<text text-anchor="middle" x="238.5" y="-74.5" font-family="Helvetica,sans-Serif" font-size="10.00">/CodeView/DebugSymbolsSubsection.h</text>
</g>
<!-- Node90 -->
<g id="node2" class="node">
<title>Node90</title>
<g id="a_node2"><a xlink:href="DebugSubsectionVisitor_8cpp.html" target="_top" xlink:title="lib/DebugInfo/CodeView\l/DebugSubsectionVisitor.cpp">
<polygon fill="none" stroke="black" points="0,-0.5 0,-30.5 143,-30.5 143,-0.5 0,-0.5"/>
<text text-anchor="start" x="8" y="-18.5" font-family="Helvetica,sans-Serif" font-size="10.00">lib/DebugInfo/CodeView</text>
<text text-anchor="middle" x="71.5" y="-7.5" font-family="Helvetica,sans-Serif" font-size="10.00">/DebugSubsectionVisitor.cpp</text>
</a>
</g>
</g>
<!-- Node89&#45;&gt;Node90 -->
<g id="edge1" class="edge">
<title>Node89&#45;&gt;Node90</title>
<path fill="none" stroke="midnightblue" d="M192.72,-63.68C165.94,-53.26 132.6,-40.28 107.67,-30.58"/>
<polygon fill="midnightblue" stroke="midnightblue" points="191.67,-67.03 202.26,-67.4 194.21,-60.51 191.67,-67.03"/>
</g>
<!-- Node91 -->
<g id="node3" class="node">
<title>Node91</title>
<g id="a_node3"><a xlink:href="DebugSymbolsSubsection_8cpp.html" target="_top" xlink:title="lib/DebugInfo/CodeView\l/DebugSymbolsSubsection.cpp">
<polygon fill="none" stroke="black" points="161.5,-0.5 161.5,-30.5 315.5,-30.5 315.5,-0.5 161.5,-0.5"/>
<text text-anchor="start" x="169.5" y="-18.5" font-family="Helvetica,sans-Serif" font-size="10.00">lib/DebugInfo/CodeView</text>
<text text-anchor="middle" x="238.5" y="-7.5" font-family="Helvetica,sans-Serif" font-size="10.00">/DebugSymbolsSubsection.cpp</text>
</a>
</g>
</g>
<!-- Node89&#45;&gt;Node91 -->
<g id="edge2" class="edge">
<title>Node89&#45;&gt;Node91</title>
<path fill="none" stroke="midnightblue" d="M238.5,-57.11C238.5,-48.15 238.5,-38.32 238.5,-30.58"/>
<polygon fill="midnightblue" stroke="midnightblue" points="235,-57.4 238.5,-67.4 242,-57.4 235,-57.4"/>
</g>
<!-- Node92 -->
<g id="node4" class="node">
<title>Node92</title>
<g id="a_node4"><a xlink:href="CodeViewYAMLDebugSections_8cpp.html" target="_top" xlink:title="lib/ObjectYAML/CodeViewYAMLDebug\lSections.cpp">
<polygon fill="none" stroke="black" points="333.5,-0.5 333.5,-30.5 521.5,-30.5 521.5,-0.5 333.5,-0.5"/>
<text text-anchor="start" x="341.5" y="-18.5" font-family="Helvetica,sans-Serif" font-size="10.00">lib/ObjectYAML/CodeViewYAMLDebug</text>
<text text-anchor="middle" x="427.5" y="-7.5" font-family="Helvetica,sans-Serif" font-size="10.00">Sections.cpp</text>
</a>
</g>
</g>
<!-- Node89&#45;&gt;Node92 -->
<g id="edge3" class="edge">
<title>Node89&#45;&gt;Node92</title>
<path fill="none" stroke="midnightblue" d="M289.12,-64.09C319.63,-53.6 357.98,-40.41 386.57,-30.58"/>
<polygon fill="midnightblue" stroke="midnightblue" points="287.83,-60.83 279.51,-67.4 290.1,-67.45 287.83,-60.83"/>
</g>
</g>
</svg>
