<?xml version="1.0" encoding="UTF-8" standalone="no"?>
<!DOCTYPE svg PUBLIC "-//W3C//DTD SVG 1.1//EN"
 "http://www.w3.org/Graphics/SVG/1.1/DTD/svg11.dtd">
<!-- Generated by graphviz version 2.43.0 (0)
 -->
<!-- Title: lib/Support/DeltaAlgorithm.cpp Pages: 1 -->
<svg width="305pt" height="140pt"
 viewBox="0.00 0.00 304.50 140.00" xmlns="http://www.w3.org/2000/svg" xmlns:xlink="http://www.w3.org/1999/xlink">
<g id="graph0" class="graph" transform="scale(1 1) rotate(0) translate(4 136)">
<title>lib/Support/DeltaAlgorithm.cpp</title>
<!-- Node0 -->
<g id="node1" class="node">
<title>Node0</title>
<polygon fill="#bfbfbf" stroke="black" points="71.5,-112.5 71.5,-131.5 220.5,-131.5 220.5,-112.5 71.5,-112.5"/>
<text text-anchor="middle" x="146" y="-119.5" font-family="Helvetica,sans-Serif" font-size="10.00">lib/Support/DeltaAlgorithm.cpp</text>
</g>
<!-- Node1 -->
<g id="node2" class="node">
<title>Node1</title>
<g id="a_node2"><a xlink:href="DeltaAlgorithm_8h.html" target="_top" xlink:title="llvm/ADT/DeltaAlgorithm.h">
<polygon fill="none" stroke="black" points="23,-56.5 23,-75.5 157,-75.5 157,-56.5 23,-56.5"/>
<text text-anchor="middle" x="90" y="-63.5" font-family="Helvetica,sans-Serif" font-size="10.00">llvm/ADT/DeltaAlgorithm.h</text>
</a>
</g>
</g>
<!-- Node0&#45;&gt;Node1 -->
<g id="edge1" class="edge">
<title>Node0&#45;&gt;Node1</title>
<path fill="none" stroke="midnightblue" d="M137,-112.32C128.81,-104.42 116.49,-92.55 106.53,-82.94"/>
<polygon fill="midnightblue" stroke="midnightblue" points="108.79,-80.26 99.16,-75.83 103.93,-85.29 108.79,-80.26"/>
</g>
<!-- Node2 -->
<g id="node3" class="node">
<title>Node2</title>
<polygon fill="none" stroke="#bfbfbf" points="0,-0.5 0,-19.5 30,-19.5 30,-0.5 0,-0.5"/>
<text text-anchor="middle" x="15" y="-7.5" font-family="Helvetica,sans-Serif" font-size="10.00">set</text>
</g>
<!-- Node0&#45;&gt;Node2 -->
<g id="edge6" class="edge">
<title>Node0&#45;&gt;Node2</title>
<path fill="none" stroke="midnightblue" d="M71.96,-112.49C49.7,-106.07 27.6,-95 14,-76 4.46,-62.67 6.07,-43.56 9.24,-29.5"/>
<polygon fill="midnightblue" stroke="midnightblue" points="12.71,-30.09 11.94,-19.53 5.95,-28.26 12.71,-30.09"/>
</g>
<!-- Node4 -->
<g id="node5" class="node">
<title>Node4</title>
<polygon fill="none" stroke="#bfbfbf" points="175,-56.5 175,-75.5 231,-75.5 231,-56.5 175,-56.5"/>
<text text-anchor="middle" x="203" y="-63.5" font-family="Helvetica,sans-Serif" font-size="10.00">algorithm</text>
</g>
<!-- Node0&#45;&gt;Node4 -->
<g id="edge4" class="edge">
<title>Node0&#45;&gt;Node4</title>
<path fill="none" stroke="midnightblue" d="M155.16,-112.32C163.5,-104.42 176.03,-92.55 186.18,-82.94"/>
<polygon fill="midnightblue" stroke="midnightblue" points="188.82,-85.25 193.68,-75.83 184.01,-80.17 188.82,-85.25"/>
</g>
<!-- Node5 -->
<g id="node6" class="node">
<title>Node5</title>
<polygon fill="none" stroke="#bfbfbf" points="249.5,-56.5 249.5,-75.5 296.5,-75.5 296.5,-56.5 249.5,-56.5"/>
<text text-anchor="middle" x="273" y="-63.5" font-family="Helvetica,sans-Serif" font-size="10.00">iterator</text>
</g>
<!-- Node0&#45;&gt;Node5 -->
<g id="edge5" class="edge">
<title>Node0&#45;&gt;Node5</title>
<path fill="none" stroke="midnightblue" d="M166.12,-112.44C187.02,-103.56 219.93,-89.56 243.72,-79.45"/>
<polygon fill="midnightblue" stroke="midnightblue" points="245.14,-82.65 252.97,-75.52 242.4,-76.21 245.14,-82.65"/>
</g>
<!-- Node1&#45;&gt;Node2 -->
<g id="edge2" class="edge">
<title>Node1&#45;&gt;Node2</title>
<path fill="none" stroke="midnightblue" d="M77.95,-56.32C66.54,-48.11 49.17,-35.6 35.57,-25.81"/>
<polygon fill="midnightblue" stroke="midnightblue" points="37.43,-22.84 27.27,-19.83 33.34,-28.52 37.43,-22.84"/>
</g>
<!-- Node3 -->
<g id="node4" class="node">
<title>Node3</title>
<polygon fill="none" stroke="#bfbfbf" points="68,-0.5 68,-19.5 112,-19.5 112,-0.5 68,-0.5"/>
<text text-anchor="middle" x="90" y="-7.5" font-family="Helvetica,sans-Serif" font-size="10.00">vector</text>
</g>
<!-- Node1&#45;&gt;Node3 -->
<g id="edge3" class="edge">
<title>Node1&#45;&gt;Node3</title>
<path fill="none" stroke="midnightblue" d="M90,-56.08C90,-49.01 90,-38.86 90,-29.99"/>
<polygon fill="midnightblue" stroke="midnightblue" points="93.5,-29.75 90,-19.75 86.5,-29.75 93.5,-29.75"/>
</g>
</g>
</svg>
