<?xml version="1.0" encoding="UTF-8" standalone="no"?>
<!DOCTYPE svg PUBLIC "-//W3C//DTD SVG 1.1//EN"
 "http://www.w3.org/Graphics/SVG/1.1/DTD/svg11.dtd">
<!-- Generated by graphviz version 2.43.0 (0)
 -->
<!-- Title: lib/DebugInfo/Symbolize/DIPrinter.cpp Pages: 1 -->
<svg width="4046pt" height="666pt"
 viewBox="0.00 0.00 4045.72 666.00" xmlns="http://www.w3.org/2000/svg" xmlns:xlink="http://www.w3.org/1999/xlink">
<g id="graph0" class="graph" transform="scale(1 1) rotate(0) translate(4 662)">
<title>lib/DebugInfo/Symbolize/DIPrinter.cpp</title>
<!-- Node0 -->
<g id="node1" class="node">
<title>Node0</title>
<polygon fill="#bfbfbf" stroke="black" points="2501.22,-627.5 2501.22,-657.5 2624.22,-657.5 2624.22,-627.5 2501.22,-627.5"/>
<text text-anchor="start" x="2509.22" y="-645.5" font-family="Helvetica,sans-Serif" font-size="10.00">lib/DebugInfo/Symbolize</text>
<text text-anchor="middle" x="2562.72" y="-634.5" font-family="Helvetica,sans-Serif" font-size="10.00">/DIPrinter.cpp</text>
</g>
<!-- Node1 -->
<g id="node2" class="node">
<title>Node1</title>
<g id="a_node2"><a xlink:href="DIPrinter_8h.html" target="_top" xlink:title="llvm/DebugInfo/Symbolize\l/DIPrinter.h">
<polygon fill="none" stroke="black" points="3692.22,-448.5 3692.22,-478.5 3823.22,-478.5 3823.22,-448.5 3692.22,-448.5"/>
<text text-anchor="start" x="3700.22" y="-466.5" font-family="Helvetica,sans-Serif" font-size="10.00">llvm/DebugInfo/Symbolize</text>
<text text-anchor="middle" x="3757.72" y="-455.5" font-family="Helvetica,sans-Serif" font-size="10.00">/DIPrinter.h</text>
</a>
</g>
</g>
<!-- Node0&#45;&gt;Node1 -->
<g id="edge1" class="edge">
<title>Node0&#45;&gt;Node1</title>
<path fill="none" stroke="midnightblue" d="M2624.22,-642C2844.61,-643.37 3586.55,-643.94 3677.72,-591 3716.71,-568.36 3739.6,-518.28 3750.3,-488.37"/>
<polygon fill="midnightblue" stroke="midnightblue" points="3753.68,-489.31 3753.58,-478.71 3747.05,-487.05 3753.68,-489.31"/>
</g>
<!-- Node2 -->
<g id="node3" class="node">
<title>Node2</title>
<g id="a_node3"><a xlink:href="raw__ostream_8h.html" target="_top" xlink:title="llvm/Support/raw_ostream.h">
<polygon fill="none" stroke="black" points="3044.22,-336.5 3044.22,-355.5 3183.22,-355.5 3183.22,-336.5 3044.22,-336.5"/>
<text text-anchor="middle" x="3113.72" y="-343.5" font-family="Helvetica,sans-Serif" font-size="10.00">llvm/Support/raw_ostream.h</text>
</a>
</g>
</g>
<!-- Node0&#45;&gt;Node2 -->
<g id="edge173" class="edge">
<title>Node0&#45;&gt;Node2</title>
<path fill="none" stroke="midnightblue" d="M2624.23,-636.05C2725.48,-624.14 2928.84,-587.5 3057.72,-479 3086.76,-454.55 3097.42,-447.57 3110.72,-412 3116.22,-397.27 3116.63,-379.34 3115.85,-366.04"/>
<polygon fill="midnightblue" stroke="midnightblue" points="3119.31,-365.41 3114.96,-355.75 3112.34,-366.01 3119.31,-365.41"/>
</g>
<!-- Node11 -->
<g id="node12" class="node">
<title>Node11</title>
<polygon fill="none" stroke="#bfbfbf" points="1297.22,-112.5 1297.22,-131.5 1346.22,-131.5 1346.22,-112.5 1297.22,-112.5"/>
<text text-anchor="middle" x="1321.72" y="-119.5" font-family="Helvetica,sans-Serif" font-size="10.00">cstddef</text>
</g>
<!-- Node0&#45;&gt;Node11 -->
<g id="edge176" class="edge">
<title>Node0&#45;&gt;Node11</title>
<path fill="none" stroke="midnightblue" d="M2501.14,-640.95C2351.5,-639 1957.11,-630.24 1630.72,-591 1474.93,-572.27 1283.72,-682.9 1283.72,-526 1283.72,-526 1283.72,-526 1283.72,-233 1283.72,-198.81 1300.32,-161.76 1311.57,-140.57"/>
<polygon fill="midnightblue" stroke="midnightblue" points="1314.66,-142.22 1316.43,-131.77 1308.54,-138.83 1314.66,-142.22"/>
</g>
<!-- Node22 -->
<g id="node14" class="node">
<title>Node22</title>
<polygon fill="none" stroke="#bfbfbf" points="633.72,-112.5 633.72,-131.5 689.72,-131.5 689.72,-112.5 633.72,-112.5"/>
<text text-anchor="middle" x="661.72" y="-119.5" font-family="Helvetica,sans-Serif" font-size="10.00">algorithm</text>
</g>
<!-- Node0&#45;&gt;Node22 -->
<g id="edge174" class="edge">
<title>Node0&#45;&gt;Node22</title>
<path fill="none" stroke="midnightblue" d="M2501.08,-641.18C2167.56,-639.08 593.72,-623.97 593.72,-526 593.72,-526 593.72,-526 593.72,-462.5 593.72,-329.81 605.77,-295.44 642.72,-168 645.37,-158.84 649.36,-149.04 653,-140.93"/>
<polygon fill="midnightblue" stroke="midnightblue" points="656.24,-142.28 657.3,-131.74 649.89,-139.32 656.24,-142.28"/>
</g>
<!-- Node29 -->
<g id="node21" class="node">
<title>Node29</title>
<polygon fill="none" stroke="#bfbfbf" points="3337.22,-56.5 3337.22,-75.5 3378.22,-75.5 3378.22,-56.5 3337.22,-56.5"/>
<text text-anchor="middle" x="3357.72" y="-63.5" font-family="Helvetica,sans-Serif" font-size="10.00">string</text>
</g>
<!-- Node0&#45;&gt;Node29 -->
<g id="edge179" class="edge">
<title>Node0&#45;&gt;Node29</title>
<path fill="none" stroke="midnightblue" d="M2624.53,-641.41C2840.28,-640.73 3559,-635.12 3784.72,-591 3868.6,-574.6 3965.72,-611.47 3965.72,-526 3965.72,-526 3965.72,-526 3965.72,-233 3965.72,-189.23 3928.96,-191 3891.72,-168 3835.4,-133.23 3817.86,-128.33 3753.72,-112 3620.65,-78.12 3455.92,-69.72 3388.58,-67.66"/>
<polygon fill="midnightblue" stroke="midnightblue" points="3388.36,-64.16 3378.26,-67.37 3388.16,-71.15 3388.36,-64.16"/>
</g>
<!-- Node33 -->
<g id="node25" class="node">
<title>Node33</title>
<polygon fill="none" stroke="#bfbfbf" points="3407.72,-112.5 3407.72,-131.5 3459.72,-131.5 3459.72,-112.5 3407.72,-112.5"/>
<text text-anchor="middle" x="3433.72" y="-119.5" font-family="Helvetica,sans-Serif" font-size="10.00">memory</text>
</g>
<!-- Node0&#45;&gt;Node33 -->
<g id="edge178" class="edge">
<title>Node0&#45;&gt;Node33</title>
<path fill="none" stroke="midnightblue" d="M2624.36,-640.66C2851.7,-637.32 3635.54,-623.54 3742.72,-591 3788.52,-577.09 3806.02,-573.31 3834.72,-535 3944.58,-388.32 3803.37,-263.11 3646.72,-168 3591.39,-134.4 3514.75,-125.62 3470.09,-123.48"/>
<polygon fill="midnightblue" stroke="midnightblue" points="3470.12,-119.98 3459.99,-123.09 3469.84,-126.98 3470.12,-119.98"/>
</g>
<!-- Node35 -->
<g id="node26" class="node">
<title>Node35</title>
<g id="a_node26"><a xlink:href="StringRef_8h.html" target="_top" xlink:title="llvm/ADT/StringRef.h">
<polygon fill="none" stroke="black" points="1487.72,-280.5 1487.72,-299.5 1597.72,-299.5 1597.72,-280.5 1487.72,-280.5"/>
<text text-anchor="middle" x="1542.72" y="-287.5" font-family="Helvetica,sans-Serif" font-size="10.00">llvm/ADT/StringRef.h</text>
</a>
</g>
</g>
<!-- Node0&#45;&gt;Node35 -->
<g id="edge89" class="edge">
<title>Node0&#45;&gt;Node35</title>
<path fill="none" stroke="midnightblue" d="M2501.1,-640.87C2283.73,-637.83 1565.72,-620.64 1565.72,-526 1565.72,-526 1565.72,-526 1565.72,-401 1565.72,-368.12 1555.75,-330.86 1548.94,-309.24"/>
<polygon fill="midnightblue" stroke="midnightblue" points="1552.26,-308.12 1545.82,-299.71 1545.6,-310.3 1552.26,-308.12"/>
</g>
<!-- Node41 -->
<g id="node31" class="node">
<title>Node41</title>
<polygon fill="none" stroke="#bfbfbf" points="3543.72,-168.5 3543.72,-187.5 3589.72,-187.5 3589.72,-168.5 3543.72,-168.5"/>
<text text-anchor="middle" x="3566.72" y="-175.5" font-family="Helvetica,sans-Serif" font-size="10.00">cstdint</text>
</g>
<!-- Node0&#45;&gt;Node41 -->
<g id="edge177" class="edge">
<title>Node0&#45;&gt;Node41</title>
<path fill="none" stroke="midnightblue" d="M2624.49,-641.16C2847.68,-639.62 3604.47,-631.44 3704.72,-591 3783.55,-559.2 3861.91,-527.46 3831.72,-448 3784.49,-323.74 3645.83,-227.56 3590.2,-192.94"/>
<polygon fill="midnightblue" stroke="midnightblue" points="3591.77,-189.79 3581.41,-187.55 3588.11,-195.76 3591.77,-189.79"/>
</g>
<!-- Node45 -->
<g id="node35" class="node">
<title>Node45</title>
<g id="a_node35"><a xlink:href="DIContext_8h.html" target="_top" xlink:title="llvm/DebugInfo/DIContext.h">
<polygon fill="none" stroke="black" points="2691.22,-571.5 2691.22,-590.5 2830.22,-590.5 2830.22,-571.5 2691.22,-571.5"/>
<text text-anchor="middle" x="2760.72" y="-578.5" font-family="Helvetica,sans-Serif" font-size="10.00">llvm/DebugInfo/DIContext.h</text>
</a>
</g>
</g>
<!-- Node0&#45;&gt;Node45 -->
<g id="edge90" class="edge">
<title>Node0&#45;&gt;Node45</title>
<path fill="none" stroke="midnightblue" d="M2609.39,-627.47C2643.85,-617.12 2690.17,-603.2 2722.46,-593.5"/>
<polygon fill="midnightblue" stroke="midnightblue" points="2723.84,-596.74 2732.41,-590.51 2721.83,-590.03 2723.84,-596.74"/>
</g>
<!-- Node69 -->
<g id="node39" class="node">
<title>Node69</title>
<g id="a_node39"><a xlink:href="ErrorOr_8h.html" target="_top" xlink:title="Provides ErrorOr&lt;T&gt; smart pointer. ">
<polygon fill="none" stroke="black" points="2591.72,-336.5 2591.72,-355.5 2705.72,-355.5 2705.72,-336.5 2591.72,-336.5"/>
<text text-anchor="middle" x="2648.72" y="-343.5" font-family="Helvetica,sans-Serif" font-size="10.00">llvm/Support/ErrorOr.h</text>
</a>
</g>
</g>
<!-- Node0&#45;&gt;Node69 -->
<g id="edge152" class="edge">
<title>Node0&#45;&gt;Node69</title>
<path fill="none" stroke="midnightblue" d="M2562.72,-627.28C2562.72,-605.48 2562.72,-562.49 2562.72,-526 2562.72,-526 2562.72,-526 2562.72,-462.5 2562.72,-419.11 2602.24,-381.47 2627.7,-361.73"/>
<polygon fill="midnightblue" stroke="midnightblue" points="2630.11,-364.29 2636.03,-355.51 2625.92,-358.69 2630.11,-364.29"/>
</g>
<!-- Node72 -->
<g id="node40" class="node">
<title>Node72</title>
<g id="a_node40"><a xlink:href="MemoryBuffer_8h.html" target="_top" xlink:title="llvm/Support/MemoryBuffer.h">
<polygon fill="none" stroke="black" points="2390.72,-454 2390.72,-473 2534.72,-473 2534.72,-454 2390.72,-454"/>
<text text-anchor="middle" x="2462.72" y="-461" font-family="Helvetica,sans-Serif" font-size="10.00">llvm/Support/MemoryBuffer.h</text>
</a>
</g>
</g>
<!-- Node0&#45;&gt;Node72 -->
<g id="edge166" class="edge">
<title>Node0&#45;&gt;Node72</title>
<path fill="none" stroke="midnightblue" d="M2554.7,-627.31C2536.65,-595.36 2492.82,-517.78 2472.89,-482.5"/>
<polygon fill="midnightblue" stroke="midnightblue" points="2475.7,-480.36 2467.73,-473.37 2469.6,-483.8 2475.7,-480.36"/>
</g>
<!-- Node70 -->
<g id="node45" class="node">
<title>Node70</title>
<g id="a_node45"><a xlink:href="Format_8h.html" target="_top" xlink:title="llvm/Support/Format.h">
<polygon fill="none" stroke="black" points="251.22,-336.5 251.22,-355.5 364.22,-355.5 364.22,-336.5 251.22,-336.5"/>
<text text-anchor="middle" x="307.72" y="-343.5" font-family="Helvetica,sans-Serif" font-size="10.00">llvm/Support/Format.h</text>
</a>
</g>
</g>
<!-- Node0&#45;&gt;Node70 -->
<g id="edge153" class="edge">
<title>Node0&#45;&gt;Node70</title>
<path fill="none" stroke="midnightblue" d="M2501.16,-641.67C2207.42,-642.19 946.48,-641.42 556.72,-591 432.16,-574.89 281.72,-651.59 281.72,-526 281.72,-526 281.72,-526 281.72,-462.5 281.72,-427.35 293.32,-387.62 301.02,-365.11"/>
<polygon fill="midnightblue" stroke="midnightblue" points="304.37,-366.14 304.42,-355.54 297.78,-363.8 304.37,-366.14"/>
</g>
<!-- Node93 -->
<g id="node48" class="node">
<title>Node93</title>
<g id="a_node48"><a xlink:href="LineIterator_8h.html" target="_top" xlink:title="llvm/Support/LineIterator.h">
<polygon fill="none" stroke="black" points="61.22,-336.5 61.22,-355.5 192.22,-355.5 192.22,-336.5 61.22,-336.5"/>
<text text-anchor="middle" x="126.72" y="-343.5" font-family="Helvetica,sans-Serif" font-size="10.00">llvm/Support/LineIterator.h</text>
</a>
</g>
</g>
<!-- Node0&#45;&gt;Node93 -->
<g id="edge162" class="edge">
<title>Node0&#45;&gt;Node93</title>
<path fill="none" stroke="midnightblue" d="M2501.21,-641.61C2160.23,-642.02 509.48,-641.39 288.72,-591 220.65,-575.46 145.72,-595.81 145.72,-526 145.72,-526 145.72,-526 145.72,-462.5 145.72,-427.9 137.32,-388.24 131.69,-365.55"/>
<polygon fill="midnightblue" stroke="midnightblue" points="135.01,-364.42 129.12,-355.61 128.23,-366.17 135.01,-364.42"/>
</g>
<!-- Node94 -->
<g id="node49" class="node">
<title>Node94</title>
<g id="a_node49"><a xlink:href="Path_8h.html" target="_top" xlink:title="llvm/Support/Path.h">
<polygon fill="none" stroke="black" points="462.22,-392.5 462.22,-411.5 565.22,-411.5 565.22,-392.5 462.22,-392.5"/>
<text text-anchor="middle" x="513.72" y="-399.5" font-family="Helvetica,sans-Serif" font-size="10.00">llvm/Support/Path.h</text>
</a>
</g>
</g>
<!-- Node0&#45;&gt;Node94 -->
<g id="edge167" class="edge">
<title>Node0&#45;&gt;Node94</title>
<path fill="none" stroke="midnightblue" d="M2501.18,-640.89C2170.65,-637.48 619.51,-619.97 579.72,-591 524.6,-550.87 515.23,-461.11 513.84,-421.92"/>
<polygon fill="midnightblue" stroke="midnightblue" points="517.33,-421.61 513.62,-411.68 510.33,-421.76 517.33,-421.61"/>
</g>
<!-- Node95 -->
<g id="node50" class="node">
<title>Node95</title>
<polygon fill="none" stroke="#bfbfbf" points="3993.72,-571.5 3993.72,-590.5 4037.72,-590.5 4037.72,-571.5 3993.72,-571.5"/>
<text text-anchor="middle" x="4015.72" y="-578.5" font-family="Helvetica,sans-Serif" font-size="10.00">cmath</text>
</g>
<!-- Node0&#45;&gt;Node95 -->
<g id="edge175" class="edge">
<title>Node0&#45;&gt;Node95</title>
<path fill="none" stroke="midnightblue" d="M2624.61,-641.02C2861.7,-638.9 3712.21,-628.78 3979.72,-591 3980.97,-590.82 3982.25,-590.62 3983.53,-590.4"/>
<polygon fill="midnightblue" stroke="midnightblue" points="3984.31,-593.81 3993.39,-588.35 3982.89,-586.95 3984.31,-593.81"/>
</g>
<!-- Node1&#45;&gt;Node2 -->
<g id="edge2" class="edge">
<title>Node1&#45;&gt;Node2</title>
<path fill="none" stroke="midnightblue" d="M3750.01,-448.44C3739.96,-431.68 3720.69,-404.38 3695.72,-392 3597.87,-343.48 3319.32,-365.16 3193.67,-356.04"/>
<polygon fill="midnightblue" stroke="midnightblue" points="3193.7,-352.53 3183.44,-355.2 3193.12,-359.51 3193.7,-352.53"/>
</g>
<!-- Node3 -->
<g id="node4" class="node">
<title>Node3</title>
<g id="a_node4"><a xlink:href="SmallVector_8h.html" target="_top" xlink:title="llvm/ADT/SmallVector.h">
<polygon fill="none" stroke="red" points="1773.72,-224.5 1773.72,-243.5 1895.72,-243.5 1895.72,-224.5 1773.72,-224.5"/>
<text text-anchor="middle" x="1834.72" y="-231.5" font-family="Helvetica,sans-Serif" font-size="10.00">llvm/ADT/SmallVector.h</text>
</a>
</g>
</g>
<!-- Node2&#45;&gt;Node3 -->
<g id="edge3" class="edge">
<title>Node2&#45;&gt;Node3</title>
<path fill="none" stroke="midnightblue" d="M3097.96,-336.44C3069.92,-321.7 3009.1,-291.98 2953.72,-280 2752.72,-236.52 2119.85,-234.17 1906.07,-234.67"/>
<polygon fill="midnightblue" stroke="midnightblue" points="1905.9,-231.17 1895.91,-234.69 1905.92,-238.17 1905.9,-231.17"/>
</g>
<!-- Node2&#45;&gt;Node11 -->
<g id="edge83" class="edge">
<title>Node2&#45;&gt;Node11</title>
<path fill="none" stroke="midnightblue" d="M3071.55,-336.43C3038.65,-328.97 2992.23,-316.72 2953.72,-300 2937.99,-293.17 2937.16,-284.87 2920.72,-280 2674.29,-207 2019.49,-277.84 1764.72,-244 1606.96,-223.05 1425.88,-161.2 1353.77,-134.98"/>
<polygon fill="midnightblue" stroke="midnightblue" points="1354.92,-131.67 1344.33,-131.52 1352.51,-138.24 1354.92,-131.67"/>
</g>
<!-- Node23 -->
<g id="node15" class="node">
<title>Node23</title>
<polygon fill="none" stroke="#bfbfbf" points="2820.22,-112.5 2820.22,-131.5 2869.22,-131.5 2869.22,-112.5 2820.22,-112.5"/>
<text text-anchor="middle" x="2844.72" y="-119.5" font-family="Helvetica,sans-Serif" font-size="10.00">cassert</text>
</g>
<!-- Node2&#45;&gt;Node23 -->
<g id="edge82" class="edge">
<title>Node2&#45;&gt;Node23</title>
<path fill="none" stroke="midnightblue" d="M3112.31,-336.39C3107.13,-307.63 3086.44,-214.16 3029.72,-168 3026.77,-165.6 2932.26,-143.35 2879.5,-131.06"/>
<polygon fill="midnightblue" stroke="midnightblue" points="2880.08,-127.6 2869.54,-128.75 2878.49,-134.42 2880.08,-127.6"/>
</g>
<!-- Node25 -->
<g id="node16" class="node">
<title>Node25</title>
<polygon fill="none" stroke="#bfbfbf" points="2524.72,-112.5 2524.72,-131.5 2570.72,-131.5 2570.72,-112.5 2524.72,-112.5"/>
<text text-anchor="middle" x="2547.72" y="-119.5" font-family="Helvetica,sans-Serif" font-size="10.00">cstring</text>
</g>
<!-- Node2&#45;&gt;Node25 -->
<g id="edge85" class="edge">
<title>Node2&#45;&gt;Node25</title>
<path fill="none" stroke="midnightblue" d="M3100.45,-336.36C3079.62,-323.05 3037.68,-297.24 2999.72,-280 2848.01,-211.11 2656.57,-153.8 2580.78,-132.21"/>
<polygon fill="midnightblue" stroke="midnightblue" points="2581.44,-128.76 2570.87,-129.4 2579.54,-135.49 2581.44,-128.76"/>
</g>
<!-- Node20 -->
<g id="node18" class="node">
<title>Node20</title>
<polygon fill="none" stroke="#bfbfbf" points="1594.72,-56.5 1594.72,-75.5 1656.72,-75.5 1656.72,-56.5 1594.72,-56.5"/>
<text text-anchor="middle" x="1625.72" y="-63.5" font-family="Helvetica,sans-Serif" font-size="10.00">type_traits</text>
</g>
<!-- Node2&#45;&gt;Node20 -->
<g id="edge88" class="edge">
<title>Node2&#45;&gt;Node20</title>
<path fill="none" stroke="midnightblue" d="M3115.14,-336.49C3116.97,-323.99 3119.5,-299.97 3115.72,-280 3105.13,-224.1 3100.55,-200.3 3053.72,-168 3001.89,-132.26 2975.52,-154.5 2916.72,-132 2898.52,-125.04 2896.57,-116.91 2877.72,-112 2817.92,-96.42 1877.31,-73.03 1667.15,-67.98"/>
<polygon fill="midnightblue" stroke="midnightblue" points="1666.94,-64.48 1656.86,-67.74 1666.77,-71.47 1666.94,-64.48"/>
</g>
<!-- Node2&#45;&gt;Node29 -->
<g id="edge86" class="edge">
<title>Node2&#45;&gt;Node29</title>
<path fill="none" stroke="midnightblue" d="M3129.93,-336.37C3144.45,-328.18 3165.83,-314.93 3181.72,-300 3256.28,-229.94 3322.66,-125.53 3347.42,-84.48"/>
<polygon fill="midnightblue" stroke="midnightblue" points="3350.44,-86.26 3352.56,-75.88 3344.43,-82.67 3350.44,-86.26"/>
</g>
<!-- Node2&#45;&gt;Node35 -->
<g id="edge41" class="edge">
<title>Node2&#45;&gt;Node35</title>
<path fill="none" stroke="midnightblue" d="M3044.19,-342.61C2782.96,-333.63 1862.24,-301.98 1608.11,-293.25"/>
<polygon fill="midnightblue" stroke="midnightblue" points="1608.05,-289.74 1597.93,-292.9 1607.81,-296.74 1608.05,-289.74"/>
</g>
<!-- Node2&#45;&gt;Node41 -->
<g id="edge84" class="edge">
<title>Node2&#45;&gt;Node41</title>
<path fill="none" stroke="midnightblue" d="M3143.15,-336.46C3172.39,-327.83 3218.43,-313.81 3257.72,-300 3361.33,-263.57 3481.98,-214.3 3536.83,-191.51"/>
<polygon fill="midnightblue" stroke="midnightblue" points="3538.41,-194.65 3546.29,-187.58 3535.72,-188.19 3538.41,-194.65"/>
</g>
<!-- Node44 -->
<g id="node34" class="node">
<title>Node44</title>
<polygon fill="none" stroke="#bfbfbf" points="2837.72,-280.5 2837.72,-299.5 2911.72,-299.5 2911.72,-280.5 2837.72,-280.5"/>
<text text-anchor="middle" x="2874.72" y="-287.5" font-family="Helvetica,sans-Serif" font-size="10.00">system_error</text>
</g>
<!-- Node2&#45;&gt;Node44 -->
<g id="edge87" class="edge">
<title>Node2&#45;&gt;Node44</title>
<path fill="none" stroke="midnightblue" d="M3075.85,-336.44C3034.12,-327.02 2966.95,-311.84 2921.85,-301.65"/>
<polygon fill="midnightblue" stroke="midnightblue" points="2922.54,-298.22 2912.02,-299.43 2921,-305.05 2922.54,-298.22"/>
</g>
<!-- Node4 -->
<g id="node5" class="node">
<title>Node4</title>
<g id="a_node5"><a xlink:href="iterator__range_8h.html" target="_top" xlink:title="This provides a very simple, boring adaptor for a begin and end iterator into a range type...">
<polygon fill="none" stroke="black" points="235.72,-112.5 235.72,-131.5 363.72,-131.5 363.72,-112.5 235.72,-112.5"/>
<text text-anchor="middle" x="299.72" y="-119.5" font-family="Helvetica,sans-Serif" font-size="10.00">llvm/ADT/iterator_range.h</text>
</a>
</g>
</g>
<!-- Node3&#45;&gt;Node4 -->
<g id="edge4" class="edge">
<title>Node3&#45;&gt;Node4</title>
<path fill="none" stroke="midnightblue" d="M1773.43,-232.22C1505.04,-228.67 443.82,-213.09 377.72,-188 351.58,-178.08 327.88,-155.49 313.64,-139.75"/>
<polygon fill="midnightblue" stroke="midnightblue" points="315.95,-137.08 306.75,-131.83 310.67,-141.67 315.95,-137.08"/>
</g>
<!-- Node5 -->
<g id="node6" class="node">
<title>Node5</title>
<polygon fill="none" stroke="#bfbfbf" points="86.22,-56.5 86.22,-75.5 133.22,-75.5 133.22,-56.5 86.22,-56.5"/>
<text text-anchor="middle" x="109.72" y="-63.5" font-family="Helvetica,sans-Serif" font-size="10.00">iterator</text>
</g>
<!-- Node3&#45;&gt;Node5 -->
<g id="edge37" class="edge">
<title>Node3&#45;&gt;Node5</title>
<path fill="none" stroke="midnightblue" d="M1773.55,-231.92C1504.68,-227.05 439.83,-206.64 410.72,-188 378.91,-167.64 403.05,-134.5 372.72,-112 336.93,-85.45 206.42,-73.39 143.75,-69.04"/>
<polygon fill="midnightblue" stroke="midnightblue" points="143.8,-65.53 133.59,-68.36 143.33,-72.52 143.8,-65.53"/>
</g>
<!-- Node6 -->
<g id="node7" class="node">
<title>Node6</title>
<polygon fill="none" stroke="#bfbfbf" points="583.72,-56.5 583.72,-75.5 623.72,-75.5 623.72,-56.5 583.72,-56.5"/>
<text text-anchor="middle" x="603.72" y="-63.5" font-family="Helvetica,sans-Serif" font-size="10.00">utility</text>
</g>
<!-- Node3&#45;&gt;Node6 -->
<g id="edge40" class="edge">
<title>Node3&#45;&gt;Node6</title>
<path fill="none" stroke="midnightblue" d="M1808.92,-224.43C1785.58,-216.28 1750.54,-203.06 1721.72,-188 1667.42,-159.63 1664.98,-130.95 1606.72,-112 1512.32,-81.3 791.83,-69.61 634.15,-67.4"/>
<polygon fill="midnightblue" stroke="midnightblue" points="633.83,-63.9 623.78,-67.26 633.73,-70.9 633.83,-63.9"/>
</g>
<!-- Node7 -->
<g id="node8" class="node">
<title>Node7</title>
<g id="a_node8"><a xlink:href="AlignOf_8h.html" target="_top" xlink:title="llvm/Support/AlignOf.h">
<polygon fill="none" stroke="black" points="2120.22,-168.5 2120.22,-187.5 2235.22,-187.5 2235.22,-168.5 2120.22,-168.5"/>
<text text-anchor="middle" x="2177.72" y="-175.5" font-family="Helvetica,sans-Serif" font-size="10.00">llvm/Support/AlignOf.h</text>
</a>
</g>
</g>
<!-- Node3&#45;&gt;Node7 -->
<g id="edge7" class="edge">
<title>Node3&#45;&gt;Node7</title>
<path fill="none" stroke="midnightblue" d="M1889.07,-224.44C1950.03,-214.85 2048.83,-199.29 2113.54,-189.1"/>
<polygon fill="midnightblue" stroke="midnightblue" points="2114.29,-192.53 2123.62,-187.52 2113.2,-185.61 2114.29,-192.53"/>
</g>
<!-- Node8 -->
<g id="node9" class="node">
<title>Node8</title>
<g id="a_node9"><a xlink:href="Compiler_8h.html" target="_top" xlink:title="llvm/Support/Compiler.h">
<polygon fill="none" stroke="black" points="2187.72,-56.5 2187.72,-75.5 2309.72,-75.5 2309.72,-56.5 2187.72,-56.5"/>
<text text-anchor="middle" x="2248.72" y="-63.5" font-family="Helvetica,sans-Serif" font-size="10.00">llvm/Support/Compiler.h</text>
</a>
</g>
</g>
<!-- Node3&#45;&gt;Node8 -->
<g id="edge12" class="edge">
<title>Node3&#45;&gt;Node8</title>
<path fill="none" stroke="midnightblue" d="M1896.1,-228.32C1945.16,-222.95 2014.86,-211.61 2071.72,-188 2105.29,-174.06 2190.69,-110.94 2229.27,-81.81"/>
<polygon fill="midnightblue" stroke="midnightblue" points="2231.74,-84.33 2237.59,-75.51 2227.51,-78.75 2231.74,-84.33"/>
</g>
<!-- Node3&#45;&gt;Node11 -->
<g id="edge33" class="edge">
<title>Node3&#45;&gt;Node11</title>
<path fill="none" stroke="midnightblue" d="M1794.89,-224.46C1697.42,-203.56 1448.16,-150.11 1356.35,-130.43"/>
<polygon fill="midnightblue" stroke="midnightblue" points="1356.96,-126.98 1346.45,-128.3 1355.49,-133.82 1356.96,-126.98"/>
</g>
<!-- Node12 -->
<g id="node13" class="node">
<title>Node12</title>
<g id="a_node13"><a xlink:href="MathExtras_8h.html" target="_top" xlink:title="llvm/Support/MathExtras.h">
<polygon fill="none" stroke="red" points="1768.22,-168.5 1768.22,-187.5 1901.22,-187.5 1901.22,-168.5 1768.22,-168.5"/>
<text text-anchor="middle" x="1834.72" y="-175.5" font-family="Helvetica,sans-Serif" font-size="10.00">llvm/Support/MathExtras.h</text>
</a>
</g>
</g>
<!-- Node3&#45;&gt;Node12 -->
<g id="edge13" class="edge">
<title>Node3&#45;&gt;Node12</title>
<path fill="none" stroke="midnightblue" d="M1834.72,-224.08C1834.72,-217.01 1834.72,-206.86 1834.72,-197.99"/>
<polygon fill="midnightblue" stroke="midnightblue" points="1838.22,-197.75 1834.72,-187.75 1831.22,-197.75 1838.22,-197.75"/>
</g>
<!-- Node3&#45;&gt;Node22 -->
<g id="edge31" class="edge">
<title>Node3&#45;&gt;Node22</title>
<path fill="none" stroke="midnightblue" d="M1773.4,-225.91C1663.65,-213.34 1426.34,-186.71 1225.72,-168 1028.15,-149.58 791.21,-132.21 700.04,-125.7"/>
<polygon fill="midnightblue" stroke="midnightblue" points="700.13,-122.2 689.91,-124.98 699.64,-129.18 700.13,-122.2"/>
</g>
<!-- Node3&#45;&gt;Node23 -->
<g id="edge32" class="edge">
<title>Node3&#45;&gt;Node23</title>
<path fill="none" stroke="midnightblue" d="M1895.82,-230.65C2008.72,-225.86 2257.47,-213.22 2465.72,-188 2474.31,-186.96 2717.98,-144.9 2809.99,-129"/>
<polygon fill="midnightblue" stroke="midnightblue" points="2810.67,-132.44 2819.93,-127.28 2809.48,-125.54 2810.67,-132.44"/>
</g>
<!-- Node3&#45;&gt;Node25 -->
<g id="edge35" class="edge">
<title>Node3&#45;&gt;Node25</title>
<path fill="none" stroke="midnightblue" d="M1896.04,-231.55C2026.68,-227.95 2328.53,-216.7 2426.72,-188 2464.7,-176.89 2504.29,-152.87 2527.44,-137.34"/>
<polygon fill="midnightblue" stroke="midnightblue" points="2529.47,-140.19 2535.75,-131.66 2525.52,-134.42 2529.47,-140.19"/>
</g>
<!-- Node3&#45;&gt;Node20 -->
<g id="edge39" class="edge">
<title>Node3&#45;&gt;Node20</title>
<path fill="none" stroke="midnightblue" d="M1813.12,-224.36C1794.73,-216.44 1768.13,-203.58 1747.72,-188 1711.21,-160.14 1710.69,-143.97 1677.72,-112 1667,-101.61 1654.35,-90.64 1644.21,-82.13"/>
<polygon fill="midnightblue" stroke="midnightblue" points="1646.31,-79.32 1636.38,-75.63 1641.84,-84.71 1646.31,-79.32"/>
</g>
<!-- Node27 -->
<g id="node19" class="node">
<title>Node27</title>
<g id="a_node19"><a xlink:href="MemAlloc_8h.html" target="_top" xlink:title="This file defines counterparts of C library allocation functions defined in the namespace &#39;std&#39;...">
<polygon fill="none" stroke="black" points="2291.72,-168.5 2291.72,-187.5 2417.72,-187.5 2417.72,-168.5 2291.72,-168.5"/>
<text text-anchor="middle" x="2354.72" y="-175.5" font-family="Helvetica,sans-Serif" font-size="10.00">llvm/Support/MemAlloc.h</text>
</a>
</g>
</g>
<!-- Node3&#45;&gt;Node27 -->
<g id="edge20" class="edge">
<title>Node3&#45;&gt;Node27</title>
<path fill="none" stroke="midnightblue" d="M1896.02,-227.07C1981.54,-218.73 2141.5,-202.88 2277.72,-188 2279,-187.86 2280.29,-187.72 2281.59,-187.57"/>
<polygon fill="midnightblue" stroke="midnightblue" points="2282.14,-191.03 2291.69,-186.44 2281.37,-184.08 2282.14,-191.03"/>
</g>
<!-- Node28 -->
<g id="node20" class="node">
<title>Node28</title>
<g id="a_node20"><a xlink:href="Support_2ErrorHandling_8h.html" target="_top" xlink:title="llvm/Support/ErrorHandling.h">
<polygon fill="none" stroke="black" points="2925.72,-112.5 2925.72,-131.5 3067.72,-131.5 3067.72,-112.5 2925.72,-112.5"/>
<text text-anchor="middle" x="2996.72" y="-119.5" font-family="Helvetica,sans-Serif" font-size="10.00">llvm/Support/ErrorHandling.h</text>
</a>
</g>
</g>
<!-- Node3&#45;&gt;Node28 -->
<g id="edge30" class="edge">
<title>Node3&#45;&gt;Node28</title>
<path fill="none" stroke="midnightblue" d="M1895.78,-233.01C2036.2,-232.33 2392.71,-226.57 2687.72,-188 2784.06,-175.4 2895.12,-149.09 2954.33,-134.09"/>
<polygon fill="midnightblue" stroke="midnightblue" points="2955.25,-137.47 2964.08,-131.61 2953.52,-130.69 2955.25,-137.47"/>
</g>
<!-- Node30 -->
<g id="node22" class="node">
<title>Node30</title>
<polygon fill="none" stroke="#bfbfbf" points="1730.22,-112.5 1730.22,-131.5 1775.22,-131.5 1775.22,-112.5 1730.22,-112.5"/>
<text text-anchor="middle" x="1752.72" y="-119.5" font-family="Helvetica,sans-Serif" font-size="10.00">cstdlib</text>
</g>
<!-- Node3&#45;&gt;Node30 -->
<g id="edge34" class="edge">
<title>Node3&#45;&gt;Node30</title>
<path fill="none" stroke="midnightblue" d="M1808,-224.38C1790.93,-217.39 1769.95,-205.75 1758.72,-188 1750.1,-174.38 1749.21,-155.84 1750.11,-142.04"/>
<polygon fill="midnightblue" stroke="midnightblue" points="1753.63,-142.09 1751.17,-131.78 1746.66,-141.37 1753.63,-142.09"/>
</g>
<!-- Node31 -->
<g id="node23" class="node">
<title>Node31</title>
<g id="a_node23"><a xlink:href="type__traits_8h.html" target="_top" xlink:title="llvm/Support/type_traits.h">
<polygon fill="none" stroke="black" points="1869.72,-112.5 1869.72,-131.5 1997.72,-131.5 1997.72,-112.5 1869.72,-112.5"/>
<text text-anchor="middle" x="1933.72" y="-119.5" font-family="Helvetica,sans-Serif" font-size="10.00">llvm/Support/type_traits.h</text>
</a>
</g>
</g>
<!-- Node3&#45;&gt;Node31 -->
<g id="edge26" class="edge">
<title>Node3&#45;&gt;Node31</title>
<path fill="none" stroke="midnightblue" d="M1857.21,-224.36C1873.78,-216.97 1895.76,-204.84 1909.72,-188 1920.74,-174.7 1926.95,-155.87 1930.28,-141.89"/>
<polygon fill="midnightblue" stroke="midnightblue" points="1933.74,-142.43 1932.36,-131.93 1926.89,-141 1933.74,-142.43"/>
</g>
<!-- Node32 -->
<g id="node24" class="node">
<title>Node32</title>
<polygon fill="none" stroke="#bfbfbf" points="1144.22,-168.5 1144.22,-187.5 1217.22,-187.5 1217.22,-168.5 1144.22,-168.5"/>
<text text-anchor="middle" x="1180.72" y="-175.5" font-family="Helvetica,sans-Serif" font-size="10.00">initializer_list</text>
</g>
<!-- Node3&#45;&gt;Node32 -->
<g id="edge36" class="edge">
<title>Node3&#45;&gt;Node32</title>
<path fill="none" stroke="midnightblue" d="M1773.48,-227.94C1643.72,-217.23 1343.46,-192.44 1227.55,-182.87"/>
<polygon fill="midnightblue" stroke="midnightblue" points="1227.82,-179.38 1217.57,-182.04 1227.25,-186.35 1227.82,-179.38"/>
</g>
<!-- Node3&#45;&gt;Node33 -->
<g id="edge38" class="edge">
<title>Node3&#45;&gt;Node33</title>
<path fill="none" stroke="midnightblue" d="M1895.8,-231.02C2043.8,-226 2433.29,-211.49 2757.72,-188 3002.76,-170.26 3296.77,-138.33 3397.68,-127.07"/>
<polygon fill="midnightblue" stroke="midnightblue" points="3398.11,-130.54 3407.65,-125.95 3397.33,-123.59 3398.11,-130.54"/>
</g>
<!-- Node4&#45;&gt;Node5 -->
<g id="edge5" class="edge">
<title>Node4&#45;&gt;Node5</title>
<path fill="none" stroke="midnightblue" d="M269.61,-112.44C235.23,-102.67 179.13,-86.73 143.34,-76.56"/>
<polygon fill="midnightblue" stroke="midnightblue" points="143.96,-73.09 133.38,-73.73 142.04,-79.83 143.96,-73.09"/>
</g>
<!-- Node4&#45;&gt;Node6 -->
<g id="edge6" class="edge">
<title>Node4&#45;&gt;Node6</title>
<path fill="none" stroke="midnightblue" d="M347.89,-112.44C411.17,-101.2 520.43,-81.79 573.31,-72.4"/>
<polygon fill="midnightblue" stroke="midnightblue" points="574.17,-75.8 583.4,-70.61 572.94,-68.91 574.17,-75.8"/>
</g>
<!-- Node7&#45;&gt;Node8 -->
<g id="edge8" class="edge">
<title>Node7&#45;&gt;Node8</title>
<path fill="none" stroke="midnightblue" d="M2183.29,-168.37C2194.95,-150.3 2222.14,-108.18 2237.55,-84.31"/>
<polygon fill="midnightblue" stroke="midnightblue" points="2240.69,-85.89 2243.17,-75.59 2234.81,-82.1 2240.69,-85.89"/>
</g>
<!-- Node7&#45;&gt;Node11 -->
<g id="edge11" class="edge">
<title>Node7&#45;&gt;Node11</title>
<path fill="none" stroke="midnightblue" d="M2119.97,-171.84C2104.32,-170.51 2087.37,-169.13 2071.72,-168 1796.26,-148.05 1463.42,-130.32 1356.53,-124.78"/>
<polygon fill="midnightblue" stroke="midnightblue" points="1356.5,-121.28 1346.33,-124.25 1356.14,-128.27 1356.5,-121.28"/>
</g>
<!-- Node9 -->
<g id="node10" class="node">
<title>Node9</title>
<polygon fill="none" stroke="#bfbfbf" points="3133.22,-0.5 3133.22,-19.5 3258.22,-19.5 3258.22,-0.5 3133.22,-0.5"/>
<text text-anchor="middle" x="3195.72" y="-7.5" font-family="Helvetica,sans-Serif" font-size="10.00">llvm/Config/llvm&#45;config.h</text>
</g>
<!-- Node8&#45;&gt;Node9 -->
<g id="edge9" class="edge">
<title>Node8&#45;&gt;Node9</title>
<path fill="none" stroke="midnightblue" d="M2309.76,-61.52C2477.08,-51.98 2942.56,-25.44 3122.97,-15.15"/>
<polygon fill="midnightblue" stroke="midnightblue" points="3123.36,-18.63 3133.15,-14.57 3122.97,-11.64 3123.36,-18.63"/>
</g>
<!-- Node10 -->
<g id="node11" class="node">
<title>Node10</title>
<polygon fill="none" stroke="#bfbfbf" points="2222.72,-0.5 2222.72,-19.5 2274.72,-19.5 2274.72,-0.5 2222.72,-0.5"/>
<text text-anchor="middle" x="2248.72" y="-7.5" font-family="Helvetica,sans-Serif" font-size="10.00">stddef.h</text>
</g>
<!-- Node8&#45;&gt;Node10 -->
<g id="edge10" class="edge">
<title>Node8&#45;&gt;Node10</title>
<path fill="none" stroke="midnightblue" d="M2248.72,-56.08C2248.72,-49.01 2248.72,-38.86 2248.72,-29.99"/>
<polygon fill="midnightblue" stroke="midnightblue" points="2252.22,-29.75 2248.72,-19.75 2245.22,-29.75 2252.22,-29.75"/>
</g>
<!-- Node12&#45;&gt;Node8 -->
<g id="edge14" class="edge">
<title>Node12&#45;&gt;Node8</title>
<path fill="none" stroke="midnightblue" d="M1873.42,-168.5C1908.58,-160.39 1961.68,-147.19 2006.72,-132 2028.62,-124.61 2032.72,-119.08 2054.72,-112 2100.19,-97.37 2153.08,-85.42 2192.14,-77.53"/>
<polygon fill="midnightblue" stroke="midnightblue" points="2193.14,-80.89 2202.27,-75.51 2191.78,-74.03 2193.14,-80.89"/>
</g>
<!-- Node12&#45;&gt;Node22 -->
<g id="edge15" class="edge">
<title>Node12&#45;&gt;Node22</title>
<path fill="none" stroke="midnightblue" d="M1767.87,-173.92C1550.78,-163.93 869.88,-132.58 700.27,-124.77"/>
<polygon fill="midnightblue" stroke="midnightblue" points="700.23,-121.27 690.08,-124.31 699.9,-128.26 700.23,-121.27"/>
</g>
<!-- Node12&#45;&gt;Node23 -->
<g id="edge16" class="edge">
<title>Node12&#45;&gt;Node23</title>
<path fill="none" stroke="midnightblue" d="M1901.3,-171.42C1916.86,-170.21 1933.36,-168.99 1948.72,-168 2284.04,-146.35 2690.52,-129.23 2810.08,-124.38"/>
<polygon fill="midnightblue" stroke="midnightblue" points="2810.27,-127.88 2820.12,-123.98 2809.98,-120.88 2810.27,-127.88"/>
</g>
<!-- Node12&#45;&gt;Node25 -->
<g id="edge17" class="edge">
<title>Node12&#45;&gt;Node25</title>
<path fill="none" stroke="midnightblue" d="M1901.32,-171.7C1916.88,-170.47 1933.38,-169.18 1948.72,-168 2164.29,-151.39 2423.56,-132.17 2514.36,-125.46"/>
<polygon fill="midnightblue" stroke="midnightblue" points="2514.87,-128.93 2524.59,-124.71 2514.36,-121.95 2514.87,-128.93"/>
</g>
<!-- Node26 -->
<g id="node17" class="node">
<title>Node26</title>
<polygon fill="none" stroke="#bfbfbf" points="1557.72,-112.5 1557.72,-131.5 1597.72,-131.5 1597.72,-112.5 1557.72,-112.5"/>
<text text-anchor="middle" x="1577.72" y="-119.5" font-family="Helvetica,sans-Serif" font-size="10.00">limits</text>
</g>
<!-- Node12&#45;&gt;Node26 -->
<g id="edge18" class="edge">
<title>Node12&#45;&gt;Node26</title>
<path fill="none" stroke="midnightblue" d="M1793.99,-168.44C1742.26,-157.57 1654.16,-139.06 1607.99,-129.36"/>
<polygon fill="midnightblue" stroke="midnightblue" points="1608.51,-125.89 1598,-127.26 1607.07,-132.74 1608.51,-125.89"/>
</g>
<!-- Node12&#45;&gt;Node20 -->
<g id="edge19" class="edge">
<title>Node12&#45;&gt;Node20</title>
<path fill="none" stroke="midnightblue" d="M1830.33,-168.41C1822.75,-154.45 1805.86,-126.88 1783.72,-112 1748.42,-88.29 1700.65,-76.94 1666.91,-71.59"/>
<polygon fill="midnightblue" stroke="midnightblue" points="1667.32,-68.11 1656.92,-70.11 1666.3,-75.03 1667.32,-68.11"/>
</g>
<!-- Node27&#45;&gt;Node8 -->
<g id="edge21" class="edge">
<title>Node27&#45;&gt;Node8</title>
<path fill="none" stroke="midnightblue" d="M2346.4,-168.37C2328.67,-149.97 2286.95,-106.67 2264.19,-83.05"/>
<polygon fill="midnightblue" stroke="midnightblue" points="2266.46,-80.36 2257,-75.59 2261.41,-85.22 2266.46,-80.36"/>
</g>
<!-- Node27&#45;&gt;Node28 -->
<g id="edge22" class="edge">
<title>Node27&#45;&gt;Node28</title>
<path fill="none" stroke="midnightblue" d="M2417.74,-171.7C2534.78,-161.85 2785.57,-140.76 2915.28,-129.85"/>
<polygon fill="midnightblue" stroke="midnightblue" points="2915.88,-133.31 2925.55,-128.99 2915.29,-126.34 2915.88,-133.31"/>
</g>
<!-- Node27&#45;&gt;Node30 -->
<g id="edge25" class="edge">
<title>Node27&#45;&gt;Node30</title>
<path fill="none" stroke="midnightblue" d="M2291.71,-171.35C2164.57,-159.94 1881.24,-134.53 1785.24,-125.92"/>
<polygon fill="midnightblue" stroke="midnightblue" points="1785.53,-122.43 1775.25,-125.02 1784.9,-129.4 1785.53,-122.43"/>
</g>
<!-- Node28&#45;&gt;Node8 -->
<g id="edge23" class="edge">
<title>Node28&#45;&gt;Node8</title>
<path fill="none" stroke="midnightblue" d="M2925.32,-113.24C2920.72,-112.8 2916.15,-112.39 2911.72,-112 2696.73,-93.33 2441.96,-77.92 2320.31,-70.97"/>
<polygon fill="midnightblue" stroke="midnightblue" points="2320.2,-67.46 2310.02,-70.39 2319.8,-74.45 2320.2,-67.46"/>
</g>
<!-- Node28&#45;&gt;Node29 -->
<g id="edge24" class="edge">
<title>Node28&#45;&gt;Node29</title>
<path fill="none" stroke="midnightblue" d="M3053.92,-112.44C3131.19,-100.88 3266.21,-80.69 3326.78,-71.63"/>
<polygon fill="midnightblue" stroke="midnightblue" points="3327.48,-75.06 3336.85,-70.12 3326.44,-68.14 3327.48,-75.06"/>
</g>
<!-- Node31&#45;&gt;Node6 -->
<g id="edge29" class="edge">
<title>Node31&#45;&gt;Node6</title>
<path fill="none" stroke="midnightblue" d="M1869.48,-113.18C1864.83,-112.74 1860.2,-112.34 1855.72,-112 1369.51,-75.27 774.75,-68.36 634.4,-67.21"/>
<polygon fill="midnightblue" stroke="midnightblue" points="634.04,-63.71 624.01,-67.13 633.99,-70.71 634.04,-63.71"/>
</g>
<!-- Node31&#45;&gt;Node8 -->
<g id="edge27" class="edge">
<title>Node31&#45;&gt;Node8</title>
<path fill="none" stroke="midnightblue" d="M1983.63,-112.44C2039.39,-102.89 2129.6,-87.42 2189.04,-77.23"/>
<polygon fill="midnightblue" stroke="midnightblue" points="2189.77,-80.66 2199.04,-75.52 2188.59,-73.76 2189.77,-80.66"/>
</g>
<!-- Node31&#45;&gt;Node20 -->
<g id="edge28" class="edge">
<title>Node31&#45;&gt;Node20</title>
<path fill="none" stroke="midnightblue" d="M1884.91,-112.44C1824.71,-101.89 1723.43,-84.13 1666.94,-74.23"/>
<polygon fill="midnightblue" stroke="midnightblue" points="1667.39,-70.75 1656.94,-72.47 1666.18,-77.65 1667.39,-70.75"/>
</g>
<!-- Node35&#45;&gt;Node4 -->
<g id="edge72" class="edge">
<title>Node35&#45;&gt;Node4</title>
<path fill="none" stroke="midnightblue" d="M1487.62,-287.19C1358.93,-282.69 1028.66,-269.43 753.72,-244 729.34,-241.75 335.1,-204.16 316.72,-188 303.73,-176.58 300.09,-156.6 299.32,-141.79"/>
<polygon fill="midnightblue" stroke="midnightblue" points="302.81,-141.66 299.18,-131.71 295.81,-141.75 302.81,-141.66"/>
</g>
<!-- Node35&#45;&gt;Node6 -->
<g id="edge81" class="edge">
<title>Node35&#45;&gt;Node6</title>
<path fill="none" stroke="midnightblue" d="M1536.89,-280.2C1516.34,-250 1443.62,-150.38 1354.72,-112 1287.8,-83.11 766.57,-70.39 634.2,-67.6"/>
<polygon fill="midnightblue" stroke="midnightblue" points="634.05,-64.1 623.98,-67.39 633.91,-71.1 634.05,-64.1"/>
</g>
<!-- Node35&#45;&gt;Node8 -->
<g id="edge73" class="edge">
<title>Node35&#45;&gt;Node8</title>
<path fill="none" stroke="midnightblue" d="M1597.73,-287.95C1798.53,-283.93 2482.28,-268.48 2521.72,-244 2576.16,-210.2 2621.87,-160.27 2579.72,-112 2546.69,-74.18 2406.93,-66.94 2319.91,-66.21"/>
<polygon fill="midnightblue" stroke="midnightblue" points="2319.86,-62.71 2309.84,-66.15 2319.82,-69.71 2319.86,-62.71"/>
</g>
<!-- Node35&#45;&gt;Node11 -->
<g id="edge76" class="edge">
<title>Node35&#45;&gt;Node11</title>
<path fill="none" stroke="midnightblue" d="M1487.56,-284.45C1454.36,-279.22 1413.01,-268 1383.72,-244 1366.57,-229.95 1341.2,-171.36 1328.91,-141.17"/>
<polygon fill="midnightblue" stroke="midnightblue" points="1332.12,-139.77 1325.15,-131.79 1325.63,-142.38 1332.12,-139.77"/>
</g>
<!-- Node35&#45;&gt;Node22 -->
<g id="edge74" class="edge">
<title>Node35&#45;&gt;Node22</title>
<path fill="none" stroke="midnightblue" d="M1487.45,-286.84C1385.37,-282.37 1160.49,-270.23 972.72,-244 847.89,-226.56 795.06,-264.27 694.72,-188 679.64,-176.54 670.91,-156.26 666.26,-141.39"/>
<polygon fill="midnightblue" stroke="midnightblue" points="669.62,-140.42 663.57,-131.73 662.88,-142.3 669.62,-140.42"/>
</g>
<!-- Node35&#45;&gt;Node23 -->
<g id="edge75" class="edge">
<title>Node35&#45;&gt;Node23</title>
<path fill="none" stroke="midnightblue" d="M1598.02,-288.4C1807.95,-285.91 2548.88,-274.97 2649.72,-244 2722.44,-221.66 2795.16,-165.34 2827.42,-138.15"/>
<polygon fill="midnightblue" stroke="midnightblue" points="2829.75,-140.76 2835.08,-131.6 2825.2,-135.44 2829.75,-140.76"/>
</g>
<!-- Node35&#45;&gt;Node25 -->
<g id="edge77" class="edge">
<title>Node35&#45;&gt;Node25</title>
<path fill="none" stroke="midnightblue" d="M1597.83,-288.03C1795.74,-284.32 2460.76,-269.99 2497.72,-244 2531.39,-220.31 2542.44,-169.57 2546.03,-141.92"/>
<polygon fill="midnightblue" stroke="midnightblue" points="2549.55,-141.95 2547.15,-131.63 2542.59,-141.19 2549.55,-141.95"/>
</g>
<!-- Node35&#45;&gt;Node26 -->
<g id="edge78" class="edge">
<title>Node35&#45;&gt;Node26</title>
<path fill="none" stroke="midnightblue" d="M1544.6,-280.08C1550.11,-253.95 1566.29,-177.21 1573.8,-141.58"/>
<polygon fill="midnightblue" stroke="midnightblue" points="1577.27,-142.08 1575.91,-131.57 1570.42,-140.63 1577.27,-142.08"/>
</g>
<!-- Node35&#45;&gt;Node20 -->
<g id="edge80" class="edge">
<title>Node35&#45;&gt;Node20</title>
<path fill="none" stroke="midnightblue" d="M1540.33,-280.46C1533.29,-253.43 1515.16,-168.24 1548.72,-112 1557.5,-97.27 1573.1,-86.87 1587.96,-79.8"/>
<polygon fill="midnightblue" stroke="midnightblue" points="1589.78,-82.83 1597.55,-75.63 1586.98,-76.41 1589.78,-82.83"/>
</g>
<!-- Node35&#45;&gt;Node29 -->
<g id="edge79" class="edge">
<title>Node35&#45;&gt;Node29</title>
<path fill="none" stroke="midnightblue" d="M1598.05,-288.42C1796.64,-286.11 2472.94,-276.01 2686.72,-244 2939.38,-206.17 3233.85,-109.57 3327.52,-77.51"/>
<polygon fill="midnightblue" stroke="midnightblue" points="3328.87,-80.75 3337.19,-74.19 3326.6,-74.13 3328.87,-80.75"/>
</g>
<!-- Node36 -->
<g id="node27" class="node">
<title>Node36</title>
<g id="a_node27"><a xlink:href="STLExtras_8h.html" target="_top" xlink:title="llvm/ADT/STLExtras.h">
<polygon fill="none" stroke="black" points="981.72,-224.5 981.72,-243.5 1097.72,-243.5 1097.72,-224.5 981.72,-224.5"/>
<text text-anchor="middle" x="1039.72" y="-231.5" font-family="Helvetica,sans-Serif" font-size="10.00">llvm/ADT/STLExtras.h</text>
</a>
</g>
</g>
<!-- Node35&#45;&gt;Node36 -->
<g id="edge42" class="edge">
<title>Node35&#45;&gt;Node36</title>
<path fill="none" stroke="midnightblue" d="M1487.45,-283.07C1394.8,-273.12 1208.44,-253.11 1107.84,-242.31"/>
<polygon fill="midnightblue" stroke="midnightblue" points="1108.1,-238.82 1097.78,-241.23 1107.35,-245.78 1108.1,-238.82"/>
</g>
<!-- Node36&#45;&gt;Node4 -->
<g id="edge56" class="edge">
<title>Node36&#45;&gt;Node4</title>
<path fill="none" stroke="midnightblue" d="M981.53,-230.71C818.44,-224.11 367.04,-204.44 339.72,-188 322.37,-177.57 311.49,-156.44 305.53,-141.1"/>
<polygon fill="midnightblue" stroke="midnightblue" points="308.8,-139.86 302.17,-131.6 302.2,-142.2 308.8,-139.86"/>
</g>
<!-- Node36&#45;&gt;Node5 -->
<g id="edge66" class="edge">
<title>Node36&#45;&gt;Node5</title>
<path fill="none" stroke="midnightblue" d="M981.66,-232.84C832.81,-231.87 440.56,-225.71 316.72,-188 240.68,-164.85 162.92,-108.92 128.3,-81.99"/>
<polygon fill="midnightblue" stroke="midnightblue" points="130.1,-78.95 120.08,-75.51 125.77,-84.45 130.1,-78.95"/>
</g>
<!-- Node36&#45;&gt;Node6 -->
<g id="edge71" class="edge">
<title>Node36&#45;&gt;Node6</title>
<path fill="none" stroke="midnightblue" d="M981.41,-228.83C909.92,-222.86 793.66,-210.06 756.72,-188 720.24,-166.22 731.74,-138.74 698.72,-112 679.18,-96.18 653.17,-84.36 633.3,-76.81"/>
<polygon fill="midnightblue" stroke="midnightblue" points="634.42,-73.49 623.82,-73.35 632.02,-80.07 634.42,-73.49"/>
</g>
<!-- Node36&#45;&gt;Node11 -->
<g id="edge61" class="edge">
<title>Node36&#45;&gt;Node11</title>
<path fill="none" stroke="midnightblue" d="M1040.26,-224.29C1041.65,-210.15 1046.53,-182.33 1063.72,-168 1097.06,-140.2 1224.21,-128.84 1286.67,-124.86"/>
<polygon fill="midnightblue" stroke="midnightblue" points="1287.06,-128.34 1296.83,-124.24 1286.64,-121.35 1287.06,-128.34"/>
</g>
<!-- Node36&#45;&gt;Node22 -->
<g id="edge59" class="edge">
<title>Node36&#45;&gt;Node22</title>
<path fill="none" stroke="midnightblue" d="M981.47,-229.27C902.83,-223.47 767.51,-210.53 723.72,-188 702.36,-177.01 684.26,-155.71 673.22,-140.49"/>
<polygon fill="midnightblue" stroke="midnightblue" points="675.88,-138.17 667.3,-131.95 670.12,-142.16 675.88,-138.17"/>
</g>
<!-- Node36&#45;&gt;Node23 -->
<g id="edge60" class="edge">
<title>Node36&#45;&gt;Node23</title>
<path fill="none" stroke="midnightblue" d="M1097.85,-232.31C1323.23,-229.41 2132.41,-217.09 2243.72,-188 2262.56,-183.07 2263.98,-173.32 2282.72,-168 2382.62,-139.61 2703.08,-127.37 2809.78,-124.01"/>
<polygon fill="midnightblue" stroke="midnightblue" points="2810.12,-127.5 2820,-123.69 2809.9,-120.5 2810.12,-127.5"/>
</g>
<!-- Node36&#45;&gt;Node26 -->
<g id="edge67" class="edge">
<title>Node36&#45;&gt;Node26</title>
<path fill="none" stroke="midnightblue" d="M1044.93,-224.39C1054.27,-209.85 1075.34,-180.8 1101.72,-168 1141.76,-148.58 1448.77,-130.12 1547.35,-124.64"/>
<polygon fill="midnightblue" stroke="midnightblue" points="1547.74,-128.12 1557.53,-124.07 1547.35,-121.13 1547.74,-128.12"/>
</g>
<!-- Node36&#45;&gt;Node20 -->
<g id="edge70" class="edge">
<title>Node36&#45;&gt;Node20</title>
<path fill="none" stroke="midnightblue" d="M1037.62,-224.19C1034.9,-210.41 1032,-183.71 1045.72,-168 1116.51,-86.91 1463.49,-70.88 1584.21,-67.75"/>
<polygon fill="midnightblue" stroke="midnightblue" points="1584.6,-71.24 1594.51,-67.5 1584.43,-64.25 1584.6,-71.24"/>
</g>
<!-- Node36&#45;&gt;Node28 -->
<g id="edge58" class="edge">
<title>Node36&#45;&gt;Node28</title>
<path fill="none" stroke="midnightblue" d="M1097.94,-232.8C1288.77,-231.78 1912.51,-225.6 2426.72,-188 2607.15,-174.81 2818.5,-147.61 2926.05,-132.93"/>
<polygon fill="midnightblue" stroke="midnightblue" points="2926.7,-136.37 2936.13,-131.55 2925.75,-129.44 2926.7,-136.37"/>
</g>
<!-- Node36&#45;&gt;Node30 -->
<g id="edge63" class="edge">
<title>Node36&#45;&gt;Node30</title>
<path fill="none" stroke="midnightblue" d="M1051.4,-224.49C1074.7,-207.62 1125.47,-171.23 1134.72,-168 1148.67,-163.12 1594.41,-133.44 1720.05,-125.15"/>
<polygon fill="midnightblue" stroke="midnightblue" points="1720.45,-128.63 1730.2,-124.48 1719.99,-121.64 1720.45,-128.63"/>
</g>
<!-- Node36&#45;&gt;Node32 -->
<g id="edge65" class="edge">
<title>Node36&#45;&gt;Node32</title>
<path fill="none" stroke="midnightblue" d="M1062.06,-224.44C1085.47,-215.48 1122.45,-201.31 1148.91,-191.18"/>
<polygon fill="midnightblue" stroke="midnightblue" points="1150.39,-194.36 1158.48,-187.52 1147.89,-187.82 1150.39,-194.36"/>
</g>
<!-- Node36&#45;&gt;Node33 -->
<g id="edge68" class="edge">
<title>Node36&#45;&gt;Node33</title>
<path fill="none" stroke="midnightblue" d="M1097.85,-232.62C1298.6,-231.02 1981.22,-223.16 2543.72,-188 2637.29,-182.15 2660.27,-175.54 2753.72,-168 2999.46,-148.17 3295.68,-130.81 3397.39,-125.03"/>
<polygon fill="midnightblue" stroke="midnightblue" points="3397.66,-128.52 3407.44,-124.46 3397.26,-121.54 3397.66,-128.52"/>
</g>
<!-- Node37 -->
<g id="node28" class="node">
<title>Node37</title>
<g id="a_node28"><a xlink:href="Optional_8h.html" target="_top" xlink:title="llvm/ADT/Optional.h">
<polygon fill="none" stroke="red" points="1958.22,-168.5 1958.22,-187.5 2063.22,-187.5 2063.22,-168.5 1958.22,-168.5"/>
<text text-anchor="middle" x="2010.72" y="-175.5" font-family="Helvetica,sans-Serif" font-size="10.00">llvm/ADT/Optional.h</text>
</a>
</g>
</g>
<!-- Node36&#45;&gt;Node37 -->
<g id="edge43" class="edge">
<title>Node36&#45;&gt;Node37</title>
<path fill="none" stroke="midnightblue" d="M1097.8,-230.74C1237.66,-225.15 1604.2,-209.51 1909.72,-188 1922.12,-187.13 1935.36,-186.05 1948.04,-184.95"/>
<polygon fill="midnightblue" stroke="midnightblue" points="1948.41,-188.43 1958.07,-184.07 1947.8,-181.46 1948.41,-188.43"/>
</g>
<!-- Node39 -->
<g id="node29" class="node">
<title>Node39</title>
<g id="a_node29"><a xlink:href="iterator_8h.html" target="_top" xlink:title="llvm/ADT/iterator.h">
<polygon fill="none" stroke="black" points="420.22,-168.5 420.22,-187.5 519.22,-187.5 519.22,-168.5 420.22,-168.5"/>
<text text-anchor="middle" x="469.72" y="-175.5" font-family="Helvetica,sans-Serif" font-size="10.00">llvm/ADT/iterator.h</text>
</a>
</g>
</g>
<!-- Node36&#45;&gt;Node39 -->
<g id="edge49" class="edge">
<title>Node36&#45;&gt;Node39</title>
<path fill="none" stroke="midnightblue" d="M981.66,-227.5C872.95,-217.2 639.74,-195.11 529.63,-184.68"/>
<polygon fill="midnightblue" stroke="midnightblue" points="529.65,-181.16 519.36,-183.7 528.99,-188.13 529.65,-181.16"/>
</g>
<!-- Node40 -->
<g id="node30" class="node">
<title>Node40</title>
<polygon fill="none" stroke="#bfbfbf" points="765.72,-168.5 765.72,-187.5 895.72,-187.5 895.72,-168.5 765.72,-168.5"/>
<text text-anchor="middle" x="830.72" y="-175.5" font-family="Helvetica,sans-Serif" font-size="10.00">llvm/Config/abi&#45;breaking.h</text>
</g>
<!-- Node36&#45;&gt;Node40 -->
<g id="edge57" class="edge">
<title>Node36&#45;&gt;Node40</title>
<path fill="none" stroke="midnightblue" d="M1006.6,-224.44C970.6,-215.14 912.95,-200.25 873.53,-190.06"/>
<polygon fill="midnightblue" stroke="midnightblue" points="874.24,-186.63 863.68,-187.52 872.49,-193.41 874.24,-186.63"/>
</g>
<!-- Node36&#45;&gt;Node41 -->
<g id="edge62" class="edge">
<title>Node36&#45;&gt;Node41</title>
<path fill="none" stroke="midnightblue" d="M1097.85,-231.76C1447.36,-224.29 3263.34,-185.48 3533.18,-179.72"/>
<polygon fill="midnightblue" stroke="midnightblue" points="3533.58,-183.21 3543.5,-179.5 3533.43,-176.21 3533.58,-183.21"/>
</g>
<!-- Node42 -->
<g id="node32" class="node">
<title>Node42</title>
<polygon fill="none" stroke="#bfbfbf" points="914.22,-168.5 914.22,-187.5 973.22,-187.5 973.22,-168.5 914.22,-168.5"/>
<text text-anchor="middle" x="943.72" y="-175.5" font-family="Helvetica,sans-Serif" font-size="10.00">functional</text>
</g>
<!-- Node36&#45;&gt;Node42 -->
<g id="edge64" class="edge">
<title>Node36&#45;&gt;Node42</title>
<path fill="none" stroke="midnightblue" d="M1024.29,-224.32C1009.18,-215.82 985.9,-202.73 968.25,-192.8"/>
<polygon fill="midnightblue" stroke="midnightblue" points="969.53,-189.51 959.1,-187.65 966.1,-195.61 969.53,-189.51"/>
</g>
<!-- Node43 -->
<g id="node33" class="node">
<title>Node43</title>
<polygon fill="none" stroke="#bfbfbf" points="59.72,-168.5 59.72,-187.5 97.72,-187.5 97.72,-168.5 59.72,-168.5"/>
<text text-anchor="middle" x="78.72" y="-175.5" font-family="Helvetica,sans-Serif" font-size="10.00">tuple</text>
</g>
<!-- Node36&#45;&gt;Node43 -->
<g id="edge69" class="edge">
<title>Node36&#45;&gt;Node43</title>
<path fill="none" stroke="midnightblue" d="M981.41,-229.72C798.87,-219.47 242.56,-188.21 108.17,-180.65"/>
<polygon fill="midnightblue" stroke="midnightblue" points="108.03,-177.14 97.85,-180.08 107.64,-184.13 108.03,-177.14"/>
</g>
<!-- Node37&#45;&gt;Node6 -->
<g id="edge48" class="edge">
<title>Node37&#45;&gt;Node6</title>
<path fill="none" stroke="midnightblue" d="M1982.42,-168.48C1926.08,-151.59 1803.55,-115.17 1783.72,-112 1552.68,-75.07 795.55,-68.22 634.15,-67.17"/>
<polygon fill="midnightblue" stroke="midnightblue" points="634.01,-63.67 623.98,-67.11 633.96,-70.67 634.01,-63.67"/>
</g>
<!-- Node37&#45;&gt;Node8 -->
<g id="edge44" class="edge">
<title>Node37&#45;&gt;Node8</title>
<path fill="none" stroke="midnightblue" d="M2018.39,-168.49C2031.34,-154.64 2058.96,-127.22 2087.72,-112 2118.73,-95.58 2156.37,-84.64 2187.45,-77.65"/>
<polygon fill="midnightblue" stroke="midnightblue" points="2188.26,-81.06 2197.29,-75.52 2186.78,-74.22 2188.26,-81.06"/>
</g>
<!-- Node37&#45;&gt;Node23 -->
<g id="edge46" class="edge">
<title>Node37&#45;&gt;Node23</title>
<path fill="none" stroke="midnightblue" d="M2063.37,-171.98C2078.64,-170.6 2095.33,-169.16 2110.72,-168 2379.65,-147.66 2704.54,-130.25 2809.92,-124.78"/>
<polygon fill="midnightblue" stroke="midnightblue" points="2810.18,-128.27 2819.99,-124.26 2809.82,-121.28 2810.18,-128.27"/>
</g>
<!-- Node37&#45;&gt;Node31 -->
<g id="edge45" class="edge">
<title>Node37&#45;&gt;Node31</title>
<path fill="none" stroke="midnightblue" d="M1998.35,-168.32C1986.56,-160.06 1968.58,-147.45 1954.58,-137.63"/>
<polygon fill="midnightblue" stroke="midnightblue" points="1956.25,-134.53 1946.06,-131.65 1952.24,-140.26 1956.25,-134.53"/>
</g>
<!-- Node37&#45;&gt;Node33 -->
<g id="edge47" class="edge">
<title>Node37&#45;&gt;Node33</title>
<path fill="none" stroke="midnightblue" d="M2063.35,-171.71C2078.62,-170.32 2095.32,-168.95 2110.72,-168 2371.45,-151.85 3212.43,-128.9 3397.48,-123.96"/>
<polygon fill="midnightblue" stroke="midnightblue" points="3397.6,-127.46 3407.51,-123.69 3397.42,-120.46 3397.6,-127.46"/>
</g>
<!-- Node39&#45;&gt;Node4 -->
<g id="edge50" class="edge">
<title>Node39&#45;&gt;Node4</title>
<path fill="none" stroke="midnightblue" d="M442.78,-168.44C414.06,-159.32 368.39,-144.81 336.4,-134.65"/>
<polygon fill="midnightblue" stroke="midnightblue" points="337.12,-131.21 326.53,-131.52 335,-137.88 337.12,-131.21"/>
</g>
<!-- Node39&#45;&gt;Node5 -->
<g id="edge53" class="edge">
<title>Node39&#45;&gt;Node5</title>
<path fill="none" stroke="midnightblue" d="M463.86,-168.08C453.85,-153.64 431.95,-125.39 405.72,-112 360.34,-88.84 210.92,-74.76 143.38,-69.44"/>
<polygon fill="midnightblue" stroke="midnightblue" points="143.52,-65.94 133.28,-68.66 142.98,-72.92 143.52,-65.94"/>
</g>
<!-- Node39&#45;&gt;Node6 -->
<g id="edge55" class="edge">
<title>Node39&#45;&gt;Node6</title>
<path fill="none" stroke="midnightblue" d="M471,-168.25C473.45,-154.54 480.02,-127.93 495.72,-112 516.83,-90.58 549.66,-78.88 573.58,-72.83"/>
<polygon fill="midnightblue" stroke="midnightblue" points="574.61,-76.18 583.55,-70.5 573.01,-69.37 574.61,-76.18"/>
</g>
<!-- Node39&#45;&gt;Node11 -->
<g id="edge52" class="edge">
<title>Node39&#45;&gt;Node11</title>
<path fill="none" stroke="midnightblue" d="M519.52,-173.84C675.81,-163.94 1154.07,-133.63 1287.07,-125.2"/>
<polygon fill="midnightblue" stroke="midnightblue" points="1287.35,-128.69 1297.11,-124.56 1286.9,-121.7 1287.35,-128.69"/>
</g>
<!-- Node39&#45;&gt;Node22 -->
<g id="edge51" class="edge">
<title>Node39&#45;&gt;Node22</title>
<path fill="none" stroke="midnightblue" d="M500.14,-168.44C533.68,-159.01 587.67,-143.83 623.91,-133.63"/>
<polygon fill="midnightblue" stroke="midnightblue" points="624.94,-136.98 633.62,-130.9 623.05,-130.24 624.94,-136.98"/>
</g>
<!-- Node39&#45;&gt;Node20 -->
<g id="edge54" class="edge">
<title>Node39&#45;&gt;Node20</title>
<path fill="none" stroke="midnightblue" d="M475.1,-168.23C484.74,-153.46 506.5,-124.06 533.72,-112 631.03,-68.87 1396.75,-66.78 1584.34,-66.92"/>
<polygon fill="midnightblue" stroke="midnightblue" points="1584.6,-70.42 1594.6,-66.93 1584.61,-63.42 1584.6,-70.42"/>
</g>
<!-- Node45&#45;&gt;Node2 -->
<g id="edge144" class="edge">
<title>Node45&#45;&gt;Node2</title>
<path fill="none" stroke="midnightblue" d="M2806.44,-571.48C2839.07,-564.36 2883.42,-552.52 2919.72,-535 3004.03,-494.31 3034.53,-486.89 3090.72,-412 3101.03,-398.25 3107.01,-379.47 3110.28,-365.63"/>
<polygon fill="midnightblue" stroke="midnightblue" points="3113.71,-366.29 3112.34,-355.79 3106.86,-364.85 3113.71,-366.29"/>
</g>
<!-- Node45&#45;&gt;Node3 -->
<g id="edge91" class="edge">
<title>Node45&#45;&gt;Node3</title>
<path fill="none" stroke="midnightblue" d="M2691,-580.26C2444.06,-580.26 1625.72,-572.14 1625.72,-464.5 1625.72,-464.5 1625.72,-464.5 1625.72,-345 1625.72,-281.11 1703.15,-254.24 1763.76,-243"/>
<polygon fill="midnightblue" stroke="midnightblue" points="1764.45,-246.43 1773.7,-241.26 1763.25,-239.53 1764.45,-246.43"/>
</g>
<!-- Node45&#45;&gt;Node6 -->
<g id="edge150" class="edge">
<title>Node45&#45;&gt;Node6</title>
<path fill="none" stroke="midnightblue" d="M2690.9,-580.33C2299.54,-581.74 395.72,-582.52 395.72,-464.5 395.72,-464.5 395.72,-464.5 395.72,-289 395.72,-211.55 306.46,-244.71 253.72,-188 228.52,-160.9 195.12,-139.65 219.72,-112 243.14,-85.67 486.57,-72.25 573.27,-68.29"/>
<polygon fill="midnightblue" stroke="midnightblue" points="573.67,-71.77 583.5,-67.83 573.36,-64.78 573.67,-71.77"/>
</g>
<!-- Node45&#45;&gt;Node23 -->
<g id="edge145" class="edge">
<title>Node45&#45;&gt;Node23</title>
<path fill="none" stroke="midnightblue" d="M2760.45,-571.32C2759.68,-534.05 2760.22,-384.82 2813.72,-280 2838.35,-231.74 2874.74,-238.75 2893.72,-188 2896.83,-179.67 2897.29,-176.14 2893.72,-168 2888.33,-155.73 2877.76,-145.34 2867.81,-137.65"/>
<polygon fill="midnightblue" stroke="midnightblue" points="2869.54,-134.58 2859.38,-131.6 2865.47,-140.27 2869.54,-134.58"/>
</g>
<!-- Node45&#45;&gt;Node29 -->
<g id="edge148" class="edge">
<title>Node45&#45;&gt;Node29</title>
<path fill="none" stroke="midnightblue" d="M2830.44,-576.93C3054.44,-566.58 3746.15,-530.71 3831.72,-479 3893.8,-441.48 3927.72,-419.54 3927.72,-347 3927.72,-347 3927.72,-347 3927.72,-289 3927.72,-228.57 3913.94,-204.41 3865.72,-168 3789.03,-110.09 3486.28,-78.47 3388.41,-69.61"/>
<polygon fill="midnightblue" stroke="midnightblue" points="3388.56,-66.11 3378.29,-68.71 3387.94,-73.09 3388.56,-66.11"/>
</g>
<!-- Node45&#45;&gt;Node33 -->
<g id="edge147" class="edge">
<title>Node45&#45;&gt;Node33</title>
<path fill="none" stroke="midnightblue" d="M2830.45,-571.89C2833.24,-571.59 2836.01,-571.29 2838.72,-571 3154.69,-537.4 3260.65,-615.24 3547.72,-479 3659.22,-426.08 3704.78,-338.1 3657.72,-224 3646.43,-196.65 3645.85,-185.12 3621.72,-168 3576.24,-135.73 3510.6,-126.39 3470.13,-123.81"/>
<polygon fill="midnightblue" stroke="midnightblue" points="3470.09,-120.31 3459.92,-123.27 3469.72,-127.3 3470.09,-120.31"/>
</g>
<!-- Node45&#45;&gt;Node41 -->
<g id="edge146" class="edge">
<title>Node45&#45;&gt;Node41</title>
<path fill="none" stroke="midnightblue" d="M2830.19,-571.46C3008.35,-549.44 3469.74,-491.56 3500.72,-479 3573.54,-449.48 3605.57,-431.39 3627.72,-356 3644.36,-299.35 3642.52,-274.97 3612.72,-224 3606.07,-212.63 3595.79,-202.19 3586.63,-194.23"/>
<polygon fill="midnightblue" stroke="midnightblue" points="3588.61,-191.33 3578.67,-187.67 3584.16,-196.73 3588.61,-191.33"/>
</g>
<!-- Node45&#45;&gt;Node43 -->
<g id="edge149" class="edge">
<title>Node45&#45;&gt;Node43</title>
<path fill="none" stroke="midnightblue" d="M2691.05,-579.58C2310.53,-577.16 496.36,-564.12 381.72,-535 214.29,-492.47 126.43,-503.62 36.72,-356 5.07,-303.92 44.99,-229.8 66.57,-196.44"/>
<polygon fill="midnightblue" stroke="midnightblue" points="69.69,-198.08 72.34,-187.82 63.87,-194.18 69.69,-198.08"/>
</g>
<!-- Node46 -->
<g id="node36" class="node">
<title>Node46</title>
<g id="a_node36"><a xlink:href="ObjectFile_8h.html" target="_top" xlink:title="llvm/Object/ObjectFile.h">
<polygon fill="none" stroke="red" points="2788.72,-515.5 2788.72,-534.5 2910.72,-534.5 2910.72,-515.5 2788.72,-515.5"/>
<text text-anchor="middle" x="2849.72" y="-522.5" font-family="Helvetica,sans-Serif" font-size="10.00">llvm/Object/ObjectFile.h</text>
</a>
</g>
</g>
<!-- Node45&#45;&gt;Node46 -->
<g id="edge92" class="edge">
<title>Node45&#45;&gt;Node46</title>
<path fill="none" stroke="midnightblue" d="M2775.02,-571.32C2788.9,-562.9 2810.21,-549.97 2826.52,-540.07"/>
<polygon fill="midnightblue" stroke="midnightblue" points="2828.72,-542.83 2835.45,-534.65 2825.09,-536.85 2828.72,-542.83"/>
</g>
<!-- Node92 -->
<g id="node44" class="node">
<title>Node92</title>
<polygon fill="none" stroke="#bfbfbf" points="2590.72,-515.5 2590.72,-534.5 2732.72,-534.5 2732.72,-515.5 2590.72,-515.5"/>
<text text-anchor="middle" x="2661.72" y="-522.5" font-family="Helvetica,sans-Serif" font-size="10.00">llvm/BinaryFormat/Dwarf.def</text>
</g>
<!-- Node45&#45;&gt;Node92 -->
<g id="edge151" class="edge">
<title>Node45&#45;&gt;Node92</title>
<path fill="none" stroke="midnightblue" d="M2744.81,-571.32C2729.08,-562.74 2704.77,-549.49 2686.51,-539.52"/>
<polygon fill="midnightblue" stroke="midnightblue" points="2688.04,-536.37 2677.58,-534.65 2684.69,-542.52 2688.04,-536.37"/>
</g>
<!-- Node46&#45;&gt;Node4 -->
<g id="edge94" class="edge">
<title>Node46&#45;&gt;Node4</title>
<path fill="none" stroke="midnightblue" d="M2788.63,-518.5C2773.32,-517.23 2756.93,-515.98 2741.72,-515 1725.44,-449.81 1466.79,-505.42 452.72,-412 430.32,-409.94 66.63,-372.84 51.72,-356 29.82,-331.28 4.72,-223.06 50.72,-168 72.67,-141.72 160.24,-130.76 225.36,-126.21"/>
<polygon fill="midnightblue" stroke="midnightblue" points="225.86,-129.68 235.6,-125.53 225.4,-122.7 225.86,-129.68"/>
</g>
<!-- Node46&#45;&gt;Node23 -->
<g id="edge140" class="edge">
<title>Node46&#45;&gt;Node23</title>
<path fill="none" stroke="midnightblue" d="M2845.28,-515.33C2828.52,-481.31 2772.88,-355.05 2828.72,-280 2861.96,-235.33 2913.52,-287.15 2948.72,-244 2970.11,-217.77 2972.54,-196.13 2953.72,-168 2949.24,-161.3 2909.03,-145.82 2878.74,-134.89"/>
<polygon fill="midnightblue" stroke="midnightblue" points="2879.91,-131.59 2869.32,-131.52 2877.55,-138.18 2879.91,-131.59"/>
</g>
<!-- Node46&#45;&gt;Node33 -->
<g id="edge142" class="edge">
<title>Node46&#45;&gt;Node33</title>
<path fill="none" stroke="midnightblue" d="M2911,-521.79C3040.04,-516.72 3335.91,-502.83 3433.72,-479 3507.82,-460.94 3533.39,-461.15 3591.72,-412 3674.68,-342.09 3674.93,-245.21 3598.72,-168 3564.92,-133.77 3507.82,-124.84 3470.45,-122.9"/>
<polygon fill="midnightblue" stroke="midnightblue" points="3470.12,-119.39 3460,-122.51 3469.86,-126.38 3470.12,-119.39"/>
</g>
<!-- Node46&#45;&gt;Node35 -->
<g id="edge93" class="edge">
<title>Node46&#45;&gt;Node35</title>
<path fill="none" stroke="midnightblue" d="M2819.07,-515.5C2764.18,-500.47 2645.33,-468.83 2543.72,-448 2193.4,-376.19 1768.24,-319.43 1608,-299.1"/>
<polygon fill="midnightblue" stroke="midnightblue" points="1608.2,-295.59 1597.84,-297.81 1607.32,-302.54 1608.2,-295.59"/>
</g>
<!-- Node46&#45;&gt;Node41 -->
<g id="edge141" class="edge">
<title>Node46&#45;&gt;Node41</title>
<path fill="none" stroke="midnightblue" d="M2910.77,-521.53C3064.43,-514.24 3462.32,-488.28 3566.72,-412 3634.92,-362.16 3621.52,-304.11 3594.72,-224 3591.37,-213.98 3585.39,-203.9 3579.82,-195.83"/>
<polygon fill="midnightblue" stroke="midnightblue" points="3582.58,-193.68 3573.86,-187.67 3576.93,-197.81 3582.58,-193.68"/>
</g>
<!-- Node46&#45;&gt;Node44 -->
<g id="edge143" class="edge">
<title>Node46&#45;&gt;Node44</title>
<path fill="none" stroke="midnightblue" d="M2850.64,-515.43C2854.25,-481.75 2867.53,-357.99 2872.67,-310.1"/>
<polygon fill="midnightblue" stroke="midnightblue" points="2876.18,-310.21 2873.76,-299.9 2869.22,-309.47 2876.18,-310.21"/>
</g>
<!-- Node75 -->
<g id="node37" class="node">
<title>Node75</title>
<g id="a_node37"><a xlink:href="FileSystem_8h.html" target="_top" xlink:title="llvm/Support/FileSystem.h">
<polygon fill="none" stroke="red" points="2949.72,-392.5 2949.72,-411.5 3081.72,-411.5 3081.72,-392.5 2949.72,-392.5"/>
<text text-anchor="middle" x="3015.72" y="-399.5" font-family="Helvetica,sans-Serif" font-size="10.00">llvm/Support/FileSystem.h</text>
</a>
</g>
</g>
<!-- Node46&#45;&gt;Node75 -->
<g id="edge95" class="edge">
<title>Node46&#45;&gt;Node75</title>
<path fill="none" stroke="midnightblue" d="M2861.39,-515.49C2889.3,-495.15 2960.19,-443.48 2995.33,-417.86"/>
<polygon fill="midnightblue" stroke="midnightblue" points="2997.82,-420.38 3003.84,-411.66 2993.69,-414.72 2997.82,-420.38"/>
</g>
<!-- Node46&#45;&gt;Node72 -->
<g id="edge118" class="edge">
<title>Node46&#45;&gt;Node72</title>
<path fill="none" stroke="midnightblue" d="M2794.27,-515.48C2724.01,-504.67 2603.07,-486.08 2528.3,-474.58"/>
<polygon fill="midnightblue" stroke="midnightblue" points="2528.48,-471.07 2518.06,-473.01 2527.41,-477.99 2528.48,-471.07"/>
</g>
<!-- Node75&#45;&gt;Node9 -->
<g id="edge104" class="edge">
<title>Node75&#45;&gt;Node9</title>
<path fill="none" stroke="midnightblue" d="M3082.07,-401.44C3174.82,-400.54 3347.83,-393.35 3489.72,-356 3666.72,-309.4 3766.13,-341.57 3865.72,-188 3933.37,-83.68 3454.99,-32.43 3268.23,-16.56"/>
<polygon fill="midnightblue" stroke="midnightblue" points="3268.48,-13.07 3258.22,-15.72 3267.89,-20.04 3268.48,-13.07"/>
</g>
<!-- Node75&#45;&gt;Node23 -->
<g id="edge112" class="edge">
<title>Node75&#45;&gt;Node23</title>
<path fill="none" stroke="midnightblue" d="M3015.72,-392.44C3015.72,-373.94 3015.72,-328.81 3015.72,-291 3015.72,-291 3015.72,-291 3015.72,-233 3015.72,-202.2 3014.1,-189.15 2991.72,-168 2983.38,-160.12 2919.94,-142.53 2879.17,-131.82"/>
<polygon fill="midnightblue" stroke="midnightblue" points="2879.9,-128.4 2869.34,-129.26 2878.13,-135.17 2879.9,-128.4"/>
</g>
<!-- Node75&#45;&gt;Node28 -->
<g id="edge105" class="edge">
<title>Node75&#45;&gt;Node28</title>
<path fill="none" stroke="midnightblue" d="M3081.99,-400.67C3142.49,-398.09 3233.14,-388.42 3304.72,-356 3345.73,-337.42 3387.01,-322.35 3371.72,-280 3349.74,-219.14 3334.93,-200.04 3278.72,-168 3245.31,-148.96 3148.85,-136.47 3078.01,-129.59"/>
<polygon fill="midnightblue" stroke="midnightblue" points="3078.04,-126.07 3067.76,-128.61 3077.38,-133.04 3078.04,-126.07"/>
</g>
<!-- Node75&#45;&gt;Node29 -->
<g id="edge115" class="edge">
<title>Node75&#45;&gt;Node29</title>
<path fill="none" stroke="midnightblue" d="M3081.98,-399.38C3188.83,-395.92 3393.89,-385.54 3459.72,-356 3493.29,-340.93 3496.5,-327.71 3520.72,-300 3565.56,-248.69 3636.18,-224.92 3598.72,-168 3551.47,-96.21 3442.17,-75.36 3388.53,-69.37"/>
<polygon fill="midnightblue" stroke="midnightblue" points="3388.58,-65.86 3378.28,-68.33 3387.87,-72.82 3388.58,-65.86"/>
</g>
<!-- Node75&#45;&gt;Node33 -->
<g id="edge114" class="edge">
<title>Node75&#45;&gt;Node33</title>
<path fill="none" stroke="midnightblue" d="M3081.86,-397.33C3163.42,-391.86 3296.55,-379.59 3339.72,-356 3418.22,-313.1 3431.27,-189.4 3433.36,-141.89"/>
<polygon fill="midnightblue" stroke="midnightblue" points="3436.86,-141.89 3433.68,-131.78 3429.86,-141.66 3436.86,-141.89"/>
</g>
<!-- Node75&#45;&gt;Node35 -->
<g id="edge96" class="edge">
<title>Node75&#45;&gt;Node35</title>
<path fill="none" stroke="midnightblue" d="M2949.4,-396.8C2845.69,-389.78 2650.01,-374.59 2582.72,-356 2562.4,-350.39 2560.2,-340.97 2539.72,-336 2347.35,-289.35 1847.27,-312.3 1649.72,-300 1636.3,-299.16 1621.95,-298.09 1608.26,-296.97"/>
<polygon fill="midnightblue" stroke="midnightblue" points="1608.2,-293.45 1597.94,-296.11 1607.62,-300.43 1608.2,-293.45"/>
</g>
<!-- Node75&#45;&gt;Node41 -->
<g id="edge113" class="edge">
<title>Node75&#45;&gt;Node41</title>
<path fill="none" stroke="midnightblue" d="M3081.72,-399.13C3182.61,-395.39 3369.81,-384.7 3429.72,-356 3499.23,-322.69 3543.27,-234.74 3559.58,-196.82"/>
<polygon fill="midnightblue" stroke="midnightblue" points="3562.83,-198.11 3563.44,-187.54 3556.37,-195.42 3562.83,-198.11"/>
</g>
<!-- Node75&#45;&gt;Node43 -->
<g id="edge117" class="edge">
<title>Node75&#45;&gt;Node43</title>
<path fill="none" stroke="midnightblue" d="M2949.53,-397.17C2761.08,-386.35 2205.47,-355.13 1743.72,-336 1239.9,-315.13 1109.94,-363.61 609.72,-300 414.93,-275.23 186.73,-211.02 107.51,-187.66"/>
<polygon fill="midnightblue" stroke="midnightblue" points="108.34,-184.25 97.76,-184.77 106.35,-190.97 108.34,-184.25"/>
</g>
<!-- Node75&#45;&gt;Node44 -->
<g id="edge116" class="edge">
<title>Node75&#45;&gt;Node44</title>
<path fill="none" stroke="midnightblue" d="M3004.65,-392.37C2980.66,-373.65 2923.62,-329.15 2893.73,-305.83"/>
<polygon fill="midnightblue" stroke="midnightblue" points="2895.77,-302.98 2885.73,-299.59 2891.46,-308.5 2895.77,-302.98"/>
</g>
<!-- Node56 -->
<g id="node38" class="node">
<title>Node56</title>
<g id="a_node38"><a xlink:href="Twine_8h.html" target="_top" xlink:title="llvm/ADT/Twine.h">
<polygon fill="none" stroke="black" points="3201.22,-336.5 3201.22,-355.5 3296.22,-355.5 3296.22,-336.5 3201.22,-336.5"/>
<text text-anchor="middle" x="3248.72" y="-343.5" font-family="Helvetica,sans-Serif" font-size="10.00">llvm/ADT/Twine.h</text>
</a>
</g>
</g>
<!-- Node75&#45;&gt;Node56 -->
<g id="edge97" class="edge">
<title>Node75&#45;&gt;Node56</title>
<path fill="none" stroke="midnightblue" d="M3052.64,-392.44C3093.11,-383.06 3158.14,-367.99 3202.1,-357.8"/>
<polygon fill="midnightblue" stroke="midnightblue" points="3203.02,-361.18 3211.97,-355.52 3201.44,-354.36 3203.02,-361.18"/>
</g>
<!-- Node75&#45;&gt;Node69 -->
<g id="edge106" class="edge">
<title>Node75&#45;&gt;Node69</title>
<path fill="none" stroke="midnightblue" d="M2957.56,-392.44C2891.87,-382.78 2785.13,-367.07 2715.92,-356.89"/>
<polygon fill="midnightblue" stroke="midnightblue" points="2716.4,-353.42 2705.99,-355.43 2715.38,-360.35 2716.4,-353.42"/>
</g>
<!-- Node56&#45;&gt;Node3 -->
<g id="edge98" class="edge">
<title>Node56&#45;&gt;Node3</title>
<path fill="none" stroke="midnightblue" d="M3223.29,-336.4C3178.65,-321.75 3083.03,-292.33 2999.72,-280 2787.1,-248.52 2125.45,-238.3 1906.15,-235.73"/>
<polygon fill="midnightblue" stroke="midnightblue" points="1906.08,-232.23 1896.04,-235.62 1906,-239.23 1906.08,-232.23"/>
</g>
<!-- Node56&#45;&gt;Node23 -->
<g id="edge101" class="edge">
<title>Node56&#45;&gt;Node23</title>
<path fill="none" stroke="midnightblue" d="M3242.07,-336.23C3219.39,-306.98 3141.56,-212.12 3053.72,-168 3023.54,-152.84 2930.67,-136.5 2879.48,-128.31"/>
<polygon fill="midnightblue" stroke="midnightblue" points="2879.95,-124.84 2869.52,-126.74 2878.85,-131.76 2879.95,-124.84"/>
</g>
<!-- Node56&#45;&gt;Node28 -->
<g id="edge100" class="edge">
<title>Node56&#45;&gt;Node28</title>
<path fill="none" stroke="midnightblue" d="M3252.79,-336.34C3265.35,-308.21 3300.14,-218.36 3257.72,-168 3235.04,-141.07 3146.09,-130.26 3078.28,-125.91"/>
<polygon fill="midnightblue" stroke="midnightblue" points="3078.21,-122.4 3068.02,-125.3 3077.79,-129.39 3078.21,-122.4"/>
</g>
<!-- Node56&#45;&gt;Node29 -->
<g id="edge103" class="edge">
<title>Node56&#45;&gt;Node29</title>
<path fill="none" stroke="midnightblue" d="M3267.95,-336.42C3299.24,-320.99 3357.72,-285.41 3357.72,-235 3357.72,-235 3357.72,-235 3357.72,-177 3357.72,-144.95 3357.72,-107.64 3357.72,-85.75"/>
<polygon fill="midnightblue" stroke="midnightblue" points="3361.22,-85.56 3357.72,-75.56 3354.22,-85.56 3361.22,-85.56"/>
</g>
<!-- Node56&#45;&gt;Node35 -->
<g id="edge99" class="edge">
<title>Node56&#45;&gt;Node35</title>
<path fill="none" stroke="midnightblue" d="M3201.19,-337.02C3197.99,-336.63 3194.81,-336.29 3191.72,-336 2876.17,-306.91 1873.97,-294.49 1608.03,-291.65"/>
<polygon fill="midnightblue" stroke="midnightblue" points="1607.8,-288.15 1597.76,-291.54 1607.73,-295.15 1607.8,-288.15"/>
</g>
<!-- Node56&#45;&gt;Node41 -->
<g id="edge102" class="edge">
<title>Node56&#45;&gt;Node41</title>
<path fill="none" stroke="midnightblue" d="M3277.24,-336.4C3302.61,-328.33 3340.44,-315.23 3371.72,-300 3438.8,-267.34 3512.09,-217.72 3546.6,-193.42"/>
<polygon fill="midnightblue" stroke="midnightblue" points="3548.76,-196.18 3554.89,-187.55 3544.71,-190.47 3548.76,-196.18"/>
</g>
<!-- Node69&#45;&gt;Node6 -->
<g id="edge111" class="edge">
<title>Node69&#45;&gt;Node6</title>
<path fill="none" stroke="midnightblue" d="M2591.43,-343.93C2351.25,-339.35 1424.43,-320.66 1132.72,-300 910.1,-284.23 854.73,-274.96 633.72,-244 485.09,-223.18 438.52,-247.44 300.72,-188 262.84,-171.67 245.08,-168.93 226.72,-132 222.76,-124.04 220.82,-118.65 226.72,-112 249.67,-86.15 488.16,-72.45 573.53,-68.34"/>
<polygon fill="midnightblue" stroke="midnightblue" points="573.79,-71.83 583.61,-67.87 573.46,-64.84 573.79,-71.83"/>
</g>
<!-- Node69&#45;&gt;Node7 -->
<g id="edge107" class="edge">
<title>Node69&#45;&gt;Node7</title>
<path fill="none" stroke="midnightblue" d="M2624.39,-336.42C2546.22,-308.88 2301.37,-222.58 2211.36,-190.86"/>
<polygon fill="midnightblue" stroke="midnightblue" points="2212.5,-187.55 2201.9,-187.52 2210.17,-194.15 2212.5,-187.55"/>
</g>
<!-- Node69&#45;&gt;Node23 -->
<g id="edge108" class="edge">
<title>Node69&#45;&gt;Node23</title>
<path fill="none" stroke="midnightblue" d="M2662.88,-336.4C2711.02,-307.03 2865.98,-211.23 2877.72,-188 2886.13,-171.35 2873.91,-152.32 2862.04,-139.18"/>
<polygon fill="midnightblue" stroke="midnightblue" points="2864.36,-136.54 2854.87,-131.83 2859.34,-141.43 2864.36,-136.54"/>
</g>
<!-- Node69&#45;&gt;Node20 -->
<g id="edge110" class="edge">
<title>Node69&#45;&gt;Node20</title>
<path fill="none" stroke="midnightblue" d="M2591.34,-337.87C2586.06,-337.23 2580.79,-336.6 2575.72,-336 2395.6,-314.68 1923.83,-331.07 1764.72,-244 1697.04,-206.97 1651.08,-121.78 1633.59,-84.74"/>
<polygon fill="midnightblue" stroke="midnightblue" points="1636.77,-83.27 1629.41,-75.65 1630.41,-86.19 1636.77,-83.27"/>
</g>
<!-- Node69&#45;&gt;Node44 -->
<g id="edge109" class="edge">
<title>Node69&#45;&gt;Node44</title>
<path fill="none" stroke="midnightblue" d="M2684.53,-336.44C2723.7,-327.08 2786.59,-312.06 2829.23,-301.87"/>
<polygon fill="midnightblue" stroke="midnightblue" points="2830.16,-305.24 2839.07,-299.52 2828.53,-298.44 2830.16,-305.24"/>
</g>
<!-- Node72&#45;&gt;Node11 -->
<g id="edge137" class="edge">
<title>Node72&#45;&gt;Node11</title>
<path fill="none" stroke="midnightblue" d="M2390.48,-462.8C2139.66,-462.88 1321.72,-454.89 1321.72,-347 1321.72,-347 1321.72,-347 1321.72,-233 1321.72,-200.95 1321.72,-163.64 1321.72,-141.75"/>
<polygon fill="midnightblue" stroke="midnightblue" points="1325.22,-141.56 1321.72,-131.56 1318.22,-141.56 1325.22,-141.56"/>
</g>
<!-- Node72&#45;&gt;Node33 -->
<g id="edge139" class="edge">
<title>Node72&#45;&gt;Node33</title>
<path fill="none" stroke="midnightblue" d="M2534.75,-461.55C2723.51,-457.89 3227.56,-440.27 3367.72,-356 3438.11,-313.68 3437.47,-269.82 3444.72,-188 3445.5,-179.15 3445.78,-176.83 3444.72,-168 3443.65,-159.11 3441.42,-149.43 3439.26,-141.34"/>
<polygon fill="midnightblue" stroke="midnightblue" points="3442.56,-140.17 3436.45,-131.51 3435.83,-142.09 3442.56,-140.17"/>
</g>
<!-- Node72&#45;&gt;Node35 -->
<g id="edge131" class="edge">
<title>Node72&#45;&gt;Node35</title>
<path fill="none" stroke="midnightblue" d="M2417.09,-454C2263.51,-425.37 1765.56,-332.54 1598.18,-301.34"/>
<polygon fill="midnightblue" stroke="midnightblue" points="1598.82,-297.9 1588.34,-299.51 1597.53,-304.78 1598.82,-297.9"/>
</g>
<!-- Node72&#45;&gt;Node41 -->
<g id="edge138" class="edge">
<title>Node72&#45;&gt;Node41</title>
<path fill="none" stroke="midnightblue" d="M2534.94,-461.61C2770.9,-458.36 3506.1,-445.6 3543.72,-412 3605.48,-356.83 3583.5,-241.9 3571.96,-197.27"/>
<polygon fill="midnightblue" stroke="midnightblue" points="3575.3,-196.25 3569.3,-187.52 3568.55,-198.09 3575.3,-196.25"/>
</g>
<!-- Node72&#45;&gt;Node75 -->
<g id="edge136" class="edge">
<title>Node72&#45;&gt;Node75</title>
<path fill="none" stroke="midnightblue" d="M2534.73,-454.75C2639.29,-443.5 2832.31,-422.73 2939.29,-411.22"/>
<polygon fill="midnightblue" stroke="midnightblue" points="2939.81,-414.69 2949.37,-410.14 2939.06,-407.73 2939.81,-414.69"/>
</g>
<!-- Node72&#45;&gt;Node56 -->
<g id="edge132" class="edge">
<title>Node72&#45;&gt;Node56</title>
<path fill="none" stroke="midnightblue" d="M2520.1,-453.96C2609.82,-440.63 2788.81,-414.1 2940.72,-392 3049.08,-376.24 3078.62,-372.97 3191.09,-356.08"/>
<polygon fill="midnightblue" stroke="midnightblue" points="3191.77,-359.51 3201.14,-354.56 3190.73,-352.59 3191.77,-359.51"/>
</g>
<!-- Node72&#45;&gt;Node69 -->
<g id="edge135" class="edge">
<title>Node72&#45;&gt;Node69</title>
<path fill="none" stroke="midnightblue" d="M2471.64,-453.81C2486.63,-439.56 2518.19,-410.92 2548.72,-392 2569.99,-378.81 2595.8,-367.3 2615.86,-359.22"/>
<polygon fill="midnightblue" stroke="midnightblue" points="2617.18,-362.46 2625.2,-355.54 2614.62,-355.95 2617.18,-362.46"/>
</g>
<!-- Node61 -->
<g id="node41" class="node">
<title>Node61</title>
<g id="a_node41"><a xlink:href="c_2Types_8h.html" target="_top" xlink:title="llvm&#45;c/Types.h">
<polygon fill="none" stroke="red" points="1654.22,-336.5 1654.22,-355.5 1735.22,-355.5 1735.22,-336.5 1654.22,-336.5"/>
<text text-anchor="middle" x="1694.72" y="-343.5" font-family="Helvetica,sans-Serif" font-size="10.00">llvm&#45;c/Types.h</text>
</a>
</g>
</g>
<!-- Node72&#45;&gt;Node61 -->
<g id="edge119" class="edge">
<title>Node72&#45;&gt;Node61</title>
<path fill="none" stroke="midnightblue" d="M2403.52,-453.94C2281.27,-436.21 1992.08,-393.93 1749.72,-356 1748.25,-355.77 1746.77,-355.54 1745.27,-355.3"/>
<polygon fill="midnightblue" stroke="midnightblue" points="1745.68,-351.82 1735.26,-353.7 1744.58,-358.73 1745.68,-351.82"/>
</g>
<!-- Node48 -->
<g id="node42" class="node">
<title>Node48</title>
<g id="a_node42"><a xlink:href="ArrayRef_8h.html" target="_top" xlink:title="llvm/ADT/ArrayRef.h">
<polygon fill="none" stroke="red" points="1141.72,-280.5 1141.72,-299.5 1249.72,-299.5 1249.72,-280.5 1141.72,-280.5"/>
<text text-anchor="middle" x="1195.72" y="-287.5" font-family="Helvetica,sans-Serif" font-size="10.00">llvm/ADT/ArrayRef.h</text>
</a>
</g>
</g>
<!-- Node72&#45;&gt;Node48 -->
<g id="edge120" class="edge">
<title>Node72&#45;&gt;Node48</title>
<path fill="none" stroke="midnightblue" d="M2390.54,-460.86C2145.34,-455.07 1356.89,-434.78 1307.72,-412 1259.6,-389.71 1222.47,-336.32 1205.63,-308.51"/>
<polygon fill="midnightblue" stroke="midnightblue" points="1208.44,-306.38 1200.36,-299.53 1202.4,-309.92 1208.44,-306.38"/>
</g>
<!-- Node73 -->
<g id="node43" class="node">
<title>Node73</title>
<g id="a_node43"><a xlink:href="CBindingWrapping_8h.html" target="_top" xlink:title="llvm/Support/CBindingWrapping.h">
<polygon fill="none" stroke="red" points="1726.72,-392.5 1726.72,-411.5 1890.72,-411.5 1890.72,-392.5 1726.72,-392.5"/>
<text text-anchor="middle" x="1808.72" y="-399.5" font-family="Helvetica,sans-Serif" font-size="10.00">llvm/Support/CBindingWrapping.h</text>
</a>
</g>
</g>
<!-- Node72&#45;&gt;Node73 -->
<g id="edge133" class="edge">
<title>Node72&#45;&gt;Node73</title>
<path fill="none" stroke="midnightblue" d="M2390.54,-455.93C2271.08,-445.06 2032.38,-423.35 1900.89,-411.39"/>
<polygon fill="midnightblue" stroke="midnightblue" points="1901.11,-407.89 1890.84,-410.47 1900.48,-414.86 1901.11,-407.89"/>
</g>
<!-- Node48&#45;&gt;Node3 -->
<g id="edge121" class="edge">
<title>Node48&#45;&gt;Node3</title>
<path fill="none" stroke="midnightblue" d="M1249.92,-284.42C1365.08,-274.69 1634.12,-251.95 1763.18,-241.05"/>
<polygon fill="midnightblue" stroke="midnightblue" points="1763.68,-244.52 1773.35,-240.19 1763.09,-237.54 1763.68,-244.52"/>
</g>
<!-- Node48&#45;&gt;Node5 -->
<g id="edge128" class="edge">
<title>Node48&#45;&gt;Node5</title>
<path fill="none" stroke="midnightblue" d="M1141.52,-289.22C1000.14,-288.46 609.69,-277.7 300.72,-188 239.12,-170.12 219.9,-169.29 167.72,-132 149.14,-118.73 132.31,-98.51 121.62,-84.15"/>
<polygon fill="midnightblue" stroke="midnightblue" points="124.21,-81.76 115.53,-75.69 118.53,-85.85 124.21,-81.76"/>
</g>
<!-- Node48&#45;&gt;Node8 -->
<g id="edge123" class="edge">
<title>Node48&#45;&gt;Node8</title>
<path fill="none" stroke="midnightblue" d="M1249.82,-286.61C1482.33,-276.1 2386.77,-232.46 2426.72,-188 2472.62,-136.91 2360.84,-96.8 2294.14,-78.25"/>
<polygon fill="midnightblue" stroke="midnightblue" points="2294.83,-74.81 2284.26,-75.56 2292.99,-81.56 2294.83,-74.81"/>
</g>
<!-- Node48&#45;&gt;Node11 -->
<g id="edge126" class="edge">
<title>Node48&#45;&gt;Node11</title>
<path fill="none" stroke="midnightblue" d="M1199.76,-280.49C1209.8,-259.87 1237.39,-206.13 1269.72,-168 1279.13,-156.9 1291.36,-146.17 1301.6,-137.97"/>
<polygon fill="midnightblue" stroke="midnightblue" points="1303.88,-140.63 1309.63,-131.73 1299.58,-135.11 1303.88,-140.63"/>
</g>
<!-- Node48&#45;&gt;Node22 -->
<g id="edge124" class="edge">
<title>Node48&#45;&gt;Node22</title>
<path fill="none" stroke="midnightblue" d="M1141.46,-286.83C1018.12,-281.54 724.32,-266.69 685.72,-244 659.79,-228.76 656.55,-216.75 647.72,-188 642.9,-172.33 647.74,-154.04 653,-140.86"/>
<polygon fill="midnightblue" stroke="midnightblue" points="656.28,-142.09 657.13,-131.53 649.88,-139.26 656.28,-142.09"/>
</g>
<!-- Node48&#45;&gt;Node23 -->
<g id="edge125" class="edge">
<title>Node48&#45;&gt;Node23</title>
<path fill="none" stroke="midnightblue" d="M1250.11,-287.23C1494.78,-279.25 2482.14,-246.92 2497.72,-244 2621.02,-220.92 2759.62,-161.91 2817.28,-135.78"/>
<polygon fill="midnightblue" stroke="midnightblue" points="2818.81,-138.93 2826.45,-131.59 2815.9,-132.56 2818.81,-138.93"/>
</g>
<!-- Node48&#45;&gt;Node20 -->
<g id="edge130" class="edge">
<title>Node48&#45;&gt;Node20</title>
<path fill="none" stroke="midnightblue" d="M1141.42,-287.86C1012.45,-284.68 695.69,-273.89 658.72,-244 611.6,-205.91 582.85,-155.79 624.72,-112 658.38,-76.79 1399.7,-68.74 1584.35,-67.28"/>
<polygon fill="midnightblue" stroke="midnightblue" points="1584.49,-70.78 1594.46,-67.2 1584.44,-63.78 1584.49,-70.78"/>
</g>
<!-- Node48&#45;&gt;Node32 -->
<g id="edge127" class="edge">
<title>Node48&#45;&gt;Node32</title>
<path fill="none" stroke="midnightblue" d="M1194.54,-280.37C1192.12,-262.62 1186.54,-221.67 1183.25,-197.6"/>
<polygon fill="midnightblue" stroke="midnightblue" points="1186.71,-197.03 1181.89,-187.59 1179.77,-197.97 1186.71,-197.03"/>
</g>
<!-- Node48&#45;&gt;Node33 -->
<g id="edge129" class="edge">
<title>Node48&#45;&gt;Node33</title>
<path fill="none" stroke="midnightblue" d="M1249.89,-287.28C1498.29,-279.37 2517.77,-246.8 2550.72,-244 2881.09,-215.95 3277.06,-150.08 3397.33,-129.36"/>
<polygon fill="midnightblue" stroke="midnightblue" points="3398.2,-132.76 3407.46,-127.61 3397.01,-125.86 3398.2,-132.76"/>
</g>
<!-- Node48&#45;&gt;Node36 -->
<g id="edge122" class="edge">
<title>Node48&#45;&gt;Node36</title>
<path fill="none" stroke="midnightblue" d="M1171,-280.44C1144.87,-271.4 1103.46,-257.06 1074.14,-246.92"/>
<polygon fill="midnightblue" stroke="midnightblue" points="1074.91,-243.48 1064.32,-243.52 1072.63,-250.1 1074.91,-243.48"/>
</g>
<!-- Node73&#45;&gt;Node61 -->
<g id="edge134" class="edge">
<title>Node73&#45;&gt;Node61</title>
<path fill="none" stroke="midnightblue" d="M1790.65,-392.44C1772.14,-383.68 1743.14,-369.94 1721.86,-359.86"/>
<polygon fill="midnightblue" stroke="midnightblue" points="1723.23,-356.63 1712.7,-355.52 1720.24,-362.96 1723.23,-356.63"/>
</g>
<!-- Node70&#45;&gt;Node6 -->
<g id="edge161" class="edge">
<title>Node70&#45;&gt;Node6</title>
<path fill="none" stroke="midnightblue" d="M293.52,-336.39C278.62,-327.34 254.51,-312.69 233.72,-300 228.63,-296.9 53.63,-193.2 50.72,-188 46.37,-180.25 46.54,-175.85 50.72,-168 71.61,-128.71 91.83,-127.03 133.72,-112 215.27,-82.74 482.65,-71.12 573.33,-67.96"/>
<polygon fill="midnightblue" stroke="midnightblue" points="573.61,-71.45 583.48,-67.61 573.37,-64.45 573.61,-71.45"/>
</g>
<!-- Node70&#45;&gt;Node23 -->
<g id="edge158" class="edge">
<title>Node70&#45;&gt;Node23</title>
<path fill="none" stroke="midnightblue" d="M364.23,-344.16C702.9,-338.93 2456.82,-308.84 2686.72,-244 2736.87,-229.86 2749.31,-220.9 2789.72,-188 2806.83,-174.07 2822.69,-154.28 2832.94,-140.2"/>
<polygon fill="midnightblue" stroke="midnightblue" points="2835.9,-142.08 2838.82,-131.9 2830.18,-138.04 2835.9,-142.08"/>
</g>
<!-- Node70&#45;&gt;Node35 -->
<g id="edge156" class="edge">
<title>Node70&#45;&gt;Node35</title>
<path fill="none" stroke="midnightblue" d="M364.4,-342.52C567.83,-333.63 1260.54,-303.34 1477.32,-293.86"/>
<polygon fill="midnightblue" stroke="midnightblue" points="1477.74,-297.34 1487.58,-293.41 1477.44,-290.35 1477.74,-297.34"/>
</g>
<!-- Node70&#45;&gt;Node36 -->
<g id="edge155" class="edge">
<title>Node70&#45;&gt;Node36</title>
<path fill="none" stroke="midnightblue" d="M364.24,-336.51C497.45,-316.49 830.53,-266.44 973.18,-245"/>
<polygon fill="midnightblue" stroke="midnightblue" points="973.74,-248.45 983.11,-243.51 972.7,-241.53 973.74,-248.45"/>
</g>
<!-- Node70&#45;&gt;Node43 -->
<g id="edge160" class="edge">
<title>Node70&#45;&gt;Node43</title>
<path fill="none" stroke="midnightblue" d="M298.51,-336.13C284.86,-323.18 258.24,-298.61 233.72,-280 188.97,-246.04 133.01,-211.34 102.05,-192.76"/>
<polygon fill="midnightblue" stroke="midnightblue" points="103.67,-189.65 93.29,-187.53 100.08,-195.66 103.67,-189.65"/>
</g>
<!-- Node70&#45;&gt;Node48 -->
<g id="edge154" class="edge">
<title>Node70&#45;&gt;Node48</title>
<path fill="none" stroke="midnightblue" d="M364.28,-341.56C521.81,-331.98 964.92,-305.03 1131.41,-294.91"/>
<polygon fill="midnightblue" stroke="midnightblue" points="1131.73,-298.4 1141.5,-294.3 1131.31,-291.41 1131.73,-298.4"/>
</g>
<!-- Node14 -->
<g id="node46" class="node">
<title>Node14</title>
<g id="a_node46"><a xlink:href="Support_2DataTypes_8h.html" target="_top" xlink:title="llvm/Support/DataTypes.h">
<polygon fill="none" stroke="red" points="60.22,-280.5 60.22,-299.5 191.22,-299.5 191.22,-280.5 60.22,-280.5"/>
<text text-anchor="middle" x="125.72" y="-287.5" font-family="Helvetica,sans-Serif" font-size="10.00">llvm/Support/DataTypes.h</text>
</a>
</g>
</g>
<!-- Node70&#45;&gt;Node14 -->
<g id="edge157" class="edge">
<title>Node70&#45;&gt;Node14</title>
<path fill="none" stroke="midnightblue" d="M278.88,-336.44C247.86,-327.24 198.39,-312.56 164.1,-302.39"/>
<polygon fill="midnightblue" stroke="midnightblue" points="165,-299.01 154.42,-299.52 163.01,-305.72 165,-299.01"/>
</g>
<!-- Node71 -->
<g id="node47" class="node">
<title>Node71</title>
<polygon fill="none" stroke="#bfbfbf" points="286.22,-280.5 286.22,-299.5 329.22,-299.5 329.22,-280.5 286.22,-280.5"/>
<text text-anchor="middle" x="307.72" y="-287.5" font-family="Helvetica,sans-Serif" font-size="10.00">cstdio</text>
</g>
<!-- Node70&#45;&gt;Node71 -->
<g id="edge159" class="edge">
<title>Node70&#45;&gt;Node71</title>
<path fill="none" stroke="midnightblue" d="M307.72,-336.08C307.72,-329.01 307.72,-318.86 307.72,-309.99"/>
<polygon fill="midnightblue" stroke="midnightblue" points="311.22,-309.75 307.72,-299.75 304.22,-309.75 311.22,-309.75"/>
</g>
<!-- Node93&#45;&gt;Node5 -->
<g id="edge165" class="edge">
<title>Node93&#45;&gt;Node5</title>
<path fill="none" stroke="midnightblue" d="M102.88,-336.4C86.01,-329.15 64.09,-317.18 50.72,-300 18.84,-259.05 25.13,-239.36 17.72,-188 16.45,-179.2 14.51,-176.29 17.72,-168 32.01,-131.09 66.75,-99.39 89.22,-81.79"/>
<polygon fill="midnightblue" stroke="midnightblue" points="91.59,-84.38 97.44,-75.54 87.36,-78.8 91.59,-84.38"/>
</g>
<!-- Node93&#45;&gt;Node35 -->
<g id="edge163" class="edge">
<title>Node93&#45;&gt;Node35</title>
<path fill="none" stroke="midnightblue" d="M192.36,-339.37C208.49,-338.12 225.72,-336.9 241.72,-336 365.32,-329.03 1230.35,-301.03 1477.13,-293.1"/>
<polygon fill="midnightblue" stroke="midnightblue" points="1477.5,-296.59 1487.38,-292.77 1477.27,-289.59 1477.5,-296.59"/>
</g>
<!-- Node93&#45;&gt;Node14 -->
<g id="edge164" class="edge">
<title>Node93&#45;&gt;Node14</title>
<path fill="none" stroke="midnightblue" d="M126.55,-336.08C126.42,-329.01 126.23,-318.86 126.07,-309.99"/>
<polygon fill="midnightblue" stroke="midnightblue" points="129.56,-309.68 125.88,-299.75 122.57,-309.81 129.56,-309.68"/>
</g>
<!-- Node94&#45;&gt;Node5 -->
<g id="edge171" class="edge">
<title>Node94&#45;&gt;Node5</title>
<path fill="none" stroke="midnightblue" d="M462,-399.13C348.09,-394.56 83.13,-381.32 51.72,-356 -14.72,-302.45 -3.81,-251.72 12.72,-168 17.93,-141.6 18.24,-132.46 35.72,-112 47.42,-98.31 64.36,-87.58 79.09,-80.04"/>
<polygon fill="midnightblue" stroke="midnightblue" points="80.9,-83.05 88.37,-75.54 77.84,-76.75 80.9,-83.05"/>
</g>
<!-- Node94&#45;&gt;Node39 -->
<g id="edge169" class="edge">
<title>Node94&#45;&gt;Node39</title>
<path fill="none" stroke="midnightblue" d="M511.99,-392.3C505.52,-359.63 482.57,-243.87 473.47,-197.96"/>
<polygon fill="midnightblue" stroke="midnightblue" points="476.86,-197.01 471.48,-187.88 469.99,-198.37 476.86,-197.01"/>
</g>
<!-- Node94&#45;&gt;Node44 -->
<g id="edge172" class="edge">
<title>Node94&#45;&gt;Node44</title>
<path fill="none" stroke="midnightblue" d="M565.26,-400.48C886.71,-397.15 2606.16,-378.36 2714.72,-356 2764.8,-345.68 2819.16,-320.27 2849.87,-304.44"/>
<polygon fill="midnightblue" stroke="midnightblue" points="2851.74,-307.42 2858.98,-299.68 2848.5,-301.22 2851.74,-307.42"/>
</g>
<!-- Node94&#45;&gt;Node56 -->
<g id="edge168" class="edge">
<title>Node94&#45;&gt;Node56</title>
<path fill="none" stroke="midnightblue" d="M565.31,-400.57C910.17,-397.62 2876.28,-379.92 3191.11,-355.84"/>
<polygon fill="midnightblue" stroke="midnightblue" points="3191.51,-359.31 3201.19,-355.01 3190.94,-352.34 3191.51,-359.31"/>
</g>
<!-- Node94&#45;&gt;Node14 -->
<g id="edge170" class="edge">
<title>Node94&#45;&gt;Node14</title>
<path fill="none" stroke="midnightblue" d="M462.02,-393.43C388.96,-382.59 262.1,-363.15 241.72,-356 222.83,-349.38 176.31,-321.9 148.26,-304.87"/>
<polygon fill="midnightblue" stroke="midnightblue" points="149.88,-301.75 139.52,-299.53 146.23,-307.73 149.88,-301.75"/>
</g>
</g>
</svg>
