<?xml version="1.0" encoding="UTF-8" standalone="no"?>
<!DOCTYPE svg PUBLIC "-//W3C//DTD SVG 1.1//EN"
 "http://www.w3.org/Graphics/SVG/1.1/DTD/svg11.dtd">
<!-- Generated by graphviz version 2.43.0 (0)
 -->
<!-- Title: lib/Target/ARM/MCTargetDesc Pages: 1 -->
<svg width="180pt" height="223pt"
 viewBox="0.00 0.00 179.50 223.00" xmlns="http://www.w3.org/2000/svg" xmlns:xlink="http://www.w3.org/1999/xlink">
<g id="graph0" class="graph" transform="scale(1 1) rotate(0) translate(4 219)">
<title>lib/Target/ARM/MCTargetDesc</title>
<g id="clust1" class="cluster">
<title>clusterdir_4394675d1fa84070817ace1e93b57e8a</title>
<g id="a_clust1"><a xlink:href="dir_4394675d1fa84070817ace1e93b57e8a.html" target="_top" xlink:title="ARM">
<polygon fill="#ddddee" stroke="black" points="32,-136 32,-207 132,-207 132,-136 32,-136"/>
<text text-anchor="middle" x="82" y="-195" font-family="Helvetica,sans-Serif" font-size="10.00">ARM</text>
</a>
</g>
</g>
<!-- dir_01936f0ac99a25b61f7f8770fcd2356f -->
<g id="node1" class="node">
<title>dir_01936f0ac99a25b61f7f8770fcd2356f</title>
<g id="a_node1"><a xlink:href="dir_01936f0ac99a25b61f7f8770fcd2356f.html" target="_top" xlink:title="MCTargetDesc">
<polygon fill="#eeeeff" stroke="black" points="123.5,-180 40.5,-180 40.5,-144 123.5,-144 123.5,-180"/>
<text text-anchor="middle" x="82" y="-159.5" font-family="Helvetica,sans-Serif" font-size="10.00">MCTargetDesc</text>
</a>
</g>
</g>
<!-- dir_4e37b6fde532b2a91802f4c74b8b2743 -->
<g id="node2" class="node">
<title>dir_4e37b6fde532b2a91802f4c74b8b2743</title>
<g id="a_node2"><a xlink:href="dir_4e37b6fde532b2a91802f4c74b8b2743.html" target="_top" xlink:title="Utils">
<polygon fill="none" stroke="black" points="54,-108 0,-108 0,-72 54,-72 54,-108"/>
<text text-anchor="middle" x="27" y="-87.5" font-family="Helvetica,sans-Serif" font-size="10.00">Utils</text>
</a>
</g>
</g>
<!-- dir_01936f0ac99a25b61f7f8770fcd2356f&#45;&gt;dir_4e37b6fde532b2a91802f4c74b8b2743 -->
<g id="edge1" class="edge">
<title>dir_01936f0ac99a25b61f7f8770fcd2356f&#45;&gt;dir_4e37b6fde532b2a91802f4c74b8b2743</title>
<path fill="none" stroke="black" d="M62.49,-143.7C55.18,-135.47 47.13,-125.48 40.45,-116.42"/>
<polygon fill="black" stroke="black" points="43.19,-114.23 34.54,-108.1 37.48,-118.28 43.19,-114.23"/>
<g id="a_edge1&#45;headlabel"><a xlink:href="dir_000164_000165.html" target="_top" xlink:title="2">
<text text-anchor="middle" x="47.59" y="-113.01" font-family="Helvetica,sans-Serif" font-size="10.00">2</text>
</a>
</g>
</g>
<!-- dir_d44c64559bbebec7f509842c48db8b23 -->
<g id="node3" class="node">
<title>dir_d44c64559bbebec7f509842c48db8b23</title>
<g id="a_node3"><a xlink:href="dir_d44c64559bbebec7f509842c48db8b23.html" target="_top" xlink:title="include">
<polygon fill="none" stroke="red" points="109,-36 55,-36 55,0 109,0 109,-36"/>
<text text-anchor="middle" x="82" y="-15.5" font-family="Helvetica,sans-Serif" font-size="10.00">include</text>
</a>
</g>
</g>
<!-- dir_01936f0ac99a25b61f7f8770fcd2356f&#45;&gt;dir_d44c64559bbebec7f509842c48db8b23 -->
<g id="edge2" class="edge">
<title>dir_01936f0ac99a25b61f7f8770fcd2356f&#45;&gt;dir_d44c64559bbebec7f509842c48db8b23</title>
<path fill="none" stroke="black" d="M82,-143.87C82,-119.67 82,-75.21 82,-46.39"/>
<polygon fill="black" stroke="black" points="85.5,-46.19 82,-36.19 78.5,-46.19 85.5,-46.19"/>
<g id="a_edge2&#45;headlabel"><a xlink:href="dir_000164_000000.html" target="_top" xlink:title="178">
<text text-anchor="middle" x="88.34" y="-47.28" font-family="Helvetica,sans-Serif" font-size="10.00">178</text>
</a>
</g>
</g>
<!-- dir_e74ffd2db7d0965c485dd377d7fa07ac -->
<g id="node4" class="node">
<title>dir_e74ffd2db7d0965c485dd377d7fa07ac</title>
<g id="a_node4"><a xlink:href="dir_e74ffd2db7d0965c485dd377d7fa07ac.html" target="_top" xlink:title="TargetInfo">
<polygon fill="none" stroke="black" points="171.5,-108 110.5,-108 110.5,-72 171.5,-72 171.5,-108"/>
<text text-anchor="middle" x="141" y="-87.5" font-family="Helvetica,sans-Serif" font-size="10.00">TargetInfo</text>
</a>
</g>
</g>
<!-- dir_01936f0ac99a25b61f7f8770fcd2356f&#45;&gt;dir_e74ffd2db7d0965c485dd377d7fa07ac -->
<g id="edge3" class="edge">
<title>dir_01936f0ac99a25b61f7f8770fcd2356f&#45;&gt;dir_e74ffd2db7d0965c485dd377d7fa07ac</title>
<path fill="none" stroke="black" d="M96.58,-143.7C103.66,-135.3 112.28,-125.07 120.05,-115.86"/>
<polygon fill="black" stroke="black" points="122.81,-118.01 126.58,-108.1 117.46,-113.49 122.81,-118.01"/>
<g id="a_edge3&#45;headlabel"><a xlink:href="dir_000164_000166.html" target="_top" xlink:title="1">
<text text-anchor="middle" x="122.67" y="-120.08" font-family="Helvetica,sans-Serif" font-size="10.00">1</text>
</a>
</g>
</g>
<!-- dir_4e37b6fde532b2a91802f4c74b8b2743&#45;&gt;dir_01936f0ac99a25b61f7f8770fcd2356f -->
<g id="edge4" class="edge">
<title>dir_4e37b6fde532b2a91802f4c74b8b2743&#45;&gt;dir_01936f0ac99a25b61f7f8770fcd2356f</title>
<path fill="none" stroke="black" d="M46.33,-108.1C53.63,-116.3 61.69,-126.28 68.38,-135.36"/>
<polygon fill="black" stroke="black" points="65.67,-137.58 74.32,-143.7 71.37,-133.52 65.67,-137.58"/>
<g id="a_edge4&#45;headlabel"><a xlink:href="dir_000165_000164.html" target="_top" xlink:title="1">
<text text-anchor="middle" x="61.27" y="-133.8" font-family="Helvetica,sans-Serif" font-size="10.00">1</text>
</a>
</g>
</g>
<!-- dir_4e37b6fde532b2a91802f4c74b8b2743&#45;&gt;dir_d44c64559bbebec7f509842c48db8b23 -->
<g id="edge5" class="edge">
<title>dir_4e37b6fde532b2a91802f4c74b8b2743&#45;&gt;dir_d44c64559bbebec7f509842c48db8b23</title>
<path fill="none" stroke="black" d="M40.6,-71.7C47.12,-63.39 55.07,-53.28 62.25,-44.14"/>
<polygon fill="black" stroke="black" points="65.13,-46.13 68.56,-36.1 59.63,-41.81 65.13,-46.13"/>
<g id="a_edge5&#45;headlabel"><a xlink:href="dir_000165_000000.html" target="_top" xlink:title="5">
<text text-anchor="middle" x="65.15" y="-48.21" font-family="Helvetica,sans-Serif" font-size="10.00">5</text>
</a>
</g>
</g>
<!-- dir_e74ffd2db7d0965c485dd377d7fa07ac&#45;&gt;dir_d44c64559bbebec7f509842c48db8b23 -->
<g id="edge6" class="edge">
<title>dir_e74ffd2db7d0965c485dd377d7fa07ac&#45;&gt;dir_d44c64559bbebec7f509842c48db8b23</title>
<path fill="none" stroke="black" d="M126.42,-71.7C119.34,-63.3 110.72,-53.07 102.95,-43.86"/>
<polygon fill="black" stroke="black" points="105.54,-41.49 96.42,-36.1 100.19,-46.01 105.54,-41.49"/>
<g id="a_edge6&#45;headlabel"><a xlink:href="dir_000166_000000.html" target="_top" xlink:title="1">
<text text-anchor="middle" x="110.03" y="-39.91" font-family="Helvetica,sans-Serif" font-size="10.00">1</text>
</a>
</g>
</g>
</g>
</svg>
