<?xml version="1.0" encoding="UTF-8" standalone="no"?>
<!DOCTYPE svg PUBLIC "-//W3C//DTD SVG 1.1//EN"
 "http://www.w3.org/Graphics/SVG/1.1/DTD/svg11.dtd">
<!-- Generated by graphviz version 2.43.0 (0)
 -->
<!-- Title: lib/Target/ARC Pages: 1 -->
<svg width="214pt" height="303pt"
 viewBox="0.00 0.00 213.57 303.00" xmlns="http://www.w3.org/2000/svg" xmlns:xlink="http://www.w3.org/1999/xlink">
<g id="graph0" class="graph" transform="scale(1 1) rotate(0) translate(4 299)">
<title>lib/Target/ARC</title>
<g id="clust1" class="cluster">
<title>clusterdir_794e483eb1cc7921d35fd149d9cc325b</title>
<g id="a_clust1"><a xlink:href="dir_794e483eb1cc7921d35fd149d9cc325b.html" target="_top" xlink:title="Target">
<polygon fill="#ddddee" stroke="black" points="8,-56 8,-287 190,-287 190,-56 8,-56"/>
<text text-anchor="middle" x="99" y="-275" font-family="Helvetica,sans-Serif" font-size="10.00">Target</text>
</a>
</g>
</g>
<g id="clust2" class="cluster">
<title>clusterdir_570b8dfaee4849cdbe8f7b4195b963a2</title>
<g id="a_clust2"><a xlink:href="dir_570b8dfaee4849cdbe8f7b4195b963a2.html" target="_top">
<polygon fill="#eeeeff" stroke="black" points="16,-64 16,-260 182,-260 182,-64 16,-64"/>
</a>
</g>
</g>
<!-- dir_570b8dfaee4849cdbe8f7b4195b963a2 -->
<g id="node1" class="node">
<title>dir_570b8dfaee4849cdbe8f7b4195b963a2</title>
<text text-anchor="middle" x="51" y="-231.5" font-family="Helvetica,sans-Serif" font-size="10.00">ARC</text>
</g>
<!-- dir_1ed7ae2b4078b173511f50255713b9af -->
<g id="node3" class="node">
<title>dir_1ed7ae2b4078b173511f50255713b9af</title>
<g id="a_node3"><a xlink:href="dir_1ed7ae2b4078b173511f50255713b9af.html" target="_top" xlink:title="MCTargetDesc">
<polygon fill="white" stroke="black" points="127.5,-180 44.5,-180 44.5,-144 127.5,-144 127.5,-180"/>
<text text-anchor="middle" x="86" y="-159.5" font-family="Helvetica,sans-Serif" font-size="10.00">MCTargetDesc</text>
</a>
</g>
</g>
<!-- dir_570b8dfaee4849cdbe8f7b4195b963a2&#45;&gt;dir_1ed7ae2b4078b173511f50255713b9af -->
<g id="edge3" class="edge">
<title>dir_570b8dfaee4849cdbe8f7b4195b963a2&#45;&gt;dir_1ed7ae2b4078b173511f50255713b9af</title>
<path fill="none" stroke="black" d="M59.65,-215.7C63.64,-207.73 68.45,-198.1 72.87,-189.26"/>
<polygon fill="black" stroke="black" points="76.11,-190.61 77.45,-180.1 69.85,-187.48 76.11,-190.61"/>
<g id="a_edge3&#45;headlabel"><a xlink:href="dir_000157_000159.html" target="_top" xlink:title="6">
<text text-anchor="middle" x="77.04" y="-192.6" font-family="Helvetica,sans-Serif" font-size="10.00">6</text>
</a>
</g>
</g>
<!-- dir_50a3ea2d52724bfaac80c4952ce6101f -->
<g id="node4" class="node">
<title>dir_50a3ea2d52724bfaac80c4952ce6101f</title>
<g id="a_node4"><a xlink:href="dir_50a3ea2d52724bfaac80c4952ce6101f.html" target="_top" xlink:title="TargetInfo">
<polygon fill="white" stroke="black" points="109.5,-108 48.5,-108 48.5,-72 109.5,-72 109.5,-108"/>
<text text-anchor="middle" x="79" y="-87.5" font-family="Helvetica,sans-Serif" font-size="10.00">TargetInfo</text>
</a>
</g>
</g>
<!-- dir_570b8dfaee4849cdbe8f7b4195b963a2&#45;&gt;dir_50a3ea2d52724bfaac80c4952ce6101f -->
<g id="edge5" class="edge">
<title>dir_570b8dfaee4849cdbe8f7b4195b963a2&#45;&gt;dir_50a3ea2d52724bfaac80c4952ce6101f</title>
<path fill="none" stroke="black" d="M42.76,-215.83C35.17,-197.57 26.31,-168.07 35,-144 38.75,-133.6 45.54,-123.8 52.67,-115.52"/>
<polygon fill="black" stroke="black" points="55.32,-117.81 59.53,-108.08 50.17,-113.06 55.32,-117.81"/>
<g id="a_edge5&#45;headlabel"><a xlink:href="dir_000157_000160.html" target="_top" xlink:title="4">
<text text-anchor="middle" x="54.97" y="-119.87" font-family="Helvetica,sans-Serif" font-size="10.00">4</text>
</a>
</g>
</g>
<!-- dir_d44c64559bbebec7f509842c48db8b23 -->
<g id="node5" class="node">
<title>dir_d44c64559bbebec7f509842c48db8b23</title>
<g id="a_node5"><a xlink:href="dir_d44c64559bbebec7f509842c48db8b23.html" target="_top" xlink:title="include">
<polygon fill="none" stroke="red" points="184,-36 130,-36 130,0 184,0 184,-36"/>
<text text-anchor="middle" x="157" y="-15.5" font-family="Helvetica,sans-Serif" font-size="10.00">include</text>
</a>
</g>
</g>
<!-- dir_570b8dfaee4849cdbe8f7b4195b963a2&#45;&gt;dir_d44c64559bbebec7f509842c48db8b23 -->
<g id="edge4" class="edge">
<title>dir_570b8dfaee4849cdbe8f7b4195b963a2&#45;&gt;dir_d44c64559bbebec7f509842c48db8b23</title>
<path fill="none" stroke="black" d="M78.04,-219.65C100.45,-208.01 129.75,-191.29 137,-180 163.24,-139.16 163.21,-80.34 160.39,-46.26"/>
<polygon fill="black" stroke="black" points="163.86,-45.73 159.41,-36.11 156.89,-46.4 163.86,-45.73"/>
<g id="a_edge4&#45;headlabel"><a xlink:href="dir_000157_000000.html" target="_top" xlink:title="134">
<text text-anchor="middle" x="167.03" y="-46.53" font-family="Helvetica,sans-Serif" font-size="10.00">134</text>
</a>
</g>
</g>
<!-- dir_52999ed125e43b1d7166cddb34ffe2d4 -->
<g id="node2" class="node">
<title>dir_52999ed125e43b1d7166cddb34ffe2d4</title>
<g id="a_node2"><a xlink:href="dir_52999ed125e43b1d7166cddb34ffe2d4.html" target="_top" xlink:title="Disassembler">
<polygon fill="white" stroke="black" points="173.5,-252 96.5,-252 96.5,-216 173.5,-216 173.5,-252"/>
<text text-anchor="middle" x="135" y="-231.5" font-family="Helvetica,sans-Serif" font-size="10.00">Disassembler</text>
</a>
</g>
</g>
<!-- dir_52999ed125e43b1d7166cddb34ffe2d4&#45;&gt;dir_1ed7ae2b4078b173511f50255713b9af -->
<g id="edge6" class="edge">
<title>dir_52999ed125e43b1d7166cddb34ffe2d4&#45;&gt;dir_1ed7ae2b4078b173511f50255713b9af</title>
<path fill="none" stroke="black" d="M122.89,-215.7C117.13,-207.47 110.14,-197.48 103.79,-188.42"/>
<polygon fill="black" stroke="black" points="106.58,-186.29 97.97,-180.1 100.84,-190.3 106.58,-186.29"/>
<g id="a_edge6&#45;headlabel"><a xlink:href="dir_000158_000159.html" target="_top" xlink:title="1">
<text text-anchor="middle" x="110.96" y="-185.11" font-family="Helvetica,sans-Serif" font-size="10.00">1</text>
</a>
</g>
</g>
<!-- dir_52999ed125e43b1d7166cddb34ffe2d4&#45;&gt;dir_50a3ea2d52724bfaac80c4952ce6101f -->
<g id="edge8" class="edge">
<title>dir_52999ed125e43b1d7166cddb34ffe2d4&#45;&gt;dir_50a3ea2d52724bfaac80c4952ce6101f</title>
<path fill="none" stroke="black" d="M139.55,-215.76C143.53,-197.2 147.22,-167.19 137,-144 132.01,-132.69 123.29,-122.74 114.1,-114.62"/>
<polygon fill="black" stroke="black" points="116.28,-111.88 106.34,-108.23 111.83,-117.28 116.28,-111.88"/>
<g id="a_edge8&#45;headlabel"><a xlink:href="dir_000158_000160.html" target="_top" xlink:title="1">
<text text-anchor="middle" x="120.86" y="-109.48" font-family="Helvetica,sans-Serif" font-size="10.00">1</text>
</a>
</g>
</g>
<!-- dir_52999ed125e43b1d7166cddb34ffe2d4&#45;&gt;dir_d44c64559bbebec7f509842c48db8b23 -->
<g id="edge7" class="edge">
<title>dir_52999ed125e43b1d7166cddb34ffe2d4&#45;&gt;dir_d44c64559bbebec7f509842c48db8b23</title>
<path fill="none" stroke="black" d="M160.38,-215.95C171.71,-206.79 183.88,-194.4 190,-180 211.56,-129.28 209.63,-107.5 190,-56 188.45,-51.93 186.22,-48.02 183.64,-44.37"/>
<polygon fill="black" stroke="black" points="186.17,-41.93 177.15,-36.37 180.73,-46.34 186.17,-41.93"/>
<g id="a_edge7&#45;headlabel"><a xlink:href="dir_000158_000000.html" target="_top" xlink:title="7">
<text text-anchor="middle" x="190.64" y="-40.43" font-family="Helvetica,sans-Serif" font-size="10.00">7</text>
</a>
</g>
</g>
<!-- dir_1ed7ae2b4078b173511f50255713b9af&#45;&gt;dir_50a3ea2d52724bfaac80c4952ce6101f -->
<g id="edge2" class="edge">
<title>dir_1ed7ae2b4078b173511f50255713b9af&#45;&gt;dir_50a3ea2d52724bfaac80c4952ce6101f</title>
<path fill="none" stroke="black" d="M84.27,-143.7C83.5,-135.98 82.57,-126.71 81.71,-118.11"/>
<polygon fill="black" stroke="black" points="85.19,-117.71 80.71,-108.1 78.22,-118.4 85.19,-117.71"/>
<g id="a_edge2&#45;headlabel"><a xlink:href="dir_000159_000160.html" target="_top" xlink:title="1">
<text text-anchor="middle" x="88.37" y="-118.5" font-family="Helvetica,sans-Serif" font-size="10.00">1</text>
</a>
</g>
</g>
<!-- dir_1ed7ae2b4078b173511f50255713b9af&#45;&gt;dir_d44c64559bbebec7f509842c48db8b23 -->
<g id="edge1" class="edge">
<title>dir_1ed7ae2b4078b173511f50255713b9af&#45;&gt;dir_d44c64559bbebec7f509842c48db8b23</title>
<path fill="none" stroke="black" d="M97.69,-143.73C104.34,-133.55 112.59,-120.3 119,-108 129.63,-87.6 139.75,-63.57 146.88,-45.62"/>
<polygon fill="black" stroke="black" points="150.22,-46.67 150.61,-36.09 143.7,-44.12 150.22,-46.67"/>
<g id="a_edge1&#45;headlabel"><a xlink:href="dir_000159_000000.html" target="_top" xlink:title="18">
<text text-anchor="middle" x="151.56" y="-48.56" font-family="Helvetica,sans-Serif" font-size="10.00">18</text>
</a>
</g>
</g>
<!-- dir_50a3ea2d52724bfaac80c4952ce6101f&#45;&gt;dir_d44c64559bbebec7f509842c48db8b23 -->
<g id="edge9" class="edge">
<title>dir_50a3ea2d52724bfaac80c4952ce6101f&#45;&gt;dir_d44c64559bbebec7f509842c48db8b23</title>
<path fill="none" stroke="black" d="M98.28,-71.7C107.92,-63.05 119.73,-52.45 130.23,-43.03"/>
<polygon fill="black" stroke="black" points="132.84,-45.39 137.94,-36.1 128.16,-40.18 132.84,-45.39"/>
<g id="a_edge9&#45;headlabel"><a xlink:href="dir_000160_000000.html" target="_top" xlink:title="1">
<text text-anchor="middle" x="132.06" y="-47.4" font-family="Helvetica,sans-Serif" font-size="10.00">1</text>
</a>
</g>
</g>
</g>
</svg>
