<?xml version="1.0" encoding="UTF-8" standalone="no"?>
<!DOCTYPE svg PUBLIC "-//W3C//DTD SVG 1.1//EN"
 "http://www.w3.org/Graphics/SVG/1.1/DTD/svg11.dtd">
<!-- Generated by graphviz version 2.43.0 (0)
 -->
<!-- Title: include/llvm/Transforms Pages: 1 -->
<svg width="925pt" height="447pt"
 viewBox="0.00 0.00 924.50 447.00" xmlns="http://www.w3.org/2000/svg" xmlns:xlink="http://www.w3.org/1999/xlink">
<g id="graph0" class="graph" transform="scale(1 1) rotate(0) translate(4 443)">
<title>include/llvm/Transforms</title>
<g id="clust1" class="cluster">
<title>clusterdir_dcde91663b8816e1e2311938ccd8f690</title>
<g id="a_clust1"><a xlink:href="dir_dcde91663b8816e1e2311938ccd8f690.html" target="_top" xlink:title="llvm">
<polygon fill="#ddddee" stroke="black" points="8,-272 8,-431 657,-431 657,-272 8,-272"/>
<text text-anchor="middle" x="332.5" y="-419" font-family="Helvetica,sans-Serif" font-size="10.00">llvm</text>
</a>
</g>
</g>
<g id="clust2" class="cluster">
<title>clusterdir_5625ec55672b6ae9c183a884d9f7b761</title>
<g id="a_clust2"><a xlink:href="dir_5625ec55672b6ae9c183a884d9f7b761.html" target="_top">
<polygon fill="#eeeeff" stroke="black" points="16,-280 16,-404 649,-404 649,-280 16,-280"/>
</a>
</g>
</g>
<!-- dir_5625ec55672b6ae9c183a884d9f7b761 -->
<g id="node1" class="node">
<title>dir_5625ec55672b6ae9c183a884d9f7b761</title>
<text text-anchor="middle" x="608" y="-375.5" font-family="Helvetica,sans-Serif" font-size="10.00">Transforms</text>
</g>
<!-- dir_df3963b4ebbe1c6a5faeac0fadd67d94 -->
<g id="node2" class="node">
<title>dir_df3963b4ebbe1c6a5faeac0fadd67d94</title>
<g id="a_node2"><a xlink:href="dir_df3963b4ebbe1c6a5faeac0fadd67d94.html" target="_top" xlink:title="AggressiveInstCombine">
<polygon fill="white" stroke="black" points="556.5,-396 435.5,-396 435.5,-360 556.5,-360 556.5,-396"/>
<text text-anchor="middle" x="496" y="-375.5" font-family="Helvetica,sans-Serif" font-size="10.00">AggressiveInstCombine</text>
</a>
</g>
</g>
<!-- dir_c3e93f23a4a31c717998b98ce143b7c0 -->
<g id="node9" class="node">
<title>dir_c3e93f23a4a31c717998b98ce143b7c0</title>
<g id="a_node9"><a xlink:href="dir_c3e93f23a4a31c717998b98ce143b7c0.html" target="_top" xlink:title="IR">
<polygon fill="none" stroke="black" points="753,-180 699,-180 699,-144 753,-144 753,-180"/>
<text text-anchor="middle" x="726" y="-159.5" font-family="Helvetica,sans-Serif" font-size="10.00">IR</text>
</a>
</g>
</g>
<!-- dir_df3963b4ebbe1c6a5faeac0fadd67d94&#45;&gt;dir_c3e93f23a4a31c717998b98ce143b7c0 -->
<g id="edge9" class="edge">
<title>dir_df3963b4ebbe1c6a5faeac0fadd67d94&#45;&gt;dir_c3e93f23a4a31c717998b98ce143b7c0</title>
<path fill="none" stroke="black" d="M556.64,-361.94C559.8,-361.26 562.93,-360.61 566,-360 617.39,-349.81 764.9,-363.77 799,-324 830.24,-287.56 820.8,-258.76 799,-216 794.67,-207.5 777.94,-195.1 761.59,-184.43"/>
<polygon fill="black" stroke="black" points="763.45,-181.46 753.14,-179.03 759.69,-187.36 763.45,-181.46"/>
<g id="a_edge9&#45;headlabel"><a xlink:href="dir_000077_000008.html" target="_top" xlink:title="2">
<text text-anchor="middle" x="768.01" y="-178.5" font-family="Helvetica,sans-Serif" font-size="10.00">2</text>
</a>
</g>
</g>
<!-- dir_321e17720224ff90d1b547cd27d173ea -->
<g id="node3" class="node">
<title>dir_321e17720224ff90d1b547cd27d173ea</title>
<g id="a_node3"><a xlink:href="dir_321e17720224ff90d1b547cd27d173ea.html" target="_top" xlink:title="InstCombine">
<polygon fill="white" stroke="black" points="96,-396 24,-396 24,-360 96,-360 96,-396"/>
<text text-anchor="middle" x="60" y="-375.5" font-family="Helvetica,sans-Serif" font-size="10.00">InstCombine</text>
</a>
</g>
</g>
<!-- dir_321e17720224ff90d1b547cd27d173ea&#45;&gt;dir_c3e93f23a4a31c717998b98ce143b7c0 -->
<g id="edge36" class="edge">
<title>dir_321e17720224ff90d1b547cd27d173ea&#45;&gt;dir_c3e93f23a4a31c717998b98ce143b7c0</title>
<path fill="none" stroke="black" d="M96.14,-362.6C99.11,-361.64 102.09,-360.76 105,-360 208.5,-332.95 240.18,-353.53 343,-324 458.94,-290.7 480.57,-262.19 592,-216 624.83,-202.39 662.49,-187.57 689.5,-177.07"/>
<polygon fill="black" stroke="black" points="690.89,-180.28 698.95,-173.4 688.36,-173.76 690.89,-180.28"/>
<g id="a_edge36&#45;headlabel"><a xlink:href="dir_000078_000008.html" target="_top" xlink:title="3">
<text text-anchor="middle" x="688.56" y="-181.73" font-family="Helvetica,sans-Serif" font-size="10.00">3</text>
</a>
</g>
</g>
<!-- dir_ae1e398ac700924fa434b51c248a5531 -->
<g id="node10" class="node">
<title>dir_ae1e398ac700924fa434b51c248a5531</title>
<g id="a_node10"><a xlink:href="dir_ae1e398ac700924fa434b51c248a5531.html" target="_top" xlink:title="Support">
<polygon fill="none" stroke="red" points="413,-108 359,-108 359,-72 413,-72 413,-108"/>
<text text-anchor="middle" x="386" y="-87.5" font-family="Helvetica,sans-Serif" font-size="10.00">Support</text>
</a>
</g>
</g>
<!-- dir_321e17720224ff90d1b547cd27d173ea&#45;&gt;dir_ae1e398ac700924fa434b51c248a5531 -->
<g id="edge37" class="edge">
<title>dir_321e17720224ff90d1b547cd27d173ea&#45;&gt;dir_ae1e398ac700924fa434b51c248a5531</title>
<path fill="none" stroke="black" d="M96.16,-362.67C99.13,-361.7 102.1,-360.79 105,-360 194.21,-335.55 240.13,-384.62 310,-324 341.64,-296.55 369.56,-173.52 380.77,-118.15"/>
<polygon fill="black" stroke="black" points="384.27,-118.52 382.79,-108.03 377.4,-117.15 384.27,-118.52"/>
<g id="a_edge37&#45;headlabel"><a xlink:href="dir_000078_000055.html" target="_top" xlink:title="3">
<text text-anchor="middle" x="386.35" y="-120.1" font-family="Helvetica,sans-Serif" font-size="10.00">3</text>
</a>
</g>
</g>
<!-- dir_32453792af2ba70c54e3ccae3a790d1b -->
<g id="node11" class="node">
<title>dir_32453792af2ba70c54e3ccae3a790d1b</title>
<g id="a_node11"><a xlink:href="dir_32453792af2ba70c54e3ccae3a790d1b.html" target="_top" xlink:title="ADT">
<polygon fill="none" stroke="black" points="280,-36 226,-36 226,0 280,0 280,-36"/>
<text text-anchor="middle" x="253" y="-15.5" font-family="Helvetica,sans-Serif" font-size="10.00">ADT</text>
</a>
</g>
</g>
<!-- dir_321e17720224ff90d1b547cd27d173ea&#45;&gt;dir_32453792af2ba70c54e3ccae3a790d1b -->
<g id="edge38" class="edge">
<title>dir_321e17720224ff90d1b547cd27d173ea&#45;&gt;dir_32453792af2ba70c54e3ccae3a790d1b</title>
<path fill="none" stroke="black" d="M60.2,-359.95C60.49,-333.29 61,-280.12 61,-235 61,-235 61,-235 61,-161 61,-115.41 77.28,-101.54 112,-72 141.88,-46.57 185.17,-32.75 215.89,-25.65"/>
<polygon fill="black" stroke="black" points="216.76,-29.05 225.78,-23.5 215.27,-22.21 216.76,-29.05"/>
<g id="a_edge38&#45;headlabel"><a xlink:href="dir_000078_000006.html" target="_top" xlink:title="3">
<text text-anchor="middle" x="213.85" y="-30.09" font-family="Helvetica,sans-Serif" font-size="10.00">3</text>
</a>
</g>
</g>
<!-- dir_4d76fb4acba6313de868e80d4dc18ddf -->
<g id="node4" class="node">
<title>dir_4d76fb4acba6313de868e80d4dc18ddf</title>
<g id="a_node4"><a xlink:href="dir_4d76fb4acba6313de868e80d4dc18ddf.html" target="_top" xlink:title="Instrumentation">
<polygon fill="white" stroke="black" points="418,-396 334,-396 334,-360 418,-360 418,-396"/>
<text text-anchor="middle" x="376" y="-375.5" font-family="Helvetica,sans-Serif" font-size="10.00">Instrumentation</text>
</a>
</g>
</g>
<!-- dir_4d76fb4acba6313de868e80d4dc18ddf&#45;&gt;dir_c3e93f23a4a31c717998b98ce143b7c0 -->
<g id="edge23" class="edge">
<title>dir_4d76fb4acba6313de868e80d4dc18ddf&#45;&gt;dir_c3e93f23a4a31c717998b98ce143b7c0</title>
<path fill="none" stroke="black" d="M418.1,-361.96C420.75,-361.24 423.4,-360.57 426,-360 499.11,-343.85 710.97,-379.7 761,-324 793.08,-288.29 774.81,-261.97 761,-216 758.08,-206.28 752.74,-196.7 747.09,-188.41"/>
<polygon fill="black" stroke="black" points="749.9,-186.32 741.18,-180.3 744.24,-190.44 749.9,-186.32"/>
<g id="a_edge23&#45;headlabel"><a xlink:href="dir_000079_000008.html" target="_top" xlink:title="18">
<text text-anchor="middle" x="754.31" y="-185.06" font-family="Helvetica,sans-Serif" font-size="10.00">18</text>
</a>
</g>
</g>
<!-- dir_4d76fb4acba6313de868e80d4dc18ddf&#45;&gt;dir_32453792af2ba70c54e3ccae3a790d1b -->
<g id="edge24" class="edge">
<title>dir_4d76fb4acba6313de868e80d4dc18ddf&#45;&gt;dir_32453792af2ba70c54e3ccae3a790d1b</title>
<path fill="none" stroke="black" d="M333.78,-362.97C295.73,-349.98 244.75,-331.56 238,-324 210.8,-293.52 215,-275.86 215,-235 215,-235 215,-235 215,-161 215,-119.63 230.23,-73.72 241.41,-45.61"/>
<polygon fill="black" stroke="black" points="244.76,-46.67 245.31,-36.09 238.28,-44.02 244.76,-46.67"/>
<g id="a_edge24&#45;headlabel"><a xlink:href="dir_000079_000006.html" target="_top" xlink:title="4">
<text text-anchor="middle" x="246.02" y="-48.58" font-family="Helvetica,sans-Serif" font-size="10.00">4</text>
</a>
</g>
</g>
<!-- dir_fb12555e9948232649f998a9a651ff9d -->
<g id="node12" class="node">
<title>dir_fb12555e9948232649f998a9a651ff9d</title>
<g id="a_node12"><a xlink:href="dir_fb12555e9948232649f998a9a651ff9d.html" target="_top" xlink:title="ProfileData">
<polygon fill="none" stroke="red" points="916.5,-252 851.5,-252 851.5,-216 916.5,-216 916.5,-252"/>
<text text-anchor="middle" x="884" y="-231.5" font-family="Helvetica,sans-Serif" font-size="10.00">ProfileData</text>
</a>
</g>
</g>
<!-- dir_4d76fb4acba6313de868e80d4dc18ddf&#45;&gt;dir_fb12555e9948232649f998a9a651ff9d -->
<g id="edge25" class="edge">
<title>dir_4d76fb4acba6313de868e80d4dc18ddf&#45;&gt;dir_fb12555e9948232649f998a9a651ff9d</title>
<path fill="none" stroke="black" d="M418.09,-361.92C420.75,-361.21 423.4,-360.56 426,-360 588.82,-324.96 649.2,-396.79 799,-324 827.92,-309.95 852.22,-281.66 867.33,-260.73"/>
<polygon fill="black" stroke="black" points="870.38,-262.47 873.23,-252.27 864.63,-258.47 870.38,-262.47"/>
<g id="a_edge25&#45;headlabel"><a xlink:href="dir_000079_000063.html" target="_top" xlink:title="1">
<text text-anchor="middle" x="870.65" y="-264.55" font-family="Helvetica,sans-Serif" font-size="10.00">1</text>
</a>
</g>
</g>
<!-- dir_97cdd6ae7e6843add574fb55e792badd -->
<g id="node13" class="node">
<title>dir_97cdd6ae7e6843add574fb55e792badd</title>
<g id="a_node13"><a xlink:href="dir_97cdd6ae7e6843add574fb55e792badd.html" target="_top" xlink:title="Analysis">
<polygon fill="none" stroke="red" points="719,-324 665,-324 665,-288 719,-288 719,-324"/>
<text text-anchor="middle" x="692" y="-303.5" font-family="Helvetica,sans-Serif" font-size="10.00">Analysis</text>
</a>
</g>
</g>
<!-- dir_4d76fb4acba6313de868e80d4dc18ddf&#45;&gt;dir_97cdd6ae7e6843add574fb55e792badd -->
<g id="edge26" class="edge">
<title>dir_4d76fb4acba6313de868e80d4dc18ddf&#45;&gt;dir_97cdd6ae7e6843add574fb55e792badd</title>
<path fill="none" stroke="black" d="M418.13,-362.11C420.78,-361.35 423.42,-360.64 426,-360 525.16,-335.47 554.95,-352.64 653,-324 653.72,-323.79 654.44,-323.57 655.16,-323.34"/>
<polygon fill="black" stroke="black" points="656.39,-326.62 664.62,-319.96 654.03,-320.03 656.39,-326.62"/>
<g id="a_edge26&#45;headlabel"><a xlink:href="dir_000079_000007.html" target="_top" xlink:title="1">
<text text-anchor="middle" x="653.96" y="-328.01" font-family="Helvetica,sans-Serif" font-size="10.00">1</text>
</a>
</g>
</g>
<!-- dir_c428120a13b4fcfa67c4846e4714add6 -->
<g id="node5" class="node">
<title>dir_c428120a13b4fcfa67c4846e4714add6</title>
<g id="a_node5"><a xlink:href="dir_c428120a13b4fcfa67c4846e4714add6.html" target="_top" xlink:title="IPO">
<polygon fill="white" stroke="black" points="168,-396 114,-396 114,-360 168,-360 168,-396"/>
<text text-anchor="middle" x="141" y="-375.5" font-family="Helvetica,sans-Serif" font-size="10.00">IPO</text>
</a>
</g>
</g>
<!-- dir_b9426ba341d3aa182dc36932de89e798 -->
<g id="node7" class="node">
<title>dir_b9426ba341d3aa182dc36932de89e798</title>
<g id="a_node7"><a xlink:href="dir_b9426ba341d3aa182dc36932de89e798.html" target="_top" xlink:title="Utils">
<polygon fill="white" stroke="black" points="301,-324 247,-324 247,-288 301,-288 301,-324"/>
<text text-anchor="middle" x="274" y="-303.5" font-family="Helvetica,sans-Serif" font-size="10.00">Utils</text>
</a>
</g>
</g>
<!-- dir_c428120a13b4fcfa67c4846e4714add6&#45;&gt;dir_b9426ba341d3aa182dc36932de89e798 -->
<g id="edge15" class="edge">
<title>dir_c428120a13b4fcfa67c4846e4714add6&#45;&gt;dir_b9426ba341d3aa182dc36932de89e798</title>
<path fill="none" stroke="black" d="M168.24,-362.67C188.32,-352.1 215.84,-337.61 237.78,-326.06"/>
<polygon fill="black" stroke="black" points="239.58,-329.07 246.8,-321.32 236.32,-322.88 239.58,-329.07"/>
<g id="a_edge15&#45;headlabel"><a xlink:href="dir_000080_000010.html" target="_top" xlink:title="1">
<text text-anchor="middle" x="237.72" y="-330.76" font-family="Helvetica,sans-Serif" font-size="10.00">1</text>
</a>
</g>
</g>
<!-- dir_c428120a13b4fcfa67c4846e4714add6&#45;&gt;dir_c3e93f23a4a31c717998b98ce143b7c0 -->
<g id="edge11" class="edge">
<title>dir_c428120a13b4fcfa67c4846e4714add6&#45;&gt;dir_c3e93f23a4a31c717998b98ce143b7c0</title>
<path fill="none" stroke="black" d="M168.15,-363.01C171.08,-361.85 174.07,-360.81 177,-360 330.23,-317.43 395.01,-403.05 533,-324 557.84,-309.77 550.58,-292.06 571,-272 607.47,-236.18 656.78,-203.69 689.9,-183.68"/>
<polygon fill="black" stroke="black" points="691.99,-186.5 698.79,-178.37 688.4,-180.49 691.99,-186.5"/>
<g id="a_edge11&#45;headlabel"><a xlink:href="dir_000080_000008.html" target="_top" xlink:title="42">
<text text-anchor="middle" x="690.36" y="-188.28" font-family="Helvetica,sans-Serif" font-size="10.00">42</text>
</a>
</g>
</g>
<!-- dir_c428120a13b4fcfa67c4846e4714add6&#45;&gt;dir_ae1e398ac700924fa434b51c248a5531 -->
<g id="edge12" class="edge">
<title>dir_c428120a13b4fcfa67c4846e4714add6&#45;&gt;dir_ae1e398ac700924fa434b51c248a5531</title>
<path fill="none" stroke="black" d="M168.25,-363.35C171.17,-362.12 174.12,-360.98 177,-360 248.48,-335.73 290.45,-378.2 343,-324 397.43,-267.85 394.73,-166.59 389.74,-118.19"/>
<polygon fill="black" stroke="black" points="393.2,-117.7 388.59,-108.16 386.25,-118.5 393.2,-117.7"/>
<g id="a_edge12&#45;headlabel"><a xlink:href="dir_000080_000055.html" target="_top" xlink:title="3">
<text text-anchor="middle" x="396.43" y="-118.45" font-family="Helvetica,sans-Serif" font-size="10.00">3</text>
</a>
</g>
</g>
<!-- dir_c428120a13b4fcfa67c4846e4714add6&#45;&gt;dir_32453792af2ba70c54e3ccae3a790d1b -->
<g id="edge13" class="edge">
<title>dir_c428120a13b4fcfa67c4846e4714add6&#45;&gt;dir_32453792af2ba70c54e3ccae3a790d1b</title>
<path fill="none" stroke="black" d="M132.91,-359.95C121.22,-333.72 101,-281.61 101,-235 101,-235 101,-235 101,-161 101,-116.06 116.85,-103.41 149,-72 167.98,-53.46 194.75,-40.02 216.38,-31.31"/>
<polygon fill="black" stroke="black" points="217.84,-34.5 225.91,-27.64 215.32,-27.97 217.84,-34.5"/>
<g id="a_edge13&#45;headlabel"><a xlink:href="dir_000080_000006.html" target="_top" xlink:title="14">
<text text-anchor="middle" x="215.5" y="-35.94" font-family="Helvetica,sans-Serif" font-size="10.00">14</text>
</a>
</g>
</g>
<!-- dir_c428120a13b4fcfa67c4846e4714add6&#45;&gt;dir_97cdd6ae7e6843add574fb55e792badd -->
<g id="edge14" class="edge">
<title>dir_c428120a13b4fcfa67c4846e4714add6&#45;&gt;dir_97cdd6ae7e6843add574fb55e792badd</title>
<path fill="none" stroke="black" d="M168.13,-362.93C171.07,-361.79 174.06,-360.78 177,-360 382.12,-305.8 447.09,-375.11 653,-324 653.73,-323.82 654.46,-323.63 655.19,-323.42"/>
<polygon fill="black" stroke="black" points="656.32,-326.73 664.7,-320.26 654.11,-320.09 656.32,-326.73"/>
<g id="a_edge14&#45;headlabel"><a xlink:href="dir_000080_000007.html" target="_top" xlink:title="12">
<text text-anchor="middle" x="653.81" y="-328.06" font-family="Helvetica,sans-Serif" font-size="10.00">12</text>
</a>
</g>
</g>
<!-- dir_a69686425b3d2a1ff3a5fbf5416fab85 -->
<g id="node6" class="node">
<title>dir_a69686425b3d2a1ff3a5fbf5416fab85</title>
<g id="a_node6"><a xlink:href="dir_a69686425b3d2a1ff3a5fbf5416fab85.html" target="_top" xlink:title="Scalar">
<polygon fill="white" stroke="black" points="240,-396 186,-396 186,-360 240,-360 240,-396"/>
<text text-anchor="middle" x="213" y="-375.5" font-family="Helvetica,sans-Serif" font-size="10.00">Scalar</text>
</a>
</g>
</g>
<!-- dir_a69686425b3d2a1ff3a5fbf5416fab85&#45;&gt;dir_b9426ba341d3aa182dc36932de89e798 -->
<g id="edge5" class="edge">
<title>dir_a69686425b3d2a1ff3a5fbf5416fab85&#45;&gt;dir_b9426ba341d3aa182dc36932de89e798</title>
<path fill="none" stroke="black" d="M228.08,-359.7C235.39,-351.3 244.31,-341.07 252.34,-331.86"/>
<polygon fill="black" stroke="black" points="255.16,-333.94 259.09,-324.1 249.89,-329.34 255.16,-333.94"/>
<g id="a_edge5&#45;headlabel"><a xlink:href="dir_000081_000010.html" target="_top" xlink:title="4">
<text text-anchor="middle" x="254.94" y="-336.02" font-family="Helvetica,sans-Serif" font-size="10.00">4</text>
</a>
</g>
</g>
<!-- dir_a69686425b3d2a1ff3a5fbf5416fab85&#45;&gt;dir_c3e93f23a4a31c717998b98ce143b7c0 -->
<g id="edge1" class="edge">
<title>dir_a69686425b3d2a1ff3a5fbf5416fab85&#45;&gt;dir_c3e93f23a4a31c717998b98ce143b7c0</title>
<path fill="none" stroke="black" d="M240.16,-363.04C243.09,-361.88 246.07,-360.83 249,-360 387.54,-320.72 441.83,-387.65 571,-324 633.72,-293.09 684.95,-225.91 709.79,-188.84"/>
<polygon fill="black" stroke="black" points="712.96,-190.39 715.52,-180.11 707.11,-186.55 712.96,-190.39"/>
<g id="a_edge1&#45;headlabel"><a xlink:href="dir_000081_000008.html" target="_top" xlink:title="91">
<text text-anchor="middle" x="713.36" y="-192.45" font-family="Helvetica,sans-Serif" font-size="10.00">91</text>
</a>
</g>
</g>
<!-- dir_a69686425b3d2a1ff3a5fbf5416fab85&#45;&gt;dir_ae1e398ac700924fa434b51c248a5531 -->
<g id="edge2" class="edge">
<title>dir_a69686425b3d2a1ff3a5fbf5416fab85&#45;&gt;dir_ae1e398ac700924fa434b51c248a5531</title>
<path fill="none" stroke="black" d="M240.31,-363.5C243.21,-362.25 246.15,-361.05 249,-360 306.04,-338.94 343.57,-371.93 381,-324 428.11,-263.67 408.32,-165.25 394.78,-118"/>
<polygon fill="black" stroke="black" points="398.07,-116.77 391.85,-108.19 391.36,-118.77 398.07,-116.77"/>
<g id="a_edge2&#45;headlabel"><a xlink:href="dir_000081_000055.html" target="_top" xlink:title="12">
<text text-anchor="middle" x="401.82" y="-116.9" font-family="Helvetica,sans-Serif" font-size="10.00">12</text>
</a>
</g>
</g>
<!-- dir_a69686425b3d2a1ff3a5fbf5416fab85&#45;&gt;dir_32453792af2ba70c54e3ccae3a790d1b -->
<g id="edge3" class="edge">
<title>dir_a69686425b3d2a1ff3a5fbf5416fab85&#45;&gt;dir_32453792af2ba70c54e3ccae3a790d1b</title>
<path fill="none" stroke="black" d="M196.94,-359.69C175.18,-334.36 139,-284.76 139,-235 139,-235 139,-235 139,-161 139,-117.45 152.37,-105.66 180,-72 190.25,-59.51 204.1,-48.48 216.98,-39.76"/>
<polygon fill="black" stroke="black" points="219.21,-42.48 225.68,-34.1 215.39,-36.61 219.21,-42.48"/>
<g id="a_edge3&#45;headlabel"><a xlink:href="dir_000081_000006.html" target="_top" xlink:title="33">
<text text-anchor="middle" x="217.74" y="-44.32" font-family="Helvetica,sans-Serif" font-size="10.00">33</text>
</a>
</g>
</g>
<!-- dir_a69686425b3d2a1ff3a5fbf5416fab85&#45;&gt;dir_97cdd6ae7e6843add574fb55e792badd -->
<g id="edge4" class="edge">
<title>dir_a69686425b3d2a1ff3a5fbf5416fab85&#45;&gt;dir_97cdd6ae7e6843add574fb55e792badd</title>
<path fill="none" stroke="black" d="M240.14,-362.97C243.08,-361.82 246.06,-360.8 249,-360 422.97,-312.78 478.34,-368.59 653,-324 653.72,-323.82 654.45,-323.62 655.18,-323.41"/>
<polygon fill="black" stroke="black" points="656.33,-326.72 664.69,-320.21 654.1,-320.08 656.33,-326.72"/>
<g id="a_edge4&#45;headlabel"><a xlink:href="dir_000081_000007.html" target="_top" xlink:title="41">
<text text-anchor="middle" x="653.83" y="-328.05" font-family="Helvetica,sans-Serif" font-size="10.00">41</text>
</a>
</g>
</g>
<!-- dir_b9426ba341d3aa182dc36932de89e798&#45;&gt;dir_c3e93f23a4a31c717998b98ce143b7c0 -->
<g id="edge27" class="edge">
<title>dir_b9426ba341d3aa182dc36932de89e798&#45;&gt;dir_c3e93f23a4a31c717998b98ce143b7c0</title>
<path fill="none" stroke="black" d="M301.32,-293.11C344.13,-274.8 429.9,-239.36 505,-216 568.65,-196.2 644.55,-179.45 688.8,-170.35"/>
<polygon fill="black" stroke="black" points="689.71,-173.73 698.81,-168.31 688.31,-166.88 689.71,-173.73"/>
<g id="a_edge27&#45;headlabel"><a xlink:href="dir_000010_000008.html" target="_top" xlink:title="71">
<text text-anchor="middle" x="686.76" y="-174.73" font-family="Helvetica,sans-Serif" font-size="10.00">71</text>
</a>
</g>
</g>
<!-- dir_b9426ba341d3aa182dc36932de89e798&#45;&gt;dir_ae1e398ac700924fa434b51c248a5531 -->
<g id="edge28" class="edge">
<title>dir_b9426ba341d3aa182dc36932de89e798&#45;&gt;dir_ae1e398ac700924fa434b51c248a5531</title>
<path fill="none" stroke="black" d="M274.66,-287.99C276.63,-256.88 284.37,-189.79 315,-144 323.89,-130.7 337.28,-119.46 350.04,-110.8"/>
<polygon fill="black" stroke="black" points="352.19,-113.58 358.71,-105.23 348.4,-107.69 352.19,-113.58"/>
<g id="a_edge28&#45;headlabel"><a xlink:href="dir_000010_000055.html" target="_top" xlink:title="13">
<text text-anchor="middle" x="350.7" y="-115.41" font-family="Helvetica,sans-Serif" font-size="10.00">13</text>
</a>
</g>
</g>
<!-- dir_b9426ba341d3aa182dc36932de89e798&#45;&gt;dir_32453792af2ba70c54e3ccae3a790d1b -->
<g id="edge29" class="edge">
<title>dir_b9426ba341d3aa182dc36932de89e798&#45;&gt;dir_32453792af2ba70c54e3ccae3a790d1b</title>
<path fill="none" stroke="black" d="M272.75,-287.97C269.25,-240.29 259.33,-105.18 255.03,-46.63"/>
<polygon fill="black" stroke="black" points="258.49,-46.02 254.27,-36.31 251.51,-46.54 258.49,-46.02"/>
<g id="a_edge29&#45;headlabel"><a xlink:href="dir_000010_000006.html" target="_top" xlink:title="57">
<text text-anchor="middle" x="261.59" y="-46.9" font-family="Helvetica,sans-Serif" font-size="10.00">57</text>
</a>
</g>
</g>
<!-- dir_b9426ba341d3aa182dc36932de89e798&#45;&gt;dir_97cdd6ae7e6843add574fb55e792badd -->
<g id="edge30" class="edge">
<title>dir_b9426ba341d3aa182dc36932de89e798&#45;&gt;dir_97cdd6ae7e6843add574fb55e792badd</title>
<path fill="none" stroke="black" d="M301.35,-306C419.11,-306 536.86,-306 654.62,-306"/>
<polygon fill="black" stroke="black" points="654.91,-309.5 664.91,-306 654.91,-302.5 654.91,-309.5"/>
<g id="a_edge30&#45;headlabel"><a xlink:href="dir_000010_000007.html" target="_top" xlink:title="24">
<text text-anchor="middle" x="651.32" y="-309.84" font-family="Helvetica,sans-Serif" font-size="10.00">24</text>
</a>
</g>
</g>
<!-- dir_b6a873d3d46b12ad33a9018995fccfad -->
<g id="node8" class="node">
<title>dir_b6a873d3d46b12ad33a9018995fccfad</title>
<g id="a_node8"><a xlink:href="dir_b6a873d3d46b12ad33a9018995fccfad.html" target="_top" xlink:title="Vectorize">
<polygon fill="white" stroke="black" points="316,-396 258,-396 258,-360 316,-360 316,-396"/>
<text text-anchor="middle" x="287" y="-375.5" font-family="Helvetica,sans-Serif" font-size="10.00">Vectorize</text>
</a>
</g>
</g>
<!-- dir_b6a873d3d46b12ad33a9018995fccfad&#45;&gt;dir_b9426ba341d3aa182dc36932de89e798 -->
<g id="edge35" class="edge">
<title>dir_b6a873d3d46b12ad33a9018995fccfad&#45;&gt;dir_b9426ba341d3aa182dc36932de89e798</title>
<path fill="none" stroke="black" d="M283.79,-359.7C282.35,-351.98 280.63,-342.71 279.04,-334.11"/>
<polygon fill="black" stroke="black" points="282.44,-333.3 277.18,-324.1 275.56,-334.58 282.44,-333.3"/>
<g id="a_edge35&#45;headlabel"><a xlink:href="dir_000084_000010.html" target="_top" xlink:title="1">
<text text-anchor="middle" x="285.89" y="-333.81" font-family="Helvetica,sans-Serif" font-size="10.00">1</text>
</a>
</g>
</g>
<!-- dir_b6a873d3d46b12ad33a9018995fccfad&#45;&gt;dir_c3e93f23a4a31c717998b98ce143b7c0 -->
<g id="edge31" class="edge">
<title>dir_b6a873d3d46b12ad33a9018995fccfad&#45;&gt;dir_c3e93f23a4a31c717998b98ce143b7c0</title>
<path fill="none" stroke="black" d="M316.11,-362.83C319.07,-361.74 322.06,-360.77 325,-360 412.01,-337.33 667.32,-390.35 728,-324 761.14,-287.77 747.86,-225.45 736.26,-189.91"/>
<polygon fill="black" stroke="black" points="739.49,-188.53 732.92,-180.22 732.87,-190.81 739.49,-188.53"/>
<g id="a_edge31&#45;headlabel"><a xlink:href="dir_000084_000008.html" target="_top" xlink:title="3">
<text text-anchor="middle" x="743.34" y="-188.51" font-family="Helvetica,sans-Serif" font-size="10.00">3</text>
</a>
</g>
</g>
<!-- dir_b6a873d3d46b12ad33a9018995fccfad&#45;&gt;dir_ae1e398ac700924fa434b51c248a5531 -->
<g id="edge32" class="edge">
<title>dir_b6a873d3d46b12ad33a9018995fccfad&#45;&gt;dir_ae1e398ac700924fa434b51c248a5531</title>
<path fill="none" stroke="black" d="M316.39,-363.66C319.29,-362.4 322.2,-361.16 325,-360 366.32,-342.86 393.65,-360.86 419,-324 464.34,-258.09 440.99,-220.92 419,-144 416.29,-134.51 411.33,-125.06 406.07,-116.83"/>
<polygon fill="black" stroke="black" points="408.86,-114.72 400.33,-108.43 403.08,-118.67 408.86,-114.72"/>
<g id="a_edge32&#45;headlabel"><a xlink:href="dir_000084_000055.html" target="_top" xlink:title="2">
<text text-anchor="middle" x="413.23" y="-113.58" font-family="Helvetica,sans-Serif" font-size="10.00">2</text>
</a>
</g>
</g>
<!-- dir_b6a873d3d46b12ad33a9018995fccfad&#45;&gt;dir_32453792af2ba70c54e3ccae3a790d1b -->
<g id="edge33" class="edge">
<title>dir_b6a873d3d46b12ad33a9018995fccfad&#45;&gt;dir_32453792af2ba70c54e3ccae3a790d1b</title>
<path fill="none" stroke="black" d="M257.7,-361.98C235.92,-350.27 208.71,-334.33 201,-324 176.5,-291.16 177,-275.97 177,-235 177,-235 177,-235 177,-161 177,-120.03 180.66,-107.56 201,-72 207.04,-61.44 215.69,-51.47 224.21,-43.08"/>
<polygon fill="black" stroke="black" points="226.7,-45.54 231.59,-36.14 221.91,-40.44 226.7,-45.54"/>
<g id="a_edge33&#45;headlabel"><a xlink:href="dir_000084_000006.html" target="_top" xlink:title="5">
<text text-anchor="middle" x="226.03" y="-47.57" font-family="Helvetica,sans-Serif" font-size="10.00">5</text>
</a>
</g>
</g>
<!-- dir_b6a873d3d46b12ad33a9018995fccfad&#45;&gt;dir_97cdd6ae7e6843add574fb55e792badd -->
<g id="edge34" class="edge">
<title>dir_b6a873d3d46b12ad33a9018995fccfad&#45;&gt;dir_97cdd6ae7e6843add574fb55e792badd</title>
<path fill="none" stroke="black" d="M316.13,-362.89C319.08,-361.79 322.07,-360.79 325,-360 466.53,-321.59 511.28,-361.73 653,-324 653.72,-323.81 654.45,-323.6 655.18,-323.39"/>
<polygon fill="black" stroke="black" points="656.35,-326.69 664.67,-320.13 654.08,-320.07 656.35,-326.69"/>
<g id="a_edge34&#45;headlabel"><a xlink:href="dir_000084_000007.html" target="_top" xlink:title="4">
<text text-anchor="middle" x="653.87" y="-328.04" font-family="Helvetica,sans-Serif" font-size="10.00">4</text>
</a>
</g>
</g>
<!-- dir_c3e93f23a4a31c717998b98ce143b7c0&#45;&gt;dir_ae1e398ac700924fa434b51c248a5531 -->
<g id="edge6" class="edge">
<title>dir_c3e93f23a4a31c717998b98ce143b7c0&#45;&gt;dir_ae1e398ac700924fa434b51c248a5531</title>
<path fill="none" stroke="black" d="M698.96,-155.1C683.71,-151.79 664.3,-147.62 647,-144 567.19,-127.31 473.48,-108.46 422.9,-98.35"/>
<polygon fill="black" stroke="black" points="423.57,-94.92 413.07,-96.39 422.19,-101.78 423.57,-94.92"/>
<g id="a_edge6&#45;headlabel"><a xlink:href="dir_000008_000055.html" target="_top" xlink:title="98">
<text text-anchor="middle" x="427.65" y="-90.34" font-family="Helvetica,sans-Serif" font-size="10.00">98</text>
</a>
</g>
</g>
<!-- dir_c3e93f23a4a31c717998b98ce143b7c0&#45;&gt;dir_32453792af2ba70c54e3ccae3a790d1b -->
<g id="edge7" class="edge">
<title>dir_c3e93f23a4a31c717998b98ce143b7c0&#45;&gt;dir_32453792af2ba70c54e3ccae3a790d1b</title>
<path fill="none" stroke="black" d="M723.21,-143.75C718.9,-123.1 708.5,-89.15 685,-72 622.49,-26.37 383.39,-19.83 290.35,-19.04"/>
<polygon fill="black" stroke="black" points="290.29,-15.54 280.27,-18.97 290.24,-22.54 290.29,-15.54"/>
<g id="a_edge7&#45;headlabel"><a xlink:href="dir_000008_000006.html" target="_top" xlink:title="189">
<text text-anchor="middle" x="293.9" y="-10.22" font-family="Helvetica,sans-Serif" font-size="10.00">189</text>
</a>
</g>
</g>
<!-- dir_ae1e398ac700924fa434b51c248a5531&#45;&gt;dir_32453792af2ba70c54e3ccae3a790d1b -->
<g id="edge8" class="edge">
<title>dir_ae1e398ac700924fa434b51c248a5531&#45;&gt;dir_32453792af2ba70c54e3ccae3a790d1b</title>
<path fill="none" stroke="black" d="M358.87,-77.44C338.46,-67.54 310.47,-53.02 288.34,-40.92"/>
<polygon fill="black" stroke="black" points="290.01,-37.85 279.56,-36.08 286.63,-43.98 290.01,-37.85"/>
<g id="a_edge8&#45;headlabel"><a xlink:href="dir_000055_000006.html" target="_top" xlink:title="195">
<text text-anchor="middle" x="294.53" y="-34.6" font-family="Helvetica,sans-Serif" font-size="10.00">195</text>
</a>
</g>
</g>
<!-- dir_32453792af2ba70c54e3ccae3a790d1b&#45;&gt;dir_ae1e398ac700924fa434b51c248a5531 -->
<g id="edge10" class="edge">
<title>dir_32453792af2ba70c54e3ccae3a790d1b&#45;&gt;dir_ae1e398ac700924fa434b51c248a5531</title>
<path fill="none" stroke="black" d="M280.4,-30.69C300.69,-40.54 328.35,-54.89 350.33,-66.9"/>
<polygon fill="black" stroke="black" points="348.91,-70.11 359.36,-71.88 352.29,-63.98 348.91,-70.11"/>
<g id="a_edge10&#45;headlabel"><a xlink:href="dir_000006_000055.html" target="_top" xlink:title="73">
<text text-anchor="middle" x="344.4" y="-68.36" font-family="Helvetica,sans-Serif" font-size="10.00">73</text>
</a>
</g>
</g>
<!-- dir_fb12555e9948232649f998a9a651ff9d&#45;&gt;dir_c3e93f23a4a31c717998b98ce143b7c0 -->
<g id="edge16" class="edge">
<title>dir_fb12555e9948232649f998a9a651ff9d&#45;&gt;dir_c3e93f23a4a31c717998b98ce143b7c0</title>
<path fill="none" stroke="black" d="M851.26,-218.5C825.42,-207.05 789.38,-191.08 762.59,-179.21"/>
<polygon fill="black" stroke="black" points="763.74,-175.89 753.18,-175.04 760.9,-182.29 763.74,-175.89"/>
<g id="a_edge16&#45;headlabel"><a xlink:href="dir_000063_000008.html" target="_top" xlink:title="12">
<text text-anchor="middle" x="768.17" y="-172.25" font-family="Helvetica,sans-Serif" font-size="10.00">12</text>
</a>
</g>
</g>
<!-- dir_fb12555e9948232649f998a9a651ff9d&#45;&gt;dir_ae1e398ac700924fa434b51c248a5531 -->
<g id="edge17" class="edge">
<title>dir_fb12555e9948232649f998a9a651ff9d&#45;&gt;dir_ae1e398ac700924fa434b51c248a5531</title>
<path fill="none" stroke="black" d="M866.32,-215.65C844.02,-194.9 803.55,-160.84 762,-144 645.15,-96.63 493.02,-90.46 423.55,-90.37"/>
<polygon fill="black" stroke="black" points="423.12,-86.87 413.13,-90.4 423.14,-93.87 423.12,-86.87"/>
<g id="a_edge17&#45;headlabel"><a xlink:href="dir_000063_000055.html" target="_top" xlink:title="37">
<text text-anchor="middle" x="426.7" y="-81.52" font-family="Helvetica,sans-Serif" font-size="10.00">37</text>
</a>
</g>
</g>
<!-- dir_fb12555e9948232649f998a9a651ff9d&#45;&gt;dir_32453792af2ba70c54e3ccae3a790d1b -->
<g id="edge18" class="edge">
<title>dir_fb12555e9948232649f998a9a651ff9d&#45;&gt;dir_32453792af2ba70c54e3ccae3a790d1b</title>
<path fill="none" stroke="black" d="M872.61,-215.85C848.24,-180.91 787.21,-102.22 713,-72 636.39,-40.8 385.71,-25.51 290.31,-20.72"/>
<polygon fill="black" stroke="black" points="290.41,-17.22 280.25,-20.22 290.07,-24.21 290.41,-17.22"/>
<g id="a_edge18&#45;headlabel"><a xlink:href="dir_000063_000006.html" target="_top" xlink:title="42">
<text text-anchor="middle" x="294.14" y="-12.06" font-family="Helvetica,sans-Serif" font-size="10.00">42</text>
</a>
</g>
</g>
<!-- dir_97cdd6ae7e6843add574fb55e792badd&#45;&gt;dir_c3e93f23a4a31c717998b98ce143b7c0 -->
<g id="edge19" class="edge">
<title>dir_97cdd6ae7e6843add574fb55e792badd&#45;&gt;dir_c3e93f23a4a31c717998b98ce143b7c0</title>
<path fill="none" stroke="black" d="M696.1,-287.87C701.92,-263.56 712.63,-218.82 719.53,-190.01"/>
<polygon fill="black" stroke="black" points="722.96,-190.73 721.88,-180.19 716.15,-189.1 722.96,-190.73"/>
<g id="a_edge19&#45;headlabel"><a xlink:href="dir_000007_000008.html" target="_top" xlink:title="212">
<text text-anchor="middle" x="724.88" y="-192.39" font-family="Helvetica,sans-Serif" font-size="10.00">212</text>
</a>
</g>
</g>
<!-- dir_97cdd6ae7e6843add574fb55e792badd&#45;&gt;dir_ae1e398ac700924fa434b51c248a5531 -->
<g id="edge20" class="edge">
<title>dir_97cdd6ae7e6843add574fb55e792badd&#45;&gt;dir_ae1e398ac700924fa434b51c248a5531</title>
<path fill="none" stroke="black" d="M672.49,-287.79C666.37,-282.58 659.5,-276.93 653,-272 572.87,-211.21 473.75,-146.62 421.73,-113.49"/>
<polygon fill="black" stroke="black" points="423.5,-110.47 413.19,-108.07 419.75,-116.38 423.5,-110.47"/>
<g id="a_edge20&#45;headlabel"><a xlink:href="dir_000007_000055.html" target="_top" xlink:title="53">
<text text-anchor="middle" x="428.06" y="-107.5" font-family="Helvetica,sans-Serif" font-size="10.00">53</text>
</a>
</g>
</g>
<!-- dir_97cdd6ae7e6843add574fb55e792badd&#45;&gt;dir_32453792af2ba70c54e3ccae3a790d1b -->
<g id="edge21" class="edge">
<title>dir_97cdd6ae7e6843add574fb55e792badd&#45;&gt;dir_32453792af2ba70c54e3ccae3a790d1b</title>
<path fill="none" stroke="black" d="M678.87,-287.99C664.08,-269.35 638.87,-239.04 614,-216 535.76,-143.5 516.92,-120.66 422,-72 379.04,-49.98 325.21,-35.03 290,-26.77"/>
<polygon fill="black" stroke="black" points="290.67,-23.33 280.14,-24.51 289.11,-30.16 290.67,-23.33"/>
<g id="a_edge21&#45;headlabel"><a xlink:href="dir_000007_000006.html" target="_top" xlink:title="192">
<text text-anchor="middle" x="294.81" y="-18.86" font-family="Helvetica,sans-Serif" font-size="10.00">192</text>
</a>
</g>
</g>
<!-- dir_97cdd6ae7e6843add574fb55e792badd&#45;&gt;dir_fb12555e9948232649f998a9a651ff9d -->
<g id="edge22" class="edge">
<title>dir_97cdd6ae7e6843add574fb55e792badd&#45;&gt;dir_fb12555e9948232649f998a9a651ff9d</title>
<path fill="none" stroke="black" d="M719.1,-295.12C750.98,-283.5 804.3,-264.06 841.65,-250.44"/>
<polygon fill="black" stroke="black" points="843.06,-253.65 851.25,-246.94 840.66,-247.08 843.06,-253.65"/>
<g id="a_edge22&#45;headlabel"><a xlink:href="dir_000007_000063.html" target="_top" xlink:title="1">
<text text-anchor="middle" x="840.65" y="-255.05" font-family="Helvetica,sans-Serif" font-size="10.00">1</text>
</a>
</g>
</g>
</g>
</svg>
