<?xml version="1.0" encoding="UTF-8" standalone="no"?>
<!DOCTYPE svg PUBLIC "-//W3C//DTD SVG 1.1//EN"
 "http://www.w3.org/Graphics/SVG/1.1/DTD/svg11.dtd">
<!-- Generated by graphviz version 2.43.0 (0)
 -->
<!-- Title: lib/Target/AMDGPU/Utils Pages: 1 -->
<svg width="180pt" height="151pt"
 viewBox="0.00 0.00 179.50 151.00" xmlns="http://www.w3.org/2000/svg" xmlns:xlink="http://www.w3.org/1999/xlink">
<g id="graph0" class="graph" transform="scale(1 1) rotate(0) translate(4 147)">
<title>lib/Target/AMDGPU/Utils</title>
<g id="clust1" class="cluster">
<title>clusterdir_447ce995d6e35417de5ec3060e97c93e</title>
<g id="a_clust1"><a xlink:href="dir_447ce995d6e35417de5ec3060e97c93e.html" target="_top" xlink:title="AMDGPU">
<polygon fill="#ddddee" stroke="black" points="8,-64 8,-135 78,-135 78,-64 8,-64"/>
<text text-anchor="middle" x="43" y="-123" font-family="Helvetica,sans-Serif" font-size="10.00">AMDGPU</text>
</a>
</g>
</g>
<!-- dir_234f42f82b76b03f6101df18c668b2d0 -->
<g id="node1" class="node">
<title>dir_234f42f82b76b03f6101df18c668b2d0</title>
<g id="a_node1"><a xlink:href="dir_234f42f82b76b03f6101df18c668b2d0.html" target="_top" xlink:title="Utils">
<polygon fill="#eeeeff" stroke="black" points="70,-108 16,-108 16,-72 70,-72 70,-108"/>
<text text-anchor="middle" x="43" y="-87.5" font-family="Helvetica,sans-Serif" font-size="10.00">Utils</text>
</a>
</g>
</g>
<!-- dir_11079433822a7eb4461df62ee7457777 -->
<g id="node2" class="node">
<title>dir_11079433822a7eb4461df62ee7457777</title>
<g id="a_node2"><a xlink:href="dir_11079433822a7eb4461df62ee7457777.html" target="_top" xlink:title="MCTargetDesc">
<polygon fill="none" stroke="black" points="171.5,-108 88.5,-108 88.5,-72 171.5,-72 171.5,-108"/>
<text text-anchor="middle" x="130" y="-87.5" font-family="Helvetica,sans-Serif" font-size="10.00">MCTargetDesc</text>
</a>
</g>
</g>
<!-- dir_234f42f82b76b03f6101df18c668b2d0&#45;&gt;dir_11079433822a7eb4461df62ee7457777 -->
<g id="edge1" class="edge">
<title>dir_234f42f82b76b03f6101df18c668b2d0&#45;&gt;dir_11079433822a7eb4461df62ee7457777</title>
<path fill="none" stroke="black" d="M70.19,-90C72.85,-90 75.5,-90 78.16,-90"/>
<polygon fill="black" stroke="black" points="78.41,-93.5 88.41,-90 78.41,-86.5 78.41,-93.5"/>
<g id="a_edge1&#45;headlabel"><a xlink:href="dir_000156_000154.html" target="_top" xlink:title="2">
<text text-anchor="middle" x="74.82" y="-93.84" font-family="Helvetica,sans-Serif" font-size="10.00">2</text>
</a>
</g>
</g>
<!-- dir_d44c64559bbebec7f509842c48db8b23 -->
<g id="node3" class="node">
<title>dir_d44c64559bbebec7f509842c48db8b23</title>
<g id="a_node3"><a xlink:href="dir_d44c64559bbebec7f509842c48db8b23.html" target="_top" xlink:title="include">
<polygon fill="none" stroke="red" points="113,-36 59,-36 59,0 113,0 113,-36"/>
<text text-anchor="middle" x="86" y="-15.5" font-family="Helvetica,sans-Serif" font-size="10.00">include</text>
</a>
</g>
</g>
<!-- dir_234f42f82b76b03f6101df18c668b2d0&#45;&gt;dir_d44c64559bbebec7f509842c48db8b23 -->
<g id="edge2" class="edge">
<title>dir_234f42f82b76b03f6101df18c668b2d0&#45;&gt;dir_d44c64559bbebec7f509842c48db8b23</title>
<path fill="none" stroke="black" d="M53.63,-71.7C58.63,-63.56 64.69,-53.69 70.21,-44.7"/>
<polygon fill="black" stroke="black" points="73.24,-46.46 75.49,-36.1 67.28,-42.79 73.24,-46.46"/>
<g id="a_edge2&#45;headlabel"><a xlink:href="dir_000156_000000.html" target="_top" xlink:title="42">
<text text-anchor="middle" x="73.78" y="-48.51" font-family="Helvetica,sans-Serif" font-size="10.00">42</text>
</a>
</g>
</g>
<!-- dir_11079433822a7eb4461df62ee7457777&#45;&gt;dir_234f42f82b76b03f6101df18c668b2d0 -->
<g id="edge3" class="edge">
<title>dir_11079433822a7eb4461df62ee7457777&#45;&gt;dir_234f42f82b76b03f6101df18c668b2d0</title>
<path fill="none" stroke="black" d="M88.41,-90C85.75,-90 83.1,-90 80.44,-90"/>
<polygon fill="black" stroke="black" points="80.19,-86.5 70.19,-90 80.19,-93.5 80.19,-86.5"/>
<g id="a_edge3&#45;headlabel"><a xlink:href="dir_000154_000156.html" target="_top" xlink:title="8">
<text text-anchor="middle" x="83.78" y="-81.16" font-family="Helvetica,sans-Serif" font-size="10.00">8</text>
</a>
</g>
</g>
<!-- dir_11079433822a7eb4461df62ee7457777&#45;&gt;dir_d44c64559bbebec7f509842c48db8b23 -->
<g id="edge4" class="edge">
<title>dir_11079433822a7eb4461df62ee7457777&#45;&gt;dir_d44c64559bbebec7f509842c48db8b23</title>
<path fill="none" stroke="black" d="M119.12,-71.7C114.01,-63.56 107.8,-53.69 102.16,-44.7"/>
<polygon fill="black" stroke="black" points="105.04,-42.71 96.75,-36.1 99.11,-46.43 105.04,-42.71"/>
<g id="a_edge4&#45;headlabel"><a xlink:href="dir_000154_000000.html" target="_top" xlink:title="95">
<text text-anchor="middle" x="109.35" y="-41.74" font-family="Helvetica,sans-Serif" font-size="10.00">95</text>
</a>
</g>
</g>
</g>
</svg>
