<?xml version="1.0" encoding="UTF-8" standalone="no"?>
<!DOCTYPE svg PUBLIC "-//W3C//DTD SVG 1.1//EN"
 "http://www.w3.org/Graphics/SVG/1.1/DTD/svg11.dtd">
<!-- Generated by graphviz version 2.43.0 (0)
 -->
<!-- Title: include/llvm/DebugInfo/PDB Pages: 1 -->
<svg width="361pt" height="447pt"
 viewBox="0.00 0.00 360.87 447.00" xmlns="http://www.w3.org/2000/svg" xmlns:xlink="http://www.w3.org/1999/xlink">
<g id="graph0" class="graph" transform="scale(1 1) rotate(0) translate(4 443)">
<title>include/llvm/DebugInfo/PDB</title>
<g id="clust1" class="cluster">
<title>clusterdir_fc2cd323963d6c4db27150ccf17ad26a</title>
<g id="a_clust1"><a xlink:href="dir_fc2cd323963d6c4db27150ccf17ad26a.html" target="_top" xlink:title="DebugInfo">
<polygon fill="#ddddee" stroke="black" points="105,-272 105,-431 263,-431 263,-272 105,-272"/>
<text text-anchor="middle" x="184" y="-419" font-family="Helvetica,sans-Serif" font-size="10.00">DebugInfo</text>
</a>
</g>
</g>
<g id="clust2" class="cluster">
<title>clusterdir_517813d003cf5f8a9c7902976140e3c9</title>
<g id="a_clust2"><a xlink:href="dir_517813d003cf5f8a9c7902976140e3c9.html" target="_top">
<polygon fill="#eeeeff" stroke="black" points="113,-280 113,-404 255,-404 255,-280 113,-280"/>
</a>
</g>
</g>
<!-- dir_517813d003cf5f8a9c7902976140e3c9 -->
<g id="node1" class="node">
<title>dir_517813d003cf5f8a9c7902976140e3c9</title>
<text text-anchor="middle" x="148" y="-375.5" font-family="Helvetica,sans-Serif" font-size="10.00">PDB</text>
</g>
<!-- dir_49ea796351d788f9fd608460ff7cad8d -->
<g id="node3" class="node">
<title>dir_49ea796351d788f9fd608460ff7cad8d</title>
<g id="a_node3"><a xlink:href="dir_49ea796351d788f9fd608460ff7cad8d.html" target="_top" xlink:title="Native">
<polygon fill="white" stroke="black" points="175,-324 121,-324 121,-288 175,-288 175,-324"/>
<text text-anchor="middle" x="148" y="-303.5" font-family="Helvetica,sans-Serif" font-size="10.00">Native</text>
</a>
</g>
</g>
<!-- dir_517813d003cf5f8a9c7902976140e3c9&#45;&gt;dir_49ea796351d788f9fd608460ff7cad8d -->
<g id="edge7" class="edge">
<title>dir_517813d003cf5f8a9c7902976140e3c9&#45;&gt;dir_49ea796351d788f9fd608460ff7cad8d</title>
<path fill="none" stroke="black" d="M148,-359.7C148,-351.98 148,-342.71 148,-334.11"/>
<polygon fill="black" stroke="black" points="151.5,-334.1 148,-324.1 144.5,-334.1 151.5,-334.1"/>
<g id="a_edge7&#45;headlabel"><a xlink:href="dir_000027_000028.html" target="_top" xlink:title="1">
<text text-anchor="middle" x="154.34" y="-335.2" font-family="Helvetica,sans-Serif" font-size="10.00">1</text>
</a>
</g>
</g>
<!-- dir_ac338560536f6f44af50a445c35c2f7c -->
<g id="node2" class="node">
<title>dir_ac338560536f6f44af50a445c35c2f7c</title>
<g id="a_node2"><a xlink:href="dir_ac338560536f6f44af50a445c35c2f7c.html" target="_top" xlink:title="DIA">
<polygon fill="white" stroke="black" points="247,-396 193,-396 193,-360 247,-360 247,-396"/>
<text text-anchor="middle" x="220" y="-375.5" font-family="Helvetica,sans-Serif" font-size="10.00">DIA</text>
</a>
</g>
</g>
<!-- dir_ae1e398ac700924fa434b51c248a5531 -->
<g id="node5" class="node">
<title>dir_ae1e398ac700924fa434b51c248a5531</title>
<g id="a_node5"><a xlink:href="dir_ae1e398ac700924fa434b51c248a5531.html" target="_top" xlink:title="Support">
<polygon fill="none" stroke="red" points="190,-108 136,-108 136,-72 190,-72 190,-108"/>
<text text-anchor="middle" x="163" y="-87.5" font-family="Helvetica,sans-Serif" font-size="10.00">Support</text>
</a>
</g>
</g>
<!-- dir_ac338560536f6f44af50a445c35c2f7c&#45;&gt;dir_ae1e398ac700924fa434b51c248a5531 -->
<g id="edge5" class="edge">
<title>dir_ac338560536f6f44af50a445c35c2f7c&#45;&gt;dir_ae1e398ac700924fa434b51c248a5531</title>
<path fill="none" stroke="black" d="M241.03,-359.78C287.63,-319.56 391.29,-217.29 337,-144 305.7,-101.75 241.51,-92.04 200.45,-90.41"/>
<polygon fill="black" stroke="black" points="200.38,-86.91 190.29,-90.16 200.2,-93.91 200.38,-86.91"/>
<g id="a_edge5&#45;headlabel"><a xlink:href="dir_000032_000055.html" target="_top" xlink:title="3">
<text text-anchor="middle" x="204.04" y="-81.66" font-family="Helvetica,sans-Serif" font-size="10.00">3</text>
</a>
</g>
</g>
<!-- dir_32453792af2ba70c54e3ccae3a790d1b -->
<g id="node6" class="node">
<title>dir_32453792af2ba70c54e3ccae3a790d1b</title>
<g id="a_node6"><a xlink:href="dir_32453792af2ba70c54e3ccae3a790d1b.html" target="_top" xlink:title="ADT">
<polygon fill="none" stroke="black" points="190,-36 136,-36 136,0 190,0 190,-36"/>
<text text-anchor="middle" x="163" y="-15.5" font-family="Helvetica,sans-Serif" font-size="10.00">ADT</text>
</a>
</g>
</g>
<!-- dir_ac338560536f6f44af50a445c35c2f7c&#45;&gt;dir_32453792af2ba70c54e3ccae3a790d1b -->
<g id="edge6" class="edge">
<title>dir_ac338560536f6f44af50a445c35c2f7c&#45;&gt;dir_32453792af2ba70c54e3ccae3a790d1b</title>
<path fill="none" stroke="black" d="M192.85,-364.05C163.35,-349.92 119.39,-328.67 112,-324 58.26,-290.02 0,-298.58 0,-235 0,-235 0,-235 0,-161 0,-94.46 78.17,-51.98 126.25,-32.15"/>
<polygon fill="black" stroke="black" points="127.73,-35.33 135.72,-28.37 125.13,-28.82 127.73,-35.33"/>
<g id="a_edge6&#45;headlabel"><a xlink:href="dir_000032_000006.html" target="_top" xlink:title="2">
<text text-anchor="middle" x="125.44" y="-36.79" font-family="Helvetica,sans-Serif" font-size="10.00">2</text>
</a>
</g>
</g>
<!-- dir_80efc3cf491d6c371bccd82c5a7f3231 -->
<g id="node4" class="node">
<title>dir_80efc3cf491d6c371bccd82c5a7f3231</title>
<g id="a_node4"><a xlink:href="dir_80efc3cf491d6c371bccd82c5a7f3231.html" target="_top" xlink:title="MSF">
<polygon fill="none" stroke="black" points="120,-180 66,-180 66,-144 120,-144 120,-180"/>
<text text-anchor="middle" x="93" y="-159.5" font-family="Helvetica,sans-Serif" font-size="10.00">MSF</text>
</a>
</g>
</g>
<!-- dir_49ea796351d788f9fd608460ff7cad8d&#45;&gt;dir_80efc3cf491d6c371bccd82c5a7f3231 -->
<g id="edge13" class="edge">
<title>dir_49ea796351d788f9fd608460ff7cad8d&#45;&gt;dir_80efc3cf491d6c371bccd82c5a7f3231</title>
<path fill="none" stroke="black" d="M141.37,-287.87C131.91,-263.46 114.47,-218.43 103.32,-189.64"/>
<polygon fill="black" stroke="black" points="106.53,-188.25 99.66,-180.19 100.01,-190.78 106.53,-188.25"/>
<g id="a_edge13&#45;headlabel"><a xlink:href="dir_000028_000031.html" target="_top" xlink:title="7">
<text text-anchor="middle" x="110.48" y="-188.08" font-family="Helvetica,sans-Serif" font-size="10.00">7</text>
</a>
</g>
</g>
<!-- dir_49ea796351d788f9fd608460ff7cad8d&#45;&gt;dir_ae1e398ac700924fa434b51c248a5531 -->
<g id="edge14" class="edge">
<title>dir_49ea796351d788f9fd608460ff7cad8d&#45;&gt;dir_ae1e398ac700924fa434b51c248a5531</title>
<path fill="none" stroke="black" d="M149.2,-287.85C151.8,-250.83 157.94,-163.18 161.08,-118.39"/>
<polygon fill="black" stroke="black" points="164.58,-118.45 161.79,-108.23 157.6,-117.96 164.58,-118.45"/>
<g id="a_edge14&#45;headlabel"><a xlink:href="dir_000028_000055.html" target="_top" xlink:title="69">
<text text-anchor="middle" x="167.17" y="-119.74" font-family="Helvetica,sans-Serif" font-size="10.00">69</text>
</a>
</g>
</g>
<!-- dir_49ea796351d788f9fd608460ff7cad8d&#45;&gt;dir_32453792af2ba70c54e3ccae3a790d1b -->
<g id="edge15" class="edge">
<title>dir_49ea796351d788f9fd608460ff7cad8d&#45;&gt;dir_32453792af2ba70c54e3ccae3a790d1b</title>
<path fill="none" stroke="black" d="M126.73,-287.78C94.53,-259.47 38.98,-200.6 57,-144 70.3,-102.23 105.98,-65.46 132.29,-42.81"/>
<polygon fill="black" stroke="black" points="134.71,-45.35 140.12,-36.24 130.21,-39.98 134.71,-45.35"/>
<g id="a_edge15&#45;headlabel"><a xlink:href="dir_000028_000006.html" target="_top" xlink:title="42">
<text text-anchor="middle" x="133.78" y="-47.33" font-family="Helvetica,sans-Serif" font-size="10.00">42</text>
</a>
</g>
</g>
<!-- dir_9d501704383c1e44b20a16840092724c -->
<g id="node7" class="node">
<title>dir_9d501704383c1e44b20a16840092724c</title>
<g id="a_node7"><a xlink:href="dir_9d501704383c1e44b20a16840092724c.html" target="_top" xlink:title="CodeView">
<polygon fill="none" stroke="black" points="247,-252 185,-252 185,-216 247,-216 247,-252"/>
<text text-anchor="middle" x="216" y="-231.5" font-family="Helvetica,sans-Serif" font-size="10.00">CodeView</text>
</a>
</g>
</g>
<!-- dir_49ea796351d788f9fd608460ff7cad8d&#45;&gt;dir_9d501704383c1e44b20a16840092724c -->
<g id="edge16" class="edge">
<title>dir_49ea796351d788f9fd608460ff7cad8d&#45;&gt;dir_9d501704383c1e44b20a16840092724c</title>
<path fill="none" stroke="black" d="M164.81,-287.7C173.13,-279.14 183.31,-268.66 192.39,-259.3"/>
<polygon fill="black" stroke="black" points="194.93,-261.72 199.38,-252.1 189.91,-256.84 194.93,-261.72"/>
<g id="a_edge16&#45;headlabel"><a xlink:href="dir_000028_000026.html" target="_top" xlink:title="46">
<text text-anchor="middle" x="194.46" y="-263.77" font-family="Helvetica,sans-Serif" font-size="10.00">46</text>
</a>
</g>
</g>
<!-- dir_76bc56fc1555430657f301d4de3959f5 -->
<g id="node8" class="node">
<title>dir_76bc56fc1555430657f301d4de3959f5</title>
<g id="a_node8"><a xlink:href="dir_76bc56fc1555430657f301d4de3959f5.html" target="_top" xlink:title="BinaryFormat">
<polygon fill="none" stroke="black" points="327.5,-180 252.5,-180 252.5,-144 327.5,-144 327.5,-180"/>
<text text-anchor="middle" x="290" y="-159.5" font-family="Helvetica,sans-Serif" font-size="10.00">BinaryFormat</text>
</a>
</g>
</g>
<!-- dir_49ea796351d788f9fd608460ff7cad8d&#45;&gt;dir_76bc56fc1555430657f301d4de3959f5 -->
<g id="edge17" class="edge">
<title>dir_49ea796351d788f9fd608460ff7cad8d&#45;&gt;dir_76bc56fc1555430657f301d4de3959f5</title>
<path fill="none" stroke="black" d="M175.45,-297.78C199.64,-290.11 234.32,-275.76 256,-252 271.81,-234.68 280.53,-209.26 285.17,-190.01"/>
<polygon fill="black" stroke="black" points="288.63,-190.56 287.35,-180.04 281.8,-189.07 288.63,-190.56"/>
<g id="a_edge17&#45;headlabel"><a xlink:href="dir_000028_000015.html" target="_top" xlink:title="1">
<text text-anchor="middle" x="290.64" y="-192.18" font-family="Helvetica,sans-Serif" font-size="10.00">1</text>
</a>
</g>
</g>
<!-- dir_80efc3cf491d6c371bccd82c5a7f3231&#45;&gt;dir_ae1e398ac700924fa434b51c248a5531 -->
<g id="edge2" class="edge">
<title>dir_80efc3cf491d6c371bccd82c5a7f3231&#45;&gt;dir_ae1e398ac700924fa434b51c248a5531</title>
<path fill="none" stroke="black" d="M110.3,-143.7C118.86,-135.14 129.34,-124.66 138.7,-115.3"/>
<polygon fill="black" stroke="black" points="141.3,-117.65 145.9,-108.1 136.35,-112.7 141.3,-117.65"/>
<g id="a_edge2&#45;headlabel"><a xlink:href="dir_000031_000055.html" target="_top" xlink:title="13">
<text text-anchor="middle" x="140.77" y="-119.7" font-family="Helvetica,sans-Serif" font-size="10.00">13</text>
</a>
</g>
</g>
<!-- dir_80efc3cf491d6c371bccd82c5a7f3231&#45;&gt;dir_32453792af2ba70c54e3ccae3a790d1b -->
<g id="edge3" class="edge">
<title>dir_80efc3cf491d6c371bccd82c5a7f3231&#45;&gt;dir_32453792af2ba70c54e3ccae3a790d1b</title>
<path fill="none" stroke="black" d="M98.26,-143.76C104.16,-125.45 114.53,-95.9 127,-72 131.89,-62.63 138.1,-52.92 143.99,-44.4"/>
<polygon fill="black" stroke="black" points="147,-46.21 149.94,-36.03 141.29,-42.16 147,-46.21"/>
<g id="a_edge3&#45;headlabel"><a xlink:href="dir_000031_000006.html" target="_top" xlink:title="7">
<text text-anchor="middle" x="147.23" y="-48.29" font-family="Helvetica,sans-Serif" font-size="10.00">7</text>
</a>
</g>
</g>
<!-- dir_ae1e398ac700924fa434b51c248a5531&#45;&gt;dir_32453792af2ba70c54e3ccae3a790d1b -->
<g id="edge1" class="edge">
<title>dir_ae1e398ac700924fa434b51c248a5531&#45;&gt;dir_32453792af2ba70c54e3ccae3a790d1b</title>
<path fill="none" stroke="black" d="M157.08,-71.7C156.29,-63.98 156.06,-54.71 156.4,-46.11"/>
<polygon fill="black" stroke="black" points="159.9,-46.32 157.1,-36.1 152.92,-45.84 159.9,-46.32"/>
<g id="a_edge1&#45;headlabel"><a xlink:href="dir_000055_000006.html" target="_top" xlink:title="195">
<text text-anchor="middle" x="162.48" y="-47.61" font-family="Helvetica,sans-Serif" font-size="10.00">195</text>
</a>
</g>
</g>
<!-- dir_32453792af2ba70c54e3ccae3a790d1b&#45;&gt;dir_ae1e398ac700924fa434b51c248a5531 -->
<g id="edge4" class="edge">
<title>dir_32453792af2ba70c54e3ccae3a790d1b&#45;&gt;dir_ae1e398ac700924fa434b51c248a5531</title>
<path fill="none" stroke="black" d="M168.9,-36.1C169.7,-43.79 169.94,-53.05 169.6,-61.67"/>
<polygon fill="black" stroke="black" points="166.11,-61.48 168.92,-71.7 173.09,-61.96 166.11,-61.48"/>
<g id="a_edge4&#45;headlabel"><a xlink:href="dir_000006_000055.html" target="_top" xlink:title="73">
<text text-anchor="middle" x="163.52" y="-55.2" font-family="Helvetica,sans-Serif" font-size="10.00">73</text>
</a>
</g>
</g>
<!-- dir_9d501704383c1e44b20a16840092724c&#45;&gt;dir_ae1e398ac700924fa434b51c248a5531 -->
<g id="edge8" class="edge">
<title>dir_9d501704383c1e44b20a16840092724c&#45;&gt;dir_ae1e398ac700924fa434b51c248a5531</title>
<path fill="none" stroke="black" d="M209.61,-215.87C200.49,-191.46 183.69,-146.43 172.94,-117.64"/>
<polygon fill="black" stroke="black" points="176.19,-116.33 169.42,-108.19 169.63,-118.78 176.19,-116.33"/>
<g id="a_edge8&#45;headlabel"><a xlink:href="dir_000026_000055.html" target="_top" xlink:title="100">
<text text-anchor="middle" x="180.11" y="-116.21" font-family="Helvetica,sans-Serif" font-size="10.00">100</text>
</a>
</g>
</g>
<!-- dir_9d501704383c1e44b20a16840092724c&#45;&gt;dir_32453792af2ba70c54e3ccae3a790d1b -->
<g id="edge9" class="edge">
<title>dir_9d501704383c1e44b20a16840092724c&#45;&gt;dir_32453792af2ba70c54e3ccae3a790d1b</title>
<path fill="none" stroke="black" d="M216.87,-215.94C217.82,-185.87 217.26,-121.88 199,-72 195.48,-62.39 189.84,-52.84 184.06,-44.54"/>
<polygon fill="black" stroke="black" points="186.81,-42.38 178.06,-36.41 181.18,-46.54 186.81,-42.38"/>
<g id="a_edge9&#45;headlabel"><a xlink:href="dir_000026_000006.html" target="_top" xlink:title="71">
<text text-anchor="middle" x="191.23" y="-41.09" font-family="Helvetica,sans-Serif" font-size="10.00">71</text>
</a>
</g>
</g>
<!-- dir_9d501704383c1e44b20a16840092724c&#45;&gt;dir_76bc56fc1555430657f301d4de3959f5 -->
<g id="edge10" class="edge">
<title>dir_9d501704383c1e44b20a16840092724c&#45;&gt;dir_76bc56fc1555430657f301d4de3959f5</title>
<path fill="none" stroke="black" d="M234.29,-215.7C243.43,-207.05 254.64,-196.45 264.6,-187.03"/>
<polygon fill="black" stroke="black" points="267.06,-189.52 271.92,-180.1 262.25,-184.43 267.06,-189.52"/>
<g id="a_edge10&#45;headlabel"><a xlink:href="dir_000026_000015.html" target="_top" xlink:title="1">
<text text-anchor="middle" x="266.4" y="-191.55" font-family="Helvetica,sans-Serif" font-size="10.00">1</text>
</a>
</g>
</g>
<!-- dir_76bc56fc1555430657f301d4de3959f5&#45;&gt;dir_ae1e398ac700924fa434b51c248a5531 -->
<g id="edge11" class="edge">
<title>dir_76bc56fc1555430657f301d4de3959f5&#45;&gt;dir_ae1e398ac700924fa434b51c248a5531</title>
<path fill="none" stroke="black" d="M258.93,-143.88C240.88,-133.93 218.06,-121.35 199.2,-110.95"/>
<polygon fill="black" stroke="black" points="200.74,-107.81 190.3,-106.05 197.37,-113.94 200.74,-107.81"/>
<g id="a_edge11&#45;headlabel"><a xlink:href="dir_000015_000055.html" target="_top" xlink:title="17">
<text text-anchor="middle" x="205.26" y="-104.56" font-family="Helvetica,sans-Serif" font-size="10.00">17</text>
</a>
</g>
</g>
<!-- dir_76bc56fc1555430657f301d4de3959f5&#45;&gt;dir_32453792af2ba70c54e3ccae3a790d1b -->
<g id="edge12" class="edge">
<title>dir_76bc56fc1555430657f301d4de3959f5&#45;&gt;dir_32453792af2ba70c54e3ccae3a790d1b</title>
<path fill="none" stroke="black" d="M282.68,-143.85C273.98,-124.82 258.08,-93.89 238,-72 226.68,-59.66 212.03,-48.53 198.69,-39.69"/>
<polygon fill="black" stroke="black" points="200.46,-36.67 190.15,-34.22 196.69,-42.56 200.46,-36.67"/>
<g id="a_edge12&#45;headlabel"><a xlink:href="dir_000015_000006.html" target="_top" xlink:title="10">
<text text-anchor="middle" x="205.02" y="-33.72" font-family="Helvetica,sans-Serif" font-size="10.00">10</text>
</a>
</g>
</g>
</g>
</svg>
