<?xml version="1.0" encoding="UTF-8" standalone="no"?>
<!DOCTYPE svg PUBLIC "-//W3C//DTD SVG 1.1//EN"
 "http://www.w3.org/Graphics/SVG/1.1/DTD/svg11.dtd">
<!-- Generated by graphviz version 2.43.0 (0)
 -->
<!-- Title: include/llvm/DebugInfo/DWARF/DWARFDebugAbbrev.h Pages: 1 -->
<svg width="2403pt" height="240pt"
 viewBox="0.00 0.00 2403.00 240.00" xmlns="http://www.w3.org/2000/svg" xmlns:xlink="http://www.w3.org/1999/xlink">
<g id="graph0" class="graph" transform="scale(1 1) rotate(0) translate(4 236)">
<title>include/llvm/DebugInfo/DWARF/DWARFDebugAbbrev.h</title>
<!-- Node65 -->
<g id="node1" class="node">
<title>Node65</title>
<polygon fill="#bfbfbf" stroke="black" points="1276,-201.5 1276,-231.5 1441,-231.5 1441,-201.5 1276,-201.5"/>
<text text-anchor="start" x="1284" y="-219.5" font-family="Helvetica,sans-Serif" font-size="10.00">include/llvm/DebugInfo</text>
<text text-anchor="middle" x="1358.5" y="-208.5" font-family="Helvetica,sans-Serif" font-size="10.00">/DWARF/DWARFDebugAbbrev.h</text>
</g>
<!-- Node66 -->
<g id="node2" class="node">
<title>Node66</title>
<g id="a_node2"><a xlink:href="DWARFContext_8h.html" target="_top" xlink:title="include/llvm/DebugInfo\l/DWARF/DWARFContext.h">
<polygon fill="none" stroke="black" points="1097.5,-134.5 1097.5,-164.5 1237.5,-164.5 1237.5,-134.5 1097.5,-134.5"/>
<text text-anchor="start" x="1105.5" y="-152.5" font-family="Helvetica,sans-Serif" font-size="10.00">include/llvm/DebugInfo</text>
<text text-anchor="middle" x="1167.5" y="-141.5" font-family="Helvetica,sans-Serif" font-size="10.00">/DWARF/DWARFContext.h</text>
</a>
</g>
</g>
<!-- Node65&#45;&gt;Node66 -->
<g id="edge1" class="edge">
<title>Node65&#45;&gt;Node66</title>
<path fill="none" stroke="midnightblue" d="M1307.35,-198.09C1276.51,-187.6 1237.75,-174.41 1208.86,-164.58"/>
<polygon fill="midnightblue" stroke="midnightblue" points="1306.46,-201.49 1317.06,-201.4 1308.72,-194.86 1306.46,-201.49"/>
</g>
<!-- Node69 -->
<g id="node5" class="node">
<title>Node69</title>
<g id="a_node5"><a xlink:href="DWARFContext_8cpp.html" target="_top" xlink:title="lib/DebugInfo/DWARF\l/DWARFContext.cpp">
<polygon fill="none" stroke="black" points="0,-62 0,-92 115,-92 115,-62 0,-62"/>
<text text-anchor="start" x="8" y="-80" font-family="Helvetica,sans-Serif" font-size="10.00">lib/DebugInfo/DWARF</text>
<text text-anchor="middle" x="57.5" y="-69" font-family="Helvetica,sans-Serif" font-size="10.00">/DWARFContext.cpp</text>
</a>
</g>
</g>
<!-- Node65&#45;&gt;Node69 -->
<g id="edge20" class="edge">
<title>Node65&#45;&gt;Node69</title>
<path fill="none" stroke="midnightblue" d="M1265.44,-212.97C1058.37,-205.96 544.57,-180.97 123.5,-98 115.63,-96.45 107.36,-94.34 99.43,-92.07"/>
<polygon fill="midnightblue" stroke="midnightblue" points="1265.56,-216.47 1275.67,-213.31 1265.79,-209.48 1265.56,-216.47"/>
</g>
<!-- Node76 -->
<g id="node12" class="node">
<title>Node76</title>
<g id="a_node12"><a xlink:href="DWARFUnit_8cpp.html" target="_top" xlink:title="lib/DebugInfo/DWARF\l/DWARFUnit.cpp">
<polygon fill="none" stroke="black" points="2280,-62 2280,-92 2395,-92 2395,-62 2280,-62"/>
<text text-anchor="start" x="2288" y="-80" font-family="Helvetica,sans-Serif" font-size="10.00">lib/DebugInfo/DWARF</text>
<text text-anchor="middle" x="2337.5" y="-69" font-family="Helvetica,sans-Serif" font-size="10.00">/DWARFUnit.cpp</text>
</a>
</g>
</g>
<!-- Node65&#45;&gt;Node76 -->
<g id="edge24" class="edge">
<title>Node65&#45;&gt;Node76</title>
<path fill="none" stroke="midnightblue" d="M1321.58,-196.3C1294.05,-179.59 1264.39,-154.86 1284.5,-134 1322.59,-94.5 2217.38,-107.03 2271.5,-98 2279.88,-96.6 2288.7,-94.44 2297.05,-92.05"/>
<polygon fill="midnightblue" stroke="midnightblue" points="1319.98,-199.41 1330.38,-201.42 1323.5,-193.36 1319.98,-199.41"/>
</g>
<!-- Node84 -->
<g id="node20" class="node">
<title>Node84</title>
<g id="a_node20"><a xlink:href="DWARFCompileUnit_8cpp.html" target="_top" xlink:title="lib/DebugInfo/DWARF\l/DWARFCompileUnit.cpp">
<polygon fill="none" stroke="black" points="1293.5,-134.5 1293.5,-164.5 1423.5,-164.5 1423.5,-134.5 1293.5,-134.5"/>
<text text-anchor="start" x="1301.5" y="-152.5" font-family="Helvetica,sans-Serif" font-size="10.00">lib/DebugInfo/DWARF</text>
<text text-anchor="middle" x="1358.5" y="-141.5" font-family="Helvetica,sans-Serif" font-size="10.00">/DWARFCompileUnit.cpp</text>
</a>
</g>
</g>
<!-- Node65&#45;&gt;Node84 -->
<g id="edge19" class="edge">
<title>Node65&#45;&gt;Node84</title>
<path fill="none" stroke="midnightblue" d="M1358.5,-191.11C1358.5,-182.15 1358.5,-172.32 1358.5,-164.58"/>
<polygon fill="midnightblue" stroke="midnightblue" points="1355,-191.4 1358.5,-201.4 1362,-191.4 1355,-191.4"/>
</g>
<!-- Node85 -->
<g id="node21" class="node">
<title>Node85</title>
<g id="a_node21"><a xlink:href="DWARFDebugAbbrev_8cpp.html" target="_top" xlink:title="lib/DebugInfo/DWARF\l/DWARFDebugAbbrev.cpp">
<polygon fill="none" stroke="black" points="1442,-134.5 1442,-164.5 1577,-164.5 1577,-134.5 1442,-134.5"/>
<text text-anchor="start" x="1450" y="-152.5" font-family="Helvetica,sans-Serif" font-size="10.00">lib/DebugInfo/DWARF</text>
<text text-anchor="middle" x="1509.5" y="-141.5" font-family="Helvetica,sans-Serif" font-size="10.00">/DWARFDebugAbbrev.cpp</text>
</a>
</g>
</g>
<!-- Node65&#45;&gt;Node85 -->
<g id="edge21" class="edge">
<title>Node65&#45;&gt;Node85</title>
<path fill="none" stroke="midnightblue" d="M1400.53,-197.41C1424.64,-187.03 1454.45,-174.2 1476.8,-164.58"/>
<polygon fill="midnightblue" stroke="midnightblue" points="1399.07,-194.23 1391.26,-201.4 1401.83,-200.66 1399.07,-194.23"/>
</g>
<!-- Node86 -->
<g id="node22" class="node">
<title>Node86</title>
<g id="a_node22"><a xlink:href="DWARFDebugInfoEntry_8cpp.html" target="_top" xlink:title="lib/DebugInfo/DWARF\l/DWARFDebugInfoEntry.cpp">
<polygon fill="none" stroke="black" points="1595.5,-134.5 1595.5,-164.5 1739.5,-164.5 1739.5,-134.5 1595.5,-134.5"/>
<text text-anchor="start" x="1603.5" y="-152.5" font-family="Helvetica,sans-Serif" font-size="10.00">lib/DebugInfo/DWARF</text>
<text text-anchor="middle" x="1667.5" y="-141.5" font-family="Helvetica,sans-Serif" font-size="10.00">/DWARFDebugInfoEntry.cpp</text>
</a>
</g>
</g>
<!-- Node65&#45;&gt;Node86 -->
<g id="edge22" class="edge">
<title>Node65&#45;&gt;Node86</title>
<path fill="none" stroke="midnightblue" d="M1435.12,-199.38C1485.95,-188.69 1552,-174.8 1600.69,-164.55"/>
<polygon fill="midnightblue" stroke="midnightblue" points="1434.23,-195.99 1425.17,-201.48 1435.67,-202.84 1434.23,-195.99"/>
</g>
<!-- Node87 -->
<g id="node23" class="node">
<title>Node87</title>
<g id="a_node23"><a xlink:href="DWARFTypeUnit_8cpp.html" target="_top" xlink:title="lib/DebugInfo/DWARF\l/DWARFTypeUnit.cpp">
<polygon fill="none" stroke="black" points="1757.5,-134.5 1757.5,-164.5 1873.5,-164.5 1873.5,-134.5 1757.5,-134.5"/>
<text text-anchor="start" x="1765.5" y="-152.5" font-family="Helvetica,sans-Serif" font-size="10.00">lib/DebugInfo/DWARF</text>
<text text-anchor="middle" x="1815.5" y="-141.5" font-family="Helvetica,sans-Serif" font-size="10.00">/DWARFTypeUnit.cpp</text>
</a>
</g>
</g>
<!-- Node65&#45;&gt;Node87 -->
<g id="edge23" class="edge">
<title>Node65&#45;&gt;Node87</title>
<path fill="none" stroke="midnightblue" d="M1451.31,-205.71C1530.53,-196.83 1647.37,-182.46 1748.5,-165 1751.43,-164.49 1754.43,-163.95 1757.45,-163.38"/>
<polygon fill="midnightblue" stroke="midnightblue" points="1450.9,-202.24 1441.35,-206.82 1451.68,-209.19 1450.9,-202.24"/>
</g>
<!-- Node67 -->
<g id="node3" class="node">
<title>Node67</title>
<g id="a_node3"><a xlink:href="DWARFLinker_8h.html" target="_top" xlink:title="include/llvm/DWARFLinker\l/DWARFLinker.h">
<polygon fill="none" stroke="black" points="133,-62 133,-92 268,-92 268,-62 133,-62"/>
<text text-anchor="start" x="141" y="-80" font-family="Helvetica,sans-Serif" font-size="10.00">include/llvm/DWARFLinker</text>
<text text-anchor="middle" x="200.5" y="-69" font-family="Helvetica,sans-Serif" font-size="10.00">/DWARFLinker.h</text>
</a>
</g>
</g>
<!-- Node66&#45;&gt;Node67 -->
<g id="edge2" class="edge">
<title>Node66&#45;&gt;Node67</title>
<path fill="none" stroke="midnightblue" d="M1087.05,-146.01C898.31,-139.83 431.37,-122.51 276.5,-98 267.2,-96.53 257.39,-94.4 248.03,-92.07"/>
<polygon fill="midnightblue" stroke="midnightblue" points="1087.07,-149.51 1097.18,-146.34 1087.3,-142.52 1087.07,-149.51"/>
</g>
<!-- Node66&#45;&gt;Node69 -->
<g id="edge4" class="edge">
<title>Node66&#45;&gt;Node69</title>
<path fill="none" stroke="midnightblue" d="M1087.32,-147.17C876.18,-143.26 308.44,-129.99 123.5,-98 115.24,-96.57 106.56,-94.43 98.32,-92.07"/>
<polygon fill="midnightblue" stroke="midnightblue" points="1087.34,-150.67 1097.4,-147.35 1087.46,-143.67 1087.34,-150.67"/>
</g>
<!-- Node70 -->
<g id="node6" class="node">
<title>Node70</title>
<g id="a_node6"><a xlink:href="DWARFDataExtractor_8cpp.html" target="_top" xlink:title="lib/DebugInfo/DWARF\l/DWARFDataExtractor.cpp">
<polygon fill="none" stroke="black" points="286,-62 286,-92 423,-92 423,-62 286,-62"/>
<text text-anchor="start" x="294" y="-80" font-family="Helvetica,sans-Serif" font-size="10.00">lib/DebugInfo/DWARF</text>
<text text-anchor="middle" x="354.5" y="-69" font-family="Helvetica,sans-Serif" font-size="10.00">/DWARFDataExtractor.cpp</text>
</a>
</g>
</g>
<!-- Node66&#45;&gt;Node70 -->
<g id="edge5" class="edge">
<title>Node66&#45;&gt;Node70</title>
<path fill="none" stroke="midnightblue" d="M1087.04,-147.76C951.25,-145.44 668.33,-136.01 432.5,-98 423.11,-96.49 413.21,-94.37 403.73,-92.07"/>
<polygon fill="midnightblue" stroke="midnightblue" points="1087.29,-151.26 1097.35,-147.92 1087.4,-144.26 1087.29,-151.26"/>
</g>
<!-- Node71 -->
<g id="node7" class="node">
<title>Node71</title>
<g id="a_node7"><a xlink:href="DWARFDebugAranges_8cpp.html" target="_top" xlink:title="lib/DebugInfo/DWARF\l/DWARFDebugAranges.cpp">
<polygon fill="none" stroke="black" points="441.5,-62 441.5,-92 581.5,-92 581.5,-62 441.5,-62"/>
<text text-anchor="start" x="449.5" y="-80" font-family="Helvetica,sans-Serif" font-size="10.00">lib/DebugInfo/DWARF</text>
<text text-anchor="middle" x="511.5" y="-69" font-family="Helvetica,sans-Serif" font-size="10.00">/DWARFDebugAranges.cpp</text>
</a>
</g>
</g>
<!-- Node66&#45;&gt;Node71 -->
<g id="edge6" class="edge">
<title>Node66&#45;&gt;Node71</title>
<path fill="none" stroke="midnightblue" d="M1087.12,-145.54C975.15,-140.5 766.21,-127.73 590.5,-98 581.15,-96.42 571.29,-94.29 561.82,-92.02"/>
<polygon fill="midnightblue" stroke="midnightblue" points="1087.17,-149.05 1097.32,-145.99 1087.48,-142.06 1087.17,-149.05"/>
</g>
<!-- Node72 -->
<g id="node8" class="node">
<title>Node72</title>
<g id="a_node8"><a xlink:href="DWARFDebugLoc_8cpp.html" target="_top" xlink:title="lib/DebugInfo/DWARF\l/DWARFDebugLoc.cpp">
<polygon fill="none" stroke="black" points="599.5,-62 599.5,-92 719.5,-92 719.5,-62 599.5,-62"/>
<text text-anchor="start" x="607.5" y="-80" font-family="Helvetica,sans-Serif" font-size="10.00">lib/DebugInfo/DWARF</text>
<text text-anchor="middle" x="659.5" y="-69" font-family="Helvetica,sans-Serif" font-size="10.00">/DWARFDebugLoc.cpp</text>
</a>
</g>
</g>
<!-- Node66&#45;&gt;Node72 -->
<g id="edge7" class="edge">
<title>Node66&#45;&gt;Node72</title>
<path fill="none" stroke="midnightblue" d="M1087.13,-143.31C998.62,-136.66 852.4,-122.9 728.5,-98 720.43,-96.38 711.93,-94.26 703.77,-92.02"/>
<polygon fill="midnightblue" stroke="midnightblue" points="1087.14,-146.82 1097.37,-144.07 1087.65,-139.84 1087.14,-146.82"/>
</g>
<!-- Node73 -->
<g id="node9" class="node">
<title>Node73</title>
<g id="a_node9"><a xlink:href="DWARFDebugRangeList_8cpp.html" target="_top" xlink:title="lib/DebugInfo/DWARF\l/DWARFDebugRangeList.cpp">
<polygon fill="none" stroke="black" points="738,-62 738,-92 887,-92 887,-62 738,-62"/>
<text text-anchor="start" x="746" y="-80" font-family="Helvetica,sans-Serif" font-size="10.00">lib/DebugInfo/DWARF</text>
<text text-anchor="middle" x="812.5" y="-69" font-family="Helvetica,sans-Serif" font-size="10.00">/DWARFDebugRangeList.cpp</text>
</a>
</g>
</g>
<!-- Node66&#45;&gt;Node73 -->
<g id="edge8" class="edge">
<title>Node66&#45;&gt;Node73</title>
<path fill="none" stroke="midnightblue" d="M1087.51,-134.8C1033.2,-125.21 959.84,-111.72 895.5,-98 886.95,-96.18 877.93,-94.13 869.11,-92.06"/>
<polygon fill="midnightblue" stroke="midnightblue" points="1086.96,-138.25 1097.42,-136.54 1088.18,-131.36 1086.96,-138.25"/>
</g>
<!-- Node74 -->
<g id="node10" class="node">
<title>Node74</title>
<g id="a_node10"><a xlink:href="DWARFDie_8cpp.html" target="_top" xlink:title="lib/DebugInfo/DWARF\l/DWARFDie.cpp">
<polygon fill="none" stroke="black" points="905,-62 905,-92 1020,-92 1020,-62 905,-62"/>
<text text-anchor="start" x="913" y="-80" font-family="Helvetica,sans-Serif" font-size="10.00">lib/DebugInfo/DWARF</text>
<text text-anchor="middle" x="962.5" y="-69" font-family="Helvetica,sans-Serif" font-size="10.00">/DWARFDie.cpp</text>
</a>
</g>
</g>
<!-- Node66&#45;&gt;Node74 -->
<g id="edge9" class="edge">
<title>Node66&#45;&gt;Node74</title>
<path fill="none" stroke="midnightblue" d="M1116.96,-131.12C1082,-119.1 1036.08,-103.31 1003.42,-92.07"/>
<polygon fill="midnightblue" stroke="midnightblue" points="1115.91,-134.46 1126.51,-134.4 1118.19,-127.84 1115.91,-134.46"/>
</g>
<!-- Node75 -->
<g id="node11" class="node">
<title>Node75</title>
<g id="a_node11"><a xlink:href="DWARFFormValue_8cpp.html" target="_top" xlink:title="lib/DebugInfo/DWARF\l/DWARFFormValue.cpp">
<polygon fill="none" stroke="black" points="1038,-62 1038,-92 1161,-92 1161,-62 1038,-62"/>
<text text-anchor="start" x="1046" y="-80" font-family="Helvetica,sans-Serif" font-size="10.00">lib/DebugInfo/DWARF</text>
<text text-anchor="middle" x="1099.5" y="-69" font-family="Helvetica,sans-Serif" font-size="10.00">/DWARFFormValue.cpp</text>
</a>
</g>
</g>
<!-- Node66&#45;&gt;Node75 -->
<g id="edge10" class="edge">
<title>Node66&#45;&gt;Node75</title>
<path fill="none" stroke="midnightblue" d="M1146.63,-126.86C1135.78,-115.61 1122.82,-102.18 1113.24,-92.25"/>
<polygon fill="midnightblue" stroke="midnightblue" points="1144.28,-129.47 1153.74,-134.23 1149.32,-124.61 1144.28,-129.47"/>
</g>
<!-- Node66&#45;&gt;Node76 -->
<g id="edge11" class="edge">
<title>Node66&#45;&gt;Node76</title>
<path fill="none" stroke="midnightblue" d="M1247.62,-134.42C1248.92,-134.27 1250.22,-134.13 1251.5,-134 1702.71,-87.31 1824.03,-172.4 2271.5,-98 2279.89,-96.61 2288.7,-94.45 2297.05,-92.05"/>
<polygon fill="midnightblue" stroke="midnightblue" points="1247.02,-130.97 1237.53,-135.68 1247.88,-137.92 1247.02,-130.97"/>
</g>
<!-- Node77 -->
<g id="node13" class="node">
<title>Node77</title>
<g id="a_node13"><a xlink:href="DWARFVerifier_8cpp.html" target="_top" xlink:title="lib/DebugInfo/DWARF\l/DWARFVerifier.cpp">
<polygon fill="none" stroke="black" points="1179,-62 1179,-92 1294,-92 1294,-62 1179,-62"/>
<text text-anchor="start" x="1187" y="-80" font-family="Helvetica,sans-Serif" font-size="10.00">lib/DebugInfo/DWARF</text>
<text text-anchor="middle" x="1236.5" y="-69" font-family="Helvetica,sans-Serif" font-size="10.00">/DWARFVerifier.cpp</text>
</a>
</g>
</g>
<!-- Node66&#45;&gt;Node77 -->
<g id="edge12" class="edge">
<title>Node66&#45;&gt;Node77</title>
<path fill="none" stroke="midnightblue" d="M1188.68,-126.86C1199.69,-115.61 1212.84,-102.18 1222.56,-92.25"/>
<polygon fill="midnightblue" stroke="midnightblue" points="1185.96,-124.64 1181.46,-134.23 1190.96,-129.53 1185.96,-124.64"/>
</g>
<!-- Node78 -->
<g id="node14" class="node">
<title>Node78</title>
<g id="a_node14"><a xlink:href="SymbolizableObjectFile_8cpp.html" target="_top" xlink:title="lib/DebugInfo/Symbolize\l/SymbolizableObjectFile.cpp">
<polygon fill="none" stroke="black" points="1312,-62 1312,-92 1453,-92 1453,-62 1312,-62"/>
<text text-anchor="start" x="1320" y="-80" font-family="Helvetica,sans-Serif" font-size="10.00">lib/DebugInfo/Symbolize</text>
<text text-anchor="middle" x="1382.5" y="-69" font-family="Helvetica,sans-Serif" font-size="10.00">/SymbolizableObjectFile.cpp</text>
</a>
</g>
</g>
<!-- Node66&#45;&gt;Node78 -->
<g id="edge13" class="edge">
<title>Node66&#45;&gt;Node78</title>
<path fill="none" stroke="midnightblue" d="M1219.78,-131.36C1256.49,-119.32 1305,-103.41 1339.48,-92.11"/>
<polygon fill="midnightblue" stroke="midnightblue" points="1218.65,-128.05 1210.23,-134.49 1220.83,-134.7 1218.65,-128.05"/>
</g>
<!-- Node79 -->
<g id="node15" class="node">
<title>Node79</title>
<g id="a_node15"><a xlink:href="Symbolize_8cpp.html" target="_top" xlink:title="lib/DebugInfo/Symbolize\l/Symbolize.cpp">
<polygon fill="none" stroke="black" points="1471,-62 1471,-92 1594,-92 1594,-62 1471,-62"/>
<text text-anchor="start" x="1479" y="-80" font-family="Helvetica,sans-Serif" font-size="10.00">lib/DebugInfo/Symbolize</text>
<text text-anchor="middle" x="1532.5" y="-69" font-family="Helvetica,sans-Serif" font-size="10.00">/Symbolize.cpp</text>
</a>
</g>
</g>
<!-- Node66&#45;&gt;Node79 -->
<g id="edge14" class="edge">
<title>Node66&#45;&gt;Node79</title>
<path fill="none" stroke="midnightblue" d="M1247.65,-134.66C1248.95,-134.44 1250.23,-134.22 1251.5,-134 1345.26,-117.91 1369.74,-119.1 1462.5,-98 1470.14,-96.26 1478.19,-94.19 1485.99,-92.05"/>
<polygon fill="midnightblue" stroke="midnightblue" points="1246.89,-131.24 1237.62,-136.38 1248.07,-138.14 1246.89,-131.24"/>
</g>
<!-- Node80 -->
<g id="node16" class="node">
<title>Node80</title>
<g id="a_node16"><a xlink:href="DWARFLinkerDeclContext_8cpp.html" target="_top" xlink:title="lib/DWARFLinker/DWARFLinker\lDeclContext.cpp">
<polygon fill="none" stroke="black" points="1612.5,-62 1612.5,-92 1772.5,-92 1772.5,-62 1612.5,-62"/>
<text text-anchor="start" x="1620.5" y="-80" font-family="Helvetica,sans-Serif" font-size="10.00">lib/DWARFLinker/DWARFLinker</text>
<text text-anchor="middle" x="1692.5" y="-69" font-family="Helvetica,sans-Serif" font-size="10.00">DeclContext.cpp</text>
</a>
</g>
</g>
<!-- Node66&#45;&gt;Node80 -->
<g id="edge15" class="edge">
<title>Node66&#45;&gt;Node80</title>
<path fill="none" stroke="midnightblue" d="M1247.64,-134.54C1248.93,-134.36 1250.22,-134.18 1251.5,-134 1407.3,-112.61 1448.29,-123.28 1603.5,-98 1613.66,-96.34 1624.4,-94.24 1634.77,-92.02"/>
<polygon fill="midnightblue" stroke="midnightblue" points="1246.95,-131.1 1237.57,-136.03 1247.98,-138.03 1246.95,-131.1"/>
</g>
<!-- Node81 -->
<g id="node17" class="node">
<title>Node81</title>
<g id="a_node17"><a xlink:href="IntelJITEventListener_8cpp.html" target="_top" xlink:title="lib/ExecutionEngine\l/IntelJITEvents/IntelJITEvent\lListener.cpp">
<polygon fill="none" stroke="black" points="1791,-56.5 1791,-97.5 1936,-97.5 1936,-56.5 1791,-56.5"/>
<text text-anchor="start" x="1799" y="-85.5" font-family="Helvetica,sans-Serif" font-size="10.00">lib/ExecutionEngine</text>
<text text-anchor="start" x="1799" y="-74.5" font-family="Helvetica,sans-Serif" font-size="10.00">/IntelJITEvents/IntelJITEvent</text>
<text text-anchor="middle" x="1863.5" y="-63.5" font-family="Helvetica,sans-Serif" font-size="10.00">Listener.cpp</text>
</a>
</g>
</g>
<!-- Node66&#45;&gt;Node81 -->
<g id="edge16" class="edge">
<title>Node66&#45;&gt;Node81</title>
<path fill="none" stroke="midnightblue" d="M1247.63,-134.48C1248.93,-134.31 1250.22,-134.15 1251.5,-134 1485.92,-105.88 1548.18,-134.11 1781.5,-98 1784.54,-97.53 1787.63,-97 1790.75,-96.43"/>
<polygon fill="midnightblue" stroke="midnightblue" points="1246.98,-131.03 1237.55,-135.85 1247.93,-137.97 1246.98,-131.03"/>
</g>
<!-- Node82 -->
<g id="node18" class="node">
<title>Node82</title>
<g id="a_node18"><a xlink:href="OProfileJITEventListener_8cpp.html" target="_top" xlink:title="lib/ExecutionEngine\l/OProfileJIT/OProfileJITEvent\lListener.cpp">
<polygon fill="none" stroke="black" points="1954,-56.5 1954,-97.5 2101,-97.5 2101,-56.5 1954,-56.5"/>
<text text-anchor="start" x="1962" y="-85.5" font-family="Helvetica,sans-Serif" font-size="10.00">lib/ExecutionEngine</text>
<text text-anchor="start" x="1962" y="-74.5" font-family="Helvetica,sans-Serif" font-size="10.00">/OProfileJIT/OProfileJITEvent</text>
<text text-anchor="middle" x="2027.5" y="-63.5" font-family="Helvetica,sans-Serif" font-size="10.00">Listener.cpp</text>
</a>
</g>
</g>
<!-- Node66&#45;&gt;Node82 -->
<g id="edge17" class="edge">
<title>Node66&#45;&gt;Node82</title>
<path fill="none" stroke="midnightblue" d="M1247.63,-134.45C1248.93,-134.29 1250.22,-134.14 1251.5,-134 1558.45,-99.67 1639.91,-142.79 1945.5,-98 1948.25,-97.6 1951.05,-97.14 1953.87,-96.65"/>
<polygon fill="midnightblue" stroke="midnightblue" points="1247,-131 1237.54,-135.77 1247.91,-137.94 1247,-131"/>
</g>
<!-- Node83 -->
<g id="node19" class="node">
<title>Node83</title>
<g id="a_node19"><a xlink:href="PerfJITEventListener_8cpp.html" target="_top" xlink:title="lib/ExecutionEngine\l/PerfJITEvents/PerfJITEvent\lListener.cpp">
<polygon fill="none" stroke="black" points="2119,-56.5 2119,-97.5 2262,-97.5 2262,-56.5 2119,-56.5"/>
<text text-anchor="start" x="2127" y="-85.5" font-family="Helvetica,sans-Serif" font-size="10.00">lib/ExecutionEngine</text>
<text text-anchor="start" x="2127" y="-74.5" font-family="Helvetica,sans-Serif" font-size="10.00">/PerfJITEvents/PerfJITEvent</text>
<text text-anchor="middle" x="2190.5" y="-63.5" font-family="Helvetica,sans-Serif" font-size="10.00">Listener.cpp</text>
</a>
</g>
</g>
<!-- Node66&#45;&gt;Node83 -->
<g id="edge18" class="edge">
<title>Node66&#45;&gt;Node83</title>
<path fill="none" stroke="midnightblue" d="M1247.62,-134.43C1248.92,-134.28 1250.22,-134.14 1251.5,-134 1631.45,-93.42 1732.31,-152.62 2110.5,-98 2113.19,-97.61 2115.93,-97.17 2118.68,-96.69"/>
<polygon fill="midnightblue" stroke="midnightblue" points="1247.01,-130.98 1237.53,-135.72 1247.89,-137.93 1247.01,-130.98"/>
</g>
<!-- Node68 -->
<g id="node4" class="node">
<title>Node68</title>
<g id="a_node4"><a xlink:href="DWARFLinker_8cpp.html" target="_top" xlink:title="lib/DWARFLinker/DWARFLinker.cpp">
<polygon fill="none" stroke="black" points="111,-0.5 111,-19.5 290,-19.5 290,-0.5 111,-0.5"/>
<text text-anchor="middle" x="200.5" y="-7.5" font-family="Helvetica,sans-Serif" font-size="10.00">lib/DWARFLinker/DWARFLinker.cpp</text>
</a>
</g>
</g>
<!-- Node67&#45;&gt;Node68 -->
<g id="edge3" class="edge">
<title>Node67&#45;&gt;Node68</title>
<path fill="none" stroke="midnightblue" d="M200.5,-51.75C200.5,-40.52 200.5,-27.88 200.5,-19.69"/>
<polygon fill="midnightblue" stroke="midnightblue" points="197,-51.9 200.5,-61.9 204,-51.9 197,-51.9"/>
</g>
</g>
</svg>
