<?xml version="1.0" encoding="UTF-8" standalone="no"?>
<!DOCTYPE svg PUBLIC "-//W3C//DTD SVG 1.1//EN"
 "http://www.w3.org/Graphics/SVG/1.1/DTD/svg11.dtd">
<!-- Generated by graphviz version 2.43.0 (0)
 -->
<!-- Title: include/llvm/DebugInfo/DWARF/DWARFDebugInfoEntry.h Pages: 1 -->
<svg width="2409pt" height="508pt"
 viewBox="0.00 0.00 2408.50 508.00" xmlns="http://www.w3.org/2000/svg" xmlns:xlink="http://www.w3.org/1999/xlink">
<g id="graph0" class="graph" transform="scale(1 1) rotate(0) translate(4 504)">
<title>include/llvm/DebugInfo/DWARF/DWARFDebugInfoEntry.h</title>
<!-- Node66 -->
<g id="node1" class="node">
<title>Node66</title>
<polygon fill="#bfbfbf" stroke="black" points="2008,-469.5 2008,-499.5 2182,-499.5 2182,-469.5 2008,-469.5"/>
<text text-anchor="start" x="2016" y="-487.5" font-family="Helvetica,sans-Serif" font-size="10.00">include/llvm/DebugInfo</text>
<text text-anchor="middle" x="2095" y="-476.5" font-family="Helvetica,sans-Serif" font-size="10.00">/DWARF/DWARFDebugInfoEntry.h</text>
</g>
<!-- Node67 -->
<g id="node2" class="node">
<title>Node67</title>
<g id="a_node2"><a xlink:href="DWARFDie_8h.html" target="_top" xlink:title="include/llvm/DebugInfo\l/DWARF/DWARFDie.h">
<polygon fill="none" stroke="black" points="488.5,-402.5 488.5,-432.5 609.5,-432.5 609.5,-402.5 488.5,-402.5"/>
<text text-anchor="start" x="496.5" y="-420.5" font-family="Helvetica,sans-Serif" font-size="10.00">include/llvm/DebugInfo</text>
<text text-anchor="middle" x="549" y="-409.5" font-family="Helvetica,sans-Serif" font-size="10.00">/DWARF/DWARFDie.h</text>
</a>
</g>
</g>
<!-- Node66&#45;&gt;Node67 -->
<g id="edge1" class="edge">
<title>Node66&#45;&gt;Node67</title>
<path fill="none" stroke="midnightblue" d="M1997.6,-479.4C1706.02,-467.15 845.68,-430.97 609.55,-421.05"/>
<polygon fill="midnightblue" stroke="midnightblue" points="1997.59,-482.91 2007.73,-479.83 1997.89,-475.91 1997.59,-482.91"/>
</g>
<!-- Node78 -->
<g id="node13" class="node">
<title>Node78</title>
<g id="a_node13"><a xlink:href="DWARFUnit_8cpp.html" target="_top" xlink:title="lib/DebugInfo/DWARF\l/DWARFUnit.cpp">
<polygon fill="none" stroke="black" points="2285.5,-62 2285.5,-92 2400.5,-92 2400.5,-62 2285.5,-62"/>
<text text-anchor="start" x="2293.5" y="-80" font-family="Helvetica,sans-Serif" font-size="10.00">lib/DebugInfo/DWARF</text>
<text text-anchor="middle" x="2343" y="-69" font-family="Helvetica,sans-Serif" font-size="10.00">/DWARFUnit.cpp</text>
</a>
</g>
</g>
<!-- Node66&#45;&gt;Node78 -->
<g id="edge70" class="edge">
<title>Node66&#45;&gt;Node78</title>
<path fill="none" stroke="midnightblue" d="M2192.31,-477.96C2275.55,-467.32 2382,-437.01 2382,-351.5 2382,-351.5 2382,-351.5 2382,-215.5 2382,-168.85 2360.97,-116.56 2349.79,-92.08"/>
<polygon fill="midnightblue" stroke="midnightblue" points="2191.79,-474.49 2182.28,-479.16 2192.62,-481.44 2191.79,-474.49"/>
</g>
<!-- Node86 -->
<g id="node21" class="node">
<title>Node86</title>
<g id="a_node21"><a xlink:href="DWARFUnit_8h.html" target="_top" xlink:title="include/llvm/DebugInfo\l/DWARF/DWARFUnit.h">
<polygon fill="none" stroke="black" points="1536,-335.5 1536,-365.5 1660,-365.5 1660,-335.5 1536,-335.5"/>
<text text-anchor="start" x="1544" y="-353.5" font-family="Helvetica,sans-Serif" font-size="10.00">include/llvm/DebugInfo</text>
<text text-anchor="middle" x="1598" y="-342.5" font-family="Helvetica,sans-Serif" font-size="10.00">/DWARF/DWARFUnit.h</text>
</a>
</g>
</g>
<!-- Node66&#45;&gt;Node86 -->
<g id="edge68" class="edge">
<title>Node66&#45;&gt;Node86</title>
<path fill="none" stroke="midnightblue" d="M2032.44,-466.88C1933.66,-440.65 1743.33,-390.1 1650.92,-365.56"/>
<polygon fill="midnightblue" stroke="midnightblue" points="2031.72,-470.31 2042.28,-469.5 2033.52,-463.55 2031.72,-470.31"/>
</g>
<!-- Node98 -->
<g id="node33" class="node">
<title>Node98</title>
<g id="a_node33"><a xlink:href="DWARFDebugInfoEntry_8cpp.html" target="_top" xlink:title="lib/DebugInfo/DWARF\l/DWARFDebugInfoEntry.cpp">
<polygon fill="none" stroke="black" points="2210,-268.5 2210,-298.5 2354,-298.5 2354,-268.5 2210,-268.5"/>
<text text-anchor="start" x="2218" y="-286.5" font-family="Helvetica,sans-Serif" font-size="10.00">lib/DebugInfo/DWARF</text>
<text text-anchor="middle" x="2282" y="-275.5" font-family="Helvetica,sans-Serif" font-size="10.00">/DWARFDebugInfoEntry.cpp</text>
</a>
</g>
</g>
<!-- Node66&#45;&gt;Node98 -->
<g id="edge69" class="edge">
<title>Node66&#45;&gt;Node98</title>
<path fill="none" stroke="midnightblue" d="M2115.32,-461.88C2153.8,-420.92 2236.39,-333.04 2268.67,-298.68"/>
<polygon fill="midnightblue" stroke="midnightblue" points="2112.75,-459.5 2108.45,-469.19 2117.85,-464.3 2112.75,-459.5"/>
</g>
<!-- Node68 -->
<g id="node3" class="node">
<title>Node68</title>
<g id="a_node3"><a xlink:href="DWARFContext_8h.html" target="_top" xlink:title="include/llvm/DebugInfo\l/DWARF/DWARFContext.h">
<polygon fill="none" stroke="black" points="1061,-134.5 1061,-164.5 1201,-164.5 1201,-134.5 1061,-134.5"/>
<text text-anchor="start" x="1069" y="-152.5" font-family="Helvetica,sans-Serif" font-size="10.00">include/llvm/DebugInfo</text>
<text text-anchor="middle" x="1131" y="-141.5" font-family="Helvetica,sans-Serif" font-size="10.00">/DWARF/DWARFContext.h</text>
</a>
</g>
</g>
<!-- Node67&#45;&gt;Node68 -->
<g id="edge2" class="edge">
<title>Node67&#45;&gt;Node68</title>
<path fill="none" stroke="midnightblue" d="M619.64,-402.93C721.92,-380.66 913.77,-328.85 1049,-232 1077.07,-211.9 1104.44,-182.02 1119.37,-164.57"/>
<polygon fill="midnightblue" stroke="midnightblue" points="618.77,-399.53 609.72,-405.05 620.24,-406.38 618.77,-399.53"/>
</g>
<!-- Node71 -->
<g id="node6" class="node">
<title>Node71</title>
<g id="a_node6"><a xlink:href="DWARFContext_8cpp.html" target="_top" xlink:title="lib/DebugInfo/DWARF\l/DWARFContext.cpp">
<polygon fill="none" stroke="black" points="183.5,-62 183.5,-92 298.5,-92 298.5,-62 183.5,-62"/>
<text text-anchor="start" x="191.5" y="-80" font-family="Helvetica,sans-Serif" font-size="10.00">lib/DebugInfo/DWARF</text>
<text text-anchor="middle" x="241" y="-69" font-family="Helvetica,sans-Serif" font-size="10.00">/DWARFContext.cpp</text>
</a>
</g>
</g>
<!-- Node67&#45;&gt;Node71 -->
<g id="edge62" class="edge">
<title>Node67&#45;&gt;Node71</title>
<path fill="none" stroke="midnightblue" d="M477.95,-407.92C362.76,-392.02 148,-353.16 148,-284.5 148,-284.5 148,-284.5 148,-215.5 148,-178.31 146.74,-165.19 167,-134 178.58,-116.16 197.9,-101.83 213.89,-92.13"/>
<polygon fill="midnightblue" stroke="midnightblue" points="477.72,-411.43 488.1,-409.3 478.66,-404.49 477.72,-411.43"/>
</g>
<!-- Node76 -->
<g id="node11" class="node">
<title>Node76</title>
<g id="a_node11"><a xlink:href="DWARFDie_8cpp.html" target="_top" xlink:title="lib/DebugInfo/DWARF\l/DWARFDie.cpp">
<polygon fill="none" stroke="black" points="602.5,-62 602.5,-92 717.5,-92 717.5,-62 602.5,-62"/>
<text text-anchor="start" x="610.5" y="-80" font-family="Helvetica,sans-Serif" font-size="10.00">lib/DebugInfo/DWARF</text>
<text text-anchor="middle" x="660" y="-69" font-family="Helvetica,sans-Serif" font-size="10.00">/DWARFDie.cpp</text>
</a>
</g>
</g>
<!-- Node67&#45;&gt;Node76 -->
<g id="edge63" class="edge">
<title>Node67&#45;&gt;Node76</title>
<path fill="none" stroke="midnightblue" d="M540.82,-392.74C527.92,-350.71 507.81,-261.96 544,-201 561.06,-172.27 586.11,-188.36 610,-165 631.8,-143.68 647.16,-110.86 654.7,-92.22"/>
<polygon fill="midnightblue" stroke="midnightblue" points="537.53,-393.92 543.91,-402.37 544.19,-391.78 537.53,-393.92"/>
</g>
<!-- Node67&#45;&gt;Node78 -->
<g id="edge65" class="edge">
<title>Node67&#45;&gt;Node78</title>
<path fill="none" stroke="midnightblue" d="M619.87,-414.54C933.6,-405.41 2182,-364.08 2182,-284.5 2182,-284.5 2182,-284.5 2182,-215.5 2182,-152.09 2255.1,-111.71 2302.79,-92.11"/>
<polygon fill="midnightblue" stroke="midnightblue" points="619.44,-411.05 609.54,-414.84 619.64,-418.05 619.44,-411.05"/>
</g>
<!-- Node79 -->
<g id="node14" class="node">
<title>Node79</title>
<g id="a_node14"><a xlink:href="DWARFVerifier_8cpp.html" target="_top" xlink:title="lib/DebugInfo/DWARF\l/DWARFVerifier.cpp">
<polygon fill="none" stroke="black" points="316.5,-62 316.5,-92 431.5,-92 431.5,-62 316.5,-62"/>
<text text-anchor="start" x="324.5" y="-80" font-family="Helvetica,sans-Serif" font-size="10.00">lib/DebugInfo/DWARF</text>
<text text-anchor="middle" x="374" y="-69" font-family="Helvetica,sans-Serif" font-size="10.00">/DWARFVerifier.cpp</text>
</a>
</g>
</g>
<!-- Node67&#45;&gt;Node79 -->
<g id="edge66" class="edge">
<title>Node67&#45;&gt;Node79</title>
<path fill="none" stroke="midnightblue" d="M535.5,-393.64C531.12,-385.22 526.7,-375.43 524,-366 509.72,-316.2 531.4,-175.95 501,-134 490.61,-119.66 450.27,-103.32 417.81,-92.01"/>
<polygon fill="midnightblue" stroke="midnightblue" points="532.46,-395.38 540.33,-402.47 538.61,-392.02 532.46,-395.38"/>
</g>
<!-- Node82 -->
<g id="node17" class="node">
<title>Node82</title>
<g id="a_node17"><a xlink:href="DWARFLinkerDeclContext_8cpp.html" target="_top" xlink:title="lib/DWARFLinker/DWARFLinker\lDeclContext.cpp">
<polygon fill="none" stroke="black" points="0,-62 0,-92 160,-92 160,-62 0,-62"/>
<text text-anchor="start" x="8" y="-80" font-family="Helvetica,sans-Serif" font-size="10.00">lib/DWARFLinker/DWARFLinker</text>
<text text-anchor="middle" x="80" y="-69" font-family="Helvetica,sans-Serif" font-size="10.00">DeclContext.cpp</text>
</a>
</g>
</g>
<!-- Node67&#45;&gt;Node82 -->
<g id="edge67" class="edge">
<title>Node67&#45;&gt;Node82</title>
<path fill="none" stroke="midnightblue" d="M478.12,-413.1C336.92,-404.38 34,-375.11 34,-284.5 34,-284.5 34,-284.5 34,-215.5 34,-168.43 58.54,-116.76 71.78,-92.32"/>
<polygon fill="midnightblue" stroke="midnightblue" points="478.22,-416.61 488.41,-413.71 478.64,-409.62 478.22,-416.61"/>
</g>
<!-- Node67&#45;&gt;Node86 -->
<g id="edge20" class="edge">
<title>Node67&#45;&gt;Node86</title>
<path fill="none" stroke="midnightblue" d="M619.63,-412.12C813.61,-400.1 1352.33,-366.72 1535.84,-355.35"/>
<polygon fill="midnightblue" stroke="midnightblue" points="619.31,-408.64 609.55,-412.75 619.75,-415.62 619.31,-408.64"/>
</g>
<!-- Node90 -->
<g id="node25" class="node">
<title>Node90</title>
<g id="a_node25"><a xlink:href="DWARFCompileUnit_8cpp.html" target="_top" xlink:title="lib/DebugInfo/DWARF\l/DWARFCompileUnit.cpp">
<polygon fill="none" stroke="black" points="553,-201.5 553,-231.5 683,-231.5 683,-201.5 553,-201.5"/>
<text text-anchor="start" x="561" y="-219.5" font-family="Helvetica,sans-Serif" font-size="10.00">lib/DebugInfo/DWARF</text>
<text text-anchor="middle" x="618" y="-208.5" font-family="Helvetica,sans-Serif" font-size="10.00">/DWARFCompileUnit.cpp</text>
</a>
</g>
</g>
<!-- Node67&#45;&gt;Node90 -->
<g id="edge61" class="edge">
<title>Node67&#45;&gt;Node90</title>
<path fill="none" stroke="midnightblue" d="M557.31,-392.53C571.83,-350.65 601.39,-265.4 613.08,-231.68"/>
<polygon fill="midnightblue" stroke="midnightblue" points="553.93,-391.59 553.96,-402.19 560.55,-393.89 553.93,-391.59"/>
</g>
<!-- Node92 -->
<g id="node27" class="node">
<title>Node92</title>
<g id="a_node27"><a xlink:href="DWARFTypeUnit_8cpp.html" target="_top" xlink:title="lib/DebugInfo/DWARF\l/DWARFTypeUnit.cpp">
<polygon fill="none" stroke="black" points="1583,-201.5 1583,-231.5 1699,-231.5 1699,-201.5 1583,-201.5"/>
<text text-anchor="start" x="1591" y="-219.5" font-family="Helvetica,sans-Serif" font-size="10.00">lib/DebugInfo/DWARF</text>
<text text-anchor="middle" x="1641" y="-208.5" font-family="Helvetica,sans-Serif" font-size="10.00">/DWARFTypeUnit.cpp</text>
</a>
</g>
</g>
<!-- Node67&#45;&gt;Node92 -->
<g id="edge64" class="edge">
<title>Node67&#45;&gt;Node92</title>
<path fill="none" stroke="midnightblue" d="M620.04,-413.72C723.19,-408.8 920.1,-396.08 1085,-366 1196.05,-345.74 1229.64,-350.69 1330,-299 1349.38,-289.02 1348.2,-277.1 1368,-268 1450.46,-230.1 1479.84,-248.96 1569,-232 1573.51,-231.14 1578.17,-230.24 1582.86,-229.32"/>
<polygon fill="midnightblue" stroke="midnightblue" points="619.58,-410.24 609.75,-414.2 619.91,-417.23 619.58,-410.24"/>
</g>
<!-- Node94 -->
<g id="node29" class="node">
<title>Node94</title>
<g id="a_node29"><a xlink:href="DWARFLinkerDeclContext_8h.html" target="_top" xlink:title="include/llvm/DWARFLinker\l/DWARFLinkerDeclContext.h">
<polygon fill="none" stroke="black" points="238,-201.5 238,-231.5 384,-231.5 384,-201.5 238,-201.5"/>
<text text-anchor="start" x="246" y="-219.5" font-family="Helvetica,sans-Serif" font-size="10.00">include/llvm/DWARFLinker</text>
<text text-anchor="middle" x="311" y="-208.5" font-family="Helvetica,sans-Serif" font-size="10.00">/DWARFLinkerDeclContext.h</text>
</a>
</g>
</g>
<!-- Node67&#45;&gt;Node94 -->
<g id="edge60" class="edge">
<title>Node67&#45;&gt;Node94</title>
<path fill="none" stroke="midnightblue" d="M478.6,-403.91C420.63,-389.43 342.01,-359.38 304,-299 291.06,-278.45 298.53,-248.99 304.92,-231.69"/>
<polygon fill="midnightblue" stroke="midnightblue" points="477.9,-407.34 488.44,-406.27 479.53,-400.54 477.9,-407.34"/>
</g>
<!-- Node101 -->
<g id="node36" class="node">
<title>Node101</title>
<g id="a_node36"><a xlink:href="DWARFVerifier_8h.html" target="_top" xlink:title="include/llvm/DebugInfo\l/DWARF/DWARFVerifier.h">
<polygon fill="none" stroke="black" points="176.5,-134.5 176.5,-164.5 313.5,-164.5 313.5,-134.5 176.5,-134.5"/>
<text text-anchor="start" x="184.5" y="-152.5" font-family="Helvetica,sans-Serif" font-size="10.00">include/llvm/DebugInfo</text>
<text text-anchor="middle" x="245" y="-141.5" font-family="Helvetica,sans-Serif" font-size="10.00">/DWARF/DWARFVerifier.h</text>
</a>
</g>
</g>
<!-- Node67&#45;&gt;Node101 -->
<g id="edge57" class="edge">
<title>Node67&#45;&gt;Node101</title>
<path fill="none" stroke="midnightblue" d="M478.15,-411.82C433.83,-406.12 377.17,-393.57 334,-366 270.24,-325.27 253.68,-303.52 229,-232 221.1,-209.1 230.46,-181.16 237.83,-164.65"/>
<polygon fill="midnightblue" stroke="midnightblue" points="477.93,-415.31 488.27,-413.03 478.76,-408.36 477.93,-415.31"/>
</g>
<!-- Node69 -->
<g id="node4" class="node">
<title>Node69</title>
<g id="a_node4"><a xlink:href="DWARFLinker_8h.html" target="_top" xlink:title="include/llvm/DWARFLinker\l/DWARFLinker.h">
<polygon fill="none" stroke="black" points="449.5,-62 449.5,-92 584.5,-92 584.5,-62 449.5,-62"/>
<text text-anchor="start" x="457.5" y="-80" font-family="Helvetica,sans-Serif" font-size="10.00">include/llvm/DWARFLinker</text>
<text text-anchor="middle" x="517" y="-69" font-family="Helvetica,sans-Serif" font-size="10.00">/DWARFLinker.h</text>
</a>
</g>
</g>
<!-- Node68&#45;&gt;Node69 -->
<g id="edge3" class="edge">
<title>Node68&#45;&gt;Node69</title>
<path fill="none" stroke="midnightblue" d="M1050.85,-139.42C1033.75,-137.56 1015.78,-135.67 999,-134 818.73,-116.11 771.45,-129.16 593,-98 584,-96.43 574.5,-94.31 565.38,-92.04"/>
<polygon fill="midnightblue" stroke="midnightblue" points="1050.49,-142.9 1060.81,-140.51 1051.25,-135.95 1050.49,-142.9"/>
</g>
<!-- Node68&#45;&gt;Node71 -->
<g id="edge5" class="edge">
<title>Node68&#45;&gt;Node71</title>
<path fill="none" stroke="midnightblue" d="M1050.9,-138.96C1033.79,-137.13 1015.81,-135.36 999,-134 692.03,-109.18 610.37,-151.05 307,-98 298.74,-96.56 290.07,-94.41 281.82,-92.05"/>
<polygon fill="midnightblue" stroke="midnightblue" points="1050.53,-142.44 1060.85,-140.04 1051.29,-135.48 1050.53,-142.44"/>
</g>
<!-- Node72 -->
<g id="node7" class="node">
<title>Node72</title>
<g id="a_node7"><a xlink:href="DWARFDataExtractor_8cpp.html" target="_top" xlink:title="lib/DebugInfo/DWARF\l/DWARFDataExtractor.cpp">
<polygon fill="none" stroke="black" points="1383.5,-62 1383.5,-92 1520.5,-92 1520.5,-62 1383.5,-62"/>
<text text-anchor="start" x="1391.5" y="-80" font-family="Helvetica,sans-Serif" font-size="10.00">lib/DebugInfo/DWARF</text>
<text text-anchor="middle" x="1452" y="-69" font-family="Helvetica,sans-Serif" font-size="10.00">/DWARFDataExtractor.cpp</text>
</a>
</g>
</g>
<!-- Node68&#45;&gt;Node72 -->
<g id="edge6" class="edge">
<title>Node68&#45;&gt;Node72</title>
<path fill="none" stroke="midnightblue" d="M1211.11,-132.97C1258.83,-123.46 1320.53,-110.7 1375,-98 1382.94,-96.15 1391.3,-94.09 1399.48,-92.01"/>
<polygon fill="midnightblue" stroke="midnightblue" points="1210.27,-129.57 1201.15,-134.95 1211.64,-136.43 1210.27,-129.57"/>
</g>
<!-- Node73 -->
<g id="node8" class="node">
<title>Node73</title>
<g id="a_node8"><a xlink:href="DWARFDebugAranges_8cpp.html" target="_top" xlink:title="lib/DebugInfo/DWARF\l/DWARFDebugAranges.cpp">
<polygon fill="none" stroke="black" points="736,-62 736,-92 876,-92 876,-62 736,-62"/>
<text text-anchor="start" x="744" y="-80" font-family="Helvetica,sans-Serif" font-size="10.00">lib/DebugInfo/DWARF</text>
<text text-anchor="middle" x="806" y="-69" font-family="Helvetica,sans-Serif" font-size="10.00">/DWARFDebugAranges.cpp</text>
</a>
</g>
</g>
<!-- Node68&#45;&gt;Node73 -->
<g id="edge7" class="edge">
<title>Node68&#45;&gt;Node73</title>
<path fill="none" stroke="midnightblue" d="M1050.86,-132.86C1002.92,-123.28 940.85,-110.5 886,-98 877.9,-96.15 869.37,-94.12 861.01,-92.07"/>
<polygon fill="midnightblue" stroke="midnightblue" points="1050.38,-136.33 1060.87,-134.85 1051.74,-129.47 1050.38,-136.33"/>
</g>
<!-- Node74 -->
<g id="node9" class="node">
<title>Node74</title>
<g id="a_node9"><a xlink:href="DWARFDebugLoc_8cpp.html" target="_top" xlink:title="lib/DebugInfo/DWARF\l/DWARFDebugLoc.cpp">
<polygon fill="none" stroke="black" points="2006,-62 2006,-92 2126,-92 2126,-62 2006,-62"/>
<text text-anchor="start" x="2014" y="-80" font-family="Helvetica,sans-Serif" font-size="10.00">lib/DebugInfo/DWARF</text>
<text text-anchor="middle" x="2066" y="-69" font-family="Helvetica,sans-Serif" font-size="10.00">/DWARFDebugLoc.cpp</text>
</a>
</g>
</g>
<!-- Node68&#45;&gt;Node74 -->
<g id="edge8" class="edge">
<title>Node68&#45;&gt;Node74</title>
<path fill="none" stroke="midnightblue" d="M1211.12,-134.44C1212.42,-134.29 1213.72,-134.14 1215,-134 1560.88,-96.34 1653.75,-154.83 1997,-98 2005.61,-96.57 2014.68,-94.43 2023.3,-92.07"/>
<polygon fill="midnightblue" stroke="midnightblue" points="1210.51,-130.99 1201.03,-135.74 1211.4,-137.93 1210.51,-130.99"/>
</g>
<!-- Node75 -->
<g id="node10" class="node">
<title>Node75</title>
<g id="a_node10"><a xlink:href="DWARFDebugRangeList_8cpp.html" target="_top" xlink:title="lib/DebugInfo/DWARF\l/DWARFDebugRangeList.cpp">
<polygon fill="none" stroke="black" points="1538.5,-62 1538.5,-92 1687.5,-92 1687.5,-62 1538.5,-62"/>
<text text-anchor="start" x="1546.5" y="-80" font-family="Helvetica,sans-Serif" font-size="10.00">lib/DebugInfo/DWARF</text>
<text text-anchor="middle" x="1613" y="-69" font-family="Helvetica,sans-Serif" font-size="10.00">/DWARFDebugRangeList.cpp</text>
</a>
</g>
</g>
<!-- Node68&#45;&gt;Node75 -->
<g id="edge9" class="edge">
<title>Node68&#45;&gt;Node75</title>
<path fill="none" stroke="midnightblue" d="M1211.14,-134.56C1212.44,-134.37 1213.72,-134.18 1215,-134 1354.49,-114.01 1391.24,-122.55 1530,-98 1539.34,-96.35 1549.2,-94.27 1558.73,-92.09"/>
<polygon fill="midnightblue" stroke="midnightblue" points="1210.44,-131.13 1201.08,-136.09 1211.49,-138.05 1210.44,-131.13"/>
</g>
<!-- Node68&#45;&gt;Node76 -->
<g id="edge10" class="edge">
<title>Node68&#45;&gt;Node76</title>
<path fill="none" stroke="midnightblue" d="M1050.86,-134.56C1049.57,-134.37 1048.28,-134.18 1047,-134 905.31,-113.82 867.24,-126.58 727,-98 719.15,-96.4 710.89,-94.3 702.96,-92.05"/>
<polygon fill="midnightblue" stroke="midnightblue" points="1050.51,-138.05 1060.92,-136.09 1051.56,-131.12 1050.51,-138.05"/>
</g>
<!-- Node77 -->
<g id="node12" class="node">
<title>Node77</title>
<g id="a_node12"><a xlink:href="DWARFFormValue_8cpp.html" target="_top" xlink:title="lib/DebugInfo/DWARF\l/DWARFFormValue.cpp">
<polygon fill="none" stroke="black" points="2144.5,-62 2144.5,-92 2267.5,-92 2267.5,-62 2144.5,-62"/>
<text text-anchor="start" x="2152.5" y="-80" font-family="Helvetica,sans-Serif" font-size="10.00">lib/DebugInfo/DWARF</text>
<text text-anchor="middle" x="2206" y="-69" font-family="Helvetica,sans-Serif" font-size="10.00">/DWARFFormValue.cpp</text>
</a>
</g>
</g>
<!-- Node68&#45;&gt;Node77 -->
<g id="edge11" class="edge">
<title>Node68&#45;&gt;Node77</title>
<path fill="none" stroke="midnightblue" d="M1211.12,-134.43C1212.42,-134.28 1213.72,-134.14 1215,-134 1621.95,-91.1 1730.82,-161.92 2135,-98 2143.98,-96.58 2153.44,-94.41 2162.42,-92.01"/>
<polygon fill="midnightblue" stroke="midnightblue" points="1210.51,-130.98 1201.03,-135.7 1211.39,-137.92 1210.51,-130.98"/>
</g>
<!-- Node68&#45;&gt;Node78 -->
<g id="edge12" class="edge">
<title>Node68&#45;&gt;Node78</title>
<path fill="none" stroke="midnightblue" d="M1211.12,-134.42C1212.42,-134.27 1213.72,-134.13 1215,-134 1684.8,-85.72 1811.07,-175.13 2277,-98 2285.39,-96.61 2294.2,-94.45 2302.55,-92.06"/>
<polygon fill="midnightblue" stroke="midnightblue" points="1210.52,-130.97 1201.03,-135.67 1211.38,-137.91 1210.52,-130.97"/>
</g>
<!-- Node68&#45;&gt;Node79 -->
<g id="edge13" class="edge">
<title>Node68&#45;&gt;Node79</title>
<path fill="none" stroke="midnightblue" d="M1050.88,-139.11C1033.78,-137.27 1015.8,-135.46 999,-134 750.98,-112.4 684.97,-142.39 440,-98 431.87,-96.53 423.33,-94.39 415.19,-92.07"/>
<polygon fill="midnightblue" stroke="midnightblue" points="1050.52,-142.59 1060.84,-140.2 1051.28,-135.64 1050.52,-142.59"/>
</g>
<!-- Node80 -->
<g id="node15" class="node">
<title>Node80</title>
<g id="a_node15"><a xlink:href="SymbolizableObjectFile_8cpp.html" target="_top" xlink:title="lib/DebugInfo/Symbolize\l/SymbolizableObjectFile.cpp">
<polygon fill="none" stroke="black" points="1705.5,-62 1705.5,-92 1846.5,-92 1846.5,-62 1705.5,-62"/>
<text text-anchor="start" x="1713.5" y="-80" font-family="Helvetica,sans-Serif" font-size="10.00">lib/DebugInfo/Symbolize</text>
<text text-anchor="middle" x="1776" y="-69" font-family="Helvetica,sans-Serif" font-size="10.00">/SymbolizableObjectFile.cpp</text>
</a>
</g>
</g>
<!-- Node68&#45;&gt;Node80 -->
<g id="edge14" class="edge">
<title>Node68&#45;&gt;Node80</title>
<path fill="none" stroke="midnightblue" d="M1211.13,-134.49C1212.43,-134.32 1213.72,-134.16 1215,-134 1428.2,-107.7 1484.97,-132.49 1697,-98 1706.5,-96.46 1716.52,-94.32 1726.12,-92.02"/>
<polygon fill="midnightblue" stroke="midnightblue" points="1210.48,-131.05 1201.05,-135.89 1211.44,-137.98 1210.48,-131.05"/>
</g>
<!-- Node81 -->
<g id="node16" class="node">
<title>Node81</title>
<g id="a_node16"><a xlink:href="Symbolize_8cpp.html" target="_top" xlink:title="lib/DebugInfo/Symbolize\l/Symbolize.cpp">
<polygon fill="none" stroke="black" points="1864.5,-62 1864.5,-92 1987.5,-92 1987.5,-62 1864.5,-62"/>
<text text-anchor="start" x="1872.5" y="-80" font-family="Helvetica,sans-Serif" font-size="10.00">lib/DebugInfo/Symbolize</text>
<text text-anchor="middle" x="1926" y="-69" font-family="Helvetica,sans-Serif" font-size="10.00">/Symbolize.cpp</text>
</a>
</g>
</g>
<!-- Node68&#45;&gt;Node81 -->
<g id="edge15" class="edge">
<title>Node68&#45;&gt;Node81</title>
<path fill="none" stroke="midnightblue" d="M1211.13,-134.46C1212.43,-134.3 1213.72,-134.15 1215,-134 1498.5,-101.68 1574.64,-145.49 1856,-98 1864.6,-96.55 1873.65,-94.43 1882.28,-92.1"/>
<polygon fill="midnightblue" stroke="midnightblue" points="1210.5,-131.01 1201.04,-135.79 1211.41,-137.95 1210.5,-131.01"/>
</g>
<!-- Node68&#45;&gt;Node82 -->
<g id="edge16" class="edge">
<title>Node68&#45;&gt;Node82</title>
<path fill="none" stroke="midnightblue" d="M1050.91,-138.85C1033.8,-137.03 1015.81,-135.29 999,-134 633.06,-105.95 538.08,-144.35 174,-98 162.5,-96.54 150.31,-94.39 138.66,-92.05"/>
<polygon fill="midnightblue" stroke="midnightblue" points="1050.54,-142.33 1060.86,-139.93 1051.3,-135.37 1050.54,-142.33"/>
</g>
<!-- Node83 -->
<g id="node18" class="node">
<title>Node83</title>
<g id="a_node18"><a xlink:href="IntelJITEventListener_8cpp.html" target="_top" xlink:title="lib/ExecutionEngine\l/IntelJITEvents/IntelJITEvent\lListener.cpp">
<polygon fill="none" stroke="black" points="894.5,-56.5 894.5,-97.5 1039.5,-97.5 1039.5,-56.5 894.5,-56.5"/>
<text text-anchor="start" x="902.5" y="-85.5" font-family="Helvetica,sans-Serif" font-size="10.00">lib/ExecutionEngine</text>
<text text-anchor="start" x="902.5" y="-74.5" font-family="Helvetica,sans-Serif" font-size="10.00">/IntelJITEvents/IntelJITEvent</text>
<text text-anchor="middle" x="967" y="-63.5" font-family="Helvetica,sans-Serif" font-size="10.00">Listener.cpp</text>
</a>
</g>
</g>
<!-- Node68&#45;&gt;Node83 -->
<g id="edge17" class="edge">
<title>Node68&#45;&gt;Node83</title>
<path fill="none" stroke="midnightblue" d="M1088.89,-130.4C1065.5,-120.34 1036.38,-107.83 1012.47,-97.55"/>
<polygon fill="midnightblue" stroke="midnightblue" points="1087.64,-133.67 1098.21,-134.4 1090.4,-127.24 1087.64,-133.67"/>
</g>
<!-- Node84 -->
<g id="node19" class="node">
<title>Node84</title>
<g id="a_node19"><a xlink:href="OProfileJITEventListener_8cpp.html" target="_top" xlink:title="lib/ExecutionEngine\l/OProfileJIT/OProfileJITEvent\lListener.cpp">
<polygon fill="none" stroke="black" points="1057.5,-56.5 1057.5,-97.5 1204.5,-97.5 1204.5,-56.5 1057.5,-56.5"/>
<text text-anchor="start" x="1065.5" y="-85.5" font-family="Helvetica,sans-Serif" font-size="10.00">lib/ExecutionEngine</text>
<text text-anchor="start" x="1065.5" y="-74.5" font-family="Helvetica,sans-Serif" font-size="10.00">/OProfileJIT/OProfileJITEvent</text>
<text text-anchor="middle" x="1131" y="-63.5" font-family="Helvetica,sans-Serif" font-size="10.00">Listener.cpp</text>
</a>
</g>
</g>
<!-- Node68&#45;&gt;Node84 -->
<g id="edge18" class="edge">
<title>Node68&#45;&gt;Node84</title>
<path fill="none" stroke="midnightblue" d="M1131,-123.98C1131,-115.35 1131,-105.76 1131,-97.59"/>
<polygon fill="midnightblue" stroke="midnightblue" points="1127.5,-124.23 1131,-134.23 1134.5,-124.23 1127.5,-124.23"/>
</g>
<!-- Node85 -->
<g id="node20" class="node">
<title>Node85</title>
<g id="a_node20"><a xlink:href="PerfJITEventListener_8cpp.html" target="_top" xlink:title="lib/ExecutionEngine\l/PerfJITEvents/PerfJITEvent\lListener.cpp">
<polygon fill="none" stroke="black" points="1222.5,-56.5 1222.5,-97.5 1365.5,-97.5 1365.5,-56.5 1222.5,-56.5"/>
<text text-anchor="start" x="1230.5" y="-85.5" font-family="Helvetica,sans-Serif" font-size="10.00">lib/ExecutionEngine</text>
<text text-anchor="start" x="1230.5" y="-74.5" font-family="Helvetica,sans-Serif" font-size="10.00">/PerfJITEvents/PerfJITEvent</text>
<text text-anchor="middle" x="1294" y="-63.5" font-family="Helvetica,sans-Serif" font-size="10.00">Listener.cpp</text>
</a>
</g>
</g>
<!-- Node68&#45;&gt;Node85 -->
<g id="edge19" class="edge">
<title>Node68&#45;&gt;Node85</title>
<path fill="none" stroke="midnightblue" d="M1172.85,-130.4C1196.1,-120.34 1225.04,-107.83 1248.81,-97.55"/>
<polygon fill="midnightblue" stroke="midnightblue" points="1171.38,-127.22 1163.59,-134.4 1174.16,-133.65 1171.38,-127.22"/>
</g>
<!-- Node70 -->
<g id="node5" class="node">
<title>Node70</title>
<g id="a_node5"><a xlink:href="DWARFLinker_8cpp.html" target="_top" xlink:title="lib/DWARFLinker/DWARFLinker.cpp">
<polygon fill="none" stroke="black" points="427.5,-0.5 427.5,-19.5 606.5,-19.5 606.5,-0.5 427.5,-0.5"/>
<text text-anchor="middle" x="517" y="-7.5" font-family="Helvetica,sans-Serif" font-size="10.00">lib/DWARFLinker/DWARFLinker.cpp</text>
</a>
</g>
</g>
<!-- Node69&#45;&gt;Node70 -->
<g id="edge4" class="edge">
<title>Node69&#45;&gt;Node70</title>
<path fill="none" stroke="midnightblue" d="M517,-51.75C517,-40.52 517,-27.88 517,-19.69"/>
<polygon fill="midnightblue" stroke="midnightblue" points="513.5,-51.9 517,-61.9 520.5,-51.9 513.5,-51.9"/>
</g>
<!-- Node86&#45;&gt;Node68 -->
<g id="edge34" class="edge">
<title>Node86&#45;&gt;Node68</title>
<path fill="none" stroke="midnightblue" d="M1525.35,-345.52C1409.26,-338.5 1192.27,-322.41 1166,-299 1126.84,-264.11 1127.32,-194.36 1129.55,-164.54"/>
<polygon fill="midnightblue" stroke="midnightblue" points="1525.38,-349.03 1535.57,-346.13 1525.8,-342.04 1525.38,-349.03"/>
</g>
<!-- Node86&#45;&gt;Node74 -->
<g id="edge49" class="edge">
<title>Node86&#45;&gt;Node74</title>
<path fill="none" stroke="midnightblue" d="M1643.66,-330.8C1658.74,-322.82 1674.56,-312.25 1686,-299 1737.53,-239.36 1689.24,-182.97 1751,-134 1837.58,-65.35 1889.02,-121.44 1997,-98 2004.8,-96.31 2013.01,-94.21 2020.94,-92.02"/>
<polygon fill="midnightblue" stroke="midnightblue" points="1641.79,-327.82 1634.42,-335.43 1644.93,-334.08 1641.79,-327.82"/>
</g>
<!-- Node86&#45;&gt;Node76 -->
<g id="edge51" class="edge">
<title>Node86&#45;&gt;Node76</title>
<path fill="none" stroke="midnightblue" d="M1525.58,-347.95C1413.75,-344.48 1205.14,-333.47 1140,-299 1054.74,-253.88 1083.76,-180.05 999,-134 891.85,-75.79 846.24,-123.52 727,-98 719.28,-96.35 711.17,-94.25 703.35,-92.03"/>
<polygon fill="midnightblue" stroke="midnightblue" points="1525.66,-351.45 1535.76,-348.25 1525.87,-344.45 1525.66,-351.45"/>
</g>
<!-- Node86&#45;&gt;Node77 -->
<g id="edge53" class="edge">
<title>Node86&#45;&gt;Node77</title>
<path fill="none" stroke="midnightblue" d="M1670.42,-347.11C1806.79,-341.96 2091.12,-327.87 2125,-299 2182.68,-249.85 2136.71,-203.02 2168,-134 2174.89,-118.8 2185.83,-103.24 2194.2,-92.38"/>
<polygon fill="midnightblue" stroke="midnightblue" points="1669.93,-343.63 1660.06,-347.5 1670.19,-350.62 1669.93,-343.63"/>
</g>
<!-- Node86&#45;&gt;Node78 -->
<g id="edge55" class="edge">
<title>Node86&#45;&gt;Node78</title>
<path fill="none" stroke="midnightblue" d="M1637.58,-331.23C1675.19,-314.11 1733.48,-288.21 1785,-268 1952.89,-202.15 1996.99,-191.26 2168,-134 2212.01,-119.26 2262.53,-103.19 2297.93,-92.06"/>
<polygon fill="midnightblue" stroke="midnightblue" points="1636.12,-328.04 1628.48,-335.38 1639.03,-334.41 1636.12,-328.04"/>
</g>
<!-- Node86&#45;&gt;Node82 -->
<g id="edge56" class="edge">
<title>Node86&#45;&gt;Node82</title>
<path fill="none" stroke="midnightblue" d="M1525.46,-349.2C1269.66,-347.81 418.9,-340.1 304,-299 211.1,-265.77 191.24,-239.89 127,-165 107.55,-142.33 92.83,-110.28 85.39,-92.08"/>
<polygon fill="midnightblue" stroke="midnightblue" points="1525.73,-352.7 1535.75,-349.26 1525.77,-345.7 1525.73,-352.7"/>
</g>
<!-- Node87 -->
<g id="node22" class="node">
<title>Node87</title>
<g id="a_node22"><a xlink:href="DWARFCompileUnit_8h.html" target="_top" xlink:title="include/llvm/DebugInfo\l/DWARF/DWARFCompileUnit.h">
<polygon fill="none" stroke="black" points="745,-268.5 745,-298.5 905,-298.5 905,-268.5 745,-268.5"/>
<text text-anchor="start" x="753" y="-286.5" font-family="Helvetica,sans-Serif" font-size="10.00">include/llvm/DebugInfo</text>
<text text-anchor="middle" x="825" y="-275.5" font-family="Helvetica,sans-Serif" font-size="10.00">/DWARF/DWARFCompileUnit.h</text>
</a>
</g>
</g>
<!-- Node86&#45;&gt;Node87 -->
<g id="edge21" class="edge">
<title>Node86&#45;&gt;Node87</title>
<path fill="none" stroke="midnightblue" d="M1525.61,-343.41C1380.72,-331.23 1056.07,-303.93 905.07,-291.23"/>
<polygon fill="midnightblue" stroke="midnightblue" points="1525.47,-346.91 1535.72,-344.26 1526.05,-339.94 1525.47,-346.91"/>
</g>
<!-- Node91 -->
<g id="node26" class="node">
<title>Node91</title>
<g id="a_node26"><a xlink:href="DWARFTypeUnit_8h.html" target="_top" xlink:title="include/llvm/DebugInfo\l/DWARF/DWARFTypeUnit.h">
<polygon fill="none" stroke="black" points="1175,-268.5 1175,-298.5 1321,-298.5 1321,-268.5 1175,-268.5"/>
<text text-anchor="start" x="1183" y="-286.5" font-family="Helvetica,sans-Serif" font-size="10.00">include/llvm/DebugInfo</text>
<text text-anchor="middle" x="1248" y="-275.5" font-family="Helvetica,sans-Serif" font-size="10.00">/DWARF/DWARFTypeUnit.h</text>
</a>
</g>
</g>
<!-- Node86&#45;&gt;Node91 -->
<g id="edge35" class="edge">
<title>Node86&#45;&gt;Node91</title>
<path fill="none" stroke="midnightblue" d="M1525.7,-336.07C1465.84,-324.96 1381.17,-309.23 1321.1,-298.08"/>
<polygon fill="midnightblue" stroke="midnightblue" points="1525.36,-339.57 1535.83,-337.95 1526.64,-332.69 1525.36,-339.57"/>
</g>
<!-- Node86&#45;&gt;Node92 -->
<g id="edge54" class="edge">
<title>Node86&#45;&gt;Node92</title>
<path fill="none" stroke="midnightblue" d="M1639.39,-330.16C1651.48,-322.3 1663.25,-311.97 1670,-299 1681.71,-276.48 1665.32,-248.18 1652.83,-231.54"/>
<polygon fill="midnightblue" stroke="midnightblue" points="1637.36,-327.29 1630.59,-335.44 1640.96,-333.29 1637.36,-327.29"/>
</g>
<!-- Node93 -->
<g id="node28" class="node">
<title>Node93</title>
<g id="a_node28"><a xlink:href="DWARFLinkerCompileUnit_8h.html" target="_top" xlink:title="include/llvm/DWARFLinker\l/DWARFLinkerCompileUnit.h">
<polygon fill="none" stroke="black" points="313,-268.5 313,-298.5 459,-298.5 459,-268.5 313,-268.5"/>
<text text-anchor="start" x="321" y="-286.5" font-family="Helvetica,sans-Serif" font-size="10.00">include/llvm/DWARFLinker</text>
<text text-anchor="middle" x="386" y="-275.5" font-family="Helvetica,sans-Serif" font-size="10.00">/DWARFLinkerCompileUnit.h</text>
</a>
</g>
</g>
<!-- Node86&#45;&gt;Node93 -->
<g id="edge40" class="edge">
<title>Node86&#45;&gt;Node93</title>
<path fill="none" stroke="midnightblue" d="M1525.57,-345.62C1310.24,-334.07 675.57,-300.03 459.22,-288.43"/>
<polygon fill="midnightblue" stroke="midnightblue" points="1525.64,-349.12 1535.81,-346.16 1526.01,-342.13 1525.64,-349.12"/>
</g>
<!-- Node96 -->
<g id="node31" class="node">
<title>Node96</title>
<g id="a_node31"><a xlink:href="DWARFAbbreviationDeclaration_8cpp.html" target="_top" xlink:title="lib/DebugInfo/DWARF\l/DWARFAbbreviationDeclaration.cpp">
<polygon fill="none" stroke="black" points="1793.5,-268.5 1793.5,-298.5 1972.5,-298.5 1972.5,-268.5 1793.5,-268.5"/>
<text text-anchor="start" x="1801.5" y="-286.5" font-family="Helvetica,sans-Serif" font-size="10.00">lib/DebugInfo/DWARF</text>
<text text-anchor="middle" x="1883" y="-275.5" font-family="Helvetica,sans-Serif" font-size="10.00">/DWARFAbbreviationDeclaration.cpp</text>
</a>
</g>
</g>
<!-- Node86&#45;&gt;Node96 -->
<g id="edge46" class="edge">
<title>Node86&#45;&gt;Node96</title>
<path fill="none" stroke="midnightblue" d="M1669.53,-333.19C1716.21,-322.54 1776.52,-308.78 1821.13,-298.61"/>
<polygon fill="midnightblue" stroke="midnightblue" points="1668.46,-329.84 1659.49,-335.48 1670.02,-336.66 1668.46,-329.84"/>
</g>
<!-- Node97 -->
<g id="node32" class="node">
<title>Node97</title>
<g id="a_node32"><a xlink:href="DWARFDebugAddr_8cpp.html" target="_top" xlink:title="lib/DebugInfo/DWARF\l/DWARFDebugAddr.cpp">
<polygon fill="none" stroke="black" points="1990.5,-268.5 1990.5,-298.5 2115.5,-298.5 2115.5,-268.5 1990.5,-268.5"/>
<text text-anchor="start" x="1998.5" y="-286.5" font-family="Helvetica,sans-Serif" font-size="10.00">lib/DebugInfo/DWARF</text>
<text text-anchor="middle" x="2053" y="-275.5" font-family="Helvetica,sans-Serif" font-size="10.00">/DWARFDebugAddr.cpp</text>
</a>
</g>
</g>
<!-- Node86&#45;&gt;Node97 -->
<g id="edge47" class="edge">
<title>Node86&#45;&gt;Node97</title>
<path fill="none" stroke="midnightblue" d="M1670.17,-341.55C1747.52,-332.67 1873.79,-317.14 1982,-299 1984.73,-298.54 1987.51,-298.06 1990.32,-297.55"/>
<polygon fill="midnightblue" stroke="midnightblue" points="1669.59,-338.09 1660.05,-342.71 1670.39,-345.05 1669.59,-338.09"/>
</g>
<!-- Node86&#45;&gt;Node98 -->
<g id="edge48" class="edge">
<title>Node86&#45;&gt;Node98</title>
<path fill="none" stroke="midnightblue" d="M1670.22,-343.6C1776.94,-334.75 1983.04,-317.11 2158,-299 2174.82,-297.26 2192.9,-295.23 2209.91,-293.26"/>
<polygon fill="midnightblue" stroke="midnightblue" points="1669.88,-340.12 1660.2,-344.43 1670.46,-347.09 1669.88,-340.12"/>
</g>
<!-- Node99 -->
<g id="node34" class="node">
<title>Node99</title>
<g id="a_node34"><a xlink:href="DWARFDebugRnglists_8cpp.html" target="_top" xlink:title="lib/DebugInfo/DWARF\l/DWARFDebugRnglists.cpp">
<polygon fill="none" stroke="black" points="1377,-268.5 1377,-298.5 1517,-298.5 1517,-268.5 1377,-268.5"/>
<text text-anchor="start" x="1385" y="-286.5" font-family="Helvetica,sans-Serif" font-size="10.00">lib/DebugInfo/DWARF</text>
<text text-anchor="middle" x="1447" y="-275.5" font-family="Helvetica,sans-Serif" font-size="10.00">/DWARFDebugRnglists.cpp</text>
</a>
</g>
</g>
<!-- Node86&#45;&gt;Node99 -->
<g id="edge50" class="edge">
<title>Node86&#45;&gt;Node99</title>
<path fill="none" stroke="midnightblue" d="M1555.97,-331.41C1531.86,-321.03 1502.05,-308.2 1479.7,-298.58"/>
<polygon fill="midnightblue" stroke="midnightblue" points="1554.67,-334.66 1565.24,-335.4 1557.43,-328.23 1554.67,-334.66"/>
</g>
<!-- Node100 -->
<g id="node35" class="node">
<title>Node100</title>
<g id="a_node35"><a xlink:href="DWARFExpression_8cpp.html" target="_top" xlink:title="lib/DebugInfo/DWARF\l/DWARFExpression.cpp">
<polygon fill="none" stroke="black" points="1535.5,-268.5 1535.5,-298.5 1660.5,-298.5 1660.5,-268.5 1535.5,-268.5"/>
<text text-anchor="start" x="1543.5" y="-286.5" font-family="Helvetica,sans-Serif" font-size="10.00">lib/DebugInfo/DWARF</text>
<text text-anchor="middle" x="1598" y="-275.5" font-family="Helvetica,sans-Serif" font-size="10.00">/DWARFExpression.cpp</text>
</a>
</g>
</g>
<!-- Node86&#45;&gt;Node100 -->
<g id="edge52" class="edge">
<title>Node86&#45;&gt;Node100</title>
<path fill="none" stroke="midnightblue" d="M1598,-325.11C1598,-316.15 1598,-306.32 1598,-298.58"/>
<polygon fill="midnightblue" stroke="midnightblue" points="1594.5,-325.4 1598,-335.4 1601.5,-325.4 1594.5,-325.4"/>
</g>
<!-- Node87&#45;&gt;Node68 -->
<g id="edge22" class="edge">
<title>Node87&#45;&gt;Node68</title>
<path fill="none" stroke="midnightblue" d="M912.67,-266.08C945.4,-258.16 982.3,-247.04 1014,-232 1035.29,-221.9 1037.71,-214.53 1057,-201 1074.83,-188.49 1095.29,-174.56 1110.17,-164.51"/>
<polygon fill="midnightblue" stroke="midnightblue" points="911.58,-262.74 902.65,-268.44 913.19,-269.56 911.58,-262.74"/>
</g>
<!-- Node87&#45;&gt;Node69 -->
<g id="edge28" class="edge">
<title>Node87&#45;&gt;Node69</title>
<path fill="none" stroke="midnightblue" d="M815.47,-258.8C800.96,-225.75 770.14,-166.27 725,-134 723.37,-132.84 631.11,-108.24 570.03,-92.04"/>
<polygon fill="midnightblue" stroke="midnightblue" points="812.31,-260.32 819.45,-268.15 818.75,-257.57 812.31,-260.32"/>
</g>
<!-- Node87&#45;&gt;Node71 -->
<g id="edge30" class="edge">
<title>Node87&#45;&gt;Node71</title>
<path fill="none" stroke="midnightblue" d="M781.97,-264.1C763.72,-255.46 742.64,-244.35 725,-232 708.52,-220.46 709.76,-210.45 692,-201 628.42,-167.16 597.58,-198.84 534,-165 516.24,-155.55 518.95,-143.09 501,-134 422.77,-94.38 392.2,-118.75 307,-98 299.79,-96.24 292.2,-94.17 284.84,-92.02"/>
<polygon fill="midnightblue" stroke="midnightblue" points="780.68,-267.36 791.22,-268.38 783.62,-261 780.68,-267.36"/>
</g>
<!-- Node87&#45;&gt;Node73 -->
<g id="edge31" class="edge">
<title>Node87&#45;&gt;Node73</title>
<path fill="none" stroke="midnightblue" d="M822.75,-258.3C818.75,-215.25 810.52,-126.63 807.32,-92.15"/>
<polygon fill="midnightblue" stroke="midnightblue" points="819.28,-258.81 823.69,-268.44 826.25,-258.16 819.28,-258.81"/>
</g>
<!-- Node87&#45;&gt;Node78 -->
<g id="edge32" class="edge">
<title>Node87&#45;&gt;Node78</title>
<path fill="none" stroke="midnightblue" d="M899.91,-266.42C1047.22,-235.46 1385.31,-167.65 1673,-134 1940.1,-102.76 2012.28,-145.32 2277,-98 2285.13,-96.55 2293.68,-94.42 2301.82,-92.1"/>
<polygon fill="midnightblue" stroke="midnightblue" points="899.13,-263.01 890.06,-268.49 900.57,-269.86 899.13,-263.01"/>
</g>
<!-- Node87&#45;&gt;Node79 -->
<g id="edge33" class="edge">
<title>Node87&#45;&gt;Node79</title>
<path fill="none" stroke="midnightblue" d="M801.74,-261.79C781.97,-244.63 752.51,-220.05 725,-201 676.37,-167.32 665.19,-155.29 610,-134 537.94,-106.21 514.8,-117.22 440,-98 433.04,-96.21 425.72,-94.16 418.59,-92.08"/>
<polygon fill="midnightblue" stroke="midnightblue" points="799.49,-264.48 809.32,-268.43 804.1,-259.21 799.49,-264.48"/>
</g>
<!-- Node88 -->
<g id="node23" class="node">
<title>Node88</title>
<g id="a_node23"><a xlink:href="DWARFDebugLine_8h.html" target="_top" xlink:title="include/llvm/DebugInfo\l/DWARF/DWARFDebugLine.h">
<polygon fill="none" stroke="black" points="853,-201.5 853,-231.5 1005,-231.5 1005,-201.5 853,-201.5"/>
<text text-anchor="start" x="861" y="-219.5" font-family="Helvetica,sans-Serif" font-size="10.00">include/llvm/DebugInfo</text>
<text text-anchor="middle" x="929" y="-208.5" font-family="Helvetica,sans-Serif" font-size="10.00">/DWARF/DWARFDebugLine.h</text>
</a>
</g>
</g>
<!-- Node87&#45;&gt;Node88 -->
<g id="edge23" class="edge">
<title>Node87&#45;&gt;Node88</title>
<path fill="none" stroke="midnightblue" d="M856.18,-263.02C872.36,-252.9 891.77,-240.77 906.48,-231.58"/>
<polygon fill="midnightblue" stroke="midnightblue" points="854.19,-260.13 847.57,-268.4 857.9,-266.06 854.19,-260.13"/>
</g>
<!-- Node87&#45;&gt;Node90 -->
<g id="edge29" class="edge">
<title>Node87&#45;&gt;Node90</title>
<path fill="none" stroke="midnightblue" d="M770.68,-265.44C737.13,-254.91 694.59,-241.55 662.94,-231.61"/>
<polygon fill="midnightblue" stroke="midnightblue" points="769.75,-268.82 780.34,-268.48 771.85,-262.14 769.75,-268.82"/>
</g>
<!-- Node88&#45;&gt;Node68 -->
<g id="edge24" class="edge">
<title>Node88&#45;&gt;Node68</title>
<path fill="none" stroke="midnightblue" d="M982.68,-198.23C1015.35,-187.71 1056.57,-174.45 1087.25,-164.58"/>
<polygon fill="midnightblue" stroke="midnightblue" points="981.28,-195 972.83,-201.4 983.42,-201.66 981.28,-195"/>
</g>
<!-- Node88&#45;&gt;Node71 -->
<g id="edge25" class="edge">
<title>Node88&#45;&gt;Node71</title>
<path fill="none" stroke="midnightblue" d="M855.68,-199.31C776.52,-182.09 646.63,-154.54 534,-134 433.51,-115.67 406.56,-120.87 307,-98 299.65,-96.31 291.92,-94.24 284.44,-92.08"/>
<polygon fill="midnightblue" stroke="midnightblue" points="855.04,-202.76 865.55,-201.47 856.53,-195.92 855.04,-202.76"/>
</g>
<!-- Node88&#45;&gt;Node79 -->
<g id="edge27" class="edge">
<title>Node88&#45;&gt;Node79</title>
<path fill="none" stroke="midnightblue" d="M891.23,-197.02C851.01,-178.16 784.99,-149.5 725,-134 601.39,-102.06 564.87,-124.61 440,-98 432.39,-96.38 424.39,-94.29 416.69,-92.08"/>
<polygon fill="midnightblue" stroke="midnightblue" points="889.86,-200.24 900.39,-201.36 892.85,-193.92 889.86,-200.24"/>
</g>
<!-- Node89 -->
<g id="node24" class="node">
<title>Node89</title>
<g id="a_node24"><a xlink:href="DWARFDebugLine_8cpp.html" target="_top" xlink:title="lib/DebugInfo/DWARF\l/DWARFDebugLine.cpp">
<polygon fill="none" stroke="black" points="868,-134.5 868,-164.5 990,-164.5 990,-134.5 868,-134.5"/>
<text text-anchor="start" x="876" y="-152.5" font-family="Helvetica,sans-Serif" font-size="10.00">lib/DebugInfo/DWARF</text>
<text text-anchor="middle" x="929" y="-141.5" font-family="Helvetica,sans-Serif" font-size="10.00">/DWARFDebugLine.cpp</text>
</a>
</g>
</g>
<!-- Node88&#45;&gt;Node89 -->
<g id="edge26" class="edge">
<title>Node88&#45;&gt;Node89</title>
<path fill="none" stroke="midnightblue" d="M929,-191.11C929,-182.15 929,-172.32 929,-164.58"/>
<polygon fill="midnightblue" stroke="midnightblue" points="925.5,-191.4 929,-201.4 932.5,-191.4 925.5,-191.4"/>
</g>
<!-- Node91&#45;&gt;Node68 -->
<g id="edge36" class="edge">
<title>Node91&#45;&gt;Node68</title>
<path fill="none" stroke="midnightblue" d="M1237.05,-259.08C1228.28,-241.85 1214.85,-218.48 1199,-201 1186.06,-186.73 1168.56,-173.84 1154.55,-164.66"/>
<polygon fill="midnightblue" stroke="midnightblue" points="1234.09,-261.01 1241.65,-268.43 1240.37,-257.91 1234.09,-261.01"/>
</g>
<!-- Node91&#45;&gt;Node78 -->
<g id="edge39" class="edge">
<title>Node91&#45;&gt;Node78</title>
<path fill="none" stroke="midnightblue" d="M1301.84,-265.38C1403.38,-233.84 1630.62,-166.79 1827,-134 2024.9,-100.96 2079.86,-135.31 2277,-98 2285,-96.49 2293.41,-94.37 2301.44,-92.07"/>
<polygon fill="midnightblue" stroke="midnightblue" points="1300.63,-262.09 1292.12,-268.41 1302.71,-268.78 1300.63,-262.09"/>
</g>
<!-- Node91&#45;&gt;Node88 -->
<g id="edge37" class="edge">
<title>Node91&#45;&gt;Node88</title>
<path fill="none" stroke="midnightblue" d="M1169.23,-266.45C1116.71,-255.75 1048.34,-241.82 997.98,-231.55"/>
<polygon fill="midnightblue" stroke="midnightblue" points="1168.68,-269.91 1179.17,-268.48 1170.07,-263.05 1168.68,-269.91"/>
</g>
<!-- Node91&#45;&gt;Node92 -->
<g id="edge38" class="edge">
<title>Node91&#45;&gt;Node92</title>
<path fill="none" stroke="midnightblue" d="M1331.14,-268.62C1332.44,-268.41 1333.72,-268.2 1335,-268 1438.9,-251.35 1465.4,-250.39 1569,-232 1573.52,-231.2 1578.19,-230.33 1582.88,-229.44"/>
<polygon fill="midnightblue" stroke="midnightblue" points="1330.4,-265.19 1321.09,-270.25 1331.52,-272.1 1330.4,-265.19"/>
</g>
<!-- Node93&#45;&gt;Node94 -->
<g id="edge41" class="edge">
<title>Node93&#45;&gt;Node94</title>
<path fill="none" stroke="midnightblue" d="M361.88,-261.6C350.56,-251.78 337.36,-240.34 327.24,-231.58"/>
<polygon fill="midnightblue" stroke="midnightblue" points="359.88,-264.49 369.73,-268.4 364.46,-259.2 359.88,-264.49"/>
</g>
<!-- Node95 -->
<g id="node30" class="node">
<title>Node95</title>
<g id="a_node30"><a xlink:href="DWARFLinkerCompileUnit_8cpp.html" target="_top" xlink:title="lib/DWARFLinker/DWARFLinker\lCompileUnit.cpp">
<polygon fill="none" stroke="black" points="332,-134.5 332,-164.5 492,-164.5 492,-134.5 332,-134.5"/>
<text text-anchor="start" x="340" y="-152.5" font-family="Helvetica,sans-Serif" font-size="10.00">lib/DWARFLinker/DWARFLinker</text>
<text text-anchor="middle" x="412" y="-141.5" font-family="Helvetica,sans-Serif" font-size="10.00">CompileUnit.cpp</text>
</a>
</g>
</g>
<!-- Node93&#45;&gt;Node95 -->
<g id="edge45" class="edge">
<title>Node93&#45;&gt;Node95</title>
<path fill="none" stroke="midnightblue" d="M390.75,-258.39C396.16,-230.9 404.83,-186.89 409.24,-164.52"/>
<polygon fill="midnightblue" stroke="midnightblue" points="387.28,-257.89 388.78,-268.37 394.15,-259.24 387.28,-257.89"/>
</g>
<!-- Node94&#45;&gt;Node69 -->
<g id="edge42" class="edge">
<title>Node94&#45;&gt;Node69</title>
<path fill="none" stroke="midnightblue" d="M394.09,-202.43C438.1,-193.81 486.08,-181.13 501,-165 519.46,-145.04 520.04,-111.09 518.64,-92.04"/>
<polygon fill="midnightblue" stroke="midnightblue" points="393.36,-199.01 384.19,-204.32 394.67,-205.88 393.36,-199.01"/>
</g>
<!-- Node94&#45;&gt;Node82 -->
<g id="edge44" class="edge">
<title>Node94&#45;&gt;Node82</title>
<path fill="none" stroke="midnightblue" d="M242.82,-198.48C217.84,-190.51 190.07,-179.5 167,-165 135.17,-144.99 105.99,-111.37 90.85,-92.32"/>
<polygon fill="midnightblue" stroke="midnightblue" points="242.01,-201.89 252.6,-201.49 244.07,-195.2 242.01,-201.89"/>
</g>
<!-- Node94&#45;&gt;Node95 -->
<g id="edge43" class="edge">
<title>Node94&#45;&gt;Node95</title>
<path fill="none" stroke="midnightblue" d="M341.71,-195.73C357.34,-185.68 375.97,-173.68 390.13,-164.58"/>
<polygon fill="midnightblue" stroke="midnightblue" points="339.43,-193.04 332.92,-201.4 343.22,-198.93 339.43,-193.04"/>
</g>
<!-- Node101&#45;&gt;Node71 -->
<g id="edge58" class="edge">
<title>Node101&#45;&gt;Node71</title>
<path fill="none" stroke="midnightblue" d="M243.62,-124.23C243.02,-113.57 242.33,-101.41 241.81,-92.25"/>
<polygon fill="midnightblue" stroke="midnightblue" points="240.13,-124.45 244.19,-134.23 247.12,-124.05 240.13,-124.45"/>
</g>
<!-- Node101&#45;&gt;Node79 -->
<g id="edge59" class="edge">
<title>Node101&#45;&gt;Node79</title>
<path fill="none" stroke="midnightblue" d="M279.66,-129.56C301.26,-117.76 328.57,-102.83 348.25,-92.07"/>
<polygon fill="midnightblue" stroke="midnightblue" points="277.89,-126.54 270.8,-134.4 281.25,-132.68 277.89,-126.54"/>
</g>
</g>
</svg>
