<?xml version="1.0" encoding="UTF-8" standalone="no"?>
<!DOCTYPE svg PUBLIC "-//W3C//DTD SVG 1.1//EN"
 "http://www.w3.org/Graphics/SVG/1.1/DTD/svg11.dtd">
<!-- Generated by graphviz version 2.43.0 (0)
 -->
<!-- Title: include/llvm/DebugInfo/DWARF/DWARFDebugRnglists.h Pages: 1 -->
<svg width="2581pt" height="441pt"
 viewBox="0.00 0.00 2580.50 441.00" xmlns="http://www.w3.org/2000/svg" xmlns:xlink="http://www.w3.org/1999/xlink">
<g id="graph0" class="graph" transform="scale(1 1) rotate(0) translate(4 437)">
<title>include/llvm/DebugInfo/DWARF/DWARFDebugRnglists.h</title>
<!-- Node101 -->
<g id="node1" class="node">
<title>Node101</title>
<polygon fill="#bfbfbf" stroke="black" points="1582.5,-402.5 1582.5,-432.5 1752.5,-432.5 1752.5,-402.5 1582.5,-402.5"/>
<text text-anchor="start" x="1590.5" y="-420.5" font-family="Helvetica,sans-Serif" font-size="10.00">include/llvm/DebugInfo</text>
<text text-anchor="middle" x="1667.5" y="-409.5" font-family="Helvetica,sans-Serif" font-size="10.00">/DWARF/DWARFDebugRnglists.h</text>
</g>
<!-- Node102 -->
<g id="node2" class="node">
<title>Node102</title>
<g id="a_node2"><a xlink:href="DWARFUnit_8h.html" target="_top" xlink:title="include/llvm/DebugInfo\l/DWARF/DWARFUnit.h">
<polygon fill="none" stroke="black" points="1311.5,-335.5 1311.5,-365.5 1435.5,-365.5 1435.5,-335.5 1311.5,-335.5"/>
<text text-anchor="start" x="1319.5" y="-353.5" font-family="Helvetica,sans-Serif" font-size="10.00">include/llvm/DebugInfo</text>
<text text-anchor="middle" x="1373.5" y="-342.5" font-family="Helvetica,sans-Serif" font-size="10.00">/DWARF/DWARFUnit.h</text>
</a>
</g>
</g>
<!-- Node101&#45;&gt;Node102 -->
<g id="edge1" class="edge">
<title>Node101&#45;&gt;Node102</title>
<path fill="none" stroke="midnightblue" d="M1594.19,-400.29C1545.36,-389.5 1481.89,-375.46 1435.56,-365.22"/>
<polygon fill="midnightblue" stroke="midnightblue" points="1593.55,-403.73 1604.07,-402.48 1595.06,-396.9 1593.55,-403.73"/>
</g>
<!-- Node107 -->
<g id="node7" class="node">
<title>Node107</title>
<g id="a_node7"><a xlink:href="DWARFContext_8cpp.html" target="_top" xlink:title="lib/DebugInfo/DWARF\l/DWARFContext.cpp">
<polygon fill="none" stroke="black" points="1948,-62 1948,-92 2063,-92 2063,-62 1948,-62"/>
<text text-anchor="start" x="1956" y="-80" font-family="Helvetica,sans-Serif" font-size="10.00">lib/DebugInfo/DWARF</text>
<text text-anchor="middle" x="2005.5" y="-69" font-family="Helvetica,sans-Serif" font-size="10.00">/DWARFContext.cpp</text>
</a>
</g>
</g>
<!-- Node101&#45;&gt;Node107 -->
<g id="edge55" class="edge">
<title>Node101&#45;&gt;Node107</title>
<path fill="none" stroke="midnightblue" d="M1754.02,-400.43C1854.17,-379.31 2005.5,-338.46 2005.5,-284.5 2005.5,-284.5 2005.5,-284.5 2005.5,-215.5 2005.5,-170.38 2005.5,-116.94 2005.5,-92.05"/>
<polygon fill="midnightblue" stroke="midnightblue" points="1753.27,-397.01 1744.2,-402.47 1754.7,-403.86 1753.27,-397.01"/>
</g>
<!-- Node114 -->
<g id="node14" class="node">
<title>Node114</title>
<g id="a_node14"><a xlink:href="DWARFUnit_8cpp.html" target="_top" xlink:title="lib/DebugInfo/DWARF\l/DWARFUnit.cpp">
<polygon fill="none" stroke="black" points="0,-62 0,-92 115,-92 115,-62 0,-62"/>
<text text-anchor="start" x="8" y="-80" font-family="Helvetica,sans-Serif" font-size="10.00">lib/DebugInfo/DWARF</text>
<text text-anchor="middle" x="57.5" y="-69" font-family="Helvetica,sans-Serif" font-size="10.00">/DWARFUnit.cpp</text>
</a>
</g>
</g>
<!-- Node101&#45;&gt;Node114 -->
<g id="edge57" class="edge">
<title>Node101&#45;&gt;Node114</title>
<path fill="none" stroke="midnightblue" d="M1572.19,-412.78C1250.59,-399.62 225.5,-352.33 225.5,-284.5 225.5,-284.5 225.5,-284.5 225.5,-215.5 225.5,-151.05 150.54,-111.35 100.76,-92.09"/>
<polygon fill="midnightblue" stroke="midnightblue" points="1572.28,-416.29 1582.41,-413.2 1572.57,-409.29 1572.28,-416.29"/>
</g>
<!-- Node133 -->
<g id="node33" class="node">
<title>Node133</title>
<g id="a_node33"><a xlink:href="DWARFDebugRnglists_8cpp.html" target="_top" xlink:title="lib/DebugInfo/DWARF\l/DWARFDebugRnglists.cpp">
<polygon fill="none" stroke="black" points="1837.5,-268.5 1837.5,-298.5 1977.5,-298.5 1977.5,-268.5 1837.5,-268.5"/>
<text text-anchor="start" x="1845.5" y="-286.5" font-family="Helvetica,sans-Serif" font-size="10.00">lib/DebugInfo/DWARF</text>
<text text-anchor="middle" x="1907.5" y="-275.5" font-family="Helvetica,sans-Serif" font-size="10.00">/DWARFDebugRnglists.cpp</text>
</a>
</g>
</g>
<!-- Node101&#45;&gt;Node133 -->
<g id="edge56" class="edge">
<title>Node101&#45;&gt;Node133</title>
<path fill="none" stroke="midnightblue" d="M1702.11,-397.47C1750.89,-370.64 1838.73,-322.32 1882,-298.52"/>
<polygon fill="midnightblue" stroke="midnightblue" points="1700.26,-394.49 1693.18,-402.37 1703.63,-400.62 1700.26,-394.49"/>
</g>
<!-- Node103 -->
<g id="node3" class="node">
<title>Node103</title>
<g id="a_node3"><a xlink:href="DWARFCompileUnit_8h.html" target="_top" xlink:title="include/llvm/DebugInfo\l/DWARF/DWARFCompileUnit.h">
<polygon fill="none" stroke="black" points="1347.5,-268.5 1347.5,-298.5 1507.5,-298.5 1507.5,-268.5 1347.5,-268.5"/>
<text text-anchor="start" x="1355.5" y="-286.5" font-family="Helvetica,sans-Serif" font-size="10.00">include/llvm/DebugInfo</text>
<text text-anchor="middle" x="1427.5" y="-275.5" font-family="Helvetica,sans-Serif" font-size="10.00">/DWARF/DWARFCompileUnit.h</text>
</a>
</g>
</g>
<!-- Node102&#45;&gt;Node103 -->
<g id="edge2" class="edge">
<title>Node102&#45;&gt;Node103</title>
<path fill="none" stroke="midnightblue" d="M1391.82,-327.45C1399.75,-317.9 1408.8,-307 1415.81,-298.58"/>
<polygon fill="midnightblue" stroke="midnightblue" points="1388.92,-325.47 1385.22,-335.4 1394.3,-329.94 1388.92,-325.47"/>
</g>
<!-- Node104 -->
<g id="node4" class="node">
<title>Node104</title>
<g id="a_node4"><a xlink:href="DWARFContext_8h.html" target="_top" xlink:title="include/llvm/DebugInfo\l/DWARF/DWARFContext.h">
<polygon fill="none" stroke="black" points="1309.5,-134.5 1309.5,-164.5 1449.5,-164.5 1449.5,-134.5 1309.5,-134.5"/>
<text text-anchor="start" x="1317.5" y="-152.5" font-family="Helvetica,sans-Serif" font-size="10.00">include/llvm/DebugInfo</text>
<text text-anchor="middle" x="1379.5" y="-141.5" font-family="Helvetica,sans-Serif" font-size="10.00">/DWARF/DWARFContext.h</text>
</a>
</g>
</g>
<!-- Node102&#45;&gt;Node104 -->
<g id="edge32" class="edge">
<title>Node102&#45;&gt;Node104</title>
<path fill="none" stroke="midnightblue" d="M1353.79,-327.3C1347.65,-319.01 1341.67,-309.13 1338.5,-299 1323.18,-249.99 1353.9,-190.96 1370.22,-164.51"/>
<polygon fill="midnightblue" stroke="midnightblue" points="1351.19,-329.65 1360.14,-335.32 1356.68,-325.31 1351.19,-329.65"/>
</g>
<!-- Node110 -->
<g id="node10" class="node">
<title>Node110</title>
<g id="a_node10"><a xlink:href="DWARFDebugLoc_8cpp.html" target="_top" xlink:title="lib/DebugInfo/DWARF\l/DWARFDebugLoc.cpp">
<polygon fill="none" stroke="black" points="1535.5,-62 1535.5,-92 1655.5,-92 1655.5,-62 1535.5,-62"/>
<text text-anchor="start" x="1543.5" y="-80" font-family="Helvetica,sans-Serif" font-size="10.00">lib/DebugInfo/DWARF</text>
<text text-anchor="middle" x="1595.5" y="-69" font-family="Helvetica,sans-Serif" font-size="10.00">/DWARFDebugLoc.cpp</text>
</a>
</g>
</g>
<!-- Node102&#45;&gt;Node110 -->
<g id="edge47" class="edge">
<title>Node102&#45;&gt;Node110</title>
<path fill="none" stroke="midnightblue" d="M1445.45,-336.82C1470.48,-329.35 1497.11,-317.56 1516.5,-299 1577.72,-240.39 1591.61,-131.13 1594.67,-92.21"/>
<polygon fill="midnightblue" stroke="midnightblue" points="1444.28,-333.51 1435.59,-339.57 1446.16,-340.25 1444.28,-333.51"/>
</g>
<!-- Node112 -->
<g id="node12" class="node">
<title>Node112</title>
<g id="a_node12"><a xlink:href="DWARFDie_8cpp.html" target="_top" xlink:title="lib/DebugInfo/DWARF\l/DWARFDie.cpp">
<polygon fill="none" stroke="black" points="1674,-62 1674,-92 1789,-92 1789,-62 1674,-62"/>
<text text-anchor="start" x="1682" y="-80" font-family="Helvetica,sans-Serif" font-size="10.00">lib/DebugInfo/DWARF</text>
<text text-anchor="middle" x="1731.5" y="-69" font-family="Helvetica,sans-Serif" font-size="10.00">/DWARFDie.cpp</text>
</a>
</g>
</g>
<!-- Node102&#45;&gt;Node112 -->
<g id="edge49" class="edge">
<title>Node102&#45;&gt;Node112</title>
<path fill="none" stroke="midnightblue" d="M1445.88,-337.66C1477.65,-330.11 1514.28,-318.03 1543.5,-299 1631.5,-241.68 1700.86,-131.13 1723.57,-92.08"/>
<polygon fill="midnightblue" stroke="midnightblue" points="1444.73,-334.33 1435.75,-339.95 1446.28,-341.15 1444.73,-334.33"/>
</g>
<!-- Node113 -->
<g id="node13" class="node">
<title>Node113</title>
<g id="a_node13"><a xlink:href="DWARFFormValue_8cpp.html" target="_top" xlink:title="lib/DebugInfo/DWARF\l/DWARFFormValue.cpp">
<polygon fill="none" stroke="black" points="1807,-62 1807,-92 1930,-92 1930,-62 1807,-62"/>
<text text-anchor="start" x="1815" y="-80" font-family="Helvetica,sans-Serif" font-size="10.00">lib/DebugInfo/DWARF</text>
<text text-anchor="middle" x="1868.5" y="-69" font-family="Helvetica,sans-Serif" font-size="10.00">/DWARFFormValue.cpp</text>
</a>
</g>
</g>
<!-- Node102&#45;&gt;Node113 -->
<g id="edge51" class="edge">
<title>Node102&#45;&gt;Node113</title>
<path fill="none" stroke="midnightblue" d="M1445.52,-339.06C1485.72,-331.44 1535.93,-318.88 1577.5,-299 1696.83,-241.93 1814.81,-131.23 1854.49,-92.11"/>
<polygon fill="midnightblue" stroke="midnightblue" points="1444.73,-335.64 1435.53,-340.89 1446,-342.53 1444.73,-335.64"/>
</g>
<!-- Node102&#45;&gt;Node114 -->
<g id="edge53" class="edge">
<title>Node102&#45;&gt;Node114</title>
<path fill="none" stroke="midnightblue" d="M1351.46,-328.53C1330.18,-309.54 1296.15,-282.42 1261.5,-268 1239.86,-259 451.71,-137.24 428.5,-134 293.31,-115.16 257.11,-125.9 123.5,-98 115.76,-96.38 107.63,-94.27 99.82,-92.03"/>
<polygon fill="midnightblue" stroke="midnightblue" points="1349.22,-331.22 1358.97,-335.36 1353.93,-326.04 1349.22,-331.22"/>
</g>
<!-- Node118 -->
<g id="node18" class="node">
<title>Node118</title>
<g id="a_node18"><a xlink:href="DWARFLinkerDeclContext_8cpp.html" target="_top" xlink:title="lib/DWARFLinker/DWARFLinker\lDeclContext.cpp">
<polygon fill="none" stroke="black" points="2234.5,-62 2234.5,-92 2394.5,-92 2394.5,-62 2234.5,-62"/>
<text text-anchor="start" x="2242.5" y="-80" font-family="Helvetica,sans-Serif" font-size="10.00">lib/DWARFLinker/DWARFLinker</text>
<text text-anchor="middle" x="2314.5" y="-69" font-family="Helvetica,sans-Serif" font-size="10.00">DeclContext.cpp</text>
</a>
</g>
</g>
<!-- Node102&#45;&gt;Node118 -->
<g id="edge54" class="edge">
<title>Node102&#45;&gt;Node118</title>
<path fill="none" stroke="midnightblue" d="M1446.02,-344.97C1547.27,-337.9 1725.33,-322.57 1785.5,-299 1807.44,-290.41 1806.43,-276.24 1828.5,-268 1912.11,-236.79 2153.63,-280.58 2228.5,-232 2279.88,-198.66 2303.47,-123.42 2311.33,-92.1"/>
<polygon fill="midnightblue" stroke="midnightblue" points="1445.6,-341.49 1435.87,-345.67 1446.09,-348.47 1445.6,-341.49"/>
</g>
<!-- Node125 -->
<g id="node25" class="node">
<title>Node125</title>
<g id="a_node25"><a xlink:href="DWARFTypeUnit_8h.html" target="_top" xlink:title="include/llvm/DebugInfo\l/DWARF/DWARFTypeUnit.h">
<polygon fill="none" stroke="black" points="1106.5,-268.5 1106.5,-298.5 1252.5,-298.5 1252.5,-268.5 1106.5,-268.5"/>
<text text-anchor="start" x="1114.5" y="-286.5" font-family="Helvetica,sans-Serif" font-size="10.00">include/llvm/DebugInfo</text>
<text text-anchor="middle" x="1179.5" y="-275.5" font-family="Helvetica,sans-Serif" font-size="10.00">/DWARF/DWARFTypeUnit.h</text>
</a>
</g>
</g>
<!-- Node102&#45;&gt;Node125 -->
<g id="edge33" class="edge">
<title>Node102&#45;&gt;Node125</title>
<path fill="none" stroke="midnightblue" d="M1321.54,-332.09C1290.23,-321.6 1250.86,-308.41 1221.51,-298.58"/>
<polygon fill="midnightblue" stroke="midnightblue" points="1320.81,-335.54 1331.4,-335.4 1323.03,-328.9 1320.81,-335.54"/>
</g>
<!-- Node126 -->
<g id="node26" class="node">
<title>Node126</title>
<g id="a_node26"><a xlink:href="DWARFTypeUnit_8cpp.html" target="_top" xlink:title="lib/DebugInfo/DWARF\l/DWARFTypeUnit.cpp">
<polygon fill="none" stroke="black" points="482.5,-201.5 482.5,-231.5 598.5,-231.5 598.5,-201.5 482.5,-201.5"/>
<text text-anchor="start" x="490.5" y="-219.5" font-family="Helvetica,sans-Serif" font-size="10.00">lib/DebugInfo/DWARF</text>
<text text-anchor="middle" x="540.5" y="-208.5" font-family="Helvetica,sans-Serif" font-size="10.00">/DWARFTypeUnit.cpp</text>
</a>
</g>
</g>
<!-- Node102&#45;&gt;Node126 -->
<g id="edge52" class="edge">
<title>Node102&#45;&gt;Node126</title>
<path fill="none" stroke="midnightblue" d="M1301.17,-348.23C1088.72,-344.14 479.62,-329.76 450.5,-299 426.66,-273.82 470.62,-247.35 505.09,-231.64"/>
<polygon fill="midnightblue" stroke="midnightblue" points="1301.22,-351.73 1311.28,-348.42 1301.35,-344.73 1301.22,-351.73"/>
</g>
<!-- Node127 -->
<g id="node27" class="node">
<title>Node127</title>
<g id="a_node27"><a xlink:href="DWARFLinkerCompileUnit_8h.html" target="_top" xlink:title="include/llvm/DWARFLinker\l/DWARFLinkerCompileUnit.h">
<polygon fill="none" stroke="black" points="2073.5,-201.5 2073.5,-231.5 2219.5,-231.5 2219.5,-201.5 2073.5,-201.5"/>
<text text-anchor="start" x="2081.5" y="-219.5" font-family="Helvetica,sans-Serif" font-size="10.00">include/llvm/DWARFLinker</text>
<text text-anchor="middle" x="2146.5" y="-208.5" font-family="Helvetica,sans-Serif" font-size="10.00">/DWARFLinkerCompileUnit.h</text>
</a>
</g>
</g>
<!-- Node102&#45;&gt;Node127 -->
<g id="edge38" class="edge">
<title>Node102&#45;&gt;Node127</title>
<path fill="none" stroke="midnightblue" d="M1445.8,-349.01C1522.82,-346.38 1647.21,-336.04 1747.5,-299 1771.32,-290.2 1771.72,-276.9 1795.5,-268 1887.32,-233.63 2000.73,-222.48 2073.34,-218.96"/>
<polygon fill="midnightblue" stroke="midnightblue" points="1445.61,-345.51 1435.72,-349.32 1445.82,-352.51 1445.61,-345.51"/>
</g>
<!-- Node130 -->
<g id="node30" class="node">
<title>Node130</title>
<g id="a_node30"><a xlink:href="DWARFAbbreviationDeclaration_8cpp.html" target="_top" xlink:title="lib/DebugInfo/DWARF\l/DWARFAbbreviationDeclaration.cpp">
<polygon fill="none" stroke="black" points="460,-268.5 460,-298.5 639,-298.5 639,-268.5 460,-268.5"/>
<text text-anchor="start" x="468" y="-286.5" font-family="Helvetica,sans-Serif" font-size="10.00">lib/DebugInfo/DWARF</text>
<text text-anchor="middle" x="549.5" y="-275.5" font-family="Helvetica,sans-Serif" font-size="10.00">/DWARFAbbreviationDeclaration.cpp</text>
</a>
</g>
</g>
<!-- Node102&#45;&gt;Node130 -->
<g id="edge44" class="edge">
<title>Node102&#45;&gt;Node130</title>
<path fill="none" stroke="midnightblue" d="M1300.91,-346.31C1170.04,-340.16 885.98,-324.9 647.5,-299 644.76,-298.7 641.99,-298.39 639.19,-298.05"/>
<polygon fill="midnightblue" stroke="midnightblue" points="1301.05,-349.83 1311.2,-346.8 1301.38,-342.83 1301.05,-349.83"/>
</g>
<!-- Node131 -->
<g id="node31" class="node">
<title>Node131</title>
<g id="a_node31"><a xlink:href="DWARFDebugAddr_8cpp.html" target="_top" xlink:title="lib/DebugInfo/DWARF\l/DWARFDebugAddr.cpp">
<polygon fill="none" stroke="black" points="657,-268.5 657,-298.5 782,-298.5 782,-268.5 657,-268.5"/>
<text text-anchor="start" x="665" y="-286.5" font-family="Helvetica,sans-Serif" font-size="10.00">lib/DebugInfo/DWARF</text>
<text text-anchor="middle" x="719.5" y="-275.5" font-family="Helvetica,sans-Serif" font-size="10.00">/DWARFDebugAddr.cpp</text>
</a>
</g>
</g>
<!-- Node102&#45;&gt;Node131 -->
<g id="edge45" class="edge">
<title>Node102&#45;&gt;Node131</title>
<path fill="none" stroke="midnightblue" d="M1301.2,-345.84C1190.87,-339.67 974.04,-325.22 791.5,-299 788.47,-298.56 785.38,-298.08 782.26,-297.57"/>
<polygon fill="midnightblue" stroke="midnightblue" points="1301.04,-349.34 1311.22,-346.39 1301.43,-342.35 1301.04,-349.34"/>
</g>
<!-- Node132 -->
<g id="node32" class="node">
<title>Node132</title>
<g id="a_node32"><a xlink:href="DWARFDebugInfoEntry_8cpp.html" target="_top" xlink:title="lib/DebugInfo/DWARF\l/DWARFDebugInfoEntry.cpp">
<polygon fill="none" stroke="black" points="800.5,-268.5 800.5,-298.5 944.5,-298.5 944.5,-268.5 800.5,-268.5"/>
<text text-anchor="start" x="808.5" y="-286.5" font-family="Helvetica,sans-Serif" font-size="10.00">lib/DebugInfo/DWARF</text>
<text text-anchor="middle" x="872.5" y="-275.5" font-family="Helvetica,sans-Serif" font-size="10.00">/DWARFDebugInfoEntry.cpp</text>
</a>
</g>
</g>
<!-- Node102&#45;&gt;Node132 -->
<g id="edge46" class="edge">
<title>Node102&#45;&gt;Node132</title>
<path fill="none" stroke="midnightblue" d="M1301.26,-342.09C1217.44,-333.2 1075.17,-317.19 953.5,-299 950.67,-298.58 947.8,-298.13 944.89,-297.67"/>
<polygon fill="midnightblue" stroke="midnightblue" points="1301.13,-345.6 1311.44,-343.17 1301.86,-338.63 1301.13,-345.6"/>
</g>
<!-- Node102&#45;&gt;Node133 -->
<g id="edge48" class="edge">
<title>Node102&#45;&gt;Node133</title>
<path fill="none" stroke="midnightblue" d="M1445.5,-342.75C1534.5,-334.09 1690.48,-317.93 1823.5,-299 1828.04,-298.35 1832.72,-297.65 1837.42,-296.92"/>
<polygon fill="midnightblue" stroke="midnightblue" points="1445.13,-339.26 1435.52,-343.71 1445.81,-346.23 1445.13,-339.26"/>
</g>
<!-- Node134 -->
<g id="node34" class="node">
<title>Node134</title>
<g id="a_node34"><a xlink:href="DWARFExpression_8cpp.html" target="_top" xlink:title="lib/DebugInfo/DWARF\l/DWARFExpression.cpp">
<polygon fill="none" stroke="black" points="963,-268.5 963,-298.5 1088,-298.5 1088,-268.5 963,-268.5"/>
<text text-anchor="start" x="971" y="-286.5" font-family="Helvetica,sans-Serif" font-size="10.00">lib/DebugInfo/DWARF</text>
<text text-anchor="middle" x="1025.5" y="-275.5" font-family="Helvetica,sans-Serif" font-size="10.00">/DWARFExpression.cpp</text>
</a>
</g>
</g>
<!-- Node102&#45;&gt;Node134 -->
<g id="edge50" class="edge">
<title>Node102&#45;&gt;Node134</title>
<path fill="none" stroke="midnightblue" d="M1301.11,-336.62C1245.4,-326.61 1166.51,-312.26 1097.5,-299 1094.49,-298.42 1091.42,-297.83 1088.32,-297.22"/>
<polygon fill="midnightblue" stroke="midnightblue" points="1300.77,-340.11 1311.23,-338.43 1302.01,-333.22 1300.77,-340.11"/>
</g>
<!-- Node103&#45;&gt;Node104 -->
<g id="edge3" class="edge">
<title>Node103&#45;&gt;Node104</title>
<path fill="none" stroke="midnightblue" d="M1399.05,-261.85C1390.09,-253.68 1381.29,-243.47 1376.5,-232 1367.29,-209.92 1371.55,-181.47 1375.5,-164.69"/>
<polygon fill="midnightblue" stroke="midnightblue" points="1396.98,-264.69 1406.87,-268.5 1401.52,-259.36 1396.98,-264.69"/>
</g>
<!-- Node105 -->
<g id="node5" class="node">
<title>Node105</title>
<g id="a_node5"><a xlink:href="DWARFLinker_8h.html" target="_top" xlink:title="include/llvm/DWARFLinker\l/DWARFLinker.h">
<polygon fill="none" stroke="black" points="2081,-62 2081,-92 2216,-92 2216,-62 2081,-62"/>
<text text-anchor="start" x="2089" y="-80" font-family="Helvetica,sans-Serif" font-size="10.00">include/llvm/DWARFLinker</text>
<text text-anchor="middle" x="2148.5" y="-69" font-family="Helvetica,sans-Serif" font-size="10.00">/DWARFLinker.h</text>
</a>
</g>
</g>
<!-- Node103&#45;&gt;Node105 -->
<g id="edge26" class="edge">
<title>Node103&#45;&gt;Node105</title>
<path fill="none" stroke="midnightblue" d="M1486.7,-265.71C1625.61,-226.31 1970.44,-128.5 2099.07,-92.02"/>
<polygon fill="midnightblue" stroke="midnightblue" points="1485.72,-262.35 1477.06,-268.44 1487.63,-269.08 1485.72,-262.35"/>
</g>
<!-- Node103&#45;&gt;Node107 -->
<g id="edge28" class="edge">
<title>Node103&#45;&gt;Node107</title>
<path fill="none" stroke="midnightblue" d="M1470.36,-264.48C1492.35,-255.08 1519.49,-243.22 1543.5,-232 1571.41,-218.96 1576.9,-212.46 1605.5,-201 1622.36,-194.25 1857.02,-122.97 1958.87,-92.11"/>
<polygon fill="midnightblue" stroke="midnightblue" points="1468.79,-261.35 1460.96,-268.49 1471.53,-267.79 1468.79,-261.35"/>
</g>
<!-- Node109 -->
<g id="node9" class="node">
<title>Node109</title>
<g id="a_node9"><a xlink:href="DWARFDebugAranges_8cpp.html" target="_top" xlink:title="lib/DebugInfo/DWARF\l/DWARFDebugAranges.cpp">
<polygon fill="none" stroke="black" points="1377.5,-62 1377.5,-92 1517.5,-92 1517.5,-62 1377.5,-62"/>
<text text-anchor="start" x="1385.5" y="-80" font-family="Helvetica,sans-Serif" font-size="10.00">lib/DebugInfo/DWARF</text>
<text text-anchor="middle" x="1447.5" y="-69" font-family="Helvetica,sans-Serif" font-size="10.00">/DWARFDebugAranges.cpp</text>
</a>
</g>
</g>
<!-- Node103&#45;&gt;Node109 -->
<g id="edge29" class="edge">
<title>Node103&#45;&gt;Node109</title>
<path fill="none" stroke="midnightblue" d="M1487.12,-264.09C1501.87,-256.56 1515.9,-246.18 1524.5,-232 1554.43,-182.68 1495.47,-120.19 1464.63,-92.43"/>
<polygon fill="midnightblue" stroke="midnightblue" points="1485.45,-261 1477.88,-268.42 1488.42,-267.34 1485.45,-261"/>
</g>
<!-- Node103&#45;&gt;Node114 -->
<g id="edge30" class="edge">
<title>Node103&#45;&gt;Node114</title>
<path fill="none" stroke="midnightblue" d="M1337.12,-270.93C1241.35,-258.36 1102.47,-239.12 1092.5,-232 1052.55,-203.46 1082.97,-160.29 1041.5,-134 955.29,-79.34 224.16,-114.94 123.5,-98 115.12,-96.59 106.31,-94.42 97.95,-92.03"/>
<polygon fill="midnightblue" stroke="midnightblue" points="1336.75,-274.41 1347.12,-272.24 1337.66,-267.47 1336.75,-274.41"/>
</g>
<!-- Node115 -->
<g id="node15" class="node">
<title>Node115</title>
<g id="a_node15"><a xlink:href="DWARFVerifier_8cpp.html" target="_top" xlink:title="lib/DebugInfo/DWARF\l/DWARFVerifier.cpp">
<polygon fill="none" stroke="black" points="133,-62 133,-92 248,-92 248,-62 133,-62"/>
<text text-anchor="start" x="141" y="-80" font-family="Helvetica,sans-Serif" font-size="10.00">lib/DebugInfo/DWARF</text>
<text text-anchor="middle" x="190.5" y="-69" font-family="Helvetica,sans-Serif" font-size="10.00">/DWARFVerifier.cpp</text>
</a>
</g>
</g>
<!-- Node103&#45;&gt;Node115 -->
<g id="edge31" class="edge">
<title>Node103&#45;&gt;Node115</title>
<path fill="none" stroke="midnightblue" d="M1402.75,-261.95C1354.54,-222.01 1251.92,-137.51 1242.5,-134 1037.02,-57.49 472.77,-134.09 256.5,-98 248.12,-96.6 239.3,-94.44 230.95,-92.05"/>
<polygon fill="midnightblue" stroke="midnightblue" points="1400.61,-264.72 1410.54,-268.41 1405.08,-259.33 1400.61,-264.72"/>
</g>
<!-- Node122 -->
<g id="node22" class="node">
<title>Node122</title>
<g id="a_node22"><a xlink:href="DWARFDebugLine_8h.html" target="_top" xlink:title="include/llvm/DebugInfo\l/DWARF/DWARFDebugLine.h">
<polygon fill="none" stroke="black" points="1101.5,-201.5 1101.5,-231.5 1253.5,-231.5 1253.5,-201.5 1101.5,-201.5"/>
<text text-anchor="start" x="1109.5" y="-219.5" font-family="Helvetica,sans-Serif" font-size="10.00">include/llvm/DebugInfo</text>
<text text-anchor="middle" x="1177.5" y="-208.5" font-family="Helvetica,sans-Serif" font-size="10.00">/DWARF/DWARFDebugLine.h</text>
</a>
</g>
</g>
<!-- Node103&#45;&gt;Node122 -->
<g id="edge21" class="edge">
<title>Node103&#45;&gt;Node122</title>
<path fill="none" stroke="midnightblue" d="M1363.72,-265.92C1322.92,-255.31 1270.57,-241.7 1231.77,-231.61"/>
<polygon fill="midnightblue" stroke="midnightblue" points="1363,-269.35 1373.56,-268.48 1364.76,-262.57 1363,-269.35"/>
</g>
<!-- Node124 -->
<g id="node24" class="node">
<title>Node124</title>
<g id="a_node24"><a xlink:href="DWARFCompileUnit_8cpp.html" target="_top" xlink:title="lib/DebugInfo/DWARF\l/DWARFCompileUnit.cpp">
<polygon fill="none" stroke="black" points="1385.5,-201.5 1385.5,-231.5 1515.5,-231.5 1515.5,-201.5 1385.5,-201.5"/>
<text text-anchor="start" x="1393.5" y="-219.5" font-family="Helvetica,sans-Serif" font-size="10.00">lib/DebugInfo/DWARF</text>
<text text-anchor="middle" x="1450.5" y="-208.5" font-family="Helvetica,sans-Serif" font-size="10.00">/DWARFCompileUnit.cpp</text>
</a>
</g>
</g>
<!-- Node103&#45;&gt;Node124 -->
<g id="edge27" class="edge">
<title>Node103&#45;&gt;Node124</title>
<path fill="none" stroke="midnightblue" d="M1435.92,-258.7C1439.15,-249.59 1442.72,-239.49 1445.52,-231.58"/>
<polygon fill="midnightblue" stroke="midnightblue" points="1432.53,-257.8 1432.49,-268.4 1439.13,-260.14 1432.53,-257.8"/>
</g>
<!-- Node104&#45;&gt;Node105 -->
<g id="edge4" class="edge">
<title>Node104&#45;&gt;Node105</title>
<path fill="none" stroke="midnightblue" d="M1459.97,-147.35C1589.57,-144.44 1852.21,-134.17 2071.5,-98 2080.77,-96.47 2090.54,-94.34 2099.91,-92.04"/>
<polygon fill="midnightblue" stroke="midnightblue" points="1459.65,-143.85 1449.73,-147.57 1459.81,-150.85 1459.65,-143.85"/>
</g>
<!-- Node104&#45;&gt;Node107 -->
<g id="edge6" class="edge">
<title>Node104&#45;&gt;Node107</title>
<path fill="none" stroke="midnightblue" d="M1459.69,-136.18C1465.71,-135.39 1471.7,-134.66 1477.5,-134 1681.72,-110.95 1736.46,-135.6 1938.5,-98 1946.62,-96.49 1955.15,-94.37 1963.3,-92.07"/>
<polygon fill="midnightblue" stroke="midnightblue" points="1459,-132.74 1449.55,-137.54 1459.93,-139.68 1459,-132.74"/>
</g>
<!-- Node108 -->
<g id="node8" class="node">
<title>Node108</title>
<g id="a_node8"><a xlink:href="DWARFDataExtractor_8cpp.html" target="_top" xlink:title="lib/DebugInfo/DWARF\l/DWARFDataExtractor.cpp">
<polygon fill="none" stroke="black" points="1055,-62 1055,-92 1192,-92 1192,-62 1055,-62"/>
<text text-anchor="start" x="1063" y="-80" font-family="Helvetica,sans-Serif" font-size="10.00">lib/DebugInfo/DWARF</text>
<text text-anchor="middle" x="1123.5" y="-69" font-family="Helvetica,sans-Serif" font-size="10.00">/DWARFDataExtractor.cpp</text>
</a>
</g>
</g>
<!-- Node104&#45;&gt;Node108 -->
<g id="edge7" class="edge">
<title>Node104&#45;&gt;Node108</title>
<path fill="none" stroke="midnightblue" d="M1318.92,-131.82C1275.02,-119.73 1216.3,-103.56 1174.72,-92.11"/>
<polygon fill="midnightblue" stroke="midnightblue" points="1318.05,-135.21 1328.62,-134.49 1319.9,-128.46 1318.05,-135.21"/>
</g>
<!-- Node104&#45;&gt;Node109 -->
<g id="edge8" class="edge">
<title>Node104&#45;&gt;Node109</title>
<path fill="none" stroke="midnightblue" d="M1400.37,-126.86C1411.22,-115.61 1424.18,-102.18 1433.76,-92.25"/>
<polygon fill="midnightblue" stroke="midnightblue" points="1397.68,-124.61 1393.26,-134.23 1402.72,-129.47 1397.68,-124.61"/>
</g>
<!-- Node104&#45;&gt;Node110 -->
<g id="edge9" class="edge">
<title>Node104&#45;&gt;Node110</title>
<path fill="none" stroke="midnightblue" d="M1432.02,-131.36C1468.9,-119.32 1517.64,-103.41 1552.28,-92.11"/>
<polygon fill="midnightblue" stroke="midnightblue" points="1430.85,-128.06 1422.43,-134.49 1433.03,-134.71 1430.85,-128.06"/>
</g>
<!-- Node111 -->
<g id="node11" class="node">
<title>Node111</title>
<g id="a_node11"><a xlink:href="DWARFDebugRangeList_8cpp.html" target="_top" xlink:title="lib/DebugInfo/DWARF\l/DWARFDebugRangeList.cpp">
<polygon fill="none" stroke="black" points="1210,-62 1210,-92 1359,-92 1359,-62 1210,-62"/>
<text text-anchor="start" x="1218" y="-80" font-family="Helvetica,sans-Serif" font-size="10.00">lib/DebugInfo/DWARF</text>
<text text-anchor="middle" x="1284.5" y="-69" font-family="Helvetica,sans-Serif" font-size="10.00">/DWARFDebugRangeList.cpp</text>
</a>
</g>
</g>
<!-- Node104&#45;&gt;Node111 -->
<g id="edge10" class="edge">
<title>Node104&#45;&gt;Node111</title>
<path fill="none" stroke="midnightblue" d="M1352.02,-128.11C1336.42,-116.53 1317.28,-102.33 1303.37,-92"/>
<polygon fill="midnightblue" stroke="midnightblue" points="1350.16,-131.08 1360.28,-134.23 1354.33,-125.46 1350.16,-131.08"/>
</g>
<!-- Node104&#45;&gt;Node112 -->
<g id="edge11" class="edge">
<title>Node104&#45;&gt;Node112</title>
<path fill="none" stroke="midnightblue" d="M1459.75,-136.8C1517.13,-127.82 1596,-114.24 1664.5,-98 1671.82,-96.26 1679.53,-94.2 1687,-92.06"/>
<polygon fill="midnightblue" stroke="midnightblue" points="1458.99,-133.38 1449.65,-138.37 1460.07,-140.29 1458.99,-133.38"/>
</g>
<!-- Node104&#45;&gt;Node113 -->
<g id="edge12" class="edge">
<title>Node104&#45;&gt;Node113</title>
<path fill="none" stroke="midnightblue" d="M1459.72,-136.4C1465.73,-135.56 1471.71,-134.75 1477.5,-134 1619.42,-115.52 1657.05,-125.49 1797.5,-98 1805.79,-96.38 1814.53,-94.26 1822.93,-92.01"/>
<polygon fill="midnightblue" stroke="midnightblue" points="1459,-132.97 1449.59,-137.83 1459.98,-139.9 1459,-132.97"/>
</g>
<!-- Node104&#45;&gt;Node114 -->
<g id="edge13" class="edge">
<title>Node104&#45;&gt;Node114</title>
<path fill="none" stroke="midnightblue" d="M1299.22,-140.06C1275.21,-137.78 1248.81,-135.53 1224.5,-134 980.19,-118.59 365.03,-137.84 123.5,-98 115.11,-96.62 106.3,-94.46 97.95,-92.07"/>
<polygon fill="midnightblue" stroke="midnightblue" points="1299.07,-143.56 1309.36,-141.03 1299.74,-136.59 1299.07,-143.56"/>
</g>
<!-- Node104&#45;&gt;Node115 -->
<g id="edge14" class="edge">
<title>Node104&#45;&gt;Node115</title>
<path fill="none" stroke="midnightblue" d="M1299.38,-134.42C1298.08,-134.27 1296.78,-134.13 1295.5,-134 835.88,-86.59 712.32,-173.64 256.5,-98 248.11,-96.61 239.3,-94.45 230.95,-92.06"/>
<polygon fill="midnightblue" stroke="midnightblue" points="1299.12,-137.91 1309.47,-135.68 1299.98,-130.97 1299.12,-137.91"/>
</g>
<!-- Node116 -->
<g id="node16" class="node">
<title>Node116</title>
<g id="a_node16"><a xlink:href="SymbolizableObjectFile_8cpp.html" target="_top" xlink:title="lib/DebugInfo/Symbolize\l/SymbolizableObjectFile.cpp">
<polygon fill="none" stroke="black" points="266,-62 266,-92 407,-92 407,-62 266,-62"/>
<text text-anchor="start" x="274" y="-80" font-family="Helvetica,sans-Serif" font-size="10.00">lib/DebugInfo/Symbolize</text>
<text text-anchor="middle" x="336.5" y="-69" font-family="Helvetica,sans-Serif" font-size="10.00">/SymbolizableObjectFile.cpp</text>
</a>
</g>
</g>
<!-- Node104&#45;&gt;Node116 -->
<g id="edge15" class="edge">
<title>Node104&#45;&gt;Node116</title>
<path fill="none" stroke="midnightblue" d="M1299.38,-134.43C1298.08,-134.28 1296.78,-134.14 1295.5,-134 906.26,-92.62 802.86,-154.34 415.5,-98 405.7,-96.57 395.35,-94.43 385.49,-92.07"/>
<polygon fill="midnightblue" stroke="midnightblue" points="1299.11,-137.92 1309.47,-135.71 1299.99,-130.98 1299.11,-137.92"/>
</g>
<!-- Node117 -->
<g id="node17" class="node">
<title>Node117</title>
<g id="a_node17"><a xlink:href="Symbolize_8cpp.html" target="_top" xlink:title="lib/DebugInfo/Symbolize\l/Symbolize.cpp">
<polygon fill="none" stroke="black" points="425,-62 425,-92 548,-92 548,-62 425,-62"/>
<text text-anchor="start" x="433" y="-80" font-family="Helvetica,sans-Serif" font-size="10.00">lib/DebugInfo/Symbolize</text>
<text text-anchor="middle" x="486.5" y="-69" font-family="Helvetica,sans-Serif" font-size="10.00">/Symbolize.cpp</text>
</a>
</g>
</g>
<!-- Node104&#45;&gt;Node117 -->
<g id="edge16" class="edge">
<title>Node104&#45;&gt;Node117</title>
<path fill="none" stroke="midnightblue" d="M1299.38,-134.45C1298.08,-134.29 1296.78,-134.14 1295.5,-134 968.65,-97.96 880.95,-151.52 556.5,-98 547.77,-96.56 538.58,-94.41 529.84,-92.05"/>
<polygon fill="midnightblue" stroke="midnightblue" points="1299.1,-137.94 1309.46,-135.75 1300,-131 1299.1,-137.94"/>
</g>
<!-- Node104&#45;&gt;Node118 -->
<g id="edge17" class="edge">
<title>Node104&#45;&gt;Node118</title>
<path fill="none" stroke="midnightblue" d="M1459.61,-148.01C1610.32,-146.15 1946.01,-137.48 2225.5,-98 2236.16,-96.49 2247.44,-94.38 2258.25,-92.08"/>
<polygon fill="midnightblue" stroke="midnightblue" points="1459.48,-144.52 1449.52,-148.13 1459.56,-151.51 1459.48,-144.52"/>
</g>
<!-- Node119 -->
<g id="node19" class="node">
<title>Node119</title>
<g id="a_node19"><a xlink:href="IntelJITEventListener_8cpp.html" target="_top" xlink:title="lib/ExecutionEngine\l/IntelJITEvents/IntelJITEvent\lListener.cpp">
<polygon fill="none" stroke="black" points="566,-56.5 566,-97.5 711,-97.5 711,-56.5 566,-56.5"/>
<text text-anchor="start" x="574" y="-85.5" font-family="Helvetica,sans-Serif" font-size="10.00">lib/ExecutionEngine</text>
<text text-anchor="start" x="574" y="-74.5" font-family="Helvetica,sans-Serif" font-size="10.00">/IntelJITEvents/IntelJITEvent</text>
<text text-anchor="middle" x="638.5" y="-63.5" font-family="Helvetica,sans-Serif" font-size="10.00">Listener.cpp</text>
</a>
</g>
</g>
<!-- Node104&#45;&gt;Node119 -->
<g id="edge18" class="edge">
<title>Node104&#45;&gt;Node119</title>
<path fill="none" stroke="midnightblue" d="M1299.37,-134.47C1298.07,-134.31 1296.78,-134.15 1295.5,-134 1040.74,-104.14 973.03,-136.9 719.5,-98 716.78,-97.58 714.02,-97.12 711.23,-96.61"/>
<polygon fill="midnightblue" stroke="midnightblue" points="1299.08,-137.96 1309.46,-135.82 1300.01,-131.02 1299.08,-137.96"/>
</g>
<!-- Node120 -->
<g id="node20" class="node">
<title>Node120</title>
<g id="a_node20"><a xlink:href="OProfileJITEventListener_8cpp.html" target="_top" xlink:title="lib/ExecutionEngine\l/OProfileJIT/OProfileJITEvent\lListener.cpp">
<polygon fill="none" stroke="black" points="729,-56.5 729,-97.5 876,-97.5 876,-56.5 729,-56.5"/>
<text text-anchor="start" x="737" y="-85.5" font-family="Helvetica,sans-Serif" font-size="10.00">lib/ExecutionEngine</text>
<text text-anchor="start" x="737" y="-74.5" font-family="Helvetica,sans-Serif" font-size="10.00">/OProfileJIT/OProfileJITEvent</text>
<text text-anchor="middle" x="802.5" y="-63.5" font-family="Helvetica,sans-Serif" font-size="10.00">Listener.cpp</text>
</a>
</g>
</g>
<!-- Node104&#45;&gt;Node120 -->
<g id="edge19" class="edge">
<title>Node104&#45;&gt;Node120</title>
<path fill="none" stroke="midnightblue" d="M1299.37,-134.51C1298.07,-134.34 1296.78,-134.17 1295.5,-134 1113.66,-110.38 1065.43,-127.81 884.5,-98 881.75,-97.55 878.96,-97.05 876.15,-96.52"/>
<polygon fill="midnightblue" stroke="midnightblue" points="1299.05,-138 1309.44,-135.96 1300.04,-131.07 1299.05,-138"/>
</g>
<!-- Node121 -->
<g id="node21" class="node">
<title>Node121</title>
<g id="a_node21"><a xlink:href="PerfJITEventListener_8cpp.html" target="_top" xlink:title="lib/ExecutionEngine\l/PerfJITEvents/PerfJITEvent\lListener.cpp">
<polygon fill="none" stroke="black" points="894,-56.5 894,-97.5 1037,-97.5 1037,-56.5 894,-56.5"/>
<text text-anchor="start" x="902" y="-85.5" font-family="Helvetica,sans-Serif" font-size="10.00">lib/ExecutionEngine</text>
<text text-anchor="start" x="902" y="-74.5" font-family="Helvetica,sans-Serif" font-size="10.00">/PerfJITEvents/PerfJITEvent</text>
<text text-anchor="middle" x="965.5" y="-63.5" font-family="Helvetica,sans-Serif" font-size="10.00">Listener.cpp</text>
</a>
</g>
</g>
<!-- Node104&#45;&gt;Node121 -->
<g id="edge20" class="edge">
<title>Node104&#45;&gt;Node121</title>
<path fill="none" stroke="midnightblue" d="M1299.35,-134.61C1298.06,-134.41 1296.77,-134.2 1295.5,-134 1184.62,-116.45 1155.65,-119.64 1045.5,-98 1042.83,-97.48 1040.12,-96.92 1037.38,-96.34"/>
<polygon fill="midnightblue" stroke="midnightblue" points="1298.97,-138.1 1309.4,-136.25 1300.09,-131.19 1298.97,-138.1"/>
</g>
<!-- Node106 -->
<g id="node6" class="node">
<title>Node106</title>
<g id="a_node6"><a xlink:href="DWARFLinker_8cpp.html" target="_top" xlink:title="lib/DWARFLinker/DWARFLinker.cpp">
<polygon fill="none" stroke="black" points="2059,-0.5 2059,-19.5 2238,-19.5 2238,-0.5 2059,-0.5"/>
<text text-anchor="middle" x="2148.5" y="-7.5" font-family="Helvetica,sans-Serif" font-size="10.00">lib/DWARFLinker/DWARFLinker.cpp</text>
</a>
</g>
</g>
<!-- Node105&#45;&gt;Node106 -->
<g id="edge5" class="edge">
<title>Node105&#45;&gt;Node106</title>
<path fill="none" stroke="midnightblue" d="M2148.5,-51.75C2148.5,-40.52 2148.5,-27.88 2148.5,-19.69"/>
<polygon fill="midnightblue" stroke="midnightblue" points="2145,-51.9 2148.5,-61.9 2152,-51.9 2145,-51.9"/>
</g>
<!-- Node122&#45;&gt;Node104 -->
<g id="edge22" class="edge">
<title>Node122&#45;&gt;Node104</title>
<path fill="none" stroke="midnightblue" d="M1231.18,-198.23C1263.85,-187.71 1305.07,-174.45 1335.75,-164.58"/>
<polygon fill="midnightblue" stroke="midnightblue" points="1229.78,-195 1221.33,-201.4 1231.92,-201.66 1229.78,-195"/>
</g>
<!-- Node122&#45;&gt;Node107 -->
<g id="edge23" class="edge">
<title>Node122&#45;&gt;Node107</title>
<path fill="none" stroke="midnightblue" d="M1263.55,-200.04C1394.55,-176.5 1629.22,-134.34 1631.5,-134 1767.39,-113.85 1803.95,-125.75 1938.5,-98 1946.35,-96.38 1954.6,-94.27 1962.53,-92.02"/>
<polygon fill="midnightblue" stroke="midnightblue" points="1262.75,-196.62 1253.52,-201.84 1263.99,-203.51 1262.75,-196.62"/>
</g>
<!-- Node122&#45;&gt;Node115 -->
<g id="edge25" class="edge">
<title>Node122&#45;&gt;Node115</title>
<path fill="none" stroke="midnightblue" d="M1203.31,-194.64C1222.14,-176.98 1241.63,-151.78 1224.5,-134 1187.16,-95.25 309.58,-106.88 256.5,-98 248.12,-96.6 239.31,-94.44 230.95,-92.04"/>
<polygon fill="midnightblue" stroke="midnightblue" points="1200.79,-192.2 1195.66,-201.47 1205.45,-197.42 1200.79,-192.2"/>
</g>
<!-- Node123 -->
<g id="node23" class="node">
<title>Node123</title>
<g id="a_node23"><a xlink:href="DWARFDebugLine_8cpp.html" target="_top" xlink:title="lib/DebugInfo/DWARF\l/DWARFDebugLine.cpp">
<polygon fill="none" stroke="black" points="1093.5,-134.5 1093.5,-164.5 1215.5,-164.5 1215.5,-134.5 1093.5,-134.5"/>
<text text-anchor="start" x="1101.5" y="-152.5" font-family="Helvetica,sans-Serif" font-size="10.00">lib/DebugInfo/DWARF</text>
<text text-anchor="middle" x="1154.5" y="-141.5" font-family="Helvetica,sans-Serif" font-size="10.00">/DWARFDebugLine.cpp</text>
</a>
</g>
</g>
<!-- Node122&#45;&gt;Node123 -->
<g id="edge24" class="edge">
<title>Node122&#45;&gt;Node123</title>
<path fill="none" stroke="midnightblue" d="M1169.08,-191.7C1165.85,-182.59 1162.28,-172.49 1159.48,-164.58"/>
<polygon fill="midnightblue" stroke="midnightblue" points="1165.87,-193.14 1172.51,-201.4 1172.47,-190.8 1165.87,-193.14"/>
</g>
<!-- Node125&#45;&gt;Node104 -->
<g id="edge34" class="edge">
<title>Node125&#45;&gt;Node104</title>
<path fill="none" stroke="midnightblue" d="M1127.57,-263.78C1113.73,-256.15 1100.43,-245.78 1092.5,-232 1085.63,-220.06 1083.64,-211.55 1092.5,-201 1106.36,-184.48 1229.07,-167.57 1309.48,-158.11"/>
<polygon fill="midnightblue" stroke="midnightblue" points="1126.19,-267.01 1136.69,-268.42 1129.36,-260.77 1126.19,-267.01"/>
</g>
<!-- Node125&#45;&gt;Node114 -->
<g id="edge37" class="edge">
<title>Node125&#45;&gt;Node114</title>
<path fill="none" stroke="midnightblue" d="M1096.05,-267.92C846.68,-224.37 124.25,-98.18 123.5,-98 116.28,-96.28 108.68,-94.22 101.32,-92.09"/>
<polygon fill="midnightblue" stroke="midnightblue" points="1095.69,-271.41 1106.14,-269.69 1096.89,-264.52 1095.69,-271.41"/>
</g>
<!-- Node125&#45;&gt;Node122 -->
<g id="edge35" class="edge">
<title>Node125&#45;&gt;Node122</title>
<path fill="none" stroke="midnightblue" d="M1178.75,-258.11C1178.47,-249.15 1178.17,-239.32 1177.93,-231.58"/>
<polygon fill="midnightblue" stroke="midnightblue" points="1175.26,-258.51 1179.07,-268.4 1182.26,-258.29 1175.26,-258.51"/>
</g>
<!-- Node125&#45;&gt;Node126 -->
<g id="edge36" class="edge">
<title>Node125&#45;&gt;Node126</title>
<path fill="none" stroke="midnightblue" d="M1096.16,-268.04C908.08,-243.47 698.33,-227.88 598.71,-221.2"/>
<polygon fill="midnightblue" stroke="midnightblue" points="1095.86,-271.53 1106.23,-269.36 1096.77,-264.59 1095.86,-271.53"/>
</g>
<!-- Node128 -->
<g id="node28" class="node">
<title>Node128</title>
<g id="a_node28"><a xlink:href="DWARFLinkerDeclContext_8h.html" target="_top" xlink:title="include/llvm/DWARFLinker\l/DWARFLinkerDeclContext.h">
<polygon fill="none" stroke="black" points="2073.5,-134.5 2073.5,-164.5 2219.5,-164.5 2219.5,-134.5 2073.5,-134.5"/>
<text text-anchor="start" x="2081.5" y="-152.5" font-family="Helvetica,sans-Serif" font-size="10.00">include/llvm/DWARFLinker</text>
<text text-anchor="middle" x="2146.5" y="-141.5" font-family="Helvetica,sans-Serif" font-size="10.00">/DWARFLinkerDeclContext.h</text>
</a>
</g>
</g>
<!-- Node127&#45;&gt;Node128 -->
<g id="edge39" class="edge">
<title>Node127&#45;&gt;Node128</title>
<path fill="none" stroke="midnightblue" d="M2146.5,-191.11C2146.5,-182.15 2146.5,-172.32 2146.5,-164.58"/>
<polygon fill="midnightblue" stroke="midnightblue" points="2143,-191.4 2146.5,-201.4 2150,-191.4 2143,-191.4"/>
</g>
<!-- Node129 -->
<g id="node29" class="node">
<title>Node129</title>
<g id="a_node29"><a xlink:href="DWARFLinkerCompileUnit_8cpp.html" target="_top" xlink:title="lib/DWARFLinker/DWARFLinker\lCompileUnit.cpp">
<polygon fill="none" stroke="black" points="2412.5,-62 2412.5,-92 2572.5,-92 2572.5,-62 2412.5,-62"/>
<text text-anchor="start" x="2420.5" y="-80" font-family="Helvetica,sans-Serif" font-size="10.00">lib/DWARFLinker/DWARFLinker</text>
<text text-anchor="middle" x="2492.5" y="-69" font-family="Helvetica,sans-Serif" font-size="10.00">CompileUnit.cpp</text>
</a>
</g>
</g>
<!-- Node127&#45;&gt;Node129 -->
<g id="edge43" class="edge">
<title>Node127&#45;&gt;Node129</title>
<path fill="none" stroke="midnightblue" d="M2191.3,-197.7C2260.95,-170.02 2393.77,-117.23 2457.15,-92.05"/>
<polygon fill="midnightblue" stroke="midnightblue" points="2189.9,-194.49 2181.9,-201.43 2192.49,-200.99 2189.9,-194.49"/>
</g>
<!-- Node128&#45;&gt;Node105 -->
<g id="edge40" class="edge">
<title>Node128&#45;&gt;Node105</title>
<path fill="none" stroke="midnightblue" d="M2147.19,-124.23C2147.49,-113.57 2147.84,-101.41 2148.1,-92.25"/>
<polygon fill="midnightblue" stroke="midnightblue" points="2143.69,-124.14 2146.9,-134.23 2150.69,-124.34 2143.69,-124.14"/>
</g>
<!-- Node128&#45;&gt;Node118 -->
<g id="edge42" class="edge">
<title>Node128&#45;&gt;Node118</title>
<path fill="none" stroke="midnightblue" d="M2189.4,-130.5C2217.85,-118.56 2254.65,-103.11 2280.96,-92.07"/>
<polygon fill="midnightblue" stroke="midnightblue" points="2187.96,-127.31 2180.09,-134.4 2190.67,-133.76 2187.96,-127.31"/>
</g>
<!-- Node128&#45;&gt;Node129 -->
<g id="edge41" class="edge">
<title>Node128&#45;&gt;Node129</title>
<path fill="none" stroke="midnightblue" d="M2229.59,-132.76C2279.97,-123.07 2345.52,-110.21 2403.5,-98 2412.33,-96.14 2421.65,-94.12 2430.78,-92.1"/>
<polygon fill="midnightblue" stroke="midnightblue" points="2228.88,-129.34 2219.72,-134.66 2230.2,-136.21 2228.88,-129.34"/>
</g>
</g>
</svg>
