<?xml version="1.0" encoding="UTF-8" standalone="no"?>
<!DOCTYPE svg PUBLIC "-//W3C//DTD SVG 1.1//EN"
 "http://www.w3.org/Graphics/SVG/1.1/DTD/svg11.dtd">
<!-- Generated by graphviz version 2.43.0 (0)
 -->
<!-- Title: lib/Object/ELFObjectFile.cpp Pages: 1 -->
<svg width="4914pt" height="655pt"
 viewBox="0.00 0.00 4914.00 655.00" xmlns="http://www.w3.org/2000/svg" xmlns:xlink="http://www.w3.org/1999/xlink">
<g id="graph0" class="graph" transform="scale(1 1) rotate(0) translate(4 651)">
<title>lib/Object/ELFObjectFile.cpp</title>
<!-- Node0 -->
<g id="node1" class="node">
<title>Node0</title>
<polygon fill="#bfbfbf" stroke="black" points="4135,-627.5 4135,-646.5 4277,-646.5 4277,-627.5 4135,-627.5"/>
<text text-anchor="middle" x="4206" y="-634.5" font-family="Helvetica,sans-Serif" font-size="10.00">lib/Object/ELFObjectFile.cpp</text>
</g>
<!-- Node1 -->
<g id="node2" class="node">
<title>Node1</title>
<g id="a_node2"><a xlink:href="ELFObjectFile_8h.html" target="_top" xlink:title="llvm/Object/ELFObjectFile.h">
<polygon fill="none" stroke="black" points="3398,-571.5 3398,-590.5 3538,-590.5 3538,-571.5 3398,-571.5"/>
<text text-anchor="middle" x="3468" y="-578.5" font-family="Helvetica,sans-Serif" font-size="10.00">llvm/Object/ELFObjectFile.h</text>
</a>
</g>
</g>
<!-- Node0&#45;&gt;Node1 -->
<g id="edge1" class="edge">
<title>Node0&#45;&gt;Node1</title>
<path fill="none" stroke="midnightblue" d="M4134.9,-630.8C3996.87,-620.7 3693.46,-598.5 3548.37,-587.88"/>
<polygon fill="midnightblue" stroke="midnightblue" points="3548.43,-584.38 3538.2,-587.14 3547.92,-591.36 3548.43,-584.38"/>
</g>
<!-- Node20 -->
<g id="node6" class="node">
<title>Node20</title>
<polygon fill="none" stroke="#bfbfbf" points="3254,-0.5 3254,-19.5 3294,-19.5 3294,-0.5 3254,-0.5"/>
<text text-anchor="middle" x="3274" y="-7.5" font-family="Helvetica,sans-Serif" font-size="10.00">utility</text>
</g>
<!-- Node0&#45;&gt;Node20 -->
<g id="edge195" class="edge">
<title>Node0&#45;&gt;Node20</title>
<path fill="none" stroke="midnightblue" d="M4277.24,-634.82C4367.56,-632.01 4516.85,-622.58 4561,-591 4618.56,-549.84 4596.16,-509.59 4631,-448 4684.17,-354 4727.83,-346.11 4763,-244 4774.02,-211.99 4784.13,-197.76 4768,-168 4724.52,-87.81 4683,-83.45 4596,-56 4469.18,-15.99 3489.52,-11.54 3304.2,-11.06"/>
<polygon fill="midnightblue" stroke="midnightblue" points="3304.09,-7.56 3294.08,-11.03 3304.07,-14.56 3304.09,-7.56"/>
</g>
<!-- Node29 -->
<g id="node7" class="node">
<title>Node29</title>
<g id="a_node7"><a xlink:href="MathExtras_8h.html" target="_top" xlink:title="llvm/Support/MathExtras.h">
<polygon fill="none" stroke="red" points="2596.5,-112.5 2596.5,-131.5 2729.5,-131.5 2729.5,-112.5 2596.5,-112.5"/>
<text text-anchor="middle" x="2663" y="-119.5" font-family="Helvetica,sans-Serif" font-size="10.00">llvm/Support/MathExtras.h</text>
</a>
</g>
</g>
<!-- Node0&#45;&gt;Node29 -->
<g id="edge178" class="edge">
<title>Node0&#45;&gt;Node29</title>
<path fill="none" stroke="midnightblue" d="M4134.83,-636.19C3858.73,-636.61 2858.27,-634.97 2544,-591 2419.04,-573.52 2269,-646.67 2269,-520.5 2269,-520.5 2269,-520.5 2269,-457 2269,-271.47 2526.34,-167.67 2625.07,-134.67"/>
<polygon fill="midnightblue" stroke="midnightblue" points="2626.26,-137.97 2634.66,-131.52 2624.07,-131.32 2626.26,-137.97"/>
</g>
<!-- Node21 -->
<g id="node8" class="node">
<title>Node21</title>
<polygon fill="none" stroke="#bfbfbf" points="3700,-56.5 3700,-75.5 3756,-75.5 3756,-56.5 3700,-56.5"/>
<text text-anchor="middle" x="3728" y="-63.5" font-family="Helvetica,sans-Serif" font-size="10.00">algorithm</text>
</g>
<!-- Node0&#45;&gt;Node21 -->
<g id="edge189" class="edge">
<title>Node0&#45;&gt;Node21</title>
<path fill="none" stroke="midnightblue" d="M4277.2,-635.46C4363.33,-633.31 4501.49,-624.54 4539,-591 4582.36,-552.23 4615.08,-391.6 4598,-336 4547.17,-170.58 4267.97,-122.92 4230,-112 4142.9,-86.94 3868.02,-72.97 3766.32,-68.55"/>
<polygon fill="midnightblue" stroke="midnightblue" points="3766.33,-65.05 3756.19,-68.12 3766.03,-72.04 3766.33,-65.05"/>
</g>
<!-- Node10 -->
<g id="node11" class="node">
<title>Node10</title>
<g id="a_node11"><a xlink:href="Support_2ErrorHandling_8h.html" target="_top" xlink:title="llvm/Support/ErrorHandling.h">
<polygon fill="none" stroke="red" points="4417,-56.5 4417,-75.5 4559,-75.5 4559,-56.5 4417,-56.5"/>
<text text-anchor="middle" x="4488" y="-63.5" font-family="Helvetica,sans-Serif" font-size="10.00">llvm/Support/ErrorHandling.h</text>
</a>
</g>
</g>
<!-- Node0&#45;&gt;Node10 -->
<g id="edge177" class="edge">
<title>Node0&#45;&gt;Node10</title>
<path fill="none" stroke="midnightblue" d="M4277.1,-634.91C4407.3,-632.16 4678.72,-622.7 4767,-591 4818.52,-572.5 4868,-575.24 4868,-520.5 4868,-520.5 4868,-520.5 4868,-177 4868,-115.31 4680.88,-86.03 4569.25,-74.06"/>
<polygon fill="midnightblue" stroke="midnightblue" points="4569.34,-70.55 4559.03,-72.98 4568.61,-77.51 4569.34,-70.55"/>
</g>
<!-- Node14 -->
<g id="node12" class="node">
<title>Node14</title>
<polygon fill="none" stroke="#bfbfbf" points="4467.5,-0.5 4467.5,-19.5 4508.5,-19.5 4508.5,-0.5 4467.5,-0.5"/>
<text text-anchor="middle" x="4488" y="-7.5" font-family="Helvetica,sans-Serif" font-size="10.00">string</text>
</g>
<!-- Node0&#45;&gt;Node14 -->
<g id="edge193" class="edge">
<title>Node0&#45;&gt;Node14</title>
<path fill="none" stroke="midnightblue" d="M4277.22,-635.8C4416.04,-634.59 4717.68,-627.68 4814,-591 4862.14,-572.67 4906,-572.01 4906,-520.5 4906,-520.5 4906,-520.5 4906,-121 4906,-81.08 4879.64,-73.99 4844,-56 4787.28,-27.38 4594.95,-15.8 4519.11,-12.27"/>
<polygon fill="midnightblue" stroke="midnightblue" points="4518.94,-8.76 4508.8,-11.81 4518.63,-15.76 4518.94,-8.76"/>
</g>
<!-- Node16 -->
<g id="node13" class="node">
<title>Node16</title>
<polygon fill="none" stroke="#bfbfbf" points="3513.5,-56.5 3513.5,-75.5 3562.5,-75.5 3562.5,-56.5 3513.5,-56.5"/>
<text text-anchor="middle" x="3538" y="-63.5" font-family="Helvetica,sans-Serif" font-size="10.00">cstddef</text>
</g>
<!-- Node0&#45;&gt;Node16 -->
<g id="edge190" class="edge">
<title>Node0&#45;&gt;Node16</title>
<path fill="none" stroke="midnightblue" d="M4260.52,-627.44C4287.11,-621.02 4318.2,-609.95 4341,-591 4362.88,-572.82 4364.73,-562.5 4372,-535 4416.18,-367.85 4382.29,-270.42 4243,-168 4186,-126.09 4163.04,-127.45 4094,-112 4043.3,-100.66 3686.96,-76.71 3572.98,-69.26"/>
<polygon fill="midnightblue" stroke="midnightblue" points="3572.93,-65.75 3562.72,-68.59 3572.47,-72.74 3572.93,-65.75"/>
</g>
<!-- Node35 -->
<g id="node14" class="node">
<title>Node35</title>
<polygon fill="none" stroke="#bfbfbf" points="4234,-56.5 4234,-75.5 4286,-75.5 4286,-56.5 4234,-56.5"/>
<text text-anchor="middle" x="4260" y="-63.5" font-family="Helvetica,sans-Serif" font-size="10.00">memory</text>
</g>
<!-- Node0&#45;&gt;Node35 -->
<g id="edge192" class="edge">
<title>Node0&#45;&gt;Node35</title>
<path fill="none" stroke="midnightblue" d="M4277.13,-633.67C4397.02,-629.07 4633.98,-616.95 4713,-591 4770.32,-572.18 4829,-580.83 4829,-520.5 4829,-520.5 4829,-520.5 4829,-401 4829,-153.07 4422.26,-85.63 4296.56,-70.7"/>
<polygon fill="midnightblue" stroke="midnightblue" points="4296.64,-67.19 4286.3,-69.53 4295.84,-74.14 4296.64,-67.19"/>
</g>
<!-- Node41 -->
<g id="node16" class="node">
<title>Node41</title>
<polygon fill="none" stroke="#bfbfbf" points="243,-56.5 243,-75.5 289,-75.5 289,-56.5 243,-56.5"/>
<text text-anchor="middle" x="266" y="-63.5" font-family="Helvetica,sans-Serif" font-size="10.00">cstdint</text>
</g>
<!-- Node0&#45;&gt;Node41 -->
<g id="edge191" class="edge">
<title>Node0&#45;&gt;Node41</title>
<path fill="none" stroke="midnightblue" d="M4134.89,-635.74C3588.84,-633.65 81.4,-619.13 36,-591 6.09,-572.47 0,-555.68 0,-520.5 0,-520.5 0,-520.5 0,-233 0,-169.02 25.8,-149 78,-112 124.75,-78.87 192.77,-69.91 232.89,-67.62"/>
<polygon fill="midnightblue" stroke="midnightblue" points="233.11,-71.12 242.94,-67.16 232.79,-64.12 233.11,-71.12"/>
</g>
<!-- Node47 -->
<g id="node18" class="node">
<title>Node47</title>
<g id="a_node18"><a xlink:href="Triple_8h.html" target="_top" xlink:title="llvm/ADT/Triple.h">
<polygon fill="none" stroke="black" points="3735.5,-280.5 3735.5,-299.5 3828.5,-299.5 3828.5,-280.5 3735.5,-280.5"/>
<text text-anchor="middle" x="3782" y="-287.5" font-family="Helvetica,sans-Serif" font-size="10.00">llvm/ADT/Triple.h</text>
</a>
</g>
</g>
<!-- Node0&#45;&gt;Node47 -->
<g id="edge166" class="edge">
<title>Node0&#45;&gt;Node47</title>
<path fill="none" stroke="midnightblue" d="M4216.89,-627.42C4237.9,-609.82 4282,-567.31 4282,-520.5 4282,-520.5 4282,-520.5 4282,-457 4282,-418.58 4258,-411.67 4225,-392 4100.83,-317.99 3927.44,-298.18 3838.92,-292.9"/>
<polygon fill="midnightblue" stroke="midnightblue" points="3838.99,-289.4 3828.81,-292.34 3838.6,-296.39 3838.99,-289.4"/>
</g>
<!-- Node49 -->
<g id="node20" class="node">
<title>Node49</title>
<g id="a_node20"><a xlink:href="BinaryFormat_2ELF_8h.html" target="_top" xlink:title="llvm/BinaryFormat/ELF.h">
<polygon fill="none" stroke="red" points="1242.5,-336.5 1242.5,-355.5 1367.5,-355.5 1367.5,-336.5 1242.5,-336.5"/>
<text text-anchor="middle" x="1305" y="-343.5" font-family="Helvetica,sans-Serif" font-size="10.00">llvm/BinaryFormat/ELF.h</text>
</a>
</g>
</g>
<!-- Node0&#45;&gt;Node49 -->
<g id="edge167" class="edge">
<title>Node0&#45;&gt;Node49</title>
<path fill="none" stroke="midnightblue" d="M4134.84,-635.86C3599.77,-634.55 228,-622.28 228,-520.5 228,-520.5 228,-520.5 228,-457 228,-355.79 990.52,-347.02 1232.35,-346.79"/>
<polygon fill="midnightblue" stroke="midnightblue" points="1232.44,-350.29 1242.44,-346.78 1232.44,-343.29 1232.44,-350.29"/>
</g>
<!-- Node68 -->
<g id="node35" class="node">
<title>Node68</title>
<g id="a_node35"><a xlink:href="SubtargetFeature_8h.html" target="_top" xlink:title="llvm/MC/SubtargetFeature.h">
<polygon fill="none" stroke="red" points="4076,-392.5 4076,-411.5 4216,-411.5 4216,-392.5 4076,-392.5"/>
<text text-anchor="middle" x="4146" y="-399.5" font-family="Helvetica,sans-Serif" font-size="10.00">llvm/MC/SubtargetFeature.h</text>
</a>
</g>
</g>
<!-- Node0&#45;&gt;Node68 -->
<g id="edge170" class="edge">
<title>Node0&#45;&gt;Node68</title>
<path fill="none" stroke="midnightblue" d="M4203.79,-627.43C4195.1,-593.68 4163.12,-469.47 4150.84,-421.8"/>
<polygon fill="midnightblue" stroke="midnightblue" points="4154.17,-420.71 4148.29,-411.9 4147.4,-422.45 4154.17,-420.71"/>
</g>
<!-- Node73 -->
<g id="node37" class="node">
<title>Node73</title>
<g id="a_node37"><a xlink:href="Object_2Error_8h.html" target="_top" xlink:title="llvm/Object/Error.h">
<polygon fill="none" stroke="black" points="3038,-336.5 3038,-355.5 3136,-355.5 3136,-336.5 3038,-336.5"/>
<text text-anchor="middle" x="3087" y="-343.5" font-family="Helvetica,sans-Serif" font-size="10.00">llvm/Object/Error.h</text>
</a>
</g>
</g>
<!-- Node0&#45;&gt;Node73 -->
<g id="edge173" class="edge">
<title>Node0&#45;&gt;Node73</title>
<path fill="none" stroke="midnightblue" d="M4134.63,-635.83C3882.17,-634.46 3042.39,-623.29 2965,-535 2913.56,-476.31 3017.61,-394.18 3065.08,-361.37"/>
<polygon fill="midnightblue" stroke="midnightblue" points="3067.19,-364.17 3073.5,-355.66 3063.26,-358.38 3067.19,-364.17"/>
</g>
<!-- Node80 -->
<g id="node39" class="node">
<title>Node80</title>
<polygon fill="none" stroke="#bfbfbf" points="2793,-224.5 2793,-243.5 2867,-243.5 2867,-224.5 2793,-224.5"/>
<text text-anchor="middle" x="2830" y="-231.5" font-family="Helvetica,sans-Serif" font-size="10.00">system_error</text>
</g>
<!-- Node0&#45;&gt;Node80 -->
<g id="edge194" class="edge">
<title>Node0&#45;&gt;Node80</title>
<path fill="none" stroke="midnightblue" d="M4134.84,-635.31C3833.01,-632.21 2670.68,-618.53 2598,-591 2481.91,-547.03 2330.92,-493.78 2402,-392 2490.03,-265.94 2690.92,-240.79 2782.69,-235.99"/>
<polygon fill="midnightblue" stroke="midnightblue" points="2782.97,-239.49 2792.8,-235.53 2782.65,-232.49 2782.97,-239.49"/>
</g>
<!-- Node104 -->
<g id="node41" class="node">
<title>Node104</title>
<g id="a_node41"><a xlink:href="Object_2ELF_8h.html" target="_top" xlink:title="llvm/Object/ELF.h">
<polygon fill="none" stroke="red" points="2548.5,-448.5 2548.5,-467.5 2643.5,-467.5 2643.5,-448.5 2548.5,-448.5"/>
<text text-anchor="middle" x="2596" y="-455.5" font-family="Helvetica,sans-Serif" font-size="10.00">llvm/Object/ELF.h</text>
</a>
</g>
</g>
<!-- Node0&#45;&gt;Node104 -->
<g id="edge171" class="edge">
<title>Node0&#45;&gt;Node104</title>
<path fill="none" stroke="midnightblue" d="M4134.8,-635.96C3839.5,-635.53 2723.65,-631.26 2661,-591 2621.17,-565.41 2604.95,-507.69 2599.02,-477.78"/>
<polygon fill="midnightblue" stroke="midnightblue" points="2602.44,-477.02 2597.23,-467.8 2595.55,-478.26 2602.44,-477.02"/>
</g>
<!-- Node105 -->
<g id="node42" class="node">
<title>Node105</title>
<g id="a_node42"><a xlink:href="ELFTypes_8h.html" target="_top" xlink:title="llvm/Object/ELFTypes.h">
<polygon fill="none" stroke="red" points="2411,-392.5 2411,-411.5 2533,-411.5 2533,-392.5 2411,-392.5"/>
<text text-anchor="middle" x="2472" y="-399.5" font-family="Helvetica,sans-Serif" font-size="10.00">llvm/Object/ELFTypes.h</text>
</a>
</g>
</g>
<!-- Node0&#45;&gt;Node105 -->
<g id="edge172" class="edge">
<title>Node0&#45;&gt;Node105</title>
<path fill="none" stroke="midnightblue" d="M4134.77,-635.39C3837.33,-632.67 2706.74,-620.41 2637,-591 2556.75,-557.16 2500.98,-460.97 2480.58,-420.88"/>
<polygon fill="midnightblue" stroke="midnightblue" points="2483.64,-419.17 2476.06,-411.77 2477.36,-422.28 2483.64,-419.17"/>
</g>
<!-- Node96 -->
<g id="node43" class="node">
<title>Node96</title>
<g id="a_node43"><a xlink:href="Endian_8h.html" target="_top" xlink:title="llvm/Support/Endian.h">
<polygon fill="none" stroke="red" points="2046.5,-112.5 2046.5,-131.5 2159.5,-131.5 2159.5,-112.5 2046.5,-112.5"/>
<text text-anchor="middle" x="2103" y="-119.5" font-family="Helvetica,sans-Serif" font-size="10.00">llvm/Support/Endian.h</text>
</a>
</g>
</g>
<!-- Node0&#45;&gt;Node96 -->
<g id="edge176" class="edge">
<title>Node0&#45;&gt;Node96</title>
<path fill="none" stroke="midnightblue" d="M4134.92,-635.93C3808.99,-635.4 2465.42,-630.78 2282,-591 2204.07,-574.1 2117,-600.25 2117,-520.5 2117,-520.5 2117,-520.5 2117,-457 2117,-363.67 2261.13,-367.99 2230,-280 2208.39,-218.94 2151.82,-164.24 2122.01,-138.52"/>
<polygon fill="midnightblue" stroke="midnightblue" points="2123.92,-135.55 2114.02,-131.77 2119.41,-140.9 2123.92,-135.55"/>
</g>
<!-- Node112 -->
<g id="node47" class="node">
<title>Node112</title>
<g id="a_node47"><a xlink:href="ARMAttributeParser_8h.html" target="_top" xlink:title="llvm/Support/ARMAttribute\lParser.h">
<polygon fill="none" stroke="red" points="4629,-504.5 4629,-534.5 4763,-534.5 4763,-504.5 4629,-504.5"/>
<text text-anchor="start" x="4637" y="-522.5" font-family="Helvetica,sans-Serif" font-size="10.00">llvm/Support/ARMAttribute</text>
<text text-anchor="middle" x="4696" y="-511.5" font-family="Helvetica,sans-Serif" font-size="10.00">Parser.h</text>
</a>
</g>
</g>
<!-- Node0&#45;&gt;Node112 -->
<g id="edge174" class="edge">
<title>Node0&#45;&gt;Node112</title>
<path fill="none" stroke="midnightblue" d="M4277.17,-633.28C4377.83,-628.56 4556.11,-616.8 4615,-591 4639.95,-580.07 4662.8,-558.66 4677.82,-542.28"/>
<polygon fill="midnightblue" stroke="midnightblue" points="4680.52,-544.52 4684.55,-534.72 4675.29,-539.87 4680.52,-544.52"/>
</g>
<!-- Node113 -->
<g id="node48" class="node">
<title>Node113</title>
<g id="a_node48"><a xlink:href="ARMBuildAttributes_8h.html" target="_top" xlink:title="ARMBuildAttributes.h">
<polygon fill="none" stroke="black" points="4640.5,-448.5 4640.5,-467.5 4751.5,-467.5 4751.5,-448.5 4640.5,-448.5"/>
<text text-anchor="middle" x="4696" y="-455.5" font-family="Helvetica,sans-Serif" font-size="10.00">ARMBuildAttributes.h</text>
</a>
</g>
</g>
<!-- Node0&#45;&gt;Node113 -->
<g id="edge175" class="edge">
<title>Node0&#45;&gt;Node113</title>
<path fill="none" stroke="midnightblue" d="M4277.25,-635.45C4417.17,-632.55 4718.87,-616.76 4772,-535 4779.51,-523.45 4778.82,-515.97 4772,-504 4763.59,-489.25 4748.23,-478.84 4733.52,-471.77"/>
<polygon fill="midnightblue" stroke="midnightblue" points="4734.58,-468.42 4724.02,-467.6 4731.76,-474.83 4734.58,-468.42"/>
</g>
<!-- Node118 -->
<g id="node49" class="node">
<title>Node118</title>
<g id="a_node49"><a xlink:href="MCInstrAnalysis_8h.html" target="_top" xlink:title="llvm/MC/MCInstrAnalysis.h">
<polygon fill="none" stroke="red" points="45.5,-571.5 45.5,-590.5 182.5,-590.5 182.5,-571.5 45.5,-571.5"/>
<text text-anchor="middle" x="114" y="-578.5" font-family="Helvetica,sans-Serif" font-size="10.00">llvm/MC/MCInstrAnalysis.h</text>
</a>
</g>
</g>
<!-- Node0&#45;&gt;Node118 -->
<g id="edge168" class="edge">
<title>Node0&#45;&gt;Node118</title>
<path fill="none" stroke="midnightblue" d="M4134.65,-635.96C3665.82,-635.6 1020.43,-631.77 214,-591 207.16,-590.65 200.06,-590.2 192.94,-589.69"/>
<polygon fill="midnightblue" stroke="midnightblue" points="192.77,-586.16 182.54,-588.89 192.24,-593.14 192.77,-586.16"/>
</g>
<!-- Node130 -->
<g id="node50" class="node">
<title>Node130</title>
<g id="a_node50"><a xlink:href="TargetRegistry_8h.html" target="_top" xlink:title="llvm/Support/TargetRegistry.h">
<polygon fill="none" stroke="red" points="4218.5,-336.5 4218.5,-355.5 4365.5,-355.5 4365.5,-336.5 4218.5,-336.5"/>
<text text-anchor="middle" x="4292" y="-343.5" font-family="Helvetica,sans-Serif" font-size="10.00">llvm/Support/TargetRegistry.h</text>
</a>
</g>
</g>
<!-- Node0&#45;&gt;Node130 -->
<g id="edge179" class="edge">
<title>Node0&#45;&gt;Node130</title>
<path fill="none" stroke="midnightblue" d="M4237.86,-627.4C4282.44,-613.21 4358,-580.32 4358,-520.5 4358,-520.5 4358,-520.5 4358,-457 4358,-418.86 4328.46,-382.52 4308.91,-362.64"/>
<polygon fill="midnightblue" stroke="midnightblue" points="4311.33,-360.12 4301.74,-355.63 4306.44,-365.12 4311.33,-360.12"/>
</g>
<!-- Node2 -->
<g id="node3" class="node">
<title>Node2</title>
<g id="a_node3"><a xlink:href="ArrayRef_8h.html" target="_top" xlink:title="llvm/ADT/ArrayRef.h">
<polygon fill="none" stroke="red" points="3227,-224.5 3227,-243.5 3335,-243.5 3335,-224.5 3227,-224.5"/>
<text text-anchor="middle" x="3281" y="-231.5" font-family="Helvetica,sans-Serif" font-size="10.00">llvm/ADT/ArrayRef.h</text>
</a>
</g>
</g>
<!-- Node1&#45;&gt;Node2 -->
<g id="edge2" class="edge">
<title>Node1&#45;&gt;Node2</title>
<path fill="none" stroke="midnightblue" d="M3468,-571.49C3468,-551.74 3468,-501.22 3468,-459 3468,-459 3468,-459 3468,-345 3468,-286.49 3399.15,-258.49 3345.01,-245.51"/>
<polygon fill="midnightblue" stroke="midnightblue" points="3345.61,-242.06 3335.09,-243.26 3344.06,-248.89 3345.61,-242.06"/>
</g>
<!-- Node25 -->
<g id="node4" class="node">
<title>Node25</title>
<g id="a_node4"><a xlink:href="SmallVector_8h.html" target="_top" xlink:title="llvm/ADT/SmallVector.h">
<polygon fill="none" stroke="red" points="3093,-168.5 3093,-187.5 3215,-187.5 3215,-168.5 3093,-168.5"/>
<text text-anchor="middle" x="3154" y="-175.5" font-family="Helvetica,sans-Serif" font-size="10.00">llvm/ADT/SmallVector.h</text>
</a>
</g>
</g>
<!-- Node1&#45;&gt;Node25 -->
<g id="edge32" class="edge">
<title>Node1&#45;&gt;Node25</title>
<path fill="none" stroke="midnightblue" d="M3397.86,-579.38C3288.99,-577.35 3085.25,-568.97 3022,-535 2985.2,-515.23 2798.04,-283.34 2784,-244 2781.01,-235.63 2778.11,-230.65 2784,-224 2803.42,-202.08 2980.4,-188.66 3082.39,-182.68"/>
<polygon fill="midnightblue" stroke="midnightblue" points="3082.84,-186.16 3092.62,-182.09 3082.44,-179.17 3082.84,-186.16"/>
</g>
<!-- Node26 -->
<g id="node5" class="node">
<title>Node26</title>
<g id="a_node5"><a xlink:href="iterator__range_8h.html" target="_top" xlink:title="This provides a very simple, boring adaptor for a begin and end iterator into a range type...">
<polygon fill="none" stroke="red" points="3169,-56.5 3169,-75.5 3297,-75.5 3297,-56.5 3169,-56.5"/>
<text text-anchor="middle" x="3233" y="-63.5" font-family="Helvetica,sans-Serif" font-size="10.00">llvm/ADT/iterator_range.h</text>
</a>
</g>
</g>
<!-- Node1&#45;&gt;Node26 -->
<g id="edge50" class="edge">
<title>Node1&#45;&gt;Node26</title>
<path fill="none" stroke="midnightblue" d="M3397.75,-577.53C3260.89,-572.23 2968.44,-558.3 2929,-535 2846.75,-486.4 2850.4,-442.57 2810,-356 2784.43,-301.2 2741.89,-273.24 2777,-224 2864.27,-101.62 3053.39,-73.67 3158.59,-67.9"/>
<polygon fill="midnightblue" stroke="midnightblue" points="3159,-71.38 3168.82,-67.39 3158.65,-64.39 3159,-71.38"/>
</g>
<!-- Node22 -->
<g id="node9" class="node">
<title>Node22</title>
<polygon fill="none" stroke="#bfbfbf" points="2704.5,-56.5 2704.5,-75.5 2753.5,-75.5 2753.5,-56.5 2704.5,-56.5"/>
<text text-anchor="middle" x="2729" y="-63.5" font-family="Helvetica,sans-Serif" font-size="10.00">cassert</text>
</g>
<!-- Node1&#45;&gt;Node22 -->
<g id="edge163" class="edge">
<title>Node1&#45;&gt;Node22</title>
<path fill="none" stroke="midnightblue" d="M3398,-577.64C3252.83,-572.3 2928.73,-557.95 2884,-535 2681.98,-431.34 2612.25,-355.1 2570,-132 2568.35,-123.27 2564.64,-119.09 2570,-112 2584.96,-92.22 2652.2,-78.64 2694.31,-71.9"/>
<polygon fill="midnightblue" stroke="midnightblue" points="2695.08,-75.32 2704.42,-70.33 2694.01,-68.4 2695.08,-75.32"/>
</g>
<!-- Node1&#45;&gt;Node10 -->
<g id="edge161" class="edge">
<title>Node1&#45;&gt;Node10</title>
<path fill="none" stroke="midnightblue" d="M3538.21,-578.37C3682.14,-574.48 4006.07,-562.86 4113,-535 4350.22,-473.19 4421.08,-453.77 4612,-300 4678.68,-246.3 4706.32,-179.77 4654,-112 4641.89,-96.31 4597.7,-84.79 4557.96,-77.34"/>
<polygon fill="midnightblue" stroke="midnightblue" points="4558.44,-73.87 4547.97,-75.53 4557.19,-80.76 4558.44,-73.87"/>
</g>
<!-- Node37 -->
<g id="node15" class="node">
<title>Node37</title>
<g id="a_node15"><a xlink:href="STLExtras_8h.html" target="_top" xlink:title="llvm/ADT/STLExtras.h">
<polygon fill="none" stroke="red" points="3356,-112.5 3356,-131.5 3472,-131.5 3472,-112.5 3356,-112.5"/>
<text text-anchor="middle" x="3414" y="-119.5" font-family="Helvetica,sans-Serif" font-size="10.00">llvm/ADT/STLExtras.h</text>
</a>
</g>
</g>
<!-- Node1&#45;&gt;Node37 -->
<g id="edge31" class="edge">
<title>Node1&#45;&gt;Node37</title>
<path fill="none" stroke="midnightblue" d="M3538.14,-573.67C3608.07,-566.46 3709.96,-553.28 3745,-535 3840.88,-484.99 3909.85,-441.25 3885,-336 3860.15,-230.75 3811.12,-203.58 3709,-168 3634.08,-141.9 3543.23,-130.92 3482.32,-126.31"/>
<polygon fill="midnightblue" stroke="midnightblue" points="3482.28,-122.8 3472.06,-125.58 3481.78,-129.78 3482.28,-122.8"/>
</g>
<!-- Node1&#45;&gt;Node41 -->
<g id="edge164" class="edge">
<title>Node1&#45;&gt;Node41</title>
<path fill="none" stroke="midnightblue" d="M3397.75,-577.3C3230.11,-570.79 2793.48,-553.39 2429,-535 1479.3,-487.09 1210.91,-660.32 293,-412 200.31,-386.92 114,-387.03 114,-291 114,-291 114,-291 114,-177 114,-118.68 188.36,-88.13 233.06,-75.03"/>
<polygon fill="midnightblue" stroke="midnightblue" points="234.22,-78.34 242.91,-72.28 232.34,-71.6 234.22,-78.34"/>
</g>
<!-- Node46 -->
<g id="node17" class="node">
<title>Node46</title>
<g id="a_node17"><a xlink:href="StringRef_8h.html" target="_top" xlink:title="llvm/ADT/StringRef.h">
<polygon fill="none" stroke="red" points="3590,-168.5 3590,-187.5 3700,-187.5 3700,-168.5 3590,-168.5"/>
<text text-anchor="middle" x="3645" y="-175.5" font-family="Helvetica,sans-Serif" font-size="10.00">llvm/ADT/StringRef.h</text>
</a>
</g>
</g>
<!-- Node1&#45;&gt;Node46 -->
<g id="edge33" class="edge">
<title>Node1&#45;&gt;Node46</title>
<path fill="none" stroke="midnightblue" d="M3538.14,-573.67C3608.07,-566.46 3709.96,-553.28 3745,-535 3781.78,-515.81 3787.53,-502.88 3810,-468 3855.71,-397.04 3880.64,-352.26 3837,-280 3806.62,-229.69 3741.93,-203.18 3696.05,-190.16"/>
<polygon fill="midnightblue" stroke="midnightblue" points="3696.85,-186.75 3686.28,-187.5 3695.01,-193.5 3696.85,-186.75"/>
</g>
<!-- Node1&#45;&gt;Node47 -->
<g id="edge42" class="edge">
<title>Node1&#45;&gt;Node47</title>
<path fill="none" stroke="midnightblue" d="M3538.23,-575.89C3587.17,-570.87 3652.92,-559.73 3706,-535 3748.66,-515.13 3758.34,-504.54 3788,-468 3810.78,-439.93 3821.42,-427.88 3817,-392 3813.87,-366.54 3811.57,-360.18 3803,-336 3799.72,-326.76 3795.21,-316.84 3791.21,-308.68"/>
<polygon fill="midnightblue" stroke="midnightblue" points="3794.33,-307.1 3786.7,-299.75 3788.09,-310.26 3794.33,-307.1"/>
</g>
<!-- Node1&#45;&gt;Node49 -->
<g id="edge51" class="edge">
<title>Node1&#45;&gt;Node49</title>
<path fill="none" stroke="midnightblue" d="M3397.87,-579.4C3207.48,-577.32 2683.94,-568.64 2515,-535 2475.15,-527.06 2467.86,-515.87 2429,-504 2331.68,-474.27 2307.13,-466.15 2207,-448 1901.59,-392.64 1532.16,-362.68 1378.04,-351.8"/>
<polygon fill="midnightblue" stroke="midnightblue" points="1377.98,-348.29 1367.76,-351.08 1377.49,-355.27 1377.98,-348.29"/>
</g>
<!-- Node1&#45;&gt;Node68 -->
<g id="edge68" class="edge">
<title>Node1&#45;&gt;Node68</title>
<path fill="none" stroke="midnightblue" d="M3538.18,-580.59C3668.04,-580.67 3940.18,-575.77 4024,-535 4076.69,-509.37 4117.72,-450.32 4135.85,-420.67"/>
<polygon fill="midnightblue" stroke="midnightblue" points="4139,-422.21 4141.1,-411.83 4132.99,-418.64 4139,-422.21"/>
</g>
<!-- Node70 -->
<g id="node36" class="node">
<title>Node70</title>
<g id="a_node36"><a xlink:href="Binary_8h.html" target="_top" xlink:title="llvm/Object/Binary.h">
<polygon fill="none" stroke="red" points="3686.5,-392.5 3686.5,-411.5 3791.5,-411.5 3791.5,-392.5 3686.5,-392.5"/>
<text text-anchor="middle" x="3739" y="-399.5" font-family="Helvetica,sans-Serif" font-size="10.00">llvm/Object/Binary.h</text>
</a>
</g>
</g>
<!-- Node1&#45;&gt;Node70 -->
<g id="edge72" class="edge">
<title>Node1&#45;&gt;Node70</title>
<path fill="none" stroke="midnightblue" d="M3521.28,-571.47C3553.38,-564.78 3594.25,-553.43 3627,-535 3665.09,-513.56 3671.29,-501.81 3699,-468 3711.05,-453.3 3722.15,-434.67 3729.59,-421.12"/>
<polygon fill="midnightblue" stroke="midnightblue" points="3732.89,-422.38 3734.51,-411.91 3726.71,-419.08 3732.89,-422.38"/>
</g>
<!-- Node1&#45;&gt;Node73 -->
<g id="edge127" class="edge">
<title>Node1&#45;&gt;Node73</title>
<path fill="none" stroke="midnightblue" d="M3397.67,-577.64C3282.57,-573.04 3064.38,-560.97 3041,-535 2996.63,-485.71 3048.02,-400.68 3073.88,-364.31"/>
<polygon fill="midnightblue" stroke="midnightblue" points="3077.04,-365.93 3080.12,-355.79 3071.39,-361.79 3077.04,-365.93"/>
</g>
<!-- Node74 -->
<g id="node38" class="node">
<title>Node74</title>
<g id="a_node38"><a xlink:href="Support_2Error_8h.html" target="_top" xlink:title="llvm/Support/Error.h">
<polygon fill="none" stroke="red" points="3260,-280.5 3260,-299.5 3364,-299.5 3364,-280.5 3260,-280.5"/>
<text text-anchor="middle" x="3312" y="-287.5" font-family="Helvetica,sans-Serif" font-size="10.00">llvm/Support/Error.h</text>
</a>
</g>
</g>
<!-- Node1&#45;&gt;Node74 -->
<g id="edge160" class="edge">
<title>Node1&#45;&gt;Node74</title>
<path fill="none" stroke="midnightblue" d="M3440.76,-571.46C3400.78,-557.28 3327.62,-524.67 3297,-468 3268.95,-416.1 3291.2,-342.93 3304.23,-309.26"/>
<polygon fill="midnightblue" stroke="midnightblue" points="3307.56,-310.37 3308.07,-299.79 3301.07,-307.75 3307.56,-310.37"/>
</g>
<!-- Node1&#45;&gt;Node80 -->
<g id="edge165" class="edge">
<title>Node1&#45;&gt;Node80</title>
<path fill="none" stroke="midnightblue" d="M3397.87,-577.62C3267.86,-572.65 2999.46,-559.53 2965,-535 2867.25,-465.42 2839.02,-308 2832.04,-253.78"/>
<polygon fill="midnightblue" stroke="midnightblue" points="2835.48,-253.1 2830.82,-243.58 2828.53,-253.92 2835.48,-253.1"/>
</g>
<!-- Node84 -->
<g id="node40" class="node">
<title>Node84</title>
<g id="a_node40"><a xlink:href="MemoryBuffer_8h.html" target="_top" xlink:title="llvm/Support/MemoryBuffer.h">
<polygon fill="none" stroke="red" points="3535,-280.5 3535,-299.5 3679,-299.5 3679,-280.5 3535,-280.5"/>
<text text-anchor="middle" x="3607" y="-287.5" font-family="Helvetica,sans-Serif" font-size="10.00">llvm/Support/MemoryBuffer.h</text>
</a>
</g>
</g>
<!-- Node1&#45;&gt;Node84 -->
<g id="edge162" class="edge">
<title>Node1&#45;&gt;Node84</title>
<path fill="none" stroke="midnightblue" d="M3538.26,-572.33C3576.47,-566.07 3623.62,-554.88 3662,-535 3734.95,-497.21 3766.39,-486.97 3800,-412 3827.66,-350.3 3732.29,-317.04 3665.88,-301.76"/>
<polygon fill="midnightblue" stroke="midnightblue" points="3666.43,-298.29 3655.91,-299.54 3664.91,-305.13 3666.43,-298.29"/>
</g>
<!-- Node1&#45;&gt;Node104 -->
<g id="edge100" class="edge">
<title>Node1&#45;&gt;Node104</title>
<path fill="none" stroke="midnightblue" d="M3397.9,-578.17C3220.58,-573.24 2763.65,-558.38 2699,-535 2663.68,-522.23 2630.11,-493.2 2611.37,-474.94"/>
<polygon fill="midnightblue" stroke="midnightblue" points="2613.61,-472.23 2604.06,-467.63 2608.66,-477.18 2613.61,-472.23"/>
</g>
<!-- Node1&#45;&gt;Node105 -->
<g id="edge126" class="edge">
<title>Node1&#45;&gt;Node105</title>
<path fill="none" stroke="midnightblue" d="M3397.99,-580.72C3225.38,-581.76 2783.37,-579.84 2644,-535 2575.19,-512.86 2512.82,-449.65 2485.96,-419.45"/>
<polygon fill="midnightblue" stroke="midnightblue" points="2488.28,-416.79 2479.07,-411.55 2483,-421.39 2488.28,-416.79"/>
</g>
<!-- Node1&#45;&gt;Node96 -->
<g id="edge159" class="edge">
<title>Node1&#45;&gt;Node96</title>
<path fill="none" stroke="midnightblue" d="M3397.7,-578.42C3201.47,-573.75 2657.17,-558.77 2580,-535 2479.55,-504.06 2450.28,-488.31 2378,-412 2293.36,-322.64 2341.89,-246.39 2247,-168 2232.19,-155.76 2187.06,-142.77 2151.23,-133.91"/>
<polygon fill="midnightblue" stroke="midnightblue" points="2151.95,-130.48 2141.4,-131.53 2150.29,-137.29 2151.95,-130.48"/>
</g>
<!-- Node106 -->
<g id="node44" class="node">
<title>Node106</title>
<g id="a_node44"><a xlink:href="ObjectFile_8h.html" target="_top" xlink:title="llvm/Object/ObjectFile.h">
<polygon fill="none" stroke="red" points="3496,-510 3496,-529 3618,-529 3618,-510 3496,-510"/>
<text text-anchor="middle" x="3557" y="-517" font-family="Helvetica,sans-Serif" font-size="10.00">llvm/Object/ObjectFile.h</text>
</a>
</g>
</g>
<!-- Node1&#45;&gt;Node106 -->
<g id="edge128" class="edge">
<title>Node1&#45;&gt;Node106</title>
<path fill="none" stroke="midnightblue" d="M3480.75,-571.48C3495.03,-561.93 3518.4,-546.31 3535.51,-534.87"/>
<polygon fill="midnightblue" stroke="midnightblue" points="3537.9,-537.48 3544.27,-529.01 3534.01,-531.66 3537.9,-537.48"/>
</g>
<!-- Node110 -->
<g id="node45" class="node">
<title>Node110</title>
<g id="a_node45"><a xlink:href="SymbolicFile_8h.html" target="_top" xlink:title="llvm/Object/SymbolicFile.h">
<polygon fill="none" stroke="red" points="3306,-448.5 3306,-467.5 3440,-467.5 3440,-448.5 3306,-448.5"/>
<text text-anchor="middle" x="3373" y="-455.5" font-family="Helvetica,sans-Serif" font-size="10.00">llvm/Object/SymbolicFile.h</text>
</a>
</g>
</g>
<!-- Node1&#45;&gt;Node110 -->
<g id="edge154" class="edge">
<title>Node1&#45;&gt;Node110</title>
<path fill="none" stroke="midnightblue" d="M3461.17,-571.3C3445.49,-551.33 3406.7,-501.92 3386.19,-475.8"/>
<polygon fill="midnightblue" stroke="midnightblue" points="3388.7,-473.33 3379.77,-467.62 3383.19,-477.65 3388.7,-473.33"/>
</g>
<!-- Node86 -->
<g id="node46" class="node">
<title>Node86</title>
<g id="a_node46"><a xlink:href="Casting_8h.html" target="_top" xlink:title="llvm/Support/Casting.h">
<polygon fill="none" stroke="red" points="3946,-168.5 3946,-187.5 4062,-187.5 4062,-168.5 3946,-168.5"/>
<text text-anchor="middle" x="4004" y="-175.5" font-family="Helvetica,sans-Serif" font-size="10.00">llvm/Support/Casting.h</text>
</a>
</g>
</g>
<!-- Node1&#45;&gt;Node86 -->
<g id="edge158" class="edge">
<title>Node1&#45;&gt;Node86</title>
<path fill="none" stroke="midnightblue" d="M3538.09,-579.54C3673.54,-577.85 3966.18,-570.12 4060,-535 4145.66,-502.93 4183.98,-493.75 4225,-412 4228.99,-404.06 4228.35,-400.23 4225,-392 4185.65,-295.36 4138.56,-293.81 4061,-224 4049.17,-213.35 4035.14,-202.26 4023.97,-193.75"/>
<polygon fill="midnightblue" stroke="midnightblue" points="4025.81,-190.76 4015.71,-187.54 4021.6,-196.35 4025.81,-190.76"/>
</g>
<!-- Node1&#45;&gt;Node112 -->
<g id="edge155" class="edge">
<title>Node1&#45;&gt;Node112</title>
<path fill="none" stroke="midnightblue" d="M3538.24,-577.18C3700.34,-570.59 4113.09,-553.34 4458,-535 4511.72,-532.14 4572.24,-528.45 4618.8,-525.51"/>
<polygon fill="midnightblue" stroke="midnightblue" points="4619.06,-529 4628.82,-524.87 4618.62,-522.01 4619.06,-529"/>
</g>
<!-- Node1&#45;&gt;Node113 -->
<g id="edge157" class="edge">
<title>Node1&#45;&gt;Node113</title>
<path fill="none" stroke="midnightblue" d="M3538.24,-578.71C3676.48,-575.56 3993.4,-565.39 4258,-535 4399.73,-518.72 4565.14,-486.33 4646.14,-469.58"/>
<polygon fill="midnightblue" stroke="midnightblue" points="4646.99,-472.98 4656.07,-467.52 4645.56,-466.12 4646.99,-472.98"/>
</g>
<!-- Node2&#45;&gt;Node25 -->
<g id="edge3" class="edge">
<title>Node2&#45;&gt;Node25</title>
<path fill="none" stroke="midnightblue" d="M3260.88,-224.44C3239.98,-215.56 3207.07,-201.56 3183.28,-191.45"/>
<polygon fill="midnightblue" stroke="midnightblue" points="3184.6,-188.21 3174.03,-187.52 3181.86,-194.65 3184.6,-188.21"/>
</g>
<!-- Node2&#45;&gt;Node21 -->
<g id="edge27" class="edge">
<title>Node2&#45;&gt;Node21</title>
<path fill="none" stroke="midnightblue" d="M3310.03,-224.46C3338.87,-215.82 3384.27,-201.8 3423,-188 3525.3,-151.55 3644.37,-102.29 3698.51,-79.51"/>
<polygon fill="midnightblue" stroke="midnightblue" points="3699.99,-82.68 3707.84,-75.57 3697.27,-76.23 3699.99,-82.68"/>
</g>
<!-- Node2&#45;&gt;Node22 -->
<g id="edge28" class="edge">
<title>Node2&#45;&gt;Node22</title>
<path fill="none" stroke="midnightblue" d="M3226.92,-226.46C3141.43,-214.86 2970.94,-186.61 2836,-132 2803.36,-118.79 2769.17,-96.26 2748.47,-81.51"/>
<polygon fill="midnightblue" stroke="midnightblue" points="2750.37,-78.56 2740.22,-75.52 2746.26,-84.22 2750.37,-78.56"/>
</g>
<!-- Node2&#45;&gt;Node16 -->
<g id="edge29" class="edge">
<title>Node2&#45;&gt;Node16</title>
<path fill="none" stroke="midnightblue" d="M3304.86,-224.42C3344.15,-209.55 3423.81,-176.32 3481,-132 3498.91,-118.12 3515.51,-98.01 3526.13,-83.85"/>
<polygon fill="midnightblue" stroke="midnightblue" points="3529.13,-85.66 3532.19,-75.52 3523.47,-81.54 3529.13,-85.66"/>
</g>
<!-- Node2&#45;&gt;Node35 -->
<g id="edge30" class="edge">
<title>Node2&#45;&gt;Node35</title>
<path fill="none" stroke="midnightblue" d="M3316.87,-224.43C3372.98,-211.2 3485.06,-185.51 3581,-168 3825.59,-123.36 4122.45,-84.4 4223.96,-71.51"/>
<polygon fill="midnightblue" stroke="midnightblue" points="4224.52,-74.97 4234,-70.24 4223.64,-68.03 4224.52,-74.97"/>
</g>
<!-- Node2&#45;&gt;Node37 -->
<g id="edge18" class="edge">
<title>Node2&#45;&gt;Node37</title>
<path fill="none" stroke="midnightblue" d="M3291.44,-224.37C3313.97,-205.73 3367.41,-161.53 3395.7,-138.13"/>
<polygon fill="midnightblue" stroke="midnightblue" points="3398.14,-140.66 3403.61,-131.59 3393.68,-135.27 3398.14,-140.66"/>
</g>
<!-- Node25&#45;&gt;Node26 -->
<g id="edge4" class="edge">
<title>Node25&#45;&gt;Node26</title>
<path fill="none" stroke="midnightblue" d="M3161.41,-168.22C3168.87,-159.28 3180.57,-144.94 3190,-132 3201.54,-116.16 3213.79,-97.44 3222.25,-84.16"/>
<polygon fill="midnightblue" stroke="midnightblue" points="3225.29,-85.9 3227.67,-75.58 3219.37,-82.16 3225.29,-85.9"/>
</g>
<!-- Node25&#45;&gt;Node20 -->
<g id="edge17" class="edge">
<title>Node25&#45;&gt;Node20</title>
<path fill="none" stroke="midnightblue" d="M3151.55,-168.37C3146.03,-147 3134.99,-90.87 3160,-56 3179.27,-29.14 3217.14,-18.3 3243.94,-13.94"/>
<polygon fill="midnightblue" stroke="midnightblue" points="3244.54,-17.39 3253.95,-12.52 3243.56,-10.46 3244.54,-17.39"/>
</g>
<!-- Node25&#45;&gt;Node29 -->
<g id="edge6" class="edge">
<title>Node25&#45;&gt;Node29</title>
<path fill="none" stroke="midnightblue" d="M3092.87,-170.32C3012.75,-161.55 2867.85,-145.68 2744,-132 2742.69,-131.86 2741.38,-131.71 2740.05,-131.56"/>
<polygon fill="midnightblue" stroke="midnightblue" points="2740.07,-128.04 2729.74,-130.42 2739.3,-135 2740.07,-128.04"/>
</g>
<!-- Node25&#45;&gt;Node21 -->
<g id="edge12" class="edge">
<title>Node25&#45;&gt;Node21</title>
<path fill="none" stroke="midnightblue" d="M3186.14,-168.46C3216.37,-160.14 3262.74,-146.63 3302,-132 3322.51,-124.36 3325.89,-117.79 3347,-112 3411.06,-94.42 3606.6,-76.91 3689.84,-70.04"/>
<polygon fill="midnightblue" stroke="midnightblue" points="3690.2,-73.52 3699.88,-69.22 3689.63,-66.55 3690.2,-73.52"/>
</g>
<!-- Node25&#45;&gt;Node22 -->
<g id="edge13" class="edge">
<title>Node25&#45;&gt;Node22</title>
<path fill="none" stroke="midnightblue" d="M3092.77,-169.81C3040.01,-162.78 2962.13,-150.44 2896,-132 2845.76,-117.99 2789.7,-94.45 2756.99,-79.87"/>
<polygon fill="midnightblue" stroke="midnightblue" points="2758.17,-76.57 2747.62,-75.66 2755.3,-82.95 2758.17,-76.57"/>
</g>
<!-- Node23 -->
<g id="node10" class="node">
<title>Node23</title>
<polygon fill="none" stroke="#bfbfbf" points="2241,-56.5 2241,-75.5 2287,-75.5 2287,-56.5 2241,-56.5"/>
<text text-anchor="middle" x="2264" y="-63.5" font-family="Helvetica,sans-Serif" font-size="10.00">cstring</text>
</g>
<!-- Node25&#45;&gt;Node23 -->
<g id="edge15" class="edge">
<title>Node25&#45;&gt;Node23</title>
<path fill="none" stroke="midnightblue" d="M3092.74,-170.71C3025.52,-163.34 2914.58,-149.85 2820,-132 2783.14,-125.04 2774.99,-118.23 2738,-112 2574.12,-84.39 2375.31,-72.39 2297.5,-68.51"/>
<polygon fill="midnightblue" stroke="midnightblue" points="2297.5,-65.01 2287.34,-68.02 2297.16,-72 2297.5,-65.01"/>
</g>
<!-- Node25&#45;&gt;Node10 -->
<g id="edge10" class="edge">
<title>Node25&#45;&gt;Node10</title>
<path fill="none" stroke="midnightblue" d="M3215.23,-171.95C3431.62,-154.11 4160.57,-94 4406.32,-73.74"/>
<polygon fill="midnightblue" stroke="midnightblue" points="4406.93,-77.2 4416.61,-72.89 4406.35,-70.22 4406.93,-77.2"/>
</g>
<!-- Node25&#45;&gt;Node16 -->
<g id="edge14" class="edge">
<title>Node25&#45;&gt;Node16</title>
<path fill="none" stroke="midnightblue" d="M3171.84,-168.46C3200.98,-154.8 3260.88,-127.97 3314,-112 3379.76,-92.23 3459.02,-78.62 3503.45,-71.88"/>
<polygon fill="midnightblue" stroke="midnightblue" points="3504.06,-75.33 3513.43,-70.39 3503.03,-68.4 3504.06,-75.33"/>
</g>
<!-- Node25&#45;&gt;Node35 -->
<g id="edge16" class="edge">
<title>Node25&#45;&gt;Node35</title>
<path fill="none" stroke="midnightblue" d="M3215.41,-168.54C3336.25,-151.92 3596.78,-116.25 3638,-112 3860.14,-89.07 4128.12,-73.88 4223.85,-68.84"/>
<polygon fill="midnightblue" stroke="midnightblue" points="4224.07,-72.33 4233.88,-68.32 4223.71,-65.34 4224.07,-72.33"/>
</g>
<!-- Node26&#45;&gt;Node20 -->
<g id="edge5" class="edge">
<title>Node26&#45;&gt;Node20</title>
<path fill="none" stroke="midnightblue" d="M3239.77,-56.08C3245.56,-48.46 3254.06,-37.26 3261.14,-27.94"/>
<polygon fill="midnightblue" stroke="midnightblue" points="3264.1,-29.83 3267.36,-19.75 3258.52,-25.6 3264.1,-29.83"/>
</g>
<!-- Node29&#45;&gt;Node21 -->
<g id="edge7" class="edge">
<title>Node29&#45;&gt;Node21</title>
<path fill="none" stroke="midnightblue" d="M2729.65,-117.87C2879.84,-110.79 3256.18,-92.82 3571,-76 3611.54,-73.83 3657.95,-71.15 3689.74,-69.28"/>
<polygon fill="midnightblue" stroke="midnightblue" points="3690.15,-72.76 3699.93,-68.68 3689.74,-65.77 3690.15,-72.76"/>
</g>
<!-- Node29&#45;&gt;Node22 -->
<g id="edge8" class="edge">
<title>Node29&#45;&gt;Node22</title>
<path fill="none" stroke="midnightblue" d="M2673.6,-112.32C2683.46,-104.26 2698.35,-92.08 2710.22,-82.37"/>
<polygon fill="midnightblue" stroke="midnightblue" points="2712.68,-84.88 2718.2,-75.83 2708.25,-79.46 2712.68,-84.88"/>
</g>
<!-- Node29&#45;&gt;Node23 -->
<g id="edge9" class="edge">
<title>Node29&#45;&gt;Node23</title>
<path fill="none" stroke="midnightblue" d="M2599.78,-112.44C2514.02,-100.84 2363.9,-80.52 2297.37,-71.52"/>
<polygon fill="midnightblue" stroke="midnightblue" points="2297.44,-67.99 2287.06,-70.12 2296.5,-74.93 2297.44,-67.99"/>
</g>
<!-- Node10&#45;&gt;Node14 -->
<g id="edge11" class="edge">
<title>Node10&#45;&gt;Node14</title>
<path fill="none" stroke="midnightblue" d="M4488,-56.08C4488,-49.01 4488,-38.86 4488,-29.99"/>
<polygon fill="midnightblue" stroke="midnightblue" points="4491.5,-29.75 4488,-19.75 4484.5,-29.75 4491.5,-29.75"/>
</g>
<!-- Node37&#45;&gt;Node26 -->
<g id="edge19" class="edge">
<title>Node37&#45;&gt;Node26</title>
<path fill="none" stroke="midnightblue" d="M3385.32,-112.44C3354.47,-103.24 3305.27,-88.56 3271.17,-78.39"/>
<polygon fill="midnightblue" stroke="midnightblue" points="3272.13,-75.02 3261.55,-75.52 3270.13,-81.73 3272.13,-75.02"/>
</g>
<!-- Node37&#45;&gt;Node20 -->
<g id="edge26" class="edge">
<title>Node37&#45;&gt;Node20</title>
<path fill="none" stroke="midnightblue" d="M3403.01,-112.37C3379.19,-93.65 3322.56,-49.15 3292.88,-25.83"/>
<polygon fill="midnightblue" stroke="midnightblue" points="3294.96,-23.02 3284.93,-19.59 3290.64,-28.52 3294.96,-23.02"/>
</g>
<!-- Node37&#45;&gt;Node21 -->
<g id="edge21" class="edge">
<title>Node37&#45;&gt;Node21</title>
<path fill="none" stroke="midnightblue" d="M3463.75,-112.44C3526.59,-101.64 3633.34,-83.28 3690.02,-73.53"/>
<polygon fill="midnightblue" stroke="midnightblue" points="3690.73,-76.96 3699.99,-71.82 3689.55,-70.06 3690.73,-76.96"/>
</g>
<!-- Node37&#45;&gt;Node22 -->
<g id="edge22" class="edge">
<title>Node37&#45;&gt;Node22</title>
<path fill="none" stroke="midnightblue" d="M3355.89,-116.42C3218.02,-105.55 2874.41,-78.46 2763.86,-69.75"/>
<polygon fill="midnightblue" stroke="midnightblue" points="2763.85,-66.24 2753.6,-68.94 2763.3,-73.21 2763.85,-66.24"/>
</g>
<!-- Node37&#45;&gt;Node10 -->
<g id="edge20" class="edge">
<title>Node37&#45;&gt;Node10</title>
<path fill="none" stroke="midnightblue" d="M3472.12,-118.08C3651.75,-109.05 4198.37,-81.56 4406.42,-71.1"/>
<polygon fill="midnightblue" stroke="midnightblue" points="4406.85,-74.58 4416.67,-70.59 4406.5,-67.59 4406.85,-74.58"/>
</g>
<!-- Node37&#45;&gt;Node16 -->
<g id="edge23" class="edge">
<title>Node37&#45;&gt;Node16</title>
<path fill="none" stroke="midnightblue" d="M3433.65,-112.44C3453.96,-103.6 3485.9,-89.69 3509.1,-79.59"/>
<polygon fill="midnightblue" stroke="midnightblue" points="3510.67,-82.72 3518.44,-75.52 3507.88,-76.3 3510.67,-82.72"/>
</g>
<!-- Node37&#45;&gt;Node35 -->
<g id="edge25" class="edge">
<title>Node37&#45;&gt;Node35</title>
<path fill="none" stroke="midnightblue" d="M3472.15,-117.29C3634.98,-106.89 4092.18,-77.71 4224,-69.3"/>
<polygon fill="midnightblue" stroke="midnightblue" points="4224.23,-72.79 4233.99,-68.66 4223.78,-65.8 4224.23,-72.79"/>
</g>
<!-- Node37&#45;&gt;Node41 -->
<g id="edge24" class="edge">
<title>Node37&#45;&gt;Node41</title>
<path fill="none" stroke="midnightblue" d="M3355.99,-120C2955.39,-113.13 606.37,-72.84 299.14,-67.57"/>
<polygon fill="midnightblue" stroke="midnightblue" points="299.13,-64.07 289.08,-67.4 299.01,-71.07 299.13,-64.07"/>
</g>
<!-- Node46&#45;&gt;Node26 -->
<g id="edge35" class="edge">
<title>Node46&#45;&gt;Node26</title>
<path fill="none" stroke="midnightblue" d="M3589.72,-174.71C3528.78,-170.82 3428.56,-160.3 3347,-132 3311.78,-119.78 3275.01,-96.63 3253.06,-81.51"/>
<polygon fill="midnightblue" stroke="midnightblue" points="3254.81,-78.46 3244.61,-75.58 3250.78,-84.19 3254.81,-78.46"/>
</g>
<!-- Node46&#45;&gt;Node20 -->
<g id="edge41" class="edge">
<title>Node46&#45;&gt;Node20</title>
<path fill="none" stroke="midnightblue" d="M3698.34,-168.47C3720.52,-162.14 3744.43,-151.13 3759,-132 3779.53,-105.04 3787.84,-81.03 3765,-56 3733.89,-21.91 3406.8,-13.32 3304.44,-11.46"/>
<polygon fill="midnightblue" stroke="midnightblue" points="3304.23,-7.96 3294.17,-11.28 3304.11,-14.96 3304.23,-7.96"/>
</g>
<!-- Node46&#45;&gt;Node21 -->
<g id="edge36" class="edge">
<title>Node46&#45;&gt;Node21</title>
<path fill="none" stroke="midnightblue" d="M3687.39,-168.45C3707.58,-162.02 3729.91,-150.93 3742,-132 3751.1,-117.75 3745.2,-98.53 3738.49,-84.69"/>
<polygon fill="midnightblue" stroke="midnightblue" points="3741.49,-82.86 3733.67,-75.71 3735.32,-86.18 3741.49,-82.86"/>
</g>
<!-- Node46&#45;&gt;Node22 -->
<g id="edge37" class="edge">
<title>Node46&#45;&gt;Node22</title>
<path fill="none" stroke="midnightblue" d="M3589.61,-175.15C3483.88,-171.11 3246.18,-159.55 3048,-132 2943.43,-117.46 2821.63,-89.54 2763.42,-75.5"/>
<polygon fill="midnightblue" stroke="midnightblue" points="2764.18,-72.08 2753.63,-73.12 2762.53,-78.88 2764.18,-72.08"/>
</g>
<!-- Node46&#45;&gt;Node23 -->
<g id="edge39" class="edge">
<title>Node46&#45;&gt;Node23</title>
<path fill="none" stroke="midnightblue" d="M3589.7,-175.07C3469.45,-170.53 3175.25,-157.58 2930,-132 2868.8,-125.62 2854.13,-119.06 2793,-112 2606.16,-90.43 2381.07,-74.66 2297.42,-69.14"/>
<polygon fill="midnightblue" stroke="midnightblue" points="2297.46,-65.64 2287.25,-68.48 2297,-72.62 2297.46,-65.64"/>
</g>
<!-- Node46&#45;&gt;Node14 -->
<g id="edge40" class="edge">
<title>Node46&#45;&gt;Node14</title>
<path fill="none" stroke="midnightblue" d="M3673.79,-168.47C3701.37,-160.06 3743.98,-146.39 3780,-132 3853.85,-102.49 3865.15,-76.48 3942,-56 4040.54,-29.74 4357.1,-15.9 4457.29,-12.1"/>
<polygon fill="midnightblue" stroke="midnightblue" points="4457.5,-15.59 4467.36,-11.72 4457.23,-8.6 4457.5,-15.59"/>
</g>
<!-- Node46&#45;&gt;Node16 -->
<g id="edge38" class="edge">
<title>Node46&#45;&gt;Node16</title>
<path fill="none" stroke="midnightblue" d="M3636.6,-168.37C3618.71,-149.97 3576.59,-106.67 3553.61,-83.05"/>
<polygon fill="midnightblue" stroke="midnightblue" points="3555.84,-80.32 3546.36,-75.59 3550.82,-85.2 3555.84,-80.32"/>
</g>
<!-- Node46&#45;&gt;Node37 -->
<g id="edge34" class="edge">
<title>Node46&#45;&gt;Node37</title>
<path fill="none" stroke="midnightblue" d="M3608.4,-168.44C3568.27,-159.06 3503.8,-143.99 3460.22,-133.8"/>
<polygon fill="midnightblue" stroke="midnightblue" points="3460.97,-130.38 3450.43,-131.52 3459.37,-137.2 3460.97,-130.38"/>
</g>
<!-- Node48 -->
<g id="node19" class="node">
<title>Node48</title>
<g id="a_node19"><a xlink:href="Twine_8h.html" target="_top" xlink:title="llvm/ADT/Twine.h">
<polygon fill="none" stroke="black" points="3467.5,-224.5 3467.5,-243.5 3562.5,-243.5 3562.5,-224.5 3467.5,-224.5"/>
<text text-anchor="middle" x="3515" y="-231.5" font-family="Helvetica,sans-Serif" font-size="10.00">llvm/ADT/Twine.h</text>
</a>
</g>
</g>
<!-- Node47&#45;&gt;Node48 -->
<g id="edge43" class="edge">
<title>Node47&#45;&gt;Node48</title>
<path fill="none" stroke="midnightblue" d="M3739.69,-280.44C3692.92,-270.98 3617.54,-255.74 3567.15,-245.55"/>
<polygon fill="midnightblue" stroke="midnightblue" points="3567.6,-242.07 3557.11,-243.52 3566.22,-248.93 3567.6,-242.07"/>
</g>
<!-- Node48&#45;&gt;Node25 -->
<g id="edge44" class="edge">
<title>Node48&#45;&gt;Node25</title>
<path fill="none" stroke="midnightblue" d="M3467.43,-225.88C3404.39,-216.45 3292.78,-199.76 3221.16,-189.05"/>
<polygon fill="midnightblue" stroke="midnightblue" points="3221.3,-185.53 3210.89,-187.51 3220.27,-192.45 3221.3,-185.53"/>
</g>
<!-- Node48&#45;&gt;Node22 -->
<g id="edge47" class="edge">
<title>Node48&#45;&gt;Node22</title>
<path fill="none" stroke="midnightblue" d="M3481.61,-224.42C3427.72,-210.83 3318.12,-184.23 3224,-168 3094.27,-145.62 3057.27,-165.63 2930,-132 2907.66,-126.1 2903.78,-119.72 2882,-112 2841.9,-97.8 2794.83,-84.43 2763.59,-76.02"/>
<polygon fill="midnightblue" stroke="midnightblue" points="2764.21,-72.56 2753.64,-73.36 2762.4,-79.32 2764.21,-72.56"/>
</g>
<!-- Node48&#45;&gt;Node10 -->
<g id="edge46" class="edge">
<title>Node48&#45;&gt;Node10</title>
<path fill="none" stroke="midnightblue" d="M3562.59,-224.88C3723.81,-197.38 4249.22,-107.74 4427.89,-77.26"/>
<polygon fill="midnightblue" stroke="midnightblue" points="4428.63,-80.68 4437.9,-75.55 4427.45,-73.78 4428.63,-80.68"/>
</g>
<!-- Node48&#45;&gt;Node14 -->
<g id="edge49" class="edge">
<title>Node48&#45;&gt;Node14</title>
<path fill="none" stroke="midnightblue" d="M3552.98,-224.46C3592.13,-215.59 3654.92,-201.19 3709,-188 3938.98,-131.92 3993.48,-105.34 4225,-56 4308.57,-38.19 4408.26,-22.68 4457.45,-15.41"/>
<polygon fill="midnightblue" stroke="midnightblue" points="4458.05,-18.86 4467.43,-13.94 4457.03,-11.93 4458.05,-18.86"/>
</g>
<!-- Node48&#45;&gt;Node41 -->
<g id="edge48" class="edge">
<title>Node48&#45;&gt;Node41</title>
<path fill="none" stroke="midnightblue" d="M3467.15,-228.17C3329.98,-214.24 2923.7,-172.41 2587,-132 2517.16,-123.62 2500.15,-117.18 2430,-112 1990.1,-79.5 537.11,-68.76 299.11,-67.21"/>
<polygon fill="midnightblue" stroke="midnightblue" points="299.03,-63.71 289.01,-67.14 298.99,-70.71 299.03,-63.71"/>
</g>
<!-- Node48&#45;&gt;Node46 -->
<g id="edge45" class="edge">
<title>Node48&#45;&gt;Node46</title>
<path fill="none" stroke="midnightblue" d="M3535.6,-224.44C3556.99,-215.56 3590.68,-201.56 3615.02,-191.45"/>
<polygon fill="midnightblue" stroke="midnightblue" points="3616.61,-194.58 3624.5,-187.52 3613.92,-188.12 3616.61,-194.58"/>
</g>
<!-- Node49&#45;&gt;Node23 -->
<g id="edge53" class="edge">
<title>Node49&#45;&gt;Node23</title>
<path fill="none" stroke="midnightblue" d="M1242.42,-344C1037.19,-340.46 395.62,-327.26 361,-300 337.35,-281.38 342,-265.1 342,-235 342,-235 342,-235 342,-177 342,-78.41 1975.22,-68.11 2230.59,-67.1"/>
<polygon fill="midnightblue" stroke="midnightblue" points="2230.75,-70.6 2240.74,-67.07 2230.72,-63.6 2230.75,-70.6"/>
</g>
<!-- Node49&#45;&gt;Node41 -->
<g id="edge52" class="edge">
<title>Node49&#45;&gt;Node41</title>
<path fill="none" stroke="midnightblue" d="M1242.2,-345.54C1040.44,-346.82 417.46,-346.88 341,-300 312.66,-282.63 304,-268.24 304,-235 304,-235 304,-235 304,-177 304,-142.81 287.4,-105.76 276.14,-84.57"/>
<polygon fill="midnightblue" stroke="midnightblue" points="279.18,-82.83 271.28,-75.77 273.05,-86.22 279.18,-82.83"/>
</g>
<!-- Node50 -->
<g id="node21" class="node">
<title>Node50</title>
<polygon fill="none" stroke="#bfbfbf" points="1984,-280.5 1984,-299.5 2100,-299.5 2100,-280.5 1984,-280.5"/>
<text text-anchor="middle" x="2042" y="-287.5" font-family="Helvetica,sans-Serif" font-size="10.00">ELFRelocs/x86_64.def</text>
</g>
<!-- Node49&#45;&gt;Node50 -->
<g id="edge54" class="edge">
<title>Node49&#45;&gt;Node50</title>
<path fill="none" stroke="midnightblue" d="M1367.93,-342.17C1485.03,-336.6 1744.54,-322.82 1973.72,-300.06"/>
<polygon fill="midnightblue" stroke="midnightblue" points="1974.32,-303.52 1983.92,-299.04 1973.62,-296.56 1974.32,-303.52"/>
</g>
<!-- Node51 -->
<g id="node22" class="node">
<title>Node51</title>
<polygon fill="none" stroke="#bfbfbf" points="2118.5,-280.5 2118.5,-299.5 2221.5,-299.5 2221.5,-280.5 2118.5,-280.5"/>
<text text-anchor="middle" x="2170" y="-287.5" font-family="Helvetica,sans-Serif" font-size="10.00">ELFRelocs/i386.def</text>
</g>
<!-- Node49&#45;&gt;Node51 -->
<g id="edge55" class="edge">
<title>Node49&#45;&gt;Node51</title>
<path fill="none" stroke="midnightblue" d="M1367.7,-343.42C1501.67,-339.64 1825.89,-328.24 2108.42,-299.95"/>
<polygon fill="midnightblue" stroke="midnightblue" points="2108.86,-303.43 2118.46,-298.94 2108.16,-296.46 2108.86,-303.43"/>
</g>
<!-- Node52 -->
<g id="node23" class="node">
<title>Node52</title>
<polygon fill="none" stroke="#bfbfbf" points="370.5,-280.5 370.5,-299.5 497.5,-299.5 497.5,-280.5 370.5,-280.5"/>
<text text-anchor="middle" x="434" y="-287.5" font-family="Helvetica,sans-Serif" font-size="10.00">ELFRelocs/PowerPC.def</text>
</g>
<!-- Node49&#45;&gt;Node52 -->
<g id="edge56" class="edge">
<title>Node49&#45;&gt;Node52</title>
<path fill="none" stroke="midnightblue" d="M1242.48,-342.93C1109.34,-338.2 787.77,-325.12 507.93,-300.12"/>
<polygon fill="midnightblue" stroke="midnightblue" points="507.85,-296.6 497.58,-299.19 507.22,-303.57 507.85,-296.6"/>
</g>
<!-- Node53 -->
<g id="node24" class="node">
<title>Node53</title>
<polygon fill="none" stroke="#bfbfbf" points="515.5,-280.5 515.5,-299.5 652.5,-299.5 652.5,-280.5 515.5,-280.5"/>
<text text-anchor="middle" x="584" y="-287.5" font-family="Helvetica,sans-Serif" font-size="10.00">ELFRelocs/PowerPC64.def</text>
</g>
<!-- Node49&#45;&gt;Node53 -->
<g id="edge57" class="edge">
<title>Node49&#45;&gt;Node53</title>
<path fill="none" stroke="midnightblue" d="M1242.4,-341.56C1129.08,-335.12 882.17,-320.15 662.97,-300.05"/>
<polygon fill="midnightblue" stroke="midnightblue" points="663.17,-296.55 652.89,-299.12 662.52,-303.52 663.17,-296.55"/>
</g>
<!-- Node54 -->
<g id="node25" class="node">
<title>Node54</title>
<polygon fill="none" stroke="#bfbfbf" points="671,-280.5 671,-299.5 793,-299.5 793,-280.5 671,-280.5"/>
<text text-anchor="middle" x="732" y="-287.5" font-family="Helvetica,sans-Serif" font-size="10.00">ELFRelocs/AArch64.def</text>
</g>
<!-- Node49&#45;&gt;Node54 -->
<g id="edge58" class="edge">
<title>Node49&#45;&gt;Node54</title>
<path fill="none" stroke="midnightblue" d="M1242.19,-340.16C1148.87,-332.81 967.81,-317.87 803.37,-300.11"/>
<polygon fill="midnightblue" stroke="midnightblue" points="803.39,-296.59 793.07,-298.99 802.63,-303.55 803.39,-296.59"/>
</g>
<!-- Node55 -->
<g id="node26" class="node">
<title>Node55</title>
<polygon fill="none" stroke="#bfbfbf" points="811.5,-280.5 811.5,-299.5 918.5,-299.5 918.5,-280.5 811.5,-280.5"/>
<text text-anchor="middle" x="865" y="-287.5" font-family="Helvetica,sans-Serif" font-size="10.00">ELFRelocs/ARM.def</text>
</g>
<!-- Node49&#45;&gt;Node55 -->
<g id="edge59" class="edge">
<title>Node49&#45;&gt;Node55</title>
<path fill="none" stroke="midnightblue" d="M1242.4,-338.05C1169.5,-329.84 1045.18,-315.49 928.9,-300.23"/>
<polygon fill="midnightblue" stroke="midnightblue" points="929.13,-296.73 918.76,-298.89 928.21,-303.67 929.13,-296.73"/>
</g>
<!-- Node56 -->
<g id="node27" class="node">
<title>Node56</title>
<polygon fill="none" stroke="#bfbfbf" points="936.5,-280.5 936.5,-299.5 1043.5,-299.5 1043.5,-280.5 936.5,-280.5"/>
<text text-anchor="middle" x="990" y="-287.5" font-family="Helvetica,sans-Serif" font-size="10.00">ELFRelocs/ARC.def</text>
</g>
<!-- Node49&#45;&gt;Node56 -->
<g id="edge60" class="edge">
<title>Node49&#45;&gt;Node56</title>
<path fill="none" stroke="midnightblue" d="M1255.09,-336.44C1199.33,-326.89 1109.11,-311.42 1049.67,-301.23"/>
<polygon fill="midnightblue" stroke="midnightblue" points="1050.13,-297.76 1039.68,-299.52 1048.94,-304.66 1050.13,-297.76"/>
</g>
<!-- Node57 -->
<g id="node28" class="node">
<title>Node57</title>
<polygon fill="none" stroke="#bfbfbf" points="1062,-280.5 1062,-299.5 1168,-299.5 1168,-280.5 1062,-280.5"/>
<text text-anchor="middle" x="1115" y="-287.5" font-family="Helvetica,sans-Serif" font-size="10.00">ELFRelocs/AVR.def</text>
</g>
<!-- Node49&#45;&gt;Node57 -->
<g id="edge61" class="edge">
<title>Node49&#45;&gt;Node57</title>
<path fill="none" stroke="midnightblue" d="M1274.89,-336.44C1242.37,-327.2 1190.42,-312.44 1154.61,-302.26"/>
<polygon fill="midnightblue" stroke="midnightblue" points="1155.54,-298.88 1144.97,-299.52 1153.63,-305.62 1155.54,-298.88"/>
</g>
<!-- Node58 -->
<g id="node29" class="node">
<title>Node58</title>
<polygon fill="none" stroke="#bfbfbf" points="1186,-280.5 1186,-299.5 1292,-299.5 1292,-280.5 1186,-280.5"/>
<text text-anchor="middle" x="1239" y="-287.5" font-family="Helvetica,sans-Serif" font-size="10.00">ELFRelocs/Mips.def</text>
</g>
<!-- Node49&#45;&gt;Node58 -->
<g id="edge62" class="edge">
<title>Node49&#45;&gt;Node58</title>
<path fill="none" stroke="midnightblue" d="M1294.4,-336.32C1284.54,-328.26 1269.65,-316.08 1257.78,-306.37"/>
<polygon fill="midnightblue" stroke="midnightblue" points="1259.75,-303.46 1249.8,-299.83 1255.32,-308.88 1259.75,-303.46"/>
</g>
<!-- Node59 -->
<g id="node30" class="node">
<title>Node59</title>
<polygon fill="none" stroke="#bfbfbf" points="1310,-280.5 1310,-299.5 1434,-299.5 1434,-280.5 1310,-280.5"/>
<text text-anchor="middle" x="1372" y="-287.5" font-family="Helvetica,sans-Serif" font-size="10.00">ELFRelocs/Hexagon.def</text>
</g>
<!-- Node49&#45;&gt;Node59 -->
<g id="edge63" class="edge">
<title>Node49&#45;&gt;Node59</title>
<path fill="none" stroke="midnightblue" d="M1315.76,-336.32C1325.77,-328.26 1340.89,-316.08 1352.93,-306.37"/>
<polygon fill="midnightblue" stroke="midnightblue" points="1355.45,-308.83 1361.04,-299.83 1351.06,-303.38 1355.45,-308.83"/>
</g>
<!-- Node60 -->
<g id="node31" class="node">
<title>Node60</title>
<polygon fill="none" stroke="#bfbfbf" points="1452,-280.5 1452,-299.5 1560,-299.5 1560,-280.5 1452,-280.5"/>
<text text-anchor="middle" x="1506" y="-287.5" font-family="Helvetica,sans-Serif" font-size="10.00">ELFRelocs/Lanai.def</text>
</g>
<!-- Node49&#45;&gt;Node60 -->
<g id="edge64" class="edge">
<title>Node49&#45;&gt;Node60</title>
<path fill="none" stroke="midnightblue" d="M1336.85,-336.44C1371.4,-327.16 1426.68,-312.31 1464.58,-302.13"/>
<polygon fill="midnightblue" stroke="midnightblue" points="1465.55,-305.49 1474.3,-299.52 1463.73,-298.73 1465.55,-305.49"/>
</g>
<!-- Node61 -->
<g id="node32" class="node">
<title>Node61</title>
<polygon fill="none" stroke="#bfbfbf" points="1578,-280.5 1578,-299.5 1694,-299.5 1694,-280.5 1578,-280.5"/>
<text text-anchor="middle" x="1636" y="-287.5" font-family="Helvetica,sans-Serif" font-size="10.00">ELFRelocs/RISCV.def</text>
</g>
<!-- Node49&#45;&gt;Node61 -->
<g id="edge65" class="edge">
<title>Node49&#45;&gt;Node61</title>
<path fill="none" stroke="midnightblue" d="M1357.45,-336.44C1416.16,-326.87 1511.23,-311.36 1573.68,-301.17"/>
<polygon fill="midnightblue" stroke="midnightblue" points="1574.49,-304.58 1583.8,-299.52 1573.36,-297.67 1574.49,-304.58"/>
</g>
<!-- Node62 -->
<g id="node33" class="node">
<title>Node62</title>
<polygon fill="none" stroke="#bfbfbf" points="1712.5,-280.5 1712.5,-299.5 1837.5,-299.5 1837.5,-280.5 1712.5,-280.5"/>
<text text-anchor="middle" x="1775" y="-287.5" font-family="Helvetica,sans-Serif" font-size="10.00">ELFRelocs/SystemZ.def</text>
</g>
<!-- Node49&#45;&gt;Node62 -->
<g id="edge66" class="edge">
<title>Node49&#45;&gt;Node62</title>
<path fill="none" stroke="midnightblue" d="M1367.76,-338.14C1444.13,-329.73 1577.32,-314.9 1702.06,-300.1"/>
<polygon fill="midnightblue" stroke="midnightblue" points="1702.66,-303.55 1712.18,-298.9 1701.83,-296.6 1702.66,-303.55"/>
</g>
<!-- Node63 -->
<g id="node34" class="node">
<title>Node63</title>
<polygon fill="none" stroke="#bfbfbf" points="1856,-280.5 1856,-299.5 1966,-299.5 1966,-280.5 1856,-280.5"/>
<text text-anchor="middle" x="1911" y="-287.5" font-family="Helvetica,sans-Serif" font-size="10.00">ELFRelocs/Sparc.def</text>
</g>
<!-- Node49&#45;&gt;Node63 -->
<g id="edge67" class="edge">
<title>Node49&#45;&gt;Node63</title>
<path fill="none" stroke="midnightblue" d="M1367.59,-340.91C1466.58,-334.19 1665.61,-319.69 1845.52,-299.99"/>
<polygon fill="midnightblue" stroke="midnightblue" points="1846.15,-303.44 1855.71,-298.87 1845.38,-296.48 1846.15,-303.44"/>
</g>
<!-- Node68&#45;&gt;Node29 -->
<g id="edge70" class="edge">
<title>Node68&#45;&gt;Node29</title>
<path fill="none" stroke="midnightblue" d="M4129.5,-392.37C4084.26,-369.19 3953.78,-305.58 3837,-280 3567.81,-221.03 3491.28,-279.49 3218,-244 3093.88,-227.88 3064.3,-214.65 2942,-188 2859.2,-169.96 2763.02,-147.14 2707.95,-133.89"/>
<polygon fill="midnightblue" stroke="midnightblue" points="2708.7,-130.47 2698.16,-131.53 2707.06,-137.28 2708.7,-130.47"/>
</g>
<!-- Node68&#45;&gt;Node14 -->
<g id="edge71" class="edge">
<title>Node68&#45;&gt;Node14</title>
<path fill="none" stroke="midnightblue" d="M4216.16,-397.51C4292.34,-392.59 4417.17,-381.22 4522,-356 4592,-339.16 4617.29,-344.36 4674,-300 4727.32,-258.29 4781.52,-227.91 4750,-168 4702.13,-77.03 4576.52,-33.8 4518.36,-18.18"/>
<polygon fill="midnightblue" stroke="midnightblue" points="4519.2,-14.78 4508.64,-15.66 4517.44,-21.56 4519.2,-14.78"/>
</g>
<!-- Node68&#45;&gt;Node46 -->
<g id="edge69" class="edge">
<title>Node68&#45;&gt;Node46</title>
<path fill="none" stroke="midnightblue" d="M4140.32,-392.49C4131.05,-379.11 4111.55,-352.94 4090,-336 4004.05,-268.44 3974.26,-259.91 3871,-224 3818.3,-205.68 3755.96,-193.96 3710.11,-187.1"/>
<polygon fill="midnightblue" stroke="midnightblue" points="3710.4,-183.6 3700,-185.62 3709.39,-190.53 3710.4,-183.6"/>
</g>
<!-- Node70&#45;&gt;Node20 -->
<g id="edge99" class="edge">
<title>Node70&#45;&gt;Node20</title>
<path fill="none" stroke="midnightblue" d="M3791.92,-399.89C3927.2,-396.65 4282.96,-385.51 4397,-356 4510.57,-326.61 4573.06,-343 4636,-244 4654.12,-215.49 4645.1,-200.53 4636,-168 4620.31,-111.92 4618.25,-85.44 4568,-56 4511.72,-23.03 3493.66,-12.85 3304.21,-11.24"/>
<polygon fill="midnightblue" stroke="midnightblue" points="3304.16,-7.74 3294.13,-11.16 3304.1,-14.74 3304.16,-7.74"/>
</g>
<!-- Node70&#45;&gt;Node21 -->
<g id="edge97" class="edge">
<title>Node70&#45;&gt;Node21</title>
<path fill="none" stroke="midnightblue" d="M3776.63,-392.42C3880.76,-366.96 4159.36,-286.13 4071,-168 4034.08,-118.64 3848.04,-85.08 3766.45,-72.51"/>
<polygon fill="midnightblue" stroke="midnightblue" points="3766.53,-68.99 3756.11,-70.95 3765.48,-75.91 3766.53,-68.99"/>
</g>
<!-- Node70&#45;&gt;Node35 -->
<g id="edge98" class="edge">
<title>Node70&#45;&gt;Node35</title>
<path fill="none" stroke="midnightblue" d="M3791.61,-398.18C3942,-390.01 4363.7,-366.24 4374,-356 4450.94,-279.56 4443.02,-192.2 4370,-112 4350.79,-90.91 4320.25,-79.47 4296.22,-73.42"/>
<polygon fill="midnightblue" stroke="midnightblue" points="4296.9,-69.98 4286.37,-71.14 4295.32,-76.8 4296.9,-69.98"/>
</g>
<!-- Node70&#45;&gt;Node47 -->
<g id="edge73" class="edge">
<title>Node70&#45;&gt;Node47</title>
<path fill="none" stroke="midnightblue" d="M3753.08,-392.26C3764.35,-384.35 3779.35,-371.58 3786,-356 3792.24,-341.38 3790.42,-323.21 3787.51,-309.8"/>
<polygon fill="midnightblue" stroke="midnightblue" points="3790.83,-308.66 3784.96,-299.84 3784.05,-310.39 3790.83,-308.66"/>
</g>
<!-- Node70&#45;&gt;Node73 -->
<g id="edge74" class="edge">
<title>Node70&#45;&gt;Node73</title>
<path fill="none" stroke="midnightblue" d="M3686.47,-396.65C3566.51,-386.71 3273.02,-362.41 3146.57,-351.93"/>
<polygon fill="midnightblue" stroke="midnightblue" points="3146.56,-348.42 3136.31,-351.08 3145.99,-355.4 3146.56,-348.42"/>
</g>
<!-- Node70&#45;&gt;Node74 -->
<g id="edge89" class="edge">
<title>Node70&#45;&gt;Node74</title>
<path fill="none" stroke="midnightblue" d="M3712.55,-392.44C3671.56,-379.35 3590.12,-353.96 3520,-336 3468.09,-322.7 3408.23,-310.03 3366.1,-301.54"/>
<polygon fill="midnightblue" stroke="midnightblue" points="3366.54,-298.06 3356.05,-299.53 3365.17,-304.92 3366.54,-298.06"/>
</g>
<!-- Node70&#45;&gt;Node84 -->
<g id="edge90" class="edge">
<title>Node70&#45;&gt;Node84</title>
<path fill="none" stroke="midnightblue" d="M3728.64,-392.37C3706.28,-373.73 3653.24,-329.53 3625.16,-306.13"/>
<polygon fill="midnightblue" stroke="midnightblue" points="3627.23,-303.3 3617.31,-299.59 3622.75,-308.68 3627.23,-303.3"/>
</g>
<!-- Node73&#45;&gt;Node48 -->
<g id="edge75" class="edge">
<title>Node73&#45;&gt;Node48</title>
<path fill="none" stroke="midnightblue" d="M3136,-341.47C3193.71,-336.37 3291.98,-324.68 3373,-300 3393.16,-293.86 3396.85,-288.81 3416,-280 3439.77,-269.07 3466.82,-256.79 3486.63,-247.82"/>
<polygon fill="midnightblue" stroke="midnightblue" points="3488.33,-250.89 3496,-243.58 3485.44,-244.51 3488.33,-250.89"/>
</g>
<!-- Node73&#45;&gt;Node74 -->
<g id="edge76" class="edge">
<title>Node73&#45;&gt;Node74</title>
<path fill="none" stroke="midnightblue" d="M3122.65,-336.44C3161.66,-327.08 3224.27,-312.06 3266.72,-301.87"/>
<polygon fill="midnightblue" stroke="midnightblue" points="3267.61,-305.25 3276.51,-299.52 3265.97,-298.45 3267.61,-305.25"/>
</g>
<!-- Node73&#45;&gt;Node80 -->
<g id="edge88" class="edge">
<title>Node73&#45;&gt;Node80</title>
<path fill="none" stroke="midnightblue" d="M3069.63,-336.38C3043.5,-323.52 2992.4,-298.82 2948,-280 2919.91,-268.1 2887.51,-255.84 2863.77,-247.13"/>
<polygon fill="midnightblue" stroke="midnightblue" points="2864.75,-243.77 2854.16,-243.63 2862.36,-250.34 2864.75,-243.77"/>
</g>
<!-- Node74&#45;&gt;Node25 -->
<g id="edge78" class="edge">
<title>Node74&#45;&gt;Node25</title>
<path fill="none" stroke="midnightblue" d="M3260.84,-280.46C3235.55,-274.03 3206.03,-262.94 3185,-244 3171.38,-231.73 3163.19,-212.19 3158.68,-197.74"/>
<polygon fill="midnightblue" stroke="midnightblue" points="3161.99,-196.57 3155.92,-187.88 3155.25,-198.45 3161.99,-196.57"/>
</g>
<!-- Node74&#45;&gt;Node20 -->
<g id="edge87" class="edge">
<title>Node74&#45;&gt;Node20</title>
<path fill="none" stroke="midnightblue" d="M3260,-282.87C3197.72,-275.21 3090.34,-261.03 2999,-244 2960,-236.73 2950.82,-232.22 2912,-224 2760.94,-192.03 2664.9,-258.94 2577,-132 2498.12,-18.09 3099.68,-10.98 3243.55,-10.9"/>
<polygon fill="midnightblue" stroke="midnightblue" points="3243.84,-14.4 3253.85,-10.9 3243.85,-7.4 3243.84,-14.4"/>
</g>
<!-- Node74&#45;&gt;Node21 -->
<g id="edge81" class="edge">
<title>Node74&#45;&gt;Node21</title>
<path fill="none" stroke="midnightblue" d="M3328.46,-280.4C3373.48,-256.85 3502.4,-189.29 3609,-132 3641.77,-114.39 3679.43,-93.75 3703.45,-80.54"/>
<polygon fill="midnightblue" stroke="midnightblue" points="3705.18,-83.58 3712.25,-75.69 3701.8,-77.45 3705.18,-83.58"/>
</g>
<!-- Node74&#45;&gt;Node22 -->
<g id="edge82" class="edge">
<title>Node74&#45;&gt;Node22</title>
<path fill="none" stroke="midnightblue" d="M3269.28,-280.5C3115.42,-249.79 2598.01,-145.65 2587,-132 2555.71,-93.21 2642.58,-76.61 2694.05,-70.34"/>
<polygon fill="midnightblue" stroke="midnightblue" points="2694.6,-73.8 2704.13,-69.18 2693.8,-66.84 2694.6,-73.8"/>
</g>
<!-- Node74&#45;&gt;Node10 -->
<g id="edge80" class="edge">
<title>Node74&#45;&gt;Node10</title>
<path fill="none" stroke="midnightblue" d="M3364.3,-283.54C3439.05,-275.6 3580.71,-260.06 3701,-244 3865.86,-222 3908.56,-223.7 4071,-188 4214.86,-156.39 4382.04,-102.54 4453.14,-78.82"/>
<polygon fill="midnightblue" stroke="midnightblue" points="4454.54,-82.04 4462.91,-75.54 4452.32,-75.4 4454.54,-82.04"/>
</g>
<!-- Node74&#45;&gt;Node14 -->
<g id="edge85" class="edge">
<title>Node74&#45;&gt;Node14</title>
<path fill="none" stroke="midnightblue" d="M3364.42,-281.59C3416.97,-273.76 3500.06,-260.31 3571,-244 3607.84,-235.53 4188.15,-64.42 4225,-56 4308.3,-36.96 4408.11,-22 4457.38,-15.12"/>
<polygon fill="midnightblue" stroke="midnightblue" points="4457.96,-18.57 4467.39,-13.74 4457,-11.64 4457.96,-18.57"/>
</g>
<!-- Node74&#45;&gt;Node35 -->
<g id="edge84" class="edge">
<title>Node74&#45;&gt;Node35</title>
<path fill="none" stroke="midnightblue" d="M3364.2,-283.83C3429.69,-276.9 3545.26,-263.21 3643,-244 3775.43,-217.98 3805.37,-197.79 3937,-168 4018.7,-149.51 4042.98,-159.8 4122,-132 4140,-125.67 4142.85,-120.36 4160,-112 4183.53,-100.53 4210.63,-88.4 4230.68,-79.63"/>
<polygon fill="midnightblue" stroke="midnightblue" points="4232.14,-82.81 4239.91,-75.61 4229.34,-76.39 4232.14,-82.81"/>
</g>
<!-- Node74&#45;&gt;Node37 -->
<g id="edge77" class="edge">
<title>Node74&#45;&gt;Node37</title>
<path fill="none" stroke="midnightblue" d="M3277.13,-280.43C3243.88,-270.41 3201.17,-251.61 3218,-224 3248.88,-173.35 3314.2,-147.01 3360.95,-134.11"/>
<polygon fill="midnightblue" stroke="midnightblue" points="3361.85,-137.49 3370.62,-131.55 3360.06,-130.72 3361.85,-137.49"/>
</g>
<!-- Node74&#45;&gt;Node41 -->
<g id="edge83" class="edge">
<title>Node74&#45;&gt;Node41</title>
<path fill="none" stroke="midnightblue" d="M3259.8,-288.31C3183.53,-286.13 3037.82,-277.48 2919,-244 2898.71,-238.28 2896.16,-230.15 2876,-224 2837.91,-212.38 2207.66,-115.59 2168,-112 1784.27,-77.26 520.26,-68.47 299.15,-67.18"/>
<polygon fill="midnightblue" stroke="midnightblue" points="299.15,-63.68 289.13,-67.12 299.11,-70.68 299.15,-63.68"/>
</g>
<!-- Node74&#45;&gt;Node48 -->
<g id="edge79" class="edge">
<title>Node74&#45;&gt;Node48</title>
<path fill="none" stroke="midnightblue" d="M3344.17,-280.44C3379.06,-271.16 3434.89,-256.31 3473.17,-246.13"/>
<polygon fill="midnightblue" stroke="midnightblue" points="3474.22,-249.47 3482.98,-243.52 3472.42,-242.7 3474.22,-249.47"/>
</g>
<!-- Node74&#45;&gt;Node80 -->
<g id="edge86" class="edge">
<title>Node74&#45;&gt;Node80</title>
<path fill="none" stroke="midnightblue" d="M3259.77,-284.75C3178.56,-277.86 3017.16,-263.1 2881,-244 2879.75,-243.82 2878.48,-243.64 2877.2,-243.45"/>
<polygon fill="midnightblue" stroke="midnightblue" points="2877.7,-239.99 2867.28,-241.89 2876.61,-246.9 2877.7,-239.99"/>
</g>
<!-- Node84&#45;&gt;Node2 -->
<g id="edge91" class="edge">
<title>Node84&#45;&gt;Node2</title>
<path fill="none" stroke="midnightblue" d="M3555.34,-280.44C3497.52,-270.87 3403.89,-255.36 3342.38,-245.17"/>
<polygon fill="midnightblue" stroke="midnightblue" points="3342.85,-241.7 3332.41,-243.52 3341.71,-248.6 3342.85,-241.7"/>
</g>
<!-- Node84&#45;&gt;Node16 -->
<g id="edge94" class="edge">
<title>Node84&#45;&gt;Node16</title>
<path fill="none" stroke="midnightblue" d="M3639.95,-280.39C3659.39,-273.62 3682.88,-262.23 3697,-244 3717.94,-216.97 3725.95,-197.7 3709,-168 3679.77,-116.79 3613.29,-88.93 3572.37,-76.07"/>
<polygon fill="midnightblue" stroke="midnightblue" points="3573.13,-72.65 3562.55,-73.12 3571.12,-79.35 3573.13,-72.65"/>
</g>
<!-- Node84&#45;&gt;Node35 -->
<g id="edge96" class="edge">
<title>Node84&#45;&gt;Node35</title>
<path fill="none" stroke="midnightblue" d="M3665.61,-280.47C3754.72,-266.57 3928.95,-235.69 4071,-188 4127.18,-169.14 4143.03,-165.37 4192,-132 4212.76,-117.85 4233.12,-97.24 4246.07,-83.04"/>
<polygon fill="midnightblue" stroke="midnightblue" points="4248.74,-85.31 4252.78,-75.52 4243.51,-80.65 4248.74,-85.31"/>
</g>
<!-- Node84&#45;&gt;Node41 -->
<g id="edge95" class="edge">
<title>Node84&#45;&gt;Node41</title>
<path fill="none" stroke="midnightblue" d="M3534.78,-283.03C3444.09,-275.28 3283.8,-260.75 3147,-244 2947.01,-219.52 2450.76,-128.98 2250,-112 1848.89,-78.07 527.01,-68.59 299.49,-67.19"/>
<polygon fill="midnightblue" stroke="midnightblue" points="299.22,-63.69 289.2,-67.13 299.18,-70.69 299.22,-63.69"/>
</g>
<!-- Node84&#45;&gt;Node46 -->
<g id="edge92" class="edge">
<title>Node84&#45;&gt;Node46</title>
<path fill="none" stroke="midnightblue" d="M3633.93,-280.36C3650.72,-273.41 3670.98,-261.82 3681,-244 3690.41,-227.27 3676.72,-208.03 3663.6,-194.85"/>
<polygon fill="midnightblue" stroke="midnightblue" points="3665.82,-192.13 3656.12,-187.85 3661.03,-197.24 3665.82,-192.13"/>
</g>
<!-- Node84&#45;&gt;Node48 -->
<g id="edge93" class="edge">
<title>Node84&#45;&gt;Node48</title>
<path fill="none" stroke="midnightblue" d="M3592.22,-280.32C3577.73,-271.82 3555.43,-258.73 3538.51,-248.8"/>
<polygon fill="midnightblue" stroke="midnightblue" points="3540.14,-245.7 3529.74,-243.65 3536.6,-251.74 3540.14,-245.7"/>
</g>
<!-- Node104&#45;&gt;Node2 -->
<g id="edge101" class="edge">
<title>Node104&#45;&gt;Node2</title>
<path fill="none" stroke="midnightblue" d="M2607.11,-448.4C2625.34,-434.66 2663.17,-407.71 2699,-392 2880.06,-312.61 3110.81,-264.9 3219.33,-245.34"/>
<polygon fill="midnightblue" stroke="midnightblue" points="3220.22,-248.74 3229.45,-243.54 3218.99,-241.85 3220.22,-248.74"/>
</g>
<!-- Node104&#45;&gt;Node25 -->
<g id="edge102" class="edge">
<title>Node104&#45;&gt;Node25</title>
<path fill="none" stroke="midnightblue" d="M2598.76,-448.26C2610.42,-412.93 2659.32,-279.89 2751,-224 2805.05,-191.05 2982.01,-182.19 3082.54,-179.83"/>
<polygon fill="midnightblue" stroke="midnightblue" points="3082.7,-183.33 3092.62,-179.61 3082.55,-176.33 3082.7,-183.33"/>
</g>
<!-- Node104&#45;&gt;Node20 -->
<g id="edge125" class="edge">
<title>Node104&#45;&gt;Node20</title>
<path fill="none" stroke="midnightblue" d="M2548.39,-455.85C2475.07,-454.09 2330.09,-450.65 2207,-448 2005.67,-443.67 593.62,-445.2 395,-412 210.56,-381.17 -3.64,-267.65 100,-112 135.78,-58.27 170.81,-69.16 234,-56 389.29,-23.66 2933.8,-12.38 3243.26,-11.12"/>
<polygon fill="midnightblue" stroke="midnightblue" points="3243.71,-14.62 3253.7,-11.08 3243.68,-7.62 3243.71,-14.62"/>
</g>
<!-- Node104&#45;&gt;Node22 -->
<g id="edge122" class="edge">
<title>Node104&#45;&gt;Node22</title>
<path fill="none" stroke="midnightblue" d="M2589.45,-448.49C2552.97,-401.04 2376.13,-169.88 2364,-132 2361.29,-123.53 2358.11,-118.66 2364,-112 2385.7,-87.46 2607.11,-73.35 2694.14,-68.71"/>
<polygon fill="midnightblue" stroke="midnightblue" points="2694.5,-72.2 2704.3,-68.18 2694.13,-65.21 2694.5,-72.2"/>
</g>
<!-- Node104&#45;&gt;Node16 -->
<g id="edge123" class="edge">
<title>Node104&#45;&gt;Node16</title>
<path fill="none" stroke="midnightblue" d="M2616.36,-448.4C2636.56,-439.72 2668.28,-425.67 2695,-412 2710.95,-403.84 2713.35,-398.61 2730,-392 2860.45,-340.22 3215.89,-301.32 3344,-244 3423.9,-208.25 3448.83,-198.28 3506,-132 3517.91,-118.19 3526.6,-99.16 3531.89,-85.26"/>
<polygon fill="midnightblue" stroke="midnightblue" points="3535.2,-86.4 3535.27,-75.81 3528.61,-84.05 3535.2,-86.4"/>
</g>
<!-- Node104&#45;&gt;Node41 -->
<g id="edge124" class="edge">
<title>Node104&#45;&gt;Node41</title>
<path fill="none" stroke="midnightblue" d="M2548.47,-449.97C2542.27,-449.21 2535.99,-448.53 2530,-448 2277.66,-425.75 473.39,-479.11 252,-356 199.19,-326.63 190,-295.43 190,-235 190,-235 190,-235 190,-177 190,-146.2 196.47,-137.32 214,-112 222.18,-100.19 234.15,-89.54 244.55,-81.57"/>
<polygon fill="midnightblue" stroke="midnightblue" points="246.79,-84.27 252.8,-75.54 242.66,-78.62 246.79,-84.27"/>
</g>
<!-- Node104&#45;&gt;Node46 -->
<g id="edge103" class="edge">
<title>Node104&#45;&gt;Node46</title>
<path fill="none" stroke="midnightblue" d="M2643.81,-450.51C2770.25,-432.75 3123.32,-379.35 3409,-300 3482.4,-279.61 3505.15,-282.3 3571,-244 3593.95,-230.65 3616.28,-209.59 3630.3,-195.08"/>
<polygon fill="midnightblue" stroke="midnightblue" points="3632.87,-197.45 3637.19,-187.78 3627.78,-192.65 3632.87,-197.45"/>
</g>
<!-- Node104&#45;&gt;Node49 -->
<g id="edge104" class="edge">
<title>Node104&#45;&gt;Node49</title>
<path fill="none" stroke="midnightblue" d="M2548.5,-448.91C2448.47,-431.9 2223.89,-393.83 2207,-392 1899.95,-358.8 1531.4,-350.05 1377.77,-347.78"/>
<polygon fill="midnightblue" stroke="midnightblue" points="1377.58,-344.28 1367.53,-347.63 1377.48,-351.27 1377.58,-344.28"/>
</g>
<!-- Node104&#45;&gt;Node73 -->
<g id="edge119" class="edge">
<title>Node104&#45;&gt;Node73</title>
<path fill="none" stroke="midnightblue" d="M2636.1,-448.42C2677.82,-439.46 2745.03,-424.93 2803,-412 2886.65,-393.33 2984,-370.9 3040.25,-357.86"/>
<polygon fill="midnightblue" stroke="midnightblue" points="3041.31,-361.21 3050.27,-355.54 3039.73,-354.39 3041.31,-361.21"/>
</g>
<!-- Node104&#45;&gt;Node74 -->
<g id="edge121" class="edge">
<title>Node104&#45;&gt;Node74</title>
<path fill="none" stroke="midnightblue" d="M2620.29,-448.42C2658.7,-435.05 2736.02,-409.05 2803,-392 2883.33,-371.55 2907.18,-381.67 2986,-356 3006.04,-349.47 3008.84,-342.16 3029,-336 3049.69,-329.68 3172.91,-311.17 3249.79,-299.96"/>
<polygon fill="midnightblue" stroke="midnightblue" points="3250.45,-303.4 3259.85,-298.49 3249.45,-296.47 3250.45,-303.4"/>
</g>
<!-- Node104&#45;&gt;Node105 -->
<g id="edge105" class="edge">
<title>Node104&#45;&gt;Node105</title>
<path fill="none" stroke="midnightblue" d="M2576.35,-448.44C2556.04,-439.6 2524.1,-425.69 2500.9,-415.59"/>
<polygon fill="midnightblue" stroke="midnightblue" points="2502.12,-412.3 2491.56,-411.52 2499.33,-418.72 2502.12,-412.3"/>
</g>
<!-- Node104&#45;&gt;Node96 -->
<g id="edge120" class="edge">
<title>Node104&#45;&gt;Node96</title>
<path fill="none" stroke="midnightblue" d="M2548.32,-450.75C2498.41,-443.38 2424.25,-429.84 2402,-412 2308.17,-336.77 2378.29,-243.91 2285,-168 2267.16,-153.49 2213.56,-141.28 2169.11,-133.26"/>
<polygon fill="midnightblue" stroke="midnightblue" points="2169.66,-129.81 2159.21,-131.52 2168.45,-136.7 2169.66,-129.81"/>
</g>
<!-- Node105&#45;&gt;Node2 -->
<g id="edge106" class="edge">
<title>Node105&#45;&gt;Node2</title>
<path fill="none" stroke="midnightblue" d="M2492.4,-392.49C2525.7,-378.88 2594.06,-352.11 2654,-336 2855.81,-281.75 3102.47,-252.47 3216.95,-240.92"/>
<polygon fill="midnightblue" stroke="midnightblue" points="3217.35,-244.4 3226.95,-239.92 3216.66,-237.43 3217.35,-244.4"/>
</g>
<!-- Node105&#45;&gt;Node22 -->
<g id="edge116" class="edge">
<title>Node105&#45;&gt;Node22</title>
<path fill="none" stroke="midnightblue" d="M2471.75,-392.43C2471.21,-379.84 2469.48,-355.72 2464,-336 2456.7,-309.74 2452.92,-303.43 2439,-280 2437.68,-277.78 2326.83,-134.45 2326,-132 2323.15,-123.58 2320.07,-118.62 2326,-112 2350.41,-84.72 2601.16,-72.06 2694.36,-68.28"/>
<polygon fill="midnightblue" stroke="midnightblue" points="2694.56,-71.77 2704.41,-67.88 2694.28,-64.78 2694.56,-71.77"/>
</g>
<!-- Node105&#45;&gt;Node23 -->
<g id="edge118" class="edge">
<title>Node105&#45;&gt;Node23</title>
<path fill="none" stroke="midnightblue" d="M2468.47,-392.2C2454.69,-358.79 2401.36,-238.12 2323,-168 2296.04,-143.88 2269.1,-162.72 2250,-132 2241.07,-117.64 2246.94,-98.44 2253.6,-84.63"/>
<polygon fill="midnightblue" stroke="midnightblue" points="2256.76,-86.15 2258.39,-75.68 2250.58,-82.85 2256.76,-86.15"/>
</g>
<!-- Node105&#45;&gt;Node41 -->
<g id="edge117" class="edge">
<title>Node105&#45;&gt;Node41</title>
<path fill="none" stroke="midnightblue" d="M2410.74,-398.97C2194.32,-391.79 1466.27,-367.33 1233,-356 1016.69,-345.49 266,-451.56 266,-235 266,-235 266,-235 266,-177 266,-144.95 266,-107.64 266,-85.75"/>
<polygon fill="midnightblue" stroke="midnightblue" points="269.5,-85.56 266,-75.56 262.5,-85.56 269.5,-85.56"/>
</g>
<!-- Node105&#45;&gt;Node46 -->
<g id="edge107" class="edge">
<title>Node105&#45;&gt;Node46</title>
<path fill="none" stroke="midnightblue" d="M2515.56,-392.45C2580.35,-379.8 2705.97,-355.47 2813,-336 3048.65,-293.13 3108.89,-289.73 3344,-244 3434.04,-226.49 3538.59,-203.25 3597.76,-189.83"/>
<polygon fill="midnightblue" stroke="midnightblue" points="3598.59,-193.23 3607.56,-187.6 3597.03,-186.41 3598.59,-193.23"/>
</g>
<!-- Node105&#45;&gt;Node49 -->
<g id="edge108" class="edge">
<title>Node105&#45;&gt;Node49</title>
<path fill="none" stroke="midnightblue" d="M2410.67,-397.13C2383.24,-395.46 2350.5,-393.53 2321,-392 1967.6,-373.64 1544.79,-356.45 1377.88,-349.85"/>
<polygon fill="midnightblue" stroke="midnightblue" points="1377.87,-346.34 1367.74,-349.45 1377.59,-353.34 1377.87,-346.34"/>
</g>
<!-- Node105&#45;&gt;Node73 -->
<g id="edge109" class="edge">
<title>Node105&#45;&gt;Node73</title>
<path fill="none" stroke="midnightblue" d="M2533.22,-395.62C2651.63,-385.23 2910.65,-362.48 3027.6,-352.22"/>
<polygon fill="midnightblue" stroke="midnightblue" points="3028.14,-355.68 3037.8,-351.32 3027.53,-348.71 3028.14,-355.68"/>
</g>
<!-- Node105&#45;&gt;Node74 -->
<g id="edge115" class="edge">
<title>Node105&#45;&gt;Node74</title>
<path fill="none" stroke="midnightblue" d="M2533.09,-393C2687.72,-372.75 3093.42,-319.62 3249.54,-299.18"/>
<polygon fill="midnightblue" stroke="midnightblue" points="3250.44,-302.59 3259.9,-297.82 3249.53,-295.65 3250.44,-302.59"/>
</g>
<!-- Node105&#45;&gt;Node96 -->
<g id="edge110" class="edge">
<title>Node105&#45;&gt;Node96</title>
<path fill="none" stroke="midnightblue" d="M2469.31,-392.49C2457.96,-358.07 2410.47,-228.07 2323,-168 2310.03,-159.09 2225.96,-143.53 2165.6,-133.24"/>
<polygon fill="midnightblue" stroke="midnightblue" points="2165.82,-129.73 2155.38,-131.51 2164.65,-136.63 2165.82,-129.73"/>
</g>
<!-- Node96&#45;&gt;Node22 -->
<g id="edge111" class="edge">
<title>Node96&#45;&gt;Node22</title>
<path fill="none" stroke="midnightblue" d="M2159.66,-116.11C2286.68,-105.15 2591.18,-78.89 2694.23,-70"/>
<polygon fill="midnightblue" stroke="midnightblue" points="2694.73,-73.47 2704.4,-69.12 2694.13,-66.49 2694.73,-73.47"/>
</g>
<!-- Node96&#45;&gt;Node23 -->
<g id="edge114" class="edge">
<title>Node96&#45;&gt;Node23</title>
<path fill="none" stroke="midnightblue" d="M2128.51,-112.44C2156.31,-103.12 2200.88,-88.17 2231.25,-77.99"/>
<polygon fill="midnightblue" stroke="midnightblue" points="2232.59,-81.23 2240.96,-74.73 2230.36,-74.59 2232.59,-81.23"/>
</g>
<!-- Node96&#45;&gt;Node16 -->
<g id="edge112" class="edge">
<title>Node96&#45;&gt;Node16</title>
<path fill="none" stroke="midnightblue" d="M2159.68,-118.91C2331.95,-112.54 2864.55,-92.82 3306,-76 3375.92,-73.34 3457.68,-70.15 3503.09,-68.37"/>
<polygon fill="midnightblue" stroke="midnightblue" points="3503.42,-71.86 3513.28,-67.97 3503.15,-64.86 3503.42,-71.86"/>
</g>
<!-- Node96&#45;&gt;Node41 -->
<g id="edge113" class="edge">
<title>Node96&#45;&gt;Node41</title>
<path fill="none" stroke="midnightblue" d="M2046.26,-119.33C1764.47,-111.05 520.2,-74.47 299.52,-67.99"/>
<polygon fill="midnightblue" stroke="midnightblue" points="299.33,-64.48 289.23,-67.68 299.12,-71.48 299.33,-64.48"/>
</g>
<!-- Node106&#45;&gt;Node26 -->
<g id="edge131" class="edge">
<title>Node106&#45;&gt;Node26</title>
<path fill="none" stroke="midnightblue" d="M3495.82,-517.72C3440.5,-514.54 3358.54,-503.5 3297,-468 3182.66,-402.05 3173.02,-355.26 3102,-244 3082.87,-214.03 3061.06,-199.79 3077,-168 3100.36,-121.4 3156.37,-93.39 3194.51,-79.07"/>
<polygon fill="midnightblue" stroke="midnightblue" points="3196.05,-82.23 3204.27,-75.55 3193.68,-75.65 3196.05,-82.23"/>
</g>
<!-- Node106&#45;&gt;Node22 -->
<g id="edge150" class="edge">
<title>Node106&#45;&gt;Node22</title>
<path fill="none" stroke="midnightblue" d="M3496,-518.14C3405.54,-516.22 3231.21,-507.19 3089,-468 2973.97,-436.3 2945.89,-419.71 2845,-356 2713.74,-273.11 2642.74,-272.63 2577,-132 2554.66,-84.2 2642.79,-71.53 2694.25,-68.19"/>
<polygon fill="midnightblue" stroke="midnightblue" points="2694.53,-71.68 2704.31,-67.62 2694.13,-64.69 2694.53,-71.68"/>
</g>
<!-- Node106&#45;&gt;Node35 -->
<g id="edge152" class="edge">
<title>Node106&#45;&gt;Node35</title>
<path fill="none" stroke="midnightblue" d="M3588.92,-509.95C3685.17,-484.26 3971.84,-408.51 4067,-392 4145.56,-378.37 4357.13,-399.43 4424,-356 4514.99,-296.89 4501.3,-179.06 4416,-112 4381.16,-84.61 4330.27,-73.89 4296.18,-69.69"/>
<polygon fill="midnightblue" stroke="midnightblue" points="4296.51,-66.21 4286.18,-68.59 4295.74,-73.17 4296.51,-66.21"/>
</g>
<!-- Node106&#45;&gt;Node41 -->
<g id="edge151" class="edge">
<title>Node106&#45;&gt;Node41</title>
<path fill="none" stroke="midnightblue" d="M3495.89,-515.69C3337.7,-508.38 2901.87,-487.93 2539,-468 2391.4,-459.89 2354.7,-453.91 2207,-448 2005.79,-439.94 593.62,-445.2 395,-412 263.22,-389.97 152,-368.61 152,-235 152,-235 152,-235 152,-177 152,-130.11 202.55,-96.89 236.33,-79.93"/>
<polygon fill="midnightblue" stroke="midnightblue" points="237.87,-83.07 245.36,-75.58 234.83,-76.77 237.87,-83.07"/>
</g>
<!-- Node106&#45;&gt;Node46 -->
<g id="edge129" class="edge">
<title>Node106&#45;&gt;Node46</title>
<path fill="none" stroke="midnightblue" d="M3563.8,-509.97C3585.82,-481.86 3655.57,-388.92 3688,-300 3699.65,-268.05 3711.14,-254.94 3697,-224 3691.22,-211.36 3679.95,-200.91 3669.37,-193.27"/>
<polygon fill="midnightblue" stroke="midnightblue" points="3671.04,-190.18 3660.78,-187.53 3667.15,-196 3671.04,-190.18"/>
</g>
<!-- Node106&#45;&gt;Node47 -->
<g id="edge130" class="edge">
<title>Node106&#45;&gt;Node47</title>
<path fill="none" stroke="midnightblue" d="M3574.94,-509.9C3591.77,-501.16 3616.84,-486.32 3634,-468 3660.53,-439.67 3653.21,-422.66 3677,-392 3691.2,-373.7 3738.84,-329.88 3764.79,-306.43"/>
<polygon fill="midnightblue" stroke="midnightblue" points="3767.3,-308.88 3772.39,-299.59 3762.61,-303.68 3767.3,-308.88"/>
</g>
<!-- Node106&#45;&gt;Node68 -->
<g id="edge132" class="edge">
<title>Node106&#45;&gt;Node68</title>
<path fill="none" stroke="midnightblue" d="M3618.21,-510.06C3681.86,-500.96 3784.26,-485.41 3872,-468 3954.44,-451.64 4049.73,-427.94 4103.42,-414.13"/>
<polygon fill="midnightblue" stroke="midnightblue" points="4104.47,-417.48 4113.27,-411.59 4102.72,-410.7 4104.47,-417.48"/>
</g>
<!-- Node106&#45;&gt;Node70 -->
<g id="edge133" class="edge">
<title>Node106&#45;&gt;Node70</title>
<path fill="none" stroke="midnightblue" d="M3583.48,-509.93C3607.71,-501.4 3643.95,-486.86 3672,-468 3692.69,-454.09 3712.7,-433.43 3725.38,-419.15"/>
<polygon fill="midnightblue" stroke="midnightblue" points="3728.04,-421.43 3731.95,-411.58 3722.76,-416.84 3728.04,-421.43"/>
</g>
<!-- Node106&#45;&gt;Node73 -->
<g id="edge134" class="edge">
<title>Node106&#45;&gt;Node73</title>
<path fill="none" stroke="midnightblue" d="M3495.84,-517.44C3397.41,-514.65 3209.36,-504.55 3155,-468 3118.62,-443.54 3099.6,-392.73 3091.65,-365.38"/>
<polygon fill="midnightblue" stroke="midnightblue" points="3094.97,-364.27 3088.97,-355.54 3088.22,-366.11 3094.97,-364.27"/>
</g>
<!-- Node106&#45;&gt;Node74 -->
<g id="edge148" class="edge">
<title>Node106&#45;&gt;Node74</title>
<path fill="none" stroke="midnightblue" d="M3547.79,-509.79C3533.66,-496.45 3505.8,-470.17 3482,-448 3426.38,-396.18 3360.11,-335.2 3329.32,-306.9"/>
<polygon fill="midnightblue" stroke="midnightblue" points="3331.35,-304.01 3321.61,-299.82 3326.61,-309.17 3331.35,-304.01"/>
</g>
<!-- Node106&#45;&gt;Node80 -->
<g id="edge153" class="edge">
<title>Node106&#45;&gt;Node80</title>
<path fill="none" stroke="midnightblue" d="M3495.82,-515.64C3393.9,-510.14 3194.2,-496.09 3130,-468 3012.17,-416.45 3015.44,-353.65 2910,-280 2893.02,-268.14 2872.65,-256.71 2856.71,-248.35"/>
<polygon fill="midnightblue" stroke="midnightblue" points="2857.93,-245.04 2847.44,-243.56 2854.72,-251.25 2857.93,-245.04"/>
</g>
<!-- Node106&#45;&gt;Node84 -->
<g id="edge149" class="edge">
<title>Node106&#45;&gt;Node84</title>
<path fill="none" stroke="midnightblue" d="M3558.9,-509.86C3566.22,-476.57 3592.68,-356.15 3602.92,-309.57"/>
<polygon fill="midnightblue" stroke="midnightblue" points="3606.37,-310.17 3605.1,-299.65 3599.53,-308.66 3606.37,-310.17"/>
</g>
<!-- Node106&#45;&gt;Node110 -->
<g id="edge135" class="edge">
<title>Node106&#45;&gt;Node110</title>
<path fill="none" stroke="midnightblue" d="M3530.64,-509.98C3498.66,-499.64 3444.62,-482.16 3408.88,-470.6"/>
<polygon fill="midnightblue" stroke="midnightblue" points="3409.91,-467.26 3399.31,-467.51 3407.75,-473.92 3409.91,-467.26"/>
</g>
<!-- Node106&#45;&gt;Node86 -->
<g id="edge145" class="edge">
<title>Node106&#45;&gt;Node86</title>
<path fill="none" stroke="midnightblue" d="M3585.29,-509.96C3614.34,-500.84 3660.6,-485.33 3699,-468 3745.78,-446.88 3760.06,-444.23 3800,-412 3885.01,-343.4 3963.58,-236.93 3992.38,-195.91"/>
<polygon fill="midnightblue" stroke="midnightblue" points="3995.35,-197.77 3998.19,-187.56 3989.61,-193.77 3995.35,-197.77"/>
</g>
<!-- Node110&#45;&gt;Node26 -->
<g id="edge137" class="edge">
<title>Node110&#45;&gt;Node26</title>
<path fill="none" stroke="midnightblue" d="M3364.85,-448.26C3345.89,-428.03 3297.13,-376.59 3254,-336 3181.05,-267.35 3125.51,-279.17 3084,-188 3080.32,-179.91 3079.42,-175.62 3084,-168 3101.64,-138.7 3123.43,-150.79 3152,-132 3175.14,-116.79 3199.66,-96.44 3215.58,-82.59"/>
<polygon fill="midnightblue" stroke="midnightblue" points="3218.29,-84.87 3223.48,-75.63 3213.66,-79.62 3218.29,-84.87"/>
</g>
<!-- Node110&#45;&gt;Node23 -->
<g id="edge142" class="edge">
<title>Node110&#45;&gt;Node23</title>
<path fill="none" stroke="midnightblue" d="M3353.89,-448.41C3334.57,-439.62 3303.95,-425.39 3278,-412 3232.73,-388.64 3222.01,-381.65 3178,-356 3163.18,-347.36 3160.81,-342.63 3145,-336 3106.83,-319.99 2823.87,-255.11 2784,-244 2701.25,-220.94 2680.54,-215.05 2599,-188 2486.92,-150.83 2355.66,-101.79 2296.19,-79.27"/>
<polygon fill="midnightblue" stroke="midnightblue" points="2297.19,-75.9 2286.6,-75.63 2294.71,-82.45 2297.19,-75.9"/>
</g>
<!-- Node110&#45;&gt;Node35 -->
<g id="edge143" class="edge">
<title>Node110&#45;&gt;Node35</title>
<path fill="none" stroke="midnightblue" d="M3440.03,-449.88C3577.93,-435.26 3889.39,-402.35 3996,-392 4085.05,-383.36 4320.47,-402.34 4397,-356 4469.5,-312.1 4462.47,-245.87 4429,-168 4417.22,-140.59 4415.61,-130.24 4392,-112 4363.84,-90.25 4324.52,-78.64 4296.12,-72.7"/>
<polygon fill="midnightblue" stroke="midnightblue" points="4296.68,-69.24 4286.2,-70.76 4295.34,-76.11 4296.68,-69.24"/>
</g>
<!-- Node110&#45;&gt;Node41 -->
<g id="edge141" class="edge">
<title>Node110&#45;&gt;Node41</title>
<path fill="none" stroke="midnightblue" d="M3305.97,-455.76C2875.25,-447.67 510.03,-401.3 365,-356 287.46,-331.78 228,-316.24 228,-235 228,-235 228,-235 228,-177 228,-142.81 244.6,-105.76 255.86,-84.57"/>
<polygon fill="midnightblue" stroke="midnightblue" points="258.95,-86.22 260.72,-75.77 252.82,-82.83 258.95,-86.22"/>
</g>
<!-- Node110&#45;&gt;Node46 -->
<g id="edge136" class="edge">
<title>Node110&#45;&gt;Node46</title>
<path fill="none" stroke="midnightblue" d="M3378.39,-448.48C3396.26,-420.78 3456.42,-332.1 3526,-280 3556.88,-256.87 3576.08,-269.54 3605,-244 3619.71,-231.01 3630.78,-211.31 3637.51,-197"/>
<polygon fill="midnightblue" stroke="midnightblue" points="3640.77,-198.26 3641.62,-187.7 3634.37,-195.43 3640.77,-198.26"/>
</g>
<!-- Node110&#45;&gt;Node70 -->
<g id="edge138" class="edge">
<title>Node110&#45;&gt;Node70</title>
<path fill="none" stroke="midnightblue" d="M3430.99,-448.44C3497.81,-438.59 3607.21,-422.44 3676.05,-412.29"/>
<polygon fill="midnightblue" stroke="midnightblue" points="3676.94,-415.69 3686.32,-410.77 3675.92,-408.77 3676.94,-415.69"/>
</g>
<!-- Node110&#45;&gt;Node74 -->
<g id="edge139" class="edge">
<title>Node110&#45;&gt;Node74</title>
<path fill="none" stroke="midnightblue" d="M3371.59,-448.43C3369.39,-435.86 3364.7,-411.74 3358,-392 3347.77,-361.86 3331.59,-328.56 3321.4,-308.73"/>
<polygon fill="midnightblue" stroke="midnightblue" points="3324.4,-306.92 3316.67,-299.67 3318.19,-310.16 3324.4,-306.92"/>
</g>
<!-- Node110&#45;&gt;Node80 -->
<g id="edge144" class="edge">
<title>Node110&#45;&gt;Node80</title>
<path fill="none" stroke="midnightblue" d="M3361.75,-448.46C3332.77,-426.83 3252.61,-369.22 3178,-336 3074.96,-290.12 2945.55,-258.96 2877.25,-244.41"/>
<polygon fill="midnightblue" stroke="midnightblue" points="2877.74,-240.94 2867.23,-242.3 2876.29,-247.79 2877.74,-240.94"/>
</g>
<!-- Node110&#45;&gt;Node84 -->
<g id="edge140" class="edge">
<title>Node110&#45;&gt;Node84</title>
<path fill="none" stroke="midnightblue" d="M3387.34,-448.34C3401.83,-439.49 3424.75,-425.22 3444,-412 3497.41,-375.32 3558.18,-328.92 3588.19,-305.68"/>
<polygon fill="midnightblue" stroke="midnightblue" points="3590.38,-308.4 3596.14,-299.5 3586.09,-302.87 3590.38,-308.4"/>
</g>
<!-- Node86&#45;&gt;Node22 -->
<g id="edge146" class="edge">
<title>Node86&#45;&gt;Node22</title>
<path fill="none" stroke="midnightblue" d="M3945.79,-174.8C3757.26,-167.59 3170.61,-144.4 3086,-132 3049.31,-126.62 3041.33,-119.43 3005,-112 2918.9,-94.38 2816.55,-79.18 2764,-71.78"/>
<polygon fill="midnightblue" stroke="midnightblue" points="2764.25,-68.29 2753.86,-70.37 2763.28,-75.22 2764.25,-68.29"/>
</g>
<!-- Node86&#45;&gt;Node35 -->
<g id="edge147" class="edge">
<title>Node86&#45;&gt;Node35</title>
<path fill="none" stroke="midnightblue" d="M4045.92,-168.46C4078.03,-161.08 4122.95,-148.93 4160,-132 4190.21,-118.19 4221.83,-96.16 4241.23,-81.64"/>
<polygon fill="midnightblue" stroke="midnightblue" points="4243.39,-84.39 4249.23,-75.55 4239.15,-78.82 4243.39,-84.39"/>
</g>
<!-- Node112&#45;&gt;Node113 -->
<g id="edge156" class="edge">
<title>Node112&#45;&gt;Node113</title>
<path fill="none" stroke="midnightblue" d="M4696,-504.4C4696,-496.47 4696,-486.46 4696,-477.86"/>
<polygon fill="midnightblue" stroke="midnightblue" points="4699.5,-477.66 4696,-467.66 4692.5,-477.66 4699.5,-477.66"/>
</g>
<!-- Node118&#45;&gt;Node41 -->
<g id="edge169" class="edge">
<title>Node118&#45;&gt;Node41</title>
<path fill="none" stroke="midnightblue" d="M103.75,-571.47C83.01,-553.18 38,-507.87 38,-459 38,-459 38,-459 38,-289 38,-205.65 38.97,-168.77 100,-112 119.19,-94.15 190.1,-79.62 232.79,-72.25"/>
<polygon fill="midnightblue" stroke="midnightblue" points="233.45,-75.69 242.73,-70.58 232.29,-68.79 233.45,-75.69"/>
</g>
<!-- Node130&#45;&gt;Node26 -->
<g id="edge182" class="edge">
<title>Node130&#45;&gt;Node26</title>
<path fill="none" stroke="midnightblue" d="M4289.54,-336.43C4280.58,-306.97 4246.7,-209.49 4180,-168 4142.99,-144.98 3524.22,-91.34 3307.37,-73.16"/>
<polygon fill="midnightblue" stroke="midnightblue" points="3307.6,-69.66 3297.35,-72.32 3307.02,-76.64 3307.6,-69.66"/>
</g>
<!-- Node130&#45;&gt;Node21 -->
<g id="edge184" class="edge">
<title>Node130&#45;&gt;Node21</title>
<path fill="none" stroke="midnightblue" d="M4293.25,-336.27C4295.84,-316.04 4300.62,-264.61 4289,-224 4271.36,-162.34 4256.25,-138.83 4198,-112 4121.41,-76.72 3864.33,-69.08 3766.36,-67.44"/>
<polygon fill="midnightblue" stroke="midnightblue" points="3766.35,-63.94 3756.3,-67.29 3766.25,-70.94 3766.35,-63.94"/>
</g>
<!-- Node130&#45;&gt;Node22 -->
<g id="edge185" class="edge">
<title>Node130&#45;&gt;Node22</title>
<path fill="none" stroke="midnightblue" d="M4284.77,-336.14C4259.36,-305.77 4170.28,-205.65 4071,-168 3920.38,-110.88 3507.61,-144.43 3347,-132 3124.32,-114.77 2857.65,-82.9 2763.76,-71.33"/>
<polygon fill="midnightblue" stroke="midnightblue" points="2764.04,-67.84 2753.68,-70.09 2763.18,-74.79 2764.04,-67.84"/>
</g>
<!-- Node130&#45;&gt;Node10 -->
<g id="edge183" class="edge">
<title>Node130&#45;&gt;Node10</title>
<path fill="none" stroke="midnightblue" d="M4306.37,-336.33C4319.16,-328.11 4337.84,-314.84 4351,-300 4413.43,-229.58 4462.12,-126.51 4480.29,-85.15"/>
<polygon fill="midnightblue" stroke="midnightblue" points="4483.57,-86.39 4484.33,-75.82 4477.14,-83.61 4483.57,-86.39"/>
</g>
<!-- Node130&#45;&gt;Node14 -->
<g id="edge188" class="edge">
<title>Node130&#45;&gt;Node14</title>
<path fill="none" stroke="midnightblue" d="M4325.55,-336.48C4384.71,-319.49 4506.34,-275.28 4560,-188 4590.78,-137.93 4597.67,-106.73 4568,-56 4557.28,-37.66 4536.03,-26.22 4518.12,-19.46"/>
<polygon fill="midnightblue" stroke="midnightblue" points="4519.2,-16.13 4508.61,-16.18 4516.92,-22.75 4519.2,-16.13"/>
</g>
<!-- Node130&#45;&gt;Node16 -->
<g id="edge186" class="edge">
<title>Node130&#45;&gt;Node16</title>
<path fill="none" stroke="midnightblue" d="M4291.3,-336.17C4288.46,-306.72 4275.03,-211.31 4218,-168 4141.07,-109.58 4103.07,-129.11 4008,-112 3924.2,-96.92 3666.9,-76.68 3572.87,-69.59"/>
<polygon fill="midnightblue" stroke="midnightblue" points="3572.98,-66.09 3562.75,-68.83 3572.46,-73.07 3572.98,-66.09"/>
</g>
<!-- Node130&#45;&gt;Node35 -->
<g id="edge187" class="edge">
<title>Node130&#45;&gt;Node35</title>
<path fill="none" stroke="midnightblue" d="M4302.89,-336.27C4312.33,-328.01 4325.48,-314.72 4332,-300 4365.97,-223.24 4394.13,-183.4 4350,-112 4338.14,-92.8 4315.33,-81.52 4295.64,-75.06"/>
<polygon fill="midnightblue" stroke="midnightblue" points="4296.59,-71.68 4286,-72.18 4294.58,-78.39 4296.59,-71.68"/>
</g>
<!-- Node130&#45;&gt;Node46 -->
<g id="edge180" class="edge">
<title>Node130&#45;&gt;Node46</title>
<path fill="none" stroke="midnightblue" d="M4270.97,-336.37C4206.54,-309.97 4014.46,-231.63 3985,-224 3891.39,-199.75 3779.71,-188.15 3710.56,-182.92"/>
<polygon fill="midnightblue" stroke="midnightblue" points="3710.49,-179.41 3700.26,-182.16 3709.98,-186.39 3710.49,-179.41"/>
</g>
<!-- Node130&#45;&gt;Node47 -->
<g id="edge181" class="edge">
<title>Node130&#45;&gt;Node47</title>
<path fill="none" stroke="midnightblue" d="M4218.39,-337.21C4115.62,-326.32 3931.37,-306.82 3838.62,-297"/>
<polygon fill="midnightblue" stroke="midnightblue" points="3838.9,-293.51 3828.59,-295.93 3838.16,-300.47 3838.9,-293.51"/>
</g>
</g>
</svg>
