<?xml version="1.0" encoding="UTF-8" standalone="no"?>
<!DOCTYPE svg PUBLIC "-//W3C//DTD SVG 1.1//EN"
 "http://www.w3.org/Graphics/SVG/1.1/DTD/svg11.dtd">
<!-- Generated by graphviz version 2.43.0 (0)
 -->
<!-- Title: include/llvm/DebugInfo/GSYM/FileWriter.h Pages: 1 -->
<svg width="865pt" height="106pt"
 viewBox="0.00 0.00 865.00 106.00" xmlns="http://www.w3.org/2000/svg" xmlns:xlink="http://www.w3.org/1999/xlink">
<g id="graph0" class="graph" transform="scale(1 1) rotate(0) translate(4 102)">
<title>include/llvm/DebugInfo/GSYM/FileWriter.h</title>
<!-- Node53 -->
<g id="node1" class="node">
<title>Node53</title>
<polygon fill="#bfbfbf" stroke="black" points="370.5,-67.5 370.5,-97.5 486.5,-97.5 486.5,-67.5 370.5,-67.5"/>
<text text-anchor="start" x="378.5" y="-85.5" font-family="Helvetica,sans-Serif" font-size="10.00">include/llvm/DebugInfo</text>
<text text-anchor="middle" x="428.5" y="-74.5" font-family="Helvetica,sans-Serif" font-size="10.00">/GSYM/FileWriter.h</text>
</g>
<!-- Node54 -->
<g id="node2" class="node">
<title>Node54</title>
<g id="a_node2"><a xlink:href="FileWriter_8cpp.html" target="_top" xlink:title="lib/DebugInfo/GSYM\l/FileWriter.cpp">
<polygon fill="none" stroke="black" points="0,-0.5 0,-30.5 107,-30.5 107,-0.5 0,-0.5"/>
<text text-anchor="start" x="8" y="-18.5" font-family="Helvetica,sans-Serif" font-size="10.00">lib/DebugInfo/GSYM</text>
<text text-anchor="middle" x="53.5" y="-7.5" font-family="Helvetica,sans-Serif" font-size="10.00">/FileWriter.cpp</text>
</a>
</g>
</g>
<!-- Node53&#45;&gt;Node54 -->
<g id="edge1" class="edge">
<title>Node53&#45;&gt;Node54</title>
<path fill="none" stroke="midnightblue" d="M360.4,-71.91C296.83,-62.63 199.44,-47.57 115.5,-31 112.79,-30.46 110.02,-29.9 107.22,-29.31"/>
<polygon fill="midnightblue" stroke="midnightblue" points="359.91,-75.38 370.31,-73.35 360.92,-68.45 359.91,-75.38"/>
</g>
<!-- Node55 -->
<g id="node3" class="node">
<title>Node55</title>
<g id="a_node3"><a xlink:href="FunctionInfo_8cpp.html" target="_top" xlink:title="lib/DebugInfo/GSYM\l/FunctionInfo.cpp">
<polygon fill="none" stroke="black" points="125,-0.5 125,-30.5 232,-30.5 232,-0.5 125,-0.5"/>
<text text-anchor="start" x="133" y="-18.5" font-family="Helvetica,sans-Serif" font-size="10.00">lib/DebugInfo/GSYM</text>
<text text-anchor="middle" x="178.5" y="-7.5" font-family="Helvetica,sans-Serif" font-size="10.00">/FunctionInfo.cpp</text>
</a>
</g>
</g>
<!-- Node53&#45;&gt;Node55 -->
<g id="edge2" class="edge">
<title>Node53&#45;&gt;Node55</title>
<path fill="none" stroke="midnightblue" d="M364.69,-64.91C323.74,-54.26 271.17,-40.59 232.34,-30.5"/>
<polygon fill="midnightblue" stroke="midnightblue" points="364,-68.35 374.56,-67.48 365.76,-61.57 364,-68.35"/>
</g>
<!-- Node56 -->
<g id="node4" class="node">
<title>Node56</title>
<g id="a_node4"><a xlink:href="GsymCreator_8cpp.html" target="_top" xlink:title="lib/DebugInfo/GSYM\l/GsymCreator.cpp">
<polygon fill="none" stroke="black" points="250,-0.5 250,-30.5 357,-30.5 357,-0.5 250,-0.5"/>
<text text-anchor="start" x="258" y="-18.5" font-family="Helvetica,sans-Serif" font-size="10.00">lib/DebugInfo/GSYM</text>
<text text-anchor="middle" x="303.5" y="-7.5" font-family="Helvetica,sans-Serif" font-size="10.00">/GsymCreator.cpp</text>
</a>
</g>
</g>
<!-- Node53&#45;&gt;Node56 -->
<g id="edge3" class="edge">
<title>Node53&#45;&gt;Node56</title>
<path fill="none" stroke="midnightblue" d="M392.37,-62.71C372.66,-52.46 348.66,-39.98 330.57,-30.58"/>
<polygon fill="midnightblue" stroke="midnightblue" points="390.89,-65.89 401.38,-67.4 394.12,-59.68 390.89,-65.89"/>
</g>
<!-- Node57 -->
<g id="node5" class="node">
<title>Node57</title>
<g id="a_node5"><a xlink:href="Header_8cpp.html" target="_top" xlink:title="lib/DebugInfo/GSYM\l/Header.cpp">
<polygon fill="none" stroke="black" points="375,-0.5 375,-30.5 482,-30.5 482,-0.5 375,-0.5"/>
<text text-anchor="start" x="383" y="-18.5" font-family="Helvetica,sans-Serif" font-size="10.00">lib/DebugInfo/GSYM</text>
<text text-anchor="middle" x="428.5" y="-7.5" font-family="Helvetica,sans-Serif" font-size="10.00">/Header.cpp</text>
</a>
</g>
</g>
<!-- Node53&#45;&gt;Node57 -->
<g id="edge4" class="edge">
<title>Node53&#45;&gt;Node57</title>
<path fill="none" stroke="midnightblue" d="M428.5,-57.11C428.5,-48.15 428.5,-38.32 428.5,-30.58"/>
<polygon fill="midnightblue" stroke="midnightblue" points="425,-57.4 428.5,-67.4 432,-57.4 425,-57.4"/>
</g>
<!-- Node58 -->
<g id="node6" class="node">
<title>Node58</title>
<g id="a_node6"><a xlink:href="InlineInfo_8cpp.html" target="_top" xlink:title="lib/DebugInfo/GSYM\l/InlineInfo.cpp">
<polygon fill="none" stroke="black" points="500,-0.5 500,-30.5 607,-30.5 607,-0.5 500,-0.5"/>
<text text-anchor="start" x="508" y="-18.5" font-family="Helvetica,sans-Serif" font-size="10.00">lib/DebugInfo/GSYM</text>
<text text-anchor="middle" x="553.5" y="-7.5" font-family="Helvetica,sans-Serif" font-size="10.00">/InlineInfo.cpp</text>
</a>
</g>
</g>
<!-- Node53&#45;&gt;Node58 -->
<g id="edge5" class="edge">
<title>Node53&#45;&gt;Node58</title>
<path fill="none" stroke="midnightblue" d="M464.63,-62.71C484.34,-52.46 508.34,-39.98 526.43,-30.58"/>
<polygon fill="midnightblue" stroke="midnightblue" points="462.88,-59.68 455.62,-67.4 466.11,-65.89 462.88,-59.68"/>
</g>
<!-- Node59 -->
<g id="node7" class="node">
<title>Node59</title>
<g id="a_node7"><a xlink:href="LineTable_8cpp.html" target="_top" xlink:title="lib/DebugInfo/GSYM\l/LineTable.cpp">
<polygon fill="none" stroke="black" points="625,-0.5 625,-30.5 732,-30.5 732,-0.5 625,-0.5"/>
<text text-anchor="start" x="633" y="-18.5" font-family="Helvetica,sans-Serif" font-size="10.00">lib/DebugInfo/GSYM</text>
<text text-anchor="middle" x="678.5" y="-7.5" font-family="Helvetica,sans-Serif" font-size="10.00">/LineTable.cpp</text>
</a>
</g>
</g>
<!-- Node53&#45;&gt;Node59 -->
<g id="edge6" class="edge">
<title>Node53&#45;&gt;Node59</title>
<path fill="none" stroke="midnightblue" d="M492.31,-64.91C533.26,-54.26 585.83,-40.59 624.66,-30.5"/>
<polygon fill="midnightblue" stroke="midnightblue" points="491.24,-61.57 482.44,-67.48 493,-68.35 491.24,-61.57"/>
</g>
<!-- Node60 -->
<g id="node8" class="node">
<title>Node60</title>
<g id="a_node8"><a xlink:href="Range_8cpp.html" target="_top" xlink:title="lib/DebugInfo/GSYM\l/Range.cpp">
<polygon fill="none" stroke="black" points="750,-0.5 750,-30.5 857,-30.5 857,-0.5 750,-0.5"/>
<text text-anchor="start" x="758" y="-18.5" font-family="Helvetica,sans-Serif" font-size="10.00">lib/DebugInfo/GSYM</text>
<text text-anchor="middle" x="803.5" y="-7.5" font-family="Helvetica,sans-Serif" font-size="10.00">/Range.cpp</text>
</a>
</g>
</g>
<!-- Node53&#45;&gt;Node60 -->
<g id="edge7" class="edge">
<title>Node53&#45;&gt;Node60</title>
<path fill="none" stroke="midnightblue" d="M496.6,-71.91C560.17,-62.63 657.56,-47.57 741.5,-31 744.21,-30.46 746.98,-29.9 749.78,-29.31"/>
<polygon fill="midnightblue" stroke="midnightblue" points="496.08,-68.45 486.69,-73.35 497.09,-75.38 496.08,-68.45"/>
</g>
</g>
</svg>
