<?xml version="1.0" encoding="UTF-8" standalone="no"?>
<!DOCTYPE svg PUBLIC "-//W3C//DTD SVG 1.1//EN"
 "http://www.w3.org/Graphics/SVG/1.1/DTD/svg11.dtd">
<!-- Generated by graphviz version 2.43.0 (0)
 -->
<!-- Title: include/llvm/Support/FileUtilities.h Pages: 1 -->
<svg width="527pt" height="151pt"
 viewBox="0.00 0.00 527.00 151.00" xmlns="http://www.w3.org/2000/svg" xmlns:xlink="http://www.w3.org/1999/xlink">
<g id="graph0" class="graph" transform="scale(1 1) rotate(0) translate(4 147)">
<title>include/llvm/Support/FileUtilities.h</title>
<!-- Node77 -->
<g id="node1" class="node">
<title>Node77</title>
<polygon fill="#bfbfbf" stroke="black" points="253,-112.5 253,-142.5 358,-142.5 358,-112.5 253,-112.5"/>
<text text-anchor="start" x="261" y="-130.5" font-family="Helvetica,sans-Serif" font-size="10.00">include/llvm/Support</text>
<text text-anchor="middle" x="305.5" y="-119.5" font-family="Helvetica,sans-Serif" font-size="10.00">/FileUtilities.h</text>
</g>
<!-- Node78 -->
<g id="node2" class="node">
<title>Node78</title>
<g id="a_node2"><a xlink:href="ThinLTOCodeGenerator_8cpp.html" target="_top" xlink:title="lib/LTO/ThinLTOCodeGenerator.cpp">
<polygon fill="none" stroke="black" points="0,-56.5 0,-75.5 173,-75.5 173,-56.5 0,-56.5"/>
<text text-anchor="middle" x="86.5" y="-63.5" font-family="Helvetica,sans-Serif" font-size="10.00">lib/LTO/ThinLTOCodeGenerator.cpp</text>
</a>
</g>
</g>
<!-- Node77&#45;&gt;Node78 -->
<g id="edge1" class="edge">
<title>Node77&#45;&gt;Node78</title>
<path fill="none" stroke="midnightblue" d="M244.22,-109.85C203.1,-98.68 150.65,-84.43 117.81,-75.51"/>
<polygon fill="midnightblue" stroke="midnightblue" points="243.31,-113.23 253.88,-112.47 245.14,-106.48 243.31,-113.23"/>
</g>
<!-- Node79 -->
<g id="node3" class="node">
<title>Node79</title>
<g id="a_node3"><a xlink:href="FileUtilities_8cpp.html" target="_top" xlink:title="lib/Support/FileUtilities.cpp">
<polygon fill="none" stroke="black" points="191.5,-56.5 191.5,-75.5 325.5,-75.5 325.5,-56.5 191.5,-56.5"/>
<text text-anchor="middle" x="258.5" y="-63.5" font-family="Helvetica,sans-Serif" font-size="10.00">lib/Support/FileUtilities.cpp</text>
</a>
</g>
</g>
<!-- Node77&#45;&gt;Node79 -->
<g id="edge2" class="edge">
<title>Node77&#45;&gt;Node79</title>
<path fill="none" stroke="midnightblue" d="M288.05,-104.4C280.15,-94.41 271.28,-83.18 265.34,-75.66"/>
<polygon fill="midnightblue" stroke="midnightblue" points="285.42,-106.72 294.36,-112.4 290.91,-102.38 285.42,-106.72"/>
</g>
<!-- Node80 -->
<g id="node4" class="node">
<title>Node80</title>
<g id="a_node4"><a xlink:href="Signals_8cpp.html" target="_top" xlink:title="lib/Support/Signals.cpp">
<polygon fill="none" stroke="black" points="343,-0.5 343,-19.5 460,-19.5 460,-0.5 343,-0.5"/>
<text text-anchor="middle" x="401.5" y="-7.5" font-family="Helvetica,sans-Serif" font-size="10.00">lib/Support/Signals.cpp</text>
</a>
</g>
</g>
<!-- Node77&#45;&gt;Node80 -->
<g id="edge3" class="edge">
<title>Node77&#45;&gt;Node80</title>
<path fill="none" stroke="midnightblue" d="M323.71,-104.59C345.07,-78.89 379.45,-37.53 394.29,-19.67"/>
<polygon fill="midnightblue" stroke="midnightblue" points="320.97,-102.41 317.27,-112.34 326.36,-106.88 320.97,-102.41"/>
</g>
<!-- Node81 -->
<g id="node5" class="node">
<title>Node81</title>
<g id="a_node5"><a xlink:href="Unix_2Signals_8inc.html" target="_top" xlink:title="lib/Support/Unix/Signals.inc">
<polygon fill="none" stroke="black" points="382,-56.5 382,-75.5 519,-75.5 519,-56.5 382,-56.5"/>
<text text-anchor="middle" x="450.5" y="-63.5" font-family="Helvetica,sans-Serif" font-size="10.00">lib/Support/Unix/Signals.inc</text>
</a>
</g>
</g>
<!-- Node77&#45;&gt;Node81 -->
<g id="edge4" class="edge">
<title>Node77&#45;&gt;Node81</title>
<path fill="none" stroke="midnightblue" d="M349.33,-108.52C375.86,-97.63 408.5,-84.23 429.4,-75.66"/>
<polygon fill="midnightblue" stroke="midnightblue" points="347.79,-105.37 339.86,-112.4 350.44,-111.84 347.79,-105.37"/>
</g>
<!-- Node81&#45;&gt;Node80 -->
<g id="edge5" class="edge">
<title>Node81&#45;&gt;Node80</title>
<path fill="none" stroke="midnightblue" d="M435.47,-48.43C426.88,-38.97 416.46,-27.48 409.44,-19.75"/>
<polygon fill="midnightblue" stroke="midnightblue" points="433.1,-51.03 442.41,-56.08 438.28,-46.33 433.1,-51.03"/>
</g>
</g>
</svg>
