<?xml version="1.0" encoding="UTF-8" standalone="no"?>
<!DOCTYPE svg PUBLIC "-//W3C//DTD SVG 1.1//EN"
 "http://www.w3.org/Graphics/SVG/1.1/DTD/svg11.dtd">
<!-- Generated by graphviz version 2.43.0 (0)
 -->
<!-- Title: include/llvm/ADT/FoldingSet.h Pages: 1 -->
<svg width="2111pt" height="431pt"
 viewBox="0.00 0.00 2110.96 431.00" xmlns="http://www.w3.org/2000/svg" xmlns:xlink="http://www.w3.org/1999/xlink">
<g id="graph0" class="graph" transform="scale(1 1) rotate(0) translate(4 427)">
<title>include/llvm/ADT/FoldingSet.h</title>
<!-- Node0 -->
<g id="node1" class="node">
<title>Node0</title>
<polygon fill="#bfbfbf" stroke="black" points="979,-392.5 979,-422.5 1105,-422.5 1105,-392.5 979,-392.5"/>
<text text-anchor="start" x="987" y="-410.5" font-family="Helvetica,sans-Serif" font-size="10.00">include/llvm/ADT/Folding</text>
<text text-anchor="middle" x="1042" y="-399.5" font-family="Helvetica,sans-Serif" font-size="10.00">Set.h</text>
</g>
<!-- Node1 -->
<g id="node2" class="node">
<title>Node1</title>
<g id="a_node2"><a xlink:href="SmallVector_8h.html" target="_top" xlink:title="llvm/ADT/SmallVector.h">
<polygon fill="none" stroke="black" points="981,-280.5 981,-299.5 1103,-299.5 1103,-280.5 981,-280.5"/>
<text text-anchor="middle" x="1042" y="-287.5" font-family="Helvetica,sans-Serif" font-size="10.00">llvm/ADT/SmallVector.h</text>
</a>
</g>
</g>
<!-- Node0&#45;&gt;Node1 -->
<g id="edge1" class="edge">
<title>Node0&#45;&gt;Node1</title>
<path fill="none" stroke="midnightblue" d="M1042,-392.34C1042,-371.62 1042,-333.02 1042,-309.9"/>
<polygon fill="midnightblue" stroke="midnightblue" points="1045.5,-309.67 1042,-299.67 1038.5,-309.67 1045.5,-309.67"/>
</g>
<!-- Node4 -->
<g id="node5" class="node">
<title>Node4</title>
<polygon fill="none" stroke="#bfbfbf" points="316,-112.5 316,-131.5 356,-131.5 356,-112.5 316,-112.5"/>
<text text-anchor="middle" x="336" y="-119.5" font-family="Helvetica,sans-Serif" font-size="10.00">utility</text>
</g>
<!-- Node0&#45;&gt;Node4 -->
<g id="edge90" class="edge">
<title>Node0&#45;&gt;Node4</title>
<path fill="none" stroke="midnightblue" d="M978.78,-406.17C753.02,-404.16 0,-390.03 0,-291 0,-291 0,-291 0,-233 0,-168.91 223.62,-136.18 306,-126.3"/>
<polygon fill="midnightblue" stroke="midnightblue" points="306.46,-129.77 315.99,-125.13 305.65,-122.81 306.46,-129.77"/>
</g>
<!-- Node9 -->
<g id="node10" class="node">
<title>Node9</title>
<polygon fill="none" stroke="#bfbfbf" points="519.5,-112.5 519.5,-131.5 568.5,-131.5 568.5,-112.5 519.5,-112.5"/>
<text text-anchor="middle" x="544" y="-119.5" font-family="Helvetica,sans-Serif" font-size="10.00">cstddef</text>
</g>
<!-- Node0&#45;&gt;Node9 -->
<g id="edge88" class="edge">
<title>Node0&#45;&gt;Node9</title>
<path fill="none" stroke="midnightblue" d="M978.72,-406.15C874.46,-402.99 662.91,-385.53 510,-300 454.68,-269.06 422.92,-222.07 456,-168 467.67,-148.93 490.25,-137.61 509.62,-131.1"/>
<polygon fill="midnightblue" stroke="midnightblue" points="510.84,-134.39 519.38,-128.12 508.79,-127.69 510.84,-134.39"/>
</g>
<!-- Node21 -->
<g id="node22" class="node">
<title>Node21</title>
<polygon fill="none" stroke="#bfbfbf" points="1764.5,-168.5 1764.5,-187.5 1813.5,-187.5 1813.5,-168.5 1764.5,-168.5"/>
<text text-anchor="middle" x="1789" y="-175.5" font-family="Helvetica,sans-Serif" font-size="10.00">cassert</text>
</g>
<!-- Node0&#45;&gt;Node21 -->
<g id="edge87" class="edge">
<title>Node0&#45;&gt;Node21</title>
<path fill="none" stroke="midnightblue" d="M1105,-404.57C1312.67,-397.56 1965.8,-370.05 2026,-300 2031.79,-293.26 2031.63,-286.88 2026,-280 1974.9,-217.53 1918.18,-283.87 1848,-244 1827.59,-232.4 1810.38,-211.23 1799.91,-196.2"/>
<polygon fill="midnightblue" stroke="midnightblue" points="1802.75,-194.16 1794.29,-187.78 1796.93,-198.04 1802.75,-194.16"/>
</g>
<!-- Node33 -->
<g id="node34" class="node">
<title>Node33</title>
<g id="a_node34"><a xlink:href="iterator_8h.html" target="_top" xlink:title="llvm/ADT/iterator.h">
<polygon fill="none" stroke="black" points="208.5,-224.5 208.5,-243.5 307.5,-243.5 307.5,-224.5 208.5,-224.5"/>
<text text-anchor="middle" x="258" y="-231.5" font-family="Helvetica,sans-Serif" font-size="10.00">llvm/ADT/iterator.h</text>
</a>
</g>
</g>
<!-- Node0&#45;&gt;Node33 -->
<g id="edge52" class="edge">
<title>Node0&#45;&gt;Node33</title>
<path fill="none" stroke="midnightblue" d="M978.87,-406.63C805.92,-406.38 333.82,-401.51 282,-356 253,-330.53 252.94,-280.94 255.44,-253.82"/>
<polygon fill="midnightblue" stroke="midnightblue" points="258.94,-254.05 256.6,-243.71 251.98,-253.25 258.94,-254.05"/>
</g>
<!-- Node34 -->
<g id="node35" class="node">
<title>Node34</title>
<g id="a_node35"><a xlink:href="Allocator_8h.html" target="_top" xlink:title="This file defines the MallocAllocator and BumpPtrAllocator interfaces. ">
<polygon fill="none" stroke="black" points="1305.5,-336.5 1305.5,-355.5 1426.5,-355.5 1426.5,-336.5 1305.5,-336.5"/>
<text text-anchor="middle" x="1366" y="-343.5" font-family="Helvetica,sans-Serif" font-size="10.00">llvm/Support/Allocator.h</text>
</a>
</g>
</g>
<!-- Node0&#45;&gt;Node34 -->
<g id="edge59" class="edge">
<title>Node0&#45;&gt;Node34</title>
<path fill="none" stroke="midnightblue" d="M1105.24,-394.89C1164.65,-383.98 1252.73,-367.8 1309.76,-357.33"/>
<polygon fill="midnightblue" stroke="midnightblue" points="1310.47,-360.76 1319.68,-355.51 1309.21,-353.87 1310.47,-360.76"/>
</g>
<!-- Node38 -->
<g id="node39" class="node">
<title>Node38</title>
<polygon fill="none" stroke="#bfbfbf" points="1971,-280.5 1971,-299.5 2017,-299.5 2017,-280.5 1971,-280.5"/>
<text text-anchor="middle" x="1994" y="-287.5" font-family="Helvetica,sans-Serif" font-size="10.00">cstdint</text>
</g>
<!-- Node0&#45;&gt;Node38 -->
<g id="edge89" class="edge">
<title>Node0&#45;&gt;Node38</title>
<path fill="none" stroke="midnightblue" d="M1105.07,-401.84C1254.11,-390.26 1639.4,-356.89 1957,-300 1958.24,-299.78 1959.51,-299.54 1960.79,-299.28"/>
<polygon fill="midnightblue" stroke="midnightblue" points="1961.58,-302.69 1970.6,-297.15 1960.09,-295.85 1961.58,-302.69"/>
</g>
<!-- Node2 -->
<g id="node3" class="node">
<title>Node2</title>
<g id="a_node3"><a xlink:href="iterator__range_8h.html" target="_top" xlink:title="This provides a very simple, boring adaptor for a begin and end iterator into a range type...">
<polygon fill="none" stroke="black" points="104,-168.5 104,-187.5 232,-187.5 232,-168.5 104,-168.5"/>
<text text-anchor="middle" x="168" y="-175.5" font-family="Helvetica,sans-Serif" font-size="10.00">llvm/ADT/iterator_range.h</text>
</a>
</g>
</g>
<!-- Node1&#45;&gt;Node2 -->
<g id="edge2" class="edge">
<title>Node1&#45;&gt;Node2</title>
<path fill="none" stroke="midnightblue" d="M980.93,-289.3C798.05,-289.7 263.49,-287.14 199,-244 183.28,-233.48 175.31,-212.7 171.43,-197.45"/>
<polygon fill="midnightblue" stroke="midnightblue" points="174.82,-196.58 169.26,-187.56 167.98,-198.07 174.82,-196.58"/>
</g>
<!-- Node3 -->
<g id="node4" class="node">
<title>Node3</title>
<polygon fill="none" stroke="#bfbfbf" points="33.5,-112.5 33.5,-131.5 80.5,-131.5 80.5,-112.5 33.5,-112.5"/>
<text text-anchor="middle" x="57" y="-119.5" font-family="Helvetica,sans-Serif" font-size="10.00">iterator</text>
</g>
<!-- Node1&#45;&gt;Node3 -->
<g id="edge47" class="edge">
<title>Node1&#45;&gt;Node3</title>
<path fill="none" stroke="midnightblue" d="M981,-289.25C810.25,-289.41 330.15,-286 179,-244 128.04,-229.84 106.77,-229.51 74,-188 63.51,-174.71 59.45,-155.59 57.9,-141.52"/>
<polygon fill="midnightblue" stroke="midnightblue" points="61.39,-141.23 57.12,-131.54 54.41,-141.78 61.39,-141.23"/>
</g>
<!-- Node1&#45;&gt;Node4 -->
<g id="edge51" class="edge">
<title>Node1&#45;&gt;Node4</title>
<path fill="none" stroke="midnightblue" d="M980.81,-286.86C881.6,-282.65 690.52,-271.19 629,-244 582.34,-223.38 588.5,-191.05 543,-168 484.9,-138.57 408.13,-128.32 366.32,-124.8"/>
<polygon fill="midnightblue" stroke="midnightblue" points="366.47,-121.3 356.23,-124.03 365.94,-128.28 366.47,-121.3"/>
</g>
<!-- Node5 -->
<g id="node6" class="node">
<title>Node5</title>
<g id="a_node6"><a xlink:href="AlignOf_8h.html" target="_top" xlink:title="llvm/Support/AlignOf.h">
<polygon fill="none" stroke="black" points="1124.5,-168.5 1124.5,-187.5 1239.5,-187.5 1239.5,-168.5 1124.5,-168.5"/>
<text text-anchor="middle" x="1182" y="-175.5" font-family="Helvetica,sans-Serif" font-size="10.00">llvm/Support/AlignOf.h</text>
</a>
</g>
</g>
<!-- Node1&#45;&gt;Node5 -->
<g id="edge5" class="edge">
<title>Node1&#45;&gt;Node5</title>
<path fill="none" stroke="midnightblue" d="M1052.99,-280.37C1076.81,-261.65 1133.44,-217.15 1163.12,-193.83"/>
<polygon fill="midnightblue" stroke="midnightblue" points="1165.36,-196.52 1171.07,-187.59 1161.04,-191.02 1165.36,-196.52"/>
</g>
<!-- Node6 -->
<g id="node7" class="node">
<title>Node6</title>
<g id="a_node7"><a xlink:href="Compiler_8h.html" target="_top" xlink:title="llvm/Support/Compiler.h">
<polygon fill="none" stroke="black" points="1573,-112.5 1573,-131.5 1695,-131.5 1695,-112.5 1573,-112.5"/>
<text text-anchor="middle" x="1634" y="-119.5" font-family="Helvetica,sans-Serif" font-size="10.00">llvm/Support/Compiler.h</text>
</a>
</g>
</g>
<!-- Node1&#45;&gt;Node6 -->
<g id="edge10" class="edge">
<title>Node1&#45;&gt;Node6</title>
<path fill="none" stroke="midnightblue" d="M1103.28,-289.15C1172.95,-287.47 1289.07,-278.96 1382,-244 1396.25,-238.64 1482.3,-174.64 1496,-168 1525.99,-153.45 1561.82,-141.93 1589.46,-134.18"/>
<polygon fill="midnightblue" stroke="midnightblue" points="1590.53,-137.52 1599.25,-131.5 1588.68,-130.77 1590.53,-137.52"/>
</g>
<!-- Node1&#45;&gt;Node9 -->
<g id="edge43" class="edge">
<title>Node1&#45;&gt;Node9</title>
<path fill="none" stroke="midnightblue" d="M980.67,-286.89C886.94,-282.82 713.1,-271.7 658,-244 633.24,-231.55 581.47,-169.69 557.15,-139.55"/>
<polygon fill="midnightblue" stroke="midnightblue" points="559.79,-137.25 550.81,-131.63 554.33,-141.63 559.79,-137.25"/>
</g>
<!-- Node10 -->
<g id="node11" class="node">
<title>Node10</title>
<g id="a_node11"><a xlink:href="MathExtras_8h.html" target="_top" xlink:title="llvm/Support/MathExtras.h">
<polygon fill="none" stroke="black" points="1239.5,-224.5 1239.5,-243.5 1372.5,-243.5 1372.5,-224.5 1239.5,-224.5"/>
<text text-anchor="middle" x="1306" y="-231.5" font-family="Helvetica,sans-Serif" font-size="10.00">llvm/Support/MathExtras.h</text>
</a>
</g>
</g>
<!-- Node1&#45;&gt;Node10 -->
<g id="edge11" class="edge">
<title>Node1&#45;&gt;Node10</title>
<path fill="none" stroke="midnightblue" d="M1083.83,-280.44C1130.08,-270.98 1204.61,-255.74 1254.44,-245.55"/>
<polygon fill="midnightblue" stroke="midnightblue" points="1255.27,-248.95 1264.36,-243.52 1253.87,-242.09 1255.27,-248.95"/>
</g>
<!-- Node18 -->
<g id="node19" class="node">
<title>Node18</title>
<polygon fill="none" stroke="#bfbfbf" points="696,-112.5 696,-131.5 758,-131.5 758,-112.5 696,-112.5"/>
<text text-anchor="middle" x="727" y="-119.5" font-family="Helvetica,sans-Serif" font-size="10.00">type_traits</text>
</g>
<!-- Node1&#45;&gt;Node18 -->
<g id="edge50" class="edge">
<title>Node1&#45;&gt;Node18</title>
<path fill="none" stroke="midnightblue" d="M981.51,-280.49C891.18,-266.37 728.08,-234.92 695,-188 684.09,-172.53 697.06,-152.79 709.61,-139.14"/>
<polygon fill="midnightblue" stroke="midnightblue" points="712.23,-141.47 716.76,-131.89 707.25,-136.55 712.23,-141.47"/>
</g>
<!-- Node20 -->
<g id="node21" class="node">
<title>Node20</title>
<polygon fill="none" stroke="#bfbfbf" points="478,-168.5 478,-187.5 534,-187.5 534,-168.5 478,-168.5"/>
<text text-anchor="middle" x="506" y="-175.5" font-family="Helvetica,sans-Serif" font-size="10.00">algorithm</text>
</g>
<!-- Node1&#45;&gt;Node20 -->
<g id="edge41" class="edge">
<title>Node1&#45;&gt;Node20</title>
<path fill="none" stroke="midnightblue" d="M980.69,-286.41C856.57,-280.73 584.25,-265.92 548,-244 530.44,-233.38 518.88,-212.29 512.42,-197.01"/>
<polygon fill="midnightblue" stroke="midnightblue" points="515.63,-195.61 508.74,-187.56 509.1,-198.14 515.63,-195.61"/>
</g>
<!-- Node1&#45;&gt;Node21 -->
<g id="edge42" class="edge">
<title>Node1&#45;&gt;Node21</title>
<path fill="none" stroke="midnightblue" d="M1103.34,-288.28C1204.15,-286.13 1410.75,-277.59 1582,-244 1615.46,-237.44 1705.11,-207.65 1754.75,-190.77"/>
<polygon fill="midnightblue" stroke="midnightblue" points="1756.07,-194.02 1764.4,-187.48 1753.81,-187.39 1756.07,-194.02"/>
</g>
<!-- Node23 -->
<g id="node24" class="node">
<title>Node23</title>
<polygon fill="none" stroke="#bfbfbf" points="704,-168.5 704,-187.5 750,-187.5 750,-168.5 704,-168.5"/>
<text text-anchor="middle" x="727" y="-175.5" font-family="Helvetica,sans-Serif" font-size="10.00">cstring</text>
</g>
<!-- Node1&#45;&gt;Node23 -->
<g id="edge45" class="edge">
<title>Node1&#45;&gt;Node23</title>
<path fill="none" stroke="midnightblue" d="M1017.54,-280.46C961.43,-260.86 823.36,-212.65 759.89,-190.48"/>
<polygon fill="midnightblue" stroke="midnightblue" points="760.96,-187.15 750.37,-187.16 758.65,-193.76 760.96,-187.15"/>
</g>
<!-- Node25 -->
<g id="node26" class="node">
<title>Node25</title>
<g id="a_node26"><a xlink:href="MemAlloc_8h.html" target="_top" xlink:title="This file defines counterparts of C library allocation functions defined in the namespace &#39;std&#39;...">
<polygon fill="none" stroke="black" points="1857,-224.5 1857,-243.5 1983,-243.5 1983,-224.5 1857,-224.5"/>
<text text-anchor="middle" x="1920" y="-231.5" font-family="Helvetica,sans-Serif" font-size="10.00">llvm/Support/MemAlloc.h</text>
</a>
</g>
</g>
<!-- Node1&#45;&gt;Node25 -->
<g id="edge30" class="edge">
<title>Node1&#45;&gt;Node25</title>
<path fill="none" stroke="midnightblue" d="M1103.04,-285.25C1259.96,-275.59 1676.96,-249.95 1846.64,-239.51"/>
<polygon fill="midnightblue" stroke="midnightblue" points="1846.95,-243 1856.72,-238.89 1846.52,-236.01 1846.95,-243"/>
</g>
<!-- Node26 -->
<g id="node27" class="node">
<title>Node26</title>
<g id="a_node27"><a xlink:href="Support_2ErrorHandling_8h.html" target="_top" xlink:title="llvm/Support/ErrorHandling.h">
<polygon fill="none" stroke="black" points="1933,-168.5 1933,-187.5 2075,-187.5 2075,-168.5 1933,-168.5"/>
<text text-anchor="middle" x="2004" y="-175.5" font-family="Helvetica,sans-Serif" font-size="10.00">llvm/Support/ErrorHandling.h</text>
</a>
</g>
</g>
<!-- Node1&#45;&gt;Node26 -->
<g id="edge40" class="edge">
<title>Node1&#45;&gt;Node26</title>
<path fill="none" stroke="midnightblue" d="M1103.29,-288.17C1308.21,-285.14 1958.5,-273.25 1992,-244 2004.81,-232.81 2006.81,-212.79 2006.22,-197.91"/>
<polygon fill="midnightblue" stroke="midnightblue" points="2009.7,-197.46 2005.41,-187.77 2002.72,-198.02 2009.7,-197.46"/>
</g>
<!-- Node28 -->
<g id="node29" class="node">
<title>Node28</title>
<polygon fill="none" stroke="#bfbfbf" points="1831.5,-168.5 1831.5,-187.5 1876.5,-187.5 1876.5,-168.5 1831.5,-168.5"/>
<text text-anchor="middle" x="1854" y="-175.5" font-family="Helvetica,sans-Serif" font-size="10.00">cstdlib</text>
</g>
<!-- Node1&#45;&gt;Node28 -->
<g id="edge44" class="edge">
<title>Node1&#45;&gt;Node28</title>
<path fill="none" stroke="midnightblue" d="M1103.16,-288.49C1210.75,-286.66 1440.55,-278.64 1631,-244 1700.24,-231.41 1778.7,-205.78 1821.64,-190.74"/>
<polygon fill="midnightblue" stroke="midnightblue" points="1823,-193.97 1831.26,-187.34 1820.67,-187.37 1823,-193.97"/>
</g>
<!-- Node29 -->
<g id="node30" class="node">
<title>Node29</title>
<g id="a_node30"><a xlink:href="type__traits_8h.html" target="_top" xlink:title="llvm/Support/type_traits.h">
<polygon fill="none" stroke="black" points="978,-168.5 978,-187.5 1106,-187.5 1106,-168.5 978,-168.5"/>
<text text-anchor="middle" x="1042" y="-175.5" font-family="Helvetica,sans-Serif" font-size="10.00">llvm/Support/type_traits.h</text>
</a>
</g>
</g>
<!-- Node1&#45;&gt;Node29 -->
<g id="edge36" class="edge">
<title>Node1&#45;&gt;Node29</title>
<path fill="none" stroke="midnightblue" d="M1042,-280.37C1042,-262.62 1042,-221.67 1042,-197.6"/>
<polygon fill="midnightblue" stroke="midnightblue" points="1045.5,-197.59 1042,-187.59 1038.5,-197.59 1045.5,-197.59"/>
</g>
<!-- Node30 -->
<g id="node31" class="node">
<title>Node30</title>
<polygon fill="none" stroke="#bfbfbf" points="666.5,-224.5 666.5,-243.5 739.5,-243.5 739.5,-224.5 666.5,-224.5"/>
<text text-anchor="middle" x="703" y="-231.5" font-family="Helvetica,sans-Serif" font-size="10.00">initializer_list</text>
</g>
<!-- Node1&#45;&gt;Node30 -->
<g id="edge46" class="edge">
<title>Node1&#45;&gt;Node30</title>
<path fill="none" stroke="midnightblue" d="M985.39,-280.49C927.27,-271.68 834.25,-257.35 754,-244 752.56,-243.76 751.1,-243.51 749.62,-243.27"/>
<polygon fill="midnightblue" stroke="midnightblue" points="750.2,-239.81 739.76,-241.58 749.02,-246.71 750.2,-239.81"/>
</g>
<!-- Node31 -->
<g id="node32" class="node">
<title>Node31</title>
<polygon fill="none" stroke="#bfbfbf" points="806,-168.5 806,-187.5 858,-187.5 858,-168.5 806,-168.5"/>
<text text-anchor="middle" x="832" y="-175.5" font-family="Helvetica,sans-Serif" font-size="10.00">memory</text>
</g>
<!-- Node1&#45;&gt;Node31 -->
<g id="edge48" class="edge">
<title>Node1&#45;&gt;Node31</title>
<path fill="none" stroke="midnightblue" d="M1025.52,-280.37C989.03,-261.25 901.16,-215.23 857.51,-192.36"/>
<polygon fill="midnightblue" stroke="midnightblue" points="858.88,-189.13 848.4,-187.59 855.64,-195.33 858.88,-189.13"/>
</g>
<!-- Node32 -->
<g id="node33" class="node">
<title>Node32</title>
<polygon fill="none" stroke="#bfbfbf" points="1504.5,-168.5 1504.5,-187.5 1539.5,-187.5 1539.5,-168.5 1504.5,-168.5"/>
<text text-anchor="middle" x="1522" y="-175.5" font-family="Helvetica,sans-Serif" font-size="10.00">new</text>
</g>
<!-- Node1&#45;&gt;Node32 -->
<g id="edge49" class="edge">
<title>Node1&#45;&gt;Node32</title>
<path fill="none" stroke="midnightblue" d="M1103.19,-289.47C1178.57,-288.29 1309.59,-280.46 1415,-244 1448.46,-232.43 1482.66,-209.26 1503.11,-193.95"/>
<polygon fill="midnightblue" stroke="midnightblue" points="1505.43,-196.58 1511.24,-187.73 1501.17,-191.02 1505.43,-196.58"/>
</g>
<!-- Node2&#45;&gt;Node3 -->
<g id="edge3" class="edge">
<title>Node2&#45;&gt;Node3</title>
<path fill="none" stroke="midnightblue" d="M150.17,-168.32C132.28,-159.62 104.52,-146.12 83.95,-136.11"/>
<polygon fill="midnightblue" stroke="midnightblue" points="85.31,-132.88 74.79,-131.65 82.25,-139.18 85.31,-132.88"/>
</g>
<!-- Node2&#45;&gt;Node4 -->
<g id="edge4" class="edge">
<title>Node2&#45;&gt;Node4</title>
<path fill="none" stroke="midnightblue" d="M194.62,-168.44C225.01,-158.68 274.59,-142.74 306.24,-132.57"/>
<polygon fill="midnightblue" stroke="midnightblue" points="307.38,-135.87 315.83,-129.48 305.24,-129.21 307.38,-135.87"/>
</g>
<!-- Node5&#45;&gt;Node6 -->
<g id="edge6" class="edge">
<title>Node5&#45;&gt;Node6</title>
<path fill="none" stroke="midnightblue" d="M1239.74,-169.18C1242.87,-168.78 1245.97,-168.38 1249,-168 1358.43,-154.26 1485.54,-139.67 1562.84,-130.95"/>
<polygon fill="midnightblue" stroke="midnightblue" points="1563.4,-134.41 1572.95,-129.81 1562.62,-127.45 1563.4,-134.41"/>
</g>
<!-- Node5&#45;&gt;Node9 -->
<g id="edge9" class="edge">
<title>Node5&#45;&gt;Node9</title>
<path fill="none" stroke="midnightblue" d="M1124.28,-169.04C1121.14,-168.67 1118.03,-168.32 1115,-168 912.14,-146.4 667.7,-130.52 578.61,-125.06"/>
<polygon fill="midnightblue" stroke="midnightblue" points="578.73,-121.56 568.53,-124.45 578.3,-128.55 578.73,-121.56"/>
</g>
<!-- Node7 -->
<g id="node8" class="node">
<title>Node7</title>
<polygon fill="none" stroke="#bfbfbf" points="1624.5,-56.5 1624.5,-75.5 1749.5,-75.5 1749.5,-56.5 1624.5,-56.5"/>
<text text-anchor="middle" x="1687" y="-63.5" font-family="Helvetica,sans-Serif" font-size="10.00">llvm/Config/llvm&#45;config.h</text>
</g>
<!-- Node6&#45;&gt;Node7 -->
<g id="edge7" class="edge">
<title>Node6&#45;&gt;Node7</title>
<path fill="none" stroke="midnightblue" d="M1642.75,-112.08C1650.47,-104.22 1661.9,-92.57 1671.22,-83.08"/>
<polygon fill="midnightblue" stroke="midnightblue" points="1673.9,-85.34 1678.41,-75.75 1668.91,-80.44 1673.9,-85.34"/>
</g>
<!-- Node8 -->
<g id="node9" class="node">
<title>Node8</title>
<polygon fill="none" stroke="#bfbfbf" points="1554,-56.5 1554,-75.5 1606,-75.5 1606,-56.5 1554,-56.5"/>
<text text-anchor="middle" x="1580" y="-63.5" font-family="Helvetica,sans-Serif" font-size="10.00">stddef.h</text>
</g>
<!-- Node6&#45;&gt;Node8 -->
<g id="edge8" class="edge">
<title>Node6&#45;&gt;Node8</title>
<path fill="none" stroke="midnightblue" d="M1625.08,-112.08C1617.22,-104.22 1605.57,-92.57 1596.08,-83.08"/>
<polygon fill="midnightblue" stroke="midnightblue" points="1598.3,-80.35 1588.75,-75.75 1593.35,-85.3 1598.3,-80.35"/>
</g>
<!-- Node10&#45;&gt;Node6 -->
<g id="edge12" class="edge">
<title>Node10&#45;&gt;Node6</title>
<path fill="none" stroke="midnightblue" d="M1328.67,-224.41C1351.59,-215.61 1387.98,-201.38 1419,-188 1438.35,-179.65 1442.17,-175.14 1462,-168 1501.91,-153.63 1548.54,-141.72 1583.17,-133.77"/>
<polygon fill="midnightblue" stroke="midnightblue" points="1584.08,-137.15 1593.06,-131.53 1582.54,-130.32 1584.08,-137.15"/>
</g>
<!-- Node11 -->
<g id="node12" class="node">
<title>Node11</title>
<g id="a_node12"><a xlink:href="SwapByteOrder_8h.html" target="_top" xlink:title="llvm/Support/SwapByteOrder.h">
<polygon fill="none" stroke="black" points="1258,-168.5 1258,-187.5 1410,-187.5 1410,-168.5 1258,-168.5"/>
<text text-anchor="middle" x="1334" y="-175.5" font-family="Helvetica,sans-Serif" font-size="10.00">llvm/Support/SwapByteOrder.h</text>
</a>
</g>
</g>
<!-- Node10&#45;&gt;Node11 -->
<g id="edge13" class="edge">
<title>Node10&#45;&gt;Node11</title>
<path fill="none" stroke="midnightblue" d="M1310.62,-224.08C1314.46,-216.69 1320.02,-205.95 1324.76,-196.81"/>
<polygon fill="midnightblue" stroke="midnightblue" points="1327.97,-198.24 1329.46,-187.75 1321.75,-195.02 1327.97,-198.24"/>
</g>
<!-- Node10&#45;&gt;Node18 -->
<g id="edge29" class="edge">
<title>Node10&#45;&gt;Node18</title>
<path fill="none" stroke="midnightblue" d="M1239.19,-232.43C1119.65,-230.52 874.42,-222.41 797,-188 773.18,-177.41 752.23,-155.33 739.6,-139.85"/>
<polygon fill="midnightblue" stroke="midnightblue" points="742.09,-137.35 733.16,-131.64 736.58,-141.67 742.09,-137.35"/>
</g>
<!-- Node10&#45;&gt;Node20 -->
<g id="edge24" class="edge">
<title>Node10&#45;&gt;Node20</title>
<path fill="none" stroke="midnightblue" d="M1239.17,-228.49C1077.72,-217.59 670.48,-190.1 544.04,-181.57"/>
<polygon fill="midnightblue" stroke="midnightblue" points="544.27,-178.08 534.06,-180.89 543.8,-185.06 544.27,-178.08"/>
</g>
<!-- Node10&#45;&gt;Node21 -->
<g id="edge25" class="edge">
<title>Node10&#45;&gt;Node21</title>
<path fill="none" stroke="midnightblue" d="M1372.65,-229.64C1458.67,-224.56 1613.04,-212.95 1754.09,-187.87"/>
<polygon fill="midnightblue" stroke="midnightblue" points="1755,-191.27 1764.22,-186.05 1753.76,-184.38 1755,-191.27"/>
</g>
<!-- Node22 -->
<g id="node23" class="node">
<title>Node22</title>
<polygon fill="none" stroke="#bfbfbf" points="876.5,-168.5 876.5,-187.5 921.5,-187.5 921.5,-168.5 876.5,-168.5"/>
<text text-anchor="middle" x="899" y="-175.5" font-family="Helvetica,sans-Serif" font-size="10.00">climits</text>
</g>
<!-- Node10&#45;&gt;Node22 -->
<g id="edge26" class="edge">
<title>Node10&#45;&gt;Node22</title>
<path fill="none" stroke="midnightblue" d="M1239.48,-227.29C1165.14,-220.35 1041.37,-207.15 936,-188 934.54,-187.73 933.04,-187.45 931.54,-187.14"/>
<polygon fill="midnightblue" stroke="midnightblue" points="932.13,-183.69 921.61,-184.95 930.62,-190.52 932.13,-183.69"/>
</g>
<!-- Node10&#45;&gt;Node23 -->
<g id="edge27" class="edge">
<title>Node10&#45;&gt;Node23</title>
<path fill="none" stroke="midnightblue" d="M1239.26,-230.8C1136.57,-226.67 933.86,-215.54 764,-188 762.75,-187.8 761.48,-187.58 760.21,-187.34"/>
<polygon fill="midnightblue" stroke="midnightblue" points="760.88,-183.9 750.38,-185.27 759.44,-190.75 760.88,-183.9"/>
</g>
<!-- Node24 -->
<g id="node25" class="node">
<title>Node24</title>
<polygon fill="none" stroke="#bfbfbf" points="1706,-168.5 1706,-187.5 1746,-187.5 1746,-168.5 1706,-168.5"/>
<text text-anchor="middle" x="1726" y="-175.5" font-family="Helvetica,sans-Serif" font-size="10.00">limits</text>
</g>
<!-- Node10&#45;&gt;Node24 -->
<g id="edge28" class="edge">
<title>Node10&#45;&gt;Node24</title>
<path fill="none" stroke="midnightblue" d="M1372.71,-224.63C1443.7,-215.7 1559.3,-201.05 1659,-188 1671.03,-186.43 1684.27,-184.66 1695.77,-183.1"/>
<polygon fill="midnightblue" stroke="midnightblue" points="1696.33,-186.56 1705.77,-181.75 1695.4,-179.62 1696.33,-186.56"/>
</g>
<!-- Node11&#45;&gt;Node6 -->
<g id="edge14" class="edge">
<title>Node11&#45;&gt;Node6</title>
<path fill="none" stroke="midnightblue" d="M1381.54,-168.44C1434.53,-158.9 1520.2,-143.48 1576.82,-133.29"/>
<polygon fill="midnightblue" stroke="midnightblue" points="1577.46,-136.73 1586.69,-131.52 1576.22,-129.84 1577.46,-136.73"/>
</g>
<!-- Node11&#45;&gt;Node9 -->
<g id="edge21" class="edge">
<title>Node11&#45;&gt;Node9</title>
<path fill="none" stroke="midnightblue" d="M1257.56,-168.75C1254.67,-168.49 1251.81,-168.24 1249,-168 1232.12,-166.57 719.01,-134.07 579,-125.21"/>
<polygon fill="midnightblue" stroke="midnightblue" points="579.03,-121.71 568.83,-124.57 578.59,-128.7 579.03,-121.71"/>
</g>
<!-- Node12 -->
<g id="node13" class="node">
<title>Node12</title>
<g id="a_node13"><a xlink:href="Support_2DataTypes_8h.html" target="_top" xlink:title="llvm/Support/DataTypes.h">
<polygon fill="none" stroke="black" points="1203.5,-112.5 1203.5,-131.5 1334.5,-131.5 1334.5,-112.5 1203.5,-112.5"/>
<text text-anchor="middle" x="1269" y="-119.5" font-family="Helvetica,sans-Serif" font-size="10.00">llvm/Support/DataTypes.h</text>
</a>
</g>
</g>
<!-- Node11&#45;&gt;Node12 -->
<g id="edge15" class="edge">
<title>Node11&#45;&gt;Node12</title>
<path fill="none" stroke="midnightblue" d="M1323.56,-168.32C1313.85,-160.26 1299.18,-148.08 1287.5,-138.37"/>
<polygon fill="midnightblue" stroke="midnightblue" points="1289.56,-135.53 1279.63,-131.83 1285.09,-140.92 1289.56,-135.53"/>
</g>
<!-- Node11&#45;&gt;Node18 -->
<g id="edge22" class="edge">
<title>Node11&#45;&gt;Node18</title>
<path fill="none" stroke="midnightblue" d="M1257.55,-168.83C1254.66,-168.55 1251.81,-168.27 1249,-168 1070.2,-150.83 856.64,-133.37 768.34,-126.29"/>
<polygon fill="midnightblue" stroke="midnightblue" points="768.45,-122.79 758.2,-125.48 767.89,-129.76 768.45,-122.79"/>
</g>
<!-- Node19 -->
<g id="node20" class="node">
<title>Node19</title>
<polygon fill="none" stroke="#bfbfbf" points="1352.5,-112.5 1352.5,-131.5 1445.5,-131.5 1445.5,-112.5 1352.5,-112.5"/>
<text text-anchor="middle" x="1399" y="-119.5" font-family="Helvetica,sans-Serif" font-size="10.00">machine/endian.h</text>
</g>
<!-- Node11&#45;&gt;Node19 -->
<g id="edge23" class="edge">
<title>Node11&#45;&gt;Node19</title>
<path fill="none" stroke="midnightblue" d="M1344.44,-168.32C1354.15,-160.26 1368.82,-148.08 1380.5,-138.37"/>
<polygon fill="midnightblue" stroke="midnightblue" points="1382.91,-140.92 1388.37,-131.83 1378.44,-135.53 1382.91,-140.92"/>
</g>
<!-- Node13 -->
<g id="node14" class="node">
<title>Node13</title>
<g id="a_node14"><a xlink:href="c_2DataTypes_8h.html" target="_top" xlink:title="llvm&#45;c/DataTypes.h">
<polygon fill="none" stroke="black" points="1218,-56.5 1218,-75.5 1320,-75.5 1320,-56.5 1218,-56.5"/>
<text text-anchor="middle" x="1269" y="-63.5" font-family="Helvetica,sans-Serif" font-size="10.00">llvm&#45;c/DataTypes.h</text>
</a>
</g>
</g>
<!-- Node12&#45;&gt;Node13 -->
<g id="edge16" class="edge">
<title>Node12&#45;&gt;Node13</title>
<path fill="none" stroke="midnightblue" d="M1269,-112.08C1269,-105.01 1269,-94.86 1269,-85.99"/>
<polygon fill="midnightblue" stroke="midnightblue" points="1272.5,-85.75 1269,-75.75 1265.5,-85.75 1272.5,-85.75"/>
</g>
<!-- Node14 -->
<g id="node15" class="node">
<title>Node14</title>
<polygon fill="none" stroke="#bfbfbf" points="1138.5,-0.5 1138.5,-19.5 1185.5,-19.5 1185.5,-0.5 1138.5,-0.5"/>
<text text-anchor="middle" x="1162" y="-7.5" font-family="Helvetica,sans-Serif" font-size="10.00">math.h</text>
</g>
<!-- Node13&#45;&gt;Node14 -->
<g id="edge17" class="edge">
<title>Node13&#45;&gt;Node14</title>
<path fill="none" stroke="midnightblue" d="M1251.81,-56.32C1234.65,-47.66 1208.05,-34.24 1188.25,-24.25"/>
<polygon fill="midnightblue" stroke="midnightblue" points="1189.65,-21.04 1179.15,-19.65 1186.5,-27.28 1189.65,-21.04"/>
</g>
<!-- Node15 -->
<g id="node16" class="node">
<title>Node15</title>
<polygon fill="none" stroke="#bfbfbf" points="1203.5,-0.5 1203.5,-19.5 1262.5,-19.5 1262.5,-0.5 1203.5,-0.5"/>
<text text-anchor="middle" x="1233" y="-7.5" font-family="Helvetica,sans-Serif" font-size="10.00">inttypes.h</text>
</g>
<!-- Node13&#45;&gt;Node15 -->
<g id="edge18" class="edge">
<title>Node13&#45;&gt;Node15</title>
<path fill="none" stroke="midnightblue" d="M1263.06,-56.08C1258.02,-48.53 1250.66,-37.49 1244.49,-28.23"/>
<polygon fill="midnightblue" stroke="midnightblue" points="1247.29,-26.13 1238.83,-19.75 1241.47,-30.01 1247.29,-26.13"/>
</g>
<!-- Node16 -->
<g id="node17" class="node">
<title>Node16</title>
<polygon fill="none" stroke="#bfbfbf" points="1280.5,-0.5 1280.5,-19.5 1329.5,-19.5 1329.5,-0.5 1280.5,-0.5"/>
<text text-anchor="middle" x="1305" y="-7.5" font-family="Helvetica,sans-Serif" font-size="10.00">stdint.h</text>
</g>
<!-- Node13&#45;&gt;Node16 -->
<g id="edge19" class="edge">
<title>Node13&#45;&gt;Node16</title>
<path fill="none" stroke="midnightblue" d="M1274.94,-56.08C1279.98,-48.53 1287.34,-37.49 1293.51,-28.23"/>
<polygon fill="midnightblue" stroke="midnightblue" points="1296.53,-30.01 1299.17,-19.75 1290.71,-26.13 1296.53,-30.01"/>
</g>
<!-- Node17 -->
<g id="node18" class="node">
<title>Node17</title>
<polygon fill="none" stroke="#bfbfbf" points="1348,-0.5 1348,-19.5 1416,-19.5 1416,-0.5 1348,-0.5"/>
<text text-anchor="middle" x="1382" y="-7.5" font-family="Helvetica,sans-Serif" font-size="10.00">sys/types.h</text>
</g>
<!-- Node13&#45;&gt;Node17 -->
<g id="edge20" class="edge">
<title>Node13&#45;&gt;Node17</title>
<path fill="none" stroke="midnightblue" d="M1286.91,-56.44C1305.25,-47.68 1334.01,-33.94 1355.09,-23.86"/>
<polygon fill="midnightblue" stroke="midnightblue" points="1356.67,-26.99 1364.18,-19.52 1353.65,-20.67 1356.67,-26.99"/>
</g>
<!-- Node25&#45;&gt;Node6 -->
<g id="edge31" class="edge">
<title>Node25&#45;&gt;Node6</title>
<path fill="none" stroke="midnightblue" d="M1918.05,-224.22C1914.39,-209.97 1905.1,-182.01 1886,-168 1857.85,-147.36 1769.35,-135.1 1705.17,-128.72"/>
<polygon fill="midnightblue" stroke="midnightblue" points="1705.39,-125.22 1695.09,-127.74 1704.71,-132.19 1705.39,-125.22"/>
</g>
<!-- Node25&#45;&gt;Node26 -->
<g id="edge32" class="edge">
<title>Node25&#45;&gt;Node26</title>
<path fill="none" stroke="midnightblue" d="M1933.5,-224.32C1946.6,-215.9 1966.71,-202.97 1982.11,-193.07"/>
<polygon fill="midnightblue" stroke="midnightblue" points="1984.02,-196.01 1990.54,-187.65 1980.23,-190.12 1984.02,-196.01"/>
</g>
<!-- Node25&#45;&gt;Node28 -->
<g id="edge35" class="edge">
<title>Node25&#45;&gt;Node28</title>
<path fill="none" stroke="midnightblue" d="M1909.4,-224.32C1899.54,-216.26 1884.65,-204.08 1872.78,-194.37"/>
<polygon fill="midnightblue" stroke="midnightblue" points="1874.75,-191.46 1864.8,-187.83 1870.32,-196.88 1874.75,-191.46"/>
</g>
<!-- Node26&#45;&gt;Node6 -->
<g id="edge33" class="edge">
<title>Node26&#45;&gt;Node6</title>
<path fill="none" stroke="midnightblue" d="M1945.37,-168.44C1879.34,-158.81 1772.16,-143.16 1702.37,-132.98"/>
<polygon fill="midnightblue" stroke="midnightblue" points="1702.75,-129.5 1692.35,-131.52 1701.74,-136.42 1702.75,-129.5"/>
</g>
<!-- Node27 -->
<g id="node28" class="node">
<title>Node27</title>
<polygon fill="none" stroke="#bfbfbf" points="1983.5,-112.5 1983.5,-131.5 2024.5,-131.5 2024.5,-112.5 1983.5,-112.5"/>
<text text-anchor="middle" x="2004" y="-119.5" font-family="Helvetica,sans-Serif" font-size="10.00">string</text>
</g>
<!-- Node26&#45;&gt;Node27 -->
<g id="edge34" class="edge">
<title>Node26&#45;&gt;Node27</title>
<path fill="none" stroke="midnightblue" d="M2004,-168.08C2004,-161.01 2004,-150.86 2004,-141.99"/>
<polygon fill="midnightblue" stroke="midnightblue" points="2007.5,-141.75 2004,-131.75 2000.5,-141.75 2007.5,-141.75"/>
</g>
<!-- Node29&#45;&gt;Node4 -->
<g id="edge39" class="edge">
<title>Node29&#45;&gt;Node4</title>
<path fill="none" stroke="midnightblue" d="M977.75,-169.36C973.1,-168.88 968.48,-168.42 964,-168 734.44,-146.54 456.84,-129.9 366.2,-124.7"/>
<polygon fill="midnightblue" stroke="midnightblue" points="366.27,-121.2 356.09,-124.12 365.87,-128.19 366.27,-121.2"/>
</g>
<!-- Node29&#45;&gt;Node6 -->
<g id="edge37" class="edge">
<title>Node29&#45;&gt;Node6</title>
<path fill="none" stroke="midnightblue" d="M1106.16,-169.06C1109.49,-168.69 1112.78,-168.34 1116,-168 1275.5,-151.38 1463.08,-136.16 1562.96,-128.39"/>
<polygon fill="midnightblue" stroke="midnightblue" points="1563.23,-131.88 1572.93,-127.62 1562.69,-124.9 1563.23,-131.88"/>
</g>
<!-- Node29&#45;&gt;Node18 -->
<g id="edge38" class="edge">
<title>Node29&#45;&gt;Node18</title>
<path fill="none" stroke="midnightblue" d="M992.09,-168.44C930.19,-157.83 825.83,-139.94 768.25,-130.07"/>
<polygon fill="midnightblue" stroke="midnightblue" points="768.51,-126.56 758.06,-128.32 767.32,-133.46 768.51,-126.56"/>
</g>
<!-- Node33&#45;&gt;Node2 -->
<g id="edge53" class="edge">
<title>Node33&#45;&gt;Node2</title>
<path fill="none" stroke="midnightblue" d="M243.54,-224.32C229.5,-215.9 207.95,-202.97 191.46,-193.07"/>
<polygon fill="midnightblue" stroke="midnightblue" points="192.8,-189.8 182.42,-187.65 189.2,-195.8 192.8,-189.8"/>
</g>
<!-- Node33&#45;&gt;Node3 -->
<g id="edge56" class="edge">
<title>Node33&#45;&gt;Node3</title>
<path fill="none" stroke="midnightblue" d="M208.37,-229.14C173.6,-224.24 127.7,-213.14 95,-188 79.49,-176.07 69.13,-155.87 63.19,-141.15"/>
<polygon fill="midnightblue" stroke="midnightblue" points="66.41,-139.75 59.65,-131.6 59.85,-142.19 66.41,-139.75"/>
</g>
<!-- Node33&#45;&gt;Node4 -->
<g id="edge58" class="edge">
<title>Node33&#45;&gt;Node4</title>
<path fill="none" stroke="midnightblue" d="M260.04,-224.36C263.44,-211.27 271.17,-186.02 284,-168 292.33,-156.3 304.32,-145.66 314.68,-137.66"/>
<polygon fill="midnightblue" stroke="midnightblue" points="316.93,-140.36 322.89,-131.61 312.77,-134.73 316.93,-140.36"/>
</g>
<!-- Node33&#45;&gt;Node9 -->
<g id="edge55" class="edge">
<title>Node33&#45;&gt;Node9</title>
<path fill="none" stroke="midnightblue" d="M268.94,-224.29C286.92,-210.41 324.27,-183.26 360,-168 409.76,-146.75 471.56,-134.23 509.37,-127.99"/>
<polygon fill="midnightblue" stroke="midnightblue" points="510.05,-131.43 519.37,-126.4 508.95,-124.51 510.05,-131.43"/>
</g>
<!-- Node33&#45;&gt;Node18 -->
<g id="edge57" class="edge">
<title>Node33&#45;&gt;Node18</title>
<path fill="none" stroke="midnightblue" d="M282.09,-224.49C320.99,-210.99 400.24,-184.52 469,-168 544.69,-149.82 634.53,-135.83 685.75,-128.56"/>
<polygon fill="midnightblue" stroke="midnightblue" points="686.35,-132.01 695.76,-127.15 685.37,-125.07 686.35,-132.01"/>
</g>
<!-- Node33&#45;&gt;Node20 -->
<g id="edge54" class="edge">
<title>Node33&#45;&gt;Node20</title>
<path fill="none" stroke="midnightblue" d="M297.3,-224.44C344.02,-214.27 421.49,-197.4 467.75,-187.33"/>
<polygon fill="midnightblue" stroke="midnightblue" points="468.66,-190.71 477.69,-185.16 467.17,-183.87 468.66,-190.71"/>
</g>
<!-- Node34&#45;&gt;Node1 -->
<g id="edge68" class="edge">
<title>Node34&#45;&gt;Node1</title>
<path fill="none" stroke="midnightblue" d="M1314.66,-336.44C1257.19,-326.87 1164.13,-311.36 1103,-301.17"/>
<polygon fill="midnightblue" stroke="midnightblue" points="1103.54,-297.71 1093.1,-299.52 1102.39,-304.61 1103.54,-297.71"/>
</g>
<!-- Node34&#45;&gt;Node3 -->
<g id="edge84" class="edge">
<title>Node34&#45;&gt;Node3</title>
<path fill="none" stroke="midnightblue" d="M1305.47,-344.11C1161.06,-341.52 785.13,-331.99 473,-300 311.48,-283.45 255.4,-320.15 112,-244 82,-228.07 73.14,-219.32 60,-188 53.85,-173.35 53.55,-155.18 54.53,-141.78"/>
<polygon fill="midnightblue" stroke="midnightblue" points="58.02,-142.13 55.56,-131.83 51.05,-141.42 58.02,-142.13"/>
</g>
<!-- Node34&#45;&gt;Node4 -->
<g id="edge86" class="edge">
<title>Node34&#45;&gt;Node4</title>
<path fill="none" stroke="midnightblue" d="M1305.2,-344.34C1121.76,-342 581.91,-332.39 510,-300 432.1,-264.91 370.49,-177.99 346.67,-140.58"/>
<polygon fill="midnightblue" stroke="midnightblue" points="349.46,-138.45 341.2,-131.81 343.52,-142.15 349.46,-138.45"/>
</g>
<!-- Node34&#45;&gt;Node6 -->
<g id="edge75" class="edge">
<title>Node34&#45;&gt;Node6</title>
<path fill="none" stroke="midnightblue" d="M1426.75,-342.86C1549.47,-338.06 1822.87,-324.88 1913,-300 1940.21,-292.49 2003.07,-258.96 2027,-244 2061.37,-222.51 2081.19,-224.42 2099,-188 2102.91,-180.01 2104.98,-174.58 2099,-168 2073.08,-139.45 1829.11,-128.49 1705.32,-124.73"/>
<polygon fill="midnightblue" stroke="midnightblue" points="1705.27,-121.23 1695.17,-124.43 1705.06,-128.23 1705.27,-121.23"/>
</g>
<!-- Node34&#45;&gt;Node9 -->
<g id="edge81" class="edge">
<title>Node34&#45;&gt;Node9</title>
<path fill="none" stroke="midnightblue" d="M1305.38,-344.71C1127.05,-343.44 612.65,-336.61 547,-300 487.48,-266.81 435.43,-227.3 469,-168 477.86,-152.35 494.57,-141.55 509.98,-134.46"/>
<polygon fill="midnightblue" stroke="midnightblue" points="511.46,-137.63 519.32,-130.52 508.74,-131.18 511.46,-137.63"/>
</g>
<!-- Node34&#45;&gt;Node10 -->
<g id="edge77" class="edge">
<title>Node34&#45;&gt;Node10</title>
<path fill="none" stroke="midnightblue" d="M1361.29,-336.37C1351.48,-318.38 1328.66,-276.55 1315.61,-252.63"/>
<polygon fill="midnightblue" stroke="midnightblue" points="1318.55,-250.69 1310.69,-243.59 1312.4,-254.05 1318.55,-250.69"/>
</g>
<!-- Node34&#45;&gt;Node18 -->
<g id="edge85" class="edge">
<title>Node34&#45;&gt;Node18</title>
<path fill="none" stroke="midnightblue" d="M1305.33,-340.92C1141.47,-329.28 699.48,-293.53 658,-244 629.31,-209.75 677.98,-161.91 707.28,-137.94"/>
<polygon fill="midnightblue" stroke="midnightblue" points="709.64,-140.53 715.3,-131.57 705.29,-135.05 709.64,-140.53"/>
</g>
<!-- Node34&#45;&gt;Node20 -->
<g id="edge79" class="edge">
<title>Node34&#45;&gt;Node20</title>
<path fill="none" stroke="midnightblue" d="M1305.25,-343.81C1133.33,-340.13 651.62,-327.44 586,-300 551.74,-285.67 543.51,-275.59 524,-244 515.25,-229.83 510.67,-211.35 508.32,-197.72"/>
<polygon fill="midnightblue" stroke="midnightblue" points="511.75,-196.99 506.84,-187.61 504.83,-198.01 511.75,-196.99"/>
</g>
<!-- Node34&#45;&gt;Node21 -->
<g id="edge80" class="edge">
<title>Node34&#45;&gt;Node21</title>
<path fill="none" stroke="midnightblue" d="M1426.68,-345.07C1486.41,-342.97 1578.88,-333.8 1651,-300 1704.66,-274.85 1753.19,-222.38 1775.72,-195.56"/>
<polygon fill="midnightblue" stroke="midnightblue" points="1778.68,-197.47 1782.33,-187.53 1773.27,-193.02 1778.68,-197.47"/>
</g>
<!-- Node34&#45;&gt;Node25 -->
<g id="edge78" class="edge">
<title>Node34&#45;&gt;Node25</title>
<path fill="none" stroke="midnightblue" d="M1426.73,-343.77C1537.88,-340.77 1769.38,-330.92 1843,-300 1868.59,-289.26 1892.03,-266.87 1906.16,-251.4"/>
<polygon fill="midnightblue" stroke="midnightblue" points="1909.02,-253.44 1913.01,-243.63 1903.77,-248.81 1909.02,-253.44"/>
</g>
<!-- Node34&#45;&gt;Node26 -->
<g id="edge76" class="edge">
<title>Node34&#45;&gt;Node26</title>
<path fill="none" stroke="midnightblue" d="M1426.59,-341.88C1542.12,-335.55 1789.79,-320.1 1873,-300 1881.04,-298.06 2006.38,-250.86 2011,-244 2020.19,-230.35 2016.72,-211.3 2011.99,-197.36"/>
<polygon fill="midnightblue" stroke="midnightblue" points="2015.19,-195.92 2008.31,-187.86 2008.66,-198.45 2015.19,-195.92"/>
</g>
<!-- Node34&#45;&gt;Node28 -->
<g id="edge83" class="edge">
<title>Node34&#45;&gt;Node28</title>
<path fill="none" stroke="midnightblue" d="M1426.75,-344.61C1491.8,-342.33 1596.99,-333.18 1681,-300 1745.23,-274.64 1808.62,-221.07 1837.62,-194.55"/>
<polygon fill="midnightblue" stroke="midnightblue" points="1840.22,-196.91 1845.17,-187.54 1835.46,-191.78 1840.22,-196.91"/>
</g>
<!-- Node35 -->
<g id="node36" class="node">
<title>Node35</title>
<g id="a_node36"><a xlink:href="Optional_8h.html" target="_top" xlink:title="llvm/ADT/Optional.h">
<polygon fill="none" stroke="black" points="1467.5,-224.5 1467.5,-243.5 1572.5,-243.5 1572.5,-224.5 1467.5,-224.5"/>
<text text-anchor="middle" x="1520" y="-231.5" font-family="Helvetica,sans-Serif" font-size="10.00">llvm/ADT/Optional.h</text>
</a>
</g>
</g>
<!-- Node34&#45;&gt;Node35 -->
<g id="edge60" class="edge">
<title>Node34&#45;&gt;Node35</title>
<path fill="none" stroke="midnightblue" d="M1378.08,-336.37C1404.4,-317.57 1467.12,-272.77 1499.65,-249.53"/>
<polygon fill="midnightblue" stroke="midnightblue" points="1501.87,-252.25 1507.97,-243.59 1497.8,-246.56 1501.87,-252.25"/>
</g>
<!-- Node37 -->
<g id="node38" class="node">
<title>Node37</title>
<g id="a_node38"><a xlink:href="Alignment_8h.html" target="_top" xlink:title="llvm/Support/Alignment.h">
<polygon fill="none" stroke="black" points="1516,-280.5 1516,-299.5 1642,-299.5 1642,-280.5 1516,-280.5"/>
<text text-anchor="middle" x="1579" y="-287.5" font-family="Helvetica,sans-Serif" font-size="10.00">llvm/Support/Alignment.h</text>
</a>
</g>
</g>
<!-- Node34&#45;&gt;Node37 -->
<g id="edge69" class="edge">
<title>Node34&#45;&gt;Node37</title>
<path fill="none" stroke="midnightblue" d="M1399.75,-336.44C1436.52,-327.12 1495.45,-312.18 1535.62,-302"/>
<polygon fill="midnightblue" stroke="midnightblue" points="1536.57,-305.37 1545.41,-299.52 1534.85,-298.58 1536.57,-305.37"/>
</g>
<!-- Node34&#45;&gt;Node38 -->
<g id="edge82" class="edge">
<title>Node34&#45;&gt;Node38</title>
<path fill="none" stroke="midnightblue" d="M1426.78,-343.63C1534.33,-340.48 1764.92,-330.47 1957,-300 1958.25,-299.8 1959.52,-299.58 1960.8,-299.35"/>
<polygon fill="midnightblue" stroke="midnightblue" points="1961.56,-302.76 1970.63,-297.29 1960.12,-295.91 1961.56,-302.76"/>
</g>
<!-- Node35&#45;&gt;Node4 -->
<g id="edge67" class="edge">
<title>Node35&#45;&gt;Node4</title>
<path fill="none" stroke="midnightblue" d="M1467.38,-229.28C1334.22,-219.77 992.7,-194.89 969,-188 950.67,-182.67 949.34,-173.27 931,-168 876.51,-152.33 480.03,-130.55 366.38,-124.57"/>
<polygon fill="midnightblue" stroke="midnightblue" points="366.45,-121.07 356.28,-124.04 366.08,-128.06 366.45,-121.07"/>
</g>
<!-- Node35&#45;&gt;Node6 -->
<g id="edge62" class="edge">
<title>Node35&#45;&gt;Node6</title>
<path fill="none" stroke="midnightblue" d="M1564.57,-224.47C1600.78,-216.53 1647.66,-203.59 1659,-188 1669.72,-173.26 1659.15,-153.35 1648.65,-139.46"/>
<polygon fill="midnightblue" stroke="midnightblue" points="1651.34,-137.23 1642.3,-131.69 1645.92,-141.65 1651.34,-137.23"/>
</g>
<!-- Node35&#45;&gt;Node21 -->
<g id="edge64" class="edge">
<title>Node35&#45;&gt;Node21</title>
<path fill="none" stroke="midnightblue" d="M1570.18,-224.43C1615.76,-216.42 1685.04,-203.65 1754.38,-188.01"/>
<polygon fill="midnightblue" stroke="midnightblue" points="1755.19,-191.42 1764.17,-185.79 1753.64,-184.59 1755.19,-191.42"/>
</g>
<!-- Node35&#45;&gt;Node29 -->
<g id="edge63" class="edge">
<title>Node35&#45;&gt;Node29</title>
<path fill="none" stroke="midnightblue" d="M1467.36,-227.31C1392.12,-219.13 1249.2,-203.47 1116.14,-188.01"/>
<polygon fill="midnightblue" stroke="midnightblue" points="1116.51,-184.52 1106.17,-186.84 1115.7,-191.48 1116.51,-184.52"/>
</g>
<!-- Node35&#45;&gt;Node31 -->
<g id="edge65" class="edge">
<title>Node35&#45;&gt;Node31</title>
<path fill="none" stroke="midnightblue" d="M1467.47,-229.5C1325.22,-220 938.95,-194.1 868.32,-187.28"/>
<polygon fill="midnightblue" stroke="midnightblue" points="868.57,-183.79 858.24,-186.13 867.77,-190.74 868.57,-183.79"/>
</g>
<!-- Node35&#45;&gt;Node32 -->
<g id="edge66" class="edge">
<title>Node35&#45;&gt;Node32</title>
<path fill="none" stroke="midnightblue" d="M1520.33,-224.08C1520.59,-217.01 1520.97,-206.86 1521.3,-197.99"/>
<polygon fill="midnightblue" stroke="midnightblue" points="1524.8,-197.87 1521.68,-187.75 1517.81,-197.61 1524.8,-197.87"/>
</g>
<!-- Node36 -->
<g id="node37" class="node">
<title>Node36</title>
<g id="a_node37"><a xlink:href="None_8h.html" target="_top" xlink:title="llvm/ADT/None.h">
<polygon fill="none" stroke="black" points="1558,-168.5 1558,-187.5 1650,-187.5 1650,-168.5 1558,-168.5"/>
<text text-anchor="middle" x="1604" y="-175.5" font-family="Helvetica,sans-Serif" font-size="10.00">llvm/ADT/None.h</text>
</a>
</g>
</g>
<!-- Node35&#45;&gt;Node36 -->
<g id="edge61" class="edge">
<title>Node35&#45;&gt;Node36</title>
<path fill="none" stroke="midnightblue" d="M1533.5,-224.32C1546.6,-215.9 1566.71,-202.97 1582.11,-193.07"/>
<polygon fill="midnightblue" stroke="midnightblue" points="1584.02,-196.01 1590.54,-187.65 1580.23,-190.12 1584.02,-196.01"/>
</g>
<!-- Node37&#45;&gt;Node6 -->
<g id="edge71" class="edge">
<title>Node37&#45;&gt;Node6</title>
<path fill="none" stroke="midnightblue" d="M1642.37,-286.62C1745.72,-282.04 1945.59,-270.06 2011,-244 2048.99,-228.87 2065.91,-224.67 2084,-188 2087.93,-180.03 2089.96,-174.59 2084,-168 2059.14,-140.53 1826.31,-129.1 1705.7,-125"/>
<polygon fill="midnightblue" stroke="midnightblue" points="1705.56,-121.49 1695.45,-124.66 1705.33,-128.49 1705.56,-121.49"/>
</g>
<!-- Node37&#45;&gt;Node10 -->
<g id="edge72" class="edge">
<title>Node37&#45;&gt;Node10</title>
<path fill="none" stroke="midnightblue" d="M1535.74,-280.44C1487.82,-270.96 1410.52,-255.67 1359,-245.48"/>
<polygon fill="midnightblue" stroke="midnightblue" points="1359.54,-242.02 1349.06,-243.52 1358.19,-248.89 1359.54,-242.02"/>
</g>
<!-- Node37&#45;&gt;Node21 -->
<g id="edge73" class="edge">
<title>Node37&#45;&gt;Node21</title>
<path fill="none" stroke="midnightblue" d="M1595.48,-280.37C1631.97,-261.25 1719.84,-215.23 1763.49,-192.36"/>
<polygon fill="midnightblue" stroke="midnightblue" points="1765.36,-195.33 1772.6,-187.59 1762.12,-189.13 1765.36,-195.33"/>
</g>
<!-- Node37&#45;&gt;Node24 -->
<g id="edge74" class="edge">
<title>Node37&#45;&gt;Node24</title>
<path fill="none" stroke="midnightblue" d="M1589.77,-280.45C1605.66,-267.89 1636.37,-243.81 1663,-224 1676.89,-213.67 1692.74,-202.35 1705.07,-193.65"/>
<polygon fill="midnightblue" stroke="midnightblue" points="1707.18,-196.44 1713.35,-187.82 1703.15,-190.72 1707.18,-196.44"/>
</g>
<!-- Node37&#45;&gt;Node35 -->
<g id="edge70" class="edge">
<title>Node37&#45;&gt;Node35</title>
<path fill="none" stroke="midnightblue" d="M1569.52,-280.32C1560.8,-272.34 1547.66,-260.31 1537.1,-250.65"/>
<polygon fill="midnightblue" stroke="midnightblue" points="1539.39,-248 1529.65,-243.83 1534.67,-253.17 1539.39,-248"/>
</g>
</g>
</svg>
