<?xml version="1.0" encoding="UTF-8" standalone="no"?>
<!DOCTYPE svg PUBLIC "-//W3C//DTD SVG 1.1//EN"
 "http://www.w3.org/Graphics/SVG/1.1/DTD/svg11.dtd">
<!-- Generated by graphviz version 2.43.0 (0)
 -->
<!-- Title: include/llvm/ProfileData/GCOV.h Pages: 1 -->
<svg width="568pt" height="173pt"
 viewBox="0.00 0.00 567.50 173.00" xmlns="http://www.w3.org/2000/svg" xmlns:xlink="http://www.w3.org/1999/xlink">
<g id="graph0" class="graph" transform="scale(1 1) rotate(0) translate(4 169)">
<title>include/llvm/ProfileData/GCOV.h</title>
<!-- Node85 -->
<g id="node1" class="node">
<title>Node85</title>
<polygon fill="#bfbfbf" stroke="black" points="314,-134.5 314,-164.5 434,-164.5 434,-134.5 314,-134.5"/>
<text text-anchor="start" x="322" y="-152.5" font-family="Helvetica,sans-Serif" font-size="10.00">include/llvm/ProfileData</text>
<text text-anchor="middle" x="374" y="-141.5" font-family="Helvetica,sans-Serif" font-size="10.00">/GCOV.h</text>
</g>
<!-- Node86 -->
<g id="node2" class="node">
<title>Node86</title>
<g id="a_node2"><a xlink:href="SampleProfReader_8h.html" target="_top" xlink:title="include/llvm/ProfileData\l/SampleProfReader.h">
<polygon fill="none" stroke="black" points="243,-67.5 243,-97.5 363,-97.5 363,-67.5 243,-67.5"/>
<text text-anchor="start" x="251" y="-85.5" font-family="Helvetica,sans-Serif" font-size="10.00">include/llvm/ProfileData</text>
<text text-anchor="middle" x="303" y="-74.5" font-family="Helvetica,sans-Serif" font-size="10.00">/SampleProfReader.h</text>
</a>
</g>
</g>
<!-- Node85&#45;&gt;Node86 -->
<g id="edge1" class="edge">
<title>Node85&#45;&gt;Node86</title>
<path fill="none" stroke="midnightblue" d="M351.17,-127.6C340.45,-117.78 327.95,-106.34 318.38,-97.58"/>
<polygon fill="midnightblue" stroke="midnightblue" points="348.85,-130.22 358.59,-134.4 353.58,-125.06 348.85,-130.22"/>
</g>
<!-- Node91 -->
<g id="node7" class="node">
<title>Node91</title>
<g id="a_node7"><a xlink:href="GCOV_8cpp.html" target="_top" xlink:title="lib/ProfileData/GCOV.cpp">
<polygon fill="none" stroke="black" points="381.5,-73 381.5,-92 510.5,-92 510.5,-73 381.5,-73"/>
<text text-anchor="middle" x="446" y="-80" font-family="Helvetica,sans-Serif" font-size="10.00">lib/ProfileData/GCOV.cpp</text>
</a>
</g>
</g>
<!-- Node85&#45;&gt;Node91 -->
<g id="edge6" class="edge">
<title>Node85&#45;&gt;Node91</title>
<path fill="none" stroke="midnightblue" d="M397.07,-127.67C410.36,-115.67 426.37,-101.22 436.37,-92.19"/>
<polygon fill="midnightblue" stroke="midnightblue" points="394.7,-125.1 389.62,-134.4 399.39,-130.29 394.7,-125.1"/>
</g>
<!-- Node87 -->
<g id="node3" class="node">
<title>Node87</title>
<g id="a_node3"><a xlink:href="SampleProfReader_8cpp.html" target="_top" xlink:title="lib/ProfileData/SampleProf\lReader.cpp">
<polygon fill="none" stroke="black" points="0,-0.5 0,-30.5 132,-30.5 132,-0.5 0,-0.5"/>
<text text-anchor="start" x="8" y="-18.5" font-family="Helvetica,sans-Serif" font-size="10.00">lib/ProfileData/SampleProf</text>
<text text-anchor="middle" x="66" y="-7.5" font-family="Helvetica,sans-Serif" font-size="10.00">Reader.cpp</text>
</a>
</g>
</g>
<!-- Node86&#45;&gt;Node87 -->
<g id="edge2" class="edge">
<title>Node86&#45;&gt;Node87</title>
<path fill="none" stroke="midnightblue" d="M241.8,-64.71C203.23,-54.14 154,-40.63 117.45,-30.61"/>
<polygon fill="midnightblue" stroke="midnightblue" points="241.3,-68.21 251.87,-67.48 243.15,-61.46 241.3,-68.21"/>
</g>
<!-- Node88 -->
<g id="node4" class="node">
<title>Node88</title>
<g id="a_node4"><a xlink:href="X86DiscriminateMemOps_8cpp.html" target="_top" xlink:title="lib/Target/X86/X86Discriminate\lMemOps.cpp">
<polygon fill="none" stroke="black" points="150,-0.5 150,-30.5 302,-30.5 302,-0.5 150,-0.5"/>
<text text-anchor="start" x="158" y="-18.5" font-family="Helvetica,sans-Serif" font-size="10.00">lib/Target/X86/X86Discriminate</text>
<text text-anchor="middle" x="226" y="-7.5" font-family="Helvetica,sans-Serif" font-size="10.00">MemOps.cpp</text>
</a>
</g>
</g>
<!-- Node86&#45;&gt;Node88 -->
<g id="edge3" class="edge">
<title>Node86&#45;&gt;Node88</title>
<path fill="none" stroke="midnightblue" d="M278.58,-60.88C266.88,-51.01 253.16,-39.43 242.68,-30.58"/>
<polygon fill="midnightblue" stroke="midnightblue" points="276.39,-63.62 286.29,-67.4 280.91,-58.27 276.39,-63.62"/>
</g>
<!-- Node89 -->
<g id="node5" class="node">
<title>Node89</title>
<g id="a_node5"><a xlink:href="X86InsertPrefetch_8cpp.html" target="_top" xlink:title="lib/Target/X86/X86Insert\lPrefetch.cpp">
<polygon fill="none" stroke="black" points="320,-0.5 320,-30.5 442,-30.5 442,-0.5 320,-0.5"/>
<text text-anchor="start" x="328" y="-18.5" font-family="Helvetica,sans-Serif" font-size="10.00">lib/Target/X86/X86Insert</text>
<text text-anchor="middle" x="381" y="-7.5" font-family="Helvetica,sans-Serif" font-size="10.00">Prefetch.cpp</text>
</a>
</g>
</g>
<!-- Node86&#45;&gt;Node89 -->
<g id="edge4" class="edge">
<title>Node86&#45;&gt;Node89</title>
<path fill="none" stroke="midnightblue" d="M327.74,-60.88C339.59,-51.01 353.48,-39.43 364.11,-30.58"/>
<polygon fill="midnightblue" stroke="midnightblue" points="325.37,-58.31 319.92,-67.4 329.85,-63.68 325.37,-58.31"/>
</g>
<!-- Node90 -->
<g id="node6" class="node">
<title>Node90</title>
<g id="a_node6"><a xlink:href="SampleProfile_8cpp.html" target="_top" xlink:title="lib/Transforms/IPO\l/SampleProfile.cpp">
<polygon fill="none" stroke="black" points="460.5,-0.5 460.5,-30.5 559.5,-30.5 559.5,-0.5 460.5,-0.5"/>
<text text-anchor="start" x="468.5" y="-18.5" font-family="Helvetica,sans-Serif" font-size="10.00">lib/Transforms/IPO</text>
<text text-anchor="middle" x="510" y="-7.5" font-family="Helvetica,sans-Serif" font-size="10.00">/SampleProfile.cpp</text>
</a>
</g>
</g>
<!-- Node86&#45;&gt;Node90 -->
<g id="edge5" class="edge">
<title>Node86&#45;&gt;Node90</title>
<path fill="none" stroke="midnightblue" d="M357.32,-64.44C390.87,-53.91 433.41,-40.55 465.06,-30.61"/>
<polygon fill="midnightblue" stroke="midnightblue" points="356.15,-61.14 347.66,-67.48 358.25,-67.82 356.15,-61.14"/>
</g>
</g>
</svg>
