<?xml version="1.0" encoding="UTF-8" standalone="no"?>
<!DOCTYPE svg PUBLIC "-//W3C//DTD SVG 1.1//EN"
 "http://www.w3.org/Graphics/SVG/1.1/DTD/svg11.dtd">
<!-- Generated by graphviz version 2.43.0 (0)
 -->
<!-- Title: include/llvm/Support/GenericIteratedDominanceFrontier.h Pages: 1 -->
<svg width="4614pt" height="610pt"
 viewBox="0.00 0.00 4614.00 610.00" xmlns="http://www.w3.org/2000/svg" xmlns:xlink="http://www.w3.org/1999/xlink">
<g id="graph0" class="graph" transform="scale(1 1) rotate(0) translate(4 606)">
<title>include/llvm/Support/GenericIteratedDominanceFrontier.h</title>
<!-- Node0 -->
<g id="node1" class="node">
<title>Node0</title>
<polygon fill="#bfbfbf" stroke="black" points="2502.5,-571.5 2502.5,-601.5 2679.5,-601.5 2679.5,-571.5 2502.5,-571.5"/>
<text text-anchor="start" x="2510.5" y="-589.5" font-family="Helvetica,sans-Serif" font-size="10.00">include/llvm/Support</text>
<text text-anchor="middle" x="2591" y="-578.5" font-family="Helvetica,sans-Serif" font-size="10.00">/GenericIteratedDominanceFrontier.h</text>
</g>
<!-- Node1 -->
<g id="node2" class="node">
<title>Node1</title>
<g id="a_node2"><a xlink:href="DenseMap_8h.html" target="_top" xlink:title="llvm/ADT/DenseMap.h">
<polygon fill="none" stroke="black" points="1252,-403.5 1252,-422.5 1368,-422.5 1368,-403.5 1252,-403.5"/>
<text text-anchor="middle" x="1310" y="-410.5" font-family="Helvetica,sans-Serif" font-size="10.00">llvm/ADT/DenseMap.h</text>
</a>
</g>
</g>
<!-- Node0&#45;&gt;Node1 -->
<g id="edge1" class="edge">
<title>Node0&#45;&gt;Node1</title>
<path fill="none" stroke="midnightblue" d="M2502.34,-582.85C2264.17,-574.9 1614.91,-547.38 1413,-479 1380.35,-467.94 1347.51,-444.61 1327.97,-429.12"/>
<polygon fill="midnightblue" stroke="midnightblue" points="1329.94,-426.21 1319.97,-422.62 1325.53,-431.64 1329.94,-426.21"/>
</g>
<!-- Node26 -->
<g id="node19" class="node">
<title>Node26</title>
<g id="a_node19"><a xlink:href="SmallVector_8h.html" target="_top" xlink:title="llvm/ADT/SmallVector.h">
<polygon fill="none" stroke="black" points="3066,-235.5 3066,-254.5 3188,-254.5 3188,-235.5 3066,-235.5"/>
<text text-anchor="middle" x="3127" y="-242.5" font-family="Helvetica,sans-Serif" font-size="10.00">llvm/ADT/SmallVector.h</text>
</a>
</g>
</g>
<!-- Node0&#45;&gt;Node26 -->
<g id="edge150" class="edge">
<title>Node0&#45;&gt;Node26</title>
<path fill="none" stroke="midnightblue" d="M2679.63,-583.44C3004.6,-575.31 4112,-542.31 4112,-470 4112,-470 4112,-470 4112,-412 4112,-402.07 4319.3,-403.43 3771,-291 3663.24,-268.9 3342.12,-254.24 3198.18,-248.6"/>
<polygon fill="midnightblue" stroke="midnightblue" points="3198.25,-245.1 3188.12,-248.21 3197.98,-252.09 3198.25,-245.1"/>
</g>
<!-- Node53 -->
<g id="node44" class="node">
<title>Node53</title>
<g id="a_node44"><a xlink:href="SmallPtrSet_8h.html" target="_top" xlink:title="llvm/ADT/SmallPtrSet.h">
<polygon fill="none" stroke="black" points="919,-235.5 919,-254.5 1041,-254.5 1041,-235.5 919,-235.5"/>
<text text-anchor="middle" x="980" y="-242.5" font-family="Helvetica,sans-Serif" font-size="10.00">llvm/ADT/SmallPtrSet.h</text>
</a>
</g>
</g>
<!-- Node0&#45;&gt;Node53 -->
<g id="edge138" class="edge">
<title>Node0&#45;&gt;Node53</title>
<path fill="none" stroke="midnightblue" d="M2502.45,-585.47C2105.22,-584.52 500.02,-571.44 338,-423 312.88,-399.99 310.59,-376.28 328,-347 354.63,-302.21 381.07,-305.89 431,-291 518.55,-264.88 781.25,-252.68 908.87,-248.18"/>
<polygon fill="midnightblue" stroke="midnightblue" points="909.06,-251.67 918.94,-247.83 908.82,-244.68 909.06,-251.67"/>
</g>
<!-- Node54 -->
<g id="node45" class="node">
<title>Node54</title>
<g id="a_node45"><a xlink:href="GenericDomTree_8h.html" target="_top" xlink:title="This file defines a set of templates that efficiently compute a dominator tree over a generic graph...">
<polygon fill="none" stroke="black" points="2512.5,-515.5 2512.5,-534.5 2669.5,-534.5 2669.5,-515.5 2512.5,-515.5"/>
<text text-anchor="middle" x="2591" y="-522.5" font-family="Helvetica,sans-Serif" font-size="10.00">llvm/Support/GenericDomTree.h</text>
</a>
</g>
</g>
<!-- Node0&#45;&gt;Node54 -->
<g id="edge151" class="edge">
<title>Node0&#45;&gt;Node54</title>
<path fill="none" stroke="midnightblue" d="M2591,-571.4C2591,-563.47 2591,-553.46 2591,-544.86"/>
<polygon fill="midnightblue" stroke="midnightblue" points="2594.5,-544.66 2591,-534.66 2587.5,-544.66 2594.5,-544.66"/>
</g>
<!-- Node62 -->
<g id="node50" class="node">
<title>Node62</title>
<polygon fill="none" stroke="#bfbfbf" points="4140.5,-515.5 4140.5,-534.5 4183.5,-534.5 4183.5,-515.5 4140.5,-515.5"/>
<text text-anchor="middle" x="4162" y="-522.5" font-family="Helvetica,sans-Serif" font-size="10.00">queue</text>
</g>
<!-- Node0&#45;&gt;Node62 -->
<g id="edge187" class="edge">
<title>Node0&#45;&gt;Node62</title>
<path fill="none" stroke="midnightblue" d="M2679.57,-585.05C2962.7,-583.23 3843.78,-574.46 4126,-535 4127.48,-534.79 4128.98,-534.55 4130.49,-534.28"/>
<polygon fill="midnightblue" stroke="midnightblue" points="4131.38,-537.67 4140.44,-532.18 4129.94,-530.82 4131.38,-537.67"/>
</g>
<!-- Node2 -->
<g id="node3" class="node">
<title>Node2</title>
<g id="a_node3"><a xlink:href="DenseMapInfo_8h.html" target="_top" xlink:title="llvm/ADT/DenseMapInfo.h">
<polygon fill="none" stroke="black" points="668.5,-347.5 668.5,-366.5 801.5,-366.5 801.5,-347.5 668.5,-347.5"/>
<text text-anchor="middle" x="735" y="-354.5" font-family="Helvetica,sans-Serif" font-size="10.00">llvm/ADT/DenseMapInfo.h</text>
</a>
</g>
</g>
<!-- Node1&#45;&gt;Node2 -->
<g id="edge2" class="edge">
<title>Node1&#45;&gt;Node2</title>
<path fill="none" stroke="midnightblue" d="M1251.97,-406.55C1147.75,-396.76 928.91,-376.21 812.18,-365.25"/>
<polygon fill="midnightblue" stroke="midnightblue" points="812.18,-361.73 801.9,-364.28 811.53,-368.7 812.18,-361.73"/>
</g>
<!-- Node12 -->
<g id="node7" class="node">
<title>Node12</title>
<g id="a_node7"><a xlink:href="Compiler_8h.html" target="_top" xlink:title="llvm/Support/Compiler.h">
<polygon fill="none" stroke="black" points="2488,-56.5 2488,-75.5 2610,-75.5 2610,-56.5 2488,-56.5"/>
<text text-anchor="middle" x="2549" y="-63.5" font-family="Helvetica,sans-Serif" font-size="10.00">llvm/Support/Compiler.h</text>
</a>
</g>
</g>
<!-- Node1&#45;&gt;Node12 -->
<g id="edge123" class="edge">
<title>Node1&#45;&gt;Node12</title>
<path fill="none" stroke="midnightblue" d="M1251.85,-412.68C1102.32,-413.75 707.63,-412.08 586,-367 497.06,-334.04 440.34,-262.68 485,-179 510.19,-131.8 533.98,-128.09 585,-112 676.84,-83.03 2221.74,-78.87 2318,-76 2371.52,-74.4 2431.99,-72.02 2477.64,-70.12"/>
<polygon fill="midnightblue" stroke="midnightblue" points="2477.89,-73.61 2487.73,-69.69 2477.59,-66.61 2477.89,-73.61"/>
</g>
<!-- Node17 -->
<g id="node12" class="node">
<title>Node17</title>
<polygon fill="none" stroke="#bfbfbf" points="507.5,-56.5 507.5,-75.5 556.5,-75.5 556.5,-56.5 507.5,-56.5"/>
<text text-anchor="middle" x="532" y="-63.5" font-family="Helvetica,sans-Serif" font-size="10.00">cstddef</text>
</g>
<!-- Node1&#45;&gt;Node17 -->
<g id="edge131" class="edge">
<title>Node1&#45;&gt;Node17</title>
<path fill="none" stroke="midnightblue" d="M1251.99,-411.51C1026.61,-409.37 219.43,-399.45 176,-367 82.89,-297.43 40.38,-198.51 118,-112 143.16,-83.95 401.87,-71.74 497.08,-68.18"/>
<polygon fill="midnightblue" stroke="midnightblue" points="497.47,-71.67 507.34,-67.8 497.22,-64.67 497.47,-71.67"/>
</g>
<!-- Node18 -->
<g id="node13" class="node">
<title>Node18</title>
<polygon fill="none" stroke="#bfbfbf" points="3750,-56.5 3750,-75.5 3812,-75.5 3812,-56.5 3750,-56.5"/>
<text text-anchor="middle" x="3781" y="-63.5" font-family="Helvetica,sans-Serif" font-size="10.00">type_traits</text>
</g>
<!-- Node1&#45;&gt;Node18 -->
<g id="edge136" class="edge">
<title>Node1&#45;&gt;Node18</title>
<path fill="none" stroke="midnightblue" d="M1368.12,-410.8C1698.45,-403.81 3342.63,-366.72 3846,-311 4027.79,-290.88 4156.94,-360.92 4242,-199 4260,-164.73 4272.02,-140.66 4246,-112 4217.77,-80.91 3930.88,-70.67 3822.32,-67.9"/>
<polygon fill="midnightblue" stroke="midnightblue" points="3822.17,-64.39 3812.09,-67.64 3822,-71.39 3822.17,-64.39"/>
</g>
<!-- Node20 -->
<g id="node14" class="node">
<title>Node20</title>
<g id="a_node14"><a xlink:href="type__traits_8h.html" target="_top" xlink:title="llvm/Support/type_traits.h">
<polygon fill="none" stroke="black" points="2336,-118 2336,-137 2464,-137 2464,-118 2336,-118"/>
<text text-anchor="middle" x="2400" y="-125" font-family="Helvetica,sans-Serif" font-size="10.00">llvm/Support/type_traits.h</text>
</a>
</g>
</g>
<!-- Node1&#45;&gt;Node20 -->
<g id="edge128" class="edge">
<title>Node1&#45;&gt;Node20</title>
<path fill="none" stroke="midnightblue" d="M1368.1,-407.69C1550.64,-393.81 2104.74,-348.96 2176,-311 2244.16,-274.69 2227.28,-225.42 2289,-179 2311.4,-162.15 2340.32,-149.22 2363.03,-140.66"/>
<polygon fill="midnightblue" stroke="midnightblue" points="2364.46,-143.87 2372.66,-137.15 2362.07,-137.29 2364.46,-143.87"/>
</g>
<!-- Node21 -->
<g id="node15" class="node">
<title>Node21</title>
<polygon fill="none" stroke="#bfbfbf" points="2269,-56.5 2269,-75.5 2309,-75.5 2309,-56.5 2269,-56.5"/>
<text text-anchor="middle" x="2289" y="-63.5" font-family="Helvetica,sans-Serif" font-size="10.00">utility</text>
</g>
<!-- Node1&#45;&gt;Node21 -->
<g id="edge137" class="edge">
<title>Node1&#45;&gt;Node21</title>
<path fill="none" stroke="midnightblue" d="M1251.72,-411.82C1030.07,-410.83 250.18,-404.7 214,-367 173.38,-324.67 196.77,-291.08 214,-235 243.55,-138.84 305.82,-133.91 404,-112 592.21,-70.01 2031.04,-67.19 2258.7,-67.01"/>
<polygon fill="midnightblue" stroke="midnightblue" points="2258.9,-70.51 2268.9,-67 2258.9,-63.51 2258.9,-70.51"/>
</g>
<!-- Node22 -->
<g id="node16" class="node">
<title>Node22</title>
<polygon fill="none" stroke="#bfbfbf" points="3138,-118 3138,-137 3194,-137 3194,-118 3138,-118"/>
<text text-anchor="middle" x="3166" y="-125" font-family="Helvetica,sans-Serif" font-size="10.00">algorithm</text>
</g>
<!-- Node1&#45;&gt;Node22 -->
<g id="edge129" class="edge">
<title>Node1&#45;&gt;Node22</title>
<path fill="none" stroke="midnightblue" d="M1368.07,-412.04C1542.71,-411.68 2078.27,-407.14 2520,-367 2692.64,-351.31 2735.06,-339.83 2906,-311 3035.87,-289.09 3113.13,-356.55 3197,-255 3223.4,-223.03 3196.07,-171.95 3178.44,-145.55"/>
<polygon fill="midnightblue" stroke="midnightblue" points="3181.3,-143.52 3172.72,-137.31 3175.55,-147.51 3181.3,-143.52"/>
</g>
<!-- Node23 -->
<g id="node17" class="node">
<title>Node23</title>
<polygon fill="none" stroke="#bfbfbf" points="594.5,-118 594.5,-137 643.5,-137 643.5,-118 594.5,-118"/>
<text text-anchor="middle" x="619" y="-125" font-family="Helvetica,sans-Serif" font-size="10.00">cassert</text>
</g>
<!-- Node1&#45;&gt;Node23 -->
<g id="edge130" class="edge">
<title>Node1&#45;&gt;Node23</title>
<path fill="none" stroke="midnightblue" d="M1251.87,-410.82C1113.92,-407.57 770.02,-396.66 659,-367 575.14,-344.59 528.55,-336.62 499,-255 487.5,-223.24 479.27,-207.11 498,-179 517.11,-150.32 555.94,-137.9 584.48,-132.54"/>
<polygon fill="midnightblue" stroke="midnightblue" points="585.19,-135.97 594.47,-130.87 584.03,-129.06 585.19,-135.97"/>
</g>
<!-- Node24 -->
<g id="node18" class="node">
<title>Node24</title>
<polygon fill="none" stroke="#bfbfbf" points="1536,-118 1536,-137 1582,-137 1582,-118 1536,-118"/>
<text text-anchor="middle" x="1559" y="-125" font-family="Helvetica,sans-Serif" font-size="10.00">cstring</text>
</g>
<!-- Node1&#45;&gt;Node24 -->
<g id="edge132" class="edge">
<title>Node1&#45;&gt;Node24</title>
<path fill="none" stroke="midnightblue" d="M1289.36,-403.42C1256.5,-388.23 1196,-353.29 1196,-302 1196,-302 1196,-302 1196,-244 1196,-205.58 1219.12,-197.12 1253,-179 1360.93,-121.3 1408.13,-175.94 1526,-143 1528.15,-142.4 1530.35,-141.68 1532.54,-140.89"/>
<polygon fill="midnightblue" stroke="midnightblue" points="1533.91,-144.11 1541.87,-137.12 1531.29,-137.62 1533.91,-144.11"/>
</g>
<!-- Node28 -->
<g id="node21" class="node">
<title>Node28</title>
<polygon fill="none" stroke="#bfbfbf" points="4373.5,-56.5 4373.5,-75.5 4420.5,-75.5 4420.5,-56.5 4373.5,-56.5"/>
<text text-anchor="middle" x="4397" y="-63.5" font-family="Helvetica,sans-Serif" font-size="10.00">iterator</text>
</g>
<!-- Node1&#45;&gt;Node28 -->
<g id="edge134" class="edge">
<title>Node1&#45;&gt;Node28</title>
<path fill="none" stroke="midnightblue" d="M1368.07,-411.76C1711.25,-410.08 3477.32,-397.27 4012,-311 4207.63,-279.44 4324.8,-313.96 4425,-143 4436.16,-123.96 4423.11,-99.7 4411.35,-83.78"/>
<polygon fill="midnightblue" stroke="midnightblue" points="4414.05,-81.55 4405.1,-75.88 4408.56,-85.89 4414.05,-81.55"/>
</g>
<!-- Node29 -->
<g id="node22" class="node">
<title>Node29</title>
<g id="a_node22"><a xlink:href="AlignOf_8h.html" target="_top" xlink:title="llvm/Support/AlignOf.h">
<polygon fill="none" stroke="black" points="1974.5,-179.5 1974.5,-198.5 2089.5,-198.5 2089.5,-179.5 1974.5,-179.5"/>
<text text-anchor="middle" x="2032" y="-186.5" font-family="Helvetica,sans-Serif" font-size="10.00">llvm/Support/AlignOf.h</text>
</a>
</g>
</g>
<!-- Node1&#45;&gt;Node29 -->
<g id="edge122" class="edge">
<title>Node1&#45;&gt;Node29</title>
<path fill="none" stroke="midnightblue" d="M1325.75,-403.45C1350.97,-390.01 1402.25,-363.77 1448,-347 1639.75,-276.7 1877.28,-222.59 1980.31,-200.65"/>
<polygon fill="midnightblue" stroke="midnightblue" points="1981.09,-204.06 1990.15,-198.57 1979.64,-197.22 1981.09,-204.06"/>
</g>
<!-- Node30 -->
<g id="node23" class="node">
<title>Node30</title>
<g id="a_node23"><a xlink:href="MathExtras_8h.html" target="_top" xlink:title="llvm/Support/MathExtras.h">
<polygon fill="none" stroke="black" points="2928.5,-179.5 2928.5,-198.5 3061.5,-198.5 3061.5,-179.5 2928.5,-179.5"/>
<text text-anchor="middle" x="2995" y="-186.5" font-family="Helvetica,sans-Serif" font-size="10.00">llvm/Support/MathExtras.h</text>
</a>
</g>
</g>
<!-- Node1&#45;&gt;Node30 -->
<g id="edge124" class="edge">
<title>Node1&#45;&gt;Node30</title>
<path fill="none" stroke="midnightblue" d="M1368.05,-410.89C1612.45,-405.78 2558.38,-381.76 2847,-311 2909.69,-295.63 2939.74,-304.64 2981,-255 2991.71,-242.11 2994.78,-222.94 2995.42,-208.75"/>
<polygon fill="midnightblue" stroke="midnightblue" points="2998.92,-208.69 2995.52,-198.66 2991.92,-208.62 2998.92,-208.69"/>
</g>
<!-- Node35 -->
<g id="node28" class="node">
<title>Node35</title>
<polygon fill="none" stroke="#bfbfbf" points="1470.5,-179.5 1470.5,-198.5 1543.5,-198.5 1543.5,-179.5 1470.5,-179.5"/>
<text text-anchor="middle" x="1507" y="-186.5" font-family="Helvetica,sans-Serif" font-size="10.00">initializer_list</text>
</g>
<!-- Node1&#45;&gt;Node35 -->
<g id="edge133" class="edge">
<title>Node1&#45;&gt;Node35</title>
<path fill="none" stroke="midnightblue" d="M1310.45,-403.22C1312.39,-374.73 1322.36,-283.89 1372,-235 1395.62,-211.74 1431.56,-200.5 1460.43,-195.07"/>
<polygon fill="midnightblue" stroke="midnightblue" points="1461.04,-198.52 1470.31,-193.38 1459.86,-191.62 1461.04,-198.52"/>
</g>
<!-- Node37 -->
<g id="node30" class="node">
<title>Node37</title>
<polygon fill="none" stroke="#bfbfbf" points="3578.5,-118 3578.5,-137 3613.5,-137 3613.5,-118 3578.5,-118"/>
<text text-anchor="middle" x="3596" y="-125" font-family="Helvetica,sans-Serif" font-size="10.00">new</text>
</g>
<!-- Node1&#45;&gt;Node37 -->
<g id="edge135" class="edge">
<title>Node1&#45;&gt;Node37</title>
<path fill="none" stroke="midnightblue" d="M1368.27,-412.01C1552.4,-411.62 2138.15,-407.08 2621,-367 2810.43,-351.28 2857.79,-343.94 3045,-311 3272.7,-270.94 3364.84,-333.35 3553,-199 3570.99,-186.15 3582.91,-163.2 3589.55,-146.98"/>
<polygon fill="midnightblue" stroke="midnightblue" points="3592.88,-148.06 3593.15,-137.47 3586.34,-145.57 3592.88,-148.06"/>
</g>
<!-- Node51 -->
<g id="node42" class="node">
<title>Node51</title>
<g id="a_node42"><a xlink:href="EpochTracker_8h.html" target="_top" xlink:title="llvm/ADT/EpochTracker.h">
<polygon fill="none" stroke="black" points="826,-179.5 826,-198.5 956,-198.5 956,-179.5 826,-179.5"/>
<text text-anchor="middle" x="891" y="-186.5" font-family="Helvetica,sans-Serif" font-size="10.00">llvm/ADT/EpochTracker.h</text>
</a>
</g>
</g>
<!-- Node1&#45;&gt;Node51 -->
<g id="edge119" class="edge">
<title>Node1&#45;&gt;Node51</title>
<path fill="none" stroke="midnightblue" d="M1251.7,-406C1164.03,-393.78 999.03,-357.76 910,-255 898.82,-242.1 894.21,-222.92 892.31,-208.74"/>
<polygon fill="midnightblue" stroke="midnightblue" points="895.78,-208.25 891.3,-198.65 888.82,-208.95 895.78,-208.25"/>
</g>
<!-- Node52 -->
<g id="node43" class="node">
<title>Node52</title>
<g id="a_node43"><a xlink:href="ReverseIteration_8h.html" target="_top" xlink:title="llvm/Support/ReverseIteration.h">
<polygon fill="none" stroke="black" points="974.5,-179.5 974.5,-198.5 1129.5,-198.5 1129.5,-179.5 974.5,-179.5"/>
<text text-anchor="middle" x="1052" y="-186.5" font-family="Helvetica,sans-Serif" font-size="10.00">llvm/Support/ReverseIteration.h</text>
</a>
</g>
</g>
<!-- Node1&#45;&gt;Node52 -->
<g id="edge125" class="edge">
<title>Node1&#45;&gt;Node52</title>
<path fill="none" stroke="midnightblue" d="M1265.98,-403.43C1239.73,-396.72 1206.79,-385.37 1182,-367 1122.33,-322.79 1078.21,-243.39 1060.51,-207.94"/>
<polygon fill="midnightblue" stroke="midnightblue" points="1063.59,-206.26 1056.06,-198.81 1057.29,-209.33 1063.59,-206.26"/>
</g>
<!-- Node3 -->
<g id="node4" class="node">
<title>Node3</title>
<g id="a_node4"><a xlink:href="ArrayRef_8h.html" target="_top" xlink:title="llvm/ADT/ArrayRef.h">
<polygon fill="none" stroke="red" points="2730,-291.5 2730,-310.5 2838,-310.5 2838,-291.5 2730,-291.5"/>
<text text-anchor="middle" x="2784" y="-298.5" font-family="Helvetica,sans-Serif" font-size="10.00">llvm/ADT/ArrayRef.h</text>
</a>
</g>
</g>
<!-- Node2&#45;&gt;Node3 -->
<g id="edge3" class="edge">
<title>Node2&#45;&gt;Node3</title>
<path fill="none" stroke="midnightblue" d="M801.72,-354.24C1112.33,-346.06 2414.52,-311.74 2719.77,-303.69"/>
<polygon fill="midnightblue" stroke="midnightblue" points="2719.88,-307.19 2729.78,-303.43 2719.7,-300.19 2719.88,-307.19"/>
</g>
<!-- Node4 -->
<g id="node5" class="node">
<title>Node4</title>
<g id="a_node5"><a xlink:href="Hashing_8h.html" target="_top" xlink:title="llvm/ADT/Hashing.h">
<polygon fill="none" stroke="red" points="2690.5,-179.5 2690.5,-198.5 2795.5,-198.5 2795.5,-179.5 2690.5,-179.5"/>
<text text-anchor="middle" x="2743" y="-186.5" font-family="Helvetica,sans-Serif" font-size="10.00">llvm/ADT/Hashing.h</text>
</a>
</g>
</g>
<!-- Node2&#45;&gt;Node4 -->
<g id="edge97" class="edge">
<title>Node2&#45;&gt;Node4</title>
<path fill="none" stroke="midnightblue" d="M801.65,-355.5C1047.7,-353.42 1904.7,-343.92 2176,-311 2376.33,-286.7 2610.63,-226.25 2702.83,-201.17"/>
<polygon fill="midnightblue" stroke="midnightblue" points="2703.87,-204.52 2712.59,-198.51 2702.03,-197.77 2703.87,-204.52"/>
</g>
<!-- Node2&#45;&gt;Node17 -->
<g id="edge116" class="edge">
<title>Node2&#45;&gt;Node17</title>
<path fill="none" stroke="midnightblue" d="M668.35,-352.11C600.76,-346.96 493.65,-335.5 404,-311 280.26,-277.18 208.95,-305.86 138,-199 116.61,-166.79 112.26,-140.85 138,-112 161.75,-85.38 405.37,-72.36 497.22,-68.38"/>
<polygon fill="midnightblue" stroke="midnightblue" points="497.55,-71.87 507.39,-67.94 497.25,-64.87 497.55,-71.87"/>
</g>
<!-- Node2&#45;&gt;Node21 -->
<g id="edge118" class="edge">
<title>Node2&#45;&gt;Node21</title>
<path fill="none" stroke="midnightblue" d="M668.06,-351.07C629.38,-345.69 581.17,-334.44 544,-311 516.99,-293.97 509.87,-285.02 499,-255 487.5,-223.24 483.09,-209.31 498,-179 519.55,-135.21 539.01,-128.34 585,-112 666.97,-82.88 2036.15,-69.29 2258.58,-67.27"/>
<polygon fill="midnightblue" stroke="midnightblue" points="2258.88,-70.76 2268.85,-67.17 2258.82,-63.77 2258.88,-70.76"/>
</g>
<!-- Node2&#45;&gt;Node23 -->
<g id="edge115" class="edge">
<title>Node2&#45;&gt;Node23</title>
<path fill="none" stroke="midnightblue" d="M678.55,-347.45C625.85,-336.18 549.94,-310.78 513,-255 494.34,-226.83 492.86,-207.51 511,-179 527.02,-153.83 559.24,-140.99 584.33,-134.58"/>
<polygon fill="midnightblue" stroke="midnightblue" points="585.29,-137.95 594.24,-132.28 583.71,-131.13 585.29,-137.95"/>
</g>
<!-- Node42 -->
<g id="node35" class="node">
<title>Node42</title>
<polygon fill="none" stroke="#bfbfbf" points="1033,-118 1033,-137 1079,-137 1079,-118 1033,-118"/>
<text text-anchor="middle" x="1056" y="-125" font-family="Helvetica,sans-Serif" font-size="10.00">cstdint</text>
</g>
<!-- Node2&#45;&gt;Node42 -->
<g id="edge117" class="edge">
<title>Node2&#45;&gt;Node42</title>
<path fill="none" stroke="midnightblue" d="M736.25,-347.32C740.92,-318.38 760.04,-224.36 817,-179 848.46,-153.94 964.53,-138.29 1022.54,-131.87"/>
<polygon fill="midnightblue" stroke="midnightblue" points="1023.09,-135.33 1032.66,-130.77 1022.34,-128.37 1023.09,-135.33"/>
</g>
<!-- Node47 -->
<g id="node39" class="node">
<title>Node47</title>
<g id="a_node39"><a xlink:href="StringRef_8h.html" target="_top" xlink:title="llvm/ADT/StringRef.h">
<polygon fill="none" stroke="black" points="2057,-291.5 2057,-310.5 2167,-310.5 2167,-291.5 2057,-291.5"/>
<text text-anchor="middle" x="2112" y="-298.5" font-family="Helvetica,sans-Serif" font-size="10.00">llvm/ADT/StringRef.h</text>
</a>
</g>
</g>
<!-- Node2&#45;&gt;Node47 -->
<g id="edge98" class="edge">
<title>Node2&#45;&gt;Node47</title>
<path fill="none" stroke="midnightblue" d="M801.88,-353.38C1035.67,-344.21 1814.73,-313.66 2046.45,-304.57"/>
<polygon fill="midnightblue" stroke="midnightblue" points="2046.88,-308.06 2056.74,-304.17 2046.61,-301.06 2046.88,-308.06"/>
</g>
<!-- Node48 -->
<g id="node40" class="node">
<title>Node48</title>
<g id="a_node40"><a xlink:href="PointerLikeTypeTraits_8h.html" target="_top" xlink:title="llvm/Support/PointerLike\lTypeTraits.h">
<polygon fill="none" stroke="red" points="1394.5,-112.5 1394.5,-142.5 1517.5,-142.5 1517.5,-112.5 1394.5,-112.5"/>
<text text-anchor="start" x="1402.5" y="-130.5" font-family="Helvetica,sans-Serif" font-size="10.00">llvm/Support/PointerLike</text>
<text text-anchor="middle" x="1456" y="-119.5" font-family="Helvetica,sans-Serif" font-size="10.00">TypeTraits.h</text>
</a>
</g>
</g>
<!-- Node2&#45;&gt;Node48 -->
<g id="edge110" class="edge">
<title>Node2&#45;&gt;Node48</title>
<path fill="none" stroke="midnightblue" d="M776.16,-347.42C871.55,-326.98 1114.44,-271.59 1309,-199 1348.6,-184.23 1392.02,-162.7 1421.33,-147.32"/>
<polygon fill="midnightblue" stroke="midnightblue" points="1423.13,-150.33 1430.33,-142.56 1419.85,-144.15 1423.13,-150.33"/>
</g>
<!-- Node50 -->
<g id="node41" class="node">
<title>Node50</title>
<g id="a_node41"><a xlink:href="TypeSize_8h.html" target="_top" xlink:title="llvm/Support/TypeSize.h">
<polygon fill="none" stroke="black" points="522,-235.5 522,-254.5 646,-254.5 646,-235.5 522,-235.5"/>
<text text-anchor="middle" x="584" y="-242.5" font-family="Helvetica,sans-Serif" font-size="10.00">llvm/Support/TypeSize.h</text>
</a>
</g>
</g>
<!-- Node2&#45;&gt;Node50 -->
<g id="edge112" class="edge">
<title>Node2&#45;&gt;Node50</title>
<path fill="none" stroke="midnightblue" d="M719,-347.43C703.48,-338.87 679.47,-325.02 660,-311 638.36,-295.42 615.34,-275.14 600.37,-261.41"/>
<polygon fill="midnightblue" stroke="midnightblue" points="602.66,-258.76 592.95,-254.53 597.9,-263.89 602.66,-258.76"/>
</g>
<!-- Node3&#45;&gt;Node4 -->
<g id="edge4" class="edge">
<title>Node3&#45;&gt;Node4</title>
<path fill="none" stroke="midnightblue" d="M2780.78,-291.37C2774.14,-273.54 2758.76,-232.3 2749.81,-208.27"/>
<polygon fill="midnightblue" stroke="midnightblue" points="2752.97,-206.74 2746.2,-198.59 2746.42,-209.18 2752.97,-206.74"/>
</g>
<!-- Node3&#45;&gt;Node12 -->
<g id="edge88" class="edge">
<title>Node3&#45;&gt;Node12</title>
<path fill="none" stroke="midnightblue" d="M2747.36,-291.45C2681.12,-275.18 2545.78,-237.87 2519,-199 2494.54,-163.5 2520.55,-111.08 2537.25,-84.23"/>
<polygon fill="midnightblue" stroke="midnightblue" points="2540.36,-85.87 2542.87,-75.58 2534.49,-82.06 2540.36,-85.87"/>
</g>
<!-- Node3&#45;&gt;Node17 -->
<g id="edge91" class="edge">
<title>Node3&#45;&gt;Node17</title>
<path fill="none" stroke="midnightblue" d="M2729.81,-299.18C2386.07,-293.93 523.2,-265.04 513,-255 466.84,-209.57 503.18,-122.39 522.23,-84.88"/>
<polygon fill="midnightblue" stroke="midnightblue" points="525.5,-86.17 527.05,-75.69 519.3,-82.92 525.5,-86.17"/>
</g>
<!-- Node3&#45;&gt;Node18 -->
<g id="edge95" class="edge">
<title>Node3&#45;&gt;Node18</title>
<path fill="none" stroke="midnightblue" d="M2838.28,-299.2C3037.87,-296.07 3730.76,-283.36 3950,-255 4063.78,-240.28 4130.21,-288.5 4202,-199 4226.19,-168.84 4227.85,-140.76 4202,-112 4176.88,-84.05 3923.21,-72.04 3822.19,-68.34"/>
<polygon fill="midnightblue" stroke="midnightblue" points="3822.17,-64.83 3812.06,-67.97 3821.92,-71.83 3822.17,-64.83"/>
</g>
<!-- Node3&#45;&gt;Node22 -->
<g id="edge89" class="edge">
<title>Node3&#45;&gt;Node22</title>
<path fill="none" stroke="midnightblue" d="M2801.5,-291.41C2836.63,-274.19 2912.9,-236.91 2919,-235 3014.78,-204.91 3065.3,-263.78 3142,-199 3157.09,-186.26 3162.72,-163.62 3164.8,-147.43"/>
<polygon fill="midnightblue" stroke="midnightblue" points="3168.29,-147.75 3165.75,-137.46 3161.32,-147.08 3168.29,-147.75"/>
</g>
<!-- Node3&#45;&gt;Node23 -->
<g id="edge90" class="edge">
<title>Node3&#45;&gt;Node23</title>
<path fill="none" stroke="midnightblue" d="M2729.69,-299.29C2441.21,-295.46 1094.55,-276.53 910,-255 880.11,-251.51 667.77,-218.68 645,-199 630.07,-186.09 623.71,-163.82 621,-147.76"/>
<polygon fill="midnightblue" stroke="midnightblue" points="624.4,-146.83 619.6,-137.39 617.47,-147.76 624.4,-146.83"/>
</g>
<!-- Node3&#45;&gt;Node26 -->
<g id="edge23" class="edge">
<title>Node3&#45;&gt;Node26</title>
<path fill="none" stroke="midnightblue" d="M2838.35,-291.44C2899.31,-281.85 2998.11,-266.29 3062.82,-256.1"/>
<polygon fill="midnightblue" stroke="midnightblue" points="3063.57,-259.53 3072.9,-254.52 3062.48,-252.61 3063.57,-259.53"/>
</g>
<!-- Node3&#45;&gt;Node28 -->
<g id="edge93" class="edge">
<title>Node3&#45;&gt;Node28</title>
<path fill="none" stroke="midnightblue" d="M2838.02,-300.32C3093.51,-301.57 4174.19,-303.92 4316,-255 4377.7,-233.71 4400.37,-207.4 4411,-143 4413.24,-129.41 4413.07,-125.62 4411,-112 4409.63,-103 4406.81,-93.33 4404.05,-85.26"/>
<polygon fill="midnightblue" stroke="midnightblue" points="4407.31,-83.98 4400.6,-75.78 4400.73,-86.37 4407.31,-83.98"/>
</g>
<!-- Node3&#45;&gt;Node35 -->
<g id="edge92" class="edge">
<title>Node3&#45;&gt;Node35</title>
<path fill="none" stroke="midnightblue" d="M2729.73,-297.32C2557.65,-288.46 2008.89,-257.23 1558,-199 1556.55,-198.81 1555.08,-198.61 1553.6,-198.4"/>
<polygon fill="midnightblue" stroke="midnightblue" points="1554.12,-194.94 1543.71,-196.9 1553.07,-201.86 1554.12,-194.94"/>
</g>
<!-- Node36 -->
<g id="node29" class="node">
<title>Node36</title>
<polygon fill="none" stroke="#bfbfbf" points="2639,-118 2639,-137 2691,-137 2691,-118 2639,-118"/>
<text text-anchor="middle" x="2665" y="-125" font-family="Helvetica,sans-Serif" font-size="10.00">memory</text>
</g>
<!-- Node3&#45;&gt;Node36 -->
<g id="edge94" class="edge">
<title>Node3&#45;&gt;Node36</title>
<path fill="none" stroke="midnightblue" d="M2789.26,-291.43C2801.54,-270.21 2829.19,-214.38 2804,-179 2775.63,-139.16 2745.73,-160.37 2700,-143 2698.35,-142.37 2696.66,-141.72 2694.96,-141.05"/>
<polygon fill="midnightblue" stroke="midnightblue" points="2695.86,-137.64 2685.28,-137.14 2693.24,-144.13 2695.86,-137.64"/>
</g>
<!-- Node38 -->
<g id="node31" class="node">
<title>Node38</title>
<g id="a_node31"><a xlink:href="STLExtras_8h.html" target="_top" xlink:title="llvm/ADT/STLExtras.h">
<polygon fill="none" stroke="black" points="2256,-235.5 2256,-254.5 2372,-254.5 2372,-235.5 2256,-235.5"/>
<text text-anchor="middle" x="2314" y="-242.5" font-family="Helvetica,sans-Serif" font-size="10.00">llvm/ADT/STLExtras.h</text>
</a>
</g>
</g>
<!-- Node3&#45;&gt;Node38 -->
<g id="edge57" class="edge">
<title>Node3&#45;&gt;Node38</title>
<path fill="none" stroke="midnightblue" d="M2729.82,-292.73C2725.15,-292.13 2720.49,-291.55 2716,-291 2598.84,-276.69 2462.26,-261.78 2382.24,-253.22"/>
<polygon fill="midnightblue" stroke="midnightblue" points="2382.61,-249.74 2372.29,-252.15 2381.87,-256.7 2382.61,-249.74"/>
</g>
<!-- Node46 -->
<g id="node38" class="node">
<title>Node46</title>
<polygon fill="none" stroke="#bfbfbf" points="2928,-235.5 2928,-254.5 2972,-254.5 2972,-235.5 2928,-235.5"/>
<text text-anchor="middle" x="2950" y="-242.5" font-family="Helvetica,sans-Serif" font-size="10.00">vector</text>
</g>
<!-- Node3&#45;&gt;Node46 -->
<g id="edge96" class="edge">
<title>Node3&#45;&gt;Node46</title>
<path fill="none" stroke="midnightblue" d="M2810.3,-291.44C2839.59,-281.92 2886.91,-266.52 2918.24,-256.33"/>
<polygon fill="midnightblue" stroke="midnightblue" points="2919.38,-259.64 2927.8,-253.22 2917.21,-252.99 2919.38,-259.64"/>
</g>
<!-- Node11 -->
<g id="node6" class="node">
<title>Node11</title>
<g id="a_node6"><a xlink:href="Support_2ErrorHandling_8h.html" target="_top" xlink:title="llvm/Support/ErrorHandling.h">
<polygon fill="none" stroke="black" points="3933,-118 3933,-137 4075,-137 4075,-118 3933,-118"/>
<text text-anchor="middle" x="4004" y="-125" font-family="Helvetica,sans-Serif" font-size="10.00">llvm/Support/ErrorHandling.h</text>
</a>
</g>
</g>
<!-- Node4&#45;&gt;Node11 -->
<g id="edge5" class="edge">
<title>Node4&#45;&gt;Node11</title>
<path fill="none" stroke="midnightblue" d="M2795.66,-185.15C2830.85,-183.29 2878.2,-180.86 2920,-179 3337.23,-160.4 3442.35,-171.79 3859,-143 3879.71,-141.57 3902.05,-139.56 3922.84,-137.5"/>
<polygon fill="midnightblue" stroke="midnightblue" points="3923.31,-140.97 3932.9,-136.49 3922.6,-134.01 3923.31,-140.97"/>
</g>
<!-- Node15 -->
<g id="node10" class="node">
<title>Node15</title>
<polygon fill="none" stroke="#bfbfbf" points="4137.5,-56.5 4137.5,-75.5 4178.5,-75.5 4178.5,-56.5 4137.5,-56.5"/>
<text text-anchor="middle" x="4158" y="-63.5" font-family="Helvetica,sans-Serif" font-size="10.00">string</text>
</g>
<!-- Node4&#45;&gt;Node15 -->
<g id="edge21" class="edge">
<title>Node4&#45;&gt;Node15</title>
<path fill="none" stroke="midnightblue" d="M2767.42,-179.39C2822.8,-159.88 2953.95,-113.87 2964,-112 3022.83,-101.02 3945.97,-73.27 4127.24,-67.9"/>
<polygon fill="midnightblue" stroke="midnightblue" points="4127.52,-71.4 4137.41,-67.6 4127.31,-64.4 4127.52,-71.4"/>
</g>
<!-- Node16 -->
<g id="node11" class="node">
<title>Node16</title>
<g id="a_node11"><a xlink:href="SwapByteOrder_8h.html" target="_top" xlink:title="llvm/Support/SwapByteOrder.h">
<polygon fill="none" stroke="red" points="2709,-118 2709,-137 2861,-137 2861,-118 2709,-118"/>
<text text-anchor="middle" x="2785" y="-125" font-family="Helvetica,sans-Serif" font-size="10.00">llvm/Support/SwapByteOrder.h</text>
</a>
</g>
</g>
<!-- Node4&#45;&gt;Node16 -->
<g id="edge10" class="edge">
<title>Node4&#45;&gt;Node16</title>
<path fill="none" stroke="midnightblue" d="M2749.02,-179.48C2755.26,-170.64 2765.17,-156.59 2773.02,-145.48"/>
<polygon fill="midnightblue" stroke="midnightblue" points="2776.09,-147.2 2778.99,-137.01 2770.37,-143.16 2776.09,-147.2"/>
</g>
<!-- Node4&#45;&gt;Node20 -->
<g id="edge14" class="edge">
<title>Node4&#45;&gt;Node20</title>
<path fill="none" stroke="midnightblue" d="M2693.86,-179.48C2631.84,-168.72 2525.27,-150.23 2458.94,-138.72"/>
<polygon fill="midnightblue" stroke="midnightblue" points="2459.5,-135.27 2449.05,-137.01 2458.31,-142.17 2459.5,-135.27"/>
</g>
<!-- Node4&#45;&gt;Node21 -->
<g id="edge22" class="edge">
<title>Node4&#45;&gt;Node21</title>
<path fill="none" stroke="midnightblue" d="M2719.99,-179.42C2678.76,-164.27 2589.35,-132.45 2512,-112 2443.89,-93.99 2362.42,-79.23 2319.28,-71.94"/>
<polygon fill="midnightblue" stroke="midnightblue" points="2319.61,-68.44 2309.17,-70.24 2318.46,-75.35 2319.61,-68.44"/>
</g>
<!-- Node4&#45;&gt;Node22 -->
<g id="edge18" class="edge">
<title>Node4&#45;&gt;Node22</title>
<path fill="none" stroke="midnightblue" d="M2795.72,-180.58C2882.12,-168.43 3051.85,-144.56 3127.75,-133.88"/>
<polygon fill="midnightblue" stroke="midnightblue" points="3128.4,-137.32 3137.81,-132.46 3127.42,-130.39 3128.4,-137.32"/>
</g>
<!-- Node4&#45;&gt;Node23 -->
<g id="edge19" class="edge">
<title>Node4&#45;&gt;Node23</title>
<path fill="none" stroke="midnightblue" d="M2690.37,-182.64C2674.81,-181.24 2657.73,-179.87 2642,-179 1923.82,-139.06 1742.99,-163.87 1024,-143 886.87,-139.02 723.67,-132.69 653.68,-129.9"/>
<polygon fill="midnightblue" stroke="midnightblue" points="653.78,-126.4 643.65,-129.5 653.5,-133.4 653.78,-126.4"/>
</g>
<!-- Node4&#45;&gt;Node24 -->
<g id="edge20" class="edge">
<title>Node4&#45;&gt;Node24</title>
<path fill="none" stroke="midnightblue" d="M2690.35,-182.88C2674.79,-181.49 2657.72,-180.07 2642,-179 2228.74,-150.96 1725.69,-133.81 1592.6,-129.55"/>
<polygon fill="midnightblue" stroke="midnightblue" points="1592.37,-126.04 1582.26,-129.22 1592.15,-133.04 1592.37,-126.04"/>
</g>
<!-- Node11&#45;&gt;Node12 -->
<g id="edge6" class="edge">
<title>Node11&#45;&gt;Node12</title>
<path fill="none" stroke="midnightblue" d="M3951.2,-117.96C3935.12,-115.66 3917.37,-113.42 3901,-112 3412.59,-69.62 2821.75,-66.43 2620.27,-66.7"/>
<polygon fill="midnightblue" stroke="midnightblue" points="2620.11,-63.2 2610.11,-66.72 2620.12,-70.2 2620.11,-63.2"/>
</g>
<!-- Node11&#45;&gt;Node15 -->
<g id="edge9" class="edge">
<title>Node11&#45;&gt;Node15</title>
<path fill="none" stroke="midnightblue" d="M4026.06,-117.98C4052.81,-107.64 4098.02,-90.17 4127.94,-78.61"/>
<polygon fill="midnightblue" stroke="midnightblue" points="4129.39,-81.81 4137.45,-74.94 4126.86,-75.28 4129.39,-81.81"/>
</g>
<!-- Node13 -->
<g id="node8" class="node">
<title>Node13</title>
<polygon fill="none" stroke="#bfbfbf" points="2432.5,-0.5 2432.5,-19.5 2557.5,-19.5 2557.5,-0.5 2432.5,-0.5"/>
<text text-anchor="middle" x="2495" y="-7.5" font-family="Helvetica,sans-Serif" font-size="10.00">llvm/Config/llvm&#45;config.h</text>
</g>
<!-- Node12&#45;&gt;Node13 -->
<g id="edge7" class="edge">
<title>Node12&#45;&gt;Node13</title>
<path fill="none" stroke="midnightblue" d="M2540.08,-56.08C2532.22,-48.22 2520.57,-36.57 2511.08,-27.08"/>
<polygon fill="midnightblue" stroke="midnightblue" points="2513.3,-24.35 2503.75,-19.75 2508.35,-29.3 2513.3,-24.35"/>
</g>
<!-- Node14 -->
<g id="node9" class="node">
<title>Node14</title>
<polygon fill="none" stroke="#bfbfbf" points="2576,-0.5 2576,-19.5 2628,-19.5 2628,-0.5 2576,-0.5"/>
<text text-anchor="middle" x="2602" y="-7.5" font-family="Helvetica,sans-Serif" font-size="10.00">stddef.h</text>
</g>
<!-- Node12&#45;&gt;Node14 -->
<g id="edge8" class="edge">
<title>Node12&#45;&gt;Node14</title>
<path fill="none" stroke="midnightblue" d="M2557.75,-56.08C2565.47,-48.22 2576.9,-36.57 2586.22,-27.08"/>
<polygon fill="midnightblue" stroke="midnightblue" points="2588.9,-29.34 2593.41,-19.75 2583.91,-24.44 2588.9,-29.34"/>
</g>
<!-- Node16&#45;&gt;Node12 -->
<g id="edge11" class="edge">
<title>Node16&#45;&gt;Node12</title>
<path fill="none" stroke="midnightblue" d="M2751.19,-117.98C2709.48,-107.46 2638.49,-89.56 2592.69,-78.01"/>
<polygon fill="midnightblue" stroke="midnightblue" points="2593.3,-74.56 2582.75,-75.51 2591.59,-81.35 2593.3,-74.56"/>
</g>
<!-- Node16&#45;&gt;Node17 -->
<g id="edge12" class="edge">
<title>Node16&#45;&gt;Node17</title>
<path fill="none" stroke="midnightblue" d="M2742.36,-117.95C2728.87,-115.59 2713.86,-113.32 2700,-112 2261.01,-70.23 809.94,-67.22 566.73,-67.01"/>
<polygon fill="midnightblue" stroke="midnightblue" points="566.69,-63.51 556.69,-67.01 566.69,-70.51 566.69,-63.51"/>
</g>
<!-- Node16&#45;&gt;Node18 -->
<g id="edge13" class="edge">
<title>Node16&#45;&gt;Node18</title>
<path fill="none" stroke="midnightblue" d="M2833.1,-117.93C2847.2,-115.68 2862.69,-113.48 2877,-112 3208.43,-77.73 3611.01,-69.36 3739.5,-67.49"/>
<polygon fill="midnightblue" stroke="midnightblue" points="3739.73,-70.99 3749.68,-67.35 3739.63,-63.99 3739.73,-70.99"/>
</g>
<!-- Node20&#45;&gt;Node12 -->
<g id="edge15" class="edge">
<title>Node20&#45;&gt;Node12</title>
<path fill="none" stroke="midnightblue" d="M2421.35,-117.98C2446.69,-107.86 2489.14,-90.9 2518.07,-79.35"/>
<polygon fill="midnightblue" stroke="midnightblue" points="2519.7,-82.47 2527.69,-75.51 2517.11,-75.97 2519.7,-82.47"/>
</g>
<!-- Node20&#45;&gt;Node18 -->
<g id="edge16" class="edge">
<title>Node20&#45;&gt;Node18</title>
<path fill="none" stroke="midnightblue" d="M2464.42,-122.03C2510.52,-118.93 2574.06,-114.86 2630,-112 3063.96,-89.84 3590.45,-72.88 3739.76,-68.26"/>
<polygon fill="midnightblue" stroke="midnightblue" points="3739.97,-71.75 3749.86,-67.94 3739.75,-64.75 3739.97,-71.75"/>
</g>
<!-- Node20&#45;&gt;Node21 -->
<g id="edge17" class="edge">
<title>Node20&#45;&gt;Node21</title>
<path fill="none" stroke="midnightblue" d="M2384.1,-117.98C2365.72,-108.12 2335.24,-91.79 2313.76,-80.27"/>
<polygon fill="midnightblue" stroke="midnightblue" points="2315.34,-77.15 2304.87,-75.51 2312.03,-83.32 2315.34,-77.15"/>
</g>
<!-- Node26&#45;&gt;Node11 -->
<g id="edge45" class="edge">
<title>Node26&#45;&gt;Node11</title>
<path fill="none" stroke="midnightblue" d="M3188.15,-243.31C3389.45,-240.74 4020.26,-230.22 4050,-199 4066.33,-181.85 4043.56,-158.17 4024.65,-143.09"/>
<polygon fill="midnightblue" stroke="midnightblue" points="4026.72,-140.28 4016.64,-137.02 4022.49,-145.85 4026.72,-140.28"/>
</g>
<!-- Node26&#45;&gt;Node12 -->
<g id="edge30" class="edge">
<title>Node26&#45;&gt;Node12</title>
<path fill="none" stroke="midnightblue" d="M3188.26,-236.54C3271.14,-226.16 3409.59,-207.64 3417,-199 3422.78,-192.25 3421.46,-186.69 3417,-179 3386.95,-127.16 3357.42,-129.13 3300,-112 3174.16,-74.45 2782.65,-68.13 2620.47,-67.14"/>
<polygon fill="midnightblue" stroke="midnightblue" points="2620.15,-63.64 2610.13,-67.08 2620.11,-70.64 2620.15,-63.64"/>
</g>
<!-- Node26&#45;&gt;Node17 -->
<g id="edge48" class="edge">
<title>Node26&#45;&gt;Node17</title>
<path fill="none" stroke="midnightblue" d="M3065.93,-239.88C3039.78,-238.21 3008.9,-236.35 2981,-235 2755.35,-224.05 2186.21,-244.9 1965,-199 1941.16,-194.05 1937.06,-186.8 1914,-179 1811.53,-144.32 1786.81,-129.13 1680,-112 1457.66,-76.34 734.47,-68.58 566.89,-67.24"/>
<polygon fill="midnightblue" stroke="midnightblue" points="566.7,-63.74 556.67,-67.16 566.64,-70.74 566.7,-63.74"/>
</g>
<!-- Node26&#45;&gt;Node18 -->
<g id="edge55" class="edge">
<title>Node26&#45;&gt;Node18</title>
<path fill="none" stroke="midnightblue" d="M3188.15,-242.97C3391.05,-239.32 4031.14,-225.71 4066,-199 4097.34,-174.98 4109.79,-141.9 4084,-112 4050.66,-73.34 3896.94,-67.36 3822.13,-66.78"/>
<polygon fill="midnightblue" stroke="midnightblue" points="3822.13,-63.28 3812.11,-66.73 3822.1,-70.28 3822.13,-63.28"/>
</g>
<!-- Node26&#45;&gt;Node20 -->
<g id="edge44" class="edge">
<title>Node26&#45;&gt;Node20</title>
<path fill="none" stroke="midnightblue" d="M3065.94,-240.24C2916.91,-230.95 2544.8,-207.1 2519,-199 2498.74,-192.64 2449.68,-161.42 2421.28,-142.72"/>
<polygon fill="midnightblue" stroke="midnightblue" points="2423.12,-139.74 2412.85,-137.14 2419.25,-145.58 2423.12,-139.74"/>
</g>
<!-- Node26&#45;&gt;Node21 -->
<g id="edge56" class="edge">
<title>Node26&#45;&gt;Node21</title>
<path fill="none" stroke="midnightblue" d="M3065.84,-240.24C2909.5,-230.58 2505.49,-205.17 2477,-199 2472.65,-198.06 2330.31,-145.97 2327,-143 2309.81,-127.55 2299.43,-102.54 2293.96,-85.46"/>
<polygon fill="midnightblue" stroke="midnightblue" points="2297.23,-84.18 2291.05,-75.57 2290.51,-86.15 2297.23,-84.18"/>
</g>
<!-- Node26&#45;&gt;Node22 -->
<g id="edge46" class="edge">
<title>Node26&#45;&gt;Node22</title>
<path fill="none" stroke="midnightblue" d="M3143.33,-235.39C3155.96,-227.72 3172.5,-215.21 3180,-199 3187.83,-182.07 3181.74,-160.87 3175.32,-146.16"/>
<polygon fill="midnightblue" stroke="midnightblue" points="3178.47,-144.64 3170.99,-137.15 3172.17,-147.68 3178.47,-144.64"/>
</g>
<!-- Node26&#45;&gt;Node23 -->
<g id="edge47" class="edge">
<title>Node26&#45;&gt;Node23</title>
<path fill="none" stroke="midnightblue" d="M3065.93,-239.77C3039.79,-238.08 3008.91,-236.24 2981,-235 2689.18,-222.01 1956.62,-237.03 1667,-199 1628.95,-194 1620.99,-184.47 1583,-179 1489.76,-165.57 816.73,-136.78 654.24,-129.97"/>
<polygon fill="midnightblue" stroke="midnightblue" points="654,-126.45 643.86,-129.53 653.7,-133.45 654,-126.45"/>
</g>
<!-- Node26&#45;&gt;Node24 -->
<g id="edge50" class="edge">
<title>Node26&#45;&gt;Node24</title>
<path fill="none" stroke="midnightblue" d="M3065.8,-240.23C2904.54,-230.27 2478.25,-203.66 2448,-199 2410.92,-193.29 2403.09,-184.64 2366,-179 2068.5,-133.77 1703.39,-128.88 1592.49,-128.48"/>
<polygon fill="midnightblue" stroke="midnightblue" points="1592.28,-124.98 1582.27,-128.46 1592.26,-131.98 1592.28,-124.98"/>
</g>
<!-- Node27 -->
<g id="node20" class="node">
<title>Node27</title>
<g id="a_node20"><a xlink:href="iterator__range_8h.html" target="_top" xlink:title="This provides a very simple, boring adaptor for a begin and end iterator into a range type...">
<polygon fill="none" stroke="black" points="3632,-118 3632,-137 3760,-137 3760,-118 3632,-118"/>
<text text-anchor="middle" x="3696" y="-125" font-family="Helvetica,sans-Serif" font-size="10.00">llvm/ADT/iterator_range.h</text>
</a>
</g>
</g>
<!-- Node26&#45;&gt;Node27 -->
<g id="edge24" class="edge">
<title>Node26&#45;&gt;Node27</title>
<path fill="none" stroke="midnightblue" d="M3188.38,-236.48C3192.99,-235.97 3197.57,-235.47 3202,-235 3379.52,-216.36 3435.37,-262.99 3602,-199 3633.09,-187.06 3662.76,-161.67 3680.18,-144.85"/>
<polygon fill="midnightblue" stroke="midnightblue" points="3683.07,-146.9 3687.69,-137.37 3678.13,-141.94 3683.07,-146.9"/>
</g>
<!-- Node26&#45;&gt;Node28 -->
<g id="edge52" class="edge">
<title>Node26&#45;&gt;Node28</title>
<path fill="none" stroke="midnightblue" d="M3188.18,-242.93C3380.9,-239.31 3973.79,-226.21 4164,-199 4267.29,-184.22 4324.95,-222.95 4392,-143 4405.24,-127.21 4404.21,-102.47 4401.38,-85.54"/>
<polygon fill="midnightblue" stroke="midnightblue" points="4404.81,-84.82 4399.39,-75.71 4397.95,-86.21 4404.81,-84.82"/>
</g>
<!-- Node26&#45;&gt;Node29 -->
<g id="edge27" class="edge">
<title>Node26&#45;&gt;Node29</title>
<path fill="none" stroke="midnightblue" d="M3065.92,-240.04C3039.77,-238.4 3008.89,-236.52 2981,-235 2650.75,-216.99 2255.63,-199.59 2099.87,-192.89"/>
<polygon fill="midnightblue" stroke="midnightblue" points="2099.66,-189.38 2089.51,-192.44 2099.36,-196.37 2099.66,-189.38"/>
</g>
<!-- Node26&#45;&gt;Node30 -->
<g id="edge31" class="edge">
<title>Node26&#45;&gt;Node30</title>
<path fill="none" stroke="midnightblue" d="M3106.08,-235.44C3084.26,-226.52 3049.85,-212.44 3025.11,-202.32"/>
<polygon fill="midnightblue" stroke="midnightblue" points="3026.4,-199.06 3015.82,-198.52 3023.75,-205.54 3026.4,-199.06"/>
</g>
<!-- Node33 -->
<g id="node26" class="node">
<title>Node33</title>
<g id="a_node26"><a xlink:href="MemAlloc_8h.html" target="_top" xlink:title="This file defines counterparts of C library allocation functions defined in the namespace &#39;std&#39;...">
<polygon fill="none" stroke="black" points="3882,-179.5 3882,-198.5 4008,-198.5 4008,-179.5 3882,-179.5"/>
<text text-anchor="middle" x="3945" y="-186.5" font-family="Helvetica,sans-Serif" font-size="10.00">llvm/Support/MemAlloc.h</text>
</a>
</g>
</g>
<!-- Node26&#45;&gt;Node33 -->
<g id="edge40" class="edge">
<title>Node26&#45;&gt;Node33</title>
<path fill="none" stroke="midnightblue" d="M3188.08,-241.44C3314.92,-235.88 3616.06,-221.36 3868,-199 3869.28,-198.89 3870.58,-198.77 3871.88,-198.65"/>
<polygon fill="midnightblue" stroke="midnightblue" points="3872.39,-202.11 3882,-197.65 3871.7,-195.15 3872.39,-202.11"/>
</g>
<!-- Node34 -->
<g id="node27" class="node">
<title>Node34</title>
<polygon fill="none" stroke="#bfbfbf" points="3804.5,-118 3804.5,-137 3849.5,-137 3849.5,-118 3804.5,-118"/>
<text text-anchor="middle" x="3827" y="-125" font-family="Helvetica,sans-Serif" font-size="10.00">cstdlib</text>
</g>
<!-- Node26&#45;&gt;Node34 -->
<g id="edge49" class="edge">
<title>Node26&#45;&gt;Node34</title>
<path fill="none" stroke="midnightblue" d="M3188.08,-241.98C3335.65,-236.77 3703.21,-221.67 3754,-199 3779.93,-187.43 3802.14,-162.49 3815.04,-145.59"/>
<polygon fill="midnightblue" stroke="midnightblue" points="3818.12,-147.31 3821.21,-137.17 3812.48,-143.17 3818.12,-147.31"/>
</g>
<!-- Node26&#45;&gt;Node35 -->
<g id="edge51" class="edge">
<title>Node26&#45;&gt;Node35</title>
<path fill="none" stroke="midnightblue" d="M3065.93,-239.76C3039.79,-238.07 3008.91,-236.23 2981,-235 2382.7,-208.57 2232.17,-228.17 1634,-199 1607.46,-197.71 1577.84,-195.64 1553.89,-193.82"/>
<polygon fill="midnightblue" stroke="midnightblue" points="1553.89,-190.31 1543.65,-193.03 1553.35,-197.29 1553.89,-190.31"/>
</g>
<!-- Node26&#45;&gt;Node36 -->
<g id="edge53" class="edge">
<title>Node26&#45;&gt;Node36</title>
<path fill="none" stroke="midnightblue" d="M3072.54,-235.43C3030.3,-228 2970.61,-215.79 2920,-199 2899.61,-192.24 2896.43,-185.64 2876,-179 2800.07,-154.32 2776.34,-166.39 2700,-143 2697.85,-142.34 2695.66,-141.6 2693.46,-140.81"/>
<polygon fill="midnightblue" stroke="midnightblue" points="2694.6,-137.5 2684.01,-137.15 2692.07,-144.03 2694.6,-137.5"/>
</g>
<!-- Node26&#45;&gt;Node37 -->
<g id="edge54" class="edge">
<title>Node26&#45;&gt;Node37</title>
<path fill="none" stroke="midnightblue" d="M3188.39,-236.59C3192.99,-236.05 3197.57,-235.51 3202,-235 3345.93,-218.37 3395.53,-262 3526,-199 3550.9,-186.98 3572.07,-162.37 3584.41,-145.65"/>
<polygon fill="midnightblue" stroke="midnightblue" points="3587.4,-147.48 3590.33,-137.3 3581.69,-143.43 3587.4,-147.48"/>
</g>
<!-- Node27&#45;&gt;Node21 -->
<g id="edge26" class="edge">
<title>Node27&#45;&gt;Node21</title>
<path fill="none" stroke="midnightblue" d="M3659.05,-117.93C3647.56,-115.6 3634.81,-113.35 3623,-112 3117.59,-54.25 2987.3,-96.04 2479,-76 2422.69,-73.78 2357.02,-70.52 2319.5,-68.59"/>
<polygon fill="midnightblue" stroke="midnightblue" points="2319.41,-65.08 2309.24,-68.06 2319.05,-72.08 2319.41,-65.08"/>
</g>
<!-- Node27&#45;&gt;Node28 -->
<g id="edge25" class="edge">
<title>Node27&#45;&gt;Node28</title>
<path fill="none" stroke="midnightblue" d="M3749.89,-117.99C3764.8,-115.82 3781,-113.65 3796,-112 4011.6,-88.33 4272.1,-73.49 4363.42,-68.7"/>
<polygon fill="midnightblue" stroke="midnightblue" points="4363.66,-72.19 4373.46,-68.17 4363.29,-65.2 4363.66,-72.19"/>
</g>
<!-- Node29&#45;&gt;Node12 -->
<g id="edge28" class="edge">
<title>Node29&#45;&gt;Node12</title>
<path fill="none" stroke="midnightblue" d="M2037.38,-179.01C2047.84,-162.44 2072.68,-127.39 2104,-112 2136.69,-95.94 2360.41,-79.26 2477.65,-71.48"/>
<polygon fill="midnightblue" stroke="midnightblue" points="2478.22,-74.95 2487.97,-70.8 2477.76,-67.97 2478.22,-74.95"/>
</g>
<!-- Node29&#45;&gt;Node17 -->
<g id="edge29" class="edge">
<title>Node29&#45;&gt;Node17</title>
<path fill="none" stroke="midnightblue" d="M2027.04,-179.33C2016.93,-162.64 1992.17,-126.44 1960,-112 1894.53,-82.61 779.95,-69.58 567,-67.35"/>
<polygon fill="midnightblue" stroke="midnightblue" points="566.76,-63.85 556.72,-67.24 566.69,-70.85 566.76,-63.85"/>
</g>
<!-- Node30&#45;&gt;Node12 -->
<g id="edge32" class="edge">
<title>Node30&#45;&gt;Node12</title>
<path fill="none" stroke="midnightblue" d="M2984.4,-179.45C2963.77,-163.31 2916.17,-128.48 2870,-112 2787.62,-82.6 2686.94,-72.31 2620.55,-68.77"/>
<polygon fill="midnightblue" stroke="midnightblue" points="2620.36,-65.25 2610.2,-68.25 2620.01,-72.24 2620.36,-65.25"/>
</g>
<!-- Node30&#45;&gt;Node16 -->
<g id="edge33" class="edge">
<title>Node30&#45;&gt;Node16</title>
<path fill="none" stroke="midnightblue" d="M2964.91,-179.48C2928.11,-169.05 2865.69,-151.36 2824.91,-139.81"/>
<polygon fill="midnightblue" stroke="midnightblue" points="2825.61,-136.37 2815.03,-137.01 2823.7,-143.1 2825.61,-136.37"/>
</g>
<!-- Node30&#45;&gt;Node18 -->
<g id="edge39" class="edge">
<title>Node30&#45;&gt;Node18</title>
<path fill="none" stroke="midnightblue" d="M3006.03,-179.42C3027.98,-162.89 3079.32,-126.96 3129,-112 3244.07,-77.36 3615.11,-69.23 3739.74,-67.46"/>
<polygon fill="midnightblue" stroke="midnightblue" points="3740.04,-70.96 3750,-67.32 3739.95,-63.96 3740.04,-70.96"/>
</g>
<!-- Node30&#45;&gt;Node22 -->
<g id="edge34" class="edge">
<title>Node30&#45;&gt;Node22</title>
<path fill="none" stroke="midnightblue" d="M3019.5,-179.48C3048.96,-169.22 3098.58,-151.96 3131.8,-140.4"/>
<polygon fill="midnightblue" stroke="midnightblue" points="3133.25,-143.6 3141.55,-137.01 3130.95,-136.99 3133.25,-143.6"/>
</g>
<!-- Node30&#45;&gt;Node23 -->
<g id="edge35" class="edge">
<title>Node30&#45;&gt;Node23</title>
<path fill="none" stroke="midnightblue" d="M2928.28,-184.42C2891.61,-182.56 2845.31,-180.39 2804,-179 2013.18,-152.38 1814.96,-165.16 1024,-143 886.86,-139.16 723.67,-132.76 653.68,-129.92"/>
<polygon fill="midnightblue" stroke="midnightblue" points="653.78,-126.43 643.65,-129.52 653.5,-133.42 653.78,-126.43"/>
</g>
<!-- Node30&#45;&gt;Node24 -->
<g id="edge37" class="edge">
<title>Node30&#45;&gt;Node24</title>
<path fill="none" stroke="midnightblue" d="M2928.27,-184.75C2891.59,-182.99 2845.29,-180.81 2804,-179 2322.76,-157.9 1736.74,-135.3 1592.33,-129.77"/>
<polygon fill="midnightblue" stroke="midnightblue" points="1592.45,-126.27 1582.33,-129.39 1592.19,-133.27 1592.45,-126.27"/>
</g>
<!-- Node31 -->
<g id="node24" class="node">
<title>Node31</title>
<polygon fill="none" stroke="#bfbfbf" points="2972.5,-118 2972.5,-137 3017.5,-137 3017.5,-118 2972.5,-118"/>
<text text-anchor="middle" x="2995" y="-125" font-family="Helvetica,sans-Serif" font-size="10.00">climits</text>
</g>
<!-- Node30&#45;&gt;Node31 -->
<g id="edge36" class="edge">
<title>Node30&#45;&gt;Node31</title>
<path fill="none" stroke="midnightblue" d="M2995,-179.48C2995,-171.08 2995,-157.98 2995,-147.16"/>
<polygon fill="midnightblue" stroke="midnightblue" points="2998.5,-147.01 2995,-137.01 2991.5,-147.01 2998.5,-147.01"/>
</g>
<!-- Node32 -->
<g id="node25" class="node">
<title>Node32</title>
<polygon fill="none" stroke="#bfbfbf" points="2174,-118 2174,-137 2214,-137 2214,-118 2174,-118"/>
<text text-anchor="middle" x="2194" y="-125" font-family="Helvetica,sans-Serif" font-size="10.00">limits</text>
</g>
<!-- Node30&#45;&gt;Node32 -->
<g id="edge38" class="edge">
<title>Node30&#45;&gt;Node32</title>
<path fill="none" stroke="midnightblue" d="M2928.09,-184.41C2807.71,-177.75 2546.7,-162.37 2327,-143 2291.66,-139.88 2251.15,-135.33 2224.22,-132.15"/>
<polygon fill="midnightblue" stroke="midnightblue" points="2224.6,-128.67 2214.25,-130.97 2223.77,-135.63 2224.6,-128.67"/>
</g>
<!-- Node33&#45;&gt;Node11 -->
<g id="edge42" class="edge">
<title>Node33&#45;&gt;Node11</title>
<path fill="none" stroke="midnightblue" d="M3953.45,-179.48C3962.57,-170.28 3977.27,-155.46 3988.48,-144.16"/>
<polygon fill="midnightblue" stroke="midnightblue" points="3991.01,-146.57 3995.56,-137.01 3986.04,-141.65 3991.01,-146.57"/>
</g>
<!-- Node33&#45;&gt;Node12 -->
<g id="edge41" class="edge">
<title>Node33&#45;&gt;Node12</title>
<path fill="none" stroke="midnightblue" d="M3938.63,-179.3C3925.78,-162.57 3894.91,-126.3 3859,-112 3743.92,-66.16 2876.97,-65.74 2620.35,-66.64"/>
<polygon fill="midnightblue" stroke="midnightblue" points="2620.02,-63.14 2610.04,-66.68 2620.05,-70.14 2620.02,-63.14"/>
</g>
<!-- Node33&#45;&gt;Node34 -->
<g id="edge43" class="edge">
<title>Node33&#45;&gt;Node34</title>
<path fill="none" stroke="midnightblue" d="M3928.09,-179.48C3908.47,-169.58 3875.87,-153.14 3853.01,-141.62"/>
<polygon fill="midnightblue" stroke="midnightblue" points="3854.38,-138.39 3843.88,-137.01 3851.23,-144.64 3854.38,-138.39"/>
</g>
<!-- Node38&#45;&gt;Node11 -->
<g id="edge74" class="edge">
<title>Node38&#45;&gt;Node11</title>
<path fill="none" stroke="midnightblue" d="M2372.08,-243.01C2668.81,-237.89 4002.33,-214.06 4017,-199 4030.52,-185.12 4022.79,-162.05 4014.65,-146.1"/>
<polygon fill="midnightblue" stroke="midnightblue" points="4017.64,-144.27 4009.72,-137.23 4011.52,-147.67 4017.64,-144.27"/>
</g>
<!-- Node38&#45;&gt;Node17 -->
<g id="edge77" class="edge">
<title>Node38&#45;&gt;Node17</title>
<path fill="none" stroke="midnightblue" d="M2255.86,-240.52C2180.5,-235.24 2045.31,-223.16 1932,-199 1902.85,-192.79 1896.72,-186.95 1868,-179 1745.93,-145.2 1716.42,-129.66 1591,-112 1386.37,-83.19 725.72,-70.29 566.67,-67.56"/>
<polygon fill="midnightblue" stroke="midnightblue" points="566.58,-64.06 556.52,-67.39 566.46,-71.06 566.58,-64.06"/>
</g>
<!-- Node38&#45;&gt;Node18 -->
<g id="edge86" class="edge">
<title>Node38&#45;&gt;Node18</title>
<path fill="none" stroke="midnightblue" d="M2372.32,-243.23C2585.67,-240.2 3316.47,-227.79 3417,-199 3492.2,-177.46 3496.89,-139.82 3570,-112 3626.76,-90.4 3696.26,-78.11 3739.59,-72"/>
<polygon fill="midnightblue" stroke="midnightblue" points="3740.32,-75.44 3749.75,-70.62 3739.37,-68.5 3740.32,-75.44"/>
</g>
<!-- Node38&#45;&gt;Node21 -->
<g id="edge87" class="edge">
<title>Node38&#45;&gt;Node21</title>
<path fill="none" stroke="midnightblue" d="M2307.37,-235.27C2301.23,-226.61 2292.54,-212.67 2289,-199 2278.78,-159.58 2282.75,-111.28 2286.13,-85.43"/>
<polygon fill="midnightblue" stroke="midnightblue" points="2289.6,-85.92 2287.55,-75.52 2282.67,-84.93 2289.6,-85.92"/>
</g>
<!-- Node38&#45;&gt;Node22 -->
<g id="edge75" class="edge">
<title>Node38&#45;&gt;Node22</title>
<path fill="none" stroke="midnightblue" d="M2372.25,-242.45C2538.26,-237.77 3006.05,-222.63 3071,-199 3102.97,-187.37 3133.34,-161.28 3150.79,-144.3"/>
<polygon fill="midnightblue" stroke="midnightblue" points="3153.27,-146.78 3157.87,-137.23 3148.32,-141.83 3153.27,-146.78"/>
</g>
<!-- Node38&#45;&gt;Node23 -->
<g id="edge76" class="edge">
<title>Node38&#45;&gt;Node23</title>
<path fill="none" stroke="midnightblue" d="M2255.79,-241.96C2094.46,-236.1 1649.27,-218.35 1586,-199 1569.23,-193.87 1568.78,-184.06 1552,-179 1508.21,-165.8 817.35,-136.66 653.61,-129.91"/>
<polygon fill="midnightblue" stroke="midnightblue" points="653.73,-126.42 643.6,-129.5 653.44,-133.41 653.73,-126.42"/>
</g>
<!-- Node38&#45;&gt;Node27 -->
<g id="edge72" class="edge">
<title>Node38&#45;&gt;Node27</title>
<path fill="none" stroke="midnightblue" d="M2372.06,-243.05C2598.16,-239.2 3412.8,-223.73 3526,-199 3580.31,-187.13 3639.33,-158.83 3671.57,-141.91"/>
<polygon fill="midnightblue" stroke="midnightblue" points="3673.49,-144.85 3680.67,-137.06 3670.2,-138.67 3673.49,-144.85"/>
</g>
<!-- Node38&#45;&gt;Node28 -->
<g id="edge82" class="edge">
<title>Node38&#45;&gt;Node28</title>
<path fill="none" stroke="midnightblue" d="M2372.01,-243.01C2662.75,-237.96 3950.73,-214.8 4034,-199 4165.1,-174.13 4311.71,-108.17 4370.51,-80.02"/>
<polygon fill="midnightblue" stroke="midnightblue" points="4372.33,-83.03 4379.82,-75.53 4369.29,-76.73 4372.33,-83.03"/>
</g>
<!-- Node38&#45;&gt;Node32 -->
<g id="edge83" class="edge">
<title>Node38&#45;&gt;Node32</title>
<path fill="none" stroke="midnightblue" d="M2301.46,-235.33C2289.32,-226.7 2270.67,-212.79 2256,-199 2237.91,-181.99 2219.39,-160.25 2207.36,-145.44"/>
<polygon fill="midnightblue" stroke="midnightblue" points="2209.75,-142.83 2200.77,-137.22 2204.29,-147.21 2209.75,-142.83"/>
</g>
<!-- Node38&#45;&gt;Node34 -->
<g id="edge79" class="edge">
<title>Node38&#45;&gt;Node34</title>
<path fill="none" stroke="midnightblue" d="M2372.13,-243.14C2611.57,-239.46 3514.78,-224.02 3640,-199 3699.71,-187.07 3765.44,-158.36 3800.87,-141.49"/>
<polygon fill="midnightblue" stroke="midnightblue" points="3802.55,-144.57 3810.03,-137.07 3799.5,-138.26 3802.55,-144.57"/>
</g>
<!-- Node38&#45;&gt;Node35 -->
<g id="edge81" class="edge">
<title>Node38&#45;&gt;Node35</title>
<path fill="none" stroke="midnightblue" d="M2255.85,-239.71C2234.23,-238.16 2209.5,-236.44 2187,-235 1907.56,-217.1 1836.13,-231.39 1558,-199 1556.55,-198.83 1555.08,-198.65 1553.59,-198.45"/>
<polygon fill="midnightblue" stroke="midnightblue" points="1554.1,-194.99 1543.7,-197.01 1553.08,-201.91 1554.1,-194.99"/>
</g>
<!-- Node38&#45;&gt;Node36 -->
<g id="edge84" class="edge">
<title>Node38&#45;&gt;Node36</title>
<path fill="none" stroke="midnightblue" d="M2372.08,-236.42C2465.59,-224.17 2639.42,-201.15 2642,-199 2657.11,-186.38 2662.37,-163.69 2664.16,-147.46"/>
<polygon fill="midnightblue" stroke="midnightblue" points="2667.69,-147.25 2664.95,-137.01 2660.71,-146.73 2667.69,-147.25"/>
</g>
<!-- Node39 -->
<g id="node32" class="node">
<title>Node39</title>
<g id="a_node32"><a xlink:href="Optional_8h.html" target="_top" xlink:title="llvm/ADT/Optional.h">
<polygon fill="none" stroke="red" points="2528.5,-179.5 2528.5,-198.5 2633.5,-198.5 2633.5,-179.5 2528.5,-179.5"/>
<text text-anchor="middle" x="2581" y="-186.5" font-family="Helvetica,sans-Serif" font-size="10.00">llvm/ADT/Optional.h</text>
</a>
</g>
</g>
<!-- Node38&#45;&gt;Node39 -->
<g id="edge58" class="edge">
<title>Node38&#45;&gt;Node39</title>
<path fill="none" stroke="midnightblue" d="M2356.31,-235.44C2403.08,-225.98 2478.46,-210.74 2528.85,-200.55"/>
<polygon fill="midnightblue" stroke="midnightblue" points="2529.78,-203.93 2538.89,-198.52 2528.4,-197.07 2529.78,-203.93"/>
</g>
<!-- Node40 -->
<g id="node33" class="node">
<title>Node40</title>
<g id="a_node33"><a xlink:href="iterator_8h.html" target="_top" xlink:title="llvm/ADT/iterator.h">
<polygon fill="none" stroke="black" points="3308.5,-179.5 3308.5,-198.5 3407.5,-198.5 3407.5,-179.5 3308.5,-179.5"/>
<text text-anchor="middle" x="3358" y="-186.5" font-family="Helvetica,sans-Serif" font-size="10.00">llvm/ADT/iterator.h</text>
</a>
</g>
</g>
<!-- Node38&#45;&gt;Node40 -->
<g id="edge65" class="edge">
<title>Node38&#45;&gt;Node40</title>
<path fill="none" stroke="midnightblue" d="M2372.37,-240.98C2554.96,-231.54 3114.07,-202.62 3298.38,-193.08"/>
<polygon fill="midnightblue" stroke="midnightblue" points="3298.62,-196.58 3308.42,-192.56 3298.26,-189.59 3298.62,-196.58"/>
</g>
<!-- Node41 -->
<g id="node34" class="node">
<title>Node41</title>
<polygon fill="none" stroke="#bfbfbf" points="1097,-118 1097,-137 1227,-137 1227,-118 1097,-118"/>
<text text-anchor="middle" x="1162" y="-125" font-family="Helvetica,sans-Serif" font-size="10.00">llvm/Config/abi&#45;breaking.h</text>
</g>
<!-- Node38&#45;&gt;Node41 -->
<g id="edge73" class="edge">
<title>Node38&#45;&gt;Node41</title>
<path fill="none" stroke="midnightblue" d="M2255.91,-240.27C2174.53,-234.49 2022.19,-221.59 1894,-199 1857.48,-192.57 1849.61,-184.9 1813,-179 1757.46,-170.05 1396.59,-144.61 1237.33,-133.64"/>
<polygon fill="midnightblue" stroke="midnightblue" points="1237.35,-130.14 1227.14,-132.94 1236.87,-137.12 1237.35,-130.14"/>
</g>
<!-- Node38&#45;&gt;Node42 -->
<g id="edge78" class="edge">
<title>Node38&#45;&gt;Node42</title>
<path fill="none" stroke="midnightblue" d="M2255.84,-239.86C2234.22,-238.32 2209.49,-236.58 2187,-235 1955.9,-218.81 1895.87,-234.9 1667,-199 1630.37,-193.25 1622.62,-184.8 1586,-179 1366.82,-144.28 1303.08,-197.65 1088,-143 1085.79,-142.44 1083.54,-141.73 1081.32,-140.93"/>
<polygon fill="midnightblue" stroke="midnightblue" points="1082.45,-137.62 1071.88,-137.03 1079.78,-144.08 1082.45,-137.62"/>
</g>
<!-- Node43 -->
<g id="node36" class="node">
<title>Node43</title>
<polygon fill="none" stroke="#bfbfbf" points="2298.5,-179.5 2298.5,-198.5 2357.5,-198.5 2357.5,-179.5 2298.5,-179.5"/>
<text text-anchor="middle" x="2328" y="-186.5" font-family="Helvetica,sans-Serif" font-size="10.00">functional</text>
</g>
<!-- Node38&#45;&gt;Node43 -->
<g id="edge80" class="edge">
<title>Node38&#45;&gt;Node43</title>
<path fill="none" stroke="midnightblue" d="M2316.31,-235.08C2318.17,-227.93 2320.84,-217.64 2323.15,-208.69"/>
<polygon fill="midnightblue" stroke="midnightblue" points="2326.61,-209.31 2325.73,-198.75 2319.83,-207.55 2326.61,-209.31"/>
</g>
<!-- Node44 -->
<g id="node37" class="node">
<title>Node44</title>
<polygon fill="none" stroke="#bfbfbf" points="1262,-179.5 1262,-198.5 1300,-198.5 1300,-179.5 1262,-179.5"/>
<text text-anchor="middle" x="1281" y="-186.5" font-family="Helvetica,sans-Serif" font-size="10.00">tuple</text>
</g>
<!-- Node38&#45;&gt;Node44 -->
<g id="edge85" class="edge">
<title>Node38&#45;&gt;Node44</title>
<path fill="none" stroke="midnightblue" d="M2255.88,-240.96C2063.51,-230.91 1451.71,-198.92 1310.35,-191.53"/>
<polygon fill="midnightblue" stroke="midnightblue" points="1310.44,-188.03 1300.27,-191.01 1310.08,-195.02 1310.44,-188.03"/>
</g>
<!-- Node39&#45;&gt;Node12 -->
<g id="edge59" class="edge">
<title>Node39&#45;&gt;Node12</title>
<path fill="none" stroke="midnightblue" d="M2578.7,-179.3C2573.53,-159.76 2560.92,-112.06 2553.91,-85.55"/>
<polygon fill="midnightblue" stroke="midnightblue" points="2557.22,-84.4 2551.28,-75.62 2550.45,-86.19 2557.22,-84.4"/>
</g>
<!-- Node39&#45;&gt;Node20 -->
<g id="edge60" class="edge">
<title>Node39&#45;&gt;Node20</title>
<path fill="none" stroke="midnightblue" d="M2555.07,-179.48C2523.75,-169.18 2470.91,-151.81 2435.74,-140.25"/>
<polygon fill="midnightblue" stroke="midnightblue" points="2436.48,-136.81 2425.88,-137.01 2434.29,-143.46 2436.48,-136.81"/>
</g>
<!-- Node39&#45;&gt;Node21 -->
<g id="edge64" class="edge">
<title>Node39&#45;&gt;Node21</title>
<path fill="none" stroke="midnightblue" d="M2571.36,-179.29C2553.36,-163.51 2512.87,-130.12 2473,-112 2421.77,-88.72 2356.82,-76.46 2319.38,-70.88"/>
<polygon fill="midnightblue" stroke="midnightblue" points="2319.53,-67.37 2309.14,-69.42 2318.54,-74.3 2319.53,-67.37"/>
</g>
<!-- Node39&#45;&gt;Node23 -->
<g id="edge61" class="edge">
<title>Node39&#45;&gt;Node23</title>
<path fill="none" stroke="midnightblue" d="M2528.44,-185.58C2484.91,-183.63 2421.45,-180.9 2366,-179 1769.69,-158.52 1620.37,-161.67 1024,-143 886.88,-138.71 723.68,-132.54 653.68,-129.85"/>
<polygon fill="midnightblue" stroke="midnightblue" points="653.78,-126.35 643.65,-129.46 653.51,-133.34 653.78,-126.35"/>
</g>
<!-- Node39&#45;&gt;Node36 -->
<g id="edge62" class="edge">
<title>Node39&#45;&gt;Node36</title>
<path fill="none" stroke="midnightblue" d="M2593.04,-179.48C2606.51,-169.93 2628.57,-154.31 2644.72,-142.87"/>
<polygon fill="midnightblue" stroke="midnightblue" points="2646.85,-145.65 2652.99,-137.01 2642.8,-139.93 2646.85,-145.65"/>
</g>
<!-- Node39&#45;&gt;Node37 -->
<g id="edge63" class="edge">
<title>Node39&#45;&gt;Node37</title>
<path fill="none" stroke="midnightblue" d="M2633.65,-182.92C2648.91,-181.54 2665.61,-180.12 2681,-179 3030.74,-153.62 3456.52,-134.51 3568.14,-129.68"/>
<polygon fill="midnightblue" stroke="midnightblue" points="3568.39,-133.18 3578.23,-129.25 3568.09,-126.18 3568.39,-133.18"/>
</g>
<!-- Node40&#45;&gt;Node17 -->
<g id="edge68" class="edge">
<title>Node40&#45;&gt;Node17</title>
<path fill="none" stroke="midnightblue" d="M3338.52,-179.35C3318.83,-170.52 3287.58,-156.26 3261,-143 3234.84,-129.96 3231.29,-119.34 3203,-112 3069.34,-77.32 872.27,-68.22 567.08,-67.12"/>
<polygon fill="midnightblue" stroke="midnightblue" points="566.65,-63.62 556.64,-67.08 566.62,-70.62 566.65,-63.62"/>
</g>
<!-- Node40&#45;&gt;Node18 -->
<g id="edge70" class="edge">
<title>Node40&#45;&gt;Node18</title>
<path fill="none" stroke="midnightblue" d="M3366.58,-179.15C3383.02,-162.81 3420.78,-128.11 3460,-112 3554.47,-73.19 3676.34,-66.79 3739.27,-66.35"/>
<polygon fill="midnightblue" stroke="midnightblue" points="3739.59,-69.85 3749.58,-66.33 3739.58,-62.85 3739.59,-69.85"/>
</g>
<!-- Node40&#45;&gt;Node21 -->
<g id="edge71" class="edge">
<title>Node40&#45;&gt;Node21</title>
<path fill="none" stroke="midnightblue" d="M3350.53,-179.33C3335.55,-162.64 3299.91,-126.44 3261,-112 3179.45,-81.74 2565.89,-80.06 2479,-76 2422.71,-73.37 2357.03,-70.25 2319.5,-68.46"/>
<polygon fill="midnightblue" stroke="midnightblue" points="2319.4,-64.95 2309.25,-67.97 2319.07,-71.94 2319.4,-64.95"/>
</g>
<!-- Node40&#45;&gt;Node22 -->
<g id="edge67" class="edge">
<title>Node40&#45;&gt;Node22</title>
<path fill="none" stroke="midnightblue" d="M3330.49,-179.48C3297.13,-169.14 3240.74,-151.66 3203.44,-140.1"/>
<polygon fill="midnightblue" stroke="midnightblue" points="3204.05,-136.63 3193.46,-137.01 3201.97,-143.31 3204.05,-136.63"/>
</g>
<!-- Node40&#45;&gt;Node27 -->
<g id="edge66" class="edge">
<title>Node40&#45;&gt;Node27</title>
<path fill="none" stroke="midnightblue" d="M3407.89,-179.95C3461.21,-171.25 3548.19,-156.78 3623,-143 3629.74,-141.76 3636.83,-140.41 3643.83,-139.05"/>
<polygon fill="midnightblue" stroke="midnightblue" points="3644.82,-142.42 3653.96,-137.06 3643.48,-135.55 3644.82,-142.42"/>
</g>
<!-- Node40&#45;&gt;Node28 -->
<g id="edge69" class="edge">
<title>Node40&#45;&gt;Node28</title>
<path fill="none" stroke="midnightblue" d="M3375.7,-179.5C3413.94,-161.29 3503.43,-119.55 3536,-112 3576.94,-102.51 4208.83,-75.03 4363.18,-68.44"/>
<polygon fill="midnightblue" stroke="midnightblue" points="4363.62,-71.92 4373.46,-68 4363.32,-64.93 4363.62,-71.92"/>
</g>
<!-- Node47&#45;&gt;Node12 -->
<g id="edge101" class="edge">
<title>Node47&#45;&gt;Node12</title>
<path fill="none" stroke="midnightblue" d="M2111.4,-291.15C2109.86,-260.7 2109.28,-159.54 2165,-112 2188.26,-92.16 2372.89,-77.77 2477.43,-71.12"/>
<polygon fill="midnightblue" stroke="midnightblue" points="2477.84,-74.6 2487.6,-70.48 2477.4,-67.61 2477.84,-74.6"/>
</g>
<!-- Node47&#45;&gt;Node15 -->
<g id="edge107" class="edge">
<title>Node47&#45;&gt;Node15</title>
<path fill="none" stroke="midnightblue" d="M2167.41,-299.31C2413.75,-296.11 3411.12,-281.72 3723,-255 3950.33,-235.53 4104.05,-337.09 4224,-143 4231.24,-131.28 4230.44,-124.18 4224,-112 4216.26,-97.36 4201.38,-86.58 4187.7,-79.25"/>
<polygon fill="midnightblue" stroke="midnightblue" points="4189.04,-76.01 4178.53,-74.72 4185.94,-82.29 4189.04,-76.01"/>
</g>
<!-- Node47&#45;&gt;Node17 -->
<g id="edge104" class="edge">
<title>Node47&#45;&gt;Node17</title>
<path fill="none" stroke="midnightblue" d="M2056.87,-299.87C1789.63,-299.08 635.56,-293.41 480,-255 425.2,-241.47 395.85,-246.91 366,-199 345.56,-166.18 342.51,-142.71 366,-112 381.87,-91.25 453.6,-77.84 497.41,-71.43"/>
<polygon fill="midnightblue" stroke="midnightblue" points="497.95,-74.89 507.36,-70.03 496.97,-67.96 497.95,-74.89"/>
</g>
<!-- Node47&#45;&gt;Node18 -->
<g id="edge108" class="edge">
<title>Node47&#45;&gt;Node18</title>
<path fill="none" stroke="midnightblue" d="M2167.19,-299.03C2479.43,-293.33 4013.1,-262.18 4089,-199 4119.16,-173.9 4129.76,-141.6 4104,-112 4067.94,-70.57 3900.98,-66.09 3822.27,-66.35"/>
<polygon fill="midnightblue" stroke="midnightblue" points="3822.2,-62.85 3812.22,-66.41 3822.24,-69.85 3822.2,-62.85"/>
</g>
<!-- Node47&#45;&gt;Node21 -->
<g id="edge109" class="edge">
<title>Node47&#45;&gt;Node21</title>
<path fill="none" stroke="midnightblue" d="M2056.94,-300.21C1928.39,-300 1612.09,-295.27 1515,-255 1435.66,-222.09 1325.79,-174.23 1385,-112 1415.77,-79.66 2104.54,-69.27 2258.61,-67.35"/>
<polygon fill="midnightblue" stroke="midnightblue" points="2258.81,-70.85 2268.76,-67.23 2258.72,-63.85 2258.81,-70.85"/>
</g>
<!-- Node47&#45;&gt;Node22 -->
<g id="edge102" class="edge">
<title>Node47&#45;&gt;Node22</title>
<path fill="none" stroke="midnightblue" d="M2167.2,-295.49C2369.53,-278.8 3060.94,-220.44 3103,-199 3126.23,-187.16 3144.88,-162.87 3155.7,-146.14"/>
<polygon fill="midnightblue" stroke="midnightblue" points="3158.87,-147.67 3161.14,-137.32 3152.91,-143.99 3158.87,-147.67"/>
</g>
<!-- Node47&#45;&gt;Node23 -->
<g id="edge103" class="edge">
<title>Node47&#45;&gt;Node23</title>
<path fill="none" stroke="midnightblue" d="M2056.95,-299.32C1820.89,-296.23 900.54,-282.53 774,-255 751.42,-250.09 747.86,-242.5 726,-235 668.48,-215.27 630.91,-247.33 594,-199 581.74,-182.95 593.6,-160.39 604.8,-145.15"/>
<polygon fill="midnightblue" stroke="midnightblue" points="607.68,-147.14 611.13,-137.13 602.18,-142.81 607.68,-147.14"/>
</g>
<!-- Node47&#45;&gt;Node24 -->
<g id="edge105" class="edge">
<title>Node47&#45;&gt;Node24</title>
<path fill="none" stroke="midnightblue" d="M2056.75,-300.19C1913.84,-299.38 1537.79,-288.62 1461,-199 1455.22,-192.25 1456.37,-186.59 1461,-179 1465.03,-172.39 1503.17,-153.94 1530.65,-141.27"/>
<polygon fill="midnightblue" stroke="midnightblue" points="1532.22,-144.4 1539.86,-137.06 1529.31,-138.04 1532.22,-144.4"/>
</g>
<!-- Node47&#45;&gt;Node27 -->
<g id="edge100" class="edge">
<title>Node47&#45;&gt;Node27</title>
<path fill="none" stroke="midnightblue" d="M2167.15,-299.39C2326.82,-297.25 2803.2,-288.34 3197,-255 3392.11,-238.48 3461.09,-290.89 3634,-199 3656.86,-186.85 3675.22,-162.64 3685.86,-146.01"/>
<polygon fill="midnightblue" stroke="midnightblue" points="3688.99,-147.6 3691.22,-137.24 3683.02,-143.96 3688.99,-147.6"/>
</g>
<!-- Node47&#45;&gt;Node32 -->
<g id="edge106" class="edge">
<title>Node47&#45;&gt;Node32</title>
<path fill="none" stroke="midnightblue" d="M2116.18,-291.26C2129.01,-264.42 2168.03,-182.82 2185.45,-146.39"/>
<polygon fill="midnightblue" stroke="midnightblue" points="2188.77,-147.55 2189.93,-137.02 2182.46,-144.53 2188.77,-147.55"/>
</g>
<!-- Node47&#45;&gt;Node38 -->
<g id="edge99" class="edge">
<title>Node47&#45;&gt;Node38</title>
<path fill="none" stroke="midnightblue" d="M2144.01,-291.44C2178.73,-282.16 2234.29,-267.31 2272.38,-257.13"/>
<polygon fill="midnightblue" stroke="midnightblue" points="2273.39,-260.48 2282.14,-254.52 2271.58,-253.72 2273.39,-260.48"/>
</g>
<!-- Node48&#45;&gt;Node18 -->
<g id="edge111" class="edge">
<title>Node48&#45;&gt;Node18</title>
<path fill="none" stroke="midnightblue" d="M1517.85,-113.18C1520.94,-112.73 1524,-112.33 1527,-112 1754.68,-86.69 3451.01,-70.04 3739.39,-67.38"/>
<polygon fill="midnightblue" stroke="midnightblue" points="3739.84,-70.87 3749.81,-67.28 3739.78,-63.87 3739.84,-70.87"/>
</g>
<!-- Node50&#45;&gt;Node23 -->
<g id="edge113" class="edge">
<title>Node50&#45;&gt;Node23</title>
<path fill="none" stroke="midnightblue" d="M563.07,-235.4C538.66,-224.03 503.37,-202.67 518,-179 532.45,-155.61 561.38,-142.69 584.59,-135.79"/>
<polygon fill="midnightblue" stroke="midnightblue" points="585.72,-139.11 594.45,-133.11 583.88,-132.36 585.72,-139.11"/>
</g>
<!-- Node50&#45;&gt;Node44 -->
<g id="edge114" class="edge">
<title>Node50&#45;&gt;Node44</title>
<path fill="none" stroke="midnightblue" d="M646.16,-239.18C791.17,-227.95 1147.44,-200.35 1251.82,-192.26"/>
<polygon fill="midnightblue" stroke="midnightblue" points="1252.23,-195.74 1261.93,-191.48 1251.69,-188.76 1252.23,-195.74"/>
</g>
<!-- Node51&#45;&gt;Node41 -->
<g id="edge120" class="edge">
<title>Node51&#45;&gt;Node41</title>
<path fill="none" stroke="midnightblue" d="M929.83,-179.48C978.12,-168.87 1060.61,-150.76 1113.15,-139.22"/>
<polygon fill="midnightblue" stroke="midnightblue" points="1114.23,-142.57 1123.24,-137.01 1112.73,-135.74 1114.23,-142.57"/>
</g>
<!-- Node51&#45;&gt;Node42 -->
<g id="edge121" class="edge">
<title>Node51&#45;&gt;Node42</title>
<path fill="none" stroke="midnightblue" d="M914.64,-179.48C943.1,-169.21 991.07,-151.91 1023.13,-140.35"/>
<polygon fill="midnightblue" stroke="midnightblue" points="1024.72,-143.5 1032.94,-136.82 1022.34,-136.92 1024.72,-143.5"/>
</g>
<!-- Node52&#45;&gt;Node41 -->
<g id="edge126" class="edge">
<title>Node52&#45;&gt;Node41</title>
<path fill="none" stroke="midnightblue" d="M1067.76,-179.48C1085.98,-169.62 1116.17,-153.29 1137.47,-141.77"/>
<polygon fill="midnightblue" stroke="midnightblue" points="1139.14,-144.85 1146.27,-137.01 1135.81,-138.69 1139.14,-144.85"/>
</g>
<!-- Node52&#45;&gt;Node48 -->
<g id="edge127" class="edge">
<title>Node52&#45;&gt;Node48</title>
<path fill="none" stroke="midnightblue" d="M1109.88,-179.48C1182.13,-168.83 1305.7,-150.64 1383.99,-139.11"/>
<polygon fill="midnightblue" stroke="midnightblue" points="1384.87,-142.51 1394.25,-137.59 1383.85,-135.59 1384.87,-142.51"/>
</g>
<!-- Node53&#45;&gt;Node12 -->
<g id="edge140" class="edge">
<title>Node53&#45;&gt;Node12</title>
<path fill="none" stroke="midnightblue" d="M919,-240.34C861.4,-234.43 787.88,-219.04 817,-179 906.73,-55.65 1313.43,-109.54 2318,-76 2371.51,-74.21 2431.99,-71.84 2477.63,-69.99"/>
<polygon fill="midnightblue" stroke="midnightblue" points="2477.88,-73.48 2487.73,-69.57 2477.59,-66.48 2477.88,-73.48"/>
</g>
<!-- Node53&#45;&gt;Node17 -->
<g id="edge144" class="edge">
<title>Node53&#45;&gt;Node17</title>
<path fill="none" stroke="midnightblue" d="M918.82,-239.64C849.51,-233.71 741.8,-221.21 708,-199 669.57,-173.74 687.79,-140.87 652,-112 627.19,-91.99 592.57,-80.28 566.89,-73.85"/>
<polygon fill="midnightblue" stroke="midnightblue" points="567.36,-70.37 556.83,-71.49 565.76,-77.18 567.36,-70.37"/>
</g>
<!-- Node53&#45;&gt;Node20 -->
<g id="edge142" class="edge">
<title>Node53&#45;&gt;Node20</title>
<path fill="none" stroke="midnightblue" d="M1041.25,-242.3C1179.26,-238.13 1524.94,-225.69 1813,-199 1880.85,-192.71 1897.38,-187.37 1965,-179 2091.65,-163.32 2239.23,-146.49 2325.84,-136.76"/>
<polygon fill="midnightblue" stroke="midnightblue" points="2326.29,-140.23 2335.84,-135.64 2325.51,-133.28 2326.29,-140.23"/>
</g>
<!-- Node53&#45;&gt;Node21 -->
<g id="edge149" class="edge">
<title>Node53&#45;&gt;Node21</title>
<path fill="none" stroke="midnightblue" d="M918.93,-238.22C867.84,-231.96 800.69,-219.96 784,-199 759.91,-168.75 757.07,-139.75 784,-112 810.65,-84.54 2047.97,-69.66 2258.66,-67.33"/>
<polygon fill="midnightblue" stroke="midnightblue" points="2259.01,-70.82 2268.97,-67.21 2258.93,-63.82 2259.01,-70.82"/>
</g>
<!-- Node53&#45;&gt;Node23 -->
<g id="edge143" class="edge">
<title>Node53&#45;&gt;Node23</title>
<path fill="none" stroke="midnightblue" d="M918.76,-240.74C840.62,-235.62 710.71,-223.64 670,-199 649.67,-186.69 635.06,-162.88 626.83,-146.36"/>
<polygon fill="midnightblue" stroke="midnightblue" points="629.94,-144.75 622.53,-137.18 623.6,-147.72 629.94,-144.75"/>
</g>
<!-- Node53&#45;&gt;Node24 -->
<g id="edge146" class="edge">
<title>Node53&#45;&gt;Node24</title>
<path fill="none" stroke="midnightblue" d="M1015.63,-235.47C1047.97,-227.35 1096.77,-214.15 1138,-199 1158.16,-191.59 1161.27,-184.64 1182,-179 1330.34,-138.67 1377.41,-182.39 1526,-143 1528.3,-142.39 1530.64,-141.64 1532.96,-140.81"/>
<polygon fill="midnightblue" stroke="midnightblue" points="1534.28,-144.06 1542.24,-137.06 1531.65,-137.57 1534.28,-144.06"/>
</g>
<!-- Node53&#45;&gt;Node28 -->
<g id="edge148" class="edge">
<title>Node53&#45;&gt;Node28</title>
<path fill="none" stroke="midnightblue" d="M1041.22,-243.72C1407.68,-241.97 3299.1,-231.34 3417,-199 3492.44,-178.3 3494.95,-134.05 3570,-112 3589.35,-106.32 4210.02,-76.03 4363.12,-68.63"/>
<polygon fill="midnightblue" stroke="midnightblue" points="4363.5,-72.12 4373.32,-68.14 4363.17,-65.13 4363.5,-72.12"/>
</g>
<!-- Node53&#45;&gt;Node34 -->
<g id="edge145" class="edge">
<title>Node53&#45;&gt;Node34</title>
<path fill="none" stroke="midnightblue" d="M1041.14,-243.68C1404.5,-241.71 3272.67,-230.08 3526,-199 3625.34,-186.81 3739.67,-154.97 3794.44,-138.58"/>
<polygon fill="midnightblue" stroke="midnightblue" points="3795.71,-141.85 3804.27,-135.61 3793.69,-135.15 3795.71,-141.85"/>
</g>
<!-- Node53&#45;&gt;Node35 -->
<g id="edge147" class="edge">
<title>Node53&#45;&gt;Node35</title>
<path fill="none" stroke="midnightblue" d="M1041.23,-237.73C1147.63,-226.82 1364.42,-204.61 1459.97,-194.82"/>
<polygon fill="midnightblue" stroke="midnightblue" points="1460.6,-198.27 1470.2,-193.77 1459.89,-191.31 1460.6,-198.27"/>
</g>
<!-- Node53&#45;&gt;Node51 -->
<g id="edge139" class="edge">
<title>Node53&#45;&gt;Node51</title>
<path fill="none" stroke="midnightblue" d="M965.7,-235.32C951.82,-226.9 930.51,-213.97 914.2,-204.07"/>
<polygon fill="midnightblue" stroke="midnightblue" points="915.63,-200.85 905.26,-198.65 912,-206.83 915.63,-200.85"/>
</g>
<!-- Node53&#45;&gt;Node52 -->
<g id="edge141" class="edge">
<title>Node53&#45;&gt;Node52</title>
<path fill="none" stroke="midnightblue" d="M991.57,-235.32C1002.42,-227.18 1018.88,-214.84 1031.88,-205.09"/>
<polygon fill="midnightblue" stroke="midnightblue" points="1034.32,-207.63 1040.22,-198.83 1030.12,-202.03 1034.32,-207.63"/>
</g>
<!-- Node54&#45;&gt;Node1 -->
<g id="edge152" class="edge">
<title>Node54&#45;&gt;Node1</title>
<path fill="none" stroke="midnightblue" d="M2512.44,-523.98C2294.02,-523.42 1682.63,-518.29 1486,-479 1431.05,-468.02 1370.48,-442.45 1336.66,-426.85"/>
<polygon fill="midnightblue" stroke="midnightblue" points="1337.99,-423.61 1327.45,-422.55 1335.03,-429.95 1337.99,-423.61"/>
</g>
<!-- Node54&#45;&gt;Node17 -->
<g id="edge181" class="edge">
<title>Node54&#45;&gt;Node17</title>
<path fill="none" stroke="midnightblue" d="M2512.47,-524.22C2101.4,-525.14 211.79,-526.75 98,-479 34.19,-452.22 0,-427.2 0,-358 0,-358 0,-358 0,-188 0,-134.96 43.07,-132.47 92,-112 165.17,-81.39 406.75,-70.88 497.31,-67.96"/>
<polygon fill="midnightblue" stroke="midnightblue" points="497.45,-71.46 507.33,-67.65 497.23,-64.46 497.45,-71.46"/>
</g>
<!-- Node54&#45;&gt;Node18 -->
<g id="edge184" class="edge">
<title>Node54&#45;&gt;Node18</title>
<path fill="none" stroke="midnightblue" d="M2669.72,-523.81C3037.42,-522.41 4568,-510.79 4568,-414 4568,-414 4568,-414 4568,-244 4568,-89.66 3984.61,-69.88 3822.4,-67.36"/>
<polygon fill="midnightblue" stroke="midnightblue" points="3822.39,-63.86 3812.34,-67.22 3822.29,-70.86 3822.39,-63.86"/>
</g>
<!-- Node54&#45;&gt;Node21 -->
<g id="edge185" class="edge">
<title>Node54&#45;&gt;Node21</title>
<path fill="none" stroke="midnightblue" d="M2512.27,-523.63C2142.53,-521.7 587.47,-511.71 373,-479 216.51,-455.13 38,-516.3 38,-358 38,-358 38,-358 38,-244 38,-119.14 165.2,-143.59 286,-112 484.75,-60.02 2022.53,-65.66 2258.62,-66.83"/>
<polygon fill="midnightblue" stroke="midnightblue" points="2258.85,-70.34 2268.87,-66.89 2258.89,-63.34 2258.85,-70.34"/>
</g>
<!-- Node54&#45;&gt;Node22 -->
<g id="edge179" class="edge">
<title>Node54&#45;&gt;Node22</title>
<path fill="none" stroke="midnightblue" d="M2669.52,-524.17C2940.7,-523.94 3825.81,-516.01 3908,-423 4100.95,-204.64 3625.57,-313.66 3300,-199 3258.26,-184.3 3213.48,-158.45 3187.7,-142.47"/>
<polygon fill="midnightblue" stroke="midnightblue" points="3189.43,-139.43 3179.1,-137.07 3185.71,-145.35 3189.43,-139.43"/>
</g>
<!-- Node54&#45;&gt;Node23 -->
<g id="edge180" class="edge">
<title>Node54&#45;&gt;Node23</title>
<path fill="none" stroke="midnightblue" d="M2512.36,-523.82C2155.12,-522.81 693.96,-516.42 493,-479 420.99,-465.59 380.08,-482.95 338,-423 277.38,-336.64 -126.23,-668.47 485,-179 514.21,-155.61 555.39,-142.27 584.37,-135.24"/>
<polygon fill="midnightblue" stroke="midnightblue" points="585.49,-138.58 594.45,-132.93 583.92,-131.75 585.49,-138.58"/>
</g>
<!-- Node54&#45;&gt;Node26 -->
<g id="edge164" class="edge">
<title>Node54&#45;&gt;Node26</title>
<path fill="none" stroke="midnightblue" d="M2669.82,-521.52C2952.39,-512.11 3898,-475.98 3898,-414 3898,-414 3898,-414 3898,-356 3898,-285.72 3389.39,-257.04 3198.36,-248.74"/>
<polygon fill="midnightblue" stroke="midnightblue" points="3198.28,-245.24 3188.14,-248.31 3197.98,-252.23 3198.28,-245.24"/>
</g>
<!-- Node54&#45;&gt;Node28 -->
<g id="edge182" class="edge">
<title>Node54&#45;&gt;Node28</title>
<path fill="none" stroke="midnightblue" d="M2669.72,-524.25C2966.93,-524.84 4020.82,-523.68 4353,-479 4468.06,-463.52 4606,-530.1 4606,-414 4606,-414 4606,-414 4606,-188 4606,-107.91 4489.62,-79.97 4430.55,-70.95"/>
<polygon fill="midnightblue" stroke="midnightblue" points="4430.96,-67.47 4420.57,-69.52 4429.97,-74.4 4430.96,-67.47"/>
</g>
<!-- Node54&#45;&gt;Node36 -->
<g id="edge183" class="edge">
<title>Node54&#45;&gt;Node36</title>
<path fill="none" stroke="midnightblue" d="M2669.74,-520.43C2860.15,-510.76 3330,-480.19 3330,-414 3330,-414 3330,-414 3330,-356 3330,-342.66 2888.56,-203.52 2876,-199 2852.31,-190.47 2846.88,-186.99 2823,-179 2768.98,-160.93 2753.72,-161.93 2700,-143 2698.09,-142.33 2696.14,-141.61 2694.18,-140.86"/>
<polygon fill="midnightblue" stroke="midnightblue" points="2695.06,-137.45 2684.48,-137.01 2692.48,-143.95 2695.06,-137.45"/>
</g>
<!-- Node54&#45;&gt;Node38 -->
<g id="edge162" class="edge">
<title>Node54&#45;&gt;Node38</title>
<path fill="none" stroke="midnightblue" d="M2610.84,-515.39C2642.77,-500.04 2702,-464.73 2702,-414 2702,-414 2702,-414 2702,-356 2702,-290.31 2493.54,-261.82 2382.22,-251.29"/>
<polygon fill="midnightblue" stroke="midnightblue" points="2382.37,-247.79 2372.09,-250.36 2381.72,-254.76 2382.37,-247.79"/>
</g>
<!-- Node54&#45;&gt;Node46 -->
<g id="edge186" class="edge">
<title>Node54&#45;&gt;Node46</title>
<path fill="none" stroke="midnightblue" d="M2615.51,-515.42C2636.45,-507.53 2666.92,-494.7 2691,-479 2794.81,-411.32 2898.35,-302.73 2935.56,-262.06"/>
<polygon fill="midnightblue" stroke="midnightblue" points="2938.15,-264.42 2942.29,-254.66 2932.97,-259.71 2938.15,-264.42"/>
</g>
<!-- Node54&#45;&gt;Node53 -->
<g id="edge163" class="edge">
<title>Node54&#45;&gt;Node53</title>
<path fill="none" stroke="midnightblue" d="M2512.28,-524.35C2114.22,-525.62 342,-525.05 342,-414 342,-414 342,-414 342,-356 342,-299.03 742.21,-263.3 908.68,-250.9"/>
<polygon fill="midnightblue" stroke="midnightblue" points="909.11,-254.38 918.83,-250.15 908.6,-247.4 909.11,-254.38"/>
</g>
<!-- Node55 -->
<g id="node46" class="node">
<title>Node55</title>
<g id="a_node46"><a xlink:href="GraphTraits_8h.html" target="_top" xlink:title="llvm/ADT/GraphTraits.h">
<polygon fill="none" stroke="black" points="3964,-403.5 3964,-422.5 4084,-422.5 4084,-403.5 3964,-403.5"/>
<text text-anchor="middle" x="4024" y="-410.5" font-family="Helvetica,sans-Serif" font-size="10.00">llvm/ADT/GraphTraits.h</text>
</a>
</g>
</g>
<!-- Node54&#45;&gt;Node55 -->
<g id="edge153" class="edge">
<title>Node54&#45;&gt;Node55</title>
<path fill="none" stroke="midnightblue" d="M2669.59,-524.48C2941.36,-525.7 3831.2,-526.03 3950,-479 3975.22,-469.02 3997.6,-446.45 4010.97,-430.73"/>
<polygon fill="midnightblue" stroke="midnightblue" points="4013.82,-432.77 4017.44,-422.82 4008.4,-428.34 4013.82,-432.77"/>
</g>
<!-- Node56 -->
<g id="node47" class="node">
<title>Node56</title>
<g id="a_node47"><a xlink:href="PointerIntPair_8h.html" target="_top" xlink:title="llvm/ADT/PointerIntPair.h">
<polygon fill="none" stroke="black" points="1676,-179.5 1676,-198.5 1804,-198.5 1804,-179.5 1676,-179.5"/>
<text text-anchor="middle" x="1740" y="-186.5" font-family="Helvetica,sans-Serif" font-size="10.00">llvm/ADT/PointerIntPair.h</text>
</a>
</g>
</g>
<!-- Node54&#45;&gt;Node56 -->
<g id="edge155" class="edge">
<title>Node54&#45;&gt;Node56</title>
<path fill="none" stroke="midnightblue" d="M2512.32,-520.27C2313.23,-510.1 1793.77,-478.87 1631,-423 1583.92,-406.84 1562.6,-407.75 1534,-367 1499.99,-318.54 1505.63,-271.82 1552,-235 1583.95,-209.63 1627.96,-198.21 1665.36,-193.21"/>
<polygon fill="midnightblue" stroke="midnightblue" points="1666.2,-196.63 1675.71,-191.96 1665.37,-189.68 1666.2,-196.63"/>
</g>
<!-- Node57 -->
<g id="node48" class="node">
<title>Node57</title>
<g id="a_node48"><a xlink:href="CFGUpdate_8h.html" target="_top" xlink:title="llvm/Support/CFGUpdate.h">
<polygon fill="none" stroke="red" points="2044.5,-459.5 2044.5,-478.5 2179.5,-478.5 2179.5,-459.5 2044.5,-459.5"/>
<text text-anchor="middle" x="2112" y="-466.5" font-family="Helvetica,sans-Serif" font-size="10.00">llvm/Support/CFGUpdate.h</text>
</a>
</g>
</g>
<!-- Node54&#45;&gt;Node57 -->
<g id="edge165" class="edge">
<title>Node54&#45;&gt;Node57</title>
<path fill="none" stroke="midnightblue" d="M2515.37,-515.47C2426.39,-505.44 2279.45,-488.88 2189.62,-478.75"/>
<polygon fill="midnightblue" stroke="midnightblue" points="2189.83,-475.25 2179.5,-477.61 2189.05,-482.21 2189.83,-475.25"/>
</g>
<!-- Node60 -->
<g id="node49" class="node">
<title>Node60</title>
<g id="a_node49"><a xlink:href="raw__ostream_8h.html" target="_top" xlink:title="llvm/Support/raw_ostream.h">
<polygon fill="none" stroke="red" points="2042.5,-347.5 2042.5,-366.5 2181.5,-366.5 2181.5,-347.5 2042.5,-347.5"/>
<text text-anchor="middle" x="2112" y="-354.5" font-family="Helvetica,sans-Serif" font-size="10.00">llvm/Support/raw_ostream.h</text>
</a>
</g>
</g>
<!-- Node54&#45;&gt;Node60 -->
<g id="edge178" class="edge">
<title>Node54&#45;&gt;Node60</title>
<path fill="none" stroke="midnightblue" d="M2566.26,-515.42C2486.76,-487.88 2237.76,-401.58 2146.21,-369.86"/>
<polygon fill="midnightblue" stroke="midnightblue" points="2147.19,-366.49 2136.6,-366.52 2144.9,-373.11 2147.19,-366.49"/>
</g>
<!-- Node55&#45;&gt;Node27 -->
<g id="edge154" class="edge">
<title>Node55&#45;&gt;Node27</title>
<path fill="none" stroke="midnightblue" d="M4084.18,-410.92C4146.29,-407.3 4230.41,-393.93 4202,-347 4118.97,-209.84 4024.09,-252.65 3873,-199 3820.52,-180.36 3760.5,-155.74 3725.57,-141.07"/>
<polygon fill="midnightblue" stroke="midnightblue" points="3726.56,-137.69 3715.99,-137.04 3723.84,-144.14 3726.56,-137.69"/>
</g>
<!-- Node56&#45;&gt;Node12 -->
<g id="edge156" class="edge">
<title>Node56&#45;&gt;Node12</title>
<path fill="none" stroke="midnightblue" d="M1770,-179.46C1826.73,-163.65 1953.84,-129.81 2063,-112 2209.25,-88.14 2382.48,-75.88 2477.58,-70.5"/>
<polygon fill="midnightblue" stroke="midnightblue" points="2477.87,-73.99 2487.66,-69.94 2477.48,-67.01 2477.87,-73.99"/>
</g>
<!-- Node56&#45;&gt;Node20 -->
<g id="edge158" class="edge">
<title>Node56&#45;&gt;Node20</title>
<path fill="none" stroke="midnightblue" d="M1804.18,-182.21C1927.03,-171.14 2194.77,-147 2325.36,-135.23"/>
<polygon fill="midnightblue" stroke="midnightblue" points="2326.02,-138.68 2335.67,-134.3 2325.39,-131.71 2326.02,-138.68"/>
</g>
<!-- Node56&#45;&gt;Node23 -->
<g id="edge159" class="edge">
<title>Node56&#45;&gt;Node23</title>
<path fill="none" stroke="midnightblue" d="M1675.76,-180.25C1671.11,-179.79 1666.48,-179.37 1662,-179 1459.32,-162.42 810.87,-136.12 653.6,-129.86"/>
<polygon fill="midnightblue" stroke="midnightblue" points="653.68,-126.37 643.55,-129.47 653.4,-133.36 653.68,-126.37"/>
</g>
<!-- Node56&#45;&gt;Node32 -->
<g id="edge161" class="edge">
<title>Node56&#45;&gt;Node32</title>
<path fill="none" stroke="midnightblue" d="M1804.08,-179.6C1903.36,-166.59 2090.49,-142.07 2163.62,-132.48"/>
<polygon fill="midnightblue" stroke="midnightblue" points="2164.5,-135.9 2173.96,-131.13 2163.59,-128.96 2164.5,-135.9"/>
</g>
<!-- Node56&#45;&gt;Node42 -->
<g id="edge160" class="edge">
<title>Node56&#45;&gt;Node42</title>
<path fill="none" stroke="midnightblue" d="M1675.75,-180.32C1671.1,-179.84 1666.48,-179.4 1662,-179 1407.39,-156.34 1336.04,-204.76 1088,-143 1085.79,-142.45 1083.54,-141.75 1081.31,-140.96"/>
<polygon fill="midnightblue" stroke="midnightblue" points="1082.45,-137.64 1071.87,-137.06 1079.78,-144.11 1082.45,-137.64"/>
</g>
<!-- Node56&#45;&gt;Node48 -->
<g id="edge157" class="edge">
<title>Node56&#45;&gt;Node48</title>
<path fill="none" stroke="midnightblue" d="M1699.31,-179.48C1654.55,-170.1 1581.77,-154.85 1527.45,-143.47"/>
<polygon fill="midnightblue" stroke="midnightblue" points="1528.04,-140.02 1517.53,-141.39 1526.6,-146.87 1528.04,-140.02"/>
</g>
<!-- Node57&#45;&gt;Node1 -->
<g id="edge166" class="edge">
<title>Node57&#45;&gt;Node1</title>
<path fill="none" stroke="midnightblue" d="M2044.31,-463.44C1893.24,-453.27 1529.93,-428.81 1378.29,-418.6"/>
<polygon fill="midnightblue" stroke="midnightblue" points="1378.39,-415.1 1368.18,-417.92 1377.92,-422.08 1378.39,-415.1"/>
</g>
<!-- Node57&#45;&gt;Node12 -->
<g id="edge168" class="edge">
<title>Node57&#45;&gt;Node12</title>
<path fill="none" stroke="midnightblue" d="M2179.99,-464.87C2475.25,-450.58 3646.78,-386.51 3988,-255 4049.18,-231.42 4073.85,-207.77 4084,-143 4086.13,-129.39 4093.6,-121.88 4084,-112 4058.2,-85.43 2920.36,-71.08 2620.7,-67.76"/>
<polygon fill="midnightblue" stroke="midnightblue" points="2620.43,-64.25 2610.4,-67.64 2620.36,-71.25 2620.43,-64.25"/>
</g>
<!-- Node57&#45;&gt;Node56 -->
<g id="edge167" class="edge">
<title>Node57&#45;&gt;Node56</title>
<path fill="none" stroke="midnightblue" d="M2044.47,-462.06C1892.73,-447.82 1538,-409.05 1538,-358 1538,-358 1538,-358 1538,-300 1538,-239.7 1608.29,-212.26 1665.95,-199.9"/>
<polygon fill="midnightblue" stroke="midnightblue" points="1666.7,-203.32 1675.81,-197.9 1665.31,-196.46 1666.7,-203.32"/>
</g>
<!-- Node57&#45;&gt;Node60 -->
<g id="edge169" class="edge">
<title>Node57&#45;&gt;Node60</title>
<path fill="none" stroke="midnightblue" d="M2112,-459.37C2112,-441.62 2112,-400.67 2112,-376.6"/>
<polygon fill="midnightblue" stroke="midnightblue" points="2115.5,-376.59 2112,-366.59 2108.5,-376.59 2115.5,-376.59"/>
</g>
<!-- Node60&#45;&gt;Node15 -->
<g id="edge176" class="edge">
<title>Node60&#45;&gt;Node15</title>
<path fill="none" stroke="midnightblue" d="M2181.78,-355.51C2517.44,-352.74 3957.29,-336.17 4139,-255 4200.2,-227.66 4220.71,-207.19 4240,-143 4243.97,-129.81 4247.02,-123.86 4240,-112 4228.85,-93.17 4206.71,-81.69 4188.25,-75.05"/>
<polygon fill="midnightblue" stroke="midnightblue" points="4189.33,-71.72 4178.73,-71.92 4187.14,-78.36 4189.33,-71.72"/>
</g>
<!-- Node60&#45;&gt;Node17 -->
<g id="edge173" class="edge">
<title>Node60&#45;&gt;Node17</title>
<path fill="none" stroke="midnightblue" d="M2042.35,-355.22C1739.72,-351.41 547.47,-331.6 400,-255 339.85,-223.76 305.12,-165.29 347,-112 365.36,-88.64 449.2,-75.89 497.47,-70.38"/>
<polygon fill="midnightblue" stroke="midnightblue" points="497.93,-73.85 507.48,-69.28 497.16,-66.89 497.93,-73.85"/>
</g>
<!-- Node60&#45;&gt;Node18 -->
<g id="edge177" class="edge">
<title>Node60&#45;&gt;Node18</title>
<path fill="none" stroke="midnightblue" d="M2181.62,-355.19C2485.48,-351.23 3696.9,-330.9 4069,-255 4139.95,-240.53 4179.47,-257.6 4222,-199 4244.72,-167.7 4249.93,-140.7 4224,-112 4197.35,-82.51 3927.55,-71.36 3822.52,-68.11"/>
<polygon fill="midnightblue" stroke="midnightblue" points="3822.4,-64.61 3812.3,-67.81 3822.19,-71.61 3822.4,-64.61"/>
</g>
<!-- Node60&#45;&gt;Node23 -->
<g id="edge172" class="edge">
<title>Node60&#45;&gt;Node23</title>
<path fill="none" stroke="midnightblue" d="M2042.22,-353.73C1797.73,-345.32 980.85,-313.44 726,-255 709.57,-251.23 594.47,-212.95 585,-199 573.15,-181.55 588.18,-159.33 601.84,-144.55"/>
<polygon fill="midnightblue" stroke="midnightblue" points="604.58,-146.76 609.11,-137.18 599.6,-141.84 604.58,-146.76"/>
</g>
<!-- Node60&#45;&gt;Node24 -->
<g id="edge175" class="edge">
<title>Node60&#45;&gt;Node24</title>
<path fill="none" stroke="midnightblue" d="M2042.36,-356.76C1926.83,-355.36 1690.85,-341.06 1515,-255 1476.1,-235.96 1430.95,-215.67 1454,-179 1456.25,-175.43 1500.21,-155.04 1530.53,-141.29"/>
<polygon fill="midnightblue" stroke="midnightblue" points="1532.15,-144.39 1539.82,-137.08 1529.27,-138.02 1532.15,-144.39"/>
</g>
<!-- Node60&#45;&gt;Node26 -->
<g id="edge170" class="edge">
<title>Node60&#45;&gt;Node26</title>
<path fill="none" stroke="midnightblue" d="M2181.56,-355.6C2312.49,-353.99 2604.26,-346.35 2847,-311 2933.99,-298.33 3033.83,-272.32 3087.66,-257.33"/>
<polygon fill="midnightblue" stroke="midnightblue" points="3088.79,-260.65 3097.47,-254.57 3086.9,-253.91 3088.79,-260.65"/>
</g>
<!-- Node60&#45;&gt;Node42 -->
<g id="edge174" class="edge">
<title>Node60&#45;&gt;Node42</title>
<path fill="none" stroke="midnightblue" d="M2042.29,-354.67C1943.75,-351.7 1758.5,-342.1 1604,-311 1443.47,-278.69 1408.54,-250.2 1253,-199 1179.44,-174.78 1160.02,-171.46 1088,-143 1086.58,-142.44 1085.14,-141.85 1083.68,-141.24"/>
<polygon fill="midnightblue" stroke="midnightblue" points="1084.71,-137.87 1074.14,-137.09 1081.92,-144.29 1084.71,-137.87"/>
</g>
<!-- Node60&#45;&gt;Node47 -->
<g id="edge171" class="edge">
<title>Node60&#45;&gt;Node47</title>
<path fill="none" stroke="midnightblue" d="M2112,-347.08C2112,-340.01 2112,-329.86 2112,-320.99"/>
<polygon fill="midnightblue" stroke="midnightblue" points="2115.5,-320.75 2112,-310.75 2108.5,-320.75 2115.5,-320.75"/>
</g>
</g>
</svg>
