<?xml version="1.0" encoding="UTF-8" standalone="no"?>
<!DOCTYPE svg PUBLIC "-//W3C//DTD SVG 1.1//EN"
 "http://www.w3.org/Graphics/SVG/1.1/DTD/svg11.dtd">
<!-- Generated by graphviz version 2.43.0 (0)
 -->
<!-- Title: include/llvm/ADT/Hashing.h Pages: 1 -->
<svg width="817pt" height="252pt"
 viewBox="0.00 0.00 816.50 252.00" xmlns="http://www.w3.org/2000/svg" xmlns:xlink="http://www.w3.org/1999/xlink">
<g id="graph0" class="graph" transform="scale(1 1) rotate(0) translate(4 248)">
<title>include/llvm/ADT/Hashing.h</title>
<!-- Node0 -->
<g id="node1" class="node">
<title>Node0</title>
<polygon fill="#bfbfbf" stroke="black" points="431,-224.5 431,-243.5 570,-243.5 570,-224.5 431,-224.5"/>
<text text-anchor="middle" x="500.5" y="-231.5" font-family="Helvetica,sans-Serif" font-size="10.00">include/llvm/ADT/Hashing.h</text>
</g>
<!-- Node1 -->
<g id="node2" class="node">
<title>Node1</title>
<g id="a_node2"><a xlink:href="Support_2DataTypes_8h.html" target="_top" xlink:title="llvm/Support/DataTypes.h">
<polygon fill="none" stroke="black" points="65,-112.5 65,-131.5 196,-131.5 196,-112.5 65,-112.5"/>
<text text-anchor="middle" x="130.5" y="-119.5" font-family="Helvetica,sans-Serif" font-size="10.00">llvm/Support/DataTypes.h</text>
</a>
</g>
</g>
<!-- Node0&#45;&gt;Node1 -->
<g id="edge1" class="edge">
<title>Node0&#45;&gt;Node1</title>
<path fill="none" stroke="midnightblue" d="M430.99,-225.78C381.61,-219.29 314.25,-207.68 257.5,-188 239.47,-181.75 236.46,-176.75 219.5,-168 198.47,-157.15 174.52,-145.06 156.77,-136.14"/>
<polygon fill="midnightblue" stroke="midnightblue" points="158.11,-132.9 147.6,-131.54 154.97,-139.16 158.11,-132.9"/>
</g>
<!-- Node7 -->
<g id="node8" class="node">
<title>Node7</title>
<g id="a_node8"><a xlink:href="Support_2ErrorHandling_8h.html" target="_top" xlink:title="llvm/Support/ErrorHandling.h">
<polygon fill="none" stroke="black" points="68.5,-168.5 68.5,-187.5 210.5,-187.5 210.5,-168.5 68.5,-168.5"/>
<text text-anchor="middle" x="139.5" y="-175.5" font-family="Helvetica,sans-Serif" font-size="10.00">llvm/Support/ErrorHandling.h</text>
</a>
</g>
</g>
<!-- Node0&#45;&gt;Node7 -->
<g id="edge7" class="edge">
<title>Node0&#45;&gt;Node7</title>
<path fill="none" stroke="midnightblue" d="M443.3,-224.44C379,-214.83 274.72,-199.23 206.63,-189.04"/>
<polygon fill="midnightblue" stroke="midnightblue" points="206.84,-185.53 196.43,-187.52 205.81,-192.46 206.84,-185.53"/>
</g>
<!-- Node11 -->
<g id="node12" class="node">
<title>Node11</title>
<polygon fill="none" stroke="#bfbfbf" points="6,-112.5 6,-131.5 47,-131.5 47,-112.5 6,-112.5"/>
<text text-anchor="middle" x="26.5" y="-119.5" font-family="Helvetica,sans-Serif" font-size="10.00">string</text>
</g>
<!-- Node0&#45;&gt;Node11 -->
<g id="edge25" class="edge">
<title>Node0&#45;&gt;Node11</title>
<path fill="none" stroke="midnightblue" d="M430.66,-233.83C321.81,-233.83 118.12,-228.22 59.5,-188 43.88,-177.28 35.25,-156.88 30.77,-141.78"/>
<polygon fill="midnightblue" stroke="midnightblue" points="34.11,-140.73 28.2,-131.93 27.34,-142.49 34.11,-140.73"/>
</g>
<!-- Node12 -->
<g id="node13" class="node">
<title>Node12</title>
<g id="a_node13"><a xlink:href="SwapByteOrder_8h.html" target="_top" xlink:title="llvm/Support/SwapByteOrder.h">
<polygon fill="none" stroke="black" points="266.5,-168.5 266.5,-187.5 418.5,-187.5 418.5,-168.5 266.5,-168.5"/>
<text text-anchor="middle" x="342.5" y="-175.5" font-family="Helvetica,sans-Serif" font-size="10.00">llvm/Support/SwapByteOrder.h</text>
</a>
</g>
</g>
<!-- Node0&#45;&gt;Node12 -->
<g id="edge12" class="edge">
<title>Node0&#45;&gt;Node12</title>
<path fill="none" stroke="midnightblue" d="M475.46,-224.44C448.88,-215.36 406.69,-200.94 376.98,-190.78"/>
<polygon fill="midnightblue" stroke="midnightblue" points="378.01,-187.44 367.42,-187.52 375.75,-194.06 378.01,-187.44"/>
</g>
<!-- Node16 -->
<g id="node17" class="node">
<title>Node16</title>
<g id="a_node17"><a xlink:href="type__traits_8h.html" target="_top" xlink:title="llvm/Support/type_traits.h">
<polygon fill="none" stroke="black" points="436.5,-168.5 436.5,-187.5 564.5,-187.5 564.5,-168.5 436.5,-168.5"/>
<text text-anchor="middle" x="500.5" y="-175.5" font-family="Helvetica,sans-Serif" font-size="10.00">llvm/Support/type_traits.h</text>
</a>
</g>
</g>
<!-- Node0&#45;&gt;Node16 -->
<g id="edge18" class="edge">
<title>Node0&#45;&gt;Node16</title>
<path fill="none" stroke="midnightblue" d="M500.5,-224.08C500.5,-217.01 500.5,-206.86 500.5,-197.99"/>
<polygon fill="midnightblue" stroke="midnightblue" points="504,-197.75 500.5,-187.75 497,-197.75 504,-197.75"/>
</g>
<!-- Node17 -->
<g id="node18" class="node">
<title>Node17</title>
<polygon fill="none" stroke="#bfbfbf" points="613.5,-112.5 613.5,-131.5 653.5,-131.5 653.5,-112.5 613.5,-112.5"/>
<text text-anchor="middle" x="633.5" y="-119.5" font-family="Helvetica,sans-Serif" font-size="10.00">utility</text>
</g>
<!-- Node0&#45;&gt;Node17 -->
<g id="edge26" class="edge">
<title>Node0&#45;&gt;Node17</title>
<path fill="none" stroke="midnightblue" d="M517.3,-224.36C532.68,-216.07 555.69,-202.67 573.5,-188 591.37,-173.29 608.99,-153.37 620.47,-139.47"/>
<polygon fill="midnightblue" stroke="midnightblue" points="623.19,-141.67 626.77,-131.7 617.75,-137.27 623.19,-141.67"/>
</g>
<!-- Node18 -->
<g id="node19" class="node">
<title>Node18</title>
<polygon fill="none" stroke="#bfbfbf" points="620.5,-168.5 620.5,-187.5 676.5,-187.5 676.5,-168.5 620.5,-168.5"/>
<text text-anchor="middle" x="648.5" y="-175.5" font-family="Helvetica,sans-Serif" font-size="10.00">algorithm</text>
</g>
<!-- Node0&#45;&gt;Node18 -->
<g id="edge22" class="edge">
<title>Node0&#45;&gt;Node18</title>
<path fill="none" stroke="midnightblue" d="M523.95,-224.44C548.63,-215.44 587.69,-201.19 615.48,-191.05"/>
<polygon fill="midnightblue" stroke="midnightblue" points="616.96,-194.23 625.16,-187.52 614.56,-187.66 616.96,-194.23"/>
</g>
<!-- Node19 -->
<g id="node20" class="node">
<title>Node19</title>
<polygon fill="none" stroke="#bfbfbf" points="695,-168.5 695,-187.5 744,-187.5 744,-168.5 695,-168.5"/>
<text text-anchor="middle" x="719.5" y="-175.5" font-family="Helvetica,sans-Serif" font-size="10.00">cassert</text>
</g>
<!-- Node0&#45;&gt;Node19 -->
<g id="edge23" class="edge">
<title>Node0&#45;&gt;Node19</title>
<path fill="none" stroke="midnightblue" d="M536.71,-224.42C572,-216.01 627.44,-202.66 684.68,-188.17"/>
<polygon fill="midnightblue" stroke="midnightblue" points="685.8,-191.5 694.63,-185.64 684.08,-184.71 685.8,-191.5"/>
</g>
<!-- Node20 -->
<g id="node21" class="node">
<title>Node20</title>
<polygon fill="none" stroke="#bfbfbf" points="762.5,-168.5 762.5,-187.5 808.5,-187.5 808.5,-168.5 762.5,-168.5"/>
<text text-anchor="middle" x="785.5" y="-175.5" font-family="Helvetica,sans-Serif" font-size="10.00">cstring</text>
</g>
<!-- Node0&#45;&gt;Node20 -->
<g id="edge24" class="edge">
<title>Node0&#45;&gt;Node20</title>
<path fill="none" stroke="midnightblue" d="M557.59,-224.49C606.87,-216.77 680.12,-204.4 752.72,-188"/>
<polygon fill="midnightblue" stroke="midnightblue" points="753.53,-191.4 762.5,-185.76 751.97,-184.58 753.53,-191.4"/>
</g>
<!-- Node2 -->
<g id="node3" class="node">
<title>Node2</title>
<g id="a_node3"><a xlink:href="c_2DataTypes_8h.html" target="_top" xlink:title="llvm&#45;c/DataTypes.h">
<polygon fill="none" stroke="black" points="79.5,-56.5 79.5,-75.5 181.5,-75.5 181.5,-56.5 79.5,-56.5"/>
<text text-anchor="middle" x="130.5" y="-63.5" font-family="Helvetica,sans-Serif" font-size="10.00">llvm&#45;c/DataTypes.h</text>
</a>
</g>
</g>
<!-- Node1&#45;&gt;Node2 -->
<g id="edge2" class="edge">
<title>Node1&#45;&gt;Node2</title>
<path fill="none" stroke="midnightblue" d="M130.5,-112.08C130.5,-105.01 130.5,-94.86 130.5,-85.99"/>
<polygon fill="midnightblue" stroke="midnightblue" points="134,-85.75 130.5,-75.75 127,-85.75 134,-85.75"/>
</g>
<!-- Node3 -->
<g id="node4" class="node">
<title>Node3</title>
<polygon fill="none" stroke="#bfbfbf" points="0,-0.5 0,-19.5 47,-19.5 47,-0.5 0,-0.5"/>
<text text-anchor="middle" x="23.5" y="-7.5" font-family="Helvetica,sans-Serif" font-size="10.00">math.h</text>
</g>
<!-- Node2&#45;&gt;Node3 -->
<g id="edge3" class="edge">
<title>Node2&#45;&gt;Node3</title>
<path fill="none" stroke="midnightblue" d="M113.31,-56.32C96.15,-47.66 69.55,-34.24 49.75,-24.25"/>
<polygon fill="midnightblue" stroke="midnightblue" points="51.15,-21.04 40.65,-19.65 48,-27.28 51.15,-21.04"/>
</g>
<!-- Node4 -->
<g id="node5" class="node">
<title>Node4</title>
<polygon fill="none" stroke="#bfbfbf" points="65,-0.5 65,-19.5 124,-19.5 124,-0.5 65,-0.5"/>
<text text-anchor="middle" x="94.5" y="-7.5" font-family="Helvetica,sans-Serif" font-size="10.00">inttypes.h</text>
</g>
<!-- Node2&#45;&gt;Node4 -->
<g id="edge4" class="edge">
<title>Node2&#45;&gt;Node4</title>
<path fill="none" stroke="midnightblue" d="M124.56,-56.08C119.52,-48.53 112.16,-37.49 105.99,-28.23"/>
<polygon fill="midnightblue" stroke="midnightblue" points="108.79,-26.13 100.33,-19.75 102.97,-30.01 108.79,-26.13"/>
</g>
<!-- Node5 -->
<g id="node6" class="node">
<title>Node5</title>
<polygon fill="none" stroke="#bfbfbf" points="142,-0.5 142,-19.5 191,-19.5 191,-0.5 142,-0.5"/>
<text text-anchor="middle" x="166.5" y="-7.5" font-family="Helvetica,sans-Serif" font-size="10.00">stdint.h</text>
</g>
<!-- Node2&#45;&gt;Node5 -->
<g id="edge5" class="edge">
<title>Node2&#45;&gt;Node5</title>
<path fill="none" stroke="midnightblue" d="M136.44,-56.08C141.48,-48.53 148.84,-37.49 155.01,-28.23"/>
<polygon fill="midnightblue" stroke="midnightblue" points="158.03,-30.01 160.67,-19.75 152.21,-26.13 158.03,-30.01"/>
</g>
<!-- Node6 -->
<g id="node7" class="node">
<title>Node6</title>
<polygon fill="none" stroke="#bfbfbf" points="209.5,-0.5 209.5,-19.5 277.5,-19.5 277.5,-0.5 209.5,-0.5"/>
<text text-anchor="middle" x="243.5" y="-7.5" font-family="Helvetica,sans-Serif" font-size="10.00">sys/types.h</text>
</g>
<!-- Node2&#45;&gt;Node6 -->
<g id="edge6" class="edge">
<title>Node2&#45;&gt;Node6</title>
<path fill="none" stroke="midnightblue" d="M148.41,-56.44C166.75,-47.68 195.51,-33.94 216.59,-23.86"/>
<polygon fill="midnightblue" stroke="midnightblue" points="218.17,-26.99 225.68,-19.52 215.15,-20.67 218.17,-26.99"/>
</g>
<!-- Node8 -->
<g id="node9" class="node">
<title>Node8</title>
<g id="a_node9"><a xlink:href="Compiler_8h.html" target="_top" xlink:title="llvm/Support/Compiler.h">
<polygon fill="none" stroke="black" points="281.5,-112.5 281.5,-131.5 403.5,-131.5 403.5,-112.5 281.5,-112.5"/>
<text text-anchor="middle" x="342.5" y="-119.5" font-family="Helvetica,sans-Serif" font-size="10.00">llvm/Support/Compiler.h</text>
</a>
</g>
</g>
<!-- Node7&#45;&gt;Node8 -->
<g id="edge8" class="edge">
<title>Node7&#45;&gt;Node8</title>
<path fill="none" stroke="midnightblue" d="M171.67,-168.44C206.56,-159.16 262.39,-144.31 300.67,-134.13"/>
<polygon fill="midnightblue" stroke="midnightblue" points="301.72,-137.47 310.48,-131.52 299.92,-130.7 301.72,-137.47"/>
</g>
<!-- Node7&#45;&gt;Node11 -->
<g id="edge11" class="edge">
<title>Node7&#45;&gt;Node11</title>
<path fill="none" stroke="midnightblue" d="M121.59,-168.44C103.25,-159.68 74.49,-145.94 53.41,-135.86"/>
<polygon fill="midnightblue" stroke="midnightblue" points="54.85,-132.67 44.32,-131.52 51.83,-138.99 54.85,-132.67"/>
</g>
<!-- Node9 -->
<g id="node10" class="node">
<title>Node9</title>
<polygon fill="none" stroke="#bfbfbf" points="333,-56.5 333,-75.5 458,-75.5 458,-56.5 333,-56.5"/>
<text text-anchor="middle" x="395.5" y="-63.5" font-family="Helvetica,sans-Serif" font-size="10.00">llvm/Config/llvm&#45;config.h</text>
</g>
<!-- Node8&#45;&gt;Node9 -->
<g id="edge9" class="edge">
<title>Node8&#45;&gt;Node9</title>
<path fill="none" stroke="midnightblue" d="M351.25,-112.08C358.97,-104.22 370.4,-92.57 379.72,-83.08"/>
<polygon fill="midnightblue" stroke="midnightblue" points="382.4,-85.34 386.91,-75.75 377.41,-80.44 382.4,-85.34"/>
</g>
<!-- Node10 -->
<g id="node11" class="node">
<title>Node10</title>
<polygon fill="none" stroke="#bfbfbf" points="262.5,-56.5 262.5,-75.5 314.5,-75.5 314.5,-56.5 262.5,-56.5"/>
<text text-anchor="middle" x="288.5" y="-63.5" font-family="Helvetica,sans-Serif" font-size="10.00">stddef.h</text>
</g>
<!-- Node8&#45;&gt;Node10 -->
<g id="edge10" class="edge">
<title>Node8&#45;&gt;Node10</title>
<path fill="none" stroke="midnightblue" d="M333.58,-112.08C325.72,-104.22 314.07,-92.57 304.58,-83.08"/>
<polygon fill="midnightblue" stroke="midnightblue" points="306.8,-80.35 297.25,-75.75 301.85,-85.3 306.8,-80.35"/>
</g>
<!-- Node12&#45;&gt;Node1 -->
<g id="edge14" class="edge">
<title>Node12&#45;&gt;Node1</title>
<path fill="none" stroke="midnightblue" d="M308.91,-168.44C272.31,-159.12 213.66,-144.18 173.67,-134"/>
<polygon fill="midnightblue" stroke="midnightblue" points="174.49,-130.59 163.93,-131.52 172.76,-137.38 174.49,-130.59"/>
</g>
<!-- Node12&#45;&gt;Node8 -->
<g id="edge13" class="edge">
<title>Node12&#45;&gt;Node8</title>
<path fill="none" stroke="midnightblue" d="M342.5,-168.08C342.5,-161.01 342.5,-150.86 342.5,-141.99"/>
<polygon fill="midnightblue" stroke="midnightblue" points="346,-141.75 342.5,-131.75 339,-141.75 346,-141.75"/>
</g>
<!-- Node13 -->
<g id="node14" class="node">
<title>Node13</title>
<polygon fill="none" stroke="#bfbfbf" points="214,-112.5 214,-131.5 263,-131.5 263,-112.5 214,-112.5"/>
<text text-anchor="middle" x="238.5" y="-119.5" font-family="Helvetica,sans-Serif" font-size="10.00">cstddef</text>
</g>
<!-- Node12&#45;&gt;Node13 -->
<g id="edge15" class="edge">
<title>Node12&#45;&gt;Node13</title>
<path fill="none" stroke="midnightblue" d="M325.79,-168.32C309.19,-159.7 283.5,-146.36 264.28,-136.39"/>
<polygon fill="midnightblue" stroke="midnightblue" points="265.66,-133.16 255.17,-131.65 262.43,-139.37 265.66,-133.16"/>
</g>
<!-- Node14 -->
<g id="node15" class="node">
<title>Node14</title>
<polygon fill="none" stroke="#bfbfbf" points="533.5,-112.5 533.5,-131.5 595.5,-131.5 595.5,-112.5 533.5,-112.5"/>
<text text-anchor="middle" x="564.5" y="-119.5" font-family="Helvetica,sans-Serif" font-size="10.00">type_traits</text>
</g>
<!-- Node12&#45;&gt;Node14 -->
<g id="edge16" class="edge">
<title>Node12&#45;&gt;Node14</title>
<path fill="none" stroke="midnightblue" d="M377.68,-168.44C417.32,-158.8 481.69,-143.14 523.56,-132.96"/>
<polygon fill="midnightblue" stroke="midnightblue" points="524.54,-136.32 533.43,-130.56 522.88,-129.52 524.54,-136.32"/>
</g>
<!-- Node15 -->
<g id="node16" class="node">
<title>Node15</title>
<polygon fill="none" stroke="#bfbfbf" points="422,-112.5 422,-131.5 515,-131.5 515,-112.5 422,-112.5"/>
<text text-anchor="middle" x="468.5" y="-119.5" font-family="Helvetica,sans-Serif" font-size="10.00">machine/endian.h</text>
</g>
<!-- Node12&#45;&gt;Node15 -->
<g id="edge17" class="edge">
<title>Node12&#45;&gt;Node15</title>
<path fill="none" stroke="midnightblue" d="M362.47,-168.44C383.11,-159.6 415.56,-145.69 439.13,-135.59"/>
<polygon fill="midnightblue" stroke="midnightblue" points="440.82,-138.67 448.63,-131.52 438.06,-132.24 440.82,-138.67"/>
</g>
<!-- Node16&#45;&gt;Node8 -->
<g id="edge19" class="edge">
<title>Node16&#45;&gt;Node8</title>
<path fill="none" stroke="midnightblue" d="M475.46,-168.44C448.88,-159.36 406.69,-144.94 376.98,-134.78"/>
<polygon fill="midnightblue" stroke="midnightblue" points="378.01,-131.44 367.42,-131.52 375.75,-138.06 378.01,-131.44"/>
</g>
<!-- Node16&#45;&gt;Node14 -->
<g id="edge20" class="edge">
<title>Node16&#45;&gt;Node14</title>
<path fill="none" stroke="midnightblue" d="M510.78,-168.32C520.34,-160.26 534.78,-148.08 546.28,-138.37"/>
<polygon fill="midnightblue" stroke="midnightblue" points="548.64,-140.96 554.03,-131.83 544.13,-135.61 548.64,-140.96"/>
</g>
<!-- Node16&#45;&gt;Node17 -->
<g id="edge21" class="edge">
<title>Node16&#45;&gt;Node17</title>
<path fill="none" stroke="midnightblue" d="M521.57,-168.44C543.82,-159.41 579.05,-145.11 604.04,-134.96"/>
<polygon fill="midnightblue" stroke="midnightblue" points="605.45,-138.17 613.39,-131.16 602.81,-131.68 605.45,-138.17"/>
</g>
</g>
</svg>
