<?xml version="1.0" encoding="UTF-8" standalone="no"?>
<!DOCTYPE svg PUBLIC "-//W3C//DTD SVG 1.1//EN"
 "http://www.w3.org/Graphics/SVG/1.1/DTD/svg11.dtd">
<!-- Generated by graphviz version 2.43.0 (0)
 -->
<!-- Title: include/llvm/ADT/ilist.h Pages: 1 -->
<svg width="701pt" height="554pt"
 viewBox="0.00 0.00 701.00 554.00" xmlns="http://www.w3.org/2000/svg" xmlns:xlink="http://www.w3.org/1999/xlink">
<g id="graph0" class="graph" transform="scale(1 1) rotate(0) translate(4 550)">
<title>include/llvm/ADT/ilist.h</title>
<!-- Node0 -->
<g id="node1" class="node">
<title>Node0</title>
<polygon fill="#bfbfbf" stroke="black" points="174,-526.5 174,-545.5 292,-545.5 292,-526.5 174,-526.5"/>
<text text-anchor="middle" x="233" y="-533.5" font-family="Helvetica,sans-Serif" font-size="10.00">include/llvm/ADT/ilist.h</text>
</g>
<!-- Node1 -->
<g id="node2" class="node">
<title>Node1</title>
<g id="a_node2"><a xlink:href="simple__ilist_8h.html" target="_top" xlink:title="llvm/ADT/simple_ilist.h">
<polygon fill="none" stroke="black" points="339,-470.5 339,-489.5 457,-489.5 457,-470.5 339,-470.5"/>
<text text-anchor="middle" x="398" y="-477.5" font-family="Helvetica,sans-Serif" font-size="10.00">llvm/ADT/simple_ilist.h</text>
</a>
</g>
</g>
<!-- Node0&#45;&gt;Node1 -->
<g id="edge1" class="edge">
<title>Node0&#45;&gt;Node1</title>
<path fill="none" stroke="midnightblue" d="M259.14,-526.44C287.02,-517.32 331.35,-502.81 362.4,-492.65"/>
<polygon fill="midnightblue" stroke="midnightblue" points="363.56,-495.95 371.98,-489.52 361.38,-489.3 363.56,-495.95"/>
</g>
<!-- Node19 -->
<g id="node20" class="node">
<title>Node19</title>
<polygon fill="none" stroke="#bfbfbf" points="4.5,-174 4.5,-193 53.5,-193 53.5,-174 4.5,-174"/>
<text text-anchor="middle" x="29" y="-181" font-family="Helvetica,sans-Serif" font-size="10.00">cassert</text>
</g>
<!-- Node0&#45;&gt;Node19 -->
<g id="edge44" class="edge">
<title>Node0&#45;&gt;Node19</title>
<path fill="none" stroke="midnightblue" d="M173.9,-532.06C104.87,-525.08 0,-501.83 0,-425 0,-425 0,-425 0,-305.5 0,-268.2 13.19,-226.18 21.78,-202.76"/>
<polygon fill="midnightblue" stroke="midnightblue" points="25.16,-203.73 25.44,-193.13 18.62,-201.24 25.16,-203.73"/>
</g>
<!-- Node26 -->
<g id="node27" class="node">
<title>Node26</title>
<polygon fill="none" stroke="#bfbfbf" points="66.5,-358.5 66.5,-377.5 115.5,-377.5 115.5,-358.5 66.5,-358.5"/>
<text text-anchor="middle" x="91" y="-365.5" font-family="Helvetica,sans-Serif" font-size="10.00">cstddef</text>
</g>
<!-- Node0&#45;&gt;Node26 -->
<g id="edge45" class="edge">
<title>Node0&#45;&gt;Node26</title>
<path fill="none" stroke="midnightblue" d="M215.98,-526.41C188.33,-511.55 133.96,-478.31 106,-434 97.21,-420.07 93.56,-401.56 92.05,-387.86"/>
<polygon fill="midnightblue" stroke="midnightblue" points="95.52,-387.37 91.22,-377.69 88.54,-387.94 95.52,-387.37"/>
</g>
<!-- Node27 -->
<g id="node28" class="node">
<title>Node27</title>
<polygon fill="none" stroke="#bfbfbf" points="466.5,-358.5 466.5,-377.5 513.5,-377.5 513.5,-358.5 466.5,-358.5"/>
<text text-anchor="middle" x="490" y="-365.5" font-family="Helvetica,sans-Serif" font-size="10.00">iterator</text>
</g>
<!-- Node0&#45;&gt;Node27 -->
<g id="edge46" class="edge">
<title>Node0&#45;&gt;Node27</title>
<path fill="none" stroke="midnightblue" d="M292.09,-527.48C384.08,-514.33 554.33,-483.73 586,-434 604.06,-405.65 557.69,-386.62 523.28,-376.82"/>
<polygon fill="midnightblue" stroke="midnightblue" points="524.08,-373.41 513.51,-374.19 522.26,-380.17 524.08,-373.41"/>
</g>
<!-- Node2 -->
<g id="node3" class="node">
<title>Node2</title>
<g id="a_node3"><a xlink:href="ilist__base_8h.html" target="_top" xlink:title="llvm/ADT/ilist_base.h">
<polygon fill="none" stroke="black" points="210,-358.5 210,-377.5 320,-377.5 320,-358.5 210,-358.5"/>
<text text-anchor="middle" x="265" y="-365.5" font-family="Helvetica,sans-Serif" font-size="10.00">llvm/ADT/ilist_base.h</text>
</a>
</g>
</g>
<!-- Node1&#45;&gt;Node2 -->
<g id="edge2" class="edge">
<title>Node1&#45;&gt;Node2</title>
<path fill="none" stroke="midnightblue" d="M394.73,-470.34C389.22,-456.75 376.91,-430.3 359,-414 342.82,-399.27 320.95,-388.42 302.38,-381.06"/>
<polygon fill="midnightblue" stroke="midnightblue" points="303.61,-377.79 293.02,-377.53 301.14,-384.34 303.61,-377.79"/>
</g>
<!-- Node5 -->
<g id="node6" class="node">
<title>Node5</title>
<g id="a_node6"><a xlink:href="Compiler_8h.html" target="_top" xlink:title="llvm/Support/Compiler.h">
<polygon fill="none" stroke="black" points="506,-112.5 506,-131.5 628,-131.5 628,-112.5 506,-112.5"/>
<text text-anchor="middle" x="567" y="-119.5" font-family="Helvetica,sans-Serif" font-size="10.00">llvm/Support/Compiler.h</text>
</a>
</g>
</g>
<!-- Node1&#45;&gt;Node5 -->
<g id="edge37" class="edge">
<title>Node1&#45;&gt;Node5</title>
<path fill="none" stroke="midnightblue" d="M457.2,-471.39C505.12,-464.07 567.58,-451.53 586,-434 607.8,-413.25 605,-399.1 605,-369 605,-369 605,-369 605,-244 605,-205.81 587.56,-163.83 576.31,-140.72"/>
<polygon fill="midnightblue" stroke="midnightblue" points="579.29,-138.86 571.66,-131.52 573.04,-142.02 579.29,-138.86"/>
</g>
<!-- Node18 -->
<g id="node19" class="node">
<title>Node18</title>
<polygon fill="none" stroke="#bfbfbf" points="653,-112.5 653,-131.5 693,-131.5 693,-112.5 653,-112.5"/>
<text text-anchor="middle" x="673" y="-119.5" font-family="Helvetica,sans-Serif" font-size="10.00">utility</text>
</g>
<!-- Node1&#45;&gt;Node18 -->
<g id="edge43" class="edge">
<title>Node1&#45;&gt;Node18</title>
<path fill="none" stroke="midnightblue" d="M457.42,-474.28C500.77,-468.95 559.92,-457.7 607,-434 646.1,-414.32 681,-412.77 681,-369 681,-369 681,-369 681,-244 681,-207.82 677.39,-165.68 675.02,-141.89"/>
<polygon fill="midnightblue" stroke="midnightblue" points="678.49,-141.38 673.98,-131.79 671.53,-142.1 678.49,-141.38"/>
</g>
<!-- Node1&#45;&gt;Node19 -->
<g id="edge39" class="edge">
<title>Node1&#45;&gt;Node19</title>
<path fill="none" stroke="midnightblue" d="M338.69,-474.09C265.5,-467.31 145.86,-453.64 106,-434 68.5,-415.52 38,-410.81 38,-369 38,-369 38,-369 38,-305.5 38,-269.29 33.94,-227.16 31.28,-203.38"/>
<polygon fill="midnightblue" stroke="midnightblue" points="34.73,-202.82 30.1,-193.29 27.78,-203.63 34.73,-202.82"/>
</g>
<!-- Node22 -->
<g id="node23" class="node">
<title>Node22</title>
<g id="a_node23"><a xlink:href="ilist__iterator_8h.html" target="_top" xlink:title="llvm/ADT/ilist_iterator.h">
<polygon fill="none" stroke="black" points="231.5,-414.5 231.5,-433.5 350.5,-433.5 350.5,-414.5 231.5,-414.5"/>
<text text-anchor="middle" x="291" y="-421.5" font-family="Helvetica,sans-Serif" font-size="10.00">llvm/ADT/ilist_iterator.h</text>
</a>
</g>
</g>
<!-- Node1&#45;&gt;Node22 -->
<g id="edge25" class="edge">
<title>Node1&#45;&gt;Node22</title>
<path fill="none" stroke="midnightblue" d="M380.81,-470.32C363.65,-461.66 337.05,-448.24 317.25,-438.25"/>
<polygon fill="midnightblue" stroke="midnightblue" points="318.65,-435.04 308.15,-433.65 315.5,-441.28 318.65,-435.04"/>
</g>
<!-- Node23 -->
<g id="node24" class="node">
<title>Node23</title>
<g id="a_node24"><a xlink:href="ilist__node_8h.html" target="_top" xlink:title="llvm/ADT/ilist_node.h">
<polygon fill="none" stroke="black" points="338,-358.5 338,-377.5 448,-377.5 448,-358.5 338,-358.5"/>
<text text-anchor="middle" x="393" y="-365.5" font-family="Helvetica,sans-Serif" font-size="10.00">llvm/ADT/ilist_node.h</text>
</a>
</g>
</g>
<!-- Node1&#45;&gt;Node23 -->
<g id="edge35" class="edge">
<title>Node1&#45;&gt;Node23</title>
<path fill="none" stroke="midnightblue" d="M397.61,-470.37C396.8,-452.62 394.94,-411.67 393.85,-387.6"/>
<polygon fill="midnightblue" stroke="midnightblue" points="397.34,-387.42 393.39,-377.59 390.35,-387.74 397.34,-387.42"/>
</g>
<!-- Node24 -->
<g id="node25" class="node">
<title>Node24</title>
<g id="a_node25"><a xlink:href="ilist__node__options_8h.html" target="_top" xlink:title="llvm/ADT/ilist_node\l_options.h">
<polygon fill="none" stroke="black" points="436,-291.5 436,-321.5 538,-321.5 538,-291.5 436,-291.5"/>
<text text-anchor="start" x="444" y="-309.5" font-family="Helvetica,sans-Serif" font-size="10.00">llvm/ADT/ilist_node</text>
<text text-anchor="middle" x="487" y="-298.5" font-family="Helvetica,sans-Serif" font-size="10.00">_options.h</text>
</a>
</g>
</g>
<!-- Node1&#45;&gt;Node24 -->
<g id="edge36" class="edge">
<title>Node1&#45;&gt;Node24</title>
<path fill="none" stroke="midnightblue" d="M417.38,-470.33C446.66,-456 501,-424.27 522,-378 529.51,-361.46 519.78,-343.09 508.7,-329.25"/>
<polygon fill="midnightblue" stroke="midnightblue" points="511.33,-326.94 502.13,-321.67 506.04,-331.52 511.33,-326.94"/>
</g>
<!-- Node1&#45;&gt;Node26 -->
<g id="edge40" class="edge">
<title>Node1&#45;&gt;Node26</title>
<path fill="none" stroke="midnightblue" d="M353.4,-470.48C317.3,-462.91 265.5,-450.48 222,-434 203.78,-427.1 200.42,-422.72 183,-414 161.17,-403.06 136.29,-390.91 117.91,-382"/>
<polygon fill="midnightblue" stroke="midnightblue" points="119.21,-378.74 108.69,-377.53 116.16,-385.04 119.21,-378.74"/>
</g>
<!-- Node1&#45;&gt;Node27 -->
<g id="edge42" class="edge">
<title>Node1&#45;&gt;Node27</title>
<path fill="none" stroke="midnightblue" d="M405.22,-470.37C420.54,-452.05 456.5,-409.05 476.32,-385.36"/>
<polygon fill="midnightblue" stroke="midnightblue" points="479.08,-387.51 482.81,-377.59 473.71,-383.02 479.08,-387.51"/>
</g>
<!-- Node28 -->
<g id="node29" class="node">
<title>Node28</title>
<polygon fill="none" stroke="#bfbfbf" points="521,-414.5 521,-433.5 577,-433.5 577,-414.5 521,-414.5"/>
<text text-anchor="middle" x="549" y="-421.5" font-family="Helvetica,sans-Serif" font-size="10.00">algorithm</text>
</g>
<!-- Node1&#45;&gt;Node28 -->
<g id="edge38" class="edge">
<title>Node1&#45;&gt;Node28</title>
<path fill="none" stroke="midnightblue" d="M421.93,-470.44C447.22,-461.4 487.3,-447.06 515.68,-436.92"/>
<polygon fill="midnightblue" stroke="midnightblue" points="516.95,-440.18 525.19,-433.52 514.59,-433.59 516.95,-440.18"/>
</g>
<!-- Node29 -->
<g id="node30" class="node">
<title>Node29</title>
<polygon fill="none" stroke="#bfbfbf" points="115.5,-414.5 115.5,-433.5 174.5,-433.5 174.5,-414.5 115.5,-414.5"/>
<text text-anchor="middle" x="145" y="-421.5" font-family="Helvetica,sans-Serif" font-size="10.00">functional</text>
</g>
<!-- Node1&#45;&gt;Node29 -->
<g id="edge41" class="edge">
<title>Node1&#45;&gt;Node29</title>
<path fill="none" stroke="midnightblue" d="M357.91,-470.44C310.4,-460.3 231.74,-443.51 184.49,-433.43"/>
<polygon fill="midnightblue" stroke="midnightblue" points="185.13,-429.99 174.62,-431.32 183.67,-436.83 185.13,-429.99"/>
</g>
<!-- Node3 -->
<g id="node4" class="node">
<title>Node3</title>
<g id="a_node4"><a xlink:href="ilist__node__base_8h.html" target="_top" xlink:title="llvm/ADT/ilist_node\l_base.h">
<polygon fill="none" stroke="black" points="302,-291.5 302,-321.5 404,-321.5 404,-291.5 302,-291.5"/>
<text text-anchor="start" x="310" y="-309.5" font-family="Helvetica,sans-Serif" font-size="10.00">llvm/ADT/ilist_node</text>
<text text-anchor="middle" x="353" y="-298.5" font-family="Helvetica,sans-Serif" font-size="10.00">_base.h</text>
</a>
</g>
</g>
<!-- Node2&#45;&gt;Node3 -->
<g id="edge3" class="edge">
<title>Node2&#45;&gt;Node3</title>
<path fill="none" stroke="midnightblue" d="M277.61,-358.48C289.64,-350.34 308.2,-337.79 323.9,-327.18"/>
<polygon fill="midnightblue" stroke="midnightblue" points="325.94,-330.02 332.26,-321.52 322.02,-324.22 325.94,-330.02"/>
</g>
<!-- Node2&#45;&gt;Node19 -->
<g id="edge24" class="edge">
<title>Node2&#45;&gt;Node19</title>
<path fill="none" stroke="midnightblue" d="M260.19,-358.27C246.93,-334.97 207.55,-270.69 158,-235 121.02,-208.37 104.21,-216.17 62,-199 60.59,-198.43 59.14,-197.83 57.69,-197.22"/>
<polygon fill="midnightblue" stroke="midnightblue" points="58.69,-193.84 48.12,-193.11 55.93,-200.27 58.69,-193.84"/>
</g>
<!-- Node4 -->
<g id="node5" class="node">
<title>Node4</title>
<g id="a_node5"><a xlink:href="PointerIntPair_8h.html" target="_top" xlink:title="llvm/ADT/PointerIntPair.h">
<polygon fill="none" stroke="black" points="289,-235.5 289,-254.5 417,-254.5 417,-235.5 289,-235.5"/>
<text text-anchor="middle" x="353" y="-242.5" font-family="Helvetica,sans-Serif" font-size="10.00">llvm/ADT/PointerIntPair.h</text>
</a>
</g>
</g>
<!-- Node3&#45;&gt;Node4 -->
<g id="edge4" class="edge">
<title>Node3&#45;&gt;Node4</title>
<path fill="none" stroke="midnightblue" d="M353,-291.4C353,-283.47 353,-273.46 353,-264.86"/>
<polygon fill="midnightblue" stroke="midnightblue" points="356.5,-264.66 353,-254.66 349.5,-264.66 356.5,-264.66"/>
</g>
<!-- Node4&#45;&gt;Node5 -->
<g id="edge5" class="edge">
<title>Node4&#45;&gt;Node5</title>
<path fill="none" stroke="midnightblue" d="M402.11,-235.42C456.38,-225.51 537.56,-209.25 548,-199 563.2,-184.07 566.91,-158.95 567.51,-141.7"/>
<polygon fill="midnightblue" stroke="midnightblue" points="571.01,-141.7 567.53,-131.69 564.01,-141.68 571.01,-141.7"/>
</g>
<!-- Node8 -->
<g id="node9" class="node">
<title>Node8</title>
<g id="a_node9"><a xlink:href="PointerLikeTypeTraits_8h.html" target="_top" xlink:title="llvm/Support/PointerLike\lTypeTraits.h">
<polygon fill="none" stroke="black" points="71.5,-168.5 71.5,-198.5 194.5,-198.5 194.5,-168.5 71.5,-168.5"/>
<text text-anchor="start" x="79.5" y="-186.5" font-family="Helvetica,sans-Serif" font-size="10.00">llvm/Support/PointerLike</text>
<text text-anchor="middle" x="133" y="-175.5" font-family="Helvetica,sans-Serif" font-size="10.00">TypeTraits.h</text>
</a>
</g>
</g>
<!-- Node4&#45;&gt;Node8 -->
<g id="edge8" class="edge">
<title>Node4&#45;&gt;Node8</title>
<path fill="none" stroke="midnightblue" d="M321.48,-235.48C288.48,-226.55 235.82,-212.31 194.54,-201.14"/>
<polygon fill="midnightblue" stroke="midnightblue" points="195.42,-197.76 184.85,-198.52 193.59,-204.51 195.42,-197.76"/>
</g>
<!-- Node17 -->
<g id="node18" class="node">
<title>Node17</title>
<g id="a_node18"><a xlink:href="type__traits_8h.html" target="_top" xlink:title="llvm/Support/type_traits.h">
<polygon fill="none" stroke="black" points="411,-174 411,-193 539,-193 539,-174 411,-174"/>
<text text-anchor="middle" x="475" y="-181" font-family="Helvetica,sans-Serif" font-size="10.00">llvm/Support/type_traits.h</text>
</a>
</g>
</g>
<!-- Node4&#45;&gt;Node17 -->
<g id="edge17" class="edge">
<title>Node4&#45;&gt;Node17</title>
<path fill="none" stroke="midnightblue" d="M370.48,-235.48C390.86,-225.53 424.78,-208.99 448.42,-197.46"/>
<polygon fill="midnightblue" stroke="midnightblue" points="450.1,-200.54 457.55,-193.01 447.03,-194.25 450.1,-200.54"/>
</g>
<!-- Node4&#45;&gt;Node19 -->
<g id="edge21" class="edge">
<title>Node4&#45;&gt;Node19</title>
<path fill="none" stroke="midnightblue" d="M288.95,-238.93C229.29,-233.07 138.32,-221.25 62,-199 59.85,-198.37 57.66,-197.64 55.48,-196.84"/>
<polygon fill="midnightblue" stroke="midnightblue" points="56.73,-193.57 46.15,-193.05 54.1,-200.06 56.73,-193.57"/>
</g>
<!-- Node20 -->
<g id="node21" class="node">
<title>Node20</title>
<polygon fill="none" stroke="#bfbfbf" points="347,-174 347,-193 393,-193 393,-174 347,-174"/>
<text text-anchor="middle" x="370" y="-181" font-family="Helvetica,sans-Serif" font-size="10.00">cstdint</text>
</g>
<!-- Node4&#45;&gt;Node20 -->
<g id="edge22" class="edge">
<title>Node4&#45;&gt;Node20</title>
<path fill="none" stroke="midnightblue" d="M355.44,-235.48C357.86,-226.99 361.66,-213.7 364.77,-202.82"/>
<polygon fill="midnightblue" stroke="midnightblue" points="368.19,-203.59 367.57,-193.01 361.46,-201.66 368.19,-203.59"/>
</g>
<!-- Node21 -->
<g id="node22" class="node">
<title>Node21</title>
<polygon fill="none" stroke="#bfbfbf" points="289,-174 289,-193 329,-193 329,-174 289,-174"/>
<text text-anchor="middle" x="309" y="-181" font-family="Helvetica,sans-Serif" font-size="10.00">limits</text>
</g>
<!-- Node4&#45;&gt;Node21 -->
<g id="edge23" class="edge">
<title>Node4&#45;&gt;Node21</title>
<path fill="none" stroke="midnightblue" d="M346.7,-235.48C340.1,-226.55 329.56,-212.31 321.31,-201.14"/>
<polygon fill="midnightblue" stroke="midnightblue" points="324.05,-198.97 315.29,-193.01 318.42,-203.13 324.05,-198.97"/>
</g>
<!-- Node6 -->
<g id="node7" class="node">
<title>Node6</title>
<polygon fill="none" stroke="#bfbfbf" points="450.5,-56.5 450.5,-75.5 575.5,-75.5 575.5,-56.5 450.5,-56.5"/>
<text text-anchor="middle" x="513" y="-63.5" font-family="Helvetica,sans-Serif" font-size="10.00">llvm/Config/llvm&#45;config.h</text>
</g>
<!-- Node5&#45;&gt;Node6 -->
<g id="edge6" class="edge">
<title>Node5&#45;&gt;Node6</title>
<path fill="none" stroke="midnightblue" d="M558.08,-112.08C550.22,-104.22 538.57,-92.57 529.08,-83.08"/>
<polygon fill="midnightblue" stroke="midnightblue" points="531.3,-80.35 521.75,-75.75 526.35,-85.3 531.3,-80.35"/>
</g>
<!-- Node7 -->
<g id="node8" class="node">
<title>Node7</title>
<polygon fill="none" stroke="#bfbfbf" points="594,-56.5 594,-75.5 646,-75.5 646,-56.5 594,-56.5"/>
<text text-anchor="middle" x="620" y="-63.5" font-family="Helvetica,sans-Serif" font-size="10.00">stddef.h</text>
</g>
<!-- Node5&#45;&gt;Node7 -->
<g id="edge7" class="edge">
<title>Node5&#45;&gt;Node7</title>
<path fill="none" stroke="midnightblue" d="M575.75,-112.08C583.47,-104.22 594.9,-92.57 604.22,-83.08"/>
<polygon fill="midnightblue" stroke="midnightblue" points="606.9,-85.34 611.41,-75.75 601.91,-80.44 606.9,-85.34"/>
</g>
<!-- Node9 -->
<g id="node10" class="node">
<title>Node9</title>
<g id="a_node10"><a xlink:href="Support_2DataTypes_8h.html" target="_top" xlink:title="llvm/Support/DataTypes.h">
<polygon fill="none" stroke="black" points="70.5,-112.5 70.5,-131.5 201.5,-131.5 201.5,-112.5 70.5,-112.5"/>
<text text-anchor="middle" x="136" y="-119.5" font-family="Helvetica,sans-Serif" font-size="10.00">llvm/Support/DataTypes.h</text>
</a>
</g>
</g>
<!-- Node8&#45;&gt;Node9 -->
<g id="edge9" class="edge">
<title>Node8&#45;&gt;Node9</title>
<path fill="none" stroke="midnightblue" d="M133.71,-168.4C134.11,-160.47 134.62,-150.46 135.05,-141.86"/>
<polygon fill="midnightblue" stroke="midnightblue" points="138.56,-141.82 135.56,-131.66 131.56,-141.47 138.56,-141.82"/>
</g>
<!-- Node15 -->
<g id="node16" class="node">
<title>Node15</title>
<polygon fill="none" stroke="#bfbfbf" points="0,-112.5 0,-131.5 52,-131.5 52,-112.5 0,-112.5"/>
<text text-anchor="middle" x="26" y="-119.5" font-family="Helvetica,sans-Serif" font-size="10.00">assert.h</text>
</g>
<!-- Node8&#45;&gt;Node15 -->
<g id="edge15" class="edge">
<title>Node8&#45;&gt;Node15</title>
<path fill="none" stroke="midnightblue" d="M107.64,-168.4C90.33,-158.77 67.52,-146.09 50.42,-136.58"/>
<polygon fill="midnightblue" stroke="midnightblue" points="52.01,-133.46 41.57,-131.66 48.61,-139.58 52.01,-133.46"/>
</g>
<!-- Node16 -->
<g id="node17" class="node">
<title>Node16</title>
<polygon fill="none" stroke="#bfbfbf" points="224,-112.5 224,-131.5 286,-131.5 286,-112.5 224,-112.5"/>
<text text-anchor="middle" x="255" y="-119.5" font-family="Helvetica,sans-Serif" font-size="10.00">type_traits</text>
</g>
<!-- Node8&#45;&gt;Node16 -->
<g id="edge16" class="edge">
<title>Node8&#45;&gt;Node16</title>
<path fill="none" stroke="midnightblue" d="M161.91,-168.4C182.02,-158.59 208.62,-145.62 228.24,-136.05"/>
<polygon fill="midnightblue" stroke="midnightblue" points="229.79,-139.19 237.25,-131.66 226.73,-132.9 229.79,-139.19"/>
</g>
<!-- Node10 -->
<g id="node11" class="node">
<title>Node10</title>
<g id="a_node11"><a xlink:href="c_2DataTypes_8h.html" target="_top" xlink:title="llvm&#45;c/DataTypes.h">
<polygon fill="none" stroke="black" points="85,-56.5 85,-75.5 187,-75.5 187,-56.5 85,-56.5"/>
<text text-anchor="middle" x="136" y="-63.5" font-family="Helvetica,sans-Serif" font-size="10.00">llvm&#45;c/DataTypes.h</text>
</a>
</g>
</g>
<!-- Node9&#45;&gt;Node10 -->
<g id="edge10" class="edge">
<title>Node9&#45;&gt;Node10</title>
<path fill="none" stroke="midnightblue" d="M136,-112.08C136,-105.01 136,-94.86 136,-85.99"/>
<polygon fill="midnightblue" stroke="midnightblue" points="139.5,-85.75 136,-75.75 132.5,-85.75 139.5,-85.75"/>
</g>
<!-- Node11 -->
<g id="node12" class="node">
<title>Node11</title>
<polygon fill="none" stroke="#bfbfbf" points="5.5,-0.5 5.5,-19.5 52.5,-19.5 52.5,-0.5 5.5,-0.5"/>
<text text-anchor="middle" x="29" y="-7.5" font-family="Helvetica,sans-Serif" font-size="10.00">math.h</text>
</g>
<!-- Node10&#45;&gt;Node11 -->
<g id="edge11" class="edge">
<title>Node10&#45;&gt;Node11</title>
<path fill="none" stroke="midnightblue" d="M118.81,-56.32C101.65,-47.66 75.05,-34.24 55.25,-24.25"/>
<polygon fill="midnightblue" stroke="midnightblue" points="56.65,-21.04 46.15,-19.65 53.5,-27.28 56.65,-21.04"/>
</g>
<!-- Node12 -->
<g id="node13" class="node">
<title>Node12</title>
<polygon fill="none" stroke="#bfbfbf" points="70.5,-0.5 70.5,-19.5 129.5,-19.5 129.5,-0.5 70.5,-0.5"/>
<text text-anchor="middle" x="100" y="-7.5" font-family="Helvetica,sans-Serif" font-size="10.00">inttypes.h</text>
</g>
<!-- Node10&#45;&gt;Node12 -->
<g id="edge12" class="edge">
<title>Node10&#45;&gt;Node12</title>
<path fill="none" stroke="midnightblue" d="M130.06,-56.08C125.02,-48.53 117.66,-37.49 111.49,-28.23"/>
<polygon fill="midnightblue" stroke="midnightblue" points="114.29,-26.13 105.83,-19.75 108.47,-30.01 114.29,-26.13"/>
</g>
<!-- Node13 -->
<g id="node14" class="node">
<title>Node13</title>
<polygon fill="none" stroke="#bfbfbf" points="147.5,-0.5 147.5,-19.5 196.5,-19.5 196.5,-0.5 147.5,-0.5"/>
<text text-anchor="middle" x="172" y="-7.5" font-family="Helvetica,sans-Serif" font-size="10.00">stdint.h</text>
</g>
<!-- Node10&#45;&gt;Node13 -->
<g id="edge13" class="edge">
<title>Node10&#45;&gt;Node13</title>
<path fill="none" stroke="midnightblue" d="M141.94,-56.08C146.98,-48.53 154.34,-37.49 160.51,-28.23"/>
<polygon fill="midnightblue" stroke="midnightblue" points="163.53,-30.01 166.17,-19.75 157.71,-26.13 163.53,-30.01"/>
</g>
<!-- Node14 -->
<g id="node15" class="node">
<title>Node14</title>
<polygon fill="none" stroke="#bfbfbf" points="215,-0.5 215,-19.5 283,-19.5 283,-0.5 215,-0.5"/>
<text text-anchor="middle" x="249" y="-7.5" font-family="Helvetica,sans-Serif" font-size="10.00">sys/types.h</text>
</g>
<!-- Node10&#45;&gt;Node14 -->
<g id="edge14" class="edge">
<title>Node10&#45;&gt;Node14</title>
<path fill="none" stroke="midnightblue" d="M153.91,-56.44C172.25,-47.68 201.01,-33.94 222.09,-23.86"/>
<polygon fill="midnightblue" stroke="midnightblue" points="223.67,-26.99 231.18,-19.52 220.65,-20.67 223.67,-26.99"/>
</g>
<!-- Node17&#45;&gt;Node5 -->
<g id="edge18" class="edge">
<title>Node17&#45;&gt;Node5</title>
<path fill="none" stroke="midnightblue" d="M488.18,-173.98C503.07,-164.34 527.54,-148.52 545.27,-137.05"/>
<polygon fill="midnightblue" stroke="midnightblue" points="547.35,-139.88 553.84,-131.51 543.55,-134 547.35,-139.88"/>
</g>
<!-- Node17&#45;&gt;Node16 -->
<g id="edge19" class="edge">
<title>Node17&#45;&gt;Node16</title>
<path fill="none" stroke="midnightblue" d="M443.48,-173.98C404.65,-163.47 338.6,-145.61 295.9,-134.06"/>
<polygon fill="midnightblue" stroke="midnightblue" points="296.67,-130.65 286.11,-131.41 294.85,-137.4 296.67,-130.65"/>
</g>
<!-- Node17&#45;&gt;Node18 -->
<g id="edge20" class="edge">
<title>Node17&#45;&gt;Node18</title>
<path fill="none" stroke="midnightblue" d="M503.37,-173.98C540.41,-162.84 604.99,-143.44 642.88,-132.05"/>
<polygon fill="midnightblue" stroke="midnightblue" points="644.24,-135.3 652.81,-129.07 642.23,-128.59 644.24,-135.3"/>
</g>
<!-- Node22&#45;&gt;Node16 -->
<g id="edge34" class="edge">
<title>Node22&#45;&gt;Node16</title>
<path fill="none" stroke="midnightblue" d="M253.9,-414.46C234.56,-407.92 212.57,-396.72 201,-378 152.34,-299.27 215.9,-183.57 243.43,-140.23"/>
<polygon fill="midnightblue" stroke="midnightblue" points="246.47,-141.98 248.99,-131.69 240.6,-138.16 246.47,-141.98"/>
</g>
<!-- Node22&#45;&gt;Node19 -->
<g id="edge31" class="edge">
<title>Node22&#45;&gt;Node19</title>
<path fill="none" stroke="midnightblue" d="M249.78,-414.48C224.35,-407.72 192.09,-396.29 168,-378 102.95,-328.62 55.56,-240.31 37.28,-202.49"/>
<polygon fill="midnightblue" stroke="midnightblue" points="40.35,-200.78 32.91,-193.24 34.02,-203.78 40.35,-200.78"/>
</g>
<!-- Node22&#45;&gt;Node23 -->
<g id="edge26" class="edge">
<title>Node22&#45;&gt;Node23</title>
<path fill="none" stroke="midnightblue" d="M307.39,-414.32C323.67,-405.7 348.87,-392.36 367.72,-382.39"/>
<polygon fill="midnightblue" stroke="midnightblue" points="369.45,-385.43 376.65,-377.65 366.18,-379.24 369.45,-385.43"/>
</g>
<!-- Node22&#45;&gt;Node26 -->
<g id="edge32" class="edge">
<title>Node22&#45;&gt;Node26</title>
<path fill="none" stroke="midnightblue" d="M259.31,-414.44C222.86,-404.6 163.23,-388.5 125.6,-378.34"/>
<polygon fill="midnightblue" stroke="midnightblue" points="126.17,-374.87 115.61,-375.64 124.35,-381.63 126.17,-374.87"/>
</g>
<!-- Node22&#45;&gt;Node27 -->
<g id="edge33" class="edge">
<title>Node22&#45;&gt;Node27</title>
<path fill="none" stroke="midnightblue" d="M322.52,-414.47C353.96,-405.96 403.89,-392.43 456.38,-378.17"/>
<polygon fill="midnightblue" stroke="midnightblue" points="457.48,-381.49 466.21,-375.49 455.64,-374.74 457.48,-381.49"/>
</g>
<!-- Node23&#45;&gt;Node3 -->
<g id="edge27" class="edge">
<title>Node23&#45;&gt;Node3</title>
<path fill="none" stroke="midnightblue" d="M387.27,-358.48C382.26,-351.02 374.75,-339.85 368.04,-329.87"/>
<polygon fill="midnightblue" stroke="midnightblue" points="370.91,-327.87 362.43,-321.52 365.1,-331.77 370.91,-327.87"/>
</g>
<!-- Node23&#45;&gt;Node24 -->
<g id="edge28" class="edge">
<title>Node23&#45;&gt;Node24</title>
<path fill="none" stroke="midnightblue" d="M406.47,-358.48C419.44,-350.27 439.51,-337.56 456.38,-326.88"/>
<polygon fill="midnightblue" stroke="midnightblue" points="458.27,-329.83 464.85,-321.52 454.52,-323.91 458.27,-329.83"/>
</g>
<!-- Node24&#45;&gt;Node16 -->
<g id="edge30" class="edge">
<title>Node24&#45;&gt;Node16</title>
<path fill="none" stroke="midnightblue" d="M435.75,-294.45C376.24,-281.4 285.45,-260.74 280,-255 250.79,-224.22 250.47,-170.52 252.73,-142.03"/>
<polygon fill="midnightblue" stroke="midnightblue" points="256.24,-142.1 253.74,-131.81 249.27,-141.41 256.24,-142.1"/>
</g>
<!-- Node25 -->
<g id="node26" class="node">
<title>Node25</title>
<polygon fill="none" stroke="#bfbfbf" points="435,-235.5 435,-254.5 565,-254.5 565,-235.5 435,-235.5"/>
<text text-anchor="middle" x="500" y="-242.5" font-family="Helvetica,sans-Serif" font-size="10.00">llvm/Config/abi&#45;breaking.h</text>
</g>
<!-- Node24&#45;&gt;Node25 -->
<g id="edge29" class="edge">
<title>Node24&#45;&gt;Node25</title>
<path fill="none" stroke="midnightblue" d="M490.08,-291.4C491.83,-283.38 494.05,-273.23 495.94,-264.57"/>
<polygon fill="midnightblue" stroke="midnightblue" points="499.39,-265.17 498.11,-254.66 492.55,-263.68 499.39,-265.17"/>
</g>
</g>
</svg>
