<?xml version="1.0" encoding="UTF-8" standalone="no"?>
<!DOCTYPE svg PUBLIC "-//W3C//DTD SVG 1.1//EN"
 "http://www.w3.org/Graphics/SVG/1.1/DTD/svg11.dtd">
<!-- Generated by graphviz version 2.43.0 (0)
 -->
<!-- Title: include/llvm/DebugInfo/PDB/Native/InfoStreamBuilder.h Pages: 1 -->
<svg width="286pt" height="106pt"
 viewBox="0.00 0.00 286.00 106.00" xmlns="http://www.w3.org/2000/svg" xmlns:xlink="http://www.w3.org/1999/xlink">
<g id="graph0" class="graph" transform="scale(1 1) rotate(0) translate(4 102)">
<title>include/llvm/DebugInfo/PDB/Native/InfoStreamBuilder.h</title>
<!-- Node106 -->
<g id="node1" class="node">
<title>Node106</title>
<polygon fill="#bfbfbf" stroke="black" points="58.5,-67.5 58.5,-97.5 219.5,-97.5 219.5,-67.5 58.5,-67.5"/>
<text text-anchor="start" x="66.5" y="-85.5" font-family="Helvetica,sans-Serif" font-size="10.00">include/llvm/DebugInfo</text>
<text text-anchor="middle" x="139" y="-74.5" font-family="Helvetica,sans-Serif" font-size="10.00">/PDB/Native/InfoStreamBuilder.h</text>
</g>
<!-- Node107 -->
<g id="node2" class="node">
<title>Node107</title>
<g id="a_node2"><a xlink:href="InfoStreamBuilder_8cpp.html" target="_top" xlink:title="lib/DebugInfo/PDB/Native\l/InfoStreamBuilder.cpp">
<polygon fill="none" stroke="black" points="0,-0.5 0,-30.5 130,-30.5 130,-0.5 0,-0.5"/>
<text text-anchor="start" x="8" y="-18.5" font-family="Helvetica,sans-Serif" font-size="10.00">lib/DebugInfo/PDB/Native</text>
<text text-anchor="middle" x="65" y="-7.5" font-family="Helvetica,sans-Serif" font-size="10.00">/InfoStreamBuilder.cpp</text>
</a>
</g>
</g>
<!-- Node106&#45;&gt;Node107 -->
<g id="edge1" class="edge">
<title>Node106&#45;&gt;Node107</title>
<path fill="none" stroke="midnightblue" d="M115.2,-60.6C104.03,-50.78 91.01,-39.34 81.03,-30.58"/>
<polygon fill="midnightblue" stroke="midnightblue" points="113.12,-63.43 122.94,-67.4 117.74,-58.17 113.12,-63.43"/>
</g>
<!-- Node108 -->
<g id="node3" class="node">
<title>Node108</title>
<g id="a_node3"><a xlink:href="PDBFileBuilder_8cpp.html" target="_top" xlink:title="lib/DebugInfo/PDB/Native\l/PDBFileBuilder.cpp">
<polygon fill="none" stroke="black" points="148,-0.5 148,-30.5 278,-30.5 278,-0.5 148,-0.5"/>
<text text-anchor="start" x="156" y="-18.5" font-family="Helvetica,sans-Serif" font-size="10.00">lib/DebugInfo/PDB/Native</text>
<text text-anchor="middle" x="213" y="-7.5" font-family="Helvetica,sans-Serif" font-size="10.00">/PDBFileBuilder.cpp</text>
</a>
</g>
</g>
<!-- Node106&#45;&gt;Node108 -->
<g id="edge2" class="edge">
<title>Node106&#45;&gt;Node108</title>
<path fill="none" stroke="midnightblue" d="M162.8,-60.6C173.97,-50.78 186.99,-39.34 196.97,-30.58"/>
<polygon fill="midnightblue" stroke="midnightblue" points="160.26,-58.17 155.06,-67.4 164.88,-63.43 160.26,-58.17"/>
</g>
</g>
</svg>
