<?xml version="1.0" encoding="UTF-8" standalone="no"?>
<!DOCTYPE svg PUBLIC "-//W3C//DTD SVG 1.1//EN"
 "http://www.w3.org/Graphics/SVG/1.1/DTD/svg11.dtd">
<!-- Generated by graphviz version 2.43.0 (0)
 -->
<!-- Title: Graphical Class Hierarchy Pages: 1 -->
<svg width="844pt" height="249pt"
 viewBox="0.00 0.00 844.00 249.00" xmlns="http://www.w3.org/2000/svg" xmlns:xlink="http://www.w3.org/1999/xlink">
<g id="graph0" class="graph" transform="scale(1 1) rotate(0) translate(4 245)">
<title>Graphical Class Hierarchy</title>
<!-- Node0 -->
<g id="node1" class="node">
<title>Node0</title>
<g id="a_node1"><a xlink:href="classllvm_1_1object_1_1Binary.html" target="_top" xlink:title="llvm::object::Binary">
<polygon fill="none" stroke="black" points="0,-114.5 0,-133.5 101,-133.5 101,-114.5 0,-114.5"/>
<text text-anchor="middle" x="50.5" y="-121.5" font-family="Helvetica,sans-Serif" font-size="10.00">llvm::object::Binary</text>
</a>
</g>
</g>
<!-- Node1 -->
<g id="node2" class="node">
<title>Node1</title>
<g id="a_node2"><a xlink:href="classllvm_1_1object_1_1Archive.html" target="_top" xlink:title="llvm::object::Archive">
<polygon fill="none" stroke="black" points="161.5,-221.5 161.5,-240.5 267.5,-240.5 267.5,-221.5 161.5,-221.5"/>
<text text-anchor="middle" x="214.5" y="-228.5" font-family="Helvetica,sans-Serif" font-size="10.00">llvm::object::Archive</text>
</a>
</g>
</g>
<!-- Node0&#45;&gt;Node1 -->
<g id="edge1" class="edge">
<title>Node0&#45;&gt;Node1</title>
<path fill="none" stroke="midnightblue" d="M64.03,-141.95C79.05,-162.09 106.09,-194.24 137,-212 144.47,-216.3 152.9,-219.63 161.36,-222.21"/>
<polygon fill="midnightblue" stroke="midnightblue" points="66.71,-139.68 58.01,-133.64 61.05,-143.79 66.71,-139.68"/>
</g>
<!-- Node2 -->
<g id="node3" class="node">
<title>Node2</title>
<g id="a_node3"><a xlink:href="classllvm_1_1object_1_1MachOUniversalBinary.html" target="_top" xlink:title="llvm::object::MachOUniversal\lBinary">
<polygon fill="none" stroke="black" points="141.5,-172 141.5,-202 287.5,-202 287.5,-172 141.5,-172"/>
<text text-anchor="start" x="149.5" y="-190" font-family="Helvetica,sans-Serif" font-size="10.00">llvm::object::MachOUniversal</text>
<text text-anchor="middle" x="214.5" y="-179" font-family="Helvetica,sans-Serif" font-size="10.00">Binary</text>
</a>
</g>
</g>
<!-- Node0&#45;&gt;Node2 -->
<g id="edge2" class="edge">
<title>Node0&#45;&gt;Node2</title>
<path fill="none" stroke="midnightblue" d="M80.71,-137.87C97.09,-145.43 117.99,-154.69 137,-162 145.87,-165.41 155.42,-168.77 164.67,-171.87"/>
<polygon fill="midnightblue" stroke="midnightblue" points="82.18,-134.7 71.64,-133.65 79.23,-141.04 82.18,-134.7"/>
</g>
<!-- Node3 -->
<g id="node4" class="node">
<title>Node3</title>
<g id="a_node4"><a xlink:href="classllvm_1_1object_1_1MinidumpFile.html" target="_top" xlink:title="A class providing access to the contents of a minidump file. ">
<polygon fill="none" stroke="black" points="149,-133.5 149,-152.5 280,-152.5 280,-133.5 149,-133.5"/>
<text text-anchor="middle" x="214.5" y="-140.5" font-family="Helvetica,sans-Serif" font-size="10.00">llvm::object::MinidumpFile</text>
</a>
</g>
</g>
<!-- Node0&#45;&gt;Node3 -->
<g id="edge3" class="edge">
<title>Node0&#45;&gt;Node3</title>
<path fill="none" stroke="midnightblue" d="M111.46,-131.03C123.63,-132.46 136.48,-133.97 148.81,-135.41"/>
<polygon fill="midnightblue" stroke="midnightblue" points="111.77,-127.54 101.43,-129.86 110.95,-134.5 111.77,-127.54"/>
</g>
<!-- Node4 -->
<g id="node5" class="node">
<title>Node4</title>
<g id="a_node5"><a xlink:href="classllvm_1_1object_1_1SymbolicFile.html" target="_top" xlink:title="llvm::object::SymbolicFile">
<polygon fill="none" stroke="black" points="150,-95.5 150,-114.5 279,-114.5 279,-95.5 150,-95.5"/>
<text text-anchor="middle" x="214.5" y="-102.5" font-family="Helvetica,sans-Serif" font-size="10.00">llvm::object::SymbolicFile</text>
</a>
</g>
</g>
<!-- Node0&#45;&gt;Node4 -->
<g id="edge4" class="edge">
<title>Node0&#45;&gt;Node4</title>
<path fill="none" stroke="midnightblue" d="M111.72,-116.94C124.2,-115.47 137.39,-113.93 149.98,-112.45"/>
<polygon fill="midnightblue" stroke="midnightblue" points="110.95,-113.5 101.43,-118.14 111.77,-120.46 110.95,-113.5"/>
</g>
<!-- Node15 -->
<g id="node16" class="node">
<title>Node15</title>
<g id="a_node16"><a xlink:href="classllvm_1_1object_1_1TapiUniversal.html" target="_top" xlink:title="llvm::object::TapiUniversal">
<polygon fill="none" stroke="black" points="148,-57.5 148,-76.5 281,-76.5 281,-57.5 148,-57.5"/>
<text text-anchor="middle" x="214.5" y="-64.5" font-family="Helvetica,sans-Serif" font-size="10.00">llvm::object::TapiUniversal</text>
</a>
</g>
</g>
<!-- Node0&#45;&gt;Node15 -->
<g id="edge15" class="edge">
<title>Node0&#45;&gt;Node15</title>
<path fill="none" stroke="midnightblue" d="M79.54,-110.05C95.99,-102.24 117.35,-92.75 137,-86 147.35,-82.44 158.71,-79.25 169.42,-76.55"/>
<polygon fill="midnightblue" stroke="midnightblue" points="77.96,-106.92 70.47,-114.42 81,-113.23 77.96,-106.92"/>
</g>
<!-- Node16 -->
<g id="node17" class="node">
<title>Node16</title>
<g id="a_node17"><a xlink:href="classllvm_1_1object_1_1WindowsResource.html" target="_top" xlink:title="llvm::object::WindowsResource">
<polygon fill="none" stroke="black" points="137,-19.5 137,-38.5 292,-38.5 292,-19.5 137,-19.5"/>
<text text-anchor="middle" x="214.5" y="-26.5" font-family="Helvetica,sans-Serif" font-size="10.00">llvm::object::WindowsResource</text>
</a>
</g>
</g>
<!-- Node0&#45;&gt;Node16 -->
<g id="edge16" class="edge">
<title>Node0&#45;&gt;Node16</title>
<path fill="none" stroke="midnightblue" d="M66.23,-106.71C82,-89.31 108.61,-62.96 137,-48 144.38,-44.11 152.59,-40.99 160.81,-38.5"/>
<polygon fill="midnightblue" stroke="midnightblue" points="63.4,-104.63 59.4,-114.45 68.64,-109.27 63.4,-104.63"/>
</g>
<!-- Node5 -->
<g id="node6" class="node">
<title>Node5</title>
<g id="a_node6"><a xlink:href="classllvm_1_1object_1_1COFFImportFile.html" target="_top" xlink:title="llvm::object::COFFImportFile">
<polygon fill="none" stroke="black" points="328,-152.5 328,-171.5 471,-171.5 471,-152.5 328,-152.5"/>
<text text-anchor="middle" x="399.5" y="-159.5" font-family="Helvetica,sans-Serif" font-size="10.00">llvm::object::COFFImportFile</text>
</a>
</g>
</g>
<!-- Node4&#45;&gt;Node5 -->
<g id="edge5" class="edge">
<title>Node4&#45;&gt;Node5</title>
<path fill="none" stroke="midnightblue" d="M271.81,-117.32C278.69,-119.31 285.56,-121.54 292,-124 308.9,-130.45 311.16,-136.38 328,-143 337.2,-146.62 347.34,-149.79 356.99,-152.46"/>
<polygon fill="midnightblue" stroke="midnightblue" points="272.34,-113.84 261.77,-114.58 270.49,-120.59 272.34,-113.84"/>
</g>
<!-- Node6 -->
<g id="node7" class="node">
<title>Node6</title>
<g id="a_node7"><a xlink:href="classllvm_1_1object_1_1IRObjectFile.html" target="_top" xlink:title="llvm::object::IRObjectFile">
<polygon fill="none" stroke="black" points="335.5,-114.5 335.5,-133.5 463.5,-133.5 463.5,-114.5 335.5,-114.5"/>
<text text-anchor="middle" x="399.5" y="-121.5" font-family="Helvetica,sans-Serif" font-size="10.00">llvm::object::IRObjectFile</text>
</a>
</g>
</g>
<!-- Node4&#45;&gt;Node6 -->
<g id="edge6" class="edge">
<title>Node4&#45;&gt;Node6</title>
<path fill="none" stroke="midnightblue" d="M289.61,-112.69C304.76,-114.27 320.56,-115.91 335.29,-117.44"/>
<polygon fill="midnightblue" stroke="midnightblue" points="289.56,-109.17 279.25,-111.62 288.83,-116.13 289.56,-109.17"/>
</g>
<!-- Node7 -->
<g id="node8" class="node">
<title>Node7</title>
<g id="a_node8"><a xlink:href="classllvm_1_1object_1_1ObjectFile.html" target="_top" xlink:title="This class is the base class for all object file types. ">
<polygon fill="none" stroke="black" points="341,-76.5 341,-95.5 458,-95.5 458,-76.5 341,-76.5"/>
<text text-anchor="middle" x="399.5" y="-83.5" font-family="Helvetica,sans-Serif" font-size="10.00">llvm::object::ObjectFile</text>
</a>
</g>
</g>
<!-- Node4&#45;&gt;Node7 -->
<g id="edge7" class="edge">
<title>Node4&#45;&gt;Node7</title>
<path fill="none" stroke="midnightblue" d="M289.24,-97.34C306.4,-95.56 324.44,-93.69 340.79,-91.99"/>
<polygon fill="midnightblue" stroke="midnightblue" points="288.83,-93.87 279.25,-98.38 289.56,-100.83 288.83,-93.87"/>
</g>
<!-- Node14 -->
<g id="node15" class="node">
<title>Node14</title>
<g id="a_node15"><a xlink:href="classllvm_1_1object_1_1TapiFile.html" target="_top" xlink:title="llvm::object::TapiFile">
<polygon fill="none" stroke="black" points="346,-38.5 346,-57.5 453,-57.5 453,-38.5 346,-38.5"/>
<text text-anchor="middle" x="399.5" y="-45.5" font-family="Helvetica,sans-Serif" font-size="10.00">llvm::object::TapiFile</text>
</a>
</g>
</g>
<!-- Node4&#45;&gt;Node14 -->
<g id="edge14" class="edge">
<title>Node4&#45;&gt;Node14</title>
<path fill="none" stroke="midnightblue" d="M271.81,-92.68C278.69,-90.69 285.56,-88.46 292,-86 308.9,-79.55 311.16,-73.62 328,-67 337.2,-63.38 347.34,-60.21 356.99,-57.54"/>
<polygon fill="midnightblue" stroke="midnightblue" points="270.49,-89.41 261.77,-95.42 272.34,-96.16 270.49,-89.41"/>
</g>
<!-- Node8 -->
<g id="node9" class="node">
<title>Node8</title>
<g id="a_node9"><a xlink:href="classllvm_1_1object_1_1COFFObjectFile.html" target="_top" xlink:title="llvm::object::COFFObjectFile">
<polygon fill="none" stroke="black" points="514,-152.5 514,-171.5 658,-171.5 658,-152.5 514,-152.5"/>
<text text-anchor="middle" x="586" y="-159.5" font-family="Helvetica,sans-Serif" font-size="10.00">llvm::object::COFFObjectFile</text>
</a>
</g>
</g>
<!-- Node7&#45;&gt;Node8 -->
<g id="edge8" class="edge">
<title>Node7&#45;&gt;Node8</title>
<path fill="none" stroke="midnightblue" d="M459.34,-99.14C463.39,-100.86 467.33,-102.81 471,-105 490.98,-116.92 486.88,-131.33 507,-143 513.63,-146.85 521.01,-149.92 528.52,-152.37"/>
<polygon fill="midnightblue" stroke="midnightblue" points="460.3,-95.76 449.71,-95.51 457.83,-102.31 460.3,-95.76"/>
</g>
<!-- Node9 -->
<g id="node10" class="node">
<title>Node9</title>
<g id="a_node10"><a xlink:href="classllvm_1_1object_1_1ELFObjectFileBase.html" target="_top" xlink:title="llvm::object::ELFObjectFileBase">
<polygon fill="none" stroke="black" points="507,-114.5 507,-133.5 665,-133.5 665,-114.5 507,-114.5"/>
<text text-anchor="middle" x="586" y="-121.5" font-family="Helvetica,sans-Serif" font-size="10.00">llvm::object::ELFObjectFileBase</text>
</a>
</g>
</g>
<!-- Node7&#45;&gt;Node9 -->
<g id="edge9" class="edge">
<title>Node7&#45;&gt;Node9</title>
<path fill="none" stroke="midnightblue" d="M456.87,-97.61C483.11,-103.01 513.94,-109.36 538.78,-114.48"/>
<polygon fill="midnightblue" stroke="midnightblue" points="457.56,-94.18 447.06,-95.59 456.15,-101.03 457.56,-94.18"/>
</g>
<!-- Node11 -->
<g id="node12" class="node">
<title>Node11</title>
<g id="a_node12"><a xlink:href="classllvm_1_1object_1_1MachOObjectFile.html" target="_top" xlink:title="llvm::object::MachOObjectFile">
<polygon fill="none" stroke="black" points="511.5,-76.5 511.5,-95.5 660.5,-95.5 660.5,-76.5 511.5,-76.5"/>
<text text-anchor="middle" x="586" y="-83.5" font-family="Helvetica,sans-Serif" font-size="10.00">llvm::object::MachOObjectFile</text>
</a>
</g>
</g>
<!-- Node7&#45;&gt;Node11 -->
<g id="edge11" class="edge">
<title>Node7&#45;&gt;Node11</title>
<path fill="none" stroke="midnightblue" d="M468.15,-86C482.16,-86 496.99,-86 511.2,-86"/>
<polygon fill="midnightblue" stroke="midnightblue" points="468.12,-82.5 458.12,-86 468.12,-89.5 468.12,-82.5"/>
</g>
<!-- Node12 -->
<g id="node13" class="node">
<title>Node12</title>
<g id="a_node13"><a xlink:href="classllvm_1_1object_1_1WasmObjectFile.html" target="_top" xlink:title="llvm::object::WasmObjectFile">
<polygon fill="none" stroke="black" points="513,-38.5 513,-57.5 659,-57.5 659,-38.5 513,-38.5"/>
<text text-anchor="middle" x="586" y="-45.5" font-family="Helvetica,sans-Serif" font-size="10.00">llvm::object::WasmObjectFile</text>
</a>
</g>
</g>
<!-- Node7&#45;&gt;Node12 -->
<g id="edge12" class="edge">
<title>Node7&#45;&gt;Node12</title>
<path fill="none" stroke="midnightblue" d="M456.87,-74.39C483.11,-68.99 513.94,-62.64 538.78,-57.52"/>
<polygon fill="midnightblue" stroke="midnightblue" points="456.15,-70.97 447.06,-76.41 457.56,-77.82 456.15,-70.97"/>
</g>
<!-- Node13 -->
<g id="node14" class="node">
<title>Node13</title>
<g id="a_node14"><a xlink:href="classllvm_1_1object_1_1XCOFFObjectFile.html" target="_top" xlink:title="llvm::object::XCOFFObjectFile">
<polygon fill="none" stroke="black" points="510.5,-0.5 510.5,-19.5 661.5,-19.5 661.5,-0.5 510.5,-0.5"/>
<text text-anchor="middle" x="586" y="-7.5" font-family="Helvetica,sans-Serif" font-size="10.00">llvm::object::XCOFFObjectFile</text>
</a>
</g>
</g>
<!-- Node7&#45;&gt;Node13 -->
<g id="edge13" class="edge">
<title>Node7&#45;&gt;Node13</title>
<path fill="none" stroke="midnightblue" d="M459.34,-72.86C463.39,-71.14 467.33,-69.19 471,-67 490.98,-55.08 486.88,-40.67 507,-29 513.63,-25.15 521.01,-22.08 528.52,-19.63"/>
<polygon fill="midnightblue" stroke="midnightblue" points="457.83,-69.69 449.71,-76.49 460.3,-76.24 457.83,-69.69"/>
</g>
<!-- Node10 -->
<g id="node11" class="node">
<title>Node10</title>
<g id="a_node11"><a xlink:href="classllvm_1_1object_1_1ELFObjectFile.html" target="_top" xlink:title="llvm::object::ELFObjectFile\l\&lt; ELFT \&gt;">
<polygon fill="none" stroke="black" points="701,-109 701,-139 836,-139 836,-109 701,-109"/>
<text text-anchor="start" x="709" y="-127" font-family="Helvetica,sans-Serif" font-size="10.00">llvm::object::ELFObjectFile</text>
<text text-anchor="middle" x="768.5" y="-116" font-family="Helvetica,sans-Serif" font-size="10.00">&lt; ELFT &gt;</text>
</a>
</g>
</g>
<!-- Node9&#45;&gt;Node10 -->
<g id="edge10" class="edge">
<title>Node9&#45;&gt;Node10</title>
<path fill="none" stroke="midnightblue" d="M675.22,-124C683.85,-124 692.5,-124 700.86,-124"/>
<polygon fill="midnightblue" stroke="midnightblue" points="675.12,-120.5 665.12,-124 675.12,-127.5 675.12,-120.5"/>
</g>
</g>
</svg>
