<?xml version="1.0" encoding="UTF-8" standalone="no"?>
<!DOCTYPE svg PUBLIC "-//W3C//DTD SVG 1.1//EN"
 "http://www.w3.org/Graphics/SVG/1.1/DTD/svg11.dtd">
<!-- Generated by graphviz version 2.43.0 (0)
 -->
<!-- Title: Graphical Class Hierarchy Pages: 1 -->
<svg width="319pt" height="78pt"
 viewBox="0.00 0.00 319.00 77.50" xmlns="http://www.w3.org/2000/svg" xmlns:xlink="http://www.w3.org/1999/xlink">
<g id="graph0" class="graph" transform="scale(1 1) rotate(0) translate(4 73.5)">
<title>Graphical Class Hierarchy</title>
<!-- Node0 -->
<g id="node1" class="node">
<title>Node0</title>
<g id="a_node1"><a xlink:href="classllvm_1_1orc_1_1OrcX86__64__Base.html" target="_top" xlink:title="X86_64 code that&#39;s common to all ABIs. ">
<polygon fill="none" stroke="black" points="0,-28 0,-47 137,-47 137,-28 0,-28"/>
<text text-anchor="middle" x="68.5" y="-35" font-family="Helvetica,sans-Serif" font-size="10.00">llvm::orc::OrcX86_64_Base</text>
</a>
</g>
</g>
<!-- Node1 -->
<g id="node2" class="node">
<title>Node1</title>
<g id="a_node2"><a xlink:href="classllvm_1_1orc_1_1OrcX86__64__SysV.html" target="_top" xlink:title="X86_64 support for SysV ABI (Linux, MacOSX). ">
<polygon fill="none" stroke="black" points="173,-50 173,-69 311,-69 311,-50 173,-50"/>
<text text-anchor="middle" x="242" y="-57" font-family="Helvetica,sans-Serif" font-size="10.00">llvm::orc::OrcX86_64_SysV</text>
</a>
</g>
</g>
<!-- Node0&#45;&gt;Node1 -->
<g id="edge1" class="edge">
<title>Node0&#45;&gt;Node1</title>
<path fill="none" stroke="midnightblue" d="M147.25,-47.47C155.79,-48.57 164.45,-49.68 172.87,-50.76"/>
<polygon fill="midnightblue" stroke="midnightblue" points="147.65,-44 137.28,-46.19 146.75,-50.94 147.65,-44"/>
</g>
<!-- Node2 -->
<g id="node3" class="node">
<title>Node2</title>
<g id="a_node3"><a xlink:href="classllvm_1_1orc_1_1OrcX86__64__Win32.html" target="_top" xlink:title="X86_64 support for Win32. ">
<polygon fill="none" stroke="black" points="187.5,-0.5 187.5,-30.5 296.5,-30.5 296.5,-0.5 187.5,-0.5"/>
<text text-anchor="start" x="195.5" y="-18.5" font-family="Helvetica,sans-Serif" font-size="10.00">llvm::orc::OrcX86_64</text>
<text text-anchor="middle" x="242" y="-7.5" font-family="Helvetica,sans-Serif" font-size="10.00">_Win32</text>
</a>
</g>
</g>
<!-- Node0&#45;&gt;Node2 -->
<g id="edge2" class="edge">
<title>Node0&#45;&gt;Node2</title>
<path fill="none" stroke="midnightblue" d="M147.53,-27.49C161.03,-25.76 174.79,-23.99 187.45,-22.37"/>
<polygon fill="midnightblue" stroke="midnightblue" points="146.75,-24.06 137.28,-28.81 147.65,-31 146.75,-24.06"/>
</g>
</g>
</svg>
