<?xml version="1.0" encoding="UTF-8" standalone="no"?>
<!DOCTYPE svg PUBLIC "-//W3C//DTD SVG 1.1//EN"
 "http://www.w3.org/Graphics/SVG/1.1/DTD/svg11.dtd">
<!-- Generated by graphviz version 2.43.0 (0)
 -->
<!-- Title: Graphical Class Hierarchy Pages: 1 -->
<svg width="576pt" height="154pt"
 viewBox="0.00 0.00 576.00 154.00" xmlns="http://www.w3.org/2000/svg" xmlns:xlink="http://www.w3.org/1999/xlink">
<g id="graph0" class="graph" transform="scale(1 1) rotate(0) translate(4 150)">
<title>Graphical Class Hierarchy</title>
<!-- Node6337 -->
<g id="node1" class="node">
<title>Node6337</title>
<g id="a_node1"><a xlink:href="classllvm_1_1orc_1_1LLJITBuilderSetters.html" target="_top" xlink:title="llvm::orc::LLJITBuilderSetters\l\&lt; LLJIT, LLJITBuilder, LLJITBuilder\lState \&gt;">
<polygon fill="none" stroke="black" points="0,-104.5 0,-145.5 172,-145.5 172,-104.5 0,-104.5"/>
<text text-anchor="start" x="8" y="-133.5" font-family="Helvetica,sans-Serif" font-size="10.00">llvm::orc::LLJITBuilderSetters</text>
<text text-anchor="start" x="8" y="-122.5" font-family="Helvetica,sans-Serif" font-size="10.00">&lt; LLJIT, LLJITBuilder, LLJITBuilder</text>
<text text-anchor="middle" x="86" y="-111.5" font-family="Helvetica,sans-Serif" font-size="10.00">State &gt;</text>
</a>
</g>
</g>
<!-- Node1 -->
<g id="node2" class="node">
<title>Node1</title>
<g id="a_node2"><a xlink:href="classllvm_1_1orc_1_1LLJITBuilder.html" target="_top" xlink:title="Constructs LLJIT instances. ">
<polygon fill="none" stroke="black" points="244.5,-113.5 244.5,-132.5 359.5,-132.5 359.5,-113.5 244.5,-113.5"/>
<text text-anchor="middle" x="302" y="-120.5" font-family="Helvetica,sans-Serif" font-size="10.00">llvm::orc::LLJITBuilder</text>
</a>
</g>
</g>
<!-- Node6337&#45;&gt;Node1 -->
<g id="edge1" class="edge">
<title>Node6337&#45;&gt;Node1</title>
<path fill="none" stroke="midnightblue" d="M182.21,-124.11C203.42,-123.91 225.26,-123.71 244.34,-123.53"/>
<polygon fill="midnightblue" stroke="midnightblue" points="182.16,-120.61 172.19,-124.2 182.23,-127.61 182.16,-120.61"/>
</g>
<!-- Node6335 -->
<g id="node3" class="node">
<title>Node6335</title>
<g id="a_node3"><a xlink:href="classllvm_1_1orc_1_1LLJITBuilderSetters.html" target="_top" xlink:title="llvm::orc::LLJITBuilderSetters\l\&lt; LLLazyJIT, LLLazyJITBuilder,\l LLLazyJITBuilderState \&gt;">
<polygon fill="none" stroke="black" points="8,-0.5 8,-41.5 164,-41.5 164,-0.5 8,-0.5"/>
<text text-anchor="start" x="16" y="-29.5" font-family="Helvetica,sans-Serif" font-size="10.00">llvm::orc::LLJITBuilderSetters</text>
<text text-anchor="start" x="16" y="-18.5" font-family="Helvetica,sans-Serif" font-size="10.00">&lt; LLLazyJIT, LLLazyJITBuilder,</text>
<text text-anchor="middle" x="86" y="-7.5" font-family="Helvetica,sans-Serif" font-size="10.00"> LLLazyJITBuilderState &gt;</text>
</a>
</g>
</g>
<!-- Node6336 -->
<g id="node4" class="node">
<title>Node6336</title>
<g id="a_node4"><a xlink:href="classllvm_1_1orc_1_1LLLazyJITBuilderSetters.html" target="_top" xlink:title="llvm::orc::LLLazyJITBuilder\lSetters\&lt; LLLazyJIT, LLLazyJITBuilder,\l LLLazyJITBuilderState \&gt;">
<polygon fill="none" stroke="black" points="208,-0.5 208,-41.5 396,-41.5 396,-0.5 208,-0.5"/>
<text text-anchor="start" x="216" y="-29.5" font-family="Helvetica,sans-Serif" font-size="10.00">llvm::orc::LLLazyJITBuilder</text>
<text text-anchor="start" x="216" y="-18.5" font-family="Helvetica,sans-Serif" font-size="10.00">Setters&lt; LLLazyJIT, LLLazyJITBuilder,</text>
<text text-anchor="middle" x="302" y="-7.5" font-family="Helvetica,sans-Serif" font-size="10.00"> LLLazyJITBuilderState &gt;</text>
</a>
</g>
</g>
<!-- Node6335&#45;&gt;Node6336 -->
<g id="edge2" class="edge">
<title>Node6335&#45;&gt;Node6336</title>
<path fill="none" stroke="midnightblue" d="M174.3,-21C185.34,-21 196.67,-21 207.8,-21"/>
<polygon fill="midnightblue" stroke="midnightblue" points="174.26,-17.5 164.26,-21 174.26,-24.5 174.26,-17.5"/>
</g>
<!-- Node3 -->
<g id="node5" class="node">
<title>Node3</title>
<g id="a_node5"><a xlink:href="classllvm_1_1orc_1_1LLLazyJITBuilder.html" target="_top" xlink:title="Constructs LLLazyJIT instances. ">
<polygon fill="none" stroke="black" points="432,-38.5 432,-57.5 568,-57.5 568,-38.5 432,-38.5"/>
<text text-anchor="middle" x="500" y="-45.5" font-family="Helvetica,sans-Serif" font-size="10.00">llvm::orc::LLLazyJITBuilder</text>
</a>
</g>
</g>
<!-- Node6336&#45;&gt;Node3 -->
<g id="edge3" class="edge">
<title>Node6336&#45;&gt;Node3</title>
<path fill="none" stroke="midnightblue" d="M406.3,-35.23C414.95,-36.42 423.56,-37.61 431.84,-38.75"/>
<polygon fill="midnightblue" stroke="midnightblue" points="406.51,-31.73 396.12,-33.83 405.55,-38.66 406.51,-31.73"/>
</g>
<!-- Node0 -->
<g id="node6" class="node">
<title>Node0</title>
<g id="a_node6"><a xlink:href="classllvm_1_1orc_1_1LLJITBuilderState.html" target="_top" xlink:title="llvm::orc::LLJITBuilderState">
<polygon fill="none" stroke="black" points="17,-66.5 17,-85.5 155,-85.5 155,-66.5 17,-66.5"/>
<text text-anchor="middle" x="86" y="-73.5" font-family="Helvetica,sans-Serif" font-size="10.00">llvm::orc::LLJITBuilderState</text>
</a>
</g>
</g>
<!-- Node0&#45;&gt;Node1 -->
<g id="edge4" class="edge">
<title>Node0&#45;&gt;Node1</title>
<path fill="none" stroke="midnightblue" d="M140.18,-87.68C176.3,-95.61 223.49,-105.98 257.39,-113.42"/>
<polygon fill="midnightblue" stroke="midnightblue" points="140.82,-84.24 130.31,-85.51 139.32,-91.07 140.82,-84.24"/>
</g>
<!-- Node2 -->
<g id="node7" class="node">
<title>Node2</title>
<g id="a_node7"><a xlink:href="classllvm_1_1orc_1_1LLLazyJITBuilderState.html" target="_top" xlink:title="llvm::orc::LLLazyJITBuilder\lState">
<polygon fill="none" stroke="black" points="234,-61 234,-91 370,-91 370,-61 234,-61"/>
<text text-anchor="start" x="242" y="-79" font-family="Helvetica,sans-Serif" font-size="10.00">llvm::orc::LLLazyJITBuilder</text>
<text text-anchor="middle" x="302" y="-68" font-family="Helvetica,sans-Serif" font-size="10.00">State</text>
</a>
</g>
</g>
<!-- Node0&#45;&gt;Node2 -->
<g id="edge5" class="edge">
<title>Node0&#45;&gt;Node2</title>
<path fill="none" stroke="midnightblue" d="M165.21,-76C187.74,-76 212.11,-76 233.9,-76"/>
<polygon fill="midnightblue" stroke="midnightblue" points="165.01,-72.5 155,-76 165,-79.5 165.01,-72.5"/>
</g>
<!-- Node2&#45;&gt;Node3 -->
<g id="edge6" class="edge">
<title>Node2&#45;&gt;Node3</title>
<path fill="none" stroke="midnightblue" d="M380.19,-64.97C397.39,-62.52 415.5,-59.93 432.24,-57.54"/>
<polygon fill="midnightblue" stroke="midnightblue" points="379.58,-61.52 370.18,-66.4 380.57,-68.45 379.58,-61.52"/>
</g>
</g>
</svg>
