<?xml version="1.0" encoding="UTF-8" standalone="no"?>
<!DOCTYPE svg PUBLIC "-//W3C//DTD SVG 1.1//EN"
 "http://www.w3.org/Graphics/SVG/1.1/DTD/svg11.dtd">
<!-- Generated by graphviz version 2.43.0 (0)
 -->
<!-- Title: Graphical Class Hierarchy Pages: 1 -->
<svg width="381pt" height="66pt"
 viewBox="0.00 0.00 381.00 66.00" xmlns="http://www.w3.org/2000/svg" xmlns:xlink="http://www.w3.org/1999/xlink">
<g id="graph0" class="graph" transform="scale(1 1) rotate(0) translate(4 62)">
<title>Graphical Class Hierarchy</title>
<!-- Node0 -->
<g id="node1" class="node">
<title>Node0</title>
<g id="a_node1"><a xlink:href="classMipsGenInstrInfo.html" target="_top" xlink:title="MipsGenInstrInfo">
<polygon fill="none" stroke="black" points="0,-19.5 0,-38.5 92,-38.5 92,-19.5 0,-19.5"/>
<text text-anchor="middle" x="46" y="-26.5" font-family="Helvetica,sans-Serif" font-size="10.00">MipsGenInstrInfo</text>
</a>
</g>
</g>
<!-- Node1 -->
<g id="node2" class="node">
<title>Node1</title>
<g id="a_node2"><a xlink:href="classllvm_1_1MipsInstrInfo.html" target="_top" xlink:title="llvm::MipsInstrInfo">
<polygon fill="none" stroke="black" points="128,-19.5 128,-38.5 226,-38.5 226,-19.5 128,-19.5"/>
<text text-anchor="middle" x="177" y="-26.5" font-family="Helvetica,sans-Serif" font-size="10.00">llvm::MipsInstrInfo</text>
</a>
</g>
</g>
<!-- Node0&#45;&gt;Node1 -->
<g id="edge1" class="edge">
<title>Node0&#45;&gt;Node1</title>
<path fill="none" stroke="midnightblue" d="M102.26,-29C110.69,-29 119.34,-29 127.62,-29"/>
<polygon fill="midnightblue" stroke="midnightblue" points="102.12,-25.5 92.12,-29 102.12,-32.5 102.12,-25.5"/>
</g>
<!-- Node2 -->
<g id="node3" class="node">
<title>Node2</title>
<g id="a_node3"><a xlink:href="classllvm_1_1Mips16InstrInfo.html" target="_top" xlink:title="llvm::Mips16InstrInfo">
<polygon fill="none" stroke="black" points="263.5,-38.5 263.5,-57.5 371.5,-57.5 371.5,-38.5 263.5,-38.5"/>
<text text-anchor="middle" x="317.5" y="-45.5" font-family="Helvetica,sans-Serif" font-size="10.00">llvm::Mips16InstrInfo</text>
</a>
</g>
</g>
<!-- Node1&#45;&gt;Node2 -->
<g id="edge2" class="edge">
<title>Node1&#45;&gt;Node2</title>
<path fill="none" stroke="midnightblue" d="M236.1,-36.97C245.13,-38.21 254.41,-39.48 263.33,-40.71"/>
<polygon fill="midnightblue" stroke="midnightblue" points="236.43,-33.48 226.05,-35.59 235.48,-40.42 236.43,-33.48"/>
</g>
<!-- Node3 -->
<g id="node4" class="node">
<title>Node3</title>
<g id="a_node4"><a xlink:href="classllvm_1_1MipsSEInstrInfo.html" target="_top" xlink:title="llvm::MipsSEInstrInfo">
<polygon fill="none" stroke="black" points="262,-0.5 262,-19.5 373,-19.5 373,-0.5 262,-0.5"/>
<text text-anchor="middle" x="317.5" y="-7.5" font-family="Helvetica,sans-Serif" font-size="10.00">llvm::MipsSEInstrInfo</text>
</a>
</g>
</g>
<!-- Node1&#45;&gt;Node3 -->
<g id="edge3" class="edge">
<title>Node1&#45;&gt;Node3</title>
<path fill="none" stroke="midnightblue" d="M235.98,-21.05C244.56,-19.87 253.38,-18.66 261.89,-17.49"/>
<polygon fill="midnightblue" stroke="midnightblue" points="235.48,-17.58 226.05,-22.41 236.43,-24.52 235.48,-17.58"/>
</g>
</g>
</svg>
