<?xml version="1.0" encoding="UTF-8" standalone="no"?>
<!DOCTYPE svg PUBLIC "-//W3C//DTD SVG 1.1//EN"
 "http://www.w3.org/Graphics/SVG/1.1/DTD/svg11.dtd">
<!-- Generated by graphviz version 2.43.0 (0)
 -->
<!-- Title: Graphical Class Hierarchy Pages: 1 -->
<svg width="245pt" height="66pt"
 viewBox="0.00 0.00 245.00 66.00" xmlns="http://www.w3.org/2000/svg" xmlns:xlink="http://www.w3.org/1999/xlink">
<g id="graph0" class="graph" transform="scale(1 1) rotate(0) translate(4 62)">
<title>Graphical Class Hierarchy</title>
<!-- Node12728 -->
<g id="node1" class="node">
<title>Node12728</title>
<g id="a_node1"><a xlink:href="classllvm_1_1IntrusiveListT.html" target="_top" xlink:title="IntrusiveListT">
<polygon fill="none" stroke="black" points="0,-38.5 0,-57.5 76,-57.5 76,-38.5 0,-38.5"/>
<text text-anchor="middle" x="38" y="-45.5" font-family="Helvetica,sans-Serif" font-size="10.00">IntrusiveListT</text>
</a>
</g>
</g>
<!-- Node1 -->
<g id="node2" class="node">
<title>Node1</title>
<g id="a_node2"><a xlink:href="classllvm_1_1iplist__impl.html" target="_top" xlink:title="A wrapper around an intrusive list with callbacks and non&#45;intrusive ownership. ">
<polygon fill="none" stroke="black" points="112,-14 112,-44 237,-44 237,-14 112,-14"/>
<text text-anchor="start" x="120" y="-32" font-family="Helvetica,sans-Serif" font-size="10.00">llvm::iplist_impl&lt;</text>
<text text-anchor="middle" x="174.5" y="-21" font-family="Helvetica,sans-Serif" font-size="10.00"> IntrusiveListT, TraitsT &gt;</text>
</a>
</g>
</g>
<!-- Node12728&#45;&gt;Node1 -->
<g id="edge1" class="edge">
<title>Node12728&#45;&gt;Node1</title>
<path fill="none" stroke="#8b1a1a" d="M86.06,-41.35C94.44,-40.17 103.27,-38.92 111.98,-37.69"/>
<polygon fill="#8b1a1a" stroke="#8b1a1a" points="85.52,-37.89 76.11,-42.76 86.5,-44.82 85.52,-37.89"/>
</g>
<!-- Node0 -->
<g id="node3" class="node">
<title>Node0</title>
<g id="a_node3"><a xlink:href="classllvm_1_1TraitsT.html" target="_top" xlink:title="TraitsT">
<polygon fill="none" stroke="black" points="14.5,-0.5 14.5,-19.5 61.5,-19.5 61.5,-0.5 14.5,-0.5"/>
<text text-anchor="middle" x="38" y="-7.5" font-family="Helvetica,sans-Serif" font-size="10.00">TraitsT</text>
</a>
</g>
</g>
<!-- Node0&#45;&gt;Node1 -->
<g id="edge2" class="edge">
<title>Node0&#45;&gt;Node1</title>
<path fill="none" stroke="midnightblue" d="M71.57,-14.6C83.68,-16.31 97.87,-18.32 111.74,-20.28"/>
<polygon fill="midnightblue" stroke="midnightblue" points="71.9,-11.11 61.51,-13.18 70.92,-18.04 71.9,-11.11"/>
</g>
</g>
</svg>
