<?xml version="1.0" encoding="UTF-8" standalone="no"?>
<!DOCTYPE svg PUBLIC "-//W3C//DTD SVG 1.1//EN"
 "http://www.w3.org/Graphics/SVG/1.1/DTD/svg11.dtd">
<!-- Generated by graphviz version 2.43.0 (0)
 -->
<!-- Title: Graphical Class Hierarchy Pages: 1 -->
<svg width="695pt" height="921pt"
 viewBox="0.00 0.00 695.00 921.00" xmlns="http://www.w3.org/2000/svg" xmlns:xlink="http://www.w3.org/1999/xlink">
<g id="graph0" class="graph" transform="scale(1 1) rotate(0) translate(4 917)">
<title>Graphical Class Hierarchy</title>
<!-- Node0 -->
<g id="node1" class="node">
<title>Node0</title>
<g id="a_node1"><a xlink:href="classllvm_1_1MCAsmInfo.html" target="_top" xlink:title="This class is intended to be used as a base class for asm properties and features specific to the tar...">
<polygon fill="none" stroke="black" points="0,-513.5 0,-532.5 93,-532.5 93,-513.5 0,-513.5"/>
<text text-anchor="middle" x="46.5" y="-520.5" font-family="Helvetica,sans-Serif" font-size="10.00">llvm::MCAsmInfo</text>
</a>
</g>
</g>
<!-- Node1 -->
<g id="node2" class="node">
<title>Node1</title>
<g id="a_node2"><a xlink:href="classllvm_1_1AVRMCAsmInfo.html" target="_top" xlink:title="Specifies the format of AVR assembly files. ">
<polygon fill="none" stroke="black" points="135.5,-760.5 135.5,-779.5 249.5,-779.5 249.5,-760.5 135.5,-760.5"/>
<text text-anchor="middle" x="192.5" y="-767.5" font-family="Helvetica,sans-Serif" font-size="10.00">llvm::AVRMCAsmInfo</text>
</a>
</g>
</g>
<!-- Node0&#45;&gt;Node1 -->
<g id="edge1" class="edge">
<title>Node0&#45;&gt;Node1</title>
<path fill="none" stroke="midnightblue" d="M48.78,-542.88C52.69,-586.87 68.25,-693.11 129,-751 133.11,-754.91 137.99,-758.02 143.2,-760.49"/>
<polygon fill="midnightblue" stroke="midnightblue" points="52.27,-542.58 48,-532.88 45.29,-543.12 52.27,-542.58"/>
</g>
<!-- Node2 -->
<g id="node3" class="node">
<title>Node2</title>
<g id="a_node3"><a xlink:href="classllvm_1_1BPFMCAsmInfo.html" target="_top" xlink:title="llvm::BPFMCAsmInfo">
<polygon fill="none" stroke="black" points="136,-722.5 136,-741.5 249,-741.5 249,-722.5 136,-722.5"/>
<text text-anchor="middle" x="192.5" y="-729.5" font-family="Helvetica,sans-Serif" font-size="10.00">llvm::BPFMCAsmInfo</text>
</a>
</g>
</g>
<!-- Node0&#45;&gt;Node2 -->
<g id="edge2" class="edge">
<title>Node0&#45;&gt;Node2</title>
<path fill="none" stroke="midnightblue" d="M50.32,-542.4C56.91,-580.71 76.92,-666.36 129,-713 133.31,-716.86 138.38,-719.93 143.74,-722.38"/>
<polygon fill="midnightblue" stroke="midnightblue" points="53.77,-541.85 48.74,-532.53 46.86,-542.95 53.77,-541.85"/>
</g>
<!-- Node3 -->
<g id="node4" class="node">
<title>Node3</title>
<g id="a_node4"><a xlink:href="classllvm_1_1MCAsmInfoCOFF.html" target="_top" xlink:title="llvm::MCAsmInfoCOFF">
<polygon fill="none" stroke="black" points="132.5,-684.5 132.5,-703.5 252.5,-703.5 252.5,-684.5 132.5,-684.5"/>
<text text-anchor="middle" x="192.5" y="-691.5" font-family="Helvetica,sans-Serif" font-size="10.00">llvm::MCAsmInfoCOFF</text>
</a>
</g>
</g>
<!-- Node0&#45;&gt;Node3 -->
<g id="edge3" class="edge">
<title>Node0&#45;&gt;Node3</title>
<path fill="none" stroke="midnightblue" d="M52.65,-542.5C62.21,-574.84 85.73,-639.52 129,-675 133.74,-678.88 139.25,-681.97 145.01,-684.43"/>
<polygon fill="midnightblue" stroke="midnightblue" points="56.02,-541.54 49.94,-532.86 49.28,-543.44 56.02,-541.54"/>
</g>
<!-- Node12 -->
<g id="node13" class="node">
<title>Node12</title>
<g id="a_node13"><a xlink:href="classllvm_1_1MCAsmInfoDarwin.html" target="_top" xlink:title="llvm::MCAsmInfoDarwin">
<polygon fill="none" stroke="black" points="130.5,-646.5 130.5,-665.5 254.5,-665.5 254.5,-646.5 130.5,-646.5"/>
<text text-anchor="middle" x="192.5" y="-653.5" font-family="Helvetica,sans-Serif" font-size="10.00">llvm::MCAsmInfoDarwin</text>
</a>
</g>
</g>
<!-- Node0&#45;&gt;Node12 -->
<g id="edge12" class="edge">
<title>Node0&#45;&gt;Node12</title>
<path fill="none" stroke="midnightblue" d="M65.58,-539.7C95.97,-567.77 156.39,-623.57 180.85,-646.16"/>
<polygon fill="midnightblue" stroke="midnightblue" points="67.58,-536.78 57.86,-532.57 62.83,-541.92 67.58,-536.78"/>
</g>
<!-- Node17 -->
<g id="node18" class="node">
<title>Node17</title>
<g id="a_node18"><a xlink:href="classllvm_1_1MCAsmInfoELF.html" target="_top" xlink:title="llvm::MCAsmInfoELF">
<polygon fill="none" stroke="black" points="137,-380.5 137,-399.5 248,-399.5 248,-380.5 137,-380.5"/>
<text text-anchor="middle" x="192.5" y="-387.5" font-family="Helvetica,sans-Serif" font-size="10.00">llvm::MCAsmInfoELF</text>
</a>
</g>
</g>
<!-- Node0&#45;&gt;Node17 -->
<g id="edge17" class="edge">
<title>Node0&#45;&gt;Node17</title>
<path fill="none" stroke="midnightblue" d="M65.58,-506.3C95.97,-478.23 156.39,-422.43 180.85,-399.84"/>
<polygon fill="midnightblue" stroke="midnightblue" points="62.83,-504.08 57.86,-513.43 67.58,-509.22 62.83,-504.08"/>
</g>
<!-- Node33 -->
<g id="node34" class="node">
<title>Node33</title>
<g id="a_node34"><a xlink:href="classllvm_1_1MCAsmInfoWasm.html" target="_top" xlink:title="llvm::MCAsmInfoWasm">
<polygon fill="none" stroke="black" points="131.5,-342.5 131.5,-361.5 253.5,-361.5 253.5,-342.5 131.5,-342.5"/>
<text text-anchor="middle" x="192.5" y="-349.5" font-family="Helvetica,sans-Serif" font-size="10.00">llvm::MCAsmInfoWasm</text>
</a>
</g>
</g>
<!-- Node0&#45;&gt;Node33 -->
<g id="edge33" class="edge">
<title>Node0&#45;&gt;Node33</title>
<path fill="none" stroke="midnightblue" d="M52.65,-503.5C62.21,-471.16 85.73,-406.48 129,-371 133.74,-367.12 139.25,-364.03 145.01,-361.57"/>
<polygon fill="midnightblue" stroke="midnightblue" points="49.28,-502.56 49.94,-513.14 56.02,-504.46 49.28,-502.56"/>
</g>
<!-- Node35 -->
<g id="node36" class="node">
<title>Node35</title>
<g id="a_node36"><a xlink:href="classllvm_1_1MCAsmInfoXCOFF.html" target="_top" xlink:title="llvm::MCAsmInfoXCOFF">
<polygon fill="none" stroke="black" points="129,-304.5 129,-323.5 256,-323.5 256,-304.5 129,-304.5"/>
<text text-anchor="middle" x="192.5" y="-311.5" font-family="Helvetica,sans-Serif" font-size="10.00">llvm::MCAsmInfoXCOFF</text>
</a>
</g>
</g>
<!-- Node0&#45;&gt;Node35 -->
<g id="edge35" class="edge">
<title>Node0&#45;&gt;Node35</title>
<path fill="none" stroke="midnightblue" d="M50.32,-503.6C56.91,-465.29 76.92,-379.64 129,-333 133.31,-329.14 138.38,-326.07 143.74,-323.62"/>
<polygon fill="midnightblue" stroke="midnightblue" points="46.86,-503.05 48.74,-513.47 53.77,-504.15 46.86,-503.05"/>
</g>
<!-- Node37 -->
<g id="node38" class="node">
<title>Node37</title>
<g id="a_node38"><a xlink:href="classllvm_1_1NVPTXMCAsmInfo.html" target="_top" xlink:title="llvm::NVPTXMCAsmInfo">
<polygon fill="none" stroke="black" points="129,-266.5 129,-285.5 256,-285.5 256,-266.5 129,-266.5"/>
<text text-anchor="middle" x="192.5" y="-273.5" font-family="Helvetica,sans-Serif" font-size="10.00">llvm::NVPTXMCAsmInfo</text>
</a>
</g>
</g>
<!-- Node0&#45;&gt;Node37 -->
<g id="edge37" class="edge">
<title>Node0&#45;&gt;Node37</title>
<path fill="none" stroke="midnightblue" d="M48.78,-503.12C52.69,-459.13 68.25,-352.89 129,-295 133.11,-291.09 137.99,-287.98 143.2,-285.51"/>
<polygon fill="midnightblue" stroke="midnightblue" points="45.29,-502.88 48,-513.12 52.27,-503.42 45.29,-502.88"/>
</g>
<!-- Node4 -->
<g id="node5" class="node">
<title>Node4</title>
<g id="a_node5"><a xlink:href="classllvm_1_1MCAsmInfoGNUCOFF.html" target="_top" xlink:title="llvm::MCAsmInfoGNUCOFF">
<polygon fill="none" stroke="black" points="301,-836.5 301,-855.5 444,-855.5 444,-836.5 301,-836.5"/>
<text text-anchor="middle" x="372.5" y="-843.5" font-family="Helvetica,sans-Serif" font-size="10.00">llvm::MCAsmInfoGNUCOFF</text>
</a>
</g>
</g>
<!-- Node3&#45;&gt;Node4 -->
<g id="edge4" class="edge">
<title>Node3&#45;&gt;Node4</title>
<path fill="none" stroke="midnightblue" d="M249.74,-708.38C251.95,-709.78 254.05,-711.31 256,-713 284.3,-737.41 268.05,-760.31 292,-789 309.2,-809.6 335.45,-826.48 353.03,-836.39"/>
<polygon fill="midnightblue" stroke="midnightblue" points="251.28,-705.23 240.8,-703.63 247.99,-711.41 251.28,-705.23"/>
</g>
<!-- Node8 -->
<g id="node9" class="node">
<title>Node8</title>
<g id="a_node9"><a xlink:href="classllvm_1_1MCAsmInfoMicrosoft.html" target="_top" xlink:title="llvm::MCAsmInfoMicrosoft">
<polygon fill="none" stroke="black" points="305.5,-760.5 305.5,-779.5 439.5,-779.5 439.5,-760.5 305.5,-760.5"/>
<text text-anchor="middle" x="372.5" y="-767.5" font-family="Helvetica,sans-Serif" font-size="10.00">llvm::MCAsmInfoMicrosoft</text>
</a>
</g>
</g>
<!-- Node3&#45;&gt;Node8 -->
<g id="edge8" class="edge">
<title>Node3&#45;&gt;Node8</title>
<path fill="none" stroke="midnightblue" d="M245.27,-707.36C249,-709.04 252.62,-710.91 256,-713 275.79,-725.23 271.85,-739.37 292,-751 298.76,-754.9 306.28,-758 313.93,-760.47"/>
<polygon fill="midnightblue" stroke="midnightblue" points="246.4,-704.05 235.82,-703.59 243.8,-710.55 246.4,-704.05"/>
</g>
<!-- Node5 -->
<g id="node6" class="node">
<title>Node5</title>
<g id="a_node6"><a xlink:href="structllvm_1_1AArch64MCAsmInfoGNUCOFF.html" target="_top" xlink:title="llvm::AArch64MCAsmInfoGNUCOFF">
<polygon fill="none" stroke="black" points="498,-893.5 498,-912.5 678,-912.5 678,-893.5 498,-893.5"/>
<text text-anchor="middle" x="588" y="-900.5" font-family="Helvetica,sans-Serif" font-size="10.00">llvm::AArch64MCAsmInfoGNUCOFF</text>
</a>
</g>
</g>
<!-- Node4&#45;&gt;Node5 -->
<g id="edge5" class="edge">
<title>Node4&#45;&gt;Node5</title>
<path fill="none" stroke="midnightblue" d="M408.91,-858.94C431.59,-866.9 461.77,-876.91 489,-884 502.59,-887.54 517.38,-890.74 531.27,-893.46"/>
<polygon fill="midnightblue" stroke="midnightblue" points="409.96,-855.6 399.37,-855.55 407.62,-862.2 409.96,-855.6"/>
</g>
<!-- Node6 -->
<g id="node7" class="node">
<title>Node6</title>
<g id="a_node7"><a xlink:href="classllvm_1_1ARMCOFFMCAsmInfoGNU.html" target="_top" xlink:title="llvm::ARMCOFFMCAsmInfoGNU">
<polygon fill="none" stroke="black" points="505.5,-855.5 505.5,-874.5 670.5,-874.5 670.5,-855.5 505.5,-855.5"/>
<text text-anchor="middle" x="588" y="-862.5" font-family="Helvetica,sans-Serif" font-size="10.00">llvm::ARMCOFFMCAsmInfoGNU</text>
</a>
</g>
</g>
<!-- Node4&#45;&gt;Node6 -->
<g id="edge6" class="edge">
<title>Node4&#45;&gt;Node6</title>
<path fill="none" stroke="midnightblue" d="M454.52,-853.21C471.14,-854.69 488.66,-856.25 505.31,-857.73"/>
<polygon fill="midnightblue" stroke="midnightblue" points="454.57,-849.7 444.3,-852.3 453.95,-856.67 454.57,-849.7"/>
</g>
<!-- Node7 -->
<g id="node8" class="node">
<title>Node7</title>
<g id="a_node8"><a xlink:href="classllvm_1_1X86MCAsmInfoGNUCOFF.html" target="_top" xlink:title="llvm::X86MCAsmInfoGNUCOFF">
<polygon fill="none" stroke="black" points="508,-817.5 508,-836.5 668,-836.5 668,-817.5 508,-817.5"/>
<text text-anchor="middle" x="588" y="-824.5" font-family="Helvetica,sans-Serif" font-size="10.00">llvm::X86MCAsmInfoGNUCOFF</text>
</a>
</g>
</g>
<!-- Node4&#45;&gt;Node7 -->
<g id="edge7" class="edge">
<title>Node4&#45;&gt;Node7</title>
<path fill="none" stroke="midnightblue" d="M454.48,-838.79C471.99,-837.24 490.48,-835.59 507.92,-834.04"/>
<polygon fill="midnightblue" stroke="midnightblue" points="453.95,-835.33 444.3,-839.7 454.57,-842.3 453.95,-835.33"/>
</g>
<!-- Node9 -->
<g id="node10" class="node">
<title>Node9</title>
<g id="a_node10"><a xlink:href="structllvm_1_1AArch64MCAsmInfoMicrosoftCOFF.html" target="_top" xlink:title="llvm::AArch64MCAsmInfoMicrosoftCOFF">
<polygon fill="none" stroke="black" points="489,-779.5 489,-798.5 687,-798.5 687,-779.5 489,-779.5"/>
<text text-anchor="middle" x="588" y="-786.5" font-family="Helvetica,sans-Serif" font-size="10.00">llvm::AArch64MCAsmInfoMicrosoftCOFF</text>
</a>
</g>
</g>
<!-- Node8&#45;&gt;Node9 -->
<g id="edge9" class="edge">
<title>Node8&#45;&gt;Node9</title>
<path fill="none" stroke="midnightblue" d="M449.6,-776.77C462.26,-777.9 475.56,-779.08 488.68,-780.25"/>
<polygon fill="midnightblue" stroke="midnightblue" points="449.86,-773.28 439.59,-775.88 449.24,-780.25 449.86,-773.28"/>
</g>
<!-- Node10 -->
<g id="node11" class="node">
<title>Node10</title>
<g id="a_node11"><a xlink:href="classllvm_1_1ARMCOFFMCAsmInfoMicrosoft.html" target="_top" xlink:title="llvm::ARMCOFFMCAsmInfoMicrosoft">
<polygon fill="none" stroke="black" points="496.5,-741.5 496.5,-760.5 679.5,-760.5 679.5,-741.5 496.5,-741.5"/>
<text text-anchor="middle" x="588" y="-748.5" font-family="Helvetica,sans-Serif" font-size="10.00">llvm::ARMCOFFMCAsmInfoMicrosoft</text>
</a>
</g>
</g>
<!-- Node8&#45;&gt;Node10 -->
<g id="edge10" class="edge">
<title>Node8&#45;&gt;Node10</title>
<path fill="none" stroke="midnightblue" d="M449.82,-763.21C464.82,-761.87 480.7,-760.46 496.12,-759.09"/>
<polygon fill="midnightblue" stroke="midnightblue" points="449.24,-759.75 439.59,-764.12 449.86,-766.72 449.24,-759.75"/>
</g>
<!-- Node11 -->
<g id="node12" class="node">
<title>Node11</title>
<g id="a_node12"><a xlink:href="classllvm_1_1X86MCAsmInfoMicrosoft.html" target="_top" xlink:title="llvm::X86MCAsmInfoMicrosoft">
<polygon fill="none" stroke="black" points="512.5,-703.5 512.5,-722.5 663.5,-722.5 663.5,-703.5 512.5,-703.5"/>
<text text-anchor="middle" x="588" y="-710.5" font-family="Helvetica,sans-Serif" font-size="10.00">llvm::X86MCAsmInfoMicrosoft</text>
</a>
</g>
</g>
<!-- Node8&#45;&gt;Node11 -->
<g id="edge11" class="edge">
<title>Node8&#45;&gt;Node11</title>
<path fill="none" stroke="midnightblue" d="M431.81,-757.85C439.03,-755.83 446.24,-753.54 453,-751 469.93,-744.62 471.94,-738.01 489,-732 499.87,-728.17 511.71,-725.05 523.27,-722.53"/>
<polygon fill="midnightblue" stroke="midnightblue" points="430.78,-754.51 422.01,-760.46 432.57,-761.27 430.78,-754.51"/>
</g>
<!-- Node13 -->
<g id="node14" class="node">
<title>Node13</title>
<g id="a_node14"><a xlink:href="structllvm_1_1AArch64MCAsmInfoDarwin.html" target="_top" xlink:title="llvm::AArch64MCAsmInfoDarwin">
<polygon fill="none" stroke="black" points="292,-722.5 292,-741.5 453,-741.5 453,-722.5 292,-722.5"/>
<text text-anchor="middle" x="372.5" y="-729.5" font-family="Helvetica,sans-Serif" font-size="10.00">llvm::AArch64MCAsmInfoDarwin</text>
</a>
</g>
</g>
<!-- Node12&#45;&gt;Node13 -->
<g id="edge13" class="edge">
<title>Node12&#45;&gt;Node13</title>
<path fill="none" stroke="midnightblue" d="M245.27,-669.36C249,-671.04 252.62,-672.91 256,-675 275.79,-687.23 271.85,-701.37 292,-713 298.76,-716.9 306.28,-720 313.93,-722.47"/>
<polygon fill="midnightblue" stroke="midnightblue" points="246.4,-666.05 235.82,-665.59 243.8,-672.55 246.4,-666.05"/>
</g>
<!-- Node14 -->
<g id="node15" class="node">
<title>Node14</title>
<g id="a_node15"><a xlink:href="classllvm_1_1ARMMCAsmInfoDarwin.html" target="_top" xlink:title="llvm::ARMMCAsmInfoDarwin">
<polygon fill="none" stroke="black" points="299.5,-684.5 299.5,-703.5 445.5,-703.5 445.5,-684.5 299.5,-684.5"/>
<text text-anchor="middle" x="372.5" y="-691.5" font-family="Helvetica,sans-Serif" font-size="10.00">llvm::ARMMCAsmInfoDarwin</text>
</a>
</g>
</g>
<!-- Node12&#45;&gt;Node14 -->
<g id="edge14" class="edge">
<title>Node12&#45;&gt;Node14</title>
<path fill="none" stroke="midnightblue" d="M248.22,-667.68C273.46,-673.07 303.05,-679.39 326.91,-684.48"/>
<polygon fill="midnightblue" stroke="midnightblue" points="248.93,-664.25 238.42,-665.59 247.47,-671.1 248.93,-664.25"/>
</g>
<!-- Node15 -->
<g id="node16" class="node">
<title>Node15</title>
<g id="a_node16"><a xlink:href="classllvm_1_1X86MCAsmInfoDarwin.html" target="_top" xlink:title="llvm::X86MCAsmInfoDarwin">
<polygon fill="none" stroke="black" points="302,-646.5 302,-665.5 443,-665.5 443,-646.5 302,-646.5"/>
<text text-anchor="middle" x="372.5" y="-653.5" font-family="Helvetica,sans-Serif" font-size="10.00">llvm::X86MCAsmInfoDarwin</text>
</a>
</g>
</g>
<!-- Node12&#45;&gt;Node15 -->
<g id="edge15" class="edge">
<title>Node12&#45;&gt;Node15</title>
<path fill="none" stroke="midnightblue" d="M264.87,-656C277.07,-656 289.73,-656 301.88,-656"/>
<polygon fill="midnightblue" stroke="midnightblue" points="264.76,-652.5 254.76,-656 264.76,-659.5 264.76,-652.5"/>
</g>
<!-- Node16 -->
<g id="node17" class="node">
<title>Node16</title>
<g id="a_node17"><a xlink:href="structllvm_1_1X86__64MCAsmInfoDarwin.html" target="_top" xlink:title="llvm::X86_64MCAsmInfoDarwin">
<polygon fill="none" stroke="black" points="509.5,-646.5 509.5,-665.5 666.5,-665.5 666.5,-646.5 509.5,-646.5"/>
<text text-anchor="middle" x="588" y="-653.5" font-family="Helvetica,sans-Serif" font-size="10.00">llvm::X86_64MCAsmInfoDarwin</text>
</a>
</g>
</g>
<!-- Node15&#45;&gt;Node16 -->
<g id="edge16" class="edge">
<title>Node15&#45;&gt;Node16</title>
<path fill="none" stroke="midnightblue" d="M453.19,-656C471.56,-656 491.07,-656 509.35,-656"/>
<polygon fill="midnightblue" stroke="midnightblue" points="453.11,-652.5 443.11,-656 453.11,-659.5 453.11,-652.5"/>
</g>
<!-- Node18 -->
<g id="node19" class="node">
<title>Node18</title>
<g id="a_node19"><a xlink:href="structllvm_1_1AArch64MCAsmInfoELF.html" target="_top" xlink:title="llvm::AArch64MCAsmInfoELF">
<polygon fill="none" stroke="black" points="298,-608.5 298,-627.5 447,-627.5 447,-608.5 298,-608.5"/>
<text text-anchor="middle" x="372.5" y="-615.5" font-family="Helvetica,sans-Serif" font-size="10.00">llvm::AArch64MCAsmInfoELF</text>
</a>
</g>
</g>
<!-- Node17&#45;&gt;Node18 -->
<g id="edge18" class="edge">
<title>Node17&#45;&gt;Node18</title>
<path fill="none" stroke="midnightblue" d="M196.9,-409.7C205.19,-451.41 230.41,-548.94 292,-599 296.74,-602.85 302.12,-605.94 307.81,-608.42"/>
<polygon fill="midnightblue" stroke="midnightblue" points="200.32,-408.9 195.04,-399.71 193.43,-410.18 200.32,-408.9"/>
</g>
<!-- Node19 -->
<g id="node20" class="node">
<title>Node19</title>
<g id="a_node20"><a xlink:href="classllvm_1_1AMDGPUMCAsmInfo.html" target="_top" xlink:title="llvm::AMDGPUMCAsmInfo">
<polygon fill="none" stroke="black" points="304,-570.5 304,-589.5 441,-589.5 441,-570.5 304,-570.5"/>
<text text-anchor="middle" x="372.5" y="-577.5" font-family="Helvetica,sans-Serif" font-size="10.00">llvm::AMDGPUMCAsmInfo</text>
</a>
</g>
</g>
<!-- Node17&#45;&gt;Node19 -->
<g id="edge19" class="edge">
<title>Node17&#45;&gt;Node19</title>
<path fill="none" stroke="midnightblue" d="M198.99,-409.27C210.2,-445.03 239.26,-521.62 292,-561 297.12,-564.82 302.89,-567.89 308.93,-570.34"/>
<polygon fill="midnightblue" stroke="midnightblue" points="202.3,-408.14 196.07,-399.57 195.6,-410.15 202.3,-408.14"/>
</g>
<!-- Node20 -->
<g id="node21" class="node">
<title>Node20</title>
<g id="a_node21"><a xlink:href="classllvm_1_1ARCMCAsmInfo.html" target="_top" xlink:title="llvm::ARCMCAsmInfo">
<polygon fill="none" stroke="black" points="315,-532.5 315,-551.5 430,-551.5 430,-532.5 315,-532.5"/>
<text text-anchor="middle" x="372.5" y="-539.5" font-family="Helvetica,sans-Serif" font-size="10.00">llvm::ARCMCAsmInfo</text>
</a>
</g>
</g>
<!-- Node17&#45;&gt;Node20 -->
<g id="edge20" class="edge">
<title>Node17&#45;&gt;Node20</title>
<path fill="none" stroke="midnightblue" d="M201.96,-408.6C216.21,-437.73 247.83,-493.81 292,-523 298.87,-527.54 306.7,-530.99 314.72,-533.63"/>
<polygon fill="midnightblue" stroke="midnightblue" points="205.1,-407.04 197.65,-399.5 198.77,-410.04 205.1,-407.04"/>
</g>
<!-- Node21 -->
<g id="node22" class="node">
<title>Node21</title>
<g id="a_node22"><a xlink:href="classllvm_1_1ARMELFMCAsmInfo.html" target="_top" xlink:title="llvm::ARMELFMCAsmInfo">
<polygon fill="none" stroke="black" points="305.5,-494.5 305.5,-513.5 439.5,-513.5 439.5,-494.5 305.5,-494.5"/>
<text text-anchor="middle" x="372.5" y="-501.5" font-family="Helvetica,sans-Serif" font-size="10.00">llvm::ARMELFMCAsmInfo</text>
</a>
</g>
</g>
<!-- Node17&#45;&gt;Node21 -->
<g id="edge21" class="edge">
<title>Node17&#45;&gt;Node21</title>
<path fill="none" stroke="midnightblue" d="M206.7,-407.53C223.91,-429.12 256.1,-465.34 292,-485 299.09,-488.88 306.97,-491.98 314.93,-494.45"/>
<polygon fill="midnightblue" stroke="midnightblue" points="209.37,-405.27 200.47,-399.52 203.84,-409.57 209.37,-405.27"/>
</g>
<!-- Node22 -->
<g id="node23" class="node">
<title>Node22</title>
<g id="a_node23"><a xlink:href="classllvm_1_1HexagonMCAsmInfo.html" target="_top" xlink:title="llvm::HexagonMCAsmInfo">
<polygon fill="none" stroke="black" points="306.5,-456.5 306.5,-475.5 438.5,-475.5 438.5,-456.5 306.5,-456.5"/>
<text text-anchor="middle" x="372.5" y="-463.5" font-family="Helvetica,sans-Serif" font-size="10.00">llvm::HexagonMCAsmInfo</text>
</a>
</g>
</g>
<!-- Node17&#45;&gt;Node22 -->
<g id="edge22" class="edge">
<title>Node17&#45;&gt;Node22</title>
<path fill="none" stroke="midnightblue" d="M215.61,-405.3C234.97,-418.08 264.28,-435.94 292,-447 301.36,-450.73 311.64,-453.86 321.61,-456.42"/>
<polygon fill="midnightblue" stroke="midnightblue" points="217.45,-402.33 207.2,-399.66 213.55,-408.14 217.45,-402.33"/>
</g>
<!-- Node23 -->
<g id="node24" class="node">
<title>Node23</title>
<g id="a_node24"><a xlink:href="classllvm_1_1LanaiMCAsmInfo.html" target="_top" xlink:title="llvm::LanaiMCAsmInfo">
<polygon fill="none" stroke="black" points="314.5,-418.5 314.5,-437.5 430.5,-437.5 430.5,-418.5 314.5,-418.5"/>
<text text-anchor="middle" x="372.5" y="-425.5" font-family="Helvetica,sans-Serif" font-size="10.00">llvm::LanaiMCAsmInfo</text>
</a>
</g>
</g>
<!-- Node17&#45;&gt;Node23 -->
<g id="edge23" class="edge">
<title>Node17&#45;&gt;Node23</title>
<path fill="none" stroke="midnightblue" d="M248.22,-401.68C273.46,-407.07 303.05,-413.39 326.91,-418.48"/>
<polygon fill="midnightblue" stroke="midnightblue" points="248.93,-398.25 238.42,-399.59 247.47,-405.1 248.93,-398.25"/>
</g>
<!-- Node24 -->
<g id="node25" class="node">
<title>Node24</title>
<g id="a_node25"><a xlink:href="classllvm_1_1MipsMCAsmInfo.html" target="_top" xlink:title="llvm::MipsMCAsmInfo">
<polygon fill="none" stroke="black" points="315.5,-380.5 315.5,-399.5 429.5,-399.5 429.5,-380.5 315.5,-380.5"/>
<text text-anchor="middle" x="372.5" y="-387.5" font-family="Helvetica,sans-Serif" font-size="10.00">llvm::MipsMCAsmInfo</text>
</a>
</g>
</g>
<!-- Node17&#45;&gt;Node24 -->
<g id="edge24" class="edge">
<title>Node17&#45;&gt;Node24</title>
<path fill="none" stroke="midnightblue" d="M258.52,-390C277.13,-390 297.25,-390 315.29,-390"/>
<polygon fill="midnightblue" stroke="midnightblue" points="258.36,-386.5 248.36,-390 258.36,-393.5 258.36,-386.5"/>
</g>
<!-- Node25 -->
<g id="node26" class="node">
<title>Node25</title>
<g id="a_node26"><a xlink:href="classllvm_1_1MSP430MCAsmInfo.html" target="_top" xlink:title="llvm::MSP430MCAsmInfo">
<polygon fill="none" stroke="black" points="307,-342.5 307,-361.5 438,-361.5 438,-342.5 307,-342.5"/>
<text text-anchor="middle" x="372.5" y="-349.5" font-family="Helvetica,sans-Serif" font-size="10.00">llvm::MSP430MCAsmInfo</text>
</a>
</g>
</g>
<!-- Node17&#45;&gt;Node25 -->
<g id="edge25" class="edge">
<title>Node17&#45;&gt;Node25</title>
<path fill="none" stroke="midnightblue" d="M248.22,-378.32C273.46,-372.93 303.05,-366.61 326.91,-361.52"/>
<polygon fill="midnightblue" stroke="midnightblue" points="247.47,-374.9 238.42,-380.41 248.93,-381.75 247.47,-374.9"/>
</g>
<!-- Node26 -->
<g id="node27" class="node">
<title>Node26</title>
<g id="a_node27"><a xlink:href="classllvm_1_1PPCELFMCAsmInfo.html" target="_top" xlink:title="llvm::PPCELFMCAsmInfo">
<polygon fill="none" stroke="black" points="306.5,-304.5 306.5,-323.5 438.5,-323.5 438.5,-304.5 306.5,-304.5"/>
<text text-anchor="middle" x="372.5" y="-311.5" font-family="Helvetica,sans-Serif" font-size="10.00">llvm::PPCELFMCAsmInfo</text>
</a>
</g>
</g>
<!-- Node17&#45;&gt;Node26 -->
<g id="edge26" class="edge">
<title>Node17&#45;&gt;Node26</title>
<path fill="none" stroke="midnightblue" d="M245.27,-376.64C249,-374.96 252.62,-373.09 256,-371 275.79,-358.77 271.85,-344.63 292,-333 298.76,-329.1 306.28,-326 313.93,-323.53"/>
<polygon fill="midnightblue" stroke="midnightblue" points="243.8,-373.45 235.82,-380.41 246.4,-379.95 243.8,-373.45"/>
</g>
<!-- Node27 -->
<g id="node28" class="node">
<title>Node27</title>
<g id="a_node28"><a xlink:href="classllvm_1_1RISCVMCAsmInfo.html" target="_top" xlink:title="llvm::RISCVMCAsmInfo">
<polygon fill="none" stroke="black" points="310,-266.5 310,-285.5 435,-285.5 435,-266.5 310,-266.5"/>
<text text-anchor="middle" x="372.5" y="-273.5" font-family="Helvetica,sans-Serif" font-size="10.00">llvm::RISCVMCAsmInfo</text>
</a>
</g>
</g>
<!-- Node17&#45;&gt;Node27 -->
<g id="edge27" class="edge">
<title>Node17&#45;&gt;Node27</title>
<path fill="none" stroke="midnightblue" d="M249.74,-375.62C251.95,-374.22 254.05,-372.69 256,-371 284.3,-346.59 262.97,-318.55 292,-295 297.29,-290.71 303.39,-287.36 309.81,-284.75"/>
<polygon fill="midnightblue" stroke="midnightblue" points="247.99,-372.59 240.8,-380.37 251.28,-378.77 247.99,-372.59"/>
</g>
<!-- Node28 -->
<g id="node29" class="node">
<title>Node28</title>
<g id="a_node29"><a xlink:href="classllvm_1_1SparcELFMCAsmInfo.html" target="_top" xlink:title="llvm::SparcELFMCAsmInfo">
<polygon fill="none" stroke="black" points="304,-228.5 304,-247.5 441,-247.5 441,-228.5 304,-228.5"/>
<text text-anchor="middle" x="372.5" y="-235.5" font-family="Helvetica,sans-Serif" font-size="10.00">llvm::SparcELFMCAsmInfo</text>
</a>
</g>
</g>
<!-- Node17&#45;&gt;Node28 -->
<g id="edge28" class="edge">
<title>Node17&#45;&gt;Node28</title>
<path fill="none" stroke="midnightblue" d="M251.25,-375.07C252.93,-373.82 254.52,-372.47 256,-371 293.77,-333.63 253.11,-293.21 292,-257 296.05,-253.23 300.71,-250.17 305.7,-247.68"/>
<polygon fill="midnightblue" stroke="midnightblue" points="249.02,-372.33 242.26,-380.49 252.63,-378.32 249.02,-372.33"/>
</g>
<!-- Node29 -->
<g id="node30" class="node">
<title>Node29</title>
<g id="a_node30"><a xlink:href="classllvm_1_1SystemZMCAsmInfo.html" target="_top" xlink:title="llvm::SystemZMCAsmInfo">
<polygon fill="none" stroke="black" points="306,-190.5 306,-209.5 439,-209.5 439,-190.5 306,-190.5"/>
<text text-anchor="middle" x="372.5" y="-197.5" font-family="Helvetica,sans-Serif" font-size="10.00">llvm::SystemZMCAsmInfo</text>
</a>
</g>
</g>
<!-- Node17&#45;&gt;Node29 -->
<g id="edge29" class="edge">
<title>Node17&#45;&gt;Node29</title>
<path fill="none" stroke="midnightblue" d="M251.59,-375.05C253.16,-373.8 254.63,-372.46 256,-371 303.53,-320.4 242.96,-268.14 292,-219 296.01,-214.98 300.71,-211.76 305.78,-209.17"/>
<polygon fill="midnightblue" stroke="midnightblue" points="249.69,-372.11 243.16,-380.45 253.46,-378 249.69,-372.11"/>
</g>
<!-- Node30 -->
<g id="node31" class="node">
<title>Node30</title>
<g id="a_node31"><a xlink:href="classllvm_1_1VEELFMCAsmInfo.html" target="_top" xlink:title="llvm::VEELFMCAsmInfo">
<polygon fill="none" stroke="black" points="310,-152.5 310,-171.5 435,-171.5 435,-152.5 310,-152.5"/>
<text text-anchor="middle" x="372.5" y="-159.5" font-family="Helvetica,sans-Serif" font-size="10.00">llvm::VEELFMCAsmInfo</text>
</a>
</g>
</g>
<!-- Node17&#45;&gt;Node30 -->
<g id="edge30" class="edge">
<title>Node17&#45;&gt;Node30</title>
<path fill="none" stroke="midnightblue" d="M252.15,-374.73C253.51,-373.58 254.8,-372.33 256,-371 313.41,-307.04 232.68,-243.19 292,-181 296.99,-175.76 303.15,-171.86 309.82,-168.96"/>
<polygon fill="midnightblue" stroke="midnightblue" points="249.98,-371.97 243.64,-380.46 253.89,-377.78 249.98,-371.97"/>
</g>
<!-- Node31 -->
<g id="node32" class="node">
<title>Node31</title>
<g id="a_node32"><a xlink:href="classllvm_1_1X86ELFMCAsmInfo.html" target="_top" xlink:title="llvm::X86ELFMCAsmInfo">
<polygon fill="none" stroke="black" points="308.5,-114.5 308.5,-133.5 436.5,-133.5 436.5,-114.5 308.5,-114.5"/>
<text text-anchor="middle" x="372.5" y="-121.5" font-family="Helvetica,sans-Serif" font-size="10.00">llvm::X86ELFMCAsmInfo</text>
</a>
</g>
</g>
<!-- Node17&#45;&gt;Node31 -->
<g id="edge31" class="edge">
<title>Node17&#45;&gt;Node31</title>
<path fill="none" stroke="midnightblue" d="M252.29,-374.7C253.61,-373.56 254.85,-372.32 256,-371 323.35,-293.61 222.34,-218.31 292,-143 296.63,-138 302.31,-134.21 308.5,-131.34"/>
<polygon fill="midnightblue" stroke="midnightblue" points="250.29,-371.83 244.06,-380.4 254.27,-377.59 250.29,-371.83"/>
</g>
<!-- Node32 -->
<g id="node33" class="node">
<title>Node32</title>
<g id="a_node33"><a xlink:href="classllvm_1_1XCoreMCAsmInfo.html" target="_top" xlink:title="llvm::XCoreMCAsmInfo">
<polygon fill="none" stroke="black" points="312,-76.5 312,-95.5 433,-95.5 433,-76.5 312,-76.5"/>
<text text-anchor="middle" x="372.5" y="-83.5" font-family="Helvetica,sans-Serif" font-size="10.00">llvm::XCoreMCAsmInfo</text>
</a>
</g>
</g>
<!-- Node17&#45;&gt;Node32 -->
<g id="edge32" class="edge">
<title>Node17&#45;&gt;Node32</title>
<path fill="none" stroke="midnightblue" d="M252.69,-374.42C253.86,-373.35 254.97,-372.21 256,-371 333.32,-280.15 211.97,-193.47 292,-105 297.43,-99 304.38,-94.73 311.91,-91.72"/>
<polygon fill="midnightblue" stroke="midnightblue" points="250.28,-371.84 244.14,-380.48 254.33,-377.55 250.28,-371.84"/>
</g>
<!-- Node34 -->
<g id="node35" class="node">
<title>Node34</title>
<g id="a_node35"><a xlink:href="classllvm_1_1WebAssemblyMCAsmInfo.html" target="_top" xlink:title="llvm::WebAssemblyMCAsmInfo">
<polygon fill="none" stroke="black" points="294,-38.5 294,-57.5 451,-57.5 451,-38.5 294,-38.5"/>
<text text-anchor="middle" x="372.5" y="-45.5" font-family="Helvetica,sans-Serif" font-size="10.00">llvm::WebAssemblyMCAsmInfo</text>
</a>
</g>
</g>
<!-- Node33&#45;&gt;Node34 -->
<g id="edge34" class="edge">
<title>Node33&#45;&gt;Node34</title>
<path fill="none" stroke="midnightblue" d="M252.69,-336.42C253.86,-335.35 254.97,-334.21 256,-333 333.32,-242.15 211.97,-155.47 292,-67 295.43,-63.21 299.46,-60.11 303.87,-57.58"/>
<polygon fill="midnightblue" stroke="midnightblue" points="250.28,-333.84 244.14,-342.48 254.33,-339.55 250.28,-333.84"/>
</g>
<!-- Node36 -->
<g id="node37" class="node">
<title>Node36</title>
<g id="a_node37"><a xlink:href="classllvm_1_1PPCXCOFFMCAsmInfo.html" target="_top" xlink:title="llvm::PPCXCOFFMCAsmInfo">
<polygon fill="none" stroke="black" points="298.5,-0.5 298.5,-19.5 446.5,-19.5 446.5,-0.5 298.5,-0.5"/>
<text text-anchor="middle" x="372.5" y="-7.5" font-family="Helvetica,sans-Serif" font-size="10.00">llvm::PPCXCOFFMCAsmInfo</text>
</a>
</g>
</g>
<!-- Node35&#45;&gt;Node36 -->
<g id="edge36" class="edge">
<title>Node35&#45;&gt;Node36</title>
<path fill="none" stroke="midnightblue" d="M252.69,-298.42C253.86,-297.35 254.97,-296.21 256,-295 333.32,-204.15 211.97,-117.47 292,-29 295.43,-25.21 299.46,-22.11 303.87,-19.58"/>
<polygon fill="midnightblue" stroke="midnightblue" points="250.28,-295.84 244.14,-304.48 254.33,-301.55 250.28,-295.84"/>
</g>
</g>
</svg>
