<?xml version="1.0" encoding="UTF-8" standalone="no"?>
<!DOCTYPE svg PUBLIC "-//W3C//DTD SVG 1.1//EN"
 "http://www.w3.org/Graphics/SVG/1.1/DTD/svg11.dtd">
<!-- Generated by graphviz version 2.43.0 (0)
 -->
<!-- Title: Graphical Class Hierarchy Pages: 1 -->
<svg width="510pt" height="225pt"
 viewBox="0.00 0.00 510.00 224.50" xmlns="http://www.w3.org/2000/svg" xmlns:xlink="http://www.w3.org/1999/xlink">
<g id="graph0" class="graph" transform="scale(1 1) rotate(0) translate(4 220.5)">
<title>Graphical Class Hierarchy</title>
<!-- Node0 -->
<g id="node1" class="node">
<title>Node0</title>
<g id="a_node1"><a xlink:href="classllvm_1_1MCObjectTargetWriter.html" target="_top" xlink:title="Base class for classes that define behaviour that is specific to both the target and the object forma...">
<polygon fill="none" stroke="black" points="0,-104 0,-123 139,-123 139,-104 0,-104"/>
<text text-anchor="middle" x="69.5" y="-111" font-family="Helvetica,sans-Serif" font-size="10.00">llvm::MCObjectTargetWriter</text>
</a>
</g>
</g>
<!-- Node1 -->
<g id="node2" class="node">
<title>Node1</title>
<g id="a_node2"><a xlink:href="classllvm_1_1MCELFObjectTargetWriter.html" target="_top" xlink:title="llvm::MCELFObjectTargetWriter">
<polygon fill="none" stroke="black" points="175,-197 175,-216 332,-216 332,-197 175,-197"/>
<text text-anchor="middle" x="253.5" y="-204" font-family="Helvetica,sans-Serif" font-size="10.00">llvm::MCELFObjectTargetWriter</text>
</a>
</g>
</g>
<!-- Node0&#45;&gt;Node1 -->
<g id="edge1" class="edge">
<title>Node0&#45;&gt;Node1</title>
<path fill="none" stroke="midnightblue" d="M88.89,-129.82C108.79,-146.64 142.09,-172.47 175,-187.5 183.32,-191.3 192.5,-194.4 201.54,-196.91"/>
<polygon fill="midnightblue" stroke="midnightblue" points="91.09,-127.09 81.23,-123.22 86.52,-132.4 91.09,-127.09"/>
</g>
<!-- Node3 -->
<g id="node4" class="node">
<title>Node3</title>
<g id="a_node4"><a xlink:href="classllvm_1_1MCMachObjectTargetWriter.html" target="_top" xlink:title="llvm::MCMachObjectTarget\lWriter">
<polygon fill="none" stroke="black" points="185,-147.5 185,-177.5 322,-177.5 322,-147.5 185,-147.5"/>
<text text-anchor="start" x="193" y="-165.5" font-family="Helvetica,sans-Serif" font-size="10.00">llvm::MCMachObjectTarget</text>
<text text-anchor="middle" x="253.5" y="-154.5" font-family="Helvetica,sans-Serif" font-size="10.00">Writer</text>
</a>
</g>
</g>
<!-- Node0&#45;&gt;Node3 -->
<g id="edge3" class="edge">
<title>Node0&#45;&gt;Node3</title>
<path fill="none" stroke="midnightblue" d="M115.78,-125.69C140.26,-132.28 170.7,-140.48 196.65,-147.46"/>
<polygon fill="midnightblue" stroke="midnightblue" points="116.59,-122.28 106.02,-123.06 114.77,-129.04 116.59,-122.28"/>
</g>
<!-- Node4 -->
<g id="node5" class="node">
<title>Node4</title>
<g id="a_node5"><a xlink:href="classllvm_1_1MCWasmObjectTargetWriter.html" target="_top" xlink:title="llvm::MCWasmObjectTarget\lWriter">
<polygon fill="none" stroke="black" points="183,-98.5 183,-128.5 324,-128.5 324,-98.5 183,-98.5"/>
<text text-anchor="start" x="191" y="-116.5" font-family="Helvetica,sans-Serif" font-size="10.00">llvm::MCWasmObjectTarget</text>
<text text-anchor="middle" x="253.5" y="-105.5" font-family="Helvetica,sans-Serif" font-size="10.00">Writer</text>
</a>
</g>
</g>
<!-- Node0&#45;&gt;Node4 -->
<g id="edge4" class="edge">
<title>Node0&#45;&gt;Node4</title>
<path fill="none" stroke="midnightblue" d="M149.22,-113.5C160.39,-113.5 171.82,-113.5 182.8,-113.5"/>
<polygon fill="midnightblue" stroke="midnightblue" points="149.05,-110 139.05,-113.5 149.05,-117 149.05,-110"/>
</g>
<!-- Node5 -->
<g id="node6" class="node">
<title>Node5</title>
<g id="a_node6"><a xlink:href="classllvm_1_1MCWinCOFFObjectTargetWriter.html" target="_top" xlink:title="llvm::MCWinCOFFObjectTarget\lWriter">
<polygon fill="none" stroke="black" points="175,-49.5 175,-79.5 332,-79.5 332,-49.5 175,-49.5"/>
<text text-anchor="start" x="183" y="-67.5" font-family="Helvetica,sans-Serif" font-size="10.00">llvm::MCWinCOFFObjectTarget</text>
<text text-anchor="middle" x="253.5" y="-56.5" font-family="Helvetica,sans-Serif" font-size="10.00">Writer</text>
</a>
</g>
</g>
<!-- Node0&#45;&gt;Node5 -->
<g id="edge5" class="edge">
<title>Node0&#45;&gt;Node5</title>
<path fill="none" stroke="midnightblue" d="M115.78,-101.31C140.26,-94.72 170.7,-86.52 196.65,-79.54"/>
<polygon fill="midnightblue" stroke="midnightblue" points="114.77,-97.96 106.02,-103.94 116.59,-104.72 114.77,-97.96"/>
</g>
<!-- Node6 -->
<g id="node7" class="node">
<title>Node6</title>
<g id="a_node7"><a xlink:href="classllvm_1_1MCXCOFFObjectTargetWriter.html" target="_top" xlink:title="llvm::MCXCOFFObjectTarget\lWriter">
<polygon fill="none" stroke="black" points="180.5,-0.5 180.5,-30.5 326.5,-30.5 326.5,-0.5 180.5,-0.5"/>
<text text-anchor="start" x="188.5" y="-18.5" font-family="Helvetica,sans-Serif" font-size="10.00">llvm::MCXCOFFObjectTarget</text>
<text text-anchor="middle" x="253.5" y="-7.5" font-family="Helvetica,sans-Serif" font-size="10.00">Writer</text>
</a>
</g>
</g>
<!-- Node0&#45;&gt;Node6 -->
<g id="edge6" class="edge">
<title>Node0&#45;&gt;Node6</title>
<path fill="none" stroke="midnightblue" d="M89.48,-97.61C109.62,-81.4 142.91,-56.43 175,-40.5 182.47,-36.79 190.61,-33.46 198.72,-30.54"/>
<polygon fill="midnightblue" stroke="midnightblue" points="87.23,-94.94 81.69,-103.97 91.65,-100.36 87.23,-94.94"/>
</g>
<!-- Node2 -->
<g id="node3" class="node">
<title>Node2</title>
<g id="a_node3"><a xlink:href="classllvm_1_1AVRELFObjectWriter.html" target="_top" xlink:title="Writes AVR machine code into an ELF32 object file. ">
<polygon fill="none" stroke="black" points="368,-197 368,-216 502,-216 502,-197 368,-197"/>
<text text-anchor="middle" x="435" y="-204" font-family="Helvetica,sans-Serif" font-size="10.00">llvm::AVRELFObjectWriter</text>
</a>
</g>
</g>
<!-- Node1&#45;&gt;Node2 -->
<g id="edge2" class="edge">
<title>Node1&#45;&gt;Node2</title>
<path fill="none" stroke="midnightblue" d="M342.23,-206.5C350.81,-206.5 359.41,-206.5 367.73,-206.5"/>
<polygon fill="midnightblue" stroke="midnightblue" points="342.19,-203 332.19,-206.5 342.19,-210 342.19,-203"/>
</g>
</g>
</svg>
