<?xml version="1.0" encoding="UTF-8" standalone="no"?>
<!DOCTYPE svg PUBLIC "-//W3C//DTD SVG 1.1//EN"
 "http://www.w3.org/Graphics/SVG/1.1/DTD/svg11.dtd">
<!-- Generated by graphviz version 2.43.0 (0)
 -->
<!-- Title: Graphical Class Hierarchy Pages: 1 -->
<svg width="439pt" height="458pt"
 viewBox="0.00 0.00 439.00 458.00" xmlns="http://www.w3.org/2000/svg" xmlns:xlink="http://www.w3.org/1999/xlink">
<g id="graph0" class="graph" transform="scale(1 1) rotate(0) translate(4 454)">
<title>Graphical Class Hierarchy</title>
<!-- Node0 -->
<g id="node1" class="node">
<title>Node0</title>
<g id="a_node1"><a xlink:href="classllvm_1_1MCExpr.html" target="_top" xlink:title="Base class for the full range of assembler expressions which are needed for parsing. ">
<polygon fill="none" stroke="black" points="0,-259.5 0,-278.5 77,-278.5 77,-259.5 0,-259.5"/>
<text text-anchor="middle" x="38.5" y="-266.5" font-family="Helvetica,sans-Serif" font-size="10.00">llvm::MCExpr</text>
</a>
</g>
</g>
<!-- Node1 -->
<g id="node2" class="node">
<title>Node1</title>
<g id="a_node2"><a xlink:href="classllvm_1_1MCBinaryExpr.html" target="_top" xlink:title="Binary assembler expressions. ">
<polygon fill="none" stroke="black" points="123.5,-335.5 123.5,-354.5 227.5,-354.5 227.5,-335.5 123.5,-335.5"/>
<text text-anchor="middle" x="175.5" y="-342.5" font-family="Helvetica,sans-Serif" font-size="10.00">llvm::MCBinaryExpr</text>
</a>
</g>
</g>
<!-- Node0&#45;&gt;Node1 -->
<g id="edge1" class="edge">
<title>Node0&#45;&gt;Node1</title>
<path fill="none" stroke="midnightblue" d="M57.12,-285.64C71.28,-298.24 92.16,-315.16 113,-326 120.14,-329.71 128.13,-332.84 135.92,-335.42"/>
<polygon fill="midnightblue" stroke="midnightblue" points="59.37,-282.95 49.62,-278.81 54.65,-288.13 59.37,-282.95"/>
</g>
<!-- Node2 -->
<g id="node3" class="node">
<title>Node2</title>
<g id="a_node3"><a xlink:href="classllvm_1_1MCConstantExpr.html" target="_top" xlink:title="llvm::MCConstantExpr">
<polygon fill="none" stroke="black" points="117.5,-297.5 117.5,-316.5 233.5,-316.5 233.5,-297.5 117.5,-297.5"/>
<text text-anchor="middle" x="175.5" y="-304.5" font-family="Helvetica,sans-Serif" font-size="10.00">llvm::MCConstantExpr</text>
</a>
</g>
</g>
<!-- Node0&#45;&gt;Node2 -->
<g id="edge2" class="edge">
<title>Node0&#45;&gt;Node2</title>
<path fill="none" stroke="midnightblue" d="M83.26,-281.32C101.81,-286.54 123.1,-292.53 140.44,-297.41"/>
<polygon fill="midnightblue" stroke="midnightblue" points="84.14,-277.93 73.57,-278.59 82.24,-284.67 84.14,-277.93"/>
</g>
<!-- Node3 -->
<g id="node4" class="node">
<title>Node3</title>
<g id="a_node4"><a xlink:href="classllvm_1_1MCSymbolRefExpr.html" target="_top" xlink:title="Represent a reference to a symbol from inside an expression. ">
<polygon fill="none" stroke="black" points="113,-259.5 113,-278.5 238,-278.5 238,-259.5 113,-259.5"/>
<text text-anchor="middle" x="175.5" y="-266.5" font-family="Helvetica,sans-Serif" font-size="10.00">llvm::MCSymbolRefExpr</text>
</a>
</g>
</g>
<!-- Node0&#45;&gt;Node3 -->
<g id="edge3" class="edge">
<title>Node0&#45;&gt;Node3</title>
<path fill="none" stroke="midnightblue" d="M87.29,-269C95.54,-269 104.22,-269 112.78,-269"/>
<polygon fill="midnightblue" stroke="midnightblue" points="87.11,-265.5 77.11,-269 87.1,-272.5 87.11,-265.5"/>
</g>
<!-- Node4 -->
<g id="node5" class="node">
<title>Node4</title>
<g id="a_node5"><a xlink:href="classllvm_1_1MCTargetExpr.html" target="_top" xlink:title="This is an extension point for target&#45;specific MCExpr subclasses to implement. ">
<polygon fill="none" stroke="black" points="123.5,-221.5 123.5,-240.5 227.5,-240.5 227.5,-221.5 123.5,-221.5"/>
<text text-anchor="middle" x="175.5" y="-228.5" font-family="Helvetica,sans-Serif" font-size="10.00">llvm::MCTargetExpr</text>
</a>
</g>
</g>
<!-- Node0&#45;&gt;Node4 -->
<g id="edge4" class="edge">
<title>Node0&#45;&gt;Node4</title>
<path fill="none" stroke="midnightblue" d="M83.26,-256.68C101.81,-251.46 123.1,-245.47 140.44,-240.59"/>
<polygon fill="midnightblue" stroke="midnightblue" points="82.24,-253.33 73.57,-259.41 84.14,-260.07 82.24,-253.33"/>
</g>
<!-- Node17 -->
<g id="node18" class="node">
<title>Node17</title>
<g id="a_node18"><a xlink:href="classllvm_1_1MCUnaryExpr.html" target="_top" xlink:title="Unary assembler expressions. ">
<polygon fill="none" stroke="black" points="124,-183.5 124,-202.5 227,-202.5 227,-183.5 124,-183.5"/>
<text text-anchor="middle" x="175.5" y="-190.5" font-family="Helvetica,sans-Serif" font-size="10.00">llvm::MCUnaryExpr</text>
</a>
</g>
</g>
<!-- Node0&#45;&gt;Node17 -->
<g id="edge17" class="edge">
<title>Node0&#45;&gt;Node17</title>
<path fill="none" stroke="midnightblue" d="M57.12,-252.36C71.28,-239.76 92.16,-222.84 113,-212 120.14,-208.29 128.13,-205.16 135.92,-202.58"/>
<polygon fill="midnightblue" stroke="midnightblue" points="54.65,-249.87 49.62,-259.19 59.37,-255.05 54.65,-249.87"/>
</g>
<!-- Node5 -->
<g id="node6" class="node">
<title>Node5</title>
<g id="a_node6"><a xlink:href="classllvm_1_1AArch64MCExpr.html" target="_top" xlink:title="llvm::AArch64MCExpr">
<polygon fill="none" stroke="black" points="295.5,-430.5 295.5,-449.5 409.5,-449.5 409.5,-430.5 295.5,-430.5"/>
<text text-anchor="middle" x="352.5" y="-437.5" font-family="Helvetica,sans-Serif" font-size="10.00">llvm::AArch64MCExpr</text>
</a>
</g>
</g>
<!-- Node4&#45;&gt;Node5 -->
<g id="edge5" class="edge">
<title>Node4&#45;&gt;Node5</title>
<path fill="none" stroke="midnightblue" d="M234.09,-246.27C235.48,-247.42 236.78,-248.67 238,-250 290.33,-307.39 219.99,-365.19 274,-421 279.88,-427.07 287.35,-431.33 295.33,-434.29"/>
<polygon fill="midnightblue" stroke="midnightblue" points="235.74,-243.16 225.47,-240.55 231.87,-248.99 235.74,-243.16"/>
</g>
<!-- Node6 -->
<g id="node7" class="node">
<title>Node6</title>
<g id="a_node7"><a xlink:href="classllvm_1_1ARMMCExpr.html" target="_top" xlink:title="llvm::ARMMCExpr">
<polygon fill="none" stroke="black" points="303,-392.5 303,-411.5 402,-411.5 402,-392.5 303,-392.5"/>
<text text-anchor="middle" x="352.5" y="-399.5" font-family="Helvetica,sans-Serif" font-size="10.00">llvm::ARMMCExpr</text>
</a>
</g>
</g>
<!-- Node4&#45;&gt;Node6 -->
<g id="edge6" class="edge">
<title>Node4&#45;&gt;Node6</title>
<path fill="none" stroke="midnightblue" d="M233.51,-245.98C235.1,-247.22 236.6,-248.55 238,-250 280.53,-294.06 230.18,-340.22 274,-383 281.83,-390.65 292.21,-395.38 302.82,-398.28"/>
<polygon fill="midnightblue" stroke="midnightblue" points="235.28,-242.96 224.95,-240.6 231.55,-248.88 235.28,-242.96"/>
</g>
<!-- Node7 -->
<g id="node8" class="node">
<title>Node7</title>
<g id="a_node8"><a xlink:href="classllvm_1_1AVRMCExpr.html" target="_top" xlink:title="A expression in AVR machine code. ">
<polygon fill="none" stroke="black" points="303.5,-354.5 303.5,-373.5 401.5,-373.5 401.5,-354.5 303.5,-354.5"/>
<text text-anchor="middle" x="352.5" y="-361.5" font-family="Helvetica,sans-Serif" font-size="10.00">llvm::AVRMCExpr</text>
</a>
</g>
</g>
<!-- Node4&#45;&gt;Node7 -->
<g id="edge7" class="edge">
<title>Node4&#45;&gt;Node7</title>
<path fill="none" stroke="midnightblue" d="M232.58,-245.63C234.5,-246.96 236.31,-248.41 238,-250 270.91,-280.91 240.19,-315.08 274,-345 282.2,-352.25 292.71,-356.84 303.34,-359.71"/>
<polygon fill="midnightblue" stroke="midnightblue" points="234.08,-242.45 223.66,-240.53 230.6,-248.53 234.08,-242.45"/>
</g>
<!-- Node8 -->
<g id="node9" class="node">
<title>Node8</title>
<g id="a_node9"><a xlink:href="classllvm_1_1HexagonMCExpr.html" target="_top" xlink:title="llvm::HexagonMCExpr">
<polygon fill="none" stroke="black" points="294.5,-316.5 294.5,-335.5 410.5,-335.5 410.5,-316.5 294.5,-316.5"/>
<text text-anchor="middle" x="352.5" y="-323.5" font-family="Helvetica,sans-Serif" font-size="10.00">llvm::HexagonMCExpr</text>
</a>
</g>
</g>
<!-- Node4&#45;&gt;Node8 -->
<g id="edge8" class="edge">
<title>Node4&#45;&gt;Node8</title>
<path fill="none" stroke="midnightblue" d="M230.16,-244.91C232.91,-246.43 235.55,-248.12 238,-250 261.79,-268.22 249.68,-289.49 274,-307 280.07,-311.37 287.03,-314.74 294.23,-317.34"/>
<polygon fill="midnightblue" stroke="midnightblue" points="231.58,-241.7 221.04,-240.57 228.57,-248.03 231.58,-241.7"/>
</g>
<!-- Node9 -->
<g id="node10" class="node">
<title>Node9</title>
<g id="a_node10"><a xlink:href="classllvm_1_1LanaiMCExpr.html" target="_top" xlink:title="llvm::LanaiMCExpr">
<polygon fill="none" stroke="black" points="302.5,-278.5 302.5,-297.5 402.5,-297.5 402.5,-278.5 302.5,-278.5"/>
<text text-anchor="middle" x="352.5" y="-285.5" font-family="Helvetica,sans-Serif" font-size="10.00">llvm::LanaiMCExpr</text>
</a>
</g>
</g>
<!-- Node4&#45;&gt;Node9 -->
<g id="edge9" class="edge">
<title>Node4&#45;&gt;Node9</title>
<path fill="none" stroke="midnightblue" d="M221.02,-243.67C226.79,-245.63 232.58,-247.75 238,-250 254.71,-256.92 257.09,-262.58 274,-269 283.71,-272.69 294.39,-275.85 304.62,-278.47"/>
<polygon fill="midnightblue" stroke="midnightblue" points="221.97,-240.3 211.38,-240.54 219.81,-246.96 221.97,-240.3"/>
</g>
<!-- Node10 -->
<g id="node11" class="node">
<title>Node10</title>
<g id="a_node11"><a xlink:href="classllvm_1_1MipsMCExpr.html" target="_top" xlink:title="llvm::MipsMCExpr">
<polygon fill="none" stroke="black" points="303.5,-240.5 303.5,-259.5 401.5,-259.5 401.5,-240.5 303.5,-240.5"/>
<text text-anchor="middle" x="352.5" y="-247.5" font-family="Helvetica,sans-Serif" font-size="10.00">llvm::MipsMCExpr</text>
</a>
</g>
</g>
<!-- Node4&#45;&gt;Node10 -->
<g id="edge10" class="edge">
<title>Node4&#45;&gt;Node10</title>
<path fill="none" stroke="midnightblue" d="M237.62,-237.64C259.15,-239.97 283.04,-242.57 303.35,-244.77"/>
<polygon fill="midnightblue" stroke="midnightblue" points="237.91,-234.15 227.59,-236.55 237.15,-241.11 237.91,-234.15"/>
</g>
<!-- Node11 -->
<g id="node12" class="node">
<title>Node11</title>
<g id="a_node12"><a xlink:href="classllvm_1_1NVPTXFloatMCExpr.html" target="_top" xlink:title="llvm::NVPTXFloatMCExpr">
<polygon fill="none" stroke="black" points="286.5,-202.5 286.5,-221.5 418.5,-221.5 418.5,-202.5 286.5,-202.5"/>
<text text-anchor="middle" x="352.5" y="-209.5" font-family="Helvetica,sans-Serif" font-size="10.00">llvm::NVPTXFloatMCExpr</text>
</a>
</g>
</g>
<!-- Node4&#45;&gt;Node11 -->
<g id="edge11" class="edge">
<title>Node4&#45;&gt;Node11</title>
<path fill="none" stroke="midnightblue" d="M237.71,-224.35C253.43,-222.65 270.4,-220.81 286.31,-219.08"/>
<polygon fill="midnightblue" stroke="midnightblue" points="237.15,-220.89 227.59,-225.45 237.91,-227.85 237.15,-220.89"/>
</g>
<!-- Node12 -->
<g id="node13" class="node">
<title>Node12</title>
<g id="a_node13"><a xlink:href="classllvm_1_1NVPTXGenericMCSymbolRefExpr.html" target="_top" xlink:title="A wrapper for MCSymbolRefExpr that tells the assembly printer that the symbol should be enclosed by g...">
<polygon fill="none" stroke="black" points="274,-153 274,-183 431,-183 431,-153 274,-153"/>
<text text-anchor="start" x="282" y="-171" font-family="Helvetica,sans-Serif" font-size="10.00">llvm::NVPTXGenericMCSymbol</text>
<text text-anchor="middle" x="352.5" y="-160" font-family="Helvetica,sans-Serif" font-size="10.00">RefExpr</text>
</a>
</g>
</g>
<!-- Node4&#45;&gt;Node12 -->
<g id="edge12" class="edge">
<title>Node4&#45;&gt;Node12</title>
<path fill="none" stroke="midnightblue" d="M221.02,-218.33C226.79,-216.37 232.58,-214.25 238,-212 254.71,-205.08 257.33,-200.03 274,-193 282.47,-189.43 291.63,-186.06 300.59,-183.02"/>
<polygon fill="midnightblue" stroke="midnightblue" points="219.81,-215.04 211.38,-221.46 221.97,-221.7 219.81,-215.04"/>
</g>
<!-- Node13 -->
<g id="node14" class="node">
<title>Node13</title>
<g id="a_node14"><a xlink:href="classllvm_1_1PPCMCExpr.html" target="_top" xlink:title="llvm::PPCMCExpr">
<polygon fill="none" stroke="black" points="303.5,-114.5 303.5,-133.5 401.5,-133.5 401.5,-114.5 303.5,-114.5"/>
<text text-anchor="middle" x="352.5" y="-121.5" font-family="Helvetica,sans-Serif" font-size="10.00">llvm::PPCMCExpr</text>
</a>
</g>
</g>
<!-- Node4&#45;&gt;Node13 -->
<g id="edge13" class="edge">
<title>Node4&#45;&gt;Node13</title>
<path fill="none" stroke="midnightblue" d="M231.5,-216.62C233.79,-215.22 235.97,-213.68 238,-212 264.34,-190.19 247.16,-165.19 274,-144 282.4,-137.37 292.76,-132.92 303.13,-129.94"/>
<polygon fill="midnightblue" stroke="midnightblue" points="229.56,-213.68 222.26,-221.37 232.76,-219.91 229.56,-213.68"/>
</g>
<!-- Node14 -->
<g id="node15" class="node">
<title>Node14</title>
<g id="a_node15"><a xlink:href="classllvm_1_1RISCVMCExpr.html" target="_top" xlink:title="llvm::RISCVMCExpr">
<polygon fill="none" stroke="black" points="298.5,-76.5 298.5,-95.5 406.5,-95.5 406.5,-76.5 298.5,-76.5"/>
<text text-anchor="middle" x="352.5" y="-83.5" font-family="Helvetica,sans-Serif" font-size="10.00">llvm::RISCVMCExpr</text>
</a>
</g>
</g>
<!-- Node4&#45;&gt;Node14 -->
<g id="edge14" class="edge">
<title>Node4&#45;&gt;Node14</title>
<path fill="none" stroke="midnightblue" d="M232.77,-216.37C234.62,-215.04 236.38,-213.58 238,-212 273.92,-176.97 237.06,-138.96 274,-105 280.83,-98.72 289.4,-94.42 298.32,-91.51"/>
<polygon fill="midnightblue" stroke="midnightblue" points="230.95,-213.38 224.11,-221.47 234.5,-219.41 230.95,-213.38"/>
</g>
<!-- Node15 -->
<g id="node16" class="node">
<title>Node15</title>
<g id="a_node16"><a xlink:href="classllvm_1_1SparcMCExpr.html" target="_top" xlink:title="llvm::SparcMCExpr">
<polygon fill="none" stroke="black" points="301.5,-38.5 301.5,-57.5 403.5,-57.5 403.5,-38.5 301.5,-38.5"/>
<text text-anchor="middle" x="352.5" y="-45.5" font-family="Helvetica,sans-Serif" font-size="10.00">llvm::SparcMCExpr</text>
</a>
</g>
</g>
<!-- Node4&#45;&gt;Node15 -->
<g id="edge15" class="edge">
<title>Node4&#45;&gt;Node15</title>
<path fill="none" stroke="midnightblue" d="M233.55,-216.06C235.13,-214.81 236.62,-213.46 238,-212 283.61,-163.74 226.98,-113.88 274,-67 281.46,-59.57 291.32,-54.87 301.49,-51.95"/>
<polygon fill="midnightblue" stroke="midnightblue" points="231.59,-213.16 225.03,-221.47 235.34,-219.06 231.59,-213.16"/>
</g>
<!-- Node16 -->
<g id="node17" class="node">
<title>Node16</title>
<g id="a_node17"><a xlink:href="classllvm_1_1X86MCExpr.html" target="_top" xlink:title="llvm::X86MCExpr">
<polygon fill="none" stroke="black" points="305.5,-0.5 305.5,-19.5 399.5,-19.5 399.5,-0.5 305.5,-0.5"/>
<text text-anchor="middle" x="352.5" y="-7.5" font-family="Helvetica,sans-Serif" font-size="10.00">llvm::X86MCExpr</text>
</a>
</g>
</g>
<!-- Node4&#45;&gt;Node16 -->
<g id="edge16" class="edge">
<title>Node4&#45;&gt;Node16</title>
<path fill="none" stroke="midnightblue" d="M234.12,-215.75C235.49,-214.59 236.79,-213.34 238,-212 293.44,-150.38 216.76,-88.95 274,-29 282.23,-20.38 293.67,-15.41 305.25,-12.61"/>
<polygon fill="midnightblue" stroke="midnightblue" points="231.89,-213.03 225.52,-221.49 235.78,-218.85 231.89,-213.03"/>
</g>
</g>
</svg>
