<?xml version="1.0" encoding="UTF-8" standalone="no"?>
<!DOCTYPE svg PUBLIC "-//W3C//DTD SVG 1.1//EN"
 "http://www.w3.org/Graphics/SVG/1.1/DTD/svg11.dtd">
<!-- Generated by graphviz version 2.43.0 (0)
 -->
<!-- Title: Graphical Class Hierarchy Pages: 1 -->
<svg width="549pt" height="50pt"
 viewBox="0.00 0.00 549.00 50.00" xmlns="http://www.w3.org/2000/svg" xmlns:xlink="http://www.w3.org/1999/xlink">
<g id="graph0" class="graph" transform="scale(1 1) rotate(0) translate(4 46)">
<title>Graphical Class Hierarchy</title>
<!-- Node0 -->
<g id="node1" class="node">
<title>Node0</title>
<g id="a_node1"><a xlink:href="structllvm_1_1PassInfoMixin.html" target="_top" xlink:title="llvm::PassInfoMixin\l\&lt; OptimizationRemarkEmitter\lAnalysis \&gt;">
<polygon fill="none" stroke="black" points="0,-0.5 0,-41.5 146,-41.5 146,-0.5 0,-0.5"/>
<text text-anchor="start" x="8" y="-29.5" font-family="Helvetica,sans-Serif" font-size="10.00">llvm::PassInfoMixin</text>
<text text-anchor="start" x="8" y="-18.5" font-family="Helvetica,sans-Serif" font-size="10.00">&lt; OptimizationRemarkEmitter</text>
<text text-anchor="middle" x="73" y="-7.5" font-family="Helvetica,sans-Serif" font-size="10.00">Analysis &gt;</text>
</a>
</g>
</g>
<!-- Node1 -->
<g id="node2" class="node">
<title>Node1</title>
<g id="a_node2"><a xlink:href="structllvm_1_1AnalysisInfoMixin.html" target="_top" xlink:title="llvm::AnalysisInfoMixin\l\&lt; OptimizationRemarkEmitterAnalysis \&gt;">
<polygon fill="none" stroke="black" points="182,-6 182,-36 375,-36 375,-6 182,-6"/>
<text text-anchor="start" x="190" y="-24" font-family="Helvetica,sans-Serif" font-size="10.00">llvm::AnalysisInfoMixin</text>
<text text-anchor="middle" x="278.5" y="-13" font-family="Helvetica,sans-Serif" font-size="10.00">&lt; OptimizationRemarkEmitterAnalysis &gt;</text>
</a>
</g>
</g>
<!-- Node0&#45;&gt;Node1 -->
<g id="edge1" class="edge">
<title>Node0&#45;&gt;Node1</title>
<path fill="none" stroke="midnightblue" d="M156.17,-21C164.57,-21 173.16,-21 181.69,-21"/>
<polygon fill="midnightblue" stroke="midnightblue" points="156.03,-17.5 146.03,-21 156.03,-24.5 156.03,-17.5"/>
</g>
<!-- Node2 -->
<g id="node3" class="node">
<title>Node2</title>
<g id="a_node3"><a xlink:href="classllvm_1_1OptimizationRemarkEmitterAnalysis.html" target="_top" xlink:title="llvm::OptimizationRemark\lEmitterAnalysis">
<polygon fill="none" stroke="black" points="411,-6 411,-36 541,-36 541,-6 411,-6"/>
<text text-anchor="start" x="419" y="-24" font-family="Helvetica,sans-Serif" font-size="10.00">llvm::OptimizationRemark</text>
<text text-anchor="middle" x="476" y="-13" font-family="Helvetica,sans-Serif" font-size="10.00">EmitterAnalysis</text>
</a>
</g>
</g>
<!-- Node1&#45;&gt;Node2 -->
<g id="edge2" class="edge">
<title>Node1&#45;&gt;Node2</title>
<path fill="none" stroke="midnightblue" d="M385.44,-21C394.11,-21 402.69,-21 410.91,-21"/>
<polygon fill="midnightblue" stroke="midnightblue" points="385.25,-17.5 375.25,-21 385.25,-24.5 385.25,-17.5"/>
</g>
</g>
</svg>
