<?xml version="1.0" encoding="UTF-8" standalone="no"?>
<!DOCTYPE svg PUBLIC "-//W3C//DTD SVG 1.1//EN"
 "http://www.w3.org/Graphics/SVG/1.1/DTD/svg11.dtd">
<!-- Generated by graphviz version 2.43.0 (0)
 -->
<!-- Title: lib/MCA/InstrBuilder.cpp Pages: 1 -->
<svg width="3735pt" height="700pt"
 viewBox="0.00 0.00 3735.02 700.00" xmlns="http://www.w3.org/2000/svg" xmlns:xlink="http://www.w3.org/1999/xlink">
<g id="graph0" class="graph" transform="scale(1 1) rotate(0) translate(4 696)">
<title>lib/MCA/InstrBuilder.cpp</title>
<!-- Node0 -->
<g id="node1" class="node">
<title>Node0</title>
<polygon fill="#bfbfbf" stroke="black" points="2161.52,-672.5 2161.52,-691.5 2284.52,-691.5 2284.52,-672.5 2161.52,-672.5"/>
<text text-anchor="middle" x="2223.02" y="-679.5" font-family="Helvetica,sans-Serif" font-size="10.00">lib/MCA/InstrBuilder.cpp</text>
</g>
<!-- Node1 -->
<g id="node2" class="node">
<title>Node1</title>
<g id="a_node2"><a xlink:href="InstrBuilder_8h.html" target="_top" xlink:title="A builder class for instructions that are statically analyzed by llvm&#45;mca. ">
<polygon fill="none" stroke="black" points="1163.52,-616.5 1163.52,-635.5 1284.52,-635.5 1284.52,-616.5 1163.52,-616.5"/>
<text text-anchor="middle" x="1224.02" y="-623.5" font-family="Helvetica,sans-Serif" font-size="10.00">llvm/MCA/InstrBuilder.h</text>
</a>
</g>
</g>
<!-- Node0&#45;&gt;Node1 -->
<g id="edge1" class="edge">
<title>Node0&#45;&gt;Node1</title>
<path fill="none" stroke="midnightblue" d="M2161.28,-677.66C1985.3,-668.15 1481.84,-640.94 1294.97,-630.83"/>
<polygon fill="midnightblue" stroke="midnightblue" points="1294.89,-627.33 1284.71,-630.28 1294.51,-634.32 1294.89,-627.33"/>
</g>
<!-- Node3 -->
<g id="node4" class="node">
<title>Node3</title>
<g id="a_node4"><a xlink:href="MCInst_8h.html" target="_top" xlink:title="llvm/MC/MCInst.h">
<polygon fill="none" stroke="black" points="624.52,-280.5 624.52,-299.5 721.52,-299.5 721.52,-280.5 624.52,-280.5"/>
<text text-anchor="middle" x="673.02" y="-287.5" font-family="Helvetica,sans-Serif" font-size="10.00">llvm/MC/MCInst.h</text>
</a>
</g>
</g>
<!-- Node0&#45;&gt;Node3 -->
<g id="edge181" class="edge">
<title>Node0&#45;&gt;Node3</title>
<path fill="none" stroke="midnightblue" d="M2161.51,-681.14C1810.96,-681.54 81.02,-678.08 81.02,-571 81.02,-571 81.02,-571 81.02,-401 81.02,-331.19 156.61,-354.17 224.02,-336 360.31,-299.27 527.17,-291.95 614.06,-290.84"/>
<polygon fill="midnightblue" stroke="midnightblue" points="614.28,-294.34 624.25,-290.73 614.21,-287.34 614.28,-294.34"/>
</g>
<!-- Node48 -->
<g id="node29" class="node">
<title>Node48</title>
<g id="a_node29"><a xlink:href="DenseMap_8h.html" target="_top" xlink:title="llvm/ADT/DenseMap.h">
<polygon fill="none" stroke="black" points="2773.02,-336.5 2773.02,-355.5 2889.02,-355.5 2889.02,-336.5 2773.02,-336.5"/>
<text text-anchor="middle" x="2831.02" y="-343.5" font-family="Helvetica,sans-Serif" font-size="10.00">llvm/ADT/DenseMap.h</text>
</a>
</g>
</g>
<!-- Node0&#45;&gt;Node48 -->
<g id="edge180" class="edge">
<title>Node0&#45;&gt;Node48</title>
<path fill="none" stroke="midnightblue" d="M2284.87,-677.57C2369.67,-672.08 2516.99,-659.45 2565.02,-636 2602.02,-617.93 2631.02,-612.17 2631.02,-571 2631.02,-571 2631.02,-571 2631.02,-457 2631.02,-395.28 2705.04,-367.95 2763.02,-356"/>
<polygon fill="midnightblue" stroke="midnightblue" points="2763.76,-359.42 2772.9,-354.08 2762.42,-352.55 2763.76,-359.42"/>
</g>
<!-- Node63 -->
<g id="node35" class="node">
<title>Node63</title>
<g id="a_node35"><a xlink:href="raw__ostream_8h.html" target="_top" xlink:title="llvm/Support/raw_ostream.h">
<polygon fill="none" stroke="black" points="2153.52,-280.5 2153.52,-299.5 2292.52,-299.5 2292.52,-280.5 2153.52,-280.5"/>
<text text-anchor="middle" x="2223.02" y="-287.5" font-family="Helvetica,sans-Serif" font-size="10.00">llvm/Support/raw_ostream.h</text>
</a>
</g>
</g>
<!-- Node0&#45;&gt;Node63 -->
<g id="edge198" class="edge">
<title>Node0&#45;&gt;Node63</title>
<path fill="none" stroke="midnightblue" d="M2223.02,-672.44C2223.02,-653.94 2223.02,-608.81 2223.02,-571 2223.02,-571 2223.02,-571 2223.02,-401 2223.02,-368.95 2223.02,-331.64 2223.02,-309.75"/>
<polygon fill="midnightblue" stroke="midnightblue" points="2226.52,-309.56 2223.02,-299.56 2219.52,-309.56 2226.52,-309.56"/>
</g>
<!-- Node81 -->
<g id="node47" class="node">
<title>Node81</title>
<g id="a_node47"><a xlink:href="Debug_8h.html" target="_top" xlink:title="llvm/Support/Debug.h">
<polygon fill="none" stroke="black" points="2653.52,-280.5 2653.52,-299.5 2764.52,-299.5 2764.52,-280.5 2653.52,-280.5"/>
<text text-anchor="middle" x="2709.02" y="-287.5" font-family="Helvetica,sans-Serif" font-size="10.00">llvm/Support/Debug.h</text>
</a>
</g>
</g>
<!-- Node0&#45;&gt;Node81 -->
<g id="edge182" class="edge">
<title>Node0&#45;&gt;Node81</title>
<path fill="none" stroke="midnightblue" d="M2284.72,-673.13C2379.73,-659.26 2551.02,-626.56 2551.02,-571 2551.02,-571 2551.02,-571 2551.02,-401 2551.02,-346.39 2615.37,-316.68 2661.94,-302.33"/>
<polygon fill="midnightblue" stroke="midnightblue" points="2662.97,-305.68 2671.58,-299.5 2661,-298.96 2662.97,-305.68"/>
</g>
<!-- Node83 -->
<g id="node48" class="node">
<title>Node83</title>
<g id="a_node48"><a xlink:href="APInt_8h.html" target="_top" xlink:title="This file implements a class to represent arbitrary precision integral constant values and operations...">
<polygon fill="none" stroke="black" points="3376.02,-224.5 3376.02,-243.5 3470.02,-243.5 3470.02,-224.5 3376.02,-224.5"/>
<text text-anchor="middle" x="3423.02" y="-231.5" font-family="Helvetica,sans-Serif" font-size="10.00">llvm/ADT/APInt.h</text>
</a>
</g>
</g>
<!-- Node0&#45;&gt;Node83 -->
<g id="edge173" class="edge">
<title>Node0&#45;&gt;Node83</title>
<path fill="none" stroke="midnightblue" d="M2284.61,-679.66C2562.85,-673.19 3689.02,-642.58 3689.02,-571 3689.02,-571 3689.02,-571 3689.02,-345 3689.02,-255.45 3558.68,-237.37 3480.47,-234.58"/>
<polygon fill="midnightblue" stroke="midnightblue" points="3480.37,-231.08 3470.27,-234.29 3480.17,-238.07 3480.37,-231.08"/>
</g>
<!-- Node84 -->
<g id="node49" class="node">
<title>Node84</title>
<g id="a_node49"><a xlink:href="WithColor_8h.html" target="_top" xlink:title="llvm/Support/WithColor.h">
<polygon fill="none" stroke="black" points="2021.02,-392.5 2021.02,-411.5 2147.02,-411.5 2147.02,-392.5 2021.02,-392.5"/>
<text text-anchor="middle" x="2084.02" y="-399.5" font-family="Helvetica,sans-Serif" font-size="10.00">llvm/Support/WithColor.h</text>
</a>
</g>
</g>
<!-- Node0&#45;&gt;Node84 -->
<g id="edge183" class="edge">
<title>Node0&#45;&gt;Node84</title>
<path fill="none" stroke="midnightblue" d="M2208.88,-672.36C2184.01,-655.95 2135.02,-617.71 2135.02,-571 2135.02,-571 2135.02,-571 2135.02,-513 2135.02,-477.24 2112.57,-440.51 2097.46,-419.84"/>
<polygon fill="midnightblue" stroke="midnightblue" points="2100.17,-417.61 2091.33,-411.77 2094.59,-421.85 2100.17,-417.61"/>
</g>
<!-- Node2 -->
<g id="node3" class="node">
<title>Node2</title>
<g id="a_node3"><a xlink:href="MCInstrAnalysis_8h.html" target="_top" xlink:title="llvm/MC/MCInstrAnalysis.h">
<polygon fill="none" stroke="black" points="604.52,-560.5 604.52,-579.5 741.52,-579.5 741.52,-560.5 604.52,-560.5"/>
<text text-anchor="middle" x="673.02" y="-567.5" font-family="Helvetica,sans-Serif" font-size="10.00">llvm/MC/MCInstrAnalysis.h</text>
</a>
</g>
</g>
<!-- Node1&#45;&gt;Node2 -->
<g id="edge2" class="edge">
<title>Node1&#45;&gt;Node2</title>
<path fill="none" stroke="midnightblue" d="M1163.48,-619.07C1063.31,-609.25 863.13,-589.63 751.99,-578.74"/>
<polygon fill="midnightblue" stroke="midnightblue" points="752.14,-575.24 741.84,-577.74 751.46,-582.2 752.14,-575.24"/>
</g>
<!-- Node47 -->
<g id="node28" class="node">
<title>Node47</title>
<g id="a_node28"><a xlink:href="MCRegisterInfo_8h.html" target="_top" xlink:title="llvm/MC/MCRegisterInfo.h">
<polygon fill="none" stroke="black" points="783.02,-392.5 783.02,-411.5 917.02,-411.5 917.02,-392.5 783.02,-392.5"/>
<text text-anchor="middle" x="850.02" y="-399.5" font-family="Helvetica,sans-Serif" font-size="10.00">llvm/MC/MCRegisterInfo.h</text>
</a>
</g>
</g>
<!-- Node1&#45;&gt;Node47 -->
<g id="edge126" class="edge">
<title>Node1&#45;&gt;Node47</title>
<path fill="none" stroke="midnightblue" d="M1209.36,-616.3C1152.22,-582.38 944.13,-458.86 873.59,-416.99"/>
<polygon fill="midnightblue" stroke="midnightblue" points="874.97,-413.74 864.58,-411.64 871.39,-419.76 874.97,-413.74"/>
</g>
<!-- Node66 -->
<g id="node38" class="node">
<title>Node66</title>
<g id="a_node38"><a xlink:href="MCInstrInfo_8h.html" target="_top" xlink:title="llvm/MC/MCInstrInfo.h">
<polygon fill="none" stroke="black" points="147.02,-504.5 147.02,-523.5 263.02,-523.5 263.02,-504.5 147.02,-504.5"/>
<text text-anchor="middle" x="205.02" y="-511.5" font-family="Helvetica,sans-Serif" font-size="10.00">llvm/MC/MCInstrInfo.h</text>
</a>
</g>
</g>
<!-- Node1&#45;&gt;Node66 -->
<g id="edge125" class="edge">
<title>Node1&#45;&gt;Node66</title>
<path fill="none" stroke="midnightblue" d="M1163.22,-622.53C1050.88,-617.54 803.34,-604.61 596.02,-580 474.63,-565.59 333.43,-539.88 258.37,-525.49"/>
<polygon fill="midnightblue" stroke="midnightblue" points="258.71,-521.99 248.23,-523.54 257.39,-528.87 258.71,-521.99"/>
</g>
<!-- Node67 -->
<g id="node39" class="node">
<title>Node67</title>
<g id="a_node39"><a xlink:href="MCSubtargetInfo_8h.html" target="_top" xlink:title="llvm/MC/MCSubtargetInfo.h">
<polygon fill="none" stroke="black" points="422.52,-392.5 422.52,-411.5 561.52,-411.5 561.52,-392.5 422.52,-392.5"/>
<text text-anchor="middle" x="492.02" y="-399.5" font-family="Helvetica,sans-Serif" font-size="10.00">llvm/MC/MCSubtargetInfo.h</text>
</a>
</g>
</g>
<!-- Node1&#45;&gt;Node67 -->
<g id="edge127" class="edge">
<title>Node1&#45;&gt;Node67</title>
<path fill="none" stroke="midnightblue" d="M1163.34,-624.21C944.36,-620.71 204.22,-603.09 138.02,-524 59.99,-430.77 285.32,-409.19 412.11,-404.32"/>
<polygon fill="midnightblue" stroke="midnightblue" points="412.32,-407.81 422.19,-403.96 412.07,-400.82 412.32,-407.81"/>
</g>
<!-- Node74 -->
<g id="node44" class="node">
<title>Node74</title>
<g id="a_node44"><a xlink:href="MCA_2Instruction_8h.html" target="_top" xlink:title="This file defines abstractions used by the Pipeline to model register reads, register writes and inst...">
<polygon fill="none" stroke="red" points="1762.52,-392.5 1762.52,-411.5 1879.52,-411.5 1879.52,-392.5 1762.52,-392.5"/>
<text text-anchor="middle" x="1821.02" y="-399.5" font-family="Helvetica,sans-Serif" font-size="10.00">llvm/MCA/Instruction.h</text>
</a>
</g>
</g>
<!-- Node1&#45;&gt;Node74 -->
<g id="edge146" class="edge">
<title>Node1&#45;&gt;Node74</title>
<path fill="none" stroke="midnightblue" d="M1242.85,-616.46C1302.87,-589.42 1495.35,-504.24 1660.02,-448 1698.68,-434.8 1743.51,-422.51 1776.03,-414.12"/>
<polygon fill="midnightblue" stroke="midnightblue" points="1777.31,-417.4 1786.13,-411.54 1775.57,-410.62 1777.31,-417.4"/>
</g>
<!-- Node75 -->
<g id="node45" class="node">
<title>Node75</title>
<g id="a_node45"><a xlink:href="MCA_2Support_8h.html" target="_top" xlink:title="Helper functions used by various pipeline components. ">
<polygon fill="none" stroke="black" points="1897.52,-392.5 1897.52,-411.5 2002.52,-411.5 2002.52,-392.5 1897.52,-392.5"/>
<text text-anchor="middle" x="1950.02" y="-399.5" font-family="Helvetica,sans-Serif" font-size="10.00">llvm/MCA/Support.h</text>
</a>
</g>
</g>
<!-- Node1&#45;&gt;Node75 -->
<g id="edge153" class="edge">
<title>Node1&#45;&gt;Node75</title>
<path fill="none" stroke="midnightblue" d="M1252.04,-616.43C1364.56,-582.03 1783.75,-453.84 1912.3,-414.54"/>
<polygon fill="midnightblue" stroke="midnightblue" points="1913.55,-417.81 1922.09,-411.54 1911.5,-411.12 1913.55,-417.81"/>
</g>
<!-- Node76 -->
<g id="node46" class="node">
<title>Node76</title>
<g id="a_node46"><a xlink:href="Support_2Error_8h.html" target="_top" xlink:title="llvm/Support/Error.h">
<polygon fill="none" stroke="red" points="2260.02,-336.5 2260.02,-355.5 2364.02,-355.5 2364.02,-336.5 2260.02,-336.5"/>
<text text-anchor="middle" x="2312.02" y="-343.5" font-family="Helvetica,sans-Serif" font-size="10.00">llvm/Support/Error.h</text>
</a>
</g>
</g>
<!-- Node1&#45;&gt;Node76 -->
<g id="edge172" class="edge">
<title>Node1&#45;&gt;Node76</title>
<path fill="none" stroke="midnightblue" d="M1284.7,-625.11C1509.52,-624.71 2282.02,-615.99 2282.02,-515 2282.02,-515 2282.02,-515 2282.02,-457 2282.02,-423.64 2295.02,-386.53 2303.91,-365.07"/>
<polygon fill="midnightblue" stroke="midnightblue" points="2307.23,-366.19 2307.98,-355.62 2300.81,-363.42 2307.23,-366.19"/>
</g>
<!-- Node2&#45;&gt;Node3 -->
<g id="edge3" class="edge">
<title>Node2&#45;&gt;Node3</title>
<path fill="none" stroke="midnightblue" d="M673.02,-560.44C673.02,-541.94 673.02,-496.81 673.02,-459 673.02,-459 673.02,-459 673.02,-401 673.02,-368.95 673.02,-331.64 673.02,-309.75"/>
<polygon fill="midnightblue" stroke="midnightblue" points="676.52,-309.56 673.02,-299.56 669.52,-309.56 676.52,-309.56"/>
</g>
<!-- Node42 -->
<g id="node24" class="node">
<title>Node42</title>
<polygon fill="none" stroke="#bfbfbf" points="641.02,-112.5 641.02,-131.5 687.02,-131.5 687.02,-112.5 641.02,-112.5"/>
<text text-anchor="middle" x="664.02" y="-119.5" font-family="Helvetica,sans-Serif" font-size="10.00">cstdint</text>
</g>
<!-- Node2&#45;&gt;Node42 -->
<g id="edge124" class="edge">
<title>Node2&#45;&gt;Node42</title>
<path fill="none" stroke="midnightblue" d="M605.88,-560.46C500.79,-543.07 300.45,-492.83 213.02,-356 161.71,-275.7 518.9,-164.8 631.07,-132.3"/>
<polygon fill="midnightblue" stroke="midnightblue" points="632.19,-135.62 640.83,-129.49 630.26,-128.89 632.19,-135.62"/>
</g>
<!-- Node46 -->
<g id="node27" class="node">
<title>Node46</title>
<g id="a_node27"><a xlink:href="MCInstrDesc_8h.html" target="_top" xlink:title="llvm/MC/MCInstrDesc.h">
<polygon fill="none" stroke="red" points="745.52,-448.5 745.52,-467.5 868.52,-467.5 868.52,-448.5 745.52,-448.5"/>
<text text-anchor="middle" x="807.02" y="-455.5" font-family="Helvetica,sans-Serif" font-size="10.00">llvm/MC/MCInstrDesc.h</text>
</a>
</g>
</g>
<!-- Node2&#45;&gt;Node46 -->
<g id="edge64" class="edge">
<title>Node2&#45;&gt;Node46</title>
<path fill="none" stroke="midnightblue" d="M683.54,-560.37C706.24,-541.73 760.08,-497.53 788.59,-474.13"/>
<polygon fill="midnightblue" stroke="midnightblue" points="791.05,-476.64 796.56,-467.59 786.61,-471.23 791.05,-476.64"/>
</g>
<!-- Node2&#45;&gt;Node66 -->
<g id="edge121" class="edge">
<title>Node2&#45;&gt;Node66</title>
<path fill="none" stroke="midnightblue" d="M604.32,-561.43C525.32,-552.67 391.76,-537.69 277.02,-524 275.76,-523.85 274.48,-523.7 273.19,-523.54"/>
<polygon fill="midnightblue" stroke="midnightblue" points="273.52,-520.06 263.17,-522.33 272.68,-527 273.52,-520.06"/>
</g>
<!-- Node4 -->
<g id="node5" class="node">
<title>Node4</title>
<g id="a_node5"><a xlink:href="SmallVector_8h.html" target="_top" xlink:title="llvm/ADT/SmallVector.h">
<polygon fill="none" stroke="red" points="2465.02,-168.5 2465.02,-187.5 2587.02,-187.5 2587.02,-168.5 2465.02,-168.5"/>
<text text-anchor="middle" x="2526.02" y="-175.5" font-family="Helvetica,sans-Serif" font-size="10.00">llvm/ADT/SmallVector.h</text>
</a>
</g>
</g>
<!-- Node3&#45;&gt;Node4 -->
<g id="edge4" class="edge">
<title>Node3&#45;&gt;Node4</title>
<path fill="none" stroke="midnightblue" d="M721.52,-286.29C839.77,-279.64 1152.34,-261.73 1413.02,-244 1531.3,-235.96 1560.71,-231.59 1679.02,-224 1966.4,-205.56 2308.98,-189.04 2454.73,-182.26"/>
<polygon fill="midnightblue" stroke="midnightblue" points="2455.05,-185.75 2464.88,-181.79 2454.73,-178.75 2455.05,-185.75"/>
</g>
<!-- Node12 -->
<g id="node11" class="node">
<title>Node12</title>
<polygon fill="none" stroke="#bfbfbf" points="1870.52,-56.5 1870.52,-75.5 1919.52,-75.5 1919.52,-56.5 1870.52,-56.5"/>
<text text-anchor="middle" x="1895.02" y="-63.5" font-family="Helvetica,sans-Serif" font-size="10.00">cstddef</text>
</g>
<!-- Node3&#45;&gt;Node12 -->
<g id="edge62" class="edge">
<title>Node3&#45;&gt;Node12</title>
<path fill="none" stroke="midnightblue" d="M721.82,-283.82C913.65,-263.43 1605.68,-189.81 1611.02,-188 1627.27,-182.51 1628.68,-175.67 1644.02,-168 1646.64,-166.69 1797.26,-106.22 1863.89,-79.49"/>
<polygon fill="midnightblue" stroke="midnightblue" points="1865.48,-82.62 1873.46,-75.65 1862.87,-76.13 1865.48,-82.62"/>
</g>
<!-- Node24 -->
<g id="node14" class="node">
<title>Node24</title>
<polygon fill="none" stroke="#bfbfbf" points="623.52,-56.5 623.52,-75.5 672.52,-75.5 672.52,-56.5 623.52,-56.5"/>
<text text-anchor="middle" x="648.02" y="-63.5" font-family="Helvetica,sans-Serif" font-size="10.00">cassert</text>
</g>
<!-- Node3&#45;&gt;Node24 -->
<g id="edge61" class="edge">
<title>Node3&#45;&gt;Node24</title>
<path fill="none" stroke="midnightblue" d="M667.03,-280.48C661.21,-271.74 652.58,-257.55 648.02,-244 631.99,-196.34 635.59,-182.16 632.02,-132 631.39,-123.13 630.51,-120.76 632.02,-112 633.59,-102.91 636.82,-93.22 639.96,-85.17"/>
<polygon fill="midnightblue" stroke="midnightblue" points="643.29,-86.3 643.91,-75.72 636.83,-83.6 643.29,-86.3"/>
</g>
<!-- Node36 -->
<g id="node21" class="node">
<title>Node36</title>
<g id="a_node21"><a xlink:href="StringRef_8h.html" target="_top" xlink:title="llvm/ADT/StringRef.h">
<polygon fill="none" stroke="red" points="1688.02,-224.5 1688.02,-243.5 1798.02,-243.5 1798.02,-224.5 1688.02,-224.5"/>
<text text-anchor="middle" x="1743.02" y="-231.5" font-family="Helvetica,sans-Serif" font-size="10.00">llvm/ADT/StringRef.h</text>
</a>
</g>
</g>
<!-- Node3&#45;&gt;Node36 -->
<g id="edge32" class="edge">
<title>Node3&#45;&gt;Node36</title>
<path fill="none" stroke="midnightblue" d="M721.78,-286.54C894.99,-277.8 1480.81,-248.23 1677.79,-238.29"/>
<polygon fill="midnightblue" stroke="midnightblue" points="1678.17,-241.78 1687.98,-237.78 1677.82,-234.79 1678.17,-241.78"/>
</g>
<!-- Node3&#45;&gt;Node42 -->
<g id="edge63" class="edge">
<title>Node3&#45;&gt;Node42</title>
<path fill="none" stroke="midnightblue" d="M669.28,-280.23C661.25,-260.35 643.6,-210.28 650.02,-168 651.39,-159 654.21,-149.33 656.97,-141.26"/>
<polygon fill="midnightblue" stroke="midnightblue" points="660.29,-142.37 660.42,-131.78 653.71,-139.98 660.29,-142.37"/>
</g>
<!-- Node45 -->
<g id="node26" class="node">
<title>Node45</title>
<g id="a_node26"><a xlink:href="SMLoc_8h.html" target="_top" xlink:title="llvm/Support/SMLoc.h">
<polygon fill="none" stroke="red" points="332.52,-168.5 332.52,-187.5 445.52,-187.5 445.52,-168.5 332.52,-168.5"/>
<text text-anchor="middle" x="389.02" y="-175.5" font-family="Helvetica,sans-Serif" font-size="10.00">llvm/Support/SMLoc.h</text>
</a>
</g>
</g>
<!-- Node3&#45;&gt;Node45 -->
<g id="edge59" class="edge">
<title>Node3&#45;&gt;Node45</title>
<path fill="none" stroke="midnightblue" d="M647.15,-280.5C620.99,-271.77 579.45,-257.59 544.02,-244 537.83,-241.62 462.23,-209.83 418.95,-191.61"/>
<polygon fill="midnightblue" stroke="midnightblue" points="420.05,-188.27 409.47,-187.62 417.33,-194.72 420.05,-188.27"/>
</g>
<!-- Node5 -->
<g id="node6" class="node">
<title>Node5</title>
<g id="a_node6"><a xlink:href="iterator__range_8h.html" target="_top" xlink:title="This provides a very simple, boring adaptor for a begin and end iterator into a range type...">
<polygon fill="none" stroke="black" points="1427.02,-56.5 1427.02,-75.5 1555.02,-75.5 1555.02,-56.5 1427.02,-56.5"/>
<text text-anchor="middle" x="1491.02" y="-63.5" font-family="Helvetica,sans-Serif" font-size="10.00">llvm/ADT/iterator_range.h</text>
</a>
</g>
</g>
<!-- Node4&#45;&gt;Node5 -->
<g id="edge5" class="edge">
<title>Node4&#45;&gt;Node5</title>
<path fill="none" stroke="midnightblue" d="M2508.51,-168.38C2490.8,-159.56 2462.75,-145.31 2439.02,-132 2424.06,-123.61 2422.42,-117.02 2406.02,-112 2326.71,-87.73 1769.1,-73.13 1565.34,-68.56"/>
<polygon fill="midnightblue" stroke="midnightblue" points="1565.41,-65.06 1555.33,-68.34 1565.25,-72.06 1565.41,-65.06"/>
</g>
<!-- Node6 -->
<g id="node7" class="node">
<title>Node6</title>
<polygon fill="none" stroke="#bfbfbf" points="1373.52,-0.5 1373.52,-19.5 1420.52,-19.5 1420.52,-0.5 1373.52,-0.5"/>
<text text-anchor="middle" x="1397.02" y="-7.5" font-family="Helvetica,sans-Serif" font-size="10.00">iterator</text>
</g>
<!-- Node4&#45;&gt;Node6 -->
<g id="edge28" class="edge">
<title>Node4&#45;&gt;Node6</title>
<path fill="none" stroke="midnightblue" d="M2521.64,-168.42C2513.74,-153.95 2495.6,-124.97 2471.02,-112 2284.23,-13.39 1592.78,-10.14 1431.03,-10.76"/>
<polygon fill="midnightblue" stroke="midnightblue" points="1430.71,-7.26 1420.73,-10.81 1430.74,-14.26 1430.71,-7.26"/>
</g>
<!-- Node7 -->
<g id="node8" class="node">
<title>Node7</title>
<polygon fill="none" stroke="#bfbfbf" points="2380.02,-0.5 2380.02,-19.5 2420.02,-19.5 2420.02,-0.5 2380.02,-0.5"/>
<text text-anchor="middle" x="2400.02" y="-7.5" font-family="Helvetica,sans-Serif" font-size="10.00">utility</text>
</g>
<!-- Node4&#45;&gt;Node7 -->
<g id="edge31" class="edge">
<title>Node4&#45;&gt;Node7</title>
<path fill="none" stroke="midnightblue" d="M2526.34,-168.41C2526.45,-155.37 2525.17,-130.19 2515.02,-112 2493.37,-73.18 2450.91,-41.97 2424.08,-25"/>
<polygon fill="midnightblue" stroke="midnightblue" points="2425.66,-21.86 2415.31,-19.6 2421.99,-27.82 2425.66,-21.86"/>
</g>
<!-- Node8 -->
<g id="node9" class="node">
<title>Node8</title>
<g id="a_node9"><a xlink:href="AlignOf_8h.html" target="_top" xlink:title="llvm/Support/AlignOf.h">
<polygon fill="none" stroke="black" points="2281.52,-112.5 2281.52,-131.5 2396.52,-131.5 2396.52,-112.5 2281.52,-112.5"/>
<text text-anchor="middle" x="2339.02" y="-119.5" font-family="Helvetica,sans-Serif" font-size="10.00">llvm/Support/AlignOf.h</text>
</a>
</g>
</g>
<!-- Node4&#45;&gt;Node8 -->
<g id="edge8" class="edge">
<title>Node4&#45;&gt;Node8</title>
<path fill="none" stroke="midnightblue" d="M2496.39,-168.44C2464.52,-159.24 2413.69,-144.56 2378.46,-134.39"/>
<polygon fill="midnightblue" stroke="midnightblue" points="2379.09,-130.93 2368.51,-131.52 2377.15,-137.65 2379.09,-130.93"/>
</g>
<!-- Node9 -->
<g id="node10" class="node">
<title>Node9</title>
<g id="a_node10"><a xlink:href="Compiler_8h.html" target="_top" xlink:title="llvm/Support/Compiler.h">
<polygon fill="none" stroke="red" points="3067.02,-56.5 3067.02,-75.5 3189.02,-75.5 3189.02,-56.5 3067.02,-56.5"/>
<text text-anchor="middle" x="3128.02" y="-63.5" font-family="Helvetica,sans-Serif" font-size="10.00">llvm/Support/Compiler.h</text>
</a>
</g>
</g>
<!-- Node4&#45;&gt;Node9 -->
<g id="edge11" class="edge">
<title>Node4&#45;&gt;Node9</title>
<path fill="none" stroke="midnightblue" d="M2550.44,-168.44C2591.11,-154.5 2675.52,-126.97 2749.02,-112 2855.12,-90.39 2980.2,-78.03 3056.79,-71.92"/>
<polygon fill="midnightblue" stroke="midnightblue" points="3057.11,-75.41 3066.81,-71.14 3056.57,-68.43 3057.11,-75.41"/>
</g>
<!-- Node4&#45;&gt;Node12 -->
<g id="edge25" class="edge">
<title>Node4&#45;&gt;Node12</title>
<path fill="none" stroke="midnightblue" d="M2517.88,-168.34C2503.55,-153.73 2472.17,-124.56 2439.02,-112 2391.53,-94.01 2042.23,-74.6 1929.79,-68.76"/>
<polygon fill="midnightblue" stroke="midnightblue" points="1929.83,-65.26 1919.66,-68.24 1929.47,-72.25 1929.83,-65.26"/>
</g>
<!-- Node13 -->
<g id="node12" class="node">
<title>Node13</title>
<g id="a_node12"><a xlink:href="MathExtras_8h.html" target="_top" xlink:title="llvm/Support/MathExtras.h">
<polygon fill="none" stroke="red" points="3109.52,-112.5 3109.52,-131.5 3242.52,-131.5 3242.52,-112.5 3109.52,-112.5"/>
<text text-anchor="middle" x="3176.02" y="-119.5" font-family="Helvetica,sans-Serif" font-size="10.00">llvm/Support/MathExtras.h</text>
</a>
</g>
</g>
<!-- Node4&#45;&gt;Node13 -->
<g id="edge12" class="edge">
<title>Node4&#45;&gt;Node13</title>
<path fill="none" stroke="midnightblue" d="M2587.17,-171.92C2706.1,-162.04 2968.3,-140.26 3098.93,-129.4"/>
<polygon fill="midnightblue" stroke="midnightblue" points="3099.57,-132.86 3109.24,-128.55 3098.99,-125.89 3099.57,-132.86"/>
</g>
<!-- Node23 -->
<g id="node13" class="node">
<title>Node23</title>
<polygon fill="none" stroke="#bfbfbf" points="1217.02,-56.5 1217.02,-75.5 1273.02,-75.5 1273.02,-56.5 1217.02,-56.5"/>
<text text-anchor="middle" x="1245.02" y="-63.5" font-family="Helvetica,sans-Serif" font-size="10.00">algorithm</text>
</g>
<!-- Node4&#45;&gt;Node23 -->
<g id="edge23" class="edge">
<title>Node4&#45;&gt;Node23</title>
<path fill="none" stroke="midnightblue" d="M2464.71,-175.66C2277.15,-171.33 1712.88,-156.58 1531.02,-132 1440.95,-119.83 1337.44,-93.03 1283.02,-77.92"/>
<polygon fill="midnightblue" stroke="midnightblue" points="1283.7,-74.47 1273.13,-75.15 1281.82,-81.22 1283.7,-74.47"/>
</g>
<!-- Node4&#45;&gt;Node24 -->
<g id="edge24" class="edge">
<title>Node4&#45;&gt;Node24</title>
<path fill="none" stroke="midnightblue" d="M2464.99,-175.43C2298.07,-170.93 1819.93,-156.73 1423.02,-132 1275.56,-122.81 813.84,-81.83 682.93,-70.13"/>
<polygon fill="midnightblue" stroke="midnightblue" points="682.97,-66.62 672.69,-69.21 682.34,-73.59 682.97,-66.62"/>
</g>
<!-- Node26 -->
<g id="node16" class="node">
<title>Node26</title>
<polygon fill="none" stroke="#bfbfbf" points="3387.02,-56.5 3387.02,-75.5 3433.02,-75.5 3433.02,-56.5 3387.02,-56.5"/>
<text text-anchor="middle" x="3410.02" y="-63.5" font-family="Helvetica,sans-Serif" font-size="10.00">cstring</text>
</g>
<!-- Node4&#45;&gt;Node26 -->
<g id="edge26" class="edge">
<title>Node4&#45;&gt;Node26</title>
<path fill="none" stroke="midnightblue" d="M2587.21,-172.48C2675.5,-165.62 2843.69,-151.31 2986.02,-132 3037.43,-125.03 3049.79,-120.18 3101.02,-112 3201.1,-96.01 3319.8,-79.38 3376.55,-71.57"/>
<polygon fill="midnightblue" stroke="midnightblue" points="3377.3,-75 3386.73,-70.17 3376.35,-68.06 3377.3,-75"/>
</g>
<!-- Node21 -->
<g id="node17" class="node">
<title>Node21</title>
<polygon fill="none" stroke="#bfbfbf" points="2584.02,-56.5 2584.02,-75.5 2646.02,-75.5 2646.02,-56.5 2584.02,-56.5"/>
<text text-anchor="middle" x="2615.02" y="-63.5" font-family="Helvetica,sans-Serif" font-size="10.00">type_traits</text>
</g>
<!-- Node4&#45;&gt;Node21 -->
<g id="edge30" class="edge">
<title>Node4&#45;&gt;Node21</title>
<path fill="none" stroke="midnightblue" d="M2533.01,-168.37C2547.76,-150.14 2582.31,-107.43 2601.53,-83.68"/>
<polygon fill="midnightblue" stroke="midnightblue" points="2604.5,-85.57 2608.07,-75.59 2599.06,-81.16 2604.5,-85.57"/>
</g>
<!-- Node32 -->
<g id="node18" class="node">
<title>Node32</title>
<g id="a_node18"><a xlink:href="type__traits_8h.html" target="_top" xlink:title="llvm/Support/type_traits.h">
<polygon fill="none" stroke="black" points="2849.02,-112.5 2849.02,-131.5 2977.02,-131.5 2977.02,-112.5 2849.02,-112.5"/>
<text text-anchor="middle" x="2913.02" y="-119.5" font-family="Helvetica,sans-Serif" font-size="10.00">llvm/Support/type_traits.h</text>
</a>
</g>
</g>
<!-- Node4&#45;&gt;Node32 -->
<g id="edge19" class="edge">
<title>Node4&#45;&gt;Node32</title>
<path fill="none" stroke="midnightblue" d="M2587.34,-168.44C2656.55,-158.79 2768.98,-143.1 2841.96,-132.92"/>
<polygon fill="midnightblue" stroke="midnightblue" points="2842.57,-136.36 2851.99,-131.52 2841.6,-129.43 2842.57,-136.36"/>
</g>
<!-- Node33 -->
<g id="node19" class="node">
<title>Node33</title>
<polygon fill="none" stroke="#bfbfbf" points="2075.52,-112.5 2075.52,-131.5 2148.52,-131.5 2148.52,-112.5 2075.52,-112.5"/>
<text text-anchor="middle" x="2112.02" y="-119.5" font-family="Helvetica,sans-Serif" font-size="10.00">initializer_list</text>
</g>
<!-- Node4&#45;&gt;Node33 -->
<g id="edge27" class="edge">
<title>Node4&#45;&gt;Node33</title>
<path fill="none" stroke="midnightblue" d="M2464.93,-169.03C2381.58,-158.16 2234.02,-138.91 2158.85,-129.11"/>
<polygon fill="midnightblue" stroke="midnightblue" points="2159.11,-125.61 2148.74,-127.79 2158.2,-132.55 2159.11,-125.61"/>
</g>
<!-- Node35 -->
<g id="node20" class="node">
<title>Node35</title>
<polygon fill="none" stroke="#bfbfbf" points="2757.52,-112.5 2757.52,-131.5 2792.52,-131.5 2792.52,-112.5 2757.52,-112.5"/>
<text text-anchor="middle" x="2775.02" y="-119.5" font-family="Helvetica,sans-Serif" font-size="10.00">new</text>
</g>
<!-- Node4&#45;&gt;Node35 -->
<g id="edge29" class="edge">
<title>Node4&#45;&gt;Node35</title>
<path fill="none" stroke="midnightblue" d="M2565.48,-168.44C2616.28,-157.43 2703.27,-138.56 2747.48,-128.97"/>
<polygon fill="midnightblue" stroke="midnightblue" points="2748.47,-132.34 2757.5,-126.8 2746.98,-125.5 2748.47,-132.34"/>
</g>
<!-- Node5&#45;&gt;Node6 -->
<g id="edge6" class="edge">
<title>Node5&#45;&gt;Node6</title>
<path fill="none" stroke="midnightblue" d="M1475.92,-56.32C1461.12,-47.82 1438.33,-34.73 1421.04,-24.8"/>
<polygon fill="midnightblue" stroke="midnightblue" points="1422.5,-21.6 1412.09,-19.65 1419.01,-27.67 1422.5,-21.6"/>
</g>
<!-- Node5&#45;&gt;Node7 -->
<g id="edge7" class="edge">
<title>Node5&#45;&gt;Node7</title>
<path fill="none" stroke="midnightblue" d="M1555.06,-60.03C1573.45,-58.66 1593.52,-57.22 1612.02,-56 1907.18,-36.6 2264.84,-17.92 2369.75,-12.54"/>
<polygon fill="midnightblue" stroke="midnightblue" points="2370.11,-16.03 2379.92,-12.02 2369.76,-9.04 2370.11,-16.03"/>
</g>
<!-- Node8&#45;&gt;Node9 -->
<g id="edge9" class="edge">
<title>Node8&#45;&gt;Node9</title>
<path fill="none" stroke="midnightblue" d="M2396.72,-117.05C2538.14,-107.37 2901.77,-82.49 3056.55,-71.89"/>
<polygon fill="midnightblue" stroke="midnightblue" points="3057.15,-75.36 3066.88,-71.18 3056.67,-68.38 3057.15,-75.36"/>
</g>
<!-- Node8&#45;&gt;Node12 -->
<g id="edge10" class="edge">
<title>Node8&#45;&gt;Node12</title>
<path fill="none" stroke="midnightblue" d="M2281.26,-113.76C2276.44,-113.16 2271.65,-112.57 2267.02,-112 2143.17,-96.77 1996.06,-79.1 1930.09,-71.19"/>
<polygon fill="midnightblue" stroke="midnightblue" points="1930.19,-67.68 1919.84,-69.97 1929.35,-74.63 1930.19,-67.68"/>
</g>
<!-- Node13&#45;&gt;Node9 -->
<g id="edge13" class="edge">
<title>Node13&#45;&gt;Node9</title>
<path fill="none" stroke="midnightblue" d="M3168.1,-112.08C3161.18,-104.3 3150.96,-92.8 3142.57,-83.37"/>
<polygon fill="midnightblue" stroke="midnightblue" points="3145.06,-80.9 3135.8,-75.75 3139.83,-85.55 3145.06,-80.9"/>
</g>
<!-- Node13&#45;&gt;Node23 -->
<g id="edge14" class="edge">
<title>Node13&#45;&gt;Node23</title>
<path fill="none" stroke="midnightblue" d="M3109.21,-117.44C3072.8,-115.6 3026.94,-113.44 2986.02,-112 2289.38,-87.51 2114.6,-102.11 1418.02,-76 1371.72,-74.26 1318.49,-71.36 1283.44,-69.32"/>
<polygon fill="midnightblue" stroke="midnightblue" points="1283.37,-65.81 1273.18,-68.72 1282.95,-72.8 1283.37,-65.81"/>
</g>
<!-- Node13&#45;&gt;Node24 -->
<g id="edge15" class="edge">
<title>Node13&#45;&gt;Node24</title>
<path fill="none" stroke="midnightblue" d="M3109.21,-117.38C3072.8,-115.52 3026.95,-113.36 2986.02,-112 2746.28,-104.02 956.47,-72.42 683.02,-67.61"/>
<polygon fill="midnightblue" stroke="midnightblue" points="682.94,-64.11 672.88,-67.44 682.82,-71.11 682.94,-64.11"/>
</g>
<!-- Node25 -->
<g id="node15" class="node">
<title>Node25</title>
<polygon fill="none" stroke="#bfbfbf" points="3476.52,-56.5 3476.52,-75.5 3521.52,-75.5 3521.52,-56.5 3476.52,-56.5"/>
<text text-anchor="middle" x="3499.02" y="-63.5" font-family="Helvetica,sans-Serif" font-size="10.00">climits</text>
</g>
<!-- Node13&#45;&gt;Node25 -->
<g id="edge16" class="edge">
<title>Node13&#45;&gt;Node25</title>
<path fill="none" stroke="midnightblue" d="M3227.2,-112.44C3294.21,-101.24 3409.77,-81.92 3466.16,-72.49"/>
<polygon fill="midnightblue" stroke="midnightblue" points="3467.01,-75.9 3476.29,-70.8 3465.85,-69 3467.01,-75.9"/>
</g>
<!-- Node13&#45;&gt;Node26 -->
<g id="edge17" class="edge">
<title>Node13&#45;&gt;Node26</title>
<path fill="none" stroke="midnightblue" d="M3213.1,-112.44C3258.22,-102.03 3333.72,-84.61 3376.95,-74.63"/>
<polygon fill="midnightblue" stroke="midnightblue" points="3377.99,-77.98 3386.95,-72.32 3376.42,-71.16 3377.99,-77.98"/>
</g>
<!-- Node13&#45;&gt;Node21 -->
<g id="edge18" class="edge">
<title>Node13&#45;&gt;Node21</title>
<path fill="none" stroke="midnightblue" d="M3109.46,-114.59C2992.39,-103.32 2752.89,-80.27 2656.53,-71"/>
<polygon fill="midnightblue" stroke="midnightblue" points="2656.6,-67.49 2646.31,-70.01 2655.93,-74.45 2656.6,-67.49"/>
</g>
<!-- Node32&#45;&gt;Node7 -->
<g id="edge22" class="edge">
<title>Node32&#45;&gt;Node7</title>
<path fill="none" stroke="midnightblue" d="M2882.21,-112.47C2834,-99.3 2737.68,-73.68 2655.02,-56 2574.3,-38.73 2478.19,-23.09 2430.3,-15.62"/>
<polygon fill="midnightblue" stroke="midnightblue" points="2430.7,-12.14 2420.28,-14.07 2429.63,-19.06 2430.7,-12.14"/>
</g>
<!-- Node32&#45;&gt;Node9 -->
<g id="edge20" class="edge">
<title>Node32&#45;&gt;Node9</title>
<path fill="none" stroke="midnightblue" d="M2947.09,-112.44C2984.2,-103.12 3043.68,-88.18 3084.24,-78"/>
<polygon fill="midnightblue" stroke="midnightblue" points="3085.27,-81.35 3094.11,-75.52 3083.56,-74.56 3085.27,-81.35"/>
</g>
<!-- Node32&#45;&gt;Node21 -->
<g id="edge21" class="edge">
<title>Node32&#45;&gt;Node21</title>
<path fill="none" stroke="midnightblue" d="M2865.8,-112.44C2807.98,-101.97 2711,-84.39 2656.12,-74.45"/>
<polygon fill="midnightblue" stroke="midnightblue" points="2656.52,-70.96 2646.06,-72.62 2655.28,-77.85 2656.52,-70.96"/>
</g>
<!-- Node36&#45;&gt;Node5 -->
<g id="edge50" class="edge">
<title>Node36&#45;&gt;Node5</title>
<path fill="none" stroke="midnightblue" d="M1726.03,-224.4C1700.98,-211.77 1652.62,-187.59 1611.02,-168 1575.75,-151.39 1560.31,-157.74 1531.02,-132 1516.28,-119.05 1505.21,-99.34 1498.5,-85.01"/>
<polygon fill="midnightblue" stroke="midnightblue" points="1501.63,-83.45 1494.39,-75.71 1495.23,-86.27 1501.63,-83.45"/>
</g>
<!-- Node36&#45;&gt;Node7 -->
<g id="edge58" class="edge">
<title>Node36&#45;&gt;Node7</title>
<path fill="none" stroke="midnightblue" d="M1773.66,-224.48C1801.95,-216.27 1844.93,-202.93 1881.02,-188 1950.09,-159.44 1961.29,-138.89 2031.02,-112 2153.16,-64.9 2305.96,-30.45 2369.8,-17.1"/>
<polygon fill="midnightblue" stroke="midnightblue" points="2370.89,-20.45 2379.97,-14.99 2369.47,-13.6 2370.89,-20.45"/>
</g>
<!-- Node36&#45;&gt;Node9 -->
<g id="edge51" class="edge">
<title>Node36&#45;&gt;Node9</title>
<path fill="none" stroke="midnightblue" d="M1798.37,-231.75C2026.93,-226.48 2887.93,-205.55 2943.02,-188 3012.55,-165.86 3080.84,-109.86 3111.39,-82.51"/>
<polygon fill="midnightblue" stroke="midnightblue" points="3113.93,-84.93 3118.97,-75.61 3109.22,-79.75 3113.93,-84.93"/>
</g>
<!-- Node36&#45;&gt;Node12 -->
<g id="edge54" class="edge">
<title>Node36&#45;&gt;Node12</title>
<path fill="none" stroke="midnightblue" d="M1794.01,-224.44C1817.36,-218.06 1843.65,-207.02 1861.02,-188 1887.3,-159.23 1893.46,-111.72 1894.78,-85.61"/>
<polygon fill="midnightblue" stroke="midnightblue" points="1898.28,-85.67 1895.1,-75.56 1891.29,-85.45 1898.28,-85.67"/>
</g>
<!-- Node36&#45;&gt;Node23 -->
<g id="edge52" class="edge">
<title>Node36&#45;&gt;Node23</title>
<path fill="none" stroke="midnightblue" d="M1687.83,-228.64C1605.67,-220.2 1448.41,-196.36 1332.02,-132 1306.17,-117.7 1279.37,-96.56 1262.47,-82.3"/>
<polygon fill="midnightblue" stroke="midnightblue" points="1264.46,-79.4 1254.59,-75.55 1259.91,-84.71 1264.46,-79.4"/>
</g>
<!-- Node36&#45;&gt;Node24 -->
<g id="edge53" class="edge">
<title>Node36&#45;&gt;Node24</title>
<path fill="none" stroke="midnightblue" d="M1687.81,-225.96C1621.03,-217.37 1505.2,-202.23 1406.02,-188 1126.44,-147.89 790.24,-91.26 682.8,-72.95"/>
<polygon fill="midnightblue" stroke="midnightblue" points="683.29,-69.49 672.84,-71.25 682.11,-76.39 683.29,-69.49"/>
</g>
<!-- Node36&#45;&gt;Node26 -->
<g id="edge55" class="edge">
<title>Node36&#45;&gt;Node26</title>
<path fill="none" stroke="midnightblue" d="M1798.07,-232.22C2006.37,-229.07 2746.26,-216.12 2980.02,-188 3102.56,-173.26 3133.99,-168.08 3252.02,-132 3299.37,-117.53 3352.15,-94.29 3383.15,-79.87"/>
<polygon fill="midnightblue" stroke="midnightblue" points="3384.85,-82.94 3392.41,-75.52 3381.87,-76.61 3384.85,-82.94"/>
</g>
<!-- Node36&#45;&gt;Node21 -->
<g id="edge57" class="edge">
<title>Node36&#45;&gt;Node21</title>
<path fill="none" stroke="midnightblue" d="M1798.26,-225.5C1856.62,-217.01 1944.37,-202.47 1975.02,-188 2022.98,-165.36 2017.89,-131.98 2067.02,-112 2158.9,-74.64 2462.68,-68.28 2573.82,-67.21"/>
<polygon fill="midnightblue" stroke="midnightblue" points="2573.99,-70.71 2583.96,-67.12 2573.93,-63.71 2573.99,-70.71"/>
</g>
<!-- Node37 -->
<g id="node22" class="node">
<title>Node37</title>
<g id="a_node22"><a xlink:href="STLExtras_8h.html" target="_top" xlink:title="llvm/ADT/STLExtras.h">
<polygon fill="none" stroke="red" points="1486.02,-168.5 1486.02,-187.5 1602.02,-187.5 1602.02,-168.5 1486.02,-168.5"/>
<text text-anchor="middle" x="1544.02" y="-175.5" font-family="Helvetica,sans-Serif" font-size="10.00">llvm/ADT/STLExtras.h</text>
</a>
</g>
</g>
<!-- Node36&#45;&gt;Node37 -->
<g id="edge33" class="edge">
<title>Node36&#45;&gt;Node37</title>
<path fill="none" stroke="midnightblue" d="M1711.49,-224.44C1677.43,-215.2 1623.02,-200.44 1585.51,-190.26"/>
<polygon fill="midnightblue" stroke="midnightblue" points="1585.97,-186.76 1575.41,-187.52 1584.14,-193.51 1585.97,-186.76"/>
</g>
<!-- Node30 -->
<g id="node25" class="node">
<title>Node30</title>
<polygon fill="none" stroke="#bfbfbf" points="2065.52,-168.5 2065.52,-187.5 2106.52,-187.5 2106.52,-168.5 2065.52,-168.5"/>
<text text-anchor="middle" x="2086.02" y="-175.5" font-family="Helvetica,sans-Serif" font-size="10.00">string</text>
</g>
<!-- Node36&#45;&gt;Node30 -->
<g id="edge56" class="edge">
<title>Node36&#45;&gt;Node30</title>
<path fill="none" stroke="midnightblue" d="M1797.37,-224.44C1870.28,-212.96 1997.31,-192.97 2055.42,-183.82"/>
<polygon fill="midnightblue" stroke="midnightblue" points="2056.11,-187.25 2065.44,-182.24 2055.02,-180.34 2056.11,-187.25"/>
</g>
<!-- Node37&#45;&gt;Node5 -->
<g id="edge41" class="edge">
<title>Node37&#45;&gt;Node5</title>
<path fill="none" stroke="midnightblue" d="M1530.75,-168.41C1519.65,-160.43 1504.48,-147.46 1497.02,-132 1490.1,-117.65 1488.97,-99.45 1489.36,-85.96"/>
<polygon fill="midnightblue" stroke="midnightblue" points="1492.86,-86.12 1489.95,-75.93 1485.87,-85.7 1492.86,-86.12"/>
</g>
<!-- Node37&#45;&gt;Node6 -->
<g id="edge47" class="edge">
<title>Node37&#45;&gt;Node6</title>
<path fill="none" stroke="midnightblue" d="M1527.95,-168.37C1501.23,-153.2 1447.66,-119.25 1418.02,-76 1408.49,-62.09 1403.07,-43.58 1400.13,-29.87"/>
<polygon fill="midnightblue" stroke="midnightblue" points="1403.5,-28.87 1398.21,-19.69 1396.63,-30.17 1403.5,-28.87"/>
</g>
<!-- Node37&#45;&gt;Node7 -->
<g id="edge49" class="edge">
<title>Node37&#45;&gt;Node7</title>
<path fill="none" stroke="midnightblue" d="M1570.5,-168.42C1592.31,-160.69 1623.52,-148.09 1648.02,-132 1689.29,-104.91 1683.75,-75.69 1729.02,-56 1788.26,-30.23 2246.59,-15.39 2369.68,-11.84"/>
<polygon fill="midnightblue" stroke="midnightblue" points="2369.99,-15.33 2379.89,-11.54 2369.79,-8.33 2369.99,-15.33"/>
</g>
<!-- Node37&#45;&gt;Node12 -->
<g id="edge44" class="edge">
<title>Node37&#45;&gt;Node12</title>
<path fill="none" stroke="midnightblue" d="M1571.27,-168.46C1634.52,-148.64 1791.19,-99.54 1860.78,-77.73"/>
<polygon fill="midnightblue" stroke="midnightblue" points="1861.89,-81.05 1870.39,-74.72 1859.8,-74.37 1861.89,-81.05"/>
</g>
<!-- Node37&#45;&gt;Node23 -->
<g id="edge42" class="edge">
<title>Node37&#45;&gt;Node23</title>
<path fill="none" stroke="midnightblue" d="M1506.69,-168.45C1473.69,-160.45 1424.5,-147.44 1383.02,-132 1342.57,-116.94 1297.69,-94.71 1270.42,-80.54"/>
<polygon fill="midnightblue" stroke="midnightblue" points="1271.69,-77.26 1261.21,-75.72 1268.44,-83.46 1271.69,-77.26"/>
</g>
<!-- Node37&#45;&gt;Node24 -->
<g id="edge43" class="edge">
<title>Node37&#45;&gt;Node24</title>
<path fill="none" stroke="midnightblue" d="M1485.96,-168.49C1396.52,-155.51 1219.6,-130.35 1069.02,-112 926.05,-94.58 755.3,-77.46 683.06,-70.39"/>
<polygon fill="midnightblue" stroke="midnightblue" points="683.02,-66.87 672.73,-69.38 682.34,-73.84 683.02,-66.87"/>
</g>
<!-- Node37&#45;&gt;Node21 -->
<g id="edge48" class="edge">
<title>Node37&#45;&gt;Node21</title>
<path fill="none" stroke="midnightblue" d="M1594.94,-168.46C1678.33,-154.75 1849.33,-127.77 1995.02,-112 2212.42,-88.47 2474.08,-74 2573.75,-68.99"/>
<polygon fill="midnightblue" stroke="midnightblue" points="2574.17,-72.47 2583.99,-68.47 2573.82,-65.48 2574.17,-72.47"/>
</g>
<!-- Node37&#45;&gt;Node33 -->
<g id="edge46" class="edge">
<title>Node37&#45;&gt;Node33</title>
<path fill="none" stroke="midnightblue" d="M1602.14,-171.47C1715.03,-160.74 1961.94,-137.27 2065.18,-127.45"/>
<polygon fill="midnightblue" stroke="midnightblue" points="2065.68,-130.92 2075.3,-126.49 2065.01,-123.95 2065.68,-130.92"/>
</g>
<!-- Node40 -->
<g id="node23" class="node">
<title>Node40</title>
<g id="a_node23"><a xlink:href="iterator_8h.html" target="_top" xlink:title="llvm/ADT/iterator.h">
<polygon fill="none" stroke="black" points="1539.52,-112.5 1539.52,-131.5 1638.52,-131.5 1638.52,-112.5 1539.52,-112.5"/>
<text text-anchor="middle" x="1589.02" y="-119.5" font-family="Helvetica,sans-Serif" font-size="10.00">llvm/ADT/iterator.h</text>
</a>
</g>
</g>
<!-- Node37&#45;&gt;Node40 -->
<g id="edge34" class="edge">
<title>Node37&#45;&gt;Node40</title>
<path fill="none" stroke="midnightblue" d="M1551.45,-168.08C1557.87,-160.38 1567.33,-149.03 1575.14,-139.65"/>
<polygon fill="midnightblue" stroke="midnightblue" points="1578.02,-141.67 1581.73,-131.75 1572.64,-137.19 1578.02,-141.67"/>
</g>
<!-- Node37&#45;&gt;Node42 -->
<g id="edge45" class="edge">
<title>Node37&#45;&gt;Node42</title>
<path fill="none" stroke="midnightblue" d="M1485.94,-173.44C1317.13,-163.08 830.17,-133.2 697.66,-125.06"/>
<polygon fill="midnightblue" stroke="midnightblue" points="697.53,-121.55 687.33,-124.43 697.1,-128.54 697.53,-121.55"/>
</g>
<!-- Node40&#45;&gt;Node5 -->
<g id="edge35" class="edge">
<title>Node40&#45;&gt;Node5</title>
<path fill="none" stroke="midnightblue" d="M1573.28,-112.32C1557.7,-103.74 1533.64,-90.49 1515.56,-80.52"/>
<polygon fill="midnightblue" stroke="midnightblue" points="1517.18,-77.42 1506.73,-75.65 1513.8,-83.55 1517.18,-77.42"/>
</g>
<!-- Node40&#45;&gt;Node6 -->
<g id="edge38" class="edge">
<title>Node40&#45;&gt;Node6</title>
<path fill="none" stroke="midnightblue" d="M1588.18,-112.45C1586.36,-98.55 1580.73,-71.05 1564.02,-56 1527.07,-22.7 1468.02,-13.66 1430.94,-11.42"/>
<polygon fill="midnightblue" stroke="midnightblue" points="1430.79,-7.91 1420.64,-10.94 1430.47,-14.9 1430.79,-7.91"/>
</g>
<!-- Node40&#45;&gt;Node7 -->
<g id="edge40" class="edge">
<title>Node40&#45;&gt;Node7</title>
<path fill="none" stroke="midnightblue" d="M1594.43,-112.29C1604.11,-97.6 1625.92,-68.32 1653.02,-56 1719.03,-26 2237.89,-14.1 2369.67,-11.55"/>
<polygon fill="midnightblue" stroke="midnightblue" points="2369.92,-15.04 2379.85,-11.36 2369.78,-8.05 2369.92,-15.04"/>
</g>
<!-- Node40&#45;&gt;Node12 -->
<g id="edge37" class="edge">
<title>Node40&#45;&gt;Node12</title>
<path fill="none" stroke="midnightblue" d="M1637.51,-112.44C1699.73,-101.46 1806.12,-82.69 1860.62,-73.07"/>
<polygon fill="midnightblue" stroke="midnightblue" points="1861.25,-76.51 1870.49,-71.33 1860.03,-69.62 1861.25,-76.51"/>
</g>
<!-- Node40&#45;&gt;Node23 -->
<g id="edge36" class="edge">
<title>Node40&#45;&gt;Node23</title>
<path fill="none" stroke="midnightblue" d="M1539.37,-113.21C1470.07,-102.33 1345.83,-82.82 1283.26,-73"/>
<polygon fill="midnightblue" stroke="midnightblue" points="1283.46,-69.49 1273.04,-71.4 1282.37,-76.41 1283.46,-69.49"/>
</g>
<!-- Node40&#45;&gt;Node21 -->
<g id="edge39" class="edge">
<title>Node40&#45;&gt;Node21</title>
<path fill="none" stroke="midnightblue" d="M1638.85,-118.38C1815.76,-109.07 2411.66,-77.7 2573.93,-69.16"/>
<polygon fill="midnightblue" stroke="midnightblue" points="2574.18,-72.65 2583.98,-68.63 2573.81,-65.66 2574.18,-72.65"/>
</g>
<!-- Node45&#45;&gt;Node24 -->
<g id="edge60" class="edge">
<title>Node45&#45;&gt;Node24</title>
<path fill="none" stroke="midnightblue" d="M395.89,-168.35C407.53,-154.29 432.57,-126.58 460.02,-112 509.44,-85.76 574.22,-74.61 613.4,-70.03"/>
<polygon fill="midnightblue" stroke="midnightblue" points="613.94,-73.49 623.5,-68.93 613.18,-66.53 613.94,-73.49"/>
</g>
<!-- Node46&#45;&gt;Node30 -->
<g id="edge120" class="edge">
<title>Node46&#45;&gt;Node30</title>
<path fill="none" stroke="midnightblue" d="M868.76,-457.79C1039.35,-457.97 1529.14,-444.86 1901.02,-300 1956.73,-278.3 1961.79,-256.43 2012.02,-224 2028.7,-213.23 2047.87,-201.59 2062.51,-192.85"/>
<polygon fill="midnightblue" stroke="midnightblue" points="2064.61,-195.68 2071.41,-187.57 2061.03,-189.66 2064.61,-195.68"/>
</g>
<!-- Node46&#45;&gt;Node47 -->
<g id="edge65" class="edge">
<title>Node46&#45;&gt;Node47</title>
<path fill="none" stroke="midnightblue" d="M814.12,-448.08C820.26,-440.38 829.29,-429.03 836.76,-419.65"/>
<polygon fill="midnightblue" stroke="midnightblue" points="839.56,-421.75 843.05,-411.75 834.09,-417.39 839.56,-421.75"/>
</g>
<!-- Node47&#45;&gt;Node5 -->
<g id="edge100" class="edge">
<title>Node47&#45;&gt;Node5</title>
<path fill="none" stroke="midnightblue" d="M849.13,-392.23C848.16,-379.41 847.63,-354.98 855.02,-336 866.51,-306.51 873.47,-298.68 899.02,-280 1067.45,-156.92 1314.06,-98.93 1428.46,-77.42"/>
<polygon fill="midnightblue" stroke="midnightblue" points="1429.25,-80.83 1438.45,-75.57 1427.98,-73.95 1429.25,-80.83"/>
</g>
<!-- Node47&#45;&gt;Node6 -->
<g id="edge118" class="edge">
<title>Node47&#45;&gt;Node6</title>
<path fill="none" stroke="midnightblue" d="M782.85,-398.45C669.02,-393.5 443.24,-380.84 368.02,-356 351.74,-350.62 350.98,-342.29 335.02,-336 262.37,-307.35 228.58,-342.44 163.02,-300 79.41,-245.87 -25.9,-185.77 41.02,-112 132.57,-11.08 1161.9,-10.04 1363.05,-10.81"/>
<polygon fill="midnightblue" stroke="midnightblue" points="1363.29,-14.31 1373.3,-10.86 1363.32,-7.31 1363.29,-14.31"/>
</g>
<!-- Node47&#45;&gt;Node7 -->
<g id="edge119" class="edge">
<title>Node47&#45;&gt;Node7</title>
<path fill="none" stroke="midnightblue" d="M917.06,-400.39C1236.93,-397.34 2610.25,-382.91 3038.02,-356 3193.17,-346.24 3727.02,-390.45 3727.02,-235 3727.02,-235 3727.02,-235 3727.02,-121 3727.02,-65.74 3673.92,-71.99 3621.02,-56 3504.05,-20.65 2608.42,-12.48 2430.64,-11.2"/>
<polygon fill="midnightblue" stroke="midnightblue" points="2430.46,-7.7 2420.43,-11.13 2430.41,-14.7 2430.46,-7.7"/>
</g>
<!-- Node47&#45;&gt;Node24 -->
<g id="edge116" class="edge">
<title>Node47&#45;&gt;Node24</title>
<path fill="none" stroke="midnightblue" d="M782.76,-400.79C695.71,-399.02 540.04,-390.67 412.02,-356 391.29,-350.38 388.42,-342.73 368.02,-336 295.51,-312.06 267.72,-335.33 200.02,-300 146.47,-272.05 131.89,-247.75 123.02,-188 117.99,-154.1 110.15,-134.47 136.02,-112 171.96,-80.78 503.74,-70.34 613.18,-67.73"/>
<polygon fill="midnightblue" stroke="midnightblue" points="613.44,-71.23 623.36,-67.5 613.28,-64.23 613.44,-71.23"/>
</g>
<!-- Node47&#45;&gt;Node40 -->
<g id="edge99" class="edge">
<title>Node47&#45;&gt;Node40</title>
<path fill="none" stroke="midnightblue" d="M850.72,-392.06C852.18,-378.58 856.65,-352.82 870.02,-336 931.74,-258.37 970.13,-258.73 1063.02,-224 1225.17,-163.38 1429.65,-137.52 1529.14,-127.91"/>
<polygon fill="midnightblue" stroke="midnightblue" points="1529.68,-131.38 1539.31,-126.96 1529.02,-124.41 1529.68,-131.38"/>
</g>
<!-- Node47&#45;&gt;Node42 -->
<g id="edge117" class="edge">
<title>Node47&#45;&gt;Node42</title>
<path fill="none" stroke="midnightblue" d="M784.38,-392.47C729.04,-381.43 653.09,-356.38 616.02,-300 581.96,-248.2 627.47,-172.82 651.22,-139.68"/>
<polygon fill="midnightblue" stroke="midnightblue" points="654.13,-141.63 657.26,-131.51 648.5,-137.47 654.13,-141.63"/>
</g>
<!-- Node47&#45;&gt;Node48 -->
<g id="edge66" class="edge">
<title>Node47&#45;&gt;Node48</title>
<path fill="none" stroke="midnightblue" d="M917.07,-399.17C1219.8,-390.92 2457.65,-357.18 2762.8,-348.86"/>
<polygon fill="midnightblue" stroke="midnightblue" points="2762.93,-352.36 2772.83,-348.59 2762.74,-345.36 2762.93,-352.36"/>
</g>
<!-- Node59 -->
<g id="node34" class="node">
<title>Node59</title>
<g id="a_node34"><a xlink:href="LaneBitmask_8h.html" target="_top" xlink:title="A common definition of LaneBitmask for use in TableGen and CodeGen. ">
<polygon fill="none" stroke="red" points="2907.02,-336.5 2907.02,-355.5 3029.02,-355.5 3029.02,-336.5 2907.02,-336.5"/>
<text text-anchor="middle" x="2968.02" y="-343.5" font-family="Helvetica,sans-Serif" font-size="10.00">llvm/MC/LaneBitmask.h</text>
</a>
</g>
</g>
<!-- Node47&#45;&gt;Node59 -->
<g id="edge101" class="edge">
<title>Node47&#45;&gt;Node59</title>
<path fill="none" stroke="midnightblue" d="M917.08,-400.48C1221.86,-397.99 2479.33,-386.08 2896.97,-355.97"/>
<polygon fill="midnightblue" stroke="midnightblue" points="2897.26,-359.46 2906.98,-355.24 2896.75,-352.48 2897.26,-359.46"/>
</g>
<!-- Node65 -->
<g id="node37" class="node">
<title>Node65</title>
<g id="a_node37"><a xlink:href="MCRegister_8h.html" target="_top" xlink:title="llvm/MC/MCRegister.h">
<polygon fill="none" stroke="black" points="878.52,-336.5 878.52,-355.5 995.52,-355.5 995.52,-336.5 878.52,-336.5"/>
<text text-anchor="middle" x="937.02" y="-343.5" font-family="Helvetica,sans-Serif" font-size="10.00">llvm/MC/MCRegister.h</text>
</a>
</g>
</g>
<!-- Node47&#45;&gt;Node65 -->
<g id="edge113" class="edge">
<title>Node47&#45;&gt;Node65</title>
<path fill="none" stroke="midnightblue" d="M864,-392.32C877.57,-383.9 898.4,-370.97 914.35,-361.07"/>
<polygon fill="midnightblue" stroke="midnightblue" points="916.43,-363.9 923.08,-355.65 912.74,-357.95 916.43,-363.9"/>
</g>
<!-- Node48&#45;&gt;Node6 -->
<g id="edge95" class="edge">
<title>Node48&#45;&gt;Node6</title>
<path fill="none" stroke="midnightblue" d="M2772.83,-343.96C2548.14,-339.79 1744.12,-323.35 1632.02,-300 1527.7,-278.27 1252.43,-172.87 1208.02,-76 1204.32,-67.92 1202.51,-62.98 1208.02,-56 1227.01,-31.96 1314.23,-19.38 1363.28,-14.1"/>
<polygon fill="midnightblue" stroke="midnightblue" points="1363.83,-17.56 1373.41,-13.05 1363.11,-10.6 1363.83,-17.56"/>
</g>
<!-- Node48&#45;&gt;Node7 -->
<g id="edge98" class="edge">
<title>Node48&#45;&gt;Node7</title>
<path fill="none" stroke="midnightblue" d="M2889.1,-336.92C2892.11,-336.59 2895.1,-336.28 2898.02,-336 3036.28,-322.74 3390.06,-343.35 3522.02,-300 3609.1,-271.39 3689.02,-270.66 3689.02,-179 3689.02,-179 3689.02,-179 3689.02,-121 3689.02,-52.8 3616.29,-72.1 3550.02,-56 3438.47,-28.91 2600.38,-14.19 2430.14,-11.47"/>
<polygon fill="midnightblue" stroke="midnightblue" points="2430.18,-7.97 2420.12,-11.31 2430.07,-14.96 2430.18,-7.97"/>
</g>
<!-- Node48&#45;&gt;Node8 -->
<g id="edge85" class="edge">
<title>Node48&#45;&gt;Node8</title>
<path fill="none" stroke="midnightblue" d="M2836.82,-336.45C2845.13,-323.01 2858.07,-296.76 2845.02,-280 2735.91,-139.79 2621.14,-253.56 2456.02,-188 2440.08,-181.67 2437.92,-176.5 2423.02,-168 2403.68,-156.97 2381.46,-145.1 2364.73,-136.32"/>
<polygon fill="midnightblue" stroke="midnightblue" points="2366.06,-133.07 2355.58,-131.54 2362.82,-139.27 2366.06,-133.07"/>
</g>
<!-- Node48&#45;&gt;Node9 -->
<g id="edge86" class="edge">
<title>Node48&#45;&gt;Node9</title>
<path fill="none" stroke="midnightblue" d="M2889.13,-337.19C2892.13,-336.78 2895.11,-336.39 2898.02,-336 2958.68,-327.93 3118.95,-332.13 3171.02,-300 3254.18,-248.69 3343.83,-190.04 3285.02,-112 3273.55,-96.77 3230.8,-85.13 3192.81,-77.5"/>
<polygon fill="midnightblue" stroke="midnightblue" points="3193.24,-74.02 3182.76,-75.55 3191.91,-80.89 3193.24,-74.02"/>
</g>
<!-- Node48&#45;&gt;Node12 -->
<g id="edge92" class="edge">
<title>Node48&#45;&gt;Node12</title>
<path fill="none" stroke="midnightblue" d="M2829.39,-336.36C2826.26,-322.32 2818.08,-294.65 2800.02,-280 2664.72,-170.28 2585.73,-238.55 2419.02,-188 2372.13,-173.78 2259.54,-123.95 2212.02,-112 2111.29,-86.66 1988.71,-74.34 1929.85,-69.53"/>
<polygon fill="midnightblue" stroke="midnightblue" points="1929.87,-66.02 1919.62,-68.72 1929.31,-73 1929.87,-66.02"/>
</g>
<!-- Node48&#45;&gt;Node13 -->
<g id="edge87" class="edge">
<title>Node48&#45;&gt;Node13</title>
<path fill="none" stroke="midnightblue" d="M2889.27,-337.06C2981.48,-324.45 3150.87,-301.16 3152.02,-300 3173.87,-278.05 3176.24,-182.59 3176.22,-141.7"/>
<polygon fill="midnightblue" stroke="midnightblue" points="3179.72,-141.5 3176.16,-131.52 3172.72,-141.53 3179.72,-141.5"/>
</g>
<!-- Node48&#45;&gt;Node23 -->
<g id="edge90" class="edge">
<title>Node48&#45;&gt;Node23</title>
<path fill="none" stroke="midnightblue" d="M2772.78,-343.68C2558.85,-338.7 1823.44,-320.27 1720.02,-300 1576.26,-271.82 1544.76,-245.51 1410.02,-188 1358.47,-166 1340.67,-167.16 1297.02,-132 1280.2,-118.45 1265.29,-98.56 1255.8,-84.35"/>
<polygon fill="midnightblue" stroke="midnightblue" points="1258.5,-82.08 1250.13,-75.57 1252.61,-85.87 1258.5,-82.08"/>
</g>
<!-- Node48&#45;&gt;Node24 -->
<g id="edge91" class="edge">
<title>Node48&#45;&gt;Node24</title>
<path fill="none" stroke="midnightblue" d="M2772.73,-343.81C2497.45,-338.14 1337.63,-313.55 1262.02,-300 1032.51,-258.87 978.25,-226.34 765.02,-132 730.84,-116.88 693.43,-95.1 670.33,-81"/>
<polygon fill="midnightblue" stroke="midnightblue" points="672,-77.91 661.65,-75.64 668.33,-83.87 672,-77.91"/>
</g>
<!-- Node48&#45;&gt;Node26 -->
<g id="edge93" class="edge">
<title>Node48&#45;&gt;Node26</title>
<path fill="none" stroke="midnightblue" d="M2889.12,-337.14C2892.13,-336.75 2895.11,-336.37 2898.02,-336 3051.7,-316.52 3487.59,-361.08 3589.02,-244 3646.05,-178.18 3505.84,-107.58 3440.9,-79.53"/>
<polygon fill="midnightblue" stroke="midnightblue" points="3442.1,-76.23 3431.53,-75.55 3439.36,-82.68 3442.1,-76.23"/>
</g>
<!-- Node48&#45;&gt;Node21 -->
<g id="edge97" class="edge">
<title>Node48&#45;&gt;Node21</title>
<path fill="none" stroke="midnightblue" d="M2887.8,-336.48C2958.54,-325.59 3070.95,-307.28 3077.02,-300 3082.71,-293.17 3081.22,-287.84 3077.02,-280 3055.85,-240.44 3031.06,-247.8 2993.02,-224 2972.17,-210.95 2824.85,-121.18 2802.02,-112 2741.01,-87.47 2720.01,-91.87 2655.83,-77.1"/>
<polygon fill="midnightblue" stroke="midnightblue" points="2656.58,-73.68 2646.04,-74.78 2654.96,-80.49 2656.58,-73.68"/>
</g>
<!-- Node48&#45;&gt;Node32 -->
<g id="edge89" class="edge">
<title>Node48&#45;&gt;Node32</title>
<path fill="none" stroke="midnightblue" d="M2889.13,-336.82C2976.31,-324.49 3131.03,-302.31 3133.02,-300 3196.56,-226.29 3029.28,-160.47 2950.94,-134.62"/>
<polygon fill="midnightblue" stroke="midnightblue" points="2951.99,-131.28 2941.4,-131.52 2949.83,-137.94 2951.99,-131.28"/>
</g>
<!-- Node48&#45;&gt;Node33 -->
<g id="edge94" class="edge">
<title>Node48&#45;&gt;Node33</title>
<path fill="none" stroke="midnightblue" d="M2825.99,-336.21C2817.33,-321.95 2798.2,-293.96 2774.02,-280 2771.19,-278.36 2315.19,-188.83 2312.02,-188 2252.23,-172.39 2184.07,-149 2144.75,-134.95"/>
<polygon fill="midnightblue" stroke="midnightblue" points="2145.75,-131.59 2135.16,-131.51 2143.39,-138.18 2145.75,-131.59"/>
</g>
<!-- Node48&#45;&gt;Node35 -->
<g id="edge96" class="edge">
<title>Node48&#45;&gt;Node35</title>
<path fill="none" stroke="midnightblue" d="M2883.77,-336.45C2950.18,-325.45 3056.33,-306.91 3062.02,-300 3067.67,-293.14 3066.55,-287.65 3062.02,-280 3060.13,-276.81 2869.74,-174.03 2800.14,-136.52"/>
<polygon fill="midnightblue" stroke="midnightblue" points="2801.61,-133.34 2791.15,-131.68 2798.29,-139.51 2801.61,-133.34"/>
</g>
<!-- Node49 -->
<g id="node30" class="node">
<title>Node49</title>
<g id="a_node30"><a xlink:href="DenseMapInfo_8h.html" target="_top" xlink:title="llvm/ADT/DenseMapInfo.h">
<polygon fill="none" stroke="red" points="1270.52,-280.5 1270.52,-299.5 1403.52,-299.5 1403.52,-280.5 1270.52,-280.5"/>
<text text-anchor="middle" x="1337.02" y="-287.5" font-family="Helvetica,sans-Serif" font-size="10.00">llvm/ADT/DenseMapInfo.h</text>
</a>
</g>
</g>
<!-- Node48&#45;&gt;Node49 -->
<g id="edge67" class="edge">
<title>Node48&#45;&gt;Node49</title>
<path fill="none" stroke="midnightblue" d="M2772.75,-343.22C2589.9,-337.58 2011.15,-319.36 1532.02,-300 1493.19,-298.43 1450.02,-296.46 1414.18,-294.77"/>
<polygon fill="midnightblue" stroke="midnightblue" points="1413.95,-291.25 1403.8,-294.27 1413.62,-298.24 1413.95,-291.25"/>
</g>
<!-- Node57 -->
<g id="node32" class="node">
<title>Node57</title>
<g id="a_node32"><a xlink:href="EpochTracker_8h.html" target="_top" xlink:title="llvm/ADT/EpochTracker.h">
<polygon fill="none" stroke="red" points="692.02,-168.5 692.02,-187.5 822.02,-187.5 822.02,-168.5 692.02,-168.5"/>
<text text-anchor="middle" x="757.02" y="-175.5" font-family="Helvetica,sans-Serif" font-size="10.00">llvm/ADT/EpochTracker.h</text>
</a>
</g>
</g>
<!-- Node48&#45;&gt;Node57 -->
<g id="edge83" class="edge">
<title>Node48&#45;&gt;Node57</title>
<path fill="none" stroke="midnightblue" d="M2772.7,-343.81C2489.05,-337.99 1263.99,-312.23 1184.02,-300 1144.85,-294.01 892.89,-219.51 795.43,-190.48"/>
<polygon fill="midnightblue" stroke="midnightblue" points="796.27,-187.07 785.68,-187.57 794.27,-193.78 796.27,-187.07"/>
</g>
<!-- Node58 -->
<g id="node33" class="node">
<title>Node58</title>
<g id="a_node33"><a xlink:href="ReverseIteration_8h.html" target="_top" xlink:title="llvm/Support/ReverseIteration.h">
<polygon fill="none" stroke="red" points="2897.52,-280.5 2897.52,-299.5 3052.52,-299.5 3052.52,-280.5 2897.52,-280.5"/>
<text text-anchor="middle" x="2975.02" y="-287.5" font-family="Helvetica,sans-Serif" font-size="10.00">llvm/Support/ReverseIteration.h</text>
</a>
</g>
</g>
<!-- Node48&#45;&gt;Node58 -->
<g id="edge88" class="edge">
<title>Node48&#45;&gt;Node58</title>
<path fill="none" stroke="midnightblue" d="M2853.84,-336.44C2877.85,-327.44 2915.85,-313.19 2942.89,-303.05"/>
<polygon fill="midnightblue" stroke="midnightblue" points="2944.18,-306.3 2952.31,-299.52 2941.72,-299.75 2944.18,-306.3"/>
</g>
<!-- Node49&#45;&gt;Node7 -->
<g id="edge82" class="edge">
<title>Node49&#45;&gt;Node7</title>
<path fill="none" stroke="midnightblue" d="M1363.93,-280.39C1413.57,-264.21 1522.55,-227.37 1611.02,-188 1726.18,-136.76 1741.02,-91.29 1862.02,-56 1958.51,-27.86 2270.9,-15.29 2369.74,-11.95"/>
<polygon fill="midnightblue" stroke="midnightblue" points="2370.06,-15.44 2379.94,-11.61 2369.83,-8.44 2370.06,-15.44"/>
</g>
<!-- Node49&#45;&gt;Node12 -->
<g id="edge80" class="edge">
<title>Node49&#45;&gt;Node12</title>
<path fill="none" stroke="midnightblue" d="M1395.51,-280.46C1491.8,-264.26 1686.91,-222.29 1826.02,-132 1847.25,-118.22 1867.88,-97.53 1880.97,-83.21"/>
<polygon fill="midnightblue" stroke="midnightblue" points="1883.7,-85.41 1887.75,-75.62 1878.47,-80.75 1883.7,-85.41"/>
</g>
<!-- Node49&#45;&gt;Node24 -->
<g id="edge79" class="edge">
<title>Node49&#45;&gt;Node24</title>
<path fill="none" stroke="midnightblue" d="M1311.14,-280.45C1272.63,-267.79 1197.92,-243.45 1134.02,-224 1048.17,-197.87 1026.3,-192.68 940.02,-168 883.62,-151.86 868.42,-151.32 813.02,-132 791.2,-124.39 786.48,-120.59 765.02,-112 736.56,-100.6 703.99,-88.12 680.46,-79.2"/>
<polygon fill="midnightblue" stroke="midnightblue" points="681.55,-75.87 670.96,-75.61 679.08,-82.42 681.55,-75.87"/>
</g>
<!-- Node49&#45;&gt;Node36 -->
<g id="edge78" class="edge">
<title>Node49&#45;&gt;Node36</title>
<path fill="none" stroke="midnightblue" d="M1401.35,-280.44C1477,-270.38 1601.85,-253.78 1677.86,-243.67"/>
<polygon fill="midnightblue" stroke="midnightblue" points="1678.34,-247.13 1687.79,-242.35 1677.41,-240.2 1678.34,-247.13"/>
</g>
<!-- Node49&#45;&gt;Node42 -->
<g id="edge81" class="edge">
<title>Node49&#45;&gt;Node42</title>
<path fill="none" stroke="midnightblue" d="M1302.26,-280.42C1185.84,-251.71 810.69,-159.18 696.99,-131.13"/>
<polygon fill="midnightblue" stroke="midnightblue" points="697.67,-127.69 687.12,-128.7 695.99,-134.49 697.67,-127.69"/>
</g>
<!-- Node50 -->
<g id="node31" class="node">
<title>Node50</title>
<g id="a_node31"><a xlink:href="ArrayRef_8h.html" target="_top" xlink:title="llvm/ADT/ArrayRef.h">
<polygon fill="none" stroke="red" points="1296.02,-224.5 1296.02,-243.5 1404.02,-243.5 1404.02,-224.5 1296.02,-224.5"/>
<text text-anchor="middle" x="1350.02" y="-231.5" font-family="Helvetica,sans-Serif" font-size="10.00">llvm/ADT/ArrayRef.h</text>
</a>
</g>
</g>
<!-- Node49&#45;&gt;Node50 -->
<g id="edge68" class="edge">
<title>Node49&#45;&gt;Node50</title>
<path fill="none" stroke="midnightblue" d="M1339.17,-280.08C1340.89,-272.93 1343.37,-262.64 1345.52,-253.69"/>
<polygon fill="midnightblue" stroke="midnightblue" points="1348.98,-254.29 1347.91,-243.75 1342.17,-252.65 1348.98,-254.29"/>
</g>
<!-- Node50&#45;&gt;Node4 -->
<g id="edge69" class="edge">
<title>Node50&#45;&gt;Node4</title>
<path fill="none" stroke="midnightblue" d="M1404.03,-229.38C1431.05,-227.63 1464.26,-225.58 1494.02,-224 1854.93,-204.85 2287.16,-187.96 2454.76,-181.64"/>
<polygon fill="midnightblue" stroke="midnightblue" points="2455.07,-185.14 2464.93,-181.26 2454.81,-178.14 2455.07,-185.14"/>
</g>
<!-- Node50&#45;&gt;Node6 -->
<g id="edge76" class="edge">
<title>Node50&#45;&gt;Node6</title>
<path fill="none" stroke="midnightblue" d="M1309.79,-224.48C1240.33,-208.79 1103.02,-173.15 1079.02,-132 1062,-102.82 1056.87,-81.5 1079.02,-56 1115.52,-13.97 1288.55,-10.13 1362.92,-10.47"/>
<polygon fill="midnightblue" stroke="midnightblue" points="1363.12,-13.97 1373.15,-10.55 1363.17,-6.97 1363.12,-13.97"/>
</g>
<!-- Node50&#45;&gt;Node9 -->
<g id="edge71" class="edge">
<title>Node50&#45;&gt;Node9</title>
<path fill="none" stroke="midnightblue" d="M1404.16,-231.39C1628.18,-224.66 2476.43,-198.71 2596.02,-188 2770.43,-172.37 2818.02,-181.39 2986.02,-132 3029.53,-119.21 3076.81,-95.38 3104.35,-80.4"/>
<polygon fill="midnightblue" stroke="midnightblue" points="3106.17,-83.4 3113.24,-75.5 3102.79,-77.27 3106.17,-83.4"/>
</g>
<!-- Node50&#45;&gt;Node12 -->
<g id="edge74" class="edge">
<title>Node50&#45;&gt;Node12</title>
<path fill="none" stroke="midnightblue" d="M1404.12,-224.74C1488.84,-211.79 1643.3,-188.19 1644.02,-188 1713.31,-170.05 1731.07,-164.15 1795.02,-132 1824.38,-117.24 1855.77,-95.8 1875.39,-81.64"/>
<polygon fill="midnightblue" stroke="midnightblue" points="1877.52,-84.42 1883.52,-75.69 1873.38,-78.77 1877.52,-84.42"/>
</g>
<!-- Node50&#45;&gt;Node23 -->
<g id="edge72" class="edge">
<title>Node50&#45;&gt;Node23</title>
<path fill="none" stroke="midnightblue" d="M1322.25,-224.47C1285.04,-211.36 1220.5,-182.35 1193.02,-132 1182.55,-112.81 1202.6,-93.61 1220.77,-81.11"/>
<polygon fill="midnightblue" stroke="midnightblue" points="1222.89,-83.9 1229.39,-75.53 1219.09,-78.02 1222.89,-83.9"/>
</g>
<!-- Node50&#45;&gt;Node24 -->
<g id="edge73" class="edge">
<title>Node50&#45;&gt;Node24</title>
<path fill="none" stroke="midnightblue" d="M1308.08,-224.5C1265.62,-215.78 1198.11,-201.6 1140.02,-188 1006.52,-156.74 974.24,-144.46 841.02,-112 785.87,-98.56 721.64,-83.75 682.95,-74.92"/>
<polygon fill="midnightblue" stroke="midnightblue" points="683.26,-71.41 672.74,-72.6 681.71,-78.23 683.26,-71.41"/>
</g>
<!-- Node50&#45;&gt;Node21 -->
<g id="edge77" class="edge">
<title>Node50&#45;&gt;Node21</title>
<path fill="none" stroke="midnightblue" d="M1404.03,-224.71C1405.71,-224.47 1407.38,-224.23 1409.02,-224 1534.59,-206.44 1567.13,-209.89 1692.02,-188 1730.04,-181.33 1992.85,-117.72 2031.02,-112 2233.13,-81.72 2477.81,-71.25 2573.68,-68.15"/>
<polygon fill="midnightblue" stroke="midnightblue" points="2573.94,-71.64 2583.82,-67.83 2573.72,-64.64 2573.94,-71.64"/>
</g>
<!-- Node50&#45;&gt;Node33 -->
<g id="edge75" class="edge">
<title>Node50&#45;&gt;Node33</title>
<path fill="none" stroke="midnightblue" d="M1404.26,-228.71C1510.73,-220.14 1743.6,-200.66 1823.02,-188 1911.95,-173.83 2014.43,-148.63 2070.32,-134.12"/>
<polygon fill="midnightblue" stroke="midnightblue" points="2071.41,-137.46 2080.2,-131.55 2069.64,-130.69 2071.41,-137.46"/>
</g>
<!-- Node50&#45;&gt;Node37 -->
<g id="edge70" class="edge">
<title>Node50&#45;&gt;Node37</title>
<path fill="none" stroke="midnightblue" d="M1380.76,-224.44C1413.97,-215.2 1467.01,-200.44 1503.58,-190.26"/>
<polygon fill="midnightblue" stroke="midnightblue" points="1504.73,-193.57 1513.43,-187.52 1502.85,-186.83 1504.73,-193.57"/>
</g>
<!-- Node57&#45;&gt;Node42 -->
<g id="edge84" class="edge">
<title>Node57&#45;&gt;Node42</title>
<path fill="none" stroke="midnightblue" d="M742.08,-168.32C727.44,-159.82 704.89,-146.73 687.78,-136.8"/>
<polygon fill="midnightblue" stroke="midnightblue" points="689.33,-133.65 678.93,-131.65 685.82,-139.7 689.33,-133.65"/>
</g>
<!-- Node59&#45;&gt;Node9 -->
<g id="edge102" class="edge">
<title>Node59&#45;&gt;Node9</title>
<path fill="none" stroke="midnightblue" d="M3029.14,-341.09C3108.38,-335.22 3241.58,-322.34 3285.02,-300 3320.52,-281.74 3347.02,-274.92 3347.02,-235 3347.02,-235 3347.02,-235 3347.02,-177 3347.02,-146.2 3346.13,-132.35 3323.02,-112 3304.58,-95.76 3246.99,-83.73 3199.14,-76.21"/>
<polygon fill="midnightblue" stroke="midnightblue" points="3199.51,-72.73 3189.1,-74.68 3198.45,-79.65 3199.51,-72.73"/>
</g>
<!-- Node59&#45;&gt;Node63 -->
<g id="edge103" class="edge">
<title>Node59&#45;&gt;Node63</title>
<path fill="none" stroke="midnightblue" d="M2906.96,-336.93C2903.94,-336.6 2900.95,-336.29 2898.02,-336 2683.42,-315.07 2429.47,-301.02 2302.98,-294.74"/>
<polygon fill="midnightblue" stroke="midnightblue" points="2302.77,-291.23 2292.61,-294.23 2302.43,-298.22 2302.77,-291.23"/>
</g>
<!-- Node63&#45;&gt;Node4 -->
<g id="edge104" class="edge">
<title>Node63&#45;&gt;Node4</title>
<path fill="none" stroke="midnightblue" d="M2231.31,-280.28C2245.31,-266.13 2275.12,-238.29 2306.02,-224 2352.97,-202.3 2410.34,-191 2454.72,-185.16"/>
<polygon fill="midnightblue" stroke="midnightblue" points="2455.36,-188.6 2464.85,-183.89 2454.49,-181.66 2455.36,-188.6"/>
</g>
<!-- Node63&#45;&gt;Node12 -->
<g id="edge107" class="edge">
<title>Node63&#45;&gt;Node12</title>
<path fill="none" stroke="midnightblue" d="M2224.53,-280.44C2229.01,-251.84 2239.16,-158.81 2191.02,-112 2154.42,-76.41 1999.74,-68.94 1929.71,-67.39"/>
<polygon fill="midnightblue" stroke="midnightblue" points="1929.69,-63.89 1919.63,-67.2 1929.56,-70.89 1929.69,-63.89"/>
</g>
<!-- Node63&#45;&gt;Node24 -->
<g id="edge106" class="edge">
<title>Node63&#45;&gt;Node24</title>
<path fill="none" stroke="midnightblue" d="M2153.3,-287.35C1965.89,-282.63 1454.21,-267.89 1287.02,-244 1181.59,-228.93 1156.81,-215.9 1054.02,-188 1024.44,-179.97 1017.58,-176.09 988.02,-168 923.14,-150.24 903.92,-155.84 841.02,-132 823.18,-125.24 820.72,-119.14 803.02,-112 762.69,-95.73 714.29,-82.65 682.43,-74.87"/>
<polygon fill="midnightblue" stroke="midnightblue" points="683.24,-71.46 672.7,-72.53 681.6,-78.27 683.24,-71.46"/>
</g>
<!-- Node63&#45;&gt;Node26 -->
<g id="edge109" class="edge">
<title>Node63&#45;&gt;Node26</title>
<path fill="none" stroke="midnightblue" d="M2292.72,-286.29C2339.71,-284.48 2403.09,-282.05 2459.02,-280 2515.69,-277.92 3439.64,-284.8 3479.02,-244 3500.53,-221.72 3540.01,-272.99 3453.02,-112 3447.03,-100.91 3437.56,-90.57 3429.04,-82.62"/>
<polygon fill="midnightblue" stroke="midnightblue" points="3431.1,-79.77 3421.29,-75.77 3426.46,-85.01 3431.1,-79.77"/>
</g>
<!-- Node63&#45;&gt;Node21 -->
<g id="edge112" class="edge">
<title>Node63&#45;&gt;Node21</title>
<path fill="none" stroke="midnightblue" d="M2238.45,-280.31C2269.71,-262.7 2337.67,-224.45 2339.02,-224 2393.67,-205.59 2554.91,-228.44 2596.02,-188 2623.35,-161.12 2621.61,-112.11 2618.19,-85.45"/>
<polygon fill="midnightblue" stroke="midnightblue" points="2621.65,-84.9 2616.7,-75.53 2614.73,-85.94 2621.65,-84.9"/>
</g>
<!-- Node63&#45;&gt;Node36 -->
<g id="edge105" class="edge">
<title>Node63&#45;&gt;Node36</title>
<path fill="none" stroke="midnightblue" d="M2153.48,-281.18C2060.92,-270.76 1898.43,-252.48 1808.15,-242.33"/>
<polygon fill="midnightblue" stroke="midnightblue" points="1808.37,-238.83 1798.04,-241.19 1807.59,-245.79 1808.37,-238.83"/>
</g>
<!-- Node63&#45;&gt;Node42 -->
<g id="edge108" class="edge">
<title>Node63&#45;&gt;Node42</title>
<path fill="none" stroke="midnightblue" d="M2153.31,-287.23C1961.42,-282.12 1428.17,-266.28 1254.02,-244 1172.92,-233.63 974.14,-184.29 894.02,-168 824.07,-153.77 741.98,-137.91 697.24,-129.34"/>
<polygon fill="midnightblue" stroke="midnightblue" points="697.7,-125.86 687.22,-127.42 696.39,-132.74 697.7,-125.86"/>
</g>
<!-- Node63&#45;&gt;Node30 -->
<g id="edge110" class="edge">
<title>Node63&#45;&gt;Node30</title>
<path fill="none" stroke="midnightblue" d="M2212.27,-280.37C2189.06,-261.73 2134.01,-217.53 2104.87,-194.13"/>
<polygon fill="midnightblue" stroke="midnightblue" points="2106.71,-191.12 2096.72,-187.59 2102.33,-196.58 2106.71,-191.12"/>
</g>
<!-- Node64 -->
<g id="node36" class="node">
<title>Node64</title>
<polygon fill="none" stroke="#bfbfbf" points="2348.02,-224.5 2348.02,-243.5 2422.02,-243.5 2422.02,-224.5 2348.02,-224.5"/>
<text text-anchor="middle" x="2385.02" y="-231.5" font-family="Helvetica,sans-Serif" font-size="10.00">system_error</text>
</g>
<!-- Node63&#45;&gt;Node64 -->
<g id="edge111" class="edge">
<title>Node63&#45;&gt;Node64</title>
<path fill="none" stroke="midnightblue" d="M2248.69,-280.44C2275.94,-271.36 2319.21,-256.94 2349.67,-246.78"/>
<polygon fill="midnightblue" stroke="midnightblue" points="2351.09,-250 2359.47,-243.52 2348.88,-243.36 2351.09,-250"/>
</g>
<!-- Node65&#45;&gt;Node24 -->
<g id="edge115" class="edge">
<title>Node65&#45;&gt;Node24</title>
<path fill="none" stroke="midnightblue" d="M878.46,-343.52C740.34,-339.6 397.49,-327.36 286.02,-300 225.72,-285.2 198.1,-291.43 158.02,-244 120.15,-199.19 112.8,-150.55 157.02,-112 191.29,-82.12 506.85,-70.84 613.21,-67.87"/>
<polygon fill="midnightblue" stroke="midnightblue" points="613.51,-71.36 623.41,-67.59 613.32,-64.37 613.51,-71.36"/>
</g>
<!-- Node65&#45;&gt;Node49 -->
<g id="edge114" class="edge">
<title>Node65&#45;&gt;Node49</title>
<path fill="none" stroke="midnightblue" d="M995.61,-337.09C1066.74,-327.49 1186.73,-311.29 1263.86,-300.88"/>
<polygon fill="midnightblue" stroke="midnightblue" points="1264.54,-304.32 1273.98,-299.51 1263.6,-297.38 1264.54,-304.32"/>
</g>
<!-- Node66&#45;&gt;Node24 -->
<g id="edge123" class="edge">
<title>Node66&#45;&gt;Node24</title>
<path fill="none" stroke="midnightblue" d="M195.78,-504.47C144.93,-456.61 -93.74,-219.87 41.02,-112 85.77,-76.18 490.62,-68.75 613.09,-67.32"/>
<polygon fill="midnightblue" stroke="midnightblue" points="613.42,-70.82 623.39,-67.21 613.35,-63.82 613.42,-70.82"/>
</g>
<!-- Node66&#45;&gt;Node46 -->
<g id="edge122" class="edge">
<title>Node66&#45;&gt;Node46</title>
<path fill="none" stroke="midnightblue" d="M263.29,-507.77C373.96,-497.85 614.28,-476.29 734.9,-465.47"/>
<polygon fill="midnightblue" stroke="midnightblue" points="735.49,-468.93 745.13,-464.55 734.86,-461.96 735.49,-468.93"/>
</g>
<!-- Node67&#45;&gt;Node23 -->
<g id="edge142" class="edge">
<title>Node67&#45;&gt;Node23</title>
<path fill="none" stroke="midnightblue" d="M519.23,-392.4C537.11,-385.38 559.6,-373.68 573.02,-356 640.48,-267.14 546.66,-183.84 632.02,-112 675.95,-75.04 1079.2,-68.42 1206.62,-67.25"/>
<polygon fill="midnightblue" stroke="midnightblue" points="1206.73,-70.75 1216.7,-67.16 1206.67,-63.75 1206.73,-70.75"/>
</g>
<!-- Node67&#45;&gt;Node24 -->
<g id="edge143" class="edge">
<title>Node67&#45;&gt;Node24</title>
<path fill="none" stroke="midnightblue" d="M422.08,-398.46C294.73,-391.92 38.02,-369.06 38.02,-291 38.02,-291 38.02,-291 38.02,-177 38.02,-146.2 37.45,-130.56 62.02,-112 106.04,-78.76 493.75,-69.57 613.16,-67.51"/>
<polygon fill="midnightblue" stroke="midnightblue" points="613.29,-71.01 623.23,-67.35 613.17,-64.01 613.29,-71.01"/>
</g>
<!-- Node67&#45;&gt;Node36 -->
<g id="edge129" class="edge">
<title>Node67&#45;&gt;Node36</title>
<path fill="none" stroke="midnightblue" d="M533.21,-392.47C602.44,-378.45 746.7,-350.65 870.02,-336 1110.2,-307.47 1173.21,-331.44 1413.02,-300 1515.58,-286.56 1634.21,-260.6 1697.57,-245.88"/>
<polygon fill="midnightblue" stroke="midnightblue" points="1698.68,-249.21 1707.62,-243.53 1697.09,-242.39 1698.68,-249.21"/>
</g>
<!-- Node67&#45;&gt;Node42 -->
<g id="edge144" class="edge">
<title>Node67&#45;&gt;Node42</title>
<path fill="none" stroke="midnightblue" d="M422.27,-399.71C348.57,-396.69 239.39,-386.96 213.02,-356 207.26,-349.23 210.46,-344.51 213.02,-336 238.78,-250.29 248.16,-215.48 324.02,-168 374.65,-136.31 554.76,-126.65 630.29,-123.96"/>
<polygon fill="midnightblue" stroke="midnightblue" points="630.78,-127.44 640.65,-123.61 630.54,-120.45 630.78,-127.44"/>
</g>
<!-- Node67&#45;&gt;Node30 -->
<g id="edge145" class="edge">
<title>Node67&#45;&gt;Node30</title>
<path fill="none" stroke="midnightblue" d="M561.77,-397.67C835.09,-384.4 1821.11,-334.32 1878.02,-300 1912.23,-279.37 1894,-247.88 1926.02,-224 1936.49,-216.19 2012.13,-196.93 2055.56,-186.32"/>
<polygon fill="midnightblue" stroke="midnightblue" points="2056.44,-189.7 2065.33,-183.94 2054.79,-182.9 2056.44,-189.7"/>
</g>
<!-- Node67&#45;&gt;Node50 -->
<g id="edge128" class="edge">
<title>Node67&#45;&gt;Node50</title>
<path fill="none" stroke="midnightblue" d="M525.79,-392.49C576.54,-379.77 675.53,-355.24 760.02,-336 876.55,-309.47 905.3,-300.6 1023.02,-280 1113.84,-264.1 1219.67,-250.41 1285.76,-242.44"/>
<polygon fill="midnightblue" stroke="midnightblue" points="1286.51,-245.87 1296.02,-241.21 1285.68,-238.92 1286.51,-245.87"/>
</g>
<!-- Node68 -->
<g id="node40" class="node">
<title>Node68</title>
<g id="a_node40"><a xlink:href="Triple_8h.html" target="_top" xlink:title="llvm/ADT/Triple.h">
<polygon fill="none" stroke="red" points="232.52,-336.5 232.52,-355.5 325.52,-355.5 325.52,-336.5 232.52,-336.5"/>
<text text-anchor="middle" x="279.02" y="-343.5" font-family="Helvetica,sans-Serif" font-size="10.00">llvm/ADT/Triple.h</text>
</a>
</g>
</g>
<!-- Node67&#45;&gt;Node68 -->
<g id="edge130" class="edge">
<title>Node67&#45;&gt;Node68</title>
<path fill="none" stroke="midnightblue" d="M458.27,-392.44C421.5,-383.12 362.58,-368.18 322.4,-358"/>
<polygon fill="midnightblue" stroke="midnightblue" points="323.17,-354.58 312.61,-355.52 321.45,-361.37 323.17,-354.58"/>
</g>
<!-- Node70 -->
<g id="node41" class="node">
<title>Node70</title>
<g id="a_node41"><a xlink:href="MCInstrItineraries_8h.html" target="_top" xlink:title="llvm/MC/MCInstrItineraries.h">
<polygon fill="none" stroke="black" points="420.52,-336.5 420.52,-355.5 563.52,-355.5 563.52,-336.5 420.52,-336.5"/>
<text text-anchor="middle" x="492.02" y="-343.5" font-family="Helvetica,sans-Serif" font-size="10.00">llvm/MC/MCInstrItineraries.h</text>
</a>
</g>
</g>
<!-- Node67&#45;&gt;Node70 -->
<g id="edge131" class="edge">
<title>Node67&#45;&gt;Node70</title>
<path fill="none" stroke="midnightblue" d="M492.02,-392.08C492.02,-385.01 492.02,-374.86 492.02,-365.99"/>
<polygon fill="midnightblue" stroke="midnightblue" points="495.52,-365.75 492.02,-355.75 488.52,-365.75 495.52,-365.75"/>
</g>
<!-- Node71 -->
<g id="node42" class="node">
<title>Node71</title>
<g id="a_node42"><a xlink:href="MCSchedule_8h.html" target="_top" xlink:title="llvm/MC/MCSchedule.h">
<polygon fill="none" stroke="red" points="294.52,-280.5 294.52,-299.5 415.52,-299.5 415.52,-280.5 294.52,-280.5"/>
<text text-anchor="middle" x="355.02" y="-287.5" font-family="Helvetica,sans-Serif" font-size="10.00">llvm/MC/MCSchedule.h</text>
</a>
</g>
</g>
<!-- Node67&#45;&gt;Node71 -->
<g id="edge136" class="edge">
<title>Node67&#45;&gt;Node71</title>
<path fill="none" stroke="midnightblue" d="M422.42,-399.17C351.66,-395.66 248.97,-385.49 224.02,-356 200.59,-328.31 244.12,-311.28 287.16,-301.64"/>
<polygon fill="midnightblue" stroke="midnightblue" points="288.12,-305.01 297.18,-299.52 286.67,-298.16 288.12,-305.01"/>
</g>
<!-- Node72 -->
<g id="node43" class="node">
<title>Node72</title>
<g id="a_node43"><a xlink:href="SubtargetFeature_8h.html" target="_top" xlink:title="llvm/MC/SubtargetFeature.h">
<polygon fill="none" stroke="red" points="1729.02,-280.5 1729.02,-299.5 1869.02,-299.5 1869.02,-280.5 1729.02,-280.5"/>
<text text-anchor="middle" x="1799.02" y="-287.5" font-family="Helvetica,sans-Serif" font-size="10.00">llvm/MC/SubtargetFeature.h</text>
</a>
</g>
</g>
<!-- Node67&#45;&gt;Node72 -->
<g id="edge137" class="edge">
<title>Node67&#45;&gt;Node72</title>
<path fill="none" stroke="midnightblue" d="M561.83,-395.12C785.05,-376.34 1480.7,-317.79 1718.43,-297.78"/>
<polygon fill="midnightblue" stroke="midnightblue" points="1719.06,-301.24 1728.73,-296.92 1718.47,-294.27 1719.06,-301.24"/>
</g>
<!-- Node70&#45;&gt;Node23 -->
<g id="edge135" class="edge">
<title>Node70&#45;&gt;Node23</title>
<path fill="none" stroke="midnightblue" d="M436.29,-336.49C378.58,-327.1 295.51,-311.78 286.02,-300 259.07,-266.52 218.15,-280.82 324.02,-168 368.75,-120.33 396.29,-126.52 460.02,-112 604.66,-79.06 1069.51,-69.62 1206.61,-67.52"/>
<polygon fill="midnightblue" stroke="midnightblue" points="1206.7,-71.01 1216.65,-67.37 1206.6,-64.01 1206.7,-71.01"/>
</g>
<!-- Node70&#45;&gt;Node71 -->
<g id="edge132" class="edge">
<title>Node70&#45;&gt;Node71</title>
<path fill="none" stroke="midnightblue" d="M470.31,-336.44C447.67,-327.52 411.95,-313.44 386.27,-303.32"/>
<polygon fill="midnightblue" stroke="midnightblue" points="387.21,-299.93 376.63,-299.52 384.65,-306.44 387.21,-299.93"/>
</g>
<!-- Node71&#45;&gt;Node24 -->
<g id="edge134" class="edge">
<title>Node71&#45;&gt;Node24</title>
<path fill="none" stroke="midnightblue" d="M294.11,-281.71C248.15,-274.82 190.6,-262.7 176.02,-244 139.95,-197.73 136.56,-155.41 176.02,-112 205.34,-79.76 509.1,-70.07 613.23,-67.68"/>
<polygon fill="midnightblue" stroke="midnightblue" points="613.59,-71.17 623.51,-67.45 613.44,-64.17 613.59,-71.17"/>
</g>
<!-- Node71&#45;&gt;Node50 -->
<g id="edge133" class="edge">
<title>Node71&#45;&gt;Node50</title>
<path fill="none" stroke="midnightblue" d="M415.77,-285.7C592.4,-276.12 1104.75,-248.31 1285.76,-238.49"/>
<polygon fill="midnightblue" stroke="midnightblue" points="1286.12,-241.97 1295.92,-237.94 1285.74,-234.98 1286.12,-241.97"/>
</g>
<!-- Node72&#45;&gt;Node13 -->
<g id="edge139" class="edge">
<title>Node72&#45;&gt;Node13</title>
<path fill="none" stroke="midnightblue" d="M1858.01,-280.48C1957.14,-266.49 2163.53,-238.72 2339.02,-224 2506.62,-209.94 2937.73,-247.55 3095.02,-188 3122.02,-177.78 3146.93,-154.92 3161.8,-139.23"/>
<polygon fill="midnightblue" stroke="midnightblue" points="3164.45,-141.52 3168.62,-131.78 3159.29,-136.79 3164.45,-141.52"/>
</g>
<!-- Node72&#45;&gt;Node33 -->
<g id="edge140" class="edge">
<title>Node72&#45;&gt;Node33</title>
<path fill="none" stroke="midnightblue" d="M1803.31,-280.26C1810.75,-266.08 1827.44,-238.2 1850.02,-224 1912.82,-184.5 1944.66,-216.83 2013.02,-188 2043.44,-175.17 2074.65,-152.86 2093.69,-138.01"/>
<polygon fill="midnightblue" stroke="midnightblue" points="2096.12,-140.55 2101.77,-131.59 2091.76,-135.07 2096.12,-140.55"/>
</g>
<!-- Node72&#45;&gt;Node36 -->
<g id="edge138" class="edge">
<title>Node72&#45;&gt;Node36</title>
<path fill="none" stroke="midnightblue" d="M1790.02,-280.32C1781.83,-272.42 1769.52,-260.55 1759.55,-250.94"/>
<polygon fill="midnightblue" stroke="midnightblue" points="1761.81,-248.26 1752.18,-243.83 1756.95,-253.29 1761.81,-248.26"/>
</g>
<!-- Node72&#45;&gt;Node30 -->
<g id="edge141" class="edge">
<title>Node72&#45;&gt;Node30</title>
<path fill="none" stroke="midnightblue" d="M1808.07,-280.36C1823.3,-266.32 1855.59,-238.64 1888.02,-224 1955.64,-193.47 1978.86,-205.24 2051.02,-188 2052.47,-187.65 2053.95,-187.29 2055.45,-186.93"/>
<polygon fill="midnightblue" stroke="midnightblue" points="2056.48,-190.28 2065.32,-184.45 2054.77,-183.49 2056.48,-190.28"/>
</g>
<!-- Node74&#45;&gt;Node4 -->
<g id="edge149" class="edge">
<title>Node74&#45;&gt;Node4</title>
<path fill="none" stroke="midnightblue" d="M1879.59,-392.87C1882.78,-392.55 1885.94,-392.25 1889.02,-392 1952.67,-386.8 2985.26,-391.99 3038.02,-356 3067.28,-336.04 3084.2,-307.62 3062.02,-280 3004.82,-208.75 2729.29,-187.53 2597.09,-181.4"/>
<polygon fill="midnightblue" stroke="midnightblue" points="2597.2,-177.9 2587.06,-180.95 2596.89,-184.89 2597.2,-177.9"/>
</g>
<!-- Node74&#45;&gt;Node13 -->
<g id="edge151" class="edge">
<title>Node74&#45;&gt;Node13</title>
<path fill="none" stroke="midnightblue" d="M1879.59,-392.87C1882.77,-392.54 1885.94,-392.25 1889.02,-392 2019.1,-381.42 2942.15,-405.21 3063.02,-356 3131.19,-328.24 3155.41,-311.39 3185.02,-244 3199.87,-210.22 3190.18,-166.01 3182.59,-141.47"/>
<polygon fill="midnightblue" stroke="midnightblue" points="3185.81,-140.07 3179.34,-131.68 3179.17,-142.27 3185.81,-140.07"/>
</g>
<!-- Node74&#45;&gt;Node37 -->
<g id="edge148" class="edge">
<title>Node74&#45;&gt;Node37</title>
<path fill="none" stroke="midnightblue" d="M1762.35,-400.25C1595.76,-397.74 1127.98,-387.91 1067.02,-356 1038.98,-341.32 1033.37,-329.91 1023.02,-300 992.68,-212.26 1327.57,-187.77 1475.67,-181.24"/>
<polygon fill="midnightblue" stroke="midnightblue" points="1476.16,-184.73 1486,-180.8 1475.86,-177.73 1476.16,-184.73"/>
</g>
<!-- Node74&#45;&gt;Node50 -->
<g id="edge147" class="edge">
<title>Node74&#45;&gt;Node50</title>
<path fill="none" stroke="midnightblue" d="M1762.27,-399.53C1622.81,-395.62 1275.08,-383.36 1162.02,-356 1100.88,-341.2 1066.6,-352.55 1032.02,-300 1027.14,-292.57 1026.19,-286.71 1032.02,-280 1064.18,-242.97 1202.3,-235.58 1285.57,-234.58"/>
<polygon fill="midnightblue" stroke="midnightblue" points="1285.72,-238.08 1295.69,-234.49 1285.66,-231.08 1285.72,-238.08"/>
</g>
<!-- Node74&#45;&gt;Node63 -->
<g id="edge152" class="edge">
<title>Node74&#45;&gt;Node63</title>
<path fill="none" stroke="midnightblue" d="M1879.71,-392.72C1963.06,-380.88 2106.95,-360.07 2118.02,-356 2150.8,-343.95 2184.38,-320.92 2204.46,-305.76"/>
<polygon fill="midnightblue" stroke="midnightblue" points="2206.66,-308.48 2212.45,-299.61 2202.39,-302.94 2206.66,-308.48"/>
</g>
<!-- Node74&#45;&gt;Node65 -->
<g id="edge150" class="edge">
<title>Node74&#45;&gt;Node65</title>
<path fill="none" stroke="midnightblue" d="M1762.4,-399.1C1628.76,-394.47 1291.29,-381.11 1010.02,-356 1008.55,-355.87 1007.06,-355.73 1005.57,-355.59"/>
<polygon fill="midnightblue" stroke="midnightblue" points="1005.86,-352.1 995.56,-354.57 1005.15,-359.06 1005.86,-352.1"/>
</g>
<!-- Node75&#45;&gt;Node4 -->
<g id="edge155" class="edge">
<title>Node75&#45;&gt;Node4</title>
<path fill="none" stroke="midnightblue" d="M2002.74,-392.93C2005.88,-392.58 2008.99,-392.26 2012.02,-392 2080.4,-386.06 3199.2,-405.24 3247.02,-356 3270.56,-331.77 3264.88,-308.67 3247.02,-280 3217.18,-232.09 3187.5,-238.8 3133.02,-224 3033.91,-197.07 2735.34,-185.09 2597.36,-180.89"/>
<polygon fill="midnightblue" stroke="midnightblue" points="2597.41,-177.39 2587.31,-180.58 2597.2,-184.38 2597.41,-177.39"/>
</g>
<!-- Node75&#45;&gt;Node50 -->
<g id="edge154" class="edge">
<title>Node75&#45;&gt;Node50</title>
<path fill="none" stroke="midnightblue" d="M1897.45,-393.23C1894.6,-392.82 1891.78,-392.4 1889.02,-392 1747.5,-371.34 1345.65,-408.12 1252.02,-300 1231.5,-276.3 1270.86,-257.64 1305.65,-246.51"/>
<polygon fill="midnightblue" stroke="midnightblue" points="1306.74,-249.84 1315.28,-243.57 1304.7,-243.14 1306.74,-249.84"/>
</g>
<!-- Node75&#45;&gt;Node71 -->
<g id="edge156" class="edge">
<title>Node75&#45;&gt;Node71</title>
<path fill="none" stroke="midnightblue" d="M1897.49,-392.92C1894.63,-392.58 1891.79,-392.27 1889.02,-392 1567.07,-360.35 1484.27,-384.46 1162.02,-356 1091.95,-349.81 1075.03,-342.8 1005.02,-336 766.94,-312.88 706.58,-317.5 468.02,-300 454.36,-299 439.77,-297.88 425.78,-296.77"/>
<polygon fill="midnightblue" stroke="midnightblue" points="425.95,-293.28 415.71,-295.97 425.4,-300.25 425.95,-293.28"/>
</g>
<!-- Node75&#45;&gt;Node76 -->
<g id="edge157" class="edge">
<title>Node75&#45;&gt;Node76</title>
<path fill="none" stroke="midnightblue" d="M2002.66,-393.15C2068.26,-383.36 2180.21,-366.66 2249.94,-356.26"/>
<polygon fill="midnightblue" stroke="midnightblue" points="2250.53,-359.71 2259.91,-354.77 2249.5,-352.79 2250.53,-359.71"/>
</g>
<!-- Node76&#45;&gt;Node4 -->
<g id="edge159" class="edge">
<title>Node76&#45;&gt;Node4</title>
<path fill="none" stroke="midnightblue" d="M2327.47,-336.29C2355.86,-319.97 2417.65,-282.88 2464.02,-244 2482.03,-228.9 2500.33,-209.05 2512.33,-195.28"/>
<polygon fill="midnightblue" stroke="midnightblue" points="2515.07,-197.45 2518.93,-187.58 2509.76,-192.89 2515.07,-197.45"/>
</g>
<!-- Node76&#45;&gt;Node7 -->
<g id="edge171" class="edge">
<title>Node76&#45;&gt;Node7</title>
<path fill="none" stroke="midnightblue" d="M2364.12,-341.18C2422.72,-335.9 2520.26,-324.15 2601.02,-300 2621.6,-293.85 2624.12,-284.98 2645.02,-280 2740.33,-257.31 3449.03,-304.58 3526.02,-244 3546.36,-227.99 3538.43,-213.63 3542.02,-188 3548.35,-142.8 3551.11,-74.95 3531.02,-56 3489.85,-17.16 2606.48,-11.78 2430.4,-11.09"/>
<polygon fill="midnightblue" stroke="midnightblue" points="2430.29,-7.59 2420.28,-11.06 2430.27,-14.59 2430.29,-7.59"/>
</g>
<!-- Node76&#45;&gt;Node8 -->
<g id="edge160" class="edge">
<title>Node76&#45;&gt;Node8</title>
<path fill="none" stroke="midnightblue" d="M2321.3,-336.39C2335.01,-323.76 2361.58,-299.58 2385.02,-280 2404.95,-263.36 2419.65,-267.34 2431.02,-244 2451.94,-201.06 2397.3,-158.36 2363.48,-137.02"/>
<polygon fill="midnightblue" stroke="midnightblue" points="2364.93,-133.81 2354.57,-131.59 2361.29,-139.78 2364.93,-133.81"/>
</g>
<!-- Node76&#45;&gt;Node9 -->
<g id="edge161" class="edge">
<title>Node76&#45;&gt;Node9</title>
<path fill="none" stroke="midnightblue" d="M2364.22,-339.01C2415.53,-332.33 2495.7,-319.8 2563.02,-300 2585.19,-293.48 2588.85,-286.52 2611.02,-280 2833.67,-214.54 2903.05,-255.74 3125.02,-188 3184.02,-169.99 3218.33,-183.68 3252.02,-132 3270.32,-103.94 3232.97,-87.25 3194.6,-77.83"/>
<polygon fill="midnightblue" stroke="midnightblue" points="3195.38,-74.42 3184.85,-75.58 3193.81,-81.24 3195.38,-74.42"/>
</g>
<!-- Node76&#45;&gt;Node23 -->
<g id="edge164" class="edge">
<title>Node76&#45;&gt;Node23</title>
<path fill="none" stroke="midnightblue" d="M2259.74,-342.51C2220.69,-340.67 2166.02,-338.12 2118.02,-336 2070.47,-333.9 1301.47,-326.64 1262.02,-300 1194.11,-254.13 1203.3,-212.11 1186.02,-132 1184.15,-123.31 1182.08,-119.97 1186.02,-112 1192.62,-98.66 1205.29,-88.19 1217.19,-80.73"/>
<polygon fill="midnightblue" stroke="midnightblue" points="1219.14,-83.64 1226.04,-75.6 1215.63,-77.59 1219.14,-83.64"/>
</g>
<!-- Node76&#45;&gt;Node24 -->
<g id="edge165" class="edge">
<title>Node76&#45;&gt;Node24</title>
<path fill="none" stroke="midnightblue" d="M2259.75,-342.26C2220.71,-340.29 2166.04,-337.69 2118.02,-336 1951.19,-330.13 779.79,-332.36 616.02,-300 547.84,-286.53 363.39,-245.27 324.02,-188 252.71,-84.27 515.47,-69.29 612.98,-67.26"/>
<polygon fill="midnightblue" stroke="midnightblue" points="613.28,-70.76 623.22,-67.08 613.16,-63.76 613.28,-70.76"/>
</g>
<!-- Node76&#45;&gt;Node21 -->
<g id="edge170" class="edge">
<title>Node76&#45;&gt;Node21</title>
<path fill="none" stroke="midnightblue" d="M2349.6,-336.48C2419.29,-319.08 2570.27,-273.65 2667.02,-188 2695.3,-162.97 2724.88,-144.12 2705.02,-112 2698.43,-101.34 2670.95,-88.49 2648.07,-79.26"/>
<polygon fill="midnightblue" stroke="midnightblue" points="2649.21,-75.94 2638.62,-75.54 2646.64,-82.46 2649.21,-75.94"/>
</g>
<!-- Node76&#45;&gt;Node35 -->
<g id="edge167" class="edge">
<title>Node76&#45;&gt;Node35</title>
<path fill="none" stroke="midnightblue" d="M2364.36,-336.75C2407.91,-329.22 2471.25,-316.72 2525.02,-300 2547.09,-293.14 2551.19,-287.59 2573.02,-280 2628.84,-260.6 2653.91,-279.67 2701.02,-244 2736.57,-217.09 2758.85,-167.72 2768.85,-141.12"/>
<polygon fill="midnightblue" stroke="midnightblue" points="2772.2,-142.13 2772.28,-131.54 2765.61,-139.77 2772.2,-142.13"/>
</g>
<!-- Node76&#45;&gt;Node37 -->
<g id="edge158" class="edge">
<title>Node76&#45;&gt;Node37</title>
<path fill="none" stroke="midnightblue" d="M2259.81,-342.59C2124.62,-336.12 1770.2,-317.7 1720.02,-300 1654.14,-276.76 1589.9,-222.19 1560.57,-194.99"/>
<polygon fill="midnightblue" stroke="midnightblue" points="1562.62,-192.11 1552.94,-187.8 1557.82,-197.2 1562.62,-192.11"/>
</g>
<!-- Node76&#45;&gt;Node42 -->
<g id="edge166" class="edge">
<title>Node76&#45;&gt;Node42</title>
<path fill="none" stroke="midnightblue" d="M2259.74,-342.42C2220.7,-340.53 2166.03,-337.96 2118.02,-336 1892.51,-326.77 1326.25,-333.29 1103.02,-300 911.94,-271.51 821.24,-322.97 683.02,-188 670.81,-176.07 666.34,-156.77 664.75,-142.29"/>
<polygon fill="midnightblue" stroke="midnightblue" points="668.22,-141.67 664.01,-131.95 661.24,-142.17 668.22,-141.67"/>
</g>
<!-- Node76&#45;&gt;Node30 -->
<g id="edge168" class="edge">
<title>Node76&#45;&gt;Node30</title>
<path fill="none" stroke="midnightblue" d="M2259.81,-342.09C2224.01,-337.63 2177.32,-326.67 2145.02,-300 2112.54,-273.18 2096.55,-224.14 2089.93,-197.47"/>
<polygon fill="midnightblue" stroke="midnightblue" points="2093.3,-196.5 2087.65,-187.54 2086.48,-198.07 2093.3,-196.5"/>
</g>
<!-- Node76&#45;&gt;Node63 -->
<g id="edge163" class="edge">
<title>Node76&#45;&gt;Node63</title>
<path fill="none" stroke="midnightblue" d="M2297.72,-336.32C2283.84,-327.9 2262.53,-314.97 2246.22,-305.07"/>
<polygon fill="midnightblue" stroke="midnightblue" points="2247.65,-301.85 2237.29,-299.65 2244.02,-307.83 2247.65,-301.85"/>
</g>
<!-- Node76&#45;&gt;Node64 -->
<g id="edge169" class="edge">
<title>Node76&#45;&gt;Node64</title>
<path fill="none" stroke="midnightblue" d="M2315.63,-336.19C2321.09,-323.31 2332.19,-298.82 2345.02,-280 2352,-269.76 2361.09,-259.36 2368.84,-251.14"/>
<polygon fill="midnightblue" stroke="midnightblue" points="2371.57,-253.35 2376.01,-243.73 2366.54,-248.48 2371.57,-253.35"/>
</g>
<!-- Node76&#45;&gt;Node81 -->
<g id="edge162" class="edge">
<title>Node76&#45;&gt;Node81</title>
<path fill="none" stroke="midnightblue" d="M2364.33,-337.88C2436.07,-328.13 2564.96,-310.6 2643.18,-299.96"/>
<polygon fill="midnightblue" stroke="midnightblue" points="2643.96,-303.38 2653.4,-298.57 2643.02,-296.45 2643.96,-303.38"/>
</g>
<!-- Node83&#45;&gt;Node9 -->
<g id="edge174" class="edge">
<title>Node83&#45;&gt;Node9</title>
<path fill="none" stroke="midnightblue" d="M3421.3,-224.3C3416.36,-201.75 3399.91,-141.2 3361.02,-112 3335.91,-93.15 3258.1,-80.79 3199.24,-73.88"/>
<polygon fill="midnightblue" stroke="midnightblue" points="3199.57,-70.39 3189.23,-72.73 3198.77,-77.35 3199.57,-70.39"/>
</g>
<!-- Node83&#45;&gt;Node13 -->
<g id="edge175" class="edge">
<title>Node83&#45;&gt;Node13</title>
<path fill="none" stroke="midnightblue" d="M3403.64,-224.37C3360.35,-205.09 3255.63,-158.45 3204.74,-135.79"/>
<polygon fill="midnightblue" stroke="midnightblue" points="3205.87,-132.46 3195.31,-131.59 3203.02,-138.86 3205.87,-132.46"/>
</g>
<!-- Node83&#45;&gt;Node24 -->
<g id="edge176" class="edge">
<title>Node83&#45;&gt;Node24</title>
<path fill="none" stroke="midnightblue" d="M3375.93,-232.79C3116.83,-231.48 1862.55,-223.38 1477.02,-188 1421.43,-182.9 1408.28,-175.96 1353.02,-168 1227.09,-149.87 1193.88,-156.45 1069.02,-132 1035.17,-125.37 1027.87,-118.68 994.02,-112 881.1,-89.7 745.2,-75.71 682.63,-69.98"/>
<polygon fill="midnightblue" stroke="midnightblue" points="682.8,-66.49 672.53,-69.07 682.18,-73.46 682.8,-66.49"/>
</g>
<!-- Node83&#45;&gt;Node25 -->
<g id="edge177" class="edge">
<title>Node83&#45;&gt;Node25</title>
<path fill="none" stroke="midnightblue" d="M3429.35,-224.35C3435.63,-215.51 3445.27,-201.25 3452.02,-188 3469.86,-153 3485.2,-109.57 3493.17,-85.41"/>
<polygon fill="midnightblue" stroke="midnightblue" points="3496.54,-86.36 3496.29,-75.77 3489.88,-84.2 3496.54,-86.36"/>
</g>
<!-- Node83&#45;&gt;Node26 -->
<g id="edge178" class="edge">
<title>Node83&#45;&gt;Node26</title>
<path fill="none" stroke="midnightblue" d="M3426.62,-224.22C3430.08,-215.28 3435.05,-200.94 3437.02,-188 3442.1,-154.61 3446.04,-144.55 3437.02,-112 3434.23,-101.92 3428.51,-91.83 3423.05,-83.77"/>
<polygon fill="midnightblue" stroke="midnightblue" points="3425.87,-81.69 3417.17,-75.64 3420.2,-85.79 3425.87,-81.69"/>
</g>
<!-- Node83&#45;&gt;Node30 -->
<g id="edge179" class="edge">
<title>Node83&#45;&gt;Node30</title>
<path fill="none" stroke="midnightblue" d="M3375.83,-231.09C3162.59,-222.48 2291.87,-187.31 2116.78,-180.24"/>
<polygon fill="midnightblue" stroke="midnightblue" points="2116.84,-176.74 2106.71,-179.84 2116.56,-183.74 2116.84,-176.74"/>
</g>
<!-- Node84&#45;&gt;Node36 -->
<g id="edge184" class="edge">
<title>Node84&#45;&gt;Node36</title>
<path fill="none" stroke="midnightblue" d="M2020.84,-393.18C1924.39,-379.81 1747.64,-349.13 1710.02,-300 1698.32,-284.71 1712.18,-264.64 1725.35,-250.87"/>
<polygon fill="midnightblue" stroke="midnightblue" points="1728.12,-253.06 1732.83,-243.57 1723.23,-248.05 1728.12,-253.06"/>
</g>
<!-- Node85 -->
<g id="node50" class="node">
<title>Node85</title>
<g id="a_node50"><a xlink:href="CommandLine_8h.html" target="_top" xlink:title="llvm/Support/CommandLine.h">
<polygon fill="none" stroke="red" points="1963.02,-336.5 1963.02,-355.5 2109.02,-355.5 2109.02,-336.5 1963.02,-336.5"/>
<text text-anchor="middle" x="2036.02" y="-343.5" font-family="Helvetica,sans-Serif" font-size="10.00">llvm/Support/CommandLine.h</text>
</a>
</g>
</g>
<!-- Node84&#45;&gt;Node85 -->
<g id="edge185" class="edge">
<title>Node84&#45;&gt;Node85</title>
<path fill="none" stroke="midnightblue" d="M2076.1,-392.08C2069.18,-384.3 2058.96,-372.8 2050.57,-363.37"/>
<polygon fill="midnightblue" stroke="midnightblue" points="2053.06,-360.9 2043.8,-355.75 2047.83,-365.55 2053.06,-360.9"/>
</g>
<!-- Node85&#45;&gt;Node4 -->
<g id="edge188" class="edge">
<title>Node85&#45;&gt;Node4</title>
<path fill="none" stroke="midnightblue" d="M2049.17,-336.5C2069.38,-323.58 2109.47,-298.55 2145.02,-280 2198.63,-252.02 2211.23,-241.8 2269.02,-224 2330.3,-205.13 2402.4,-193.37 2454.61,-186.62"/>
<polygon fill="midnightblue" stroke="midnightblue" points="2455.29,-190.06 2464.77,-185.34 2454.41,-183.12 2455.29,-190.06"/>
</g>
<!-- Node85&#45;&gt;Node5 -->
<g id="edge190" class="edge">
<title>Node85&#45;&gt;Node5</title>
<path fill="none" stroke="midnightblue" d="M1962.82,-343.49C1772.69,-339.21 1276.21,-325.62 1252.02,-300 1169.35,-212.45 1378.37,-113.51 1460.01,-79.36"/>
<polygon fill="midnightblue" stroke="midnightblue" points="1461.39,-82.57 1469.3,-75.52 1458.72,-76.1 1461.39,-82.57"/>
</g>
<!-- Node85&#45;&gt;Node12 -->
<g id="edge194" class="edge">
<title>Node85&#45;&gt;Node12</title>
<path fill="none" stroke="midnightblue" d="M2043.22,-336.32C2073.91,-298.83 2190.85,-150.92 2158.02,-112 2129.24,-77.87 1994.68,-69.62 1929.96,-67.63"/>
<polygon fill="midnightblue" stroke="midnightblue" points="1929.93,-64.13 1919.83,-67.36 1929.73,-71.13 1929.93,-64.13"/>
</g>
<!-- Node85&#45;&gt;Node24 -->
<g id="edge192" class="edge">
<title>Node85&#45;&gt;Node24</title>
<path fill="none" stroke="midnightblue" d="M1962.64,-344.76C1676.92,-343.57 647.57,-336.73 506.02,-300 453.69,-286.42 318.11,-234.2 290.02,-188 272.48,-159.14 267.68,-137.33 290.02,-112 311.23,-87.96 527.44,-73.59 613.22,-68.8"/>
<polygon fill="midnightblue" stroke="midnightblue" points="613.46,-72.29 623.25,-68.25 613.08,-65.3 613.46,-72.29"/>
</g>
<!-- Node85&#45;&gt;Node25 -->
<g id="edge193" class="edge">
<title>Node85&#45;&gt;Node25</title>
<path fill="none" stroke="midnightblue" d="M2098.42,-336.45C2203.82,-322.34 2423.96,-294.32 2611.02,-280 2660.64,-276.2 3471.55,-279.89 3506.02,-244 3547.52,-200.8 3521.82,-120.88 3507.15,-85.12"/>
<polygon fill="midnightblue" stroke="midnightblue" points="3510.36,-83.71 3503.21,-75.9 3503.92,-86.47 3510.36,-83.71"/>
</g>
<!-- Node85&#45;&gt;Node21 -->
<g id="edge197" class="edge">
<title>Node85&#45;&gt;Node21</title>
<path fill="none" stroke="midnightblue" d="M2097.56,-336.48C2231.7,-316.66 2544.18,-263.37 2616.02,-188 2639.9,-162.95 2639.57,-145.99 2633.02,-112 2631.23,-102.7 2627.54,-92.89 2623.96,-84.8"/>
<polygon fill="midnightblue" stroke="midnightblue" points="2627.08,-83.21 2619.64,-75.66 2620.75,-86.2 2627.08,-83.21"/>
</g>
<!-- Node85&#45;&gt;Node33 -->
<g id="edge195" class="edge">
<title>Node85&#45;&gt;Node33</title>
<path fill="none" stroke="midnightblue" d="M2033.91,-336.24C2031.26,-323.42 2027.85,-299.01 2035.02,-280 2054.26,-229.03 2096.78,-238.97 2116.02,-188 2121.64,-173.13 2119.88,-154.98 2117.15,-141.64"/>
<polygon fill="midnightblue" stroke="midnightblue" points="2120.51,-140.66 2114.77,-131.75 2113.7,-142.29 2120.51,-140.66"/>
</g>
<!-- Node85&#45;&gt;Node36 -->
<g id="edge189" class="edge">
<title>Node85&#45;&gt;Node36</title>
<path fill="none" stroke="midnightblue" d="M1962.71,-345.21C1879.35,-343.7 1750.8,-335.47 1720.02,-300 1708.07,-286.22 1718.49,-265.82 1728.89,-251.56"/>
<polygon fill="midnightblue" stroke="midnightblue" points="1731.73,-253.61 1735.16,-243.58 1726.23,-249.28 1731.73,-253.61"/>
</g>
<!-- Node85&#45;&gt;Node37 -->
<g id="edge187" class="edge">
<title>Node85&#45;&gt;Node37</title>
<path fill="none" stroke="midnightblue" d="M1962.86,-344.31C1822.21,-342.22 1525.13,-333.8 1494.02,-300 1465.69,-269.21 1503.95,-220.14 1527.69,-195"/>
<polygon fill="midnightblue" stroke="midnightblue" points="1530.3,-197.33 1534.78,-187.73 1525.29,-192.44 1530.3,-197.33"/>
</g>
<!-- Node85&#45;&gt;Node30 -->
<g id="edge196" class="edge">
<title>Node85&#45;&gt;Node30</title>
<path fill="none" stroke="midnightblue" d="M2025.03,-336.37C2015.57,-328.17 2002.59,-314.92 1997.02,-300 1993.91,-291.67 1994.16,-288.42 1997.02,-280 2009.56,-243.08 2043.56,-211.38 2065.72,-193.78"/>
<polygon fill="midnightblue" stroke="midnightblue" points="2068.05,-196.41 2073.84,-187.54 2063.78,-190.86 2068.05,-196.41"/>
</g>
<!-- Node85&#45;&gt;Node50 -->
<g id="edge186" class="edge">
<title>Node85&#45;&gt;Node50</title>
<path fill="none" stroke="midnightblue" d="M1962.73,-343.43C1774.27,-339.04 1285.85,-325.26 1262.02,-300 1241.59,-278.34 1279.19,-258.83 1311.4,-246.96"/>
<polygon fill="midnightblue" stroke="midnightblue" points="1312.89,-250.15 1321.16,-243.53 1310.56,-243.55 1312.89,-250.15"/>
</g>
<!-- Node85&#45;&gt;Node63 -->
<g id="edge191" class="edge">
<title>Node85&#45;&gt;Node63</title>
<path fill="none" stroke="midnightblue" d="M2065.65,-336.44C2097.52,-327.24 2148.35,-312.56 2183.59,-302.39"/>
<polygon fill="midnightblue" stroke="midnightblue" points="2184.89,-305.65 2193.53,-299.52 2182.95,-298.93 2184.89,-305.65"/>
</g>
</g>
</svg>
