<?xml version="1.0" encoding="UTF-8" standalone="no"?>
<!DOCTYPE svg PUBLIC "-//W3C//DTD SVG 1.1//EN"
 "http://www.w3.org/Graphics/SVG/1.1/DTD/svg11.dtd">
<!-- Generated by graphviz version 2.43.0 (0)
 -->
<!-- Title: include/llvm/MCA/InstrBuilder.h Pages: 1 -->
<svg width="3915pt" height="644pt"
 viewBox="0.00 0.00 3915.04 644.00" xmlns="http://www.w3.org/2000/svg" xmlns:xlink="http://www.w3.org/1999/xlink">
<g id="graph0" class="graph" transform="scale(1 1) rotate(0) translate(4 640)">
<title>include/llvm/MCA/InstrBuilder.h</title>
<!-- Node0 -->
<g id="node1" class="node">
<title>Node0</title>
<polygon fill="#bfbfbf" stroke="black" points="2556.54,-616.5 2556.54,-635.5 2711.54,-635.5 2711.54,-616.5 2556.54,-616.5"/>
<text text-anchor="middle" x="2634.04" y="-623.5" font-family="Helvetica,sans-Serif" font-size="10.00">include/llvm/MCA/InstrBuilder.h</text>
</g>
<!-- Node1 -->
<g id="node2" class="node">
<title>Node1</title>
<g id="a_node2"><a xlink:href="MCInstrAnalysis_8h.html" target="_top" xlink:title="llvm/MC/MCInstrAnalysis.h">
<polygon fill="none" stroke="black" points="2468.54,-560.5 2468.54,-579.5 2605.54,-579.5 2605.54,-560.5 2468.54,-560.5"/>
<text text-anchor="middle" x="2537.04" y="-567.5" font-family="Helvetica,sans-Serif" font-size="10.00">llvm/MC/MCInstrAnalysis.h</text>
</a>
</g>
</g>
<!-- Node0&#45;&gt;Node1 -->
<g id="edge1" class="edge">
<title>Node0&#45;&gt;Node1</title>
<path fill="none" stroke="midnightblue" d="M2618.46,-616.32C2603.04,-607.74 2579.23,-594.49 2561.33,-584.52"/>
<polygon fill="midnightblue" stroke="midnightblue" points="2563.03,-581.46 2552.59,-579.65 2559.62,-587.58 2563.03,-581.46"/>
</g>
<!-- Node46 -->
<g id="node28" class="node">
<title>Node46</title>
<g id="a_node28"><a xlink:href="MCRegisterInfo_8h.html" target="_top" xlink:title="llvm/MC/MCRegisterInfo.h">
<polygon fill="none" stroke="black" points="2697.04,-392.5 2697.04,-411.5 2831.04,-411.5 2831.04,-392.5 2697.04,-392.5"/>
<text text-anchor="middle" x="2764.04" y="-399.5" font-family="Helvetica,sans-Serif" font-size="10.00">llvm/MC/MCRegisterInfo.h</text>
</a>
</g>
</g>
<!-- Node0&#45;&gt;Node46 -->
<g id="edge117" class="edge">
<title>Node0&#45;&gt;Node46</title>
<path fill="none" stroke="midnightblue" d="M2670.3,-616.48C2690.56,-609.85 2714.57,-598.57 2729.04,-580 2765.88,-532.71 2767.2,-457.21 2765.52,-422.11"/>
<polygon fill="midnightblue" stroke="midnightblue" points="2769,-421.61 2764.88,-411.85 2762.01,-422.05 2769,-421.61"/>
</g>
<!-- Node65 -->
<g id="node37" class="node">
<title>Node65</title>
<g id="a_node37"><a xlink:href="MCInstrInfo_8h.html" target="_top" xlink:title="llvm/MC/MCInstrInfo.h">
<polygon fill="none" stroke="black" points="2571.04,-504.5 2571.04,-523.5 2687.04,-523.5 2687.04,-504.5 2571.04,-504.5"/>
<text text-anchor="middle" x="2629.04" y="-511.5" font-family="Helvetica,sans-Serif" font-size="10.00">llvm/MC/MCInstrInfo.h</text>
</a>
</g>
</g>
<!-- Node0&#45;&gt;Node65 -->
<g id="edge116" class="edge">
<title>Node0&#45;&gt;Node65</title>
<path fill="none" stroke="midnightblue" d="M2633.65,-616.37C2632.84,-598.62 2630.98,-557.67 2629.89,-533.6"/>
<polygon fill="midnightblue" stroke="midnightblue" points="2633.38,-533.42 2629.43,-523.59 2626.39,-533.74 2633.38,-533.42"/>
</g>
<!-- Node66 -->
<g id="node38" class="node">
<title>Node66</title>
<g id="a_node38"><a xlink:href="MCSubtargetInfo_8h.html" target="_top" xlink:title="llvm/MC/MCSubtargetInfo.h">
<polygon fill="none" stroke="black" points="3409.54,-392.5 3409.54,-411.5 3548.54,-411.5 3548.54,-392.5 3409.54,-392.5"/>
<text text-anchor="middle" x="3479.04" y="-399.5" font-family="Helvetica,sans-Serif" font-size="10.00">llvm/MC/MCSubtargetInfo.h</text>
</a>
</g>
</g>
<!-- Node0&#45;&gt;Node66 -->
<g id="edge118" class="edge">
<title>Node0&#45;&gt;Node66</title>
<path fill="none" stroke="midnightblue" d="M2666.65,-616.43C2798.01,-581.92 3288.45,-453.07 3436.48,-414.18"/>
<polygon fill="midnightblue" stroke="midnightblue" points="3437.75,-417.47 3446.53,-411.54 3435.97,-410.7 3437.75,-417.47"/>
</g>
<!-- Node73 -->
<g id="node44" class="node">
<title>Node73</title>
<g id="a_node44"><a xlink:href="MCA_2Instruction_8h.html" target="_top" xlink:title="This file defines abstractions used by the Pipeline to model register reads, register writes and inst...">
<polygon fill="none" stroke="black" points="2530.54,-336.5 2530.54,-355.5 2647.54,-355.5 2647.54,-336.5 2530.54,-336.5"/>
<text text-anchor="middle" x="2589.04" y="-343.5" font-family="Helvetica,sans-Serif" font-size="10.00">llvm/MCA/Instruction.h</text>
</a>
</g>
</g>
<!-- Node0&#45;&gt;Node73 -->
<g id="edge144" class="edge">
<title>Node0&#45;&gt;Node73</title>
<path fill="none" stroke="midnightblue" d="M2643.95,-616.35C2664.74,-597.1 2709.88,-548.89 2696.04,-504 2677.98,-445.44 2629.78,-389.19 2604.7,-362.74"/>
<polygon fill="midnightblue" stroke="midnightblue" points="2607.18,-360.27 2597.72,-355.52 2602.15,-365.14 2607.18,-360.27"/>
</g>
<!-- Node74 -->
<g id="node45" class="node">
<title>Node74</title>
<g id="a_node45"><a xlink:href="MCA_2Support_8h.html" target="_top" xlink:title="Helper functions used by various pipeline components. ">
<polygon fill="none" stroke="black" points="2330.54,-448.5 2330.54,-467.5 2435.54,-467.5 2435.54,-448.5 2330.54,-448.5"/>
<text text-anchor="middle" x="2383.04" y="-455.5" font-family="Helvetica,sans-Serif" font-size="10.00">llvm/MCA/Support.h</text>
</a>
</g>
</g>
<!-- Node0&#45;&gt;Node74 -->
<g id="edge152" class="edge">
<title>Node0&#45;&gt;Node74</title>
<path fill="none" stroke="midnightblue" d="M2556.28,-617.81C2523.8,-611.73 2487.16,-600.54 2459.04,-580 2422.77,-553.51 2399.79,-503.97 2389.44,-477.23"/>
<polygon fill="midnightblue" stroke="midnightblue" points="2392.63,-475.76 2385.88,-467.59 2386.07,-478.19 2392.63,-475.76"/>
</g>
<!-- Node75 -->
<g id="node46" class="node">
<title>Node75</title>
<g id="a_node46"><a xlink:href="Support_2Error_8h.html" target="_top" xlink:title="llvm/Support/Error.h">
<polygon fill="none" stroke="black" points="1350.04,-392.5 1350.04,-411.5 1454.04,-411.5 1454.04,-392.5 1350.04,-392.5"/>
<text text-anchor="middle" x="1402.04" y="-399.5" font-family="Helvetica,sans-Serif" font-size="10.00">llvm/Support/Error.h</text>
</a>
</g>
</g>
<!-- Node0&#45;&gt;Node75 -->
<g id="edge197" class="edge">
<title>Node0&#45;&gt;Node75</title>
<path fill="none" stroke="midnightblue" d="M2586.5,-616.43C2393.54,-581.66 1669.17,-451.13 1459.33,-413.32"/>
<polygon fill="midnightblue" stroke="midnightblue" points="1459.9,-409.87 1449.44,-411.54 1458.66,-416.76 1459.9,-409.87"/>
</g>
<!-- Node2 -->
<g id="node3" class="node">
<title>Node2</title>
<g id="a_node3"><a xlink:href="MCInst_8h.html" target="_top" xlink:title="llvm/MC/MCInst.h">
<polygon fill="none" stroke="black" points="2360.54,-280.5 2360.54,-299.5 2457.54,-299.5 2457.54,-280.5 2360.54,-280.5"/>
<text text-anchor="middle" x="2409.04" y="-287.5" font-family="Helvetica,sans-Serif" font-size="10.00">llvm/MC/MCInst.h</text>
</a>
</g>
</g>
<!-- Node1&#45;&gt;Node2 -->
<g id="edge2" class="edge">
<title>Node1&#45;&gt;Node2</title>
<path fill="none" stroke="midnightblue" d="M2525.95,-560.33C2505.53,-543.29 2464.04,-503.24 2464.04,-459 2464.04,-459 2464.04,-459 2464.04,-401 2464.04,-364.57 2439.61,-327.84 2423.31,-307.39"/>
<polygon fill="midnightblue" stroke="midnightblue" points="2426,-305.14 2416.92,-299.67 2420.6,-309.6 2426,-305.14"/>
</g>
<!-- Node41 -->
<g id="node24" class="node">
<title>Node41</title>
<polygon fill="none" stroke="#bfbfbf" points="2601.04,-112.5 2601.04,-131.5 2647.04,-131.5 2647.04,-112.5 2601.04,-112.5"/>
<text text-anchor="middle" x="2624.04" y="-119.5" font-family="Helvetica,sans-Serif" font-size="10.00">cstdint</text>
</g>
<!-- Node1&#45;&gt;Node41 -->
<g id="edge115" class="edge">
<title>Node1&#45;&gt;Node41</title>
<path fill="none" stroke="midnightblue" d="M2538.04,-560.11C2540.07,-546.21 2545.94,-519.35 2562.04,-504 2609.14,-459.09 2794.85,-458.82 2840.04,-412 2860.95,-390.35 2859.04,-377.1 2859.04,-347 2859.04,-347 2859.04,-347 2859.04,-289 2859.04,-266.8 2718.46,-180.4 2700.04,-168 2683.29,-156.72 2663.67,-145.14 2648.56,-136.55"/>
<polygon fill="midnightblue" stroke="midnightblue" points="2650.23,-133.48 2639.8,-131.62 2646.79,-139.58 2650.23,-133.48"/>
</g>
<!-- Node45 -->
<g id="node27" class="node">
<title>Node45</title>
<g id="a_node27"><a xlink:href="MCInstrDesc_8h.html" target="_top" xlink:title="llvm/MC/MCInstrDesc.h">
<polygon fill="none" stroke="red" points="2504.54,-448.5 2504.54,-467.5 2627.54,-467.5 2627.54,-448.5 2504.54,-448.5"/>
<text text-anchor="middle" x="2566.04" y="-455.5" font-family="Helvetica,sans-Serif" font-size="10.00">llvm/MC/MCInstrDesc.h</text>
</a>
</g>
</g>
<!-- Node1&#45;&gt;Node45 -->
<g id="edge63" class="edge">
<title>Node1&#45;&gt;Node45</title>
<path fill="none" stroke="midnightblue" d="M2533.52,-560.31C2528.9,-547.57 2522.14,-523.27 2529.04,-504 2532.98,-493 2540.9,-482.77 2548.4,-474.85"/>
<polygon fill="midnightblue" stroke="midnightblue" points="2550.93,-477.27 2555.6,-467.76 2546.02,-472.28 2550.93,-477.27"/>
</g>
<!-- Node1&#45;&gt;Node65 -->
<g id="edge112" class="edge">
<title>Node1&#45;&gt;Node65</title>
<path fill="none" stroke="midnightblue" d="M2551.82,-560.32C2566.31,-551.82 2588.61,-538.73 2605.53,-528.8"/>
<polygon fill="midnightblue" stroke="midnightblue" points="2607.44,-531.74 2614.3,-523.65 2603.9,-525.7 2607.44,-531.74"/>
</g>
<!-- Node3 -->
<g id="node4" class="node">
<title>Node3</title>
<g id="a_node4"><a xlink:href="SmallVector_8h.html" target="_top" xlink:title="llvm/ADT/SmallVector.h">
<polygon fill="none" stroke="red" points="1992.04,-168.5 1992.04,-187.5 2114.04,-187.5 2114.04,-168.5 1992.04,-168.5"/>
<text text-anchor="middle" x="2053.04" y="-175.5" font-family="Helvetica,sans-Serif" font-size="10.00">llvm/ADT/SmallVector.h</text>
</a>
</g>
</g>
<!-- Node2&#45;&gt;Node3 -->
<g id="edge3" class="edge">
<title>Node2&#45;&gt;Node3</title>
<path fill="none" stroke="midnightblue" d="M2381.4,-280.46C2318.06,-260.89 2162.32,-212.77 2090.47,-190.57"/>
<polygon fill="midnightblue" stroke="midnightblue" points="2091.5,-187.22 2080.91,-187.61 2089.43,-193.91 2091.5,-187.22"/>
</g>
<!-- Node11 -->
<g id="node10" class="node">
<title>Node11</title>
<polygon fill="none" stroke="#bfbfbf" points="1661.54,-56.5 1661.54,-75.5 1710.54,-75.5 1710.54,-56.5 1661.54,-56.5"/>
<text text-anchor="middle" x="1686.04" y="-63.5" font-family="Helvetica,sans-Serif" font-size="10.00">cstddef</text>
</g>
<!-- Node2&#45;&gt;Node11 -->
<g id="edge61" class="edge">
<title>Node2&#45;&gt;Node11</title>
<path fill="none" stroke="midnightblue" d="M2360.4,-282.64C2253.13,-267.37 1989.79,-222.94 1788.04,-132 1757.33,-118.16 1725.05,-96.14 1705.23,-81.62"/>
<polygon fill="midnightblue" stroke="midnightblue" points="1707.17,-78.7 1697.05,-75.54 1702.99,-84.32 1707.17,-78.7"/>
</g>
<!-- Node23 -->
<g id="node13" class="node">
<title>Node23</title>
<polygon fill="none" stroke="#bfbfbf" points="3502.54,-56.5 3502.54,-75.5 3551.54,-75.5 3551.54,-56.5 3502.54,-56.5"/>
<text text-anchor="middle" x="3527.04" y="-63.5" font-family="Helvetica,sans-Serif" font-size="10.00">cassert</text>
</g>
<!-- Node2&#45;&gt;Node23 -->
<g id="edge60" class="edge">
<title>Node2&#45;&gt;Node23</title>
<path fill="none" stroke="midnightblue" d="M2457.71,-284.84C2536.96,-277.84 2698.73,-262.64 2835.04,-244 2888.18,-236.74 2900.98,-231.77 2954.04,-224 3081.68,-205.31 3118.98,-226.66 3242.04,-188 3260.25,-182.28 3261.87,-173.84 3280.04,-168 3335.79,-150.1 3502.57,-176.14 3541.04,-132 3552.38,-118.99 3545.7,-99.01 3538.18,-84.63"/>
<polygon fill="midnightblue" stroke="midnightblue" points="3541.08,-82.65 3533.05,-75.73 3535.01,-86.14 3541.08,-82.65"/>
</g>
<!-- Node35 -->
<g id="node20" class="node">
<title>Node35</title>
<g id="a_node20"><a xlink:href="StringRef_8h.html" target="_top" xlink:title="llvm/ADT/StringRef.h">
<polygon fill="none" stroke="red" points="1662.04,-224.5 1662.04,-243.5 1772.04,-243.5 1772.04,-224.5 1662.04,-224.5"/>
<text text-anchor="middle" x="1717.04" y="-231.5" font-family="Helvetica,sans-Serif" font-size="10.00">llvm/ADT/StringRef.h</text>
</a>
</g>
</g>
<!-- Node2&#45;&gt;Node35 -->
<g id="edge28" class="edge">
<title>Node2&#45;&gt;Node35</title>
<path fill="none" stroke="midnightblue" d="M2360.38,-285.2C2238.53,-275.69 1920.19,-250.85 1782.3,-240.09"/>
<polygon fill="midnightblue" stroke="midnightblue" points="1782.53,-236.6 1772.29,-239.31 1781.98,-243.58 1782.53,-236.6"/>
</g>
<!-- Node2&#45;&gt;Node41 -->
<g id="edge62" class="edge">
<title>Node2&#45;&gt;Node41</title>
<path fill="none" stroke="midnightblue" d="M2430.17,-280.45C2448.86,-272.4 2476.43,-259.32 2498.04,-244 2543.19,-211.99 2588,-164.13 2610.01,-139.29"/>
<polygon fill="midnightblue" stroke="midnightblue" points="2612.85,-141.35 2616.81,-131.52 2607.59,-136.74 2612.85,-141.35"/>
</g>
<!-- Node44 -->
<g id="node26" class="node">
<title>Node44</title>
<g id="a_node26"><a xlink:href="SMLoc_8h.html" target="_top" xlink:title="llvm/Support/SMLoc.h">
<polygon fill="none" stroke="red" points="2963.54,-224.5 2963.54,-243.5 3076.54,-243.5 3076.54,-224.5 2963.54,-224.5"/>
<text text-anchor="middle" x="3020.04" y="-231.5" font-family="Helvetica,sans-Serif" font-size="10.00">llvm/Support/SMLoc.h</text>
</a>
</g>
</g>
<!-- Node2&#45;&gt;Node44 -->
<g id="edge58" class="edge">
<title>Node2&#45;&gt;Node44</title>
<path fill="none" stroke="midnightblue" d="M2457.88,-285.64C2552.69,-278.95 2768.24,-262.98 2949.04,-244 2950.51,-243.85 2951.99,-243.69 2953.49,-243.52"/>
<polygon fill="midnightblue" stroke="midnightblue" points="2953.94,-246.99 2963.49,-242.39 2953.16,-240.04 2953.94,-246.99"/>
</g>
<!-- Node4 -->
<g id="node5" class="node">
<title>Node4</title>
<g id="a_node5"><a xlink:href="iterator__range_8h.html" target="_top" xlink:title="This provides a very simple, boring adaptor for a begin and end iterator into a range type...">
<polygon fill="none" stroke="black" points="1501.04,-56.5 1501.04,-75.5 1629.04,-75.5 1629.04,-56.5 1501.04,-56.5"/>
<text text-anchor="middle" x="1565.04" y="-63.5" font-family="Helvetica,sans-Serif" font-size="10.00">llvm/ADT/iterator_range.h</text>
</a>
</g>
</g>
<!-- Node3&#45;&gt;Node4 -->
<g id="edge4" class="edge">
<title>Node3&#45;&gt;Node4</title>
<path fill="none" stroke="midnightblue" d="M1991.87,-171.98C1937.91,-166.26 1857.69,-154.63 1791.04,-132 1772.97,-125.86 1770.91,-118.72 1753.04,-112 1711.69,-96.45 1663.17,-84.99 1625.77,-77.53"/>
<polygon fill="midnightblue" stroke="midnightblue" points="1626.02,-74.02 1615.53,-75.53 1624.68,-80.89 1626.02,-74.02"/>
</g>
<!-- Node5 -->
<g id="node6" class="node">
<title>Node5</title>
<polygon fill="none" stroke="#bfbfbf" points="2497.54,-0.5 2497.54,-19.5 2544.54,-19.5 2544.54,-0.5 2497.54,-0.5"/>
<text text-anchor="middle" x="2521.04" y="-7.5" font-family="Helvetica,sans-Serif" font-size="10.00">iterator</text>
</g>
<!-- Node3&#45;&gt;Node5 -->
<g id="edge23" class="edge">
<title>Node3&#45;&gt;Node5</title>
<path fill="none" stroke="midnightblue" d="M2064.04,-168.29C2093.15,-145.73 2175.35,-85.12 2254.04,-56 2334.3,-26.3 2435.44,-16.08 2487.17,-12.66"/>
<polygon fill="midnightblue" stroke="midnightblue" points="2487.66,-16.14 2497.43,-12.03 2487.23,-9.15 2487.66,-16.14"/>
</g>
<!-- Node6 -->
<g id="node7" class="node">
<title>Node6</title>
<polygon fill="none" stroke="#bfbfbf" points="680.04,-0.5 680.04,-19.5 720.04,-19.5 720.04,-0.5 680.04,-0.5"/>
<text text-anchor="middle" x="700.04" y="-7.5" font-family="Helvetica,sans-Serif" font-size="10.00">utility</text>
</g>
<!-- Node3&#45;&gt;Node6 -->
<g id="edge27" class="edge">
<title>Node3&#45;&gt;Node6</title>
<path fill="none" stroke="midnightblue" d="M2032.07,-168.45C1969.26,-143 1783.02,-68.69 1719.04,-56 1522.68,-17.04 878.35,-11.8 730.48,-11.1"/>
<polygon fill="midnightblue" stroke="midnightblue" points="730.34,-7.6 720.32,-11.06 730.31,-14.6 730.34,-7.6"/>
</g>
<!-- Node7 -->
<g id="node8" class="node">
<title>Node7</title>
<g id="a_node8"><a xlink:href="AlignOf_8h.html" target="_top" xlink:title="llvm/Support/AlignOf.h">
<polygon fill="none" stroke="black" points="1291.54,-112.5 1291.54,-131.5 1406.54,-131.5 1406.54,-112.5 1291.54,-112.5"/>
<text text-anchor="middle" x="1349.04" y="-119.5" font-family="Helvetica,sans-Serif" font-size="10.00">llvm/Support/AlignOf.h</text>
</a>
</g>
</g>
<!-- Node3&#45;&gt;Node7 -->
<g id="edge7" class="edge">
<title>Node3&#45;&gt;Node7</title>
<path fill="none" stroke="midnightblue" d="M1991.8,-172.3C1860.73,-162.25 1553.88,-138.71 1417.02,-128.21"/>
<polygon fill="midnightblue" stroke="midnightblue" points="1416.91,-124.7 1406.68,-127.42 1416.38,-131.68 1416.91,-124.7"/>
</g>
<!-- Node8 -->
<g id="node9" class="node">
<title>Node8</title>
<g id="a_node9"><a xlink:href="Compiler_8h.html" target="_top" xlink:title="llvm/Support/Compiler.h">
<polygon fill="none" stroke="red" points="1202.04,-56.5 1202.04,-75.5 1324.04,-75.5 1324.04,-56.5 1202.04,-56.5"/>
<text text-anchor="middle" x="1263.04" y="-63.5" font-family="Helvetica,sans-Serif" font-size="10.00">llvm/Support/Compiler.h</text>
</a>
</g>
</g>
<!-- Node3&#45;&gt;Node8 -->
<g id="edge10" class="edge">
<title>Node3&#45;&gt;Node8</title>
<path fill="none" stroke="midnightblue" d="M1992.04,-168.51C1848.13,-148.47 1488.09,-98.34 1334.39,-76.94"/>
<polygon fill="midnightblue" stroke="midnightblue" points="1334.52,-73.42 1324.13,-75.51 1333.55,-80.35 1334.52,-73.42"/>
</g>
<!-- Node3&#45;&gt;Node11 -->
<g id="edge21" class="edge">
<title>Node3&#45;&gt;Node11</title>
<path fill="none" stroke="midnightblue" d="M1998.2,-168.5C1954.52,-161 1892.1,-148.68 1839.04,-132 1835.89,-131.01 1758.94,-98.17 1715.4,-79.56"/>
<polygon fill="midnightblue" stroke="midnightblue" points="1716.71,-76.31 1706.14,-75.6 1713.95,-82.75 1716.71,-76.31"/>
</g>
<!-- Node12 -->
<g id="node11" class="node">
<title>Node12</title>
<g id="a_node11"><a xlink:href="MathExtras_8h.html" target="_top" xlink:title="llvm/Support/MathExtras.h">
<polygon fill="none" stroke="red" points="2909.54,-112.5 2909.54,-131.5 3042.54,-131.5 3042.54,-112.5 2909.54,-112.5"/>
<text text-anchor="middle" x="2976.04" y="-119.5" font-family="Helvetica,sans-Serif" font-size="10.00">llvm/Support/MathExtras.h</text>
</a>
</g>
</g>
<!-- Node3&#45;&gt;Node12 -->
<g id="edge11" class="edge">
<title>Node3&#45;&gt;Node12</title>
<path fill="none" stroke="midnightblue" d="M2114.32,-173.42C2277.04,-163.89 2719.81,-137.99 2899.11,-127.5"/>
<polygon fill="midnightblue" stroke="midnightblue" points="2899.47,-130.99 2909.25,-126.91 2899.06,-124 2899.47,-130.99"/>
</g>
<!-- Node22 -->
<g id="node12" class="node">
<title>Node22</title>
<polygon fill="none" stroke="#bfbfbf" points="3062.04,-56.5 3062.04,-75.5 3118.04,-75.5 3118.04,-56.5 3062.04,-56.5"/>
<text text-anchor="middle" x="3090.04" y="-63.5" font-family="Helvetica,sans-Serif" font-size="10.00">algorithm</text>
</g>
<!-- Node3&#45;&gt;Node22 -->
<g id="edge19" class="edge">
<title>Node3&#45;&gt;Node22</title>
<path fill="none" stroke="midnightblue" d="M2114.34,-171.01C2184.44,-163.72 2302.5,-150.11 2403.04,-132 2441.66,-125.04 2450.25,-117.93 2489.04,-112 2700.15,-79.75 2956.65,-70.32 3051.98,-67.82"/>
<polygon fill="midnightblue" stroke="midnightblue" points="3052.1,-71.32 3062.01,-67.57 3051.93,-64.32 3052.1,-71.32"/>
</g>
<!-- Node3&#45;&gt;Node23 -->
<g id="edge20" class="edge">
<title>Node3&#45;&gt;Node23</title>
<path fill="none" stroke="midnightblue" d="M2114.44,-171.64C2223.95,-161.92 2444.77,-141.49 2479.04,-132 2499.35,-126.37 2501.57,-117.01 2522.04,-112 2617.8,-88.56 3326.46,-71.46 3492.36,-67.75"/>
<polygon fill="midnightblue" stroke="midnightblue" points="3492.58,-71.25 3502.5,-67.53 3492.42,-64.25 3492.58,-71.25"/>
</g>
<!-- Node20 -->
<g id="node14" class="node">
<title>Node20</title>
<polygon fill="none" stroke="#bfbfbf" points="2263.04,-56.5 2263.04,-75.5 2325.04,-75.5 2325.04,-56.5 2263.04,-56.5"/>
<text text-anchor="middle" x="2294.04" y="-63.5" font-family="Helvetica,sans-Serif" font-size="10.00">type_traits</text>
</g>
<!-- Node3&#45;&gt;Node20 -->
<g id="edge26" class="edge">
<title>Node3&#45;&gt;Node20</title>
<path fill="none" stroke="midnightblue" d="M2112.63,-168.46C2162.47,-160.41 2228.86,-147.34 2251.04,-132 2267.86,-120.37 2279.81,-99.82 2286.77,-84.93"/>
<polygon fill="midnightblue" stroke="midnightblue" points="2290.01,-86.28 2290.8,-75.71 2283.59,-83.48 2290.01,-86.28"/>
</g>
<!-- Node28 -->
<g id="node15" class="node">
<title>Node28</title>
<g id="a_node15"><a xlink:href="Support_2ErrorHandling_8h.html" target="_top" xlink:title="llvm/Support/ErrorHandling.h">
<polygon fill="none" stroke="black" points="1055.04,-112.5 1055.04,-131.5 1197.04,-131.5 1197.04,-112.5 1055.04,-112.5"/>
<text text-anchor="middle" x="1126.04" y="-119.5" font-family="Helvetica,sans-Serif" font-size="10.00">llvm/Support/ErrorHandling.h</text>
</a>
</g>
</g>
<!-- Node3&#45;&gt;Node28 -->
<g id="edge16" class="edge">
<title>Node3&#45;&gt;Node28</title>
<path fill="none" stroke="midnightblue" d="M1991.86,-173.44C1829.95,-164 1390.23,-138.39 1207.43,-127.74"/>
<polygon fill="midnightblue" stroke="midnightblue" points="1207.53,-124.24 1197.34,-127.15 1207.12,-131.23 1207.53,-124.24"/>
</g>
<!-- Node30 -->
<g id="node17" class="node">
<title>Node30</title>
<polygon fill="none" stroke="#bfbfbf" points="991.54,-112.5 991.54,-131.5 1036.54,-131.5 1036.54,-112.5 991.54,-112.5"/>
<text text-anchor="middle" x="1014.04" y="-119.5" font-family="Helvetica,sans-Serif" font-size="10.00">cstdlib</text>
</g>
<!-- Node3&#45;&gt;Node30 -->
<g id="edge22" class="edge">
<title>Node3&#45;&gt;Node30</title>
<path fill="none" stroke="midnightblue" d="M1991.86,-174.65C1789.35,-166.84 1148.43,-141.7 1046.65,-131.3"/>
<polygon fill="midnightblue" stroke="midnightblue" points="1046.98,-127.81 1036.62,-130.04 1046.11,-134.76 1046.98,-127.81"/>
</g>
<!-- Node33 -->
<g id="node18" class="node">
<title>Node33</title>
<polygon fill="none" stroke="#bfbfbf" points="2531.04,-112.5 2531.04,-131.5 2583.04,-131.5 2583.04,-112.5 2531.04,-112.5"/>
<text text-anchor="middle" x="2557.04" y="-119.5" font-family="Helvetica,sans-Serif" font-size="10.00">memory</text>
</g>
<!-- Node3&#45;&gt;Node33 -->
<g id="edge24" class="edge">
<title>Node3&#45;&gt;Node33</title>
<path fill="none" stroke="midnightblue" d="M2114.1,-172.03C2221.73,-163.11 2441.02,-144.19 2517.04,-132 2518.31,-131.8 2519.59,-131.58 2520.89,-131.35"/>
<polygon fill="midnightblue" stroke="midnightblue" points="2521.75,-134.74 2530.88,-129.38 2520.39,-127.88 2521.75,-134.74"/>
</g>
<!-- Node34 -->
<g id="node19" class="node">
<title>Node34</title>
<polygon fill="none" stroke="#bfbfbf" points="2665.54,-112.5 2665.54,-131.5 2700.54,-131.5 2700.54,-112.5 2665.54,-112.5"/>
<text text-anchor="middle" x="2683.04" y="-119.5" font-family="Helvetica,sans-Serif" font-size="10.00">new</text>
</g>
<!-- Node3&#45;&gt;Node34 -->
<g id="edge25" class="edge">
<title>Node3&#45;&gt;Node34</title>
<path fill="none" stroke="midnightblue" d="M2114.05,-177.4C2221.91,-177.02 2453.13,-171.39 2655.57,-131.53"/>
<polygon fill="midnightblue" stroke="midnightblue" points="2656.37,-134.94 2665.49,-129.54 2655,-128.07 2656.37,-134.94"/>
</g>
<!-- Node4&#45;&gt;Node5 -->
<g id="edge5" class="edge">
<title>Node4&#45;&gt;Node5</title>
<path fill="none" stroke="midnightblue" d="M1629.15,-57.99C1636.86,-57.26 1644.62,-56.58 1652.04,-56 1977.02,-30.79 2371.5,-16.11 2487.47,-12.12"/>
<polygon fill="midnightblue" stroke="midnightblue" points="2487.64,-15.61 2497.51,-11.77 2487.4,-8.62 2487.64,-15.61"/>
</g>
<!-- Node4&#45;&gt;Node6 -->
<g id="edge6" class="edge">
<title>Node4&#45;&gt;Node6</title>
<path fill="none" stroke="midnightblue" d="M1500.8,-57.29C1496.15,-56.82 1491.52,-56.39 1487.04,-56 1192.72,-30.63 835.19,-16.05 730.31,-12.1"/>
<polygon fill="midnightblue" stroke="midnightblue" points="730.26,-8.6 720.14,-11.72 730,-15.59 730.26,-8.6"/>
</g>
<!-- Node7&#45;&gt;Node8 -->
<g id="edge8" class="edge">
<title>Node7&#45;&gt;Node8</title>
<path fill="none" stroke="midnightblue" d="M1335.22,-112.32C1321.81,-103.9 1301.22,-90.97 1285.46,-81.07"/>
<polygon fill="midnightblue" stroke="midnightblue" points="1287.15,-78.01 1276.82,-75.65 1283.43,-83.94 1287.15,-78.01"/>
</g>
<!-- Node7&#45;&gt;Node11 -->
<g id="edge9" class="edge">
<title>Node7&#45;&gt;Node11</title>
<path fill="none" stroke="midnightblue" d="M1406.7,-112.56C1465.09,-103.88 1557.97,-89.74 1638.04,-76 1642.27,-75.27 1646.71,-74.48 1651.1,-73.68"/>
<polygon fill="midnightblue" stroke="midnightblue" points="1651.96,-77.08 1661.16,-71.82 1650.68,-70.2 1651.96,-77.08"/>
</g>
<!-- Node12&#45;&gt;Node8 -->
<g id="edge12" class="edge">
<title>Node12&#45;&gt;Node8</title>
<path fill="none" stroke="midnightblue" d="M2909.39,-118.68C2855.37,-116.81 2777.3,-114.16 2709.04,-112 2168.19,-94.89 2032.85,-94.63 1492.04,-76 1439.18,-74.18 1379.46,-71.82 1334.27,-69.98"/>
<polygon fill="midnightblue" stroke="midnightblue" points="1334.4,-66.48 1324.27,-69.57 1334.12,-73.47 1334.4,-66.48"/>
</g>
<!-- Node12&#45;&gt;Node22 -->
<g id="edge13" class="edge">
<title>Node12&#45;&gt;Node22</title>
<path fill="none" stroke="midnightblue" d="M2994.11,-112.44C3012.62,-103.68 3041.62,-89.94 3062.9,-79.86"/>
<polygon fill="midnightblue" stroke="midnightblue" points="3064.52,-82.96 3072.06,-75.52 3061.53,-76.63 3064.52,-82.96"/>
</g>
<!-- Node12&#45;&gt;Node23 -->
<g id="edge14" class="edge">
<title>Node12&#45;&gt;Node23</title>
<path fill="none" stroke="midnightblue" d="M3042.78,-114.46C3160.76,-102.9 3402.18,-79.24 3492.19,-70.42"/>
<polygon fill="midnightblue" stroke="midnightblue" points="3492.79,-73.87 3502.4,-69.42 3492.11,-66.91 3492.79,-73.87"/>
</g>
<!-- Node12&#45;&gt;Node20 -->
<g id="edge15" class="edge">
<title>Node12&#45;&gt;Node20</title>
<path fill="none" stroke="midnightblue" d="M2909.41,-115.72C2769.65,-104.66 2449.37,-79.3 2335.32,-70.27"/>
<polygon fill="midnightblue" stroke="midnightblue" points="2335.49,-66.77 2325.25,-69.47 2334.94,-73.75 2335.49,-66.77"/>
</g>
<!-- Node28&#45;&gt;Node8 -->
<g id="edge17" class="edge">
<title>Node28&#45;&gt;Node8</title>
<path fill="none" stroke="midnightblue" d="M1147.75,-112.44C1170.4,-103.52 1206.11,-89.44 1231.79,-79.32"/>
<polygon fill="midnightblue" stroke="midnightblue" points="1233.42,-82.44 1241.44,-75.52 1230.85,-75.93 1233.42,-82.44"/>
</g>
<!-- Node29 -->
<g id="node16" class="node">
<title>Node29</title>
<polygon fill="none" stroke="#bfbfbf" points="272.54,-56.5 272.54,-75.5 313.54,-75.5 313.54,-56.5 272.54,-56.5"/>
<text text-anchor="middle" x="293.04" y="-63.5" font-family="Helvetica,sans-Serif" font-size="10.00">string</text>
</g>
<!-- Node28&#45;&gt;Node29 -->
<g id="edge18" class="edge">
<title>Node28&#45;&gt;Node29</title>
<path fill="none" stroke="midnightblue" d="M1054.94,-112.89C1051.6,-112.58 1048.28,-112.28 1045.04,-112 765.6,-88.13 426.67,-72.68 323.97,-68.29"/>
<polygon fill="midnightblue" stroke="midnightblue" points="323.84,-64.78 313.7,-67.85 323.55,-71.77 323.84,-64.78"/>
</g>
<!-- Node35&#45;&gt;Node4 -->
<g id="edge50" class="edge">
<title>Node35&#45;&gt;Node4</title>
<path fill="none" stroke="midnightblue" d="M1694.69,-224.46C1677.16,-216.91 1652.96,-204.52 1636.04,-188 1604.94,-157.62 1582.69,-110.78 1572.07,-85.2"/>
<polygon fill="midnightblue" stroke="midnightblue" points="1575.21,-83.63 1568.24,-75.65 1568.72,-86.24 1575.21,-83.63"/>
</g>
<!-- Node35&#45;&gt;Node6 -->
<g id="edge57" class="edge">
<title>Node35&#45;&gt;Node6</title>
<path fill="none" stroke="midnightblue" d="M1661.93,-231.01C1472.49,-224.06 857.42,-200.64 817.04,-188 794.56,-180.97 742.25,-149.99 727.04,-132 702.34,-102.79 698.92,-55.83 699.14,-29.84"/>
<polygon fill="midnightblue" stroke="midnightblue" points="702.64,-29.89 699.42,-19.8 695.65,-29.7 702.64,-29.89"/>
</g>
<!-- Node35&#45;&gt;Node8 -->
<g id="edge51" class="edge">
<title>Node35&#45;&gt;Node8</title>
<path fill="none" stroke="midnightblue" d="M1661.69,-229.5C1549.25,-221.11 1300.4,-195.63 1249.04,-132 1238.2,-118.57 1244.8,-98.66 1252.16,-84.42"/>
<polygon fill="midnightblue" stroke="midnightblue" points="1255.27,-86.03 1257.18,-75.61 1249.19,-82.57 1255.27,-86.03"/>
</g>
<!-- Node35&#45;&gt;Node11 -->
<g id="edge54" class="edge">
<title>Node35&#45;&gt;Node11</title>
<path fill="none" stroke="midnightblue" d="M1695.54,-224.41C1680.22,-217.1 1660.55,-205.06 1650.04,-188 1632.26,-159.11 1630.42,-143.48 1643.04,-112 1647.72,-100.33 1657.03,-89.97 1665.8,-82.14"/>
<polygon fill="midnightblue" stroke="midnightblue" points="1668.09,-84.78 1673.54,-75.7 1663.62,-79.4 1668.09,-84.78"/>
</g>
<!-- Node35&#45;&gt;Node22 -->
<g id="edge52" class="edge">
<title>Node35&#45;&gt;Node22</title>
<path fill="none" stroke="midnightblue" d="M1772.44,-230.67C1817.14,-228.81 1881.64,-226.16 1938.04,-224 2161.35,-215.45 2725.74,-240.16 2943.04,-188 2963.54,-183.08 2966.71,-176.4 2986.04,-168 3025.18,-151 3047.34,-164.45 3075.04,-132 3085.96,-119.21 3089.32,-100.02 3090.18,-85.8"/>
<polygon fill="midnightblue" stroke="midnightblue" points="3093.68,-85.77 3090.43,-75.69 3086.68,-85.6 3093.68,-85.77"/>
</g>
<!-- Node35&#45;&gt;Node23 -->
<g id="edge53" class="edge">
<title>Node35&#45;&gt;Node23</title>
<path fill="none" stroke="midnightblue" d="M1772.44,-230.65C1817.14,-228.78 1881.63,-226.12 1938.04,-224 2169.35,-215.29 2753.48,-239.96 2979.04,-188 3000.37,-183.09 3003.35,-175.13 3024.04,-168 3086.42,-146.52 3104.07,-148.1 3168.04,-132 3203.17,-123.16 3211.57,-119.33 3247.04,-112 3334.74,-93.89 3439.15,-78.8 3492.27,-71.58"/>
<polygon fill="midnightblue" stroke="midnightblue" points="3492.74,-75.05 3502.19,-70.24 3491.81,-68.11 3492.74,-75.05"/>
</g>
<!-- Node35&#45;&gt;Node20 -->
<g id="edge56" class="edge">
<title>Node35&#45;&gt;Node20</title>
<path fill="none" stroke="midnightblue" d="M1750.99,-224.4C1801.48,-211.69 1899.43,-187.28 1983.04,-168 2056.6,-151.04 2077.32,-155.57 2149.04,-132 2192.41,-117.75 2240.3,-94.76 2268.75,-80.29"/>
<polygon fill="midnightblue" stroke="midnightblue" points="2270.66,-83.24 2277.96,-75.55 2267.46,-77.01 2270.66,-83.24"/>
</g>
<!-- Node35&#45;&gt;Node29 -->
<g id="edge55" class="edge">
<title>Node35&#45;&gt;Node29</title>
<path fill="none" stroke="midnightblue" d="M1661.76,-231.43C1474.27,-225.97 869.46,-207.05 784.04,-188 720.24,-173.77 708.43,-157.02 648.04,-132 626.69,-123.16 622.31,-118.17 600.04,-112 501.49,-84.71 380.27,-73.15 324.21,-68.99"/>
<polygon fill="midnightblue" stroke="midnightblue" points="324.11,-65.48 313.89,-68.26 323.61,-72.46 324.11,-65.48"/>
</g>
<!-- Node36 -->
<g id="node21" class="node">
<title>Node36</title>
<g id="a_node21"><a xlink:href="STLExtras_8h.html" target="_top" xlink:title="llvm/ADT/STLExtras.h">
<polygon fill="none" stroke="red" points="1659.04,-168.5 1659.04,-187.5 1775.04,-187.5 1775.04,-168.5 1659.04,-168.5"/>
<text text-anchor="middle" x="1717.04" y="-175.5" font-family="Helvetica,sans-Serif" font-size="10.00">llvm/ADT/STLExtras.h</text>
</a>
</g>
</g>
<!-- Node35&#45;&gt;Node36 -->
<g id="edge29" class="edge">
<title>Node35&#45;&gt;Node36</title>
<path fill="none" stroke="midnightblue" d="M1717.04,-224.08C1717.04,-217.01 1717.04,-206.86 1717.04,-197.99"/>
<polygon fill="midnightblue" stroke="midnightblue" points="1720.54,-197.75 1717.04,-187.75 1713.54,-197.75 1720.54,-197.75"/>
</g>
<!-- Node36&#45;&gt;Node4 -->
<g id="edge37" class="edge">
<title>Node36&#45;&gt;Node4</title>
<path fill="none" stroke="midnightblue" d="M1701.31,-168.34C1686.03,-159.72 1662.37,-145.81 1643.04,-132 1621.26,-116.43 1597.87,-96.46 1582.45,-82.79"/>
<polygon fill="midnightblue" stroke="midnightblue" points="1584.54,-79.97 1574.76,-75.91 1579.88,-85.18 1584.54,-79.97"/>
</g>
<!-- Node36&#45;&gt;Node5 -->
<g id="edge46" class="edge">
<title>Node36&#45;&gt;Node5</title>
<path fill="none" stroke="midnightblue" d="M1775.05,-175.78C1845.25,-172.88 1966.32,-163.31 2065.04,-132 2134.02,-110.12 2140.22,-78.38 2209.04,-56 2306.79,-24.21 2429.04,-14.85 2487.23,-12.11"/>
<polygon fill="midnightblue" stroke="midnightblue" points="2487.49,-15.6 2497.33,-11.67 2487.19,-8.61 2487.49,-15.6"/>
</g>
<!-- Node36&#45;&gt;Node6 -->
<g id="edge49" class="edge">
<title>Node36&#45;&gt;Node6</title>
<path fill="none" stroke="midnightblue" d="M1695.84,-168.37C1638.52,-145.47 1475.18,-83.06 1333.04,-56 1104.5,-12.49 822.29,-10.14 730.46,-10.65"/>
<polygon fill="midnightblue" stroke="midnightblue" points="730.19,-7.16 720.22,-10.73 730.24,-14.16 730.19,-7.16"/>
</g>
<!-- Node36&#45;&gt;Node11 -->
<g id="edge42" class="edge">
<title>Node36&#45;&gt;Node11</title>
<path fill="none" stroke="midnightblue" d="M1693.59,-168.41C1677.88,-161.28 1658.42,-149.46 1649.04,-132 1639.9,-114.98 1653.88,-95.79 1667.2,-82.7"/>
<polygon fill="midnightblue" stroke="midnightblue" points="1669.77,-85.09 1674.78,-75.76 1665.04,-79.92 1669.77,-85.09"/>
</g>
<!-- Node36&#45;&gt;Node22 -->
<g id="edge40" class="edge">
<title>Node36&#45;&gt;Node22</title>
<path fill="none" stroke="midnightblue" d="M1775.27,-170.91C1893.49,-158.66 2170.21,-130.65 2403.04,-112 2650.12,-92.21 2947.72,-74.95 3051.85,-69.11"/>
<polygon fill="midnightblue" stroke="midnightblue" points="3052.09,-72.6 3061.88,-68.55 3051.7,-65.61 3052.09,-72.6"/>
</g>
<!-- Node36&#45;&gt;Node23 -->
<g id="edge41" class="edge">
<title>Node36&#45;&gt;Node23</title>
<path fill="none" stroke="midnightblue" d="M1775.42,-173.25C1881.02,-166.3 2110.72,-150.45 2304.04,-132 2381.97,-124.56 2401,-118.13 2479.04,-112 2875.93,-80.84 3359.18,-70.08 3491.89,-67.61"/>
<polygon fill="midnightblue" stroke="midnightblue" points="3492.31,-71.1 3502.25,-67.42 3492.18,-64.1 3492.31,-71.1"/>
</g>
<!-- Node36&#45;&gt;Node20 -->
<g id="edge48" class="edge">
<title>Node36&#45;&gt;Node20</title>
<path fill="none" stroke="midnightblue" d="M1775.26,-173.85C1850.7,-168.93 1985.96,-157.23 2099.04,-132 2158.67,-118.7 2225.76,-94.12 2263.66,-79.29"/>
<polygon fill="midnightblue" stroke="midnightblue" points="2265.08,-82.49 2273.09,-75.57 2262.5,-75.98 2265.08,-82.49"/>
</g>
<!-- Node36&#45;&gt;Node28 -->
<g id="edge39" class="edge">
<title>Node36&#45;&gt;Node28</title>
<path fill="none" stroke="midnightblue" d="M1659.03,-171.7C1553.2,-162.03 1328.57,-141.5 1207.47,-130.44"/>
<polygon fill="midnightblue" stroke="midnightblue" points="1207.43,-126.92 1197.15,-129.5 1206.79,-133.89 1207.43,-126.92"/>
</g>
<!-- Node36&#45;&gt;Node30 -->
<g id="edge44" class="edge">
<title>Node36&#45;&gt;Node30</title>
<path fill="none" stroke="midnightblue" d="M1658.67,-177.13C1543.25,-176.52 1277.78,-170.76 1046.58,-131.68"/>
<polygon fill="midnightblue" stroke="midnightblue" points="1047.08,-128.22 1036.63,-129.98 1045.9,-135.12 1047.08,-128.22"/>
</g>
<!-- Node36&#45;&gt;Node33 -->
<g id="edge47" class="edge">
<title>Node36&#45;&gt;Node33</title>
<path fill="none" stroke="midnightblue" d="M1775.44,-174.67C1903.18,-169.32 2216.98,-154.84 2479.04,-132 2492.65,-130.81 2507.56,-129.18 2520.66,-127.62"/>
<polygon fill="midnightblue" stroke="midnightblue" points="2521.22,-131.08 2530.72,-126.41 2520.37,-124.13 2521.22,-131.08"/>
</g>
<!-- Node39 -->
<g id="node22" class="node">
<title>Node39</title>
<g id="a_node22"><a xlink:href="iterator_8h.html" target="_top" xlink:title="llvm/ADT/iterator.h">
<polygon fill="none" stroke="black" points="1957.54,-112.5 1957.54,-131.5 2056.54,-131.5 2056.54,-112.5 1957.54,-112.5"/>
<text text-anchor="middle" x="2007.04" y="-119.5" font-family="Helvetica,sans-Serif" font-size="10.00">llvm/ADT/iterator.h</text>
</a>
</g>
</g>
<!-- Node36&#45;&gt;Node39 -->
<g id="edge30" class="edge">
<title>Node36&#45;&gt;Node39</title>
<path fill="none" stroke="midnightblue" d="M1762.99,-168.44C1814.11,-158.92 1896.7,-143.55 1951.42,-133.36"/>
<polygon fill="midnightblue" stroke="midnightblue" points="1952.12,-136.79 1961.31,-131.52 1950.83,-129.91 1952.12,-136.79"/>
</g>
<!-- Node40 -->
<g id="node23" class="node">
<title>Node40</title>
<polygon fill="none" stroke="#bfbfbf" points="766.04,-112.5 766.04,-131.5 896.04,-131.5 896.04,-112.5 766.04,-112.5"/>
<text text-anchor="middle" x="831.04" y="-119.5" font-family="Helvetica,sans-Serif" font-size="10.00">llvm/Config/abi&#45;breaking.h</text>
</g>
<!-- Node36&#45;&gt;Node40 -->
<g id="edge38" class="edge">
<title>Node36&#45;&gt;Node40</title>
<path fill="none" stroke="midnightblue" d="M1658.86,-175.09C1526.96,-170.47 1194.93,-157.25 906.62,-132.08"/>
<polygon fill="midnightblue" stroke="midnightblue" points="906.66,-128.57 896.39,-131.18 906.04,-135.55 906.66,-128.57"/>
</g>
<!-- Node36&#45;&gt;Node41 -->
<g id="edge43" class="edge">
<title>Node36&#45;&gt;Node41</title>
<path fill="none" stroke="midnightblue" d="M1775.08,-174.77C1951.62,-167.87 2476.62,-146.58 2590.75,-131.66"/>
<polygon fill="midnightblue" stroke="midnightblue" points="2591.37,-135.11 2600.76,-130.2 2590.36,-128.18 2591.37,-135.11"/>
</g>
<!-- Node42 -->
<g id="node25" class="node">
<title>Node42</title>
<polygon fill="none" stroke="#bfbfbf" points="914.54,-112.5 914.54,-131.5 973.54,-131.5 973.54,-112.5 914.54,-112.5"/>
<text text-anchor="middle" x="944.04" y="-119.5" font-family="Helvetica,sans-Serif" font-size="10.00">functional</text>
</g>
<!-- Node36&#45;&gt;Node42 -->
<g id="edge45" class="edge">
<title>Node36&#45;&gt;Node42</title>
<path fill="none" stroke="midnightblue" d="M1658.57,-176.81C1535.31,-175.68 1239.74,-169.12 984.05,-132.06"/>
<polygon fill="midnightblue" stroke="midnightblue" points="984.22,-128.55 973.82,-130.56 983.2,-135.48 984.22,-128.55"/>
</g>
<!-- Node39&#45;&gt;Node4 -->
<g id="edge31" class="edge">
<title>Node39&#45;&gt;Node4</title>
<path fill="none" stroke="midnightblue" d="M1957.44,-113.92C1952.58,-113.26 1947.72,-112.61 1943.04,-112 1837.67,-98.32 1715.55,-84.07 1639.29,-75.37"/>
<polygon fill="midnightblue" stroke="midnightblue" points="1639.63,-71.88 1629.3,-74.23 1638.84,-78.84 1639.63,-71.88"/>
</g>
<!-- Node39&#45;&gt;Node5 -->
<g id="edge34" class="edge">
<title>Node39&#45;&gt;Node5</title>
<path fill="none" stroke="midnightblue" d="M2012.51,-112.4C2022.26,-97.88 2044.19,-68.85 2071.04,-56 2144.7,-20.74 2395.77,-13.07 2487.3,-11.43"/>
<polygon fill="midnightblue" stroke="midnightblue" points="2487.46,-14.93 2497.4,-11.27 2487.34,-7.93 2487.46,-14.93"/>
</g>
<!-- Node39&#45;&gt;Node6 -->
<g id="edge36" class="edge">
<title>Node39&#45;&gt;Node6</title>
<path fill="none" stroke="midnightblue" d="M1997.52,-112.4C1980.47,-97.61 1942.93,-67.82 1905.04,-56 1789.91,-20.09 905.77,-12.37 730.27,-11.18"/>
<polygon fill="midnightblue" stroke="midnightblue" points="730.21,-7.68 720.19,-11.12 730.17,-14.68 730.21,-7.68"/>
</g>
<!-- Node39&#45;&gt;Node11 -->
<g id="edge33" class="edge">
<title>Node39&#45;&gt;Node11</title>
<path fill="none" stroke="midnightblue" d="M1957.24,-112.62C1891.59,-101.58 1777.76,-82.43 1720.72,-72.83"/>
<polygon fill="midnightblue" stroke="midnightblue" points="1721.2,-69.37 1710.76,-71.16 1720.04,-76.27 1721.2,-69.37"/>
</g>
<!-- Node39&#45;&gt;Node22 -->
<g id="edge32" class="edge">
<title>Node39&#45;&gt;Node22</title>
<path fill="none" stroke="midnightblue" d="M2056.55,-116.21C2073.22,-114.71 2091.93,-113.15 2109.04,-112 2475.53,-87.44 2919.96,-72.35 3051.57,-68.18"/>
<polygon fill="midnightblue" stroke="midnightblue" points="3052.04,-71.67 3061.92,-67.86 3051.82,-64.67 3052.04,-71.67"/>
</g>
<!-- Node39&#45;&gt;Node20 -->
<g id="edge35" class="edge">
<title>Node39&#45;&gt;Node20</title>
<path fill="none" stroke="midnightblue" d="M2052.52,-112.44C2107.64,-102.07 2199.73,-84.75 2252.85,-74.75"/>
<polygon fill="midnightblue" stroke="midnightblue" points="2253.75,-78.14 2262.93,-72.85 2252.46,-71.26 2253.75,-78.14"/>
</g>
<!-- Node44&#45;&gt;Node23 -->
<g id="edge59" class="edge">
<title>Node44&#45;&gt;Node23</title>
<path fill="none" stroke="midnightblue" d="M3076.05,-224.48C3128.85,-216.17 3210.1,-202.67 3280.04,-188 3316.33,-180.39 3324.72,-175.47 3361.04,-168 3409.14,-158.11 3547.28,-169.44 3579.04,-132 3593.7,-114.72 3570.9,-94.22 3551.02,-80.93"/>
<polygon fill="midnightblue" stroke="midnightblue" points="3552.84,-77.94 3542.52,-75.54 3549.09,-83.85 3552.84,-77.94"/>
</g>
<!-- Node45&#45;&gt;Node29 -->
<g id="edge111" class="edge">
<title>Node45&#45;&gt;Node29</title>
<path fill="none" stroke="midnightblue" d="M2504.32,-451.95C2485.03,-450.51 2463.66,-449.04 2444.04,-448 2314.66,-441.12 114.04,-476.57 114.04,-347 114.04,-347 114.04,-347 114.04,-177 114.04,-108.21 211.18,-81.08 262.34,-71.56"/>
<polygon fill="midnightblue" stroke="midnightblue" points="263.26,-74.95 272.51,-69.78 262.06,-68.05 263.26,-74.95"/>
</g>
<!-- Node45&#45;&gt;Node46 -->
<g id="edge64" class="edge">
<title>Node45&#45;&gt;Node46</title>
<path fill="none" stroke="midnightblue" d="M2597.42,-448.44C2631.3,-439.2 2685.44,-424.44 2722.77,-414.26"/>
<polygon fill="midnightblue" stroke="midnightblue" points="2724.09,-417.52 2732.81,-411.52 2722.25,-410.77 2724.09,-417.52"/>
</g>
<!-- Node46&#45;&gt;Node4 -->
<g id="edge77" class="edge">
<title>Node46&#45;&gt;Node4</title>
<path fill="none" stroke="midnightblue" d="M2696.91,-400.58C2451.07,-398.8 1600.34,-390.24 1331.04,-356 993.9,-313.14 904.74,-303.32 585.04,-188 533.44,-169.38 503.71,-178.77 475.04,-132 470.4,-124.42 468.89,-118.41 475.04,-112 477.24,-109.7 1244.82,-79.51 1490.42,-69.91"/>
<polygon fill="midnightblue" stroke="midnightblue" points="1490.82,-73.4 1500.67,-69.51 1490.54,-66.4 1490.82,-73.4"/>
</g>
<!-- Node46&#45;&gt;Node5 -->
<g id="edge109" class="edge">
<title>Node46&#45;&gt;Node5</title>
<path fill="none" stroke="midnightblue" d="M2831.14,-400C3031.44,-396.72 3616.2,-384.74 3697.04,-356 3797.24,-320.38 3892.39,-263.22 3845.04,-168 3798.29,-73.99 3739.55,-78.72 3637.04,-56 3423.29,-8.63 2718.32,-9.82 2555.02,-10.75"/>
<polygon fill="midnightblue" stroke="midnightblue" points="2554.61,-7.26 2544.64,-10.82 2554.66,-14.26 2554.61,-7.26"/>
</g>
<!-- Node46&#45;&gt;Node6 -->
<g id="edge110" class="edge">
<title>Node46&#45;&gt;Node6</title>
<path fill="none" stroke="midnightblue" d="M2696.93,-401.25C2323.11,-402.02 507.65,-397.8 318.04,-244 249.15,-188.12 191.53,-121.78 251.04,-56 279.13,-24.96 573.37,-14.38 669.7,-11.74"/>
<polygon fill="midnightblue" stroke="midnightblue" points="670.03,-15.23 679.93,-11.46 669.84,-8.23 670.03,-15.23"/>
</g>
<!-- Node46&#45;&gt;Node23 -->
<g id="edge107" class="edge">
<title>Node46&#45;&gt;Node23</title>
<path fill="none" stroke="midnightblue" d="M2831.12,-399.29C2974.01,-395.13 3298.9,-382.83 3341.04,-356 3373.78,-335.16 3353.6,-304.08 3384.04,-280 3429.05,-244.4 3455.49,-267.06 3508.04,-244 3596.06,-205.38 3645.85,-215.73 3693.04,-132 3721.59,-81.34 3618.81,-70.03 3562.1,-67.6"/>
<polygon fill="midnightblue" stroke="midnightblue" points="3561.88,-64.09 3551.76,-67.23 3561.63,-71.08 3561.88,-64.09"/>
</g>
<!-- Node46&#45;&gt;Node39 -->
<g id="edge76" class="edge">
<title>Node46&#45;&gt;Node39</title>
<path fill="none" stroke="midnightblue" d="M2751.52,-392.37C2731.84,-379.05 2692.18,-353.25 2656.04,-336 2440.65,-233.21 2162.81,-160.39 2053.83,-133.95"/>
<polygon fill="midnightblue" stroke="midnightblue" points="2054.36,-130.48 2043.82,-131.54 2052.72,-137.29 2054.36,-130.48"/>
</g>
<!-- Node46&#45;&gt;Node41 -->
<g id="edge108" class="edge">
<title>Node46&#45;&gt;Node41</title>
<path fill="none" stroke="midnightblue" d="M2765.34,-392.2C2768.9,-365.13 2776.54,-281.45 2745.04,-224 2732.73,-201.54 2719.78,-204.33 2700.04,-188 2679.72,-171.19 2656.77,-151.45 2641.45,-138.17"/>
<polygon fill="midnightblue" stroke="midnightblue" points="2643.64,-135.43 2633.79,-131.52 2639.05,-140.72 2643.64,-135.43"/>
</g>
<!-- Node47 -->
<g id="node29" class="node">
<title>Node47</title>
<g id="a_node29"><a xlink:href="DenseMap_8h.html" target="_top" xlink:title="llvm/ADT/DenseMap.h">
<polygon fill="none" stroke="red" points="2818.04,-168.5 2818.04,-187.5 2934.04,-187.5 2934.04,-168.5 2818.04,-168.5"/>
<text text-anchor="middle" x="2876.04" y="-175.5" font-family="Helvetica,sans-Serif" font-size="10.00">llvm/ADT/DenseMap.h</text>
</a>
</g>
</g>
<!-- Node46&#45;&gt;Node47 -->
<g id="edge65" class="edge">
<title>Node46&#45;&gt;Node47</title>
<path fill="none" stroke="midnightblue" d="M2775.35,-392.46C2804.49,-370.81 2885.08,-313.18 2960.04,-280 3012.91,-256.6 3050.28,-290.19 3085.04,-244 3123.83,-192.46 3019.27,-180.69 2944.42,-178.61"/>
<polygon fill="midnightblue" stroke="midnightblue" points="2944.15,-175.11 2934.07,-178.38 2943.99,-182.1 2944.15,-175.11"/>
</g>
<!-- Node58 -->
<g id="node30" class="node">
<title>Node58</title>
<g id="a_node30"><a xlink:href="LaneBitmask_8h.html" target="_top" xlink:title="A common definition of LaneBitmask for use in TableGen and CodeGen. ">
<polygon fill="none" stroke="red" points="1738.04,-336.5 1738.04,-355.5 1860.04,-355.5 1860.04,-336.5 1738.04,-336.5"/>
<text text-anchor="middle" x="1799.04" y="-343.5" font-family="Helvetica,sans-Serif" font-size="10.00">llvm/MC/LaneBitmask.h</text>
</a>
</g>
</g>
<!-- Node46&#45;&gt;Node58 -->
<g id="edge78" class="edge">
<title>Node46&#45;&gt;Node58</title>
<path fill="none" stroke="midnightblue" d="M2696.95,-397.25C2521.48,-387.43 2050.12,-361.05 1870.19,-350.98"/>
<polygon fill="midnightblue" stroke="midnightblue" points="1870.22,-347.48 1860.04,-350.41 1869.83,-354.47 1870.22,-347.48"/>
</g>
<!-- Node64 -->
<g id="node36" class="node">
<title>Node64</title>
<g id="a_node36"><a xlink:href="MCRegister_8h.html" target="_top" xlink:title="llvm/MC/MCRegister.h">
<polygon fill="none" stroke="red" points="3393.54,-280.5 3393.54,-299.5 3510.54,-299.5 3510.54,-280.5 3393.54,-280.5"/>
<text text-anchor="middle" x="3452.04" y="-287.5" font-family="Helvetica,sans-Serif" font-size="10.00">llvm/MC/MCRegister.h</text>
</a>
</g>
</g>
<!-- Node46&#45;&gt;Node64 -->
<g id="edge105" class="edge">
<title>Node46&#45;&gt;Node64</title>
<path fill="none" stroke="midnightblue" d="M2831.24,-401.48C2969.69,-401.59 3281.86,-397.12 3379.04,-356 3403.83,-345.51 3425.93,-323.06 3439.15,-307.51"/>
<polygon fill="midnightblue" stroke="midnightblue" points="3441.92,-309.65 3445.55,-299.69 3436.5,-305.21 3441.92,-309.65"/>
</g>
<!-- Node47&#45;&gt;Node5 -->
<g id="edge72" class="edge">
<title>Node47&#45;&gt;Node5</title>
<path fill="none" stroke="midnightblue" d="M2877.74,-168.46C2881.58,-146.31 2888.36,-86.62 2857.04,-56 2814.74,-14.64 2631.65,-10.49 2555,-10.61"/>
<polygon fill="midnightblue" stroke="midnightblue" points="2554.9,-7.11 2544.91,-10.66 2554.93,-14.11 2554.9,-7.11"/>
</g>
<!-- Node47&#45;&gt;Node6 -->
<g id="edge75" class="edge">
<title>Node47&#45;&gt;Node6</title>
<path fill="none" stroke="midnightblue" d="M2870.92,-168.45C2861.74,-154.01 2841.03,-125.09 2815.04,-112 2622.82,-15.2 2548.71,-71.42 2334.04,-56 1687.95,-9.58 894.98,-10.16 730.69,-10.84"/>
<polygon fill="midnightblue" stroke="midnightblue" points="730.36,-7.34 720.37,-10.88 730.39,-14.34 730.36,-7.34"/>
</g>
<!-- Node47&#45;&gt;Node7 -->
<g id="edge66" class="edge">
<title>Node47&#45;&gt;Node7</title>
<path fill="none" stroke="midnightblue" d="M2817.58,-174.93C2578.15,-166.47 1672.95,-134.45 1416.9,-125.4"/>
<polygon fill="midnightblue" stroke="midnightblue" points="1416.74,-121.89 1406.63,-125.04 1416.5,-128.89 1416.74,-121.89"/>
</g>
<!-- Node47&#45;&gt;Node8 -->
<g id="edge67" class="edge">
<title>Node47&#45;&gt;Node8</title>
<path fill="none" stroke="midnightblue" d="M2817.89,-175.11C2671.63,-170.17 2276.66,-155.55 1948.04,-132 1723.79,-115.93 1459.03,-88.36 1334.53,-74.88"/>
<polygon fill="midnightblue" stroke="midnightblue" points="1334.69,-71.38 1324.37,-73.78 1333.93,-78.34 1334.69,-71.38"/>
</g>
<!-- Node47&#45;&gt;Node11 -->
<g id="edge71" class="edge">
<title>Node47&#45;&gt;Node11</title>
<path fill="none" stroke="midnightblue" d="M2859.54,-168.46C2830.18,-153.77 2766.58,-124.12 2709.04,-112 2610.8,-91.31 1889.33,-72.09 1721.06,-67.86"/>
<polygon fill="midnightblue" stroke="midnightblue" points="1721.09,-64.36 1711.01,-67.61 1720.92,-71.36 1721.09,-64.36"/>
</g>
<!-- Node47&#45;&gt;Node12 -->
<g id="edge68" class="edge">
<title>Node47&#45;&gt;Node12</title>
<path fill="none" stroke="midnightblue" d="M2892.11,-168.32C2908,-159.74 2932.55,-146.49 2951,-136.52"/>
<polygon fill="midnightblue" stroke="midnightblue" points="2952.88,-139.49 2960.01,-131.65 2949.55,-133.33 2952.88,-139.49"/>
</g>
<!-- Node47&#45;&gt;Node22 -->
<g id="edge69" class="edge">
<title>Node47&#45;&gt;Node22</title>
<path fill="none" stroke="midnightblue" d="M2926.31,-168.46C2970.74,-160.14 3031.43,-146.63 3051.04,-132 3066.83,-120.22 3077.49,-100 3083.62,-85.23"/>
<polygon fill="midnightblue" stroke="midnightblue" points="3086.98,-86.23 3087.29,-75.64 3080.44,-83.73 3086.98,-86.23"/>
</g>
<!-- Node47&#45;&gt;Node23 -->
<g id="edge70" class="edge">
<title>Node47&#45;&gt;Node23</title>
<path fill="none" stroke="midnightblue" d="M2916.16,-168.47C2978.59,-155.34 3102.89,-129.86 3209.04,-112 3311.53,-94.76 3433.36,-78.77 3492.03,-71.35"/>
<polygon fill="midnightblue" stroke="midnightblue" points="3492.75,-74.78 3502.23,-70.06 3491.88,-67.84 3492.75,-74.78"/>
</g>
<!-- Node47&#45;&gt;Node20 -->
<g id="edge74" class="edge">
<title>Node47&#45;&gt;Node20</title>
<path fill="none" stroke="midnightblue" d="M2866.97,-168.38C2851.05,-153.83 2816.38,-124.74 2781.04,-112 2699.37,-82.55 2437.38,-71.43 2335.3,-68.15"/>
<polygon fill="midnightblue" stroke="midnightblue" points="2335.19,-64.65 2325.08,-67.84 2334.97,-71.65 2335.19,-64.65"/>
</g>
<!-- Node47&#45;&gt;Node34 -->
<g id="edge73" class="edge">
<title>Node47&#45;&gt;Node34</title>
<path fill="none" stroke="midnightblue" d="M2845.46,-168.44C2808.31,-158.05 2746.2,-140.67 2710.51,-130.69"/>
<polygon fill="midnightblue" stroke="midnightblue" points="2711.34,-127.28 2700.77,-127.96 2709.45,-134.02 2711.34,-127.28"/>
</g>
<!-- Node58&#45;&gt;Node8 -->
<g id="edge79" class="edge">
<title>Node58&#45;&gt;Node8</title>
<path fill="none" stroke="midnightblue" d="M1737.7,-339.86C1522.79,-321.4 805.09,-256.01 585.04,-188 532.63,-171.8 503.71,-178.77 475.04,-132 470.4,-124.42 468.94,-118.46 475.04,-112 499.45,-86.15 1002.27,-72.64 1191.69,-68.45"/>
<polygon fill="midnightblue" stroke="midnightblue" points="1191.9,-71.94 1201.82,-68.23 1191.75,-64.95 1191.9,-71.94"/>
</g>
<!-- Node59 -->
<g id="node31" class="node">
<title>Node59</title>
<g id="a_node31"><a xlink:href="Format_8h.html" target="_top" xlink:title="llvm/Support/Format.h">
<polygon fill="none" stroke="red" points="1697.54,-280.5 1697.54,-299.5 1810.54,-299.5 1810.54,-280.5 1697.54,-280.5"/>
<text text-anchor="middle" x="1754.04" y="-287.5" font-family="Helvetica,sans-Serif" font-size="10.00">llvm/Support/Format.h</text>
</a>
</g>
</g>
<!-- Node58&#45;&gt;Node59 -->
<g id="edge80" class="edge">
<title>Node58&#45;&gt;Node59</title>
<path fill="none" stroke="midnightblue" d="M1791.61,-336.08C1785.19,-328.38 1775.74,-317.03 1767.92,-307.65"/>
<polygon fill="midnightblue" stroke="midnightblue" points="1770.42,-305.19 1761.33,-299.75 1765.05,-309.67 1770.42,-305.19"/>
</g>
<!-- Node62 -->
<g id="node34" class="node">
<title>Node62</title>
<g id="a_node34"><a xlink:href="raw__ostream_8h.html" target="_top" xlink:title="llvm/Support/raw_ostream.h">
<polygon fill="none" stroke="red" points="1942.54,-280.5 1942.54,-299.5 2081.54,-299.5 2081.54,-280.5 1942.54,-280.5"/>
<text text-anchor="middle" x="2012.04" y="-287.5" font-family="Helvetica,sans-Serif" font-size="10.00">llvm/Support/raw_ostream.h</text>
</a>
</g>
</g>
<!-- Node58&#45;&gt;Node62 -->
<g id="edge96" class="edge">
<title>Node58&#45;&gt;Node62</title>
<path fill="none" stroke="midnightblue" d="M1832.79,-336.44C1869.56,-327.12 1928.49,-312.18 1968.66,-302"/>
<polygon fill="midnightblue" stroke="midnightblue" points="1969.62,-305.37 1978.45,-299.52 1967.9,-298.58 1969.62,-305.37"/>
</g>
<!-- Node59&#45;&gt;Node6 -->
<g id="edge95" class="edge">
<title>Node59&#45;&gt;Node6</title>
<path fill="none" stroke="midnightblue" d="M1697.19,-280.97C1694.1,-280.62 1691.03,-280.29 1688.04,-280 1417.74,-253.63 1348.62,-267.33 1078.04,-244 1050.58,-241.63 611.44,-195.94 585.04,-188 532.5,-172.21 503.71,-178.77 475.04,-132 427.86,-55.03 597.96,-23.96 669.64,-14.46"/>
<polygon fill="midnightblue" stroke="midnightblue" points="670.37,-17.9 679.85,-13.17 669.49,-10.95 670.37,-17.9"/>
</g>
<!-- Node59&#45;&gt;Node23 -->
<g id="edge94" class="edge">
<title>Node59&#45;&gt;Node23</title>
<path fill="none" stroke="midnightblue" d="M1810.81,-284.71C2056.94,-266.11 3020.92,-193.08 3052.04,-188 3219.83,-160.6 3415.02,-102.28 3492.66,-77.98"/>
<polygon fill="midnightblue" stroke="midnightblue" points="3493.9,-81.26 3502.39,-74.92 3491.8,-74.58 3493.9,-81.26"/>
</g>
<!-- Node59&#45;&gt;Node35 -->
<g id="edge93" class="edge">
<title>Node59&#45;&gt;Node35</title>
<path fill="none" stroke="midnightblue" d="M1747.93,-280.08C1742.76,-272.53 1735.2,-261.49 1728.85,-252.23"/>
<polygon fill="midnightblue" stroke="midnightblue" points="1731.58,-250.02 1723.04,-243.75 1725.8,-253.98 1731.58,-250.02"/>
</g>
<!-- Node59&#45;&gt;Node36 -->
<g id="edge92" class="edge">
<title>Node59&#45;&gt;Node36</title>
<path fill="none" stroke="midnightblue" d="M1708.39,-280.43C1687.8,-274.04 1665.38,-263 1653.04,-244 1639.85,-223.69 1665.26,-204.45 1687.86,-192.25"/>
<polygon fill="midnightblue" stroke="midnightblue" points="1689.61,-195.28 1696.93,-187.62 1686.43,-189.05 1689.61,-195.28"/>
</g>
<!-- Node49 -->
<g id="node32" class="node">
<title>Node49</title>
<g id="a_node32"><a xlink:href="ArrayRef_8h.html" target="_top" xlink:title="llvm/ADT/ArrayRef.h">
<polygon fill="none" stroke="red" points="2628.04,-224.5 2628.04,-243.5 2736.04,-243.5 2736.04,-224.5 2628.04,-224.5"/>
<text text-anchor="middle" x="2682.04" y="-231.5" font-family="Helvetica,sans-Serif" font-size="10.00">llvm/ADT/ArrayRef.h</text>
</a>
</g>
</g>
<!-- Node59&#45;&gt;Node49 -->
<g id="edge81" class="edge">
<title>Node59&#45;&gt;Node49</title>
<path fill="none" stroke="midnightblue" d="M1810.7,-285.7C1974.01,-276.2 2445.09,-248.79 2617.68,-238.75"/>
<polygon fill="midnightblue" stroke="midnightblue" points="2618.1,-242.23 2627.88,-238.15 2617.69,-235.24 2618.1,-242.23"/>
</g>
<!-- Node49&#45;&gt;Node3 -->
<g id="edge82" class="edge">
<title>Node49&#45;&gt;Node3</title>
<path fill="none" stroke="midnightblue" d="M2627.87,-228.35C2514.28,-218.6 2251.22,-196.01 2124.2,-185.11"/>
<polygon fill="midnightblue" stroke="midnightblue" points="2124.45,-181.62 2114.19,-184.25 2123.85,-188.59 2124.45,-181.62"/>
</g>
<!-- Node49&#45;&gt;Node5 -->
<g id="edge88" class="edge">
<title>Node49&#45;&gt;Node5</title>
<path fill="none" stroke="midnightblue" d="M2736.39,-227.96C2833.32,-218.75 3028.65,-199.13 3058.04,-188 3098.97,-172.5 3118.72,-170.76 3139.04,-132 3149.28,-112.48 3138.5,-65.98 3127.04,-56 3083.76,-18.28 2675.93,-12.17 2554.8,-11.19"/>
<polygon fill="midnightblue" stroke="midnightblue" points="2554.66,-7.69 2544.64,-11.11 2554.61,-14.69 2554.66,-7.69"/>
</g>
<!-- Node49&#45;&gt;Node8 -->
<g id="edge84" class="edge">
<title>Node49&#45;&gt;Node8</title>
<path fill="none" stroke="midnightblue" d="M2627.91,-232.69C2474.33,-231.35 2022.86,-224.39 1650.04,-188 1567.71,-179.96 1344.3,-186.46 1282.04,-132 1268.93,-120.53 1264.63,-100.55 1263.33,-85.76"/>
<polygon fill="midnightblue" stroke="midnightblue" points="1266.83,-85.51 1262.83,-75.69 1259.84,-85.85 1266.83,-85.51"/>
</g>
<!-- Node49&#45;&gt;Node11 -->
<g id="edge87" class="edge">
<title>Node49&#45;&gt;Node11</title>
<path fill="none" stroke="midnightblue" d="M2627.85,-227.54C2505.8,-214.81 2200.36,-180.52 1948.04,-132 1865.59,-116.15 1770.22,-90.65 1720.4,-76.77"/>
<polygon fill="midnightblue" stroke="midnightblue" points="1721.35,-73.4 1710.77,-74.07 1719.46,-80.14 1721.35,-73.4"/>
</g>
<!-- Node49&#45;&gt;Node22 -->
<g id="edge85" class="edge">
<title>Node49&#45;&gt;Node22</title>
<path fill="none" stroke="midnightblue" d="M2736.16,-229.4C2844.06,-220.91 3079.36,-195.38 3123.04,-132 3133.85,-116.32 3120.55,-96.62 3107.75,-83.04"/>
<polygon fill="midnightblue" stroke="midnightblue" points="3110.03,-80.37 3100.46,-75.83 3105.11,-85.35 3110.03,-80.37"/>
</g>
<!-- Node49&#45;&gt;Node23 -->
<g id="edge86" class="edge">
<title>Node49&#45;&gt;Node23</title>
<path fill="none" stroke="midnightblue" d="M2736.39,-228.88C2854.08,-219.81 3125.2,-198.16 3166.04,-188 3188.47,-182.42 3191.84,-174.41 3214.04,-168 3306.28,-141.36 3337.6,-166.89 3427.04,-132 3458.32,-119.8 3490.1,-96.97 3509.19,-81.88"/>
<polygon fill="midnightblue" stroke="midnightblue" points="3511.44,-84.56 3517.03,-75.55 3507.05,-79.11 3511.44,-84.56"/>
</g>
<!-- Node49&#45;&gt;Node20 -->
<g id="edge90" class="edge">
<title>Node49&#45;&gt;Node20</title>
<path fill="none" stroke="midnightblue" d="M2688.34,-224.42C2703.47,-202.68 2738.51,-144.84 2709.04,-112 2684.35,-84.49 2435.41,-72.25 2335.35,-68.41"/>
<polygon fill="midnightblue" stroke="midnightblue" points="2335.43,-64.91 2325.31,-68.03 2335.17,-71.9 2335.43,-64.91"/>
</g>
<!-- Node49&#45;&gt;Node33 -->
<g id="edge89" class="edge">
<title>Node49&#45;&gt;Node33</title>
<path fill="none" stroke="midnightblue" d="M2670.19,-224.4C2658.25,-215.61 2639.44,-201.37 2624.04,-188 2605.63,-172.01 2585.71,-152.36 2572.42,-138.88"/>
<polygon fill="midnightblue" stroke="midnightblue" points="2574.92,-136.43 2565.43,-131.73 2569.92,-141.32 2574.92,-136.43"/>
</g>
<!-- Node49&#45;&gt;Node36 -->
<g id="edge83" class="edge">
<title>Node49&#45;&gt;Node36</title>
<path fill="none" stroke="midnightblue" d="M2627.74,-229.96C2462.77,-220.73 1967.59,-193.02 1785.34,-182.82"/>
<polygon fill="midnightblue" stroke="midnightblue" points="1785.26,-179.31 1775.08,-182.25 1784.87,-186.3 1785.26,-179.31"/>
</g>
<!-- Node52 -->
<g id="node33" class="node">
<title>Node52</title>
<polygon fill="none" stroke="#bfbfbf" points="3370.04,-168.5 3370.04,-187.5 3414.04,-187.5 3414.04,-168.5 3370.04,-168.5"/>
<text text-anchor="middle" x="3392.04" y="-175.5" font-family="Helvetica,sans-Serif" font-size="10.00">vector</text>
</g>
<!-- Node49&#45;&gt;Node52 -->
<g id="edge91" class="edge">
<title>Node49&#45;&gt;Node52</title>
<path fill="none" stroke="midnightblue" d="M2736.28,-228.87C2876.51,-218.21 3247.91,-189.96 3359.74,-181.46"/>
<polygon fill="midnightblue" stroke="midnightblue" points="3360.32,-184.92 3370.02,-180.67 3359.79,-177.94 3360.32,-184.92"/>
</g>
<!-- Node62&#45;&gt;Node3 -->
<g id="edge97" class="edge">
<title>Node62&#45;&gt;Node3</title>
<path fill="none" stroke="midnightblue" d="M2015.26,-280.37C2021.91,-262.54 2037.28,-221.3 2046.23,-197.27"/>
<polygon fill="midnightblue" stroke="midnightblue" points="2049.63,-198.18 2049.84,-187.59 2043.07,-195.74 2049.63,-198.18"/>
</g>
<!-- Node62&#45;&gt;Node11 -->
<g id="edge100" class="edge">
<title>Node62&#45;&gt;Node11</title>
<path fill="none" stroke="midnightblue" d="M1997.44,-280.38C1961.78,-259.5 1867.04,-205.23 1784.04,-168 1742.08,-149.18 1713.59,-169.55 1687.04,-132 1677.58,-118.62 1678.53,-99.51 1681.12,-85.47"/>
<polygon fill="midnightblue" stroke="midnightblue" points="1684.59,-86.04 1683.39,-75.51 1677.76,-84.48 1684.59,-86.04"/>
</g>
<!-- Node62&#45;&gt;Node23 -->
<g id="edge99" class="edge">
<title>Node62&#45;&gt;Node23</title>
<path fill="none" stroke="midnightblue" d="M2081.63,-288.37C2212.29,-286.37 2502.96,-278.11 2745.04,-244 2785.62,-238.28 2794.58,-230.45 2835.04,-224 2997.77,-198.08 3046.18,-235.26 3204.04,-188 3222.33,-182.53 3223.95,-174.08 3242.04,-168 3335.13,-136.73 3372.35,-176.21 3460.04,-132 3482.54,-120.66 3502.43,-99.11 3514.57,-83.95"/>
<polygon fill="midnightblue" stroke="midnightblue" points="3517.46,-85.94 3520.79,-75.88 3511.91,-81.66 3517.46,-85.94"/>
</g>
<!-- Node62&#45;&gt;Node20 -->
<g id="edge104" class="edge">
<title>Node62&#45;&gt;Node20</title>
<path fill="none" stroke="midnightblue" d="M2024.82,-280.36C2055.29,-259.9 2134.81,-207.26 2204.04,-168 2234.82,-150.55 2252.44,-159.22 2275.04,-132 2285.95,-118.87 2290.59,-99.72 2292.57,-85.61"/>
<polygon fill="midnightblue" stroke="midnightblue" points="2296.06,-85.9 2293.66,-75.58 2289.1,-85.15 2296.06,-85.9"/>
</g>
<!-- Node62&#45;&gt;Node29 -->
<g id="edge102" class="edge">
<title>Node62&#45;&gt;Node29</title>
<path fill="none" stroke="midnightblue" d="M1942.48,-285.83C1810.73,-279.59 1515.81,-264.52 1268.04,-244 1183.42,-236.99 1162.62,-231.54 1078.04,-224 859.21,-204.5 798.81,-238.7 585.04,-188 481.17,-163.37 366.55,-106.3 317.5,-80.32"/>
<polygon fill="midnightblue" stroke="midnightblue" points="319.05,-77.18 308.58,-75.55 315.75,-83.35 319.05,-77.18"/>
</g>
<!-- Node62&#45;&gt;Node35 -->
<g id="edge98" class="edge">
<title>Node62&#45;&gt;Node35</title>
<path fill="none" stroke="midnightblue" d="M1965.3,-280.44C1913.3,-270.92 1829.29,-255.55 1773.62,-245.36"/>
<polygon fill="midnightblue" stroke="midnightblue" points="1774.03,-241.87 1763.57,-243.52 1772.77,-248.76 1774.03,-241.87"/>
</g>
<!-- Node62&#45;&gt;Node41 -->
<g id="edge101" class="edge">
<title>Node62&#45;&gt;Node41</title>
<path fill="none" stroke="midnightblue" d="M2033.85,-280.42C2089.83,-258.68 2243.54,-200.85 2376.04,-168 2467.46,-145.33 2495.27,-152.68 2590.91,-132.04"/>
<polygon fill="midnightblue" stroke="midnightblue" points="2591.69,-135.45 2600.7,-129.88 2590.18,-128.62 2591.69,-135.45"/>
</g>
<!-- Node63 -->
<g id="node35" class="node">
<title>Node63</title>
<polygon fill="none" stroke="#bfbfbf" points="484.04,-112.5 484.04,-131.5 558.04,-131.5 558.04,-112.5 484.04,-112.5"/>
<text text-anchor="middle" x="521.04" y="-119.5" font-family="Helvetica,sans-Serif" font-size="10.00">system_error</text>
</g>
<!-- Node62&#45;&gt;Node63 -->
<g id="edge103" class="edge">
<title>Node62&#45;&gt;Node63</title>
<path fill="none" stroke="midnightblue" d="M1942.46,-285.66C1797.2,-278.45 1465.94,-260.73 1354.04,-244 1315.23,-238.2 1306.89,-229.57 1268.04,-224 1127.92,-203.89 767.56,-228.91 632.04,-188 596.69,-177.33 560.69,-153.32 539.63,-137.66"/>
<polygon fill="midnightblue" stroke="midnightblue" points="541.65,-134.79 531.57,-131.52 537.41,-140.36 541.65,-134.79"/>
</g>
<!-- Node64&#45;&gt;Node23 -->
<g id="edge106" class="edge">
<title>Node64&#45;&gt;Node23</title>
<path fill="none" stroke="midnightblue" d="M3510.82,-287.38C3554,-283.64 3612.33,-272.99 3655.04,-244 3704.81,-210.21 3713.37,-189.5 3731.04,-132 3733.65,-123.5 3736.61,-118.93 3731.04,-112 3710.21,-86.08 3614.56,-74.2 3561.96,-69.55"/>
<polygon fill="midnightblue" stroke="midnightblue" points="3562,-66.04 3551.74,-68.69 3561.41,-73.02 3562,-66.04"/>
</g>
<!-- Node65&#45;&gt;Node23 -->
<g id="edge114" class="edge">
<title>Node65&#45;&gt;Node23</title>
<path fill="none" stroke="midnightblue" d="M2687.28,-511.08C2937.29,-502.47 3907.04,-465.08 3907.04,-403 3907.04,-403 3907.04,-403 3907.04,-289 3907.04,-196.85 3878.85,-158.07 3799.04,-112 3759.19,-88.99 3625.74,-75.16 3561.79,-69.7"/>
<polygon fill="midnightblue" stroke="midnightblue" points="3562.04,-66.21 3551.78,-68.86 3561.45,-73.18 3562.04,-66.21"/>
</g>
<!-- Node65&#45;&gt;Node45 -->
<g id="edge113" class="edge">
<title>Node65&#45;&gt;Node45</title>
<path fill="none" stroke="midnightblue" d="M2618.92,-504.32C2609.52,-496.26 2595.3,-484.08 2583.97,-474.37"/>
<polygon fill="midnightblue" stroke="midnightblue" points="2586.22,-471.68 2576.35,-467.83 2581.66,-477 2586.22,-471.68"/>
</g>
<!-- Node66&#45;&gt;Node22 -->
<g id="edge140" class="edge">
<title>Node66&#45;&gt;Node22</title>
<path fill="none" stroke="midnightblue" d="M3548.67,-398.24C3651.31,-391.26 3825.73,-366.66 3773.04,-280 3683.83,-133.24 3590.69,-157.38 3425.04,-112 3320.18,-83.27 3191.63,-72.56 3128.6,-68.83"/>
<polygon fill="midnightblue" stroke="midnightblue" points="3128.52,-65.32 3118.34,-68.25 3128.13,-72.31 3128.52,-65.32"/>
</g>
<!-- Node66&#45;&gt;Node23 -->
<g id="edge141" class="edge">
<title>Node66&#45;&gt;Node23</title>
<path fill="none" stroke="midnightblue" d="M3548.63,-399.67C3632.9,-396.68 3768.39,-387.05 3807.04,-356 3831.05,-336.71 3831.04,-321.8 3831.04,-291 3831.04,-291 3831.04,-291 3831.04,-177 3831.04,-136.46 3802.83,-131.05 3767.04,-112 3700.46,-76.55 3610.48,-68.64 3561.8,-67.11"/>
<polygon fill="midnightblue" stroke="midnightblue" points="3561.86,-63.61 3551.78,-66.87 3561.69,-70.61 3561.86,-63.61"/>
</g>
<!-- Node66&#45;&gt;Node29 -->
<g id="edge143" class="edge">
<title>Node66&#45;&gt;Node29</title>
<path fill="none" stroke="midnightblue" d="M3409.3,-400C3063.57,-395.01 1541.8,-372.26 1331.04,-356 956.84,-327.14 856.69,-340.68 494.04,-244 396.35,-217.96 338.84,-223.6 296.04,-132 289.32,-117.61 289.07,-99.41 290.22,-85.94"/>
<polygon fill="midnightblue" stroke="midnightblue" points="293.71,-86.25 291.4,-75.91 286.76,-85.44 293.71,-86.25"/>
</g>
<!-- Node66&#45;&gt;Node35 -->
<g id="edge120" class="edge">
<title>Node66&#45;&gt;Node35</title>
<path fill="none" stroke="midnightblue" d="M3409.39,-400.71C3251.07,-399.41 2852.26,-392.44 2521.04,-356 2469.47,-350.33 2457.52,-342.42 2406.04,-336 2196.83,-309.91 2140.31,-338.6 1933.04,-300 1866.35,-287.58 1791.02,-262.21 1749.27,-247.1"/>
<polygon fill="midnightblue" stroke="midnightblue" points="1750.25,-243.73 1739.66,-243.58 1747.85,-250.3 1750.25,-243.73"/>
</g>
<!-- Node66&#45;&gt;Node41 -->
<g id="edge142" class="edge">
<title>Node66&#45;&gt;Node41</title>
<path fill="none" stroke="midnightblue" d="M3489.04,-392.31C3512.62,-370.81 3567.38,-314.41 3535.04,-280 3490.74,-232.87 3017.34,-257.27 2954.04,-244 2893.99,-231.41 2724.63,-163.93 2654.77,-135.57"/>
<polygon fill="midnightblue" stroke="midnightblue" points="2655.79,-132.2 2645.21,-131.68 2653.15,-138.69 2655.79,-132.2"/>
</g>
<!-- Node66&#45;&gt;Node49 -->
<g id="edge119" class="edge">
<title>Node66&#45;&gt;Node49</title>
<path fill="none" stroke="midnightblue" d="M3482.12,-392.1C3486.53,-379.51 3494.98,-355.84 3503.04,-336 3509.63,-319.78 3515.41,-317.13 3519.04,-300 3520.89,-291.3 3525.16,-286.45 3519.04,-280 3512.4,-272.99 2941,-246.65 2746.23,-237.87"/>
<polygon fill="midnightblue" stroke="midnightblue" points="2746.29,-234.37 2736.14,-237.42 2745.98,-241.36 2746.29,-234.37"/>
</g>
<!-- Node67 -->
<g id="node39" class="node">
<title>Node67</title>
<g id="a_node39"><a xlink:href="Triple_8h.html" target="_top" xlink:title="llvm/ADT/Triple.h">
<polygon fill="none" stroke="black" points="2304.54,-336.5 2304.54,-355.5 2397.54,-355.5 2397.54,-336.5 2304.54,-336.5"/>
<text text-anchor="middle" x="2351.04" y="-343.5" font-family="Helvetica,sans-Serif" font-size="10.00">llvm/ADT/Triple.h</text>
</a>
</g>
</g>
<!-- Node66&#45;&gt;Node67 -->
<g id="edge121" class="edge">
<title>Node66&#45;&gt;Node67</title>
<path fill="none" stroke="midnightblue" d="M3409.27,-400.57C3238.68,-398.98 2786.98,-391.47 2412.04,-356 2410.58,-355.86 2409.09,-355.71 2407.6,-355.55"/>
<polygon fill="midnightblue" stroke="midnightblue" points="2407.95,-352.07 2397.61,-354.38 2407.13,-359.02 2407.95,-352.07"/>
</g>
<!-- Node69 -->
<g id="node41" class="node">
<title>Node69</title>
<g id="a_node41"><a xlink:href="MCInstrItineraries_8h.html" target="_top" xlink:title="llvm/MC/MCInstrItineraries.h">
<polygon fill="none" stroke="black" points="3545.54,-336.5 3545.54,-355.5 3688.54,-355.5 3688.54,-336.5 3545.54,-336.5"/>
<text text-anchor="middle" x="3617.04" y="-343.5" font-family="Helvetica,sans-Serif" font-size="10.00">llvm/MC/MCInstrItineraries.h</text>
</a>
</g>
</g>
<!-- Node66&#45;&gt;Node69 -->
<g id="edge129" class="edge">
<title>Node66&#45;&gt;Node69</title>
<path fill="none" stroke="midnightblue" d="M3500.91,-392.44C3523.82,-383.48 3560.02,-369.31 3585.91,-359.18"/>
<polygon fill="midnightblue" stroke="midnightblue" points="3587.24,-362.42 3595.28,-355.52 3584.69,-355.9 3587.24,-362.42"/>
</g>
<!-- Node70 -->
<g id="node42" class="node">
<title>Node70</title>
<g id="a_node42"><a xlink:href="MCSchedule_8h.html" target="_top" xlink:title="llvm/MC/MCSchedule.h">
<polygon fill="none" stroke="red" points="3643.54,-280.5 3643.54,-299.5 3764.54,-299.5 3764.54,-280.5 3643.54,-280.5"/>
<text text-anchor="middle" x="3704.04" y="-287.5" font-family="Helvetica,sans-Serif" font-size="10.00">llvm/MC/MCSchedule.h</text>
</a>
</g>
</g>
<!-- Node66&#45;&gt;Node70 -->
<g id="edge134" class="edge">
<title>Node66&#45;&gt;Node70</title>
<path fill="none" stroke="midnightblue" d="M3548.8,-395.43C3604.87,-389.41 3677.39,-377.64 3697.04,-356 3708.12,-343.8 3708.88,-324.53 3707.47,-310.14"/>
<polygon fill="midnightblue" stroke="midnightblue" points="3710.88,-309.28 3706.02,-299.86 3703.95,-310.25 3710.88,-309.28"/>
</g>
<!-- Node71 -->
<g id="node43" class="node">
<title>Node71</title>
<g id="a_node43"><a xlink:href="SubtargetFeature_8h.html" target="_top" xlink:title="llvm/MC/SubtargetFeature.h">
<polygon fill="none" stroke="red" points="2969.04,-280.5 2969.04,-299.5 3109.04,-299.5 3109.04,-280.5 2969.04,-280.5"/>
<text text-anchor="middle" x="3039.04" y="-287.5" font-family="Helvetica,sans-Serif" font-size="10.00">llvm/MC/SubtargetFeature.h</text>
</a>
</g>
</g>
<!-- Node66&#45;&gt;Node71 -->
<g id="edge135" class="edge">
<title>Node66&#45;&gt;Node71</title>
<path fill="none" stroke="midnightblue" d="M3444.88,-392.46C3365.93,-372.72 3170.86,-323.96 3083.09,-302.01"/>
<polygon fill="midnightblue" stroke="midnightblue" points="3083.73,-298.56 3073.18,-299.53 3082.03,-305.36 3083.73,-298.56"/>
</g>
<!-- Node68 -->
<g id="node40" class="node">
<title>Node68</title>
<g id="a_node40"><a xlink:href="Twine_8h.html" target="_top" xlink:title="llvm/ADT/Twine.h">
<polygon fill="none" stroke="black" points="1584.54,-280.5 1584.54,-299.5 1679.54,-299.5 1679.54,-280.5 1584.54,-280.5"/>
<text text-anchor="middle" x="1632.04" y="-287.5" font-family="Helvetica,sans-Serif" font-size="10.00">llvm/ADT/Twine.h</text>
</a>
</g>
</g>
<!-- Node67&#45;&gt;Node68 -->
<g id="edge122" class="edge">
<title>Node67&#45;&gt;Node68</title>
<path fill="none" stroke="midnightblue" d="M2304.29,-343.3C2197.3,-339.09 1926.26,-326.64 1689.83,-300.11"/>
<polygon fill="midnightblue" stroke="midnightblue" points="1689.99,-296.61 1679.66,-298.96 1689.2,-303.56 1689.99,-296.61"/>
</g>
<!-- Node68&#45;&gt;Node3 -->
<g id="edge123" class="edge">
<title>Node68&#45;&gt;Node3</title>
<path fill="none" stroke="midnightblue" d="M1660.62,-280.49C1704,-267.66 1789.13,-242.88 1862.04,-224 1910.33,-211.49 1965.86,-198.57 2004.55,-189.8"/>
<polygon fill="midnightblue" stroke="midnightblue" points="2005.52,-193.17 2014.51,-187.55 2003.98,-186.34 2005.52,-193.17"/>
</g>
<!-- Node68&#45;&gt;Node23 -->
<g id="edge126" class="edge">
<title>Node68&#45;&gt;Node23</title>
<path fill="none" stroke="midnightblue" d="M1679.67,-281.1C1682.5,-280.71 1685.31,-280.34 1688.04,-280 1978.03,-244.35 2051.57,-244.25 2343.04,-224 2492.45,-213.62 2872.12,-229.43 3016.04,-188 3033.63,-182.94 3034.9,-174.41 3052.04,-168 3124.38,-140.95 3146.63,-148.65 3222.04,-132 3260.78,-123.45 3270.28,-120.46 3309.04,-112 3373.75,-97.89 3449.51,-82.5 3492.53,-73.87"/>
<polygon fill="midnightblue" stroke="midnightblue" points="3493.37,-77.28 3502.48,-71.88 3491.99,-70.41 3493.37,-77.28"/>
</g>
<!-- Node68&#45;&gt;Node28 -->
<g id="edge125" class="edge">
<title>Node68&#45;&gt;Node28</title>
<path fill="none" stroke="midnightblue" d="M1602.67,-280.4C1545.37,-263.5 1414.75,-224.44 1306.04,-188 1253.92,-170.53 1193.99,-148.49 1158.11,-135.09"/>
<polygon fill="midnightblue" stroke="midnightblue" points="1159.25,-131.77 1148.66,-131.55 1156.79,-138.33 1159.25,-131.77"/>
</g>
<!-- Node68&#45;&gt;Node29 -->
<g id="edge128" class="edge">
<title>Node68&#45;&gt;Node29</title>
<path fill="none" stroke="midnightblue" d="M1584.42,-286.02C1376.47,-272.89 553.5,-219.36 442.04,-188 428.46,-184.18 338.21,-141.79 328.04,-132 314.51,-118.96 305,-99.54 299.34,-85.32"/>
<polygon fill="midnightblue" stroke="midnightblue" points="302.51,-83.81 295.76,-75.65 295.95,-86.24 302.51,-83.81"/>
</g>
<!-- Node68&#45;&gt;Node35 -->
<g id="edge124" class="edge">
<title>Node68&#45;&gt;Node35</title>
<path fill="none" stroke="midnightblue" d="M1645.7,-280.32C1658.96,-271.9 1679.31,-258.97 1694.89,-249.07"/>
<polygon fill="midnightblue" stroke="midnightblue" points="1696.86,-251.97 1703.42,-243.65 1693.1,-246.06 1696.86,-251.97"/>
</g>
<!-- Node68&#45;&gt;Node41 -->
<g id="edge127" class="edge">
<title>Node68&#45;&gt;Node41</title>
<path fill="none" stroke="midnightblue" d="M1671.82,-280.49C1751.65,-263.42 1924.92,-226.41 1938.04,-224 2098.17,-194.63 2138.79,-190.41 2300.04,-168 2426.4,-150.44 2462.12,-157.41 2590.88,-131.97"/>
<polygon fill="midnightblue" stroke="midnightblue" points="2591.6,-135.39 2600.72,-130 2590.23,-128.53 2591.6,-135.39"/>
</g>
<!-- Node69&#45;&gt;Node22 -->
<g id="edge133" class="edge">
<title>Node69&#45;&gt;Node22</title>
<path fill="none" stroke="midnightblue" d="M3615.63,-336.33C3610.42,-307.39 3589.57,-213.41 3532.04,-168 3468.76,-118.06 3223.8,-83.38 3128.39,-71.51"/>
<polygon fill="midnightblue" stroke="midnightblue" points="3128.66,-68.01 3118.3,-70.27 3127.8,-74.96 3128.66,-68.01"/>
</g>
<!-- Node69&#45;&gt;Node70 -->
<g id="edge130" class="edge">
<title>Node69&#45;&gt;Node70</title>
<path fill="none" stroke="midnightblue" d="M3631.02,-336.32C3644.59,-327.9 3665.42,-314.97 3681.37,-305.07"/>
<polygon fill="midnightblue" stroke="midnightblue" points="3683.45,-307.9 3690.1,-299.65 3679.76,-301.95 3683.45,-307.9"/>
</g>
<!-- Node70&#45;&gt;Node23 -->
<g id="edge132" class="edge">
<title>Node70&#45;&gt;Node23</title>
<path fill="none" stroke="midnightblue" d="M3710.88,-280.11C3731.58,-252.06 3789.63,-164.18 3747.04,-112 3724.06,-83.84 3617.82,-72.83 3561.82,-68.92"/>
<polygon fill="midnightblue" stroke="midnightblue" points="3561.86,-65.42 3551.65,-68.25 3561.4,-72.4 3561.86,-65.42"/>
</g>
<!-- Node70&#45;&gt;Node49 -->
<g id="edge131" class="edge">
<title>Node70&#45;&gt;Node49</title>
<path fill="none" stroke="midnightblue" d="M3643.43,-285.28C3615.86,-283.61 3582.8,-281.66 3553.04,-280 3251.12,-263.2 2890.2,-245.23 2746.07,-238.13"/>
<polygon fill="midnightblue" stroke="midnightblue" points="2746.23,-234.64 2736.07,-237.64 2745.89,-241.63 2746.23,-234.64"/>
</g>
<!-- Node71&#45;&gt;Node12 -->
<g id="edge137" class="edge">
<title>Node71&#45;&gt;Node12</title>
<path fill="none" stroke="midnightblue" d="M3066.56,-280.42C3094.78,-269.99 3132.75,-250.46 3119.04,-224 3096.04,-179.6 3043.54,-150.55 3008.95,-135.46"/>
<polygon fill="midnightblue" stroke="midnightblue" points="3010.29,-132.23 2999.72,-131.57 3007.58,-138.68 3010.29,-132.23"/>
</g>
<!-- Node71&#45;&gt;Node29 -->
<g id="edge138" class="edge">
<title>Node71&#45;&gt;Node29</title>
<path fill="none" stroke="midnightblue" d="M2968.7,-287.42C2765.02,-282.7 2157.17,-267.55 1653.04,-244 1507.15,-237.19 1470.83,-232.79 1325.04,-224 1190.83,-215.91 851.44,-220.81 721.04,-188 663.57,-173.54 652.35,-159.84 600.04,-132 584.9,-123.94 583.13,-117.94 567.04,-112 482.61,-80.81 375.58,-71.18 323.83,-68.25"/>
<polygon fill="midnightblue" stroke="midnightblue" points="323.82,-64.75 313.66,-67.72 323.46,-71.74 323.82,-64.75"/>
</g>
<!-- Node71&#45;&gt;Node35 -->
<g id="edge136" class="edge">
<title>Node71&#45;&gt;Node35</title>
<path fill="none" stroke="midnightblue" d="M2968.9,-286.13C2738.35,-276.72 2005.98,-246.8 1782.45,-237.67"/>
<polygon fill="midnightblue" stroke="midnightblue" points="1782.33,-234.16 1772.2,-237.25 1782.05,-241.16 1782.33,-234.16"/>
</g>
<!-- Node71&#45;&gt;Node52 -->
<g id="edge139" class="edge">
<title>Node71&#45;&gt;Node52</title>
<path fill="none" stroke="midnightblue" d="M3076.28,-280.46C3110.4,-272.28 3162.14,-258.99 3206.04,-244 3227.91,-236.53 3232.37,-232.03 3254.04,-224 3290.03,-210.66 3332.04,-197.27 3360.17,-188.6"/>
<polygon fill="midnightblue" stroke="midnightblue" points="3361.33,-191.91 3369.87,-185.63 3359.28,-185.21 3361.33,-191.91"/>
</g>
<!-- Node73&#45;&gt;Node3 -->
<g id="edge147" class="edge">
<title>Node73&#45;&gt;Node3</title>
<path fill="none" stroke="midnightblue" d="M2575.53,-336.48C2553.41,-322.84 2507.75,-296.04 2466.04,-280 2346.17,-233.9 2198.46,-203.81 2116.13,-189.26"/>
<polygon fill="midnightblue" stroke="midnightblue" points="2116.63,-185.79 2106.18,-187.52 2115.42,-192.69 2116.63,-185.79"/>
</g>
<!-- Node73&#45;&gt;Node12 -->
<g id="edge149" class="edge">
<title>Node73&#45;&gt;Node12</title>
<path fill="none" stroke="midnightblue" d="M2647.61,-341.99C2765.94,-335.59 3029.75,-319.6 3118.04,-300 3188.53,-284.36 3381.71,-247.2 3423.04,-188 3428.13,-180.71 3429,-174.59 3423.04,-168 3398.74,-141.12 3174.17,-129.55 3052.9,-125.23"/>
<polygon fill="midnightblue" stroke="midnightblue" points="3052.68,-121.72 3042.56,-124.87 3052.44,-128.72 3052.68,-121.72"/>
</g>
<!-- Node73&#45;&gt;Node33 -->
<g id="edge151" class="edge">
<title>Node73&#45;&gt;Node33</title>
<path fill="none" stroke="midnightblue" d="M2587.79,-336.3C2583.08,-303.63 2566.39,-187.87 2559.77,-141.96"/>
<polygon fill="midnightblue" stroke="midnightblue" points="2563.21,-141.28 2558.32,-131.88 2556.28,-142.28 2563.21,-141.28"/>
</g>
<!-- Node73&#45;&gt;Node36 -->
<g id="edge146" class="edge">
<title>Node73&#45;&gt;Node36</title>
<path fill="none" stroke="midnightblue" d="M2543.85,-336.48C2495.98,-327.45 2418.17,-312.75 2351.04,-300 2136.46,-259.24 1881.1,-210.4 1771.46,-189.42"/>
<polygon fill="midnightblue" stroke="midnightblue" points="1772.1,-185.98 1761.62,-187.53 1770.78,-192.85 1772.1,-185.98"/>
</g>
<!-- Node73&#45;&gt;Node49 -->
<g id="edge145" class="edge">
<title>Node73&#45;&gt;Node49</title>
<path fill="none" stroke="midnightblue" d="M2605.61,-336.39C2619.51,-328.48 2639.1,-315.63 2652.04,-300 2663.42,-286.25 2671.48,-267.47 2676.35,-253.63"/>
<polygon fill="midnightblue" stroke="midnightblue" points="2679.79,-254.38 2679.59,-243.79 2673.14,-252.2 2679.79,-254.38"/>
</g>
<!-- Node73&#45;&gt;Node62 -->
<g id="edge150" class="edge">
<title>Node73&#45;&gt;Node62</title>
<path fill="none" stroke="midnightblue" d="M2530.2,-339.93C2437.73,-331.89 2252.77,-315.55 2096.04,-300 2094.73,-299.87 2093.4,-299.74 2092.07,-299.6"/>
<polygon fill="midnightblue" stroke="midnightblue" points="2092.01,-296.08 2081.7,-298.55 2091.3,-303.04 2092.01,-296.08"/>
</g>
<!-- Node73&#45;&gt;Node64 -->
<g id="edge148" class="edge">
<title>Node73&#45;&gt;Node64</title>
<path fill="none" stroke="midnightblue" d="M2647.68,-341.33C2801.89,-331.68 3218.24,-305.63 3383.29,-295.3"/>
<polygon fill="midnightblue" stroke="midnightblue" points="3383.56,-298.79 3393.32,-294.67 3383.12,-291.81 3383.56,-298.79"/>
</g>
<!-- Node74&#45;&gt;Node3 -->
<g id="edge154" class="edge">
<title>Node74&#45;&gt;Node3</title>
<path fill="none" stroke="midnightblue" d="M2372.8,-448.38C2325.94,-408.89 2131.55,-245.13 2071.08,-194.19"/>
<polygon fill="midnightblue" stroke="midnightblue" points="2073.06,-191.29 2063.16,-187.52 2068.55,-196.64 2073.06,-191.29"/>
</g>
<!-- Node74&#45;&gt;Node49 -->
<g id="edge153" class="edge">
<title>Node74&#45;&gt;Node49</title>
<path fill="none" stroke="midnightblue" d="M2435.64,-451.51C2496.97,-442.34 2597.39,-418.26 2656.04,-356 2682.35,-328.07 2684.61,-280.23 2683.57,-253.85"/>
<polygon fill="midnightblue" stroke="midnightblue" points="2687.05,-253.45 2682.95,-243.68 2680.06,-253.87 2687.05,-253.45"/>
</g>
<!-- Node74&#45;&gt;Node70 -->
<g id="edge155" class="edge">
<title>Node74&#45;&gt;Node70</title>
<path fill="none" stroke="midnightblue" d="M2435.71,-452.26C2454.43,-450.71 2475.66,-449.11 2495.04,-448 2730.79,-434.54 3324.99,-455.73 3557.04,-412 3630.67,-398.13 3672.75,-417.15 3716.04,-356 3725.75,-342.28 3720.43,-322.99 3714.09,-308.99"/>
<polygon fill="midnightblue" stroke="midnightblue" points="3717.12,-307.23 3709.5,-299.88 3710.87,-310.39 3717.12,-307.23"/>
</g>
<!-- Node74&#45;&gt;Node75 -->
<g id="edge156" class="edge">
<title>Node74&#45;&gt;Node75</title>
<path fill="none" stroke="midnightblue" d="M2330.3,-454.1C2162.92,-444.88 1644.15,-416.33 1464.24,-406.42"/>
<polygon fill="midnightblue" stroke="midnightblue" points="1464.33,-402.92 1454.15,-405.87 1463.94,-409.91 1464.33,-402.92"/>
</g>
<!-- Node75&#45;&gt;Node3 -->
<g id="edge159" class="edge">
<title>Node75&#45;&gt;Node3</title>
<path fill="none" stroke="midnightblue" d="M1454.11,-400.87C1560.36,-399.82 1798.1,-393.25 1869.04,-356 1908.14,-335.47 1901.81,-311.22 1933.04,-280 1966.14,-246.91 2008.89,-212.72 2033.41,-193.83"/>
<polygon fill="midnightblue" stroke="midnightblue" points="2035.75,-196.44 2041.57,-187.59 2031.5,-190.88 2035.75,-196.44"/>
</g>
<!-- Node75&#45;&gt;Node6 -->
<g id="edge195" class="edge">
<title>Node75&#45;&gt;Node6</title>
<path fill="none" stroke="midnightblue" d="M1349.81,-400.26C1127.89,-396.95 269.05,-382.54 151.04,-356 79.76,-339.97 0.04,-364.06 0.04,-291 0.04,-291 0.04,-291 0.04,-121 0.04,-90.2 -0.63,-74.43 24.04,-56 76.23,-17 544.44,-11.8 669.47,-11.11"/>
<polygon fill="midnightblue" stroke="midnightblue" points="669.85,-14.6 679.83,-11.06 669.81,-7.6 669.85,-14.6"/>
</g>
<!-- Node75&#45;&gt;Node7 -->
<g id="edge173" class="edge">
<title>Node75&#45;&gt;Node7</title>
<path fill="none" stroke="midnightblue" d="M1349.76,-398.85C1284.88,-393.04 1176.61,-372.35 1126.04,-300 1088.24,-245.91 1135.68,-198.81 1194.04,-168 1224.54,-151.9 1261.54,-140.88 1291.75,-133.77"/>
<polygon fill="midnightblue" stroke="midnightblue" points="1292.73,-137.14 1301.71,-131.51 1291.18,-130.31 1292.73,-137.14"/>
</g>
<!-- Node75&#45;&gt;Node8 -->
<g id="edge174" class="edge">
<title>Node75&#45;&gt;Node8</title>
<path fill="none" stroke="midnightblue" d="M1349.99,-400.17C1182.37,-397.24 657.83,-385.85 491.04,-356 470.63,-352.35 325.31,-316.72 313.04,-300 249.15,-212.92 364.07,-144.59 467.04,-112 600.97,-69.61 1022.94,-66.15 1191.98,-66.54"/>
<polygon fill="midnightblue" stroke="midnightblue" points="1192.01,-70.04 1202.02,-66.56 1192.03,-63.04 1192.01,-70.04"/>
</g>
<!-- Node75&#45;&gt;Node22 -->
<g id="edge185" class="edge">
<title>Node75&#45;&gt;Node22</title>
<path fill="none" stroke="midnightblue" d="M1454.21,-400.81C1686.13,-399.75 2625.02,-393.22 2917.04,-356 3028.27,-341.82 3056.05,-333.57 3163.04,-300 3289.75,-260.25 3365.8,-298.1 3440.04,-188 3445.01,-180.63 3445.39,-175.1 3440.04,-168 3420.88,-142.53 3214.93,-94.56 3128.2,-75.31"/>
<polygon fill="midnightblue" stroke="midnightblue" points="3128.75,-71.84 3118.23,-73.1 3127.24,-78.68 3128.75,-71.84"/>
</g>
<!-- Node75&#45;&gt;Node23 -->
<g id="edge186" class="edge">
<title>Node75&#45;&gt;Node23</title>
<path fill="none" stroke="midnightblue" d="M1454.14,-401.42C1636.82,-402.46 2265.11,-402.2 2781.04,-356 2841.89,-350.55 2856.59,-344.87 2917.04,-336 3026.37,-319.96 3055.28,-324.45 3163.04,-300 3267.14,-276.39 3561.44,-225.44 3613.04,-132 3617.34,-124.22 3617.65,-119.6 3613.04,-112 3606.77,-101.64 3580.43,-88.73 3558.54,-79.4"/>
<polygon fill="midnightblue" stroke="midnightblue" points="3559.76,-76.12 3549.19,-75.51 3557.08,-82.58 3559.76,-76.12"/>
</g>
<!-- Node75&#45;&gt;Node20 -->
<g id="edge194" class="edge">
<title>Node75&#45;&gt;Node20</title>
<path fill="none" stroke="midnightblue" d="M1454.22,-398.96C1573.88,-393.94 1865.01,-379.62 1960.04,-356 2133.86,-312.8 2218.41,-293.88 2295.04,-132 2301.83,-117.66 2300.86,-99.46 2298.61,-85.97"/>
<polygon fill="midnightblue" stroke="midnightblue" points="2301.99,-85.03 2296.55,-75.93 2295.13,-86.43 2301.99,-85.03"/>
</g>
<!-- Node75&#45;&gt;Node28 -->
<g id="edge176" class="edge">
<title>Node75&#45;&gt;Node28</title>
<path fill="none" stroke="midnightblue" d="M1349.61,-401.46C1297.8,-399.69 1217.98,-390.78 1159.04,-356 1131.3,-339.63 1124.17,-330.23 1113.04,-300 1092.86,-245.19 1109.7,-174.49 1119.79,-141.5"/>
<polygon fill="midnightblue" stroke="midnightblue" points="1123.17,-142.42 1122.9,-131.83 1116.51,-140.28 1123.17,-142.42"/>
</g>
<!-- Node75&#45;&gt;Node29 -->
<g id="edge192" class="edge">
<title>Node75&#45;&gt;Node29</title>
<path fill="none" stroke="midnightblue" d="M1349.84,-400.78C1121.29,-399.62 218.19,-392.7 171.04,-356 147.29,-337.51 152.04,-321.1 152.04,-291 152.04,-291 152.04,-291 152.04,-177 152.04,-146.2 154.41,-133.92 176.04,-112 199.28,-88.44 236.19,-77 262.33,-71.58"/>
<polygon fill="midnightblue" stroke="midnightblue" points="263.28,-74.96 272.46,-69.67 261.98,-68.09 263.28,-74.96"/>
</g>
<!-- Node75&#45;&gt;Node30 -->
<g id="edge188" class="edge">
<title>Node75&#45;&gt;Node30</title>
<path fill="none" stroke="midnightblue" d="M1349.85,-398.02C1280.63,-393.14 1163.19,-381.31 1129.04,-356 1055.36,-301.39 1026.18,-186.57 1017.29,-141.61"/>
<polygon fill="midnightblue" stroke="midnightblue" points="1020.69,-140.73 1015.41,-131.55 1013.8,-142.02 1020.69,-140.73"/>
</g>
<!-- Node75&#45;&gt;Node33 -->
<g id="edge190" class="edge">
<title>Node75&#45;&gt;Node33</title>
<path fill="none" stroke="midnightblue" d="M1454.15,-401.61C1604.08,-402.78 2034.22,-401.93 2166.04,-356 2303.44,-308.13 2305.07,-235.35 2434.04,-168 2462.03,-153.38 2495.85,-141.38 2520.93,-133.46"/>
<polygon fill="midnightblue" stroke="midnightblue" points="2522.25,-136.72 2530.77,-130.42 2520.18,-130.03 2522.25,-136.72"/>
</g>
<!-- Node75&#45;&gt;Node34 -->
<g id="edge191" class="edge">
<title>Node75&#45;&gt;Node34</title>
<path fill="none" stroke="midnightblue" d="M1454.31,-400.62C1647.86,-398.94 2317.2,-390.67 2406.04,-356 2527.63,-308.55 2634.25,-184.73 2670.16,-139.69"/>
<polygon fill="midnightblue" stroke="midnightblue" points="2673.13,-141.58 2676.56,-131.55 2667.63,-137.25 2673.13,-141.58"/>
</g>
<!-- Node75&#45;&gt;Node36 -->
<g id="edge158" class="edge">
<title>Node75&#45;&gt;Node36</title>
<path fill="none" stroke="midnightblue" d="M1379.4,-392.5C1353,-381.24 1314.9,-359.99 1331.04,-336 1402.2,-230.23 1558.28,-195.68 1648.66,-184.42"/>
<polygon fill="midnightblue" stroke="midnightblue" points="1649.29,-187.87 1658.81,-183.22 1648.47,-180.92 1649.29,-187.87"/>
</g>
<!-- Node75&#45;&gt;Node40 -->
<g id="edge172" class="edge">
<title>Node75&#45;&gt;Node40</title>
<path fill="none" stroke="midnightblue" d="M1349.92,-400.46C1221,-398.6 890.11,-390.5 786.04,-356 735.02,-339.08 684.04,-344.76 684.04,-291 684.04,-291 684.04,-291 684.04,-233 684.04,-180.25 745.47,-149.73 788.91,-134.75"/>
<polygon fill="midnightblue" stroke="midnightblue" points="790.02,-138.07 798.42,-131.61 787.82,-131.42 790.02,-138.07"/>
</g>
<!-- Node75&#45;&gt;Node41 -->
<g id="edge187" class="edge">
<title>Node75&#45;&gt;Node41</title>
<path fill="none" stroke="midnightblue" d="M1454.3,-401.1C1608.99,-400.93 2062.61,-396.86 2204.04,-356 2225.85,-349.7 2514.65,-185.42 2600.27,-136.57"/>
<polygon fill="midnightblue" stroke="midnightblue" points="2602.07,-139.58 2609.02,-131.58 2598.6,-133.5 2602.07,-139.58"/>
</g>
<!-- Node75&#45;&gt;Node42 -->
<g id="edge189" class="edge">
<title>Node75&#45;&gt;Node42</title>
<path fill="none" stroke="midnightblue" d="M1349.8,-400.56C1229.35,-398.96 935.46,-391.41 844.04,-356 800.02,-338.95 760.04,-338.21 760.04,-291 760.04,-291 760.04,-291 760.04,-233 760.04,-194.58 785.24,-189.56 817.04,-168 831.63,-158.11 873.05,-144.27 904.66,-134.56"/>
<polygon fill="midnightblue" stroke="midnightblue" points="905.98,-137.82 914.53,-131.56 903.94,-131.12 905.98,-137.82"/>
</g>
<!-- Node75&#45;&gt;Node59 -->
<g id="edge183" class="edge">
<title>Node75&#45;&gt;Node59</title>
<path fill="none" stroke="midnightblue" d="M1429.37,-392.46C1491.88,-372.93 1645.36,-324.96 1716.6,-302.7"/>
<polygon fill="midnightblue" stroke="midnightblue" points="1717.99,-305.93 1726.49,-299.61 1715.9,-299.25 1717.99,-305.93"/>
</g>
<!-- Node75&#45;&gt;Node52 -->
<g id="edge196" class="edge">
<title>Node75&#45;&gt;Node52</title>
<path fill="none" stroke="midnightblue" d="M1454.09,-400.71C1625.94,-399.42 2190.73,-392.48 2656.04,-356 2759.14,-347.92 3018.32,-327.41 3118.04,-300 3214.71,-273.43 3321.17,-218.26 3367.86,-192.63"/>
<polygon fill="midnightblue" stroke="midnightblue" points="3369.83,-195.54 3376.88,-187.63 3366.44,-189.41 3369.83,-195.54"/>
</g>
<!-- Node75&#45;&gt;Node62 -->
<g id="edge184" class="edge">
<title>Node75&#45;&gt;Node62</title>
<path fill="none" stroke="midnightblue" d="M1454.28,-400.26C1569.64,-398.04 1842.66,-389.31 1928.04,-356 1955.54,-345.27 1981.5,-322.54 1997.09,-307.02"/>
<polygon fill="midnightblue" stroke="midnightblue" points="1999.78,-309.26 2004.25,-299.66 1994.76,-304.38 1999.78,-309.26"/>
</g>
<!-- Node75&#45;&gt;Node63 -->
<g id="edge193" class="edge">
<title>Node75&#45;&gt;Node63</title>
<path fill="none" stroke="midnightblue" d="M1349.83,-399.04C1234.29,-394.4 948.3,-381.17 710.04,-356 667.38,-351.49 356.09,-332.46 328.04,-300 268.97,-231.64 417.91,-162.75 487.51,-135.35"/>
<polygon fill="midnightblue" stroke="midnightblue" points="489.11,-138.48 497.17,-131.61 486.58,-131.96 489.11,-138.48"/>
</g>
<!-- Node75&#45;&gt;Node68 -->
<g id="edge171" class="edge">
<title>Node75&#45;&gt;Node68</title>
<path fill="none" stroke="midnightblue" d="M1420.09,-392.37C1460.31,-373.13 1557.51,-326.65 1605,-303.93"/>
<polygon fill="midnightblue" stroke="midnightblue" points="1606.57,-307.06 1614.08,-299.59 1603.55,-300.75 1606.57,-307.06"/>
</g>
<!-- Node76 -->
<g id="node47" class="node">
<title>Node76</title>
<g id="a_node47"><a xlink:href="c_2Error_8h.html" target="_top" xlink:title="llvm&#45;c/Error.h">
<polygon fill="none" stroke="red" points="180.54,-336.5 180.54,-355.5 255.54,-355.5 255.54,-336.5 180.54,-336.5"/>
<text text-anchor="middle" x="218.04" y="-343.5" font-family="Helvetica,sans-Serif" font-size="10.00">llvm&#45;c/Error.h</text>
</a>
</g>
</g>
<!-- Node75&#45;&gt;Node76 -->
<g id="edge157" class="edge">
<title>Node75&#45;&gt;Node76</title>
<path fill="none" stroke="midnightblue" d="M1349.75,-400C1158.76,-396.19 498.33,-381.52 265.71,-355.99"/>
<polygon fill="midnightblue" stroke="midnightblue" points="265.95,-352.49 255.62,-354.84 265.16,-359.45 265.95,-352.49"/>
</g>
<!-- Node78 -->
<g id="node48" class="node">
<title>Node78</title>
<g id="a_node48"><a xlink:href="StringExtras_8h.html" target="_top" xlink:title="llvm/ADT/StringExtras.h">
<polygon fill="none" stroke="red" points="1340.54,-336.5 1340.54,-355.5 1463.54,-355.5 1463.54,-336.5 1340.54,-336.5"/>
<text text-anchor="middle" x="1402.04" y="-343.5" font-family="Helvetica,sans-Serif" font-size="10.00">llvm/ADT/StringExtras.h</text>
</a>
</g>
</g>
<!-- Node75&#45;&gt;Node78 -->
<g id="edge160" class="edge">
<title>Node75&#45;&gt;Node78</title>
<path fill="none" stroke="midnightblue" d="M1402.04,-392.08C1402.04,-385.01 1402.04,-374.86 1402.04,-365.99"/>
<polygon fill="midnightblue" stroke="midnightblue" points="1405.54,-365.75 1402.04,-355.75 1398.54,-365.75 1405.54,-365.75"/>
</g>
<!-- Node80 -->
<g id="node49" class="node">
<title>Node80</title>
<g id="a_node49"><a xlink:href="Debug_8h.html" target="_top" xlink:title="llvm/Support/Debug.h">
<polygon fill="none" stroke="black" points="273.54,-336.5 273.54,-355.5 384.54,-355.5 384.54,-336.5 273.54,-336.5"/>
<text text-anchor="middle" x="329.04" y="-343.5" font-family="Helvetica,sans-Serif" font-size="10.00">llvm/Support/Debug.h</text>
</a>
</g>
</g>
<!-- Node75&#45;&gt;Node80 -->
<g id="edge175" class="edge">
<title>Node75&#45;&gt;Node80</title>
<path fill="none" stroke="midnightblue" d="M1350,-400.19C1201.35,-397.54 762.2,-387.44 399.04,-356 397.74,-355.89 396.42,-355.77 395.09,-355.64"/>
<polygon fill="midnightblue" stroke="midnightblue" points="395.08,-352.12 384.78,-354.59 394.37,-359.09 395.08,-352.12"/>
</g>
<!-- Node81 -->
<g id="node50" class="node">
<title>Node81</title>
<g id="a_node50"><a xlink:href="ErrorOr_8h.html" target="_top" xlink:title="Provides ErrorOr&lt;T&gt; smart pointer. ">
<polygon fill="none" stroke="black" points="826.04,-168.5 826.04,-187.5 940.04,-187.5 940.04,-168.5 826.04,-168.5"/>
<text text-anchor="middle" x="883.04" y="-175.5" font-family="Helvetica,sans-Serif" font-size="10.00">llvm/Support/ErrorOr.h</text>
</a>
</g>
</g>
<!-- Node75&#45;&gt;Node81 -->
<g id="edge177" class="edge">
<title>Node75&#45;&gt;Node81</title>
<path fill="none" stroke="midnightblue" d="M1349.98,-400.59C1220.66,-399.04 892.81,-391.6 860.04,-356 819.17,-311.59 853.8,-232.3 872.71,-196.91"/>
<polygon fill="midnightblue" stroke="midnightblue" points="875.98,-198.23 877.76,-187.79 869.85,-194.84 875.98,-198.23"/>
</g>
<!-- Node78&#45;&gt;Node5 -->
<g id="edge168" class="edge">
<title>Node78&#45;&gt;Node5</title>
<path fill="none" stroke="midnightblue" d="M1463.82,-343.25C1529.57,-341.4 1636.64,-338.42 1729.04,-336 2049.48,-327.59 2854.24,-348.85 3171.04,-300 3259.74,-286.32 3278.87,-269.07 3365.04,-244 3534.92,-194.58 3640.99,-273.61 3747.04,-132 3820.16,-34.37 4015.85,-132.89 3560.04,-56 3360.1,-22.27 2711.19,-13.09 2555.06,-11.34"/>
<polygon fill="midnightblue" stroke="midnightblue" points="2554.72,-7.84 2544.68,-11.23 2554.64,-14.84 2554.72,-7.84"/>
</g>
<!-- Node78&#45;&gt;Node6 -->
<g id="edge170" class="edge">
<title>Node78&#45;&gt;Node6</title>
<path fill="none" stroke="midnightblue" d="M1340.2,-340.06C1247.8,-332.51 1068.24,-317.14 916.04,-300 632.34,-268.05 475.63,-353.94 296.04,-132 272.88,-103.37 238.37,-83.34 263.04,-56 290.28,-25.81 575.46,-14.69 669.87,-11.82"/>
<polygon fill="midnightblue" stroke="midnightblue" points="670.02,-15.32 679.91,-11.52 669.81,-8.32 670.02,-15.32"/>
</g>
<!-- Node78&#45;&gt;Node11 -->
<g id="edge165" class="edge">
<title>Node78&#45;&gt;Node11</title>
<path fill="none" stroke="midnightblue" d="M1410.18,-336.27C1439.43,-305 1542.33,-195.97 1633.04,-112 1644.11,-101.75 1657.01,-90.78 1667.31,-82.24"/>
<polygon fill="midnightblue" stroke="midnightblue" points="1669.75,-84.76 1675.25,-75.7 1665.31,-79.35 1669.75,-84.76"/>
</g>
<!-- Node78&#45;&gt;Node23 -->
<g id="edge164" class="edge">
<title>Node78&#45;&gt;Node23</title>
<path fill="none" stroke="midnightblue" d="M1463.82,-343.27C1529.57,-341.44 1636.65,-338.47 1729.04,-336 2037.7,-327.75 2814.37,-355.87 3118.04,-300 3173.41,-289.81 3563.5,-177.94 3596.04,-132 3610.72,-111.28 3582.64,-91.93 3558.01,-79.82"/>
<polygon fill="midnightblue" stroke="midnightblue" points="3559.38,-76.59 3548.84,-75.54 3556.43,-82.94 3559.38,-76.59"/>
</g>
<!-- Node78&#45;&gt;Node29 -->
<g id="edge169" class="edge">
<title>Node78&#45;&gt;Node29</title>
<path fill="none" stroke="midnightblue" d="M1343.75,-336.49C1282.54,-327.52 1183.5,-312.93 1098.04,-300 784.79,-252.59 689.15,-303.29 394.04,-188 383.51,-183.88 315.57,-141.24 309.04,-132 299.51,-118.5 295.63,-99.95 294.07,-86.11"/>
<polygon fill="midnightblue" stroke="midnightblue" points="297.53,-85.5 293.22,-75.82 290.55,-86.08 297.53,-85.5"/>
</g>
<!-- Node78&#45;&gt;Node30 -->
<g id="edge167" class="edge">
<title>Node78&#45;&gt;Node30</title>
<path fill="none" stroke="midnightblue" d="M1340.25,-340.81C1269.91,-335.02 1160.31,-322.66 1126.04,-300 1066.94,-260.93 1032.92,-178.8 1020.04,-141.79"/>
<polygon fill="midnightblue" stroke="midnightblue" points="1023.21,-140.22 1016.72,-131.85 1016.57,-142.44 1023.21,-140.22"/>
</g>
<!-- Node78&#45;&gt;Node35 -->
<g id="edge162" class="edge">
<title>Node78&#45;&gt;Node35</title>
<path fill="none" stroke="midnightblue" d="M1423.76,-336.42C1456.4,-323.62 1520.16,-298.99 1575.04,-280 1610.02,-267.9 1650.27,-255.26 1678.97,-246.47"/>
<polygon fill="midnightblue" stroke="midnightblue" points="1680.07,-249.8 1688.61,-243.53 1678.02,-243.1 1680.07,-249.8"/>
</g>
<!-- Node78&#45;&gt;Node41 -->
<g id="edge166" class="edge">
<title>Node78&#45;&gt;Node41</title>
<path fill="none" stroke="midnightblue" d="M1463.58,-343.34C1609.18,-339.04 1971.51,-325.99 2090.04,-300 2250,-264.93 2277.37,-215.64 2434.04,-168 2499.99,-147.95 2520.49,-149.57 2591.17,-132.1"/>
<polygon fill="midnightblue" stroke="midnightblue" points="2592.16,-135.46 2601.01,-129.63 2590.46,-128.67 2592.16,-135.46"/>
</g>
<!-- Node78&#45;&gt;Node49 -->
<g id="edge161" class="edge">
<title>Node78&#45;&gt;Node49</title>
<path fill="none" stroke="midnightblue" d="M1463.91,-343.29C1676.2,-337.28 2367.48,-316.64 2466.04,-300 2533.29,-288.64 2608.99,-262.66 2650.54,-247.2"/>
<polygon fill="midnightblue" stroke="midnightblue" points="2651.96,-250.41 2660.09,-243.61 2649.5,-243.86 2651.96,-250.41"/>
</g>
<!-- Node78&#45;&gt;Node68 -->
<g id="edge163" class="edge">
<title>Node78&#45;&gt;Node68</title>
<path fill="none" stroke="midnightblue" d="M1438.49,-336.44C1478.44,-327.06 1542.63,-311.99 1586.03,-301.8"/>
<polygon fill="midnightblue" stroke="midnightblue" points="1586.83,-305.21 1595.77,-299.52 1585.23,-298.39 1586.83,-305.21"/>
</g>
<!-- Node81&#45;&gt;Node6 -->
<g id="edge182" class="edge">
<title>Node81&#45;&gt;Node6</title>
<path fill="none" stroke="midnightblue" d="M825.84,-169.81C798.7,-163.75 767.59,-152.58 746.04,-132 717.02,-104.28 706.1,-56.36 702.16,-29.9"/>
<polygon fill="midnightblue" stroke="midnightblue" points="705.59,-29.17 700.82,-19.7 698.65,-30.07 705.59,-29.17"/>
</g>
<!-- Node81&#45;&gt;Node7 -->
<g id="edge178" class="edge">
<title>Node81&#45;&gt;Node7</title>
<path fill="none" stroke="midnightblue" d="M940.18,-170.38C1026.39,-160.39 1189.38,-141.5 1281.39,-130.84"/>
<polygon fill="midnightblue" stroke="midnightblue" points="1281.9,-134.3 1291.43,-129.68 1281.1,-127.35 1281.9,-134.3"/>
</g>
<!-- Node81&#45;&gt;Node23 -->
<g id="edge179" class="edge">
<title>Node81&#45;&gt;Node23</title>
<path fill="none" stroke="midnightblue" d="M940.29,-175.77C1111.26,-171.9 1633.07,-158.59 2065.04,-132 2169.67,-125.56 2195.41,-118.37 2300.04,-112 2771.76,-83.29 3346.68,-70.56 3492.27,-67.66"/>
<polygon fill="midnightblue" stroke="midnightblue" points="3492.46,-71.16 3502.39,-67.46 3492.32,-64.16 3492.46,-71.16"/>
</g>
<!-- Node81&#45;&gt;Node20 -->
<g id="edge181" class="edge">
<title>Node81&#45;&gt;Node20</title>
<path fill="none" stroke="midnightblue" d="M832.03,-168.44C786.03,-158.69 729.52,-140.34 757.04,-112 770.46,-98.19 2009.18,-72.7 2252.74,-67.82"/>
<polygon fill="midnightblue" stroke="midnightblue" points="2253.01,-71.32 2262.94,-67.62 2252.87,-64.32 2253.01,-71.32"/>
</g>
<!-- Node81&#45;&gt;Node63 -->
<g id="edge180" class="edge">
<title>Node81&#45;&gt;Node63</title>
<path fill="none" stroke="midnightblue" d="M825.68,-168.44C754.53,-157.83 634.54,-139.93 568.38,-130.06"/>
<polygon fill="midnightblue" stroke="midnightblue" points="568.65,-126.56 558.24,-128.55 567.61,-133.49 568.65,-126.56"/>
</g>
</g>
</svg>
