<?xml version="1.0" encoding="UTF-8" standalone="no"?>
<!DOCTYPE svg PUBLIC "-//W3C//DTD SVG 1.1//EN"
 "http://www.w3.org/Graphics/SVG/1.1/DTD/svg11.dtd">
<!-- Generated by graphviz version 2.43.0 (0)
 -->
<!-- Title: lib/Support/IntEqClasses.cpp Pages: 1 -->
<svg width="1303pt" height="420pt"
 viewBox="0.00 0.00 1302.50 420.00" xmlns="http://www.w3.org/2000/svg" xmlns:xlink="http://www.w3.org/1999/xlink">
<g id="graph0" class="graph" transform="scale(1 1) rotate(0) translate(4 416)">
<title>lib/Support/IntEqClasses.cpp</title>
<!-- Node0 -->
<g id="node1" class="node">
<title>Node0</title>
<polygon fill="#bfbfbf" stroke="black" points="577.5,-392.5 577.5,-411.5 721.5,-411.5 721.5,-392.5 577.5,-392.5"/>
<text text-anchor="middle" x="649.5" y="-399.5" font-family="Helvetica,sans-Serif" font-size="10.00">lib/Support/IntEqClasses.cpp</text>
</g>
<!-- Node1 -->
<g id="node2" class="node">
<title>Node1</title>
<g id="a_node2"><a xlink:href="IntEqClasses_8h.html" target="_top" xlink:title="llvm/ADT/IntEqClasses.h">
<polygon fill="none" stroke="black" points="585.5,-336.5 585.5,-355.5 713.5,-355.5 713.5,-336.5 585.5,-336.5"/>
<text text-anchor="middle" x="649.5" y="-343.5" font-family="Helvetica,sans-Serif" font-size="10.00">llvm/ADT/IntEqClasses.h</text>
</a>
</g>
</g>
<!-- Node0&#45;&gt;Node1 -->
<g id="edge1" class="edge">
<title>Node0&#45;&gt;Node1</title>
<path fill="none" stroke="midnightblue" d="M649.5,-392.08C649.5,-385.01 649.5,-374.86 649.5,-365.99"/>
<polygon fill="midnightblue" stroke="midnightblue" points="653,-365.75 649.5,-355.75 646,-365.75 653,-365.75"/>
</g>
<!-- Node2 -->
<g id="node3" class="node">
<title>Node2</title>
<g id="a_node3"><a xlink:href="SmallVector_8h.html" target="_top" xlink:title="llvm/ADT/SmallVector.h">
<polygon fill="none" stroke="black" points="588.5,-280.5 588.5,-299.5 710.5,-299.5 710.5,-280.5 588.5,-280.5"/>
<text text-anchor="middle" x="649.5" y="-287.5" font-family="Helvetica,sans-Serif" font-size="10.00">llvm/ADT/SmallVector.h</text>
</a>
</g>
</g>
<!-- Node1&#45;&gt;Node2 -->
<g id="edge2" class="edge">
<title>Node1&#45;&gt;Node2</title>
<path fill="none" stroke="midnightblue" d="M649.5,-336.08C649.5,-329.01 649.5,-318.86 649.5,-309.99"/>
<polygon fill="midnightblue" stroke="midnightblue" points="653,-309.75 649.5,-299.75 646,-309.75 653,-309.75"/>
</g>
<!-- Node3 -->
<g id="node4" class="node">
<title>Node3</title>
<g id="a_node4"><a xlink:href="iterator__range_8h.html" target="_top" xlink:title="This provides a very simple, boring adaptor for a begin and end iterator into a range type...">
<polygon fill="none" stroke="black" points="21.5,-224.5 21.5,-243.5 149.5,-243.5 149.5,-224.5 21.5,-224.5"/>
<text text-anchor="middle" x="85.5" y="-231.5" font-family="Helvetica,sans-Serif" font-size="10.00">llvm/ADT/iterator_range.h</text>
</a>
</g>
</g>
<!-- Node2&#45;&gt;Node3 -->
<g id="edge3" class="edge">
<title>Node2&#45;&gt;Node3</title>
<path fill="none" stroke="midnightblue" d="M588.46,-283.79C496.33,-275.83 316.26,-259.88 163.5,-244 162.38,-243.88 161.25,-243.77 160.12,-243.65"/>
<polygon fill="midnightblue" stroke="midnightblue" points="160.08,-240.12 149.76,-242.53 159.33,-247.08 160.08,-240.12"/>
</g>
<!-- Node4 -->
<g id="node5" class="node">
<title>Node4</title>
<polygon fill="none" stroke="#bfbfbf" points="0,-168.5 0,-187.5 47,-187.5 47,-168.5 0,-168.5"/>
<text text-anchor="middle" x="23.5" y="-175.5" font-family="Helvetica,sans-Serif" font-size="10.00">iterator</text>
</g>
<!-- Node2&#45;&gt;Node4 -->
<g id="edge48" class="edge">
<title>Node2&#45;&gt;Node4</title>
<path fill="none" stroke="midnightblue" d="M588.34,-289.3C436.41,-289.42 51.24,-285.57 12.5,-244 0.84,-231.48 6.55,-211.42 13.32,-196.89"/>
<polygon fill="midnightblue" stroke="midnightblue" points="16.49,-198.37 17.97,-187.88 10.27,-195.15 16.49,-198.37"/>
</g>
<!-- Node5 -->
<g id="node6" class="node">
<title>Node5</title>
<polygon fill="none" stroke="#bfbfbf" points="95.5,-168.5 95.5,-187.5 135.5,-187.5 135.5,-168.5 95.5,-168.5"/>
<text text-anchor="middle" x="115.5" y="-175.5" font-family="Helvetica,sans-Serif" font-size="10.00">utility</text>
</g>
<!-- Node2&#45;&gt;Node5 -->
<g id="edge52" class="edge">
<title>Node2&#45;&gt;Node5</title>
<path fill="none" stroke="midnightblue" d="M588.14,-287.21C481.31,-283.39 265.92,-272.34 196.5,-244 169.78,-233.09 144.8,-210.4 129.83,-194.94"/>
<polygon fill="midnightblue" stroke="midnightblue" points="132.36,-192.51 122.97,-187.61 127.25,-197.3 132.36,-192.51"/>
</g>
<!-- Node6 -->
<g id="node7" class="node">
<title>Node6</title>
<g id="a_node7"><a xlink:href="AlignOf_8h.html" target="_top" xlink:title="llvm/Support/AlignOf.h">
<polygon fill="none" stroke="black" points="529,-168.5 529,-187.5 644,-187.5 644,-168.5 529,-168.5"/>
<text text-anchor="middle" x="586.5" y="-175.5" font-family="Helvetica,sans-Serif" font-size="10.00">llvm/Support/AlignOf.h</text>
</a>
</g>
</g>
<!-- Node2&#45;&gt;Node6 -->
<g id="edge6" class="edge">
<title>Node2&#45;&gt;Node6</title>
<path fill="none" stroke="midnightblue" d="M644.56,-280.37C634.21,-262.3 610.08,-220.18 596.41,-196.31"/>
<polygon fill="midnightblue" stroke="midnightblue" points="599.43,-194.53 591.42,-187.59 593.35,-198.01 599.43,-194.53"/>
</g>
<!-- Node7 -->
<g id="node8" class="node">
<title>Node7</title>
<g id="a_node8"><a xlink:href="Compiler_8h.html" target="_top" xlink:title="llvm/Support/Compiler.h">
<polygon fill="none" stroke="black" points="376.5,-112.5 376.5,-131.5 498.5,-131.5 498.5,-112.5 376.5,-112.5"/>
<text text-anchor="middle" x="437.5" y="-119.5" font-family="Helvetica,sans-Serif" font-size="10.00">llvm/Support/Compiler.h</text>
</a>
</g>
</g>
<!-- Node2&#45;&gt;Node7 -->
<g id="edge11" class="edge">
<title>Node2&#45;&gt;Node7</title>
<path fill="none" stroke="midnightblue" d="M588.3,-285.65C527.27,-280.88 439.64,-269.66 418.5,-244 394.15,-214.45 413.46,-166.59 427.06,-140.81"/>
<polygon fill="midnightblue" stroke="midnightblue" points="430.26,-142.25 432.05,-131.81 424.14,-138.85 430.26,-142.25"/>
</g>
<!-- Node10 -->
<g id="node11" class="node">
<title>Node10</title>
<polygon fill="none" stroke="#bfbfbf" points="648,-112.5 648,-131.5 697,-131.5 697,-112.5 648,-112.5"/>
<text text-anchor="middle" x="672.5" y="-119.5" font-family="Helvetica,sans-Serif" font-size="10.00">cstddef</text>
</g>
<!-- Node2&#45;&gt;Node10 -->
<g id="edge44" class="edge">
<title>Node2&#45;&gt;Node10</title>
<path fill="none" stroke="midnightblue" d="M650.74,-280.08C654.36,-253.95 664.99,-177.21 669.93,-141.58"/>
<polygon fill="midnightblue" stroke="midnightblue" points="673.41,-141.95 671.31,-131.57 666.47,-140.99 673.41,-141.95"/>
</g>
<!-- Node11 -->
<g id="node12" class="node">
<title>Node11</title>
<g id="a_node12"><a xlink:href="MathExtras_8h.html" target="_top" xlink:title="llvm/Support/MathExtras.h">
<polygon fill="none" stroke="black" points="790,-224.5 790,-243.5 923,-243.5 923,-224.5 790,-224.5"/>
<text text-anchor="middle" x="856.5" y="-231.5" font-family="Helvetica,sans-Serif" font-size="10.00">llvm/Support/MathExtras.h</text>
</a>
</g>
</g>
<!-- Node2&#45;&gt;Node11 -->
<g id="edge12" class="edge">
<title>Node2&#45;&gt;Node11</title>
<path fill="none" stroke="midnightblue" d="M682.3,-280.44C717.88,-271.16 774.81,-256.31 813.85,-246.13"/>
<polygon fill="midnightblue" stroke="midnightblue" points="815.06,-249.43 823.85,-243.52 813.29,-242.65 815.06,-249.43"/>
</g>
<!-- Node19 -->
<g id="node20" class="node">
<title>Node19</title>
<polygon fill="none" stroke="#bfbfbf" points="766.5,-112.5 766.5,-131.5 828.5,-131.5 828.5,-112.5 766.5,-112.5"/>
<text text-anchor="middle" x="797.5" y="-119.5" font-family="Helvetica,sans-Serif" font-size="10.00">type_traits</text>
</g>
<!-- Node2&#45;&gt;Node19 -->
<g id="edge51" class="edge">
<title>Node2&#45;&gt;Node19</title>
<path fill="none" stroke="midnightblue" d="M653.72,-280.24C664.23,-259.06 693.36,-204.16 729.5,-168 741.94,-155.55 758.33,-144.58 771.91,-136.59"/>
<polygon fill="midnightblue" stroke="midnightblue" points="773.81,-139.54 780.77,-131.55 770.35,-133.45 773.81,-139.54"/>
</g>
<!-- Node21 -->
<g id="node22" class="node">
<title>Node21</title>
<polygon fill="none" stroke="#bfbfbf" points="738.5,-168.5 738.5,-187.5 794.5,-187.5 794.5,-168.5 738.5,-168.5"/>
<text text-anchor="middle" x="766.5" y="-175.5" font-family="Helvetica,sans-Serif" font-size="10.00">algorithm</text>
</g>
<!-- Node2&#45;&gt;Node21 -->
<g id="edge42" class="edge">
<title>Node2&#45;&gt;Node21</title>
<path fill="none" stroke="midnightblue" d="M669.01,-280.39C685.19,-272.56 708.13,-259.84 724.5,-244 738.64,-230.32 750.35,-211.02 757.78,-197.01"/>
<polygon fill="midnightblue" stroke="midnightblue" points="761,-198.39 762.41,-187.89 754.76,-195.22 761,-198.39"/>
</g>
<!-- Node22 -->
<g id="node23" class="node">
<title>Node22</title>
<polygon fill="none" stroke="#bfbfbf" points="1181,-168.5 1181,-187.5 1230,-187.5 1230,-168.5 1181,-168.5"/>
<text text-anchor="middle" x="1205.5" y="-175.5" font-family="Helvetica,sans-Serif" font-size="10.00">cassert</text>
</g>
<!-- Node2&#45;&gt;Node22 -->
<g id="edge43" class="edge">
<title>Node2&#45;&gt;Node22</title>
<path fill="none" stroke="midnightblue" d="M710.78,-284.2C768.86,-278.5 858.04,-266.75 932.5,-244 952.66,-237.84 955.42,-230.4 975.5,-224 1056.92,-198.05 1083.23,-206.67 1170.84,-187.97"/>
<polygon fill="midnightblue" stroke="midnightblue" points="1171.65,-191.37 1180.67,-185.81 1170.15,-184.53 1171.65,-191.37"/>
</g>
<!-- Node24 -->
<g id="node25" class="node">
<title>Node24</title>
<polygon fill="none" stroke="#bfbfbf" points="1248.5,-168.5 1248.5,-187.5 1294.5,-187.5 1294.5,-168.5 1248.5,-168.5"/>
<text text-anchor="middle" x="1271.5" y="-175.5" font-family="Helvetica,sans-Serif" font-size="10.00">cstring</text>
</g>
<!-- Node2&#45;&gt;Node24 -->
<g id="edge46" class="edge">
<title>Node2&#45;&gt;Node24</title>
<path fill="none" stroke="midnightblue" d="M710.75,-285.85C775.67,-281.25 880.61,-270.17 967.5,-244 987.3,-238.04 989.75,-230.11 1009.5,-224 1105.26,-194.39 1136.46,-209.05 1238.1,-188.06"/>
<polygon fill="midnightblue" stroke="midnightblue" points="1239.11,-191.42 1248.16,-185.91 1237.65,-184.57 1239.11,-191.42"/>
</g>
<!-- Node26 -->
<g id="node27" class="node">
<title>Node26</title>
<g id="a_node27"><a xlink:href="MemAlloc_8h.html" target="_top" xlink:title="This file defines counterparts of C library allocation functions defined in the namespace &#39;std&#39;...">
<polygon fill="none" stroke="black" points="427.5,-224.5 427.5,-243.5 553.5,-243.5 553.5,-224.5 427.5,-224.5"/>
<text text-anchor="middle" x="490.5" y="-231.5" font-family="Helvetica,sans-Serif" font-size="10.00">llvm/Support/MemAlloc.h</text>
</a>
</g>
</g>
<!-- Node2&#45;&gt;Node26 -->
<g id="edge31" class="edge">
<title>Node2&#45;&gt;Node26</title>
<path fill="none" stroke="midnightblue" d="M624.31,-280.44C597.56,-271.36 555.1,-256.94 525.19,-246.78"/>
<polygon fill="midnightblue" stroke="midnightblue" points="526.17,-243.42 515.58,-243.52 523.92,-250.05 526.17,-243.42"/>
</g>
<!-- Node27 -->
<g id="node28" class="node">
<title>Node27</title>
<g id="a_node28"><a xlink:href="Support_2ErrorHandling_8h.html" target="_top" xlink:title="llvm/Support/ErrorHandling.h">
<polygon fill="none" stroke="black" points="191.5,-168.5 191.5,-187.5 333.5,-187.5 333.5,-168.5 191.5,-168.5"/>
<text text-anchor="middle" x="262.5" y="-175.5" font-family="Helvetica,sans-Serif" font-size="10.00">llvm/Support/ErrorHandling.h</text>
</a>
</g>
</g>
<!-- Node2&#45;&gt;Node27 -->
<g id="edge41" class="edge">
<title>Node2&#45;&gt;Node27</title>
<path fill="none" stroke="midnightblue" d="M588.39,-284.12C534,-278.49 452.86,-266.88 385.5,-244 365.59,-237.23 315.84,-209.59 286.07,-192.61"/>
<polygon fill="midnightblue" stroke="midnightblue" points="287.59,-189.44 277.17,-187.51 284.11,-195.52 287.59,-189.44"/>
</g>
<!-- Node29 -->
<g id="node30" class="node">
<title>Node29</title>
<polygon fill="none" stroke="#bfbfbf" points="466,-168.5 466,-187.5 511,-187.5 511,-168.5 466,-168.5"/>
<text text-anchor="middle" x="488.5" y="-175.5" font-family="Helvetica,sans-Serif" font-size="10.00">cstdlib</text>
</g>
<!-- Node2&#45;&gt;Node29 -->
<g id="edge45" class="edge">
<title>Node2&#45;&gt;Node29</title>
<path fill="none" stroke="midnightblue" d="M638.76,-280.45C622.56,-267.68 590.78,-243.1 562.5,-224 546.15,-212.95 527.11,-201.41 512.44,-192.77"/>
<polygon fill="midnightblue" stroke="midnightblue" points="513.9,-189.58 503.5,-187.56 510.38,-195.62 513.9,-189.58"/>
</g>
<!-- Node30 -->
<g id="node31" class="node">
<title>Node30</title>
<g id="a_node31"><a xlink:href="type__traits_8h.html" target="_top" xlink:title="llvm/Support/type_traits.h">
<polygon fill="none" stroke="black" points="205.5,-224.5 205.5,-243.5 333.5,-243.5 333.5,-224.5 205.5,-224.5"/>
<text text-anchor="middle" x="269.5" y="-231.5" font-family="Helvetica,sans-Serif" font-size="10.00">llvm/Support/type_traits.h</text>
</a>
</g>
</g>
<!-- Node2&#45;&gt;Node30 -->
<g id="edge37" class="edge">
<title>Node2&#45;&gt;Node30</title>
<path fill="none" stroke="midnightblue" d="M589.29,-280.44C521.47,-270.81 411.39,-255.16 339.72,-244.98"/>
<polygon fill="midnightblue" stroke="midnightblue" points="339.82,-241.46 329.43,-243.52 338.84,-248.39 339.82,-241.46"/>
</g>
<!-- Node31 -->
<g id="node32" class="node">
<title>Node31</title>
<polygon fill="none" stroke="#bfbfbf" points="1018,-224.5 1018,-243.5 1091,-243.5 1091,-224.5 1018,-224.5"/>
<text text-anchor="middle" x="1054.5" y="-231.5" font-family="Helvetica,sans-Serif" font-size="10.00">initializer_list</text>
</g>
<!-- Node2&#45;&gt;Node31 -->
<g id="edge47" class="edge">
<title>Node2&#45;&gt;Node31</title>
<path fill="none" stroke="midnightblue" d="M710.7,-282.13C781.37,-273.98 901.06,-259.54 1003.5,-244 1004.94,-243.78 1006.41,-243.55 1007.89,-243.32"/>
<polygon fill="midnightblue" stroke="midnightblue" points="1008.46,-246.77 1017.76,-241.7 1007.33,-239.86 1008.46,-246.77"/>
</g>
<!-- Node32 -->
<g id="node33" class="node">
<title>Node32</title>
<polygon fill="none" stroke="#bfbfbf" points="1109.5,-224.5 1109.5,-243.5 1161.5,-243.5 1161.5,-224.5 1109.5,-224.5"/>
<text text-anchor="middle" x="1135.5" y="-231.5" font-family="Helvetica,sans-Serif" font-size="10.00">memory</text>
</g>
<!-- Node2&#45;&gt;Node32 -->
<g id="edge49" class="edge">
<title>Node2&#45;&gt;Node32</title>
<path fill="none" stroke="midnightblue" d="M710.82,-285.85C796,-280.81 955.05,-269.04 1099.3,-243.96"/>
<polygon fill="midnightblue" stroke="midnightblue" points="1099.98,-247.4 1109.22,-242.22 1098.76,-240.51 1099.98,-247.4"/>
</g>
<!-- Node33 -->
<g id="node34" class="node">
<title>Node33</title>
<polygon fill="none" stroke="#bfbfbf" points="1180,-224.5 1180,-243.5 1215,-243.5 1215,-224.5 1180,-224.5"/>
<text text-anchor="middle" x="1197.5" y="-231.5" font-family="Helvetica,sans-Serif" font-size="10.00">new</text>
</g>
<!-- Node2&#45;&gt;Node33 -->
<g id="edge50" class="edge">
<title>Node2&#45;&gt;Node33</title>
<path fill="none" stroke="midnightblue" d="M710.73,-288.36C806.93,-286.34 999.19,-278.2 1170.02,-243.56"/>
<polygon fill="midnightblue" stroke="midnightblue" points="1170.86,-246.96 1179.94,-241.51 1169.44,-240.11 1170.86,-246.96"/>
</g>
<!-- Node3&#45;&gt;Node4 -->
<g id="edge4" class="edge">
<title>Node3&#45;&gt;Node4</title>
<path fill="none" stroke="midnightblue" d="M75.54,-224.32C66.37,-216.34 52.56,-204.31 41.47,-194.65"/>
<polygon fill="midnightblue" stroke="midnightblue" points="43.48,-191.76 33.64,-187.83 38.88,-197.04 43.48,-191.76"/>
</g>
<!-- Node3&#45;&gt;Node5 -->
<g id="edge5" class="edge">
<title>Node3&#45;&gt;Node5</title>
<path fill="none" stroke="midnightblue" d="M90.45,-224.08C94.6,-216.61 100.65,-205.72 105.77,-196.52"/>
<polygon fill="midnightblue" stroke="midnightblue" points="108.84,-198.19 110.64,-187.75 102.72,-194.79 108.84,-198.19"/>
</g>
<!-- Node6&#45;&gt;Node7 -->
<g id="edge7" class="edge">
<title>Node6&#45;&gt;Node7</title>
<path fill="none" stroke="midnightblue" d="M562.89,-168.44C538.04,-159.44 498.73,-145.19 470.75,-135.05"/>
<polygon fill="midnightblue" stroke="midnightblue" points="471.59,-131.63 461,-131.52 469.21,-138.21 471.59,-131.63"/>
</g>
<!-- Node6&#45;&gt;Node10 -->
<g id="edge10" class="edge">
<title>Node6&#45;&gt;Node10</title>
<path fill="none" stroke="midnightblue" d="M600.32,-168.32C613.73,-159.9 634.32,-146.97 650.09,-137.07"/>
<polygon fill="midnightblue" stroke="midnightblue" points="652.11,-139.94 658.72,-131.65 648.39,-134.01 652.11,-139.94"/>
</g>
<!-- Node8 -->
<g id="node9" class="node">
<title>Node8</title>
<polygon fill="none" stroke="#bfbfbf" points="428,-56.5 428,-75.5 553,-75.5 553,-56.5 428,-56.5"/>
<text text-anchor="middle" x="490.5" y="-63.5" font-family="Helvetica,sans-Serif" font-size="10.00">llvm/Config/llvm&#45;config.h</text>
</g>
<!-- Node7&#45;&gt;Node8 -->
<g id="edge8" class="edge">
<title>Node7&#45;&gt;Node8</title>
<path fill="none" stroke="midnightblue" d="M446.25,-112.08C453.97,-104.22 465.4,-92.57 474.72,-83.08"/>
<polygon fill="midnightblue" stroke="midnightblue" points="477.4,-85.34 481.91,-75.75 472.41,-80.44 477.4,-85.34"/>
</g>
<!-- Node9 -->
<g id="node10" class="node">
<title>Node9</title>
<polygon fill="none" stroke="#bfbfbf" points="357.5,-56.5 357.5,-75.5 409.5,-75.5 409.5,-56.5 357.5,-56.5"/>
<text text-anchor="middle" x="383.5" y="-63.5" font-family="Helvetica,sans-Serif" font-size="10.00">stddef.h</text>
</g>
<!-- Node7&#45;&gt;Node9 -->
<g id="edge9" class="edge">
<title>Node7&#45;&gt;Node9</title>
<path fill="none" stroke="midnightblue" d="M428.58,-112.08C420.72,-104.22 409.07,-92.57 399.58,-83.08"/>
<polygon fill="midnightblue" stroke="midnightblue" points="401.8,-80.35 392.25,-75.75 396.85,-85.3 401.8,-80.35"/>
</g>
<!-- Node11&#45;&gt;Node7 -->
<g id="edge13" class="edge">
<title>Node11&#45;&gt;Node7</title>
<path fill="none" stroke="midnightblue" d="M852.34,-224.48C844.81,-210.08 827.46,-181.23 803.5,-168 754.34,-140.86 600.69,-129.78 508.84,-125.5"/>
<polygon fill="midnightblue" stroke="midnightblue" points="508.93,-122 498.78,-125.05 508.61,-128.99 508.93,-122"/>
</g>
<!-- Node12 -->
<g id="node13" class="node">
<title>Node12</title>
<g id="a_node13"><a xlink:href="SwapByteOrder_8h.html" target="_top" xlink:title="llvm/Support/SwapByteOrder.h">
<polygon fill="none" stroke="black" points="888.5,-168.5 888.5,-187.5 1040.5,-187.5 1040.5,-168.5 888.5,-168.5"/>
<text text-anchor="middle" x="964.5" y="-175.5" font-family="Helvetica,sans-Serif" font-size="10.00">llvm/Support/SwapByteOrder.h</text>
</a>
</g>
</g>
<!-- Node11&#45;&gt;Node12 -->
<g id="edge14" class="edge">
<title>Node11&#45;&gt;Node12</title>
<path fill="none" stroke="midnightblue" d="M873.85,-224.32C891.17,-215.66 918.02,-202.24 938,-192.25"/>
<polygon fill="midnightblue" stroke="midnightblue" points="939.81,-195.26 947.19,-187.65 936.68,-189 939.81,-195.26"/>
</g>
<!-- Node11&#45;&gt;Node19 -->
<g id="edge30" class="edge">
<title>Node11&#45;&gt;Node19</title>
<path fill="none" stroke="midnightblue" d="M854.98,-224.13C852.51,-211.17 846.81,-186.59 836.5,-168 830.63,-157.42 821.98,-147.11 814.32,-139.04"/>
<polygon fill="midnightblue" stroke="midnightblue" points="816.65,-136.42 807.12,-131.78 811.68,-141.34 816.65,-136.42"/>
</g>
<!-- Node11&#45;&gt;Node21 -->
<g id="edge25" class="edge">
<title>Node11&#45;&gt;Node21</title>
<path fill="none" stroke="midnightblue" d="M842.04,-224.32C828,-215.9 806.45,-202.97 789.96,-193.07"/>
<polygon fill="midnightblue" stroke="midnightblue" points="791.3,-189.8 780.92,-187.65 787.7,-195.8 791.3,-189.8"/>
</g>
<!-- Node11&#45;&gt;Node22 -->
<g id="edge26" class="edge">
<title>Node11&#45;&gt;Node22</title>
<path fill="none" stroke="midnightblue" d="M922.65,-224.48C996.17,-214.85 1111.3,-199.28 1170.63,-187.92"/>
<polygon fill="midnightblue" stroke="midnightblue" points="1171.57,-191.3 1180.7,-185.92 1170.21,-184.44 1171.57,-191.3"/>
</g>
<!-- Node23 -->
<g id="node24" class="node">
<title>Node23</title>
<polygon fill="none" stroke="#bfbfbf" points="1059,-168.5 1059,-187.5 1104,-187.5 1104,-168.5 1059,-168.5"/>
<text text-anchor="middle" x="1081.5" y="-175.5" font-family="Helvetica,sans-Serif" font-size="10.00">climits</text>
</g>
<!-- Node11&#45;&gt;Node23 -->
<g id="edge27" class="edge">
<title>Node11&#45;&gt;Node23</title>
<path fill="none" stroke="midnightblue" d="M895.44,-224.46C932.45,-216.23 989.89,-203.14 1048.94,-188.05"/>
<polygon fill="midnightblue" stroke="midnightblue" points="1049.99,-191.4 1058.81,-185.52 1048.25,-184.62 1049.99,-191.4"/>
</g>
<!-- Node11&#45;&gt;Node24 -->
<g id="edge28" class="edge">
<title>Node11&#45;&gt;Node24</title>
<path fill="none" stroke="midnightblue" d="M923.07,-228.37C997.69,-222.47 1122.35,-210.46 1238.09,-188.01"/>
<polygon fill="midnightblue" stroke="midnightblue" points="1239.05,-191.38 1248.18,-186.01 1237.7,-184.52 1239.05,-191.38"/>
</g>
<!-- Node25 -->
<g id="node26" class="node">
<title>Node25</title>
<polygon fill="none" stroke="#bfbfbf" points="1122.5,-168.5 1122.5,-187.5 1162.5,-187.5 1162.5,-168.5 1122.5,-168.5"/>
<text text-anchor="middle" x="1142.5" y="-175.5" font-family="Helvetica,sans-Serif" font-size="10.00">limits</text>
</g>
<!-- Node11&#45;&gt;Node25 -->
<g id="edge29" class="edge">
<title>Node11&#45;&gt;Node25</title>
<path fill="none" stroke="midnightblue" d="M917.97,-224.49C967.97,-217.06 1040.48,-205.12 1112.2,-188.07"/>
<polygon fill="midnightblue" stroke="midnightblue" points="1113.41,-191.37 1122.31,-185.63 1111.77,-184.57 1113.41,-191.37"/>
</g>
<!-- Node12&#45;&gt;Node7 -->
<g id="edge15" class="edge">
<title>Node12&#45;&gt;Node7</title>
<path fill="none" stroke="midnightblue" d="M888.43,-169.21C786.85,-158.8 608.2,-140.49 508.99,-130.33"/>
<polygon fill="midnightblue" stroke="midnightblue" points="509.07,-126.82 498.76,-129.28 508.35,-133.78 509.07,-126.82"/>
</g>
<!-- Node12&#45;&gt;Node10 -->
<g id="edge22" class="edge">
<title>Node12&#45;&gt;Node10</title>
<path fill="none" stroke="midnightblue" d="M918.23,-168.44C859.56,-157.59 759.72,-139.13 707.18,-129.41"/>
<polygon fill="midnightblue" stroke="midnightblue" points="707.49,-125.91 697.02,-127.54 706.22,-132.8 707.49,-125.91"/>
</g>
<!-- Node13 -->
<g id="node14" class="node">
<title>Node13</title>
<g id="a_node14"><a xlink:href="Support_2DataTypes_8h.html" target="_top" xlink:title="llvm/Support/DataTypes.h">
<polygon fill="none" stroke="black" points="873,-112.5 873,-131.5 1004,-131.5 1004,-112.5 873,-112.5"/>
<text text-anchor="middle" x="938.5" y="-119.5" font-family="Helvetica,sans-Serif" font-size="10.00">llvm/Support/DataTypes.h</text>
</a>
</g>
</g>
<!-- Node12&#45;&gt;Node13 -->
<g id="edge16" class="edge">
<title>Node12&#45;&gt;Node13</title>
<path fill="none" stroke="midnightblue" d="M960.21,-168.08C956.65,-160.69 951.48,-149.95 947.08,-140.81"/>
<polygon fill="midnightblue" stroke="midnightblue" points="950.21,-139.24 942.71,-131.75 943.9,-142.28 950.21,-139.24"/>
</g>
<!-- Node12&#45;&gt;Node19 -->
<g id="edge23" class="edge">
<title>Node12&#45;&gt;Node19</title>
<path fill="none" stroke="midnightblue" d="M938.04,-168.44C909.82,-159.32 864.96,-144.81 833.53,-134.65"/>
<polygon fill="midnightblue" stroke="midnightblue" points="834.43,-131.26 823.84,-131.52 832.28,-137.92 834.43,-131.26"/>
</g>
<!-- Node20 -->
<g id="node21" class="node">
<title>Node20</title>
<polygon fill="none" stroke="#bfbfbf" points="1022,-112.5 1022,-131.5 1115,-131.5 1115,-112.5 1022,-112.5"/>
<text text-anchor="middle" x="1068.5" y="-119.5" font-family="Helvetica,sans-Serif" font-size="10.00">machine/endian.h</text>
</g>
<!-- Node12&#45;&gt;Node20 -->
<g id="edge24" class="edge">
<title>Node12&#45;&gt;Node20</title>
<path fill="none" stroke="midnightblue" d="M981.21,-168.32C997.81,-159.7 1023.5,-146.36 1042.72,-136.39"/>
<polygon fill="midnightblue" stroke="midnightblue" points="1044.57,-139.37 1051.83,-131.65 1041.34,-133.16 1044.57,-139.37"/>
</g>
<!-- Node14 -->
<g id="node15" class="node">
<title>Node14</title>
<g id="a_node15"><a xlink:href="c_2DataTypes_8h.html" target="_top" xlink:title="llvm&#45;c/DataTypes.h">
<polygon fill="none" stroke="black" points="887.5,-56.5 887.5,-75.5 989.5,-75.5 989.5,-56.5 887.5,-56.5"/>
<text text-anchor="middle" x="938.5" y="-63.5" font-family="Helvetica,sans-Serif" font-size="10.00">llvm&#45;c/DataTypes.h</text>
</a>
</g>
</g>
<!-- Node13&#45;&gt;Node14 -->
<g id="edge17" class="edge">
<title>Node13&#45;&gt;Node14</title>
<path fill="none" stroke="midnightblue" d="M938.5,-112.08C938.5,-105.01 938.5,-94.86 938.5,-85.99"/>
<polygon fill="midnightblue" stroke="midnightblue" points="942,-85.75 938.5,-75.75 935,-85.75 942,-85.75"/>
</g>
<!-- Node15 -->
<g id="node16" class="node">
<title>Node15</title>
<polygon fill="none" stroke="#bfbfbf" points="808,-0.5 808,-19.5 855,-19.5 855,-0.5 808,-0.5"/>
<text text-anchor="middle" x="831.5" y="-7.5" font-family="Helvetica,sans-Serif" font-size="10.00">math.h</text>
</g>
<!-- Node14&#45;&gt;Node15 -->
<g id="edge18" class="edge">
<title>Node14&#45;&gt;Node15</title>
<path fill="none" stroke="midnightblue" d="M921.31,-56.32C904.15,-47.66 877.55,-34.24 857.75,-24.25"/>
<polygon fill="midnightblue" stroke="midnightblue" points="859.15,-21.04 848.65,-19.65 856,-27.28 859.15,-21.04"/>
</g>
<!-- Node16 -->
<g id="node17" class="node">
<title>Node16</title>
<polygon fill="none" stroke="#bfbfbf" points="873,-0.5 873,-19.5 932,-19.5 932,-0.5 873,-0.5"/>
<text text-anchor="middle" x="902.5" y="-7.5" font-family="Helvetica,sans-Serif" font-size="10.00">inttypes.h</text>
</g>
<!-- Node14&#45;&gt;Node16 -->
<g id="edge19" class="edge">
<title>Node14&#45;&gt;Node16</title>
<path fill="none" stroke="midnightblue" d="M932.56,-56.08C927.52,-48.53 920.16,-37.49 913.99,-28.23"/>
<polygon fill="midnightblue" stroke="midnightblue" points="916.79,-26.13 908.33,-19.75 910.97,-30.01 916.79,-26.13"/>
</g>
<!-- Node17 -->
<g id="node18" class="node">
<title>Node17</title>
<polygon fill="none" stroke="#bfbfbf" points="950,-0.5 950,-19.5 999,-19.5 999,-0.5 950,-0.5"/>
<text text-anchor="middle" x="974.5" y="-7.5" font-family="Helvetica,sans-Serif" font-size="10.00">stdint.h</text>
</g>
<!-- Node14&#45;&gt;Node17 -->
<g id="edge20" class="edge">
<title>Node14&#45;&gt;Node17</title>
<path fill="none" stroke="midnightblue" d="M944.44,-56.08C949.48,-48.53 956.84,-37.49 963.01,-28.23"/>
<polygon fill="midnightblue" stroke="midnightblue" points="966.03,-30.01 968.67,-19.75 960.21,-26.13 966.03,-30.01"/>
</g>
<!-- Node18 -->
<g id="node19" class="node">
<title>Node18</title>
<polygon fill="none" stroke="#bfbfbf" points="1017.5,-0.5 1017.5,-19.5 1085.5,-19.5 1085.5,-0.5 1017.5,-0.5"/>
<text text-anchor="middle" x="1051.5" y="-7.5" font-family="Helvetica,sans-Serif" font-size="10.00">sys/types.h</text>
</g>
<!-- Node14&#45;&gt;Node18 -->
<g id="edge21" class="edge">
<title>Node14&#45;&gt;Node18</title>
<path fill="none" stroke="midnightblue" d="M956.41,-56.44C974.75,-47.68 1003.51,-33.94 1024.59,-23.86"/>
<polygon fill="midnightblue" stroke="midnightblue" points="1026.17,-26.99 1033.68,-19.52 1023.15,-20.67 1026.17,-26.99"/>
</g>
<!-- Node26&#45;&gt;Node7 -->
<g id="edge32" class="edge">
<title>Node26&#45;&gt;Node7</title>
<path fill="none" stroke="midnightblue" d="M482.72,-224.28C475.33,-215.61 464.37,-201.68 457.5,-188 450.05,-173.16 444.75,-155.01 441.48,-141.67"/>
<polygon fill="midnightblue" stroke="midnightblue" points="444.86,-140.73 439.22,-131.76 438.04,-142.29 444.86,-140.73"/>
</g>
<!-- Node26&#45;&gt;Node27 -->
<g id="edge33" class="edge">
<title>Node26&#45;&gt;Node27</title>
<path fill="none" stroke="midnightblue" d="M454.37,-224.44C414.85,-215.08 351.4,-200.06 308.39,-189.87"/>
<polygon fill="midnightblue" stroke="midnightblue" points="309,-186.42 298.46,-187.52 307.38,-193.23 309,-186.42"/>
</g>
<!-- Node26&#45;&gt;Node29 -->
<g id="edge36" class="edge">
<title>Node26&#45;&gt;Node29</title>
<path fill="none" stroke="midnightblue" d="M490.17,-224.08C489.91,-217.01 489.53,-206.86 489.2,-197.99"/>
<polygon fill="midnightblue" stroke="midnightblue" points="492.69,-197.61 488.82,-187.75 485.7,-197.87 492.69,-197.61"/>
</g>
<!-- Node27&#45;&gt;Node7 -->
<g id="edge34" class="edge">
<title>Node27&#45;&gt;Node7</title>
<path fill="none" stroke="midnightblue" d="M290.23,-168.44C319.93,-159.28 367.22,-144.69 400.17,-134.52"/>
<polygon fill="midnightblue" stroke="midnightblue" points="401.38,-137.81 409.9,-131.52 399.31,-131.12 401.38,-137.81"/>
</g>
<!-- Node28 -->
<g id="node29" class="node">
<title>Node28</title>
<polygon fill="none" stroke="#bfbfbf" points="242,-112.5 242,-131.5 283,-131.5 283,-112.5 242,-112.5"/>
<text text-anchor="middle" x="262.5" y="-119.5" font-family="Helvetica,sans-Serif" font-size="10.00">string</text>
</g>
<!-- Node27&#45;&gt;Node28 -->
<g id="edge35" class="edge">
<title>Node27&#45;&gt;Node28</title>
<path fill="none" stroke="midnightblue" d="M262.5,-168.08C262.5,-161.01 262.5,-150.86 262.5,-141.99"/>
<polygon fill="midnightblue" stroke="midnightblue" points="266,-141.75 262.5,-131.75 259,-141.75 266,-141.75"/>
</g>
<!-- Node30&#45;&gt;Node5 -->
<g id="edge40" class="edge">
<title>Node30&#45;&gt;Node5</title>
<path fill="none" stroke="midnightblue" d="M245.1,-224.44C218.09,-214.97 174.54,-199.7 145.48,-189.51"/>
<polygon fill="midnightblue" stroke="midnightblue" points="146.45,-186.14 135.85,-186.14 144.13,-192.75 146.45,-186.14"/>
</g>
<!-- Node30&#45;&gt;Node7 -->
<g id="edge38" class="edge">
<title>Node30&#45;&gt;Node7</title>
<path fill="none" stroke="midnightblue" d="M240.24,-224.43C207.56,-213.4 161.78,-192.7 182.5,-168 205.59,-140.48 299.21,-129.79 366.31,-125.63"/>
<polygon fill="midnightblue" stroke="midnightblue" points="366.64,-129.12 376.42,-125.04 366.24,-122.13 366.64,-129.12"/>
</g>
<!-- Node30&#45;&gt;Node19 -->
<g id="edge39" class="edge">
<title>Node30&#45;&gt;Node19</title>
<path fill="none" stroke="midnightblue" d="M289.96,-224.39C324.07,-210.4 394.99,-182.78 457.5,-168 513.39,-154.78 678.14,-135.93 755.93,-127.44"/>
<polygon fill="midnightblue" stroke="midnightblue" points="756.75,-130.87 766.31,-126.31 755.99,-123.91 756.75,-130.87"/>
</g>
</g>
</svg>
