<?xml version="1.0" encoding="UTF-8" standalone="no"?>
<!DOCTYPE svg PUBLIC "-//W3C//DTD SVG 1.1//EN"
 "http://www.w3.org/Graphics/SVG/1.1/DTD/svg11.dtd">
<!-- Generated by graphviz version 2.43.0 (0)
 -->
<!-- Title: include/llvm/IR/IRPrintingPasses.h Pages: 1 -->
<svg width="1526pt" height="375pt"
 viewBox="0.00 0.00 1525.91 375.00" xmlns="http://www.w3.org/2000/svg" xmlns:xlink="http://www.w3.org/1999/xlink">
<g id="graph0" class="graph" transform="scale(1 1) rotate(0) translate(4 371)">
<title>include/llvm/IR/IRPrintingPasses.h</title>
<!-- Node0 -->
<g id="node1" class="node">
<title>Node0</title>
<polygon fill="#bfbfbf" stroke="black" points="73.78,-336.5 73.78,-366.5 201.78,-366.5 201.78,-336.5 73.78,-336.5"/>
<text text-anchor="start" x="81.78" y="-354.5" font-family="Helvetica,sans-Serif" font-size="10.00">include/llvm/IR/IRPrinting</text>
<text text-anchor="middle" x="137.78" y="-343.5" font-family="Helvetica,sans-Serif" font-size="10.00">Passes.h</text>
</g>
<!-- Node1 -->
<g id="node2" class="node">
<title>Node1</title>
<g id="a_node2"><a xlink:href="StringRef_8h.html" target="_top" xlink:title="llvm/ADT/StringRef.h">
<polygon fill="none" stroke="black" points="647.78,-280.5 647.78,-299.5 757.78,-299.5 757.78,-280.5 647.78,-280.5"/>
<text text-anchor="middle" x="702.78" y="-287.5" font-family="Helvetica,sans-Serif" font-size="10.00">llvm/ADT/StringRef.h</text>
</a>
</g>
</g>
<!-- Node0&#45;&gt;Node1 -->
<g id="edge1" class="edge">
<title>Node0&#45;&gt;Node1</title>
<path fill="none" stroke="midnightblue" d="M202.04,-343.73C310.34,-332.33 528.03,-309.4 637.2,-297.91"/>
<polygon fill="midnightblue" stroke="midnightblue" points="637.84,-301.36 647.42,-296.83 637.11,-294.4 637.84,-301.36"/>
</g>
<!-- Node21 -->
<g id="node22" class="node">
<title>Node21</title>
<polygon fill="none" stroke="#bfbfbf" points="24.28,-112.5 24.28,-131.5 65.28,-131.5 65.28,-112.5 24.28,-112.5"/>
<text text-anchor="middle" x="44.78" y="-119.5" font-family="Helvetica,sans-Serif" font-size="10.00">string</text>
</g>
<!-- Node0&#45;&gt;Node21 -->
<g id="edge53" class="edge">
<title>Node0&#45;&gt;Node21</title>
<path fill="none" stroke="midnightblue" d="M125.42,-336.09C103.25,-309.18 57.46,-248.5 40.78,-188 36.59,-172.83 38.14,-154.93 40.43,-141.77"/>
<polygon fill="midnightblue" stroke="midnightblue" points="43.93,-142.09 42.5,-131.6 37.07,-140.7 43.93,-142.09"/>
</g>
<!-- Node2 -->
<g id="node3" class="node">
<title>Node2</title>
<g id="a_node3"><a xlink:href="STLExtras_8h.html" target="_top" xlink:title="llvm/ADT/STLExtras.h">
<polygon fill="none" stroke="black" points="802.78,-224.5 802.78,-243.5 918.78,-243.5 918.78,-224.5 802.78,-224.5"/>
<text text-anchor="middle" x="860.78" y="-231.5" font-family="Helvetica,sans-Serif" font-size="10.00">llvm/ADT/STLExtras.h</text>
</a>
</g>
</g>
<!-- Node1&#45;&gt;Node2 -->
<g id="edge2" class="edge">
<title>Node1&#45;&gt;Node2</title>
<path fill="none" stroke="midnightblue" d="M727.81,-280.44C754.39,-271.36 796.59,-256.94 826.3,-246.78"/>
<polygon fill="midnightblue" stroke="midnightblue" points="827.53,-250.06 835.86,-243.52 825.27,-243.44 827.53,-250.06"/>
</g>
<!-- Node5 -->
<g id="node6" class="node">
<title>Node5</title>
<g id="a_node6"><a xlink:href="Compiler_8h.html" target="_top" xlink:title="llvm/Support/Compiler.h">
<polygon fill="none" stroke="black" points="165.78,-56.5 165.78,-75.5 287.78,-75.5 287.78,-56.5 165.78,-56.5"/>
<text text-anchor="middle" x="226.78" y="-63.5" font-family="Helvetica,sans-Serif" font-size="10.00">llvm/Support/Compiler.h</text>
</a>
</g>
</g>
<!-- Node1&#45;&gt;Node5 -->
<g id="edge44" class="edge">
<title>Node1&#45;&gt;Node5</title>
<path fill="none" stroke="midnightblue" d="M647.55,-287.19C506.94,-282.27 143.07,-267.41 93.78,-244 32.02,-214.67 -28.26,-165.13 14.78,-112 32.39,-90.26 101.11,-78.59 155.59,-72.63"/>
<polygon fill="midnightblue" stroke="midnightblue" points="156.01,-76.1 165.59,-71.58 155.28,-69.14 156.01,-76.1"/>
</g>
<!-- Node9 -->
<g id="node10" class="node">
<title>Node9</title>
<polygon fill="none" stroke="#bfbfbf" points="526.78,-56.5 526.78,-75.5 588.78,-75.5 588.78,-56.5 526.78,-56.5"/>
<text text-anchor="middle" x="557.78" y="-63.5" font-family="Helvetica,sans-Serif" font-size="10.00">type_traits</text>
</g>
<!-- Node1&#45;&gt;Node9 -->
<g id="edge51" class="edge">
<title>Node1&#45;&gt;Node9</title>
<path fill="none" stroke="midnightblue" d="M647.72,-285.83C561.25,-280.22 397.99,-266.94 344.78,-244 285.1,-218.28 264.79,-195.46 250.78,-132 248.86,-123.32 244.97,-118.73 250.78,-112 284.63,-72.83 440.71,-67.11 516.4,-66.69"/>
<polygon fill="midnightblue" stroke="midnightblue" points="516.53,-70.19 526.52,-66.67 516.51,-63.19 516.53,-70.19"/>
</g>
<!-- Node10 -->
<g id="node11" class="node">
<title>Node10</title>
<polygon fill="none" stroke="#bfbfbf" points="1071.78,-56.5 1071.78,-75.5 1111.78,-75.5 1111.78,-56.5 1071.78,-56.5"/>
<text text-anchor="middle" x="1091.78" y="-63.5" font-family="Helvetica,sans-Serif" font-size="10.00">utility</text>
</g>
<!-- Node1&#45;&gt;Node10 -->
<g id="edge52" class="edge">
<title>Node1&#45;&gt;Node10</title>
<path fill="none" stroke="midnightblue" d="M757.95,-281.2C852.01,-266.82 1037.73,-233.4 1083.78,-188 1108.73,-163.4 1109.69,-146.7 1104.78,-112 1103.51,-103.04 1100.89,-93.37 1098.33,-85.3"/>
<polygon fill="midnightblue" stroke="midnightblue" points="1101.64,-84.16 1095.12,-75.8 1095.01,-86.4 1101.64,-84.16"/>
</g>
<!-- Node11 -->
<g id="node12" class="node">
<title>Node11</title>
<polygon fill="none" stroke="#bfbfbf" points="260.28,-112.5 260.28,-131.5 309.28,-131.5 309.28,-112.5 260.28,-112.5"/>
<text text-anchor="middle" x="284.78" y="-119.5" font-family="Helvetica,sans-Serif" font-size="10.00">cassert</text>
</g>
<!-- Node1&#45;&gt;Node11 -->
<g id="edge46" class="edge">
<title>Node1&#45;&gt;Node11</title>
<path fill="none" stroke="midnightblue" d="M647.54,-283.8C545.31,-272.91 332.97,-243.96 288.78,-188 278.61,-175.12 278.69,-155.94 280.66,-141.75"/>
<polygon fill="midnightblue" stroke="midnightblue" points="284.15,-142.12 282.49,-131.66 277.26,-140.87 284.15,-142.12"/>
</g>
<!-- Node15 -->
<g id="node16" class="node">
<title>Node15</title>
<g id="a_node16"><a xlink:href="iterator__range_8h.html" target="_top" xlink:title="This provides a very simple, boring adaptor for a begin and end iterator into a range type...">
<polygon fill="none" stroke="black" points="1157.78,-112.5 1157.78,-131.5 1285.78,-131.5 1285.78,-112.5 1157.78,-112.5"/>
<text text-anchor="middle" x="1221.78" y="-119.5" font-family="Helvetica,sans-Serif" font-size="10.00">llvm/ADT/iterator_range.h</text>
</a>
</g>
</g>
<!-- Node1&#45;&gt;Node15 -->
<g id="edge43" class="edge">
<title>Node1&#45;&gt;Node15</title>
<path fill="none" stroke="midnightblue" d="M757.97,-289.81C864.09,-290.36 1091.79,-286.4 1155.78,-244 1192.07,-219.95 1210.11,-168.97 1217.51,-141.49"/>
<polygon fill="midnightblue" stroke="midnightblue" points="1220.96,-142.15 1219.99,-131.59 1214.17,-140.45 1220.96,-142.15"/>
</g>
<!-- Node17 -->
<g id="node18" class="node">
<title>Node17</title>
<polygon fill="none" stroke="#bfbfbf" points="1379.78,-112.5 1379.78,-131.5 1435.78,-131.5 1435.78,-112.5 1379.78,-112.5"/>
<text text-anchor="middle" x="1407.78" y="-119.5" font-family="Helvetica,sans-Serif" font-size="10.00">algorithm</text>
</g>
<!-- Node1&#45;&gt;Node17 -->
<g id="edge45" class="edge">
<title>Node1&#45;&gt;Node17</title>
<path fill="none" stroke="midnightblue" d="M758.17,-288.6C886.72,-287.06 1201.85,-279.65 1300.78,-244 1341.27,-229.41 1352.7,-221.45 1379.78,-188 1390.88,-174.28 1398.34,-155.5 1402.75,-141.65"/>
<polygon fill="midnightblue" stroke="midnightblue" points="1406.18,-142.38 1405.64,-131.8 1399.46,-140.41 1406.18,-142.38"/>
</g>
<!-- Node18 -->
<g id="node19" class="node">
<title>Node18</title>
<polygon fill="none" stroke="#bfbfbf" points="1454.28,-112.5 1454.28,-131.5 1503.28,-131.5 1503.28,-112.5 1454.28,-112.5"/>
<text text-anchor="middle" x="1478.78" y="-119.5" font-family="Helvetica,sans-Serif" font-size="10.00">cstddef</text>
</g>
<!-- Node1&#45;&gt;Node18 -->
<g id="edge47" class="edge">
<title>Node1&#45;&gt;Node18</title>
<path fill="none" stroke="midnightblue" d="M757.93,-288.91C891.71,-288.08 1230.22,-282.15 1335.78,-244 1393.18,-223.25 1443.28,-167.89 1465.93,-139.82"/>
<polygon fill="midnightblue" stroke="midnightblue" points="1468.85,-141.76 1472.29,-131.74 1463.35,-137.43 1468.85,-141.76"/>
</g>
<!-- Node1&#45;&gt;Node21 -->
<g id="edge50" class="edge">
<title>Node1&#45;&gt;Node21</title>
<path fill="none" stroke="midnightblue" d="M647.6,-288.08C556.93,-285.63 371.2,-276.68 217.78,-244 142.04,-227.87 101.66,-248.07 52.78,-188 42.36,-175.2 41.19,-156.01 42.12,-141.8"/>
<polygon fill="midnightblue" stroke="midnightblue" points="45.62,-141.99 43.19,-131.68 38.66,-141.26 45.62,-141.99"/>
</g>
<!-- Node26 -->
<g id="node27" class="node">
<title>Node26</title>
<polygon fill="none" stroke="#bfbfbf" points="297.78,-168.5 297.78,-187.5 337.78,-187.5 337.78,-168.5 297.78,-168.5"/>
<text text-anchor="middle" x="317.78" y="-175.5" font-family="Helvetica,sans-Serif" font-size="10.00">limits</text>
</g>
<!-- Node1&#45;&gt;Node26 -->
<g id="edge49" class="edge">
<title>Node1&#45;&gt;Node26</title>
<path fill="none" stroke="midnightblue" d="M672.89,-280.46C601.15,-259.96 419.87,-208.17 347.9,-187.61"/>
<polygon fill="midnightblue" stroke="midnightblue" points="348.68,-184.19 338.1,-184.81 346.75,-190.92 348.68,-184.19"/>
</g>
<!-- Node28 -->
<g id="node29" class="node">
<title>Node28</title>
<polygon fill="none" stroke="#bfbfbf" points="1245.78,-224.5 1245.78,-243.5 1291.78,-243.5 1291.78,-224.5 1245.78,-224.5"/>
<text text-anchor="middle" x="1268.78" y="-231.5" font-family="Helvetica,sans-Serif" font-size="10.00">cstring</text>
</g>
<!-- Node1&#45;&gt;Node28 -->
<g id="edge48" class="edge">
<title>Node1&#45;&gt;Node28</title>
<path fill="none" stroke="midnightblue" d="M757.95,-287.1C854.54,-283.15 1060.3,-271.98 1231.78,-244 1233.03,-243.8 1234.29,-243.57 1235.57,-243.33"/>
<polygon fill="midnightblue" stroke="midnightblue" points="1236.34,-246.75 1245.4,-241.26 1234.89,-239.9 1236.34,-246.75"/>
</g>
<!-- Node3 -->
<g id="node4" class="node">
<title>Node3</title>
<g id="a_node4"><a xlink:href="Optional_8h.html" target="_top" xlink:title="llvm/ADT/Optional.h">
<polygon fill="none" stroke="black" points="394.28,-168.5 394.28,-187.5 499.28,-187.5 499.28,-168.5 394.28,-168.5"/>
<text text-anchor="middle" x="446.78" y="-175.5" font-family="Helvetica,sans-Serif" font-size="10.00">llvm/ADT/Optional.h</text>
</a>
</g>
</g>
<!-- Node2&#45;&gt;Node3 -->
<g id="edge3" class="edge">
<title>Node2&#45;&gt;Node3</title>
<path fill="none" stroke="midnightblue" d="M802.75,-225.56C733.83,-216.7 615.41,-201.42 513.78,-188 512.32,-187.81 510.85,-187.61 509.37,-187.42"/>
<polygon fill="midnightblue" stroke="midnightblue" points="509.82,-183.95 499.44,-186.1 508.89,-190.88 509.82,-183.95"/>
</g>
<!-- Node2&#45;&gt;Node9 -->
<g id="edge41" class="edge">
<title>Node2&#45;&gt;Node9</title>
<path fill="none" stroke="midnightblue" d="M802.77,-233.36C721.29,-232.48 579.24,-225.45 546.78,-188 540.96,-181.28 541.47,-175.13 546.78,-168 580.02,-123.33 633.54,-176.67 666.78,-132 688.25,-103.14 637.99,-84.65 598.76,-75.04"/>
<polygon fill="midnightblue" stroke="midnightblue" points="599.36,-71.59 588.83,-72.74 597.77,-78.41 599.36,-71.59"/>
</g>
<!-- Node2&#45;&gt;Node10 -->
<g id="edge42" class="edge">
<title>Node2&#45;&gt;Node10</title>
<path fill="none" stroke="midnightblue" d="M918.84,-227.03C971.4,-220.43 1043.58,-208.01 1063.78,-188 1091.13,-160.9 1093.95,-112.73 1093.15,-86.07"/>
<polygon fill="midnightblue" stroke="midnightblue" points="1096.63,-85.6 1092.63,-75.79 1089.64,-85.95 1096.63,-85.6"/>
</g>
<!-- Node2&#45;&gt;Node11 -->
<g id="edge31" class="edge">
<title>Node2&#45;&gt;Node11</title>
<path fill="none" stroke="midnightblue" d="M802.65,-230.97C693.16,-226.58 460.52,-214.39 384.78,-188 368.05,-182.17 329,-155.09 304.94,-137.77"/>
<polygon fill="midnightblue" stroke="midnightblue" points="306.69,-134.71 296.54,-131.68 302.58,-140.38 306.69,-134.71"/>
</g>
<!-- Node12 -->
<g id="node13" class="node">
<title>Node12</title>
<polygon fill="none" stroke="#bfbfbf" points="864.78,-112.5 864.78,-131.5 916.78,-131.5 916.78,-112.5 864.78,-112.5"/>
<text text-anchor="middle" x="890.78" y="-119.5" font-family="Helvetica,sans-Serif" font-size="10.00">memory</text>
</g>
<!-- Node2&#45;&gt;Node12 -->
<g id="edge39" class="edge">
<title>Node2&#45;&gt;Node12</title>
<path fill="none" stroke="midnightblue" d="M919.25,-226.71C967.69,-220.15 1031.06,-207.97 1046.78,-188 1080.44,-145.22 983.36,-130.31 927.38,-125.34"/>
<polygon fill="midnightblue" stroke="midnightblue" points="927.36,-121.83 917.11,-124.5 926.79,-128.8 927.36,-121.83"/>
</g>
<!-- Node14 -->
<g id="node15" class="node">
<title>Node14</title>
<g id="a_node15"><a xlink:href="iterator_8h.html" target="_top" xlink:title="llvm/ADT/iterator.h">
<polygon fill="none" stroke="black" points="1246.28,-168.5 1246.28,-187.5 1345.28,-187.5 1345.28,-168.5 1246.28,-168.5"/>
<text text-anchor="middle" x="1295.78" y="-175.5" font-family="Helvetica,sans-Serif" font-size="10.00">llvm/ADT/iterator.h</text>
</a>
</g>
</g>
<!-- Node2&#45;&gt;Node14 -->
<g id="edge16" class="edge">
<title>Node2&#45;&gt;Node14</title>
<path fill="none" stroke="midnightblue" d="M918.99,-225.77C1001.67,-215.51 1152.31,-196.81 1235.89,-186.43"/>
<polygon fill="midnightblue" stroke="midnightblue" points="1236.5,-189.89 1245.99,-185.18 1235.63,-182.94 1236.5,-189.89"/>
</g>
<!-- Node2&#45;&gt;Node15 -->
<g id="edge25" class="edge">
<title>Node2&#45;&gt;Node15</title>
<path fill="none" stroke="midnightblue" d="M918.87,-229.22C972.09,-224.29 1052.32,-213.08 1117.78,-188 1150.02,-175.64 1183.15,-152.86 1203.1,-137.82"/>
<polygon fill="midnightblue" stroke="midnightblue" points="1205.5,-140.39 1211.29,-131.52 1201.23,-134.84 1205.5,-140.39"/>
</g>
<!-- Node16 -->
<g id="node17" class="node">
<title>Node16</title>
<polygon fill="none" stroke="#bfbfbf" points="1328.28,-56.5 1328.28,-75.5 1375.28,-75.5 1375.28,-56.5 1328.28,-56.5"/>
<text text-anchor="middle" x="1351.78" y="-63.5" font-family="Helvetica,sans-Serif" font-size="10.00">iterator</text>
</g>
<!-- Node2&#45;&gt;Node16 -->
<g id="edge37" class="edge">
<title>Node2&#45;&gt;Node16</title>
<path fill="none" stroke="midnightblue" d="M919.04,-231.43C1041.66,-227.61 1322.62,-216 1413.78,-188 1462.1,-173.16 1487.31,-175.67 1512.78,-132 1541.38,-82.95 1440.73,-70.89 1385.55,-67.94"/>
<polygon fill="midnightblue" stroke="midnightblue" points="1385.64,-64.44 1375.49,-67.48 1385.32,-71.44 1385.64,-64.44"/>
</g>
<!-- Node2&#45;&gt;Node17 -->
<g id="edge30" class="edge">
<title>Node2&#45;&gt;Node17</title>
<path fill="none" stroke="midnightblue" d="M918.93,-233.27C1032.82,-232.9 1280.64,-227.43 1354.78,-188 1374.6,-177.46 1389.78,-156.03 1398.71,-140.65"/>
<polygon fill="midnightblue" stroke="midnightblue" points="1401.93,-142.05 1403.66,-131.6 1395.79,-138.69 1401.93,-142.05"/>
</g>
<!-- Node2&#45;&gt;Node18 -->
<g id="edge32" class="edge">
<title>Node2&#45;&gt;Node18</title>
<path fill="none" stroke="midnightblue" d="M919.14,-231.53C1036.3,-227.99 1296.04,-217.03 1379.78,-188 1411.45,-177.02 1442.93,-153.66 1461.62,-138.15"/>
<polygon fill="midnightblue" stroke="midnightblue" points="1463.92,-140.79 1469.26,-131.64 1459.38,-135.46 1463.92,-140.79"/>
</g>
<!-- Node19 -->
<g id="node20" class="node">
<title>Node19</title>
<polygon fill="none" stroke="#bfbfbf" points="555.78,-168.5 555.78,-187.5 685.78,-187.5 685.78,-168.5 555.78,-168.5"/>
<text text-anchor="middle" x="620.78" y="-175.5" font-family="Helvetica,sans-Serif" font-size="10.00">llvm/Config/abi&#45;breaking.h</text>
</g>
<!-- Node2&#45;&gt;Node19 -->
<g id="edge26" class="edge">
<title>Node2&#45;&gt;Node19</title>
<path fill="none" stroke="midnightblue" d="M822.75,-224.44C780.97,-215.04 713.8,-199.93 668.51,-189.74"/>
<polygon fill="midnightblue" stroke="midnightblue" points="669.15,-186.3 658.63,-187.52 667.62,-193.13 669.15,-186.3"/>
</g>
<!-- Node20 -->
<g id="node21" class="node">
<title>Node20</title>
<g id="a_node21"><a xlink:href="Support_2ErrorHandling_8h.html" target="_top" xlink:title="llvm/Support/ErrorHandling.h">
<polygon fill="none" stroke="black" points="61.78,-168.5 61.78,-187.5 203.78,-187.5 203.78,-168.5 61.78,-168.5"/>
<text text-anchor="middle" x="132.78" y="-175.5" font-family="Helvetica,sans-Serif" font-size="10.00">llvm/Support/ErrorHandling.h</text>
</a>
</g>
</g>
<!-- Node2&#45;&gt;Node20 -->
<g id="edge27" class="edge">
<title>Node2&#45;&gt;Node20</title>
<path fill="none" stroke="midnightblue" d="M802.74,-228.69C673.71,-219.12 362.74,-196.06 214.3,-185.05"/>
<polygon fill="midnightblue" stroke="midnightblue" points="214.13,-181.52 203.9,-184.28 213.61,-188.51 214.13,-181.52"/>
</g>
<!-- Node22 -->
<g id="node23" class="node">
<title>Node22</title>
<polygon fill="none" stroke="#bfbfbf" points="703.78,-168.5 703.78,-187.5 749.78,-187.5 749.78,-168.5 703.78,-168.5"/>
<text text-anchor="middle" x="726.78" y="-175.5" font-family="Helvetica,sans-Serif" font-size="10.00">cstdint</text>
</g>
<!-- Node2&#45;&gt;Node22 -->
<g id="edge33" class="edge">
<title>Node2&#45;&gt;Node22</title>
<path fill="none" stroke="midnightblue" d="M839.55,-224.44C817.4,-215.52 782.46,-201.44 757.34,-191.32"/>
<polygon fill="midnightblue" stroke="midnightblue" points="758.5,-188.01 747.91,-187.52 755.88,-194.5 758.5,-188.01"/>
</g>
<!-- Node23 -->
<g id="node24" class="node">
<title>Node23</title>
<polygon fill="none" stroke="#bfbfbf" points="768.28,-168.5 768.28,-187.5 813.28,-187.5 813.28,-168.5 768.28,-168.5"/>
<text text-anchor="middle" x="790.78" y="-175.5" font-family="Helvetica,sans-Serif" font-size="10.00">cstdlib</text>
</g>
<!-- Node2&#45;&gt;Node23 -->
<g id="edge34" class="edge">
<title>Node2&#45;&gt;Node23</title>
<path fill="none" stroke="midnightblue" d="M849.53,-224.32C838.98,-216.18 822.98,-203.84 810.34,-194.09"/>
<polygon fill="midnightblue" stroke="midnightblue" points="812.29,-191.17 802.23,-187.83 808.01,-196.71 812.29,-191.17"/>
</g>
<!-- Node24 -->
<g id="node25" class="node">
<title>Node24</title>
<polygon fill="none" stroke="#bfbfbf" points="831.28,-168.5 831.28,-187.5 890.28,-187.5 890.28,-168.5 831.28,-168.5"/>
<text text-anchor="middle" x="860.78" y="-175.5" font-family="Helvetica,sans-Serif" font-size="10.00">functional</text>
</g>
<!-- Node2&#45;&gt;Node24 -->
<g id="edge35" class="edge">
<title>Node2&#45;&gt;Node24</title>
<path fill="none" stroke="midnightblue" d="M860.78,-224.08C860.78,-217.01 860.78,-206.86 860.78,-197.99"/>
<polygon fill="midnightblue" stroke="midnightblue" points="864.28,-197.75 860.78,-187.75 857.28,-197.75 864.28,-197.75"/>
</g>
<!-- Node25 -->
<g id="node26" class="node">
<title>Node25</title>
<polygon fill="none" stroke="#bfbfbf" points="908.28,-168.5 908.28,-187.5 981.28,-187.5 981.28,-168.5 908.28,-168.5"/>
<text text-anchor="middle" x="944.78" y="-175.5" font-family="Helvetica,sans-Serif" font-size="10.00">initializer_list</text>
</g>
<!-- Node2&#45;&gt;Node25 -->
<g id="edge36" class="edge">
<title>Node2&#45;&gt;Node25</title>
<path fill="none" stroke="midnightblue" d="M874.27,-224.32C887.38,-215.9 907.49,-202.97 922.89,-193.07"/>
<polygon fill="midnightblue" stroke="midnightblue" points="924.8,-196.01 931.32,-187.65 921.01,-190.12 924.8,-196.01"/>
</g>
<!-- Node2&#45;&gt;Node26 -->
<g id="edge38" class="edge">
<title>Node2&#45;&gt;Node26</title>
<path fill="none" stroke="midnightblue" d="M802.73,-231.09C707.79,-227.24 513.65,-216.37 351.78,-188 350.49,-187.77 349.19,-187.52 347.87,-187.25"/>
<polygon fill="midnightblue" stroke="midnightblue" points="348.32,-183.77 337.79,-184.9 346.73,-190.58 348.32,-183.77"/>
</g>
<!-- Node27 -->
<g id="node28" class="node">
<title>Node27</title>
<polygon fill="none" stroke="#bfbfbf" points="999.78,-168.5 999.78,-187.5 1037.78,-187.5 1037.78,-168.5 999.78,-168.5"/>
<text text-anchor="middle" x="1018.78" y="-175.5" font-family="Helvetica,sans-Serif" font-size="10.00">tuple</text>
</g>
<!-- Node2&#45;&gt;Node27 -->
<g id="edge40" class="edge">
<title>Node2&#45;&gt;Node27</title>
<path fill="none" stroke="midnightblue" d="M885.81,-224.44C913.99,-214.81 959.71,-199.19 989.52,-189"/>
<polygon fill="midnightblue" stroke="midnightblue" points="991.01,-192.19 999.34,-185.64 988.74,-185.57 991.01,-192.19"/>
</g>
<!-- Node4 -->
<g id="node5" class="node">
<title>Node4</title>
<g id="a_node5"><a xlink:href="None_8h.html" target="_top" xlink:title="llvm/ADT/None.h">
<polygon fill="none" stroke="black" points="565.78,-112.5 565.78,-131.5 657.78,-131.5 657.78,-112.5 565.78,-112.5"/>
<text text-anchor="middle" x="611.78" y="-119.5" font-family="Helvetica,sans-Serif" font-size="10.00">llvm/ADT/None.h</text>
</a>
</g>
</g>
<!-- Node3&#45;&gt;Node4 -->
<g id="edge4" class="edge">
<title>Node3&#45;&gt;Node4</title>
<path fill="none" stroke="midnightblue" d="M472.92,-168.44C500.8,-159.32 545.13,-144.81 576.18,-134.65"/>
<polygon fill="midnightblue" stroke="midnightblue" points="577.34,-137.95 585.76,-131.52 575.16,-131.3 577.34,-137.95"/>
</g>
<!-- Node3&#45;&gt;Node5 -->
<g id="edge5" class="edge">
<title>Node3&#45;&gt;Node5</title>
<path fill="none" stroke="midnightblue" d="M429.5,-168.43C411.36,-159.41 382.03,-144.79 356.78,-132 339.4,-123.2 335.18,-120.76 317.78,-112 296.26,-101.16 271.78,-89.07 253.63,-80.15"/>
<polygon fill="midnightblue" stroke="midnightblue" points="254.78,-76.82 244.26,-75.55 251.7,-83.1 254.78,-76.82"/>
</g>
<!-- Node8 -->
<g id="node9" class="node">
<title>Node8</title>
<g id="a_node9"><a xlink:href="type__traits_8h.html" target="_top" xlink:title="llvm/Support/type_traits.h">
<polygon fill="none" stroke="black" points="365.78,-112.5 365.78,-131.5 493.78,-131.5 493.78,-112.5 365.78,-112.5"/>
<text text-anchor="middle" x="429.78" y="-119.5" font-family="Helvetica,sans-Serif" font-size="10.00">llvm/Support/type_traits.h</text>
</a>
</g>
</g>
<!-- Node3&#45;&gt;Node8 -->
<g id="edge8" class="edge">
<title>Node3&#45;&gt;Node8</title>
<path fill="none" stroke="midnightblue" d="M443.97,-168.08C441.69,-160.85 438.41,-150.41 435.57,-141.4"/>
<polygon fill="midnightblue" stroke="midnightblue" points="438.87,-140.24 432.53,-131.75 432.2,-142.34 438.87,-140.24"/>
</g>
<!-- Node3&#45;&gt;Node10 -->
<g id="edge15" class="edge">
<title>Node3&#45;&gt;Node10</title>
<path fill="none" stroke="midnightblue" d="M496.85,-168.46C624.5,-146.69 959.17,-89.62 1061.57,-72.15"/>
<polygon fill="midnightblue" stroke="midnightblue" points="1062.28,-75.58 1071.55,-70.45 1061.1,-68.68 1062.28,-75.58"/>
</g>
<!-- Node3&#45;&gt;Node11 -->
<g id="edge12" class="edge">
<title>Node3&#45;&gt;Node11</title>
<path fill="none" stroke="midnightblue" d="M421.11,-168.44C393.62,-159.28 349.83,-144.68 319.32,-134.52"/>
<polygon fill="midnightblue" stroke="midnightblue" points="320.12,-131.09 309.53,-131.25 317.91,-137.73 320.12,-131.09"/>
</g>
<!-- Node3&#45;&gt;Node12 -->
<g id="edge13" class="edge">
<title>Node3&#45;&gt;Node12</title>
<path fill="none" stroke="midnightblue" d="M499.45,-170.59C590.72,-159.49 775.99,-136.96 854.41,-127.42"/>
<polygon fill="midnightblue" stroke="midnightblue" points="855.24,-130.85 864.74,-126.17 854.39,-123.9 855.24,-130.85"/>
</g>
<!-- Node13 -->
<g id="node14" class="node">
<title>Node13</title>
<polygon fill="none" stroke="#bfbfbf" points="512.28,-112.5 512.28,-131.5 547.28,-131.5 547.28,-112.5 512.28,-112.5"/>
<text text-anchor="middle" x="529.78" y="-119.5" font-family="Helvetica,sans-Serif" font-size="10.00">new</text>
</g>
<!-- Node3&#45;&gt;Node13 -->
<g id="edge14" class="edge">
<title>Node3&#45;&gt;Node13</title>
<path fill="none" stroke="midnightblue" d="M460.11,-168.32C472.94,-159.98 492.56,-147.21 507.72,-137.35"/>
<polygon fill="midnightblue" stroke="midnightblue" points="510,-140.04 516.48,-131.65 506.19,-134.17 510,-140.04"/>
</g>
<!-- Node6 -->
<g id="node7" class="node">
<title>Node6</title>
<polygon fill="none" stroke="#bfbfbf" points="111.28,-0.5 111.28,-19.5 236.28,-19.5 236.28,-0.5 111.28,-0.5"/>
<text text-anchor="middle" x="173.78" y="-7.5" font-family="Helvetica,sans-Serif" font-size="10.00">llvm/Config/llvm&#45;config.h</text>
</g>
<!-- Node5&#45;&gt;Node6 -->
<g id="edge6" class="edge">
<title>Node5&#45;&gt;Node6</title>
<path fill="none" stroke="midnightblue" d="M218.03,-56.08C210.31,-48.22 198.87,-36.57 189.56,-27.08"/>
<polygon fill="midnightblue" stroke="midnightblue" points="191.87,-24.44 182.37,-19.75 186.87,-29.34 191.87,-24.44"/>
</g>
<!-- Node7 -->
<g id="node8" class="node">
<title>Node7</title>
<polygon fill="none" stroke="#bfbfbf" points="254.78,-0.5 254.78,-19.5 306.78,-19.5 306.78,-0.5 254.78,-0.5"/>
<text text-anchor="middle" x="280.78" y="-7.5" font-family="Helvetica,sans-Serif" font-size="10.00">stddef.h</text>
</g>
<!-- Node5&#45;&gt;Node7 -->
<g id="edge7" class="edge">
<title>Node5&#45;&gt;Node7</title>
<path fill="none" stroke="midnightblue" d="M235.7,-56.08C243.56,-48.22 255.21,-36.57 264.7,-27.08"/>
<polygon fill="midnightblue" stroke="midnightblue" points="267.43,-29.3 272.03,-19.75 262.48,-24.35 267.43,-29.3"/>
</g>
<!-- Node8&#45;&gt;Node5 -->
<g id="edge9" class="edge">
<title>Node8&#45;&gt;Node5</title>
<path fill="none" stroke="midnightblue" d="M397.61,-112.44C362.72,-103.16 306.89,-88.31 268.61,-78.13"/>
<polygon fill="midnightblue" stroke="midnightblue" points="269.36,-74.7 258.79,-75.52 267.56,-81.47 269.36,-74.7"/>
</g>
<!-- Node8&#45;&gt;Node9 -->
<g id="edge10" class="edge">
<title>Node8&#45;&gt;Node9</title>
<path fill="none" stroke="midnightblue" d="M450.06,-112.44C471.13,-103.56 504.3,-89.56 528.26,-79.45"/>
<polygon fill="midnightblue" stroke="midnightblue" points="529.74,-82.63 537.59,-75.52 527.02,-76.18 529.74,-82.63"/>
</g>
<!-- Node8&#45;&gt;Node10 -->
<g id="edge11" class="edge">
<title>Node8&#45;&gt;Node10</title>
<path fill="none" stroke="midnightblue" d="M493.85,-112.93C496.87,-112.6 499.86,-112.29 502.78,-112 716.36,-90.69 974.41,-74.14 1061.45,-68.82"/>
<polygon fill="midnightblue" stroke="midnightblue" points="1061.89,-72.3 1071.66,-68.2 1061.47,-65.31 1061.89,-72.3"/>
</g>
<!-- Node14&#45;&gt;Node9 -->
<g id="edge23" class="edge">
<title>Node14&#45;&gt;Node9</title>
<path fill="none" stroke="midnightblue" d="M1251.76,-168.5C1182.55,-155.31 1043.99,-129.6 925.78,-112 807.64,-94.41 667.4,-78.68 599.19,-71.35"/>
<polygon fill="midnightblue" stroke="midnightblue" points="599.18,-67.83 588.87,-70.25 598.44,-74.79 599.18,-67.83"/>
</g>
<!-- Node14&#45;&gt;Node10 -->
<g id="edge24" class="edge">
<title>Node14&#45;&gt;Node10</title>
<path fill="none" stroke="midnightblue" d="M1298.7,-168.29C1302.68,-154.63 1307.9,-128.09 1294.78,-112 1273.27,-85.62 1173.29,-73.69 1122.12,-69.23"/>
<polygon fill="midnightblue" stroke="midnightblue" points="1122.24,-65.73 1111.99,-68.39 1121.67,-72.7 1122.24,-65.73"/>
</g>
<!-- Node14&#45;&gt;Node15 -->
<g id="edge17" class="edge">
<title>Node14&#45;&gt;Node15</title>
<path fill="none" stroke="midnightblue" d="M1283.89,-168.32C1272.63,-160.11 1255.49,-147.6 1242.07,-137.81"/>
<polygon fill="midnightblue" stroke="midnightblue" points="1244.03,-134.9 1233.88,-131.83 1239.9,-140.56 1244.03,-134.9"/>
</g>
<!-- Node14&#45;&gt;Node16 -->
<g id="edge22" class="edge">
<title>Node14&#45;&gt;Node16</title>
<path fill="none" stroke="midnightblue" d="M1302.88,-168.48C1309.91,-159.75 1320.62,-145.56 1327.78,-132 1335.68,-117.04 1342.14,-98.9 1346.36,-85.59"/>
<polygon fill="midnightblue" stroke="midnightblue" points="1349.8,-86.31 1349.36,-75.72 1343.11,-84.27 1349.8,-86.31"/>
</g>
<!-- Node14&#45;&gt;Node17 -->
<g id="edge20" class="edge">
<title>Node14&#45;&gt;Node17</title>
<path fill="none" stroke="midnightblue" d="M1313.77,-168.32C1331.82,-159.62 1359.83,-146.12 1380.58,-136.11"/>
<polygon fill="midnightblue" stroke="midnightblue" points="1382.34,-139.15 1389.83,-131.65 1379.3,-132.84 1382.34,-139.15"/>
</g>
<!-- Node14&#45;&gt;Node18 -->
<g id="edge21" class="edge">
<title>Node14&#45;&gt;Node18</title>
<path fill="none" stroke="midnightblue" d="M1324.78,-168.44C1357.25,-158.86 1409.84,-143.34 1444.37,-133.15"/>
<polygon fill="midnightblue" stroke="midnightblue" points="1445.42,-136.49 1454.03,-130.3 1443.44,-129.78 1445.42,-136.49"/>
</g>
<!-- Node15&#45;&gt;Node10 -->
<g id="edge19" class="edge">
<title>Node15&#45;&gt;Node10</title>
<path fill="none" stroke="midnightblue" d="M1201.18,-112.44C1179.66,-103.5 1145.7,-89.4 1121.33,-79.27"/>
<polygon fill="midnightblue" stroke="midnightblue" points="1122.43,-75.94 1111.85,-75.34 1119.75,-82.41 1122.43,-75.94"/>
</g>
<!-- Node15&#45;&gt;Node16 -->
<g id="edge18" class="edge">
<title>Node15&#45;&gt;Node16</title>
<path fill="none" stroke="midnightblue" d="M1242.38,-112.44C1263.77,-103.56 1297.46,-89.56 1321.8,-79.45"/>
<polygon fill="midnightblue" stroke="midnightblue" points="1323.38,-82.58 1331.28,-75.52 1320.7,-76.12 1323.38,-82.58"/>
</g>
<!-- Node20&#45;&gt;Node5 -->
<g id="edge28" class="edge">
<title>Node20&#45;&gt;Node5</title>
<path fill="none" stroke="midnightblue" d="M140.15,-168.37C155.8,-150.05 192.55,-107.05 212.8,-83.36"/>
<polygon fill="midnightblue" stroke="midnightblue" points="215.6,-85.47 219.44,-75.59 210.28,-80.92 215.6,-85.47"/>
</g>
<!-- Node20&#45;&gt;Node21 -->
<g id="edge29" class="edge">
<title>Node20&#45;&gt;Node21</title>
<path fill="none" stroke="midnightblue" d="M118.64,-168.32C104.91,-159.9 83.84,-146.97 67.71,-137.07"/>
<polygon fill="midnightblue" stroke="midnightblue" points="69.24,-133.9 58.88,-131.65 65.57,-139.87 69.24,-133.9"/>
</g>
</g>
</svg>
