<?xml version="1.0" encoding="UTF-8" standalone="no"?>
<!DOCTYPE svg PUBLIC "-//W3C//DTD SVG 1.1//EN"
 "http://www.w3.org/Graphics/SVG/1.1/DTD/svg11.dtd">
<!-- Generated by graphviz version 2.43.0 (0)
 -->
<!-- Title: include/llvm/CodeGen/ISDOpcodes.h Pages: 1 -->
<svg width="976pt" height="442pt"
 viewBox="0.00 0.00 975.50 442.00" xmlns="http://www.w3.org/2000/svg" xmlns:xlink="http://www.w3.org/1999/xlink">
<g id="graph0" class="graph" transform="scale(1 1) rotate(0) translate(4 438)">
<title>include/llvm/CodeGen/ISDOpcodes.h</title>
<!-- Node0 -->
<g id="node1" class="node">
<title>Node0</title>
<polygon fill="#bfbfbf" stroke="black" points="637,-403.5 637,-433.5 750,-433.5 750,-403.5 637,-403.5"/>
<text text-anchor="start" x="645" y="-421.5" font-family="Helvetica,sans-Serif" font-size="10.00">include/llvm/CodeGen</text>
<text text-anchor="middle" x="693.5" y="-410.5" font-family="Helvetica,sans-Serif" font-size="10.00">/ISDOpcodes.h</text>
</g>
<!-- Node1 -->
<g id="node2" class="node">
<title>Node1</title>
<g id="a_node2"><a xlink:href="ValueTypes_8h.html" target="_top" xlink:title="llvm/CodeGen/ValueTypes.h">
<polygon fill="none" stroke="black" points="622.5,-347.5 622.5,-366.5 764.5,-366.5 764.5,-347.5 622.5,-347.5"/>
<text text-anchor="middle" x="693.5" y="-354.5" font-family="Helvetica,sans-Serif" font-size="10.00">llvm/CodeGen/ValueTypes.h</text>
</a>
</g>
</g>
<!-- Node0&#45;&gt;Node1 -->
<g id="edge1" class="edge">
<title>Node0&#45;&gt;Node1</title>
<path fill="none" stroke="midnightblue" d="M693.5,-403.4C693.5,-395.47 693.5,-385.46 693.5,-376.86"/>
<polygon fill="midnightblue" stroke="midnightblue" points="697,-376.66 693.5,-366.66 690,-376.66 697,-376.66"/>
</g>
<!-- Node2 -->
<g id="node3" class="node">
<title>Node2</title>
<g id="a_node3"><a xlink:href="Compiler_8h.html" target="_top" xlink:title="llvm/Support/Compiler.h">
<polygon fill="none" stroke="black" points="83.5,-112.5 83.5,-131.5 205.5,-131.5 205.5,-112.5 83.5,-112.5"/>
<text text-anchor="middle" x="144.5" y="-119.5" font-family="Helvetica,sans-Serif" font-size="10.00">llvm/Support/Compiler.h</text>
</a>
</g>
</g>
<!-- Node1&#45;&gt;Node2 -->
<g id="edge2" class="edge">
<title>Node1&#45;&gt;Node2</title>
<path fill="none" stroke="midnightblue" d="M622.32,-353.15C482.76,-345.9 181.37,-321.44 119.5,-244 95.28,-213.69 117.77,-165.8 133.05,-140.31"/>
<polygon fill="midnightblue" stroke="midnightblue" points="136.09,-142.05 138.44,-131.72 130.16,-138.33 136.09,-142.05"/>
</g>
<!-- Node5 -->
<g id="node6" class="node">
<title>Node5</title>
<g id="a_node6"><a xlink:href="MachineValueType_8h.html" target="_top" xlink:title="llvm/Support/MachineValue\lType.h">
<polygon fill="none" stroke="black" points="625.5,-280.5 625.5,-310.5 761.5,-310.5 761.5,-280.5 625.5,-280.5"/>
<text text-anchor="start" x="633.5" y="-298.5" font-family="Helvetica,sans-Serif" font-size="10.00">llvm/Support/MachineValue</text>
<text text-anchor="middle" x="693.5" y="-287.5" font-family="Helvetica,sans-Serif" font-size="10.00">Type.h</text>
</a>
</g>
</g>
<!-- Node1&#45;&gt;Node5 -->
<g id="edge5" class="edge">
<title>Node1&#45;&gt;Node5</title>
<path fill="none" stroke="midnightblue" d="M693.5,-347.48C693.5,-340.47 693.5,-330.19 693.5,-320.7"/>
<polygon fill="midnightblue" stroke="midnightblue" points="697,-320.52 693.5,-310.52 690,-320.52 697,-320.52"/>
</g>
<!-- Node10 -->
<g id="node11" class="node">
<title>Node10</title>
<polygon fill="none" stroke="#bfbfbf" points="173,-168.5 173,-187.5 214,-187.5 214,-168.5 173,-168.5"/>
<text text-anchor="middle" x="193.5" y="-175.5" font-family="Helvetica,sans-Serif" font-size="10.00">string</text>
</g>
<!-- Node1&#45;&gt;Node10 -->
<g id="edge39" class="edge">
<title>Node1&#45;&gt;Node10</title>
<path fill="none" stroke="midnightblue" d="M656.12,-347.44C587.59,-331.18 437.82,-293.03 317.5,-244 299.83,-236.8 296.4,-232.87 279.5,-224 259.29,-213.4 236.4,-201.42 219.32,-192.49"/>
<polygon fill="midnightblue" stroke="midnightblue" points="220.48,-189.15 209.99,-187.62 217.23,-195.35 220.48,-189.15"/>
</g>
<!-- Node11 -->
<g id="node12" class="node">
<title>Node11</title>
<g id="a_node12"><a xlink:href="MathExtras_8h.html" target="_top" xlink:title="llvm/Support/MathExtras.h">
<polygon fill="none" stroke="black" points="565,-224.5 565,-243.5 698,-243.5 698,-224.5 565,-224.5"/>
<text text-anchor="middle" x="631.5" y="-231.5" font-family="Helvetica,sans-Serif" font-size="10.00">llvm/Support/MathExtras.h</text>
</a>
</g>
</g>
<!-- Node1&#45;&gt;Node11 -->
<g id="edge35" class="edge">
<title>Node1&#45;&gt;Node11</title>
<path fill="none" stroke="midnightblue" d="M665.13,-347.49C647.75,-340.65 626.9,-329.13 616.5,-311 606.08,-292.84 613.88,-268.66 621.6,-252.5"/>
<polygon fill="midnightblue" stroke="midnightblue" points="624.72,-254.08 626.22,-243.6 618.5,-250.85 624.72,-254.08"/>
</g>
<!-- Node23 -->
<g id="node24" class="node">
<title>Node23</title>
<polygon fill="none" stroke="#bfbfbf" points="862,-168.5 862,-187.5 911,-187.5 911,-168.5 862,-168.5"/>
<text text-anchor="middle" x="886.5" y="-175.5" font-family="Helvetica,sans-Serif" font-size="10.00">cassert</text>
</g>
<!-- Node1&#45;&gt;Node23 -->
<g id="edge37" class="edge">
<title>Node1&#45;&gt;Node23</title>
<path fill="none" stroke="midnightblue" d="M715.44,-347.41C732.27,-339.91 755.16,-327.6 770.5,-311 799.64,-279.46 783.64,-255.79 812.5,-224 824.69,-210.58 841.81,-199.81 856.52,-192.18"/>
<polygon fill="midnightblue" stroke="midnightblue" points="858.34,-195.19 865.76,-187.63 855.24,-188.91 858.34,-195.19"/>
</g>
<!-- Node27 -->
<g id="node28" class="node">
<title>Node27</title>
<g id="a_node28"><a xlink:href="TypeSize_8h.html" target="_top" xlink:title="llvm/Support/TypeSize.h">
<polygon fill="none" stroke="black" points="821.5,-224.5 821.5,-243.5 945.5,-243.5 945.5,-224.5 821.5,-224.5"/>
<text text-anchor="middle" x="883.5" y="-231.5" font-family="Helvetica,sans-Serif" font-size="10.00">llvm/Support/TypeSize.h</text>
</a>
</g>
</g>
<!-- Node1&#45;&gt;Node27 -->
<g id="edge36" class="edge">
<title>Node1&#45;&gt;Node27</title>
<path fill="none" stroke="midnightblue" d="M722.49,-347.43C745.54,-339.86 778.03,-327.47 803.5,-311 829.53,-294.17 854.61,-268.25 869.55,-251.46"/>
<polygon fill="midnightblue" stroke="midnightblue" points="872.46,-253.45 876.38,-243.61 867.18,-248.85 872.46,-253.45"/>
</g>
<!-- Node29 -->
<g id="node30" class="node">
<title>Node29</title>
<polygon fill="none" stroke="#bfbfbf" points="855.5,-286 855.5,-305 901.5,-305 901.5,-286 855.5,-286"/>
<text text-anchor="middle" x="878.5" y="-293" font-family="Helvetica,sans-Serif" font-size="10.00">cstdint</text>
</g>
<!-- Node1&#45;&gt;Node29 -->
<g id="edge38" class="edge">
<title>Node1&#45;&gt;Node29</title>
<path fill="none" stroke="midnightblue" d="M724.05,-347.47C754.14,-338.89 801.29,-324.97 841.5,-311 843.62,-310.26 845.79,-309.48 847.98,-308.68"/>
<polygon fill="midnightblue" stroke="midnightblue" points="849.37,-311.89 857.47,-305.07 846.88,-305.35 849.37,-311.89"/>
</g>
<!-- Node3 -->
<g id="node4" class="node">
<title>Node3</title>
<polygon fill="none" stroke="#bfbfbf" points="0,-56.5 0,-75.5 125,-75.5 125,-56.5 0,-56.5"/>
<text text-anchor="middle" x="62.5" y="-63.5" font-family="Helvetica,sans-Serif" font-size="10.00">llvm/Config/llvm&#45;config.h</text>
</g>
<!-- Node2&#45;&gt;Node3 -->
<g id="edge3" class="edge">
<title>Node2&#45;&gt;Node3</title>
<path fill="none" stroke="midnightblue" d="M131.33,-112.32C118.65,-103.98 99.27,-91.21 84.29,-81.35"/>
<polygon fill="midnightblue" stroke="midnightblue" points="85.92,-78.23 75.64,-75.65 82.07,-84.08 85.92,-78.23"/>
</g>
<!-- Node4 -->
<g id="node5" class="node">
<title>Node4</title>
<polygon fill="none" stroke="#bfbfbf" points="143.5,-56.5 143.5,-75.5 195.5,-75.5 195.5,-56.5 143.5,-56.5"/>
<text text-anchor="middle" x="169.5" y="-63.5" font-family="Helvetica,sans-Serif" font-size="10.00">stddef.h</text>
</g>
<!-- Node2&#45;&gt;Node4 -->
<g id="edge4" class="edge">
<title>Node2&#45;&gt;Node4</title>
<path fill="none" stroke="midnightblue" d="M148.63,-112.08C152.01,-104.77 156.92,-94.18 161.12,-85.1"/>
<polygon fill="midnightblue" stroke="midnightblue" points="164.42,-86.3 165.45,-75.75 158.07,-83.36 164.42,-86.3"/>
</g>
<!-- Node6 -->
<g id="node7" class="node">
<title>Node6</title>
<g id="a_node7"><a xlink:href="iterator__range_8h.html" target="_top" xlink:title="This provides a very simple, boring adaptor for a begin and end iterator into a range type...">
<polygon fill="none" stroke="black" points="326.5,-224.5 326.5,-243.5 454.5,-243.5 454.5,-224.5 326.5,-224.5"/>
<text text-anchor="middle" x="390.5" y="-231.5" font-family="Helvetica,sans-Serif" font-size="10.00">llvm/ADT/iterator_range.h</text>
</a>
</g>
</g>
<!-- Node5&#45;&gt;Node6 -->
<g id="edge6" class="edge">
<title>Node5&#45;&gt;Node6</title>
<path fill="none" stroke="midnightblue" d="M625.12,-281.07C570.26,-270.3 494.32,-255.39 443.87,-245.48"/>
<polygon fill="midnightblue" stroke="midnightblue" points="444.31,-242 433.82,-243.51 442.96,-248.87 444.31,-242"/>
</g>
<!-- Node9 -->
<g id="node10" class="node">
<title>Node9</title>
<g id="a_node10"><a xlink:href="Support_2ErrorHandling_8h.html" target="_top" xlink:title="llvm/Support/ErrorHandling.h">
<polygon fill="none" stroke="black" points="128.5,-224.5 128.5,-243.5 270.5,-243.5 270.5,-224.5 128.5,-224.5"/>
<text text-anchor="middle" x="199.5" y="-231.5" font-family="Helvetica,sans-Serif" font-size="10.00">llvm/Support/ErrorHandling.h</text>
</a>
</g>
</g>
<!-- Node5&#45;&gt;Node9 -->
<g id="edge9" class="edge">
<title>Node5&#45;&gt;Node9</title>
<path fill="none" stroke="midnightblue" d="M625.33,-286.29C535.09,-275.42 376.21,-256.28 280.12,-244.71"/>
<polygon fill="midnightblue" stroke="midnightblue" points="280.51,-241.23 270.16,-243.51 279.67,-248.18 280.51,-241.23"/>
</g>
<!-- Node5&#45;&gt;Node11 -->
<g id="edge12" class="edge">
<title>Node5&#45;&gt;Node11</title>
<path fill="none" stroke="midnightblue" d="M678.81,-280.4C669.52,-271.49 657.5,-259.95 647.9,-250.74"/>
<polygon fill="midnightblue" stroke="midnightblue" points="650.16,-248.06 640.52,-243.66 645.31,-253.11 650.16,-248.06"/>
</g>
<!-- Node5&#45;&gt;Node23 -->
<g id="edge34" class="edge">
<title>Node5&#45;&gt;Node23</title>
<path fill="none" stroke="midnightblue" d="M707.19,-280.22C722.63,-264.75 749.05,-240.13 775.5,-224 799.62,-209.29 829.41,-197.51 852.06,-189.71"/>
<polygon fill="midnightblue" stroke="midnightblue" points="853.23,-193 861.6,-186.5 851,-186.37 853.23,-193"/>
</g>
<!-- Node5&#45;&gt;Node27 -->
<g id="edge31" class="edge">
<title>Node5&#45;&gt;Node27</title>
<path fill="none" stroke="midnightblue" d="M738.53,-280.4C771.36,-270.12 815.32,-256.35 846.2,-246.68"/>
<polygon fill="midnightblue" stroke="midnightblue" points="847.63,-249.9 856.13,-243.57 845.54,-243.22 847.63,-249.9"/>
</g>
<!-- Node7 -->
<g id="node8" class="node">
<title>Node7</title>
<polygon fill="none" stroke="#bfbfbf" points="232,-168.5 232,-187.5 279,-187.5 279,-168.5 232,-168.5"/>
<text text-anchor="middle" x="255.5" y="-175.5" font-family="Helvetica,sans-Serif" font-size="10.00">iterator</text>
</g>
<!-- Node6&#45;&gt;Node7 -->
<g id="edge7" class="edge">
<title>Node6&#45;&gt;Node7</title>
<path fill="none" stroke="midnightblue" d="M369.11,-224.44C346.79,-215.52 311.6,-201.44 286.29,-191.32"/>
<polygon fill="midnightblue" stroke="midnightblue" points="287.38,-187.98 276.79,-187.52 284.78,-194.48 287.38,-187.98"/>
</g>
<!-- Node8 -->
<g id="node9" class="node">
<title>Node8</title>
<polygon fill="none" stroke="#bfbfbf" points="297.5,-168.5 297.5,-187.5 337.5,-187.5 337.5,-168.5 297.5,-168.5"/>
<text text-anchor="middle" x="317.5" y="-175.5" font-family="Helvetica,sans-Serif" font-size="10.00">utility</text>
</g>
<!-- Node6&#45;&gt;Node8 -->
<g id="edge8" class="edge">
<title>Node6&#45;&gt;Node8</title>
<path fill="none" stroke="midnightblue" d="M378.77,-224.32C367.66,-216.11 350.76,-203.6 337.52,-193.81"/>
<polygon fill="midnightblue" stroke="midnightblue" points="339.56,-190.97 329.44,-187.83 335.4,-196.59 339.56,-190.97"/>
</g>
<!-- Node9&#45;&gt;Node2 -->
<g id="edge10" class="edge">
<title>Node9&#45;&gt;Node2</title>
<path fill="none" stroke="midnightblue" d="M190.92,-224.43C182.8,-215.88 170.79,-202.02 163.5,-188 155.87,-173.33 150.89,-155.16 147.95,-141.77"/>
<polygon fill="midnightblue" stroke="midnightblue" points="151.35,-140.93 145.95,-131.82 144.49,-142.31 151.35,-140.93"/>
</g>
<!-- Node9&#45;&gt;Node10 -->
<g id="edge11" class="edge">
<title>Node9&#45;&gt;Node10</title>
<path fill="none" stroke="midnightblue" d="M198.51,-224.08C197.71,-216.93 196.57,-206.64 195.58,-197.69"/>
<polygon fill="midnightblue" stroke="midnightblue" points="199.06,-197.3 194.47,-187.75 192.1,-198.08 199.06,-197.3"/>
</g>
<!-- Node11&#45;&gt;Node2 -->
<g id="edge13" class="edge">
<title>Node11&#45;&gt;Node2</title>
<path fill="none" stroke="midnightblue" d="M564.84,-226.42C514.32,-220.12 443.73,-208.44 384.5,-188 366.46,-181.77 364.42,-174.58 346.5,-168 302.66,-151.91 251.26,-140.55 211.28,-133.28"/>
<polygon fill="midnightblue" stroke="midnightblue" points="211.83,-129.82 201.38,-131.51 210.61,-136.71 211.83,-129.82"/>
</g>
<!-- Node12 -->
<g id="node13" class="node">
<title>Node12</title>
<g id="a_node13"><a xlink:href="SwapByteOrder_8h.html" target="_top" xlink:title="llvm/Support/SwapByteOrder.h">
<polygon fill="none" stroke="black" points="393.5,-168.5 393.5,-187.5 545.5,-187.5 545.5,-168.5 393.5,-168.5"/>
<text text-anchor="middle" x="469.5" y="-175.5" font-family="Helvetica,sans-Serif" font-size="10.00">llvm/Support/SwapByteOrder.h</text>
</a>
</g>
</g>
<!-- Node11&#45;&gt;Node12 -->
<g id="edge14" class="edge">
<title>Node11&#45;&gt;Node12</title>
<path fill="none" stroke="midnightblue" d="M605.83,-224.44C578.58,-215.36 535.32,-200.94 504.85,-190.78"/>
<polygon fill="midnightblue" stroke="midnightblue" points="505.64,-187.36 495.05,-187.52 503.43,-194 505.64,-187.36"/>
</g>
<!-- Node20 -->
<g id="node21" class="node">
<title>Node20</title>
<polygon fill="none" stroke="#bfbfbf" points="551.5,-112.5 551.5,-131.5 613.5,-131.5 613.5,-112.5 551.5,-112.5"/>
<text text-anchor="middle" x="582.5" y="-119.5" font-family="Helvetica,sans-Serif" font-size="10.00">type_traits</text>
</g>
<!-- Node11&#45;&gt;Node20 -->
<g id="edge30" class="edge">
<title>Node11&#45;&gt;Node20</title>
<path fill="none" stroke="midnightblue" d="M621.4,-224.47C612.27,-216.15 599.27,-202.64 592.5,-188 585.83,-173.57 583.45,-155.62 582.68,-142.23"/>
<polygon fill="midnightblue" stroke="midnightblue" points="586.16,-141.73 582.34,-131.85 579.17,-141.96 586.16,-141.73"/>
</g>
<!-- Node22 -->
<g id="node23" class="node">
<title>Node22</title>
<polygon fill="none" stroke="#bfbfbf" points="601.5,-168.5 601.5,-187.5 657.5,-187.5 657.5,-168.5 601.5,-168.5"/>
<text text-anchor="middle" x="629.5" y="-175.5" font-family="Helvetica,sans-Serif" font-size="10.00">algorithm</text>
</g>
<!-- Node11&#45;&gt;Node22 -->
<g id="edge25" class="edge">
<title>Node11&#45;&gt;Node22</title>
<path fill="none" stroke="midnightblue" d="M631.17,-224.08C630.91,-217.01 630.53,-206.86 630.2,-197.99"/>
<polygon fill="midnightblue" stroke="midnightblue" points="633.69,-197.61 629.82,-187.75 626.7,-197.87 633.69,-197.61"/>
</g>
<!-- Node11&#45;&gt;Node23 -->
<g id="edge26" class="edge">
<title>Node11&#45;&gt;Node23</title>
<path fill="none" stroke="midnightblue" d="M677.38,-224.46C720.1,-216.33 785.75,-203.38 851.9,-188.03"/>
<polygon fill="midnightblue" stroke="midnightblue" points="852.72,-191.44 861.66,-185.75 851.13,-184.62 852.72,-191.44"/>
</g>
<!-- Node24 -->
<g id="node25" class="node">
<title>Node24</title>
<polygon fill="none" stroke="#bfbfbf" points="676,-168.5 676,-187.5 721,-187.5 721,-168.5 676,-168.5"/>
<text text-anchor="middle" x="698.5" y="-175.5" font-family="Helvetica,sans-Serif" font-size="10.00">climits</text>
</g>
<!-- Node11&#45;&gt;Node24 -->
<g id="edge27" class="edge">
<title>Node11&#45;&gt;Node24</title>
<path fill="none" stroke="midnightblue" d="M642.26,-224.32C652.27,-216.26 667.39,-204.08 679.43,-194.37"/>
<polygon fill="midnightblue" stroke="midnightblue" points="681.95,-196.83 687.54,-187.83 677.56,-191.38 681.95,-196.83"/>
</g>
<!-- Node25 -->
<g id="node26" class="node">
<title>Node25</title>
<polygon fill="none" stroke="#bfbfbf" points="739.5,-168.5 739.5,-187.5 785.5,-187.5 785.5,-168.5 739.5,-168.5"/>
<text text-anchor="middle" x="762.5" y="-175.5" font-family="Helvetica,sans-Serif" font-size="10.00">cstring</text>
</g>
<!-- Node11&#45;&gt;Node25 -->
<g id="edge28" class="edge">
<title>Node11&#45;&gt;Node25</title>
<path fill="none" stroke="midnightblue" d="M652.26,-224.44C673.82,-215.56 707.76,-201.56 732.29,-191.45"/>
<polygon fill="midnightblue" stroke="midnightblue" points="733.93,-194.56 741.84,-187.52 731.26,-188.09 733.93,-194.56"/>
</g>
<!-- Node26 -->
<g id="node27" class="node">
<title>Node26</title>
<polygon fill="none" stroke="#bfbfbf" points="803.5,-168.5 803.5,-187.5 843.5,-187.5 843.5,-168.5 803.5,-168.5"/>
<text text-anchor="middle" x="823.5" y="-175.5" font-family="Helvetica,sans-Serif" font-size="10.00">limits</text>
</g>
<!-- Node11&#45;&gt;Node26 -->
<g id="edge29" class="edge">
<title>Node11&#45;&gt;Node26</title>
<path fill="none" stroke="midnightblue" d="M663.75,-224.42C694.7,-216.11 742.99,-202.97 793.46,-188.24"/>
<polygon fill="midnightblue" stroke="midnightblue" points="794.63,-191.55 803.24,-185.38 792.66,-184.83 794.63,-191.55"/>
</g>
<!-- Node12&#45;&gt;Node2 -->
<g id="edge15" class="edge">
<title>Node12&#45;&gt;Node2</title>
<path fill="none" stroke="midnightblue" d="M418,-168.44C360.36,-158.87 267.01,-143.36 205.69,-133.17"/>
<polygon fill="midnightblue" stroke="midnightblue" points="206.19,-129.7 195.76,-131.52 205.05,-136.61 206.19,-129.7"/>
</g>
<!-- Node13 -->
<g id="node14" class="node">
<title>Node13</title>
<g id="a_node14"><a xlink:href="Support_2DataTypes_8h.html" target="_top" xlink:title="llvm/Support/DataTypes.h">
<polygon fill="none" stroke="black" points="224,-112.5 224,-131.5 355,-131.5 355,-112.5 224,-112.5"/>
<text text-anchor="middle" x="289.5" y="-119.5" font-family="Helvetica,sans-Serif" font-size="10.00">llvm/Support/DataTypes.h</text>
</a>
</g>
</g>
<!-- Node12&#45;&gt;Node13 -->
<g id="edge16" class="edge">
<title>Node12&#45;&gt;Node13</title>
<path fill="none" stroke="midnightblue" d="M440.98,-168.44C410.43,-159.28 361.79,-144.69 327.9,-134.52"/>
<polygon fill="midnightblue" stroke="midnightblue" points="328.47,-131.04 317.89,-131.52 326.46,-137.74 328.47,-131.04"/>
</g>
<!-- Node19 -->
<g id="node20" class="node">
<title>Node19</title>
<polygon fill="none" stroke="#bfbfbf" points="373,-112.5 373,-131.5 422,-131.5 422,-112.5 373,-112.5"/>
<text text-anchor="middle" x="397.5" y="-119.5" font-family="Helvetica,sans-Serif" font-size="10.00">cstddef</text>
</g>
<!-- Node12&#45;&gt;Node19 -->
<g id="edge22" class="edge">
<title>Node12&#45;&gt;Node19</title>
<path fill="none" stroke="midnightblue" d="M457.93,-168.32C447.08,-160.18 430.62,-147.84 417.62,-138.09"/>
<polygon fill="midnightblue" stroke="midnightblue" points="419.38,-135.03 409.28,-131.83 415.18,-140.63 419.38,-135.03"/>
</g>
<!-- Node12&#45;&gt;Node20 -->
<g id="edge23" class="edge">
<title>Node12&#45;&gt;Node20</title>
<path fill="none" stroke="midnightblue" d="M487.41,-168.44C505.75,-159.68 534.51,-145.94 555.59,-135.86"/>
<polygon fill="midnightblue" stroke="midnightblue" points="557.17,-138.99 564.68,-131.52 554.15,-132.67 557.17,-138.99"/>
</g>
<!-- Node21 -->
<g id="node22" class="node">
<title>Node21</title>
<polygon fill="none" stroke="#bfbfbf" points="440,-112.5 440,-131.5 533,-131.5 533,-112.5 440,-112.5"/>
<text text-anchor="middle" x="486.5" y="-119.5" font-family="Helvetica,sans-Serif" font-size="10.00">machine/endian.h</text>
</g>
<!-- Node12&#45;&gt;Node21 -->
<g id="edge24" class="edge">
<title>Node12&#45;&gt;Node21</title>
<path fill="none" stroke="midnightblue" d="M472.31,-168.08C474.58,-160.85 477.87,-150.41 480.71,-141.4"/>
<polygon fill="midnightblue" stroke="midnightblue" points="484.08,-142.34 483.75,-131.75 477.4,-140.24 484.08,-142.34"/>
</g>
<!-- Node14 -->
<g id="node15" class="node">
<title>Node14</title>
<g id="a_node15"><a xlink:href="c_2DataTypes_8h.html" target="_top" xlink:title="llvm&#45;c/DataTypes.h">
<polygon fill="none" stroke="black" points="238.5,-56.5 238.5,-75.5 340.5,-75.5 340.5,-56.5 238.5,-56.5"/>
<text text-anchor="middle" x="289.5" y="-63.5" font-family="Helvetica,sans-Serif" font-size="10.00">llvm&#45;c/DataTypes.h</text>
</a>
</g>
</g>
<!-- Node13&#45;&gt;Node14 -->
<g id="edge17" class="edge">
<title>Node13&#45;&gt;Node14</title>
<path fill="none" stroke="midnightblue" d="M289.5,-112.08C289.5,-105.01 289.5,-94.86 289.5,-85.99"/>
<polygon fill="midnightblue" stroke="midnightblue" points="293,-85.75 289.5,-75.75 286,-85.75 293,-85.75"/>
</g>
<!-- Node15 -->
<g id="node16" class="node">
<title>Node15</title>
<polygon fill="none" stroke="#bfbfbf" points="159,-0.5 159,-19.5 206,-19.5 206,-0.5 159,-0.5"/>
<text text-anchor="middle" x="182.5" y="-7.5" font-family="Helvetica,sans-Serif" font-size="10.00">math.h</text>
</g>
<!-- Node14&#45;&gt;Node15 -->
<g id="edge18" class="edge">
<title>Node14&#45;&gt;Node15</title>
<path fill="none" stroke="midnightblue" d="M272.31,-56.32C255.15,-47.66 228.55,-34.24 208.75,-24.25"/>
<polygon fill="midnightblue" stroke="midnightblue" points="210.15,-21.04 199.65,-19.65 207,-27.28 210.15,-21.04"/>
</g>
<!-- Node16 -->
<g id="node17" class="node">
<title>Node16</title>
<polygon fill="none" stroke="#bfbfbf" points="224,-0.5 224,-19.5 283,-19.5 283,-0.5 224,-0.5"/>
<text text-anchor="middle" x="253.5" y="-7.5" font-family="Helvetica,sans-Serif" font-size="10.00">inttypes.h</text>
</g>
<!-- Node14&#45;&gt;Node16 -->
<g id="edge19" class="edge">
<title>Node14&#45;&gt;Node16</title>
<path fill="none" stroke="midnightblue" d="M283.56,-56.08C278.52,-48.53 271.16,-37.49 264.99,-28.23"/>
<polygon fill="midnightblue" stroke="midnightblue" points="267.79,-26.13 259.33,-19.75 261.97,-30.01 267.79,-26.13"/>
</g>
<!-- Node17 -->
<g id="node18" class="node">
<title>Node17</title>
<polygon fill="none" stroke="#bfbfbf" points="301,-0.5 301,-19.5 350,-19.5 350,-0.5 301,-0.5"/>
<text text-anchor="middle" x="325.5" y="-7.5" font-family="Helvetica,sans-Serif" font-size="10.00">stdint.h</text>
</g>
<!-- Node14&#45;&gt;Node17 -->
<g id="edge20" class="edge">
<title>Node14&#45;&gt;Node17</title>
<path fill="none" stroke="midnightblue" d="M295.44,-56.08C300.48,-48.53 307.84,-37.49 314.01,-28.23"/>
<polygon fill="midnightblue" stroke="midnightblue" points="317.03,-30.01 319.67,-19.75 311.21,-26.13 317.03,-30.01"/>
</g>
<!-- Node18 -->
<g id="node19" class="node">
<title>Node18</title>
<polygon fill="none" stroke="#bfbfbf" points="368.5,-0.5 368.5,-19.5 436.5,-19.5 436.5,-0.5 368.5,-0.5"/>
<text text-anchor="middle" x="402.5" y="-7.5" font-family="Helvetica,sans-Serif" font-size="10.00">sys/types.h</text>
</g>
<!-- Node14&#45;&gt;Node18 -->
<g id="edge21" class="edge">
<title>Node14&#45;&gt;Node18</title>
<path fill="none" stroke="midnightblue" d="M307.41,-56.44C325.75,-47.68 354.51,-33.94 375.59,-23.86"/>
<polygon fill="midnightblue" stroke="midnightblue" points="377.17,-26.99 384.68,-19.52 374.15,-20.67 377.17,-26.99"/>
</g>
<!-- Node27&#45;&gt;Node23 -->
<g id="edge32" class="edge">
<title>Node27&#45;&gt;Node23</title>
<path fill="none" stroke="midnightblue" d="M884,-224.08C884.39,-217.01 884.95,-206.86 885.45,-197.99"/>
<polygon fill="midnightblue" stroke="midnightblue" points="888.95,-197.93 886.01,-187.75 881.96,-197.54 888.95,-197.93"/>
</g>
<!-- Node28 -->
<g id="node29" class="node">
<title>Node28</title>
<polygon fill="none" stroke="#bfbfbf" points="929.5,-168.5 929.5,-187.5 967.5,-187.5 967.5,-168.5 929.5,-168.5"/>
<text text-anchor="middle" x="948.5" y="-175.5" font-family="Helvetica,sans-Serif" font-size="10.00">tuple</text>
</g>
<!-- Node27&#45;&gt;Node28 -->
<g id="edge33" class="edge">
<title>Node27&#45;&gt;Node28</title>
<path fill="none" stroke="midnightblue" d="M893.94,-224.32C903.65,-216.26 918.32,-204.08 930,-194.37"/>
<polygon fill="midnightblue" stroke="midnightblue" points="932.41,-196.92 937.87,-187.83 927.94,-191.53 932.41,-196.92"/>
</g>
</g>
</svg>
