<?xml version="1.0" encoding="UTF-8" standalone="no"?>
<!DOCTYPE svg PUBLIC "-//W3C//DTD SVG 1.1//EN"
 "http://www.w3.org/Graphics/SVG/1.1/DTD/svg11.dtd">
<!-- Generated by graphviz version 2.43.0 (0)
 -->
<!-- Title: lib/Target/Lanai/LanaiAluCode.h Pages: 1 -->
<svg width="2195pt" height="498pt"
 viewBox="0.00 0.00 2195.44 498.00" xmlns="http://www.w3.org/2000/svg" xmlns:xlink="http://www.w3.org/1999/xlink">
<g id="graph0" class="graph" transform="scale(1 1) rotate(0) translate(4 494)">
<title>lib/Target/Lanai/LanaiAluCode.h</title>
<!-- Node0 -->
<g id="node1" class="node">
<title>Node0</title>
<polygon fill="#bfbfbf" stroke="black" points="1807.94,-459.5 1807.94,-489.5 1931.94,-489.5 1931.94,-459.5 1807.94,-459.5"/>
<text text-anchor="start" x="1815.94" y="-477.5" font-family="Helvetica,sans-Serif" font-size="10.00">lib/Target/Lanai/LanaiAlu</text>
<text text-anchor="middle" x="1869.94" y="-466.5" font-family="Helvetica,sans-Serif" font-size="10.00">Code.h</text>
</g>
<!-- Node1 -->
<g id="node2" class="node">
<title>Node1</title>
<g id="a_node2"><a xlink:href="StringSwitch_8h.html" target="_top" xlink:title="llvm/ADT/StringSwitch.h">
<polygon fill="none" stroke="black" points="1653.44,-403.5 1653.44,-422.5 1778.44,-422.5 1778.44,-403.5 1653.44,-403.5"/>
<text text-anchor="middle" x="1715.94" y="-410.5" font-family="Helvetica,sans-Serif" font-size="10.00">llvm/ADT/StringSwitch.h</text>
</a>
</g>
</g>
<!-- Node0&#45;&gt;Node1 -->
<g id="edge1" class="edge">
<title>Node0&#45;&gt;Node1</title>
<path fill="none" stroke="midnightblue" d="M1833.44,-459.4C1807.37,-449.33 1772.64,-435.91 1747.71,-426.28"/>
<polygon fill="midnightblue" stroke="midnightblue" points="1748.93,-423 1738.34,-422.66 1746.41,-429.53 1748.93,-423"/>
</g>
<!-- Node21 -->
<g id="node22" class="node">
<title>Node21</title>
<g id="a_node22"><a xlink:href="Support_2ErrorHandling_8h.html" target="_top" xlink:title="llvm/Support/ErrorHandling.h">
<polygon fill="none" stroke="black" points="1996.94,-224.5 1996.94,-243.5 2138.94,-243.5 2138.94,-224.5 1996.94,-224.5"/>
<text text-anchor="middle" x="2067.94" y="-231.5" font-family="Helvetica,sans-Serif" font-size="10.00">llvm/Support/ErrorHandling.h</text>
</a>
</g>
</g>
<!-- Node0&#45;&gt;Node21 -->
<g id="edge91" class="edge">
<title>Node0&#45;&gt;Node21</title>
<path fill="none" stroke="midnightblue" d="M1899.97,-459.39C1916.62,-450.55 1936.92,-438.01 1951.94,-423 2004.78,-370.2 2044.36,-288.92 2060.27,-253.06"/>
<polygon fill="midnightblue" stroke="midnightblue" points="2063.5,-254.4 2064.28,-243.84 2057.08,-251.61 2063.5,-254.4"/>
</g>
<!-- Node30 -->
<g id="node31" class="node">
<title>Node30</title>
<g id="a_node31"><a xlink:href="ISDOpcodes_8h.html" target="_top" xlink:title="llvm/CodeGen/ISDOpcodes.h">
<polygon fill="none" stroke="black" points="1796.94,-403.5 1796.94,-422.5 1942.94,-422.5 1942.94,-403.5 1796.94,-403.5"/>
<text text-anchor="middle" x="1869.94" y="-410.5" font-family="Helvetica,sans-Serif" font-size="10.00">llvm/CodeGen/ISDOpcodes.h</text>
</a>
</g>
</g>
<!-- Node0&#45;&gt;Node30 -->
<g id="edge57" class="edge">
<title>Node0&#45;&gt;Node30</title>
<path fill="none" stroke="midnightblue" d="M1869.94,-459.4C1869.94,-451.47 1869.94,-441.46 1869.94,-432.86"/>
<polygon fill="midnightblue" stroke="midnightblue" points="1873.44,-432.66 1869.94,-422.66 1866.44,-432.66 1873.44,-432.66"/>
</g>
<!-- Node2 -->
<g id="node3" class="node">
<title>Node2</title>
<g id="a_node3"><a xlink:href="StringRef_8h.html" target="_top" xlink:title="llvm/ADT/StringRef.h">
<polygon fill="none" stroke="black" points="1175.94,-347.5 1175.94,-366.5 1285.94,-366.5 1285.94,-347.5 1175.94,-347.5"/>
<text text-anchor="middle" x="1230.94" y="-354.5" font-family="Helvetica,sans-Serif" font-size="10.00">llvm/ADT/StringRef.h</text>
</a>
</g>
</g>
<!-- Node1&#45;&gt;Node2 -->
<g id="edge2" class="edge">
<title>Node1&#45;&gt;Node2</title>
<path fill="none" stroke="midnightblue" d="M1653.03,-405C1560.88,-394.74 1390.02,-375.71 1296.43,-365.29"/>
<polygon fill="midnightblue" stroke="midnightblue" points="1296.56,-361.79 1286.24,-364.16 1295.79,-368.74 1296.56,-361.79"/>
</g>
<!-- Node6 -->
<g id="node7" class="node">
<title>Node6</title>
<g id="a_node7"><a xlink:href="Compiler_8h.html" target="_top" xlink:title="llvm/Support/Compiler.h">
<polygon fill="none" stroke="black" points="1559.94,-112.5 1559.94,-131.5 1681.94,-131.5 1681.94,-112.5 1559.94,-112.5"/>
<text text-anchor="middle" x="1620.94" y="-119.5" font-family="Helvetica,sans-Serif" font-size="10.00">llvm/Support/Compiler.h</text>
</a>
</g>
</g>
<!-- Node1&#45;&gt;Node6 -->
<g id="edge54" class="edge">
<title>Node1&#45;&gt;Node6</title>
<path fill="none" stroke="midnightblue" d="M1752.19,-403.47C1822.14,-385.95 1968.94,-343.58 1968.94,-296.5 1968.94,-296.5 1968.94,-296.5 1968.94,-233 1968.94,-171.17 1904.19,-188.72 1845.94,-168 1816.48,-157.52 1738.54,-142.97 1682.66,-133.29"/>
<polygon fill="midnightblue" stroke="midnightblue" points="1682.95,-129.78 1672.5,-131.54 1681.76,-136.68 1682.95,-129.78"/>
</g>
<!-- Node12 -->
<g id="node13" class="node">
<title>Node12</title>
<polygon fill="none" stroke="#bfbfbf" points="1764.44,-168.5 1764.44,-187.5 1813.44,-187.5 1813.44,-168.5 1764.44,-168.5"/>
<text text-anchor="middle" x="1788.94" y="-175.5" font-family="Helvetica,sans-Serif" font-size="10.00">cassert</text>
</g>
<!-- Node1&#45;&gt;Node12 -->
<g id="edge55" class="edge">
<title>Node1&#45;&gt;Node12</title>
<path fill="none" stroke="midnightblue" d="M1778.08,-403.42C1800.47,-397.08 1823.69,-386.09 1837.94,-367 1876.01,-315.99 1873.7,-281.28 1845.94,-224 1839.54,-210.8 1827.18,-200.3 1815.61,-192.78"/>
<polygon fill="midnightblue" stroke="midnightblue" points="1817.39,-189.77 1807.02,-187.61 1813.78,-195.77 1817.39,-189.77"/>
</g>
<!-- Node29 -->
<g id="node30" class="node">
<title>Node29</title>
<polygon fill="none" stroke="#bfbfbf" points="1334.94,-168.5 1334.94,-187.5 1380.94,-187.5 1380.94,-168.5 1334.94,-168.5"/>
<text text-anchor="middle" x="1357.94" y="-175.5" font-family="Helvetica,sans-Serif" font-size="10.00">cstring</text>
</g>
<!-- Node1&#45;&gt;Node29 -->
<g id="edge56" class="edge">
<title>Node1&#45;&gt;Node29</title>
<path fill="none" stroke="midnightblue" d="M1702.77,-403.43C1649.16,-368.54 1446.94,-236.93 1379.77,-193.21"/>
<polygon fill="midnightblue" stroke="midnightblue" points="1381.51,-190.17 1371.22,-187.65 1377.69,-196.04 1381.51,-190.17"/>
</g>
<!-- Node3 -->
<g id="node4" class="node">
<title>Node3</title>
<g id="a_node4"><a xlink:href="STLExtras_8h.html" target="_top" xlink:title="llvm/ADT/STLExtras.h">
<polygon fill="none" stroke="black" points="787.94,-286 787.94,-305 903.94,-305 903.94,-286 787.94,-286"/>
<text text-anchor="middle" x="845.94" y="-293" font-family="Helvetica,sans-Serif" font-size="10.00">llvm/ADT/STLExtras.h</text>
</a>
</g>
</g>
<!-- Node2&#45;&gt;Node3 -->
<g id="edge3" class="edge">
<title>Node2&#45;&gt;Node3</title>
<path fill="none" stroke="midnightblue" d="M1175.78,-347.48C1105.87,-336.67 985.56,-318.08 911.18,-306.58"/>
<polygon fill="midnightblue" stroke="midnightblue" points="911.41,-303.08 901,-305.01 910.34,-310 911.41,-303.08"/>
</g>
<!-- Node2&#45;&gt;Node6 -->
<g id="edge45" class="edge">
<title>Node2&#45;&gt;Node6</title>
<path fill="none" stroke="midnightblue" d="M1235.36,-347.38C1240,-338.33 1247.51,-323.68 1253.94,-311 1286.13,-247.54 1268.35,-209.8 1325.94,-168 1334.96,-161.45 1465.4,-143.34 1549.77,-132.19"/>
<polygon fill="midnightblue" stroke="midnightblue" points="1550.36,-135.65 1559.82,-130.87 1549.45,-128.71 1550.36,-135.65"/>
</g>
<!-- Node10 -->
<g id="node11" class="node">
<title>Node10</title>
<polygon fill="none" stroke="#bfbfbf" points="1003.94,-112.5 1003.94,-131.5 1065.94,-131.5 1065.94,-112.5 1003.94,-112.5"/>
<text text-anchor="middle" x="1034.94" y="-119.5" font-family="Helvetica,sans-Serif" font-size="10.00">type_traits</text>
</g>
<!-- Node2&#45;&gt;Node10 -->
<g id="edge52" class="edge">
<title>Node2&#45;&gt;Node10</title>
<path fill="none" stroke="midnightblue" d="M1226.58,-347.14C1210.1,-313.84 1150.9,-196.58 1120.94,-168 1106.16,-153.9 1086.09,-143.07 1069.06,-135.56"/>
<polygon fill="midnightblue" stroke="midnightblue" points="1070.02,-132.17 1059.45,-131.53 1067.32,-138.63 1070.02,-132.17"/>
</g>
<!-- Node11 -->
<g id="node12" class="node">
<title>Node11</title>
<polygon fill="none" stroke="#bfbfbf" points="281.94,-112.5 281.94,-131.5 321.94,-131.5 321.94,-112.5 281.94,-112.5"/>
<text text-anchor="middle" x="301.94" y="-119.5" font-family="Helvetica,sans-Serif" font-size="10.00">utility</text>
</g>
<!-- Node2&#45;&gt;Node11 -->
<g id="edge53" class="edge">
<title>Node2&#45;&gt;Node11</title>
<path fill="none" stroke="midnightblue" d="M1175.77,-354.22C971.73,-347.08 268.19,-317.28 202.94,-244 169.27,-206.19 237.23,-159.23 276.59,-136.54"/>
<polygon fill="midnightblue" stroke="midnightblue" points="278.44,-139.51 285.44,-131.56 275.01,-133.41 278.44,-139.51"/>
</g>
<!-- Node2&#45;&gt;Node12 -->
<g id="edge47" class="edge">
<title>Node2&#45;&gt;Node12</title>
<path fill="none" stroke="midnightblue" d="M1286.32,-354.77C1414.57,-351.44 1723.78,-340.41 1759.94,-311 1793.52,-283.68 1793.76,-227.18 1791.27,-197.74"/>
<polygon fill="midnightblue" stroke="midnightblue" points="1794.73,-197.17 1790.21,-187.59 1787.77,-197.9 1794.73,-197.17"/>
</g>
<!-- Node16 -->
<g id="node17" class="node">
<title>Node16</title>
<g id="a_node17"><a xlink:href="iterator__range_8h.html" target="_top" xlink:title="This provides a very simple, boring adaptor for a begin and end iterator into a range type...">
<polygon fill="none" stroke="black" points="12.94,-168.5 12.94,-187.5 140.94,-187.5 140.94,-168.5 12.94,-168.5"/>
<text text-anchor="middle" x="76.94" y="-175.5" font-family="Helvetica,sans-Serif" font-size="10.00">llvm/ADT/iterator_range.h</text>
</a>
</g>
</g>
<!-- Node2&#45;&gt;Node16 -->
<g id="edge44" class="edge">
<title>Node2&#45;&gt;Node16</title>
<path fill="none" stroke="midnightblue" d="M1175.91,-355.31C960.27,-352.4 182.47,-339.93 138.94,-311 99.85,-285.03 84.87,-227.49 79.57,-197.69"/>
<polygon fill="midnightblue" stroke="midnightblue" points="83.01,-197.08 77.98,-187.75 76.1,-198.18 83.01,-197.08"/>
</g>
<!-- Node18 -->
<g id="node19" class="node">
<title>Node18</title>
<polygon fill="none" stroke="#bfbfbf" points="1055.94,-168.5 1055.94,-187.5 1111.94,-187.5 1111.94,-168.5 1055.94,-168.5"/>
<text text-anchor="middle" x="1083.94" y="-175.5" font-family="Helvetica,sans-Serif" font-size="10.00">algorithm</text>
</g>
<!-- Node2&#45;&gt;Node18 -->
<g id="edge46" class="edge">
<title>Node2&#45;&gt;Node18</title>
<path fill="none" stroke="midnightblue" d="M1202.18,-347.45C1182.72,-340.39 1157.62,-328.64 1140.94,-311 1109.74,-278 1094.09,-225.24 1087.65,-197.47"/>
<polygon fill="midnightblue" stroke="midnightblue" points="1091.04,-196.56 1085.5,-187.53 1084.2,-198.04 1091.04,-196.56"/>
</g>
<!-- Node19 -->
<g id="node20" class="node">
<title>Node19</title>
<polygon fill="none" stroke="#bfbfbf" points="1085.44,-112.5 1085.44,-131.5 1134.44,-131.5 1134.44,-112.5 1085.44,-112.5"/>
<text text-anchor="middle" x="1109.94" y="-119.5" font-family="Helvetica,sans-Serif" font-size="10.00">cstddef</text>
</g>
<!-- Node2&#45;&gt;Node19 -->
<g id="edge48" class="edge">
<title>Node2&#45;&gt;Node19</title>
<path fill="none" stroke="midnightblue" d="M1229.92,-347.32C1226.26,-319.03 1211.6,-227.91 1168.94,-168 1159.94,-155.37 1146.37,-144.68 1134.51,-136.88"/>
<polygon fill="midnightblue" stroke="midnightblue" points="1136.21,-133.82 1125.88,-131.5 1132.51,-139.76 1136.21,-133.82"/>
</g>
<!-- Node22 -->
<g id="node23" class="node">
<title>Node22</title>
<polygon fill="none" stroke="#bfbfbf" points="2146.44,-168.5 2146.44,-187.5 2187.44,-187.5 2187.44,-168.5 2146.44,-168.5"/>
<text text-anchor="middle" x="2166.94" y="-175.5" font-family="Helvetica,sans-Serif" font-size="10.00">string</text>
</g>
<!-- Node2&#45;&gt;Node22 -->
<g id="edge51" class="edge">
<title>Node2&#45;&gt;Node22</title>
<path fill="none" stroke="midnightblue" d="M1286.07,-353.36C1385.77,-348.17 1602.5,-335.02 1783.94,-311 1824.7,-305.6 2117.41,-271.55 2147.94,-244 2160.87,-232.32 2165.2,-212.38 2166.55,-197.65"/>
<polygon fill="midnightblue" stroke="midnightblue" points="2170.04,-197.81 2167.09,-187.64 2163.05,-197.43 2170.04,-197.81"/>
</g>
<!-- Node27 -->
<g id="node28" class="node">
<title>Node27</title>
<polygon fill="none" stroke="#bfbfbf" points="1238.94,-168.5 1238.94,-187.5 1278.94,-187.5 1278.94,-168.5 1238.94,-168.5"/>
<text text-anchor="middle" x="1258.94" y="-175.5" font-family="Helvetica,sans-Serif" font-size="10.00">limits</text>
</g>
<!-- Node2&#45;&gt;Node27 -->
<g id="edge50" class="edge">
<title>Node2&#45;&gt;Node27</title>
<path fill="none" stroke="midnightblue" d="M1232.29,-347.46C1236.56,-320.43 1249.88,-236.24 1255.91,-198.11"/>
<polygon fill="midnightblue" stroke="midnightblue" points="1259.43,-198.29 1257.53,-187.87 1252.51,-197.2 1259.43,-198.29"/>
</g>
<!-- Node2&#45;&gt;Node29 -->
<g id="edge49" class="edge">
<title>Node2&#45;&gt;Node29</title>
<path fill="none" stroke="midnightblue" d="M1257.43,-347.41C1296.12,-333.15 1366.07,-300.44 1389.94,-244 1397.09,-227.08 1385.67,-208.32 1374.54,-195.32"/>
<polygon fill="midnightblue" stroke="midnightblue" points="1376.83,-192.64 1367.47,-187.68 1371.7,-197.4 1376.83,-192.64"/>
</g>
<!-- Node4 -->
<g id="node5" class="node">
<title>Node4</title>
<g id="a_node5"><a xlink:href="Optional_8h.html" target="_top" xlink:title="llvm/ADT/Optional.h">
<polygon fill="none" stroke="black" points="793.44,-224.5 793.44,-243.5 898.44,-243.5 898.44,-224.5 793.44,-224.5"/>
<text text-anchor="middle" x="845.94" y="-231.5" font-family="Helvetica,sans-Serif" font-size="10.00">llvm/ADT/Optional.h</text>
</a>
</g>
</g>
<!-- Node3&#45;&gt;Node4 -->
<g id="edge4" class="edge">
<title>Node3&#45;&gt;Node4</title>
<path fill="none" stroke="midnightblue" d="M845.94,-285.98C845.94,-277.58 845.94,-264.48 845.94,-253.66"/>
<polygon fill="midnightblue" stroke="midnightblue" points="849.44,-253.51 845.94,-243.51 842.44,-253.51 849.44,-253.51"/>
</g>
<!-- Node3&#45;&gt;Node10 -->
<g id="edge42" class="edge">
<title>Node3&#45;&gt;Node10</title>
<path fill="none" stroke="midnightblue" d="M857.13,-285.81C869.71,-275.95 890.65,-259.24 907.94,-244 949.2,-207.64 995.44,-162.37 1019.11,-138.85"/>
<polygon fill="midnightblue" stroke="midnightblue" points="1021.62,-141.29 1026.23,-131.75 1016.67,-136.33 1021.62,-141.29"/>
</g>
<!-- Node3&#45;&gt;Node11 -->
<g id="edge43" class="edge">
<title>Node3&#45;&gt;Node11</title>
<path fill="none" stroke="midnightblue" d="M787.88,-294.28C638.29,-293.09 248.71,-285.98 209.94,-244 192.76,-225.4 253,-166.72 284.27,-138.48"/>
<polygon fill="midnightblue" stroke="midnightblue" points="286.75,-140.96 291.88,-131.69 282.09,-135.74 286.75,-140.96"/>
</g>
<!-- Node3&#45;&gt;Node12 -->
<g id="edge32" class="edge">
<title>Node3&#45;&gt;Node12</title>
<path fill="none" stroke="midnightblue" d="M900.81,-286C1008.55,-269.38 1244.35,-233.4 1325.94,-224 1513.2,-202.43 1565.31,-220.72 1754.2,-188.03"/>
<polygon fill="midnightblue" stroke="midnightblue" points="1754.94,-191.45 1764.18,-186.27 1753.73,-184.56 1754.94,-191.45"/>
</g>
<!-- Node13 -->
<g id="node14" class="node">
<title>Node13</title>
<polygon fill="none" stroke="#bfbfbf" points="523.94,-168.5 523.94,-187.5 575.94,-187.5 575.94,-168.5 523.94,-168.5"/>
<text text-anchor="middle" x="549.94" y="-175.5" font-family="Helvetica,sans-Serif" font-size="10.00">memory</text>
</g>
<!-- Node3&#45;&gt;Node13 -->
<g id="edge40" class="edge">
<title>Node3&#45;&gt;Node13</title>
<path fill="none" stroke="midnightblue" d="M836.51,-285.9C819.63,-270.99 782.6,-240.37 745.94,-224 744.09,-223.18 642.05,-199.93 585.96,-187.18"/>
<polygon fill="midnightblue" stroke="midnightblue" points="586.58,-183.73 576.06,-184.93 585.03,-190.56 586.58,-183.73"/>
</g>
<!-- Node15 -->
<g id="node16" class="node">
<title>Node15</title>
<g id="a_node16"><a xlink:href="iterator_8h.html" target="_top" xlink:title="llvm/ADT/iterator.h">
<polygon fill="none" stroke="black" points="637.44,-224.5 637.44,-243.5 736.44,-243.5 736.44,-224.5 637.44,-224.5"/>
<text text-anchor="middle" x="686.94" y="-231.5" font-family="Helvetica,sans-Serif" font-size="10.00">llvm/ADT/iterator.h</text>
</a>
</g>
</g>
<!-- Node3&#45;&gt;Node15 -->
<g id="edge17" class="edge">
<title>Node3&#45;&gt;Node15</title>
<path fill="none" stroke="midnightblue" d="M823.16,-285.98C795.88,-275.77 750.02,-258.61 719.14,-247.05"/>
<polygon fill="midnightblue" stroke="midnightblue" points="720.27,-243.74 709.67,-243.51 717.81,-250.29 720.27,-243.74"/>
</g>
<!-- Node3&#45;&gt;Node16 -->
<g id="edge26" class="edge">
<title>Node3&#45;&gt;Node16</title>
<path fill="none" stroke="midnightblue" d="M787.75,-293.79C646.61,-291.5 289.35,-281.99 176.94,-244 144.96,-233.19 113.15,-209.79 94.27,-194.22"/>
<polygon fill="midnightblue" stroke="midnightblue" points="96.44,-191.47 86.55,-187.68 91.92,-196.82 96.44,-191.47"/>
</g>
<!-- Node17 -->
<g id="node18" class="node">
<title>Node17</title>
<polygon fill="none" stroke="#bfbfbf" points="53.44,-112.5 53.44,-131.5 100.44,-131.5 100.44,-112.5 53.44,-112.5"/>
<text text-anchor="middle" x="76.94" y="-119.5" font-family="Helvetica,sans-Serif" font-size="10.00">iterator</text>
</g>
<!-- Node3&#45;&gt;Node17 -->
<g id="edge38" class="edge">
<title>Node3&#45;&gt;Node17</title>
<path fill="none" stroke="midnightblue" d="M787.84,-292.91C640.78,-288.49 256.71,-274.31 132.94,-244 72.23,-229.13 38.22,-240.26 3.94,-188 -10.32,-166.26 18.62,-147.27 44.17,-135.51"/>
<polygon fill="midnightblue" stroke="midnightblue" points="45.57,-138.72 53.34,-131.52 42.78,-132.3 45.57,-138.72"/>
</g>
<!-- Node3&#45;&gt;Node18 -->
<g id="edge31" class="edge">
<title>Node3&#45;&gt;Node18</title>
<path fill="none" stroke="midnightblue" d="M872.81,-285.99C900.14,-276.94 943.39,-261.55 978.94,-244 1009.58,-228.87 1042.78,-207.38 1063.46,-193.32"/>
<polygon fill="midnightblue" stroke="midnightblue" points="1065.51,-196.15 1071.77,-187.6 1061.55,-190.38 1065.51,-196.15"/>
</g>
<!-- Node3&#45;&gt;Node19 -->
<g id="edge33" class="edge">
<title>Node3&#45;&gt;Node19</title>
<path fill="none" stroke="midnightblue" d="M861.34,-285.86C878.7,-276.04 907.65,-259.36 931.94,-244 989.96,-207.3 1056.38,-160.96 1089.26,-137.71"/>
<polygon fill="midnightblue" stroke="midnightblue" points="1091.47,-140.43 1097.61,-131.8 1087.43,-134.72 1091.47,-140.43"/>
</g>
<!-- Node20 -->
<g id="node21" class="node">
<title>Node20</title>
<polygon fill="none" stroke="#bfbfbf" points="218.94,-224.5 218.94,-243.5 348.94,-243.5 348.94,-224.5 218.94,-224.5"/>
<text text-anchor="middle" x="283.94" y="-231.5" font-family="Helvetica,sans-Serif" font-size="10.00">llvm/Config/abi&#45;breaking.h</text>
</g>
<!-- Node3&#45;&gt;Node20 -->
<g id="edge27" class="edge">
<title>Node3&#45;&gt;Node20</title>
<path fill="none" stroke="midnightblue" d="M787.81,-288.78C696.46,-279.72 513.74,-261.31 358.94,-244 358.83,-243.99 358.73,-243.98 358.63,-243.97"/>
<polygon fill="midnightblue" stroke="midnightblue" points="359.3,-240.52 348.97,-242.87 358.51,-247.47 359.3,-240.52"/>
</g>
<!-- Node3&#45;&gt;Node21 -->
<g id="edge28" class="edge">
<title>Node3&#45;&gt;Node21</title>
<path fill="none" stroke="midnightblue" d="M904.05,-291.67C1102.82,-281.99 1755.9,-250.19 1986.45,-238.97"/>
<polygon fill="midnightblue" stroke="midnightblue" points="1986.96,-242.45 1996.78,-238.46 1986.62,-235.46 1986.96,-242.45"/>
</g>
<!-- Node23 -->
<g id="node24" class="node">
<title>Node23</title>
<polygon fill="none" stroke="#bfbfbf" points="1334.94,-224.5 1334.94,-243.5 1380.94,-243.5 1380.94,-224.5 1334.94,-224.5"/>
<text text-anchor="middle" x="1357.94" y="-231.5" font-family="Helvetica,sans-Serif" font-size="10.00">cstdint</text>
</g>
<!-- Node3&#45;&gt;Node23 -->
<g id="edge34" class="edge">
<title>Node3&#45;&gt;Node23</title>
<path fill="none" stroke="midnightblue" d="M904.17,-287.73C1012,-275.2 1239.52,-248.76 1324.76,-238.86"/>
<polygon fill="midnightblue" stroke="midnightblue" points="1325.36,-242.31 1334.89,-237.68 1324.56,-235.36 1325.36,-242.31"/>
</g>
<!-- Node24 -->
<g id="node25" class="node">
<title>Node24</title>
<polygon fill="none" stroke="#bfbfbf" points="367.44,-224.5 367.44,-243.5 412.44,-243.5 412.44,-224.5 367.44,-224.5"/>
<text text-anchor="middle" x="389.94" y="-231.5" font-family="Helvetica,sans-Serif" font-size="10.00">cstdlib</text>
</g>
<!-- Node3&#45;&gt;Node24 -->
<g id="edge35" class="edge">
<title>Node3&#45;&gt;Node24</title>
<path fill="none" stroke="midnightblue" d="M787.88,-290.46C707.79,-284.26 558.85,-270.44 422.75,-243.85"/>
<polygon fill="midnightblue" stroke="midnightblue" points="423.05,-240.34 412.56,-241.83 421.69,-247.21 423.05,-240.34"/>
</g>
<!-- Node25 -->
<g id="node26" class="node">
<title>Node25</title>
<polygon fill="none" stroke="#bfbfbf" points="430.44,-224.5 430.44,-243.5 489.44,-243.5 489.44,-224.5 430.44,-224.5"/>
<text text-anchor="middle" x="459.94" y="-231.5" font-family="Helvetica,sans-Serif" font-size="10.00">functional</text>
</g>
<!-- Node3&#45;&gt;Node25 -->
<g id="edge36" class="edge">
<title>Node3&#45;&gt;Node25</title>
<path fill="none" stroke="midnightblue" d="M787.67,-287.51C720.63,-279.13 607.04,-263.92 499.72,-244.01"/>
<polygon fill="midnightblue" stroke="midnightblue" points="500.17,-240.53 489.69,-242.13 498.88,-247.41 500.17,-240.53"/>
</g>
<!-- Node26 -->
<g id="node27" class="node">
<title>Node26</title>
<polygon fill="none" stroke="#bfbfbf" points="507.44,-224.5 507.44,-243.5 580.44,-243.5 580.44,-224.5 507.44,-224.5"/>
<text text-anchor="middle" x="543.94" y="-231.5" font-family="Helvetica,sans-Serif" font-size="10.00">initializer_list</text>
</g>
<!-- Node3&#45;&gt;Node26 -->
<g id="edge37" class="edge">
<title>Node3&#45;&gt;Node26</title>
<path fill="none" stroke="midnightblue" d="M802.67,-285.98C746.35,-274.88 648.33,-255.57 590.46,-244.17"/>
<polygon fill="midnightblue" stroke="midnightblue" points="590.98,-240.7 580.49,-242.2 589.63,-247.57 590.98,-240.7"/>
</g>
<!-- Node3&#45;&gt;Node27 -->
<g id="edge39" class="edge">
<title>Node3&#45;&gt;Node27</title>
<path fill="none" stroke="midnightblue" d="M876.64,-285.91C953.41,-264.44 1152.99,-208.63 1228.97,-187.38"/>
<polygon fill="midnightblue" stroke="midnightblue" points="1230.16,-190.68 1238.85,-184.62 1228.27,-183.94 1230.16,-190.68"/>
</g>
<!-- Node28 -->
<g id="node29" class="node">
<title>Node28</title>
<polygon fill="none" stroke="#bfbfbf" points="1398.94,-168.5 1398.94,-187.5 1436.94,-187.5 1436.94,-168.5 1398.94,-168.5"/>
<text text-anchor="middle" x="1417.94" y="-175.5" font-family="Helvetica,sans-Serif" font-size="10.00">tuple</text>
</g>
<!-- Node3&#45;&gt;Node28 -->
<g id="edge41" class="edge">
<title>Node3&#45;&gt;Node28</title>
<path fill="none" stroke="midnightblue" d="M891.03,-285.99C1006.94,-264.07 1311.1,-206.26 1388.95,-187.91"/>
<polygon fill="midnightblue" stroke="midnightblue" points="1389.87,-191.29 1398.74,-185.5 1388.2,-184.49 1389.87,-191.29"/>
</g>
<!-- Node5 -->
<g id="node6" class="node">
<title>Node5</title>
<g id="a_node6"><a xlink:href="None_8h.html" target="_top" xlink:title="llvm/ADT/None.h">
<polygon fill="none" stroke="black" points="685.94,-168.5 685.94,-187.5 777.94,-187.5 777.94,-168.5 685.94,-168.5"/>
<text text-anchor="middle" x="731.94" y="-175.5" font-family="Helvetica,sans-Serif" font-size="10.00">llvm/ADT/None.h</text>
</a>
</g>
</g>
<!-- Node4&#45;&gt;Node5 -->
<g id="edge5" class="edge">
<title>Node4&#45;&gt;Node5</title>
<path fill="none" stroke="midnightblue" d="M827.87,-224.44C809.36,-215.68 780.36,-201.94 759.08,-191.86"/>
<polygon fill="midnightblue" stroke="midnightblue" points="760.45,-188.63 749.92,-187.52 757.45,-194.96 760.45,-188.63"/>
</g>
<!-- Node4&#45;&gt;Node6 -->
<g id="edge6" class="edge">
<title>Node4&#45;&gt;Node6</title>
<path fill="none" stroke="midnightblue" d="M866.62,-224.46C902.58,-210.05 979.25,-181.16 1046.94,-168 1264.15,-125.77 1325.68,-153.49 1549.77,-132.05"/>
<polygon fill="midnightblue" stroke="midnightblue" points="1550.26,-135.52 1559.88,-131.06 1549.58,-128.55 1550.26,-135.52"/>
</g>
<!-- Node9 -->
<g id="node10" class="node">
<title>Node9</title>
<g id="a_node10"><a xlink:href="type__traits_8h.html" target="_top" xlink:title="llvm/Support/type_traits.h">
<polygon fill="none" stroke="black" points="795.94,-168.5 795.94,-187.5 923.94,-187.5 923.94,-168.5 795.94,-168.5"/>
<text text-anchor="middle" x="859.94" y="-175.5" font-family="Helvetica,sans-Serif" font-size="10.00">llvm/Support/type_traits.h</text>
</a>
</g>
</g>
<!-- Node4&#45;&gt;Node9 -->
<g id="edge9" class="edge">
<title>Node4&#45;&gt;Node9</title>
<path fill="none" stroke="midnightblue" d="M848.25,-224.08C850.1,-216.93 852.77,-206.64 855.09,-197.69"/>
<polygon fill="midnightblue" stroke="midnightblue" points="858.55,-198.31 857.67,-187.75 851.77,-196.55 858.55,-198.31"/>
</g>
<!-- Node4&#45;&gt;Node11 -->
<g id="edge16" class="edge">
<title>Node4&#45;&gt;Node11</title>
<path fill="none" stroke="midnightblue" d="M793.27,-226.47C747.59,-219.84 680.16,-207.7 623.94,-188 605.55,-181.56 603.45,-174.05 584.94,-168 495.79,-138.88 384.48,-128.24 331.98,-124.66"/>
<polygon fill="midnightblue" stroke="midnightblue" points="332.2,-121.17 322,-124.02 331.75,-128.15 332.2,-121.17"/>
</g>
<!-- Node4&#45;&gt;Node12 -->
<g id="edge13" class="edge">
<title>Node4&#45;&gt;Node12</title>
<path fill="none" stroke="midnightblue" d="M898.47,-231.9C1063.3,-228.21 1569.71,-215.07 1754.09,-187.92"/>
<polygon fill="midnightblue" stroke="midnightblue" points="1754.84,-191.35 1764.2,-186.37 1753.78,-184.43 1754.84,-191.35"/>
</g>
<!-- Node4&#45;&gt;Node13 -->
<g id="edge14" class="edge">
<title>Node4&#45;&gt;Node13</title>
<path fill="none" stroke="midnightblue" d="M793.34,-224.5C741.49,-215.95 660.07,-202.05 589.94,-188 588.68,-187.75 587.4,-187.49 586.11,-187.22"/>
<polygon fill="midnightblue" stroke="midnightblue" points="586.66,-183.76 576.15,-185.08 585.19,-190.6 586.66,-183.76"/>
</g>
<!-- Node14 -->
<g id="node15" class="node">
<title>Node14</title>
<polygon fill="none" stroke="#bfbfbf" points="632.44,-168.5 632.44,-187.5 667.44,-187.5 667.44,-168.5 632.44,-168.5"/>
<text text-anchor="middle" x="649.94" y="-175.5" font-family="Helvetica,sans-Serif" font-size="10.00">new</text>
</g>
<!-- Node4&#45;&gt;Node14 -->
<g id="edge15" class="edge">
<title>Node4&#45;&gt;Node14</title>
<path fill="none" stroke="midnightblue" d="M811.45,-224.48C779.18,-216.36 729.44,-203.47 677.36,-187.98"/>
<polygon fill="midnightblue" stroke="midnightblue" points="678.19,-184.58 667.61,-185.06 676.18,-191.29 678.19,-184.58"/>
</g>
<!-- Node7 -->
<g id="node8" class="node">
<title>Node7</title>
<polygon fill="none" stroke="#bfbfbf" points="1564.44,-56.5 1564.44,-75.5 1689.44,-75.5 1689.44,-56.5 1564.44,-56.5"/>
<text text-anchor="middle" x="1626.94" y="-63.5" font-family="Helvetica,sans-Serif" font-size="10.00">llvm/Config/llvm&#45;config.h</text>
</g>
<!-- Node6&#45;&gt;Node7 -->
<g id="edge7" class="edge">
<title>Node6&#45;&gt;Node7</title>
<path fill="none" stroke="midnightblue" d="M1621.93,-112.08C1622.72,-104.93 1623.87,-94.64 1624.86,-85.69"/>
<polygon fill="midnightblue" stroke="midnightblue" points="1628.34,-86.08 1625.96,-75.75 1621.38,-85.3 1628.34,-86.08"/>
</g>
<!-- Node8 -->
<g id="node9" class="node">
<title>Node8</title>
<polygon fill="none" stroke="#bfbfbf" points="1493.94,-56.5 1493.94,-75.5 1545.94,-75.5 1545.94,-56.5 1493.94,-56.5"/>
<text text-anchor="middle" x="1519.94" y="-63.5" font-family="Helvetica,sans-Serif" font-size="10.00">stddef.h</text>
</g>
<!-- Node6&#45;&gt;Node8 -->
<g id="edge8" class="edge">
<title>Node6&#45;&gt;Node8</title>
<path fill="none" stroke="midnightblue" d="M1604.71,-112.32C1588.59,-103.7 1563.64,-90.36 1544.97,-80.39"/>
<polygon fill="midnightblue" stroke="midnightblue" points="1546.59,-77.28 1536.12,-75.65 1543.29,-83.46 1546.59,-77.28"/>
</g>
<!-- Node9&#45;&gt;Node6 -->
<g id="edge10" class="edge">
<title>Node9&#45;&gt;Node6</title>
<path fill="none" stroke="midnightblue" d="M924.05,-171.85C940.92,-170.55 959.11,-169.18 975.94,-168 1228,-150.33 1294.3,-156.18 1549.55,-132.07"/>
<polygon fill="midnightblue" stroke="midnightblue" points="1550.26,-135.52 1559.88,-131.09 1549.59,-128.55 1550.26,-135.52"/>
</g>
<!-- Node9&#45;&gt;Node10 -->
<g id="edge11" class="edge">
<title>Node9&#45;&gt;Node10</title>
<path fill="none" stroke="midnightblue" d="M887.67,-168.44C917.36,-159.28 964.65,-144.69 997.61,-134.52"/>
<polygon fill="midnightblue" stroke="midnightblue" points="998.81,-137.81 1007.34,-131.52 996.75,-131.12 998.81,-137.81"/>
</g>
<!-- Node9&#45;&gt;Node11 -->
<g id="edge12" class="edge">
<title>Node9&#45;&gt;Node11</title>
<path fill="none" stroke="midnightblue" d="M795.85,-168.99C792.84,-168.65 789.86,-168.32 786.94,-168 615.45,-149.48 409.34,-131.9 332.65,-125.53"/>
<polygon fill="midnightblue" stroke="midnightblue" points="332.54,-122.01 322.29,-124.67 331.96,-128.98 332.54,-122.01"/>
</g>
<!-- Node15&#45;&gt;Node10 -->
<g id="edge24" class="edge">
<title>Node15&#45;&gt;Node10</title>
<path fill="none" stroke="midnightblue" d="M637.37,-225.43C579.89,-216.14 491.7,-200.14 481.94,-188 476.37,-181.07 475.91,-174.54 481.94,-168 516.43,-130.58 870.86,-124.28 993.47,-123.21"/>
<polygon fill="midnightblue" stroke="midnightblue" points="993.61,-126.71 1003.59,-123.13 993.56,-119.71 993.61,-126.71"/>
</g>
<!-- Node15&#45;&gt;Node11 -->
<g id="edge25" class="edge">
<title>Node15&#45;&gt;Node11</title>
<path fill="none" stroke="midnightblue" d="M637.09,-224.79C593.37,-217.06 528.31,-204.24 472.94,-188 421.76,-172.99 364.14,-149.71 330.56,-135.46"/>
<polygon fill="midnightblue" stroke="midnightblue" points="331.91,-132.23 321.34,-131.52 329.16,-138.67 331.91,-132.23"/>
</g>
<!-- Node15&#45;&gt;Node16 -->
<g id="edge18" class="edge">
<title>Node15&#45;&gt;Node16</title>
<path fill="none" stroke="midnightblue" d="M637.36,-225.71C632.49,-225.09 627.62,-224.51 622.94,-224 415.54,-201.46 362.59,-207.96 154.94,-188 153.82,-187.89 152.69,-187.78 151.55,-187.67"/>
<polygon fill="midnightblue" stroke="midnightblue" points="151.49,-184.15 141.19,-186.61 150.78,-191.11 151.49,-184.15"/>
</g>
<!-- Node15&#45;&gt;Node17 -->
<g id="edge23" class="edge">
<title>Node15&#45;&gt;Node17</title>
<path fill="none" stroke="midnightblue" d="M637.25,-225.37C581.93,-216.76 489.91,-202.12 410.94,-188 300.95,-168.34 171.16,-142.25 110.87,-129.96"/>
<polygon fill="midnightblue" stroke="midnightblue" points="111.28,-126.47 100.78,-127.9 109.88,-133.33 111.28,-126.47"/>
</g>
<!-- Node15&#45;&gt;Node18 -->
<g id="edge21" class="edge">
<title>Node15&#45;&gt;Node18</title>
<path fill="none" stroke="midnightblue" d="M736.81,-226.22C817.2,-215.28 973.69,-194 1045.83,-184.18"/>
<polygon fill="midnightblue" stroke="midnightblue" points="1046.41,-187.64 1055.84,-182.82 1045.46,-180.7 1046.41,-187.64"/>
</g>
<!-- Node15&#45;&gt;Node19 -->
<g id="edge22" class="edge">
<title>Node15&#45;&gt;Node19</title>
<path fill="none" stroke="midnightblue" d="M643.18,-224.43C594.88,-214.53 522.88,-198.29 514.94,-188 509.5,-180.96 508.86,-174.48 514.94,-168 557.59,-122.52 1013.36,-141.81 1074.94,-132 1075.04,-131.98 1075.15,-131.97 1075.25,-131.95"/>
<polygon fill="midnightblue" stroke="midnightblue" points="1076.07,-135.35 1085.2,-129.97 1074.71,-128.49 1076.07,-135.35"/>
</g>
<!-- Node16&#45;&gt;Node11 -->
<g id="edge20" class="edge">
<title>Node16&#45;&gt;Node11</title>
<path fill="none" stroke="midnightblue" d="M112.59,-168.44C156.59,-157.88 230.63,-140.11 271.88,-130.21"/>
<polygon fill="midnightblue" stroke="midnightblue" points="272.96,-133.55 281.87,-127.82 271.33,-126.75 272.96,-133.55"/>
</g>
<!-- Node16&#45;&gt;Node17 -->
<g id="edge19" class="edge">
<title>Node16&#45;&gt;Node17</title>
<path fill="none" stroke="midnightblue" d="M76.94,-168.08C76.94,-161.01 76.94,-150.86 76.94,-141.99"/>
<polygon fill="midnightblue" stroke="midnightblue" points="80.44,-141.75 76.94,-131.75 73.44,-141.75 80.44,-141.75"/>
</g>
<!-- Node21&#45;&gt;Node6 -->
<g id="edge29" class="edge">
<title>Node21&#45;&gt;Node6</title>
<path fill="none" stroke="midnightblue" d="M2059.97,-224.47C2045.95,-210.07 2015.27,-181.21 1982.94,-168 1865.25,-119.9 1823.3,-146.8 1692.14,-131.96"/>
<polygon fill="midnightblue" stroke="midnightblue" points="1692.47,-128.48 1682.13,-130.77 1691.64,-135.43 1692.47,-128.48"/>
</g>
<!-- Node21&#45;&gt;Node22 -->
<g id="edge30" class="edge">
<title>Node21&#45;&gt;Node22</title>
<path fill="none" stroke="midnightblue" d="M2083.84,-224.32C2099.57,-215.74 2123.88,-202.49 2142.15,-192.52"/>
<polygon fill="midnightblue" stroke="midnightblue" points="2143.97,-195.52 2151.07,-187.65 2140.61,-189.37 2143.97,-195.52"/>
</g>
<!-- Node31 -->
<g id="node32" class="node">
<title>Node31</title>
<g id="a_node32"><a xlink:href="ValueTypes_8h.html" target="_top" xlink:title="llvm/CodeGen/ValueTypes.h">
<polygon fill="none" stroke="black" points="1686.94,-347.5 1686.94,-366.5 1828.94,-366.5 1828.94,-347.5 1686.94,-347.5"/>
<text text-anchor="middle" x="1757.94" y="-354.5" font-family="Helvetica,sans-Serif" font-size="10.00">llvm/CodeGen/ValueTypes.h</text>
</a>
</g>
</g>
<!-- Node30&#45;&gt;Node31 -->
<g id="edge58" class="edge">
<title>Node30&#45;&gt;Node31</title>
<path fill="none" stroke="midnightblue" d="M1851.94,-403.32C1833.9,-394.62 1805.89,-381.12 1785.13,-371.11"/>
<polygon fill="midnightblue" stroke="midnightblue" points="1786.41,-367.84 1775.89,-366.65 1783.37,-374.15 1786.41,-367.84"/>
</g>
<!-- Node31&#45;&gt;Node6 -->
<g id="edge59" class="edge">
<title>Node31&#45;&gt;Node6</title>
<path fill="none" stroke="midnightblue" d="M1774.76,-347.37C1788.57,-339.54 1807.76,-326.8 1819.94,-311 1858.74,-260.65 1871.55,-208.96 1822.94,-168 1811.98,-158.76 1736.2,-143.56 1680.66,-133.41"/>
<polygon fill="midnightblue" stroke="midnightblue" points="1681.01,-129.92 1670.55,-131.58 1679.77,-136.81 1681.01,-129.92"/>
</g>
<!-- Node31&#45;&gt;Node12 -->
<g id="edge88" class="edge">
<title>Node31&#45;&gt;Node12</title>
<path fill="none" stroke="midnightblue" d="M1766.43,-347.41C1783.08,-329.84 1819.39,-287.76 1830.94,-244 1833.2,-235.41 1834.2,-232.27 1830.94,-224 1826.42,-212.55 1817.47,-202.29 1808.98,-194.47"/>
<polygon fill="midnightblue" stroke="midnightblue" points="1811.02,-191.61 1801.15,-187.76 1806.47,-196.93 1811.02,-191.61"/>
</g>
<!-- Node31&#45;&gt;Node22 -->
<g id="edge90" class="edge">
<title>Node31&#45;&gt;Node22</title>
<path fill="none" stroke="midnightblue" d="M1829.38,-347.55C1938.44,-333.01 2138.31,-299.38 2180.94,-244 2191.46,-230.32 2184.92,-210.45 2177.65,-196.29"/>
<polygon fill="midnightblue" stroke="midnightblue" points="2180.68,-194.52 2172.71,-187.54 2174.58,-197.97 2180.68,-194.52"/>
</g>
<!-- Node31&#45;&gt;Node23 -->
<g id="edge89" class="edge">
<title>Node31&#45;&gt;Node23</title>
<path fill="none" stroke="midnightblue" d="M1713.13,-347.45C1673.12,-339.41 1613.11,-326.33 1561.94,-311 1498.69,-292.05 1426.76,-263.57 1387.46,-247.39"/>
<polygon fill="midnightblue" stroke="midnightblue" points="1388.77,-244.15 1378.19,-243.56 1386.09,-250.62 1388.77,-244.15"/>
</g>
<!-- Node32 -->
<g id="node33" class="node">
<title>Node32</title>
<g id="a_node33"><a xlink:href="MachineValueType_8h.html" target="_top" xlink:title="llvm/Support/MachineValue\lType.h">
<polygon fill="none" stroke="black" points="1614.94,-280.5 1614.94,-310.5 1750.94,-310.5 1750.94,-280.5 1614.94,-280.5"/>
<text text-anchor="start" x="1622.94" y="-298.5" font-family="Helvetica,sans-Serif" font-size="10.00">llvm/Support/MachineValue</text>
<text text-anchor="middle" x="1682.94" y="-287.5" font-family="Helvetica,sans-Serif" font-size="10.00">Type.h</text>
</a>
</g>
</g>
<!-- Node31&#45;&gt;Node32 -->
<g id="edge60" class="edge">
<title>Node31&#45;&gt;Node32</title>
<path fill="none" stroke="midnightblue" d="M1747.19,-347.48C1737.13,-339.49 1721.7,-327.25 1708.49,-316.77"/>
<polygon fill="midnightblue" stroke="midnightblue" points="1710.62,-314 1700.61,-310.52 1706.27,-319.48 1710.62,-314"/>
</g>
<!-- Node33 -->
<g id="node34" class="node">
<title>Node33</title>
<g id="a_node34"><a xlink:href="MathExtras_8h.html" target="_top" xlink:title="llvm/Support/MathExtras.h">
<polygon fill="none" stroke="black" points="1475.44,-224.5 1475.44,-243.5 1608.44,-243.5 1608.44,-224.5 1475.44,-224.5"/>
<text text-anchor="middle" x="1541.94" y="-231.5" font-family="Helvetica,sans-Serif" font-size="10.00">llvm/Support/MathExtras.h</text>
</a>
</g>
</g>
<!-- Node31&#45;&gt;Node33 -->
<g id="edge86" class="edge">
<title>Node31&#45;&gt;Node33</title>
<path fill="none" stroke="midnightblue" d="M1688.84,-347.47C1658.28,-341.13 1623.17,-330.12 1595.94,-311 1574.67,-296.08 1558.85,-269.99 1550,-252.61"/>
<polygon fill="midnightblue" stroke="midnightblue" points="1553.11,-251.01 1545.6,-243.53 1546.81,-254.05 1553.11,-251.01"/>
</g>
<!-- Node43 -->
<g id="node44" class="node">
<title>Node43</title>
<g id="a_node44"><a xlink:href="TypeSize_8h.html" target="_top" xlink:title="llvm/Support/TypeSize.h">
<polygon fill="none" stroke="black" points="1626.94,-224.5 1626.94,-243.5 1750.94,-243.5 1750.94,-224.5 1626.94,-224.5"/>
<text text-anchor="middle" x="1688.94" y="-231.5" font-family="Helvetica,sans-Serif" font-size="10.00">llvm/Support/TypeSize.h</text>
</a>
</g>
</g>
<!-- Node31&#45;&gt;Node43 -->
<g id="edge87" class="edge">
<title>Node31&#45;&gt;Node43</title>
<path fill="none" stroke="midnightblue" d="M1686.85,-353.03C1656.91,-347.81 1624.71,-336.14 1605.94,-311 1597.69,-299.96 1598.89,-291.84 1605.94,-280 1615.03,-264.72 1631.32,-254.31 1647.08,-247.39"/>
<polygon fill="midnightblue" stroke="midnightblue" points="1648.77,-250.48 1656.75,-243.51 1646.17,-243.98 1648.77,-250.48"/>
</g>
<!-- Node32&#45;&gt;Node12 -->
<g id="edge85" class="edge">
<title>Node32&#45;&gt;Node12</title>
<path fill="none" stroke="midnightblue" d="M1712.62,-280.32C1728.33,-271.62 1746.99,-259.22 1759.94,-244 1771.44,-230.48 1779.16,-211.68 1783.73,-197.77"/>
<polygon fill="midnightblue" stroke="midnightblue" points="1787.18,-198.45 1786.72,-187.86 1780.48,-196.42 1787.18,-198.45"/>
</g>
<!-- Node32&#45;&gt;Node16 -->
<g id="edge61" class="edge">
<title>Node32&#45;&gt;Node16</title>
<path fill="none" stroke="midnightblue" d="M1614.71,-294.99C1412.02,-295.84 815.89,-293.91 628.94,-244 610.12,-238.98 608.65,-229.4 589.94,-224 509.62,-200.85 272.93,-187.51 151.16,-182"/>
<polygon fill="midnightblue" stroke="midnightblue" points="151.31,-178.5 141.17,-181.55 151,-185.5 151.31,-178.5"/>
</g>
<!-- Node32&#45;&gt;Node21 -->
<g id="edge62" class="edge">
<title>Node32&#45;&gt;Node21</title>
<path fill="none" stroke="midnightblue" d="M1751.32,-283.93C1822.38,-272.95 1932.76,-255.89 2002.64,-245.09"/>
<polygon fill="midnightblue" stroke="midnightblue" points="2003.3,-248.53 2012.65,-243.54 2002.23,-241.61 2003.3,-248.53"/>
</g>
<!-- Node32&#45;&gt;Node33 -->
<g id="edge63" class="edge">
<title>Node32&#45;&gt;Node33</title>
<path fill="none" stroke="midnightblue" d="M1649.52,-280.4C1625.97,-270.46 1594.7,-257.26 1571.94,-247.66"/>
<polygon fill="midnightblue" stroke="midnightblue" points="1573.03,-244.32 1562.45,-243.66 1570.31,-250.77 1573.03,-244.32"/>
</g>
<!-- Node32&#45;&gt;Node43 -->
<g id="edge82" class="edge">
<title>Node32&#45;&gt;Node43</title>
<path fill="none" stroke="midnightblue" d="M1684.36,-280.4C1685.16,-272.47 1686.17,-262.46 1687.03,-253.86"/>
<polygon fill="midnightblue" stroke="midnightblue" points="1690.54,-253.96 1688.06,-243.66 1683.58,-253.26 1690.54,-253.96"/>
</g>
<!-- Node33&#45;&gt;Node6 -->
<g id="edge64" class="edge">
<title>Node33&#45;&gt;Node6</title>
<path fill="none" stroke="midnightblue" d="M1597.08,-224.42C1618.53,-218.09 1641.03,-207.1 1653.94,-188 1664.6,-172.22 1651.33,-152.54 1638.57,-138.99"/>
<polygon fill="midnightblue" stroke="midnightblue" points="1640.88,-136.34 1631.31,-131.79 1635.95,-141.32 1640.88,-136.34"/>
</g>
<!-- Node33&#45;&gt;Node10 -->
<g id="edge81" class="edge">
<title>Node33&#45;&gt;Node10</title>
<path fill="none" stroke="midnightblue" d="M1530.68,-224.33C1509.49,-208.19 1464.21,-174.59 1445.94,-168 1290.94,-112.08 1239.76,-157.3 1076.94,-132 1076.6,-131.95 1076.27,-131.9 1075.94,-131.84"/>
<polygon fill="midnightblue" stroke="midnightblue" points="1076.51,-128.39 1066.06,-130.08 1075.29,-135.28 1076.51,-128.39"/>
</g>
<!-- Node33&#45;&gt;Node12 -->
<g id="edge77" class="edge">
<title>Node33&#45;&gt;Node12</title>
<path fill="none" stroke="midnightblue" d="M1586.37,-224.45C1627.66,-216.33 1691.06,-203.41 1754.36,-188.29"/>
<polygon fill="midnightblue" stroke="midnightblue" points="1755.21,-191.68 1764.11,-185.94 1753.57,-184.88 1755.21,-191.68"/>
</g>
<!-- Node33&#45;&gt;Node18 -->
<g id="edge76" class="edge">
<title>Node33&#45;&gt;Node18</title>
<path fill="none" stroke="midnightblue" d="M1475.34,-225.15C1378.07,-213.68 1200.26,-192.72 1122.3,-183.52"/>
<polygon fill="midnightblue" stroke="midnightblue" points="1122.32,-180 1111.98,-182.31 1121.5,-186.95 1122.32,-180"/>
</g>
<!-- Node33&#45;&gt;Node27 -->
<g id="edge80" class="edge">
<title>Node33&#45;&gt;Node27</title>
<path fill="none" stroke="midnightblue" d="M1497.09,-224.44C1438.89,-213.34 1338.9,-194.26 1289.04,-184.74"/>
<polygon fill="midnightblue" stroke="midnightblue" points="1289.67,-181.3 1279.19,-182.86 1288.36,-188.18 1289.67,-181.3"/>
</g>
<!-- Node33&#45;&gt;Node29 -->
<g id="edge79" class="edge">
<title>Node33&#45;&gt;Node29</title>
<path fill="none" stroke="midnightblue" d="M1512.78,-224.44C1479.58,-214.7 1425.46,-198.82 1390.79,-188.64"/>
<polygon fill="midnightblue" stroke="midnightblue" points="1391.71,-185.26 1381.13,-185.81 1389.74,-191.98 1391.71,-185.26"/>
</g>
<!-- Node34 -->
<g id="node35" class="node">
<title>Node34</title>
<g id="a_node35"><a xlink:href="SwapByteOrder_8h.html" target="_top" xlink:title="llvm/Support/SwapByteOrder.h">
<polygon fill="none" stroke="black" points="1492.94,-168.5 1492.94,-187.5 1644.94,-187.5 1644.94,-168.5 1492.94,-168.5"/>
<text text-anchor="middle" x="1568.94" y="-175.5" font-family="Helvetica,sans-Serif" font-size="10.00">llvm/Support/SwapByteOrder.h</text>
</a>
</g>
</g>
<!-- Node33&#45;&gt;Node34 -->
<g id="edge65" class="edge">
<title>Node33&#45;&gt;Node34</title>
<path fill="none" stroke="midnightblue" d="M1546.39,-224.08C1550.09,-216.69 1555.46,-205.95 1560.03,-196.81"/>
<polygon fill="midnightblue" stroke="midnightblue" points="1563.22,-198.26 1564.56,-187.75 1556.96,-195.13 1563.22,-198.26"/>
</g>
<!-- Node42 -->
<g id="node43" class="node">
<title>Node42</title>
<polygon fill="none" stroke="#bfbfbf" points="1701.44,-168.5 1701.44,-187.5 1746.44,-187.5 1746.44,-168.5 1701.44,-168.5"/>
<text text-anchor="middle" x="1723.94" y="-175.5" font-family="Helvetica,sans-Serif" font-size="10.00">climits</text>
</g>
<!-- Node33&#45;&gt;Node42 -->
<g id="edge78" class="edge">
<title>Node33&#45;&gt;Node42</title>
<path fill="none" stroke="midnightblue" d="M1570.77,-224.44C1603.57,-214.71 1656.99,-198.86 1691.28,-188.69"/>
<polygon fill="midnightblue" stroke="midnightblue" points="1692.68,-191.93 1701.27,-185.73 1690.69,-185.21 1692.68,-191.93"/>
</g>
<!-- Node34&#45;&gt;Node6 -->
<g id="edge66" class="edge">
<title>Node34&#45;&gt;Node6</title>
<path fill="none" stroke="midnightblue" d="M1577.52,-168.08C1585.1,-160.22 1596.31,-148.57 1605.45,-139.08"/>
<polygon fill="midnightblue" stroke="midnightblue" points="1608.09,-141.38 1612.51,-131.75 1603.05,-136.53 1608.09,-141.38"/>
</g>
<!-- Node34&#45;&gt;Node10 -->
<g id="edge74" class="edge">
<title>Node34&#45;&gt;Node10</title>
<path fill="none" stroke="midnightblue" d="M1492.83,-169.33C1488.13,-168.88 1483.47,-168.43 1478.94,-168 1300.35,-151.08 1254.3,-158.84 1076.94,-132 1076.6,-131.95 1076.27,-131.9 1075.94,-131.85"/>
<polygon fill="midnightblue" stroke="midnightblue" points="1076.51,-128.39 1066.05,-130.11 1075.29,-135.29 1076.51,-128.39"/>
</g>
<!-- Node34&#45;&gt;Node19 -->
<g id="edge73" class="edge">
<title>Node34&#45;&gt;Node19</title>
<path fill="none" stroke="midnightblue" d="M1496.46,-168.47C1396.29,-156.69 1219.46,-135.89 1144.78,-127.1"/>
<polygon fill="midnightblue" stroke="midnightblue" points="1144.86,-123.58 1134.52,-125.89 1144.05,-130.54 1144.86,-123.58"/>
</g>
<!-- Node35 -->
<g id="node36" class="node">
<title>Node35</title>
<g id="a_node36"><a xlink:href="Support_2DataTypes_8h.html" target="_top" xlink:title="llvm/Support/DataTypes.h">
<polygon fill="none" stroke="black" points="1700.44,-112.5 1700.44,-131.5 1831.44,-131.5 1831.44,-112.5 1700.44,-112.5"/>
<text text-anchor="middle" x="1765.94" y="-119.5" font-family="Helvetica,sans-Serif" font-size="10.00">llvm/Support/DataTypes.h</text>
</a>
</g>
</g>
<!-- Node34&#45;&gt;Node35 -->
<g id="edge67" class="edge">
<title>Node34&#45;&gt;Node35</title>
<path fill="none" stroke="midnightblue" d="M1600.15,-168.44C1633.87,-159.2 1687.74,-144.44 1724.87,-134.26"/>
<polygon fill="midnightblue" stroke="midnightblue" points="1726.15,-137.54 1734.87,-131.52 1724.3,-130.78 1726.15,-137.54"/>
</g>
<!-- Node41 -->
<g id="node42" class="node">
<title>Node41</title>
<polygon fill="none" stroke="#bfbfbf" points="1448.44,-112.5 1448.44,-131.5 1541.44,-131.5 1541.44,-112.5 1448.44,-112.5"/>
<text text-anchor="middle" x="1494.94" y="-119.5" font-family="Helvetica,sans-Serif" font-size="10.00">machine/endian.h</text>
</g>
<!-- Node34&#45;&gt;Node41 -->
<g id="edge75" class="edge">
<title>Node34&#45;&gt;Node41</title>
<path fill="none" stroke="midnightblue" d="M1557.05,-168.32C1545.79,-160.11 1528.65,-147.6 1515.23,-137.81"/>
<polygon fill="midnightblue" stroke="midnightblue" points="1517.18,-134.9 1507.04,-131.83 1513.06,-140.56 1517.18,-134.9"/>
</g>
<!-- Node36 -->
<g id="node37" class="node">
<title>Node36</title>
<g id="a_node37"><a xlink:href="c_2DataTypes_8h.html" target="_top" xlink:title="llvm&#45;c/DataTypes.h">
<polygon fill="none" stroke="black" points="1714.94,-56.5 1714.94,-75.5 1816.94,-75.5 1816.94,-56.5 1714.94,-56.5"/>
<text text-anchor="middle" x="1765.94" y="-63.5" font-family="Helvetica,sans-Serif" font-size="10.00">llvm&#45;c/DataTypes.h</text>
</a>
</g>
</g>
<!-- Node35&#45;&gt;Node36 -->
<g id="edge68" class="edge">
<title>Node35&#45;&gt;Node36</title>
<path fill="none" stroke="midnightblue" d="M1765.94,-112.08C1765.94,-105.01 1765.94,-94.86 1765.94,-85.99"/>
<polygon fill="midnightblue" stroke="midnightblue" points="1769.44,-85.75 1765.94,-75.75 1762.44,-85.75 1769.44,-85.75"/>
</g>
<!-- Node37 -->
<g id="node38" class="node">
<title>Node37</title>
<polygon fill="none" stroke="#bfbfbf" points="1635.44,-0.5 1635.44,-19.5 1682.44,-19.5 1682.44,-0.5 1635.44,-0.5"/>
<text text-anchor="middle" x="1658.94" y="-7.5" font-family="Helvetica,sans-Serif" font-size="10.00">math.h</text>
</g>
<!-- Node36&#45;&gt;Node37 -->
<g id="edge69" class="edge">
<title>Node36&#45;&gt;Node37</title>
<path fill="none" stroke="midnightblue" d="M1748.75,-56.32C1731.59,-47.66 1704.99,-34.24 1685.19,-24.25"/>
<polygon fill="midnightblue" stroke="midnightblue" points="1686.59,-21.04 1676.09,-19.65 1683.44,-27.28 1686.59,-21.04"/>
</g>
<!-- Node38 -->
<g id="node39" class="node">
<title>Node38</title>
<polygon fill="none" stroke="#bfbfbf" points="1700.44,-0.5 1700.44,-19.5 1759.44,-19.5 1759.44,-0.5 1700.44,-0.5"/>
<text text-anchor="middle" x="1729.94" y="-7.5" font-family="Helvetica,sans-Serif" font-size="10.00">inttypes.h</text>
</g>
<!-- Node36&#45;&gt;Node38 -->
<g id="edge70" class="edge">
<title>Node36&#45;&gt;Node38</title>
<path fill="none" stroke="midnightblue" d="M1759.99,-56.08C1754.96,-48.53 1747.6,-37.49 1741.42,-28.23"/>
<polygon fill="midnightblue" stroke="midnightblue" points="1744.23,-26.13 1735.77,-19.75 1738.41,-30.01 1744.23,-26.13"/>
</g>
<!-- Node39 -->
<g id="node40" class="node">
<title>Node39</title>
<polygon fill="none" stroke="#bfbfbf" points="1777.44,-0.5 1777.44,-19.5 1826.44,-19.5 1826.44,-0.5 1777.44,-0.5"/>
<text text-anchor="middle" x="1801.94" y="-7.5" font-family="Helvetica,sans-Serif" font-size="10.00">stdint.h</text>
</g>
<!-- Node36&#45;&gt;Node39 -->
<g id="edge71" class="edge">
<title>Node36&#45;&gt;Node39</title>
<path fill="none" stroke="midnightblue" d="M1771.88,-56.08C1776.91,-48.53 1784.27,-37.49 1790.45,-28.23"/>
<polygon fill="midnightblue" stroke="midnightblue" points="1793.47,-30.01 1796.1,-19.75 1787.64,-26.13 1793.47,-30.01"/>
</g>
<!-- Node40 -->
<g id="node41" class="node">
<title>Node40</title>
<polygon fill="none" stroke="#bfbfbf" points="1844.94,-0.5 1844.94,-19.5 1912.94,-19.5 1912.94,-0.5 1844.94,-0.5"/>
<text text-anchor="middle" x="1878.94" y="-7.5" font-family="Helvetica,sans-Serif" font-size="10.00">sys/types.h</text>
</g>
<!-- Node36&#45;&gt;Node40 -->
<g id="edge72" class="edge">
<title>Node36&#45;&gt;Node40</title>
<path fill="none" stroke="midnightblue" d="M1783.84,-56.44C1802.19,-47.68 1830.94,-33.94 1852.03,-23.86"/>
<polygon fill="midnightblue" stroke="midnightblue" points="1853.6,-26.99 1861.11,-19.52 1850.58,-20.67 1853.6,-26.99"/>
</g>
<!-- Node43&#45;&gt;Node12 -->
<g id="edge83" class="edge">
<title>Node43&#45;&gt;Node12</title>
<path fill="none" stroke="midnightblue" d="M1705,-224.32C1720.89,-215.74 1745.44,-202.49 1763.89,-192.52"/>
<polygon fill="midnightblue" stroke="midnightblue" points="1765.77,-195.49 1772.91,-187.65 1762.45,-189.33 1765.77,-195.49"/>
</g>
<!-- Node43&#45;&gt;Node28 -->
<g id="edge84" class="edge">
<title>Node43&#45;&gt;Node28</title>
<path fill="none" stroke="midnightblue" d="M1646,-224.44C1590.36,-213.36 1494.83,-194.32 1447,-184.79"/>
<polygon fill="midnightblue" stroke="midnightblue" points="1447.5,-181.32 1437.01,-182.8 1446.13,-188.19 1447.5,-181.32"/>
</g>
</g>
</svg>
