<?xml version="1.0" encoding="UTF-8" standalone="no"?>
<!DOCTYPE svg PUBLIC "-//W3C//DTD SVG 1.1//EN"
 "http://www.w3.org/Graphics/SVG/1.1/DTD/svg11.dtd">
<!-- Generated by graphviz version 2.43.0 (0)
 -->
<!-- Title: lib/Target/Lanai/MCTargetDesc/LanaiInstPrinter.h Pages: 1 -->
<svg width="456pt" height="106pt"
 viewBox="0.00 0.00 456.00 106.00" xmlns="http://www.w3.org/2000/svg" xmlns:xlink="http://www.w3.org/1999/xlink">
<g id="graph0" class="graph" transform="scale(1 1) rotate(0) translate(4 102)">
<title>lib/Target/Lanai/MCTargetDesc/LanaiInstPrinter.h</title>
<!-- Node49 -->
<g id="node1" class="node">
<title>Node49</title>
<polygon fill="#bfbfbf" stroke="black" points="148,-67.5 148,-97.5 278,-97.5 278,-67.5 148,-67.5"/>
<text text-anchor="start" x="156" y="-85.5" font-family="Helvetica,sans-Serif" font-size="10.00">lib/Target/Lanai/MCTarget</text>
<text text-anchor="middle" x="213" y="-74.5" font-family="Helvetica,sans-Serif" font-size="10.00">Desc/LanaiInstPrinter.h</text>
</g>
<!-- Node50 -->
<g id="node2" class="node">
<title>Node50</title>
<g id="a_node2"><a xlink:href="LanaiAsmPrinter_8cpp.html" target="_top" xlink:title="lib/Target/Lanai/LanaiAsm\lPrinter.cpp">
<polygon fill="none" stroke="black" points="0,-0.5 0,-30.5 130,-30.5 130,-0.5 0,-0.5"/>
<text text-anchor="start" x="8" y="-18.5" font-family="Helvetica,sans-Serif" font-size="10.00">lib/Target/Lanai/LanaiAsm</text>
<text text-anchor="middle" x="65" y="-7.5" font-family="Helvetica,sans-Serif" font-size="10.00">Printer.cpp</text>
</a>
</g>
</g>
<!-- Node49&#45;&gt;Node50 -->
<g id="edge1" class="edge">
<title>Node49&#45;&gt;Node50</title>
<path fill="none" stroke="midnightblue" d="M171.49,-63.27C147.92,-52.92 118.86,-40.15 97.05,-30.58"/>
<polygon fill="midnightblue" stroke="midnightblue" points="170.32,-66.58 180.89,-67.4 173.14,-60.17 170.32,-66.58"/>
</g>
<!-- Node51 -->
<g id="node3" class="node">
<title>Node51</title>
<g id="a_node3"><a xlink:href="LanaiInstPrinter_8cpp.html" target="_top" xlink:title="lib/Target/Lanai/MCTarget\lDesc/LanaiInstPrinter.cpp">
<polygon fill="none" stroke="black" points="148,-0.5 148,-30.5 278,-30.5 278,-0.5 148,-0.5"/>
<text text-anchor="start" x="156" y="-18.5" font-family="Helvetica,sans-Serif" font-size="10.00">lib/Target/Lanai/MCTarget</text>
<text text-anchor="middle" x="213" y="-7.5" font-family="Helvetica,sans-Serif" font-size="10.00">Desc/LanaiInstPrinter.cpp</text>
</a>
</g>
</g>
<!-- Node49&#45;&gt;Node51 -->
<g id="edge2" class="edge">
<title>Node49&#45;&gt;Node51</title>
<path fill="none" stroke="midnightblue" d="M213,-57.11C213,-48.15 213,-38.32 213,-30.58"/>
<polygon fill="midnightblue" stroke="midnightblue" points="209.5,-57.4 213,-67.4 216.5,-57.4 209.5,-57.4"/>
</g>
<!-- Node52 -->
<g id="node4" class="node">
<title>Node52</title>
<g id="a_node4"><a xlink:href="LanaiMCTargetDesc_8cpp.html" target="_top" xlink:title="lib/Target/Lanai/MCTarget\lDesc/LanaiMCTargetDesc.cpp">
<polygon fill="none" stroke="black" points="296,-0.5 296,-30.5 448,-30.5 448,-0.5 296,-0.5"/>
<text text-anchor="start" x="304" y="-18.5" font-family="Helvetica,sans-Serif" font-size="10.00">lib/Target/Lanai/MCTarget</text>
<text text-anchor="middle" x="372" y="-7.5" font-family="Helvetica,sans-Serif" font-size="10.00">Desc/LanaiMCTargetDesc.cpp</text>
</a>
</g>
</g>
<!-- Node49&#45;&gt;Node52 -->
<g id="edge3" class="edge">
<title>Node49&#45;&gt;Node52</title>
<path fill="none" stroke="midnightblue" d="M256.92,-63.54C282.37,-53.14 313.93,-40.24 337.57,-30.58"/>
<polygon fill="midnightblue" stroke="midnightblue" points="255.43,-60.37 247.5,-67.4 258.08,-66.85 255.43,-60.37"/>
</g>
</g>
</svg>
