<?xml version="1.0" encoding="UTF-8" standalone="no"?>
<!DOCTYPE svg PUBLIC "-//W3C//DTD SVG 1.1//EN"
 "http://www.w3.org/Graphics/SVG/1.1/DTD/svg11.dtd">
<!-- Generated by graphviz version 2.43.0 (0)
 -->
<!-- Title: lib/Target/Lanai/MCTargetDesc/LanaiMCExpr.h Pages: 1 -->
<svg width="774pt" height="106pt"
 viewBox="0.00 0.00 773.50 106.00" xmlns="http://www.w3.org/2000/svg" xmlns:xlink="http://www.w3.org/1999/xlink">
<g id="graph0" class="graph" transform="scale(1 1) rotate(0) translate(4 102)">
<title>lib/Target/Lanai/MCTargetDesc/LanaiMCExpr.h</title>
<!-- Node69 -->
<g id="node1" class="node">
<title>Node69</title>
<polygon fill="#bfbfbf" stroke="black" points="313.5,-67.5 313.5,-97.5 443.5,-97.5 443.5,-67.5 313.5,-67.5"/>
<text text-anchor="start" x="321.5" y="-85.5" font-family="Helvetica,sans-Serif" font-size="10.00">lib/Target/Lanai/MCTarget</text>
<text text-anchor="middle" x="378.5" y="-74.5" font-family="Helvetica,sans-Serif" font-size="10.00">Desc/LanaiMCExpr.h</text>
</g>
<!-- Node70 -->
<g id="node2" class="node">
<title>Node70</title>
<g id="a_node2"><a xlink:href="LanaiAsmParser_8cpp.html" target="_top" xlink:title="lib/Target/Lanai/AsmParser\l/LanaiAsmParser.cpp">
<polygon fill="none" stroke="black" points="0,-0.5 0,-30.5 135,-30.5 135,-0.5 0,-0.5"/>
<text text-anchor="start" x="8" y="-18.5" font-family="Helvetica,sans-Serif" font-size="10.00">lib/Target/Lanai/AsmParser</text>
<text text-anchor="middle" x="67.5" y="-7.5" font-family="Helvetica,sans-Serif" font-size="10.00">/LanaiAsmParser.cpp</text>
</a>
</g>
</g>
<!-- Node69&#45;&gt;Node70 -->
<g id="edge1" class="edge">
<title>Node69&#45;&gt;Node70</title>
<path fill="none" stroke="midnightblue" d="M303.23,-65.77C251.75,-55.01 184.11,-40.87 134.49,-30.5"/>
<polygon fill="midnightblue" stroke="midnightblue" points="302.8,-69.25 313.3,-67.87 304.23,-62.4 302.8,-69.25"/>
</g>
<!-- Node71 -->
<g id="node3" class="node">
<title>Node71</title>
<g id="a_node3"><a xlink:href="LanaiMCInstLower_8cpp.html" target="_top" xlink:title="lib/Target/Lanai/LanaiMCInst\lLower.cpp">
<polygon fill="none" stroke="black" points="153.5,-0.5 153.5,-30.5 295.5,-30.5 295.5,-0.5 153.5,-0.5"/>
<text text-anchor="start" x="161.5" y="-18.5" font-family="Helvetica,sans-Serif" font-size="10.00">lib/Target/Lanai/LanaiMCInst</text>
<text text-anchor="middle" x="224.5" y="-7.5" font-family="Helvetica,sans-Serif" font-size="10.00">Lower.cpp</text>
</a>
</g>
</g>
<!-- Node69&#45;&gt;Node71 -->
<g id="edge2" class="edge">
<title>Node69&#45;&gt;Node71</title>
<path fill="none" stroke="midnightblue" d="M335.63,-63.41C311.05,-53.03 280.64,-40.2 257.85,-30.58"/>
<polygon fill="midnightblue" stroke="midnightblue" points="334.51,-66.73 345.08,-67.4 337.23,-60.28 334.51,-66.73"/>
</g>
<!-- Node72 -->
<g id="node4" class="node">
<title>Node72</title>
<g id="a_node4"><a xlink:href="LanaiInstPrinter_8cpp.html" target="_top" xlink:title="lib/Target/Lanai/MCTarget\lDesc/LanaiInstPrinter.cpp">
<polygon fill="none" stroke="black" points="313.5,-0.5 313.5,-30.5 443.5,-30.5 443.5,-0.5 313.5,-0.5"/>
<text text-anchor="start" x="321.5" y="-18.5" font-family="Helvetica,sans-Serif" font-size="10.00">lib/Target/Lanai/MCTarget</text>
<text text-anchor="middle" x="378.5" y="-7.5" font-family="Helvetica,sans-Serif" font-size="10.00">Desc/LanaiInstPrinter.cpp</text>
</a>
</g>
</g>
<!-- Node69&#45;&gt;Node72 -->
<g id="edge3" class="edge">
<title>Node69&#45;&gt;Node72</title>
<path fill="none" stroke="midnightblue" d="M378.5,-57.11C378.5,-48.15 378.5,-38.32 378.5,-30.58"/>
<polygon fill="midnightblue" stroke="midnightblue" points="375,-57.4 378.5,-67.4 382,-57.4 375,-57.4"/>
</g>
<!-- Node73 -->
<g id="node5" class="node">
<title>Node73</title>
<g id="a_node5"><a xlink:href="LanaiMCCodeEmitter_8cpp.html" target="_top" xlink:title="lib/Target/Lanai/MCTarget\lDesc/LanaiMCCodeEmitter.cpp">
<polygon fill="none" stroke="black" points="462,-0.5 462,-30.5 617,-30.5 617,-0.5 462,-0.5"/>
<text text-anchor="start" x="470" y="-18.5" font-family="Helvetica,sans-Serif" font-size="10.00">lib/Target/Lanai/MCTarget</text>
<text text-anchor="middle" x="539.5" y="-7.5" font-family="Helvetica,sans-Serif" font-size="10.00">Desc/LanaiMCCodeEmitter.cpp</text>
</a>
</g>
</g>
<!-- Node69&#45;&gt;Node73 -->
<g id="edge4" class="edge">
<title>Node69&#45;&gt;Node73</title>
<path fill="none" stroke="midnightblue" d="M422.98,-63.54C448.74,-53.14 480.7,-40.24 504.63,-30.58"/>
<polygon fill="midnightblue" stroke="midnightblue" points="421.4,-60.41 413.43,-67.4 424.02,-66.9 421.4,-60.41"/>
</g>
<!-- Node74 -->
<g id="node6" class="node">
<title>Node74</title>
<g id="a_node6"><a xlink:href="LanaiMCExpr_8cpp.html" target="_top" xlink:title="lib/Target/Lanai/MCTarget\lDesc/LanaiMCExpr.cpp">
<polygon fill="none" stroke="black" points="635.5,-0.5 635.5,-30.5 765.5,-30.5 765.5,-0.5 635.5,-0.5"/>
<text text-anchor="start" x="643.5" y="-18.5" font-family="Helvetica,sans-Serif" font-size="10.00">lib/Target/Lanai/MCTarget</text>
<text text-anchor="middle" x="700.5" y="-7.5" font-family="Helvetica,sans-Serif" font-size="10.00">Desc/LanaiMCExpr.cpp</text>
</a>
</g>
</g>
<!-- Node69&#45;&gt;Node74 -->
<g id="edge5" class="edge">
<title>Node69&#45;&gt;Node74</title>
<path fill="none" stroke="midnightblue" d="M453.72,-66.32C508.83,-55.19 582.87,-40.25 635.44,-29.63"/>
<polygon fill="midnightblue" stroke="midnightblue" points="452.77,-62.94 443.66,-68.35 454.16,-69.8 452.77,-62.94"/>
</g>
</g>
</svg>
