<?xml version="1.0" encoding="UTF-8" standalone="no"?>
<!DOCTYPE svg PUBLIC "-//W3C//DTD SVG 1.1//EN"
 "http://www.w3.org/Graphics/SVG/1.1/DTD/svg11.dtd">
<!-- Generated by graphviz version 2.43.0 (0)
 -->
<!-- Title: lib/MC/MCDisassembler/Disassembler.h Pages: 1 -->
<svg width="4146pt" height="565pt"
 viewBox="0.00 0.00 4145.60 565.00" xmlns="http://www.w3.org/2000/svg" xmlns:xlink="http://www.w3.org/1999/xlink">
<g id="graph0" class="graph" transform="scale(1 1) rotate(0) translate(4 561)">
<title>lib/MC/MCDisassembler/Disassembler.h</title>
<!-- Node0 -->
<g id="node1" class="node">
<title>Node0</title>
<polygon fill="#bfbfbf" stroke="black" points="1600.5,-526.5 1600.5,-556.5 1724.5,-556.5 1724.5,-526.5 1600.5,-526.5"/>
<text text-anchor="start" x="1608.5" y="-544.5" font-family="Helvetica,sans-Serif" font-size="10.00">lib/MC/MCDisassembler</text>
<text text-anchor="middle" x="1662.5" y="-533.5" font-family="Helvetica,sans-Serif" font-size="10.00">/Disassembler.h</text>
</g>
<!-- Node1 -->
<g id="node2" class="node">
<title>Node1</title>
<g id="a_node2"><a xlink:href="include_2llvm-c_2Disassembler_8h.html" target="_top" xlink:title="llvm&#45;c/Disassembler.h">
<polygon fill="none" stroke="black" points="141.5,-470.5 141.5,-489.5 255.5,-489.5 255.5,-470.5 141.5,-470.5"/>
<text text-anchor="middle" x="198.5" y="-477.5" font-family="Helvetica,sans-Serif" font-size="10.00">llvm&#45;c/Disassembler.h</text>
</a>
</g>
</g>
<!-- Node0&#45;&gt;Node1 -->
<g id="edge1" class="edge">
<title>Node0&#45;&gt;Node1</title>
<path fill="none" stroke="midnightblue" d="M1600.25,-540.23C1404.24,-538.97 782.36,-531.72 269.5,-490 268.39,-489.91 267.26,-489.81 266.13,-489.71"/>
<polygon fill="midnightblue" stroke="midnightblue" points="266.1,-486.19 255.81,-488.71 265.42,-493.16 266.1,-486.19"/>
</g>
<!-- Node10 -->
<g id="node5" class="node">
<title>Node10</title>
<g id="a_node5"><a xlink:href="SmallString_8h.html" target="_top" xlink:title="llvm/ADT/SmallString.h">
<polygon fill="none" stroke="black" points="2966,-241 2966,-260 3085,-260 3085,-241 2966,-241"/>
<text text-anchor="middle" x="3025.5" y="-248" font-family="Helvetica,sans-Serif" font-size="10.00">llvm/ADT/SmallString.h</text>
</a>
</g>
</g>
<!-- Node0&#45;&gt;Node10 -->
<g id="edge4" class="edge">
<title>Node0&#45;&gt;Node10</title>
<path fill="none" stroke="midnightblue" d="M1724.52,-538.65C1994.45,-530.18 3053.5,-492.66 3053.5,-425 3053.5,-425 3053.5,-425 3053.5,-367 3053.5,-331.71 3041,-292.03 3032.71,-269.57"/>
<polygon fill="midnightblue" stroke="midnightblue" points="3035.9,-268.1 3029.05,-260.02 3029.36,-270.61 3035.9,-268.1"/>
</g>
<!-- Node14 -->
<g id="node9" class="node">
<title>Node14</title>
<polygon fill="none" stroke="#bfbfbf" points="2236.5,-0.5 2236.5,-19.5 2276.5,-19.5 2276.5,-0.5 2236.5,-0.5"/>
<text text-anchor="middle" x="2256.5" y="-7.5" font-family="Helvetica,sans-Serif" font-size="10.00">utility</text>
</g>
<!-- Node0&#45;&gt;Node14 -->
<g id="edge198" class="edge">
<title>Node0&#45;&gt;Node14</title>
<path fill="none" stroke="midnightblue" d="M1600.2,-539.31C1396.5,-535.15 751.54,-519.91 545.5,-490 426.77,-472.76 283.5,-544.97 283.5,-425 283.5,-425 283.5,-425 283.5,-121 283.5,-103.6 -55.38,-146.68 483.5,-56 661.91,-25.98 2007.18,-13.15 2226.36,-11.25"/>
<polygon fill="midnightblue" stroke="midnightblue" points="2226.51,-14.75 2236.48,-11.17 2226.45,-7.75 2226.51,-14.75"/>
</g>
<!-- Node31 -->
<g id="node16" class="node">
<title>Node31</title>
<polygon fill="none" stroke="#bfbfbf" points="1912,-112.5 1912,-131.5 1953,-131.5 1953,-112.5 1912,-112.5"/>
<text text-anchor="middle" x="1932.5" y="-119.5" font-family="Helvetica,sans-Serif" font-size="10.00">string</text>
</g>
<!-- Node0&#45;&gt;Node31 -->
<g id="edge197" class="edge">
<title>Node0&#45;&gt;Node31</title>
<path fill="none" stroke="midnightblue" d="M1600.35,-538.47C1520.7,-534.55 1378.97,-523.14 1262.5,-490 1143.53,-456.15 994.62,-479.55 1017.5,-358 1028.35,-300.33 1018.8,-270.54 1065.5,-235 1127.9,-187.52 1340.66,-218.93 1416.5,-199 1449.8,-190.25 1454.19,-176.73 1487.5,-168 1566.28,-147.36 1814.7,-130.33 1901.89,-124.85"/>
<polygon fill="midnightblue" stroke="midnightblue" points="1902.17,-128.34 1911.93,-124.23 1901.74,-121.36 1902.17,-128.34"/>
</g>
<!-- Node46 -->
<g id="node17" class="node">
<title>Node46</title>
<g id="a_node17"><a xlink:href="MCAsmInfo_8h.html" target="_top" xlink:title="llvm/MC/MCAsmInfo.h">
<polygon fill="none" stroke="black" points="624,-241 624,-260 741,-260 741,-241 624,-241"/>
<text text-anchor="middle" x="682.5" y="-248" font-family="Helvetica,sans-Serif" font-size="10.00">llvm/MC/MCAsmInfo.h</text>
</a>
</g>
</g>
<!-- Node0&#45;&gt;Node46 -->
<g id="edge25" class="edge">
<title>Node0&#45;&gt;Node46</title>
<path fill="none" stroke="midnightblue" d="M1600.09,-538.28C1340.48,-528.64 359.5,-488.06 359.5,-425 359.5,-425 359.5,-425 359.5,-367 359.5,-313.27 519.94,-277.91 614.67,-261.71"/>
<polygon fill="midnightblue" stroke="midnightblue" points="615.47,-265.12 624.75,-260.01 614.31,-258.22 615.47,-265.12"/>
</g>
<!-- Node50 -->
<g id="node21" class="node">
<title>Node50</title>
<g id="a_node21"><a xlink:href="MCContext_8h.html" target="_top" xlink:title="llvm/MC/MCContext.h">
<polygon fill="none" stroke="black" points="1966,-414.5 1966,-433.5 2081,-433.5 2081,-414.5 1966,-414.5"/>
<text text-anchor="middle" x="2023.5" y="-421.5" font-family="Helvetica,sans-Serif" font-size="10.00">llvm/MC/MCContext.h</text>
</a>
</g>
</g>
<!-- Node0&#45;&gt;Node50 -->
<g id="edge32" class="edge">
<title>Node0&#45;&gt;Node50</title>
<path fill="none" stroke="midnightblue" d="M1706.4,-526.45C1778.43,-503.41 1920.35,-458 1987.13,-436.64"/>
<polygon fill="midnightblue" stroke="midnightblue" points="1988.34,-439.92 1996.8,-433.54 1986.21,-433.26 1988.34,-439.92"/>
</g>
<!-- Node71 -->
<g id="node38" class="node">
<title>Node71</title>
<g id="a_node38"><a xlink:href="raw__ostream_8h.html" target="_top" xlink:title="llvm/Support/raw_ostream.h">
<polygon fill="none" stroke="red" points="3142,-241 3142,-260 3281,-260 3281,-241 3142,-241"/>
<text text-anchor="middle" x="3211.5" y="-248" font-family="Helvetica,sans-Serif" font-size="10.00">llvm/Support/raw_ostream.h</text>
</a>
</g>
</g>
<!-- Node0&#45;&gt;Node71 -->
<g id="edge196" class="edge">
<title>Node0&#45;&gt;Node71</title>
<path fill="none" stroke="midnightblue" d="M1724.9,-539.15C2013.57,-532.52 3205.5,-500.55 3205.5,-425 3205.5,-425 3205.5,-425 3205.5,-367 3205.5,-332.82 3208.15,-293.02 3209.93,-270.19"/>
<polygon fill="midnightblue" stroke="midnightblue" points="3213.42,-270.43 3210.74,-260.19 3206.45,-269.87 3213.42,-270.43"/>
</g>
<!-- Node104 -->
<g id="node40" class="node">
<title>Node104</title>
<g id="a_node40"><a xlink:href="MCSubtargetInfo_8h.html" target="_top" xlink:title="llvm/MC/MCSubtargetInfo.h">
<polygon fill="none" stroke="red" points="1027,-358.5 1027,-377.5 1166,-377.5 1166,-358.5 1027,-358.5"/>
<text text-anchor="middle" x="1096.5" y="-365.5" font-family="Helvetica,sans-Serif" font-size="10.00">llvm/MC/MCSubtargetInfo.h</text>
</a>
</g>
</g>
<!-- Node0&#45;&gt;Node104 -->
<g id="edge195" class="edge">
<title>Node0&#45;&gt;Node104</title>
<path fill="none" stroke="midnightblue" d="M1600.46,-538.17C1529.81,-534 1411.71,-522.38 1315.5,-490 1237.32,-463.69 1154.61,-409.83 1117.12,-383.77"/>
<polygon fill="midnightblue" stroke="midnightblue" points="1118.79,-380.66 1108.59,-377.78 1114.76,-386.39 1118.79,-380.66"/>
</g>
<!-- Node110 -->
<g id="node43" class="node">
<title>Node110</title>
<g id="a_node43"><a xlink:href="MCDisassembler_8h.html" target="_top" xlink:title="llvm/MC/MCDisassembler\l/MCDisassembler.h">
<polygon fill="none" stroke="black" points="3413.5,-235.5 3413.5,-265.5 3545.5,-265.5 3545.5,-235.5 3413.5,-235.5"/>
<text text-anchor="start" x="3421.5" y="-253.5" font-family="Helvetica,sans-Serif" font-size="10.00">llvm/MC/MCDisassembler</text>
<text text-anchor="middle" x="3479.5" y="-242.5" font-family="Helvetica,sans-Serif" font-size="10.00">/MCDisassembler.h</text>
</a>
</g>
</g>
<!-- Node0&#45;&gt;Node110 -->
<g id="edge166" class="edge">
<title>Node0&#45;&gt;Node110</title>
<path fill="none" stroke="midnightblue" d="M1724.51,-539.65C2032.56,-535.02 3383.5,-509.9 3383.5,-425 3383.5,-425 3383.5,-425 3383.5,-367 3383.5,-326.12 3419.51,-291.99 3447.42,-271.68"/>
<polygon fill="midnightblue" stroke="midnightblue" points="3449.59,-274.43 3455.77,-265.83 3445.57,-268.7 3449.59,-274.43"/>
</g>
<!-- Node113 -->
<g id="node45" class="node">
<title>Node113</title>
<g id="a_node45"><a xlink:href="MCInstPrinter_8h.html" target="_top" xlink:title="llvm/MC/MCInstPrinter.h">
<polygon fill="none" stroke="black" points="1241,-302.5 1241,-321.5 1366,-321.5 1366,-302.5 1241,-302.5"/>
<text text-anchor="middle" x="1303.5" y="-309.5" font-family="Helvetica,sans-Serif" font-size="10.00">llvm/MC/MCInstPrinter.h</text>
</a>
</g>
</g>
<!-- Node0&#45;&gt;Node113 -->
<g id="edge173" class="edge">
<title>Node0&#45;&gt;Node113</title>
<path fill="none" stroke="midnightblue" d="M1640.31,-526.44C1576.06,-485.72 1390.3,-368.01 1325.85,-327.16"/>
<polygon fill="midnightblue" stroke="midnightblue" points="1327.57,-324.11 1317.25,-321.71 1323.82,-330.02 1327.57,-324.11"/>
</g>
<!-- Node114 -->
<g id="node46" class="node">
<title>Node114</title>
<g id="a_node46"><a xlink:href="MCInstrInfo_8h.html" target="_top" xlink:title="llvm/MC/MCInstrInfo.h">
<polygon fill="none" stroke="black" points="3515.5,-470.5 3515.5,-489.5 3631.5,-489.5 3631.5,-470.5 3515.5,-470.5"/>
<text text-anchor="middle" x="3573.5" y="-477.5" font-family="Helvetica,sans-Serif" font-size="10.00">llvm/MC/MCInstrInfo.h</text>
</a>
</g>
</g>
<!-- Node0&#45;&gt;Node114 -->
<g id="edge176" class="edge">
<title>Node0&#45;&gt;Node114</title>
<path fill="none" stroke="midnightblue" d="M1724.76,-539.18C1949.96,-534.31 2743.36,-516.24 3397.5,-490 3432.95,-488.58 3472.39,-486.6 3504.94,-484.86"/>
<polygon fill="midnightblue" stroke="midnightblue" points="3505.45,-488.33 3515.25,-484.3 3505.07,-481.34 3505.45,-488.33"/>
</g>
<!-- Node116 -->
<g id="node48" class="node">
<title>Node116</title>
<g id="a_node48"><a xlink:href="MCRegisterInfo_8h.html" target="_top" xlink:title="llvm/MC/MCRegisterInfo.h">
<polygon fill="none" stroke="black" points="3707.5,-358.5 3707.5,-377.5 3841.5,-377.5 3841.5,-358.5 3707.5,-358.5"/>
<text text-anchor="middle" x="3774.5" y="-365.5" font-family="Helvetica,sans-Serif" font-size="10.00">llvm/MC/MCRegisterInfo.h</text>
</a>
</g>
</g>
<!-- Node0&#45;&gt;Node116 -->
<g id="edge194" class="edge">
<title>Node0&#45;&gt;Node116</title>
<path fill="none" stroke="midnightblue" d="M1724.64,-540.78C2039.72,-541.97 3453.02,-544.2 3640.5,-490 3687.22,-476.5 3699.87,-468.14 3734.5,-434 3748.32,-420.38 3759.42,-401.07 3766.39,-387.04"/>
<polygon fill="midnightblue" stroke="midnightblue" points="3769.59,-388.45 3770.71,-377.91 3763.27,-385.45 3769.59,-388.45"/>
</g>
<!-- Node2 -->
<g id="node3" class="node">
<title>Node2</title>
<g id="a_node3"><a xlink:href="DisassemblerTypes_8h.html" target="_top" xlink:title="llvm&#45;c/DisassemblerTypes.h">
<polygon fill="none" stroke="red" points="0,-414.5 0,-433.5 141,-433.5 141,-414.5 0,-414.5"/>
<text text-anchor="middle" x="70.5" y="-421.5" font-family="Helvetica,sans-Serif" font-size="10.00">llvm&#45;c/DisassemblerTypes.h</text>
</a>
</g>
</g>
<!-- Node1&#45;&gt;Node2 -->
<g id="edge2" class="edge">
<title>Node1&#45;&gt;Node2</title>
<path fill="none" stroke="midnightblue" d="M178.22,-470.44C157.15,-461.56 123.98,-447.56 100.01,-437.45"/>
<polygon fill="midnightblue" stroke="midnightblue" points="101.26,-434.18 90.69,-433.52 98.54,-440.63 101.26,-434.18"/>
</g>
<!-- Node9 -->
<g id="node4" class="node">
<title>Node9</title>
<g id="a_node4"><a xlink:href="ExternC_8h.html" target="_top" xlink:title="llvm&#45;c/ExternC.h">
<polygon fill="none" stroke="black" points="159.5,-414.5 159.5,-433.5 249.5,-433.5 249.5,-414.5 159.5,-414.5"/>
<text text-anchor="middle" x="204.5" y="-421.5" font-family="Helvetica,sans-Serif" font-size="10.00">llvm&#45;c/ExternC.h</text>
</a>
</g>
</g>
<!-- Node1&#45;&gt;Node9 -->
<g id="edge3" class="edge">
<title>Node1&#45;&gt;Node9</title>
<path fill="none" stroke="midnightblue" d="M199.49,-470.08C200.29,-462.93 201.43,-452.64 202.42,-443.69"/>
<polygon fill="midnightblue" stroke="midnightblue" points="205.9,-444.08 203.53,-433.75 198.94,-443.3 205.9,-444.08"/>
</g>
<!-- Node11 -->
<g id="node6" class="node">
<title>Node11</title>
<g id="a_node6"><a xlink:href="SmallVector_8h.html" target="_top" xlink:title="llvm/ADT/SmallVector.h">
<polygon fill="none" stroke="red" points="3023.5,-112.5 3023.5,-131.5 3145.5,-131.5 3145.5,-112.5 3023.5,-112.5"/>
<text text-anchor="middle" x="3084.5" y="-119.5" font-family="Helvetica,sans-Serif" font-size="10.00">llvm/ADT/SmallVector.h</text>
</a>
</g>
</g>
<!-- Node10&#45;&gt;Node11 -->
<g id="edge5" class="edge">
<title>Node10&#45;&gt;Node11</title>
<path fill="none" stroke="midnightblue" d="M3042.27,-240.89C3056.74,-232.42 3076.65,-218.01 3085.5,-199 3093.83,-181.09 3092.08,-158.15 3089.19,-142.17"/>
<polygon fill="midnightblue" stroke="midnightblue" points="3092.51,-141 3087.01,-131.95 3085.67,-142.46 3092.51,-141"/>
</g>
<!-- Node18 -->
<g id="node13" class="node">
<title>Node18</title>
<polygon fill="none" stroke="#bfbfbf" points="3167,-56.5 3167,-75.5 3216,-75.5 3216,-56.5 3167,-56.5"/>
<text text-anchor="middle" x="3191.5" y="-63.5" font-family="Helvetica,sans-Serif" font-size="10.00">cstddef</text>
</g>
<!-- Node10&#45;&gt;Node18 -->
<g id="edge24" class="edge">
<title>Node10&#45;&gt;Node18</title>
<path fill="none" stroke="midnightblue" d="M3085.16,-241C3100.56,-238.92 3117.14,-236.78 3132.5,-235 3173.97,-230.2 3478.43,-229.9 3506.5,-199 3561.58,-138.36 3469.74,-133.79 3412.5,-112 3336.34,-83.01 3309.97,-93.94 3226.27,-75.99"/>
<polygon fill="midnightblue" stroke="midnightblue" points="3226.85,-72.54 3216.33,-73.78 3225.34,-79.37 3226.85,-72.54"/>
</g>
<!-- Node37 -->
<g id="node15" class="node">
<title>Node37</title>
<g id="a_node15"><a xlink:href="StringRef_8h.html" target="_top" xlink:title="llvm/ADT/StringRef.h">
<polygon fill="none" stroke="red" points="1691.5,-174 1691.5,-193 1801.5,-193 1801.5,-174 1691.5,-174"/>
<text text-anchor="middle" x="1746.5" y="-181" font-family="Helvetica,sans-Serif" font-size="10.00">llvm/ADT/StringRef.h</text>
</a>
</g>
</g>
<!-- Node10&#45;&gt;Node37 -->
<g id="edge16" class="edge">
<title>Node10&#45;&gt;Node37</title>
<path fill="none" stroke="midnightblue" d="M2965.89,-242.84C2939.46,-240.08 2907.96,-237.05 2879.5,-235 2669.59,-219.91 2020.24,-194.81 1811.7,-186.94"/>
<polygon fill="midnightblue" stroke="midnightblue" points="1811.64,-183.43 1801.52,-186.55 1811.38,-190.43 1811.64,-183.43"/>
</g>
<!-- Node12 -->
<g id="node7" class="node">
<title>Node12</title>
<g id="a_node7"><a xlink:href="iterator__range_8h.html" target="_top" xlink:title="This provides a very simple, boring adaptor for a begin and end iterator into a range type...">
<polygon fill="none" stroke="black" points="3234.5,-56.5 3234.5,-75.5 3362.5,-75.5 3362.5,-56.5 3234.5,-56.5"/>
<text text-anchor="middle" x="3298.5" y="-63.5" font-family="Helvetica,sans-Serif" font-size="10.00">llvm/ADT/iterator_range.h</text>
</a>
</g>
</g>
<!-- Node11&#45;&gt;Node12 -->
<g id="edge6" class="edge">
<title>Node11&#45;&gt;Node12</title>
<path fill="none" stroke="midnightblue" d="M3118.41,-112.44C3155.35,-103.12 3214.55,-88.18 3254.92,-78"/>
<polygon fill="midnightblue" stroke="midnightblue" points="3255.91,-81.36 3264.75,-75.52 3254.2,-74.57 3255.91,-81.36"/>
</g>
<!-- Node13 -->
<g id="node8" class="node">
<title>Node13</title>
<polygon fill="none" stroke="#bfbfbf" points="3115,-0.5 3115,-19.5 3162,-19.5 3162,-0.5 3115,-0.5"/>
<text text-anchor="middle" x="3138.5" y="-7.5" font-family="Helvetica,sans-Serif" font-size="10.00">iterator</text>
</g>
<!-- Node11&#45;&gt;Node13 -->
<g id="edge13" class="edge">
<title>Node11&#45;&gt;Node13</title>
<path fill="none" stroke="midnightblue" d="M3092.83,-112.39C3100.72,-103.8 3112.38,-89.92 3119.5,-76 3127.03,-61.28 3132.02,-43.12 3134.99,-29.74"/>
<polygon fill="midnightblue" stroke="midnightblue" points="3138.44,-30.3 3137.02,-19.8 3131.59,-28.9 3138.44,-30.3"/>
</g>
<!-- Node11&#45;&gt;Node14 -->
<g id="edge15" class="edge">
<title>Node11&#45;&gt;Node14</title>
<path fill="none" stroke="midnightblue" d="M3073.11,-112.28C3053.17,-97.58 3010.13,-68.28 2968.5,-56 2837.75,-17.42 2405.42,-11.92 2286.82,-11.13"/>
<polygon fill="midnightblue" stroke="midnightblue" points="2286.67,-7.63 2276.65,-11.07 2286.63,-14.63 2286.67,-7.63"/>
</g>
<!-- Node16 -->
<g id="node10" class="node">
<title>Node16</title>
<g id="a_node10"><a xlink:href="Compiler_8h.html" target="_top" xlink:title="llvm/Support/Compiler.h">
<polygon fill="none" stroke="red" points="1632.5,-56.5 1632.5,-75.5 1754.5,-75.5 1754.5,-56.5 1632.5,-56.5"/>
<text text-anchor="middle" x="1693.5" y="-63.5" font-family="Helvetica,sans-Serif" font-size="10.00">llvm/Support/Compiler.h</text>
</a>
</g>
</g>
<!-- Node11&#45;&gt;Node16 -->
<g id="edge9" class="edge">
<title>Node11&#45;&gt;Node16</title>
<path fill="none" stroke="midnightblue" d="M3023.42,-115.37C3008.11,-114.1 2991.71,-112.88 2976.5,-112 2482.4,-83.44 2357.98,-97.08 1863.5,-76 1831.13,-74.62 1795.32,-72.77 1764.94,-71.11"/>
<polygon fill="midnightblue" stroke="midnightblue" points="1765.04,-67.61 1754.86,-70.55 1764.65,-74.6 1765.04,-67.61"/>
</g>
<!-- Node24 -->
<g id="node11" class="node">
<title>Node24</title>
<polygon fill="none" stroke="#bfbfbf" points="1872.5,-56.5 1872.5,-75.5 1928.5,-75.5 1928.5,-56.5 1872.5,-56.5"/>
<text text-anchor="middle" x="1900.5" y="-63.5" font-family="Helvetica,sans-Serif" font-size="10.00">algorithm</text>
</g>
<!-- Node11&#45;&gt;Node24 -->
<g id="edge10" class="edge">
<title>Node11&#45;&gt;Node24</title>
<path fill="none" stroke="midnightblue" d="M3023.42,-115.47C3008.11,-114.2 2991.71,-112.95 2976.5,-112 2570.94,-86.63 2078.46,-71.9 1938.96,-68.03"/>
<polygon fill="midnightblue" stroke="midnightblue" points="1938.88,-64.53 1928.79,-67.75 1938.69,-71.53 1938.88,-64.53"/>
</g>
<!-- Node25 -->
<g id="node12" class="node">
<title>Node25</title>
<polygon fill="none" stroke="#bfbfbf" points="2411,-56.5 2411,-75.5 2460,-75.5 2460,-56.5 2411,-56.5"/>
<text text-anchor="middle" x="2435.5" y="-63.5" font-family="Helvetica,sans-Serif" font-size="10.00">cassert</text>
</g>
<!-- Node11&#45;&gt;Node25 -->
<g id="edge11" class="edge">
<title>Node11&#45;&gt;Node25</title>
<path fill="none" stroke="midnightblue" d="M3023.39,-115.91C3008.08,-114.63 2991.69,-113.26 2976.5,-112 2785.32,-96.08 2556.15,-77.03 2470.25,-69.89"/>
<polygon fill="midnightblue" stroke="midnightblue" points="2470.29,-66.38 2460.03,-69.04 2469.71,-73.36 2470.29,-66.38"/>
</g>
<!-- Node11&#45;&gt;Node18 -->
<g id="edge12" class="edge">
<title>Node11&#45;&gt;Node18</title>
<path fill="none" stroke="midnightblue" d="M3101.69,-112.32C3118.85,-103.66 3145.45,-90.24 3165.25,-80.25"/>
<polygon fill="midnightblue" stroke="midnightblue" points="3167,-83.28 3174.35,-75.65 3163.85,-77.04 3167,-83.28"/>
</g>
<!-- Node35 -->
<g id="node14" class="node">
<title>Node35</title>
<polygon fill="none" stroke="#bfbfbf" points="3058.5,-56.5 3058.5,-75.5 3110.5,-75.5 3110.5,-56.5 3058.5,-56.5"/>
<text text-anchor="middle" x="3084.5" y="-63.5" font-family="Helvetica,sans-Serif" font-size="10.00">memory</text>
</g>
<!-- Node11&#45;&gt;Node35 -->
<g id="edge14" class="edge">
<title>Node11&#45;&gt;Node35</title>
<path fill="none" stroke="midnightblue" d="M3084.5,-112.08C3084.5,-105.01 3084.5,-94.86 3084.5,-85.99"/>
<polygon fill="midnightblue" stroke="midnightblue" points="3088,-85.75 3084.5,-75.75 3081,-85.75 3088,-85.75"/>
</g>
<!-- Node12&#45;&gt;Node13 -->
<g id="edge7" class="edge">
<title>Node12&#45;&gt;Node13</title>
<path fill="none" stroke="midnightblue" d="M3273.15,-56.44C3245.76,-47.2 3201.99,-32.43 3171.83,-22.25"/>
<polygon fill="midnightblue" stroke="midnightblue" points="3172.76,-18.87 3162.17,-18.99 3170.52,-25.5 3172.76,-18.87"/>
</g>
<!-- Node12&#45;&gt;Node14 -->
<g id="edge8" class="edge">
<title>Node12&#45;&gt;Node14</title>
<path fill="none" stroke="midnightblue" d="M3234.35,-56.9C3231.02,-56.57 3227.72,-56.27 3224.5,-56 2855.87,-25.06 2406.34,-14.07 2286.85,-11.59"/>
<polygon fill="midnightblue" stroke="midnightblue" points="2286.7,-8.08 2276.64,-11.38 2286.56,-15.08 2286.7,-8.08"/>
</g>
<!-- Node37&#45;&gt;Node12 -->
<g id="edge17" class="edge">
<title>Node37&#45;&gt;Node12</title>
<path fill="none" stroke="midnightblue" d="M1768.27,-173.98C1792.34,-164.39 1832.13,-148.06 1865.5,-132 1882.34,-123.9 1884.44,-116.83 1902.5,-112 2041.68,-74.77 3037.93,-86.4 3224.21,-75.83"/>
<polygon fill="midnightblue" stroke="midnightblue" points="3224.61,-79.31 3234.36,-75.17 3224.16,-72.33 3224.61,-79.31"/>
</g>
<!-- Node37&#45;&gt;Node14 -->
<g id="edge23" class="edge">
<title>Node37&#45;&gt;Node14</title>
<path fill="none" stroke="midnightblue" d="M1726.43,-173.88C1681.79,-153.6 1581.43,-101.17 1623.5,-56 1664.96,-11.49 2105.93,-10.29 2226.3,-10.79"/>
<polygon fill="midnightblue" stroke="midnightblue" points="2226.28,-14.29 2236.3,-10.84 2226.32,-7.29 2226.28,-14.29"/>
</g>
<!-- Node37&#45;&gt;Node16 -->
<g id="edge18" class="edge">
<title>Node37&#45;&gt;Node16</title>
<path fill="none" stroke="midnightblue" d="M1740.9,-173.8C1734.69,-163.92 1724.61,-147.2 1717.5,-132 1710.33,-116.68 1703.8,-98.57 1699.36,-85.37"/>
<polygon fill="midnightblue" stroke="midnightblue" points="1702.6,-84.01 1696.16,-75.6 1695.95,-86.19 1702.6,-84.01"/>
</g>
<!-- Node37&#45;&gt;Node24 -->
<g id="edge19" class="edge">
<title>Node37&#45;&gt;Node24</title>
<path fill="none" stroke="midnightblue" d="M1750.17,-173.95C1756.83,-159.38 1772.18,-129.61 1793.5,-112 1813.58,-95.42 1840.64,-84.11 1862.53,-76.98"/>
<polygon fill="midnightblue" stroke="midnightblue" points="1863.66,-80.29 1872.18,-73.99 1861.59,-73.6 1863.66,-80.29"/>
</g>
<!-- Node37&#45;&gt;Node25 -->
<g id="edge20" class="edge">
<title>Node37&#45;&gt;Node25</title>
<path fill="none" stroke="midnightblue" d="M1753.59,-173.82C1766.94,-158.2 1797.54,-125.7 1831.5,-112 1935.89,-69.89 2288.12,-66.74 2400.64,-66.84"/>
<polygon fill="midnightblue" stroke="midnightblue" points="2400.75,-70.34 2410.76,-66.86 2400.77,-63.34 2400.75,-70.34"/>
</g>
<!-- Node37&#45;&gt;Node18 -->
<g id="edge21" class="edge">
<title>Node37&#45;&gt;Node18</title>
<path fill="none" stroke="midnightblue" d="M1760.77,-173.79C1790.61,-155.67 1857.77,-115.3 1869.5,-112 2003.24,-74.32 2980.96,-86.63 3119.5,-76 3131.74,-75.06 3145.1,-73.53 3156.94,-72"/>
<polygon fill="midnightblue" stroke="midnightblue" points="3157.45,-75.46 3166.9,-70.67 3156.52,-68.52 3157.45,-75.46"/>
</g>
<!-- Node37&#45;&gt;Node31 -->
<g id="edge22" class="edge">
<title>Node37&#45;&gt;Node31</title>
<path fill="none" stroke="midnightblue" d="M1773.15,-173.98C1807.25,-163.07 1866.19,-144.21 1902.03,-132.75"/>
<polygon fill="midnightblue" stroke="midnightblue" points="1903.47,-135.96 1911.93,-129.58 1901.34,-129.29 1903.47,-135.96"/>
</g>
<!-- Node46&#45;&gt;Node37 -->
<g id="edge26" class="edge">
<title>Node46&#45;&gt;Node37</title>
<path fill="none" stroke="midnightblue" d="M741.19,-243.22C768.6,-240.43 801.7,-237.27 831.5,-235 1149.47,-210.76 1530.45,-193.52 1680.84,-187.18"/>
<polygon fill="midnightblue" stroke="midnightblue" points="1681.42,-190.66 1691.27,-186.74 1681.13,-183.66 1681.42,-190.66"/>
</g>
<!-- Node47 -->
<g id="node18" class="node">
<title>Node47</title>
<g id="a_node18"><a xlink:href="MCDirectives_8h.html" target="_top" xlink:title="llvm/MC/MCDirectives.h">
<polygon fill="none" stroke="black" points="502,-174 502,-193 627,-193 627,-174 502,-174"/>
<text text-anchor="middle" x="564.5" y="-181" font-family="Helvetica,sans-Serif" font-size="10.00">llvm/MC/MCDirectives.h</text>
</a>
</g>
</g>
<!-- Node46&#45;&gt;Node47 -->
<g id="edge27" class="edge">
<title>Node46&#45;&gt;Node47</title>
<path fill="none" stroke="midnightblue" d="M666.59,-240.73C646.68,-229.77 612.39,-210.88 589.1,-198.05"/>
<polygon fill="midnightblue" stroke="midnightblue" points="590.61,-194.89 580.16,-193.13 587.23,-201.02 590.61,-194.89"/>
</g>
<!-- Node48 -->
<g id="node19" class="node">
<title>Node48</title>
<g id="a_node19"><a xlink:href="MCTargetOptions_8h.html" target="_top" xlink:title="llvm/MC/MCTargetOptions.h">
<polygon fill="none" stroke="black" points="835.5,-174 835.5,-193 977.5,-193 977.5,-174 835.5,-174"/>
<text text-anchor="middle" x="906.5" y="-181" font-family="Helvetica,sans-Serif" font-size="10.00">llvm/MC/MCTargetOptions.h</text>
</a>
</g>
</g>
<!-- Node46&#45;&gt;Node48 -->
<g id="edge28" class="edge">
<title>Node46&#45;&gt;Node48</title>
<path fill="none" stroke="midnightblue" d="M712.25,-240.87C752.1,-229.3 822.93,-208.75 867.16,-195.91"/>
<polygon fill="midnightblue" stroke="midnightblue" points="868.36,-199.21 876.99,-193.06 866.41,-192.49 868.36,-199.21"/>
</g>
<!-- Node49 -->
<g id="node20" class="node">
<title>Node49</title>
<polygon fill="none" stroke="#bfbfbf" points="1046.5,-112.5 1046.5,-131.5 1090.5,-131.5 1090.5,-112.5 1046.5,-112.5"/>
<text text-anchor="middle" x="1068.5" y="-119.5" font-family="Helvetica,sans-Serif" font-size="10.00">vector</text>
</g>
<!-- Node46&#45;&gt;Node49 -->
<g id="edge31" class="edge">
<title>Node46&#45;&gt;Node49</title>
<path fill="none" stroke="midnightblue" d="M687.4,-240.8C697.58,-223.62 722.85,-185.48 755.5,-168 803.72,-142.18 966.52,-129.29 1036.31,-124.85"/>
<polygon fill="midnightblue" stroke="midnightblue" points="1036.52,-128.34 1046.29,-124.23 1036.09,-121.35 1036.52,-128.34"/>
</g>
<!-- Node48&#45;&gt;Node31 -->
<g id="edge29" class="edge">
<title>Node48&#45;&gt;Node31</title>
<path fill="none" stroke="midnightblue" d="M977.83,-178.36C1181.79,-166.54 1761.73,-132.9 1901.78,-124.78"/>
<polygon fill="midnightblue" stroke="midnightblue" points="1902.04,-128.27 1911.82,-124.2 1901.63,-121.28 1902.04,-128.27"/>
</g>
<!-- Node48&#45;&gt;Node49 -->
<g id="edge30" class="edge">
<title>Node48&#45;&gt;Node49</title>
<path fill="none" stroke="midnightblue" d="M929.71,-173.98C957.82,-163.65 1005.29,-146.22 1036.76,-134.66"/>
<polygon fill="midnightblue" stroke="midnightblue" points="1038.19,-137.86 1046.37,-131.13 1035.78,-131.29 1038.19,-137.86"/>
</g>
<!-- Node50&#45;&gt;Node10 -->
<g id="edge60" class="edge">
<title>Node50&#45;&gt;Node10</title>
<path fill="none" stroke="midnightblue" d="M2081.16,-422.66C2266.43,-421.23 2838.87,-413.9 2913.5,-378 2962.92,-354.23 2999.89,-297.71 3016.24,-268.95"/>
<polygon fill="midnightblue" stroke="midnightblue" points="3019.39,-270.49 3021.15,-260.04 3013.26,-267.11 3019.39,-270.49"/>
</g>
<!-- Node50&#45;&gt;Node11 -->
<g id="edge61" class="edge">
<title>Node50&#45;&gt;Node11</title>
<path fill="none" stroke="midnightblue" d="M2081.17,-422.13C2270.06,-419.03 2862.71,-407.04 2943.5,-378 3021.79,-349.85 3050.81,-337.41 3093.5,-266 3115.96,-228.42 3112.19,-210.91 3103.5,-168 3101.61,-158.65 3097.71,-148.83 3093.93,-140.75"/>
<polygon fill="midnightblue" stroke="midnightblue" points="3096.97,-139.01 3089.38,-131.63 3090.71,-142.14 3096.97,-139.01"/>
</g>
<!-- Node50&#45;&gt;Node14 -->
<g id="edge164" class="edge">
<title>Node50&#45;&gt;Node14</title>
<path fill="none" stroke="midnightblue" d="M1965.79,-423.21C1728.07,-423.79 823.99,-422.91 542.5,-378 441.4,-361.87 321.5,-415.38 321.5,-313 321.5,-313 321.5,-313 321.5,-121 321.5,-21.33 1979.69,-11.93 2226.05,-11.08"/>
<polygon fill="midnightblue" stroke="midnightblue" points="2226.41,-14.58 2236.4,-11.05 2226.39,-7.58 2226.41,-14.58"/>
</g>
<!-- Node50&#45;&gt;Node16 -->
<g id="edge153" class="edge">
<title>Node50&#45;&gt;Node16</title>
<path fill="none" stroke="midnightblue" d="M1965.98,-422.37C1719.35,-419.5 757.76,-406.56 625.5,-378 535.6,-358.59 486.08,-351.22 451.5,-266 425.68,-202.39 407.18,-151.26 463.5,-112 511.18,-78.76 1366.55,-69.51 1622.03,-67.49"/>
<polygon fill="midnightblue" stroke="midnightblue" points="1622.33,-70.99 1632.3,-67.41 1622.27,-63.99 1622.33,-70.99"/>
</g>
<!-- Node50&#45;&gt;Node24 -->
<g id="edge157" class="edge">
<title>Node50&#45;&gt;Node24</title>
<path fill="none" stroke="midnightblue" d="M1965.79,-422.46C1764.33,-420.31 1093.09,-410.78 880.5,-378 673.88,-346.14 482.63,-404.74 445.5,-199 437.42,-154.21 457.87,-130.39 499.5,-112 563.76,-83.61 1693.33,-79.3 1763.5,-76 1796.96,-74.42 1834.98,-71.87 1862.46,-69.88"/>
<polygon fill="midnightblue" stroke="midnightblue" points="1862.72,-73.37 1872.44,-69.15 1862.21,-66.39 1862.72,-73.37"/>
</g>
<!-- Node50&#45;&gt;Node25 -->
<g id="edge158" class="edge">
<title>Node50&#45;&gt;Node25</title>
<path fill="none" stroke="midnightblue" d="M2081.3,-421.67C2263.81,-417.24 2817.6,-401.86 2847.5,-378 2941.86,-302.7 2897.56,-171.47 2792.5,-112 2778.54,-104.1 2557.09,-79.9 2470.15,-70.65"/>
<polygon fill="midnightblue" stroke="midnightblue" points="2470.31,-67.15 2460,-69.57 2469.58,-74.11 2470.31,-67.15"/>
</g>
<!-- Node50&#45;&gt;Node18 -->
<g id="edge159" class="edge">
<title>Node50&#45;&gt;Node18</title>
<path fill="none" stroke="midnightblue" d="M2081.32,-421.86C2280.78,-417.73 2939.39,-402.55 3149.5,-378 3278.58,-362.92 3311.24,-356.63 3436.5,-322 3549.75,-290.7 3617.97,-304.1 3670.5,-199 3687.81,-164.38 3700.75,-140.44 3674.5,-112 3642.14,-76.95 3308.39,-83.67 3226.46,-75.44"/>
<polygon fill="midnightblue" stroke="midnightblue" points="3226.64,-71.93 3216.27,-74.1 3225.73,-78.87 3226.64,-71.93"/>
</g>
<!-- Node50&#45;&gt;Node35 -->
<g id="edge162" class="edge">
<title>Node50&#45;&gt;Node35</title>
<path fill="none" stroke="midnightblue" d="M2081.05,-423.37C2238.94,-423.78 2692,-420.82 3065.5,-378 3199.82,-362.6 3233.04,-353.6 3364.5,-322 3450.1,-301.43 3482.37,-316.47 3554.5,-266 3621.17,-219.35 3708.91,-171.58 3653.5,-112 3615.87,-71.54 3212.49,-81.38 3157.5,-76 3145.63,-74.84 3132.7,-73.33 3121.07,-71.87"/>
<polygon fill="midnightblue" stroke="midnightblue" points="3121.18,-68.36 3110.82,-70.57 3120.3,-75.3 3121.18,-68.36"/>
</g>
<!-- Node50&#45;&gt;Node37 -->
<g id="edge86" class="edge">
<title>Node50&#45;&gt;Node37</title>
<path fill="none" stroke="midnightblue" d="M1965.87,-422.31C1891.68,-420.06 1768.88,-411.25 1740.5,-378 1697.6,-327.74 1724.13,-240.56 1738.75,-202.8"/>
<polygon fill="midnightblue" stroke="midnightblue" points="1742.15,-203.73 1742.65,-193.15 1735.66,-201.11 1742.15,-203.73"/>
</g>
<!-- Node50&#45;&gt;Node31 -->
<g id="edge163" class="edge">
<title>Node50&#45;&gt;Node31</title>
<path fill="none" stroke="midnightblue" d="M2004.72,-414.43C1988.17,-406.37 1963.91,-393.28 1945.5,-378 1895.05,-336.13 1872.25,-327.49 1849.5,-266 1831.01,-216.01 1883,-163.31 1912.96,-138.13"/>
<polygon fill="midnightblue" stroke="midnightblue" points="1915.56,-140.53 1921.1,-131.51 1911.14,-135.1 1915.56,-140.53"/>
</g>
<!-- Node50&#45;&gt;Node48 -->
<g id="edge150" class="edge">
<title>Node50&#45;&gt;Node48</title>
<path fill="none" stroke="midnightblue" d="M1965.89,-422.48C1761.03,-420.36 1075.16,-410.85 982.5,-378 903.75,-350.08 869.07,-340.64 831.5,-266 825.31,-253.69 825.03,-247.16 831.5,-235 840.56,-217.97 858.21,-205.66 874.1,-197.45"/>
<polygon fill="midnightblue" stroke="midnightblue" points="875.68,-200.57 883.18,-193.09 872.65,-194.26 875.68,-200.57"/>
</g>
<!-- Node50&#45;&gt;Node49 -->
<g id="edge165" class="edge">
<title>Node50&#45;&gt;Node49</title>
<path fill="none" stroke="midnightblue" d="M1965.98,-422.65C1753.88,-421.1 1022.69,-413.22 924.5,-378 827.55,-343.23 758.91,-245.71 826.5,-168 853.49,-136.97 976.66,-127.16 1036.15,-124.21"/>
<polygon fill="midnightblue" stroke="midnightblue" points="1036.31,-127.7 1046.14,-123.74 1035.99,-120.71 1036.31,-127.7"/>
</g>
<!-- Node51 -->
<g id="node22" class="node">
<title>Node51</title>
<g id="a_node22"><a xlink:href="DenseMap_8h.html" target="_top" xlink:title="llvm/ADT/DenseMap.h">
<polygon fill="none" stroke="red" points="2851.5,-112.5 2851.5,-131.5 2967.5,-131.5 2967.5,-112.5 2851.5,-112.5"/>
<text text-anchor="middle" x="2909.5" y="-119.5" font-family="Helvetica,sans-Serif" font-size="10.00">llvm/ADT/DenseMap.h</text>
</a>
</g>
</g>
<!-- Node50&#45;&gt;Node51 -->
<g id="edge33" class="edge">
<title>Node50&#45;&gt;Node51</title>
<path fill="none" stroke="midnightblue" d="M2015.17,-414.09C2003.62,-400.65 1985.64,-374.95 1999.5,-358 2015.83,-338.04 2429.53,-272.43 2454.5,-266 2613.8,-224.98 2799.86,-161.51 2875.22,-135.14"/>
<polygon fill="midnightblue" stroke="midnightblue" points="2876.82,-138.28 2885.1,-131.67 2874.51,-131.68 2876.82,-138.28"/>
</g>
<!-- Node39 -->
<g id="node23" class="node">
<title>Node39</title>
<g id="a_node23"><a xlink:href="Optional_8h.html" target="_top" xlink:title="llvm/ADT/Optional.h">
<polygon fill="none" stroke="red" points="2124,-112.5 2124,-131.5 2229,-131.5 2229,-112.5 2124,-112.5"/>
<text text-anchor="middle" x="2176.5" y="-119.5" font-family="Helvetica,sans-Serif" font-size="10.00">llvm/ADT/Optional.h</text>
</a>
</g>
</g>
<!-- Node50&#45;&gt;Node39 -->
<g id="edge40" class="edge">
<title>Node50&#45;&gt;Node39</title>
<path fill="none" stroke="midnightblue" d="M2081.08,-422.19C2216.43,-419.75 2551.43,-410.53 2658.5,-378 2706.5,-363.42 2731.32,-365.39 2756.5,-322 2816.97,-217.8 2329.16,-265.19 2228.5,-199 2207.06,-184.9 2192.06,-158.61 2183.86,-140.95"/>
<polygon fill="midnightblue" stroke="midnightblue" points="2187.03,-139.47 2179.82,-131.71 2180.62,-142.28 2187.03,-139.47"/>
</g>
<!-- Node61 -->
<g id="node24" class="node">
<title>Node61</title>
<g id="a_node24"><a xlink:href="SetVector_8h.html" target="_top" xlink:title="llvm/ADT/SetVector.h">
<polygon fill="none" stroke="red" points="841,-241 841,-260 954,-260 954,-241 841,-241"/>
<text text-anchor="middle" x="897.5" y="-248" font-family="Helvetica,sans-Serif" font-size="10.00">llvm/ADT/SetVector.h</text>
</a>
</g>
</g>
<!-- Node50&#45;&gt;Node61 -->
<g id="edge45" class="edge">
<title>Node50&#45;&gt;Node61</title>
<path fill="none" stroke="midnightblue" d="M1965.88,-422.93C1765.09,-422.32 1103.68,-417.34 1017.5,-378 965.79,-354.4 925.38,-297.36 907.51,-268.64"/>
<polygon fill="midnightblue" stroke="midnightblue" points="910.5,-266.82 902.33,-260.07 904.51,-270.44 910.5,-266.82"/>
</g>
<!-- Node63 -->
<g id="node26" class="node">
<title>Node63</title>
<g id="a_node26"><a xlink:href="StringMap_8h.html" target="_top" xlink:title="llvm/ADT/StringMap.h">
<polygon fill="none" stroke="red" points="2758,-241 2758,-260 2871,-260 2871,-241 2758,-241"/>
<text text-anchor="middle" x="2814.5" y="-248" font-family="Helvetica,sans-Serif" font-size="10.00">llvm/ADT/StringMap.h</text>
</a>
</g>
</g>
<!-- Node50&#45;&gt;Node63 -->
<g id="edge62" class="edge">
<title>Node50&#45;&gt;Node63</title>
<path fill="none" stroke="midnightblue" d="M2081.13,-421.92C2261.05,-418.27 2801.9,-405.08 2827.5,-378 2855.21,-348.7 2836.76,-296.81 2823.91,-269.48"/>
<polygon fill="midnightblue" stroke="midnightblue" points="2826.94,-267.72 2819.37,-260.31 2820.67,-270.82 2826.94,-267.72"/>
</g>
<!-- Node64 -->
<g id="node28" class="node">
<title>Node64</title>
<g id="a_node28"><a xlink:href="Allocator_8h.html" target="_top" xlink:title="This file defines the MallocAllocator and BumpPtrAllocator interfaces. ">
<polygon fill="none" stroke="red" points="2238,-174 2238,-193 2359,-193 2359,-174 2238,-174"/>
<text text-anchor="middle" x="2298.5" y="-181" font-family="Helvetica,sans-Serif" font-size="10.00">llvm/Support/Allocator.h</text>
</a>
</g>
</g>
<!-- Node50&#45;&gt;Node64 -->
<g id="edge152" class="edge">
<title>Node50&#45;&gt;Node64</title>
<path fill="none" stroke="midnightblue" d="M2081.33,-419.54C2174.4,-413.38 2348.95,-399.13 2367.5,-378 2414.33,-324.65 2346.63,-237.28 2314.18,-201.05"/>
<polygon fill="midnightblue" stroke="midnightblue" points="2316.47,-198.37 2307.14,-193.37 2311.31,-203.1 2316.47,-198.37"/>
</g>
<!-- Node43 -->
<g id="node29" class="node">
<title>Node43</title>
<polygon fill="none" stroke="#bfbfbf" points="2649.5,-112.5 2649.5,-131.5 2695.5,-131.5 2695.5,-112.5 2649.5,-112.5"/>
<text text-anchor="middle" x="2672.5" y="-119.5" font-family="Helvetica,sans-Serif" font-size="10.00">cstdint</text>
</g>
<!-- Node50&#45;&gt;Node43 -->
<g id="edge160" class="edge">
<title>Node50&#45;&gt;Node43</title>
<path fill="none" stroke="midnightblue" d="M2081.21,-423.92C2154.65,-423.3 2284.33,-416.15 2387.5,-378 2512.98,-331.61 2546.26,-303.73 2629.5,-199 2644.05,-180.7 2656.67,-156.87 2664.41,-140.81"/>
<polygon fill="midnightblue" stroke="midnightblue" points="2667.69,-142.06 2668.76,-131.52 2661.35,-139.09 2667.69,-142.06"/>
</g>
<!-- Node66 -->
<g id="node30" class="node">
<title>Node66</title>
<g id="a_node30"><a xlink:href="Twine_8h.html" target="_top" xlink:title="llvm/ADT/Twine.h">
<polygon fill="none" stroke="red" points="2095,-241 2095,-260 2190,-260 2190,-241 2095,-241"/>
<text text-anchor="middle" x="2142.5" y="-248" font-family="Helvetica,sans-Serif" font-size="10.00">llvm/ADT/Twine.h</text>
</a>
</g>
</g>
<!-- Node50&#45;&gt;Node66 -->
<g id="edge87" class="edge">
<title>Node50&#45;&gt;Node66</title>
<path fill="none" stroke="midnightblue" d="M2081.08,-414.71C2122.93,-407.36 2174.43,-395.14 2187.5,-378 2213.53,-343.86 2178.81,-293.37 2157.29,-267.72"/>
<polygon fill="midnightblue" stroke="midnightblue" points="2159.8,-265.28 2150.6,-260.04 2154.52,-269.88 2159.8,-265.28"/>
</g>
<!-- Node67 -->
<g id="node31" class="node">
<title>Node67</title>
<g id="a_node31"><a xlink:href="Dwarf_8h.html" target="_top" xlink:title="This file contains constants used for implementing Dwarf debug support. ">
<polygon fill="none" stroke="red" points="1499.5,-358.5 1499.5,-377.5 1633.5,-377.5 1633.5,-358.5 1499.5,-358.5"/>
<text text-anchor="middle" x="1566.5" y="-365.5" font-family="Helvetica,sans-Serif" font-size="10.00">llvm/BinaryFormat/Dwarf.h</text>
</a>
</g>
</g>
<!-- Node50&#45;&gt;Node67 -->
<g id="edge93" class="edge">
<title>Node50&#45;&gt;Node67</title>
<path fill="none" stroke="midnightblue" d="M1965.62,-416.16C1883.9,-406.5 1734.54,-388.86 1643.52,-378.1"/>
<polygon fill="midnightblue" stroke="midnightblue" points="1643.88,-374.62 1633.54,-376.92 1643.06,-381.57 1643.88,-374.62"/>
</g>
<!-- Node75 -->
<g id="node34" class="node">
<title>Node75</title>
<g id="a_node34"><a xlink:href="XCOFF_8h.html" target="_top" xlink:title="llvm/BinaryFormat/XCOFF.h">
<polygon fill="none" stroke="black" points="1859,-241 1859,-260 2000,-260 2000,-241 1859,-241"/>
<text text-anchor="middle" x="1929.5" y="-248" font-family="Helvetica,sans-Serif" font-size="10.00">llvm/BinaryFormat/XCOFF.h</text>
</a>
</g>
</g>
<!-- Node50&#45;&gt;Node75 -->
<g id="edge103" class="edge">
<title>Node50&#45;&gt;Node75</title>
<path fill="none" stroke="midnightblue" d="M2004.66,-414.46C1990.14,-406.91 1970.7,-394.53 1959.5,-378 1936.89,-344.63 1931.23,-296.26 1929.87,-270.06"/>
<polygon fill="midnightblue" stroke="midnightblue" points="1933.36,-269.87 1929.51,-260 1926.37,-270.12 1933.36,-269.87"/>
</g>
<!-- Node76 -->
<g id="node35" class="node">
<title>Node76</title>
<g id="a_node35"><a xlink:href="MCAsmMacro_8h.html" target="_top" xlink:title="llvm/MC/MCAsmMacro.h">
<polygon fill="none" stroke="red" points="1200.5,-241 1200.5,-260 1328.5,-260 1328.5,-241 1200.5,-241"/>
<text text-anchor="middle" x="1264.5" y="-248" font-family="Helvetica,sans-Serif" font-size="10.00">llvm/MC/MCAsmMacro.h</text>
</a>
</g>
</g>
<!-- Node50&#45;&gt;Node76 -->
<g id="edge106" class="edge">
<title>Node50&#45;&gt;Node76</title>
<path fill="none" stroke="midnightblue" d="M1965.85,-421.7C1846.67,-418.42 1577.08,-407.86 1490.5,-378 1432.23,-357.9 1428.44,-331.83 1374.5,-302 1348.39,-287.56 1317.4,-273.6 1294.98,-264.03"/>
<polygon fill="midnightblue" stroke="midnightblue" points="1296.21,-260.75 1285.64,-260.09 1293.49,-267.2 1296.21,-260.75"/>
</g>
<!-- Node80 -->
<g id="node36" class="node">
<title>Node80</title>
<g id="a_node36"><a xlink:href="MCDwarf_8h.html" target="_top" xlink:title="llvm/MC/MCDwarf.h">
<polygon fill="none" stroke="red" points="2252,-358.5 2252,-377.5 2359,-377.5 2359,-358.5 2252,-358.5"/>
<text text-anchor="middle" x="2305.5" y="-365.5" font-family="Helvetica,sans-Serif" font-size="10.00">llvm/MC/MCDwarf.h</text>
</a>
</g>
</g>
<!-- Node50&#45;&gt;Node80 -->
<g id="edge109" class="edge">
<title>Node50&#45;&gt;Node80</title>
<path fill="none" stroke="midnightblue" d="M2068.18,-414.44C2117.79,-404.94 2197.86,-389.61 2251.09,-379.42"/>
<polygon fill="midnightblue" stroke="midnightblue" points="2251.86,-382.83 2261.03,-377.52 2250.55,-375.96 2251.86,-382.83"/>
</g>
<!-- Node97 -->
<g id="node37" class="node">
<title>Node97</title>
<g id="a_node37"><a xlink:href="Support_2Error_8h.html" target="_top" xlink:title="llvm/Support/Error.h">
<polygon fill="none" stroke="red" points="2018.5,-302.5 2018.5,-321.5 2122.5,-321.5 2122.5,-302.5 2018.5,-302.5"/>
<text text-anchor="middle" x="2070.5" y="-309.5" font-family="Helvetica,sans-Serif" font-size="10.00">llvm/Support/Error.h</text>
</a>
</g>
</g>
<!-- Node50&#45;&gt;Node97 -->
<g id="edge154" class="edge">
<title>Node50&#45;&gt;Node97</title>
<path fill="none" stroke="midnightblue" d="M2006.03,-414.39C1984.38,-402.52 1952,-380.08 1966.5,-358 1977.07,-341.91 1994.76,-331.54 2012.58,-324.88"/>
<polygon fill="midnightblue" stroke="midnightblue" points="2014.1,-328.06 2022.45,-321.54 2011.86,-321.43 2014.1,-328.06"/>
</g>
<!-- Node50&#45;&gt;Node71 -->
<g id="edge156" class="edge">
<title>Node50&#45;&gt;Node71</title>
<path fill="none" stroke="midnightblue" d="M2081.21,-422.29C2281.57,-419.55 2939.81,-408.33 3029.5,-378 3099.14,-354.45 3166.19,-295.6 3195.74,-267.25"/>
<polygon fill="midnightblue" stroke="midnightblue" points="3198.34,-269.61 3203.05,-260.12 3193.45,-264.6 3198.34,-269.61"/>
</g>
<!-- Node101 -->
<g id="node39" class="node">
<title>Node101</title>
<g id="a_node39"><a xlink:href="MD5_8h.html" target="_top" xlink:title="llvm/Support/MD5.h">
<polygon fill="none" stroke="red" points="2643.5,-302.5 2643.5,-321.5 2747.5,-321.5 2747.5,-302.5 2643.5,-302.5"/>
<text text-anchor="middle" x="2695.5" y="-309.5" font-family="Helvetica,sans-Serif" font-size="10.00">llvm/Support/MD5.h</text>
</a>
</g>
</g>
<!-- Node50&#45;&gt;Node101 -->
<g id="edge155" class="edge">
<title>Node50&#45;&gt;Node101</title>
<path fill="none" stroke="midnightblue" d="M2081.04,-423.72C2212.85,-424.58 2532.71,-421.92 2629.5,-378 2652.52,-367.56 2672.15,-345.44 2683.87,-329.92"/>
<polygon fill="midnightblue" stroke="midnightblue" points="2686.81,-331.83 2689.83,-321.68 2681.14,-327.73 2686.81,-331.83"/>
</g>
<!-- Node50&#45;&gt;Node104 -->
<g id="edge142" class="edge">
<title>Node50&#45;&gt;Node104</title>
<path fill="none" stroke="midnightblue" d="M1965.86,-419.64C1806.5,-410.36 1359.64,-384.33 1176.41,-373.66"/>
<polygon fill="midnightblue" stroke="midnightblue" points="1176.49,-370.15 1166.31,-373.07 1176.09,-377.14 1176.49,-370.15"/>
</g>
<!-- Node96 -->
<g id="node41" class="node">
<title>Node96</title>
<g id="a_node41"><a xlink:href="SectionKind_8h.html" target="_top" xlink:title="llvm/MC/SectionKind.h">
<polygon fill="none" stroke="black" points="2009,-358.5 2009,-377.5 2126,-377.5 2126,-358.5 2009,-358.5"/>
<text text-anchor="middle" x="2067.5" y="-365.5" font-family="Helvetica,sans-Serif" font-size="10.00">llvm/MC/SectionKind.h</text>
</a>
</g>
</g>
<!-- Node50&#45;&gt;Node96 -->
<g id="edge151" class="edge">
<title>Node50&#45;&gt;Node96</title>
<path fill="none" stroke="midnightblue" d="M2030.77,-414.08C2037.04,-406.38 2046.29,-395.03 2053.93,-385.65"/>
<polygon fill="midnightblue" stroke="midnightblue" points="2056.77,-387.71 2060.37,-377.75 2051.34,-383.29 2056.77,-387.71"/>
</g>
<!-- Node109 -->
<g id="node42" class="node">
<title>Node109</title>
<polygon fill="none" stroke="#bfbfbf" points="2144,-358.5 2144,-377.5 2179,-377.5 2179,-358.5 2144,-358.5"/>
<text text-anchor="middle" x="2161.5" y="-365.5" font-family="Helvetica,sans-Serif" font-size="10.00">map</text>
</g>
<!-- Node50&#45;&gt;Node109 -->
<g id="edge161" class="edge">
<title>Node50&#45;&gt;Node109</title>
<path fill="none" stroke="midnightblue" d="M2045.37,-414.44C2069.39,-405.04 2108,-389.93 2134.04,-379.74"/>
<polygon fill="midnightblue" stroke="midnightblue" points="2135.65,-382.87 2143.69,-375.97 2133.1,-376.36 2135.65,-382.87"/>
</g>
<!-- Node51&#45;&gt;Node13 -->
<g id="edge38" class="edge">
<title>Node51&#45;&gt;Node13</title>
<path fill="none" stroke="midnightblue" d="M2927.47,-112.37C2967.52,-93.13 3064.29,-46.65 3111.58,-23.93"/>
<polygon fill="midnightblue" stroke="midnightblue" points="3113.12,-27.08 3120.61,-19.59 3110.08,-20.77 3113.12,-27.08"/>
</g>
<!-- Node51&#45;&gt;Node14 -->
<g id="edge39" class="edge">
<title>Node51&#45;&gt;Node14</title>
<path fill="none" stroke="midnightblue" d="M2858.8,-112.46C2729.43,-90.67 2390,-33.49 2286.74,-16.09"/>
<polygon fill="midnightblue" stroke="midnightblue" points="2287.12,-12.61 2276.68,-14.4 2285.96,-19.51 2287.12,-12.61"/>
</g>
<!-- Node51&#45;&gt;Node16 -->
<g id="edge34" class="edge">
<title>Node51&#45;&gt;Node16</title>
<path fill="none" stroke="midnightblue" d="M2851.18,-118.42C2810.16,-116.61 2753.97,-114.14 2704.5,-112 2330.73,-95.8 2237.19,-93.89 1863.5,-76 1831.14,-74.45 1795.33,-72.58 1764.95,-70.94"/>
<polygon fill="midnightblue" stroke="midnightblue" points="1765.04,-67.44 1754.87,-70.4 1764.66,-74.43 1765.04,-67.44"/>
</g>
<!-- Node51&#45;&gt;Node24 -->
<g id="edge35" class="edge">
<title>Node51&#45;&gt;Node24</title>
<path fill="none" stroke="midnightblue" d="M2851.16,-117.34C2823.92,-115.66 2791.06,-113.67 2761.5,-112 2443.8,-94.04 2060.02,-74.88 1938.98,-68.89"/>
<polygon fill="midnightblue" stroke="midnightblue" points="1938.91,-65.39 1928.75,-68.39 1938.56,-72.38 1938.91,-65.39"/>
</g>
<!-- Node51&#45;&gt;Node25 -->
<g id="edge36" class="edge">
<title>Node51&#45;&gt;Node25</title>
<path fill="none" stroke="midnightblue" d="M2851.35,-113.67C2846.66,-113.09 2842,-112.53 2837.5,-112 2701.85,-95.93 2540.25,-78.3 2470.45,-70.76"/>
<polygon fill="midnightblue" stroke="midnightblue" points="2470.76,-67.27 2460.45,-69.68 2470.01,-74.23 2470.76,-67.27"/>
</g>
<!-- Node51&#45;&gt;Node18 -->
<g id="edge37" class="edge">
<title>Node51&#45;&gt;Node18</title>
<path fill="none" stroke="midnightblue" d="M2954.18,-112.44C3010.41,-101.68 3105.79,-83.41 3156.83,-73.64"/>
<polygon fill="midnightblue" stroke="midnightblue" points="3157.56,-77.06 3166.72,-71.75 3156.24,-70.19 3157.56,-77.06"/>
</g>
<!-- Node39&#45;&gt;Node14 -->
<g id="edge44" class="edge">
<title>Node39&#45;&gt;Node14</title>
<path fill="none" stroke="midnightblue" d="M2182.78,-112.37C2195.98,-94.22 2226.83,-51.8 2244.14,-27.99"/>
<polygon fill="midnightblue" stroke="midnightblue" points="2247.2,-29.74 2250.25,-19.59 2241.54,-25.62 2247.2,-29.74"/>
</g>
<!-- Node39&#45;&gt;Node16 -->
<g id="edge41" class="edge">
<title>Node39&#45;&gt;Node16</title>
<path fill="none" stroke="midnightblue" d="M2123.89,-115.12C2036.87,-105.39 1862.87,-85.94 1764.86,-74.98"/>
<polygon fill="midnightblue" stroke="midnightblue" points="1765.07,-71.48 1754.74,-73.85 1764.29,-78.44 1765.07,-71.48"/>
</g>
<!-- Node39&#45;&gt;Node25 -->
<g id="edge42" class="edge">
<title>Node39&#45;&gt;Node25</title>
<path fill="none" stroke="midnightblue" d="M2217.54,-112.44C2268.17,-101.89 2353.36,-84.13 2400.85,-74.22"/>
<polygon fill="midnightblue" stroke="midnightblue" points="2401.59,-77.64 2410.67,-72.18 2400.16,-70.79 2401.59,-77.64"/>
</g>
<!-- Node39&#45;&gt;Node35 -->
<g id="edge43" class="edge">
<title>Node39&#45;&gt;Node35</title>
<path fill="none" stroke="midnightblue" d="M2229.24,-117.86C2395.61,-107.97 2906.66,-77.58 3047.96,-69.17"/>
<polygon fill="midnightblue" stroke="midnightblue" points="3048.47,-72.65 3058.24,-68.56 3048.05,-65.66 3048.47,-72.65"/>
</g>
<!-- Node61&#45;&gt;Node13 -->
<g id="edge58" class="edge">
<title>Node61&#45;&gt;Node13</title>
<path fill="none" stroke="midnightblue" d="M842.78,-240.99C817.86,-234.08 790.59,-221.58 775.5,-199 768.39,-188.36 765.23,-123.98 776.5,-112 884.96,3.27 1328.45,-64.38 1486.5,-56 2136.54,-21.53 2931.96,-12.81 3104.48,-11.28"/>
<polygon fill="midnightblue" stroke="midnightblue" points="3104.74,-14.77 3114.71,-11.19 3104.68,-7.77 3104.74,-14.77"/>
</g>
<!-- Node61&#45;&gt;Node16 -->
<g id="edge55" class="edge">
<title>Node61&#45;&gt;Node16</title>
<path fill="none" stroke="midnightblue" d="M857.04,-241C834.15,-233.89 807.4,-221.2 793.5,-199 772.98,-166.23 766.85,-140.02 793.5,-112 821.93,-82.11 1414.56,-70.93 1622.31,-67.91"/>
<polygon fill="midnightblue" stroke="midnightblue" points="1622.54,-71.41 1632.49,-67.77 1622.44,-64.41 1622.54,-71.41"/>
</g>
<!-- Node61&#45;&gt;Node24 -->
<g id="edge56" class="edge">
<title>Node61&#45;&gt;Node24</title>
<path fill="none" stroke="midnightblue" d="M876.07,-240.91C859.19,-232.85 836.83,-219.03 826.5,-199 820.18,-186.76 818.47,-179.2 826.5,-168 943.59,-4.61 971.09,-120.5 1763.5,-76 1796.95,-74.12 1834.96,-71.59 1862.45,-69.69"/>
<polygon fill="midnightblue" stroke="midnightblue" points="1862.7,-73.19 1872.43,-69 1862.22,-66.2 1862.7,-73.19"/>
</g>
<!-- Node61&#45;&gt;Node25 -->
<g id="edge57" class="edge">
<title>Node61&#45;&gt;Node25</title>
<path fill="none" stroke="midnightblue" d="M919.35,-240.99C938.77,-232.58 967.02,-218.21 986.5,-199 1018.42,-167.53 998.97,-134.9 1037.5,-112 1067.71,-94.04 2187.45,-71.75 2400.64,-67.66"/>
<polygon fill="midnightblue" stroke="midnightblue" points="2401,-71.15 2410.93,-67.46 2400.86,-64.15 2401,-71.15"/>
</g>
<!-- Node61&#45;&gt;Node49 -->
<g id="edge59" class="edge">
<title>Node61&#45;&gt;Node49</title>
<path fill="none" stroke="midnightblue" d="M933.11,-240.94C959.21,-233.3 994.33,-220 1019.5,-199 1038.47,-183.18 1052.63,-158.09 1060.73,-141.11"/>
<polygon fill="midnightblue" stroke="midnightblue" points="1064.04,-142.29 1064.98,-131.74 1057.66,-139.4 1064.04,-142.29"/>
</g>
<!-- Node53 -->
<g id="node25" class="node">
<title>Node53</title>
<g id="a_node25"><a xlink:href="ArrayRef_8h.html" target="_top" xlink:title="llvm/ADT/ArrayRef.h">
<polygon fill="none" stroke="red" points="1299.5,-174 1299.5,-193 1407.5,-193 1407.5,-174 1299.5,-174"/>
<text text-anchor="middle" x="1353.5" y="-181" font-family="Helvetica,sans-Serif" font-size="10.00">llvm/ADT/ArrayRef.h</text>
</a>
</g>
</g>
<!-- Node61&#45;&gt;Node53 -->
<g id="edge46" class="edge">
<title>Node61&#45;&gt;Node53</title>
<path fill="none" stroke="midnightblue" d="M936.84,-240.95C947.12,-238.86 958.2,-236.72 968.5,-235 1080.97,-216.16 1212.9,-200.17 1289.47,-191.49"/>
<polygon fill="midnightblue" stroke="midnightblue" points="1289.9,-194.96 1299.44,-190.36 1289.11,-188.01 1289.9,-194.96"/>
</g>
<!-- Node53&#45;&gt;Node11 -->
<g id="edge47" class="edge">
<title>Node53&#45;&gt;Node11</title>
<path fill="none" stroke="midnightblue" d="M1407.63,-179.84C1472.82,-176.71 1585.65,-171.48 1682.5,-168 2257.46,-147.33 2402.05,-163.9 2976.5,-132 2988.39,-131.34 3001,-130.46 3013.25,-129.5"/>
<polygon fill="midnightblue" stroke="midnightblue" points="3013.74,-132.97 3023.43,-128.68 3013.18,-125.99 3013.74,-132.97"/>
</g>
<!-- Node53&#45;&gt;Node13 -->
<g id="edge52" class="edge">
<title>Node53&#45;&gt;Node13</title>
<path fill="none" stroke="midnightblue" d="M1358.54,-173.63C1367.57,-158.59 1387.95,-128.13 1413.5,-112 1495.18,-60.43 1527.92,-69.97 1623.5,-56 1774.41,-33.94 2894.56,-14.93 3104.61,-11.54"/>
<polygon fill="midnightblue" stroke="midnightblue" points="3104.79,-15.03 3114.73,-11.37 3104.68,-8.04 3104.79,-15.03"/>
</g>
<!-- Node53&#45;&gt;Node16 -->
<g id="edge48" class="edge">
<title>Node53&#45;&gt;Node16</title>
<path fill="none" stroke="midnightblue" d="M1362.38,-173.98C1378.64,-158.9 1414.88,-127.64 1451.5,-112 1506.19,-88.64 1572.93,-77.38 1622.46,-71.96"/>
<polygon fill="midnightblue" stroke="midnightblue" points="1622.86,-75.44 1632.44,-70.93 1622.14,-68.48 1622.86,-75.44"/>
</g>
<!-- Node53&#45;&gt;Node24 -->
<g id="edge49" class="edge">
<title>Node53&#45;&gt;Node24</title>
<path fill="none" stroke="midnightblue" d="M1369.52,-173.99C1404.1,-155.66 1483.15,-113.92 1489.5,-112 1558.83,-91.04 1774.24,-75.16 1862.35,-69.38"/>
<polygon fill="midnightblue" stroke="midnightblue" points="1862.69,-72.86 1872.45,-68.72 1862.24,-65.88 1862.69,-72.86"/>
</g>
<!-- Node53&#45;&gt;Node25 -->
<g id="edge50" class="edge">
<title>Node53&#45;&gt;Node25</title>
<path fill="none" stroke="midnightblue" d="M1377.57,-173.94C1404.21,-164.32 1448.29,-147.95 1485.5,-132 1504.5,-123.86 1507.45,-117.05 1527.5,-112 1613.16,-90.4 2243.42,-72.17 2400.24,-67.93"/>
<polygon fill="midnightblue" stroke="midnightblue" points="2400.8,-71.41 2410.7,-67.65 2400.61,-64.42 2400.8,-71.41"/>
</g>
<!-- Node53&#45;&gt;Node18 -->
<g id="edge51" class="edge">
<title>Node53&#45;&gt;Node18</title>
<path fill="none" stroke="midnightblue" d="M1407.73,-174.62C1475.52,-164.75 1595.11,-147.27 1697.5,-132 1756.19,-123.25 1770.4,-117.28 1829.5,-112 2400.78,-60.94 2547.6,-119.62 3119.5,-76 3131.74,-75.07 3145.1,-73.54 3156.94,-72.01"/>
<polygon fill="midnightblue" stroke="midnightblue" points="3157.45,-75.47 3166.9,-70.67 3156.52,-68.53 3157.45,-75.47"/>
</g>
<!-- Node53&#45;&gt;Node35 -->
<g id="edge53" class="edge">
<title>Node53&#45;&gt;Node35</title>
<path fill="none" stroke="midnightblue" d="M1391.77,-173.94C1462.96,-158.44 1620.71,-126.03 1755.5,-112 2016.65,-84.81 2862.92,-70.41 3048.37,-67.54"/>
<polygon fill="midnightblue" stroke="midnightblue" points="3048.46,-71.04 3058.41,-67.39 3048.36,-64.04 3048.46,-71.04"/>
</g>
<!-- Node53&#45;&gt;Node49 -->
<g id="edge54" class="edge">
<title>Node53&#45;&gt;Node49</title>
<path fill="none" stroke="midnightblue" d="M1312.67,-173.98C1255.5,-162.04 1152.79,-140.6 1100.69,-129.72"/>
<polygon fill="midnightblue" stroke="midnightblue" points="1101.18,-126.25 1090.67,-127.63 1099.75,-133.1 1101.18,-126.25"/>
</g>
<!-- Node63&#45;&gt;Node12 -->
<g id="edge70" class="edge">
<title>Node63&#45;&gt;Node12</title>
<path fill="none" stroke="midnightblue" d="M2871.12,-243.24C2897.11,-240.49 2928.35,-237.36 2956.5,-235 3017.53,-229.89 3464.63,-243.7 3506.5,-199 3561.06,-140.75 3425.54,-97.28 3348.07,-77.99"/>
<polygon fill="midnightblue" stroke="midnightblue" points="3348.56,-74.51 3338.01,-75.54 3346.9,-81.31 3348.56,-74.51"/>
</g>
<!-- Node63&#45;&gt;Node13 -->
<g id="edge84" class="edge">
<title>Node63&#45;&gt;Node13</title>
<path fill="none" stroke="midnightblue" d="M2871.1,-243.07C2897.09,-240.28 2928.33,-237.17 2956.5,-235 3073.16,-226.01 3929.81,-222.06 4004.5,-132 4116.68,3.26 3790.99,-76.79 3616.5,-56 3450.5,-36.22 3251.21,-19.81 3172.68,-13.63"/>
<polygon fill="midnightblue" stroke="midnightblue" points="3172.66,-10.12 3162.42,-12.83 3172.11,-17.1 3172.66,-10.12"/>
</g>
<!-- Node63&#45;&gt;Node14 -->
<g id="edge85" class="edge">
<title>Node63&#45;&gt;Node14</title>
<path fill="none" stroke="midnightblue" d="M2840.43,-240.96C2897.45,-220.88 3024.95,-168.13 2976.5,-112 2930.47,-58.67 2417.27,-21.55 2286.62,-12.92"/>
<polygon fill="midnightblue" stroke="midnightblue" points="2286.73,-9.42 2276.53,-12.26 2286.28,-16.41 2286.73,-9.42"/>
</g>
<!-- Node63&#45;&gt;Node24 -->
<g id="edge81" class="edge">
<title>Node63&#45;&gt;Node24</title>
<path fill="none" stroke="midnightblue" d="M2811.44,-240.98C2805.57,-225.38 2791.59,-191.66 2772.5,-168 2747.92,-137.53 2740.97,-126.25 2704.5,-112 2632.81,-83.99 2089.52,-70.87 1939.04,-67.75"/>
<polygon fill="midnightblue" stroke="midnightblue" points="1938.96,-64.25 1928.89,-67.54 1938.82,-71.25 1938.96,-64.25"/>
</g>
<!-- Node63&#45;&gt;Node25 -->
<g id="edge82" class="edge">
<title>Node63&#45;&gt;Node25</title>
<path fill="none" stroke="midnightblue" d="M2817.42,-240.99C2822.17,-225.68 2830.03,-192.79 2819.5,-168 2805.5,-135.02 2793.73,-127.67 2761.5,-112 2735.67,-99.44 2549.35,-78.86 2470.55,-70.6"/>
<polygon fill="midnightblue" stroke="midnightblue" points="2470.48,-67.07 2460.17,-69.51 2469.75,-74.03 2470.48,-67.07"/>
</g>
<!-- Node63&#45;&gt;Node37 -->
<g id="edge63" class="edge">
<title>Node63&#45;&gt;Node37</title>
<path fill="none" stroke="midnightblue" d="M2757.83,-246.05C2575.66,-234.96 2005.63,-200.27 1811.78,-188.47"/>
<polygon fill="midnightblue" stroke="midnightblue" points="1811.94,-184.98 1801.74,-187.86 1811.51,-191.96 1811.94,-184.98"/>
</g>
<!-- Node41 -->
<g id="node27" class="node">
<title>Node41</title>
<g id="a_node27"><a xlink:href="iterator_8h.html" target="_top" xlink:title="llvm/ADT/iterator.h">
<polygon fill="none" stroke="red" points="3896,-112.5 3896,-131.5 3995,-131.5 3995,-112.5 3896,-112.5"/>
<text text-anchor="middle" x="3945.5" y="-119.5" font-family="Helvetica,sans-Serif" font-size="10.00">llvm/ADT/iterator.h</text>
</a>
</g>
</g>
<!-- Node63&#45;&gt;Node41 -->
<g id="edge64" class="edge">
<title>Node63&#45;&gt;Node41</title>
<path fill="none" stroke="midnightblue" d="M2871.11,-243.19C2897.11,-240.43 2928.34,-237.31 2956.5,-235 3215.24,-213.81 3281.87,-230.94 3539.5,-199 3670.51,-182.76 3823.05,-150.57 3898.41,-133.78"/>
<polygon fill="midnightblue" stroke="midnightblue" points="3899.52,-137.11 3908.52,-131.51 3897.99,-130.28 3899.52,-137.11"/>
</g>
<!-- Node63&#45;&gt;Node64 -->
<g id="edge71" class="edge">
<title>Node63&#45;&gt;Node64</title>
<path fill="none" stroke="midnightblue" d="M2757.8,-242.36C2663.04,-230.42 2472.73,-206.45 2369.31,-193.42"/>
<polygon fill="midnightblue" stroke="midnightblue" points="2369.63,-189.93 2359.27,-192.16 2368.76,-196.88 2369.63,-189.93"/>
</g>
<!-- Node63&#45;&gt;Node43 -->
<g id="edge83" class="edge">
<title>Node63&#45;&gt;Node43</title>
<path fill="none" stroke="midnightblue" d="M2808.35,-240.92C2796.83,-225.22 2770.69,-191.35 2743.5,-168 2729.42,-155.91 2711.81,-144.73 2697.66,-136.54"/>
<polygon fill="midnightblue" stroke="midnightblue" points="2699.35,-133.47 2688.92,-131.61 2695.91,-139.57 2699.35,-133.47"/>
</g>
<!-- Node41&#45;&gt;Node12 -->
<g id="edge65" class="edge">
<title>Node41&#45;&gt;Node12</title>
<path fill="none" stroke="midnightblue" d="M3895.92,-113.72C3891.06,-113.09 3886.18,-112.51 3881.5,-112 3699.23,-92.17 3483.96,-77.92 3372.98,-71.25"/>
<polygon fill="midnightblue" stroke="midnightblue" points="3373.08,-67.75 3362.89,-70.65 3372.67,-74.74 3373.08,-67.75"/>
</g>
<!-- Node41&#45;&gt;Node13 -->
<g id="edge68" class="edge">
<title>Node41&#45;&gt;Node13</title>
<path fill="none" stroke="midnightblue" d="M3896.26,-112.5C3819.23,-99.36 3665.5,-73.79 3534.5,-56 3400.76,-37.83 3240.91,-21.23 3172.4,-14.35"/>
<polygon fill="midnightblue" stroke="midnightblue" points="3172.5,-10.84 3162.2,-13.33 3171.8,-17.81 3172.5,-10.84"/>
</g>
<!-- Node41&#45;&gt;Node14 -->
<g id="edge69" class="edge">
<title>Node41&#45;&gt;Node14</title>
<path fill="none" stroke="midnightblue" d="M3895.91,-113.85C3891.04,-113.2 3886.18,-112.57 3881.5,-112 3727.59,-93.2 3688.57,-93.44 3534.5,-76 3461.98,-67.79 3444.25,-61.92 3371.5,-56 2941.87,-21.03 2416.8,-12.86 2286.72,-11.31"/>
<polygon fill="midnightblue" stroke="midnightblue" points="2286.74,-7.81 2276.7,-11.2 2286.66,-14.81 2286.74,-7.81"/>
</g>
<!-- Node41&#45;&gt;Node24 -->
<g id="edge66" class="edge">
<title>Node41&#45;&gt;Node24</title>
<path fill="none" stroke="midnightblue" d="M3895.96,-119.69C3611.68,-112.19 2191.54,-74.69 1938.95,-68.02"/>
<polygon fill="midnightblue" stroke="midnightblue" points="1938.89,-64.51 1928.8,-67.75 1938.7,-71.51 1938.89,-64.51"/>
</g>
<!-- Node41&#45;&gt;Node18 -->
<g id="edge67" class="edge">
<title>Node41&#45;&gt;Node18</title>
<path fill="none" stroke="midnightblue" d="M3895.94,-113.61C3891.06,-113.01 3886.19,-112.46 3881.5,-112 3594.15,-83.96 3515.67,-120.75 3226.2,-75.74"/>
<polygon fill="midnightblue" stroke="midnightblue" points="3226.68,-72.28 3216.26,-74.18 3225.59,-79.19 3226.68,-72.28"/>
</g>
<!-- Node64&#45;&gt;Node11 -->
<g id="edge73" class="edge">
<title>Node64&#45;&gt;Node11</title>
<path fill="none" stroke="midnightblue" d="M2359.29,-178.15C2477.97,-169.62 2748.81,-149.97 2976.5,-132 2988.37,-131.06 3000.97,-130.04 3013.22,-129.03"/>
<polygon fill="midnightblue" stroke="midnightblue" points="3013.72,-132.5 3023.39,-128.19 3013.14,-125.52 3013.72,-132.5"/>
</g>
<!-- Node64&#45;&gt;Node13 -->
<g id="edge79" class="edge">
<title>Node64&#45;&gt;Node13</title>
<path fill="none" stroke="midnightblue" d="M2302.31,-174C2313.49,-150.2 2348.78,-82.92 2401.5,-56 2464.58,-23.79 2968.07,-13.66 3104.5,-11.49"/>
<polygon fill="midnightblue" stroke="midnightblue" points="3104.82,-14.98 3114.76,-11.33 3104.71,-7.98 3104.82,-14.98"/>
</g>
<!-- Node64&#45;&gt;Node14 -->
<g id="edge80" class="edge">
<title>Node64&#45;&gt;Node14</title>
<path fill="none" stroke="midnightblue" d="M2296.36,-173.76C2289.82,-147.04 2269.97,-66.02 2261,-29.36"/>
<polygon fill="midnightblue" stroke="midnightblue" points="2264.36,-28.4 2258.59,-19.52 2257.57,-30.06 2264.36,-28.4"/>
</g>
<!-- Node64&#45;&gt;Node16 -->
<g id="edge74" class="edge">
<title>Node64&#45;&gt;Node16</title>
<path fill="none" stroke="midnightblue" d="M2260.19,-173.97C2197.77,-160.18 2070.17,-132.48 1961.5,-112 1892.25,-98.95 1812.57,-85.81 1758.21,-77.12"/>
<polygon fill="midnightblue" stroke="midnightblue" points="1758.45,-73.62 1748.02,-75.5 1757.35,-80.53 1758.45,-73.62"/>
</g>
<!-- Node64&#45;&gt;Node24 -->
<g id="edge75" class="edge">
<title>Node64&#45;&gt;Node24</title>
<path fill="none" stroke="midnightblue" d="M2293.82,-173.77C2285.05,-158.37 2264.56,-126.61 2237.5,-112 2186.59,-84.51 2016.05,-72.73 1938.94,-68.73"/>
<polygon fill="midnightblue" stroke="midnightblue" points="1938.86,-65.22 1928.7,-68.21 1938.51,-72.21 1938.86,-65.22"/>
</g>
<!-- Node64&#45;&gt;Node25 -->
<g id="edge76" class="edge">
<title>Node64&#45;&gt;Node25</title>
<path fill="none" stroke="midnightblue" d="M2308.8,-173.82C2331.91,-154.34 2388.14,-106.92 2417.3,-82.34"/>
<polygon fill="midnightblue" stroke="midnightblue" points="2419.69,-84.9 2425.08,-75.78 2415.18,-79.55 2419.69,-84.9"/>
</g>
<!-- Node64&#45;&gt;Node18 -->
<g id="edge77" class="edge">
<title>Node64&#45;&gt;Node18</title>
<path fill="none" stroke="midnightblue" d="M2332.71,-173.88C2393.98,-158.8 2526.7,-127.72 2640.5,-112 2851.98,-82.79 2907.07,-97.25 3119.5,-76 3131.72,-74.78 3145.06,-73.18 3156.91,-71.67"/>
<polygon fill="midnightblue" stroke="midnightblue" points="3157.41,-75.14 3166.87,-70.38 3156.51,-68.2 3157.41,-75.14"/>
</g>
<!-- Node64&#45;&gt;Node39 -->
<g id="edge72" class="edge">
<title>Node64&#45;&gt;Node39</title>
<path fill="none" stroke="midnightblue" d="M2281.02,-173.98C2260.64,-164.03 2226.72,-147.49 2203.08,-135.96"/>
<polygon fill="midnightblue" stroke="midnightblue" points="2204.47,-132.75 2193.95,-131.51 2201.4,-139.04 2204.47,-132.75"/>
</g>
<!-- Node64&#45;&gt;Node43 -->
<g id="edge78" class="edge">
<title>Node64&#45;&gt;Node43</title>
<path fill="none" stroke="midnightblue" d="M2340.88,-173.99C2351.52,-171.94 2362.91,-169.82 2373.5,-168 2469.74,-151.46 2583.98,-135.2 2639.25,-127.54"/>
<polygon fill="midnightblue" stroke="midnightblue" points="2639.76,-131.01 2649.19,-126.17 2638.8,-124.07 2639.76,-131.01"/>
</g>
<!-- Node66&#45;&gt;Node11 -->
<g id="edge88" class="edge">
<title>Node66&#45;&gt;Node11</title>
<path fill="none" stroke="midnightblue" d="M2190.18,-243.1C2344.35,-222.39 2829.95,-157.18 3013.39,-132.55"/>
<polygon fill="midnightblue" stroke="midnightblue" points="3014.02,-136 3023.47,-131.2 3013.09,-129.06 3014.02,-136"/>
</g>
<!-- Node66&#45;&gt;Node25 -->
<g id="edge90" class="edge">
<title>Node66&#45;&gt;Node25</title>
<path fill="none" stroke="midnightblue" d="M2125.46,-240.96C2110.76,-232.54 2090.51,-218.16 2081.5,-199 2065.04,-164.01 2055.94,-141.01 2081.5,-112 2102.41,-88.26 2315.33,-73.76 2400.53,-68.86"/>
<polygon fill="midnightblue" stroke="midnightblue" points="2400.95,-72.34 2410.74,-68.29 2400.56,-65.36 2400.95,-72.34"/>
</g>
<!-- Node66&#45;&gt;Node37 -->
<g id="edge89" class="edge">
<title>Node66&#45;&gt;Node37</title>
<path fill="none" stroke="midnightblue" d="M2108.17,-240.96C2099.2,-238.86 2089.51,-236.73 2080.5,-235 1987.65,-217.15 1879.28,-201.76 1811.76,-192.8"/>
<polygon fill="midnightblue" stroke="midnightblue" points="1812.07,-189.31 1801.69,-191.47 1811.15,-196.25 1812.07,-189.31"/>
</g>
<!-- Node66&#45;&gt;Node31 -->
<g id="edge92" class="edge">
<title>Node66&#45;&gt;Node31</title>
<path fill="none" stroke="midnightblue" d="M2105.96,-240.91C2045.17,-226.61 1929.85,-199.44 1929.5,-199 1916.74,-182.86 1920.63,-158.2 1925.62,-141.38"/>
<polygon fill="midnightblue" stroke="midnightblue" points="1929.03,-142.22 1928.9,-131.63 1922.4,-139.99 1929.03,-142.22"/>
</g>
<!-- Node66&#45;&gt;Node43 -->
<g id="edge91" class="edge">
<title>Node66&#45;&gt;Node43</title>
<path fill="none" stroke="midnightblue" d="M2190.01,-241.43C2242.14,-232.29 2328.18,-216.4 2401.5,-199 2488.23,-178.42 2588.97,-148.58 2639.71,-133.12"/>
<polygon fill="midnightblue" stroke="midnightblue" points="2640.92,-136.41 2649.46,-130.14 2638.88,-129.72 2640.92,-136.41"/>
</g>
<!-- Node67&#45;&gt;Node16 -->
<g id="edge95" class="edge">
<title>Node67&#45;&gt;Node16</title>
<path fill="none" stroke="midnightblue" d="M1551.34,-358.33C1494.66,-325.82 1298.02,-212.39 1290.5,-199 1283.75,-186.99 1283.04,-179.59 1290.5,-168 1326.18,-112.54 1516.49,-84.78 1622.33,-73.44"/>
<polygon fill="midnightblue" stroke="midnightblue" points="1622.73,-76.92 1632.31,-72.4 1621.99,-69.96 1622.73,-76.92"/>
</g>
<!-- Node67&#45;&gt;Node39 -->
<g id="edge94" class="edge">
<title>Node67&#45;&gt;Node39</title>
<path fill="none" stroke="midnightblue" d="M1566.55,-358.11C1567.12,-344.23 1570.28,-317.37 1585.5,-302 1661.5,-225.25 1984.01,-158.43 2117.88,-133.45"/>
<polygon fill="midnightblue" stroke="midnightblue" points="2118.76,-136.85 2127.95,-131.58 2117.48,-129.96 2118.76,-136.85"/>
</g>
<!-- Node68 -->
<g id="node32" class="node">
<title>Node68</title>
<g id="a_node32"><a xlink:href="Format_8h.html" target="_top" xlink:title="llvm/Support/Format.h">
<polygon fill="none" stroke="red" points="1499,-241 1499,-260 1612,-260 1612,-241 1499,-241"/>
<text text-anchor="middle" x="1555.5" y="-248" font-family="Helvetica,sans-Serif" font-size="10.00">llvm/Support/Format.h</text>
</a>
</g>
</g>
<!-- Node67&#45;&gt;Node68 -->
<g id="edge96" class="edge">
<title>Node67&#45;&gt;Node68</title>
<path fill="none" stroke="midnightblue" d="M1562.9,-358.22C1559.44,-349.28 1554.47,-334.94 1552.5,-322 1549.86,-304.61 1551.12,-284.54 1552.74,-270.28"/>
<polygon fill="midnightblue" stroke="midnightblue" points="1556.23,-270.61 1554.05,-260.24 1549.29,-269.7 1556.23,-270.61"/>
</g>
<!-- Node73 -->
<g id="node33" class="node">
<title>Node73</title>
<g id="a_node33"><a xlink:href="Triple_8h.html" target="_top" xlink:title="llvm/ADT/Triple.h">
<polygon fill="none" stroke="black" points="1595,-302.5 1595,-321.5 1688,-321.5 1688,-302.5 1595,-302.5"/>
<text text-anchor="middle" x="1641.5" y="-309.5" font-family="Helvetica,sans-Serif" font-size="10.00">llvm/ADT/Triple.h</text>
</a>
</g>
</g>
<!-- Node67&#45;&gt;Node73 -->
<g id="edge101" class="edge">
<title>Node67&#45;&gt;Node73</title>
<path fill="none" stroke="midnightblue" d="M1578.55,-358.32C1589.96,-350.11 1607.33,-337.6 1620.93,-327.81"/>
<polygon fill="midnightblue" stroke="midnightblue" points="1623.16,-330.52 1629.23,-321.83 1619.07,-324.84 1623.16,-330.52"/>
</g>
<!-- Node68&#45;&gt;Node14 -->
<g id="edge100" class="edge">
<title>Node68&#45;&gt;Node14</title>
<path fill="none" stroke="midnightblue" d="M1514.23,-240.94C1504.49,-238.96 1494.13,-236.88 1484.5,-235 1394.96,-217.55 1237.72,-242.4 1290.5,-168 1402,-10.84 2074.27,-8.92 2226.06,-10.53"/>
<polygon fill="midnightblue" stroke="midnightblue" points="2226.42,-14.03 2236.46,-10.65 2226.51,-7.03 2226.42,-14.03"/>
</g>
<!-- Node68&#45;&gt;Node25 -->
<g id="edge99" class="edge">
<title>Node68&#45;&gt;Node25</title>
<path fill="none" stroke="midnightblue" d="M1566.03,-240.72C1597.89,-214.77 1697.07,-138.64 1794.5,-112 1910.33,-80.33 2284.65,-70.1 2400.8,-67.65"/>
<polygon fill="midnightblue" stroke="midnightblue" points="2400.98,-71.15 2410.9,-67.44 2400.83,-64.15 2400.98,-71.15"/>
</g>
<!-- Node68&#45;&gt;Node37 -->
<g id="edge98" class="edge">
<title>Node68&#45;&gt;Node37</title>
<path fill="none" stroke="midnightblue" d="M1580.86,-240.87C1614.49,-229.42 1673.98,-209.18 1711.76,-196.32"/>
<polygon fill="midnightblue" stroke="midnightblue" points="1713,-199.6 1721.34,-193.06 1710.74,-192.97 1713,-199.6"/>
</g>
<!-- Node68&#45;&gt;Node53 -->
<g id="edge97" class="edge">
<title>Node68&#45;&gt;Node53</title>
<path fill="none" stroke="midnightblue" d="M1528.68,-240.87C1492.96,-229.38 1429.66,-209.01 1389.73,-196.16"/>
<polygon fill="midnightblue" stroke="midnightblue" points="1390.7,-192.8 1380.11,-193.06 1388.56,-199.46 1390.7,-192.8"/>
</g>
<!-- Node73&#45;&gt;Node66 -->
<g id="edge102" class="edge">
<title>Node73&#45;&gt;Node66</title>
<path fill="none" stroke="midnightblue" d="M1688.18,-305.46C1780.13,-294.54 1984.42,-270.27 2084.7,-258.36"/>
<polygon fill="midnightblue" stroke="midnightblue" points="2085.14,-261.84 2094.65,-257.18 2084.31,-254.89 2085.14,-261.84"/>
</g>
<!-- Node75&#45;&gt;Node37 -->
<g id="edge104" class="edge">
<title>Node75&#45;&gt;Node37</title>
<path fill="none" stroke="midnightblue" d="M1905.2,-240.87C1873.12,-229.47 1816.47,-209.35 1780.25,-196.49"/>
<polygon fill="midnightblue" stroke="midnightblue" points="1781.2,-193.11 1770.61,-193.06 1778.86,-199.71 1781.2,-193.11"/>
</g>
<!-- Node75&#45;&gt;Node43 -->
<g id="edge105" class="edge">
<title>Node75&#45;&gt;Node43</title>
<path fill="none" stroke="midnightblue" d="M2000.42,-242.47C2120.15,-230.45 2351.04,-206.49 2367.5,-199 2386.11,-190.53 2383.1,-176.93 2401.5,-168 2480.58,-129.62 2586.25,-123.18 2639.24,-122.58"/>
<polygon fill="midnightblue" stroke="midnightblue" points="2639.44,-126.08 2649.42,-122.53 2639.4,-119.08 2639.44,-126.08"/>
</g>
<!-- Node76&#45;&gt;Node37 -->
<g id="edge107" class="edge">
<title>Node76&#45;&gt;Node37</title>
<path fill="none" stroke="midnightblue" d="M1328.77,-243.36C1410.21,-235.19 1554.75,-219.36 1677.5,-199 1684.32,-197.87 1691.48,-196.53 1698.51,-195.14"/>
<polygon fill="midnightblue" stroke="midnightblue" points="1699.55,-198.49 1708.65,-193.06 1698.15,-191.64 1699.55,-198.49"/>
</g>
<!-- Node76&#45;&gt;Node49 -->
<g id="edge108" class="edge">
<title>Node76&#45;&gt;Node49</title>
<path fill="none" stroke="midnightblue" d="M1200.22,-241.21C1168.68,-234.34 1131.91,-221.82 1105.5,-199 1088.1,-183.97 1078.14,-158.87 1073.03,-141.65"/>
<polygon fill="midnightblue" stroke="midnightblue" points="1076.32,-140.41 1070.34,-131.67 1069.56,-142.23 1076.32,-140.41"/>
</g>
<!-- Node80&#45;&gt;Node11 -->
<g id="edge111" class="edge">
<title>Node80&#45;&gt;Node11</title>
<path fill="none" stroke="midnightblue" d="M2359.03,-364.46C2466.51,-358.96 2704.99,-344.57 2783.5,-322 2866.21,-298.22 2877.96,-270.2 2956.5,-235 2996.19,-217.21 3015.59,-228.56 3047.5,-199 3064.28,-183.46 3074.34,-158.67 3079.65,-141.65"/>
<polygon fill="midnightblue" stroke="midnightblue" points="3083.09,-142.35 3082.47,-131.77 3076.36,-140.43 3083.09,-142.35"/>
</g>
<!-- Node80&#45;&gt;Node14 -->
<g id="edge140" class="edge">
<title>Node80&#45;&gt;Node14</title>
<path fill="none" stroke="midnightblue" d="M2302.95,-358.27C2299.05,-345.48 2290.92,-321.11 2280.5,-302 2262.84,-269.61 2260.37,-257.97 2231.5,-235 2199.72,-209.71 2176.97,-226.95 2147.5,-199 2123.42,-176.16 2122.03,-164.33 2114.5,-132 2100.91,-73.64 2181.12,-36.44 2226.66,-20.29"/>
<polygon fill="midnightblue" stroke="midnightblue" points="2228.01,-23.53 2236.34,-16.99 2225.75,-16.9 2228.01,-23.53"/>
</g>
<!-- Node80&#45;&gt;Node25 -->
<g id="edge137" class="edge">
<title>Node80&#45;&gt;Node25</title>
<path fill="none" stroke="midnightblue" d="M2312.06,-358.38C2318.57,-349.57 2328.55,-335.32 2335.5,-322 2379.81,-237.06 2416.31,-127.89 2429.85,-85.22"/>
<polygon fill="midnightblue" stroke="midnightblue" points="2433.2,-86.24 2432.86,-75.65 2426.52,-84.15 2433.2,-86.24"/>
</g>
<!-- Node80&#45;&gt;Node37 -->
<g id="edge113" class="edge">
<title>Node80&#45;&gt;Node37</title>
<path fill="none" stroke="midnightblue" d="M2251.98,-361.89C2192.24,-355.49 2092.98,-342.76 2009.5,-322 1936.39,-303.82 1915.51,-302.32 1849.5,-266 1815.76,-247.44 1781.71,-217.9 1762.45,-199.94"/>
<polygon fill="midnightblue" stroke="midnightblue" points="1764.81,-197.36 1755.14,-193.02 1759.99,-202.44 1764.81,-197.36"/>
</g>
<!-- Node80&#45;&gt;Node31 -->
<g id="edge139" class="edge">
<title>Node80&#45;&gt;Node31</title>
<path fill="none" stroke="midnightblue" d="M2301.11,-358.25C2288.65,-334.34 2250.52,-267.54 2198.5,-235 2138.54,-197.5 2108.24,-227.47 2043.5,-199 2007.61,-183.22 1971.06,-155.45 1950.15,-138.21"/>
<polygon fill="midnightblue" stroke="midnightblue" points="1952.35,-135.48 1942.44,-131.74 1947.85,-140.85 1952.35,-135.48"/>
</g>
<!-- Node80&#45;&gt;Node49 -->
<g id="edge141" class="edge">
<title>Node80&#45;&gt;Node49</title>
<path fill="none" stroke="midnightblue" d="M2251.73,-361.57C2090.18,-345.12 1610.84,-295.14 1456.5,-266 1402.79,-255.86 1390.58,-248.03 1337.5,-235 1268.4,-218.03 1246.77,-227.33 1181.5,-199 1145.09,-183.2 1107.84,-155.44 1086.51,-138.2"/>
<polygon fill="midnightblue" stroke="midnightblue" points="1088.59,-135.38 1078.64,-131.73 1084.15,-140.79 1088.59,-135.38"/>
</g>
<!-- Node80&#45;&gt;Node39 -->
<g id="edge110" class="edge">
<title>Node80&#45;&gt;Node39</title>
<path fill="none" stroke="midnightblue" d="M2309.02,-358.44C2317.8,-335.56 2337.91,-272.24 2308.5,-235 2265.74,-180.85 2200.26,-253.15 2157.5,-199 2144.11,-182.05 2154.65,-156.88 2164.58,-140.21"/>
<polygon fill="midnightblue" stroke="midnightblue" points="2167.71,-141.81 2170.17,-131.51 2161.82,-138.03 2167.71,-141.81"/>
</g>
<!-- Node80&#45;&gt;Node63 -->
<g id="edge112" class="edge">
<title>Node80&#45;&gt;Node63</title>
<path fill="none" stroke="midnightblue" d="M2359.39,-366.7C2463.74,-365.31 2689.01,-358.08 2756.5,-322 2778.7,-310.13 2795.68,-285.85 2805.37,-269.13"/>
<polygon fill="midnightblue" stroke="midnightblue" points="2808.47,-270.76 2810.22,-260.31 2802.33,-267.39 2808.47,-270.76"/>
</g>
<!-- Node80&#45;&gt;Node43 -->
<g id="edge138" class="edge">
<title>Node80&#45;&gt;Node43</title>
<path fill="none" stroke="midnightblue" d="M2342.2,-358.44C2369.97,-351.08 2408.5,-338.96 2439.5,-322 2533.65,-270.5 2624.11,-176.58 2658.23,-139.09"/>
<polygon fill="midnightblue" stroke="midnightblue" points="2660.89,-141.36 2664.98,-131.59 2655.68,-136.68 2660.89,-141.36"/>
</g>
<!-- Node80&#45;&gt;Node97 -->
<g id="edge114" class="edge">
<title>Node80&#45;&gt;Node97</title>
<path fill="none" stroke="midnightblue" d="M2268.26,-358.44C2227.44,-349.06 2161.86,-333.99 2117.52,-323.8"/>
<polygon fill="midnightblue" stroke="midnightblue" points="2118.09,-320.34 2107.56,-321.52 2116.52,-327.17 2118.09,-320.34"/>
</g>
<!-- Node80&#45;&gt;Node101 -->
<g id="edge133" class="edge">
<title>Node80&#45;&gt;Node101</title>
<path fill="none" stroke="midnightblue" d="M2359.32,-359.55C2430.96,-349.63 2557.42,-332.12 2633.14,-321.63"/>
<polygon fill="midnightblue" stroke="midnightblue" points="2634.05,-325.04 2643.48,-320.2 2633.09,-318.11 2634.05,-325.04"/>
</g>
<!-- Node97&#45;&gt;Node11 -->
<g id="edge115" class="edge">
<title>Node97&#45;&gt;Node11</title>
<path fill="none" stroke="midnightblue" d="M2122.61,-306.67C2196.7,-300.11 2336.58,-286.23 2454.5,-266 2678.4,-227.58 2942.37,-160.44 3042.85,-134.08"/>
<polygon fill="midnightblue" stroke="midnightblue" points="3043.84,-137.44 3052.62,-131.51 3042.05,-130.67 3043.84,-137.44"/>
</g>
<!-- Node97&#45;&gt;Node14 -->
<g id="edge131" class="edge">
<title>Node97&#45;&gt;Node14</title>
<path fill="none" stroke="midnightblue" d="M2018.06,-308.96C1894.74,-303.83 1589.29,-289.13 1489.5,-266 1453.16,-257.58 1446.92,-246.72 1411.5,-235 1347.91,-213.96 1252.02,-230.35 1276.5,-168 1313.17,-74.61 1374.46,-77.32 1472.5,-56 1620.23,-23.88 2100.43,-13.64 2226.15,-11.48"/>
<polygon fill="midnightblue" stroke="midnightblue" points="2226.28,-14.97 2236.22,-11.31 2226.16,-7.97 2226.28,-14.97"/>
</g>
<!-- Node97&#45;&gt;Node16 -->
<g id="edge117" class="edge">
<title>Node97&#45;&gt;Node16</title>
<path fill="none" stroke="midnightblue" d="M2018.48,-308.46C1935.97,-303.73 1779.44,-291.6 1730.5,-266 1694.82,-247.34 1684.04,-236.56 1669.5,-199 1654.43,-160.05 1672.24,-110.91 1684.27,-84.96"/>
<polygon fill="midnightblue" stroke="midnightblue" points="1687.57,-86.16 1688.81,-75.64 1681.28,-83.1 1687.57,-86.16"/>
</g>
<!-- Node97&#45;&gt;Node24 -->
<g id="edge126" class="edge">
<title>Node97&#45;&gt;Node24</title>
<path fill="none" stroke="midnightblue" d="M2018.46,-304.17C1921.68,-290.24 1720.4,-255.04 1682.5,-199 1633.85,-127.07 1787.94,-87.84 1862.49,-73.46"/>
<polygon fill="midnightblue" stroke="midnightblue" points="1863.27,-76.87 1872.45,-71.59 1861.98,-69.99 1863.27,-76.87"/>
</g>
<!-- Node97&#45;&gt;Node25 -->
<g id="edge127" class="edge">
<title>Node97&#45;&gt;Node25</title>
<path fill="none" stroke="midnightblue" d="M2122.73,-306.71C2150.07,-301.5 2181.34,-290.22 2198.5,-266 2206.46,-254.76 2204.84,-247.23 2198.5,-235 2185.74,-210.37 2165.52,-220.1 2147.5,-199 2120.64,-167.55 2087.36,-143.21 2114.5,-112 2151.28,-69.7 2325.18,-65.99 2400.54,-66.42"/>
<polygon fill="midnightblue" stroke="midnightblue" points="2400.89,-69.92 2410.92,-66.51 2400.95,-62.92 2400.89,-69.92"/>
</g>
<!-- Node97&#45;&gt;Node35 -->
<g id="edge129" class="edge">
<title>Node97&#45;&gt;Node35</title>
<path fill="none" stroke="midnightblue" d="M2099.51,-302.43C2128.88,-293.66 2175.53,-279.44 2215.5,-266 2405.94,-201.99 2444.63,-156.69 2640.5,-112 2789.12,-78.09 2971.55,-69.72 3048.04,-67.67"/>
<polygon fill="midnightblue" stroke="midnightblue" points="3048.2,-71.16 3058.11,-67.42 3048.03,-64.17 3048.2,-71.16"/>
</g>
<!-- Node97&#45;&gt;Node31 -->
<g id="edge130" class="edge">
<title>Node97&#45;&gt;Node31</title>
<path fill="none" stroke="midnightblue" d="M2065.47,-302.26C2056.12,-286.71 2034.61,-254.1 2008.5,-235 1973.4,-209.32 1941.95,-234.97 1917.5,-199 1905.73,-181.68 1913.82,-157.32 1921.97,-140.89"/>
<polygon fill="midnightblue" stroke="midnightblue" points="1925.2,-142.27 1926.88,-131.81 1919.04,-138.94 1925.2,-142.27"/>
</g>
<!-- Node97&#45;&gt;Node49 -->
<g id="edge132" class="edge">
<title>Node97&#45;&gt;Node49</title>
<path fill="none" stroke="midnightblue" d="M2018.37,-310.36C1912.02,-308.37 1662.65,-300.12 1456.5,-266 1402.58,-257.08 1390.58,-248.03 1337.5,-235 1268.4,-218.03 1246.77,-227.33 1181.5,-199 1145.09,-183.2 1107.84,-155.44 1086.51,-138.2"/>
<polygon fill="midnightblue" stroke="midnightblue" points="1088.59,-135.38 1078.64,-131.73 1084.15,-140.79 1088.59,-135.38"/>
</g>
<!-- Node97&#45;&gt;Node43 -->
<g id="edge128" class="edge">
<title>Node97&#45;&gt;Node43</title>
<path fill="none" stroke="midnightblue" d="M2122.77,-309.51C2189.07,-306.36 2306.24,-296.55 2401.5,-266 2501.29,-234 2607.97,-166.58 2651.85,-137.19"/>
<polygon fill="midnightblue" stroke="midnightblue" points="2653.9,-140.02 2660.23,-131.52 2649.99,-134.22 2653.9,-140.02"/>
</g>
<!-- Node97&#45;&gt;Node66 -->
<g id="edge116" class="edge">
<title>Node97&#45;&gt;Node66</title>
<path fill="none" stroke="midnightblue" d="M2080.82,-302.48C2092.15,-293.11 2110.57,-277.88 2124.34,-266.51"/>
<polygon fill="midnightblue" stroke="midnightblue" points="2126.72,-269.08 2132.2,-260.01 2122.27,-263.68 2126.72,-269.08"/>
</g>
<!-- Node97&#45;&gt;Node68 -->
<g id="edge118" class="edge">
<title>Node97&#45;&gt;Node68</title>
<path fill="none" stroke="midnightblue" d="M2018.28,-304.97C1924.12,-294.09 1726.02,-271.2 1622.2,-259.21"/>
<polygon fill="midnightblue" stroke="midnightblue" points="1622.48,-255.72 1612.15,-258.04 1621.68,-262.67 1622.48,-255.72"/>
</g>
<!-- Node97&#45;&gt;Node71 -->
<g id="edge119" class="edge">
<title>Node97&#45;&gt;Node71</title>
<path fill="none" stroke="midnightblue" d="M2122.76,-310.15C2273.55,-307.37 2722.35,-296.92 3093.5,-266 3108.37,-264.76 3124.26,-263.06 3139.4,-261.27"/>
<polygon fill="midnightblue" stroke="midnightblue" points="3140.24,-264.69 3149.74,-260.01 3139.39,-257.74 3140.24,-264.69"/>
</g>
<!-- Node71&#45;&gt;Node11 -->
<g id="edge120" class="edge">
<title>Node71&#45;&gt;Node11</title>
<path fill="none" stroke="midnightblue" d="M3207.96,-240.95C3201.01,-224.99 3184.28,-190.29 3161.5,-168 3147.85,-154.64 3129.47,-143.7 3114.09,-135.96"/>
<polygon fill="midnightblue" stroke="midnightblue" points="3115.5,-132.75 3104.97,-131.55 3112.45,-139.05 3115.5,-132.75"/>
</g>
<!-- Node71&#45;&gt;Node25 -->
<g id="edge122" class="edge">
<title>Node71&#45;&gt;Node25</title>
<path fill="none" stroke="midnightblue" d="M3281.29,-242.27C3363.88,-233.01 3492.1,-216.08 3506.5,-199 3515.38,-188.47 3514.43,-179.27 3506.5,-168 3485.31,-137.88 3386.62,-119.21 3350.5,-112 3177.41,-77.47 2616.69,-68.99 2470.58,-67.34"/>
<polygon fill="midnightblue" stroke="midnightblue" points="2470.44,-63.84 2460.4,-67.23 2470.36,-70.84 2470.44,-63.84"/>
</g>
<!-- Node71&#45;&gt;Node18 -->
<g id="edge123" class="edge">
<title>Node71&#45;&gt;Node18</title>
<path fill="none" stroke="midnightblue" d="M3281.13,-243.38C3412.55,-231.66 3684.7,-206.55 3691.5,-199 3717.37,-170.26 3717.77,-140.37 3691.5,-112 3657.81,-75.6 3310.1,-83.81 3226.28,-75.41"/>
<polygon fill="midnightblue" stroke="midnightblue" points="3226.64,-71.93 3216.27,-74.11 3225.73,-78.87 3226.64,-71.93"/>
</g>
<!-- Node71&#45;&gt;Node37 -->
<g id="edge121" class="edge">
<title>Node71&#45;&gt;Node37</title>
<path fill="none" stroke="midnightblue" d="M3150.36,-240.99C3132.1,-238.71 3112.02,-236.48 3093.5,-235 2965.3,-224.74 2064.03,-194.86 1811.9,-186.63"/>
<polygon fill="midnightblue" stroke="midnightblue" points="1811.9,-183.12 1801.79,-186.3 1811.67,-190.12 1811.9,-183.12"/>
</g>
<!-- Node71&#45;&gt;Node31 -->
<g id="edge125" class="edge">
<title>Node71&#45;&gt;Node31</title>
<path fill="none" stroke="midnightblue" d="M3150.05,-241C3131.87,-238.74 3111.91,-236.51 3093.5,-235 2710.01,-203.51 2609.41,-253.45 2228.5,-199 2109.04,-181.92 2077.93,-168.69 1963.07,-133.64"/>
<polygon fill="midnightblue" stroke="midnightblue" points="1963.77,-130.19 1953.18,-130.63 1961.73,-136.89 1963.77,-130.19"/>
</g>
<!-- Node71&#45;&gt;Node43 -->
<g id="edge124" class="edge">
<title>Node71&#45;&gt;Node43</title>
<path fill="none" stroke="midnightblue" d="M3174.88,-240.9C3075.3,-217.54 2800.74,-153.1 2705.53,-130.75"/>
<polygon fill="midnightblue" stroke="midnightblue" points="2706.13,-127.3 2695.59,-128.42 2704.53,-134.11 2706.13,-127.3"/>
</g>
<!-- Node101&#45;&gt;Node10 -->
<g id="edge134" class="edge">
<title>Node101&#45;&gt;Node10</title>
<path fill="none" stroke="midnightblue" d="M2742.78,-302.48C2802.33,-291.74 2904.56,-273.31 2968.4,-261.79"/>
<polygon fill="midnightblue" stroke="midnightblue" points="2969.09,-265.23 2978.31,-260.01 2967.84,-258.34 2969.09,-265.23"/>
</g>
<!-- Node101&#45;&gt;Node37 -->
<g id="edge135" class="edge">
<title>Node101&#45;&gt;Node37</title>
<path fill="none" stroke="midnightblue" d="M2643.28,-309.22C2515.72,-304.53 2191.01,-290.5 2085.5,-266 2049.56,-257.65 2043.89,-245.43 2008.5,-235 1942.65,-215.59 1865.24,-201.73 1811.72,-193.5"/>
<polygon fill="midnightblue" stroke="midnightblue" points="1812.09,-190.02 1801.68,-191.98 1811.04,-196.94 1812.09,-190.02"/>
</g>
<!-- Node101&#45;&gt;Node43 -->
<g id="edge136" class="edge">
<title>Node101&#45;&gt;Node43</title>
<path fill="none" stroke="midnightblue" d="M2698.32,-302.34C2705.26,-279.63 2721.45,-216.72 2705.5,-168 2702.01,-157.34 2694.93,-147.12 2688.21,-139.12"/>
<polygon fill="midnightblue" stroke="midnightblue" points="2690.8,-136.76 2681.52,-131.66 2685.6,-141.44 2690.8,-136.76"/>
</g>
<!-- Node104&#45;&gt;Node24 -->
<g id="edge146" class="edge">
<title>Node104&#45;&gt;Node24</title>
<path fill="none" stroke="midnightblue" d="M1026.95,-360.48C893.45,-347.04 606.84,-313.5 520.5,-266 475.55,-241.27 426.77,-207.51 459.5,-168 565.25,-40.36 799.19,-124.88 1763.5,-76 1796.96,-74.3 1834.97,-71.76 1862.45,-69.81"/>
<polygon fill="midnightblue" stroke="midnightblue" points="1862.72,-73.3 1872.44,-69.09 1862.21,-66.31 1862.72,-73.3"/>
</g>
<!-- Node104&#45;&gt;Node25 -->
<g id="edge147" class="edge">
<title>Node104&#45;&gt;Node25</title>
<path fill="none" stroke="midnightblue" d="M1038.09,-358.48C872.19,-333.09 414.94,-254.34 492.5,-168 570.31,-81.37 897.34,-120.07 1013.5,-112 1295.55,-92.41 2210.32,-71.87 2400.63,-67.75"/>
<polygon fill="midnightblue" stroke="midnightblue" points="2400.96,-71.24 2410.88,-67.52 2400.81,-64.24 2400.96,-71.24"/>
</g>
<!-- Node104&#45;&gt;Node37 -->
<g id="edge144" class="edge">
<title>Node104&#45;&gt;Node37</title>
<path fill="none" stroke="midnightblue" d="M1099.75,-358.24C1109.36,-333.73 1140.26,-264.26 1191.5,-235 1202.04,-228.98 1537.12,-201.37 1681.44,-189.71"/>
<polygon fill="midnightblue" stroke="midnightblue" points="1681.8,-193.19 1691.49,-188.9 1681.24,-186.22 1681.8,-193.19"/>
</g>
<!-- Node104&#45;&gt;Node31 -->
<g id="edge149" class="edge">
<title>Node104&#45;&gt;Node31</title>
<path fill="none" stroke="midnightblue" d="M1091.62,-358.21C1079.33,-334.78 1050.3,-270.19 1082.5,-235 1143.5,-168.34 1402.05,-228.37 1487.5,-199 1511.52,-190.75 1511.58,-176.54 1535.5,-168 1603.02,-143.88 1820.36,-129.37 1901.53,-124.68"/>
<polygon fill="midnightblue" stroke="midnightblue" points="1901.83,-128.17 1911.62,-124.11 1901.44,-121.18 1901.83,-128.17"/>
</g>
<!-- Node104&#45;&gt;Node53 -->
<g id="edge143" class="edge">
<title>Node104&#45;&gt;Node53</title>
<path fill="none" stroke="midnightblue" d="M1080.72,-358.47C1068.3,-350.77 1051.89,-338.18 1044.5,-322 1028.43,-286.83 1019.46,-264.46 1044.5,-235 1075.26,-198.8 1208.04,-188.49 1289.21,-185.59"/>
<polygon fill="midnightblue" stroke="midnightblue" points="1289.45,-189.09 1299.33,-185.26 1289.22,-182.09 1289.45,-189.09"/>
</g>
<!-- Node104&#45;&gt;Node43 -->
<g id="edge148" class="edge">
<title>Node104&#45;&gt;Node43</title>
<path fill="none" stroke="midnightblue" d="M1097.28,-358.45C1098.76,-345.48 1102.87,-320.38 1113.5,-302 1134.74,-265.27 1143.13,-253.11 1181.5,-235 1320.51,-169.37 1383.57,-258.05 1525.5,-199 1545.62,-190.63 1543.12,-175.73 1563.5,-168 1614.98,-148.48 2458.69,-127.94 2638.83,-123.77"/>
<polygon fill="midnightblue" stroke="midnightblue" points="2639.11,-127.26 2649.03,-123.53 2638.95,-120.26 2639.11,-127.26"/>
</g>
<!-- Node104&#45;&gt;Node73 -->
<g id="edge145" class="edge">
<title>Node104&#45;&gt;Node73</title>
<path fill="none" stroke="midnightblue" d="M1166.08,-360.11C1275.11,-349.3 1484.13,-328.59 1584.7,-318.63"/>
<polygon fill="midnightblue" stroke="midnightblue" points="1585.06,-322.11 1594.67,-317.64 1584.37,-315.14 1585.06,-322.11"/>
</g>
<!-- Node110&#45;&gt;Node35 -->
<g id="edge172" class="edge">
<title>Node110&#45;&gt;Node35</title>
<path fill="none" stroke="midnightblue" d="M3530.65,-235.43C3548.67,-227.74 3567.04,-216.16 3577.5,-199 3584.67,-187.24 3585.53,-179.2 3577.5,-168 3532.39,-105.05 3487.87,-129.79 3412.5,-112 3384.53,-105.4 3200.03,-81.64 3120.68,-71.57"/>
<polygon fill="midnightblue" stroke="midnightblue" points="3121.01,-68.08 3110.65,-70.3 3120.13,-75.03 3121.01,-68.08"/>
</g>
<!-- Node110&#45;&gt;Node43 -->
<g id="edge171" class="edge">
<title>Node110&#45;&gt;Node43</title>
<path fill="none" stroke="midnightblue" d="M3435.29,-235.47C3368.55,-214.49 3245.04,-176.49 3199.5,-168 3103.91,-150.19 2805.81,-131.05 2705.68,-124.97"/>
<polygon fill="midnightblue" stroke="midnightblue" points="2705.74,-121.47 2695.54,-124.36 2705.31,-128.45 2705.74,-121.47"/>
</g>
<!-- Node111 -->
<g id="node44" class="node">
<title>Node111</title>
<g id="a_node44"><a xlink:href="MCSymbolizer_8h.html" target="_top" xlink:title="llvm/MC/MCDisassembler\l/MCSymbolizer.h">
<polygon fill="none" stroke="red" points="3365.5,-168.5 3365.5,-198.5 3497.5,-198.5 3497.5,-168.5 3365.5,-168.5"/>
<text text-anchor="start" x="3373.5" y="-186.5" font-family="Helvetica,sans-Serif" font-size="10.00">llvm/MC/MCDisassembler</text>
<text text-anchor="middle" x="3431.5" y="-175.5" font-family="Helvetica,sans-Serif" font-size="10.00">/MCSymbolizer.h</text>
</a>
</g>
</g>
<!-- Node110&#45;&gt;Node111 -->
<g id="edge167" class="edge">
<title>Node110&#45;&gt;Node111</title>
<path fill="none" stroke="midnightblue" d="M3469.08,-235.4C3462.92,-227.05 3454.97,-216.29 3447.98,-206.81"/>
<polygon fill="midnightblue" stroke="midnightblue" points="3450.65,-204.54 3441.89,-198.58 3445.02,-208.7 3450.65,-204.54"/>
</g>
<!-- Node111&#45;&gt;Node24 -->
<g id="edge168" class="edge">
<title>Node111&#45;&gt;Node24</title>
<path fill="none" stroke="midnightblue" d="M3414.45,-168.44C3392.62,-151.4 3352.89,-123.55 3313.5,-112 3245.76,-92.14 2158.18,-71.62 1938.86,-67.68"/>
<polygon fill="midnightblue" stroke="midnightblue" points="1938.86,-64.18 1928.8,-67.5 1938.73,-71.18 1938.86,-64.18"/>
</g>
<!-- Node111&#45;&gt;Node35 -->
<g id="edge170" class="edge">
<title>Node111&#45;&gt;Node35</title>
<path fill="none" stroke="midnightblue" d="M3426.98,-168.24C3420.97,-151.82 3408.7,-125.38 3388.5,-112 3377.41,-104.66 3199.21,-81.46 3120.92,-71.55"/>
<polygon fill="midnightblue" stroke="midnightblue" points="3120.92,-68.03 3110.56,-70.25 3120.04,-74.97 3120.92,-68.03"/>
</g>
<!-- Node111&#45;&gt;Node43 -->
<g id="edge169" class="edge">
<title>Node111&#45;&gt;Node43</title>
<path fill="none" stroke="midnightblue" d="M3365.49,-176.1C3337.71,-173.47 3305.04,-170.48 3275.5,-168 3058.14,-149.79 2796.4,-131.5 2705.5,-125.25"/>
<polygon fill="midnightblue" stroke="midnightblue" points="2705.73,-121.76 2695.51,-124.57 2705.25,-128.74 2705.73,-121.76"/>
</g>
<!-- Node113&#45;&gt;Node43 -->
<g id="edge175" class="edge">
<title>Node113&#45;&gt;Node43</title>
<path fill="none" stroke="midnightblue" d="M1248.36,-302.42C1226.9,-296.09 1204.41,-285.1 1191.5,-266 1183.78,-254.59 1182.24,-245.2 1191.5,-235 1247.33,-173.51 1481.73,-213.51 1563.5,-199 1617.31,-189.45 1628.46,-176.17 1682.5,-168 1873.13,-139.16 2488.77,-126.33 2639.14,-123.58"/>
<polygon fill="midnightblue" stroke="midnightblue" points="2639.21,-127.08 2649.15,-123.4 2639.09,-120.08 2639.21,-127.08"/>
</g>
<!-- Node113&#45;&gt;Node68 -->
<g id="edge174" class="edge">
<title>Node113&#45;&gt;Node68</title>
<path fill="none" stroke="midnightblue" d="M1339.61,-302.48C1384.33,-291.92 1460.58,-273.91 1509.47,-262.37"/>
<polygon fill="midnightblue" stroke="midnightblue" points="1510.53,-265.71 1519.46,-260.01 1508.92,-258.9 1510.53,-265.71"/>
</g>
<!-- Node114&#45;&gt;Node25 -->
<g id="edge193" class="edge">
<title>Node114&#45;&gt;Node25</title>
<path fill="none" stroke="midnightblue" d="M3573.5,-470.44C3573.5,-451.94 3573.5,-406.81 3573.5,-369 3573.5,-369 3573.5,-369 3573.5,-311 3573.5,-243.82 3571.48,-216.03 3524.5,-168 3483.91,-126.5 3462.82,-126.06 3406.5,-112 3223.82,-66.38 2621.86,-66.1 2470.35,-66.78"/>
<polygon fill="midnightblue" stroke="midnightblue" points="2470.21,-63.28 2460.23,-66.83 2470.25,-70.28 2470.21,-63.28"/>
</g>
<!-- Node115 -->
<g id="node47" class="node">
<title>Node115</title>
<g id="a_node47"><a xlink:href="MCInstrDesc_8h.html" target="_top" xlink:title="llvm/MC/MCInstrDesc.h">
<polygon fill="none" stroke="red" points="3602,-414.5 3602,-433.5 3725,-433.5 3725,-414.5 3602,-414.5"/>
<text text-anchor="middle" x="3663.5" y="-421.5" font-family="Helvetica,sans-Serif" font-size="10.00">llvm/MC/MCInstrDesc.h</text>
</a>
</g>
</g>
<!-- Node114&#45;&gt;Node115 -->
<g id="edge177" class="edge">
<title>Node114&#45;&gt;Node115</title>
<path fill="none" stroke="midnightblue" d="M3587.96,-470.32C3602,-461.9 3623.55,-448.97 3640.04,-439.07"/>
<polygon fill="midnightblue" stroke="midnightblue" points="3642.3,-441.8 3649.08,-433.65 3638.7,-435.8 3642.3,-441.8"/>
</g>
<!-- Node115&#45;&gt;Node31 -->
<g id="edge192" class="edge">
<title>Node115&#45;&gt;Node31</title>
<path fill="none" stroke="midnightblue" d="M3647.06,-414.27C3579.93,-378.68 3328.24,-245.89 3289.5,-235 3223.4,-216.42 2159.37,-139.3 1963.39,-125.21"/>
<polygon fill="midnightblue" stroke="midnightblue" points="1963.45,-121.71 1953.22,-124.48 1962.95,-128.69 1963.45,-121.71"/>
</g>
<!-- Node115&#45;&gt;Node116 -->
<g id="edge178" class="edge">
<title>Node115&#45;&gt;Node116</title>
<path fill="none" stroke="midnightblue" d="M3681.33,-414.32C3699.22,-405.62 3726.98,-392.12 3747.55,-382.11"/>
<polygon fill="midnightblue" stroke="midnightblue" points="3749.25,-385.18 3756.71,-377.65 3746.19,-378.88 3749.25,-385.18"/>
</g>
<!-- Node116&#45;&gt;Node12 -->
<g id="edge181" class="edge">
<title>Node116&#45;&gt;Node12</title>
<path fill="none" stroke="midnightblue" d="M3841.55,-363.92C3915.31,-356.5 4023.5,-331.92 4023.5,-251.5 4023.5,-251.5 4023.5,-251.5 4023.5,-182.5 4023.5,-150.05 4029.62,-132.55 4004.5,-112 3956.46,-72.71 3544.18,-67.41 3372.77,-66.92"/>
<polygon fill="midnightblue" stroke="midnightblue" points="3372.58,-63.42 3362.57,-66.9 3372.56,-70.42 3372.58,-63.42"/>
</g>
<!-- Node116&#45;&gt;Node13 -->
<g id="edge190" class="edge">
<title>Node116&#45;&gt;Node13</title>
<path fill="none" stroke="midnightblue" d="M3841.66,-366.26C3928.44,-363.96 4073.17,-355.1 4113.5,-322 4139.08,-301 4137.5,-284.6 4137.5,-251.5 4137.5,-251.5 4137.5,-251.5 4137.5,-121 4137.5,-90.2 4138.35,-74.18 4113.5,-56 4074.73,-27.64 3339.58,-14.21 3172.21,-11.52"/>
<polygon fill="midnightblue" stroke="midnightblue" points="3172.08,-8.01 3162.02,-11.35 3171.97,-15.01 3172.08,-8.01"/>
</g>
<!-- Node116&#45;&gt;Node14 -->
<g id="edge191" class="edge">
<title>Node116&#45;&gt;Node14</title>
<path fill="none" stroke="midnightblue" d="M3841.56,-362.46C3889.76,-357.24 3955.35,-346.03 4008.5,-322 4055.12,-300.93 4099.5,-302.66 4099.5,-251.5 4099.5,-251.5 4099.5,-251.5 4099.5,-121 4099.5,-26.2 2525.07,-12.67 2286.61,-11.17"/>
<polygon fill="midnightblue" stroke="midnightblue" points="2286.59,-7.67 2276.57,-11.1 2286.55,-14.67 2286.59,-7.67"/>
</g>
<!-- Node116&#45;&gt;Node25 -->
<g id="edge188" class="edge">
<title>Node116&#45;&gt;Node25</title>
<path fill="none" stroke="midnightblue" d="M3797.95,-358.41C3813.66,-351.28 3833.12,-339.46 3842.5,-322 3846.71,-314.17 3845.44,-310.39 3842.5,-302 3805.82,-197.27 3782.04,-156.77 3680.5,-112 3623.66,-86.94 2665.89,-70.61 2470.24,-67.53"/>
<polygon fill="midnightblue" stroke="midnightblue" points="2470.27,-64.03 2460.22,-67.37 2470.17,-71.03 2470.27,-64.03"/>
</g>
<!-- Node116&#45;&gt;Node51 -->
<g id="edge179" class="edge">
<title>Node116&#45;&gt;Node51</title>
<path fill="none" stroke="midnightblue" d="M3761.72,-358.49C3721.71,-332 3598.89,-251.72 3554.5,-235 3470.8,-203.48 3442.91,-222.09 3356.5,-199 3316.84,-188.4 3309.44,-177.49 3269.5,-168 3215.66,-155.2 3066.1,-138.77 2977.61,-129.72"/>
<polygon fill="midnightblue" stroke="midnightblue" points="2977.96,-126.24 2967.66,-128.71 2977.25,-133.21 2977.96,-126.24"/>
</g>
<!-- Node116&#45;&gt;Node41 -->
<g id="edge180" class="edge">
<title>Node116&#45;&gt;Node41</title>
<path fill="none" stroke="midnightblue" d="M3804.81,-358.48C3826.28,-351.34 3854.81,-339.46 3875.5,-322 3925.71,-279.63 3938.46,-261.88 3957.5,-199 3963.35,-179.68 3958.11,-156.68 3952.84,-141.09"/>
<polygon fill="midnightblue" stroke="midnightblue" points="3956.08,-139.76 3949.32,-131.61 3949.52,-142.2 3956.08,-139.76"/>
</g>
<!-- Node116&#45;&gt;Node43 -->
<g id="edge189" class="edge">
<title>Node116&#45;&gt;Node43</title>
<path fill="none" stroke="midnightblue" d="M3720.3,-358.48C3646.25,-345.47 3510.55,-316.65 3404.5,-266 3383.24,-255.85 3383.26,-244.02 3361.5,-235 3299.91,-209.47 2835.07,-145.07 2705.78,-127.49"/>
<polygon fill="midnightblue" stroke="midnightblue" points="2706.07,-124 2695.69,-126.12 2705.13,-130.94 2706.07,-124"/>
</g>
<!-- Node117 -->
<g id="node49" class="node">
<title>Node117</title>
<g id="a_node49"><a xlink:href="LaneBitmask_8h.html" target="_top" xlink:title="A common definition of LaneBitmask for use in TableGen and CodeGen. ">
<polygon fill="none" stroke="red" points="3233.5,-302.5 3233.5,-321.5 3355.5,-321.5 3355.5,-302.5 3233.5,-302.5"/>
<text text-anchor="middle" x="3294.5" y="-309.5" font-family="Helvetica,sans-Serif" font-size="10.00">llvm/MC/LaneBitmask.h</text>
</a>
</g>
</g>
<!-- Node116&#45;&gt;Node117 -->
<g id="edge182" class="edge">
<title>Node116&#45;&gt;Node117</title>
<path fill="none" stroke="midnightblue" d="M3707.25,-359.43C3617.1,-349.29 3457.77,-331.37 3365.67,-321.01"/>
<polygon fill="midnightblue" stroke="midnightblue" points="3365.93,-317.51 3355.6,-319.87 3365.15,-324.47 3365.93,-317.51"/>
</g>
<!-- Node119 -->
<g id="node50" class="node">
<title>Node119</title>
<g id="a_node50"><a xlink:href="MCRegister_8h.html" target="_top" xlink:title="llvm/MC/MCRegister.h">
<polygon fill="none" stroke="red" points="3716,-302.5 3716,-321.5 3833,-321.5 3833,-302.5 3716,-302.5"/>
<text text-anchor="middle" x="3774.5" y="-309.5" font-family="Helvetica,sans-Serif" font-size="10.00">llvm/MC/MCRegister.h</text>
</a>
</g>
</g>
<!-- Node116&#45;&gt;Node119 -->
<g id="edge186" class="edge">
<title>Node116&#45;&gt;Node119</title>
<path fill="none" stroke="midnightblue" d="M3774.5,-358.08C3774.5,-351.01 3774.5,-340.86 3774.5,-331.99"/>
<polygon fill="midnightblue" stroke="midnightblue" points="3778,-331.75 3774.5,-321.75 3771,-331.75 3778,-331.75"/>
</g>
<!-- Node117&#45;&gt;Node16 -->
<g id="edge183" class="edge">
<title>Node117&#45;&gt;Node16</title>
<path fill="none" stroke="midnightblue" d="M3295.98,-302.03C3297.98,-287.24 3300.17,-257.16 3289.5,-235 3254.28,-161.87 3229.78,-142.36 3154.5,-112 3087.96,-85.16 1935.19,-78.9 1863.5,-76 1831.13,-74.69 1795.32,-72.85 1764.94,-71.18"/>
<polygon fill="midnightblue" stroke="midnightblue" points="1765.04,-67.68 1754.86,-70.62 1764.65,-74.67 1765.04,-67.68"/>
</g>
<!-- Node117&#45;&gt;Node68 -->
<g id="edge184" class="edge">
<title>Node117&#45;&gt;Node68</title>
<path fill="none" stroke="midnightblue" d="M3233.22,-309.49C3033.84,-304.49 2385.56,-287.56 1849.5,-266 1771.42,-262.86 1681.73,-258.3 1622.15,-255.13"/>
<polygon fill="midnightblue" stroke="midnightblue" points="1622.29,-251.64 1612.12,-254.6 1621.92,-258.63 1622.29,-251.64"/>
</g>
<!-- Node117&#45;&gt;Node71 -->
<g id="edge185" class="edge">
<title>Node117&#45;&gt;Node71</title>
<path fill="none" stroke="midnightblue" d="M3282.61,-302.48C3269.3,-292.93 3247.5,-277.31 3231.54,-265.87"/>
<polygon fill="midnightblue" stroke="midnightblue" points="3233.54,-262.99 3223.37,-260.01 3229.46,-268.68 3233.54,-262.99"/>
</g>
<!-- Node119&#45;&gt;Node25 -->
<g id="edge187" class="edge">
<title>Node119&#45;&gt;Node25</title>
<path fill="none" stroke="midnightblue" d="M3772.32,-302.1C3763.81,-269.55 3729.52,-156.61 3653.5,-112 3601.14,-81.27 2663.48,-69.47 2470.18,-67.36"/>
<polygon fill="midnightblue" stroke="midnightblue" points="2470.06,-63.86 2460.03,-67.25 2469.99,-70.86 2470.06,-63.86"/>
</g>
</g>
</svg>
