<?xml version="1.0" encoding="UTF-8" standalone="no"?>
<!DOCTYPE svg PUBLIC "-//W3C//DTD SVG 1.1//EN"
 "http://www.w3.org/Graphics/SVG/1.1/DTD/svg11.dtd">
<!-- Generated by graphviz version 2.43.0 (0)
 -->
<!-- Title: include/llvm/Support/LineIterator.h Pages: 1 -->
<svg width="1540pt" height="173pt"
 viewBox="0.00 0.00 1540.00 173.00" xmlns="http://www.w3.org/2000/svg" xmlns:xlink="http://www.w3.org/1999/xlink">
<g id="graph0" class="graph" transform="scale(1 1) rotate(0) translate(4 169)">
<title>include/llvm/Support/LineIterator.h</title>
<!-- Node35 -->
<g id="node1" class="node">
<title>Node35</title>
<polygon fill="#bfbfbf" stroke="black" points="806,-134.5 806,-164.5 911,-164.5 911,-134.5 806,-134.5"/>
<text text-anchor="start" x="814" y="-152.5" font-family="Helvetica,sans-Serif" font-size="10.00">include/llvm/Support</text>
<text text-anchor="middle" x="858.5" y="-141.5" font-family="Helvetica,sans-Serif" font-size="10.00">/LineIterator.h</text>
</g>
<!-- Node36 -->
<g id="node2" class="node">
<title>Node36</title>
<g id="a_node2"><a xlink:href="InstrProfReader_8h.html" target="_top" xlink:title="include/llvm/ProfileData\l/InstrProfReader.h">
<polygon fill="none" stroke="black" points="222.5,-67.5 222.5,-97.5 342.5,-97.5 342.5,-67.5 222.5,-67.5"/>
<text text-anchor="start" x="230.5" y="-85.5" font-family="Helvetica,sans-Serif" font-size="10.00">include/llvm/ProfileData</text>
<text text-anchor="middle" x="282.5" y="-74.5" font-family="Helvetica,sans-Serif" font-size="10.00">/InstrProfReader.h</text>
</a>
</g>
</g>
<!-- Node35&#45;&gt;Node36 -->
<g id="edge1" class="edge">
<title>Node35&#45;&gt;Node36</title>
<path fill="none" stroke="midnightblue" d="M795.72,-144.36C699.81,-137.56 511.22,-122.29 352.5,-98 349.31,-97.51 346.05,-96.97 342.76,-96.4"/>
<polygon fill="midnightblue" stroke="midnightblue" points="795.6,-147.86 805.82,-145.07 796.09,-140.88 795.6,-147.86"/>
</g>
<!-- Node41 -->
<g id="node7" class="node">
<title>Node41</title>
<g id="a_node7"><a xlink:href="MIRParser_8cpp.html" target="_top" xlink:title="lib/CodeGen/MIRParser\l/MIRParser.cpp">
<polygon fill="none" stroke="black" points="361,-67.5 361,-97.5 482,-97.5 482,-67.5 361,-67.5"/>
<text text-anchor="start" x="369" y="-85.5" font-family="Helvetica,sans-Serif" font-size="10.00">lib/CodeGen/MIRParser</text>
<text text-anchor="middle" x="421.5" y="-74.5" font-family="Helvetica,sans-Serif" font-size="10.00">/MIRParser.cpp</text>
</a>
</g>
</g>
<!-- Node35&#45;&gt;Node41 -->
<g id="edge6" class="edge">
<title>Node35&#45;&gt;Node41</title>
<path fill="none" stroke="midnightblue" d="M795.77,-141.18C722.55,-132.33 597.89,-116.32 491.5,-98 488.44,-97.47 485.31,-96.91 482.16,-96.33"/>
<polygon fill="midnightblue" stroke="midnightblue" points="795.41,-144.66 805.76,-142.38 796.25,-137.71 795.41,-144.66"/>
</g>
<!-- Node42 -->
<g id="node8" class="node">
<title>Node42</title>
<g id="a_node8"><a xlink:href="DIPrinter_8cpp.html" target="_top" xlink:title="lib/DebugInfo/Symbolize\l/DIPrinter.cpp">
<polygon fill="none" stroke="black" points="500,-67.5 500,-97.5 623,-97.5 623,-67.5 500,-67.5"/>
<text text-anchor="start" x="508" y="-85.5" font-family="Helvetica,sans-Serif" font-size="10.00">lib/DebugInfo/Symbolize</text>
<text text-anchor="middle" x="561.5" y="-74.5" font-family="Helvetica,sans-Serif" font-size="10.00">/DIPrinter.cpp</text>
</a>
</g>
</g>
<!-- Node35&#45;&gt;Node42 -->
<g id="edge7" class="edge">
<title>Node35&#45;&gt;Node42</title>
<path fill="none" stroke="midnightblue" d="M795.87,-134.79C745.06,-123.67 673.83,-108.08 623.26,-97.02"/>
<polygon fill="midnightblue" stroke="midnightblue" points="795.23,-138.24 805.74,-136.95 796.72,-131.4 795.23,-138.24"/>
</g>
<!-- Node43 -->
<g id="node9" class="node">
<title>Node43</title>
<g id="a_node9"><a xlink:href="SampleProfReader_8cpp.html" target="_top" xlink:title="lib/ProfileData/SampleProf\lReader.cpp">
<polygon fill="none" stroke="black" points="641.5,-67.5 641.5,-97.5 773.5,-97.5 773.5,-67.5 641.5,-67.5"/>
<text text-anchor="start" x="649.5" y="-85.5" font-family="Helvetica,sans-Serif" font-size="10.00">lib/ProfileData/SampleProf</text>
<text text-anchor="middle" x="707.5" y="-74.5" font-family="Helvetica,sans-Serif" font-size="10.00">Reader.cpp</text>
</a>
</g>
</g>
<!-- Node35&#45;&gt;Node43 -->
<g id="edge8" class="edge">
<title>Node35&#45;&gt;Node43</title>
<path fill="none" stroke="midnightblue" d="M816.47,-130.41C792.36,-120.03 762.55,-107.2 740.2,-97.58"/>
<polygon fill="midnightblue" stroke="midnightblue" points="815.17,-133.66 825.74,-134.4 817.93,-127.23 815.17,-133.66"/>
</g>
<!-- Node44 -->
<g id="node10" class="node">
<title>Node44</title>
<g id="a_node10"><a xlink:href="LineIterator_8cpp.html" target="_top" xlink:title="lib/Support/LineIterator.cpp">
<polygon fill="none" stroke="black" points="791.5,-73 791.5,-92 925.5,-92 925.5,-73 791.5,-73"/>
<text text-anchor="middle" x="858.5" y="-80" font-family="Helvetica,sans-Serif" font-size="10.00">lib/Support/LineIterator.cpp</text>
</a>
</g>
</g>
<!-- Node35&#45;&gt;Node44 -->
<g id="edge9" class="edge">
<title>Node35&#45;&gt;Node44</title>
<path fill="none" stroke="midnightblue" d="M858.5,-124.25C858.5,-113.02 858.5,-100.38 858.5,-92.19"/>
<polygon fill="midnightblue" stroke="midnightblue" points="855,-124.4 858.5,-134.4 862,-124.4 855,-124.4"/>
</g>
<!-- Node45 -->
<g id="node11" class="node">
<title>Node45</title>
<g id="a_node11"><a xlink:href="SymbolRemappingReader_8cpp.html" target="_top" xlink:title="lib/Support/SymbolRemapping\lReader.cpp">
<polygon fill="none" stroke="black" points="944,-67.5 944,-97.5 1093,-97.5 1093,-67.5 944,-67.5"/>
<text text-anchor="start" x="952" y="-85.5" font-family="Helvetica,sans-Serif" font-size="10.00">lib/Support/SymbolRemapping</text>
<text text-anchor="middle" x="1018.5" y="-74.5" font-family="Helvetica,sans-Serif" font-size="10.00">Reader.cpp</text>
</a>
</g>
</g>
<!-- Node35&#45;&gt;Node45 -->
<g id="edge10" class="edge">
<title>Node35&#45;&gt;Node45</title>
<path fill="none" stroke="midnightblue" d="M902.7,-130.54C928.3,-120.14 960.07,-107.24 983.85,-97.58"/>
<polygon fill="midnightblue" stroke="midnightblue" points="901.16,-127.39 893.22,-134.4 903.8,-133.87 901.16,-127.39"/>
</g>
<!-- Node46 -->
<g id="node12" class="node">
<title>Node46</title>
<g id="a_node12"><a xlink:href="YAMLTraits_8cpp.html" target="_top" xlink:title="lib/Support/YAMLTraits.cpp">
<polygon fill="none" stroke="black" points="1111,-73 1111,-92 1248,-92 1248,-73 1111,-73"/>
<text text-anchor="middle" x="1179.5" y="-80" font-family="Helvetica,sans-Serif" font-size="10.00">lib/Support/YAMLTraits.cpp</text>
</a>
</g>
</g>
<!-- Node35&#45;&gt;Node46 -->
<g id="edge11" class="edge">
<title>Node35&#45;&gt;Node46</title>
<path fill="none" stroke="midnightblue" d="M921.08,-135.83C984.79,-122.93 1081.84,-103.28 1137.09,-92.09"/>
<polygon fill="midnightblue" stroke="midnightblue" points="920.25,-132.42 911.15,-137.84 921.64,-139.29 920.25,-132.42"/>
</g>
<!-- Node47 -->
<g id="node13" class="node">
<title>Node47</title>
<g id="a_node13"><a xlink:href="BTFDebug_8cpp.html" target="_top" xlink:title="lib/Target/BPF/BTFDebug.cpp">
<polygon fill="none" stroke="black" points="1266,-73 1266,-92 1415,-92 1415,-73 1266,-73"/>
<text text-anchor="middle" x="1340.5" y="-80" font-family="Helvetica,sans-Serif" font-size="10.00">lib/Target/BPF/BTFDebug.cpp</text>
</a>
</g>
</g>
<!-- Node35&#45;&gt;Node47 -->
<g id="edge12" class="edge">
<title>Node35&#45;&gt;Node47</title>
<path fill="none" stroke="midnightblue" d="M921.45,-141.46C1000.18,-132.44 1139.05,-115.83 1257.5,-98 1269.36,-96.21 1282.14,-94.08 1294.03,-92.02"/>
<polygon fill="midnightblue" stroke="midnightblue" points="920.75,-138.02 911.21,-142.63 921.55,-144.97 920.75,-138.02"/>
</g>
<!-- Node48 -->
<g id="node14" class="node">
<title>Node48</title>
<g id="a_node14"><a xlink:href="Internalize_8cpp.html" target="_top" xlink:title="lib/Transforms/IPO\l/Internalize.cpp">
<polygon fill="none" stroke="black" points="1433,-67.5 1433,-97.5 1532,-97.5 1532,-67.5 1433,-67.5"/>
<text text-anchor="start" x="1441" y="-85.5" font-family="Helvetica,sans-Serif" font-size="10.00">lib/Transforms/IPO</text>
<text text-anchor="middle" x="1482.5" y="-74.5" font-family="Helvetica,sans-Serif" font-size="10.00">/Internalize.cpp</text>
</a>
</g>
</g>
<!-- Node35&#45;&gt;Node48 -->
<g id="edge13" class="edge">
<title>Node35&#45;&gt;Node48</title>
<path fill="none" stroke="midnightblue" d="M921.23,-146.1C1026.07,-141.38 1243.27,-128.55 1424.5,-98 1427.26,-97.53 1430.09,-97.01 1432.93,-96.43"/>
<polygon fill="midnightblue" stroke="midnightblue" points="920.97,-142.61 911.13,-146.55 921.28,-149.6 920.97,-142.61"/>
</g>
<!-- Node37 -->
<g id="node3" class="node">
<title>Node37</title>
<g id="a_node3"><a xlink:href="CoverageMapping_8cpp.html" target="_top" xlink:title="lib/ProfileData/Coverage\l/CoverageMapping.cpp">
<polygon fill="none" stroke="black" points="0,-0.5 0,-30.5 123,-30.5 123,-0.5 0,-0.5"/>
<text text-anchor="start" x="8" y="-18.5" font-family="Helvetica,sans-Serif" font-size="10.00">lib/ProfileData/Coverage</text>
<text text-anchor="middle" x="61.5" y="-7.5" font-family="Helvetica,sans-Serif" font-size="10.00">/CoverageMapping.cpp</text>
</a>
</g>
</g>
<!-- Node36&#45;&gt;Node37 -->
<g id="edge2" class="edge">
<title>Node36&#45;&gt;Node37</title>
<path fill="none" stroke="midnightblue" d="M224.97,-64.58C189.08,-54.02 143.41,-40.59 109.48,-30.61"/>
<polygon fill="midnightblue" stroke="midnightblue" points="224.24,-68.01 234.82,-67.48 226.21,-61.3 224.24,-68.01"/>
</g>
<!-- Node38 -->
<g id="node4" class="node">
<title>Node38</title>
<g id="a_node4"><a xlink:href="InstrProf_8cpp.html" target="_top" xlink:title="lib/ProfileData/InstrProf.cpp">
<polygon fill="none" stroke="black" points="141,-6 141,-25 278,-25 278,-6 141,-6"/>
<text text-anchor="middle" x="209.5" y="-13" font-family="Helvetica,sans-Serif" font-size="10.00">lib/ProfileData/InstrProf.cpp</text>
</a>
</g>
</g>
<!-- Node36&#45;&gt;Node38 -->
<g id="edge3" class="edge">
<title>Node36&#45;&gt;Node38</title>
<path fill="none" stroke="midnightblue" d="M259.11,-60.67C245.63,-48.67 229.4,-34.22 219.26,-25.19"/>
<polygon fill="midnightblue" stroke="midnightblue" points="256.86,-63.36 266.66,-67.4 261.52,-58.13 256.86,-63.36"/>
</g>
<!-- Node39 -->
<g id="node5" class="node">
<title>Node39</title>
<g id="a_node5"><a xlink:href="InstrProfReader_8cpp.html" target="_top" xlink:title="lib/ProfileData/InstrProf\lReader.cpp">
<polygon fill="none" stroke="black" points="296,-0.5 296,-30.5 415,-30.5 415,-0.5 296,-0.5"/>
<text text-anchor="start" x="304" y="-18.5" font-family="Helvetica,sans-Serif" font-size="10.00">lib/ProfileData/InstrProf</text>
<text text-anchor="middle" x="355.5" y="-7.5" font-family="Helvetica,sans-Serif" font-size="10.00">Reader.cpp</text>
</a>
</g>
</g>
<!-- Node36&#45;&gt;Node39 -->
<g id="edge4" class="edge">
<title>Node36&#45;&gt;Node39</title>
<path fill="none" stroke="midnightblue" d="M305.97,-60.6C317,-50.78 329.84,-39.34 339.69,-30.58"/>
<polygon fill="midnightblue" stroke="midnightblue" points="303.48,-58.13 298.34,-67.4 308.14,-63.36 303.48,-58.13"/>
</g>
<!-- Node40 -->
<g id="node6" class="node">
<title>Node40</title>
<g id="a_node6"><a xlink:href="PGOInstrumentation_8cpp.html" target="_top" xlink:title="lib/Transforms/Instrumentation\l/PGOInstrumentation.cpp">
<polygon fill="none" stroke="black" points="433,-0.5 433,-30.5 582,-30.5 582,-0.5 433,-0.5"/>
<text text-anchor="start" x="441" y="-18.5" font-family="Helvetica,sans-Serif" font-size="10.00">lib/Transforms/Instrumentation</text>
<text text-anchor="middle" x="507.5" y="-7.5" font-family="Helvetica,sans-Serif" font-size="10.00">/PGOInstrumentation.cpp</text>
</a>
</g>
</g>
<!-- Node36&#45;&gt;Node40 -->
<g id="edge5" class="edge">
<title>Node36&#45;&gt;Node40</title>
<path fill="none" stroke="midnightblue" d="M341.07,-64.58C377.61,-54.02 424.1,-40.59 458.65,-30.61"/>
<polygon fill="midnightblue" stroke="midnightblue" points="339.68,-61.34 331.04,-67.48 341.62,-68.06 339.68,-61.34"/>
</g>
</g>
</svg>
