<?xml version="1.0" encoding="UTF-8" standalone="no"?>
<!DOCTYPE svg PUBLIC "-//W3C//DTD SVG 1.1//EN"
 "http://www.w3.org/Graphics/SVG/1.1/DTD/svg11.dtd">
<!-- Generated by graphviz version 2.43.0 (0)
 -->
<!-- Title: include/llvm/CodeGen/LiveIntervalUnion.h Pages: 1 -->
<svg width="1472pt" height="173pt"
 viewBox="0.00 0.00 1471.50 173.00" xmlns="http://www.w3.org/2000/svg" xmlns:xlink="http://www.w3.org/1999/xlink">
<g id="graph0" class="graph" transform="scale(1 1) rotate(0) translate(4 169)">
<title>include/llvm/CodeGen/LiveIntervalUnion.h</title>
<!-- Node161 -->
<g id="node1" class="node">
<title>Node161</title>
<polygon fill="#bfbfbf" stroke="black" points="1118,-134.5 1118,-164.5 1231,-164.5 1231,-134.5 1118,-134.5"/>
<text text-anchor="start" x="1126" y="-152.5" font-family="Helvetica,sans-Serif" font-size="10.00">include/llvm/CodeGen</text>
<text text-anchor="middle" x="1174.5" y="-141.5" font-family="Helvetica,sans-Serif" font-size="10.00">/LiveIntervalUnion.h</text>
</g>
<!-- Node162 -->
<g id="node2" class="node">
<title>Node162</title>
<g id="a_node2"><a xlink:href="LiveRegMatrix_8h.html" target="_top" xlink:title="include/llvm/CodeGen\l/LiveRegMatrix.h">
<polygon fill="none" stroke="black" points="669,-67.5 669,-97.5 782,-97.5 782,-67.5 669,-67.5"/>
<text text-anchor="start" x="677" y="-85.5" font-family="Helvetica,sans-Serif" font-size="10.00">include/llvm/CodeGen</text>
<text text-anchor="middle" x="725.5" y="-74.5" font-family="Helvetica,sans-Serif" font-size="10.00">/LiveRegMatrix.h</text>
</a>
</g>
</g>
<!-- Node161&#45;&gt;Node162 -->
<g id="edge1" class="edge">
<title>Node161&#45;&gt;Node162</title>
<path fill="none" stroke="midnightblue" d="M1107.72,-138.83C1019.4,-126.05 865.24,-103.73 782.26,-91.72"/>
<polygon fill="midnightblue" stroke="midnightblue" points="1107.24,-142.3 1117.63,-140.27 1108.24,-135.37 1107.24,-142.3"/>
</g>
<!-- Node163 -->
<g id="node3" class="node">
<title>Node163</title>
<g id="a_node3"><a xlink:href="LiveRegMatrix_8cpp.html" target="_top" xlink:title="lib/CodeGen/LiveRegMatrix.cpp">
<polygon fill="none" stroke="black" points="0,-6 0,-25 155,-25 155,-6 0,-6"/>
<text text-anchor="middle" x="77.5" y="-13" font-family="Helvetica,sans-Serif" font-size="10.00">lib/CodeGen/LiveRegMatrix.cpp</text>
</a>
</g>
</g>
<!-- Node161&#45;&gt;Node163 -->
<g id="edge14" class="edge">
<title>Node161&#45;&gt;Node163</title>
<path fill="none" stroke="midnightblue" d="M1107.56,-142.72C1009.23,-134.06 820.02,-116.71 659.5,-98 438.55,-72.25 383.43,-64.39 163.5,-31 151.52,-29.18 138.63,-27.08 126.57,-25.06"/>
<polygon fill="midnightblue" stroke="midnightblue" points="1107.39,-146.22 1117.65,-143.61 1108,-139.25 1107.39,-146.22"/>
</g>
<!-- Node166 -->
<g id="node6" class="node">
<title>Node166</title>
<g id="a_node6"><a xlink:href="RegAllocGreedy_8cpp.html" target="_top" xlink:title="lib/CodeGen/RegAllocGreedy.cpp">
<polygon fill="none" stroke="black" points="1102.5,-6 1102.5,-25 1266.5,-25 1266.5,-6 1102.5,-6"/>
<text text-anchor="middle" x="1184.5" y="-13" font-family="Helvetica,sans-Serif" font-size="10.00">lib/CodeGen/RegAllocGreedy.cpp</text>
</a>
</g>
</g>
<!-- Node161&#45;&gt;Node166 -->
<g id="edge15" class="edge">
<title>Node161&#45;&gt;Node166</title>
<path fill="none" stroke="midnightblue" d="M1159.34,-125.52C1150.49,-109.19 1142.18,-86.75 1148.5,-67 1153.82,-50.39 1166.82,-34.58 1175.65,-25.21"/>
<polygon fill="midnightblue" stroke="midnightblue" points="1156.45,-127.5 1164.52,-134.36 1162.49,-123.96 1156.45,-127.5"/>
</g>
<!-- Node170 -->
<g id="node10" class="node">
<title>Node170</title>
<g id="a_node10"><a xlink:href="InterferenceCache_8h.html" target="_top" xlink:title="lib/CodeGen/Interference\lCache.h">
<polygon fill="none" stroke="black" points="1158,-67.5 1158,-97.5 1283,-97.5 1283,-67.5 1158,-67.5"/>
<text text-anchor="start" x="1166" y="-85.5" font-family="Helvetica,sans-Serif" font-size="10.00">lib/CodeGen/Interference</text>
<text text-anchor="middle" x="1220.5" y="-74.5" font-family="Helvetica,sans-Serif" font-size="10.00">Cache.h</text>
</a>
</g>
</g>
<!-- Node161&#45;&gt;Node170 -->
<g id="edge9" class="edge">
<title>Node161&#45;&gt;Node170</title>
<path fill="none" stroke="midnightblue" d="M1190.31,-126.16C1197.02,-116.68 1204.63,-105.92 1210.54,-97.58"/>
<polygon fill="midnightblue" stroke="midnightblue" points="1187.4,-124.21 1184.48,-134.4 1193.12,-128.26 1187.4,-124.21"/>
</g>
<!-- Node171 -->
<g id="node11" class="node">
<title>Node171</title>
<g id="a_node11"><a xlink:href="InterferenceCache_8cpp.html" target="_top" xlink:title="lib/CodeGen/Interference\lCache.cpp">
<polygon fill="none" stroke="black" points="1285,-0.5 1285,-30.5 1410,-30.5 1410,-0.5 1285,-0.5"/>
<text text-anchor="start" x="1293" y="-18.5" font-family="Helvetica,sans-Serif" font-size="10.00">lib/CodeGen/Interference</text>
<text text-anchor="middle" x="1347.5" y="-7.5" font-family="Helvetica,sans-Serif" font-size="10.00">Cache.cpp</text>
</a>
</g>
</g>
<!-- Node161&#45;&gt;Node171 -->
<g id="edge12" class="edge">
<title>Node161&#45;&gt;Node171</title>
<path fill="none" stroke="midnightblue" d="M1233.33,-130.95C1253.5,-123.04 1275.3,-112.22 1292.5,-98 1315.26,-79.19 1332.38,-48.58 1341.08,-30.71"/>
<polygon fill="midnightblue" stroke="midnightblue" points="1232.03,-127.7 1223.9,-134.49 1234.49,-134.25 1232.03,-127.7"/>
</g>
<!-- Node172 -->
<g id="node12" class="node">
<title>Node172</title>
<g id="a_node12"><a xlink:href="LiveIntervalUnion_8cpp.html" target="_top" xlink:title="lib/CodeGen/LiveInterval\lUnion.cpp">
<polygon fill="none" stroke="black" points="1339.5,-67.5 1339.5,-97.5 1463.5,-97.5 1463.5,-67.5 1339.5,-67.5"/>
<text text-anchor="start" x="1347.5" y="-85.5" font-family="Helvetica,sans-Serif" font-size="10.00">lib/CodeGen/LiveInterval</text>
<text text-anchor="middle" x="1401.5" y="-74.5" font-family="Helvetica,sans-Serif" font-size="10.00">Union.cpp</text>
</a>
</g>
</g>
<!-- Node161&#45;&gt;Node172 -->
<g id="edge13" class="edge">
<title>Node161&#45;&gt;Node172</title>
<path fill="none" stroke="midnightblue" d="M1233.12,-131.71C1270.06,-121.14 1317.21,-107.63 1352.22,-97.61"/>
<polygon fill="midnightblue" stroke="midnightblue" points="1232.13,-128.36 1223.48,-134.48 1234.05,-135.09 1232.13,-128.36"/>
</g>
<!-- Node162&#45;&gt;Node163 -->
<g id="edge2" class="edge">
<title>Node162&#45;&gt;Node163</title>
<path fill="none" stroke="midnightblue" d="M658.52,-77.17C552.99,-69.96 341.68,-53.99 163.5,-31 150.74,-29.35 136.97,-27.2 124.27,-25.06"/>
<polygon fill="midnightblue" stroke="midnightblue" points="658.49,-80.67 668.7,-77.86 658.96,-73.69 658.49,-80.67"/>
</g>
<!-- Node164 -->
<g id="node4" class="node">
<title>Node164</title>
<g id="a_node4"><a xlink:href="RegAllocBase_8cpp.html" target="_top" xlink:title="lib/CodeGen/RegAllocBase.cpp">
<polygon fill="none" stroke="black" points="173,-6 173,-25 328,-25 328,-6 173,-6"/>
<text text-anchor="middle" x="250.5" y="-13" font-family="Helvetica,sans-Serif" font-size="10.00">lib/CodeGen/RegAllocBase.cpp</text>
</a>
</g>
</g>
<!-- Node162&#45;&gt;Node164 -->
<g id="edge3" class="edge">
<title>Node162&#45;&gt;Node164</title>
<path fill="none" stroke="midnightblue" d="M658.6,-73.6C581.01,-64.25 449.31,-47.83 336.5,-31 324.37,-29.19 311.31,-27.07 299.11,-25.03"/>
<polygon fill="midnightblue" stroke="midnightblue" points="658.37,-77.09 668.71,-74.81 659.2,-70.14 658.37,-77.09"/>
</g>
<!-- Node165 -->
<g id="node5" class="node">
<title>Node165</title>
<g id="a_node5"><a xlink:href="RegAllocBasic_8cpp.html" target="_top" xlink:title="lib/CodeGen/RegAllocBasic.cpp">
<polygon fill="none" stroke="black" points="346,-6 346,-25 503,-25 503,-6 346,-6"/>
<text text-anchor="middle" x="424.5" y="-13" font-family="Helvetica,sans-Serif" font-size="10.00">lib/CodeGen/RegAllocBasic.cpp</text>
</a>
</g>
</g>
<!-- Node162&#45;&gt;Node165 -->
<g id="edge4" class="edge">
<title>Node162&#45;&gt;Node165</title>
<path fill="none" stroke="midnightblue" d="M658.79,-67.1C599.09,-54.2 513.57,-35.74 464.07,-25.04"/>
<polygon fill="midnightblue" stroke="midnightblue" points="658.37,-70.58 668.88,-69.27 659.85,-63.74 658.37,-70.58"/>
</g>
<!-- Node162&#45;&gt;Node166 -->
<g id="edge5" class="edge">
<title>Node162&#45;&gt;Node166</title>
<path fill="none" stroke="midnightblue" d="M792.19,-72.72C865.77,-62.94 987.67,-46.47 1092.5,-31 1105.14,-29.13 1118.74,-27.04 1131.5,-25.03"/>
<polygon fill="midnightblue" stroke="midnightblue" points="791.59,-69.27 782.13,-74.06 792.51,-76.21 791.59,-69.27"/>
</g>
<!-- Node167 -->
<g id="node7" class="node">
<title>Node167</title>
<g id="a_node7"><a xlink:href="GCNNSAReassign_8cpp.html" target="_top" xlink:title="Try to reassign registers on GFX10+ from non&#45;sequential to sequential in NSA image instructions...">
<polygon fill="none" stroke="black" points="521,-6 521,-25 732,-25 732,-6 521,-6"/>
<text text-anchor="middle" x="626.5" y="-13" font-family="Helvetica,sans-Serif" font-size="10.00">lib/Target/AMDGPU/GCNNSAReassign.cpp</text>
</a>
</g>
</g>
<!-- Node162&#45;&gt;Node167 -->
<g id="edge6" class="edge">
<title>Node162&#45;&gt;Node167</title>
<path fill="none" stroke="midnightblue" d="M695.51,-61.81C676.78,-49.51 653.62,-34.3 639.46,-25.01"/>
<polygon fill="midnightblue" stroke="midnightblue" points="693.74,-64.83 704.02,-67.4 697.58,-58.98 693.74,-64.83"/>
</g>
<!-- Node168 -->
<g id="node8" class="node">
<title>Node168</title>
<g id="a_node8"><a xlink:href="GCNRegBankReassign_8cpp.html" target="_top" xlink:title="Try to reassign registers on GFX10+ to reduce register bank conflicts. ">
<polygon fill="none" stroke="black" points="750.5,-0.5 750.5,-30.5 898.5,-30.5 898.5,-0.5 750.5,-0.5"/>
<text text-anchor="start" x="758.5" y="-18.5" font-family="Helvetica,sans-Serif" font-size="10.00">lib/Target/AMDGPU/GCNReg</text>
<text text-anchor="middle" x="824.5" y="-7.5" font-family="Helvetica,sans-Serif" font-size="10.00">BankReassign.cpp</text>
</a>
</g>
</g>
<!-- Node162&#45;&gt;Node168 -->
<g id="edge7" class="edge">
<title>Node162&#45;&gt;Node168</title>
<path fill="none" stroke="midnightblue" d="M755.61,-61.73C770.92,-51.68 789.19,-39.68 803.06,-30.58"/>
<polygon fill="midnightblue" stroke="midnightblue" points="753.42,-58.98 746.98,-67.4 757.26,-64.83 753.42,-58.98"/>
</g>
<!-- Node169 -->
<g id="node9" class="node">
<title>Node169</title>
<g id="a_node9"><a xlink:href="SIPreAllocateWWMRegs_8cpp.html" target="_top" xlink:title="Pass to pre&#45;allocated WWM registers. ">
<polygon fill="none" stroke="black" points="917,-0.5 917,-30.5 1084,-30.5 1084,-0.5 917,-0.5"/>
<text text-anchor="start" x="925" y="-18.5" font-family="Helvetica,sans-Serif" font-size="10.00">lib/Target/AMDGPU/SIPreAllocate</text>
<text text-anchor="middle" x="1000.5" y="-7.5" font-family="Helvetica,sans-Serif" font-size="10.00">WWMRegs.cpp</text>
</a>
</g>
</g>
<!-- Node162&#45;&gt;Node169 -->
<g id="edge8" class="edge">
<title>Node162&#45;&gt;Node169</title>
<path fill="none" stroke="midnightblue" d="M791.91,-65.8C837.39,-55.05 897.17,-40.92 941.07,-30.55"/>
<polygon fill="midnightblue" stroke="midnightblue" points="791.07,-62.4 782.15,-68.11 792.68,-69.22 791.07,-62.4"/>
</g>
<!-- Node170&#45;&gt;Node166 -->
<g id="edge11" class="edge">
<title>Node170&#45;&gt;Node166</title>
<path fill="none" stroke="midnightblue" d="M1207.83,-58.63C1201.43,-47.07 1194.03,-33.71 1189.32,-25.19"/>
<polygon fill="midnightblue" stroke="midnightblue" points="1204.78,-60.34 1212.69,-67.4 1210.91,-56.95 1204.78,-60.34"/>
</g>
<!-- Node170&#45;&gt;Node171 -->
<g id="edge10" class="edge">
<title>Node170&#45;&gt;Node171</title>
<path fill="none" stroke="midnightblue" d="M1257.2,-62.71C1277.23,-52.46 1301.62,-39.98 1320,-30.58"/>
<polygon fill="midnightblue" stroke="midnightblue" points="1255.36,-59.72 1248.06,-67.4 1258.55,-65.96 1255.36,-59.72"/>
</g>
</g>
</svg>
