<?xml version="1.0" encoding="UTF-8" standalone="no"?>
<!DOCTYPE svg PUBLIC "-//W3C//DTD SVG 1.1//EN"
 "http://www.w3.org/Graphics/SVG/1.1/DTD/svg11.dtd">
<!-- Generated by graphviz version 2.43.0 (0)
 -->
<!-- Title: lib/AsmParser/LLToken.h Pages: 1 -->
<svg width="364pt" height="196pt"
 viewBox="0.00 0.00 364.00 196.00" xmlns="http://www.w3.org/2000/svg" xmlns:xlink="http://www.w3.org/1999/xlink">
<g id="graph0" class="graph" transform="scale(1 1) rotate(0) translate(4 192)">
<title>lib/AsmParser/LLToken.h</title>
<!-- Node1 -->
<g id="node1" class="node">
<title>Node1</title>
<polygon fill="#bfbfbf" stroke="black" points="77.5,-168.5 77.5,-187.5 204.5,-187.5 204.5,-168.5 77.5,-168.5"/>
<text text-anchor="middle" x="141" y="-175.5" font-family="Helvetica,sans-Serif" font-size="10.00">lib/AsmParser/LLToken.h</text>
</g>
<!-- Node2 -->
<g id="node2" class="node">
<title>Node2</title>
<g id="a_node2"><a xlink:href="LLLexer_8h.html" target="_top" xlink:title="lib/AsmParser/LLLexer.h">
<polygon fill="none" stroke="black" points="79,-112.5 79,-131.5 203,-131.5 203,-112.5 79,-112.5"/>
<text text-anchor="middle" x="141" y="-119.5" font-family="Helvetica,sans-Serif" font-size="10.00">lib/AsmParser/LLLexer.h</text>
</a>
</g>
</g>
<!-- Node1&#45;&gt;Node2 -->
<g id="edge1" class="edge">
<title>Node1&#45;&gt;Node2</title>
<path fill="none" stroke="midnightblue" d="M141,-157.8C141,-148.91 141,-138.78 141,-131.75"/>
<polygon fill="midnightblue" stroke="midnightblue" points="137.5,-158.08 141,-168.08 144.5,-158.08 137.5,-158.08"/>
</g>
<!-- Node3 -->
<g id="node3" class="node">
<title>Node3</title>
<g id="a_node3"><a xlink:href="LLLexer_8cpp.html" target="_top" xlink:title="lib/AsmParser/LLLexer.cpp">
<polygon fill="none" stroke="black" points="0,-56.5 0,-75.5 134,-75.5 134,-56.5 0,-56.5"/>
<text text-anchor="middle" x="67" y="-63.5" font-family="Helvetica,sans-Serif" font-size="10.00">lib/AsmParser/LLLexer.cpp</text>
</a>
</g>
</g>
<!-- Node2&#45;&gt;Node3 -->
<g id="edge2" class="edge">
<title>Node2&#45;&gt;Node3</title>
<path fill="none" stroke="midnightblue" d="M120.97,-106.38C107.59,-96.62 90.44,-84.11 79.11,-75.83"/>
<polygon fill="midnightblue" stroke="midnightblue" points="118.97,-109.26 129.11,-112.32 123.1,-103.6 118.97,-109.26"/>
</g>
<!-- Node4 -->
<g id="node4" class="node">
<title>Node4</title>
<g id="a_node4"><a xlink:href="LLParser_8h.html" target="_top" xlink:title="lib/AsmParser/LLParser.h">
<polygon fill="none" stroke="black" points="152,-56.5 152,-75.5 280,-75.5 280,-56.5 152,-56.5"/>
<text text-anchor="middle" x="216" y="-63.5" font-family="Helvetica,sans-Serif" font-size="10.00">lib/AsmParser/LLParser.h</text>
</a>
</g>
</g>
<!-- Node2&#45;&gt;Node4 -->
<g id="edge3" class="edge">
<title>Node2&#45;&gt;Node4</title>
<path fill="none" stroke="midnightblue" d="M161.31,-106.38C174.86,-96.62 192.24,-84.11 203.73,-75.83"/>
<polygon fill="midnightblue" stroke="midnightblue" points="159.12,-103.64 153.05,-112.32 163.21,-109.32 159.12,-103.64"/>
</g>
<!-- Node5 -->
<g id="node5" class="node">
<title>Node5</title>
<g id="a_node5"><a xlink:href="LLParser_8cpp.html" target="_top" xlink:title="lib/AsmParser/LLParser.cpp">
<polygon fill="none" stroke="black" points="70.5,-0.5 70.5,-19.5 209.5,-19.5 209.5,-0.5 70.5,-0.5"/>
<text text-anchor="middle" x="140" y="-7.5" font-family="Helvetica,sans-Serif" font-size="10.00">lib/AsmParser/LLParser.cpp</text>
</a>
</g>
</g>
<!-- Node4&#45;&gt;Node5 -->
<g id="edge4" class="edge">
<title>Node4&#45;&gt;Node5</title>
<path fill="none" stroke="midnightblue" d="M195.42,-50.38C181.69,-40.62 164.07,-28.11 152.43,-19.83"/>
<polygon fill="midnightblue" stroke="midnightblue" points="193.61,-53.38 203.79,-56.32 197.66,-47.68 193.61,-53.38"/>
</g>
<!-- Node6 -->
<g id="node6" class="node">
<title>Node6</title>
<g id="a_node6"><a xlink:href="Parser_8cpp.html" target="_top" xlink:title="lib/AsmParser/Parser.cpp">
<polygon fill="none" stroke="black" points="228,-0.5 228,-19.5 356,-19.5 356,-0.5 228,-0.5"/>
<text text-anchor="middle" x="292" y="-7.5" font-family="Helvetica,sans-Serif" font-size="10.00">lib/AsmParser/Parser.cpp</text>
</a>
</g>
</g>
<!-- Node4&#45;&gt;Node6 -->
<g id="edge5" class="edge">
<title>Node4&#45;&gt;Node6</title>
<path fill="none" stroke="midnightblue" d="M236.58,-50.38C250.31,-40.62 267.93,-28.11 279.57,-19.83"/>
<polygon fill="midnightblue" stroke="midnightblue" points="234.34,-47.68 228.21,-56.32 238.39,-53.38 234.34,-47.68"/>
</g>
</g>
</svg>
