<?xml version="1.0" encoding="UTF-8" standalone="no"?>
<!DOCTYPE svg PUBLIC "-//W3C//DTD SVG 1.1//EN"
 "http://www.w3.org/Graphics/SVG/1.1/DTD/svg11.dtd">
<!-- Generated by graphviz version 2.43.0 (0)
 -->
<!-- Title: lib/Support/Locale.cpp Pages: 1 -->
<svg width="1572pt" height="364pt"
 viewBox="0.00 0.00 1572.39 364.00" xmlns="http://www.w3.org/2000/svg" xmlns:xlink="http://www.w3.org/1999/xlink">
<g id="graph0" class="graph" transform="scale(1 1) rotate(0) translate(4 360)">
<title>lib/Support/Locale.cpp</title>
<!-- Node0 -->
<g id="node1" class="node">
<title>Node0</title>
<polygon fill="#bfbfbf" stroke="black" points="1271.89,-336.5 1271.89,-355.5 1384.89,-355.5 1384.89,-336.5 1271.89,-336.5"/>
<text text-anchor="middle" x="1328.39" y="-343.5" font-family="Helvetica,sans-Serif" font-size="10.00">lib/Support/Locale.cpp</text>
</g>
<!-- Node1 -->
<g id="node2" class="node">
<title>Node1</title>
<g id="a_node2"><a xlink:href="Locale_8h.html" target="_top" xlink:title="llvm/Support/Locale.h">
<polygon fill="none" stroke="black" points="1143.89,-280.5 1143.89,-299.5 1254.89,-299.5 1254.89,-280.5 1143.89,-280.5"/>
<text text-anchor="middle" x="1199.39" y="-287.5" font-family="Helvetica,sans-Serif" font-size="10.00">llvm/Support/Locale.h</text>
</a>
</g>
</g>
<!-- Node0&#45;&gt;Node1 -->
<g id="edge1" class="edge">
<title>Node0&#45;&gt;Node1</title>
<path fill="none" stroke="midnightblue" d="M1307.95,-336.44C1286.72,-327.56 1253.3,-313.56 1229.14,-303.45"/>
<polygon fill="midnightblue" stroke="midnightblue" points="1230.32,-300.15 1219.74,-299.52 1227.61,-306.61 1230.32,-300.15"/>
</g>
<!-- Node2 -->
<g id="node3" class="node">
<title>Node2</title>
<g id="a_node3"><a xlink:href="StringRef_8h.html" target="_top" xlink:title="llvm/ADT/StringRef.h">
<polygon fill="none" stroke="black" points="1273.39,-280.5 1273.39,-299.5 1383.39,-299.5 1383.39,-280.5 1273.39,-280.5"/>
<text text-anchor="middle" x="1328.39" y="-287.5" font-family="Helvetica,sans-Serif" font-size="10.00">llvm/ADT/StringRef.h</text>
</a>
</g>
</g>
<!-- Node0&#45;&gt;Node2 -->
<g id="edge2" class="edge">
<title>Node0&#45;&gt;Node2</title>
<path fill="none" stroke="midnightblue" d="M1328.39,-336.08C1328.39,-329.01 1328.39,-318.86 1328.39,-309.99"/>
<polygon fill="midnightblue" stroke="midnightblue" points="1331.9,-309.75 1328.39,-299.75 1324.9,-309.75 1331.9,-309.75"/>
</g>
<!-- Node30 -->
<g id="node31" class="node">
<title>Node30</title>
<g id="a_node31"><a xlink:href="Unicode_8h.html" target="_top" xlink:title="llvm/Support/Unicode.h">
<polygon fill="none" stroke="black" points="1401.89,-280.5 1401.89,-299.5 1520.89,-299.5 1520.89,-280.5 1401.89,-280.5"/>
<text text-anchor="middle" x="1461.39" y="-287.5" font-family="Helvetica,sans-Serif" font-size="10.00">llvm/Support/Unicode.h</text>
</a>
</g>
</g>
<!-- Node0&#45;&gt;Node30 -->
<g id="edge54" class="edge">
<title>Node0&#45;&gt;Node30</title>
<path fill="none" stroke="midnightblue" d="M1349.47,-336.44C1371.45,-327.52 1406.13,-313.44 1431.06,-303.32"/>
<polygon fill="midnightblue" stroke="midnightblue" points="1432.47,-306.52 1440.42,-299.52 1429.84,-300.04 1432.47,-306.52"/>
</g>
<!-- Node3 -->
<g id="node4" class="node">
<title>Node3</title>
<g id="a_node4"><a xlink:href="STLExtras_8h.html" target="_top" xlink:title="llvm/ADT/STLExtras.h">
<polygon fill="none" stroke="black" points="785.39,-224.5 785.39,-243.5 901.39,-243.5 901.39,-224.5 785.39,-224.5"/>
<text text-anchor="middle" x="843.39" y="-231.5" font-family="Helvetica,sans-Serif" font-size="10.00">llvm/ADT/STLExtras.h</text>
</a>
</g>
</g>
<!-- Node2&#45;&gt;Node3 -->
<g id="edge3" class="edge">
<title>Node2&#45;&gt;Node3</title>
<path fill="none" stroke="midnightblue" d="M1273.09,-281.22C1269.81,-280.8 1266.56,-280.39 1263.39,-280 1139.54,-264.79 994.79,-249.92 911.63,-241.66"/>
<polygon fill="midnightblue" stroke="midnightblue" points="911.85,-238.16 901.55,-240.66 911.16,-245.13 911.85,-238.16"/>
</g>
<!-- Node6 -->
<g id="node7" class="node">
<title>Node6</title>
<g id="a_node7"><a xlink:href="Compiler_8h.html" target="_top" xlink:title="llvm/Support/Compiler.h">
<polygon fill="none" stroke="black" points="86.39,-56.5 86.39,-75.5 208.39,-75.5 208.39,-56.5 86.39,-56.5"/>
<text text-anchor="middle" x="147.39" y="-63.5" font-family="Helvetica,sans-Serif" font-size="10.00">llvm/Support/Compiler.h</text>
</a>
</g>
</g>
<!-- Node2&#45;&gt;Node6 -->
<g id="edge45" class="edge">
<title>Node2&#45;&gt;Node6</title>
<path fill="none" stroke="midnightblue" d="M1273.12,-280.94C1269.83,-280.58 1266.57,-280.27 1263.39,-280 1132.35,-268.97 200.63,-297.26 80.39,-244 20.42,-217.43 -23.84,-165.3 14.39,-112 28.88,-91.81 52.92,-80.56 76.61,-74.34"/>
<polygon fill="midnightblue" stroke="midnightblue" points="77.43,-77.74 86.36,-72.04 75.82,-70.93 77.43,-77.74"/>
</g>
<!-- Node10 -->
<g id="node11" class="node">
<title>Node10</title>
<polygon fill="none" stroke="#bfbfbf" points="290.39,-56.5 290.39,-75.5 352.39,-75.5 352.39,-56.5 290.39,-56.5"/>
<text text-anchor="middle" x="321.39" y="-63.5" font-family="Helvetica,sans-Serif" font-size="10.00">type_traits</text>
</g>
<!-- Node2&#45;&gt;Node10 -->
<g id="edge52" class="edge">
<title>Node2&#45;&gt;Node10</title>
<path fill="none" stroke="midnightblue" d="M1273.12,-280.94C1269.83,-280.59 1266.57,-280.27 1263.39,-280 1139,-269.42 260.37,-278.51 140.39,-244 92.92,-230.35 75.02,-226.76 44.39,-188 22.94,-160.84 4.85,-138.26 27.39,-112 43.64,-93.08 202.76,-77.09 279.89,-70.38"/>
<polygon fill="midnightblue" stroke="midnightblue" points="280.54,-73.84 290.2,-69.5 279.94,-66.87 280.54,-73.84"/>
</g>
<!-- Node11 -->
<g id="node12" class="node">
<title>Node11</title>
<polygon fill="none" stroke="#bfbfbf" points="807.39,-56.5 807.39,-75.5 847.39,-75.5 847.39,-56.5 807.39,-56.5"/>
<text text-anchor="middle" x="827.39" y="-63.5" font-family="Helvetica,sans-Serif" font-size="10.00">utility</text>
</g>
<!-- Node2&#45;&gt;Node11 -->
<g id="edge53" class="edge">
<title>Node2&#45;&gt;Node11</title>
<path fill="none" stroke="midnightblue" d="M1383.64,-281.9C1407.05,-275.86 1432.15,-264.67 1446.39,-244 1482.26,-191.94 1450.43,-139.28 1393.39,-112 1344.88,-88.8 967.76,-72.45 857.55,-68.13"/>
<polygon fill="midnightblue" stroke="midnightblue" points="857.58,-64.63 847.45,-67.74 857.31,-71.63 857.58,-64.63"/>
</g>
<!-- Node12 -->
<g id="node13" class="node">
<title>Node12</title>
<polygon fill="none" stroke="#bfbfbf" points="637.89,-112.5 637.89,-131.5 686.89,-131.5 686.89,-112.5 637.89,-112.5"/>
<text text-anchor="middle" x="662.39" y="-119.5" font-family="Helvetica,sans-Serif" font-size="10.00">cassert</text>
</g>
<!-- Node2&#45;&gt;Node12 -->
<g id="edge47" class="edge">
<title>Node2&#45;&gt;Node12</title>
<path fill="none" stroke="midnightblue" d="M1273.11,-281.1C1269.82,-280.71 1266.57,-280.34 1263.39,-280 1090.93,-261.7 598.71,-321.83 488.39,-188 482.74,-181.14 482.95,-175.03 488.39,-168 490.57,-165.19 578.01,-143.53 628.08,-131.32"/>
<polygon fill="midnightblue" stroke="midnightblue" points="628.97,-134.7 637.86,-128.94 627.32,-127.9 628.97,-134.7"/>
</g>
<!-- Node16 -->
<g id="node17" class="node">
<title>Node16</title>
<g id="a_node17"><a xlink:href="iterator__range_8h.html" target="_top" xlink:title="This provides a very simple, boring adaptor for a begin and end iterator into a range type...">
<polygon fill="none" stroke="black" points="1076.39,-112.5 1076.39,-131.5 1204.39,-131.5 1204.39,-112.5 1076.39,-112.5"/>
<text text-anchor="middle" x="1140.39" y="-119.5" font-family="Helvetica,sans-Serif" font-size="10.00">llvm/ADT/iterator_range.h</text>
</a>
</g>
</g>
<!-- Node2&#45;&gt;Node16 -->
<g id="edge44" class="edge">
<title>Node2&#45;&gt;Node16</title>
<path fill="none" stroke="midnightblue" d="M1334.94,-280.28C1350.28,-258.72 1385.21,-202.18 1357.39,-168 1339.5,-146.02 1270.33,-134.43 1214.83,-128.56"/>
<polygon fill="midnightblue" stroke="midnightblue" points="1214.95,-125.05 1204.64,-127.53 1214.24,-132.02 1214.95,-125.05"/>
</g>
<!-- Node18 -->
<g id="node19" class="node">
<title>Node18</title>
<polygon fill="none" stroke="#bfbfbf" points="1260.39,-112.5 1260.39,-131.5 1316.39,-131.5 1316.39,-112.5 1260.39,-112.5"/>
<text text-anchor="middle" x="1288.39" y="-119.5" font-family="Helvetica,sans-Serif" font-size="10.00">algorithm</text>
</g>
<!-- Node2&#45;&gt;Node18 -->
<g id="edge46" class="edge">
<title>Node2&#45;&gt;Node18</title>
<path fill="none" stroke="midnightblue" d="M1348.62,-280.49C1363.17,-273.17 1381.7,-261.06 1390.39,-244 1405.74,-213.91 1408.84,-196.3 1390.39,-168 1382.83,-156.39 1351.81,-143.69 1325.94,-134.75"/>
<polygon fill="midnightblue" stroke="midnightblue" points="1326.94,-131.39 1316.34,-131.52 1324.7,-138.02 1326.94,-131.39"/>
</g>
<!-- Node19 -->
<g id="node20" class="node">
<title>Node19</title>
<polygon fill="none" stroke="#bfbfbf" points="1334.89,-112.5 1334.89,-131.5 1383.89,-131.5 1383.89,-112.5 1334.89,-112.5"/>
<text text-anchor="middle" x="1359.39" y="-119.5" font-family="Helvetica,sans-Serif" font-size="10.00">cstddef</text>
</g>
<!-- Node2&#45;&gt;Node19 -->
<g id="edge48" class="edge">
<title>Node2&#45;&gt;Node19</title>
<path fill="none" stroke="midnightblue" d="M1373.09,-280.48C1393.62,-274.09 1416.09,-263.02 1428.39,-244 1446.74,-215.64 1444.48,-197.7 1428.39,-168 1420.65,-153.7 1406.16,-143.22 1392.45,-135.99"/>
<polygon fill="midnightblue" stroke="midnightblue" points="1393.71,-132.71 1383.18,-131.5 1390.66,-139.01 1393.71,-132.71"/>
</g>
<!-- Node22 -->
<g id="node23" class="node">
<title>Node22</title>
<polygon fill="none" stroke="#bfbfbf" points="36.89,-112.5 36.89,-131.5 77.89,-131.5 77.89,-112.5 36.89,-112.5"/>
<text text-anchor="middle" x="57.39" y="-119.5" font-family="Helvetica,sans-Serif" font-size="10.00">string</text>
</g>
<!-- Node2&#45;&gt;Node22 -->
<g id="edge51" class="edge">
<title>Node2&#45;&gt;Node22</title>
<path fill="none" stroke="midnightblue" d="M1273.12,-281.01C1269.83,-280.64 1266.57,-280.3 1263.39,-280 1129.37,-267.43 144.91,-288.54 55.39,-188 44.39,-175.64 46.64,-156.11 50.58,-141.69"/>
<polygon fill="midnightblue" stroke="midnightblue" points="54.02,-142.44 53.73,-131.85 47.35,-140.31 54.02,-142.44"/>
</g>
<!-- Node27 -->
<g id="node28" class="node">
<title>Node27</title>
<polygon fill="none" stroke="#bfbfbf" points="1308.39,-168.5 1308.39,-187.5 1348.39,-187.5 1348.39,-168.5 1308.39,-168.5"/>
<text text-anchor="middle" x="1328.39" y="-175.5" font-family="Helvetica,sans-Serif" font-size="10.00">limits</text>
</g>
<!-- Node2&#45;&gt;Node27 -->
<g id="edge50" class="edge">
<title>Node2&#45;&gt;Node27</title>
<path fill="none" stroke="midnightblue" d="M1328.39,-280.37C1328.39,-262.62 1328.39,-221.67 1328.39,-197.6"/>
<polygon fill="midnightblue" stroke="midnightblue" points="1331.9,-197.59 1328.39,-187.59 1324.9,-197.59 1331.9,-197.59"/>
</g>
<!-- Node29 -->
<g id="node30" class="node">
<title>Node29</title>
<polygon fill="none" stroke="#bfbfbf" points="1518.39,-224.5 1518.39,-243.5 1564.39,-243.5 1564.39,-224.5 1518.39,-224.5"/>
<text text-anchor="middle" x="1541.39" y="-231.5" font-family="Helvetica,sans-Serif" font-size="10.00">cstring</text>
</g>
<!-- Node2&#45;&gt;Node29 -->
<g id="edge49" class="edge">
<title>Node2&#45;&gt;Node29</title>
<path fill="none" stroke="midnightblue" d="M1362.15,-280.44C1402.29,-270.27 1468.85,-253.39 1508.58,-243.32"/>
<polygon fill="midnightblue" stroke="midnightblue" points="1509.47,-246.7 1518.31,-240.85 1507.75,-239.92 1509.47,-246.7"/>
</g>
<!-- Node4 -->
<g id="node5" class="node">
<title>Node4</title>
<g id="a_node5"><a xlink:href="Optional_8h.html" target="_top" xlink:title="llvm/ADT/Optional.h">
<polygon fill="none" stroke="black" points="300.89,-168.5 300.89,-187.5 405.89,-187.5 405.89,-168.5 300.89,-168.5"/>
<text text-anchor="middle" x="353.39" y="-175.5" font-family="Helvetica,sans-Serif" font-size="10.00">llvm/ADT/Optional.h</text>
</a>
</g>
</g>
<!-- Node3&#45;&gt;Node4 -->
<g id="edge4" class="edge">
<title>Node3&#45;&gt;Node4</title>
<path fill="none" stroke="midnightblue" d="M785.26,-226.59C692.56,-216.38 511.98,-196.48 416.34,-185.94"/>
<polygon fill="midnightblue" stroke="midnightblue" points="416.55,-182.44 406.23,-184.82 415.79,-189.4 416.55,-182.44"/>
</g>
<!-- Node3&#45;&gt;Node10 -->
<g id="edge42" class="edge">
<title>Node3&#45;&gt;Node10</title>
<path fill="none" stroke="midnightblue" d="M785.32,-232.46C656.27,-230.64 349.41,-222.69 252.39,-188 242.18,-184.35 177.41,-141.62 172.39,-132 149.47,-87.97 228.38,-73.76 280.01,-69.18"/>
<polygon fill="midnightblue" stroke="midnightblue" points="280.56,-72.64 290.25,-68.36 280.01,-65.67 280.56,-72.64"/>
</g>
<!-- Node3&#45;&gt;Node11 -->
<g id="edge43" class="edge">
<title>Node3&#45;&gt;Node11</title>
<path fill="none" stroke="midnightblue" d="M785.39,-233.36C703.91,-232.48 561.86,-225.45 529.39,-188 523.57,-181.28 523.82,-174.92 529.39,-168 576.78,-109.23 624.11,-156.86 695.39,-132 734.96,-118.2 778.02,-95.4 803.85,-80.79"/>
<polygon fill="midnightblue" stroke="midnightblue" points="805.92,-83.64 812.86,-75.63 802.45,-77.57 805.92,-83.64"/>
</g>
<!-- Node3&#45;&gt;Node12 -->
<g id="edge32" class="edge">
<title>Node3&#45;&gt;Node12</title>
<path fill="none" stroke="midnightblue" d="M785.07,-229.58C691.18,-223.47 515.12,-209.31 496.39,-188 490.53,-181.32 490.99,-175.06 496.39,-168 500.46,-162.68 580.3,-142.73 627.75,-131.26"/>
<polygon fill="midnightblue" stroke="midnightblue" points="628.72,-134.62 637.63,-128.88 627.09,-127.82 628.72,-134.62"/>
</g>
<!-- Node13 -->
<g id="node14" class="node">
<title>Node13</title>
<polygon fill="none" stroke="#bfbfbf" points="181.39,-112.5 181.39,-131.5 233.39,-131.5 233.39,-112.5 181.39,-112.5"/>
<text text-anchor="middle" x="207.39" y="-119.5" font-family="Helvetica,sans-Serif" font-size="10.00">memory</text>
</g>
<!-- Node3&#45;&gt;Node13 -->
<g id="edge40" class="edge">
<title>Node3&#45;&gt;Node13</title>
<path fill="none" stroke="midnightblue" d="M785.36,-232.42C662.53,-230.54 380.26,-222.46 291.39,-188 263.87,-177.33 237.92,-154.58 222.34,-139.04"/>
<polygon fill="midnightblue" stroke="midnightblue" points="224.66,-136.41 215.19,-131.67 219.64,-141.28 224.66,-136.41"/>
</g>
<!-- Node15 -->
<g id="node16" class="node">
<title>Node15</title>
<g id="a_node16"><a xlink:href="iterator_8h.html" target="_top" xlink:title="llvm/ADT/iterator.h">
<polygon fill="none" stroke="black" points="1114.89,-168.5 1114.89,-187.5 1213.89,-187.5 1213.89,-168.5 1114.89,-168.5"/>
<text text-anchor="middle" x="1164.39" y="-175.5" font-family="Helvetica,sans-Serif" font-size="10.00">llvm/ADT/iterator.h</text>
</a>
</g>
</g>
<!-- Node3&#45;&gt;Node15 -->
<g id="edge17" class="edge">
<title>Node3&#45;&gt;Node15</title>
<path fill="none" stroke="midnightblue" d="M894.26,-224.44C951.41,-214.83 1044.1,-199.24 1104.65,-189.05"/>
<polygon fill="midnightblue" stroke="midnightblue" points="1105.54,-192.45 1114.82,-187.34 1104.38,-185.55 1105.54,-192.45"/>
</g>
<!-- Node3&#45;&gt;Node16 -->
<g id="edge26" class="edge">
<title>Node3&#45;&gt;Node16</title>
<path fill="none" stroke="midnightblue" d="M901.67,-228.83C947.28,-223.76 1011.33,-212.58 1062.39,-188 1087.32,-176 1111,-154.28 1125.59,-139.28"/>
<polygon fill="midnightblue" stroke="midnightblue" points="1128.39,-141.41 1132.71,-131.73 1123.3,-136.6 1128.39,-141.41"/>
</g>
<!-- Node17 -->
<g id="node18" class="node">
<title>Node17</title>
<polygon fill="none" stroke="#bfbfbf" points="1116.89,-56.5 1116.89,-75.5 1163.89,-75.5 1163.89,-56.5 1116.89,-56.5"/>
<text text-anchor="middle" x="1140.39" y="-63.5" font-family="Helvetica,sans-Serif" font-size="10.00">iterator</text>
</g>
<!-- Node3&#45;&gt;Node17 -->
<g id="edge38" class="edge">
<title>Node3&#45;&gt;Node17</title>
<path fill="none" stroke="midnightblue" d="M901.79,-231.41C941.53,-227.55 993.26,-216.76 1029.39,-188 1058.94,-164.48 1041.9,-139.86 1067.39,-112 1079.6,-98.66 1096.64,-87.86 1111.2,-80.18"/>
<polygon fill="midnightblue" stroke="midnightblue" points="1112.96,-83.21 1120.32,-75.59 1109.82,-76.95 1112.96,-83.21"/>
</g>
<!-- Node3&#45;&gt;Node18 -->
<g id="edge31" class="edge">
<title>Node3&#45;&gt;Node18</title>
<path fill="none" stroke="midnightblue" d="M901.56,-230.68C993.36,-226.26 1167.08,-214.58 1222.39,-188 1245.18,-177.05 1264.86,-155.05 1276.66,-139.69"/>
<polygon fill="midnightblue" stroke="midnightblue" points="1279.55,-141.68 1282.67,-131.55 1273.92,-137.52 1279.55,-141.68"/>
</g>
<!-- Node3&#45;&gt;Node19 -->
<g id="edge33" class="edge">
<title>Node3&#45;&gt;Node19</title>
<path fill="none" stroke="midnightblue" d="M901.65,-229.61C998.25,-223.49 1187.21,-209.21 1250.39,-188 1284.6,-176.52 1319.65,-153.12 1340.46,-137.76"/>
<polygon fill="midnightblue" stroke="midnightblue" points="1342.85,-140.35 1348.72,-131.53 1338.63,-134.76 1342.85,-140.35"/>
</g>
<!-- Node20 -->
<g id="node21" class="node">
<title>Node20</title>
<polygon fill="none" stroke="#bfbfbf" points="538.39,-168.5 538.39,-187.5 668.39,-187.5 668.39,-168.5 538.39,-168.5"/>
<text text-anchor="middle" x="603.39" y="-175.5" font-family="Helvetica,sans-Serif" font-size="10.00">llvm/Config/abi&#45;breaking.h</text>
</g>
<!-- Node3&#45;&gt;Node20 -->
<g id="edge27" class="edge">
<title>Node3&#45;&gt;Node20</title>
<path fill="none" stroke="midnightblue" d="M805.37,-224.44C763.59,-215.04 696.41,-199.93 651.13,-189.74"/>
<polygon fill="midnightblue" stroke="midnightblue" points="651.77,-186.3 641.25,-187.52 650.23,-193.13 651.77,-186.3"/>
</g>
<!-- Node21 -->
<g id="node22" class="node">
<title>Node21</title>
<g id="a_node22"><a xlink:href="Support_2ErrorHandling_8h.html" target="_top" xlink:title="llvm/Support/ErrorHandling.h">
<polygon fill="none" stroke="black" points="64.39,-168.5 64.39,-187.5 206.39,-187.5 206.39,-168.5 64.39,-168.5"/>
<text text-anchor="middle" x="135.39" y="-175.5" font-family="Helvetica,sans-Serif" font-size="10.00">llvm/Support/ErrorHandling.h</text>
</a>
</g>
</g>
<!-- Node3&#45;&gt;Node21 -->
<g id="edge28" class="edge">
<title>Node3&#45;&gt;Node21</title>
<path fill="none" stroke="midnightblue" d="M785.37,-229.46C675.17,-222.59 428.05,-206.49 220.39,-188 219.29,-187.9 218.17,-187.8 217.05,-187.7"/>
<polygon fill="midnightblue" stroke="midnightblue" points="217.08,-184.19 206.8,-186.74 216.43,-191.16 217.08,-184.19"/>
</g>
<!-- Node23 -->
<g id="node24" class="node">
<title>Node23</title>
<polygon fill="none" stroke="#bfbfbf" points="686.39,-168.5 686.39,-187.5 732.39,-187.5 732.39,-168.5 686.39,-168.5"/>
<text text-anchor="middle" x="709.39" y="-175.5" font-family="Helvetica,sans-Serif" font-size="10.00">cstdint</text>
</g>
<!-- Node3&#45;&gt;Node23 -->
<g id="edge34" class="edge">
<title>Node3&#45;&gt;Node23</title>
<path fill="none" stroke="midnightblue" d="M822.16,-224.44C800.01,-215.52 765.08,-201.44 739.96,-191.32"/>
<polygon fill="midnightblue" stroke="midnightblue" points="741.11,-188.01 730.53,-187.52 738.5,-194.5 741.11,-188.01"/>
</g>
<!-- Node24 -->
<g id="node25" class="node">
<title>Node24</title>
<polygon fill="none" stroke="#bfbfbf" points="750.89,-168.5 750.89,-187.5 795.89,-187.5 795.89,-168.5 750.89,-168.5"/>
<text text-anchor="middle" x="773.39" y="-175.5" font-family="Helvetica,sans-Serif" font-size="10.00">cstdlib</text>
</g>
<!-- Node3&#45;&gt;Node24 -->
<g id="edge35" class="edge">
<title>Node3&#45;&gt;Node24</title>
<path fill="none" stroke="midnightblue" d="M832.15,-224.32C821.6,-216.18 805.59,-203.84 792.95,-194.09"/>
<polygon fill="midnightblue" stroke="midnightblue" points="794.9,-191.17 784.85,-187.83 790.63,-196.71 794.9,-191.17"/>
</g>
<!-- Node25 -->
<g id="node26" class="node">
<title>Node25</title>
<polygon fill="none" stroke="#bfbfbf" points="813.89,-168.5 813.89,-187.5 872.89,-187.5 872.89,-168.5 813.89,-168.5"/>
<text text-anchor="middle" x="843.39" y="-175.5" font-family="Helvetica,sans-Serif" font-size="10.00">functional</text>
</g>
<!-- Node3&#45;&gt;Node25 -->
<g id="edge36" class="edge">
<title>Node3&#45;&gt;Node25</title>
<path fill="none" stroke="midnightblue" d="M843.39,-224.08C843.39,-217.01 843.39,-206.86 843.39,-197.99"/>
<polygon fill="midnightblue" stroke="midnightblue" points="846.9,-197.75 843.39,-187.75 839.9,-197.75 846.9,-197.75"/>
</g>
<!-- Node26 -->
<g id="node27" class="node">
<title>Node26</title>
<polygon fill="none" stroke="#bfbfbf" points="890.89,-168.5 890.89,-187.5 963.89,-187.5 963.89,-168.5 890.89,-168.5"/>
<text text-anchor="middle" x="927.39" y="-175.5" font-family="Helvetica,sans-Serif" font-size="10.00">initializer_list</text>
</g>
<!-- Node3&#45;&gt;Node26 -->
<g id="edge37" class="edge">
<title>Node3&#45;&gt;Node26</title>
<path fill="none" stroke="midnightblue" d="M856.89,-224.32C869.99,-215.9 890.11,-202.97 905.5,-193.07"/>
<polygon fill="midnightblue" stroke="midnightblue" points="907.41,-196.01 913.93,-187.65 903.63,-190.12 907.41,-196.01"/>
</g>
<!-- Node3&#45;&gt;Node27 -->
<g id="edge39" class="edge">
<title>Node3&#45;&gt;Node27</title>
<path fill="none" stroke="midnightblue" d="M901.47,-230.17C987.75,-225.3 1154.64,-213.3 1294.39,-188 1295.68,-187.77 1296.99,-187.51 1298.3,-187.24"/>
<polygon fill="midnightblue" stroke="midnightblue" points="1299.45,-190.56 1308.38,-184.87 1297.84,-183.75 1299.45,-190.56"/>
</g>
<!-- Node28 -->
<g id="node29" class="node">
<title>Node28</title>
<polygon fill="none" stroke="#bfbfbf" points="982.39,-168.5 982.39,-187.5 1020.39,-187.5 1020.39,-168.5 982.39,-168.5"/>
<text text-anchor="middle" x="1001.39" y="-175.5" font-family="Helvetica,sans-Serif" font-size="10.00">tuple</text>
</g>
<!-- Node3&#45;&gt;Node28 -->
<g id="edge41" class="edge">
<title>Node3&#45;&gt;Node28</title>
<path fill="none" stroke="midnightblue" d="M868.43,-224.44C896.61,-214.81 942.33,-199.19 972.13,-189"/>
<polygon fill="midnightblue" stroke="midnightblue" points="973.62,-192.19 981.96,-185.64 971.36,-185.57 973.62,-192.19"/>
</g>
<!-- Node5 -->
<g id="node6" class="node">
<title>Node5</title>
<g id="a_node6"><a xlink:href="None_8h.html" target="_top" xlink:title="llvm/ADT/None.h">
<polygon fill="none" stroke="black" points="435.39,-112.5 435.39,-131.5 527.39,-131.5 527.39,-112.5 435.39,-112.5"/>
<text text-anchor="middle" x="481.39" y="-119.5" font-family="Helvetica,sans-Serif" font-size="10.00">llvm/ADT/None.h</text>
</a>
</g>
</g>
<!-- Node4&#45;&gt;Node5 -->
<g id="edge5" class="edge">
<title>Node4&#45;&gt;Node5</title>
<path fill="none" stroke="midnightblue" d="M373.68,-168.44C394.74,-159.56 427.91,-145.56 451.88,-135.45"/>
<polygon fill="midnightblue" stroke="midnightblue" points="453.35,-138.63 461.21,-131.52 450.63,-132.18 453.35,-138.63"/>
</g>
<!-- Node4&#45;&gt;Node6 -->
<g id="edge6" class="edge">
<title>Node4&#45;&gt;Node6</title>
<path fill="none" stroke="midnightblue" d="M339.6,-168.39C318.82,-155.56 278.13,-130.88 242.39,-112 220.55,-100.46 195.23,-88.54 176.23,-79.87"/>
<polygon fill="midnightblue" stroke="midnightblue" points="177.48,-76.59 166.93,-75.65 174.59,-82.96 177.48,-76.59"/>
</g>
<!-- Node9 -->
<g id="node10" class="node">
<title>Node9</title>
<g id="a_node10"><a xlink:href="type__traits_8h.html" target="_top" xlink:title="llvm/Support/type_traits.h">
<polygon fill="none" stroke="black" points="289.39,-112.5 289.39,-131.5 417.39,-131.5 417.39,-112.5 289.39,-112.5"/>
<text text-anchor="middle" x="353.39" y="-119.5" font-family="Helvetica,sans-Serif" font-size="10.00">llvm/Support/type_traits.h</text>
</a>
</g>
</g>
<!-- Node4&#45;&gt;Node9 -->
<g id="edge9" class="edge">
<title>Node4&#45;&gt;Node9</title>
<path fill="none" stroke="midnightblue" d="M353.39,-168.08C353.39,-161.01 353.39,-150.86 353.39,-141.99"/>
<polygon fill="midnightblue" stroke="midnightblue" points="356.9,-141.75 353.39,-131.75 349.9,-141.75 356.9,-141.75"/>
</g>
<!-- Node4&#45;&gt;Node11 -->
<g id="edge16" class="edge">
<title>Node4&#45;&gt;Node11</title>
<path fill="none" stroke="midnightblue" d="M406.14,-168.74C464.98,-159.21 556.26,-143.39 589.39,-132 607.82,-125.67 610.08,-118.65 628.39,-112 686.34,-90.97 757.48,-77.74 797.08,-71.42"/>
<polygon fill="midnightblue" stroke="midnightblue" points="797.8,-74.85 807.15,-69.85 796.73,-67.93 797.8,-74.85"/>
</g>
<!-- Node4&#45;&gt;Node12 -->
<g id="edge13" class="edge">
<title>Node4&#45;&gt;Node12</title>
<path fill="none" stroke="midnightblue" d="M406.09,-169.2C460.63,-160.9 548.23,-146.92 623.39,-132 624.84,-131.71 626.32,-131.41 627.81,-131.1"/>
<polygon fill="midnightblue" stroke="midnightblue" points="628.66,-134.5 637.69,-128.94 627.17,-127.66 628.66,-134.5"/>
</g>
<!-- Node4&#45;&gt;Node13 -->
<g id="edge14" class="edge">
<title>Node4&#45;&gt;Node13</title>
<path fill="none" stroke="midnightblue" d="M330.26,-168.44C305.91,-159.44 267.39,-145.19 239.97,-135.05"/>
<polygon fill="midnightblue" stroke="midnightblue" points="241.01,-131.7 230.42,-131.52 238.59,-138.27 241.01,-131.7"/>
</g>
<!-- Node14 -->
<g id="node15" class="node">
<title>Node14</title>
<polygon fill="none" stroke="#bfbfbf" points="545.89,-112.5 545.89,-131.5 580.89,-131.5 580.89,-112.5 545.89,-112.5"/>
<text text-anchor="middle" x="563.39" y="-119.5" font-family="Helvetica,sans-Serif" font-size="10.00">new</text>
</g>
<!-- Node4&#45;&gt;Node14 -->
<g id="edge15" class="edge">
<title>Node4&#45;&gt;Node14</title>
<path fill="none" stroke="midnightblue" d="M391.84,-168.5C427,-160.51 480.63,-147.8 536.1,-131.9"/>
<polygon fill="midnightblue" stroke="midnightblue" points="537.11,-135.25 545.74,-129.11 535.16,-128.53 537.11,-135.25"/>
</g>
<!-- Node7 -->
<g id="node8" class="node">
<title>Node7</title>
<polygon fill="none" stroke="#bfbfbf" points="31.89,-0.5 31.89,-19.5 156.89,-19.5 156.89,-0.5 31.89,-0.5"/>
<text text-anchor="middle" x="94.39" y="-7.5" font-family="Helvetica,sans-Serif" font-size="10.00">llvm/Config/llvm&#45;config.h</text>
</g>
<!-- Node6&#45;&gt;Node7 -->
<g id="edge7" class="edge">
<title>Node6&#45;&gt;Node7</title>
<path fill="none" stroke="midnightblue" d="M138.64,-56.08C130.93,-48.22 119.49,-36.57 110.18,-27.08"/>
<polygon fill="midnightblue" stroke="midnightblue" points="112.49,-24.44 102.98,-19.75 107.49,-29.34 112.49,-24.44"/>
</g>
<!-- Node8 -->
<g id="node9" class="node">
<title>Node8</title>
<polygon fill="none" stroke="#bfbfbf" points="175.39,-0.5 175.39,-19.5 227.39,-19.5 227.39,-0.5 175.39,-0.5"/>
<text text-anchor="middle" x="201.39" y="-7.5" font-family="Helvetica,sans-Serif" font-size="10.00">stddef.h</text>
</g>
<!-- Node6&#45;&gt;Node8 -->
<g id="edge8" class="edge">
<title>Node6&#45;&gt;Node8</title>
<path fill="none" stroke="midnightblue" d="M156.31,-56.08C164.18,-48.22 175.83,-36.57 185.31,-27.08"/>
<polygon fill="midnightblue" stroke="midnightblue" points="188.05,-29.3 192.64,-19.75 183.1,-24.35 188.05,-29.3"/>
</g>
<!-- Node9&#45;&gt;Node6 -->
<g id="edge10" class="edge">
<title>Node9&#45;&gt;Node6</title>
<path fill="none" stroke="midnightblue" d="M320.75,-112.44C285.34,-103.16 228.69,-88.31 189.84,-78.13"/>
<polygon fill="midnightblue" stroke="midnightblue" points="190.44,-74.67 179.88,-75.52 188.67,-81.44 190.44,-74.67"/>
</g>
<!-- Node9&#45;&gt;Node10 -->
<g id="edge11" class="edge">
<title>Node9&#45;&gt;Node10</title>
<path fill="none" stroke="midnightblue" d="M348.11,-112.08C343.68,-104.61 337.23,-93.72 331.78,-84.52"/>
<polygon fill="midnightblue" stroke="midnightblue" points="334.69,-82.57 326.58,-75.75 328.67,-86.14 334.69,-82.57"/>
</g>
<!-- Node9&#45;&gt;Node11 -->
<g id="edge12" class="edge">
<title>Node9&#45;&gt;Node11</title>
<path fill="none" stroke="midnightblue" d="M417.48,-113.06C420.5,-112.7 423.48,-112.34 426.39,-112 564.8,-95.7 730.24,-77.56 797.12,-70.28"/>
<polygon fill="midnightblue" stroke="midnightblue" points="797.8,-73.73 807.36,-69.17 797.04,-66.77 797.8,-73.73"/>
</g>
<!-- Node15&#45;&gt;Node10 -->
<g id="edge24" class="edge">
<title>Node15&#45;&gt;Node10</title>
<path fill="none" stroke="midnightblue" d="M1114.8,-169.83C1029.27,-157.53 848.45,-131.81 695.39,-112 574.48,-96.35 431.33,-79.63 362.46,-71.7"/>
<polygon fill="midnightblue" stroke="midnightblue" points="362.78,-68.21 352.45,-70.55 361.98,-75.16 362.78,-68.21"/>
</g>
<!-- Node15&#45;&gt;Node11 -->
<g id="edge25" class="edge">
<title>Node15&#45;&gt;Node11</title>
<path fill="none" stroke="midnightblue" d="M1138.23,-168.46C1076.58,-148.34 922.48,-98.04 857.28,-76.75"/>
<polygon fill="midnightblue" stroke="midnightblue" points="858.2,-73.37 847.61,-73.6 856.03,-80.03 858.2,-73.37"/>
</g>
<!-- Node15&#45;&gt;Node16 -->
<g id="edge18" class="edge">
<title>Node15&#45;&gt;Node16</title>
<path fill="none" stroke="midnightblue" d="M1160.43,-168.08C1157.18,-160.77 1152.48,-150.18 1148.44,-141.1"/>
<polygon fill="midnightblue" stroke="midnightblue" points="1151.54,-139.47 1144.28,-131.75 1145.15,-142.31 1151.54,-139.47"/>
</g>
<!-- Node15&#45;&gt;Node17 -->
<g id="edge23" class="edge">
<title>Node15&#45;&gt;Node17</title>
<path fill="none" stroke="midnightblue" d="M1179,-168.49C1197.5,-156.55 1225.59,-133.84 1213.39,-112 1204.82,-96.64 1188.62,-85.88 1173.65,-78.74"/>
<polygon fill="midnightblue" stroke="midnightblue" points="1174.65,-75.35 1164.09,-74.55 1171.85,-81.77 1174.65,-75.35"/>
</g>
<!-- Node15&#45;&gt;Node18 -->
<g id="edge21" class="edge">
<title>Node15&#45;&gt;Node18</title>
<path fill="none" stroke="midnightblue" d="M1184.04,-168.44C1204.36,-159.6 1236.3,-145.69 1259.49,-135.59"/>
<polygon fill="midnightblue" stroke="midnightblue" points="1261.07,-138.72 1268.84,-131.52 1258.27,-132.3 1261.07,-138.72"/>
</g>
<!-- Node15&#45;&gt;Node19 -->
<g id="edge22" class="edge">
<title>Node15&#45;&gt;Node19</title>
<path fill="none" stroke="midnightblue" d="M1195.29,-168.44C1230.63,-158.66 1288.33,-142.68 1325.05,-132.51"/>
<polygon fill="midnightblue" stroke="midnightblue" points="1326.11,-135.85 1334.82,-129.81 1324.24,-129.1 1326.11,-135.85"/>
</g>
<!-- Node16&#45;&gt;Node11 -->
<g id="edge20" class="edge">
<title>Node16&#45;&gt;Node11</title>
<path fill="none" stroke="midnightblue" d="M1090.8,-112.44C1025.19,-101.12 911.56,-81.52 857.56,-72.2"/>
<polygon fill="midnightblue" stroke="midnightblue" points="858.04,-68.74 847.59,-70.48 856.85,-75.63 858.04,-68.74"/>
</g>
<!-- Node16&#45;&gt;Node17 -->
<g id="edge19" class="edge">
<title>Node16&#45;&gt;Node17</title>
<path fill="none" stroke="midnightblue" d="M1140.39,-112.08C1140.39,-105.01 1140.39,-94.86 1140.39,-85.99"/>
<polygon fill="midnightblue" stroke="midnightblue" points="1143.9,-85.75 1140.39,-75.75 1136.9,-85.75 1143.9,-85.75"/>
</g>
<!-- Node21&#45;&gt;Node6 -->
<g id="edge29" class="edge">
<title>Node21&#45;&gt;Node6</title>
<path fill="none" stroke="midnightblue" d="M135.62,-168.14C136.01,-155.6 137.01,-131.98 139.39,-112 140.44,-103.22 142.09,-93.57 143.62,-85.46"/>
<polygon fill="midnightblue" stroke="midnightblue" points="147.07,-86.07 145.57,-75.58 140.2,-84.72 147.07,-86.07"/>
</g>
<!-- Node21&#45;&gt;Node22 -->
<g id="edge30" class="edge">
<title>Node21&#45;&gt;Node22</title>
<path fill="none" stroke="midnightblue" d="M122.86,-168.32C110.81,-159.98 92.37,-147.21 78.13,-137.35"/>
<polygon fill="midnightblue" stroke="midnightblue" points="80.11,-134.47 69.9,-131.65 76.13,-140.22 80.11,-134.47"/>
</g>
</g>
</svg>
