<?xml version="1.0" encoding="UTF-8" standalone="no"?>
<!DOCTYPE svg PUBLIC "-//W3C//DTD SVG 1.1//EN"
 "http://www.w3.org/Graphics/SVG/1.1/DTD/svg11.dtd">
<!-- Generated by graphviz version 2.43.0 (0)
 -->
<!-- Title: include/llvm/Transforms/Scalar/LoopAccessAnalysisPrinter.h Pages: 1 -->
<svg width="322pt" height="106pt"
 viewBox="0.00 0.00 321.50 106.00" xmlns="http://www.w3.org/2000/svg" xmlns:xlink="http://www.w3.org/1999/xlink">
<g id="graph0" class="graph" transform="scale(1 1) rotate(0) translate(4 102)">
<title>include/llvm/Transforms/Scalar/LoopAccessAnalysisPrinter.h</title>
<!-- Node205 -->
<g id="node1" class="node">
<title>Node205</title>
<polygon fill="#bfbfbf" stroke="black" points="62,-67.5 62,-97.5 241,-97.5 241,-67.5 62,-67.5"/>
<text text-anchor="start" x="70" y="-85.5" font-family="Helvetica,sans-Serif" font-size="10.00">include/llvm/Transforms</text>
<text text-anchor="middle" x="151.5" y="-74.5" font-family="Helvetica,sans-Serif" font-size="10.00">/Scalar/LoopAccessAnalysisPrinter.h</text>
</g>
<!-- Node206 -->
<g id="node2" class="node">
<title>Node206</title>
<g id="a_node2"><a xlink:href="PassBuilder_8cpp.html" target="_top" xlink:title="This file provides the implementation of the PassBuilder based on our static pass registry as well as...">
<polygon fill="none" stroke="black" points="0,-6 0,-25 137,-25 137,-6 0,-6"/>
<text text-anchor="middle" x="68.5" y="-13" font-family="Helvetica,sans-Serif" font-size="10.00">lib/Passes/PassBuilder.cpp</text>
</a>
</g>
</g>
<!-- Node205&#45;&gt;Node206 -->
<g id="edge1" class="edge">
<title>Node205&#45;&gt;Node206</title>
<path fill="none" stroke="midnightblue" d="M125.33,-61.01C109.92,-48.94 91.24,-34.3 79.6,-25.19"/>
<polygon fill="midnightblue" stroke="midnightblue" points="123.46,-63.99 133.49,-67.4 127.78,-58.47 123.46,-63.99"/>
</g>
<!-- Node207 -->
<g id="node3" class="node">
<title>Node207</title>
<g id="a_node3"><a xlink:href="LoopAccessAnalysisPrinter_8cpp.html" target="_top" xlink:title="lib/Transforms/Scalar\l/LoopAccessAnalysisPrinter.cpp">
<polygon fill="none" stroke="black" points="155.5,-0.5 155.5,-30.5 313.5,-30.5 313.5,-0.5 155.5,-0.5"/>
<text text-anchor="start" x="163.5" y="-18.5" font-family="Helvetica,sans-Serif" font-size="10.00">lib/Transforms/Scalar</text>
<text text-anchor="middle" x="234.5" y="-7.5" font-family="Helvetica,sans-Serif" font-size="10.00">/LoopAccessAnalysisPrinter.cpp</text>
</a>
</g>
</g>
<!-- Node205&#45;&gt;Node207 -->
<g id="edge2" class="edge">
<title>Node205&#45;&gt;Node207</title>
<path fill="none" stroke="midnightblue" d="M177.46,-61.17C190.15,-51.23 205.11,-39.51 216.53,-30.58"/>
<polygon fill="midnightblue" stroke="midnightblue" points="175.22,-58.47 169.51,-67.4 179.54,-63.99 175.22,-58.47"/>
</g>
</g>
</svg>
