<?xml version="1.0" encoding="UTF-8" standalone="no"?>
<!DOCTYPE svg PUBLIC "-//W3C//DTD SVG 1.1//EN"
 "http://www.w3.org/Graphics/SVG/1.1/DTD/svg11.dtd">
<!-- Generated by graphviz version 2.43.0 (0)
 -->
<!-- Title: include/llvm/Transforms/Vectorize/LoopVectorizationLegality.h Pages: 1 -->
<svg width="389pt" height="184pt"
 viewBox="0.00 0.00 388.50 184.00" xmlns="http://www.w3.org/2000/svg" xmlns:xlink="http://www.w3.org/1999/xlink">
<g id="graph0" class="graph" transform="scale(1 1) rotate(0) translate(4 180)">
<title>include/llvm/Transforms/Vectorize/LoopVectorizationLegality.h</title>
<!-- Node229 -->
<g id="node1" class="node">
<title>Node229</title>
<polygon fill="#bfbfbf" stroke="black" points="107,-134.5 107,-175.5 249,-175.5 249,-134.5 107,-134.5"/>
<text text-anchor="start" x="115" y="-163.5" font-family="Helvetica,sans-Serif" font-size="10.00">include/llvm/Transforms</text>
<text text-anchor="start" x="115" y="-152.5" font-family="Helvetica,sans-Serif" font-size="10.00">/Vectorize/LoopVectorization</text>
<text text-anchor="middle" x="178" y="-141.5" font-family="Helvetica,sans-Serif" font-size="10.00">Legality.h</text>
</g>
<!-- Node230 -->
<g id="node2" class="node">
<title>Node230</title>
<g id="a_node2"><a xlink:href="LoopVectorizationLegality_8cpp.html" target="_top" xlink:title="lib/Transforms/Vectorize\l/LoopVectorizationLegality.cpp">
<polygon fill="none" stroke="black" points="0,-67.5 0,-97.5 150,-97.5 150,-67.5 0,-67.5"/>
<text text-anchor="start" x="8" y="-85.5" font-family="Helvetica,sans-Serif" font-size="10.00">lib/Transforms/Vectorize</text>
<text text-anchor="middle" x="75" y="-74.5" font-family="Helvetica,sans-Serif" font-size="10.00">/LoopVectorizationLegality.cpp</text>
</a>
</g>
</g>
<!-- Node229&#45;&gt;Node230 -->
<g id="edge1" class="edge">
<title>Node229&#45;&gt;Node230</title>
<path fill="none" stroke="midnightblue" d="M140.64,-128.43C125.49,-118.06 108.57,-106.48 95.7,-97.67"/>
<polygon fill="midnightblue" stroke="midnightblue" points="139.08,-131.6 149.31,-134.36 143.03,-125.83 139.08,-131.6"/>
</g>
<!-- Node231 -->
<g id="node3" class="node">
<title>Node231</title>
<g id="a_node3"><a xlink:href="VPlanTransforms_8h.html" target="_top" xlink:title="This file provides utility VPlan to VPlan transformations. ">
<polygon fill="none" stroke="black" points="206.5,-67.5 206.5,-97.5 329.5,-97.5 329.5,-67.5 206.5,-67.5"/>
<text text-anchor="start" x="214.5" y="-85.5" font-family="Helvetica,sans-Serif" font-size="10.00">lib/Transforms/Vectorize</text>
<text text-anchor="middle" x="268" y="-74.5" font-family="Helvetica,sans-Serif" font-size="10.00">/VPlanTransforms.h</text>
</a>
</g>
</g>
<!-- Node229&#45;&gt;Node231 -->
<g id="edge2" class="edge">
<title>Node229&#45;&gt;Node231</title>
<path fill="none" stroke="midnightblue" d="M211.02,-128.14C224.16,-117.84 238.77,-106.39 249.91,-97.67"/>
<polygon fill="midnightblue" stroke="midnightblue" points="208.78,-125.44 203.07,-134.36 213.1,-130.95 208.78,-125.44"/>
</g>
<!-- Node232 -->
<g id="node4" class="node">
<title>Node232</title>
<g id="a_node4"><a xlink:href="LoopVectorize_8cpp.html" target="_top" xlink:title="lib/Transforms/Vectorize\l/LoopVectorize.cpp">
<polygon fill="none" stroke="black" points="116.5,-0.5 116.5,-30.5 239.5,-30.5 239.5,-0.5 116.5,-0.5"/>
<text text-anchor="start" x="124.5" y="-18.5" font-family="Helvetica,sans-Serif" font-size="10.00">lib/Transforms/Vectorize</text>
<text text-anchor="middle" x="178" y="-7.5" font-family="Helvetica,sans-Serif" font-size="10.00">/LoopVectorize.cpp</text>
</a>
</g>
</g>
<!-- Node229&#45;&gt;Node232 -->
<g id="edge5" class="edge">
<title>Node229&#45;&gt;Node232</title>
<path fill="none" stroke="midnightblue" d="M178,-123.96C178,-95.05 178,-52.6 178,-30.72"/>
<polygon fill="midnightblue" stroke="midnightblue" points="174.5,-124.3 178,-134.3 181.5,-124.3 174.5,-124.3"/>
</g>
<!-- Node231&#45;&gt;Node232 -->
<g id="edge3" class="edge">
<title>Node231&#45;&gt;Node232</title>
<path fill="none" stroke="midnightblue" d="M240.24,-61.45C226.39,-51.45 209.98,-39.6 197.49,-30.58"/>
<polygon fill="midnightblue" stroke="midnightblue" points="238.32,-64.38 248.47,-67.4 242.41,-58.7 238.32,-64.38"/>
</g>
<!-- Node233 -->
<g id="node5" class="node">
<title>Node233</title>
<g id="a_node5"><a xlink:href="VPlanTransforms_8cpp.html" target="_top" xlink:title="This file implements a set of utility VPlan to VPlan transformations. ">
<polygon fill="none" stroke="black" points="257.5,-0.5 257.5,-30.5 380.5,-30.5 380.5,-0.5 257.5,-0.5"/>
<text text-anchor="start" x="265.5" y="-18.5" font-family="Helvetica,sans-Serif" font-size="10.00">lib/Transforms/Vectorize</text>
<text text-anchor="middle" x="319" y="-7.5" font-family="Helvetica,sans-Serif" font-size="10.00">/VPlanTransforms.cpp</text>
</a>
</g>
</g>
<!-- Node231&#45;&gt;Node233 -->
<g id="edge4" class="edge">
<title>Node231&#45;&gt;Node233</title>
<path fill="none" stroke="midnightblue" d="M285.3,-59.45C292.79,-49.9 301.34,-39 307.96,-30.58"/>
<polygon fill="midnightblue" stroke="midnightblue" points="282.49,-57.37 279.07,-67.4 287.99,-61.69 282.49,-57.37"/>
</g>
</g>
</svg>
