<?xml version="1.0" encoding="UTF-8" standalone="no"?>
<!DOCTYPE svg PUBLIC "-//W3C//DTD SVG 1.1//EN"
 "http://www.w3.org/Graphics/SVG/1.1/DTD/svg11.dtd">
<!-- Generated by graphviz version 2.43.0 (0)
 -->
<!-- Title: include/llvm/Transforms/Utils/LowerInvoke.h Pages: 1 -->
<svg width="266pt" height="106pt"
 viewBox="0.00 0.00 265.50 106.00" xmlns="http://www.w3.org/2000/svg" xmlns:xlink="http://www.w3.org/1999/xlink">
<g id="graph0" class="graph" transform="scale(1 1) rotate(0) translate(4 102)">
<title>include/llvm/Transforms/Utils/LowerInvoke.h</title>
<!-- Node137 -->
<g id="node1" class="node">
<title>Node137</title>
<polygon fill="#bfbfbf" stroke="black" points="77,-67.5 77,-97.5 198,-97.5 198,-67.5 77,-67.5"/>
<text text-anchor="start" x="85" y="-85.5" font-family="Helvetica,sans-Serif" font-size="10.00">include/llvm/Transforms</text>
<text text-anchor="middle" x="137.5" y="-74.5" font-family="Helvetica,sans-Serif" font-size="10.00">/Utils/LowerInvoke.h</text>
</g>
<!-- Node138 -->
<g id="node2" class="node">
<title>Node138</title>
<g id="a_node2"><a xlink:href="PassBuilder_8cpp.html" target="_top" xlink:title="This file provides the implementation of the PassBuilder based on our static pass registry as well as...">
<polygon fill="none" stroke="black" points="0,-6 0,-25 137,-25 137,-6 0,-6"/>
<text text-anchor="middle" x="68.5" y="-13" font-family="Helvetica,sans-Serif" font-size="10.00">lib/Passes/PassBuilder.cpp</text>
</a>
</g>
</g>
<!-- Node137&#45;&gt;Node138 -->
<g id="edge1" class="edge">
<title>Node137&#45;&gt;Node138</title>
<path fill="none" stroke="midnightblue" d="M115.03,-60.34C102.36,-48.4 87.22,-34.14 77.73,-25.19"/>
<polygon fill="midnightblue" stroke="midnightblue" points="112.85,-63.09 122.53,-67.4 117.65,-57.99 112.85,-63.09"/>
</g>
<!-- Node139 -->
<g id="node3" class="node">
<title>Node139</title>
<g id="a_node3"><a xlink:href="LowerInvoke_8cpp.html" target="_top" xlink:title="lib/Transforms/Utils\l/LowerInvoke.cpp">
<polygon fill="none" stroke="black" points="155.5,-0.5 155.5,-30.5 257.5,-30.5 257.5,-0.5 155.5,-0.5"/>
<text text-anchor="start" x="163.5" y="-18.5" font-family="Helvetica,sans-Serif" font-size="10.00">lib/Transforms/Utils</text>
<text text-anchor="middle" x="206.5" y="-7.5" font-family="Helvetica,sans-Serif" font-size="10.00">/LowerInvoke.cpp</text>
</a>
</g>
</g>
<!-- Node137&#45;&gt;Node139 -->
<g id="edge2" class="edge">
<title>Node137&#45;&gt;Node139</title>
<path fill="none" stroke="midnightblue" d="M159.99,-60.31C170.34,-50.56 182.34,-39.26 191.56,-30.58"/>
<polygon fill="midnightblue" stroke="midnightblue" points="157.35,-57.99 152.47,-67.4 162.15,-63.09 157.35,-57.99"/>
</g>
</g>
</svg>
