<?xml version="1.0" encoding="UTF-8" standalone="no"?>
<!DOCTYPE svg PUBLIC "-//W3C//DTD SVG 1.1//EN"
 "http://www.w3.org/Graphics/SVG/1.1/DTD/svg11.dtd">
<!-- Generated by graphviz version 2.43.0 (0)
 -->
<!-- Title: include/llvm/Transforms/Utils/LowerMemIntrinsics.h Pages: 1 -->
<svg width="506pt" height="106pt"
 viewBox="0.00 0.00 506.00 106.00" xmlns="http://www.w3.org/2000/svg" xmlns:xlink="http://www.w3.org/1999/xlink">
<g id="graph0" class="graph" transform="scale(1 1) rotate(0) translate(4 102)">
<title>include/llvm/Transforms/Utils/LowerMemIntrinsics.h</title>
<!-- Node1 -->
<g id="node1" class="node">
<title>Node1</title>
<polygon fill="#bfbfbf" stroke="black" points="205.5,-67.5 205.5,-97.5 344.5,-97.5 344.5,-67.5 205.5,-67.5"/>
<text text-anchor="start" x="213.5" y="-85.5" font-family="Helvetica,sans-Serif" font-size="10.00">include/llvm/Transforms</text>
<text text-anchor="middle" x="275" y="-74.5" font-family="Helvetica,sans-Serif" font-size="10.00">/Utils/LowerMemIntrinsics.h</text>
</g>
<!-- Node2 -->
<g id="node2" class="node">
<title>Node2</title>
<g id="a_node2"><a xlink:href="AMDGPULowerIntrinsics_8cpp.html" target="_top" xlink:title="lib/Target/AMDGPU/AMDGPULower\lIntrinsics.cpp">
<polygon fill="none" stroke="black" points="0,-0.5 0,-30.5 178,-30.5 178,-0.5 0,-0.5"/>
<text text-anchor="start" x="8" y="-18.5" font-family="Helvetica,sans-Serif" font-size="10.00">lib/Target/AMDGPU/AMDGPULower</text>
<text text-anchor="middle" x="89" y="-7.5" font-family="Helvetica,sans-Serif" font-size="10.00">Intrinsics.cpp</text>
</a>
</g>
</g>
<!-- Node1&#45;&gt;Node2 -->
<g id="edge1" class="edge">
<title>Node1&#45;&gt;Node2</title>
<path fill="none" stroke="midnightblue" d="M225.19,-64.09C195.16,-53.6 157.41,-40.41 129.28,-30.58"/>
<polygon fill="midnightblue" stroke="midnightblue" points="224.05,-67.4 234.64,-67.4 226.36,-60.79 224.05,-67.4"/>
</g>
<!-- Node3 -->
<g id="node3" class="node">
<title>Node3</title>
<g id="a_node3"><a xlink:href="NVPTXLowerAggrCopies_8cpp.html" target="_top" xlink:title="lib/Target/NVPTX/NVPTXLower\lAggrCopies.cpp">
<polygon fill="none" stroke="black" points="196.5,-0.5 196.5,-30.5 353.5,-30.5 353.5,-0.5 196.5,-0.5"/>
<text text-anchor="start" x="204.5" y="-18.5" font-family="Helvetica,sans-Serif" font-size="10.00">lib/Target/NVPTX/NVPTXLower</text>
<text text-anchor="middle" x="275" y="-7.5" font-family="Helvetica,sans-Serif" font-size="10.00">AggrCopies.cpp</text>
</a>
</g>
</g>
<!-- Node1&#45;&gt;Node3 -->
<g id="edge2" class="edge">
<title>Node1&#45;&gt;Node3</title>
<path fill="none" stroke="midnightblue" d="M275,-57.11C275,-48.15 275,-38.32 275,-30.58"/>
<polygon fill="midnightblue" stroke="midnightblue" points="271.5,-57.4 275,-67.4 278.5,-57.4 271.5,-57.4"/>
</g>
<!-- Node4 -->
<g id="node4" class="node">
<title>Node4</title>
<g id="a_node4"><a xlink:href="LowerMemIntrinsics_8cpp.html" target="_top" xlink:title="lib/Transforms/Utils\l/LowerMemIntrinsics.cpp">
<polygon fill="none" stroke="black" points="372,-0.5 372,-30.5 498,-30.5 498,-0.5 372,-0.5"/>
<text text-anchor="start" x="380" y="-18.5" font-family="Helvetica,sans-Serif" font-size="10.00">lib/Transforms/Utils</text>
<text text-anchor="middle" x="435" y="-7.5" font-family="Helvetica,sans-Serif" font-size="10.00">/LowerMemIntrinsics.cpp</text>
</a>
</g>
</g>
<!-- Node1&#45;&gt;Node4 -->
<g id="edge3" class="edge">
<title>Node1&#45;&gt;Node4</title>
<path fill="none" stroke="midnightblue" d="M319.2,-63.54C344.8,-53.14 376.57,-40.24 400.35,-30.58"/>
<polygon fill="midnightblue" stroke="midnightblue" points="317.66,-60.39 309.72,-67.4 320.3,-66.87 317.66,-60.39"/>
</g>
</g>
</svg>
