<?xml version="1.0" encoding="UTF-8" standalone="no"?>
<!DOCTYPE svg PUBLIC "-//W3C//DTD SVG 1.1//EN"
 "http://www.w3.org/Graphics/SVG/1.1/DTD/svg11.dtd">
<!-- Generated by graphviz version 2.43.0 (0)
 -->
<!-- Title: include/llvm/MCA/HardwareUnits/LSUnit.h Pages: 1 -->
<svg width="1162pt" height="296pt"
 viewBox="0.00 0.00 1162.00 296.00" xmlns="http://www.w3.org/2000/svg" xmlns:xlink="http://www.w3.org/1999/xlink">
<g id="graph0" class="graph" transform="scale(1 1) rotate(0) translate(4 292)">
<title>include/llvm/MCA/HardwareUnits/LSUnit.h</title>
<!-- Node59 -->
<g id="node1" class="node">
<title>Node59</title>
<polygon fill="#bfbfbf" stroke="black" points="882.5,-257.5 882.5,-287.5 1021.5,-287.5 1021.5,-257.5 882.5,-257.5"/>
<text text-anchor="start" x="890.5" y="-275.5" font-family="Helvetica,sans-Serif" font-size="10.00">include/llvm/MCA/Hardware</text>
<text text-anchor="middle" x="952" y="-264.5" font-family="Helvetica,sans-Serif" font-size="10.00">Units/LSUnit.h</text>
</g>
<!-- Node60 -->
<g id="node2" class="node">
<title>Node60</title>
<g id="a_node2"><a xlink:href="Scheduler_8h.html" target="_top" xlink:title="A scheduler for Processor Resource Units and Processor Resource Groups. ">
<polygon fill="none" stroke="black" points="462.5,-190.5 462.5,-220.5 601.5,-220.5 601.5,-190.5 462.5,-190.5"/>
<text text-anchor="start" x="470.5" y="-208.5" font-family="Helvetica,sans-Serif" font-size="10.00">include/llvm/MCA/Hardware</text>
<text text-anchor="middle" x="532" y="-197.5" font-family="Helvetica,sans-Serif" font-size="10.00">Units/Scheduler.h</text>
</a>
</g>
</g>
<!-- Node59&#45;&gt;Node60 -->
<g id="edge1" class="edge">
<title>Node59&#45;&gt;Node60</title>
<path fill="none" stroke="midnightblue" d="M871.89,-259.1C793.73,-247.01 676.02,-228.79 601.64,-217.28"/>
<polygon fill="midnightblue" stroke="midnightblue" points="871.76,-262.62 882.17,-260.69 872.83,-255.71 871.76,-262.62"/>
</g>
<!-- Node71 -->
<g id="node13" class="node">
<title>Node71</title>
<g id="a_node13"><a xlink:href="RetireStage_8h.html" target="_top" xlink:title="This file defines the retire stage of a default instruction pipeline. ">
<polygon fill="none" stroke="black" points="888,-190.5 888,-220.5 1016,-220.5 1016,-190.5 888,-190.5"/>
<text text-anchor="start" x="896" y="-208.5" font-family="Helvetica,sans-Serif" font-size="10.00">include/llvm/MCA/Stages</text>
<text text-anchor="middle" x="952" y="-197.5" font-family="Helvetica,sans-Serif" font-size="10.00">/RetireStage.h</text>
</a>
</g>
</g>
<!-- Node59&#45;&gt;Node71 -->
<g id="edge14" class="edge">
<title>Node59&#45;&gt;Node71</title>
<path fill="none" stroke="midnightblue" d="M952,-247.11C952,-238.15 952,-228.32 952,-220.58"/>
<polygon fill="midnightblue" stroke="midnightblue" points="948.5,-247.4 952,-257.4 955.5,-247.4 948.5,-247.4"/>
</g>
<!-- Node73 -->
<g id="node15" class="node">
<title>Node73</title>
<g id="a_node15"><a xlink:href="LSUnit_8cpp.html" target="_top" xlink:title="A Load&#45;Store Unit for the llvm&#45;mca tool. ">
<polygon fill="none" stroke="black" points="1034,-190.5 1034,-220.5 1154,-220.5 1154,-190.5 1034,-190.5"/>
<text text-anchor="start" x="1042" y="-208.5" font-family="Helvetica,sans-Serif" font-size="10.00">lib/MCA/HardwareUnits</text>
<text text-anchor="middle" x="1094" y="-197.5" font-family="Helvetica,sans-Serif" font-size="10.00">/LSUnit.cpp</text>
</a>
</g>
</g>
<!-- Node59&#45;&gt;Node73 -->
<g id="edge17" class="edge">
<title>Node59&#45;&gt;Node73</title>
<path fill="none" stroke="midnightblue" d="M992.13,-253.13C1014.69,-242.8 1042.42,-230.11 1063.25,-220.58"/>
<polygon fill="midnightblue" stroke="midnightblue" points="990.45,-250.05 982.81,-257.4 993.36,-256.42 990.45,-250.05"/>
</g>
<!-- Node61 -->
<g id="node3" class="node">
<title>Node61</title>
<g id="a_node3"><a xlink:href="Pipeline_8h.html" target="_top" xlink:title="This file implements an ordered container of stages that simulate the pipeline of a hardware backend...">
<polygon fill="none" stroke="black" points="126,-129 126,-148 266,-148 266,-129 126,-129"/>
<text text-anchor="middle" x="196" y="-136" font-family="Helvetica,sans-Serif" font-size="10.00">include/llvm/MCA/Pipeline.h</text>
</a>
</g>
</g>
<!-- Node60&#45;&gt;Node61 -->
<g id="edge2" class="edge">
<title>Node60&#45;&gt;Node61</title>
<path fill="none" stroke="midnightblue" d="M452.39,-189.1C386.15,-176.28 294.27,-158.51 240.38,-148.09"/>
<polygon fill="midnightblue" stroke="midnightblue" points="451.9,-192.57 462.38,-191.03 453.23,-185.7 451.9,-192.57"/>
</g>
<!-- Node63 -->
<g id="node5" class="node">
<title>Node63</title>
<g id="a_node5"><a xlink:href="Context_8cpp.html" target="_top" xlink:title="This file defines a class for holding ownership of various simulated hardware units. ">
<polygon fill="none" stroke="black" points="259,-0.5 259,-19.5 367,-19.5 367,-0.5 259,-0.5"/>
<text text-anchor="middle" x="313" y="-7.5" font-family="Helvetica,sans-Serif" font-size="10.00">lib/MCA/Context.cpp</text>
</a>
</g>
</g>
<!-- Node60&#45;&gt;Node63 -->
<g id="edge11" class="edge">
<title>Node60&#45;&gt;Node63</title>
<path fill="none" stroke="midnightblue" d="M452.19,-196.48C396.97,-189.09 330.41,-175.88 313,-154 280.69,-113.4 301.14,-43.78 309.73,-19.58"/>
<polygon fill="midnightblue" stroke="midnightblue" points="451.99,-199.98 462.36,-197.79 452.89,-193.04 451.99,-199.98"/>
</g>
<!-- Node65 -->
<g id="node7" class="node">
<title>Node65</title>
<g id="a_node7"><a xlink:href="ExecuteStage_8h.html" target="_top" xlink:title="This file defines the execution stage of a default instruction pipeline. ">
<polygon fill="none" stroke="black" points="322,-123.5 322,-153.5 450,-153.5 450,-123.5 322,-123.5"/>
<text text-anchor="start" x="330" y="-141.5" font-family="Helvetica,sans-Serif" font-size="10.00">include/llvm/MCA/Stages</text>
<text text-anchor="middle" x="386" y="-130.5" font-family="Helvetica,sans-Serif" font-size="10.00">/ExecuteStage.h</text>
</a>
</g>
</g>
<!-- Node60&#45;&gt;Node65 -->
<g id="edge6" class="edge">
<title>Node60&#45;&gt;Node65</title>
<path fill="none" stroke="midnightblue" d="M491.05,-186.27C467.8,-175.92 439.13,-163.15 417.62,-153.58"/>
<polygon fill="midnightblue" stroke="midnightblue" points="489.76,-189.53 500.32,-190.4 492.61,-183.13 489.76,-189.53"/>
</g>
<!-- Node67 -->
<g id="node9" class="node">
<title>Node67</title>
<g id="a_node9"><a xlink:href="InstructionTables_8h.html" target="_top" xlink:title="This file implements a custom stage to generate instruction tables. ">
<polygon fill="none" stroke="black" points="468,-123.5 468,-153.5 596,-153.5 596,-123.5 468,-123.5"/>
<text text-anchor="start" x="476" y="-141.5" font-family="Helvetica,sans-Serif" font-size="10.00">include/llvm/MCA/Stages</text>
<text text-anchor="middle" x="532" y="-130.5" font-family="Helvetica,sans-Serif" font-size="10.00">/InstructionTables.h</text>
</a>
</g>
</g>
<!-- Node60&#45;&gt;Node67 -->
<g id="edge9" class="edge">
<title>Node60&#45;&gt;Node67</title>
<path fill="none" stroke="midnightblue" d="M532,-180.11C532,-171.15 532,-161.32 532,-153.58"/>
<polygon fill="midnightblue" stroke="midnightblue" points="528.5,-180.4 532,-190.4 535.5,-180.4 528.5,-180.4"/>
</g>
<!-- Node69 -->
<g id="node11" class="node">
<title>Node69</title>
<g id="a_node11"><a xlink:href="Scheduler_8cpp.html" target="_top" xlink:title="lib/MCA/HardwareUnits\l/Scheduler.cpp">
<polygon fill="none" stroke="black" points="614,-123.5 614,-153.5 734,-153.5 734,-123.5 614,-123.5"/>
<text text-anchor="start" x="622" y="-141.5" font-family="Helvetica,sans-Serif" font-size="10.00">lib/MCA/HardwareUnits</text>
<text text-anchor="middle" x="674" y="-130.5" font-family="Helvetica,sans-Serif" font-size="10.00">/Scheduler.cpp</text>
</a>
</g>
</g>
<!-- Node60&#45;&gt;Node69 -->
<g id="edge12" class="edge">
<title>Node60&#45;&gt;Node69</title>
<path fill="none" stroke="midnightblue" d="M572.13,-186.13C594.69,-175.8 622.42,-163.11 643.25,-153.58"/>
<polygon fill="midnightblue" stroke="midnightblue" points="570.45,-183.05 562.81,-190.4 573.36,-189.42 570.45,-183.05"/>
</g>
<!-- Node70 -->
<g id="node12" class="node">
<title>Node70</title>
<g id="a_node12"><a xlink:href="DispatchStage_8cpp.html" target="_top" xlink:title="This file models the dispatch component of an instruction pipeline. ">
<polygon fill="none" stroke="black" points="752,-129 752,-148 924,-148 924,-129 752,-129"/>
<text text-anchor="middle" x="838" y="-136" font-family="Helvetica,sans-Serif" font-size="10.00">lib/MCA/Stages/DispatchStage.cpp</text>
</a>
</g>
</g>
<!-- Node60&#45;&gt;Node70 -->
<g id="edge13" class="edge">
<title>Node60&#45;&gt;Node70</title>
<path fill="none" stroke="midnightblue" d="M607.86,-188.39C668.01,-175.61 749.71,-158.25 797.85,-148.03"/>
<polygon fill="midnightblue" stroke="midnightblue" points="607.08,-184.97 598.02,-190.48 608.53,-191.82 607.08,-184.97"/>
</g>
<!-- Node62 -->
<g id="node4" class="node">
<title>Node62</title>
<g id="a_node4"><a xlink:href="Context_8h.html" target="_top" xlink:title="This file defines a class for holding ownership of various simulated hardware units. ">
<polygon fill="none" stroke="black" points="0,-62 0,-81 140,-81 140,-62 0,-62"/>
<text text-anchor="middle" x="70" y="-69" font-family="Helvetica,sans-Serif" font-size="10.00">include/llvm/MCA/Context.h</text>
</a>
</g>
</g>
<!-- Node61&#45;&gt;Node62 -->
<g id="edge3" class="edge">
<title>Node61&#45;&gt;Node62</title>
<path fill="none" stroke="midnightblue" d="M170.36,-124.27C145.41,-111.4 108.2,-92.21 86.8,-81.17"/>
<polygon fill="midnightblue" stroke="midnightblue" points="168.78,-127.39 179.27,-128.87 171.99,-121.17 168.78,-127.39"/>
</g>
<!-- Node64 -->
<g id="node6" class="node">
<title>Node64</title>
<g id="a_node6"><a xlink:href="Pipeline_8cpp.html" target="_top" xlink:title="This file implements an ordered container of stages that simulate the pipeline of a hardware backend...">
<polygon fill="none" stroke="black" points="158,-62 158,-81 266,-81 266,-62 158,-62"/>
<text text-anchor="middle" x="212" y="-69" font-family="Helvetica,sans-Serif" font-size="10.00">lib/MCA/Pipeline.cpp</text>
</a>
</g>
</g>
<!-- Node61&#45;&gt;Node64 -->
<g id="edge5" class="edge">
<title>Node61&#45;&gt;Node64</title>
<path fill="none" stroke="midnightblue" d="M200.57,-118.91C203.63,-106.49 207.52,-90.72 209.88,-81.13"/>
<polygon fill="midnightblue" stroke="midnightblue" points="197.15,-118.19 198.16,-128.73 203.95,-119.86 197.15,-118.19"/>
</g>
<!-- Node62&#45;&gt;Node63 -->
<g id="edge4" class="edge">
<title>Node62&#45;&gt;Node63</title>
<path fill="none" stroke="midnightblue" d="M114.76,-59.54C161.93,-47.99 235.24,-30.04 278.25,-19.51"/>
<polygon fill="midnightblue" stroke="midnightblue" points="113.7,-56.2 104.82,-61.98 115.36,-63 113.7,-56.2"/>
</g>
<!-- Node65&#45;&gt;Node63 -->
<g id="edge7" class="edge">
<title>Node65&#45;&gt;Node63</title>
<path fill="none" stroke="midnightblue" d="M369.34,-114.93C363.28,-106.36 356.57,-96.4 351,-87 337.01,-63.39 323.29,-33.97 316.83,-19.64"/>
<polygon fill="midnightblue" stroke="midnightblue" points="366.65,-117.19 375.33,-123.28 372.34,-113.11 366.65,-117.19"/>
</g>
<!-- Node66 -->
<g id="node8" class="node">
<title>Node66</title>
<g id="a_node8"><a xlink:href="ExecuteStage_8cpp.html" target="_top" xlink:title="This file defines the execution stage of an instruction pipeline. ">
<polygon fill="none" stroke="black" points="359.5,-62 359.5,-81 528.5,-81 528.5,-62 359.5,-62"/>
<text text-anchor="middle" x="444" y="-69" font-family="Helvetica,sans-Serif" font-size="10.00">lib/MCA/Stages/ExecuteStage.cpp</text>
</a>
</g>
</g>
<!-- Node65&#45;&gt;Node66 -->
<g id="edge8" class="edge">
<title>Node65&#45;&gt;Node66</title>
<path fill="none" stroke="midnightblue" d="M405.49,-115.66C416.01,-103.86 428.41,-89.97 436.24,-81.19"/>
<polygon fill="midnightblue" stroke="midnightblue" points="402.63,-113.6 398.59,-123.4 407.85,-118.26 402.63,-113.6"/>
</g>
<!-- Node68 -->
<g id="node10" class="node">
<title>Node68</title>
<g id="a_node10"><a xlink:href="InstructionTables_8cpp.html" target="_top" xlink:title="This file implements the method InstructionTables::execute(). ">
<polygon fill="none" stroke="black" points="547,-56.5 547,-86.5 681,-86.5 681,-56.5 547,-56.5"/>
<text text-anchor="start" x="555" y="-74.5" font-family="Helvetica,sans-Serif" font-size="10.00">lib/MCA/Stages/Instruction</text>
<text text-anchor="middle" x="614" y="-63.5" font-family="Helvetica,sans-Serif" font-size="10.00">Tables.cpp</text>
</a>
</g>
</g>
<!-- Node67&#45;&gt;Node68 -->
<g id="edge10" class="edge">
<title>Node67&#45;&gt;Node68</title>
<path fill="none" stroke="midnightblue" d="M557.65,-117.17C570.19,-107.23 584.97,-95.51 596.24,-86.58"/>
<polygon fill="midnightblue" stroke="midnightblue" points="555.46,-114.44 549.79,-123.4 559.8,-119.93 555.46,-114.44"/>
</g>
<!-- Node71&#45;&gt;Node63 -->
<g id="edge15" class="edge">
<title>Node71&#45;&gt;Node63</title>
<path fill="none" stroke="midnightblue" d="M952.61,-180.3C951.74,-162.24 947.57,-138.17 933,-123 855.23,-42.05 503.62,-18.91 367.27,-12.92"/>
<polygon fill="midnightblue" stroke="midnightblue" points="949.11,-180.45 952.79,-190.38 956.11,-180.32 949.11,-180.45"/>
</g>
<!-- Node72 -->
<g id="node14" class="node">
<title>Node72</title>
<g id="a_node14"><a xlink:href="RetireStage_8cpp.html" target="_top" xlink:title="This file defines the retire stage of an instruction pipeline. ">
<polygon fill="none" stroke="black" points="979.5,-129 979.5,-148 1138.5,-148 1138.5,-129 979.5,-129"/>
<text text-anchor="middle" x="1059" y="-136" font-family="Helvetica,sans-Serif" font-size="10.00">lib/MCA/Stages/RetireStage.cpp</text>
</a>
</g>
</g>
<!-- Node71&#45;&gt;Node72 -->
<g id="edge16" class="edge">
<title>Node71&#45;&gt;Node72</title>
<path fill="none" stroke="midnightblue" d="M983.87,-185.14C1004.2,-172.79 1029.55,-157.39 1045,-148.01"/>
<polygon fill="midnightblue" stroke="midnightblue" points="981.95,-182.21 975.22,-190.4 985.58,-188.2 981.95,-182.21"/>
</g>
</g>
</svg>
