<?xml version="1.0" encoding="UTF-8" standalone="no"?>
<!DOCTYPE svg PUBLIC "-//W3C//DTD SVG 1.1//EN"
 "http://www.w3.org/Graphics/SVG/1.1/DTD/svg11.dtd">
<!-- Generated by graphviz version 2.43.0 (0)
 -->
<!-- Title: include/llvm/CodeGen/MachineOptimizationRemarkEmitter.h Pages: 1 -->
<svg width="2263pt" height="173pt"
 viewBox="0.00 0.00 2263.00 173.00" xmlns="http://www.w3.org/2000/svg" xmlns:xlink="http://www.w3.org/1999/xlink">
<g id="graph0" class="graph" transform="scale(1 1) rotate(0) translate(4 169)">
<title>include/llvm/CodeGen/MachineOptimizationRemarkEmitter.h</title>
<!-- Node206 -->
<g id="node1" class="node">
<title>Node206</title>
<polygon fill="#bfbfbf" stroke="black" points="1082,-134.5 1082,-164.5 1267,-164.5 1267,-134.5 1082,-134.5"/>
<text text-anchor="start" x="1090" y="-152.5" font-family="Helvetica,sans-Serif" font-size="10.00">include/llvm/CodeGen</text>
<text text-anchor="middle" x="1174.5" y="-141.5" font-family="Helvetica,sans-Serif" font-size="10.00">/MachineOptimizationRemarkEmitter.h</text>
</g>
<!-- Node207 -->
<g id="node2" class="node">
<title>Node207</title>
<g id="a_node2"><a xlink:href="RegBankSelect_8h.html" target="_top" xlink:title="include/llvm/CodeGen\l/GlobalISel/RegBankSelect.h">
<polygon fill="none" stroke="black" points="401.5,-67.5 401.5,-97.5 545.5,-97.5 545.5,-67.5 401.5,-67.5"/>
<text text-anchor="start" x="409.5" y="-85.5" font-family="Helvetica,sans-Serif" font-size="10.00">include/llvm/CodeGen</text>
<text text-anchor="middle" x="473.5" y="-74.5" font-family="Helvetica,sans-Serif" font-size="10.00">/GlobalISel/RegBankSelect.h</text>
</a>
</g>
</g>
<!-- Node206&#45;&gt;Node207 -->
<g id="edge1" class="edge">
<title>Node206&#45;&gt;Node207</title>
<path fill="none" stroke="midnightblue" d="M1071.59,-143.15C948.33,-136.03 735.75,-121.55 554.5,-98 551.67,-97.63 548.78,-97.23 545.87,-96.81"/>
<polygon fill="midnightblue" stroke="midnightblue" points="1071.59,-146.65 1081.77,-143.73 1071.99,-139.66 1071.59,-146.65"/>
</g>
<!-- Node208 -->
<g id="node3" class="node">
<title>Node208</title>
<g id="a_node3"><a xlink:href="RegBankSelect_8cpp.html" target="_top" xlink:title="This file implements the RegBankSelect class. ">
<polygon fill="none" stroke="black" points="0,-0.5 0,-30.5 119,-30.5 119,-0.5 0,-0.5"/>
<text text-anchor="start" x="8" y="-18.5" font-family="Helvetica,sans-Serif" font-size="10.00">lib/CodeGen/GlobalISel</text>
<text text-anchor="middle" x="59.5" y="-7.5" font-family="Helvetica,sans-Serif" font-size="10.00">/RegBankSelect.cpp</text>
</a>
</g>
</g>
<!-- Node206&#45;&gt;Node208 -->
<g id="edge13" class="edge">
<title>Node206&#45;&gt;Node208</title>
<path fill="none" stroke="midnightblue" d="M1071.71,-147.59C921.62,-144.98 634.04,-135.06 392.5,-98 288.52,-82.04 169.38,-49.27 105.58,-30.51"/>
<polygon fill="midnightblue" stroke="midnightblue" points="1071.78,-151.1 1081.84,-147.76 1071.9,-144.1 1071.78,-151.1"/>
</g>
<!-- Node215 -->
<g id="node10" class="node">
<title>Node215</title>
<g id="a_node10"><a xlink:href="AsmPrinter_8cpp.html" target="_top" xlink:title="lib/CodeGen/AsmPrinter\l/AsmPrinter.cpp">
<polygon fill="none" stroke="black" points="563.5,-67.5 563.5,-97.5 685.5,-97.5 685.5,-67.5 563.5,-67.5"/>
<text text-anchor="start" x="571.5" y="-85.5" font-family="Helvetica,sans-Serif" font-size="10.00">lib/CodeGen/AsmPrinter</text>
<text text-anchor="middle" x="624.5" y="-74.5" font-family="Helvetica,sans-Serif" font-size="10.00">/AsmPrinter.cpp</text>
</a>
</g>
</g>
<!-- Node206&#45;&gt;Node215 -->
<g id="edge9" class="edge">
<title>Node206&#45;&gt;Node215</title>
<path fill="none" stroke="midnightblue" d="M1071.76,-140.55C974.51,-132.35 824.6,-117.94 695.5,-98 692.27,-97.5 688.96,-96.95 685.62,-96.37"/>
<polygon fill="midnightblue" stroke="midnightblue" points="1071.63,-144.05 1081.88,-141.4 1072.21,-137.08 1071.63,-144.05"/>
</g>
<!-- Node216 -->
<g id="node11" class="node">
<title>Node216</title>
<g id="a_node11"><a xlink:href="Combiner_8cpp.html" target="_top" xlink:title="lib/CodeGen/GlobalISel\l/Combiner.cpp">
<polygon fill="none" stroke="black" points="704,-67.5 704,-97.5 823,-97.5 823,-67.5 704,-67.5"/>
<text text-anchor="start" x="712" y="-85.5" font-family="Helvetica,sans-Serif" font-size="10.00">lib/CodeGen/GlobalISel</text>
<text text-anchor="middle" x="763.5" y="-74.5" font-family="Helvetica,sans-Serif" font-size="10.00">/Combiner.cpp</text>
</a>
</g>
</g>
<!-- Node206&#45;&gt;Node216 -->
<g id="edge10" class="edge">
<title>Node206&#45;&gt;Node216</title>
<path fill="none" stroke="midnightblue" d="M1071.43,-134.94C1003.42,-125.58 912.44,-112.29 832.5,-98 829.49,-97.46 826.41,-96.89 823.3,-96.3"/>
<polygon fill="midnightblue" stroke="midnightblue" points="1071.34,-138.46 1081.72,-136.35 1072.29,-131.52 1071.34,-138.46"/>
</g>
<!-- Node217 -->
<g id="node12" class="node">
<title>Node217</title>
<g id="a_node12"><a xlink:href="InstructionSelect_8cpp.html" target="_top" xlink:title="This file implements the InstructionSelect class. ">
<polygon fill="none" stroke="black" points="841,-67.5 841,-97.5 960,-97.5 960,-67.5 841,-67.5"/>
<text text-anchor="start" x="849" y="-85.5" font-family="Helvetica,sans-Serif" font-size="10.00">lib/CodeGen/GlobalISel</text>
<text text-anchor="middle" x="900.5" y="-74.5" font-family="Helvetica,sans-Serif" font-size="10.00">/InstructionSelect.cpp</text>
</a>
</g>
</g>
<!-- Node206&#45;&gt;Node217 -->
<g id="edge11" class="edge">
<title>Node206&#45;&gt;Node217</title>
<path fill="none" stroke="midnightblue" d="M1105.45,-132.12C1060.61,-121.48 1002.78,-107.76 959.98,-97.61"/>
<polygon fill="midnightblue" stroke="midnightblue" points="1104.85,-135.57 1115.38,-134.48 1106.46,-128.76 1104.85,-135.57"/>
</g>
<!-- Node218 -->
<g id="node13" class="node">
<title>Node218</title>
<g id="a_node13"><a xlink:href="Legalizer_8cpp.html" target="_top" xlink:title="lib/CodeGen/GlobalISel\l/Legalizer.cpp">
<polygon fill="none" stroke="black" points="978,-67.5 978,-97.5 1097,-97.5 1097,-67.5 978,-67.5"/>
<text text-anchor="start" x="986" y="-85.5" font-family="Helvetica,sans-Serif" font-size="10.00">lib/CodeGen/GlobalISel</text>
<text text-anchor="middle" x="1037.5" y="-74.5" font-family="Helvetica,sans-Serif" font-size="10.00">/Legalizer.cpp</text>
</a>
</g>
</g>
<!-- Node206&#45;&gt;Node218 -->
<g id="edge12" class="edge">
<title>Node206&#45;&gt;Node218</title>
<path fill="none" stroke="midnightblue" d="M1135.49,-129.99C1113.78,-119.69 1087.17,-107.07 1067.17,-97.58"/>
<polygon fill="midnightblue" stroke="midnightblue" points="1134.24,-133.27 1144.77,-134.4 1137.24,-126.95 1134.24,-133.27"/>
</g>
<!-- Node219 -->
<g id="node14" class="node">
<title>Node219</title>
<g id="a_node14"><a xlink:href="CodeGen_2GlobalISel_2Utils_8cpp.html" target="_top" xlink:title="lib/CodeGen/GlobalISel\l/Utils.cpp">
<polygon fill="none" stroke="black" points="1115,-67.5 1115,-97.5 1234,-97.5 1234,-67.5 1115,-67.5"/>
<text text-anchor="start" x="1123" y="-85.5" font-family="Helvetica,sans-Serif" font-size="10.00">lib/CodeGen/GlobalISel</text>
<text text-anchor="middle" x="1174.5" y="-74.5" font-family="Helvetica,sans-Serif" font-size="10.00">/Utils.cpp</text>
</a>
</g>
</g>
<!-- Node206&#45;&gt;Node219 -->
<g id="edge14" class="edge">
<title>Node206&#45;&gt;Node219</title>
<path fill="none" stroke="midnightblue" d="M1174.5,-124.11C1174.5,-115.15 1174.5,-105.32 1174.5,-97.58"/>
<polygon fill="midnightblue" stroke="midnightblue" points="1171,-124.4 1174.5,-134.4 1178,-124.4 1171,-124.4"/>
</g>
<!-- Node220 -->
<g id="node15" class="node">
<title>Node220</title>
<g id="a_node15"><a xlink:href="MachineFunctionPass_8cpp.html" target="_top" xlink:title="lib/CodeGen/MachineFunction\lPass.cpp">
<polygon fill="none" stroke="black" points="1252.5,-67.5 1252.5,-97.5 1400.5,-97.5 1400.5,-67.5 1252.5,-67.5"/>
<text text-anchor="start" x="1260.5" y="-85.5" font-family="Helvetica,sans-Serif" font-size="10.00">lib/CodeGen/MachineFunction</text>
<text text-anchor="middle" x="1326.5" y="-74.5" font-family="Helvetica,sans-Serif" font-size="10.00">Pass.cpp</text>
</a>
</g>
</g>
<!-- Node206&#45;&gt;Node220 -->
<g id="edge15" class="edge">
<title>Node206&#45;&gt;Node220</title>
<path fill="none" stroke="midnightblue" d="M1216.81,-130.41C1241.08,-120.03 1271.09,-107.2 1293.58,-97.58"/>
<polygon fill="midnightblue" stroke="midnightblue" points="1215.3,-127.25 1207.48,-134.4 1218.05,-133.68 1215.3,-127.25"/>
</g>
<!-- Node221 -->
<g id="node16" class="node">
<title>Node221</title>
<g id="a_node16"><a xlink:href="MachineOptimizationRemarkEmitter_8cpp.html" target="_top" xlink:title="===&#45; MachineOptimizationRemarkEmitter.cpp &#45; Opt Diagnostic &#45;*&#45; C++ &#45;*—===// ">
<polygon fill="none" stroke="black" points="1419,-67.5 1419,-97.5 1584,-97.5 1584,-67.5 1419,-67.5"/>
<text text-anchor="start" x="1427" y="-85.5" font-family="Helvetica,sans-Serif" font-size="10.00">lib/CodeGen/MachineOptimization</text>
<text text-anchor="middle" x="1501.5" y="-74.5" font-family="Helvetica,sans-Serif" font-size="10.00">RemarkEmitter.cpp</text>
</a>
</g>
</g>
<!-- Node206&#45;&gt;Node221 -->
<g id="edge16" class="edge">
<title>Node206&#45;&gt;Node221</title>
<path fill="none" stroke="midnightblue" d="M1254.91,-132.52C1308.79,-121.81 1379.06,-107.84 1430.79,-97.55"/>
<polygon fill="midnightblue" stroke="midnightblue" points="1254.18,-129.09 1245.05,-134.48 1255.54,-135.96 1254.18,-129.09"/>
</g>
<!-- Node222 -->
<g id="node17" class="node">
<title>Node222</title>
<g id="a_node17"><a xlink:href="MachineOutliner_8cpp.html" target="_top" xlink:title="Replaces repeated sequences of instructions with function calls. ">
<polygon fill="none" stroke="black" points="1602,-73 1602,-92 1765,-92 1765,-73 1602,-73"/>
<text text-anchor="middle" x="1683.5" y="-80" font-family="Helvetica,sans-Serif" font-size="10.00">lib/CodeGen/MachineOutliner.cpp</text>
</a>
</g>
</g>
<!-- Node206&#45;&gt;Node222 -->
<g id="edge17" class="edge">
<title>Node206&#45;&gt;Node222</title>
<path fill="none" stroke="midnightblue" d="M1277.17,-137.28C1362.08,-127.72 1485.78,-113.16 1593.5,-98 1606.19,-96.21 1619.87,-94.11 1632.62,-92.06"/>
<polygon fill="midnightblue" stroke="midnightblue" points="1276.55,-133.83 1267.01,-138.42 1277.33,-140.78 1276.55,-133.83"/>
</g>
<!-- Node223 -->
<g id="node18" class="node">
<title>Node223</title>
<g id="a_node18"><a xlink:href="PrologEpilogInserter_8cpp.html" target="_top" xlink:title="lib/CodeGen/PrologEpilog\lInserter.cpp">
<polygon fill="none" stroke="black" points="1783.5,-67.5 1783.5,-97.5 1911.5,-97.5 1911.5,-67.5 1783.5,-67.5"/>
<text text-anchor="start" x="1791.5" y="-85.5" font-family="Helvetica,sans-Serif" font-size="10.00">lib/CodeGen/PrologEpilog</text>
<text text-anchor="middle" x="1847.5" y="-74.5" font-family="Helvetica,sans-Serif" font-size="10.00">Inserter.cpp</text>
</a>
</g>
</g>
<!-- Node206&#45;&gt;Node223 -->
<g id="edge18" class="edge">
<title>Node206&#45;&gt;Node223</title>
<path fill="none" stroke="midnightblue" d="M1277.37,-143.36C1397.19,-136.56 1600.87,-122.47 1774.5,-98 1777.44,-97.59 1780.45,-97.13 1783.48,-96.64"/>
<polygon fill="midnightblue" stroke="midnightblue" points="1276.9,-139.88 1267.11,-143.93 1277.29,-146.87 1276.9,-139.88"/>
</g>
<!-- Node224 -->
<g id="node19" class="node">
<title>Node224</title>
<g id="a_node19"><a xlink:href="RegAllocGreedy_8cpp.html" target="_top" xlink:title="lib/CodeGen/RegAllocGreedy.cpp">
<polygon fill="none" stroke="black" points="1929.5,-73 1929.5,-92 2093.5,-92 2093.5,-73 1929.5,-73"/>
<text text-anchor="middle" x="2011.5" y="-80" font-family="Helvetica,sans-Serif" font-size="10.00">lib/CodeGen/RegAllocGreedy.cpp</text>
</a>
</g>
</g>
<!-- Node206&#45;&gt;Node224 -->
<g id="edge19" class="edge">
<title>Node206&#45;&gt;Node224</title>
<path fill="none" stroke="midnightblue" d="M1277.36,-144.48C1421.48,-138.18 1691.56,-123.93 1920.5,-98 1934.33,-96.43 1949.27,-94.26 1962.97,-92.07"/>
<polygon fill="midnightblue" stroke="midnightblue" points="1277.04,-140.99 1267.2,-144.92 1277.34,-147.99 1277.04,-140.99"/>
</g>
<!-- Node225 -->
<g id="node20" class="node">
<title>Node225</title>
<g id="a_node20"><a xlink:href="ShrinkWrap_8cpp.html" target="_top" xlink:title="lib/CodeGen/ShrinkWrap.cpp">
<polygon fill="none" stroke="black" points="2112,-73 2112,-92 2255,-92 2255,-73 2112,-73"/>
<text text-anchor="middle" x="2183.5" y="-80" font-family="Helvetica,sans-Serif" font-size="10.00">lib/CodeGen/ShrinkWrap.cpp</text>
</a>
</g>
</g>
<!-- Node206&#45;&gt;Node225 -->
<g id="edge20" class="edge">
<title>Node206&#45;&gt;Node225</title>
<path fill="none" stroke="midnightblue" d="M1277.04,-147.03C1448.49,-143.65 1803.93,-132.71 2102.5,-98 2115.27,-96.52 2129.07,-94.28 2141.6,-92.01"/>
<polygon fill="midnightblue" stroke="midnightblue" points="1276.95,-143.53 1267.02,-147.22 1277.09,-150.53 1276.95,-143.53"/>
</g>
<!-- Node207&#45;&gt;Node208 -->
<g id="edge2" class="edge">
<title>Node207&#45;&gt;Node208</title>
<path fill="none" stroke="midnightblue" d="M391.18,-70.91C321.14,-61.54 217.96,-46.93 128.5,-31 125.49,-30.46 122.4,-29.89 119.3,-29.3"/>
<polygon fill="midnightblue" stroke="midnightblue" points="390.89,-74.4 401.27,-72.25 391.82,-67.46 390.89,-74.4"/>
</g>
<!-- Node209 -->
<g id="node4" class="node">
<title>Node209</title>
<g id="a_node4"><a xlink:href="AArch64TargetMachine_8cpp.html" target="_top" xlink:title="lib/Target/AArch64\l/AArch64TargetMachine.cpp">
<polygon fill="none" stroke="black" points="137.5,-0.5 137.5,-30.5 277.5,-30.5 277.5,-0.5 137.5,-0.5"/>
<text text-anchor="start" x="145.5" y="-18.5" font-family="Helvetica,sans-Serif" font-size="10.00">lib/Target/AArch64</text>
<text text-anchor="middle" x="207.5" y="-7.5" font-family="Helvetica,sans-Serif" font-size="10.00">/AArch64TargetMachine.cpp</text>
</a>
</g>
</g>
<!-- Node207&#45;&gt;Node209 -->
<g id="edge3" class="edge">
<title>Node207&#45;&gt;Node209</title>
<path fill="none" stroke="midnightblue" d="M406.19,-65.05C362.7,-54.43 306.7,-40.74 265.25,-30.61"/>
<polygon fill="midnightblue" stroke="midnightblue" points="405.56,-68.5 416.11,-67.48 407.23,-61.7 405.56,-68.5"/>
</g>
<!-- Node210 -->
<g id="node5" class="node">
<title>Node210</title>
<g id="a_node5"><a xlink:href="AMDGPUTargetMachine_8cpp.html" target="_top" xlink:title="The AMDGPU target machine contains all of the hardware specific information needed to emit code for R...">
<polygon fill="none" stroke="black" points="296,-0.5 296,-30.5 475,-30.5 475,-0.5 296,-0.5"/>
<text text-anchor="start" x="304" y="-18.5" font-family="Helvetica,sans-Serif" font-size="10.00">lib/Target/AMDGPU/AMDGPUTarget</text>
<text text-anchor="middle" x="385.5" y="-7.5" font-family="Helvetica,sans-Serif" font-size="10.00">Machine.cpp</text>
</a>
</g>
</g>
<!-- Node207&#45;&gt;Node210 -->
<g id="edge4" class="edge">
<title>Node207&#45;&gt;Node210</title>
<path fill="none" stroke="midnightblue" d="M446.36,-61.45C432.82,-51.45 416.77,-39.6 404.56,-30.58"/>
<polygon fill="midnightblue" stroke="midnightblue" points="444.28,-64.27 454.41,-67.4 448.44,-58.64 444.28,-64.27"/>
</g>
<!-- Node211 -->
<g id="node6" class="node">
<title>Node211</title>
<g id="a_node6"><a xlink:href="ARMTargetMachine_8cpp.html" target="_top" xlink:title="lib/Target/ARM/ARMTarget\lMachine.cpp">
<polygon fill="none" stroke="black" points="493.5,-0.5 493.5,-30.5 629.5,-30.5 629.5,-0.5 493.5,-0.5"/>
<text text-anchor="start" x="501.5" y="-18.5" font-family="Helvetica,sans-Serif" font-size="10.00">lib/Target/ARM/ARMTarget</text>
<text text-anchor="middle" x="561.5" y="-7.5" font-family="Helvetica,sans-Serif" font-size="10.00">Machine.cpp</text>
</a>
</g>
</g>
<!-- Node207&#45;&gt;Node211 -->
<g id="edge5" class="edge">
<title>Node207&#45;&gt;Node211</title>
<path fill="none" stroke="midnightblue" d="M500.64,-61.45C514.18,-51.45 530.23,-39.6 542.44,-30.58"/>
<polygon fill="midnightblue" stroke="midnightblue" points="498.56,-58.64 492.59,-67.4 502.72,-64.27 498.56,-58.64"/>
</g>
<!-- Node212 -->
<g id="node7" class="node">
<title>Node212</title>
<g id="a_node7"><a xlink:href="MipsTargetMachine_8cpp.html" target="_top" xlink:title="lib/Target/Mips/MipsTarget\lMachine.cpp">
<polygon fill="none" stroke="black" points="648,-0.5 648,-30.5 781,-30.5 781,-0.5 648,-0.5"/>
<text text-anchor="start" x="656" y="-18.5" font-family="Helvetica,sans-Serif" font-size="10.00">lib/Target/Mips/MipsTarget</text>
<text text-anchor="middle" x="714.5" y="-7.5" font-family="Helvetica,sans-Serif" font-size="10.00">Machine.cpp</text>
</a>
</g>
</g>
<!-- Node207&#45;&gt;Node212 -->
<g id="edge6" class="edge">
<title>Node207&#45;&gt;Node212</title>
<path fill="none" stroke="midnightblue" d="M535.23,-64.85C574.53,-54.25 624.86,-40.68 662.18,-30.61"/>
<polygon fill="midnightblue" stroke="midnightblue" points="534.24,-61.49 525.5,-67.48 536.06,-68.25 534.24,-61.49"/>
</g>
<!-- Node213 -->
<g id="node8" class="node">
<title>Node213</title>
<g id="a_node8"><a xlink:href="RISCVTargetMachine_8cpp.html" target="_top" xlink:title="lib/Target/RISCV/RISCVTarget\lMachine.cpp">
<polygon fill="none" stroke="black" points="799.5,-0.5 799.5,-30.5 953.5,-30.5 953.5,-0.5 799.5,-0.5"/>
<text text-anchor="start" x="807.5" y="-18.5" font-family="Helvetica,sans-Serif" font-size="10.00">lib/Target/RISCV/RISCVTarget</text>
<text text-anchor="middle" x="876.5" y="-7.5" font-family="Helvetica,sans-Serif" font-size="10.00">Machine.cpp</text>
</a>
</g>
</g>
<!-- Node207&#45;&gt;Node213 -->
<g id="edge7" class="edge">
<title>Node207&#45;&gt;Node213</title>
<path fill="none" stroke="midnightblue" d="M555.96,-66.78C660.85,-49.53 688.91,-47.31 790.5,-31 793.34,-30.54 796.23,-30.08 799.15,-29.6"/>
<polygon fill="midnightblue" stroke="midnightblue" points="555.2,-63.36 545.91,-68.44 556.34,-70.27 555.2,-63.36"/>
</g>
<!-- Node214 -->
<g id="node9" class="node">
<title>Node214</title>
<g id="a_node9"><a xlink:href="X86TargetMachine_8cpp.html" target="_top" xlink:title="lib/Target/X86/X86Target\lMachine.cpp">
<polygon fill="none" stroke="black" points="972,-0.5 972,-30.5 1097,-30.5 1097,-0.5 972,-0.5"/>
<text text-anchor="start" x="980" y="-18.5" font-family="Helvetica,sans-Serif" font-size="10.00">lib/Target/X86/X86Target</text>
<text text-anchor="middle" x="1034.5" y="-7.5" font-family="Helvetica,sans-Serif" font-size="10.00">Machine.cpp</text>
</a>
</g>
</g>
<!-- Node207&#45;&gt;Node214 -->
<g id="edge8" class="edge">
<title>Node207&#45;&gt;Node214</title>
<path fill="none" stroke="midnightblue" d="M555.98,-66.88C736.7,-43.43 785.58,-56.54 962.5,-31 965.53,-30.56 968.62,-30.08 971.74,-29.56"/>
<polygon fill="midnightblue" stroke="midnightblue" points="555.33,-63.44 545.87,-68.21 556.24,-70.38 555.33,-63.44"/>
</g>
</g>
</svg>
