<?xml version="1.0" encoding="UTF-8" standalone="no"?>
<!DOCTYPE svg PUBLIC "-//W3C//DTD SVG 1.1//EN"
 "http://www.w3.org/Graphics/SVG/1.1/DTD/svg11.dtd">
<!-- Generated by graphviz version 2.43.0 (0)
 -->
<!-- Title: include/llvm/CodeGen/MachineBranchProbabilityInfo.h Pages: 1 -->
<svg width="4324pt" height="173pt"
 viewBox="0.00 0.00 4323.50 173.00" xmlns="http://www.w3.org/2000/svg" xmlns:xlink="http://www.w3.org/1999/xlink">
<g id="graph0" class="graph" transform="scale(1 1) rotate(0) translate(4 169)">
<title>include/llvm/CodeGen/MachineBranchProbabilityInfo.h</title>
<!-- Node145 -->
<g id="node1" class="node">
<title>Node145</title>
<polygon fill="#bfbfbf" stroke="black" points="2478,-134.5 2478,-164.5 2636,-164.5 2636,-134.5 2478,-134.5"/>
<text text-anchor="start" x="2486" y="-152.5" font-family="Helvetica,sans-Serif" font-size="10.00">include/llvm/CodeGen</text>
<text text-anchor="middle" x="2557" y="-141.5" font-family="Helvetica,sans-Serif" font-size="10.00">/MachineBranchProbabilityInfo.h</text>
</g>
<!-- Node146 -->
<g id="node2" class="node">
<title>Node146</title>
<g id="a_node2"><a xlink:href="LazyMachineBlockFrequencyInfo_8h.html" target="_top" xlink:title="===&#45; LazyMachineBlockFrequencyInfo.h &#45; Lazy Block Frequency &#45;*&#45; C++ &#45;*–===// ">
<polygon fill="none" stroke="black" points="689.5,-67.5 689.5,-97.5 862.5,-97.5 862.5,-67.5 689.5,-67.5"/>
<text text-anchor="start" x="697.5" y="-85.5" font-family="Helvetica,sans-Serif" font-size="10.00">include/llvm/CodeGen</text>
<text text-anchor="middle" x="776" y="-74.5" font-family="Helvetica,sans-Serif" font-size="10.00">/LazyMachineBlockFrequencyInfo.h</text>
</a>
</g>
</g>
<!-- Node145&#45;&gt;Node146 -->
<g id="edge1" class="edge">
<title>Node145&#45;&gt;Node146</title>
<path fill="none" stroke="midnightblue" d="M2467.85,-145.97C2236.67,-139.29 1598.93,-120.18 1068,-98 998.9,-95.11 920.64,-91.19 862.55,-88.15"/>
<polygon fill="midnightblue" stroke="midnightblue" points="2467.79,-149.46 2477.89,-146.25 2467.99,-142.47 2467.79,-149.46"/>
</g>
<!-- Node151 -->
<g id="node7" class="node">
<title>Node151</title>
<g id="a_node7"><a xlink:href="TailDuplication_8cpp.html" target="_top" xlink:title="lib/CodeGen/TailDuplication.cpp">
<polygon fill="none" stroke="black" points="1195.5,-6 1195.5,-25 1352.5,-25 1352.5,-6 1195.5,-6"/>
<text text-anchor="middle" x="1274" y="-13" font-family="Helvetica,sans-Serif" font-size="10.00">lib/CodeGen/TailDuplication.cpp</text>
</a>
</g>
</g>
<!-- Node145&#45;&gt;Node151 -->
<g id="edge19" class="edge">
<title>Node145&#45;&gt;Node151</title>
<path fill="none" stroke="midnightblue" d="M2467.6,-148.78C2158.25,-149.3 1149.54,-147.22 1102,-98 1092.43,-88.09 1093.74,-78.03 1102,-67 1116.36,-47.82 1175.69,-33.44 1220.68,-25.03"/>
<polygon fill="midnightblue" stroke="midnightblue" points="2467.88,-152.28 2477.87,-148.76 2467.86,-145.28 2467.88,-152.28"/>
</g>
<!-- Node155 -->
<g id="node11" class="node">
<title>Node155</title>
<g id="a_node11"><a xlink:href="BranchFolding_8cpp.html" target="_top" xlink:title="lib/CodeGen/BranchFolding.cpp">
<polygon fill="none" stroke="black" points="1110.5,-73 1110.5,-92 1265.5,-92 1265.5,-73 1110.5,-73"/>
<text text-anchor="middle" x="1188" y="-80" font-family="Helvetica,sans-Serif" font-size="10.00">lib/CodeGen/BranchFolding.cpp</text>
</a>
</g>
</g>
<!-- Node145&#45;&gt;Node155 -->
<g id="edge10" class="edge">
<title>Node145&#45;&gt;Node155</title>
<path fill="none" stroke="midnightblue" d="M2467.67,-148.84C2258.56,-148.79 1721.15,-143.78 1275,-98 1261.14,-96.58 1246.14,-94.33 1232.56,-92.03"/>
<polygon fill="midnightblue" stroke="midnightblue" points="2467.98,-152.34 2477.98,-148.84 2467.98,-145.34 2467.98,-152.34"/>
</g>
<!-- Node156 -->
<g id="node12" class="node">
<title>Node156</title>
<g id="a_node12"><a xlink:href="EarlyIfConversion_8cpp.html" target="_top" xlink:title="lib/CodeGen/EarlyIfConversion.cpp">
<polygon fill="none" stroke="black" points="1284,-73 1284,-92 1454,-92 1454,-73 1284,-73"/>
<text text-anchor="middle" x="1369" y="-80" font-family="Helvetica,sans-Serif" font-size="10.00">lib/CodeGen/EarlyIfConversion.cpp</text>
</a>
</g>
</g>
<!-- Node145&#45;&gt;Node156 -->
<g id="edge11" class="edge">
<title>Node145&#45;&gt;Node156</title>
<path fill="none" stroke="midnightblue" d="M2467.89,-147.56C2281.23,-144.88 1835.7,-134.85 1464,-98 1449.06,-96.52 1432.88,-94.29 1418.18,-92.02"/>
<polygon fill="midnightblue" stroke="midnightblue" points="2467.88,-151.06 2477.93,-147.7 2467.98,-144.06 2467.88,-151.06"/>
</g>
<!-- Node157 -->
<g id="node13" class="node">
<title>Node157</title>
<g id="a_node13"><a xlink:href="RegBankSelect_8cpp.html" target="_top" xlink:title="This file implements the RegBankSelect class. ">
<polygon fill="none" stroke="black" points="1472.5,-67.5 1472.5,-97.5 1591.5,-97.5 1591.5,-67.5 1472.5,-67.5"/>
<text text-anchor="start" x="1480.5" y="-85.5" font-family="Helvetica,sans-Serif" font-size="10.00">lib/CodeGen/GlobalISel</text>
<text text-anchor="middle" x="1532" y="-74.5" font-family="Helvetica,sans-Serif" font-size="10.00">/RegBankSelect.cpp</text>
</a>
</g>
</g>
<!-- Node145&#45;&gt;Node157 -->
<g id="edge12" class="edge">
<title>Node145&#45;&gt;Node157</title>
<path fill="none" stroke="midnightblue" d="M2467.81,-148.37C2298.23,-147.11 1917.95,-139.42 1601,-98 1597.97,-97.6 1594.87,-97.15 1591.74,-96.64"/>
<polygon fill="midnightblue" stroke="midnightblue" points="2467.91,-151.87 2477.93,-148.44 2467.96,-144.87 2467.91,-151.87"/>
</g>
<!-- Node158 -->
<g id="node14" class="node">
<title>Node158</title>
<g id="a_node14"><a xlink:href="IfConversion_8cpp.html" target="_top" xlink:title="lib/CodeGen/IfConversion.cpp">
<polygon fill="none" stroke="black" points="1610,-73 1610,-92 1758,-92 1758,-73 1610,-73"/>
<text text-anchor="middle" x="1684" y="-80" font-family="Helvetica,sans-Serif" font-size="10.00">lib/CodeGen/IfConversion.cpp</text>
</a>
</g>
</g>
<!-- Node145&#45;&gt;Node158 -->
<g id="edge13" class="edge">
<title>Node145&#45;&gt;Node158</title>
<path fill="none" stroke="midnightblue" d="M2467.51,-145.89C2320.9,-140.92 2020.59,-127.8 1768,-98 1755.07,-96.47 1741.1,-94.28 1728.34,-92.07"/>
<polygon fill="midnightblue" stroke="midnightblue" points="2467.68,-149.4 2477.8,-146.23 2467.92,-142.4 2467.68,-149.4"/>
</g>
<!-- Node159 -->
<g id="node15" class="node">
<title>Node159</title>
<g id="a_node15"><a xlink:href="MachineBlockFrequencyInfo_8cpp.html" target="_top" xlink:title="lib/CodeGen/MachineBlock\lFrequencyInfo.cpp">
<polygon fill="none" stroke="black" points="1776.5,-67.5 1776.5,-97.5 1911.5,-97.5 1911.5,-67.5 1776.5,-67.5"/>
<text text-anchor="start" x="1784.5" y="-85.5" font-family="Helvetica,sans-Serif" font-size="10.00">lib/CodeGen/MachineBlock</text>
<text text-anchor="middle" x="1844" y="-74.5" font-family="Helvetica,sans-Serif" font-size="10.00">FrequencyInfo.cpp</text>
</a>
</g>
</g>
<!-- Node145&#45;&gt;Node159 -->
<g id="edge14" class="edge">
<title>Node145&#45;&gt;Node159</title>
<path fill="none" stroke="midnightblue" d="M2467.74,-144.43C2344.4,-138.11 2115.09,-123.9 1921,-98 1917.9,-97.59 1914.73,-97.13 1911.54,-96.64"/>
<polygon fill="midnightblue" stroke="midnightblue" points="2467.72,-147.93 2477.89,-144.94 2468.08,-140.94 2467.72,-147.93"/>
</g>
<!-- Node160 -->
<g id="node16" class="node">
<title>Node160</title>
<g id="a_node16"><a xlink:href="MachineBlockPlacement_8cpp.html" target="_top" xlink:title="lib/CodeGen/MachineBlock\lPlacement.cpp">
<polygon fill="none" stroke="black" points="1929.5,-67.5 1929.5,-97.5 2064.5,-97.5 2064.5,-67.5 1929.5,-67.5"/>
<text text-anchor="start" x="1937.5" y="-85.5" font-family="Helvetica,sans-Serif" font-size="10.00">lib/CodeGen/MachineBlock</text>
<text text-anchor="middle" x="1997" y="-74.5" font-family="Helvetica,sans-Serif" font-size="10.00">Placement.cpp</text>
</a>
</g>
</g>
<!-- Node145&#45;&gt;Node160 -->
<g id="edge15" class="edge">
<title>Node145&#45;&gt;Node160</title>
<path fill="none" stroke="midnightblue" d="M2467.61,-141.36C2370.46,-133.09 2210.77,-117.99 2074,-98 2070.9,-97.55 2067.74,-97.06 2064.55,-96.55"/>
<polygon fill="midnightblue" stroke="midnightblue" points="2467.43,-144.86 2477.69,-142.22 2468.02,-137.88 2467.43,-144.86"/>
</g>
<!-- Node161 -->
<g id="node17" class="node">
<title>Node161</title>
<g id="a_node17"><a xlink:href="MachineBranchProbabilityInfo_8cpp.html" target="_top" xlink:title="lib/CodeGen/MachineBranch\lProbabilityInfo.cpp">
<polygon fill="none" stroke="black" points="2082.5,-67.5 2082.5,-97.5 2223.5,-97.5 2223.5,-67.5 2082.5,-67.5"/>
<text text-anchor="start" x="2090.5" y="-85.5" font-family="Helvetica,sans-Serif" font-size="10.00">lib/CodeGen/MachineBranch</text>
<text text-anchor="middle" x="2153" y="-74.5" font-family="Helvetica,sans-Serif" font-size="10.00">ProbabilityInfo.cpp</text>
</a>
</g>
</g>
<!-- Node145&#45;&gt;Node161 -->
<g id="edge16" class="edge">
<title>Node145&#45;&gt;Node161</title>
<path fill="none" stroke="midnightblue" d="M2467.46,-135.15C2402.35,-125.3 2312.13,-111.34 2233,-98 2229.94,-97.48 2226.81,-96.95 2223.65,-96.4"/>
<polygon fill="midnightblue" stroke="midnightblue" points="2467.27,-138.66 2477.69,-136.7 2468.32,-131.74 2467.27,-138.66"/>
</g>
<!-- Node162 -->
<g id="node18" class="node">
<title>Node162</title>
<g id="a_node18"><a xlink:href="MachineSink_8cpp.html" target="_top" xlink:title="lib/CodeGen/MachineSink.cpp">
<polygon fill="none" stroke="black" points="2241.5,-73 2241.5,-92 2390.5,-92 2390.5,-73 2241.5,-73"/>
<text text-anchor="middle" x="2316" y="-80" font-family="Helvetica,sans-Serif" font-size="10.00">lib/CodeGen/MachineSink.cpp</text>
</a>
</g>
</g>
<!-- Node145&#45;&gt;Node162 -->
<g id="edge17" class="edge">
<title>Node145&#45;&gt;Node162</title>
<path fill="none" stroke="midnightblue" d="M2495.19,-131.83C2448.03,-119.11 2384.99,-102.11 2347.62,-92.03"/>
<polygon fill="midnightblue" stroke="midnightblue" points="2494.44,-135.25 2505,-134.48 2496.26,-128.49 2494.44,-135.25"/>
</g>
<!-- Node163 -->
<g id="node19" class="node">
<title>Node163</title>
<g id="a_node19"><a xlink:href="MachineTraceMetrics_8cpp.html" target="_top" xlink:title="lib/CodeGen/MachineTrace\lMetrics.cpp">
<polygon fill="none" stroke="black" points="2408.5,-67.5 2408.5,-97.5 2543.5,-97.5 2543.5,-67.5 2408.5,-67.5"/>
<text text-anchor="start" x="2416.5" y="-85.5" font-family="Helvetica,sans-Serif" font-size="10.00">lib/CodeGen/MachineTrace</text>
<text text-anchor="middle" x="2476" y="-74.5" font-family="Helvetica,sans-Serif" font-size="10.00">Metrics.cpp</text>
</a>
</g>
</g>
<!-- Node145&#45;&gt;Node163 -->
<g id="edge18" class="edge">
<title>Node145&#45;&gt;Node163</title>
<path fill="none" stroke="midnightblue" d="M2531.31,-127.88C2519,-118.01 2504.57,-106.43 2493.54,-97.58"/>
<polygon fill="midnightblue" stroke="midnightblue" points="2529.43,-130.87 2539.42,-134.4 2533.82,-125.41 2529.43,-130.87"/>
</g>
<!-- Node164 -->
<g id="node20" class="node">
<title>Node164</title>
<g id="a_node20"><a xlink:href="TailDuplicator_8cpp.html" target="_top" xlink:title="lib/CodeGen/TailDuplicator.cpp">
<polygon fill="none" stroke="black" points="2562,-73 2562,-92 2714,-92 2714,-73 2562,-73"/>
<text text-anchor="middle" x="2638" y="-80" font-family="Helvetica,sans-Serif" font-size="10.00">lib/CodeGen/TailDuplicator.cpp</text>
</a>
</g>
</g>
<!-- Node145&#45;&gt;Node164 -->
<g id="edge20" class="edge">
<title>Node145&#45;&gt;Node164</title>
<path fill="none" stroke="midnightblue" d="M2582.54,-128.01C2597.57,-115.94 2615.81,-101.3 2627.17,-92.19"/>
<polygon fill="midnightblue" stroke="midnightblue" points="2580.18,-125.41 2574.58,-134.4 2584.57,-130.87 2580.18,-125.41"/>
</g>
<!-- Node165 -->
<g id="node21" class="node">
<title>Node165</title>
<g id="a_node21"><a xlink:href="AArch64ConditionalCompares_8cpp.html" target="_top" xlink:title="lib/Target/AArch64\l/AArch64ConditionalCompares.cpp">
<polygon fill="none" stroke="black" points="2732,-67.5 2732,-97.5 2902,-97.5 2902,-67.5 2732,-67.5"/>
<text text-anchor="start" x="2740" y="-85.5" font-family="Helvetica,sans-Serif" font-size="10.00">lib/Target/AArch64</text>
<text text-anchor="middle" x="2817" y="-74.5" font-family="Helvetica,sans-Serif" font-size="10.00">/AArch64ConditionalCompares.cpp</text>
</a>
</g>
</g>
<!-- Node145&#45;&gt;Node165 -->
<g id="edge21" class="edge">
<title>Node145&#45;&gt;Node165</title>
<path fill="none" stroke="midnightblue" d="M2623.06,-131.98C2665.53,-121.37 2720.12,-107.72 2760.56,-97.61"/>
<polygon fill="midnightblue" stroke="midnightblue" points="2621.95,-128.66 2613.1,-134.48 2623.65,-135.45 2621.95,-128.66"/>
</g>
<!-- Node166 -->
<g id="node22" class="node">
<title>Node166</title>
<g id="a_node22"><a xlink:href="AArch64StackTaggingPreRA_8cpp.html" target="_top" xlink:title="lib/Target/AArch64\l/AArch64StackTaggingPreRA.cpp">
<polygon fill="none" stroke="black" points="2920.5,-67.5 2920.5,-97.5 3085.5,-97.5 3085.5,-67.5 2920.5,-67.5"/>
<text text-anchor="start" x="2928.5" y="-85.5" font-family="Helvetica,sans-Serif" font-size="10.00">lib/Target/AArch64</text>
<text text-anchor="middle" x="3003" y="-74.5" font-family="Helvetica,sans-Serif" font-size="10.00">/AArch64StackTaggingPreRA.cpp</text>
</a>
</g>
</g>
<!-- Node145&#45;&gt;Node166 -->
<g id="edge22" class="edge">
<title>Node145&#45;&gt;Node166</title>
<path fill="none" stroke="midnightblue" d="M2646.47,-136.11C2718.07,-126.1 2821.03,-111.51 2911,-98 2914.04,-97.54 2917.13,-97.08 2920.26,-96.6"/>
<polygon fill="midnightblue" stroke="midnightblue" points="2645.55,-132.7 2636.13,-137.55 2646.52,-139.63 2645.55,-132.7"/>
</g>
<!-- Node167 -->
<g id="node23" class="node">
<title>Node167</title>
<g id="a_node23"><a xlink:href="HexagonCFGOptimizer_8cpp.html" target="_top" xlink:title="lib/Target/Hexagon\l/HexagonCFGOptimizer.cpp">
<polygon fill="none" stroke="black" points="3104,-67.5 3104,-97.5 3244,-97.5 3244,-67.5 3104,-67.5"/>
<text text-anchor="start" x="3112" y="-85.5" font-family="Helvetica,sans-Serif" font-size="10.00">lib/Target/Hexagon</text>
<text text-anchor="middle" x="3174" y="-74.5" font-family="Helvetica,sans-Serif" font-size="10.00">/HexagonCFGOptimizer.cpp</text>
</a>
</g>
</g>
<!-- Node145&#45;&gt;Node167 -->
<g id="edge23" class="edge">
<title>Node145&#45;&gt;Node167</title>
<path fill="none" stroke="midnightblue" d="M2646.21,-142.54C2753.16,-134.84 2937.68,-119.78 3095,-98 3097.9,-97.6 3100.86,-97.17 3103.84,-96.71"/>
<polygon fill="midnightblue" stroke="midnightblue" points="2645.83,-139.06 2636.11,-143.26 2646.33,-146.04 2645.83,-139.06"/>
</g>
<!-- Node168 -->
<g id="node24" class="node">
<title>Node168</title>
<g id="a_node24"><a xlink:href="HexagonEarlyIfConv_8cpp.html" target="_top" xlink:title="lib/Target/Hexagon\l/HexagonEarlyIfConv.cpp">
<polygon fill="none" stroke="black" points="3262.5,-67.5 3262.5,-97.5 3391.5,-97.5 3391.5,-67.5 3262.5,-67.5"/>
<text text-anchor="start" x="3270.5" y="-85.5" font-family="Helvetica,sans-Serif" font-size="10.00">lib/Target/Hexagon</text>
<text text-anchor="middle" x="3327" y="-74.5" font-family="Helvetica,sans-Serif" font-size="10.00">/HexagonEarlyIfConv.cpp</text>
</a>
</g>
</g>
<!-- Node145&#45;&gt;Node168 -->
<g id="edge24" class="edge">
<title>Node145&#45;&gt;Node168</title>
<path fill="none" stroke="midnightblue" d="M2646.24,-145.48C2779.01,-140.21 3036.2,-127 3253,-98 3255.98,-97.6 3259.03,-97.16 3262.1,-96.68"/>
<polygon fill="midnightblue" stroke="midnightblue" points="2645.98,-141.99 2636.12,-145.88 2646.25,-148.98 2645.98,-141.99"/>
</g>
<!-- Node169 -->
<g id="node25" class="node">
<title>Node169</title>
<g id="a_node25"><a xlink:href="HexagonInstrInfo_8cpp.html" target="_top" xlink:title="lib/Target/Hexagon\l/HexagonInstrInfo.cpp">
<polygon fill="none" stroke="black" points="3409.5,-67.5 3409.5,-97.5 3522.5,-97.5 3522.5,-67.5 3409.5,-67.5"/>
<text text-anchor="start" x="3417.5" y="-85.5" font-family="Helvetica,sans-Serif" font-size="10.00">lib/Target/Hexagon</text>
<text text-anchor="middle" x="3466" y="-74.5" font-family="Helvetica,sans-Serif" font-size="10.00">/HexagonInstrInfo.cpp</text>
</a>
</g>
</g>
<!-- Node145&#45;&gt;Node169 -->
<g id="edge25" class="edge">
<title>Node145&#45;&gt;Node169</title>
<path fill="none" stroke="midnightblue" d="M2646.64,-147.83C2801.31,-145.62 3128,-136.37 3401,-98 3403.75,-97.61 3406.55,-97.17 3409.38,-96.69"/>
<polygon fill="midnightblue" stroke="midnightblue" points="2646.2,-144.33 2636.25,-147.97 2646.3,-151.33 2646.2,-144.33"/>
</g>
<!-- Node170 -->
<g id="node26" class="node">
<title>Node170</title>
<g id="a_node26"><a xlink:href="HexagonNewValueJump_8cpp.html" target="_top" xlink:title="lib/Target/Hexagon\l/HexagonNewValueJump.cpp">
<polygon fill="none" stroke="black" points="3541,-67.5 3541,-97.5 3687,-97.5 3687,-67.5 3541,-67.5"/>
<text text-anchor="start" x="3549" y="-85.5" font-family="Helvetica,sans-Serif" font-size="10.00">lib/Target/Hexagon</text>
<text text-anchor="middle" x="3614" y="-74.5" font-family="Helvetica,sans-Serif" font-size="10.00">/HexagonNewValueJump.cpp</text>
</a>
</g>
</g>
<!-- Node145&#45;&gt;Node170 -->
<g id="edge26" class="edge">
<title>Node145&#45;&gt;Node170</title>
<path fill="none" stroke="midnightblue" d="M2646.28,-147.55C2818.23,-144.91 3207.13,-134.99 3532,-98 3534.87,-97.67 3537.8,-97.31 3540.75,-96.91"/>
<polygon fill="midnightblue" stroke="midnightblue" points="2646.21,-144.05 2636.26,-147.7 2646.31,-151.05 2646.21,-144.05"/>
</g>
<!-- Node171 -->
<g id="node27" class="node">
<title>Node171</title>
<g id="a_node27"><a xlink:href="HexagonVLIWPacketizer_8cpp.html" target="_top" xlink:title="lib/Target/Hexagon\l/HexagonVLIWPacketizer.cpp">
<polygon fill="none" stroke="black" points="3705.5,-67.5 3705.5,-97.5 3854.5,-97.5 3854.5,-67.5 3705.5,-67.5"/>
<text text-anchor="start" x="3713.5" y="-85.5" font-family="Helvetica,sans-Serif" font-size="10.00">lib/Target/Hexagon</text>
<text text-anchor="middle" x="3780" y="-74.5" font-family="Helvetica,sans-Serif" font-size="10.00">/HexagonVLIWPacketizer.cpp</text>
</a>
</g>
</g>
<!-- Node145&#45;&gt;Node171 -->
<g id="edge27" class="edge">
<title>Node145&#45;&gt;Node171</title>
<path fill="none" stroke="midnightblue" d="M2646.38,-148.38C2838.86,-147.27 3306.68,-140.06 3696,-98 3699.09,-97.67 3702.24,-97.29 3705.41,-96.88"/>
<polygon fill="midnightblue" stroke="midnightblue" points="2646.3,-144.88 2636.32,-148.43 2646.34,-151.88 2646.3,-144.88"/>
</g>
<!-- Node172 -->
<g id="node28" class="node">
<title>Node172</title>
<g id="a_node28"><a xlink:href="MipsDelaySlotFiller_8cpp.html" target="_top" xlink:title="lib/Target/Mips/MipsDelay\lSlotFiller.cpp">
<polygon fill="none" stroke="black" points="3872.5,-67.5 3872.5,-97.5 4003.5,-97.5 4003.5,-67.5 3872.5,-67.5"/>
<text text-anchor="start" x="3880.5" y="-85.5" font-family="Helvetica,sans-Serif" font-size="10.00">lib/Target/Mips/MipsDelay</text>
<text text-anchor="middle" x="3938" y="-74.5" font-family="Helvetica,sans-Serif" font-size="10.00">SlotFiller.cpp</text>
</a>
</g>
</g>
<!-- Node145&#45;&gt;Node172 -->
<g id="edge28" class="edge">
<title>Node145&#45;&gt;Node172</title>
<path fill="none" stroke="midnightblue" d="M2646.52,-146.85C2901.35,-141.86 3627.49,-125.57 3864,-98 3866.73,-97.68 3869.51,-97.32 3872.32,-96.92"/>
<polygon fill="midnightblue" stroke="midnightblue" points="2646.13,-143.36 2636.2,-147.05 2646.26,-150.35 2646.13,-143.36"/>
</g>
<!-- Node173 -->
<g id="node29" class="node">
<title>Node173</title>
<g id="a_node29"><a xlink:href="PPCReduceCRLogicals_8cpp.html" target="_top" xlink:title="lib/Target/PowerPC\l/PPCReduceCRLogicals.cpp">
<polygon fill="none" stroke="black" points="4022,-67.5 4022,-97.5 4166,-97.5 4166,-67.5 4022,-67.5"/>
<text text-anchor="start" x="4030" y="-85.5" font-family="Helvetica,sans-Serif" font-size="10.00">lib/Target/PowerPC</text>
<text text-anchor="middle" x="4094" y="-74.5" font-family="Helvetica,sans-Serif" font-size="10.00">/PPCReduceCRLogicals.cpp</text>
</a>
</g>
</g>
<!-- Node145&#45;&gt;Node173 -->
<g id="edge29" class="edge">
<title>Node145&#45;&gt;Node173</title>
<path fill="none" stroke="midnightblue" d="M2646.57,-147.07C2920.74,-142.42 3746.06,-126.38 4013,-98 4015.84,-97.7 4018.73,-97.35 4021.65,-96.98"/>
<polygon fill="midnightblue" stroke="midnightblue" points="2646.21,-143.57 2636.27,-147.24 2646.33,-150.57 2646.21,-143.57"/>
</g>
<!-- Node174 -->
<g id="node30" class="node">
<title>Node174</title>
<g id="a_node30"><a xlink:href="X86CondBrFolding_8cpp.html" target="_top" xlink:title="lib/Target/X86/X86CondBr\lFolding.cpp">
<polygon fill="none" stroke="black" points="4184.5,-67.5 4184.5,-97.5 4315.5,-97.5 4315.5,-67.5 4184.5,-67.5"/>
<text text-anchor="start" x="4192.5" y="-85.5" font-family="Helvetica,sans-Serif" font-size="10.00">lib/Target/X86/X86CondBr</text>
<text text-anchor="middle" x="4250" y="-74.5" font-family="Helvetica,sans-Serif" font-size="10.00">Folding.cpp</text>
</a>
</g>
</g>
<!-- Node145&#45;&gt;Node174 -->
<g id="edge30" class="edge">
<title>Node145&#45;&gt;Node174</title>
<path fill="none" stroke="midnightblue" d="M2646.32,-147.59C2940.17,-144.31 3875.16,-131.45 4175,-98 4178.03,-97.66 4181.12,-97.27 4184.24,-96.83"/>
<polygon fill="midnightblue" stroke="midnightblue" points="2646.1,-144.09 2636.14,-147.71 2646.18,-151.09 2646.1,-144.09"/>
</g>
<!-- Node147 -->
<g id="node3" class="node">
<title>Node147</title>
<g id="a_node3"><a xlink:href="AsmPrinter_8cpp.html" target="_top" xlink:title="lib/CodeGen/AsmPrinter\l/AsmPrinter.cpp">
<polygon fill="none" stroke="black" points="0,-0.5 0,-30.5 122,-30.5 122,-0.5 0,-0.5"/>
<text text-anchor="start" x="8" y="-18.5" font-family="Helvetica,sans-Serif" font-size="10.00">lib/CodeGen/AsmPrinter</text>
<text text-anchor="middle" x="61" y="-7.5" font-family="Helvetica,sans-Serif" font-size="10.00">/AsmPrinter.cpp</text>
</a>
</g>
</g>
<!-- Node146&#45;&gt;Node147 -->
<g id="edge2" class="edge">
<title>Node146&#45;&gt;Node147</title>
<path fill="none" stroke="midnightblue" d="M679.24,-77.73C552.71,-71.94 324.4,-58.49 131,-31 128.05,-30.58 125.04,-30.11 122,-29.61"/>
<polygon fill="midnightblue" stroke="midnightblue" points="679.14,-81.23 689.29,-78.19 679.46,-74.24 679.14,-81.23"/>
</g>
<!-- Node148 -->
<g id="node4" class="node">
<title>Node148</title>
<g id="a_node4"><a xlink:href="LazyMachineBlockFrequencyInfo_8cpp.html" target="_top" xlink:title="===&#45; LazyMachineBlockFrequencyInfo.cpp &#45; Lazy Machine Block Frequency –===// ">
<polygon fill="none" stroke="black" points="140,-0.5 140,-30.5 296,-30.5 296,-0.5 140,-0.5"/>
<text text-anchor="start" x="148" y="-18.5" font-family="Helvetica,sans-Serif" font-size="10.00">lib/CodeGen/LazyMachineBlock</text>
<text text-anchor="middle" x="218" y="-7.5" font-family="Helvetica,sans-Serif" font-size="10.00">FrequencyInfo.cpp</text>
</a>
</g>
</g>
<!-- Node146&#45;&gt;Node148 -->
<g id="edge3" class="edge">
<title>Node146&#45;&gt;Node148</title>
<path fill="none" stroke="midnightblue" d="M679.24,-72.79C583.88,-63.81 434.13,-48.67 305,-31 302.12,-30.61 299.18,-30.19 296.22,-29.76"/>
<polygon fill="midnightblue" stroke="midnightblue" points="679.16,-76.3 689.44,-73.75 679.81,-69.33 679.16,-76.3"/>
</g>
<!-- Node149 -->
<g id="node5" class="node">
<title>Node149</title>
<g id="a_node5"><a xlink:href="MachineCombiner_8cpp.html" target="_top" xlink:title="lib/CodeGen/MachineCombiner.cpp">
<polygon fill="none" stroke="black" points="314.5,-6 314.5,-25 485.5,-25 485.5,-6 314.5,-6"/>
<text text-anchor="middle" x="400" y="-13" font-family="Helvetica,sans-Serif" font-size="10.00">lib/CodeGen/MachineCombiner.cpp</text>
</a>
</g>
</g>
<!-- Node146&#45;&gt;Node149 -->
<g id="edge4" class="edge">
<title>Node146&#45;&gt;Node149</title>
<path fill="none" stroke="midnightblue" d="M684.61,-65.7C610.53,-52.9 508.97,-35.34 449.34,-25.03"/>
<polygon fill="midnightblue" stroke="midnightblue" points="684.43,-69.22 694.88,-67.48 685.62,-62.32 684.43,-69.22"/>
</g>
<!-- Node150 -->
<g id="node6" class="node">
<title>Node150</title>
<g id="a_node6"><a xlink:href="MachineOptimizationRemarkEmitter_8cpp.html" target="_top" xlink:title="===&#45; MachineOptimizationRemarkEmitter.cpp &#45; Opt Diagnostic &#45;*&#45; C++ &#45;*—===// ">
<polygon fill="none" stroke="black" points="503.5,-0.5 503.5,-30.5 668.5,-30.5 668.5,-0.5 503.5,-0.5"/>
<text text-anchor="start" x="511.5" y="-18.5" font-family="Helvetica,sans-Serif" font-size="10.00">lib/CodeGen/MachineOptimization</text>
<text text-anchor="middle" x="586" y="-7.5" font-family="Helvetica,sans-Serif" font-size="10.00">RemarkEmitter.cpp</text>
</a>
</g>
</g>
<!-- Node146&#45;&gt;Node150 -->
<g id="edge5" class="edge">
<title>Node146&#45;&gt;Node150</title>
<path fill="none" stroke="midnightblue" d="M725.11,-64.09C694.44,-53.6 655.89,-40.41 627.15,-30.58"/>
<polygon fill="midnightblue" stroke="midnightblue" points="724.18,-67.47 734.77,-67.4 726.44,-60.85 724.18,-67.47"/>
</g>
<!-- Node146&#45;&gt;Node151 -->
<g id="edge6" class="edge">
<title>Node146&#45;&gt;Node151</title>
<path fill="none" stroke="midnightblue" d="M872.46,-70.74C955.64,-61.2 1078.9,-46.41 1186,-31 1198.41,-29.21 1211.78,-27.11 1224.26,-25.06"/>
<polygon fill="midnightblue" stroke="midnightblue" points="872.06,-67.27 862.52,-71.88 872.85,-74.22 872.06,-67.27"/>
</g>
<!-- Node152 -->
<g id="node8" class="node">
<title>Node152</title>
<g id="a_node8"><a xlink:href="X86FixupBWInsts_8cpp.html" target="_top" xlink:title="This file defines the pass that looks through the machine instructions late in the compilation...">
<polygon fill="none" stroke="black" points="686.5,-6 686.5,-25 865.5,-25 865.5,-6 686.5,-6"/>
<text text-anchor="middle" x="776" y="-13" font-family="Helvetica,sans-Serif" font-size="10.00">lib/Target/X86/X86FixupBWInsts.cpp</text>
</a>
</g>
</g>
<!-- Node146&#45;&gt;Node152 -->
<g id="edge7" class="edge">
<title>Node146&#45;&gt;Node152</title>
<path fill="none" stroke="midnightblue" d="M776,-57.25C776,-46.02 776,-33.38 776,-25.19"/>
<polygon fill="midnightblue" stroke="midnightblue" points="772.5,-57.4 776,-67.4 779.5,-57.4 772.5,-57.4"/>
</g>
<!-- Node153 -->
<g id="node9" class="node">
<title>Node153</title>
<g id="a_node9"><a xlink:href="X86OptimizeLEAs_8cpp.html" target="_top" xlink:title="lib/Target/X86/X86Optimize\lLEAs.cpp">
<polygon fill="none" stroke="black" points="883.5,-0.5 883.5,-30.5 1020.5,-30.5 1020.5,-0.5 883.5,-0.5"/>
<text text-anchor="start" x="891.5" y="-18.5" font-family="Helvetica,sans-Serif" font-size="10.00">lib/Target/X86/X86Optimize</text>
<text text-anchor="middle" x="952" y="-7.5" font-family="Helvetica,sans-Serif" font-size="10.00">LEAs.cpp</text>
</a>
</g>
</g>
<!-- Node146&#45;&gt;Node153 -->
<g id="edge8" class="edge">
<title>Node146&#45;&gt;Node153</title>
<path fill="none" stroke="midnightblue" d="M823.88,-63.82C852.17,-53.37 887.49,-40.32 913.89,-30.58"/>
<polygon fill="midnightblue" stroke="midnightblue" points="822.36,-60.65 814.19,-67.4 824.78,-67.21 822.36,-60.65"/>
</g>
<!-- Node154 -->
<g id="node10" class="node">
<title>Node154</title>
<g id="a_node10"><a xlink:href="X86PadShortFunction_8cpp.html" target="_top" xlink:title="lib/Target/X86/X86PadShort\lFunction.cpp">
<polygon fill="none" stroke="black" points="1039,-0.5 1039,-30.5 1177,-30.5 1177,-0.5 1039,-0.5"/>
<text text-anchor="start" x="1047" y="-18.5" font-family="Helvetica,sans-Serif" font-size="10.00">lib/Target/X86/X86PadShort</text>
<text text-anchor="middle" x="1108" y="-7.5" font-family="Helvetica,sans-Serif" font-size="10.00">Function.cpp</text>
</a>
</g>
</g>
<!-- Node146&#45;&gt;Node154 -->
<g id="edge9" class="edge">
<title>Node146&#45;&gt;Node154</title>
<path fill="none" stroke="midnightblue" d="M857.45,-65.55C913.07,-54.66 985.96,-40.39 1038.77,-30.05"/>
<polygon fill="midnightblue" stroke="midnightblue" points="856.77,-62.12 847.63,-67.48 858.12,-68.99 856.77,-62.12"/>
</g>
</g>
</svg>
