<?xml version="1.0" encoding="UTF-8" standalone="no"?>
<!DOCTYPE svg PUBLIC "-//W3C//DTD SVG 1.1//EN"
 "http://www.w3.org/Graphics/SVG/1.1/DTD/svg11.dtd">
<!-- Generated by graphviz version 2.43.0 (0)
 -->
<!-- Title: include/llvm/Support/ManagedStatic.h Pages: 1 -->
<svg width="6258pt" height="184pt"
 viewBox="0.00 0.00 6258.00 184.00" xmlns="http://www.w3.org/2000/svg" xmlns:xlink="http://www.w3.org/1999/xlink">
<g id="graph0" class="graph" transform="scale(1 1) rotate(0) translate(4 180)">
<title>include/llvm/Support/ManagedStatic.h</title>
<!-- Node3 -->
<g id="node1" class="node">
<title>Node3</title>
<polygon fill="#bfbfbf" stroke="black" points="2711,-145.5 2711,-175.5 2816,-175.5 2816,-145.5 2711,-145.5"/>
<text text-anchor="start" x="2719" y="-163.5" font-family="Helvetica,sans-Serif" font-size="10.00">include/llvm/Support</text>
<text text-anchor="middle" x="2763.5" y="-152.5" font-family="Helvetica,sans-Serif" font-size="10.00">/ManagedStatic.h</text>
</g>
<!-- Node4 -->
<g id="node2" class="node">
<title>Node4</title>
<g id="a_node2"><a xlink:href="CommandLine_8h.html" target="_top" xlink:title="include/llvm/Support\l/CommandLine.h">
<polygon fill="none" stroke="red" points="1068,-73 1068,-103 1173,-103 1173,-73 1068,-73"/>
<text text-anchor="start" x="1076" y="-91" font-family="Helvetica,sans-Serif" font-size="10.00">include/llvm/Support</text>
<text text-anchor="middle" x="1120.5" y="-80" font-family="Helvetica,sans-Serif" font-size="10.00">/CommandLine.h</text>
</a>
</g>
</g>
<!-- Node3&#45;&gt;Node4 -->
<g id="edge1" class="edge">
<title>Node3&#45;&gt;Node4</title>
<path fill="none" stroke="midnightblue" d="M2700.64,-158.86C2448.88,-156.08 1512.78,-143.59 1218.5,-109 1203.67,-107.26 1187.74,-104.43 1173.13,-101.44"/>
<polygon fill="midnightblue" stroke="midnightblue" points="2700.67,-162.36 2710.71,-158.97 2700.75,-155.36 2700.67,-162.36"/>
</g>
<!-- Node1111 -->
<g id="node6" class="node">
<title>Node1111</title>
<g id="a_node6"><a xlink:href="BitcodeReader_8cpp.html" target="_top" xlink:title="lib/Bitcode/Reader\l/BitcodeReader.cpp">
<polygon fill="none" stroke="black" points="0,-0.5 0,-30.5 103,-30.5 103,-0.5 0,-0.5"/>
<text text-anchor="start" x="8" y="-18.5" font-family="Helvetica,sans-Serif" font-size="10.00">lib/Bitcode/Reader</text>
<text text-anchor="middle" x="51.5" y="-7.5" font-family="Helvetica,sans-Serif" font-size="10.00">/BitcodeReader.cpp</text>
</a>
</g>
</g>
<!-- Node3&#45;&gt;Node1111 -->
<g id="edge19" class="edge">
<title>Node3&#45;&gt;Node1111</title>
<path fill="none" stroke="midnightblue" d="M2700.76,-159.46C2340.65,-159.04 544.13,-154.67 302.5,-109 218.53,-93.13 125.6,-52.29 79.97,-30.57"/>
<polygon fill="midnightblue" stroke="midnightblue" points="2700.99,-162.96 2710.99,-159.47 2701,-155.96 2700.99,-162.96"/>
</g>
<!-- Node1112 -->
<g id="node7" class="node">
<title>Node1112</title>
<g id="a_node7"><a xlink:href="MetadataLoader_8cpp.html" target="_top" xlink:title="lib/Bitcode/Reader\l/MetadataLoader.cpp">
<polygon fill="none" stroke="black" points="121.5,-0.5 121.5,-30.5 229.5,-30.5 229.5,-0.5 121.5,-0.5"/>
<text text-anchor="start" x="129.5" y="-18.5" font-family="Helvetica,sans-Serif" font-size="10.00">lib/Bitcode/Reader</text>
<text text-anchor="middle" x="175.5" y="-7.5" font-family="Helvetica,sans-Serif" font-size="10.00">/MetadataLoader.cpp</text>
</a>
</g>
</g>
<!-- Node3&#45;&gt;Node1112 -->
<g id="edge20" class="edge">
<title>Node3&#45;&gt;Node1112</title>
<path fill="none" stroke="midnightblue" d="M2700.7,-159.26C2353.59,-157.79 677.31,-148.67 450.5,-109 359.2,-93.03 257.08,-52.23 206.86,-30.55"/>
<polygon fill="midnightblue" stroke="midnightblue" points="2700.8,-162.76 2710.82,-159.3 2700.83,-155.76 2700.8,-162.76"/>
</g>
<!-- Node994 -->
<g id="node8" class="node">
<title>Node994</title>
<g id="a_node8"><a xlink:href="LegacyPassManager_8cpp.html" target="_top" xlink:title="lib/IR/LegacyPassManager.cpp">
<polygon fill="none" stroke="black" points="248,-6 248,-25 401,-25 401,-6 248,-6"/>
<text text-anchor="middle" x="324.5" y="-13" font-family="Helvetica,sans-Serif" font-size="10.00">lib/IR/LegacyPassManager.cpp</text>
</a>
</g>
</g>
<!-- Node3&#45;&gt;Node994 -->
<g id="edge36" class="edge">
<title>Node3&#45;&gt;Node994</title>
<path fill="none" stroke="midnightblue" d="M2700.51,-159.16C2366.51,-157.23 809.86,-146.25 598.5,-109 499.12,-91.48 386.88,-44.45 343.25,-25.05"/>
<polygon fill="midnightblue" stroke="midnightblue" points="2700.94,-162.67 2710.96,-159.22 2700.98,-155.67 2700.94,-162.67"/>
</g>
<!-- Node1134 -->
<g id="node9" class="node">
<title>Node1134</title>
<g id="a_node9"><a xlink:href="PassTimingInfo_8cpp.html" target="_top" xlink:title="lib/IR/PassTimingInfo.cpp">
<polygon fill="none" stroke="black" points="419.5,-6 419.5,-25 549.5,-25 549.5,-6 419.5,-6"/>
<text text-anchor="middle" x="484.5" y="-13" font-family="Helvetica,sans-Serif" font-size="10.00">lib/IR/PassTimingInfo.cpp</text>
</a>
</g>
</g>
<!-- Node3&#45;&gt;Node1134 -->
<g id="edge39" class="edge">
<title>Node3&#45;&gt;Node1134</title>
<path fill="none" stroke="midnightblue" d="M2700.54,-159.17C2379.3,-157.32 930.31,-146.91 733.5,-109 642.48,-91.47 540.89,-44.44 501.44,-25.05"/>
<polygon fill="midnightblue" stroke="midnightblue" points="2700.59,-162.67 2710.61,-159.23 2700.63,-155.67 2700.59,-162.67"/>
</g>
<!-- Node1137 -->
<g id="node10" class="node">
<title>Node1137</title>
<g id="a_node10"><a xlink:href="Value_8cpp.html" target="_top" xlink:title="lib/IR/Value.cpp">
<polygon fill="none" stroke="black" points="567.5,-6 567.5,-25 653.5,-25 653.5,-6 567.5,-6"/>
<text text-anchor="middle" x="610.5" y="-13" font-family="Helvetica,sans-Serif" font-size="10.00">lib/IR/Value.cpp</text>
</a>
</g>
</g>
<!-- Node3&#45;&gt;Node1137 -->
<g id="edge40" class="edge">
<title>Node3&#45;&gt;Node1137</title>
<path fill="none" stroke="midnightblue" d="M2700.58,-158.96C2393.43,-156.19 1058.89,-142.32 876.5,-109 779.83,-91.34 670.98,-44.39 628.67,-25.03"/>
<polygon fill="midnightblue" stroke="midnightblue" points="2700.62,-162.46 2710.65,-159.05 2700.68,-155.46 2700.62,-162.46"/>
</g>
<!-- Node164 -->
<g id="node11" class="node">
<title>Node164</title>
<g id="a_node11"><a xlink:href="LTO_8cpp.html" target="_top" xlink:title="lib/LTO/LTO.cpp">
<polygon fill="none" stroke="black" points="672,-6 672,-25 761,-25 761,-6 672,-6"/>
<text text-anchor="middle" x="716.5" y="-13" font-family="Helvetica,sans-Serif" font-size="10.00">lib/LTO/LTO.cpp</text>
</a>
</g>
</g>
<!-- Node3&#45;&gt;Node164 -->
<g id="edge41" class="edge">
<title>Node3&#45;&gt;Node164</title>
<path fill="none" stroke="midnightblue" d="M2700.39,-159.6C2432.02,-159.74 1384.46,-157.13 1058.5,-109 936.5,-90.98 795.82,-44.45 740.55,-25.12"/>
<polygon fill="midnightblue" stroke="midnightblue" points="2700.73,-163.1 2710.73,-159.6 2700.73,-156.1 2700.73,-163.1"/>
</g>
<!-- Node1143 -->
<g id="node12" class="node">
<title>Node1143</title>
<g id="a_node12"><a xlink:href="InstrProf_8cpp.html" target="_top" xlink:title="lib/ProfileData/InstrProf.cpp">
<polygon fill="none" stroke="black" points="1164,-6 1164,-25 1301,-25 1301,-6 1164,-6"/>
<text text-anchor="middle" x="1232.5" y="-13" font-family="Helvetica,sans-Serif" font-size="10.00">lib/ProfileData/InstrProf.cpp</text>
</a>
</g>
</g>
<!-- Node3&#45;&gt;Node1143 -->
<g id="edge44" class="edge">
<title>Node3&#45;&gt;Node1143</title>
<path fill="none" stroke="midnightblue" d="M2700.63,-159.04C2447.87,-156.93 1513.23,-146.65 1386.5,-109 1326.41,-91.15 1265.74,-44.31 1242.45,-25"/>
<polygon fill="midnightblue" stroke="midnightblue" points="2700.72,-162.54 2710.75,-159.12 2700.78,-155.54 2700.72,-162.54"/>
</g>
<!-- Node1145 -->
<g id="node13" class="node">
<title>Node1145</title>
<g id="a_node13"><a xlink:href="CommandLine_8cpp.html" target="_top" xlink:title="lib/Support/CommandLine.cpp">
<polygon fill="none" stroke="black" points="1319.5,-6 1319.5,-25 1467.5,-25 1467.5,-6 1319.5,-6"/>
<text text-anchor="middle" x="1393.5" y="-13" font-family="Helvetica,sans-Serif" font-size="10.00">lib/Support/CommandLine.cpp</text>
</a>
</g>
</g>
<!-- Node3&#45;&gt;Node1145 -->
<g id="edge46" class="edge">
<title>Node3&#45;&gt;Node1145</title>
<path fill="none" stroke="midnightblue" d="M2700.8,-159.37C2440.48,-158.54 1456.27,-152.55 1407.5,-109 1383.39,-87.47 1388.3,-43.52 1391.69,-25.01"/>
<polygon fill="midnightblue" stroke="midnightblue" points="2700.83,-162.87 2710.84,-159.4 2700.85,-155.87 2700.83,-162.87"/>
</g>
<!-- Node1146 -->
<g id="node14" class="node">
<title>Node1146</title>
<g id="a_node14"><a xlink:href="Debug_8cpp.html" target="_top" xlink:title="lib/Support/Debug.cpp">
<polygon fill="none" stroke="black" points="1486,-6 1486,-25 1599,-25 1599,-6 1486,-6"/>
<text text-anchor="middle" x="1542.5" y="-13" font-family="Helvetica,sans-Serif" font-size="10.00">lib/Support/Debug.cpp</text>
</a>
</g>
</g>
<!-- Node3&#45;&gt;Node1146 -->
<g id="edge48" class="edge">
<title>Node3&#45;&gt;Node1146</title>
<path fill="none" stroke="midnightblue" d="M2700.74,-159.53C2441.36,-159.37 1464.43,-155.65 1419.5,-109 1406.55,-95.56 1409.11,-82.5 1419.5,-67 1430.14,-51.13 1478.43,-34.68 1511.24,-25.02"/>
<polygon fill="midnightblue" stroke="midnightblue" points="2700.75,-163.03 2710.75,-159.54 2700.75,-156.03 2700.75,-163.03"/>
</g>
<!-- Node998 -->
<g id="node15" class="node">
<title>Node998</title>
<g id="a_node15"><a xlink:href="DebugCounter_8cpp.html" target="_top" xlink:title="lib/Support/DebugCounter.cpp">
<polygon fill="none" stroke="black" points="1617.5,-6 1617.5,-25 1765.5,-25 1765.5,-6 1617.5,-6"/>
<text text-anchor="middle" x="1691.5" y="-13" font-family="Helvetica,sans-Serif" font-size="10.00">lib/Support/DebugCounter.cpp</text>
</a>
</g>
</g>
<!-- Node3&#45;&gt;Node998 -->
<g id="edge49" class="edge">
<title>Node3&#45;&gt;Node998</title>
<path fill="none" stroke="midnightblue" d="M2700.54,-159.51C2442.44,-159.24 1476.94,-155.16 1432.5,-109 1419.55,-95.55 1420.63,-81.41 1432.5,-67 1435.87,-62.91 1569.99,-38.29 1643.86,-25"/>
<polygon fill="midnightblue" stroke="midnightblue" points="2700.85,-163.01 2710.86,-159.52 2700.86,-156.01 2700.85,-163.01"/>
</g>
<!-- Node1149 -->
<g id="node16" class="node">
<title>Node1149</title>
<g id="a_node16"><a xlink:href="Signals_8cpp.html" target="_top" xlink:title="lib/Support/Signals.cpp">
<polygon fill="none" stroke="black" points="1784,-6 1784,-25 1901,-25 1901,-6 1784,-6"/>
<text text-anchor="middle" x="1842.5" y="-13" font-family="Helvetica,sans-Serif" font-size="10.00">lib/Support/Signals.cpp</text>
</a>
</g>
</g>
<!-- Node3&#45;&gt;Node1149 -->
<g id="edge57" class="edge">
<title>Node3&#45;&gt;Node1149</title>
<path fill="none" stroke="midnightblue" d="M2700.89,-159.43C2448.65,-158.83 1518.38,-153.6 1475.5,-109 1395.71,-26.02 1410.96,-91.52 1774.5,-31 1784.62,-29.32 1795.52,-27.15 1805.56,-25.01"/>
<polygon fill="midnightblue" stroke="midnightblue" points="2700.98,-162.93 2710.99,-159.45 2700.99,-155.93 2700.98,-162.93"/>
</g>
<!-- Node1150 -->
<g id="node17" class="node">
<title>Node1150</title>
<g id="a_node17"><a xlink:href="Statistic_8cpp.html" target="_top" xlink:title="lib/Support/Statistic.cpp">
<polygon fill="none" stroke="black" points="1919,-6 1919,-25 2040,-25 2040,-6 1919,-6"/>
<text text-anchor="middle" x="1979.5" y="-13" font-family="Helvetica,sans-Serif" font-size="10.00">lib/Support/Statistic.cpp</text>
</a>
</g>
</g>
<!-- Node3&#45;&gt;Node1150 -->
<g id="edge58" class="edge">
<title>Node3&#45;&gt;Node1150</title>
<path fill="none" stroke="midnightblue" d="M2700.73,-159.4C2450.02,-158.69 1531.86,-153.07 1489.5,-109 1476.56,-95.54 1476.88,-80.75 1489.5,-67 1521.25,-32.42 1864.05,-37.84 1910.5,-31 1921.16,-29.43 1932.64,-27.23 1943.12,-25.01"/>
<polygon fill="midnightblue" stroke="midnightblue" points="2700.76,-162.9 2710.77,-159.42 2700.78,-155.9 2700.76,-162.9"/>
</g>
<!-- Node1152 -->
<g id="node18" class="node">
<title>Node1152</title>
<g id="a_node18"><a xlink:href="Timer_8cpp.html" target="_top" xlink:title="lib/Support/Timer.cpp">
<polygon fill="none" stroke="black" points="2058.5,-6 2058.5,-25 2168.5,-25 2168.5,-6 2058.5,-6"/>
<text text-anchor="middle" x="2113.5" y="-13" font-family="Helvetica,sans-Serif" font-size="10.00">lib/Support/Timer.cpp</text>
</a>
</g>
</g>
<!-- Node3&#45;&gt;Node1152 -->
<g id="edge59" class="edge">
<title>Node3&#45;&gt;Node1152</title>
<path fill="none" stroke="midnightblue" d="M2700.64,-159.37C2451.55,-158.54 1545.34,-152.55 1503.5,-109 1490.57,-95.54 1490.74,-80.63 1503.5,-67 1545.05,-22.62 1989.33,-39.74 2049.5,-31 2059.65,-29.53 2070.57,-27.3 2080.47,-25.02"/>
<polygon fill="midnightblue" stroke="midnightblue" points="2700.95,-162.87 2710.96,-159.4 2700.97,-155.87 2700.95,-162.87"/>
</g>
<!-- Node171 -->
<g id="node19" class="node">
<title>Node171</title>
<g id="a_node19"><a xlink:href="PassManagerBuilder_8cpp.html" target="_top" xlink:title="lib/Transforms/IPO\l/PassManagerBuilder.cpp">
<polygon fill="none" stroke="black" points="2186.5,-0.5 2186.5,-30.5 2314.5,-30.5 2314.5,-0.5 2186.5,-0.5"/>
<text text-anchor="start" x="2194.5" y="-18.5" font-family="Helvetica,sans-Serif" font-size="10.00">lib/Transforms/IPO</text>
<text text-anchor="middle" x="2250.5" y="-7.5" font-family="Helvetica,sans-Serif" font-size="10.00">/PassManagerBuilder.cpp</text>
</a>
</g>
</g>
<!-- Node3&#45;&gt;Node171 -->
<g id="edge63" class="edge">
<title>Node3&#45;&gt;Node171</title>
<path fill="none" stroke="midnightblue" d="M2700.51,-159.34C2453.02,-158.4 1558.82,-152.03 1517.5,-109 1504.57,-95.54 1504.67,-80.55 1517.5,-67 1568,-13.67 2104.63,-40.18 2177.5,-31 2180.45,-30.63 2183.46,-30.21 2186.49,-29.75"/>
<polygon fill="midnightblue" stroke="midnightblue" points="2700.76,-162.84 2710.77,-159.38 2700.78,-155.84 2700.76,-162.84"/>
</g>
<!-- Node982 -->
<g id="node20" class="node">
<title>Node982</title>
<g id="a_node20"><a xlink:href="SelectionDAG_8cpp.html" target="_top" xlink:title="lib/CodeGen/SelectionDAG\l/SelectionDAG.cpp">
<polygon fill="none" stroke="black" points="1526.5,-73 1526.5,-103 1662.5,-103 1662.5,-73 1526.5,-73"/>
<text text-anchor="start" x="1534.5" y="-91" font-family="Helvetica,sans-Serif" font-size="10.00">lib/CodeGen/SelectionDAG</text>
<text text-anchor="middle" x="1594.5" y="-80" font-family="Helvetica,sans-Serif" font-size="10.00">/SelectionDAG.cpp</text>
</a>
</g>
</g>
<!-- Node3&#45;&gt;Node982 -->
<g id="edge21" class="edge">
<title>Node3&#45;&gt;Node982</title>
<path fill="none" stroke="midnightblue" d="M2700.57,-158.31C2499.19,-154.23 1872.08,-139.35 1671.5,-109 1661.94,-107.55 1651.85,-105.4 1642.24,-103.04"/>
<polygon fill="midnightblue" stroke="midnightblue" points="2700.61,-161.81 2710.68,-158.51 2700.75,-154.81 2700.61,-161.81"/>
</g>
<!-- Node1259 -->
<g id="node21" class="node">
<title>Node1259</title>
<g id="a_node21"><a xlink:href="CodeViewError_8cpp.html" target="_top" xlink:title="lib/DebugInfo/CodeView\l/CodeViewError.cpp">
<polygon fill="none" stroke="black" points="1680.5,-73 1680.5,-103 1802.5,-103 1802.5,-73 1680.5,-73"/>
<text text-anchor="start" x="1688.5" y="-91" font-family="Helvetica,sans-Serif" font-size="10.00">lib/DebugInfo/CodeView</text>
<text text-anchor="middle" x="1741.5" y="-80" font-family="Helvetica,sans-Serif" font-size="10.00">/CodeViewError.cpp</text>
</a>
</g>
</g>
<!-- Node3&#45;&gt;Node1259 -->
<g id="edge22" class="edge">
<title>Node3&#45;&gt;Node1259</title>
<path fill="none" stroke="midnightblue" d="M2700.95,-158.02C2517.59,-153.39 1983.53,-137.76 1811.5,-109 1802.77,-107.54 1793.59,-105.38 1784.84,-103.02"/>
<polygon fill="midnightblue" stroke="midnightblue" points="2700.88,-161.52 2710.97,-158.27 2701.06,-154.52 2700.88,-161.52"/>
</g>
<!-- Node1260 -->
<g id="node22" class="node">
<title>Node1260</title>
<g id="a_node22"><a xlink:href="MSFError_8cpp.html" target="_top" xlink:title="lib/DebugInfo/MSF/MSFError.cpp">
<polygon fill="none" stroke="black" points="1820.5,-78.5 1820.5,-97.5 1982.5,-97.5 1982.5,-78.5 1820.5,-78.5"/>
<text text-anchor="middle" x="1901.5" y="-85.5" font-family="Helvetica,sans-Serif" font-size="10.00">lib/DebugInfo/MSF/MSFError.cpp</text>
</a>
</g>
</g>
<!-- Node3&#45;&gt;Node1260 -->
<g id="edge23" class="edge">
<title>Node3&#45;&gt;Node1260</title>
<path fill="none" stroke="midnightblue" d="M2700.56,-158.59C2568.62,-155.97 2253.71,-146.04 1992.5,-109 1973.12,-106.25 1951.73,-101.63 1934.56,-97.53"/>
<polygon fill="midnightblue" stroke="midnightblue" points="2700.8,-162.09 2710.87,-158.79 2700.94,-155.1 2700.8,-162.09"/>
</g>
<!-- Node1261 -->
<g id="node23" class="node">
<title>Node1261</title>
<g id="a_node23"><a xlink:href="DIAError_8cpp.html" target="_top" xlink:title="lib/DebugInfo/PDB/DIA\l/DIAError.cpp">
<polygon fill="none" stroke="black" points="2001,-73 2001,-103 2120,-103 2120,-73 2001,-73"/>
<text text-anchor="start" x="2009" y="-91" font-family="Helvetica,sans-Serif" font-size="10.00">lib/DebugInfo/PDB/DIA</text>
<text text-anchor="middle" x="2060.5" y="-80" font-family="Helvetica,sans-Serif" font-size="10.00">/DIAError.cpp</text>
</a>
</g>
</g>
<!-- Node3&#45;&gt;Node1261 -->
<g id="edge24" class="edge">
<title>Node3&#45;&gt;Node1261</title>
<path fill="none" stroke="midnightblue" d="M2700.52,-158.7C2585.96,-156.3 2336.21,-146.79 2129.5,-109 2121.16,-107.47 2112.38,-105.35 2103.98,-103.05"/>
<polygon fill="midnightblue" stroke="midnightblue" points="2700.78,-162.2 2710.85,-158.9 2700.92,-155.2 2700.78,-162.2"/>
</g>
<!-- Node1262 -->
<g id="node24" class="node">
<title>Node1262</title>
<g id="a_node24"><a xlink:href="GenericError_8cpp.html" target="_top" xlink:title="lib/DebugInfo/PDB/Generic\lError.cpp">
<polygon fill="none" stroke="black" points="2138,-73 2138,-103 2273,-103 2273,-73 2138,-73"/>
<text text-anchor="start" x="2146" y="-91" font-family="Helvetica,sans-Serif" font-size="10.00">lib/DebugInfo/PDB/Generic</text>
<text text-anchor="middle" x="2205.5" y="-80" font-family="Helvetica,sans-Serif" font-size="10.00">Error.cpp</text>
</a>
</g>
</g>
<!-- Node3&#45;&gt;Node1262 -->
<g id="edge25" class="edge">
<title>Node3&#45;&gt;Node1262</title>
<path fill="none" stroke="midnightblue" d="M2700.82,-155.92C2608.6,-149.98 2431.22,-135.96 2282.5,-109 2273.53,-107.37 2264.07,-105.26 2254.96,-103.01"/>
<polygon fill="midnightblue" stroke="midnightblue" points="2700.62,-159.41 2710.82,-156.55 2701.06,-152.43 2700.62,-159.41"/>
</g>
<!-- Node1263 -->
<g id="node25" class="node">
<title>Node1263</title>
<g id="a_node25"><a xlink:href="RawError_8cpp.html" target="_top" xlink:title="lib/DebugInfo/PDB/Native\l/RawError.cpp">
<polygon fill="none" stroke="black" points="2291.5,-73 2291.5,-103 2421.5,-103 2421.5,-73 2291.5,-73"/>
<text text-anchor="start" x="2299.5" y="-91" font-family="Helvetica,sans-Serif" font-size="10.00">lib/DebugInfo/PDB/Native</text>
<text text-anchor="middle" x="2356.5" y="-80" font-family="Helvetica,sans-Serif" font-size="10.00">/RawError.cpp</text>
</a>
</g>
</g>
<!-- Node3&#45;&gt;Node1263 -->
<g id="edge26" class="edge">
<title>Node3&#45;&gt;Node1263</title>
<path fill="none" stroke="midnightblue" d="M2700.88,-152.06C2633.86,-143.6 2524.6,-128.43 2431.5,-109 2423.19,-107.27 2414.43,-105.17 2405.94,-103"/>
<polygon fill="midnightblue" stroke="midnightblue" points="2700.5,-155.54 2710.86,-153.3 2701.37,-148.59 2700.5,-155.54"/>
</g>
<!-- Node1264 -->
<g id="node26" class="node">
<title>Node1264</title>
<g id="a_node26"><a xlink:href="GDBRegistrationListener_8cpp.html" target="_top" xlink:title="lib/ExecutionEngine\l/GDBRegistrationListener.cpp">
<polygon fill="none" stroke="black" points="2440,-73 2440,-103 2587,-103 2587,-73 2440,-73"/>
<text text-anchor="start" x="2448" y="-91" font-family="Helvetica,sans-Serif" font-size="10.00">lib/ExecutionEngine</text>
<text text-anchor="middle" x="2513.5" y="-80" font-family="Helvetica,sans-Serif" font-size="10.00">/GDBRegistrationListener.cpp</text>
</a>
</g>
</g>
<!-- Node3&#45;&gt;Node1264 -->
<g id="edge27" class="edge">
<title>Node3&#45;&gt;Node1264</title>
<path fill="none" stroke="midnightblue" d="M2704.07,-142.74C2661.23,-130.66 2604.04,-114.53 2563.52,-103.11"/>
<polygon fill="midnightblue" stroke="midnightblue" points="2703.23,-146.14 2713.81,-145.49 2705.13,-139.4 2703.23,-146.14"/>
</g>
<!-- Node1265 -->
<g id="node27" class="node">
<title>Node1265</title>
<g id="a_node27"><a xlink:href="ExternalFunctions_8cpp.html" target="_top" xlink:title="lib/ExecutionEngine\l/Interpreter/ExternalFunctions.cpp">
<polygon fill="none" stroke="black" points="2605.5,-73 2605.5,-103 2769.5,-103 2769.5,-73 2605.5,-73"/>
<text text-anchor="start" x="2613.5" y="-91" font-family="Helvetica,sans-Serif" font-size="10.00">lib/ExecutionEngine</text>
<text text-anchor="middle" x="2687.5" y="-80" font-family="Helvetica,sans-Serif" font-size="10.00">/Interpreter/ExternalFunctions.cpp</text>
</a>
</g>
</g>
<!-- Node3&#45;&gt;Node1265 -->
<g id="edge28" class="edge">
<title>Node3&#45;&gt;Node1265</title>
<path fill="none" stroke="midnightblue" d="M2740.47,-138.14C2728.19,-126.74 2713.42,-113.04 2702.6,-103"/>
<polygon fill="midnightblue" stroke="midnightblue" points="2738.41,-141 2748.12,-145.23 2743.17,-135.87 2738.41,-141"/>
</g>
<!-- Node1266 -->
<g id="node28" class="node">
<title>Node1266</title>
<g id="a_node28"><a xlink:href="JITLink_8cpp.html" target="_top" xlink:title="lib/ExecutionEngine\l/JITLink/JITLink.cpp">
<polygon fill="none" stroke="black" points="2787.5,-73 2787.5,-103 2893.5,-103 2893.5,-73 2787.5,-73"/>
<text text-anchor="start" x="2795.5" y="-91" font-family="Helvetica,sans-Serif" font-size="10.00">lib/ExecutionEngine</text>
<text text-anchor="middle" x="2840.5" y="-80" font-family="Helvetica,sans-Serif" font-size="10.00">/JITLink/JITLink.cpp</text>
</a>
</g>
</g>
<!-- Node3&#45;&gt;Node1266 -->
<g id="edge29" class="edge">
<title>Node3&#45;&gt;Node1266</title>
<path fill="none" stroke="midnightblue" d="M2786.48,-138.46C2798.99,-127 2814.14,-113.14 2825.2,-103"/>
<polygon fill="midnightblue" stroke="midnightblue" points="2784.09,-135.9 2779.08,-145.23 2788.82,-141.06 2784.09,-135.9"/>
</g>
<!-- Node1267 -->
<g id="node29" class="node">
<title>Node1267</title>
<g id="a_node29"><a xlink:href="OrcError_8cpp.html" target="_top" xlink:title="lib/ExecutionEngine\l/OrcError/OrcError.cpp">
<polygon fill="none" stroke="black" points="2912,-73 2912,-103 3027,-103 3027,-73 2912,-73"/>
<text text-anchor="start" x="2920" y="-91" font-family="Helvetica,sans-Serif" font-size="10.00">lib/ExecutionEngine</text>
<text text-anchor="middle" x="2969.5" y="-80" font-family="Helvetica,sans-Serif" font-size="10.00">/OrcError/OrcError.cpp</text>
</a>
</g>
</g>
<!-- Node3&#45;&gt;Node1267 -->
<g id="edge30" class="edge">
<title>Node3&#45;&gt;Node1267</title>
<path fill="none" stroke="midnightblue" d="M2814.29,-142.12C2849.41,-130.1 2895.56,-114.31 2928.38,-103.07"/>
<polygon fill="midnightblue" stroke="midnightblue" points="2813.02,-138.85 2804.69,-145.4 2815.29,-145.48 2813.02,-138.85"/>
</g>
<!-- Node1268 -->
<g id="node30" class="node">
<title>Node1268</title>
<g id="a_node30"><a xlink:href="PerfJITEventListener_8cpp.html" target="_top" xlink:title="lib/ExecutionEngine\l/PerfJITEvents/PerfJITEvent\lListener.cpp">
<polygon fill="none" stroke="black" points="3045,-67.5 3045,-108.5 3188,-108.5 3188,-67.5 3045,-67.5"/>
<text text-anchor="start" x="3053" y="-96.5" font-family="Helvetica,sans-Serif" font-size="10.00">lib/ExecutionEngine</text>
<text text-anchor="start" x="3053" y="-85.5" font-family="Helvetica,sans-Serif" font-size="10.00">/PerfJITEvents/PerfJITEvent</text>
<text text-anchor="middle" x="3116.5" y="-74.5" font-family="Helvetica,sans-Serif" font-size="10.00">Listener.cpp</text>
</a>
</g>
</g>
<!-- Node3&#45;&gt;Node1268 -->
<g id="edge31" class="edge">
<title>Node3&#45;&gt;Node1268</title>
<path fill="none" stroke="midnightblue" d="M2826.06,-149.07C2881.53,-139.54 2964.67,-124.61 3036.5,-109 3039.16,-108.42 3041.86,-107.82 3044.59,-107.2"/>
<polygon fill="midnightblue" stroke="midnightblue" points="2825.3,-145.64 2816.03,-150.78 2826.48,-152.54 2825.3,-145.64"/>
</g>
<!-- Node1269 -->
<g id="node31" class="node">
<title>Node1269</title>
<g id="a_node31"><a xlink:href="RuntimeDyld_8cpp.html" target="_top" xlink:title="lib/ExecutionEngine\l/RuntimeDyld/RuntimeDyld.cpp">
<polygon fill="none" stroke="black" points="3206,-73 3206,-103 3361,-103 3361,-73 3206,-73"/>
<text text-anchor="start" x="3214" y="-91" font-family="Helvetica,sans-Serif" font-size="10.00">lib/ExecutionEngine</text>
<text text-anchor="middle" x="3283.5" y="-80" font-family="Helvetica,sans-Serif" font-size="10.00">/RuntimeDyld/RuntimeDyld.cpp</text>
</a>
</g>
</g>
<!-- Node3&#45;&gt;Node1269 -->
<g id="edge32" class="edge">
<title>Node3&#45;&gt;Node1269</title>
<path fill="none" stroke="midnightblue" d="M2826.19,-154.44C2910.85,-147.1 3066.26,-131.82 3197.5,-109 3207.17,-107.32 3217.37,-105.23 3227.25,-103.04"/>
<polygon fill="midnightblue" stroke="midnightblue" points="2825.88,-150.95 2816.22,-155.3 2826.48,-157.93 2825.88,-150.95"/>
</g>
<!-- Node1270 -->
<g id="node32" class="node">
<title>Node1270</title>
<g id="a_node32"><a xlink:href="ConstantFold_8cpp.html" target="_top" xlink:title="lib/IR/ConstantFold.cpp">
<polygon fill="none" stroke="black" points="3379.5,-78.5 3379.5,-97.5 3499.5,-97.5 3499.5,-78.5 3379.5,-78.5"/>
<text text-anchor="middle" x="3439.5" y="-85.5" font-family="Helvetica,sans-Serif" font-size="10.00">lib/IR/ConstantFold.cpp</text>
</a>
</g>
</g>
<!-- Node3&#45;&gt;Node1270 -->
<g id="edge33" class="edge">
<title>Node3&#45;&gt;Node1270</title>
<path fill="none" stroke="midnightblue" d="M2826.34,-158.38C2937.14,-155.5 3174.11,-145.26 3370.5,-109 3385.34,-106.26 3401.57,-101.64 3414.55,-97.53"/>
<polygon fill="midnightblue" stroke="midnightblue" points="2826.25,-154.88 2816.34,-158.63 2826.42,-161.88 2826.25,-154.88"/>
</g>
<!-- Node1271 -->
<g id="node33" class="node">
<title>Node1271</title>
<g id="a_node33"><a xlink:href="Constants_8cpp.html" target="_top" xlink:title="lib/IR/Constants.cpp">
<polygon fill="none" stroke="black" points="3518,-78.5 3518,-97.5 3625,-97.5 3625,-78.5 3518,-78.5"/>
<text text-anchor="middle" x="3571.5" y="-85.5" font-family="Helvetica,sans-Serif" font-size="10.00">lib/IR/Constants.cpp</text>
</a>
</g>
</g>
<!-- Node3&#45;&gt;Node1271 -->
<g id="edge34" class="edge">
<title>Node3&#45;&gt;Node1271</title>
<path fill="none" stroke="midnightblue" d="M2826.54,-160.29C2955.71,-160.79 3259.25,-156.3 3508.5,-109 3522.25,-106.39 3537.21,-101.73 3549.09,-97.56"/>
<polygon fill="midnightblue" stroke="midnightblue" points="2826.46,-156.79 2816.44,-160.24 2826.42,-163.79 2826.46,-156.79"/>
</g>
<!-- Node1272 -->
<g id="node34" class="node">
<title>Node1272</title>
<g id="a_node34"><a xlink:href="IR_2Core_8cpp.html" target="_top" xlink:title="lib/IR/Core.cpp">
<polygon fill="none" stroke="black" points="3643,-78.5 3643,-97.5 3726,-97.5 3726,-78.5 3643,-78.5"/>
<text text-anchor="middle" x="3684.5" y="-85.5" font-family="Helvetica,sans-Serif" font-size="10.00">lib/IR/Core.cpp</text>
</a>
</g>
</g>
<!-- Node3&#45;&gt;Node1272 -->
<g id="edge35" class="edge">
<title>Node3&#45;&gt;Node1272</title>
<path fill="none" stroke="midnightblue" d="M2826.44,-158.48C2999.58,-155.24 3480.38,-143.34 3634.5,-109 3645.63,-106.52 3657.51,-101.86 3666.89,-97.66"/>
<polygon fill="midnightblue" stroke="midnightblue" points="2826.15,-154.98 2816.21,-158.66 2826.28,-161.98 2826.15,-154.98"/>
</g>
<!-- Node1273 -->
<g id="node35" class="node">
<title>Node1273</title>
<g id="a_node35"><a xlink:href="LLVMContextImpl_8cpp.html" target="_top" xlink:title="lib/IR/LLVMContextImpl.cpp">
<polygon fill="none" stroke="black" points="3744.5,-78.5 3744.5,-97.5 3884.5,-97.5 3884.5,-78.5 3744.5,-78.5"/>
<text text-anchor="middle" x="3814.5" y="-85.5" font-family="Helvetica,sans-Serif" font-size="10.00">lib/IR/LLVMContextImpl.cpp</text>
</a>
</g>
</g>
<!-- Node3&#45;&gt;Node1273 -->
<g id="edge37" class="edge">
<title>Node3&#45;&gt;Node1273</title>
<path fill="none" stroke="midnightblue" d="M2826.35,-157.85C3012.52,-152.69 3559.12,-135.65 3735.5,-109 3752.57,-106.42 3771.31,-101.76 3786.25,-97.58"/>
<polygon fill="midnightblue" stroke="midnightblue" points="2826.08,-154.35 2816.18,-158.13 2826.27,-161.35 2826.08,-154.35"/>
</g>
<!-- Node1274 -->
<g id="node36" class="node">
<title>Node1274</title>
<g id="a_node36"><a xlink:href="PassRegistry_8cpp.html" target="_top" xlink:title="lib/IR/PassRegistry.cpp">
<polygon fill="none" stroke="black" points="3903,-78.5 3903,-97.5 4024,-97.5 4024,-78.5 3903,-78.5"/>
<text text-anchor="middle" x="3963.5" y="-85.5" font-family="Helvetica,sans-Serif" font-size="10.00">lib/IR/PassRegistry.cpp</text>
</a>
</g>
</g>
<!-- Node3&#45;&gt;Node1274 -->
<g id="edge38" class="edge">
<title>Node3&#45;&gt;Node1274</title>
<path fill="none" stroke="midnightblue" d="M2826.21,-158.62C3032,-155.45 3685.5,-142.88 3893.5,-109 3908.84,-106.5 3925.6,-101.79 3938.87,-97.56"/>
<polygon fill="midnightblue" stroke="midnightblue" points="2826.12,-155.13 2816.17,-158.78 2826.22,-162.12 2826.12,-155.13"/>
</g>
<!-- Node1275 -->
<g id="node37" class="node">
<title>Node1275</title>
<g id="a_node37"><a xlink:href="Object_2Error_8cpp.html" target="_top" xlink:title="lib/Object/Error.cpp">
<polygon fill="none" stroke="black" points="4042,-78.5 4042,-97.5 4143,-97.5 4143,-78.5 4042,-78.5"/>
<text text-anchor="middle" x="4092.5" y="-85.5" font-family="Helvetica,sans-Serif" font-size="10.00">lib/Object/Error.cpp</text>
</a>
</g>
</g>
<!-- Node3&#45;&gt;Node1275 -->
<g id="edge42" class="edge">
<title>Node3&#45;&gt;Node1275</title>
<path fill="none" stroke="midnightblue" d="M2826.39,-159.38C3048.88,-158.58 3798.03,-152.65 4033.5,-109 4046.69,-106.56 4060.94,-101.79 4072.14,-97.52"/>
<polygon fill="midnightblue" stroke="midnightblue" points="2826.18,-155.88 2816.19,-159.41 2826.2,-162.88 2826.18,-155.88"/>
</g>
<!-- Node1276 -->
<g id="node38" class="node">
<title>Node1276</title>
<g id="a_node38"><a xlink:href="CoverageMapping_8cpp.html" target="_top" xlink:title="lib/ProfileData/Coverage\l/CoverageMapping.cpp">
<polygon fill="none" stroke="black" points="4161,-73 4161,-103 4284,-103 4284,-73 4161,-73"/>
<text text-anchor="start" x="4169" y="-91" font-family="Helvetica,sans-Serif" font-size="10.00">lib/ProfileData/Coverage</text>
<text text-anchor="middle" x="4222.5" y="-80" font-family="Helvetica,sans-Serif" font-size="10.00">/CoverageMapping.cpp</text>
</a>
</g>
</g>
<!-- Node3&#45;&gt;Node1276 -->
<g id="edge43" class="edge">
<title>Node3&#45;&gt;Node1276</title>
<path fill="none" stroke="midnightblue" d="M2826.22,-159.23C3061.53,-157.91 3891.69,-150.37 4152.5,-109 4161.36,-107.59 4170.69,-105.43 4179.55,-103.04"/>
<polygon fill="midnightblue" stroke="midnightblue" points="2826.1,-155.73 2816.12,-159.29 2826.14,-162.73 2826.1,-155.73"/>
</g>
<!-- Node1277 -->
<g id="node39" class="node">
<title>Node1277</title>
<g id="a_node39"><a xlink:href="SampleProf_8cpp.html" target="_top" xlink:title="lib/ProfileData/SampleProf.cpp">
<polygon fill="none" stroke="black" points="4302,-78.5 4302,-97.5 4453,-97.5 4453,-78.5 4302,-78.5"/>
<text text-anchor="middle" x="4377.5" y="-85.5" font-family="Helvetica,sans-Serif" font-size="10.00">lib/ProfileData/SampleProf.cpp</text>
</a>
</g>
</g>
<!-- Node3&#45;&gt;Node1277 -->
<g id="edge45" class="edge">
<title>Node3&#45;&gt;Node1277</title>
<path fill="none" stroke="midnightblue" d="M2826.2,-159.11C3076.27,-157.29 4002.84,-148 4293.5,-109 4311.78,-106.55 4331.88,-101.84 4347.84,-97.6"/>
<polygon fill="midnightblue" stroke="midnightblue" points="2826.17,-155.61 2816.2,-159.18 2826.22,-162.61 2826.17,-155.61"/>
</g>
<!-- Node1278 -->
<g id="node40" class="node">
<title>Node1278</title>
<g id="a_node40"><a xlink:href="CrashRecoveryContext_8cpp.html" target="_top" xlink:title="lib/Support/CrashRecovery\lContext.cpp">
<polygon fill="none" stroke="black" points="4471.5,-73 4471.5,-103 4605.5,-103 4605.5,-73 4471.5,-73"/>
<text text-anchor="start" x="4479.5" y="-91" font-family="Helvetica,sans-Serif" font-size="10.00">lib/Support/CrashRecovery</text>
<text text-anchor="middle" x="4538.5" y="-80" font-family="Helvetica,sans-Serif" font-size="10.00">Context.cpp</text>
</a>
</g>
</g>
<!-- Node3&#45;&gt;Node1278 -->
<g id="edge47" class="edge">
<title>Node3&#45;&gt;Node1278</title>
<path fill="none" stroke="midnightblue" d="M2826.38,-159.54C3093.77,-159.44 4137.54,-155.96 4462.5,-109 4472.09,-107.61 4482.2,-105.46 4491.82,-103.07"/>
<polygon fill="midnightblue" stroke="midnightblue" points="2826.08,-156.04 2816.08,-159.55 2826.08,-163.04 2826.08,-156.04"/>
</g>
<!-- Node1279 -->
<g id="node41" class="node">
<title>Node1279</title>
<g id="a_node41"><a xlink:href="DynamicLibrary_8cpp.html" target="_top" xlink:title="lib/Support/DynamicLibrary.cpp">
<polygon fill="none" stroke="black" points="4624,-78.5 4624,-97.5 4777,-97.5 4777,-78.5 4624,-78.5"/>
<text text-anchor="middle" x="4700.5" y="-85.5" font-family="Helvetica,sans-Serif" font-size="10.00">lib/Support/DynamicLibrary.cpp</text>
</a>
</g>
</g>
<!-- Node3&#45;&gt;Node1279 -->
<g id="edge50" class="edge">
<title>Node3&#45;&gt;Node1279</title>
<path fill="none" stroke="midnightblue" d="M2826.36,-159.48C3108.23,-159.14 4257.42,-154.92 4614.5,-109 4633.35,-106.58 4654.12,-101.81 4670.52,-97.54"/>
<polygon fill="midnightblue" stroke="midnightblue" points="2826.31,-155.98 2816.31,-159.49 2826.32,-162.98 2826.31,-155.98"/>
</g>
<!-- Node1280 -->
<g id="node42" class="node">
<title>Node1280</title>
<g id="a_node42"><a xlink:href="Testing_2Support_2Error_8cpp.html" target="_top" xlink:title="lib/Testing/Support\l/Error.cpp">
<polygon fill="none" stroke="black" points="4795.5,-73 4795.5,-103 4893.5,-103 4893.5,-73 4795.5,-73"/>
<text text-anchor="start" x="4803.5" y="-91" font-family="Helvetica,sans-Serif" font-size="10.00">lib/Testing/Support</text>
<text text-anchor="middle" x="4844.5" y="-80" font-family="Helvetica,sans-Serif" font-size="10.00">/Error.cpp</text>
</a>
</g>
</g>
<!-- Node3&#45;&gt;Node1280 -->
<g id="edge51" class="edge">
<title>Node3&#45;&gt;Node1280</title>
<path fill="none" stroke="midnightblue" d="M2826.22,-159.08C3146.28,-156.77 4589.94,-144.47 4786.5,-109 4794.05,-107.64 4801.94,-105.46 4809.38,-103.03"/>
<polygon fill="midnightblue" stroke="midnightblue" points="2826.17,-155.58 2816.2,-159.15 2826.22,-162.58 2826.17,-155.58"/>
</g>
<!-- Node1281 -->
<g id="node43" class="node">
<title>Node1281</title>
<g id="a_node43"><a xlink:href="InitLLVM_8cpp.html" target="_top" xlink:title="lib/Support/InitLLVM.cpp">
<polygon fill="none" stroke="black" points="4911.5,-78.5 4911.5,-97.5 5035.5,-97.5 5035.5,-78.5 4911.5,-78.5"/>
<text text-anchor="middle" x="4973.5" y="-85.5" font-family="Helvetica,sans-Serif" font-size="10.00">lib/Support/InitLLVM.cpp</text>
</a>
</g>
</g>
<!-- Node3&#45;&gt;Node1281 -->
<g id="edge52" class="edge">
<title>Node3&#45;&gt;Node1281</title>
<path fill="none" stroke="midnightblue" d="M2826.51,-158.95C3158.03,-155.96 4692.98,-140.47 4902.5,-109 4918.2,-106.64 4935.35,-101.88 4948.86,-97.59"/>
<polygon fill="midnightblue" stroke="midnightblue" points="2826.11,-155.46 2816.14,-159.05 2826.17,-162.46 2826.11,-155.46"/>
</g>
<!-- Node1282 -->
<g id="node44" class="node">
<title>Node1282</title>
<g id="a_node44"><a xlink:href="ManagedStatic_8cpp.html" target="_top" xlink:title="lib/Support/ManagedStatic.cpp">
<polygon fill="none" stroke="black" points="5053.5,-78.5 5053.5,-97.5 5203.5,-97.5 5203.5,-78.5 5053.5,-78.5"/>
<text text-anchor="middle" x="5128.5" y="-85.5" font-family="Helvetica,sans-Serif" font-size="10.00">lib/Support/ManagedStatic.cpp</text>
</a>
</g>
</g>
<!-- Node3&#45;&gt;Node1282 -->
<g id="edge53" class="edge">
<title>Node3&#45;&gt;Node1282</title>
<path fill="none" stroke="midnightblue" d="M2826.22,-158.9C3170.09,-155.53 4819.47,-137.95 5044.5,-109 5062.94,-106.63 5083.22,-101.86 5099.24,-97.58"/>
<polygon fill="midnightblue" stroke="midnightblue" points="2826.15,-155.4 2816.19,-159 2826.22,-162.4 2826.15,-155.4"/>
</g>
<!-- Node1283 -->
<g id="node45" class="node">
<title>Node1283</title>
<g id="a_node45"><a xlink:href="Parallel_8cpp.html" target="_top" xlink:title="lib/Support/Parallel.cpp">
<polygon fill="none" stroke="black" points="5222,-78.5 5222,-97.5 5339,-97.5 5339,-78.5 5222,-78.5"/>
<text text-anchor="middle" x="5280.5" y="-85.5" font-family="Helvetica,sans-Serif" font-size="10.00">lib/Support/Parallel.cpp</text>
</a>
</g>
</g>
<!-- Node3&#45;&gt;Node1283 -->
<g id="edge54" class="edge">
<title>Node3&#45;&gt;Node1283</title>
<path fill="none" stroke="midnightblue" d="M2826.47,-159.2C3185.93,-157.35 4970.8,-146.35 5212.5,-109 5227.7,-106.65 5244.27,-101.83 5257.25,-97.51"/>
<polygon fill="midnightblue" stroke="midnightblue" points="2826.24,-155.7 2816.25,-159.25 2826.27,-162.7 2826.24,-155.7"/>
</g>
<!-- Node1006 -->
<g id="node46" class="node">
<title>Node1006</title>
<g id="a_node46"><a xlink:href="PluginLoader_8cpp.html" target="_top" xlink:title="lib/Support/PluginLoader.cpp">
<polygon fill="none" stroke="black" points="5357,-78.5 5357,-97.5 5498,-97.5 5498,-78.5 5357,-78.5"/>
<text text-anchor="middle" x="5427.5" y="-85.5" font-family="Helvetica,sans-Serif" font-size="10.00">lib/Support/PluginLoader.cpp</text>
</a>
</g>
</g>
<!-- Node3&#45;&gt;Node1006 -->
<g id="edge55" class="edge">
<title>Node3&#45;&gt;Node1006</title>
<path fill="none" stroke="midnightblue" d="M2826.34,-159.13C3197.14,-156.84 5091.84,-143.53 5348.5,-109 5365.89,-106.66 5384.97,-101.9 5400.02,-97.6"/>
<polygon fill="midnightblue" stroke="midnightblue" points="2826.05,-155.63 2816.07,-159.19 2826.09,-162.63 2826.05,-155.63"/>
</g>
<!-- Node1284 -->
<g id="node47" class="node">
<title>Node1284</title>
<g id="a_node47"><a xlink:href="Unix_2Process_8inc.html" target="_top" xlink:title="lib/Support/Unix/Process.inc">
<polygon fill="none" stroke="red" points="5516,-78.5 5516,-97.5 5657,-97.5 5657,-78.5 5516,-78.5"/>
<text text-anchor="middle" x="5586.5" y="-85.5" font-family="Helvetica,sans-Serif" font-size="10.00">lib/Support/Unix/Process.inc</text>
</a>
</g>
</g>
<!-- Node3&#45;&gt;Node1284 -->
<g id="edge56" class="edge">
<title>Node3&#45;&gt;Node1284</title>
<path fill="none" stroke="midnightblue" d="M2826.2,-159.21C3209.93,-157.31 5234.09,-145.63 5507.5,-109 5525.03,-106.65 5544.27,-101.83 5559.38,-97.51"/>
<polygon fill="midnightblue" stroke="midnightblue" points="2826.1,-155.71 2816.11,-159.26 2826.13,-162.71 2826.1,-155.71"/>
</g>
<!-- Node1286 -->
<g id="node48" class="node">
<title>Node1286</title>
<g id="a_node48"><a xlink:href="NVPTXUtilities_8cpp.html" target="_top" xlink:title="lib/Target/NVPTX/NVPTXUtilities.cpp">
<polygon fill="none" stroke="black" points="5675.5,-78.5 5675.5,-97.5 5857.5,-97.5 5857.5,-78.5 5675.5,-78.5"/>
<text text-anchor="middle" x="5766.5" y="-85.5" font-family="Helvetica,sans-Serif" font-size="10.00">lib/Target/NVPTX/NVPTXUtilities.cpp</text>
</a>
</g>
</g>
<!-- Node3&#45;&gt;Node1286 -->
<g id="edge60" class="edge">
<title>Node3&#45;&gt;Node1286</title>
<path fill="none" stroke="midnightblue" d="M2826.29,-159.09C3223.11,-156.39 5375.51,-140.37 5666.5,-109 5688.33,-106.65 5712.47,-101.88 5731.57,-97.59"/>
<polygon fill="midnightblue" stroke="midnightblue" points="2826.13,-155.59 2816.15,-159.16 2826.18,-162.59 2826.13,-155.59"/>
</g>
<!-- Node889 -->
<g id="node49" class="node">
<title>Node889</title>
<g id="a_node49"><a xlink:href="WebAssemblyRuntimeLibcallSignatures_8cpp.html" target="_top" xlink:title="This file contains signature information for runtime libcalls. ">
<polygon fill="none" stroke="black" points="5876,-73 5876,-103 6089,-103 6089,-73 5876,-73"/>
<text text-anchor="start" x="5884" y="-91" font-family="Helvetica,sans-Serif" font-size="10.00">lib/Target/WebAssembly</text>
<text text-anchor="middle" x="5982.5" y="-80" font-family="Helvetica,sans-Serif" font-size="10.00">/WebAssemblyRuntimeLibcallSignatures.cpp</text>
</a>
</g>
</g>
<!-- Node3&#45;&gt;Node889 -->
<g id="edge61" class="edge">
<title>Node3&#45;&gt;Node889</title>
<path fill="none" stroke="midnightblue" d="M2826.29,-159.06C3238.8,-156.11 5553.96,-138.31 5866.5,-109 5881.15,-107.63 5896.73,-105.44 5911.57,-103.01"/>
<polygon fill="midnightblue" stroke="midnightblue" points="2826.02,-155.56 2816.05,-159.14 2826.07,-162.56 2826.02,-155.56"/>
</g>
<!-- Node897 -->
<g id="node50" class="node">
<title>Node897</title>
<g id="a_node50"><a xlink:href="X86InstrFMA3Info_8cpp.html" target="_top" xlink:title="lib/Target/X86/X86InstrFMA3\lInfo.cpp">
<polygon fill="none" stroke="black" points="6107,-73 6107,-103 6250,-103 6250,-73 6107,-73"/>
<text text-anchor="start" x="6115" y="-91" font-family="Helvetica,sans-Serif" font-size="10.00">lib/Target/X86/X86InstrFMA3</text>
<text text-anchor="middle" x="6178.5" y="-80" font-family="Helvetica,sans-Serif" font-size="10.00">Info.cpp</text>
</a>
</g>
</g>
<!-- Node3&#45;&gt;Node897 -->
<g id="edge62" class="edge">
<title>Node3&#45;&gt;Node897</title>
<path fill="none" stroke="midnightblue" d="M2826.2,-159.42C3256.21,-158.74 5762.74,-152.92 6098.5,-109 6108.72,-107.66 6119.52,-105.5 6129.76,-103.07"/>
<polygon fill="midnightblue" stroke="midnightblue" points="2826.13,-155.92 2816.13,-159.43 2826.14,-162.92 2826.13,-155.92"/>
</g>
<!-- Node5 -->
<g id="node3" class="node">
<title>Node5</title>
<g id="a_node3"><a xlink:href="Loads_8h.html" target="_top" xlink:title="include/llvm/Analysis\l/Loads.h">
<polygon fill="none" stroke="red" points="779,-0.5 779,-30.5 888,-30.5 888,-0.5 779,-0.5"/>
<text text-anchor="start" x="787" y="-18.5" font-family="Helvetica,sans-Serif" font-size="10.00">include/llvm/Analysis</text>
<text text-anchor="middle" x="833.5" y="-7.5" font-family="Helvetica,sans-Serif" font-size="10.00">/Loads.h</text>
</a>
</g>
</g>
<!-- Node4&#45;&gt;Node5 -->
<g id="edge2" class="edge">
<title>Node4&#45;&gt;Node5</title>
<path fill="none" stroke="midnightblue" d="M1058.01,-71.65C1007.36,-59.21 936.69,-41.85 888.25,-29.95"/>
<polygon fill="midnightblue" stroke="midnightblue" points="1057.31,-75.08 1067.86,-74.07 1058.98,-68.28 1057.31,-75.08"/>
</g>
<!-- Node29 -->
<g id="node4" class="node">
<title>Node29</title>
<g id="a_node4"><a xlink:href="MemorySSA_8h.html" target="_top" xlink:title="This file exposes an interface to building/using memory SSA to walk memory instructions using a use/d...">
<polygon fill="none" stroke="red" points="906,-0.5 906,-30.5 1015,-30.5 1015,-0.5 906,-0.5"/>
<text text-anchor="start" x="914" y="-18.5" font-family="Helvetica,sans-Serif" font-size="10.00">include/llvm/Analysis</text>
<text text-anchor="middle" x="960.5" y="-7.5" font-family="Helvetica,sans-Serif" font-size="10.00">/MemorySSA.h</text>
</a>
</g>
</g>
<!-- Node4&#45;&gt;Node29 -->
<g id="edge3" class="edge">
<title>Node4&#45;&gt;Node29</title>
<path fill="none" stroke="midnightblue" d="M1079.29,-68.84C1052.24,-56.92 1017.39,-41.57 992.44,-30.57"/>
<polygon fill="midnightblue" stroke="midnightblue" points="1077.94,-72.07 1088.51,-72.9 1080.77,-65.67 1077.94,-72.07"/>
</g>
<!-- Node44 -->
<g id="node5" class="node">
<title>Node44</title>
<g id="a_node5"><a xlink:href="BasicTTIImpl_8h.html" target="_top" xlink:title="This file provides a helper that implements much of the TTI interface in terms of the target&#45;independ...">
<polygon fill="none" stroke="red" points="1033,-0.5 1033,-30.5 1146,-30.5 1146,-0.5 1033,-0.5"/>
<text text-anchor="start" x="1041" y="-18.5" font-family="Helvetica,sans-Serif" font-size="10.00">include/llvm/CodeGen</text>
<text text-anchor="middle" x="1089.5" y="-7.5" font-family="Helvetica,sans-Serif" font-size="10.00">/BasicTTIImpl.h</text>
</a>
</g>
</g>
<!-- Node4&#45;&gt;Node44 -->
<g id="edge4" class="edge">
<title>Node4&#45;&gt;Node44</title>
<path fill="none" stroke="midnightblue" d="M1110.12,-63.4C1105.36,-52.58 1099.88,-40.11 1095.76,-30.75"/>
<polygon fill="midnightblue" stroke="midnightblue" points="1107,-64.99 1114.23,-72.73 1113.41,-62.17 1107,-64.99"/>
</g>
<!-- Node4&#45;&gt;Node1111 -->
<g id="edge5" class="edge">
<title>Node4&#45;&gt;Node1111</title>
<path fill="none" stroke="midnightblue" d="M1057.9,-87.38C899,-87.5 467.42,-82.62 112.5,-31 109.48,-30.56 106.4,-30.05 103.29,-29.47"/>
<polygon fill="midnightblue" stroke="midnightblue" points="1057.98,-90.88 1067.97,-87.36 1057.97,-83.88 1057.98,-90.88"/>
</g>
<!-- Node4&#45;&gt;Node1112 -->
<g id="edge6" class="edge">
<title>Node4&#45;&gt;Node1112</title>
<path fill="none" stroke="midnightblue" d="M1057.7,-86.51C912.64,-84.63 543.38,-75.46 238.5,-31 235.61,-30.58 232.66,-30.09 229.69,-29.56"/>
<polygon fill="midnightblue" stroke="midnightblue" points="1057.71,-90.01 1067.75,-86.64 1057.79,-83.01 1057.71,-90.01"/>
</g>
<!-- Node4&#45;&gt;Node994 -->
<g id="edge7" class="edge">
<title>Node4&#45;&gt;Node994</title>
<path fill="none" stroke="midnightblue" d="M1057.71,-83.91C933.68,-77.41 648.62,-60.41 410.5,-31 397.43,-29.39 383.31,-27.19 370.36,-25"/>
<polygon fill="midnightblue" stroke="midnightblue" points="1057.62,-87.41 1067.79,-84.44 1057.98,-80.42 1057.62,-87.41"/>
</g>
<!-- Node4&#45;&gt;Node1134 -->
<g id="edge8" class="edge">
<title>Node4&#45;&gt;Node1134</title>
<path fill="none" stroke="midnightblue" d="M1057.98,-82.7C953.97,-75.12 738.98,-57.61 558.5,-31 547.36,-29.36 535.36,-27.18 524.32,-25.02"/>
<polygon fill="midnightblue" stroke="midnightblue" points="1057.77,-86.2 1068,-83.43 1058.28,-79.22 1057.77,-86.2"/>
</g>
<!-- Node4&#45;&gt;Node1137 -->
<g id="edge9" class="edge">
<title>Node4&#45;&gt;Node1137</title>
<path fill="none" stroke="midnightblue" d="M1057.73,-82.33C969.05,-75.06 802.3,-58.87 662.5,-31 654.5,-29.41 645.94,-27.22 638.11,-25.03"/>
<polygon fill="midnightblue" stroke="midnightblue" points="1057.64,-85.84 1067.89,-83.15 1058.21,-78.86 1057.64,-85.84"/>
</g>
<!-- Node4&#45;&gt;Node164 -->
<g id="edge10" class="edge">
<title>Node4&#45;&gt;Node164</title>
<path fill="none" stroke="midnightblue" d="M1057.78,-79.09C987.27,-69.71 869.53,-52.6 769.5,-31 761.67,-29.31 753.27,-27.17 745.52,-25.05"/>
<polygon fill="midnightblue" stroke="midnightblue" points="1057.47,-82.58 1067.84,-80.42 1058.38,-75.64 1057.47,-82.58"/>
</g>
<!-- Node4&#45;&gt;Node1143 -->
<g id="edge11" class="edge">
<title>Node4&#45;&gt;Node1143</title>
<path fill="none" stroke="midnightblue" d="M1151.62,-67.41C1173.73,-53.49 1202.35,-35.48 1218.94,-25.03"/>
<polygon fill="midnightblue" stroke="midnightblue" points="1149.49,-64.61 1142.9,-72.9 1153.22,-70.54 1149.49,-64.61"/>
</g>
<!-- Node4&#45;&gt;Node1145 -->
<g id="edge12" class="edge">
<title>Node4&#45;&gt;Node1145</title>
<path fill="none" stroke="midnightblue" d="M1183.16,-70.82C1238.32,-56.57 1316.49,-36.39 1360.35,-25.06"/>
<polygon fill="midnightblue" stroke="midnightblue" points="1181.94,-67.52 1173.14,-73.41 1183.69,-74.3 1181.94,-67.52"/>
</g>
<!-- Node4&#45;&gt;Node1146 -->
<g id="edge13" class="edge">
<title>Node4&#45;&gt;Node1146</title>
<path fill="none" stroke="midnightblue" d="M1183.31,-78.29C1254.59,-68.13 1374.24,-50.26 1476.5,-31 1485.95,-29.22 1496.12,-27.09 1505.58,-25.02"/>
<polygon fill="midnightblue" stroke="midnightblue" points="1182.56,-74.86 1173.15,-79.73 1183.54,-81.79 1182.56,-74.86"/>
</g>
<!-- Node4&#45;&gt;Node998 -->
<g id="edge14" class="edge">
<title>Node4&#45;&gt;Node998</title>
<path fill="none" stroke="midnightblue" d="M1183.45,-80.97C1276.55,-71.78 1456.37,-53 1608.5,-31 1620.52,-29.26 1633.47,-27.13 1645.48,-25.04"/>
<polygon fill="midnightblue" stroke="midnightblue" points="1182.96,-77.5 1173.35,-81.96 1183.64,-84.47 1182.96,-77.5"/>
</g>
<!-- Node4&#45;&gt;Node1149 -->
<g id="edge15" class="edge">
<title>Node4&#45;&gt;Node1149</title>
<path fill="none" stroke="midnightblue" d="M1183.17,-81.85C1341.22,-68.82 1745.53,-35.31 1774.5,-31 1785.01,-29.44 1796.33,-27.23 1806.66,-25.02"/>
<polygon fill="midnightblue" stroke="midnightblue" points="1182.8,-78.36 1173.13,-82.67 1183.38,-85.34 1182.8,-78.36"/>
</g>
<!-- Node4&#45;&gt;Node1150 -->
<g id="edge16" class="edge">
<title>Node4&#45;&gt;Node1150</title>
<path fill="none" stroke="midnightblue" d="M1183.32,-82.6C1368.76,-69.62 1901.51,-32.26 1910.5,-31 1921.29,-29.49 1932.92,-27.28 1943.49,-25.03"/>
<polygon fill="midnightblue" stroke="midnightblue" points="1182.91,-79.12 1173.18,-83.31 1183.4,-86.11 1182.91,-79.12"/>
</g>
<!-- Node4&#45;&gt;Node1152 -->
<g id="edge17" class="edge">
<title>Node4&#45;&gt;Node1152</title>
<path fill="none" stroke="midnightblue" d="M1183.19,-83.12C1248.82,-79.07 1354.9,-72.54 1446.5,-67 1714.49,-50.78 1783.7,-68.79 2049.5,-31 2059.65,-29.56 2070.58,-27.34 2080.47,-25.06"/>
<polygon fill="midnightblue" stroke="midnightblue" points="1182.77,-79.64 1173.01,-83.75 1183.2,-86.63 1182.77,-79.64"/>
</g>
<!-- Node4&#45;&gt;Node171 -->
<g id="edge18" class="edge">
<title>Node4&#45;&gt;Node171</title>
<path fill="none" stroke="midnightblue" d="M1183.58,-83.48C1256.16,-79.44 1378.93,-72.64 1484.5,-67 1792.48,-50.54 1871.45,-69.14 2177.5,-31 2180.45,-30.63 2183.46,-30.21 2186.49,-29.76"/>
<polygon fill="midnightblue" stroke="midnightblue" points="1183.03,-80 1173.24,-84.05 1183.42,-86.99 1183.03,-80"/>
</g>
</g>
</svg>
