<?xml version="1.0" encoding="UTF-8" standalone="no"?>
<!DOCTYPE svg PUBLIC "-//W3C//DTD SVG 1.1//EN"
 "http://www.w3.org/Graphics/SVG/1.1/DTD/svg11.dtd">
<!-- Generated by graphviz version 2.43.0 (0)
 -->
<!-- Title: lib/Target/NVPTX/ManagedStringPool.h Pages: 1 -->
<svg width="1734pt" height="430pt"
 viewBox="0.00 0.00 1734.00 430.00" xmlns="http://www.w3.org/2000/svg" xmlns:xlink="http://www.w3.org/1999/xlink">
<g id="graph0" class="graph" transform="scale(1 1) rotate(0) translate(4 426)">
<title>lib/Target/NVPTX/ManagedStringPool.h</title>
<!-- Node33 -->
<g id="node1" class="node">
<title>Node33</title>
<polygon fill="#bfbfbf" stroke="black" points="776.5,-391.5 776.5,-421.5 913.5,-421.5 913.5,-391.5 776.5,-391.5"/>
<text text-anchor="start" x="784.5" y="-409.5" font-family="Helvetica,sans-Serif" font-size="10.00">lib/Target/NVPTX/Managed</text>
<text text-anchor="middle" x="845" y="-398.5" font-family="Helvetica,sans-Serif" font-size="10.00">StringPool.h</text>
</g>
<!-- Node34 -->
<g id="node2" class="node">
<title>Node34</title>
<g id="a_node2"><a xlink:href="NVPTXRegisterInfo_8h.html" target="_top" xlink:title="lib/Target/NVPTX/NVPTXRegister\lInfo.h">
<polygon fill="none" stroke="black" points="1069.5,-324.5 1069.5,-354.5 1236.5,-354.5 1236.5,-324.5 1069.5,-324.5"/>
<text text-anchor="start" x="1077.5" y="-342.5" font-family="Helvetica,sans-Serif" font-size="10.00">lib/Target/NVPTX/NVPTXRegister</text>
<text text-anchor="middle" x="1153" y="-331.5" font-family="Helvetica,sans-Serif" font-size="10.00">Info.h</text>
</a>
</g>
</g>
<!-- Node33&#45;&gt;Node34 -->
<g id="edge1" class="edge">
<title>Node33&#45;&gt;Node34</title>
<path fill="none" stroke="midnightblue" d="M921.37,-389.38C972.03,-378.69 1037.87,-364.8 1086.4,-354.55"/>
<polygon fill="midnightblue" stroke="midnightblue" points="920.51,-385.99 911.45,-391.48 921.96,-392.84 920.51,-385.99"/>
</g>
<!-- Node39 -->
<g id="node7" class="node">
<title>Node39</title>
<g id="a_node7"><a xlink:href="NVPTXTargetMachine_8h.html" target="_top" xlink:title="lib/Target/NVPTX/NVPTXTarget\lMachine.h">
<polygon fill="none" stroke="black" points="769,-134.5 769,-164.5 927,-164.5 927,-134.5 769,-134.5"/>
<text text-anchor="start" x="777" y="-152.5" font-family="Helvetica,sans-Serif" font-size="10.00">lib/Target/NVPTX/NVPTXTarget</text>
<text text-anchor="middle" x="848" y="-141.5" font-family="Helvetica,sans-Serif" font-size="10.00">Machine.h</text>
</a>
</g>
</g>
<!-- Node33&#45;&gt;Node39 -->
<g id="edge33" class="edge">
<title>Node33&#45;&gt;Node39</title>
<path fill="none" stroke="midnightblue" d="M845.28,-381.37C845.9,-328.95 847.35,-206.1 847.83,-164.53"/>
<polygon fill="midnightblue" stroke="midnightblue" points="841.78,-381.39 845.17,-391.43 848.78,-381.47 841.78,-381.39"/>
</g>
<!-- Node35 -->
<g id="node3" class="node">
<title>Node35</title>
<g id="a_node3"><a xlink:href="NVPTXInstrInfo_8h.html" target="_top" xlink:title="lib/Target/NVPTX/NVPTXInstr\lInfo.h">
<polygon fill="none" stroke="black" points="975,-257.5 975,-287.5 1125,-287.5 1125,-257.5 975,-257.5"/>
<text text-anchor="start" x="983" y="-275.5" font-family="Helvetica,sans-Serif" font-size="10.00">lib/Target/NVPTX/NVPTXInstr</text>
<text text-anchor="middle" x="1050" y="-264.5" font-family="Helvetica,sans-Serif" font-size="10.00">Info.h</text>
</a>
</g>
</g>
<!-- Node34&#45;&gt;Node35 -->
<g id="edge2" class="edge">
<title>Node34&#45;&gt;Node35</title>
<path fill="none" stroke="midnightblue" d="M1122.12,-319.02C1106.1,-308.9 1086.87,-296.77 1072.31,-287.58"/>
<polygon fill="midnightblue" stroke="midnightblue" points="1120.33,-322.02 1130.65,-324.4 1124.06,-316.1 1120.33,-322.02"/>
</g>
<!-- Node36 -->
<g id="node4" class="node">
<title>Node36</title>
<g id="a_node4"><a xlink:href="NVPTXSubtarget_8h.html" target="_top" xlink:title="lib/Target/NVPTX/NVPTXSubtarget.h">
<polygon fill="none" stroke="black" points="1022.5,-201.5 1022.5,-220.5 1203.5,-220.5 1203.5,-201.5 1022.5,-201.5"/>
<text text-anchor="middle" x="1113" y="-208.5" font-family="Helvetica,sans-Serif" font-size="10.00">lib/Target/NVPTX/NVPTXSubtarget.h</text>
</a>
</g>
</g>
<!-- Node34&#45;&gt;Node36 -->
<g id="edge28" class="edge">
<title>Node34&#45;&gt;Node36</title>
<path fill="none" stroke="midnightblue" d="M1148.77,-314.53C1145.55,-298.09 1140.54,-275.92 1134,-257 1129.49,-243.96 1122.42,-229.64 1117.74,-220.74"/>
<polygon fill="midnightblue" stroke="midnightblue" points="1145.34,-315.23 1150.64,-324.41 1152.22,-313.93 1145.34,-315.23"/>
</g>
<!-- Node38 -->
<g id="node6" class="node">
<title>Node38</title>
<g id="a_node6"><a xlink:href="NVPTXAsmPrinter_8cpp.html" target="_top" xlink:title="lib/Target/NVPTX/NVPTXAsm\lPrinter.cpp">
<polygon fill="none" stroke="black" points="806.5,-0.5 806.5,-30.5 957.5,-30.5 957.5,-0.5 806.5,-0.5"/>
<text text-anchor="start" x="814.5" y="-18.5" font-family="Helvetica,sans-Serif" font-size="10.00">lib/Target/NVPTX/NVPTXAsm</text>
<text text-anchor="middle" x="882" y="-7.5" font-family="Helvetica,sans-Serif" font-size="10.00">Printer.cpp</text>
</a>
</g>
</g>
<!-- Node34&#45;&gt;Node38 -->
<g id="edge29" class="edge">
<title>Node34&#45;&gt;Node38</title>
<path fill="none" stroke="midnightblue" d="M1246.79,-327.57C1364.17,-311.23 1550,-275.35 1550,-212 1550,-212 1550,-212 1550,-148.5 1550,-108.15 1543.36,-89.7 1510,-67 1465.26,-36.56 1114.49,-23.01 957.5,-18.42"/>
<polygon fill="midnightblue" stroke="midnightblue" points="1246.14,-324.13 1236.71,-328.95 1247.09,-331.06 1246.14,-324.13"/>
</g>
<!-- Node40 -->
<g id="node8" class="node">
<title>Node40</title>
<g id="a_node8"><a xlink:href="NVPTXFrameLowering_8cpp.html" target="_top" xlink:title="lib/Target/NVPTX/NVPTXFrame\lLowering.cpp">
<polygon fill="none" stroke="black" points="0,-67.5 0,-97.5 158,-97.5 158,-67.5 0,-67.5"/>
<text text-anchor="start" x="8" y="-85.5" font-family="Helvetica,sans-Serif" font-size="10.00">lib/Target/NVPTX/NVPTXFrame</text>
<text text-anchor="middle" x="79" y="-74.5" font-family="Helvetica,sans-Serif" font-size="10.00">Lowering.cpp</text>
</a>
</g>
</g>
<!-- Node34&#45;&gt;Node40 -->
<g id="edge30" class="edge">
<title>Node34&#45;&gt;Node40</title>
<path fill="none" stroke="midnightblue" d="M1083.76,-322.06C886.23,-275.16 322.4,-141.29 138.09,-97.53"/>
<polygon fill="midnightblue" stroke="midnightblue" points="1083.19,-325.52 1093.73,-324.43 1084.81,-318.71 1083.19,-325.52"/>
</g>
<!-- Node42 -->
<g id="node10" class="node">
<title>Node42</title>
<g id="a_node10"><a xlink:href="NVPTXISelDAGToDAG_8h.html" target="_top" xlink:title="lib/Target/NVPTX/NVPTXISel\lDAGToDAG.h">
<polygon fill="none" stroke="black" points="1578,-67.5 1578,-97.5 1726,-97.5 1726,-67.5 1578,-67.5"/>
<text text-anchor="start" x="1586" y="-85.5" font-family="Helvetica,sans-Serif" font-size="10.00">lib/Target/NVPTX/NVPTXISel</text>
<text text-anchor="middle" x="1652" y="-74.5" font-family="Helvetica,sans-Serif" font-size="10.00">DAGToDAG.h</text>
</a>
</g>
</g>
<!-- Node34&#45;&gt;Node42 -->
<g id="edge31" class="edge">
<title>Node34&#45;&gt;Node42</title>
<path fill="none" stroke="midnightblue" d="M1246.67,-337.58C1352.23,-334.75 1515.45,-324.4 1564,-288 1628.17,-239.89 1646.13,-135.42 1650.63,-97.56"/>
<polygon fill="midnightblue" stroke="midnightblue" points="1246.55,-334.09 1236.64,-337.83 1246.72,-341.08 1246.55,-334.09"/>
</g>
<!-- Node51 -->
<g id="node19" class="node">
<title>Node51</title>
<g id="a_node19"><a xlink:href="NVPTXRegisterInfo_8cpp.html" target="_top" xlink:title="lib/Target/NVPTX/NVPTXRegister\lInfo.cpp">
<polygon fill="none" stroke="black" points="1355.5,-134.5 1355.5,-164.5 1522.5,-164.5 1522.5,-134.5 1355.5,-134.5"/>
<text text-anchor="start" x="1363.5" y="-152.5" font-family="Helvetica,sans-Serif" font-size="10.00">lib/Target/NVPTX/NVPTXRegister</text>
<text text-anchor="middle" x="1439" y="-141.5" font-family="Helvetica,sans-Serif" font-size="10.00">Info.cpp</text>
</a>
</g>
</g>
<!-- Node34&#45;&gt;Node51 -->
<g id="edge32" class="edge">
<title>Node34&#45;&gt;Node51</title>
<path fill="none" stroke="midnightblue" d="M1182.86,-318.87C1240.81,-280.78 1367.25,-197.67 1417.64,-164.54"/>
<polygon fill="midnightblue" stroke="midnightblue" points="1180.93,-315.95 1174.5,-324.37 1184.78,-321.8 1180.93,-315.95"/>
</g>
<!-- Node35&#45;&gt;Node36 -->
<g id="edge3" class="edge">
<title>Node35&#45;&gt;Node36</title>
<path fill="none" stroke="midnightblue" d="M1072.45,-250.3C1083.26,-240.09 1095.63,-228.41 1103.83,-220.66"/>
<polygon fill="midnightblue" stroke="midnightblue" points="1069.8,-247.99 1064.93,-257.4 1074.6,-253.08 1069.8,-247.99"/>
</g>
<!-- Node41 -->
<g id="node9" class="node">
<title>Node41</title>
<g id="a_node9"><a xlink:href="NVPTXInstrInfo_8cpp.html" target="_top" xlink:title="lib/Target/NVPTX/NVPTXInstr\lInfo.cpp">
<polygon fill="none" stroke="black" points="176,-67.5 176,-97.5 326,-97.5 326,-67.5 176,-67.5"/>
<text text-anchor="start" x="184" y="-85.5" font-family="Helvetica,sans-Serif" font-size="10.00">lib/Target/NVPTX/NVPTXInstr</text>
<text text-anchor="middle" x="251" y="-74.5" font-family="Helvetica,sans-Serif" font-size="10.00">Info.cpp</text>
</a>
</g>
</g>
<!-- Node35&#45;&gt;Node41 -->
<g id="edge27" class="edge">
<title>Node35&#45;&gt;Node41</title>
<path fill="none" stroke="midnightblue" d="M1006.79,-253.65C933.08,-223.96 777.76,-164.68 641,-134 507.38,-104.02 470.52,-117.65 335,-98 332.07,-97.58 329.09,-97.13 326.07,-96.67"/>
<polygon fill="midnightblue" stroke="midnightblue" points="1005.63,-256.96 1016.21,-257.46 1008.25,-250.47 1005.63,-256.96"/>
</g>
<!-- Node37 -->
<g id="node5" class="node">
<title>Node37</title>
<g id="a_node5"><a xlink:href="NVPTXAsmPrinter_8h.html" target="_top" xlink:title="lib/Target/NVPTX/NVPTXAsm\lPrinter.h">
<polygon fill="none" stroke="black" points="772.5,-67.5 772.5,-97.5 923.5,-97.5 923.5,-67.5 772.5,-67.5"/>
<text text-anchor="start" x="780.5" y="-85.5" font-family="Helvetica,sans-Serif" font-size="10.00">lib/Target/NVPTX/NVPTXAsm</text>
<text text-anchor="middle" x="848" y="-74.5" font-family="Helvetica,sans-Serif" font-size="10.00">Printer.h</text>
</a>
</g>
</g>
<!-- Node36&#45;&gt;Node37 -->
<g id="edge4" class="edge">
<title>Node36&#45;&gt;Node37</title>
<path fill="none" stroke="midnightblue" d="M1085.53,-196.89C1035.4,-172.96 929.46,-122.39 877.71,-97.68"/>
<polygon fill="midnightblue" stroke="midnightblue" points="1084.25,-200.16 1094.79,-201.31 1087.27,-193.84 1084.25,-200.16"/>
</g>
<!-- Node36&#45;&gt;Node38 -->
<g id="edge21" class="edge">
<title>Node36&#45;&gt;Node38</title>
<path fill="none" stroke="midnightblue" d="M1156.85,-198.9C1188.78,-190.48 1232.93,-178.14 1271,-165 1305.48,-153.1 1312.31,-145.29 1347,-134 1410.55,-113.32 1451.79,-150.61 1493,-98 1501.5,-87.15 1502.33,-77.14 1493,-67 1457.4,-28.34 1113.07,-19.27 957.56,-17.15"/>
<polygon fill="midnightblue" stroke="midnightblue" points="1155.72,-195.58 1146.93,-201.49 1157.49,-202.35 1155.72,-195.58"/>
</g>
<!-- Node36&#45;&gt;Node39 -->
<g id="edge6" class="edge">
<title>Node36&#45;&gt;Node39</title>
<path fill="none" stroke="midnightblue" d="M1065.03,-199.23C1021.73,-189.51 957.74,-175.14 910.46,-164.52"/>
<polygon fill="midnightblue" stroke="midnightblue" points="1064.51,-202.7 1075.03,-201.48 1066.04,-195.87 1064.51,-202.7"/>
</g>
<!-- Node36&#45;&gt;Node40 -->
<g id="edge22" class="edge">
<title>Node36&#45;&gt;Node40</title>
<path fill="none" stroke="midnightblue" d="M1011.91,-200.59C941.03,-193.14 844.27,-181.28 760,-165 706.34,-154.63 694.91,-142.99 641,-134 432.61,-99.23 376.77,-123.2 167,-98 164.08,-97.65 161.11,-97.27 158.11,-96.87"/>
<polygon fill="midnightblue" stroke="midnightblue" points="1011.86,-204.1 1022.17,-201.65 1012.59,-197.14 1011.86,-204.1"/>
</g>
<!-- Node44 -->
<g id="node12" class="node">
<title>Node44</title>
<g id="a_node12"><a xlink:href="NVPTXISelLowering_8cpp.html" target="_top" xlink:title="lib/Target/NVPTX/NVPTXISel\lLowering.cpp">
<polygon fill="none" stroke="black" points="1336,-67.5 1336,-97.5 1484,-97.5 1484,-67.5 1336,-67.5"/>
<text text-anchor="start" x="1344" y="-85.5" font-family="Helvetica,sans-Serif" font-size="10.00">lib/Target/NVPTX/NVPTXISel</text>
<text text-anchor="middle" x="1410" y="-74.5" font-family="Helvetica,sans-Serif" font-size="10.00">Lowering.cpp</text>
</a>
</g>
</g>
<!-- Node36&#45;&gt;Node44 -->
<g id="edge23" class="edge">
<title>Node36&#45;&gt;Node44</title>
<path fill="none" stroke="midnightblue" d="M1142.74,-197.33C1198.48,-173.59 1318.34,-122.54 1376.7,-97.68"/>
<polygon fill="midnightblue" stroke="midnightblue" points="1141.24,-194.17 1133.41,-201.31 1143.99,-200.61 1141.24,-194.17"/>
</g>
<!-- Node46 -->
<g id="node14" class="node">
<title>Node46</title>
<g id="a_node14"><a xlink:href="NVPTXReplaceImageHandles_8cpp.html" target="_top" xlink:title="lib/Target/NVPTX/NVPTXReplace\lImageHandles.cpp">
<polygon fill="none" stroke="black" points="941.5,-67.5 941.5,-97.5 1108.5,-97.5 1108.5,-67.5 941.5,-67.5"/>
<text text-anchor="start" x="949.5" y="-85.5" font-family="Helvetica,sans-Serif" font-size="10.00">lib/Target/NVPTX/NVPTXReplace</text>
<text text-anchor="middle" x="1025" y="-74.5" font-family="Helvetica,sans-Serif" font-size="10.00">ImageHandles.cpp</text>
</a>
</g>
</g>
<!-- Node36&#45;&gt;Node46 -->
<g id="edge25" class="edge">
<title>Node36&#45;&gt;Node46</title>
<path fill="none" stroke="midnightblue" d="M1101.03,-192.8C1083.55,-167.66 1051.31,-121.33 1035.01,-97.89"/>
<polygon fill="midnightblue" stroke="midnightblue" points="1098.37,-195.09 1106.95,-201.31 1104.11,-191.1 1098.37,-195.09"/>
</g>
<!-- Node47 -->
<g id="node15" class="node">
<title>Node47</title>
<g id="a_node15"><a xlink:href="NVPTXSubtarget_8cpp.html" target="_top" xlink:title="lib/Target/NVPTX/NVPTXSubtarget.cpp">
<polygon fill="none" stroke="black" points="1126.5,-73 1126.5,-92 1317.5,-92 1317.5,-73 1126.5,-73"/>
<text text-anchor="middle" x="1222" y="-80" font-family="Helvetica,sans-Serif" font-size="10.00">lib/Target/NVPTX/NVPTXSubtarget.cpp</text>
</a>
</g>
</g>
<!-- Node36&#45;&gt;Node47 -->
<g id="edge26" class="edge">
<title>Node36&#45;&gt;Node47</title>
<path fill="none" stroke="midnightblue" d="M1127.24,-193.47C1150.64,-166.32 1196.43,-113.17 1214.46,-92.26"/>
<polygon fill="midnightblue" stroke="midnightblue" points="1124.37,-191.44 1120.49,-201.31 1129.67,-196.01 1124.37,-191.44"/>
</g>
<!-- Node36&#45;&gt;Node51 -->
<g id="edge24" class="edge">
<title>Node36&#45;&gt;Node51</title>
<path fill="none" stroke="midnightblue" d="M1169.66,-199.66C1222.95,-189.93 1303.14,-175.3 1362.17,-164.52"/>
<polygon fill="midnightblue" stroke="midnightblue" points="1168.92,-196.24 1159.71,-201.48 1170.17,-203.12 1168.92,-196.24"/>
</g>
<!-- Node37&#45;&gt;Node38 -->
<g id="edge5" class="edge">
<title>Node37&#45;&gt;Node38</title>
<path fill="none" stroke="midnightblue" d="M860.14,-58.28C864.99,-49.02 870.41,-38.66 874.64,-30.58"/>
<polygon fill="midnightblue" stroke="midnightblue" points="856.91,-56.91 855.38,-67.4 863.11,-60.16 856.91,-56.91"/>
</g>
<!-- Node39&#45;&gt;Node37 -->
<g id="edge7" class="edge">
<title>Node39&#45;&gt;Node37</title>
<path fill="none" stroke="midnightblue" d="M848,-124.11C848,-115.15 848,-105.32 848,-97.58"/>
<polygon fill="midnightblue" stroke="midnightblue" points="844.5,-124.4 848,-134.4 851.5,-124.4 844.5,-124.4"/>
</g>
<!-- Node39&#45;&gt;Node38 -->
<g id="edge8" class="edge">
<title>Node39&#45;&gt;Node38</title>
<path fill="none" stroke="midnightblue" d="M797.6,-129.75C783.95,-122.08 770.8,-111.71 763,-98 756.19,-86.03 755.4,-78.49 763,-67 774.58,-49.5 793.58,-38.05 813.03,-30.56"/>
<polygon fill="midnightblue" stroke="midnightblue" points="796.11,-132.91 806.6,-134.4 799.33,-126.7 796.11,-132.91"/>
</g>
<!-- Node39&#45;&gt;Node40 -->
<g id="edge9" class="edge">
<title>Node39&#45;&gt;Node40</title>
<path fill="none" stroke="midnightblue" d="M758.86,-134.43C757.57,-134.28 756.28,-134.14 755,-134 494.7,-105.8 427.18,-127.32 167,-98 164.08,-97.67 161.1,-97.31 158.1,-96.93"/>
<polygon fill="midnightblue" stroke="midnightblue" points="758.57,-137.92 768.92,-135.66 759.42,-130.97 758.57,-137.92"/>
</g>
<!-- Node39&#45;&gt;Node41 -->
<g id="edge10" class="edge">
<title>Node39&#45;&gt;Node41</title>
<path fill="none" stroke="midnightblue" d="M758.86,-134.47C757.56,-134.31 756.28,-134.15 755,-134 569,-111.56 520.81,-121.96 335,-98 332.06,-97.62 329.07,-97.21 326.06,-96.78"/>
<polygon fill="midnightblue" stroke="midnightblue" points="758.53,-137.96 768.9,-135.79 759.44,-131.02 758.53,-137.96"/>
</g>
<!-- Node39&#45;&gt;Node42 -->
<g id="edge11" class="edge">
<title>Node39&#45;&gt;Node42</title>
<path fill="none" stroke="midnightblue" d="M937.72,-141.84C1062.34,-132.51 1294.87,-114.79 1493,-98 1520.76,-95.65 1551.23,-92.91 1578,-90.45"/>
<polygon fill="midnightblue" stroke="midnightblue" points="937.18,-138.37 927.46,-142.61 937.7,-145.35 937.18,-138.37"/>
</g>
<!-- Node39&#45;&gt;Node44 -->
<g id="edge13" class="edge">
<title>Node39&#45;&gt;Node44</title>
<path fill="none" stroke="midnightblue" d="M937.02,-140.94C1033.37,-132.33 1191.43,-116.97 1327,-98 1329.9,-97.59 1332.85,-97.16 1335.83,-96.71"/>
<polygon fill="midnightblue" stroke="midnightblue" points="936.68,-137.45 927.03,-141.83 937.3,-144.43 936.68,-137.45"/>
</g>
<!-- Node45 -->
<g id="node13" class="node">
<title>Node45</title>
<g id="a_node13"><a xlink:href="NVPTXLowerArgs_8cpp.html" target="_top" xlink:title="lib/Target/NVPTX/NVPTXLower\lArgs.cpp">
<polygon fill="none" stroke="black" points="520.5,-67.5 520.5,-97.5 677.5,-97.5 677.5,-67.5 520.5,-67.5"/>
<text text-anchor="start" x="528.5" y="-85.5" font-family="Helvetica,sans-Serif" font-size="10.00">lib/Target/NVPTX/NVPTXLower</text>
<text text-anchor="middle" x="599" y="-74.5" font-family="Helvetica,sans-Serif" font-size="10.00">Args.cpp</text>
</a>
</g>
</g>
<!-- Node39&#45;&gt;Node45 -->
<g id="edge14" class="edge">
<title>Node39&#45;&gt;Node45</title>
<path fill="none" stroke="midnightblue" d="M784.47,-131.92C743.84,-121.31 691.7,-107.7 653.06,-97.61"/>
<polygon fill="midnightblue" stroke="midnightblue" points="783.72,-135.34 794.28,-134.48 785.49,-128.56 783.72,-135.34"/>
</g>
<!-- Node39&#45;&gt;Node46 -->
<g id="edge15" class="edge">
<title>Node39&#45;&gt;Node46</title>
<path fill="none" stroke="midnightblue" d="M896.15,-130.82C924.6,-120.37 960.13,-107.32 986.67,-97.58"/>
<polygon fill="midnightblue" stroke="midnightblue" points="894.59,-127.66 886.41,-134.4 897,-134.23 894.59,-127.66"/>
</g>
<!-- Node39&#45;&gt;Node47 -->
<g id="edge16" class="edge">
<title>Node39&#45;&gt;Node47</title>
<path fill="none" stroke="midnightblue" d="M937.53,-132.94C1011.29,-120.12 1113.12,-102.42 1172.82,-92.05"/>
<polygon fill="midnightblue" stroke="midnightblue" points="936.57,-129.55 927.32,-134.72 937.77,-136.45 936.57,-129.55"/>
</g>
<!-- Node48 -->
<g id="node16" class="node">
<title>Node48</title>
<g id="a_node16"><a xlink:href="NVPTXTargetMachine_8cpp.html" target="_top" xlink:title="lib/Target/NVPTX/NVPTXTarget\lMachine.cpp">
<polygon fill="none" stroke="black" points="592,-0.5 592,-30.5 750,-30.5 750,-0.5 592,-0.5"/>
<text text-anchor="start" x="600" y="-18.5" font-family="Helvetica,sans-Serif" font-size="10.00">lib/Target/NVPTX/NVPTXTarget</text>
<text text-anchor="middle" x="671" y="-7.5" font-family="Helvetica,sans-Serif" font-size="10.00">Machine.cpp</text>
</a>
</g>
</g>
<!-- Node39&#45;&gt;Node48 -->
<g id="edge17" class="edge">
<title>Node39&#45;&gt;Node48</title>
<path fill="none" stroke="midnightblue" d="M807.41,-129.87C790.26,-121.21 770.49,-110.14 754,-98 726.19,-77.53 698.5,-48.04 683.18,-30.72"/>
<polygon fill="midnightblue" stroke="midnightblue" points="806.11,-133.14 816.63,-134.43 809.22,-126.86 806.11,-133.14"/>
</g>
<!-- Node49 -->
<g id="node17" class="node">
<title>Node49</title>
<g id="a_node17"><a xlink:href="NVPTXTargetTransformInfo_8h.html" target="_top" xlink:title="This file a TargetTransformInfo::Concept conforming object specific to the NVPTX target machine...">
<polygon fill="none" stroke="black" points="344,-67.5 344,-97.5 502,-97.5 502,-67.5 344,-67.5"/>
<text text-anchor="start" x="352" y="-85.5" font-family="Helvetica,sans-Serif" font-size="10.00">lib/Target/NVPTX/NVPTXTarget</text>
<text text-anchor="middle" x="423" y="-74.5" font-family="Helvetica,sans-Serif" font-size="10.00">TransformInfo.h</text>
</a>
</g>
</g>
<!-- Node39&#45;&gt;Node49 -->
<g id="edge18" class="edge">
<title>Node39&#45;&gt;Node49</title>
<path fill="none" stroke="midnightblue" d="M758.84,-134.58C757.55,-134.39 756.27,-134.19 755,-134 646.62,-117.56 619.31,-114.91 511,-98 508.09,-97.55 505.13,-97.08 502.14,-96.61"/>
<polygon fill="midnightblue" stroke="midnightblue" points="758.44,-138.06 768.86,-136.12 759.5,-131.14 758.44,-138.06"/>
</g>
<!-- Node43 -->
<g id="node11" class="node">
<title>Node43</title>
<g id="a_node11"><a xlink:href="NVPTXISelDAGToDAG_8cpp.html" target="_top" xlink:title="lib/Target/NVPTX/NVPTXISel\lDAGToDAG.cpp">
<polygon fill="none" stroke="black" points="1578,-0.5 1578,-30.5 1726,-30.5 1726,-0.5 1578,-0.5"/>
<text text-anchor="start" x="1586" y="-18.5" font-family="Helvetica,sans-Serif" font-size="10.00">lib/Target/NVPTX/NVPTXISel</text>
<text text-anchor="middle" x="1652" y="-7.5" font-family="Helvetica,sans-Serif" font-size="10.00">DAGToDAG.cpp</text>
</a>
</g>
</g>
<!-- Node42&#45;&gt;Node43 -->
<g id="edge12" class="edge">
<title>Node42&#45;&gt;Node43</title>
<path fill="none" stroke="midnightblue" d="M1652,-57.11C1652,-48.15 1652,-38.32 1652,-30.58"/>
<polygon fill="midnightblue" stroke="midnightblue" points="1648.5,-57.4 1652,-67.4 1655.5,-57.4 1648.5,-57.4"/>
</g>
<!-- Node49&#45;&gt;Node48 -->
<g id="edge19" class="edge">
<title>Node49&#45;&gt;Node48</title>
<path fill="none" stroke="midnightblue" d="M486.27,-64.92C526.74,-54.31 578.67,-40.7 617.16,-30.61"/>
<polygon fill="midnightblue" stroke="midnightblue" points="485.29,-61.55 476.51,-67.48 487.07,-68.33 485.29,-61.55"/>
</g>
<!-- Node50 -->
<g id="node18" class="node">
<title>Node50</title>
<g id="a_node18"><a xlink:href="NVPTXTargetTransformInfo_8cpp.html" target="_top" xlink:title="lib/Target/NVPTX/NVPTXTarget\lTransformInfo.cpp">
<polygon fill="none" stroke="black" points="344,-0.5 344,-30.5 502,-30.5 502,-0.5 344,-0.5"/>
<text text-anchor="start" x="352" y="-18.5" font-family="Helvetica,sans-Serif" font-size="10.00">lib/Target/NVPTX/NVPTXTarget</text>
<text text-anchor="middle" x="423" y="-7.5" font-family="Helvetica,sans-Serif" font-size="10.00">TransformInfo.cpp</text>
</a>
</g>
</g>
<!-- Node49&#45;&gt;Node50 -->
<g id="edge20" class="edge">
<title>Node49&#45;&gt;Node50</title>
<path fill="none" stroke="midnightblue" d="M423,-57.11C423,-48.15 423,-38.32 423,-30.58"/>
<polygon fill="midnightblue" stroke="midnightblue" points="419.5,-57.4 423,-67.4 426.5,-57.4 419.5,-57.4"/>
</g>
</g>
</svg>
