<?xml version="1.0" encoding="UTF-8" standalone="no"?>
<!DOCTYPE svg PUBLIC "-//W3C//DTD SVG 1.1//EN"
 "http://www.w3.org/Graphics/SVG/1.1/DTD/svg11.dtd">
<!-- Generated by graphviz version 2.43.0 (0)
 -->
<!-- Title: include/llvm/MC/MCCodeEmitter.h Pages: 1 -->
<svg width="8196pt" height="173pt"
 viewBox="0.00 0.00 8196.00 173.00" xmlns="http://www.w3.org/2000/svg" xmlns:xlink="http://www.w3.org/1999/xlink">
<g id="graph0" class="graph" transform="scale(1 1) rotate(0) translate(4 169)">
<title>include/llvm/MC/MCCodeEmitter.h</title>
<!-- Node1 -->
<g id="node1" class="node">
<title>Node1</title>
<polygon fill="#bfbfbf" stroke="black" points="4083.5,-145.5 4083.5,-164.5 4252.5,-164.5 4252.5,-145.5 4083.5,-145.5"/>
<text text-anchor="middle" x="4168" y="-152.5" font-family="Helvetica,sans-Serif" font-size="10.00">include/llvm/MC/MCCodeEmitter.h</text>
</g>
<!-- Node2 -->
<g id="node2" class="node">
<title>Node2</title>
<g id="a_node2"><a xlink:href="MCWasmStreamer_8h.html" target="_top" xlink:title="include/llvm/MC/MCWasmStreamer.h">
<polygon fill="none" stroke="black" points="0,-78.5 0,-97.5 182,-97.5 182,-78.5 0,-78.5"/>
<text text-anchor="middle" x="91" y="-85.5" font-family="Helvetica,sans-Serif" font-size="10.00">include/llvm/MC/MCWasmStreamer.h</text>
</a>
</g>
</g>
<!-- Node1&#45;&gt;Node2 -->
<g id="edge1" class="edge">
<title>Node1&#45;&gt;Node2</title>
<path fill="none" stroke="midnightblue" d="M4073.23,-153.93C3507.97,-153.39 592.31,-148.67 196,-109 172.92,-106.69 147.34,-101.87 127.21,-97.54"/>
<polygon fill="midnightblue" stroke="midnightblue" points="4073.38,-157.43 4083.38,-153.94 4073.38,-150.43 4073.38,-157.43"/>
</g>
<!-- Node3 -->
<g id="node3" class="node">
<title>Node3</title>
<g id="a_node3"><a xlink:href="MCWasmStreamer_8cpp.html" target="_top" xlink:title="lib/MC/MCWasmStreamer.cpp">
<polygon fill="none" stroke="black" points="75.5,-6 75.5,-25 226.5,-25 226.5,-6 75.5,-6"/>
<text text-anchor="middle" x="151" y="-13" font-family="Helvetica,sans-Serif" font-size="10.00">lib/MC/MCWasmStreamer.cpp</text>
</a>
</g>
</g>
<!-- Node1&#45;&gt;Node3 -->
<g id="edge11" class="edge">
<title>Node1&#45;&gt;Node3</title>
<path fill="none" stroke="midnightblue" d="M4073.05,-154C3481.08,-153.89 318.69,-151.31 229,-109 224.08,-106.68 176.12,-47.63 157.94,-25.11"/>
<polygon fill="midnightblue" stroke="midnightblue" points="4073.25,-157.5 4083.25,-154.01 4073.25,-150.5 4073.25,-157.5"/>
</g>
<!-- Node4 -->
<g id="node4" class="node">
<title>Node4</title>
<g id="a_node4"><a xlink:href="CodeEmitter_8h.html" target="_top" xlink:title="A utility class used to compute instruction encodings. ">
<polygon fill="none" stroke="red" points="238,-78.5 238,-97.5 398,-97.5 398,-78.5 238,-78.5"/>
<text text-anchor="middle" x="318" y="-85.5" font-family="Helvetica,sans-Serif" font-size="10.00">include/llvm/MCA/CodeEmitter.h</text>
</a>
</g>
</g>
<!-- Node1&#45;&gt;Node4 -->
<g id="edge3" class="edge">
<title>Node1&#45;&gt;Node4</title>
<path fill="none" stroke="midnightblue" d="M4073.04,-154.05C3525.24,-154.19 780.38,-152.7 407,-109 387.34,-106.7 365.66,-101.88 348.62,-97.54"/>
<polygon fill="midnightblue" stroke="midnightblue" points="4073.27,-157.55 4083.27,-154.05 4073.26,-150.55 4073.27,-157.55"/>
</g>
<!-- Node6 -->
<g id="node5" class="node">
<title>Node6</title>
<g id="a_node5"><a xlink:href="LLVMTargetMachine_8cpp.html" target="_top" xlink:title="lib/CodeGen/LLVMTargetMachine.cpp">
<polygon fill="none" stroke="black" points="416,-78.5 416,-97.5 598,-97.5 598,-78.5 416,-78.5"/>
<text text-anchor="middle" x="507" y="-85.5" font-family="Helvetica,sans-Serif" font-size="10.00">lib/CodeGen/LLVMTargetMachine.cpp</text>
</a>
</g>
</g>
<!-- Node1&#45;&gt;Node6 -->
<g id="edge4" class="edge">
<title>Node1&#45;&gt;Node6</title>
<path fill="none" stroke="midnightblue" d="M4073.04,-153.85C3542.84,-152.87 959.84,-146.19 607,-109 584.99,-106.68 560.63,-101.86 541.47,-97.53"/>
<polygon fill="midnightblue" stroke="midnightblue" points="4073.32,-157.35 4083.32,-153.87 4073.33,-150.35 4073.32,-157.35"/>
</g>
<!-- Node7 -->
<g id="node6" class="node">
<title>Node7</title>
<g id="a_node6"><a xlink:href="MCAsmStreamer_8cpp.html" target="_top" xlink:title="lib/MC/MCAsmStreamer.cpp">
<polygon fill="none" stroke="black" points="616.5,-78.5 616.5,-97.5 759.5,-97.5 759.5,-78.5 616.5,-78.5"/>
<text text-anchor="middle" x="688" y="-85.5" font-family="Helvetica,sans-Serif" font-size="10.00">lib/MC/MCAsmStreamer.cpp</text>
</a>
</g>
</g>
<!-- Node1&#45;&gt;Node7 -->
<g id="edge5" class="edge">
<title>Node1&#45;&gt;Node7</title>
<path fill="none" stroke="midnightblue" d="M4073.15,-154.06C3557.58,-154.19 1103.03,-152.5 768,-109 750.25,-106.7 730.76,-101.87 715.46,-97.54"/>
<polygon fill="midnightblue" stroke="midnightblue" points="4073.16,-157.56 4083.16,-154.05 4073.16,-150.56 4073.16,-157.56"/>
</g>
<!-- Node8 -->
<g id="node7" class="node">
<title>Node8</title>
<g id="a_node7"><a xlink:href="MCAssembler_8cpp.html" target="_top" xlink:title="lib/MC/MCAssembler.cpp">
<polygon fill="none" stroke="black" points="777.5,-78.5 777.5,-97.5 906.5,-97.5 906.5,-78.5 777.5,-78.5"/>
<text text-anchor="middle" x="842" y="-85.5" font-family="Helvetica,sans-Serif" font-size="10.00">lib/MC/MCAssembler.cpp</text>
</a>
</g>
</g>
<!-- Node1&#45;&gt;Node8 -->
<g id="edge6" class="edge">
<title>Node1&#45;&gt;Node8</title>
<path fill="none" stroke="midnightblue" d="M4073.22,-154.12C3571.26,-154.57 1234.19,-154.18 915,-109 898.74,-106.7 880.95,-101.88 867.01,-97.54"/>
<polygon fill="midnightblue" stroke="midnightblue" points="4073.33,-157.62 4083.32,-154.11 4073.32,-150.62 4073.33,-157.62"/>
</g>
<!-- Node9 -->
<g id="node8" class="node">
<title>Node9</title>
<g id="a_node8"><a xlink:href="MCCodeEmitter_8cpp.html" target="_top" xlink:title="lib/MC/MCCodeEmitter.cpp">
<polygon fill="none" stroke="black" points="924.5,-78.5 924.5,-97.5 1061.5,-97.5 1061.5,-78.5 924.5,-78.5"/>
<text text-anchor="middle" x="993" y="-85.5" font-family="Helvetica,sans-Serif" font-size="10.00">lib/MC/MCCodeEmitter.cpp</text>
</a>
</g>
</g>
<!-- Node1&#45;&gt;Node9 -->
<g id="edge7" class="edge">
<title>Node1&#45;&gt;Node9</title>
<path fill="none" stroke="midnightblue" d="M4073.08,-153.96C3585.57,-153.55 1374.23,-149.5 1071,-109 1053.68,-106.69 1034.68,-101.86 1019.76,-97.53"/>
<polygon fill="midnightblue" stroke="midnightblue" points="4073.24,-157.46 4083.25,-153.96 4073.25,-150.46 4073.24,-157.46"/>
</g>
<!-- Node10 -->
<g id="node9" class="node">
<title>Node10</title>
<g id="a_node9"><a xlink:href="MCELFStreamer_8cpp.html" target="_top" xlink:title="lib/MC/MCELFStreamer.cpp">
<polygon fill="none" stroke="black" points="1080,-78.5 1080,-97.5 1220,-97.5 1220,-78.5 1080,-78.5"/>
<text text-anchor="middle" x="1150" y="-85.5" font-family="Helvetica,sans-Serif" font-size="10.00">lib/MC/MCELFStreamer.cpp</text>
</a>
</g>
</g>
<!-- Node1&#45;&gt;Node10 -->
<g id="edge8" class="edge">
<title>Node1&#45;&gt;Node10</title>
<path fill="none" stroke="midnightblue" d="M4072.98,-153.86C3600.56,-152.98 1515.79,-146.97 1229,-109 1211.47,-106.68 1192.22,-101.86 1177.12,-97.53"/>
<polygon fill="midnightblue" stroke="midnightblue" points="4073.17,-157.36 4083.18,-153.88 4073.18,-150.36 4073.17,-157.36"/>
</g>
<!-- Node11 -->
<g id="node10" class="node">
<title>Node11</title>
<g id="a_node10"><a xlink:href="MCMachOStreamer_8cpp.html" target="_top" xlink:title="lib/MC/MCMachOStreamer.cpp">
<polygon fill="none" stroke="black" points="1238,-78.5 1238,-97.5 1392,-97.5 1392,-78.5 1238,-78.5"/>
<text text-anchor="middle" x="1315" y="-85.5" font-family="Helvetica,sans-Serif" font-size="10.00">lib/MC/MCMachOStreamer.cpp</text>
</a>
</g>
</g>
<!-- Node1&#45;&gt;Node11 -->
<g id="edge9" class="edge">
<title>Node1&#45;&gt;Node11</title>
<path fill="none" stroke="midnightblue" d="M4073.05,-153.65C3617.87,-151.82 1670.23,-142.11 1401,-109 1381.98,-106.66 1361.03,-101.84 1344.57,-97.51"/>
<polygon fill="midnightblue" stroke="midnightblue" points="4073.18,-157.15 4083.2,-153.69 4073.21,-150.15 4073.18,-157.15"/>
</g>
<!-- Node12 -->
<g id="node11" class="node">
<title>Node12</title>
<g id="a_node11"><a xlink:href="MCObjectStreamer_8cpp.html" target="_top" xlink:title="lib/MC/MCObjectStreamer.cpp">
<polygon fill="none" stroke="black" points="1410.5,-78.5 1410.5,-97.5 1561.5,-97.5 1561.5,-78.5 1410.5,-78.5"/>
<text text-anchor="middle" x="1486" y="-85.5" font-family="Helvetica,sans-Serif" font-size="10.00">lib/MC/MCObjectStreamer.cpp</text>
</a>
</g>
</g>
<!-- Node1&#45;&gt;Node12 -->
<g id="edge10" class="edge">
<title>Node1&#45;&gt;Node12</title>
<path fill="none" stroke="midnightblue" d="M4073.16,-153.57C3635.52,-151.44 1821.59,-140.75 1570,-109 1551.41,-106.65 1530.95,-101.83 1514.87,-97.51"/>
<polygon fill="midnightblue" stroke="midnightblue" points="4073.23,-157.07 4083.25,-153.62 4073.26,-150.07 4073.23,-157.07"/>
</g>
<!-- Node13 -->
<g id="node12" class="node">
<title>Node13</title>
<g id="a_node12"><a xlink:href="MCWinCOFFStreamer_8cpp.html" target="_top" xlink:title="lib/MC/MCWinCOFFStreamer.cpp">
<polygon fill="none" stroke="black" points="1579.5,-78.5 1579.5,-97.5 1746.5,-97.5 1746.5,-78.5 1579.5,-78.5"/>
<text text-anchor="middle" x="1663" y="-85.5" font-family="Helvetica,sans-Serif" font-size="10.00">lib/MC/MCWinCOFFStreamer.cpp</text>
</a>
</g>
</g>
<!-- Node1&#45;&gt;Node13 -->
<g id="edge12" class="edge">
<title>Node1&#45;&gt;Node13</title>
<path fill="none" stroke="midnightblue" d="M4073.21,-153.31C3655.39,-150.15 1988.6,-135.92 1756,-109 1735.66,-106.65 1713.2,-101.88 1695.45,-97.59"/>
<polygon fill="midnightblue" stroke="midnightblue" points="4073.41,-156.82 4083.43,-153.39 4073.46,-149.82 4073.41,-156.82"/>
</g>
<!-- Node14 -->
<g id="node13" class="node">
<title>Node14</title>
<g id="a_node13"><a xlink:href="MCXCOFFStreamer_8cpp.html" target="_top" xlink:title="lib/MC/MCXCOFFStreamer.cpp">
<polygon fill="none" stroke="black" points="1765,-78.5 1765,-97.5 1921,-97.5 1921,-78.5 1765,-78.5"/>
<text text-anchor="middle" x="1843" y="-85.5" font-family="Helvetica,sans-Serif" font-size="10.00">lib/MC/MCXCOFFStreamer.cpp</text>
</a>
</g>
</g>
<!-- Node1&#45;&gt;Node14 -->
<g id="edge13" class="edge">
<title>Node1&#45;&gt;Node14</title>
<path fill="none" stroke="midnightblue" d="M4073.19,-153.25C3674.46,-149.91 2144.38,-135.51 1930,-109 1910.93,-106.64 1889.92,-101.88 1873.33,-97.59"/>
<polygon fill="midnightblue" stroke="midnightblue" points="4073.21,-156.75 4083.24,-153.33 4073.27,-149.75 4073.21,-156.75"/>
</g>
<!-- Node15 -->
<g id="node14" class="node">
<title>Node15</title>
<g id="a_node14"><a xlink:href="AArch64ELFStreamer_8cpp.html" target="_top" xlink:title="lib/Target/AArch64\l/MCTargetDesc/AArch64ELFStreamer.cpp">
<polygon fill="none" stroke="black" points="1939.5,-73 1939.5,-103 2142.5,-103 2142.5,-73 1939.5,-73"/>
<text text-anchor="start" x="1947.5" y="-91" font-family="Helvetica,sans-Serif" font-size="10.00">lib/Target/AArch64</text>
<text text-anchor="middle" x="2041" y="-80" font-family="Helvetica,sans-Serif" font-size="10.00">/MCTargetDesc/AArch64ELFStreamer.cpp</text>
</a>
</g>
</g>
<!-- Node1&#45;&gt;Node15 -->
<g id="edge14" class="edge">
<title>Node1&#45;&gt;Node15</title>
<path fill="none" stroke="midnightblue" d="M4073.24,-153.85C3727.13,-152.98 2531.76,-147.21 2152,-109 2138.07,-107.6 2123.26,-105.42 2109.15,-103.01"/>
<polygon fill="midnightblue" stroke="midnightblue" points="4073.47,-157.35 4083.48,-153.87 4073.49,-150.35 4073.47,-157.35"/>
</g>
<!-- Node16 -->
<g id="node15" class="node">
<title>Node16</title>
<g id="a_node15"><a xlink:href="AArch64MCCodeEmitter_8cpp.html" target="_top" xlink:title="lib/Target/AArch64\l/MCTargetDesc/AArch64MCCode\lEmitter.cpp">
<polygon fill="none" stroke="black" points="2161,-67.5 2161,-108.5 2327,-108.5 2327,-67.5 2161,-67.5"/>
<text text-anchor="start" x="2169" y="-96.5" font-family="Helvetica,sans-Serif" font-size="10.00">lib/Target/AArch64</text>
<text text-anchor="start" x="2169" y="-85.5" font-family="Helvetica,sans-Serif" font-size="10.00">/MCTargetDesc/AArch64MCCode</text>
<text text-anchor="middle" x="2244" y="-74.5" font-family="Helvetica,sans-Serif" font-size="10.00">Emitter.cpp</text>
</a>
</g>
</g>
<!-- Node1&#45;&gt;Node16 -->
<g id="edge15" class="edge">
<title>Node1&#45;&gt;Node16</title>
<path fill="none" stroke="midnightblue" d="M4072.92,-154.04C3747.13,-153.82 2677.21,-149.9 2336,-109 2333.08,-108.65 2330.11,-108.25 2327.12,-107.81"/>
<polygon fill="midnightblue" stroke="midnightblue" points="4073.26,-157.54 4083.26,-154.05 4073.27,-150.54 4073.26,-157.54"/>
</g>
<!-- Node17 -->
<g id="node16" class="node">
<title>Node17</title>
<g id="a_node16"><a xlink:href="AArch64MCTargetDesc_8cpp.html" target="_top" xlink:title="lib/Target/AArch64\l/MCTargetDesc/AArch64MCTarget\lDesc.cpp">
<polygon fill="none" stroke="black" points="2345,-67.5 2345,-108.5 2515,-108.5 2515,-67.5 2345,-67.5"/>
<text text-anchor="start" x="2353" y="-96.5" font-family="Helvetica,sans-Serif" font-size="10.00">lib/Target/AArch64</text>
<text text-anchor="start" x="2353" y="-85.5" font-family="Helvetica,sans-Serif" font-size="10.00">/MCTargetDesc/AArch64MCTarget</text>
<text text-anchor="middle" x="2430" y="-74.5" font-family="Helvetica,sans-Serif" font-size="10.00">Desc.cpp</text>
</a>
</g>
</g>
<!-- Node1&#45;&gt;Node17 -->
<g id="edge16" class="edge">
<title>Node1&#45;&gt;Node17</title>
<path fill="none" stroke="midnightblue" d="M4073.24,-153.68C3770.23,-152.28 2827.03,-145.08 2524,-109 2521.1,-108.65 2518.16,-108.26 2515.19,-107.83"/>
<polygon fill="midnightblue" stroke="midnightblue" points="4073.3,-157.18 4083.32,-153.72 4073.34,-150.18 4073.3,-157.18"/>
</g>
<!-- Node18 -->
<g id="node17" class="node">
<title>Node18</title>
<g id="a_node17"><a xlink:href="AArch64WinCOFFStreamer_8cpp.html" target="_top" xlink:title="lib/Target/AArch64\l/MCTargetDesc/AArch64WinCOFFStreamer.cpp">
<polygon fill="none" stroke="black" points="2533,-73 2533,-103 2763,-103 2763,-73 2533,-73"/>
<text text-anchor="start" x="2541" y="-91" font-family="Helvetica,sans-Serif" font-size="10.00">lib/Target/AArch64</text>
<text text-anchor="middle" x="2648" y="-80" font-family="Helvetica,sans-Serif" font-size="10.00">/MCTargetDesc/AArch64WinCOFFStreamer.cpp</text>
</a>
</g>
</g>
<!-- Node1&#45;&gt;Node18 -->
<g id="edge17" class="edge">
<title>Node1&#45;&gt;Node18</title>
<path fill="none" stroke="midnightblue" d="M4073.24,-152.52C3801.91,-148.05 3025.35,-133.41 2772,-109 2756.81,-107.54 2740.65,-105.38 2725.19,-103.01"/>
<polygon fill="midnightblue" stroke="midnightblue" points="4073.4,-156.03 4083.45,-152.69 4073.51,-149.03 4073.4,-156.03"/>
</g>
<!-- Node19 -->
<g id="node18" class="node">
<title>Node19</title>
<g id="a_node18"><a xlink:href="AMDGPUMCInstLower_8cpp.html" target="_top" xlink:title="Code to lower AMDGPU MachineInstrs to their corresponding MCInst. ">
<polygon fill="none" stroke="black" points="2781,-73 2781,-103 2965,-103 2965,-73 2781,-73"/>
<text text-anchor="start" x="2789" y="-91" font-family="Helvetica,sans-Serif" font-size="10.00">lib/Target/AMDGPU/AMDGPUMCInst</text>
<text text-anchor="middle" x="2873" y="-80" font-family="Helvetica,sans-Serif" font-size="10.00">Lower.cpp</text>
</a>
</g>
</g>
<!-- Node1&#45;&gt;Node19 -->
<g id="edge18" class="edge">
<title>Node1&#45;&gt;Node19</title>
<path fill="none" stroke="midnightblue" d="M4073.14,-152.36C3829.52,-147.84 3186.13,-133.84 2974,-109 2961.57,-107.54 2948.39,-105.39 2935.79,-103.03"/>
<polygon fill="midnightblue" stroke="midnightblue" points="4073.33,-155.86 4083.39,-152.55 4073.46,-148.86 4073.33,-155.86"/>
</g>
<!-- Node20 -->
<g id="node19" class="node">
<title>Node20</title>
<g id="a_node19"><a xlink:href="AMDGPUELFStreamer_8cpp.html" target="_top" xlink:title="lib/Target/AMDGPU/MCTarget\lDesc/AMDGPUELFStreamer.cpp">
<polygon fill="none" stroke="black" points="2983,-73 2983,-103 3147,-103 3147,-73 2983,-73"/>
<text text-anchor="start" x="2991" y="-91" font-family="Helvetica,sans-Serif" font-size="10.00">lib/Target/AMDGPU/MCTarget</text>
<text text-anchor="middle" x="3065" y="-80" font-family="Helvetica,sans-Serif" font-size="10.00">Desc/AMDGPUELFStreamer.cpp</text>
</a>
</g>
</g>
<!-- Node1&#45;&gt;Node20 -->
<g id="edge19" class="edge">
<title>Node1&#45;&gt;Node20</title>
<path fill="none" stroke="midnightblue" d="M4073.19,-151.87C3856.76,-146.66 3331.51,-132.02 3156,-109 3144.77,-107.53 3132.88,-105.37 3121.53,-103"/>
<polygon fill="midnightblue" stroke="midnightblue" points="4073.18,-155.37 4083.26,-152.11 4073.34,-148.37 4073.18,-155.37"/>
</g>
<!-- Node21 -->
<g id="node20" class="node">
<title>Node21</title>
<g id="a_node20"><a xlink:href="AMDGPUMCCodeEmitter_8h.html" target="_top" xlink:title="CodeEmitter interface for R600 and SI codegen. ">
<polygon fill="none" stroke="red" points="3165,-73 3165,-103 3331,-103 3331,-73 3165,-73"/>
<text text-anchor="start" x="3173" y="-91" font-family="Helvetica,sans-Serif" font-size="10.00">lib/Target/AMDGPU/MCTarget</text>
<text text-anchor="middle" x="3248" y="-80" font-family="Helvetica,sans-Serif" font-size="10.00">Desc/AMDGPUMCCodeEmitter.h</text>
</a>
</g>
</g>
<!-- Node1&#45;&gt;Node21 -->
<g id="edge20" class="edge">
<title>Node1&#45;&gt;Node21</title>
<path fill="none" stroke="midnightblue" d="M4072.87,-153.38C3919.18,-151.35 3607.01,-142.98 3345,-109 3333.32,-107.49 3320.95,-105.35 3309.08,-103.03"/>
<polygon fill="midnightblue" stroke="midnightblue" points="4073.16,-156.89 4083.21,-153.51 4073.25,-149.89 4073.16,-156.89"/>
</g>
<!-- Node23 -->
<g id="node21" class="node">
<title>Node23</title>
<g id="a_node21"><a xlink:href="SIMCCodeEmitter_8cpp.html" target="_top" xlink:title="The SI code emitter produces machine code that can be executed directly on the GPU device...">
<polygon fill="none" stroke="black" points="3227.5,-0.5 3227.5,-30.5 3378.5,-30.5 3378.5,-0.5 3227.5,-0.5"/>
<text text-anchor="start" x="3235.5" y="-18.5" font-family="Helvetica,sans-Serif" font-size="10.00">lib/Target/AMDGPU/MCTarget</text>
<text text-anchor="middle" x="3303" y="-7.5" font-family="Helvetica,sans-Serif" font-size="10.00">Desc/SIMCCodeEmitter.cpp</text>
</a>
</g>
</g>
<!-- Node1&#45;&gt;Node23 -->
<g id="edge24" class="edge">
<title>Node1&#45;&gt;Node23</title>
<path fill="none" stroke="midnightblue" d="M4073.48,-152.88C3877.17,-149.94 3438.47,-139.96 3378,-109 3369.26,-104.52 3332.18,-55.74 3313.64,-30.88"/>
<polygon fill="midnightblue" stroke="midnightblue" points="4073.45,-156.38 4083.5,-153.03 4073.55,-149.38 4073.45,-156.38"/>
</g>
<!-- Node24 -->
<g id="node22" class="node">
<title>Node24</title>
<g id="a_node22"><a xlink:href="AMDGPUMCTargetDesc_8cpp.html" target="_top" xlink:title="This file provides AMDGPU specific target descriptions. ">
<polygon fill="none" stroke="black" points="3387.5,-73 3387.5,-103 3560.5,-103 3560.5,-73 3387.5,-73"/>
<text text-anchor="start" x="3395.5" y="-91" font-family="Helvetica,sans-Serif" font-size="10.00">lib/Target/AMDGPU/MCTarget</text>
<text text-anchor="middle" x="3474" y="-80" font-family="Helvetica,sans-Serif" font-size="10.00">Desc/AMDGPUMCTargetDesc.cpp</text>
</a>
</g>
</g>
<!-- Node1&#45;&gt;Node24 -->
<g id="edge22" class="edge">
<title>Node1&#45;&gt;Node24</title>
<path fill="none" stroke="midnightblue" d="M4073.18,-150.76C3954.73,-145.82 3746.07,-134.18 3569,-109 3557.82,-107.41 3545.98,-105.28 3534.6,-103.01"/>
<polygon fill="midnightblue" stroke="midnightblue" points="4073.17,-154.26 4083.3,-151.17 4073.45,-147.27 4073.17,-154.26"/>
</g>
<!-- Node25 -->
<g id="node23" class="node">
<title>Node25</title>
<g id="a_node23"><a xlink:href="R600MCCodeEmitter_8cpp.html" target="_top" xlink:title="The R600 code emitter produces machine code that can be executed directly on the GPU device...">
<polygon fill="none" stroke="black" points="3578.5,-73 3578.5,-103 3733.5,-103 3733.5,-73 3578.5,-73"/>
<text text-anchor="start" x="3586.5" y="-91" font-family="Helvetica,sans-Serif" font-size="10.00">lib/Target/AMDGPU/MCTarget</text>
<text text-anchor="middle" x="3656" y="-80" font-family="Helvetica,sans-Serif" font-size="10.00">Desc/R600MCCodeEmitter.cpp</text>
</a>
</g>
</g>
<!-- Node1&#45;&gt;Node25 -->
<g id="edge23" class="edge">
<title>Node1&#45;&gt;Node25</title>
<path fill="none" stroke="midnightblue" d="M4073.28,-147.26C3986.85,-140.33 3855.81,-127.87 3743,-109 3733.06,-107.34 3722.57,-105.23 3712.43,-103.01"/>
<polygon fill="midnightblue" stroke="midnightblue" points="4073.08,-150.75 4083.33,-148.06 4073.64,-143.78 4073.08,-150.75"/>
</g>
<!-- Node26 -->
<g id="node24" class="node">
<title>Node26</title>
<g id="a_node24"><a xlink:href="ARMELFStreamer_8cpp.html" target="_top" xlink:title="lib/Target/ARM/MCTargetDesc\l/ARMELFStreamer.cpp">
<polygon fill="none" stroke="black" points="3752,-73 3752,-103 3904,-103 3904,-73 3752,-73"/>
<text text-anchor="start" x="3760" y="-91" font-family="Helvetica,sans-Serif" font-size="10.00">lib/Target/ARM/MCTargetDesc</text>
<text text-anchor="middle" x="3828" y="-80" font-family="Helvetica,sans-Serif" font-size="10.00">/ARMELFStreamer.cpp</text>
</a>
</g>
</g>
<!-- Node1&#45;&gt;Node26 -->
<g id="edge25" class="edge">
<title>Node1&#45;&gt;Node26</title>
<path fill="none" stroke="midnightblue" d="M4104.57,-143.83C4052.87,-135.29 3978.02,-122.37 3913,-109 3904.24,-107.2 3895,-105.16 3885.97,-103.1"/>
<polygon fill="midnightblue" stroke="midnightblue" points="4104.16,-147.31 4114.6,-145.48 4105.3,-140.4 4104.16,-147.31"/>
</g>
<!-- Node27 -->
<g id="node25" class="node">
<title>Node27</title>
<g id="a_node25"><a xlink:href="ARMMCCodeEmitter_8cpp.html" target="_top" xlink:title="lib/Target/ARM/MCTargetDesc\l/ARMMCCodeEmitter.cpp">
<polygon fill="none" stroke="black" points="3922,-73 3922,-103 4074,-103 4074,-73 3922,-73"/>
<text text-anchor="start" x="3930" y="-91" font-family="Helvetica,sans-Serif" font-size="10.00">lib/Target/ARM/MCTargetDesc</text>
<text text-anchor="middle" x="3998" y="-80" font-family="Helvetica,sans-Serif" font-size="10.00">/ARMMCCodeEmitter.cpp</text>
</a>
</g>
</g>
<!-- Node1&#45;&gt;Node27 -->
<g id="edge26" class="edge">
<title>Node1&#45;&gt;Node27</title>
<path fill="none" stroke="midnightblue" d="M4135.84,-141.7C4107.03,-130.69 4064.8,-114.54 4034.69,-103.03"/>
<polygon fill="midnightblue" stroke="midnightblue" points="4134.83,-145.07 4145.43,-145.37 4137.33,-138.53 4134.83,-145.07"/>
</g>
<!-- Node28 -->
<g id="node26" class="node">
<title>Node28</title>
<g id="a_node26"><a xlink:href="ARMMCTargetDesc_8cpp.html" target="_top" xlink:title="lib/Target/ARM/MCTargetDesc\l/ARMMCTargetDesc.cpp">
<polygon fill="none" stroke="black" points="4092,-73 4092,-103 4244,-103 4244,-73 4092,-73"/>
<text text-anchor="start" x="4100" y="-91" font-family="Helvetica,sans-Serif" font-size="10.00">lib/Target/ARM/MCTargetDesc</text>
<text text-anchor="middle" x="4168" y="-80" font-family="Helvetica,sans-Serif" font-size="10.00">/ARMMCTargetDesc.cpp</text>
</a>
</g>
</g>
<!-- Node1&#45;&gt;Node28 -->
<g id="edge27" class="edge">
<title>Node1&#45;&gt;Node28</title>
<path fill="none" stroke="midnightblue" d="M4168,-134.91C4168,-124.72 4168,-112.4 4168,-103.09"/>
<polygon fill="midnightblue" stroke="midnightblue" points="4164.5,-135.23 4168,-145.23 4171.5,-135.23 4164.5,-135.23"/>
</g>
<!-- Node29 -->
<g id="node27" class="node">
<title>Node29</title>
<g id="a_node27"><a xlink:href="ARMWinCOFFStreamer_8cpp.html" target="_top" xlink:title="lib/Target/ARM/MCTargetDesc\l/ARMWinCOFFStreamer.cpp">
<polygon fill="none" stroke="black" points="4262,-73 4262,-103 4414,-103 4414,-73 4262,-73"/>
<text text-anchor="start" x="4270" y="-91" font-family="Helvetica,sans-Serif" font-size="10.00">lib/Target/ARM/MCTargetDesc</text>
<text text-anchor="middle" x="4338" y="-80" font-family="Helvetica,sans-Serif" font-size="10.00">/ARMWinCOFFStreamer.cpp</text>
</a>
</g>
</g>
<!-- Node1&#45;&gt;Node29 -->
<g id="edge28" class="edge">
<title>Node1&#45;&gt;Node29</title>
<path fill="none" stroke="midnightblue" d="M4200.16,-141.7C4228.97,-130.69 4271.2,-114.54 4301.31,-103.03"/>
<polygon fill="midnightblue" stroke="midnightblue" points="4198.67,-138.53 4190.57,-145.37 4201.17,-145.07 4198.67,-138.53"/>
</g>
<!-- Node30 -->
<g id="node28" class="node">
<title>Node30</title>
<g id="a_node28"><a xlink:href="AVRMCCodeEmitter_8h.html" target="_top" xlink:title="lib/Target/AVR/MCTargetDesc\l/AVRMCCodeEmitter.h">
<polygon fill="none" stroke="red" points="4432.5,-73 4432.5,-103 4583.5,-103 4583.5,-73 4432.5,-73"/>
<text text-anchor="start" x="4440.5" y="-91" font-family="Helvetica,sans-Serif" font-size="10.00">lib/Target/AVR/MCTargetDesc</text>
<text text-anchor="middle" x="4508" y="-80" font-family="Helvetica,sans-Serif" font-size="10.00">/AVRMCCodeEmitter.h</text>
</a>
</g>
</g>
<!-- Node1&#45;&gt;Node30 -->
<g id="edge29" class="edge">
<title>Node1&#45;&gt;Node30</title>
<path fill="none" stroke="midnightblue" d="M4231.43,-143.83C4283.13,-135.29 4357.98,-122.37 4423,-109 4431.76,-107.2 4441,-105.16 4450.03,-103.1"/>
<polygon fill="midnightblue" stroke="midnightblue" points="4230.7,-140.4 4221.4,-145.48 4231.84,-147.31 4230.7,-140.4"/>
</g>
<!-- Node32 -->
<g id="node29" class="node">
<title>Node32</title>
<g id="a_node29"><a xlink:href="AVRMCELFStreamer_8h.html" target="_top" xlink:title="lib/Target/AVR/MCTargetDesc\l/AVRMCELFStreamer.h">
<polygon fill="none" stroke="red" points="4601.5,-73 4601.5,-103 4752.5,-103 4752.5,-73 4601.5,-73"/>
<text text-anchor="start" x="4609.5" y="-91" font-family="Helvetica,sans-Serif" font-size="10.00">lib/Target/AVR/MCTargetDesc</text>
<text text-anchor="middle" x="4677" y="-80" font-family="Helvetica,sans-Serif" font-size="10.00">/AVRMCELFStreamer.h</text>
</a>
</g>
</g>
<!-- Node1&#45;&gt;Node32 -->
<g id="edge30" class="edge">
<title>Node1&#45;&gt;Node32</title>
<path fill="none" stroke="midnightblue" d="M4262.93,-147.35C4349.17,-140.5 4479.68,-128.1 4592,-109 4601.71,-107.35 4611.98,-105.25 4621.88,-103.03"/>
<polygon fill="midnightblue" stroke="midnightblue" points="4262.59,-143.86 4252.9,-148.14 4263.14,-150.84 4262.59,-143.86"/>
</g>
<!-- Node35 -->
<g id="node30" class="node">
<title>Node35</title>
<g id="a_node30"><a xlink:href="AVRMCTargetDesc_8cpp.html" target="_top" xlink:title="lib/Target/AVR/MCTargetDesc\l/AVRMCTargetDesc.cpp">
<polygon fill="none" stroke="black" points="4653.5,-0.5 4653.5,-30.5 4804.5,-30.5 4804.5,-0.5 4653.5,-0.5"/>
<text text-anchor="start" x="4661.5" y="-18.5" font-family="Helvetica,sans-Serif" font-size="10.00">lib/Target/AVR/MCTargetDesc</text>
<text text-anchor="middle" x="4729" y="-7.5" font-family="Helvetica,sans-Serif" font-size="10.00">/AVRMCTargetDesc.cpp</text>
</a>
</g>
</g>
<!-- Node1&#45;&gt;Node35 -->
<g id="edge32" class="edge">
<title>Node1&#45;&gt;Node35</title>
<path fill="none" stroke="midnightblue" d="M4262.77,-153.71C4421.69,-152.22 4727.9,-144.7 4761,-109 4781.68,-86.69 4757.79,-50.36 4741.56,-30.52"/>
<polygon fill="midnightblue" stroke="midnightblue" points="4262.48,-150.21 4252.52,-153.8 4262.55,-157.21 4262.48,-150.21"/>
</g>
<!-- Node36 -->
<g id="node31" class="node">
<title>Node36</title>
<g id="a_node31"><a xlink:href="BPFMCCodeEmitter_8cpp.html" target="_top" xlink:title="lib/Target/BPF/MCTargetDesc\l/BPFMCCodeEmitter.cpp">
<polygon fill="none" stroke="black" points="4808.5,-73 4808.5,-103 4957.5,-103 4957.5,-73 4808.5,-73"/>
<text text-anchor="start" x="4816.5" y="-91" font-family="Helvetica,sans-Serif" font-size="10.00">lib/Target/BPF/MCTargetDesc</text>
<text text-anchor="middle" x="4883" y="-80" font-family="Helvetica,sans-Serif" font-size="10.00">/BPFMCCodeEmitter.cpp</text>
</a>
</g>
</g>
<!-- Node1&#45;&gt;Node36 -->
<g id="edge33" class="edge">
<title>Node1&#45;&gt;Node36</title>
<path fill="none" stroke="midnightblue" d="M4262.77,-151.67C4385.99,-147.63 4607.58,-136.86 4795,-109 4805.38,-107.46 4816.36,-105.35 4826.91,-103.08"/>
<polygon fill="midnightblue" stroke="midnightblue" points="4262.5,-148.18 4252.62,-152 4262.73,-155.18 4262.5,-148.18"/>
</g>
<!-- Node37 -->
<g id="node32" class="node">
<title>Node37</title>
<g id="a_node32"><a xlink:href="HexagonMCCodeEmitter_8h.html" target="_top" xlink:title="Definition for classes that emit Hexagon machine code from MCInsts. ">
<polygon fill="none" stroke="red" points="4975.5,-67.5 4975.5,-108.5 5142.5,-108.5 5142.5,-67.5 4975.5,-67.5"/>
<text text-anchor="start" x="4983.5" y="-96.5" font-family="Helvetica,sans-Serif" font-size="10.00">lib/Target/Hexagon</text>
<text text-anchor="start" x="4983.5" y="-85.5" font-family="Helvetica,sans-Serif" font-size="10.00">/MCTargetDesc/HexagonMCCode</text>
<text text-anchor="middle" x="5059" y="-74.5" font-family="Helvetica,sans-Serif" font-size="10.00">Emitter.h</text>
</a>
</g>
</g>
<!-- Node1&#45;&gt;Node37 -->
<g id="edge34" class="edge">
<title>Node1&#45;&gt;Node37</title>
<path fill="none" stroke="midnightblue" d="M4262.66,-153.41C4412.55,-151.41 4713.44,-143.07 4966,-109 4969.11,-108.58 4972.27,-108.11 4975.46,-107.61"/>
<polygon fill="midnightblue" stroke="midnightblue" points="4262.52,-149.91 4252.57,-153.54 4262.61,-156.91 4262.52,-149.91"/>
</g>
<!-- Node40 -->
<g id="node33" class="node">
<title>Node40</title>
<g id="a_node33"><a xlink:href="HexagonMCELFStreamer_8cpp.html" target="_top" xlink:title="lib/Target/Hexagon\l/MCTargetDesc/HexagonMCELFStreamer.cpp">
<polygon fill="none" stroke="black" points="5160.5,-73 5160.5,-103 5381.5,-103 5381.5,-73 5160.5,-73"/>
<text text-anchor="start" x="5168.5" y="-91" font-family="Helvetica,sans-Serif" font-size="10.00">lib/Target/Hexagon</text>
<text text-anchor="middle" x="5271" y="-80" font-family="Helvetica,sans-Serif" font-size="10.00">/MCTargetDesc/HexagonMCELFStreamer.cpp</text>
</a>
</g>
</g>
<!-- Node1&#45;&gt;Node40 -->
<g id="edge35" class="edge">
<title>Node1&#45;&gt;Node40</title>
<path fill="none" stroke="midnightblue" d="M4262.99,-153.41C4438.75,-151.5 4826.39,-143.36 5151,-109 5165.39,-107.48 5180.67,-105.34 5195.33,-103.02"/>
<polygon fill="midnightblue" stroke="midnightblue" points="4262.7,-149.92 4252.74,-153.52 4262.78,-156.92 4262.7,-149.92"/>
</g>
<!-- Node41 -->
<g id="node34" class="node">
<title>Node41</title>
<g id="a_node34"><a xlink:href="HexagonMCTargetDesc_8cpp.html" target="_top" xlink:title="lib/Target/Hexagon\l/MCTargetDesc/HexagonMCTarget\lDesc.cpp">
<polygon fill="none" stroke="black" points="5400,-67.5 5400,-108.5 5572,-108.5 5572,-67.5 5400,-67.5"/>
<text text-anchor="start" x="5408" y="-96.5" font-family="Helvetica,sans-Serif" font-size="10.00">lib/Target/Hexagon</text>
<text text-anchor="start" x="5408" y="-85.5" font-family="Helvetica,sans-Serif" font-size="10.00">/MCTargetDesc/HexagonMCTarget</text>
<text text-anchor="middle" x="5486" y="-74.5" font-family="Helvetica,sans-Serif" font-size="10.00">Desc.cpp</text>
</a>
</g>
</g>
<!-- Node1&#45;&gt;Node41 -->
<g id="edge36" class="edge">
<title>Node1&#45;&gt;Node41</title>
<path fill="none" stroke="midnightblue" d="M4262.94,-152.57C4510.66,-148.52 5172.4,-135.48 5390,-109 5393.21,-108.61 5396.47,-108.17 5399.76,-107.68"/>
<polygon fill="midnightblue" stroke="midnightblue" points="4262.83,-149.08 4252.88,-152.74 4262.94,-156.07 4262.83,-149.08"/>
</g>
<!-- Node42 -->
<g id="node35" class="node">
<title>Node42</title>
<g id="a_node35"><a xlink:href="LanaiMCCodeEmitter_8cpp.html" target="_top" xlink:title="lib/Target/Lanai/MCTarget\lDesc/LanaiMCCodeEmitter.cpp">
<polygon fill="none" stroke="black" points="5590.5,-73 5590.5,-103 5745.5,-103 5745.5,-73 5590.5,-73"/>
<text text-anchor="start" x="5598.5" y="-91" font-family="Helvetica,sans-Serif" font-size="10.00">lib/Target/Lanai/MCTarget</text>
<text text-anchor="middle" x="5668" y="-80" font-family="Helvetica,sans-Serif" font-size="10.00">Desc/LanaiMCCodeEmitter.cpp</text>
</a>
</g>
</g>
<!-- Node1&#45;&gt;Node42 -->
<g id="edge37" class="edge">
<title>Node1&#45;&gt;Node42</title>
<path fill="none" stroke="midnightblue" d="M4263.04,-153.38C4537.04,-151.2 5325.22,-142.15 5581,-109 5591.91,-107.59 5603.46,-105.42 5614.46,-103.02"/>
<polygon fill="midnightblue" stroke="midnightblue" points="4262.7,-149.88 4252.73,-153.46 4262.76,-156.88 4262.7,-149.88"/>
</g>
<!-- Node43 -->
<g id="node36" class="node">
<title>Node43</title>
<g id="a_node36"><a xlink:href="MipsELFStreamer_8cpp.html" target="_top" xlink:title="lib/Target/Mips/MCTarget\lDesc/MipsELFStreamer.cpp">
<polygon fill="none" stroke="black" points="5764,-73 5764,-103 5904,-103 5904,-73 5764,-73"/>
<text text-anchor="start" x="5772" y="-91" font-family="Helvetica,sans-Serif" font-size="10.00">lib/Target/Mips/MCTarget</text>
<text text-anchor="middle" x="5834" y="-80" font-family="Helvetica,sans-Serif" font-size="10.00">Desc/MipsELFStreamer.cpp</text>
</a>
</g>
</g>
<!-- Node1&#45;&gt;Node43 -->
<g id="edge38" class="edge">
<title>Node1&#45;&gt;Node43</title>
<path fill="none" stroke="midnightblue" d="M4263.23,-154C4559.68,-153.57 5463.58,-148.94 5754,-109 5764.07,-107.62 5774.71,-105.46 5784.82,-103.07"/>
<polygon fill="midnightblue" stroke="midnightblue" points="4262.94,-150.5 4252.94,-154.01 4262.95,-157.5 4262.94,-150.5"/>
</g>
<!-- Node44 -->
<g id="node37" class="node">
<title>Node44</title>
<g id="a_node37"><a xlink:href="MipsMCCodeEmitter_8h.html" target="_top" xlink:title="lib/Target/Mips/MCTarget\lDesc/MipsMCCodeEmitter.h">
<polygon fill="none" stroke="red" points="5922.5,-73 5922.5,-103 6065.5,-103 6065.5,-73 5922.5,-73"/>
<text text-anchor="start" x="5930.5" y="-91" font-family="Helvetica,sans-Serif" font-size="10.00">lib/Target/Mips/MCTarget</text>
<text text-anchor="middle" x="5994" y="-80" font-family="Helvetica,sans-Serif" font-size="10.00">Desc/MipsMCCodeEmitter.h</text>
</a>
</g>
</g>
<!-- Node1&#45;&gt;Node44 -->
<g id="edge39" class="edge">
<title>Node1&#45;&gt;Node44</title>
<path fill="none" stroke="midnightblue" d="M4262.65,-154.25C4577.81,-154.68 5589.98,-152.52 5913,-109 5923.19,-107.63 5933.96,-105.48 5944.2,-103.09"/>
<polygon fill="midnightblue" stroke="midnightblue" points="4262.64,-150.75 4252.63,-154.24 4262.63,-157.75 4262.64,-150.75"/>
</g>
<!-- Node46 -->
<g id="node38" class="node">
<title>Node46</title>
<g id="a_node38"><a xlink:href="MipsMCTargetDesc_8cpp.html" target="_top" xlink:title="lib/Target/Mips/MCTarget\lDesc/MipsMCTargetDesc.cpp">
<polygon fill="none" stroke="black" points="6083.5,-73 6083.5,-103 6232.5,-103 6232.5,-73 6083.5,-73"/>
<text text-anchor="start" x="6091.5" y="-91" font-family="Helvetica,sans-Serif" font-size="10.00">lib/Target/Mips/MCTarget</text>
<text text-anchor="middle" x="6158" y="-80" font-family="Helvetica,sans-Serif" font-size="10.00">Desc/MipsMCTargetDesc.cpp</text>
</a>
</g>
</g>
<!-- Node1&#45;&gt;Node46 -->
<g id="edge40" class="edge">
<title>Node1&#45;&gt;Node46</title>
<path fill="none" stroke="midnightblue" d="M4262.71,-154.39C4596.6,-155.37 5717.94,-155.07 6074,-109 6084.56,-107.63 6095.72,-105.49 6106.34,-103.1"/>
<polygon fill="midnightblue" stroke="midnightblue" points="4262.6,-150.89 4252.59,-154.36 4262.57,-157.89 4262.6,-150.89"/>
</g>
<!-- Node47 -->
<g id="node39" class="node">
<title>Node47</title>
<g id="a_node39"><a xlink:href="MipsNaClELFStreamer_8cpp.html" target="_top" xlink:title="lib/Target/Mips/MCTarget\lDesc/MipsNaClELFStreamer.cpp">
<polygon fill="none" stroke="black" points="6250.5,-73 6250.5,-103 6413.5,-103 6413.5,-73 6250.5,-73"/>
<text text-anchor="start" x="6258.5" y="-91" font-family="Helvetica,sans-Serif" font-size="10.00">lib/Target/Mips/MCTarget</text>
<text text-anchor="middle" x="6332" y="-80" font-family="Helvetica,sans-Serif" font-size="10.00">Desc/MipsNaClELFStreamer.cpp</text>
</a>
</g>
</g>
<!-- Node1&#45;&gt;Node47 -->
<g id="edge41" class="edge">
<title>Node1&#45;&gt;Node47</title>
<path fill="none" stroke="midnightblue" d="M4262.82,-154.39C4615.37,-155.46 5850.34,-155.72 6241,-109 6252.56,-107.62 6264.82,-105.43 6276.47,-103"/>
<polygon fill="midnightblue" stroke="midnightblue" points="4262.66,-150.89 4252.65,-154.36 4262.64,-157.89 4262.66,-150.89"/>
</g>
<!-- Node48 -->
<g id="node40" class="node">
<title>Node48</title>
<g id="a_node40"><a xlink:href="MSP430MCCodeEmitter_8cpp.html" target="_top" xlink:title="lib/Target/MSP430/MCTarget\lDesc/MSP430MCCodeEmitter.cpp">
<polygon fill="none" stroke="black" points="6432,-73 6432,-103 6602,-103 6602,-73 6432,-73"/>
<text text-anchor="start" x="6440" y="-91" font-family="Helvetica,sans-Serif" font-size="10.00">lib/Target/MSP430/MCTarget</text>
<text text-anchor="middle" x="6517" y="-80" font-family="Helvetica,sans-Serif" font-size="10.00">Desc/MSP430MCCodeEmitter.cpp</text>
</a>
</g>
</g>
<!-- Node1&#45;&gt;Node48 -->
<g id="edge42" class="edge">
<title>Node1&#45;&gt;Node48</title>
<path fill="none" stroke="midnightblue" d="M4262.81,-153.16C4663.29,-149.45 6205.73,-133.7 6422,-109 6434.06,-107.62 6446.85,-105.44 6459,-103.01"/>
<polygon fill="midnightblue" stroke="midnightblue" points="4262.68,-149.66 4252.71,-153.25 4262.74,-156.66 4262.68,-149.66"/>
</g>
<!-- Node49 -->
<g id="node41" class="node">
<title>Node49</title>
<g id="a_node41"><a xlink:href="PPCMCCodeEmitter_8h.html" target="_top" xlink:title="lib/Target/PowerPC\l/MCTargetDesc/PPCMCCodeEmitter.h">
<polygon fill="none" stroke="red" points="6620.5,-73 6620.5,-103 6809.5,-103 6809.5,-73 6620.5,-73"/>
<text text-anchor="start" x="6628.5" y="-91" font-family="Helvetica,sans-Serif" font-size="10.00">lib/Target/PowerPC</text>
<text text-anchor="middle" x="6715" y="-80" font-family="Helvetica,sans-Serif" font-size="10.00">/MCTargetDesc/PPCMCCodeEmitter.h</text>
</a>
</g>
</g>
<!-- Node1&#45;&gt;Node49 -->
<g id="edge43" class="edge">
<title>Node1&#45;&gt;Node49</title>
<path fill="none" stroke="midnightblue" d="M4262.84,-154.43C4654.01,-155.86 6143.41,-157.9 6611,-109 6624.17,-107.62 6638.15,-105.44 6651.46,-103.01"/>
<polygon fill="midnightblue" stroke="midnightblue" points="4262.71,-150.93 4252.7,-154.39 4262.69,-157.93 4262.71,-150.93"/>
</g>
<!-- Node51 -->
<g id="node42" class="node">
<title>Node51</title>
<g id="a_node42"><a xlink:href="RISCVMCCodeEmitter_8cpp.html" target="_top" xlink:title="lib/Target/RISCV/MCTarget\lDesc/RISCVMCCodeEmitter.cpp">
<polygon fill="none" stroke="black" points="6828,-73 6828,-103 6992,-103 6992,-73 6828,-73"/>
<text text-anchor="start" x="6836" y="-91" font-family="Helvetica,sans-Serif" font-size="10.00">lib/Target/RISCV/MCTarget</text>
<text text-anchor="middle" x="6910" y="-80" font-family="Helvetica,sans-Serif" font-size="10.00">Desc/RISCVMCCodeEmitter.cpp</text>
</a>
</g>
</g>
<!-- Node1&#45;&gt;Node51 -->
<g id="edge44" class="edge">
<title>Node1&#45;&gt;Node51</title>
<path fill="none" stroke="midnightblue" d="M4262.88,-153.5C4705.96,-151 6560.71,-138.86 6818,-109 6829.69,-107.64 6842.08,-105.47 6853.86,-103.04"/>
<polygon fill="midnightblue" stroke="midnightblue" points="4262.66,-150 4252.68,-153.56 4262.7,-157 4262.66,-150"/>
</g>
<!-- Node52 -->
<g id="node43" class="node">
<title>Node52</title>
<g id="a_node43"><a xlink:href="SparcMCCodeEmitter_8cpp.html" target="_top" xlink:title="lib/Target/Sparc/MCTarget\lDesc/SparcMCCodeEmitter.cpp">
<polygon fill="none" stroke="black" points="7010,-73 7010,-103 7168,-103 7168,-73 7010,-73"/>
<text text-anchor="start" x="7018" y="-91" font-family="Helvetica,sans-Serif" font-size="10.00">lib/Target/Sparc/MCTarget</text>
<text text-anchor="middle" x="7089" y="-80" font-family="Helvetica,sans-Serif" font-size="10.00">Desc/SparcMCCodeEmitter.cpp</text>
</a>
</g>
</g>
<!-- Node1&#45;&gt;Node52 -->
<g id="edge45" class="edge">
<title>Node1&#45;&gt;Node52</title>
<path fill="none" stroke="midnightblue" d="M4262.92,-153.66C4724.65,-151.87 6724.8,-142.21 7001,-109 7012.2,-107.65 7024.06,-105.48 7035.32,-103.06"/>
<polygon fill="midnightblue" stroke="midnightblue" points="4262.62,-150.16 4252.63,-153.7 4262.64,-157.16 4262.62,-150.16"/>
</g>
<!-- Node53 -->
<g id="node44" class="node">
<title>Node53</title>
<g id="a_node44"><a xlink:href="SystemZMCCodeEmitter_8cpp.html" target="_top" xlink:title="lib/Target/SystemZ\l/MCTargetDesc/SystemZMCCode\lEmitter.cpp">
<polygon fill="none" stroke="black" points="7186,-67.5 7186,-108.5 7354,-108.5 7354,-67.5 7186,-67.5"/>
<text text-anchor="start" x="7194" y="-96.5" font-family="Helvetica,sans-Serif" font-size="10.00">lib/Target/SystemZ</text>
<text text-anchor="start" x="7194" y="-85.5" font-family="Helvetica,sans-Serif" font-size="10.00">/MCTargetDesc/SystemZMCCode</text>
<text text-anchor="middle" x="7270" y="-74.5" font-family="Helvetica,sans-Serif" font-size="10.00">Emitter.cpp</text>
</a>
</g>
</g>
<!-- Node1&#45;&gt;Node53 -->
<g id="edge46" class="edge">
<title>Node1&#45;&gt;Node53</title>
<path fill="none" stroke="midnightblue" d="M4262.88,-153.69C4741.8,-151.99 6882.23,-142.57 7177,-109 7179.95,-108.66 7182.95,-108.28 7185.97,-107.85"/>
<polygon fill="midnightblue" stroke="midnightblue" points="4262.54,-150.19 4252.56,-153.73 4262.57,-157.19 4262.54,-150.19"/>
</g>
<!-- Node54 -->
<g id="node45" class="node">
<title>Node54</title>
<g id="a_node45"><a xlink:href="WebAssemblyMCCodeEmitter_8cpp.html" target="_top" xlink:title="This file implements the WebAssemblyMCCodeEmitter class. ">
<polygon fill="none" stroke="black" points="7372,-67.5 7372,-108.5 7564,-108.5 7564,-67.5 7372,-67.5"/>
<text text-anchor="start" x="7380" y="-96.5" font-family="Helvetica,sans-Serif" font-size="10.00">lib/Target/WebAssembly</text>
<text text-anchor="start" x="7380" y="-85.5" font-family="Helvetica,sans-Serif" font-size="10.00">/MCTargetDesc/WebAssemblyMCCode</text>
<text text-anchor="middle" x="7468" y="-74.5" font-family="Helvetica,sans-Serif" font-size="10.00">Emitter.cpp</text>
</a>
</g>
</g>
<!-- Node1&#45;&gt;Node54 -->
<g id="edge47" class="edge">
<title>Node1&#45;&gt;Node54</title>
<path fill="none" stroke="midnightblue" d="M4263.02,-153.65C4759.88,-151.68 7048.41,-140.93 7363,-109 7365.95,-108.7 7368.95,-108.36 7371.97,-107.98"/>
<polygon fill="midnightblue" stroke="midnightblue" points="4262.65,-150.15 4252.66,-153.69 4262.68,-157.15 4262.65,-150.15"/>
</g>
<!-- Node55 -->
<g id="node46" class="node">
<title>Node55</title>
<g id="a_node46"><a xlink:href="X86MCCodeEmitter_8cpp.html" target="_top" xlink:title="lib/Target/X86/MCTargetDesc\l/X86MCCodeEmitter.cpp">
<polygon fill="none" stroke="black" points="7582.5,-73 7582.5,-103 7729.5,-103 7729.5,-73 7582.5,-73"/>
<text text-anchor="start" x="7590.5" y="-91" font-family="Helvetica,sans-Serif" font-size="10.00">lib/Target/X86/MCTargetDesc</text>
<text text-anchor="middle" x="7656" y="-80" font-family="Helvetica,sans-Serif" font-size="10.00">/X86MCCodeEmitter.cpp</text>
</a>
</g>
</g>
<!-- Node1&#45;&gt;Node55 -->
<g id="edge48" class="edge">
<title>Node1&#45;&gt;Node55</title>
<path fill="none" stroke="midnightblue" d="M4262.56,-154.01C4777.94,-153.9 7237.2,-151.14 7573,-109 7583.59,-107.67 7594.79,-105.51 7605.41,-103.08"/>
<polygon fill="midnightblue" stroke="midnightblue" points="4262.56,-150.51 4252.56,-154.01 4262.56,-157.51 4262.56,-150.51"/>
</g>
<!-- Node56 -->
<g id="node47" class="node">
<title>Node56</title>
<g id="a_node47"><a xlink:href="X86WinCOFFStreamer_8cpp.html" target="_top" xlink:title="lib/Target/X86/MCTargetDesc\l/X86WinCOFFStreamer.cpp">
<polygon fill="none" stroke="black" points="7747.5,-73 7747.5,-103 7894.5,-103 7894.5,-73 7747.5,-73"/>
<text text-anchor="start" x="7755.5" y="-91" font-family="Helvetica,sans-Serif" font-size="10.00">lib/Target/X86/MCTargetDesc</text>
<text text-anchor="middle" x="7821" y="-80" font-family="Helvetica,sans-Serif" font-size="10.00">/X86WinCOFFStreamer.cpp</text>
</a>
</g>
</g>
<!-- Node1&#45;&gt;Node56 -->
<g id="edge49" class="edge">
<title>Node1&#45;&gt;Node56</title>
<path fill="none" stroke="midnightblue" d="M4262.79,-154.07C4793.5,-154.31 7384.96,-153.19 7738,-109 7748.59,-107.67 7759.79,-105.51 7770.41,-103.09"/>
<polygon fill="midnightblue" stroke="midnightblue" points="4262.5,-150.57 4252.5,-154.07 4262.5,-157.57 4262.5,-150.57"/>
</g>
<!-- Node57 -->
<g id="node48" class="node">
<title>Node57</title>
<g id="a_node48"><a xlink:href="X86AsmPrinter_8h.html" target="_top" xlink:title="lib/Target/X86/X86AsmPrinter.h">
<polygon fill="none" stroke="black" points="7951.5,-78.5 7951.5,-97.5 8106.5,-97.5 8106.5,-78.5 7951.5,-78.5"/>
<text text-anchor="middle" x="8029" y="-85.5" font-family="Helvetica,sans-Serif" font-size="10.00">lib/Target/X86/X86AsmPrinter.h</text>
</a>
</g>
</g>
<!-- Node1&#45;&gt;Node57 -->
<g id="edge50" class="edge">
<title>Node1&#45;&gt;Node57</title>
<path fill="none" stroke="midnightblue" d="M4263.16,-154.01C4812.1,-153.95 7562.67,-151.48 7937,-109 7957.3,-106.7 7979.71,-101.87 7997.33,-97.54"/>
<polygon fill="midnightblue" stroke="midnightblue" points="4262.91,-150.51 4252.91,-154.02 4262.91,-157.51 4262.91,-150.51"/>
</g>
<!-- Node58 -->
<g id="node49" class="node">
<title>Node58</title>
<g id="a_node49"><a xlink:href="X86AsmPrinter_8cpp.html" target="_top" xlink:title="lib/Target/X86/X86AsmPrinter.cpp">
<polygon fill="none" stroke="black" points="7851.5,-6 7851.5,-25 8016.5,-25 8016.5,-6 7851.5,-6"/>
<text text-anchor="middle" x="7934" y="-13" font-family="Helvetica,sans-Serif" font-size="10.00">lib/Target/X86/X86AsmPrinter.cpp</text>
</a>
</g>
</g>
<!-- Node1&#45;&gt;Node58 -->
<g id="edge53" class="edge">
<title>Node1&#45;&gt;Node58</title>
<path fill="none" stroke="midnightblue" d="M4262.92,-153.6C4841.02,-151.09 7865.08,-136.63 7903,-109 7930.24,-89.15 7933.86,-44.27 7934.13,-25.26"/>
<polygon fill="midnightblue" stroke="midnightblue" points="4262.53,-150.1 4252.55,-153.65 4262.56,-157.1 4262.53,-150.1"/>
</g>
<!-- Node59 -->
<g id="node50" class="node">
<title>Node59</title>
<g id="a_node50"><a xlink:href="X86MCInstLower_8cpp.html" target="_top" xlink:title="lib/Target/X86/X86MCInst\lLower.cpp">
<polygon fill="none" stroke="black" points="8058,-0.5 8058,-30.5 8188,-30.5 8188,-0.5 8058,-0.5"/>
<text text-anchor="start" x="8066" y="-18.5" font-family="Helvetica,sans-Serif" font-size="10.00">lib/Target/X86/X86MCInst</text>
<text text-anchor="middle" x="8123" y="-7.5" font-family="Helvetica,sans-Serif" font-size="10.00">Lower.cpp</text>
</a>
</g>
</g>
<!-- Node1&#45;&gt;Node59 -->
<g id="edge54" class="edge">
<title>Node1&#45;&gt;Node59</title>
<path fill="none" stroke="midnightblue" d="M4263.13,-153.79C4861.38,-152.35 8079.72,-143.02 8116,-109 8137.26,-89.06 8131.96,-51.08 8127.02,-30.53"/>
<polygon fill="midnightblue" stroke="midnightblue" points="4262.82,-150.29 4252.83,-153.81 4262.84,-157.29 4262.82,-150.29"/>
</g>
<!-- Node2&#45;&gt;Node3 -->
<g id="edge2" class="edge">
<title>Node2&#45;&gt;Node3</title>
<path fill="none" stroke="midnightblue" d="M105.13,-70.4C117.18,-56.24 134.02,-36.46 143.58,-25.22"/>
<polygon fill="midnightblue" stroke="midnightblue" points="102.17,-68.47 98.36,-78.36 107.5,-73.01 102.17,-68.47"/>
</g>
<!-- Node21&#45;&gt;Node23 -->
<g id="edge21" class="edge">
<title>Node21&#45;&gt;Node23</title>
<path fill="none" stroke="midnightblue" d="M3265.39,-64.71C3274.06,-53.6 3284.29,-40.49 3291.89,-30.75"/>
<polygon fill="midnightblue" stroke="midnightblue" points="3262.52,-62.7 3259.13,-72.73 3268.04,-67 3262.52,-62.7"/>
</g>
<!-- Node32&#45;&gt;Node35 -->
<g id="edge31" class="edge">
<title>Node32&#45;&gt;Node35</title>
<path fill="none" stroke="midnightblue" d="M4693.68,-64.39C4701.83,-53.34 4711.38,-40.39 4718.49,-30.75"/>
<polygon fill="midnightblue" stroke="midnightblue" points="4690.64,-62.61 4687.52,-72.73 4696.28,-66.76 4690.64,-62.61"/>
</g>
<!-- Node57&#45;&gt;Node58 -->
<g id="edge51" class="edge">
<title>Node57&#45;&gt;Node58</title>
<path fill="none" stroke="midnightblue" d="M8009.27,-72.36C7990.1,-58.13 7961.61,-36.99 7945.74,-25.22"/>
<polygon fill="midnightblue" stroke="midnightblue" points="8007.24,-75.21 8017.35,-78.36 8011.41,-69.59 8007.24,-75.21"/>
</g>
<!-- Node57&#45;&gt;Node59 -->
<g id="edge52" class="edge">
<title>Node57&#45;&gt;Node59</title>
<path fill="none" stroke="midnightblue" d="M8048.83,-72.13C8065.17,-59.87 8088.19,-42.61 8104.23,-30.58"/>
<polygon fill="midnightblue" stroke="midnightblue" points="8046.43,-69.56 8040.53,-78.36 8050.63,-75.16 8046.43,-69.56"/>
</g>
</g>
</svg>
