<?xml version="1.0" encoding="UTF-8" standalone="no"?>
<!DOCTYPE svg PUBLIC "-//W3C//DTD SVG 1.1//EN"
 "http://www.w3.org/Graphics/SVG/1.1/DTD/svg11.dtd">
<!-- Generated by graphviz version 2.43.0 (0)
 -->
<!-- Title: include/llvm/MC/MCParser/MCParsedAsmOperand.h Pages: 1 -->
<svg width="1608pt" height="375pt"
 viewBox="0.00 0.00 1608.35 375.00" xmlns="http://www.w3.org/2000/svg" xmlns:xlink="http://www.w3.org/1999/xlink">
<g id="graph0" class="graph" transform="scale(1 1) rotate(0) translate(4 371)">
<title>include/llvm/MC/MCParser/MCParsedAsmOperand.h</title>
<!-- Node0 -->
<g id="node1" class="node">
<title>Node0</title>
<polygon fill="#bfbfbf" stroke="black" points="878,-336.5 878,-366.5 1012,-366.5 1012,-336.5 878,-336.5"/>
<text text-anchor="start" x="886" y="-354.5" font-family="Helvetica,sans-Serif" font-size="10.00">include/llvm/MC/MCParser</text>
<text text-anchor="middle" x="945" y="-343.5" font-family="Helvetica,sans-Serif" font-size="10.00">/MCParsedAsmOperand.h</text>
</g>
<!-- Node1 -->
<g id="node2" class="node">
<title>Node1</title>
<g id="a_node2"><a xlink:href="StringRef_8h.html" target="_top" xlink:title="llvm/ADT/StringRef.h">
<polygon fill="none" stroke="black" points="973,-280.5 973,-299.5 1083,-299.5 1083,-280.5 973,-280.5"/>
<text text-anchor="middle" x="1028" y="-287.5" font-family="Helvetica,sans-Serif" font-size="10.00">llvm/ADT/StringRef.h</text>
</a>
</g>
</g>
<!-- Node0&#45;&gt;Node1 -->
<g id="edge1" class="edge">
<title>Node0&#45;&gt;Node1</title>
<path fill="none" stroke="midnightblue" d="M964.67,-336.4C977.6,-327.13 994.49,-315.03 1007.57,-305.65"/>
<polygon fill="midnightblue" stroke="midnightblue" points="1009.84,-308.33 1015.92,-299.66 1005.76,-302.64 1009.84,-308.33"/>
</g>
<!-- Node21 -->
<g id="node22" class="node">
<title>Node21</title>
<polygon fill="none" stroke="#bfbfbf" points="24.5,-112.5 24.5,-131.5 65.5,-131.5 65.5,-112.5 24.5,-112.5"/>
<text text-anchor="middle" x="45" y="-119.5" font-family="Helvetica,sans-Serif" font-size="10.00">string</text>
</g>
<!-- Node0&#45;&gt;Node21 -->
<g id="edge56" class="edge">
<title>Node0&#45;&gt;Node21</title>
<path fill="none" stroke="midnightblue" d="M877.88,-347.91C701.9,-340.22 231.32,-313.53 94,-244 63.43,-228.52 53.68,-219.84 41,-188 35.12,-173.23 36.91,-155.07 39.71,-141.71"/>
<polygon fill="midnightblue" stroke="midnightblue" points="43.16,-142.33 42.16,-131.79 36.37,-140.65 43.16,-142.33"/>
</g>
<!-- Node29 -->
<g id="node30" class="node">
<title>Node29</title>
<g id="a_node30"><a xlink:href="SMLoc_8h.html" target="_top" xlink:title="llvm/Support/SMLoc.h">
<polygon fill="none" stroke="black" points="888.5,-168.5 888.5,-187.5 1001.5,-187.5 1001.5,-168.5 888.5,-168.5"/>
<text text-anchor="middle" x="945" y="-175.5" font-family="Helvetica,sans-Serif" font-size="10.00">llvm/Support/SMLoc.h</text>
</a>
</g>
</g>
<!-- Node0&#45;&gt;Node29 -->
<g id="edge53" class="edge">
<title>Node0&#45;&gt;Node29</title>
<path fill="none" stroke="midnightblue" d="M945,-336.47C945,-305.7 945,-232.33 945,-197.7"/>
<polygon fill="midnightblue" stroke="midnightblue" points="948.5,-197.56 945,-187.56 941.5,-197.56 948.5,-197.56"/>
</g>
<!-- Node2 -->
<g id="node3" class="node">
<title>Node2</title>
<g id="a_node3"><a xlink:href="STLExtras_8h.html" target="_top" xlink:title="llvm/ADT/STLExtras.h">
<polygon fill="none" stroke="black" points="801,-224.5 801,-243.5 917,-243.5 917,-224.5 801,-224.5"/>
<text text-anchor="middle" x="859" y="-231.5" font-family="Helvetica,sans-Serif" font-size="10.00">llvm/ADT/STLExtras.h</text>
</a>
</g>
</g>
<!-- Node1&#45;&gt;Node2 -->
<g id="edge2" class="edge">
<title>Node1&#45;&gt;Node2</title>
<path fill="none" stroke="midnightblue" d="M1001.22,-280.44C972.67,-271.32 927.27,-256.81 895.46,-246.65"/>
<polygon fill="midnightblue" stroke="midnightblue" points="896.25,-243.23 885.65,-243.52 894.12,-249.89 896.25,-243.23"/>
</g>
<!-- Node5 -->
<g id="node6" class="node">
<title>Node5</title>
<g id="a_node6"><a xlink:href="Compiler_8h.html" target="_top" xlink:title="llvm/Support/Compiler.h">
<polygon fill="none" stroke="black" points="186,-56.5 186,-75.5 308,-75.5 308,-56.5 186,-56.5"/>
<text text-anchor="middle" x="247" y="-63.5" font-family="Helvetica,sans-Serif" font-size="10.00">llvm/Support/Compiler.h</text>
</a>
</g>
</g>
<!-- Node1&#45;&gt;Node5 -->
<g id="edge44" class="edge">
<title>Node1&#45;&gt;Node5</title>
<path fill="none" stroke="midnightblue" d="M972.88,-288.73C784.53,-287.48 173.71,-280.61 94,-244 31.87,-215.47 -28.5,-164.75 15,-112 35.11,-87.61 115.06,-76.28 175.53,-71.12"/>
<polygon fill="midnightblue" stroke="midnightblue" points="176.13,-74.59 185.82,-70.29 175.57,-67.61 176.13,-74.59"/>
</g>
<!-- Node9 -->
<g id="node10" class="node">
<title>Node9</title>
<polygon fill="none" stroke="#bfbfbf" points="383,-56.5 383,-75.5 445,-75.5 445,-56.5 383,-56.5"/>
<text text-anchor="middle" x="414" y="-63.5" font-family="Helvetica,sans-Serif" font-size="10.00">type_traits</text>
</g>
<!-- Node1&#45;&gt;Node9 -->
<g id="edge51" class="edge">
<title>Node1&#45;&gt;Node9</title>
<path fill="none" stroke="midnightblue" d="M972.76,-289.81C817.63,-290.85 383.07,-284.89 288,-188 264.1,-163.64 256.98,-139.64 277,-112 298.64,-82.12 340.75,-71.73 372.6,-68.29"/>
<polygon fill="midnightblue" stroke="midnightblue" points="373.32,-71.74 382.97,-67.37 372.7,-64.77 373.32,-71.74"/>
</g>
<!-- Node10 -->
<g id="node11" class="node">
<title>Node10</title>
<polygon fill="none" stroke="#bfbfbf" points="1030,-56.5 1030,-75.5 1070,-75.5 1070,-56.5 1030,-56.5"/>
<text text-anchor="middle" x="1050" y="-63.5" font-family="Helvetica,sans-Serif" font-size="10.00">utility</text>
</g>
<!-- Node1&#45;&gt;Node10 -->
<g id="edge52" class="edge">
<title>Node1&#45;&gt;Node10</title>
<path fill="none" stroke="midnightblue" d="M1076.89,-280.48C1126.45,-268.95 1200.57,-243.11 1235,-188 1275.29,-123.52 1200.49,-179.55 1119,-132 1097.14,-119.24 1076.64,-98.35 1063.76,-83.7"/>
<polygon fill="midnightblue" stroke="midnightblue" points="1066.26,-81.24 1057.1,-75.91 1060.93,-85.79 1066.26,-81.24"/>
</g>
<!-- Node11 -->
<g id="node12" class="node">
<title>Node11</title>
<polygon fill="none" stroke="#bfbfbf" points="825.5,-112.5 825.5,-131.5 874.5,-131.5 874.5,-112.5 825.5,-112.5"/>
<text text-anchor="middle" x="850" y="-119.5" font-family="Helvetica,sans-Serif" font-size="10.00">cassert</text>
</g>
<!-- Node1&#45;&gt;Node11 -->
<g id="edge46" class="edge">
<title>Node1&#45;&gt;Node11</title>
<path fill="none" stroke="midnightblue" d="M972.98,-287.23C848.28,-281.95 550.19,-261.72 489,-188 458.42,-151.16 427.96,-184.22 796,-132 802.15,-131.13 808.68,-130.11 814.99,-129.09"/>
<polygon fill="midnightblue" stroke="midnightblue" points="816.02,-132.47 825.31,-127.37 814.87,-125.56 816.02,-132.47"/>
</g>
<!-- Node15 -->
<g id="node16" class="node">
<title>Node15</title>
<g id="a_node16"><a xlink:href="iterator__range_8h.html" target="_top" xlink:title="This provides a very simple, boring adaptor for a begin and end iterator into a range type...">
<polygon fill="none" stroke="black" points="1174,-112.5 1174,-131.5 1302,-131.5 1302,-112.5 1174,-112.5"/>
<text text-anchor="middle" x="1238" y="-119.5" font-family="Helvetica,sans-Serif" font-size="10.00">llvm/ADT/iterator_range.h</text>
</a>
</g>
</g>
<!-- Node1&#45;&gt;Node15 -->
<g id="edge43" class="edge">
<title>Node1&#45;&gt;Node15</title>
<path fill="none" stroke="midnightblue" d="M1083.31,-287.33C1207.86,-282.27 1504.06,-262.5 1563,-188 1568.52,-181.03 1568.84,-174.7 1563,-168 1546.75,-149.34 1402.87,-135.28 1312.08,-128.17"/>
<polygon fill="midnightblue" stroke="midnightblue" points="1312.34,-124.68 1302.1,-127.4 1311.8,-131.66 1312.34,-124.68"/>
</g>
<!-- Node17 -->
<g id="node18" class="node">
<title>Node17</title>
<polygon fill="none" stroke="#bfbfbf" points="1408,-112.5 1408,-131.5 1464,-131.5 1464,-112.5 1408,-112.5"/>
<text text-anchor="middle" x="1436" y="-119.5" font-family="Helvetica,sans-Serif" font-size="10.00">algorithm</text>
</g>
<!-- Node1&#45;&gt;Node17 -->
<g id="edge45" class="edge">
<title>Node1&#45;&gt;Node17</title>
<path fill="none" stroke="midnightblue" d="M1083.29,-286.85C1189.23,-282.2 1416.94,-269.52 1491,-244 1534.83,-228.9 1556.69,-228.64 1579,-188 1583.28,-180.21 1584.26,-175.17 1579,-168 1572.6,-159.27 1514.1,-142.88 1473.94,-132.47"/>
<polygon fill="midnightblue" stroke="midnightblue" points="1474.72,-129.06 1464.17,-129.96 1472.98,-135.84 1474.72,-129.06"/>
</g>
<!-- Node18 -->
<g id="node19" class="node">
<title>Node18</title>
<polygon fill="none" stroke="#bfbfbf" points="1482.5,-112.5 1482.5,-131.5 1531.5,-131.5 1531.5,-112.5 1482.5,-112.5"/>
<text text-anchor="middle" x="1507" y="-119.5" font-family="Helvetica,sans-Serif" font-size="10.00">cstddef</text>
</g>
<!-- Node1&#45;&gt;Node18 -->
<g id="edge47" class="edge">
<title>Node1&#45;&gt;Node18</title>
<path fill="none" stroke="midnightblue" d="M1083.34,-288.45C1196.99,-286.61 1452.71,-278.64 1532,-244 1571.95,-226.55 1616.66,-205.24 1594,-168 1582.56,-149.2 1560.45,-137.9 1541.38,-131.33"/>
<polygon fill="midnightblue" stroke="midnightblue" points="1542.35,-127.97 1531.76,-128.31 1540.25,-134.65 1542.35,-127.97"/>
</g>
<!-- Node1&#45;&gt;Node21 -->
<g id="edge50" class="edge">
<title>Node1&#45;&gt;Node21</title>
<path fill="none" stroke="midnightblue" d="M972.72,-287.88C814.7,-284.37 363.1,-272.11 218,-244 141.97,-229.27 101.88,-248.07 53,-188 42.58,-175.2 41.41,-156.01 42.34,-141.8"/>
<polygon fill="midnightblue" stroke="midnightblue" points="45.84,-141.99 43.41,-131.68 38.88,-141.26 45.84,-141.99"/>
</g>
<!-- Node26 -->
<g id="node27" class="node">
<title>Node26</title>
<polygon fill="none" stroke="#bfbfbf" points="1514,-168.5 1514,-187.5 1554,-187.5 1554,-168.5 1514,-168.5"/>
<text text-anchor="middle" x="1534" y="-175.5" font-family="Helvetica,sans-Serif" font-size="10.00">limits</text>
</g>
<!-- Node1&#45;&gt;Node26 -->
<g id="edge49" class="edge">
<title>Node1&#45;&gt;Node26</title>
<path fill="none" stroke="midnightblue" d="M1077.79,-280.44C1126.44,-271.89 1202.51,-258.03 1268,-244 1371.72,-221.77 1397.17,-214.02 1500,-188 1501.27,-187.68 1502.56,-187.35 1503.86,-187.02"/>
<polygon fill="midnightblue" stroke="midnightblue" points="1505.09,-190.31 1513.88,-184.4 1503.33,-183.54 1505.09,-190.31"/>
</g>
<!-- Node28 -->
<g id="node29" class="node">
<title>Node28</title>
<polygon fill="none" stroke="#bfbfbf" points="1005,-224.5 1005,-243.5 1051,-243.5 1051,-224.5 1005,-224.5"/>
<text text-anchor="middle" x="1028" y="-231.5" font-family="Helvetica,sans-Serif" font-size="10.00">cstring</text>
</g>
<!-- Node1&#45;&gt;Node28 -->
<g id="edge48" class="edge">
<title>Node1&#45;&gt;Node28</title>
<path fill="none" stroke="midnightblue" d="M1028,-280.08C1028,-273.01 1028,-262.86 1028,-253.99"/>
<polygon fill="midnightblue" stroke="midnightblue" points="1031.5,-253.75 1028,-243.75 1024.5,-253.75 1031.5,-253.75"/>
</g>
<!-- Node3 -->
<g id="node4" class="node">
<title>Node3</title>
<g id="a_node4"><a xlink:href="Optional_8h.html" target="_top" xlink:title="llvm/ADT/Optional.h">
<polygon fill="none" stroke="black" points="336.5,-168.5 336.5,-187.5 441.5,-187.5 441.5,-168.5 336.5,-168.5"/>
<text text-anchor="middle" x="389" y="-175.5" font-family="Helvetica,sans-Serif" font-size="10.00">llvm/ADT/Optional.h</text>
</a>
</g>
</g>
<!-- Node2&#45;&gt;Node3 -->
<g id="edge3" class="edge">
<title>Node2&#45;&gt;Node3</title>
<path fill="none" stroke="midnightblue" d="M800.9,-226.32C712.01,-216.11 542.96,-196.69 451.51,-186.18"/>
<polygon fill="midnightblue" stroke="midnightblue" points="451.89,-182.7 441.56,-185.04 451.09,-189.66 451.89,-182.7"/>
</g>
<!-- Node2&#45;&gt;Node9 -->
<g id="edge41" class="edge">
<title>Node2&#45;&gt;Node9</title>
<path fill="none" stroke="midnightblue" d="M800.72,-231.51C668.26,-227.66 353.02,-215.66 314,-188 284.99,-167.44 268.56,-141.09 289,-112 307.78,-85.28 344.03,-74.35 372.68,-69.92"/>
<polygon fill="midnightblue" stroke="midnightblue" points="373.4,-73.35 382.85,-68.56 372.47,-66.42 373.4,-73.35"/>
</g>
<!-- Node2&#45;&gt;Node10 -->
<g id="edge42" class="edge">
<title>Node2&#45;&gt;Node10</title>
<path fill="none" stroke="midnightblue" d="M917.14,-228.55C948.31,-223.28 985.27,-212.01 1010,-188 1038.35,-160.48 1046.61,-112.48 1049.02,-85.96"/>
<polygon fill="midnightblue" stroke="midnightblue" points="1052.53,-85.96 1049.75,-75.73 1045.54,-85.46 1052.53,-85.96"/>
</g>
<!-- Node2&#45;&gt;Node11 -->
<g id="edge31" class="edge">
<title>Node2&#45;&gt;Node11</title>
<path fill="none" stroke="midnightblue" d="M858.3,-224.37C856.84,-206.62 853.49,-165.67 851.52,-141.6"/>
<polygon fill="midnightblue" stroke="midnightblue" points="855.01,-141.27 850.7,-131.59 848.03,-141.84 855.01,-141.27"/>
</g>
<!-- Node12 -->
<g id="node13" class="node">
<title>Node12</title>
<polygon fill="none" stroke="#bfbfbf" points="298,-112.5 298,-131.5 350,-131.5 350,-112.5 298,-112.5"/>
<text text-anchor="middle" x="324" y="-119.5" font-family="Helvetica,sans-Serif" font-size="10.00">memory</text>
</g>
<!-- Node2&#45;&gt;Node12 -->
<g id="edge39" class="edge">
<title>Node2&#45;&gt;Node12</title>
<path fill="none" stroke="midnightblue" d="M800.85,-232.32C669.61,-230.18 359.34,-221.6 327,-188 315.39,-175.94 316.22,-156.05 318.97,-141.45"/>
<polygon fill="midnightblue" stroke="midnightblue" points="322.43,-142.06 321.28,-131.53 315.61,-140.47 322.43,-142.06"/>
</g>
<!-- Node14 -->
<g id="node15" class="node">
<title>Node14</title>
<g id="a_node15"><a xlink:href="iterator_8h.html" target="_top" xlink:title="llvm/ADT/iterator.h">
<polygon fill="none" stroke="black" points="1320.5,-168.5 1320.5,-187.5 1419.5,-187.5 1419.5,-168.5 1320.5,-168.5"/>
<text text-anchor="middle" x="1370" y="-175.5" font-family="Helvetica,sans-Serif" font-size="10.00">llvm/ADT/iterator.h</text>
</a>
</g>
</g>
<!-- Node2&#45;&gt;Node14 -->
<g id="edge16" class="edge">
<title>Node2&#45;&gt;Node14</title>
<path fill="none" stroke="midnightblue" d="M917.3,-227.87C1002.71,-220.19 1166.81,-204.79 1306,-188 1307.46,-187.82 1308.94,-187.64 1310.44,-187.46"/>
<polygon fill="midnightblue" stroke="midnightblue" points="1310.94,-190.92 1320.41,-186.17 1310.05,-183.98 1310.94,-190.92"/>
</g>
<!-- Node2&#45;&gt;Node15 -->
<g id="edge25" class="edge">
<title>Node2&#45;&gt;Node15</title>
<path fill="none" stroke="midnightblue" d="M904.96,-224.44C942.84,-216.77 997.68,-204.23 1044,-188 1063.89,-181.03 1067.29,-175.47 1087,-168 1122.5,-154.54 1163.9,-142.44 1194.36,-134.19"/>
<polygon fill="midnightblue" stroke="midnightblue" points="1195.49,-137.51 1204.25,-131.54 1193.68,-130.75 1195.49,-137.51"/>
</g>
<!-- Node16 -->
<g id="node17" class="node">
<title>Node16</title>
<polygon fill="none" stroke="#bfbfbf" points="1306.5,-56.5 1306.5,-75.5 1353.5,-75.5 1353.5,-56.5 1306.5,-56.5"/>
<text text-anchor="middle" x="1330" y="-63.5" font-family="Helvetica,sans-Serif" font-size="10.00">iterator</text>
</g>
<!-- Node2&#45;&gt;Node16 -->
<g id="edge37" class="edge">
<title>Node2&#45;&gt;Node16</title>
<path fill="none" stroke="midnightblue" d="M917.04,-229.68C1007.74,-223.88 1178.54,-210.36 1235,-188 1274.01,-172.55 1286.96,-166.39 1311,-132 1320.58,-118.3 1325.38,-99.77 1327.75,-85.99"/>
<polygon fill="midnightblue" stroke="midnightblue" points="1331.27,-86.15 1329.23,-75.76 1324.34,-85.16 1331.27,-86.15"/>
</g>
<!-- Node2&#45;&gt;Node17 -->
<g id="edge30" class="edge">
<title>Node2&#45;&gt;Node17</title>
<path fill="none" stroke="midnightblue" d="M917.05,-228.9C1061.23,-218.65 1424.44,-192.43 1429,-188 1441.07,-176.28 1441.51,-156.34 1439.74,-141.63"/>
<polygon fill="midnightblue" stroke="midnightblue" points="1443.17,-140.93 1438.11,-131.62 1436.26,-142.05 1443.17,-140.93"/>
</g>
<!-- Node2&#45;&gt;Node18 -->
<g id="edge32" class="edge">
<title>Node2&#45;&gt;Node18</title>
<path fill="none" stroke="midnightblue" d="M917.07,-229.13C1063.34,-219.31 1436.16,-193.79 1448,-188 1469.31,-177.57 1486.53,-155.79 1496.74,-140.32"/>
<polygon fill="midnightblue" stroke="midnightblue" points="1499.82,-141.99 1502.17,-131.66 1493.89,-138.27 1499.82,-141.99"/>
</g>
<!-- Node19 -->
<g id="node20" class="node">
<title>Node19</title>
<polygon fill="none" stroke="#bfbfbf" points="1096,-168.5 1096,-187.5 1226,-187.5 1226,-168.5 1096,-168.5"/>
<text text-anchor="middle" x="1161" y="-175.5" font-family="Helvetica,sans-Serif" font-size="10.00">llvm/Config/abi&#45;breaking.h</text>
</g>
<!-- Node2&#45;&gt;Node19 -->
<g id="edge26" class="edge">
<title>Node2&#45;&gt;Node19</title>
<path fill="none" stroke="midnightblue" d="M906.85,-224.44C960.2,-214.9 1046.45,-199.48 1103.44,-189.29"/>
<polygon fill="midnightblue" stroke="midnightblue" points="1104.14,-192.72 1113.37,-187.52 1102.91,-185.83 1104.14,-192.72"/>
</g>
<!-- Node20 -->
<g id="node21" class="node">
<title>Node20</title>
<g id="a_node21"><a xlink:href="Support_2ErrorHandling_8h.html" target="_top" xlink:title="llvm/Support/ErrorHandling.h">
<polygon fill="none" stroke="black" points="62,-168.5 62,-187.5 204,-187.5 204,-168.5 62,-168.5"/>
<text text-anchor="middle" x="133" y="-175.5" font-family="Helvetica,sans-Serif" font-size="10.00">llvm/Support/ErrorHandling.h</text>
</a>
</g>
</g>
<!-- Node2&#45;&gt;Node20 -->
<g id="edge27" class="edge">
<title>Node2&#45;&gt;Node20</title>
<path fill="none" stroke="midnightblue" d="M800.82,-228.67C672.01,-219.09 362.49,-196.07 214.49,-185.06"/>
<polygon fill="midnightblue" stroke="midnightblue" points="214.35,-181.54 204.12,-184.29 213.83,-188.52 214.35,-181.54"/>
</g>
<!-- Node22 -->
<g id="node23" class="node">
<title>Node22</title>
<polygon fill="none" stroke="#bfbfbf" points="498,-168.5 498,-187.5 544,-187.5 544,-168.5 498,-168.5"/>
<text text-anchor="middle" x="521" y="-175.5" font-family="Helvetica,sans-Serif" font-size="10.00">cstdint</text>
</g>
<!-- Node2&#45;&gt;Node22 -->
<g id="edge33" class="edge">
<title>Node2&#45;&gt;Node22</title>
<path fill="none" stroke="midnightblue" d="M800.8,-226.69C741.12,-219.72 645.49,-207.15 554.28,-188.05"/>
<polygon fill="midnightblue" stroke="midnightblue" points="554.84,-184.59 544.33,-185.94 553.39,-191.44 554.84,-184.59"/>
</g>
<!-- Node23 -->
<g id="node24" class="node">
<title>Node23</title>
<polygon fill="none" stroke="#bfbfbf" points="562.5,-168.5 562.5,-187.5 607.5,-187.5 607.5,-168.5 562.5,-168.5"/>
<text text-anchor="middle" x="585" y="-175.5" font-family="Helvetica,sans-Serif" font-size="10.00">cstdlib</text>
</g>
<!-- Node2&#45;&gt;Node23 -->
<g id="edge34" class="edge">
<title>Node2&#45;&gt;Node23</title>
<path fill="none" stroke="midnightblue" d="M804.15,-224.44C756.91,-216.71 686.73,-204.37 617.4,-188.16"/>
<polygon fill="midnightblue" stroke="midnightblue" points="618.16,-184.74 607.62,-185.85 616.55,-191.56 618.16,-184.74"/>
</g>
<!-- Node24 -->
<g id="node25" class="node">
<title>Node24</title>
<polygon fill="none" stroke="#bfbfbf" points="625.5,-168.5 625.5,-187.5 684.5,-187.5 684.5,-168.5 625.5,-168.5"/>
<text text-anchor="middle" x="655" y="-175.5" font-family="Helvetica,sans-Serif" font-size="10.00">functional</text>
</g>
<!-- Node2&#45;&gt;Node24 -->
<g id="edge35" class="edge">
<title>Node2&#45;&gt;Node24</title>
<path fill="none" stroke="midnightblue" d="M826.68,-224.44C790.79,-214.94 732.85,-199.61 694.35,-189.42"/>
<polygon fill="midnightblue" stroke="midnightblue" points="695.09,-185.99 684.53,-186.82 693.3,-192.76 695.09,-185.99"/>
</g>
<!-- Node25 -->
<g id="node26" class="node">
<title>Node25</title>
<polygon fill="none" stroke="#bfbfbf" points="702.5,-168.5 702.5,-187.5 775.5,-187.5 775.5,-168.5 702.5,-168.5"/>
<text text-anchor="middle" x="739" y="-175.5" font-family="Helvetica,sans-Serif" font-size="10.00">initializer_list</text>
</g>
<!-- Node2&#45;&gt;Node25 -->
<g id="edge36" class="edge">
<title>Node2&#45;&gt;Node25</title>
<path fill="none" stroke="midnightblue" d="M839.99,-224.44C820.41,-215.64 789.69,-201.81 767.27,-191.72"/>
<polygon fill="midnightblue" stroke="midnightblue" points="768.48,-188.43 757.93,-187.52 765.61,-194.81 768.48,-188.43"/>
</g>
<!-- Node2&#45;&gt;Node26 -->
<g id="edge38" class="edge">
<title>Node2&#45;&gt;Node26</title>
<path fill="none" stroke="midnightblue" d="M917.21,-229.06C1072.47,-218.53 1485.71,-190.37 1500,-188 1501.26,-187.79 1502.53,-187.56 1503.81,-187.3"/>
<polygon fill="midnightblue" stroke="midnightblue" points="1504.67,-190.7 1513.64,-185.06 1503.11,-183.87 1504.67,-190.7"/>
</g>
<!-- Node27 -->
<g id="node28" class="node">
<title>Node27</title>
<polygon fill="none" stroke="#bfbfbf" points="794,-168.5 794,-187.5 832,-187.5 832,-168.5 794,-168.5"/>
<text text-anchor="middle" x="813" y="-175.5" font-family="Helvetica,sans-Serif" font-size="10.00">tuple</text>
</g>
<!-- Node2&#45;&gt;Node27 -->
<g id="edge40" class="edge">
<title>Node2&#45;&gt;Node27</title>
<path fill="none" stroke="midnightblue" d="M851.41,-224.08C844.77,-216.3 834.98,-204.8 826.94,-195.37"/>
<polygon fill="midnightblue" stroke="midnightblue" points="829.61,-193.09 820.46,-187.75 824.28,-197.63 829.61,-193.09"/>
</g>
<!-- Node4 -->
<g id="node5" class="node">
<title>Node4</title>
<g id="a_node5"><a xlink:href="None_8h.html" target="_top" xlink:title="llvm/ADT/None.h">
<polygon fill="none" stroke="black" points="695,-112.5 695,-131.5 787,-131.5 787,-112.5 695,-112.5"/>
<text text-anchor="middle" x="741" y="-119.5" font-family="Helvetica,sans-Serif" font-size="10.00">llvm/ADT/None.h</text>
</a>
</g>
</g>
<!-- Node3&#45;&gt;Node4 -->
<g id="edge4" class="edge">
<title>Node3&#45;&gt;Node4</title>
<path fill="none" stroke="midnightblue" d="M441.7,-168.92C507.1,-158.88 618.15,-141.85 685.03,-131.59"/>
<polygon fill="midnightblue" stroke="midnightblue" points="685.61,-135.04 694.97,-130.06 684.55,-128.12 685.61,-135.04"/>
</g>
<!-- Node3&#45;&gt;Node5 -->
<g id="edge5" class="edge">
<title>Node3&#45;&gt;Node5</title>
<path fill="none" stroke="midnightblue" d="M387.15,-168.21C383.82,-154.44 375.57,-127.76 359,-112 342.16,-95.98 318.88,-85.4 297.91,-78.54"/>
<polygon fill="midnightblue" stroke="midnightblue" points="298.74,-75.14 288.15,-75.56 296.69,-81.83 298.74,-75.14"/>
</g>
<!-- Node8 -->
<g id="node9" class="node">
<title>Node8</title>
<g id="a_node9"><a xlink:href="type__traits_8h.html" target="_top" xlink:title="llvm/Support/type_traits.h">
<polygon fill="none" stroke="black" points="406,-112.5 406,-131.5 534,-131.5 534,-112.5 406,-112.5"/>
<text text-anchor="middle" x="470" y="-119.5" font-family="Helvetica,sans-Serif" font-size="10.00">llvm/Support/type_traits.h</text>
</a>
</g>
</g>
<!-- Node3&#45;&gt;Node8 -->
<g id="edge8" class="edge">
<title>Node3&#45;&gt;Node8</title>
<path fill="none" stroke="midnightblue" d="M402.02,-168.32C414.53,-159.98 433.68,-147.21 448.47,-137.35"/>
<polygon fill="midnightblue" stroke="midnightblue" points="450.64,-140.11 457.02,-131.65 446.76,-134.29 450.64,-140.11"/>
</g>
<!-- Node3&#45;&gt;Node10 -->
<g id="edge15" class="edge">
<title>Node3&#45;&gt;Node10</title>
<path fill="none" stroke="midnightblue" d="M428.7,-168.43C470.38,-159.41 537.81,-144.79 596,-132 636.02,-123.2 645.62,-118.97 686,-112 809.08,-90.77 957.25,-75.65 1019.8,-69.75"/>
<polygon fill="midnightblue" stroke="midnightblue" points="1020.15,-73.23 1029.78,-68.81 1019.5,-66.26 1020.15,-73.23"/>
</g>
<!-- Node3&#45;&gt;Node11 -->
<g id="edge12" class="edge">
<title>Node3&#45;&gt;Node11</title>
<path fill="none" stroke="midnightblue" d="M441.65,-169.79C446.5,-169.16 451.34,-168.56 456,-168 606.87,-149.88 645.43,-152.5 796,-132 802.16,-131.16 808.69,-130.17 815,-129.15"/>
<polygon fill="midnightblue" stroke="midnightblue" points="816.03,-132.52 825.32,-127.43 814.88,-125.62 816.03,-132.52"/>
</g>
<!-- Node3&#45;&gt;Node12 -->
<g id="edge13" class="edge">
<title>Node3&#45;&gt;Node12</title>
<path fill="none" stroke="midnightblue" d="M378.56,-168.32C368.86,-160.26 354.19,-148.08 342.5,-138.37"/>
<polygon fill="midnightblue" stroke="midnightblue" points="344.56,-135.53 334.63,-131.83 340.09,-140.92 344.56,-135.53"/>
</g>
<!-- Node13 -->
<g id="node14" class="node">
<title>Node13</title>
<polygon fill="none" stroke="#bfbfbf" points="552.5,-112.5 552.5,-131.5 587.5,-131.5 587.5,-112.5 552.5,-112.5"/>
<text text-anchor="middle" x="570" y="-119.5" font-family="Helvetica,sans-Serif" font-size="10.00">new</text>
</g>
<!-- Node3&#45;&gt;Node13 -->
<g id="edge14" class="edge">
<title>Node3&#45;&gt;Node13</title>
<path fill="none" stroke="midnightblue" d="M419.49,-168.45C448.69,-160.19 494.19,-147.11 542.6,-132.04"/>
<polygon fill="midnightblue" stroke="midnightblue" points="543.81,-135.33 552.31,-129 541.72,-128.65 543.81,-135.33"/>
</g>
<!-- Node6 -->
<g id="node7" class="node">
<title>Node6</title>
<polygon fill="none" stroke="#bfbfbf" points="131.5,-0.5 131.5,-19.5 256.5,-19.5 256.5,-0.5 131.5,-0.5"/>
<text text-anchor="middle" x="194" y="-7.5" font-family="Helvetica,sans-Serif" font-size="10.00">llvm/Config/llvm&#45;config.h</text>
</g>
<!-- Node5&#45;&gt;Node6 -->
<g id="edge6" class="edge">
<title>Node5&#45;&gt;Node6</title>
<path fill="none" stroke="midnightblue" d="M238.25,-56.08C230.53,-48.22 219.1,-36.57 209.78,-27.08"/>
<polygon fill="midnightblue" stroke="midnightblue" points="212.09,-24.44 202.59,-19.75 207.1,-29.34 212.09,-24.44"/>
</g>
<!-- Node7 -->
<g id="node8" class="node">
<title>Node7</title>
<polygon fill="none" stroke="#bfbfbf" points="275,-0.5 275,-19.5 327,-19.5 327,-0.5 275,-0.5"/>
<text text-anchor="middle" x="301" y="-7.5" font-family="Helvetica,sans-Serif" font-size="10.00">stddef.h</text>
</g>
<!-- Node5&#45;&gt;Node7 -->
<g id="edge7" class="edge">
<title>Node5&#45;&gt;Node7</title>
<path fill="none" stroke="midnightblue" d="M255.92,-56.08C263.78,-48.22 275.43,-36.57 284.92,-27.08"/>
<polygon fill="midnightblue" stroke="midnightblue" points="287.65,-29.3 292.25,-19.75 282.7,-24.35 287.65,-29.3"/>
</g>
<!-- Node8&#45;&gt;Node5 -->
<g id="edge9" class="edge">
<title>Node8&#45;&gt;Node5</title>
<path fill="none" stroke="midnightblue" d="M434.67,-112.44C396.09,-103.1 334.22,-88.12 292.15,-77.93"/>
<polygon fill="midnightblue" stroke="midnightblue" points="292.71,-74.47 282.17,-75.52 291.07,-81.27 292.71,-74.47"/>
</g>
<!-- Node8&#45;&gt;Node9 -->
<g id="edge10" class="edge">
<title>Node8&#45;&gt;Node9</title>
<path fill="none" stroke="midnightblue" d="M461,-112.32C452.81,-104.42 440.5,-92.55 430.53,-82.94"/>
<polygon fill="midnightblue" stroke="midnightblue" points="432.79,-80.26 423.16,-75.83 427.93,-85.29 432.79,-80.26"/>
</g>
<!-- Node8&#45;&gt;Node10 -->
<g id="edge11" class="edge">
<title>Node8&#45;&gt;Node10</title>
<path fill="none" stroke="midnightblue" d="M534.08,-112.97C537.1,-112.64 540.08,-112.31 543,-112 723.44,-92.87 940.61,-75.48 1019.5,-69.34"/>
<polygon fill="midnightblue" stroke="midnightblue" points="1019.99,-72.81 1029.69,-68.55 1019.45,-65.84 1019.99,-72.81"/>
</g>
<!-- Node14&#45;&gt;Node9 -->
<g id="edge23" class="edge">
<title>Node14&#45;&gt;Node9</title>
<path fill="none" stroke="midnightblue" d="M1320.3,-169.75C1232.28,-157.04 1043.17,-130.37 883,-112 725.32,-93.92 537.23,-77.39 455.41,-70.45"/>
<polygon fill="midnightblue" stroke="midnightblue" points="455.31,-66.93 445.05,-69.58 454.72,-73.91 455.31,-66.93"/>
</g>
<!-- Node14&#45;&gt;Node10 -->
<g id="edge24" class="edge">
<title>Node14&#45;&gt;Node10</title>
<path fill="none" stroke="midnightblue" d="M1320.35,-170.35C1278.07,-163.7 1216.22,-151.59 1165,-132 1129.98,-118.61 1092.79,-95.81 1070.49,-81.09"/>
<polygon fill="midnightblue" stroke="midnightblue" points="1072.41,-78.16 1062.16,-75.5 1068.52,-83.98 1072.41,-78.16"/>
</g>
<!-- Node14&#45;&gt;Node15 -->
<g id="edge17" class="edge">
<title>Node14&#45;&gt;Node15</title>
<path fill="none" stroke="midnightblue" d="M1349.09,-168.44C1327.27,-159.52 1292.85,-145.44 1268.11,-135.32"/>
<polygon fill="midnightblue" stroke="midnightblue" points="1269.4,-132.06 1258.82,-131.52 1266.75,-138.54 1269.4,-132.06"/>
</g>
<!-- Node14&#45;&gt;Node16 -->
<g id="edge22" class="edge">
<title>Node14&#45;&gt;Node16</title>
<path fill="none" stroke="midnightblue" d="M1366.86,-168.37C1360.38,-150.54 1345.38,-109.3 1336.65,-85.27"/>
<polygon fill="midnightblue" stroke="midnightblue" points="1339.83,-83.79 1333.13,-75.59 1333.25,-86.19 1339.83,-83.79"/>
</g>
<!-- Node14&#45;&gt;Node17 -->
<g id="edge20" class="edge">
<title>Node14&#45;&gt;Node17</title>
<path fill="none" stroke="midnightblue" d="M1380.61,-168.32C1390.46,-160.26 1405.35,-148.08 1417.22,-138.37"/>
<polygon fill="midnightblue" stroke="midnightblue" points="1419.68,-140.88 1425.2,-131.83 1415.25,-135.46 1419.68,-140.88"/>
</g>
<!-- Node14&#45;&gt;Node18 -->
<g id="edge21" class="edge">
<title>Node14&#45;&gt;Node18</title>
<path fill="none" stroke="midnightblue" d="M1391.71,-168.44C1414.36,-159.52 1450.07,-145.44 1475.75,-135.32"/>
<polygon fill="midnightblue" stroke="midnightblue" points="1477.38,-138.44 1485.4,-131.52 1474.81,-131.93 1477.38,-138.44"/>
</g>
<!-- Node15&#45;&gt;Node10 -->
<g id="edge19" class="edge">
<title>Node15&#45;&gt;Node10</title>
<path fill="none" stroke="midnightblue" d="M1208.21,-112.44C1173.06,-102.35 1114.97,-85.66 1079.81,-75.56"/>
<polygon fill="midnightblue" stroke="midnightblue" points="1080.69,-72.17 1070.11,-72.78 1078.76,-78.9 1080.69,-72.17"/>
</g>
<!-- Node15&#45;&gt;Node16 -->
<g id="edge18" class="edge">
<title>Node15&#45;&gt;Node16</title>
<path fill="none" stroke="midnightblue" d="M1252.78,-112.32C1267.27,-103.82 1289.57,-90.73 1306.49,-80.8"/>
<polygon fill="midnightblue" stroke="midnightblue" points="1308.4,-83.74 1315.26,-75.65 1304.86,-77.7 1308.4,-83.74"/>
</g>
<!-- Node20&#45;&gt;Node5 -->
<g id="edge28" class="edge">
<title>Node20&#45;&gt;Node5</title>
<path fill="none" stroke="midnightblue" d="M141.95,-168.37C161.09,-149.89 206.28,-106.29 230.69,-82.74"/>
<polygon fill="midnightblue" stroke="midnightblue" points="233.33,-85.05 238.1,-75.59 228.47,-80.02 233.33,-85.05"/>
</g>
<!-- Node20&#45;&gt;Node21 -->
<g id="edge29" class="edge">
<title>Node20&#45;&gt;Node21</title>
<path fill="none" stroke="midnightblue" d="M118.86,-168.32C105.14,-159.9 84.07,-146.97 67.94,-137.07"/>
<polygon fill="midnightblue" stroke="midnightblue" points="69.46,-133.9 59.11,-131.65 65.8,-139.87 69.46,-133.9"/>
</g>
<!-- Node29&#45;&gt;Node4 -->
<g id="edge54" class="edge">
<title>Node29&#45;&gt;Node4</title>
<path fill="none" stroke="midnightblue" d="M912.68,-168.44C877.61,-159.16 821.5,-144.31 783.04,-134.13"/>
<polygon fill="midnightblue" stroke="midnightblue" points="783.74,-130.69 773.17,-131.52 781.95,-137.46 783.74,-130.69"/>
</g>
<!-- Node29&#45;&gt;Node11 -->
<g id="edge55" class="edge">
<title>Node29&#45;&gt;Node11</title>
<path fill="none" stroke="midnightblue" d="M929.74,-168.32C914.78,-159.82 891.75,-146.73 874.27,-136.8"/>
<polygon fill="midnightblue" stroke="midnightblue" points="875.65,-133.55 865.23,-131.65 872.19,-139.64 875.65,-133.55"/>
</g>
</g>
</svg>
