<?xml version="1.0" encoding="UTF-8" standalone="no"?>
<!DOCTYPE svg PUBLIC "-//W3C//DTD SVG 1.1//EN"
 "http://www.w3.org/Graphics/SVG/1.1/DTD/svg11.dtd">
<!-- Generated by graphviz version 2.43.0 (0)
 -->
<!-- Title: include/llvm/MC/MCValue.h Pages: 1 -->
<svg width="4028pt" height="767pt"
 viewBox="0.00 0.00 4028.00 767.00" xmlns="http://www.w3.org/2000/svg" xmlns:xlink="http://www.w3.org/1999/xlink">
<g id="graph0" class="graph" transform="scale(1 1) rotate(0) translate(4 763)">
<title>include/llvm/MC/MCValue.h</title>
<!-- Node0 -->
<g id="node1" class="node">
<title>Node0</title>
<polygon fill="#bfbfbf" stroke="black" points="3707.5,-739.5 3707.5,-758.5 3846.5,-758.5 3846.5,-739.5 3707.5,-739.5"/>
<text text-anchor="middle" x="3777" y="-746.5" font-family="Helvetica,sans-Serif" font-size="10.00">include/llvm/MC/MCValue.h</text>
</g>
<!-- Node1 -->
<g id="node2" class="node">
<title>Node1</title>
<g id="a_node2"><a xlink:href="MCExpr_8h.html" target="_top" xlink:title="llvm/MC/MCExpr.h">
<polygon fill="none" stroke="black" points="3112.5,-515.5 3112.5,-534.5 3213.5,-534.5 3213.5,-515.5 3112.5,-515.5"/>
<text text-anchor="middle" x="3163" y="-522.5" font-family="Helvetica,sans-Serif" font-size="10.00">llvm/MC/MCExpr.h</text>
</a>
</g>
</g>
<!-- Node0&#45;&gt;Node1 -->
<g id="edge1" class="edge">
<title>Node0&#45;&gt;Node1</title>
<path fill="none" stroke="midnightblue" d="M3715.28,-739.49C3579.04,-719.5 3258.58,-665.59 3182,-591 3169.77,-579.09 3165.3,-559.78 3163.72,-545.3"/>
<polygon fill="midnightblue" stroke="midnightblue" points="3167.19,-544.68 3162.99,-534.95 3160.21,-545.17 3167.19,-544.68"/>
</g>
<!-- Node6 -->
<g id="node16" class="node">
<title>Node6</title>
<g id="a_node16"><a xlink:href="Support_2DataTypes_8h.html" target="_top" xlink:title="llvm/Support/DataTypes.h">
<polygon fill="none" stroke="black" points="3631.5,-112.5 3631.5,-131.5 3762.5,-131.5 3762.5,-112.5 3631.5,-112.5"/>
<text text-anchor="middle" x="3697" y="-119.5" font-family="Helvetica,sans-Serif" font-size="10.00">llvm/Support/DataTypes.h</text>
</a>
</g>
</g>
<!-- Node0&#45;&gt;Node6 -->
<g id="edge191" class="edge">
<title>Node0&#45;&gt;Node6</title>
<path fill="none" stroke="midnightblue" d="M3846.63,-745.21C3918.44,-738.16 4020,-714.64 4020,-638 4020,-638 4020,-638 4020,-238.5 4020,-184.77 3859.56,-149.41 3764.83,-133.21"/>
<polygon fill="midnightblue" stroke="midnightblue" points="3765.19,-129.72 3754.75,-131.51 3764.03,-136.62 3765.19,-129.72"/>
</g>
<!-- Node24 -->
<g id="node22" class="node">
<title>Node24</title>
<polygon fill="none" stroke="#bfbfbf" points="2824.5,-168.5 2824.5,-187.5 2873.5,-187.5 2873.5,-168.5 2824.5,-168.5"/>
<text text-anchor="middle" x="2849" y="-175.5" font-family="Helvetica,sans-Serif" font-size="10.00">cassert</text>
</g>
<!-- Node0&#45;&gt;Node24 -->
<g id="edge192" class="edge">
<title>Node0&#45;&gt;Node24</title>
<path fill="none" stroke="midnightblue" d="M3846.69,-739.55C3906.12,-727.99 3982,-700.91 3982,-638 3982,-638 3982,-638 3982,-524 3982,-378.49 3883.42,-353.46 3752,-291 3676.4,-255.07 3657.81,-241.68 3576,-224 3441.48,-194.94 3010.17,-182.76 2883.99,-179.77"/>
<polygon fill="midnightblue" stroke="midnightblue" points="2883.83,-176.27 2873.75,-179.53 2883.66,-183.26 2883.83,-176.27"/>
</g>
<!-- Node55 -->
<g id="node40" class="node">
<title>Node55</title>
<g id="a_node40"><a xlink:href="MCSymbol_8h.html" target="_top" xlink:title="llvm/MC/MCSymbol.h">
<polygon fill="none" stroke="black" points="1752.5,-683.5 1752.5,-702.5 1865.5,-702.5 1865.5,-683.5 1752.5,-683.5"/>
<text text-anchor="middle" x="1809" y="-690.5" font-family="Helvetica,sans-Serif" font-size="10.00">llvm/MC/MCSymbol.h</text>
</a>
</g>
</g>
<!-- Node0&#45;&gt;Node55 -->
<g id="edge114" class="edge">
<title>Node0&#45;&gt;Node55</title>
<path fill="none" stroke="midnightblue" d="M3707.25,-746.09C3400.86,-737.68 2176.32,-704.08 1875.84,-695.83"/>
<polygon fill="midnightblue" stroke="midnightblue" points="1875.63,-692.33 1865.54,-695.55 1875.44,-699.32 1875.63,-692.33"/>
</g>
<!-- Node2 -->
<g id="node3" class="node">
<title>Node2</title>
<g id="a_node3"><a xlink:href="DenseMap_8h.html" target="_top" xlink:title="llvm/ADT/DenseMap.h">
<polygon fill="none" stroke="black" points="2376,-459.5 2376,-478.5 2492,-478.5 2492,-459.5 2376,-459.5"/>
<text text-anchor="middle" x="2434" y="-466.5" font-family="Helvetica,sans-Serif" font-size="10.00">llvm/ADT/DenseMap.h</text>
</a>
</g>
</g>
<!-- Node1&#45;&gt;Node2 -->
<g id="edge2" class="edge">
<title>Node1&#45;&gt;Node2</title>
<path fill="none" stroke="midnightblue" d="M3112.32,-520.25C2984.22,-510.76 2647.37,-485.81 2502.19,-475.05"/>
<polygon fill="midnightblue" stroke="midnightblue" points="2502.3,-471.55 2492.07,-474.3 2501.78,-478.53 2502.3,-471.55"/>
</g>
<!-- Node43 -->
<g id="node34" class="node">
<title>Node43</title>
<polygon fill="none" stroke="#bfbfbf" points="3120,-230 3120,-249 3166,-249 3166,-230 3120,-230"/>
<text text-anchor="middle" x="3143" y="-237" font-family="Helvetica,sans-Serif" font-size="10.00">cstdint</text>
</g>
<!-- Node1&#45;&gt;Node43 -->
<g id="edge113" class="edge">
<title>Node1&#45;&gt;Node43</title>
<path fill="none" stroke="midnightblue" d="M3165.2,-515.34C3174.66,-478.05 3211.51,-332.05 3214,-311 3215.04,-302.17 3218.08,-298.9 3214,-291 3208.82,-280.95 3185.46,-265.41 3166.94,-254.22"/>
<polygon fill="midnightblue" stroke="midnightblue" points="3168.72,-251.21 3158.33,-249.12 3165.15,-257.23 3168.72,-251.21"/>
</g>
<!-- Node54 -->
<g id="node39" class="node">
<title>Node54</title>
<g id="a_node39"><a xlink:href="SMLoc_8h.html" target="_top" xlink:title="llvm/Support/SMLoc.h">
<polygon fill="none" stroke="black" points="3270.5,-347.5 3270.5,-366.5 3383.5,-366.5 3383.5,-347.5 3270.5,-347.5"/>
<text text-anchor="middle" x="3327" y="-354.5" font-family="Helvetica,sans-Serif" font-size="10.00">llvm/Support/SMLoc.h</text>
</a>
</g>
</g>
<!-- Node1&#45;&gt;Node54 -->
<g id="edge110" class="edge">
<title>Node1&#45;&gt;Node54</title>
<path fill="none" stroke="midnightblue" d="M3166.77,-515.34C3177.69,-490.57 3209.72,-420.11 3228,-403 3244.27,-387.77 3266.59,-377.02 3285.92,-369.85"/>
<polygon fill="midnightblue" stroke="midnightblue" points="3287.14,-373.13 3295.41,-366.52 3284.82,-366.53 3287.14,-373.13"/>
</g>
<!-- Node3 -->
<g id="node4" class="node">
<title>Node3</title>
<g id="a_node4"><a xlink:href="DenseMapInfo_8h.html" target="_top" xlink:title="llvm/ADT/DenseMapInfo.h">
<polygon fill="none" stroke="red" points="3308.5,-403.5 3308.5,-422.5 3441.5,-422.5 3441.5,-403.5 3308.5,-403.5"/>
<text text-anchor="middle" x="3375" y="-410.5" font-family="Helvetica,sans-Serif" font-size="10.00">llvm/ADT/DenseMapInfo.h</text>
</a>
</g>
</g>
<!-- Node2&#45;&gt;Node3 -->
<g id="edge3" class="edge">
<title>Node2&#45;&gt;Node3</title>
<path fill="none" stroke="midnightblue" d="M2492.15,-464.66C2654.87,-455.33 3114.81,-428.93 3298.16,-418.41"/>
<polygon fill="midnightblue" stroke="midnightblue" points="3298.48,-421.9 3308.26,-417.83 3298.08,-414.91 3298.48,-421.9"/>
</g>
<!-- Node29 -->
<g id="node9" class="node">
<title>Node29</title>
<polygon fill="none" stroke="#bfbfbf" points="687.5,-112.5 687.5,-131.5 734.5,-131.5 734.5,-112.5 687.5,-112.5"/>
<text text-anchor="middle" x="711" y="-119.5" font-family="Helvetica,sans-Serif" font-size="10.00">iterator</text>
</g>
<!-- Node2&#45;&gt;Node29 -->
<g id="edge106" class="edge">
<title>Node2&#45;&gt;Node29</title>
<path fill="none" stroke="midnightblue" d="M2375.98,-467.99C2056.09,-467.8 514.54,-464.7 307,-423 163.21,-394.11 0,-448.66 0,-302 0,-302 0,-302 0,-238.5 0,-155.88 91.68,-187.33 172,-168 358.92,-123.02 591.62,-121.2 677.31,-122.28"/>
<polygon fill="midnightblue" stroke="midnightblue" points="677.43,-125.78 687.48,-122.43 677.54,-118.78 677.43,-125.78"/>
</g>
<!-- Node22 -->
<g id="node10" class="node">
<title>Node22</title>
<polygon fill="none" stroke="#bfbfbf" points="2384,-112.5 2384,-131.5 2424,-131.5 2424,-112.5 2384,-112.5"/>
<text text-anchor="middle" x="2404" y="-119.5" font-family="Helvetica,sans-Serif" font-size="10.00">utility</text>
</g>
<!-- Node2&#45;&gt;Node22 -->
<g id="edge109" class="edge">
<title>Node2&#45;&gt;Node22</title>
<path fill="none" stroke="midnightblue" d="M2492.31,-467.5C2726.79,-465.25 3590.7,-454.86 3639,-423 3691.77,-388.19 3729.51,-341.89 3692,-291 3582.4,-142.31 3476.88,-200.24 3295,-168 3124.24,-137.73 2570.45,-125.98 2434.4,-123.52"/>
<polygon fill="midnightblue" stroke="midnightblue" points="2434.34,-120.01 2424.28,-123.34 2434.21,-127.01 2434.34,-120.01"/>
</g>
<!-- Node30 -->
<g id="node11" class="node">
<title>Node30</title>
<g id="a_node11"><a xlink:href="AlignOf_8h.html" target="_top" xlink:title="llvm/Support/AlignOf.h">
<polygon fill="none" stroke="black" points="2432.5,-168.5 2432.5,-187.5 2547.5,-187.5 2547.5,-168.5 2432.5,-168.5"/>
<text text-anchor="middle" x="2490" y="-175.5" font-family="Helvetica,sans-Serif" font-size="10.00">llvm/Support/AlignOf.h</text>
</a>
</g>
</g>
<!-- Node2&#45;&gt;Node30 -->
<g id="edge95" class="edge">
<title>Node2&#45;&gt;Node30</title>
<path fill="none" stroke="midnightblue" d="M2434.25,-459.43C2435.59,-430.83 2443.92,-337.77 2496,-291 2548.3,-244.03 2606.32,-310.07 2650,-255 2679.84,-217.38 2613.77,-197.38 2557.68,-187.5"/>
<polygon fill="midnightblue" stroke="midnightblue" points="2558.15,-184.03 2547.71,-185.83 2556.99,-190.93 2558.15,-184.03"/>
</g>
<!-- Node13 -->
<g id="node12" class="node">
<title>Node13</title>
<g id="a_node12"><a xlink:href="Compiler_8h.html" target="_top" xlink:title="llvm/Support/Compiler.h">
<polygon fill="none" stroke="red" points="907,-112.5 907,-131.5 1029,-131.5 1029,-112.5 907,-112.5"/>
<text text-anchor="middle" x="968" y="-119.5" font-family="Helvetica,sans-Serif" font-size="10.00">llvm/Support/Compiler.h</text>
</a>
</g>
</g>
<!-- Node2&#45;&gt;Node13 -->
<g id="edge96" class="edge">
<title>Node2&#45;&gt;Node13</title>
<path fill="none" stroke="midnightblue" d="M2375.94,-467.7C2050.12,-465.89 460.09,-455.42 362,-423 259.93,-389.27 224.24,-356.2 188,-255 173.78,-215.28 189.33,-188.88 226,-168 240.46,-159.76 713.7,-135.57 896.72,-126.49"/>
<polygon fill="midnightblue" stroke="midnightblue" points="896.97,-129.98 906.79,-125.99 896.63,-122.99 896.97,-129.98"/>
</g>
<!-- Node18 -->
<g id="node13" class="node">
<title>Node18</title>
<polygon fill="none" stroke="#bfbfbf" points="3029.5,-112.5 3029.5,-131.5 3078.5,-131.5 3078.5,-112.5 3029.5,-112.5"/>
<text text-anchor="middle" x="3054" y="-119.5" font-family="Helvetica,sans-Serif" font-size="10.00">cstddef</text>
</g>
<!-- Node2&#45;&gt;Node18 -->
<g id="edge103" class="edge">
<title>Node2&#45;&gt;Node18</title>
<path fill="none" stroke="midnightblue" d="M2492.31,-467.32C2729.91,-464.34 3614.94,-451.41 3667,-423 3720.25,-393.95 3723.27,-367.63 3745,-311 3758.9,-274.78 3772.39,-257 3752,-224 3722.74,-176.66 3693.63,-182.85 3640,-168 3535.2,-138.98 3198.66,-127.09 3088.95,-123.92"/>
<polygon fill="midnightblue" stroke="midnightblue" points="3088.85,-120.42 3078.76,-123.63 3088.65,-127.41 3088.85,-120.42"/>
</g>
<!-- Node31 -->
<g id="node14" class="node">
<title>Node31</title>
<g id="a_node14"><a xlink:href="MathExtras_8h.html" target="_top" xlink:title="llvm/Support/MathExtras.h">
<polygon fill="none" stroke="black" points="1278.5,-230 1278.5,-249 1411.5,-249 1411.5,-230 1278.5,-230"/>
<text text-anchor="middle" x="1345" y="-237" font-family="Helvetica,sans-Serif" font-size="10.00">llvm/Support/MathExtras.h</text>
</a>
</g>
</g>
<!-- Node2&#45;&gt;Node31 -->
<g id="edge97" class="edge">
<title>Node2&#45;&gt;Node31</title>
<path fill="none" stroke="midnightblue" d="M2375.85,-466.5C2196.84,-461.14 1656.73,-439.22 1499,-367 1439.7,-339.85 1384.23,-284.1 1359.11,-256.58"/>
<polygon fill="midnightblue" stroke="midnightblue" points="1361.6,-254.12 1352.31,-249.01 1356.39,-258.79 1361.6,-254.12"/>
</g>
<!-- Node19 -->
<g id="node20" class="node">
<title>Node19</title>
<polygon fill="none" stroke="#bfbfbf" points="1843,-112.5 1843,-131.5 1905,-131.5 1905,-112.5 1843,-112.5"/>
<text text-anchor="middle" x="1874" y="-119.5" font-family="Helvetica,sans-Serif" font-size="10.00">type_traits</text>
</g>
<!-- Node2&#45;&gt;Node19 -->
<g id="edge108" class="edge">
<title>Node2&#45;&gt;Node19</title>
<path fill="none" stroke="midnightblue" d="M2438.21,-459.19C2454.6,-425.05 2513.92,-302.85 2529,-291 2579.19,-251.58 2628.94,-305.47 2668,-255 2676.43,-244.1 2675.24,-235.72 2668,-224 2638.74,-176.66 2609.71,-182.56 2556,-168 2434.16,-134.97 2043.74,-125.76 1915.36,-123.59"/>
<polygon fill="midnightblue" stroke="midnightblue" points="1915.22,-120.09 1905.16,-123.42 1915.1,-127.09 1915.22,-120.09"/>
</g>
<!-- Node23 -->
<g id="node21" class="node">
<title>Node23</title>
<polygon fill="none" stroke="#bfbfbf" points="1180,-168.5 1180,-187.5 1236,-187.5 1236,-168.5 1180,-168.5"/>
<text text-anchor="middle" x="1208" y="-175.5" font-family="Helvetica,sans-Serif" font-size="10.00">algorithm</text>
</g>
<!-- Node2&#45;&gt;Node23 -->
<g id="edge101" class="edge">
<title>Node2&#45;&gt;Node23</title>
<path fill="none" stroke="midnightblue" d="M2375.83,-468.1C2203.92,-467.91 1683.36,-463.72 1254,-423 1056.11,-404.23 936.01,-473.13 821,-311 797.92,-278.47 772.19,-253.53 799,-224 852.86,-164.67 1072.86,-199.21 1169.72,-187.74"/>
<polygon fill="midnightblue" stroke="midnightblue" points="1170.4,-191.18 1179.8,-186.3 1169.41,-184.25 1170.4,-191.18"/>
</g>
<!-- Node2&#45;&gt;Node24 -->
<g id="edge102" class="edge">
<title>Node2&#45;&gt;Node24</title>
<path fill="none" stroke="midnightblue" d="M2492.38,-468.01C2726.07,-467.78 3583.42,-464.11 3623,-423 3629.17,-416.6 3626.49,-411.17 3623,-403 3611.51,-376.1 3456.94,-235.39 3430,-224 3330.68,-182.02 2993.97,-178.75 2884.03,-178.83"/>
<polygon fill="midnightblue" stroke="midnightblue" points="2883.82,-175.33 2873.82,-178.85 2883.83,-182.33 2883.82,-175.33"/>
</g>
<!-- Node25 -->
<g id="node24" class="node">
<title>Node25</title>
<polygon fill="none" stroke="#bfbfbf" points="568,-168.5 568,-187.5 614,-187.5 614,-168.5 568,-168.5"/>
<text text-anchor="middle" x="591" y="-175.5" font-family="Helvetica,sans-Serif" font-size="10.00">cstring</text>
</g>
<!-- Node2&#45;&gt;Node25 -->
<g id="edge104" class="edge">
<title>Node2&#45;&gt;Node25</title>
<path fill="none" stroke="midnightblue" d="M2375.67,-467.45C2134.36,-465.01 1213.15,-453.8 924,-423 599.4,-388.42 378.57,-533.93 209,-255 201.84,-243.23 199.85,-234.3 209,-224 232.05,-198.07 469.38,-184.59 557.93,-180.43"/>
<polygon fill="midnightblue" stroke="midnightblue" points="558.14,-183.92 567.97,-179.97 557.82,-176.93 558.14,-183.92"/>
</g>
<!-- Node21 -->
<g id="node26" class="node">
<title>Node21</title>
<g id="a_node26"><a xlink:href="type__traits_8h.html" target="_top" xlink:title="llvm/Support/type_traits.h">
<polygon fill="none" stroke="black" points="2172,-168.5 2172,-187.5 2300,-187.5 2300,-168.5 2172,-168.5"/>
<text text-anchor="middle" x="2236" y="-175.5" font-family="Helvetica,sans-Serif" font-size="10.00">llvm/Support/type_traits.h</text>
</a>
</g>
</g>
<!-- Node2&#45;&gt;Node21 -->
<g id="edge100" class="edge">
<title>Node2&#45;&gt;Node21</title>
<path fill="none" stroke="midnightblue" d="M2432.85,-459.5C2429.42,-430.29 2422.63,-333.49 2476,-291 2526.26,-250.99 2576.63,-305.77 2616,-255 2624.44,-244.11 2625.15,-234.3 2616,-224 2596.09,-201.59 2415.36,-188.41 2310.48,-182.59"/>
<polygon fill="midnightblue" stroke="midnightblue" points="2310.44,-179.08 2300.27,-182.03 2310.06,-186.07 2310.44,-179.08"/>
</g>
<!-- Node36 -->
<g id="node30" class="node">
<title>Node36</title>
<polygon fill="none" stroke="#bfbfbf" points="2534.5,-230 2534.5,-249 2607.5,-249 2607.5,-230 2534.5,-230"/>
<text text-anchor="middle" x="2571" y="-237" font-family="Helvetica,sans-Serif" font-size="10.00">initializer_list</text>
</g>
<!-- Node2&#45;&gt;Node36 -->
<g id="edge105" class="edge">
<title>Node2&#45;&gt;Node36</title>
<path fill="none" stroke="midnightblue" d="M2403.51,-459.41C2384.04,-452.49 2359.61,-440.91 2344,-423 2303.88,-376.99 2266.59,-337.63 2306,-291 2336.99,-254.34 2472.15,-265.46 2519,-255 2523.44,-254.01 2528.07,-252.87 2532.65,-251.68"/>
<polygon fill="midnightblue" stroke="midnightblue" points="2533.78,-255 2542.53,-249.02 2531.96,-248.24 2533.78,-255"/>
</g>
<!-- Node38 -->
<g id="node31" class="node">
<title>Node38</title>
<polygon fill="none" stroke="#bfbfbf" points="2404.5,-230 2404.5,-249 2439.5,-249 2439.5,-230 2404.5,-230"/>
<text text-anchor="middle" x="2422" y="-237" font-family="Helvetica,sans-Serif" font-size="10.00">new</text>
</g>
<!-- Node2&#45;&gt;Node38 -->
<g id="edge107" class="edge">
<title>Node2&#45;&gt;Node38</title>
<path fill="none" stroke="midnightblue" d="M2376.97,-459.45C2352.33,-453.1 2324.88,-442.09 2306,-423 2269.04,-385.63 2276.56,-362.86 2268,-311 2266.55,-302.23 2262.79,-298.2 2268,-291 2271.84,-285.7 2351.46,-261.42 2394.67,-248.56"/>
<polygon fill="midnightblue" stroke="midnightblue" points="2395.71,-251.9 2404.3,-245.7 2393.72,-245.19 2395.71,-251.9"/>
</g>
<!-- Node52 -->
<g id="node37" class="node">
<title>Node52</title>
<g id="a_node37"><a xlink:href="EpochTracker_8h.html" target="_top" xlink:title="llvm/ADT/EpochTracker.h">
<polygon fill="none" stroke="red" points="2719,-347.5 2719,-366.5 2849,-366.5 2849,-347.5 2719,-347.5"/>
<text text-anchor="middle" x="2784" y="-354.5" font-family="Helvetica,sans-Serif" font-size="10.00">llvm/ADT/EpochTracker.h</text>
</a>
</g>
</g>
<!-- Node2&#45;&gt;Node52 -->
<g id="edge93" class="edge">
<title>Node2&#45;&gt;Node52</title>
<path fill="none" stroke="midnightblue" d="M2461.17,-459.46C2523.33,-439.93 2675.94,-391.96 2746.77,-369.7"/>
<polygon fill="midnightblue" stroke="midnightblue" points="2748.11,-372.95 2756.6,-366.61 2746.01,-366.27 2748.11,-372.95"/>
</g>
<!-- Node53 -->
<g id="node38" class="node">
<title>Node53</title>
<g id="a_node38"><a xlink:href="ReverseIteration_8h.html" target="_top" xlink:title="llvm/Support/ReverseIteration.h">
<polygon fill="none" stroke="red" points="3459.5,-403.5 3459.5,-422.5 3614.5,-422.5 3614.5,-403.5 3459.5,-403.5"/>
<text text-anchor="middle" x="3537" y="-410.5" font-family="Helvetica,sans-Serif" font-size="10.00">llvm/Support/ReverseIteration.h</text>
</a>
</g>
</g>
<!-- Node2&#45;&gt;Node53 -->
<g id="edge98" class="edge">
<title>Node2&#45;&gt;Node53</title>
<path fill="none" stroke="midnightblue" d="M2492.2,-466.62C2646.37,-462.71 3078.27,-450.08 3449.11,-423.02"/>
<polygon fill="midnightblue" stroke="midnightblue" points="3449.52,-426.5 3459.23,-422.27 3449,-419.52 3449.52,-426.5"/>
</g>
<!-- Node4 -->
<g id="node5" class="node">
<title>Node4</title>
<g id="a_node5"><a xlink:href="ArrayRef_8h.html" target="_top" xlink:title="llvm/ADT/ArrayRef.h">
<polygon fill="none" stroke="red" points="1975,-347.5 1975,-366.5 2083,-366.5 2083,-347.5 1975,-347.5"/>
<text text-anchor="middle" x="2029" y="-354.5" font-family="Helvetica,sans-Serif" font-size="10.00">llvm/ADT/ArrayRef.h</text>
</a>
</g>
</g>
<!-- Node3&#45;&gt;Node4 -->
<g id="edge4" class="edge">
<title>Node3&#45;&gt;Node4</title>
<path fill="none" stroke="midnightblue" d="M3308.25,-409.32C3078.12,-400.09 2319.52,-369.66 2093.26,-360.58"/>
<polygon fill="midnightblue" stroke="midnightblue" points="2093.34,-357.08 2083.2,-360.17 2093.06,-364.07 2093.34,-357.08"/>
</g>
<!-- Node3&#45;&gt;Node22 -->
<g id="edge92" class="edge">
<title>Node3&#45;&gt;Node22</title>
<path fill="none" stroke="midnightblue" d="M3426.53,-403.44C3447.73,-397.1 3470.27,-386.1 3483,-367 3520.6,-310.6 3489.37,-256.7 3430,-224 3252.39,-126.16 2585.45,-122.39 2434.5,-122.82"/>
<polygon fill="midnightblue" stroke="midnightblue" points="2434.14,-119.32 2424.15,-122.86 2434.17,-126.32 2434.14,-119.32"/>
</g>
<!-- Node3&#45;&gt;Node18 -->
<g id="edge90" class="edge">
<title>Node3&#45;&gt;Node18</title>
<path fill="none" stroke="midnightblue" d="M3441.8,-403.49C3565.13,-384.96 3809.11,-333.55 3730,-224 3683.68,-159.85 3638.48,-184.05 3561,-168 3386.09,-131.77 3171.3,-124.7 3088.66,-123.33"/>
<polygon fill="midnightblue" stroke="midnightblue" points="3088.62,-119.83 3078.57,-123.18 3088.51,-126.82 3088.62,-119.83"/>
</g>
<!-- Node3&#45;&gt;Node24 -->
<g id="edge89" class="edge">
<title>Node3&#45;&gt;Node24</title>
<path fill="none" stroke="midnightblue" d="M3384.77,-403.48C3397.42,-391.36 3416.97,-368.22 3409,-347 3385.36,-284.09 3346.4,-289.95 3289,-255 3268.88,-242.75 3268.04,-232.32 3246,-224 3095.41,-167.13 3041.31,-218.33 2883.63,-188.96"/>
<polygon fill="midnightblue" stroke="midnightblue" points="2884.08,-185.48 2873.59,-187.01 2882.74,-192.35 2884.08,-185.48"/>
</g>
<!-- Node3&#45;&gt;Node43 -->
<g id="edge91" class="edge">
<title>Node3&#45;&gt;Node43</title>
<path fill="none" stroke="midnightblue" d="M3381.28,-403.34C3389.97,-390.23 3403.35,-364.94 3392,-347 3344.79,-272.33 3232.75,-249.9 3176.47,-243.25"/>
<polygon fill="midnightblue" stroke="midnightblue" points="3176.64,-239.75 3166.32,-242.15 3175.88,-246.71 3176.64,-239.75"/>
</g>
<!-- Node48 -->
<g id="node35" class="node">
<title>Node48</title>
<g id="a_node35"><a xlink:href="StringRef_8h.html" target="_top" xlink:title="llvm/ADT/StringRef.h">
<polygon fill="none" stroke="black" points="1508,-347.5 1508,-366.5 1618,-366.5 1618,-347.5 1508,-347.5"/>
<text text-anchor="middle" x="1563" y="-354.5" font-family="Helvetica,sans-Serif" font-size="10.00">llvm/ADT/StringRef.h</text>
</a>
</g>
</g>
<!-- Node3&#45;&gt;Node48 -->
<g id="edge74" class="edge">
<title>Node3&#45;&gt;Node48</title>
<path fill="none" stroke="midnightblue" d="M3308.37,-409.19C3262.68,-407.31 3200.68,-404.85 3146,-403 2556.97,-383.05 1844.44,-364.96 1628.26,-359.6"/>
<polygon fill="midnightblue" stroke="midnightblue" points="1628.12,-356.1 1618.04,-359.35 1627.95,-363.09 1628.12,-356.1"/>
</g>
<!-- Node49 -->
<g id="node36" class="node">
<title>Node49</title>
<g id="a_node36"><a xlink:href="PointerLikeTypeTraits_8h.html" target="_top" xlink:title="llvm/Support/PointerLike\lTypeTraits.h">
<polygon fill="none" stroke="red" points="3298.5,-224.5 3298.5,-254.5 3421.5,-254.5 3421.5,-224.5 3298.5,-224.5"/>
<text text-anchor="start" x="3306.5" y="-242.5" font-family="Helvetica,sans-Serif" font-size="10.00">llvm/Support/PointerLike</text>
<text text-anchor="middle" x="3360" y="-231.5" font-family="Helvetica,sans-Serif" font-size="10.00">TypeTraits.h</text>
</a>
</g>
</g>
<!-- Node3&#45;&gt;Node49 -->
<g id="edge86" class="edge">
<title>Node3&#45;&gt;Node49</title>
<path fill="none" stroke="midnightblue" d="M3411.7,-403.35C3430.83,-396.77 3452.57,-385.58 3464,-367 3481.69,-338.23 3481.92,-319.63 3464,-291 3455.05,-276.7 3440.76,-266.35 3425.61,-258.89"/>
<polygon fill="midnightblue" stroke="midnightblue" points="3426.66,-255.52 3416.1,-254.61 3423.79,-261.91 3426.66,-255.52"/>
</g>
<!-- Node26 -->
<g id="node6" class="node">
<title>Node26</title>
<g id="a_node6"><a xlink:href="None_8h.html" target="_top" xlink:title="llvm/ADT/None.h">
<polygon fill="none" stroke="black" points="2912,-291.5 2912,-310.5 3004,-310.5 3004,-291.5 2912,-291.5"/>
<text text-anchor="middle" x="2958" y="-298.5" font-family="Helvetica,sans-Serif" font-size="10.00">llvm/ADT/None.h</text>
</a>
</g>
</g>
<!-- Node4&#45;&gt;Node26 -->
<g id="edge5" class="edge">
<title>Node4&#45;&gt;Node26</title>
<path fill="none" stroke="midnightblue" d="M2083.04,-355.03C2219.79,-352.16 2590.61,-341.94 2898,-311 2899.27,-310.87 2900.55,-310.74 2901.84,-310.59"/>
<polygon fill="midnightblue" stroke="midnightblue" points="2902.36,-314.06 2911.87,-309.38 2901.52,-307.11 2902.36,-314.06"/>
</g>
<!-- Node27 -->
<g id="node7" class="node">
<title>Node27</title>
<g id="a_node7"><a xlink:href="SmallVector_8h.html" target="_top" xlink:title="llvm/ADT/SmallVector.h">
<polygon fill="none" stroke="red" points="1626,-291.5 1626,-310.5 1748,-310.5 1748,-291.5 1626,-291.5"/>
<text text-anchor="middle" x="1687" y="-298.5" font-family="Helvetica,sans-Serif" font-size="10.00">llvm/ADT/SmallVector.h</text>
</a>
</g>
</g>
<!-- Node4&#45;&gt;Node27 -->
<g id="edge6" class="edge">
<title>Node4&#45;&gt;Node27</title>
<path fill="none" stroke="midnightblue" d="M1974.81,-347.44C1914.02,-337.85 1815.51,-322.29 1750.99,-312.1"/>
<polygon fill="midnightblue" stroke="midnightblue" points="1751.36,-308.62 1740.94,-310.52 1750.27,-315.53 1751.36,-308.62"/>
</g>
<!-- Node4&#45;&gt;Node29 -->
<g id="edge72" class="edge">
<title>Node4&#45;&gt;Node29</title>
<path fill="none" stroke="midnightblue" d="M1974.75,-353.55C1736.18,-342.54 789.96,-296.39 743,-255 710.52,-226.37 708.17,-170.9 709.44,-141.82"/>
<polygon fill="midnightblue" stroke="midnightblue" points="712.94,-141.96 710.07,-131.76 705.95,-141.52 712.94,-141.96"/>
</g>
<!-- Node4&#45;&gt;Node13 -->
<g id="edge67" class="edge">
<title>Node4&#45;&gt;Node13</title>
<path fill="none" stroke="midnightblue" d="M1974.78,-349.85C1864.06,-337.45 1603.95,-309.08 1385,-291 1322.86,-285.87 867.65,-300.48 825,-255 781.07,-208.15 881.22,-158.1 935.71,-135.43"/>
<polygon fill="midnightblue" stroke="midnightblue" points="937.04,-138.66 944.98,-131.65 934.4,-132.18 937.04,-138.66"/>
</g>
<!-- Node4&#45;&gt;Node18 -->
<g id="edge70" class="edge">
<title>Node4&#45;&gt;Node18</title>
<path fill="none" stroke="midnightblue" d="M2083.02,-354.24C2237.45,-349.01 2678.91,-332.54 2822,-311 2858.67,-305.48 2866.88,-299.4 2903,-291 2976.11,-274 3020.92,-313.46 3068,-255 3094.53,-222.06 3075.82,-168.49 3063.1,-140.82"/>
<polygon fill="midnightblue" stroke="midnightblue" points="3066.14,-139.05 3058.63,-131.57 3059.84,-142.1 3066.14,-139.05"/>
</g>
<!-- Node4&#45;&gt;Node19 -->
<g id="edge73" class="edge">
<title>Node4&#45;&gt;Node19</title>
<path fill="none" stroke="midnightblue" d="M2013.18,-347.38C1987.68,-332.46 1938.4,-299.15 1919,-255 1913.46,-242.39 1911.23,-235.38 1919,-224 1945.99,-184.46 2039.07,-206.77 2011,-168 1989.37,-138.12 1947.25,-127.73 1915.4,-124.29"/>
<polygon fill="midnightblue" stroke="midnightblue" points="1915.3,-120.77 1905.03,-123.37 1914.69,-127.74 1915.3,-120.77"/>
</g>
<!-- Node4&#45;&gt;Node23 -->
<g id="edge68" class="edge">
<title>Node4&#45;&gt;Node23</title>
<path fill="none" stroke="midnightblue" d="M1974.85,-350.18C1926.65,-343.93 1854.73,-331.94 1795,-311 1776.99,-304.69 1775.36,-296.21 1757,-291 1644.5,-259.08 1323.9,-327.31 1232,-255 1214.79,-241.46 1209.69,-215.62 1208.3,-197.86"/>
<polygon fill="midnightblue" stroke="midnightblue" points="1211.79,-197.62 1207.84,-187.79 1204.8,-197.95 1211.79,-197.62"/>
</g>
<!-- Node4&#45;&gt;Node24 -->
<g id="edge69" class="edge">
<title>Node4&#45;&gt;Node24</title>
<path fill="none" stroke="midnightblue" d="M2083.15,-354.07C2265.09,-346.99 2845.83,-319.47 2896,-255 2911.52,-235.06 2888.26,-209.72 2869.29,-193.93"/>
<polygon fill="midnightblue" stroke="midnightblue" points="2871.3,-191.06 2861.29,-187.6 2866.95,-196.55 2871.3,-191.06"/>
</g>
<!-- Node4&#45;&gt;Node36 -->
<g id="edge71" class="edge">
<title>Node4&#45;&gt;Node36</title>
<path fill="none" stroke="midnightblue" d="M2041.44,-347.45C2063.17,-333.01 2109.92,-304.1 2154,-291 2310.68,-244.45 2359.41,-285.47 2520,-255 2524.78,-254.09 2529.76,-252.94 2534.65,-251.69"/>
<polygon fill="midnightblue" stroke="midnightblue" points="2535.75,-255.02 2544.48,-249.01 2533.91,-248.26 2535.75,-255.02"/>
</g>
<!-- Node39 -->
<g id="node32" class="node">
<title>Node39</title>
<g id="a_node32"><a xlink:href="STLExtras_8h.html" target="_top" xlink:title="llvm/ADT/STLExtras.h">
<polygon fill="none" stroke="red" points="1804,-291.5 1804,-310.5 1920,-310.5 1920,-291.5 1804,-291.5"/>
<text text-anchor="middle" x="1862" y="-298.5" font-family="Helvetica,sans-Serif" font-size="10.00">llvm/ADT/STLExtras.h</text>
</a>
</g>
</g>
<!-- Node4&#45;&gt;Node39 -->
<g id="edge47" class="edge">
<title>Node4&#45;&gt;Node39</title>
<path fill="none" stroke="midnightblue" d="M2002.54,-347.44C1974.32,-338.32 1929.46,-323.81 1898.03,-313.65"/>
<polygon fill="midnightblue" stroke="midnightblue" points="1898.93,-310.26 1888.34,-310.52 1896.78,-316.92 1898.93,-310.26"/>
</g>
<!-- Node28 -->
<g id="node8" class="node">
<title>Node28</title>
<g id="a_node8"><a xlink:href="iterator__range_8h.html" target="_top" xlink:title="This provides a very simple, boring adaptor for a begin and end iterator into a range type...">
<polygon fill="none" stroke="black" points="1034,-168.5 1034,-187.5 1162,-187.5 1162,-168.5 1034,-168.5"/>
<text text-anchor="middle" x="1098" y="-175.5" font-family="Helvetica,sans-Serif" font-size="10.00">llvm/ADT/iterator_range.h</text>
</a>
</g>
</g>
<!-- Node27&#45;&gt;Node28 -->
<g id="edge7" class="edge">
<title>Node27&#45;&gt;Node28</title>
<path fill="none" stroke="midnightblue" d="M1625.62,-292.46C1621.02,-291.95 1616.44,-291.45 1612,-291 1517.49,-281.34 1273.57,-291.85 1186,-255 1154.98,-241.95 1127.04,-213.66 1111.33,-195.52"/>
<polygon fill="midnightblue" stroke="midnightblue" points="1113.74,-192.95 1104.63,-187.54 1108.38,-197.45 1113.74,-192.95"/>
</g>
<!-- Node27&#45;&gt;Node29 -->
<g id="edge43" class="edge">
<title>Node27&#45;&gt;Node29</title>
<path fill="none" stroke="midnightblue" d="M1625.86,-297.76C1491.16,-292.46 1172.4,-277.88 1067,-255 939.43,-227.31 796.18,-163.46 737.86,-135.98"/>
<polygon fill="midnightblue" stroke="midnightblue" points="739.15,-132.71 728.61,-131.58 736.14,-139.03 739.15,-132.71"/>
</g>
<!-- Node27&#45;&gt;Node22 -->
<g id="edge46" class="edge">
<title>Node27&#45;&gt;Node22</title>
<path fill="none" stroke="midnightblue" d="M1748.2,-294.13C1856.88,-283.56 2073.66,-261.82 2089,-255 2107.99,-246.56 2105.37,-233.2 2124,-224 2199.11,-186.92 2231.72,-220.32 2309,-188 2317.04,-184.64 2358.23,-155.68 2383.66,-137.57"/>
<polygon fill="midnightblue" stroke="midnightblue" points="2385.81,-140.33 2391.92,-131.67 2381.75,-134.63 2385.81,-140.33"/>
</g>
<!-- Node27&#45;&gt;Node30 -->
<g id="edge10" class="edge">
<title>Node27&#45;&gt;Node30</title>
<path fill="none" stroke="midnightblue" d="M1748.12,-294.48C1850.68,-285.1 2053.15,-265.97 2124,-255 2184.86,-245.57 2356.63,-208.35 2441.42,-189.73"/>
<polygon fill="midnightblue" stroke="midnightblue" points="2442.3,-193.12 2451.32,-187.56 2440.8,-186.28 2442.3,-193.12"/>
</g>
<!-- Node27&#45;&gt;Node13 -->
<g id="edge13" class="edge">
<title>Node27&#45;&gt;Node13</title>
<path fill="none" stroke="midnightblue" d="M1625.63,-292.41C1621.02,-291.91 1616.44,-291.43 1612,-291 1401.73,-270.41 1339.49,-318.54 1138,-255 1082.32,-237.44 1069.92,-225.3 1025,-188 1007.76,-173.68 991.24,-153.96 980.47,-140"/>
<polygon fill="midnightblue" stroke="midnightblue" points="983.08,-137.66 974.27,-131.78 977.49,-141.87 983.08,-137.66"/>
</g>
<!-- Node27&#45;&gt;Node18 -->
<g id="edge39" class="edge">
<title>Node27&#45;&gt;Node18</title>
<path fill="none" stroke="midnightblue" d="M1748.2,-294.88C1886.24,-283.33 2210.31,-256.13 2216,-255 2260.81,-246.12 2269.49,-234.28 2314,-224 2419.95,-199.53 2450.31,-213.56 2556,-188 2582.91,-181.49 2587.95,-173.89 2615,-168 2763.05,-135.75 2944.36,-126.47 3019.18,-123.92"/>
<polygon fill="midnightblue" stroke="midnightblue" points="3019.54,-127.41 3029.43,-123.59 3019.32,-120.41 3019.54,-127.41"/>
</g>
<!-- Node27&#45;&gt;Node31 -->
<g id="edge14" class="edge">
<title>Node27&#45;&gt;Node31</title>
<path fill="none" stroke="midnightblue" d="M1638,-291.48C1576.16,-280.72 1469.9,-262.23 1403.77,-250.72"/>
<polygon fill="midnightblue" stroke="midnightblue" points="1404.36,-247.27 1393.91,-249.01 1403.16,-254.17 1404.36,-247.27"/>
</g>
<!-- Node27&#45;&gt;Node19 -->
<g id="edge45" class="edge">
<title>Node27&#45;&gt;Node19</title>
<path fill="none" stroke="midnightblue" d="M1705.12,-291.39C1721.07,-283.31 1744.43,-270.2 1762,-255 1799.74,-222.34 1800.4,-205.79 1833,-168 1841.47,-158.17 1851.25,-147.42 1859.13,-138.9"/>
<polygon fill="midnightblue" stroke="midnightblue" points="1861.76,-141.21 1866,-131.5 1856.63,-136.45 1861.76,-141.21"/>
</g>
<!-- Node27&#45;&gt;Node23 -->
<g id="edge37" class="edge">
<title>Node27&#45;&gt;Node23</title>
<path fill="none" stroke="midnightblue" d="M1625.62,-292.47C1621.02,-291.95 1616.44,-291.46 1612,-291 1566.07,-286.25 1229.2,-289.03 1198,-255 1183.77,-239.48 1190.95,-214.13 1198.5,-197.02"/>
<polygon fill="midnightblue" stroke="midnightblue" points="1201.86,-198.11 1203.07,-187.59 1195.56,-195.06 1201.86,-198.11"/>
</g>
<!-- Node27&#45;&gt;Node24 -->
<g id="edge38" class="edge">
<title>Node27&#45;&gt;Node24</title>
<path fill="none" stroke="midnightblue" d="M1748.1,-294.76C1763.41,-293.49 1779.8,-292.16 1795,-291 2025.55,-273.4 2088.22,-304.87 2314,-255 2351.64,-246.69 2357.49,-232.87 2395,-224 2548.13,-187.8 2736.99,-180.68 2813.92,-179.31"/>
<polygon fill="midnightblue" stroke="midnightblue" points="2814.07,-182.81 2824.01,-179.16 2813.96,-175.81 2814.07,-182.81"/>
</g>
<!-- Node27&#45;&gt;Node25 -->
<g id="edge41" class="edge">
<title>Node27&#45;&gt;Node25</title>
<path fill="none" stroke="midnightblue" d="M1625.94,-298.51C1476.29,-294.47 1094.45,-281.79 970,-255 931.91,-246.8 925.69,-233.86 888,-224 794.11,-199.43 679.78,-186.8 624.34,-181.74"/>
<polygon fill="midnightblue" stroke="midnightblue" points="624.33,-178.22 614.06,-180.83 623.71,-185.2 624.33,-178.22"/>
</g>
<!-- Node27&#45;&gt;Node21 -->
<g id="edge30" class="edge">
<title>Node27&#45;&gt;Node21</title>
<path fill="none" stroke="midnightblue" d="M1748.3,-294.14C1845.12,-284.64 2025.32,-265.85 2053,-255 2074.94,-246.4 2074.97,-234.62 2096,-224 2125.53,-209.08 2161.04,-197.74 2188.9,-190.17"/>
<polygon fill="midnightblue" stroke="midnightblue" points="2190.02,-193.49 2198.8,-187.55 2188.24,-186.72 2190.02,-193.49"/>
</g>
<!-- Node12 -->
<g id="node27" class="node">
<title>Node12</title>
<g id="a_node27"><a xlink:href="Support_2ErrorHandling_8h.html" target="_top" xlink:title="llvm/Support/ErrorHandling.h">
<polygon fill="none" stroke="black" points="218,-230 218,-249 360,-249 360,-230 218,-230"/>
<text text-anchor="middle" x="289" y="-237" font-family="Helvetica,sans-Serif" font-size="10.00">llvm/Support/ErrorHandling.h</text>
</a>
</g>
</g>
<!-- Node27&#45;&gt;Node12 -->
<g id="edge34" class="edge">
<title>Node27&#45;&gt;Node12</title>
<path fill="none" stroke="midnightblue" d="M1625.58,-297.39C1401.03,-287.83 624.54,-254.78 370.29,-243.96"/>
<polygon fill="midnightblue" stroke="midnightblue" points="370.16,-240.45 360.02,-243.52 369.86,-247.44 370.16,-240.45"/>
</g>
<!-- Node35 -->
<g id="node29" class="node">
<title>Node35</title>
<polygon fill="none" stroke="#bfbfbf" points="834.5,-230 834.5,-249 879.5,-249 879.5,-230 834.5,-230"/>
<text text-anchor="middle" x="857" y="-237" font-family="Helvetica,sans-Serif" font-size="10.00">cstdlib</text>
</g>
<!-- Node27&#45;&gt;Node35 -->
<g id="edge40" class="edge">
<title>Node27&#45;&gt;Node35</title>
<path fill="none" stroke="midnightblue" d="M1625.64,-292.3C1621.03,-291.82 1616.44,-291.38 1612,-291 1310.48,-264.96 1232.4,-291.81 932,-255 917.98,-253.28 902.64,-250.48 889.51,-247.8"/>
<polygon fill="midnightblue" stroke="midnightblue" points="890.02,-244.33 879.52,-245.7 888.58,-251.18 890.02,-244.33"/>
</g>
<!-- Node27&#45;&gt;Node36 -->
<g id="edge42" class="edge">
<title>Node27&#45;&gt;Node36</title>
<path fill="none" stroke="midnightblue" d="M1748.09,-294.61C1763.4,-293.34 1779.8,-292.05 1795,-291 2084.97,-270.93 2158.42,-280.03 2448,-255 2473.26,-252.82 2501.36,-249.57 2524.31,-246.7"/>
<polygon fill="midnightblue" stroke="midnightblue" points="2524.98,-250.14 2534.46,-245.41 2524.1,-243.2 2524.98,-250.14"/>
</g>
<!-- Node27&#45;&gt;Node38 -->
<g id="edge44" class="edge">
<title>Node27&#45;&gt;Node38</title>
<path fill="none" stroke="midnightblue" d="M1748.1,-294.67C1763.41,-293.4 1779.8,-292.09 1795,-291 2059.25,-272 2132.85,-318.73 2390,-255 2392.21,-254.45 2394.46,-253.75 2396.69,-252.96"/>
<polygon fill="midnightblue" stroke="midnightblue" points="2398.22,-256.12 2406.13,-249.07 2395.55,-249.64 2398.22,-256.12"/>
</g>
<!-- Node28&#45;&gt;Node29 -->
<g id="edge8" class="edge">
<title>Node28&#45;&gt;Node29</title>
<path fill="none" stroke="midnightblue" d="M1036.68,-168.44C954.1,-156.92 810.02,-136.82 744.79,-127.71"/>
<polygon fill="midnightblue" stroke="midnightblue" points="745.04,-124.22 734.65,-126.3 744.07,-131.15 745.04,-124.22"/>
</g>
<!-- Node28&#45;&gt;Node22 -->
<g id="edge9" class="edge">
<title>Node28&#45;&gt;Node22</title>
<path fill="none" stroke="midnightblue" d="M1162.06,-168.79C1165.08,-168.5 1168.07,-168.23 1171,-168 1415.22,-148.53 2207.43,-127.93 2373.35,-123.76"/>
<polygon fill="midnightblue" stroke="midnightblue" points="2373.87,-127.25 2383.78,-123.5 2373.7,-120.25 2373.87,-127.25"/>
</g>
<!-- Node30&#45;&gt;Node13 -->
<g id="edge11" class="edge">
<title>Node30&#45;&gt;Node13</title>
<path fill="none" stroke="midnightblue" d="M2432.14,-173.88C2396.61,-172.03 2350.18,-169.71 2309,-168 1823.73,-147.79 1239.39,-130.65 1039.25,-124.99"/>
<polygon fill="midnightblue" stroke="midnightblue" points="1039.26,-121.48 1029.16,-124.7 1039.06,-128.48 1039.26,-121.48"/>
</g>
<!-- Node30&#45;&gt;Node18 -->
<g id="edge12" class="edge">
<title>Node30&#45;&gt;Node18</title>
<path fill="none" stroke="midnightblue" d="M2547.75,-169.61C2552.57,-169.05 2557.37,-168.5 2562,-168 2733.38,-149.46 2938.91,-132.29 3019.34,-125.77"/>
<polygon fill="midnightblue" stroke="midnightblue" points="3019.71,-129.25 3029.4,-124.96 3019.15,-122.28 3019.71,-129.25"/>
</g>
<!-- Node31&#45;&gt;Node13 -->
<g id="edge15" class="edge">
<title>Node31&#45;&gt;Node13</title>
<path fill="none" stroke="midnightblue" d="M1335.94,-229.9C1319.35,-214.7 1282.37,-183.25 1245,-168 1178.41,-140.82 1096.5,-130.02 1039.08,-125.75"/>
<polygon fill="midnightblue" stroke="midnightblue" points="1039.23,-122.25 1029.02,-125.05 1038.75,-129.24 1039.23,-122.25"/>
</g>
<!-- Node17 -->
<g id="node15" class="node">
<title>Node17</title>
<g id="a_node15"><a xlink:href="SwapByteOrder_8h.html" target="_top" xlink:title="llvm/Support/SwapByteOrder.h">
<polygon fill="none" stroke="red" points="1850,-168.5 1850,-187.5 2002,-187.5 2002,-168.5 1850,-168.5"/>
<text text-anchor="middle" x="1926" y="-175.5" font-family="Helvetica,sans-Serif" font-size="10.00">llvm/Support/SwapByteOrder.h</text>
</a>
</g>
</g>
<!-- Node31&#45;&gt;Node17 -->
<g id="edge16" class="edge">
<title>Node31&#45;&gt;Node17</title>
<path fill="none" stroke="midnightblue" d="M1411.65,-231.67C1517.22,-220.86 1722.86,-199.8 1839.61,-187.85"/>
<polygon fill="midnightblue" stroke="midnightblue" points="1839.99,-191.33 1849.58,-186.83 1839.28,-184.36 1839.99,-191.33"/>
</g>
<!-- Node31&#45;&gt;Node19 -->
<g id="edge29" class="edge">
<title>Node31&#45;&gt;Node19</title>
<path fill="none" stroke="midnightblue" d="M1354.14,-229.94C1371.24,-214.51 1409.87,-182.31 1449,-168 1518.87,-142.45 1740.04,-129.32 1832.62,-124.82"/>
<polygon fill="midnightblue" stroke="midnightblue" points="1832.91,-128.31 1842.73,-124.34 1832.58,-121.32 1832.91,-128.31"/>
</g>
<!-- Node31&#45;&gt;Node23 -->
<g id="edge24" class="edge">
<title>Node31&#45;&gt;Node23</title>
<path fill="none" stroke="midnightblue" d="M1325.37,-229.98C1302.18,-219.9 1263.38,-203.05 1236.79,-191.5"/>
<polygon fill="midnightblue" stroke="midnightblue" points="1238.16,-188.28 1227.59,-187.51 1235.37,-194.7 1238.16,-188.28"/>
</g>
<!-- Node31&#45;&gt;Node24 -->
<g id="edge25" class="edge">
<title>Node31&#45;&gt;Node24</title>
<path fill="none" stroke="midnightblue" d="M1411.67,-234.53C1465.46,-231.41 1543.08,-227.09 1611,-224 2087.33,-202.36 2667.13,-184.45 2813.94,-180.04"/>
<polygon fill="midnightblue" stroke="midnightblue" points="2814.25,-183.53 2824.14,-179.74 2814.04,-176.54 2814.25,-183.53"/>
</g>
<!-- Node32 -->
<g id="node23" class="node">
<title>Node32</title>
<polygon fill="none" stroke="#bfbfbf" points="1322.5,-168.5 1322.5,-187.5 1367.5,-187.5 1367.5,-168.5 1322.5,-168.5"/>
<text text-anchor="middle" x="1345" y="-175.5" font-family="Helvetica,sans-Serif" font-size="10.00">climits</text>
</g>
<!-- Node31&#45;&gt;Node32 -->
<g id="edge26" class="edge">
<title>Node31&#45;&gt;Node32</title>
<path fill="none" stroke="midnightblue" d="M1345,-229.98C1345,-221.58 1345,-208.48 1345,-197.66"/>
<polygon fill="midnightblue" stroke="midnightblue" points="1348.5,-197.51 1345,-187.51 1341.5,-197.51 1348.5,-197.51"/>
</g>
<!-- Node31&#45;&gt;Node25 -->
<g id="edge27" class="edge">
<title>Node31&#45;&gt;Node25</title>
<path fill="none" stroke="midnightblue" d="M1278.42,-233.25C1122.77,-220.96 739.57,-190.72 624.32,-181.63"/>
<polygon fill="midnightblue" stroke="midnightblue" points="624.57,-178.14 614.32,-180.84 624.02,-185.12 624.57,-178.14"/>
</g>
<!-- Node33 -->
<g id="node25" class="node">
<title>Node33</title>
<polygon fill="none" stroke="#bfbfbf" points="1458,-168.5 1458,-187.5 1498,-187.5 1498,-168.5 1458,-168.5"/>
<text text-anchor="middle" x="1478" y="-175.5" font-family="Helvetica,sans-Serif" font-size="10.00">limits</text>
</g>
<!-- Node31&#45;&gt;Node33 -->
<g id="edge28" class="edge">
<title>Node31&#45;&gt;Node33</title>
<path fill="none" stroke="midnightblue" d="M1364.06,-229.98C1386.47,-219.95 1423.91,-203.2 1449.71,-191.65"/>
<polygon fill="midnightblue" stroke="midnightblue" points="1451.28,-194.79 1458.98,-187.51 1448.42,-188.4 1451.28,-194.79"/>
</g>
<!-- Node17&#45;&gt;Node13 -->
<g id="edge17" class="edge">
<title>Node17&#45;&gt;Node13</title>
<path fill="none" stroke="midnightblue" d="M1849.62,-172.69C1668.5,-162.49 1214.96,-136.92 1039.17,-127.01"/>
<polygon fill="midnightblue" stroke="midnightblue" points="1039.18,-123.51 1029,-126.44 1038.79,-130.5 1039.18,-123.51"/>
</g>
<!-- Node17&#45;&gt;Node18 -->
<g id="edge22" class="edge">
<title>Node17&#45;&gt;Node18</title>
<path fill="none" stroke="midnightblue" d="M2002.12,-171.33C2019.19,-170.15 2037.21,-168.97 2054,-168 2432.01,-146.21 2890.92,-128.91 3019.22,-124.25"/>
<polygon fill="midnightblue" stroke="midnightblue" points="3019.38,-127.74 3029.25,-123.88 3019.13,-120.75 3019.38,-127.74"/>
</g>
<!-- Node17&#45;&gt;Node6 -->
<g id="edge18" class="edge">
<title>Node17&#45;&gt;Node6</title>
<path fill="none" stroke="midnightblue" d="M2002.04,-173.95C2048.53,-172.12 2109.19,-169.81 2163,-168 2722.63,-149.17 3397.26,-130.93 3620.9,-125"/>
<polygon fill="midnightblue" stroke="midnightblue" points="3621.3,-128.49 3631.21,-124.73 3621.12,-121.49 3621.3,-128.49"/>
</g>
<!-- Node17&#45;&gt;Node19 -->
<g id="edge23" class="edge">
<title>Node17&#45;&gt;Node19</title>
<path fill="none" stroke="midnightblue" d="M1917.41,-168.08C1909.84,-160.22 1898.62,-148.57 1889.49,-139.08"/>
<polygon fill="midnightblue" stroke="midnightblue" points="1891.88,-136.53 1882.43,-131.75 1886.84,-141.38 1891.88,-136.53"/>
</g>
<!-- Node7 -->
<g id="node17" class="node">
<title>Node7</title>
<g id="a_node17"><a xlink:href="c_2DataTypes_8h.html" target="_top" xlink:title="llvm&#45;c/DataTypes.h">
<polygon fill="none" stroke="red" points="3646,-56.5 3646,-75.5 3748,-75.5 3748,-56.5 3646,-56.5"/>
<text text-anchor="middle" x="3697" y="-63.5" font-family="Helvetica,sans-Serif" font-size="10.00">llvm&#45;c/DataTypes.h</text>
</a>
</g>
</g>
<!-- Node6&#45;&gt;Node7 -->
<g id="edge19" class="edge">
<title>Node6&#45;&gt;Node7</title>
<path fill="none" stroke="midnightblue" d="M3697,-112.08C3697,-105.01 3697,-94.86 3697,-85.99"/>
<polygon fill="midnightblue" stroke="midnightblue" points="3700.5,-85.75 3697,-75.75 3693.5,-85.75 3700.5,-85.75"/>
</g>
<!-- Node8 -->
<g id="node18" class="node">
<title>Node8</title>
<polygon fill="none" stroke="#bfbfbf" points="3638.5,-0.5 3638.5,-19.5 3685.5,-19.5 3685.5,-0.5 3638.5,-0.5"/>
<text text-anchor="middle" x="3662" y="-7.5" font-family="Helvetica,sans-Serif" font-size="10.00">math.h</text>
</g>
<!-- Node7&#45;&gt;Node8 -->
<g id="edge20" class="edge">
<title>Node7&#45;&gt;Node8</title>
<path fill="none" stroke="midnightblue" d="M3691.22,-56.08C3686.33,-48.53 3679.17,-37.49 3673.17,-28.23"/>
<polygon fill="midnightblue" stroke="midnightblue" points="3676.05,-26.24 3667.67,-19.75 3670.17,-30.05 3676.05,-26.24"/>
</g>
<!-- Node9 -->
<g id="node19" class="node">
<title>Node9</title>
<polygon fill="none" stroke="#bfbfbf" points="3703.5,-0.5 3703.5,-19.5 3762.5,-19.5 3762.5,-0.5 3703.5,-0.5"/>
<text text-anchor="middle" x="3733" y="-7.5" font-family="Helvetica,sans-Serif" font-size="10.00">inttypes.h</text>
</g>
<!-- Node7&#45;&gt;Node9 -->
<g id="edge21" class="edge">
<title>Node7&#45;&gt;Node9</title>
<path fill="none" stroke="midnightblue" d="M3702.94,-56.08C3707.98,-48.53 3715.34,-37.49 3721.51,-28.23"/>
<polygon fill="midnightblue" stroke="midnightblue" points="3724.53,-30.01 3727.17,-19.75 3718.71,-26.13 3724.53,-30.01"/>
</g>
<!-- Node21&#45;&gt;Node22 -->
<g id="edge33" class="edge">
<title>Node21&#45;&gt;Node22</title>
<path fill="none" stroke="midnightblue" d="M2262.62,-168.44C2293.01,-158.68 2342.59,-142.74 2374.24,-132.57"/>
<polygon fill="midnightblue" stroke="midnightblue" points="2375.38,-135.87 2383.83,-129.48 2373.24,-129.21 2375.38,-135.87"/>
</g>
<!-- Node21&#45;&gt;Node13 -->
<g id="edge31" class="edge">
<title>Node21&#45;&gt;Node13</title>
<path fill="none" stroke="midnightblue" d="M2171.81,-174.27C1957,-165.12 1264.15,-135.61 1039.23,-126.03"/>
<polygon fill="midnightblue" stroke="midnightblue" points="1039.34,-122.53 1029.2,-125.61 1039.04,-129.53 1039.34,-122.53"/>
</g>
<!-- Node21&#45;&gt;Node19 -->
<g id="edge32" class="edge">
<title>Node21&#45;&gt;Node19</title>
<path fill="none" stroke="midnightblue" d="M2178.64,-168.44C2105.37,-157.51 1980.31,-138.86 1915.57,-129.2"/>
<polygon fill="midnightblue" stroke="midnightblue" points="1915.75,-125.69 1905.34,-127.67 1914.71,-132.61 1915.75,-125.69"/>
</g>
<!-- Node12&#45;&gt;Node13 -->
<g id="edge35" class="edge">
<title>Node12&#45;&gt;Node13</title>
<path fill="none" stroke="midnightblue" d="M293.01,-229.62C300.61,-213.98 318.74,-181.87 345,-168 369.06,-155.3 738.38,-134.85 896.76,-126.61"/>
<polygon fill="midnightblue" stroke="midnightblue" points="897.07,-130.1 906.88,-126.09 896.71,-123.11 897.07,-130.1"/>
</g>
<!-- Node16 -->
<g id="node28" class="node">
<title>Node16</title>
<polygon fill="none" stroke="#bfbfbf" points="354.5,-168.5 354.5,-187.5 395.5,-187.5 395.5,-168.5 354.5,-168.5"/>
<text text-anchor="middle" x="375" y="-175.5" font-family="Helvetica,sans-Serif" font-size="10.00">string</text>
</g>
<!-- Node12&#45;&gt;Node16 -->
<g id="edge36" class="edge">
<title>Node12&#45;&gt;Node16</title>
<path fill="none" stroke="midnightblue" d="M301.32,-229.98C315.12,-220.43 337.7,-204.81 354.23,-193.37"/>
<polygon fill="midnightblue" stroke="midnightblue" points="356.47,-196.08 362.7,-187.51 352.49,-190.32 356.47,-196.08"/>
</g>
<!-- Node39&#45;&gt;Node28 -->
<g id="edge55" class="edge">
<title>Node39&#45;&gt;Node28</title>
<path fill="none" stroke="midnightblue" d="M1803.97,-294.85C1788.7,-293.54 1772.23,-292.17 1757,-291 1640.41,-282.01 1343.98,-288.69 1232,-255 1187.75,-241.69 1142.19,-211.73 1117.25,-193.65"/>
<polygon fill="midnightblue" stroke="midnightblue" points="1119.15,-190.71 1109.03,-187.58 1114.99,-196.34 1119.15,-190.71"/>
</g>
<!-- Node39&#45;&gt;Node29 -->
<g id="edge63" class="edge">
<title>Node39&#45;&gt;Node29</title>
<path fill="none" stroke="midnightblue" d="M1805.72,-291.48C1737.19,-280.86 1628.37,-263.12 1611,-255 1556.4,-229.49 1563.04,-190.16 1507,-168 1489.01,-160.89 894.9,-131.86 745.05,-124.63"/>
<polygon fill="midnightblue" stroke="midnightblue" points="744.81,-121.12 734.65,-124.13 744.47,-128.11 744.81,-121.12"/>
</g>
<!-- Node39&#45;&gt;Node22 -->
<g id="edge66" class="edge">
<title>Node39&#45;&gt;Node22</title>
<path fill="none" stroke="midnightblue" d="M1920.19,-292.19C1973.57,-284.51 2054.64,-271.54 2124,-255 2173.3,-243.24 2298.89,-214.65 2342,-188 2362.43,-175.37 2380.72,-154.41 2392.05,-139.71"/>
<polygon fill="midnightblue" stroke="midnightblue" points="2395,-141.61 2398.16,-131.5 2389.38,-137.43 2395,-141.61"/>
</g>
<!-- Node39&#45;&gt;Node18 -->
<g id="edge59" class="edge">
<title>Node39&#45;&gt;Node18</title>
<path fill="none" stroke="midnightblue" d="M1920.04,-296.15C2024.61,-288.9 2240.62,-272.37 2314,-255 2351.51,-246.12 2357.74,-233.86 2395,-224 2456.08,-207.83 2892.43,-145.76 3019.41,-127.86"/>
<polygon fill="midnightblue" stroke="midnightblue" points="3019.96,-131.32 3029.38,-126.46 3018.98,-124.39 3019.96,-131.32"/>
</g>
<!-- Node39&#45;&gt;Node19 -->
<g id="edge65" class="edge">
<title>Node39&#45;&gt;Node19</title>
<path fill="none" stroke="midnightblue" d="M1857.93,-291.44C1848.35,-270.1 1826.27,-212.99 1841,-168 1844.49,-157.34 1851.57,-147.12 1858.29,-139.12"/>
<polygon fill="midnightblue" stroke="midnightblue" points="1860.9,-141.44 1864.98,-131.66 1855.7,-136.76 1860.9,-141.44"/>
</g>
<!-- Node39&#45;&gt;Node23 -->
<g id="edge57" class="edge">
<title>Node39&#45;&gt;Node23</title>
<path fill="none" stroke="midnightblue" d="M1803.87,-292.45C1799.18,-291.93 1794.51,-291.44 1790,-291 1674.49,-279.8 1371.85,-308.77 1269,-255 1244.46,-242.17 1226.36,-214.67 1216.5,-196.51"/>
<polygon fill="midnightblue" stroke="midnightblue" points="1219.57,-194.83 1211.88,-187.54 1213.35,-198.03 1219.57,-194.83"/>
</g>
<!-- Node39&#45;&gt;Node24 -->
<g id="edge58" class="edge">
<title>Node39&#45;&gt;Node24</title>
<path fill="none" stroke="midnightblue" d="M1920.1,-296.37C2063.3,-287.32 2423.43,-263.84 2448,-255 2470.51,-246.91 2469.69,-232.64 2492,-224 2550.42,-201.37 2736.43,-186.58 2814.25,-181.23"/>
<polygon fill="midnightblue" stroke="midnightblue" points="2814.75,-184.71 2824.49,-180.54 2814.27,-177.72 2814.75,-184.71"/>
</g>
<!-- Node39&#45;&gt;Node33 -->
<g id="edge64" class="edge">
<title>Node39&#45;&gt;Node33</title>
<path fill="none" stroke="midnightblue" d="M1803.86,-292.42C1712.66,-280.46 1545.71,-258.21 1540,-255 1515.96,-241.47 1497.52,-214.63 1487.22,-196.74"/>
<polygon fill="midnightblue" stroke="midnightblue" points="1490.22,-194.95 1482.35,-187.87 1484.09,-198.32 1490.22,-194.95"/>
</g>
<!-- Node39&#45;&gt;Node12 -->
<g id="edge56" class="edge">
<title>Node39&#45;&gt;Node12</title>
<path fill="none" stroke="midnightblue" d="M1804,-294.49C1788.72,-293.19 1772.25,-291.92 1757,-291 1483.84,-274.61 636.95,-250.21 370.27,-242.75"/>
<polygon fill="midnightblue" stroke="midnightblue" points="370.37,-239.25 360.28,-242.47 370.17,-246.25 370.37,-239.25"/>
</g>
<!-- Node39&#45;&gt;Node35 -->
<g id="edge61" class="edge">
<title>Node39&#45;&gt;Node35</title>
<path fill="none" stroke="midnightblue" d="M1803.98,-294.72C1788.71,-293.41 1772.24,-292.08 1757,-291 1418.29,-266.99 1007.21,-247.4 889.75,-241.99"/>
<polygon fill="midnightblue" stroke="midnightblue" points="889.77,-238.49 879.62,-241.52 889.45,-245.48 889.77,-238.49"/>
</g>
<!-- Node39&#45;&gt;Node36 -->
<g id="edge62" class="edge">
<title>Node39&#45;&gt;Node36</title>
<path fill="none" stroke="midnightblue" d="M1920.29,-297.5C2030.35,-292.4 2276.21,-279.18 2482,-255 2495.75,-253.38 2510.63,-251.15 2524.21,-248.93"/>
<polygon fill="midnightblue" stroke="midnightblue" points="2525.01,-252.34 2534.3,-247.23 2523.86,-245.44 2525.01,-252.34"/>
</g>
<!-- Node41 -->
<g id="node33" class="node">
<title>Node41</title>
<g id="a_node33"><a xlink:href="iterator_8h.html" target="_top" xlink:title="llvm/ADT/iterator.h">
<polygon fill="none" stroke="black" points="1620.5,-230 1620.5,-249 1719.5,-249 1719.5,-230 1620.5,-230"/>
<text text-anchor="middle" x="1670" y="-237" font-family="Helvetica,sans-Serif" font-size="10.00">llvm/ADT/iterator.h</text>
</a>
</g>
</g>
<!-- Node39&#45;&gt;Node41 -->
<g id="edge48" class="edge">
<title>Node39&#45;&gt;Node41</title>
<path fill="none" stroke="midnightblue" d="M1834.49,-291.48C1801.13,-281.14 1744.74,-263.66 1707.44,-252.1"/>
<polygon fill="midnightblue" stroke="midnightblue" points="1708.05,-248.63 1697.46,-249.01 1705.97,-255.31 1708.05,-248.63"/>
</g>
<!-- Node39&#45;&gt;Node43 -->
<g id="edge60" class="edge">
<title>Node39&#45;&gt;Node43</title>
<path fill="none" stroke="midnightblue" d="M1920.37,-297.29C2143.3,-286.93 2937.13,-250.06 3109.72,-242.05"/>
<polygon fill="midnightblue" stroke="midnightblue" points="3109.91,-245.54 3119.74,-241.58 3109.59,-238.55 3109.91,-245.54"/>
</g>
<!-- Node41&#45;&gt;Node28 -->
<g id="edge49" class="edge">
<title>Node41&#45;&gt;Node28</title>
<path fill="none" stroke="midnightblue" d="M1620.38,-233.84C1532.4,-225.5 1343,-207.19 1172.26,-188.12"/>
<polygon fill="midnightblue" stroke="midnightblue" points="1172.41,-184.62 1162.08,-186.98 1171.63,-191.57 1172.41,-184.62"/>
</g>
<!-- Node41&#45;&gt;Node29 -->
<g id="edge52" class="edge">
<title>Node41&#45;&gt;Node29</title>
<path fill="none" stroke="midnightblue" d="M1661.6,-229.99C1645.52,-214.33 1608.54,-181.34 1570,-168 1560.06,-164.56 902.16,-132.31 744.62,-124.64"/>
<polygon fill="midnightblue" stroke="midnightblue" points="744.73,-121.14 734.57,-124.15 744.39,-128.13 744.73,-121.14"/>
</g>
<!-- Node41&#45;&gt;Node22 -->
<g id="edge54" class="edge">
<title>Node41&#45;&gt;Node22</title>
<path fill="none" stroke="midnightblue" d="M1719.53,-235.65C1786.76,-230.77 1910.1,-218.24 2011,-188 2031.19,-181.95 2033.75,-173.86 2054,-168 2168.92,-134.75 2312.17,-126.04 2373.66,-123.78"/>
<polygon fill="midnightblue" stroke="midnightblue" points="2373.95,-127.28 2383.83,-123.44 2373.72,-120.28 2373.95,-127.28"/>
</g>
<!-- Node41&#45;&gt;Node18 -->
<g id="edge51" class="edge">
<title>Node41&#45;&gt;Node18</title>
<path fill="none" stroke="midnightblue" d="M1719.79,-232.44C1792.01,-223.5 1929.99,-205.92 2047,-188 2098.71,-180.08 2111,-173.77 2163,-168 2495.1,-131.12 2900.24,-124.44 3019.46,-123.25"/>
<polygon fill="midnightblue" stroke="midnightblue" points="3019.5,-126.75 3029.46,-123.16 3019.43,-119.75 3019.5,-126.75"/>
</g>
<!-- Node41&#45;&gt;Node19 -->
<g id="edge53" class="edge">
<title>Node41&#45;&gt;Node19</title>
<path fill="none" stroke="midnightblue" d="M1670.39,-229.7C1671.55,-214.76 1676.11,-184.46 1694,-168 1731.83,-133.19 1792.46,-124.29 1832.75,-122.53"/>
<polygon fill="midnightblue" stroke="midnightblue" points="1832.89,-126.03 1842.78,-122.22 1832.68,-119.03 1832.89,-126.03"/>
</g>
<!-- Node41&#45;&gt;Node23 -->
<g id="edge50" class="edge">
<title>Node41&#45;&gt;Node23</title>
<path fill="none" stroke="midnightblue" d="M1620.12,-232.08C1527.15,-220.1 1329.28,-194.62 1246.1,-183.91"/>
<polygon fill="midnightblue" stroke="midnightblue" points="1246.43,-180.42 1236.07,-182.61 1245.54,-187.36 1246.43,-180.42"/>
</g>
<!-- Node48&#45;&gt;Node28 -->
<g id="edge76" class="edge">
<title>Node48&#45;&gt;Node28</title>
<path fill="none" stroke="midnightblue" d="M1507.94,-352.07C1428.84,-345.8 1287.47,-332.03 1241,-311 1182.7,-284.61 1132.39,-225.01 1110.16,-195.79"/>
<polygon fill="midnightblue" stroke="midnightblue" points="1112.97,-193.7 1104.19,-187.77 1107.35,-197.88 1112.97,-193.7"/>
</g>
<!-- Node48&#45;&gt;Node22 -->
<g id="edge85" class="edge">
<title>Node48&#45;&gt;Node22</title>
<path fill="none" stroke="midnightblue" d="M1618.16,-354.64C1832.03,-349.27 2600.06,-328.91 2708,-311 2718.75,-309.22 2889.49,-263.74 2896,-255 2909.57,-236.8 2885.26,-170.8 2882,-168 2848.03,-138.81 2534.13,-126.91 2434.32,-123.85"/>
<polygon fill="midnightblue" stroke="midnightblue" points="2434.12,-120.34 2424.02,-123.54 2433.91,-127.34 2434.12,-120.34"/>
</g>
<!-- Node48&#45;&gt;Node13 -->
<g id="edge77" class="edge">
<title>Node48&#45;&gt;Node13</title>
<path fill="none" stroke="midnightblue" d="M1507.76,-354.46C1357.28,-350 942.38,-335.75 808,-311 686.61,-288.64 607.88,-301.34 559,-188 555.48,-179.84 553.07,-174.62 559,-168 581.07,-143.36 785.3,-130.82 896.55,-125.77"/>
<polygon fill="midnightblue" stroke="midnightblue" points="896.86,-129.26 906.69,-125.32 896.54,-122.27 896.86,-129.26"/>
</g>
<!-- Node48&#45;&gt;Node18 -->
<g id="edge80" class="edge">
<title>Node48&#45;&gt;Node18</title>
<path fill="none" stroke="midnightblue" d="M1618.12,-354.41C1845.77,-347.77 2703.41,-322.13 2760,-311 2777.76,-307.51 2897.58,-264.49 2913,-255 2966.34,-222.17 3016.91,-166.98 3040.35,-139.53"/>
<polygon fill="midnightblue" stroke="midnightblue" points="3043.21,-141.56 3046.98,-131.66 3037.86,-137.05 3043.21,-141.56"/>
</g>
<!-- Node48&#45;&gt;Node19 -->
<g id="edge84" class="edge">
<title>Node48&#45;&gt;Node19</title>
<path fill="none" stroke="midnightblue" d="M1568.11,-347.06C1576.53,-333.1 1594.65,-306.14 1617,-291 1659.93,-261.9 1683.85,-282.21 1728,-255 1751.14,-240.74 1793.51,-185.87 1814,-168 1826.35,-157.22 1841.07,-146.16 1852.83,-137.7"/>
<polygon fill="midnightblue" stroke="midnightblue" points="1855.04,-140.43 1861.17,-131.79 1850.99,-134.72 1855.04,-140.43"/>
</g>
<!-- Node48&#45;&gt;Node23 -->
<g id="edge78" class="edge">
<title>Node48&#45;&gt;Node23</title>
<path fill="none" stroke="midnightblue" d="M1543.08,-347.45C1510.54,-333.77 1443.75,-306.91 1385,-291 1298.25,-267.5 1243.62,-323.98 1186,-255 1171.88,-238.1 1184.07,-212.56 1195.16,-195.83"/>
<polygon fill="midnightblue" stroke="midnightblue" points="1198.1,-197.74 1201.03,-187.56 1192.39,-193.69 1198.1,-197.74"/>
</g>
<!-- Node48&#45;&gt;Node24 -->
<g id="edge79" class="edge">
<title>Node48&#45;&gt;Node24</title>
<path fill="none" stroke="midnightblue" d="M1618.19,-355.08C1775.72,-351.52 2240.26,-334.52 2616,-255 2690.34,-239.27 2774.35,-208.5 2818.36,-191.33"/>
<polygon fill="midnightblue" stroke="midnightblue" points="2819.87,-194.5 2827.9,-187.58 2817.31,-187.98 2819.87,-194.5"/>
</g>
<!-- Node48&#45;&gt;Node25 -->
<g id="edge81" class="edge">
<title>Node48&#45;&gt;Node25</title>
<path fill="none" stroke="midnightblue" d="M1507.75,-353.98C1338.27,-347.12 828.22,-321.33 678,-255 647.73,-241.63 620.34,-213.92 604.69,-195.92"/>
<polygon fill="midnightblue" stroke="midnightblue" points="607.11,-193.35 597.99,-187.96 601.75,-197.86 607.11,-193.35"/>
</g>
<!-- Node48&#45;&gt;Node33 -->
<g id="edge82" class="edge">
<title>Node48&#45;&gt;Node33</title>
<path fill="none" stroke="midnightblue" d="M1557.03,-347.43C1545.39,-330.45 1519.38,-291.02 1503,-255 1494.39,-236.08 1487.3,-213.3 1482.9,-197.65"/>
<polygon fill="midnightblue" stroke="midnightblue" points="1486.19,-196.4 1480.19,-187.66 1479.43,-198.23 1486.19,-196.4"/>
</g>
<!-- Node48&#45;&gt;Node16 -->
<g id="edge83" class="edge">
<title>Node48&#45;&gt;Node16</title>
<path fill="none" stroke="midnightblue" d="M1507.79,-354.9C1343.73,-351.33 860.91,-338.72 706,-311 623.53,-296.24 603.68,-286.38 526,-255 479.79,-236.33 428.45,-208.99 399.11,-192.7"/>
<polygon fill="midnightblue" stroke="midnightblue" points="400.48,-189.45 390.05,-187.62 397.06,-195.56 400.48,-189.45"/>
</g>
<!-- Node48&#45;&gt;Node39 -->
<g id="edge75" class="edge">
<title>Node48&#45;&gt;Node39</title>
<path fill="none" stroke="midnightblue" d="M1610.38,-347.44C1663.08,-337.92 1748.23,-322.55 1804.66,-312.36"/>
<polygon fill="midnightblue" stroke="midnightblue" points="1805.63,-315.74 1814.84,-310.52 1804.38,-308.85 1805.63,-315.74"/>
</g>
<!-- Node49&#45;&gt;Node6 -->
<g id="edge87" class="edge">
<title>Node49&#45;&gt;Node6</title>
<path fill="none" stroke="midnightblue" d="M3400.99,-224.45C3467.95,-201.5 3599.62,-156.38 3662.28,-134.9"/>
<polygon fill="midnightblue" stroke="midnightblue" points="3663.75,-138.1 3672.08,-131.54 3661.48,-131.47 3663.75,-138.1"/>
</g>
<!-- Node49&#45;&gt;Node19 -->
<g id="edge88" class="edge">
<title>Node49&#45;&gt;Node19</title>
<path fill="none" stroke="midnightblue" d="M3298.25,-226.39C3293.44,-225.55 3288.64,-224.74 3284,-224 3159.22,-204.15 3127.01,-206.39 3002,-188 2948.51,-180.13 2935.77,-173.66 2882,-168 2508.04,-128.63 2052.5,-123.65 1915.12,-123.06"/>
<polygon fill="midnightblue" stroke="midnightblue" points="1915.05,-119.56 1905.03,-123.02 1915.02,-126.56 1915.05,-119.56"/>
</g>
<!-- Node52&#45;&gt;Node43 -->
<g id="edge94" class="edge">
<title>Node52&#45;&gt;Node43</title>
<path fill="none" stroke="midnightblue" d="M2849.03,-353.06C2903.49,-348.7 2982.32,-337.87 3046,-311 3077.6,-297.66 3108.71,-272.29 3126.86,-255.9"/>
<polygon fill="midnightblue" stroke="midnightblue" points="3129.28,-258.43 3134.25,-249.08 3124.53,-253.29 3129.28,-258.43"/>
</g>
<!-- Node53&#45;&gt;Node49 -->
<g id="edge99" class="edge">
<title>Node53&#45;&gt;Node49</title>
<path fill="none" stroke="midnightblue" d="M3535.45,-403.42C3531.11,-381.68 3516.85,-323.84 3483,-291 3467.84,-276.29 3447.79,-265.64 3428.3,-258.03"/>
<polygon fill="midnightblue" stroke="midnightblue" points="3429.39,-254.7 3418.8,-254.54 3426.97,-261.27 3429.39,-254.7"/>
</g>
<!-- Node54&#45;&gt;Node26 -->
<g id="edge111" class="edge">
<title>Node54&#45;&gt;Node26</title>
<path fill="none" stroke="midnightblue" d="M3270.15,-347.68C3200.64,-337.51 3083.71,-320.4 3014.4,-310.25"/>
<polygon fill="midnightblue" stroke="midnightblue" points="3014.52,-306.73 3004.11,-308.75 3013.5,-313.66 3014.52,-306.73"/>
</g>
<!-- Node54&#45;&gt;Node24 -->
<g id="edge112" class="edge">
<title>Node54&#45;&gt;Node24</title>
<path fill="none" stroke="midnightblue" d="M3327,-347.17C3326.59,-333.82 3324.13,-308.24 3312,-291 3294.97,-266.8 3280.87,-271.03 3256,-255 3234.65,-241.24 3231.93,-232.49 3208,-224 3072.08,-175.76 3024.59,-216.1 2883.47,-188.97"/>
<polygon fill="midnightblue" stroke="midnightblue" points="2884.09,-185.52 2873.6,-186.99 2882.71,-192.38 2884.09,-185.52"/>
</g>
<!-- Node55&#45;&gt;Node18 -->
<g id="edge189" class="edge">
<title>Node55&#45;&gt;Node18</title>
<path fill="none" stroke="midnightblue" d="M1865.56,-692.12C2203.75,-692.5 3944,-689.23 3944,-582 3944,-582 3944,-582 3944,-524 3944,-418.7 3961.38,-377.27 3901,-291 3839.2,-202.7 3794.93,-199.97 3692,-168 3577.86,-132.54 3204.51,-124.9 3088.63,-123.36"/>
<polygon fill="midnightblue" stroke="midnightblue" points="3088.59,-119.86 3078.54,-123.24 3088.5,-126.86 3088.59,-119.86"/>
</g>
<!-- Node55&#45;&gt;Node31 -->
<g id="edge187" class="edge">
<title>Node55&#45;&gt;Node31</title>
<path fill="none" stroke="midnightblue" d="M1752.33,-691.18C1465.78,-686.66 190,-662.03 190,-582 190,-582 190,-582 190,-468 190,-357.77 1010.3,-271.76 1268.3,-247.43"/>
<polygon fill="midnightblue" stroke="midnightblue" points="1268.7,-250.91 1278.33,-246.49 1268.05,-243.94 1268.7,-250.91"/>
</g>
<!-- Node55&#45;&gt;Node24 -->
<g id="edge188" class="edge">
<title>Node55&#45;&gt;Node24</title>
<path fill="none" stroke="midnightblue" d="M1865.68,-690.48C2196.95,-681.22 3868,-629.38 3868,-526 3868,-526 3868,-526 3868,-412 3868,-322.54 3598.06,-248.45 3512,-224 3392.16,-189.95 3002.61,-181.32 2883.75,-179.46"/>
<polygon fill="midnightblue" stroke="midnightblue" points="2883.8,-175.96 2873.75,-179.31 2883.69,-182.96 2883.8,-175.96"/>
</g>
<!-- Node55&#45;&gt;Node12 -->
<g id="edge186" class="edge">
<title>Node55&#45;&gt;Node12</title>
<path fill="none" stroke="midnightblue" d="M1752.43,-691.54C1519.38,-689.47 632.96,-679.56 355,-647 212.16,-630.27 38,-725.82 38,-582 38,-582 38,-582 38,-356 38,-279.95 134.27,-253.8 207.57,-244.91"/>
<polygon fill="midnightblue" stroke="midnightblue" points="208.2,-248.36 217.74,-243.76 207.42,-241.4 208.2,-248.36"/>
</g>
<!-- Node55&#45;&gt;Node43 -->
<g id="edge190" class="edge">
<title>Node55&#45;&gt;Node43</title>
<path fill="none" stroke="midnightblue" d="M1865.8,-689.02C2056.49,-678.64 2672.51,-641.9 2864,-591 2922.44,-575.46 2947.64,-580.03 2988,-535 3029.18,-489.05 3002.17,-457.55 3031,-403 3055.13,-357.33 3073.18,-353.86 3102,-311 3113.68,-293.63 3125.55,-272.8 3133.49,-258.31"/>
<polygon fill="midnightblue" stroke="midnightblue" points="3136.62,-259.87 3138.31,-249.41 3130.47,-256.53 3136.62,-259.87"/>
</g>
<!-- Node55&#45;&gt;Node48 -->
<g id="edge154" class="edge">
<title>Node55&#45;&gt;Node48</title>
<path fill="none" stroke="midnightblue" d="M1752.43,-688.66C1669.91,-683.08 1521.14,-670.13 1473,-647 1435.32,-628.89 1405,-623.81 1405,-582 1405,-582 1405,-582 1405,-468 1405,-413.39 1469.35,-383.68 1515.92,-369.33"/>
<polygon fill="midnightblue" stroke="midnightblue" points="1516.95,-372.68 1525.56,-366.5 1514.98,-365.96 1516.95,-372.68"/>
</g>
<!-- Node56 -->
<g id="node41" class="node">
<title>Node56</title>
<g id="a_node41"><a xlink:href="PointerIntPair_8h.html" target="_top" xlink:title="llvm/ADT/PointerIntPair.h">
<polygon fill="none" stroke="black" points="2538,-291.5 2538,-310.5 2666,-310.5 2666,-291.5 2538,-291.5"/>
<text text-anchor="middle" x="2602" y="-298.5" font-family="Helvetica,sans-Serif" font-size="10.00">llvm/ADT/PointerIntPair.h</text>
</a>
</g>
</g>
<!-- Node55&#45;&gt;Node56 -->
<g id="edge115" class="edge">
<title>Node55&#45;&gt;Node56</title>
<path fill="none" stroke="midnightblue" d="M1831.05,-683.4C1884.88,-662.59 2027.45,-608.44 2149,-571 2303.54,-523.4 2372.66,-577.37 2501,-479 2555.71,-437.06 2585.65,-356.43 2596.83,-320.3"/>
<polygon fill="midnightblue" stroke="midnightblue" points="2600.22,-321.19 2599.7,-310.61 2593.5,-319.2 2600.22,-321.19"/>
</g>
<!-- Node57 -->
<g id="node42" class="node">
<title>Node57</title>
<g id="a_node42"><a xlink:href="StringMap_8h.html" target="_top" xlink:title="llvm/ADT/StringMap.h">
<polygon fill="none" stroke="black" points="1263.5,-403.5 1263.5,-422.5 1376.5,-422.5 1376.5,-403.5 1263.5,-403.5"/>
<text text-anchor="middle" x="1320" y="-410.5" font-family="Helvetica,sans-Serif" font-size="10.00">llvm/ADT/StringMap.h</text>
</a>
</g>
</g>
<!-- Node55&#45;&gt;Node57 -->
<g id="edge122" class="edge">
<title>Node55&#45;&gt;Node57</title>
<path fill="none" stroke="midnightblue" d="M1752.33,-691.52C1652.7,-689.76 1451.05,-681.86 1391,-647 1360.17,-629.1 1344,-617.65 1344,-582 1344,-582 1344,-582 1344,-524 1344,-491.06 1333.6,-453.82 1326.49,-432.21"/>
<polygon fill="midnightblue" stroke="midnightblue" points="1329.78,-431.03 1323.24,-422.7 1323.16,-433.29 1329.78,-431.03"/>
</g>
<!-- Node60 -->
<g id="node45" class="node">
<title>Node60</title>
<g id="a_node45"><a xlink:href="MCFragment_8h.html" target="_top" xlink:title="llvm/MC/MCFragment.h">
<polygon fill="none" stroke="black" points="2069,-627.5 2069,-646.5 2191,-646.5 2191,-627.5 2069,-627.5"/>
<text text-anchor="middle" x="2130" y="-634.5" font-family="Helvetica,sans-Serif" font-size="10.00">llvm/MC/MCFragment.h</text>
</a>
</g>
</g>
<!-- Node55&#45;&gt;Node60 -->
<g id="edge155" class="edge">
<title>Node55&#45;&gt;Node60</title>
<path fill="none" stroke="midnightblue" d="M1859.86,-683.44C1916.68,-673.89 2008.62,-658.42 2069.19,-648.23"/>
<polygon fill="midnightblue" stroke="midnightblue" points="2070.09,-651.63 2079.37,-646.52 2068.93,-644.72 2070.09,-651.63"/>
</g>
<!-- Node56&#45;&gt;Node13 -->
<g id="edge116" class="edge">
<title>Node56&#45;&gt;Node13</title>
<path fill="none" stroke="midnightblue" d="M2537.56,-299.5C2415.93,-297.72 2144.49,-289.82 1919,-255 1795.53,-235.93 1763.68,-229.96 1646,-188 1626.53,-181.06 1623.99,-173.27 1604,-168 1499.18,-140.39 1182.5,-128.69 1039.48,-124.71"/>
<polygon fill="midnightblue" stroke="midnightblue" points="1039.16,-121.2 1029.07,-124.43 1038.97,-128.2 1039.16,-121.2"/>
</g>
<!-- Node56&#45;&gt;Node24 -->
<g id="edge119" class="edge">
<title>Node56&#45;&gt;Node24</title>
<path fill="none" stroke="midnightblue" d="M2666.02,-291.67C2745.39,-281.05 2871.14,-263.07 2878,-255 2892.64,-237.77 2877.63,-212.37 2864.33,-195.75"/>
<polygon fill="midnightblue" stroke="midnightblue" points="2866.84,-193.3 2857.69,-187.96 2861.51,-197.84 2866.84,-193.3"/>
</g>
<!-- Node56&#45;&gt;Node33 -->
<g id="edge121" class="edge">
<title>Node56&#45;&gt;Node33</title>
<path fill="none" stroke="midnightblue" d="M2537.88,-298.84C2332.54,-294.87 1699.49,-280.66 1611,-255 1566.87,-242.2 1521.72,-212.06 1497.04,-193.81"/>
<polygon fill="midnightblue" stroke="midnightblue" points="1499,-190.91 1488.91,-187.69 1494.78,-196.5 1499,-190.91"/>
</g>
<!-- Node56&#45;&gt;Node21 -->
<g id="edge118" class="edge">
<title>Node56&#45;&gt;Node21</title>
<path fill="none" stroke="midnightblue" d="M2614.51,-291.38C2634.52,-276.59 2669.59,-245.84 2650,-224 2627.79,-199.24 2423.62,-186.83 2310.54,-181.8"/>
<polygon fill="midnightblue" stroke="midnightblue" points="2310.37,-178.29 2300.23,-181.35 2310.06,-185.28 2310.37,-178.29"/>
</g>
<!-- Node56&#45;&gt;Node43 -->
<g id="edge120" class="edge">
<title>Node56&#45;&gt;Node43</title>
<path fill="none" stroke="midnightblue" d="M2666.18,-292.94C2781.97,-280.21 3021.93,-253.82 3109.82,-244.15"/>
<polygon fill="midnightblue" stroke="midnightblue" points="3110.2,-247.63 3119.76,-243.06 3109.44,-240.67 3110.2,-247.63"/>
</g>
<!-- Node56&#45;&gt;Node49 -->
<g id="edge117" class="edge">
<title>Node56&#45;&gt;Node49</title>
<path fill="none" stroke="midnightblue" d="M2666.3,-294.95C2806.9,-283.92 3140.84,-257.7 3288.11,-246.14"/>
<polygon fill="midnightblue" stroke="midnightblue" points="3288.7,-249.61 3298.39,-245.34 3288.15,-242.63 3288.7,-249.61"/>
</g>
<!-- Node57&#45;&gt;Node28 -->
<g id="edge125" class="edge">
<title>Node57&#45;&gt;Node28</title>
<path fill="none" stroke="midnightblue" d="M1263.12,-410.31C1161.32,-406.6 952.43,-395.65 886,-367 850.99,-351.9 843.06,-342.1 821,-311 797.92,-278.47 772.98,-254.23 799,-224 827.39,-191.02 944.43,-181.88 1023.38,-179.54"/>
<polygon fill="midnightblue" stroke="midnightblue" points="1023.87,-183.03 1033.77,-179.26 1023.68,-176.03 1023.87,-183.03"/>
</g>
<!-- Node57&#45;&gt;Node29 -->
<g id="edge152" class="edge">
<title>Node57&#45;&gt;Node29</title>
<path fill="none" stroke="midnightblue" d="M1263.27,-410.87C1071.63,-406.82 455.48,-391.98 370,-367 274.07,-338.96 225.07,-341.5 175,-255 155.07,-220.57 164.32,-192.06 196,-168 234.26,-138.94 568.8,-127.01 677.23,-123.89"/>
<polygon fill="midnightblue" stroke="midnightblue" points="677.4,-127.38 687.29,-123.6 677.2,-120.39 677.4,-127.38"/>
</g>
<!-- Node57&#45;&gt;Node22 -->
<g id="edge153" class="edge">
<title>Node57&#45;&gt;Node22</title>
<path fill="none" stroke="midnightblue" d="M1376.69,-412.51C1509.84,-412.92 1852.62,-409.37 2135,-367 2152.38,-364.39 2424.87,-294.89 2442,-291 2519.01,-273.51 2566.14,-316.24 2616,-255 2671.6,-186.72 2505.58,-143.71 2434.56,-128.84"/>
<polygon fill="midnightblue" stroke="midnightblue" points="2434.92,-125.34 2424.42,-126.77 2433.52,-132.2 2434.92,-125.34"/>
</g>
<!-- Node57&#45;&gt;Node23 -->
<g id="edge146" class="edge">
<title>Node57&#45;&gt;Node23</title>
<path fill="none" stroke="midnightblue" d="M1263.5,-408.88C1171.84,-403.23 995.14,-389.74 937,-367 865.98,-339.22 835.21,-325.85 807,-255 769.02,-159.62 959.2,-221.02 1169.76,-187.94"/>
<polygon fill="midnightblue" stroke="midnightblue" points="1170.5,-191.36 1179.8,-186.29 1169.37,-184.46 1170.5,-191.36"/>
</g>
<!-- Node57&#45;&gt;Node24 -->
<g id="edge147" class="edge">
<title>Node57&#45;&gt;Node24</title>
<path fill="none" stroke="midnightblue" d="M1376.7,-410.7C1547.66,-406.55 2056.31,-392.35 2220,-367 2254.52,-361.65 2262.13,-355.53 2296,-347 2399.28,-321 2425.32,-315.35 2529,-291 2598.69,-274.64 2618.29,-278.26 2686,-255 2736.85,-237.54 2793.04,-209.18 2824.38,-192.49"/>
<polygon fill="midnightblue" stroke="midnightblue" points="2826.12,-195.52 2833.27,-187.71 2822.81,-189.36 2826.12,-195.52"/>
</g>
<!-- Node57&#45;&gt;Node25 -->
<g id="edge150" class="edge">
<title>Node57&#45;&gt;Node25</title>
<path fill="none" stroke="midnightblue" d="M1263.49,-410.35C1155.21,-406.59 922.63,-395.38 848,-367 743.75,-327.37 644.21,-233.45 606.69,-195.41"/>
<polygon fill="midnightblue" stroke="midnightblue" points="608.75,-192.51 599.27,-187.79 603.74,-197.4 608.75,-192.51"/>
</g>
<!-- Node57&#45;&gt;Node12 -->
<g id="edge145" class="edge">
<title>Node57&#45;&gt;Node12</title>
<path fill="none" stroke="midnightblue" d="M1263.32,-411.72C1075.57,-410.45 481.44,-403.55 404,-367 353.82,-343.31 315.6,-286.76 298.63,-257.97"/>
<polygon fill="midnightblue" stroke="midnightblue" points="301.53,-255.99 293.53,-249.05 295.46,-259.47 301.53,-255.99"/>
</g>
<!-- Node57&#45;&gt;Node35 -->
<g id="edge149" class="edge">
<title>Node57&#45;&gt;Node35</title>
<path fill="none" stroke="midnightblue" d="M1263.13,-406.95C1155.32,-396.17 927.29,-367.18 875,-311 861.98,-297.01 858.06,-274.94 857.04,-259.22"/>
<polygon fill="midnightblue" stroke="midnightblue" points="860.53,-258.98 856.71,-249.1 853.53,-259.21 860.53,-258.98"/>
</g>
<!-- Node57&#45;&gt;Node36 -->
<g id="edge151" class="edge">
<title>Node57&#45;&gt;Node36</title>
<path fill="none" stroke="midnightblue" d="M1376.64,-411.25C1530.9,-408.8 1956.06,-399.25 2092,-367 2174.9,-347.33 2185.99,-314.12 2268,-291 2376.89,-260.3 2409.34,-278.52 2520,-255 2524.48,-254.05 2529.14,-252.92 2533.74,-251.72"/>
<polygon fill="midnightblue" stroke="midnightblue" points="2534.92,-255.03 2543.64,-249.01 2533.07,-248.27 2534.92,-255.03"/>
</g>
<!-- Node57&#45;&gt;Node41 -->
<g id="edge124" class="edge">
<title>Node57&#45;&gt;Node41</title>
<path fill="none" stroke="midnightblue" d="M1334.8,-403.38C1370.5,-382.73 1464.43,-329.32 1546,-291 1576.46,-276.69 1612.13,-262.41 1637.37,-252.71"/>
<polygon fill="midnightblue" stroke="midnightblue" points="1638.74,-255.93 1646.84,-249.1 1636.24,-249.39 1638.74,-255.93"/>
</g>
<!-- Node57&#45;&gt;Node43 -->
<g id="edge148" class="edge">
<title>Node57&#45;&gt;Node43</title>
<path fill="none" stroke="midnightblue" d="M1376.72,-410.45C1526.87,-406.11 1947.08,-392.47 2296,-367 2385.1,-360.5 2406.99,-354.55 2496,-347 2725.51,-327.54 2791.84,-375.37 3013,-311 3024.15,-307.75 3084.51,-273.86 3118.93,-254.28"/>
<polygon fill="midnightblue" stroke="midnightblue" points="3120.93,-257.16 3127.88,-249.17 3117.46,-251.08 3120.93,-257.16"/>
</g>
<!-- Node57&#45;&gt;Node48 -->
<g id="edge123" class="edge">
<title>Node57&#45;&gt;Node48</title>
<path fill="none" stroke="midnightblue" d="M1358.5,-403.44C1400.81,-394.04 1468.82,-378.93 1514.67,-368.74"/>
<polygon fill="midnightblue" stroke="midnightblue" points="1515.67,-372.1 1524.68,-366.52 1514.15,-365.27 1515.67,-372.1"/>
</g>
<!-- Node57&#45;&gt;Node49 -->
<g id="edge144" class="edge">
<title>Node57&#45;&gt;Node49</title>
<path fill="none" stroke="midnightblue" d="M1376.79,-410.59C1538.45,-406.36 2014.98,-392.5 2410,-367 2551.81,-357.84 2906.59,-332.88 3047,-311 3135.03,-297.28 3235.24,-273.18 3298.05,-257.03"/>
<polygon fill="midnightblue" stroke="midnightblue" points="3298.99,-260.4 3307.8,-254.51 3297.24,-253.63 3298.99,-260.4"/>
</g>
<!-- Node58 -->
<g id="node43" class="node">
<title>Node58</title>
<g id="a_node43"><a xlink:href="Allocator_8h.html" target="_top" xlink:title="This file defines the MallocAllocator and BumpPtrAllocator interfaces. ">
<polygon fill="none" stroke="red" points="1052.5,-347.5 1052.5,-366.5 1173.5,-366.5 1173.5,-347.5 1052.5,-347.5"/>
<text text-anchor="middle" x="1113" y="-354.5" font-family="Helvetica,sans-Serif" font-size="10.00">llvm/Support/Allocator.h</text>
</a>
</g>
</g>
<!-- Node57&#45;&gt;Node58 -->
<g id="edge126" class="edge">
<title>Node57&#45;&gt;Node58</title>
<path fill="none" stroke="midnightblue" d="M1287.2,-403.44C1251.62,-394.16 1194.69,-379.31 1155.65,-369.13"/>
<polygon fill="midnightblue" stroke="midnightblue" points="1156.21,-365.65 1145.65,-366.52 1154.44,-372.43 1156.21,-365.65"/>
</g>
<!-- Node58&#45;&gt;Node27 -->
<g id="edge127" class="edge">
<title>Node58&#45;&gt;Node27</title>
<path fill="none" stroke="midnightblue" d="M1173.61,-350.3C1280.47,-340.24 1501.83,-319.42 1615.79,-308.7"/>
<polygon fill="midnightblue" stroke="midnightblue" points="1616.18,-312.18 1625.81,-307.76 1615.52,-305.21 1616.18,-312.18"/>
</g>
<!-- Node58&#45;&gt;Node29 -->
<g id="edge141" class="edge">
<title>Node58&#45;&gt;Node29</title>
<path fill="none" stroke="midnightblue" d="M1052.44,-354.49C897.1,-350.27 487.38,-336.97 354,-311 277.57,-296.12 233.41,-318.25 188,-255 163.39,-220.73 189.67,-189.46 226,-168 302.49,-122.81 580.16,-121.49 677.22,-122.46"/>
<polygon fill="midnightblue" stroke="midnightblue" points="677.32,-125.97 687.36,-122.58 677.4,-118.97 677.32,-125.97"/>
</g>
<!-- Node58&#45;&gt;Node22 -->
<g id="edge143" class="edge">
<title>Node58&#45;&gt;Node22</title>
<path fill="none" stroke="midnightblue" d="M1173.64,-353.84C1350.21,-347.39 1856.13,-327.67 1929,-311 1951.53,-305.85 1954.78,-297.35 1977,-291 2072.69,-263.68 2102.02,-281.3 2198,-255 2276.72,-233.43 2307.91,-242.14 2369,-188 2383.06,-175.54 2392.5,-156.03 2397.99,-141.63"/>
<polygon fill="midnightblue" stroke="midnightblue" points="2401.43,-142.42 2401.44,-131.82 2394.82,-140.1 2401.43,-142.42"/>
</g>
<!-- Node58&#45;&gt;Node13 -->
<g id="edge133" class="edge">
<title>Node58&#45;&gt;Node13</title>
<path fill="none" stroke="midnightblue" d="M1052.31,-353.6C943.76,-348.84 709.32,-336.37 513,-311 478.94,-306.6 230.98,-281.39 209,-255 151,-185.35 245.64,-188.03 317,-168 371.63,-152.66 739.49,-133.77 896.83,-126.28"/>
<polygon fill="midnightblue" stroke="midnightblue" points="897.06,-129.77 906.89,-125.8 896.73,-122.78 897.06,-129.77"/>
</g>
<!-- Node58&#45;&gt;Node18 -->
<g id="edge138" class="edge">
<title>Node58&#45;&gt;Node18</title>
<path fill="none" stroke="midnightblue" d="M1173.93,-354.45C1459.98,-347.17 2656.67,-316.41 2675,-311 2691.45,-306.15 2691.99,-297.15 2708,-291 2787.41,-260.47 2819.78,-292.78 2896,-255 2947.89,-229.28 2948.09,-204.56 2993,-168 3006.01,-157.41 3021.19,-146.2 3033.16,-137.62"/>
<polygon fill="midnightblue" stroke="midnightblue" points="3035.47,-140.28 3041.59,-131.63 3031.41,-134.57 3035.47,-140.28"/>
</g>
<!-- Node58&#45;&gt;Node31 -->
<g id="edge135" class="edge">
<title>Node58&#45;&gt;Node31</title>
<path fill="none" stroke="midnightblue" d="M1129.52,-347.49C1153.86,-334.98 1200.82,-310.95 1241,-291 1266.92,-278.13 1296.63,-263.74 1317.64,-253.62"/>
<polygon fill="midnightblue" stroke="midnightblue" points="1319.42,-256.65 1326.92,-249.16 1316.39,-250.34 1319.42,-256.65"/>
</g>
<!-- Node58&#45;&gt;Node19 -->
<g id="edge142" class="edge">
<title>Node58&#45;&gt;Node19</title>
<path fill="none" stroke="midnightblue" d="M1052.31,-352.83C980.56,-347.98 866.62,-336.44 833,-311 800.82,-286.65 782.27,-255.89 807,-224 871.04,-141.43 1644.21,-126 1832.74,-123.46"/>
<polygon fill="midnightblue" stroke="midnightblue" points="1832.85,-126.96 1842.8,-123.33 1832.75,-119.96 1832.85,-126.96"/>
</g>
<!-- Node58&#45;&gt;Node23 -->
<g id="edge136" class="edge">
<title>Node58&#45;&gt;Node23</title>
<path fill="none" stroke="midnightblue" d="M1052.31,-349.78C948.58,-336.92 754.85,-301.83 825,-224 874.84,-168.71 1078.87,-198.73 1169.81,-187.74"/>
<polygon fill="midnightblue" stroke="midnightblue" points="1170.41,-191.18 1179.8,-186.27 1169.4,-184.26 1170.41,-191.18"/>
</g>
<!-- Node58&#45;&gt;Node24 -->
<g id="edge137" class="edge">
<title>Node58&#45;&gt;Node24</title>
<path fill="none" stroke="midnightblue" d="M1173.66,-355.01C1314.9,-352.24 1676.54,-342.4 1977,-311 2033.83,-305.06 2047.31,-298.14 2104,-291 2272.31,-269.79 2325.89,-316.49 2484,-255 2505.29,-246.72 2503.89,-232.74 2525,-224 2576.88,-202.51 2741.98,-187.37 2814.39,-181.59"/>
<polygon fill="midnightblue" stroke="midnightblue" points="2814.68,-185.08 2824.38,-180.81 2814.14,-178.1 2814.68,-185.08"/>
</g>
<!-- Node58&#45;&gt;Node12 -->
<g id="edge134" class="edge">
<title>Node58&#45;&gt;Node12</title>
<path fill="none" stroke="midnightblue" d="M1052.12,-352.5C960.28,-346.74 780.97,-333.57 630,-311 523.02,-295.01 399,-266.93 334.02,-251.47"/>
<polygon fill="midnightblue" stroke="midnightblue" points="334.65,-248.03 324.11,-249.11 333.03,-254.83 334.65,-248.03"/>
</g>
<!-- Node58&#45;&gt;Node35 -->
<g id="edge140" class="edge">
<title>Node58&#45;&gt;Node35</title>
<path fill="none" stroke="midnightblue" d="M1052.44,-349.16C997.15,-341.9 920.43,-329 896,-311 878.8,-298.33 868.24,-275.68 862.52,-259.47"/>
<polygon fill="midnightblue" stroke="midnightblue" points="865.7,-257.93 859.31,-249.48 859.04,-260.07 865.7,-257.93"/>
</g>
<!-- Node58&#45;&gt;Node43 -->
<g id="edge139" class="edge">
<title>Node58&#45;&gt;Node43</title>
<path fill="none" stroke="midnightblue" d="M1173.62,-354.51C1455.81,-347.57 2630.39,-318.35 2708,-311 2859,-296.7 3037,-262.27 3109.63,-247.46"/>
<polygon fill="midnightblue" stroke="midnightblue" points="3110.47,-250.86 3119.56,-245.42 3109.07,-244 3110.47,-250.86"/>
</g>
<!-- Node59 -->
<g id="node44" class="node">
<title>Node59</title>
<g id="a_node44"><a xlink:href="Alignment_8h.html" target="_top" xlink:title="llvm/Support/Alignment.h">
<polygon fill="none" stroke="red" points="1250,-291.5 1250,-310.5 1376,-310.5 1376,-291.5 1250,-291.5"/>
<text text-anchor="middle" x="1313" y="-298.5" font-family="Helvetica,sans-Serif" font-size="10.00">llvm/Support/Alignment.h</text>
</a>
</g>
</g>
<!-- Node58&#45;&gt;Node59 -->
<g id="edge128" class="edge">
<title>Node58&#45;&gt;Node59</title>
<path fill="none" stroke="midnightblue" d="M1144.69,-347.44C1179.07,-338.16 1234.08,-323.31 1271.79,-313.13"/>
<polygon fill="midnightblue" stroke="midnightblue" points="1272.72,-316.5 1281.46,-310.52 1270.89,-309.74 1272.72,-316.5"/>
</g>
<!-- Node59&#45;&gt;Node13 -->
<g id="edge129" class="edge">
<title>Node59&#45;&gt;Node13</title>
<path fill="none" stroke="midnightblue" d="M1249.78,-297.19C1106.99,-290.53 770.62,-273.01 754,-255 725.57,-224.19 788.34,-170.57 792,-168 822.65,-146.46 862.75,-135.23 896.92,-129.36"/>
<polygon fill="midnightblue" stroke="midnightblue" points="897.53,-132.81 906.86,-127.78 896.43,-125.9 897.53,-132.81"/>
</g>
<!-- Node59&#45;&gt;Node31 -->
<g id="edge130" class="edge">
<title>Node59&#45;&gt;Node31</title>
<path fill="none" stroke="midnightblue" d="M1317.58,-291.48C1322.24,-282.82 1329.59,-269.15 1335.51,-258.15"/>
<polygon fill="midnightblue" stroke="midnightblue" points="1338.77,-259.47 1340.42,-249.01 1332.6,-256.16 1338.77,-259.47"/>
</g>
<!-- Node59&#45;&gt;Node24 -->
<g id="edge131" class="edge">
<title>Node59&#45;&gt;Node24</title>
<path fill="none" stroke="midnightblue" d="M1376.45,-297.41C1504.52,-291.91 1803.04,-277.66 2053,-255 2167.58,-244.61 2195.54,-235.68 2310,-224 2499.92,-204.62 2728.13,-187.64 2814.03,-181.47"/>
<polygon fill="midnightblue" stroke="midnightblue" points="2814.53,-184.95 2824.26,-180.74 2814.03,-177.96 2814.53,-184.95"/>
</g>
<!-- Node59&#45;&gt;Node33 -->
<g id="edge132" class="edge">
<title>Node59&#45;&gt;Node33</title>
<path fill="none" stroke="midnightblue" d="M1344.77,-291.44C1367.35,-284.27 1397.53,-272.39 1420,-255 1440.85,-238.87 1458.15,-213.5 1468.29,-196.56"/>
<polygon fill="midnightblue" stroke="midnightblue" points="1471.43,-198.11 1473.4,-187.7 1465.37,-194.62 1471.43,-198.11"/>
</g>
<!-- Node60&#45;&gt;Node4 -->
<g id="edge156" class="edge">
<title>Node60&#45;&gt;Node4</title>
<path fill="none" stroke="midnightblue" d="M2119.82,-627.46C2100.63,-610.35 2061,-569.73 2061,-526 2061,-526 2061,-526 2061,-468 2061,-434.33 2047.01,-397.08 2037.53,-375.72"/>
<polygon fill="midnightblue" stroke="midnightblue" points="2040.68,-374.21 2033.32,-366.59 2034.33,-377.14 2040.68,-374.21"/>
</g>
<!-- Node60&#45;&gt;Node27 -->
<g id="edge161" class="edge">
<title>Node60&#45;&gt;Node27</title>
<path fill="none" stroke="midnightblue" d="M2068.94,-631.98C1956.49,-622.89 1728,-595.82 1728,-526 1728,-526 1728,-526 1728,-412 1728,-377.52 1710.09,-340.56 1697.94,-319.47"/>
<polygon fill="midnightblue" stroke="midnightblue" points="1700.84,-317.49 1692.7,-310.71 1694.84,-321.09 1700.84,-317.49"/>
</g>
<!-- Node60&#45;&gt;Node22 -->
<g id="edge185" class="edge">
<title>Node60&#45;&gt;Node22</title>
<path fill="none" stroke="midnightblue" d="M2191.04,-634.94C2402.45,-631.08 3102.67,-616.61 3326,-591 3456.42,-576.04 3493.95,-583.33 3616,-535 3746.01,-483.52 3814.5,-489.46 3882,-367 3898.3,-337.42 3902.17,-318.09 3882,-291 3819.94,-207.66 3758.28,-251.24 3658,-224 3556.89,-196.53 3532.72,-182.81 3429,-168 3229.66,-139.53 2582.93,-126.25 2434.54,-123.53"/>
<polygon fill="midnightblue" stroke="midnightblue" points="2434.41,-120.03 2424.35,-123.35 2434.28,-127.03 2434.41,-120.03"/>
</g>
<!-- Node60&#45;&gt;Node43 -->
<g id="edge184" class="edge">
<title>Node60&#45;&gt;Node43</title>
<path fill="none" stroke="midnightblue" d="M2191.04,-634.46C2384.91,-628.78 2974,-605.01 2974,-526 2974,-526 2974,-526 2974,-468 2974,-437.2 2982.14,-429.4 2998,-403 3002.98,-394.72 3092.49,-296.01 3128.34,-256.6"/>
<polygon fill="midnightblue" stroke="midnightblue" points="3130.98,-258.9 3135.12,-249.15 3125.8,-254.19 3130.98,-258.9"/>
</g>
<!-- Node60&#45;&gt;Node48 -->
<g id="edge162" class="edge">
<title>Node60&#45;&gt;Node48</title>
<path fill="none" stroke="midnightblue" d="M2068.78,-636.89C1922.17,-637.38 1563,-628.15 1563,-526 1563,-526 1563,-526 1563,-468 1563,-435.95 1563,-398.64 1563,-376.75"/>
<polygon fill="midnightblue" stroke="midnightblue" points="1566.5,-376.56 1563,-366.56 1559.5,-376.56 1566.5,-376.56"/>
</g>
<!-- Node60&#45;&gt;Node54 -->
<g id="edge183" class="edge">
<title>Node60&#45;&gt;Node54</title>
<path fill="none" stroke="midnightblue" d="M2191.21,-635.98C2426.99,-635.6 3265.13,-631.39 3304,-591 3361.96,-530.78 3276.04,-483.37 3299,-403 3301.9,-392.84 3307.83,-382.75 3313.49,-374.7"/>
<polygon fill="midnightblue" stroke="midnightblue" points="3316.38,-376.69 3319.59,-366.59 3310.78,-372.48 3316.38,-376.69"/>
</g>
<!-- Node60&#45;&gt;Node59 -->
<g id="edge177" class="edge">
<title>Node60&#45;&gt;Node59</title>
<path fill="none" stroke="midnightblue" d="M2068.63,-636.28C1945.55,-635.98 1673.22,-630.67 1590,-591 1522.26,-558.71 1371.7,-375.25 1326.25,-318.64"/>
<polygon fill="midnightblue" stroke="midnightblue" points="1328.86,-316.31 1319.88,-310.68 1323.4,-320.68 1328.86,-316.31"/>
</g>
<!-- Node61 -->
<g id="node46" class="node">
<title>Node61</title>
<g id="a_node46"><a xlink:href="SmallString_8h.html" target="_top" xlink:title="llvm/ADT/SmallString.h">
<polygon fill="none" stroke="black" points="1832.5,-403.5 1832.5,-422.5 1951.5,-422.5 1951.5,-403.5 1832.5,-403.5"/>
<text text-anchor="middle" x="1892" y="-410.5" font-family="Helvetica,sans-Serif" font-size="10.00">llvm/ADT/SmallString.h</text>
</a>
</g>
</g>
<!-- Node60&#45;&gt;Node61 -->
<g id="edge157" class="edge">
<title>Node60&#45;&gt;Node61</title>
<path fill="none" stroke="midnightblue" d="M2109.67,-627.45C2092.08,-619.5 2066.46,-606.55 2047,-591 1984.87,-541.35 1927.59,-464.85 1903.72,-431.05"/>
<polygon fill="midnightblue" stroke="midnightblue" points="1906.49,-428.9 1897.9,-422.71 1900.75,-432.91 1906.49,-428.9"/>
</g>
<!-- Node62 -->
<g id="node47" class="node">
<title>Node62</title>
<g id="a_node47"><a xlink:href="ilist__node_8h.html" target="_top" xlink:title="llvm/ADT/ilist_node.h">
<polygon fill="none" stroke="red" points="2158,-571.5 2158,-590.5 2268,-590.5 2268,-571.5 2158,-571.5"/>
<text text-anchor="middle" x="2213" y="-578.5" font-family="Helvetica,sans-Serif" font-size="10.00">llvm/ADT/ilist_node.h</text>
</a>
</g>
</g>
<!-- Node60&#45;&gt;Node62 -->
<g id="edge163" class="edge">
<title>Node60&#45;&gt;Node62</title>
<path fill="none" stroke="midnightblue" d="M2143.34,-627.32C2156.16,-618.98 2175.78,-606.21 2190.94,-596.35"/>
<polygon fill="midnightblue" stroke="midnightblue" points="2193.22,-599.04 2199.7,-590.65 2189.41,-593.17 2193.22,-599.04"/>
</g>
<!-- Node65 -->
<g id="node48" class="node">
<title>Node65</title>
<g id="a_node48"><a xlink:href="MCFixup_8h.html" target="_top" xlink:title="llvm/MC/MCFixup.h">
<polygon fill="none" stroke="black" points="3191,-571.5 3191,-590.5 3295,-590.5 3295,-571.5 3191,-571.5"/>
<text text-anchor="middle" x="3243" y="-578.5" font-family="Helvetica,sans-Serif" font-size="10.00">llvm/MC/MCFixup.h</text>
</a>
</g>
</g>
<!-- Node60&#45;&gt;Node65 -->
<g id="edge164" class="edge">
<title>Node60&#45;&gt;Node65</title>
<path fill="none" stroke="midnightblue" d="M2191.03,-633.04C2384.89,-623.63 2985.4,-594.5 3180.84,-585.02"/>
<polygon fill="midnightblue" stroke="midnightblue" points="3181.11,-588.51 3190.93,-584.53 3180.78,-581.51 3181.11,-588.51"/>
</g>
<!-- Node66 -->
<g id="node49" class="node">
<title>Node66</title>
<g id="a_node49"><a xlink:href="MCInst_8h.html" target="_top" xlink:title="llvm/MC/MCInst.h">
<polygon fill="none" stroke="black" points="3040.5,-403.5 3040.5,-422.5 3137.5,-422.5 3137.5,-403.5 3040.5,-403.5"/>
<text text-anchor="middle" x="3089" y="-410.5" font-family="Helvetica,sans-Serif" font-size="10.00">llvm/MC/MCInst.h</text>
</a>
</g>
</g>
<!-- Node60&#45;&gt;Node66 -->
<g id="edge170" class="edge">
<title>Node60&#45;&gt;Node66</title>
<path fill="none" stroke="midnightblue" d="M2191.03,-636.14C2375.81,-636.12 2920.66,-632.5 2988,-591 3046.96,-554.66 3074.81,-470.41 3084.65,-432.76"/>
<polygon fill="midnightblue" stroke="midnightblue" points="3088.14,-433.22 3087.14,-422.68 3081.34,-431.55 3088.14,-433.22"/>
</g>
<!-- Node67 -->
<g id="node50" class="node">
<title>Node67</title>
<g id="a_node50"><a xlink:href="Casting_8h.html" target="_top" xlink:title="llvm/Support/Casting.h">
<polygon fill="none" stroke="red" points="1928,-230 1928,-249 2044,-249 2044,-230 1928,-230"/>
<text text-anchor="middle" x="1986" y="-237" font-family="Helvetica,sans-Serif" font-size="10.00">llvm/Support/Casting.h</text>
</a>
</g>
</g>
<!-- Node60&#45;&gt;Node67 -->
<g id="edge178" class="edge">
<title>Node60&#45;&gt;Node67</title>
<path fill="none" stroke="midnightblue" d="M2130,-627.44C2130,-608.94 2130,-563.81 2130,-526 2130,-526 2130,-526 2130,-356 2130,-301.59 2066.67,-268.55 2024,-252.46"/>
<polygon fill="midnightblue" stroke="midnightblue" points="2025.04,-249.12 2014.45,-249.01 2022.67,-255.7 2025.04,-249.12"/>
</g>
<!-- Node61&#45;&gt;Node27 -->
<g id="edge158" class="edge">
<title>Node61&#45;&gt;Node27</title>
<path fill="none" stroke="midnightblue" d="M1875.91,-403.37C1840.29,-384.25 1754.52,-338.23 1711.9,-315.36"/>
<polygon fill="midnightblue" stroke="midnightblue" points="1713.48,-312.24 1703.01,-310.59 1710.17,-318.4 1713.48,-312.24"/>
</g>
<!-- Node61&#45;&gt;Node18 -->
<g id="edge160" class="edge">
<title>Node61&#45;&gt;Node18</title>
<path fill="none" stroke="midnightblue" d="M1951.61,-412.26C2103.41,-412.26 2516.71,-408.14 2858,-367 2986.59,-351.5 3347.68,-355 3430,-255 3524.04,-140.76 3198.5,-125.27 3088.83,-123.27"/>
<polygon fill="midnightblue" stroke="midnightblue" points="3088.67,-119.76 3078.61,-123.11 3088.56,-126.76 3088.67,-119.76"/>
</g>
<!-- Node61&#45;&gt;Node48 -->
<g id="edge159" class="edge">
<title>Node61&#45;&gt;Node48</title>
<path fill="none" stroke="midnightblue" d="M1839.87,-403.44C1781.51,-393.87 1687.02,-378.36 1624.94,-368.17"/>
<polygon fill="midnightblue" stroke="midnightblue" points="1625.32,-364.68 1614.89,-366.52 1624.19,-371.59 1625.32,-364.68"/>
</g>
<!-- Node65&#45;&gt;Node1 -->
<g id="edge165" class="edge">
<title>Node65&#45;&gt;Node1</title>
<path fill="none" stroke="midnightblue" d="M3230.15,-571.32C3217.78,-562.98 3198.87,-550.21 3184.26,-540.35"/>
<polygon fill="midnightblue" stroke="midnightblue" points="3186.07,-537.35 3175.82,-534.65 3182.15,-543.15 3186.07,-537.35"/>
</g>
<!-- Node65&#45;&gt;Node6 -->
<g id="edge166" class="edge">
<title>Node65&#45;&gt;Node6</title>
<path fill="none" stroke="midnightblue" d="M3295.31,-576.74C3377.88,-570.99 3534.29,-557.48 3585,-535 3620.17,-519.41 3624.09,-506.49 3651,-479 3730.15,-398.14 3763.98,-367.87 3772,-255 3772.98,-241.26 3776.33,-237.08 3772,-224 3760.54,-189.34 3732.08,-156.89 3713.7,-138.54"/>
<polygon fill="midnightblue" stroke="midnightblue" points="3716.13,-136.02 3706.52,-131.57 3711.26,-141.04 3716.13,-136.02"/>
</g>
<!-- Node65&#45;&gt;Node24 -->
<g id="edge169" class="edge">
<title>Node65&#45;&gt;Node24</title>
<path fill="none" stroke="midnightblue" d="M3295.17,-578.98C3413.06,-574.13 3686.21,-547.41 3639,-403 3604.52,-297.54 3567.15,-267.31 3465,-224 3359.08,-179.09 2997.94,-177.85 2883.84,-178.63"/>
<polygon fill="midnightblue" stroke="midnightblue" points="2883.56,-175.13 2873.59,-178.71 2883.62,-182.13 2883.56,-175.13"/>
</g>
<!-- Node65&#45;&gt;Node12 -->
<g id="edge167" class="edge">
<title>Node65&#45;&gt;Node12</title>
<path fill="none" stroke="midnightblue" d="M3190.96,-578.69C2939.71,-571.9 1827.35,-536.54 924,-423 651.81,-388.79 529,-485.11 317,-311 301.45,-298.23 294.49,-275.6 291.4,-259.42"/>
<polygon fill="midnightblue" stroke="midnightblue" points="294.85,-258.78 289.83,-249.45 287.93,-259.88 294.85,-258.78"/>
</g>
<!-- Node65&#45;&gt;Node54 -->
<g id="edge168" class="edge">
<title>Node65&#45;&gt;Node54</title>
<path fill="none" stroke="midnightblue" d="M3241.85,-571.13C3238.77,-543.84 3232.66,-459.61 3266,-403 3273.77,-389.81 3287.08,-379.31 3299.28,-371.79"/>
<polygon fill="midnightblue" stroke="midnightblue" points="3301.36,-374.63 3308.29,-366.61 3297.88,-368.56 3301.36,-374.63"/>
</g>
<!-- Node66&#45;&gt;Node27 -->
<g id="edge171" class="edge">
<title>Node66&#45;&gt;Node27</title>
<path fill="none" stroke="midnightblue" d="M3040.29,-411.27C2852.88,-408.28 2178.33,-395.73 1966,-367 1878.72,-355.19 1778.69,-328.62 1725.31,-313.36"/>
<polygon fill="midnightblue" stroke="midnightblue" points="1726.16,-309.96 1715.59,-310.55 1724.22,-316.69 1726.16,-309.96"/>
</g>
<!-- Node66&#45;&gt;Node18 -->
<g id="edge175" class="edge">
<title>Node66&#45;&gt;Node18</title>
<path fill="none" stroke="midnightblue" d="M3108.8,-403.43C3140.47,-389.97 3204.68,-363.69 3261,-347 3386.19,-309.91 3470.97,-365.83 3540,-255 3560.44,-222.18 3566.05,-196.57 3540,-168 3509.68,-134.74 3194.96,-125.69 3088.77,-123.58"/>
<polygon fill="midnightblue" stroke="midnightblue" points="3088.65,-120.07 3078.59,-123.38 3088.52,-127.07 3088.65,-120.07"/>
</g>
<!-- Node66&#45;&gt;Node24 -->
<g id="edge174" class="edge">
<title>Node66&#45;&gt;Node24</title>
<path fill="none" stroke="midnightblue" d="M3109.32,-403.28C3139.35,-389.07 3194.16,-357.74 3214,-311 3229.16,-275.29 3177.28,-225.5 3175,-224 3121.96,-189.09 2958.62,-200.71 2883.58,-188.81"/>
<polygon fill="midnightblue" stroke="midnightblue" points="2884.07,-185.34 2873.6,-186.97 2882.8,-192.22 2884.07,-185.34"/>
</g>
<!-- Node66&#45;&gt;Node43 -->
<g id="edge176" class="edge">
<title>Node66&#45;&gt;Node43</title>
<path fill="none" stroke="midnightblue" d="M3096.8,-403.22C3108.37,-390.37 3130.97,-365.92 3152,-347 3171.3,-329.64 3186.63,-334.34 3198,-311 3208.55,-289.34 3186.09,-268.02 3166.76,-254.6"/>
<polygon fill="midnightblue" stroke="midnightblue" points="3168.52,-251.57 3158.24,-249.02 3164.69,-257.42 3168.52,-251.57"/>
</g>
<!-- Node66&#45;&gt;Node48 -->
<g id="edge172" class="edge">
<title>Node66&#45;&gt;Node48</title>
<path fill="none" stroke="midnightblue" d="M3040.38,-410.28C2816.49,-402.36 1884.71,-369.38 1628.47,-360.32"/>
<polygon fill="midnightblue" stroke="midnightblue" points="1628.32,-356.81 1618.21,-359.95 1628.08,-363.81 1628.32,-356.81"/>
</g>
<!-- Node66&#45;&gt;Node54 -->
<g id="edge173" class="edge">
<title>Node66&#45;&gt;Node54</title>
<path fill="none" stroke="midnightblue" d="M3126.71,-403.44C3168.14,-394.04 3234.76,-378.93 3279.67,-368.74"/>
<polygon fill="midnightblue" stroke="midnightblue" points="3280.49,-372.14 3289.46,-366.52 3278.94,-365.32 3280.49,-372.14"/>
</g>
<!-- Node67&#45;&gt;Node13 -->
<g id="edge179" class="edge">
<title>Node67&#45;&gt;Node13</title>
<path fill="none" stroke="midnightblue" d="M1952.49,-229.94C1891.8,-214.8 1759.49,-183.46 1646,-168 1426.01,-138.04 1163.02,-127.81 1039.17,-124.49"/>
<polygon fill="midnightblue" stroke="midnightblue" points="1039.15,-120.99 1029.06,-124.23 1038.96,-127.99 1039.15,-120.99"/>
</g>
<!-- Node67&#45;&gt;Node19 -->
<g id="edge182" class="edge">
<title>Node67&#45;&gt;Node19</title>
<path fill="none" stroke="midnightblue" d="M2021.64,-229.95C2057.3,-220.58 2108.47,-204.66 2120,-188 2125.06,-180.69 2125.69,-174.83 2120,-168 2094.39,-137.28 1978.22,-127.47 1915.11,-124.38"/>
<polygon fill="midnightblue" stroke="midnightblue" points="1915.24,-120.89 1905.09,-123.93 1914.92,-127.88 1915.24,-120.89"/>
</g>
<!-- Node67&#45;&gt;Node24 -->
<g id="edge181" class="edge">
<title>Node67&#45;&gt;Node24</title>
<path fill="none" stroke="midnightblue" d="M2044.3,-234.48C2210.22,-223.04 2681.53,-190.55 2813.99,-181.41"/>
<polygon fill="midnightblue" stroke="midnightblue" points="2814.61,-184.88 2824.34,-180.7 2814.12,-177.9 2814.61,-184.88"/>
</g>
<!-- Node67&#45;&gt;Node21 -->
<g id="edge180" class="edge">
<title>Node67&#45;&gt;Node21</title>
<path fill="none" stroke="midnightblue" d="M2021.82,-229.98C2066.19,-219.42 2141.84,-201.41 2190.33,-189.87"/>
<polygon fill="midnightblue" stroke="midnightblue" points="2191.33,-193.23 2200.25,-187.51 2189.71,-186.42 2191.33,-193.23"/>
</g>
</g>
</svg>
