<?xml version="1.0" encoding="UTF-8" standalone="no"?>
<!DOCTYPE svg PUBLIC "-//W3C//DTD SVG 1.1//EN"
 "http://www.w3.org/Graphics/SVG/1.1/DTD/svg11.dtd">
<!-- Generated by graphviz version 2.43.0 (0)
 -->
<!-- Title: include/llvm/Support/MemAlloc.h Pages: 1 -->
<svg width="357pt" height="207pt"
 viewBox="0.00 0.00 357.00 207.00" xmlns="http://www.w3.org/2000/svg" xmlns:xlink="http://www.w3.org/1999/xlink">
<g id="graph0" class="graph" transform="scale(1 1) rotate(0) translate(4 203)">
<title>include/llvm/Support/MemAlloc.h</title>
<!-- Node0 -->
<g id="node1" class="node">
<title>Node0</title>
<polygon fill="#bfbfbf" stroke="black" points="162,-168.5 162,-198.5 267,-198.5 267,-168.5 162,-168.5"/>
<text text-anchor="start" x="170" y="-186.5" font-family="Helvetica,sans-Serif" font-size="10.00">include/llvm/Support</text>
<text text-anchor="middle" x="214.5" y="-175.5" font-family="Helvetica,sans-Serif" font-size="10.00">/MemAlloc.h</text>
</g>
<!-- Node1 -->
<g id="node2" class="node">
<title>Node1</title>
<g id="a_node2"><a xlink:href="Compiler_8h.html" target="_top" xlink:title="llvm/Support/Compiler.h">
<polygon fill="none" stroke="black" points="54.5,-56.5 54.5,-75.5 176.5,-75.5 176.5,-56.5 54.5,-56.5"/>
<text text-anchor="middle" x="115.5" y="-63.5" font-family="Helvetica,sans-Serif" font-size="10.00">llvm/Support/Compiler.h</text>
</a>
</g>
</g>
<!-- Node0&#45;&gt;Node1 -->
<g id="edge1" class="edge">
<title>Node0&#45;&gt;Node1</title>
<path fill="none" stroke="midnightblue" d="M181.2,-168.42C164.99,-160.02 146.46,-147.87 134.5,-132 124.34,-118.52 119.6,-99.71 117.39,-85.79"/>
<polygon fill="midnightblue" stroke="midnightblue" points="120.86,-85.34 116.12,-75.87 113.92,-86.24 120.86,-85.34"/>
</g>
<!-- Node4 -->
<g id="node5" class="node">
<title>Node4</title>
<g id="a_node5"><a xlink:href="Support_2ErrorHandling_8h.html" target="_top" xlink:title="llvm/Support/ErrorHandling.h">
<polygon fill="none" stroke="black" points="143.5,-112.5 143.5,-131.5 285.5,-131.5 285.5,-112.5 143.5,-112.5"/>
<text text-anchor="middle" x="214.5" y="-119.5" font-family="Helvetica,sans-Serif" font-size="10.00">llvm/Support/ErrorHandling.h</text>
</a>
</g>
</g>
<!-- Node0&#45;&gt;Node4 -->
<g id="edge4" class="edge">
<title>Node0&#45;&gt;Node4</title>
<path fill="none" stroke="midnightblue" d="M214.5,-168.4C214.5,-160.47 214.5,-150.46 214.5,-141.86"/>
<polygon fill="midnightblue" stroke="midnightblue" points="218,-141.66 214.5,-131.66 211,-141.66 218,-141.66"/>
</g>
<!-- Node6 -->
<g id="node7" class="node">
<title>Node6</title>
<polygon fill="none" stroke="#bfbfbf" points="304,-112.5 304,-131.5 349,-131.5 349,-112.5 304,-112.5"/>
<text text-anchor="middle" x="326.5" y="-119.5" font-family="Helvetica,sans-Serif" font-size="10.00">cstdlib</text>
</g>
<!-- Node0&#45;&gt;Node6 -->
<g id="edge7" class="edge">
<title>Node0&#45;&gt;Node6</title>
<path fill="none" stroke="midnightblue" d="M241.04,-168.4C259.16,-158.77 283.04,-146.09 300.94,-136.58"/>
<polygon fill="midnightblue" stroke="midnightblue" points="303.01,-139.44 310.2,-131.66 299.73,-133.26 303.01,-139.44"/>
</g>
<!-- Node2 -->
<g id="node3" class="node">
<title>Node2</title>
<polygon fill="none" stroke="#bfbfbf" points="0,-0.5 0,-19.5 125,-19.5 125,-0.5 0,-0.5"/>
<text text-anchor="middle" x="62.5" y="-7.5" font-family="Helvetica,sans-Serif" font-size="10.00">llvm/Config/llvm&#45;config.h</text>
</g>
<!-- Node1&#45;&gt;Node2 -->
<g id="edge2" class="edge">
<title>Node1&#45;&gt;Node2</title>
<path fill="none" stroke="midnightblue" d="M106.75,-56.08C99.03,-48.22 87.6,-36.57 78.28,-27.08"/>
<polygon fill="midnightblue" stroke="midnightblue" points="80.59,-24.44 71.09,-19.75 75.6,-29.34 80.59,-24.44"/>
</g>
<!-- Node3 -->
<g id="node4" class="node">
<title>Node3</title>
<polygon fill="none" stroke="#bfbfbf" points="143.5,-0.5 143.5,-19.5 195.5,-19.5 195.5,-0.5 143.5,-0.5"/>
<text text-anchor="middle" x="169.5" y="-7.5" font-family="Helvetica,sans-Serif" font-size="10.00">stddef.h</text>
</g>
<!-- Node1&#45;&gt;Node3 -->
<g id="edge3" class="edge">
<title>Node1&#45;&gt;Node3</title>
<path fill="none" stroke="midnightblue" d="M124.42,-56.08C132.28,-48.22 143.93,-36.57 153.42,-27.08"/>
<polygon fill="midnightblue" stroke="midnightblue" points="156.15,-29.3 160.75,-19.75 151.2,-24.35 156.15,-29.3"/>
</g>
<!-- Node4&#45;&gt;Node1 -->
<g id="edge5" class="edge">
<title>Node4&#45;&gt;Node1</title>
<path fill="none" stroke="midnightblue" d="M198.59,-112.32C182.86,-103.74 158.56,-90.49 140.29,-80.52"/>
<polygon fill="midnightblue" stroke="midnightblue" points="141.82,-77.37 131.37,-75.65 138.47,-83.52 141.82,-77.37"/>
</g>
<!-- Node5 -->
<g id="node6" class="node">
<title>Node5</title>
<polygon fill="none" stroke="#bfbfbf" points="195,-56.5 195,-75.5 236,-75.5 236,-56.5 195,-56.5"/>
<text text-anchor="middle" x="215.5" y="-63.5" font-family="Helvetica,sans-Serif" font-size="10.00">string</text>
</g>
<!-- Node4&#45;&gt;Node5 -->
<g id="edge6" class="edge">
<title>Node4&#45;&gt;Node5</title>
<path fill="none" stroke="midnightblue" d="M214.67,-112.08C214.8,-105.01 214.98,-94.86 215.15,-85.99"/>
<polygon fill="midnightblue" stroke="midnightblue" points="218.65,-85.81 215.34,-75.75 211.65,-85.68 218.65,-85.81"/>
</g>
</g>
</svg>
