<?xml version="1.0" encoding="UTF-8" standalone="no"?>
<!DOCTYPE svg PUBLIC "-//W3C//DTD SVG 1.1//EN"
 "http://www.w3.org/Graphics/SVG/1.1/DTD/svg11.dtd">
<!-- Generated by graphviz version 2.43.0 (0)
 -->
<!-- Title: lib/Target/Mips/MCTargetDesc/MipsABIInfo.cpp Pages: 1 -->
<svg width="4188pt" height="632pt"
 viewBox="0.00 0.00 4188.24 632.00" xmlns="http://www.w3.org/2000/svg" xmlns:xlink="http://www.w3.org/1999/xlink">
<g id="graph0" class="graph" transform="scale(1 1) rotate(0) translate(4 628)">
<title>lib/Target/Mips/MCTargetDesc/MipsABIInfo.cpp</title>
<!-- Node0 -->
<g id="node1" class="node">
<title>Node0</title>
<polygon fill="#bfbfbf" stroke="black" points="1289.74,-593.5 1289.74,-623.5 1417.74,-623.5 1417.74,-593.5 1289.74,-593.5"/>
<text text-anchor="start" x="1297.74" y="-611.5" font-family="Helvetica,sans-Serif" font-size="10.00">lib/Target/Mips/MCTarget</text>
<text text-anchor="middle" x="1353.74" y="-600.5" font-family="Helvetica,sans-Serif" font-size="10.00">Desc/MipsABIInfo.cpp</text>
</g>
<!-- Node1 -->
<g id="node2" class="node">
<title>Node1</title>
<g id="a_node2"><a xlink:href="MipsABIInfo_8h.html" target="_top" xlink:title="MipsABIInfo.h">
<polygon fill="none" stroke="black" points="975.24,-476 975.24,-495 1054.24,-495 1054.24,-476 975.24,-476"/>
<text text-anchor="middle" x="1014.74" y="-483" font-family="Helvetica,sans-Serif" font-size="10.00">MipsABIInfo.h</text>
</a>
</g>
</g>
<!-- Node0&#45;&gt;Node1 -->
<g id="edge1" class="edge">
<title>Node0&#45;&gt;Node1</title>
<path fill="none" stroke="midnightblue" d="M1314.19,-593.38C1246.88,-569.36 1111.24,-520.94 1048.27,-498.47"/>
<polygon fill="midnightblue" stroke="midnightblue" points="1049.4,-495.16 1038.81,-495.09 1047.05,-501.75 1049.4,-495.16"/>
</g>
<!-- Node36 -->
<g id="node18" class="node">
<title>Node36</title>
<g id="a_node18"><a xlink:href="StringRef_8h.html" target="_top" xlink:title="llvm/ADT/StringRef.h">
<polygon fill="none" stroke="black" points="2129.74,-224.5 2129.74,-243.5 2239.74,-243.5 2239.74,-224.5 2129.74,-224.5"/>
<text text-anchor="middle" x="2184.74" y="-231.5" font-family="Helvetica,sans-Serif" font-size="10.00">llvm/ADT/StringRef.h</text>
</a>
</g>
</g>
<!-- Node0&#45;&gt;Node36 -->
<g id="edge118" class="edge">
<title>Node0&#45;&gt;Node36</title>
<path fill="none" stroke="midnightblue" d="M1417.75,-603.09C1590.05,-590.38 2050.74,-550.4 2050.74,-486.5 2050.74,-486.5 2050.74,-486.5 2050.74,-417.5 2050.74,-342.17 2125.83,-277.35 2163.59,-249.52"/>
<polygon fill="midnightblue" stroke="midnightblue" points="2165.81,-252.23 2171.89,-243.56 2161.73,-246.55 2165.81,-252.23"/>
</g>
<!-- Node65 -->
<g id="node32" class="node">
<title>Node65</title>
<g id="a_node32"><a xlink:href="MipsRegisterInfo_8h.html" target="_top" xlink:title="MipsRegisterInfo.h">
<polygon fill="none" stroke="black" points="230.24,-537.5 230.24,-556.5 329.24,-556.5 329.24,-537.5 230.24,-537.5"/>
<text text-anchor="middle" x="279.74" y="-544.5" font-family="Helvetica,sans-Serif" font-size="10.00">MipsRegisterInfo.h</text>
</a>
</g>
</g>
<!-- Node0&#45;&gt;Node65 -->
<g id="edge91" class="edge">
<title>Node0&#45;&gt;Node65</title>
<path fill="none" stroke="midnightblue" d="M1289.37,-603.93C1096.72,-593.26 526.46,-561.67 339.7,-551.32"/>
<polygon fill="midnightblue" stroke="midnightblue" points="339.7,-547.82 329.52,-550.76 339.31,-554.81 339.7,-547.82"/>
</g>
<!-- Node159 -->
<g id="node42" class="node">
<title>Node159</title>
<g id="a_node42"><a xlink:href="StringSwitch_8h.html" target="_top" xlink:title="llvm/ADT/StringSwitch.h">
<polygon fill="none" stroke="black" points="1348.24,-280.5 1348.24,-299.5 1473.24,-299.5 1473.24,-280.5 1348.24,-280.5"/>
<text text-anchor="middle" x="1410.74" y="-287.5" font-family="Helvetica,sans-Serif" font-size="10.00">llvm/ADT/StringSwitch.h</text>
</a>
</g>
</g>
<!-- Node0&#45;&gt;Node159 -->
<g id="edge119" class="edge">
<title>Node0&#45;&gt;Node159</title>
<path fill="none" stroke="midnightblue" d="M1359.86,-593.27C1368.9,-570.96 1384.74,-526.18 1384.74,-486.5 1384.74,-486.5 1384.74,-486.5 1384.74,-417.5 1384.74,-378.42 1396.79,-333.91 1404.48,-309.49"/>
<polygon fill="midnightblue" stroke="midnightblue" points="1407.88,-310.36 1407.65,-299.77 1401.22,-308.19 1407.88,-310.36"/>
</g>
<!-- Node100 -->
<g id="node43" class="node">
<title>Node100</title>
<g id="a_node43"><a xlink:href="MCTargetOptions_8h.html" target="_top" xlink:title="llvm/MC/MCTargetOptions.h">
<polygon fill="none" stroke="black" points="594.74,-224.5 594.74,-243.5 736.74,-243.5 736.74,-224.5 594.74,-224.5"/>
<text text-anchor="middle" x="665.74" y="-231.5" font-family="Helvetica,sans-Serif" font-size="10.00">llvm/MC/MCTargetOptions.h</text>
</a>
</g>
</g>
<!-- Node0&#45;&gt;Node100 -->
<g id="edge124" class="edge">
<title>Node0&#45;&gt;Node100</title>
<path fill="none" stroke="midnightblue" d="M1298.74,-593.48C1260.07,-583.53 1207.16,-569.74 1160.74,-557 1073.78,-533.14 1051.63,-528.45 965.74,-501 944.41,-494.19 598.67,-385.27 585.74,-367 556.87,-326.21 612.5,-274.81 644.85,-249.9"/>
<polygon fill="midnightblue" stroke="midnightblue" points="647.35,-252.39 653.27,-243.6 643.16,-246.79 647.35,-252.39"/>
</g>
<!-- Node160 -->
<g id="node44" class="node">
<title>Node160</title>
<g id="a_node44"><a xlink:href="CommandLine_8h.html" target="_top" xlink:title="llvm/Support/CommandLine.h">
<polygon fill="none" stroke="black" points="2283.74,-409 2283.74,-428 2429.74,-428 2429.74,-409 2283.74,-409"/>
<text text-anchor="middle" x="2356.74" y="-416" font-family="Helvetica,sans-Serif" font-size="10.00">llvm/Support/CommandLine.h</text>
</a>
</g>
</g>
<!-- Node0&#45;&gt;Node160 -->
<g id="edge127" class="edge">
<title>Node0&#45;&gt;Node160</title>
<path fill="none" stroke="midnightblue" d="M1417.75,-605.96C1568.73,-601.85 1943.43,-588.69 2064.74,-557 2171.73,-529.05 2287.29,-462.48 2334.62,-433.45"/>
<polygon fill="midnightblue" stroke="midnightblue" points="2336.5,-436.4 2343.16,-428.16 2332.81,-430.45 2336.5,-436.4"/>
</g>
<!-- Node2 -->
<g id="node3" class="node">
<title>Node2</title>
<g id="a_node3"><a xlink:href="Triple_8h.html" target="_top" xlink:title="llvm/ADT/Triple.h">
<polygon fill="none" stroke="black" points="595.24,-342 595.24,-361 688.24,-361 688.24,-342 595.24,-342"/>
<text text-anchor="middle" x="641.74" y="-349" font-family="Helvetica,sans-Serif" font-size="10.00">llvm/ADT/Triple.h</text>
</a>
</g>
</g>
<!-- Node1&#45;&gt;Node2 -->
<g id="edge2" class="edge">
<title>Node1&#45;&gt;Node2</title>
<path fill="none" stroke="midnightblue" d="M990.55,-475.94C926.1,-453.13 750.09,-390.84 675.67,-364.51"/>
<polygon fill="midnightblue" stroke="midnightblue" points="676.46,-361.08 665.87,-361.04 674.13,-367.68 676.46,-361.08"/>
</g>
<!-- Node45 -->
<g id="node26" class="node">
<title>Node45</title>
<g id="a_node26"><a xlink:href="CallingConv_8h.html" target="_top" xlink:title="llvm/IR/CallingConv.h">
<polygon fill="none" stroke="black" points="4067.24,-409 4067.24,-428 4180.24,-428 4180.24,-409 4067.24,-409"/>
<text text-anchor="middle" x="4123.74" y="-416" font-family="Helvetica,sans-Serif" font-size="10.00">llvm/IR/CallingConv.h</text>
</a>
</g>
</g>
<!-- Node1&#45;&gt;Node45 -->
<g id="edge60" class="edge">
<title>Node1&#45;&gt;Node45</title>
<path fill="none" stroke="midnightblue" d="M1054.37,-484.29C1389.25,-482.41 3741.15,-468.11 4052.74,-434 4061.19,-433.08 4070.12,-431.63 4078.7,-430"/>
<polygon fill="midnightblue" stroke="midnightblue" points="4079.43,-433.42 4088.55,-428.02 4078.06,-426.56 4079.43,-433.42"/>
</g>
<!-- Node46 -->
<g id="node27" class="node">
<title>Node46</title>
<g id="a_node27"><a xlink:href="MCRegisterInfo_8h.html" target="_top" xlink:title="llvm/MC/MCRegisterInfo.h">
<polygon fill="none" stroke="black" points="890.74,-409 890.74,-428 1024.74,-428 1024.74,-409 890.74,-409"/>
<text text-anchor="middle" x="957.74" y="-416" font-family="Helvetica,sans-Serif" font-size="10.00">llvm/MC/MCRegisterInfo.h</text>
</a>
</g>
</g>
<!-- Node1&#45;&gt;Node46 -->
<g id="edge61" class="edge">
<title>Node1&#45;&gt;Node46</title>
<path fill="none" stroke="midnightblue" d="M1007.05,-475.73C998.08,-465.5 983.05,-448.36 971.94,-435.69"/>
<polygon fill="midnightblue" stroke="midnightblue" points="974.53,-433.34 965.3,-428.13 969.26,-437.95 974.53,-433.34"/>
</g>
<!-- Node3 -->
<g id="node4" class="node">
<title>Node3</title>
<g id="a_node4"><a xlink:href="Twine_8h.html" target="_top" xlink:title="llvm/ADT/Twine.h">
<polygon fill="none" stroke="black" points="1021.24,-280.5 1021.24,-299.5 1116.24,-299.5 1116.24,-280.5 1021.24,-280.5"/>
<text text-anchor="middle" x="1068.74" y="-287.5" font-family="Helvetica,sans-Serif" font-size="10.00">llvm/ADT/Twine.h</text>
</a>
</g>
</g>
<!-- Node2&#45;&gt;Node3 -->
<g id="edge3" class="edge">
<title>Node2&#45;&gt;Node3</title>
<path fill="none" stroke="midnightblue" d="M688.25,-344.02C766.76,-333.08 925.38,-310.98 1010.92,-299.06"/>
<polygon fill="midnightblue" stroke="midnightblue" points="1011.56,-302.5 1020.98,-297.65 1010.59,-295.57 1011.56,-302.5"/>
</g>
<!-- Node4 -->
<g id="node5" class="node">
<title>Node4</title>
<g id="a_node5"><a xlink:href="SmallVector_8h.html" target="_top" xlink:title="llvm/ADT/SmallVector.h">
<polygon fill="none" stroke="red" points="2206.74,-168.5 2206.74,-187.5 2328.74,-187.5 2328.74,-168.5 2206.74,-168.5"/>
<text text-anchor="middle" x="2267.74" y="-175.5" font-family="Helvetica,sans-Serif" font-size="10.00">llvm/ADT/SmallVector.h</text>
</a>
</g>
</g>
<!-- Node3&#45;&gt;Node4 -->
<g id="edge4" class="edge">
<title>Node3&#45;&gt;Node4</title>
<path fill="none" stroke="midnightblue" d="M1116.48,-284.62C1301.91,-267.61 1974.98,-205.86 2196.51,-185.53"/>
<polygon fill="midnightblue" stroke="midnightblue" points="2197.07,-189 2206.71,-184.6 2196.43,-182.03 2197.07,-189"/>
</g>
<!-- Node29 -->
<g id="node10" class="node">
<title>Node29</title>
<g id="a_node10"><a xlink:href="Support_2ErrorHandling_8h.html" target="_top" xlink:title="llvm/Support/ErrorHandling.h">
<polygon fill="none" stroke="black" points="568.74,-112.5 568.74,-131.5 710.74,-131.5 710.74,-112.5 568.74,-112.5"/>
<text text-anchor="middle" x="639.74" y="-119.5" font-family="Helvetica,sans-Serif" font-size="10.00">llvm/Support/ErrorHandling.h</text>
</a>
</g>
</g>
<!-- Node3&#45;&gt;Node29 -->
<g id="edge56" class="edge">
<title>Node3&#45;&gt;Node29</title>
<path fill="none" stroke="midnightblue" d="M1051.53,-280.3C1025.63,-267.34 974.95,-242.52 930.74,-224 864.33,-196.19 846.78,-191.54 778.74,-168 744.47,-156.15 705.13,-143.5 677.07,-134.64"/>
<polygon fill="midnightblue" stroke="midnightblue" points="677.86,-131.22 667.27,-131.56 675.76,-137.9 677.86,-131.22"/>
</g>
<!-- Node30 -->
<g id="node11" class="node">
<title>Node30</title>
<polygon fill="none" stroke="#bfbfbf" points="397.24,-56.5 397.24,-75.5 438.24,-75.5 438.24,-56.5 397.24,-56.5"/>
<text text-anchor="middle" x="417.74" y="-63.5" font-family="Helvetica,sans-Serif" font-size="10.00">string</text>
</g>
<!-- Node3&#45;&gt;Node30 -->
<g id="edge59" class="edge">
<title>Node3&#45;&gt;Node30</title>
<path fill="none" stroke="midnightblue" d="M1021.15,-287.36C910.67,-283.14 639.65,-270.37 552.74,-244 503.25,-228.99 482.75,-228.62 450.74,-188 426.89,-157.75 420.24,-111.52 418.41,-85.85"/>
<polygon fill="midnightblue" stroke="midnightblue" points="421.9,-85.43 417.87,-75.63 414.91,-85.8 421.9,-85.43"/>
</g>
<!-- Node24 -->
<g id="node13" class="node">
<title>Node24</title>
<polygon fill="none" stroke="#bfbfbf" points="1310.24,-56.5 1310.24,-75.5 1359.24,-75.5 1359.24,-56.5 1310.24,-56.5"/>
<text text-anchor="middle" x="1334.74" y="-63.5" font-family="Helvetica,sans-Serif" font-size="10.00">cassert</text>
</g>
<!-- Node3&#45;&gt;Node24 -->
<g id="edge57" class="edge">
<title>Node3&#45;&gt;Node24</title>
<path fill="none" stroke="midnightblue" d="M1068.68,-280.4C1068.99,-251.7 1074.1,-158.38 1125.74,-112 1151.05,-89.26 1247.33,-76.01 1299.92,-70.32"/>
<polygon fill="midnightblue" stroke="midnightblue" points="1300.55,-73.77 1310.14,-69.25 1299.83,-66.81 1300.55,-73.77"/>
</g>
<!-- Node3&#45;&gt;Node36 -->
<g id="edge20" class="edge">
<title>Node3&#45;&gt;Node36</title>
<path fill="none" stroke="midnightblue" d="M1116.48,-287.11C1258.11,-281.42 1688.22,-263.68 2044.74,-244 2069.1,-242.66 2095.83,-240.99 2119.35,-239.45"/>
<polygon fill="midnightblue" stroke="midnightblue" points="2119.81,-242.93 2129.56,-238.78 2119.35,-235.94 2119.81,-242.93"/>
</g>
<!-- Node42 -->
<g id="node23" class="node">
<title>Node42</title>
<polygon fill="none" stroke="#bfbfbf" points="1134.74,-112.5 1134.74,-131.5 1180.74,-131.5 1180.74,-112.5 1134.74,-112.5"/>
<text text-anchor="middle" x="1157.74" y="-119.5" font-family="Helvetica,sans-Serif" font-size="10.00">cstdint</text>
</g>
<!-- Node3&#45;&gt;Node42 -->
<g id="edge58" class="edge">
<title>Node3&#45;&gt;Node42</title>
<path fill="none" stroke="midnightblue" d="M1072.9,-280.39C1082.62,-260.41 1107.7,-209.48 1130.74,-168 1135.89,-158.73 1141.94,-148.58 1147.01,-140.27"/>
<polygon fill="midnightblue" stroke="midnightblue" points="1150.13,-141.88 1152.39,-131.53 1144.17,-138.21 1150.13,-141.88"/>
</g>
<!-- Node5 -->
<g id="node6" class="node">
<title>Node5</title>
<g id="a_node6"><a xlink:href="iterator__range_8h.html" target="_top" xlink:title="This provides a very simple, boring adaptor for a begin and end iterator into a range type...">
<polygon fill="none" stroke="black" points="2757.74,-56.5 2757.74,-75.5 2885.74,-75.5 2885.74,-56.5 2757.74,-56.5"/>
<text text-anchor="middle" x="2821.74" y="-63.5" font-family="Helvetica,sans-Serif" font-size="10.00">llvm/ADT/iterator_range.h</text>
</a>
</g>
</g>
<!-- Node4&#45;&gt;Node5 -->
<g id="edge5" class="edge">
<title>Node4&#45;&gt;Node5</title>
<path fill="none" stroke="midnightblue" d="M2271.23,-168.41C2277.63,-153.92 2292.74,-124.91 2315.74,-112 2387.73,-71.57 2625.09,-66.21 2747.41,-66.25"/>
<polygon fill="midnightblue" stroke="midnightblue" points="2747.44,-69.74 2757.45,-66.26 2747.45,-62.74 2747.44,-69.74"/>
</g>
<!-- Node6 -->
<g id="node7" class="node">
<title>Node6</title>
<polygon fill="none" stroke="#bfbfbf" points="1482.24,-0.5 1482.24,-19.5 1529.24,-19.5 1529.24,-0.5 1482.24,-0.5"/>
<text text-anchor="middle" x="1505.74" y="-7.5" font-family="Helvetica,sans-Serif" font-size="10.00">iterator</text>
</g>
<!-- Node4&#45;&gt;Node6 -->
<g id="edge17" class="edge">
<title>Node4&#45;&gt;Node6</title>
<path fill="none" stroke="midnightblue" d="M2262.67,-168.25C2254.71,-155.01 2238.27,-129.56 2219.74,-112 2186.9,-80.88 2177.58,-70.53 2134.74,-56 2023,-18.1 1653.51,-12.12 1539.52,-11.18"/>
<polygon fill="midnightblue" stroke="midnightblue" points="1539.33,-7.68 1529.31,-11.1 1539.28,-14.68 1539.33,-7.68"/>
</g>
<!-- Node7 -->
<g id="node8" class="node">
<title>Node7</title>
<polygon fill="none" stroke="#bfbfbf" points="3451.74,-0.5 3451.74,-19.5 3491.74,-19.5 3491.74,-0.5 3451.74,-0.5"/>
<text text-anchor="middle" x="3471.74" y="-7.5" font-family="Helvetica,sans-Serif" font-size="10.00">utility</text>
</g>
<!-- Node4&#45;&gt;Node7 -->
<g id="edge19" class="edge">
<title>Node4&#45;&gt;Node7</title>
<path fill="none" stroke="midnightblue" d="M2328.87,-174.71C2541.31,-166.68 3235.8,-139.89 3257.74,-132 3310.6,-112.99 3309.76,-83.52 3358.74,-56 3385.52,-40.95 3418.35,-28.47 3441.71,-20.51"/>
<polygon fill="midnightblue" stroke="midnightblue" points="3443.03,-23.75 3451.41,-17.27 3440.81,-17.11 3443.03,-23.75"/>
</g>
<!-- Node9 -->
<g id="node9" class="node">
<title>Node9</title>
<g id="a_node9"><a xlink:href="Compiler_8h.html" target="_top" xlink:title="llvm/Support/Compiler.h">
<polygon fill="none" stroke="red" points="1698.74,-56.5 1698.74,-75.5 1820.74,-75.5 1820.74,-56.5 1698.74,-56.5"/>
<text text-anchor="middle" x="1759.74" y="-63.5" font-family="Helvetica,sans-Serif" font-size="10.00">llvm/Support/Compiler.h</text>
</a>
</g>
</g>
<!-- Node4&#45;&gt;Node9 -->
<g id="edge8" class="edge">
<title>Node4&#45;&gt;Node9</title>
<path fill="none" stroke="midnightblue" d="M2247.03,-168.47C2212.52,-154.57 2140.8,-127.11 2077.74,-112 1994.1,-91.97 1895.8,-79.74 1830.87,-73.18"/>
<polygon fill="midnightblue" stroke="midnightblue" points="1831.04,-69.68 1820.75,-72.18 1830.35,-76.65 1831.04,-69.68"/>
</g>
<!-- Node4&#45;&gt;Node29 -->
<g id="edge9" class="edge">
<title>Node4&#45;&gt;Node29</title>
<path fill="none" stroke="midnightblue" d="M2206.42,-173.69C2170.64,-171.84 2124.64,-169.59 2083.74,-168 1528.37,-146.42 1389.13,-152.88 833.74,-132 796.78,-130.61 755.89,-128.76 721.21,-127.1"/>
<polygon fill="midnightblue" stroke="midnightblue" points="721.29,-123.6 711.13,-126.61 720.95,-130.59 721.29,-123.6"/>
</g>
<!-- Node23 -->
<g id="node12" class="node">
<title>Node23</title>
<polygon fill="none" stroke="#bfbfbf" points="3367.74,-56.5 3367.74,-75.5 3423.74,-75.5 3423.74,-56.5 3367.74,-56.5"/>
<text text-anchor="middle" x="3395.74" y="-63.5" font-family="Helvetica,sans-Serif" font-size="10.00">algorithm</text>
</g>
<!-- Node4&#45;&gt;Node23 -->
<g id="edge12" class="edge">
<title>Node4&#45;&gt;Node23</title>
<path fill="none" stroke="midnightblue" d="M2328.92,-174.72C2553.79,-166.31 3322.22,-137.22 3333.74,-132 3355.85,-121.98 3374,-100.1 3384.82,-84.5"/>
<polygon fill="midnightblue" stroke="midnightblue" points="3388.01,-86.03 3390.59,-75.76 3382.16,-82.18 3388.01,-86.03"/>
</g>
<!-- Node4&#45;&gt;Node24 -->
<g id="edge13" class="edge">
<title>Node4&#45;&gt;Node24</title>
<path fill="none" stroke="midnightblue" d="M2206.62,-169.19C2108.6,-156.72 1910.12,-131.71 1741.74,-112 1604.06,-95.88 1439.99,-78.21 1369.61,-70.7"/>
<polygon fill="midnightblue" stroke="midnightblue" points="1369.84,-67.21 1359.53,-69.63 1369.1,-74.17 1369.84,-67.21"/>
</g>
<!-- Node12 -->
<g id="node14" class="node">
<title>Node12</title>
<polygon fill="none" stroke="#bfbfbf" points="2077.24,-56.5 2077.24,-75.5 2126.24,-75.5 2126.24,-56.5 2077.24,-56.5"/>
<text text-anchor="middle" x="2101.74" y="-63.5" font-family="Helvetica,sans-Serif" font-size="10.00">cstddef</text>
</g>
<!-- Node4&#45;&gt;Node12 -->
<g id="edge14" class="edge">
<title>Node4&#45;&gt;Node12</title>
<path fill="none" stroke="midnightblue" d="M2258.96,-168.22C2245.37,-154.95 2218.07,-129.46 2191.74,-112 2172.82,-99.45 2149.92,-88.05 2131.95,-79.86"/>
<polygon fill="midnightblue" stroke="midnightblue" points="2133.09,-76.54 2122.54,-75.66 2130.24,-82.93 2133.09,-76.54"/>
</g>
<!-- Node26 -->
<g id="node15" class="node">
<title>Node26</title>
<polygon fill="none" stroke="#bfbfbf" points="1533.74,-112.5 1533.74,-131.5 1579.74,-131.5 1579.74,-112.5 1533.74,-112.5"/>
<text text-anchor="middle" x="1556.74" y="-119.5" font-family="Helvetica,sans-Serif" font-size="10.00">cstring</text>
</g>
<!-- Node4&#45;&gt;Node26 -->
<g id="edge15" class="edge">
<title>Node4&#45;&gt;Node26</title>
<path fill="none" stroke="midnightblue" d="M2206.5,-172.35C2061.6,-161.34 1701.51,-134 1590.12,-125.54"/>
<polygon fill="midnightblue" stroke="midnightblue" points="1590.07,-122.02 1579.83,-124.75 1589.54,-129 1590.07,-122.02"/>
</g>
<!-- Node33 -->
<g id="node16" class="node">
<title>Node33</title>
<polygon fill="none" stroke="#bfbfbf" points="2434.24,-112.5 2434.24,-131.5 2507.24,-131.5 2507.24,-112.5 2434.24,-112.5"/>
<text text-anchor="middle" x="2470.74" y="-119.5" font-family="Helvetica,sans-Serif" font-size="10.00">initializer_list</text>
</g>
<!-- Node4&#45;&gt;Node33 -->
<g id="edge16" class="edge">
<title>Node4&#45;&gt;Node33</title>
<path fill="none" stroke="midnightblue" d="M2299.9,-168.44C2334.8,-159.16 2390.63,-144.31 2428.91,-134.13"/>
<polygon fill="midnightblue" stroke="midnightblue" points="2429.96,-137.47 2438.72,-131.52 2428.16,-130.7 2429.96,-137.47"/>
</g>
<!-- Node21 -->
<g id="node17" class="node">
<title>Node21</title>
<polygon fill="none" stroke="#bfbfbf" points="2999.74,-56.5 2999.74,-75.5 3061.74,-75.5 3061.74,-56.5 2999.74,-56.5"/>
<text text-anchor="middle" x="3030.74" y="-63.5" font-family="Helvetica,sans-Serif" font-size="10.00">type_traits</text>
</g>
<!-- Node4&#45;&gt;Node21 -->
<g id="edge18" class="edge">
<title>Node4&#45;&gt;Node21</title>
<path fill="none" stroke="midnightblue" d="M2283.77,-168.39C2311.7,-153.87 2371.47,-124.84 2425.74,-112 2453.15,-105.52 2857.34,-78.44 2989.36,-69.72"/>
<polygon fill="midnightblue" stroke="midnightblue" points="2989.73,-73.2 2999.47,-69.05 2989.26,-66.22 2989.73,-73.2"/>
</g>
<!-- Node5&#45;&gt;Node6 -->
<g id="edge6" class="edge">
<title>Node5&#45;&gt;Node6</title>
<path fill="none" stroke="midnightblue" d="M2757.49,-58.71C2745.61,-57.69 2733.31,-56.73 2721.74,-56 2253.76,-26.3 1683.13,-14.27 1539.68,-11.6"/>
<polygon fill="midnightblue" stroke="midnightblue" points="1539.41,-8.09 1529.35,-11.41 1539.28,-15.09 1539.41,-8.09"/>
</g>
<!-- Node5&#45;&gt;Node7 -->
<g id="edge7" class="edge">
<title>Node5&#45;&gt;Node7</title>
<path fill="none" stroke="midnightblue" d="M2885.84,-59.67C3023.36,-48.25 3342.25,-21.76 3441.62,-13.5"/>
<polygon fill="midnightblue" stroke="midnightblue" points="3441.91,-16.99 3451.59,-12.67 3441.33,-10.01 3441.91,-16.99"/>
</g>
<!-- Node29&#45;&gt;Node9 -->
<g id="edge10" class="edge">
<title>Node29&#45;&gt;Node9</title>
<path fill="none" stroke="midnightblue" d="M711.07,-117.56C912.95,-107.83 1486.62,-80.17 1688.44,-70.44"/>
<polygon fill="midnightblue" stroke="midnightblue" points="1688.81,-73.92 1698.63,-69.95 1688.47,-66.93 1688.81,-73.92"/>
</g>
<!-- Node29&#45;&gt;Node30 -->
<g id="edge11" class="edge">
<title>Node29&#45;&gt;Node30</title>
<path fill="none" stroke="midnightblue" d="M604.56,-112.44C561.48,-101.97 489.22,-84.39 448.34,-74.45"/>
<polygon fill="midnightblue" stroke="midnightblue" points="448.97,-70.99 438.42,-72.03 447.31,-77.8 448.97,-70.99"/>
</g>
<!-- Node36&#45;&gt;Node5 -->
<g id="edge46" class="edge">
<title>Node36&#45;&gt;Node5</title>
<path fill="none" stroke="midnightblue" d="M2239.96,-225.86C2270.93,-219.74 2309,-208.5 2337.74,-188 2371.47,-163.94 2355.96,-132.9 2391.74,-112 2450.37,-77.75 2640.88,-69.44 2747.59,-67.5"/>
<polygon fill="midnightblue" stroke="midnightblue" points="2747.71,-71 2757.65,-67.34 2747.59,-64 2747.71,-71"/>
</g>
<!-- Node36&#45;&gt;Node7 -->
<g id="edge55" class="edge">
<title>Node36&#45;&gt;Node7</title>
<path fill="none" stroke="midnightblue" d="M2239.79,-233.07C2385.02,-232.67 2790.32,-227.76 3124.74,-188 3256.39,-172.35 3304.12,-200.32 3417.74,-132 3445.1,-115.55 3450.09,-105.32 3462.74,-76 3469.02,-61.44 3471.13,-43.49 3471.75,-30.15"/>
<polygon fill="midnightblue" stroke="midnightblue" points="3475.26,-29.88 3471.98,-19.81 3468.26,-29.73 3475.26,-29.88"/>
</g>
<!-- Node36&#45;&gt;Node9 -->
<g id="edge47" class="edge">
<title>Node36&#45;&gt;Node9</title>
<path fill="none" stroke="midnightblue" d="M2129.7,-227.65C2081.17,-221.73 2009.15,-209.97 1949.74,-188 1902.69,-170.6 1894.05,-158.95 1851.74,-132 1826.08,-115.66 1797.64,-95.18 1779.27,-81.62"/>
<polygon fill="midnightblue" stroke="midnightblue" points="1781.23,-78.72 1771.11,-75.57 1777.06,-84.34 1781.23,-78.72"/>
</g>
<!-- Node36&#45;&gt;Node30 -->
<g id="edge53" class="edge">
<title>Node36&#45;&gt;Node30</title>
<path fill="none" stroke="midnightblue" d="M2129.38,-229.37C1877.72,-212.82 850.97,-144.79 783.74,-132 754.46,-126.43 748.78,-118.66 719.74,-112 621.89,-89.56 503.55,-75.7 448.57,-70"/>
<polygon fill="midnightblue" stroke="midnightblue" points="448.75,-66.5 438.45,-68.97 448.04,-73.46 448.75,-66.5"/>
</g>
<!-- Node36&#45;&gt;Node23 -->
<g id="edge48" class="edge">
<title>Node36&#45;&gt;Node23</title>
<path fill="none" stroke="midnightblue" d="M2240.13,-231.58C2371.89,-227.84 2714.21,-216.03 2998.74,-188 3042.74,-183.66 3362.99,-164.72 3392.74,-132 3403.88,-119.74 3403.24,-100.2 3400.66,-85.75"/>
<polygon fill="midnightblue" stroke="midnightblue" points="3404.06,-84.89 3398.48,-75.88 3397.23,-86.4 3404.06,-84.89"/>
</g>
<!-- Node36&#45;&gt;Node24 -->
<g id="edge49" class="edge">
<title>Node36&#45;&gt;Node24</title>
<path fill="none" stroke="midnightblue" d="M2129.68,-229.13C1991.71,-219.38 1640.43,-194.12 1615.74,-188 1515.65,-163.21 1405.77,-106.44 1358.51,-80.44"/>
<polygon fill="midnightblue" stroke="midnightblue" points="1360.1,-77.32 1349.65,-75.53 1356.7,-83.44 1360.1,-77.32"/>
</g>
<!-- Node36&#45;&gt;Node12 -->
<g id="edge50" class="edge">
<title>Node36&#45;&gt;Node12</title>
<path fill="none" stroke="midnightblue" d="M2180.8,-224.1C2175.2,-211.52 2164.52,-187.84 2154.74,-168 2140.14,-138.37 2122.06,-104.47 2111.24,-84.44"/>
<polygon fill="midnightblue" stroke="midnightblue" points="2114.27,-82.69 2106.42,-75.57 2108.11,-86.03 2114.27,-82.69"/>
</g>
<!-- Node36&#45;&gt;Node26 -->
<g id="edge51" class="edge">
<title>Node36&#45;&gt;Node26</title>
<path fill="none" stroke="midnightblue" d="M2129.7,-228.94C2000.05,-219.28 1684.66,-195.22 1662.74,-188 1629.16,-176.95 1595.16,-153.43 1575.02,-137.93"/>
<polygon fill="midnightblue" stroke="midnightblue" points="1577.06,-135.08 1567.04,-131.64 1572.73,-140.57 1577.06,-135.08"/>
</g>
<!-- Node36&#45;&gt;Node21 -->
<g id="edge54" class="edge">
<title>Node36&#45;&gt;Node21</title>
<path fill="none" stroke="midnightblue" d="M2240.01,-231.4C2414.58,-226.16 2944.4,-208.63 2974.74,-188 3009.56,-164.32 3023.17,-113.19 3028.13,-85.58"/>
<polygon fill="midnightblue" stroke="midnightblue" points="3031.6,-86.07 3029.72,-75.64 3024.69,-84.96 3031.6,-86.07"/>
</g>
<!-- Node37 -->
<g id="node19" class="node">
<title>Node37</title>
<g id="a_node19"><a xlink:href="STLExtras_8h.html" target="_top" xlink:title="llvm/ADT/STLExtras.h">
<polygon fill="none" stroke="red" points="2849.74,-168.5 2849.74,-187.5 2965.74,-187.5 2965.74,-168.5 2849.74,-168.5"/>
<text text-anchor="middle" x="2907.74" y="-175.5" font-family="Helvetica,sans-Serif" font-size="10.00">llvm/ADT/STLExtras.h</text>
</a>
</g>
</g>
<!-- Node36&#45;&gt;Node37 -->
<g id="edge21" class="edge">
<title>Node36&#45;&gt;Node37</title>
<path fill="none" stroke="midnightblue" d="M2239.97,-228.87C2370.32,-219.14 2696.79,-194.76 2839.35,-184.11"/>
<polygon fill="midnightblue" stroke="midnightblue" points="2839.99,-187.57 2849.7,-183.33 2839.46,-180.59 2839.99,-187.57"/>
</g>
<!-- Node27 -->
<g id="node25" class="node">
<title>Node27</title>
<polygon fill="none" stroke="#bfbfbf" points="2601.74,-112.5 2601.74,-131.5 2641.74,-131.5 2641.74,-112.5 2601.74,-112.5"/>
<text text-anchor="middle" x="2621.74" y="-119.5" font-family="Helvetica,sans-Serif" font-size="10.00">limits</text>
</g>
<!-- Node36&#45;&gt;Node27 -->
<g id="edge52" class="edge">
<title>Node36&#45;&gt;Node27</title>
<path fill="none" stroke="midnightblue" d="M2220.78,-224.46C2258.29,-215.53 2318.69,-201.03 2370.74,-188 2450.71,-167.97 2544.72,-143.33 2591.75,-130.93"/>
<polygon fill="midnightblue" stroke="midnightblue" points="2592.82,-134.27 2601.59,-128.33 2591.03,-127.5 2592.82,-134.27"/>
</g>
<!-- Node37&#45;&gt;Node5 -->
<g id="edge34" class="edge">
<title>Node37&#45;&gt;Node5</title>
<path fill="none" stroke="midnightblue" d="M2900.99,-168.37C2886.73,-150.14 2853.34,-107.43 2834.77,-83.68"/>
<polygon fill="midnightblue" stroke="midnightblue" points="2837.37,-81.31 2828.45,-75.59 2831.86,-85.63 2837.37,-81.31"/>
</g>
<!-- Node37&#45;&gt;Node6 -->
<g id="edge42" class="edge">
<title>Node37&#45;&gt;Node6</title>
<path fill="none" stroke="midnightblue" d="M2910.09,-168.34C2915.62,-145.91 2926.64,-85.61 2894.74,-56 2843.51,-8.46 1746.99,-10.11 1539.47,-10.85"/>
<polygon fill="midnightblue" stroke="midnightblue" points="1539.44,-7.35 1529.46,-10.89 1539.47,-14.35 1539.44,-7.35"/>
</g>
<!-- Node37&#45;&gt;Node7 -->
<g id="edge45" class="edge">
<title>Node37&#45;&gt;Node7</title>
<path fill="none" stroke="midnightblue" d="M2965.91,-177.55C3078.51,-177.66 3321.43,-172.97 3392.74,-132 3432.49,-109.16 3455.74,-57.27 3465.8,-29.44"/>
<polygon fill="midnightblue" stroke="midnightblue" points="3469.19,-30.35 3469.11,-19.76 3462.56,-28.09 3469.19,-30.35"/>
</g>
<!-- Node37&#45;&gt;Node29 -->
<g id="edge35" class="edge">
<title>Node37&#45;&gt;Node29</title>
<path fill="none" stroke="midnightblue" d="M2849.71,-175.22C2785.97,-173.3 2680.56,-170.22 2589.74,-168 1809.36,-148.96 1613.91,-158.09 833.74,-132 796.78,-130.76 755.88,-128.94 721.2,-127.25"/>
<polygon fill="midnightblue" stroke="midnightblue" points="721.28,-123.75 711.12,-126.75 720.94,-130.74 721.28,-123.75"/>
</g>
<!-- Node37&#45;&gt;Node23 -->
<g id="edge36" class="edge">
<title>Node37&#45;&gt;Node23</title>
<path fill="none" stroke="midnightblue" d="M2965.95,-173C3086.98,-164.46 3355.87,-144.23 3371.74,-132 3385.86,-121.11 3391.67,-101.04 3394.07,-86.07"/>
<polygon fill="midnightblue" stroke="midnightblue" points="3397.57,-86.21 3395.31,-75.86 3390.63,-85.36 3397.57,-86.21"/>
</g>
<!-- Node37&#45;&gt;Node24 -->
<g id="edge37" class="edge">
<title>Node37&#45;&gt;Node24</title>
<path fill="none" stroke="midnightblue" d="M2849.57,-170.92C2803.41,-164.79 2737.88,-153.1 2683.74,-132 2667.76,-125.77 2667.17,-116.9 2650.74,-112 2619.14,-102.59 1575.34,-73.58 1369.71,-67.95"/>
<polygon fill="midnightblue" stroke="midnightblue" points="1369.58,-64.45 1359.48,-67.67 1369.39,-71.45 1369.58,-64.45"/>
</g>
<!-- Node37&#45;&gt;Node12 -->
<g id="edge38" class="edge">
<title>Node37&#45;&gt;Node12</title>
<path fill="none" stroke="midnightblue" d="M2884.25,-168.45C2843.88,-154.13 2758.44,-125.58 2683.74,-112 2478.69,-74.73 2227.52,-68.3 2136.64,-67.21"/>
<polygon fill="midnightblue" stroke="midnightblue" points="2136.4,-63.71 2126.36,-67.1 2136.33,-70.71 2136.4,-63.71"/>
</g>
<!-- Node37&#45;&gt;Node33 -->
<g id="edge41" class="edge">
<title>Node37&#45;&gt;Node33</title>
<path fill="none" stroke="midnightblue" d="M2849.71,-169.83C2762.16,-159.01 2598.02,-138.73 2517.58,-128.79"/>
<polygon fill="midnightblue" stroke="midnightblue" points="2517.62,-125.27 2507.27,-127.51 2516.77,-132.21 2517.62,-125.27"/>
</g>
<!-- Node37&#45;&gt;Node21 -->
<g id="edge44" class="edge">
<title>Node37&#45;&gt;Node21</title>
<path fill="none" stroke="midnightblue" d="M2917.39,-168.37C2938.14,-149.81 2987.23,-105.91 3013.48,-82.44"/>
<polygon fill="midnightblue" stroke="midnightblue" points="3016.01,-84.87 3021.13,-75.59 3011.34,-79.65 3016.01,-84.87"/>
</g>
<!-- Node38 -->
<g id="node20" class="node">
<title>Node38</title>
<g id="a_node20"><a xlink:href="Optional_8h.html" target="_top" xlink:title="llvm/ADT/Optional.h">
<polygon fill="none" stroke="red" points="3614.24,-112.5 3614.24,-131.5 3719.24,-131.5 3719.24,-112.5 3614.24,-112.5"/>
<text text-anchor="middle" x="3666.74" y="-119.5" font-family="Helvetica,sans-Serif" font-size="10.00">llvm/ADT/Optional.h</text>
</a>
</g>
</g>
<!-- Node37&#45;&gt;Node38 -->
<g id="edge22" class="edge">
<title>Node37&#45;&gt;Node38</title>
<path fill="none" stroke="midnightblue" d="M2966.03,-172.85C3105.87,-162.9 3459.42,-137.75 3603.83,-127.48"/>
<polygon fill="midnightblue" stroke="midnightblue" points="3604.13,-130.96 3613.86,-126.76 3603.63,-123.98 3604.13,-130.96"/>
</g>
<!-- Node40 -->
<g id="node22" class="node">
<title>Node40</title>
<g id="a_node22"><a xlink:href="iterator_8h.html" target="_top" xlink:title="llvm/ADT/iterator.h">
<polygon fill="none" stroke="black" points="3116.24,-112.5 3116.24,-131.5 3215.24,-131.5 3215.24,-112.5 3116.24,-112.5"/>
<text text-anchor="middle" x="3165.74" y="-119.5" font-family="Helvetica,sans-Serif" font-size="10.00">llvm/ADT/iterator.h</text>
</a>
</g>
</g>
<!-- Node37&#45;&gt;Node40 -->
<g id="edge27" class="edge">
<title>Node37&#45;&gt;Node40</title>
<path fill="none" stroke="midnightblue" d="M2948.62,-168.44C2993.72,-159 3066.35,-143.8 3115.04,-133.61"/>
<polygon fill="midnightblue" stroke="midnightblue" points="3115.98,-136.99 3125.05,-131.52 3114.54,-130.14 3115.98,-136.99"/>
</g>
<!-- Node37&#45;&gt;Node42 -->
<g id="edge39" class="edge">
<title>Node37&#45;&gt;Node42</title>
<path fill="none" stroke="midnightblue" d="M2849.51,-175.2C2573.78,-166.7 1403.87,-130.59 1191.03,-124.03"/>
<polygon fill="midnightblue" stroke="midnightblue" points="1190.91,-120.52 1180.81,-123.71 1190.69,-127.52 1190.91,-120.52"/>
</g>
<!-- Node43 -->
<g id="node24" class="node">
<title>Node43</title>
<polygon fill="none" stroke="#bfbfbf" points="4004.24,-112.5 4004.24,-131.5 4063.24,-131.5 4063.24,-112.5 4004.24,-112.5"/>
<text text-anchor="middle" x="4033.74" y="-119.5" font-family="Helvetica,sans-Serif" font-size="10.00">functional</text>
</g>
<!-- Node37&#45;&gt;Node43 -->
<g id="edge40" class="edge">
<title>Node37&#45;&gt;Node43</title>
<path fill="none" stroke="midnightblue" d="M2965.9,-174.21C3166.29,-164.6 3824.87,-133.02 3993.91,-124.91"/>
<polygon fill="midnightblue" stroke="midnightblue" points="3994.28,-128.4 4004.1,-124.42 3993.95,-121.4 3994.28,-128.4"/>
</g>
<!-- Node37&#45;&gt;Node27 -->
<g id="edge43" class="edge">
<title>Node37&#45;&gt;Node27</title>
<path fill="none" stroke="midnightblue" d="M2852.42,-168.46C2801.19,-160.24 2723,-146.88 2655.74,-132 2654.46,-131.72 2653.16,-131.42 2651.85,-131.11"/>
<polygon fill="midnightblue" stroke="midnightblue" points="2652.36,-127.63 2641.81,-128.6 2650.66,-134.42 2652.36,-127.63"/>
</g>
<!-- Node38&#45;&gt;Node7 -->
<g id="edge26" class="edge">
<title>Node38&#45;&gt;Node7</title>
<path fill="none" stroke="midnightblue" d="M3651.44,-112.37C3617.62,-93.29 3536.3,-47.42 3495.68,-24.51"/>
<polygon fill="midnightblue" stroke="midnightblue" points="3497.4,-21.46 3486.97,-19.59 3493.96,-27.55 3497.4,-21.46"/>
</g>
<!-- Node38&#45;&gt;Node9 -->
<g id="edge24" class="edge">
<title>Node38&#45;&gt;Node9</title>
<path fill="none" stroke="midnightblue" d="M3613.94,-119.53C3412.82,-113.95 2675.33,-93.43 2067.74,-76 1986.57,-73.67 1893.36,-70.94 1830.94,-69.1"/>
<polygon fill="midnightblue" stroke="midnightblue" points="1830.9,-65.6 1820.8,-68.8 1830.7,-72.6 1830.9,-65.6"/>
</g>
<!-- Node38&#45;&gt;Node24 -->
<g id="edge25" class="edge">
<title>Node38&#45;&gt;Node24</title>
<path fill="none" stroke="midnightblue" d="M3614.04,-119.85C3385.13,-114.85 2454.26,-94.39 1689.74,-76 1572.34,-73.18 1433.1,-69.57 1369.52,-67.91"/>
<polygon fill="midnightblue" stroke="midnightblue" points="1369.36,-64.41 1359.27,-67.64 1369.17,-71.4 1369.36,-64.41"/>
</g>
<!-- Node39 -->
<g id="node21" class="node">
<title>Node39</title>
<g id="a_node21"><a xlink:href="None_8h.html" target="_top" xlink:title="llvm/ADT/None.h">
<polygon fill="none" stroke="black" points="3833.74,-56.5 3833.74,-75.5 3925.74,-75.5 3925.74,-56.5 3833.74,-56.5"/>
<text text-anchor="middle" x="3879.74" y="-63.5" font-family="Helvetica,sans-Serif" font-size="10.00">llvm/ADT/None.h</text>
</a>
</g>
</g>
<!-- Node38&#45;&gt;Node39 -->
<g id="edge23" class="edge">
<title>Node38&#45;&gt;Node39</title>
<path fill="none" stroke="midnightblue" d="M3700.49,-112.44C3737.26,-103.12 3796.18,-88.18 3836.36,-78"/>
<polygon fill="midnightblue" stroke="midnightblue" points="3837.31,-81.37 3846.14,-75.52 3835.59,-74.58 3837.31,-81.37"/>
</g>
<!-- Node40&#45;&gt;Node5 -->
<g id="edge28" class="edge">
<title>Node40&#45;&gt;Node5</title>
<path fill="none" stroke="midnightblue" d="M3116.08,-113.21C3055.38,-103.68 2952.52,-87.53 2885.88,-77.07"/>
<polygon fill="midnightblue" stroke="midnightblue" points="2886.34,-73.6 2875.92,-75.5 2885.25,-80.51 2886.34,-73.6"/>
</g>
<!-- Node40&#45;&gt;Node6 -->
<g id="edge31" class="edge">
<title>Node40&#45;&gt;Node6</title>
<path fill="none" stroke="midnightblue" d="M3156.75,-112.14C3140.95,-97.23 3106.47,-67.62 3070.74,-56 2920.6,-7.18 1754.02,-9.91 1539.56,-10.83"/>
<polygon fill="midnightblue" stroke="midnightblue" points="1539.5,-7.33 1529.52,-10.88 1539.53,-14.33 1539.5,-7.33"/>
</g>
<!-- Node40&#45;&gt;Node7 -->
<g id="edge33" class="edge">
<title>Node40&#45;&gt;Node7</title>
<path fill="none" stroke="midnightblue" d="M3171.64,-112.18C3181.73,-97.87 3203.73,-69.82 3229.74,-56 3299.05,-19.16 3393.49,-12.02 3441.31,-10.93"/>
<polygon fill="midnightblue" stroke="midnightblue" points="3441.66,-14.42 3451.61,-10.77 3441.55,-7.42 3441.66,-14.42"/>
</g>
<!-- Node40&#45;&gt;Node23 -->
<g id="edge29" class="edge">
<title>Node40&#45;&gt;Node23</title>
<path fill="none" stroke="midnightblue" d="M3202.18,-112.44C3244.63,-102.48 3314.44,-86.09 3357.6,-75.95"/>
<polygon fill="midnightblue" stroke="midnightblue" points="3358.5,-79.34 3367.44,-73.64 3356.9,-72.52 3358.5,-79.34"/>
</g>
<!-- Node40&#45;&gt;Node12 -->
<g id="edge30" class="edge">
<title>Node40&#45;&gt;Node12</title>
<path fill="none" stroke="midnightblue" d="M3116.2,-118.49C2932.54,-109.16 2293.03,-76.71 2136.51,-68.76"/>
<polygon fill="midnightblue" stroke="midnightblue" points="2136.66,-65.27 2126.5,-68.26 2136.31,-72.26 2136.66,-65.27"/>
</g>
<!-- Node40&#45;&gt;Node21 -->
<g id="edge32" class="edge">
<title>Node40&#45;&gt;Node21</title>
<path fill="none" stroke="midnightblue" d="M3144.35,-112.44C3122.03,-103.52 3086.83,-89.44 3061.53,-79.32"/>
<polygon fill="midnightblue" stroke="midnightblue" points="3062.61,-75.98 3052.03,-75.52 3060.01,-82.48 3062.61,-75.98"/>
</g>
<!-- Node46&#45;&gt;Node5 -->
<g id="edge73" class="edge">
<title>Node46&#45;&gt;Node5</title>
<path fill="none" stroke="midnightblue" d="M1025.06,-417.57C1284.97,-417.49 2214.58,-413.9 2337.74,-367 2452.02,-323.48 2425.63,-235.28 2527.74,-168 2575.3,-136.66 2596.74,-150.13 2650.74,-132 2700.61,-115.25 2757.54,-92.96 2791.51,-79.32"/>
<polygon fill="midnightblue" stroke="midnightblue" points="2792.9,-82.53 2800.87,-75.54 2790.29,-76.04 2792.9,-82.53"/>
</g>
<!-- Node46&#45;&gt;Node6 -->
<g id="edge89" class="edge">
<title>Node46&#45;&gt;Node6</title>
<path fill="none" stroke="midnightblue" d="M890.47,-409.86C845.34,-402.9 785.47,-390.06 736.74,-367 716.41,-357.38 717.19,-345.35 696.74,-336 622.94,-302.25 592.78,-330.89 517.74,-300 475.9,-282.78 461.76,-278.7 432.74,-244 377.61,-178.1 328.22,-117.96 387.74,-56 426.23,-15.93 1289.09,-11.54 1471.9,-11.06"/>
<polygon fill="midnightblue" stroke="midnightblue" points="1472.01,-14.56 1482,-11.03 1471.99,-7.56 1472.01,-14.56"/>
</g>
<!-- Node46&#45;&gt;Node7 -->
<g id="edge90" class="edge">
<title>Node46&#45;&gt;Node7</title>
<path fill="none" stroke="midnightblue" d="M1025.01,-416.44C1289.31,-412.1 2256.97,-394.63 2562.74,-367 2762.81,-348.92 2811.65,-333.45 3009.74,-300 3142.62,-277.56 3176.31,-273.79 3307.74,-244 3496.57,-201.2 3610.73,-285.5 3728.74,-132 3791.3,-50.62 3582.21,-21.58 3501.87,-13.57"/>
<polygon fill="midnightblue" stroke="midnightblue" points="3502.15,-10.08 3491.86,-12.62 3501.48,-17.05 3502.15,-10.08"/>
</g>
<!-- Node46&#45;&gt;Node24 -->
<g id="edge87" class="edge">
<title>Node46&#45;&gt;Node24</title>
<path fill="none" stroke="midnightblue" d="M927.75,-408.99C898.63,-400.21 853.54,-385.25 816.74,-367 763.05,-340.38 689.19,-334.66 713.74,-280 721.41,-262.91 823.7,-177.67 839.74,-168 878.76,-144.47 894.74,-151.9 935.74,-132 951.17,-124.51 952.53,-117.62 968.74,-112 1029.54,-90.93 1220.57,-75.2 1299.79,-69.42"/>
<polygon fill="midnightblue" stroke="midnightblue" points="1300.47,-72.88 1310.2,-68.67 1299.97,-65.9 1300.47,-72.88"/>
</g>
<!-- Node46&#45;&gt;Node40 -->
<g id="edge72" class="edge">
<title>Node46&#45;&gt;Node40</title>
<path fill="none" stroke="midnightblue" d="M1025.04,-416.32C1273.49,-411.76 2138.92,-394.28 2413.74,-367 2497.44,-358.69 3096.16,-297.9 3160.74,-244 3187.55,-221.62 3186.33,-202.48 3180.74,-168 3179.27,-158.96 3176.24,-149.28 3173.29,-141.22"/>
<polygon fill="midnightblue" stroke="midnightblue" points="3176.49,-139.79 3169.59,-131.75 3169.97,-142.34 3176.49,-139.79"/>
</g>
<!-- Node46&#45;&gt;Node42 -->
<g id="edge88" class="edge">
<title>Node46&#45;&gt;Node42</title>
<path fill="none" stroke="midnightblue" d="M936.94,-408.99C920.25,-400.91 897.98,-387.01 887.74,-367 881.46,-354.73 881.73,-348.4 887.74,-336 938.56,-231.16 1068.78,-162.39 1127.83,-135.62"/>
<polygon fill="midnightblue" stroke="midnightblue" points="1129.29,-138.8 1137,-131.54 1126.44,-132.4 1129.29,-138.8"/>
</g>
<!-- Node47 -->
<g id="node28" class="node">
<title>Node47</title>
<g id="a_node28"><a xlink:href="DenseMap_8h.html" target="_top" xlink:title="llvm/ADT/DenseMap.h">
<polygon fill="none" stroke="red" points="1958.74,-168.5 1958.74,-187.5 2074.74,-187.5 2074.74,-168.5 1958.74,-168.5"/>
<text text-anchor="middle" x="2016.74" y="-175.5" font-family="Helvetica,sans-Serif" font-size="10.00">llvm/ADT/DenseMap.h</text>
</a>
</g>
</g>
<!-- Node46&#45;&gt;Node47 -->
<g id="edge62" class="edge">
<title>Node46&#45;&gt;Node47</title>
<path fill="none" stroke="midnightblue" d="M1024.79,-409.16C1147.92,-393.14 1417.85,-354.75 1640.74,-300 1657.87,-295.79 1890.42,-220.16 1980.99,-190.65"/>
<polygon fill="midnightblue" stroke="midnightblue" points="1982.13,-193.96 1990.56,-187.54 1979.97,-187.31 1982.13,-193.96"/>
</g>
<!-- Node58 -->
<g id="node29" class="node">
<title>Node58</title>
<g id="a_node29"><a xlink:href="LaneBitmask_8h.html" target="_top" xlink:title="A common definition of LaneBitmask for use in TableGen and CodeGen. ">
<polygon fill="none" stroke="red" points="896.74,-342 896.74,-361 1018.74,-361 1018.74,-342 896.74,-342"/>
<text text-anchor="middle" x="957.74" y="-349" font-family="Helvetica,sans-Serif" font-size="10.00">llvm/MC/LaneBitmask.h</text>
</a>
</g>
</g>
<!-- Node46&#45;&gt;Node58 -->
<g id="edge74" class="edge">
<title>Node46&#45;&gt;Node58</title>
<path fill="none" stroke="midnightblue" d="M957.74,-408.73C957.74,-399.18 957.74,-383.62 957.74,-371.28"/>
<polygon fill="midnightblue" stroke="midnightblue" points="961.24,-371.13 957.74,-361.13 954.24,-371.13 961.24,-371.13"/>
</g>
<!-- Node64 -->
<g id="node31" class="node">
<title>Node64</title>
<g id="a_node31"><a xlink:href="MCRegister_8h.html" target="_top" xlink:title="llvm/MC/MCRegister.h">
<polygon fill="none" stroke="red" points="723.24,-280.5 723.24,-299.5 840.24,-299.5 840.24,-280.5 723.24,-280.5"/>
<text text-anchor="middle" x="781.74" y="-287.5" font-family="Helvetica,sans-Serif" font-size="10.00">llvm/MC/MCRegister.h</text>
</a>
</g>
</g>
<!-- Node46&#45;&gt;Node64 -->
<g id="edge85" class="edge">
<title>Node46&#45;&gt;Node64</title>
<path fill="none" stroke="midnightblue" d="M934.77,-408.96C913.01,-400.25 879.99,-385.44 854.74,-367 831.3,-349.89 808.88,-324.8 795.21,-308.19"/>
<polygon fill="midnightblue" stroke="midnightblue" points="797.57,-305.54 788.57,-299.94 792.12,-309.93 797.57,-305.54"/>
</g>
<!-- Node47&#45;&gt;Node6 -->
<g id="edge69" class="edge">
<title>Node47&#45;&gt;Node6</title>
<path fill="none" stroke="midnightblue" d="M1958.66,-172.97C1932.69,-171.27 1901.69,-169.36 1873.74,-168 1815.99,-165.18 873.9,-173.58 833.74,-132 741.64,-36.66 1323.37,-15.55 1471.85,-11.74"/>
<polygon fill="midnightblue" stroke="midnightblue" points="1472.26,-15.23 1482.17,-11.49 1472.08,-8.23 1472.26,-15.23"/>
</g>
<!-- Node47&#45;&gt;Node7 -->
<g id="edge71" class="edge">
<title>Node47&#45;&gt;Node7</title>
<path fill="none" stroke="midnightblue" d="M2001.74,-168.45C1982.75,-156.47 1953.95,-133.71 1966.74,-112 1992.79,-67.77 2018.26,-69.65 2067.74,-56 2204.31,-18.33 3249.67,-11.97 3441.54,-11.12"/>
<polygon fill="midnightblue" stroke="midnightblue" points="3441.75,-14.62 3451.73,-11.07 3441.72,-7.62 3441.75,-14.62"/>
</g>
<!-- Node47&#45;&gt;Node9 -->
<g id="edge63" class="edge">
<title>Node47&#45;&gt;Node9</title>
<path fill="none" stroke="midnightblue" d="M1992.36,-168.42C1968.15,-159.74 1930.07,-145.7 1897.74,-132 1858.26,-115.27 1813.52,-93.7 1785.96,-80.11"/>
<polygon fill="midnightblue" stroke="midnightblue" points="1787.48,-76.95 1776.97,-75.65 1784.37,-83.23 1787.48,-76.95"/>
</g>
<!-- Node47&#45;&gt;Node23 -->
<g id="edge64" class="edge">
<title>Node47&#45;&gt;Node23</title>
<path fill="none" stroke="midnightblue" d="M2075.01,-173.87C2110.48,-172.02 2156.71,-169.72 2197.74,-168 2433.22,-158.15 3028.64,-187.35 3257.74,-132 3301.07,-121.53 3347.08,-96.73 3373.51,-80.97"/>
<polygon fill="midnightblue" stroke="midnightblue" points="3375.6,-83.79 3382.32,-75.61 3371.96,-77.81 3375.6,-83.79"/>
</g>
<!-- Node47&#45;&gt;Node24 -->
<g id="edge65" class="edge">
<title>Node47&#45;&gt;Node24</title>
<path fill="none" stroke="midnightblue" d="M1975.2,-168.5C1910.21,-155.37 1780.48,-129.8 1669.74,-112 1560.7,-94.48 1430.93,-78.4 1369.84,-71.11"/>
<polygon fill="midnightblue" stroke="midnightblue" points="1369.94,-67.6 1359.6,-69.89 1369.11,-74.55 1369.94,-67.6"/>
</g>
<!-- Node47&#45;&gt;Node12 -->
<g id="edge66" class="edge">
<title>Node47&#45;&gt;Node12</title>
<path fill="none" stroke="midnightblue" d="M2003.9,-168.47C1986.64,-155.93 1959.66,-131.87 1973.74,-112 1994.69,-82.43 2036.69,-72.15 2066.87,-68.65"/>
<polygon fill="midnightblue" stroke="midnightblue" points="2067.38,-72.12 2077,-67.68 2066.71,-65.15 2067.38,-72.12"/>
</g>
<!-- Node47&#45;&gt;Node26 -->
<g id="edge67" class="edge">
<title>Node47&#45;&gt;Node26</title>
<path fill="none" stroke="midnightblue" d="M1958.48,-170.16C1861.04,-158.72 1668.06,-136.07 1590.34,-126.94"/>
<polygon fill="midnightblue" stroke="midnightblue" points="1590.5,-123.44 1580.16,-125.75 1589.68,-130.39 1590.5,-123.44"/>
</g>
<!-- Node47&#45;&gt;Node33 -->
<g id="edge68" class="edge">
<title>Node47&#45;&gt;Node33</title>
<path fill="none" stroke="midnightblue" d="M2075.16,-170.05C2166.43,-159.2 2341,-138.43 2424.29,-128.52"/>
<polygon fill="midnightblue" stroke="midnightblue" points="2424.71,-132 2434.22,-127.34 2423.88,-125.05 2424.71,-132"/>
</g>
<!-- Node47&#45;&gt;Node21 -->
<g id="edge70" class="edge">
<title>Node47&#45;&gt;Node21</title>
<path fill="none" stroke="midnightblue" d="M2054.14,-168.46C2117.35,-154.38 2249.51,-126.4 2362.74,-112 2370.55,-111.01 2844.32,-79.41 2989.14,-69.77"/>
<polygon fill="midnightblue" stroke="midnightblue" points="2989.64,-73.24 2999.39,-69.09 2989.17,-66.26 2989.64,-73.24"/>
</g>
<!-- Node58&#45;&gt;Node9 -->
<g id="edge75" class="edge">
<title>Node58&#45;&gt;Node9</title>
<path fill="none" stroke="midnightblue" d="M960.66,-341.92C973.39,-306.04 1027.83,-167.28 1125.74,-112 1173.7,-84.92 1532.5,-72.71 1688.11,-68.64"/>
<polygon fill="midnightblue" stroke="midnightblue" points="1688.6,-72.13 1698.5,-68.38 1688.42,-65.14 1688.6,-72.13"/>
</g>
<!-- Node62 -->
<g id="node30" class="node">
<title>Node62</title>
<g id="a_node30"><a xlink:href="raw__ostream_8h.html" target="_top" xlink:title="llvm/Support/raw_ostream.h">
<polygon fill="none" stroke="red" points="1493.24,-280.5 1493.24,-299.5 1632.24,-299.5 1632.24,-280.5 1493.24,-280.5"/>
<text text-anchor="middle" x="1562.74" y="-287.5" font-family="Helvetica,sans-Serif" font-size="10.00">llvm/Support/raw_ostream.h</text>
</a>
</g>
</g>
<!-- Node58&#45;&gt;Node62 -->
<g id="edge76" class="edge">
<title>Node58&#45;&gt;Node62</title>
<path fill="none" stroke="midnightblue" d="M1019.06,-344.02C1043.53,-341.47 1071.96,-338.54 1097.74,-336 1268.32,-319.17 1311.21,-317.47 1481.74,-300 1482.08,-299.96 1482.42,-299.93 1482.77,-299.89"/>
<polygon fill="midnightblue" stroke="midnightblue" points="1483.35,-303.35 1492.94,-298.83 1482.63,-296.39 1483.35,-303.35"/>
</g>
<!-- Node62&#45;&gt;Node4 -->
<g id="edge77" class="edge">
<title>Node62&#45;&gt;Node4</title>
<path fill="none" stroke="midnightblue" d="M1632.55,-283.22C1756.41,-272.87 2005.32,-251.51 2044.74,-244 2063.04,-240.51 2171.13,-208.18 2229.84,-190.48"/>
<polygon fill="midnightblue" stroke="midnightblue" points="2230.94,-193.8 2239.5,-187.56 2228.92,-187.1 2230.94,-193.8"/>
</g>
<!-- Node62&#45;&gt;Node30 -->
<g id="edge83" class="edge">
<title>Node62&#45;&gt;Node30</title>
<path fill="none" stroke="midnightblue" d="M1492.96,-280.93C1489.16,-280.59 1485.41,-280.28 1481.74,-280 1382.38,-272.49 676.48,-285.16 585.74,-244 509.23,-209.3 450.45,-122.17 427.84,-84.64"/>
<polygon fill="midnightblue" stroke="midnightblue" points="430.75,-82.68 422.66,-75.84 424.72,-86.24 430.75,-82.68"/>
</g>
<!-- Node62&#45;&gt;Node24 -->
<g id="edge79" class="edge">
<title>Node62&#45;&gt;Node24</title>
<path fill="none" stroke="midnightblue" d="M1549.7,-280.41C1517.42,-258.64 1432.39,-198.31 1377.74,-132 1365.27,-116.88 1353.15,-98.06 1344.97,-84.57"/>
<polygon fill="midnightblue" stroke="midnightblue" points="1347.88,-82.62 1339.76,-75.82 1341.87,-86.2 1347.88,-82.62"/>
</g>
<!-- Node62&#45;&gt;Node12 -->
<g id="edge80" class="edge">
<title>Node62&#45;&gt;Node12</title>
<path fill="none" stroke="midnightblue" d="M1605.23,-280.47C1667.05,-266.91 1784.17,-236.88 1873.74,-188 1920.59,-162.43 1919.98,-137.75 1966.74,-112 1998.92,-94.27 2039.28,-81.95 2067.45,-74.74"/>
<polygon fill="midnightblue" stroke="midnightblue" points="2068.37,-78.12 2077.24,-72.32 2066.69,-71.33 2068.37,-78.12"/>
</g>
<!-- Node62&#45;&gt;Node26 -->
<g id="edge82" class="edge">
<title>Node62&#45;&gt;Node26</title>
<path fill="none" stroke="midnightblue" d="M1562.41,-280.08C1561.47,-253.95 1558.7,-177.21 1557.41,-141.58"/>
<polygon fill="midnightblue" stroke="midnightblue" points="1560.91,-141.44 1557.05,-131.57 1553.91,-141.69 1560.91,-141.44"/>
</g>
<!-- Node62&#45;&gt;Node21 -->
<g id="edge84" class="edge">
<title>Node62&#45;&gt;Node21</title>
<path fill="none" stroke="midnightblue" d="M1632.44,-288.26C1859.49,-285.55 2576.33,-274.73 2805.74,-244 2913.87,-229.51 2969,-266.53 3044.74,-188 3068.43,-163.43 3064.3,-145.04 3055.74,-112 3053.19,-102.18 3047.98,-92.21 3042.98,-84.17"/>
<polygon fill="midnightblue" stroke="midnightblue" points="3045.82,-82.11 3037.37,-75.73 3039.99,-85.99 3045.82,-82.11"/>
</g>
<!-- Node62&#45;&gt;Node36 -->
<g id="edge78" class="edge">
<title>Node62&#45;&gt;Node36</title>
<path fill="none" stroke="midnightblue" d="M1632.4,-283.76C1759.39,-274.13 2023.9,-253.72 2115.74,-244 2116.85,-243.88 2117.97,-243.76 2119.1,-243.64"/>
<polygon fill="midnightblue" stroke="midnightblue" points="2119.87,-247.07 2129.4,-242.46 2119.07,-240.12 2119.87,-247.07"/>
</g>
<!-- Node62&#45;&gt;Node42 -->
<g id="edge81" class="edge">
<title>Node62&#45;&gt;Node42</title>
<path fill="none" stroke="midnightblue" d="M1496.52,-280.48C1419.82,-270.29 1301.53,-253.41 1282.74,-244 1232.73,-218.96 1189.67,-166.84 1169.66,-139.91"/>
<polygon fill="midnightblue" stroke="midnightblue" points="1172.28,-137.56 1163.58,-131.53 1166.62,-141.67 1172.28,-137.56"/>
</g>
<!-- Node64&#45;&gt;Node24 -->
<g id="edge86" class="edge">
<title>Node64&#45;&gt;Node24</title>
<path fill="none" stroke="midnightblue" d="M785.36,-280.28C794.97,-258.21 823.21,-199.66 864.74,-168 903.63,-138.34 923.03,-149.41 968.74,-132 990.33,-123.77 994.45,-118.11 1016.74,-112 1117.22,-84.44 1240.45,-73.14 1299.68,-69.04"/>
<polygon fill="midnightblue" stroke="midnightblue" points="1300.22,-72.51 1309.97,-68.36 1299.76,-65.53 1300.22,-72.51"/>
</g>
<!-- Node65&#45;&gt;Node42 -->
<g id="edge116" class="edge">
<title>Node65&#45;&gt;Node42</title>
<path fill="none" stroke="midnightblue" d="M229.9,-540.31C175.1,-533.24 91.41,-519.76 65.74,-501 4.64,-456.35 -22.93,-395.57 23.74,-336 215.97,-90.58 397.51,-220.88 704.74,-168 860.26,-141.23 1048.77,-128.84 1124.19,-124.69"/>
<polygon fill="midnightblue" stroke="midnightblue" points="1124.68,-128.17 1134.48,-124.13 1124.31,-121.18 1124.68,-128.17"/>
</g>
<!-- Node66 -->
<g id="node33" class="node">
<title>Node66</title>
<g id="a_node33"><a xlink:href="Mips_8h.html" target="_top" xlink:title="Mips.h">
<polygon fill="none" stroke="black" points="256.74,-476 256.74,-495 302.74,-495 302.74,-476 256.74,-476"/>
<text text-anchor="middle" x="279.74" y="-483" font-family="Helvetica,sans-Serif" font-size="10.00">Mips.h</text>
</a>
</g>
</g>
<!-- Node65&#45;&gt;Node66 -->
<g id="edge92" class="edge">
<title>Node65&#45;&gt;Node66</title>
<path fill="none" stroke="midnightblue" d="M279.74,-537.48C279.74,-529.08 279.74,-515.98 279.74,-505.16"/>
<polygon fill="midnightblue" stroke="midnightblue" points="283.24,-505.01 279.74,-495.01 276.24,-505.01 283.24,-505.01"/>
</g>
<!-- Node68 -->
<g id="node35" class="node">
<title>Node68</title>
<polygon fill="none" stroke="#bfbfbf" points="33.24,-342 33.24,-361 158.24,-361 158.24,-342 33.24,-342"/>
<text text-anchor="middle" x="95.74" y="-349" font-family="Helvetica,sans-Serif" font-size="10.00">MipsGenRegisterInfo.inc</text>
</g>
<!-- Node65&#45;&gt;Node68 -->
<g id="edge117" class="edge">
<title>Node65&#45;&gt;Node68</title>
<path fill="none" stroke="midnightblue" d="M230.11,-539.16C172.08,-528.2 78.51,-500.7 35.74,-434 28.3,-422.4 29.92,-415.49 35.74,-403 42.93,-387.55 57.42,-375.14 70.36,-366.49"/>
<polygon fill="midnightblue" stroke="midnightblue" points="72.34,-369.38 78.97,-361.11 68.63,-363.44 72.34,-369.38"/>
</g>
<!-- Node101 -->
<g id="node37" class="node">
<title>Node101</title>
<g id="a_node37"><a xlink:href="MachineBasicBlock_8h.html" target="_top" xlink:title="llvm/CodeGen/MachineBasic\lBlock.h">
<polygon fill="none" stroke="red" points="531.24,-470.5 531.24,-500.5 674.24,-500.5 674.24,-470.5 531.24,-470.5"/>
<text text-anchor="start" x="539.24" y="-488.5" font-family="Helvetica,sans-Serif" font-size="10.00">llvm/CodeGen/MachineBasic</text>
<text text-anchor="middle" x="602.74" y="-477.5" font-family="Helvetica,sans-Serif" font-size="10.00">Block.h</text>
</a>
</g>
</g>
<!-- Node65&#45;&gt;Node101 -->
<g id="edge99" class="edge">
<title>Node65&#45;&gt;Node101</title>
<path fill="none" stroke="midnightblue" d="M326.02,-537.48C376.83,-528.12 459.39,-512.91 521.13,-501.53"/>
<polygon fill="midnightblue" stroke="midnightblue" points="522.04,-504.93 531.24,-499.67 520.77,-498.04 522.04,-504.93"/>
</g>
<!-- Node67 -->
<g id="node34" class="node">
<title>Node67</title>
<g id="a_node34"><a xlink:href="MipsMCTargetDesc_8h.html" target="_top" xlink:title="MCTargetDesc/MipsMCTarget\lDesc.h">
<polygon fill="none" stroke="red" points="45.24,-403.5 45.24,-433.5 196.24,-433.5 196.24,-403.5 45.24,-403.5"/>
<text text-anchor="start" x="53.24" y="-421.5" font-family="Helvetica,sans-Serif" font-size="10.00">MCTargetDesc/MipsMCTarget</text>
<text text-anchor="middle" x="120.74" y="-410.5" font-family="Helvetica,sans-Serif" font-size="10.00">Desc.h</text>
</a>
</g>
</g>
<!-- Node66&#45;&gt;Node67 -->
<g id="edge93" class="edge">
<title>Node66&#45;&gt;Node67</title>
<path fill="none" stroke="midnightblue" d="M258.62,-475.87C234.76,-466.12 195.27,-449.97 164.65,-437.45"/>
<polygon fill="midnightblue" stroke="midnightblue" points="165.63,-434.07 155.05,-433.53 162.98,-440.55 165.63,-434.07"/>
</g>
<!-- Node71 -->
<g id="node36" class="node">
<title>Node71</title>
<g id="a_node36"><a xlink:href="Target_2TargetMachine_8h.html" target="_top" xlink:title="llvm/Target/TargetMachine.h">
<polygon fill="none" stroke="red" points="367.24,-409 367.24,-428 508.24,-428 508.24,-409 367.24,-409"/>
<text text-anchor="middle" x="437.74" y="-416" font-family="Helvetica,sans-Serif" font-size="10.00">llvm/Target/TargetMachine.h</text>
</a>
</g>
</g>
<!-- Node66&#45;&gt;Node71 -->
<g id="edge95" class="edge">
<title>Node66&#45;&gt;Node71</title>
<path fill="none" stroke="midnightblue" d="M300.72,-475.87C327.99,-464.65 375.81,-444.98 407.13,-432.09"/>
<polygon fill="midnightblue" stroke="midnightblue" points="408.75,-435.21 416.67,-428.17 406.09,-428.74 408.75,-435.21"/>
</g>
<!-- Node67&#45;&gt;Node68 -->
<g id="edge94" class="edge">
<title>Node67&#45;&gt;Node68</title>
<path fill="none" stroke="midnightblue" d="M115.31,-403.4C111.61,-393.76 106.67,-380.91 102.67,-370.54"/>
<polygon fill="midnightblue" stroke="midnightblue" points="105.94,-369.27 99.08,-361.19 99.4,-371.78 105.94,-369.27"/>
</g>
<!-- Node71&#45;&gt;Node2 -->
<g id="edge97" class="edge">
<title>Node71&#45;&gt;Node2</title>
<path fill="none" stroke="midnightblue" d="M464.83,-408.87C500.9,-397.38 564.82,-377.01 605.15,-364.16"/>
<polygon fill="midnightblue" stroke="midnightblue" points="606.39,-367.43 614.86,-361.06 604.27,-360.76 606.39,-367.43"/>
</g>
<!-- Node71&#45;&gt;Node30 -->
<g id="edge98" class="edge">
<title>Node71&#45;&gt;Node30</title>
<path fill="none" stroke="midnightblue" d="M429.35,-408.87C402.34,-380.37 317.71,-285.53 289.74,-188 280.43,-155.53 270.21,-139.56 289.74,-112 311.66,-81.05 356.64,-71.23 387,-68.21"/>
<polygon fill="midnightblue" stroke="midnightblue" points="387.39,-71.69 397.07,-67.4 386.82,-64.71 387.39,-71.69"/>
</g>
<!-- Node71&#45;&gt;Node36 -->
<g id="edge96" class="edge">
<title>Node71&#45;&gt;Node36</title>
<path fill="none" stroke="midnightblue" d="M479.95,-408.96C492.11,-406.74 505.41,-404.55 517.74,-403 743.2,-374.7 801.42,-387.35 1027.74,-367 1300.7,-342.46 1368.45,-331.15 1640.74,-300 1813.64,-280.22 2017.27,-255.51 2119.39,-243.02"/>
<polygon fill="midnightblue" stroke="midnightblue" points="2120.05,-246.47 2129.55,-241.78 2119.2,-239.52 2120.05,-246.47"/>
</g>
<!-- Node101&#45;&gt;Node5 -->
<g id="edge107" class="edge">
<title>Node101&#45;&gt;Node5</title>
<path fill="none" stroke="midnightblue" d="M674.35,-481.12C747.55,-477.78 864.55,-472.79 965.74,-470 1492.71,-455.48 2812.94,-483.95 3337.74,-434 3545.3,-414.24 3799.74,-561 3799.74,-352.5 3799.74,-352.5 3799.74,-352.5 3799.74,-289 3799.74,-131.31 3261.51,-166.92 3107.74,-132 3023.65,-112.91 2925.67,-90.63 2868.97,-77.74"/>
<polygon fill="midnightblue" stroke="midnightblue" points="2869.74,-74.33 2859.21,-75.52 2868.19,-81.15 2869.74,-74.33"/>
</g>
<!-- Node101&#45;&gt;Node6 -->
<g id="edge113" class="edge">
<title>Node101&#45;&gt;Node6</title>
<path fill="none" stroke="midnightblue" d="M531.18,-481.47C443.55,-476.51 301.48,-463.99 258.74,-434 210.04,-399.84 148.74,-253.55 148.74,-179 148.74,-179 148.74,-179 148.74,-121 148.74,-19.04 268.14,-72.59 368.74,-56 589.05,-19.67 1306.84,-12.41 1471.75,-11.21"/>
<polygon fill="midnightblue" stroke="midnightblue" points="1472.25,-14.71 1482.23,-11.14 1472.2,-7.71 1472.25,-14.71"/>
</g>
<!-- Node101&#45;&gt;Node30 -->
<g id="edge114" class="edge">
<title>Node101&#45;&gt;Node30</title>
<path fill="none" stroke="midnightblue" d="M531.02,-483.25C447.83,-480.13 318.06,-469.52 286.74,-434 192.03,-326.61 192.28,-227.61 276.74,-112 301.9,-77.55 353.74,-68.86 387.06,-67"/>
<polygon fill="midnightblue" stroke="midnightblue" points="387.31,-70.5 397.17,-66.62 387.04,-63.5 387.31,-70.5"/>
</g>
<!-- Node101&#45;&gt;Node24 -->
<g id="edge110" class="edge">
<title>Node101&#45;&gt;Node24</title>
<path fill="none" stroke="midnightblue" d="M531.17,-483.29C441.86,-477.55 300.74,-452.64 300.74,-352.5 300.74,-352.5 300.74,-352.5 300.74,-289 300.74,-149.58 427.78,-157.01 559.74,-112 699.47,-64.33 1167.67,-65.3 1299.77,-66.56"/>
<polygon fill="midnightblue" stroke="midnightblue" points="1300.06,-70.07 1310.1,-66.67 1300.13,-63.07 1300.06,-70.07"/>
</g>
<!-- Node101&#45;&gt;Node42 -->
<g id="edge111" class="edge">
<title>Node101&#45;&gt;Node42</title>
<path fill="none" stroke="midnightblue" d="M619.56,-470.39C637.38,-453.68 661.02,-425.3 645.74,-403 620.68,-366.44 577.79,-403.56 552.74,-367 526.63,-328.9 535.3,-269.09 585.74,-224 626.47,-187.58 1008.22,-140.44 1124.37,-126.83"/>
<polygon fill="midnightblue" stroke="midnightblue" points="1124.92,-130.29 1134.45,-125.65 1124.11,-123.34 1124.92,-130.29"/>
</g>
<!-- Node101&#45;&gt;Node43 -->
<g id="edge112" class="edge">
<title>Node101&#45;&gt;Node43</title>
<path fill="none" stroke="midnightblue" d="M674.35,-481.06C747.55,-477.68 864.54,-472.65 965.74,-470 1125.47,-465.81 3685.21,-466.12 3841.74,-434 3934.56,-414.95 4038.74,-447.25 4038.74,-352.5 4038.74,-352.5 4038.74,-352.5 4038.74,-233 4038.74,-200.91 4036.59,-163.62 4035.11,-141.74"/>
<polygon fill="midnightblue" stroke="midnightblue" points="4038.58,-141.28 4034.39,-131.55 4031.6,-141.77 4038.58,-141.28"/>
</g>
<!-- Node101&#45;&gt;Node46 -->
<g id="edge109" class="edge">
<title>Node101&#45;&gt;Node46</title>
<path fill="none" stroke="midnightblue" d="M674.58,-471.35C741.46,-459.1 839.81,-441.09 901.25,-429.84"/>
<polygon fill="midnightblue" stroke="midnightblue" points="901.95,-433.27 911.15,-428.03 900.69,-426.39 901.95,-433.27"/>
</g>
<!-- Node101&#45;&gt;Node58 -->
<g id="edge108" class="edge">
<title>Node101&#45;&gt;Node58</title>
<path fill="none" stroke="midnightblue" d="M640.39,-470.5C710.32,-444.5 859.11,-389.17 925.08,-364.64"/>
<polygon fill="midnightblue" stroke="midnightblue" points="926.41,-367.88 934.56,-361.12 923.97,-361.32 926.41,-367.88"/>
</g>
<!-- Node102 -->
<g id="node38" class="node">
<title>Node102</title>
<g id="a_node38"><a xlink:href="GraphTraits_8h.html" target="_top" xlink:title="llvm/ADT/GraphTraits.h">
<polygon fill="none" stroke="black" points="3827.74,-224.5 3827.74,-243.5 3947.74,-243.5 3947.74,-224.5 3827.74,-224.5"/>
<text text-anchor="middle" x="3887.74" y="-231.5" font-family="Helvetica,sans-Serif" font-size="10.00">llvm/ADT/GraphTraits.h</text>
</a>
</g>
</g>
<!-- Node101&#45;&gt;Node102 -->
<g id="edge100" class="edge">
<title>Node101&#45;&gt;Node102</title>
<path fill="none" stroke="midnightblue" d="M674.35,-481.06C747.55,-477.68 864.54,-472.66 965.74,-470 1044.83,-467.92 3749.06,-479.56 3813.74,-434 3873.65,-391.79 3885.14,-295.1 3887.28,-254.02"/>
<polygon fill="midnightblue" stroke="midnightblue" points="3890.78,-253.92 3887.67,-243.79 3883.79,-253.65 3890.78,-253.92"/>
</g>
<!-- Node103 -->
<g id="node39" class="node">
<title>Node103</title>
<g id="a_node39"><a xlink:href="ilist_8h.html" target="_top" xlink:title="llvm/ADT/ilist.h">
<polygon fill="none" stroke="red" points="842.74,-112.5 842.74,-131.5 926.74,-131.5 926.74,-112.5 842.74,-112.5"/>
<text text-anchor="middle" x="884.74" y="-119.5" font-family="Helvetica,sans-Serif" font-size="10.00">llvm/ADT/ilist.h</text>
</a>
</g>
</g>
<!-- Node101&#45;&gt;Node103 -->
<g id="edge102" class="edge">
<title>Node101&#45;&gt;Node103</title>
<path fill="none" stroke="midnightblue" d="M531.12,-479.57C466.82,-473.48 379.31,-460.47 357.74,-434 349.03,-423.32 352.88,-415.89 357.74,-403 395.02,-303.96 425.26,-280.5 514.74,-224 592.06,-175.17 624.5,-192.02 712.74,-168 756.51,-156.08 806.73,-143.02 841.55,-134.05"/>
<polygon fill="midnightblue" stroke="midnightblue" points="842.58,-137.4 851.39,-131.52 840.83,-130.62 842.58,-137.4"/>
</g>
<!-- Node108 -->
<g id="node40" class="node">
<title>Node108</title>
<g id="a_node40"><a xlink:href="ilist__node_8h.html" target="_top" xlink:title="llvm/ADT/ilist_node.h">
<polygon fill="none" stroke="red" points="526.74,-409 526.74,-428 636.74,-428 636.74,-409 526.74,-409"/>
<text text-anchor="middle" x="581.74" y="-416" font-family="Helvetica,sans-Serif" font-size="10.00">llvm/ADT/ilist_node.h</text>
</a>
</g>
</g>
<!-- Node101&#45;&gt;Node108 -->
<g id="edge106" class="edge">
<title>Node101&#45;&gt;Node108</title>
<path fill="none" stroke="midnightblue" d="M598.18,-470.4C595.1,-460.86 591,-448.18 587.67,-437.86"/>
<polygon fill="midnightblue" stroke="midnightblue" points="590.95,-436.63 584.55,-428.19 584.29,-438.79 590.95,-436.63"/>
</g>
<!-- Node52 -->
<g id="node41" class="node">
<title>Node52</title>
<polygon fill="none" stroke="#bfbfbf" points="2536.74,-168.5 2536.74,-187.5 2580.74,-187.5 2580.74,-168.5 2536.74,-168.5"/>
<text text-anchor="middle" x="2558.74" y="-175.5" font-family="Helvetica,sans-Serif" font-size="10.00">vector</text>
</g>
<!-- Node101&#45;&gt;Node52 -->
<g id="edge115" class="edge">
<title>Node101&#45;&gt;Node52</title>
<path fill="none" stroke="midnightblue" d="M674.36,-481.31C747.57,-478.13 864.56,-473.26 965.74,-470 1115.82,-465.17 3563.49,-476.04 3666.74,-367 3818.71,-206.51 2891.35,-307.83 2679.74,-244 2641.85,-232.57 2602.23,-208.64 2579.05,-193.22"/>
<polygon fill="midnightblue" stroke="midnightblue" points="2580.97,-190.3 2570.73,-187.58 2577.04,-196.09 2580.97,-190.3"/>
</g>
<!-- Node102&#45;&gt;Node5 -->
<g id="edge101" class="edge">
<title>Node102&#45;&gt;Node5</title>
<path fill="none" stroke="midnightblue" d="M3880.78,-224.24C3869.97,-211 3848.05,-185.54 3825.74,-168 3786.6,-137.23 3776.49,-126.05 3728.74,-112 3571.22,-65.65 3154.72,-84.37 2990.74,-76 2959.76,-74.42 2925.6,-72.61 2896.14,-71.03"/>
<polygon fill="midnightblue" stroke="midnightblue" points="2896.11,-67.53 2885.93,-70.49 2895.73,-74.52 2896.11,-67.53"/>
</g>
<!-- Node103&#45;&gt;Node6 -->
<g id="edge105" class="edge">
<title>Node103&#45;&gt;Node6</title>
<path fill="none" stroke="midnightblue" d="M926.93,-113.53C1043.19,-92.93 1366.5,-35.66 1471.98,-16.98"/>
<polygon fill="midnightblue" stroke="midnightblue" points="1472.83,-20.38 1482.06,-15.19 1471.6,-13.49 1472.83,-20.38"/>
</g>
<!-- Node103&#45;&gt;Node24 -->
<g id="edge103" class="edge">
<title>Node103&#45;&gt;Node24</title>
<path fill="none" stroke="midnightblue" d="M926.9,-114.01C931.57,-113.3 936.25,-112.62 940.74,-112 1072.81,-93.85 1230.51,-77.41 1299.5,-70.48"/>
<polygon fill="midnightblue" stroke="midnightblue" points="1300.19,-73.93 1309.8,-69.45 1299.5,-66.96 1300.19,-73.93"/>
</g>
<!-- Node103&#45;&gt;Node12 -->
<g id="edge104" class="edge">
<title>Node103&#45;&gt;Node12</title>
<path fill="none" stroke="midnightblue" d="M926.98,-119.13C1117.15,-110.69 1892.1,-76.3 2066.69,-68.56"/>
<polygon fill="midnightblue" stroke="midnightblue" points="2067.02,-72.04 2076.85,-68.1 2066.71,-65.05 2067.02,-72.04"/>
</g>
<!-- Node159&#45;&gt;Node9 -->
<g id="edge121" class="edge">
<title>Node159&#45;&gt;Node9</title>
<path fill="none" stroke="midnightblue" d="M1413.5,-280.13C1423.22,-250.55 1458.82,-154.79 1524.74,-112 1551.29,-94.76 1629.54,-82.1 1688.51,-74.67"/>
<polygon fill="midnightblue" stroke="midnightblue" points="1689.04,-78.13 1698.54,-73.44 1688.18,-71.19 1689.04,-78.13"/>
</g>
<!-- Node159&#45;&gt;Node24 -->
<g id="edge122" class="edge">
<title>Node159&#45;&gt;Node24</title>
<path fill="none" stroke="midnightblue" d="M1398.72,-280.39C1378.06,-264.76 1336.54,-229.48 1320.74,-188 1307.55,-153.38 1318.97,-109.49 1327.49,-85.22"/>
<polygon fill="midnightblue" stroke="midnightblue" points="1330.88,-86.14 1331.1,-75.55 1324.32,-83.69 1330.88,-86.14"/>
</g>
<!-- Node159&#45;&gt;Node26 -->
<g id="edge123" class="edge">
<title>Node159&#45;&gt;Node26</title>
<path fill="none" stroke="midnightblue" d="M1418.59,-280.08C1442.07,-253.38 1512,-173.87 1542.38,-139.32"/>
<polygon fill="midnightblue" stroke="midnightblue" points="1545.23,-141.39 1549.2,-131.57 1539.97,-136.77 1545.23,-141.39"/>
</g>
<!-- Node159&#45;&gt;Node36 -->
<g id="edge120" class="edge">
<title>Node159&#45;&gt;Node36</title>
<path fill="none" stroke="midnightblue" d="M1473.63,-281.01C1477.04,-280.65 1480.43,-280.31 1483.74,-280 1732.49,-256.7 1795.4,-260.01 2044.74,-244 2069.09,-242.44 2095.82,-240.72 2119.34,-239.21"/>
<polygon fill="midnightblue" stroke="midnightblue" points="2119.79,-242.68 2129.55,-238.55 2119.34,-235.7 2119.79,-242.68"/>
</g>
<!-- Node100&#45;&gt;Node30 -->
<g id="edge125" class="edge">
<title>Node100&#45;&gt;Node30</title>
<path fill="none" stroke="midnightblue" d="M655.87,-224.37C631.71,-203.48 567.21,-149.17 507.74,-112 488.24,-99.81 465,-88.26 447.02,-79.91"/>
<polygon fill="midnightblue" stroke="midnightblue" points="448.18,-76.6 437.63,-75.62 445.27,-82.96 448.18,-76.6"/>
</g>
<!-- Node100&#45;&gt;Node52 -->
<g id="edge126" class="edge">
<title>Node100&#45;&gt;Node52</title>
<path fill="none" stroke="midnightblue" d="M737.05,-231.43C968.2,-226.28 1717.76,-208.97 2337.74,-188 2404.78,-185.73 2483.24,-182.37 2526.31,-180.46"/>
<polygon fill="midnightblue" stroke="midnightblue" points="2526.63,-183.95 2536.47,-180.01 2526.32,-176.96 2526.63,-183.95"/>
</g>
<!-- Node160&#45;&gt;Node3 -->
<g id="edge165" class="edge">
<title>Node160&#45;&gt;Node3</title>
<path fill="none" stroke="midnightblue" d="M2283.64,-413.77C2154.23,-406.84 1876.42,-390.53 1642.74,-367 1414.4,-344.01 1358.08,-331.37 1130.74,-300 1129.43,-299.82 1128.12,-299.64 1126.79,-299.45"/>
<polygon fill="midnightblue" stroke="midnightblue" points="1126.85,-295.93 1116.45,-298 1125.87,-302.86 1126.85,-295.93"/>
</g>
<!-- Node160&#45;&gt;Node4 -->
<g id="edge151" class="edge">
<title>Node160&#45;&gt;Node4</title>
<path fill="none" stroke="midnightblue" d="M2366.15,-408.94C2389.06,-387.04 2444.03,-327.35 2418.74,-280 2394.49,-234.61 2339.81,-206.05 2303.34,-191.31"/>
<polygon fill="midnightblue" stroke="midnightblue" points="2304.17,-187.87 2293.58,-187.51 2301.63,-194.4 2304.17,-187.87"/>
</g>
<!-- Node160&#45;&gt;Node5 -->
<g id="edge166" class="edge">
<title>Node160&#45;&gt;Node5</title>
<path fill="none" stroke="midnightblue" d="M2430.09,-412.92C2517.45,-406.42 2657.29,-392.38 2702.74,-367 2764.99,-332.24 2778.39,-309.85 2805.74,-244 2828.18,-189.96 2826.15,-118.85 2823.59,-85.62"/>
<polygon fill="midnightblue" stroke="midnightblue" points="2827.07,-85.19 2822.71,-75.54 2820.1,-85.8 2827.07,-85.19"/>
</g>
<!-- Node160&#45;&gt;Node29 -->
<g id="edge167" class="edge">
<title>Node160&#45;&gt;Node29</title>
<path fill="none" stroke="midnightblue" d="M2283.63,-417.88C2055.08,-418.53 1356.24,-416.32 1135.74,-367 936.24,-322.37 725.31,-183.06 660.11,-137.55"/>
<polygon fill="midnightblue" stroke="midnightblue" points="661.76,-134.43 651.57,-131.54 657.73,-140.15 661.76,-134.43"/>
</g>
<!-- Node160&#45;&gt;Node30 -->
<g id="edge187" class="edge">
<title>Node160&#45;&gt;Node30</title>
<path fill="none" stroke="midnightblue" d="M2283.51,-416.86C2025.88,-414.33 1162.07,-403.27 887.74,-367 822.6,-358.39 662.49,-319.48 599.74,-300 534.55,-279.77 509.26,-287.59 456.74,-244 409.15,-204.51 409.32,-173.75 412.74,-112 413.22,-103.36 414.21,-93.83 415.18,-85.77"/>
<polygon fill="midnightblue" stroke="midnightblue" points="418.69,-85.97 416.49,-75.6 411.74,-85.07 418.69,-85.97"/>
</g>
<!-- Node160&#45;&gt;Node24 -->
<g id="edge182" class="edge">
<title>Node160&#45;&gt;Node24</title>
<path fill="none" stroke="midnightblue" d="M2283.47,-416.87C2120.85,-414.78 1717.67,-405.77 1382.74,-367 1341.13,-362.18 1038.6,-332.14 1011.74,-300 986.26,-269.51 925.37,-242.78 1105.74,-112 1136.32,-89.82 1243.86,-76.08 1300.01,-70.25"/>
<polygon fill="midnightblue" stroke="midnightblue" points="1300.6,-73.71 1310.2,-69.22 1299.89,-66.74 1300.6,-73.71"/>
</g>
<!-- Node160&#45;&gt;Node12 -->
<g id="edge184" class="edge">
<title>Node160&#45;&gt;Node12</title>
<path fill="none" stroke="midnightblue" d="M2283.59,-409.8C2249.82,-403.09 2211.05,-390.52 2182.74,-367 2135.65,-327.88 2138.06,-302.72 2120.74,-244 2104.3,-188.3 2101.76,-119 2101.57,-86.08"/>
<polygon fill="midnightblue" stroke="midnightblue" points="2105.07,-85.69 2101.58,-75.69 2098.07,-85.68 2105.07,-85.69"/>
</g>
<!-- Node160&#45;&gt;Node33 -->
<g id="edge186" class="edge">
<title>Node160&#45;&gt;Node33</title>
<path fill="none" stroke="midnightblue" d="M2379.36,-408.91C2399.94,-400.37 2430.43,-385.82 2452.74,-367 2529.3,-302.39 2557.59,-282.89 2589.74,-188 2592.59,-179.58 2594.79,-175.31 2589.74,-168 2580.85,-155.14 2545.43,-142.75 2515.53,-134.24"/>
<polygon fill="midnightblue" stroke="midnightblue" points="2516.21,-130.8 2505.64,-131.5 2514.35,-137.54 2516.21,-130.8"/>
</g>
<!-- Node160&#45;&gt;Node21 -->
<g id="edge188" class="edge">
<title>Node160&#45;&gt;Node21</title>
<path fill="none" stroke="midnightblue" d="M2429.92,-417.61C2662.72,-416.85 3382.71,-405.82 3585.74,-300 3672.69,-254.68 3694.88,-224.02 3728.74,-132 3731.81,-123.66 3734.82,-118.48 3728.74,-112 3706.18,-87.94 3218.95,-72.3 3072.2,-68.12"/>
<polygon fill="midnightblue" stroke="midnightblue" points="3071.93,-64.61 3061.83,-67.83 3071.73,-71.61 3071.93,-64.61"/>
</g>
<!-- Node160&#45;&gt;Node36 -->
<g id="edge164" class="edge">
<title>Node160&#45;&gt;Node36</title>
<path fill="none" stroke="midnightblue" d="M2283.58,-410.62C2253.87,-404.01 2221.87,-391.3 2201.74,-367 2174.92,-334.63 2177.63,-281.6 2181.45,-253.63"/>
<polygon fill="midnightblue" stroke="midnightblue" points="2184.93,-254.03 2183.01,-243.61 2178.01,-252.95 2184.93,-254.03"/>
</g>
<!-- Node160&#45;&gt;Node37 -->
<g id="edge142" class="edge">
<title>Node160&#45;&gt;Node37</title>
<path fill="none" stroke="midnightblue" d="M2430.04,-414.06C2556.97,-407.48 2807.21,-391.56 2838.74,-367 2892.68,-324.99 2904.46,-236.58 2907.03,-197.85"/>
<polygon fill="midnightblue" stroke="midnightblue" points="2910.54,-197.7 2907.57,-187.53 2903.55,-197.34 2910.54,-197.7"/>
</g>
<!-- Node160&#45;&gt;Node38 -->
<g id="edge141" class="edge">
<title>Node160&#45;&gt;Node38</title>
<path fill="none" stroke="midnightblue" d="M2430.06,-417.45C2699.79,-416.91 3623.64,-411.79 3666.74,-367 3726.83,-304.55 3690.87,-186.07 3674.01,-141.01"/>
<polygon fill="midnightblue" stroke="midnightblue" points="3677.26,-139.71 3670.38,-131.65 3670.73,-142.24 3677.26,-139.71"/>
</g>
<!-- Node160&#45;&gt;Node39 -->
<g id="edge140" class="edge">
<title>Node160&#45;&gt;Node39</title>
<path fill="none" stroke="midnightblue" d="M2430.04,-416.52C2700.42,-412.67 3632.8,-397.32 3762.74,-367 3931.11,-327.71 4014.02,-294.62 4072.74,-132 4075.76,-123.64 4078.26,-118.96 4072.74,-112 4055.93,-90.82 3987.01,-78.69 3936.3,-72.47"/>
<polygon fill="midnightblue" stroke="midnightblue" points="3936.45,-68.97 3926.11,-71.27 3935.63,-75.92 3936.45,-68.97"/>
</g>
<!-- Node160&#45;&gt;Node43 -->
<g id="edge185" class="edge">
<title>Node160&#45;&gt;Node43</title>
<path fill="none" stroke="midnightblue" d="M2429.86,-416.41C2690.95,-412.3 3568.19,-396.4 3690.74,-367 3817.39,-336.61 3858.69,-329.75 3956.74,-244 3990.34,-214.61 4014.65,-167.03 4026.19,-141.16"/>
<polygon fill="midnightblue" stroke="midnightblue" points="4029.48,-142.38 4030.23,-131.81 4023.05,-139.6 4029.48,-142.38"/>
</g>
<!-- Node160&#45;&gt;Node62 -->
<g id="edge181" class="edge">
<title>Node160&#45;&gt;Node62</title>
<path fill="none" stroke="midnightblue" d="M2283.61,-415C2140.16,-409.56 1826.74,-394.83 1722.74,-367 1670.73,-353.08 1615.04,-322.66 1585.01,-304.82"/>
<polygon fill="midnightblue" stroke="midnightblue" points="1586.57,-301.67 1576.2,-299.5 1582.96,-307.66 1586.57,-301.67"/>
</g>
<!-- Node160&#45;&gt;Node52 -->
<g id="edge189" class="edge">
<title>Node160&#45;&gt;Node52</title>
<path fill="none" stroke="midnightblue" d="M2370.37,-409C2384.74,-399.67 2407.63,-383.79 2424.74,-367 2480.46,-312.32 2528.96,-232.02 2548.97,-196.73"/>
<polygon fill="midnightblue" stroke="midnightblue" points="2552.21,-198.11 2554.04,-187.67 2546.11,-194.69 2552.21,-198.11"/>
</g>
<!-- Node49 -->
<g id="node45" class="node">
<title>Node49</title>
<g id="a_node45"><a xlink:href="ArrayRef_8h.html" target="_top" xlink:title="llvm/ADT/ArrayRef.h">
<polygon fill="none" stroke="red" points="2688.74,-224.5 2688.74,-243.5 2796.74,-243.5 2796.74,-224.5 2688.74,-224.5"/>
<text text-anchor="middle" x="2742.74" y="-231.5" font-family="Helvetica,sans-Serif" font-size="10.00">llvm/ADT/ArrayRef.h</text>
</a>
</g>
</g>
<!-- Node160&#45;&gt;Node49 -->
<g id="edge128" class="edge">
<title>Node160&#45;&gt;Node49</title>
<path fill="none" stroke="midnightblue" d="M2429.78,-413.48C2511.26,-407.71 2636.64,-394.56 2674.74,-367 2713.27,-339.12 2731.58,-282.86 2738.81,-253.61"/>
<polygon fill="midnightblue" stroke="midnightblue" points="2742.3,-254.05 2741.12,-243.52 2735.47,-252.49 2742.3,-254.05"/>
</g>
<!-- Node77 -->
<g id="node46" class="node">
<title>Node77</title>
<g id="a_node46"><a xlink:href="SmallPtrSet_8h.html" target="_top" xlink:title="llvm/ADT/SmallPtrSet.h">
<polygon fill="none" stroke="red" points="1742.74,-168.5 1742.74,-187.5 1864.74,-187.5 1864.74,-168.5 1742.74,-168.5"/>
<text text-anchor="middle" x="1803.74" y="-175.5" font-family="Helvetica,sans-Serif" font-size="10.00">llvm/ADT/SmallPtrSet.h</text>
</a>
</g>
</g>
<!-- Node160&#45;&gt;Node77 -->
<g id="edge143" class="edge">
<title>Node160&#45;&gt;Node77</title>
<path fill="none" stroke="midnightblue" d="M2283.68,-416.85C2215.76,-413.82 2113.1,-402.91 2031.74,-367 1937.44,-325.38 1850.74,-233.31 1817.78,-195.6"/>
<polygon fill="midnightblue" stroke="midnightblue" points="1820.09,-192.92 1810.91,-187.63 1814.79,-197.49 1820.09,-192.92"/>
</g>
<!-- Node88 -->
<g id="node47" class="node">
<title>Node88</title>
<g id="a_node47"><a xlink:href="StringMap_8h.html" target="_top" xlink:title="llvm/ADT/StringMap.h">
<polygon fill="none" stroke="red" points="2296.24,-280.5 2296.24,-299.5 2409.24,-299.5 2409.24,-280.5 2296.24,-280.5"/>
<text text-anchor="middle" x="2352.74" y="-287.5" font-family="Helvetica,sans-Serif" font-size="10.00">llvm/ADT/StringMap.h</text>
</a>
</g>
</g>
<!-- Node160&#45;&gt;Node88 -->
<g id="edge152" class="edge">
<title>Node160&#45;&gt;Node88</title>
<path fill="none" stroke="midnightblue" d="M2356.46,-408.81C2355.82,-388.49 2354.21,-337.55 2353.33,-309.78"/>
<polygon fill="midnightblue" stroke="midnightblue" points="2356.83,-309.64 2353.01,-299.76 2349.83,-309.86 2356.83,-309.64"/>
</g>
<!-- Node161 -->
<g id="node48" class="node">
<title>Node161</title>
<g id="a_node48"><a xlink:href="ManagedStatic_8h.html" target="_top" xlink:title="llvm/Support/ManagedStatic.h">
<polygon fill="none" stroke="red" points="1887.74,-224.5 1887.74,-243.5 2035.74,-243.5 2035.74,-224.5 1887.74,-224.5"/>
<text text-anchor="middle" x="1961.74" y="-231.5" font-family="Helvetica,sans-Serif" font-size="10.00">llvm/Support/ManagedStatic.h</text>
</a>
</g>
</g>
<!-- Node160&#45;&gt;Node161 -->
<g id="edge168" class="edge">
<title>Node160&#45;&gt;Node161</title>
<path fill="none" stroke="midnightblue" d="M2283.41,-410.02C2212.06,-401.74 2109.48,-386.89 2074.74,-367 2025.79,-338.98 1988.07,-281.48 1971.28,-252.51"/>
<polygon fill="midnightblue" stroke="midnightblue" points="1974.19,-250.54 1966.23,-243.55 1968.09,-253.98 1974.19,-250.54"/>
</g>
<!-- Node163 -->
<g id="node49" class="node">
<title>Node163</title>
<g id="a_node49"><a xlink:href="VirtualFileSystem_8h.html" target="_top" xlink:title="Defines the virtual file system interface vfs::FileSystem. ">
<polygon fill="none" stroke="red" points="2210.74,-336.5 2210.74,-366.5 2328.74,-366.5 2328.74,-336.5 2210.74,-336.5"/>
<text text-anchor="start" x="2218.74" y="-354.5" font-family="Helvetica,sans-Serif" font-size="10.00">llvm/Support/VirtualFile</text>
<text text-anchor="middle" x="2269.74" y="-343.5" font-family="Helvetica,sans-Serif" font-size="10.00">System.h</text>
</a>
</g>
</g>
<!-- Node160&#45;&gt;Node163 -->
<g id="edge170" class="edge">
<title>Node160&#45;&gt;Node163</title>
<path fill="none" stroke="midnightblue" d="M2345,-408.73C2332.68,-399.53 2312.88,-384.73 2296.68,-372.63"/>
<polygon fill="midnightblue" stroke="midnightblue" points="2298.7,-369.77 2288.59,-366.59 2294.51,-375.38 2298.7,-369.77"/>
</g>
<!-- Node25 -->
<g id="node50" class="node">
<title>Node25</title>
<polygon fill="none" stroke="#bfbfbf" points="3612.24,-342 3612.24,-361 3657.24,-361 3657.24,-342 3612.24,-342"/>
<text text-anchor="middle" x="3634.74" y="-349" font-family="Helvetica,sans-Serif" font-size="10.00">climits</text>
</g>
<!-- Node160&#45;&gt;Node25 -->
<g id="edge183" class="edge">
<title>Node160&#45;&gt;Node25</title>
<path fill="none" stroke="midnightblue" d="M2429.77,-417.7C2660.62,-417.83 3372.6,-414.3 3597.74,-367 3600.75,-366.37 3603.83,-365.52 3606.87,-364.54"/>
<polygon fill="midnightblue" stroke="midnightblue" points="3608.08,-367.82 3616.29,-361.12 3605.69,-361.24 3608.08,-367.82"/>
</g>
<!-- Node49&#45;&gt;Node4 -->
<g id="edge130" class="edge">
<title>Node49&#45;&gt;Node4</title>
<path fill="none" stroke="midnightblue" d="M2688.71,-226.86C2602.73,-217.08 2434.71,-197.98 2338.98,-187.1"/>
<polygon fill="midnightblue" stroke="midnightblue" points="2339.15,-183.6 2328.81,-185.94 2338.36,-190.55 2339.15,-183.6"/>
</g>
<!-- Node49&#45;&gt;Node6 -->
<g id="edge137" class="edge">
<title>Node49&#45;&gt;Node6</title>
<path fill="none" stroke="midnightblue" d="M2741.58,-224.29C2739.48,-211.1 2734.06,-185.72 2721.74,-168 2698.79,-135.01 2687.88,-127.35 2650.74,-112 2441.86,-25.65 1706.11,-13.04 1539.47,-11.27"/>
<polygon fill="midnightblue" stroke="midnightblue" points="1539.36,-7.77 1529.33,-11.17 1539.29,-14.77 1539.36,-7.77"/>
</g>
<!-- Node49&#45;&gt;Node9 -->
<g id="edge132" class="edge">
<title>Node49&#45;&gt;Node9</title>
<path fill="none" stroke="midnightblue" d="M2733.38,-224.28C2718.29,-210.62 2687.19,-184.08 2656.74,-168 2612.37,-144.57 2595.25,-153.13 2549.74,-132 2534.18,-124.78 2533.11,-117.1 2516.74,-112 2452.42,-91.96 2007.07,-75.2 1831.07,-69.28"/>
<polygon fill="midnightblue" stroke="midnightblue" points="1830.99,-65.78 1820.88,-68.94 1830.76,-72.78 1830.99,-65.78"/>
</g>
<!-- Node49&#45;&gt;Node23 -->
<g id="edge133" class="edge">
<title>Node49&#45;&gt;Node23</title>
<path fill="none" stroke="midnightblue" d="M2796.79,-229.32C2954.48,-218.03 3405.49,-181.64 3447.74,-132 3462.42,-114.74 3439.61,-94.24 3419.73,-80.94"/>
<polygon fill="midnightblue" stroke="midnightblue" points="3421.54,-77.95 3411.22,-75.55 3417.79,-83.86 3421.54,-77.95"/>
</g>
<!-- Node49&#45;&gt;Node24 -->
<g id="edge134" class="edge">
<title>Node49&#45;&gt;Node24</title>
<path fill="none" stroke="midnightblue" d="M2688.42,-231.9C2492.12,-227.75 1826.18,-212.01 1733.74,-188 1733.63,-187.97 1621.83,-132.05 1621.74,-132 1606.72,-123.71 1604.79,-118.04 1588.74,-112 1513.77,-83.77 1419.56,-73.02 1369.59,-69.11"/>
<polygon fill="midnightblue" stroke="midnightblue" points="1369.57,-65.59 1359.34,-68.35 1369.05,-72.58 1369.57,-65.59"/>
</g>
<!-- Node49&#45;&gt;Node12 -->
<g id="edge135" class="edge">
<title>Node49&#45;&gt;Node12</title>
<path fill="none" stroke="midnightblue" d="M2738.98,-224.08C2732.68,-210.13 2718.67,-183.21 2698.74,-168 2659.18,-137.83 2638.92,-150.52 2592.74,-132 2573.17,-124.16 2570.06,-117.58 2549.74,-112 2399.98,-70.92 2212.87,-66.5 2136.56,-66.58"/>
<polygon fill="midnightblue" stroke="midnightblue" points="2136.53,-63.08 2126.54,-66.62 2136.56,-70.08 2136.53,-63.08"/>
</g>
<!-- Node49&#45;&gt;Node33 -->
<g id="edge136" class="edge">
<title>Node49&#45;&gt;Node33</title>
<path fill="none" stroke="midnightblue" d="M2729.16,-224.42C2707.39,-210.95 2663.02,-184.66 2622.74,-168 2588.35,-153.78 2547.88,-142.03 2517.35,-134.1"/>
<polygon fill="midnightblue" stroke="midnightblue" points="2517.96,-130.64 2507.4,-131.56 2516.23,-137.43 2517.96,-130.64"/>
</g>
<!-- Node49&#45;&gt;Node21 -->
<g id="edge138" class="edge">
<title>Node49&#45;&gt;Node21</title>
<path fill="none" stroke="midnightblue" d="M2797.04,-232.23C2870.63,-229.94 2996.26,-221.12 3025.74,-188 3050.81,-159.83 3043.2,-111.73 3036.4,-85.46"/>
<polygon fill="midnightblue" stroke="midnightblue" points="3039.72,-84.33 3033.63,-75.66 3032.98,-86.23 3039.72,-84.33"/>
</g>
<!-- Node49&#45;&gt;Node37 -->
<g id="edge131" class="edge">
<title>Node49&#45;&gt;Node37</title>
<path fill="none" stroke="midnightblue" d="M2768.88,-224.44C2796.76,-215.32 2841.09,-200.81 2872.14,-190.65"/>
<polygon fill="midnightblue" stroke="midnightblue" points="2873.3,-193.95 2881.71,-187.52 2871.12,-187.3 2873.3,-193.95"/>
</g>
<!-- Node49&#45;&gt;Node39 -->
<g id="edge129" class="edge">
<title>Node49&#45;&gt;Node39</title>
<path fill="none" stroke="midnightblue" d="M2796.78,-233.66C2947.34,-234.2 3383.15,-226.79 3728.74,-132 3774.98,-119.32 3825.56,-95.28 3854.87,-80.26"/>
<polygon fill="midnightblue" stroke="midnightblue" points="3856.7,-83.26 3863.96,-75.54 3853.47,-77.05 3856.7,-83.26"/>
</g>
<!-- Node49&#45;&gt;Node52 -->
<g id="edge139" class="edge">
<title>Node49&#45;&gt;Node52</title>
<path fill="none" stroke="midnightblue" d="M2713.58,-224.44C2680.01,-214.59 2625.05,-198.46 2590.44,-188.3"/>
<polygon fill="midnightblue" stroke="midnightblue" points="2591.41,-184.94 2580.83,-185.48 2589.44,-191.66 2591.41,-184.94"/>
</g>
<!-- Node77&#45;&gt;Node6 -->
<g id="edge149" class="edge">
<title>Node77&#45;&gt;Node6</title>
<path fill="none" stroke="midnightblue" d="M1742.5,-175.38C1527.21,-169.56 817.08,-149.1 800.74,-132 777.39,-107.59 777.63,-80.63 800.74,-56 823.95,-31.26 1333.67,-15.67 1471.59,-11.89"/>
<polygon fill="midnightblue" stroke="midnightblue" points="1472.06,-15.38 1481.96,-11.61 1471.87,-8.39 1472.06,-15.38"/>
</g>
<!-- Node77&#45;&gt;Node7 -->
<g id="edge150" class="edge">
<title>Node77&#45;&gt;Node7</title>
<path fill="none" stroke="midnightblue" d="M1864.8,-172.78C1890.95,-171.09 1921.83,-169.25 1949.74,-168 2091.32,-161.64 3090.86,-178.5 3224.74,-132 3251.44,-122.73 3301.54,-68.82 3326.74,-56 3364.35,-36.86 3411.64,-24.06 3441.78,-17.15"/>
<polygon fill="midnightblue" stroke="midnightblue" points="3442.68,-20.54 3451.69,-14.96 3441.17,-13.71 3442.68,-20.54"/>
</g>
<!-- Node77&#45;&gt;Node9 -->
<g id="edge144" class="edge">
<title>Node77&#45;&gt;Node9</title>
<path fill="none" stroke="midnightblue" d="M1785.35,-168.47C1771.64,-161 1753.92,-148.71 1745.74,-132 1738.45,-117.13 1743.73,-98.52 1749.77,-85.02"/>
<polygon fill="midnightblue" stroke="midnightblue" points="1753.02,-86.36 1754.35,-75.85 1746.75,-83.24 1753.02,-86.36"/>
</g>
<!-- Node77&#45;&gt;Node24 -->
<g id="edge145" class="edge">
<title>Node77&#45;&gt;Node24</title>
<path fill="none" stroke="midnightblue" d="M1783.65,-168.42C1750.52,-154.59 1682.05,-127.35 1621.74,-112 1532.16,-89.2 1423.74,-75.98 1369.37,-70.31"/>
<polygon fill="midnightblue" stroke="midnightblue" points="1369.54,-66.81 1359.24,-69.28 1368.83,-73.77 1369.54,-66.81"/>
</g>
<!-- Node77&#45;&gt;Node12 -->
<g id="edge146" class="edge">
<title>Node77&#45;&gt;Node12</title>
<path fill="none" stroke="midnightblue" d="M1808.62,-168.18C1817.04,-153.86 1835.72,-125.81 1859.74,-112 1925.83,-74 2017.34,-67.11 2066.74,-66.42"/>
<polygon fill="midnightblue" stroke="midnightblue" points="2066.92,-69.92 2076.9,-66.36 2066.88,-62.92 2066.92,-69.92"/>
</g>
<!-- Node77&#45;&gt;Node26 -->
<g id="edge147" class="edge">
<title>Node77&#45;&gt;Node26</title>
<path fill="none" stroke="midnightblue" d="M1764.6,-168.44C1716.26,-157.88 1634.91,-140.09 1589.64,-130.19"/>
<polygon fill="midnightblue" stroke="midnightblue" points="1590.27,-126.75 1579.75,-128.03 1588.77,-133.59 1590.27,-126.75"/>
</g>
<!-- Node77&#45;&gt;Node33 -->
<g id="edge148" class="edge">
<title>Node77&#45;&gt;Node33</title>
<path fill="none" stroke="midnightblue" d="M1864.99,-172.04C1997.07,-161.35 2306.22,-136.32 2424.02,-126.78"/>
<polygon fill="midnightblue" stroke="midnightblue" points="2424.47,-130.26 2434.15,-125.96 2423.9,-123.28 2424.47,-130.26"/>
</g>
<!-- Node88&#45;&gt;Node5 -->
<g id="edge155" class="edge">
<title>Node88&#45;&gt;Node5</title>
<path fill="none" stroke="midnightblue" d="M2353.36,-280.15C2355.97,-250.63 2368.69,-155.04 2425.74,-112 2474.87,-74.93 2646.93,-67.65 2747.36,-66.66"/>
<polygon fill="midnightblue" stroke="midnightblue" points="2747.47,-70.16 2757.44,-66.58 2747.42,-63.16 2747.47,-70.16"/>
</g>
<!-- Node88&#45;&gt;Node6 -->
<g id="edge162" class="edge">
<title>Node88&#45;&gt;Node6</title>
<path fill="none" stroke="midnightblue" d="M2295.93,-285.73C2206.71,-280.11 2028.46,-266.97 1878.74,-244 1819.67,-234.94 1671.21,-210.2 1615.74,-188 1571.65,-170.35 1551.06,-171.53 1524.74,-132 1503.99,-100.84 1502.79,-55.32 1504.07,-29.92"/>
<polygon fill="midnightblue" stroke="midnightblue" points="1507.57,-30.01 1504.77,-19.79 1500.59,-29.53 1507.57,-30.01"/>
</g>
<!-- Node88&#45;&gt;Node7 -->
<g id="edge163" class="edge">
<title>Node88&#45;&gt;Node7</title>
<path fill="none" stroke="midnightblue" d="M2409.41,-289.71C2551.91,-290.74 2936.35,-288.76 3252.74,-244 3360.33,-228.78 3661.27,-217.19 3728.74,-132 3792.47,-51.53 3582.65,-21.92 3501.99,-13.67"/>
<polygon fill="midnightblue" stroke="midnightblue" points="3502.24,-10.17 3491.95,-12.68 3501.56,-17.14 3502.24,-10.17"/>
</g>
<!-- Node88&#45;&gt;Node29 -->
<g id="edge156" class="edge">
<title>Node88&#45;&gt;Node29</title>
<path fill="none" stroke="midnightblue" d="M2296.06,-287.8C2157.91,-284.48 1792.87,-273.42 1489.74,-244 1191.21,-215.03 836.85,-156.85 698.85,-133.27"/>
<polygon fill="midnightblue" stroke="midnightblue" points="699.34,-129.81 688.9,-131.57 698.16,-136.71 699.34,-129.81"/>
</g>
<!-- Node88&#45;&gt;Node23 -->
<g id="edge157" class="edge">
<title>Node88&#45;&gt;Node23</title>
<path fill="none" stroke="midnightblue" d="M2409.43,-286.31C2587.19,-277.8 3124.05,-251.62 3160.74,-244 3301.31,-214.79 3381.68,-249.81 3463.74,-132 3478.07,-111.41 3450.72,-92.13 3426.55,-80"/>
<polygon fill="midnightblue" stroke="midnightblue" points="3427.73,-76.68 3417.2,-75.56 3424.73,-83.01 3427.73,-76.68"/>
</g>
<!-- Node88&#45;&gt;Node24 -->
<g id="edge158" class="edge">
<title>Node88&#45;&gt;Node24</title>
<path fill="none" stroke="midnightblue" d="M2295.86,-288.48C2162.5,-285.85 1820.47,-270.85 1549.74,-188 1488.8,-169.35 1472.63,-164.37 1417.74,-132 1393.3,-117.59 1368.03,-96.81 1351.89,-82.64"/>
<polygon fill="midnightblue" stroke="midnightblue" points="1354.13,-79.95 1344.34,-75.91 1349.48,-85.18 1354.13,-79.95"/>
</g>
<!-- Node88&#45;&gt;Node26 -->
<g id="edge160" class="edge">
<title>Node88&#45;&gt;Node26</title>
<path fill="none" stroke="midnightblue" d="M2342.69,-280.28C2325.06,-265.58 2286.83,-236.29 2248.74,-224 2016.45,-149.05 1937.54,-247.16 1700.74,-188 1699.22,-187.62 1626.41,-154.63 1584.92,-135.8"/>
<polygon fill="midnightblue" stroke="midnightblue" points="1586.15,-132.51 1575.6,-131.57 1583.26,-138.89 1586.15,-132.51"/>
</g>
<!-- Node88&#45;&gt;Node33 -->
<g id="edge161" class="edge">
<title>Node88&#45;&gt;Node33</title>
<path fill="none" stroke="midnightblue" d="M2365.66,-280.31C2377.64,-271.88 2395.55,-258.3 2408.74,-244 2429.13,-221.89 2432.98,-214.75 2446.74,-188 2454.47,-172.96 2460.95,-154.83 2465.22,-141.54"/>
<polygon fill="midnightblue" stroke="midnightblue" points="2468.65,-142.28 2468.27,-131.69 2461.97,-140.21 2468.65,-142.28"/>
</g>
<!-- Node88&#45;&gt;Node36 -->
<g id="edge153" class="edge">
<title>Node88&#45;&gt;Node36</title>
<path fill="none" stroke="midnightblue" d="M2326.12,-280.44C2297.73,-271.32 2252.6,-256.81 2220.98,-246.65"/>
<polygon fill="midnightblue" stroke="midnightblue" points="2221.82,-243.24 2211.23,-243.52 2219.68,-249.91 2221.82,-243.24"/>
</g>
<!-- Node88&#45;&gt;Node40 -->
<g id="edge154" class="edge">
<title>Node88&#45;&gt;Node40</title>
<path fill="none" stroke="midnightblue" d="M2409.46,-286.67C2587.75,-279.24 3125.87,-255.88 3139.74,-244 3169.16,-218.81 3170.04,-169.11 3167.98,-141.9"/>
<polygon fill="midnightblue" stroke="midnightblue" points="3171.45,-141.36 3167,-131.75 3164.48,-142.04 3171.45,-141.36"/>
</g>
<!-- Node88&#45;&gt;Node42 -->
<g id="edge159" class="edge">
<title>Node88&#45;&gt;Node42</title>
<path fill="none" stroke="midnightblue" d="M2296.05,-289.84C2168.41,-290.81 1849.14,-288.18 1586.74,-244 1435.81,-218.59 1262.04,-160.22 1190.8,-134.99"/>
<polygon fill="midnightblue" stroke="midnightblue" points="1191.64,-131.57 1181.05,-131.51 1189.29,-138.17 1191.64,-131.57"/>
</g>
<!-- Node161&#45;&gt;Node12 -->
<g id="edge169" class="edge">
<title>Node161&#45;&gt;Node12</title>
<path fill="none" stroke="midnightblue" d="M2024.33,-224.42C2046.63,-218.08 2069.68,-207.08 2083.74,-188 2103.8,-160.77 2081.78,-145.3 2087.74,-112 2089.34,-103.04 2092.19,-93.37 2094.91,-85.3"/>
<polygon fill="midnightblue" stroke="midnightblue" points="2098.23,-86.4 2098.28,-75.8 2091.64,-84.05 2098.23,-86.4"/>
</g>
<!-- Node163&#45;&gt;Node3 -->
<g id="edge175" class="edge">
<title>Node163&#45;&gt;Node3</title>
<path fill="none" stroke="midnightblue" d="M2210.61,-349.96C2041.73,-347.96 1542.84,-338.95 1130.74,-300 1129.43,-299.88 1128.1,-299.74 1126.77,-299.6"/>
<polygon fill="midnightblue" stroke="midnightblue" points="1126.74,-296.08 1116.41,-298.41 1125.94,-303.03 1126.74,-296.08"/>
</g>
<!-- Node163&#45;&gt;Node4 -->
<g id="edge173" class="edge">
<title>Node163&#45;&gt;Node4</title>
<path fill="none" stroke="midnightblue" d="M2269.57,-336.47C2269.21,-305.7 2268.36,-232.33 2267.96,-197.7"/>
<polygon fill="midnightblue" stroke="midnightblue" points="2271.45,-197.52 2267.84,-187.56 2264.45,-197.6 2271.45,-197.52"/>
</g>
<!-- Node163&#45;&gt;Node7 -->
<g id="edge179" class="edge">
<title>Node163&#45;&gt;Node7</title>
<path fill="none" stroke="midnightblue" d="M2329.01,-348.42C2461.77,-343.39 2792.95,-328.83 3068.74,-300 3239.84,-282.11 3282.53,-275.05 3451.74,-244 3565.01,-223.21 3595.99,-225.92 3704.74,-188 3812.1,-150.57 3874.46,-172.4 3934.74,-76 3939.45,-68.46 3940.71,-62.58 3934.74,-56 3905.64,-23.94 3600.36,-14.01 3502.05,-11.64"/>
<polygon fill="midnightblue" stroke="midnightblue" points="3501.98,-8.13 3491.9,-11.4 3501.81,-15.13 3501.98,-8.13"/>
</g>
<!-- Node163&#45;&gt;Node30 -->
<g id="edge178" class="edge">
<title>Node163&#45;&gt;Node30</title>
<path fill="none" stroke="midnightblue" d="M2210.41,-350.25C1962.8,-348.95 1010.89,-341.33 713.74,-300 662.7,-292.9 533.23,-269.98 488.74,-244 437.84,-214.29 426.86,-190.23 417.74,-132 415.33,-116.65 415.51,-99.01 416.19,-85.99"/>
<polygon fill="midnightblue" stroke="midnightblue" points="419.69,-86.11 416.87,-75.9 412.71,-85.64 419.69,-86.11"/>
</g>
<!-- Node163&#45;&gt;Node24 -->
<g id="edge176" class="edge">
<title>Node163&#45;&gt;Node24</title>
<path fill="none" stroke="midnightblue" d="M2210.41,-349.23C2010.51,-344.7 1372.17,-328.07 1338.74,-300 1274.14,-245.76 1293.72,-194.18 1312.74,-112 1314.97,-102.36 1319.56,-92.41 1323.97,-84.31"/>
<polygon fill="midnightblue" stroke="midnightblue" points="1327.09,-85.92 1329.1,-75.52 1321.04,-82.4 1327.09,-85.92"/>
</g>
<!-- Node163&#45;&gt;Node36 -->
<g id="edge174" class="edge">
<title>Node163&#45;&gt;Node36</title>
<path fill="none" stroke="midnightblue" d="M2259.31,-336.34C2243.58,-314.96 2213.83,-274.53 2197.05,-251.73"/>
<polygon fill="midnightblue" stroke="midnightblue" points="2199.86,-249.65 2191.12,-243.67 2194.23,-253.8 2199.86,-249.65"/>
</g>
<!-- Node163&#45;&gt;Node38 -->
<g id="edge172" class="edge">
<title>Node163&#45;&gt;Node38</title>
<path fill="none" stroke="midnightblue" d="M2329.01,-347.73C2482.8,-339.75 2906.74,-312.75 3252.74,-244 3396.94,-215.35 3563.48,-159.47 3633.26,-134.98"/>
<polygon fill="midnightblue" stroke="midnightblue" points="3634.58,-138.23 3642.84,-131.6 3632.25,-131.63 3634.58,-138.23"/>
</g>
<!-- Node163&#45;&gt;Node39 -->
<g id="edge171" class="edge">
<title>Node163&#45;&gt;Node39</title>
<path fill="none" stroke="midnightblue" d="M2328.91,-347.77C2450.39,-341.83 2736.62,-326.13 2975.74,-300 3145.44,-281.45 3187.26,-271.53 3355.74,-244 3494.78,-221.28 3534.91,-234.96 3667.74,-188 3743.61,-161.17 3823.58,-107.56 3859.81,-81.67"/>
<polygon fill="midnightblue" stroke="midnightblue" points="3862,-84.41 3868.05,-75.71 3857.9,-78.73 3862,-84.41"/>
</g>
<!-- Node163&#45;&gt;Node42 -->
<g id="edge177" class="edge">
<title>Node163&#45;&gt;Node42</title>
<path fill="none" stroke="midnightblue" d="M2210.49,-349.95C1987.05,-347.6 1206.12,-336.78 1168.74,-300 1125.98,-257.93 1141.93,-177.36 1152,-141.27"/>
<polygon fill="midnightblue" stroke="midnightblue" points="1155.38,-142.18 1154.86,-131.59 1148.67,-140.19 1155.38,-142.18"/>
</g>
<!-- Node163&#45;&gt;Node52 -->
<g id="edge180" class="edge">
<title>Node163&#45;&gt;Node52</title>
<path fill="none" stroke="midnightblue" d="M2327.84,-336.46C2356.35,-328.19 2390.53,-316.14 2418.74,-300 2470.32,-270.49 2520.45,-220.45 2544.3,-194.96"/>
<polygon fill="midnightblue" stroke="midnightblue" points="2546.88,-197.32 2551.09,-187.6 2541.73,-192.58 2546.88,-197.32"/>
</g>
</g>
</svg>
