<?xml version="1.0" encoding="UTF-8" standalone="no"?>
<!DOCTYPE svg PUBLIC "-//W3C//DTD SVG 1.1//EN"
 "http://www.w3.org/Graphics/SVG/1.1/DTD/svg11.dtd">
<!-- Generated by graphviz version 2.43.0 (0)
 -->
<!-- Title: lib/Target/Mips/MCTargetDesc/MipsMCCodeEmitter.h Pages: 1 -->
<svg width="208pt" height="95pt"
 viewBox="0.00 0.00 207.50 95.00" xmlns="http://www.w3.org/2000/svg" xmlns:xlink="http://www.w3.org/1999/xlink">
<g id="graph0" class="graph" transform="scale(1 1) rotate(0) translate(4 91)">
<title>lib/Target/Mips/MCTargetDesc/MipsMCCodeEmitter.h</title>
<!-- Node0 -->
<g id="node1" class="node">
<title>Node0</title>
<polygon fill="#bfbfbf" stroke="black" points="50,-56.5 50,-86.5 193,-86.5 193,-56.5 50,-56.5"/>
<text text-anchor="start" x="58" y="-74.5" font-family="Helvetica,sans-Serif" font-size="10.00">lib/Target/Mips/MCTarget</text>
<text text-anchor="middle" x="121.5" y="-63.5" font-family="Helvetica,sans-Serif" font-size="10.00">Desc/MipsMCCodeEmitter.h</text>
</g>
<!-- Node1 -->
<g id="node2" class="node">
<title>Node1</title>
<g id="a_node2"><a xlink:href="MCCodeEmitter_8h.html" target="_top" xlink:title="llvm/MC/MCCodeEmitter.h">
<polygon fill="none" stroke="black" points="0,-0.5 0,-19.5 135,-19.5 135,-0.5 0,-0.5"/>
<text text-anchor="middle" x="67.5" y="-7.5" font-family="Helvetica,sans-Serif" font-size="10.00">llvm/MC/MCCodeEmitter.h</text>
</a>
</g>
</g>
<!-- Node0&#45;&gt;Node1 -->
<g id="edge1" class="edge">
<title>Node0&#45;&gt;Node1</title>
<path fill="none" stroke="midnightblue" d="M108.7,-56.4C100.78,-47.66 90.56,-36.41 82.29,-27.3"/>
<polygon fill="midnightblue" stroke="midnightblue" points="84.67,-24.71 75.36,-19.66 79.49,-29.42 84.67,-24.71"/>
</g>
<!-- Node2 -->
<g id="node3" class="node">
<title>Node2</title>
<polygon fill="none" stroke="#bfbfbf" points="153.5,-0.5 153.5,-19.5 199.5,-19.5 199.5,-0.5 153.5,-0.5"/>
<text text-anchor="middle" x="176.5" y="-7.5" font-family="Helvetica,sans-Serif" font-size="10.00">cstdint</text>
</g>
<!-- Node0&#45;&gt;Node2 -->
<g id="edge2" class="edge">
<title>Node0&#45;&gt;Node2</title>
<path fill="none" stroke="midnightblue" d="M134.53,-56.4C142.69,-47.58 153.22,-36.18 161.69,-27.02"/>
<polygon fill="midnightblue" stroke="midnightblue" points="164.28,-29.38 168.5,-19.66 159.14,-24.63 164.28,-29.38"/>
</g>
</g>
</svg>
