<?xml version="1.0" encoding="UTF-8" standalone="no"?>
<!DOCTYPE svg PUBLIC "-//W3C//DTD SVG 1.1//EN"
 "http://www.w3.org/Graphics/SVG/1.1/DTD/svg11.dtd">
<!-- Generated by graphviz version 2.43.0 (0)
 -->
<!-- Title: lib/Target/MSP430/MSP430TargetMachine.h Pages: 1 -->
<svg width="926pt" height="106pt"
 viewBox="0.00 0.00 926.00 106.00" xmlns="http://www.w3.org/2000/svg" xmlns:xlink="http://www.w3.org/1999/xlink">
<g id="graph0" class="graph" transform="scale(1 1) rotate(0) translate(4 102)">
<title>lib/Target/MSP430/MSP430TargetMachine.h</title>
<!-- Node276 -->
<g id="node1" class="node">
<title>Node276</title>
<polygon fill="#bfbfbf" stroke="black" points="390,-67.5 390,-97.5 528,-97.5 528,-67.5 390,-67.5"/>
<text text-anchor="start" x="398" y="-85.5" font-family="Helvetica,sans-Serif" font-size="10.00">lib/Target/MSP430/MSP430</text>
<text text-anchor="middle" x="459" y="-74.5" font-family="Helvetica,sans-Serif" font-size="10.00">TargetMachine.h</text>
</g>
<!-- Node277 -->
<g id="node2" class="node">
<title>Node277</title>
<g id="a_node2"><a xlink:href="MSP430AsmPrinter_8cpp.html" target="_top" xlink:title="lib/Target/MSP430/MSP430\lAsmPrinter.cpp">
<polygon fill="none" stroke="black" points="0,-0.5 0,-30.5 138,-30.5 138,-0.5 0,-0.5"/>
<text text-anchor="start" x="8" y="-18.5" font-family="Helvetica,sans-Serif" font-size="10.00">lib/Target/MSP430/MSP430</text>
<text text-anchor="middle" x="69" y="-7.5" font-family="Helvetica,sans-Serif" font-size="10.00">AsmPrinter.cpp</text>
</a>
</g>
</g>
<!-- Node276&#45;&gt;Node277 -->
<g id="edge1" class="edge">
<title>Node276&#45;&gt;Node277</title>
<path fill="none" stroke="midnightblue" d="M379.95,-69.23C316.83,-59.3 226.15,-44.76 147,-31 144.15,-30.5 141.24,-29.99 138.31,-29.47"/>
<polygon fill="midnightblue" stroke="midnightblue" points="379.41,-72.69 389.84,-70.78 380.5,-65.77 379.41,-72.69"/>
</g>
<!-- Node278 -->
<g id="node3" class="node">
<title>Node278</title>
<g id="a_node3"><a xlink:href="MSP430InstrInfo_8cpp.html" target="_top" xlink:title="lib/Target/MSP430/MSP430\lInstrInfo.cpp">
<polygon fill="none" stroke="black" points="156,-0.5 156,-30.5 294,-30.5 294,-0.5 156,-0.5"/>
<text text-anchor="start" x="164" y="-18.5" font-family="Helvetica,sans-Serif" font-size="10.00">lib/Target/MSP430/MSP430</text>
<text text-anchor="middle" x="225" y="-7.5" font-family="Helvetica,sans-Serif" font-size="10.00">InstrInfo.cpp</text>
</a>
</g>
</g>
<!-- Node276&#45;&gt;Node278 -->
<g id="edge2" class="edge">
<title>Node276&#45;&gt;Node278</title>
<path fill="none" stroke="midnightblue" d="M398.57,-64.71C360.49,-54.14 311.89,-40.63 275.8,-30.61"/>
<polygon fill="midnightblue" stroke="midnightblue" points="397.94,-68.17 408.51,-67.48 399.82,-61.43 397.94,-68.17"/>
</g>
<!-- Node279 -->
<g id="node4" class="node">
<title>Node279</title>
<g id="a_node4"><a xlink:href="MSP430ISelDAGToDAG_8cpp.html" target="_top" xlink:title="lib/Target/MSP430/MSP430\lISelDAGToDAG.cpp">
<polygon fill="none" stroke="black" points="312,-0.5 312,-30.5 450,-30.5 450,-0.5 312,-0.5"/>
<text text-anchor="start" x="320" y="-18.5" font-family="Helvetica,sans-Serif" font-size="10.00">lib/Target/MSP430/MSP430</text>
<text text-anchor="middle" x="381" y="-7.5" font-family="Helvetica,sans-Serif" font-size="10.00">ISelDAGToDAG.cpp</text>
</a>
</g>
</g>
<!-- Node276&#45;&gt;Node279 -->
<g id="edge3" class="edge">
<title>Node276&#45;&gt;Node279</title>
<path fill="none" stroke="midnightblue" d="M434.26,-60.88C422.41,-51.01 408.52,-39.43 397.89,-30.58"/>
<polygon fill="midnightblue" stroke="midnightblue" points="432.15,-63.68 442.08,-67.4 436.63,-58.31 432.15,-63.68"/>
</g>
<!-- Node280 -->
<g id="node5" class="node">
<title>Node280</title>
<g id="a_node5"><a xlink:href="MSP430ISelLowering_8cpp.html" target="_top" xlink:title="lib/Target/MSP430/MSP430\lISelLowering.cpp">
<polygon fill="none" stroke="black" points="468,-0.5 468,-30.5 606,-30.5 606,-0.5 468,-0.5"/>
<text text-anchor="start" x="476" y="-18.5" font-family="Helvetica,sans-Serif" font-size="10.00">lib/Target/MSP430/MSP430</text>
<text text-anchor="middle" x="537" y="-7.5" font-family="Helvetica,sans-Serif" font-size="10.00">ISelLowering.cpp</text>
</a>
</g>
</g>
<!-- Node276&#45;&gt;Node280 -->
<g id="edge4" class="edge">
<title>Node276&#45;&gt;Node280</title>
<path fill="none" stroke="midnightblue" d="M483.74,-60.88C495.59,-51.01 509.48,-39.43 520.11,-30.58"/>
<polygon fill="midnightblue" stroke="midnightblue" points="481.37,-58.31 475.92,-67.4 485.85,-63.68 481.37,-58.31"/>
</g>
<!-- Node281 -->
<g id="node6" class="node">
<title>Node281</title>
<g id="a_node6"><a xlink:href="MSP430RegisterInfo_8cpp.html" target="_top" xlink:title="lib/Target/MSP430/MSP430\lRegisterInfo.cpp">
<polygon fill="none" stroke="black" points="624,-0.5 624,-30.5 762,-30.5 762,-0.5 624,-0.5"/>
<text text-anchor="start" x="632" y="-18.5" font-family="Helvetica,sans-Serif" font-size="10.00">lib/Target/MSP430/MSP430</text>
<text text-anchor="middle" x="693" y="-7.5" font-family="Helvetica,sans-Serif" font-size="10.00">RegisterInfo.cpp</text>
</a>
</g>
</g>
<!-- Node276&#45;&gt;Node281 -->
<g id="edge5" class="edge">
<title>Node276&#45;&gt;Node281</title>
<path fill="none" stroke="midnightblue" d="M519.43,-64.71C557.51,-54.14 606.11,-40.63 642.2,-30.61"/>
<polygon fill="midnightblue" stroke="midnightblue" points="518.18,-61.43 509.49,-67.48 520.06,-68.17 518.18,-61.43"/>
</g>
<!-- Node282 -->
<g id="node7" class="node">
<title>Node282</title>
<g id="a_node7"><a xlink:href="MSP430TargetMachine_8cpp.html" target="_top" xlink:title="lib/Target/MSP430/MSP430\lTargetMachine.cpp">
<polygon fill="none" stroke="black" points="780,-0.5 780,-30.5 918,-30.5 918,-0.5 780,-0.5"/>
<text text-anchor="start" x="788" y="-18.5" font-family="Helvetica,sans-Serif" font-size="10.00">lib/Target/MSP430/MSP430</text>
<text text-anchor="middle" x="849" y="-7.5" font-family="Helvetica,sans-Serif" font-size="10.00">TargetMachine.cpp</text>
</a>
</g>
</g>
<!-- Node276&#45;&gt;Node282 -->
<g id="edge6" class="edge">
<title>Node276&#45;&gt;Node282</title>
<path fill="none" stroke="midnightblue" d="M538.05,-69.23C601.17,-59.3 691.85,-44.76 771,-31 773.85,-30.5 776.76,-29.99 779.69,-29.47"/>
<polygon fill="midnightblue" stroke="midnightblue" points="537.5,-65.77 528.16,-70.78 538.59,-72.69 537.5,-65.77"/>
</g>
</g>
</svg>
