<?xml version="1.0" encoding="UTF-8" standalone="no"?>
<!DOCTYPE svg PUBLIC "-//W3C//DTD SVG 1.1//EN"
 "http://www.w3.org/Graphics/SVG/1.1/DTD/svg11.dtd">
<!-- Generated by graphviz version 2.43.0 (0)
 -->
<!-- Title: include/llvm/DebugInfo/PDB/Native/NativeRawSymbol.h Pages: 1 -->
<svg width="2907pt" height="307pt"
 viewBox="0.00 0.00 2907.00 307.00" xmlns="http://www.w3.org/2000/svg" xmlns:xlink="http://www.w3.org/1999/xlink">
<g id="graph0" class="graph" transform="scale(1 1) rotate(0) translate(4 303)">
<title>include/llvm/DebugInfo/PDB/Native/NativeRawSymbol.h</title>
<!-- Node93 -->
<g id="node1" class="node">
<title>Node93</title>
<polygon fill="#bfbfbf" stroke="black" points="1612.5,-268.5 1612.5,-298.5 1777.5,-298.5 1777.5,-268.5 1612.5,-268.5"/>
<text text-anchor="start" x="1620.5" y="-286.5" font-family="Helvetica,sans-Serif" font-size="10.00">include/llvm/DebugInfo</text>
<text text-anchor="middle" x="1695" y="-275.5" font-family="Helvetica,sans-Serif" font-size="10.00">/PDB/Native/NativeRawSymbol.h</text>
</g>
<!-- Node94 -->
<g id="node2" class="node">
<title>Node94</title>
<g id="a_node2"><a xlink:href="NativeCompilandSymbol_8h.html" target="_top" xlink:title="include/llvm/DebugInfo\l/PDB/Native/NativeCompilandSymbol.h">
<polygon fill="none" stroke="black" points="263.5,-67.5 263.5,-97.5 454.5,-97.5 454.5,-67.5 263.5,-67.5"/>
<text text-anchor="start" x="271.5" y="-85.5" font-family="Helvetica,sans-Serif" font-size="10.00">include/llvm/DebugInfo</text>
<text text-anchor="middle" x="359" y="-74.5" font-family="Helvetica,sans-Serif" font-size="10.00">/PDB/Native/NativeCompilandSymbol.h</text>
</a>
</g>
</g>
<!-- Node93&#45;&gt;Node94 -->
<g id="edge1" class="edge">
<title>Node93&#45;&gt;Node94</title>
<path fill="none" stroke="midnightblue" d="M1601.98,-283.36C1449.11,-283.29 1135.71,-276.98 875,-232 691.97,-200.42 481.27,-128.04 396.85,-97.5"/>
<polygon fill="midnightblue" stroke="midnightblue" points="1602.26,-286.86 1612.26,-283.35 1602.26,-279.86 1602.26,-286.86"/>
</g>
<!-- Node99 -->
<g id="node7" class="node">
<title>Node99</title>
<g id="a_node7"><a xlink:href="SymbolCache_8cpp.html" target="_top" xlink:title="lib/DebugInfo/PDB/Native\l/SymbolCache.cpp">
<polygon fill="none" stroke="black" points="1667,-0.5 1667,-30.5 1797,-30.5 1797,-0.5 1667,-0.5"/>
<text text-anchor="start" x="1675" y="-18.5" font-family="Helvetica,sans-Serif" font-size="10.00">lib/DebugInfo/PDB/Native</text>
<text text-anchor="middle" x="1732" y="-7.5" font-family="Helvetica,sans-Serif" font-size="10.00">/SymbolCache.cpp</text>
</a>
</g>
</g>
<!-- Node93&#45;&gt;Node99 -->
<g id="edge70" class="edge">
<title>Node93&#45;&gt;Node99</title>
<path fill="none" stroke="midnightblue" d="M1709.91,-259.89C1731.09,-226.26 1768.9,-160.33 1783,-98 1786.04,-84.56 1788.3,-79.72 1783,-67 1776.81,-52.16 1763.91,-39.46 1752.63,-30.5"/>
<polygon fill="midnightblue" stroke="midnightblue" points="1706.85,-258.17 1704.41,-268.48 1712.75,-261.95 1706.85,-258.17"/>
</g>
<!-- Node100 -->
<g id="node8" class="node">
<title>Node100</title>
<g id="a_node8"><a xlink:href="NativeExeSymbol_8h.html" target="_top" xlink:title="include/llvm/DebugInfo\l/PDB/Native/NativeExeSymbol.h">
<polygon fill="none" stroke="black" points="45,-67.5 45,-97.5 207,-97.5 207,-67.5 45,-67.5"/>
<text text-anchor="start" x="53" y="-85.5" font-family="Helvetica,sans-Serif" font-size="10.00">include/llvm/DebugInfo</text>
<text text-anchor="middle" x="126" y="-74.5" font-family="Helvetica,sans-Serif" font-size="10.00">/PDB/Native/NativeExeSymbol.h</text>
</a>
</g>
</g>
<!-- Node93&#45;&gt;Node100 -->
<g id="edge7" class="edge">
<title>Node93&#45;&gt;Node100</title>
<path fill="none" stroke="midnightblue" d="M1602.24,-283.29C1430.66,-283.49 1052.54,-278.05 738,-232 522.45,-200.44 271.7,-128.05 171.11,-97.5"/>
<polygon fill="midnightblue" stroke="midnightblue" points="1602.25,-286.79 1612.24,-283.27 1602.24,-279.79 1602.25,-286.79"/>
</g>
<!-- Node101 -->
<g id="node9" class="node">
<title>Node101</title>
<g id="a_node9"><a xlink:href="NativeSession_8h.html" target="_top" xlink:title="include/llvm/DebugInfo\l/PDB/Native/NativeSession.h">
<polygon fill="none" stroke="black" points="1375.5,-134.5 1375.5,-164.5 1522.5,-164.5 1522.5,-134.5 1375.5,-134.5"/>
<text text-anchor="start" x="1383.5" y="-152.5" font-family="Helvetica,sans-Serif" font-size="10.00">include/llvm/DebugInfo</text>
<text text-anchor="middle" x="1449" y="-141.5" font-family="Helvetica,sans-Serif" font-size="10.00">/PDB/Native/NativeSession.h</text>
</a>
</g>
</g>
<!-- Node93&#45;&gt;Node101 -->
<g id="edge11" class="edge">
<title>Node93&#45;&gt;Node101</title>
<path fill="none" stroke="midnightblue" d="M1659.84,-263.63C1609.9,-236.84 1519.58,-188.37 1475.14,-164.52"/>
<polygon fill="midnightblue" stroke="midnightblue" points="1658.21,-266.73 1668.67,-268.37 1661.52,-260.56 1658.21,-266.73"/>
</g>
<!-- Node102 -->
<g id="node10" class="node">
<title>Node102</title>
<g id="a_node10"><a xlink:href="NativeSymbolEnumerator_8h.html" target="_top" xlink:title="include/llvm/DebugInfo\l/PDB/Native/NativeSymbolEnumerator.h">
<polygon fill="none" stroke="black" points="766.5,-67.5 766.5,-97.5 961.5,-97.5 961.5,-67.5 766.5,-67.5"/>
<text text-anchor="start" x="774.5" y="-85.5" font-family="Helvetica,sans-Serif" font-size="10.00">include/llvm/DebugInfo</text>
<text text-anchor="middle" x="864" y="-74.5" font-family="Helvetica,sans-Serif" font-size="10.00">/PDB/Native/NativeSymbolEnumerator.h</text>
</a>
</g>
</g>
<!-- Node93&#45;&gt;Node102 -->
<g id="edge46" class="edge">
<title>Node93&#45;&gt;Node102</title>
<path fill="none" stroke="midnightblue" d="M1602.08,-283.33C1441.39,-283.49 1118.99,-277.84 1017,-232 949.81,-201.8 894.63,-128.82 873.38,-97.82"/>
<polygon fill="midnightblue" stroke="midnightblue" points="1602.43,-286.83 1612.43,-283.31 1602.42,-279.83 1602.43,-286.83"/>
</g>
<!-- Node105 -->
<g id="node13" class="node">
<title>Node105</title>
<g id="a_node13"><a xlink:href="NativeTypeEnum_8h.html" target="_top" xlink:title="include/llvm/DebugInfo\l/PDB/Native/NativeTypeEnum.h">
<polygon fill="none" stroke="black" points="1016.5,-67.5 1016.5,-97.5 1175.5,-97.5 1175.5,-67.5 1016.5,-67.5"/>
<text text-anchor="start" x="1024.5" y="-85.5" font-family="Helvetica,sans-Serif" font-size="10.00">include/llvm/DebugInfo</text>
<text text-anchor="middle" x="1096" y="-74.5" font-family="Helvetica,sans-Serif" font-size="10.00">/PDB/Native/NativeTypeEnum.h</text>
</a>
</g>
</g>
<!-- Node93&#45;&gt;Node105 -->
<g id="edge57" class="edge">
<title>Node93&#45;&gt;Node105</title>
<path fill="none" stroke="midnightblue" d="M1642.6,-265.09C1525.66,-226.24 1245.28,-133.09 1138.38,-97.58"/>
<polygon fill="midnightblue" stroke="midnightblue" points="1641.81,-268.52 1652.4,-268.35 1644.02,-261.87 1641.81,-268.52"/>
</g>
<!-- Node108 -->
<g id="node16" class="node">
<title>Node108</title>
<g id="a_node16"><a xlink:href="NativeTypeFunctionSig_8h.html" target="_top" xlink:title="include/llvm/DebugInfo\l/PDB/Native/NativeTypeFunctionSig.h">
<polygon fill="none" stroke="black" points="1829.5,-67.5 1829.5,-97.5 2014.5,-97.5 2014.5,-67.5 1829.5,-67.5"/>
<text text-anchor="start" x="1837.5" y="-85.5" font-family="Helvetica,sans-Serif" font-size="10.00">include/llvm/DebugInfo</text>
<text text-anchor="middle" x="1922" y="-74.5" font-family="Helvetica,sans-Serif" font-size="10.00">/PDB/Native/NativeTypeFunctionSig.h</text>
</a>
</g>
</g>
<!-- Node93&#45;&gt;Node108 -->
<g id="edge58" class="edge">
<title>Node93&#45;&gt;Node108</title>
<path fill="none" stroke="midnightblue" d="M1755.12,-264.94C1775.78,-257.03 1798.18,-246.21 1816,-232 1864.54,-193.3 1900.89,-126.81 1915.26,-97.77"/>
<polygon fill="midnightblue" stroke="midnightblue" points="1753.64,-261.75 1745.46,-268.48 1756.05,-268.33 1753.64,-261.75"/>
</g>
<!-- Node110 -->
<g id="node18" class="node">
<title>Node110</title>
<g id="a_node18"><a xlink:href="NativeTypePointer_8h.html" target="_top" xlink:title="include/llvm/DebugInfo\l/PDB/Native/NativeTypePointer.h">
<polygon fill="none" stroke="black" points="2033,-67.5 2033,-97.5 2197,-97.5 2197,-67.5 2033,-67.5"/>
<text text-anchor="start" x="2041" y="-85.5" font-family="Helvetica,sans-Serif" font-size="10.00">include/llvm/DebugInfo</text>
<text text-anchor="middle" x="2115" y="-74.5" font-family="Helvetica,sans-Serif" font-size="10.00">/PDB/Native/NativeTypePointer.h</text>
</a>
</g>
</g>
<!-- Node93&#45;&gt;Node110 -->
<g id="edge59" class="edge">
<title>Node93&#45;&gt;Node110</title>
<path fill="none" stroke="midnightblue" d="M1753.48,-265.48C1781.6,-256.62 1815.52,-244.95 1845,-232 1940.51,-190.05 2047.18,-125.85 2092.59,-97.63"/>
<polygon fill="midnightblue" stroke="midnightblue" points="1752.3,-262.18 1743.79,-268.49 1754.38,-268.86 1752.3,-262.18"/>
</g>
<!-- Node112 -->
<g id="node20" class="node">
<title>Node112</title>
<g id="a_node20"><a xlink:href="NativeTypeTypedef_8h.html" target="_top" xlink:title="include/llvm/DebugInfo\l/PDB/Native/NativeTypeTypedef.h">
<polygon fill="none" stroke="black" points="2215.5,-67.5 2215.5,-97.5 2384.5,-97.5 2384.5,-67.5 2215.5,-67.5"/>
<text text-anchor="start" x="2223.5" y="-85.5" font-family="Helvetica,sans-Serif" font-size="10.00">include/llvm/DebugInfo</text>
<text text-anchor="middle" x="2300" y="-74.5" font-family="Helvetica,sans-Serif" font-size="10.00">/PDB/Native/NativeTypeTypedef.h</text>
</a>
</g>
</g>
<!-- Node93&#45;&gt;Node112 -->
<g id="edge60" class="edge">
<title>Node93&#45;&gt;Node112</title>
<path fill="none" stroke="midnightblue" d="M1764.67,-265.88C1801.56,-256.68 1847.48,-244.57 1888,-232 2029.24,-188.17 2193.68,-125.22 2264.55,-97.5"/>
<polygon fill="midnightblue" stroke="midnightblue" points="1763.38,-262.59 1754.52,-268.4 1765.07,-269.39 1763.38,-262.59"/>
</g>
<!-- Node114 -->
<g id="node22" class="node">
<title>Node114</title>
<g id="a_node22"><a xlink:href="NativeTypeUDT_8h.html" target="_top" xlink:title="include/llvm/DebugInfo\l/PDB/Native/NativeTypeUDT.h">
<polygon fill="none" stroke="black" points="2551.5,-67.5 2551.5,-97.5 2706.5,-97.5 2706.5,-67.5 2551.5,-67.5"/>
<text text-anchor="start" x="2559.5" y="-85.5" font-family="Helvetica,sans-Serif" font-size="10.00">include/llvm/DebugInfo</text>
<text text-anchor="middle" x="2629" y="-74.5" font-family="Helvetica,sans-Serif" font-size="10.00">/PDB/Native/NativeTypeUDT.h</text>
</a>
</g>
</g>
<!-- Node93&#45;&gt;Node114 -->
<g id="edge61" class="edge">
<title>Node93&#45;&gt;Node114</title>
<path fill="none" stroke="midnightblue" d="M1787.91,-269.93C1852.2,-260.73 1939.59,-247.24 2016,-232 2225.67,-190.18 2472.1,-125.77 2577.25,-97.55"/>
<polygon fill="midnightblue" stroke="midnightblue" points="1787.2,-266.5 1777.8,-271.37 1788.19,-273.43 1787.2,-266.5"/>
</g>
<!-- Node116 -->
<g id="node24" class="node">
<title>Node116</title>
<g id="a_node24"><a xlink:href="NativeTypeVTShape_8h.html" target="_top" xlink:title="include/llvm/DebugInfo\l/PDB/Native/NativeTypeVTShape.h">
<polygon fill="none" stroke="black" points="2725,-67.5 2725,-97.5 2899,-97.5 2899,-67.5 2725,-67.5"/>
<text text-anchor="start" x="2733" y="-85.5" font-family="Helvetica,sans-Serif" font-size="10.00">include/llvm/DebugInfo</text>
<text text-anchor="middle" x="2812" y="-74.5" font-family="Helvetica,sans-Serif" font-size="10.00">/PDB/Native/NativeTypeVTShape.h</text>
</a>
</g>
</g>
<!-- Node93&#45;&gt;Node116 -->
<g id="edge62" class="edge">
<title>Node93&#45;&gt;Node116</title>
<path fill="none" stroke="midnightblue" d="M1787.66,-273.21C1870.35,-264.4 1994.63,-249.86 2102,-232 2345.17,-191.56 2631.59,-126.14 2752.94,-97.58"/>
<polygon fill="midnightblue" stroke="midnightblue" points="1787.1,-269.75 1777.53,-274.28 1787.84,-276.71 1787.1,-269.75"/>
</g>
<!-- Node119 -->
<g id="node27" class="node">
<title>Node119</title>
<g id="a_node27"><a xlink:href="NativeRawSymbol_8cpp.html" target="_top" xlink:title="lib/DebugInfo/PDB/Native\l/NativeRawSymbol.cpp">
<polygon fill="none" stroke="black" points="2403,-67.5 2403,-97.5 2533,-97.5 2533,-67.5 2403,-67.5"/>
<text text-anchor="start" x="2411" y="-85.5" font-family="Helvetica,sans-Serif" font-size="10.00">lib/DebugInfo/PDB/Native</text>
<text text-anchor="middle" x="2468" y="-74.5" font-family="Helvetica,sans-Serif" font-size="10.00">/NativeRawSymbol.cpp</text>
</a>
</g>
</g>
<!-- Node93&#45;&gt;Node119 -->
<g id="edge69" class="edge">
<title>Node93&#45;&gt;Node119</title>
<path fill="none" stroke="midnightblue" d="M1782.92,-266.57C1831.25,-257.37 1892.16,-245.05 1946,-232 2124.33,-188.77 2333.43,-125.37 2423.28,-97.51"/>
<polygon fill="midnightblue" stroke="midnightblue" points="1781.98,-263.18 1772.8,-268.48 1783.28,-270.06 1781.98,-263.18"/>
</g>
<!-- Node121 -->
<g id="node29" class="node">
<title>Node121</title>
<g id="a_node29"><a xlink:href="NativeTypeArray_8h.html" target="_top" xlink:title="include/llvm/DebugInfo\l/PDB/Native/NativeTypeArray.h">
<polygon fill="none" stroke="black" points="1616.5,-67.5 1616.5,-97.5 1773.5,-97.5 1773.5,-67.5 1616.5,-67.5"/>
<text text-anchor="start" x="1624.5" y="-85.5" font-family="Helvetica,sans-Serif" font-size="10.00">include/llvm/DebugInfo</text>
<text text-anchor="middle" x="1695" y="-74.5" font-family="Helvetica,sans-Serif" font-size="10.00">/PDB/Native/NativeTypeArray.h</text>
</a>
</g>
</g>
<!-- Node93&#45;&gt;Node121 -->
<g id="edge47" class="edge">
<title>Node93&#45;&gt;Node121</title>
<path fill="none" stroke="midnightblue" d="M1695,-258C1695,-215.93 1695,-131.26 1695,-97.68"/>
<polygon fill="midnightblue" stroke="midnightblue" points="1691.5,-258.19 1695,-268.19 1698.5,-258.19 1691.5,-258.19"/>
</g>
<!-- Node122 -->
<g id="node30" class="node">
<title>Node122</title>
<g id="a_node30"><a xlink:href="NativeTypeBuiltin_8h.html" target="_top" xlink:title="include/llvm/DebugInfo\l/PDB/Native/NativeTypeBuiltin.h">
<polygon fill="none" stroke="black" points="587.5,-67.5 587.5,-97.5 748.5,-97.5 748.5,-67.5 587.5,-67.5"/>
<text text-anchor="start" x="595.5" y="-85.5" font-family="Helvetica,sans-Serif" font-size="10.00">include/llvm/DebugInfo</text>
<text text-anchor="middle" x="668" y="-74.5" font-family="Helvetica,sans-Serif" font-size="10.00">/PDB/Native/NativeTypeBuiltin.h</text>
</a>
</g>
</g>
<!-- Node93&#45;&gt;Node122 -->
<g id="edge50" class="edge">
<title>Node93&#45;&gt;Node122</title>
<path fill="none" stroke="midnightblue" d="M1602.1,-280.63C1433.02,-276.48 1081.62,-264.17 964,-232 853.36,-201.74 735.4,-128.46 688.72,-97.59"/>
<polygon fill="midnightblue" stroke="midnightblue" points="1602.15,-284.13 1612.23,-280.88 1602.32,-277.14 1602.15,-284.13"/>
</g>
<!-- Node124 -->
<g id="node32" class="node">
<title>Node124</title>
<g id="a_node32"><a xlink:href="SymbolCache_8h.html" target="_top" xlink:title="include/llvm/DebugInfo\l/PDB/Native/SymbolCache.h">
<polygon fill="none" stroke="black" points="1026.5,-201.5 1026.5,-231.5 1171.5,-231.5 1171.5,-201.5 1026.5,-201.5"/>
<text text-anchor="start" x="1034.5" y="-219.5" font-family="Helvetica,sans-Serif" font-size="10.00">include/llvm/DebugInfo</text>
<text text-anchor="middle" x="1099" y="-208.5" font-family="Helvetica,sans-Serif" font-size="10.00">/PDB/Native/SymbolCache.h</text>
</a>
</g>
</g>
<!-- Node93&#45;&gt;Node124 -->
<g id="edge63" class="edge">
<title>Node93&#45;&gt;Node124</title>
<path fill="none" stroke="midnightblue" d="M1602.28,-272.39C1483.54,-259.44 1280.21,-237.26 1171.91,-225.45"/>
<polygon fill="midnightblue" stroke="midnightblue" points="1602.12,-275.89 1612.44,-273.5 1602.88,-268.93 1602.12,-275.89"/>
</g>
<!-- Node95 -->
<g id="node3" class="node">
<title>Node95</title>
<g id="a_node3"><a xlink:href="NativeCompilandSymbol_8cpp.html" target="_top" xlink:title="lib/DebugInfo/PDB/Native\l/NativeCompilandSymbol.cpp">
<polygon fill="none" stroke="black" points="296,-0.5 296,-30.5 442,-30.5 442,-0.5 296,-0.5"/>
<text text-anchor="start" x="304" y="-18.5" font-family="Helvetica,sans-Serif" font-size="10.00">lib/DebugInfo/PDB/Native</text>
<text text-anchor="middle" x="369" y="-7.5" font-family="Helvetica,sans-Serif" font-size="10.00">/NativeCompilandSymbol.cpp</text>
</a>
</g>
</g>
<!-- Node94&#45;&gt;Node95 -->
<g id="edge2" class="edge">
<title>Node94&#45;&gt;Node95</title>
<path fill="none" stroke="midnightblue" d="M362.71,-57.4C364.1,-48.37 365.63,-38.41 366.83,-30.58"/>
<polygon fill="midnightblue" stroke="midnightblue" points="359.23,-56.98 361.17,-67.4 366.15,-58.04 359.23,-56.98"/>
</g>
<!-- Node96 -->
<g id="node4" class="node">
<title>Node96</title>
<g id="a_node4"><a xlink:href="NativeEnumModules_8cpp.html" target="_top" xlink:title="lib/DebugInfo/PDB/Native\l/NativeEnumModules.cpp">
<polygon fill="none" stroke="black" points="148,-0.5 148,-30.5 278,-30.5 278,-0.5 148,-0.5"/>
<text text-anchor="start" x="156" y="-18.5" font-family="Helvetica,sans-Serif" font-size="10.00">lib/DebugInfo/PDB/Native</text>
<text text-anchor="middle" x="213" y="-7.5" font-family="Helvetica,sans-Serif" font-size="10.00">/NativeEnumModules.cpp</text>
</a>
</g>
</g>
<!-- Node94&#45;&gt;Node96 -->
<g id="edge3" class="edge">
<title>Node94&#45;&gt;Node96</title>
<path fill="none" stroke="midnightblue" d="M318.05,-63.27C294.8,-52.92 266.13,-40.15 244.62,-30.58"/>
<polygon fill="midnightblue" stroke="midnightblue" points="316.76,-66.53 327.32,-67.4 319.61,-60.13 316.76,-66.53"/>
</g>
<!-- Node97 -->
<g id="node5" class="node">
<title>Node97</title>
<g id="a_node5"><a xlink:href="NativeExeSymbol_8cpp.html" target="_top" xlink:title="lib/DebugInfo/PDB/Native\l/NativeExeSymbol.cpp">
<polygon fill="none" stroke="black" points="0,-0.5 0,-30.5 130,-30.5 130,-0.5 0,-0.5"/>
<text text-anchor="start" x="8" y="-18.5" font-family="Helvetica,sans-Serif" font-size="10.00">lib/DebugInfo/PDB/Native</text>
<text text-anchor="middle" x="65" y="-7.5" font-family="Helvetica,sans-Serif" font-size="10.00">/NativeExeSymbol.cpp</text>
</a>
</g>
</g>
<!-- Node94&#45;&gt;Node97 -->
<g id="edge4" class="edge">
<title>Node94&#45;&gt;Node97</title>
<path fill="none" stroke="midnightblue" d="M285.8,-65.32C237.48,-54.63 174.8,-40.77 128.57,-30.55"/>
<polygon fill="midnightblue" stroke="midnightblue" points="285.05,-68.73 295.57,-67.48 286.56,-61.9 285.05,-68.73"/>
</g>
<!-- Node98 -->
<g id="node6" class="node">
<title>Node98</title>
<g id="a_node6"><a xlink:href="NativeSession_8cpp.html" target="_top" xlink:title="lib/DebugInfo/PDB/Native\l/NativeSession.cpp">
<polygon fill="none" stroke="black" points="460,-0.5 460,-30.5 590,-30.5 590,-0.5 460,-0.5"/>
<text text-anchor="start" x="468" y="-18.5" font-family="Helvetica,sans-Serif" font-size="10.00">lib/DebugInfo/PDB/Native</text>
<text text-anchor="middle" x="525" y="-7.5" font-family="Helvetica,sans-Serif" font-size="10.00">/NativeSession.cpp</text>
</a>
</g>
</g>
<!-- Node94&#45;&gt;Node98 -->
<g id="edge5" class="edge">
<title>Node94&#45;&gt;Node98</title>
<path fill="none" stroke="midnightblue" d="M404.51,-63.68C431.13,-53.26 464.27,-40.28 489.05,-30.58"/>
<polygon fill="midnightblue" stroke="midnightblue" points="403.05,-60.49 395.02,-67.4 405.61,-67.01 403.05,-60.49"/>
</g>
<!-- Node94&#45;&gt;Node99 -->
<g id="edge6" class="edge">
<title>Node94&#45;&gt;Node99</title>
<path fill="none" stroke="midnightblue" d="M464.66,-73.95C500.61,-71.53 541.05,-68.97 578,-67 975.54,-45.85 1075.36,-50.13 1473,-31 1539.01,-27.82 1614.45,-23.53 1666.82,-20.43"/>
<polygon fill="midnightblue" stroke="midnightblue" points="464.38,-70.46 454.64,-74.63 464.85,-77.44 464.38,-70.46"/>
</g>
<!-- Node100&#45;&gt;Node96 -->
<g id="edge8" class="edge">
<title>Node100&#45;&gt;Node96</title>
<path fill="none" stroke="midnightblue" d="M153.21,-61.17C166.52,-51.23 182.2,-39.51 194.16,-30.58"/>
<polygon fill="midnightblue" stroke="midnightblue" points="150.79,-58.61 144.88,-67.4 154.98,-64.21 150.79,-58.61"/>
</g>
<!-- Node100&#45;&gt;Node97 -->
<g id="edge9" class="edge">
<title>Node100&#45;&gt;Node97</title>
<path fill="none" stroke="midnightblue" d="M105.85,-60.02C96.76,-50.34 86.28,-39.17 78.21,-30.58"/>
<polygon fill="midnightblue" stroke="midnightblue" points="103.37,-62.5 112.76,-67.4 108.47,-57.71 103.37,-62.5"/>
</g>
<!-- Node100&#45;&gt;Node98 -->
<g id="edge10" class="edge">
<title>Node100&#45;&gt;Node98</title>
<path fill="none" stroke="midnightblue" d="M217.53,-68.26C282.74,-58.59 372.39,-44.8 451,-31 453.84,-30.5 456.73,-29.98 459.66,-29.45"/>
<polygon fill="midnightblue" stroke="midnightblue" points="216.67,-64.85 207.29,-69.78 217.69,-71.77 216.67,-64.85"/>
</g>
<!-- Node101&#45;&gt;Node95 -->
<g id="edge38" class="edge">
<title>Node101&#45;&gt;Node95</title>
<path fill="none" stroke="midnightblue" d="M1365.19,-147.83C1171.73,-145.65 698.85,-136.42 545,-98 515.03,-90.51 437.59,-51.89 396.14,-30.61"/>
<polygon fill="midnightblue" stroke="midnightblue" points="1365.26,-151.34 1375.3,-147.94 1365.34,-144.34 1365.26,-151.34"/>
</g>
<!-- Node101&#45;&gt;Node96 -->
<g id="edge40" class="edge">
<title>Node101&#45;&gt;Node96</title>
<path fill="none" stroke="midnightblue" d="M1365.06,-147.27C1100.78,-143.11 300.56,-128.07 254,-98 230.45,-82.79 219.87,-49.65 215.58,-30.65"/>
<polygon fill="midnightblue" stroke="midnightblue" points="1365.31,-150.78 1375.36,-147.43 1365.42,-143.78 1365.31,-150.78"/>
</g>
<!-- Node101&#45;&gt;Node98 -->
<g id="edge43" class="edge">
<title>Node101&#45;&gt;Node98</title>
<path fill="none" stroke="midnightblue" d="M1365.34,-147.91C1160.37,-145.86 644.94,-136.87 578,-98 552.17,-83 536.72,-49.78 529.65,-30.71"/>
<polygon fill="midnightblue" stroke="midnightblue" points="1365.41,-151.41 1375.45,-148.01 1365.48,-144.41 1365.41,-151.41"/>
</g>
<!-- Node101&#45;&gt;Node99 -->
<g id="edge44" class="edge">
<title>Node101&#45;&gt;Node99</title>
<path fill="none" stroke="midnightblue" d="M1475.2,-128.41C1499.68,-110.39 1537.79,-84.21 1574,-67 1606.51,-51.55 1644.95,-39.15 1675.76,-30.5"/>
<polygon fill="midnightblue" stroke="midnightblue" points="1473.06,-125.64 1467.13,-134.42 1477.24,-131.25 1473.06,-125.64"/>
</g>
<!-- Node101&#45;&gt;Node100 -->
<g id="edge12" class="edge">
<title>Node101&#45;&gt;Node100</title>
<path fill="none" stroke="midnightblue" d="M1365.36,-148.24C1166.51,-146.92 650,-139.43 221,-98 216.43,-97.56 211.75,-97.05 207.03,-96.48"/>
<polygon fill="midnightblue" stroke="midnightblue" points="1365.43,-151.74 1375.45,-148.3 1365.47,-144.74 1365.43,-151.74"/>
</g>
<!-- Node101&#45;&gt;Node102 -->
<g id="edge13" class="edge">
<title>Node101&#45;&gt;Node102</title>
<path fill="none" stroke="midnightblue" d="M1365.13,-139.18C1258.45,-127.33 1074.56,-106.9 961.67,-94.35"/>
<polygon fill="midnightblue" stroke="midnightblue" points="1364.88,-142.67 1375.21,-140.3 1365.65,-135.72 1364.88,-142.67"/>
</g>
<!-- Node101&#45;&gt;Node105 -->
<g id="edge16" class="edge">
<title>Node101&#45;&gt;Node105</title>
<path fill="none" stroke="midnightblue" d="M1365.46,-133.12C1306.86,-122.33 1229.13,-108.01 1172.22,-97.53"/>
<polygon fill="midnightblue" stroke="midnightblue" points="1364.96,-136.58 1375.43,-134.95 1366.23,-129.7 1364.96,-136.58"/>
</g>
<!-- Node106 -->
<g id="node14" class="node">
<title>Node106</title>
<g id="a_node14"><a xlink:href="NativeEnumTypes_8cpp.html" target="_top" xlink:title="lib/DebugInfo/PDB/Native\l/NativeEnumTypes.cpp">
<polygon fill="none" stroke="black" points="1334,-0.5 1334,-30.5 1464,-30.5 1464,-0.5 1334,-0.5"/>
<text text-anchor="start" x="1342" y="-18.5" font-family="Helvetica,sans-Serif" font-size="10.00">lib/DebugInfo/PDB/Native</text>
<text text-anchor="middle" x="1399" y="-7.5" font-family="Helvetica,sans-Serif" font-size="10.00">/NativeEnumTypes.cpp</text>
</a>
</g>
</g>
<!-- Node101&#45;&gt;Node106 -->
<g id="edge41" class="edge">
<title>Node101&#45;&gt;Node106</title>
<path fill="none" stroke="midnightblue" d="M1472.71,-127.3C1488.34,-110.66 1503.92,-87.03 1492,-67 1481.86,-49.95 1463.72,-38.29 1446.14,-30.52"/>
<polygon fill="midnightblue" stroke="midnightblue" points="1470.2,-124.86 1465.62,-134.42 1475.16,-129.8 1470.2,-124.86"/>
</g>
<!-- Node101&#45;&gt;Node108 -->
<g id="edge23" class="edge">
<title>Node101&#45;&gt;Node108</title>
<path fill="none" stroke="midnightblue" d="M1532.57,-137.02C1615.78,-125.58 1743.2,-108.07 1829.43,-96.22"/>
<polygon fill="midnightblue" stroke="midnightblue" points="1532.08,-133.55 1522.65,-138.38 1533.03,-140.49 1532.08,-133.55"/>
</g>
<!-- Node101&#45;&gt;Node110 -->
<g id="edge26" class="edge">
<title>Node101&#45;&gt;Node110</title>
<path fill="none" stroke="midnightblue" d="M1532.93,-142.99C1645.08,-135.2 1849.92,-119.49 2024,-98 2026.86,-97.65 2029.76,-97.27 2032.7,-96.88"/>
<polygon fill="midnightblue" stroke="midnightblue" points="1532.43,-139.51 1522.7,-143.7 1532.91,-146.5 1532.43,-139.51"/>
</g>
<!-- Node101&#45;&gt;Node112 -->
<g id="edge29" class="edge">
<title>Node101&#45;&gt;Node112</title>
<path fill="none" stroke="midnightblue" d="M1532.74,-145.28C1672.54,-139.38 1962.2,-124.88 2206,-98 2209.12,-97.66 2212.29,-97.28 2215.49,-96.89"/>
<polygon fill="midnightblue" stroke="midnightblue" points="1532.37,-141.79 1522.53,-145.71 1532.67,-148.79 1532.37,-141.79"/>
</g>
<!-- Node101&#45;&gt;Node114 -->
<g id="edge32" class="edge">
<title>Node101&#45;&gt;Node114</title>
<path fill="none" stroke="midnightblue" d="M1532.91,-148.02C1716.43,-146.23 2167.04,-137.77 2542,-98 2545.05,-97.68 2548.15,-97.32 2551.27,-96.92"/>
<polygon fill="midnightblue" stroke="midnightblue" points="1532.76,-144.52 1522.79,-148.11 1532.82,-151.52 1532.76,-144.52"/>
</g>
<!-- Node101&#45;&gt;Node116 -->
<g id="edge35" class="edge">
<title>Node101&#45;&gt;Node116</title>
<path fill="none" stroke="midnightblue" d="M1532.75,-148.34C1736.02,-147.27 2271.51,-140.3 2716,-98 2718.94,-97.72 2721.92,-97.41 2724.93,-97.08"/>
<polygon fill="midnightblue" stroke="midnightblue" points="1532.72,-144.84 1522.74,-148.39 1532.76,-151.84 1532.72,-144.84"/>
</g>
<!-- Node118 -->
<g id="node26" class="node">
<title>Node118</title>
<g id="a_node26"><a xlink:href="NativeEnumGlobals_8cpp.html" target="_top" xlink:title="lib/DebugInfo/PDB/Native\l/NativeEnumGlobals.cpp">
<polygon fill="none" stroke="black" points="1194,-67.5 1194,-97.5 1324,-97.5 1324,-67.5 1194,-67.5"/>
<text text-anchor="start" x="1202" y="-85.5" font-family="Helvetica,sans-Serif" font-size="10.00">lib/DebugInfo/PDB/Native</text>
<text text-anchor="middle" x="1259" y="-74.5" font-family="Helvetica,sans-Serif" font-size="10.00">/NativeEnumGlobals.cpp</text>
</a>
</g>
</g>
<!-- Node101&#45;&gt;Node118 -->
<g id="edge39" class="edge">
<title>Node101&#45;&gt;Node118</title>
<path fill="none" stroke="midnightblue" d="M1398.11,-131.09C1367.44,-120.6 1328.89,-107.41 1300.15,-97.58"/>
<polygon fill="midnightblue" stroke="midnightblue" points="1397.18,-134.47 1407.77,-134.4 1399.44,-127.85 1397.18,-134.47"/>
</g>
<!-- Node101&#45;&gt;Node119 -->
<g id="edge42" class="edge">
<title>Node101&#45;&gt;Node119</title>
<path fill="none" stroke="midnightblue" d="M1532.62,-147.96C1697.85,-146.02 2077.59,-137.26 2394,-98 2396.86,-97.65 2399.77,-97.24 2402.71,-96.81"/>
<polygon fill="midnightblue" stroke="midnightblue" points="1532.49,-144.46 1522.53,-148.07 1532.57,-151.46 1532.49,-144.46"/>
</g>
<!-- Node120 -->
<g id="node28" class="node">
<title>Node120</title>
<g id="a_node28"><a xlink:href="PDB_8cpp.html" target="_top" xlink:title="lib/DebugInfo/PDB/PDB.cpp">
<polygon fill="none" stroke="black" points="1342.5,-73 1342.5,-92 1483.5,-92 1483.5,-73 1342.5,-73"/>
<text text-anchor="middle" x="1413" y="-80" font-family="Helvetica,sans-Serif" font-size="10.00">lib/DebugInfo/PDB/PDB.cpp</text>
</a>
</g>
</g>
<!-- Node101&#45;&gt;Node120 -->
<g id="edge45" class="edge">
<title>Node101&#45;&gt;Node120</title>
<path fill="none" stroke="midnightblue" d="M1436.33,-125.63C1429.93,-114.07 1422.53,-100.71 1417.82,-92.19"/>
<polygon fill="midnightblue" stroke="midnightblue" points="1433.28,-127.34 1441.19,-134.4 1439.41,-123.95 1433.28,-127.34"/>
</g>
<!-- Node103 -->
<g id="node11" class="node">
<title>Node103</title>
<g id="a_node11"><a xlink:href="NativeSymbolEnumerator_8cpp.html" target="_top" xlink:title="lib/DebugInfo/PDB/Native\l/NativeSymbolEnumerator.cpp">
<polygon fill="none" stroke="black" points="756,-0.5 756,-30.5 906,-30.5 906,-0.5 756,-0.5"/>
<text text-anchor="start" x="764" y="-18.5" font-family="Helvetica,sans-Serif" font-size="10.00">lib/DebugInfo/PDB/Native</text>
<text text-anchor="middle" x="831" y="-7.5" font-family="Helvetica,sans-Serif" font-size="10.00">/NativeSymbolEnumerator.cpp</text>
</a>
</g>
</g>
<!-- Node102&#45;&gt;Node103 -->
<g id="edge14" class="edge">
<title>Node102&#45;&gt;Node103</title>
<path fill="none" stroke="midnightblue" d="M852.21,-58.28C847.51,-49.02 842.25,-38.66 838.15,-30.58"/>
<polygon fill="midnightblue" stroke="midnightblue" points="849.19,-60.06 856.84,-67.4 855.43,-56.89 849.19,-60.06"/>
</g>
<!-- Node104 -->
<g id="node12" class="node">
<title>Node104</title>
<g id="a_node12"><a xlink:href="NativeTypeEnum_8cpp.html" target="_top" xlink:title="lib/DebugInfo/PDB/Native\l/NativeTypeEnum.cpp">
<polygon fill="none" stroke="black" points="924,-0.5 924,-30.5 1054,-30.5 1054,-0.5 924,-0.5"/>
<text text-anchor="start" x="932" y="-18.5" font-family="Helvetica,sans-Serif" font-size="10.00">lib/DebugInfo/PDB/Native</text>
<text text-anchor="middle" x="989" y="-7.5" font-family="Helvetica,sans-Serif" font-size="10.00">/NativeTypeEnum.cpp</text>
</a>
</g>
</g>
<!-- Node102&#45;&gt;Node104 -->
<g id="edge15" class="edge">
<title>Node102&#45;&gt;Node104</title>
<path fill="none" stroke="midnightblue" d="M900.13,-62.71C919.84,-52.46 943.84,-39.98 961.93,-30.58"/>
<polygon fill="midnightblue" stroke="midnightblue" points="898.38,-59.68 891.12,-67.4 901.61,-65.89 898.38,-59.68"/>
</g>
<!-- Node105&#45;&gt;Node98 -->
<g id="edge18" class="edge">
<title>Node105&#45;&gt;Node98</title>
<path fill="none" stroke="midnightblue" d="M1006.21,-70.97C994.04,-69.6 981.72,-68.24 970,-67 805.26,-49.53 762.92,-54.96 599,-31 596.15,-30.58 593.24,-30.13 590.31,-29.65"/>
<polygon fill="midnightblue" stroke="midnightblue" points="1006.04,-74.47 1016.37,-72.12 1006.83,-67.52 1006.04,-74.47"/>
</g>
<!-- Node105&#45;&gt;Node99 -->
<g id="edge22" class="edge">
<title>Node105&#45;&gt;Node99</title>
<path fill="none" stroke="midnightblue" d="M1185.47,-67C1365.75,-44.32 1565.67,-28.43 1666.58,-21.06"/>
<polygon fill="midnightblue" stroke="midnightblue" points="1185.02,-63.53 1175.54,-68.26 1185.9,-70.48 1185.02,-63.53"/>
</g>
<!-- Node105&#45;&gt;Node103 -->
<g id="edge19" class="edge">
<title>Node105&#45;&gt;Node103</title>
<path fill="none" stroke="midnightblue" d="M1028.94,-65.05C985.62,-54.43 929.83,-40.74 888.53,-30.61"/>
<polygon fill="midnightblue" stroke="midnightblue" points="1028.28,-68.49 1038.83,-67.48 1029.95,-61.69 1028.28,-68.49"/>
</g>
<!-- Node105&#45;&gt;Node104 -->
<g id="edge21" class="edge">
<title>Node105&#45;&gt;Node104</title>
<path fill="none" stroke="midnightblue" d="M1063.92,-62.02C1047.27,-51.9 1027.31,-39.77 1012.17,-30.58"/>
<polygon fill="midnightblue" stroke="midnightblue" points="1062.42,-65.2 1072.78,-67.4 1066.05,-59.21 1062.42,-65.2"/>
</g>
<!-- Node105&#45;&gt;Node106 -->
<g id="edge17" class="edge">
<title>Node105&#45;&gt;Node106</title>
<path fill="none" stroke="midnightblue" d="M1171.46,-65.31C1221.35,-54.61 1286.08,-40.72 1333.74,-30.5"/>
<polygon fill="midnightblue" stroke="midnightblue" points="1170.42,-61.96 1161.37,-67.48 1171.89,-68.8 1170.42,-61.96"/>
</g>
<!-- Node107 -->
<g id="node15" class="node">
<title>Node107</title>
<g id="a_node15"><a xlink:href="NativeTypeArray_8cpp.html" target="_top" xlink:title="lib/DebugInfo/PDB/Native\l/NativeTypeArray.cpp">
<polygon fill="none" stroke="black" points="1072,-0.5 1072,-30.5 1202,-30.5 1202,-0.5 1072,-0.5"/>
<text text-anchor="start" x="1080" y="-18.5" font-family="Helvetica,sans-Serif" font-size="10.00">lib/DebugInfo/PDB/Native</text>
<text text-anchor="middle" x="1137" y="-7.5" font-family="Helvetica,sans-Serif" font-size="10.00">/NativeTypeArray.cpp</text>
</a>
</g>
</g>
<!-- Node105&#45;&gt;Node107 -->
<g id="edge20" class="edge">
<title>Node105&#45;&gt;Node107</title>
<path fill="none" stroke="midnightblue" d="M1110.28,-58.87C1116.21,-49.46 1122.91,-38.83 1128.12,-30.58"/>
<polygon fill="midnightblue" stroke="midnightblue" points="1107.27,-57.07 1104.9,-67.4 1113.19,-60.81 1107.27,-57.07"/>
</g>
<!-- Node108&#45;&gt;Node99 -->
<g id="edge25" class="edge">
<title>Node108&#45;&gt;Node99</title>
<path fill="none" stroke="midnightblue" d="M1871.11,-64.09C1840.44,-53.6 1801.89,-40.41 1773.15,-30.58"/>
<polygon fill="midnightblue" stroke="midnightblue" points="1870.18,-67.47 1880.77,-67.4 1872.44,-60.85 1870.18,-67.47"/>
</g>
<!-- Node109 -->
<g id="node17" class="node">
<title>Node109</title>
<g id="a_node17"><a xlink:href="NativeTypeFunctionSig_8cpp.html" target="_top" xlink:title="lib/DebugInfo/PDB/Native\l/NativeTypeFunctionSig.cpp">
<polygon fill="none" stroke="black" points="1852,-0.5 1852,-30.5 1992,-30.5 1992,-0.5 1852,-0.5"/>
<text text-anchor="start" x="1860" y="-18.5" font-family="Helvetica,sans-Serif" font-size="10.00">lib/DebugInfo/PDB/Native</text>
<text text-anchor="middle" x="1922" y="-7.5" font-family="Helvetica,sans-Serif" font-size="10.00">/NativeTypeFunctionSig.cpp</text>
</a>
</g>
</g>
<!-- Node108&#45;&gt;Node109 -->
<g id="edge24" class="edge">
<title>Node108&#45;&gt;Node109</title>
<path fill="none" stroke="midnightblue" d="M1922,-57.11C1922,-48.15 1922,-38.32 1922,-30.58"/>
<polygon fill="midnightblue" stroke="midnightblue" points="1918.5,-57.4 1922,-67.4 1925.5,-57.4 1918.5,-57.4"/>
</g>
<!-- Node110&#45;&gt;Node99 -->
<g id="edge28" class="edge">
<title>Node110&#45;&gt;Node99</title>
<path fill="none" stroke="midnightblue" d="M2022.74,-65.84C1953.08,-54.02 1859.21,-38.09 1797.21,-27.57"/>
<polygon fill="midnightblue" stroke="midnightblue" points="2022.39,-69.33 2032.84,-67.56 2023.56,-62.43 2022.39,-69.33"/>
</g>
<!-- Node111 -->
<g id="node19" class="node">
<title>Node111</title>
<g id="a_node19"><a xlink:href="NativeTypePointer_8cpp.html" target="_top" xlink:title="lib/DebugInfo/PDB/Native\l/NativeTypePointer.cpp">
<polygon fill="none" stroke="black" points="2050,-0.5 2050,-30.5 2180,-30.5 2180,-0.5 2050,-0.5"/>
<text text-anchor="start" x="2058" y="-18.5" font-family="Helvetica,sans-Serif" font-size="10.00">lib/DebugInfo/PDB/Native</text>
<text text-anchor="middle" x="2115" y="-7.5" font-family="Helvetica,sans-Serif" font-size="10.00">/NativeTypePointer.cpp</text>
</a>
</g>
</g>
<!-- Node110&#45;&gt;Node111 -->
<g id="edge27" class="edge">
<title>Node110&#45;&gt;Node111</title>
<path fill="none" stroke="midnightblue" d="M2115,-57.11C2115,-48.15 2115,-38.32 2115,-30.58"/>
<polygon fill="midnightblue" stroke="midnightblue" points="2111.5,-57.4 2115,-67.4 2118.5,-57.4 2111.5,-57.4"/>
</g>
<!-- Node112&#45;&gt;Node99 -->
<g id="edge31" class="edge">
<title>Node112&#45;&gt;Node99</title>
<path fill="none" stroke="midnightblue" d="M2205.16,-66.94C2043.42,-46.74 2000.76,-49.12 1843,-31 1828.13,-29.29 1812.17,-27.3 1797.11,-25.35"/>
<polygon fill="midnightblue" stroke="midnightblue" points="2205.12,-70.46 2215.48,-68.24 2205.99,-63.52 2205.12,-70.46"/>
</g>
<!-- Node113 -->
<g id="node21" class="node">
<title>Node113</title>
<g id="a_node21"><a xlink:href="NativeTypeTypedef_8cpp.html" target="_top" xlink:title="lib/DebugInfo/PDB/Native\l/NativeTypeTypedef.cpp">
<polygon fill="none" stroke="black" points="2235,-0.5 2235,-30.5 2365,-30.5 2365,-0.5 2235,-0.5"/>
<text text-anchor="start" x="2243" y="-18.5" font-family="Helvetica,sans-Serif" font-size="10.00">lib/DebugInfo/PDB/Native</text>
<text text-anchor="middle" x="2300" y="-7.5" font-family="Helvetica,sans-Serif" font-size="10.00">/NativeTypeTypedef.cpp</text>
</a>
</g>
</g>
<!-- Node112&#45;&gt;Node113 -->
<g id="edge30" class="edge">
<title>Node112&#45;&gt;Node113</title>
<path fill="none" stroke="midnightblue" d="M2300,-57.11C2300,-48.15 2300,-38.32 2300,-30.58"/>
<polygon fill="midnightblue" stroke="midnightblue" points="2296.5,-57.4 2300,-67.4 2303.5,-57.4 2296.5,-57.4"/>
</g>
<!-- Node114&#45;&gt;Node99 -->
<g id="edge34" class="edge">
<title>Node114&#45;&gt;Node99</title>
<path fill="none" stroke="midnightblue" d="M2541.09,-67C2231,-33.92 2149.47,-58.87 1843,-31 1828.1,-29.64 1812.12,-27.79 1797.06,-25.87"/>
<polygon fill="midnightblue" stroke="midnightblue" points="2540.95,-70.5 2551.27,-68.1 2541.71,-63.54 2540.95,-70.5"/>
</g>
<!-- Node115 -->
<g id="node23" class="node">
<title>Node115</title>
<g id="a_node23"><a xlink:href="NativeTypeUDT_8cpp.html" target="_top" xlink:title="lib/DebugInfo/PDB/Native\l/NativeTypeUDT.cpp">
<polygon fill="none" stroke="black" points="2564,-0.5 2564,-30.5 2694,-30.5 2694,-0.5 2564,-0.5"/>
<text text-anchor="start" x="2572" y="-18.5" font-family="Helvetica,sans-Serif" font-size="10.00">lib/DebugInfo/PDB/Native</text>
<text text-anchor="middle" x="2629" y="-7.5" font-family="Helvetica,sans-Serif" font-size="10.00">/NativeTypeUDT.cpp</text>
</a>
</g>
</g>
<!-- Node114&#45;&gt;Node115 -->
<g id="edge33" class="edge">
<title>Node114&#45;&gt;Node115</title>
<path fill="none" stroke="midnightblue" d="M2629,-57.11C2629,-48.15 2629,-38.32 2629,-30.58"/>
<polygon fill="midnightblue" stroke="midnightblue" points="2625.5,-57.4 2629,-67.4 2632.5,-57.4 2625.5,-57.4"/>
</g>
<!-- Node116&#45;&gt;Node99 -->
<g id="edge37" class="edge">
<title>Node116&#45;&gt;Node99</title>
<path fill="none" stroke="midnightblue" d="M2714.86,-66.97C2327.72,-30.53 2226.6,-63.9 1843,-31 1828.09,-29.72 1812.11,-27.9 1797.05,-25.98"/>
<polygon fill="midnightblue" stroke="midnightblue" points="2714.64,-70.46 2724.93,-67.93 2715.31,-63.5 2714.64,-70.46"/>
</g>
<!-- Node117 -->
<g id="node25" class="node">
<title>Node117</title>
<g id="a_node25"><a xlink:href="NativeTypeVTShape_8cpp.html" target="_top" xlink:title="lib/DebugInfo/PDB/Native\l/NativeTypeVTShape.cpp">
<polygon fill="none" stroke="black" points="2747,-0.5 2747,-30.5 2877,-30.5 2877,-0.5 2747,-0.5"/>
<text text-anchor="start" x="2755" y="-18.5" font-family="Helvetica,sans-Serif" font-size="10.00">lib/DebugInfo/PDB/Native</text>
<text text-anchor="middle" x="2812" y="-7.5" font-family="Helvetica,sans-Serif" font-size="10.00">/NativeTypeVTShape.cpp</text>
</a>
</g>
</g>
<!-- Node116&#45;&gt;Node117 -->
<g id="edge36" class="edge">
<title>Node116&#45;&gt;Node117</title>
<path fill="none" stroke="midnightblue" d="M2812,-57.11C2812,-48.15 2812,-38.32 2812,-30.58"/>
<polygon fill="midnightblue" stroke="midnightblue" points="2808.5,-57.4 2812,-67.4 2815.5,-57.4 2808.5,-57.4"/>
</g>
<!-- Node121&#45;&gt;Node99 -->
<g id="edge49" class="edge">
<title>Node121&#45;&gt;Node99</title>
<path fill="none" stroke="midnightblue" d="M1708.05,-58.58C1713.36,-49.24 1719.34,-38.75 1723.99,-30.58"/>
<polygon fill="midnightblue" stroke="midnightblue" points="1704.93,-56.97 1703.03,-67.4 1711.02,-60.44 1704.93,-56.97"/>
</g>
<!-- Node121&#45;&gt;Node107 -->
<g id="edge48" class="edge">
<title>Node121&#45;&gt;Node107</title>
<path fill="none" stroke="midnightblue" d="M1606.27,-71.16C1493.75,-58.06 1302.37,-35.76 1202.33,-24.11"/>
<polygon fill="midnightblue" stroke="midnightblue" points="1605.9,-74.64 1616.24,-72.32 1606.71,-67.69 1605.9,-74.64"/>
</g>
<!-- Node122&#45;&gt;Node98 -->
<g id="edge51" class="edge">
<title>Node122&#45;&gt;Node98</title>
<path fill="none" stroke="midnightblue" d="M627.59,-63.13C604.87,-52.8 576.94,-40.11 555.97,-30.58"/>
<polygon fill="midnightblue" stroke="midnightblue" points="626.42,-66.44 636.97,-67.4 629.32,-60.07 626.42,-66.44"/>
</g>
<!-- Node122&#45;&gt;Node99 -->
<g id="edge56" class="edge">
<title>Node122&#45;&gt;Node99</title>
<path fill="none" stroke="midnightblue" d="M759.34,-66.82C1075.61,-33.64 1158.24,-47.72 1473,-31 1539,-27.49 1614.44,-23.24 1666.81,-20.25"/>
<polygon fill="midnightblue" stroke="midnightblue" points="758.53,-63.39 748.95,-67.92 759.27,-70.35 758.53,-63.39"/>
</g>
<!-- Node122&#45;&gt;Node103 -->
<g id="edge52" class="edge">
<title>Node122&#45;&gt;Node103</title>
<path fill="none" stroke="midnightblue" d="M712.68,-63.68C738.83,-53.26 771.37,-40.28 795.7,-30.58"/>
<polygon fill="midnightblue" stroke="midnightblue" points="711.36,-60.44 703.37,-67.4 713.95,-66.94 711.36,-60.44"/>
</g>
<!-- Node122&#45;&gt;Node104 -->
<g id="edge55" class="edge">
<title>Node122&#45;&gt;Node104</title>
<path fill="none" stroke="midnightblue" d="M747.21,-65.46C801.6,-54.45 872.91,-40.01 923.97,-29.67"/>
<polygon fill="midnightblue" stroke="midnightblue" points="746.36,-62.06 737.26,-67.48 747.75,-68.92 746.36,-62.06"/>
</g>
<!-- Node122&#45;&gt;Node107 -->
<g id="edge53" class="edge">
<title>Node122&#45;&gt;Node107</title>
<path fill="none" stroke="midnightblue" d="M758.46,-66.84C894.31,-48.17 930.88,-51.68 1063,-31 1065.85,-30.55 1068.75,-30.08 1071.68,-29.58"/>
<polygon fill="midnightblue" stroke="midnightblue" points="757.93,-63.38 748.51,-68.22 758.89,-70.31 757.93,-63.38"/>
</g>
<!-- Node123 -->
<g id="node31" class="node">
<title>Node123</title>
<g id="a_node31"><a xlink:href="NativeTypeBuiltin_8cpp.html" target="_top" xlink:title="lib/DebugInfo/PDB/Native\l/NativeTypeBuiltin.cpp">
<polygon fill="none" stroke="black" points="608,-0.5 608,-30.5 738,-30.5 738,-0.5 608,-0.5"/>
<text text-anchor="start" x="616" y="-18.5" font-family="Helvetica,sans-Serif" font-size="10.00">lib/DebugInfo/PDB/Native</text>
<text text-anchor="middle" x="673" y="-7.5" font-family="Helvetica,sans-Serif" font-size="10.00">/NativeTypeBuiltin.cpp</text>
</a>
</g>
</g>
<!-- Node122&#45;&gt;Node123 -->
<g id="edge54" class="edge">
<title>Node122&#45;&gt;Node123</title>
<path fill="none" stroke="midnightblue" d="M669.85,-57.4C670.55,-48.37 671.31,-38.41 671.92,-30.58"/>
<polygon fill="midnightblue" stroke="midnightblue" points="666.36,-57.16 669.08,-67.4 673.34,-57.69 666.36,-57.16"/>
</g>
<!-- Node124&#45;&gt;Node97 -->
<g id="edge65" class="edge">
<title>Node124&#45;&gt;Node97</title>
<path fill="none" stroke="midnightblue" d="M1016.24,-207.32C918.79,-197.61 752.06,-180.74 609,-165 354.14,-136.97 206.45,-289.54 36,-98 18.73,-78.59 38.04,-48.19 52.38,-30.53"/>
<polygon fill="midnightblue" stroke="midnightblue" points="1016.03,-210.82 1026.32,-208.32 1016.72,-203.85 1016.03,-210.82"/>
</g>
<!-- Node124&#45;&gt;Node98 -->
<g id="edge66" class="edge">
<title>Node124&#45;&gt;Node98</title>
<path fill="none" stroke="midnightblue" d="M1016.38,-208.63C878.82,-195.51 611.35,-162.28 545,-98 526.79,-80.36 524.1,-49.05 524.24,-30.8"/>
<polygon fill="midnightblue" stroke="midnightblue" points="1016.17,-212.13 1026.46,-209.58 1016.83,-205.16 1016.17,-212.13"/>
</g>
<!-- Node124&#45;&gt;Node99 -->
<g id="edge68" class="edge">
<title>Node124&#45;&gt;Node99</title>
<path fill="none" stroke="midnightblue" d="M1182.11,-213.36C1290.5,-209.29 1473.11,-197.67 1531,-165 1579,-137.91 1563.04,-100.25 1607,-67 1628.65,-50.62 1656.35,-38.72 1680.17,-30.6"/>
<polygon fill="midnightblue" stroke="midnightblue" points="1181.73,-209.87 1171.86,-213.73 1181.98,-216.87 1181.73,-209.87"/>
</g>
<!-- Node124&#45;&gt;Node101 -->
<g id="edge64" class="edge">
<title>Node124&#45;&gt;Node101</title>
<path fill="none" stroke="midnightblue" d="M1181.52,-200.17C1240.33,-189.25 1318.68,-174.7 1375.37,-164.17"/>
<polygon fill="midnightblue" stroke="midnightblue" points="1180.71,-196.76 1171.52,-202.03 1181.99,-203.65 1180.71,-196.76"/>
</g>
<!-- Node124&#45;&gt;Node104 -->
<g id="edge67" class="edge">
<title>Node124&#45;&gt;Node104</title>
<path fill="none" stroke="midnightblue" d="M1077.4,-194.19C1056.25,-172.07 1024.7,-135.52 1007,-98 996.55,-75.85 992.05,-47.43 990.2,-30.67"/>
<polygon fill="midnightblue" stroke="midnightblue" points="1074.92,-196.66 1084.41,-201.39 1079.94,-191.78 1074.92,-196.66"/>
</g>
</g>
</svg>
