<?xml version="1.0" encoding="UTF-8" standalone="no"?>
<!DOCTYPE svg PUBLIC "-//W3C//DTD SVG 1.1//EN"
 "http://www.w3.org/Graphics/SVG/1.1/DTD/svg11.dtd">
<!-- Generated by graphviz version 2.43.0 (0)
 -->
<!-- Title: lib/Target/NVPTX/MCTargetDesc/NVPTXTargetStreamer.h Pages: 1 -->
<svg width="521pt" height="106pt"
 viewBox="0.00 0.00 520.50 106.00" xmlns="http://www.w3.org/2000/svg" xmlns:xlink="http://www.w3.org/1999/xlink">
<g id="graph0" class="graph" transform="scale(1 1) rotate(0) translate(4 102)">
<title>lib/Target/NVPTX/MCTargetDesc/NVPTXTargetStreamer.h</title>
<!-- Node98 -->
<g id="node1" class="node">
<title>Node98</title>
<polygon fill="#bfbfbf" stroke="black" points="186,-67.5 186,-97.5 338,-97.5 338,-67.5 186,-67.5"/>
<text text-anchor="start" x="194" y="-85.5" font-family="Helvetica,sans-Serif" font-size="10.00">lib/Target/NVPTX/MCTarget</text>
<text text-anchor="middle" x="262" y="-74.5" font-family="Helvetica,sans-Serif" font-size="10.00">Desc/NVPTXTargetStreamer.h</text>
</g>
<!-- Node99 -->
<g id="node2" class="node">
<title>Node99</title>
<g id="a_node2"><a xlink:href="NVPTXMCTargetDesc_8cpp.html" target="_top" xlink:title="lib/Target/NVPTX/MCTarget\lDesc/NVPTXMCTargetDesc.cpp">
<polygon fill="none" stroke="black" points="0,-0.5 0,-30.5 162,-30.5 162,-0.5 0,-0.5"/>
<text text-anchor="start" x="8" y="-18.5" font-family="Helvetica,sans-Serif" font-size="10.00">lib/Target/NVPTX/MCTarget</text>
<text text-anchor="middle" x="81" y="-7.5" font-family="Helvetica,sans-Serif" font-size="10.00">Desc/NVPTXMCTargetDesc.cpp</text>
</a>
</g>
</g>
<!-- Node98&#45;&gt;Node99 -->
<g id="edge1" class="edge">
<title>Node98&#45;&gt;Node99</title>
<path fill="none" stroke="midnightblue" d="M213.14,-63.96C183.99,-53.48 147.46,-40.37 120.2,-30.58"/>
<polygon fill="midnightblue" stroke="midnightblue" points="212.13,-67.31 222.73,-67.4 214.5,-60.72 212.13,-67.31"/>
</g>
<!-- Node100 -->
<g id="node3" class="node">
<title>Node100</title>
<g id="a_node3"><a xlink:href="NVPTXTargetStreamer_8cpp.html" target="_top" xlink:title="lib/Target/NVPTX/MCTarget\lDesc/NVPTXTargetStreamer.cpp">
<polygon fill="none" stroke="black" points="180.5,-0.5 180.5,-30.5 343.5,-30.5 343.5,-0.5 180.5,-0.5"/>
<text text-anchor="start" x="188.5" y="-18.5" font-family="Helvetica,sans-Serif" font-size="10.00">lib/Target/NVPTX/MCTarget</text>
<text text-anchor="middle" x="262" y="-7.5" font-family="Helvetica,sans-Serif" font-size="10.00">Desc/NVPTXTargetStreamer.cpp</text>
</a>
</g>
</g>
<!-- Node98&#45;&gt;Node100 -->
<g id="edge2" class="edge">
<title>Node98&#45;&gt;Node100</title>
<path fill="none" stroke="midnightblue" d="M262,-57.11C262,-48.15 262,-38.32 262,-30.58"/>
<polygon fill="midnightblue" stroke="midnightblue" points="258.5,-57.4 262,-67.4 265.5,-57.4 258.5,-57.4"/>
</g>
<!-- Node101 -->
<g id="node4" class="node">
<title>Node101</title>
<g id="a_node4"><a xlink:href="NVPTXAsmPrinter_8cpp.html" target="_top" xlink:title="lib/Target/NVPTX/NVPTXAsm\lPrinter.cpp">
<polygon fill="none" stroke="black" points="361.5,-0.5 361.5,-30.5 512.5,-30.5 512.5,-0.5 361.5,-0.5"/>
<text text-anchor="start" x="369.5" y="-18.5" font-family="Helvetica,sans-Serif" font-size="10.00">lib/Target/NVPTX/NVPTXAsm</text>
<text text-anchor="middle" x="437" y="-7.5" font-family="Helvetica,sans-Serif" font-size="10.00">Printer.cpp</text>
</a>
</g>
</g>
<!-- Node98&#45;&gt;Node101 -->
<g id="edge3" class="edge">
<title>Node98&#45;&gt;Node101</title>
<path fill="none" stroke="midnightblue" d="M309.6,-63.82C337.73,-53.37 372.86,-40.32 399.1,-30.58"/>
<polygon fill="midnightblue" stroke="midnightblue" points="308.13,-60.63 299.97,-67.4 310.57,-67.2 308.13,-60.63"/>
</g>
</g>
</svg>
