<?xml version="1.0" encoding="UTF-8" standalone="no"?>
<!DOCTYPE svg PUBLIC "-//W3C//DTD SVG 1.1//EN"
 "http://www.w3.org/Graphics/SVG/1.1/DTD/svg11.dtd">
<!-- Generated by graphviz version 2.43.0 (0)
 -->
<!-- Title: lib/Target/NVPTX/NVPTXMachineFunctionInfo.h Pages: 1 -->
<svg width="344pt" height="106pt"
 viewBox="0.00 0.00 344.00 106.00" xmlns="http://www.w3.org/2000/svg" xmlns:xlink="http://www.w3.org/1999/xlink">
<g id="graph0" class="graph" transform="scale(1 1) rotate(0) translate(4 102)">
<title>lib/Target/NVPTX/NVPTXMachineFunctionInfo.h</title>
<!-- Node146 -->
<g id="node1" class="node">
<title>Node146</title>
<polygon fill="#bfbfbf" stroke="black" points="80,-67.5 80,-97.5 247,-97.5 247,-67.5 80,-67.5"/>
<text text-anchor="start" x="88" y="-85.5" font-family="Helvetica,sans-Serif" font-size="10.00">lib/Target/NVPTX/NVPTXMachine</text>
<text text-anchor="middle" x="163.5" y="-74.5" font-family="Helvetica,sans-Serif" font-size="10.00">FunctionInfo.h</text>
</g>
<!-- Node147 -->
<g id="node2" class="node">
<title>Node147</title>
<g id="a_node2"><a xlink:href="NVPTXAsmPrinter_8cpp.html" target="_top" xlink:title="lib/Target/NVPTX/NVPTXAsm\lPrinter.cpp">
<polygon fill="none" stroke="black" points="0,-0.5 0,-30.5 151,-30.5 151,-0.5 0,-0.5"/>
<text text-anchor="start" x="8" y="-18.5" font-family="Helvetica,sans-Serif" font-size="10.00">lib/Target/NVPTX/NVPTXAsm</text>
<text text-anchor="middle" x="75.5" y="-7.5" font-family="Helvetica,sans-Serif" font-size="10.00">Printer.cpp</text>
</a>
</g>
</g>
<!-- Node146&#45;&gt;Node147 -->
<g id="edge1" class="edge">
<title>Node146&#45;&gt;Node147</title>
<path fill="none" stroke="midnightblue" d="M136.36,-61.45C122.82,-51.45 106.77,-39.6 94.56,-30.58"/>
<polygon fill="midnightblue" stroke="midnightblue" points="134.28,-64.27 144.41,-67.4 138.44,-58.64 134.28,-64.27"/>
</g>
<!-- Node148 -->
<g id="node3" class="node">
<title>Node148</title>
<g id="a_node3"><a xlink:href="NVPTXReplaceImageHandles_8cpp.html" target="_top" xlink:title="lib/Target/NVPTX/NVPTXReplace\lImageHandles.cpp">
<polygon fill="none" stroke="black" points="169,-0.5 169,-30.5 336,-30.5 336,-0.5 169,-0.5"/>
<text text-anchor="start" x="177" y="-18.5" font-family="Helvetica,sans-Serif" font-size="10.00">lib/Target/NVPTX/NVPTXReplace</text>
<text text-anchor="middle" x="252.5" y="-7.5" font-family="Helvetica,sans-Serif" font-size="10.00">ImageHandles.cpp</text>
</a>
</g>
</g>
<!-- Node146&#45;&gt;Node148 -->
<g id="edge2" class="edge">
<title>Node146&#45;&gt;Node148</title>
<path fill="none" stroke="midnightblue" d="M190.95,-61.45C204.64,-51.45 220.87,-39.6 233.23,-30.58"/>
<polygon fill="midnightblue" stroke="midnightblue" points="188.82,-58.67 182.81,-67.4 192.95,-64.32 188.82,-58.67"/>
</g>
</g>
</svg>
