<?xml version="1.0" encoding="UTF-8" standalone="no"?>
<!DOCTYPE svg PUBLIC "-//W3C//DTD SVG 1.1//EN"
 "http://www.w3.org/Graphics/SVG/1.1/DTD/svg11.dtd">
<!-- Generated by graphviz version 2.43.0 (0)
 -->
<!-- Title: include/llvm/ExecutionEngine/OProfileWrapper.h Pages: 1 -->
<svg width="336pt" height="117pt"
 viewBox="0.00 0.00 336.00 117.00" xmlns="http://www.w3.org/2000/svg" xmlns:xlink="http://www.w3.org/1999/xlink">
<g id="graph0" class="graph" transform="scale(1 1) rotate(0) translate(4 113)">
<title>include/llvm/ExecutionEngine/OProfileWrapper.h</title>
<!-- Node8 -->
<g id="node1" class="node">
<title>Node8</title>
<polygon fill="#bfbfbf" stroke="black" points="87,-78.5 87,-108.5 232,-108.5 232,-78.5 87,-78.5"/>
<text text-anchor="start" x="95" y="-96.5" font-family="Helvetica,sans-Serif" font-size="10.00">include/llvm/ExecutionEngine</text>
<text text-anchor="middle" x="159.5" y="-85.5" font-family="Helvetica,sans-Serif" font-size="10.00">/OProfileWrapper.h</text>
</g>
<!-- Node9 -->
<g id="node2" class="node">
<title>Node9</title>
<g id="a_node2"><a xlink:href="OProfileJITEventListener_8cpp.html" target="_top" xlink:title="lib/ExecutionEngine\l/OProfileJIT/OProfileJITEvent\lListener.cpp">
<polygon fill="none" stroke="black" points="0,-0.5 0,-41.5 147,-41.5 147,-0.5 0,-0.5"/>
<text text-anchor="start" x="8" y="-29.5" font-family="Helvetica,sans-Serif" font-size="10.00">lib/ExecutionEngine</text>
<text text-anchor="start" x="8" y="-18.5" font-family="Helvetica,sans-Serif" font-size="10.00">/OProfileJIT/OProfileJITEvent</text>
<text text-anchor="middle" x="73.5" y="-7.5" font-family="Helvetica,sans-Serif" font-size="10.00">Listener.cpp</text>
</a>
</g>
</g>
<!-- Node8&#45;&gt;Node9 -->
<g id="edge1" class="edge">
<title>Node8&#45;&gt;Node9</title>
<path fill="none" stroke="midnightblue" d="M134.07,-71.66C122.47,-62.15 108.81,-50.94 97.4,-41.59"/>
<polygon fill="midnightblue" stroke="midnightblue" points="132.14,-74.6 142.1,-78.23 136.58,-69.19 132.14,-74.6"/>
</g>
<!-- Node10 -->
<g id="node3" class="node">
<title>Node10</title>
<g id="a_node3"><a xlink:href="OProfileWrapper_8cpp.html" target="_top" xlink:title="lib/ExecutionEngine\l/OProfileJIT/OProfileWrapper.cpp">
<polygon fill="none" stroke="black" points="165,-6 165,-36 328,-36 328,-6 165,-6"/>
<text text-anchor="start" x="173" y="-24" font-family="Helvetica,sans-Serif" font-size="10.00">lib/ExecutionEngine</text>
<text text-anchor="middle" x="246.5" y="-13" font-family="Helvetica,sans-Serif" font-size="10.00">/OProfileJIT/OProfileWrapper.cpp</text>
</a>
</g>
</g>
<!-- Node8&#45;&gt;Node10 -->
<g id="edge2" class="edge">
<title>Node8&#45;&gt;Node10</title>
<path fill="none" stroke="midnightblue" d="M185.06,-71.79C199.28,-60.27 216.6,-46.23 229.22,-36"/>
<polygon fill="midnightblue" stroke="midnightblue" points="182.67,-69.22 177.11,-78.23 187.08,-74.66 182.67,-69.22"/>
</g>
</g>
</svg>
