<?xml version="1.0" encoding="UTF-8" standalone="no"?>
<!DOCTYPE svg PUBLIC "-//W3C//DTD SVG 1.1//EN"
 "http://www.w3.org/Graphics/SVG/1.1/DTD/svg11.dtd">
<!-- Generated by graphviz version 2.43.0 (0)
 -->
<!-- Title: lib/IR/OptBisect.cpp Pages: 1 -->
<svg width="4064pt" height="599pt"
 viewBox="0.00 0.00 4064.00 599.00" xmlns="http://www.w3.org/2000/svg" xmlns:xlink="http://www.w3.org/1999/xlink">
<g id="graph0" class="graph" transform="scale(1 1) rotate(0) translate(4 595)">
<title>lib/IR/OptBisect.cpp</title>
<!-- Node0 -->
<g id="node1" class="node">
<title>Node0</title>
<polygon fill="#bfbfbf" stroke="black" points="843.5,-571.5 843.5,-590.5 948.5,-590.5 948.5,-571.5 843.5,-571.5"/>
<text text-anchor="middle" x="896" y="-578.5" font-family="Helvetica,sans-Serif" font-size="10.00">lib/IR/OptBisect.cpp</text>
</g>
<!-- Node1 -->
<g id="node2" class="node">
<title>Node1</title>
<g id="a_node2"><a xlink:href="OptBisect_8h.html" target="_top" xlink:title="This file declares the interface for bisecting optimizations. ">
<polygon fill="none" stroke="black" points="885.5,-515.5 885.5,-534.5 988.5,-534.5 988.5,-515.5 885.5,-515.5"/>
<text text-anchor="middle" x="937" y="-522.5" font-family="Helvetica,sans-Serif" font-size="10.00">llvm/IR/OptBisect.h</text>
</a>
</g>
</g>
<!-- Node0&#45;&gt;Node1 -->
<g id="edge1" class="edge">
<title>Node0&#45;&gt;Node1</title>
<path fill="none" stroke="midnightblue" d="M902.77,-571.08C908.56,-563.46 917.06,-552.26 924.14,-542.94"/>
<polygon fill="midnightblue" stroke="midnightblue" points="927.1,-544.83 930.36,-534.75 921.52,-540.6 927.1,-544.83"/>
</g>
<!-- Node2 -->
<g id="node3" class="node">
<title>Node2</title>
<g id="a_node3"><a xlink:href="StringRef_8h.html" target="_top" xlink:title="llvm/ADT/StringRef.h">
<polygon fill="none" stroke="black" points="894,-280.5 894,-299.5 1004,-299.5 1004,-280.5 894,-280.5"/>
<text text-anchor="middle" x="949" y="-287.5" font-family="Helvetica,sans-Serif" font-size="10.00">llvm/ADT/StringRef.h</text>
</a>
</g>
</g>
<!-- Node0&#45;&gt;Node2 -->
<g id="edge54" class="edge">
<title>Node0&#45;&gt;Node2</title>
<path fill="none" stroke="midnightblue" d="M888.26,-571.31C873.33,-553.59 842,-511.48 842,-470 842,-470 842,-470 842,-406.5 842,-359.23 890.83,-323.12 922.51,-304.66"/>
<polygon fill="midnightblue" stroke="midnightblue" points="924.32,-307.66 931.33,-299.72 920.9,-301.55 924.32,-307.66"/>
</g>
<!-- Node12 -->
<g id="node13" class="node">
<title>Node12</title>
<polygon fill="none" stroke="#bfbfbf" points="1293.5,-112.5 1293.5,-131.5 1342.5,-131.5 1342.5,-112.5 1293.5,-112.5"/>
<text text-anchor="middle" x="1318" y="-119.5" font-family="Helvetica,sans-Serif" font-size="10.00">cassert</text>
</g>
<!-- Node0&#45;&gt;Node12 -->
<g id="edge191" class="edge">
<title>Node0&#45;&gt;Node12</title>
<path fill="none" stroke="midnightblue" d="M843.4,-577.23C681.26,-568 200,-535.1 200,-470 200,-470 200,-470 200,-406.5 200,-289.45 327.25,-334.2 431,-280 530.01,-228.27 548.19,-197.24 656,-168 775.94,-135.47 1163.96,-125.81 1282.97,-123.57"/>
<polygon fill="midnightblue" stroke="midnightblue" points="1283.38,-127.07 1293.31,-123.39 1283.25,-120.07 1283.38,-127.07"/>
</g>
<!-- Node22 -->
<g id="node23" class="node">
<title>Node22</title>
<polygon fill="none" stroke="#bfbfbf" points="465.5,-112.5 465.5,-131.5 506.5,-131.5 506.5,-112.5 465.5,-112.5"/>
<text text-anchor="middle" x="486" y="-119.5" font-family="Helvetica,sans-Serif" font-size="10.00">string</text>
</g>
<!-- Node0&#45;&gt;Node22 -->
<g id="edge193" class="edge">
<title>Node0&#45;&gt;Node22</title>
<path fill="none" stroke="midnightblue" d="M843.3,-579.11C651.23,-575.17 0,-555.51 0,-470 0,-470 0,-470 0,-289 0,-208.43 61.73,-201.53 135,-168 191.84,-141.99 380.1,-128.9 454.93,-124.62"/>
<polygon fill="midnightblue" stroke="midnightblue" points="455.33,-128.1 465.12,-124.05 454.94,-121.11 455.33,-128.1"/>
</g>
<!-- Node27 -->
<g id="node28" class="node">
<title>Node27</title>
<polygon fill="none" stroke="#bfbfbf" points="2996,-168.5 2996,-187.5 3036,-187.5 3036,-168.5 2996,-168.5"/>
<text text-anchor="middle" x="3016" y="-175.5" font-family="Helvetica,sans-Serif" font-size="10.00">limits</text>
</g>
<!-- Node0&#45;&gt;Node27 -->
<g id="edge192" class="edge">
<title>Node0&#45;&gt;Node27</title>
<path fill="none" stroke="midnightblue" d="M948.63,-579.31C1328.64,-574.16 3638,-539.96 3638,-470 3638,-470 3638,-470 3638,-289 3638,-198.91 3534.01,-243.25 3446,-224 3407.12,-215.49 3137.49,-190.19 3046.17,-181.77"/>
<polygon fill="midnightblue" stroke="midnightblue" points="3046.46,-178.28 3036.18,-180.85 3045.82,-185.25 3046.46,-178.28"/>
</g>
<!-- Node30 -->
<g id="node31" class="node">
<title>Node30</title>
<g id="a_node31"><a xlink:href="Pass_8h.html" target="_top" xlink:title="llvm/Pass.h">
<polygon fill="none" stroke="black" points="533,-515.5 533,-534.5 601,-534.5 601,-515.5 533,-515.5"/>
<text text-anchor="middle" x="567" y="-522.5" font-family="Helvetica,sans-Serif" font-size="10.00">llvm/Pass.h</text>
</a>
</g>
</g>
<!-- Node0&#45;&gt;Node30 -->
<g id="edge55" class="edge">
<title>Node0&#45;&gt;Node30</title>
<path fill="none" stroke="midnightblue" d="M843.87,-571.44C779.64,-560.9 671.63,-543.17 611.25,-533.26"/>
<polygon fill="midnightblue" stroke="midnightblue" points="611.7,-529.79 601.27,-531.62 610.57,-536.7 611.7,-529.79"/>
</g>
<!-- Node74 -->
<g id="node40" class="node">
<title>Node74</title>
<g id="a_node40"><a xlink:href="CommandLine_8h.html" target="_top" xlink:title="llvm/Support/CommandLine.h">
<polygon fill="none" stroke="black" points="1897,-459.5 1897,-478.5 2043,-478.5 2043,-459.5 1897,-459.5"/>
<text text-anchor="middle" x="1970" y="-466.5" font-family="Helvetica,sans-Serif" font-size="10.00">llvm/Support/CommandLine.h</text>
</a>
</g>
</g>
<!-- Node0&#45;&gt;Node74 -->
<g id="edge109" class="edge">
<title>Node0&#45;&gt;Node74</title>
<path fill="none" stroke="midnightblue" d="M948.56,-579.62C1116.54,-578.05 1639.07,-570.39 1804,-535 1855.83,-523.88 1912.62,-498.54 1944.52,-482.99"/>
<polygon fill="midnightblue" stroke="midnightblue" points="1946.18,-486.07 1953.59,-478.5 1943.08,-479.8 1946.18,-486.07"/>
</g>
<!-- Node85 -->
<g id="node49" class="node">
<title>Node85</title>
<g id="a_node49"><a xlink:href="raw__ostream_8h.html" target="_top" xlink:title="llvm/Support/raw_ostream.h">
<polygon fill="none" stroke="black" points="1757.5,-336.5 1757.5,-355.5 1896.5,-355.5 1896.5,-336.5 1757.5,-336.5"/>
<text text-anchor="middle" x="1827" y="-343.5" font-family="Helvetica,sans-Serif" font-size="10.00">llvm/Support/raw_ostream.h</text>
</a>
</g>
</g>
<!-- Node0&#45;&gt;Node85 -->
<g id="edge190" class="edge">
<title>Node0&#45;&gt;Node85</title>
<path fill="none" stroke="midnightblue" d="M931.78,-571.42C1029,-548.07 1306.15,-481.2 1536,-423 1624.63,-400.56 1728.16,-373.26 1784.74,-358.25"/>
<polygon fill="midnightblue" stroke="midnightblue" points="1785.98,-361.54 1794.74,-355.59 1784.18,-354.78 1785.98,-361.54"/>
</g>
<!-- Node1&#45;&gt;Node2 -->
<g id="edge2" class="edge">
<title>Node1&#45;&gt;Node2</title>
<path fill="none" stroke="midnightblue" d="M937.44,-515.43C939.18,-481.75 945.55,-357.99 948.02,-310.1"/>
<polygon fill="midnightblue" stroke="midnightblue" points="951.52,-310.06 948.54,-299.9 944.53,-309.7 951.52,-310.06"/>
</g>
<!-- Node3 -->
<g id="node4" class="node">
<title>Node3</title>
<g id="a_node4"><a xlink:href="STLExtras_8h.html" target="_top" xlink:title="llvm/ADT/STLExtras.h">
<polygon fill="none" stroke="black" points="2424,-224.5 2424,-243.5 2540,-243.5 2540,-224.5 2424,-224.5"/>
<text text-anchor="middle" x="2482" y="-231.5" font-family="Helvetica,sans-Serif" font-size="10.00">llvm/ADT/STLExtras.h</text>
</a>
</g>
</g>
<!-- Node2&#45;&gt;Node3 -->
<g id="edge3" class="edge">
<title>Node2&#45;&gt;Node3</title>
<path fill="none" stroke="midnightblue" d="M1004.01,-287.06C1238.59,-278.8 2155.03,-246.52 2413.69,-237.41"/>
<polygon fill="midnightblue" stroke="midnightblue" points="2413.83,-240.9 2423.7,-237.05 2413.58,-233.91 2413.83,-240.9"/>
</g>
<!-- Node6 -->
<g id="node7" class="node">
<title>Node6</title>
<g id="a_node7"><a xlink:href="Compiler_8h.html" target="_top" xlink:title="llvm/Support/Compiler.h">
<polygon fill="none" stroke="black" points="1777,-56.5 1777,-75.5 1899,-75.5 1899,-56.5 1777,-56.5"/>
<text text-anchor="middle" x="1838" y="-63.5" font-family="Helvetica,sans-Serif" font-size="10.00">llvm/Support/Compiler.h</text>
</a>
</g>
</g>
<!-- Node2&#45;&gt;Node6 -->
<g id="edge45" class="edge">
<title>Node2&#45;&gt;Node6</title>
<path fill="none" stroke="midnightblue" d="M915.86,-280.46C895.86,-273.69 871.35,-262.26 856,-244 833.78,-217.58 817.51,-194.19 840,-168 894.47,-104.56 1650.87,-81.52 1725,-76 1738.37,-75 1752.63,-73.9 1766.36,-72.82"/>
<polygon fill="midnightblue" stroke="midnightblue" points="1767.03,-76.27 1776.72,-72 1766.48,-69.3 1767.03,-76.27"/>
</g>
<!-- Node10 -->
<g id="node11" class="node">
<title>Node10</title>
<polygon fill="none" stroke="#bfbfbf" points="3453,-56.5 3453,-75.5 3515,-75.5 3515,-56.5 3453,-56.5"/>
<text text-anchor="middle" x="3484" y="-63.5" font-family="Helvetica,sans-Serif" font-size="10.00">type_traits</text>
</g>
<!-- Node2&#45;&gt;Node10 -->
<g id="edge52" class="edge">
<title>Node2&#45;&gt;Node10</title>
<path fill="none" stroke="midnightblue" d="M1004.12,-288.19C1317.28,-283.53 2866.07,-259.87 3078,-244 3102.24,-242.18 3490.73,-199.78 3512,-188 3546.54,-168.87 3577.35,-146.42 3558,-112 3549.78,-97.38 3534.67,-86.95 3520.24,-79.85"/>
<polygon fill="midnightblue" stroke="midnightblue" points="3521.48,-76.57 3510.93,-75.64 3518.6,-82.95 3521.48,-76.57"/>
</g>
<!-- Node11 -->
<g id="node12" class="node">
<title>Node11</title>
<polygon fill="none" stroke="#bfbfbf" points="1676,-56.5 1676,-75.5 1716,-75.5 1716,-56.5 1676,-56.5"/>
<text text-anchor="middle" x="1696" y="-63.5" font-family="Helvetica,sans-Serif" font-size="10.00">utility</text>
</g>
<!-- Node2&#45;&gt;Node11 -->
<g id="edge53" class="edge">
<title>Node2&#45;&gt;Node11</title>
<path fill="none" stroke="midnightblue" d="M902.23,-280.44C871.76,-273.55 831.88,-262 800,-244 762.04,-222.57 713.07,-203.76 738,-168 779.18,-108.94 819.5,-126.61 890,-112 1042.51,-80.39 1537.8,-69.75 1665.66,-67.49"/>
<polygon fill="midnightblue" stroke="midnightblue" points="1665.94,-70.99 1675.88,-67.32 1665.82,-63.99 1665.94,-70.99"/>
</g>
<!-- Node2&#45;&gt;Node12 -->
<g id="edge47" class="edge">
<title>Node2&#45;&gt;Node12</title>
<path fill="none" stroke="midnightblue" d="M932.99,-280.49C896.97,-260.32 815.44,-208.26 852,-168 880.89,-136.18 1180.16,-126.22 1283.29,-123.72"/>
<polygon fill="midnightblue" stroke="midnightblue" points="1283.57,-127.22 1293.49,-123.48 1283.41,-120.22 1283.57,-127.22"/>
</g>
<!-- Node16 -->
<g id="node17" class="node">
<title>Node16</title>
<g id="a_node17"><a xlink:href="iterator__range_8h.html" target="_top" xlink:title="This provides a very simple, boring adaptor for a begin and end iterator into a range type...">
<polygon fill="none" stroke="black" points="1682,-112.5 1682,-131.5 1810,-131.5 1810,-112.5 1682,-112.5"/>
<text text-anchor="middle" x="1746" y="-119.5" font-family="Helvetica,sans-Serif" font-size="10.00">llvm/ADT/iterator_range.h</text>
</a>
</g>
</g>
<!-- Node2&#45;&gt;Node16 -->
<g id="edge44" class="edge">
<title>Node2&#45;&gt;Node16</title>
<path fill="none" stroke="midnightblue" d="M949.58,-280.4C951.64,-257.57 960.69,-195.32 999,-168 1026.09,-148.68 1488.26,-131.46 1671.77,-125.36"/>
<polygon fill="midnightblue" stroke="midnightblue" points="1671.99,-128.85 1681.87,-125.02 1671.76,-121.85 1671.99,-128.85"/>
</g>
<!-- Node18 -->
<g id="node19" class="node">
<title>Node18</title>
<polygon fill="none" stroke="#bfbfbf" points="2378,-112.5 2378,-131.5 2434,-131.5 2434,-112.5 2378,-112.5"/>
<text text-anchor="middle" x="2406" y="-119.5" font-family="Helvetica,sans-Serif" font-size="10.00">algorithm</text>
</g>
<!-- Node2&#45;&gt;Node18 -->
<g id="edge46" class="edge">
<title>Node2&#45;&gt;Node18</title>
<path fill="none" stroke="midnightblue" d="M1004.32,-287.97C1195.18,-284.22 1825.34,-270.11 2026,-244 2040.33,-242.14 2266.41,-192.91 2280,-188 2300.14,-180.72 2351.11,-153.31 2381.7,-136.5"/>
<polygon fill="midnightblue" stroke="midnightblue" points="2383.41,-139.55 2390.48,-131.65 2380.03,-133.42 2383.41,-139.55"/>
</g>
<!-- Node19 -->
<g id="node20" class="node">
<title>Node19</title>
<polygon fill="none" stroke="#bfbfbf" points="3499.5,-112.5 3499.5,-131.5 3548.5,-131.5 3548.5,-112.5 3499.5,-112.5"/>
<text text-anchor="middle" x="3524" y="-119.5" font-family="Helvetica,sans-Serif" font-size="10.00">cstddef</text>
</g>
<!-- Node2&#45;&gt;Node19 -->
<g id="edge48" class="edge">
<title>Node2&#45;&gt;Node19</title>
<path fill="none" stroke="midnightblue" d="M1004.06,-288.23C1278.66,-284.31 2502.05,-265.92 2882,-244 2949.62,-240.1 3432.51,-225.37 3489,-188 3505.17,-177.3 3514.45,-156.55 3519.34,-141.36"/>
<polygon fill="midnightblue" stroke="midnightblue" points="3522.77,-142.09 3522.16,-131.51 3516.04,-140.16 3522.77,-142.09"/>
</g>
<!-- Node2&#45;&gt;Node22 -->
<g id="edge51" class="edge">
<title>Node2&#45;&gt;Node22</title>
<path fill="none" stroke="midnightblue" d="M905,-280.47C866.75,-272.57 810.09,-259.7 762,-244 740.03,-236.83 735.4,-232.74 714,-224 674.12,-207.71 663.5,-205.19 624,-188 584.68,-170.89 539.9,-149.43 512.29,-135.96"/>
<polygon fill="midnightblue" stroke="midnightblue" points="513.8,-132.8 503.28,-131.54 510.72,-139.08 513.8,-132.8"/>
</g>
<!-- Node2&#45;&gt;Node27 -->
<g id="edge50" class="edge">
<title>Node2&#45;&gt;Node27</title>
<path fill="none" stroke="midnightblue" d="M1004.35,-288.17C1305.83,-283.58 2739.94,-260.92 2832,-244 2889.72,-233.39 2953.57,-207.38 2988.83,-191.67"/>
<polygon fill="midnightblue" stroke="midnightblue" points="2990.31,-194.84 2997.98,-187.53 2987.43,-188.46 2990.31,-194.84"/>
</g>
<!-- Node29 -->
<g id="node30" class="node">
<title>Node29</title>
<polygon fill="none" stroke="#bfbfbf" points="1384,-168.5 1384,-187.5 1430,-187.5 1430,-168.5 1384,-168.5"/>
<text text-anchor="middle" x="1407" y="-175.5" font-family="Helvetica,sans-Serif" font-size="10.00">cstring</text>
</g>
<!-- Node2&#45;&gt;Node29 -->
<g id="edge49" class="edge">
<title>Node2&#45;&gt;Node29</title>
<path fill="none" stroke="midnightblue" d="M984.56,-280.46C1070.82,-259.74 1290.26,-207.04 1373.92,-186.95"/>
<polygon fill="midnightblue" stroke="midnightblue" points="1374.98,-190.29 1383.88,-184.55 1373.34,-183.48 1374.98,-190.29"/>
</g>
<!-- Node4 -->
<g id="node5" class="node">
<title>Node4</title>
<g id="a_node5"><a xlink:href="Optional_8h.html" target="_top" xlink:title="llvm/ADT/Optional.h">
<polygon fill="none" stroke="black" points="1980.5,-168.5 1980.5,-187.5 2085.5,-187.5 2085.5,-168.5 1980.5,-168.5"/>
<text text-anchor="middle" x="2033" y="-175.5" font-family="Helvetica,sans-Serif" font-size="10.00">llvm/ADT/Optional.h</text>
</a>
</g>
</g>
<!-- Node3&#45;&gt;Node4 -->
<g id="edge4" class="edge">
<title>Node3&#45;&gt;Node4</title>
<path fill="none" stroke="midnightblue" d="M2423.76,-226C2339.08,-215.81 2182.61,-196.99 2095.56,-186.52"/>
<polygon fill="midnightblue" stroke="midnightblue" points="2095.9,-183.04 2085.55,-185.32 2095.06,-189.99 2095.9,-183.04"/>
</g>
<!-- Node3&#45;&gt;Node10 -->
<g id="edge42" class="edge">
<title>Node3&#45;&gt;Node10</title>
<path fill="none" stroke="midnightblue" d="M2540.22,-230.35C2715.5,-222.27 3228.4,-197.92 3263,-188 3343.63,-164.88 3427.46,-108.51 3464.46,-81.67"/>
<polygon fill="midnightblue" stroke="midnightblue" points="3466.84,-84.26 3472.83,-75.52 3462.7,-78.62 3466.84,-84.26"/>
</g>
<!-- Node3&#45;&gt;Node11 -->
<g id="edge43" class="edge">
<title>Node3&#45;&gt;Node11</title>
<path fill="none" stroke="midnightblue" d="M2482.24,-224.46C2482.36,-201.78 2479.2,-139.87 2443,-112 2383.49,-66.18 1842.81,-82.66 1768,-76 1754.28,-74.78 1739.14,-72.96 1726.3,-71.27"/>
<polygon fill="midnightblue" stroke="midnightblue" points="1726.51,-67.77 1716.13,-69.91 1725.58,-74.71 1726.51,-67.77"/>
</g>
<!-- Node3&#45;&gt;Node12 -->
<g id="edge32" class="edge">
<title>Node3&#45;&gt;Node12</title>
<path fill="none" stroke="midnightblue" d="M2423.98,-229.37C2317.35,-222.52 2083.05,-206.71 1886,-188 1683.52,-168.78 1441.25,-138.68 1352.63,-127.43"/>
<polygon fill="midnightblue" stroke="midnightblue" points="1352.96,-123.95 1342.6,-126.16 1352.08,-130.89 1352.96,-123.95"/>
</g>
<!-- Node13 -->
<g id="node14" class="node">
<title>Node13</title>
<polygon fill="none" stroke="#bfbfbf" points="1866,-112.5 1866,-131.5 1918,-131.5 1918,-112.5 1866,-112.5"/>
<text text-anchor="middle" x="1892" y="-119.5" font-family="Helvetica,sans-Serif" font-size="10.00">memory</text>
</g>
<!-- Node3&#45;&gt;Node13 -->
<g id="edge40" class="edge">
<title>Node3&#45;&gt;Node13</title>
<path fill="none" stroke="midnightblue" d="M2472.95,-224.32C2457.06,-209.7 2422.43,-180.5 2387,-168 2197.14,-101.02 2132.06,-162.87 1928.36,-131.7"/>
<polygon fill="midnightblue" stroke="midnightblue" points="1928.67,-128.21 1918.24,-130.1 1927.57,-135.12 1928.67,-128.21"/>
</g>
<!-- Node15 -->
<g id="node16" class="node">
<title>Node15</title>
<g id="a_node16"><a xlink:href="iterator_8h.html" target="_top" xlink:title="llvm/ADT/iterator.h">
<polygon fill="none" stroke="black" points="3130.5,-168.5 3130.5,-187.5 3229.5,-187.5 3229.5,-168.5 3130.5,-168.5"/>
<text text-anchor="middle" x="3180" y="-175.5" font-family="Helvetica,sans-Serif" font-size="10.00">llvm/ADT/iterator.h</text>
</a>
</g>
</g>
<!-- Node3&#45;&gt;Node15 -->
<g id="edge17" class="edge">
<title>Node3&#45;&gt;Node15</title>
<path fill="none" stroke="midnightblue" d="M2540.01,-228.51C2670.76,-218.4 2987.37,-193.9 3119.99,-183.64"/>
<polygon fill="midnightblue" stroke="midnightblue" points="3120.65,-187.1 3130.35,-182.84 3120.11,-180.12 3120.65,-187.1"/>
</g>
<!-- Node3&#45;&gt;Node16 -->
<g id="edge26" class="edge">
<title>Node3&#45;&gt;Node16</title>
<path fill="none" stroke="midnightblue" d="M2423.76,-231.49C2328.54,-228.22 2133.88,-218.13 1972,-188 1902.37,-175.04 1823.32,-149.79 1779.6,-134.87"/>
<polygon fill="midnightblue" stroke="midnightblue" points="1780.64,-131.52 1770.05,-131.58 1778.36,-138.14 1780.64,-131.52"/>
</g>
<!-- Node17 -->
<g id="node18" class="node">
<title>Node17</title>
<polygon fill="none" stroke="#bfbfbf" points="3272.5,-56.5 3272.5,-75.5 3319.5,-75.5 3319.5,-56.5 3272.5,-56.5"/>
<text text-anchor="middle" x="3296" y="-63.5" font-family="Helvetica,sans-Serif" font-size="10.00">iterator</text>
</g>
<!-- Node3&#45;&gt;Node17 -->
<g id="edge38" class="edge">
<title>Node3&#45;&gt;Node17</title>
<path fill="none" stroke="midnightblue" d="M2540.12,-230.34C2714.89,-222.22 3224.55,-197.78 3239,-188 3273.99,-164.32 3288.03,-113.19 3293.23,-85.58"/>
<polygon fill="midnightblue" stroke="midnightblue" points="3296.7,-86.08 3294.91,-75.64 3289.79,-84.92 3296.7,-86.08"/>
</g>
<!-- Node3&#45;&gt;Node18 -->
<g id="edge31" class="edge">
<title>Node3&#45;&gt;Node18</title>
<path fill="none" stroke="midnightblue" d="M2540.13,-233.78C2621.06,-232.93 2752.68,-223.4 2705,-168 2671.79,-129.42 2517.26,-123.47 2444.32,-122.85"/>
<polygon fill="midnightblue" stroke="midnightblue" points="2444.19,-119.35 2434.17,-122.79 2444.15,-126.35 2444.19,-119.35"/>
</g>
<!-- Node3&#45;&gt;Node19 -->
<g id="edge33" class="edge">
<title>Node3&#45;&gt;Node19</title>
<path fill="none" stroke="midnightblue" d="M2540.19,-230.42C2743.93,-221.37 3413.43,-191.41 3424,-188 3440.95,-182.53 3480.27,-155.06 3504.25,-137.63"/>
<polygon fill="midnightblue" stroke="midnightblue" points="3506.61,-140.24 3512.61,-131.51 3502.47,-134.59 3506.61,-140.24"/>
</g>
<!-- Node20 -->
<g id="node21" class="node">
<title>Node20</title>
<polygon fill="none" stroke="#bfbfbf" points="2510,-168.5 2510,-187.5 2640,-187.5 2640,-168.5 2510,-168.5"/>
<text text-anchor="middle" x="2575" y="-175.5" font-family="Helvetica,sans-Serif" font-size="10.00">llvm/Config/abi&#45;breaking.h</text>
</g>
<!-- Node3&#45;&gt;Node20 -->
<g id="edge27" class="edge">
<title>Node3&#45;&gt;Node20</title>
<path fill="none" stroke="midnightblue" d="M2496.94,-224.32C2511.59,-215.82 2534.13,-202.73 2551.24,-192.8"/>
<polygon fill="midnightblue" stroke="midnightblue" points="2553.2,-195.7 2560.1,-187.65 2549.69,-189.65 2553.2,-195.7"/>
</g>
<!-- Node21 -->
<g id="node22" class="node">
<title>Node21</title>
<g id="a_node22"><a xlink:href="Support_2ErrorHandling_8h.html" target="_top" xlink:title="llvm/Support/ErrorHandling.h">
<polygon fill="none" stroke="black" points="1008,-168.5 1008,-187.5 1150,-187.5 1150,-168.5 1008,-168.5"/>
<text text-anchor="middle" x="1079" y="-175.5" font-family="Helvetica,sans-Serif" font-size="10.00">llvm/Support/ErrorHandling.h</text>
</a>
</g>
</g>
<!-- Node3&#45;&gt;Node21 -->
<g id="edge28" class="edge">
<title>Node3&#45;&gt;Node21</title>
<path fill="none" stroke="midnightblue" d="M2423.86,-231.35C2245.92,-226.19 1692.95,-209.47 1235,-188 1210.7,-186.86 1184.27,-185.41 1160.2,-184.02"/>
<polygon fill="midnightblue" stroke="midnightblue" points="1160.23,-180.51 1150.04,-183.42 1159.82,-187.5 1160.23,-180.51"/>
</g>
<!-- Node23 -->
<g id="node24" class="node">
<title>Node23</title>
<polygon fill="none" stroke="#bfbfbf" points="1244,-168.5 1244,-187.5 1290,-187.5 1290,-168.5 1244,-168.5"/>
<text text-anchor="middle" x="1267" y="-175.5" font-family="Helvetica,sans-Serif" font-size="10.00">cstdint</text>
</g>
<!-- Node3&#45;&gt;Node23 -->
<g id="edge34" class="edge">
<title>Node3&#45;&gt;Node23</title>
<path fill="none" stroke="midnightblue" d="M2423.74,-231.5C2259.01,-227.09 1775.75,-212.83 1375,-188 1349.94,-186.45 1321.66,-184.07 1300.32,-182.15"/>
<polygon fill="midnightblue" stroke="midnightblue" points="1300.43,-178.64 1290.15,-181.22 1299.79,-185.61 1300.43,-178.64"/>
</g>
<!-- Node24 -->
<g id="node25" class="node">
<title>Node24</title>
<polygon fill="none" stroke="#bfbfbf" points="2332.5,-168.5 2332.5,-187.5 2377.5,-187.5 2377.5,-168.5 2332.5,-168.5"/>
<text text-anchor="middle" x="2355" y="-175.5" font-family="Helvetica,sans-Serif" font-size="10.00">cstdlib</text>
</g>
<!-- Node3&#45;&gt;Node24 -->
<g id="edge35" class="edge">
<title>Node3&#45;&gt;Node24</title>
<path fill="none" stroke="midnightblue" d="M2461.88,-224.44C2440.98,-215.56 2408.07,-201.56 2384.28,-191.45"/>
<polygon fill="midnightblue" stroke="midnightblue" points="2385.6,-188.21 2375.03,-187.52 2382.86,-194.65 2385.6,-188.21"/>
</g>
<!-- Node25 -->
<g id="node26" class="node">
<title>Node25</title>
<polygon fill="none" stroke="#bfbfbf" points="180.5,-168.5 180.5,-187.5 239.5,-187.5 239.5,-168.5 180.5,-168.5"/>
<text text-anchor="middle" x="210" y="-175.5" font-family="Helvetica,sans-Serif" font-size="10.00">functional</text>
</g>
<!-- Node3&#45;&gt;Node25 -->
<g id="edge36" class="edge">
<title>Node3&#45;&gt;Node25</title>
<path fill="none" stroke="midnightblue" d="M2423.84,-231.62C2099.78,-223.92 521.75,-186.41 249.91,-179.95"/>
<polygon fill="midnightblue" stroke="midnightblue" points="249.8,-176.45 239.72,-179.71 249.64,-183.44 249.8,-176.45"/>
</g>
<!-- Node26 -->
<g id="node27" class="node">
<title>Node26</title>
<polygon fill="none" stroke="#bfbfbf" points="2904.5,-168.5 2904.5,-187.5 2977.5,-187.5 2977.5,-168.5 2904.5,-168.5"/>
<text text-anchor="middle" x="2941" y="-175.5" font-family="Helvetica,sans-Serif" font-size="10.00">initializer_list</text>
</g>
<!-- Node3&#45;&gt;Node26 -->
<g id="edge37" class="edge">
<title>Node3&#45;&gt;Node26</title>
<path fill="none" stroke="midnightblue" d="M2540.13,-226.16C2632.18,-215.33 2809.69,-194.45 2894.14,-184.51"/>
<polygon fill="midnightblue" stroke="midnightblue" points="2894.69,-187.97 2904.21,-183.33 2893.87,-181.02 2894.69,-187.97"/>
</g>
<!-- Node3&#45;&gt;Node27 -->
<g id="edge39" class="edge">
<title>Node3&#45;&gt;Node27</title>
<path fill="none" stroke="midnightblue" d="M2540.01,-229.38C2649.98,-222.28 2885.94,-205.8 2985.78,-187.77"/>
<polygon fill="midnightblue" stroke="midnightblue" points="2986.69,-191.16 2995.86,-185.85 2985.38,-184.28 2986.69,-191.16"/>
</g>
<!-- Node28 -->
<g id="node29" class="node">
<title>Node28</title>
<polygon fill="none" stroke="#bfbfbf" points="2658,-168.5 2658,-187.5 2696,-187.5 2696,-168.5 2658,-168.5"/>
<text text-anchor="middle" x="2677" y="-175.5" font-family="Helvetica,sans-Serif" font-size="10.00">tuple</text>
</g>
<!-- Node3&#45;&gt;Node28 -->
<g id="edge41" class="edge">
<title>Node3&#45;&gt;Node28</title>
<path fill="none" stroke="midnightblue" d="M2515.72,-224.42C2547.56,-216.2 2596.86,-203.2 2648.16,-188.15"/>
<polygon fill="midnightblue" stroke="midnightblue" points="2649.16,-191.51 2657.76,-185.32 2647.18,-184.79 2649.16,-191.51"/>
</g>
<!-- Node5 -->
<g id="node6" class="node">
<title>Node5</title>
<g id="a_node6"><a xlink:href="None_8h.html" target="_top" xlink:title="llvm/ADT/None.h">
<polygon fill="none" stroke="black" points="3876,-112.5 3876,-131.5 3968,-131.5 3968,-112.5 3876,-112.5"/>
<text text-anchor="middle" x="3922" y="-119.5" font-family="Helvetica,sans-Serif" font-size="10.00">llvm/ADT/None.h</text>
</a>
</g>
</g>
<!-- Node4&#45;&gt;Node5 -->
<g id="edge5" class="edge">
<title>Node4&#45;&gt;Node5</title>
<path fill="none" stroke="midnightblue" d="M2085.57,-175.33C2143.85,-173.49 2240.64,-170.46 2324,-168 2927.64,-150.17 3659.6,-130.14 3865.65,-124.53"/>
<polygon fill="midnightblue" stroke="midnightblue" points="3866.01,-128.02 3875.91,-124.25 3865.82,-121.02 3866.01,-128.02"/>
</g>
<!-- Node4&#45;&gt;Node6 -->
<g id="edge6" class="edge">
<title>Node4&#45;&gt;Node6</title>
<path fill="none" stroke="midnightblue" d="M2033.04,-168.49C2032.63,-154.62 2029.72,-127.2 2014,-112 1986.34,-85.27 1945.09,-73.79 1909.48,-69.11"/>
<polygon fill="midnightblue" stroke="midnightblue" points="1909.45,-65.58 1899.11,-67.91 1908.64,-72.53 1909.45,-65.58"/>
</g>
<!-- Node9 -->
<g id="node10" class="node">
<title>Node9</title>
<g id="a_node10"><a xlink:href="type__traits_8h.html" target="_top" xlink:title="llvm/Support/type_traits.h">
<polygon fill="none" stroke="black" points="2066,-112.5 2066,-131.5 2194,-131.5 2194,-112.5 2066,-112.5"/>
<text text-anchor="middle" x="2130" y="-119.5" font-family="Helvetica,sans-Serif" font-size="10.00">llvm/Support/type_traits.h</text>
</a>
</g>
</g>
<!-- Node4&#45;&gt;Node9 -->
<g id="edge9" class="edge">
<title>Node4&#45;&gt;Node9</title>
<path fill="none" stroke="midnightblue" d="M2048.58,-168.32C2064,-159.74 2087.81,-146.49 2105.71,-136.52"/>
<polygon fill="midnightblue" stroke="midnightblue" points="2107.42,-139.58 2114.45,-131.65 2104.01,-133.46 2107.42,-139.58"/>
</g>
<!-- Node4&#45;&gt;Node11 -->
<g id="edge16" class="edge">
<title>Node4&#45;&gt;Node11</title>
<path fill="none" stroke="midnightblue" d="M2028.68,-168.11C2021.16,-153.7 2004.24,-125.5 1981,-112 1970.01,-105.61 1797.11,-81.04 1726.1,-71.16"/>
<polygon fill="midnightblue" stroke="midnightblue" points="1726.39,-67.66 1716,-69.75 1725.42,-74.6 1726.39,-67.66"/>
</g>
<!-- Node4&#45;&gt;Node12 -->
<g id="edge13" class="edge">
<title>Node4&#45;&gt;Node12</title>
<path fill="none" stroke="midnightblue" d="M1980.42,-173.03C1841.73,-162.55 1468.64,-134.38 1352.8,-125.63"/>
<polygon fill="midnightblue" stroke="midnightblue" points="1352.95,-122.13 1342.72,-124.87 1352.43,-129.11 1352.95,-122.13"/>
</g>
<!-- Node4&#45;&gt;Node13 -->
<g id="edge14" class="edge">
<title>Node4&#45;&gt;Node13</title>
<path fill="none" stroke="midnightblue" d="M2010.66,-168.44C1987.25,-159.48 1950.26,-145.31 1923.81,-135.18"/>
<polygon fill="midnightblue" stroke="midnightblue" points="1924.83,-131.82 1914.24,-131.52 1922.32,-138.36 1924.83,-131.82"/>
</g>
<!-- Node14 -->
<g id="node15" class="node">
<title>Node14</title>
<polygon fill="none" stroke="#bfbfbf" points="1936.5,-112.5 1936.5,-131.5 1971.5,-131.5 1971.5,-112.5 1936.5,-112.5"/>
<text text-anchor="middle" x="1954" y="-119.5" font-family="Helvetica,sans-Serif" font-size="10.00">new</text>
</g>
<!-- Node4&#45;&gt;Node14 -->
<g id="edge15" class="edge">
<title>Node4&#45;&gt;Node14</title>
<path fill="none" stroke="midnightblue" d="M2020.31,-168.32C2008.1,-159.98 1989.42,-147.21 1975,-137.35"/>
<polygon fill="midnightblue" stroke="midnightblue" points="1976.89,-134.41 1966.66,-131.65 1972.94,-140.19 1976.89,-134.41"/>
</g>
<!-- Node7 -->
<g id="node8" class="node">
<title>Node7</title>
<polygon fill="none" stroke="#bfbfbf" points="932.5,-0.5 932.5,-19.5 1057.5,-19.5 1057.5,-0.5 932.5,-0.5"/>
<text text-anchor="middle" x="995" y="-7.5" font-family="Helvetica,sans-Serif" font-size="10.00">llvm/Config/llvm&#45;config.h</text>
</g>
<!-- Node6&#45;&gt;Node7 -->
<g id="edge7" class="edge">
<title>Node6&#45;&gt;Node7</title>
<path fill="none" stroke="midnightblue" d="M1776.73,-59.92C1759.96,-58.58 1741.78,-57.19 1725,-56 1484.52,-39.01 1199.22,-22.47 1067.85,-15.06"/>
<polygon fill="midnightblue" stroke="midnightblue" points="1067.7,-11.54 1057.52,-14.48 1067.31,-18.53 1067.7,-11.54"/>
</g>
<!-- Node8 -->
<g id="node9" class="node">
<title>Node8</title>
<polygon fill="none" stroke="#bfbfbf" points="1812,-0.5 1812,-19.5 1864,-19.5 1864,-0.5 1812,-0.5"/>
<text text-anchor="middle" x="1838" y="-7.5" font-family="Helvetica,sans-Serif" font-size="10.00">stddef.h</text>
</g>
<!-- Node6&#45;&gt;Node8 -->
<g id="edge8" class="edge">
<title>Node6&#45;&gt;Node8</title>
<path fill="none" stroke="midnightblue" d="M1838,-56.08C1838,-49.01 1838,-38.86 1838,-29.99"/>
<polygon fill="midnightblue" stroke="midnightblue" points="1841.5,-29.75 1838,-19.75 1834.5,-29.75 1841.5,-29.75"/>
</g>
<!-- Node9&#45;&gt;Node6 -->
<g id="edge10" class="edge">
<title>Node9&#45;&gt;Node6</title>
<path fill="none" stroke="midnightblue" d="M2083.73,-112.44C2032.26,-102.92 1949.11,-87.55 1894,-77.36"/>
<polygon fill="midnightblue" stroke="midnightblue" points="1894.52,-73.89 1884.05,-75.52 1893.25,-80.78 1894.52,-73.89"/>
</g>
<!-- Node9&#45;&gt;Node10 -->
<g id="edge11" class="edge">
<title>Node9&#45;&gt;Node10</title>
<path fill="none" stroke="midnightblue" d="M2194.16,-118.58C2242.28,-116.77 2309.77,-114.23 2369,-112 2795.67,-95.97 2902.52,-96.38 3329,-76 3367.58,-74.16 3411.54,-71.56 3442.76,-69.63"/>
<polygon fill="midnightblue" stroke="midnightblue" points="3443.07,-73.11 3452.84,-69 3442.64,-66.13 3443.07,-73.11"/>
</g>
<!-- Node9&#45;&gt;Node11 -->
<g id="edge12" class="edge">
<title>Node9&#45;&gt;Node11</title>
<path fill="none" stroke="midnightblue" d="M2065.92,-113.05C1993.56,-104.06 1872.32,-89 1768,-76 1754.33,-74.3 1739.2,-72.4 1726.35,-70.8"/>
<polygon fill="midnightblue" stroke="midnightblue" points="1726.53,-67.29 1716.17,-69.53 1725.66,-74.24 1726.53,-67.29"/>
</g>
<!-- Node15&#45;&gt;Node10 -->
<g id="edge24" class="edge">
<title>Node15&#45;&gt;Node10</title>
<path fill="none" stroke="midnightblue" d="M3185.91,-168.18C3196,-153.88 3218,-125.84 3244,-112 3307.76,-78.05 3392.96,-69.36 3442.81,-67.34"/>
<polygon fill="midnightblue" stroke="midnightblue" points="3443.02,-70.84 3452.9,-67.01 3442.79,-63.84 3443.02,-70.84"/>
</g>
<!-- Node15&#45;&gt;Node11 -->
<g id="edge25" class="edge">
<title>Node15&#45;&gt;Node11</title>
<path fill="none" stroke="midnightblue" d="M3142.31,-168.49C3076.24,-153.97 2934.98,-124.76 2814,-112 2351.4,-63.21 2231.7,-112.89 1768,-76 1754.27,-74.91 1739.12,-73.11 1726.28,-71.4"/>
<polygon fill="midnightblue" stroke="midnightblue" points="1726.51,-67.9 1716.12,-70.01 1725.56,-74.83 1726.51,-67.9"/>
</g>
<!-- Node15&#45;&gt;Node16 -->
<g id="edge18" class="edge">
<title>Node15&#45;&gt;Node16</title>
<path fill="none" stroke="midnightblue" d="M3130.34,-173.26C3104.84,-171.44 3073.27,-169.37 3045,-168 2517.38,-142.43 2384.43,-161.35 1857,-132 1845.16,-131.34 1832.62,-130.48 1820.4,-129.55"/>
<polygon fill="midnightblue" stroke="midnightblue" points="1820.48,-126.05 1810.23,-128.76 1819.93,-133.03 1820.48,-126.05"/>
</g>
<!-- Node15&#45;&gt;Node17 -->
<g id="edge23" class="edge">
<title>Node15&#45;&gt;Node17</title>
<path fill="none" stroke="midnightblue" d="M3181.26,-168.37C3183.65,-154.83 3190.01,-128.44 3205,-112 3220.47,-95.03 3243.77,-83.68 3262.91,-76.62"/>
<polygon fill="midnightblue" stroke="midnightblue" points="3264.18,-79.89 3272.48,-73.32 3261.89,-73.27 3264.18,-79.89"/>
</g>
<!-- Node15&#45;&gt;Node18 -->
<g id="edge21" class="edge">
<title>Node15&#45;&gt;Node18</title>
<path fill="none" stroke="midnightblue" d="M3130.43,-169.65C3125.56,-169.04 3120.69,-168.48 3116,-168 2860.29,-141.96 2551.14,-128.52 2444.41,-124.4"/>
<polygon fill="midnightblue" stroke="midnightblue" points="2444.26,-120.89 2434.14,-124.01 2444,-127.89 2444.26,-120.89"/>
</g>
<!-- Node15&#45;&gt;Node19 -->
<g id="edge22" class="edge">
<title>Node15&#45;&gt;Node19</title>
<path fill="none" stroke="midnightblue" d="M3229.65,-169.21C3300.36,-158.11 3428.26,-138.03 3489.5,-128.42"/>
<polygon fill="midnightblue" stroke="midnightblue" points="3490.1,-131.86 3499.44,-126.86 3489.01,-124.95 3490.1,-131.86"/>
</g>
<!-- Node16&#45;&gt;Node11 -->
<g id="edge20" class="edge">
<title>Node16&#45;&gt;Node11</title>
<path fill="none" stroke="midnightblue" d="M1737.74,-112.08C1730.54,-104.3 1719.89,-92.8 1711.15,-83.37"/>
<polygon fill="midnightblue" stroke="midnightblue" points="1713.47,-80.71 1704.1,-75.75 1708.33,-85.47 1713.47,-80.71"/>
</g>
<!-- Node16&#45;&gt;Node17 -->
<g id="edge19" class="edge">
<title>Node16&#45;&gt;Node17</title>
<path fill="none" stroke="midnightblue" d="M1810.23,-115.25C1825.55,-114.03 1841.85,-112.85 1857,-112 2418.09,-80.5 3103.57,-69.62 3262.16,-67.44"/>
<polygon fill="midnightblue" stroke="midnightblue" points="3262.3,-70.94 3272.25,-67.3 3262.2,-63.94 3262.3,-70.94"/>
</g>
<!-- Node21&#45;&gt;Node6 -->
<g id="edge29" class="edge">
<title>Node21&#45;&gt;Node6</title>
<path fill="none" stroke="midnightblue" d="M1100.53,-168.43C1137.56,-154.1 1215.99,-125.52 1285,-112 1290.85,-110.85 1618.45,-84.56 1766.6,-72.71"/>
<polygon fill="midnightblue" stroke="midnightblue" points="1767.26,-76.17 1776.95,-71.88 1766.7,-69.19 1767.26,-76.17"/>
</g>
<!-- Node21&#45;&gt;Node22 -->
<g id="edge30" class="edge">
<title>Node21&#45;&gt;Node22</title>
<path fill="none" stroke="midnightblue" d="M1007.77,-170.51C877.95,-158.69 607.85,-134.1 516.76,-125.8"/>
<polygon fill="midnightblue" stroke="midnightblue" points="516.83,-122.29 506.56,-124.87 516.2,-129.26 516.83,-122.29"/>
</g>
<!-- Node30&#45;&gt;Node2 -->
<g id="edge56" class="edge">
<title>Node30&#45;&gt;Node2</title>
<path fill="none" stroke="midnightblue" d="M576.79,-515.43C609.98,-486.71 722.07,-392.52 828,-336 854.16,-322.04 885.59,-310.5 909.86,-302.59"/>
<polygon fill="midnightblue" stroke="midnightblue" points="910.98,-305.91 919.45,-299.54 908.86,-299.24 910.98,-305.91"/>
</g>
<!-- Node30&#45;&gt;Node22 -->
<g id="edge57" class="edge">
<title>Node30&#45;&gt;Node22</title>
<path fill="none" stroke="midnightblue" d="M532.86,-523.29C421.52,-520.08 76,-502.53 76,-408.5 76,-408.5 76,-408.5 76,-289 76,-220.63 111.79,-202.18 171,-168 219.02,-140.28 385.45,-128.36 455.04,-124.51"/>
<polygon fill="midnightblue" stroke="midnightblue" points="455.54,-127.99 465.34,-123.96 455.17,-121 455.54,-127.99"/>
</g>
<!-- Node31 -->
<g id="node32" class="node">
<title>Node31</title>
<g id="a_node32"><a xlink:href="PassAnalysisSupport_8h.html" target="_top" xlink:title="llvm/PassAnalysisSupport.h">
<polygon fill="none" stroke="black" points="560,-336.5 560,-355.5 700,-355.5 700,-336.5 560,-336.5"/>
<text text-anchor="middle" x="630" y="-343.5" font-family="Helvetica,sans-Serif" font-size="10.00">llvm/PassAnalysisSupport.h</text>
</a>
</g>
</g>
<!-- Node30&#45;&gt;Node31 -->
<g id="edge58" class="edge">
<title>Node30&#45;&gt;Node31</title>
<path fill="none" stroke="midnightblue" d="M566.93,-515.46C572.21,-488.19 602.22,-402.78 619.25,-365.13"/>
<polygon fill="midnightblue" stroke="midnightblue" points="622.53,-366.4 623.68,-355.87 616.21,-363.38 622.53,-366.4"/>
</g>
<!-- Node46 -->
<g id="node35" class="node">
<title>Node46</title>
<g id="a_node35"><a xlink:href="PassSupport_8h.html" target="_top" xlink:title="llvm/PassSupport.h">
<polygon fill="none" stroke="black" points="428,-459.5 428,-478.5 530,-478.5 530,-459.5 428,-459.5"/>
<text text-anchor="middle" x="479" y="-466.5" font-family="Helvetica,sans-Serif" font-size="10.00">llvm/PassSupport.h</text>
</a>
</g>
</g>
<!-- Node30&#45;&gt;Node46 -->
<g id="edge80" class="edge">
<title>Node30&#45;&gt;Node46</title>
<path fill="none" stroke="midnightblue" d="M552.86,-515.32C539.13,-506.9 518.06,-493.97 501.94,-484.07"/>
<polygon fill="midnightblue" stroke="midnightblue" points="503.46,-480.9 493.1,-478.65 499.8,-486.87 503.46,-480.9"/>
</g>
<!-- Node31&#45;&gt;Node2 -->
<g id="edge76" class="edge">
<title>Node31&#45;&gt;Node2</title>
<path fill="none" stroke="midnightblue" d="M680.55,-336.44C737.01,-326.89 828.37,-311.42 888.57,-301.23"/>
<polygon fill="midnightblue" stroke="midnightblue" points="889.41,-304.64 898.69,-299.52 888.25,-297.73 889.41,-304.64"/>
</g>
<!-- Node31&#45;&gt;Node11 -->
<g id="edge78" class="edge">
<title>Node31&#45;&gt;Node11</title>
<path fill="none" stroke="midnightblue" d="M559.76,-337.07C556.46,-336.71 553.2,-336.35 550,-336 474.25,-327.74 268.52,-347.58 209,-300 161.32,-261.88 132.94,-215.74 171,-168 240.63,-80.66 305.24,-126.47 416,-112 668.96,-78.95 1496.82,-68.99 1665.74,-67.28"/>
<polygon fill="midnightblue" stroke="midnightblue" points="1665.94,-70.78 1675.9,-67.18 1665.87,-63.78 1665.94,-70.78"/>
</g>
<!-- Node31&#45;&gt;Node12 -->
<g id="edge77" class="edge">
<title>Node31&#45;&gt;Node12</title>
<path fill="none" stroke="midnightblue" d="M625.55,-336.25C615.25,-314.63 592.57,-257.96 619,-224 660.42,-170.77 1147.06,-134.43 1282.95,-125.27"/>
<polygon fill="midnightblue" stroke="midnightblue" points="1283.46,-128.74 1293.2,-124.58 1282.99,-121.76 1283.46,-128.74"/>
</g>
<!-- Node31&#45;&gt;Node30 -->
<g id="edge59" class="edge">
<title>Node31&#45;&gt;Node30</title>
<path fill="none" stroke="midnightblue" d="M630.01,-355.87C624.52,-383.6 594.47,-469.05 577.54,-506.32"/>
<polygon fill="midnightblue" stroke="midnightblue" points="574.33,-504.93 573.15,-515.46 580.63,-507.97 574.33,-504.93"/>
</g>
<!-- Node32 -->
<g id="node33" class="node">
<title>Node32</title>
<g id="a_node33"><a xlink:href="SmallVector_8h.html" target="_top" xlink:title="llvm/ADT/SmallVector.h">
<polygon fill="none" stroke="red" points="1895,-224.5 1895,-243.5 2017,-243.5 2017,-224.5 1895,-224.5"/>
<text text-anchor="middle" x="1956" y="-231.5" font-family="Helvetica,sans-Serif" font-size="10.00">llvm/ADT/SmallVector.h</text>
</a>
</g>
</g>
<!-- Node31&#45;&gt;Node32 -->
<g id="edge60" class="edge">
<title>Node31&#45;&gt;Node32</title>
<path fill="none" stroke="midnightblue" d="M656.06,-336.44C701.81,-321.84 799.79,-292.51 885,-280 888.1,-279.54 1645.24,-247.95 1884.45,-237.98"/>
<polygon fill="midnightblue" stroke="midnightblue" points="1884.93,-241.47 1894.77,-237.55 1884.63,-234.47 1884.93,-241.47"/>
</g>
<!-- Node45 -->
<g id="node34" class="node">
<title>Node45</title>
<polygon fill="none" stroke="#bfbfbf" points="628,-224.5 628,-243.5 672,-243.5 672,-224.5 628,-224.5"/>
<text text-anchor="middle" x="650" y="-231.5" font-family="Helvetica,sans-Serif" font-size="10.00">vector</text>
</g>
<!-- Node31&#45;&gt;Node45 -->
<g id="edge79" class="edge">
<title>Node31&#45;&gt;Node45</title>
<path fill="none" stroke="midnightblue" d="M631.57,-336.37C634.8,-318.62 642.24,-277.67 646.62,-253.6"/>
<polygon fill="midnightblue" stroke="midnightblue" points="650.09,-254.06 648.44,-243.59 643.21,-252.8 650.09,-254.06"/>
</g>
<!-- Node32&#45;&gt;Node6 -->
<g id="edge62" class="edge">
<title>Node32&#45;&gt;Node6</title>
<path fill="none" stroke="midnightblue" d="M1944.35,-224.35C1923.69,-208.39 1880.58,-172.25 1857,-132 1848.55,-117.58 1843.63,-99.12 1840.92,-85.57"/>
<polygon fill="midnightblue" stroke="midnightblue" points="1844.33,-84.76 1839.13,-75.53 1837.44,-85.98 1844.33,-84.76"/>
</g>
<!-- Node32&#45;&gt;Node9 -->
<g id="edge63" class="edge">
<title>Node32&#45;&gt;Node9</title>
<path fill="none" stroke="midnightblue" d="M2017.1,-224.83C2060.73,-217.61 2114.05,-205.5 2128,-188 2138.22,-175.18 2137.49,-155.99 2134.94,-141.79"/>
<polygon fill="midnightblue" stroke="midnightblue" points="2138.28,-140.68 2132.69,-131.68 2131.45,-142.2 2138.28,-140.68"/>
</g>
<!-- Node32&#45;&gt;Node10 -->
<g id="edge74" class="edge">
<title>Node32&#45;&gt;Node10</title>
<path fill="none" stroke="midnightblue" d="M2017.24,-231.71C2264.64,-226.4 3179.93,-205.62 3239,-188 3255.43,-183.1 3256.94,-176.21 3272,-168 3321.92,-140.79 3335.66,-136.41 3387,-112 3410.24,-100.95 3436.74,-88.68 3456.17,-79.74"/>
<polygon fill="midnightblue" stroke="midnightblue" points="3457.73,-82.88 3465.36,-75.52 3454.81,-76.52 3457.73,-82.88"/>
</g>
<!-- Node32&#45;&gt;Node11 -->
<g id="edge75" class="edge">
<title>Node32&#45;&gt;Node11</title>
<path fill="none" stroke="midnightblue" d="M1894.71,-231.59C1826.53,-226.25 1719.82,-205.78 1673,-132 1663.42,-116.91 1672.84,-97.31 1682.35,-83.6"/>
<polygon fill="midnightblue" stroke="midnightblue" points="1685.2,-85.64 1688.42,-75.54 1679.61,-81.43 1685.2,-85.64"/>
</g>
<!-- Node32&#45;&gt;Node12 -->
<g id="edge66" class="edge">
<title>Node32&#45;&gt;Node12</title>
<path fill="none" stroke="midnightblue" d="M1899.62,-224.48C1842.27,-215.72 1750.85,-201.48 1672,-188 1554.73,-167.95 1416.08,-141.77 1352.72,-129.67"/>
<polygon fill="midnightblue" stroke="midnightblue" points="1353.34,-126.22 1342.86,-127.78 1352.02,-133.1 1353.34,-126.22"/>
</g>
<!-- Node32&#45;&gt;Node13 -->
<g id="edge72" class="edge">
<title>Node32&#45;&gt;Node13</title>
<path fill="none" stroke="midnightblue" d="M1950.98,-224.37C1940.46,-206.3 1915.96,-164.18 1902.07,-140.31"/>
<polygon fill="midnightblue" stroke="midnightblue" points="1905.05,-138.47 1897,-131.59 1899,-142 1905.05,-138.47"/>
</g>
<!-- Node32&#45;&gt;Node14 -->
<g id="edge73" class="edge">
<title>Node32&#45;&gt;Node14</title>
<path fill="none" stroke="midnightblue" d="M1955.84,-224.37C1955.52,-206.62 1954.78,-165.67 1954.34,-141.6"/>
<polygon fill="midnightblue" stroke="midnightblue" points="1957.84,-141.53 1954.16,-131.59 1950.84,-141.65 1957.84,-141.53"/>
</g>
<!-- Node32&#45;&gt;Node16 -->
<g id="edge61" class="edge">
<title>Node32&#45;&gt;Node16</title>
<path fill="none" stroke="midnightblue" d="M1919.77,-224.5C1892.37,-217.17 1854.4,-205.07 1824,-188 1800.14,-174.6 1776.53,-153.55 1761.65,-139.05"/>
<polygon fill="midnightblue" stroke="midnightblue" points="1763.88,-136.34 1754.33,-131.76 1758.94,-141.3 1763.88,-136.34"/>
</g>
<!-- Node32&#45;&gt;Node17 -->
<g id="edge71" class="edge">
<title>Node32&#45;&gt;Node17</title>
<path fill="none" stroke="midnightblue" d="M1996.84,-224.43C2035.31,-216.09 2094.44,-202.56 2145,-188 2246.02,-158.9 2265.72,-131.63 2369,-112 2545.44,-78.47 3117.51,-69.21 3262.41,-67.38"/>
<polygon fill="midnightblue" stroke="midnightblue" points="3262.51,-70.88 3272.47,-67.26 3262.43,-63.88 3262.51,-70.88"/>
</g>
<!-- Node32&#45;&gt;Node18 -->
<g id="edge65" class="edge">
<title>Node32&#45;&gt;Node18</title>
<path fill="none" stroke="midnightblue" d="M2017.16,-227.64C2075.7,-221.52 2166.06,-209.46 2242,-188 2264.24,-181.71 2268.56,-176.62 2290,-168 2318.23,-156.64 2350.52,-144.16 2373.85,-135.23"/>
<polygon fill="midnightblue" stroke="midnightblue" points="2375.17,-138.47 2383.26,-131.63 2372.67,-131.93 2375.17,-138.47"/>
</g>
<!-- Node32&#45;&gt;Node19 -->
<g id="edge67" class="edge">
<title>Node32&#45;&gt;Node19</title>
<path fill="none" stroke="midnightblue" d="M2017.29,-231.69C2260.08,-226.4 3147.2,-206.01 3272,-188 3351.32,-176.55 3441.71,-149.76 3489.74,-134.39"/>
<polygon fill="midnightblue" stroke="midnightblue" points="3490.89,-137.69 3499.33,-131.29 3488.74,-131.03 3490.89,-137.69"/>
</g>
<!-- Node32&#45;&gt;Node21 -->
<g id="edge64" class="edge">
<title>Node32&#45;&gt;Node21</title>
<path fill="none" stroke="midnightblue" d="M1894.68,-229.22C1740.05,-219.7 1334.18,-194.71 1160.14,-184"/>
<polygon fill="midnightblue" stroke="midnightblue" points="1160.22,-180.49 1150.02,-183.37 1159.79,-187.48 1160.22,-180.49"/>
</g>
<!-- Node32&#45;&gt;Node24 -->
<g id="edge68" class="edge">
<title>Node32&#45;&gt;Node24</title>
<path fill="none" stroke="midnightblue" d="M2017.03,-224.74C2102.62,-213.16 2255.28,-192.5 2322.12,-183.45"/>
<polygon fill="midnightblue" stroke="midnightblue" points="2322.65,-186.91 2332.09,-182.1 2321.71,-179.97 2322.65,-186.91"/>
</g>
<!-- Node32&#45;&gt;Node26 -->
<g id="edge70" class="edge">
<title>Node32&#45;&gt;Node26</title>
<path fill="none" stroke="midnightblue" d="M2017.24,-229.64C2199.03,-219.68 2732.86,-190.41 2894.25,-181.56"/>
<polygon fill="midnightblue" stroke="midnightblue" points="2894.54,-185.05 2904.34,-181.01 2894.16,-178.06 2894.54,-185.05"/>
</g>
<!-- Node32&#45;&gt;Node29 -->
<g id="edge69" class="edge">
<title>Node32&#45;&gt;Node29</title>
<path fill="none" stroke="midnightblue" d="M1894.89,-226.99C1778.86,-215.58 1530.25,-191.12 1440.33,-182.28"/>
<polygon fill="midnightblue" stroke="midnightblue" points="1440.46,-178.77 1430.17,-181.28 1439.78,-185.74 1440.46,-178.77"/>
</g>
<!-- Node46&#45;&gt;Node2 -->
<g id="edge81" class="edge">
<title>Node46&#45;&gt;Node2</title>
<path fill="none" stroke="midnightblue" d="M496.91,-459.45C544.1,-437.15 676.03,-376.14 790,-336 827.97,-322.63 872.08,-310.4 904.2,-302.07"/>
<polygon fill="midnightblue" stroke="midnightblue" points="905.36,-305.39 914.18,-299.51 903.62,-298.61 905.36,-305.39"/>
</g>
<!-- Node46&#45;&gt;Node25 -->
<g id="edge108" class="edge">
<title>Node46&#45;&gt;Node25</title>
<path fill="none" stroke="midnightblue" d="M448.43,-459.47C398.12,-444.42 296.24,-409.57 224,-356 173.86,-318.82 156.15,-283.19 176,-224 179.6,-213.25 186.9,-203.02 193.82,-195.04"/>
<polygon fill="midnightblue" stroke="midnightblue" points="196.48,-197.32 200.71,-187.61 191.35,-192.56 196.48,-197.32"/>
</g>
<!-- Node47 -->
<g id="node36" class="node">
<title>Node47</title>
<g id="a_node36"><a xlink:href="PassInfo_8h.html" target="_top" xlink:title="llvm/PassInfo.h">
<polygon fill="none" stroke="black" points="456.5,-336.5 456.5,-355.5 541.5,-355.5 541.5,-336.5 456.5,-336.5"/>
<text text-anchor="middle" x="499" y="-343.5" font-family="Helvetica,sans-Serif" font-size="10.00">llvm/PassInfo.h</text>
</a>
</g>
</g>
<!-- Node46&#45;&gt;Node47 -->
<g id="edge82" class="edge">
<title>Node46&#45;&gt;Node47</title>
<path fill="none" stroke="midnightblue" d="M480.44,-459.3C483.67,-439.76 491.55,-392.06 495.93,-365.55"/>
<polygon fill="midnightblue" stroke="midnightblue" points="499.4,-366.06 497.57,-355.62 492.49,-364.92 499.4,-366.06"/>
</g>
<!-- Node48 -->
<g id="node37" class="node">
<title>Node48</title>
<g id="a_node37"><a xlink:href="PassRegistry_8h.html" target="_top" xlink:title="llvm/PassRegistry.h">
<polygon fill="none" stroke="red" points="979.5,-398 979.5,-417 1084.5,-417 1084.5,-398 979.5,-398"/>
<text text-anchor="middle" x="1032" y="-405" font-family="Helvetica,sans-Serif" font-size="10.00">llvm/PassRegistry.h</text>
</a>
</g>
</g>
<!-- Node46&#45;&gt;Node48 -->
<g id="edge86" class="edge">
<title>Node46&#45;&gt;Node48</title>
<path fill="none" stroke="midnightblue" d="M530.03,-462.51C631.67,-451.57 859.09,-427.1 969.49,-415.23"/>
<polygon fill="midnightblue" stroke="midnightblue" points="969.91,-418.7 979.48,-414.15 969.16,-411.74 969.91,-418.7"/>
</g>
<!-- Node67 -->
<g id="node39" class="node">
<title>Node67</title>
<g id="a_node39"><a xlink:href="Threading_8h.html" target="_top" xlink:title="llvm/Support/Threading.h">
<polygon fill="none" stroke="red" points="218.5,-280.5 218.5,-299.5 343.5,-299.5 343.5,-280.5 218.5,-280.5"/>
<text text-anchor="middle" x="281" y="-287.5" font-family="Helvetica,sans-Serif" font-size="10.00">llvm/Support/Threading.h</text>
</a>
</g>
</g>
<!-- Node46&#45;&gt;Node67 -->
<g id="edge103" class="edge">
<title>Node46&#45;&gt;Node67</title>
<path fill="none" stroke="midnightblue" d="M466.71,-459.39C441.45,-441.46 382.37,-398.26 338,-356 321.95,-340.71 305.45,-321.44 294.36,-307.86"/>
<polygon fill="midnightblue" stroke="midnightblue" points="296.92,-305.45 287.92,-299.86 291.47,-309.84 296.92,-305.45"/>
</g>
<!-- Node47&#45;&gt;Node2 -->
<g id="edge83" class="edge">
<title>Node47&#45;&gt;Node2</title>
<path fill="none" stroke="midnightblue" d="M541.53,-337.43C544.73,-336.92 547.92,-336.44 551,-336 667.77,-319.31 804.54,-304.98 883.54,-297.21"/>
<polygon fill="midnightblue" stroke="midnightblue" points="884.21,-300.66 893.82,-296.2 883.53,-293.69 884.21,-300.66"/>
</g>
<!-- Node47&#45;&gt;Node12 -->
<g id="edge84" class="edge">
<title>Node47&#45;&gt;Node12</title>
<path fill="none" stroke="midnightblue" d="M504.86,-336.4C519.7,-315.1 560.83,-259.1 606,-224 649,-190.58 662.58,-182.77 715,-168 823.05,-137.57 1171.36,-126.58 1283.13,-123.78"/>
<polygon fill="midnightblue" stroke="midnightblue" points="1283.28,-127.28 1293.19,-123.54 1283.11,-120.28 1283.28,-127.28"/>
</g>
<!-- Node47&#45;&gt;Node45 -->
<g id="edge85" class="edge">
<title>Node47&#45;&gt;Node45</title>
<path fill="none" stroke="midnightblue" d="M510.85,-336.37C536.65,-317.57 598.15,-272.77 630.05,-249.53"/>
<polygon fill="midnightblue" stroke="midnightblue" points="632.18,-252.31 638.21,-243.59 628.06,-246.65 632.18,-252.31"/>
</g>
<!-- Node48&#45;&gt;Node2 -->
<g id="edge100" class="edge">
<title>Node48&#45;&gt;Node2</title>
<path fill="none" stroke="midnightblue" d="M1030.75,-397.95C1028.35,-383.89 1022.04,-355.52 1008,-336 998.95,-323.42 985.37,-312.72 973.52,-304.92"/>
<polygon fill="midnightblue" stroke="midnightblue" points="975.24,-301.86 964.9,-299.53 971.53,-307.8 975.24,-301.86"/>
</g>
<!-- Node48&#45;&gt;Node13 -->
<g id="edge101" class="edge">
<title>Node48&#45;&gt;Node13</title>
<path fill="none" stroke="midnightblue" d="M1084.79,-403.16C1158.66,-397.66 1296.64,-384.35 1411,-356 1505.72,-332.52 1524.37,-310.72 1617,-280 1670.66,-262.21 1688.81,-270.02 1739,-244 1787.31,-218.95 1792.31,-201.75 1835,-168 1847.64,-158 1861.87,-146.77 1872.95,-138.03"/>
<polygon fill="midnightblue" stroke="midnightblue" points="1875.39,-140.56 1881.07,-131.62 1871.05,-135.07 1875.39,-140.56"/>
</g>
<!-- Node48&#45;&gt;Node45 -->
<g id="edge102" class="edge">
<title>Node48&#45;&gt;Node45</title>
<path fill="none" stroke="midnightblue" d="M1009.82,-397.98C965.1,-380.65 861.12,-339.58 776,-300 740.18,-283.34 699.75,-262.02 674.57,-248.43"/>
<polygon fill="midnightblue" stroke="midnightblue" points="676.16,-245.32 665.71,-243.63 672.83,-251.47 676.16,-245.32"/>
</g>
<!-- Node59 -->
<g id="node38" class="node">
<title>Node59</title>
<g id="a_node38"><a xlink:href="StringMap_8h.html" target="_top" xlink:title="llvm/ADT/StringMap.h">
<polygon fill="none" stroke="red" points="1288.5,-336.5 1288.5,-355.5 1401.5,-355.5 1401.5,-336.5 1288.5,-336.5"/>
<text text-anchor="middle" x="1345" y="-343.5" font-family="Helvetica,sans-Serif" font-size="10.00">llvm/ADT/StringMap.h</text>
</a>
</g>
</g>
<!-- Node48&#45;&gt;Node59 -->
<g id="edge87" class="edge">
<title>Node48&#45;&gt;Node59</title>
<path fill="none" stroke="midnightblue" d="M1076.85,-397.98C1133.09,-387.28 1229.49,-368.96 1290.09,-357.44"/>
<polygon fill="midnightblue" stroke="midnightblue" points="1291.07,-360.82 1300.24,-355.51 1289.76,-353.94 1291.07,-360.82"/>
</g>
<!-- Node59&#45;&gt;Node2 -->
<g id="edge88" class="edge">
<title>Node59&#45;&gt;Node2</title>
<path fill="none" stroke="midnightblue" d="M1288.26,-337.26C1215.71,-327.37 1090.34,-310.27 1014.01,-299.87"/>
<polygon fill="midnightblue" stroke="midnightblue" points="1014.42,-296.39 1004.04,-298.51 1013.47,-303.32 1014.42,-296.39"/>
</g>
<!-- Node59&#45;&gt;Node11 -->
<g id="edge99" class="edge">
<title>Node59&#45;&gt;Node11</title>
<path fill="none" stroke="midnightblue" d="M1314.97,-336.43C1223.23,-309.5 955.38,-225 999,-168 1056.93,-92.32 1112.2,-128.87 1206,-112 1377.9,-81.09 1587.75,-70.85 1665.3,-67.98"/>
<polygon fill="midnightblue" stroke="midnightblue" points="1665.89,-71.46 1675.76,-67.61 1665.64,-64.47 1665.89,-71.46"/>
</g>
<!-- Node59&#45;&gt;Node12 -->
<g id="edge93" class="edge">
<title>Node59&#45;&gt;Node12</title>
<path fill="none" stroke="midnightblue" d="M1330.98,-336.42C1317.97,-328.07 1298.49,-314.54 1284,-300 1240.46,-256.3 1221.17,-246.64 1202,-188 1199.24,-179.55 1196.98,-175.33 1202,-168 1211.57,-154.03 1252.92,-140.29 1283.54,-131.74"/>
<polygon fill="midnightblue" stroke="midnightblue" points="1284.72,-135.05 1293.45,-129.05 1282.88,-128.29 1284.72,-135.05"/>
</g>
<!-- Node59&#45;&gt;Node15 -->
<g id="edge89" class="edge">
<title>Node59&#45;&gt;Node15</title>
<path fill="none" stroke="midnightblue" d="M1401.73,-343.69C1700.87,-336.77 3083.09,-304.6 3127,-300 3262.77,-285.79 3341.71,-348.96 3429,-244 3434.68,-237.17 3434.7,-230.82 3429,-224 3405.37,-195.72 3305.77,-185.18 3239.92,-181.27"/>
<polygon fill="midnightblue" stroke="midnightblue" points="3239.84,-177.76 3229.66,-180.7 3239.45,-184.75 3239.84,-177.76"/>
</g>
<!-- Node59&#45;&gt;Node16 -->
<g id="edge90" class="edge">
<title>Node59&#45;&gt;Node16</title>
<path fill="none" stroke="midnightblue" d="M1336.69,-336.38C1306.86,-304.99 1208.37,-197.08 1235,-168 1263.87,-136.47 1536.87,-126.92 1671.57,-124.12"/>
<polygon fill="midnightblue" stroke="midnightblue" points="1671.88,-127.61 1681.8,-123.91 1671.74,-120.62 1671.88,-127.61"/>
</g>
<!-- Node59&#45;&gt;Node17 -->
<g id="edge98" class="edge">
<title>Node59&#45;&gt;Node17</title>
<path fill="none" stroke="midnightblue" d="M1401.74,-343.71C1718.96,-336.48 3259.08,-301.36 3271,-300 3487.37,-275.4 3615.85,-361.09 3748,-188 3768.5,-161.15 3770.67,-137.04 3748,-112 3733.96,-96.49 3432.52,-75.77 3329.88,-69.14"/>
<polygon fill="midnightblue" stroke="midnightblue" points="3329.95,-65.63 3319.75,-68.49 3329.5,-72.62 3329.95,-65.63"/>
</g>
<!-- Node59&#45;&gt;Node18 -->
<g id="edge92" class="edge">
<title>Node59&#45;&gt;Node18</title>
<path fill="none" stroke="midnightblue" d="M1384.69,-336.47C1421.41,-328.25 1477.34,-314.89 1525,-300 1549.03,-292.49 1553.38,-285.25 1578,-280 1841.44,-223.81 1917.24,-287.89 2183,-244 2275.76,-228.68 2319.97,-253.93 2387,-188 2399.17,-176.03 2403.65,-156.73 2405.24,-142.26"/>
<polygon fill="midnightblue" stroke="midnightblue" points="2408.76,-142.16 2406,-131.93 2401.78,-141.65 2408.76,-142.16"/>
</g>
<!-- Node59&#45;&gt;Node21 -->
<g id="edge91" class="edge">
<title>Node59&#45;&gt;Node21</title>
<path fill="none" stroke="midnightblue" d="M1323.23,-336.38C1302.81,-328 1271.66,-314.45 1246,-300 1188.08,-267.38 1126.33,-218.43 1096.77,-193.99"/>
<polygon fill="midnightblue" stroke="midnightblue" points="1098.92,-191.23 1088.99,-187.51 1094.44,-196.6 1098.92,-191.23"/>
</g>
<!-- Node59&#45;&gt;Node23 -->
<g id="edge94" class="edge">
<title>Node59&#45;&gt;Node23</title>
<path fill="none" stroke="midnightblue" d="M1343.45,-336.31C1339.51,-315.73 1327.88,-262.85 1306,-224 1300.06,-213.46 1291.41,-203.16 1283.76,-195.07"/>
<polygon fill="midnightblue" stroke="midnightblue" points="1286.1,-192.46 1276.58,-187.8 1281.12,-197.38 1286.1,-192.46"/>
</g>
<!-- Node59&#45;&gt;Node24 -->
<g id="edge95" class="edge">
<title>Node59&#45;&gt;Node24</title>
<path fill="none" stroke="midnightblue" d="M1366.1,-336.41C1402.79,-321.9 1481,-292.89 1550,-280 1802.14,-232.89 1873.18,-287.27 2126,-244 2197.61,-231.74 2278.87,-205.67 2322.75,-190.53"/>
<polygon fill="midnightblue" stroke="midnightblue" points="2324,-193.8 2332.3,-187.21 2321.7,-187.19 2324,-193.8"/>
</g>
<!-- Node59&#45;&gt;Node26 -->
<g id="edge97" class="edge">
<title>Node59&#45;&gt;Node26</title>
<path fill="none" stroke="midnightblue" d="M1392.9,-336.49C1440.1,-327.93 1514.22,-314.02 1578,-300 1614.22,-292.04 1622.26,-285.04 1659,-280 1917.37,-244.54 2581.67,-317.12 2832,-244 2866.98,-233.78 2902.25,-209.64 2922.84,-193.83"/>
<polygon fill="midnightblue" stroke="midnightblue" points="2925.03,-196.56 2930.72,-187.63 2920.7,-191.06 2925.03,-196.56"/>
</g>
<!-- Node59&#45;&gt;Node29 -->
<g id="edge96" class="edge">
<title>Node59&#45;&gt;Node29</title>
<path fill="none" stroke="midnightblue" d="M1348.33,-336.08C1358.13,-309.83 1387,-232.55 1400.23,-197.12"/>
<polygon fill="midnightblue" stroke="midnightblue" points="1403.58,-198.16 1403.8,-187.57 1397.02,-195.71 1403.58,-198.16"/>
</g>
<!-- Node67&#45;&gt;Node6 -->
<g id="edge106" class="edge">
<title>Node67&#45;&gt;Node6</title>
<path fill="none" stroke="midnightblue" d="M285.91,-280.41C303.83,-250.03 369.26,-147.62 456,-112 586.48,-58.42 1584.15,-83.6 1725,-76 1738.39,-75.28 1752.66,-74.3 1766.38,-73.26"/>
<polygon fill="midnightblue" stroke="midnightblue" points="1767.06,-76.72 1776.75,-72.45 1766.51,-69.74 1767.06,-76.72"/>
</g>
<!-- Node67&#45;&gt;Node7 -->
<g id="edge105" class="edge">
<title>Node67&#45;&gt;Node7</title>
<path fill="none" stroke="midnightblue" d="M283.41,-280.19C287.14,-267.3 295.05,-242.81 306,-224 341.12,-163.71 353.05,-142.08 416,-112 584.52,-31.48 808.05,-14.47 921.78,-11.31"/>
<polygon fill="midnightblue" stroke="midnightblue" points="922.19,-14.8 932.1,-11.06 922.02,-7.81 922.19,-14.8"/>
</g>
<!-- Node67&#45;&gt;Node25 -->
<g id="edge107" class="edge">
<title>Node67&#45;&gt;Node25</title>
<path fill="none" stroke="midnightblue" d="M275.43,-280.37C263.76,-262.3 236.58,-220.18 221.17,-196.31"/>
<polygon fill="midnightblue" stroke="midnightblue" points="223.91,-194.1 215.55,-187.59 218.03,-197.89 223.91,-194.1"/>
</g>
<!-- Node67&#45;&gt;Node32 -->
<g id="edge104" class="edge">
<title>Node67&#45;&gt;Node32</title>
<path fill="none" stroke="midnightblue" d="M343.53,-287.31C545.51,-281.79 1198.67,-263.54 1739,-244 1787.56,-242.24 1842.22,-239.97 1884.54,-238.15"/>
<polygon fill="midnightblue" stroke="midnightblue" points="1884.9,-241.64 1894.74,-237.71 1884.6,-234.65 1884.9,-241.64"/>
</g>
<!-- Node74&#45;&gt;Node2 -->
<g id="edge147" class="edge">
<title>Node74&#45;&gt;Node2</title>
<path fill="none" stroke="midnightblue" d="M1896.8,-465.81C1743.12,-460.79 1391.37,-447.01 1274,-423 1155.77,-398.81 1025.84,-332.98 973.16,-304.46"/>
<polygon fill="midnightblue" stroke="midnightblue" points="974.7,-301.32 964.25,-299.59 971.35,-307.46 974.7,-301.32"/>
</g>
<!-- Node74&#45;&gt;Node3 -->
<g id="edge134" class="edge">
<title>Node74&#45;&gt;Node3</title>
<path fill="none" stroke="midnightblue" d="M2043.22,-461.37C2090,-455.32 2151.18,-443.98 2202,-423 2311.37,-377.86 2422.54,-286.84 2464.52,-250.5"/>
<polygon fill="midnightblue" stroke="midnightblue" points="2466.96,-253.02 2472.19,-243.8 2462.36,-247.74 2466.96,-253.02"/>
</g>
<!-- Node74&#45;&gt;Node4 -->
<g id="edge133" class="edge">
<title>Node74&#45;&gt;Node4</title>
<path fill="none" stroke="midnightblue" d="M2036.3,-459.46C2100.43,-447.04 2188,-417.23 2188,-347 2188,-347 2188,-347 2188,-289 2188,-235.05 2124.77,-205.14 2079.08,-190.57"/>
<polygon fill="midnightblue" stroke="midnightblue" points="2079.93,-187.17 2069.34,-187.61 2077.89,-193.87 2079.93,-187.17"/>
</g>
<!-- Node74&#45;&gt;Node5 -->
<g id="edge132" class="edge">
<title>Node74&#45;&gt;Node5</title>
<path fill="none" stroke="midnightblue" d="M2043.16,-467.55C2397.83,-465.24 3922.82,-453.51 3961,-423 3988.2,-401.26 3980,-381.82 3980,-347 3980,-347 3980,-347 3980,-233 3980,-196.16 3954.23,-159.57 3937.05,-139.25"/>
<polygon fill="midnightblue" stroke="midnightblue" points="3939.54,-136.79 3930.31,-131.59 3934.29,-141.41 3939.54,-136.79"/>
</g>
<!-- Node74&#45;&gt;Node10 -->
<g id="edge188" class="edge">
<title>Node74&#45;&gt;Node10</title>
<path fill="none" stroke="midnightblue" d="M2043.06,-467.94C2394.03,-467.46 3893.71,-463.04 3984,-423 4026.53,-404.14 4056,-393.53 4056,-347 4056,-347 4056,-347 4056,-177 4056,-136.46 4028.67,-129.3 3992,-112 3909.65,-73.15 3631.69,-67.68 3525.61,-67.03"/>
<polygon fill="midnightblue" stroke="midnightblue" points="3525.32,-63.53 3515.31,-66.98 3525.29,-70.53 3525.32,-63.53"/>
</g>
<!-- Node74&#45;&gt;Node12 -->
<g id="edge182" class="edge">
<title>Node74&#45;&gt;Node12</title>
<path fill="none" stroke="midnightblue" d="M1978.73,-459.3C1992.08,-444.9 2014.75,-415.38 2002,-392 1957.95,-311.27 1913.74,-313.26 1828,-280 1738.9,-245.43 1709.7,-262.82 1616,-244 1589.05,-238.59 1398.59,-202.12 1375,-188 1355.35,-176.23 1338.88,-155.4 1328.77,-140.49"/>
<polygon fill="midnightblue" stroke="midnightblue" points="1331.46,-138.2 1323.08,-131.7 1325.58,-142 1331.46,-138.2"/>
</g>
<!-- Node74&#45;&gt;Node16 -->
<g id="edge155" class="edge">
<title>Node74&#45;&gt;Node16</title>
<path fill="none" stroke="midnightblue" d="M1896.66,-466.9C1675.53,-463.32 1017.52,-450.57 805,-423 742.23,-414.86 728.14,-404.03 666,-392 617.58,-382.63 478.92,-393.6 447,-356 282.95,-162.78 1372.76,-129.51 1671.63,-124.03"/>
<polygon fill="midnightblue" stroke="midnightblue" points="1671.99,-127.53 1681.92,-123.85 1671.86,-120.53 1671.99,-127.53"/>
</g>
<!-- Node74&#45;&gt;Node19 -->
<g id="edge184" class="edge">
<title>Node74&#45;&gt;Node19</title>
<path fill="none" stroke="midnightblue" d="M2043.23,-466.56C2353.34,-459.71 3547.27,-425.28 3652,-300 3700.33,-242.19 3596.53,-167.49 3547.64,-136.95"/>
<polygon fill="midnightblue" stroke="midnightblue" points="3549.28,-133.85 3538.92,-131.61 3545.62,-139.82 3549.28,-133.85"/>
</g>
<!-- Node74&#45;&gt;Node21 -->
<g id="edge156" class="edge">
<title>Node74&#45;&gt;Node21</title>
<path fill="none" stroke="midnightblue" d="M1896.76,-468.43C1679.77,-469.18 1050.35,-467.47 970,-423 905.31,-387.19 846.65,-343.21 885,-280 915.56,-229.64 980.31,-203.23 1026.6,-190.23"/>
<polygon fill="midnightblue" stroke="midnightblue" points="1027.72,-193.56 1036.47,-187.58 1025.9,-186.79 1027.72,-193.56"/>
</g>
<!-- Node74&#45;&gt;Node22 -->
<g id="edge187" class="edge">
<title>Node74&#45;&gt;Node22</title>
<path fill="none" stroke="midnightblue" d="M1896.81,-467.83C1658.41,-466.92 905.81,-461.02 666,-423 659.35,-421.95 437.05,-361.38 433,-356 382.3,-288.67 445.46,-181.45 473.68,-140.07"/>
<polygon fill="midnightblue" stroke="midnightblue" points="476.71,-141.85 479.57,-131.65 470.97,-137.84 476.71,-141.85"/>
</g>
<!-- Node74&#45;&gt;Node25 -->
<g id="edge185" class="edge">
<title>Node74&#45;&gt;Node25</title>
<path fill="none" stroke="midnightblue" d="M1896.59,-467.32C1654.75,-464.79 884.45,-454.41 638,-423 539.62,-410.46 263.4,-382.92 209,-300 188.52,-268.79 196.96,-222.6 204.03,-197.27"/>
<polygon fill="midnightblue" stroke="midnightblue" points="207.44,-198.1 206.98,-187.51 200.74,-196.07 207.44,-198.1"/>
</g>
<!-- Node74&#45;&gt;Node26 -->
<g id="edge186" class="edge">
<title>Node74&#45;&gt;Node26</title>
<path fill="none" stroke="midnightblue" d="M2043.25,-467.4C2171.83,-465.44 2446.2,-457.21 2675,-423 3015.64,-372.07 3215.43,-514.21 3429,-244 3488.59,-168.6 3108.42,-199.58 2987.79,-187.74"/>
<polygon fill="midnightblue" stroke="midnightblue" points="2987.94,-184.23 2977.6,-186.54 2987.12,-191.18 2987.94,-184.23"/>
</g>
<!-- Node74&#45;&gt;Node32 -->
<g id="edge145" class="edge">
<title>Node74&#45;&gt;Node32</title>
<path fill="none" stroke="midnightblue" d="M2002.18,-459.49C2020.54,-452.8 2042.02,-441.45 2053,-423 2072.78,-389.78 2067.44,-371.87 2053,-336 2037.87,-298.4 2001.31,-266.94 1977.65,-249.57"/>
<polygon fill="midnightblue" stroke="midnightblue" points="1979.46,-246.56 1969.28,-243.62 1975.4,-252.27 1979.46,-246.56"/>
</g>
<!-- Node74&#45;&gt;Node45 -->
<g id="edge189" class="edge">
<title>Node74&#45;&gt;Node45</title>
<path fill="none" stroke="midnightblue" d="M1896.69,-467.82C1665.45,-466.86 961.14,-460.83 866,-423 772.77,-385.93 692.29,-290.46 662.4,-251.72"/>
<polygon fill="midnightblue" stroke="midnightblue" points="665.04,-249.4 656.21,-243.55 659.46,-253.63 665.04,-249.4"/>
</g>
<!-- Node74&#45;&gt;Node59 -->
<g id="edge146" class="edge">
<title>Node74&#45;&gt;Node59</title>
<path fill="none" stroke="midnightblue" d="M1896.91,-465.64C1752.81,-460.49 1442.33,-446.77 1400,-423 1376.98,-410.08 1361.06,-383.05 1352.48,-364.96"/>
<polygon fill="midnightblue" stroke="midnightblue" points="1355.64,-363.46 1348.37,-355.75 1349.25,-366.31 1355.64,-363.46"/>
</g>
<!-- Node51 -->
<g id="node41" class="node">
<title>Node51</title>
<g id="a_node41"><a xlink:href="ArrayRef_8h.html" target="_top" xlink:title="llvm/ADT/ArrayRef.h">
<polygon fill="none" stroke="black" points="3010,-280.5 3010,-299.5 3118,-299.5 3118,-280.5 3010,-280.5"/>
<text text-anchor="middle" x="3064" y="-287.5" font-family="Helvetica,sans-Serif" font-size="10.00">llvm/ADT/ArrayRef.h</text>
</a>
</g>
</g>
<!-- Node74&#45;&gt;Node51 -->
<g id="edge110" class="edge">
<title>Node74&#45;&gt;Node51</title>
<path fill="none" stroke="midnightblue" d="M2043.23,-467.41C2159.97,-465.42 2395.05,-457.09 2591,-423 2759,-393.77 2953.23,-329.64 3030.14,-302.98"/>
<polygon fill="midnightblue" stroke="midnightblue" points="3031.48,-306.22 3039.78,-299.63 3029.18,-299.61 3031.48,-306.22"/>
</g>
<!-- Node75 -->
<g id="node44" class="node">
<title>Node75</title>
<g id="a_node44"><a xlink:href="SmallPtrSet_8h.html" target="_top" xlink:title="llvm/ADT/SmallPtrSet.h">
<polygon fill="none" stroke="red" points="2701,-224.5 2701,-243.5 2823,-243.5 2823,-224.5 2701,-224.5"/>
<text text-anchor="middle" x="2762" y="-231.5" font-family="Helvetica,sans-Serif" font-size="10.00">llvm/ADT/SmallPtrSet.h</text>
</a>
</g>
</g>
<!-- Node74&#45;&gt;Node75 -->
<g id="edge135" class="edge">
<title>Node74&#45;&gt;Node75</title>
<path fill="none" stroke="midnightblue" d="M2043.15,-459.81C2099.01,-452.64 2177.6,-440.61 2245,-423 2436.02,-373.11 2655.65,-281.21 2733.14,-247.67"/>
<polygon fill="midnightblue" stroke="midnightblue" points="2734.92,-250.71 2742.7,-243.52 2732.13,-244.29 2734.92,-250.71"/>
</g>
<!-- Node76 -->
<g id="node45" class="node">
<title>Node76</title>
<g id="a_node45"><a xlink:href="Twine_8h.html" target="_top" xlink:title="llvm/ADT/Twine.h">
<polygon fill="none" stroke="black" points="1136.5,-336.5 1136.5,-355.5 1231.5,-355.5 1231.5,-336.5 1136.5,-336.5"/>
<text text-anchor="middle" x="1184" y="-343.5" font-family="Helvetica,sans-Serif" font-size="10.00">llvm/ADT/Twine.h</text>
</a>
</g>
</g>
<!-- Node74&#45;&gt;Node76 -->
<g id="edge148" class="edge">
<title>Node74&#45;&gt;Node76</title>
<path fill="none" stroke="midnightblue" d="M1896.87,-465.51C1758.65,-460.32 1464.02,-446.8 1365,-423 1306.79,-409.01 1243.24,-378.43 1209.09,-360.62"/>
<polygon fill="midnightblue" stroke="midnightblue" points="1210.35,-357.33 1199.87,-355.75 1207.08,-363.52 1210.35,-357.33"/>
</g>
<!-- Node77 -->
<g id="node46" class="node">
<title>Node77</title>
<g id="a_node46"><a xlink:href="ManagedStatic_8h.html" target="_top" xlink:title="llvm/Support/ManagedStatic.h">
<polygon fill="none" stroke="red" points="3804,-398 3804,-417 3952,-417 3952,-398 3804,-398"/>
<text text-anchor="middle" x="3878" y="-405" font-family="Helvetica,sans-Serif" font-size="10.00">llvm/Support/ManagedStatic.h</text>
</a>
</g>
</g>
<!-- Node74&#45;&gt;Node77 -->
<g id="edge157" class="edge">
<title>Node74&#45;&gt;Node77</title>
<path fill="none" stroke="midnightblue" d="M2043.26,-467.55C2338.56,-465.5 3442.29,-455.79 3790,-423 3800.98,-421.97 3812.65,-420.38 3823.79,-418.64"/>
<polygon fill="midnightblue" stroke="midnightblue" points="3824.53,-422.07 3833.84,-417.01 3823.41,-415.16 3824.53,-422.07"/>
</g>
<!-- Node79 -->
<g id="node47" class="node">
<title>Node79</title>
<g id="a_node47"><a xlink:href="VirtualFileSystem_8h.html" target="_top" xlink:title="Defines the virtual file system interface vfs::FileSystem. ">
<polygon fill="none" stroke="red" points="1409,-392.5 1409,-422.5 1527,-422.5 1527,-392.5 1409,-392.5"/>
<text text-anchor="start" x="1417" y="-410.5" font-family="Helvetica,sans-Serif" font-size="10.00">llvm/Support/VirtualFile</text>
<text text-anchor="middle" x="1468" y="-399.5" font-family="Helvetica,sans-Serif" font-size="10.00">System.h</text>
</a>
</g>
</g>
<!-- Node74&#45;&gt;Node79 -->
<g id="edge159" class="edge">
<title>Node74&#45;&gt;Node79</title>
<path fill="none" stroke="midnightblue" d="M1898.08,-459.48C1801.82,-448.07 1632.23,-427.97 1537.32,-416.72"/>
<polygon fill="midnightblue" stroke="midnightblue" points="1537.59,-413.22 1527.25,-415.52 1536.77,-420.18 1537.59,-413.22"/>
</g>
<!-- Node74&#45;&gt;Node85 -->
<g id="edge172" class="edge">
<title>Node74&#45;&gt;Node85</title>
<path fill="none" stroke="midnightblue" d="M1959.72,-459.3C1935.6,-438.89 1875.16,-387.75 1844.88,-362.13"/>
<polygon fill="midnightblue" stroke="midnightblue" points="1847.09,-359.41 1837.19,-355.62 1842.56,-364.75 1847.09,-359.41"/>
</g>
<!-- Node43 -->
<g id="node50" class="node">
<title>Node43</title>
<polygon fill="none" stroke="#bfbfbf" points="1947.5,-398 1947.5,-417 1992.5,-417 1992.5,-398 1947.5,-398"/>
<text text-anchor="middle" x="1970" y="-405" font-family="Helvetica,sans-Serif" font-size="10.00">climits</text>
</g>
<!-- Node74&#45;&gt;Node43 -->
<g id="edge183" class="edge">
<title>Node74&#45;&gt;Node43</title>
<path fill="none" stroke="midnightblue" d="M1970,-459.48C1970,-451.08 1970,-437.98 1970,-427.16"/>
<polygon fill="midnightblue" stroke="midnightblue" points="1973.5,-427.01 1970,-417.01 1966.5,-427.01 1973.5,-427.01"/>
</g>
<!-- Node51&#45;&gt;Node3 -->
<g id="edge121" class="edge">
<title>Node51&#45;&gt;Node3</title>
<path fill="none" stroke="midnightblue" d="M3009.77,-283.97C2903.35,-274.09 2667.37,-252.2 2550.43,-241.35"/>
<polygon fill="midnightblue" stroke="midnightblue" points="2550.45,-237.84 2540.17,-240.4 2549.81,-244.81 2550.45,-237.84"/>
</g>
<!-- Node51&#45;&gt;Node5 -->
<g id="edge119" class="edge">
<title>Node51&#45;&gt;Node5</title>
<path fill="none" stroke="midnightblue" d="M3118.35,-288.23C3217.63,-286.02 3434.58,-277.42 3614,-244 3700.55,-227.88 3722.75,-221.88 3804,-188 3838.91,-173.44 3876.8,-151.34 3899.98,-137.03"/>
<polygon fill="midnightblue" stroke="midnightblue" points="3902.05,-139.87 3908.67,-131.6 3898.34,-133.93 3902.05,-139.87"/>
</g>
<!-- Node51&#45;&gt;Node6 -->
<g id="edge122" class="edge">
<title>Node51&#45;&gt;Node6</title>
<path fill="none" stroke="midnightblue" d="M3105.42,-280.42C3213.05,-258.04 3494.46,-198.81 3512,-188 3545.61,-167.28 3585.55,-140.28 3558,-112 3528.78,-82 2230.19,-70.02 1909.18,-67.52"/>
<polygon fill="midnightblue" stroke="midnightblue" points="1909.1,-64.02 1899.07,-67.44 1909.05,-71.02 1909.1,-64.02"/>
</g>
<!-- Node51&#45;&gt;Node10 -->
<g id="edge130" class="edge">
<title>Node51&#45;&gt;Node10</title>
<path fill="none" stroke="midnightblue" d="M3118.32,-287.1C3207.6,-283.25 3390.68,-272.37 3543,-244 3575.23,-238 3582.39,-232.7 3614,-224 3673.46,-207.64 3710.48,-236.94 3748,-188 3768.55,-161.2 3769.79,-137.81 3748,-112 3720.03,-78.86 3592.67,-70.12 3525.6,-67.82"/>
<polygon fill="midnightblue" stroke="midnightblue" points="3525.48,-64.32 3515.38,-67.51 3525.27,-71.31 3525.48,-64.32"/>
</g>
<!-- Node51&#45;&gt;Node12 -->
<g id="edge125" class="edge">
<title>Node51&#45;&gt;Node12</title>
<path fill="none" stroke="midnightblue" d="M3009.81,-289.47C2842.2,-290.37 2317.53,-289.11 1886,-244 1812.89,-236.36 1630.74,-207.98 1560,-188 1536.97,-181.49 1532.83,-175.2 1510,-168 1455.98,-150.97 1391.59,-137.16 1352.8,-129.52"/>
<polygon fill="midnightblue" stroke="midnightblue" points="1353.05,-126 1342.56,-127.53 1351.71,-132.87 1353.05,-126"/>
</g>
<!-- Node51&#45;&gt;Node13 -->
<g id="edge129" class="edge">
<title>Node51&#45;&gt;Node13</title>
<path fill="none" stroke="midnightblue" d="M3065.87,-280.27C3070.13,-257.68 3077.83,-197 3045,-168 3000.02,-128.26 2055.43,-139.73 1928.35,-131.19"/>
<polygon fill="midnightblue" stroke="midnightblue" points="1928.5,-127.69 1918.22,-130.24 1927.85,-134.66 1928.5,-127.69"/>
</g>
<!-- Node51&#45;&gt;Node17 -->
<g id="edge128" class="edge">
<title>Node51&#45;&gt;Node17</title>
<path fill="none" stroke="midnightblue" d="M3118.18,-285.06C3197.52,-278.85 3349.79,-265.26 3478,-244 3492.04,-241.67 3719.1,-199.11 3728,-188 3749.11,-161.63 3750.61,-137.09 3728,-112 3714.67,-97.21 3429.03,-76.18 3329.69,-69.28"/>
<polygon fill="midnightblue" stroke="midnightblue" points="3329.82,-65.78 3319.6,-68.59 3329.33,-72.77 3329.82,-65.78"/>
</g>
<!-- Node51&#45;&gt;Node18 -->
<g id="edge123" class="edge">
<title>Node51&#45;&gt;Node18</title>
<path fill="none" stroke="midnightblue" d="M3068.97,-280.28C3080.82,-258.21 3107.61,-199.66 3078,-168 3056.23,-144.72 2583.93,-128.45 2444.45,-124.14"/>
<polygon fill="midnightblue" stroke="midnightblue" points="2444.35,-120.63 2434.24,-123.83 2444.13,-127.63 2444.35,-120.63"/>
</g>
<!-- Node51&#45;&gt;Node19 -->
<g id="edge126" class="edge">
<title>Node51&#45;&gt;Node19</title>
<path fill="none" stroke="midnightblue" d="M3118.12,-288.22C3190.48,-285.86 3322.06,-276.92 3429,-244 3481.05,-227.98 3509.62,-234.49 3538,-188 3546.81,-173.57 3540.96,-154.38 3534.34,-140.59"/>
<polygon fill="midnightblue" stroke="midnightblue" points="3537.37,-138.84 3529.58,-131.66 3531.19,-142.13 3537.37,-138.84"/>
</g>
<!-- Node51&#45;&gt;Node26 -->
<g id="edge127" class="edge">
<title>Node51&#45;&gt;Node26</title>
<path fill="none" stroke="midnightblue" d="M3054.35,-280.37C3033.6,-261.81 2984.51,-217.91 2958.26,-194.44"/>
<polygon fill="midnightblue" stroke="midnightblue" points="2960.39,-191.65 2950.61,-187.59 2955.73,-196.87 2960.39,-191.65"/>
</g>
<!-- Node51&#45;&gt;Node32 -->
<g id="edge120" class="edge">
<title>Node51&#45;&gt;Node32</title>
<path fill="none" stroke="midnightblue" d="M3009.81,-286.36C2827.05,-277.45 2233.28,-248.51 2027.22,-238.47"/>
<polygon fill="midnightblue" stroke="midnightblue" points="2027.27,-234.97 2017.11,-237.98 2026.93,-241.96 2027.27,-234.97"/>
</g>
<!-- Node51&#45;&gt;Node45 -->
<g id="edge131" class="edge">
<title>Node51&#45;&gt;Node45</title>
<path fill="none" stroke="midnightblue" d="M3009.91,-287.79C2679.82,-280.41 942.29,-241.54 682.51,-235.73"/>
<polygon fill="midnightblue" stroke="midnightblue" points="682.31,-232.22 672.24,-235.5 682.16,-239.22 682.31,-232.22"/>
</g>
<!-- Node52 -->
<g id="node42" class="node">
<title>Node52</title>
<g id="a_node42"><a xlink:href="Hashing_8h.html" target="_top" xlink:title="llvm/ADT/Hashing.h">
<polygon fill="none" stroke="red" points="1624.5,-224.5 1624.5,-243.5 1729.5,-243.5 1729.5,-224.5 1624.5,-224.5"/>
<text text-anchor="middle" x="1677" y="-231.5" font-family="Helvetica,sans-Serif" font-size="10.00">llvm/ADT/Hashing.h</text>
</a>
</g>
</g>
<!-- Node51&#45;&gt;Node52 -->
<g id="edge111" class="edge">
<title>Node51&#45;&gt;Node52</title>
<path fill="none" stroke="midnightblue" d="M3009.91,-288.08C2833.28,-284.85 2257.45,-272.7 1782,-244 1768.26,-243.17 1753.53,-242.05 1739.57,-240.88"/>
<polygon fill="midnightblue" stroke="midnightblue" points="1739.83,-237.39 1729.57,-240.03 1739.24,-244.37 1739.83,-237.39"/>
</g>
<!-- Node53 -->
<g id="node43" class="node">
<title>Node53</title>
<polygon fill="none" stroke="#bfbfbf" points="3382,-224.5 3382,-243.5 3420,-243.5 3420,-224.5 3382,-224.5"/>
<text text-anchor="middle" x="3401" y="-231.5" font-family="Helvetica,sans-Serif" font-size="10.00">array</text>
</g>
<!-- Node51&#45;&gt;Node53 -->
<g id="edge124" class="edge">
<title>Node51&#45;&gt;Node53</title>
<path fill="none" stroke="midnightblue" d="M3118.16,-282.96C3179.23,-275.7 3281.32,-262.17 3368,-244 3369.28,-243.73 3370.57,-243.45 3371.88,-243.14"/>
<polygon fill="midnightblue" stroke="midnightblue" points="3373.05,-246.46 3381.9,-240.62 3371.35,-239.67 3373.05,-246.46"/>
</g>
<!-- Node52&#45;&gt;Node9 -->
<g id="edge113" class="edge">
<title>Node52&#45;&gt;Node9</title>
<path fill="none" stroke="midnightblue" d="M1729.83,-230.06C1835.48,-223.77 2065.28,-207.98 2095,-188 2110.92,-177.29 2120.19,-156.89 2125.14,-141.78"/>
<polygon fill="midnightblue" stroke="midnightblue" points="2128.57,-142.52 2128.02,-131.94 2121.85,-140.55 2128.57,-142.52"/>
</g>
<!-- Node52&#45;&gt;Node11 -->
<g id="edge118" class="edge">
<title>Node52&#45;&gt;Node11</title>
<path fill="none" stroke="midnightblue" d="M1664.5,-224.3C1654.13,-216.25 1640.11,-203.24 1634,-188 1627.56,-171.93 1630.8,-128.82 1640,-112 1646.99,-99.22 1659.25,-88.74 1670.53,-81.11"/>
<polygon fill="midnightblue" stroke="midnightblue" points="1672.64,-83.91 1679.24,-75.62 1668.91,-77.99 1672.64,-83.91"/>
</g>
<!-- Node52&#45;&gt;Node12 -->
<g id="edge115" class="edge">
<title>Node52&#45;&gt;Node12</title>
<path fill="none" stroke="midnightblue" d="M1642.96,-224.46C1610.91,-216.14 1561.75,-202.62 1520,-188 1498.19,-180.36 1493.79,-175.7 1472,-168 1431.53,-153.71 1383.99,-140.32 1352.55,-131.92"/>
<polygon fill="midnightblue" stroke="midnightblue" points="1353.1,-128.45 1342.54,-129.27 1351.31,-135.21 1353.1,-128.45"/>
</g>
<!-- Node52&#45;&gt;Node18 -->
<g id="edge114" class="edge">
<title>Node52&#45;&gt;Node18</title>
<path fill="none" stroke="midnightblue" d="M1729.76,-229.65C1812.61,-223.92 1978.12,-210.64 2117,-188 2207.84,-173.19 2312.91,-147.32 2367.92,-133.09"/>
<polygon fill="midnightblue" stroke="midnightblue" points="2369.12,-136.4 2377.91,-130.49 2367.35,-129.62 2369.12,-136.4"/>
</g>
<!-- Node52&#45;&gt;Node21 -->
<g id="edge112" class="edge">
<title>Node52&#45;&gt;Node21</title>
<path fill="none" stroke="midnightblue" d="M1624.46,-228.26C1519.95,-218.82 1285.35,-197.63 1160.61,-186.37"/>
<polygon fill="midnightblue" stroke="midnightblue" points="1160.63,-182.86 1150.36,-185.44 1160,-189.83 1160.63,-182.86"/>
</g>
<!-- Node52&#45;&gt;Node22 -->
<g id="edge117" class="edge">
<title>Node52&#45;&gt;Node22</title>
<path fill="none" stroke="midnightblue" d="M1624.2,-226.29C1581.94,-219.78 1521.73,-207.89 1472,-188 1456.08,-181.63 1455.4,-173 1439,-168 1349.17,-140.6 670.47,-126.43 516.85,-123.55"/>
<polygon fill="midnightblue" stroke="midnightblue" points="516.77,-120.05 506.71,-123.37 516.64,-127.05 516.77,-120.05"/>
</g>
<!-- Node52&#45;&gt;Node29 -->
<g id="edge116" class="edge">
<title>Node52&#45;&gt;Node29</title>
<path fill="none" stroke="midnightblue" d="M1629.12,-224.44C1581.92,-215.85 1507.8,-201.91 1444,-188 1442.73,-187.72 1441.43,-187.43 1440.13,-187.14"/>
<polygon fill="midnightblue" stroke="midnightblue" points="1440.59,-183.65 1430.05,-184.79 1439,-190.47 1440.59,-183.65"/>
</g>
<!-- Node75&#45;&gt;Node6 -->
<g id="edge136" class="edge">
<title>Node75&#45;&gt;Node6</title>
<path fill="none" stroke="midnightblue" d="M2799.1,-224.46C2818.44,-217.92 2840.43,-206.72 2852,-188 2871.15,-157.01 2823.15,-117.12 2814,-112 2735.77,-68.21 2121.12,-66.06 1909.39,-66.63"/>
<polygon fill="midnightblue" stroke="midnightblue" points="1909.3,-63.13 1899.31,-66.66 1909.32,-70.13 1909.3,-63.13"/>
</g>
<!-- Node75&#45;&gt;Node9 -->
<g id="edge137" class="edge">
<title>Node75&#45;&gt;Node9</title>
<path fill="none" stroke="midnightblue" d="M2768.14,-224.15C2776.92,-210.32 2790.49,-183.53 2776,-168 2756.74,-147.35 2369.8,-131.4 2204.18,-125.49"/>
<polygon fill="midnightblue" stroke="midnightblue" points="2204.19,-121.98 2194.07,-125.13 2203.94,-128.98 2204.19,-121.98"/>
</g>
<!-- Node75&#45;&gt;Node11 -->
<g id="edge144" class="edge">
<title>Node75&#45;&gt;Node11</title>
<path fill="none" stroke="midnightblue" d="M2771.95,-224.21C2785.81,-210.91 2807.67,-185.39 2793,-168 2719.99,-81.46 2096.47,-104.97 1768,-76 1754.28,-74.79 1739.14,-72.97 1726.29,-71.28"/>
<polygon fill="midnightblue" stroke="midnightblue" points="1726.51,-67.78 1716.13,-69.91 1725.57,-74.72 1726.51,-67.78"/>
</g>
<!-- Node75&#45;&gt;Node12 -->
<g id="edge138" class="edge">
<title>Node75&#45;&gt;Node12</title>
<path fill="none" stroke="midnightblue" d="M2757.47,-224.23C2749.29,-209.46 2730.51,-180.06 2705,-168 2689.23,-160.54 1565.69,-129.72 1352.66,-123.94"/>
<polygon fill="midnightblue" stroke="midnightblue" points="1352.75,-120.44 1342.65,-123.67 1352.56,-127.44 1352.75,-120.44"/>
</g>
<!-- Node75&#45;&gt;Node17 -->
<g id="edge143" class="edge">
<title>Node75&#45;&gt;Node17</title>
<path fill="none" stroke="midnightblue" d="M2823.02,-232.54C2959,-230.88 3277.54,-223.24 3310,-188 3335.93,-159.85 3318.2,-111.03 3305.58,-84.83"/>
<polygon fill="midnightblue" stroke="midnightblue" points="3308.59,-83.03 3300.94,-75.7 3302.35,-86.2 3308.59,-83.03"/>
</g>
<!-- Node75&#45;&gt;Node19 -->
<g id="edge139" class="edge">
<title>Node75&#45;&gt;Node19</title>
<path fill="none" stroke="midnightblue" d="M2823.13,-231.61C2982.97,-227.61 3404.93,-214.63 3462,-188 3484,-177.73 3502.17,-155.91 3513.04,-140.39"/>
<polygon fill="midnightblue" stroke="midnightblue" points="3516.19,-141.96 3518.82,-131.7 3510.37,-138.08 3516.19,-141.96"/>
</g>
<!-- Node75&#45;&gt;Node24 -->
<g id="edge140" class="edge">
<title>Node75&#45;&gt;Node24</title>
<path fill="none" stroke="midnightblue" d="M2700.63,-224.86C2613.15,-213.25 2455.68,-192.36 2387.71,-183.34"/>
<polygon fill="midnightblue" stroke="midnightblue" points="2387.97,-179.84 2377.59,-182 2387.05,-186.78 2387.97,-179.84"/>
</g>
<!-- Node75&#45;&gt;Node26 -->
<g id="edge142" class="edge">
<title>Node75&#45;&gt;Node26</title>
<path fill="none" stroke="midnightblue" d="M2790.36,-224.44C2820.74,-215.28 2869.11,-200.69 2902.82,-190.52"/>
<polygon fill="midnightblue" stroke="midnightblue" points="2904.21,-193.76 2912.77,-187.52 2902.18,-187.05 2904.21,-193.76"/>
</g>
<!-- Node75&#45;&gt;Node29 -->
<g id="edge141" class="edge">
<title>Node75&#45;&gt;Node29</title>
<path fill="none" stroke="midnightblue" d="M2700.95,-230.37C2658.36,-228.55 2600.22,-226.09 2549,-224 2110.83,-206.11 1578.05,-185.57 1440.61,-180.29"/>
<polygon fill="midnightblue" stroke="midnightblue" points="1440.45,-176.78 1430.32,-179.89 1440.18,-183.78 1440.45,-176.78"/>
</g>
<!-- Node76&#45;&gt;Node2 -->
<g id="edge150" class="edge">
<title>Node76&#45;&gt;Node2</title>
<path fill="none" stroke="midnightblue" d="M1146.76,-336.44C1105.94,-327.06 1040.36,-311.99 996.02,-301.8"/>
<polygon fill="midnightblue" stroke="midnightblue" points="996.59,-298.34 986.06,-299.52 995.02,-305.17 996.59,-298.34"/>
</g>
<!-- Node76&#45;&gt;Node12 -->
<g id="edge152" class="edge">
<title>Node76&#45;&gt;Node12</title>
<path fill="none" stroke="midnightblue" d="M1156.03,-336.44C1083.45,-312.89 899.24,-243.84 966,-168 986.79,-144.39 1198.5,-129.81 1283.23,-124.88"/>
<polygon fill="midnightblue" stroke="midnightblue" points="1283.59,-128.36 1293.38,-124.3 1283.19,-121.37 1283.59,-128.36"/>
</g>
<!-- Node76&#45;&gt;Node21 -->
<g id="edge151" class="edge">
<title>Node76&#45;&gt;Node21</title>
<path fill="none" stroke="midnightblue" d="M1178.35,-336.08C1161.61,-309.61 1112.02,-231.21 1089.89,-196.21"/>
<polygon fill="midnightblue" stroke="midnightblue" points="1092.72,-194.15 1084.42,-187.57 1086.81,-197.89 1092.72,-194.15"/>
</g>
<!-- Node76&#45;&gt;Node22 -->
<g id="edge154" class="edge">
<title>Node76&#45;&gt;Node22</title>
<path fill="none" stroke="midnightblue" d="M1136.41,-340.32C1077.02,-333.91 972.6,-320.78 885,-300 846.09,-290.77 750.33,-260.69 714,-244 698.42,-236.84 696.52,-231.29 681,-224 636.73,-203.21 620.46,-210.45 577,-188 549.72,-173.91 521.42,-152.43 503.77,-138.06"/>
<polygon fill="midnightblue" stroke="midnightblue" points="505.95,-135.32 496.01,-131.64 501.49,-140.71 505.95,-135.32"/>
</g>
<!-- Node76&#45;&gt;Node23 -->
<g id="edge153" class="edge">
<title>Node76&#45;&gt;Node23</title>
<path fill="none" stroke="midnightblue" d="M1188.46,-336.08C1201.64,-309.72 1240.56,-231.88 1258.17,-196.66"/>
<polygon fill="midnightblue" stroke="midnightblue" points="1261.37,-198.08 1262.72,-187.57 1255.11,-194.95 1261.37,-198.08"/>
</g>
<!-- Node76&#45;&gt;Node32 -->
<g id="edge149" class="edge">
<title>Node76&#45;&gt;Node32</title>
<path fill="none" stroke="midnightblue" d="M1215.93,-336.44C1269.07,-322.51 1379.21,-294.99 1474,-280 1618.97,-257.08 1790.46,-244.49 1884.82,-238.8"/>
<polygon fill="midnightblue" stroke="midnightblue" points="1885.04,-242.29 1894.82,-238.21 1884.63,-235.31 1885.04,-242.29"/>
</g>
<!-- Node77&#45;&gt;Node19 -->
<g id="edge158" class="edge">
<title>Node77&#45;&gt;Node19</title>
<path fill="none" stroke="midnightblue" d="M3876.48,-397.84C3873.25,-378.66 3866,-331.12 3866,-291 3866,-291 3866,-291 3866,-233 3866,-168.94 3645.77,-136.86 3558.76,-126.68"/>
<polygon fill="midnightblue" stroke="midnightblue" points="3558.93,-123.18 3548.6,-125.52 3558.13,-130.13 3558.93,-123.18"/>
</g>
<!-- Node79&#45;&gt;Node2 -->
<g id="edge163" class="edge">
<title>Node79&#45;&gt;Node2</title>
<path fill="none" stroke="midnightblue" d="M1408.87,-402.74C1340.18,-397.22 1224.01,-384.34 1128,-356 1107.4,-349.92 1103.99,-343.85 1084,-336 1051.74,-323.33 1014.3,-311.04 987.05,-302.51"/>
<polygon fill="midnightblue" stroke="midnightblue" points="988.08,-299.16 977.49,-299.54 986.01,-305.85 988.08,-299.16"/>
</g>
<!-- Node79&#45;&gt;Node4 -->
<g id="edge161" class="edge">
<title>Node79&#45;&gt;Node4</title>
<path fill="none" stroke="midnightblue" d="M1527.2,-405.34C1635.46,-402.36 1860.55,-391.9 1929,-356 1987.32,-325.41 1999.72,-304.38 2026,-244 2032.31,-229.51 2033.82,-211.56 2033.9,-198.19"/>
<polygon fill="midnightblue" stroke="midnightblue" points="2037.39,-197.75 2033.67,-187.83 2030.39,-197.91 2037.39,-197.75"/>
</g>
<!-- Node79&#45;&gt;Node5 -->
<g id="edge160" class="edge">
<title>Node79&#45;&gt;Node5</title>
<path fill="none" stroke="midnightblue" d="M1527.41,-404.66C1816.47,-395.48 3077.66,-353.09 3467,-300 3581.11,-284.44 3613,-286.58 3720,-244 3791.48,-215.55 3867.02,-163.55 3902.03,-137.99"/>
<polygon fill="midnightblue" stroke="midnightblue" points="3904.44,-140.56 3910.41,-131.8 3900.29,-134.92 3904.44,-140.56"/>
</g>
<!-- Node79&#45;&gt;Node11 -->
<g id="edge170" class="edge">
<title>Node79&#45;&gt;Node11</title>
<path fill="none" stroke="midnightblue" d="M1408.69,-404.19C1203.54,-396.13 531.31,-369 435,-356 252.2,-331.32 38,-419.46 38,-235 38,-235 38,-235 38,-177 38,-96.52 128.11,-127.88 207,-112 354.67,-82.27 1466.72,-69.38 1665.6,-67.31"/>
<polygon fill="midnightblue" stroke="midnightblue" points="1665.93,-70.8 1675.89,-67.2 1665.86,-63.8 1665.93,-70.8"/>
</g>
<!-- Node79&#45;&gt;Node12 -->
<g id="edge165" class="edge">
<title>Node79&#45;&gt;Node12</title>
<path fill="none" stroke="midnightblue" d="M1408.59,-394.96C1370.89,-386.57 1321.54,-373.6 1280,-356 1263.25,-348.91 1007.97,-203.82 999,-188 994.61,-180.27 993.17,-174.71 999,-168 1035.45,-126.05 1207.54,-122.11 1282.72,-122.45"/>
<polygon fill="midnightblue" stroke="midnightblue" points="1283.05,-125.95 1293.08,-122.53 1283.1,-118.95 1283.05,-125.95"/>
</g>
<!-- Node79&#45;&gt;Node13 -->
<g id="edge167" class="edge">
<title>Node79&#45;&gt;Node13</title>
<path fill="none" stroke="midnightblue" d="M1485.69,-392.32C1518.27,-366.8 1590.67,-312.73 1659,-280 1706.54,-257.23 1727.04,-271.5 1772,-244 1818.28,-215.69 1859.83,-165.85 1879.68,-139.85"/>
<polygon fill="midnightblue" stroke="midnightblue" points="1882.58,-141.83 1885.77,-131.73 1876.97,-137.63 1882.58,-141.83"/>
</g>
<!-- Node79&#45;&gt;Node22 -->
<g id="edge168" class="edge">
<title>Node79&#45;&gt;Node22</title>
<path fill="none" stroke="midnightblue" d="M1408.86,-404.12C1192.39,-395.33 455.35,-364.77 447,-356 417.62,-325.13 461.63,-190.87 479.24,-141.4"/>
<polygon fill="midnightblue" stroke="midnightblue" points="482.64,-142.3 482.75,-131.71 476.06,-139.92 482.64,-142.3"/>
</g>
<!-- Node79&#45;&gt;Node23 -->
<g id="edge166" class="edge">
<title>Node79&#45;&gt;Node23</title>
<path fill="none" stroke="midnightblue" d="M1458.54,-392.32C1436.86,-360.36 1381.07,-281.08 1324,-224 1312.89,-212.88 1299.08,-201.92 1287.84,-193.6"/>
<polygon fill="midnightblue" stroke="midnightblue" points="1289.62,-190.57 1279.47,-187.54 1285.52,-196.24 1289.62,-190.57"/>
</g>
<!-- Node79&#45;&gt;Node32 -->
<g id="edge162" class="edge">
<title>Node79&#45;&gt;Node32</title>
<path fill="none" stroke="midnightblue" d="M1527.09,-406.91C1632.56,-406.48 1847.67,-400.06 1906,-356 1938.69,-331.31 1950.14,-281.4 1954.04,-254.03"/>
<polygon fill="midnightblue" stroke="midnightblue" points="1957.55,-254.17 1955.3,-243.81 1950.61,-253.31 1957.55,-254.17"/>
</g>
<!-- Node79&#45;&gt;Node45 -->
<g id="edge171" class="edge">
<title>Node79&#45;&gt;Node45</title>
<path fill="none" stroke="midnightblue" d="M1408.81,-403.03C1292.29,-394.86 1026.05,-369.58 814,-300 793.59,-293.3 789.85,-288.22 770,-280 740.37,-267.73 706.06,-255.01 681.74,-246.24"/>
<polygon fill="midnightblue" stroke="midnightblue" points="682.89,-242.93 672.29,-242.85 680.52,-249.52 682.89,-242.93"/>
</g>
<!-- Node79&#45;&gt;Node76 -->
<g id="edge164" class="edge">
<title>Node79&#45;&gt;Node76</title>
<path fill="none" stroke="midnightblue" d="M1408.81,-394.1C1357.36,-383.32 1283.62,-367.87 1234.8,-357.64"/>
<polygon fill="midnightblue" stroke="midnightblue" points="1235.28,-354.17 1224.78,-355.54 1233.85,-361.02 1235.28,-354.17"/>
</g>
<!-- Node86 -->
<g id="node48" class="node">
<title>Node86</title>
<polygon fill="none" stroke="#bfbfbf" points="1668,-280.5 1668,-299.5 1742,-299.5 1742,-280.5 1668,-280.5"/>
<text text-anchor="middle" x="1705" y="-287.5" font-family="Helvetica,sans-Serif" font-size="10.00">system_error</text>
</g>
<!-- Node79&#45;&gt;Node86 -->
<g id="edge169" class="edge">
<title>Node79&#45;&gt;Node86</title>
<path fill="none" stroke="midnightblue" d="M1521.65,-392.46C1550.48,-383.87 1586.14,-371.54 1616,-356 1642.59,-342.16 1669.98,-320.91 1687.22,-306.51"/>
<polygon fill="midnightblue" stroke="midnightblue" points="1689.9,-308.82 1695.25,-299.68 1685.37,-303.49 1689.9,-308.82"/>
</g>
<!-- Node85&#45;&gt;Node2 -->
<g id="edge174" class="edge">
<title>Node85&#45;&gt;Node2</title>
<path fill="none" stroke="midnightblue" d="M1757.37,-340.72C1591.67,-330.53 1175.74,-304.95 1014.4,-295.02"/>
<polygon fill="midnightblue" stroke="midnightblue" points="1014.34,-291.51 1004.14,-294.39 1013.91,-298.5 1014.34,-291.51"/>
</g>
<!-- Node85&#45;&gt;Node10 -->
<g id="edge181" class="edge">
<title>Node85&#45;&gt;Node10</title>
<path fill="none" stroke="midnightblue" d="M1896.67,-345.09C2213.86,-345.25 3513.64,-343.23 3690,-300 3833.55,-264.81 3918.66,-267.8 3977,-132 3980.51,-123.83 3982.99,-118.56 3977,-112 3946.79,-78.91 3638.7,-69.87 3525.46,-67.65"/>
<polygon fill="midnightblue" stroke="midnightblue" points="3525.19,-64.15 3515.13,-67.46 3525.06,-71.15 3525.19,-64.15"/>
</g>
<!-- Node85&#45;&gt;Node12 -->
<g id="edge175" class="edge">
<title>Node85&#45;&gt;Node12</title>
<path fill="none" stroke="midnightblue" d="M1827.24,-336.27C1827.11,-322.1 1824.59,-294.24 1808,-280 1761.9,-240.44 1596.47,-256.42 1537,-244 1525.97,-241.7 1350.26,-195.67 1342,-188 1328.93,-175.87 1322.95,-156 1320.23,-141.41"/>
<polygon fill="midnightblue" stroke="midnightblue" points="1323.69,-140.87 1318.72,-131.51 1316.77,-141.92 1323.69,-140.87"/>
</g>
<!-- Node85&#45;&gt;Node19 -->
<g id="edge176" class="edge">
<title>Node85&#45;&gt;Node19</title>
<path fill="none" stroke="midnightblue" d="M1896.68,-340.65C1924.73,-339.01 1957.4,-337.25 1987,-336 2272.19,-323.98 2988.6,-341.56 3271,-300 3404.83,-280.3 3492.99,-308.73 3554,-188 3562.28,-171.62 3551.03,-152.51 3540.02,-139.27"/>
<polygon fill="midnightblue" stroke="midnightblue" points="3542.32,-136.6 3533.03,-131.51 3537.12,-141.28 3542.32,-136.6"/>
</g>
<!-- Node85&#45;&gt;Node22 -->
<g id="edge179" class="edge">
<title>Node85&#45;&gt;Node22</title>
<path fill="none" stroke="midnightblue" d="M1820.1,-336.42C1807.9,-321.93 1780.96,-292.95 1751,-280 1615.16,-221.29 1566.94,-261.51 1420,-244 1064.57,-201.65 634.02,-143.25 516.74,-127.22"/>
<polygon fill="midnightblue" stroke="midnightblue" points="517.07,-123.73 506.69,-125.84 516.12,-130.66 517.07,-123.73"/>
</g>
<!-- Node85&#45;&gt;Node23 -->
<g id="edge177" class="edge">
<title>Node85&#45;&gt;Node23</title>
<path fill="none" stroke="midnightblue" d="M1824.1,-336.49C1818.71,-322.12 1805.69,-293.29 1784,-280 1663.49,-206.13 1604.81,-279.53 1468,-244 1445.63,-238.19 1441.78,-231.72 1420,-224 1379.2,-209.55 1331.18,-195.97 1299.96,-187.58"/>
<polygon fill="midnightblue" stroke="midnightblue" points="1300.62,-184.13 1290.06,-184.94 1298.82,-190.9 1300.62,-184.13"/>
</g>
<!-- Node85&#45;&gt;Node29 -->
<g id="edge178" class="edge">
<title>Node85&#45;&gt;Node29</title>
<path fill="none" stroke="midnightblue" d="M1837.45,-336.22C1852.02,-322.93 1875.05,-297.44 1860,-280 1824.18,-238.51 1669.45,-256.14 1616,-244 1552.5,-229.58 1480.36,-205.34 1439.6,-190.89"/>
<polygon fill="midnightblue" stroke="midnightblue" points="1440.78,-187.59 1430.18,-187.52 1438.42,-194.18 1440.78,-187.59"/>
</g>
<!-- Node85&#45;&gt;Node32 -->
<g id="edge173" class="edge">
<title>Node85&#45;&gt;Node32</title>
<path fill="none" stroke="midnightblue" d="M1843.38,-336.35C1858.36,-328.04 1880.75,-314.63 1898,-300 1915.22,-285.39 1932.08,-265.72 1943.14,-251.85"/>
<polygon fill="midnightblue" stroke="midnightblue" points="1946.12,-253.72 1949.52,-243.69 1940.61,-249.41 1946.12,-253.72"/>
</g>
<!-- Node85&#45;&gt;Node86 -->
<g id="edge180" class="edge">
<title>Node85&#45;&gt;Node86</title>
<path fill="none" stroke="midnightblue" d="M1807.67,-336.44C1787.68,-327.6 1756.26,-313.69 1733.44,-303.59"/>
<polygon fill="midnightblue" stroke="midnightblue" points="1734.8,-300.36 1724.24,-299.52 1731.97,-306.76 1734.8,-300.36"/>
</g>
</g>
</svg>
