<?xml version="1.0" encoding="UTF-8" standalone="no"?>
<!DOCTYPE svg PUBLIC "-//W3C//DTD SVG 1.1//EN"
 "http://www.w3.org/Graphics/SVG/1.1/DTD/svg11.dtd">
<!-- Generated by graphviz version 2.43.0 (0)
 -->
<!-- Title: include/llvm/TextAPI/MachO/PackedVersion.h Pages: 1 -->
<svg width="618pt" height="296pt"
 viewBox="0.00 0.00 618.00 296.00" xmlns="http://www.w3.org/2000/svg" xmlns:xlink="http://www.w3.org/1999/xlink">
<g id="graph0" class="graph" transform="scale(1 1) rotate(0) translate(4 292)">
<title>include/llvm/TextAPI/MachO/PackedVersion.h</title>
<!-- Node44 -->
<g id="node1" class="node">
<title>Node44</title>
<polygon fill="#bfbfbf" stroke="black" points="323.5,-257.5 323.5,-287.5 451.5,-287.5 451.5,-257.5 323.5,-257.5"/>
<text text-anchor="start" x="331.5" y="-275.5" font-family="Helvetica,sans-Serif" font-size="10.00">include/llvm/TextAPI</text>
<text text-anchor="middle" x="387.5" y="-264.5" font-family="Helvetica,sans-Serif" font-size="10.00">/MachO/PackedVersion.h</text>
</g>
<!-- Node45 -->
<g id="node2" class="node">
<title>Node45</title>
<g id="a_node2"><a xlink:href="InterfaceFile_8h.html" target="_top" xlink:title="include/llvm/TextAPI\l/MachO/InterfaceFile.h">
<polygon fill="none" stroke="black" points="224.5,-190.5 224.5,-220.5 340.5,-220.5 340.5,-190.5 224.5,-190.5"/>
<text text-anchor="start" x="232.5" y="-208.5" font-family="Helvetica,sans-Serif" font-size="10.00">include/llvm/TextAPI</text>
<text text-anchor="middle" x="282.5" y="-197.5" font-family="Helvetica,sans-Serif" font-size="10.00">/MachO/InterfaceFile.h</text>
</a>
</g>
</g>
<!-- Node44&#45;&gt;Node45 -->
<g id="edge1" class="edge">
<title>Node44&#45;&gt;Node45</title>
<path fill="none" stroke="midnightblue" d="M356.02,-252.02C339.68,-241.9 320.09,-229.77 305.24,-220.58"/>
<polygon fill="midnightblue" stroke="midnightblue" points="354.37,-255.11 364.72,-257.4 358.06,-249.16 354.37,-255.11"/>
</g>
<!-- Node52 -->
<g id="node9" class="node">
<title>Node52</title>
<g id="a_node9"><a xlink:href="TextStubCommon_8h.html" target="_top" xlink:title="lib/TextAPI/MachO/TextStub\lCommon.h">
<polygon fill="none" stroke="black" points="397,-123.5 397,-153.5 540,-153.5 540,-123.5 397,-123.5"/>
<text text-anchor="start" x="405" y="-141.5" font-family="Helvetica,sans-Serif" font-size="10.00">lib/TextAPI/MachO/TextStub</text>
<text text-anchor="middle" x="468.5" y="-130.5" font-family="Helvetica,sans-Serif" font-size="10.00">Common.h</text>
</a>
</g>
</g>
<!-- Node44&#45;&gt;Node52 -->
<g id="edge14" class="edge">
<title>Node44&#45;&gt;Node52</title>
<path fill="none" stroke="midnightblue" d="M396.57,-247.78C403.44,-231.03 413.69,-208.39 425.5,-190 433.96,-176.82 445.57,-163.39 454.59,-153.7"/>
<polygon fill="midnightblue" stroke="midnightblue" points="393.2,-246.77 392.74,-257.35 399.7,-249.36 393.2,-246.77"/>
</g>
<!-- Node53 -->
<g id="node10" class="node">
<title>Node53</title>
<g id="a_node10"><a xlink:href="TextStub_8cpp.html" target="_top" xlink:title="lib/TextAPI/MachO/TextStub.cpp">
<polygon fill="none" stroke="black" points="288,-62 288,-81 449,-81 449,-62 288,-62"/>
<text text-anchor="middle" x="368.5" y="-69" font-family="Helvetica,sans-Serif" font-size="10.00">lib/TextAPI/MachO/TextStub.cpp</text>
</a>
</g>
</g>
<!-- Node44&#45;&gt;Node53 -->
<g id="edge15" class="edge">
<title>Node44&#45;&gt;Node53</title>
<path fill="none" stroke="midnightblue" d="M385.16,-246.96C380.91,-202.43 372.1,-110.25 369.35,-81.36"/>
<polygon fill="midnightblue" stroke="midnightblue" points="381.7,-247.57 386.13,-257.19 388.67,-246.9 381.7,-247.57"/>
</g>
<!-- Node55 -->
<g id="node12" class="node">
<title>Node55</title>
<g id="a_node12"><a xlink:href="PackedVersion_8cpp.html" target="_top" xlink:title="lib/TextAPI/MachO/Packed\lVersion.cpp">
<polygon fill="none" stroke="black" points="434.5,-190.5 434.5,-220.5 570.5,-220.5 570.5,-190.5 434.5,-190.5"/>
<text text-anchor="start" x="442.5" y="-208.5" font-family="Helvetica,sans-Serif" font-size="10.00">lib/TextAPI/MachO/Packed</text>
<text text-anchor="middle" x="502.5" y="-197.5" font-family="Helvetica,sans-Serif" font-size="10.00">Version.cpp</text>
</a>
</g>
</g>
<!-- Node44&#45;&gt;Node55 -->
<g id="edge13" class="edge">
<title>Node44&#45;&gt;Node55</title>
<path fill="none" stroke="midnightblue" d="M421.48,-252.3C439.47,-242.12 461.18,-229.85 477.6,-220.58"/>
<polygon fill="midnightblue" stroke="midnightblue" points="419.44,-249.43 412.45,-257.4 422.88,-255.52 419.44,-249.43"/>
</g>
<!-- Node46 -->
<g id="node3" class="node">
<title>Node46</title>
<g id="a_node3"><a xlink:href="TapiFile_8h.html" target="_top" xlink:title="include/llvm/Object\l/TapiFile.h">
<polygon fill="none" stroke="black" points="159.5,-123.5 159.5,-153.5 259.5,-153.5 259.5,-123.5 159.5,-123.5"/>
<text text-anchor="start" x="167.5" y="-141.5" font-family="Helvetica,sans-Serif" font-size="10.00">include/llvm/Object</text>
<text text-anchor="middle" x="209.5" y="-130.5" font-family="Helvetica,sans-Serif" font-size="10.00">/TapiFile.h</text>
</a>
</g>
</g>
<!-- Node45&#45;&gt;Node46 -->
<g id="edge2" class="edge">
<title>Node45&#45;&gt;Node46</title>
<path fill="none" stroke="midnightblue" d="M259.03,-183.6C248,-173.78 235.16,-162.34 225.31,-153.58"/>
<polygon fill="midnightblue" stroke="midnightblue" points="256.86,-186.36 266.66,-190.4 261.52,-181.13 256.86,-186.36"/>
</g>
<!-- Node47 -->
<g id="node4" class="node">
<title>Node47</title>
<g id="a_node4"><a xlink:href="TapiUniversal_8h.html" target="_top" xlink:title="include/llvm/Object\l/TapiUniversal.h">
<polygon fill="none" stroke="black" points="169.5,-56.5 169.5,-86.5 269.5,-86.5 269.5,-56.5 169.5,-56.5"/>
<text text-anchor="start" x="177.5" y="-74.5" font-family="Helvetica,sans-Serif" font-size="10.00">include/llvm/Object</text>
<text text-anchor="middle" x="219.5" y="-63.5" font-family="Helvetica,sans-Serif" font-size="10.00">/TapiUniversal.h</text>
</a>
</g>
</g>
<!-- Node45&#45;&gt;Node47 -->
<g id="edge7" class="edge">
<title>Node45&#45;&gt;Node47</title>
<path fill="none" stroke="midnightblue" d="M282.08,-180.3C280.91,-163.44 277.57,-140.85 268.5,-123 261.3,-108.84 248.78,-96.04 238.2,-86.87"/>
<polygon fill="midnightblue" stroke="midnightblue" points="278.59,-180.63 282.57,-190.45 285.58,-180.3 278.59,-180.63"/>
</g>
<!-- Node51 -->
<g id="node8" class="node">
<title>Node51</title>
<g id="a_node8"><a xlink:href="InterfaceFile_8cpp.html" target="_top" xlink:title="lib/TextAPI/MachO/Interface\lFile.cpp">
<polygon fill="none" stroke="black" points="0,-123.5 0,-153.5 141,-153.5 141,-123.5 0,-123.5"/>
<text text-anchor="start" x="8" y="-141.5" font-family="Helvetica,sans-Serif" font-size="10.00">lib/TextAPI/MachO/Interface</text>
<text text-anchor="middle" x="70.5" y="-130.5" font-family="Helvetica,sans-Serif" font-size="10.00">File.cpp</text>
</a>
</g>
</g>
<!-- Node45&#45;&gt;Node51 -->
<g id="edge8" class="edge">
<title>Node45&#45;&gt;Node51</title>
<path fill="none" stroke="midnightblue" d="M226.87,-187.44C192.51,-176.91 148.94,-163.55 116.52,-153.61"/>
<polygon fill="midnightblue" stroke="midnightblue" points="226.17,-190.89 236.76,-190.48 228.23,-184.2 226.17,-190.89"/>
</g>
<!-- Node45&#45;&gt;Node52 -->
<g id="edge9" class="edge">
<title>Node45&#45;&gt;Node52</title>
<path fill="none" stroke="midnightblue" d="M332.31,-187.09C362.34,-176.6 400.09,-163.41 428.22,-153.58"/>
<polygon fill="midnightblue" stroke="midnightblue" points="331.14,-183.79 322.86,-190.4 333.45,-190.4 331.14,-183.79"/>
</g>
<!-- Node45&#45;&gt;Node53 -->
<g id="edge12" class="edge">
<title>Node45&#45;&gt;Node53</title>
<path fill="none" stroke="midnightblue" d="M297.24,-181.87C316.63,-152.12 349.76,-101.26 362.9,-81.1"/>
<polygon fill="midnightblue" stroke="midnightblue" points="294.23,-180.08 291.7,-190.37 300.09,-183.91 294.23,-180.08"/>
</g>
<!-- Node46&#45;&gt;Node47 -->
<g id="edge3" class="edge">
<title>Node46&#45;&gt;Node47</title>
<path fill="none" stroke="midnightblue" d="M213.21,-113.4C214.6,-104.37 216.13,-94.41 217.33,-86.58"/>
<polygon fill="midnightblue" stroke="midnightblue" points="209.73,-112.98 211.67,-123.4 216.65,-114.04 209.73,-112.98"/>
</g>
<!-- Node50 -->
<g id="node7" class="node">
<title>Node50</title>
<g id="a_node7"><a xlink:href="TapiFile_8cpp.html" target="_top" xlink:title="lib/Object/TapiFile.cpp">
<polygon fill="none" stroke="black" points="37.5,-62 37.5,-81 151.5,-81 151.5,-62 37.5,-62"/>
<text text-anchor="middle" x="94.5" y="-69" font-family="Helvetica,sans-Serif" font-size="10.00">lib/Object/TapiFile.cpp</text>
</a>
</g>
</g>
<!-- Node46&#45;&gt;Node50 -->
<g id="edge6" class="edge">
<title>Node46&#45;&gt;Node50</title>
<path fill="none" stroke="midnightblue" d="M175.84,-118.47C153.88,-106.06 126.3,-90.47 109.55,-81.01"/>
<polygon fill="midnightblue" stroke="midnightblue" points="174.12,-121.52 184.55,-123.4 177.56,-115.43 174.12,-121.52"/>
</g>
<!-- Node48 -->
<g id="node5" class="node">
<title>Node48</title>
<g id="a_node5"><a xlink:href="Binary_8cpp.html" target="_top" xlink:title="lib/Object/Binary.cpp">
<polygon fill="none" stroke="black" points="95,-0.5 95,-19.5 202,-19.5 202,-0.5 95,-0.5"/>
<text text-anchor="middle" x="148.5" y="-7.5" font-family="Helvetica,sans-Serif" font-size="10.00">lib/Object/Binary.cpp</text>
</a>
</g>
</g>
<!-- Node47&#45;&gt;Node48 -->
<g id="edge4" class="edge">
<title>Node47&#45;&gt;Node48</title>
<path fill="none" stroke="midnightblue" d="M194.91,-49.89C182.56,-39.54 168.26,-27.56 158.83,-19.66"/>
<polygon fill="midnightblue" stroke="midnightblue" points="192.76,-52.66 202.67,-56.4 197.26,-47.29 192.76,-52.66"/>
</g>
<!-- Node49 -->
<g id="node6" class="node">
<title>Node49</title>
<g id="a_node6"><a xlink:href="TapiUniversal_8cpp.html" target="_top" xlink:title="lib/Object/TapiUniversal.cpp">
<polygon fill="none" stroke="black" points="220.5,-0.5 220.5,-19.5 360.5,-19.5 360.5,-0.5 220.5,-0.5"/>
<text text-anchor="middle" x="290.5" y="-7.5" font-family="Helvetica,sans-Serif" font-size="10.00">lib/Object/TapiUniversal.cpp</text>
</a>
</g>
</g>
<!-- Node47&#45;&gt;Node49 -->
<g id="edge5" class="edge">
<title>Node47&#45;&gt;Node49</title>
<path fill="none" stroke="midnightblue" d="M244.09,-49.89C256.44,-39.54 270.74,-27.56 280.17,-19.66"/>
<polygon fill="midnightblue" stroke="midnightblue" points="241.74,-47.29 236.33,-56.4 246.24,-52.66 241.74,-47.29"/>
</g>
<!-- Node52&#45;&gt;Node53 -->
<g id="edge10" class="edge">
<title>Node52&#45;&gt;Node53</title>
<path fill="none" stroke="midnightblue" d="M438.2,-117.81C419.29,-105.51 395.89,-90.3 381.59,-81.01"/>
<polygon fill="midnightblue" stroke="midnightblue" points="436.51,-120.88 446.8,-123.4 440.32,-115.01 436.51,-120.88"/>
</g>
<!-- Node54 -->
<g id="node11" class="node">
<title>Node54</title>
<g id="a_node11"><a xlink:href="TextStubCommon_8cpp.html" target="_top" xlink:title="lib/TextAPI/MachO/TextStub\lCommon.cpp">
<polygon fill="none" stroke="black" points="467,-56.5 467,-86.5 610,-86.5 610,-56.5 467,-56.5"/>
<text text-anchor="start" x="475" y="-74.5" font-family="Helvetica,sans-Serif" font-size="10.00">lib/TextAPI/MachO/TextStub</text>
<text text-anchor="middle" x="538.5" y="-63.5" font-family="Helvetica,sans-Serif" font-size="10.00">Common.cpp</text>
</a>
</g>
</g>
<!-- Node52&#45;&gt;Node54 -->
<g id="edge11" class="edge">
<title>Node52&#45;&gt;Node54</title>
<path fill="none" stroke="midnightblue" d="M491.32,-116.31C501.82,-106.56 513.99,-95.26 523.34,-86.58"/>
<polygon fill="midnightblue" stroke="midnightblue" points="488.64,-114.03 483.69,-123.4 493.4,-119.16 488.64,-114.03"/>
</g>
</g>
</svg>
