<?xml version="1.0" encoding="UTF-8" standalone="no"?>
<!DOCTYPE svg PUBLIC "-//W3C//DTD SVG 1.1//EN"
 "http://www.w3.org/Graphics/SVG/1.1/DTD/svg11.dtd">
<!-- Generated by graphviz version 2.43.0 (0)
 -->
<!-- Title: include/llvm/ADT/PointerIntPair.h Pages: 1 -->
<svg width="618pt" height="274pt"
 viewBox="0.00 0.00 617.50 274.00" xmlns="http://www.w3.org/2000/svg" xmlns:xlink="http://www.w3.org/1999/xlink">
<g id="graph0" class="graph" transform="scale(1 1) rotate(0) translate(4 270)">
<title>include/llvm/ADT/PointerIntPair.h</title>
<!-- Node0 -->
<g id="node1" class="node">
<title>Node0</title>
<polygon fill="#bfbfbf" stroke="black" points="348,-235.5 348,-265.5 473,-265.5 473,-235.5 348,-235.5"/>
<text text-anchor="start" x="356" y="-253.5" font-family="Helvetica,sans-Serif" font-size="10.00">include/llvm/ADT/Pointer</text>
<text text-anchor="middle" x="410.5" y="-242.5" font-family="Helvetica,sans-Serif" font-size="10.00">IntPair.h</text>
</g>
<!-- Node1 -->
<g id="node2" class="node">
<title>Node1</title>
<g id="a_node2"><a xlink:href="Compiler_8h.html" target="_top" xlink:title="llvm/Support/Compiler.h">
<polygon fill="none" stroke="black" points="54.5,-112.5 54.5,-131.5 176.5,-131.5 176.5,-112.5 54.5,-112.5"/>
<text text-anchor="middle" x="115.5" y="-119.5" font-family="Helvetica,sans-Serif" font-size="10.00">llvm/Support/Compiler.h</text>
</a>
</g>
</g>
<!-- Node0&#45;&gt;Node1 -->
<g id="edge1" class="edge">
<title>Node0&#45;&gt;Node1</title>
<path fill="none" stroke="midnightblue" d="M347.69,-244.96C278.1,-238.71 171.68,-225.12 141.5,-199 124.89,-184.63 118.88,-159.17 116.71,-141.71"/>
<polygon fill="midnightblue" stroke="midnightblue" points="120.18,-141.22 115.77,-131.59 113.21,-141.87 120.18,-141.22"/>
</g>
<!-- Node4 -->
<g id="node5" class="node">
<title>Node4</title>
<g id="a_node5"><a xlink:href="PointerLikeTypeTraits_8h.html" target="_top" xlink:title="llvm/Support/PointerLike\lTypeTraits.h">
<polygon fill="none" stroke="black" points="297,-168.5 297,-198.5 420,-198.5 420,-168.5 297,-168.5"/>
<text text-anchor="start" x="305" y="-186.5" font-family="Helvetica,sans-Serif" font-size="10.00">llvm/Support/PointerLike</text>
<text text-anchor="middle" x="358.5" y="-175.5" font-family="Helvetica,sans-Serif" font-size="10.00">TypeTraits.h</text>
</a>
</g>
</g>
<!-- Node0&#45;&gt;Node4 -->
<g id="edge4" class="edge">
<title>Node0&#45;&gt;Node4</title>
<path fill="none" stroke="midnightblue" d="M399.22,-235.4C392.47,-226.96 383.75,-216.07 376.12,-206.52"/>
<polygon fill="midnightblue" stroke="midnightblue" points="378.74,-204.2 369.76,-198.58 373.28,-208.57 378.74,-204.2"/>
</g>
<!-- Node13 -->
<g id="node14" class="node">
<title>Node13</title>
<g id="a_node14"><a xlink:href="type__traits_8h.html" target="_top" xlink:title="llvm/Support/type_traits.h">
<polygon fill="none" stroke="black" points="150.5,-174 150.5,-193 278.5,-193 278.5,-174 150.5,-174"/>
<text text-anchor="middle" x="214.5" y="-181" font-family="Helvetica,sans-Serif" font-size="10.00">llvm/Support/type_traits.h</text>
</a>
</g>
</g>
<!-- Node0&#45;&gt;Node13 -->
<g id="edge13" class="edge">
<title>Node0&#45;&gt;Node13</title>
<path fill="none" stroke="midnightblue" d="M367.97,-235.4C332.67,-223.69 283.04,-207.23 249.88,-196.23"/>
<polygon fill="midnightblue" stroke="midnightblue" points="250.75,-192.83 240.15,-193.01 248.54,-199.48 250.75,-192.83"/>
</g>
<!-- Node15 -->
<g id="node16" class="node">
<title>Node15</title>
<polygon fill="none" stroke="#bfbfbf" points="438,-174 438,-193 487,-193 487,-174 438,-174"/>
<text text-anchor="middle" x="462.5" y="-181" font-family="Helvetica,sans-Serif" font-size="10.00">cassert</text>
</g>
<!-- Node0&#45;&gt;Node15 -->
<g id="edge17" class="edge">
<title>Node0&#45;&gt;Node15</title>
<path fill="none" stroke="midnightblue" d="M421.78,-235.4C429.81,-225.36 440.63,-211.84 449.1,-201.25"/>
<polygon fill="midnightblue" stroke="midnightblue" points="452.03,-203.19 455.54,-193.19 446.56,-198.82 452.03,-203.19"/>
</g>
<!-- Node16 -->
<g id="node17" class="node">
<title>Node16</title>
<polygon fill="none" stroke="#bfbfbf" points="505.5,-174 505.5,-193 551.5,-193 551.5,-174 505.5,-174"/>
<text text-anchor="middle" x="528.5" y="-181" font-family="Helvetica,sans-Serif" font-size="10.00">cstdint</text>
</g>
<!-- Node0&#45;&gt;Node16 -->
<g id="edge18" class="edge">
<title>Node0&#45;&gt;Node16</title>
<path fill="none" stroke="midnightblue" d="M436.1,-235.4C456.35,-224.24 484.42,-208.78 504.29,-197.83"/>
<polygon fill="midnightblue" stroke="midnightblue" points="505.99,-200.9 513.06,-193.01 502.61,-194.77 505.99,-200.9"/>
</g>
<!-- Node17 -->
<g id="node18" class="node">
<title>Node17</title>
<polygon fill="none" stroke="#bfbfbf" points="569.5,-174 569.5,-193 609.5,-193 609.5,-174 569.5,-174"/>
<text text-anchor="middle" x="589.5" y="-181" font-family="Helvetica,sans-Serif" font-size="10.00">limits</text>
</g>
<!-- Node0&#45;&gt;Node17 -->
<g id="edge19" class="edge">
<title>Node0&#45;&gt;Node17</title>
<path fill="none" stroke="midnightblue" d="M457.74,-235.45C487.59,-226.12 526.76,-213.04 560.5,-199 561.7,-198.5 562.92,-197.97 564.14,-197.43"/>
<polygon fill="midnightblue" stroke="midnightblue" points="565.89,-200.48 573.43,-193.03 562.89,-194.15 565.89,-200.48"/>
</g>
<!-- Node2 -->
<g id="node3" class="node">
<title>Node2</title>
<polygon fill="none" stroke="#bfbfbf" points="0,-56.5 0,-75.5 125,-75.5 125,-56.5 0,-56.5"/>
<text text-anchor="middle" x="62.5" y="-63.5" font-family="Helvetica,sans-Serif" font-size="10.00">llvm/Config/llvm&#45;config.h</text>
</g>
<!-- Node1&#45;&gt;Node2 -->
<g id="edge2" class="edge">
<title>Node1&#45;&gt;Node2</title>
<path fill="none" stroke="midnightblue" d="M106.75,-112.08C99.03,-104.22 87.6,-92.57 78.28,-83.08"/>
<polygon fill="midnightblue" stroke="midnightblue" points="80.59,-80.44 71.09,-75.75 75.6,-85.34 80.59,-80.44"/>
</g>
<!-- Node3 -->
<g id="node4" class="node">
<title>Node3</title>
<polygon fill="none" stroke="#bfbfbf" points="143.5,-56.5 143.5,-75.5 195.5,-75.5 195.5,-56.5 143.5,-56.5"/>
<text text-anchor="middle" x="169.5" y="-63.5" font-family="Helvetica,sans-Serif" font-size="10.00">stddef.h</text>
</g>
<!-- Node1&#45;&gt;Node3 -->
<g id="edge3" class="edge">
<title>Node1&#45;&gt;Node3</title>
<path fill="none" stroke="midnightblue" d="M124.42,-112.08C132.28,-104.22 143.93,-92.57 153.42,-83.08"/>
<polygon fill="midnightblue" stroke="midnightblue" points="156.15,-85.3 160.75,-75.75 151.2,-80.35 156.15,-85.3"/>
</g>
<!-- Node5 -->
<g id="node6" class="node">
<title>Node5</title>
<g id="a_node6"><a xlink:href="Support_2DataTypes_8h.html" target="_top" xlink:title="llvm/Support/DataTypes.h">
<polygon fill="none" stroke="black" points="333,-112.5 333,-131.5 464,-131.5 464,-112.5 333,-112.5"/>
<text text-anchor="middle" x="398.5" y="-119.5" font-family="Helvetica,sans-Serif" font-size="10.00">llvm/Support/DataTypes.h</text>
</a>
</g>
</g>
<!-- Node4&#45;&gt;Node5 -->
<g id="edge5" class="edge">
<title>Node4&#45;&gt;Node5</title>
<path fill="none" stroke="midnightblue" d="M367.98,-168.4C373.67,-159.93 380.95,-149.1 386.98,-140.14"/>
<polygon fill="midnightblue" stroke="midnightblue" points="390.01,-141.91 392.68,-131.66 384.2,-138 390.01,-141.91"/>
</g>
<!-- Node11 -->
<g id="node12" class="node">
<title>Node11</title>
<polygon fill="none" stroke="#bfbfbf" points="482.5,-112.5 482.5,-131.5 534.5,-131.5 534.5,-112.5 482.5,-112.5"/>
<text text-anchor="middle" x="508.5" y="-119.5" font-family="Helvetica,sans-Serif" font-size="10.00">assert.h</text>
</g>
<!-- Node4&#45;&gt;Node11 -->
<g id="edge11" class="edge">
<title>Node4&#45;&gt;Node11</title>
<path fill="none" stroke="midnightblue" d="M394.05,-168.4C419.33,-158.37 452.97,-145.03 477.23,-135.4"/>
<polygon fill="midnightblue" stroke="midnightblue" points="478.67,-138.6 486.67,-131.66 476.09,-132.09 478.67,-138.6"/>
</g>
<!-- Node12 -->
<g id="node13" class="node">
<title>Node12</title>
<polygon fill="none" stroke="#bfbfbf" points="252.5,-112.5 252.5,-131.5 314.5,-131.5 314.5,-112.5 252.5,-112.5"/>
<text text-anchor="middle" x="283.5" y="-119.5" font-family="Helvetica,sans-Serif" font-size="10.00">type_traits</text>
</g>
<!-- Node4&#45;&gt;Node12 -->
<g id="edge12" class="edge">
<title>Node4&#45;&gt;Node12</title>
<path fill="none" stroke="midnightblue" d="M340.73,-168.4C329.15,-159.22 314.08,-147.26 302.3,-137.92"/>
<polygon fill="midnightblue" stroke="midnightblue" points="304.42,-135.13 294.41,-131.66 300.07,-140.61 304.42,-135.13"/>
</g>
<!-- Node6 -->
<g id="node7" class="node">
<title>Node6</title>
<g id="a_node7"><a xlink:href="c_2DataTypes_8h.html" target="_top" xlink:title="llvm&#45;c/DataTypes.h">
<polygon fill="none" stroke="black" points="347.5,-56.5 347.5,-75.5 449.5,-75.5 449.5,-56.5 347.5,-56.5"/>
<text text-anchor="middle" x="398.5" y="-63.5" font-family="Helvetica,sans-Serif" font-size="10.00">llvm&#45;c/DataTypes.h</text>
</a>
</g>
</g>
<!-- Node5&#45;&gt;Node6 -->
<g id="edge6" class="edge">
<title>Node5&#45;&gt;Node6</title>
<path fill="none" stroke="midnightblue" d="M398.5,-112.08C398.5,-105.01 398.5,-94.86 398.5,-85.99"/>
<polygon fill="midnightblue" stroke="midnightblue" points="402,-85.75 398.5,-75.75 395,-85.75 402,-85.75"/>
</g>
<!-- Node7 -->
<g id="node8" class="node">
<title>Node7</title>
<polygon fill="none" stroke="#bfbfbf" points="268,-0.5 268,-19.5 315,-19.5 315,-0.5 268,-0.5"/>
<text text-anchor="middle" x="291.5" y="-7.5" font-family="Helvetica,sans-Serif" font-size="10.00">math.h</text>
</g>
<!-- Node6&#45;&gt;Node7 -->
<g id="edge7" class="edge">
<title>Node6&#45;&gt;Node7</title>
<path fill="none" stroke="midnightblue" d="M381.31,-56.32C364.15,-47.66 337.55,-34.24 317.75,-24.25"/>
<polygon fill="midnightblue" stroke="midnightblue" points="319.15,-21.04 308.65,-19.65 316,-27.28 319.15,-21.04"/>
</g>
<!-- Node8 -->
<g id="node9" class="node">
<title>Node8</title>
<polygon fill="none" stroke="#bfbfbf" points="333,-0.5 333,-19.5 392,-19.5 392,-0.5 333,-0.5"/>
<text text-anchor="middle" x="362.5" y="-7.5" font-family="Helvetica,sans-Serif" font-size="10.00">inttypes.h</text>
</g>
<!-- Node6&#45;&gt;Node8 -->
<g id="edge8" class="edge">
<title>Node6&#45;&gt;Node8</title>
<path fill="none" stroke="midnightblue" d="M392.56,-56.08C387.52,-48.53 380.16,-37.49 373.99,-28.23"/>
<polygon fill="midnightblue" stroke="midnightblue" points="376.79,-26.13 368.33,-19.75 370.97,-30.01 376.79,-26.13"/>
</g>
<!-- Node9 -->
<g id="node10" class="node">
<title>Node9</title>
<polygon fill="none" stroke="#bfbfbf" points="410,-0.5 410,-19.5 459,-19.5 459,-0.5 410,-0.5"/>
<text text-anchor="middle" x="434.5" y="-7.5" font-family="Helvetica,sans-Serif" font-size="10.00">stdint.h</text>
</g>
<!-- Node6&#45;&gt;Node9 -->
<g id="edge9" class="edge">
<title>Node6&#45;&gt;Node9</title>
<path fill="none" stroke="midnightblue" d="M404.44,-56.08C409.48,-48.53 416.84,-37.49 423.01,-28.23"/>
<polygon fill="midnightblue" stroke="midnightblue" points="426.03,-30.01 428.67,-19.75 420.21,-26.13 426.03,-30.01"/>
</g>
<!-- Node10 -->
<g id="node11" class="node">
<title>Node10</title>
<polygon fill="none" stroke="#bfbfbf" points="477.5,-0.5 477.5,-19.5 545.5,-19.5 545.5,-0.5 477.5,-0.5"/>
<text text-anchor="middle" x="511.5" y="-7.5" font-family="Helvetica,sans-Serif" font-size="10.00">sys/types.h</text>
</g>
<!-- Node6&#45;&gt;Node10 -->
<g id="edge10" class="edge">
<title>Node6&#45;&gt;Node10</title>
<path fill="none" stroke="midnightblue" d="M416.41,-56.44C434.75,-47.68 463.51,-33.94 484.59,-23.86"/>
<polygon fill="midnightblue" stroke="midnightblue" points="486.17,-26.99 493.68,-19.52 483.15,-20.67 486.17,-26.99"/>
</g>
<!-- Node13&#45;&gt;Node1 -->
<g id="edge14" class="edge">
<title>Node13&#45;&gt;Node1</title>
<path fill="none" stroke="midnightblue" d="M200.32,-173.98C184.14,-164.25 157.47,-148.23 138.36,-136.74"/>
<polygon fill="midnightblue" stroke="midnightblue" points="140.03,-133.66 129.66,-131.51 136.43,-139.66 140.03,-133.66"/>
</g>
<!-- Node13&#45;&gt;Node12 -->
<g id="edge15" class="edge">
<title>Node13&#45;&gt;Node12</title>
<path fill="none" stroke="midnightblue" d="M224.39,-173.98C235.15,-164.7 252.57,-149.67 265.72,-138.33"/>
<polygon fill="midnightblue" stroke="midnightblue" points="268.34,-140.69 273.63,-131.51 263.77,-135.39 268.34,-140.69"/>
</g>
<!-- Node14 -->
<g id="node15" class="node">
<title>Node14</title>
<polygon fill="none" stroke="#bfbfbf" points="194.5,-112.5 194.5,-131.5 234.5,-131.5 234.5,-112.5 194.5,-112.5"/>
<text text-anchor="middle" x="214.5" y="-119.5" font-family="Helvetica,sans-Serif" font-size="10.00">utility</text>
</g>
<!-- Node13&#45;&gt;Node14 -->
<g id="edge16" class="edge">
<title>Node13&#45;&gt;Node14</title>
<path fill="none" stroke="midnightblue" d="M214.5,-173.98C214.5,-165.58 214.5,-152.48 214.5,-141.66"/>
<polygon fill="midnightblue" stroke="midnightblue" points="218,-141.51 214.5,-131.51 211,-141.51 218,-141.51"/>
</g>
</g>
</svg>
