<?xml version="1.0" encoding="UTF-8" standalone="no"?>
<!DOCTYPE svg PUBLIC "-//W3C//DTD SVG 1.1//EN"
 "http://www.w3.org/Graphics/SVG/1.1/DTD/svg11.dtd">
<!-- Generated by graphviz version 2.43.0 (0)
 -->
<!-- Title: lib/Target/PowerPC/PPCSubtarget.h Pages: 1 -->
<svg width="3545pt" height="240pt"
 viewBox="0.00 0.00 3545.30 240.00" xmlns="http://www.w3.org/2000/svg" xmlns:xlink="http://www.w3.org/1999/xlink">
<g id="graph0" class="graph" transform="scale(1 1) rotate(0) translate(4 236)">
<title>lib/Target/PowerPC/PPCSubtarget.h</title>
<!-- Node276 -->
<g id="node1" class="node">
<title>Node276</title>
<polygon fill="#bfbfbf" stroke="black" points="2418.8,-201.5 2418.8,-231.5 2520.8,-231.5 2520.8,-201.5 2418.8,-201.5"/>
<text text-anchor="start" x="2426.8" y="-219.5" font-family="Helvetica,sans-Serif" font-size="10.00">lib/Target/PowerPC</text>
<text text-anchor="middle" x="2469.8" y="-208.5" font-family="Helvetica,sans-Serif" font-size="10.00">/PPCSubtarget.h</text>
</g>
<!-- Node277 -->
<g id="node2" class="node">
<title>Node277</title>
<g id="a_node2"><a xlink:href="PPCAsmPrinter_8cpp.html" target="_top" xlink:title="lib/Target/PowerPC\l/PPCAsmPrinter.cpp">
<polygon fill="none" stroke="black" points="15.8,-67.5 15.8,-97.5 123.8,-97.5 123.8,-67.5 15.8,-67.5"/>
<text text-anchor="start" x="23.8" y="-85.5" font-family="Helvetica,sans-Serif" font-size="10.00">lib/Target/PowerPC</text>
<text text-anchor="middle" x="69.8" y="-74.5" font-family="Helvetica,sans-Serif" font-size="10.00">/PPCAsmPrinter.cpp</text>
</a>
</g>
</g>
<!-- Node276&#45;&gt;Node277 -->
<g id="edge1" class="edge">
<title>Node276&#45;&gt;Node277</title>
<path fill="none" stroke="midnightblue" d="M2408.47,-215.42C2114.97,-214.79 852,-209.52 460.8,-165 337.82,-151 196.24,-116.9 121.79,-97.54"/>
<polygon fill="midnightblue" stroke="midnightblue" points="2408.49,-218.92 2418.49,-215.44 2408.5,-211.92 2408.49,-218.92"/>
</g>
<!-- Node278 -->
<g id="node3" class="node">
<title>Node278</title>
<g id="a_node3"><a xlink:href="PPCTargetMachine_8h.html" target="_top" xlink:title="lib/Target/PowerPC\l/PPCTargetMachine.h">
<polygon fill="none" stroke="black" points="1453.3,-134.5 1453.3,-164.5 1566.3,-164.5 1566.3,-134.5 1453.3,-134.5"/>
<text text-anchor="start" x="1461.3" y="-152.5" font-family="Helvetica,sans-Serif" font-size="10.00">lib/Target/PowerPC</text>
<text text-anchor="middle" x="1509.8" y="-141.5" font-family="Helvetica,sans-Serif" font-size="10.00">/PPCTargetMachine.h</text>
</a>
</g>
</g>
<!-- Node276&#45;&gt;Node278 -->
<g id="edge2" class="edge">
<title>Node276&#45;&gt;Node278</title>
<path fill="none" stroke="midnightblue" d="M2408.48,-211.35C2233.79,-199.52 1735.34,-165.77 1566.51,-154.34"/>
<polygon fill="midnightblue" stroke="midnightblue" points="2408.31,-214.84 2418.53,-212.03 2408.78,-207.86 2408.31,-214.84"/>
</g>
<!-- Node280 -->
<g id="node5" class="node">
<title>Node280</title>
<g id="a_node5"><a xlink:href="PPCCTRLoops_8cpp.html" target="_top" xlink:title="lib/Target/PowerPC\l/PPCCTRLoops.cpp">
<polygon fill="none" stroke="black" points="938.3,-0.5 938.3,-30.5 1045.3,-30.5 1045.3,-0.5 938.3,-0.5"/>
<text text-anchor="start" x="946.3" y="-18.5" font-family="Helvetica,sans-Serif" font-size="10.00">lib/Target/PowerPC</text>
<text text-anchor="middle" x="991.8" y="-7.5" font-family="Helvetica,sans-Serif" font-size="10.00">/PPCCTRLoops.cpp</text>
</a>
</g>
</g>
<!-- Node276&#45;&gt;Node280 -->
<g id="edge31" class="edge">
<title>Node276&#45;&gt;Node280</title>
<path fill="none" stroke="midnightblue" d="M2408.14,-214.9C2074.26,-211.56 489.99,-194.24 273.8,-165 152.56,-148.6 82.05,-194.47 6.8,-98 -1.67,-87.14 -2.69,-76.99 6.8,-67 39.09,-33.02 736.98,-20.22 938.04,-17.23"/>
<polygon fill="midnightblue" stroke="midnightblue" points="2408.53,-218.41 2418.57,-215.01 2408.6,-211.41 2408.53,-218.41"/>
</g>
<!-- Node282 -->
<g id="node7" class="node">
<title>Node282</title>
<g id="a_node7"><a xlink:href="PPCTargetMachine_8cpp.html" target="_top" xlink:title="lib/Target/PowerPC\l/PPCTargetMachine.cpp">
<polygon fill="none" stroke="black" points="1717.8,-0.5 1717.8,-30.5 1841.8,-30.5 1841.8,-0.5 1717.8,-0.5"/>
<text text-anchor="start" x="1725.8" y="-18.5" font-family="Helvetica,sans-Serif" font-size="10.00">lib/Target/PowerPC</text>
<text text-anchor="middle" x="1779.8" y="-7.5" font-family="Helvetica,sans-Serif" font-size="10.00">/PPCTargetMachine.cpp</text>
</a>
</g>
</g>
<!-- Node276&#45;&gt;Node282 -->
<g id="edge44" class="edge">
<title>Node276&#45;&gt;Node282</title>
<path fill="none" stroke="midnightblue" d="M2494.05,-194.77C2504.72,-185.65 2517.39,-174.8 2528.8,-165 2544.82,-151.25 2545.43,-142.41 2564.8,-134 2702.89,-74.07 3000.81,-175.82 2896.8,-67 2860.14,-28.65 2071.44,-18.97 1841.93,-16.96"/>
<polygon fill="midnightblue" stroke="midnightblue" points="2491.67,-192.2 2486.34,-201.36 2496.22,-197.52 2491.67,-192.2"/>
</g>
<!-- Node285 -->
<g id="node10" class="node">
<title>Node285</title>
<g id="a_node10"><a xlink:href="PPCFastISel_8cpp.html" target="_top" xlink:title="lib/Target/PowerPC\l/PPCFastISel.cpp">
<polygon fill="none" stroke="black" points="141.8,-67.5 141.8,-97.5 243.8,-97.5 243.8,-67.5 141.8,-67.5"/>
<text text-anchor="start" x="149.8" y="-85.5" font-family="Helvetica,sans-Serif" font-size="10.00">lib/Target/PowerPC</text>
<text text-anchor="middle" x="192.8" y="-74.5" font-family="Helvetica,sans-Serif" font-size="10.00">/PPCFastISel.cpp</text>
</a>
</g>
</g>
<!-- Node276&#45;&gt;Node285 -->
<g id="edge33" class="edge">
<title>Node276&#45;&gt;Node285</title>
<path fill="none" stroke="midnightblue" d="M2408.67,-215.91C2187.21,-216.91 1406.26,-216.34 764.8,-165 536.04,-146.69 478.44,-139.9 252.8,-98 249.96,-97.47 247.04,-96.89 244.11,-96.28"/>
<polygon fill="midnightblue" stroke="midnightblue" points="2408.8,-219.41 2418.79,-215.86 2408.77,-212.41 2408.8,-219.41"/>
</g>
<!-- Node286 -->
<g id="node11" class="node">
<title>Node286</title>
<g id="a_node11"><a xlink:href="PPCFrameLowering_8cpp.html" target="_top" xlink:title="lib/Target/PowerPC\l/PPCFrameLowering.cpp">
<polygon fill="none" stroke="black" points="261.8,-67.5 261.8,-97.5 387.8,-97.5 387.8,-67.5 261.8,-67.5"/>
<text text-anchor="start" x="269.8" y="-85.5" font-family="Helvetica,sans-Serif" font-size="10.00">lib/Target/PowerPC</text>
<text text-anchor="middle" x="324.8" y="-74.5" font-family="Helvetica,sans-Serif" font-size="10.00">/PPCFrameLowering.cpp</text>
</a>
</g>
</g>
<!-- Node276&#45;&gt;Node286 -->
<g id="edge34" class="edge">
<title>Node276&#45;&gt;Node286</title>
<path fill="none" stroke="midnightblue" d="M2408.53,-214.51C2215.79,-211.13 1604.68,-198.34 1099.8,-165 1060.65,-162.42 435.61,-103.74 396.8,-98 393.9,-97.57 390.94,-97.1 387.95,-96.6"/>
<polygon fill="midnightblue" stroke="midnightblue" points="2408.68,-218.01 2418.74,-214.69 2408.8,-211.02 2408.68,-218.01"/>
</g>
<!-- Node288 -->
<g id="node13" class="node">
<title>Node288</title>
<g id="a_node13"><a xlink:href="PPCISelDAGToDAG_8cpp.html" target="_top" xlink:title="lib/Target/PowerPC\l/PPCISelDAGToDAG.cpp">
<polygon fill="none" stroke="black" points="406.3,-67.5 406.3,-97.5 537.3,-97.5 537.3,-67.5 406.3,-67.5"/>
<text text-anchor="start" x="414.3" y="-85.5" font-family="Helvetica,sans-Serif" font-size="10.00">lib/Target/PowerPC</text>
<text text-anchor="middle" x="471.8" y="-74.5" font-family="Helvetica,sans-Serif" font-size="10.00">/PPCISelDAGToDAG.cpp</text>
</a>
</g>
</g>
<!-- Node276&#45;&gt;Node288 -->
<g id="edge36" class="edge">
<title>Node276&#45;&gt;Node288</title>
<path fill="none" stroke="midnightblue" d="M2408.61,-215.49C2233.44,-214.89 1715.22,-209.21 1287.8,-165 1203.57,-156.29 1183.93,-143.65 1099.8,-134 855.11,-105.93 791.08,-129.44 546.8,-98 543.77,-97.61 540.69,-97.17 537.57,-96.7"/>
<polygon fill="midnightblue" stroke="midnightblue" points="2408.65,-218.99 2418.66,-215.52 2408.67,-211.99 2408.65,-218.99"/>
</g>
<!-- Node289 -->
<g id="node14" class="node">
<title>Node289</title>
<g id="a_node14"><a xlink:href="PPCISelLowering_8cpp.html" target="_top" xlink:title="lib/Target/PowerPC\l/PPCISelLowering.cpp">
<polygon fill="none" stroke="black" points="555.8,-67.5 555.8,-97.5 671.8,-97.5 671.8,-67.5 555.8,-67.5"/>
<text text-anchor="start" x="563.8" y="-85.5" font-family="Helvetica,sans-Serif" font-size="10.00">lib/Target/PowerPC</text>
<text text-anchor="middle" x="613.8" y="-74.5" font-family="Helvetica,sans-Serif" font-size="10.00">/PPCISelLowering.cpp</text>
</a>
</g>
</g>
<!-- Node276&#45;&gt;Node289 -->
<g id="edge37" class="edge">
<title>Node276&#45;&gt;Node289</title>
<path fill="none" stroke="midnightblue" d="M2408.5,-215.62C2248.92,-215.24 1807.73,-209.87 1443.8,-165 1373.64,-156.35 1357.91,-143 1287.8,-134 1019.75,-99.58 948.55,-134.69 680.8,-98 677.85,-97.6 674.84,-97.13 671.81,-96.63"/>
<polygon fill="midnightblue" stroke="midnightblue" points="2408.59,-219.12 2418.6,-215.63 2408.6,-212.12 2408.59,-219.12"/>
</g>
<!-- Node290 -->
<g id="node15" class="node">
<title>Node290</title>
<g id="a_node15"><a xlink:href="PPCLoopInstrFormPrep_8cpp.html" target="_top" xlink:title="lib/Target/PowerPC\l/PPCLoopInstrFormPrep.cpp">
<polygon fill="none" stroke="black" points="2322.3,-67.5 2322.3,-97.5 2465.3,-97.5 2465.3,-67.5 2322.3,-67.5"/>
<text text-anchor="start" x="2330.3" y="-85.5" font-family="Helvetica,sans-Serif" font-size="10.00">lib/Target/PowerPC</text>
<text text-anchor="middle" x="2393.8" y="-74.5" font-family="Helvetica,sans-Serif" font-size="10.00">/PPCLoopInstrFormPrep.cpp</text>
</a>
</g>
</g>
<!-- Node276&#45;&gt;Node290 -->
<g id="edge38" class="edge">
<title>Node276&#45;&gt;Node290</title>
<path fill="none" stroke="midnightblue" d="M2443.49,-194.87C2434.25,-186.46 2424.51,-176.11 2417.8,-165 2404.84,-143.53 2398.51,-114.64 2395.72,-97.65"/>
<polygon fill="midnightblue" stroke="midnightblue" points="2441.22,-197.53 2451.06,-201.44 2445.81,-192.24 2441.22,-197.53"/>
</g>
<!-- Node291 -->
<g id="node16" class="node">
<title>Node291</title>
<g id="a_node16"><a xlink:href="PPCLowerMASSVEntries_8cpp.html" target="_top" xlink:title="lib/Target/PowerPC\l/PPCLowerMASSVEntries.cpp">
<polygon fill="none" stroke="black" points="2483.8,-67.5 2483.8,-97.5 2635.8,-97.5 2635.8,-67.5 2483.8,-67.5"/>
<text text-anchor="start" x="2491.8" y="-85.5" font-family="Helvetica,sans-Serif" font-size="10.00">lib/Target/PowerPC</text>
<text text-anchor="middle" x="2559.8" y="-74.5" font-family="Helvetica,sans-Serif" font-size="10.00">/PPCLowerMASSVEntries.cpp</text>
</a>
</g>
</g>
<!-- Node276&#45;&gt;Node291 -->
<g id="edge39" class="edge">
<title>Node276&#45;&gt;Node291</title>
<path fill="none" stroke="midnightblue" d="M2457.65,-192.03C2450.55,-174.77 2444.91,-151.39 2455.8,-134 2466.61,-116.73 2485.2,-105.22 2503.7,-97.61"/>
<polygon fill="midnightblue" stroke="midnightblue" points="2454.57,-193.73 2461.89,-201.39 2460.95,-190.84 2454.57,-193.73"/>
</g>
<!-- Node294 -->
<g id="node19" class="node">
<title>Node294</title>
<g id="a_node19"><a xlink:href="PPCRegisterInfo_8cpp.html" target="_top" xlink:title="lib/Target/PowerPC\l/PPCRegisterInfo.cpp">
<polygon fill="none" stroke="black" points="2654.3,-67.5 2654.3,-97.5 2767.3,-97.5 2767.3,-67.5 2654.3,-67.5"/>
<text text-anchor="start" x="2662.3" y="-85.5" font-family="Helvetica,sans-Serif" font-size="10.00">lib/Target/PowerPC</text>
<text text-anchor="middle" x="2710.8" y="-74.5" font-family="Helvetica,sans-Serif" font-size="10.00">/PPCRegisterInfo.cpp</text>
</a>
</g>
</g>
<!-- Node276&#45;&gt;Node294 -->
<g id="edge42" class="edge">
<title>Node276&#45;&gt;Node294</title>
<path fill="none" stroke="midnightblue" d="M2470.66,-191.01C2472.63,-172.8 2478.27,-148.66 2493.8,-134 2496.78,-131.19 2590.94,-109.96 2654.24,-95.94"/>
<polygon fill="midnightblue" stroke="midnightblue" points="2467.15,-190.95 2469.86,-201.19 2474.13,-191.5 2467.15,-190.95"/>
</g>
<!-- Node295 -->
<g id="node20" class="node">
<title>Node295</title>
<g id="a_node20"><a xlink:href="PPCSubtarget_8cpp.html" target="_top" xlink:title="lib/Target/PowerPC\l/PPCSubtarget.cpp">
<polygon fill="none" stroke="black" points="2785.8,-67.5 2785.8,-97.5 2887.8,-97.5 2887.8,-67.5 2785.8,-67.5"/>
<text text-anchor="start" x="2793.8" y="-85.5" font-family="Helvetica,sans-Serif" font-size="10.00">lib/Target/PowerPC</text>
<text text-anchor="middle" x="2836.8" y="-74.5" font-family="Helvetica,sans-Serif" font-size="10.00">/PPCSubtarget.cpp</text>
</a>
</g>
</g>
<!-- Node276&#45;&gt;Node295 -->
<g id="edge43" class="edge">
<title>Node276&#45;&gt;Node295</title>
<path fill="none" stroke="midnightblue" d="M2480.96,-192.34C2491.37,-173.4 2508.75,-147.61 2531.8,-134 2626.58,-78.06 2668.75,-118.95 2776.8,-98 2779.64,-97.45 2782.55,-96.85 2785.48,-96.23"/>
<polygon fill="midnightblue" stroke="midnightblue" points="2477.82,-190.77 2476.29,-201.26 2484.03,-194.02 2477.82,-190.77"/>
</g>
<!-- Node301 -->
<g id="node26" class="node">
<title>Node301</title>
<g id="a_node26"><a xlink:href="PPCBranchSelector_8cpp.html" target="_top" xlink:title="lib/Target/PowerPC\l/PPCBranchSelector.cpp">
<polygon fill="none" stroke="black" points="2573.8,-134.5 2573.8,-164.5 2699.8,-164.5 2699.8,-134.5 2573.8,-134.5"/>
<text text-anchor="start" x="2581.8" y="-152.5" font-family="Helvetica,sans-Serif" font-size="10.00">lib/Target/PowerPC</text>
<text text-anchor="middle" x="2636.8" y="-141.5" font-family="Helvetica,sans-Serif" font-size="10.00">/PPCBranchSelector.cpp</text>
</a>
</g>
</g>
<!-- Node276&#45;&gt;Node301 -->
<g id="edge28" class="edge">
<title>Node276&#45;&gt;Node301</title>
<path fill="none" stroke="midnightblue" d="M2515.58,-197.68C2542.36,-187.26 2575.7,-174.28 2600.63,-164.58"/>
<polygon fill="midnightblue" stroke="midnightblue" points="2514.09,-194.51 2506.04,-201.4 2516.62,-201.03 2514.09,-194.51"/>
</g>
<!-- Node302 -->
<g id="node27" class="node">
<title>Node302</title>
<g id="a_node27"><a xlink:href="PPCCallingConv_8cpp.html" target="_top" xlink:title="lib/Target/PowerPC\l/PPCCallingConv.cpp">
<polygon fill="none" stroke="black" points="2718.3,-134.5 2718.3,-164.5 2831.3,-164.5 2831.3,-134.5 2718.3,-134.5"/>
<text text-anchor="start" x="2726.3" y="-152.5" font-family="Helvetica,sans-Serif" font-size="10.00">lib/Target/PowerPC</text>
<text text-anchor="middle" x="2774.8" y="-141.5" font-family="Helvetica,sans-Serif" font-size="10.00">/PPCCallingConv.cpp</text>
</a>
</g>
</g>
<!-- Node276&#45;&gt;Node302 -->
<g id="edge29" class="edge">
<title>Node276&#45;&gt;Node302</title>
<path fill="none" stroke="midnightblue" d="M2531.09,-202.69C2579.39,-192.56 2648.42,-178.01 2708.8,-165 2711.9,-164.33 2715.07,-163.64 2718.28,-162.95"/>
<polygon fill="midnightblue" stroke="midnightblue" points="2530.18,-199.31 2521.11,-204.78 2531.61,-206.16 2530.18,-199.31"/>
</g>
<!-- Node303 -->
<g id="node28" class="node">
<title>Node303</title>
<g id="a_node28"><a xlink:href="PPCCCState_8cpp.html" target="_top" xlink:title="lib/Target/PowerPC\l/PPCCCState.cpp">
<polygon fill="none" stroke="black" points="2849.8,-134.5 2849.8,-164.5 2951.8,-164.5 2951.8,-134.5 2849.8,-134.5"/>
<text text-anchor="start" x="2857.8" y="-152.5" font-family="Helvetica,sans-Serif" font-size="10.00">lib/Target/PowerPC</text>
<text text-anchor="middle" x="2900.8" y="-141.5" font-family="Helvetica,sans-Serif" font-size="10.00">/PPCCCState.cpp</text>
</a>
</g>
</g>
<!-- Node276&#45;&gt;Node303 -->
<g id="edge30" class="edge">
<title>Node276&#45;&gt;Node303</title>
<path fill="none" stroke="midnightblue" d="M2531.13,-209.09C2604.95,-200.93 2732.51,-185.4 2840.8,-165 2843.64,-164.46 2846.55,-163.88 2849.49,-163.26"/>
<polygon fill="midnightblue" stroke="midnightblue" points="2530.63,-205.62 2521.07,-210.19 2531.4,-212.58 2530.63,-205.62"/>
</g>
<!-- Node304 -->
<g id="node29" class="node">
<title>Node304</title>
<g id="a_node29"><a xlink:href="PPCExpandISEL_8cpp.html" target="_top" xlink:title="lib/Target/PowerPC\l/PPCExpandISEL.cpp">
<polygon fill="none" stroke="black" points="2969.8,-134.5 2969.8,-164.5 3083.8,-164.5 3083.8,-134.5 2969.8,-134.5"/>
<text text-anchor="start" x="2977.8" y="-152.5" font-family="Helvetica,sans-Serif" font-size="10.00">lib/Target/PowerPC</text>
<text text-anchor="middle" x="3026.8" y="-141.5" font-family="Helvetica,sans-Serif" font-size="10.00">/PPCExpandISEL.cpp</text>
</a>
</g>
</g>
<!-- Node276&#45;&gt;Node304 -->
<g id="edge32" class="edge">
<title>Node276&#45;&gt;Node304</title>
<path fill="none" stroke="midnightblue" d="M2531.04,-211.45C2624.24,-204.78 2807.08,-189.71 2960.8,-165 2963.7,-164.53 2966.66,-164.02 2969.64,-163.48"/>
<polygon fill="midnightblue" stroke="midnightblue" points="2530.67,-207.97 2520.94,-212.17 2531.16,-214.95 2530.67,-207.97"/>
</g>
<!-- Node305 -->
<g id="node30" class="node">
<title>Node305</title>
<g id="a_node30"><a xlink:href="PPCHazardRecognizers_8cpp.html" target="_top" xlink:title="lib/Target/PowerPC\l/PPCHazardRecognizers.cpp">
<polygon fill="none" stroke="black" points="3101.8,-134.5 3101.8,-164.5 3247.8,-164.5 3247.8,-134.5 3101.8,-134.5"/>
<text text-anchor="start" x="3109.8" y="-152.5" font-family="Helvetica,sans-Serif" font-size="10.00">lib/Target/PowerPC</text>
<text text-anchor="middle" x="3174.8" y="-141.5" font-family="Helvetica,sans-Serif" font-size="10.00">/PPCHazardRecognizers.cpp</text>
</a>
</g>
</g>
<!-- Node276&#45;&gt;Node305 -->
<g id="edge35" class="edge">
<title>Node276&#45;&gt;Node305</title>
<path fill="none" stroke="midnightblue" d="M2530.93,-212.46C2642.77,-206.47 2887.71,-191.39 3092.8,-165 3095.67,-164.63 3098.59,-164.23 3101.53,-163.81"/>
<polygon fill="midnightblue" stroke="midnightblue" points="2530.65,-208.97 2520.85,-212.99 2531.02,-215.96 2530.65,-208.97"/>
</g>
<!-- Node306 -->
<g id="node31" class="node">
<title>Node306</title>
<g id="a_node31"><a xlink:href="PPCMCInstLower_8cpp.html" target="_top" xlink:title="lib/Target/PowerPC\l/PPCMCInstLower.cpp">
<polygon fill="none" stroke="black" points="3265.8,-134.5 3265.8,-164.5 3383.8,-164.5 3383.8,-134.5 3265.8,-134.5"/>
<text text-anchor="start" x="3273.8" y="-152.5" font-family="Helvetica,sans-Serif" font-size="10.00">lib/Target/PowerPC</text>
<text text-anchor="middle" x="3324.8" y="-141.5" font-family="Helvetica,sans-Serif" font-size="10.00">/PPCMCInstLower.cpp</text>
</a>
</g>
</g>
<!-- Node276&#45;&gt;Node306 -->
<g id="edge40" class="edge">
<title>Node276&#45;&gt;Node306</title>
<path fill="none" stroke="midnightblue" d="M2531.55,-214.6C2664.68,-211.98 2988.4,-202.03 3256.8,-165 3259.67,-164.6 3262.6,-164.15 3265.55,-163.67"/>
<polygon fill="midnightblue" stroke="midnightblue" points="2531.09,-211.11 2521.16,-214.79 2531.23,-218.11 2531.09,-211.11"/>
</g>
<!-- Node307 -->
<g id="node32" class="node">
<title>Node307</title>
<g id="a_node32"><a xlink:href="PPCPreEmitPeephole_8cpp.html" target="_top" xlink:title="lib/Target/PowerPC\l/PPCPreEmitPeephole.cpp">
<polygon fill="none" stroke="black" points="3402.3,-134.5 3402.3,-164.5 3537.3,-164.5 3537.3,-134.5 3402.3,-134.5"/>
<text text-anchor="start" x="3410.3" y="-152.5" font-family="Helvetica,sans-Serif" font-size="10.00">lib/Target/PowerPC</text>
<text text-anchor="middle" x="3469.8" y="-141.5" font-family="Helvetica,sans-Serif" font-size="10.00">/PPCPreEmitPeephole.cpp</text>
</a>
</g>
</g>
<!-- Node276&#45;&gt;Node307 -->
<g id="edge41" class="edge">
<title>Node276&#45;&gt;Node307</title>
<path fill="none" stroke="midnightblue" d="M2531.31,-214.92C2679.9,-212.92 3069.96,-204.06 3392.8,-165 3395.91,-164.62 3399.08,-164.2 3402.27,-163.74"/>
<polygon fill="midnightblue" stroke="midnightblue" points="2530.99,-211.43 2521.04,-215.06 2531.08,-218.43 2530.99,-211.43"/>
</g>
<!-- Node278&#45;&gt;Node277 -->
<g id="edge3" class="edge">
<title>Node278&#45;&gt;Node277</title>
<path fill="none" stroke="midnightblue" d="M1442.88,-147.73C1203.54,-144.7 390.58,-132.08 132.8,-98 129.91,-97.62 126.95,-97.16 123.98,-96.66"/>
<polygon fill="midnightblue" stroke="midnightblue" points="1443.13,-151.23 1453.17,-147.85 1443.22,-144.23 1443.13,-151.23"/>
</g>
<!-- Node279 -->
<g id="node4" class="node">
<title>Node279</title>
<g id="a_node4"><a xlink:href="PPCBoolRetToInt_8cpp.html" target="_top" xlink:title="lib/Target/PowerPC\l/PPCBoolRetToInt.cpp">
<polygon fill="none" stroke="black" points="1451.3,-67.5 1451.3,-97.5 1568.3,-97.5 1568.3,-67.5 1451.3,-67.5"/>
<text text-anchor="start" x="1459.3" y="-85.5" font-family="Helvetica,sans-Serif" font-size="10.00">lib/Target/PowerPC</text>
<text text-anchor="middle" x="1509.8" y="-74.5" font-family="Helvetica,sans-Serif" font-size="10.00">/PPCBoolRetToInt.cpp</text>
</a>
</g>
</g>
<!-- Node278&#45;&gt;Node279 -->
<g id="edge4" class="edge">
<title>Node278&#45;&gt;Node279</title>
<path fill="none" stroke="midnightblue" d="M1509.8,-124.11C1509.8,-115.15 1509.8,-105.32 1509.8,-97.58"/>
<polygon fill="midnightblue" stroke="midnightblue" points="1506.3,-124.4 1509.8,-134.4 1513.3,-124.4 1506.3,-124.4"/>
</g>
<!-- Node278&#45;&gt;Node280 -->
<g id="edge5" class="edge">
<title>Node278&#45;&gt;Node280</title>
<path fill="none" stroke="midnightblue" d="M1443.23,-139.21C1429.23,-137.38 1414.54,-135.55 1400.8,-134 1314.31,-124.26 1076.41,-155.19 1010.8,-98 991.63,-81.29 989.79,-49.34 990.55,-30.8"/>
<polygon fill="midnightblue" stroke="midnightblue" points="1442.91,-142.7 1453.28,-140.54 1443.83,-135.76 1442.91,-142.7"/>
</g>
<!-- Node281 -->
<g id="node6" class="node">
<title>Node281</title>
<g id="a_node6"><a xlink:href="PPCTargetTransformInfo_8h.html" target="_top" xlink:title="This file a TargetTransformInfo::Concept conforming object specific to the PPC target machine...">
<polygon fill="none" stroke="black" points="1586.3,-67.5 1586.3,-97.5 1723.3,-97.5 1723.3,-67.5 1586.3,-67.5"/>
<text text-anchor="start" x="1594.3" y="-85.5" font-family="Helvetica,sans-Serif" font-size="10.00">lib/Target/PowerPC</text>
<text text-anchor="middle" x="1654.8" y="-74.5" font-family="Helvetica,sans-Serif" font-size="10.00">/PPCTargetTransformInfo.h</text>
</a>
</g>
</g>
<!-- Node278&#45;&gt;Node281 -->
<g id="edge6" class="edge">
<title>Node278&#45;&gt;Node281</title>
<path fill="none" stroke="midnightblue" d="M1550.47,-130.27C1573.56,-119.92 1602.04,-107.15 1623.4,-97.58"/>
<polygon fill="midnightblue" stroke="midnightblue" points="1548.96,-127.11 1541.26,-134.4 1551.82,-133.5 1548.96,-127.11"/>
</g>
<!-- Node278&#45;&gt;Node282 -->
<g id="edge22" class="edge">
<title>Node278&#45;&gt;Node282</title>
<path fill="none" stroke="midnightblue" d="M1576.56,-147C1623.9,-142.89 1686.76,-130.92 1731.8,-98 1755,-81.04 1768.91,-49.19 1775.39,-30.72"/>
<polygon fill="midnightblue" stroke="midnightblue" points="1576.11,-143.53 1566.41,-147.79 1576.65,-150.51 1576.11,-143.53"/>
</g>
<!-- Node284 -->
<g id="node9" class="node">
<title>Node284</title>
<g id="a_node9"><a xlink:href="PPCEarlyReturn_8cpp.html" target="_top" xlink:title="lib/Target/PowerPC\l/PPCEarlyReturn.cpp">
<polygon fill="none" stroke="black" points="1780.3,-67.5 1780.3,-97.5 1891.3,-97.5 1891.3,-67.5 1780.3,-67.5"/>
<text text-anchor="start" x="1788.3" y="-85.5" font-family="Helvetica,sans-Serif" font-size="10.00">lib/Target/PowerPC</text>
<text text-anchor="middle" x="1835.8" y="-74.5" font-family="Helvetica,sans-Serif" font-size="10.00">/PPCEarlyReturn.cpp</text>
</a>
</g>
</g>
<!-- Node278&#45;&gt;Node284 -->
<g id="edge10" class="edge">
<title>Node278&#45;&gt;Node284</title>
<path fill="none" stroke="midnightblue" d="M1576.56,-135.51C1628.23,-125.41 1701.59,-110.98 1765.8,-98 1770.42,-97.07 1775.22,-96.09 1780.03,-95.1"/>
<polygon fill="midnightblue" stroke="midnightblue" points="1575.66,-132.12 1566.52,-137.47 1577,-138.99 1575.66,-132.12"/>
</g>
<!-- Node278&#45;&gt;Node285 -->
<g id="edge11" class="edge">
<title>Node278&#45;&gt;Node285</title>
<path fill="none" stroke="midnightblue" d="M1443.07,-147.55C1217.7,-144.08 485.94,-130.53 252.8,-98 249.93,-97.6 247.01,-97.12 244.06,-96.59"/>
<polygon fill="midnightblue" stroke="midnightblue" points="1443.04,-151.05 1453.1,-147.71 1443.15,-144.05 1443.04,-151.05"/>
</g>
<!-- Node278&#45;&gt;Node286 -->
<g id="edge12" class="edge">
<title>Node278&#45;&gt;Node286</title>
<path fill="none" stroke="midnightblue" d="M1442.67,-146.06C1217.92,-137.79 500.21,-110.68 396.8,-98 393.89,-97.64 390.92,-97.23 387.93,-96.78"/>
<polygon fill="midnightblue" stroke="midnightblue" points="1442.87,-149.57 1453,-146.43 1443.13,-142.57 1442.87,-149.57"/>
</g>
<!-- Node287 -->
<g id="node12" class="node">
<title>Node287</title>
<g id="a_node12"><a xlink:href="PPCInstrInfo_8cpp.html" target="_top" xlink:title="lib/Target/PowerPC\l/PPCInstrInfo.cpp">
<polygon fill="none" stroke="black" points="1909.8,-67.5 1909.8,-97.5 2011.8,-97.5 2011.8,-67.5 1909.8,-67.5"/>
<text text-anchor="start" x="1917.8" y="-85.5" font-family="Helvetica,sans-Serif" font-size="10.00">lib/Target/PowerPC</text>
<text text-anchor="middle" x="1960.8" y="-74.5" font-family="Helvetica,sans-Serif" font-size="10.00">/PPCInstrInfo.cpp</text>
</a>
</g>
</g>
<!-- Node278&#45;&gt;Node287 -->
<g id="edge13" class="edge">
<title>Node278&#45;&gt;Node287</title>
<path fill="none" stroke="midnightblue" d="M1576.76,-141.98C1654.72,-133.9 1787.16,-118.62 1899.8,-98 1903.01,-97.41 1906.31,-96.76 1909.63,-96.07"/>
<polygon fill="midnightblue" stroke="midnightblue" points="1576.19,-138.52 1566.6,-143.03 1576.91,-145.49 1576.19,-138.52"/>
</g>
<!-- Node278&#45;&gt;Node288 -->
<g id="edge14" class="edge">
<title>Node278&#45;&gt;Node288</title>
<path fill="none" stroke="midnightblue" d="M1443.23,-143.86C1399.14,-140.86 1340.03,-136.97 1287.8,-134 958.61,-115.25 874.16,-137.39 546.8,-98 543.77,-97.64 540.68,-97.22 537.57,-96.76"/>
<polygon fill="midnightblue" stroke="midnightblue" points="1443.03,-147.36 1453.24,-144.54 1443.51,-140.37 1443.03,-147.36"/>
</g>
<!-- Node278&#45;&gt;Node289 -->
<g id="edge15" class="edge">
<title>Node278&#45;&gt;Node289</title>
<path fill="none" stroke="midnightblue" d="M1443.04,-138.74C1429.11,-136.95 1414.49,-135.25 1400.8,-134 1081.73,-104.85 998.43,-140.03 680.8,-98 677.85,-97.61 674.84,-97.16 671.8,-96.66"/>
<polygon fill="midnightblue" stroke="midnightblue" points="1442.67,-142.22 1453.04,-140.05 1443.59,-135.28 1442.67,-142.22"/>
</g>
<!-- Node278&#45;&gt;Node290 -->
<g id="edge16" class="edge">
<title>Node278&#45;&gt;Node290</title>
<path fill="none" stroke="midnightblue" d="M1576.88,-146.87C1715.03,-142.95 2041.13,-130.75 2312.8,-98 2315.78,-97.64 2318.81,-97.24 2321.88,-96.82"/>
<polygon fill="midnightblue" stroke="midnightblue" points="1576.37,-143.38 1566.47,-147.16 1576.56,-150.38 1576.37,-143.38"/>
</g>
<!-- Node278&#45;&gt;Node291 -->
<g id="edge17" class="edge">
<title>Node278&#45;&gt;Node291</title>
<path fill="none" stroke="midnightblue" d="M1577,-147.68C1734.4,-145.16 2139.03,-135.3 2474.8,-98 2477.63,-97.69 2480.5,-97.34 2483.4,-96.96"/>
<polygon fill="midnightblue" stroke="midnightblue" points="1576.49,-144.18 1566.55,-147.84 1576.6,-151.18 1576.49,-144.18"/>
</g>
<!-- Node292 -->
<g id="node17" class="node">
<title>Node292</title>
<g id="a_node17"><a xlink:href="PPCMIPeephole_8cpp.html" target="_top" xlink:title="lib/Target/PowerPC\l/PPCMIPeephole.cpp">
<polygon fill="none" stroke="black" points="2030.3,-67.5 2030.3,-97.5 2141.3,-97.5 2141.3,-67.5 2030.3,-67.5"/>
<text text-anchor="start" x="2038.3" y="-85.5" font-family="Helvetica,sans-Serif" font-size="10.00">lib/Target/PowerPC</text>
<text text-anchor="middle" x="2085.8" y="-74.5" font-family="Helvetica,sans-Serif" font-size="10.00">/PPCMIPeephole.cpp</text>
</a>
</g>
</g>
<!-- Node278&#45;&gt;Node292 -->
<g id="edge18" class="edge">
<title>Node278&#45;&gt;Node292</title>
<path fill="none" stroke="midnightblue" d="M1576.47,-144.5C1674.34,-138.03 1862.46,-123.39 2020.8,-98 2023.88,-97.51 2027.04,-96.95 2030.22,-96.36"/>
<polygon fill="midnightblue" stroke="midnightblue" points="1576.17,-141.01 1566.42,-145.15 1576.63,-147.99 1576.17,-141.01"/>
</g>
<!-- Node293 -->
<g id="node18" class="node">
<title>Node293</title>
<g id="a_node18"><a xlink:href="PPCReduceCRLogicals_8cpp.html" target="_top" xlink:title="lib/Target/PowerPC\l/PPCReduceCRLogicals.cpp">
<polygon fill="none" stroke="black" points="2159.8,-67.5 2159.8,-97.5 2303.8,-97.5 2303.8,-67.5 2159.8,-67.5"/>
<text text-anchor="start" x="2167.8" y="-85.5" font-family="Helvetica,sans-Serif" font-size="10.00">lib/Target/PowerPC</text>
<text text-anchor="middle" x="2231.8" y="-74.5" font-family="Helvetica,sans-Serif" font-size="10.00">/PPCReduceCRLogicals.cpp</text>
</a>
</g>
</g>
<!-- Node278&#45;&gt;Node293 -->
<g id="edge19" class="edge">
<title>Node278&#45;&gt;Node293</title>
<path fill="none" stroke="midnightblue" d="M1576.69,-145.35C1693.39,-139.37 1941.6,-124.56 2149.8,-98 2152.95,-97.6 2156.17,-97.16 2159.42,-96.69"/>
<polygon fill="midnightblue" stroke="midnightblue" points="1576.3,-141.86 1566.49,-145.86 1576.66,-148.85 1576.3,-141.86"/>
</g>
<!-- Node278&#45;&gt;Node294 -->
<g id="edge20" class="edge">
<title>Node278&#45;&gt;Node294</title>
<path fill="none" stroke="midnightblue" d="M1576.66,-147.03C1787.43,-142.18 2436.25,-125.34 2644.8,-98 2647.82,-97.6 2650.92,-97.14 2654.03,-96.62"/>
<polygon fill="midnightblue" stroke="midnightblue" points="1576.29,-143.54 1566.37,-147.27 1576.45,-150.54 1576.29,-143.54"/>
</g>
<!-- Node278&#45;&gt;Node295 -->
<g id="edge21" class="edge">
<title>Node278&#45;&gt;Node295</title>
<path fill="none" stroke="midnightblue" d="M1576.67,-147.58C1803.38,-144.17 2541.67,-130.77 2776.8,-98 2779.67,-97.6 2782.59,-97.12 2785.54,-96.59"/>
<polygon fill="midnightblue" stroke="midnightblue" points="1576.53,-144.08 1566.59,-147.73 1576.64,-151.08 1576.53,-144.08"/>
</g>
<!-- Node296 -->
<g id="node21" class="node">
<title>Node296</title>
<g id="a_node21"><a xlink:href="PPCTLSDynamicCall_8cpp.html" target="_top" xlink:title="lib/Target/PowerPC\l/PPCTLSDynamicCall.cpp">
<polygon fill="none" stroke="black" points="689.8,-67.5 689.8,-97.5 823.8,-97.5 823.8,-67.5 689.8,-67.5"/>
<text text-anchor="start" x="697.8" y="-85.5" font-family="Helvetica,sans-Serif" font-size="10.00">lib/Target/PowerPC</text>
<text text-anchor="middle" x="756.8" y="-74.5" font-family="Helvetica,sans-Serif" font-size="10.00">/PPCTLSDynamicCall.cpp</text>
</a>
</g>
</g>
<!-- Node278&#45;&gt;Node296 -->
<g id="edge23" class="edge">
<title>Node278&#45;&gt;Node296</title>
<path fill="none" stroke="midnightblue" d="M1443.03,-138.88C1429.09,-137.08 1414.48,-135.34 1400.8,-134 1149.06,-109.31 1083.75,-129.76 832.8,-98 829.87,-97.63 826.88,-97.21 823.86,-96.77"/>
<polygon fill="midnightblue" stroke="midnightblue" points="1442.66,-142.36 1453.03,-140.19 1443.57,-135.42 1442.66,-142.36"/>
</g>
<!-- Node297 -->
<g id="node22" class="node">
<title>Node297</title>
<g id="a_node22"><a xlink:href="PPCTOCRegDeps_8cpp.html" target="_top" xlink:title="lib/Target/PowerPC\l/PPCTOCRegDeps.cpp">
<polygon fill="none" stroke="black" points="841.8,-67.5 841.8,-97.5 963.8,-97.5 963.8,-67.5 841.8,-67.5"/>
<text text-anchor="start" x="849.8" y="-85.5" font-family="Helvetica,sans-Serif" font-size="10.00">lib/Target/PowerPC</text>
<text text-anchor="middle" x="902.8" y="-74.5" font-family="Helvetica,sans-Serif" font-size="10.00">/PPCTOCRegDeps.cpp</text>
</a>
</g>
</g>
<!-- Node278&#45;&gt;Node297 -->
<g id="edge24" class="edge">
<title>Node278&#45;&gt;Node297</title>
<path fill="none" stroke="midnightblue" d="M1443.24,-139.14C1429.24,-137.31 1414.54,-135.5 1400.8,-134 1213.23,-113.55 1164.69,-123.94 977.8,-98 973.33,-97.38 968.73,-96.67 964.11,-95.9"/>
<polygon fill="midnightblue" stroke="midnightblue" points="1442.92,-142.62 1453.29,-140.46 1443.83,-135.68 1442.92,-142.62"/>
</g>
<!-- Node298 -->
<g id="node23" class="node">
<title>Node298</title>
<g id="a_node23"><a xlink:href="PPCVSXCopy_8cpp.html" target="_top" xlink:title="lib/Target/PowerPC\l/PPCVSXCopy.cpp">
<polygon fill="none" stroke="black" points="1020.3,-67.5 1020.3,-97.5 1123.3,-97.5 1123.3,-67.5 1020.3,-67.5"/>
<text text-anchor="start" x="1028.3" y="-85.5" font-family="Helvetica,sans-Serif" font-size="10.00">lib/Target/PowerPC</text>
<text text-anchor="middle" x="1071.8" y="-74.5" font-family="Helvetica,sans-Serif" font-size="10.00">/PPCVSXCopy.cpp</text>
</a>
</g>
</g>
<!-- Node278&#45;&gt;Node298 -->
<g id="edge25" class="edge">
<title>Node278&#45;&gt;Node298</title>
<path fill="none" stroke="midnightblue" d="M1443,-139.6C1334.97,-125.2 1133.7,-98.36 1131.8,-98 1129.06,-97.49 1126.26,-96.93 1123.44,-96.34"/>
<polygon fill="midnightblue" stroke="midnightblue" points="1442.78,-143.1 1453.15,-140.95 1443.7,-136.16 1442.78,-143.1"/>
</g>
<!-- Node299 -->
<g id="node24" class="node">
<title>Node299</title>
<g id="a_node24"><a xlink:href="PPCVSXFMAMutate_8cpp.html" target="_top" xlink:title="lib/Target/PowerPC\l/PPCVSXFMAMutate.cpp">
<polygon fill="none" stroke="black" points="1141.3,-67.5 1141.3,-97.5 1272.3,-97.5 1272.3,-67.5 1141.3,-67.5"/>
<text text-anchor="start" x="1149.3" y="-85.5" font-family="Helvetica,sans-Serif" font-size="10.00">lib/Target/PowerPC</text>
<text text-anchor="middle" x="1206.8" y="-74.5" font-family="Helvetica,sans-Serif" font-size="10.00">/PPCVSXFMAMutate.cpp</text>
</a>
</g>
</g>
<!-- Node278&#45;&gt;Node299 -->
<g id="edge26" class="edge">
<title>Node278&#45;&gt;Node299</title>
<path fill="none" stroke="midnightblue" d="M1443.25,-134.22C1392.39,-123.31 1322.66,-108.35 1272.11,-97.51"/>
<polygon fill="midnightblue" stroke="midnightblue" points="1442.65,-137.67 1453.16,-136.35 1444.12,-130.83 1442.65,-137.67"/>
</g>
<!-- Node300 -->
<g id="node25" class="node">
<title>Node300</title>
<g id="a_node25"><a xlink:href="PPCVSXSwapRemoval_8cpp.html" target="_top" xlink:title="lib/Target/PowerPC\l/PPCVSXSwapRemoval.cpp">
<polygon fill="none" stroke="black" points="1290.3,-67.5 1290.3,-97.5 1433.3,-97.5 1433.3,-67.5 1290.3,-67.5"/>
<text text-anchor="start" x="1298.3" y="-85.5" font-family="Helvetica,sans-Serif" font-size="10.00">lib/Target/PowerPC</text>
<text text-anchor="middle" x="1361.8" y="-74.5" font-family="Helvetica,sans-Serif" font-size="10.00">/PPCVSXSwapRemoval.cpp</text>
</a>
</g>
</g>
<!-- Node278&#45;&gt;Node300 -->
<g id="edge27" class="edge">
<title>Node278&#45;&gt;Node300</title>
<path fill="none" stroke="midnightblue" d="M1468.29,-130.27C1444.72,-119.92 1415.66,-107.15 1393.85,-97.58"/>
<polygon fill="midnightblue" stroke="midnightblue" points="1467.12,-133.58 1477.69,-134.4 1469.94,-127.17 1467.12,-133.58"/>
</g>
<!-- Node281&#45;&gt;Node280 -->
<g id="edge7" class="edge">
<title>Node281&#45;&gt;Node280</title>
<path fill="none" stroke="midnightblue" d="M1575.78,-66.95C1374.39,-40.06 1147.24,-25.21 1045.63,-19.38"/>
<polygon fill="midnightblue" stroke="midnightblue" points="1575.58,-70.46 1585.96,-68.32 1576.51,-63.52 1575.58,-70.46"/>
</g>
<!-- Node281&#45;&gt;Node282 -->
<g id="edge8" class="edge">
<title>Node281&#45;&gt;Node282</title>
<path fill="none" stroke="midnightblue" d="M1690.93,-62.71C1710.64,-52.46 1734.64,-39.98 1752.73,-30.58"/>
<polygon fill="midnightblue" stroke="midnightblue" points="1689.18,-59.68 1681.92,-67.4 1692.41,-65.89 1689.18,-59.68"/>
</g>
<!-- Node283 -->
<g id="node8" class="node">
<title>Node283</title>
<g id="a_node8"><a xlink:href="PPCTargetTransformInfo_8cpp.html" target="_top" xlink:title="lib/Target/PowerPC\l/PPCTargetTransformInfo.cpp">
<polygon fill="none" stroke="black" points="1551.8,-0.5 1551.8,-30.5 1699.8,-30.5 1699.8,-0.5 1551.8,-0.5"/>
<text text-anchor="start" x="1559.8" y="-18.5" font-family="Helvetica,sans-Serif" font-size="10.00">lib/Target/PowerPC</text>
<text text-anchor="middle" x="1625.8" y="-7.5" font-family="Helvetica,sans-Serif" font-size="10.00">/PPCTargetTransformInfo.cpp</text>
</a>
</g>
</g>
<!-- Node281&#45;&gt;Node283 -->
<g id="edge9" class="edge">
<title>Node281&#45;&gt;Node283</title>
<path fill="none" stroke="midnightblue" d="M1644.31,-57.99C1640.21,-48.8 1635.65,-38.58 1632.08,-30.58"/>
<polygon fill="midnightblue" stroke="midnightblue" points="1641.24,-59.69 1648.51,-67.4 1647.63,-56.84 1641.24,-59.69"/>
</g>
</g>
</svg>
