<?xml version="1.0" encoding="UTF-8" standalone="no"?>
<!DOCTYPE svg PUBLIC "-//W3C//DTD SVG 1.1//EN"
 "http://www.w3.org/Graphics/SVG/1.1/DTD/svg11.dtd">
<!-- Generated by graphviz version 2.43.0 (0)
 -->
<!-- Title: include/llvm/IR/PredIteratorCache.h Pages: 1 -->
<svg width="4699pt" height="599pt"
 viewBox="0.00 0.00 4699.00 599.00" xmlns="http://www.w3.org/2000/svg" xmlns:xlink="http://www.w3.org/1999/xlink">
<g id="graph0" class="graph" transform="scale(1 1) rotate(0) translate(4 595)">
<title>include/llvm/IR/PredIteratorCache.h</title>
<!-- Node0 -->
<g id="node1" class="node">
<title>Node0</title>
<polygon fill="#bfbfbf" stroke="black" points="1429,-560.5 1429,-590.5 1565,-590.5 1565,-560.5 1429,-560.5"/>
<text text-anchor="start" x="1437" y="-578.5" font-family="Helvetica,sans-Serif" font-size="10.00">include/llvm/IR/PredIterator</text>
<text text-anchor="middle" x="1497" y="-567.5" font-family="Helvetica,sans-Serif" font-size="10.00">Cache.h</text>
</g>
<!-- Node1 -->
<g id="node2" class="node">
<title>Node1</title>
<g id="a_node2"><a xlink:href="ArrayRef_8h.html" target="_top" xlink:title="llvm/ADT/ArrayRef.h">
<polygon fill="none" stroke="black" points="1740,-280.5 1740,-299.5 1848,-299.5 1848,-280.5 1740,-280.5"/>
<text text-anchor="middle" x="1794" y="-287.5" font-family="Helvetica,sans-Serif" font-size="10.00">llvm/ADT/ArrayRef.h</text>
</a>
</g>
</g>
<!-- Node0&#45;&gt;Node1 -->
<g id="edge1" class="edge">
<title>Node0&#45;&gt;Node1</title>
<path fill="none" stroke="midnightblue" d="M1497,-560.28C1497,-538.48 1497,-495.49 1497,-459 1497,-459 1497,-459 1497,-401 1497,-351.61 1643.24,-317.37 1730.49,-301.34"/>
<polygon fill="midnightblue" stroke="midnightblue" points="1731.34,-304.74 1740.56,-299.52 1730.1,-297.85 1731.34,-304.74"/>
</g>
<!-- Node24 -->
<g id="node18" class="node">
<title>Node24</title>
<g id="a_node18"><a xlink:href="SmallVector_8h.html" target="_top" xlink:title="llvm/ADT/SmallVector.h">
<polygon fill="none" stroke="black" points="1733,-224.5 1733,-243.5 1855,-243.5 1855,-224.5 1733,-224.5"/>
<text text-anchor="middle" x="1794" y="-231.5" font-family="Helvetica,sans-Serif" font-size="10.00">llvm/ADT/SmallVector.h</text>
</a>
</g>
</g>
<!-- Node0&#45;&gt;Node24 -->
<g id="edge124" class="edge">
<title>Node0&#45;&gt;Node24</title>
<path fill="none" stroke="midnightblue" d="M1489.13,-560.41C1478,-539.13 1459,-497.21 1459,-459 1459,-459 1459,-459 1459,-345 1459,-289.94 1624.41,-257.95 1722.76,-243.79"/>
<polygon fill="midnightblue" stroke="midnightblue" points="1723.53,-247.22 1732.95,-242.35 1722.55,-240.28 1723.53,-247.22"/>
</g>
<!-- Node45 -->
<g id="node38" class="node">
<title>Node45</title>
<g id="a_node38"><a xlink:href="DenseMap_8h.html" target="_top" xlink:title="llvm/ADT/DenseMap.h">
<polygon fill="none" stroke="black" points="556,-392.5 556,-411.5 672,-411.5 672,-392.5 556,-392.5"/>
<text text-anchor="middle" x="614" y="-399.5" font-family="Helvetica,sans-Serif" font-size="10.00">llvm/ADT/DenseMap.h</text>
</a>
</g>
</g>
<!-- Node0&#45;&gt;Node45 -->
<g id="edge98" class="edge">
<title>Node0&#45;&gt;Node45</title>
<path fill="none" stroke="midnightblue" d="M1428.81,-561.26C1259.27,-528.33 821.3,-443.26 667.98,-413.48"/>
<polygon fill="midnightblue" stroke="midnightblue" points="668.35,-409.99 657.86,-411.52 667.01,-416.86 668.35,-409.99"/>
</g>
<!-- Node53 -->
<g id="node42" class="node">
<title>Node53</title>
<g id="a_node42"><a xlink:href="IR_2CFG_8h.html" target="_top" xlink:title="This file provides various utilities for inspecting and working with the control flow graph in LLVM I...">
<polygon fill="none" stroke="black" points="2619,-504.5 2619,-523.5 2699,-523.5 2699,-504.5 2619,-504.5"/>
<text text-anchor="middle" x="2659" y="-511.5" font-family="Helvetica,sans-Serif" font-size="10.00">llvm/IR/CFG.h</text>
</a>
</g>
</g>
<!-- Node0&#45;&gt;Node53 -->
<g id="edge125" class="edge">
<title>Node0&#45;&gt;Node53</title>
<path fill="none" stroke="midnightblue" d="M1565.35,-571C1777.82,-560.12 2423.59,-527.05 2608.83,-517.57"/>
<polygon fill="midnightblue" stroke="midnightblue" points="2609.03,-521.06 2618.84,-517.06 2608.67,-514.07 2609.03,-521.06"/>
</g>
<!-- Node73 -->
<g id="node50" class="node">
<title>Node73</title>
<g id="a_node50"><a xlink:href="Allocator_8h.html" target="_top" xlink:title="This file defines the MallocAllocator and BumpPtrAllocator interfaces. ">
<polygon fill="none" stroke="black" points="2395.5,-280.5 2395.5,-299.5 2516.5,-299.5 2516.5,-280.5 2395.5,-280.5"/>
<text text-anchor="middle" x="2456" y="-287.5" font-family="Helvetica,sans-Serif" font-size="10.00">llvm/Support/Allocator.h</text>
</a>
</g>
</g>
<!-- Node0&#45;&gt;Node73 -->
<g id="edge190" class="edge">
<title>Node0&#45;&gt;Node73</title>
<path fill="none" stroke="midnightblue" d="M1544.56,-560.44C1711,-511.24 2265.41,-347.34 2417.26,-302.45"/>
<polygon fill="midnightblue" stroke="midnightblue" points="2418.48,-305.74 2427.08,-299.55 2416.5,-299.03 2418.48,-305.74"/>
</g>
<!-- Node2 -->
<g id="node3" class="node">
<title>Node2</title>
<g id="a_node3"><a xlink:href="Hashing_8h.html" target="_top" xlink:title="llvm/ADT/Hashing.h">
<polygon fill="none" stroke="black" points="1659.5,-168.5 1659.5,-187.5 1764.5,-187.5 1764.5,-168.5 1659.5,-168.5"/>
<text text-anchor="middle" x="1712" y="-175.5" font-family="Helvetica,sans-Serif" font-size="10.00">llvm/ADT/Hashing.h</text>
</a>
</g>
</g>
<!-- Node1&#45;&gt;Node2 -->
<g id="edge2" class="edge">
<title>Node1&#45;&gt;Node2</title>
<path fill="none" stroke="midnightblue" d="M1771.85,-280.46C1756,-273.19 1735.51,-261.16 1724,-244 1714.91,-230.45 1712.21,-211.9 1711.62,-198.08"/>
<polygon fill="midnightblue" stroke="midnightblue" points="1715.11,-197.77 1711.51,-187.81 1708.11,-197.84 1715.11,-197.77"/>
</g>
<!-- Node10 -->
<g id="node6" class="node">
<title>Node10</title>
<g id="a_node6"><a xlink:href="Compiler_8h.html" target="_top" xlink:title="llvm/Support/Compiler.h">
<polygon fill="none" stroke="red" points="2279,-56.5 2279,-75.5 2401,-75.5 2401,-56.5 2279,-56.5"/>
<text text-anchor="middle" x="2340" y="-63.5" font-family="Helvetica,sans-Serif" font-size="10.00">llvm/Support/Compiler.h</text>
</a>
</g>
</g>
<!-- Node1&#45;&gt;Node10 -->
<g id="edge88" class="edge">
<title>Node1&#45;&gt;Node10</title>
<path fill="none" stroke="midnightblue" d="M1807.27,-280.44C1831.65,-264.82 1882.8,-232.52 1902,-224 2031.02,-166.72 2074.53,-183.41 2206,-132 2245.25,-116.65 2288.84,-94.5 2315.33,-80.43"/>
<polygon fill="midnightblue" stroke="midnightblue" points="2317.11,-83.44 2324.28,-75.64 2313.81,-77.27 2317.11,-83.44"/>
</g>
<!-- Node15 -->
<g id="node10" class="node">
<title>Node15</title>
<polygon fill="none" stroke="#bfbfbf" points="374.5,-56.5 374.5,-75.5 423.5,-75.5 423.5,-56.5 374.5,-56.5"/>
<text text-anchor="middle" x="399" y="-63.5" font-family="Helvetica,sans-Serif" font-size="10.00">cstddef</text>
</g>
<!-- Node1&#45;&gt;Node15 -->
<g id="edge92" class="edge">
<title>Node1&#45;&gt;Node15</title>
<path fill="none" stroke="midnightblue" d="M1739.88,-288.29C1529.14,-285.33 769.95,-272.76 666,-244 565.94,-216.31 543.37,-195.21 461,-132 442.35,-117.69 424.17,-97.7 412.37,-83.68"/>
<polygon fill="midnightblue" stroke="midnightblue" points="414.96,-81.32 405.9,-75.82 409.56,-85.77 414.96,-81.32"/>
</g>
<!-- Node16 -->
<g id="node11" class="node">
<title>Node16</title>
<polygon fill="none" stroke="#bfbfbf" points="1332,-56.5 1332,-75.5 1394,-75.5 1394,-56.5 1332,-56.5"/>
<text text-anchor="middle" x="1363" y="-63.5" font-family="Helvetica,sans-Serif" font-size="10.00">type_traits</text>
</g>
<!-- Node1&#45;&gt;Node16 -->
<g id="edge96" class="edge">
<title>Node1&#45;&gt;Node16</title>
<path fill="none" stroke="midnightblue" d="M1739.66,-288.3C1534.24,-285.44 811.67,-273.39 713,-244 689.7,-237.06 631.01,-209.14 619,-188 572.66,-106.45 395.96,-189.13 952,-112 1086.86,-93.29 1247.5,-77.6 1321.68,-70.73"/>
<polygon fill="midnightblue" stroke="midnightblue" points="1322.35,-74.18 1331.99,-69.78 1321.71,-67.21 1322.35,-74.18"/>
</g>
<!-- Node20 -->
<g id="node14" class="node">
<title>Node20</title>
<polygon fill="none" stroke="#bfbfbf" points="1184,-112.5 1184,-131.5 1240,-131.5 1240,-112.5 1184,-112.5"/>
<text text-anchor="middle" x="1212" y="-119.5" font-family="Helvetica,sans-Serif" font-size="10.00">algorithm</text>
</g>
<!-- Node1&#45;&gt;Node20 -->
<g id="edge89" class="edge">
<title>Node1&#45;&gt;Node20</title>
<path fill="none" stroke="midnightblue" d="M1739.91,-288.82C1519.36,-287.52 696.39,-276.69 627,-188 621.52,-181 620.94,-174.5 627,-168 665.65,-126.52 1079.55,-137.34 1136,-132 1148.28,-130.84 1161.64,-129.34 1173.69,-127.89"/>
<polygon fill="midnightblue" stroke="midnightblue" points="1174.38,-131.34 1183.88,-126.65 1173.53,-124.39 1174.38,-131.34"/>
</g>
<!-- Node21 -->
<g id="node15" class="node">
<title>Node21</title>
<polygon fill="none" stroke="#bfbfbf" points="3602.5,-112.5 3602.5,-131.5 3651.5,-131.5 3651.5,-112.5 3602.5,-112.5"/>
<text text-anchor="middle" x="3627" y="-119.5" font-family="Helvetica,sans-Serif" font-size="10.00">cassert</text>
</g>
<!-- Node1&#45;&gt;Node21 -->
<g id="edge91" class="edge">
<title>Node1&#45;&gt;Node21</title>
<path fill="none" stroke="midnightblue" d="M1848.28,-288.63C2018.58,-287.12 2557.46,-279.63 3002,-244 3204.66,-227.76 3258.67,-236.92 3456,-188 3508.24,-175.05 3566.25,-150.76 3599.5,-135.82"/>
<polygon fill="midnightblue" stroke="midnightblue" points="3601.34,-138.83 3608.99,-131.51 3598.44,-132.46 3601.34,-138.83"/>
</g>
<!-- Node23 -->
<g id="node17" class="node">
<title>Node23</title>
<g id="a_node17"><a xlink:href="None_8h.html" target="_top" xlink:title="llvm/ADT/None.h">
<polygon fill="none" stroke="black" points="3670,-112.5 3670,-131.5 3762,-131.5 3762,-112.5 3670,-112.5"/>
<text text-anchor="middle" x="3716" y="-119.5" font-family="Helvetica,sans-Serif" font-size="10.00">llvm/ADT/None.h</text>
</a>
</g>
</g>
<!-- Node1&#45;&gt;Node23 -->
<g id="edge22" class="edge">
<title>Node1&#45;&gt;Node23</title>
<path fill="none" stroke="midnightblue" d="M1848.17,-287.95C2135.34,-282.33 3468.11,-255.65 3509,-244 3585.44,-222.22 3663.01,-165.62 3697.5,-138.25"/>
<polygon fill="midnightblue" stroke="midnightblue" points="3700.09,-140.66 3705.68,-131.66 3695.7,-135.21 3700.09,-140.66"/>
</g>
<!-- Node1&#45;&gt;Node24 -->
<g id="edge23" class="edge">
<title>Node1&#45;&gt;Node24</title>
<path fill="none" stroke="midnightblue" d="M1794,-280.08C1794,-273.01 1794,-262.86 1794,-253.99"/>
<polygon fill="midnightblue" stroke="midnightblue" points="1797.5,-253.75 1794,-243.75 1790.5,-253.75 1797.5,-253.75"/>
</g>
<!-- Node26 -->
<g id="node20" class="node">
<title>Node26</title>
<polygon fill="none" stroke="#bfbfbf" points="4211.5,-56.5 4211.5,-75.5 4258.5,-75.5 4258.5,-56.5 4211.5,-56.5"/>
<text text-anchor="middle" x="4235" y="-63.5" font-family="Helvetica,sans-Serif" font-size="10.00">iterator</text>
</g>
<!-- Node1&#45;&gt;Node26 -->
<g id="edge94" class="edge">
<title>Node1&#45;&gt;Node26</title>
<path fill="none" stroke="midnightblue" d="M1848.14,-288.03C2139.9,-282.77 3515.12,-257.36 3604,-244 3839.33,-208.63 4111.33,-112.9 4202.99,-79.06"/>
<polygon fill="midnightblue" stroke="midnightblue" points="4204.37,-82.28 4212.53,-75.52 4201.93,-75.72 4204.37,-82.28"/>
</g>
<!-- Node33 -->
<g id="node26" class="node">
<title>Node33</title>
<polygon fill="none" stroke="#bfbfbf" points="1032.5,-168.5 1032.5,-187.5 1105.5,-187.5 1105.5,-168.5 1032.5,-168.5"/>
<text text-anchor="middle" x="1069" y="-175.5" font-family="Helvetica,sans-Serif" font-size="10.00">initializer_list</text>
</g>
<!-- Node1&#45;&gt;Node33 -->
<g id="edge93" class="edge">
<title>Node1&#45;&gt;Node33</title>
<path fill="none" stroke="midnightblue" d="M1739.78,-288.43C1545.12,-286.11 891.45,-275.95 861,-244 854.87,-237.56 855.42,-230.92 861,-224 880.83,-199.42 966.96,-187.6 1021.98,-182.46"/>
<polygon fill="midnightblue" stroke="midnightblue" points="1022.55,-185.92 1032.2,-181.55 1021.93,-178.95 1022.55,-185.92"/>
</g>
<!-- Node34 -->
<g id="node27" class="node">
<title>Node34</title>
<polygon fill="none" stroke="#bfbfbf" points="3867,-112.5 3867,-131.5 3919,-131.5 3919,-112.5 3867,-112.5"/>
<text text-anchor="middle" x="3893" y="-119.5" font-family="Helvetica,sans-Serif" font-size="10.00">memory</text>
</g>
<!-- Node1&#45;&gt;Node34 -->
<g id="edge95" class="edge">
<title>Node1&#45;&gt;Node34</title>
<path fill="none" stroke="midnightblue" d="M1848.38,-288.08C2135.32,-283.18 3463.48,-259.73 3549,-244 3671.43,-221.48 3808.72,-162.17 3865.83,-135.87"/>
<polygon fill="midnightblue" stroke="midnightblue" points="3867.32,-139.04 3874.91,-131.65 3864.37,-132.69 3867.32,-139.04"/>
</g>
<!-- Node36 -->
<g id="node29" class="node">
<title>Node36</title>
<g id="a_node29"><a xlink:href="STLExtras_8h.html" target="_top" xlink:title="llvm/ADT/STLExtras.h">
<polygon fill="none" stroke="black" points="2877,-224.5 2877,-243.5 2993,-243.5 2993,-224.5 2877,-224.5"/>
<text text-anchor="middle" x="2935" y="-231.5" font-family="Helvetica,sans-Serif" font-size="10.00">llvm/ADT/STLExtras.h</text>
</a>
</g>
</g>
<!-- Node1&#45;&gt;Node36 -->
<g id="edge56" class="edge">
<title>Node1&#45;&gt;Node36</title>
<path fill="none" stroke="midnightblue" d="M1848.27,-286.43C2036.09,-277.54 2658.35,-248.09 2866.5,-238.24"/>
<polygon fill="midnightblue" stroke="midnightblue" points="2866.86,-241.73 2876.68,-237.76 2866.53,-234.74 2866.86,-241.73"/>
</g>
<!-- Node43 -->
<g id="node36" class="node">
<title>Node43</title>
<polygon fill="none" stroke="#bfbfbf" points="870,-224.5 870,-243.5 908,-243.5 908,-224.5 870,-224.5"/>
<text text-anchor="middle" x="889" y="-231.5" font-family="Helvetica,sans-Serif" font-size="10.00">array</text>
</g>
<!-- Node1&#45;&gt;Node43 -->
<g id="edge90" class="edge">
<title>Node1&#45;&gt;Node43</title>
<path fill="none" stroke="midnightblue" d="M1739.93,-287.73C1575.13,-283.62 1080.75,-269.44 922,-244 920.71,-243.79 919.41,-243.56 918.09,-243.3"/>
<polygon fill="midnightblue" stroke="midnightblue" points="918.58,-239.82 908.04,-240.94 916.98,-246.63 918.58,-239.82"/>
</g>
<!-- Node44 -->
<g id="node37" class="node">
<title>Node44</title>
<polygon fill="none" stroke="#bfbfbf" points="1911,-224.5 1911,-243.5 1955,-243.5 1955,-224.5 1911,-224.5"/>
<text text-anchor="middle" x="1933" y="-231.5" font-family="Helvetica,sans-Serif" font-size="10.00">vector</text>
</g>
<!-- Node1&#45;&gt;Node44 -->
<g id="edge97" class="edge">
<title>Node1&#45;&gt;Node44</title>
<path fill="none" stroke="midnightblue" d="M1816.02,-280.44C1839.1,-271.48 1875.56,-257.31 1901.64,-247.18"/>
<polygon fill="midnightblue" stroke="midnightblue" points="1903.02,-250.4 1911.08,-243.52 1900.49,-243.88 1903.02,-250.4"/>
</g>
<!-- Node3 -->
<g id="node4" class="node">
<title>Node3</title>
<g id="a_node4"><a xlink:href="Support_2DataTypes_8h.html" target="_top" xlink:title="llvm/Support/DataTypes.h">
<polygon fill="none" stroke="red" points="1586.5,-56.5 1586.5,-75.5 1717.5,-75.5 1717.5,-56.5 1586.5,-56.5"/>
<text text-anchor="middle" x="1652" y="-63.5" font-family="Helvetica,sans-Serif" font-size="10.00">llvm/Support/DataTypes.h</text>
</a>
</g>
</g>
<!-- Node2&#45;&gt;Node3 -->
<g id="edge3" class="edge">
<title>Node2&#45;&gt;Node3</title>
<path fill="none" stroke="midnightblue" d="M1707.29,-168.37C1697.48,-150.38 1674.66,-108.55 1661.61,-84.63"/>
<polygon fill="midnightblue" stroke="midnightblue" points="1664.55,-82.69 1656.69,-75.59 1658.4,-86.05 1664.55,-82.69"/>
</g>
<!-- Node9 -->
<g id="node5" class="node">
<title>Node9</title>
<g id="a_node5"><a xlink:href="Support_2ErrorHandling_8h.html" target="_top" xlink:title="llvm/Support/ErrorHandling.h">
<polygon fill="none" stroke="black" points="2953,-112.5 2953,-131.5 3095,-131.5 3095,-112.5 2953,-112.5"/>
<text text-anchor="middle" x="3024" y="-119.5" font-family="Helvetica,sans-Serif" font-size="10.00">llvm/Support/ErrorHandling.h</text>
</a>
</g>
</g>
<!-- Node2&#45;&gt;Node9 -->
<g id="edge4" class="edge">
<title>Node2&#45;&gt;Node9</title>
<path fill="none" stroke="midnightblue" d="M1764.61,-176.5C1933.91,-174.58 2479.96,-166.05 2942.7,-132.03"/>
<polygon fill="midnightblue" stroke="midnightblue" points="2943.21,-135.51 2952.93,-131.28 2942.69,-128.53 2943.21,-135.51"/>
</g>
<!-- Node13 -->
<g id="node8" class="node">
<title>Node13</title>
<polygon fill="none" stroke="#bfbfbf" points="4454.5,-56.5 4454.5,-75.5 4495.5,-75.5 4495.5,-56.5 4454.5,-56.5"/>
<text text-anchor="middle" x="4475" y="-63.5" font-family="Helvetica,sans-Serif" font-size="10.00">string</text>
</g>
<!-- Node2&#45;&gt;Node13 -->
<g id="edge20" class="edge">
<title>Node2&#45;&gt;Node13</title>
<path fill="none" stroke="midnightblue" d="M1735.48,-168.43C1780.57,-152.14 1877.9,-117.81 1913,-112 2171.18,-69.27 4006.42,-83.68 4268,-76 4330.71,-74.16 4404.06,-70.65 4444.44,-68.6"/>
<polygon fill="midnightblue" stroke="midnightblue" points="4444.63,-72.09 4454.44,-68.09 4444.27,-65.1 4444.63,-72.09"/>
</g>
<!-- Node14 -->
<g id="node9" class="node">
<title>Node14</title>
<g id="a_node9"><a xlink:href="SwapByteOrder_8h.html" target="_top" xlink:title="llvm/Support/SwapByteOrder.h">
<polygon fill="none" stroke="red" points="1486,-112.5 1486,-131.5 1638,-131.5 1638,-112.5 1486,-112.5"/>
<text text-anchor="middle" x="1562" y="-119.5" font-family="Helvetica,sans-Serif" font-size="10.00">llvm/Support/SwapByteOrder.h</text>
</a>
</g>
</g>
<!-- Node2&#45;&gt;Node14 -->
<g id="edge8" class="edge">
<title>Node2&#45;&gt;Node14</title>
<path fill="none" stroke="midnightblue" d="M1688.23,-168.44C1663.11,-159.4 1623.29,-145.06 1595.1,-134.92"/>
<polygon fill="midnightblue" stroke="midnightblue" points="1596.25,-131.61 1585.66,-131.52 1593.88,-138.2 1596.25,-131.61"/>
</g>
<!-- Node18 -->
<g id="node12" class="node">
<title>Node18</title>
<g id="a_node12"><a xlink:href="type__traits_8h.html" target="_top" xlink:title="llvm/Support/type_traits.h">
<polygon fill="none" stroke="black" points="1922,-112.5 1922,-131.5 2050,-131.5 2050,-112.5 1922,-112.5"/>
<text text-anchor="middle" x="1986" y="-119.5" font-family="Helvetica,sans-Serif" font-size="10.00">llvm/Support/type_traits.h</text>
</a>
</g>
</g>
<!-- Node2&#45;&gt;Node18 -->
<g id="edge13" class="edge">
<title>Node2&#45;&gt;Node18</title>
<path fill="none" stroke="midnightblue" d="M1755.42,-168.44C1803.52,-158.96 1881.09,-143.67 1932.81,-133.48"/>
<polygon fill="midnightblue" stroke="midnightblue" points="1933.65,-136.88 1942.79,-131.52 1932.3,-130.02 1933.65,-136.88"/>
</g>
<!-- Node19 -->
<g id="node13" class="node">
<title>Node19</title>
<polygon fill="none" stroke="#bfbfbf" points="1920,-56.5 1920,-75.5 1960,-75.5 1960,-56.5 1920,-56.5"/>
<text text-anchor="middle" x="1940" y="-63.5" font-family="Helvetica,sans-Serif" font-size="10.00">utility</text>
</g>
<!-- Node2&#45;&gt;Node19 -->
<g id="edge21" class="edge">
<title>Node2&#45;&gt;Node19</title>
<path fill="none" stroke="midnightblue" d="M1728.74,-168.41C1753.41,-155.79 1801.04,-131.64 1842,-112 1865.25,-100.85 1891.85,-88.67 1911.46,-79.8"/>
<polygon fill="midnightblue" stroke="midnightblue" points="1913.08,-82.91 1920.76,-75.61 1910.2,-76.53 1913.08,-82.91"/>
</g>
<!-- Node2&#45;&gt;Node20 -->
<g id="edge17" class="edge">
<title>Node2&#45;&gt;Node20</title>
<path fill="none" stroke="midnightblue" d="M1659.45,-169.1C1656.59,-168.71 1653.76,-168.35 1651,-168 1503.06,-149.51 1326.37,-133.13 1250.12,-126.33"/>
<polygon fill="midnightblue" stroke="midnightblue" points="1250.31,-122.84 1240.04,-125.44 1249.69,-129.81 1250.31,-122.84"/>
</g>
<!-- Node2&#45;&gt;Node21 -->
<g id="edge18" class="edge">
<title>Node2&#45;&gt;Node21</title>
<path fill="none" stroke="midnightblue" d="M1764.71,-175.51C2045.49,-167.6 3361.14,-130.5 3592.28,-123.98"/>
<polygon fill="midnightblue" stroke="midnightblue" points="3592.56,-127.47 3602.46,-123.69 3592.37,-120.48 3592.56,-127.47"/>
</g>
<!-- Node22 -->
<g id="node16" class="node">
<title>Node22</title>
<polygon fill="none" stroke="#bfbfbf" points="1028,-112.5 1028,-131.5 1074,-131.5 1074,-112.5 1028,-112.5"/>
<text text-anchor="middle" x="1051" y="-119.5" font-family="Helvetica,sans-Serif" font-size="10.00">cstring</text>
</g>
<!-- Node2&#45;&gt;Node22 -->
<g id="edge19" class="edge">
<title>Node2&#45;&gt;Node22</title>
<path fill="none" stroke="midnightblue" d="M1659.46,-168.97C1656.6,-168.62 1653.77,-168.29 1651,-168 1402.76,-141.87 1334.16,-173.62 1084.4,-131.88"/>
<polygon fill="midnightblue" stroke="midnightblue" points="1084.73,-128.38 1074.29,-130.16 1083.56,-135.28 1084.73,-128.38"/>
</g>
<!-- Node9&#45;&gt;Node10 -->
<g id="edge5" class="edge">
<title>Node9&#45;&gt;Node10</title>
<path fill="none" stroke="midnightblue" d="M2952.91,-112.86C2949.9,-112.56 2946.92,-112.27 2944,-112 2751.86,-94.04 2524.8,-78.7 2411.63,-71.46"/>
<polygon fill="midnightblue" stroke="midnightblue" points="2411.57,-67.95 2401.37,-70.81 2411.12,-74.94 2411.57,-67.95"/>
</g>
<!-- Node9&#45;&gt;Node13 -->
<g id="edge7" class="edge">
<title>Node9&#45;&gt;Node13</title>
<path fill="none" stroke="midnightblue" d="M3095.18,-118.61C3285.47,-112.17 3821.81,-93.77 4268,-76 4330.69,-73.5 4404.04,-70.23 4444.43,-68.4"/>
<polygon fill="midnightblue" stroke="midnightblue" points="4444.61,-71.89 4454.44,-67.94 4444.29,-64.9 4444.61,-71.89"/>
</g>
<!-- Node11 -->
<g id="node7" class="node">
<title>Node11</title>
<polygon fill="none" stroke="#bfbfbf" points="2277.5,-0.5 2277.5,-19.5 2402.5,-19.5 2402.5,-0.5 2277.5,-0.5"/>
<text text-anchor="middle" x="2340" y="-7.5" font-family="Helvetica,sans-Serif" font-size="10.00">llvm/Config/llvm&#45;config.h</text>
</g>
<!-- Node10&#45;&gt;Node11 -->
<g id="edge6" class="edge">
<title>Node10&#45;&gt;Node11</title>
<path fill="none" stroke="midnightblue" d="M2340,-56.08C2340,-49.01 2340,-38.86 2340,-29.99"/>
<polygon fill="midnightblue" stroke="midnightblue" points="2343.5,-29.75 2340,-19.75 2336.5,-29.75 2343.5,-29.75"/>
</g>
<!-- Node14&#45;&gt;Node3 -->
<g id="edge10" class="edge">
<title>Node14&#45;&gt;Node3</title>
<path fill="none" stroke="midnightblue" d="M1576.46,-112.32C1590.5,-103.9 1612.05,-90.97 1628.54,-81.07"/>
<polygon fill="midnightblue" stroke="midnightblue" points="1630.8,-83.8 1637.58,-75.65 1627.2,-77.8 1630.8,-83.8"/>
</g>
<!-- Node14&#45;&gt;Node10 -->
<g id="edge9" class="edge">
<title>Node14&#45;&gt;Node10</title>
<path fill="none" stroke="midnightblue" d="M1638.09,-113.21C1642.8,-112.78 1647.46,-112.38 1652,-112 1876.81,-93.41 2143.47,-77.81 2268.53,-70.86"/>
<polygon fill="midnightblue" stroke="midnightblue" points="2268.95,-74.35 2278.74,-70.3 2268.56,-67.36 2268.95,-74.35"/>
</g>
<!-- Node14&#45;&gt;Node15 -->
<g id="edge11" class="edge">
<title>Node14&#45;&gt;Node15</title>
<path fill="none" stroke="midnightblue" d="M1485.69,-117.46C1258.7,-106.92 593.61,-76.04 433.81,-68.62"/>
<polygon fill="midnightblue" stroke="midnightblue" points="433.76,-65.11 423.61,-68.14 433.44,-72.1 433.76,-65.11"/>
</g>
<!-- Node14&#45;&gt;Node16 -->
<g id="edge12" class="edge">
<title>Node14&#45;&gt;Node16</title>
<path fill="none" stroke="midnightblue" d="M1530.47,-112.44C1496.31,-103.17 1441.67,-88.35 1404.15,-78.17"/>
<polygon fill="midnightblue" stroke="midnightblue" points="1404.62,-74.67 1394.06,-75.43 1402.79,-81.42 1404.62,-74.67"/>
</g>
<!-- Node18&#45;&gt;Node10 -->
<g id="edge14" class="edge">
<title>Node18&#45;&gt;Node10</title>
<path fill="none" stroke="midnightblue" d="M2042.09,-112.44C2105.14,-102.83 2207.4,-87.23 2274.18,-77.04"/>
<polygon fill="midnightblue" stroke="midnightblue" points="2274.81,-80.48 2284.17,-75.52 2273.76,-73.56 2274.81,-80.48"/>
</g>
<!-- Node18&#45;&gt;Node16 -->
<g id="edge15" class="edge">
<title>Node18&#45;&gt;Node16</title>
<path fill="none" stroke="midnightblue" d="M1921.97,-115.45C1794.1,-104.37 1510.34,-79.77 1404.16,-70.57"/>
<polygon fill="midnightblue" stroke="midnightblue" points="1404.42,-67.08 1394.16,-69.7 1403.82,-74.05 1404.42,-67.08"/>
</g>
<!-- Node18&#45;&gt;Node19 -->
<g id="edge16" class="edge">
<title>Node18&#45;&gt;Node19</title>
<path fill="none" stroke="midnightblue" d="M1978.4,-112.08C1971.77,-104.3 1961.98,-92.8 1953.94,-83.37"/>
<polygon fill="midnightblue" stroke="midnightblue" points="1956.6,-81.09 1947.45,-75.75 1951.27,-85.63 1956.6,-81.09"/>
</g>
<!-- Node24&#45;&gt;Node9 -->
<g id="edge44" class="edge">
<title>Node24&#45;&gt;Node9</title>
<path fill="none" stroke="midnightblue" d="M1855.09,-227.52C1870.4,-226.26 1886.79,-224.99 1902,-224 2241.21,-201.88 2328.25,-226.45 2666,-188 2778.08,-175.24 2908,-148.65 2976.33,-133.74"/>
<polygon fill="midnightblue" stroke="midnightblue" points="2977.34,-137.1 2986.36,-131.54 2975.84,-130.26 2977.34,-137.1"/>
</g>
<!-- Node24&#45;&gt;Node10 -->
<g id="edge30" class="edge">
<title>Node24&#45;&gt;Node10</title>
<path fill="none" stroke="midnightblue" d="M1817.08,-224.4C1853.6,-211.01 1927.13,-184.97 1991,-168 2068.59,-147.39 2091.25,-155.55 2168,-132 2190.09,-125.22 2194.47,-120.39 2216,-112 2246.01,-100.31 2280.47,-87.88 2305.43,-79.06"/>
<polygon fill="midnightblue" stroke="midnightblue" points="2306.9,-82.25 2315.17,-75.63 2304.58,-75.65 2306.9,-82.25"/>
</g>
<!-- Node24&#45;&gt;Node15 -->
<g id="edge47" class="edge">
<title>Node24&#45;&gt;Node15</title>
<path fill="none" stroke="midnightblue" d="M1732.68,-231.74C1531.79,-227.4 901.33,-211.99 813,-188 794.58,-183 792.77,-174.96 775,-168 653.43,-120.37 501.25,-87.11 433.86,-73.66"/>
<polygon fill="midnightblue" stroke="midnightblue" points="434.28,-70.17 423.8,-71.67 432.93,-77.04 434.28,-70.17"/>
</g>
<!-- Node24&#45;&gt;Node16 -->
<g id="edge54" class="edge">
<title>Node24&#45;&gt;Node16</title>
<path fill="none" stroke="midnightblue" d="M1732.57,-232.64C1607.86,-231.16 1329.42,-223.81 1242,-188 1206.09,-173.29 1191.44,-167.16 1175,-132 1171.24,-123.95 1169.49,-118.98 1175,-112 1192.9,-89.31 1271.82,-76.78 1321.55,-71.01"/>
<polygon fill="midnightblue" stroke="midnightblue" points="1322.13,-74.47 1331.68,-69.88 1321.36,-67.51 1322.13,-74.47"/>
</g>
<!-- Node24&#45;&gt;Node18 -->
<g id="edge43" class="edge">
<title>Node24&#45;&gt;Node18</title>
<path fill="none" stroke="midnightblue" d="M1809.07,-224.37C1842.29,-205.33 1922.09,-159.62 1962.17,-136.65"/>
<polygon fill="midnightblue" stroke="midnightblue" points="1964.07,-139.6 1971,-131.59 1960.59,-133.53 1964.07,-139.6"/>
</g>
<!-- Node24&#45;&gt;Node19 -->
<g id="edge55" class="edge">
<title>Node24&#45;&gt;Node19</title>
<path fill="none" stroke="midnightblue" d="M1801.85,-224.08C1825.33,-197.38 1895.26,-117.87 1925.64,-83.32"/>
<polygon fill="midnightblue" stroke="midnightblue" points="1928.49,-85.39 1932.46,-75.57 1923.23,-80.77 1928.49,-85.39"/>
</g>
<!-- Node24&#45;&gt;Node20 -->
<g id="edge45" class="edge">
<title>Node24&#45;&gt;Node20</title>
<path fill="none" stroke="midnightblue" d="M1732.96,-230.22C1604.05,-223.98 1312.53,-207.86 1272,-188 1250.53,-177.48 1232.98,-155.71 1222.53,-140.27"/>
<polygon fill="midnightblue" stroke="midnightblue" points="1225.32,-138.14 1216.96,-131.63 1219.44,-141.94 1225.32,-138.14"/>
</g>
<!-- Node24&#45;&gt;Node21 -->
<g id="edge46" class="edge">
<title>Node24&#45;&gt;Node21</title>
<path fill="none" stroke="midnightblue" d="M1855.1,-227.73C1870.41,-226.46 1886.8,-225.14 1902,-224 2143.19,-205.96 2204.26,-211.29 2445,-188 2515.01,-181.23 2531.91,-173.99 2602,-168 2989.54,-134.87 3461.71,-125.52 3592.18,-123.48"/>
<polygon fill="midnightblue" stroke="midnightblue" points="3592.41,-126.98 3602.36,-123.33 3592.31,-119.98 3592.41,-126.98"/>
</g>
<!-- Node24&#45;&gt;Node22 -->
<g id="edge49" class="edge">
<title>Node24&#45;&gt;Node22</title>
<path fill="none" stroke="midnightblue" d="M1732.86,-232.37C1594.87,-230.35 1263.03,-222 1157,-188 1139.26,-182.31 1097.24,-154.73 1071.75,-137.38"/>
<polygon fill="midnightblue" stroke="midnightblue" points="1073.72,-134.48 1063.5,-131.72 1069.76,-140.26 1073.72,-134.48"/>
</g>
<!-- Node25 -->
<g id="node19" class="node">
<title>Node25</title>
<g id="a_node19"><a xlink:href="iterator__range_8h.html" target="_top" xlink:title="This provides a very simple, boring adaptor for a begin and end iterator into a range type...">
<polygon fill="none" stroke="black" points="2621,-112.5 2621,-131.5 2749,-131.5 2749,-112.5 2621,-112.5"/>
<text text-anchor="middle" x="2685" y="-119.5" font-family="Helvetica,sans-Serif" font-size="10.00">llvm/ADT/iterator_range.h</text>
</a>
</g>
</g>
<!-- Node24&#45;&gt;Node25 -->
<g id="edge24" class="edge">
<title>Node24&#45;&gt;Node25</title>
<path fill="none" stroke="midnightblue" d="M1852.31,-224.45C1941.68,-211.48 2117.95,-186.38 2268,-168 2387.86,-153.32 2527.42,-138.77 2610.85,-130.35"/>
<polygon fill="midnightblue" stroke="midnightblue" points="2611.4,-133.81 2621,-129.33 2610.7,-126.85 2611.4,-133.81"/>
</g>
<!-- Node24&#45;&gt;Node26 -->
<g id="edge51" class="edge">
<title>Node24&#45;&gt;Node26</title>
<path fill="none" stroke="midnightblue" d="M1855.1,-227.77C1870.41,-226.5 1886.8,-225.17 1902,-224 2015.28,-215.28 2303.72,-222.41 2412,-188 2428.34,-182.81 2429.44,-175.21 2445,-168 2516.02,-135.07 2534.92,-125.68 2612,-112 2773.46,-83.35 3982.36,-69.6 4201.12,-67.34"/>
<polygon fill="midnightblue" stroke="midnightblue" points="4201.38,-70.84 4211.34,-67.23 4201.3,-63.84 4201.38,-70.84"/>
</g>
<!-- Node27 -->
<g id="node21" class="node">
<title>Node27</title>
<g id="a_node21"><a xlink:href="AlignOf_8h.html" target="_top" xlink:title="llvm/Support/AlignOf.h">
<polygon fill="none" stroke="black" points="822.5,-168.5 822.5,-187.5 937.5,-187.5 937.5,-168.5 822.5,-168.5"/>
<text text-anchor="middle" x="880" y="-175.5" font-family="Helvetica,sans-Serif" font-size="10.00">llvm/Support/AlignOf.h</text>
</a>
</g>
</g>
<!-- Node24&#45;&gt;Node27 -->
<g id="edge27" class="edge">
<title>Node24&#45;&gt;Node27</title>
<path fill="none" stroke="midnightblue" d="M1732.53,-229.51C1601.9,-222.06 1286.99,-204.01 1023,-188 998.45,-186.51 971.53,-184.83 947.74,-183.33"/>
<polygon fill="midnightblue" stroke="midnightblue" points="947.95,-179.83 937.75,-182.69 947.51,-186.82 947.95,-179.83"/>
</g>
<!-- Node28 -->
<g id="node22" class="node">
<title>Node28</title>
<g id="a_node22"><a xlink:href="MathExtras_8h.html" target="_top" xlink:title="llvm/Support/MathExtras.h">
<polygon fill="none" stroke="red" points="1508.5,-168.5 1508.5,-187.5 1641.5,-187.5 1641.5,-168.5 1508.5,-168.5"/>
<text text-anchor="middle" x="1575" y="-175.5" font-family="Helvetica,sans-Serif" font-size="10.00">llvm/Support/MathExtras.h</text>
</a>
</g>
</g>
<!-- Node24&#45;&gt;Node28 -->
<g id="edge31" class="edge">
<title>Node24&#45;&gt;Node28</title>
<path fill="none" stroke="midnightblue" d="M1759.3,-224.44C1721.42,-215.1 1660.65,-200.12 1619.34,-189.93"/>
<polygon fill="midnightblue" stroke="midnightblue" points="1620.09,-186.51 1609.54,-187.52 1618.41,-193.31 1620.09,-186.51"/>
</g>
<!-- Node31 -->
<g id="node24" class="node">
<title>Node31</title>
<g id="a_node24"><a xlink:href="MemAlloc_8h.html" target="_top" xlink:title="This file defines counterparts of C library allocation functions defined in the namespace &#39;std&#39;...">
<polygon fill="none" stroke="black" points="2277,-168.5 2277,-187.5 2403,-187.5 2403,-168.5 2277,-168.5"/>
<text text-anchor="middle" x="2340" y="-175.5" font-family="Helvetica,sans-Serif" font-size="10.00">llvm/Support/MemAlloc.h</text>
</a>
</g>
</g>
<!-- Node24&#45;&gt;Node31 -->
<g id="edge39" class="edge">
<title>Node24&#45;&gt;Node31</title>
<path fill="none" stroke="midnightblue" d="M1855.04,-226.96C1956.14,-216.96 2157.92,-197.01 2266.61,-186.26"/>
<polygon fill="midnightblue" stroke="midnightblue" points="2267.22,-189.71 2276.83,-185.25 2266.53,-182.75 2267.22,-189.71"/>
</g>
<!-- Node32 -->
<g id="node25" class="node">
<title>Node32</title>
<polygon fill="none" stroke="#bfbfbf" points="2261.5,-112.5 2261.5,-131.5 2306.5,-131.5 2306.5,-112.5 2261.5,-112.5"/>
<text text-anchor="middle" x="2284" y="-119.5" font-family="Helvetica,sans-Serif" font-size="10.00">cstdlib</text>
</g>
<!-- Node24&#45;&gt;Node32 -->
<g id="edge48" class="edge">
<title>Node24&#45;&gt;Node32</title>
<path fill="none" stroke="midnightblue" d="M1832.04,-224.46C1925.39,-203.51 2164.47,-149.83 2251.61,-130.27"/>
<polygon fill="midnightblue" stroke="midnightblue" points="2252.47,-133.67 2261.46,-128.06 2250.94,-126.84 2252.47,-133.67"/>
</g>
<!-- Node24&#45;&gt;Node33 -->
<g id="edge50" class="edge">
<title>Node24&#45;&gt;Node33</title>
<path fill="none" stroke="midnightblue" d="M1732.92,-231.13C1614.37,-227.02 1344.98,-215.28 1120,-188 1118.55,-187.82 1117.08,-187.63 1115.59,-187.43"/>
<polygon fill="midnightblue" stroke="midnightblue" points="1116.11,-183.97 1105.7,-185.96 1115.08,-190.9 1116.11,-183.97"/>
</g>
<!-- Node24&#45;&gt;Node34 -->
<g id="edge52" class="edge">
<title>Node24&#45;&gt;Node34</title>
<path fill="none" stroke="midnightblue" d="M1855.07,-227.27C1870.38,-226.01 1886.78,-224.81 1902,-224 2074.47,-214.82 3290.21,-236.4 3456,-188 3472.46,-183.19 3472.76,-173.52 3489,-168 3523.42,-156.29 3764.18,-134.28 3856.8,-126.13"/>
<polygon fill="midnightblue" stroke="midnightblue" points="3857.18,-129.61 3866.83,-125.25 3856.56,-122.64 3857.18,-129.61"/>
</g>
<!-- Node35 -->
<g id="node28" class="node">
<title>Node35</title>
<polygon fill="none" stroke="#bfbfbf" points="1092.5,-112.5 1092.5,-131.5 1127.5,-131.5 1127.5,-112.5 1092.5,-112.5"/>
<text text-anchor="middle" x="1110" y="-119.5" font-family="Helvetica,sans-Serif" font-size="10.00">new</text>
</g>
<!-- Node24&#45;&gt;Node35 -->
<g id="edge53" class="edge">
<title>Node24&#45;&gt;Node35</title>
<path fill="none" stroke="midnightblue" d="M1732.68,-232.74C1600.5,-231.49 1292.91,-224.61 1196,-188 1167.97,-177.41 1141.37,-154.65 1125.36,-139.08"/>
<polygon fill="midnightblue" stroke="midnightblue" points="1127.55,-136.31 1118.01,-131.69 1122.59,-141.25 1127.55,-136.31"/>
</g>
<!-- Node25&#45;&gt;Node19 -->
<g id="edge26" class="edge">
<title>Node25&#45;&gt;Node19</title>
<path fill="none" stroke="midnightblue" d="M2620.84,-116.35C2466.96,-105.2 2081.47,-77.25 1970.39,-69.2"/>
<polygon fill="midnightblue" stroke="midnightblue" points="1970.45,-65.7 1960.23,-68.47 1969.95,-72.68 1970.45,-65.7"/>
</g>
<!-- Node25&#45;&gt;Node26 -->
<g id="edge25" class="edge">
<title>Node25&#45;&gt;Node26</title>
<path fill="none" stroke="midnightblue" d="M2749.26,-117.94C2788.71,-116.1 2840.28,-113.79 2886,-112 3410.21,-91.52 4049.25,-72.45 4201.37,-67.98"/>
<polygon fill="midnightblue" stroke="midnightblue" points="4201.58,-71.48 4211.47,-67.68 4201.38,-64.48 4201.58,-71.48"/>
</g>
<!-- Node27&#45;&gt;Node10 -->
<g id="edge28" class="edge">
<title>Node27&#45;&gt;Node10</title>
<path fill="none" stroke="midnightblue" d="M937.75,-173.3C963.79,-171.64 994.94,-169.69 1023,-168 1300.29,-151.28 1371.68,-169.01 1647,-132 1689.33,-126.31 1698.72,-118.06 1741,-112 1930.45,-84.86 2156.11,-73.5 2268.7,-69.25"/>
<polygon fill="midnightblue" stroke="midnightblue" points="2269.05,-72.74 2278.91,-68.87 2268.79,-65.75 2269.05,-72.74"/>
</g>
<!-- Node27&#45;&gt;Node15 -->
<g id="edge29" class="edge">
<title>Node27&#45;&gt;Node15</title>
<path fill="none" stroke="midnightblue" d="M873.57,-168.42C862.17,-153.94 836.88,-124.97 808,-112 741.3,-82.05 519.74,-71.23 433.64,-68.09"/>
<polygon fill="midnightblue" stroke="midnightblue" points="433.71,-64.59 423.59,-67.74 433.46,-71.59 433.71,-64.59"/>
</g>
<!-- Node28&#45;&gt;Node10 -->
<g id="edge32" class="edge">
<title>Node28&#45;&gt;Node10</title>
<path fill="none" stroke="midnightblue" d="M1603.94,-168.45C1652.63,-154.41 1754.23,-126.57 1842,-112 1992.74,-86.98 2171.63,-75.09 2268.69,-70.11"/>
<polygon fill="midnightblue" stroke="midnightblue" points="2268.87,-73.6 2278.68,-69.6 2268.52,-66.61 2268.87,-73.6"/>
</g>
<!-- Node28&#45;&gt;Node14 -->
<g id="edge33" class="edge">
<title>Node28&#45;&gt;Node14</title>
<path fill="none" stroke="midnightblue" d="M1572.85,-168.08C1571.13,-160.93 1568.65,-150.64 1566.5,-141.69"/>
<polygon fill="midnightblue" stroke="midnightblue" points="1569.85,-140.65 1564.11,-131.75 1563.04,-142.29 1569.85,-140.65"/>
</g>
<!-- Node28&#45;&gt;Node16 -->
<g id="edge38" class="edge">
<title>Node28&#45;&gt;Node16</title>
<path fill="none" stroke="midnightblue" d="M1554.86,-168.37C1534.87,-159.66 1503.48,-145.6 1477,-132 1444.76,-115.45 1408.57,-94.37 1385.78,-80.78"/>
<polygon fill="midnightblue" stroke="midnightblue" points="1387.55,-77.76 1377.17,-75.62 1383.95,-83.76 1387.55,-77.76"/>
</g>
<!-- Node28&#45;&gt;Node20 -->
<g id="edge34" class="edge">
<title>Node28&#45;&gt;Node20</title>
<path fill="none" stroke="midnightblue" d="M1517.48,-168.44C1442.68,-157.32 1314.06,-138.18 1250.23,-128.69"/>
<polygon fill="midnightblue" stroke="midnightblue" points="1250.6,-125.2 1240.19,-127.19 1249.57,-132.13 1250.6,-125.2"/>
</g>
<!-- Node28&#45;&gt;Node21 -->
<g id="edge35" class="edge">
<title>Node28&#45;&gt;Node21</title>
<path fill="none" stroke="midnightblue" d="M1641.69,-168.74C1644.84,-168.46 1647.95,-168.21 1651,-168 1851.79,-153.86 3344.48,-127.84 3592.21,-123.59"/>
<polygon fill="midnightblue" stroke="midnightblue" points="3592.49,-127.09 3602.42,-123.42 3592.37,-120.09 3592.49,-127.09"/>
</g>
<!-- Node28&#45;&gt;Node22 -->
<g id="edge36" class="edge">
<title>Node28&#45;&gt;Node22</title>
<path fill="none" stroke="midnightblue" d="M1508.15,-171.57C1390.17,-161.89 1151.74,-141.88 1084.24,-131.74"/>
<polygon fill="midnightblue" stroke="midnightblue" points="1084.74,-128.28 1074.3,-130.09 1083.59,-135.18 1084.74,-128.28"/>
</g>
<!-- Node30 -->
<g id="node23" class="node">
<title>Node30</title>
<polygon fill="none" stroke="#bfbfbf" points="2895,-112.5 2895,-131.5 2935,-131.5 2935,-112.5 2895,-112.5"/>
<text text-anchor="middle" x="2915" y="-119.5" font-family="Helvetica,sans-Serif" font-size="10.00">limits</text>
</g>
<!-- Node28&#45;&gt;Node30 -->
<g id="edge37" class="edge">
<title>Node28&#45;&gt;Node30</title>
<path fill="none" stroke="midnightblue" d="M1641.7,-168.78C1644.84,-168.49 1647.95,-168.23 1651,-168 2141.87,-131.02 2266.24,-154.09 2758,-132 2801.92,-130.03 2852.7,-126.98 2884.34,-124.98"/>
<polygon fill="midnightblue" stroke="midnightblue" points="2884.93,-128.45 2894.68,-124.33 2884.48,-121.47 2884.93,-128.45"/>
</g>
<!-- Node31&#45;&gt;Node9 -->
<g id="edge41" class="edge">
<title>Node31&#45;&gt;Node9</title>
<path fill="none" stroke="midnightblue" d="M2403.26,-172C2420.08,-170.68 2438.23,-169.27 2455,-168 2669.01,-151.75 2725.32,-152.17 2942.77,-132.08"/>
<polygon fill="midnightblue" stroke="midnightblue" points="2943.28,-135.55 2952.91,-131.14 2942.63,-128.58 2943.28,-135.55"/>
</g>
<!-- Node31&#45;&gt;Node10 -->
<g id="edge40" class="edge">
<title>Node31&#45;&gt;Node10</title>
<path fill="none" stroke="midnightblue" d="M2340,-168.37C2340,-150.62 2340,-109.67 2340,-85.6"/>
<polygon fill="midnightblue" stroke="midnightblue" points="2343.5,-85.59 2340,-75.59 2336.5,-85.59 2343.5,-85.59"/>
</g>
<!-- Node31&#45;&gt;Node32 -->
<g id="edge42" class="edge">
<title>Node31&#45;&gt;Node32</title>
<path fill="none" stroke="midnightblue" d="M2331,-168.32C2322.81,-160.42 2310.49,-148.55 2300.53,-138.94"/>
<polygon fill="midnightblue" stroke="midnightblue" points="2302.79,-136.26 2293.16,-131.83 2297.93,-141.29 2302.79,-136.26"/>
</g>
<!-- Node36&#45;&gt;Node9 -->
<g id="edge74" class="edge">
<title>Node36&#45;&gt;Node9</title>
<path fill="none" stroke="midnightblue" d="M2987.28,-224.48C3008.59,-218.15 3031.19,-207.14 3044,-188 3053.71,-173.49 3045.53,-154.05 3036.89,-140.23"/>
<polygon fill="midnightblue" stroke="midnightblue" points="3039.57,-137.96 3031.04,-131.68 3033.8,-141.91 3039.57,-137.96"/>
</g>
<!-- Node36&#45;&gt;Node15 -->
<g id="edge77" class="edge">
<title>Node36&#45;&gt;Node15</title>
<path fill="none" stroke="midnightblue" d="M2876.63,-232.4C2598.29,-229.39 1416.18,-215.05 1343,-188 1292.61,-169.37 1299.16,-131.25 1249,-112 1172.03,-82.47 583.42,-70.23 433.61,-67.57"/>
<polygon fill="midnightblue" stroke="midnightblue" points="433.65,-64.07 423.59,-67.4 433.53,-71.07 433.65,-64.07"/>
</g>
<!-- Node36&#45;&gt;Node16 -->
<g id="edge86" class="edge">
<title>Node36&#45;&gt;Node16</title>
<path fill="none" stroke="midnightblue" d="M2876.82,-232.28C2616.06,-228.9 1564.92,-213.73 1500,-188 1444.63,-166.05 1396.81,-111.25 1375.23,-83.56"/>
<polygon fill="midnightblue" stroke="midnightblue" points="1378.01,-81.44 1369.17,-75.6 1372.44,-85.68 1378.01,-81.44"/>
</g>
<!-- Node36&#45;&gt;Node19 -->
<g id="edge87" class="edge">
<title>Node36&#45;&gt;Node19</title>
<path fill="none" stroke="midnightblue" d="M2923.96,-224.27C2891.32,-198.64 2795.19,-124.63 2758,-112 2682.36,-86.32 2109.47,-71.05 1970.37,-67.7"/>
<polygon fill="midnightblue" stroke="midnightblue" points="1970.12,-64.2 1960.04,-67.46 1969.95,-71.19 1970.12,-64.2"/>
</g>
<!-- Node36&#45;&gt;Node20 -->
<g id="edge75" class="edge">
<title>Node36&#45;&gt;Node20</title>
<path fill="none" stroke="midnightblue" d="M2876.88,-232.29C2595.61,-228.73 1386.05,-212.08 1310,-188 1293.26,-182.7 1254.77,-155.17 1231.31,-137.68"/>
<polygon fill="midnightblue" stroke="midnightblue" points="1233.23,-134.75 1223.14,-131.54 1229.03,-140.34 1233.23,-134.75"/>
</g>
<!-- Node36&#45;&gt;Node21 -->
<g id="edge76" class="edge">
<title>Node36&#45;&gt;Node21</title>
<path fill="none" stroke="midnightblue" d="M2923.05,-224.47C2905.97,-211.29 2878.39,-185.66 2895,-168 2919.15,-142.32 3449.41,-127.39 3591.98,-123.83"/>
<polygon fill="midnightblue" stroke="midnightblue" points="3592.4,-127.32 3602.31,-123.58 3592.23,-120.33 3592.4,-127.32"/>
</g>
<!-- Node36&#45;&gt;Node25 -->
<g id="edge72" class="edge">
<title>Node36&#45;&gt;Node25</title>
<path fill="none" stroke="midnightblue" d="M2912.53,-224.41C2889.8,-215.63 2853.73,-201.4 2823,-188 2783.69,-170.86 2738.91,-149.4 2711.29,-135.94"/>
<polygon fill="midnightblue" stroke="midnightblue" points="2712.8,-132.78 2702.28,-131.54 2709.73,-139.07 2712.8,-132.78"/>
</g>
<!-- Node36&#45;&gt;Node26 -->
<g id="edge82" class="edge">
<title>Node36&#45;&gt;Node26</title>
<path fill="none" stroke="midnightblue" d="M2973.02,-224.48C3073.74,-202.24 3355.98,-142.11 3594,-112 3824.99,-82.78 4105.39,-71.29 4201.1,-68.05"/>
<polygon fill="midnightblue" stroke="midnightblue" points="4201.46,-71.54 4211.33,-67.71 4201.22,-64.54 4201.46,-71.54"/>
</g>
<!-- Node36&#45;&gt;Node30 -->
<g id="edge83" class="edge">
<title>Node36&#45;&gt;Node30</title>
<path fill="none" stroke="midnightblue" d="M2968.51,-224.49C3002.07,-214.24 3046.3,-194.98 3028,-168 3023.08,-160.75 2977.01,-143.97 2945.24,-133.08"/>
<polygon fill="midnightblue" stroke="midnightblue" points="2946.09,-129.67 2935.49,-129.77 2943.84,-136.3 2946.09,-129.67"/>
</g>
<!-- Node36&#45;&gt;Node32 -->
<g id="edge79" class="edge">
<title>Node36&#45;&gt;Node32</title>
<path fill="none" stroke="midnightblue" d="M2904.59,-224.39C2855.01,-210.63 2753.49,-183.67 2666,-168 2537.73,-145.03 2383.06,-130.93 2316.76,-125.53"/>
<polygon fill="midnightblue" stroke="midnightblue" points="2316.78,-122.02 2306.53,-124.7 2316.22,-128.99 2316.78,-122.02"/>
</g>
<!-- Node36&#45;&gt;Node33 -->
<g id="edge81" class="edge">
<title>Node36&#45;&gt;Node33</title>
<path fill="none" stroke="midnightblue" d="M2876.81,-231.79C2662.99,-227.26 1900.51,-210.43 1272,-188 1218.37,-186.09 1156.81,-183.27 1115.67,-181.3"/>
<polygon fill="midnightblue" stroke="midnightblue" points="1115.82,-177.8 1105.66,-180.82 1115.48,-184.79 1115.82,-177.8"/>
</g>
<!-- Node36&#45;&gt;Node34 -->
<g id="edge84" class="edge">
<title>Node36&#45;&gt;Node34</title>
<path fill="none" stroke="midnightblue" d="M2993.38,-229.77C3094.54,-223.83 3308.9,-209.77 3489,-188 3625.18,-171.54 3785.77,-142.93 3856.47,-129.87"/>
<polygon fill="midnightblue" stroke="midnightblue" points="3857.44,-133.25 3866.63,-127.98 3856.16,-126.36 3857.44,-133.25"/>
</g>
<!-- Node37 -->
<g id="node30" class="node">
<title>Node37</title>
<g id="a_node30"><a xlink:href="Optional_8h.html" target="_top" xlink:title="llvm/ADT/Optional.h">
<polygon fill="none" stroke="black" points="3341.5,-168.5 3341.5,-187.5 3446.5,-187.5 3446.5,-168.5 3341.5,-168.5"/>
<text text-anchor="middle" x="3394" y="-175.5" font-family="Helvetica,sans-Serif" font-size="10.00">llvm/ADT/Optional.h</text>
</a>
</g>
</g>
<!-- Node36&#45;&gt;Node37 -->
<g id="edge57" class="edge">
<title>Node36&#45;&gt;Node37</title>
<path fill="none" stroke="midnightblue" d="M2993.13,-226.16C3079.77,-215.97 3242.12,-196.87 3331.32,-186.37"/>
<polygon fill="midnightblue" stroke="midnightblue" points="3331.78,-189.84 3341.3,-185.2 3330.96,-182.89 3331.78,-189.84"/>
</g>
<!-- Node38 -->
<g id="node31" class="node">
<title>Node38</title>
<g id="a_node31"><a xlink:href="iterator_8h.html" target="_top" xlink:title="llvm/ADT/iterator.h">
<polygon fill="none" stroke="black" points="1352.5,-168.5 1352.5,-187.5 1451.5,-187.5 1451.5,-168.5 1352.5,-168.5"/>
<text text-anchor="middle" x="1402" y="-175.5" font-family="Helvetica,sans-Serif" font-size="10.00">llvm/ADT/iterator.h</text>
</a>
</g>
</g>
<!-- Node36&#45;&gt;Node38 -->
<g id="edge65" class="edge">
<title>Node36&#45;&gt;Node38</title>
<path fill="none" stroke="midnightblue" d="M2876.78,-233.49C2678.77,-234.69 2013.23,-234.72 1466,-188 1464.53,-187.87 1463.05,-187.74 1461.55,-187.59"/>
<polygon fill="midnightblue" stroke="midnightblue" points="1461.87,-184.11 1451.55,-186.51 1461.12,-191.07 1461.87,-184.11"/>
</g>
<!-- Node39 -->
<g id="node32" class="node">
<title>Node39</title>
<polygon fill="none" stroke="#bfbfbf" points="636,-168.5 636,-187.5 766,-187.5 766,-168.5 636,-168.5"/>
<text text-anchor="middle" x="701" y="-175.5" font-family="Helvetica,sans-Serif" font-size="10.00">llvm/Config/abi&#45;breaking.h</text>
</g>
<!-- Node36&#45;&gt;Node39 -->
<g id="edge73" class="edge">
<title>Node36&#45;&gt;Node39</title>
<path fill="none" stroke="midnightblue" d="M2876.54,-232.23C2579.06,-228.23 1231.15,-209.22 813,-188 801.13,-187.4 788.56,-186.57 776.3,-185.66"/>
<polygon fill="midnightblue" stroke="midnightblue" points="776.34,-182.16 766.1,-184.88 775.81,-189.14 776.34,-182.16"/>
</g>
<!-- Node40 -->
<g id="node33" class="node">
<title>Node40</title>
<polygon fill="none" stroke="#bfbfbf" points="2611,-168.5 2611,-187.5 2657,-187.5 2657,-168.5 2611,-168.5"/>
<text text-anchor="middle" x="2634" y="-175.5" font-family="Helvetica,sans-Serif" font-size="10.00">cstdint</text>
</g>
<!-- Node36&#45;&gt;Node40 -->
<g id="edge78" class="edge">
<title>Node36&#45;&gt;Node40</title>
<path fill="none" stroke="midnightblue" d="M2887.31,-224.44C2825.76,-213.4 2720.29,-194.48 2666.95,-184.91"/>
<polygon fill="midnightblue" stroke="midnightblue" points="2667.47,-181.45 2657.01,-183.13 2666.23,-188.34 2667.47,-181.45"/>
</g>
<!-- Node41 -->
<g id="node34" class="node">
<title>Node41</title>
<polygon fill="none" stroke="#bfbfbf" points="2903.5,-168.5 2903.5,-187.5 2962.5,-187.5 2962.5,-168.5 2903.5,-168.5"/>
<text text-anchor="middle" x="2933" y="-175.5" font-family="Helvetica,sans-Serif" font-size="10.00">functional</text>
</g>
<!-- Node36&#45;&gt;Node41 -->
<g id="edge80" class="edge">
<title>Node36&#45;&gt;Node41</title>
<path fill="none" stroke="midnightblue" d="M2934.67,-224.08C2934.41,-217.01 2934.03,-206.86 2933.7,-197.99"/>
<polygon fill="midnightblue" stroke="midnightblue" points="2937.19,-197.61 2933.32,-187.75 2930.2,-197.87 2937.19,-197.61"/>
</g>
<!-- Node42 -->
<g id="node35" class="node">
<title>Node42</title>
<polygon fill="none" stroke="#bfbfbf" points="2981,-168.5 2981,-187.5 3019,-187.5 3019,-168.5 2981,-168.5"/>
<text text-anchor="middle" x="3000" y="-175.5" font-family="Helvetica,sans-Serif" font-size="10.00">tuple</text>
</g>
<!-- Node36&#45;&gt;Node42 -->
<g id="edge85" class="edge">
<title>Node36&#45;&gt;Node42</title>
<path fill="none" stroke="midnightblue" d="M2945.44,-224.32C2955.15,-216.26 2969.82,-204.08 2981.5,-194.37"/>
<polygon fill="midnightblue" stroke="midnightblue" points="2983.91,-196.92 2989.37,-187.83 2979.44,-191.53 2983.91,-196.92"/>
</g>
<!-- Node37&#45;&gt;Node10 -->
<g id="edge59" class="edge">
<title>Node37&#45;&gt;Node10</title>
<path fill="none" stroke="midnightblue" d="M3367.34,-168.45C3321.04,-154.02 3222.52,-125.11 3137,-112 2871.55,-71.32 2551.31,-66.44 2411.32,-66.47"/>
<polygon fill="midnightblue" stroke="midnightblue" points="2411.15,-62.97 2401.15,-66.48 2411.16,-69.97 2411.15,-62.97"/>
</g>
<!-- Node37&#45;&gt;Node18 -->
<g id="edge60" class="edge">
<title>Node37&#45;&gt;Node18</title>
<path fill="none" stroke="midnightblue" d="M3341.37,-174.98C3126.07,-166.72 2311.82,-135.5 2060.4,-125.85"/>
<polygon fill="midnightblue" stroke="midnightblue" points="2060.4,-122.35 2050.27,-125.47 2060.13,-129.35 2060.4,-122.35"/>
</g>
<!-- Node37&#45;&gt;Node19 -->
<g id="edge64" class="edge">
<title>Node37&#45;&gt;Node19</title>
<path fill="none" stroke="midnightblue" d="M3341.48,-170.14C3277.55,-161.39 3173.58,-145.73 3137,-132 3120.94,-125.97 3120.43,-116.93 3104,-112 3076.03,-103.6 2150.54,-73.71 1970.26,-67.96"/>
<polygon fill="midnightblue" stroke="midnightblue" points="1970.27,-64.46 1960.16,-67.64 1970.05,-71.46 1970.27,-64.46"/>
</g>
<!-- Node37&#45;&gt;Node21 -->
<g id="edge61" class="edge">
<title>Node37&#45;&gt;Node21</title>
<path fill="none" stroke="midnightblue" d="M3430.92,-168.44C3475.35,-158.15 3549.36,-140.99 3592.62,-130.97"/>
<polygon fill="midnightblue" stroke="midnightblue" points="3593.45,-134.37 3602.4,-128.7 3591.87,-127.55 3593.45,-134.37"/>
</g>
<!-- Node37&#45;&gt;Node23 -->
<g id="edge58" class="edge">
<title>Node37&#45;&gt;Node23</title>
<path fill="none" stroke="midnightblue" d="M3445.02,-168.44C3503.53,-158.63 3599.15,-142.6 3659.76,-132.43"/>
<polygon fill="midnightblue" stroke="midnightblue" points="3660.63,-135.83 3669.91,-130.73 3659.47,-128.93 3660.63,-135.83"/>
</g>
<!-- Node37&#45;&gt;Node34 -->
<g id="edge62" class="edge">
<title>Node37&#45;&gt;Node34</title>
<path fill="none" stroke="midnightblue" d="M3446.65,-169.78C3451.5,-169.16 3456.34,-168.56 3461,-168 3607.3,-150.56 3781.93,-133.53 3856.42,-126.44"/>
<polygon fill="midnightblue" stroke="midnightblue" points="3857.05,-129.9 3866.67,-125.47 3856.39,-122.93 3857.05,-129.9"/>
</g>
<!-- Node37&#45;&gt;Node35 -->
<g id="edge63" class="edge">
<title>Node37&#45;&gt;Node35</title>
<path fill="none" stroke="midnightblue" d="M3341.27,-175.62C3270.15,-173.77 3139.52,-170.45 3028,-168 2204.49,-149.88 1996.17,-196.6 1175,-132 1162.65,-131.03 1149.07,-129.26 1137.53,-127.54"/>
<polygon fill="midnightblue" stroke="midnightblue" points="1138.01,-124.08 1127.59,-126.01 1136.94,-131 1138.01,-124.08"/>
</g>
<!-- Node38&#45;&gt;Node15 -->
<g id="edge68" class="edge">
<title>Node38&#45;&gt;Node15</title>
<path fill="none" stroke="midnightblue" d="M1390.5,-168.46C1369.97,-153.76 1325.11,-124.1 1282,-112 1118.34,-66.06 576.94,-65.93 433.91,-66.73"/>
<polygon fill="midnightblue" stroke="midnightblue" points="433.53,-63.23 423.56,-66.79 433.58,-70.23 433.53,-63.23"/>
</g>
<!-- Node38&#45;&gt;Node16 -->
<g id="edge70" class="edge">
<title>Node38&#45;&gt;Node16</title>
<path fill="none" stroke="midnightblue" d="M1392.96,-168.3C1384.85,-159.87 1373.41,-146.29 1368,-132 1362.42,-117.26 1361.43,-99.33 1361.69,-86.04"/>
<polygon fill="midnightblue" stroke="midnightblue" points="1365.2,-85.89 1362.15,-75.75 1358.21,-85.58 1365.2,-85.89"/>
</g>
<!-- Node38&#45;&gt;Node19 -->
<g id="edge71" class="edge">
<title>Node38&#45;&gt;Node19</title>
<path fill="none" stroke="midnightblue" d="M1408.76,-168.38C1420.74,-153.84 1447.23,-124.78 1477,-112 1516.66,-94.98 1812.91,-75.01 1909.59,-68.88"/>
<polygon fill="midnightblue" stroke="midnightblue" points="1910.09,-72.36 1919.85,-68.23 1909.65,-65.37 1910.09,-72.36"/>
</g>
<!-- Node38&#45;&gt;Node20 -->
<g id="edge67" class="edge">
<title>Node38&#45;&gt;Node20</title>
<path fill="none" stroke="midnightblue" d="M1371.89,-168.44C1338.8,-159.04 1285.58,-143.91 1249.73,-133.72"/>
<polygon fill="midnightblue" stroke="midnightblue" points="1250.68,-130.36 1240.11,-130.99 1248.77,-137.09 1250.68,-130.36"/>
</g>
<!-- Node38&#45;&gt;Node25 -->
<g id="edge66" class="edge">
<title>Node38&#45;&gt;Node25</title>
<path fill="none" stroke="midnightblue" d="M1451.56,-171.93C1467.06,-170.48 1484.23,-169.02 1500,-168 1717.64,-153.88 2386.69,-132.31 2610.9,-125.29"/>
<polygon fill="midnightblue" stroke="midnightblue" points="2611.03,-128.79 2620.92,-124.98 2610.81,-121.79 2611.03,-128.79"/>
</g>
<!-- Node38&#45;&gt;Node26 -->
<g id="edge69" class="edge">
<title>Node38&#45;&gt;Node26</title>
<path fill="none" stroke="midnightblue" d="M1451.57,-169.8C1512.1,-160.98 1617.59,-145.55 1708,-132 1766.25,-123.27 1780.32,-117.01 1839,-112 2327.36,-70.32 3946.4,-67.24 4201.13,-67.02"/>
<polygon fill="midnightblue" stroke="midnightblue" points="4201.26,-70.52 4211.26,-67.01 4201.26,-63.52 4201.26,-70.52"/>
</g>
<!-- Node45&#45;&gt;Node10 -->
<g id="edge110" class="edge">
<title>Node45&#45;&gt;Node10</title>
<path fill="none" stroke="midnightblue" d="M642.67,-392.4C688.46,-378.91 781.12,-352.59 861,-336 1285.84,-247.78 1400.04,-270.67 1826,-188 1917.54,-170.23 2188.19,-104.29 2295.47,-77.96"/>
<polygon fill="midnightblue" stroke="midnightblue" points="2296.45,-81.32 2305.33,-75.54 2294.78,-74.53 2296.45,-81.32"/>
</g>
<!-- Node45&#45;&gt;Node15 -->
<g id="edge117" class="edge">
<title>Node45&#45;&gt;Node15</title>
<path fill="none" stroke="midnightblue" d="M555.61,-399.37C428.56,-395.33 135.55,-383.15 100,-356 75.53,-337.31 76,-321.8 76,-291 76,-291 76,-291 76,-177 76,-146.2 76.12,-131.44 100,-112 139.88,-79.53 293.88,-70.4 363.94,-67.91"/>
<polygon fill="midnightblue" stroke="midnightblue" points="364.16,-71.4 374.04,-67.57 363.93,-64.41 364.16,-71.4"/>
</g>
<!-- Node45&#45;&gt;Node16 -->
<g id="edge122" class="edge">
<title>Node45&#45;&gt;Node16</title>
<path fill="none" stroke="midnightblue" d="M555.93,-399.28C442.65,-395.32 201,-383.7 176,-356 120.02,-293.97 123.86,-233.29 176,-168 249.03,-76.56 1120.69,-67.86 1321.79,-67.07"/>
<polygon fill="midnightblue" stroke="midnightblue" points="1321.95,-70.57 1331.94,-67.04 1321.92,-63.57 1321.95,-70.57"/>
</g>
<!-- Node45&#45;&gt;Node18 -->
<g id="edge114" class="edge">
<title>Node45&#45;&gt;Node18</title>
<path fill="none" stroke="midnightblue" d="M629.99,-392.43C645.81,-383.77 670.57,-369.73 691,-356 737.04,-325.06 738.36,-300.26 790,-280 841.11,-259.94 1720.14,-198.66 1774,-188 1839.24,-175.09 1912.97,-150 1954.02,-135.05"/>
<polygon fill="midnightblue" stroke="midnightblue" points="1955.31,-138.31 1963.49,-131.58 1952.9,-131.74 1955.31,-138.31"/>
</g>
<!-- Node45&#45;&gt;Node19 -->
<g id="edge123" class="edge">
<title>Node45&#45;&gt;Node19</title>
<path fill="none" stroke="midnightblue" d="M556,-398.74C466.89,-394.45 301.15,-383.03 249,-356 214.36,-338.05 190,-330.02 190,-291 190,-291 190,-291 190,-233 190,-194.28 213.83,-186.21 248,-168 408.75,-82.33 472.51,-127.52 654,-112 1129.42,-71.35 1250.19,-94.07 1727,-76 1792.02,-73.54 1868.18,-70.21 1909.52,-68.37"/>
<polygon fill="midnightblue" stroke="midnightblue" points="1909.9,-71.86 1919.74,-67.91 1909.59,-64.86 1909.9,-71.86"/>
</g>
<!-- Node45&#45;&gt;Node20 -->
<g id="edge115" class="edge">
<title>Node45&#45;&gt;Node20</title>
<path fill="none" stroke="midnightblue" d="M555.87,-397.89C494.75,-393.26 404.5,-382.09 383,-356 317.59,-276.61 421.96,-204.86 518,-168 646.43,-118.71 998.97,-144.09 1136,-132 1148.28,-130.92 1161.65,-129.43 1173.7,-127.99"/>
<polygon fill="midnightblue" stroke="midnightblue" points="1174.39,-131.43 1183.89,-126.73 1173.54,-124.48 1174.39,-131.43"/>
</g>
<!-- Node45&#45;&gt;Node21 -->
<g id="edge116" class="edge">
<title>Node45&#45;&gt;Node21</title>
<path fill="none" stroke="midnightblue" d="M672.26,-398.74C923.07,-388.92 1935.81,-348.22 2767,-300 3127.25,-279.1 3251.4,-399.57 3577,-244 3607.65,-229.36 3616.59,-219.61 3629,-188 3634.8,-173.22 3633.63,-155.07 3631.39,-141.7"/>
<polygon fill="midnightblue" stroke="midnightblue" points="3634.8,-140.89 3629.39,-131.78 3627.93,-142.28 3634.8,-140.89"/>
</g>
<!-- Node45&#45;&gt;Node22 -->
<g id="edge118" class="edge">
<title>Node45&#45;&gt;Node22</title>
<path fill="none" stroke="midnightblue" d="M555.97,-397.53C475.62,-391.94 335.23,-379.18 290,-356 254.47,-337.79 228,-330.92 228,-291 228,-291 228,-291 228,-233 228,-193.08 253.78,-184.79 290,-168 356.57,-137.15 878.78,-125.98 1017.35,-123.54"/>
<polygon fill="midnightblue" stroke="midnightblue" points="1017.8,-127.04 1027.74,-123.37 1017.68,-120.04 1017.8,-127.04"/>
</g>
<!-- Node45&#45;&gt;Node26 -->
<g id="edge120" class="edge">
<title>Node45&#45;&gt;Node26</title>
<path fill="none" stroke="midnightblue" d="M672.05,-401.1C1097.65,-401.74 3729.41,-403.75 4080,-356 4289.04,-327.53 4539,-445.97 4539,-235 4539,-235 4539,-235 4539,-177 4539,-120 4347.6,-84.2 4268.54,-71.84"/>
<polygon fill="midnightblue" stroke="midnightblue" points="4269.02,-68.37 4258.6,-70.32 4267.96,-75.29 4269.02,-68.37"/>
</g>
<!-- Node45&#45;&gt;Node27 -->
<g id="edge109" class="edge">
<title>Node45&#45;&gt;Node27</title>
<path fill="none" stroke="midnightblue" d="M606.63,-392.45C583.59,-364.67 517.06,-275.75 562,-224 570.16,-214.6 721.64,-196.42 812.54,-186.28"/>
<polygon fill="midnightblue" stroke="midnightblue" points="812.95,-189.76 822.5,-185.18 812.17,-182.8 812.95,-189.76"/>
</g>
<!-- Node45&#45;&gt;Node28 -->
<g id="edge111" class="edge">
<title>Node45&#45;&gt;Node28</title>
<path fill="none" stroke="midnightblue" d="M620.56,-392.45C630.26,-379.88 649.11,-355.78 666,-336 687.86,-310.4 689.56,-299.51 717,-280 768.61,-243.31 786.37,-238.52 848,-224 1113.64,-161.43 1188.73,-206.74 1461,-188 1472.99,-187.17 1485.69,-186.24 1498.09,-185.28"/>
<polygon fill="midnightblue" stroke="midnightblue" points="1498.71,-188.75 1508.41,-184.48 1498.17,-181.77 1498.71,-188.75"/>
</g>
<!-- Node45&#45;&gt;Node33 -->
<g id="edge119" class="edge">
<title>Node45&#45;&gt;Node33</title>
<path fill="none" stroke="midnightblue" d="M612.89,-392.31C610.61,-370.32 607.88,-311.95 638,-280 690.44,-224.37 921.7,-194.2 1022.15,-183.52"/>
<polygon fill="midnightblue" stroke="midnightblue" points="1022.73,-186.98 1032.31,-182.46 1022,-180.02 1022.73,-186.98"/>
</g>
<!-- Node45&#45;&gt;Node35 -->
<g id="edge121" class="edge">
<title>Node45&#45;&gt;Node35</title>
<path fill="none" stroke="midnightblue" d="M555.96,-396.31C488.89,-389.99 383.44,-377.06 350,-356 320.05,-337.14 304,-326.39 304,-291 304,-291 304,-291 304,-233 304,-193.08 329.7,-184.63 366,-168 508.21,-102.85 910.1,-159.2 1082.44,-131.37"/>
<polygon fill="midnightblue" stroke="midnightblue" points="1083.22,-134.79 1092.46,-129.61 1082.01,-127.89 1083.22,-134.79"/>
</g>
<!-- Node46 -->
<g id="node39" class="node">
<title>Node46</title>
<g id="a_node39"><a xlink:href="DenseMapInfo_8h.html" target="_top" xlink:title="llvm/ADT/DenseMapInfo.h">
<polygon fill="none" stroke="red" points="870.5,-336.5 870.5,-355.5 1003.5,-355.5 1003.5,-336.5 870.5,-336.5"/>
<text text-anchor="middle" x="937" y="-343.5" font-family="Helvetica,sans-Serif" font-size="10.00">llvm/ADT/DenseMapInfo.h</text>
</a>
</g>
</g>
<!-- Node45&#45;&gt;Node46 -->
<g id="edge99" class="edge">
<title>Node45&#45;&gt;Node46</title>
<path fill="none" stroke="midnightblue" d="M665.18,-392.44C722.47,-382.87 815.24,-367.36 876.19,-357.17"/>
<polygon fill="midnightblue" stroke="midnightblue" points="876.77,-360.62 886.06,-355.52 875.62,-353.71 876.77,-360.62"/>
</g>
<!-- Node51 -->
<g id="node40" class="node">
<title>Node51</title>
<g id="a_node40"><a xlink:href="EpochTracker_8h.html" target="_top" xlink:title="llvm/ADT/EpochTracker.h">
<polygon fill="none" stroke="black" points="964,-224.5 964,-243.5 1094,-243.5 1094,-224.5 964,-224.5"/>
<text text-anchor="middle" x="1029" y="-231.5" font-family="Helvetica,sans-Serif" font-size="10.00">llvm/ADT/EpochTracker.h</text>
</a>
</g>
</g>
<!-- Node45&#45;&gt;Node51 -->
<g id="edge106" class="edge">
<title>Node45&#45;&gt;Node51</title>
<path fill="none" stroke="midnightblue" d="M624,-392.4C634.48,-383.37 651.44,-368.73 666,-356 704.4,-322.42 705.9,-301.84 752,-280 786.83,-263.5 884.42,-250.21 953.88,-242.46"/>
<polygon fill="midnightblue" stroke="midnightblue" points="954.36,-245.93 963.91,-241.36 953.59,-238.97 954.36,-245.93"/>
</g>
<!-- Node52 -->
<g id="node41" class="node">
<title>Node52</title>
<g id="a_node41"><a xlink:href="ReverseIteration_8h.html" target="_top" xlink:title="llvm/Support/ReverseIteration.h">
<polygon fill="none" stroke="red" points="392.5,-336.5 392.5,-355.5 547.5,-355.5 547.5,-336.5 392.5,-336.5"/>
<text text-anchor="middle" x="470" y="-343.5" font-family="Helvetica,sans-Serif" font-size="10.00">llvm/Support/ReverseIteration.h</text>
</a>
</g>
</g>
<!-- Node45&#45;&gt;Node52 -->
<g id="edge112" class="edge">
<title>Node45&#45;&gt;Node52</title>
<path fill="none" stroke="midnightblue" d="M591.18,-392.44C567.17,-383.44 529.17,-369.19 502.13,-359.05"/>
<polygon fill="midnightblue" stroke="midnightblue" points="503.3,-355.75 492.71,-355.52 500.84,-362.3 503.3,-355.75"/>
</g>
<!-- Node46&#45;&gt;Node1 -->
<g id="edge100" class="edge">
<title>Node46&#45;&gt;Node1</title>
<path fill="none" stroke="midnightblue" d="M1003.53,-340.81C1164.2,-330.68 1571.73,-305.01 1729.88,-295.04"/>
<polygon fill="midnightblue" stroke="midnightblue" points="1730.18,-298.53 1739.94,-294.41 1729.74,-291.54 1730.18,-298.53"/>
</g>
<!-- Node46&#45;&gt;Node2 -->
<g id="edge101" class="edge">
<title>Node46&#45;&gt;Node2</title>
<path fill="none" stroke="midnightblue" d="M924.1,-336.27C894.38,-315.16 826.21,-260.41 861,-224 890.08,-193.57 1548.35,-192.27 1649.48,-187.71"/>
<polygon fill="midnightblue" stroke="midnightblue" points="1649.7,-191.21 1659.47,-187.09 1649.27,-184.22 1649.7,-191.21"/>
</g>
<!-- Node46&#45;&gt;Node15 -->
<g id="edge103" class="edge">
<title>Node46&#45;&gt;Node15</title>
<path fill="none" stroke="midnightblue" d="M870.34,-341.39C767.22,-333.84 564.5,-311.05 407,-244 339.77,-215.38 270.59,-174.15 309,-112 321.1,-92.42 344.58,-81.08 364.52,-74.68"/>
<polygon fill="midnightblue" stroke="midnightblue" points="365.64,-78 374.26,-71.84 363.68,-71.28 365.64,-78"/>
</g>
<!-- Node46&#45;&gt;Node19 -->
<g id="edge105" class="edge">
<title>Node46&#45;&gt;Node19</title>
<path fill="none" stroke="midnightblue" d="M883.2,-336.47C772.62,-316.79 536.8,-262.52 619,-168 736.81,-32.55 840.28,-128.84 1019,-112 1109.18,-103.5 1759.82,-74.86 1909.4,-68.33"/>
<polygon fill="midnightblue" stroke="midnightblue" points="1909.83,-71.81 1919.67,-67.88 1909.53,-64.82 1909.83,-71.81"/>
</g>
<!-- Node46&#45;&gt;Node21 -->
<g id="edge102" class="edge">
<title>Node46&#45;&gt;Node21</title>
<path fill="none" stroke="midnightblue" d="M1003.64,-343.83C1224.48,-339.81 1952.49,-325.38 2554,-300 2581.52,-298.84 3518.38,-254.12 3544,-244 3580.09,-229.74 3590.45,-220.92 3611,-188 3619.75,-173.98 3623.72,-155.48 3625.51,-141.81"/>
<polygon fill="midnightblue" stroke="midnightblue" points="3629.01,-141.96 3626.57,-131.66 3622.05,-141.24 3629.01,-141.96"/>
</g>
<!-- Node46&#45;&gt;Node40 -->
<g id="edge104" class="edge">
<title>Node46&#45;&gt;Node40</title>
<path fill="none" stroke="midnightblue" d="M1003.95,-344.58C1297.1,-342.55 2456.09,-332.51 2526,-300 2573.3,-278.01 2608.7,-224.48 2624.65,-196.58"/>
<polygon fill="midnightblue" stroke="midnightblue" points="2627.86,-198.01 2629.63,-187.56 2621.73,-194.62 2627.86,-198.01"/>
</g>
<!-- Node51&#45;&gt;Node39 -->
<g id="edge107" class="edge">
<title>Node51&#45;&gt;Node39</title>
<path fill="none" stroke="midnightblue" d="M977.03,-224.44C918.85,-214.87 824.64,-199.36 762.75,-189.17"/>
<polygon fill="midnightblue" stroke="midnightblue" points="763.17,-185.69 752.73,-187.52 762.03,-192.59 763.17,-185.69"/>
</g>
<!-- Node51&#45;&gt;Node40 -->
<g id="edge108" class="edge">
<title>Node51&#45;&gt;Node40</title>
<path fill="none" stroke="midnightblue" d="M1094.16,-231.06C1292.22,-225.14 1904.55,-206.54 2412,-188 2478.99,-185.55 2557.32,-182.28 2600.74,-180.43"/>
<polygon fill="midnightblue" stroke="midnightblue" points="2601.15,-183.92 2610.99,-179.99 2600.85,-176.92 2601.15,-183.92"/>
</g>
<!-- Node52&#45;&gt;Node39 -->
<g id="edge113" class="edge">
<title>Node52&#45;&gt;Node39</title>
<path fill="none" stroke="midnightblue" d="M471.23,-336.45C474.88,-314.28 487.76,-254.53 524,-224 552.25,-200.2 591.45,-188.75 625.77,-183.33"/>
<polygon fill="midnightblue" stroke="midnightblue" points="626.38,-186.77 635.78,-181.89 625.39,-179.85 626.38,-186.77"/>
</g>
<!-- Node53&#45;&gt;Node15 -->
<g id="edge188" class="edge">
<title>Node53&#45;&gt;Node15</title>
<path fill="none" stroke="midnightblue" d="M2618.82,-512.43C2286.17,-507.55 0,-471.55 0,-403 0,-403 0,-403 0,-177 0,-140.55 18.4,-130.16 50,-112 103.05,-81.51 286.79,-71.18 364.19,-68.13"/>
<polygon fill="midnightblue" stroke="midnightblue" points="364.52,-71.62 374.38,-67.75 364.26,-64.63 364.52,-71.62"/>
</g>
<!-- Node53&#45;&gt;Node18 -->
<g id="edge186" class="edge">
<title>Node53&#45;&gt;Node18</title>
<path fill="none" stroke="midnightblue" d="M2618.74,-510.73C2473.21,-502.01 1983,-467.8 1983,-403 1983,-403 1983,-403 1983,-233 1983,-200.94 1984.29,-163.63 1985.18,-141.74"/>
<polygon fill="midnightblue" stroke="midnightblue" points="1988.68,-141.69 1985.61,-131.56 1981.69,-141.4 1988.68,-141.69"/>
</g>
<!-- Node53&#45;&gt;Node21 -->
<g id="edge187" class="edge">
<title>Node53&#45;&gt;Node21</title>
<path fill="none" stroke="midnightblue" d="M2699.12,-511.05C2837.9,-502.5 3305.46,-458.39 3606,-244 3630.69,-226.39 3635.92,-216.94 3645,-188 3649.97,-172.15 3643.91,-153.91 3637.51,-140.79"/>
<polygon fill="midnightblue" stroke="midnightblue" points="3640.55,-139.04 3632.73,-131.89 3634.38,-142.35 3640.55,-139.04"/>
</g>
<!-- Node53&#45;&gt;Node25 -->
<g id="edge129" class="edge">
<title>Node53&#45;&gt;Node25</title>
<path fill="none" stroke="midnightblue" d="M2653.72,-504.23C2643.27,-486.04 2621,-442.6 2621,-403 2621,-403 2621,-403 2621,-289 2621,-234.56 2574.15,-214.77 2602,-168 2611.1,-152.72 2627.39,-142.31 2643.14,-135.39"/>
<polygon fill="midnightblue" stroke="midnightblue" points="2644.83,-138.48 2652.82,-131.51 2642.23,-131.98 2644.83,-138.48"/>
</g>
<!-- Node53&#45;&gt;Node26 -->
<g id="edge189" class="edge">
<title>Node53&#45;&gt;Node26</title>
<path fill="none" stroke="midnightblue" d="M2699.4,-512.91C2979,-512.02 4615,-502.54 4615,-403 4615,-403 4615,-403 4615,-177 4615,-129.09 4573.14,-130.64 4529,-112 4440.29,-74.54 4324.82,-67.78 4268.64,-66.87"/>
<polygon fill="midnightblue" stroke="midnightblue" points="4268.58,-63.37 4258.54,-66.76 4268.5,-70.37 4268.58,-63.37"/>
</g>
<!-- Node53&#45;&gt;Node38 -->
<g id="edge128" class="edge">
<title>Node53&#45;&gt;Node38</title>
<path fill="none" stroke="midnightblue" d="M2618.97,-512.35C2491.04,-509.97 2093.22,-500.1 1969,-468 1743.02,-409.6 1695.64,-361.57 1494,-244 1467.58,-228.59 1439.1,-207.75 1420.94,-193.86"/>
<polygon fill="midnightblue" stroke="midnightblue" points="1422.96,-191 1412.91,-187.66 1418.68,-196.54 1422.96,-191"/>
</g>
<!-- Node54 -->
<g id="node43" class="node">
<title>Node54</title>
<g id="a_node43"><a xlink:href="GraphTraits_8h.html" target="_top" xlink:title="llvm/ADT/GraphTraits.h">
<polygon fill="none" stroke="black" points="2473,-448.5 2473,-467.5 2593,-467.5 2593,-448.5 2473,-448.5"/>
<text text-anchor="middle" x="2533" y="-455.5" font-family="Helvetica,sans-Serif" font-size="10.00">llvm/ADT/GraphTraits.h</text>
</a>
</g>
</g>
<!-- Node53&#45;&gt;Node54 -->
<g id="edge126" class="edge">
<title>Node53&#45;&gt;Node54</title>
<path fill="none" stroke="midnightblue" d="M2639.03,-504.44C2618.39,-495.6 2585.94,-481.69 2562.37,-471.59"/>
<polygon fill="midnightblue" stroke="midnightblue" points="2563.44,-468.24 2552.87,-467.52 2560.68,-474.67 2563.44,-468.24"/>
</g>
<!-- Node55 -->
<g id="node44" class="node">
<title>Node55</title>
<g id="a_node44"><a xlink:href="BasicBlock_8h.html" target="_top" xlink:title="llvm/IR/BasicBlock.h">
<polygon fill="none" stroke="red" points="3961.5,-336.5 3961.5,-355.5 4070.5,-355.5 4070.5,-336.5 3961.5,-336.5"/>
<text text-anchor="middle" x="4016" y="-343.5" font-family="Helvetica,sans-Serif" font-size="10.00">llvm/IR/BasicBlock.h</text>
</a>
</g>
</g>
<!-- Node53&#45;&gt;Node55 -->
<g id="edge130" class="edge">
<title>Node53&#45;&gt;Node55</title>
<path fill="none" stroke="midnightblue" d="M2699.01,-512.62C2906.82,-510.48 3855.52,-499.08 3909,-468 3943.34,-448.04 3929.2,-421.31 3956,-392 3966.85,-380.13 3981.2,-369.24 3993.14,-361.14"/>
<polygon fill="midnightblue" stroke="midnightblue" points="3995.26,-363.94 4001.71,-355.53 3991.43,-358.08 3995.26,-363.94"/>
</g>
<!-- Node80 -->
<g id="node45" class="node">
<title>Node80</title>
<g id="a_node45"><a xlink:href="Value_8h.html" target="_top" xlink:title="llvm/IR/Value.h">
<polygon fill="none" stroke="red" points="3891,-280.5 3891,-299.5 3975,-299.5 3975,-280.5 3891,-280.5"/>
<text text-anchor="middle" x="3933" y="-287.5" font-family="Helvetica,sans-Serif" font-size="10.00">llvm/IR/Value.h</text>
</a>
</g>
</g>
<!-- Node53&#45;&gt;Node80 -->
<g id="edge184" class="edge">
<title>Node53&#45;&gt;Node80</title>
<path fill="none" stroke="midnightblue" d="M2699.05,-512.73C2799.73,-511.51 3071.28,-504.77 3294,-468 3487.58,-436.04 3532.28,-409.66 3721,-356 3783.05,-338.36 3854.7,-315.96 3896.8,-302.6"/>
<polygon fill="midnightblue" stroke="midnightblue" points="3897.86,-305.93 3906.33,-299.56 3895.74,-299.26 3897.86,-305.93"/>
</g>
<!-- Node79 -->
<g id="node47" class="node">
<title>Node79</title>
<g id="a_node47"><a xlink:href="Casting_8h.html" target="_top" xlink:title="llvm/Support/Casting.h">
<polygon fill="none" stroke="black" points="4089,-224.5 4089,-243.5 4205,-243.5 4205,-224.5 4089,-224.5"/>
<text text-anchor="middle" x="4147" y="-231.5" font-family="Helvetica,sans-Serif" font-size="10.00">llvm/Support/Casting.h</text>
</a>
</g>
</g>
<!-- Node53&#45;&gt;Node79 -->
<g id="edge185" class="edge">
<title>Node53&#45;&gt;Node79</title>
<path fill="none" stroke="midnightblue" d="M2699.2,-512.66C2962.07,-510.2 4425,-492.47 4425,-403 4425,-403 4425,-403 4425,-345 4425,-297.9 4285.28,-262.3 4203.94,-245.56"/>
<polygon fill="midnightblue" stroke="midnightblue" points="4204.34,-242.07 4193.84,-243.52 4202.95,-248.93 4204.34,-242.07"/>
</g>
<!-- Node88 -->
<g id="node48" class="node">
<title>Node88</title>
<g id="a_node48"><a xlink:href="Function_8h.html" target="_top" xlink:title="llvm/IR/Function.h">
<polygon fill="none" stroke="red" points="3964.5,-392.5 3964.5,-411.5 4061.5,-411.5 4061.5,-392.5 3964.5,-392.5"/>
<text text-anchor="middle" x="4013" y="-399.5" font-family="Helvetica,sans-Serif" font-size="10.00">llvm/IR/Function.h</text>
</a>
</g>
</g>
<!-- Node53&#45;&gt;Node88 -->
<g id="edge156" class="edge">
<title>Node53&#45;&gt;Node88</title>
<path fill="none" stroke="midnightblue" d="M2699.12,-512.44C2910.82,-509.35 3890.46,-493.72 3949,-468 3971.79,-457.99 3990.71,-435.77 4001.94,-420.11"/>
<polygon fill="midnightblue" stroke="midnightblue" points="4004.87,-422.02 4007.62,-411.79 3999.09,-418.07 4004.87,-422.02"/>
</g>
<!-- Node109 -->
<g id="node49" class="node">
<title>Node109</title>
<g id="a_node49"><a xlink:href="InstrTypes_8h.html" target="_top" xlink:title="llvm/IR/InstrTypes.h">
<polygon fill="none" stroke="red" points="3179,-448.5 3179,-467.5 3285,-467.5 3285,-448.5 3179,-448.5"/>
<text text-anchor="middle" x="3232" y="-455.5" font-family="Helvetica,sans-Serif" font-size="10.00">llvm/IR/InstrTypes.h</text>
</a>
</g>
</g>
<!-- Node53&#45;&gt;Node109 -->
<g id="edge167" class="edge">
<title>Node53&#45;&gt;Node109</title>
<path fill="none" stroke="midnightblue" d="M2699.29,-509.2C2797.56,-499.94 3050.15,-476.14 3168.73,-464.96"/>
<polygon fill="midnightblue" stroke="midnightblue" points="3169.13,-468.44 3178.75,-464.02 3168.47,-461.47 3169.13,-468.44"/>
</g>
<!-- Node54&#45;&gt;Node25 -->
<g id="edge127" class="edge">
<title>Node54&#45;&gt;Node25</title>
<path fill="none" stroke="midnightblue" d="M2532.92,-448.46C2532.7,-405.48 2533.71,-213.25 2569,-168 2581.78,-151.61 2601.35,-141.18 2620.79,-134.55"/>
<polygon fill="midnightblue" stroke="midnightblue" points="2622.09,-137.81 2630.6,-131.5 2620.02,-131.13 2622.09,-137.81"/>
</g>
<!-- Node55&#45;&gt;Node10 -->
<g id="edge152" class="edge">
<title>Node55&#45;&gt;Node10</title>
<path fill="none" stroke="midnightblue" d="M4060.23,-336.48C4107.66,-324.72 4180.64,-298.46 4214,-244 4234.23,-210.97 4179.66,-174.61 4171,-168 4118.71,-128.09 4098.37,-125.54 4034,-112 3873.95,-78.34 2713.86,-69.2 2411.76,-67.38"/>
<polygon fill="midnightblue" stroke="midnightblue" points="2411.4,-63.88 2401.38,-67.32 2411.36,-70.88 2411.4,-63.88"/>
</g>
<!-- Node55&#45;&gt;Node15 -->
<g id="edge154" class="edge">
<title>Node55&#45;&gt;Node15</title>
<path fill="none" stroke="midnightblue" d="M3961.32,-344.66C3702.26,-342.89 2572.46,-333.55 1647,-300 1181.75,-283.13 1047.01,-377.47 601,-244 515.74,-218.48 492.4,-200.02 435,-132 422.93,-117.7 412.99,-98.74 406.63,-84.99"/>
<polygon fill="midnightblue" stroke="midnightblue" points="409.74,-83.38 402.49,-75.66 403.34,-86.22 409.74,-83.38"/>
</g>
<!-- Node55&#45;&gt;Node21 -->
<g id="edge153" class="edge">
<title>Node55&#45;&gt;Node21</title>
<path fill="none" stroke="midnightblue" d="M4018.54,-336.48C4026.44,-308.02 4047.39,-215.37 4001,-168 3949.87,-115.78 3751.65,-143.45 3661.92,-131.63"/>
<polygon fill="midnightblue" stroke="midnightblue" points="3662.21,-128.13 3651.78,-130.03 3661.12,-135.04 3662.21,-128.13"/>
</g>
<!-- Node55&#45;&gt;Node25 -->
<g id="edge132" class="edge">
<title>Node55&#45;&gt;Node25</title>
<path fill="none" stroke="midnightblue" d="M3961.36,-340.49C3843.35,-330.01 3556.37,-300.48 3322,-244 3220.21,-219.47 3201.22,-190.68 3099,-168 2981.95,-142.03 2842.82,-130.82 2759.34,-126.15"/>
<polygon fill="midnightblue" stroke="midnightblue" points="2759.36,-122.64 2749.19,-125.6 2758.98,-129.63 2759.36,-122.64"/>
</g>
<!-- Node55&#45;&gt;Node26 -->
<g id="edge155" class="edge">
<title>Node55&#45;&gt;Node26</title>
<path fill="none" stroke="midnightblue" d="M4070.81,-344.34C4112.64,-341.19 4169.59,-330.87 4209,-300 4259.3,-260.59 4267.14,-231.89 4266,-168 4265.56,-143.1 4271.46,-135.76 4264,-112 4260.81,-101.82 4254.64,-91.72 4248.82,-83.68"/>
<polygon fill="midnightblue" stroke="midnightblue" points="4251.44,-81.35 4242.56,-75.57 4245.9,-85.63 4251.44,-81.35"/>
</g>
<!-- Node55&#45;&gt;Node38 -->
<g id="edge131" class="edge">
<title>Node55&#45;&gt;Node38</title>
<path fill="none" stroke="midnightblue" d="M3961.32,-345.01C3635.48,-344.92 1956.18,-342.39 1731,-300 1613.61,-277.9 1482.82,-218.56 1428.19,-192.07"/>
<polygon fill="midnightblue" stroke="midnightblue" points="1429.42,-188.78 1418.9,-187.53 1426.34,-195.07 1429.42,-188.78"/>
</g>
<!-- Node55&#45;&gt;Node80 -->
<g id="edge133" class="edge">
<title>Node55&#45;&gt;Node80</title>
<path fill="none" stroke="midnightblue" d="M4002.66,-336.32C3989.84,-327.98 3970.22,-315.21 3955.06,-305.35"/>
<polygon fill="midnightblue" stroke="midnightblue" points="3956.59,-302.17 3946.3,-299.65 3952.78,-308.04 3956.59,-302.17"/>
</g>
<!-- Node55&#45;&gt;Node79 -->
<g id="edge151" class="edge">
<title>Node55&#45;&gt;Node79</title>
<path fill="none" stroke="midnightblue" d="M4024.6,-336.21C4037.34,-323.35 4062.19,-298.9 4085,-280 4098.19,-269.08 4113.79,-257.76 4126.05,-249.21"/>
<polygon fill="midnightblue" stroke="midnightblue" points="4128.06,-252.07 4134.3,-243.51 4124.08,-246.31 4128.06,-252.07"/>
</g>
<!-- Node80&#45;&gt;Node21 -->
<g id="edge148" class="edge">
<title>Node80&#45;&gt;Node21</title>
<path fill="none" stroke="midnightblue" d="M3942.18,-280.33C3963.81,-258.88 4013.91,-202.56 3983,-168 3936.87,-116.43 3747.41,-142.96 3661.71,-131.59"/>
<polygon fill="midnightblue" stroke="midnightblue" points="3662.21,-128.13 3651.79,-130.01 3661.11,-135.04 3662.21,-128.13"/>
</g>
<!-- Node80&#45;&gt;Node25 -->
<g id="edge135" class="edge">
<title>Node80&#45;&gt;Node25</title>
<path fill="none" stroke="midnightblue" d="M3890.63,-287.7C3776.42,-283.89 3464.09,-271.19 3365,-244 3358.2,-242.13 3257.29,-191.2 3251,-188 3233.99,-179.35 3231.32,-173.36 3213,-168 3170.62,-155.59 2894.81,-136.49 2759.56,-127.71"/>
<polygon fill="midnightblue" stroke="midnightblue" points="2759.48,-124.19 2749.28,-127.04 2759.03,-131.18 2759.48,-124.19"/>
</g>
<!-- Node80&#45;&gt;Node26 -->
<g id="edge149" class="edge">
<title>Node80&#45;&gt;Node26</title>
<path fill="none" stroke="midnightblue" d="M3975.07,-287.57C4044.52,-284.36 4178.98,-274.31 4214,-244 4259.9,-204.28 4258.12,-172.01 4249,-112 4247.63,-103 4244.81,-93.33 4242.05,-85.26"/>
<polygon fill="midnightblue" stroke="midnightblue" points="4245.31,-83.98 4238.6,-75.78 4238.73,-86.37 4245.31,-83.98"/>
</g>
<!-- Node80&#45;&gt;Node34 -->
<g id="edge150" class="edge">
<title>Node80&#45;&gt;Node34</title>
<path fill="none" stroke="midnightblue" d="M3951.2,-280.45C3965.87,-272.75 3986.11,-260.15 3999,-244 4020.93,-216.51 4041.33,-196.69 4021,-168 4000.35,-138.86 3959.26,-128.45 3929.19,-124.81"/>
<polygon fill="midnightblue" stroke="midnightblue" points="3929.36,-121.31 3919.06,-123.78 3928.66,-128.27 3929.36,-121.31"/>
</g>
<!-- Node80&#45;&gt;Node36 -->
<g id="edge134" class="edge">
<title>Node80&#45;&gt;Node36</title>
<path fill="none" stroke="midnightblue" d="M3890.75,-286.71C3735.47,-278.31 3195.37,-249.09 3003.38,-238.7"/>
<polygon fill="midnightblue" stroke="midnightblue" points="3003.31,-235.19 2993.14,-238.15 3002.93,-242.18 3003.31,-235.19"/>
</g>
<!-- Node74 -->
<g id="node46" class="node">
<title>Node74</title>
<g id="a_node46"><a xlink:href="Alignment_8h.html" target="_top" xlink:title="llvm/Support/Alignment.h">
<polygon fill="none" stroke="black" points="3374,-224.5 3374,-243.5 3500,-243.5 3500,-224.5 3374,-224.5"/>
<text text-anchor="middle" x="3437" y="-231.5" font-family="Helvetica,sans-Serif" font-size="10.00">llvm/Support/Alignment.h</text>
</a>
</g>
</g>
<!-- Node80&#45;&gt;Node74 -->
<g id="edge136" class="edge">
<title>Node80&#45;&gt;Node74</title>
<path fill="none" stroke="midnightblue" d="M3890.71,-284.4C3806.26,-275.2 3615.8,-254.47 3510.49,-243"/>
<polygon fill="midnightblue" stroke="midnightblue" points="3510.58,-239.49 3500.26,-241.89 3509.82,-246.45 3510.58,-239.49"/>
</g>
<!-- Node80&#45;&gt;Node79 -->
<g id="edge142" class="edge">
<title>Node80&#45;&gt;Node79</title>
<path fill="none" stroke="midnightblue" d="M3966.91,-280.44C4003.85,-271.12 4063.05,-256.18 4103.42,-246"/>
<polygon fill="midnightblue" stroke="midnightblue" points="4104.41,-249.36 4113.25,-243.52 4102.7,-242.57 4104.41,-249.36"/>
</g>
<!-- Node74&#45;&gt;Node10 -->
<g id="edge138" class="edge">
<title>Node74&#45;&gt;Node10</title>
<path fill="none" stroke="midnightblue" d="M3443.89,-224.46C3453.83,-211.05 3469.58,-184.84 3456,-168 3382.04,-76.35 3313.74,-127.58 3197,-112 2907.48,-73.35 2558.8,-67.51 2411.36,-66.89"/>
<polygon fill="midnightblue" stroke="midnightblue" points="2411.11,-63.39 2401.1,-66.85 2411.08,-70.39 2411.11,-63.39"/>
</g>
<!-- Node74&#45;&gt;Node21 -->
<g id="edge140" class="edge">
<title>Node74&#45;&gt;Node21</title>
<path fill="none" stroke="midnightblue" d="M3475.82,-224.45C3502.38,-217.42 3537.6,-205.7 3565,-188 3584.96,-175.11 3603.12,-154.53 3614.56,-139.99"/>
<polygon fill="midnightblue" stroke="midnightblue" points="3617.49,-141.91 3620.77,-131.84 3611.92,-137.67 3617.49,-141.91"/>
</g>
<!-- Node74&#45;&gt;Node28 -->
<g id="edge139" class="edge">
<title>Node74&#45;&gt;Node28</title>
<path fill="none" stroke="midnightblue" d="M3373.79,-231.57C3074.46,-224.79 1807.81,-195.85 1651.88,-187.86"/>
<polygon fill="midnightblue" stroke="midnightblue" points="1651.88,-184.35 1641.69,-187.25 1651.47,-191.34 1651.88,-184.35"/>
</g>
<!-- Node74&#45;&gt;Node30 -->
<g id="edge141" class="edge">
<title>Node74&#45;&gt;Node30</title>
<path fill="none" stroke="midnightblue" d="M3417.06,-224.4C3383.47,-210.28 3313.17,-182.32 3251,-168 3120.27,-137.88 3080.26,-159.42 2945.06,-131.85"/>
<polygon fill="midnightblue" stroke="midnightblue" points="2945.66,-128.4 2935.16,-129.78 2944.23,-135.25 2945.66,-128.4"/>
</g>
<!-- Node74&#45;&gt;Node37 -->
<g id="edge137" class="edge">
<title>Node74&#45;&gt;Node37</title>
<path fill="none" stroke="midnightblue" d="M3429.9,-224.08C3423.76,-216.38 3414.73,-205.03 3407.26,-195.65"/>
<polygon fill="midnightblue" stroke="midnightblue" points="3409.94,-193.39 3400.97,-187.75 3404.46,-197.75 3409.94,-193.39"/>
</g>
<!-- Node79&#45;&gt;Node10 -->
<g id="edge143" class="edge">
<title>Node79&#45;&gt;Node10</title>
<path fill="none" stroke="midnightblue" d="M4151.4,-224.37C4157.62,-210.83 4166.87,-184.45 4154,-168 4090.23,-86.5 4030.53,-125.99 3928,-112 3628.86,-71.18 2679.93,-67.27 2411.42,-66.99"/>
<polygon fill="midnightblue" stroke="midnightblue" points="2411.4,-63.49 2401.4,-66.98 2411.39,-70.49 2411.4,-63.49"/>
</g>
<!-- Node79&#45;&gt;Node16 -->
<g id="edge147" class="edge">
<title>Node79&#45;&gt;Node16</title>
<path fill="none" stroke="midnightblue" d="M4088.78,-232.14C3781.55,-227.51 2359.49,-205.25 2268,-188 2219.44,-178.84 2107.37,-122.14 2059,-112 1995.11,-98.61 1545.05,-75.85 1404.69,-69"/>
<polygon fill="midnightblue" stroke="midnightblue" points="1404.53,-65.49 1394.37,-68.5 1404.19,-72.48 1404.53,-65.49"/>
</g>
<!-- Node79&#45;&gt;Node18 -->
<g id="edge144" class="edge">
<title>Node79&#45;&gt;Node18</title>
<path fill="none" stroke="midnightblue" d="M4088.8,-232.01C3778.46,-226.68 2328.92,-201.18 2235,-188 2156.93,-177.04 2068.19,-150.31 2020.57,-134.75"/>
<polygon fill="midnightblue" stroke="midnightblue" points="2021.65,-131.42 2011.06,-131.61 2019.46,-138.07 2021.65,-131.42"/>
</g>
<!-- Node79&#45;&gt;Node21 -->
<g id="edge145" class="edge">
<title>Node79&#45;&gt;Node21</title>
<path fill="none" stroke="midnightblue" d="M4138.74,-224.36C4124.19,-209.79 4092.38,-180.69 4059,-168 3895.97,-106.04 3838.01,-160.78 3661.63,-131.76"/>
<polygon fill="midnightblue" stroke="midnightblue" points="3662.22,-128.31 3651.77,-130.07 3661.04,-135.21 3662.22,-128.31"/>
</g>
<!-- Node79&#45;&gt;Node34 -->
<g id="edge146" class="edge">
<title>Node79&#45;&gt;Node34</title>
<path fill="none" stroke="midnightblue" d="M4148.18,-224.47C4149.58,-210.57 4150.08,-183.1 4135,-168 4106.65,-139.62 3989.75,-128.66 3929.41,-124.84"/>
<polygon fill="midnightblue" stroke="midnightblue" points="3929.37,-121.33 3919.18,-124.22 3928.95,-128.32 3929.37,-121.33"/>
</g>
<!-- Node88&#45;&gt;Node10 -->
<g id="edge161" class="edge">
<title>Node88&#45;&gt;Node10</title>
<path fill="none" stroke="midnightblue" d="M4061.58,-400.29C4185.01,-397.17 4501,-380.45 4501,-291 4501,-291 4501,-291 4501,-233 4501,-40.88 4275.83,-141.61 4086,-112 3919,-85.95 2718.42,-71.14 2411.37,-67.75"/>
<polygon fill="midnightblue" stroke="midnightblue" points="2411.29,-64.25 2401.25,-67.64 2411.21,-71.25 2411.29,-64.25"/>
</g>
<!-- Node88&#45;&gt;Node13 -->
<g id="edge166" class="edge">
<title>Node88&#45;&gt;Node13</title>
<path fill="none" stroke="midnightblue" d="M4061.77,-400.45C4171.45,-398.6 4434.26,-390.58 4515,-356 4589.98,-323.89 4653,-316.57 4653,-235 4653,-235 4653,-235 4653,-177 4653,-146.2 4651.52,-133.01 4629,-112 4595.09,-80.37 4540.16,-70.85 4505.88,-68.06"/>
<polygon fill="midnightblue" stroke="midnightblue" points="4505.75,-64.54 4495.53,-67.37 4505.28,-71.52 4505.75,-64.54"/>
</g>
<!-- Node88&#45;&gt;Node15 -->
<g id="edge163" class="edge">
<title>Node88&#45;&gt;Node15</title>
<path fill="none" stroke="midnightblue" d="M3964.48,-400.73C3591.28,-398.61 1182.77,-383.89 861,-356 711.94,-343.08 294.45,-310.82 209,-188 165.44,-125.38 298.57,-87.94 364.42,-73.66"/>
<polygon fill="midnightblue" stroke="midnightblue" points="365.31,-77.05 374.38,-71.57 363.87,-70.2 365.31,-77.05"/>
</g>
<!-- Node88&#45;&gt;Node21 -->
<g id="edge162" class="edge">
<title>Node88&#45;&gt;Node21</title>
<path fill="none" stroke="midnightblue" d="M4052.36,-392.48C4077.29,-385.65 4109.21,-374.15 4133,-356 4187.72,-314.25 4251.25,-281.88 4214,-224 4181.5,-173.49 4149.12,-183.17 4091,-168 3908.61,-120.38 3851.91,-163.15 3661.81,-131.8"/>
<polygon fill="midnightblue" stroke="midnightblue" points="3662.22,-128.32 3651.77,-130.09 3661.05,-135.22 3662.22,-128.32"/>
</g>
<!-- Node88&#45;&gt;Node25 -->
<g id="edge157" class="edge">
<title>Node88&#45;&gt;Node25</title>
<path fill="none" stroke="midnightblue" d="M3964.39,-393.49C3843.02,-374.19 3517.4,-319.05 3253,-244 3151.46,-215.18 3130.82,-191.87 3028,-168 2936.69,-146.8 2829.23,-134.73 2759.25,-128.53"/>
<polygon fill="midnightblue" stroke="midnightblue" points="2759.46,-125.03 2749.2,-127.66 2758.86,-132.01 2759.46,-125.03"/>
</g>
<!-- Node88&#45;&gt;Node34 -->
<g id="edge165" class="edge">
<title>Node88&#45;&gt;Node34</title>
<path fill="none" stroke="midnightblue" d="M4061.68,-396.05C4121.04,-389.27 4217.16,-375.65 4247,-356 4303.54,-318.77 4362.63,-278.88 4323,-224 4276.54,-159.66 4024.09,-133.33 3929.14,-125.61"/>
<polygon fill="midnightblue" stroke="midnightblue" points="3929.39,-122.12 3919.14,-124.82 3928.83,-129.1 3929.39,-122.12"/>
</g>
<!-- Node88&#45;&gt;Node40 -->
<g id="edge164" class="edge">
<title>Node88&#45;&gt;Node40</title>
<path fill="none" stroke="midnightblue" d="M3964.39,-400.63C3852.27,-399.16 3567.14,-391.88 3332,-356 3122.28,-324 3073.34,-297.29 2868,-244 2796.06,-225.33 2712.25,-201.56 2667.02,-188.56"/>
<polygon fill="midnightblue" stroke="midnightblue" points="2667.76,-185.12 2657.18,-185.72 2665.82,-191.85 2667.76,-185.12"/>
</g>
<!-- Node88&#45;&gt;Node55 -->
<g id="edge158" class="edge">
<title>Node88&#45;&gt;Node55</title>
<path fill="none" stroke="midnightblue" d="M4013.5,-392.08C4013.89,-385.01 4014.45,-374.86 4014.95,-365.99"/>
<polygon fill="midnightblue" stroke="midnightblue" points="4018.45,-365.93 4015.51,-355.75 4011.46,-365.54 4018.45,-365.93"/>
</g>
<!-- Node88&#45;&gt;Node80 -->
<g id="edge159" class="edge">
<title>Node88&#45;&gt;Node80</title>
<path fill="none" stroke="midnightblue" d="M3996.44,-392.46C3982.9,-384.68 3964.24,-371.98 3953,-356 3943.34,-342.27 3938.24,-323.74 3935.62,-309.98"/>
<polygon fill="midnightblue" stroke="midnightblue" points="3939.01,-309.05 3933.95,-299.75 3932.11,-310.18 3939.01,-309.05"/>
</g>
<!-- Node88&#45;&gt;Node79 -->
<g id="edge160" class="edge">
<title>Node88&#45;&gt;Node79</title>
<path fill="none" stroke="midnightblue" d="M4051.07,-392.35C4072.1,-385.72 4097.1,-374.47 4113,-356 4138.3,-326.62 4144.86,-279.72 4146.5,-253.79"/>
<polygon fill="midnightblue" stroke="midnightblue" points="4150,-253.92 4146.96,-243.77 4143.01,-253.61 4150,-253.92"/>
</g>
<!-- Node109&#45;&gt;Node1 -->
<g id="edge168" class="edge">
<title>Node109&#45;&gt;Node1</title>
<path fill="none" stroke="midnightblue" d="M3178.96,-453.07C3086.06,-446.01 2887.88,-430.23 2721,-412 2396.1,-376.51 2008.75,-321.98 1858.23,-300.33"/>
<polygon fill="midnightblue" stroke="midnightblue" points="1858.63,-296.85 1848.24,-298.89 1857.64,-303.78 1858.63,-296.85"/>
</g>
<!-- Node109&#45;&gt;Node9 -->
<g id="edge176" class="edge">
<title>Node109&#45;&gt;Node9</title>
<path fill="none" stroke="midnightblue" d="M3285.06,-457.62C3445.53,-458.95 3923.72,-458.79 4071,-412 4171.05,-380.21 4285.02,-301.31 4214,-224 4139.16,-142.54 3362.07,-126.7 3105.61,-123.69"/>
<polygon fill="midnightblue" stroke="midnightblue" points="3105.29,-120.19 3095.25,-123.57 3105.21,-127.19 3105.29,-120.19"/>
</g>
<!-- Node109&#45;&gt;Node13 -->
<g id="edge182" class="edge">
<title>Node109&#45;&gt;Node13</title>
<path fill="none" stroke="midnightblue" d="M3285.12,-456.2C3482.83,-453.02 4175.91,-440.07 4395,-412 4528.6,-394.88 4691,-481.69 4691,-347 4691,-347 4691,-347 4691,-177 4691,-94.82 4565.32,-74.01 4505.69,-68.76"/>
<polygon fill="midnightblue" stroke="midnightblue" points="4505.96,-65.27 4495.71,-67.97 4505.4,-72.25 4505.96,-65.27"/>
</g>
<!-- Node109&#45;&gt;Node15 -->
<g id="edge179" class="edge">
<title>Node109&#45;&gt;Node15</title>
<path fill="none" stroke="midnightblue" d="M3178.92,-456.19C2807.88,-450.48 615.12,-416.63 547,-412 433.23,-404.26 38,-461.03 38,-347 38,-347 38,-347 38,-177 38,-142.84 50.32,-130.54 79,-112 125.59,-81.88 291.18,-71.44 364.1,-68.25"/>
<polygon fill="midnightblue" stroke="midnightblue" points="364.31,-71.74 374.16,-67.83 364.02,-64.75 364.31,-71.74"/>
</g>
<!-- Node109&#45;&gt;Node20 -->
<g id="edge177" class="edge">
<title>Node109&#45;&gt;Node20</title>
<path fill="none" stroke="midnightblue" d="M3178.87,-455.58C2838.52,-446.35 974.51,-394.21 861,-356 736.91,-314.23 679.69,-304.02 619,-188 614.88,-180.12 612.94,-174.5 619,-168 658.28,-125.89 1078.67,-137.39 1136,-132 1148.28,-130.85 1161.64,-129.35 1173.69,-127.9"/>
<polygon fill="midnightblue" stroke="midnightblue" points="1174.38,-131.34 1183.88,-126.66 1173.53,-124.4 1174.38,-131.34"/>
</g>
<!-- Node109&#45;&gt;Node21 -->
<g id="edge178" class="edge">
<title>Node109&#45;&gt;Node21</title>
<path fill="none" stroke="midnightblue" d="M3256.5,-448.39C3368.77,-408.95 3828.77,-247.17 3831,-244 3850.48,-216.4 3852.27,-194.24 3831,-168 3784.37,-110.46 3739.93,-146.62 3662.03,-131.91"/>
<polygon fill="midnightblue" stroke="midnightblue" points="3662.36,-128.4 3651.85,-129.73 3660.89,-135.25 3662.36,-128.4"/>
</g>
<!-- Node109&#45;&gt;Node23 -->
<g id="edge169" class="edge">
<title>Node109&#45;&gt;Node23</title>
<path fill="none" stroke="midnightblue" d="M3285.12,-457.41C3507.11,-458.46 4349,-455.27 4349,-347 4349,-347 4349,-347 4349,-233 4349,-174.73 3927.3,-138.3 3772.29,-126.88"/>
<polygon fill="midnightblue" stroke="midnightblue" points="3772.26,-123.37 3762.03,-126.13 3771.75,-130.35 3772.26,-123.37"/>
</g>
<!-- Node109&#45;&gt;Node25 -->
<g id="edge172" class="edge">
<title>Node109&#45;&gt;Node25</title>
<path fill="none" stroke="midnightblue" d="M3216.3,-448.5C3157.29,-416.38 2943.6,-298.65 2776,-188 2750.94,-171.45 2722.94,-151.17 2704.7,-137.71"/>
<polygon fill="midnightblue" stroke="midnightblue" points="2706.71,-134.84 2696.59,-131.69 2702.54,-140.46 2706.71,-134.84"/>
</g>
<!-- Node109&#45;&gt;Node26 -->
<g id="edge181" class="edge">
<title>Node109&#45;&gt;Node26</title>
<path fill="none" stroke="midnightblue" d="M3285.23,-456.21C3467.42,-453.24 4065.28,-441.47 4255,-412 4406.07,-388.54 4577,-443.88 4577,-291 4577,-291 4577,-291 4577,-177 4577,-127.3 4531.8,-131.3 4486,-112 4412.64,-81.09 4318.51,-71.4 4268.97,-68.37"/>
<polygon fill="midnightblue" stroke="midnightblue" points="4268.99,-64.87 4258.82,-67.81 4268.61,-71.86 4268.99,-64.87"/>
</g>
<!-- Node109&#45;&gt;Node36 -->
<g id="edge171" class="edge">
<title>Node109&#45;&gt;Node36</title>
<path fill="none" stroke="midnightblue" d="M3224.02,-448.26C3198.46,-420.63 3115.45,-333.87 3033,-280 3012.62,-266.69 2987.66,-255.29 2968.03,-247.29"/>
<polygon fill="midnightblue" stroke="midnightblue" points="2969.17,-243.98 2958.58,-243.54 2966.59,-250.49 2969.17,-243.98"/>
</g>
<!-- Node109&#45;&gt;Node37 -->
<g id="edge170" class="edge">
<title>Node109&#45;&gt;Node37</title>
<path fill="none" stroke="midnightblue" d="M3231.07,-448.47C3229.22,-426.87 3227.42,-369.33 3256,-336 3333.89,-245.18 3440.36,-342 3509,-244 3527.9,-217.01 3489.37,-199.85 3451.92,-189.98"/>
<polygon fill="midnightblue" stroke="midnightblue" points="3452.49,-186.51 3441.94,-187.5 3450.81,-193.31 3452.49,-186.51"/>
</g>
<!-- Node109&#45;&gt;Node40 -->
<g id="edge180" class="edge">
<title>Node109&#45;&gt;Node40</title>
<path fill="none" stroke="midnightblue" d="M3178.9,-455.41C3058.08,-450.35 2773,-429.66 2773,-347 2773,-347 2773,-347 2773,-289 2773,-235.12 2708,-203.49 2666.89,-188.88"/>
<polygon fill="midnightblue" stroke="midnightblue" points="2667.86,-185.51 2657.27,-185.61 2665.61,-192.14 2667.86,-185.51"/>
</g>
<!-- Node109&#45;&gt;Node44 -->
<g id="edge183" class="edge">
<title>Node109&#45;&gt;Node44</title>
<path fill="none" stroke="midnightblue" d="M3178.9,-453.97C3091.13,-448.51 2910.43,-435.35 2759,-412 2677.87,-399.49 2106.83,-273.47 1964.88,-242.06"/>
<polygon fill="midnightblue" stroke="midnightblue" points="1965.57,-238.63 1955.05,-239.89 1964.05,-245.46 1965.57,-238.63"/>
</g>
<!-- Node109&#45;&gt;Node80 -->
<g id="edge174" class="edge">
<title>Node109&#45;&gt;Node80</title>
<path fill="none" stroke="midnightblue" d="M3268.21,-448.42C3385.73,-420.6 3756.37,-332.83 3886.93,-301.91"/>
<polygon fill="midnightblue" stroke="midnightblue" points="3888.08,-305.23 3897,-299.52 3886.47,-298.42 3888.08,-305.23"/>
</g>
<!-- Node109&#45;&gt;Node79 -->
<g id="edge175" class="edge">
<title>Node109&#45;&gt;Node79</title>
<path fill="none" stroke="midnightblue" d="M3285.2,-453.48C3460.69,-441.48 4013.86,-400.46 4080,-356 4116.26,-331.63 4134.82,-280.78 4142.52,-253.4"/>
<polygon fill="midnightblue" stroke="midnightblue" points="4145.96,-254.12 4145.11,-243.55 4139.19,-252.34 4145.96,-254.12"/>
</g>
<!-- Node109&#45;&gt;Node88 -->
<g id="edge173" class="edge">
<title>Node109&#45;&gt;Node88</title>
<path fill="none" stroke="midnightblue" d="M3285.07,-453.33C3425.72,-443.61 3807.32,-417.22 3954.24,-407.06"/>
<polygon fill="midnightblue" stroke="midnightblue" points="3954.67,-410.54 3964.41,-406.36 3954.19,-403.56 3954.67,-410.54"/>
</g>
<!-- Node73&#45;&gt;Node9 -->
<g id="edge195" class="edge">
<title>Node73&#45;&gt;Node9</title>
<path fill="none" stroke="midnightblue" d="M2516.51,-289.08C2640.03,-288.44 2916.76,-282.58 3002,-244 3034.64,-229.22 3046,-220.98 3060,-188 3067.43,-170.5 3054.37,-151.6 3041.95,-138.72"/>
<polygon fill="midnightblue" stroke="midnightblue" points="3044.12,-135.95 3034.49,-131.54 3039.27,-140.99 3044.12,-135.95"/>
</g>
<!-- Node73&#45;&gt;Node10 -->
<g id="edge194" class="edge">
<title>Node73&#45;&gt;Node10</title>
<path fill="none" stroke="midnightblue" d="M2453.76,-280.45C2448.26,-260.2 2433.01,-207.97 2412,-168 2395.23,-136.1 2369.61,-102.74 2353.88,-83.47"/>
<polygon fill="midnightblue" stroke="midnightblue" points="2356.49,-81.13 2347.42,-75.66 2351.1,-85.59 2356.49,-81.13"/>
</g>
<!-- Node73&#45;&gt;Node15 -->
<g id="edge200" class="edge">
<title>Node73&#45;&gt;Node15</title>
<path fill="none" stroke="midnightblue" d="M2395.27,-287.94C2123.08,-283.12 1025.64,-262.58 955,-244 936.54,-239.14 935.21,-229.71 917,-224 793.08,-185.12 750.86,-227.09 627,-188 545.11,-162.15 458.05,-107.2 419.46,-81.2"/>
<polygon fill="midnightblue" stroke="midnightblue" points="421.37,-78.27 411.14,-75.53 417.44,-84.05 421.37,-78.27"/>
</g>
<!-- Node73&#45;&gt;Node16 -->
<g id="edge204" class="edge">
<title>Node73&#45;&gt;Node16</title>
<path fill="none" stroke="midnightblue" d="M2395.33,-288.5C2181.03,-286.47 1460.31,-277.26 1232,-244 1207.36,-240.41 1030.25,-207.69 1015,-188 1004.74,-174.76 996.18,-136.21 1019,-112 1059.48,-69.07 1239.47,-65.49 1321.73,-66.18"/>
<polygon fill="midnightblue" stroke="midnightblue" points="1321.93,-69.68 1331.97,-66.29 1322,-62.68 1321.93,-69.68"/>
</g>
<!-- Node73&#45;&gt;Node19 -->
<g id="edge205" class="edge">
<title>Node73&#45;&gt;Node19</title>
<path fill="none" stroke="midnightblue" d="M2415.41,-280.48C2382.31,-272.86 2334.71,-260.38 2295,-244 2183.9,-198.17 2167.95,-162.73 2059,-112 2029.39,-98.21 1994.28,-85.34 1969.91,-76.92"/>
<polygon fill="midnightblue" stroke="midnightblue" points="1970.76,-73.52 1960.16,-73.6 1968.5,-80.14 1970.76,-73.52"/>
</g>
<!-- Node73&#45;&gt;Node20 -->
<g id="edge198" class="edge">
<title>Node73&#45;&gt;Node20</title>
<path fill="none" stroke="midnightblue" d="M2395.3,-287.03C2128.38,-278.07 1070.09,-239.41 1023,-188 1017,-181.45 1017.49,-174.98 1023,-168 1032.38,-156.12 1121.56,-138.77 1174,-129.47"/>
<polygon fill="midnightblue" stroke="midnightblue" points="1174.71,-132.89 1183.96,-127.72 1173.5,-126 1174.71,-132.89"/>
</g>
<!-- Node73&#45;&gt;Node21 -->
<g id="edge199" class="edge">
<title>Node73&#45;&gt;Node21</title>
<path fill="none" stroke="midnightblue" d="M2516.71,-287.34C2733.89,-281.27 3461.81,-259.84 3509,-244 3550.49,-230.07 3560.43,-220.27 3590,-188 3602.72,-174.11 3612.9,-155.1 3619.34,-141.22"/>
<polygon fill="midnightblue" stroke="midnightblue" points="3622.67,-142.35 3623.51,-131.79 3616.27,-139.52 3622.67,-142.35"/>
</g>
<!-- Node73&#45;&gt;Node24 -->
<g id="edge192" class="edge">
<title>Node73&#45;&gt;Node24</title>
<path fill="none" stroke="midnightblue" d="M2395.33,-284.11C2293.41,-275.9 2081.36,-258.76 1902,-244 1890.13,-243.02 1877.53,-241.98 1865.29,-240.96"/>
<polygon fill="midnightblue" stroke="midnightblue" points="1865.37,-237.46 1855.11,-240.12 1864.79,-244.43 1865.37,-237.46"/>
</g>
<!-- Node73&#45;&gt;Node26 -->
<g id="edge203" class="edge">
<title>Node73&#45;&gt;Node26</title>
<path fill="none" stroke="midnightblue" d="M2516.89,-288.16C2772.18,-284.47 3749.34,-268.85 3885,-244 4035.69,-216.39 4101.44,-239.09 4211,-132 4223.49,-119.79 4229.53,-100.52 4232.42,-86.13"/>
<polygon fill="midnightblue" stroke="midnightblue" points="4235.94,-86.3 4234.13,-75.86 4229.04,-85.15 4235.94,-86.3"/>
</g>
<!-- Node73&#45;&gt;Node28 -->
<g id="edge196" class="edge">
<title>Node73&#45;&gt;Node28</title>
<path fill="none" stroke="midnightblue" d="M2395.25,-287.99C2243.47,-285.02 1850.8,-274.54 1724,-244 1677.66,-232.84 1627.6,-208.11 1598.91,-192.57"/>
<polygon fill="midnightblue" stroke="midnightblue" points="1600.48,-189.45 1590.04,-187.69 1597.11,-195.58 1600.48,-189.45"/>
</g>
<!-- Node73&#45;&gt;Node31 -->
<g id="edge197" class="edge">
<title>Node73&#45;&gt;Node31</title>
<path fill="none" stroke="midnightblue" d="M2446.9,-280.37C2427.42,-261.89 2381.44,-218.29 2356.6,-194.74"/>
<polygon fill="midnightblue" stroke="midnightblue" points="2358.72,-191.93 2349.06,-187.59 2353.91,-197.01 2358.72,-191.93"/>
</g>
<!-- Node73&#45;&gt;Node32 -->
<g id="edge202" class="edge">
<title>Node73&#45;&gt;Node32</title>
<path fill="none" stroke="midnightblue" d="M2416.35,-280.45C2371.35,-268.39 2300.04,-241.58 2268,-188 2259.27,-173.39 2265.76,-154.22 2272.92,-140.5"/>
<polygon fill="midnightblue" stroke="midnightblue" points="2276.08,-142.02 2278.04,-131.6 2270.02,-138.52 2276.08,-142.02"/>
</g>
<!-- Node73&#45;&gt;Node37 -->
<g id="edge191" class="edge">
<title>Node73&#45;&gt;Node37</title>
<path fill="none" stroke="midnightblue" d="M2516.55,-288.33C2676.55,-286.11 3107.74,-277.16 3246,-244 3292.09,-232.95 3341.79,-208.18 3370.27,-192.61"/>
<polygon fill="midnightblue" stroke="midnightblue" points="3372.04,-195.63 3379.08,-187.72 3368.64,-189.52 3372.04,-195.63"/>
</g>
<!-- Node73&#45;&gt;Node40 -->
<g id="edge201" class="edge">
<title>Node73&#45;&gt;Node40</title>
<path fill="none" stroke="midnightblue" d="M2469.97,-280.37C2500.64,-261.41 2574.13,-216 2611.44,-192.94"/>
<polygon fill="midnightblue" stroke="midnightblue" points="2613.43,-195.83 2620.1,-187.59 2609.75,-189.87 2613.43,-195.83"/>
</g>
<!-- Node73&#45;&gt;Node74 -->
<g id="edge193" class="edge">
<title>Node73&#45;&gt;Node74</title>
<path fill="none" stroke="midnightblue" d="M2516.52,-285.8C2653.29,-278.56 2996.72,-260.26 3284,-244 3309.92,-242.53 3338.3,-240.88 3363.51,-239.39"/>
<polygon fill="midnightblue" stroke="midnightblue" points="3363.95,-242.87 3373.73,-238.79 3363.54,-235.88 3363.95,-242.87"/>
</g>
</g>
</svg>
