<?xml version="1.0" encoding="UTF-8" standalone="no"?>
<!DOCTYPE svg PUBLIC "-//W3C//DTD SVG 1.1//EN"
 "http://www.w3.org/Graphics/SVG/1.1/DTD/svg11.dtd">
<!-- Generated by graphviz version 2.43.0 (0)
 -->
<!-- Title: include/llvm/ADT/PriorityQueue.h Pages: 1 -->
<svg width="525pt" height="106pt"
 viewBox="0.00 0.00 525.00 106.00" xmlns="http://www.w3.org/2000/svg" xmlns:xlink="http://www.w3.org/1999/xlink">
<g id="graph0" class="graph" transform="scale(1 1) rotate(0) translate(4 102)">
<title>include/llvm/ADT/PriorityQueue.h</title>
<!-- Node3 -->
<g id="node1" class="node">
<title>Node3</title>
<polygon fill="#bfbfbf" stroke="black" points="209,-67.5 209,-97.5 334,-97.5 334,-67.5 209,-67.5"/>
<text text-anchor="start" x="217" y="-85.5" font-family="Helvetica,sans-Serif" font-size="10.00">include/llvm/ADT/Priority</text>
<text text-anchor="middle" x="271.5" y="-74.5" font-family="Helvetica,sans-Serif" font-size="10.00">Queue.h</text>
</g>
<!-- Node4 -->
<g id="node2" class="node">
<title>Node4</title>
<g id="a_node2"><a xlink:href="MachinePipeliner_8cpp.html" target="_top" xlink:title="lib/CodeGen/MachinePipeliner.cpp">
<polygon fill="none" stroke="black" points="0,-6 0,-25 167,-25 167,-6 0,-6"/>
<text text-anchor="middle" x="83.5" y="-13" font-family="Helvetica,sans-Serif" font-size="10.00">lib/CodeGen/MachinePipeliner.cpp</text>
</a>
</g>
</g>
<!-- Node3&#45;&gt;Node4 -->
<g id="edge1" class="edge">
<title>Node3&#45;&gt;Node4</title>
<path fill="none" stroke="midnightblue" d="M221.2,-64.11C184.62,-51.46 136.7,-34.89 108.1,-25.01"/>
<polygon fill="midnightblue" stroke="midnightblue" points="220.11,-67.44 230.71,-67.4 222.4,-60.82 220.11,-67.44"/>
</g>
<!-- Node5 -->
<g id="node3" class="node">
<title>Node5</title>
<g id="a_node3"><a xlink:href="MachineScheduler_8cpp.html" target="_top" xlink:title="lib/CodeGen/MachineScheduler.cpp">
<polygon fill="none" stroke="black" points="185,-6 185,-25 358,-25 358,-6 185,-6"/>
<text text-anchor="middle" x="271.5" y="-13" font-family="Helvetica,sans-Serif" font-size="10.00">lib/CodeGen/MachineScheduler.cpp</text>
</a>
</g>
</g>
<!-- Node3&#45;&gt;Node5 -->
<g id="edge2" class="edge">
<title>Node3&#45;&gt;Node5</title>
<path fill="none" stroke="midnightblue" d="M271.5,-57.25C271.5,-46.02 271.5,-33.38 271.5,-25.19"/>
<polygon fill="midnightblue" stroke="midnightblue" points="268,-57.4 271.5,-67.4 275,-57.4 268,-57.4"/>
</g>
<!-- Node6 -->
<g id="node4" class="node">
<title>Node6</title>
<g id="a_node4"><a xlink:href="WebAssemblyCFGSort_8cpp.html" target="_top" xlink:title="This file implements a CFG sorting pass. ">
<polygon fill="none" stroke="black" points="376,-0.5 376,-30.5 517,-30.5 517,-0.5 376,-0.5"/>
<text text-anchor="start" x="384" y="-18.5" font-family="Helvetica,sans-Serif" font-size="10.00">lib/Target/WebAssembly</text>
<text text-anchor="middle" x="446.5" y="-7.5" font-family="Helvetica,sans-Serif" font-size="10.00">/WebAssemblyCFGSort.cpp</text>
</a>
</g>
</g>
<!-- Node3&#45;&gt;Node6 -->
<g id="edge3" class="edge">
<title>Node3&#45;&gt;Node6</title>
<path fill="none" stroke="midnightblue" d="M319.1,-63.82C347.23,-53.37 382.36,-40.32 408.6,-30.58"/>
<polygon fill="midnightblue" stroke="midnightblue" points="317.63,-60.63 309.47,-67.4 320.07,-67.2 317.63,-60.63"/>
</g>
</g>
</svg>
