<?xml version="1.0" encoding="UTF-8" standalone="no"?>
<!DOCTYPE svg PUBLIC "-//W3C//DTD SVG 1.1//EN"
 "http://www.w3.org/Graphics/SVG/1.1/DTD/svg11.dtd">
<!-- Generated by graphviz version 2.43.0 (0)
 -->
<!-- Title: include/llvm/Support/Process.h Pages: 1 -->
<svg width="3404pt" height="385pt"
 viewBox="0.00 0.00 3404.00 385.00" xmlns="http://www.w3.org/2000/svg" xmlns:xlink="http://www.w3.org/1999/xlink">
<g id="graph0" class="graph" transform="scale(1 1) rotate(0) translate(4 381)">
<title>include/llvm/Support/Process.h</title>
<!-- Node67 -->
<g id="node1" class="node">
<title>Node67</title>
<polygon fill="#bfbfbf" stroke="black" points="1880,-346.5 1880,-376.5 1985,-376.5 1985,-346.5 1880,-346.5"/>
<text text-anchor="start" x="1888" y="-364.5" font-family="Helvetica,sans-Serif" font-size="10.00">include/llvm/Support</text>
<text text-anchor="middle" x="1932.5" y="-353.5" font-family="Helvetica,sans-Serif" font-size="10.00">/Process.h</text>
</g>
<!-- Node68 -->
<g id="node2" class="node">
<title>Node68</title>
<g id="a_node2"><a xlink:href="IndirectionUtils_8h.html" target="_top" xlink:title="include/llvm/ExecutionEngine\l/Orc/IndirectionUtils.h">
<polygon fill="none" stroke="black" points="358,-274 358,-304 503,-304 503,-274 358,-274"/>
<text text-anchor="start" x="366" y="-292" font-family="Helvetica,sans-Serif" font-size="10.00">include/llvm/ExecutionEngine</text>
<text text-anchor="middle" x="430.5" y="-281" font-family="Helvetica,sans-Serif" font-size="10.00">/Orc/IndirectionUtils.h</text>
</a>
</g>
</g>
<!-- Node67&#45;&gt;Node68 -->
<g id="edge1" class="edge">
<title>Node67&#45;&gt;Node68</title>
<path fill="none" stroke="midnightblue" d="M1869.6,-359.99C1630.68,-357.79 779.5,-347.44 511.5,-310 501.31,-308.58 490.55,-306.41 480.31,-304.01"/>
<polygon fill="midnightblue" stroke="midnightblue" points="1869.81,-363.49 1879.84,-360.08 1869.87,-356.49 1869.81,-363.49"/>
</g>
<!-- Node79 -->
<g id="node13" class="node">
<title>Node79</title>
<g id="a_node13"><a xlink:href="OrcRemoteTargetServer_8h.html" target="_top" xlink:title="include/llvm/ExecutionEngine\l/Orc/OrcRemoteTargetServer.h">
<polygon fill="none" stroke="black" points="521,-274 521,-304 674,-304 674,-274 521,-274"/>
<text text-anchor="start" x="529" y="-292" font-family="Helvetica,sans-Serif" font-size="10.00">include/llvm/ExecutionEngine</text>
<text text-anchor="middle" x="597.5" y="-281" font-family="Helvetica,sans-Serif" font-size="10.00">/Orc/OrcRemoteTargetServer.h</text>
</a>
</g>
</g>
<!-- Node67&#45;&gt;Node79 -->
<g id="edge13" class="edge">
<title>Node67&#45;&gt;Node79</title>
<path fill="none" stroke="midnightblue" d="M1869.61,-359.55C1649.66,-355.96 915.65,-341.84 682.5,-310 671.99,-308.56 660.87,-306.42 650.26,-304.06"/>
<polygon fill="midnightblue" stroke="midnightblue" points="1869.64,-363.05 1879.69,-359.71 1869.75,-356.05 1869.64,-363.05"/>
</g>
<!-- Node80 -->
<g id="node14" class="node">
<title>Node80</title>
<g id="a_node14"><a xlink:href="LinkAllIR_8h.html" target="_top" xlink:title="include/llvm/LinkAllIR.h">
<polygon fill="none" stroke="black" points="692,-279.5 692,-298.5 811,-298.5 811,-279.5 692,-279.5"/>
<text text-anchor="middle" x="751.5" y="-286.5" font-family="Helvetica,sans-Serif" font-size="10.00">include/llvm/LinkAllIR.h</text>
</a>
</g>
</g>
<!-- Node67&#45;&gt;Node80 -->
<g id="edge14" class="edge">
<title>Node67&#45;&gt;Node80</title>
<path fill="none" stroke="midnightblue" d="M1869.72,-359.64C1665.88,-356.52 1023.89,-344.18 819.5,-310 804.57,-307.5 788.29,-302.79 775.4,-298.56"/>
<polygon fill="midnightblue" stroke="midnightblue" points="1869.9,-363.14 1879.96,-359.79 1870.01,-356.14 1869.9,-363.14"/>
</g>
<!-- Node81 -->
<g id="node15" class="node">
<title>Node81</title>
<g id="a_node15"><a xlink:href="JITLinkMemoryManager_8cpp.html" target="_top" xlink:title="lib/ExecutionEngine\l/JITLink/JITLinkMemoryManager.cpp">
<polygon fill="none" stroke="black" points="829,-274 829,-304 1008,-304 1008,-274 829,-274"/>
<text text-anchor="start" x="837" y="-292" font-family="Helvetica,sans-Serif" font-size="10.00">lib/ExecutionEngine</text>
<text text-anchor="middle" x="918.5" y="-281" font-family="Helvetica,sans-Serif" font-size="10.00">/JITLink/JITLinkMemoryManager.cpp</text>
</a>
</g>
</g>
<!-- Node67&#45;&gt;Node81 -->
<g id="edge15" class="edge">
<title>Node67&#45;&gt;Node81</title>
<path fill="none" stroke="midnightblue" d="M1869.53,-360.19C1720.6,-358.78 1335.24,-351.09 1016.5,-310 1004.7,-308.48 992.2,-306.34 980.22,-304.02"/>
<polygon fill="midnightblue" stroke="midnightblue" points="1869.81,-363.7 1879.84,-360.28 1869.88,-356.7 1869.81,-363.7"/>
</g>
<!-- Node82 -->
<g id="node16" class="node">
<title>Node82</title>
<g id="a_node16"><a xlink:href="OrcABISupport_8cpp.html" target="_top" xlink:title="lib/ExecutionEngine\l/Orc/OrcABISupport.cpp">
<polygon fill="none" stroke="black" points="1026,-274 1026,-304 1149,-304 1149,-274 1026,-274"/>
<text text-anchor="start" x="1034" y="-292" font-family="Helvetica,sans-Serif" font-size="10.00">lib/ExecutionEngine</text>
<text text-anchor="middle" x="1087.5" y="-281" font-family="Helvetica,sans-Serif" font-size="10.00">/Orc/OrcABISupport.cpp</text>
</a>
</g>
</g>
<!-- Node67&#45;&gt;Node82 -->
<g id="edge16" class="edge">
<title>Node67&#45;&gt;Node82</title>
<path fill="none" stroke="midnightblue" d="M1869.52,-360.92C1736.81,-360.82 1419.11,-355.36 1157.5,-310 1148.91,-308.51 1139.86,-306.37 1131.23,-304.04"/>
<polygon fill="midnightblue" stroke="midnightblue" points="1869.89,-364.42 1879.89,-360.92 1869.89,-357.42 1869.89,-364.42"/>
</g>
<!-- Node83 -->
<g id="node17" class="node">
<title>Node83</title>
<g id="a_node17"><a xlink:href="PerfJITEventListener_8cpp.html" target="_top" xlink:title="lib/ExecutionEngine\l/PerfJITEvents/PerfJITEvent\lListener.cpp">
<polygon fill="none" stroke="black" points="1167,-268.5 1167,-309.5 1310,-309.5 1310,-268.5 1167,-268.5"/>
<text text-anchor="start" x="1175" y="-297.5" font-family="Helvetica,sans-Serif" font-size="10.00">lib/ExecutionEngine</text>
<text text-anchor="start" x="1175" y="-286.5" font-family="Helvetica,sans-Serif" font-size="10.00">/PerfJITEvents/PerfJITEvent</text>
<text text-anchor="middle" x="1238.5" y="-275.5" font-family="Helvetica,sans-Serif" font-size="10.00">Listener.cpp</text>
</a>
</g>
</g>
<!-- Node67&#45;&gt;Node83 -->
<g id="edge17" class="edge">
<title>Node67&#45;&gt;Node83</title>
<path fill="none" stroke="midnightblue" d="M1869.61,-358.63C1758.12,-354.59 1518.78,-342.6 1319.5,-310 1316.5,-309.51 1313.44,-308.96 1310.37,-308.38"/>
<polygon fill="midnightblue" stroke="midnightblue" points="1869.56,-362.13 1879.68,-358.99 1869.81,-355.14 1869.56,-362.13"/>
</g>
<!-- Node84 -->
<g id="node18" class="node">
<title>Node84</title>
<g id="a_node18"><a xlink:href="SectionMemoryManager_8cpp.html" target="_top" xlink:title="lib/ExecutionEngine\l/SectionMemoryManager.cpp">
<polygon fill="none" stroke="black" points="1328.5,-274 1328.5,-304 1472.5,-304 1472.5,-274 1328.5,-274"/>
<text text-anchor="start" x="1336.5" y="-292" font-family="Helvetica,sans-Serif" font-size="10.00">lib/ExecutionEngine</text>
<text text-anchor="middle" x="1400.5" y="-281" font-family="Helvetica,sans-Serif" font-size="10.00">/SectionMemoryManager.cpp</text>
</a>
</g>
</g>
<!-- Node67&#45;&gt;Node84 -->
<g id="edge18" class="edge">
<title>Node67&#45;&gt;Node84</title>
<path fill="none" stroke="midnightblue" d="M1869.73,-356.07C1782.25,-349.32 1618.96,-334.56 1481.5,-310 1472.23,-308.34 1462.45,-306.24 1453.01,-304.02"/>
<polygon fill="midnightblue" stroke="midnightblue" points="1869.52,-359.57 1879.75,-356.84 1870.05,-352.59 1869.52,-359.57"/>
</g>
<!-- Node85 -->
<g id="node19" class="node">
<title>Node85</title>
<g id="a_node19"><a xlink:href="Caching_8cpp.html" target="_top" xlink:title="lib/LTO/Caching.cpp">
<polygon fill="none" stroke="black" points="1490.5,-279.5 1490.5,-298.5 1596.5,-298.5 1596.5,-279.5 1490.5,-279.5"/>
<text text-anchor="middle" x="1543.5" y="-286.5" font-family="Helvetica,sans-Serif" font-size="10.00">lib/LTO/Caching.cpp</text>
</a>
</g>
</g>
<!-- Node67&#45;&gt;Node85 -->
<g id="edge19" class="edge">
<title>Node67&#45;&gt;Node85</title>
<path fill="none" stroke="midnightblue" d="M1869.63,-353.8C1803.36,-346.03 1696.23,-331.5 1605.5,-310 1592.62,-306.95 1578.57,-302.51 1567.1,-298.59"/>
<polygon fill="midnightblue" stroke="midnightblue" points="1869.57,-357.31 1879.9,-354.98 1870.37,-350.36 1869.57,-357.31"/>
</g>
<!-- Node86 -->
<g id="node20" class="node">
<title>Node86</title>
<g id="a_node20"><a xlink:href="CommandLine_8cpp.html" target="_top" xlink:title="lib/Support/CommandLine.cpp">
<polygon fill="none" stroke="black" points="1614.5,-279.5 1614.5,-298.5 1762.5,-298.5 1762.5,-279.5 1614.5,-279.5"/>
<text text-anchor="middle" x="1688.5" y="-286.5" font-family="Helvetica,sans-Serif" font-size="10.00">lib/Support/CommandLine.cpp</text>
</a>
</g>
</g>
<!-- Node67&#45;&gt;Node86 -->
<g id="edge20" class="edge">
<title>Node67&#45;&gt;Node86</title>
<path fill="none" stroke="midnightblue" d="M1874.13,-343.64C1824.97,-329.43 1756.68,-309.7 1718.11,-298.55"/>
<polygon fill="midnightblue" stroke="midnightblue" points="1873.42,-347.07 1884,-346.49 1875.37,-340.35 1873.42,-347.07"/>
</g>
<!-- Node87 -->
<g id="node21" class="node">
<title>Node87</title>
<g id="a_node21"><a xlink:href="ErrorHandling_8cpp.html" target="_top" xlink:title="lib/Support/ErrorHandling.cpp">
<polygon fill="none" stroke="black" points="1780.5,-279.5 1780.5,-298.5 1924.5,-298.5 1924.5,-279.5 1780.5,-279.5"/>
<text text-anchor="middle" x="1852.5" y="-286.5" font-family="Helvetica,sans-Serif" font-size="10.00">lib/Support/ErrorHandling.cpp</text>
</a>
</g>
</g>
<!-- Node67&#45;&gt;Node87 -->
<g id="edge21" class="edge">
<title>Node67&#45;&gt;Node87</title>
<path fill="none" stroke="midnightblue" d="M1908.68,-339.51C1893.31,-325.96 1874.1,-309.03 1862.59,-298.89"/>
<polygon fill="midnightblue" stroke="midnightblue" points="1906.49,-342.25 1916.31,-346.23 1911.12,-337 1906.49,-342.25"/>
</g>
<!-- Node88 -->
<g id="node22" class="node">
<title>Node88</title>
<g id="a_node22"><a xlink:href="FileCollector_8cpp.html" target="_top" xlink:title="lib/Support/FileCollector.cpp">
<polygon fill="none" stroke="black" points="1942.5,-279.5 1942.5,-298.5 2082.5,-298.5 2082.5,-279.5 1942.5,-279.5"/>
<text text-anchor="middle" x="2012.5" y="-286.5" font-family="Helvetica,sans-Serif" font-size="10.00">lib/Support/FileCollector.cpp</text>
</a>
</g>
</g>
<!-- Node67&#45;&gt;Node88 -->
<g id="edge22" class="edge">
<title>Node67&#45;&gt;Node88</title>
<path fill="none" stroke="midnightblue" d="M1956.32,-339.51C1971.69,-325.96 1990.9,-309.03 2002.41,-298.89"/>
<polygon fill="midnightblue" stroke="midnightblue" points="1953.88,-337 1948.69,-346.23 1958.51,-342.25 1953.88,-337"/>
</g>
<!-- Node89 -->
<g id="node23" class="node">
<title>Node89</title>
<g id="a_node23"><a xlink:href="InitLLVM_8cpp.html" target="_top" xlink:title="lib/Support/InitLLVM.cpp">
<polygon fill="none" stroke="black" points="2100.5,-279.5 2100.5,-298.5 2224.5,-298.5 2224.5,-279.5 2100.5,-279.5"/>
<text text-anchor="middle" x="2162.5" y="-286.5" font-family="Helvetica,sans-Serif" font-size="10.00">lib/Support/InitLLVM.cpp</text>
</a>
</g>
</g>
<!-- Node67&#45;&gt;Node89 -->
<g id="edge23" class="edge">
<title>Node67&#45;&gt;Node89</title>
<path fill="none" stroke="midnightblue" d="M1987.81,-343.55C2034.13,-329.35 2098.31,-309.68 2134.59,-298.55"/>
<polygon fill="midnightblue" stroke="midnightblue" points="1986.75,-340.21 1978.22,-346.49 1988.8,-346.9 1986.75,-340.21"/>
</g>
<!-- Node90 -->
<g id="node24" class="node">
<title>Node90</title>
<g id="a_node24"><a xlink:href="Unix_2Memory_8inc.html" target="_top" xlink:title="lib/Support/Unix/Memory.inc">
<polygon fill="none" stroke="black" points="2242.5,-279.5 2242.5,-298.5 2382.5,-298.5 2382.5,-279.5 2242.5,-279.5"/>
<text text-anchor="middle" x="2312.5" y="-286.5" font-family="Helvetica,sans-Serif" font-size="10.00">lib/Support/Unix/Memory.inc</text>
</a>
</g>
</g>
<!-- Node67&#45;&gt;Node90 -->
<g id="edge24" class="edge">
<title>Node67&#45;&gt;Node90</title>
<path fill="none" stroke="midnightblue" d="M1995.47,-351.47C2056.56,-342.34 2151.76,-327.17 2233.5,-310 2249.28,-306.68 2266.68,-302.35 2281.11,-298.57"/>
<polygon fill="midnightblue" stroke="midnightblue" points="1994.59,-348.06 1985.22,-352.99 1995.62,-354.98 1994.59,-348.06"/>
</g>
<!-- Node92 -->
<g id="node26" class="node">
<title>Node92</title>
<g id="a_node26"><a xlink:href="MemoryBuffer_8cpp.html" target="_top" xlink:title="lib/Support/MemoryBuffer.cpp">
<polygon fill="none" stroke="black" points="2400.5,-279.5 2400.5,-298.5 2546.5,-298.5 2546.5,-279.5 2400.5,-279.5"/>
<text text-anchor="middle" x="2473.5" y="-286.5" font-family="Helvetica,sans-Serif" font-size="10.00">lib/Support/MemoryBuffer.cpp</text>
</a>
</g>
</g>
<!-- Node67&#45;&gt;Node92 -->
<g id="edge26" class="edge">
<title>Node67&#45;&gt;Node92</title>
<path fill="none" stroke="midnightblue" d="M1995.3,-356.18C2084.04,-349.5 2251,-334.76 2391.5,-310 2408.53,-307 2427.28,-302.52 2442.55,-298.55"/>
<polygon fill="midnightblue" stroke="midnightblue" points="1994.84,-352.71 1985.13,-356.94 1995.36,-359.69 1994.84,-352.71"/>
</g>
<!-- Node93 -->
<g id="node27" class="node">
<title>Node93</title>
<g id="a_node27"><a xlink:href="Path_8cpp.html" target="_top" xlink:title="lib/Support/Path.cpp">
<polygon fill="none" stroke="black" points="2565,-279.5 2565,-298.5 2670,-298.5 2670,-279.5 2565,-279.5"/>
<text text-anchor="middle" x="2617.5" y="-286.5" font-family="Helvetica,sans-Serif" font-size="10.00">lib/Support/Path.cpp</text>
</a>
</g>
</g>
<!-- Node67&#45;&gt;Node93 -->
<g id="edge27" class="edge">
<title>Node67&#45;&gt;Node93</title>
<path fill="none" stroke="midnightblue" d="M1995.37,-360.18C2108.51,-358.55 2353.48,-350.21 2555.5,-310 2568.92,-307.33 2583.51,-302.71 2595.16,-298.59"/>
<polygon fill="midnightblue" stroke="midnightblue" points="1995.12,-356.68 1985.16,-360.32 1995.21,-363.68 1995.12,-356.68"/>
</g>
<!-- Node94 -->
<g id="node28" class="node">
<title>Node94</title>
<g id="a_node28"><a xlink:href="Process_8cpp.html" target="_top" xlink:title="lib/Support/Process.cpp">
<polygon fill="none" stroke="black" points="2688,-279.5 2688,-298.5 2809,-298.5 2809,-279.5 2688,-279.5"/>
<text text-anchor="middle" x="2748.5" y="-286.5" font-family="Helvetica,sans-Serif" font-size="10.00">lib/Support/Process.cpp</text>
</a>
</g>
</g>
<!-- Node67&#45;&gt;Node94 -->
<g id="edge28" class="edge">
<title>Node67&#45;&gt;Node94</title>
<path fill="none" stroke="midnightblue" d="M1995.13,-360.78C2124.2,-360.37 2428.69,-354.3 2679.5,-310 2694.48,-307.35 2710.86,-302.69 2723.89,-298.53"/>
<polygon fill="midnightblue" stroke="midnightblue" points="1995.03,-357.28 1985.04,-360.8 1995.05,-364.28 1995.03,-357.28"/>
</g>
<!-- Node95 -->
<g id="node29" class="node">
<title>Node95</title>
<g id="a_node29"><a xlink:href="raw__ostream_8cpp.html" target="_top" xlink:title="lib/Support/raw_ostream.cpp">
<polygon fill="none" stroke="black" points="2827,-279.5 2827,-298.5 2968,-298.5 2968,-279.5 2827,-279.5"/>
<text text-anchor="middle" x="2897.5" y="-286.5" font-family="Helvetica,sans-Serif" font-size="10.00">lib/Support/raw_ostream.cpp</text>
</a>
</g>
</g>
<!-- Node67&#45;&gt;Node95 -->
<g id="edge29" class="edge">
<title>Node67&#45;&gt;Node95</title>
<path fill="none" stroke="midnightblue" d="M1995.12,-361.02C2140.6,-361.34 2512.34,-357.04 2818.5,-310 2835.56,-307.38 2854.3,-302.71 2869.25,-298.55"/>
<polygon fill="midnightblue" stroke="midnightblue" points="1995.05,-357.52 1985.04,-360.99 1995.03,-364.52 1995.05,-357.52"/>
</g>
<!-- Node96 -->
<g id="node30" class="node">
<title>Node96</title>
<g id="a_node30"><a xlink:href="Timer_8cpp.html" target="_top" xlink:title="lib/Support/Timer.cpp">
<polygon fill="none" stroke="black" points="2986.5,-279.5 2986.5,-298.5 3096.5,-298.5 3096.5,-279.5 2986.5,-279.5"/>
<text text-anchor="middle" x="3041.5" y="-286.5" font-family="Helvetica,sans-Serif" font-size="10.00">lib/Support/Timer.cpp</text>
</a>
</g>
</g>
<!-- Node67&#45;&gt;Node96 -->
<g id="edge30" class="edge">
<title>Node67&#45;&gt;Node96</title>
<path fill="none" stroke="midnightblue" d="M1995.43,-359.56C2191.11,-356.29 2787.2,-343.76 2977.5,-310 2991.6,-307.5 3006.92,-302.78 3019.04,-298.56"/>
<polygon fill="midnightblue" stroke="midnightblue" points="1995.25,-356.06 1985.31,-359.72 1995.37,-363.06 1995.25,-356.06"/>
</g>
<!-- Node97 -->
<g id="node31" class="node">
<title>Node97</title>
<g id="a_node31"><a xlink:href="VirtualFileSystem_8cpp.html" target="_top" xlink:title="lib/Support/VirtualFileSystem.cpp">
<polygon fill="none" stroke="black" points="3114.5,-279.5 3114.5,-298.5 3276.5,-298.5 3276.5,-279.5 3114.5,-279.5"/>
<text text-anchor="middle" x="3195.5" y="-286.5" font-family="Helvetica,sans-Serif" font-size="10.00">lib/Support/VirtualFileSystem.cpp</text>
</a>
</g>
</g>
<!-- Node67&#45;&gt;Node97 -->
<g id="edge31" class="edge">
<title>Node67&#45;&gt;Node97</title>
<path fill="none" stroke="midnightblue" d="M1995.33,-359.25C2206.25,-354.83 2887.88,-338.64 3105.5,-310 3125.02,-307.43 3146.56,-302.71 3163.67,-298.51"/>
<polygon fill="midnightblue" stroke="midnightblue" points="1994.98,-355.76 1985.06,-359.47 1995.13,-362.76 1994.98,-355.76"/>
</g>
<!-- Node98 -->
<g id="node32" class="node">
<title>Node98</title>
<g id="a_node32"><a xlink:href="LibDriver_8cpp.html" target="_top" xlink:title="lib/ToolDrivers/llvm\l&#45;lib/LibDriver.cpp">
<polygon fill="none" stroke="black" points="3295,-274 3295,-304 3396,-304 3396,-274 3295,-274"/>
<text text-anchor="start" x="3303" y="-292" font-family="Helvetica,sans-Serif" font-size="10.00">lib/ToolDrivers/llvm</text>
<text text-anchor="middle" x="3345.5" y="-281" font-family="Helvetica,sans-Serif" font-size="10.00">&#45;lib/LibDriver.cpp</text>
</a>
</g>
</g>
<!-- Node67&#45;&gt;Node98 -->
<g id="edge32" class="edge">
<title>Node67&#45;&gt;Node98</title>
<path fill="none" stroke="midnightblue" d="M1995.56,-360.52C2227.52,-360.21 3033.09,-355.81 3285.5,-310 3293.17,-308.61 3301.2,-306.45 3308.8,-304.06"/>
<polygon fill="midnightblue" stroke="midnightblue" points="1995.27,-357.02 1985.27,-360.53 1995.27,-364.02 1995.27,-357.02"/>
</g>
<!-- Node69 -->
<g id="node3" class="node">
<title>Node69</title>
<g id="a_node3"><a xlink:href="CompileOnDemandLayer_8h.html" target="_top" xlink:title="include/llvm/ExecutionEngine\l/Orc/CompileOnDemandLayer.h">
<polygon fill="none" stroke="black" points="168.5,-134.5 168.5,-164.5 324.5,-164.5 324.5,-134.5 168.5,-134.5"/>
<text text-anchor="start" x="176.5" y="-152.5" font-family="Helvetica,sans-Serif" font-size="10.00">include/llvm/ExecutionEngine</text>
<text text-anchor="middle" x="246.5" y="-141.5" font-family="Helvetica,sans-Serif" font-size="10.00">/Orc/CompileOnDemandLayer.h</text>
</a>
</g>
</g>
<!-- Node68&#45;&gt;Node69 -->
<g id="edge2" class="edge">
<title>Node68&#45;&gt;Node69</title>
<path fill="none" stroke="midnightblue" d="M347.98,-277.02C318.22,-269.1 286.76,-255.46 265.5,-232 248.62,-213.38 245.88,-182.7 245.87,-164.77"/>
<polygon fill="midnightblue" stroke="midnightblue" points="347.45,-280.5 358,-279.5 349.13,-273.7 347.45,-280.5"/>
</g>
<!-- Node75 -->
<g id="node9" class="node">
<title>Node75</title>
<g id="a_node9"><a xlink:href="LazyReexports_8h.html" target="_top" xlink:title="include/llvm/ExecutionEngine\l/Orc/LazyReexports.h">
<polygon fill="none" stroke="black" points="275,-201.5 275,-231.5 420,-231.5 420,-201.5 275,-201.5"/>
<text text-anchor="start" x="283" y="-219.5" font-family="Helvetica,sans-Serif" font-size="10.00">include/llvm/ExecutionEngine</text>
<text text-anchor="middle" x="347.5" y="-208.5" font-family="Helvetica,sans-Serif" font-size="10.00">/Orc/LazyReexports.h</text>
</a>
</g>
</g>
<!-- Node68&#45;&gt;Node75 -->
<g id="edge8" class="edge">
<title>Node68&#45;&gt;Node75</title>
<path fill="none" stroke="midnightblue" d="M405.73,-266.96C392.24,-255.5 375.92,-241.64 363.99,-231.5"/>
<polygon fill="midnightblue" stroke="midnightblue" points="403.82,-269.93 413.7,-273.73 408.35,-264.59 403.82,-269.93"/>
</g>
<!-- Node77 -->
<g id="node11" class="node">
<title>Node77</title>
<g id="a_node11"><a xlink:href="OrcRemoteTargetClient_8h.html" target="_top" xlink:title="include/llvm/ExecutionEngine\l/Orc/OrcRemoteTargetClient.h">
<polygon fill="none" stroke="black" points="438.5,-201.5 438.5,-231.5 588.5,-231.5 588.5,-201.5 438.5,-201.5"/>
<text text-anchor="start" x="446.5" y="-219.5" font-family="Helvetica,sans-Serif" font-size="10.00">include/llvm/ExecutionEngine</text>
<text text-anchor="middle" x="513.5" y="-208.5" font-family="Helvetica,sans-Serif" font-size="10.00">/Orc/OrcRemoteTargetClient.h</text>
</a>
</g>
</g>
<!-- Node68&#45;&gt;Node77 -->
<g id="edge11" class="edge">
<title>Node68&#45;&gt;Node77</title>
<path fill="none" stroke="midnightblue" d="M455.27,-266.96C468.76,-255.5 485.08,-241.64 497.01,-231.5"/>
<polygon fill="midnightblue" stroke="midnightblue" points="452.65,-264.59 447.3,-273.73 457.18,-269.93 452.65,-264.59"/>
</g>
<!-- Node78 -->
<g id="node12" class="node">
<title>Node78</title>
<g id="a_node12"><a xlink:href="IndirectionUtils_8cpp.html" target="_top" xlink:title="lib/ExecutionEngine\l/Orc/IndirectionUtils.cpp">
<polygon fill="none" stroke="black" points="606.5,-201.5 606.5,-231.5 728.5,-231.5 728.5,-201.5 606.5,-201.5"/>
<text text-anchor="start" x="614.5" y="-219.5" font-family="Helvetica,sans-Serif" font-size="10.00">lib/ExecutionEngine</text>
<text text-anchor="middle" x="667.5" y="-208.5" font-family="Helvetica,sans-Serif" font-size="10.00">/Orc/IndirectionUtils.cpp</text>
</a>
</g>
</g>
<!-- Node68&#45;&gt;Node78 -->
<g id="edge12" class="edge">
<title>Node68&#45;&gt;Node78</title>
<path fill="none" stroke="midnightblue" d="M487.35,-271.09C527.91,-259.02 581.83,-242.98 620.08,-231.61"/>
<polygon fill="midnightblue" stroke="midnightblue" points="486.19,-267.78 477.61,-273.99 488.19,-274.49 486.19,-267.78"/>
</g>
<!-- Node70 -->
<g id="node4" class="node">
<title>Node70</title>
<g id="a_node4"><a xlink:href="LLJIT_8h.html" target="_top" xlink:title="include/llvm/ExecutionEngine\l/Orc/LLJIT.h">
<polygon fill="none" stroke="black" points="0,-67.5 0,-97.5 145,-97.5 145,-67.5 0,-67.5"/>
<text text-anchor="start" x="8" y="-85.5" font-family="Helvetica,sans-Serif" font-size="10.00">include/llvm/ExecutionEngine</text>
<text text-anchor="middle" x="72.5" y="-74.5" font-family="Helvetica,sans-Serif" font-size="10.00">/Orc/LLJIT.h</text>
</a>
</g>
</g>
<!-- Node69&#45;&gt;Node70 -->
<g id="edge3" class="edge">
<title>Node69&#45;&gt;Node70</title>
<path fill="none" stroke="midnightblue" d="M199.17,-130.82C171.2,-120.37 136.27,-107.32 110.18,-97.58"/>
<polygon fill="midnightblue" stroke="midnightblue" points="198.15,-134.18 208.74,-134.4 200.6,-127.62 198.15,-134.18"/>
</g>
<!-- Node72 -->
<g id="node6" class="node">
<title>Node72</title>
<g id="a_node6"><a xlink:href="CompileOnDemandLayer_8cpp.html" target="_top" xlink:title="lib/ExecutionEngine\l/Orc/CompileOnDemandLayer.cpp">
<polygon fill="none" stroke="black" points="163,-67.5 163,-97.5 330,-97.5 330,-67.5 163,-67.5"/>
<text text-anchor="start" x="171" y="-85.5" font-family="Helvetica,sans-Serif" font-size="10.00">lib/ExecutionEngine</text>
<text text-anchor="middle" x="246.5" y="-74.5" font-family="Helvetica,sans-Serif" font-size="10.00">/Orc/CompileOnDemandLayer.cpp</text>
</a>
</g>
</g>
<!-- Node69&#45;&gt;Node72 -->
<g id="edge5" class="edge">
<title>Node69&#45;&gt;Node72</title>
<path fill="none" stroke="midnightblue" d="M246.5,-124.11C246.5,-115.15 246.5,-105.32 246.5,-97.58"/>
<polygon fill="midnightblue" stroke="midnightblue" points="243,-124.4 246.5,-134.4 250,-124.4 243,-124.4"/>
</g>
<!-- Node73 -->
<g id="node7" class="node">
<title>Node73</title>
<g id="a_node7"><a xlink:href="OrcCBindingsStack_8h.html" target="_top" xlink:title="lib/ExecutionEngine\l/Orc/OrcCBindingsStack.h">
<polygon fill="none" stroke="black" points="348,-67.5 348,-97.5 481,-97.5 481,-67.5 348,-67.5"/>
<text text-anchor="start" x="356" y="-85.5" font-family="Helvetica,sans-Serif" font-size="10.00">lib/ExecutionEngine</text>
<text text-anchor="middle" x="414.5" y="-74.5" font-family="Helvetica,sans-Serif" font-size="10.00">/Orc/OrcCBindingsStack.h</text>
</a>
</g>
</g>
<!-- Node69&#45;&gt;Node73 -->
<g id="edge6" class="edge">
<title>Node69&#45;&gt;Node73</title>
<path fill="none" stroke="midnightblue" d="M292.55,-130.68C319.5,-120.26 353.04,-107.28 378.12,-97.58"/>
<polygon fill="midnightblue" stroke="midnightblue" points="291.02,-127.52 282.95,-134.4 293.54,-134.05 291.02,-127.52"/>
</g>
<!-- Node71 -->
<g id="node5" class="node">
<title>Node71</title>
<g id="a_node5"><a xlink:href="LLJIT_8cpp.html" target="_top" xlink:title="lib/ExecutionEngine\l/Orc/LLJIT.cpp">
<polygon fill="none" stroke="black" points="21,-0.5 21,-30.5 124,-30.5 124,-0.5 21,-0.5"/>
<text text-anchor="start" x="29" y="-18.5" font-family="Helvetica,sans-Serif" font-size="10.00">lib/ExecutionEngine</text>
<text text-anchor="middle" x="72.5" y="-7.5" font-family="Helvetica,sans-Serif" font-size="10.00">/Orc/LLJIT.cpp</text>
</a>
</g>
</g>
<!-- Node70&#45;&gt;Node71 -->
<g id="edge4" class="edge">
<title>Node70&#45;&gt;Node71</title>
<path fill="none" stroke="midnightblue" d="M72.5,-57.11C72.5,-48.15 72.5,-38.32 72.5,-30.58"/>
<polygon fill="midnightblue" stroke="midnightblue" points="69,-57.4 72.5,-67.4 76,-57.4 69,-57.4"/>
</g>
<!-- Node74 -->
<g id="node8" class="node">
<title>Node74</title>
<g id="a_node8"><a xlink:href="OrcCBindings_8cpp.html" target="_top" xlink:title="lib/ExecutionEngine\l/Orc/OrcCBindings.cpp">
<polygon fill="none" stroke="black" points="355.5,-0.5 355.5,-30.5 473.5,-30.5 473.5,-0.5 355.5,-0.5"/>
<text text-anchor="start" x="363.5" y="-18.5" font-family="Helvetica,sans-Serif" font-size="10.00">lib/ExecutionEngine</text>
<text text-anchor="middle" x="414.5" y="-7.5" font-family="Helvetica,sans-Serif" font-size="10.00">/Orc/OrcCBindings.cpp</text>
</a>
</g>
</g>
<!-- Node73&#45;&gt;Node74 -->
<g id="edge7" class="edge">
<title>Node73&#45;&gt;Node74</title>
<path fill="none" stroke="midnightblue" d="M414.5,-57.11C414.5,-48.15 414.5,-38.32 414.5,-30.58"/>
<polygon fill="midnightblue" stroke="midnightblue" points="411,-57.4 414.5,-67.4 418,-57.4 411,-57.4"/>
</g>
<!-- Node75&#45;&gt;Node69 -->
<g id="edge9" class="edge">
<title>Node75&#45;&gt;Node69</title>
<path fill="none" stroke="midnightblue" d="M316.79,-195.73C301.16,-185.68 282.53,-173.68 268.37,-164.58"/>
<polygon fill="midnightblue" stroke="midnightblue" points="315.28,-198.93 325.58,-201.4 319.07,-193.04 315.28,-198.93"/>
</g>
<!-- Node76 -->
<g id="node10" class="node">
<title>Node76</title>
<g id="a_node10"><a xlink:href="LazyReexports_8cpp.html" target="_top" xlink:title="lib/ExecutionEngine\l/Orc/LazyReexports.cpp">
<polygon fill="none" stroke="black" points="343,-134.5 343,-164.5 466,-164.5 466,-134.5 343,-134.5"/>
<text text-anchor="start" x="351" y="-152.5" font-family="Helvetica,sans-Serif" font-size="10.00">lib/ExecutionEngine</text>
<text text-anchor="middle" x="404.5" y="-141.5" font-family="Helvetica,sans-Serif" font-size="10.00">/Orc/LazyReexports.cpp</text>
</a>
</g>
</g>
<!-- Node75&#45;&gt;Node76 -->
<g id="edge10" class="edge">
<title>Node75&#45;&gt;Node76</title>
<path fill="none" stroke="midnightblue" d="M366.59,-193.74C375.02,-184.12 384.69,-173.09 392.16,-164.58"/>
<polygon fill="midnightblue" stroke="midnightblue" points="363.83,-191.57 359.87,-201.4 369.09,-196.18 363.83,-191.57"/>
</g>
<!-- Node91 -->
<g id="node25" class="node">
<title>Node91</title>
<g id="a_node25"><a xlink:href="Memory_8cpp.html" target="_top" xlink:title="lib/Support/Memory.cpp">
<polygon fill="none" stroke="black" points="2252.5,-207 2252.5,-226 2372.5,-226 2372.5,-207 2252.5,-207"/>
<text text-anchor="middle" x="2312.5" y="-214" font-family="Helvetica,sans-Serif" font-size="10.00">lib/Support/Memory.cpp</text>
</a>
</g>
</g>
<!-- Node90&#45;&gt;Node91 -->
<g id="edge25" class="edge">
<title>Node90&#45;&gt;Node91</title>
<path fill="none" stroke="midnightblue" d="M2312.5,-268.94C2312.5,-255.03 2312.5,-236.82 2312.5,-226.22"/>
<polygon fill="midnightblue" stroke="midnightblue" points="2309,-269.36 2312.5,-279.36 2316,-269.36 2309,-269.36"/>
</g>
</g>
</svg>
