<?xml version="1.0" encoding="UTF-8" standalone="no"?>
<!DOCTYPE svg PUBLIC "-//W3C//DTD SVG 1.1//EN"
 "http://www.w3.org/Graphics/SVG/1.1/DTD/svg11.dtd">
<!-- Generated by graphviz version 2.43.0 (0)
 -->
<!-- Title: include/llvm/FuzzMutate/RandomIRBuilder.h Pages: 1 -->
<svg width="352pt" height="95pt"
 viewBox="0.00 0.00 352.00 95.00" xmlns="http://www.w3.org/2000/svg" xmlns:xlink="http://www.w3.org/1999/xlink">
<g id="graph0" class="graph" transform="scale(1 1) rotate(0) translate(4 91)">
<title>include/llvm/FuzzMutate/RandomIRBuilder.h</title>
<!-- Node117 -->
<g id="node1" class="node">
<title>Node117</title>
<polygon fill="#bfbfbf" stroke="black" points="101.5,-56.5 101.5,-86.5 224.5,-86.5 224.5,-56.5 101.5,-56.5"/>
<text text-anchor="start" x="109.5" y="-74.5" font-family="Helvetica,sans-Serif" font-size="10.00">include/llvm/FuzzMutate</text>
<text text-anchor="middle" x="163" y="-63.5" font-family="Helvetica,sans-Serif" font-size="10.00">/RandomIRBuilder.h</text>
</g>
<!-- Node118 -->
<g id="node2" class="node">
<title>Node118</title>
<g id="a_node2"><a xlink:href="IRMutator_8cpp.html" target="_top" xlink:title="lib/FuzzMutate/IRMutator.cpp">
<polygon fill="none" stroke="black" points="0,-0.5 0,-19.5 146,-19.5 146,-0.5 0,-0.5"/>
<text text-anchor="middle" x="73" y="-7.5" font-family="Helvetica,sans-Serif" font-size="10.00">lib/FuzzMutate/IRMutator.cpp</text>
</a>
</g>
</g>
<!-- Node117&#45;&gt;Node118 -->
<g id="edge1" class="edge">
<title>Node117&#45;&gt;Node118</title>
<path fill="none" stroke="midnightblue" d="M133.17,-50.78C117.22,-40.23 98.39,-27.78 86.1,-19.66"/>
<polygon fill="midnightblue" stroke="midnightblue" points="131.4,-53.8 141.67,-56.4 135.26,-47.96 131.4,-53.8"/>
</g>
<!-- Node119 -->
<g id="node3" class="node">
<title>Node119</title>
<g id="a_node3"><a xlink:href="RandomIRBuilder_8cpp.html" target="_top" xlink:title="lib/FuzzMutate/RandomIRBuilder.cpp">
<polygon fill="none" stroke="black" points="164,-0.5 164,-19.5 344,-19.5 344,-0.5 164,-0.5"/>
<text text-anchor="middle" x="254" y="-7.5" font-family="Helvetica,sans-Serif" font-size="10.00">lib/FuzzMutate/RandomIRBuilder.cpp</text>
</a>
</g>
</g>
<!-- Node117&#45;&gt;Node119 -->
<g id="edge2" class="edge">
<title>Node117&#45;&gt;Node119</title>
<path fill="none" stroke="midnightblue" d="M193.17,-50.78C209.29,-40.23 228.33,-27.78 240.76,-19.66"/>
<polygon fill="midnightblue" stroke="midnightblue" points="191.02,-48 184.57,-56.4 194.85,-53.86 191.02,-48"/>
</g>
</g>
</svg>
