<?xml version="1.0" encoding="UTF-8" standalone="no"?>
<!DOCTYPE svg PUBLIC "-//W3C//DTD SVG 1.1//EN"
 "http://www.w3.org/Graphics/SVG/1.1/DTD/svg11.dtd">
<!-- Generated by graphviz version 2.43.0 (0)
 -->
<!-- Title: lib/Target/Hexagon/RDFRegisters.h Pages: 1 -->
<svg width="922pt" height="307pt"
 viewBox="0.00 0.00 922.00 307.00" xmlns="http://www.w3.org/2000/svg" xmlns:xlink="http://www.w3.org/1999/xlink">
<g id="graph0" class="graph" transform="scale(1 1) rotate(0) translate(4 303)">
<title>lib/Target/Hexagon/RDFRegisters.h</title>
<!-- Node142 -->
<g id="node1" class="node">
<title>Node142</title>
<polygon fill="#bfbfbf" stroke="black" points="618,-268.5 618,-298.5 717,-298.5 717,-268.5 618,-268.5"/>
<text text-anchor="start" x="626" y="-286.5" font-family="Helvetica,sans-Serif" font-size="10.00">lib/Target/Hexagon</text>
<text text-anchor="middle" x="667.5" y="-275.5" font-family="Helvetica,sans-Serif" font-size="10.00">/RDFRegisters.h</text>
</g>
<!-- Node143 -->
<g id="node2" class="node">
<title>Node143</title>
<g id="a_node2"><a xlink:href="RDFGraph_8h.html" target="_top" xlink:title="lib/Target/Hexagon\l/RDFGraph.h">
<polygon fill="none" stroke="black" points="367,-201.5 367,-231.5 466,-231.5 466,-201.5 367,-201.5"/>
<text text-anchor="start" x="375" y="-219.5" font-family="Helvetica,sans-Serif" font-size="10.00">lib/Target/Hexagon</text>
<text text-anchor="middle" x="416.5" y="-208.5" font-family="Helvetica,sans-Serif" font-size="10.00">/RDFGraph.h</text>
</a>
</g>
</g>
<!-- Node142&#45;&gt;Node143 -->
<g id="edge1" class="edge">
<title>Node142&#45;&gt;Node143</title>
<path fill="none" stroke="midnightblue" d="M608.11,-267.12C564.95,-255.94 507.2,-240.99 466.42,-230.43"/>
<polygon fill="midnightblue" stroke="midnightblue" points="607.35,-270.54 617.91,-269.66 609.11,-263.76 607.35,-270.54"/>
</g>
<!-- Node144 -->
<g id="node3" class="node">
<title>Node144</title>
<g id="a_node3"><a xlink:href="HexagonOptAddrMode_8cpp.html" target="_top" xlink:title="lib/Target/Hexagon\l/HexagonOptAddrMode.cpp">
<polygon fill="none" stroke="black" points="0,-67.5 0,-97.5 137,-97.5 137,-67.5 0,-67.5"/>
<text text-anchor="start" x="8" y="-85.5" font-family="Helvetica,sans-Serif" font-size="10.00">lib/Target/Hexagon</text>
<text text-anchor="middle" x="68.5" y="-74.5" font-family="Helvetica,sans-Serif" font-size="10.00">/HexagonOptAddrMode.cpp</text>
</a>
</g>
</g>
<!-- Node142&#45;&gt;Node144 -->
<g id="edge23" class="edge">
<title>Node142&#45;&gt;Node144</title>
<path fill="none" stroke="midnightblue" d="M607.95,-277.2C479.64,-264.67 182.62,-229.33 107.5,-165 86.77,-147.25 76.2,-115.98 71.56,-97.76"/>
<polygon fill="midnightblue" stroke="midnightblue" points="607.71,-280.69 618,-278.17 608.38,-273.73 607.71,-280.69"/>
</g>
<!-- Node145 -->
<g id="node4" class="node">
<title>Node145</title>
<g id="a_node4"><a xlink:href="RDFLiveness_8h.html" target="_top" xlink:title="lib/Target/Hexagon\l/RDFLiveness.h">
<polygon fill="none" stroke="black" points="270,-134.5 270,-164.5 369,-164.5 369,-134.5 270,-134.5"/>
<text text-anchor="start" x="278" y="-152.5" font-family="Helvetica,sans-Serif" font-size="10.00">lib/Target/Hexagon</text>
<text text-anchor="middle" x="319.5" y="-141.5" font-family="Helvetica,sans-Serif" font-size="10.00">/RDFLiveness.h</text>
</a>
</g>
</g>
<!-- Node142&#45;&gt;Node145 -->
<g id="edge22" class="edge">
<title>Node142&#45;&gt;Node145</title>
<path fill="none" stroke="midnightblue" d="M607.58,-279.32C528.8,-274.06 395.88,-261.06 357.5,-232 335.59,-215.42 325.85,-183.11 321.9,-164.54"/>
<polygon fill="midnightblue" stroke="midnightblue" points="607.64,-282.84 617.85,-279.99 608.09,-275.85 607.64,-282.84"/>
</g>
<!-- Node146 -->
<g id="node5" class="node">
<title>Node146</title>
<g id="a_node5"><a xlink:href="RDFCopy_8h.html" target="_top" xlink:title="lib/Target/Hexagon\l/RDFCopy.h">
<polygon fill="none" stroke="black" points="464,-67.5 464,-97.5 563,-97.5 563,-67.5 464,-67.5"/>
<text text-anchor="start" x="472" y="-85.5" font-family="Helvetica,sans-Serif" font-size="10.00">lib/Target/Hexagon</text>
<text text-anchor="middle" x="513.5" y="-74.5" font-family="Helvetica,sans-Serif" font-size="10.00">/RDFCopy.h</text>
</a>
</g>
</g>
<!-- Node142&#45;&gt;Node146 -->
<g id="edge24" class="edge">
<title>Node142&#45;&gt;Node146</title>
<path fill="none" stroke="midnightblue" d="M671.46,-258.19C675.25,-226.17 676.8,-169.72 648.5,-134 637.43,-120.03 596.85,-105.96 563.05,-96.24"/>
<polygon fill="midnightblue" stroke="midnightblue" points="667.95,-258.05 670.07,-268.43 674.88,-258.99 667.95,-258.05"/>
</g>
<!-- Node147 -->
<g id="node6" class="node">
<title>Node147</title>
<g id="a_node6"><a xlink:href="HexagonRDFOpt_8cpp.html" target="_top" xlink:title="lib/Target/Hexagon\l/HexagonRDFOpt.cpp">
<polygon fill="none" stroke="black" points="340.5,-0.5 340.5,-30.5 454.5,-30.5 454.5,-0.5 340.5,-0.5"/>
<text text-anchor="start" x="348.5" y="-18.5" font-family="Helvetica,sans-Serif" font-size="10.00">lib/Target/Hexagon</text>
<text text-anchor="middle" x="397.5" y="-7.5" font-family="Helvetica,sans-Serif" font-size="10.00">/HexagonRDFOpt.cpp</text>
</a>
</g>
</g>
<!-- Node142&#45;&gt;Node147 -->
<g id="edge25" class="edge">
<title>Node142&#45;&gt;Node147</title>
<path fill="none" stroke="midnightblue" d="M686.09,-260.14C691.88,-251.83 697.53,-241.98 700.5,-232 721.47,-161.56 740.48,-119.94 689.5,-67 673.4,-50.28 534.84,-32.03 454.51,-22.72"/>
<polygon fill="midnightblue" stroke="midnightblue" points="683.27,-258.07 680.11,-268.19 688.89,-262.25 683.27,-258.07"/>
</g>
<!-- Node148 -->
<g id="node7" class="node">
<title>Node148</title>
<g id="a_node7"><a xlink:href="RDFCopy_8cpp.html" target="_top" xlink:title="lib/Target/Hexagon\l/RDFCopy.cpp">
<polygon fill="none" stroke="black" points="585,-0.5 585,-30.5 684,-30.5 684,-0.5 585,-0.5"/>
<text text-anchor="start" x="593" y="-18.5" font-family="Helvetica,sans-Serif" font-size="10.00">lib/Target/Hexagon</text>
<text text-anchor="middle" x="634.5" y="-7.5" font-family="Helvetica,sans-Serif" font-size="10.00">/RDFCopy.cpp</text>
</a>
</g>
</g>
<!-- Node142&#45;&gt;Node148 -->
<g id="edge26" class="edge">
<title>Node142&#45;&gt;Node148</title>
<path fill="none" stroke="midnightblue" d="M721.95,-263.74C735.99,-256.15 749.41,-245.82 757.5,-232 779.51,-194.41 771.61,-175.21 757.5,-134 741.04,-85.95 691.17,-49.42 660.22,-30.63"/>
<polygon fill="midnightblue" stroke="midnightblue" points="720.08,-260.76 712.68,-268.34 723.2,-267.03 720.08,-260.76"/>
</g>
<!-- Node151 -->
<g id="node10" class="node">
<title>Node151</title>
<g id="a_node10"><a xlink:href="RDFLiveness_8cpp.html" target="_top" xlink:title="lib/Target/Hexagon\l/RDFLiveness.cpp">
<polygon fill="none" stroke="black" points="581,-67.5 581,-97.5 680,-97.5 680,-67.5 581,-67.5"/>
<text text-anchor="start" x="589" y="-85.5" font-family="Helvetica,sans-Serif" font-size="10.00">lib/Target/Hexagon</text>
<text text-anchor="middle" x="630.5" y="-74.5" font-family="Helvetica,sans-Serif" font-size="10.00">/RDFLiveness.cpp</text>
</a>
</g>
</g>
<!-- Node142&#45;&gt;Node151 -->
<g id="edge28" class="edge">
<title>Node142&#45;&gt;Node151</title>
<path fill="none" stroke="midnightblue" d="M676.46,-258.64C686.34,-228.41 698.71,-175.26 681.5,-134 675.31,-119.16 662.41,-106.46 651.13,-97.5"/>
<polygon fill="midnightblue" stroke="midnightblue" points="673.07,-257.73 673.12,-268.33 679.69,-260.01 673.07,-257.73"/>
</g>
<!-- Node152 -->
<g id="node11" class="node">
<title>Node152</title>
<g id="a_node11"><a xlink:href="RDFGraph_8cpp.html" target="_top" xlink:title="lib/Target/Hexagon\l/RDFGraph.cpp">
<polygon fill="none" stroke="black" points="540,-134.5 540,-164.5 639,-164.5 639,-134.5 540,-134.5"/>
<text text-anchor="start" x="548" y="-152.5" font-family="Helvetica,sans-Serif" font-size="10.00">lib/Target/Hexagon</text>
<text text-anchor="middle" x="589.5" y="-141.5" font-family="Helvetica,sans-Serif" font-size="10.00">/RDFGraph.cpp</text>
</a>
</g>
</g>
<!-- Node142&#45;&gt;Node152 -->
<g id="edge27" class="edge">
<title>Node142&#45;&gt;Node152</title>
<path fill="none" stroke="midnightblue" d="M653.89,-259.48C637.7,-232.07 611.18,-187.19 597.79,-164.52"/>
<polygon fill="midnightblue" stroke="midnightblue" points="651.05,-261.54 659.15,-268.37 657.08,-257.98 651.05,-261.54"/>
</g>
<!-- Node153 -->
<g id="node12" class="node">
<title>Node153</title>
<g id="a_node12"><a xlink:href="RDFRegisters_8cpp.html" target="_top" xlink:title="lib/Target/Hexagon\l/RDFRegisters.cpp">
<polygon fill="none" stroke="black" points="813,-201.5 813,-231.5 914,-231.5 914,-201.5 813,-201.5"/>
<text text-anchor="start" x="821" y="-219.5" font-family="Helvetica,sans-Serif" font-size="10.00">lib/Target/Hexagon</text>
<text text-anchor="middle" x="863.5" y="-208.5" font-family="Helvetica,sans-Serif" font-size="10.00">/RDFRegisters.cpp</text>
</a>
</g>
</g>
<!-- Node142&#45;&gt;Node153 -->
<g id="edge29" class="edge">
<title>Node142&#45;&gt;Node153</title>
<path fill="none" stroke="midnightblue" d="M719.58,-265.23C751.29,-254.71 791.28,-241.45 821.05,-231.58"/>
<polygon fill="midnightblue" stroke="midnightblue" points="718.42,-261.93 710.03,-268.4 720.62,-268.57 718.42,-261.93"/>
</g>
<!-- Node143&#45;&gt;Node144 -->
<g id="edge2" class="edge">
<title>Node143&#45;&gt;Node144</title>
<path fill="none" stroke="midnightblue" d="M356.71,-213.93C300.77,-210.27 216.34,-198.95 151.5,-165 120.01,-148.51 92.59,-116.18 78.53,-97.57"/>
<polygon fill="midnightblue" stroke="midnightblue" points="356.62,-217.44 366.81,-214.53 357.03,-210.45 356.62,-217.44"/>
</g>
<!-- Node143&#45;&gt;Node145 -->
<g id="edge3" class="edge">
<title>Node143&#45;&gt;Node145</title>
<path fill="none" stroke="midnightblue" d="M387,-195.73C371.99,-185.68 354.1,-173.68 340.51,-164.58"/>
<polygon fill="midnightblue" stroke="midnightblue" points="385.2,-198.74 395.45,-201.4 389.09,-192.92 385.2,-198.74"/>
</g>
<!-- Node143&#45;&gt;Node146 -->
<g id="edge15" class="edge">
<title>Node143&#45;&gt;Node146</title>
<path fill="none" stroke="midnightblue" d="M426.27,-192.19C433.97,-175.19 445.7,-152.07 459.5,-134 469.94,-120.33 484.25,-107.13 495.51,-97.66"/>
<polygon fill="midnightblue" stroke="midnightblue" points="423.04,-190.84 422.21,-201.4 429.44,-193.66 423.04,-190.84"/>
</g>
<!-- Node143&#45;&gt;Node147 -->
<g id="edge17" class="edge">
<title>Node143&#45;&gt;Node147</title>
<path fill="none" stroke="midnightblue" d="M414.16,-191C410.14,-148.93 402.06,-64.26 398.85,-30.68"/>
<polygon fill="midnightblue" stroke="midnightblue" points="410.7,-191.57 415.13,-201.19 417.67,-190.9 410.7,-191.57"/>
</g>
<!-- Node143&#45;&gt;Node148 -->
<g id="edge18" class="edge">
<title>Node143&#45;&gt;Node148</title>
<path fill="none" stroke="midnightblue" d="M447.52,-195.74C461.46,-186.65 478,-175.55 492.5,-165 510.4,-151.97 511.54,-143.59 531.5,-134 596.42,-102.81 644.58,-154.3 689.5,-98 707.49,-75.45 677.76,-47.15 655.47,-30.53"/>
<polygon fill="midnightblue" stroke="midnightblue" points="445.28,-193.03 438.79,-201.4 449.08,-198.9 445.28,-193.03"/>
</g>
<!-- Node149 -->
<g id="node8" class="node">
<title>Node149</title>
<g id="a_node8"><a xlink:href="RDFDeadCode_8h.html" target="_top" xlink:title="lib/Target/Hexagon\l/RDFDeadCode.h">
<polygon fill="none" stroke="black" points="194,-67.5 194,-97.5 293,-97.5 293,-67.5 194,-67.5"/>
<text text-anchor="start" x="202" y="-85.5" font-family="Helvetica,sans-Serif" font-size="10.00">lib/Target/Hexagon</text>
<text text-anchor="middle" x="243.5" y="-74.5" font-family="Helvetica,sans-Serif" font-size="10.00">/RDFDeadCode.h</text>
</a>
</g>
</g>
<!-- Node143&#45;&gt;Node149 -->
<g id="edge16" class="edge">
<title>Node143&#45;&gt;Node149</title>
<path fill="none" stroke="midnightblue" d="M356.94,-210.62C323.99,-204.78 284.89,-192.16 260.5,-165 243.79,-146.39 241.9,-115.72 242.43,-97.78"/>
<polygon fill="midnightblue" stroke="midnightblue" points="356.52,-214.09 366.95,-212.22 357.62,-207.18 356.52,-214.09"/>
</g>
<!-- Node150 -->
<g id="node9" class="node">
<title>Node150</title>
<g id="a_node9"><a xlink:href="RDFDeadCode_8cpp.html" target="_top" xlink:title="lib/Target/Hexagon\l/RDFDeadCode.cpp">
<polygon fill="none" stroke="black" points="190.5,-0.5 190.5,-30.5 296.5,-30.5 296.5,-0.5 190.5,-0.5"/>
<text text-anchor="start" x="198.5" y="-18.5" font-family="Helvetica,sans-Serif" font-size="10.00">lib/Target/Hexagon</text>
<text text-anchor="middle" x="243.5" y="-7.5" font-family="Helvetica,sans-Serif" font-size="10.00">/RDFDeadCode.cpp</text>
</a>
</g>
</g>
<!-- Node143&#45;&gt;Node150 -->
<g id="edge19" class="edge">
<title>Node143&#45;&gt;Node150</title>
<path fill="none" stroke="midnightblue" d="M356.88,-207.51C297.05,-195.68 210.17,-166.89 184.5,-98 179.69,-85.09 178.74,-79.52 184.5,-67 191.55,-51.69 205.78,-39.29 218.5,-30.61"/>
<polygon fill="midnightblue" stroke="midnightblue" points="356.5,-211 366.98,-209.4 357.79,-204.12 356.5,-211"/>
</g>
<!-- Node143&#45;&gt;Node151 -->
<g id="edge21" class="edge">
<title>Node143&#45;&gt;Node151</title>
<path fill="none" stroke="midnightblue" d="M433.74,-193.54C448.9,-175.48 472.4,-150.29 497.5,-134 522.98,-117.46 554.68,-105.16 580.74,-96.84"/>
<polygon fill="midnightblue" stroke="midnightblue" points="431.03,-191.33 427.39,-201.28 436.44,-195.77 431.03,-191.33"/>
</g>
<!-- Node143&#45;&gt;Node152 -->
<g id="edge20" class="edge">
<title>Node143&#45;&gt;Node152</title>
<path fill="none" stroke="midnightblue" d="M463.56,-197.82C491.37,-187.37 526.09,-174.32 552.03,-164.58"/>
<polygon fill="midnightblue" stroke="midnightblue" points="462.17,-194.6 454.04,-201.4 464.63,-201.16 462.17,-194.6"/>
</g>
<!-- Node145&#45;&gt;Node144 -->
<g id="edge4" class="edge">
<title>Node145&#45;&gt;Node144</title>
<path fill="none" stroke="midnightblue" d="M260.17,-133.14C218.52,-122.35 163.26,-108.04 122.77,-97.55"/>
<polygon fill="midnightblue" stroke="midnightblue" points="259.35,-136.54 269.91,-135.66 261.11,-129.76 259.35,-136.54"/>
</g>
<!-- Node145&#45;&gt;Node146 -->
<g id="edge5" class="edge">
<title>Node145&#45;&gt;Node146</title>
<path fill="none" stroke="midnightblue" d="M371.46,-131.09C402.77,-120.6 442.14,-107.41 471.49,-97.58"/>
<polygon fill="midnightblue" stroke="midnightblue" points="369.97,-127.9 361.6,-134.4 372.19,-134.54 369.97,-127.9"/>
</g>
<!-- Node145&#45;&gt;Node147 -->
<g id="edge11" class="edge">
<title>Node145&#45;&gt;Node147</title>
<path fill="none" stroke="midnightblue" d="M333.11,-125.48C349.3,-98.07 375.82,-53.19 389.21,-30.52"/>
<polygon fill="midnightblue" stroke="midnightblue" points="329.92,-123.98 327.85,-134.37 335.95,-127.54 329.92,-123.98"/>
</g>
<!-- Node145&#45;&gt;Node148 -->
<g id="edge12" class="edge">
<title>Node145&#45;&gt;Node148</title>
<path fill="none" stroke="midnightblue" d="M347.79,-128.5C374.5,-110.36 416.22,-83.95 455.5,-67 497.6,-48.83 548.07,-35.28 584.67,-26.82"/>
<polygon fill="midnightblue" stroke="midnightblue" points="345.59,-125.76 339.33,-134.3 349.56,-131.53 345.59,-125.76"/>
</g>
<!-- Node145&#45;&gt;Node149 -->
<g id="edge8" class="edge">
<title>Node145&#45;&gt;Node149</title>
<path fill="none" stroke="midnightblue" d="M295.39,-127.88C283.84,-118.01 270.31,-106.43 259.96,-97.58"/>
<polygon fill="midnightblue" stroke="midnightblue" points="293.13,-130.56 303.01,-134.4 297.68,-125.24 293.13,-130.56"/>
</g>
<!-- Node145&#45;&gt;Node150 -->
<g id="edge13" class="edge">
<title>Node145&#45;&gt;Node150</title>
<path fill="none" stroke="midnightblue" d="M318.12,-124.01C316.24,-107 311.82,-84.37 301.5,-67 292.71,-52.19 278.05,-39.48 265.67,-30.52"/>
<polygon fill="midnightblue" stroke="midnightblue" points="314.66,-124.61 319.03,-134.26 321.63,-123.99 314.66,-124.61"/>
</g>
<!-- Node145&#45;&gt;Node151 -->
<g id="edge14" class="edge">
<title>Node145&#45;&gt;Node151</title>
<path fill="none" stroke="midnightblue" d="M379.03,-137.45C430.41,-127.72 506.54,-112.82 572.5,-98 575.23,-97.39 578.04,-96.74 580.86,-96.08"/>
<polygon fill="midnightblue" stroke="midnightblue" points="378.27,-134.03 369.1,-139.33 379.57,-140.91 378.27,-134.03"/>
</g>
<!-- Node146&#45;&gt;Node147 -->
<g id="edge6" class="edge">
<title>Node146&#45;&gt;Node147</title>
<path fill="none" stroke="midnightblue" d="M479.23,-62.3C461.08,-52.12 439.18,-39.85 422.62,-30.58"/>
<polygon fill="midnightblue" stroke="midnightblue" points="477.9,-65.56 488.33,-67.4 481.32,-59.45 477.9,-65.56"/>
</g>
<!-- Node146&#45;&gt;Node148 -->
<g id="edge7" class="edge">
<title>Node146&#45;&gt;Node148</title>
<path fill="none" stroke="midnightblue" d="M548.73,-62.57C567.76,-52.35 590.87,-39.94 608.3,-30.58"/>
<polygon fill="midnightblue" stroke="midnightblue" points="546.91,-59.58 539.76,-67.4 550.22,-65.75 546.91,-59.58"/>
</g>
<!-- Node149&#45;&gt;Node147 -->
<g id="edge9" class="edge">
<title>Node149&#45;&gt;Node147</title>
<path fill="none" stroke="midnightblue" d="M286.37,-63.41C310.95,-53.03 341.36,-40.2 364.15,-30.58"/>
<polygon fill="midnightblue" stroke="midnightblue" points="284.77,-60.28 276.92,-67.4 287.49,-66.73 284.77,-60.28"/>
</g>
<!-- Node149&#45;&gt;Node150 -->
<g id="edge10" class="edge">
<title>Node149&#45;&gt;Node150</title>
<path fill="none" stroke="midnightblue" d="M243.5,-57.11C243.5,-48.15 243.5,-38.32 243.5,-30.58"/>
<polygon fill="midnightblue" stroke="midnightblue" points="240,-57.4 243.5,-67.4 247,-57.4 240,-57.4"/>
</g>
</g>
</svg>
