<?xml version="1.0" encoding="UTF-8" standalone="no"?>
<!DOCTYPE svg PUBLIC "-//W3C//DTD SVG 1.1//EN"
 "http://www.w3.org/Graphics/SVG/1.1/DTD/svg11.dtd">
<!-- Generated by graphviz version 2.43.0 (0)
 -->
<!-- Title: include/llvm/TableGen/Record.h Pages: 1 -->
<svg width="686pt" height="151pt"
 viewBox="0.00 0.00 686.00 151.00" xmlns="http://www.w3.org/2000/svg" xmlns:xlink="http://www.w3.org/1999/xlink">
<g id="graph0" class="graph" transform="scale(1 1) rotate(0) translate(4 147)">
<title>include/llvm/TableGen/Record.h</title>
<!-- Node64 -->
<g id="node1" class="node">
<title>Node64</title>
<polygon fill="#bfbfbf" stroke="black" points="265.5,-112.5 265.5,-142.5 378.5,-142.5 378.5,-112.5 265.5,-112.5"/>
<text text-anchor="start" x="273.5" y="-130.5" font-family="Helvetica,sans-Serif" font-size="10.00">include/llvm/TableGen</text>
<text text-anchor="middle" x="322" y="-119.5" font-family="Helvetica,sans-Serif" font-size="10.00">/Record.h</text>
</g>
<!-- Node65 -->
<g id="node2" class="node">
<title>Node65</title>
<g id="a_node2"><a xlink:href="JSONBackend_8cpp.html" target="_top" xlink:title="lib/TableGen/JSONBackend.cpp">
<polygon fill="none" stroke="black" points="0,-56.5 0,-75.5 158,-75.5 158,-56.5 0,-56.5"/>
<text text-anchor="middle" x="79" y="-63.5" font-family="Helvetica,sans-Serif" font-size="10.00">lib/TableGen/JSONBackend.cpp</text>
</a>
</g>
</g>
<!-- Node64&#45;&gt;Node65 -->
<g id="edge1" class="edge">
<title>Node64&#45;&gt;Node65</title>
<path fill="none" stroke="midnightblue" d="M255.49,-110.21C209.72,-99.01 150.77,-84.57 113.92,-75.55"/>
<polygon fill="midnightblue" stroke="midnightblue" points="254.79,-113.65 265.33,-112.62 256.45,-106.85 254.79,-113.65"/>
</g>
<!-- Node66 -->
<g id="node3" class="node">
<title>Node66</title>
<g id="a_node3"><a xlink:href="TGParser_8h.html" target="_top" xlink:title="lib/TableGen/TGParser.h">
<polygon fill="none" stroke="black" points="214.5,-56.5 214.5,-75.5 339.5,-75.5 339.5,-56.5 214.5,-56.5"/>
<text text-anchor="middle" x="277" y="-63.5" font-family="Helvetica,sans-Serif" font-size="10.00">lib/TableGen/TGParser.h</text>
</a>
</g>
</g>
<!-- Node64&#45;&gt;Node66 -->
<g id="edge2" class="edge">
<title>Node64&#45;&gt;Node66</title>
<path fill="none" stroke="midnightblue" d="M305.29,-104.4C297.73,-94.41 289.24,-83.18 283.55,-75.66"/>
<polygon fill="midnightblue" stroke="midnightblue" points="302.51,-106.53 311.34,-112.4 308.1,-102.31 302.51,-106.53"/>
</g>
<!-- Node67 -->
<g id="node4" class="node">
<title>Node67</title>
<g id="a_node4"><a xlink:href="Main_8cpp.html" target="_top" xlink:title="lib/TableGen/Main.cpp">
<polygon fill="none" stroke="black" points="148,-0.5 148,-19.5 262,-19.5 262,-0.5 148,-0.5"/>
<text text-anchor="middle" x="205" y="-7.5" font-family="Helvetica,sans-Serif" font-size="10.00">lib/TableGen/Main.cpp</text>
</a>
</g>
</g>
<!-- Node64&#45;&gt;Node67 -->
<g id="edge5" class="edge">
<title>Node64&#45;&gt;Node67</title>
<path fill="none" stroke="midnightblue" d="M255.77,-112.3C236.51,-104.79 217.57,-93.36 206,-76 194.61,-58.91 198.91,-33.26 202.35,-19.87"/>
<polygon fill="midnightblue" stroke="midnightblue" points="254.63,-115.6 265.22,-115.68 256.99,-109.01 254.63,-115.6"/>
</g>
<!-- Node68 -->
<g id="node5" class="node">
<title>Node68</title>
<g id="a_node5"><a xlink:href="TGParser_8cpp.html" target="_top" xlink:title="lib/TableGen/TGParser.cpp">
<polygon fill="none" stroke="black" points="290.5,-0.5 290.5,-19.5 425.5,-19.5 425.5,-0.5 290.5,-0.5"/>
<text text-anchor="middle" x="358" y="-7.5" font-family="Helvetica,sans-Serif" font-size="10.00">lib/TableGen/TGParser.cpp</text>
</a>
</g>
</g>
<!-- Node64&#45;&gt;Node68 -->
<g id="edge8" class="edge">
<title>Node64&#45;&gt;Node68</title>
<path fill="none" stroke="midnightblue" d="M336.6,-103.33C341.25,-95 345.96,-85.34 349,-76 355.34,-56.5 357.21,-32.29 357.77,-19.63"/>
<polygon fill="midnightblue" stroke="midnightblue" points="333.51,-101.69 331.48,-112.09 339.55,-105.22 333.51,-101.69"/>
</g>
<!-- Node69 -->
<g id="node6" class="node">
<title>Node69</title>
<g id="a_node6"><a xlink:href="Record_8cpp.html" target="_top" xlink:title="lib/TableGen/Record.cpp">
<polygon fill="none" stroke="black" points="396.5,-56.5 396.5,-75.5 521.5,-75.5 521.5,-56.5 396.5,-56.5"/>
<text text-anchor="middle" x="459" y="-63.5" font-family="Helvetica,sans-Serif" font-size="10.00">lib/TableGen/Record.cpp</text>
</a>
</g>
</g>
<!-- Node64&#45;&gt;Node69 -->
<g id="edge6" class="edge">
<title>Node64&#45;&gt;Node69</title>
<path fill="none" stroke="midnightblue" d="M363.74,-108.37C388.75,-97.51 419.4,-84.2 439.07,-75.66"/>
<polygon fill="midnightblue" stroke="midnightblue" points="362.25,-105.21 354.47,-112.4 365.03,-111.63 362.25,-105.21"/>
</g>
<!-- Node70 -->
<g id="node7" class="node">
<title>Node70</title>
<g id="a_node7"><a xlink:href="SetTheory_8cpp.html" target="_top" xlink:title="lib/TableGen/SetTheory.cpp">
<polygon fill="none" stroke="black" points="540,-56.5 540,-75.5 678,-75.5 678,-56.5 540,-56.5"/>
<text text-anchor="middle" x="609" y="-63.5" font-family="Helvetica,sans-Serif" font-size="10.00">lib/TableGen/SetTheory.cpp</text>
</a>
</g>
</g>
<!-- Node64&#45;&gt;Node70 -->
<g id="edge7" class="edge">
<title>Node64&#45;&gt;Node70</title>
<path fill="none" stroke="midnightblue" d="M388.77,-112.66C444.09,-101.19 520.98,-85.25 567.73,-75.56"/>
<polygon fill="midnightblue" stroke="midnightblue" points="387.78,-109.29 378.7,-114.74 389.2,-116.14 387.78,-109.29"/>
</g>
<!-- Node66&#45;&gt;Node67 -->
<g id="edge3" class="edge">
<title>Node66&#45;&gt;Node67</title>
<path fill="none" stroke="midnightblue" d="M257.13,-50.1C244.18,-40.38 227.7,-28.03 216.78,-19.83"/>
<polygon fill="midnightblue" stroke="midnightblue" points="255.33,-53.12 265.43,-56.32 259.53,-47.52 255.33,-53.12"/>
</g>
<!-- Node66&#45;&gt;Node68 -->
<g id="edge4" class="edge">
<title>Node66&#45;&gt;Node68</title>
<path fill="none" stroke="midnightblue" d="M298.57,-50.62C313.36,-40.76 332.51,-27.99 345.02,-19.65"/>
<polygon fill="midnightblue" stroke="midnightblue" points="296.39,-47.86 290.01,-56.32 300.28,-53.69 296.39,-47.86"/>
</g>
</g>
</svg>
