<?xml version="1.0" encoding="UTF-8" standalone="no"?>
<!DOCTYPE svg PUBLIC "-//W3C//DTD SVG 1.1//EN"
 "http://www.w3.org/Graphics/SVG/1.1/DTD/svg11.dtd">
<!-- Generated by graphviz version 2.43.0 (0)
 -->
<!-- Title: lib/CodeGen/RegisterCoalescer.h Pages: 1 -->
<svg width="694pt" height="84pt"
 viewBox="0.00 0.00 694.00 84.00" xmlns="http://www.w3.org/2000/svg" xmlns:xlink="http://www.w3.org/1999/xlink">
<g id="graph0" class="graph" transform="scale(1 1) rotate(0) translate(4 80)">
<title>lib/CodeGen/RegisterCoalescer.h</title>
<!-- Node1 -->
<g id="node1" class="node">
<title>Node1</title>
<polygon fill="#bfbfbf" stroke="black" points="245,-56.5 245,-75.5 408,-75.5 408,-56.5 245,-56.5"/>
<text text-anchor="middle" x="326.5" y="-63.5" font-family="Helvetica,sans-Serif" font-size="10.00">lib/CodeGen/RegisterCoalescer.h</text>
</g>
<!-- Node2 -->
<g id="node2" class="node">
<title>Node2</title>
<g id="a_node2"><a xlink:href="LiveInterval_8cpp.html" target="_top" xlink:title="lib/CodeGen/LiveInterval.cpp">
<polygon fill="none" stroke="black" points="0,-0.5 0,-19.5 143,-19.5 143,-0.5 0,-0.5"/>
<text text-anchor="middle" x="71.5" y="-7.5" font-family="Helvetica,sans-Serif" font-size="10.00">lib/CodeGen/LiveInterval.cpp</text>
</a>
</g>
</g>
<!-- Node1&#45;&gt;Node2 -->
<g id="edge1" class="edge">
<title>Node1&#45;&gt;Node2</title>
<path fill="none" stroke="midnightblue" d="M276.19,-54.35C228,-44.14 156.22,-28.94 111.72,-19.52"/>
<polygon fill="midnightblue" stroke="midnightblue" points="275.59,-57.8 286.09,-56.44 277.04,-50.95 275.59,-57.8"/>
</g>
<!-- Node3 -->
<g id="node3" class="node">
<title>Node3</title>
<g id="a_node3"><a xlink:href="LiveRegMatrix_8cpp.html" target="_top" xlink:title="lib/CodeGen/LiveRegMatrix.cpp">
<polygon fill="none" stroke="black" points="161,-0.5 161,-19.5 316,-19.5 316,-0.5 161,-0.5"/>
<text text-anchor="middle" x="238.5" y="-7.5" font-family="Helvetica,sans-Serif" font-size="10.00">lib/CodeGen/LiveRegMatrix.cpp</text>
</a>
</g>
</g>
<!-- Node1&#45;&gt;Node3 -->
<g id="edge2" class="edge">
<title>Node1&#45;&gt;Node3</title>
<path fill="none" stroke="midnightblue" d="M303.52,-50.9C287.39,-41 266.32,-28.07 252.6,-19.65"/>
<polygon fill="midnightblue" stroke="midnightblue" points="302.01,-54.08 312.36,-56.32 305.67,-48.11 302.01,-54.08"/>
</g>
<!-- Node4 -->
<g id="node4" class="node">
<title>Node4</title>
<g id="a_node4"><a xlink:href="RegAllocPBQP_8cpp.html" target="_top" xlink:title="lib/CodeGen/RegAllocPBQP.cpp">
<polygon fill="none" stroke="black" points="334.5,-0.5 334.5,-19.5 494.5,-19.5 494.5,-0.5 334.5,-0.5"/>
<text text-anchor="middle" x="414.5" y="-7.5" font-family="Helvetica,sans-Serif" font-size="10.00">lib/CodeGen/RegAllocPBQP.cpp</text>
</a>
</g>
</g>
<!-- Node1&#45;&gt;Node4 -->
<g id="edge3" class="edge">
<title>Node1&#45;&gt;Node4</title>
<path fill="none" stroke="midnightblue" d="M349.48,-50.9C365.61,-41 386.68,-28.07 400.4,-19.65"/>
<polygon fill="midnightblue" stroke="midnightblue" points="347.33,-48.11 340.64,-56.32 350.99,-54.08 347.33,-48.11"/>
</g>
<!-- Node5 -->
<g id="node5" class="node">
<title>Node5</title>
<g id="a_node5"><a xlink:href="RegisterCoalescer_8cpp.html" target="_top" xlink:title="lib/CodeGen/RegisterCoalescer.cpp">
<polygon fill="none" stroke="black" points="513,-0.5 513,-19.5 686,-19.5 686,-0.5 513,-0.5"/>
<text text-anchor="middle" x="599.5" y="-7.5" font-family="Helvetica,sans-Serif" font-size="10.00">lib/CodeGen/RegisterCoalescer.cpp</text>
</a>
</g>
</g>
<!-- Node1&#45;&gt;Node5 -->
<g id="edge4" class="edge">
<title>Node1&#45;&gt;Node5</title>
<path fill="none" stroke="midnightblue" d="M379.72,-54.47C431.31,-44.27 508.6,-28.98 556.44,-19.52"/>
<polygon fill="midnightblue" stroke="midnightblue" points="378.89,-51.07 369.76,-56.44 380.25,-57.94 378.89,-51.07"/>
</g>
</g>
</svg>
