<?xml version="1.0" encoding="UTF-8" standalone="no"?>
<!DOCTYPE svg PUBLIC "-//W3C//DTD SVG 1.1//EN"
 "http://www.w3.org/Graphics/SVG/1.1/DTD/svg11.dtd">
<!-- Generated by graphviz version 2.43.0 (0)
 -->
<!-- Title: include/llvm/Analysis/RegionInfo.h Pages: 1 -->
<svg width="1127pt" height="240pt"
 viewBox="0.00 0.00 1127.00 240.00" xmlns="http://www.w3.org/2000/svg" xmlns:xlink="http://www.w3.org/1999/xlink">
<g id="graph0" class="graph" transform="scale(1 1) rotate(0) translate(4 236)">
<title>include/llvm/Analysis/RegionInfo.h</title>
<!-- Node146 -->
<g id="node1" class="node">
<title>Node146</title>
<polygon fill="#bfbfbf" stroke="black" points="457.5,-201.5 457.5,-231.5 566.5,-231.5 566.5,-201.5 457.5,-201.5"/>
<text text-anchor="start" x="465.5" y="-219.5" font-family="Helvetica,sans-Serif" font-size="10.00">include/llvm/Analysis</text>
<text text-anchor="middle" x="512" y="-208.5" font-family="Helvetica,sans-Serif" font-size="10.00">/RegionInfo.h</text>
</g>
<!-- Node147 -->
<g id="node2" class="node">
<title>Node147</title>
<g id="a_node2"><a xlink:href="RegionInfoImpl_8h.html" target="_top" xlink:title="include/llvm/Analysis\l/RegionInfoImpl.h">
<polygon fill="none" stroke="black" points="96.5,-67.5 96.5,-97.5 205.5,-97.5 205.5,-67.5 96.5,-67.5"/>
<text text-anchor="start" x="104.5" y="-85.5" font-family="Helvetica,sans-Serif" font-size="10.00">include/llvm/Analysis</text>
<text text-anchor="middle" x="151" y="-74.5" font-family="Helvetica,sans-Serif" font-size="10.00">/RegionInfoImpl.h</text>
</a>
</g>
</g>
<!-- Node146&#45;&gt;Node147 -->
<g id="edge1" class="edge">
<title>Node146&#45;&gt;Node147</title>
<path fill="none" stroke="midnightblue" d="M463.17,-197.98C436.26,-188.31 402.27,-176.04 372,-165 307.65,-141.53 232.9,-113.88 188.9,-97.57"/>
<polygon fill="midnightblue" stroke="midnightblue" points="462.15,-201.34 472.75,-201.43 464.52,-194.75 462.15,-201.34"/>
</g>
<!-- Node148 -->
<g id="node3" class="node">
<title>Node148</title>
<g id="a_node3"><a xlink:href="RegionInfo_8cpp.html" target="_top" xlink:title="lib/Analysis/RegionInfo.cpp">
<polygon fill="none" stroke="black" points="0,-6 0,-25 136,-25 136,-6 0,-6"/>
<text text-anchor="middle" x="68" y="-13" font-family="Helvetica,sans-Serif" font-size="10.00">lib/Analysis/RegionInfo.cpp</text>
</a>
</g>
</g>
<!-- Node146&#45;&gt;Node148 -->
<g id="edge17" class="edge">
<title>Node146&#45;&gt;Node148</title>
<path fill="none" stroke="midnightblue" d="M447.31,-206.14C340.78,-189.38 135.37,-151 87,-98 68.2,-77.4 66.91,-41.85 67.44,-25.37"/>
<polygon fill="midnightblue" stroke="midnightblue" points="446.88,-209.61 457.3,-207.69 447.96,-202.7 446.88,-209.61"/>
</g>
<!-- Node150 -->
<g id="node5" class="node">
<title>Node150</title>
<g id="a_node5"><a xlink:href="RegionIterator_8h.html" target="_top" xlink:title="include/llvm/Analysis\l/RegionIterator.h">
<polygon fill="none" stroke="black" points="457.5,-134.5 457.5,-164.5 566.5,-164.5 566.5,-134.5 457.5,-134.5"/>
<text text-anchor="start" x="465.5" y="-152.5" font-family="Helvetica,sans-Serif" font-size="10.00">include/llvm/Analysis</text>
<text text-anchor="middle" x="512" y="-141.5" font-family="Helvetica,sans-Serif" font-size="10.00">/RegionIterator.h</text>
</a>
</g>
</g>
<!-- Node146&#45;&gt;Node150 -->
<g id="edge4" class="edge">
<title>Node146&#45;&gt;Node150</title>
<path fill="none" stroke="midnightblue" d="M512,-191.11C512,-182.15 512,-172.32 512,-164.58"/>
<polygon fill="midnightblue" stroke="midnightblue" points="508.5,-191.4 512,-201.4 515.5,-191.4 508.5,-191.4"/>
</g>
<!-- Node151 -->
<g id="node6" class="node">
<title>Node151</title>
<g id="a_node6"><a xlink:href="MachineRegionInfo_8h.html" target="_top" xlink:title="include/llvm/CodeGen\l/MachineRegionInfo.h">
<polygon fill="none" stroke="black" points="223.5,-67.5 223.5,-97.5 336.5,-97.5 336.5,-67.5 223.5,-67.5"/>
<text text-anchor="start" x="231.5" y="-85.5" font-family="Helvetica,sans-Serif" font-size="10.00">include/llvm/CodeGen</text>
<text text-anchor="middle" x="280" y="-74.5" font-family="Helvetica,sans-Serif" font-size="10.00">/MachineRegionInfo.h</text>
</a>
</g>
</g>
<!-- Node146&#45;&gt;Node151 -->
<g id="edge16" class="edge">
<title>Node146&#45;&gt;Node151</title>
<path fill="none" stroke="midnightblue" d="M478.25,-196.3C431.04,-169.44 346.39,-121.27 304.65,-97.52"/>
<polygon fill="midnightblue" stroke="midnightblue" points="476.75,-199.47 487.17,-201.37 480.21,-193.39 476.75,-199.47"/>
</g>
<!-- Node153 -->
<g id="node8" class="node">
<title>Node153</title>
<g id="a_node8"><a xlink:href="RegionPrinter_8cpp.html" target="_top" xlink:title="lib/Analysis/RegionPrinter.cpp">
<polygon fill="none" stroke="black" points="355,-73 355,-92 503,-92 503,-73 355,-73"/>
<text text-anchor="middle" x="429" y="-80" font-family="Helvetica,sans-Serif" font-size="10.00">lib/Analysis/RegionPrinter.cpp</text>
</a>
</g>
</g>
<!-- Node146&#45;&gt;Node153 -->
<g id="edge18" class="edge">
<title>Node146&#45;&gt;Node153</title>
<path fill="none" stroke="midnightblue" d="M478.26,-195.51C467.11,-187.35 455.62,-177 448,-165 433.12,-141.58 429.87,-107.74 429.18,-92.06"/>
<polygon fill="midnightblue" stroke="midnightblue" points="476.43,-198.5 486.65,-201.3 480.41,-192.74 476.43,-198.5"/>
</g>
<!-- Node154 -->
<g id="node9" class="node">
<title>Node154</title>
<g id="a_node9"><a xlink:href="ControlHeightReduction_8cpp.html" target="_top" xlink:title="lib/Transforms/Instrumentation\l/ControlHeightReduction.cpp">
<polygon fill="none" stroke="black" points="521.5,-67.5 521.5,-97.5 670.5,-97.5 670.5,-67.5 521.5,-67.5"/>
<text text-anchor="start" x="529.5" y="-85.5" font-family="Helvetica,sans-Serif" font-size="10.00">lib/Transforms/Instrumentation</text>
<text text-anchor="middle" x="596" y="-74.5" font-family="Helvetica,sans-Serif" font-size="10.00">/ControlHeightReduction.cpp</text>
</a>
</g>
</g>
<!-- Node146&#45;&gt;Node154 -->
<g id="edge20" class="edge">
<title>Node146&#45;&gt;Node154</title>
<path fill="none" stroke="midnightblue" d="M544.8,-195.51C555.84,-187.3 567.3,-176.92 575,-165 588.56,-144.01 593.37,-114.7 595.08,-97.55"/>
<polygon fill="midnightblue" stroke="midnightblue" points="542.67,-192.73 536.51,-201.34 546.7,-198.45 542.67,-192.73"/>
</g>
<!-- Node155 -->
<g id="node10" class="node">
<title>Node155</title>
<g id="a_node10"><a xlink:href="StructurizeCFG_8cpp.html" target="_top" xlink:title="lib/Transforms/Scalar\l/StructurizeCFG.cpp">
<polygon fill="none" stroke="black" points="689,-67.5 689,-97.5 799,-97.5 799,-67.5 689,-67.5"/>
<text text-anchor="start" x="697" y="-85.5" font-family="Helvetica,sans-Serif" font-size="10.00">lib/Transforms/Scalar</text>
<text text-anchor="middle" x="744" y="-74.5" font-family="Helvetica,sans-Serif" font-size="10.00">/StructurizeCFG.cpp</text>
</a>
</g>
</g>
<!-- Node146&#45;&gt;Node155 -->
<g id="edge21" class="edge">
<title>Node146&#45;&gt;Node155</title>
<path fill="none" stroke="midnightblue" d="M545.75,-196.3C592.96,-169.44 677.61,-121.27 719.35,-97.52"/>
<polygon fill="midnightblue" stroke="midnightblue" points="543.79,-193.39 536.83,-201.37 547.25,-199.47 543.79,-193.39"/>
</g>
<!-- Node156 -->
<g id="node11" class="node">
<title>Node156</title>
<g id="a_node11"><a xlink:href="RegionPass_8h.html" target="_top" xlink:title="include/llvm/Analysis\l/RegionPass.h">
<polygon fill="none" stroke="black" points="689.5,-134.5 689.5,-164.5 798.5,-164.5 798.5,-134.5 689.5,-134.5"/>
<text text-anchor="start" x="697.5" y="-152.5" font-family="Helvetica,sans-Serif" font-size="10.00">include/llvm/Analysis</text>
<text text-anchor="middle" x="744" y="-141.5" font-family="Helvetica,sans-Serif" font-size="10.00">/RegionPass.h</text>
</a>
</g>
</g>
<!-- Node146&#45;&gt;Node156 -->
<g id="edge12" class="edge">
<title>Node146&#45;&gt;Node156</title>
<path fill="none" stroke="midnightblue" d="M571.91,-198.71C609.66,-188.14 657.86,-174.63 693.63,-164.61"/>
<polygon fill="midnightblue" stroke="midnightblue" points="570.74,-195.41 562.05,-201.48 572.63,-202.15 570.74,-195.41"/>
</g>
<!-- Node159 -->
<g id="node14" class="node">
<title>Node159</title>
<g id="a_node14"><a xlink:href="PassBuilder_8cpp.html" target="_top" xlink:title="This file provides the implementation of the PassBuilder based on our static pass registry as well as...">
<polygon fill="none" stroke="black" points="816.5,-140 816.5,-159 953.5,-159 953.5,-140 816.5,-140"/>
<text text-anchor="middle" x="885" y="-147" font-family="Helvetica,sans-Serif" font-size="10.00">lib/Passes/PassBuilder.cpp</text>
</a>
</g>
</g>
<!-- Node146&#45;&gt;Node159 -->
<g id="edge19" class="edge">
<title>Node146&#45;&gt;Node159</title>
<path fill="none" stroke="midnightblue" d="M576.69,-204.79C636.69,-194.78 728.45,-179.27 808,-165 818.44,-163.13 829.67,-161.05 840.24,-159.06"/>
<polygon fill="midnightblue" stroke="midnightblue" points="575.89,-201.38 566.6,-206.47 577.04,-208.28 575.89,-201.38"/>
</g>
<!-- Node147&#45;&gt;Node148 -->
<g id="edge2" class="edge">
<title>Node147&#45;&gt;Node148</title>
<path fill="none" stroke="midnightblue" d="M124.83,-61.01C109.42,-48.94 90.74,-34.3 79.1,-25.19"/>
<polygon fill="midnightblue" stroke="midnightblue" points="122.96,-63.99 132.99,-67.4 127.28,-58.47 122.96,-63.99"/>
</g>
<!-- Node149 -->
<g id="node4" class="node">
<title>Node149</title>
<g id="a_node4"><a xlink:href="MachineRegionInfo_8cpp.html" target="_top" xlink:title="lib/CodeGen/MachineRegion\lInfo.cpp">
<polygon fill="none" stroke="black" points="154.5,-0.5 154.5,-30.5 295.5,-30.5 295.5,-0.5 154.5,-0.5"/>
<text text-anchor="start" x="162.5" y="-18.5" font-family="Helvetica,sans-Serif" font-size="10.00">lib/CodeGen/MachineRegion</text>
<text text-anchor="middle" x="225" y="-7.5" font-family="Helvetica,sans-Serif" font-size="10.00">Info.cpp</text>
</a>
</g>
</g>
<!-- Node147&#45;&gt;Node149 -->
<g id="edge3" class="edge">
<title>Node147&#45;&gt;Node149</title>
<path fill="none" stroke="midnightblue" d="M174.8,-60.6C185.97,-50.78 198.99,-39.34 208.97,-30.58"/>
<polygon fill="midnightblue" stroke="midnightblue" points="172.26,-58.17 167.06,-67.4 176.88,-63.43 172.26,-58.17"/>
</g>
<!-- Node150&#45;&gt;Node147 -->
<g id="edge5" class="edge">
<title>Node150&#45;&gt;Node147</title>
<path fill="none" stroke="midnightblue" d="M447.28,-138.65C386.78,-129.18 294.02,-113.97 214,-98 211.25,-97.45 208.43,-96.87 205.59,-96.27"/>
<polygon fill="midnightblue" stroke="midnightblue" points="447.03,-142.15 457.45,-140.23 448.11,-135.23 447.03,-142.15"/>
</g>
<!-- Node150&#45;&gt;Node151 -->
<g id="edge6" class="edge">
<title>Node150&#45;&gt;Node151</title>
<path fill="none" stroke="midnightblue" d="M452.09,-131.71C414.34,-121.14 366.14,-107.63 330.37,-97.61"/>
<polygon fill="midnightblue" stroke="midnightblue" points="451.37,-135.15 461.95,-134.48 453.26,-128.41 451.37,-135.15"/>
</g>
<!-- Node150&#45;&gt;Node153 -->
<g id="edge9" class="edge">
<title>Node150&#45;&gt;Node153</title>
<path fill="none" stroke="midnightblue" d="M485.83,-128.01C470.42,-115.94 451.74,-101.3 440.1,-92.19"/>
<polygon fill="midnightblue" stroke="midnightblue" points="483.96,-130.99 493.99,-134.4 488.28,-125.47 483.96,-130.99"/>
</g>
<!-- Node150&#45;&gt;Node154 -->
<g id="edge10" class="edge">
<title>Node150&#45;&gt;Node154</title>
<path fill="none" stroke="midnightblue" d="M538.28,-128.17C551.12,-118.23 566.26,-106.51 577.81,-97.58"/>
<polygon fill="midnightblue" stroke="midnightblue" points="535.99,-125.51 530.23,-134.4 540.28,-131.04 535.99,-125.51"/>
</g>
<!-- Node150&#45;&gt;Node155 -->
<g id="edge11" class="edge">
<title>Node150&#45;&gt;Node155</title>
<path fill="none" stroke="midnightblue" d="M571.91,-131.71C609.66,-121.14 657.86,-107.63 693.63,-97.61"/>
<polygon fill="midnightblue" stroke="midnightblue" points="570.74,-128.41 562.05,-134.48 572.63,-135.15 570.74,-128.41"/>
</g>
<!-- Node151&#45;&gt;Node149 -->
<g id="edge7" class="edge">
<title>Node151&#45;&gt;Node149</title>
<path fill="none" stroke="midnightblue" d="M261.58,-59.74C253.45,-50.12 244.11,-39.09 236.91,-30.58"/>
<polygon fill="midnightblue" stroke="midnightblue" points="258.93,-62.02 268.07,-67.4 264.28,-57.5 258.93,-62.02"/>
</g>
<!-- Node152 -->
<g id="node7" class="node">
<title>Node152</title>
<g id="a_node7"><a xlink:href="AMDGPUMachineCFGStructurizer_8cpp.html" target="_top" xlink:title="lib/Target/AMDGPU/AMDGPUMachine\lCFGStructurizer.cpp">
<polygon fill="none" stroke="black" points="314,-0.5 314,-30.5 502,-30.5 502,-0.5 314,-0.5"/>
<text text-anchor="start" x="322" y="-18.5" font-family="Helvetica,sans-Serif" font-size="10.00">lib/Target/AMDGPU/AMDGPUMachine</text>
<text text-anchor="middle" x="408" y="-7.5" font-family="Helvetica,sans-Serif" font-size="10.00">CFGStructurizer.cpp</text>
</a>
</g>
</g>
<!-- Node151&#45;&gt;Node152 -->
<g id="edge8" class="edge">
<title>Node151&#45;&gt;Node152</title>
<path fill="none" stroke="midnightblue" d="M316.72,-62.85C336.96,-52.58 361.67,-40.03 380.28,-30.58"/>
<polygon fill="midnightblue" stroke="midnightblue" points="315.11,-59.75 307.77,-67.4 318.28,-65.99 315.11,-59.75"/>
</g>
<!-- Node156&#45;&gt;Node155 -->
<g id="edge15" class="edge">
<title>Node156&#45;&gt;Node155</title>
<path fill="none" stroke="midnightblue" d="M744,-124.11C744,-115.15 744,-105.32 744,-97.58"/>
<polygon fill="midnightblue" stroke="midnightblue" points="740.5,-124.4 744,-134.4 747.5,-124.4 740.5,-124.4"/>
</g>
<!-- Node157 -->
<g id="node12" class="node">
<title>Node157</title>
<g id="a_node12"><a xlink:href="LinkAllPasses_8h.html" target="_top" xlink:title="include/llvm/LinkAllPasses.h">
<polygon fill="none" stroke="black" points="817,-73 817,-92 959,-92 959,-73 817,-73"/>
<text text-anchor="middle" x="888" y="-80" font-family="Helvetica,sans-Serif" font-size="10.00">include/llvm/LinkAllPasses.h</text>
</a>
</g>
</g>
<!-- Node156&#45;&gt;Node157 -->
<g id="edge13" class="edge">
<title>Node156&#45;&gt;Node157</title>
<path fill="none" stroke="midnightblue" d="M784.69,-130.13C812.41,-117.62 847.81,-101.64 869.15,-92.01"/>
<polygon fill="midnightblue" stroke="midnightblue" points="782.92,-127.09 775.25,-134.4 785.8,-133.47 782.92,-127.09"/>
</g>
<!-- Node158 -->
<g id="node13" class="node">
<title>Node158</title>
<g id="a_node13"><a xlink:href="RegionPass_8cpp.html" target="_top" xlink:title="lib/Analysis/RegionPass.cpp">
<polygon fill="none" stroke="black" points="977,-73 977,-92 1119,-92 1119,-73 977,-73"/>
<text text-anchor="middle" x="1048" y="-80" font-family="Helvetica,sans-Serif" font-size="10.00">lib/Analysis/RegionPass.cpp</text>
</a>
</g>
</g>
<!-- Node156&#45;&gt;Node158 -->
<g id="edge14" class="edge">
<title>Node156&#45;&gt;Node158</title>
<path fill="none" stroke="midnightblue" d="M808.95,-133.81C884.37,-117.39 960.49,-101.53 1006.34,-92.06"/>
<polygon fill="midnightblue" stroke="midnightblue" points="807.82,-130.47 798.8,-136.03 809.32,-137.31 807.82,-130.47"/>
</g>
</g>
</svg>
