<?xml version="1.0" encoding="UTF-8" standalone="no"?>
<!DOCTYPE svg PUBLIC "-//W3C//DTD SVG 1.1//EN"
 "http://www.w3.org/Graphics/SVG/1.1/DTD/svg11.dtd">
<!-- Generated by graphviz version 2.43.0 (0)
 -->
<!-- Title: lib/Target/RISCV/MCTargetDesc/RISCVMCTargetDesc.h Pages: 1 -->
<svg width="940pt" height="207pt"
 viewBox="0.00 0.00 940.00 207.00" xmlns="http://www.w3.org/2000/svg" xmlns:xlink="http://www.w3.org/1999/xlink">
<g id="graph0" class="graph" transform="scale(1 1) rotate(0) translate(4 203)">
<title>lib/Target/RISCV/MCTargetDesc/RISCVMCTargetDesc.h</title>
<!-- Node0 -->
<g id="node1" class="node">
<title>Node0</title>
<polygon fill="#bfbfbf" stroke="black" points="383.5,-168.5 383.5,-198.5 532.5,-198.5 532.5,-168.5 383.5,-168.5"/>
<text text-anchor="start" x="391.5" y="-186.5" font-family="Helvetica,sans-Serif" font-size="10.00">lib/Target/RISCV/MCTarget</text>
<text text-anchor="middle" x="458" y="-175.5" font-family="Helvetica,sans-Serif" font-size="10.00">Desc/RISCVMCTargetDesc.h</text>
</g>
<!-- Node1 -->
<g id="node2" class="node">
<title>Node1</title>
<polygon fill="none" stroke="#bfbfbf" points="0,-112.5 0,-131.5 104,-131.5 104,-112.5 0,-112.5"/>
<text text-anchor="middle" x="52" y="-119.5" font-family="Helvetica,sans-Serif" font-size="10.00">llvm/Config/config.h</text>
</g>
<!-- Node0&#45;&gt;Node1 -->
<g id="edge1" class="edge">
<title>Node0&#45;&gt;Node1</title>
<path fill="none" stroke="midnightblue" d="M383.29,-171.59C315.73,-161.72 213.21,-146.72 114.41,-132.21"/>
<polygon fill="midnightblue" stroke="midnightblue" points="114.65,-128.7 104.24,-130.71 113.63,-135.63 114.65,-128.7"/>
</g>
<!-- Node2 -->
<g id="node3" class="node">
<title>Node2</title>
<g id="a_node3"><a xlink:href="MCTargetOptions_8h.html" target="_top" xlink:title="llvm/MC/MCTargetOptions.h">
<polygon fill="none" stroke="black" points="122,-112.5 122,-131.5 264,-131.5 264,-112.5 122,-112.5"/>
<text text-anchor="middle" x="193" y="-119.5" font-family="Helvetica,sans-Serif" font-size="10.00">llvm/MC/MCTargetOptions.h</text>
</a>
</g>
</g>
<!-- Node0&#45;&gt;Node2 -->
<g id="edge2" class="edge">
<title>Node0&#45;&gt;Node2</title>
<path fill="none" stroke="midnightblue" d="M395.53,-168.47C348.22,-157.85 284.18,-143.47 240.88,-133.75"/>
<polygon fill="midnightblue" stroke="midnightblue" points="241.41,-130.28 230.89,-131.51 239.88,-137.11 241.41,-130.28"/>
</g>
<!-- Node5 -->
<g id="node6" class="node">
<title>Node5</title>
<g id="a_node6"><a xlink:href="Support_2DataTypes_8h.html" target="_top" xlink:title="llvm/Support/DataTypes.h">
<polygon fill="none" stroke="black" points="282.5,-112.5 282.5,-131.5 413.5,-131.5 413.5,-112.5 282.5,-112.5"/>
<text text-anchor="middle" x="348" y="-119.5" font-family="Helvetica,sans-Serif" font-size="10.00">llvm/Support/DataTypes.h</text>
</a>
</g>
</g>
<!-- Node0&#45;&gt;Node5 -->
<g id="edge5" class="edge">
<title>Node0&#45;&gt;Node5</title>
<path fill="none" stroke="midnightblue" d="M431.93,-168.4C414.13,-158.77 390.69,-146.09 373.1,-136.58"/>
<polygon fill="midnightblue" stroke="midnightblue" points="374.47,-133.34 364.01,-131.66 371.14,-139.49 374.47,-133.34"/>
</g>
<!-- Node11 -->
<g id="node12" class="node">
<title>Node11</title>
<polygon fill="none" stroke="#bfbfbf" points="432,-112.5 432,-131.5 484,-131.5 484,-112.5 432,-112.5"/>
<text text-anchor="middle" x="458" y="-119.5" font-family="Helvetica,sans-Serif" font-size="10.00">memory</text>
</g>
<!-- Node0&#45;&gt;Node11 -->
<g id="edge11" class="edge">
<title>Node0&#45;&gt;Node11</title>
<path fill="none" stroke="midnightblue" d="M458,-168.4C458,-160.47 458,-150.46 458,-141.86"/>
<polygon fill="midnightblue" stroke="midnightblue" points="461.5,-141.66 458,-131.66 454.5,-141.66 461.5,-141.66"/>
</g>
<!-- Node12 -->
<g id="node13" class="node">
<title>Node12</title>
<polygon fill="none" stroke="#bfbfbf" points="502.5,-112.5 502.5,-131.5 637.5,-131.5 637.5,-112.5 502.5,-112.5"/>
<text text-anchor="middle" x="570" y="-119.5" font-family="Helvetica,sans-Serif" font-size="10.00">RISCVGenRegisterInfo.inc</text>
</g>
<!-- Node0&#45;&gt;Node12 -->
<g id="edge12" class="edge">
<title>Node0&#45;&gt;Node12</title>
<path fill="none" stroke="midnightblue" d="M484.54,-168.4C502.66,-158.77 526.54,-146.09 544.44,-136.58"/>
<polygon fill="midnightblue" stroke="midnightblue" points="546.51,-139.44 553.7,-131.66 543.23,-133.26 546.51,-139.44"/>
</g>
<!-- Node13 -->
<g id="node14" class="node">
<title>Node13</title>
<polygon fill="none" stroke="#bfbfbf" points="656,-112.5 656,-131.5 774,-131.5 774,-112.5 656,-112.5"/>
<text text-anchor="middle" x="715" y="-119.5" font-family="Helvetica,sans-Serif" font-size="10.00">RISCVGenInstrInfo.inc</text>
</g>
<!-- Node0&#45;&gt;Node13 -->
<g id="edge13" class="edge">
<title>Node0&#45;&gt;Node13</title>
<path fill="none" stroke="midnightblue" d="M518.58,-168.47C564.37,-157.87 626.31,-143.53 668.3,-133.81"/>
<polygon fill="midnightblue" stroke="midnightblue" points="669.31,-137.17 678.26,-131.51 667.73,-130.35 669.31,-137.17"/>
</g>
<!-- Node14 -->
<g id="node15" class="node">
<title>Node14</title>
<polygon fill="none" stroke="#bfbfbf" points="792,-112.5 792,-131.5 932,-131.5 932,-112.5 792,-112.5"/>
<text text-anchor="middle" x="862" y="-119.5" font-family="Helvetica,sans-Serif" font-size="10.00">RISCVGenSubtargetInfo.inc</text>
</g>
<!-- Node0&#45;&gt;Node14 -->
<g id="edge14" class="edge">
<title>Node0&#45;&gt;Node14</title>
<path fill="none" stroke="midnightblue" d="M532.57,-171.52C607.48,-160.49 721.9,-143.63 794.28,-132.97"/>
<polygon fill="midnightblue" stroke="midnightblue" points="794.82,-136.43 804.2,-131.51 793.8,-129.51 794.82,-136.43"/>
</g>
<!-- Node3 -->
<g id="node4" class="node">
<title>Node3</title>
<polygon fill="none" stroke="#bfbfbf" points="142.5,-56.5 142.5,-75.5 183.5,-75.5 183.5,-56.5 142.5,-56.5"/>
<text text-anchor="middle" x="163" y="-63.5" font-family="Helvetica,sans-Serif" font-size="10.00">string</text>
</g>
<!-- Node2&#45;&gt;Node3 -->
<g id="edge3" class="edge">
<title>Node2&#45;&gt;Node3</title>
<path fill="none" stroke="midnightblue" d="M188.05,-112.08C183.9,-104.61 177.85,-93.72 172.73,-84.52"/>
<polygon fill="midnightblue" stroke="midnightblue" points="175.78,-82.79 167.86,-75.75 169.66,-86.19 175.78,-82.79"/>
</g>
<!-- Node4 -->
<g id="node5" class="node">
<title>Node4</title>
<polygon fill="none" stroke="#bfbfbf" points="202,-56.5 202,-75.5 246,-75.5 246,-56.5 202,-56.5"/>
<text text-anchor="middle" x="224" y="-63.5" font-family="Helvetica,sans-Serif" font-size="10.00">vector</text>
</g>
<!-- Node2&#45;&gt;Node4 -->
<g id="edge4" class="edge">
<title>Node2&#45;&gt;Node4</title>
<path fill="none" stroke="midnightblue" d="M198.12,-112.08C202.41,-104.61 208.66,-93.72 213.94,-84.52"/>
<polygon fill="midnightblue" stroke="midnightblue" points="217.03,-86.17 218.98,-75.75 210.96,-82.68 217.03,-86.17"/>
</g>
<!-- Node6 -->
<g id="node7" class="node">
<title>Node6</title>
<g id="a_node7"><a xlink:href="c_2DataTypes_8h.html" target="_top" xlink:title="llvm&#45;c/DataTypes.h">
<polygon fill="none" stroke="black" points="297,-56.5 297,-75.5 399,-75.5 399,-56.5 297,-56.5"/>
<text text-anchor="middle" x="348" y="-63.5" font-family="Helvetica,sans-Serif" font-size="10.00">llvm&#45;c/DataTypes.h</text>
</a>
</g>
</g>
<!-- Node5&#45;&gt;Node6 -->
<g id="edge6" class="edge">
<title>Node5&#45;&gt;Node6</title>
<path fill="none" stroke="midnightblue" d="M348,-112.08C348,-105.01 348,-94.86 348,-85.99"/>
<polygon fill="midnightblue" stroke="midnightblue" points="351.5,-85.75 348,-75.75 344.5,-85.75 351.5,-85.75"/>
</g>
<!-- Node7 -->
<g id="node8" class="node">
<title>Node7</title>
<polygon fill="none" stroke="#bfbfbf" points="217.5,-0.5 217.5,-19.5 264.5,-19.5 264.5,-0.5 217.5,-0.5"/>
<text text-anchor="middle" x="241" y="-7.5" font-family="Helvetica,sans-Serif" font-size="10.00">math.h</text>
</g>
<!-- Node6&#45;&gt;Node7 -->
<g id="edge7" class="edge">
<title>Node6&#45;&gt;Node7</title>
<path fill="none" stroke="midnightblue" d="M330.81,-56.32C313.65,-47.66 287.05,-34.24 267.25,-24.25"/>
<polygon fill="midnightblue" stroke="midnightblue" points="268.65,-21.04 258.15,-19.65 265.5,-27.28 268.65,-21.04"/>
</g>
<!-- Node8 -->
<g id="node9" class="node">
<title>Node8</title>
<polygon fill="none" stroke="#bfbfbf" points="282.5,-0.5 282.5,-19.5 341.5,-19.5 341.5,-0.5 282.5,-0.5"/>
<text text-anchor="middle" x="312" y="-7.5" font-family="Helvetica,sans-Serif" font-size="10.00">inttypes.h</text>
</g>
<!-- Node6&#45;&gt;Node8 -->
<g id="edge8" class="edge">
<title>Node6&#45;&gt;Node8</title>
<path fill="none" stroke="midnightblue" d="M342.06,-56.08C337.02,-48.53 329.66,-37.49 323.49,-28.23"/>
<polygon fill="midnightblue" stroke="midnightblue" points="326.29,-26.13 317.83,-19.75 320.47,-30.01 326.29,-26.13"/>
</g>
<!-- Node9 -->
<g id="node10" class="node">
<title>Node9</title>
<polygon fill="none" stroke="#bfbfbf" points="359.5,-0.5 359.5,-19.5 408.5,-19.5 408.5,-0.5 359.5,-0.5"/>
<text text-anchor="middle" x="384" y="-7.5" font-family="Helvetica,sans-Serif" font-size="10.00">stdint.h</text>
</g>
<!-- Node6&#45;&gt;Node9 -->
<g id="edge9" class="edge">
<title>Node6&#45;&gt;Node9</title>
<path fill="none" stroke="midnightblue" d="M353.94,-56.08C358.98,-48.53 366.34,-37.49 372.51,-28.23"/>
<polygon fill="midnightblue" stroke="midnightblue" points="375.53,-30.01 378.17,-19.75 369.71,-26.13 375.53,-30.01"/>
</g>
<!-- Node10 -->
<g id="node11" class="node">
<title>Node10</title>
<polygon fill="none" stroke="#bfbfbf" points="427,-0.5 427,-19.5 495,-19.5 495,-0.5 427,-0.5"/>
<text text-anchor="middle" x="461" y="-7.5" font-family="Helvetica,sans-Serif" font-size="10.00">sys/types.h</text>
</g>
<!-- Node6&#45;&gt;Node10 -->
<g id="edge10" class="edge">
<title>Node6&#45;&gt;Node10</title>
<path fill="none" stroke="midnightblue" d="M365.91,-56.44C384.25,-47.68 413.01,-33.94 434.09,-23.86"/>
<polygon fill="midnightblue" stroke="midnightblue" points="435.67,-26.99 443.18,-19.52 432.65,-20.67 435.67,-26.99"/>
</g>
</g>
</svg>
