<?xml version="1.0" encoding="UTF-8" standalone="no"?>
<!DOCTYPE svg PUBLIC "-//W3C//DTD SVG 1.1//EN"
 "http://www.w3.org/Graphics/SVG/1.1/DTD/svg11.dtd">
<!-- Generated by graphviz version 2.43.0 (0)
 -->
<!-- Title: include/llvm/ADT/SCCIterator.h Pages: 1 -->
<svg width="2359pt" height="162pt"
 viewBox="0.00 0.00 2358.50 162.00" xmlns="http://www.w3.org/2000/svg" xmlns:xlink="http://www.w3.org/1999/xlink">
<g id="graph0" class="graph" transform="scale(1 1) rotate(0) translate(4 158)">
<title>include/llvm/ADT/SCCIterator.h</title>
<!-- Node54 -->
<g id="node1" class="node">
<title>Node54</title>
<polygon fill="#bfbfbf" stroke="black" points="1190.5,-134.5 1190.5,-153.5 1345.5,-153.5 1345.5,-134.5 1190.5,-134.5"/>
<text text-anchor="middle" x="1268" y="-141.5" font-family="Helvetica,sans-Serif" font-size="10.00">include/llvm/ADT/SCCIterator.h</text>
</g>
<!-- Node55 -->
<g id="node2" class="node">
<title>Node55</title>
<g id="a_node2"><a xlink:href="Attributor_8h.html" target="_top" xlink:title="include/llvm/Transforms\l/IPO/Attributor.h">
<polygon fill="none" stroke="black" points="236.5,-67.5 236.5,-97.5 357.5,-97.5 357.5,-67.5 236.5,-67.5"/>
<text text-anchor="start" x="244.5" y="-85.5" font-family="Helvetica,sans-Serif" font-size="10.00">include/llvm/Transforms</text>
<text text-anchor="middle" x="297" y="-74.5" font-family="Helvetica,sans-Serif" font-size="10.00">/IPO/Attributor.h</text>
</a>
</g>
</g>
<!-- Node54&#45;&gt;Node55 -->
<g id="edge1" class="edge">
<title>Node54&#45;&gt;Node55</title>
<path fill="none" stroke="midnightblue" d="M1179.84,-143.1C1018.07,-142.28 663.24,-135.85 367,-98 363.92,-97.61 360.78,-97.15 357.61,-96.65"/>
<polygon fill="midnightblue" stroke="midnightblue" points="1180.19,-146.6 1190.21,-143.14 1180.22,-139.6 1180.19,-146.6"/>
</g>
<!-- Node60 -->
<g id="node7" class="node">
<title>Node60</title>
<g id="a_node7"><a xlink:href="BlockFrequencyInfoImpl_8cpp.html" target="_top" xlink:title="lib/Analysis/BlockFrequency\lInfoImpl.cpp">
<polygon fill="none" stroke="black" points="376,-67.5 376,-97.5 516,-97.5 516,-67.5 376,-67.5"/>
<text text-anchor="start" x="384" y="-85.5" font-family="Helvetica,sans-Serif" font-size="10.00">lib/Analysis/BlockFrequency</text>
<text text-anchor="middle" x="446" y="-74.5" font-family="Helvetica,sans-Serif" font-size="10.00">InfoImpl.cpp</text>
</a>
</g>
</g>
<!-- Node54&#45;&gt;Node60 -->
<g id="edge6" class="edge">
<title>Node54&#45;&gt;Node60</title>
<path fill="none" stroke="midnightblue" d="M1180.25,-141.12C1040.93,-137.37 760.76,-126.67 525,-98 522.09,-97.65 519.13,-97.25 516.14,-96.83"/>
<polygon fill="midnightblue" stroke="midnightblue" points="1180.35,-144.63 1190.44,-141.39 1180.54,-137.63 1180.35,-144.63"/>
</g>
<!-- Node61 -->
<g id="node8" class="node">
<title>Node61</title>
<g id="a_node8"><a xlink:href="BranchProbabilityInfo_8cpp.html" target="_top" xlink:title="lib/Analysis/BranchProbability\lInfo.cpp">
<polygon fill="none" stroke="black" points="534,-67.5 534,-97.5 680,-97.5 680,-67.5 534,-67.5"/>
<text text-anchor="start" x="542" y="-85.5" font-family="Helvetica,sans-Serif" font-size="10.00">lib/Analysis/BranchProbability</text>
<text text-anchor="middle" x="607" y="-74.5" font-family="Helvetica,sans-Serif" font-size="10.00">Info.cpp</text>
</a>
</g>
</g>
<!-- Node54&#45;&gt;Node61 -->
<g id="edge7" class="edge">
<title>Node54&#45;&gt;Node61</title>
<path fill="none" stroke="midnightblue" d="M1180.45,-138.86C1066.83,-132.87 862.55,-120.04 689,-98 686.13,-97.64 683.21,-97.24 680.26,-96.82"/>
<polygon fill="midnightblue" stroke="midnightblue" points="1180.32,-142.36 1190.49,-139.38 1180.69,-135.37 1180.32,-142.36"/>
</g>
<!-- Node62 -->
<g id="node9" class="node">
<title>Node62</title>
<g id="a_node9"><a xlink:href="CallGraphSCCPass_8cpp.html" target="_top" xlink:title="lib/Analysis/CallGraphSCCPass.cpp">
<polygon fill="none" stroke="black" points="698,-73 698,-92 874,-92 874,-73 698,-73"/>
<text text-anchor="middle" x="786" y="-80" font-family="Helvetica,sans-Serif" font-size="10.00">lib/Analysis/CallGraphSCCPass.cpp</text>
</a>
</g>
</g>
<!-- Node54&#45;&gt;Node62 -->
<g id="edge8" class="edge">
<title>Node54&#45;&gt;Node62</title>
<path fill="none" stroke="midnightblue" d="M1180.2,-133.55C1102.1,-124.95 984.83,-111.56 883,-98 869.33,-96.18 854.6,-94.06 840.85,-92.01"/>
<polygon fill="midnightblue" stroke="midnightblue" points="1180.16,-137.06 1190.48,-134.68 1180.92,-130.11 1180.16,-137.06"/>
</g>
<!-- Node63 -->
<g id="node10" class="node">
<title>Node63</title>
<g id="a_node10"><a xlink:href="DDG_8cpp.html" target="_top" xlink:title="lib/Analysis/DDG.cpp">
<polygon fill="none" stroke="black" points="891.5,-73 891.5,-92 1002.5,-92 1002.5,-73 891.5,-73"/>
<text text-anchor="middle" x="947" y="-80" font-family="Helvetica,sans-Serif" font-size="10.00">lib/Analysis/DDG.cpp</text>
</a>
</g>
</g>
<!-- Node54&#45;&gt;Node63 -->
<g id="edge9" class="edge">
<title>Node54&#45;&gt;Node63</title>
<path fill="none" stroke="midnightblue" d="M1205.35,-132.8C1153.43,-124.16 1077.76,-111.11 1012,-98 1002.93,-96.19 993.18,-94.1 984.06,-92.07"/>
<polygon fill="midnightblue" stroke="midnightblue" points="1204.97,-136.29 1215.41,-134.47 1206.12,-129.38 1204.97,-136.29"/>
</g>
<!-- Node64 -->
<g id="node11" class="node">
<title>Node64</title>
<g id="a_node11"><a xlink:href="DependenceGraphBuilder_8cpp.html" target="_top" xlink:title="lib/Analysis/DependenceGraph\lBuilder.cpp">
<polygon fill="none" stroke="black" points="1020.5,-67.5 1020.5,-97.5 1171.5,-97.5 1171.5,-67.5 1020.5,-67.5"/>
<text text-anchor="start" x="1028.5" y="-85.5" font-family="Helvetica,sans-Serif" font-size="10.00">lib/Analysis/DependenceGraph</text>
<text text-anchor="middle" x="1096" y="-74.5" font-family="Helvetica,sans-Serif" font-size="10.00">Builder.cpp</text>
</a>
</g>
</g>
<!-- Node54&#45;&gt;Node64 -->
<g id="edge10" class="edge">
<title>Node54&#45;&gt;Node64</title>
<path fill="none" stroke="midnightblue" d="M1233.61,-131.1C1205.62,-121.42 1166.06,-107.74 1136.54,-97.52"/>
<polygon fill="midnightblue" stroke="midnightblue" points="1232.76,-134.51 1243.36,-134.48 1235.05,-127.9 1232.76,-134.51"/>
</g>
<!-- Node65 -->
<g id="node12" class="node">
<title>Node65</title>
<g id="a_node12"><a xlink:href="GlobalsModRef_8cpp.html" target="_top" xlink:title="lib/Analysis/GlobalsModRef.cpp">
<polygon fill="none" stroke="black" points="1190,-73 1190,-92 1346,-92 1346,-73 1190,-73"/>
<text text-anchor="middle" x="1268" y="-80" font-family="Helvetica,sans-Serif" font-size="10.00">lib/Analysis/GlobalsModRef.cpp</text>
</a>
</g>
</g>
<!-- Node54&#45;&gt;Node65 -->
<g id="edge11" class="edge">
<title>Node54&#45;&gt;Node65</title>
<path fill="none" stroke="midnightblue" d="M1268,-124.32C1268,-113.5 1268,-100.4 1268,-92.01"/>
<polygon fill="midnightblue" stroke="midnightblue" points="1264.5,-124.48 1268,-134.48 1271.5,-124.48 1264.5,-124.48"/>
</g>
<!-- Node66 -->
<g id="node13" class="node">
<title>Node66</title>
<g id="a_node13"><a xlink:href="SyntheticCountsUtils_8cpp.html" target="_top" xlink:title="lib/Analysis/SyntheticCounts\lUtils.cpp">
<polygon fill="none" stroke="black" points="1364.5,-67.5 1364.5,-97.5 1507.5,-97.5 1507.5,-67.5 1364.5,-67.5"/>
<text text-anchor="start" x="1372.5" y="-85.5" font-family="Helvetica,sans-Serif" font-size="10.00">lib/Analysis/SyntheticCounts</text>
<text text-anchor="middle" x="1436" y="-74.5" font-family="Helvetica,sans-Serif" font-size="10.00">Utils.cpp</text>
</a>
</g>
</g>
<!-- Node54&#45;&gt;Node66 -->
<g id="edge12" class="edge">
<title>Node54&#45;&gt;Node66</title>
<path fill="none" stroke="midnightblue" d="M1301.59,-131.1C1328.93,-121.42 1367.57,-107.74 1396.41,-97.52"/>
<polygon fill="midnightblue" stroke="midnightblue" points="1300.33,-127.84 1292.07,-134.48 1302.67,-134.44 1300.33,-127.84"/>
</g>
<!-- Node67 -->
<g id="node14" class="node">
<title>Node67</title>
<g id="a_node14"><a xlink:href="ModuleSummaryIndex_8cpp.html" target="_top" xlink:title="lib/IR/ModuleSummaryIndex.cpp">
<polygon fill="none" stroke="black" points="1525.5,-73 1525.5,-92 1684.5,-92 1684.5,-73 1525.5,-73"/>
<text text-anchor="middle" x="1605" y="-80" font-family="Helvetica,sans-Serif" font-size="10.00">lib/IR/ModuleSummaryIndex.cpp</text>
</a>
</g>
</g>
<!-- Node54&#45;&gt;Node67 -->
<g id="edge13" class="edge">
<title>Node54&#45;&gt;Node67</title>
<path fill="none" stroke="midnightblue" d="M1326.41,-132.69C1391.64,-121.17 1496.04,-102.74 1556.81,-92.01"/>
<polygon fill="midnightblue" stroke="midnightblue" points="1325.52,-129.29 1316.28,-134.48 1326.74,-136.18 1325.52,-129.29"/>
</g>
<!-- Node68 -->
<g id="node15" class="node">
<title>Node68</title>
<g id="a_node15"><a xlink:href="AMDILCFGStructurizer_8cpp.html" target="_top" xlink:title="lib/Target/AMDGPU/AMDILCFGStructurizer.cpp">
<polygon fill="none" stroke="black" points="1703,-73 1703,-92 1931,-92 1931,-73 1703,-73"/>
<text text-anchor="middle" x="1817" y="-80" font-family="Helvetica,sans-Serif" font-size="10.00">lib/Target/AMDGPU/AMDILCFGStructurizer.cpp</text>
</a>
</g>
</g>
<!-- Node54&#45;&gt;Node68 -->
<g id="edge14" class="edge">
<title>Node54&#45;&gt;Node68</title>
<path fill="none" stroke="midnightblue" d="M1355.76,-134.04C1441.92,-125.18 1577.05,-111.07 1694,-98 1710.88,-96.11 1729.06,-94.01 1746.12,-92"/>
<polygon fill="midnightblue" stroke="midnightblue" points="1355.36,-130.57 1345.77,-135.07 1356.07,-137.53 1355.36,-130.57"/>
</g>
<!-- Node69 -->
<g id="node16" class="node">
<title>Node69</title>
<g id="a_node16"><a xlink:href="WebAssemblyRegNumbering_8cpp.html" target="_top" xlink:title="This file implements a pass which assigns WebAssembly register numbers for CodeGen virtual registers...">
<polygon fill="none" stroke="black" points="1949.5,-67.5 1949.5,-97.5 2116.5,-97.5 2116.5,-67.5 1949.5,-67.5"/>
<text text-anchor="start" x="1957.5" y="-85.5" font-family="Helvetica,sans-Serif" font-size="10.00">lib/Target/WebAssembly</text>
<text text-anchor="middle" x="2033" y="-74.5" font-family="Helvetica,sans-Serif" font-size="10.00">/WebAssemblyRegNumbering.cpp</text>
</a>
</g>
</g>
<!-- Node54&#45;&gt;Node69 -->
<g id="edge15" class="edge">
<title>Node54&#45;&gt;Node69</title>
<path fill="none" stroke="midnightblue" d="M1355.73,-139.59C1484.24,-134.03 1731.1,-121.23 1940,-98 1943.09,-97.66 1946.23,-97.28 1949.39,-96.89"/>
<polygon fill="midnightblue" stroke="midnightblue" points="1355.39,-136.1 1345.55,-140.02 1355.69,-143.09 1355.39,-136.1"/>
</g>
<!-- Node70 -->
<g id="node17" class="node">
<title>Node70</title>
<g id="a_node17"><a xlink:href="FunctionAttrs_8cpp.html" target="_top" xlink:title="This file implements interprocedural passes which walk the call&#45;graph deducing and/or propagating fun...">
<polygon fill="none" stroke="black" points="2134.5,-67.5 2134.5,-97.5 2233.5,-97.5 2233.5,-67.5 2134.5,-67.5"/>
<text text-anchor="start" x="2142.5" y="-85.5" font-family="Helvetica,sans-Serif" font-size="10.00">lib/Transforms/IPO</text>
<text text-anchor="middle" x="2184" y="-74.5" font-family="Helvetica,sans-Serif" font-size="10.00">/FunctionAttrs.cpp</text>
</a>
</g>
</g>
<!-- Node54&#45;&gt;Node70 -->
<g id="edge16" class="edge">
<title>Node54&#45;&gt;Node70</title>
<path fill="none" stroke="midnightblue" d="M1355.71,-143.95C1511.62,-144.4 1846.87,-139.81 2126,-98 2128.77,-97.58 2131.6,-97.1 2134.45,-96.55"/>
<polygon fill="midnightblue" stroke="midnightblue" points="1355.72,-140.45 1345.7,-143.91 1355.69,-147.45 1355.72,-140.45"/>
</g>
<!-- Node71 -->
<g id="node18" class="node">
<title>Node71</title>
<g id="a_node18"><a xlink:href="SampleProfile_8cpp.html" target="_top" xlink:title="lib/Transforms/IPO\l/SampleProfile.cpp">
<polygon fill="none" stroke="black" points="2251.5,-67.5 2251.5,-97.5 2350.5,-97.5 2350.5,-67.5 2251.5,-67.5"/>
<text text-anchor="start" x="2259.5" y="-85.5" font-family="Helvetica,sans-Serif" font-size="10.00">lib/Transforms/IPO</text>
<text text-anchor="middle" x="2301" y="-74.5" font-family="Helvetica,sans-Serif" font-size="10.00">/SampleProfile.cpp</text>
</a>
</g>
</g>
<!-- Node54&#45;&gt;Node71 -->
<g id="edge17" class="edge">
<title>Node54&#45;&gt;Node71</title>
<path fill="none" stroke="midnightblue" d="M1355.84,-141.18C1562.2,-136.55 2073.28,-122.88 2243,-98 2245.77,-97.59 2248.61,-97.11 2251.46,-96.57"/>
<polygon fill="midnightblue" stroke="midnightblue" points="1355.57,-137.69 1345.65,-141.41 1355.73,-144.69 1355.57,-137.69"/>
</g>
<!-- Node56 -->
<g id="node3" class="node">
<title>Node56</title>
<g id="a_node3"><a xlink:href="LinkAllPasses_8h.html" target="_top" xlink:title="include/llvm/LinkAllPasses.h">
<polygon fill="none" stroke="black" points="0,-6 0,-25 142,-25 142,-6 0,-6"/>
<text text-anchor="middle" x="71" y="-13" font-family="Helvetica,sans-Serif" font-size="10.00">include/llvm/LinkAllPasses.h</text>
</a>
</g>
</g>
<!-- Node55&#45;&gt;Node56 -->
<g id="edge2" class="edge">
<title>Node55&#45;&gt;Node56</title>
<path fill="none" stroke="midnightblue" d="M238.49,-64.67C194.32,-51.97 135.55,-35.06 100.65,-25.03"/>
<polygon fill="midnightblue" stroke="midnightblue" points="237.66,-68.08 248.24,-67.48 239.6,-61.35 237.66,-68.08"/>
</g>
<!-- Node57 -->
<g id="node4" class="node">
<title>Node57</title>
<g id="a_node4"><a xlink:href="PassBuilder_8cpp.html" target="_top" xlink:title="This file provides the implementation of the PassBuilder based on our static pass registry as well as...">
<polygon fill="none" stroke="black" points="160.5,-6 160.5,-25 297.5,-25 297.5,-6 160.5,-6"/>
<text text-anchor="middle" x="229" y="-13" font-family="Helvetica,sans-Serif" font-size="10.00">lib/Passes/PassBuilder.cpp</text>
</a>
</g>
</g>
<!-- Node55&#45;&gt;Node57 -->
<g id="edge3" class="edge">
<title>Node55&#45;&gt;Node57</title>
<path fill="none" stroke="midnightblue" d="M274.86,-60.34C262.37,-48.4 247.45,-34.14 238.1,-25.19"/>
<polygon fill="midnightblue" stroke="midnightblue" points="272.6,-63.02 282.25,-67.4 277.43,-57.96 272.6,-63.02"/>
</g>
<!-- Node58 -->
<g id="node5" class="node">
<title>Node58</title>
<g id="a_node5"><a xlink:href="Attributor_8cpp.html" target="_top" xlink:title="lib/Transforms/IPO\l/Attributor.cpp">
<polygon fill="none" stroke="black" points="315.5,-0.5 315.5,-30.5 414.5,-30.5 414.5,-0.5 315.5,-0.5"/>
<text text-anchor="start" x="323.5" y="-18.5" font-family="Helvetica,sans-Serif" font-size="10.00">lib/Transforms/IPO</text>
<text text-anchor="middle" x="365" y="-7.5" font-family="Helvetica,sans-Serif" font-size="10.00">/Attributor.cpp</text>
</a>
</g>
</g>
<!-- Node55&#45;&gt;Node58 -->
<g id="edge4" class="edge">
<title>Node55&#45;&gt;Node58</title>
<path fill="none" stroke="midnightblue" d="M319.17,-60.31C329.37,-50.56 341.19,-39.26 350.27,-30.58"/>
<polygon fill="midnightblue" stroke="midnightblue" points="316.57,-57.96 311.75,-67.4 321.4,-63.02 316.57,-57.96"/>
</g>
<!-- Node59 -->
<g id="node6" class="node">
<title>Node59</title>
<g id="a_node6"><a xlink:href="PassManagerBuilder_8cpp.html" target="_top" xlink:title="lib/Transforms/IPO\l/PassManagerBuilder.cpp">
<polygon fill="none" stroke="black" points="433,-0.5 433,-30.5 561,-30.5 561,-0.5 433,-0.5"/>
<text text-anchor="start" x="441" y="-18.5" font-family="Helvetica,sans-Serif" font-size="10.00">lib/Transforms/IPO</text>
<text text-anchor="middle" x="497" y="-7.5" font-family="Helvetica,sans-Serif" font-size="10.00">/PassManagerBuilder.cpp</text>
</a>
</g>
</g>
<!-- Node55&#45;&gt;Node59 -->
<g id="edge5" class="edge">
<title>Node55&#45;&gt;Node59</title>
<path fill="none" stroke="midnightblue" d="M350.15,-64.23C382.5,-53.71 423.31,-40.45 453.69,-30.58"/>
<polygon fill="midnightblue" stroke="midnightblue" points="348.83,-60.98 340.4,-67.4 350.99,-67.63 348.83,-60.98"/>
</g>
</g>
</svg>
