<?xml version="1.0" encoding="UTF-8" standalone="no"?>
<!DOCTYPE svg PUBLIC "-//W3C//DTD SVG 1.1//EN"
 "http://www.w3.org/Graphics/SVG/1.1/DTD/svg11.dtd">
<!-- Generated by graphviz version 2.43.0 (0)
 -->
<!-- Title: include/llvm/ADT/SetOperations.h Pages: 1 -->
<svg width="884pt" height="95pt"
 viewBox="0.00 0.00 884.00 95.00" xmlns="http://www.w3.org/2000/svg" xmlns:xlink="http://www.w3.org/1999/xlink">
<g id="graph0" class="graph" transform="scale(1 1) rotate(0) translate(4 91)">
<title>include/llvm/ADT/SetOperations.h</title>
<!-- Node1 -->
<g id="node1" class="node">
<title>Node1</title>
<polygon fill="#bfbfbf" stroke="black" points="419.5,-67.5 419.5,-86.5 584.5,-86.5 584.5,-67.5 419.5,-67.5"/>
<text text-anchor="middle" x="502" y="-74.5" font-family="Helvetica,sans-Serif" font-size="10.00">include/llvm/ADT/SetOperations.h</text>
</g>
<!-- Node2 -->
<g id="node2" class="node">
<title>Node2</title>
<g id="a_node2"><a xlink:href="MachineVerifier_8cpp.html" target="_top" xlink:title="lib/CodeGen/MachineVerifier.cpp">
<polygon fill="none" stroke="black" points="0,-6 0,-25 160,-25 160,-6 0,-6"/>
<text text-anchor="middle" x="80" y="-13" font-family="Helvetica,sans-Serif" font-size="10.00">lib/CodeGen/MachineVerifier.cpp</text>
</a>
</g>
</g>
<!-- Node1&#45;&gt;Node2 -->
<g id="edge1" class="edge">
<title>Node1&#45;&gt;Node2</title>
<path fill="none" stroke="midnightblue" d="M424.82,-66.17C357.27,-57.43 256.54,-44.04 169,-31 156.61,-29.15 143.28,-27.05 130.79,-25.02"/>
<polygon fill="midnightblue" stroke="midnightblue" points="424.59,-69.67 434.95,-67.48 425.48,-62.73 424.59,-69.67"/>
</g>
<!-- Node3 -->
<g id="node3" class="node">
<title>Node3</title>
<g id="a_node3"><a xlink:href="SafepointIRVerifier_8cpp.html" target="_top" xlink:title="lib/IR/SafepointIRVerifier.cpp">
<polygon fill="none" stroke="black" points="178,-6 178,-25 322,-25 322,-6 178,-6"/>
<text text-anchor="middle" x="250" y="-13" font-family="Helvetica,sans-Serif" font-size="10.00">lib/IR/SafepointIRVerifier.cpp</text>
</a>
</g>
</g>
<!-- Node1&#45;&gt;Node3 -->
<g id="edge2" class="edge">
<title>Node1&#45;&gt;Node3</title>
<path fill="none" stroke="midnightblue" d="M455.89,-65.11C406.98,-53.57 330.73,-35.56 286.04,-25.01"/>
<polygon fill="midnightblue" stroke="midnightblue" points="455.36,-68.58 465.89,-67.48 456.97,-61.77 455.36,-68.58"/>
</g>
<!-- Node4 -->
<g id="node4" class="node">
<title>Node4</title>
<g id="a_node4"><a xlink:href="ARMLowOverheadLoops_8cpp.html" target="_top" xlink:title="Finalize v8.1&#45;m low&#45;overhead loops by converting the associated pseudo instructions into machine oper...">
<polygon fill="none" stroke="black" points="340,-0.5 340,-30.5 508,-30.5 508,-0.5 340,-0.5"/>
<text text-anchor="start" x="348" y="-18.5" font-family="Helvetica,sans-Serif" font-size="10.00">lib/Target/ARM/ARMLowOverhead</text>
<text text-anchor="middle" x="424" y="-7.5" font-family="Helvetica,sans-Serif" font-size="10.00">Loops.cpp</text>
</a>
</g>
</g>
<!-- Node1&#45;&gt;Node4 -->
<g id="edge3" class="edge">
<title>Node1&#45;&gt;Node4</title>
<path fill="none" stroke="midnightblue" d="M482.59,-61.2C470.29,-51.81 454.48,-39.75 442.38,-30.52"/>
<polygon fill="midnightblue" stroke="midnightblue" points="480.75,-64.19 490.82,-67.48 485,-58.63 480.75,-64.19"/>
</g>
<!-- Node5 -->
<g id="node5" class="node">
<title>Node5</title>
<g id="a_node5"><a xlink:href="LICM_8cpp.html" target="_top" xlink:title="lib/Transforms/Scalar\l/LICM.cpp">
<polygon fill="none" stroke="black" points="526,-0.5 526,-30.5 636,-30.5 636,-0.5 526,-0.5"/>
<text text-anchor="start" x="534" y="-18.5" font-family="Helvetica,sans-Serif" font-size="10.00">lib/Transforms/Scalar</text>
<text text-anchor="middle" x="581" y="-7.5" font-family="Helvetica,sans-Serif" font-size="10.00">/LICM.cpp</text>
</a>
</g>
</g>
<!-- Node1&#45;&gt;Node5 -->
<g id="edge4" class="edge">
<title>Node1&#45;&gt;Node5</title>
<path fill="none" stroke="midnightblue" d="M521.66,-61.2C534.11,-51.81 550.13,-39.75 562.38,-30.52"/>
<polygon fill="midnightblue" stroke="midnightblue" points="519.2,-58.66 513.32,-67.48 523.41,-64.25 519.2,-58.66"/>
</g>
<!-- Node6 -->
<g id="node6" class="node">
<title>Node6</title>
<g id="a_node6"><a xlink:href="LoopSimplify_8cpp.html" target="_top" xlink:title="lib/Transforms/Utils\l/LoopSimplify.cpp">
<polygon fill="none" stroke="black" points="654,-0.5 654,-30.5 756,-30.5 756,-0.5 654,-0.5"/>
<text text-anchor="start" x="662" y="-18.5" font-family="Helvetica,sans-Serif" font-size="10.00">lib/Transforms/Utils</text>
<text text-anchor="middle" x="705" y="-7.5" font-family="Helvetica,sans-Serif" font-size="10.00">/LoopSimplify.cpp</text>
</a>
</g>
</g>
<!-- Node1&#45;&gt;Node6 -->
<g id="edge5" class="edge">
<title>Node1&#45;&gt;Node6</title>
<path fill="none" stroke="midnightblue" d="M540.86,-64.61C573.98,-54.9 621.7,-40.92 657.16,-30.52"/>
<polygon fill="midnightblue" stroke="midnightblue" points="539.7,-61.3 531.08,-67.48 541.67,-68.02 539.7,-61.3"/>
</g>
<!-- Node7 -->
<g id="node7" class="node">
<title>Node7</title>
<g id="a_node7"><a xlink:href="SimplifyCFG_8cpp.html" target="_top" xlink:title="lib/Transforms/Utils\l/SimplifyCFG.cpp">
<polygon fill="none" stroke="black" points="774,-0.5 774,-30.5 876,-30.5 876,-0.5 774,-0.5"/>
<text text-anchor="start" x="782" y="-18.5" font-family="Helvetica,sans-Serif" font-size="10.00">lib/Transforms/Utils</text>
<text text-anchor="middle" x="825" y="-7.5" font-family="Helvetica,sans-Serif" font-size="10.00">/SimplifyCFG.cpp</text>
</a>
</g>
</g>
<!-- Node1&#45;&gt;Node7 -->
<g id="edge6" class="edge">
<title>Node1&#45;&gt;Node7</title>
<path fill="none" stroke="midnightblue" d="M568.39,-65.91C621.71,-57.51 698.4,-44.73 765,-31 767.94,-30.39 770.95,-29.75 773.99,-29.08"/>
<polygon fill="midnightblue" stroke="midnightblue" points="567.72,-62.48 558.38,-67.48 568.81,-69.39 567.72,-62.48"/>
</g>
</g>
</svg>
