<?xml version="1.0" encoding="UTF-8" standalone="no"?>
<!DOCTYPE svg PUBLIC "-//W3C//DTD SVG 1.1//EN"
 "http://www.w3.org/Graphics/SVG/1.1/DTD/svg11.dtd">
<!-- Generated by graphviz version 2.43.0 (0)
 -->
<!-- Title: lib/Target/Sparc/MCTargetDesc/SparcInstPrinter.h Pages: 1 -->
<svg width="638pt" height="106pt"
 viewBox="0.00 0.00 638.00 106.00" xmlns="http://www.w3.org/2000/svg" xmlns:xlink="http://www.w3.org/1999/xlink">
<g id="graph0" class="graph" transform="scale(1 1) rotate(0) translate(4 102)">
<title>lib/Target/Sparc/MCTargetDesc/SparcInstPrinter.h</title>
<!-- Node49 -->
<g id="node1" class="node">
<title>Node49</title>
<polygon fill="#bfbfbf" stroke="black" points="247,-67.5 247,-97.5 379,-97.5 379,-67.5 247,-67.5"/>
<text text-anchor="start" x="255" y="-85.5" font-family="Helvetica,sans-Serif" font-size="10.00">lib/Target/Sparc/MCTarget</text>
<text text-anchor="middle" x="313" y="-74.5" font-family="Helvetica,sans-Serif" font-size="10.00">Desc/SparcInstPrinter.h</text>
</g>
<!-- Node50 -->
<g id="node2" class="node">
<title>Node50</title>
<g id="a_node2"><a xlink:href="SparcInstPrinter_8cpp.html" target="_top" xlink:title="lib/Target/Sparc/MCTarget\lDesc/SparcInstPrinter.cpp">
<polygon fill="none" stroke="black" points="0,-0.5 0,-30.5 132,-30.5 132,-0.5 0,-0.5"/>
<text text-anchor="start" x="8" y="-18.5" font-family="Helvetica,sans-Serif" font-size="10.00">lib/Target/Sparc/MCTarget</text>
<text text-anchor="middle" x="66" y="-7.5" font-family="Helvetica,sans-Serif" font-size="10.00">Desc/SparcInstPrinter.cpp</text>
</a>
</g>
</g>
<!-- Node49&#45;&gt;Node50 -->
<g id="edge1" class="edge">
<title>Node49&#45;&gt;Node50</title>
<path fill="none" stroke="midnightblue" d="M249.99,-64.92C209.68,-54.31 157.96,-40.7 119.62,-30.61"/>
<polygon fill="midnightblue" stroke="midnightblue" points="249.15,-68.32 259.71,-67.48 250.93,-61.55 249.15,-68.32"/>
</g>
<!-- Node51 -->
<g id="node3" class="node">
<title>Node51</title>
<g id="a_node3"><a xlink:href="SparcMCTargetDesc_8cpp.html" target="_top" xlink:title="lib/Target/Sparc/MCTarget\lDesc/SparcMCTargetDesc.cpp">
<polygon fill="none" stroke="black" points="150,-0.5 150,-30.5 304,-30.5 304,-0.5 150,-0.5"/>
<text text-anchor="start" x="158" y="-18.5" font-family="Helvetica,sans-Serif" font-size="10.00">lib/Target/Sparc/MCTarget</text>
<text text-anchor="middle" x="227" y="-7.5" font-family="Helvetica,sans-Serif" font-size="10.00">Desc/SparcMCTargetDesc.cpp</text>
</a>
</g>
</g>
<!-- Node49&#45;&gt;Node51 -->
<g id="edge2" class="edge">
<title>Node49&#45;&gt;Node51</title>
<path fill="none" stroke="midnightblue" d="M286.1,-61.17C272.95,-51.23 257.45,-39.51 245.62,-30.58"/>
<polygon fill="midnightblue" stroke="midnightblue" points="284.25,-64.16 294.34,-67.4 288.47,-58.57 284.25,-64.16"/>
</g>
<!-- Node52 -->
<g id="node4" class="node">
<title>Node52</title>
<g id="a_node4"><a xlink:href="SparcTargetStreamer_8cpp.html" target="_top" xlink:title="lib/Target/Sparc/MCTarget\lDesc/SparcTargetStreamer.cpp">
<polygon fill="none" stroke="black" points="322.5,-0.5 322.5,-30.5 477.5,-30.5 477.5,-0.5 322.5,-0.5"/>
<text text-anchor="start" x="330.5" y="-18.5" font-family="Helvetica,sans-Serif" font-size="10.00">lib/Target/Sparc/MCTarget</text>
<text text-anchor="middle" x="400" y="-7.5" font-family="Helvetica,sans-Serif" font-size="10.00">Desc/SparcTargetStreamer.cpp</text>
</a>
</g>
</g>
<!-- Node49&#45;&gt;Node52 -->
<g id="edge3" class="edge">
<title>Node49&#45;&gt;Node52</title>
<path fill="none" stroke="midnightblue" d="M340.21,-61.17C353.52,-51.23 369.2,-39.51 381.16,-30.58"/>
<polygon fill="midnightblue" stroke="midnightblue" points="337.79,-58.61 331.88,-67.4 341.98,-64.21 337.79,-58.61"/>
</g>
<!-- Node53 -->
<g id="node5" class="node">
<title>Node53</title>
<g id="a_node5"><a xlink:href="SparcAsmPrinter_8cpp.html" target="_top" xlink:title="lib/Target/Sparc/SparcAsm\lPrinter.cpp">
<polygon fill="none" stroke="black" points="496,-0.5 496,-30.5 630,-30.5 630,-0.5 496,-0.5"/>
<text text-anchor="start" x="504" y="-18.5" font-family="Helvetica,sans-Serif" font-size="10.00">lib/Target/Sparc/SparcAsm</text>
<text text-anchor="middle" x="563" y="-7.5" font-family="Helvetica,sans-Serif" font-size="10.00">Printer.cpp</text>
</a>
</g>
</g>
<!-- Node49&#45;&gt;Node53 -->
<g id="edge4" class="edge">
<title>Node49&#45;&gt;Node53</title>
<path fill="none" stroke="midnightblue" d="M376.78,-64.92C417.58,-54.31 469.93,-40.7 508.73,-30.61"/>
<polygon fill="midnightblue" stroke="midnightblue" points="375.74,-61.57 366.94,-67.48 377.5,-68.35 375.74,-61.57"/>
</g>
</g>
</svg>
