<?xml version="1.0" encoding="UTF-8" standalone="no"?>
<!DOCTYPE svg PUBLIC "-//W3C//DTD SVG 1.1//EN"
 "http://www.w3.org/Graphics/SVG/1.1/DTD/svg11.dtd">
<!-- Generated by graphviz version 2.43.0 (0)
 -->
<!-- Title: include/llvm/TableGen/StringMatcher.h Pages: 1 -->
<svg width="1557pt" height="375pt"
 viewBox="0.00 0.00 1557.23 375.00" xmlns="http://www.w3.org/2000/svg" xmlns:xlink="http://www.w3.org/1999/xlink">
<g id="graph0" class="graph" transform="scale(1 1) rotate(0) translate(4 371)">
<title>include/llvm/TableGen/StringMatcher.h</title>
<!-- Node0 -->
<g id="node1" class="node">
<title>Node0</title>
<polygon fill="#bfbfbf" stroke="black" points="633.26,-336.5 633.26,-366.5 746.26,-366.5 746.26,-336.5 633.26,-336.5"/>
<text text-anchor="start" x="641.26" y="-354.5" font-family="Helvetica,sans-Serif" font-size="10.00">include/llvm/TableGen</text>
<text text-anchor="middle" x="689.76" y="-343.5" font-family="Helvetica,sans-Serif" font-size="10.00">/StringMatcher.h</text>
</g>
<!-- Node1 -->
<g id="node2" class="node">
<title>Node1</title>
<g id="a_node2"><a xlink:href="StringRef_8h.html" target="_top" xlink:title="llvm/ADT/StringRef.h">
<polygon fill="none" stroke="black" points="829.76,-280.5 829.76,-299.5 939.76,-299.5 939.76,-280.5 829.76,-280.5"/>
<text text-anchor="middle" x="884.76" y="-287.5" font-family="Helvetica,sans-Serif" font-size="10.00">llvm/ADT/StringRef.h</text>
</a>
</g>
</g>
<!-- Node0&#45;&gt;Node1 -->
<g id="edge1" class="edge">
<title>Node0&#45;&gt;Node1</title>
<path fill="none" stroke="midnightblue" d="M735.98,-336.4C769.82,-326.07 815.18,-312.23 846.89,-302.56"/>
<polygon fill="midnightblue" stroke="midnightblue" points="848.13,-305.84 856.68,-299.57 846.09,-299.14 848.13,-305.84"/>
</g>
<!-- Node10 -->
<g id="node11" class="node">
<title>Node10</title>
<polygon fill="none" stroke="#bfbfbf" points="926.76,-56.5 926.76,-75.5 966.76,-75.5 966.76,-56.5 926.76,-56.5"/>
<text text-anchor="middle" x="946.76" y="-63.5" font-family="Helvetica,sans-Serif" font-size="10.00">utility</text>
</g>
<!-- Node0&#45;&gt;Node10 -->
<g id="edge54" class="edge">
<title>Node0&#45;&gt;Node10</title>
<path fill="none" stroke="midnightblue" d="M662.01,-336.31C604.83,-305.3 483.62,-229.38 537.76,-168 580.14,-119.96 762.68,-151.28 823.76,-132 861.79,-120 901.92,-96.45 925.63,-81.23"/>
<polygon fill="midnightblue" stroke="midnightblue" points="927.7,-84.06 934.16,-75.66 923.88,-78.2 927.7,-84.06"/>
</g>
<!-- Node21 -->
<g id="node22" class="node">
<title>Node21</title>
<polygon fill="none" stroke="#bfbfbf" points="24.26,-112.5 24.26,-131.5 65.26,-131.5 65.26,-112.5 24.26,-112.5"/>
<text text-anchor="middle" x="44.76" y="-119.5" font-family="Helvetica,sans-Serif" font-size="10.00">string</text>
</g>
<!-- Node0&#45;&gt;Node21 -->
<g id="edge53" class="edge">
<title>Node0&#45;&gt;Node21</title>
<path fill="none" stroke="midnightblue" d="M632.88,-350C525.52,-346.95 288.02,-330.11 111.76,-244 78.1,-227.56 65.15,-221.69 48.76,-188 41.73,-173.54 41.28,-155.09 42.26,-141.55"/>
<polygon fill="midnightblue" stroke="midnightblue" points="45.75,-141.83 43.32,-131.52 38.79,-141.09 45.75,-141.83"/>
</g>
<!-- Node29 -->
<g id="node30" class="node">
<title>Node29</title>
<polygon fill="none" stroke="#bfbfbf" points="957.76,-280.5 957.76,-299.5 1001.76,-299.5 1001.76,-280.5 957.76,-280.5"/>
<text text-anchor="middle" x="979.76" y="-287.5" font-family="Helvetica,sans-Serif" font-size="10.00">vector</text>
</g>
<!-- Node0&#45;&gt;Node29 -->
<g id="edge55" class="edge">
<title>Node0&#45;&gt;Node29</title>
<path fill="none" stroke="midnightblue" d="M746.42,-340.97C796.84,-332.14 872.77,-318.02 947.43,-300.16"/>
<polygon fill="midnightblue" stroke="midnightblue" points="948.58,-303.48 957.48,-297.73 946.94,-296.68 948.58,-303.48"/>
</g>
<!-- Node2 -->
<g id="node3" class="node">
<title>Node2</title>
<g id="a_node3"><a xlink:href="STLExtras_8h.html" target="_top" xlink:title="llvm/ADT/STLExtras.h">
<polygon fill="none" stroke="black" points="826.76,-224.5 826.76,-243.5 942.76,-243.5 942.76,-224.5 826.76,-224.5"/>
<text text-anchor="middle" x="884.76" y="-231.5" font-family="Helvetica,sans-Serif" font-size="10.00">llvm/ADT/STLExtras.h</text>
</a>
</g>
</g>
<!-- Node1&#45;&gt;Node2 -->
<g id="edge2" class="edge">
<title>Node1&#45;&gt;Node2</title>
<path fill="none" stroke="midnightblue" d="M884.76,-280.08C884.76,-273.01 884.76,-262.86 884.76,-253.99"/>
<polygon fill="midnightblue" stroke="midnightblue" points="888.26,-253.75 884.76,-243.75 881.26,-253.75 888.26,-253.75"/>
</g>
<!-- Node5 -->
<g id="node6" class="node">
<title>Node5</title>
<g id="a_node6"><a xlink:href="Compiler_8h.html" target="_top" xlink:title="llvm/Support/Compiler.h">
<polygon fill="none" stroke="black" points="195.76,-56.5 195.76,-75.5 317.76,-75.5 317.76,-56.5 195.76,-56.5"/>
<text text-anchor="middle" x="256.76" y="-63.5" font-family="Helvetica,sans-Serif" font-size="10.00">llvm/Support/Compiler.h</text>
</a>
</g>
</g>
<!-- Node1&#45;&gt;Node5 -->
<g id="edge44" class="edge">
<title>Node1&#45;&gt;Node5</title>
<path fill="none" stroke="midnightblue" d="M829.65,-287.88C663.94,-284.21 177.56,-271.23 111.76,-244 44.49,-216.16 -31.77,-167.99 14.76,-112 36.14,-86.28 121.86,-75.19 185.24,-70.45"/>
<polygon fill="midnightblue" stroke="midnightblue" points="185.87,-73.92 195.6,-69.72 185.38,-66.93 185.87,-73.92"/>
</g>
<!-- Node9 -->
<g id="node10" class="node">
<title>Node9</title>
<polygon fill="none" stroke="#bfbfbf" points="391.76,-56.5 391.76,-75.5 453.76,-75.5 453.76,-56.5 391.76,-56.5"/>
<text text-anchor="middle" x="422.76" y="-63.5" font-family="Helvetica,sans-Serif" font-size="10.00">type_traits</text>
</g>
<!-- Node1&#45;&gt;Node9 -->
<g id="edge51" class="edge">
<title>Node1&#45;&gt;Node9</title>
<path fill="none" stroke="midnightblue" d="M829.38,-286.22C723.83,-280.48 497.67,-266.01 422.76,-244 370.51,-228.64 351.21,-227.55 313.76,-188 289.32,-162.18 268.01,-140.87 288.76,-112 309.68,-82.91 350.32,-72.37 381.39,-68.67"/>
<polygon fill="midnightblue" stroke="midnightblue" points="381.91,-72.14 391.51,-67.67 381.22,-65.17 381.91,-72.14"/>
</g>
<!-- Node1&#45;&gt;Node10 -->
<g id="edge52" class="edge">
<title>Node1&#45;&gt;Node10</title>
<path fill="none" stroke="midnightblue" d="M939.89,-280.99C942.89,-280.64 945.86,-280.3 948.76,-280 1065.29,-267.83 1371.51,-299.36 1474.76,-244 1502.42,-229.17 1507.67,-217.71 1517.76,-188 1553.83,-81.82 1100.76,-68.8 977.35,-67.21"/>
<polygon fill="midnightblue" stroke="midnightblue" points="977.13,-63.71 967.1,-67.1 977.06,-70.71 977.13,-63.71"/>
</g>
<!-- Node11 -->
<g id="node12" class="node">
<title>Node11</title>
<polygon fill="none" stroke="#bfbfbf" points="309.26,-112.5 309.26,-131.5 358.26,-131.5 358.26,-112.5 309.26,-112.5"/>
<text text-anchor="middle" x="333.76" y="-119.5" font-family="Helvetica,sans-Serif" font-size="10.00">cassert</text>
</g>
<!-- Node1&#45;&gt;Node11 -->
<g id="edge46" class="edge">
<title>Node1&#45;&gt;Node11</title>
<path fill="none" stroke="midnightblue" d="M829.52,-285.69C707.93,-277.29 422.38,-251.18 352.76,-188 339.86,-176.29 335.53,-156.35 334.17,-141.64"/>
<polygon fill="midnightblue" stroke="midnightblue" points="337.66,-141.42 333.62,-131.63 330.67,-141.8 337.66,-141.42"/>
</g>
<!-- Node15 -->
<g id="node16" class="node">
<title>Node15</title>
<g id="a_node16"><a xlink:href="iterator__range_8h.html" target="_top" xlink:title="This provides a very simple, boring adaptor for a begin and end iterator into a range type...">
<polygon fill="none" stroke="black" points="1246.76,-112.5 1246.76,-131.5 1374.76,-131.5 1374.76,-112.5 1246.76,-112.5"/>
<text text-anchor="middle" x="1310.76" y="-119.5" font-family="Helvetica,sans-Serif" font-size="10.00">llvm/ADT/iterator_range.h</text>
</a>
</g>
</g>
<!-- Node1&#45;&gt;Node15 -->
<g id="edge43" class="edge">
<title>Node1&#45;&gt;Node15</title>
<path fill="none" stroke="midnightblue" d="M939.89,-281.01C942.89,-280.65 945.86,-280.31 948.76,-280 1057.77,-268.36 1340.5,-288.32 1440.76,-244 1479.88,-226.71 1526.27,-201.56 1499.76,-168 1485.35,-149.75 1431.64,-138.11 1385.14,-131.25"/>
<polygon fill="midnightblue" stroke="midnightblue" points="1385.43,-127.75 1375.04,-129.81 1384.44,-134.68 1385.43,-127.75"/>
</g>
<!-- Node17 -->
<g id="node18" class="node">
<title>Node17</title>
<polygon fill="none" stroke="#bfbfbf" points="1088.76,-112.5 1088.76,-131.5 1144.76,-131.5 1144.76,-112.5 1088.76,-112.5"/>
<text text-anchor="middle" x="1116.76" y="-119.5" font-family="Helvetica,sans-Serif" font-size="10.00">algorithm</text>
</g>
<!-- Node1&#45;&gt;Node17 -->
<g id="edge45" class="edge">
<title>Node1&#45;&gt;Node17</title>
<path fill="none" stroke="midnightblue" d="M929.31,-280.47C1026.1,-261.5 1248.69,-215.32 1269.76,-188 1275.19,-180.96 1275.09,-175.12 1269.76,-168 1262.72,-158.58 1197.65,-141.85 1154.67,-131.65"/>
<polygon fill="midnightblue" stroke="midnightblue" points="1155.33,-128.22 1144.8,-129.34 1153.73,-135.03 1155.33,-128.22"/>
</g>
<!-- Node18 -->
<g id="node19" class="node">
<title>Node18</title>
<polygon fill="none" stroke="#bfbfbf" points="1179.26,-112.5 1179.26,-131.5 1228.26,-131.5 1228.26,-112.5 1179.26,-112.5"/>
<text text-anchor="middle" x="1203.76" y="-119.5" font-family="Helvetica,sans-Serif" font-size="10.00">cstddef</text>
</g>
<!-- Node1&#45;&gt;Node18 -->
<g id="edge47" class="edge">
<title>Node1&#45;&gt;Node18</title>
<path fill="none" stroke="midnightblue" d="M939.9,-281.03C942.89,-280.67 945.86,-280.32 948.76,-280 1049.37,-268.95 1307.83,-279.08 1402.76,-244 1442.46,-229.33 1460.56,-225.71 1479.76,-188 1542.41,-64.99 1676.41,-220.43 1238.69,-131.97"/>
<polygon fill="midnightblue" stroke="midnightblue" points="1239.07,-128.48 1228.57,-129.91 1237.67,-135.34 1239.07,-128.48"/>
</g>
<!-- Node1&#45;&gt;Node21 -->
<g id="edge50" class="edge">
<title>Node1&#45;&gt;Node21</title>
<path fill="none" stroke="midnightblue" d="M829.7,-287.05C693.42,-281.95 343.21,-266.94 228.76,-244 152.83,-228.78 117.34,-243.92 63.76,-188 51.96,-175.67 47.43,-156.42 45.72,-142.07"/>
<polygon fill="midnightblue" stroke="midnightblue" points="49.19,-141.5 44.88,-131.83 42.21,-142.08 49.19,-141.5"/>
</g>
<!-- Node26 -->
<g id="node27" class="node">
<title>Node26</title>
<polygon fill="none" stroke="#bfbfbf" points="1430.76,-168.5 1430.76,-187.5 1470.76,-187.5 1470.76,-168.5 1430.76,-168.5"/>
<text text-anchor="middle" x="1450.76" y="-175.5" font-family="Helvetica,sans-Serif" font-size="10.00">limits</text>
</g>
<!-- Node1&#45;&gt;Node26 -->
<g id="edge49" class="edge">
<title>Node1&#45;&gt;Node26</title>
<path fill="none" stroke="midnightblue" d="M939.9,-281.05C942.9,-280.68 945.87,-280.33 948.76,-280 1042.51,-269.43 1284.39,-279.58 1371.76,-244 1397.86,-233.38 1421.95,-210.96 1436.5,-195.45"/>
<polygon fill="midnightblue" stroke="midnightblue" points="1439.43,-197.42 1443.55,-187.66 1434.24,-192.72 1439.43,-197.42"/>
</g>
<!-- Node28 -->
<g id="node29" class="node">
<title>Node28</title>
<polygon fill="none" stroke="#bfbfbf" points="1316.76,-224.5 1316.76,-243.5 1362.76,-243.5 1362.76,-224.5 1316.76,-224.5"/>
<text text-anchor="middle" x="1339.76" y="-231.5" font-family="Helvetica,sans-Serif" font-size="10.00">cstring</text>
</g>
<!-- Node1&#45;&gt;Node28 -->
<g id="edge48" class="edge">
<title>Node1&#45;&gt;Node28</title>
<path fill="none" stroke="midnightblue" d="M939.91,-281.11C942.9,-280.72 945.87,-280.35 948.76,-280 1105.76,-260.99 1146.9,-270.75 1302.76,-244 1304.01,-243.79 1305.28,-243.55 1306.55,-243.31"/>
<polygon fill="midnightblue" stroke="midnightblue" points="1307.33,-246.72 1316.38,-241.2 1305.87,-239.88 1307.33,-246.72"/>
</g>
<!-- Node3 -->
<g id="node4" class="node">
<title>Node3</title>
<g id="a_node4"><a xlink:href="Optional_8h.html" target="_top" xlink:title="llvm/ADT/Optional.h">
<polygon fill="none" stroke="black" points="385.26,-168.5 385.26,-187.5 490.26,-187.5 490.26,-168.5 385.26,-168.5"/>
<text text-anchor="middle" x="437.76" y="-175.5" font-family="Helvetica,sans-Serif" font-size="10.00">llvm/ADT/Optional.h</text>
</a>
</g>
</g>
<!-- Node2&#45;&gt;Node3 -->
<g id="edge3" class="edge">
<title>Node2&#45;&gt;Node3</title>
<path fill="none" stroke="midnightblue" d="M826.33,-225.94C741.99,-215.75 586.8,-197 500.25,-186.55"/>
<polygon fill="midnightblue" stroke="midnightblue" points="500.65,-183.07 490.3,-185.35 499.81,-190.02 500.65,-183.07"/>
</g>
<!-- Node2&#45;&gt;Node9 -->
<g id="edge41" class="edge">
<title>Node2&#45;&gt;Node9</title>
<path fill="none" stroke="midnightblue" d="M826.58,-233.24C706.41,-232.92 435.13,-227.65 352.76,-188 315.66,-170.14 276.17,-145.75 299.76,-112 318.1,-85.77 353.44,-74.78 381.55,-70.2"/>
<polygon fill="midnightblue" stroke="midnightblue" points="382.13,-73.66 391.54,-68.79 381.15,-66.73 382.13,-73.66"/>
</g>
<!-- Node2&#45;&gt;Node10 -->
<g id="edge42" class="edge">
<title>Node2&#45;&gt;Node10</title>
<path fill="none" stroke="midnightblue" d="M889.51,-224.2C894.23,-215.24 901.51,-200.88 906.76,-188 921.25,-152.45 934.48,-109.5 941.5,-85.52"/>
<polygon fill="midnightblue" stroke="midnightblue" points="944.93,-86.23 944.34,-75.65 938.21,-84.29 944.93,-86.23"/>
</g>
<!-- Node2&#45;&gt;Node11 -->
<g id="edge31" class="edge">
<title>Node2&#45;&gt;Node11</title>
<path fill="none" stroke="midnightblue" d="M826.39,-230.71C700.89,-225.38 413.61,-210.82 375.76,-188 358.19,-177.4 346.64,-156.31 340.17,-141.02"/>
<polygon fill="midnightblue" stroke="midnightblue" points="343.38,-139.62 336.5,-131.56 336.86,-142.15 343.38,-139.62"/>
</g>
<!-- Node12 -->
<g id="node13" class="node">
<title>Node12</title>
<polygon fill="none" stroke="#bfbfbf" points="762.76,-112.5 762.76,-131.5 814.76,-131.5 814.76,-112.5 762.76,-112.5"/>
<text text-anchor="middle" x="788.76" y="-119.5" font-family="Helvetica,sans-Serif" font-size="10.00">memory</text>
</g>
<!-- Node2&#45;&gt;Node12 -->
<g id="edge39" class="edge">
<title>Node2&#45;&gt;Node12</title>
<path fill="none" stroke="midnightblue" d="M888.59,-224.18C893.72,-210.84 900.98,-185.28 889.76,-168 875.53,-146.08 847.87,-134.75 825.09,-128.94"/>
<polygon fill="midnightblue" stroke="midnightblue" points="825.56,-125.46 815.03,-126.64 824,-132.28 825.56,-125.46"/>
</g>
<!-- Node14 -->
<g id="node15" class="node">
<title>Node14</title>
<g id="a_node15"><a xlink:href="iterator_8h.html" target="_top" xlink:title="llvm/ADT/iterator.h">
<polygon fill="none" stroke="black" points="975.26,-168.5 975.26,-187.5 1074.26,-187.5 1074.26,-168.5 975.26,-168.5"/>
<text text-anchor="middle" x="1024.76" y="-175.5" font-family="Helvetica,sans-Serif" font-size="10.00">llvm/ADT/iterator.h</text>
</a>
</g>
</g>
<!-- Node2&#45;&gt;Node14 -->
<g id="edge16" class="edge">
<title>Node2&#45;&gt;Node14</title>
<path fill="none" stroke="midnightblue" d="M906.95,-224.44C930.19,-215.48 966.91,-201.31 993.18,-191.18"/>
<polygon fill="midnightblue" stroke="midnightblue" points="994.61,-194.38 1002.69,-187.52 992.1,-187.85 994.61,-194.38"/>
</g>
<!-- Node2&#45;&gt;Node15 -->
<g id="edge25" class="edge">
<title>Node2&#45;&gt;Node15</title>
<path fill="none" stroke="midnightblue" d="M943,-233.77C1041.33,-233.92 1234.65,-228.81 1286.76,-188 1300.8,-177.01 1306.63,-156.96 1309.05,-142.02"/>
<polygon fill="midnightblue" stroke="midnightblue" points="1312.56,-142.18 1310.31,-131.83 1305.61,-141.32 1312.56,-142.18"/>
</g>
<!-- Node16 -->
<g id="node17" class="node">
<title>Node16</title>
<polygon fill="none" stroke="#bfbfbf" points="1287.26,-56.5 1287.26,-75.5 1334.26,-75.5 1334.26,-56.5 1287.26,-56.5"/>
<text text-anchor="middle" x="1310.76" y="-63.5" font-family="Helvetica,sans-Serif" font-size="10.00">iterator</text>
</g>
<!-- Node2&#45;&gt;Node16 -->
<g id="edge37" class="edge">
<title>Node2&#45;&gt;Node16</title>
<path fill="none" stroke="midnightblue" d="M942.91,-230.63C1043.04,-225.92 1243.55,-213.56 1308.76,-188 1352.95,-170.68 1406.9,-153.44 1383.76,-112 1375.19,-96.64 1358.99,-85.88 1344.02,-78.74"/>
<polygon fill="midnightblue" stroke="midnightblue" points="1345.02,-75.35 1334.46,-74.55 1342.22,-81.77 1345.02,-75.35"/>
</g>
<!-- Node2&#45;&gt;Node17 -->
<g id="edge30" class="edge">
<title>Node2&#45;&gt;Node17</title>
<path fill="none" stroke="midnightblue" d="M943.1,-232.41C985.72,-229.19 1042.82,-218.75 1082.76,-188 1097.87,-176.37 1106.93,-156.12 1111.86,-141.31"/>
<polygon fill="midnightblue" stroke="midnightblue" points="1115.22,-142.26 1114.74,-131.68 1108.52,-140.26 1115.22,-142.26"/>
</g>
<!-- Node2&#45;&gt;Node18 -->
<g id="edge32" class="edge">
<title>Node2&#45;&gt;Node18</title>
<path fill="none" stroke="midnightblue" d="M942.89,-230.39C1045.14,-225.2 1248.43,-211.97 1269.76,-188 1286.54,-169.14 1257.94,-148.98 1233.3,-136.19"/>
<polygon fill="midnightblue" stroke="midnightblue" points="1234.66,-132.97 1224.15,-131.67 1231.56,-139.24 1234.66,-132.97"/>
</g>
<!-- Node19 -->
<g id="node20" class="node">
<title>Node19</title>
<polygon fill="none" stroke="#bfbfbf" points="1130.76,-168.5 1130.76,-187.5 1260.76,-187.5 1260.76,-168.5 1130.76,-168.5"/>
<text text-anchor="middle" x="1195.76" y="-175.5" font-family="Helvetica,sans-Serif" font-size="10.00">llvm/Config/abi&#45;breaking.h</text>
</g>
<!-- Node2&#45;&gt;Node19 -->
<g id="edge26" class="edge">
<title>Node2&#45;&gt;Node19</title>
<path fill="none" stroke="midnightblue" d="M934.04,-224.44C989.09,-214.89 1078.16,-199.42 1136.85,-189.23"/>
<polygon fill="midnightblue" stroke="midnightblue" points="1137.46,-192.68 1146.72,-187.52 1136.27,-185.78 1137.46,-192.68"/>
</g>
<!-- Node20 -->
<g id="node21" class="node">
<title>Node20</title>
<g id="a_node21"><a xlink:href="Support_2ErrorHandling_8h.html" target="_top" xlink:title="llvm/Support/ErrorHandling.h">
<polygon fill="none" stroke="black" points="72.76,-168.5 72.76,-187.5 214.76,-187.5 214.76,-168.5 72.76,-168.5"/>
<text text-anchor="middle" x="143.76" y="-175.5" font-family="Helvetica,sans-Serif" font-size="10.00">llvm/Support/ErrorHandling.h</text>
</a>
</g>
</g>
<!-- Node2&#45;&gt;Node20 -->
<g id="edge27" class="edge">
<title>Node2&#45;&gt;Node20</title>
<path fill="none" stroke="midnightblue" d="M826.4,-228.76C716.75,-220.78 472.49,-203.02 266.76,-188 253.28,-187.02 238.95,-185.97 225.03,-184.95"/>
<polygon fill="midnightblue" stroke="midnightblue" points="225.21,-181.45 214.98,-184.22 224.7,-188.44 225.21,-181.45"/>
</g>
<!-- Node22 -->
<g id="node23" class="node">
<title>Node22</title>
<polygon fill="none" stroke="#bfbfbf" points="546.76,-168.5 546.76,-187.5 592.76,-187.5 592.76,-168.5 546.76,-168.5"/>
<text text-anchor="middle" x="569.76" y="-175.5" font-family="Helvetica,sans-Serif" font-size="10.00">cstdint</text>
</g>
<!-- Node2&#45;&gt;Node22 -->
<g id="edge33" class="edge">
<title>Node2&#45;&gt;Node22</title>
<path fill="none" stroke="midnightblue" d="M826.67,-225.78C771.39,-218.45 685.74,-205.92 602.93,-188.05"/>
<polygon fill="midnightblue" stroke="midnightblue" points="603.62,-184.62 593.1,-185.9 602.13,-191.46 603.62,-184.62"/>
</g>
<!-- Node23 -->
<g id="node24" class="node">
<title>Node23</title>
<polygon fill="none" stroke="#bfbfbf" points="611.26,-168.5 611.26,-187.5 656.26,-187.5 656.26,-168.5 611.26,-168.5"/>
<text text-anchor="middle" x="633.76" y="-175.5" font-family="Helvetica,sans-Serif" font-size="10.00">cstdlib</text>
</g>
<!-- Node2&#45;&gt;Node23 -->
<g id="edge34" class="edge">
<title>Node2&#45;&gt;Node23</title>
<path fill="none" stroke="midnightblue" d="M837.31,-224.44C794.77,-216.51 730.47,-203.89 666.28,-188.23"/>
<polygon fill="midnightblue" stroke="midnightblue" points="666.94,-184.79 656.39,-185.8 665.27,-191.59 666.94,-184.79"/>
</g>
<!-- Node24 -->
<g id="node25" class="node">
<title>Node24</title>
<polygon fill="none" stroke="#bfbfbf" points="674.26,-168.5 674.26,-187.5 733.26,-187.5 733.26,-168.5 674.26,-168.5"/>
<text text-anchor="middle" x="703.76" y="-175.5" font-family="Helvetica,sans-Serif" font-size="10.00">functional</text>
</g>
<!-- Node2&#45;&gt;Node24 -->
<g id="edge35" class="edge">
<title>Node2&#45;&gt;Node24</title>
<path fill="none" stroke="midnightblue" d="M856.08,-224.44C825.24,-215.24 776.04,-200.56 741.94,-190.39"/>
<polygon fill="midnightblue" stroke="midnightblue" points="742.89,-187.02 732.31,-187.52 740.89,-193.73 742.89,-187.02"/>
</g>
<!-- Node25 -->
<g id="node26" class="node">
<title>Node25</title>
<polygon fill="none" stroke="#bfbfbf" points="751.26,-168.5 751.26,-187.5 824.26,-187.5 824.26,-168.5 751.26,-168.5"/>
<text text-anchor="middle" x="787.76" y="-175.5" font-family="Helvetica,sans-Serif" font-size="10.00">initializer_list</text>
</g>
<!-- Node2&#45;&gt;Node25 -->
<g id="edge36" class="edge">
<title>Node2&#45;&gt;Node25</title>
<path fill="none" stroke="midnightblue" d="M869.18,-224.32C853.77,-215.74 829.95,-202.49 812.06,-192.52"/>
<polygon fill="midnightblue" stroke="midnightblue" points="813.75,-189.46 803.31,-187.65 810.35,-195.58 813.75,-189.46"/>
</g>
<!-- Node2&#45;&gt;Node26 -->
<g id="edge38" class="edge">
<title>Node2&#45;&gt;Node26</title>
<path fill="none" stroke="midnightblue" d="M943.05,-231.39C1041.38,-227.94 1246.21,-217.55 1416.76,-188 1418.05,-187.78 1419.36,-187.53 1420.68,-187.26"/>
<polygon fill="midnightblue" stroke="midnightblue" points="1421.81,-190.59 1430.76,-184.92 1420.22,-183.77 1421.81,-190.59"/>
</g>
<!-- Node27 -->
<g id="node28" class="node">
<title>Node27</title>
<polygon fill="none" stroke="#bfbfbf" points="842.76,-168.5 842.76,-187.5 880.76,-187.5 880.76,-168.5 842.76,-168.5"/>
<text text-anchor="middle" x="861.76" y="-175.5" font-family="Helvetica,sans-Serif" font-size="10.00">tuple</text>
</g>
<!-- Node2&#45;&gt;Node27 -->
<g id="edge40" class="edge">
<title>Node2&#45;&gt;Node27</title>
<path fill="none" stroke="midnightblue" d="M880.97,-224.08C877.85,-216.77 873.34,-206.18 869.48,-197.1"/>
<polygon fill="midnightblue" stroke="midnightblue" points="872.63,-195.58 865.49,-187.75 866.19,-198.32 872.63,-195.58"/>
</g>
<!-- Node4 -->
<g id="node5" class="node">
<title>Node4</title>
<g id="a_node5"><a xlink:href="None_8h.html" target="_top" xlink:title="llvm/ADT/None.h">
<polygon fill="none" stroke="black" points="614.76,-112.5 614.76,-131.5 706.76,-131.5 706.76,-112.5 614.76,-112.5"/>
<text text-anchor="middle" x="660.76" y="-119.5" font-family="Helvetica,sans-Serif" font-size="10.00">llvm/ADT/None.h</text>
</a>
</g>
</g>
<!-- Node3&#45;&gt;Node4 -->
<g id="edge4" class="edge">
<title>Node3&#45;&gt;Node4</title>
<path fill="none" stroke="midnightblue" d="M473.1,-168.44C511.68,-159.1 573.55,-144.12 615.62,-133.93"/>
<polygon fill="midnightblue" stroke="midnightblue" points="616.7,-137.27 625.6,-131.52 615.05,-130.47 616.7,-137.27"/>
</g>
<!-- Node3&#45;&gt;Node5 -->
<g id="edge5" class="edge">
<title>Node3&#45;&gt;Node5</title>
<path fill="none" stroke="midnightblue" d="M430.24,-168.37C418.05,-154.84 392.74,-128.46 366.76,-112 344.4,-97.83 316.81,-86.55 294.86,-78.84"/>
<polygon fill="midnightblue" stroke="midnightblue" points="295.8,-75.46 285.21,-75.54 293.54,-82.08 295.8,-75.46"/>
</g>
<!-- Node8 -->
<g id="node9" class="node">
<title>Node8</title>
<g id="a_node9"><a xlink:href="type__traits_8h.html" target="_top" xlink:title="llvm/Support/type_traits.h">
<polygon fill="none" stroke="black" points="414.76,-112.5 414.76,-131.5 542.76,-131.5 542.76,-112.5 414.76,-112.5"/>
<text text-anchor="middle" x="478.76" y="-119.5" font-family="Helvetica,sans-Serif" font-size="10.00">llvm/Support/type_traits.h</text>
</a>
</g>
</g>
<!-- Node3&#45;&gt;Node8 -->
<g id="edge8" class="edge">
<title>Node3&#45;&gt;Node8</title>
<path fill="none" stroke="midnightblue" d="M444.54,-168.08C450.33,-160.46 458.82,-149.26 465.9,-139.94"/>
<polygon fill="midnightblue" stroke="midnightblue" points="468.86,-141.83 472.12,-131.75 463.29,-137.6 468.86,-141.83"/>
</g>
<!-- Node3&#45;&gt;Node10 -->
<g id="edge15" class="edge">
<title>Node3&#45;&gt;Node10</title>
<path fill="none" stroke="midnightblue" d="M490.27,-169.44C564.86,-158.55 694.81,-139 715.76,-132 733.87,-125.95 735.88,-118.67 753.76,-112 809.46,-91.24 877.88,-78.01 916.48,-71.59"/>
<polygon fill="midnightblue" stroke="midnightblue" points="917.23,-75.02 926.55,-69.97 916.12,-68.11 917.23,-75.02"/>
</g>
<!-- Node3&#45;&gt;Node11 -->
<g id="edge12" class="edge">
<title>Node3&#45;&gt;Node11</title>
<path fill="none" stroke="midnightblue" d="M421.06,-168.32C404.45,-159.7 378.76,-146.36 359.54,-136.39"/>
<polygon fill="midnightblue" stroke="midnightblue" points="360.92,-133.16 350.43,-131.65 357.69,-139.37 360.92,-133.16"/>
</g>
<!-- Node3&#45;&gt;Node12 -->
<g id="edge13" class="edge">
<title>Node3&#45;&gt;Node12</title>
<path fill="none" stroke="midnightblue" d="M490.33,-169.9C565.6,-159.64 700.35,-140.94 748.76,-132 750.02,-131.77 751.31,-131.52 752.6,-131.27"/>
<polygon fill="midnightblue" stroke="midnightblue" points="753.49,-134.66 762.57,-129.2 752.07,-127.8 753.49,-134.66"/>
</g>
<!-- Node13 -->
<g id="node14" class="node">
<title>Node13</title>
<polygon fill="none" stroke="#bfbfbf" points="561.26,-112.5 561.26,-131.5 596.26,-131.5 596.26,-112.5 561.26,-112.5"/>
<text text-anchor="middle" x="578.76" y="-119.5" font-family="Helvetica,sans-Serif" font-size="10.00">new</text>
</g>
<!-- Node3&#45;&gt;Node13 -->
<g id="edge14" class="edge">
<title>Node3&#45;&gt;Node13</title>
<path fill="none" stroke="midnightblue" d="M460.11,-168.44C484.89,-158.95 524.9,-143.63 551.51,-133.44"/>
<polygon fill="midnightblue" stroke="midnightblue" points="552.91,-136.65 560.99,-129.81 550.4,-130.11 552.91,-136.65"/>
</g>
<!-- Node6 -->
<g id="node7" class="node">
<title>Node6</title>
<polygon fill="none" stroke="#bfbfbf" points="141.26,-0.5 141.26,-19.5 266.26,-19.5 266.26,-0.5 141.26,-0.5"/>
<text text-anchor="middle" x="203.76" y="-7.5" font-family="Helvetica,sans-Serif" font-size="10.00">llvm/Config/llvm&#45;config.h</text>
</g>
<!-- Node5&#45;&gt;Node6 -->
<g id="edge6" class="edge">
<title>Node5&#45;&gt;Node6</title>
<path fill="none" stroke="midnightblue" d="M248.01,-56.08C240.3,-48.22 228.86,-36.57 219.55,-27.08"/>
<polygon fill="midnightblue" stroke="midnightblue" points="221.86,-24.44 212.35,-19.75 216.86,-29.34 221.86,-24.44"/>
</g>
<!-- Node7 -->
<g id="node8" class="node">
<title>Node7</title>
<polygon fill="none" stroke="#bfbfbf" points="284.76,-0.5 284.76,-19.5 336.76,-19.5 336.76,-0.5 284.76,-0.5"/>
<text text-anchor="middle" x="310.76" y="-7.5" font-family="Helvetica,sans-Serif" font-size="10.00">stddef.h</text>
</g>
<!-- Node5&#45;&gt;Node7 -->
<g id="edge7" class="edge">
<title>Node5&#45;&gt;Node7</title>
<path fill="none" stroke="midnightblue" d="M265.68,-56.08C273.55,-48.22 285.2,-36.57 294.68,-27.08"/>
<polygon fill="midnightblue" stroke="midnightblue" points="297.42,-29.3 302.01,-19.75 292.47,-24.35 297.42,-29.3"/>
</g>
<!-- Node8&#45;&gt;Node5 -->
<g id="edge9" class="edge">
<title>Node8&#45;&gt;Node5</title>
<path fill="none" stroke="midnightblue" d="M443.59,-112.44C405.19,-103.1 343.59,-88.12 301.71,-77.93"/>
<polygon fill="midnightblue" stroke="midnightblue" points="302.32,-74.48 291.78,-75.52 300.67,-81.28 302.32,-74.48"/>
</g>
<!-- Node8&#45;&gt;Node9 -->
<g id="edge10" class="edge">
<title>Node8&#45;&gt;Node9</title>
<path fill="none" stroke="midnightblue" d="M469.77,-112.32C461.57,-104.42 449.26,-92.55 439.29,-82.94"/>
<polygon fill="midnightblue" stroke="midnightblue" points="441.55,-80.26 431.93,-75.83 436.69,-85.29 441.55,-80.26"/>
</g>
<!-- Node8&#45;&gt;Node10 -->
<g id="edge11" class="edge">
<title>Node8&#45;&gt;Node10</title>
<path fill="none" stroke="midnightblue" d="M542.85,-113.06C545.87,-112.7 548.85,-112.35 551.76,-112 687.78,-95.87 850.29,-77.7 916.48,-70.35"/>
<polygon fill="midnightblue" stroke="midnightblue" points="917.06,-73.81 926.61,-69.23 916.29,-66.85 917.06,-73.81"/>
</g>
<!-- Node14&#45;&gt;Node9 -->
<g id="edge23" class="edge">
<title>Node14&#45;&gt;Node9</title>
<path fill="none" stroke="midnightblue" d="M1003.15,-168.42C966.75,-154.32 890.63,-126.41 823.76,-112 694.2,-84.08 537.12,-72.85 463.97,-68.89"/>
<polygon fill="midnightblue" stroke="midnightblue" points="463.96,-65.38 453.79,-68.36 463.6,-72.38 463.96,-65.38"/>
</g>
<!-- Node14&#45;&gt;Node10 -->
<g id="edge24" class="edge">
<title>Node14&#45;&gt;Node10</title>
<path fill="none" stroke="midnightblue" d="M1022.72,-168.36C1019.33,-155.27 1011.6,-130.02 998.76,-112 990.43,-100.3 978.44,-89.66 968.08,-81.66"/>
<polygon fill="midnightblue" stroke="midnightblue" points="970,-78.73 959.87,-75.61 965.84,-84.36 970,-78.73"/>
</g>
<!-- Node14&#45;&gt;Node15 -->
<g id="edge17" class="edge">
<title>Node14&#45;&gt;Node15</title>
<path fill="none" stroke="midnightblue" d="M1070.08,-168.44C1120.39,-158.94 1201.6,-143.61 1255.58,-133.42"/>
<polygon fill="midnightblue" stroke="midnightblue" points="1256.48,-136.81 1265.66,-131.52 1255.18,-129.93 1256.48,-136.81"/>
</g>
<!-- Node14&#45;&gt;Node16 -->
<g id="edge22" class="edge">
<title>Node14&#45;&gt;Node16</title>
<path fill="none" stroke="midnightblue" d="M1029.53,-168.2C1037.76,-153.92 1056.05,-125.91 1079.76,-112 1142.51,-75.2 1229.71,-67.82 1277,-66.74"/>
<polygon fill="midnightblue" stroke="midnightblue" points="1277.07,-70.24 1287.02,-66.59 1276.96,-63.24 1277.07,-70.24"/>
</g>
<!-- Node14&#45;&gt;Node17 -->
<g id="edge20" class="edge">
<title>Node14&#45;&gt;Node17</title>
<path fill="none" stroke="midnightblue" d="M1039.55,-168.32C1054.03,-159.82 1076.34,-146.73 1093.26,-136.8"/>
<polygon fill="midnightblue" stroke="midnightblue" points="1095.17,-139.74 1102.02,-131.65 1091.62,-133.7 1095.17,-139.74"/>
</g>
<!-- Node14&#45;&gt;Node18 -->
<g id="edge21" class="edge">
<title>Node14&#45;&gt;Node18</title>
<path fill="none" stroke="midnightblue" d="M1053.13,-168.44C1084.57,-158.96 1135.31,-143.65 1169.09,-133.46"/>
<polygon fill="midnightblue" stroke="midnightblue" points="1170.43,-136.71 1178.99,-130.47 1168.41,-130.01 1170.43,-136.71"/>
</g>
<!-- Node15&#45;&gt;Node10 -->
<g id="edge19" class="edge">
<title>Node15&#45;&gt;Node10</title>
<path fill="none" stroke="midnightblue" d="M1253.09,-112.44C1174.8,-100.83 1037.71,-80.49 977.08,-71.5"/>
<polygon fill="midnightblue" stroke="midnightblue" points="977.42,-68.01 967.01,-70 976.39,-74.93 977.42,-68.01"/>
</g>
<!-- Node15&#45;&gt;Node16 -->
<g id="edge18" class="edge">
<title>Node15&#45;&gt;Node16</title>
<path fill="none" stroke="midnightblue" d="M1310.76,-112.08C1310.76,-105.01 1310.76,-94.86 1310.76,-85.99"/>
<polygon fill="midnightblue" stroke="midnightblue" points="1314.26,-85.75 1310.76,-75.75 1307.26,-85.75 1314.26,-85.75"/>
</g>
<!-- Node20&#45;&gt;Node5 -->
<g id="edge28" class="edge">
<title>Node20&#45;&gt;Node5</title>
<path fill="none" stroke="midnightblue" d="M152.63,-168.37C171.61,-149.89 216.4,-106.29 240.59,-82.74"/>
<polygon fill="midnightblue" stroke="midnightblue" points="243.21,-85.07 247.94,-75.59 238.33,-80.06 243.21,-85.07"/>
</g>
<!-- Node20&#45;&gt;Node21 -->
<g id="edge29" class="edge">
<title>Node20&#45;&gt;Node21</title>
<path fill="none" stroke="midnightblue" d="M127.86,-168.32C112.13,-159.74 87.82,-146.49 69.56,-136.52"/>
<polygon fill="midnightblue" stroke="midnightblue" points="71.09,-133.37 60.63,-131.65 67.73,-139.52 71.09,-133.37"/>
</g>
</g>
</svg>
