<?xml version="1.0" encoding="UTF-8" standalone="no"?>
<!DOCTYPE svg PUBLIC "-//W3C//DTD SVG 1.1//EN"
 "http://www.w3.org/Graphics/SVG/1.1/DTD/svg11.dtd">
<!-- Generated by graphviz version 2.43.0 (0)
 -->
<!-- Title: llvm::codeview::serialize_array_impl&lt; T, U &gt; Pages: 1 -->
<svg width="154pt" height="106pt"
 viewBox="0.00 0.00 153.50 106.00" xmlns="http://www.w3.org/2000/svg" xmlns:xlink="http://www.w3.org/1999/xlink">
<g id="graph0" class="graph" transform="scale(1 1) rotate(0) translate(4 102)">
<title>llvm::codeview::serialize_array_impl&lt; T, U &gt;</title>
<!-- Node1 -->
<g id="node1" class="node">
<title>Node1</title>
<polygon fill="#bfbfbf" stroke="black" points="0,-0.5 0,-30.5 124,-30.5 124,-0.5 0,-0.5"/>
<text text-anchor="start" x="8" y="-18.5" font-family="Helvetica,sans-Serif" font-size="10.00">llvm::codeview::serialize</text>
<text text-anchor="middle" x="62" y="-7.5" font-family="Helvetica,sans-Serif" font-size="10.00">_array_impl&lt; T, U &gt;</text>
</g>
<!-- Node2 -->
<g id="node2" class="node">
<title>Node2</title>
<polygon fill="none" stroke="#bfbfbf" points="9.5,-78.5 9.5,-97.5 38.5,-97.5 38.5,-78.5 9.5,-78.5"/>
<text text-anchor="middle" x="24" y="-85.5" font-family="Helvetica,sans-Serif" font-size="10.00">U</text>
</g>
<!-- Node2&#45;&gt;Node1 -->
<g id="edge1" class="edge">
<title>Node2&#45;&gt;Node1</title>
<path fill="none" stroke="#9a32cd" stroke-dasharray="5,2" d="M33.53,-69.32C39.99,-57.34 48.41,-41.72 54.41,-30.58"/>
<polygon fill="#9a32cd" stroke="#9a32cd" points="30.32,-67.89 28.66,-78.36 36.49,-71.21 30.32,-67.89"/>
<text text-anchor="middle" x="57.5" y="-52" font-family="Helvetica,sans-Serif" font-size="10.00"> Func</text>
</g>
<!-- Node3 -->
<g id="node3" class="node">
<title>Node3</title>
<polygon fill="none" stroke="#bfbfbf" points="56.5,-78.5 56.5,-97.5 145.5,-97.5 145.5,-78.5 56.5,-78.5"/>
<text text-anchor="middle" x="101" y="-85.5" font-family="Helvetica,sans-Serif" font-size="10.00">ArrayRef&lt; T &gt; &amp;</text>
</g>
<!-- Node3&#45;&gt;Node1 -->
<g id="edge2" class="edge">
<title>Node3&#45;&gt;Node1</title>
<path fill="none" stroke="#9a32cd" stroke-dasharray="5,2" d="M91.22,-69.32C84.59,-57.34 75.95,-41.72 69.79,-30.58"/>
<polygon fill="#9a32cd" stroke="#9a32cd" points="88.31,-71.3 96.22,-78.36 94.44,-67.91 88.31,-71.3"/>
<text text-anchor="middle" x="95.5" y="-52" font-family="Helvetica,sans-Serif" font-size="10.00"> Item</text>
</g>
</g>
</svg>
