<?xml version="1.0" encoding="UTF-8" standalone="no"?>
<!DOCTYPE svg PUBLIC "-//W3C//DTD SVG 1.1//EN"
 "http://www.w3.org/Graphics/SVG/1.1/DTD/svg11.dtd">
<!-- Generated by graphviz version 2.43.0 (0)
 -->
<!-- Title: llvm::Win64EH::UnwindInfo Pages: 1 -->
<svg width="405pt" height="219pt"
 viewBox="0.00 0.00 404.50 219.00" xmlns="http://www.w3.org/2000/svg" xmlns:xlink="http://www.w3.org/1999/xlink">
<g id="graph0" class="graph" transform="scale(1 1) rotate(0) translate(4 215)">
<title>llvm::Win64EH::UnwindInfo</title>
<!-- Node1 -->
<g id="node1" class="node">
<title>Node1</title>
<polygon fill="#bfbfbf" stroke="black" points="0,-0.5 0,-19.5 138,-19.5 138,-0.5 0,-0.5"/>
<text text-anchor="middle" x="69" y="-7.5" font-family="Helvetica,sans-Serif" font-size="10.00">llvm::Win64EH::UnwindInfo</text>
</g>
<!-- Node2 -->
<g id="node2" class="node">
<title>Node2</title>
<polygon fill="none" stroke="#bfbfbf" points="59,-180.5 59,-199.5 105,-199.5 105,-180.5 59,-180.5"/>
<text text-anchor="middle" x="82" y="-187.5" font-family="Helvetica,sans-Serif" font-size="10.00">uint8_t</text>
</g>
<!-- Node2&#45;&gt;Node1 -->
<g id="edge1" class="edge">
<title>Node2&#45;&gt;Node1</title>
<path fill="none" stroke="#9a32cd" stroke-dasharray="5,2" d="M75.87,-170.55C71.01,-154.91 64.62,-131.76 62,-111 59.55,-91.6 60.78,-86.52 62,-67 63.05,-50.18 65.85,-30.68 67.57,-19.7"/>
<polygon fill="#9a32cd" stroke="#9a32cd" points="72.67,-172.03 79.06,-180.48 79.33,-169.89 72.67,-172.03"/>
<text text-anchor="middle" x="116.5" y="-103" font-family="Helvetica,sans-Serif" font-size="10.00"> PrologSize</text>
<text text-anchor="middle" x="116.5" y="-92" font-family="Helvetica,sans-Serif" font-size="10.00">NumCodes</text>
<text text-anchor="middle" x="116.5" y="-81" font-family="Helvetica,sans-Serif" font-size="10.00">FrameRegisterAndOffset</text>
<text text-anchor="middle" x="116.5" y="-70" font-family="Helvetica,sans-Serif" font-size="10.00">VersionAndFlags</text>
</g>
<!-- Node3 -->
<g id="node3" class="node">
<title>Node3</title>
<g id="a_node3"><a xlink:href="unionllvm_1_1Win64EH_1_1UnwindCode.html" target="_top" xlink:title="UnwindCode &#45; This union describes a single operation in a function prolog, or part thereof...">
<polygon fill="none" stroke="black" points="180.5,-79.5 180.5,-98.5 325.5,-98.5 325.5,-79.5 180.5,-79.5"/>
<text text-anchor="middle" x="253" y="-86.5" font-family="Helvetica,sans-Serif" font-size="10.00">llvm::Win64EH::UnwindCode</text>
</a>
</g>
</g>
<!-- Node2&#45;&gt;Node3 -->
<g id="edge5" class="edge">
<title>Node2&#45;&gt;Node3</title>
<path fill="none" stroke="#9a32cd" stroke-dasharray="5,2" d="M95.99,-172.63C108.09,-159.34 126.63,-140.91 146,-129 168.74,-115.02 197.25,-104.94 219.12,-98.53"/>
<polygon fill="#9a32cd" stroke="#9a32cd" points="93.03,-170.69 89.03,-180.5 98.28,-175.32 93.03,-170.69"/>
<text text-anchor="middle" x="194" y="-143" font-family="Helvetica,sans-Serif" font-size="10.00"> UnwindOpAndOpInfo</text>
<text text-anchor="middle" x="194" y="-132" font-family="Helvetica,sans-Serif" font-size="10.00">CodeOffset</text>
</g>
<!-- Node3&#45;&gt;Node1 -->
<g id="edge2" class="edge">
<title>Node3&#45;&gt;Node1</title>
<path fill="none" stroke="#9a32cd" stroke-dasharray="5,2" d="M223.2,-75.53C185.62,-59.8 122.01,-33.18 89.49,-19.57"/>
<polygon fill="#9a32cd" stroke="#9a32cd" points="222.03,-78.83 232.61,-79.47 224.73,-72.38 222.03,-78.83"/>
<text text-anchor="middle" x="188.5" y="-41" font-family="Helvetica,sans-Serif" font-size="10.00"> UnwindCodes</text>
</g>
<!-- Node4 -->
<g id="node4" class="node">
<title>Node4</title>
<polygon fill="none" stroke="#bfbfbf" points="179,-169.5 179,-210.5 303,-210.5 303,-169.5 179,-169.5"/>
<text text-anchor="start" x="187" y="-198.5" font-family="Helvetica,sans-Serif" font-size="10.00">packed_endian_specific</text>
<text text-anchor="start" x="187" y="-187.5" font-family="Helvetica,sans-Serif" font-size="10.00">_integral&lt; uint16_t, little,</text>
<text text-anchor="middle" x="241" y="-176.5" font-family="Helvetica,sans-Serif" font-size="10.00"> unaligned &gt;</text>
</g>
<!-- Node4&#45;&gt;Node3 -->
<g id="edge3" class="edge">
<title>Node4&#45;&gt;Node3</title>
<path fill="none" stroke="#9a32cd" stroke-dasharray="5,2" d="M244.58,-159.44C247.11,-138.57 250.33,-112.02 251.96,-98.6"/>
<polygon fill="#9a32cd" stroke="#9a32cd" points="241.1,-159.09 243.37,-169.44 248.05,-159.93 241.1,-159.09"/>
<text text-anchor="middle" x="278" y="-137.5" font-family="Helvetica,sans-Serif" font-size="10.00"> FrameOffset</text>
</g>
<!-- Node5 -->
<g id="node5" class="node">
<title>Node5</title>
<polygon fill="none" stroke="#bfbfbf" points="321.5,-180.5 321.5,-199.5 396.5,-199.5 396.5,-180.5 321.5,-180.5"/>
<text text-anchor="middle" x="359" y="-187.5" font-family="Helvetica,sans-Serif" font-size="10.00">anonymous:u</text>
</g>
<!-- Node5&#45;&gt;Node3 -->
<g id="edge4" class="edge">
<title>Node5&#45;&gt;Node3</title>
<path fill="none" stroke="#9a32cd" stroke-dasharray="5,2" d="M347.45,-171.86C338.41,-159.18 325.06,-141.94 311,-129 297.97,-117 280.93,-106 268.7,-98.77"/>
<polygon fill="#9a32cd" stroke="#9a32cd" points="344.63,-173.95 353.21,-180.16 350.38,-169.95 344.63,-173.95"/>
<text text-anchor="middle" x="336.5" y="-137.5" font-family="Helvetica,sans-Serif" font-size="10.00"> u</text>
</g>
</g>
</svg>
