<?xml version="1.0" encoding="UTF-8" standalone="no"?>
<!DOCTYPE svg PUBLIC "-//W3C//DTD SVG 1.1//EN"
 "http://www.w3.org/Graphics/SVG/1.1/DTD/svg11.dtd">
<!-- Generated by graphviz version 2.43.0 (0)
 -->
<!-- Title: LdStNInstrDesc Pages: 1 -->
<svg width="277pt" height="106pt"
 viewBox="0.00 0.00 276.50 106.00" xmlns="http://www.w3.org/2000/svg" xmlns:xlink="http://www.w3.org/1999/xlink">
<g id="graph0" class="graph" transform="scale(1 1) rotate(0) translate(4 102)">
<title>LdStNInstrDesc</title>
<!-- Node1 -->
<g id="node1" class="node">
<title>Node1</title>
<polygon fill="#bfbfbf" stroke="black" points="88,-0.5 88,-19.5 175,-19.5 175,-0.5 88,-0.5"/>
<text text-anchor="middle" x="131.5" y="-7.5" font-family="Helvetica,sans-Serif" font-size="10.00">LdStNInstrDesc</text>
</g>
<!-- Node2 -->
<g id="node2" class="node">
<title>Node2</title>
<g id="a_node2"><a xlink:href="classchar.html" target="_top" xlink:title="char">
<polygon fill="none" stroke="black" points="0,-78.5 0,-97.5 35,-97.5 35,-78.5 0,-78.5"/>
<text text-anchor="middle" x="17.5" y="-85.5" font-family="Helvetica,sans-Serif" font-size="10.00">char</text>
</a>
</g>
</g>
<!-- Node2&#45;&gt;Node1 -->
<g id="edge1" class="edge">
<title>Node2&#45;&gt;Node1</title>
<path fill="none" stroke="#9a32cd" stroke-dasharray="5,2" d="M18.88,-68.39C20.59,-58.14 24.34,-45.91 32.5,-38 47.21,-23.74 68.68,-16.84 87.87,-13.57"/>
<polygon fill="#9a32cd" stroke="#9a32cd" points="15.39,-68.12 17.71,-78.46 22.34,-68.93 15.39,-68.12"/>
<text text-anchor="middle" x="57" y="-52" font-family="Helvetica,sans-Serif" font-size="10.00"> Mnemonic</text>
<text text-anchor="middle" x="57" y="-41" font-family="Helvetica,sans-Serif" font-size="10.00">Layout</text>
</g>
<!-- Node3 -->
<g id="node3" class="node">
<title>Node3</title>
<polygon fill="none" stroke="#bfbfbf" points="75,-78.5 75,-97.5 104,-97.5 104,-78.5 75,-78.5"/>
<text text-anchor="middle" x="89.5" y="-85.5" font-family="Helvetica,sans-Serif" font-size="10.00">int</text>
</g>
<!-- Node3&#45;&gt;Node1 -->
<g id="edge2" class="edge">
<title>Node3&#45;&gt;Node1</title>
<path fill="none" stroke="#9a32cd" stroke-dasharray="5,2" d="M85.92,-68.29C85.02,-58.68 85.48,-47.1 90.5,-38 94.95,-29.94 102.94,-23.88 110.7,-19.56"/>
<polygon fill="#9a32cd" stroke="#9a32cd" points="82.49,-69.03 87.4,-78.41 89.41,-68.01 82.49,-69.03"/>
<text text-anchor="middle" x="121.5" y="-52" font-family="Helvetica,sans-Serif" font-size="10.00"> NaturalOffset</text>
<text text-anchor="middle" x="121.5" y="-41" font-family="Helvetica,sans-Serif" font-size="10.00">ListOperand</text>
</g>
<!-- Node4 -->
<g id="node4" class="node">
<title>Node4</title>
<g id="a_node4"><a xlink:href="classbool.html" target="_top" xlink:title="bool">
<polygon fill="none" stroke="black" points="157,-78.5 157,-97.5 192,-97.5 192,-78.5 157,-78.5"/>
<text text-anchor="middle" x="174.5" y="-85.5" font-family="Helvetica,sans-Serif" font-size="10.00">bool</text>
</a>
</g>
</g>
<!-- Node4&#45;&gt;Node1 -->
<g id="edge3" class="edge">
<title>Node4&#45;&gt;Node1</title>
<path fill="none" stroke="#9a32cd" stroke-dasharray="5,2" d="M167.55,-68.81C163.64,-59.35 158.37,-47.75 152.5,-38 148.58,-31.49 143.33,-24.74 139.06,-19.61"/>
<polygon fill="#9a32cd" stroke="#9a32cd" points="164.41,-70.37 171.35,-78.37 170.91,-67.78 164.41,-70.37"/>
<text text-anchor="middle" x="184" y="-46.5" font-family="Helvetica,sans-Serif" font-size="10.00"> HasLane</text>
</g>
<!-- Node5 -->
<g id="node5" class="node">
<title>Node5</title>
<g id="a_node5"><a xlink:href="classunsigned.html" target="_top" xlink:title="unsigned">
<polygon fill="none" stroke="black" points="212.5,-78.5 212.5,-97.5 268.5,-97.5 268.5,-78.5 212.5,-78.5"/>
<text text-anchor="middle" x="240.5" y="-85.5" font-family="Helvetica,sans-Serif" font-size="10.00">unsigned</text>
</a>
</g>
</g>
<!-- Node5&#45;&gt;Node1 -->
<g id="edge4" class="edge">
<title>Node5&#45;&gt;Node1</title>
<path fill="none" stroke="#9a32cd" stroke-dasharray="5,2" d="M232.88,-69.1C227.65,-58.73 219.8,-46.16 209.5,-38 198.83,-29.55 185.34,-23.65 172.59,-19.57"/>
<polygon fill="#9a32cd" stroke="#9a32cd" points="229.85,-70.88 237.22,-78.49 236.2,-67.94 229.85,-70.88"/>
<text text-anchor="middle" x="246" y="-46.5" font-family="Helvetica,sans-Serif" font-size="10.00"> Opcode</text>
</g>
</g>
</svg>
