<?xml version="1.0" encoding="UTF-8" standalone="no"?>
<!DOCTYPE svg PUBLIC "-//W3C//DTD SVG 1.1//EN"
 "http://www.w3.org/Graphics/SVG/1.1/DTD/svg11.dtd">
<!-- Generated by graphviz version 2.43.0 (0)
 -->
<!-- Title: llvm::GCNIterativeScheduler::TentativeSchedule Pages: 1 -->
<svg width="295pt" height="106pt"
 viewBox="0.00 0.00 294.50 106.00" xmlns="http://www.w3.org/2000/svg" xmlns:xlink="http://www.w3.org/1999/xlink">
<g id="graph0" class="graph" transform="scale(1 1) rotate(0) translate(4 102)">
<title>llvm::GCNIterativeScheduler::TentativeSchedule</title>
<!-- Node1 -->
<g id="node1" class="node">
<title>Node1</title>
<polygon fill="#bfbfbf" stroke="black" points="79.5,-0.5 79.5,-30.5 221.5,-30.5 221.5,-0.5 79.5,-0.5"/>
<text text-anchor="start" x="87.5" y="-18.5" font-family="Helvetica,sans-Serif" font-size="10.00">llvm::GCNIterativeScheduler</text>
<text text-anchor="middle" x="150.5" y="-7.5" font-family="Helvetica,sans-Serif" font-size="10.00">::TentativeSchedule</text>
</g>
<!-- Node2 -->
<g id="node2" class="node">
<title>Node2</title>
<polygon fill="none" stroke="#bfbfbf" points="0,-78.5 0,-97.5 149,-97.5 149,-78.5 0,-78.5"/>
<text text-anchor="middle" x="74.5" y="-85.5" font-family="Helvetica,sans-Serif" font-size="10.00">vector&lt; llvm::MachineInstr * &gt;</text>
</g>
<!-- Node2&#45;&gt;Node1 -->
<g id="edge1" class="edge">
<title>Node2&#45;&gt;Node1</title>
<path fill="none" stroke="#9a32cd" stroke-dasharray="5,2" d="M91.27,-71.44C104.43,-59.23 122.59,-42.39 135.33,-30.58"/>
<polygon fill="#9a32cd" stroke="#9a32cd" points="88.77,-68.99 83.82,-78.36 93.53,-74.12 88.77,-68.99"/>
<text text-anchor="middle" x="137.5" y="-52" font-family="Helvetica,sans-Serif" font-size="10.00"> Schedule</text>
</g>
<!-- Node3 -->
<g id="node3" class="node">
<title>Node3</title>
<g id="a_node3"><a xlink:href="structllvm_1_1GCNRegPressure.html" target="_top" xlink:title="llvm::GCNRegPressure">
<polygon fill="none" stroke="black" points="166.5,-78.5 166.5,-97.5 286.5,-97.5 286.5,-78.5 166.5,-78.5"/>
<text text-anchor="middle" x="226.5" y="-85.5" font-family="Helvetica,sans-Serif" font-size="10.00">llvm::GCNRegPressure</text>
</a>
</g>
</g>
<!-- Node3&#45;&gt;Node1 -->
<g id="edge2" class="edge">
<title>Node3&#45;&gt;Node1</title>
<path fill="none" stroke="#9a32cd" stroke-dasharray="5,2" d="M209.73,-71.44C196.57,-59.23 178.41,-42.39 165.67,-30.58"/>
<polygon fill="#9a32cd" stroke="#9a32cd" points="207.47,-74.12 217.18,-78.36 212.23,-68.99 207.47,-74.12"/>
<text text-anchor="middle" x="225" y="-52" font-family="Helvetica,sans-Serif" font-size="10.00"> MaxPressure</text>
</g>
</g>
</svg>
