<?xml version="1.0" encoding="UTF-8" standalone="no"?>
<!DOCTYPE svg PUBLIC "-//W3C//DTD SVG 1.1//EN"
 "http://www.w3.org/Graphics/SVG/1.1/DTD/svg11.dtd">
<!-- Generated by graphviz version 2.43.0 (0)
 -->
<!-- Title: llvm::CodeViewYAML::detail::LeafRecordImpl&lt; T &gt; Pages: 1 -->
<svg width="214pt" height="184pt"
 viewBox="0.00 0.00 214.00 184.00" xmlns="http://www.w3.org/2000/svg" xmlns:xlink="http://www.w3.org/1999/xlink">
<g id="graph0" class="graph" transform="scale(1 1) rotate(0) translate(4 180)">
<title>llvm::CodeViewYAML::detail::LeafRecordImpl&lt; T &gt;</title>
<!-- Node2 -->
<g id="node1" class="node">
<title>Node2</title>
<polygon fill="#bfbfbf" stroke="black" points="61,-0.5 61,-30.5 206,-30.5 206,-0.5 61,-0.5"/>
<text text-anchor="start" x="69" y="-18.5" font-family="Helvetica,sans-Serif" font-size="10.00">llvm::CodeViewYAML</text>
<text text-anchor="middle" x="133.5" y="-7.5" font-family="Helvetica,sans-Serif" font-size="10.00">::detail::LeafRecordImpl&lt; T &gt;</text>
</g>
<!-- Node3 -->
<g id="node2" class="node">
<title>Node3</title>
<g id="a_node2"><a xlink:href="structllvm_1_1CodeViewYAML_1_1detail_1_1LeafRecordBase.html" target="_top" xlink:title="llvm::CodeViewYAML\l::detail::LeafRecordBase">
<polygon fill="none" stroke="black" points="0,-78.5 0,-108.5 125,-108.5 125,-78.5 0,-78.5"/>
<text text-anchor="start" x="8" y="-96.5" font-family="Helvetica,sans-Serif" font-size="10.00">llvm::CodeViewYAML</text>
<text text-anchor="middle" x="62.5" y="-85.5" font-family="Helvetica,sans-Serif" font-size="10.00">::detail::LeafRecordBase</text>
</a>
</g>
</g>
<!-- Node3&#45;&gt;Node2 -->
<g id="edge1" class="edge">
<title>Node3&#45;&gt;Node2</title>
<path fill="none" stroke="midnightblue" d="M82.89,-70.67C94.89,-57.83 109.71,-41.97 120.21,-30.73"/>
<polygon fill="midnightblue" stroke="midnightblue" points="80.12,-68.51 75.85,-78.2 85.24,-73.29 80.12,-68.51"/>
</g>
<!-- Node4 -->
<g id="node3" class="node">
<title>Node4</title>
<polygon fill="none" stroke="#bfbfbf" points="24,-156.5 24,-175.5 101,-175.5 101,-156.5 24,-156.5"/>
<text text-anchor="middle" x="62.5" y="-163.5" font-family="Helvetica,sans-Serif" font-size="10.00">TypeLeafKind</text>
</g>
<!-- Node4&#45;&gt;Node3 -->
<g id="edge2" class="edge">
<title>Node4&#45;&gt;Node3</title>
<path fill="none" stroke="#9a32cd" stroke-dasharray="5,2" d="M62.5,-146.24C62.5,-134.41 62.5,-119.38 62.5,-108.58"/>
<polygon fill="#9a32cd" stroke="#9a32cd" points="59,-146.36 62.5,-156.36 66,-146.36 59,-146.36"/>
<text text-anchor="middle" x="74" y="-130" font-family="Helvetica,sans-Serif" font-size="10.00"> Kind</text>
</g>
<!-- Node5 -->
<g id="node4" class="node">
<title>Node5</title>
<polygon fill="none" stroke="#bfbfbf" points="143,-84 143,-103 172,-103 172,-84 143,-84"/>
<text text-anchor="middle" x="157.5" y="-91" font-family="Helvetica,sans-Serif" font-size="10.00">T</text>
</g>
<!-- Node5&#45;&gt;Node2 -->
<g id="edge3" class="edge">
<title>Node5&#45;&gt;Node2</title>
<path fill="none" stroke="#9a32cd" stroke-dasharray="5,2" d="M151.72,-74.18C147.48,-60.76 141.81,-42.81 137.93,-30.52"/>
<polygon fill="#9a32cd" stroke="#9a32cd" points="148.4,-75.3 154.75,-83.78 155.07,-73.19 148.4,-75.3"/>
<text text-anchor="middle" x="164" y="-52" font-family="Helvetica,sans-Serif" font-size="10.00"> Record</text>
</g>
</g>
</svg>
