<?xml version="1.0" encoding="UTF-8" standalone="no"?>
<!DOCTYPE svg PUBLIC "-//W3C//DTD SVG 1.1//EN"
 "http://www.w3.org/Graphics/SVG/1.1/DTD/svg11.dtd">
<!-- Generated by graphviz version 2.43.0 (0)
 -->
<!-- Title: INITIALIZE_PASS::InsertedPass Pages: 1 -->
<svg width="281pt" height="173pt"
 viewBox="0.00 0.00 280.50 173.00" xmlns="http://www.w3.org/2000/svg" xmlns:xlink="http://www.w3.org/1999/xlink">
<g id="graph0" class="graph" transform="scale(1 1) rotate(0) translate(4 169)">
<title>INITIALIZE_PASS::InsertedPass</title>
<!-- Node1 -->
<g id="node1" class="node">
<title>Node1</title>
<polygon fill="#bfbfbf" stroke="black" points="32,-0.5 32,-19.5 195,-19.5 195,-0.5 32,-0.5"/>
<text text-anchor="middle" x="113.5" y="-7.5" font-family="Helvetica,sans-Serif" font-size="10.00">INITIALIZE_PASS::InsertedPass</text>
</g>
<!-- Node2 -->
<g id="node2" class="node">
<title>Node2</title>
<g id="a_node2"><a xlink:href="classbool.html" target="_top" xlink:title="bool">
<polygon fill="none" stroke="black" points="0,-78.5 0,-97.5 35,-97.5 35,-78.5 0,-78.5"/>
<text text-anchor="middle" x="17.5" y="-85.5" font-family="Helvetica,sans-Serif" font-size="10.00">bool</text>
</a>
</g>
</g>
<!-- Node2&#45;&gt;Node1 -->
<g id="edge1" class="edge">
<title>Node2&#45;&gt;Node1</title>
<path fill="none" stroke="#9a32cd" stroke-dasharray="5,2" d="M30.55,-70.09C38.94,-59.95 50.48,-47.28 62.5,-38 72.02,-30.65 83.82,-24.26 93.67,-19.54"/>
<polygon fill="#9a32cd" stroke="#9a32cd" points="27.58,-68.19 24.06,-78.19 33.04,-72.57 27.58,-68.19"/>
<text text-anchor="middle" x="86" y="-52" font-family="Helvetica,sans-Serif" font-size="10.00"> PrintAfter</text>
<text text-anchor="middle" x="86" y="-41" font-family="Helvetica,sans-Serif" font-size="10.00">VerifyAfter</text>
</g>
<!-- Node3 -->
<g id="node3" class="node">
<title>Node3</title>
<g id="a_node3"><a xlink:href="classllvm_1_1IdentifyingPassPtr.html" target="_top" xlink:title="Discriminated union of Pass ID types. ">
<polygon fill="none" stroke="black" points="53,-78.5 53,-97.5 174,-97.5 174,-78.5 53,-78.5"/>
<text text-anchor="middle" x="113.5" y="-85.5" font-family="Helvetica,sans-Serif" font-size="10.00">llvm::IdentifyingPassPtr</text>
</a>
</g>
</g>
<!-- Node3&#45;&gt;Node1 -->
<g id="edge2" class="edge">
<title>Node3&#45;&gt;Node1</title>
<path fill="none" stroke="#9a32cd" stroke-dasharray="5,2" d="M113.5,-68.22C113.5,-52.7 113.5,-31.36 113.5,-19.62"/>
<polygon fill="#9a32cd" stroke="#9a32cd" points="110,-68.28 113.5,-78.28 117,-68.28 110,-68.28"/>
<text text-anchor="middle" x="149.5" y="-46.5" font-family="Helvetica,sans-Serif" font-size="10.00"> InsertedPassID</text>
</g>
<!-- Node4 -->
<g id="node4" class="node">
<title>Node4</title>
<polygon fill="none" stroke="#bfbfbf" points="37.5,-145.5 37.5,-164.5 105.5,-164.5 105.5,-145.5 37.5,-145.5"/>
<text text-anchor="middle" x="71.5" y="-152.5" font-family="Helvetica,sans-Serif" font-size="10.00">const void *</text>
</g>
<!-- Node4&#45;&gt;Node3 -->
<g id="edge3" class="edge">
<title>Node4&#45;&gt;Node3</title>
<path fill="none" stroke="#9a32cd" stroke-dasharray="5,2" d="M82.79,-136.53C90.92,-123.95 101.54,-107.51 107.93,-97.63"/>
<polygon fill="#9a32cd" stroke="#9a32cd" points="79.65,-134.94 77.16,-145.23 85.53,-138.73 79.65,-134.94"/>
<text text-anchor="middle" x="101.5" y="-119" font-family="Helvetica,sans-Serif" font-size="10.00"> ID</text>
</g>
<!-- Node5 -->
<g id="node5" class="node">
<title>Node5</title>
<g id="a_node5"><a xlink:href="classllvm_1_1Pass.html" target="_top" xlink:title="Pass interface &#45; Implemented by all &#39;passes&#39;. ">
<polygon fill="none" stroke="black" points="124,-145.5 124,-164.5 187,-164.5 187,-145.5 124,-145.5"/>
<text text-anchor="middle" x="155.5" y="-152.5" font-family="Helvetica,sans-Serif" font-size="10.00">llvm::Pass</text>
</a>
</g>
</g>
<!-- Node5&#45;&gt;Node3 -->
<g id="edge4" class="edge">
<title>Node5&#45;&gt;Node3</title>
<path fill="none" stroke="#9a32cd" stroke-dasharray="5,2" d="M144.21,-136.53C136.08,-123.95 125.46,-107.51 119.07,-97.63"/>
<polygon fill="#9a32cd" stroke="#9a32cd" points="141.47,-138.73 149.84,-145.23 147.35,-134.94 141.47,-138.73"/>
<text text-anchor="middle" x="141.5" y="-119" font-family="Helvetica,sans-Serif" font-size="10.00"> P</text>
</g>
<!-- Node6 -->
<g id="node6" class="node">
<title>Node6</title>
<polygon fill="none" stroke="#bfbfbf" points="192,-78.5 192,-97.5 257,-97.5 257,-78.5 192,-78.5"/>
<text text-anchor="middle" x="224.5" y="-85.5" font-family="Helvetica,sans-Serif" font-size="10.00">AnalysisID</text>
</g>
<!-- Node6&#45;&gt;Node1 -->
<g id="edge5" class="edge">
<title>Node6&#45;&gt;Node1</title>
<path fill="none" stroke="#9a32cd" stroke-dasharray="5,2" d="M215.35,-69.1C209.26,-58.76 200.38,-46.2 189.5,-38 178.43,-29.66 164.56,-23.73 151.7,-19.59"/>
<polygon fill="#9a32cd" stroke="#9a32cd" points="212.42,-71.05 220.31,-78.13 218.56,-67.68 212.42,-71.05"/>
<text text-anchor="middle" x="240.5" y="-46.5" font-family="Helvetica,sans-Serif" font-size="10.00"> TargetPassID</text>
</g>
</g>
</svg>
