<?xml version="1.0" encoding="UTF-8" standalone="no"?>
<!DOCTYPE svg PUBLIC "-//W3C//DTD SVG 1.1//EN"
 "http://www.w3.org/Graphics/SVG/1.1/DTD/svg11.dtd">
<!-- Generated by graphviz version 2.43.0 (0)
 -->
<!-- Title: llvm::TypeConversionCostTblEntry Pages: 1 -->
<svg width="223pt" height="117pt"
 viewBox="0.00 0.00 222.50 117.00" xmlns="http://www.w3.org/2000/svg" xmlns:xlink="http://www.w3.org/1999/xlink">
<g id="graph0" class="graph" transform="scale(1 1) rotate(0) translate(4 113)">
<title>llvm::TypeConversionCostTblEntry</title>
<!-- Node1 -->
<g id="node1" class="node">
<title>Node1</title>
<polygon fill="#bfbfbf" stroke="black" points="59,-0.5 59,-30.5 192,-30.5 192,-0.5 59,-0.5"/>
<text text-anchor="start" x="67" y="-18.5" font-family="Helvetica,sans-Serif" font-size="10.00">llvm::TypeConversionCost</text>
<text text-anchor="middle" x="125.5" y="-7.5" font-family="Helvetica,sans-Serif" font-size="10.00">TblEntry</text>
</g>
<!-- Node2 -->
<g id="node2" class="node">
<title>Node2</title>
<polygon fill="none" stroke="#bfbfbf" points="0,-89.5 0,-108.5 93,-108.5 93,-89.5 0,-89.5"/>
<text text-anchor="middle" x="46.5" y="-96.5" font-family="Helvetica,sans-Serif" font-size="10.00">SimpleValueType</text>
</g>
<!-- Node2&#45;&gt;Node1 -->
<g id="edge1" class="edge">
<title>Node2&#45;&gt;Node1</title>
<path fill="none" stroke="#9a32cd" stroke-dasharray="5,2" d="M62.22,-81.78C76.72,-66.83 98.03,-44.84 111.84,-30.6"/>
<polygon fill="#9a32cd" stroke="#9a32cd" points="59.4,-79.66 54.95,-89.28 64.43,-84.53 59.4,-79.66"/>
<text text-anchor="middle" x="103" y="-63" font-family="Helvetica,sans-Serif" font-size="10.00"> Src</text>
<text text-anchor="middle" x="103" y="-52" font-family="Helvetica,sans-Serif" font-size="10.00">Dst</text>
</g>
<!-- Node3 -->
<g id="node3" class="node">
<title>Node3</title>
<polygon fill="none" stroke="#bfbfbf" points="111,-89.5 111,-108.5 140,-108.5 140,-89.5 111,-89.5"/>
<text text-anchor="middle" x="125.5" y="-96.5" font-family="Helvetica,sans-Serif" font-size="10.00">int</text>
</g>
<!-- Node3&#45;&gt;Node1 -->
<g id="edge2" class="edge">
<title>Node3&#45;&gt;Node1</title>
<path fill="none" stroke="#9a32cd" stroke-dasharray="5,2" d="M125.5,-79.23C125.5,-64.41 125.5,-44.05 125.5,-30.6"/>
<polygon fill="#9a32cd" stroke="#9a32cd" points="122,-79.28 125.5,-89.28 129,-79.28 122,-79.28"/>
<text text-anchor="middle" x="136" y="-57.5" font-family="Helvetica,sans-Serif" font-size="10.00"> ISD</text>
</g>
<!-- Node4 -->
<g id="node4" class="node">
<title>Node4</title>
<g id="a_node4"><a xlink:href="classunsigned.html" target="_top" xlink:title="unsigned">
<polygon fill="none" stroke="black" points="158.5,-89.5 158.5,-108.5 214.5,-108.5 214.5,-89.5 158.5,-89.5"/>
<text text-anchor="middle" x="186.5" y="-96.5" font-family="Helvetica,sans-Serif" font-size="10.00">unsigned</text>
</a>
</g>
</g>
<!-- Node4&#45;&gt;Node1 -->
<g id="edge3" class="edge">
<title>Node4&#45;&gt;Node1</title>
<path fill="none" stroke="#9a32cd" stroke-dasharray="5,2" d="M174.23,-81.1C167.31,-71.63 158.48,-59.61 150.5,-49 145.97,-42.97 140.9,-36.36 136.52,-30.69"/>
<polygon fill="#9a32cd" stroke="#9a32cd" points="171.47,-83.26 180.18,-89.28 177.13,-79.14 171.47,-83.26"/>
<text text-anchor="middle" x="178" y="-57.5" font-family="Helvetica,sans-Serif" font-size="10.00"> Cost</text>
</g>
</g>
</svg>
