<?xml version="1.0" encoding="UTF-8" standalone="no"?>
<!DOCTYPE svg PUBLIC "-//W3C//DTD SVG 1.1//EN"
 "http://www.w3.org/Graphics/SVG/1.1/DTD/svg11.dtd">
<!-- Generated by graphviz version 2.43.0 (0)
 -->
<!-- Title: llvm::IntrusiveBackListBase Pages: 1 -->
<svg width="539pt" height="97pt"
 viewBox="0.00 0.00 539.00 97.00" xmlns="http://www.w3.org/2000/svg" xmlns:xlink="http://www.w3.org/1999/xlink">
<g id="graph0" class="graph" transform="scale(1 1) rotate(0) translate(4 93)">
<title>llvm::IntrusiveBackListBase</title>
<!-- Node0 -->
<g id="node1" class="node">
<title>Node0</title>
<polygon fill="#bfbfbf" stroke="black" points="0,-31 0,-50 139,-50 139,-31 0,-31"/>
<text text-anchor="middle" x="69.5" y="-38" font-family="Helvetica,sans-Serif" font-size="10.00">llvm::IntrusiveBackListBase</text>
</g>
<!-- Node1 -->
<g id="node2" class="node">
<title>Node1</title>
<g id="a_node2"><a xlink:href="classllvm_1_1IntrusiveBackList.html" target="_top" xlink:title="llvm::IntrusiveBackList\l\&lt; llvm::DIE \&gt;">
<polygon fill="none" stroke="black" points="415,-58.5 415,-88.5 531,-88.5 531,-58.5 415,-58.5"/>
<text text-anchor="start" x="423" y="-76.5" font-family="Helvetica,sans-Serif" font-size="10.00">llvm::IntrusiveBackList</text>
<text text-anchor="middle" x="473" y="-65.5" font-family="Helvetica,sans-Serif" font-size="10.00">&lt; llvm::DIE &gt;</text>
</a>
</g>
</g>
<!-- Node0&#45;&gt;Node1 -->
<g id="edge1" class="edge">
<title>Node0&#45;&gt;Node1</title>
<path fill="none" stroke="#8b1a1a" d="M128.12,-51.84C143.63,-54.63 160.41,-57.41 176,-59.5 245.87,-68.87 263.57,-70.39 334,-73.5 360.57,-74.67 390.04,-74.83 414.9,-74.63"/>
<polygon fill="#8b1a1a" stroke="#8b1a1a" points="128.62,-48.38 118.15,-50.02 127.36,-55.26 128.62,-48.38"/>
</g>
<!-- Node2 -->
<g id="node3" class="node">
<title>Node2</title>
<g id="a_node3"><a xlink:href="classllvm_1_1IntrusiveBackList.html" target="_top" xlink:title="llvm::IntrusiveBackList\l\&lt; Node \&gt;">
<polygon fill="none" stroke="black" points="415,-0.5 415,-30.5 531,-30.5 531,-0.5 415,-0.5"/>
<text text-anchor="start" x="423" y="-18.5" font-family="Helvetica,sans-Serif" font-size="10.00">llvm::IntrusiveBackList</text>
<text text-anchor="middle" x="473" y="-7.5" font-family="Helvetica,sans-Serif" font-size="10.00">&lt; Node &gt;</text>
</a>
</g>
</g>
<!-- Node0&#45;&gt;Node2 -->
<g id="edge2" class="edge">
<title>Node0&#45;&gt;Node2</title>
<path fill="none" stroke="#8b1a1a" d="M124.66,-29.11C141.08,-26.1 159.21,-23.21 176,-21.5 258.71,-13.06 355.07,-12.89 414.81,-13.91"/>
<polygon fill="#8b1a1a" stroke="#8b1a1a" points="123.87,-25.7 114.69,-30.99 125.16,-32.57 123.87,-25.7"/>
</g>
<!-- Node3 -->
<g id="node4" class="node">
<title>Node3</title>
<g id="a_node4"><a xlink:href="classllvm_1_1IntrusiveBackList.html" target="_top" xlink:title="llvm::IntrusiveBackList\&lt; T \&gt;">
<polygon fill="none" stroke="black" points="176,-31 176,-50 316,-50 316,-31 176,-31"/>
<text text-anchor="middle" x="246" y="-38" font-family="Helvetica,sans-Serif" font-size="10.00">llvm::IntrusiveBackList&lt; T &gt;</text>
</a>
</g>
</g>
<!-- Node0&#45;&gt;Node3 -->
<g id="edge3" class="edge">
<title>Node0&#45;&gt;Node3</title>
<path fill="none" stroke="#8b1a1a" d="M149.45,-40.5C158.23,-40.5 167.13,-40.5 175.77,-40.5"/>
<polygon fill="#8b1a1a" stroke="#8b1a1a" points="149.22,-37 139.22,-40.5 149.22,-44 149.22,-37"/>
</g>
<!-- Node3&#45;&gt;Node1 -->
<g id="edge5" class="edge">
<title>Node3&#45;&gt;Node1</title>
<path fill="none" stroke="orange" stroke-dasharray="5,2" d="M321.89,-51.48C352.23,-55.93 386.7,-60.99 414.95,-65.13"/>
<polygon fill="orange" stroke="orange" points="322.18,-47.99 311.78,-50 321.16,-54.91 322.18,-47.99"/>
<text text-anchor="middle" x="365.5" y="-64.5" font-family="Helvetica,sans-Serif" font-size="10.00"> &lt; llvm::DIE &gt;</text>
</g>
<!-- Node3&#45;&gt;Node2 -->
<g id="edge4" class="edge">
<title>Node3&#45;&gt;Node2</title>
<path fill="none" stroke="orange" stroke-dasharray="5,2" d="M324.07,-29.69C327.42,-29.28 330.74,-28.88 334,-28.5 360.53,-25.42 390,-22.57 414.87,-20.32"/>
<polygon fill="orange" stroke="orange" points="323.42,-26.24 313.94,-30.97 324.3,-33.19 323.42,-26.24"/>
<text text-anchor="middle" x="365.5" y="-31.5" font-family="Helvetica,sans-Serif" font-size="10.00"> &lt; Node &gt;</text>
</g>
</g>
</svg>
