<?xml version="1.0" encoding="UTF-8" standalone="no"?>
<!DOCTYPE svg PUBLIC "-//W3C//DTD SVG 1.1//EN"
 "http://www.w3.org/Graphics/SVG/1.1/DTD/svg11.dtd">
<!-- Generated by graphviz version 2.43.0 (0)
 -->
<!-- Title: llvm::SubtargetSubTypeKV Pages: 1 -->
<svg width="1136pt" height="755pt"
 viewBox="0.00 0.00 1136.00 755.23" xmlns="http://www.w3.org/2000/svg" xmlns:xlink="http://www.w3.org/1999/xlink">
<g id="graph0" class="graph" transform="scale(1 1) rotate(0) translate(4 751.23)">
<title>llvm::SubtargetSubTypeKV</title>
<!-- Node1 -->
<g id="node1" class="node">
<title>Node1</title>
<polygon fill="#bfbfbf" stroke="black" points="993,-688.73 993,-707.73 1128,-707.73 1128,-688.73 993,-688.73"/>
<text text-anchor="middle" x="1060.5" y="-695.73" font-family="Helvetica,sans-Serif" font-size="10.00">llvm::SubtargetSubTypeKV</text>
</g>
<!-- Node2 -->
<g id="node2" class="node">
<title>Node2</title>
<g id="a_node2"><a xlink:href="classllvm_1_1FeatureBitArray.html" target="_top" xlink:title="Class used to store the subtarget bits in the tables created by tablegen. ">
<polygon fill="none" stroke="black" points="789.5,-726.73 789.5,-745.73 898.5,-745.73 898.5,-726.73 789.5,-726.73"/>
<text text-anchor="middle" x="844" y="-733.73" font-family="Helvetica,sans-Serif" font-size="10.00">llvm::FeatureBitArray</text>
</a>
</g>
</g>
<!-- Node2&#45;&gt;Node1 -->
<g id="edge1" class="edge">
<title>Node2&#45;&gt;Node1</title>
<path fill="none" stroke="#9a32cd" stroke-dasharray="5,2" d="M908.82,-724.93C939.72,-719.45 976.42,-712.95 1005.87,-707.73"/>
<polygon fill="#9a32cd" stroke="#9a32cd" points="907.81,-721.55 898.57,-726.74 909.03,-728.44 907.81,-721.55"/>
<text text-anchor="middle" x="946" y="-725.23" font-family="Helvetica,sans-Serif" font-size="10.00"> Implies</text>
</g>
<!-- Node3 -->
<g id="node3" class="node">
<title>Node3</title>
<g id="a_node3"><a xlink:href="classllvm_1_1FeatureBitset.html" target="_top" xlink:title="Container class for subtarget features. ">
<polygon fill="none" stroke="black" points="545.5,-727.73 545.5,-746.73 644.5,-746.73 644.5,-727.73 545.5,-727.73"/>
<text text-anchor="middle" x="595" y="-734.73" font-family="Helvetica,sans-Serif" font-size="10.00">llvm::FeatureBitset</text>
</a>
</g>
</g>
<!-- Node3&#45;&gt;Node2 -->
<g id="edge2" class="edge">
<title>Node3&#45;&gt;Node2</title>
<path fill="none" stroke="midnightblue" d="M654.6,-737C695.52,-736.83 749.71,-736.61 789.46,-736.45"/>
<polygon fill="midnightblue" stroke="midnightblue" points="654.49,-733.5 644.5,-737.04 654.52,-740.5 654.49,-733.5"/>
</g>
<!-- Node4 -->
<g id="node4" class="node">
<title>Node4</title>
<g id="a_node4"><a xlink:href="structllvm_1_1MCSchedModel.html" target="_top" xlink:title="Machine model for scheduling, bundling, and heuristics. ">
<polygon fill="none" stroke="black" points="789,-368.73 789,-387.73 899,-387.73 899,-368.73 789,-368.73"/>
<text text-anchor="middle" x="844" y="-375.73" font-family="Helvetica,sans-Serif" font-size="10.00">llvm::MCSchedModel</text>
</a>
</g>
</g>
<!-- Node4&#45;&gt;Node1 -->
<g id="edge3" class="edge">
<title>Node4&#45;&gt;Node1</title>
<path fill="none" stroke="#9a32cd" stroke-dasharray="5,2" d="M857.03,-396.18C896.8,-455.5 1023.19,-644.06 1053.11,-688.69"/>
<polygon fill="#9a32cd" stroke="#9a32cd" points="859.89,-394.17 851.42,-387.81 854.08,-398.06 859.89,-394.17"/>
<text text-anchor="middle" x="946" y="-569.23" font-family="Helvetica,sans-Serif" font-size="10.00"> SchedModel</text>
</g>
<!-- Node4&#45;&gt;Node4 -->
<g id="edge13" class="edge">
<title>Node4&#45;&gt;Node4</title>
<path fill="none" stroke="#9a32cd" stroke-dasharray="5,2" d="M825.11,-397.63C826.37,-402.55 832.67,-406.23 844,-406.23 862.13,-406.23 867.37,-396.8 859.72,-387.99"/>
<polygon fill="#9a32cd" stroke="#9a32cd" points="828.48,-398.58 828.28,-387.99 821.83,-396.4 828.48,-398.58"/>
<text text-anchor="middle" x="844" y="-409.23" font-family="Helvetica,sans-Serif" font-size="10.00"> Default</text>
</g>
<!-- Node5 -->
<g id="node5" class="node">
<title>Node5</title>
<g id="a_node5"><a xlink:href="structllvm_1_1MCProcResourceDesc.html" target="_top" xlink:title="Define a kind of processor resource that will be modeled by the scheduler. ">
<polygon fill="none" stroke="black" points="231,-518.73 231,-537.73 373,-537.73 373,-518.73 231,-518.73"/>
<text text-anchor="middle" x="302" y="-525.73" font-family="Helvetica,sans-Serif" font-size="10.00">llvm::MCProcResourceDesc</text>
</a>
</g>
</g>
<!-- Node5&#45;&gt;Node4 -->
<g id="edge4" class="edge">
<title>Node5&#45;&gt;Node4</title>
<path fill="none" stroke="#9a32cd" stroke-dasharray="5,2" d="M347.26,-515.94C452.23,-486.78 714.54,-413.92 808.69,-387.76"/>
<polygon fill="#9a32cd" stroke="#9a32cd" points="346.3,-512.57 337.6,-518.62 348.17,-519.32 346.3,-512.57"/>
<text text-anchor="middle" x="595" y="-469.23" font-family="Helvetica,sans-Serif" font-size="10.00"> ProcResourceTable</text>
</g>
<!-- Node6 -->
<g id="node6" class="node">
<title>Node6</title>
<g id="a_node6"><a xlink:href="classchar.html" target="_top" xlink:title="char">
<polygon fill="none" stroke="black" points="10.5,-544.73 10.5,-563.73 45.5,-563.73 45.5,-544.73 10.5,-544.73"/>
<text text-anchor="middle" x="28" y="-551.73" font-family="Helvetica,sans-Serif" font-size="10.00">char</text>
</a>
</g>
</g>
<!-- Node6&#45;&gt;Node1 -->
<g id="edge28" class="edge">
<title>Node6&#45;&gt;Node1</title>
<path fill="none" stroke="#9a32cd" stroke-dasharray="5,2" d="M34.43,-573.62C44.27,-608.15 64.9,-677.32 74,-684.23 114.25,-714.8 250.46,-698.23 301,-698.23 301,-698.23 301,-698.23 845,-698.23 894.53,-698.23 950.49,-698.23 992.83,-698.23"/>
<polygon fill="#9a32cd" stroke="#9a32cd" points="37.73,-572.43 31.64,-563.75 30.99,-574.33 37.73,-572.43"/>
<text text-anchor="middle" x="595" y="-701.23" font-family="Helvetica,sans-Serif" font-size="10.00"> Key</text>
</g>
<!-- Node6&#45;&gt;Node5 -->
<g id="edge5" class="edge">
<title>Node6&#45;&gt;Node5</title>
<path fill="none" stroke="#9a32cd" stroke-dasharray="5,2" d="M55.73,-555.23C91.66,-556.18 157.44,-556.54 213,-549.23 231.53,-546.8 251.85,-542.09 268.29,-537.75"/>
<polygon fill="#9a32cd" stroke="#9a32cd" points="55.68,-551.73 45.58,-554.93 55.47,-558.72 55.68,-551.73"/>
<text text-anchor="middle" x="143.5" y="-558.23" font-family="Helvetica,sans-Serif" font-size="10.00"> Name</text>
</g>
<!-- Node9 -->
<g id="node9" class="node">
<title>Node9</title>
<g id="a_node9"><a xlink:href="structllvm_1_1MCSchedClassDesc.html" target="_top" xlink:title="Summarize the scheduling resources required for an instruction of a particular scheduling class...">
<polygon fill="none" stroke="black" points="235.5,-337.73 235.5,-356.73 368.5,-356.73 368.5,-337.73 235.5,-337.73"/>
<text text-anchor="middle" x="302" y="-344.73" font-family="Helvetica,sans-Serif" font-size="10.00">llvm::MCSchedClassDesc</text>
</a>
</g>
</g>
<!-- Node6&#45;&gt;Node9 -->
<g id="edge10" class="edge">
<title>Node6&#45;&gt;Node9</title>
<path fill="none" stroke="#9a32cd" stroke-dasharray="5,2" d="M55.4,-542.5C61.42,-540.15 67.86,-537.9 74,-536.23 134.29,-519.86 162.12,-551.49 213,-515.23 269.85,-474.73 292.89,-386.1 299.13,-356.83"/>
<polygon fill="#9a32cd" stroke="#9a32cd" points="53.7,-539.41 45.78,-546.45 56.36,-545.89 53.7,-539.41"/>
<text text-anchor="middle" x="143.5" y="-539.23" font-family="Helvetica,sans-Serif" font-size="10.00"> Name</text>
</g>
<!-- Node15 -->
<g id="node15" class="node">
<title>Node15</title>
<g id="a_node15"><a xlink:href="structllvm_1_1MCRegisterFileDesc.html" target="_top" xlink:title="A register file descriptor. ">
<polygon fill="none" stroke="black" points="236,-183.73 236,-202.73 368,-202.73 368,-183.73 236,-183.73"/>
<text text-anchor="middle" x="302" y="-190.73" font-family="Helvetica,sans-Serif" font-size="10.00">llvm::MCRegisterFileDesc</text>
</a>
</g>
</g>
<!-- Node6&#45;&gt;Node15 -->
<g id="edge22" class="edge">
<title>Node6&#45;&gt;Node15</title>
<path fill="none" stroke="#9a32cd" stroke-dasharray="5,2" d="M31.36,-534.54C35.44,-509.79 46.23,-467.92 74,-446.23 123.24,-407.78 168.09,-468.66 213,-425.23 244.52,-394.75 216.75,-369.7 231,-328.23 248.07,-278.55 280.9,-224.53 294.67,-202.94"/>
<polygon fill="#9a32cd" stroke="#9a32cd" points="27.87,-534.18 29.92,-544.58 34.8,-535.18 27.87,-534.18"/>
<text text-anchor="middle" x="143.5" y="-449.23" font-family="Helvetica,sans-Serif" font-size="10.00"> Name</text>
</g>
<!-- Node7 -->
<g id="node7" class="node">
<title>Node7</title>
<polygon fill="none" stroke="#bfbfbf" points="13.5,-662.73 13.5,-681.73 42.5,-681.73 42.5,-662.73 13.5,-662.73"/>
<text text-anchor="middle" x="28" y="-669.73" font-family="Helvetica,sans-Serif" font-size="10.00">int</text>
</g>
<!-- Node7&#45;&gt;Node5 -->
<g id="edge6" class="edge">
<title>Node7&#45;&gt;Node5</title>
<path fill="none" stroke="#9a32cd" stroke-dasharray="5,2" d="M52.75,-670.85C99.73,-667.92 201.03,-660.47 213,-650.23 235.45,-631.02 214.89,-611 231,-586.23 244.68,-565.19 268.37,-547.92 284.36,-537.84"/>
<polygon fill="#9a32cd" stroke="#9a32cd" points="52.34,-667.37 42.57,-671.47 52.77,-674.36 52.34,-667.37"/>
<text text-anchor="middle" x="143.5" y="-672.23" font-family="Helvetica,sans-Serif" font-size="10.00"> BufferSize</text>
</g>
<!-- Node8 -->
<g id="node8" class="node">
<title>Node8</title>
<g id="a_node8"><a xlink:href="classunsigned.html" target="_top" xlink:title="unsigned">
<polygon fill="none" stroke="black" points="0,-214.73 0,-233.73 56,-233.73 56,-214.73 0,-214.73"/>
<text text-anchor="middle" x="28" y="-221.73" font-family="Helvetica,sans-Serif" font-size="10.00">unsigned</text>
</a>
</g>
</g>
<!-- Node8&#45;&gt;Node4 -->
<g id="edge18" class="edge">
<title>Node8&#45;&gt;Node4</title>
<path fill="none" stroke="#9a32cd" stroke-dasharray="5,2" d="M66.3,-222.58C163.58,-218.59 423.27,-210.02 507,-228.23 638.71,-256.87 781.56,-340.2 827.71,-368.61"/>
<polygon fill="#9a32cd" stroke="#9a32cd" points="65.91,-219.09 56.06,-223.01 66.2,-226.09 65.91,-219.09"/>
<text text-anchor="middle" x="449" y="-352.23" font-family="Helvetica,sans-Serif" font-size="10.00"> ProcID</text>
<text text-anchor="middle" x="449" y="-341.23" font-family="Helvetica,sans-Serif" font-size="10.00">DefaultHighLatency</text>
<text text-anchor="middle" x="449" y="-330.23" font-family="Helvetica,sans-Serif" font-size="10.00">HighLatency</text>
<text text-anchor="middle" x="449" y="-319.23" font-family="Helvetica,sans-Serif" font-size="10.00">DefaultIssueWidth</text>
<text text-anchor="middle" x="449" y="-308.23" font-family="Helvetica,sans-Serif" font-size="10.00">DefaultMispredictPenalty</text>
<text text-anchor="middle" x="449" y="-297.23" font-family="Helvetica,sans-Serif" font-size="10.00">NumSchedClasses</text>
<text text-anchor="middle" x="449" y="-286.23" font-family="Helvetica,sans-Serif" font-size="10.00">IssueWidth</text>
<text text-anchor="middle" x="449" y="-275.23" font-family="Helvetica,sans-Serif" font-size="10.00">LoopMicroOpBufferSize</text>
<text text-anchor="middle" x="449" y="-264.23" font-family="Helvetica,sans-Serif" font-size="10.00">LoadLatency</text>
<text text-anchor="start" x="391" y="-253.23" font-family="Helvetica,sans-Serif" font-size="10.00">DefaultLoopMicroOpBuffer</text>
<text text-anchor="middle" x="449" y="-242.23" font-family="Helvetica,sans-Serif" font-size="10.00">Size</text>
<text text-anchor="middle" x="449" y="-231.23" font-family="Helvetica,sans-Serif" font-size="10.00">...</text>
</g>
<!-- Node8&#45;&gt;Node5 -->
<g id="edge7" class="edge">
<title>Node8&#45;&gt;Node5</title>
<path fill="none" stroke="#9a32cd" stroke-dasharray="5,2" d="M34.79,-243.72C40.8,-264.5 50.11,-298.45 56,-328.23 61.7,-357.06 53.21,-438.46 74,-459.23 96.05,-481.27 183.47,-468.24 213,-478.23 241.46,-487.86 271.16,-506.94 287.75,-518.54"/>
<polygon fill="#9a32cd" stroke="#9a32cd" points="38.08,-242.51 31.92,-233.89 31.37,-244.48 38.08,-242.51"/>
<text text-anchor="middle" x="143.5" y="-503.23" font-family="Helvetica,sans-Serif" font-size="10.00"> SubUnitsIdxBegin</text>
<text text-anchor="middle" x="143.5" y="-492.23" font-family="Helvetica,sans-Serif" font-size="10.00">NumUnits</text>
<text text-anchor="middle" x="143.5" y="-481.23" font-family="Helvetica,sans-Serif" font-size="10.00">SuperIdx</text>
</g>
<!-- Node8&#45;&gt;Node9 -->
<g id="edge12" class="edge">
<title>Node8&#45;&gt;Node9</title>
<path fill="none" stroke="#9a32cd" stroke-dasharray="5,2" d="M39.64,-242.68C47.63,-254.98 59.63,-270.61 74,-280.23 127.51,-316.09 151.23,-303 213,-321.23 231.49,-326.69 252.16,-332.8 268.82,-337.72"/>
<polygon fill="#9a32cd" stroke="#9a32cd" points="42.57,-240.75 34.34,-234.07 36.61,-244.42 42.57,-240.75"/>
<text text-anchor="middle" x="143.5" y="-335.23" font-family="Helvetica,sans-Serif" font-size="10.00"> InvalidNumMicroOps</text>
<text text-anchor="middle" x="143.5" y="-324.23" font-family="Helvetica,sans-Serif" font-size="10.00">VariantNumMicroOps</text>
</g>
<!-- Node14 -->
<g id="node14" class="node">
<title>Node14</title>
<g id="a_node14"><a xlink:href="structllvm_1_1MCExtraProcessorInfo.html" target="_top" xlink:title="Provide extra details about the machine processor. ">
<polygon fill="none" stroke="black" points="525,-136.73 525,-155.73 665,-155.73 665,-136.73 525,-136.73"/>
<text text-anchor="middle" x="595" y="-143.73" font-family="Helvetica,sans-Serif" font-size="10.00">llvm::MCExtraProcessorInfo</text>
</a>
</g>
</g>
<!-- Node8&#45;&gt;Node14 -->
<g id="edge27" class="edge">
<title>Node8&#45;&gt;Node14</title>
<path fill="none" stroke="#9a32cd" stroke-dasharray="5,2" d="M38.16,-205.36C45.89,-191.3 58.21,-172.63 74,-161.23 126.43,-123.38 153.53,-143.63 213,-118.23 221.42,-114.64 222.14,-110.53 231,-108.23 353.07,-76.6 504.7,-117.11 566.18,-136.72"/>
<polygon fill="#9a32cd" stroke="#9a32cd" points="34.85,-204.13 33.36,-214.62 41.07,-207.35 34.85,-204.13"/>
<text text-anchor="middle" x="302" y="-166.23" font-family="Helvetica,sans-Serif" font-size="10.00"> NumRegisterCostEntries</text>
<text text-anchor="middle" x="302" y="-155.23" font-family="Helvetica,sans-Serif" font-size="10.00">StoreQueueID</text>
<text text-anchor="middle" x="302" y="-144.23" font-family="Helvetica,sans-Serif" font-size="10.00">NumRegisterFiles</text>
<text text-anchor="middle" x="302" y="-133.23" font-family="Helvetica,sans-Serif" font-size="10.00">LoadQueueID</text>
<text text-anchor="middle" x="302" y="-122.23" font-family="Helvetica,sans-Serif" font-size="10.00">ReorderBufferSize</text>
<text text-anchor="middle" x="302" y="-111.23" font-family="Helvetica,sans-Serif" font-size="10.00">MaxRetirePerCycle</text>
</g>
<!-- Node16 -->
<g id="node16" class="node">
<title>Node16</title>
<g id="a_node16"><a xlink:href="structllvm_1_1MCRegisterCostEntry.html" target="_top" xlink:title="Specify the cost of a register definition in terms of number of physical register allocated at regist...">
<polygon fill="none" stroke="black" points="233.5,-43.73 233.5,-62.73 370.5,-62.73 370.5,-43.73 233.5,-43.73"/>
<text text-anchor="middle" x="302" y="-50.73" font-family="Helvetica,sans-Serif" font-size="10.00">llvm::MCRegisterCostEntry</text>
</a>
</g>
</g>
<!-- Node8&#45;&gt;Node16 -->
<g id="edge26" class="edge">
<title>Node8&#45;&gt;Node16</title>
<path fill="none" stroke="#9a32cd" stroke-dasharray="5,2" d="M31.45,-204.19C36.8,-164.09 50.94,-76.28 74,-58.23 97.94,-39.5 175.44,-41.52 233.27,-46.09"/>
<polygon fill="#9a32cd" stroke="#9a32cd" points="27.95,-203.98 30.15,-214.34 34.89,-204.87 27.95,-203.98"/>
<text text-anchor="middle" x="143.5" y="-72.23" font-family="Helvetica,sans-Serif" font-size="10.00"> RegisterClassID</text>
<text text-anchor="middle" x="143.5" y="-61.23" font-family="Helvetica,sans-Serif" font-size="10.00">Cost</text>
</g>
<!-- Node9&#45;&gt;Node4 -->
<g id="edge8" class="edge">
<title>Node9&#45;&gt;Node4</title>
<path fill="none" stroke="#9a32cd" stroke-dasharray="5,2" d="M355,-358.7C366.78,-360.9 379.28,-362.93 391,-364.23 533.99,-380.15 703.87,-380.46 788.88,-379.34"/>
<polygon fill="#9a32cd" stroke="#9a32cd" points="355.35,-355.21 344.87,-356.74 354.02,-362.08 355.35,-355.21"/>
<text text-anchor="middle" x="595" y="-382.23" font-family="Helvetica,sans-Serif" font-size="10.00"> SchedClassTable</text>
</g>
<!-- Node10 -->
<g id="node10" class="node">
<title>Node10</title>
<g id="a_node10"><a xlink:href="classuint16__t.html" target="_top" xlink:title="uint16_t">
<polygon fill="none" stroke="black" points="2.5,-337.73 2.5,-356.73 53.5,-356.73 53.5,-337.73 2.5,-337.73"/>
<text text-anchor="middle" x="28" y="-344.73" font-family="Helvetica,sans-Serif" font-size="10.00">uint16_t</text>
</a>
</g>
</g>
<!-- Node10&#45;&gt;Node9 -->
<g id="edge9" class="edge">
<title>Node10&#45;&gt;Node9</title>
<path fill="none" stroke="#9a32cd" stroke-dasharray="5,2" d="M63.89,-347.23C107.04,-347.23 181.4,-347.23 235.36,-347.23"/>
<polygon fill="#9a32cd" stroke="#9a32cd" points="63.62,-343.73 53.62,-347.23 63.62,-350.73 63.62,-343.73"/>
<text text-anchor="middle" x="143.5" y="-416.23" font-family="Helvetica,sans-Serif" font-size="10.00"> NumMicroOps</text>
<text text-anchor="middle" x="143.5" y="-405.23" font-family="Helvetica,sans-Serif" font-size="10.00">NumWriteProcResEntries</text>
<text text-anchor="middle" x="143.5" y="-394.23" font-family="Helvetica,sans-Serif" font-size="10.00">ReadAdvanceIdx</text>
<text text-anchor="middle" x="143.5" y="-383.23" font-family="Helvetica,sans-Serif" font-size="10.00">NumReadAdvanceEntries</text>
<text text-anchor="middle" x="143.5" y="-372.23" font-family="Helvetica,sans-Serif" font-size="10.00">NumWriteLatencyEntries</text>
<text text-anchor="middle" x="143.5" y="-361.23" font-family="Helvetica,sans-Serif" font-size="10.00">WriteLatencyIdx</text>
<text text-anchor="middle" x="143.5" y="-350.23" font-family="Helvetica,sans-Serif" font-size="10.00">WriteProcResIdx</text>
</g>
<!-- Node12 -->
<g id="node12" class="node">
<title>Node12</title>
<g id="a_node12"><a xlink:href="structllvm_1_1InstrItinerary.html" target="_top" xlink:title="An itinerary represents the scheduling information for an instruction. ">
<polygon fill="none" stroke="black" points="254.5,-595.73 254.5,-614.73 349.5,-614.73 349.5,-595.73 254.5,-595.73"/>
<text text-anchor="middle" x="302" y="-602.73" font-family="Helvetica,sans-Serif" font-size="10.00">llvm::InstrItinerary</text>
</a>
</g>
</g>
<!-- Node10&#45;&gt;Node12 -->
<g id="edge15" class="edge">
<title>Node10&#45;&gt;Node12</title>
<path fill="none" stroke="#9a32cd" stroke-dasharray="5,2" d="M31.66,-366.85C38.86,-418.64 59.2,-556.1 74,-570.23 99.16,-594.26 195.49,-601.79 254.28,-604.15"/>
<polygon fill="#9a32cd" stroke="#9a32cd" points="35.12,-366.34 30.29,-356.91 28.19,-367.29 35.12,-366.34"/>
<text text-anchor="middle" x="143.5" y="-637.23" font-family="Helvetica,sans-Serif" font-size="10.00"> LastStage</text>
<text text-anchor="middle" x="143.5" y="-626.23" font-family="Helvetica,sans-Serif" font-size="10.00">FirstOperandCycle</text>
<text text-anchor="middle" x="143.5" y="-615.23" font-family="Helvetica,sans-Serif" font-size="10.00">LastOperandCycle</text>
<text text-anchor="middle" x="143.5" y="-604.23" font-family="Helvetica,sans-Serif" font-size="10.00">FirstStage</text>
</g>
<!-- Node10&#45;&gt;Node15 -->
<g id="edge21" class="edge">
<title>Node10&#45;&gt;Node15</title>
<path fill="none" stroke="#9a32cd" stroke-dasharray="5,2" d="M34.05,-327.4C44.59,-286.32 68.43,-195.42 74,-191.23 133.52,-146.45 228.89,-168.88 274.72,-183.69"/>
<polygon fill="#9a32cd" stroke="#9a32cd" points="30.59,-326.78 31.51,-337.33 37.37,-328.51 30.59,-326.78"/>
<text text-anchor="middle" x="143.5" y="-227.23" font-family="Helvetica,sans-Serif" font-size="10.00"> MaxMovesEliminatedPerCycle</text>
<text text-anchor="middle" x="143.5" y="-216.23" font-family="Helvetica,sans-Serif" font-size="10.00">NumRegisterCostEntries</text>
<text text-anchor="middle" x="143.5" y="-205.23" font-family="Helvetica,sans-Serif" font-size="10.00">NumPhysRegs</text>
<text text-anchor="middle" x="143.5" y="-194.23" font-family="Helvetica,sans-Serif" font-size="10.00">RegisterCostEntryIdx</text>
</g>
<!-- Node11 -->
<g id="node11" class="node">
<title>Node11</title>
<g id="a_node11"><a xlink:href="classbool.html" target="_top" xlink:title="bool">
<polygon fill="none" stroke="black" points="10.5,-56.73 10.5,-75.73 45.5,-75.73 45.5,-56.73 10.5,-56.73"/>
<text text-anchor="middle" x="28" y="-63.73" font-family="Helvetica,sans-Serif" font-size="10.00">bool</text>
</a>
</g>
</g>
<!-- Node11&#45;&gt;Node4 -->
<g id="edge17" class="edge">
<title>Node11&#45;&gt;Node4</title>
<path fill="none" stroke="#9a32cd" stroke-dasharray="5,2" d="M39.17,-47.87C46.96,-35.84 58.92,-21.12 74,-14.23 122.81,8.08 394.89,2.48 507,-26.23 633.89,-58.73 685.37,-58.12 771,-157.23 827.98,-223.19 840.07,-335.18 842.45,-368.56"/>
<polygon fill="#9a32cd" stroke="#9a32cd" points="35.99,-46.36 33.84,-56.73 41.99,-49.97 35.99,-46.36"/>
<text text-anchor="middle" x="449" y="-40.23" font-family="Helvetica,sans-Serif" font-size="10.00"> PostRAScheduler</text>
<text text-anchor="middle" x="449" y="-29.23" font-family="Helvetica,sans-Serif" font-size="10.00">CompleteModel</text>
</g>
<!-- Node11&#45;&gt;Node9 -->
<g id="edge11" class="edge">
<title>Node11&#45;&gt;Node9</title>
<path fill="none" stroke="#9a32cd" stroke-dasharray="5,2" d="M31.54,-86.16C37.09,-126.46 51.63,-215.49 74,-235.23 120.74,-276.5 157.53,-225.75 213,-254.23 251.76,-274.14 282.75,-318.08 295.15,-337.58"/>
<polygon fill="#9a32cd" stroke="#9a32cd" points="35,-85.64 30.21,-76.19 28.06,-86.56 35,-85.64"/>
<text text-anchor="middle" x="143.5" y="-268.23" font-family="Helvetica,sans-Serif" font-size="10.00"> BeginGroup</text>
<text text-anchor="middle" x="143.5" y="-257.23" font-family="Helvetica,sans-Serif" font-size="10.00">EndGroup</text>
</g>
<!-- Node11&#45;&gt;Node15 -->
<g id="edge23" class="edge">
<title>Node11&#45;&gt;Node15</title>
<path fill="none" stroke="#9a32cd" stroke-dasharray="5,2" d="M54.91,-76.84C61.14,-79.33 67.79,-81.92 74,-84.23 135.25,-107.04 164.09,-88.88 213,-132.23 226.68,-144.36 217.3,-157.12 231,-169.23 238.12,-175.53 246.97,-180.19 255.96,-183.64"/>
<polygon fill="#9a32cd" stroke="#9a32cd" points="56.18,-73.58 45.6,-73.09 53.56,-80.07 56.18,-73.58"/>
<text text-anchor="middle" x="143.5" y="-135.23" font-family="Helvetica,sans-Serif" font-size="10.00"> AllowZeroMoveEliminationOnly</text>
</g>
<!-- Node11&#45;&gt;Node16 -->
<g id="edge25" class="edge">
<title>Node11&#45;&gt;Node16</title>
<path fill="none" stroke="#9a32cd" stroke-dasharray="5,2" d="M43.85,-49.02C51.87,-41.06 62.48,-32.45 74,-28.23 144.38,-2.49 234.57,-28.39 276.95,-43.7"/>
<polygon fill="#9a32cd" stroke="#9a32cd" points="41.05,-46.89 36.76,-56.58 46.15,-51.68 41.05,-46.89"/>
<text text-anchor="middle" x="143.5" y="-31.23" font-family="Helvetica,sans-Serif" font-size="10.00"> AllowMoveElimination</text>
</g>
<!-- Node12&#45;&gt;Node4 -->
<g id="edge14" class="edge">
<title>Node12&#45;&gt;Node4</title>
<path fill="none" stroke="#9a32cd" stroke-dasharray="5,2" d="M345.96,-592.9C414.59,-572.66 552.68,-529.79 665,-481.23 713.91,-460.09 725.09,-452.27 771,-425.23 791.71,-413.04 814.85,-397.59 829.17,-387.81"/>
<polygon fill="#9a32cd" stroke="#9a32cd" points="344.96,-589.54 336.35,-595.72 346.93,-596.26 344.96,-589.54"/>
<text text-anchor="middle" x="595" y="-536.23" font-family="Helvetica,sans-Serif" font-size="10.00"> InstrItineraries</text>
</g>
<!-- Node13 -->
<g id="node13" class="node">
<title>Node13</title>
<polygon fill="none" stroke="#bfbfbf" points="5,-721.73 5,-740.73 51,-740.73 51,-721.73 5,-721.73"/>
<text text-anchor="middle" x="28" y="-728.73" font-family="Helvetica,sans-Serif" font-size="10.00">int16_t</text>
</g>
<!-- Node13&#45;&gt;Node12 -->
<g id="edge16" class="edge">
<title>Node13&#45;&gt;Node12</title>
<path fill="none" stroke="#9a32cd" stroke-dasharray="5,2" d="M61.29,-728.54C99.49,-724.26 164.06,-713.49 213,-687.23 248.15,-668.38 279.83,-632.01 293.66,-614.76"/>
<polygon fill="#9a32cd" stroke="#9a32cd" points="60.84,-725.07 51.25,-729.59 61.56,-732.03 60.84,-725.07"/>
<text text-anchor="middle" x="143.5" y="-729.23" font-family="Helvetica,sans-Serif" font-size="10.00"> NumMicroOps</text>
</g>
<!-- Node14&#45;&gt;Node4 -->
<g id="edge19" class="edge">
<title>Node14&#45;&gt;Node4</title>
<path fill="none" stroke="#9a32cd" stroke-dasharray="5,2" d="M673.33,-158.09C706.79,-166.64 744.32,-181.26 771,-206.23 820.87,-252.91 837.44,-339.49 841.73,-368.48"/>
<polygon fill="#9a32cd" stroke="#9a32cd" points="674.09,-154.68 663.55,-155.74 672.45,-161.48 674.09,-154.68"/>
<text text-anchor="middle" x="727" y="-209.23" font-family="Helvetica,sans-Serif" font-size="10.00"> ExtraProcessorInfo</text>
</g>
<!-- Node15&#45;&gt;Node14 -->
<g id="edge20" class="edge">
<title>Node15&#45;&gt;Node14</title>
<path fill="none" stroke="#9a32cd" stroke-dasharray="5,2" d="M371.89,-182.11C421.51,-174.09 487.75,-163.39 534.95,-155.77"/>
<polygon fill="#9a32cd" stroke="#9a32cd" points="371.2,-178.67 361.89,-183.72 372.32,-185.58 371.2,-178.67"/>
<text text-anchor="middle" x="449" y="-181.23" font-family="Helvetica,sans-Serif" font-size="10.00"> RegisterFiles</text>
</g>
<!-- Node16&#45;&gt;Node14 -->
<g id="edge24" class="edge">
<title>Node16&#45;&gt;Node14</title>
<path fill="none" stroke="#9a32cd" stroke-dasharray="5,2" d="M380.69,-50.71C419.91,-52.02 467.43,-57.64 507,-74.23 540.99,-88.48 571.98,-120.63 586.04,-136.71"/>
<polygon fill="#9a32cd" stroke="#9a32cd" points="380.73,-47.21 370.65,-50.47 380.56,-54.21 380.73,-47.21"/>
<text text-anchor="middle" x="449" y="-77.23" font-family="Helvetica,sans-Serif" font-size="10.00"> RegisterCostTable</text>
</g>
</g>
</svg>
