<?xml version="1.0" encoding="UTF-8" standalone="no"?>
<!DOCTYPE svg PUBLIC "-//W3C//DTD SVG 1.1//EN"
 "http://www.w3.org/Graphics/SVG/1.1/DTD/svg11.dtd">
<!-- Generated by graphviz version 2.43.0 (0)
 -->
<!-- Title: llvm::MCDwarfLineTableParams Pages: 1 -->
<svg width="253pt" height="106pt"
 viewBox="0.00 0.00 253.00 106.00" xmlns="http://www.w3.org/2000/svg" xmlns:xlink="http://www.w3.org/1999/xlink">
<g id="graph0" class="graph" transform="scale(1 1) rotate(0) translate(4 102)">
<title>llvm::MCDwarfLineTableParams</title>
<!-- Node1 -->
<g id="node1" class="node">
<title>Node1</title>
<polygon fill="#bfbfbf" stroke="black" points="0,-0.5 0,-19.5 158,-19.5 158,-0.5 0,-0.5"/>
<text text-anchor="middle" x="79" y="-7.5" font-family="Helvetica,sans-Serif" font-size="10.00">llvm::MCDwarfLineTableParams</text>
</g>
<!-- Node2 -->
<g id="node2" class="node">
<title>Node2</title>
<polygon fill="none" stroke="#bfbfbf" points="3.5,-78.5 3.5,-97.5 44.5,-97.5 44.5,-78.5 3.5,-78.5"/>
<text text-anchor="middle" x="24" y="-85.5" font-family="Helvetica,sans-Serif" font-size="10.00">int8_t</text>
</g>
<!-- Node2&#45;&gt;Node1 -->
<g id="edge1" class="edge">
<title>Node2&#45;&gt;Node1</title>
<path fill="none" stroke="#9a32cd" stroke-dasharray="5,2" d="M20.01,-68.35C18.95,-58.6 19.38,-46.88 25,-38 30.32,-29.58 39.13,-23.7 48.1,-19.62"/>
<polygon fill="#9a32cd" stroke="#9a32cd" points="16.57,-68.97 21.65,-78.27 23.48,-67.83 16.57,-68.97"/>
<text text-anchor="middle" x="68.5" y="-46.5" font-family="Helvetica,sans-Serif" font-size="10.00"> DWARF2LineBase</text>
</g>
<!-- Node3 -->
<g id="node3" class="node">
<title>Node3</title>
<polygon fill="none" stroke="#bfbfbf" points="111,-78.5 111,-97.5 157,-97.5 157,-78.5 111,-78.5"/>
<text text-anchor="middle" x="134" y="-85.5" font-family="Helvetica,sans-Serif" font-size="10.00">uint8_t</text>
</g>
<!-- Node3&#45;&gt;Node1 -->
<g id="edge2" class="edge">
<title>Node3&#45;&gt;Node1</title>
<path fill="none" stroke="#9a32cd" stroke-dasharray="5,2" d="M128.17,-68.87C124.48,-59.12 119.08,-47.24 112,-38 106.51,-30.83 98.76,-24.36 92.15,-19.56"/>
<polygon fill="#9a32cd" stroke="#9a32cd" points="124.89,-70.1 131.48,-78.39 131.5,-67.79 124.89,-70.1"/>
<text text-anchor="middle" x="184.5" y="-52" font-family="Helvetica,sans-Serif" font-size="10.00"> DWARF2LineOpcodeBase</text>
<text text-anchor="middle" x="184.5" y="-41" font-family="Helvetica,sans-Serif" font-size="10.00">DWARF2LineRange</text>
</g>
</g>
</svg>
