<?xml version="1.0" encoding="UTF-8" standalone="no"?>
<!DOCTYPE svg PUBLIC "-//W3C//DTD SVG 1.1//EN"
 "http://www.w3.org/Graphics/SVG/1.1/DTD/svg11.dtd">
<!-- Generated by graphviz version 2.43.0 (0)
 -->
<!-- Title: llvm::SubMultiClassReference Pages: 1 -->
<svg width="2109pt" height="282pt"
 viewBox="0.00 0.00 2109.00 281.50" xmlns="http://www.w3.org/2000/svg" xmlns:xlink="http://www.w3.org/1999/xlink">
<g id="graph0" class="graph" transform="scale(1 1) rotate(0) translate(4 277.5)">
<title>llvm::SubMultiClassReference</title>
<!-- Node1 -->
<g id="node1" class="node">
<title>Node1</title>
<polygon fill="#bfbfbf" stroke="black" points="1952,-123 1952,-142 2101,-142 2101,-123 1952,-123"/>
<text text-anchor="middle" x="2026.5" y="-130" font-family="Helvetica,sans-Serif" font-size="10.00">llvm::SubMultiClassReference</text>
</g>
<!-- Node2 -->
<g id="node2" class="node">
<title>Node2</title>
<g id="a_node2"><a xlink:href="structllvm_1_1MultiClass.html" target="_top" xlink:title="llvm::MultiClass">
<polygon fill="none" stroke="black" points="1758.5,-216 1758.5,-235 1845.5,-235 1845.5,-216 1758.5,-216"/>
<text text-anchor="middle" x="1802" y="-223" font-family="Helvetica,sans-Serif" font-size="10.00">llvm::MultiClass</text>
</a>
</g>
</g>
<!-- Node2&#45;&gt;Node1 -->
<g id="edge1" class="edge">
<title>Node2&#45;&gt;Node1</title>
<path fill="none" stroke="#9a32cd" stroke-dasharray="5,2" d="M1835.39,-211.96C1880.97,-192.91 1962.91,-158.66 2002.65,-142.05"/>
<polygon fill="#9a32cd" stroke="#9a32cd" points="1833.85,-208.81 1825.97,-215.9 1836.55,-215.27 1833.85,-208.81"/>
<text text-anchor="middle" x="1902" y="-197.5" font-family="Helvetica,sans-Serif" font-size="10.00"> MC</text>
</g>
<!-- Node3 -->
<g id="node3" class="node">
<title>Node3</title>
<g id="a_node3"><a xlink:href="classllvm_1_1Record.html" target="_top" xlink:title="llvm::Record">
<polygon fill="none" stroke="black" points="1530,-254 1530,-273 1602,-273 1602,-254 1530,-254"/>
<text text-anchor="middle" x="1566" y="-261" font-family="Helvetica,sans-Serif" font-size="10.00">llvm::Record</text>
</a>
</g>
</g>
<!-- Node3&#45;&gt;Node2 -->
<g id="edge2" class="edge">
<title>Node3&#45;&gt;Node2</title>
<path fill="none" stroke="#9a32cd" stroke-dasharray="5,2" d="M1612.32,-258.29C1646.01,-254.18 1693.02,-247.9 1734,-240.5 1742.8,-238.91 1752.19,-236.97 1761.08,-235.01"/>
<polygon fill="#9a32cd" stroke="#9a32cd" points="1611.83,-254.83 1602.32,-259.5 1612.67,-261.78 1611.83,-254.83"/>
<text text-anchor="middle" x="1695.5" y="-254.5" font-family="Helvetica,sans-Serif" font-size="10.00"> Rec</text>
</g>
<!-- Node4 -->
<g id="node4" class="node">
<title>Node4</title>
<polygon fill="none" stroke="#bfbfbf" points="1493,-216 1493,-235 1639,-235 1639,-216 1493,-216"/>
<text text-anchor="middle" x="1566" y="-223" font-family="Helvetica,sans-Serif" font-size="10.00">vector&lt; llvm::RecordsEntry &gt;</text>
</g>
<!-- Node4&#45;&gt;Node2 -->
<g id="edge3" class="edge">
<title>Node4&#45;&gt;Node2</title>
<path fill="none" stroke="#9a32cd" stroke-dasharray="5,2" d="M1649.35,-225.5C1686.16,-225.5 1728,-225.5 1758.4,-225.5"/>
<polygon fill="#9a32cd" stroke="#9a32cd" points="1649.12,-222 1639.12,-225.5 1649.12,-229 1649.12,-222"/>
<text text-anchor="middle" x="1695.5" y="-228.5" font-family="Helvetica,sans-Serif" font-size="10.00"> Entries</text>
</g>
<!-- Node5 -->
<g id="node5" class="node">
<title>Node5</title>
<g id="a_node5"><a xlink:href="classllvm_1_1SmallVector.html" target="_top" xlink:title="llvm::SmallVector\&lt;\l llvm::Init *, 4 \&gt;">
<polygon fill="none" stroke="black" points="1752,-117.5 1752,-147.5 1852,-147.5 1852,-117.5 1752,-117.5"/>
<text text-anchor="start" x="1760" y="-135.5" font-family="Helvetica,sans-Serif" font-size="10.00">llvm::SmallVector&lt;</text>
<text text-anchor="middle" x="1802" y="-124.5" font-family="Helvetica,sans-Serif" font-size="10.00"> llvm::Init *, 4 &gt;</text>
</a>
</g>
</g>
<!-- Node5&#45;&gt;Node1 -->
<g id="edge4" class="edge">
<title>Node5&#45;&gt;Node1</title>
<path fill="none" stroke="#9a32cd" stroke-dasharray="5,2" d="M1862.37,-132.5C1889.91,-132.5 1922.91,-132.5 1952,-132.5"/>
<polygon fill="#9a32cd" stroke="#9a32cd" points="1862.1,-129 1852.1,-132.5 1862.1,-136 1862.1,-129"/>
<text text-anchor="middle" x="1902" y="-135.5" font-family="Helvetica,sans-Serif" font-size="10.00"> TemplateArgs</text>
</g>
<!-- Node6 -->
<g id="node6" class="node">
<title>Node6</title>
<g id="a_node6"><a xlink:href="classllvm_1_1SmallVectorImpl.html" target="_top" xlink:title="llvm::SmallVectorImpl\l\&lt; llvm::Init * \&gt;">
<polygon fill="none" stroke="black" points="1509.5,-68.5 1509.5,-98.5 1622.5,-98.5 1622.5,-68.5 1509.5,-68.5"/>
<text text-anchor="start" x="1517.5" y="-86.5" font-family="Helvetica,sans-Serif" font-size="10.00">llvm::SmallVectorImpl</text>
<text text-anchor="middle" x="1566" y="-75.5" font-family="Helvetica,sans-Serif" font-size="10.00">&lt; llvm::Init * &gt;</text>
</a>
</g>
</g>
<!-- Node6&#45;&gt;Node5 -->
<g id="edge5" class="edge">
<title>Node6&#45;&gt;Node5</title>
<path fill="none" stroke="midnightblue" d="M1632.64,-97.25C1670.39,-105.15 1717.03,-114.92 1751.64,-122.16"/>
<polygon fill="midnightblue" stroke="midnightblue" points="1633.26,-93.8 1622.75,-95.17 1631.82,-100.65 1633.26,-93.8"/>
</g>
<!-- Node7 -->
<g id="node7" class="node">
<title>Node7</title>
<g id="a_node7"><a xlink:href="classllvm_1_1SmallVectorTemplateBase.html" target="_top" xlink:title="SmallVectorTemplateBase&lt;TriviallyCopyable = false&gt; &#45; This is where we put method implementations that...">
<polygon fill="none" stroke="black" points="842,-0.5 842,-30.5 976,-30.5 976,-0.5 842,-0.5"/>
<text text-anchor="start" x="850" y="-18.5" font-family="Helvetica,sans-Serif" font-size="10.00">llvm::SmallVectorTemplate</text>
<text text-anchor="middle" x="909" y="-7.5" font-family="Helvetica,sans-Serif" font-size="10.00">Base&lt; llvm::Init * &gt;</text>
</a>
</g>
</g>
<!-- Node7&#45;&gt;Node6 -->
<g id="edge6" class="edge">
<title>Node7&#45;&gt;Node6</title>
<path fill="none" stroke="midnightblue" d="M986.23,-23.41C1119.52,-37.25 1391.87,-65.53 1509.19,-77.71"/>
<polygon fill="midnightblue" stroke="midnightblue" points="986.41,-19.91 976.11,-22.36 985.69,-26.88 986.41,-19.91"/>
</g>
<!-- Node8 -->
<g id="node8" class="node">
<title>Node8</title>
<g id="a_node8"><a xlink:href="classllvm_1_1SmallVectorTemplateCommon.html" target="_top" xlink:title="llvm::SmallVectorTemplate\lCommon\&lt; T \&gt;">
<polygon fill="none" stroke="black" points="483,-34.5 483,-64.5 617,-64.5 617,-34.5 483,-34.5"/>
<text text-anchor="start" x="491" y="-52.5" font-family="Helvetica,sans-Serif" font-size="10.00">llvm::SmallVectorTemplate</text>
<text text-anchor="middle" x="550" y="-41.5" font-family="Helvetica,sans-Serif" font-size="10.00">Common&lt; T &gt;</text>
</a>
</g>
</g>
<!-- Node8&#45;&gt;Node7 -->
<g id="edge7" class="edge">
<title>Node8&#45;&gt;Node7</title>
<path fill="none" stroke="midnightblue" d="M627.38,-36.46C629.95,-36.12 632.5,-35.8 635,-35.5 705.43,-27.07 786.53,-21.67 841.92,-18.63"/>
<polygon fill="midnightblue" stroke="midnightblue" points="626.83,-33.01 617.4,-37.85 627.79,-39.94 626.83,-33.01"/>
</g>
<!-- Node14 -->
<g id="node14" class="node">
<title>Node14</title>
<g id="a_node14"><a xlink:href="classllvm_1_1SmallVectorTemplateBase.html" target="_top" xlink:title="llvm::SmallVectorTemplate\lBase\&lt; T \&gt;">
<polygon fill="none" stroke="black" points="1010.5,-74.5 1010.5,-104.5 1144.5,-104.5 1144.5,-74.5 1010.5,-74.5"/>
<text text-anchor="start" x="1018.5" y="-92.5" font-family="Helvetica,sans-Serif" font-size="10.00">llvm::SmallVectorTemplate</text>
<text text-anchor="middle" x="1077.5" y="-81.5" font-family="Helvetica,sans-Serif" font-size="10.00">Base&lt; T &gt;</text>
</a>
</g>
</g>
<!-- Node8&#45;&gt;Node14 -->
<g id="edge15" class="edge">
<title>Node8&#45;&gt;Node14</title>
<path fill="none" stroke="midnightblue" d="M627.18,-54.96C681.94,-58.91 757.53,-64.43 824,-69.5 887.25,-74.32 959.39,-80.06 1010.32,-84.15"/>
<polygon fill="midnightblue" stroke="midnightblue" points="627.43,-51.47 617.21,-54.24 626.93,-58.45 627.43,-51.47"/>
</g>
<!-- Node15 -->
<g id="node15" class="node">
<title>Node15</title>
<g id="a_node15"><a xlink:href="classllvm_1_1SmallVectorTemplateBase.html" target="_top" xlink:title="SmallVectorTemplateBase&lt;TriviallyCopyable = false&gt; &#45; This is where we put method implementations that...">
<polygon fill="none" stroke="black" points="685.5,-78.5 685.5,-108.5 819.5,-108.5 819.5,-78.5 685.5,-78.5"/>
<text text-anchor="start" x="693.5" y="-96.5" font-family="Helvetica,sans-Serif" font-size="10.00">llvm::SmallVectorTemplate</text>
<text text-anchor="middle" x="752.5" y="-85.5" font-family="Helvetica,sans-Serif" font-size="10.00">Base&lt; T, bool &gt;</text>
</a>
</g>
</g>
<!-- Node8&#45;&gt;Node15 -->
<g id="edge17" class="edge">
<title>Node8&#45;&gt;Node15</title>
<path fill="none" stroke="midnightblue" d="M627.11,-66.2C646.28,-70.41 666.72,-74.89 685.36,-78.99"/>
<polygon fill="midnightblue" stroke="midnightblue" points="627.72,-62.75 617.21,-64.03 626.22,-69.59 627.72,-62.75"/>
</g>
<!-- Node9 -->
<g id="node9" class="node">
<title>Node9</title>
<g id="a_node9"><a xlink:href="classllvm_1_1SmallVectorBase.html" target="_top" xlink:title="This is all the non&#45;templated stuff common to all SmallVectors. ">
<polygon fill="none" stroke="black" points="132,-40 132,-59 248,-59 248,-40 132,-40"/>
<text text-anchor="middle" x="190" y="-47" font-family="Helvetica,sans-Serif" font-size="10.00">llvm::SmallVectorBase</text>
</a>
</g>
</g>
<!-- Node9&#45;&gt;Node8 -->
<g id="edge8" class="edge">
<title>Node9&#45;&gt;Node8</title>
<path fill="none" stroke="midnightblue" d="M258.36,-52.29C260.94,-52.36 263.49,-52.44 266,-52.5 354.42,-54.79 376.59,-57.13 465,-54.5 470.84,-54.33 476.91,-54.08 482.99,-53.8"/>
<polygon fill="midnightblue" stroke="midnightblue" points="258.43,-48.79 248.32,-51.96 258.2,-55.78 258.43,-48.79"/>
</g>
<!-- Node12 -->
<g id="node12" class="node">
<title>Node12</title>
<g id="a_node12"><a xlink:href="classllvm_1_1SmallVectorTemplateCommon.html" target="_top" xlink:title="This is the part of SmallVectorTemplateBase which does not depend on whether the type T is a POD...">
<polygon fill="none" stroke="black" points="285,-12.5 285,-42.5 419,-42.5 419,-12.5 285,-12.5"/>
<text text-anchor="start" x="293" y="-30.5" font-family="Helvetica,sans-Serif" font-size="10.00">llvm::SmallVectorTemplate</text>
<text text-anchor="middle" x="352" y="-19.5" font-family="Helvetica,sans-Serif" font-size="10.00">Common&lt; T, typename &gt;</text>
</a>
</g>
</g>
<!-- Node9&#45;&gt;Node12 -->
<g id="edge12" class="edge">
<title>Node9&#45;&gt;Node12</title>
<path fill="none" stroke="midnightblue" d="M258.44,-40.23C267.18,-39.03 276.12,-37.8 284.83,-36.6"/>
<polygon fill="midnightblue" stroke="midnightblue" points="257.74,-36.79 248.31,-41.62 258.7,-43.72 257.74,-36.79"/>
</g>
<!-- Node10 -->
<g id="node10" class="node">
<title>Node10</title>
<g id="a_node10"><a xlink:href="classunsigned.html" target="_top" xlink:title="unsigned">
<polygon fill="none" stroke="black" points="0,-59 0,-78 56,-78 56,-59 0,-59"/>
<text text-anchor="middle" x="28" y="-66" font-family="Helvetica,sans-Serif" font-size="10.00">unsigned</text>
</a>
</g>
</g>
<!-- Node10&#45;&gt;Node9 -->
<g id="edge9" class="edge">
<title>Node10&#45;&gt;Node9</title>
<path fill="none" stroke="#9a32cd" stroke-dasharray="5,2" d="M66.15,-64.09C85.65,-61.77 109.97,-58.88 131.82,-56.29"/>
<polygon fill="#9a32cd" stroke="#9a32cd" points="65.66,-60.62 56.14,-65.28 66.48,-67.57 65.66,-60.62"/>
<text text-anchor="middle" x="94" y="-76.5" font-family="Helvetica,sans-Serif" font-size="10.00"> Size</text>
<text text-anchor="middle" x="94" y="-65.5" font-family="Helvetica,sans-Serif" font-size="10.00">Capacity</text>
</g>
<!-- Node11 -->
<g id="node11" class="node">
<title>Node11</title>
<polygon fill="none" stroke="#bfbfbf" points="7.5,-21 7.5,-40 48.5,-40 48.5,-21 7.5,-21"/>
<text text-anchor="middle" x="28" y="-28" font-family="Helvetica,sans-Serif" font-size="10.00">void *</text>
</g>
<!-- Node11&#45;&gt;Node9 -->
<g id="edge10" class="edge">
<title>Node11&#45;&gt;Node9</title>
<path fill="none" stroke="#9a32cd" stroke-dasharray="5,2" d="M58.59,-34.01C79.05,-36.44 106.94,-39.76 131.67,-42.69"/>
<polygon fill="#9a32cd" stroke="#9a32cd" points="58.96,-30.53 48.62,-32.83 58.14,-37.48 58.96,-30.53"/>
<text text-anchor="middle" x="94" y="-43.5" font-family="Helvetica,sans-Serif" font-size="10.00"> BeginX</text>
</g>
<!-- Node12&#45;&gt;Node8 -->
<g id="edge11" class="edge">
<title>Node12&#45;&gt;Node8</title>
<path fill="none" stroke="orange" stroke-dasharray="5,2" d="M429.35,-36.07C447.02,-38.05 465.68,-40.15 482.87,-42.08"/>
<polygon fill="orange" stroke="orange" points="429.41,-32.55 419.08,-34.92 428.63,-39.51 429.41,-32.55"/>
<text text-anchor="middle" x="451" y="-42.5" font-family="Helvetica,sans-Serif" font-size="10.00"> &lt; T &gt;</text>
</g>
<!-- Node13 -->
<g id="node13" class="node">
<title>Node13</title>
<g id="a_node13"><a xlink:href="classllvm_1_1SmallVectorImpl.html" target="_top" xlink:title="This class consists of common code factored out of the SmallVector class to reduce code duplication b...">
<polygon fill="none" stroke="black" points="1241,-80 1241,-99 1378,-99 1378,-80 1241,-80"/>
<text text-anchor="middle" x="1309.5" y="-87" font-family="Helvetica,sans-Serif" font-size="10.00">llvm::SmallVectorImpl&lt; T &gt;</text>
</a>
</g>
</g>
<!-- Node13&#45;&gt;Node6 -->
<g id="edge13" class="edge">
<title>Node13&#45;&gt;Node6</title>
<path fill="none" stroke="orange" stroke-dasharray="5,2" d="M1388.31,-87.67C1427.35,-86.75 1473.74,-85.65 1509.19,-84.82"/>
<polygon fill="orange" stroke="orange" points="1387.95,-84.17 1378.03,-87.91 1388.11,-91.17 1387.95,-84.17"/>
<text text-anchor="middle" x="1435.5" y="-89.5" font-family="Helvetica,sans-Serif" font-size="10.00"> &lt; llvm::Init * &gt;</text>
</g>
<!-- Node22 -->
<g id="node22" class="node">
<title>Node22</title>
<g id="a_node22"><a xlink:href="classllvm_1_1SmallVector.html" target="_top" xlink:title="This is a &#39;vector&#39; (really, a variable&#45;sized array), optimized for the case when the array is small...">
<polygon fill="none" stroke="black" points="1516,-117.5 1516,-147.5 1616,-147.5 1616,-117.5 1516,-117.5"/>
<text text-anchor="start" x="1524" y="-135.5" font-family="Helvetica,sans-Serif" font-size="10.00">llvm::SmallVector&lt;</text>
<text text-anchor="middle" x="1566" y="-124.5" font-family="Helvetica,sans-Serif" font-size="10.00"> T, N &gt;</text>
</a>
</g>
</g>
<!-- Node13&#45;&gt;Node22 -->
<g id="edge28" class="edge">
<title>Node13&#45;&gt;Node22</title>
<path fill="none" stroke="midnightblue" d="M1376.92,-100.72C1420.47,-108.08 1476.45,-117.54 1515.97,-124.22"/>
<polygon fill="midnightblue" stroke="midnightblue" points="1377.43,-97.26 1366.98,-99.04 1376.26,-104.16 1377.43,-97.26"/>
</g>
<!-- Node14&#45;&gt;Node13 -->
<g id="edge14" class="edge">
<title>Node14&#45;&gt;Node13</title>
<path fill="none" stroke="midnightblue" d="M1154.78,-89.5C1182.57,-89.5 1213.76,-89.5 1240.76,-89.5"/>
<polygon fill="midnightblue" stroke="midnightblue" points="1154.72,-86 1144.72,-89.5 1154.72,-93 1154.72,-86"/>
</g>
<!-- Node15&#45;&gt;Node14 -->
<g id="edge16" class="edge">
<title>Node15&#45;&gt;Node14</title>
<path fill="none" stroke="orange" stroke-dasharray="5,2" d="M829.67,-92.56C884.6,-91.88 958,-90.97 1010.45,-90.32"/>
<polygon fill="orange" stroke="orange" points="829.6,-89.06 819.64,-92.68 829.69,-96.06 829.6,-89.06"/>
<text text-anchor="middle" x="909" y="-94.5" font-family="Helvetica,sans-Serif" font-size="10.00"> &lt; T &gt;</text>
</g>
<!-- Node16 -->
<g id="node16" class="node">
<title>Node16</title>
<g id="a_node16"><a xlink:href="structllvm_1_1SmallVectorStorage.html" target="_top" xlink:title="llvm::SmallVectorStorage\l\&lt; llvm::Init *, N \&gt;">
<polygon fill="none" stroke="black" points="1502,-166.5 1502,-196.5 1630,-196.5 1630,-166.5 1502,-166.5"/>
<text text-anchor="start" x="1510" y="-184.5" font-family="Helvetica,sans-Serif" font-size="10.00">llvm::SmallVectorStorage</text>
<text text-anchor="middle" x="1566" y="-173.5" font-family="Helvetica,sans-Serif" font-size="10.00">&lt; llvm::Init *, N &gt;</text>
</a>
</g>
</g>
<!-- Node16&#45;&gt;Node5 -->
<g id="edge18" class="edge">
<title>Node16&#45;&gt;Node5</title>
<path fill="none" stroke="#8b1a1a" d="M1640.22,-166.91C1669.42,-161.01 1703.33,-154.05 1734,-147.5 1739.83,-146.25 1745.94,-144.92 1751.99,-143.59"/>
<polygon fill="#8b1a1a" stroke="#8b1a1a" points="1639.22,-163.54 1630.1,-168.95 1640.6,-170.41 1639.22,-163.54"/>
</g>
<!-- Node17 -->
<g id="node17" class="node">
<title>Node17</title>
<g id="a_node17"><a xlink:href="structllvm_1_1AlignedCharArrayUnion.html" target="_top" xlink:title="llvm::AlignedCharArrayUnion\l\&lt; llvm::Init *\&gt;">
<polygon fill="none" stroke="black" points="1006,-197.5 1006,-227.5 1149,-227.5 1149,-197.5 1006,-197.5"/>
<text text-anchor="start" x="1014" y="-215.5" font-family="Helvetica,sans-Serif" font-size="10.00">llvm::AlignedCharArrayUnion</text>
<text text-anchor="middle" x="1077.5" y="-204.5" font-family="Helvetica,sans-Serif" font-size="10.00">&lt; llvm::Init *&gt;</text>
</a>
</g>
</g>
<!-- Node17&#45;&gt;Node16 -->
<g id="edge19" class="edge">
<title>Node17&#45;&gt;Node16</title>
<path fill="none" stroke="#9a32cd" stroke-dasharray="5,2" d="M1159.51,-207.34C1255.76,-201.2 1414.31,-191.1 1501.91,-185.52"/>
<polygon fill="#9a32cd" stroke="#9a32cd" points="1159,-203.86 1149.24,-207.99 1159.44,-210.85 1159,-203.86"/>
<text text-anchor="middle" x="1309.5" y="-204.5" font-family="Helvetica,sans-Serif" font-size="10.00"> InlineElts</text>
</g>
<!-- Node18 -->
<g id="node18" class="node">
<title>Node18</title>
<g id="a_node18"><a xlink:href="classchar.html" target="_top" xlink:title="char">
<polygon fill="none" stroke="black" points="532.5,-181 532.5,-200 567.5,-200 567.5,-181 532.5,-181"/>
<text text-anchor="middle" x="550" y="-188" font-family="Helvetica,sans-Serif" font-size="10.00">char</text>
</a>
</g>
</g>
<!-- Node18&#45;&gt;Node17 -->
<g id="edge20" class="edge">
<title>Node18&#45;&gt;Node17</title>
<path fill="none" stroke="#9a32cd" stroke-dasharray="5,2" d="M577.59,-196.95C603.73,-202.97 644.85,-211.6 681,-215.5 794.16,-227.7 926.58,-222.85 1005.89,-217.91"/>
<polygon fill="#9a32cd" stroke="#9a32cd" points="578.23,-193.51 567.69,-194.63 576.63,-200.32 578.23,-193.51"/>
<text text-anchor="middle" x="752.5" y="-225.5" font-family="Helvetica,sans-Serif" font-size="10.00"> buffer</text>
</g>
<!-- Node19 -->
<g id="node19" class="node">
<title>Node19</title>
<g id="a_node19"><a xlink:href="structllvm_1_1AlignedCharArrayUnion.html" target="_top" xlink:title="A suitably aligned and sized character array member which can hold elements of any type...">
<polygon fill="none" stroke="black" points="681,-175.5 681,-205.5 824,-205.5 824,-175.5 681,-175.5"/>
<text text-anchor="start" x="689" y="-193.5" font-family="Helvetica,sans-Serif" font-size="10.00">llvm::AlignedCharArrayUnion</text>
<text text-anchor="middle" x="752.5" y="-182.5" font-family="Helvetica,sans-Serif" font-size="10.00">&lt; T, Ts &gt;</text>
</a>
</g>
</g>
<!-- Node18&#45;&gt;Node19 -->
<g id="edge22" class="edge">
<title>Node18&#45;&gt;Node19</title>
<path fill="none" stroke="#9a32cd" stroke-dasharray="5,2" d="M578.05,-190.5C604.34,-190.5 645.39,-190.5 680.96,-190.5"/>
<polygon fill="#9a32cd" stroke="#9a32cd" points="577.75,-187 567.75,-190.5 577.75,-194 577.75,-187"/>
<text text-anchor="middle" x="649" y="-193.5" font-family="Helvetica,sans-Serif" font-size="10.00"> buffer</text>
</g>
<!-- Node21 -->
<g id="node21" class="node">
<title>Node21</title>
<g id="a_node21"><a xlink:href="structllvm_1_1AlignedCharArrayUnion.html" target="_top" xlink:title="llvm::AlignedCharArrayUnion\&lt; T \&gt;">
<polygon fill="none" stroke="black" points="994,-137 994,-156 1161,-156 1161,-137 994,-137"/>
<text text-anchor="middle" x="1077.5" y="-144" font-family="Helvetica,sans-Serif" font-size="10.00">llvm::AlignedCharArrayUnion&lt; T &gt;</text>
</a>
</g>
</g>
<!-- Node18&#45;&gt;Node21 -->
<g id="edge25" class="edge">
<title>Node18&#45;&gt;Node21</title>
<path fill="none" stroke="#9a32cd" stroke-dasharray="5,2" d="M577.05,-181.5C603.02,-173 644.24,-160.79 681,-155.5 788.24,-140.07 913.49,-140.24 993.84,-142.64"/>
<polygon fill="#9a32cd" stroke="#9a32cd" points="575.94,-178.18 567.56,-184.66 578.15,-184.82 575.94,-178.18"/>
<text text-anchor="middle" x="752.5" y="-158.5" font-family="Helvetica,sans-Serif" font-size="10.00"> buffer</text>
</g>
<!-- Node19&#45;&gt;Node17 -->
<g id="edge21" class="edge">
<title>Node19&#45;&gt;Node17</title>
<path fill="none" stroke="orange" stroke-dasharray="5,2" d="M834.38,-196.01C887.09,-199.6 955.23,-204.24 1005.78,-207.68"/>
<polygon fill="orange" stroke="orange" points="834.6,-192.52 824.38,-195.33 834.12,-199.5 834.6,-192.52"/>
<text text-anchor="middle" x="909" y="-207.5" font-family="Helvetica,sans-Serif" font-size="10.00"> &lt; llvm::Init *&gt;</text>
</g>
<!-- Node19&#45;&gt;Node21 -->
<g id="edge26" class="edge">
<title>Node19&#45;&gt;Node21</title>
<path fill="none" stroke="orange" stroke-dasharray="5,2" d="M834.43,-179.48C887.43,-172.26 955.99,-162.92 1006.62,-156.02"/>
<polygon fill="orange" stroke="orange" points="833.82,-176.03 824.38,-180.84 834.76,-182.96 833.82,-176.03"/>
<text text-anchor="middle" x="909" y="-179.5" font-family="Helvetica,sans-Serif" font-size="10.00"> &lt; T &gt;</text>
</g>
<!-- Node20 -->
<g id="node20" class="node">
<title>Node20</title>
<g id="a_node20"><a xlink:href="structllvm_1_1SmallVectorStorage.html" target="_top" xlink:title="Storage for the SmallVector elements. ">
<polygon fill="none" stroke="black" points="1245.5,-131.5 1245.5,-161.5 1373.5,-161.5 1373.5,-131.5 1245.5,-131.5"/>
<text text-anchor="start" x="1253.5" y="-149.5" font-family="Helvetica,sans-Serif" font-size="10.00">llvm::SmallVectorStorage</text>
<text text-anchor="middle" x="1309.5" y="-138.5" font-family="Helvetica,sans-Serif" font-size="10.00">&lt; T, N &gt;</text>
</a>
</g>
</g>
<!-- Node20&#45;&gt;Node16 -->
<g id="edge23" class="edge">
<title>Node20&#45;&gt;Node16</title>
<path fill="none" stroke="orange" stroke-dasharray="5,2" d="M1384.02,-156.61C1421.24,-161.73 1465.97,-167.88 1501.65,-172.79"/>
<polygon fill="orange" stroke="orange" points="1384.12,-153.09 1373.74,-155.2 1383.17,-160.03 1384.12,-153.09"/>
<text text-anchor="middle" x="1435.5" y="-170.5" font-family="Helvetica,sans-Serif" font-size="10.00"> &lt; llvm::Init *, N &gt;</text>
</g>
<!-- Node20&#45;&gt;Node22 -->
<g id="edge29" class="edge">
<title>Node20&#45;&gt;Node22</title>
<path fill="none" stroke="#8b1a1a" d="M1383.99,-142.46C1426.28,-140.13 1478.29,-137.27 1515.68,-135.21"/>
<polygon fill="#8b1a1a" stroke="#8b1a1a" points="1383.53,-138.98 1373.74,-143.02 1383.91,-145.97 1383.53,-138.98"/>
</g>
<!-- Node21&#45;&gt;Node20 -->
<g id="edge24" class="edge">
<title>Node21&#45;&gt;Node20</title>
<path fill="none" stroke="#9a32cd" stroke-dasharray="5,2" d="M1171.38,-146.5C1196.2,-146.5 1222.45,-146.5 1245.27,-146.5"/>
<polygon fill="#9a32cd" stroke="#9a32cd" points="1171.21,-143 1161.21,-146.5 1171.21,-150 1171.21,-143"/>
<text text-anchor="middle" x="1201" y="-149.5" font-family="Helvetica,sans-Serif" font-size="10.00"> InlineElts</text>
</g>
<!-- Node22&#45;&gt;Node5 -->
<g id="edge27" class="edge">
<title>Node22&#45;&gt;Node5</title>
<path fill="none" stroke="orange" stroke-dasharray="5,2" d="M1626.16,-132.5C1664.91,-132.5 1714.99,-132.5 1751.61,-132.5"/>
<polygon fill="orange" stroke="orange" points="1626.05,-129 1616.05,-132.5 1626.05,-136 1626.05,-129"/>
<text text-anchor="middle" x="1695.5" y="-135.5" font-family="Helvetica,sans-Serif" font-size="10.00"> &lt; llvm::Init *, 4 &gt;</text>
</g>
<!-- Node23 -->
<g id="node23" class="node">
<title>Node23</title>
<g id="a_node23"><a xlink:href="classllvm_1_1SMRange.html" target="_top" xlink:title="Represents a range in source code. ">
<polygon fill="none" stroke="black" points="1760,-55 1760,-74 1844,-74 1844,-55 1760,-55"/>
<text text-anchor="middle" x="1802" y="-62" font-family="Helvetica,sans-Serif" font-size="10.00">llvm::SMRange</text>
</a>
</g>
</g>
<!-- Node23&#45;&gt;Node1 -->
<g id="edge30" class="edge">
<title>Node23&#45;&gt;Node1</title>
<path fill="none" stroke="#9a32cd" stroke-dasharray="5,2" d="M1844.09,-77.06C1887.5,-90.32 1954.99,-110.95 1994.25,-122.95"/>
<polygon fill="#9a32cd" stroke="#9a32cd" points="1844.99,-73.67 1834.41,-74.1 1842.95,-80.37 1844.99,-73.67"/>
<text text-anchor="middle" x="1902" y="-105.5" font-family="Helvetica,sans-Serif" font-size="10.00"> RefRange</text>
</g>
<!-- Node24 -->
<g id="node24" class="node">
<title>Node24</title>
<g id="a_node24"><a xlink:href="classllvm_1_1SMLoc.html" target="_top" xlink:title="Represents a location in source code. ">
<polygon fill="none" stroke="black" points="1530.5,-30 1530.5,-49 1601.5,-49 1601.5,-30 1530.5,-30"/>
<text text-anchor="middle" x="1566" y="-37" font-family="Helvetica,sans-Serif" font-size="10.00">llvm::SMLoc</text>
</a>
</g>
</g>
<!-- Node24&#45;&gt;Node23 -->
<g id="edge31" class="edge">
<title>Node24&#45;&gt;Node23</title>
<path fill="none" stroke="#9a32cd" stroke-dasharray="5,2" d="M1611.57,-43.31C1645.24,-46.29 1692.57,-50.73 1734,-55.5 1742.39,-56.47 1751.37,-57.6 1759.93,-58.73"/>
<polygon fill="#9a32cd" stroke="#9a32cd" points="1611.85,-39.82 1601.58,-42.43 1611.24,-46.79 1611.85,-39.82"/>
<text text-anchor="middle" x="1695.5" y="-69.5" font-family="Helvetica,sans-Serif" font-size="10.00"> End</text>
<text text-anchor="middle" x="1695.5" y="-58.5" font-family="Helvetica,sans-Serif" font-size="10.00">Start</text>
</g>
</g>
</svg>
