<?xml version="1.0" encoding="UTF-8" standalone="no"?>
<!DOCTYPE svg PUBLIC "-//W3C//DTD SVG 1.1//EN"
 "http://www.w3.org/Graphics/SVG/1.1/DTD/svg11.dtd">
<!-- Generated by graphviz version 2.43.0 (0)
 -->
<!-- Title: llvm::AAReachability Pages: 1 -->
<svg width="1255pt" height="258pt"
 viewBox="0.00 0.00 1255.00 258.00" xmlns="http://www.w3.org/2000/svg" xmlns:xlink="http://www.w3.org/1999/xlink">
<g id="graph0" class="graph" transform="scale(1 1) rotate(0) translate(4 254)">
<title>llvm::AAReachability</title>
<!-- Node11 -->
<g id="node1" class="node">
<title>Node11</title>
<polygon fill="#bfbfbf" stroke="black" points="1139,-38.5 1139,-57.5 1247,-57.5 1247,-38.5 1139,-38.5"/>
<text text-anchor="middle" x="1193" y="-45.5" font-family="Helvetica,sans-Serif" font-size="10.00">llvm::AAReachability</text>
</g>
<!-- Node12 -->
<g id="node2" class="node">
<title>Node12</title>
<g id="a_node2"><a xlink:href="structllvm_1_1StateWrapper.html" target="_top" xlink:title="llvm::StateWrapper\l\&lt; BooleanState, AbstractAttribute \&gt;">
<polygon fill="none" stroke="black" points="916,-134 916,-164 1089,-164 1089,-134 916,-134"/>
<text text-anchor="start" x="924" y="-152" font-family="Helvetica,sans-Serif" font-size="10.00">llvm::StateWrapper</text>
<text text-anchor="middle" x="1002.5" y="-141" font-family="Helvetica,sans-Serif" font-size="10.00">&lt; BooleanState, AbstractAttribute &gt;</text>
</a>
</g>
</g>
<!-- Node12&#45;&gt;Node11 -->
<g id="edge1" class="edge">
<title>Node12&#45;&gt;Node11</title>
<path fill="none" stroke="midnightblue" d="M1044.46,-129.54C1058.66,-122.61 1074.62,-114.64 1089,-107 1120.3,-90.37 1156.04,-69.45 1176.12,-57.52"/>
<polygon fill="midnightblue" stroke="midnightblue" points="1042.89,-126.41 1035.41,-133.92 1045.94,-132.71 1042.89,-126.41"/>
</g>
<!-- Node13 -->
<g id="node3" class="node">
<title>Node13</title>
<g id="a_node3"><a xlink:href="structllvm_1_1BooleanState.html" target="_top" xlink:title="Simple wrapper for a single bit (boolean) state. ">
<polygon fill="none" stroke="black" points="659.5,-193.5 659.5,-212.5 758.5,-212.5 758.5,-193.5 659.5,-193.5"/>
<text text-anchor="middle" x="709" y="-200.5" font-family="Helvetica,sans-Serif" font-size="10.00">llvm::BooleanState</text>
</a>
</g>
</g>
<!-- Node13&#45;&gt;Node12 -->
<g id="edge2" class="edge">
<title>Node13&#45;&gt;Node12</title>
<path fill="none" stroke="midnightblue" d="M768.93,-193.6C806.04,-187.53 854.9,-179.25 898,-171 909.28,-168.84 921.22,-166.43 932.82,-164.01"/>
<polygon fill="midnightblue" stroke="midnightblue" points="768.1,-190.19 758.79,-195.26 769.22,-197.1 768.1,-190.19"/>
</g>
<!-- Node14 -->
<g id="node4" class="node">
<title>Node14</title>
<g id="a_node4"><a xlink:href="structllvm_1_1IntegerStateBase.html" target="_top" xlink:title="llvm::IntegerStateBase\l\&lt; bool, 1, 0 \&gt;">
<polygon fill="none" stroke="black" points="396,-188 396,-218 512,-218 512,-188 396,-188"/>
<text text-anchor="start" x="404" y="-206" font-family="Helvetica,sans-Serif" font-size="10.00">llvm::IntegerStateBase</text>
<text text-anchor="middle" x="454" y="-195" font-family="Helvetica,sans-Serif" font-size="10.00">&lt; bool, 1, 0 &gt;</text>
</a>
</g>
</g>
<!-- Node14&#45;&gt;Node13 -->
<g id="edge3" class="edge">
<title>Node14&#45;&gt;Node13</title>
<path fill="none" stroke="midnightblue" d="M522.22,-203C565.31,-203 620.28,-203 659.21,-203"/>
<polygon fill="midnightblue" stroke="midnightblue" points="522.09,-199.5 512.09,-203 522.09,-206.5 522.09,-199.5"/>
</g>
<!-- Node15 -->
<g id="node5" class="node">
<title>Node15</title>
<g id="a_node5"><a xlink:href="structllvm_1_1AbstractState.html" target="_top" xlink:title="An interface to query the internal state of an abstract attribute. ">
<polygon fill="none" stroke="black" points="0,-230.5 0,-249.5 101,-249.5 101,-230.5 0,-230.5"/>
<text text-anchor="middle" x="50.5" y="-237.5" font-family="Helvetica,sans-Serif" font-size="10.00">llvm::AbstractState</text>
</a>
</g>
</g>
<!-- Node15&#45;&gt;Node14 -->
<g id="edge4" class="edge">
<title>Node15&#45;&gt;Node14</title>
<path fill="none" stroke="midnightblue" d="M111.54,-240.92C161.57,-241.06 234.61,-239.8 298,-233 333.97,-229.14 342.49,-224.88 378,-218 383.74,-216.89 389.72,-215.72 395.69,-214.54"/>
<polygon fill="midnightblue" stroke="midnightblue" points="111.25,-237.42 101.23,-240.87 111.21,-244.42 111.25,-237.42"/>
</g>
<!-- Node17 -->
<g id="node7" class="node">
<title>Node17</title>
<g id="a_node7"><a xlink:href="structllvm_1_1IntegerStateBase.html" target="_top" xlink:title="Simple state with integers encoding. ">
<polygon fill="none" stroke="black" points="182,-182.5 182,-223.5 298,-223.5 298,-182.5 182,-182.5"/>
<text text-anchor="start" x="190" y="-211.5" font-family="Helvetica,sans-Serif" font-size="10.00">llvm::IntegerStateBase</text>
<text text-anchor="start" x="190" y="-200.5" font-family="Helvetica,sans-Serif" font-size="10.00">&lt; base_ty, BestState,</text>
<text text-anchor="middle" x="240" y="-189.5" font-family="Helvetica,sans-Serif" font-size="10.00"> WorstState &gt;</text>
</a>
</g>
</g>
<!-- Node15&#45;&gt;Node17 -->
<g id="edge7" class="edge">
<title>Node15&#45;&gt;Node17</title>
<path fill="none" stroke="midnightblue" d="M109.74,-228.51C132.71,-223.97 159.02,-218.78 181.88,-214.27"/>
<polygon fill="midnightblue" stroke="midnightblue" points="108.92,-225.1 99.79,-230.47 110.27,-231.97 108.92,-225.1"/>
</g>
<!-- Node16 -->
<g id="node6" class="node">
<title>Node16</title>
<g id="a_node6"><a xlink:href="classbool.html" target="_top" xlink:title="bool">
<polygon fill="none" stroke="black" points="222.5,-144.5 222.5,-163.5 257.5,-163.5 257.5,-144.5 222.5,-144.5"/>
<text text-anchor="middle" x="240" y="-151.5" font-family="Helvetica,sans-Serif" font-size="10.00">bool</text>
</a>
</g>
</g>
<!-- Node16&#45;&gt;Node14 -->
<g id="edge5" class="edge">
<title>Node16&#45;&gt;Node14</title>
<path fill="none" stroke="#9a32cd" stroke-dasharray="5,2" d="M267.77,-157.15C295.58,-160.73 340.25,-167.36 378,-177 389.75,-180 402.28,-184.01 413.68,-187.98"/>
<polygon fill="#9a32cd" stroke="#9a32cd" points="267.99,-153.65 257.64,-155.88 267.12,-160.59 267.99,-153.65"/>
<text text-anchor="middle" x="347" y="-191" font-family="Helvetica,sans-Serif" font-size="10.00"> Assumed</text>
<text text-anchor="middle" x="347" y="-180" font-family="Helvetica,sans-Serif" font-size="10.00">Known</text>
</g>
<!-- Node17&#45;&gt;Node14 -->
<g id="edge6" class="edge">
<title>Node17&#45;&gt;Node14</title>
<path fill="none" stroke="orange" stroke-dasharray="5,2" d="M308.26,-203C336.42,-203 368.81,-203 395.81,-203"/>
<polygon fill="orange" stroke="orange" points="308.09,-199.5 298.09,-203 308.09,-206.5 308.09,-199.5"/>
<text text-anchor="middle" x="347" y="-206" font-family="Helvetica,sans-Serif" font-size="10.00"> &lt; bool, 1, 0 &gt;</text>
</g>
<!-- Node18 -->
<g id="node8" class="node">
<title>Node18</title>
<polygon fill="none" stroke="#bfbfbf" points="25,-180.5 25,-199.5 76,-199.5 76,-180.5 25,-180.5"/>
<text text-anchor="middle" x="50.5" y="-187.5" font-family="Helvetica,sans-Serif" font-size="10.00">base_ty</text>
</g>
<!-- Node18&#45;&gt;Node17 -->
<g id="edge8" class="edge">
<title>Node18&#45;&gt;Node17</title>
<path fill="none" stroke="#9a32cd" stroke-dasharray="5,2" d="M86.43,-188.97C108.67,-188.64 138.07,-188.82 164,-191 169.78,-191.49 175.79,-192.16 181.78,-192.94"/>
<polygon fill="#9a32cd" stroke="#9a32cd" points="86.06,-185.47 76.13,-189.16 86.19,-192.47 86.06,-185.47"/>
<text text-anchor="middle" x="141.5" y="-205" font-family="Helvetica,sans-Serif" font-size="10.00"> Assumed</text>
<text text-anchor="middle" x="141.5" y="-194" font-family="Helvetica,sans-Serif" font-size="10.00">Known</text>
</g>
<!-- Node19 -->
<g id="node9" class="node">
<title>Node19</title>
<g id="a_node9"><a xlink:href="structllvm_1_1AbstractAttribute.html" target="_top" xlink:title="Base struct for all &quot;concrete attribute&quot; deductions. ">
<polygon fill="none" stroke="black" points="652,-155.5 652,-174.5 766,-174.5 766,-155.5 652,-155.5"/>
<text text-anchor="middle" x="709" y="-162.5" font-family="Helvetica,sans-Serif" font-size="10.00">llvm::AbstractAttribute</text>
</a>
</g>
</g>
<!-- Node19&#45;&gt;Node12 -->
<g id="edge9" class="edge">
<title>Node19&#45;&gt;Node12</title>
<path fill="none" stroke="midnightblue" d="M776.44,-161.35C817.79,-159.08 871.38,-156.14 915.9,-153.7"/>
<polygon fill="midnightblue" stroke="midnightblue" points="776,-157.87 766.2,-161.92 776.38,-164.86 776,-157.87"/>
</g>
<!-- Node20 -->
<g id="node10" class="node">
<title>Node20</title>
<g id="a_node10"><a xlink:href="structllvm_1_1StateWrapper.html" target="_top" xlink:title="Helper to tie a abstract state implementation to an abstract attribute. ">
<polygon fill="none" stroke="black" points="658.5,-106 658.5,-136 759.5,-136 759.5,-106 658.5,-106"/>
<text text-anchor="start" x="666.5" y="-124" font-family="Helvetica,sans-Serif" font-size="10.00">llvm::StateWrapper</text>
<text text-anchor="middle" x="709" y="-113" font-family="Helvetica,sans-Serif" font-size="10.00">&lt; StateTy, Base &gt;</text>
</a>
</g>
</g>
<!-- Node20&#45;&gt;Node12 -->
<g id="edge10" class="edge">
<title>Node20&#45;&gt;Node12</title>
<path fill="none" stroke="orange" stroke-dasharray="5,2" d="M769.77,-121.28C806.8,-122.02 855.29,-123.99 898,-129 908.82,-130.27 920.19,-132.03 931.29,-133.98"/>
<polygon fill="orange" stroke="orange" points="769.7,-117.78 759.64,-121.11 769.58,-124.78 769.7,-117.78"/>
<text text-anchor="start" x="784" y="-143" font-family="Helvetica,sans-Serif" font-size="10.00"> &lt; BooleanState, Abstract</text>
<text text-anchor="middle" x="841" y="-132" font-family="Helvetica,sans-Serif" font-size="10.00">Attribute &gt;</text>
</g>
<!-- Node21 -->
<g id="node11" class="node">
<title>Node21</title>
<g id="a_node11"><a xlink:href="classllvm_1_1StateTy.html" target="_top" xlink:title="StateTy">
<polygon fill="none" stroke="black" points="428.5,-149.5 428.5,-168.5 479.5,-168.5 479.5,-149.5 428.5,-149.5"/>
<text text-anchor="middle" x="454" y="-156.5" font-family="Helvetica,sans-Serif" font-size="10.00">StateTy</text>
</a>
</g>
</g>
<!-- Node21&#45;&gt;Node20 -->
<g id="edge11" class="edge">
<title>Node21&#45;&gt;Node20</title>
<path fill="none" stroke="midnightblue" d="M489.7,-154.91C525.82,-150.52 583.99,-143.08 634,-135 641.87,-133.73 650.2,-132.27 658.31,-130.78"/>
<polygon fill="midnightblue" stroke="midnightblue" points="489.18,-151.44 479.67,-156.12 490.02,-158.39 489.18,-151.44"/>
</g>
<!-- Node22 -->
<g id="node12" class="node">
<title>Node22</title>
<g id="a_node12"><a xlink:href="classllvm_1_1Base.html" target="_top" xlink:title="Base">
<polygon fill="none" stroke="black" points="434.5,-111.5 434.5,-130.5 473.5,-130.5 473.5,-111.5 434.5,-111.5"/>
<text text-anchor="middle" x="454" y="-118.5" font-family="Helvetica,sans-Serif" font-size="10.00">Base</text>
</a>
</g>
</g>
<!-- Node22&#45;&gt;Node20 -->
<g id="edge12" class="edge">
<title>Node22&#45;&gt;Node20</title>
<path fill="none" stroke="midnightblue" d="M483.8,-121C526.25,-121 606.24,-121 658.3,-121"/>
<polygon fill="midnightblue" stroke="midnightblue" points="483.6,-117.5 473.6,-121 483.6,-124.5 483.6,-117.5"/>
</g>
<!-- Node23 -->
<g id="node13" class="node">
<title>Node23</title>
<g id="a_node13"><a xlink:href="structllvm_1_1IRPosition.html" target="_top" xlink:title="} ">
<polygon fill="none" stroke="black" points="959.5,-38.5 959.5,-57.5 1045.5,-57.5 1045.5,-38.5 959.5,-38.5"/>
<text text-anchor="middle" x="1002.5" y="-45.5" font-family="Helvetica,sans-Serif" font-size="10.00">llvm::IRPosition</text>
</a>
</g>
</g>
<!-- Node23&#45;&gt;Node11 -->
<g id="edge13" class="edge">
<title>Node23&#45;&gt;Node11</title>
<path fill="none" stroke="midnightblue" d="M1056.13,-48C1081.89,-48 1112.85,-48 1138.7,-48"/>
<polygon fill="midnightblue" stroke="midnightblue" points="1055.8,-44.5 1045.8,-48 1055.8,-51.5 1055.8,-44.5"/>
</g>
<!-- Node23&#45;&gt;Node23 -->
<g id="edge14" class="edge">
<title>Node23&#45;&gt;Node23</title>
<path fill="none" stroke="#9a32cd" stroke-dasharray="5,2" d="M982.13,-67.4C983.49,-72.31 990.28,-76 1002.5,-76 1022.05,-76 1027.7,-66.57 1019.45,-57.76"/>
<polygon fill="#9a32cd" stroke="#9a32cd" points="985.51,-68.35 985.55,-57.76 978.91,-66.01 985.51,-68.35"/>
<text text-anchor="middle" x="1002.5" y="-90" font-family="Helvetica,sans-Serif" font-size="10.00"> TombstoneKey</text>
<text text-anchor="middle" x="1002.5" y="-79" font-family="Helvetica,sans-Serif" font-size="10.00">EmptyKey</text>
</g>
<!-- Node24 -->
<g id="node14" class="node">
<title>Node24</title>
<g id="a_node14"><a xlink:href="classllvm_1_1Value.html" target="_top" xlink:title="LLVM Value Representation. ">
<polygon fill="none" stroke="black" points="676.5,-38.5 676.5,-57.5 741.5,-57.5 741.5,-38.5 676.5,-38.5"/>
<text text-anchor="middle" x="709" y="-45.5" font-family="Helvetica,sans-Serif" font-size="10.00">llvm::Value</text>
</a>
</g>
</g>
<!-- Node24&#45;&gt;Node23 -->
<g id="edge15" class="edge">
<title>Node24&#45;&gt;Node23</title>
<path fill="none" stroke="#9a32cd" stroke-dasharray="5,2" d="M751.91,-48C807.23,-48 904.09,-48 959.48,-48"/>
<polygon fill="#9a32cd" stroke="#9a32cd" points="751.75,-44.5 741.75,-48 751.75,-51.5 751.75,-44.5"/>
<text text-anchor="middle" x="841" y="-51" font-family="Helvetica,sans-Serif" font-size="10.00"> AnchorVal</text>
</g>
<!-- Node25 -->
<g id="node15" class="node">
<title>Node25</title>
<g id="a_node15"><a xlink:href="classunsigned.html" target="_top" xlink:title="unsigned">
<polygon fill="none" stroke="black" points="426,-8.5 426,-27.5 482,-27.5 482,-8.5 426,-8.5"/>
<text text-anchor="middle" x="454" y="-15.5" font-family="Helvetica,sans-Serif" font-size="10.00">unsigned</text>
</a>
</g>
</g>
<!-- Node25&#45;&gt;Node24 -->
<g id="edge16" class="edge">
<title>Node25&#45;&gt;Node24</title>
<path fill="none" stroke="#9a32cd" stroke-dasharray="5,2" d="M492.31,-18.24C528.67,-18.95 585.43,-21.34 634,-29 648.02,-31.21 663.25,-34.89 676.22,-38.43"/>
<polygon fill="#9a32cd" stroke="#9a32cd" points="492.22,-14.73 482.16,-18.07 492.1,-21.73 492.22,-14.73"/>
<text text-anchor="middle" x="582" y="-109" font-family="Helvetica,sans-Serif" font-size="10.00"> MaximumAlignment</text>
<text text-anchor="middle" x="582" y="-98" font-family="Helvetica,sans-Serif" font-size="10.00">HasHungOffUses</text>
<text text-anchor="middle" x="582" y="-87" font-family="Helvetica,sans-Serif" font-size="10.00">NumUserOperands</text>
<text text-anchor="middle" x="582" y="-76" font-family="Helvetica,sans-Serif" font-size="10.00">SubclassOptionalData</text>
<text text-anchor="middle" x="582" y="-65" font-family="Helvetica,sans-Serif" font-size="10.00">HasDescriptor</text>
<text text-anchor="middle" x="582" y="-54" font-family="Helvetica,sans-Serif" font-size="10.00">MaxAlignmentExponent</text>
<text text-anchor="middle" x="582" y="-43" font-family="Helvetica,sans-Serif" font-size="10.00">HasName</text>
<text text-anchor="middle" x="582" y="-32" font-family="Helvetica,sans-Serif" font-size="10.00">IsUsedByMD</text>
</g>
<!-- Node26 -->
<g id="node16" class="node">
<title>Node26</title>
<polygon fill="none" stroke="#bfbfbf" points="694.5,-0.5 694.5,-19.5 723.5,-19.5 723.5,-0.5 694.5,-0.5"/>
<text text-anchor="middle" x="709" y="-7.5" font-family="Helvetica,sans-Serif" font-size="10.00">int</text>
</g>
<!-- Node26&#45;&gt;Node23 -->
<g id="edge17" class="edge">
<title>Node26&#45;&gt;Node23</title>
<path fill="none" stroke="#9a32cd" stroke-dasharray="5,2" d="M734.08,-12.77C769.86,-16.93 839.18,-25.14 898,-33 918.16,-35.69 940.49,-38.9 959.23,-41.66"/>
<polygon fill="#9a32cd" stroke="#9a32cd" points="734.03,-9.24 723.69,-11.57 733.23,-16.2 734.03,-9.24"/>
<text text-anchor="middle" x="841" y="-36" font-family="Helvetica,sans-Serif" font-size="10.00"> KindOrArgNo</text>
</g>
<!-- Node27 -->
<g id="node17" class="node">
<title>Node27</title>
<g id="a_node17"><a xlink:href="classchar.html" target="_top" xlink:title="char">
<polygon fill="none" stroke="black" points="985,-0.5 985,-19.5 1020,-19.5 1020,-0.5 985,-0.5"/>
<text text-anchor="middle" x="1002.5" y="-7.5" font-family="Helvetica,sans-Serif" font-size="10.00">char</text>
</a>
</g>
</g>
<!-- Node27&#45;&gt;Node11 -->
<g id="edge18" class="edge">
<title>Node27&#45;&gt;Node11</title>
<path fill="none" stroke="#9a32cd" stroke-dasharray="5,2" d="M1030.3,-15.13C1054.13,-19.72 1089.91,-26.67 1121,-33 1129.52,-34.73 1138.6,-36.62 1147.33,-38.46"/>
<polygon fill="#9a32cd" stroke="#9a32cd" points="1030.73,-11.65 1020.25,-13.2 1029.41,-18.52 1030.73,-11.65"/>
<text text-anchor="middle" x="1114" y="-36" font-family="Helvetica,sans-Serif" font-size="10.00"> ID</text>
</g>
</g>
</svg>
