<?xml version="1.0" encoding="UTF-8" standalone="no"?>
<!DOCTYPE svg PUBLIC "-//W3C//DTD SVG 1.1//EN"
 "http://www.w3.org/Graphics/SVG/1.1/DTD/svg11.dtd">
<!-- Generated by graphviz version 2.43.0 (0)
 -->
<!-- Title: FileChecksumEntryHeader Pages: 1 -->
<svg width="620pt" height="122pt"
 viewBox="0.00 0.00 620.00 122.00" xmlns="http://www.w3.org/2000/svg" xmlns:xlink="http://www.w3.org/1999/xlink">
<g id="graph0" class="graph" transform="scale(1 1) rotate(0) translate(4 118)">
<title>FileChecksumEntryHeader</title>
<!-- Node1 -->
<g id="node1" class="node">
<title>Node1</title>
<polygon fill="#bfbfbf" stroke="black" points="478,-66.5 478,-85.5 612,-85.5 612,-66.5 478,-66.5"/>
<text text-anchor="middle" x="545" y="-73.5" font-family="Helvetica,sans-Serif" font-size="10.00">FileChecksumEntryHeader</text>
</g>
<!-- Node2 -->
<g id="node2" class="node">
<title>Node2</title>
<polygon fill="none" stroke="#bfbfbf" points="272,-93.5 272,-112.5 318,-112.5 318,-93.5 272,-93.5"/>
<text text-anchor="middle" x="295" y="-100.5" font-family="Helvetica,sans-Serif" font-size="10.00">uint8_t</text>
</g>
<!-- Node2&#45;&gt;Node1 -->
<g id="edge1" class="edge">
<title>Node2&#45;&gt;Node1</title>
<path fill="none" stroke="#9a32cd" stroke-dasharray="5,2" d="M328.41,-99.47C366.18,-95.36 429.58,-88.46 477.88,-83.2"/>
<polygon fill="#9a32cd" stroke="#9a32cd" points="327.57,-96.04 318.01,-100.6 328.33,-103 327.57,-96.04"/>
<text text-anchor="middle" x="423.5" y="-106" font-family="Helvetica,sans-Serif" font-size="10.00"> ChecksumSize</text>
<text text-anchor="middle" x="423.5" y="-95" font-family="Helvetica,sans-Serif" font-size="10.00">ChecksumKind</text>
</g>
<!-- Node3 -->
<g id="node3" class="node">
<title>Node3</title>
<g id="a_node3"><a xlink:href="structllvm_1_1support_1_1detail_1_1packed__endian__specific__integral.html" target="_top" xlink:title="llvm::support::detail\l::packed_endian_specific\l_integral\&lt; ValueType, Endian,\l Alignment, ALIGN \&gt;">
<polygon fill="none" stroke="black" points="221,-22 221,-74 369,-74 369,-22 221,-22"/>
<text text-anchor="start" x="229" y="-62" font-family="Helvetica,sans-Serif" font-size="10.00">llvm::support::detail</text>
<text text-anchor="start" x="229" y="-51" font-family="Helvetica,sans-Serif" font-size="10.00">::packed_endian_specific</text>
<text text-anchor="start" x="229" y="-40" font-family="Helvetica,sans-Serif" font-size="10.00">_integral&lt; ValueType, Endian,</text>
<text text-anchor="middle" x="295" y="-29" font-family="Helvetica,sans-Serif" font-size="10.00"> Alignment, ALIGN &gt;</text>
</a>
</g>
</g>
<!-- Node3&#45;&gt;Node1 -->
<g id="edge2" class="edge">
<title>Node3&#45;&gt;Node1</title>
<path fill="none" stroke="#9a32cd" stroke-dasharray="5,2" d="M379.32,-57.41C411.4,-61.03 447.55,-65.11 477.8,-68.53"/>
<polygon fill="#9a32cd" stroke="#9a32cd" points="379.4,-53.89 369.07,-56.25 378.61,-60.85 379.4,-53.89"/>
<text text-anchor="middle" x="423.5" y="-69" font-family="Helvetica,sans-Serif" font-size="10.00"> FileNameOffset</text>
</g>
<!-- Node4 -->
<g id="node4" class="node">
<title>Node4</title>
<polygon fill="none" stroke="#bfbfbf" points="0,-76.5 0,-95.5 139,-95.5 139,-76.5 0,-76.5"/>
<text text-anchor="middle" x="69.5" y="-83.5" font-family="Helvetica,sans-Serif" font-size="10.00">static constexpr endianness</text>
</g>
<!-- Node4&#45;&gt;Node3 -->
<g id="edge3" class="edge">
<title>Node4&#45;&gt;Node3</title>
<path fill="none" stroke="#9a32cd" stroke-dasharray="5,2" d="M136.56,-74.77C163.08,-70.26 193.75,-65.04 220.94,-60.42"/>
<polygon fill="#9a32cd" stroke="#9a32cd" points="135.88,-71.33 126.61,-76.46 137.06,-78.23 135.88,-71.33"/>
<text text-anchor="middle" x="180" y="-73" font-family="Helvetica,sans-Serif" font-size="10.00"> endian</text>
</g>
<!-- Node5 -->
<g id="node5" class="node">
<title>Node5</title>
<g id="a_node5"><a xlink:href="classchar.html" target="_top" xlink:title="char">
<polygon fill="none" stroke="black" points="52,-38.5 52,-57.5 87,-57.5 87,-38.5 52,-38.5"/>
<text text-anchor="middle" x="69.5" y="-45.5" font-family="Helvetica,sans-Serif" font-size="10.00">char</text>
</a>
</g>
</g>
<!-- Node5&#45;&gt;Node3 -->
<g id="edge4" class="edge">
<title>Node5&#45;&gt;Node3</title>
<path fill="none" stroke="#9a32cd" stroke-dasharray="5,2" d="M97.53,-48C127.94,-48 178.59,-48 220.85,-48"/>
<polygon fill="#9a32cd" stroke="#9a32cd" points="97.3,-44.5 87.3,-48 97.3,-51.5 97.3,-44.5"/>
<text text-anchor="middle" x="180" y="-51" font-family="Helvetica,sans-Serif" font-size="10.00"> buffer</text>
</g>
<!-- Node6 -->
<g id="node6" class="node">
<title>Node6</title>
<polygon fill="none" stroke="#bfbfbf" points="48,-0.5 48,-19.5 91,-19.5 91,-0.5 48,-0.5"/>
<text text-anchor="middle" x="69.5" y="-7.5" font-family="Helvetica,sans-Serif" font-size="10.00">size_t</text>
</g>
<!-- Node6&#45;&gt;Node3 -->
<g id="edge5" class="edge">
<title>Node6&#45;&gt;Node3</title>
<path fill="none" stroke="#9a32cd" stroke-dasharray="5,2" d="M101.21,-15.22C131.93,-20.44 180.32,-28.67 220.93,-35.58"/>
<polygon fill="#9a32cd" stroke="#9a32cd" points="101.57,-11.73 91.13,-13.51 100.4,-18.63 101.57,-11.73"/>
<text text-anchor="middle" x="180" y="-36" font-family="Helvetica,sans-Serif" font-size="10.00"> alignment</text>
</g>
</g>
</svg>
