<?xml version="1.0" encoding="UTF-8" standalone="no"?>
<!DOCTYPE svg PUBLIC "-//W3C//DTD SVG 1.1//EN"
 "http://www.w3.org/Graphics/SVG/1.1/DTD/svg11.dtd">
<!-- Generated by graphviz version 2.43.0 (0)
 -->
<!-- Title: llvm::LegalityPredicates::TypePairAndMemDesc Pages: 1 -->
<svg width="135pt" height="117pt"
 viewBox="0.00 0.00 134.50 117.00" xmlns="http://www.w3.org/2000/svg" xmlns:xlink="http://www.w3.org/1999/xlink">
<g id="graph0" class="graph" transform="scale(1 1) rotate(0) translate(4 113)">
<title>llvm::LegalityPredicates::TypePairAndMemDesc</title>
<!-- Node1 -->
<g id="node1" class="node">
<title>Node1</title>
<polygon fill="#bfbfbf" stroke="black" points="0,-0.5 0,-30.5 124,-30.5 124,-0.5 0,-0.5"/>
<text text-anchor="start" x="8" y="-18.5" font-family="Helvetica,sans-Serif" font-size="10.00">llvm::LegalityPredicates</text>
<text text-anchor="middle" x="62" y="-7.5" font-family="Helvetica,sans-Serif" font-size="10.00">::TypePairAndMemDesc</text>
</g>
<!-- Node2 -->
<g id="node2" class="node">
<title>Node2</title>
<polygon fill="none" stroke="#bfbfbf" points="0.5,-89.5 0.5,-108.5 51.5,-108.5 51.5,-89.5 0.5,-89.5"/>
<text text-anchor="middle" x="26" y="-96.5" font-family="Helvetica,sans-Serif" font-size="10.00">uint64_t</text>
</g>
<!-- Node2&#45;&gt;Node1 -->
<g id="edge1" class="edge">
<title>Node2&#45;&gt;Node1</title>
<path fill="none" stroke="#9a32cd" stroke-dasharray="5,2" d="M26.69,-79.01C27.62,-69.62 29.65,-58.33 34,-49 37.09,-42.39 41.91,-36.07 46.69,-30.8"/>
<polygon fill="#9a32cd" stroke="#9a32cd" points="23.17,-79.06 26.02,-89.26 30.16,-79.51 23.17,-79.06"/>
<text text-anchor="middle" x="55" y="-63" font-family="Helvetica,sans-Serif" font-size="10.00"> Align</text>
<text text-anchor="middle" x="55" y="-52" font-family="Helvetica,sans-Serif" font-size="10.00">MemSize</text>
</g>
<!-- Node3 -->
<g id="node3" class="node">
<title>Node3</title>
<g id="a_node3"><a xlink:href="classllvm_1_1LLT.html" target="_top" xlink:title="llvm::LLT">
<polygon fill="none" stroke="black" points="69.5,-89.5 69.5,-108.5 126.5,-108.5 126.5,-89.5 69.5,-89.5"/>
<text text-anchor="middle" x="98" y="-96.5" font-family="Helvetica,sans-Serif" font-size="10.00">llvm::LLT</text>
</a>
</g>
</g>
<!-- Node3&#45;&gt;Node1 -->
<g id="edge2" class="edge">
<title>Node3&#45;&gt;Node1</title>
<path fill="none" stroke="#9a32cd" stroke-dasharray="5,2" d="M90.09,-80.09C83.52,-65.21 74.29,-44.31 68.23,-30.6"/>
<polygon fill="#9a32cd" stroke="#9a32cd" points="86.91,-81.54 94.15,-89.28 93.31,-78.72 86.91,-81.54"/>
<text text-anchor="middle" x="100.5" y="-63" font-family="Helvetica,sans-Serif" font-size="10.00"> Type0</text>
<text text-anchor="middle" x="100.5" y="-52" font-family="Helvetica,sans-Serif" font-size="10.00">Type1</text>
</g>
</g>
</svg>
