<?xml version="1.0" encoding="UTF-8" standalone="no"?>
<!DOCTYPE svg PUBLIC "-//W3C//DTD SVG 1.1//EN"
 "http://www.w3.org/Graphics/SVG/1.1/DTD/svg11.dtd">
<!-- Generated by graphviz version 2.43.0 (0)
 -->
<!-- Title: llvm::MachO::arm_thread_state_t Pages: 1 -->
<svg width="377pt" height="228pt"
 viewBox="0.00 0.00 376.50 228.00" xmlns="http://www.w3.org/2000/svg" xmlns:xlink="http://www.w3.org/1999/xlink">
<g id="graph0" class="graph" transform="scale(1 1) rotate(0) translate(4 224)">
<title>llvm::MachO::arm_thread_state_t</title>
<!-- Node1 -->
<g id="node1" class="node">
<title>Node1</title>
<polygon fill="#bfbfbf" stroke="black" points="101,-0.5 101,-30.5 228,-30.5 228,-0.5 101,-0.5"/>
<text text-anchor="start" x="109" y="-18.5" font-family="Helvetica,sans-Serif" font-size="10.00">llvm::MachO::arm_thread</text>
<text text-anchor="middle" x="164.5" y="-7.5" font-family="Helvetica,sans-Serif" font-size="10.00">_state_t</text>
</g>
<!-- Node2 -->
<g id="node2" class="node">
<title>Node2</title>
<polygon fill="none" stroke="#bfbfbf" points="0,-84 0,-103 83,-103 83,-84 0,-84"/>
<text text-anchor="middle" x="41.5" y="-91" font-family="Helvetica,sans-Serif" font-size="10.00">anonymous:uts</text>
</g>
<!-- Node2&#45;&gt;Node1 -->
<g id="edge1" class="edge">
<title>Node2&#45;&gt;Node1</title>
<path fill="none" stroke="#9a32cd" stroke-dasharray="5,2" d="M64.33,-78.39C86.44,-64.74 119.75,-44.15 141.81,-30.52"/>
<polygon fill="#9a32cd" stroke="#9a32cd" points="62.28,-75.55 55.61,-83.78 65.96,-81.5 62.28,-75.55"/>
<text text-anchor="middle" x="119" y="-52" font-family="Helvetica,sans-Serif" font-size="10.00"> uts</text>
</g>
<!-- Node3 -->
<g id="node3" class="node">
<title>Node3</title>
<g id="a_node3"><a xlink:href="structllvm_1_1MachO_1_1arm__thread__state32__t.html" target="_top" xlink:title="llvm::MachO::arm_thread\l_state32_t">
<polygon fill="none" stroke="black" points="101,-78.5 101,-108.5 228,-108.5 228,-78.5 101,-78.5"/>
<text text-anchor="start" x="109" y="-96.5" font-family="Helvetica,sans-Serif" font-size="10.00">llvm::MachO::arm_thread</text>
<text text-anchor="middle" x="164.5" y="-85.5" font-family="Helvetica,sans-Serif" font-size="10.00">_state32_t</text>
</a>
</g>
</g>
<!-- Node3&#45;&gt;Node1 -->
<g id="edge2" class="edge">
<title>Node3&#45;&gt;Node1</title>
<path fill="none" stroke="#9a32cd" stroke-dasharray="5,2" d="M164.5,-68.09C164.5,-55.76 164.5,-41.22 164.5,-30.73"/>
<polygon fill="#9a32cd" stroke="#9a32cd" points="161,-68.2 164.5,-78.2 168,-68.21 161,-68.2"/>
<text text-anchor="middle" x="175.5" y="-52" font-family="Helvetica,sans-Serif" font-size="10.00"> ts32</text>
</g>
<!-- Node4 -->
<g id="node4" class="node">
<title>Node4</title>
<g id="a_node4"><a xlink:href="classuint32__t.html" target="_top" xlink:title="uint32_t">
<polygon fill="none" stroke="black" points="210,-200.5 210,-219.5 261,-219.5 261,-200.5 210,-200.5"/>
<text text-anchor="middle" x="235.5" y="-207.5" font-family="Helvetica,sans-Serif" font-size="10.00">uint32_t</text>
</a>
</g>
</g>
<!-- Node4&#45;&gt;Node3 -->
<g id="edge3" class="edge">
<title>Node4&#45;&gt;Node3</title>
<path fill="none" stroke="#9a32cd" stroke-dasharray="5,2" d="M224.85,-191.83C210.84,-169.23 186.44,-129.88 173.37,-108.81"/>
<polygon fill="#9a32cd" stroke="#9a32cd" points="221.92,-193.74 230.16,-200.39 227.87,-190.05 221.92,-193.74"/>
<text text-anchor="middle" x="228" y="-174" font-family="Helvetica,sans-Serif" font-size="10.00"> pc</text>
<text text-anchor="middle" x="228" y="-163" font-family="Helvetica,sans-Serif" font-size="10.00">lr</text>
<text text-anchor="middle" x="228" y="-152" font-family="Helvetica,sans-Serif" font-size="10.00">cpsr</text>
<text text-anchor="middle" x="228" y="-141" font-family="Helvetica,sans-Serif" font-size="10.00">r</text>
<text text-anchor="middle" x="228" y="-130" font-family="Helvetica,sans-Serif" font-size="10.00">sp</text>
</g>
<!-- Node5 -->
<g id="node5" class="node">
<title>Node5</title>
<g id="a_node5"><a xlink:href="structllvm_1_1MachO_1_1arm__state__hdr__t.html" target="_top" xlink:title="llvm::MachO::arm_state\l_hdr_t">
<polygon fill="none" stroke="black" points="246.5,-78.5 246.5,-108.5 368.5,-108.5 368.5,-78.5 246.5,-78.5"/>
<text text-anchor="start" x="254.5" y="-96.5" font-family="Helvetica,sans-Serif" font-size="10.00">llvm::MachO::arm_state</text>
<text text-anchor="middle" x="307.5" y="-85.5" font-family="Helvetica,sans-Serif" font-size="10.00">_hdr_t</text>
</a>
</g>
</g>
<!-- Node4&#45;&gt;Node5 -->
<g id="edge5" class="edge">
<title>Node4&#45;&gt;Node5</title>
<path fill="none" stroke="#9a32cd" stroke-dasharray="5,2" d="M246.3,-191.83C260.51,-169.23 285.25,-129.88 298.5,-108.81"/>
<polygon fill="#9a32cd" stroke="#9a32cd" points="243.27,-190.07 240.91,-200.39 249.2,-193.79 243.27,-190.07"/>
<text text-anchor="middle" x="299.5" y="-157.5" font-family="Helvetica,sans-Serif" font-size="10.00"> count</text>
<text text-anchor="middle" x="299.5" y="-146.5" font-family="Helvetica,sans-Serif" font-size="10.00">flavor</text>
</g>
<!-- Node5&#45;&gt;Node1 -->
<g id="edge4" class="edge">
<title>Node5&#45;&gt;Node1</title>
<path fill="none" stroke="#9a32cd" stroke-dasharray="5,2" d="M272.08,-73.67C246.94,-60.32 213.75,-42.68 190.92,-30.54"/>
<polygon fill="#9a32cd" stroke="#9a32cd" points="270.46,-76.78 280.94,-78.38 273.75,-70.6 270.46,-76.78"/>
<text text-anchor="middle" x="254" y="-52" font-family="Helvetica,sans-Serif" font-size="10.00"> tsh</text>
</g>
</g>
</svg>
