<?xml version="1.0" encoding="UTF-8" standalone="no"?>
<!DOCTYPE svg PUBLIC "-//W3C//DTD SVG 1.1//EN"
 "http://www.w3.org/Graphics/SVG/1.1/DTD/svg11.dtd">
<!-- Generated by graphviz version 2.43.0 (0)
 -->
<!-- Title: llvm::GraphTraits&lt; VPRegionBlock * &gt; Pages: 1 -->
<svg width="146pt" height="185pt"
 viewBox="0.00 0.00 146.00 185.00" xmlns="http://www.w3.org/2000/svg" xmlns:xlink="http://www.w3.org/1999/xlink">
<g id="graph0" class="graph" transform="scale(1 1) rotate(0) translate(4 181)">
<title>llvm::GraphTraits&lt; VPRegionBlock * &gt;</title>
<!-- Node0 -->
<g id="node1" class="node">
<title>Node0</title>
<polygon fill="#bfbfbf" stroke="black" points="0,-0.5 0,-30.5 104,-30.5 104,-0.5 0,-0.5"/>
<text text-anchor="start" x="8" y="-18.5" font-family="Helvetica,sans-Serif" font-size="10.00">llvm::GraphTraits&lt;</text>
<text text-anchor="middle" x="52" y="-7.5" font-family="Helvetica,sans-Serif" font-size="10.00"> VPRegionBlock * &gt;</text>
</g>
<!-- Node1 -->
<g id="node2" class="node">
<title>Node1</title>
<g id="a_node2"><a xlink:href="structllvm_1_1GraphTraits.html" target="_top" xlink:title="llvm::GraphTraits\&lt;\l VPBlockBase *\&gt;">
<polygon fill="none" stroke="black" points="3,-68.5 3,-98.5 101,-98.5 101,-68.5 3,-68.5"/>
<text text-anchor="start" x="11" y="-86.5" font-family="Helvetica,sans-Serif" font-size="10.00">llvm::GraphTraits&lt;</text>
<text text-anchor="middle" x="52" y="-75.5" font-family="Helvetica,sans-Serif" font-size="10.00"> VPBlockBase *&gt;</text>
</a>
</g>
</g>
<!-- Node1&#45;&gt;Node0 -->
<g id="edge1" class="edge">
<title>Node1&#45;&gt;Node0</title>
<path fill="none" stroke="midnightblue" d="M52,-58.03C52,-48.86 52,-38.74 52,-30.79"/>
<polygon fill="midnightblue" stroke="midnightblue" points="48.5,-58.18 52,-68.18 55.5,-58.18 48.5,-58.18"/>
</g>
<!-- Node2 -->
<g id="node3" class="node">
<title>Node2</title>
<g id="a_node3"><a xlink:href="structllvm_1_1GraphTraits.html" target="_top" xlink:title="llvm::GraphTraits\&lt;\l GraphType \&gt;">
<polygon fill="none" stroke="black" points="3,-146.5 3,-176.5 101,-176.5 101,-146.5 3,-146.5"/>
<text text-anchor="start" x="11" y="-164.5" font-family="Helvetica,sans-Serif" font-size="10.00">llvm::GraphTraits&lt;</text>
<text text-anchor="middle" x="52" y="-153.5" font-family="Helvetica,sans-Serif" font-size="10.00"> GraphType &gt;</text>
</a>
</g>
</g>
<!-- Node2&#45;&gt;Node1 -->
<g id="edge2" class="edge">
<title>Node2&#45;&gt;Node1</title>
<path fill="none" stroke="orange" stroke-dasharray="5,2" d="M52,-136.09C52,-123.76 52,-109.22 52,-98.73"/>
<polygon fill="orange" stroke="orange" points="48.5,-136.2 52,-146.2 55.5,-136.21 48.5,-136.2"/>
<text text-anchor="middle" x="95" y="-120" font-family="Helvetica,sans-Serif" font-size="10.00"> &lt; VPBlockBase *&gt;</text>
</g>
</g>
</svg>
