<?xml version="1.0" encoding="UTF-8" standalone="no"?>
<!DOCTYPE svg PUBLIC "-//W3C//DTD SVG 1.1//EN"
 "http://www.w3.org/Graphics/SVG/1.1/DTD/svg11.dtd">
<!-- Generated by graphviz version 2.43.0 (0)
 -->
<!-- Title: llvm::ms_demangle::PointerTypeNode Pages: 1 -->
<svg width="337pt" height="262pt"
 viewBox="0.00 0.00 336.50 262.00" xmlns="http://www.w3.org/2000/svg" xmlns:xlink="http://www.w3.org/1999/xlink">
<g id="graph0" class="graph" transform="scale(1 1) rotate(0) translate(4 258)">
<title>llvm::ms_demangle::PointerTypeNode</title>
<!-- Node3 -->
<g id="node1" class="node">
<title>Node3</title>
<polygon fill="#bfbfbf" stroke="black" points="77,-0.5 77,-30.5 184,-30.5 184,-0.5 77,-0.5"/>
<text text-anchor="start" x="85" y="-18.5" font-family="Helvetica,sans-Serif" font-size="10.00">llvm::ms_demangle::</text>
<text text-anchor="middle" x="130.5" y="-7.5" font-family="Helvetica,sans-Serif" font-size="10.00">PointerTypeNode</text>
</g>
<!-- Node4 -->
<g id="node2" class="node">
<title>Node4</title>
<g id="a_node2"><a xlink:href="structllvm_1_1ms__demangle_1_1TypeNode.html" target="_top" xlink:title="llvm::ms_demangle::\lTypeNode">
<polygon fill="none" stroke="black" points="0,-78.5 0,-108.5 107,-108.5 107,-78.5 0,-78.5"/>
<text text-anchor="start" x="8" y="-96.5" font-family="Helvetica,sans-Serif" font-size="10.00">llvm::ms_demangle::</text>
<text text-anchor="middle" x="53.5" y="-85.5" font-family="Helvetica,sans-Serif" font-size="10.00">TypeNode</text>
</a>
</g>
</g>
<!-- Node4&#45;&gt;Node3 -->
<g id="edge1" class="edge">
<title>Node4&#45;&gt;Node3</title>
<path fill="none" stroke="midnightblue" d="M62.9,-69.18C66.46,-62.17 71.01,-54.8 76.5,-49 83.34,-41.77 92.14,-35.57 100.65,-30.59"/>
<polygon fill="midnightblue" stroke="midnightblue" points="59.68,-67.8 58.66,-78.35 66.04,-70.74 59.68,-67.8"/>
</g>
<!-- Node4&#45;&gt;Node3 -->
<g id="edge11" class="edge">
<title>Node4&#45;&gt;Node3</title>
<path fill="none" stroke="#9a32cd" stroke-dasharray="5,2" d="M75.25,-71.03C88.32,-58.13 104.59,-42.07 116.08,-30.73"/>
<polygon fill="#9a32cd" stroke="#9a32cd" points="72.64,-68.69 67.98,-78.2 77.56,-73.67 72.64,-68.69"/>
<text text-anchor="middle" x="116" y="-52" font-family="Helvetica,sans-Serif" font-size="10.00"> Pointee</text>
</g>
<!-- Node5 -->
<g id="node3" class="node">
<title>Node5</title>
<g id="a_node3"><a xlink:href="structllvm_1_1ms__demangle_1_1Node.html" target="_top" xlink:title="llvm::ms_demangle::Node">
<polygon fill="none" stroke="black" points="86,-234.5 86,-253.5 217,-253.5 217,-234.5 86,-234.5"/>
<text text-anchor="middle" x="151.5" y="-241.5" font-family="Helvetica,sans-Serif" font-size="10.00">llvm::ms_demangle::Node</text>
</a>
</g>
</g>
<!-- Node5&#45;&gt;Node4 -->
<g id="edge2" class="edge">
<title>Node5&#45;&gt;Node4</title>
<path fill="none" stroke="midnightblue" d="M110.41,-230.92C89.11,-222.34 65.01,-208.45 52.5,-187 38.26,-162.58 44.07,-128.02 49.1,-108.8"/>
<polygon fill="midnightblue" stroke="midnightblue" points="109.35,-234.26 119.94,-234.5 111.81,-227.71 109.35,-234.26"/>
</g>
<!-- Node7 -->
<g id="node5" class="node">
<title>Node7</title>
<g id="a_node5"><a xlink:href="structllvm_1_1ms__demangle_1_1QualifiedNameNode.html" target="_top" xlink:title="llvm::ms_demangle::\lQualifiedNameNode">
<polygon fill="none" stroke="black" points="125,-78.5 125,-108.5 232,-108.5 232,-78.5 125,-78.5"/>
<text text-anchor="start" x="133" y="-96.5" font-family="Helvetica,sans-Serif" font-size="10.00">llvm::ms_demangle::</text>
<text text-anchor="middle" x="178.5" y="-85.5" font-family="Helvetica,sans-Serif" font-size="10.00">QualifiedNameNode</text>
</a>
</g>
</g>
<!-- Node5&#45;&gt;Node7 -->
<g id="edge5" class="edge">
<title>Node5&#45;&gt;Node7</title>
<path fill="none" stroke="midnightblue" d="M154.93,-224.13C160.4,-194.07 170.96,-135.96 175.87,-108.95"/>
<polygon fill="midnightblue" stroke="midnightblue" points="151.45,-223.69 153.11,-234.16 158.34,-224.94 151.45,-223.69"/>
</g>
<!-- Node8 -->
<g id="node6" class="node">
<title>Node8</title>
<g id="a_node6"><a xlink:href="structllvm_1_1ms__demangle_1_1NodeArrayNode.html" target="_top" xlink:title="llvm::ms_demangle::\lNodeArrayNode">
<polygon fill="none" stroke="black" points="176,-156.5 176,-186.5 283,-186.5 283,-156.5 176,-156.5"/>
<text text-anchor="start" x="184" y="-174.5" font-family="Helvetica,sans-Serif" font-size="10.00">llvm::ms_demangle::</text>
<text text-anchor="middle" x="229.5" y="-163.5" font-family="Helvetica,sans-Serif" font-size="10.00">NodeArrayNode</text>
</a>
</g>
</g>
<!-- Node5&#45;&gt;Node8 -->
<g id="edge7" class="edge">
<title>Node5&#45;&gt;Node8</title>
<path fill="none" stroke="midnightblue" d="M165.18,-226.89C171.41,-219.89 179.05,-211.76 186.5,-205 193.57,-198.59 201.83,-192.12 209.21,-186.67"/>
<polygon fill="midnightblue" stroke="midnightblue" points="162.53,-224.6 158.61,-234.44 167.81,-229.2 162.53,-224.6"/>
</g>
<!-- Node5&#45;&gt;Node8 -->
<g id="edge8" class="edge">
<title>Node5&#45;&gt;Node8</title>
<path fill="none" stroke="#9a32cd" stroke-dasharray="5,2" d="M169.72,-227.93C174.26,-224.09 179.1,-219.93 183.5,-216 194.16,-206.48 205.85,-195.41 214.78,-186.82"/>
<polygon fill="#9a32cd" stroke="#9a32cd" points="167.43,-225.29 162,-234.39 171.92,-230.66 167.43,-225.29"/>
<text text-anchor="middle" x="210.5" y="-208" font-family="Helvetica,sans-Serif" font-size="10.00"> Nodes</text>
</g>
<!-- Node6 -->
<g id="node4" class="node">
<title>Node6</title>
<polygon fill="none" stroke="#bfbfbf" points="61.5,-162 61.5,-181 119.5,-181 119.5,-162 61.5,-162"/>
<text text-anchor="middle" x="90.5" y="-169" font-family="Helvetica,sans-Serif" font-size="10.00">Qualifiers</text>
</g>
<!-- Node6&#45;&gt;Node4 -->
<g id="edge3" class="edge">
<title>Node6&#45;&gt;Node4</title>
<path fill="none" stroke="#9a32cd" stroke-dasharray="5,2" d="M81.78,-152.58C75.22,-139.11 66.37,-120.93 60.33,-108.52"/>
<polygon fill="#9a32cd" stroke="#9a32cd" points="78.73,-154.32 86.26,-161.78 85.03,-151.26 78.73,-154.32"/>
<text text-anchor="middle" x="89" y="-130" font-family="Helvetica,sans-Serif" font-size="10.00"> Quals</text>
</g>
<!-- Node7&#45;&gt;Node3 -->
<g id="edge4" class="edge">
<title>Node7&#45;&gt;Node3</title>
<path fill="none" stroke="#9a32cd" stroke-dasharray="5,2" d="M164.02,-69.57C156.04,-56.94 146.38,-41.65 139.49,-30.73"/>
<polygon fill="#9a32cd" stroke="#9a32cd" points="161.17,-71.62 169.47,-78.2 167.09,-67.88 161.17,-71.62"/>
<text text-anchor="middle" x="185.5" y="-52" font-family="Helvetica,sans-Serif" font-size="10.00"> ClassParent</text>
</g>
<!-- Node8&#45;&gt;Node7 -->
<g id="edge6" class="edge">
<title>Node8&#45;&gt;Node7</title>
<path fill="none" stroke="#9a32cd" stroke-dasharray="5,2" d="M214.12,-147.57C205.64,-134.94 195.38,-119.65 188.05,-108.73"/>
<polygon fill="#9a32cd" stroke="#9a32cd" points="211.43,-149.85 219.91,-156.2 217.24,-145.95 211.43,-149.85"/>
<text text-anchor="middle" x="236" y="-130" font-family="Helvetica,sans-Serif" font-size="10.00"> Components</text>
</g>
<!-- Node9 -->
<g id="node7" class="node">
<title>Node9</title>
<g id="a_node7"><a xlink:href="classsize__t.html" target="_top" xlink:title="size_t">
<polygon fill="none" stroke="black" points="239,-234.5 239,-253.5 282,-253.5 282,-234.5 239,-234.5"/>
<text text-anchor="middle" x="260.5" y="-241.5" font-family="Helvetica,sans-Serif" font-size="10.00">size_t</text>
</a>
</g>
</g>
<!-- Node9&#45;&gt;Node8 -->
<g id="edge9" class="edge">
<title>Node9&#45;&gt;Node8</title>
<path fill="none" stroke="#9a32cd" stroke-dasharray="5,2" d="M252.57,-224.96C247.32,-213.03 240.54,-197.61 235.69,-186.58"/>
<polygon fill="#9a32cd" stroke="#9a32cd" points="249.47,-226.61 256.7,-234.36 255.88,-223.79 249.47,-226.61"/>
<text text-anchor="middle" x="262.5" y="-208" font-family="Helvetica,sans-Serif" font-size="10.00"> Count</text>
</g>
<!-- Node10 -->
<g id="node8" class="node">
<title>Node10</title>
<polygon fill="none" stroke="#bfbfbf" points="250.5,-84 250.5,-103 328.5,-103 328.5,-84 250.5,-84"/>
<text text-anchor="middle" x="289.5" y="-91" font-family="Helvetica,sans-Serif" font-size="10.00">PointerAffinity</text>
</g>
<!-- Node10&#45;&gt;Node3 -->
<g id="edge10" class="edge">
<title>Node10&#45;&gt;Node3</title>
<path fill="none" stroke="#9a32cd" stroke-dasharray="5,2" d="M268.39,-78.05C254.58,-68.99 235.94,-57.46 218.5,-49 204.29,-42.1 188.21,-35.77 173.72,-30.56"/>
<polygon fill="#9a32cd" stroke="#9a32cd" points="266.84,-81.23 277.1,-83.86 270.72,-75.4 266.84,-81.23"/>
<text text-anchor="middle" x="255.5" y="-52" font-family="Helvetica,sans-Serif" font-size="10.00"> Affinity</text>
</g>
</g>
</svg>
