<?xml version="1.0" encoding="UTF-8" standalone="no"?>
<!DOCTYPE svg PUBLIC "-//W3C//DTD SVG 1.1//EN"
 "http://www.w3.org/Graphics/SVG/1.1/DTD/svg11.dtd">
<!-- Generated by graphviz version 2.43.0 (0)
 -->
<!-- Title: llvm::GraphTraits&lt; const DomTreeNode * &gt; Pages: 1 -->
<svg width="193pt" height="218pt"
 viewBox="0.00 0.00 193.00 218.00" xmlns="http://www.w3.org/2000/svg" xmlns:xlink="http://www.w3.org/1999/xlink">
<g id="graph0" class="graph" transform="scale(1 1) rotate(0) translate(4 214)">
<title>llvm::GraphTraits&lt; const DomTreeNode * &gt;</title>
<!-- Node3 -->
<g id="node1" class="node">
<title>Node3</title>
<polygon fill="#bfbfbf" stroke="black" points="16,-0.5 16,-30.5 142,-30.5 142,-0.5 16,-0.5"/>
<text text-anchor="start" x="24" y="-18.5" font-family="Helvetica,sans-Serif" font-size="10.00">llvm::GraphTraits&lt;</text>
<text text-anchor="middle" x="79" y="-7.5" font-family="Helvetica,sans-Serif" font-size="10.00"> const DomTreeNode * &gt;</text>
</g>
<!-- Node4 -->
<g id="node2" class="node">
<title>Node4</title>
<g id="a_node2"><a xlink:href="structllvm_1_1DomTreeGraphTraitsBase.html" target="_top" xlink:title="llvm::DomTreeGraphTraits\lBase\&lt; const DomTreeNode,\l DomTreeNode::const_iterator \&gt;">
<polygon fill="none" stroke="black" points="0,-68.5 0,-109.5 158,-109.5 158,-68.5 0,-68.5"/>
<text text-anchor="start" x="8" y="-97.5" font-family="Helvetica,sans-Serif" font-size="10.00">llvm::DomTreeGraphTraits</text>
<text text-anchor="start" x="8" y="-86.5" font-family="Helvetica,sans-Serif" font-size="10.00">Base&lt; const DomTreeNode,</text>
<text text-anchor="middle" x="79" y="-75.5" font-family="Helvetica,sans-Serif" font-size="10.00"> DomTreeNode::const_iterator &gt;</text>
</a>
</g>
</g>
<!-- Node4&#45;&gt;Node3 -->
<g id="edge1" class="edge">
<title>Node4&#45;&gt;Node3</title>
<path fill="none" stroke="midnightblue" d="M79,-58.16C79,-48.69 79,-38.65 79,-30.8"/>
<polygon fill="midnightblue" stroke="midnightblue" points="75.5,-58.46 79,-68.46 82.5,-58.46 75.5,-58.46"/>
</g>
<!-- Node5 -->
<g id="node3" class="node">
<title>Node5</title>
<g id="a_node3"><a xlink:href="structllvm_1_1DomTreeGraphTraitsBase.html" target="_top" xlink:title="llvm::DomTreeGraphTraits\lBase\&lt; Node, ChildIterator \&gt;">
<polygon fill="none" stroke="black" points="9,-179.5 9,-209.5 149,-209.5 149,-179.5 9,-179.5"/>
<text text-anchor="start" x="17" y="-197.5" font-family="Helvetica,sans-Serif" font-size="10.00">llvm::DomTreeGraphTraits</text>
<text text-anchor="middle" x="79" y="-186.5" font-family="Helvetica,sans-Serif" font-size="10.00">Base&lt; Node, ChildIterator &gt;</text>
</a>
</g>
</g>
<!-- Node5&#45;&gt;Node4 -->
<g id="edge2" class="edge">
<title>Node5&#45;&gt;Node4</title>
<path fill="none" stroke="orange" stroke-dasharray="5,2" d="M79,-168.99C79,-150.84 79,-126.42 79,-109.57"/>
<polygon fill="orange" stroke="orange" points="75.5,-169.11 79,-179.11 82.5,-169.11 75.5,-169.11"/>
<text text-anchor="start" x="79" y="-153" font-family="Helvetica,sans-Serif" font-size="10.00"> &lt; const DomTreeNode,</text>
<text text-anchor="start" x="79" y="-142" font-family="Helvetica,sans-Serif" font-size="10.00"> DomTreeNode::const</text>
<text text-anchor="middle" x="132" y="-131" font-family="Helvetica,sans-Serif" font-size="10.00">_iterator &gt;</text>
</g>
</g>
</svg>
