<?xml version="1.0" encoding="UTF-8" standalone="no"?>
<!DOCTYPE svg PUBLIC "-//W3C//DTD SVG 1.1//EN"
 "http://www.w3.org/Graphics/SVG/1.1/DTD/svg11.dtd">
<!-- Generated by graphviz version 2.43.0 (0)
 -->
<!-- Title: llvm::MinidumpYAML::Stream Pages: 1 -->
<svg width="192pt" height="106pt"
 viewBox="0.00 0.00 191.50 106.00" xmlns="http://www.w3.org/2000/svg" xmlns:xlink="http://www.w3.org/1999/xlink">
<g id="graph0" class="graph" transform="scale(1 1) rotate(0) translate(4 102)">
<title>llvm::MinidumpYAML::Stream</title>
<!-- Node7 -->
<g id="node1" class="node">
<title>Node7</title>
<polygon fill="#bfbfbf" stroke="black" points="30,-0.5 30,-30.5 140,-30.5 140,-0.5 30,-0.5"/>
<text text-anchor="start" x="38" y="-18.5" font-family="Helvetica,sans-Serif" font-size="10.00">llvm::MinidumpYAML</text>
<text text-anchor="middle" x="85" y="-7.5" font-family="Helvetica,sans-Serif" font-size="10.00">::Stream</text>
</g>
<!-- Node8 -->
<g id="node2" class="node">
<title>Node8</title>
<polygon fill="none" stroke="#bfbfbf" points="0,-78.5 0,-97.5 70,-97.5 70,-78.5 0,-78.5"/>
<text text-anchor="middle" x="35" y="-85.5" font-family="Helvetica,sans-Serif" font-size="10.00">StreamType</text>
</g>
<!-- Node8&#45;&gt;Node7 -->
<g id="edge1" class="edge">
<title>Node8&#45;&gt;Node7</title>
<path fill="none" stroke="#9a32cd" stroke-dasharray="5,2" d="M47.03,-70.04C55.59,-57.97 66.96,-41.94 75.02,-30.58"/>
<polygon fill="#9a32cd" stroke="#9a32cd" points="44.06,-68.17 41.13,-78.36 49.77,-72.22 44.06,-68.17"/>
<text text-anchor="middle" x="74.5" y="-52" font-family="Helvetica,sans-Serif" font-size="10.00"> Type</text>
</g>
<!-- Node9 -->
<g id="node3" class="node">
<title>Node9</title>
<polygon fill="none" stroke="#bfbfbf" points="88.5,-78.5 88.5,-97.5 183.5,-97.5 183.5,-78.5 88.5,-78.5"/>
<text text-anchor="middle" x="136" y="-85.5" font-family="Helvetica,sans-Serif" font-size="10.00">const StreamKind</text>
</g>
<!-- Node9&#45;&gt;Node7 -->
<g id="edge2" class="edge">
<title>Node9&#45;&gt;Node7</title>
<path fill="none" stroke="#9a32cd" stroke-dasharray="5,2" d="M123.73,-70.04C115,-57.97 103.4,-41.94 95.18,-30.58"/>
<polygon fill="#9a32cd" stroke="#9a32cd" points="121.05,-72.3 129.75,-78.36 126.72,-68.2 121.05,-72.3"/>
<text text-anchor="middle" x="126.5" y="-52" font-family="Helvetica,sans-Serif" font-size="10.00"> Kind</text>
</g>
</g>
</svg>
