<?xml version="1.0" encoding="UTF-8" standalone="no"?>
<!DOCTYPE svg PUBLIC "-//W3C//DTD SVG 1.1//EN"
 "http://www.w3.org/Graphics/SVG/1.1/DTD/svg11.dtd">
<!-- Generated by graphviz version 2.43.0 (0)
 -->
<!-- Title: llvm::GenericSchedulerBase::CandPolicy Pages: 1 -->
<svg width="183pt" height="117pt"
 viewBox="0.00 0.00 183.00 117.00" xmlns="http://www.w3.org/2000/svg" xmlns:xlink="http://www.w3.org/1999/xlink">
<g id="graph0" class="graph" transform="scale(1 1) rotate(0) translate(4 113)">
<title>llvm::GenericSchedulerBase::CandPolicy</title>
<!-- Node1 -->
<g id="node1" class="node">
<title>Node1</title>
<polygon fill="#bfbfbf" stroke="black" points="0,-0.5 0,-30.5 140,-30.5 140,-0.5 0,-0.5"/>
<text text-anchor="start" x="8" y="-18.5" font-family="Helvetica,sans-Serif" font-size="10.00">llvm::GenericSchedulerBase</text>
<text text-anchor="middle" x="70" y="-7.5" font-family="Helvetica,sans-Serif" font-size="10.00">::CandPolicy</text>
</g>
<!-- Node2 -->
<g id="node2" class="node">
<title>Node2</title>
<g id="a_node2"><a xlink:href="classbool.html" target="_top" xlink:title="bool">
<polygon fill="none" stroke="black" points="5.5,-89.5 5.5,-108.5 40.5,-108.5 40.5,-89.5 5.5,-89.5"/>
<text text-anchor="middle" x="23" y="-96.5" font-family="Helvetica,sans-Serif" font-size="10.00">bool</text>
</a>
</g>
</g>
<!-- Node2&#45;&gt;Node1 -->
<g id="edge1" class="edge">
<title>Node2&#45;&gt;Node1</title>
<path fill="none" stroke="#9a32cd" stroke-dasharray="5,2" d="M19.54,-79.36C18.68,-69.76 19.12,-58.18 24,-49 27.94,-41.57 34.43,-35.47 41.3,-30.63"/>
<polygon fill="#9a32cd" stroke="#9a32cd" points="16.1,-80.04 20.97,-89.45 23.03,-79.06 16.1,-80.04"/>
<text text-anchor="middle" x="60" y="-57.5" font-family="Helvetica,sans-Serif" font-size="10.00"> ReduceLatency</text>
</g>
<!-- Node3 -->
<g id="node3" class="node">
<title>Node3</title>
<g id="a_node3"><a xlink:href="classunsigned.html" target="_top" xlink:title="unsigned">
<polygon fill="none" stroke="black" points="90,-89.5 90,-108.5 146,-108.5 146,-89.5 90,-89.5"/>
<text text-anchor="middle" x="118" y="-96.5" font-family="Helvetica,sans-Serif" font-size="10.00">unsigned</text>
</a>
</g>
</g>
<!-- Node3&#45;&gt;Node1 -->
<g id="edge2" class="edge">
<title>Node3&#45;&gt;Node1</title>
<path fill="none" stroke="#9a32cd" stroke-dasharray="5,2" d="M111.11,-79.77C107.21,-70.3 101.93,-58.71 96,-49 92.16,-42.71 87.25,-36.27 82.74,-30.8"/>
<polygon fill="#9a32cd" stroke="#9a32cd" points="107.96,-81.33 114.88,-89.35 114.47,-78.76 107.96,-81.33"/>
<text text-anchor="middle" x="140.5" y="-63" font-family="Helvetica,sans-Serif" font-size="10.00"> ReduceResIdx</text>
<text text-anchor="middle" x="140.5" y="-52" font-family="Helvetica,sans-Serif" font-size="10.00">DemandResIdx</text>
</g>
</g>
</svg>
