<?xml version="1.0" encoding="UTF-8" standalone="no"?>
<!DOCTYPE svg PUBLIC "-//W3C//DTD SVG 1.1//EN"
 "http://www.w3.org/Graphics/SVG/1.1/DTD/svg11.dtd">
<!-- Generated by graphviz version 2.43.0 (0)
 -->
<!-- Title: ___itt_api_info Pages: 1 -->
<svg width="296pt" height="106pt"
 viewBox="0.00 0.00 295.50 106.00" xmlns="http://www.w3.org/2000/svg" xmlns:xlink="http://www.w3.org/1999/xlink">
<g id="graph0" class="graph" transform="scale(1 1) rotate(0) translate(4 102)">
<title>___itt_api_info</title>
<!-- Node1 -->
<g id="node1" class="node">
<title>Node1</title>
<polygon fill="#bfbfbf" stroke="black" points="71.5,-0.5 71.5,-19.5 151.5,-19.5 151.5,-0.5 71.5,-0.5"/>
<text text-anchor="middle" x="111.5" y="-7.5" font-family="Helvetica,sans-Serif" font-size="10.00">___itt_api_info</text>
</g>
<!-- Node2 -->
<g id="node2" class="node">
<title>Node2</title>
<polygon fill="none" stroke="#bfbfbf" points="0,-78.5 0,-97.5 45,-97.5 45,-78.5 0,-78.5"/>
<text text-anchor="middle" x="22.5" y="-85.5" font-family="Helvetica,sans-Serif" font-size="10.00">void **</text>
</g>
<!-- Node2&#45;&gt;Node1 -->
<g id="edge1" class="edge">
<title>Node2&#45;&gt;Node1</title>
<path fill="none" stroke="#9a32cd" stroke-dasharray="5,2" d="M25.48,-68.28C27.96,-58.18 32.45,-46.14 40.5,-38 48.94,-29.47 60.35,-23.59 71.55,-19.56"/>
<polygon fill="#9a32cd" stroke="#9a32cd" points="22.02,-67.72 23.5,-78.22 28.89,-69.09 22.02,-67.72"/>
<text text-anchor="middle" x="60" y="-46.5" font-family="Helvetica,sans-Serif" font-size="10.00"> func_ptr</text>
</g>
<!-- Node3 -->
<g id="node3" class="node">
<title>Node3</title>
<g id="a_node3"><a xlink:href="classchar.html" target="_top" xlink:title="char">
<polygon fill="none" stroke="black" points="65,-78.5 65,-97.5 100,-97.5 100,-78.5 65,-78.5"/>
<text text-anchor="middle" x="82.5" y="-85.5" font-family="Helvetica,sans-Serif" font-size="10.00">char</text>
</a>
</g>
</g>
<!-- Node3&#45;&gt;Node1 -->
<g id="edge2" class="edge">
<title>Node3&#45;&gt;Node1</title>
<path fill="none" stroke="#9a32cd" stroke-dasharray="5,2" d="M82.84,-68.07C83.58,-58.7 85.38,-47.4 89.5,-38 92.51,-31.13 97.76,-24.58 102.38,-19.65"/>
<polygon fill="#9a32cd" stroke="#9a32cd" points="79.33,-68.15 82.36,-78.3 86.32,-68.47 79.33,-68.15"/>
<text text-anchor="middle" x="103.5" y="-46.5" font-family="Helvetica,sans-Serif" font-size="10.00"> name</text>
</g>
<!-- Node4 -->
<g id="node4" class="node">
<title>Node4</title>
<polygon fill="none" stroke="#bfbfbf" points="118,-78.5 118,-97.5 159,-97.5 159,-78.5 118,-78.5"/>
<text text-anchor="middle" x="138.5" y="-85.5" font-family="Helvetica,sans-Serif" font-size="10.00">void *</text>
</g>
<!-- Node4&#45;&gt;Node1 -->
<g id="edge3" class="edge">
<title>Node4&#45;&gt;Node1</title>
<path fill="none" stroke="#9a32cd" stroke-dasharray="5,2" d="M131.99,-68.67C126.46,-53.11 118.77,-31.47 114.56,-19.62"/>
<polygon fill="#9a32cd" stroke="#9a32cd" points="128.76,-70.03 135.4,-78.28 135.35,-67.69 128.76,-70.03"/>
<text text-anchor="middle" x="149" y="-52" font-family="Helvetica,sans-Serif" font-size="10.00"> null_func</text>
<text text-anchor="middle" x="149" y="-41" font-family="Helvetica,sans-Serif" font-size="10.00">init_func</text>
</g>
<!-- Node5 -->
<g id="node5" class="node">
<title>Node5</title>
<polygon fill="none" stroke="#bfbfbf" points="177.5,-78.5 177.5,-97.5 287.5,-97.5 287.5,-78.5 177.5,-78.5"/>
<text text-anchor="middle" x="232.5" y="-85.5" font-family="Helvetica,sans-Serif" font-size="10.00">enum ___itt_group_id</text>
</g>
<!-- Node5&#45;&gt;Node1 -->
<g id="edge4" class="edge">
<title>Node5&#45;&gt;Node1</title>
<path fill="none" stroke="#9a32cd" stroke-dasharray="5,2" d="M216.86,-71.55C205.71,-61.13 190.02,-47.59 174.5,-38 162.45,-30.56 147.99,-24.2 135.96,-19.53"/>
<polygon fill="#9a32cd" stroke="#9a32cd" points="214.45,-74.09 224.1,-78.48 219.29,-69.04 214.45,-74.09"/>
<text text-anchor="middle" x="216.5" y="-46.5" font-family="Helvetica,sans-Serif" font-size="10.00"> group</text>
</g>
</g>
</svg>
