<?xml version="1.0" encoding="UTF-8" standalone="no"?>
<!DOCTYPE svg PUBLIC "-//W3C//DTD SVG 1.1//EN"
 "http://www.w3.org/Graphics/SVG/1.1/DTD/svg11.dtd">
<!-- Generated by graphviz version 2.43.0 (0)
 -->
<!-- Title: llvm::yaml::SIArgumentInfo Pages: 1 -->
<svg width="200pt" height="283pt"
 viewBox="0.00 0.00 200.00 283.00" xmlns="http://www.w3.org/2000/svg" xmlns:xlink="http://www.w3.org/1999/xlink">
<g id="graph0" class="graph" transform="scale(1 1) rotate(0) translate(4 279)">
<title>llvm::yaml::SIArgumentInfo</title>
<!-- Node1 -->
<g id="node1" class="node">
<title>Node1</title>
<polygon fill="#bfbfbf" stroke="black" points="0,-0.5 0,-19.5 136,-19.5 136,-0.5 0,-0.5"/>
<text text-anchor="middle" x="68" y="-7.5" font-family="Helvetica,sans-Serif" font-size="10.00">llvm::yaml::SIArgumentInfo</text>
</g>
<!-- Node2 -->
<g id="node2" class="node">
<title>Node2</title>
<g id="a_node2"><a xlink:href="classllvm_1_1Optional.html" target="_top" xlink:title="llvm::Optional\&lt; llvm\l::yaml::SIArgument \&gt;">
<polygon fill="none" stroke="black" points="13,-177.5 13,-207.5 123,-207.5 123,-177.5 13,-177.5"/>
<text text-anchor="start" x="21" y="-195.5" font-family="Helvetica,sans-Serif" font-size="10.00">llvm::Optional&lt; llvm</text>
<text text-anchor="middle" x="68" y="-184.5" font-family="Helvetica,sans-Serif" font-size="10.00">::yaml::SIArgument &gt;</text>
</a>
</g>
</g>
<!-- Node2&#45;&gt;Node1 -->
<g id="edge1" class="edge">
<title>Node2&#45;&gt;Node1</title>
<path fill="none" stroke="#9a32cd" stroke-dasharray="5,2" d="M68,-167.19C68,-126.43 68,-46.14 68,-19.68"/>
<polygon fill="#9a32cd" stroke="#9a32cd" points="64.5,-167.34 68,-177.34 71.5,-167.34 64.5,-167.34"/>
<text text-anchor="middle" x="114.5" y="-151" font-family="Helvetica,sans-Serif" font-size="10.00"> PrivateSegmentSize</text>
<text text-anchor="middle" x="114.5" y="-140" font-family="Helvetica,sans-Serif" font-size="10.00">FlatScratchInit</text>
<text text-anchor="middle" x="114.5" y="-129" font-family="Helvetica,sans-Serif" font-size="10.00">QueuePtr</text>
<text text-anchor="middle" x="114.5" y="-118" font-family="Helvetica,sans-Serif" font-size="10.00">DispatchID</text>
<text text-anchor="middle" x="114.5" y="-107" font-family="Helvetica,sans-Serif" font-size="10.00">DispatchPtr</text>
<text text-anchor="middle" x="114.5" y="-96" font-family="Helvetica,sans-Serif" font-size="10.00">WorkItemIDX</text>
<text text-anchor="middle" x="114.5" y="-85" font-family="Helvetica,sans-Serif" font-size="10.00">WorkItemIDY</text>
<text text-anchor="middle" x="114.5" y="-74" font-family="Helvetica,sans-Serif" font-size="10.00">ImplicitArgPtr</text>
<text text-anchor="middle" x="114.5" y="-63" font-family="Helvetica,sans-Serif" font-size="10.00">WorkItemIDZ</text>
<text text-anchor="middle" x="114.5" y="-52" font-family="Helvetica,sans-Serif" font-size="10.00">KernargSegmentPtr</text>
<text text-anchor="middle" x="114.5" y="-41" font-family="Helvetica,sans-Serif" font-size="10.00">...</text>
</g>
<!-- Node3 -->
<g id="node3" class="node">
<title>Node3</title>
<g id="a_node3"><a xlink:href="classllvm_1_1Optional.html" target="_top" xlink:title="llvm::Optional\&lt; T \&gt;">
<polygon fill="none" stroke="black" points="17.5,-255.5 17.5,-274.5 118.5,-274.5 118.5,-255.5 17.5,-255.5"/>
<text text-anchor="middle" x="68" y="-262.5" font-family="Helvetica,sans-Serif" font-size="10.00">llvm::Optional&lt; T &gt;</text>
</a>
</g>
</g>
<!-- Node3&#45;&gt;Node2 -->
<g id="edge2" class="edge">
<title>Node3&#45;&gt;Node2</title>
<path fill="none" stroke="orange" stroke-dasharray="5,2" d="M68,-245.24C68,-233.41 68,-218.38 68,-207.58"/>
<polygon fill="orange" stroke="orange" points="64.5,-245.36 68,-255.36 71.5,-245.36 64.5,-245.36"/>
<text text-anchor="middle" x="130" y="-229" font-family="Helvetica,sans-Serif" font-size="10.00"> &lt; llvm::yaml::SIArgument &gt;</text>
</g>
</g>
</svg>
