<?xml version="1.0" encoding="UTF-8" standalone="no"?>
<!DOCTYPE svg PUBLIC "-//W3C//DTD SVG 1.1//EN"
 "http://www.w3.org/Graphics/SVG/1.1/DTD/svg11.dtd">
<!-- Generated by graphviz version 2.43.0 (0)
 -->
<!-- Title: llvm::GraphTraits&lt; MachineDomTreeNode * &gt; Pages: 1 -->
<svg width="673pt" height="62pt"
 viewBox="0.00 0.00 673.00 62.00" xmlns="http://www.w3.org/2000/svg" xmlns:xlink="http://www.w3.org/1999/xlink">
<g id="graph0" class="graph" transform="scale(1 1) rotate(0) translate(4 58)">
<title>llvm::GraphTraits&lt; MachineDomTreeNode * &gt;</title>
<!-- Node0 -->
<g id="node1" class="node">
<title>Node0</title>
<polygon fill="#bfbfbf" stroke="black" points="529,-6 529,-36 665,-36 665,-6 529,-6"/>
<text text-anchor="start" x="537" y="-24" font-family="Helvetica,sans-Serif" font-size="10.00">llvm::GraphTraits&lt;</text>
<text text-anchor="middle" x="597" y="-13" font-family="Helvetica,sans-Serif" font-size="10.00"> MachineDomTreeNode * &gt;</text>
</g>
<!-- Node1 -->
<g id="node2" class="node">
<title>Node1</title>
<g id="a_node2"><a xlink:href="structllvm_1_1MachineDomTreeGraphTraitsBase.html" target="_top" xlink:title="llvm::MachineDomTreeGraph\lTraitsBase\&lt; MachineDomTreeNode,\l MachineDomTreeNode::iterator \&gt;">
<polygon fill="none" stroke="black" points="316,-0.5 316,-41.5 492,-41.5 492,-0.5 316,-0.5"/>
<text text-anchor="start" x="324" y="-29.5" font-family="Helvetica,sans-Serif" font-size="10.00">llvm::MachineDomTreeGraph</text>
<text text-anchor="start" x="324" y="-18.5" font-family="Helvetica,sans-Serif" font-size="10.00">TraitsBase&lt; MachineDomTreeNode,</text>
<text text-anchor="middle" x="404" y="-7.5" font-family="Helvetica,sans-Serif" font-size="10.00"> MachineDomTreeNode::iterator &gt;</text>
</a>
</g>
</g>
<!-- Node1&#45;&gt;Node0 -->
<g id="edge1" class="edge">
<title>Node1&#45;&gt;Node0</title>
<path fill="none" stroke="midnightblue" d="M502.23,-21C511.19,-21 520.14,-21 528.75,-21"/>
<polygon fill="midnightblue" stroke="midnightblue" points="502.12,-17.5 492.12,-21 502.12,-24.5 502.12,-17.5"/>
</g>
<!-- Node2 -->
<g id="node3" class="node">
<title>Node2</title>
<g id="a_node3"><a xlink:href="structllvm_1_1MachineDomTreeGraphTraitsBase.html" target="_top" xlink:title="DominatorTree GraphTraits specialization so the DominatorTree can be iterable by generic graph iterat...">
<polygon fill="none" stroke="black" points="0,-6 0,-36 164,-36 164,-6 0,-6"/>
<text text-anchor="start" x="8" y="-24" font-family="Helvetica,sans-Serif" font-size="10.00">llvm::MachineDomTreeGraph</text>
<text text-anchor="middle" x="82" y="-13" font-family="Helvetica,sans-Serif" font-size="10.00">TraitsBase&lt; Node, ChildIterator &gt;</text>
</a>
</g>
</g>
<!-- Node2&#45;&gt;Node1 -->
<g id="edge2" class="edge">
<title>Node2&#45;&gt;Node1</title>
<path fill="none" stroke="orange" stroke-dasharray="5,2" d="M174.37,-21C218.78,-21 271.9,-21 315.75,-21"/>
<polygon fill="orange" stroke="orange" points="174.16,-17.5 164.16,-21 174.16,-24.5 174.16,-17.5"/>
<text text-anchor="start" x="182" y="-46" font-family="Helvetica,sans-Serif" font-size="10.00"> &lt; MachineDomTreeNode,</text>
<text text-anchor="start" x="182" y="-35" font-family="Helvetica,sans-Serif" font-size="10.00"> MachineDomTreeNode::</text>
<text text-anchor="middle" x="240" y="-24" font-family="Helvetica,sans-Serif" font-size="10.00">iterator &gt;</text>
</g>
</g>
</svg>
