<?xml version="1.0" encoding="UTF-8" standalone="no"?>
<!DOCTYPE svg PUBLIC "-//W3C//DTD SVG 1.1//EN"
 "http://www.w3.org/Graphics/SVG/1.1/DTD/svg11.dtd">
<!-- Generated by graphviz version 2.43.0 (0)
 -->
<!-- Title: llvm::WasmYAML::SymbolInfo Pages: 1 -->
<svg width="530pt" height="238pt"
 viewBox="0.00 0.00 530.00 238.00" xmlns="http://www.w3.org/2000/svg" xmlns:xlink="http://www.w3.org/1999/xlink">
<g id="graph0" class="graph" transform="scale(1 1) rotate(0) translate(4 234)">
<title>llvm::WasmYAML::SymbolInfo</title>
<!-- Node1 -->
<g id="node1" class="node">
<title>Node1</title>
<polygon fill="#bfbfbf" stroke="black" points="370,-109.5 370,-128.5 522,-128.5 522,-109.5 370,-109.5"/>
<text text-anchor="middle" x="446" y="-116.5" font-family="Helvetica,sans-Serif" font-size="10.00">llvm::WasmYAML::SymbolInfo</text>
</g>
<!-- Node2 -->
<g id="node2" class="node">
<title>Node2</title>
<polygon fill="none" stroke="#bfbfbf" points="176,-210.5 176,-229.5 245,-229.5 245,-210.5 176,-210.5"/>
<text text-anchor="middle" x="210.5" y="-217.5" font-family="Helvetica,sans-Serif" font-size="10.00">SymbolKind</text>
</g>
<!-- Node2&#45;&gt;Node1 -->
<g id="edge1" class="edge">
<title>Node2&#45;&gt;Node1</title>
<path fill="none" stroke="#9a32cd" stroke-dasharray="5,2" d="M255.27,-212.06C267.96,-209.19 281.7,-205.52 294,-201 347.21,-181.47 404.61,-145.76 430.68,-128.65"/>
<polygon fill="#9a32cd" stroke="#9a32cd" points="254.41,-208.67 245.37,-214.2 255.89,-215.51 254.41,-208.67"/>
<text text-anchor="middle" x="332" y="-195" font-family="Helvetica,sans-Serif" font-size="10.00"> Kind</text>
</g>
<!-- Node3 -->
<g id="node3" class="node">
<title>Node3</title>
<polygon fill="none" stroke="#bfbfbf" points="173.5,-172.5 173.5,-191.5 247.5,-191.5 247.5,-172.5 173.5,-172.5"/>
<text text-anchor="middle" x="210.5" y="-179.5" font-family="Helvetica,sans-Serif" font-size="10.00">SymbolFlags</text>
</g>
<!-- Node3&#45;&gt;Node1 -->
<g id="edge2" class="edge">
<title>Node3&#45;&gt;Node1</title>
<path fill="none" stroke="#9a32cd" stroke-dasharray="5,2" d="M257.42,-170.63C284.91,-163.72 320.52,-154.6 352,-146 372.27,-140.46 394.92,-133.89 412.79,-128.62"/>
<polygon fill="#9a32cd" stroke="#9a32cd" points="256.53,-167.24 247.68,-173.07 258.23,-174.03 256.53,-167.24"/>
<text text-anchor="middle" x="332" y="-159" font-family="Helvetica,sans-Serif" font-size="10.00"> Flags</text>
</g>
<!-- Node4 -->
<g id="node4" class="node">
<title>Node4</title>
<g id="a_node4"><a xlink:href="classuint32__t.html" target="_top" xlink:title="uint32_t">
<polygon fill="none" stroke="black" points="0,-99.5 0,-118.5 51,-118.5 51,-99.5 0,-99.5"/>
<text text-anchor="middle" x="25.5" y="-106.5" font-family="Helvetica,sans-Serif" font-size="10.00">uint32_t</text>
</a>
</g>
</g>
<!-- Node4&#45;&gt;Node1 -->
<g id="edge3" class="edge">
<title>Node4&#45;&gt;Node1</title>
<path fill="none" stroke="#9a32cd" stroke-dasharray="5,2" d="M61.17,-116.95C63.81,-117.37 66.44,-117.73 69,-118 172.86,-129.02 293.77,-126.65 369.85,-123.33"/>
<polygon fill="#9a32cd" stroke="#9a32cd" points="61.55,-113.46 51.08,-115.1 60.29,-120.35 61.55,-113.46"/>
<text text-anchor="middle" x="210.5" y="-140" font-family="Helvetica,sans-Serif" font-size="10.00"> ElementIndex</text>
<text text-anchor="middle" x="210.5" y="-129" font-family="Helvetica,sans-Serif" font-size="10.00">Index</text>
</g>
<!-- Node5 -->
<g id="node5" class="node">
<title>Node5</title>
<g id="a_node5"><a xlink:href="structllvm_1_1wasm_1_1WasmDataReference.html" target="_top" xlink:title="llvm::wasm::WasmDataReference">
<polygon fill="none" stroke="black" points="127,-76.5 127,-95.5 294,-95.5 294,-76.5 127,-76.5"/>
<text text-anchor="middle" x="210.5" y="-83.5" font-family="Helvetica,sans-Serif" font-size="10.00">llvm::wasm::WasmDataReference</text>
</a>
</g>
</g>
<!-- Node4&#45;&gt;Node5 -->
<g id="edge5" class="edge">
<title>Node4&#45;&gt;Node5</title>
<path fill="none" stroke="#9a32cd" stroke-dasharray="5,2" d="M48.21,-93.92C54.62,-90.27 61.84,-86.88 69,-85 87.4,-80.16 107.63,-78.37 126.87,-78.21"/>
<polygon fill="#9a32cd" stroke="#9a32cd" points="46.17,-91.07 39.51,-99.32 49.85,-97.03 46.17,-91.07"/>
<text text-anchor="middle" x="89" y="-110" font-family="Helvetica,sans-Serif" font-size="10.00"> Offset</text>
<text text-anchor="middle" x="89" y="-99" font-family="Helvetica,sans-Serif" font-size="10.00">Size</text>
<text text-anchor="middle" x="89" y="-88" font-family="Helvetica,sans-Serif" font-size="10.00">Segment</text>
</g>
<!-- Node5&#45;&gt;Node1 -->
<g id="edge4" class="edge">
<title>Node5&#45;&gt;Node1</title>
<path fill="none" stroke="#9a32cd" stroke-dasharray="5,2" d="M288.71,-96.91C317.39,-100.97 349.69,-105.53 377.44,-109.45"/>
<polygon fill="#9a32cd" stroke="#9a32cd" points="289.12,-93.43 278.72,-95.5 288.14,-100.37 289.12,-93.43"/>
<text text-anchor="middle" x="332" y="-108" font-family="Helvetica,sans-Serif" font-size="10.00"> DataRef</text>
</g>
<!-- Node6 -->
<g id="node6" class="node">
<title>Node6</title>
<g id="a_node6"><a xlink:href="classllvm_1_1StringRef.html" target="_top" xlink:title="StringRef &#45; Represent a constant reference to a string, i.e. ">
<polygon fill="none" stroke="black" points="169.5,-38.5 169.5,-57.5 251.5,-57.5 251.5,-38.5 169.5,-38.5"/>
<text text-anchor="middle" x="210.5" y="-45.5" font-family="Helvetica,sans-Serif" font-size="10.00">llvm::StringRef</text>
</a>
</g>
</g>
<!-- Node6&#45;&gt;Node1 -->
<g id="edge6" class="edge">
<title>Node6&#45;&gt;Node1</title>
<path fill="none" stroke="#9a32cd" stroke-dasharray="5,2" d="M261.27,-58.83C272.09,-61.36 283.46,-64.16 294,-67 339.51,-79.28 391.16,-98.18 420.73,-109.5"/>
<polygon fill="#9a32cd" stroke="#9a32cd" points="262.04,-55.42 251.51,-56.58 260.47,-62.24 262.04,-55.42"/>
<text text-anchor="middle" x="332" y="-86" font-family="Helvetica,sans-Serif" font-size="10.00"> Name</text>
</g>
<!-- Node7 -->
<g id="node7" class="node">
<title>Node7</title>
<g id="a_node7"><a xlink:href="classsize__t.html" target="_top" xlink:title="size_t">
<polygon fill="none" stroke="black" points="4,-38.5 4,-57.5 47,-57.5 47,-38.5 4,-38.5"/>
<text text-anchor="middle" x="25.5" y="-45.5" font-family="Helvetica,sans-Serif" font-size="10.00">size_t</text>
</a>
</g>
</g>
<!-- Node7&#45;&gt;Node6 -->
<g id="edge7" class="edge">
<title>Node7&#45;&gt;Node6</title>
<path fill="none" stroke="#9a32cd" stroke-dasharray="5,2" d="M57.28,-48C88.07,-48 135.58,-48 169.32,-48"/>
<polygon fill="#9a32cd" stroke="#9a32cd" points="57.14,-44.5 47.14,-48 57.14,-51.5 57.14,-44.5"/>
<text text-anchor="middle" x="89" y="-51" font-family="Helvetica,sans-Serif" font-size="10.00"> npos</text>
</g>
<!-- Node8 -->
<g id="node8" class="node">
<title>Node8</title>
<polygon fill="none" stroke="#bfbfbf" points="162.5,-0.5 162.5,-19.5 258.5,-19.5 258.5,-0.5 162.5,-0.5"/>
<text text-anchor="middle" x="210.5" y="-7.5" font-family="Helvetica,sans-Serif" font-size="10.00">anonymous:@304</text>
</g>
<!-- Node8&#45;&gt;Node1 -->
<g id="edge8" class="edge">
<title>Node8&#45;&gt;Node1</title>
<path fill="none" stroke="#9a32cd" stroke-dasharray="5,2" d="M268.69,-21.42C277.26,-23.63 285.93,-26.16 294,-29 350.14,-48.74 408.37,-90.63 432.93,-109.47"/>
<polygon fill="#9a32cd" stroke="#9a32cd" points="269.25,-17.95 258.7,-18.96 267.58,-24.75 269.25,-17.95"/>
<text text-anchor="middle" x="332" y="-58" font-family="Helvetica,sans-Serif" font-size="10.00"> @304</text>
</g>
</g>
</svg>
