<?xml version="1.0" encoding="UTF-8" standalone="no"?>
<!DOCTYPE svg PUBLIC "-//W3C//DTD SVG 1.1//EN"
 "http://www.w3.org/Graphics/SVG/1.1/DTD/svg11.dtd">
<!-- Generated by graphviz version 2.43.0 (0)
 -->
<!-- Title: llvm::MDNodeKeyImpl&lt; DIImportedEntity &gt; Pages: 1 -->
<svg width="195pt" height="297pt"
 viewBox="0.00 0.00 195.00 297.00" xmlns="http://www.w3.org/2000/svg" xmlns:xlink="http://www.w3.org/1999/xlink">
<g id="graph0" class="graph" transform="scale(1 1) rotate(0) translate(4 293)">
<title>llvm::MDNodeKeyImpl&lt; DIImportedEntity &gt;</title>
<!-- Node1 -->
<g id="node1" class="node">
<title>Node1</title>
<polygon fill="#bfbfbf" stroke="black" points="0,-0.5 0,-30.5 116,-30.5 116,-0.5 0,-0.5"/>
<text text-anchor="start" x="8" y="-18.5" font-family="Helvetica,sans-Serif" font-size="10.00">llvm::MDNodeKeyImpl</text>
<text text-anchor="middle" x="58" y="-7.5" font-family="Helvetica,sans-Serif" font-size="10.00">&lt; DIImportedEntity &gt;</text>
</g>
<!-- Node2 -->
<g id="node2" class="node">
<title>Node2</title>
<g id="a_node2"><a xlink:href="classllvm_1_1Metadata.html" target="_top" xlink:title="Root of the metadata hierarchy. ">
<polygon fill="none" stroke="black" points="40.5,-169.5 40.5,-188.5 121.5,-188.5 121.5,-169.5 40.5,-169.5"/>
<text text-anchor="middle" x="81" y="-176.5" font-family="Helvetica,sans-Serif" font-size="10.00">llvm::Metadata</text>
</a>
</g>
</g>
<!-- Node2&#45;&gt;Node1 -->
<g id="edge1" class="edge">
<title>Node2&#45;&gt;Node1</title>
<path fill="none" stroke="#9a32cd" stroke-dasharray="5,2" d="M76.56,-159.51C73.48,-146.11 69.51,-127.52 67,-111 62.7,-82.65 60.09,-49.18 58.86,-30.65"/>
<polygon fill="#9a32cd" stroke="#9a32cd" points="73.18,-160.45 78.88,-169.38 80,-158.85 73.18,-160.45"/>
<text text-anchor="middle" x="81.5" y="-103" font-family="Helvetica,sans-Serif" font-size="10.00"> Entity</text>
<text text-anchor="middle" x="81.5" y="-92" font-family="Helvetica,sans-Serif" font-size="10.00">File</text>
<text text-anchor="middle" x="81.5" y="-81" font-family="Helvetica,sans-Serif" font-size="10.00">Scope</text>
</g>
<!-- Node4 -->
<g id="node4" class="node">
<title>Node4</title>
<g id="a_node4"><a xlink:href="classllvm_1_1MDString.html" target="_top" xlink:title="A single uniqued string. ">
<polygon fill="none" stroke="black" points="105,-85 105,-104 187,-104 187,-85 105,-85"/>
<text text-anchor="middle" x="146" y="-92" font-family="Helvetica,sans-Serif" font-size="10.00">llvm::MDString</text>
</a>
</g>
</g>
<!-- Node2&#45;&gt;Node4 -->
<g id="edge5" class="edge">
<title>Node2&#45;&gt;Node4</title>
<path fill="none" stroke="midnightblue" d="M94.1,-161.38C107.74,-144.06 128.58,-117.61 139.23,-104.1"/>
<polygon fill="midnightblue" stroke="midnightblue" points="91.15,-159.46 87.71,-169.48 96.65,-163.79 91.15,-159.46"/>
</g>
<!-- Node3 -->
<g id="node3" class="node">
<title>Node3</title>
<g id="a_node3"><a xlink:href="classunsigned.html" target="_top" xlink:title="unsigned">
<polygon fill="none" stroke="black" points="0,-269.5 0,-288.5 56,-288.5 56,-269.5 0,-269.5"/>
<text text-anchor="middle" x="28" y="-276.5" font-family="Helvetica,sans-Serif" font-size="10.00">unsigned</text>
</a>
</g>
</g>
<!-- Node3&#45;&gt;Node1 -->
<g id="edge3" class="edge">
<title>Node3&#45;&gt;Node1</title>
<path fill="none" stroke="#9a32cd" stroke-dasharray="5,2" d="M27.68,-259.37C27.5,-237.62 27.78,-200.61 31,-169 36.22,-117.64 48.8,-57.54 54.76,-30.7"/>
<polygon fill="#9a32cd" stroke="#9a32cd" points="24.18,-259.54 27.81,-269.49 31.18,-259.45 24.18,-259.54"/>
<text text-anchor="middle" x="47" y="-143" font-family="Helvetica,sans-Serif" font-size="10.00"> Line</text>
<text text-anchor="middle" x="47" y="-132" font-family="Helvetica,sans-Serif" font-size="10.00">Tag</text>
</g>
<!-- Node3&#45;&gt;Node2 -->
<g id="edge2" class="edge">
<title>Node3&#45;&gt;Node2</title>
<path fill="none" stroke="#9a32cd" stroke-dasharray="5,2" d="M37.53,-260.38C48.98,-239.2 67.75,-204.51 76.38,-188.54"/>
<polygon fill="#9a32cd" stroke="#9a32cd" points="34.38,-258.84 32.7,-269.3 40.54,-262.17 34.38,-258.84"/>
<text text-anchor="middle" x="101.5" y="-243" font-family="Helvetica,sans-Serif" font-size="10.00"> ImplicitCode</text>
<text text-anchor="middle" x="101.5" y="-232" font-family="Helvetica,sans-Serif" font-size="10.00">Storage</text>
<text text-anchor="middle" x="101.5" y="-221" font-family="Helvetica,sans-Serif" font-size="10.00">SubclassData32</text>
<text text-anchor="middle" x="101.5" y="-210" font-family="Helvetica,sans-Serif" font-size="10.00">SubclassData16</text>
</g>
<!-- Node4&#45;&gt;Node1 -->
<g id="edge4" class="edge">
<title>Node4&#45;&gt;Node1</title>
<path fill="none" stroke="#9a32cd" stroke-dasharray="5,2" d="M128.71,-78.37C112.84,-64.49 89.52,-44.08 74.05,-30.54"/>
<polygon fill="#9a32cd" stroke="#9a32cd" points="126.42,-81.01 136.25,-84.97 131.03,-75.75 126.42,-81.01"/>
<text text-anchor="middle" x="122" y="-52" font-family="Helvetica,sans-Serif" font-size="10.00"> Name</text>
</g>
</g>
</svg>
