<?xml version="1.0" encoding="UTF-8" standalone="no"?>
<!DOCTYPE svg PUBLIC "-//W3C//DTD SVG 1.1//EN"
 "http://www.w3.org/Graphics/SVG/1.1/DTD/svg11.dtd">
<!-- Generated by graphviz version 2.43.0 (0)
 -->
<!-- Title: llvm::InstrStage Pages: 1 -->
<svg width="251pt" height="106pt"
 viewBox="0.00 0.00 251.00 106.00" xmlns="http://www.w3.org/2000/svg" xmlns:xlink="http://www.w3.org/1999/xlink">
<g id="graph0" class="graph" transform="scale(1 1) rotate(0) translate(4 102)">
<title>llvm::InstrStage</title>
<!-- Node1 -->
<g id="node1" class="node">
<title>Node1</title>
<polygon fill="#bfbfbf" stroke="black" points="84,-0.5 84,-19.5 170,-19.5 170,-0.5 84,-0.5"/>
<text text-anchor="middle" x="127" y="-7.5" font-family="Helvetica,sans-Serif" font-size="10.00">llvm::InstrStage</text>
</g>
<!-- Node2 -->
<g id="node2" class="node">
<title>Node2</title>
<polygon fill="none" stroke="#bfbfbf" points="0,-78.5 0,-97.5 94,-97.5 94,-78.5 0,-78.5"/>
<text text-anchor="middle" x="47" y="-85.5" font-family="Helvetica,sans-Serif" font-size="10.00">ReservationKinds</text>
</g>
<!-- Node2&#45;&gt;Node1 -->
<g id="edge1" class="edge">
<title>Node2&#45;&gt;Node1</title>
<path fill="none" stroke="#9a32cd" stroke-dasharray="5,2" d="M61.93,-71.01C71.22,-61.24 83.55,-48.63 95,-38 101.93,-31.57 110.07,-24.71 116.41,-19.51"/>
<polygon fill="#9a32cd" stroke="#9a32cd" points="59.24,-68.76 54.92,-78.44 64.33,-73.56 59.24,-68.76"/>
<text text-anchor="middle" x="109" y="-46.5" font-family="Helvetica,sans-Serif" font-size="10.00"> Kind_</text>
</g>
<!-- Node3 -->
<g id="node3" class="node">
<title>Node3</title>
<polygon fill="none" stroke="#bfbfbf" points="112.5,-78.5 112.5,-97.5 141.5,-97.5 141.5,-78.5 112.5,-78.5"/>
<text text-anchor="middle" x="127" y="-85.5" font-family="Helvetica,sans-Serif" font-size="10.00">int</text>
</g>
<!-- Node3&#45;&gt;Node1 -->
<g id="edge2" class="edge">
<title>Node3&#45;&gt;Node1</title>
<path fill="none" stroke="#9a32cd" stroke-dasharray="5,2" d="M127,-68.22C127,-52.7 127,-31.36 127,-19.62"/>
<polygon fill="#9a32cd" stroke="#9a32cd" points="123.5,-68.28 127,-78.28 130.5,-68.28 123.5,-68.28"/>
<text text-anchor="middle" x="157.5" y="-46.5" font-family="Helvetica,sans-Serif" font-size="10.00"> NextCycles_</text>
</g>
<!-- Node4 -->
<g id="node4" class="node">
<title>Node4</title>
<g id="a_node4"><a xlink:href="classunsigned.html" target="_top" xlink:title="unsigned">
<polygon fill="none" stroke="black" points="183,-78.5 183,-97.5 239,-97.5 239,-78.5 183,-78.5"/>
<text text-anchor="middle" x="211" y="-85.5" font-family="Helvetica,sans-Serif" font-size="10.00">unsigned</text>
</a>
</g>
</g>
<!-- Node4&#45;&gt;Node1 -->
<g id="edge3" class="edge">
<title>Node4&#45;&gt;Node1</title>
<path fill="none" stroke="#9a32cd" stroke-dasharray="5,2" d="M206.23,-68.39C202.84,-58.32 197.38,-46.28 189,-38 180.57,-29.66 169.14,-23.7 158.39,-19.54"/>
<polygon fill="#9a32cd" stroke="#9a32cd" points="202.96,-69.67 209.13,-78.28 209.67,-67.7 202.96,-69.67"/>
<text text-anchor="middle" x="223" y="-52" font-family="Helvetica,sans-Serif" font-size="10.00"> Cycles_</text>
<text text-anchor="middle" x="223" y="-41" font-family="Helvetica,sans-Serif" font-size="10.00">Units_</text>
</g>
</g>
</svg>
