<?xml version="1.0" encoding="UTF-8" standalone="no"?>
<!DOCTYPE svg PUBLIC "-//W3C//DTD SVG 1.1//EN"
 "http://www.w3.org/Graphics/SVG/1.1/DTD/svg11.dtd">
<!-- Generated by graphviz version 2.43.0 (0)
 -->
<!-- Title: llvm::ImmInstrInfo Pages: 1 -->
<svg width="154pt" height="205pt"
 viewBox="0.00 0.00 154.00 205.00" xmlns="http://www.w3.org/2000/svg" xmlns:xlink="http://www.w3.org/1999/xlink">
<g id="graph0" class="graph" transform="scale(1 1) rotate(0) translate(4 201)">
<title>llvm::ImmInstrInfo</title>
<!-- Node1 -->
<g id="node1" class="node">
<title>Node1</title>
<polygon fill="#bfbfbf" stroke="black" points="0,-0.5 0,-19.5 96,-19.5 96,-0.5 0,-0.5"/>
<text text-anchor="middle" x="48" y="-7.5" font-family="Helvetica,sans-Serif" font-size="10.00">llvm::ImmInstrInfo</text>
</g>
<!-- Node2 -->
<g id="node2" class="node">
<title>Node2</title>
<polygon fill="none" stroke="#bfbfbf" points="22.5,-177.5 22.5,-196.5 73.5,-196.5 73.5,-177.5 22.5,-177.5"/>
<text text-anchor="middle" x="48" y="-184.5" font-family="Helvetica,sans-Serif" font-size="10.00">uint64_t</text>
</g>
<!-- Node2&#45;&gt;Node1 -->
<g id="edge1" class="edge">
<title>Node2&#45;&gt;Node1</title>
<path fill="none" stroke="#9a32cd" stroke-dasharray="5,2" d="M48,-166.95C48,-129.3 48,-46.65 48,-19.69"/>
<polygon fill="#9a32cd" stroke="#9a32cd" points="44.5,-167.08 48,-177.08 51.5,-167.08 44.5,-167.08"/>
<text text-anchor="middle" x="97" y="-151" font-family="Helvetica,sans-Serif" font-size="10.00"> IsCommutative</text>
<text text-anchor="middle" x="97" y="-140" font-family="Helvetica,sans-Serif" font-size="10.00">ImmOpcode</text>
<text text-anchor="middle" x="97" y="-129" font-family="Helvetica,sans-Serif" font-size="10.00">ZeroIsSpecialOrig</text>
<text text-anchor="middle" x="97" y="-118" font-family="Helvetica,sans-Serif" font-size="10.00">OpNoForForwarding</text>
<text text-anchor="middle" x="97" y="-107" font-family="Helvetica,sans-Serif" font-size="10.00">ZeroIsSpecialNew</text>
<text text-anchor="middle" x="97" y="-96" font-family="Helvetica,sans-Serif" font-size="10.00">ImmOpNo</text>
<text text-anchor="middle" x="97" y="-85" font-family="Helvetica,sans-Serif" font-size="10.00">IsSummingOperands</text>
<text text-anchor="middle" x="97" y="-74" font-family="Helvetica,sans-Serif" font-size="10.00">ImmWidth</text>
<text text-anchor="middle" x="97" y="-63" font-family="Helvetica,sans-Serif" font-size="10.00">TruncateImmTo</text>
<text text-anchor="middle" x="97" y="-52" font-family="Helvetica,sans-Serif" font-size="10.00">ImmMustBeMultipleOf</text>
<text text-anchor="middle" x="97" y="-41" font-family="Helvetica,sans-Serif" font-size="10.00">...</text>
</g>
</g>
</svg>
