<?xml version="1.0" encoding="UTF-8" standalone="no"?>
<!DOCTYPE svg PUBLIC "-//W3C//DTD SVG 1.1//EN"
 "http://www.w3.org/Graphics/SVG/1.1/DTD/svg11.dtd">
<!-- Generated by graphviz version 2.43.0 (0)
 -->
<!-- Title: llvm::ms_demangle::StructorIdentifierNode Pages: 1 -->
<svg width="203pt" height="262pt"
 viewBox="0.00 0.00 203.00 262.00" xmlns="http://www.w3.org/2000/svg" xmlns:xlink="http://www.w3.org/1999/xlink">
<g id="graph0" class="graph" transform="scale(1 1) rotate(0) translate(4 258)">
<title>llvm::ms_demangle::StructorIdentifierNode</title>
<!-- Node3 -->
<g id="node1" class="node">
<title>Node3</title>
<polygon fill="#bfbfbf" stroke="black" points="30.5,-0.5 30.5,-30.5 142.5,-30.5 142.5,-0.5 30.5,-0.5"/>
<text text-anchor="start" x="38.5" y="-18.5" font-family="Helvetica,sans-Serif" font-size="10.00">llvm::ms_demangle::</text>
<text text-anchor="middle" x="86.5" y="-7.5" font-family="Helvetica,sans-Serif" font-size="10.00">StructorIdentifierNode</text>
</g>
<!-- Node4 -->
<g id="node2" class="node">
<title>Node4</title>
<g id="a_node2"><a xlink:href="structllvm_1_1ms__demangle_1_1IdentifierNode.html" target="_top" xlink:title="llvm::ms_demangle::\lIdentifierNode">
<polygon fill="none" stroke="black" points="0,-78.5 0,-108.5 107,-108.5 107,-78.5 0,-78.5"/>
<text text-anchor="start" x="8" y="-96.5" font-family="Helvetica,sans-Serif" font-size="10.00">llvm::ms_demangle::</text>
<text text-anchor="middle" x="53.5" y="-85.5" font-family="Helvetica,sans-Serif" font-size="10.00">IdentifierNode</text>
</a>
</g>
</g>
<!-- Node4&#45;&gt;Node3 -->
<g id="edge1" class="edge">
<title>Node4&#45;&gt;Node3</title>
<path fill="none" stroke="midnightblue" d="M60.09,-68.81C62.19,-62.28 64.7,-55.27 67.5,-49 70.27,-42.79 73.93,-36.27 77.29,-30.7"/>
<polygon fill="midnightblue" stroke="midnightblue" points="56.71,-67.91 57.17,-78.5 63.41,-69.94 56.71,-67.91"/>
</g>
<!-- Node4&#45;&gt;Node3 -->
<g id="edge7" class="edge">
<title>Node4&#45;&gt;Node3</title>
<path fill="none" stroke="#9a32cd" stroke-dasharray="5,2" d="M63.78,-68.83C69.2,-56.35 75.67,-41.44 80.32,-30.73"/>
<polygon fill="#9a32cd" stroke="#9a32cd" points="60.48,-67.64 59.71,-78.2 66.9,-70.43 60.48,-67.64"/>
<text text-anchor="middle" x="86" y="-52" font-family="Helvetica,sans-Serif" font-size="10.00"> Class</text>
</g>
<!-- Node5 -->
<g id="node3" class="node">
<title>Node5</title>
<g id="a_node3"><a xlink:href="structllvm_1_1ms__demangle_1_1Node.html" target="_top" xlink:title="llvm::ms_demangle::Node">
<polygon fill="none" stroke="black" points="3,-234.5 3,-253.5 134,-253.5 134,-234.5 3,-234.5"/>
<text text-anchor="middle" x="68.5" y="-241.5" font-family="Helvetica,sans-Serif" font-size="10.00">llvm::ms_demangle::Node</text>
</a>
</g>
</g>
<!-- Node5&#45;&gt;Node4 -->
<g id="edge2" class="edge">
<title>Node5&#45;&gt;Node4</title>
<path fill="none" stroke="midnightblue" d="M64.11,-224.36C61.74,-213.52 59,-199.56 57.5,-187 54.21,-159.39 53.54,-126.85 53.45,-108.66"/>
<polygon fill="midnightblue" stroke="midnightblue" points="60.74,-225.36 66.38,-234.33 67.57,-223.81 60.74,-225.36"/>
</g>
<!-- Node6 -->
<g id="node4" class="node">
<title>Node6</title>
<g id="a_node4"><a xlink:href="structllvm_1_1ms__demangle_1_1NodeArrayNode.html" target="_top" xlink:title="llvm::ms_demangle::\lNodeArrayNode">
<polygon fill="none" stroke="black" points="66,-156.5 66,-186.5 173,-186.5 173,-156.5 66,-156.5"/>
<text text-anchor="start" x="74" y="-174.5" font-family="Helvetica,sans-Serif" font-size="10.00">llvm::ms_demangle::</text>
<text text-anchor="middle" x="119.5" y="-163.5" font-family="Helvetica,sans-Serif" font-size="10.00">NodeArrayNode</text>
</a>
</g>
</g>
<!-- Node5&#45;&gt;Node6 -->
<g id="edge4" class="edge">
<title>Node5&#45;&gt;Node6</title>
<path fill="none" stroke="midnightblue" d="M78.27,-225.48C82.16,-218.9 86.81,-211.46 91.5,-205 96.05,-198.73 101.52,-192.19 106.42,-186.64"/>
<polygon fill="midnightblue" stroke="midnightblue" points="75.16,-223.87 73.22,-234.29 81.24,-227.36 75.16,-223.87"/>
</g>
<!-- Node5&#45;&gt;Node6 -->
<g id="edge5" class="edge">
<title>Node5&#45;&gt;Node6</title>
<path fill="none" stroke="#9a32cd" stroke-dasharray="5,2" d="M83.21,-226.43C86.05,-223.05 88.93,-219.46 91.5,-216 98.57,-206.48 105.79,-195.21 111.13,-186.53"/>
<polygon fill="#9a32cd" stroke="#9a32cd" points="80.35,-224.39 76.48,-234.25 85.66,-228.96 80.35,-224.39"/>
<text text-anchor="middle" x="114.5" y="-208" font-family="Helvetica,sans-Serif" font-size="10.00"> Nodes</text>
</g>
<!-- Node6&#45;&gt;Node4 -->
<g id="edge3" class="edge">
<title>Node6&#45;&gt;Node4</title>
<path fill="none" stroke="#9a32cd" stroke-dasharray="5,2" d="M100.23,-148.31C89.13,-135.53 75.52,-119.86 65.86,-108.73"/>
<polygon fill="#9a32cd" stroke="#9a32cd" points="97.89,-150.95 107.09,-156.2 103.17,-146.36 97.89,-150.95"/>
<text text-anchor="middle" x="128.5" y="-130" font-family="Helvetica,sans-Serif" font-size="10.00"> TemplateParams</text>
</g>
<!-- Node7 -->
<g id="node5" class="node">
<title>Node7</title>
<g id="a_node5"><a xlink:href="classsize__t.html" target="_top" xlink:title="size_t">
<polygon fill="none" stroke="black" points="152,-234.5 152,-253.5 195,-253.5 195,-234.5 152,-234.5"/>
<text text-anchor="middle" x="173.5" y="-241.5" font-family="Helvetica,sans-Serif" font-size="10.00">size_t</text>
</a>
</g>
</g>
<!-- Node7&#45;&gt;Node6 -->
<g id="edge6" class="edge">
<title>Node7&#45;&gt;Node6</title>
<path fill="none" stroke="#9a32cd" stroke-dasharray="5,2" d="M160.78,-226.39C151.5,-214.28 139.07,-198.05 130.28,-186.58"/>
<polygon fill="#9a32cd" stroke="#9a32cd" points="158.02,-228.54 166.88,-234.36 163.58,-224.29 158.02,-228.54"/>
<text text-anchor="middle" x="165.5" y="-208" font-family="Helvetica,sans-Serif" font-size="10.00"> Count</text>
</g>
<!-- Node8 -->
<g id="node6" class="node">
<title>Node8</title>
<g id="a_node6"><a xlink:href="classbool.html" target="_top" xlink:title="bool">
<polygon fill="none" stroke="black" points="125,-84 125,-103 160,-103 160,-84 125,-84"/>
<text text-anchor="middle" x="142.5" y="-91" font-family="Helvetica,sans-Serif" font-size="10.00">bool</text>
</a>
</g>
</g>
<!-- Node8&#45;&gt;Node3 -->
<g id="edge8" class="edge">
<title>Node8&#45;&gt;Node3</title>
<path fill="none" stroke="#9a32cd" stroke-dasharray="5,2" d="M129.87,-75.37C119.9,-61.83 106.16,-43.17 96.83,-30.52"/>
<polygon fill="#9a32cd" stroke="#9a32cd" points="127.33,-77.81 136.08,-83.78 132.96,-73.66 127.33,-77.81"/>
<text text-anchor="middle" x="146.5" y="-52" font-family="Helvetica,sans-Serif" font-size="10.00"> IsDestructor</text>
</g>
</g>
</svg>
