<?xml version="1.0" encoding="UTF-8" standalone="no"?>
<!DOCTYPE svg PUBLIC "-//W3C//DTD SVG 1.1//EN"
 "http://www.w3.org/Graphics/SVG/1.1/DTD/svg11.dtd">
<!-- Generated by graphviz version 2.43.0 (0)
 -->
<!-- Title: llvm::AMDGPU::HSAMD::Kernel::DebugProps::Metadata Pages: 1 -->
<svg width="290pt" height="161pt"
 viewBox="0.00 0.00 289.50 161.00" xmlns="http://www.w3.org/2000/svg" xmlns:xlink="http://www.w3.org/1999/xlink">
<g id="graph0" class="graph" transform="scale(1 1) rotate(0) translate(4 157)">
<title>llvm::AMDGPU::HSAMD::Kernel::DebugProps::Metadata</title>
<!-- Node1 -->
<g id="node1" class="node">
<title>Node1</title>
<polygon fill="#bfbfbf" stroke="black" points="39.5,-0.5 39.5,-41.5 167.5,-41.5 167.5,-0.5 39.5,-0.5"/>
<text text-anchor="start" x="47.5" y="-29.5" font-family="Helvetica,sans-Serif" font-size="10.00">llvm::AMDGPU::HSAMD</text>
<text text-anchor="start" x="47.5" y="-18.5" font-family="Helvetica,sans-Serif" font-size="10.00">::Kernel::DebugProps</text>
<text text-anchor="middle" x="103.5" y="-7.5" font-family="Helvetica,sans-Serif" font-size="10.00">::Metadata</text>
</g>
<!-- Node2 -->
<g id="node2" class="node">
<title>Node2</title>
<g id="a_node2"><a xlink:href="classuint16__t.html" target="_top" xlink:title="uint16_t">
<polygon fill="none" stroke="black" points="0,-133.5 0,-152.5 51,-152.5 51,-133.5 0,-133.5"/>
<text text-anchor="middle" x="25.5" y="-140.5" font-family="Helvetica,sans-Serif" font-size="10.00">uint16_t</text>
</a>
</g>
</g>
<!-- Node2&#45;&gt;Node1 -->
<g id="edge1" class="edge">
<title>Node2&#45;&gt;Node1</title>
<path fill="none" stroke="#9a32cd" stroke-dasharray="5,2" d="M20.52,-123.32C16.92,-105.61 14.55,-78.96 26.5,-60 31.19,-52.56 37.81,-46.53 45.21,-41.66"/>
<polygon fill="#9a32cd" stroke="#9a32cd" points="17.16,-124.34 22.86,-133.27 23.97,-122.74 17.16,-124.34"/>
<text text-anchor="middle" x="93" y="-107" font-family="Helvetica,sans-Serif" font-size="10.00"> mReservedNumVGPRs</text>
<text text-anchor="start" x="26.5" y="-96" font-family="Helvetica,sans-Serif" font-size="10.00">mWavefrontPrivateSegment</text>
<text text-anchor="middle" x="93" y="-85" font-family="Helvetica,sans-Serif" font-size="10.00">OffsetSGPR</text>
<text text-anchor="middle" x="93" y="-74" font-family="Helvetica,sans-Serif" font-size="10.00">mReservedFirstVGPR</text>
<text text-anchor="middle" x="93" y="-63" font-family="Helvetica,sans-Serif" font-size="10.00">mPrivateSegmentBufferSGPR</text>
</g>
<!-- Node3 -->
<g id="node3" class="node">
<title>Node3</title>
<polygon fill="none" stroke="#bfbfbf" points="133.5,-133.5 133.5,-152.5 229.5,-152.5 229.5,-133.5 133.5,-133.5"/>
<text text-anchor="middle" x="181.5" y="-140.5" font-family="Helvetica,sans-Serif" font-size="10.00">vector&lt; uint32_t &gt;</text>
</g>
<!-- Node3&#45;&gt;Node1 -->
<g id="edge2" class="edge">
<title>Node3&#45;&gt;Node1</title>
<path fill="none" stroke="#9a32cd" stroke-dasharray="5,2" d="M180.21,-123.3C178.18,-105.57 172.95,-78.91 159.5,-60 154.46,-52.92 147.65,-46.75 140.53,-41.57"/>
<polygon fill="#9a32cd" stroke="#9a32cd" points="176.72,-123.62 181.12,-133.26 183.7,-122.98 176.72,-123.62"/>
<text text-anchor="middle" x="230" y="-85" font-family="Helvetica,sans-Serif" font-size="10.00"> mDebuggerABIVersion</text>
</g>
</g>
</svg>
