<?xml version="1.0" encoding="UTF-8" standalone="no"?>
<!DOCTYPE svg PUBLIC "-//W3C//DTD SVG 1.1//EN"
 "http://www.w3.org/Graphics/SVG/1.1/DTD/svg11.dtd">
<!-- Generated by graphviz version 2.43.0 (0)
 -->
<!-- Title: llvm::AAReturnedValues Pages: 1 -->
<svg width="305pt" height="253pt"
 viewBox="0.00 0.00 305.00 253.00" xmlns="http://www.w3.org/2000/svg" xmlns:xlink="http://www.w3.org/1999/xlink">
<g id="graph0" class="graph" transform="scale(1 1) rotate(0) translate(4 249)">
<title>llvm::AAReturnedValues</title>
<!-- Node0 -->
<g id="node1" class="node">
<title>Node0</title>
<polygon fill="#bfbfbf" stroke="black" points="56,-0.5 56,-19.5 180,-19.5 180,-0.5 56,-0.5"/>
<text text-anchor="middle" x="118" y="-7.5" font-family="Helvetica,sans-Serif" font-size="10.00">llvm::AAReturnedValues</text>
</g>
<!-- Node1 -->
<g id="node2" class="node">
<title>Node1</title>
<g id="a_node2"><a xlink:href="structllvm_1_1IRAttribute.html" target="_top" xlink:title="llvm::IRAttribute\&lt;\l Attribute::Returned,\l AbstractAttribute \&gt;">
<polygon fill="none" stroke="black" points="65.5,-57.5 65.5,-98.5 170.5,-98.5 170.5,-57.5 65.5,-57.5"/>
<text text-anchor="start" x="73.5" y="-86.5" font-family="Helvetica,sans-Serif" font-size="10.00">llvm::IRAttribute&lt;</text>
<text text-anchor="start" x="73.5" y="-75.5" font-family="Helvetica,sans-Serif" font-size="10.00"> Attribute::Returned,</text>
<text text-anchor="middle" x="118" y="-64.5" font-family="Helvetica,sans-Serif" font-size="10.00"> AbstractAttribute &gt;</text>
</a>
</g>
</g>
<!-- Node1&#45;&gt;Node0 -->
<g id="edge1" class="edge">
<title>Node1&#45;&gt;Node0</title>
<path fill="none" stroke="midnightblue" d="M118,-47.12C118,-37.17 118,-26.84 118,-19.79"/>
<polygon fill="midnightblue" stroke="midnightblue" points="114.5,-47.2 118,-57.2 121.5,-47.2 114.5,-47.2"/>
</g>
<!-- Node2 -->
<g id="node3" class="node">
<title>Node2</title>
<g id="a_node3"><a xlink:href="structllvm_1_1IRPosition.html" target="_top" xlink:title="} ">
<polygon fill="none" stroke="black" points="0,-225.5 0,-244.5 86,-244.5 86,-225.5 0,-225.5"/>
<text text-anchor="middle" x="43" y="-232.5" font-family="Helvetica,sans-Serif" font-size="10.00">llvm::IRPosition</text>
</a>
</g>
</g>
<!-- Node2&#45;&gt;Node1 -->
<g id="edge2" class="edge">
<title>Node2&#45;&gt;Node1</title>
<path fill="none" stroke="midnightblue" d="M45.64,-214.87C48.33,-198.86 53.37,-175.71 62,-157 71.99,-135.35 88.29,-113.55 100.74,-98.52"/>
<polygon fill="midnightblue" stroke="midnightblue" points="42.13,-214.68 44.08,-225.09 49.05,-215.74 42.13,-214.68"/>
</g>
<!-- Node4 -->
<g id="node5" class="node">
<title>Node4</title>
<g id="a_node5"><a xlink:href="structllvm_1_1IRAttribute.html" target="_top" xlink:title="Helper class that provides common functionality to manifest IR attributes. ">
<polygon fill="none" stroke="black" points="71,-157.5 71,-187.5 165,-187.5 165,-157.5 71,-157.5"/>
<text text-anchor="start" x="79" y="-175.5" font-family="Helvetica,sans-Serif" font-size="10.00">llvm::IRAttribute&lt;</text>
<text text-anchor="middle" x="118" y="-164.5" font-family="Helvetica,sans-Serif" font-size="10.00"> AK, Base &gt;</text>
</a>
</g>
</g>
<!-- Node2&#45;&gt;Node4 -->
<g id="edge5" class="edge">
<title>Node2&#45;&gt;Node4</title>
<path fill="none" stroke="midnightblue" d="M61.72,-218.9C73.64,-209.29 88.96,-196.92 100.61,-187.53"/>
<polygon fill="midnightblue" stroke="midnightblue" points="59.33,-216.33 53.75,-225.33 63.73,-221.78 59.33,-216.33"/>
</g>
<!-- Node3 -->
<g id="node4" class="node">
<title>Node3</title>
<g id="a_node4"><a xlink:href="structllvm_1_1AbstractAttribute.html" target="_top" xlink:title="Base struct for all &quot;concrete attribute&quot; deductions. ">
<polygon fill="none" stroke="black" points="183,-163 183,-182 297,-182 297,-163 183,-163"/>
<text text-anchor="middle" x="240" y="-170" font-family="Helvetica,sans-Serif" font-size="10.00">llvm::AbstractAttribute</text>
</a>
</g>
</g>
<!-- Node3&#45;&gt;Node1 -->
<g id="edge3" class="edge">
<title>Node3&#45;&gt;Node1</title>
<path fill="none" stroke="midnightblue" d="M237.25,-152.92C234.63,-141.25 229.59,-126.64 220,-117 206.67,-103.6 188.19,-94.88 170.62,-89.21"/>
<polygon fill="midnightblue" stroke="midnightblue" points="233.84,-153.74 239.09,-162.95 240.72,-152.48 233.84,-153.74"/>
</g>
<!-- Node4&#45;&gt;Node1 -->
<g id="edge4" class="edge">
<title>Node4&#45;&gt;Node1</title>
<path fill="none" stroke="orange" stroke-dasharray="5,2" d="M118,-147.28C118,-132.14 118,-112.88 118,-98.68"/>
<polygon fill="orange" stroke="orange" points="114.5,-147.45 118,-157.45 121.5,-147.45 114.5,-147.45"/>
<text text-anchor="start" x="118" y="-131" font-family="Helvetica,sans-Serif" font-size="10.00"> &lt; Attribute::Returned,</text>
<text text-anchor="middle" x="167" y="-120" font-family="Helvetica,sans-Serif" font-size="10.00"> AbstractAttribute &gt;</text>
</g>
<!-- Node5 -->
<g id="node6" class="node">
<title>Node5</title>
<g id="a_node6"><a xlink:href="classllvm_1_1Base.html" target="_top" xlink:title="Base">
<polygon fill="none" stroke="black" points="104.5,-225.5 104.5,-244.5 143.5,-244.5 143.5,-225.5 104.5,-225.5"/>
<text text-anchor="middle" x="124" y="-232.5" font-family="Helvetica,sans-Serif" font-size="10.00">Base</text>
</a>
</g>
</g>
<!-- Node5&#45;&gt;Node4 -->
<g id="edge6" class="edge">
<title>Node5&#45;&gt;Node4</title>
<path fill="none" stroke="midnightblue" d="M122.14,-215.22C121.26,-206.36 120.23,-195.96 119.41,-187.76"/>
<polygon fill="midnightblue" stroke="midnightblue" points="118.67,-215.73 123.14,-225.33 125.64,-215.04 118.67,-215.73"/>
</g>
</g>
</svg>
