<?xml version="1.0" encoding="UTF-8" standalone="no"?>
<!DOCTYPE svg PUBLIC "-//W3C//DTD SVG 1.1//EN"
 "http://www.w3.org/Graphics/SVG/1.1/DTD/svg11.dtd">
<!-- Generated by graphviz version 2.43.0 (0)
 -->
<!-- Title: llvm::FileInfo::LineData Pages: 1 -->
<svg width="1411pt" height="338pt"
 viewBox="0.00 0.00 1411.00 338.24" xmlns="http://www.w3.org/2000/svg" xmlns:xlink="http://www.w3.org/1999/xlink">
<g id="graph0" class="graph" transform="scale(1 1) rotate(0) translate(4 334.24)">
<title>llvm::FileInfo::LineData</title>
<!-- Node1 -->
<g id="node1" class="node">
<title>Node1</title>
<polygon fill="#bfbfbf" stroke="black" points="1285,-168.1 1285,-187.1 1403,-187.1 1403,-168.1 1285,-168.1"/>
<text text-anchor="middle" x="1344" y="-175.1" font-family="Helvetica,sans-Serif" font-size="10.00">llvm::FileInfo::LineData</text>
</g>
<!-- Node2 -->
<g id="node2" class="node">
<title>Node2</title>
<g id="a_node2"><a xlink:href="classuint32__t.html" target="_top" xlink:title="uint32_t">
<polygon fill="none" stroke="black" points="1116,-212.1 1116,-231.1 1167,-231.1 1167,-212.1 1116,-212.1"/>
<text text-anchor="middle" x="1141.5" y="-219.1" font-family="Helvetica,sans-Serif" font-size="10.00">uint32_t</text>
</a>
</g>
</g>
<!-- Node2&#45;&gt;Node1 -->
<g id="edge1" class="edge">
<title>Node2&#45;&gt;Node1</title>
<path fill="none" stroke="#9a32cd" stroke-dasharray="5,2" d="M1177,-214.03C1210.92,-206.59 1262.82,-195.2 1299.54,-187.14"/>
<polygon fill="#9a32cd" stroke="#9a32cd" points="1176.1,-210.65 1167.09,-216.21 1177.6,-217.48 1176.1,-210.65"/>
<text text-anchor="middle" x="1244" y="-205.6" font-family="Helvetica,sans-Serif" font-size="10.00"> LastLine</text>
</g>
<!-- Node3 -->
<g id="node3" class="node">
<title>Node3</title>
<g id="a_node3"><a xlink:href="classllvm_1_1DenseMap.html" target="_top" xlink:title="llvm::DenseMap\&lt; uint32\l_t, BlockVector \&gt;">
<polygon fill="none" stroke="black" points="1080,-162.6 1080,-192.6 1203,-192.6 1203,-162.6 1080,-162.6"/>
<text text-anchor="start" x="1088" y="-180.6" font-family="Helvetica,sans-Serif" font-size="10.00">llvm::DenseMap&lt; uint32</text>
<text text-anchor="middle" x="1141.5" y="-169.6" font-family="Helvetica,sans-Serif" font-size="10.00">_t, BlockVector &gt;</text>
</a>
</g>
</g>
<!-- Node3&#45;&gt;Node1 -->
<g id="edge2" class="edge">
<title>Node3&#45;&gt;Node1</title>
<path fill="none" stroke="#9a32cd" stroke-dasharray="5,2" d="M1213.42,-177.6C1236.83,-177.6 1262.58,-177.6 1284.91,-177.6"/>
<polygon fill="#9a32cd" stroke="#9a32cd" points="1213.2,-174.1 1203.2,-177.6 1213.2,-181.1 1213.2,-174.1"/>
<text text-anchor="middle" x="1244" y="-180.6" font-family="Helvetica,sans-Serif" font-size="10.00"> Blocks</text>
</g>
<!-- Node4 -->
<g id="node4" class="node">
<title>Node4</title>
<g id="a_node4"><a xlink:href="classllvm_1_1DenseMapBase.html" target="_top" xlink:title="llvm::DenseMapBase\l\&lt; DenseMap\&lt; uint32_t,\l BlockVector, DenseMapInfo\l\&lt; uint32_t \&gt;, llvm::detail\l::DenseMapPair\&lt; uint32_t, BlockVector\l \&gt; \&gt;, uint32_t, BlockVector, DenseMapInfo\l\&lt; uint32_t \&gt;, llvm::detail::DenseMapPair\l\&lt; uint32_t, BlockVector \&gt; \&gt;">
<polygon fill="none" stroke="black" points="520.5,-192.6 520.5,-288.6 724.5,-288.6 724.5,-192.6 520.5,-192.6"/>
<text text-anchor="start" x="528.5" y="-276.6" font-family="Helvetica,sans-Serif" font-size="10.00">llvm::DenseMapBase</text>
<text text-anchor="start" x="528.5" y="-265.6" font-family="Helvetica,sans-Serif" font-size="10.00">&lt; DenseMap&lt; uint32_t,</text>
<text text-anchor="start" x="528.5" y="-254.6" font-family="Helvetica,sans-Serif" font-size="10.00"> BlockVector, DenseMapInfo</text>
<text text-anchor="start" x="528.5" y="-243.6" font-family="Helvetica,sans-Serif" font-size="10.00">&lt; uint32_t &gt;, llvm::detail</text>
<text text-anchor="start" x="528.5" y="-232.6" font-family="Helvetica,sans-Serif" font-size="10.00">::DenseMapPair&lt; uint32_t, BlockVector</text>
<text text-anchor="start" x="528.5" y="-221.6" font-family="Helvetica,sans-Serif" font-size="10.00"> &gt; &gt;, uint32_t, BlockVector, DenseMapInfo</text>
<text text-anchor="start" x="528.5" y="-210.6" font-family="Helvetica,sans-Serif" font-size="10.00">&lt; uint32_t &gt;, llvm::detail::DenseMapPair</text>
<text text-anchor="middle" x="622.5" y="-199.6" font-family="Helvetica,sans-Serif" font-size="10.00">&lt; uint32_t, BlockVector &gt; &gt;</text>
</a>
</g>
</g>
<!-- Node4&#45;&gt;Node3 -->
<g id="edge3" class="edge">
<title>Node4&#45;&gt;Node3</title>
<path fill="none" stroke="midnightblue" d="M734.79,-227.04C840.47,-214.16 995.39,-195.29 1079.94,-184.98"/>
<polygon fill="midnightblue" stroke="midnightblue" points="734.22,-223.59 724.72,-228.27 735.07,-230.53 734.22,-223.59"/>
</g>
<!-- Node5 -->
<g id="node5" class="node">
<title>Node5</title>
<g id="a_node5"><a xlink:href="classllvm_1_1DebugEpochBase.html" target="_top" xlink:title="A base class for data structure classes wishing to make iterators (&quot;handles&quot;) pointing into themselve...">
<polygon fill="none" stroke="black" points="0,-93.1 0,-112.1 119,-112.1 119,-93.1 0,-93.1"/>
<text text-anchor="middle" x="59.5" y="-100.1" font-family="Helvetica,sans-Serif" font-size="10.00">llvm::DebugEpochBase</text>
</a>
</g>
</g>
<!-- Node5&#45;&gt;Node4 -->
<g id="edge4" class="edge">
<title>Node5&#45;&gt;Node4</title>
<path fill="none" stroke="midnightblue" d="M73.81,-120.62C107.24,-164.12 199.87,-274.06 308,-311.6 386.93,-339.01 415.2,-332.88 496,-311.6 514.88,-306.63 533.91,-298.1 551.24,-288.64"/>
<polygon fill="midnightblue" stroke="midnightblue" points="76.41,-118.26 67.59,-112.39 70.83,-122.48 76.41,-118.26"/>
</g>
<!-- Node6 -->
<g id="node6" class="node">
<title>Node6</title>
<g id="a_node6"><a xlink:href="classllvm_1_1DenseMapBase.html" target="_top" xlink:title="llvm::DenseMapBase\l\&lt; DerivedT, KeyT, ValueT,\l KeyInfoT, BucketT \&gt;">
<polygon fill="none" stroke="black" points="156,-141.1 156,-182.1 290,-182.1 290,-141.1 156,-141.1"/>
<text text-anchor="start" x="164" y="-170.1" font-family="Helvetica,sans-Serif" font-size="10.00">llvm::DenseMapBase</text>
<text text-anchor="start" x="164" y="-159.1" font-family="Helvetica,sans-Serif" font-size="10.00">&lt; DerivedT, KeyT, ValueT,</text>
<text text-anchor="middle" x="223" y="-148.1" font-family="Helvetica,sans-Serif" font-size="10.00"> KeyInfoT, BucketT &gt;</text>
</a>
</g>
</g>
<!-- Node5&#45;&gt;Node6 -->
<g id="edge6" class="edge">
<title>Node5&#45;&gt;Node6</title>
<path fill="none" stroke="midnightblue" d="M96.3,-115.68C116.64,-123.11 142.55,-132.58 165.56,-140.99"/>
<polygon fill="midnightblue" stroke="midnightblue" points="97.4,-112.36 86.81,-112.21 95,-118.93 97.4,-112.36"/>
</g>
<!-- Node8 -->
<g id="node8" class="node">
<title>Node8</title>
<g id="a_node8"><a xlink:href="classllvm_1_1DenseMapBase.html" target="_top" xlink:title="llvm::DenseMapBase\l\&lt; DenseMap\&lt; KeyT, ValueT,\l KeyInfoT, BucketT \&gt;, KeyT,\l ValueT, KeyInfoT, BucketT \&gt;">
<polygon fill="none" stroke="black" points="548.5,-121.6 548.5,-173.6 696.5,-173.6 696.5,-121.6 548.5,-121.6"/>
<text text-anchor="start" x="556.5" y="-161.6" font-family="Helvetica,sans-Serif" font-size="10.00">llvm::DenseMapBase</text>
<text text-anchor="start" x="556.5" y="-150.6" font-family="Helvetica,sans-Serif" font-size="10.00">&lt; DenseMap&lt; KeyT, ValueT,</text>
<text text-anchor="start" x="556.5" y="-139.6" font-family="Helvetica,sans-Serif" font-size="10.00"> KeyInfoT, BucketT &gt;, KeyT,</text>
<text text-anchor="middle" x="622.5" y="-128.6" font-family="Helvetica,sans-Serif" font-size="10.00"> ValueT, KeyInfoT, BucketT &gt;</text>
</a>
</g>
</g>
<!-- Node5&#45;&gt;Node8 -->
<g id="edge9" class="edge">
<title>Node5&#45;&gt;Node8</title>
<path fill="none" stroke="midnightblue" d="M99.42,-89.94C194.38,-60.13 434.64,8.47 496,-39.6 522.31,-60.21 491.25,-88.13 514,-112.6 523.29,-122.59 535.45,-129.74 548.25,-134.85"/>
<polygon fill="midnightblue" stroke="midnightblue" points="98.12,-86.68 89.64,-93.04 100.23,-93.36 98.12,-86.68"/>
</g>
<!-- Node10 -->
<g id="node10" class="node">
<title>Node10</title>
<g id="a_node10"><a xlink:href="classllvm_1_1DenseMapBase.html" target="_top" xlink:title="llvm::DenseMapBase\l\&lt; DenseMap\&lt; uint32_t,\l FunctionVector, DenseMapInfo\l\&lt; uint32_t \&gt;, llvm::detail\l::DenseMapPair\&lt; uint32_t, FunctionVector\l \&gt; \&gt;, uint32_t, FunctionVector, DenseMapInfo\l\&lt; uint32_t \&gt;, llvm::detail::DenseMapPair\l\&lt; uint32_t, FunctionVector \&gt; \&gt;">
<polygon fill="none" stroke="black" points="514,-6.6 514,-102.6 731,-102.6 731,-6.6 514,-6.6"/>
<text text-anchor="start" x="522" y="-90.6" font-family="Helvetica,sans-Serif" font-size="10.00">llvm::DenseMapBase</text>
<text text-anchor="start" x="522" y="-79.6" font-family="Helvetica,sans-Serif" font-size="10.00">&lt; DenseMap&lt; uint32_t,</text>
<text text-anchor="start" x="522" y="-68.6" font-family="Helvetica,sans-Serif" font-size="10.00"> FunctionVector, DenseMapInfo</text>
<text text-anchor="start" x="522" y="-57.6" font-family="Helvetica,sans-Serif" font-size="10.00">&lt; uint32_t &gt;, llvm::detail</text>
<text text-anchor="start" x="522" y="-46.6" font-family="Helvetica,sans-Serif" font-size="10.00">::DenseMapPair&lt; uint32_t, FunctionVector</text>
<text text-anchor="start" x="522" y="-35.6" font-family="Helvetica,sans-Serif" font-size="10.00"> &gt; &gt;, uint32_t, FunctionVector, DenseMapInfo</text>
<text text-anchor="start" x="522" y="-24.6" font-family="Helvetica,sans-Serif" font-size="10.00">&lt; uint32_t &gt;, llvm::detail::DenseMapPair</text>
<text text-anchor="middle" x="622.5" y="-13.6" font-family="Helvetica,sans-Serif" font-size="10.00">&lt; uint32_t, FunctionVector &gt; &gt;</text>
</a>
</g>
</g>
<!-- Node5&#45;&gt;Node10 -->
<g id="edge13" class="edge">
<title>Node5&#45;&gt;Node10</title>
<path fill="none" stroke="midnightblue" d="M78.26,-85.89C96.31,-70 125.85,-46.9 156,-35.6 297.67,17.45 346.12,0.91 496,-19.6 501.83,-20.4 507.76,-21.4 513.73,-22.54"/>
<polygon fill="midnightblue" stroke="midnightblue" points="75.43,-83.73 70.37,-93.03 80.13,-88.92 75.43,-83.73"/>
</g>
<!-- Node6&#45;&gt;Node4 -->
<g id="edge5" class="edge">
<title>Node6&#45;&gt;Node4</title>
<path fill="none" stroke="orange" stroke-dasharray="5,2" d="M274.02,-186.38C285.01,-191.04 296.73,-195.43 308,-198.6 377.38,-218.11 458.03,-228.65 520.15,-234.3"/>
<polygon fill="orange" stroke="orange" points="275.15,-183.05 264.59,-182.24 272.34,-189.46 275.15,-183.05"/>
<text text-anchor="start" x="308" y="-299.6" font-family="Helvetica,sans-Serif" font-size="10.00"> &lt; DenseMap&lt; uint32</text>
<text text-anchor="start" x="308" y="-288.6" font-family="Helvetica,sans-Serif" font-size="10.00">_t, BlockVector, DenseMapInfo</text>
<text text-anchor="start" x="308" y="-277.6" font-family="Helvetica,sans-Serif" font-size="10.00">&lt; uint32_t &gt;, llvm::detail</text>
<text text-anchor="start" x="308" y="-266.6" font-family="Helvetica,sans-Serif" font-size="10.00">::DenseMapPair&lt; uint32_t, BlockVector</text>
<text text-anchor="start" x="308" y="-255.6" font-family="Helvetica,sans-Serif" font-size="10.00"> &gt; &gt;, uint32_t, BlockVector, DenseMapInfo</text>
<text text-anchor="start" x="308" y="-244.6" font-family="Helvetica,sans-Serif" font-size="10.00">&lt; uint32_t &gt;, llvm::detail::DenseMapPair</text>
<text text-anchor="middle" x="402" y="-233.6" font-family="Helvetica,sans-Serif" font-size="10.00">&lt; uint32_t, BlockVector &gt; &gt;</text>
</g>
<!-- Node6&#45;&gt;Node8 -->
<g id="edge10" class="edge">
<title>Node6&#45;&gt;Node8</title>
<path fill="none" stroke="orange" stroke-dasharray="5,2" d="M300.56,-162.32C355.08,-162.45 430.09,-161.85 496,-158.6 512.93,-157.77 531.11,-156.43 548.23,-154.97"/>
<polygon fill="orange" stroke="orange" points="300.29,-158.82 290.28,-162.28 300.26,-165.82 300.29,-158.82"/>
<text text-anchor="start" x="336" y="-186.6" font-family="Helvetica,sans-Serif" font-size="10.00"> &lt; DenseMap&lt; KeyT, ValueT,</text>
<text text-anchor="start" x="336" y="-175.6" font-family="Helvetica,sans-Serif" font-size="10.00"> KeyInfoT, BucketT &gt;, KeyT,</text>
<text text-anchor="middle" x="402" y="-164.6" font-family="Helvetica,sans-Serif" font-size="10.00"> ValueT, KeyInfoT, BucketT &gt;</text>
</g>
<!-- Node6&#45;&gt;Node10 -->
<g id="edge14" class="edge">
<title>Node6&#45;&gt;Node10</title>
<path fill="none" stroke="orange" stroke-dasharray="5,2" d="M237.87,-132.09C251.66,-106.58 275.45,-71.4 308,-55.6 371.41,-24.82 450.89,-24.93 513.95,-32.55"/>
<polygon fill="orange" stroke="orange" points="234.74,-130.51 233.24,-141 240.96,-133.73 234.74,-130.51"/>
<text text-anchor="start" x="328.5" y="-146.6" font-family="Helvetica,sans-Serif" font-size="10.00"> &lt; DenseMap&lt; uint32</text>
<text text-anchor="start" x="328.5" y="-135.6" font-family="Helvetica,sans-Serif" font-size="10.00">_t, FunctionVector,</text>
<text text-anchor="start" x="328.5" y="-124.6" font-family="Helvetica,sans-Serif" font-size="10.00"> DenseMapInfo&lt; uint32</text>
<text text-anchor="start" x="328.5" y="-113.6" font-family="Helvetica,sans-Serif" font-size="10.00">_t &gt;, llvm::detail::DenseMap</text>
<text text-anchor="start" x="328.5" y="-102.6" font-family="Helvetica,sans-Serif" font-size="10.00">Pair&lt; uint32_t, FunctionVector</text>
<text text-anchor="start" x="328.5" y="-91.6" font-family="Helvetica,sans-Serif" font-size="10.00"> &gt; &gt;, uint32_t, FunctionVector,</text>
<text text-anchor="start" x="328.5" y="-80.6" font-family="Helvetica,sans-Serif" font-size="10.00"> DenseMapInfo&lt; uint32_t &gt;, llvm</text>
<text text-anchor="start" x="328.5" y="-69.6" font-family="Helvetica,sans-Serif" font-size="10.00">::detail::DenseMapPair&lt; uint32_t,</text>
<text text-anchor="middle" x="402" y="-58.6" font-family="Helvetica,sans-Serif" font-size="10.00"> FunctionVector &gt; &gt;</text>
</g>
<!-- Node7 -->
<g id="node7" class="node">
<title>Node7</title>
<g id="a_node7"><a xlink:href="classllvm_1_1DenseMap.html" target="_top" xlink:title="llvm::DenseMap\&lt; KeyT,\l ValueT, KeyInfoT, BucketT \&gt;">
<polygon fill="none" stroke="black" points="768,-132.6 768,-162.6 916,-162.6 916,-132.6 768,-132.6"/>
<text text-anchor="start" x="776" y="-150.6" font-family="Helvetica,sans-Serif" font-size="10.00">llvm::DenseMap&lt; KeyT,</text>
<text text-anchor="middle" x="842" y="-139.6" font-family="Helvetica,sans-Serif" font-size="10.00"> ValueT, KeyInfoT, BucketT &gt;</text>
</a>
</g>
</g>
<!-- Node7&#45;&gt;Node3 -->
<g id="edge7" class="edge">
<title>Node7&#45;&gt;Node3</title>
<path fill="none" stroke="orange" stroke-dasharray="5,2" d="M926.36,-156.01C975.07,-160.92 1035.44,-167.01 1079.66,-171.47"/>
<polygon fill="orange" stroke="orange" points="926.46,-152.5 916.16,-154.98 925.76,-159.47 926.46,-152.5"/>
<text text-anchor="middle" x="998" y="-171.6" font-family="Helvetica,sans-Serif" font-size="10.00"> &lt; uint32_t, BlockVector &gt;</text>
</g>
<!-- Node9 -->
<g id="node9" class="node">
<title>Node9</title>
<g id="a_node9"><a xlink:href="classllvm_1_1DenseMap.html" target="_top" xlink:title="llvm::DenseMap\&lt; uint32\l_t, FunctionVector \&gt;">
<polygon fill="none" stroke="black" points="1080,-113.6 1080,-143.6 1203,-143.6 1203,-113.6 1080,-113.6"/>
<text text-anchor="start" x="1088" y="-131.6" font-family="Helvetica,sans-Serif" font-size="10.00">llvm::DenseMap&lt; uint32</text>
<text text-anchor="middle" x="1141.5" y="-120.6" font-family="Helvetica,sans-Serif" font-size="10.00">_t, FunctionVector &gt;</text>
</a>
</g>
</g>
<!-- Node7&#45;&gt;Node9 -->
<g id="edge15" class="edge">
<title>Node7&#45;&gt;Node9</title>
<path fill="none" stroke="orange" stroke-dasharray="5,2" d="M926.22,-141.14C928.84,-140.95 931.44,-140.78 934,-140.6 983.09,-137.29 1038.78,-134.09 1079.94,-131.82"/>
<polygon fill="orange" stroke="orange" points="925.73,-137.66 916,-141.87 926.23,-144.65 925.73,-137.66"/>
<text text-anchor="middle" x="998" y="-143.6" font-family="Helvetica,sans-Serif" font-size="10.00"> &lt; uint32_t, FunctionVector &gt;</text>
</g>
<!-- Node8&#45;&gt;Node7 -->
<g id="edge8" class="edge">
<title>Node8&#45;&gt;Node7</title>
<path fill="none" stroke="midnightblue" d="M706.62,-147.6C726.76,-147.6 748.15,-147.6 767.79,-147.6"/>
<polygon fill="midnightblue" stroke="midnightblue" points="706.53,-144.1 696.53,-147.6 706.53,-151.1 706.53,-144.1"/>
</g>
<!-- Node9&#45;&gt;Node1 -->
<g id="edge11" class="edge">
<title>Node9&#45;&gt;Node1</title>
<path fill="none" stroke="#9a32cd" stroke-dasharray="5,2" d="M1212.97,-145.82C1243.53,-153.29 1278.16,-161.76 1304,-168.07"/>
<polygon fill="#9a32cd" stroke="#9a32cd" points="1213.75,-142.41 1203.2,-143.44 1212.08,-149.21 1213.75,-142.41"/>
<text text-anchor="middle" x="1244" y="-161.6" font-family="Helvetica,sans-Serif" font-size="10.00"> Functions</text>
</g>
<!-- Node10&#45;&gt;Node9 -->
<g id="edge12" class="edge">
<title>Node10&#45;&gt;Node9</title>
<path fill="none" stroke="midnightblue" d="M741.3,-71.46C846.66,-86.54 996.86,-108.04 1079.74,-119.91"/>
<polygon fill="midnightblue" stroke="midnightblue" points="741.65,-67.98 731.25,-70.03 740.65,-74.91 741.65,-67.98"/>
</g>
</g>
</svg>
