<?xml version="1.0" encoding="UTF-8" standalone="no"?>
<!DOCTYPE svg PUBLIC "-//W3C//DTD SVG 1.1//EN"
 "http://www.w3.org/Graphics/SVG/1.1/DTD/svg11.dtd">
<!-- Generated by graphviz version 2.43.0 (0)
 -->
<!-- Title: llvm::slpvectorizer::BoUpSLP::EdgeInfo Pages: 1 -->
<svg width="2603pt" height="571pt"
 viewBox="0.00 0.00 2603.00 570.50" xmlns="http://www.w3.org/2000/svg" xmlns:xlink="http://www.w3.org/1999/xlink">
<g id="graph0" class="graph" transform="scale(1 1) rotate(0) translate(4 566.5)">
<title>llvm::slpvectorizer::BoUpSLP::EdgeInfo</title>
<!-- Node1 -->
<g id="node1" class="node">
<title>Node1</title>
<polygon fill="#bfbfbf" stroke="black" points="2484,-444.5 2484,-474.5 2595,-474.5 2595,-444.5 2484,-444.5"/>
<text text-anchor="start" x="2492" y="-462.5" font-family="Helvetica,sans-Serif" font-size="10.00">llvm::slpvectorizer</text>
<text text-anchor="middle" x="2539.5" y="-451.5" font-family="Helvetica,sans-Serif" font-size="10.00">::BoUpSLP::EdgeInfo</text>
</g>
<!-- Node2 -->
<g id="node2" class="node">
<title>Node2</title>
<polygon fill="none" stroke="#bfbfbf" points="2296,-332.5 2296,-362.5 2411,-362.5 2411,-332.5 2296,-332.5"/>
<text text-anchor="start" x="2304" y="-350.5" font-family="Helvetica,sans-Serif" font-size="10.00">llvm::slpvectorizer</text>
<text text-anchor="middle" x="2353.5" y="-339.5" font-family="Helvetica,sans-Serif" font-size="10.00">::BoUpSLP::TreeEntry</text>
</g>
<!-- Node2&#45;&gt;Node1 -->
<g id="edge1" class="edge">
<title>Node2&#45;&gt;Node1</title>
<path fill="none" stroke="#9a32cd" stroke-dasharray="5,2" d="M2388.07,-367.93C2424.37,-390.03 2481.37,-424.73 2513.78,-444.46"/>
<polygon fill="#9a32cd" stroke="#9a32cd" points="2389.68,-364.81 2379.32,-362.6 2386.04,-370.79 2389.68,-364.81"/>
<text text-anchor="middle" x="2447.5" y="-416.5" font-family="Helvetica,sans-Serif" font-size="10.00"> UserTE</text>
</g>
<!-- Node3 -->
<g id="node3" class="node">
<title>Node3</title>
<g id="a_node3"><a xlink:href="classllvm_1_1SmallVector.html" target="_top" xlink:title="llvm::SmallVector\&lt;\l Value *, 8 \&gt;">
<polygon fill="none" stroke="black" points="2047.5,-272.5 2047.5,-302.5 2147.5,-302.5 2147.5,-272.5 2047.5,-272.5"/>
<text text-anchor="start" x="2055.5" y="-290.5" font-family="Helvetica,sans-Serif" font-size="10.00">llvm::SmallVector&lt;</text>
<text text-anchor="middle" x="2097.5" y="-279.5" font-family="Helvetica,sans-Serif" font-size="10.00"> Value *, 8 &gt;</text>
</a>
</g>
</g>
<!-- Node3&#45;&gt;Node2 -->
<g id="edge2" class="edge">
<title>Node3&#45;&gt;Node2</title>
<path fill="none" stroke="#9a32cd" stroke-dasharray="5,2" d="M2157.51,-301.44C2199.18,-311.28 2254.69,-324.4 2295.83,-334.11"/>
<polygon fill="#9a32cd" stroke="#9a32cd" points="2158.31,-298.03 2147.77,-299.14 2156.7,-304.85 2158.31,-298.03"/>
<text text-anchor="middle" x="2231" y="-332.5" font-family="Helvetica,sans-Serif" font-size="10.00"> Scalars</text>
</g>
<!-- Node4 -->
<g id="node4" class="node">
<title>Node4</title>
<g id="a_node4"><a xlink:href="classllvm_1_1SmallVectorImpl.html" target="_top" xlink:title="llvm::SmallVectorImpl\l\&lt; Value * \&gt;">
<polygon fill="none" stroke="black" points="1757.5,-328.5 1757.5,-358.5 1870.5,-358.5 1870.5,-328.5 1757.5,-328.5"/>
<text text-anchor="start" x="1765.5" y="-346.5" font-family="Helvetica,sans-Serif" font-size="10.00">llvm::SmallVectorImpl</text>
<text text-anchor="middle" x="1814" y="-335.5" font-family="Helvetica,sans-Serif" font-size="10.00">&lt; Value * &gt;</text>
</a>
</g>
</g>
<!-- Node4&#45;&gt;Node3 -->
<g id="edge3" class="edge">
<title>Node4&#45;&gt;Node3</title>
<path fill="none" stroke="midnightblue" d="M1880.72,-347.1C1919.59,-347.21 1969.22,-343.79 2011,-329.5 2020.1,-326.39 2020.58,-322.14 2029,-317.5 2038.66,-312.18 2049.45,-307.05 2059.52,-302.58"/>
<polygon fill="midnightblue" stroke="midnightblue" points="1880.61,-343.6 1870.57,-346.99 1880.53,-350.6 1880.61,-343.6"/>
</g>
<!-- Node5 -->
<g id="node5" class="node">
<title>Node5</title>
<g id="a_node5"><a xlink:href="classllvm_1_1SmallVectorTemplateBase.html" target="_top" xlink:title="SmallVectorTemplateBase&lt;TriviallyCopyable = false&gt; &#45; This is where we put method implementations that...">
<polygon fill="none" stroke="black" points="970,-399.5 970,-429.5 1104,-429.5 1104,-399.5 970,-399.5"/>
<text text-anchor="start" x="978" y="-417.5" font-family="Helvetica,sans-Serif" font-size="10.00">llvm::SmallVectorTemplate</text>
<text text-anchor="middle" x="1037" y="-406.5" font-family="Helvetica,sans-Serif" font-size="10.00">Base&lt; Value * &gt;</text>
</a>
</g>
</g>
<!-- Node5&#45;&gt;Node4 -->
<g id="edge4" class="edge">
<title>Node5&#45;&gt;Node4</title>
<path fill="none" stroke="midnightblue" d="M1114.33,-417.18C1283.71,-422.54 1680.16,-431.52 1732,-400.5 1746,-392.12 1737.71,-379.24 1750,-368.5 1754.34,-364.71 1759.33,-361.45 1764.56,-358.66"/>
<polygon fill="midnightblue" stroke="midnightblue" points="1114.35,-413.68 1104.24,-416.86 1114.12,-420.68 1114.35,-413.68"/>
</g>
<!-- Node6 -->
<g id="node6" class="node">
<title>Node6</title>
<g id="a_node6"><a xlink:href="classllvm_1_1SmallVectorTemplateCommon.html" target="_top" xlink:title="llvm::SmallVectorTemplate\lCommon\&lt; T \&gt;">
<polygon fill="none" stroke="black" points="611,-361.5 611,-391.5 745,-391.5 745,-361.5 611,-361.5"/>
<text text-anchor="start" x="619" y="-379.5" font-family="Helvetica,sans-Serif" font-size="10.00">llvm::SmallVectorTemplate</text>
<text text-anchor="middle" x="678" y="-368.5" font-family="Helvetica,sans-Serif" font-size="10.00">Common&lt; T &gt;</text>
</a>
</g>
</g>
<!-- Node6&#45;&gt;Node5 -->
<g id="edge5" class="edge">
<title>Node6&#45;&gt;Node5</title>
<path fill="none" stroke="midnightblue" d="M755.39,-389.49C757.96,-389.84 760.5,-390.18 763,-390.5 833.44,-399.45 914.54,-406.12 969.93,-410.13"/>
<polygon fill="midnightblue" stroke="midnightblue" points="755.81,-386.02 745.42,-388.06 754.82,-392.94 755.81,-386.02"/>
</g>
<!-- Node12 -->
<g id="node12" class="node">
<title>Node12</title>
<g id="a_node12"><a xlink:href="classllvm_1_1SmallVectorTemplateBase.html" target="_top" xlink:title="llvm::SmallVectorTemplate\lBase\&lt; T \&gt;">
<polygon fill="none" stroke="black" points="1138.5,-325.5 1138.5,-355.5 1272.5,-355.5 1272.5,-325.5 1138.5,-325.5"/>
<text text-anchor="start" x="1146.5" y="-343.5" font-family="Helvetica,sans-Serif" font-size="10.00">llvm::SmallVectorTemplate</text>
<text text-anchor="middle" x="1205.5" y="-332.5" font-family="Helvetica,sans-Serif" font-size="10.00">Base&lt; T &gt;</text>
</a>
</g>
</g>
<!-- Node6&#45;&gt;Node12 -->
<g id="edge13" class="edge">
<title>Node6&#45;&gt;Node12</title>
<path fill="none" stroke="midnightblue" d="M755.45,-373.62C840.61,-370.08 982.32,-363.19 1104,-352.5 1115.12,-351.52 1126.9,-350.29 1138.34,-348.99"/>
<polygon fill="midnightblue" stroke="midnightblue" points="755.19,-370.13 745.35,-374.04 755.48,-377.12 755.19,-370.13"/>
</g>
<!-- Node13 -->
<g id="node13" class="node">
<title>Node13</title>
<g id="a_node13"><a xlink:href="classllvm_1_1SmallVectorTemplateBase.html" target="_top" xlink:title="SmallVectorTemplateBase&lt;TriviallyCopyable = false&gt; &#45; This is where we put method implementations that...">
<polygon fill="none" stroke="black" points="813.5,-317.5 813.5,-347.5 947.5,-347.5 947.5,-317.5 813.5,-317.5"/>
<text text-anchor="start" x="821.5" y="-335.5" font-family="Helvetica,sans-Serif" font-size="10.00">llvm::SmallVectorTemplate</text>
<text text-anchor="middle" x="880.5" y="-324.5" font-family="Helvetica,sans-Serif" font-size="10.00">Base&lt; T, bool &gt;</text>
</a>
</g>
</g>
<!-- Node6&#45;&gt;Node13 -->
<g id="edge15" class="edge">
<title>Node6&#45;&gt;Node13</title>
<path fill="none" stroke="midnightblue" d="M755.11,-359.8C774.28,-355.59 794.72,-351.11 813.36,-347.01"/>
<polygon fill="midnightblue" stroke="midnightblue" points="754.22,-356.41 745.21,-361.97 755.72,-363.25 754.22,-356.41"/>
</g>
<!-- Node26 -->
<g id="node26" class="node">
<title>Node26</title>
<g id="a_node26"><a xlink:href="classllvm_1_1SmallVectorTemplateBase.html" target="_top" xlink:title="SmallVectorTemplateBase&lt;TriviallyCopyable = false&gt; &#45; This is where we put method implementations that...">
<polygon fill="none" stroke="black" points="1307,-432 1307,-473 1441,-473 1441,-432 1307,-432"/>
<text text-anchor="start" x="1315" y="-461" font-family="Helvetica,sans-Serif" font-size="10.00">llvm::SmallVectorTemplate</text>
<text text-anchor="start" x="1315" y="-450" font-family="Helvetica,sans-Serif" font-size="10.00">Base&lt; llvm::slpvectorizer</text>
<text text-anchor="middle" x="1374" y="-439" font-family="Helvetica,sans-Serif" font-size="10.00">::BoUpSLP::EdgeInfo &gt;</text>
</a>
</g>
</g>
<!-- Node6&#45;&gt;Node26 -->
<g id="edge34" class="edge">
<title>Node6&#45;&gt;Node26</title>
<path fill="none" stroke="midnightblue" d="M729.22,-394.92C740.27,-398.67 751.97,-402.41 763,-405.5 783.15,-411.15 788.41,-411.8 809,-415.5 880.14,-428.3 898,-432.12 970,-438.5 1088.37,-448.98 1226.96,-451.72 1306.9,-452.37"/>
<polygon fill="midnightblue" stroke="midnightblue" points="730.3,-391.59 719.71,-391.64 728.02,-398.21 730.3,-391.59"/>
</g>
<!-- Node33 -->
<g id="node33" class="node">
<title>Node33</title>
<g id="a_node33"><a xlink:href="classllvm_1_1SmallVectorTemplateBase.html" target="_top" xlink:title="SmallVectorTemplateBase&lt;TriviallyCopyable = false&gt; &#45; This is where we put method implementations that...">
<polygon fill="none" stroke="black" points="970,-273.5 970,-303.5 1104,-303.5 1104,-273.5 970,-273.5"/>
<text text-anchor="start" x="978" y="-291.5" font-family="Helvetica,sans-Serif" font-size="10.00">llvm::SmallVectorTemplate</text>
<text text-anchor="middle" x="1037" y="-280.5" font-family="Helvetica,sans-Serif" font-size="10.00">Base&lt; unsigned &gt;</text>
</a>
</g>
</g>
<!-- Node6&#45;&gt;Node33 -->
<g id="edge48" class="edge">
<title>Node6&#45;&gt;Node33</title>
<path fill="none" stroke="midnightblue" d="M709.78,-355.93C735.23,-340.05 772.92,-319.07 809,-308.5 861.59,-293.1 923.71,-288.51 969.67,-287.54"/>
<polygon fill="midnightblue" stroke="midnightblue" points="707.88,-352.99 701.31,-361.31 711.63,-358.9 707.88,-352.99"/>
</g>
<!-- Node7 -->
<g id="node7" class="node">
<title>Node7</title>
<g id="a_node7"><a xlink:href="classllvm_1_1SmallVectorBase.html" target="_top" xlink:title="This is all the non&#45;templated stuff common to all SmallVectors. ">
<polygon fill="none" stroke="black" points="196,-363 196,-382 312,-382 312,-363 196,-363"/>
<text text-anchor="middle" x="254" y="-370" font-family="Helvetica,sans-Serif" font-size="10.00">llvm::SmallVectorBase</text>
</a>
</g>
</g>
<!-- Node7&#45;&gt;Node6 -->
<g id="edge6" class="edge">
<title>Node7&#45;&gt;Node6</title>
<path fill="none" stroke="midnightblue" d="M322.29,-374.32C390.5,-375.97 499.08,-378.06 593,-377.5 598.83,-377.47 604.9,-377.42 610.97,-377.36"/>
<polygon fill="midnightblue" stroke="midnightblue" points="322.19,-370.81 312.11,-374.07 322.02,-377.81 322.19,-370.81"/>
</g>
<!-- Node10 -->
<g id="node10" class="node">
<title>Node10</title>
<g id="a_node10"><a xlink:href="classllvm_1_1SmallVectorTemplateCommon.html" target="_top" xlink:title="This is the part of SmallVectorTemplateBase which does not depend on whether the type T is a POD...">
<polygon fill="none" stroke="black" points="413,-332.5 413,-362.5 547,-362.5 547,-332.5 413,-332.5"/>
<text text-anchor="start" x="421" y="-350.5" font-family="Helvetica,sans-Serif" font-size="10.00">llvm::SmallVectorTemplate</text>
<text text-anchor="middle" x="480" y="-339.5" font-family="Helvetica,sans-Serif" font-size="10.00">Common&lt; T, typename &gt;</text>
</a>
</g>
</g>
<!-- Node7&#45;&gt;Node10 -->
<g id="edge10" class="edge">
<title>Node7&#45;&gt;Node10</title>
<path fill="none" stroke="midnightblue" d="M322.05,-365.02C350.78,-361.81 384.24,-358.08 412.87,-354.88"/>
<polygon fill="midnightblue" stroke="midnightblue" points="321.65,-361.54 312.1,-366.13 322.43,-368.5 321.65,-361.54"/>
</g>
<!-- Node8 -->
<g id="node8" class="node">
<title>Node8</title>
<g id="a_node8"><a xlink:href="classunsigned.html" target="_top" xlink:title="unsigned">
<polygon fill="none" stroke="black" points="0,-439 0,-458 56,-458 56,-439 0,-439"/>
<text text-anchor="middle" x="28" y="-446" font-family="Helvetica,sans-Serif" font-size="10.00">unsigned</text>
</a>
</g>
</g>
<!-- Node8&#45;&gt;Node1 -->
<g id="edge57" class="edge">
<title>Node8&#45;&gt;Node1</title>
<path fill="none" stroke="#9a32cd" stroke-dasharray="5,2" d="M32.92,-467.81C38.28,-488.81 50.12,-521.5 74,-537.5 140.29,-581.92 173.2,-551.5 253,-551.5 253,-551.5 253,-551.5 2354.5,-551.5 2422.36,-551.5 2490.84,-500.82 2521.65,-474.69"/>
<polygon fill="#9a32cd" stroke="#9a32cd" points="36.32,-467.01 30.67,-458.05 29.5,-468.58 36.32,-467.01"/>
<text text-anchor="middle" x="1205.5" y="-554.5" font-family="Helvetica,sans-Serif" font-size="10.00"> EdgeIdx</text>
</g>
<!-- Node8&#45;&gt;Node7 -->
<g id="edge7" class="edge">
<title>Node8&#45;&gt;Node7</title>
<path fill="none" stroke="#9a32cd" stroke-dasharray="5,2" d="M42.64,-430.76C50.74,-421.49 61.8,-410.78 74,-404.5 84.81,-398.94 147.39,-388.49 195.54,-381.04"/>
<polygon fill="#9a32cd" stroke="#9a32cd" points="39.75,-428.77 36.09,-438.72 45.15,-433.23 39.75,-428.77"/>
<text text-anchor="middle" x="126" y="-418.5" font-family="Helvetica,sans-Serif" font-size="10.00"> Size</text>
<text text-anchor="middle" x="126" y="-407.5" font-family="Helvetica,sans-Serif" font-size="10.00">Capacity</text>
</g>
<!-- Node29 -->
<g id="node29" class="node">
<title>Node29</title>
<g id="a_node29"><a xlink:href="classllvm_1_1Value.html" target="_top" xlink:title="LLVM Value Representation. ">
<polygon fill="none" stroke="black" points="330,-464 330,-483 395,-483 395,-464 330,-464"/>
<text text-anchor="middle" x="362.5" y="-471" font-family="Helvetica,sans-Serif" font-size="10.00">llvm::Value</text>
</a>
</g>
</g>
<!-- Node8&#45;&gt;Node29 -->
<g id="edge43" class="edge">
<title>Node8&#45;&gt;Node29</title>
<path fill="none" stroke="#9a32cd" stroke-dasharray="5,2" d="M66.31,-447.48C96.48,-446.96 140.02,-446.9 178,-449.5 231.53,-453.17 293.31,-462.26 329.79,-468.14"/>
<polygon fill="#9a32cd" stroke="#9a32cd" points="66.16,-443.98 56.23,-447.68 66.29,-450.98 66.16,-443.98"/>
<text text-anchor="middle" x="126" y="-529.5" font-family="Helvetica,sans-Serif" font-size="10.00"> MaximumAlignment</text>
<text text-anchor="middle" x="126" y="-518.5" font-family="Helvetica,sans-Serif" font-size="10.00">HasHungOffUses</text>
<text text-anchor="middle" x="126" y="-507.5" font-family="Helvetica,sans-Serif" font-size="10.00">NumUserOperands</text>
<text text-anchor="middle" x="126" y="-496.5" font-family="Helvetica,sans-Serif" font-size="10.00">SubclassOptionalData</text>
<text text-anchor="middle" x="126" y="-485.5" font-family="Helvetica,sans-Serif" font-size="10.00">HasDescriptor</text>
<text text-anchor="middle" x="126" y="-474.5" font-family="Helvetica,sans-Serif" font-size="10.00">MaxAlignmentExponent</text>
<text text-anchor="middle" x="126" y="-463.5" font-family="Helvetica,sans-Serif" font-size="10.00">HasName</text>
<text text-anchor="middle" x="126" y="-452.5" font-family="Helvetica,sans-Serif" font-size="10.00">IsUsedByMD</text>
</g>
<!-- Node9 -->
<g id="node9" class="node">
<title>Node9</title>
<polygon fill="none" stroke="#bfbfbf" points="7.5,-360 7.5,-379 48.5,-379 48.5,-360 7.5,-360"/>
<text text-anchor="middle" x="28" y="-367" font-family="Helvetica,sans-Serif" font-size="10.00">void *</text>
</g>
<!-- Node9&#45;&gt;Node7 -->
<g id="edge8" class="edge">
<title>Node9&#45;&gt;Node7</title>
<path fill="none" stroke="#9a32cd" stroke-dasharray="5,2" d="M59.01,-369.53C89.1,-369.59 136.77,-369.81 178,-370.5 183.73,-370.6 189.71,-370.72 195.67,-370.85"/>
<polygon fill="#9a32cd" stroke="#9a32cd" points="58.77,-366.03 48.77,-369.51 58.76,-373.03 58.77,-366.03"/>
<text text-anchor="middle" x="126" y="-373.5" font-family="Helvetica,sans-Serif" font-size="10.00"> BeginX</text>
</g>
<!-- Node10&#45;&gt;Node6 -->
<g id="edge9" class="edge">
<title>Node10&#45;&gt;Node6</title>
<path fill="none" stroke="orange" stroke-dasharray="5,2" d="M557.35,-358.8C575.02,-361.41 593.68,-364.17 610.87,-366.72"/>
<polygon fill="orange" stroke="orange" points="557.49,-355.28 547.08,-357.28 556.46,-362.2 557.49,-355.28"/>
<text text-anchor="middle" x="579" y="-366.5" font-family="Helvetica,sans-Serif" font-size="10.00"> &lt; T &gt;</text>
</g>
<!-- Node11 -->
<g id="node11" class="node">
<title>Node11</title>
<g id="a_node11"><a xlink:href="classllvm_1_1SmallVectorImpl.html" target="_top" xlink:title="This class consists of common code factored out of the SmallVector class to reduce code duplication b...">
<polygon fill="none" stroke="black" points="1459,-331 1459,-350 1596,-350 1596,-331 1459,-331"/>
<text text-anchor="middle" x="1527.5" y="-338" font-family="Helvetica,sans-Serif" font-size="10.00">llvm::SmallVectorImpl&lt; T &gt;</text>
</a>
</g>
</g>
<!-- Node11&#45;&gt;Node4 -->
<g id="edge11" class="edge">
<title>Node11&#45;&gt;Node4</title>
<path fill="none" stroke="orange" stroke-dasharray="5,2" d="M1606.58,-341.32C1654.31,-341.83 1714.23,-342.46 1757.2,-342.91"/>
<polygon fill="orange" stroke="orange" points="1606.32,-337.82 1596.28,-341.21 1606.25,-344.82 1606.32,-337.82"/>
<text text-anchor="middle" x="1673" y="-345.5" font-family="Helvetica,sans-Serif" font-size="10.00"> &lt; Value * &gt;</text>
</g>
<!-- Node20 -->
<g id="node20" class="node">
<title>Node20</title>
<g id="a_node20"><a xlink:href="classllvm_1_1SmallVector.html" target="_top" xlink:title="This is a &#39;vector&#39; (really, a variable&#45;sized array), optimized for the case when the array is small...">
<polygon fill="none" stroke="black" points="1764,-167.5 1764,-197.5 1864,-197.5 1864,-167.5 1764,-167.5"/>
<text text-anchor="start" x="1772" y="-185.5" font-family="Helvetica,sans-Serif" font-size="10.00">llvm::SmallVector&lt;</text>
<text text-anchor="middle" x="1814" y="-174.5" font-family="Helvetica,sans-Serif" font-size="10.00"> T, N &gt;</text>
</a>
</g>
</g>
<!-- Node11&#45;&gt;Node20 -->
<g id="edge26" class="edge">
<title>Node11&#45;&gt;Node20</title>
<path fill="none" stroke="midnightblue" d="M1547.68,-323.78C1562.92,-309.49 1583.65,-287.61 1596,-264.5 1610.94,-236.55 1589.57,-215.68 1614,-195.5 1636.02,-177.31 1712.32,-177.17 1763.79,-179.36"/>
<polygon fill="midnightblue" stroke="midnightblue" points="1544.9,-321.58 1539.87,-330.9 1549.62,-326.75 1544.9,-321.58"/>
</g>
<!-- Node25 -->
<g id="node25" class="node">
<title>Node25</title>
<g id="a_node25"><a xlink:href="classllvm_1_1SmallVectorImpl.html" target="_top" xlink:title="llvm::SmallVectorImpl\l\&lt; llvm::slpvectorizer\l::BoUpSLP::EdgeInfo \&gt;">
<polygon fill="none" stroke="black" points="1754,-378 1754,-419 1874,-419 1874,-378 1754,-378"/>
<text text-anchor="start" x="1762" y="-407" font-family="Helvetica,sans-Serif" font-size="10.00">llvm::SmallVectorImpl</text>
<text text-anchor="start" x="1762" y="-396" font-family="Helvetica,sans-Serif" font-size="10.00">&lt; llvm::slpvectorizer</text>
<text text-anchor="middle" x="1814" y="-385" font-family="Helvetica,sans-Serif" font-size="10.00">::BoUpSLP::EdgeInfo &gt;</text>
</a>
</g>
</g>
<!-- Node11&#45;&gt;Node25 -->
<g id="edge35" class="edge">
<title>Node11&#45;&gt;Node25</title>
<path fill="none" stroke="orange" stroke-dasharray="5,2" d="M1585.25,-352.07C1634.14,-362.04 1704.43,-376.37 1753.97,-386.47"/>
<polygon fill="orange" stroke="orange" points="1585.66,-348.58 1575.16,-350.01 1584.26,-355.44 1585.66,-348.58"/>
<text text-anchor="start" x="1621" y="-394.5" font-family="Helvetica,sans-Serif" font-size="10.00"> &lt; llvm::slpvectorizer</text>
<text text-anchor="middle" x="1673" y="-383.5" font-family="Helvetica,sans-Serif" font-size="10.00">::BoUpSLP::EdgeInfo &gt;</text>
</g>
<!-- Node32 -->
<g id="node32" class="node">
<title>Node32</title>
<g id="a_node32"><a xlink:href="classllvm_1_1SmallVectorImpl.html" target="_top" xlink:title="llvm::SmallVectorImpl\l\&lt; unsigned \&gt;">
<polygon fill="none" stroke="black" points="1757.5,-278.5 1757.5,-308.5 1870.5,-308.5 1870.5,-278.5 1757.5,-278.5"/>
<text text-anchor="start" x="1765.5" y="-296.5" font-family="Helvetica,sans-Serif" font-size="10.00">llvm::SmallVectorImpl</text>
<text text-anchor="middle" x="1814" y="-285.5" font-family="Helvetica,sans-Serif" font-size="10.00">&lt; unsigned &gt;</text>
</a>
</g>
</g>
<!-- Node11&#45;&gt;Node32 -->
<g id="edge49" class="edge">
<title>Node11&#45;&gt;Node32</title>
<path fill="none" stroke="orange" stroke-dasharray="5,2" d="M1592.24,-329.21C1599.58,-327.95 1606.95,-326.69 1614,-325.5 1662.31,-317.38 1717.3,-308.57 1757.21,-302.25"/>
<polygon fill="orange" stroke="orange" points="1591.55,-325.78 1582.3,-330.94 1592.75,-332.68 1591.55,-325.78"/>
<text text-anchor="middle" x="1673" y="-328.5" font-family="Helvetica,sans-Serif" font-size="10.00"> &lt; unsigned &gt;</text>
</g>
<!-- Node12&#45;&gt;Node11 -->
<g id="edge12" class="edge">
<title>Node12&#45;&gt;Node11</title>
<path fill="none" stroke="midnightblue" d="M1282.93,-340.5C1336.49,-340.5 1407.41,-340.5 1458.9,-340.5"/>
<polygon fill="midnightblue" stroke="midnightblue" points="1282.8,-337 1272.8,-340.5 1282.8,-344 1282.8,-337"/>
</g>
<!-- Node13&#45;&gt;Node12 -->
<g id="edge14" class="edge">
<title>Node13&#45;&gt;Node12</title>
<path fill="none" stroke="orange" stroke-dasharray="5,2" d="M957.67,-334.39C1012.6,-335.75 1086,-337.56 1138.45,-338.86"/>
<polygon fill="orange" stroke="orange" points="957.73,-330.89 947.64,-334.14 957.55,-337.88 957.73,-330.89"/>
<text text-anchor="middle" x="1037" y="-340.5" font-family="Helvetica,sans-Serif" font-size="10.00"> &lt; T &gt;</text>
</g>
<!-- Node14 -->
<g id="node14" class="node">
<title>Node14</title>
<g id="a_node14"><a xlink:href="structllvm_1_1SmallVectorStorage.html" target="_top" xlink:title="llvm::SmallVectorStorage\l\&lt; Value *, N \&gt;">
<polygon fill="none" stroke="black" points="1750,-116.5 1750,-146.5 1878,-146.5 1878,-116.5 1750,-116.5"/>
<text text-anchor="start" x="1758" y="-134.5" font-family="Helvetica,sans-Serif" font-size="10.00">llvm::SmallVectorStorage</text>
<text text-anchor="middle" x="1814" y="-123.5" font-family="Helvetica,sans-Serif" font-size="10.00">&lt; Value *, N &gt;</text>
</a>
</g>
</g>
<!-- Node14&#45;&gt;Node3 -->
<g id="edge16" class="edge">
<title>Node14&#45;&gt;Node3</title>
<path fill="none" stroke="#8b1a1a" d="M1888.49,-132.07C1936.56,-134.05 1993.57,-139.97 2011,-156.5 2043.45,-187.27 2001.79,-220.01 2029,-255.5 2034.36,-262.5 2041.64,-268.04 2049.44,-272.4"/>
<polygon fill="#8b1a1a" stroke="#8b1a1a" points="1888.5,-128.57 1878.38,-131.7 1888.25,-135.56 1888.5,-128.57"/>
</g>
<!-- Node15 -->
<g id="node15" class="node">
<title>Node15</title>
<g id="a_node15"><a xlink:href="structllvm_1_1AlignedCharArrayUnion.html" target="_top" xlink:title="llvm::AlignedCharArrayUnion\l\&lt; Value *\&gt;">
<polygon fill="none" stroke="black" points="1134,-49.5 1134,-79.5 1277,-79.5 1277,-49.5 1134,-49.5"/>
<text text-anchor="start" x="1142" y="-67.5" font-family="Helvetica,sans-Serif" font-size="10.00">llvm::AlignedCharArrayUnion</text>
<text text-anchor="middle" x="1205.5" y="-56.5" font-family="Helvetica,sans-Serif" font-size="10.00">&lt; Value *&gt;</text>
</a>
</g>
</g>
<!-- Node15&#45;&gt;Node14 -->
<g id="edge17" class="edge">
<title>Node15&#45;&gt;Node14</title>
<path fill="none" stroke="#9a32cd" stroke-dasharray="5,2" d="M1287.38,-50.78C1394.21,-36.44 1585.89,-24.04 1732,-88.5 1742.35,-93.07 1740.55,-100.28 1750,-106.5 1755.7,-110.25 1762.06,-113.58 1768.47,-116.5"/>
<polygon fill="#9a32cd" stroke="#9a32cd" points="1286.73,-47.33 1277.31,-52.17 1287.69,-54.27 1286.73,-47.33"/>
<text text-anchor="middle" x="1527.5" y="-53.5" font-family="Helvetica,sans-Serif" font-size="10.00"> InlineElts</text>
</g>
<!-- Node16 -->
<g id="node16" class="node">
<title>Node16</title>
<g id="a_node16"><a xlink:href="classchar.html" target="_top" xlink:title="char">
<polygon fill="none" stroke="black" points="660.5,-114 660.5,-133 695.5,-133 695.5,-114 660.5,-114"/>
<text text-anchor="middle" x="678" y="-121" font-family="Helvetica,sans-Serif" font-size="10.00">char</text>
</a>
</g>
</g>
<!-- Node16&#45;&gt;Node15 -->
<g id="edge18" class="edge">
<title>Node16&#45;&gt;Node15</title>
<path fill="none" stroke="#9a32cd" stroke-dasharray="5,2" d="M706.05,-123.22C793.54,-122.21 1065.46,-118.4 1104,-109.5 1130.45,-103.39 1158.48,-90.21 1178.2,-79.69"/>
<polygon fill="#9a32cd" stroke="#9a32cd" points="705.83,-119.72 695.87,-123.33 705.91,-126.72 705.83,-119.72"/>
<text text-anchor="middle" x="880.5" y="-125.5" font-family="Helvetica,sans-Serif" font-size="10.00"> buffer</text>
</g>
<!-- Node17 -->
<g id="node17" class="node">
<title>Node17</title>
<g id="a_node17"><a xlink:href="structllvm_1_1AlignedCharArrayUnion.html" target="_top" xlink:title="A suitably aligned and sized character array member which can hold elements of any type...">
<polygon fill="none" stroke="black" points="809,-56.5 809,-86.5 952,-86.5 952,-56.5 809,-56.5"/>
<text text-anchor="start" x="817" y="-74.5" font-family="Helvetica,sans-Serif" font-size="10.00">llvm::AlignedCharArrayUnion</text>
<text text-anchor="middle" x="880.5" y="-63.5" font-family="Helvetica,sans-Serif" font-size="10.00">&lt; T, Ts &gt;</text>
</a>
</g>
</g>
<!-- Node16&#45;&gt;Node17 -->
<g id="edge20" class="edge">
<title>Node16&#45;&gt;Node17</title>
<path fill="none" stroke="#9a32cd" stroke-dasharray="5,2" d="M705.65,-115.11C722.1,-110.05 743.69,-103.61 763,-98.5 778.66,-94.36 795.59,-90.24 811.56,-86.5"/>
<polygon fill="#9a32cd" stroke="#9a32cd" points="704.16,-111.91 695.65,-118.22 706.24,-118.59 704.16,-111.91"/>
<text text-anchor="middle" x="777" y="-101.5" font-family="Helvetica,sans-Serif" font-size="10.00"> buffer</text>
</g>
<!-- Node19 -->
<g id="node19" class="node">
<title>Node19</title>
<g id="a_node19"><a xlink:href="structllvm_1_1AlignedCharArrayUnion.html" target="_top" xlink:title="llvm::AlignedCharArrayUnion\&lt; T \&gt;">
<polygon fill="none" stroke="black" points="1122,-134 1122,-153 1289,-153 1289,-134 1122,-134"/>
<text text-anchor="middle" x="1205.5" y="-141" font-family="Helvetica,sans-Serif" font-size="10.00">llvm::AlignedCharArrayUnion&lt; T &gt;</text>
</a>
</g>
</g>
<!-- Node16&#45;&gt;Node19 -->
<g id="edge23" class="edge">
<title>Node16&#45;&gt;Node19</title>
<path fill="none" stroke="#9a32cd" stroke-dasharray="5,2" d="M705.64,-128.94C722.09,-132.06 743.68,-135.69 763,-137.5 783.36,-139.41 788.55,-138.15 809,-138.5 917.14,-140.36 1041.92,-141.82 1121.93,-142.67"/>
<polygon fill="#9a32cd" stroke="#9a32cd" points="706.13,-125.47 695.64,-127 704.79,-132.34 706.13,-125.47"/>
<text text-anchor="middle" x="880.5" y="-144.5" font-family="Helvetica,sans-Serif" font-size="10.00"> buffer</text>
</g>
<!-- Node28 -->
<g id="node28" class="node">
<title>Node28</title>
<g id="a_node28"><a xlink:href="structllvm_1_1AlignedCharArrayUnion.html" target="_top" xlink:title="llvm::AlignedCharArrayUnion\l\&lt; llvm::slpvectorizer::BoUpSLP\l::EdgeInfo \&gt;">
<polygon fill="none" stroke="black" points="1128,-219 1128,-260 1283,-260 1283,-219 1128,-219"/>
<text text-anchor="start" x="1136" y="-248" font-family="Helvetica,sans-Serif" font-size="10.00">llvm::AlignedCharArrayUnion</text>
<text text-anchor="start" x="1136" y="-237" font-family="Helvetica,sans-Serif" font-size="10.00">&lt; llvm::slpvectorizer::BoUpSLP</text>
<text text-anchor="middle" x="1205.5" y="-226" font-family="Helvetica,sans-Serif" font-size="10.00">::EdgeInfo &gt;</text>
</a>
</g>
</g>
<!-- Node16&#45;&gt;Node28 -->
<g id="edge38" class="edge">
<title>Node16&#45;&gt;Node28</title>
<path fill="none" stroke="#9a32cd" stroke-dasharray="5,2" d="M704.99,-135.55C755.01,-158.09 868.73,-206.2 970,-226.5 1021.97,-236.92 1081.63,-240.11 1127.77,-240.72"/>
<polygon fill="#9a32cd" stroke="#9a32cd" points="706.13,-132.22 695.58,-131.27 703.23,-138.6 706.13,-132.22"/>
<text text-anchor="middle" x="880.5" y="-225.5" font-family="Helvetica,sans-Serif" font-size="10.00"> buffer</text>
</g>
<!-- Node35 -->
<g id="node35" class="node">
<title>Node35</title>
<g id="a_node35"><a xlink:href="structllvm_1_1AlignedCharArrayUnion.html" target="_top" xlink:title="llvm::AlignedCharArrayUnion\l\&lt; unsigned \&gt;">
<polygon fill="none" stroke="black" points="1134,-0.5 1134,-30.5 1277,-30.5 1277,-0.5 1134,-0.5"/>
<text text-anchor="start" x="1142" y="-18.5" font-family="Helvetica,sans-Serif" font-size="10.00">llvm::AlignedCharArrayUnion</text>
<text text-anchor="middle" x="1205.5" y="-7.5" font-family="Helvetica,sans-Serif" font-size="10.00">&lt; unsigned &gt;</text>
</a>
</g>
</g>
<!-- Node16&#45;&gt;Node35 -->
<g id="edge52" class="edge">
<title>Node16&#45;&gt;Node35</title>
<path fill="none" stroke="#9a32cd" stroke-dasharray="5,2" d="M696.51,-107.15C720.03,-86.31 764.1,-51.12 809,-35.5 917.44,2.22 1052.71,-0.76 1133.65,-7.39"/>
<polygon fill="#9a32cd" stroke="#9a32cd" points="694.15,-104.56 689.08,-113.87 698.84,-109.76 694.15,-104.56"/>
<text text-anchor="middle" x="880.5" y="-38.5" font-family="Helvetica,sans-Serif" font-size="10.00"> buffer</text>
</g>
<!-- Node17&#45;&gt;Node15 -->
<g id="edge19" class="edge">
<title>Node17&#45;&gt;Node15</title>
<path fill="none" stroke="orange" stroke-dasharray="5,2" d="M962.69,-64.83C965.16,-64.7 967.6,-64.59 970,-64.5 1025.02,-62.33 1087.36,-62.45 1133.92,-63.05"/>
<polygon fill="orange" stroke="orange" points="962.27,-61.34 952.48,-65.39 962.66,-68.33 962.27,-61.34"/>
<text text-anchor="middle" x="1037" y="-67.5" font-family="Helvetica,sans-Serif" font-size="10.00"> &lt; Value *&gt;</text>
</g>
<!-- Node17&#45;&gt;Node19 -->
<g id="edge24" class="edge">
<title>Node17&#45;&gt;Node19</title>
<path fill="none" stroke="orange" stroke-dasharray="5,2" d="M958.79,-88.73C1022.26,-102.88 1109.83,-122.4 1161.47,-133.91"/>
<polygon fill="orange" stroke="orange" points="959.34,-85.27 948.82,-86.51 957.82,-92.1 959.34,-85.27"/>
<text text-anchor="middle" x="1037" y="-123.5" font-family="Helvetica,sans-Serif" font-size="10.00"> &lt; T &gt;</text>
</g>
<!-- Node17&#45;&gt;Node28 -->
<g id="edge39" class="edge">
<title>Node17&#45;&gt;Node28</title>
<path fill="none" stroke="orange" stroke-dasharray="5,2" d="M938.35,-91.44C943.25,-94.39 947.9,-97.73 952,-101.5 964.59,-113.07 957.5,-123.84 970,-135.5 996.87,-160.56 1086.52,-196.52 1146.86,-218.92"/>
<polygon fill="orange" stroke="orange" points="939.77,-88.23 929.31,-86.55 936.44,-94.39 939.77,-88.23"/>
<text text-anchor="start" x="985" y="-215.5" font-family="Helvetica,sans-Serif" font-size="10.00"> &lt; llvm::slpvectorizer</text>
<text text-anchor="middle" x="1037" y="-204.5" font-family="Helvetica,sans-Serif" font-size="10.00">::BoUpSLP::EdgeInfo &gt;</text>
</g>
<!-- Node17&#45;&gt;Node35 -->
<g id="edge53" class="edge">
<title>Node17&#45;&gt;Node35</title>
<path fill="none" stroke="orange" stroke-dasharray="5,2" d="M945.5,-53.95C953.71,-51.96 962.03,-50.09 970,-48.5 1024.63,-37.59 1087.13,-28.99 1133.86,-23.3"/>
<polygon fill="orange" stroke="orange" points="944.43,-50.6 935.56,-56.4 946.11,-57.4 944.43,-50.6"/>
<text text-anchor="middle" x="1037" y="-51.5" font-family="Helvetica,sans-Serif" font-size="10.00"> &lt; unsigned &gt;</text>
</g>
<!-- Node18 -->
<g id="node18" class="node">
<title>Node18</title>
<g id="a_node18"><a xlink:href="structllvm_1_1SmallVectorStorage.html" target="_top" xlink:title="Storage for the SmallVector elements. ">
<polygon fill="none" stroke="black" points="1463.5,-128.5 1463.5,-158.5 1591.5,-158.5 1591.5,-128.5 1463.5,-128.5"/>
<text text-anchor="start" x="1471.5" y="-146.5" font-family="Helvetica,sans-Serif" font-size="10.00">llvm::SmallVectorStorage</text>
<text text-anchor="middle" x="1527.5" y="-135.5" font-family="Helvetica,sans-Serif" font-size="10.00">&lt; T, N &gt;</text>
</a>
</g>
</g>
<!-- Node18&#45;&gt;Node14 -->
<g id="edge21" class="edge">
<title>Node18&#45;&gt;Node14</title>
<path fill="none" stroke="orange" stroke-dasharray="5,2" d="M1602,-132.51C1606.06,-132.12 1610.07,-131.77 1614,-131.5 1659.32,-128.34 1710.59,-128.42 1749.74,-129.25"/>
<polygon fill="orange" stroke="orange" points="1601.46,-129.05 1591.9,-133.6 1602.21,-136.01 1601.46,-129.05"/>
<text text-anchor="middle" x="1673" y="-134.5" font-family="Helvetica,sans-Serif" font-size="10.00"> &lt; Value *, N &gt;</text>
</g>
<!-- Node18&#45;&gt;Node20 -->
<g id="edge27" class="edge">
<title>Node18&#45;&gt;Node20</title>
<path fill="none" stroke="#8b1a1a" d="M1601.92,-152.97C1640.64,-158.03 1688.91,-164.45 1732,-170.5 1742.28,-171.94 1753.28,-173.54 1763.76,-175.08"/>
<polygon fill="#8b1a1a" stroke="#8b1a1a" points="1602.15,-149.47 1591.78,-151.65 1601.25,-156.41 1602.15,-149.47"/>
</g>
<!-- Node27 -->
<g id="node27" class="node">
<title>Node27</title>
<g id="a_node27"><a xlink:href="structllvm_1_1SmallVectorStorage.html" target="_top" xlink:title="llvm::SmallVectorStorage\l\&lt; llvm::slpvectorizer::\lBoUpSLP::EdgeInfo, N \&gt;">
<polygon fill="none" stroke="black" points="1750,-218 1750,-259 1878,-259 1878,-218 1750,-218"/>
<text text-anchor="start" x="1758" y="-247" font-family="Helvetica,sans-Serif" font-size="10.00">llvm::SmallVectorStorage</text>
<text text-anchor="start" x="1758" y="-236" font-family="Helvetica,sans-Serif" font-size="10.00">&lt; llvm::slpvectorizer::</text>
<text text-anchor="middle" x="1814" y="-225" font-family="Helvetica,sans-Serif" font-size="10.00">BoUpSLP::EdgeInfo, N &gt;</text>
</a>
</g>
</g>
<!-- Node18&#45;&gt;Node27 -->
<g id="edge40" class="edge">
<title>Node18&#45;&gt;Node27</title>
<path fill="none" stroke="orange" stroke-dasharray="5,2" d="M1575.85,-162.42C1588.2,-167.18 1601.55,-172.16 1614,-176.5 1659.11,-192.21 1710.61,-208.21 1749.91,-220.01"/>
<polygon fill="orange" stroke="orange" points="1576.77,-159.02 1566.18,-158.66 1574.24,-165.55 1576.77,-159.02"/>
<text text-anchor="start" x="1614" y="-228.5" font-family="Helvetica,sans-Serif" font-size="10.00"> &lt; llvm::slpvectorizer</text>
<text text-anchor="middle" x="1673" y="-217.5" font-family="Helvetica,sans-Serif" font-size="10.00">::BoUpSLP::EdgeInfo, N &gt;</text>
</g>
<!-- Node34 -->
<g id="node34" class="node">
<title>Node34</title>
<g id="a_node34"><a xlink:href="structllvm_1_1SmallVectorStorage.html" target="_top" xlink:title="llvm::SmallVectorStorage\l\&lt; unsigned, N \&gt;">
<polygon fill="none" stroke="black" points="1750,-67.5 1750,-97.5 1878,-97.5 1878,-67.5 1750,-67.5"/>
<text text-anchor="start" x="1758" y="-85.5" font-family="Helvetica,sans-Serif" font-size="10.00">llvm::SmallVectorStorage</text>
<text text-anchor="middle" x="1814" y="-74.5" font-family="Helvetica,sans-Serif" font-size="10.00">&lt; unsigned, N &gt;</text>
</a>
</g>
</g>
<!-- Node18&#45;&gt;Node34 -->
<g id="edge54" class="edge">
<title>Node18&#45;&gt;Node34</title>
<path fill="none" stroke="orange" stroke-dasharray="5,2" d="M1578.11,-125.11C1589.77,-121.22 1602.23,-117.42 1614,-114.5 1658.83,-103.38 1710.34,-95.22 1749.72,-89.92"/>
<polygon fill="orange" stroke="orange" points="1576.87,-121.83 1568.54,-128.37 1579.13,-128.46 1576.87,-121.83"/>
<text text-anchor="middle" x="1673" y="-117.5" font-family="Helvetica,sans-Serif" font-size="10.00"> &lt; unsigned, N &gt;</text>
</g>
<!-- Node19&#45;&gt;Node18 -->
<g id="edge22" class="edge">
<title>Node19&#45;&gt;Node18</title>
<path fill="none" stroke="#9a32cd" stroke-dasharray="5,2" d="M1299.36,-143.5C1352.08,-143.5 1416.67,-143.5 1463.48,-143.5"/>
<polygon fill="#9a32cd" stroke="#9a32cd" points="1299.32,-140 1289.32,-143.5 1299.32,-147 1299.32,-140"/>
<text text-anchor="middle" x="1374" y="-146.5" font-family="Helvetica,sans-Serif" font-size="10.00"> InlineElts</text>
</g>
<!-- Node20&#45;&gt;Node2 -->
<g id="edge56" class="edge">
<title>Node20&#45;&gt;Node2</title>
<path fill="none" stroke="#9a32cd" stroke-dasharray="5,2" d="M1874.25,-189.93C1944.93,-199.79 2066.07,-219.85 2166,-252.5 2218.17,-269.54 2229.3,-279.2 2278,-304.5 2294.83,-313.24 2313.3,-323.89 2327.63,-332.41"/>
<polygon fill="#9a32cd" stroke="#9a32cd" points="1874.58,-186.44 1864.2,-188.55 1873.63,-193.38 1874.58,-186.44"/>
<text text-anchor="middle" x="2097.5" y="-255.5" font-family="Helvetica,sans-Serif" font-size="10.00"> Container</text>
</g>
<!-- Node20&#45;&gt;Node3 -->
<g id="edge25" class="edge">
<title>Node20&#45;&gt;Node3</title>
<path fill="none" stroke="orange" stroke-dasharray="5,2" d="M1871.95,-203.31C1874.09,-204.92 1876.12,-206.65 1878,-208.5 1892.46,-222.76 1880.13,-237.82 1896,-250.5 1898.98,-252.88 1988.98,-268.85 2047.37,-279.02"/>
<polygon fill="orange" stroke="orange" points="1873.53,-200.16 1863.23,-197.66 1869.72,-206.04 1873.53,-200.16"/>
<text text-anchor="middle" x="1953.5" y="-274.5" font-family="Helvetica,sans-Serif" font-size="10.00"> &lt; Value *, 8 &gt;</text>
</g>
<!-- Node24 -->
<g id="node24" class="node">
<title>Node24</title>
<g id="a_node24"><a xlink:href="classllvm_1_1SmallVector.html" target="_top" xlink:title="llvm::SmallVector\&lt;\l llvm::slpvectorizer\l::BoUpSLP::EdgeInfo, 1 \&gt;">
<polygon fill="none" stroke="black" points="2032,-327 2032,-368 2163,-368 2163,-327 2032,-327"/>
<text text-anchor="start" x="2040" y="-356" font-family="Helvetica,sans-Serif" font-size="10.00">llvm::SmallVector&lt;</text>
<text text-anchor="start" x="2040" y="-345" font-family="Helvetica,sans-Serif" font-size="10.00"> llvm::slpvectorizer</text>
<text text-anchor="middle" x="2097.5" y="-334" font-family="Helvetica,sans-Serif" font-size="10.00">::BoUpSLP::EdgeInfo, 1 &gt;</text>
</a>
</g>
</g>
<!-- Node20&#45;&gt;Node24 -->
<g id="edge41" class="edge">
<title>Node20&#45;&gt;Node24</title>
<path fill="none" stroke="orange" stroke-dasharray="5,2" d="M1872.49,-203.02C1874.47,-204.71 1876.32,-206.53 1878,-208.5 1900.52,-234.92 1870.93,-260.49 1896,-284.5 1933.59,-320.49 1961.57,-290.23 2011,-306.5 2027.26,-311.85 2044.42,-319.62 2059.07,-326.96"/>
<polygon fill="orange" stroke="orange" points="1874.45,-200.12 1864.27,-197.17 1870.38,-205.82 1874.45,-200.12"/>
<text text-anchor="start" x="1896" y="-320.5" font-family="Helvetica,sans-Serif" font-size="10.00"> &lt; llvm::slpvectorizer</text>
<text text-anchor="middle" x="1953.5" y="-309.5" font-family="Helvetica,sans-Serif" font-size="10.00">::BoUpSLP::EdgeInfo, 1 &gt;</text>
</g>
<!-- Node31 -->
<g id="node31" class="node">
<title>Node31</title>
<g id="a_node31"><a xlink:href="classllvm_1_1SmallVector.html" target="_top" xlink:title="llvm::SmallVector\&lt;\l unsigned, 4 \&gt;">
<polygon fill="none" stroke="black" points="2047.5,-135.5 2047.5,-165.5 2147.5,-165.5 2147.5,-135.5 2047.5,-135.5"/>
<text text-anchor="start" x="2055.5" y="-153.5" font-family="Helvetica,sans-Serif" font-size="10.00">llvm::SmallVector&lt;</text>
<text text-anchor="middle" x="2097.5" y="-142.5" font-family="Helvetica,sans-Serif" font-size="10.00"> unsigned, 4 &gt;</text>
</a>
</g>
</g>
<!-- Node20&#45;&gt;Node31 -->
<g id="edge55" class="edge">
<title>Node20&#45;&gt;Node31</title>
<path fill="none" stroke="orange" stroke-dasharray="5,2" d="M1873.99,-175.79C1925.3,-169.96 1998.81,-161.61 2047.08,-156.12"/>
<polygon fill="orange" stroke="orange" points="1873.57,-172.32 1864.03,-176.93 1874.36,-179.27 1873.57,-172.32"/>
<text text-anchor="middle" x="1953.5" y="-175.5" font-family="Helvetica,sans-Serif" font-size="10.00"> &lt; unsigned, 4 &gt;</text>
</g>
<!-- Node21 -->
<g id="node21" class="node">
<title>Node21</title>
<polygon fill="none" stroke="#bfbfbf" points="2066,-387 2066,-406 2129,-406 2129,-387 2066,-387"/>
<text text-anchor="middle" x="2097.5" y="-394" font-family="Helvetica,sans-Serif" font-size="10.00">EntryState</text>
</g>
<!-- Node21&#45;&gt;Node2 -->
<g id="edge28" class="edge">
<title>Node21&#45;&gt;Node2</title>
<path fill="none" stroke="#9a32cd" stroke-dasharray="5,2" d="M2139.23,-388.92C2175.63,-382.12 2230.4,-371.8 2278,-362.5 2283.83,-361.36 2289.91,-360.16 2295.97,-358.95"/>
<polygon fill="#9a32cd" stroke="#9a32cd" points="2138.2,-385.56 2129.01,-390.83 2139.48,-392.44 2138.2,-385.56"/>
<text text-anchor="middle" x="2231" y="-382.5" font-family="Helvetica,sans-Serif" font-size="10.00"> State</text>
</g>
<!-- Node22 -->
<g id="node22" class="node">
<title>Node22</title>
<g id="a_node22"><a xlink:href="classllvm_1_1ArrayRef.html" target="_top" xlink:title="llvm::ArrayRef\&lt; unsigned \&gt;">
<polygon fill="none" stroke="black" points="2029,-428 2029,-447 2166,-447 2166,-428 2029,-428"/>
<text text-anchor="middle" x="2097.5" y="-435" font-family="Helvetica,sans-Serif" font-size="10.00">llvm::ArrayRef&lt; unsigned &gt;</text>
</a>
</g>
</g>
<!-- Node22&#45;&gt;Node2 -->
<g id="edge29" class="edge">
<title>Node22&#45;&gt;Node2</title>
<path fill="none" stroke="#9a32cd" stroke-dasharray="5,2" d="M2170.1,-425.94C2203.68,-419.12 2243.75,-408.94 2278,-394.5 2297.73,-386.18 2318.16,-372.91 2332.63,-362.58"/>
<polygon fill="#9a32cd" stroke="#9a32cd" points="2169.04,-422.58 2159.9,-427.95 2170.39,-429.45 2169.04,-422.58"/>
<text text-anchor="middle" x="2231" y="-424.5" font-family="Helvetica,sans-Serif" font-size="10.00"> ReorderIndices</text>
</g>
<!-- Node23 -->
<g id="node23" class="node">
<title>Node23</title>
<g id="a_node23"><a xlink:href="classllvm_1_1ArrayRef.html" target="_top" xlink:title="ArrayRef &#45; Represent a constant reference to an array (0 or more elements consecutively in memory)...">
<polygon fill="none" stroke="black" points="1762,-438 1762,-457 1866,-457 1866,-438 1762,-438"/>
<text text-anchor="middle" x="1814" y="-445" font-family="Helvetica,sans-Serif" font-size="10.00">llvm::ArrayRef&lt; T &gt;</text>
</a>
</g>
</g>
<!-- Node23&#45;&gt;Node22 -->
<g id="edge30" class="edge">
<title>Node23&#45;&gt;Node22</title>
<path fill="none" stroke="orange" stroke-dasharray="5,2" d="M1876.51,-445.31C1921.49,-443.72 1982.48,-441.55 2028.84,-439.9"/>
<polygon fill="orange" stroke="orange" points="1876.17,-441.82 1866.3,-445.68 1876.42,-448.82 1876.17,-441.82"/>
<text text-anchor="middle" x="1953.5" y="-447.5" font-family="Helvetica,sans-Serif" font-size="10.00"> &lt; unsigned &gt;</text>
</g>
<!-- Node24&#45;&gt;Node2 -->
<g id="edge31" class="edge">
<title>Node24&#45;&gt;Node2</title>
<path fill="none" stroke="#9a32cd" stroke-dasharray="5,2" d="M2173.52,-347.5C2212.6,-347.5 2259.61,-347.5 2295.65,-347.5"/>
<polygon fill="#9a32cd" stroke="#9a32cd" points="2173.25,-344 2163.25,-347.5 2173.25,-351 2173.25,-344"/>
<text text-anchor="middle" x="2231" y="-350.5" font-family="Helvetica,sans-Serif" font-size="10.00"> UserTreeIndices</text>
</g>
<!-- Node25&#45;&gt;Node24 -->
<g id="edge32" class="edge">
<title>Node25&#45;&gt;Node24</title>
<path fill="none" stroke="midnightblue" d="M1884.47,-398C1922.32,-396.44 1969.73,-392.38 2011,-382.5 2025.19,-379.1 2040.1,-373.7 2053.42,-368.14"/>
<polygon fill="midnightblue" stroke="midnightblue" points="1883.93,-394.52 1874.06,-398.38 1884.18,-401.51 1883.93,-394.52"/>
</g>
<!-- Node26&#45;&gt;Node25 -->
<g id="edge33" class="edge">
<title>Node26&#45;&gt;Node25</title>
<path fill="none" stroke="midnightblue" d="M1451.27,-453.67C1524.15,-453.31 1636.71,-448.9 1732,-428.5 1742.7,-426.21 1753.89,-422.78 1764.41,-419.06"/>
<polygon fill="midnightblue" stroke="midnightblue" points="1451.24,-450.17 1441.25,-453.69 1451.26,-457.17 1451.24,-450.17"/>
</g>
<!-- Node27&#45;&gt;Node24 -->
<g id="edge36" class="edge">
<title>Node27&#45;&gt;Node24</title>
<path fill="none" stroke="#8b1a1a" d="M1874.41,-265.61C1875.67,-266.85 1876.87,-268.15 1878,-269.5 1896.67,-291.85 1873.42,-314.11 1896,-332.5 1933.35,-362.92 1988.69,-364.91 2031.78,-360.27"/>
<polygon fill="#8b1a1a" stroke="#8b1a1a" points="1876.5,-262.79 1866.59,-259.03 1871.99,-268.15 1876.5,-262.79"/>
</g>
<!-- Node28&#45;&gt;Node27 -->
<g id="edge37" class="edge">
<title>Node28&#45;&gt;Node27</title>
<path fill="none" stroke="#9a32cd" stroke-dasharray="5,2" d="M1293.18,-239.36C1416.69,-239.15 1640.42,-238.78 1749.61,-238.6"/>
<polygon fill="#9a32cd" stroke="#9a32cd" points="1293,-235.86 1283.01,-239.37 1293.01,-242.86 1293,-235.86"/>
<text text-anchor="middle" x="1527.5" y="-241.5" font-family="Helvetica,sans-Serif" font-size="10.00"> InlineElts</text>
</g>
<!-- Node29&#45;&gt;Node2 -->
<g id="edge42" class="edge">
<title>Node29&#45;&gt;Node2</title>
<path fill="none" stroke="#9a32cd" stroke-dasharray="5,2" d="M405.46,-481.31C448.58,-488.64 517.73,-498.5 578,-498.5 578,-498.5 578,-498.5 2098.5,-498.5 2182.9,-498.5 2208.49,-484.38 2278,-436.5 2307.04,-416.5 2331.19,-382.25 2343.57,-362.58"/>
<polygon fill="#9a32cd" stroke="#9a32cd" points="405.8,-477.81 395.34,-479.55 404.6,-484.71 405.8,-477.81"/>
<text text-anchor="middle" x="1205.5" y="-501.5" font-family="Helvetica,sans-Serif" font-size="10.00"> VectorizedValue</text>
</g>
<!-- Node30 -->
<g id="node30" class="node">
<title>Node30</title>
<polygon fill="none" stroke="#bfbfbf" points="2083,-185 2083,-204 2112,-204 2112,-185 2083,-185"/>
<text text-anchor="middle" x="2097.5" y="-192" font-family="Helvetica,sans-Serif" font-size="10.00">int</text>
</g>
<!-- Node30&#45;&gt;Node2 -->
<g id="edge44" class="edge">
<title>Node30&#45;&gt;Node2</title>
<path fill="none" stroke="#9a32cd" stroke-dasharray="5,2" d="M2122.26,-190.9C2158.96,-186.64 2230.17,-183.7 2278,-215.5 2320.07,-243.47 2340.94,-303.74 2348.75,-332.12"/>
<polygon fill="#9a32cd" stroke="#9a32cd" points="2121.51,-187.47 2112.05,-192.23 2122.41,-194.41 2121.51,-187.47"/>
<text text-anchor="middle" x="2231" y="-218.5" font-family="Helvetica,sans-Serif" font-size="10.00"> Idx</text>
</g>
<!-- Node31&#45;&gt;Node2 -->
<g id="edge45" class="edge">
<title>Node31&#45;&gt;Node2</title>
<path fill="none" stroke="#9a32cd" stroke-dasharray="5,2" d="M2157.97,-143.93C2195.89,-142.92 2244.08,-147.88 2278,-173.5 2330.71,-213.31 2346.57,-297.87 2350.96,-332.37"/>
<polygon fill="#9a32cd" stroke="#9a32cd" points="2157.42,-140.45 2147.57,-144.36 2157.71,-147.45 2157.42,-140.45"/>
<text text-anchor="middle" x="2231" y="-176.5" font-family="Helvetica,sans-Serif" font-size="10.00"> ReuseShuffleIndices</text>
</g>
<!-- Node32&#45;&gt;Node31 -->
<g id="edge46" class="edge">
<title>Node32&#45;&gt;Node31</title>
<path fill="none" stroke="midnightblue" d="M1870.15,-273.62C1872.88,-272.02 1875.52,-270.32 1878,-268.5 1888.2,-261.04 1886.17,-254.44 1896,-246.5 1940.68,-210.4 1961.47,-216.59 2011,-187.5 2019.29,-182.63 2020.43,-179.87 2029,-175.5 2036.01,-171.92 2043.66,-168.6 2051.21,-165.61"/>
<polygon fill="midnightblue" stroke="midnightblue" points="1868.39,-270.6 1861.19,-278.37 1871.67,-276.78 1868.39,-270.6"/>
</g>
<!-- Node33&#45;&gt;Node32 -->
<g id="edge47" class="edge">
<title>Node33&#45;&gt;Node32</title>
<path fill="none" stroke="midnightblue" d="M1114.5,-288.99C1270.3,-290 1621.16,-292.26 1757.42,-293.14"/>
<polygon fill="midnightblue" stroke="midnightblue" points="1114.1,-285.49 1104.08,-288.93 1114.05,-292.49 1114.1,-285.49"/>
</g>
<!-- Node34&#45;&gt;Node31 -->
<g id="edge50" class="edge">
<title>Node34&#45;&gt;Node31</title>
<path fill="none" stroke="#8b1a1a" d="M1888.36,-94.75C1925.4,-101.53 1970.87,-110.75 2011,-121.5 2025.69,-125.43 2041.52,-130.55 2055.52,-135.39"/>
<polygon fill="#8b1a1a" stroke="#8b1a1a" points="1888.62,-91.24 1878.15,-92.9 1887.37,-98.13 1888.62,-91.24"/>
</g>
<!-- Node35&#45;&gt;Node34 -->
<g id="edge51" class="edge">
<title>Node35&#45;&gt;Node34</title>
<path fill="none" stroke="#9a32cd" stroke-dasharray="5,2" d="M1287.2,-10.3C1391.97,-5.91 1579.46,-6.21 1732,-50.5 1747.68,-55.05 1764.55,-61.46 1778.81,-67.35"/>
<polygon fill="#9a32cd" stroke="#9a32cd" points="1286.84,-6.81 1277.01,-10.75 1287.15,-13.8 1286.84,-6.81"/>
<text text-anchor="middle" x="1527.5" y="-25.5" font-family="Helvetica,sans-Serif" font-size="10.00"> InlineElts</text>
</g>
</g>
</svg>
