<?xml version="1.0" encoding="UTF-8" standalone="no"?>
<!DOCTYPE svg PUBLIC "-//W3C//DTD SVG 1.1//EN"
 "http://www.w3.org/Graphics/SVG/1.1/DTD/svg11.dtd">
<!-- Generated by graphviz version 2.43.0 (0)
 -->
<!-- Title: llvm::PointerAlignElem Pages: 1 -->
<svg width="160pt" height="117pt"
 viewBox="0.00 0.00 159.50 117.00" xmlns="http://www.w3.org/2000/svg" xmlns:xlink="http://www.w3.org/1999/xlink">
<g id="graph0" class="graph" transform="scale(1 1) rotate(0) translate(4 113)">
<title>llvm::PointerAlignElem</title>
<!-- Node1 -->
<g id="node1" class="node">
<title>Node1</title>
<polygon fill="#bfbfbf" stroke="black" points="12.5,-0.5 12.5,-19.5 128.5,-19.5 128.5,-0.5 12.5,-0.5"/>
<text text-anchor="middle" x="70.5" y="-7.5" font-family="Helvetica,sans-Serif" font-size="10.00">llvm::PointerAlignElem</text>
</g>
<!-- Node2 -->
<g id="node2" class="node">
<title>Node2</title>
<g id="a_node2"><a xlink:href="classuint32__t.html" target="_top" xlink:title="uint32_t">
<polygon fill="none" stroke="black" points="0,-89.5 0,-108.5 51,-108.5 51,-89.5 0,-89.5"/>
<text text-anchor="middle" x="25.5" y="-96.5" font-family="Helvetica,sans-Serif" font-size="10.00">uint32_t</text>
</a>
</g>
</g>
<!-- Node2&#45;&gt;Node1 -->
<g id="edge1" class="edge">
<title>Node2&#45;&gt;Node1</title>
<path fill="none" stroke="#9a32cd" stroke-dasharray="5,2" d="M21.33,-79C19.64,-66.54 19.46,-50.33 26.5,-38 31.12,-29.9 39.25,-23.93 47.27,-19.69"/>
<polygon fill="#9a32cd" stroke="#9a32cd" points="17.95,-79.95 23.16,-89.17 24.84,-78.71 17.95,-79.95"/>
<text text-anchor="middle" x="60.5" y="-63" font-family="Helvetica,sans-Serif" font-size="10.00"> AddressSpace</text>
<text text-anchor="middle" x="60.5" y="-52" font-family="Helvetica,sans-Serif" font-size="10.00">TypeByteWidth</text>
<text text-anchor="middle" x="60.5" y="-41" font-family="Helvetica,sans-Serif" font-size="10.00">IndexWidth</text>
</g>
<!-- Node3 -->
<g id="node3" class="node">
<title>Node3</title>
<g id="a_node3"><a xlink:href="structllvm_1_1Align.html" target="_top" xlink:title="This struct is a compact representation of a valid (non&#45;zero power of two) alignment. ">
<polygon fill="none" stroke="black" points="85.5,-89.5 85.5,-108.5 147.5,-108.5 147.5,-89.5 85.5,-89.5"/>
<text text-anchor="middle" x="116.5" y="-96.5" font-family="Helvetica,sans-Serif" font-size="10.00">llvm::Align</text>
</a>
</g>
</g>
<!-- Node3&#45;&gt;Node1 -->
<g id="edge2" class="edge">
<title>Node3&#45;&gt;Node1</title>
<path fill="none" stroke="#9a32cd" stroke-dasharray="5,2" d="M111.66,-79.42C107.99,-67.14 102.26,-50.98 94.5,-38 90.51,-31.33 84.75,-24.78 79.88,-19.81"/>
<polygon fill="#9a32cd" stroke="#9a32cd" points="108.38,-80.71 114.44,-89.4 115.13,-78.83 108.38,-80.71"/>
<text text-anchor="middle" x="130" y="-57.5" font-family="Helvetica,sans-Serif" font-size="10.00"> PrefAlign</text>
<text text-anchor="middle" x="130" y="-46.5" font-family="Helvetica,sans-Serif" font-size="10.00">ABIAlign</text>
</g>
</g>
</svg>
