<?xml version="1.0" encoding="UTF-8" standalone="no"?>
<!DOCTYPE svg PUBLIC "-//W3C//DTD SVG 1.1//EN"
 "http://www.w3.org/Graphics/SVG/1.1/DTD/svg11.dtd">
<!-- Generated by graphviz version 2.43.0 (0)
 -->
<!-- Title: llvm::MachO::fvmlib_command Pages: 1 -->
<svg width="203pt" height="197pt"
 viewBox="0.00 0.00 203.00 197.00" xmlns="http://www.w3.org/2000/svg" xmlns:xlink="http://www.w3.org/1999/xlink">
<g id="graph0" class="graph" transform="scale(1 1) rotate(0) translate(4 193)">
<title>llvm::MachO::fvmlib_command</title>
<!-- Node1 -->
<g id="node1" class="node">
<title>Node1</title>
<polygon fill="#bfbfbf" stroke="black" points="0,-0.5 0,-30.5 104,-30.5 104,-0.5 0,-0.5"/>
<text text-anchor="start" x="8" y="-18.5" font-family="Helvetica,sans-Serif" font-size="10.00">llvm::MachO::fvmlib</text>
<text text-anchor="middle" x="52" y="-7.5" font-family="Helvetica,sans-Serif" font-size="10.00">_command</text>
</g>
<!-- Node2 -->
<g id="node2" class="node">
<title>Node2</title>
<g id="a_node2"><a xlink:href="classuint32__t.html" target="_top" xlink:title="uint32_t">
<polygon fill="none" stroke="black" points="26.5,-169.5 26.5,-188.5 77.5,-188.5 77.5,-169.5 26.5,-169.5"/>
<text text-anchor="middle" x="52" y="-176.5" font-family="Helvetica,sans-Serif" font-size="10.00">uint32_t</text>
</a>
</g>
</g>
<!-- Node2&#45;&gt;Node1 -->
<g id="edge1" class="edge">
<title>Node2&#45;&gt;Node1</title>
<path fill="none" stroke="#9a32cd" stroke-dasharray="5,2" d="M49.3,-159.49C46.7,-139.43 43.39,-106.46 45,-78 45.93,-61.69 48.22,-43.07 49.93,-30.63"/>
<polygon fill="#9a32cd" stroke="#9a32cd" points="45.84,-160.01 50.67,-169.44 52.77,-159.06 45.84,-160.01"/>
<text text-anchor="middle" x="63.5" y="-92" font-family="Helvetica,sans-Serif" font-size="10.00"> cmd</text>
<text text-anchor="middle" x="63.5" y="-81" font-family="Helvetica,sans-Serif" font-size="10.00">cmdsize</text>
</g>
<!-- Node3 -->
<g id="node3" class="node">
<title>Node3</title>
<g id="a_node3"><a xlink:href="structllvm_1_1MachO_1_1fvmlib.html" target="_top" xlink:title="llvm::MachO::fvmlib">
<polygon fill="none" stroke="black" points="91,-79.5 91,-98.5 195,-98.5 195,-79.5 91,-79.5"/>
<text text-anchor="middle" x="143" y="-86.5" font-family="Helvetica,sans-Serif" font-size="10.00">llvm::MachO::fvmlib</text>
</a>
</g>
</g>
<!-- Node2&#45;&gt;Node3 -->
<g id="edge3" class="edge">
<title>Node2&#45;&gt;Node3</title>
<path fill="none" stroke="#9a32cd" stroke-dasharray="5,2" d="M68.49,-162.06C87.69,-143.48 118.74,-113.46 133.98,-98.72"/>
<polygon fill="#9a32cd" stroke="#9a32cd" points="65.81,-159.77 61.06,-169.24 70.68,-164.8 65.81,-159.77"/>
<text text-anchor="middle" x="143.5" y="-143" font-family="Helvetica,sans-Serif" font-size="10.00"> header_addr</text>
<text text-anchor="middle" x="143.5" y="-132" font-family="Helvetica,sans-Serif" font-size="10.00">minor_version</text>
<text text-anchor="middle" x="143.5" y="-121" font-family="Helvetica,sans-Serif" font-size="10.00">name</text>
</g>
<!-- Node3&#45;&gt;Node1 -->
<g id="edge2" class="edge">
<title>Node3&#45;&gt;Node1</title>
<path fill="none" stroke="#9a32cd" stroke-dasharray="5,2" d="M123.75,-72.87C107.81,-60.35 85.36,-42.71 69.83,-30.51"/>
<polygon fill="#9a32cd" stroke="#9a32cd" points="121.82,-75.81 131.84,-79.23 126.14,-70.3 121.82,-75.81"/>
<text text-anchor="middle" x="120" y="-52" font-family="Helvetica,sans-Serif" font-size="10.00"> fvmlib</text>
</g>
</g>
</svg>
