<?xml version="1.0" encoding="UTF-8" standalone="no"?>
<!DOCTYPE svg PUBLIC "-//W3C//DTD SVG 1.1//EN"
 "http://www.w3.org/Graphics/SVG/1.1/DTD/svg11.dtd">
<!-- Generated by graphviz version 2.43.0 (0)
 -->
<!-- Title: llvm::CorrelatedValuePropagationPass Pages: 1 -->
<svg width="235pt" height="196pt"
 viewBox="0.00 0.00 234.50 196.00" xmlns="http://www.w3.org/2000/svg" xmlns:xlink="http://www.w3.org/1999/xlink">
<g id="graph0" class="graph" transform="scale(1 1) rotate(0) translate(4 192)">
<title>llvm::CorrelatedValuePropagationPass</title>
<!-- Node0 -->
<g id="node1" class="node">
<title>Node0</title>
<polygon fill="#bfbfbf" stroke="black" points="0,-0.5 0,-19.5 185,-19.5 185,-0.5 0,-0.5"/>
<text text-anchor="middle" x="92.5" y="-7.5" font-family="Helvetica,sans-Serif" font-size="10.00">llvm::CorrelatedValuePropagationPass</text>
</g>
<!-- Node1 -->
<g id="node2" class="node">
<title>Node1</title>
<g id="a_node2"><a xlink:href="structllvm_1_1PassInfoMixin.html" target="_top" xlink:title="llvm::PassInfoMixin\l\&lt; CorrelatedValuePropagation\lPass \&gt;">
<polygon fill="none" stroke="black" points="19,-57.5 19,-98.5 166,-98.5 166,-57.5 19,-57.5"/>
<text text-anchor="start" x="27" y="-86.5" font-family="Helvetica,sans-Serif" font-size="10.00">llvm::PassInfoMixin</text>
<text text-anchor="start" x="27" y="-75.5" font-family="Helvetica,sans-Serif" font-size="10.00">&lt; CorrelatedValuePropagation</text>
<text text-anchor="middle" x="92.5" y="-64.5" font-family="Helvetica,sans-Serif" font-size="10.00">Pass &gt;</text>
</a>
</g>
</g>
<!-- Node1&#45;&gt;Node0 -->
<g id="edge1" class="edge">
<title>Node1&#45;&gt;Node0</title>
<path fill="none" stroke="midnightblue" d="M92.5,-47.12C92.5,-37.17 92.5,-26.84 92.5,-19.79"/>
<polygon fill="midnightblue" stroke="midnightblue" points="89,-47.2 92.5,-57.2 96,-47.2 89,-47.2"/>
</g>
<!-- Node2 -->
<g id="node3" class="node">
<title>Node2</title>
<g id="a_node3"><a xlink:href="structllvm_1_1PassInfoMixin.html" target="_top" xlink:title="A CRTP mix&#45;in to automatically provide informational APIs needed for passes. ">
<polygon fill="none" stroke="black" points="41,-157.5 41,-187.5 144,-187.5 144,-157.5 41,-157.5"/>
<text text-anchor="start" x="49" y="-175.5" font-family="Helvetica,sans-Serif" font-size="10.00">llvm::PassInfoMixin</text>
<text text-anchor="middle" x="92.5" y="-164.5" font-family="Helvetica,sans-Serif" font-size="10.00">&lt; DerivedT &gt;</text>
</a>
</g>
</g>
<!-- Node2&#45;&gt;Node1 -->
<g id="edge2" class="edge">
<title>Node2&#45;&gt;Node1</title>
<path fill="none" stroke="orange" stroke-dasharray="5,2" d="M92.5,-147.28C92.5,-132.14 92.5,-112.88 92.5,-98.68"/>
<polygon fill="orange" stroke="orange" points="89,-147.45 92.5,-157.45 96,-147.45 89,-147.45"/>
<text text-anchor="start" x="92.5" y="-131" font-family="Helvetica,sans-Serif" font-size="10.00"> &lt; CorrelatedValuePropagation</text>
<text text-anchor="middle" x="159.5" y="-120" font-family="Helvetica,sans-Serif" font-size="10.00">Pass &gt;</text>
</g>
</g>
</svg>
