<?xml version="1.0" encoding="UTF-8" standalone="no"?>
<!DOCTYPE svg PUBLIC "-//W3C//DTD SVG 1.1//EN"
 "http://www.w3.org/Graphics/SVG/1.1/DTD/svg11.dtd">
<!-- Generated by graphviz version 2.43.0 (0)
 -->
<!-- Title: llvm::lto::LTO::RegularLTOState::AddedModule Pages: 1 -->
<svg width="306pt" height="106pt"
 viewBox="0.00 0.00 306.00 106.00" xmlns="http://www.w3.org/2000/svg" xmlns:xlink="http://www.w3.org/1999/xlink">
<g id="graph0" class="graph" transform="scale(1 1) rotate(0) translate(4 102)">
<title>llvm::lto::LTO::RegularLTOState::AddedModule</title>
<!-- Node1 -->
<g id="node1" class="node">
<title>Node1</title>
<polygon fill="#bfbfbf" stroke="black" points="72.5,-0.5 72.5,-30.5 230.5,-30.5 230.5,-0.5 72.5,-0.5"/>
<text text-anchor="start" x="80.5" y="-18.5" font-family="Helvetica,sans-Serif" font-size="10.00">llvm::lto::LTO::RegularLTOState</text>
<text text-anchor="middle" x="151.5" y="-7.5" font-family="Helvetica,sans-Serif" font-size="10.00">::AddedModule</text>
</g>
<!-- Node2 -->
<g id="node2" class="node">
<title>Node2</title>
<polygon fill="none" stroke="#bfbfbf" points="0,-78.5 0,-97.5 145,-97.5 145,-78.5 0,-78.5"/>
<text text-anchor="middle" x="72.5" y="-85.5" font-family="Helvetica,sans-Serif" font-size="10.00">vector&lt; llvm::GlobalValue * &gt;</text>
</g>
<!-- Node2&#45;&gt;Node1 -->
<g id="edge1" class="edge">
<title>Node2&#45;&gt;Node1</title>
<path fill="none" stroke="#9a32cd" stroke-dasharray="5,2" d="M89.94,-71.44C103.62,-59.23 122.49,-42.39 135.73,-30.58"/>
<polygon fill="#9a32cd" stroke="#9a32cd" points="87.32,-69.09 82.19,-78.36 91.98,-74.31 87.32,-69.09"/>
<text text-anchor="middle" x="127.5" y="-52" font-family="Helvetica,sans-Serif" font-size="10.00"> Keep</text>
</g>
<!-- Node3 -->
<g id="node3" class="node">
<title>Node3</title>
<polygon fill="none" stroke="#bfbfbf" points="163,-78.5 163,-97.5 298,-97.5 298,-78.5 163,-78.5"/>
<text text-anchor="middle" x="230.5" y="-85.5" font-family="Helvetica,sans-Serif" font-size="10.00">unique_ptr&lt; llvm::Module &gt;</text>
</g>
<!-- Node3&#45;&gt;Node1 -->
<g id="edge2" class="edge">
<title>Node3&#45;&gt;Node1</title>
<path fill="none" stroke="#9a32cd" stroke-dasharray="5,2" d="M213.06,-71.44C199.38,-59.23 180.51,-42.39 167.27,-30.58"/>
<polygon fill="#9a32cd" stroke="#9a32cd" points="211.02,-74.31 220.81,-78.36 215.68,-69.09 211.02,-74.31"/>
<text text-anchor="middle" x="203.5" y="-52" font-family="Helvetica,sans-Serif" font-size="10.00"> M</text>
</g>
</g>
</svg>
