<?xml version="1.0" encoding="UTF-8" standalone="no"?>
<!DOCTYPE svg PUBLIC "-//W3C//DTD SVG 1.1//EN"
 "http://www.w3.org/Graphics/SVG/1.1/DTD/svg11.dtd">
<!-- Generated by graphviz version 2.43.0 (0)
 -->
<!-- Title: llvm::BFIDOTGraphTraitsBase&lt; BlockFrequencyInfoT, BranchProbabilityInfoT &gt; Pages: 1 -->
<svg width="590pt" height="88pt"
 viewBox="0.00 0.00 590.00 88.00" xmlns="http://www.w3.org/2000/svg" xmlns:xlink="http://www.w3.org/1999/xlink">
<g id="graph0" class="graph" transform="scale(1 1) rotate(0) translate(4 84)">
<title>llvm::BFIDOTGraphTraitsBase&lt; BlockFrequencyInfoT, BranchProbabilityInfoT &gt;</title>
<!-- Node0 -->
<g id="node1" class="node">
<title>Node0</title>
<polygon fill="#bfbfbf" stroke="black" points="180,-19 180,-60 381,-60 381,-19 180,-19"/>
<text text-anchor="start" x="188" y="-48" font-family="Helvetica,sans-Serif" font-size="10.00">llvm::BFIDOTGraphTraitsBase</text>
<text text-anchor="start" x="188" y="-37" font-family="Helvetica,sans-Serif" font-size="10.00">&lt; BlockFrequencyInfoT, BranchProbability</text>
<text text-anchor="middle" x="280.5" y="-26" font-family="Helvetica,sans-Serif" font-size="10.00">InfoT &gt;</text>
</g>
<!-- Node2 -->
<g id="node3" class="node">
<title>Node2</title>
<g id="a_node3"><a xlink:href="structllvm_1_1DOTGraphTraits_3_01BlockFrequencyInfo_01_5_01_4.html" target="_top" xlink:title="llvm::DOTGraphTraits\l\&lt; BlockFrequencyInfo * \&gt;">
<polygon fill="none" stroke="black" points="435.5,-49.5 435.5,-79.5 563.5,-79.5 563.5,-49.5 435.5,-49.5"/>
<text text-anchor="start" x="443.5" y="-67.5" font-family="Helvetica,sans-Serif" font-size="10.00">llvm::DOTGraphTraits</text>
<text text-anchor="middle" x="499.5" y="-56.5" font-family="Helvetica,sans-Serif" font-size="10.00">&lt; BlockFrequencyInfo * &gt;</text>
</a>
</g>
</g>
<!-- Node0&#45;&gt;Node2 -->
<g id="edge2" class="edge">
<title>Node0&#45;&gt;Node2</title>
<path fill="none" stroke="midnightblue" d="M391.1,-52.13C406.32,-53.88 421.5,-55.63 435.47,-57.24"/>
<polygon fill="midnightblue" stroke="midnightblue" points="391.44,-48.64 381.11,-50.98 390.64,-55.6 391.44,-48.64"/>
</g>
<!-- Node3 -->
<g id="node4" class="node">
<title>Node3</title>
<g id="a_node4"><a xlink:href="structllvm_1_1DOTGraphTraits_3_01MachineBlockFrequencyInfo_01_5_01_4.html" target="_top" xlink:title="llvm::DOTGraphTraits\l\&lt; MachineBlockFrequencyInfo * \&gt;">
<polygon fill="none" stroke="black" points="417,-0.5 417,-30.5 582,-30.5 582,-0.5 417,-0.5"/>
<text text-anchor="start" x="425" y="-18.5" font-family="Helvetica,sans-Serif" font-size="10.00">llvm::DOTGraphTraits</text>
<text text-anchor="middle" x="499.5" y="-7.5" font-family="Helvetica,sans-Serif" font-size="10.00">&lt; MachineBlockFrequencyInfo * &gt;</text>
</a>
</g>
</g>
<!-- Node0&#45;&gt;Node3 -->
<g id="edge3" class="edge">
<title>Node0&#45;&gt;Node3</title>
<path fill="none" stroke="midnightblue" d="M391.19,-27.37C399.78,-26.42 408.37,-25.47 416.72,-24.54"/>
<polygon fill="midnightblue" stroke="midnightblue" points="390.66,-23.91 381.11,-28.48 391.43,-30.86 390.66,-23.91"/>
</g>
<!-- Node1 -->
<g id="node2" class="node">
<title>Node1</title>
<g id="a_node2"><a xlink:href="structllvm_1_1DefaultDOTGraphTraits.html" target="_top" xlink:title="DefaultDOTGraphTraits &#45; This class provides the default implementations of all of the DOTGraphTraits ...">
<polygon fill="none" stroke="black" points="0,-30 0,-49 144,-49 144,-30 0,-30"/>
<text text-anchor="middle" x="72" y="-37" font-family="Helvetica,sans-Serif" font-size="10.00">llvm::DefaultDOTGraphTraits</text>
</a>
</g>
</g>
<!-- Node1&#45;&gt;Node0 -->
<g id="edge1" class="edge">
<title>Node1&#45;&gt;Node0</title>
<path fill="none" stroke="midnightblue" d="M154.22,-39.5C162.63,-39.5 171.25,-39.5 179.84,-39.5"/>
<polygon fill="midnightblue" stroke="midnightblue" points="154.07,-36 144.07,-39.5 154.07,-43 154.07,-36"/>
</g>
</g>
</svg>
