<?xml version="1.0" encoding="UTF-8" standalone="no"?>
<!DOCTYPE svg PUBLIC "-//W3C//DTD SVG 1.1//EN"
 "http://www.w3.org/Graphics/SVG/1.1/DTD/svg11.dtd">
<!-- Generated by graphviz version 2.43.0 (0)
 -->
<!-- Title: llvm::SIMachineFunctionInfo::SpilledReg Pages: 1 -->
<svg width="149pt" height="106pt"
 viewBox="0.00 0.00 149.00 106.00" xmlns="http://www.w3.org/2000/svg" xmlns:xlink="http://www.w3.org/1999/xlink">
<g id="graph0" class="graph" transform="scale(1 1) rotate(0) translate(4 102)">
<title>llvm::SIMachineFunctionInfo::SpilledReg</title>
<!-- Node1 -->
<g id="node1" class="node">
<title>Node1</title>
<polygon fill="#bfbfbf" stroke="black" points="0,-0.5 0,-30.5 141,-30.5 141,-0.5 0,-0.5"/>
<text text-anchor="start" x="8" y="-18.5" font-family="Helvetica,sans-Serif" font-size="10.00">llvm::SIMachineFunctionInfo</text>
<text text-anchor="middle" x="70.5" y="-7.5" font-family="Helvetica,sans-Serif" font-size="10.00">::SpilledReg</text>
</g>
<!-- Node2 -->
<g id="node2" class="node">
<title>Node2</title>
<polygon fill="none" stroke="#bfbfbf" points="26,-78.5 26,-97.5 55,-97.5 55,-78.5 26,-78.5"/>
<text text-anchor="middle" x="40.5" y="-85.5" font-family="Helvetica,sans-Serif" font-size="10.00">int</text>
</g>
<!-- Node2&#45;&gt;Node1 -->
<g id="edge1" class="edge">
<title>Node2&#45;&gt;Node1</title>
<path fill="none" stroke="#9a32cd" stroke-dasharray="5,2" d="M46.77,-68.81C49.06,-62.48 51.77,-55.37 54.5,-49 57.13,-42.87 60.32,-36.25 63.16,-30.59"/>
<polygon fill="#9a32cd" stroke="#9a32cd" points="43.39,-67.85 43.36,-78.45 49.99,-70.18 43.39,-67.85"/>
<text text-anchor="middle" x="67" y="-52" font-family="Helvetica,sans-Serif" font-size="10.00"> Lane</text>
</g>
<!-- Node3 -->
<g id="node3" class="node">
<title>Node3</title>
<g id="a_node3"><a xlink:href="classunsigned.html" target="_top" xlink:title="unsigned">
<polygon fill="none" stroke="black" points="73.5,-78.5 73.5,-97.5 129.5,-97.5 129.5,-78.5 73.5,-78.5"/>
<text text-anchor="middle" x="101.5" y="-85.5" font-family="Helvetica,sans-Serif" font-size="10.00">unsigned</text>
</a>
</g>
</g>
<!-- Node3&#45;&gt;Node1 -->
<g id="edge2" class="edge">
<title>Node3&#45;&gt;Node1</title>
<path fill="none" stroke="#9a32cd" stroke-dasharray="5,2" d="M93.57,-68.96C88.32,-57.03 81.54,-41.61 76.69,-30.58"/>
<polygon fill="#9a32cd" stroke="#9a32cd" points="90.47,-70.61 97.7,-78.36 96.88,-67.79 90.47,-70.61"/>
<text text-anchor="middle" x="104.5" y="-52" font-family="Helvetica,sans-Serif" font-size="10.00"> VGPR</text>
</g>
</g>
</svg>
