<?xml version="1.0" encoding="UTF-8" standalone="no"?>
<!DOCTYPE svg PUBLIC "-//W3C//DTD SVG 1.1//EN"
 "http://www.w3.org/Graphics/SVG/1.1/DTD/svg11.dtd">
<!-- Generated by graphviz version 2.43.0 (0)
 -->
<!-- Title: llvm::AMDGPU::MIMGInfo Pages: 1 -->
<svg width="176pt" height="117pt"
 viewBox="0.00 0.00 176.00 117.00" xmlns="http://www.w3.org/2000/svg" xmlns:xlink="http://www.w3.org/1999/xlink">
<g id="graph0" class="graph" transform="scale(1 1) rotate(0) translate(4 113)">
<title>llvm::AMDGPU::MIMGInfo</title>
<!-- Node1 -->
<g id="node1" class="node">
<title>Node1</title>
<polygon fill="#bfbfbf" stroke="black" points="0,-0.5 0,-19.5 134,-19.5 134,-0.5 0,-0.5"/>
<text text-anchor="middle" x="67" y="-7.5" font-family="Helvetica,sans-Serif" font-size="10.00">llvm::AMDGPU::MIMGInfo</text>
</g>
<!-- Node2 -->
<g id="node2" class="node">
<title>Node2</title>
<g id="a_node2"><a xlink:href="classuint16__t.html" target="_top" xlink:title="uint16_t">
<polygon fill="none" stroke="black" points="0.5,-89.5 0.5,-108.5 51.5,-108.5 51.5,-89.5 0.5,-89.5"/>
<text text-anchor="middle" x="26" y="-96.5" font-family="Helvetica,sans-Serif" font-size="10.00">uint16_t</text>
</a>
</g>
</g>
<!-- Node2&#45;&gt;Node1 -->
<g id="edge1" class="edge">
<title>Node2&#45;&gt;Node1</title>
<path fill="none" stroke="#9a32cd" stroke-dasharray="5,2" d="M22.01,-79.1C20.39,-66.68 20.23,-50.48 27,-38 31.31,-30.05 39.11,-24 46.68,-19.66"/>
<polygon fill="#9a32cd" stroke="#9a32cd" points="18.61,-79.97 23.76,-89.22 25.51,-78.77 18.61,-79.97"/>
<text text-anchor="middle" x="57" y="-57.5" font-family="Helvetica,sans-Serif" font-size="10.00"> BaseOpcode</text>
<text text-anchor="middle" x="57" y="-46.5" font-family="Helvetica,sans-Serif" font-size="10.00">Opcode</text>
</g>
<!-- Node3 -->
<g id="node3" class="node">
<title>Node3</title>
<polygon fill="none" stroke="#bfbfbf" points="86,-89.5 86,-108.5 132,-108.5 132,-89.5 86,-89.5"/>
<text text-anchor="middle" x="109" y="-96.5" font-family="Helvetica,sans-Serif" font-size="10.00">uint8_t</text>
</g>
<!-- Node3&#45;&gt;Node1 -->
<g id="edge2" class="edge">
<title>Node3&#45;&gt;Node1</title>
<path fill="none" stroke="#9a32cd" stroke-dasharray="5,2" d="M103.64,-79.23C99.82,-67.09 94.1,-51.16 87,-38 83.46,-31.43 78.46,-24.68 74.34,-19.57"/>
<polygon fill="#9a32cd" stroke="#9a32cd" points="100.39,-80.55 106.61,-89.12 107.09,-78.54 100.39,-80.55"/>
<text text-anchor="middle" x="134" y="-63" font-family="Helvetica,sans-Serif" font-size="10.00"> VAddrDwords</text>
<text text-anchor="middle" x="134" y="-52" font-family="Helvetica,sans-Serif" font-size="10.00">VDataDwords</text>
<text text-anchor="middle" x="134" y="-41" font-family="Helvetica,sans-Serif" font-size="10.00">MIMGEncoding</text>
</g>
</g>
</svg>
