<?xml version="1.0" encoding="UTF-8" standalone="no"?>
<!DOCTYPE svg PUBLIC "-//W3C//DTD SVG 1.1//EN"
 "http://www.w3.org/Graphics/SVG/1.1/DTD/svg11.dtd">
<!-- Generated by graphviz version 2.43.0 (0)
 -->
<!-- Title: llvm::MDNodeKeyImpl&lt; DIMacro &gt; Pages: 1 -->
<svg width="176pt" height="295pt"
 viewBox="0.00 0.00 176.00 295.00" xmlns="http://www.w3.org/2000/svg" xmlns:xlink="http://www.w3.org/1999/xlink">
<g id="graph0" class="graph" transform="scale(1 1) rotate(0) translate(4 291)">
<title>llvm::MDNodeKeyImpl&lt; DIMacro &gt;</title>
<!-- Node1 -->
<g id="node1" class="node">
<title>Node1</title>
<polygon fill="#bfbfbf" stroke="black" points="0,-0.5 0,-30.5 116,-30.5 116,-0.5 0,-0.5"/>
<text text-anchor="start" x="8" y="-18.5" font-family="Helvetica,sans-Serif" font-size="10.00">llvm::MDNodeKeyImpl</text>
<text text-anchor="middle" x="58" y="-7.5" font-family="Helvetica,sans-Serif" font-size="10.00">&lt; DIMacro &gt;</text>
</g>
<!-- Node2 -->
<g id="node2" class="node">
<title>Node2</title>
<g id="a_node2"><a xlink:href="classunsigned.html" target="_top" xlink:title="unsigned">
<polygon fill="none" stroke="black" points="30,-267.5 30,-286.5 86,-286.5 86,-267.5 30,-267.5"/>
<text text-anchor="middle" x="58" y="-274.5" font-family="Helvetica,sans-Serif" font-size="10.00">unsigned</text>
</a>
</g>
</g>
<!-- Node2&#45;&gt;Node1 -->
<g id="edge1" class="edge">
<title>Node2&#45;&gt;Node1</title>
<path fill="none" stroke="#9a32cd" stroke-dasharray="5,2" d="M58,-257.13C58,-207.5 58,-74.11 58,-30.5"/>
<polygon fill="#9a32cd" stroke="#9a32cd" points="54.5,-257.37 58,-267.37 61.5,-257.37 54.5,-257.37"/>
<text text-anchor="middle" x="75" y="-141" font-family="Helvetica,sans-Serif" font-size="10.00"> Line</text>
<text text-anchor="middle" x="75" y="-130" font-family="Helvetica,sans-Serif" font-size="10.00">MIType</text>
</g>
<!-- Node4 -->
<g id="node4" class="node">
<title>Node4</title>
<g id="a_node4"><a xlink:href="classllvm_1_1Metadata.html" target="_top" xlink:title="Root of the metadata hierarchy. ">
<polygon fill="none" stroke="black" points="70.5,-167.5 70.5,-186.5 151.5,-186.5 151.5,-167.5 70.5,-167.5"/>
<text text-anchor="middle" x="111" y="-174.5" font-family="Helvetica,sans-Serif" font-size="10.00">llvm::Metadata</text>
</a>
</g>
</g>
<!-- Node2&#45;&gt;Node4 -->
<g id="edge4" class="edge">
<title>Node2&#45;&gt;Node4</title>
<path fill="none" stroke="#9a32cd" stroke-dasharray="5,2" d="M67.53,-258.38C78.98,-237.2 97.75,-202.51 106.38,-186.54"/>
<polygon fill="#9a32cd" stroke="#9a32cd" points="64.38,-256.84 62.7,-267.3 70.54,-260.17 64.38,-256.84"/>
<text text-anchor="middle" x="131.5" y="-241" font-family="Helvetica,sans-Serif" font-size="10.00"> ImplicitCode</text>
<text text-anchor="middle" x="131.5" y="-230" font-family="Helvetica,sans-Serif" font-size="10.00">Storage</text>
<text text-anchor="middle" x="131.5" y="-219" font-family="Helvetica,sans-Serif" font-size="10.00">SubclassData32</text>
<text text-anchor="middle" x="131.5" y="-208" font-family="Helvetica,sans-Serif" font-size="10.00">SubclassData16</text>
</g>
<!-- Node3 -->
<g id="node3" class="node">
<title>Node3</title>
<g id="a_node3"><a xlink:href="classllvm_1_1MDString.html" target="_top" xlink:title="A single uniqued string. ">
<polygon fill="none" stroke="black" points="70,-89.5 70,-108.5 152,-108.5 152,-89.5 70,-89.5"/>
<text text-anchor="middle" x="111" y="-96.5" font-family="Helvetica,sans-Serif" font-size="10.00">llvm::MDString</text>
</a>
</g>
</g>
<!-- Node3&#45;&gt;Node1 -->
<g id="edge2" class="edge">
<title>Node3&#45;&gt;Node1</title>
<path fill="none" stroke="#9a32cd" stroke-dasharray="5,2" d="M99.63,-80.52C89.94,-65.61 76.17,-44.45 67.17,-30.6"/>
<polygon fill="#9a32cd" stroke="#9a32cd" points="96.94,-82.8 105.33,-89.28 102.81,-78.99 96.94,-82.8"/>
<text text-anchor="middle" x="107" y="-63" font-family="Helvetica,sans-Serif" font-size="10.00"> Name</text>
<text text-anchor="middle" x="107" y="-52" font-family="Helvetica,sans-Serif" font-size="10.00">Value</text>
</g>
<!-- Node4&#45;&gt;Node3 -->
<g id="edge3" class="edge">
<title>Node4&#45;&gt;Node3</title>
<path fill="none" stroke="midnightblue" d="M111,-157.22C111,-141.7 111,-120.36 111,-108.62"/>
<polygon fill="midnightblue" stroke="midnightblue" points="107.5,-157.28 111,-167.28 114.5,-157.28 107.5,-157.28"/>
</g>
</g>
</svg>
