<?xml version="1.0" encoding="UTF-8" standalone="no"?>
<!DOCTYPE svg PUBLIC "-//W3C//DTD SVG 1.1//EN"
 "http://www.w3.org/Graphics/SVG/1.1/DTD/svg11.dtd">
<!-- Generated by graphviz version 2.43.0 (0)
 -->
<!-- Title: llvm::PatternMatch::CmpClass_match&lt; LHS_t, RHS_t, Class, PredicateTy, Commutable &gt; Pages: 1 -->
<svg width="215pt" height="128pt"
 viewBox="0.00 0.00 214.50 128.00" xmlns="http://www.w3.org/2000/svg" xmlns:xlink="http://www.w3.org/1999/xlink">
<g id="graph0" class="graph" transform="scale(1 1) rotate(0) translate(4 124)">
<title>llvm::PatternMatch::CmpClass_match&lt; LHS_t, RHS_t, Class, PredicateTy, Commutable &gt;</title>
<!-- Node1 -->
<g id="node1" class="node">
<title>Node1</title>
<polygon fill="#bfbfbf" stroke="black" points="25,-0.5 25,-52.5 179,-52.5 179,-0.5 25,-0.5"/>
<text text-anchor="start" x="33" y="-40.5" font-family="Helvetica,sans-Serif" font-size="10.00">llvm::PatternMatch</text>
<text text-anchor="start" x="33" y="-29.5" font-family="Helvetica,sans-Serif" font-size="10.00">::CmpClass_match&lt; LHS</text>
<text text-anchor="start" x="33" y="-18.5" font-family="Helvetica,sans-Serif" font-size="10.00">_t, RHS_t, Class, PredicateTy,</text>
<text text-anchor="middle" x="102" y="-7.5" font-family="Helvetica,sans-Serif" font-size="10.00"> Commutable &gt;</text>
</g>
<!-- Node2 -->
<g id="node2" class="node">
<title>Node2</title>
<polygon fill="none" stroke="#bfbfbf" points="0,-100.5 0,-119.5 44,-119.5 44,-100.5 0,-100.5"/>
<text text-anchor="middle" x="22" y="-107.5" font-family="Helvetica,sans-Serif" font-size="10.00">LHS_t</text>
</g>
<!-- Node2&#45;&gt;Node1 -->
<g id="edge1" class="edge">
<title>Node2&#45;&gt;Node1</title>
<path fill="none" stroke="#9a32cd" stroke-dasharray="5,2" d="M37.6,-93.1C48.85,-81.64 64.27,-65.94 77.2,-52.76"/>
<polygon fill="#9a32cd" stroke="#9a32cd" points="35.07,-90.69 30.56,-100.28 40.06,-95.59 35.07,-90.69"/>
<text text-anchor="middle" x="62.5" y="-74" font-family="Helvetica,sans-Serif" font-size="10.00"> L</text>
</g>
<!-- Node3 -->
<g id="node3" class="node">
<title>Node3</title>
<polygon fill="none" stroke="#bfbfbf" points="62.5,-100.5 62.5,-119.5 141.5,-119.5 141.5,-100.5 62.5,-100.5"/>
<text text-anchor="middle" x="102" y="-107.5" font-family="Helvetica,sans-Serif" font-size="10.00">PredicateTy &amp;</text>
</g>
<!-- Node3&#45;&gt;Node1 -->
<g id="edge2" class="edge">
<title>Node3&#45;&gt;Node1</title>
<path fill="none" stroke="#9a32cd" stroke-dasharray="5,2" d="M102,-90.04C102,-78.94 102,-64.8 102,-52.76"/>
<polygon fill="#9a32cd" stroke="#9a32cd" points="98.5,-90.28 102,-100.28 105.5,-90.28 98.5,-90.28"/>
<text text-anchor="middle" x="124.5" y="-74" font-family="Helvetica,sans-Serif" font-size="10.00"> Predicate</text>
</g>
<!-- Node4 -->
<g id="node4" class="node">
<title>Node4</title>
<polygon fill="none" stroke="#bfbfbf" points="159.5,-100.5 159.5,-119.5 206.5,-119.5 206.5,-100.5 159.5,-100.5"/>
<text text-anchor="middle" x="183" y="-107.5" font-family="Helvetica,sans-Serif" font-size="10.00">RHS_t</text>
</g>
<!-- Node4&#45;&gt;Node1 -->
<g id="edge3" class="edge">
<title>Node4&#45;&gt;Node1</title>
<path fill="none" stroke="#9a32cd" stroke-dasharray="5,2" d="M169.84,-92.33C164.25,-85.52 157.52,-77.69 151,-71 144.97,-64.81 138.2,-58.46 131.66,-52.59"/>
<polygon fill="#9a32cd" stroke="#9a32cd" points="167.22,-94.65 176.22,-100.24 172.67,-90.26 167.22,-94.65"/>
<text text-anchor="middle" x="165.5" y="-74" font-family="Helvetica,sans-Serif" font-size="10.00"> R</text>
</g>
</g>
</svg>
