<?xml version="1.0" encoding="UTF-8" standalone="no"?>
<!DOCTYPE svg PUBLIC "-//W3C//DTD SVG 1.1//EN"
 "http://www.w3.org/Graphics/SVG/1.1/DTD/svg11.dtd">
<!-- Generated by graphviz version 2.43.0 (0)
 -->
<!-- Title: llvm::MachinePointerInfo Pages: 1 -->
<svg width="1155pt" height="227pt"
 viewBox="0.00 0.00 1155.00 227.00" xmlns="http://www.w3.org/2000/svg" xmlns:xlink="http://www.w3.org/1999/xlink">
<g id="graph0" class="graph" transform="scale(1 1) rotate(0) translate(4 223)">
<title>llvm::MachinePointerInfo</title>
<!-- Node1 -->
<g id="node1" class="node">
<title>Node1</title>
<polygon fill="#bfbfbf" stroke="black" points="1022,-57.5 1022,-76.5 1147,-76.5 1147,-57.5 1022,-57.5"/>
<text text-anchor="middle" x="1084.5" y="-64.5" font-family="Helvetica,sans-Serif" font-size="10.00">llvm::MachinePointerInfo</text>
</g>
<!-- Node2 -->
<g id="node2" class="node">
<title>Node2</title>
<g id="a_node2"><a xlink:href="classllvm_1_1PointerUnion.html" target="_top" xlink:title="llvm::PointerUnion\l\&lt; const llvm::Value\l *, const llvm::PseudoSource\lValue *\&gt;">
<polygon fill="none" stroke="black" points="790,-115 790,-167 934,-167 934,-115 790,-115"/>
<text text-anchor="start" x="798" y="-155" font-family="Helvetica,sans-Serif" font-size="10.00">llvm::PointerUnion</text>
<text text-anchor="start" x="798" y="-144" font-family="Helvetica,sans-Serif" font-size="10.00">&lt; const llvm::Value</text>
<text text-anchor="start" x="798" y="-133" font-family="Helvetica,sans-Serif" font-size="10.00"> *, const llvm::PseudoSource</text>
<text text-anchor="middle" x="862" y="-122" font-family="Helvetica,sans-Serif" font-size="10.00">Value *&gt;</text>
</a>
</g>
</g>
<!-- Node2&#45;&gt;Node1 -->
<g id="edge1" class="edge">
<title>Node2&#45;&gt;Node1</title>
<path fill="none" stroke="#9a32cd" stroke-dasharray="5,2" d="M943.61,-114.22C963.37,-107.63 984.45,-100.58 1004,-94 1021.13,-88.24 1040.32,-81.72 1055.55,-76.54"/>
<polygon fill="#9a32cd" stroke="#9a32cd" points="942.41,-110.93 934.03,-117.41 944.63,-117.57 942.41,-110.93"/>
<text text-anchor="middle" x="978" y="-114" font-family="Helvetica,sans-Serif" font-size="10.00"> V</text>
</g>
<!-- Node3 -->
<g id="node3" class="node">
<title>Node3</title>
<g id="a_node3"><a xlink:href="classllvm_1_1pointer__union__detail_1_1PointerUnionMembers.html" target="_top" xlink:title="llvm::pointer_union\l_detail::PointerUnionMembers\l\&lt; PointerUnion\&lt; PTs... \&gt;,\l PointerIntPair\&lt; void *, pointer\l_union_detail::bitsRequired(sizeof...\l(PTs)), int, pointer_union_detail::\lPointerUnionUIntTraits\&lt; PTs... \&gt; \&gt;,\l 0, PTs... \&gt;">
<polygon fill="none" stroke="black" points="319,-94 319,-190 492,-190 492,-94 319,-94"/>
<text text-anchor="start" x="327" y="-178" font-family="Helvetica,sans-Serif" font-size="10.00">llvm::pointer_union</text>
<text text-anchor="start" x="327" y="-167" font-family="Helvetica,sans-Serif" font-size="10.00">_detail::PointerUnionMembers</text>
<text text-anchor="start" x="327" y="-156" font-family="Helvetica,sans-Serif" font-size="10.00">&lt; PointerUnion&lt; PTs... &gt;,</text>
<text text-anchor="start" x="327" y="-145" font-family="Helvetica,sans-Serif" font-size="10.00"> PointerIntPair&lt; void *, pointer</text>
<text text-anchor="start" x="327" y="-134" font-family="Helvetica,sans-Serif" font-size="10.00">_union_detail::bitsRequired(sizeof...</text>
<text text-anchor="start" x="327" y="-123" font-family="Helvetica,sans-Serif" font-size="10.00">(PTs)), int, pointer_union_detail::</text>
<text text-anchor="start" x="327" y="-112" font-family="Helvetica,sans-Serif" font-size="10.00">PointerUnionUIntTraits&lt; PTs... &gt; &gt;,</text>
<text text-anchor="middle" x="405.5" y="-101" font-family="Helvetica,sans-Serif" font-size="10.00"> 0, PTs... &gt;</text>
</a>
</g>
</g>
<!-- Node3&#45;&gt;Node2 -->
<g id="edge2" class="edge">
<title>Node3&#45;&gt;Node2</title>
<path fill="none" stroke="midnightblue" d="M502.43,-148.58C576.19,-152.61 680.6,-156.12 772,-151 777.74,-150.68 783.69,-150.24 789.65,-149.73"/>
<polygon fill="midnightblue" stroke="midnightblue" points="502.41,-145.07 492.23,-148 502.02,-152.06 502.41,-145.07"/>
</g>
<!-- Node5 -->
<g id="node5" class="node">
<title>Node5</title>
<g id="a_node5"><a xlink:href="classllvm_1_1PointerUnion.html" target="_top" xlink:title="A discriminated union of two or more pointer types, with the discriminator in the low bit of the poin...">
<polygon fill="none" stroke="black" points="529,-104 529,-134 626,-134 626,-104 529,-104"/>
<text text-anchor="start" x="537" y="-122" font-family="Helvetica,sans-Serif" font-size="10.00">llvm::PointerUnion</text>
<text text-anchor="middle" x="577.5" y="-111" font-family="Helvetica,sans-Serif" font-size="10.00">&lt; PTs &gt;</text>
</a>
</g>
</g>
<!-- Node3&#45;&gt;Node5 -->
<g id="edge5" class="edge">
<title>Node3&#45;&gt;Node5</title>
<path fill="none" stroke="midnightblue" d="M502.44,-129.02C511.57,-127.78 520.52,-126.57 528.88,-125.44"/>
<polygon fill="midnightblue" stroke="midnightblue" points="501.94,-125.56 492.5,-130.37 502.88,-132.49 501.94,-125.56"/>
</g>
<!-- Node4 -->
<g id="node4" class="node">
<title>Node4</title>
<g id="a_node4"><a xlink:href="classllvm_1_1pointer__union__detail_1_1PointerUnionMembers.html" target="_top" xlink:title="llvm::pointer_union\l_detail::PointerUnionMembers\l\&lt; Derived, ValTy, I, Types \&gt;">
<polygon fill="none" stroke="black" points="0,-121.5 0,-162.5 148,-162.5 148,-121.5 0,-121.5"/>
<text text-anchor="start" x="8" y="-150.5" font-family="Helvetica,sans-Serif" font-size="10.00">llvm::pointer_union</text>
<text text-anchor="start" x="8" y="-139.5" font-family="Helvetica,sans-Serif" font-size="10.00">_detail::PointerUnionMembers</text>
<text text-anchor="middle" x="74" y="-128.5" font-family="Helvetica,sans-Serif" font-size="10.00">&lt; Derived, ValTy, I, Types &gt;</text>
</a>
</g>
</g>
<!-- Node4&#45;&gt;Node3 -->
<g id="edge3" class="edge">
<title>Node4&#45;&gt;Node3</title>
<path fill="none" stroke="orange" stroke-dasharray="5,2" d="M158.39,-142C207.43,-142 269.3,-142 318.75,-142"/>
<polygon fill="orange" stroke="orange" points="158.13,-138.5 148.13,-142 158.13,-145.5 158.13,-138.5"/>
<text text-anchor="start" x="166" y="-211" font-family="Helvetica,sans-Serif" font-size="10.00"> &lt; PointerUnion&lt; PTs...</text>
<text text-anchor="start" x="166" y="-200" font-family="Helvetica,sans-Serif" font-size="10.00"> &gt;, PointerIntPair&lt; void</text>
<text text-anchor="start" x="166" y="-189" font-family="Helvetica,sans-Serif" font-size="10.00"> *, pointer_union_detail</text>
<text text-anchor="start" x="166" y="-178" font-family="Helvetica,sans-Serif" font-size="10.00">::bitsRequired(sizeof...</text>
<text text-anchor="start" x="166" y="-167" font-family="Helvetica,sans-Serif" font-size="10.00">(PTs)), int, pointer_union</text>
<text text-anchor="start" x="166" y="-156" font-family="Helvetica,sans-Serif" font-size="10.00">_detail::PointerUnionUIntTraits</text>
<text text-anchor="middle" x="233.5" y="-145" font-family="Helvetica,sans-Serif" font-size="10.00">&lt; PTs... &gt; &gt;, 0, PTs... &gt;</text>
</g>
<!-- Node5&#45;&gt;Node2 -->
<g id="edge4" class="edge">
<title>Node5&#45;&gt;Node2</title>
<path fill="none" stroke="orange" stroke-dasharray="5,2" d="M636.25,-118.07C638.87,-118.04 641.46,-118.02 644,-118 700.89,-117.57 715.57,-110.83 772,-118 777.86,-118.74 783.88,-119.75 789.9,-120.94"/>
<polygon fill="orange" stroke="orange" points="636.04,-114.57 626.08,-118.19 636.12,-121.57 636.04,-114.57"/>
<text text-anchor="start" x="644" y="-143" font-family="Helvetica,sans-Serif" font-size="10.00"> &lt; const llvm::Value</text>
<text text-anchor="start" x="644" y="-132" font-family="Helvetica,sans-Serif" font-size="10.00"> *, const llvm::PseudoSource</text>
<text text-anchor="middle" x="708" y="-121" font-family="Helvetica,sans-Serif" font-size="10.00">Value *&gt;</text>
</g>
<!-- Node6 -->
<g id="node6" class="node">
<title>Node6</title>
<polygon fill="none" stroke="#bfbfbf" points="839,-76.5 839,-95.5 885,-95.5 885,-76.5 839,-76.5"/>
<text text-anchor="middle" x="862" y="-83.5" font-family="Helvetica,sans-Serif" font-size="10.00">int64_t</text>
</g>
<!-- Node6&#45;&gt;Node1 -->
<g id="edge6" class="edge">
<title>Node6&#45;&gt;Node1</title>
<path fill="none" stroke="#9a32cd" stroke-dasharray="5,2" d="M895.41,-83.21C928.57,-80.35 980.9,-75.84 1021.96,-72.3"/>
<polygon fill="#9a32cd" stroke="#9a32cd" points="895.02,-79.73 885.36,-84.07 895.62,-86.7 895.02,-79.73"/>
<text text-anchor="middle" x="978" y="-82" font-family="Helvetica,sans-Serif" font-size="10.00"> Offset</text>
</g>
<!-- Node7 -->
<g id="node7" class="node">
<title>Node7</title>
<polygon fill="none" stroke="#bfbfbf" points="839,-38.5 839,-57.5 885,-57.5 885,-38.5 839,-38.5"/>
<text text-anchor="middle" x="862" y="-45.5" font-family="Helvetica,sans-Serif" font-size="10.00">uint8_t</text>
</g>
<!-- Node7&#45;&gt;Node1 -->
<g id="edge7" class="edge">
<title>Node7&#45;&gt;Node1</title>
<path fill="none" stroke="#9a32cd" stroke-dasharray="5,2" d="M895.69,-50.76C924.27,-53.17 966.89,-56.79 1004,-60 1009.8,-60.5 1015.83,-61.03 1021.87,-61.56"/>
<polygon fill="#9a32cd" stroke="#9a32cd" points="895.73,-47.25 885.47,-49.89 895.14,-54.22 895.73,-47.25"/>
<text text-anchor="middle" x="978" y="-63" font-family="Helvetica,sans-Serif" font-size="10.00"> StackID</text>
</g>
<!-- Node8 -->
<g id="node8" class="node">
<title>Node8</title>
<g id="a_node8"><a xlink:href="classunsigned.html" target="_top" xlink:title="unsigned">
<polygon fill="none" stroke="black" points="834,-0.5 834,-19.5 890,-19.5 890,-0.5 834,-0.5"/>
<text text-anchor="middle" x="862" y="-7.5" font-family="Helvetica,sans-Serif" font-size="10.00">unsigned</text>
</a>
</g>
</g>
<!-- Node8&#45;&gt;Node1 -->
<g id="edge8" class="edge">
<title>Node8&#45;&gt;Node1</title>
<path fill="none" stroke="#9a32cd" stroke-dasharray="5,2" d="M900.19,-17.12C928.76,-22.85 969.11,-31.49 1004,-41 1021.65,-45.81 1041.19,-52.19 1056.47,-57.42"/>
<polygon fill="#9a32cd" stroke="#9a32cd" points="900.72,-13.66 890.23,-15.15 899.36,-20.53 900.72,-13.66"/>
<text text-anchor="middle" x="978" y="-44" font-family="Helvetica,sans-Serif" font-size="10.00"> AddrSpace</text>
</g>
</g>
</svg>
