<?xml version="1.0" encoding="UTF-8" standalone="no"?>
<!DOCTYPE svg PUBLIC "-//W3C//DTD SVG 1.1//EN"
 "http://www.w3.org/Graphics/SVG/1.1/DTD/svg11.dtd">
<!-- Generated by graphviz version 2.43.0 (0)
 -->
<!-- Title: llvm::DomTreeBuilder::SemiNCAInfo&lt; DomTreeT &gt;::InsertionInfo Pages: 1 -->
<svg width="2756pt" height="400pt"
 viewBox="0.00 0.00 2756.00 399.89" xmlns="http://www.w3.org/2000/svg" xmlns:xlink="http://www.w3.org/1999/xlink">
<g id="graph0" class="graph" transform="scale(1 1) rotate(0) translate(4 395.89)">
<title>llvm::DomTreeBuilder::SemiNCAInfo&lt; DomTreeT &gt;::InsertionInfo</title>
<!-- Node1 -->
<g id="node1" class="node">
<title>Node1</title>
<polygon fill="#bfbfbf" stroke="black" points="2609,-210.39 2609,-251.39 2748,-251.39 2748,-210.39 2609,-210.39"/>
<text text-anchor="start" x="2617" y="-239.39" font-family="Helvetica,sans-Serif" font-size="10.00">llvm::DomTreeBuilder</text>
<text text-anchor="start" x="2617" y="-228.39" font-family="Helvetica,sans-Serif" font-size="10.00">::SemiNCAInfo&lt; DomTreeT</text>
<text text-anchor="middle" x="2678.5" y="-217.39" font-family="Helvetica,sans-Serif" font-size="10.00"> &gt;::InsertionInfo</text>
</g>
<!-- Node2 -->
<g id="node2" class="node">
<title>Node2</title>
<polygon fill="none" stroke="#bfbfbf" points="2296,-265.39 2296,-328.39 2494,-328.39 2494,-265.39 2296,-265.39"/>
<text text-anchor="start" x="2304" y="-316.39" font-family="Helvetica,sans-Serif" font-size="10.00">priority_queue&lt; llvm</text>
<text text-anchor="start" x="2304" y="-305.39" font-family="Helvetica,sans-Serif" font-size="10.00">::DomTreeNodeBase, llvm</text>
<text text-anchor="start" x="2304" y="-294.39" font-family="Helvetica,sans-Serif" font-size="10.00">::SmallVector&lt; llvm::DomTreeNode</text>
<text text-anchor="start" x="2304" y="-283.39" font-family="Helvetica,sans-Serif" font-size="10.00">Base, 8 &gt;, llvm::DomTreeBuilder</text>
<text text-anchor="middle" x="2395" y="-272.39" font-family="Helvetica,sans-Serif" font-size="10.00">::SemiNCAInfo::InsertionInfo::Compare &gt;</text>
</g>
<!-- Node2&#45;&gt;Node1 -->
<g id="edge1" class="edge">
<title>Node2&#45;&gt;Node1</title>
<path fill="none" stroke="#9a32cd" stroke-dasharray="5,2" d="M2504.04,-276.52C2532.45,-270.68 2562.97,-263.96 2591,-256.89 2597.54,-255.24 2604.32,-253.41 2611.08,-251.51"/>
<polygon fill="#9a32cd" stroke="#9a32cd" points="2503.19,-273.13 2494.09,-278.55 2504.59,-279.98 2503.19,-273.13"/>
<text text-anchor="middle" x="2551.5" y="-276.89" font-family="Helvetica,sans-Serif" font-size="10.00"> Bucket</text>
</g>
<!-- Node3 -->
<g id="node3" class="node">
<title>Node3</title>
<g id="a_node3"><a xlink:href="classllvm_1_1SmallVector.html" target="_top" xlink:title="llvm::SmallVector\&lt;\l llvm::DomTreeNodeBase, 8 \&gt;">
<polygon fill="none" stroke="black" points="2320,-215.89 2320,-245.89 2470,-245.89 2470,-215.89 2320,-215.89"/>
<text text-anchor="start" x="2328" y="-233.89" font-family="Helvetica,sans-Serif" font-size="10.00">llvm::SmallVector&lt;</text>
<text text-anchor="middle" x="2395" y="-222.89" font-family="Helvetica,sans-Serif" font-size="10.00"> llvm::DomTreeNodeBase, 8 &gt;</text>
</a>
</g>
</g>
<!-- Node3&#45;&gt;Node1 -->
<g id="edge2" class="edge">
<title>Node3&#45;&gt;Node1</title>
<path fill="none" stroke="#9a32cd" stroke-dasharray="5,2" d="M2480.55,-230.89C2521.46,-230.89 2569.94,-230.89 2608.56,-230.89"/>
<polygon fill="#9a32cd" stroke="#9a32cd" points="2480.33,-227.39 2470.33,-230.89 2480.33,-234.39 2480.33,-227.39"/>
<text text-anchor="middle" x="2551.5" y="-244.89" font-family="Helvetica,sans-Serif" font-size="10.00"> Affected</text>
<text text-anchor="middle" x="2551.5" y="-233.89" font-family="Helvetica,sans-Serif" font-size="10.00">VisitedUnaffected</text>
</g>
<!-- Node4 -->
<g id="node4" class="node">
<title>Node4</title>
<g id="a_node4"><a xlink:href="classllvm_1_1SmallVectorImpl.html" target="_top" xlink:title="llvm::SmallVectorImpl\l\&lt; llvm::DomTreeNodeBase \&gt;">
<polygon fill="none" stroke="black" points="1965.5,-191.89 1965.5,-221.89 2110.5,-221.89 2110.5,-191.89 1965.5,-191.89"/>
<text text-anchor="start" x="1973.5" y="-209.89" font-family="Helvetica,sans-Serif" font-size="10.00">llvm::SmallVectorImpl</text>
<text text-anchor="middle" x="2038" y="-198.89" font-family="Helvetica,sans-Serif" font-size="10.00">&lt; llvm::DomTreeNodeBase &gt;</text>
</a>
</g>
</g>
<!-- Node4&#45;&gt;Node3 -->
<g id="edge3" class="edge">
<title>Node4&#45;&gt;Node3</title>
<path fill="none" stroke="midnightblue" d="M2121.04,-212.43C2181.03,-216.49 2261.75,-221.95 2319.82,-225.87"/>
<polygon fill="midnightblue" stroke="midnightblue" points="2121.05,-208.93 2110.84,-211.74 2120.58,-215.91 2121.05,-208.93"/>
</g>
<!-- Node5 -->
<g id="node5" class="node">
<title>Node5</title>
<g id="a_node5"><a xlink:href="classllvm_1_1SmallVectorTemplateBase.html" target="_top" xlink:title="SmallVectorTemplateBase&lt;TriviallyCopyable = false&gt; &#45; This is where we put method implementations that...">
<polygon fill="none" stroke="black" points="842,-155.89 842,-185.89 1009,-185.89 1009,-155.89 842,-155.89"/>
<text text-anchor="start" x="850" y="-173.89" font-family="Helvetica,sans-Serif" font-size="10.00">llvm::SmallVectorTemplate</text>
<text text-anchor="middle" x="925.5" y="-162.89" font-family="Helvetica,sans-Serif" font-size="10.00">Base&lt; llvm::DomTreeNodeBase &gt;</text>
</a>
</g>
</g>
<!-- Node5&#45;&gt;Node4 -->
<g id="edge4" class="edge">
<title>Node5&#45;&gt;Node4</title>
<path fill="none" stroke="midnightblue" d="M1019.48,-175.1C1075.29,-177.55 1147.71,-180.6 1212,-182.89 1490.52,-192.79 1822.05,-201.5 1965.26,-205.11"/>
<polygon fill="midnightblue" stroke="midnightblue" points="1019.4,-171.59 1009.26,-174.65 1019.09,-178.59 1019.4,-171.59"/>
</g>
<!-- Node6 -->
<g id="node6" class="node">
<title>Node6</title>
<g id="a_node6"><a xlink:href="classllvm_1_1SmallVectorTemplateCommon.html" target="_top" xlink:title="llvm::SmallVectorTemplate\lCommon\&lt; T \&gt;">
<polygon fill="none" stroke="black" points="483,-189.89 483,-219.89 617,-219.89 617,-189.89 483,-189.89"/>
<text text-anchor="start" x="491" y="-207.89" font-family="Helvetica,sans-Serif" font-size="10.00">llvm::SmallVectorTemplate</text>
<text text-anchor="middle" x="550" y="-196.89" font-family="Helvetica,sans-Serif" font-size="10.00">Common&lt; T &gt;</text>
</a>
</g>
</g>
<!-- Node6&#45;&gt;Node5 -->
<g id="edge5" class="edge">
<title>Node6&#45;&gt;Node5</title>
<path fill="none" stroke="midnightblue" d="M627.38,-191.84C629.95,-191.5 632.49,-191.18 635,-190.89 704.55,-182.71 783.92,-177.52 841.95,-174.48"/>
<polygon fill="midnightblue" stroke="midnightblue" points="626.83,-188.38 617.4,-193.22 627.79,-195.31 626.83,-188.38"/>
</g>
<!-- Node12 -->
<g id="node12" class="node">
<title>Node12</title>
<g id="a_node12"><a xlink:href="classllvm_1_1SmallVectorTemplateBase.html" target="_top" xlink:title="llvm::SmallVectorTemplate\lBase\&lt; T \&gt;">
<polygon fill="none" stroke="black" points="1043.5,-231.89 1043.5,-261.89 1177.5,-261.89 1177.5,-231.89 1043.5,-231.89"/>
<text text-anchor="start" x="1051.5" y="-249.89" font-family="Helvetica,sans-Serif" font-size="10.00">llvm::SmallVectorTemplate</text>
<text text-anchor="middle" x="1110.5" y="-238.89" font-family="Helvetica,sans-Serif" font-size="10.00">Base&lt; T &gt;</text>
</a>
</g>
</g>
<!-- Node6&#45;&gt;Node12 -->
<g id="edge13" class="edge">
<title>Node6&#45;&gt;Node12</title>
<path fill="none" stroke="midnightblue" d="M627.18,-210.39C681.94,-214.37 757.53,-219.89 824,-224.89 899.23,-230.54 985.59,-237.22 1043.45,-241.73"/>
<polygon fill="midnightblue" stroke="midnightblue" points="627.43,-206.9 617.2,-209.67 626.92,-213.88 627.43,-206.9"/>
</g>
<!-- Node13 -->
<g id="node13" class="node">
<title>Node13</title>
<g id="a_node13"><a xlink:href="classllvm_1_1SmallVectorTemplateBase.html" target="_top" xlink:title="SmallVectorTemplateBase&lt;TriviallyCopyable = false&gt; &#45; This is where we put method implementations that...">
<polygon fill="none" stroke="black" points="685.5,-233.89 685.5,-263.89 819.5,-263.89 819.5,-233.89 685.5,-233.89"/>
<text text-anchor="start" x="693.5" y="-251.89" font-family="Helvetica,sans-Serif" font-size="10.00">llvm::SmallVectorTemplate</text>
<text text-anchor="middle" x="752.5" y="-240.89" font-family="Helvetica,sans-Serif" font-size="10.00">Base&lt; T, bool &gt;</text>
</a>
</g>
</g>
<!-- Node6&#45;&gt;Node13 -->
<g id="edge15" class="edge">
<title>Node6&#45;&gt;Node13</title>
<path fill="none" stroke="midnightblue" d="M627.11,-221.59C646.28,-225.8 666.72,-230.28 685.36,-234.37"/>
<polygon fill="midnightblue" stroke="midnightblue" points="627.72,-218.14 617.21,-219.42 626.22,-224.98 627.72,-218.14"/>
</g>
<!-- Node7 -->
<g id="node7" class="node">
<title>Node7</title>
<g id="a_node7"><a xlink:href="classllvm_1_1SmallVectorBase.html" target="_top" xlink:title="This is all the non&#45;templated stuff common to all SmallVectors. ">
<polygon fill="none" stroke="black" points="132,-195.39 132,-214.39 248,-214.39 248,-195.39 132,-195.39"/>
<text text-anchor="middle" x="190" y="-202.39" font-family="Helvetica,sans-Serif" font-size="10.00">llvm::SmallVectorBase</text>
</a>
</g>
</g>
<!-- Node7&#45;&gt;Node6 -->
<g id="edge6" class="edge">
<title>Node7&#45;&gt;Node6</title>
<path fill="none" stroke="midnightblue" d="M258.36,-207.67C260.94,-207.75 263.49,-207.82 266,-207.89 354.42,-210.17 376.59,-212.52 465,-209.89 470.84,-209.71 476.91,-209.47 482.99,-209.19"/>
<polygon fill="midnightblue" stroke="midnightblue" points="258.43,-204.17 248.32,-207.35 258.2,-211.17 258.43,-204.17"/>
</g>
<!-- Node10 -->
<g id="node10" class="node">
<title>Node10</title>
<g id="a_node10"><a xlink:href="classllvm_1_1SmallVectorTemplateCommon.html" target="_top" xlink:title="This is the part of SmallVectorTemplateBase which does not depend on whether the type T is a POD...">
<polygon fill="none" stroke="black" points="285,-167.89 285,-197.89 419,-197.89 419,-167.89 285,-167.89"/>
<text text-anchor="start" x="293" y="-185.89" font-family="Helvetica,sans-Serif" font-size="10.00">llvm::SmallVectorTemplate</text>
<text text-anchor="middle" x="352" y="-174.89" font-family="Helvetica,sans-Serif" font-size="10.00">Common&lt; T, typename &gt;</text>
</a>
</g>
</g>
<!-- Node7&#45;&gt;Node10 -->
<g id="edge10" class="edge">
<title>Node7&#45;&gt;Node10</title>
<path fill="none" stroke="midnightblue" d="M258.44,-195.61C267.18,-194.41 276.12,-193.18 284.83,-191.99"/>
<polygon fill="midnightblue" stroke="midnightblue" points="257.74,-192.18 248.31,-197.01 258.7,-199.11 257.74,-192.18"/>
</g>
<!-- Node8 -->
<g id="node8" class="node">
<title>Node8</title>
<g id="a_node8"><a xlink:href="classunsigned.html" target="_top" xlink:title="unsigned">
<polygon fill="none" stroke="black" points="0,-214.39 0,-233.39 56,-233.39 56,-214.39 0,-214.39"/>
<text text-anchor="middle" x="28" y="-221.39" font-family="Helvetica,sans-Serif" font-size="10.00">unsigned</text>
</a>
</g>
</g>
<!-- Node8&#45;&gt;Node7 -->
<g id="edge7" class="edge">
<title>Node8&#45;&gt;Node7</title>
<path fill="none" stroke="#9a32cd" stroke-dasharray="5,2" d="M66.15,-219.48C85.65,-217.16 109.97,-214.27 131.82,-211.68"/>
<polygon fill="#9a32cd" stroke="#9a32cd" points="65.66,-216.01 56.14,-220.66 66.48,-222.96 65.66,-216.01"/>
<text text-anchor="middle" x="94" y="-231.89" font-family="Helvetica,sans-Serif" font-size="10.00"> Size</text>
<text text-anchor="middle" x="94" y="-220.89" font-family="Helvetica,sans-Serif" font-size="10.00">Capacity</text>
</g>
<!-- Node9 -->
<g id="node9" class="node">
<title>Node9</title>
<polygon fill="none" stroke="#bfbfbf" points="7.5,-176.39 7.5,-195.39 48.5,-195.39 48.5,-176.39 7.5,-176.39"/>
<text text-anchor="middle" x="28" y="-183.39" font-family="Helvetica,sans-Serif" font-size="10.00">void *</text>
</g>
<!-- Node9&#45;&gt;Node7 -->
<g id="edge8" class="edge">
<title>Node9&#45;&gt;Node7</title>
<path fill="none" stroke="#9a32cd" stroke-dasharray="5,2" d="M58.59,-189.4C79.05,-191.83 106.94,-195.14 131.67,-198.08"/>
<polygon fill="#9a32cd" stroke="#9a32cd" points="58.96,-185.92 48.62,-188.22 58.14,-192.87 58.96,-185.92"/>
<text text-anchor="middle" x="94" y="-198.89" font-family="Helvetica,sans-Serif" font-size="10.00"> BeginX</text>
</g>
<!-- Node10&#45;&gt;Node6 -->
<g id="edge9" class="edge">
<title>Node10&#45;&gt;Node6</title>
<path fill="none" stroke="orange" stroke-dasharray="5,2" d="M429.35,-191.46C447.02,-193.44 465.68,-195.54 482.87,-197.47"/>
<polygon fill="orange" stroke="orange" points="429.41,-187.94 419.08,-190.31 428.63,-194.9 429.41,-187.94"/>
<text text-anchor="middle" x="451" y="-197.89" font-family="Helvetica,sans-Serif" font-size="10.00"> &lt; T &gt;</text>
</g>
<!-- Node11 -->
<g id="node11" class="node">
<title>Node11</title>
<g id="a_node11"><a xlink:href="classllvm_1_1SmallVectorImpl.html" target="_top" xlink:title="This class consists of common code factored out of the SmallVector class to reduce code duplication b...">
<polygon fill="none" stroke="black" points="1511,-237.39 1511,-256.39 1648,-256.39 1648,-237.39 1511,-237.39"/>
<text text-anchor="middle" x="1579.5" y="-244.39" font-family="Helvetica,sans-Serif" font-size="10.00">llvm::SmallVectorImpl&lt; T &gt;</text>
</a>
</g>
</g>
<!-- Node11&#45;&gt;Node4 -->
<g id="edge11" class="edge">
<title>Node11&#45;&gt;Node4</title>
<path fill="none" stroke="orange" stroke-dasharray="5,2" d="M1658.39,-238.01C1671.92,-236.56 1685.86,-235.13 1699,-233.89 1790.86,-225.18 1896.95,-217.01 1965.4,-211.99"/>
<polygon fill="orange" stroke="orange" points="1657.71,-234.56 1648.14,-239.12 1658.46,-241.52 1657.71,-234.56"/>
<text text-anchor="middle" x="1820" y="-236.89" font-family="Helvetica,sans-Serif" font-size="10.00"> &lt; llvm::DomTreeNodeBase &gt;</text>
</g>
<!-- Node20 -->
<g id="node20" class="node">
<title>Node20</title>
<g id="a_node20"><a xlink:href="classllvm_1_1SmallVector.html" target="_top" xlink:title="This is a &#39;vector&#39; (really, a variable&#45;sized array), optimized for the case when the array is small...">
<polygon fill="none" stroke="black" points="1988,-240.89 1988,-270.89 2088,-270.89 2088,-240.89 1988,-240.89"/>
<text text-anchor="start" x="1996" y="-258.89" font-family="Helvetica,sans-Serif" font-size="10.00">llvm::SmallVector&lt;</text>
<text text-anchor="middle" x="2038" y="-247.89" font-family="Helvetica,sans-Serif" font-size="10.00"> T, N &gt;</text>
</a>
</g>
</g>
<!-- Node11&#45;&gt;Node20 -->
<g id="edge26" class="edge">
<title>Node11&#45;&gt;Node20</title>
<path fill="none" stroke="midnightblue" d="M1658.41,-248.42C1752.71,-250.28 1908.68,-253.36 1987.76,-254.92"/>
<polygon fill="midnightblue" stroke="midnightblue" points="1658.42,-244.92 1648.35,-248.23 1658.28,-251.92 1658.42,-244.92"/>
</g>
<!-- Node12&#45;&gt;Node11 -->
<g id="edge12" class="edge">
<title>Node12&#45;&gt;Node11</title>
<path fill="none" stroke="midnightblue" d="M1188.02,-246.89C1277.75,-246.89 1425.07,-246.89 1510.8,-246.89"/>
<polygon fill="midnightblue" stroke="midnightblue" points="1187.91,-243.39 1177.91,-246.89 1187.91,-250.39 1187.91,-243.39"/>
</g>
<!-- Node13&#45;&gt;Node12 -->
<g id="edge14" class="edge">
<title>Node13&#45;&gt;Node12</title>
<path fill="none" stroke="orange" stroke-dasharray="5,2" d="M829.99,-248.46C893.52,-248.1 982.97,-247.6 1043.43,-247.26"/>
<polygon fill="orange" stroke="orange" points="829.61,-244.96 819.63,-248.52 829.65,-251.96 829.61,-244.96"/>
<text text-anchor="middle" x="925.5" y="-250.89" font-family="Helvetica,sans-Serif" font-size="10.00"> &lt; T &gt;</text>
</g>
<!-- Node14 -->
<g id="node14" class="node">
<title>Node14</title>
<g id="a_node14"><a xlink:href="structllvm_1_1SmallVectorStorage.html" target="_top" xlink:title="llvm::SmallVectorStorage\l\&lt; llvm::DomTreeNodeBase, N \&gt;">
<polygon fill="none" stroke="black" points="1959,-289.89 1959,-319.89 2117,-319.89 2117,-289.89 1959,-289.89"/>
<text text-anchor="start" x="1967" y="-307.89" font-family="Helvetica,sans-Serif" font-size="10.00">llvm::SmallVectorStorage</text>
<text text-anchor="middle" x="2038" y="-296.89" font-family="Helvetica,sans-Serif" font-size="10.00">&lt; llvm::DomTreeNodeBase, N &gt;</text>
</a>
</g>
</g>
<!-- Node14&#45;&gt;Node3 -->
<g id="edge16" class="edge">
<title>Node14&#45;&gt;Node3</title>
<path fill="none" stroke="#8b1a1a" d="M2127.23,-293.63C2172.74,-286.75 2228.87,-276.61 2278,-262.89 2286.27,-260.58 2287.83,-258.51 2296,-255.89 2307.04,-252.35 2318.89,-248.97 2330.42,-245.91"/>
<polygon fill="#8b1a1a" stroke="#8b1a1a" points="2126.47,-290.2 2117.09,-295.13 2127.5,-297.12 2126.47,-290.2"/>
</g>
<!-- Node15 -->
<g id="node15" class="node">
<title>Node15</title>
<g id="a_node15"><a xlink:href="structllvm_1_1AlignedCharArrayUnion.html" target="_top" xlink:title="llvm::AlignedCharArrayUnion\l\&lt; llvm::DomTreeNodeBase \&gt;">
<polygon fill="none" stroke="black" points="1038,-288.89 1038,-318.89 1183,-318.89 1183,-288.89 1038,-288.89"/>
<text text-anchor="start" x="1046" y="-306.89" font-family="Helvetica,sans-Serif" font-size="10.00">llvm::AlignedCharArrayUnion</text>
<text text-anchor="middle" x="1110.5" y="-295.89" font-family="Helvetica,sans-Serif" font-size="10.00">&lt; llvm::DomTreeNodeBase &gt;</text>
</a>
</g>
</g>
<!-- Node15&#45;&gt;Node14 -->
<g id="edge17" class="edge">
<title>Node15&#45;&gt;Node14</title>
<path fill="none" stroke="#9a32cd" stroke-dasharray="5,2" d="M1193.37,-303.98C1370.08,-304.17 1785.26,-304.62 1958.71,-304.8"/>
<polygon fill="#9a32cd" stroke="#9a32cd" points="1193.36,-300.48 1183.35,-303.97 1193.35,-307.48 1193.36,-300.48"/>
<text text-anchor="middle" x="1579.5" y="-306.89" font-family="Helvetica,sans-Serif" font-size="10.00"> InlineElts</text>
</g>
<!-- Node16 -->
<g id="node16" class="node">
<title>Node16</title>
<g id="a_node16"><a xlink:href="classchar.html" target="_top" xlink:title="char">
<polygon fill="none" stroke="black" points="532.5,-336.39 532.5,-355.39 567.5,-355.39 567.5,-336.39 532.5,-336.39"/>
<text text-anchor="middle" x="550" y="-343.39" font-family="Helvetica,sans-Serif" font-size="10.00">char</text>
</a>
</g>
</g>
<!-- Node16&#45;&gt;Node15 -->
<g id="edge18" class="edge">
<title>Node16&#45;&gt;Node15</title>
<path fill="none" stroke="#9a32cd" stroke-dasharray="5,2" d="M577.04,-336.83C603.01,-328.3 644.22,-316.06 681,-310.89 805.52,-293.38 952.37,-295.94 1037.81,-299.7"/>
<polygon fill="#9a32cd" stroke="#9a32cd" points="575.92,-333.52 567.55,-340.01 578.15,-340.16 575.92,-333.52"/>
<text text-anchor="middle" x="752.5" y="-313.89" font-family="Helvetica,sans-Serif" font-size="10.00"> buffer</text>
</g>
<!-- Node17 -->
<g id="node17" class="node">
<title>Node17</title>
<g id="a_node17"><a xlink:href="structllvm_1_1AlignedCharArrayUnion.html" target="_top" xlink:title="A suitably aligned and sized character array member which can hold elements of any type...">
<polygon fill="none" stroke="black" points="681,-330.89 681,-360.89 824,-360.89 824,-330.89 681,-330.89"/>
<text text-anchor="start" x="689" y="-348.89" font-family="Helvetica,sans-Serif" font-size="10.00">llvm::AlignedCharArrayUnion</text>
<text text-anchor="middle" x="752.5" y="-337.89" font-family="Helvetica,sans-Serif" font-size="10.00">&lt; T, Ts &gt;</text>
</a>
</g>
</g>
<!-- Node16&#45;&gt;Node17 -->
<g id="edge20" class="edge">
<title>Node16&#45;&gt;Node17</title>
<path fill="none" stroke="#9a32cd" stroke-dasharray="5,2" d="M578.05,-345.89C604.34,-345.89 645.39,-345.89 680.96,-345.89"/>
<polygon fill="#9a32cd" stroke="#9a32cd" points="577.75,-342.39 567.75,-345.89 577.75,-349.39 577.75,-342.39"/>
<text text-anchor="middle" x="649" y="-348.89" font-family="Helvetica,sans-Serif" font-size="10.00"> buffer</text>
</g>
<!-- Node19 -->
<g id="node19" class="node">
<title>Node19</title>
<g id="a_node19"><a xlink:href="structllvm_1_1AlignedCharArrayUnion.html" target="_top" xlink:title="llvm::AlignedCharArrayUnion\&lt; T \&gt;">
<polygon fill="none" stroke="black" points="1027,-358.39 1027,-377.39 1194,-377.39 1194,-358.39 1027,-358.39"/>
<text text-anchor="middle" x="1110.5" y="-365.39" font-family="Helvetica,sans-Serif" font-size="10.00">llvm::AlignedCharArrayUnion&lt; T &gt;</text>
</a>
</g>
</g>
<!-- Node16&#45;&gt;Node19 -->
<g id="edge23" class="edge">
<title>Node16&#45;&gt;Node19</title>
<path fill="none" stroke="#9a32cd" stroke-dasharray="5,2" d="M577.6,-352.29C603.74,-358.28 644.86,-366.88 681,-370.89 825.91,-386.97 863.32,-381.68 1009,-375.89 1014.86,-375.66 1020.91,-375.35 1026.99,-374.99"/>
<polygon fill="#9a32cd" stroke="#9a32cd" points="578.23,-348.84 567.7,-349.98 576.64,-355.66 578.23,-348.84"/>
<text text-anchor="middle" x="752.5" y="-383.89" font-family="Helvetica,sans-Serif" font-size="10.00"> buffer</text>
</g>
<!-- Node17&#45;&gt;Node15 -->
<g id="edge19" class="edge">
<title>Node17&#45;&gt;Node15</title>
<path fill="none" stroke="orange" stroke-dasharray="5,2" d="M834.28,-336.36C895.58,-329.13 979.06,-319.28 1037.96,-312.33"/>
<polygon fill="orange" stroke="orange" points="833.78,-332.89 824.26,-337.54 834.6,-339.84 833.78,-332.89"/>
<text text-anchor="middle" x="925.5" y="-336.89" font-family="Helvetica,sans-Serif" font-size="10.00"> &lt; llvm::DomTreeNodeBase &gt;</text>
</g>
<!-- Node17&#45;&gt;Node19 -->
<g id="edge24" class="edge">
<title>Node17&#45;&gt;Node19</title>
<path fill="none" stroke="orange" stroke-dasharray="5,2" d="M834.39,-350.89C891.86,-354.44 968.8,-359.19 1026.7,-362.77"/>
<polygon fill="orange" stroke="orange" points="834.46,-347.38 824.26,-350.26 834.02,-354.37 834.46,-347.38"/>
<text text-anchor="middle" x="925.5" y="-363.89" font-family="Helvetica,sans-Serif" font-size="10.00"> &lt; T &gt;</text>
</g>
<!-- Node18 -->
<g id="node18" class="node">
<title>Node18</title>
<g id="a_node18"><a xlink:href="structllvm_1_1SmallVectorStorage.html" target="_top" xlink:title="Storage for the SmallVector elements. ">
<polygon fill="none" stroke="black" points="1515.5,-346.89 1515.5,-376.89 1643.5,-376.89 1643.5,-346.89 1515.5,-346.89"/>
<text text-anchor="start" x="1523.5" y="-364.89" font-family="Helvetica,sans-Serif" font-size="10.00">llvm::SmallVectorStorage</text>
<text text-anchor="middle" x="1579.5" y="-353.89" font-family="Helvetica,sans-Serif" font-size="10.00">&lt; T, N &gt;</text>
</a>
</g>
</g>
<!-- Node18&#45;&gt;Node14 -->
<g id="edge21" class="edge">
<title>Node18&#45;&gt;Node14</title>
<path fill="none" stroke="orange" stroke-dasharray="5,2" d="M1653.82,-363.56C1727.24,-363.8 1843.09,-360.27 1941,-339.89 1962.19,-335.48 1984.98,-327.32 2003.04,-319.99"/>
<polygon fill="orange" stroke="orange" points="1653.77,-360.06 1643.75,-363.5 1653.73,-367.06 1653.77,-360.06"/>
<text text-anchor="middle" x="1820" y="-365.89" font-family="Helvetica,sans-Serif" font-size="10.00"> &lt; llvm::DomTreeNodeBase, N &gt;</text>
</g>
<!-- Node18&#45;&gt;Node20 -->
<g id="edge27" class="edge">
<title>Node18&#45;&gt;Node20</title>
<path fill="none" stroke="#8b1a1a" d="M1653.95,-344.83C1747.71,-323.06 1907.35,-285.99 1987.71,-267.33"/>
<polygon fill="#8b1a1a" stroke="#8b1a1a" points="1652.92,-341.48 1643.97,-347.15 1654.51,-348.3 1652.92,-341.48"/>
</g>
<!-- Node19&#45;&gt;Node18 -->
<g id="edge22" class="edge">
<title>Node19&#45;&gt;Node18</title>
<path fill="none" stroke="#9a32cd" stroke-dasharray="5,2" d="M1204.34,-366.7C1296.49,-365.51 1435.22,-363.73 1515.32,-362.7"/>
<polygon fill="#9a32cd" stroke="#9a32cd" points="1204.14,-363.2 1194.18,-366.83 1204.23,-370.2 1204.14,-363.2"/>
<text text-anchor="middle" x="1336" y="-368.89" font-family="Helvetica,sans-Serif" font-size="10.00"> InlineElts</text>
</g>
<!-- Node20&#45;&gt;Node3 -->
<g id="edge25" class="edge">
<title>Node20&#45;&gt;Node3</title>
<path fill="none" stroke="orange" stroke-dasharray="5,2" d="M2098.57,-251.69C2159.42,-247.41 2254.03,-240.74 2319.73,-236.12"/>
<polygon fill="orange" stroke="orange" points="2098.09,-248.22 2088.36,-252.41 2098.58,-255.2 2098.09,-248.22"/>
<text text-anchor="middle" x="2206.5" y="-250.89" font-family="Helvetica,sans-Serif" font-size="10.00"> &lt; llvm::DomTreeNodeBase, 8 &gt;</text>
</g>
<!-- Node21 -->
<g id="node21" class="node">
<title>Node21</title>
<g id="a_node21"><a xlink:href="classllvm_1_1SmallDenseSet.html" target="_top" xlink:title="llvm::SmallDenseSet\l\&lt; llvm::DomTreeNodeBase, 8 \&gt;">
<polygon fill="none" stroke="black" points="2317,-111.89 2317,-141.89 2473,-141.89 2473,-111.89 2317,-111.89"/>
<text text-anchor="start" x="2325" y="-129.89" font-family="Helvetica,sans-Serif" font-size="10.00">llvm::SmallDenseSet</text>
<text text-anchor="middle" x="2395" y="-118.89" font-family="Helvetica,sans-Serif" font-size="10.00">&lt; llvm::DomTreeNodeBase, 8 &gt;</text>
</a>
</g>
</g>
<!-- Node21&#45;&gt;Node1 -->
<g id="edge28" class="edge">
<title>Node21&#45;&gt;Node1</title>
<path fill="none" stroke="#9a32cd" stroke-dasharray="5,2" d="M2446.14,-145.41C2495.49,-163.64 2570.67,-191.42 2621.84,-210.33"/>
<polygon fill="#9a32cd" stroke="#9a32cd" points="2447.23,-142.08 2436.63,-141.9 2444.8,-148.65 2447.23,-142.08"/>
<text text-anchor="middle" x="2551.5" y="-199.89" font-family="Helvetica,sans-Serif" font-size="10.00"> Visited</text>
</g>
<!-- Node22 -->
<g id="node22" class="node">
<title>Node22</title>
<g id="a_node22"><a xlink:href="classllvm_1_1detail_1_1DenseSetImpl.html" target="_top" xlink:title="llvm::detail::DenseSetImpl\l\&lt; llvm::DomTreeNodeBase,\l SmallDenseMap\&lt; llvm::DomTreeNode\lBase, detail::DenseSetEmpty, InlineBuckets,\l DenseMapInfo\&lt; llvm::DomTreeNodeBase\l \&gt;, detail::DenseSetPair\&lt; llvm::DomTreeNodeBase\l \&gt; \&gt;, DenseMapInfo\&lt; llvm::DomTreeNodeBase \&gt; \&gt;">
<polygon fill="none" stroke="black" points="1699,-5.39 1699,-90.39 1941,-90.39 1941,-5.39 1699,-5.39"/>
<text text-anchor="start" x="1707" y="-78.39" font-family="Helvetica,sans-Serif" font-size="10.00">llvm::detail::DenseSetImpl</text>
<text text-anchor="start" x="1707" y="-67.39" font-family="Helvetica,sans-Serif" font-size="10.00">&lt; llvm::DomTreeNodeBase,</text>
<text text-anchor="start" x="1707" y="-56.39" font-family="Helvetica,sans-Serif" font-size="10.00"> SmallDenseMap&lt; llvm::DomTreeNode</text>
<text text-anchor="start" x="1707" y="-45.39" font-family="Helvetica,sans-Serif" font-size="10.00">Base, detail::DenseSetEmpty, InlineBuckets,</text>
<text text-anchor="start" x="1707" y="-34.39" font-family="Helvetica,sans-Serif" font-size="10.00"> DenseMapInfo&lt; llvm::DomTreeNodeBase</text>
<text text-anchor="start" x="1707" y="-23.39" font-family="Helvetica,sans-Serif" font-size="10.00"> &gt;, detail::DenseSetPair&lt; llvm::DomTreeNodeBase</text>
<text text-anchor="middle" x="1820" y="-12.39" font-family="Helvetica,sans-Serif" font-size="10.00"> &gt; &gt;, DenseMapInfo&lt; llvm::DomTreeNodeBase &gt; &gt;</text>
</a>
</g>
</g>
<!-- Node22&#45;&gt;Node21 -->
<g id="edge29" class="edge">
<title>Node22&#45;&gt;Node21</title>
<path fill="none" stroke="midnightblue" d="M1951.19,-65.84C2063.84,-81.37 2222.95,-103.3 2316.6,-116.22"/>
<polygon fill="midnightblue" stroke="midnightblue" points="1951.5,-62.35 1941.12,-64.45 1950.55,-69.28 1951.5,-62.35"/>
</g>
<!-- Node23 -->
<g id="node23" class="node">
<title>Node23</title>
<g id="a_node23"><a xlink:href="classllvm_1_1detail_1_1DenseSetImpl.html" target="_top" xlink:title="Base class for DenseSet and DenseSmallSet. ">
<polygon fill="none" stroke="black" points="1033,-61.89 1033,-91.89 1188,-91.89 1188,-61.89 1033,-61.89"/>
<text text-anchor="start" x="1041" y="-79.89" font-family="Helvetica,sans-Serif" font-size="10.00">llvm::detail::DenseSetImpl</text>
<text text-anchor="middle" x="1110.5" y="-68.89" font-family="Helvetica,sans-Serif" font-size="10.00">&lt; ValueT, MapTy, ValueInfoT &gt;</text>
</a>
</g>
</g>
<!-- Node23&#45;&gt;Node22 -->
<g id="edge30" class="edge">
<title>Node23&#45;&gt;Node22</title>
<path fill="none" stroke="orange" stroke-dasharray="5,2" d="M1141.19,-56.29C1160.42,-44.24 1186.54,-30.19 1212,-23.89 1377.08,16.97 1575.03,-3.16 1698.94,-23.67"/>
<polygon fill="orange" stroke="orange" points="1139.11,-53.47 1132.61,-61.83 1142.91,-59.35 1139.11,-53.47"/>
<text text-anchor="start" x="1212" y="-92.89" font-family="Helvetica,sans-Serif" font-size="10.00"> &lt; llvm::DomTreeNodeBase,</text>
<text text-anchor="start" x="1212" y="-81.89" font-family="Helvetica,sans-Serif" font-size="10.00"> SmallDenseMap&lt; llvm::</text>
<text text-anchor="start" x="1212" y="-70.89" font-family="Helvetica,sans-Serif" font-size="10.00">DomTreeNodeBase, detail</text>
<text text-anchor="start" x="1212" y="-59.89" font-family="Helvetica,sans-Serif" font-size="10.00">::DenseSetEmpty, InlineBuckets,</text>
<text text-anchor="start" x="1212" y="-48.89" font-family="Helvetica,sans-Serif" font-size="10.00"> DenseMapInfo&lt; llvm::DomTreeNodeBase</text>
<text text-anchor="start" x="1212" y="-37.89" font-family="Helvetica,sans-Serif" font-size="10.00"> &gt;, detail::DenseSetPair&lt; llvm::DomTreeNode</text>
<text text-anchor="middle" x="1336" y="-26.89" font-family="Helvetica,sans-Serif" font-size="10.00">Base &gt; &gt;, DenseMapInfo&lt; llvm::DomTreeNodeBase &gt; &gt;</text>
</g>
<!-- Node25 -->
<g id="node25" class="node">
<title>Node25</title>
<g id="a_node25"><a xlink:href="classllvm_1_1detail_1_1DenseSetImpl.html" target="_top" xlink:title="llvm::detail::DenseSetImpl\l\&lt; ValueT, SmallDenseMap\l\&lt; ValueT, detail::DenseSetEmpty,\l InlineBuckets, ValueInfoT, detail\l::DenseSetPair\&lt; ValueT \&gt; \&gt;, ValueInfoT \&gt;">
<polygon fill="none" stroke="black" points="1478,-95.39 1478,-158.39 1681,-158.39 1681,-95.39 1478,-95.39"/>
<text text-anchor="start" x="1486" y="-146.39" font-family="Helvetica,sans-Serif" font-size="10.00">llvm::detail::DenseSetImpl</text>
<text text-anchor="start" x="1486" y="-135.39" font-family="Helvetica,sans-Serif" font-size="10.00">&lt; ValueT, SmallDenseMap</text>
<text text-anchor="start" x="1486" y="-124.39" font-family="Helvetica,sans-Serif" font-size="10.00">&lt; ValueT, detail::DenseSetEmpty,</text>
<text text-anchor="start" x="1486" y="-113.39" font-family="Helvetica,sans-Serif" font-size="10.00"> InlineBuckets, ValueInfoT, detail</text>
<text text-anchor="middle" x="1579.5" y="-102.39" font-family="Helvetica,sans-Serif" font-size="10.00">::DenseSetPair&lt; ValueT &gt; &gt;, ValueInfoT &gt;</text>
</a>
</g>
</g>
<!-- Node23&#45;&gt;Node25 -->
<g id="edge33" class="edge">
<title>Node23&#45;&gt;Node25</title>
<path fill="none" stroke="orange" stroke-dasharray="5,2" d="M1167.34,-94.7C1181.75,-98.68 1197.34,-102.43 1212,-104.89 1301.12,-119.8 1403.91,-124.95 1477.91,-126.57"/>
<polygon fill="orange" stroke="orange" points="1168.15,-91.29 1157.57,-91.93 1166.24,-98.03 1168.15,-91.29"/>
<text text-anchor="start" x="1260.5" y="-173.89" font-family="Helvetica,sans-Serif" font-size="10.00"> &lt; ValueT, SmallDenseMap</text>
<text text-anchor="start" x="1260.5" y="-162.89" font-family="Helvetica,sans-Serif" font-size="10.00">&lt; ValueT, detail::DenseSetEmpty,</text>
<text text-anchor="start" x="1260.5" y="-151.89" font-family="Helvetica,sans-Serif" font-size="10.00"> InlineBuckets, ValueInfoT,</text>
<text text-anchor="start" x="1260.5" y="-140.89" font-family="Helvetica,sans-Serif" font-size="10.00"> detail::DenseSetPair&lt; ValueT</text>
<text text-anchor="middle" x="1336" y="-129.89" font-family="Helvetica,sans-Serif" font-size="10.00"> &gt; &gt;, ValueInfoT &gt;</text>
</g>
<!-- Node24 -->
<g id="node24" class="node">
<title>Node24</title>
<g id="a_node24"><a xlink:href="classllvm_1_1SmallDenseSet.html" target="_top" xlink:title="Implements a dense probed hash&#45;table based set with some number of buckets stored inline...">
<polygon fill="none" stroke="black" points="1975.5,-106.39 1975.5,-147.39 2100.5,-147.39 2100.5,-106.39 1975.5,-106.39"/>
<text text-anchor="start" x="1983.5" y="-135.39" font-family="Helvetica,sans-Serif" font-size="10.00">llvm::SmallDenseSet</text>
<text text-anchor="start" x="1983.5" y="-124.39" font-family="Helvetica,sans-Serif" font-size="10.00">&lt; ValueT, InlineBuckets,</text>
<text text-anchor="middle" x="2038" y="-113.39" font-family="Helvetica,sans-Serif" font-size="10.00"> ValueInfoT &gt;</text>
</a>
</g>
</g>
<!-- Node24&#45;&gt;Node21 -->
<g id="edge31" class="edge">
<title>Node24&#45;&gt;Node21</title>
<path fill="none" stroke="orange" stroke-dasharray="5,2" d="M2110.95,-126.89C2170.73,-126.89 2255.59,-126.89 2316.78,-126.89"/>
<polygon fill="orange" stroke="orange" points="2110.84,-123.39 2100.84,-126.89 2110.84,-130.39 2110.84,-123.39"/>
<text text-anchor="middle" x="2206.5" y="-129.89" font-family="Helvetica,sans-Serif" font-size="10.00"> &lt; llvm::DomTreeNodeBase, 8 &gt;</text>
</g>
<!-- Node25&#45;&gt;Node24 -->
<g id="edge32" class="edge">
<title>Node25&#45;&gt;Node24</title>
<path fill="none" stroke="midnightblue" d="M1691.41,-126.89C1780.66,-126.89 1902.78,-126.89 1975.41,-126.89"/>
<polygon fill="midnightblue" stroke="midnightblue" points="1691.25,-123.39 1681.25,-126.89 1691.25,-130.39 1691.25,-123.39"/>
</g>
</g>
</svg>
