<?xml version="1.0" encoding="UTF-8" standalone="no"?>
<!DOCTYPE svg PUBLIC "-//W3C//DTD SVG 1.1//EN"
 "http://www.w3.org/Graphics/SVG/1.1/DTD/svg11.dtd">
<!-- Generated by graphviz version 2.43.0 (0)
 -->
<!-- Title: llvm::ClrEHUnwindMapEntry Pages: 1 -->
<svg width="1175pt" height="167pt"
 viewBox="0.00 0.00 1175.00 167.00" xmlns="http://www.w3.org/2000/svg" xmlns:xlink="http://www.w3.org/1999/xlink">
<g id="graph0" class="graph" transform="scale(1 1) rotate(0) translate(4 163)">
<title>llvm::ClrEHUnwindMapEntry</title>
<!-- Node1 -->
<g id="node1" class="node">
<title>Node1</title>
<polygon fill="#bfbfbf" stroke="black" points="1024,-76.5 1024,-95.5 1167,-95.5 1167,-76.5 1024,-76.5"/>
<text text-anchor="middle" x="1095.5" y="-83.5" font-family="Helvetica,sans-Serif" font-size="10.00">llvm::ClrEHUnwindMapEntry</text>
</g>
<!-- Node2 -->
<g id="node2" class="node">
<title>Node2</title>
<g id="a_node2"><a xlink:href="classuint32__t.html" target="_top" xlink:title="uint32_t">
<polygon fill="none" stroke="black" points="812.5,-139.5 812.5,-158.5 863.5,-158.5 863.5,-139.5 812.5,-139.5"/>
<text text-anchor="middle" x="838" y="-146.5" font-family="Helvetica,sans-Serif" font-size="10.00">uint32_t</text>
</a>
</g>
</g>
<!-- Node2&#45;&gt;Node1 -->
<g id="edge1" class="edge">
<title>Node2&#45;&gt;Node1</title>
<path fill="none" stroke="#9a32cd" stroke-dasharray="5,2" d="M873.91,-147.12C908.12,-144.59 961.47,-138.84 1006,-126 1031.92,-118.53 1060.01,-104.77 1077.43,-95.5"/>
<polygon fill="#9a32cd" stroke="#9a32cd" points="873.25,-143.65 863.51,-147.83 873.73,-150.64 873.25,-143.65"/>
<text text-anchor="middle" x="961.5" y="-145" font-family="Helvetica,sans-Serif" font-size="10.00"> TypeToken</text>
</g>
<!-- Node3 -->
<g id="node3" class="node">
<title>Node3</title>
<polygon fill="none" stroke="#bfbfbf" points="823.5,-98.5 823.5,-117.5 852.5,-117.5 852.5,-98.5 823.5,-98.5"/>
<text text-anchor="middle" x="838" y="-105.5" font-family="Helvetica,sans-Serif" font-size="10.00">int</text>
</g>
<!-- Node3&#45;&gt;Node1 -->
<g id="edge2" class="edge">
<title>Node3&#45;&gt;Node1</title>
<path fill="none" stroke="#9a32cd" stroke-dasharray="5,2" d="M862.88,-105.94C899.3,-102.81 970.18,-96.7 1023.99,-92.07"/>
<polygon fill="#9a32cd" stroke="#9a32cd" points="862.4,-102.47 852.74,-106.82 863,-109.45 862.4,-102.47"/>
<text text-anchor="middle" x="961.5" y="-114" font-family="Helvetica,sans-Serif" font-size="10.00"> HandlerParentState</text>
<text text-anchor="middle" x="961.5" y="-103" font-family="Helvetica,sans-Serif" font-size="10.00">TryParentState</text>
</g>
<!-- Node4 -->
<g id="node4" class="node">
<title>Node4</title>
<g id="a_node4"><a xlink:href="classllvm_1_1PointerUnion.html" target="_top" xlink:title="llvm::PointerUnion\l\&lt; const BasicBlock *,\l MachineBasicBlock * \&gt;">
<polygon fill="none" stroke="black" points="777,-38.5 777,-79.5 899,-79.5 899,-38.5 777,-38.5"/>
<text text-anchor="start" x="785" y="-67.5" font-family="Helvetica,sans-Serif" font-size="10.00">llvm::PointerUnion</text>
<text text-anchor="start" x="785" y="-56.5" font-family="Helvetica,sans-Serif" font-size="10.00">&lt; const BasicBlock *,</text>
<text text-anchor="middle" x="838" y="-45.5" font-family="Helvetica,sans-Serif" font-size="10.00"> MachineBasicBlock * &gt;</text>
</a>
</g>
</g>
<!-- Node4&#45;&gt;Node1 -->
<g id="edge3" class="edge">
<title>Node4&#45;&gt;Node1</title>
<path fill="none" stroke="#9a32cd" stroke-dasharray="5,2" d="M909.53,-66.45C945.13,-70.21 988.19,-74.77 1023.8,-78.53"/>
<polygon fill="#9a32cd" stroke="#9a32cd" points="909.54,-62.93 899.23,-65.36 908.8,-69.9 909.54,-62.93"/>
<text text-anchor="middle" x="961.5" y="-79" font-family="Helvetica,sans-Serif" font-size="10.00"> Handler</text>
</g>
<!-- Node5 -->
<g id="node5" class="node">
<title>Node5</title>
<g id="a_node5"><a xlink:href="classllvm_1_1pointer__union__detail_1_1PointerUnionMembers.html" target="_top" xlink:title="llvm::pointer_union\l_detail::PointerUnionMembers\l\&lt; PointerUnion\&lt; PTs... \&gt;,\l PointerIntPair\&lt; void *, pointer\l_union_detail::bitsRequired(sizeof...\l(PTs)), int, pointer_union_detail::\lPointerUnionUIntTraits\&lt; PTs... \&gt; \&gt;,\l 0, PTs... \&gt;">
<polygon fill="none" stroke="black" points="319,-9 319,-105 492,-105 492,-9 319,-9"/>
<text text-anchor="start" x="327" y="-93" font-family="Helvetica,sans-Serif" font-size="10.00">llvm::pointer_union</text>
<text text-anchor="start" x="327" y="-82" font-family="Helvetica,sans-Serif" font-size="10.00">_detail::PointerUnionMembers</text>
<text text-anchor="start" x="327" y="-71" font-family="Helvetica,sans-Serif" font-size="10.00">&lt; PointerUnion&lt; PTs... &gt;,</text>
<text text-anchor="start" x="327" y="-60" font-family="Helvetica,sans-Serif" font-size="10.00"> PointerIntPair&lt; void *, pointer</text>
<text text-anchor="start" x="327" y="-49" font-family="Helvetica,sans-Serif" font-size="10.00">_union_detail::bitsRequired(sizeof...</text>
<text text-anchor="start" x="327" y="-38" font-family="Helvetica,sans-Serif" font-size="10.00">(PTs)), int, pointer_union_detail::</text>
<text text-anchor="start" x="327" y="-27" font-family="Helvetica,sans-Serif" font-size="10.00">PointerUnionUIntTraits&lt; PTs... &gt; &gt;,</text>
<text text-anchor="middle" x="405.5" y="-16" font-family="Helvetica,sans-Serif" font-size="10.00"> 0, PTs... &gt;</text>
</a>
</g>
</g>
<!-- Node5&#45;&gt;Node4 -->
<g id="edge4" class="edge">
<title>Node5&#45;&gt;Node4</title>
<path fill="none" stroke="midnightblue" d="M502.61,-62.35C573.49,-65.52 672.28,-68.33 759,-65 764.84,-64.78 770.91,-64.46 776.98,-64.08"/>
<polygon fill="midnightblue" stroke="midnightblue" points="502.51,-58.84 492.36,-61.88 502.19,-65.83 502.51,-58.84"/>
</g>
<!-- Node7 -->
<g id="node7" class="node">
<title>Node7</title>
<g id="a_node7"><a xlink:href="classllvm_1_1PointerUnion.html" target="_top" xlink:title="A discriminated union of two or more pointer types, with the discriminator in the low bit of the poin...">
<polygon fill="none" stroke="black" points="529,-20 529,-50 626,-50 626,-20 529,-20"/>
<text text-anchor="start" x="537" y="-38" font-family="Helvetica,sans-Serif" font-size="10.00">llvm::PointerUnion</text>
<text text-anchor="middle" x="577.5" y="-27" font-family="Helvetica,sans-Serif" font-size="10.00">&lt; PTs &gt;</text>
</a>
</g>
</g>
<!-- Node5&#45;&gt;Node7 -->
<g id="edge7" class="edge">
<title>Node5&#45;&gt;Node7</title>
<path fill="none" stroke="midnightblue" d="M502.44,-44.58C511.57,-43.4 520.52,-42.24 528.88,-41.16"/>
<polygon fill="midnightblue" stroke="midnightblue" points="501.96,-41.12 492.5,-45.87 502.86,-48.06 501.96,-41.12"/>
</g>
<!-- Node6 -->
<g id="node6" class="node">
<title>Node6</title>
<g id="a_node6"><a xlink:href="classllvm_1_1pointer__union__detail_1_1PointerUnionMembers.html" target="_top" xlink:title="llvm::pointer_union\l_detail::PointerUnionMembers\l\&lt; Derived, ValTy, I, Types \&gt;">
<polygon fill="none" stroke="black" points="0,-36.5 0,-77.5 148,-77.5 148,-36.5 0,-36.5"/>
<text text-anchor="start" x="8" y="-65.5" font-family="Helvetica,sans-Serif" font-size="10.00">llvm::pointer_union</text>
<text text-anchor="start" x="8" y="-54.5" font-family="Helvetica,sans-Serif" font-size="10.00">_detail::PointerUnionMembers</text>
<text text-anchor="middle" x="74" y="-43.5" font-family="Helvetica,sans-Serif" font-size="10.00">&lt; Derived, ValTy, I, Types &gt;</text>
</a>
</g>
</g>
<!-- Node6&#45;&gt;Node5 -->
<g id="edge5" class="edge">
<title>Node6&#45;&gt;Node5</title>
<path fill="none" stroke="orange" stroke-dasharray="5,2" d="M158.39,-57C207.43,-57 269.3,-57 318.75,-57"/>
<polygon fill="orange" stroke="orange" points="158.13,-53.5 148.13,-57 158.13,-60.5 158.13,-53.5"/>
<text text-anchor="start" x="166" y="-126" font-family="Helvetica,sans-Serif" font-size="10.00"> &lt; PointerUnion&lt; PTs...</text>
<text text-anchor="start" x="166" y="-115" font-family="Helvetica,sans-Serif" font-size="10.00"> &gt;, PointerIntPair&lt; void</text>
<text text-anchor="start" x="166" y="-104" font-family="Helvetica,sans-Serif" font-size="10.00"> *, pointer_union_detail</text>
<text text-anchor="start" x="166" y="-93" font-family="Helvetica,sans-Serif" font-size="10.00">::bitsRequired(sizeof...</text>
<text text-anchor="start" x="166" y="-82" font-family="Helvetica,sans-Serif" font-size="10.00">(PTs)), int, pointer_union</text>
<text text-anchor="start" x="166" y="-71" font-family="Helvetica,sans-Serif" font-size="10.00">_detail::PointerUnionUIntTraits</text>
<text text-anchor="middle" x="233.5" y="-60" font-family="Helvetica,sans-Serif" font-size="10.00">&lt; PTs... &gt; &gt;, 0, PTs... &gt;</text>
</g>
<!-- Node7&#45;&gt;Node4 -->
<g id="edge6" class="edge">
<title>Node7&#45;&gt;Node4</title>
<path fill="none" stroke="orange" stroke-dasharray="5,2" d="M636.36,-35.24C671.87,-35.97 718.2,-37.94 759,-43 764.76,-43.71 770.73,-44.62 776.69,-45.65"/>
<polygon fill="orange" stroke="orange" points="636.24,-31.74 626.18,-35.06 636.11,-38.74 636.24,-31.74"/>
<text text-anchor="start" x="644" y="-57" font-family="Helvetica,sans-Serif" font-size="10.00"> &lt; const BasicBlock</text>
<text text-anchor="middle" x="701.5" y="-46" font-family="Helvetica,sans-Serif" font-size="10.00"> *, MachineBasicBlock * &gt;</text>
</g>
<!-- Node8 -->
<g id="node8" class="node">
<title>Node8</title>
<polygon fill="none" stroke="#bfbfbf" points="795.5,-0.5 795.5,-19.5 880.5,-19.5 880.5,-0.5 795.5,-0.5"/>
<text text-anchor="middle" x="838" y="-7.5" font-family="Helvetica,sans-Serif" font-size="10.00">ClrHandlerType</text>
</g>
<!-- Node8&#45;&gt;Node1 -->
<g id="edge8" class="edge">
<title>Node8&#45;&gt;Node1</title>
<path fill="none" stroke="#9a32cd" stroke-dasharray="5,2" d="M890.52,-21.27C923.76,-28.95 967.77,-39.9 1006,-52 1028.75,-59.2 1054.12,-69.15 1071.85,-76.43"/>
<polygon fill="#9a32cd" stroke="#9a32cd" points="891.09,-17.81 880.57,-18.99 889.53,-24.63 891.09,-17.81"/>
<text text-anchor="middle" x="961.5" y="-55" font-family="Helvetica,sans-Serif" font-size="10.00"> HandlerType</text>
</g>
</g>
</svg>
