<?xml version="1.0" encoding="UTF-8" standalone="no"?>
<!DOCTYPE svg PUBLIC "-//W3C//DTD SVG 1.1//EN"
 "http://www.w3.org/Graphics/SVG/1.1/DTD/svg11.dtd">
<!-- Generated by graphviz version 2.43.0 (0)
 -->
<!-- Title: llvm::codeview::InlineeSourceLineHeader Pages: 1 -->
<svg width="582pt" height="88pt"
 viewBox="0.00 0.00 582.00 88.00" xmlns="http://www.w3.org/2000/svg" xmlns:xlink="http://www.w3.org/1999/xlink">
<g id="graph0" class="graph" transform="scale(1 1) rotate(0) translate(4 84)">
<title>llvm::codeview::InlineeSourceLineHeader</title>
<!-- Node1 -->
<g id="node1" class="node">
<title>Node1</title>
<polygon fill="#bfbfbf" stroke="black" points="427,-20 427,-50 574,-50 574,-20 427,-20"/>
<text text-anchor="start" x="435" y="-38" font-family="Helvetica,sans-Serif" font-size="10.00">llvm::codeview::InlineeSource</text>
<text text-anchor="middle" x="500.5" y="-27" font-family="Helvetica,sans-Serif" font-size="10.00">LineHeader</text>
</g>
<!-- Node2 -->
<g id="node2" class="node">
<title>Node2</title>
<polygon fill="none" stroke="#bfbfbf" points="189,-38.5 189,-79.5 313,-79.5 313,-38.5 189,-38.5"/>
<text text-anchor="start" x="197" y="-67.5" font-family="Helvetica,sans-Serif" font-size="10.00">packed_endian_specific</text>
<text text-anchor="start" x="197" y="-56.5" font-family="Helvetica,sans-Serif" font-size="10.00">_integral&lt; uint32_t, little,</text>
<text text-anchor="middle" x="251" y="-45.5" font-family="Helvetica,sans-Serif" font-size="10.00"> unaligned &gt;</text>
</g>
<!-- Node2&#45;&gt;Node1 -->
<g id="edge1" class="edge">
<title>Node2&#45;&gt;Node1</title>
<path fill="none" stroke="#9a32cd" stroke-dasharray="5,2" d="M323.48,-52.07C355.88,-48.93 394.15,-45.22 426.71,-42.06"/>
<polygon fill="#9a32cd" stroke="#9a32cd" points="322.8,-48.62 313.18,-53.07 323.47,-55.59 322.8,-48.62"/>
<text text-anchor="middle" x="372.5" y="-64" font-family="Helvetica,sans-Serif" font-size="10.00"> SourceLineNum</text>
<text text-anchor="middle" x="372.5" y="-53" font-family="Helvetica,sans-Serif" font-size="10.00">FileID</text>
</g>
<!-- Node3 -->
<g id="node3" class="node">
<title>Node3</title>
<g id="a_node3"><a xlink:href="classllvm_1_1codeview_1_1TypeIndex.html" target="_top" xlink:title="A 32&#45;bit type reference. ">
<polygon fill="none" stroke="black" points="184,-0.5 184,-19.5 318,-19.5 318,-0.5 184,-0.5"/>
<text text-anchor="middle" x="251" y="-7.5" font-family="Helvetica,sans-Serif" font-size="10.00">llvm::codeview::TypeIndex</text>
</a>
</g>
</g>
<!-- Node3&#45;&gt;Node1 -->
<g id="edge2" class="edge">
<title>Node3&#45;&gt;Node1</title>
<path fill="none" stroke="#9a32cd" stroke-dasharray="5,2" d="M328.01,-17.68C359.42,-20.85 395.66,-24.51 426.72,-27.65"/>
<polygon fill="#9a32cd" stroke="#9a32cd" points="328.3,-14.19 318,-16.67 327.6,-21.15 328.3,-14.19"/>
<text text-anchor="middle" x="372.5" y="-28" font-family="Helvetica,sans-Serif" font-size="10.00"> Inlinee</text>
</g>
<!-- Node4 -->
<g id="node4" class="node">
<title>Node4</title>
<g id="a_node4"><a xlink:href="classuint32__t.html" target="_top" xlink:title="uint32_t">
<polygon fill="none" stroke="black" points="0,-0.5 0,-19.5 51,-19.5 51,-0.5 0,-0.5"/>
<text text-anchor="middle" x="25.5" y="-7.5" font-family="Helvetica,sans-Serif" font-size="10.00">uint32_t</text>
</a>
</g>
</g>
<!-- Node4&#45;&gt;Node3 -->
<g id="edge3" class="edge">
<title>Node4&#45;&gt;Node3</title>
<path fill="none" stroke="#9a32cd" stroke-dasharray="5,2" d="M61.65,-10C94.27,-10 143.67,-10 183.69,-10"/>
<polygon fill="#9a32cd" stroke="#9a32cd" points="61.27,-6.5 51.27,-10 61.27,-13.5 61.27,-6.5"/>
<text text-anchor="middle" x="117.5" y="-46" font-family="Helvetica,sans-Serif" font-size="10.00"> SimpleModeMask</text>
<text text-anchor="middle" x="117.5" y="-35" font-family="Helvetica,sans-Serif" font-size="10.00">SimpleKindMask</text>
<text text-anchor="middle" x="117.5" y="-24" font-family="Helvetica,sans-Serif" font-size="10.00">FirstNonSimpleIndex</text>
<text text-anchor="middle" x="117.5" y="-13" font-family="Helvetica,sans-Serif" font-size="10.00">DecoratedItemIdMask</text>
</g>
</g>
</svg>
