<?xml version="1.0" encoding="UTF-8" standalone="no"?>
<!DOCTYPE svg PUBLIC "-//W3C//DTD SVG 1.1//EN"
 "http://www.w3.org/Graphics/SVG/1.1/DTD/svg11.dtd">
<!-- Generated by graphviz version 2.43.0 (0)
 -->
<!-- Title: llvm::MachO::dylib_command Pages: 1 -->
<svg width="213pt" height="208pt"
 viewBox="0.00 0.00 213.00 208.00" xmlns="http://www.w3.org/2000/svg" xmlns:xlink="http://www.w3.org/1999/xlink">
<g id="graph0" class="graph" transform="scale(1 1) rotate(0) translate(4 204)">
<title>llvm::MachO::dylib_command</title>
<!-- Node1 -->
<g id="node1" class="node">
<title>Node1</title>
<polygon fill="#bfbfbf" stroke="black" points="0,-0.5 0,-30.5 98,-30.5 98,-0.5 0,-0.5"/>
<text text-anchor="start" x="8" y="-18.5" font-family="Helvetica,sans-Serif" font-size="10.00">llvm::MachO::dylib</text>
<text text-anchor="middle" x="49" y="-7.5" font-family="Helvetica,sans-Serif" font-size="10.00">_command</text>
</g>
<!-- Node2 -->
<g id="node2" class="node">
<title>Node2</title>
<g id="a_node2"><a xlink:href="classuint32__t.html" target="_top" xlink:title="uint32_t">
<polygon fill="none" stroke="black" points="23.5,-180.5 23.5,-199.5 74.5,-199.5 74.5,-180.5 23.5,-180.5"/>
<text text-anchor="middle" x="49" y="-187.5" font-family="Helvetica,sans-Serif" font-size="10.00">uint32_t</text>
</a>
</g>
</g>
<!-- Node2&#45;&gt;Node1 -->
<g id="edge1" class="edge">
<title>Node2&#45;&gt;Node1</title>
<path fill="none" stroke="#9a32cd" stroke-dasharray="5,2" d="M46.47,-170.39C43.78,-148.34 40.16,-110.5 42,-78 42.93,-61.69 45.22,-43.07 46.93,-30.63"/>
<polygon fill="#9a32cd" stroke="#9a32cd" points="43,-170.9 47.75,-180.37 49.94,-170 43,-170.9"/>
<text text-anchor="middle" x="60.5" y="-92" font-family="Helvetica,sans-Serif" font-size="10.00"> cmd</text>
<text text-anchor="middle" x="60.5" y="-81" font-family="Helvetica,sans-Serif" font-size="10.00">cmdsize</text>
</g>
<!-- Node3 -->
<g id="node3" class="node">
<title>Node3</title>
<g id="a_node3"><a xlink:href="structllvm_1_1MachO_1_1dylib.html" target="_top" xlink:title="llvm::MachO::dylib">
<polygon fill="none" stroke="black" points="88,-79.5 88,-98.5 186,-98.5 186,-79.5 88,-79.5"/>
<text text-anchor="middle" x="137" y="-86.5" font-family="Helvetica,sans-Serif" font-size="10.00">llvm::MachO::dylib</text>
</a>
</g>
</g>
<!-- Node2&#45;&gt;Node3 -->
<g id="edge3" class="edge">
<title>Node2&#45;&gt;Node3</title>
<path fill="none" stroke="#9a32cd" stroke-dasharray="5,2" d="M63.55,-172.63C82.42,-151.4 114.67,-115.12 129.33,-98.62"/>
<polygon fill="#9a32cd" stroke="#9a32cd" points="60.84,-170.42 56.81,-180.21 66.07,-175.07 60.84,-170.42"/>
<text text-anchor="middle" x="157.5" y="-154" font-family="Helvetica,sans-Serif" font-size="10.00"> compatibility_version</text>
<text text-anchor="middle" x="157.5" y="-143" font-family="Helvetica,sans-Serif" font-size="10.00">current_version</text>
<text text-anchor="middle" x="157.5" y="-132" font-family="Helvetica,sans-Serif" font-size="10.00">name</text>
<text text-anchor="middle" x="157.5" y="-121" font-family="Helvetica,sans-Serif" font-size="10.00">timestamp</text>
</g>
<!-- Node3&#45;&gt;Node1 -->
<g id="edge2" class="edge">
<title>Node3&#45;&gt;Node1</title>
<path fill="none" stroke="#9a32cd" stroke-dasharray="5,2" d="M118.38,-72.87C102.97,-60.35 81.26,-42.71 66.24,-30.51"/>
<polygon fill="#9a32cd" stroke="#9a32cd" points="116.24,-75.64 126.21,-79.23 120.66,-70.21 116.24,-75.64"/>
<text text-anchor="middle" x="112" y="-52" font-family="Helvetica,sans-Serif" font-size="10.00"> dylib</text>
</g>
</g>
</svg>
