<?xml version="1.0" encoding="UTF-8" standalone="no"?>
<!DOCTYPE svg PUBLIC "-//W3C//DTD SVG 1.1//EN"
 "http://www.w3.org/Graphics/SVG/1.1/DTD/svg11.dtd">
<!-- Generated by graphviz version 2.43.0 (0)
 -->
<!-- Title: llvm::SelectionDAG::DAGNodeDeletedListener Pages: 1 -->
<svg width="853pt" height="132pt"
 viewBox="0.00 0.00 853.00 132.00" xmlns="http://www.w3.org/2000/svg" xmlns:xlink="http://www.w3.org/1999/xlink">
<g id="graph0" class="graph" transform="scale(1 1) rotate(0) translate(4 128)">
<title>llvm::SelectionDAG::DAGNodeDeletedListener</title>
<!-- Node2 -->
<g id="node1" class="node">
<title>Node2</title>
<polygon fill="#bfbfbf" stroke="black" points="709,-13.5 709,-43.5 845,-43.5 845,-13.5 709,-13.5"/>
<text text-anchor="start" x="717" y="-31.5" font-family="Helvetica,sans-Serif" font-size="10.00">llvm::SelectionDAG</text>
<text text-anchor="middle" x="777" y="-20.5" font-family="Helvetica,sans-Serif" font-size="10.00">::DAGNodeDeletedListener</text>
</g>
<!-- Node3 -->
<g id="node2" class="node">
<title>Node3</title>
<g id="a_node2"><a xlink:href="structllvm_1_1SelectionDAG_1_1DAGUpdateListener.html" target="_top" xlink:title="Clients of various APIs that cause global effects on the DAG can optionally implement this interface...">
<polygon fill="none" stroke="black" points="501,-49.5 501,-79.5 611,-79.5 611,-49.5 501,-49.5"/>
<text text-anchor="start" x="509" y="-67.5" font-family="Helvetica,sans-Serif" font-size="10.00">llvm::SelectionDAG</text>
<text text-anchor="middle" x="556" y="-56.5" font-family="Helvetica,sans-Serif" font-size="10.00">::DAGUpdateListener</text>
</a>
</g>
</g>
<!-- Node3&#45;&gt;Node2 -->
<g id="edge1" class="edge">
<title>Node3&#45;&gt;Node2</title>
<path fill="none" stroke="midnightblue" d="M621.06,-53.97C648.63,-49.44 680.87,-44.14 708.78,-39.55"/>
<polygon fill="midnightblue" stroke="midnightblue" points="620.43,-50.53 611.13,-55.6 621.57,-57.43 620.43,-50.53"/>
</g>
<!-- Node3&#45;&gt;Node3 -->
<g id="edge6" class="edge">
<title>Node3&#45;&gt;Node3</title>
<path fill="none" stroke="#9a32cd" stroke-dasharray="5,2" d="M537.52,-89.96C539.81,-94.68 545.97,-98 556,-98 572.45,-98 578.49,-89.06 574.12,-79.66"/>
<polygon fill="#9a32cd" stroke="#9a32cd" points="541.03,-89.77 537.88,-79.66 534.03,-89.53 541.03,-89.77"/>
<text text-anchor="middle" x="556" y="-101" font-family="Helvetica,sans-Serif" font-size="10.00"> Next</text>
</g>
<!-- Node4 -->
<g id="node3" class="node">
<title>Node4</title>
<g id="a_node3"><a xlink:href="classllvm_1_1SelectionDAG.html" target="_top" xlink:title="This is used to represent a portion of an LLVM function in a low&#45;level Data Dependence DAG representa...">
<polygon fill="none" stroke="black" points="317,-55 317,-74 420,-74 420,-55 317,-55"/>
<text text-anchor="middle" x="368.5" y="-62" font-family="Helvetica,sans-Serif" font-size="10.00">llvm::SelectionDAG</text>
</a>
</g>
</g>
<!-- Node4&#45;&gt;Node3 -->
<g id="edge2" class="edge">
<title>Node4&#45;&gt;Node3</title>
<path fill="none" stroke="#9a32cd" stroke-dasharray="5,2" d="M430.4,-64.5C453.11,-64.5 478.73,-64.5 500.8,-64.5"/>
<polygon fill="#9a32cd" stroke="#9a32cd" points="430.19,-61 420.19,-64.5 430.19,-68 430.19,-61"/>
<text text-anchor="middle" x="450.5" y="-67.5" font-family="Helvetica,sans-Serif" font-size="10.00"> DAG</text>
</g>
<!-- Node5 -->
<g id="node4" class="node">
<title>Node5</title>
<polygon fill="none" stroke="#bfbfbf" points="0,-93.5 0,-123.5 133,-123.5 133,-93.5 0,-93.5"/>
<text text-anchor="start" x="8" y="-111.5" font-family="Helvetica,sans-Serif" font-size="10.00">map&lt; const llvm::SDNode</text>
<text text-anchor="middle" x="66.5" y="-100.5" font-family="Helvetica,sans-Serif" font-size="10.00"> *, std::string &gt;</text>
</g>
<!-- Node5&#45;&gt;Node4 -->
<g id="edge3" class="edge">
<title>Node5&#45;&gt;Node4</title>
<path fill="none" stroke="#9a32cd" stroke-dasharray="5,2" d="M143.15,-100.78C188.5,-95.72 247.23,-88.39 299,-79.5 308,-77.95 317.6,-76.03 326.69,-74.07"/>
<polygon fill="#9a32cd" stroke="#9a32cd" points="142.65,-97.32 133.09,-101.89 143.42,-104.27 142.65,-97.32"/>
<text text-anchor="middle" x="225" y="-101.5" font-family="Helvetica,sans-Serif" font-size="10.00"> NodeGraphAttrs</text>
</g>
<!-- Node6 -->
<g id="node5" class="node">
<title>Node6</title>
<g id="a_node5"><a xlink:href="classbool.html" target="_top" xlink:title="bool">
<polygon fill="none" stroke="black" points="49,-55 49,-74 84,-74 84,-55 49,-55"/>
<text text-anchor="middle" x="66.5" y="-62" font-family="Helvetica,sans-Serif" font-size="10.00">bool</text>
</a>
</g>
</g>
<!-- Node6&#45;&gt;Node4 -->
<g id="edge4" class="edge">
<title>Node6&#45;&gt;Node4</title>
<path fill="none" stroke="#9a32cd" stroke-dasharray="5,2" d="M94.37,-64.5C144.4,-64.5 252.59,-64.5 316.77,-64.5"/>
<polygon fill="#9a32cd" stroke="#9a32cd" points="94.06,-61 84.06,-64.5 94.06,-68 94.06,-61"/>
<text text-anchor="middle" x="225" y="-67.5" font-family="Helvetica,sans-Serif" font-size="10.00"> NewNodesMustHaveLegalTypes</text>
</g>
<!-- Node7 -->
<g id="node6" class="node">
<title>Node7</title>
<g id="a_node6"><a xlink:href="classunsigned.html" target="_top" xlink:title="unsigned">
<polygon fill="none" stroke="black" points="38.5,-17 38.5,-36 94.5,-36 94.5,-17 38.5,-17"/>
<text text-anchor="middle" x="66.5" y="-24" font-family="Helvetica,sans-Serif" font-size="10.00">unsigned</text>
</a>
</g>
</g>
<!-- Node7&#45;&gt;Node4 -->
<g id="edge5" class="edge">
<title>Node7&#45;&gt;Node4</title>
<path fill="none" stroke="#9a32cd" stroke-dasharray="5,2" d="M104.8,-28.86C150.69,-32.08 230.91,-38.7 299,-49.5 308.38,-50.99 318.4,-52.96 327.8,-54.99"/>
<polygon fill="#9a32cd" stroke="#9a32cd" points="104.93,-25.36 94.72,-28.17 104.46,-32.35 104.93,-25.36"/>
<text text-anchor="middle" x="225" y="-52.5" font-family="Helvetica,sans-Serif" font-size="10.00"> MaxRecursionDepth</text>
</g>
<!-- Node8 -->
<g id="node7" class="node">
<title>Node8</title>
<polygon fill="none" stroke="#bfbfbf" points="481,-0.5 481,-30.5 631,-30.5 631,-0.5 481,-0.5"/>
<text text-anchor="start" x="489" y="-18.5" font-family="Helvetica,sans-Serif" font-size="10.00">function&lt; void(llvm</text>
<text text-anchor="middle" x="556" y="-7.5" font-family="Helvetica,sans-Serif" font-size="10.00">::SDNode *, llvm::SDNode *)&gt;</text>
</g>
<!-- Node8&#45;&gt;Node2 -->
<g id="edge7" class="edge">
<title>Node8&#45;&gt;Node2</title>
<path fill="none" stroke="#9a32cd" stroke-dasharray="5,2" d="M641.31,-20.5C663.71,-21.83 687.59,-23.25 708.93,-24.52"/>
<polygon fill="#9a32cd" stroke="#9a32cd" points="641.33,-17 631.14,-19.9 640.92,-23.99 641.33,-17"/>
<text text-anchor="middle" x="670" y="-26.5" font-family="Helvetica,sans-Serif" font-size="10.00"> Callback</text>
</g>
</g>
</svg>
