<?xml version="1.0" encoding="UTF-8" standalone="no"?>
<!DOCTYPE svg PUBLIC "-//W3C//DTD SVG 1.1//EN"
 "http://www.w3.org/Graphics/SVG/1.1/DTD/svg11.dtd">
<!-- Generated by graphviz version 2.43.0 (0)
 -->
<!-- Title: include/llvm/Testing/Support/SupportHelpers.h Pages: 1 -->
<svg width="4392pt" height="554pt"
 viewBox="0.00 0.00 4391.54 554.00" xmlns="http://www.w3.org/2000/svg" xmlns:xlink="http://www.w3.org/1999/xlink">
<g id="graph0" class="graph" transform="scale(1 1) rotate(0) translate(4 550)">
<title>include/llvm/Testing/Support/SupportHelpers.h</title>
<!-- Node0 -->
<g id="node1" class="node">
<title>Node0</title>
<polygon fill="#bfbfbf" stroke="black" points="3953.04,-515.5 3953.04,-545.5 4085.04,-545.5 4085.04,-515.5 3953.04,-515.5"/>
<text text-anchor="start" x="3961.04" y="-533.5" font-family="Helvetica,sans-Serif" font-size="10.00">include/llvm/Testing</text>
<text text-anchor="middle" x="4019.04" y="-522.5" font-family="Helvetica,sans-Serif" font-size="10.00">/Support/SupportHelpers.h</text>
</g>
<!-- Node1 -->
<g id="node2" class="node">
<title>Node1</title>
<g id="a_node2"><a xlink:href="Optional_8h.html" target="_top" xlink:title="llvm/ADT/Optional.h">
<polygon fill="none" stroke="black" points="1546.54,-168.5 1546.54,-187.5 1651.54,-187.5 1651.54,-168.5 1546.54,-168.5"/>
<text text-anchor="middle" x="1599.04" y="-175.5" font-family="Helvetica,sans-Serif" font-size="10.00">llvm/ADT/Optional.h</text>
</a>
</g>
</g>
<!-- Node0&#45;&gt;Node1 -->
<g id="edge1" class="edge">
<title>Node0&#45;&gt;Node1</title>
<path fill="none" stroke="midnightblue" d="M3952.77,-528.9C3631.58,-525.84 2244.3,-510.89 2054.04,-479 1972.66,-465.36 1948.91,-463.52 1877.04,-423 1761.14,-357.65 1650.75,-238.26 1612.86,-195.1"/>
<polygon fill="midnightblue" stroke="midnightblue" points="1615.48,-192.77 1606.27,-187.53 1610.19,-197.37 1615.48,-192.77"/>
</g>
<!-- Node12 -->
<g id="node13" class="node">
<title>Node12</title>
<g id="a_node13"><a xlink:href="SmallString_8h.html" target="_top" xlink:title="llvm/ADT/SmallString.h">
<polygon fill="none" stroke="black" points="1984.54,-336.5 1984.54,-355.5 2103.54,-355.5 2103.54,-336.5 1984.54,-336.5"/>
<text text-anchor="middle" x="2044.04" y="-343.5" font-family="Helvetica,sans-Serif" font-size="10.00">llvm/ADT/SmallString.h</text>
</a>
</g>
</g>
<!-- Node0&#45;&gt;Node12 -->
<g id="edge14" class="edge">
<title>Node0&#45;&gt;Node12</title>
<path fill="none" stroke="midnightblue" d="M3952.79,-528.75C3600.61,-524.44 1961.18,-500.28 1889.04,-423 1857.51,-389.23 1920.15,-368.57 1974.99,-357.48"/>
<polygon fill="midnightblue" stroke="midnightblue" points="1975.96,-360.86 1985.11,-355.52 1974.63,-353.98 1975.96,-360.86"/>
</g>
<!-- Node33 -->
<g id="node25" class="node">
<title>Node33</title>
<polygon fill="none" stroke="#bfbfbf" points="3879.54,-56.5 3879.54,-75.5 3920.54,-75.5 3920.54,-56.5 3879.54,-56.5"/>
<text text-anchor="middle" x="3900.04" y="-63.5" font-family="Helvetica,sans-Serif" font-size="10.00">string</text>
</g>
<!-- Node0&#45;&gt;Node33 -->
<g id="edge168" class="edge">
<title>Node0&#45;&gt;Node33</title>
<path fill="none" stroke="midnightblue" d="M4037.01,-515.18C4060.88,-494.42 4100.04,-453.5 4100.04,-408.5 4100.04,-408.5 4100.04,-408.5 4100.04,-177 4100.04,-100.68 3986.85,-76.94 3930.77,-69.86"/>
<polygon fill="midnightblue" stroke="midnightblue" points="3931.02,-66.36 3920.69,-68.69 3930.22,-73.32 3931.02,-66.36"/>
</g>
<!-- Node43 -->
<g id="node35" class="node">
<title>Node43</title>
<g id="a_node35"><a xlink:href="Support_2Error_8h.html" target="_top" xlink:title="llvm/Support/Error.h">
<polygon fill="none" stroke="black" points="2712.04,-459.5 2712.04,-478.5 2816.04,-478.5 2816.04,-459.5 2712.04,-459.5"/>
<text text-anchor="middle" x="2764.04" y="-466.5" font-family="Helvetica,sans-Serif" font-size="10.00">llvm/Support/Error.h</text>
</a>
</g>
</g>
<!-- Node0&#45;&gt;Node43 -->
<g id="edge86" class="edge">
<title>Node0&#45;&gt;Node43</title>
<path fill="none" stroke="midnightblue" d="M3952.89,-526.36C3734.53,-516.01 3038.52,-483.01 2826.15,-472.94"/>
<polygon fill="midnightblue" stroke="midnightblue" points="2826.27,-469.45 2816.11,-472.47 2825.94,-476.44 2826.27,-469.45"/>
</g>
<!-- Node58 -->
<g id="node47" class="node">
<title>Node58</title>
<g id="a_node47"><a xlink:href="raw__os__ostream_8h.html" target="_top" xlink:title="llvm/Support/raw_os\l_ostream.h">
<polygon fill="none" stroke="black" points="3966.04,-392.5 3966.04,-422.5 4072.04,-422.5 4072.04,-392.5 3966.04,-392.5"/>
<text text-anchor="start" x="3974.04" y="-410.5" font-family="Helvetica,sans-Serif" font-size="10.00">llvm/Support/raw_os</text>
<text text-anchor="middle" x="4019.04" y="-399.5" font-family="Helvetica,sans-Serif" font-size="10.00">_ostream.h</text>
</a>
</g>
</g>
<!-- Node0&#45;&gt;Node58 -->
<g id="edge163" class="edge">
<title>Node0&#45;&gt;Node58</title>
<path fill="none" stroke="midnightblue" d="M4019.04,-515.14C4019.04,-494.86 4019.04,-457.53 4019.04,-432.86"/>
<polygon fill="midnightblue" stroke="midnightblue" points="4022.54,-432.84 4019.04,-422.84 4015.54,-432.84 4022.54,-432.84"/>
</g>
<!-- Node60 -->
<g id="node49" class="node">
<title>Node60</title>
<polygon fill="none" stroke="#bfbfbf" points="4128.04,-459.5 4128.04,-478.5 4258.04,-478.5 4258.04,-459.5 4128.04,-459.5"/>
<text text-anchor="middle" x="4193.04" y="-466.5" font-family="Helvetica,sans-Serif" font-size="10.00">gmock/gmock&#45;matchers.h</text>
</g>
<!-- Node0&#45;&gt;Node60 -->
<g id="edge166" class="edge">
<title>Node0&#45;&gt;Node60</title>
<path fill="none" stroke="midnightblue" d="M4060.27,-515.4C4090.21,-505.16 4130.25,-491.47 4158.5,-481.81"/>
<polygon fill="midnightblue" stroke="midnightblue" points="4159.64,-485.12 4167.97,-478.57 4157.38,-478.49 4159.64,-485.12"/>
</g>
<!-- Node61 -->
<g id="node50" class="node">
<title>Node61</title>
<polygon fill="none" stroke="#bfbfbf" points="4276.54,-459.5 4276.54,-478.5 4383.54,-478.5 4383.54,-459.5 4276.54,-459.5"/>
<text text-anchor="middle" x="4330.04" y="-466.5" font-family="Helvetica,sans-Serif" font-size="10.00">gtest/gtest&#45;printers.h</text>
</g>
<!-- Node0&#45;&gt;Node61 -->
<g id="edge167" class="edge">
<title>Node0&#45;&gt;Node61</title>
<path fill="none" stroke="midnightblue" d="M4085.37,-516.81C4142.02,-505.97 4222.51,-490.57 4275.48,-480.44"/>
<polygon fill="midnightblue" stroke="midnightblue" points="4276.2,-483.86 4285.36,-478.55 4274.88,-476.99 4276.2,-483.86"/>
</g>
<!-- Node2 -->
<g id="node3" class="node">
<title>Node2</title>
<g id="a_node3"><a xlink:href="None_8h.html" target="_top" xlink:title="llvm/ADT/None.h">
<polygon fill="none" stroke="black" points="652.04,-112.5 652.04,-131.5 744.04,-131.5 744.04,-112.5 652.04,-112.5"/>
<text text-anchor="middle" x="698.04" y="-119.5" font-family="Helvetica,sans-Serif" font-size="10.00">llvm/ADT/None.h</text>
</a>
</g>
</g>
<!-- Node1&#45;&gt;Node2 -->
<g id="edge2" class="edge">
<title>Node1&#45;&gt;Node2</title>
<path fill="none" stroke="midnightblue" d="M1546.52,-174.82C1417.7,-169.31 1075.77,-153.7 791.04,-132 779.16,-131.09 766.44,-129.97 754.35,-128.82"/>
<polygon fill="midnightblue" stroke="midnightblue" points="754.65,-125.34 744.36,-127.86 753.98,-132.3 754.65,-125.34"/>
</g>
<!-- Node3 -->
<g id="node4" class="node">
<title>Node3</title>
<g id="a_node4"><a xlink:href="Compiler_8h.html" target="_top" xlink:title="llvm/Support/Compiler.h">
<polygon fill="none" stroke="black" points="2177.04,-56.5 2177.04,-75.5 2299.04,-75.5 2299.04,-56.5 2177.04,-56.5"/>
<text text-anchor="middle" x="2238.04" y="-63.5" font-family="Helvetica,sans-Serif" font-size="10.00">llvm/Support/Compiler.h</text>
</a>
</g>
</g>
<!-- Node1&#45;&gt;Node3 -->
<g id="edge3" class="edge">
<title>Node1&#45;&gt;Node3</title>
<path fill="none" stroke="midnightblue" d="M1597.97,-168.24C1596.78,-154.01 1596.83,-126.08 1613.04,-112 1654.03,-76.39 2011.26,-68.95 2166.51,-67.4"/>
<polygon fill="midnightblue" stroke="midnightblue" points="2166.92,-70.9 2176.88,-67.31 2166.85,-63.9 2166.92,-70.9"/>
</g>
<!-- Node6 -->
<g id="node7" class="node">
<title>Node6</title>
<g id="a_node7"><a xlink:href="type__traits_8h.html" target="_top" xlink:title="llvm/Support/type_traits.h">
<polygon fill="none" stroke="black" points="1622.04,-112.5 1622.04,-131.5 1750.04,-131.5 1750.04,-112.5 1622.04,-112.5"/>
<text text-anchor="middle" x="1686.04" y="-119.5" font-family="Helvetica,sans-Serif" font-size="10.00">llvm/Support/type_traits.h</text>
</a>
</g>
</g>
<!-- Node1&#45;&gt;Node6 -->
<g id="edge6" class="edge">
<title>Node1&#45;&gt;Node6</title>
<path fill="none" stroke="midnightblue" d="M1613.01,-168.32C1626.59,-159.9 1647.42,-146.97 1663.36,-137.07"/>
<polygon fill="midnightblue" stroke="midnightblue" points="1665.44,-139.9 1672.09,-131.65 1661.75,-133.95 1665.44,-139.9"/>
</g>
<!-- Node8 -->
<g id="node9" class="node">
<title>Node8</title>
<polygon fill="none" stroke="#bfbfbf" points="974.04,-56.5 974.04,-75.5 1014.04,-75.5 1014.04,-56.5 974.04,-56.5"/>
<text text-anchor="middle" x="994.04" y="-63.5" font-family="Helvetica,sans-Serif" font-size="10.00">utility</text>
</g>
<!-- Node1&#45;&gt;Node8 -->
<g id="edge13" class="edge">
<title>Node1&#45;&gt;Node8</title>
<path fill="none" stroke="midnightblue" d="M1593.24,-168.35C1582.9,-153.76 1559.77,-124.61 1532.04,-112 1440.45,-70.34 1124.07,-66.91 1024.37,-66.88"/>
<polygon fill="midnightblue" stroke="midnightblue" points="1024.09,-63.38 1014.1,-66.89 1024.1,-70.38 1024.09,-63.38"/>
</g>
<!-- Node9 -->
<g id="node10" class="node">
<title>Node9</title>
<polygon fill="none" stroke="#bfbfbf" points="2921.54,-112.5 2921.54,-131.5 2970.54,-131.5 2970.54,-112.5 2921.54,-112.5"/>
<text text-anchor="middle" x="2946.04" y="-119.5" font-family="Helvetica,sans-Serif" font-size="10.00">cassert</text>
</g>
<!-- Node1&#45;&gt;Node9 -->
<g id="edge10" class="edge">
<title>Node1&#45;&gt;Node9</title>
<path fill="none" stroke="midnightblue" d="M1651.84,-174.88C1873.72,-165.99 2727.54,-131.76 2911.13,-124.4"/>
<polygon fill="midnightblue" stroke="midnightblue" points="2911.44,-127.89 2921.3,-123.99 2911.16,-120.9 2911.44,-127.89"/>
</g>
<!-- Node10 -->
<g id="node11" class="node">
<title>Node10</title>
<polygon fill="none" stroke="#bfbfbf" points="1378.04,-112.5 1378.04,-131.5 1430.04,-131.5 1430.04,-112.5 1378.04,-112.5"/>
<text text-anchor="middle" x="1404.04" y="-119.5" font-family="Helvetica,sans-Serif" font-size="10.00">memory</text>
</g>
<!-- Node1&#45;&gt;Node10 -->
<g id="edge11" class="edge">
<title>Node1&#45;&gt;Node10</title>
<path fill="none" stroke="midnightblue" d="M1568.14,-168.44C1533.29,-158.79 1476.7,-143.12 1439.92,-132.94"/>
<polygon fill="midnightblue" stroke="midnightblue" points="1440.68,-129.52 1430.11,-130.22 1438.81,-136.26 1440.68,-129.52"/>
</g>
<!-- Node11 -->
<g id="node12" class="node">
<title>Node11</title>
<polygon fill="none" stroke="#bfbfbf" points="2196.54,-112.5 2196.54,-131.5 2231.54,-131.5 2231.54,-112.5 2196.54,-112.5"/>
<text text-anchor="middle" x="2214.04" y="-119.5" font-family="Helvetica,sans-Serif" font-size="10.00">new</text>
</g>
<!-- Node1&#45;&gt;Node11 -->
<g id="edge12" class="edge">
<title>Node1&#45;&gt;Node11</title>
<path fill="none" stroke="midnightblue" d="M1651.74,-172.37C1777.38,-161.34 2091.17,-133.79 2186.28,-125.44"/>
<polygon fill="midnightblue" stroke="midnightblue" points="2186.87,-128.9 2196.52,-124.54 2186.26,-121.93 2186.87,-128.9"/>
</g>
<!-- Node4 -->
<g id="node5" class="node">
<title>Node4</title>
<polygon fill="none" stroke="#bfbfbf" points="2121.54,-0.5 2121.54,-19.5 2246.54,-19.5 2246.54,-0.5 2121.54,-0.5"/>
<text text-anchor="middle" x="2184.04" y="-7.5" font-family="Helvetica,sans-Serif" font-size="10.00">llvm/Config/llvm&#45;config.h</text>
</g>
<!-- Node3&#45;&gt;Node4 -->
<g id="edge4" class="edge">
<title>Node3&#45;&gt;Node4</title>
<path fill="none" stroke="midnightblue" d="M2229.12,-56.08C2221.26,-48.22 2209.6,-36.57 2200.12,-27.08"/>
<polygon fill="midnightblue" stroke="midnightblue" points="2202.33,-24.35 2192.79,-19.75 2197.38,-29.3 2202.33,-24.35"/>
</g>
<!-- Node5 -->
<g id="node6" class="node">
<title>Node5</title>
<polygon fill="none" stroke="#bfbfbf" points="2265.04,-0.5 2265.04,-19.5 2317.04,-19.5 2317.04,-0.5 2265.04,-0.5"/>
<text text-anchor="middle" x="2291.04" y="-7.5" font-family="Helvetica,sans-Serif" font-size="10.00">stddef.h</text>
</g>
<!-- Node3&#45;&gt;Node5 -->
<g id="edge5" class="edge">
<title>Node3&#45;&gt;Node5</title>
<path fill="none" stroke="midnightblue" d="M2246.79,-56.08C2254.51,-48.22 2265.94,-36.57 2275.25,-27.08"/>
<polygon fill="midnightblue" stroke="midnightblue" points="2277.94,-29.34 2282.45,-19.75 2272.94,-24.44 2277.94,-29.34"/>
</g>
<!-- Node6&#45;&gt;Node3 -->
<g id="edge7" class="edge">
<title>Node6&#45;&gt;Node3</title>
<path fill="none" stroke="midnightblue" d="M1750.3,-113.48C1754.95,-112.97 1759.56,-112.47 1764.04,-112 1906.86,-96.98 2074.14,-81.62 2166.9,-73.3"/>
<polygon fill="midnightblue" stroke="midnightblue" points="2167.37,-76.77 2177.01,-72.4 2166.74,-69.8 2167.37,-76.77"/>
</g>
<!-- Node7 -->
<g id="node8" class="node">
<title>Node7</title>
<polygon fill="none" stroke="#bfbfbf" points="2782.04,-56.5 2782.04,-75.5 2844.04,-75.5 2844.04,-56.5 2782.04,-56.5"/>
<text text-anchor="middle" x="2813.04" y="-63.5" font-family="Helvetica,sans-Serif" font-size="10.00">type_traits</text>
</g>
<!-- Node6&#45;&gt;Node7 -->
<g id="edge8" class="edge">
<title>Node6&#45;&gt;Node7</title>
<path fill="none" stroke="midnightblue" d="M1750.27,-113.22C1754.93,-112.77 1759.55,-112.35 1764.04,-112 2154.99,-81.1 2629.72,-70.35 2771.28,-67.71"/>
<polygon fill="midnightblue" stroke="midnightblue" points="2771.73,-71.2 2781.66,-67.52 2771.6,-64.21 2771.73,-71.2"/>
</g>
<!-- Node6&#45;&gt;Node8 -->
<g id="edge9" class="edge">
<title>Node6&#45;&gt;Node8</title>
<path fill="none" stroke="midnightblue" d="M1621.87,-115.99C1477.05,-104.69 1129.34,-77.56 1024.48,-69.38"/>
<polygon fill="midnightblue" stroke="midnightblue" points="1024.52,-65.87 1014.28,-68.58 1023.98,-72.85 1024.52,-65.87"/>
</g>
<!-- Node13 -->
<g id="node14" class="node">
<title>Node13</title>
<g id="a_node14"><a xlink:href="SmallVector_8h.html" target="_top" xlink:title="llvm/ADT/SmallVector.h">
<polygon fill="none" stroke="black" points="1983.04,-224.5 1983.04,-243.5 2105.04,-243.5 2105.04,-224.5 1983.04,-224.5"/>
<text text-anchor="middle" x="2044.04" y="-231.5" font-family="Helvetica,sans-Serif" font-size="10.00">llvm/ADT/SmallVector.h</text>
</a>
</g>
</g>
<!-- Node12&#45;&gt;Node13 -->
<g id="edge15" class="edge">
<title>Node12&#45;&gt;Node13</title>
<path fill="none" stroke="midnightblue" d="M2044.04,-336.37C2044.04,-318.62 2044.04,-277.67 2044.04,-253.6"/>
<polygon fill="midnightblue" stroke="midnightblue" points="2047.54,-253.59 2044.04,-243.59 2040.54,-253.59 2047.54,-253.59"/>
</g>
<!-- Node17 -->
<g id="node18" class="node">
<title>Node17</title>
<polygon fill="none" stroke="#bfbfbf" points="1921.54,-112.5 1921.54,-131.5 1970.54,-131.5 1970.54,-112.5 1921.54,-112.5"/>
<text text-anchor="middle" x="1946.04" y="-119.5" font-family="Helvetica,sans-Serif" font-size="10.00">cstddef</text>
</g>
<!-- Node12&#45;&gt;Node17 -->
<g id="edge85" class="edge">
<title>Node12&#45;&gt;Node17</title>
<path fill="none" stroke="midnightblue" d="M2036.21,-336.24C2021.7,-319.54 1990.62,-281.46 1974.04,-244 1958.82,-209.62 1951.34,-165.93 1948.12,-141.57"/>
<polygon fill="midnightblue" stroke="midnightblue" points="1951.58,-141.07 1946.89,-131.56 1944.63,-141.91 1951.58,-141.07"/>
</g>
<!-- Node36 -->
<g id="node28" class="node">
<title>Node36</title>
<g id="a_node28"><a xlink:href="StringRef_8h.html" target="_top" xlink:title="llvm/ADT/StringRef.h">
<polygon fill="none" stroke="black" points="2245.04,-280.5 2245.04,-299.5 2355.04,-299.5 2355.04,-280.5 2245.04,-280.5"/>
<text text-anchor="middle" x="2300.04" y="-287.5" font-family="Helvetica,sans-Serif" font-size="10.00">llvm/ADT/StringRef.h</text>
</a>
</g>
</g>
<!-- Node12&#45;&gt;Node36 -->
<g id="edge49" class="edge">
<title>Node12&#45;&gt;Node36</title>
<path fill="none" stroke="midnightblue" d="M2084.6,-336.44C2129.35,-327 2201.42,-311.8 2249.73,-301.61"/>
<polygon fill="midnightblue" stroke="midnightblue" points="2250.6,-305.01 2259.66,-299.52 2249.15,-298.16 2250.6,-305.01"/>
</g>
<!-- Node13&#45;&gt;Node3 -->
<g id="edge22" class="edge">
<title>Node13&#45;&gt;Node3</title>
<path fill="none" stroke="midnightblue" d="M2047.14,-224.13C2052.16,-210.73 2063.15,-185.08 2079.04,-168 2116.91,-127.3 2174.61,-96.11 2209.09,-79.75"/>
<polygon fill="midnightblue" stroke="midnightblue" points="2210.57,-82.92 2218.17,-75.54 2207.62,-76.58 2210.57,-82.92"/>
</g>
<!-- Node13&#45;&gt;Node6 -->
<g id="edge36" class="edge">
<title>Node13&#45;&gt;Node6</title>
<path fill="none" stroke="midnightblue" d="M2016.24,-224.46C1952.54,-204.89 1795.93,-156.77 1723.68,-134.57"/>
<polygon fill="midnightblue" stroke="midnightblue" points="1724.65,-131.2 1714.06,-131.61 1722.59,-137.89 1724.65,-131.2"/>
</g>
<!-- Node13&#45;&gt;Node7 -->
<g id="edge47" class="edge">
<title>Node13&#45;&gt;Node7</title>
<path fill="none" stroke="midnightblue" d="M2105.32,-226.29C2113.95,-225.46 2122.71,-224.66 2131.04,-224 2202.48,-218.31 2718.47,-232.01 2775.04,-188 2806.51,-163.51 2812.47,-113.1 2813.26,-85.71"/>
<polygon fill="midnightblue" stroke="midnightblue" points="2816.76,-85.55 2813.35,-75.53 2809.76,-85.5 2816.76,-85.55"/>
</g>
<!-- Node13&#45;&gt;Node8 -->
<g id="edge48" class="edge">
<title>Node13&#45;&gt;Node8</title>
<path fill="none" stroke="midnightblue" d="M1982.95,-233.67C1859.74,-234.08 1586.2,-230.07 1504.04,-188 1464.47,-167.74 1478.42,-132.6 1439.04,-112 1366.63,-74.12 1112.49,-68.11 1024.38,-67.17"/>
<polygon fill="midnightblue" stroke="midnightblue" points="1024.28,-63.67 1014.25,-67.08 1024.22,-70.67 1024.28,-63.67"/>
</g>
<!-- Node13&#45;&gt;Node9 -->
<g id="edge39" class="edge">
<title>Node13&#45;&gt;Node9</title>
<path fill="none" stroke="midnightblue" d="M2105.27,-230.03C2280.61,-221.44 2774.2,-196.62 2808.04,-188 2851.01,-177.05 2896.8,-152.62 2923.34,-137.02"/>
<polygon fill="midnightblue" stroke="midnightblue" points="2925.43,-139.86 2932.21,-131.72 2921.83,-133.85 2925.43,-139.86"/>
</g>
<!-- Node13&#45;&gt;Node10 -->
<g id="edge45" class="edge">
<title>Node13&#45;&gt;Node10</title>
<path fill="none" stroke="midnightblue" d="M1982.82,-233.7C1853.33,-234.3 1556.16,-230.8 1466.04,-188 1444.1,-177.58 1425.92,-155.8 1415.03,-140.32"/>
<polygon fill="midnightblue" stroke="midnightblue" points="1417.7,-138.02 1409.23,-131.66 1411.89,-141.92 1417.7,-138.02"/>
</g>
<!-- Node13&#45;&gt;Node11 -->
<g id="edge46" class="edge">
<title>Node13&#45;&gt;Node11</title>
<path fill="none" stroke="midnightblue" d="M2105.41,-225.64C2151.3,-218.74 2208.5,-206.64 2223.04,-188 2233.41,-174.7 2228.77,-155.04 2223.02,-140.83"/>
<polygon fill="midnightblue" stroke="midnightblue" points="2226.15,-139.27 2218.83,-131.61 2219.78,-142.16 2226.15,-139.27"/>
</g>
<!-- Node14 -->
<g id="node15" class="node">
<title>Node14</title>
<g id="a_node15"><a xlink:href="iterator__range_8h.html" target="_top" xlink:title="This provides a very simple, boring adaptor for a begin and end iterator into a range type...">
<polygon fill="none" stroke="black" points="800.04,-112.5 800.04,-131.5 928.04,-131.5 928.04,-112.5 800.04,-112.5"/>
<text text-anchor="middle" x="864.04" y="-119.5" font-family="Helvetica,sans-Serif" font-size="10.00">llvm/ADT/iterator_range.h</text>
</a>
</g>
</g>
<!-- Node13&#45;&gt;Node14 -->
<g id="edge16" class="edge">
<title>Node13&#45;&gt;Node14</title>
<path fill="none" stroke="midnightblue" d="M1982.92,-232.68C1766.48,-231.23 1044.19,-223.76 947.04,-188 919.54,-177.88 893.97,-155 878.68,-139.27"/>
<polygon fill="midnightblue" stroke="midnightblue" points="881.06,-136.69 871.66,-131.81 875.96,-141.49 881.06,-136.69"/>
</g>
<!-- Node15 -->
<g id="node16" class="node">
<title>Node15</title>
<polygon fill="none" stroke="#bfbfbf" points="585.54,-56.5 585.54,-75.5 632.54,-75.5 632.54,-56.5 585.54,-56.5"/>
<text text-anchor="middle" x="609.04" y="-63.5" font-family="Helvetica,sans-Serif" font-size="10.00">iterator</text>
</g>
<!-- Node13&#45;&gt;Node15 -->
<g id="edge44" class="edge">
<title>Node13&#45;&gt;Node15</title>
<path fill="none" stroke="midnightblue" d="M1982.9,-232.02C1761.95,-228.3 1012.39,-213.87 908.04,-188 852.08,-174.13 842.55,-157.87 791.04,-132 773.98,-123.43 770.66,-119.32 753.04,-112 716.14,-96.68 672.1,-83.64 642.52,-75.6"/>
<polygon fill="midnightblue" stroke="midnightblue" points="643.26,-72.18 632.69,-72.97 641.45,-78.94 643.26,-72.18"/>
</g>
<!-- Node16 -->
<g id="node17" class="node">
<title>Node16</title>
<g id="a_node17"><a xlink:href="AlignOf_8h.html" target="_top" xlink:title="llvm/Support/AlignOf.h">
<polygon fill="none" stroke="black" points="2384.54,-168.5 2384.54,-187.5 2499.54,-187.5 2499.54,-168.5 2384.54,-168.5"/>
<text text-anchor="middle" x="2442.04" y="-175.5" font-family="Helvetica,sans-Serif" font-size="10.00">llvm/Support/AlignOf.h</text>
</a>
</g>
</g>
<!-- Node13&#45;&gt;Node16 -->
<g id="edge19" class="edge">
<title>Node13&#45;&gt;Node16</title>
<path fill="none" stroke="midnightblue" d="M2105.35,-224.68C2178.03,-214.82 2298.78,-198.44 2374.2,-188.2"/>
<polygon fill="midnightblue" stroke="midnightblue" points="2375.09,-191.62 2384.53,-186.8 2374.15,-184.68 2375.09,-191.62"/>
</g>
<!-- Node13&#45;&gt;Node17 -->
<g id="edge40" class="edge">
<title>Node13&#45;&gt;Node17</title>
<path fill="none" stroke="midnightblue" d="M2036.35,-224.37C2020.03,-206.05 1981.72,-163.05 1960.61,-139.36"/>
<polygon fill="midnightblue" stroke="midnightblue" points="1962.96,-136.73 1953.69,-131.59 1957.73,-141.39 1962.96,-136.73"/>
</g>
<!-- Node18 -->
<g id="node19" class="node">
<title>Node18</title>
<g id="a_node19"><a xlink:href="MathExtras_8h.html" target="_top" xlink:title="llvm/Support/MathExtras.h">
<polygon fill="none" stroke="red" points="2632.54,-168.5 2632.54,-187.5 2765.54,-187.5 2765.54,-168.5 2632.54,-168.5"/>
<text text-anchor="middle" x="2699.04" y="-175.5" font-family="Helvetica,sans-Serif" font-size="10.00">llvm/Support/MathExtras.h</text>
</a>
</g>
</g>
<!-- Node13&#45;&gt;Node18 -->
<g id="edge23" class="edge">
<title>Node13&#45;&gt;Node18</title>
<path fill="none" stroke="midnightblue" d="M2105.33,-226.47C2113.96,-225.61 2122.72,-224.76 2131.04,-224 2306.63,-207.96 2513.07,-192.44 2622.27,-184.49"/>
<polygon fill="midnightblue" stroke="midnightblue" points="2622.81,-187.96 2632.53,-183.75 2622.31,-180.98 2622.81,-187.96"/>
</g>
<!-- Node27 -->
<g id="node20" class="node">
<title>Node27</title>
<polygon fill="none" stroke="#bfbfbf" points="1098.04,-112.5 1098.04,-131.5 1154.04,-131.5 1154.04,-112.5 1098.04,-112.5"/>
<text text-anchor="middle" x="1126.04" y="-119.5" font-family="Helvetica,sans-Serif" font-size="10.00">algorithm</text>
</g>
<!-- Node13&#45;&gt;Node27 -->
<g id="edge38" class="edge">
<title>Node13&#45;&gt;Node27</title>
<path fill="none" stroke="midnightblue" d="M1982.81,-231.18C1872.71,-227.31 1634.22,-216.18 1435.04,-188 1336.47,-174.05 1222.25,-147.19 1164.19,-132.75"/>
<polygon fill="midnightblue" stroke="midnightblue" points="1164.9,-129.32 1154.35,-130.29 1163.2,-136.11 1164.9,-129.32"/>
</g>
<!-- Node29 -->
<g id="node21" class="node">
<title>Node29</title>
<polygon fill="none" stroke="#bfbfbf" points="3149.04,-112.5 3149.04,-131.5 3195.04,-131.5 3195.04,-112.5 3149.04,-112.5"/>
<text text-anchor="middle" x="3172.04" y="-119.5" font-family="Helvetica,sans-Serif" font-size="10.00">cstring</text>
</g>
<!-- Node13&#45;&gt;Node29 -->
<g id="edge42" class="edge">
<title>Node13&#45;&gt;Node29</title>
<path fill="none" stroke="midnightblue" d="M2105.23,-231.94C2310.36,-228.16 2965.87,-214.16 3057.04,-188 3093.65,-177.49 3131.17,-153.25 3153,-137.53"/>
<polygon fill="midnightblue" stroke="midnightblue" points="3155.11,-140.32 3161.09,-131.57 3150.96,-134.68 3155.11,-140.32"/>
</g>
<!-- Node31 -->
<g id="node23" class="node">
<title>Node31</title>
<g id="a_node23"><a xlink:href="MemAlloc_8h.html" target="_top" xlink:title="This file defines counterparts of C library allocation functions defined in the namespace &#39;std&#39;...">
<polygon fill="none" stroke="black" points="2088.04,-168.5 2088.04,-187.5 2214.04,-187.5 2214.04,-168.5 2088.04,-168.5"/>
<text text-anchor="middle" x="2151.04" y="-175.5" font-family="Helvetica,sans-Serif" font-size="10.00">llvm/Support/MemAlloc.h</text>
</a>
</g>
</g>
<!-- Node13&#45;&gt;Node31 -->
<g id="edge30" class="edge">
<title>Node13&#45;&gt;Node31</title>
<path fill="none" stroke="midnightblue" d="M2061.23,-224.32C2078.39,-215.66 2104.98,-202.24 2124.78,-192.25"/>
<polygon fill="midnightblue" stroke="midnightblue" points="2126.54,-195.28 2133.89,-187.65 2123.38,-189.04 2126.54,-195.28"/>
</g>
<!-- Node32 -->
<g id="node24" class="node">
<title>Node32</title>
<g id="a_node24"><a xlink:href="Support_2ErrorHandling_8h.html" target="_top" xlink:title="llvm/Support/ErrorHandling.h">
<polygon fill="none" stroke="black" points="2989.04,-112.5 2989.04,-131.5 3131.04,-131.5 3131.04,-112.5 2989.04,-112.5"/>
<text text-anchor="middle" x="3060.04" y="-119.5" font-family="Helvetica,sans-Serif" font-size="10.00">llvm/Support/ErrorHandling.h</text>
</a>
</g>
</g>
<!-- Node13&#45;&gt;Node32 -->
<g id="edge37" class="edge">
<title>Node13&#45;&gt;Node32</title>
<path fill="none" stroke="midnightblue" d="M2105.27,-232.08C2315.71,-228.67 2998.39,-215.52 3036.04,-188 3050.43,-177.48 3056.2,-157.35 3058.51,-142.27"/>
<polygon fill="midnightblue" stroke="midnightblue" points="3062.03,-142.29 3059.69,-131.96 3055.07,-141.5 3062.03,-142.29"/>
</g>
<!-- Node34 -->
<g id="node26" class="node">
<title>Node34</title>
<polygon fill="none" stroke="#bfbfbf" points="588.54,-112.5 588.54,-131.5 633.54,-131.5 633.54,-112.5 588.54,-112.5"/>
<text text-anchor="middle" x="611.04" y="-119.5" font-family="Helvetica,sans-Serif" font-size="10.00">cstdlib</text>
</g>
<!-- Node13&#45;&gt;Node34 -->
<g id="edge41" class="edge">
<title>Node13&#45;&gt;Node34</title>
<path fill="none" stroke="midnightblue" d="M1983.02,-232.18C1744.4,-228.81 881.69,-214.86 762.04,-188 714.75,-177.39 663.76,-152.26 634.78,-136.53"/>
<polygon fill="midnightblue" stroke="midnightblue" points="636.28,-133.37 625.84,-131.6 632.9,-139.49 636.28,-133.37"/>
</g>
<!-- Node35 -->
<g id="node27" class="node">
<title>Node35</title>
<polygon fill="none" stroke="#bfbfbf" points="1188.54,-168.5 1188.54,-187.5 1261.54,-187.5 1261.54,-168.5 1188.54,-168.5"/>
<text text-anchor="middle" x="1225.04" y="-175.5" font-family="Helvetica,sans-Serif" font-size="10.00">initializer_list</text>
</g>
<!-- Node13&#45;&gt;Node35 -->
<g id="edge43" class="edge">
<title>Node13&#45;&gt;Node35</title>
<path fill="none" stroke="midnightblue" d="M1982.93,-229.15C1862.31,-221.51 1585.06,-203.83 1352.04,-188 1325.53,-186.2 1295.91,-184.1 1271.95,-182.39"/>
<polygon fill="midnightblue" stroke="midnightblue" points="1271.94,-178.88 1261.71,-181.66 1271.44,-185.86 1271.94,-178.88"/>
</g>
<!-- Node14&#45;&gt;Node8 -->
<g id="edge18" class="edge">
<title>Node14&#45;&gt;Node8</title>
<path fill="none" stroke="midnightblue" d="M884.63,-112.44C906.16,-103.5 940.11,-89.4 964.49,-79.27"/>
<polygon fill="midnightblue" stroke="midnightblue" points="966.07,-82.41 973.96,-75.34 963.38,-75.94 966.07,-82.41"/>
</g>
<!-- Node14&#45;&gt;Node15 -->
<g id="edge17" class="edge">
<title>Node14&#45;&gt;Node15</title>
<path fill="none" stroke="midnightblue" d="M823.63,-112.44C773.63,-101.85 689.38,-84.01 642.71,-74.13"/>
<polygon fill="midnightblue" stroke="midnightblue" points="643.3,-70.68 632.8,-72.03 641.85,-77.53 643.3,-70.68"/>
</g>
<!-- Node16&#45;&gt;Node3 -->
<g id="edge20" class="edge">
<title>Node16&#45;&gt;Node3</title>
<path fill="none" stroke="midnightblue" d="M2428.37,-168.4C2407.78,-155.57 2367.46,-130.9 2332.04,-112 2310.42,-100.47 2285.38,-88.55 2266.57,-79.87"/>
<polygon fill="midnightblue" stroke="midnightblue" points="2267.91,-76.64 2257.36,-75.65 2265,-83 2267.91,-76.64"/>
</g>
<!-- Node16&#45;&gt;Node17 -->
<g id="edge21" class="edge">
<title>Node16&#45;&gt;Node17</title>
<path fill="none" stroke="midnightblue" d="M2384.17,-170.7C2280.14,-159.37 2064.56,-135.9 1980.58,-126.76"/>
<polygon fill="midnightblue" stroke="midnightblue" points="1980.87,-123.27 1970.55,-125.67 1980.11,-130.23 1980.87,-123.27"/>
</g>
<!-- Node18&#45;&gt;Node3 -->
<g id="edge24" class="edge">
<title>Node18&#45;&gt;Node3</title>
<path fill="none" stroke="midnightblue" d="M2686.88,-168.36C2666.09,-154.04 2621.89,-125.65 2580.04,-112 2489.55,-82.48 2379.6,-72.27 2309.23,-68.77"/>
<polygon fill="midnightblue" stroke="midnightblue" points="2309.29,-65.27 2299.14,-68.3 2308.97,-72.26 2309.29,-65.27"/>
</g>
<!-- Node18&#45;&gt;Node7 -->
<g id="edge29" class="edge">
<title>Node18&#45;&gt;Node7</title>
<path fill="none" stroke="midnightblue" d="M2707.98,-168.37C2727.13,-149.89 2772.31,-106.29 2796.72,-82.74"/>
<polygon fill="midnightblue" stroke="midnightblue" points="2799.37,-85.05 2804.13,-75.59 2794.51,-80.02 2799.37,-85.05"/>
</g>
<!-- Node18&#45;&gt;Node9 -->
<g id="edge26" class="edge">
<title>Node18&#45;&gt;Node9</title>
<path fill="none" stroke="midnightblue" d="M2738.17,-168.44C2785.88,-158.01 2865.75,-140.55 2911.34,-130.58"/>
<polygon fill="midnightblue" stroke="midnightblue" points="2912.32,-133.95 2921.34,-128.4 2910.82,-127.12 2912.32,-133.95"/>
</g>
<!-- Node18&#45;&gt;Node27 -->
<g id="edge25" class="edge">
<title>Node18&#45;&gt;Node27</title>
<path fill="none" stroke="midnightblue" d="M2632.31,-173.6C2595.64,-171.8 2549.33,-169.63 2508.04,-168 2001.95,-148.08 1875.21,-149.37 1369.04,-132 1296.67,-129.52 1212.18,-126.32 1164.31,-124.48"/>
<polygon fill="midnightblue" stroke="midnightblue" points="1164.22,-120.98 1154.1,-124.09 1163.96,-127.97 1164.22,-120.98"/>
</g>
<!-- Node18&#45;&gt;Node29 -->
<g id="edge27" class="edge">
<title>Node18&#45;&gt;Node29</title>
<path fill="none" stroke="midnightblue" d="M2765.67,-173.79C2850.44,-168.9 3001.39,-157.53 3138.85,-131.93"/>
<polygon fill="midnightblue" stroke="midnightblue" points="3139.55,-135.36 3148.73,-130.06 3138.25,-128.48 3139.55,-135.36"/>
</g>
<!-- Node30 -->
<g id="node22" class="node">
<title>Node30</title>
<polygon fill="none" stroke="#bfbfbf" points="2250.04,-112.5 2250.04,-131.5 2290.04,-131.5 2290.04,-112.5 2250.04,-112.5"/>
<text text-anchor="middle" x="2270.04" y="-119.5" font-family="Helvetica,sans-Serif" font-size="10.00">limits</text>
</g>
<!-- Node18&#45;&gt;Node30 -->
<g id="edge28" class="edge">
<title>Node18&#45;&gt;Node30</title>
<path fill="none" stroke="midnightblue" d="M2632.48,-168.62C2537.98,-156.73 2368.79,-135.43 2300.18,-126.79"/>
<polygon fill="midnightblue" stroke="midnightblue" points="2300.42,-123.3 2290.06,-125.52 2299.54,-130.24 2300.42,-123.3"/>
</g>
<!-- Node31&#45;&gt;Node3 -->
<g id="edge31" class="edge">
<title>Node31&#45;&gt;Node3</title>
<path fill="none" stroke="midnightblue" d="M2154.63,-168.43C2160.34,-155.43 2172.33,-130.3 2187.04,-112 2196.05,-100.78 2208.04,-90.05 2218.13,-81.87"/>
<polygon fill="midnightblue" stroke="midnightblue" points="2220.34,-84.59 2226.05,-75.66 2216.02,-79.08 2220.34,-84.59"/>
</g>
<!-- Node31&#45;&gt;Node32 -->
<g id="edge32" class="edge">
<title>Node31&#45;&gt;Node32</title>
<path fill="none" stroke="midnightblue" d="M2214.18,-174.05C2377.68,-166.33 2813.02,-145.27 2978.9,-132.03"/>
<polygon fill="midnightblue" stroke="midnightblue" points="2979.27,-135.51 2988.96,-131.21 2978.71,-128.54 2979.27,-135.51"/>
</g>
<!-- Node31&#45;&gt;Node34 -->
<g id="edge35" class="edge">
<title>Node31&#45;&gt;Node34</title>
<path fill="none" stroke="midnightblue" d="M2087.79,-175.54C1819.2,-169.31 780.94,-144.64 643.77,-131.3"/>
<polygon fill="midnightblue" stroke="midnightblue" points="643.96,-127.8 633.61,-130.09 643.12,-134.75 643.96,-127.8"/>
</g>
<!-- Node32&#45;&gt;Node3 -->
<g id="edge33" class="edge">
<title>Node32&#45;&gt;Node3</title>
<path fill="none" stroke="midnightblue" d="M2988.95,-112.81C2985.94,-112.53 2982.96,-112.25 2980.04,-112 2734.11,-90.72 2441.47,-76.12 2309.2,-70.1"/>
<polygon fill="midnightblue" stroke="midnightblue" points="2309.34,-66.6 2299.19,-69.64 2309.02,-73.59 2309.34,-66.6"/>
</g>
<!-- Node32&#45;&gt;Node33 -->
<g id="edge34" class="edge">
<title>Node32&#45;&gt;Node33</title>
<path fill="none" stroke="midnightblue" d="M3131.12,-112.81C3134.13,-112.52 3137.11,-112.25 3140.04,-112 3423.03,-87.72 3766.45,-72.49 3869.43,-68.23"/>
<polygon fill="midnightblue" stroke="midnightblue" points="3869.6,-71.73 3879.45,-67.82 3869.32,-64.73 3869.6,-71.73"/>
</g>
<!-- Node36&#45;&gt;Node3 -->
<g id="edge76" class="edge">
<title>Node36&#45;&gt;Node3</title>
<path fill="none" stroke="midnightblue" d="M2302.67,-280.21C2310.26,-253.15 2329.69,-169.48 2299.04,-112 2291.88,-98.58 2278.76,-88.11 2266.51,-80.66"/>
<polygon fill="midnightblue" stroke="midnightblue" points="2267.86,-77.4 2257.43,-75.55 2264.43,-83.5 2267.86,-77.4"/>
</g>
<!-- Node36&#45;&gt;Node7 -->
<g id="edge83" class="edge">
<title>Node36&#45;&gt;Node7</title>
<path fill="none" stroke="midnightblue" d="M2355.26,-288.18C2563.59,-284.86 3292.15,-271.36 3333.04,-244 3362.7,-224.14 3375.14,-199.86 3359.04,-168 3340.11,-130.55 3322.23,-126.99 3283.04,-112 3205.11,-82.2 2953.97,-71.34 2854.33,-68.14"/>
<polygon fill="midnightblue" stroke="midnightblue" points="2854.44,-64.64 2844.34,-67.83 2854.22,-71.64 2854.44,-64.64"/>
</g>
<!-- Node36&#45;&gt;Node8 -->
<g id="edge84" class="edge">
<title>Node36&#45;&gt;Node8</title>
<path fill="none" stroke="midnightblue" d="M2244.78,-289.18C2056.11,-289.39 1420.17,-286.67 897.04,-244 849.45,-240.12 502.52,-223.89 471.04,-188 465.17,-181.32 466.42,-175.6 471.04,-168 474.55,-162.22 572.57,-113.95 579.04,-112 717.99,-70.05 893.54,-66.2 963.37,-66.51"/>
<polygon fill="midnightblue" stroke="midnightblue" points="963.62,-70.01 973.64,-66.59 963.67,-63.01 963.62,-70.01"/>
</g>
<!-- Node36&#45;&gt;Node9 -->
<g id="edge78" class="edge">
<title>Node36&#45;&gt;Node9</title>
<path fill="none" stroke="midnightblue" d="M2355.13,-283.24C2499.09,-267.76 2878.36,-223.97 2922.04,-188 2935.8,-176.66 2941.67,-156.67 2944.17,-141.84"/>
<polygon fill="midnightblue" stroke="midnightblue" points="2947.67,-142.1 2945.51,-131.73 2940.73,-141.19 2947.67,-142.1"/>
</g>
<!-- Node36&#45;&gt;Node14 -->
<g id="edge75" class="edge">
<title>Node36&#45;&gt;Node14</title>
<path fill="none" stroke="midnightblue" d="M2244.73,-288.24C2041.38,-285.23 1335.41,-272.9 1112.04,-244 998.68,-229.33 932.52,-277.19 861.04,-188 850.68,-175.08 853.17,-155.63 857.19,-141.38"/>
<polygon fill="midnightblue" stroke="midnightblue" points="860.58,-142.28 860.37,-131.68 853.93,-140.09 860.58,-142.28"/>
</g>
<!-- Node36&#45;&gt;Node17 -->
<g id="edge79" class="edge">
<title>Node36&#45;&gt;Node17</title>
<path fill="none" stroke="midnightblue" d="M2280.74,-280.39C2242.25,-263.15 2153.21,-223.07 2079.04,-188 2041.79,-170.39 1999.03,-149.35 1972.28,-136.07"/>
<polygon fill="midnightblue" stroke="midnightblue" points="1973.7,-132.87 1963.18,-131.56 1970.58,-139.14 1973.7,-132.87"/>
</g>
<!-- Node36&#45;&gt;Node27 -->
<g id="edge77" class="edge">
<title>Node36&#45;&gt;Node27</title>
<path fill="none" stroke="midnightblue" d="M2244.95,-288.64C2094.45,-286.53 1664.64,-272.91 1320.04,-188 1296.8,-182.27 1292.59,-176.02 1270.04,-168 1234.38,-155.32 1193.11,-142.62 1163.92,-133.96"/>
<polygon fill="midnightblue" stroke="midnightblue" points="1164.7,-130.55 1154.12,-131.07 1162.72,-137.26 1164.7,-130.55"/>
</g>
<!-- Node36&#45;&gt;Node29 -->
<g id="edge80" class="edge">
<title>Node36&#45;&gt;Node29</title>
<path fill="none" stroke="midnightblue" d="M2355.09,-284.5C2439.42,-277.36 2605.59,-262.37 2746.04,-244 2823.7,-233.84 3022.75,-220.45 3094.04,-188 3119.21,-176.54 3142.84,-154.7 3157.35,-139.52"/>
<polygon fill="midnightblue" stroke="midnightblue" points="3160.2,-141.59 3164.42,-131.88 3155.06,-136.84 3160.2,-141.59"/>
</g>
<!-- Node36&#45;&gt;Node30 -->
<g id="edge81" class="edge">
<title>Node36&#45;&gt;Node30</title>
<path fill="none" stroke="midnightblue" d="M2298.42,-280.08C2293.7,-253.95 2279.83,-177.21 2273.39,-141.58"/>
<polygon fill="midnightblue" stroke="midnightblue" points="2276.81,-140.79 2271.58,-131.57 2269.92,-142.03 2276.81,-140.79"/>
</g>
<!-- Node36&#45;&gt;Node33 -->
<g id="edge82" class="edge">
<title>Node36&#45;&gt;Node33</title>
<path fill="none" stroke="midnightblue" d="M2355.25,-289.16C2544.22,-289.32 3164.09,-286.51 3358.04,-244 3509.12,-210.88 3532.07,-157.03 3680.04,-112 3746.22,-91.86 3826.37,-78.02 3869.31,-71.42"/>
<polygon fill="midnightblue" stroke="midnightblue" points="3870.03,-74.85 3879.4,-69.9 3868.99,-67.93 3870.03,-74.85"/>
</g>
<!-- Node37 -->
<g id="node29" class="node">
<title>Node37</title>
<g id="a_node29"><a xlink:href="STLExtras_8h.html" target="_top" xlink:title="llvm/ADT/STLExtras.h">
<polygon fill="none" stroke="black" points="1121.04,-224.5 1121.04,-243.5 1237.04,-243.5 1237.04,-224.5 1121.04,-224.5"/>
<text text-anchor="middle" x="1179.04" y="-231.5" font-family="Helvetica,sans-Serif" font-size="10.00">llvm/ADT/STLExtras.h</text>
</a>
</g>
</g>
<!-- Node36&#45;&gt;Node37 -->
<g id="edge50" class="edge">
<title>Node36&#45;&gt;Node37</title>
<path fill="none" stroke="midnightblue" d="M2244.83,-286.34C2058.37,-277.36 1452.25,-248.16 1247.4,-238.29"/>
<polygon fill="midnightblue" stroke="midnightblue" points="1247.53,-234.8 1237.37,-237.81 1247.19,-241.79 1247.53,-234.8"/>
</g>
<!-- Node37&#45;&gt;Node1 -->
<g id="edge51" class="edge">
<title>Node37&#45;&gt;Node1</title>
<path fill="none" stroke="midnightblue" d="M1237.43,-225.49C1316.12,-215.38 1455.59,-197.44 1536.39,-187.05"/>
<polygon fill="midnightblue" stroke="midnightblue" points="1536.95,-190.51 1546.43,-185.76 1536.06,-183.57 1536.95,-190.51"/>
</g>
<!-- Node37&#45;&gt;Node7 -->
<g id="edge73" class="edge">
<title>Node37&#45;&gt;Node7</title>
<path fill="none" stroke="midnightblue" d="M1237.19,-228.99C1356.41,-220.55 1620.68,-200.72 1660.04,-188 1676.72,-182.61 1677.83,-174.69 1694.04,-168 1786.5,-129.82 1813.13,-127.02 1912.04,-112 2081.21,-86.32 2617.99,-71.69 2771.6,-67.96"/>
<polygon fill="midnightblue" stroke="midnightblue" points="2772.08,-71.45 2781.99,-67.71 2771.91,-64.45 2772.08,-71.45"/>
</g>
<!-- Node37&#45;&gt;Node8 -->
<g id="edge74" class="edge">
<title>Node37&#45;&gt;Node8</title>
<path fill="none" stroke="midnightblue" d="M1120.93,-229.95C1059.54,-225.36 968.67,-214.23 947.04,-188 920.76,-156.13 956.2,-107.87 978.45,-83.03"/>
<polygon fill="midnightblue" stroke="midnightblue" points="981.15,-85.27 985.39,-75.56 976.02,-80.51 981.15,-85.27"/>
</g>
<!-- Node37&#45;&gt;Node9 -->
<g id="edge63" class="edge">
<title>Node37&#45;&gt;Node9</title>
<path fill="none" stroke="midnightblue" d="M1237.16,-232.28C1395.59,-229.94 1848.24,-220.67 2223.04,-188 2290.92,-182.08 2307.27,-175.12 2375.04,-168 2577.93,-146.67 2822.35,-130.63 2911.43,-125.1"/>
<polygon fill="midnightblue" stroke="midnightblue" points="2911.74,-128.58 2921.51,-124.47 2911.31,-121.6 2911.74,-128.58"/>
</g>
<!-- Node37&#45;&gt;Node10 -->
<g id="edge71" class="edge">
<title>Node37&#45;&gt;Node10</title>
<path fill="none" stroke="midnightblue" d="M1175.91,-224.28C1171.63,-210.61 1165.87,-184.06 1179.04,-168 1202.45,-139.43 1310.03,-128.64 1367.53,-124.86"/>
<polygon fill="midnightblue" stroke="midnightblue" points="1367.89,-128.34 1377.66,-124.23 1367.46,-121.36 1367.89,-128.34"/>
</g>
<!-- Node37&#45;&gt;Node14 -->
<g id="edge59" class="edge">
<title>Node37&#45;&gt;Node14</title>
<path fill="none" stroke="midnightblue" d="M1120.94,-232.16C1042.9,-229.76 910.04,-220.83 876.04,-188 863.8,-176.19 861.71,-156.26 862.12,-141.58"/>
<polygon fill="midnightblue" stroke="midnightblue" points="865.61,-141.81 862.79,-131.6 858.63,-141.34 865.61,-141.81"/>
</g>
<!-- Node37&#45;&gt;Node15 -->
<g id="edge69" class="edge">
<title>Node37&#45;&gt;Node15</title>
<path fill="none" stroke="midnightblue" d="M1120.69,-232.24C1001.54,-230.01 734.36,-221.33 650.04,-188 612.66,-173.23 596.57,-168.16 579.04,-132 571.12,-115.67 581.99,-96.82 592.8,-83.64"/>
<polygon fill="midnightblue" stroke="midnightblue" points="595.67,-85.68 599.69,-75.88 590.43,-81.03 595.67,-85.68"/>
</g>
<!-- Node37&#45;&gt;Node17 -->
<g id="edge64" class="edge">
<title>Node37&#45;&gt;Node17</title>
<path fill="none" stroke="midnightblue" d="M1237.36,-231.04C1333.25,-227.12 1529.94,-216.13 1694.04,-188 1773.03,-174.46 1863.54,-148.47 1911.68,-133.79"/>
<polygon fill="midnightblue" stroke="midnightblue" points="1912.76,-137.12 1921.29,-130.84 1910.71,-130.43 1912.76,-137.12"/>
</g>
<!-- Node37&#45;&gt;Node27 -->
<g id="edge62" class="edge">
<title>Node37&#45;&gt;Node27</title>
<path fill="none" stroke="midnightblue" d="M1171.25,-224.28C1163.87,-215.61 1152.91,-201.68 1146.04,-188 1138.58,-173.16 1133.28,-155.01 1130.02,-141.67"/>
<polygon fill="midnightblue" stroke="midnightblue" points="1133.4,-140.73 1127.75,-131.76 1126.57,-142.29 1133.4,-140.73"/>
</g>
<!-- Node37&#45;&gt;Node30 -->
<g id="edge70" class="edge">
<title>Node37&#45;&gt;Node30</title>
<path fill="none" stroke="midnightblue" d="M1237.19,-231.87C1398.25,-227.79 1863.07,-209.63 2240.04,-132 2240.14,-131.98 2240.24,-131.96 2240.34,-131.94"/>
<polygon fill="midnightblue" stroke="midnightblue" points="2240.96,-135.39 2249.83,-129.59 2239.28,-128.59 2240.96,-135.39"/>
</g>
<!-- Node37&#45;&gt;Node32 -->
<g id="edge61" class="edge">
<title>Node37&#45;&gt;Node32</title>
<path fill="none" stroke="midnightblue" d="M1237.22,-232.04C1505.94,-227.49 2620.44,-207.62 2775.04,-188 2864.43,-176.66 2966.92,-149.78 3021.34,-134.37"/>
<polygon fill="midnightblue" stroke="midnightblue" points="3022.59,-137.66 3031.24,-131.55 3020.67,-130.93 3022.59,-137.66"/>
</g>
<!-- Node37&#45;&gt;Node34 -->
<g id="edge66" class="edge">
<title>Node37&#45;&gt;Node34</title>
<path fill="none" stroke="midnightblue" d="M1120.66,-232.13C1007.57,-229.71 762.94,-220.75 686.04,-188 660.89,-177.29 638.11,-154.9 624.42,-139.41"/>
<polygon fill="midnightblue" stroke="midnightblue" points="626.94,-136.98 617.79,-131.64 621.62,-141.52 626.94,-136.98"/>
</g>
<!-- Node37&#45;&gt;Node35 -->
<g id="edge68" class="edge">
<title>Node37&#45;&gt;Node35</title>
<path fill="none" stroke="midnightblue" d="M1186.63,-224.08C1193.26,-216.3 1203.06,-204.8 1211.09,-195.37"/>
<polygon fill="midnightblue" stroke="midnightblue" points="1213.76,-197.63 1217.58,-187.75 1208.43,-193.09 1213.76,-197.63"/>
</g>
<!-- Node38 -->
<g id="node30" class="node">
<title>Node38</title>
<g id="a_node30"><a xlink:href="iterator_8h.html" target="_top" xlink:title="llvm/ADT/iterator.h">
<polygon fill="none" stroke="black" points="956.54,-168.5 956.54,-187.5 1055.54,-187.5 1055.54,-168.5 956.54,-168.5"/>
<text text-anchor="middle" x="1006.04" y="-175.5" font-family="Helvetica,sans-Serif" font-size="10.00">llvm/ADT/iterator.h</text>
</a>
</g>
</g>
<!-- Node37&#45;&gt;Node38 -->
<g id="edge52" class="edge">
<title>Node37&#45;&gt;Node38</title>
<path fill="none" stroke="midnightblue" d="M1151.62,-224.44C1122.27,-215.28 1075.52,-200.69 1042.94,-190.52"/>
<polygon fill="midnightblue" stroke="midnightblue" points="1043.91,-187.16 1033.32,-187.52 1041.82,-193.84 1043.91,-187.16"/>
</g>
<!-- Node39 -->
<g id="node31" class="node">
<title>Node39</title>
<polygon fill="none" stroke="#bfbfbf" points="256.04,-168.5 256.04,-187.5 386.04,-187.5 386.04,-168.5 256.04,-168.5"/>
<text text-anchor="middle" x="321.04" y="-175.5" font-family="Helvetica,sans-Serif" font-size="10.00">llvm/Config/abi&#45;breaking.h</text>
</g>
<!-- Node37&#45;&gt;Node39 -->
<g id="edge60" class="edge">
<title>Node37&#45;&gt;Node39</title>
<path fill="none" stroke="midnightblue" d="M1120.74,-229.33C969.47,-219.81 564.5,-194.32 396.1,-183.72"/>
<polygon fill="midnightblue" stroke="midnightblue" points="396.28,-180.23 386.08,-183.09 395.84,-187.22 396.28,-180.23"/>
</g>
<!-- Node40 -->
<g id="node32" class="node">
<title>Node40</title>
<polygon fill="none" stroke="#bfbfbf" points="3240.04,-168.5 3240.04,-187.5 3286.04,-187.5 3286.04,-168.5 3240.04,-168.5"/>
<text text-anchor="middle" x="3263.04" y="-175.5" font-family="Helvetica,sans-Serif" font-size="10.00">cstdint</text>
</g>
<!-- Node37&#45;&gt;Node40 -->
<g id="edge65" class="edge">
<title>Node37&#45;&gt;Node40</title>
<path fill="none" stroke="midnightblue" d="M1237.2,-231.92C1466.13,-227.58 2327.32,-210.64 3036.04,-188 3104.87,-185.8 3185.4,-182.42 3229.66,-180.48"/>
<polygon fill="midnightblue" stroke="midnightblue" points="3230,-183.97 3239.84,-180.04 3229.69,-176.98 3230,-183.97"/>
</g>
<!-- Node41 -->
<g id="node33" class="node">
<title>Node41</title>
<polygon fill="none" stroke="#bfbfbf" points="480.54,-168.5 480.54,-187.5 539.54,-187.5 539.54,-168.5 480.54,-168.5"/>
<text text-anchor="middle" x="510.04" y="-175.5" font-family="Helvetica,sans-Serif" font-size="10.00">functional</text>
</g>
<!-- Node37&#45;&gt;Node41 -->
<g id="edge67" class="edge">
<title>Node37&#45;&gt;Node41</title>
<path fill="none" stroke="midnightblue" d="M1120.94,-231.86C1011.15,-229.06 765.63,-219.68 549.69,-187.84"/>
<polygon fill="midnightblue" stroke="midnightblue" points="550.16,-184.38 539.75,-186.36 549.13,-191.3 550.16,-184.38"/>
</g>
<!-- Node42 -->
<g id="node34" class="node">
<title>Node42</title>
<polygon fill="none" stroke="#bfbfbf" points="558.04,-168.5 558.04,-187.5 596.04,-187.5 596.04,-168.5 558.04,-168.5"/>
<text text-anchor="middle" x="577.04" y="-175.5" font-family="Helvetica,sans-Serif" font-size="10.00">tuple</text>
</g>
<!-- Node37&#45;&gt;Node42 -->
<g id="edge72" class="edge">
<title>Node37&#45;&gt;Node42</title>
<path fill="none" stroke="midnightblue" d="M1120.84,-231.99C1017.34,-229.39 794.78,-220.21 610.04,-188 608.75,-187.78 607.45,-187.52 606.13,-187.25"/>
<polygon fill="midnightblue" stroke="midnightblue" points="606.63,-183.77 596.09,-184.85 605,-190.58 606.63,-183.77"/>
</g>
<!-- Node38&#45;&gt;Node7 -->
<g id="edge57" class="edge">
<title>Node38&#45;&gt;Node7</title>
<path fill="none" stroke="midnightblue" d="M1013.64,-168.14C1027.07,-153.24 1056.66,-123.64 1089.04,-112 1129.89,-97.31 2513,-72.28 2771.61,-67.72"/>
<polygon fill="midnightblue" stroke="midnightblue" points="2771.77,-71.22 2781.71,-67.55 2771.65,-64.22 2771.77,-71.22"/>
</g>
<!-- Node38&#45;&gt;Node8 -->
<g id="edge58" class="edge">
<title>Node38&#45;&gt;Node8</title>
<path fill="none" stroke="midnightblue" d="M1007.32,-168.11C1008.91,-155.53 1011.06,-131.87 1008.04,-112 1006.67,-103 1003.85,-93.33 1001.09,-85.26"/>
<polygon fill="midnightblue" stroke="midnightblue" points="1004.35,-83.98 997.64,-75.78 997.77,-86.37 1004.35,-83.98"/>
</g>
<!-- Node38&#45;&gt;Node14 -->
<g id="edge53" class="edge">
<title>Node38&#45;&gt;Node14</title>
<path fill="none" stroke="midnightblue" d="M983.54,-168.44C959.96,-159.48 922.71,-145.31 896.07,-135.18"/>
<polygon fill="midnightblue" stroke="midnightblue" points="897.02,-131.8 886.43,-131.52 894.53,-138.34 897.02,-131.8"/>
</g>
<!-- Node38&#45;&gt;Node15 -->
<g id="edge56" class="edge">
<title>Node38&#45;&gt;Node15</title>
<path fill="none" stroke="midnightblue" d="M999.57,-168.04C988.56,-153.53 964.65,-125.2 937.04,-112 885.39,-87.31 715.51,-73.8 642.68,-69.02"/>
<polygon fill="midnightblue" stroke="midnightblue" points="642.87,-65.52 632.66,-68.37 642.42,-72.51 642.87,-65.52"/>
</g>
<!-- Node38&#45;&gt;Node17 -->
<g id="edge55" class="edge">
<title>Node38&#45;&gt;Node17</title>
<path fill="none" stroke="midnightblue" d="M1055.58,-174.15C1223.31,-164.52 1767.32,-133.27 1910.98,-125.01"/>
<polygon fill="midnightblue" stroke="midnightblue" points="1911.6,-128.48 1921.38,-124.42 1911.19,-121.5 1911.6,-128.48"/>
</g>
<!-- Node38&#45;&gt;Node27 -->
<g id="edge54" class="edge">
<title>Node38&#45;&gt;Node27</title>
<path fill="none" stroke="midnightblue" d="M1025.05,-168.44C1044.62,-159.64 1075.34,-145.81 1097.76,-135.72"/>
<polygon fill="midnightblue" stroke="midnightblue" points="1099.43,-138.81 1107.11,-131.52 1096.55,-132.43 1099.43,-138.81"/>
</g>
<!-- Node43&#45;&gt;Node3 -->
<g id="edge125" class="edge">
<title>Node43&#45;&gt;Node3</title>
<path fill="none" stroke="midnightblue" d="M2786.9,-459.47C2824.93,-443.63 2897.04,-405.84 2897.04,-347 2897.04,-347 2897.04,-347 2897.04,-289 2897.04,-272.49 2415.75,-122.07 2275.79,-78.67"/>
<polygon fill="midnightblue" stroke="midnightblue" points="2276.52,-75.23 2265.93,-75.62 2274.45,-81.92 2276.52,-75.23"/>
</g>
<!-- Node43&#45;&gt;Node7 -->
<g id="edge160" class="edge">
<title>Node43&#45;&gt;Node7</title>
<path fill="none" stroke="midnightblue" d="M2816.2,-467.2C3001.69,-464.12 3622.73,-451.74 3707.04,-423 3802.89,-390.33 3838.23,-344.8 3848.04,-244 3851.44,-209 3853.55,-189.9 3826.04,-168 3748.8,-106.51 3034.78,-75.42 2854.32,-68.5"/>
<polygon fill="midnightblue" stroke="midnightblue" points="2854.3,-65 2844.18,-68.12 2854.04,-72 2854.3,-65"/>
</g>
<!-- Node43&#45;&gt;Node8 -->
<g id="edge161" class="edge">
<title>Node43&#45;&gt;Node8</title>
<path fill="none" stroke="midnightblue" d="M2712.01,-468.1C2374.19,-468.58 498.09,-469.16 248.04,-423 150.43,-404.98 38.04,-446.26 38.04,-347 38.04,-347 38.04,-347 38.04,-177 38.04,-40.14 203.53,-131.18 339.04,-112 578.14,-78.15 870.09,-69.51 963.66,-67.53"/>
<polygon fill="midnightblue" stroke="midnightblue" points="963.9,-71.03 973.83,-67.33 963.76,-64.03 963.9,-71.03"/>
</g>
<!-- Node43&#45;&gt;Node9 -->
<g id="edge152" class="edge">
<title>Node43&#45;&gt;Node9</title>
<path fill="none" stroke="midnightblue" d="M2816.16,-464.3C2862.74,-459.44 2931.94,-448.3 2987.04,-423 3031.07,-402.78 3036.97,-388.36 3073.04,-356 3133.86,-301.42 3132.83,-269.01 3201.04,-224 3238.38,-199.36 3269.68,-224.86 3295.04,-188 3300.07,-180.68 3300.95,-174.63 3295.04,-168 3250.01,-117.53 3064.95,-142.81 2980.81,-131.61"/>
<polygon fill="midnightblue" stroke="midnightblue" points="2981.25,-128.13 2970.82,-130.01 2980.14,-135.04 2981.25,-128.13"/>
</g>
<!-- Node43&#45;&gt;Node10 -->
<g id="edge156" class="edge">
<title>Node43&#45;&gt;Node10</title>
<path fill="none" stroke="midnightblue" d="M2711.62,-467.2C2575.54,-464.73 2199.95,-455.27 1889.04,-423 1672.02,-400.48 1404.04,-565.19 1404.04,-347 1404.04,-347 1404.04,-347 1404.04,-233 1404.04,-200.95 1404.04,-163.64 1404.04,-141.75"/>
<polygon fill="midnightblue" stroke="midnightblue" points="1407.54,-141.56 1404.04,-131.56 1400.54,-141.56 1407.54,-141.56"/>
</g>
<!-- Node43&#45;&gt;Node11 -->
<g id="edge157" class="edge">
<title>Node43&#45;&gt;Node11</title>
<path fill="none" stroke="midnightblue" d="M2759.82,-459.3C2739.23,-417.9 2644.68,-239.88 2508.04,-168 2404.86,-113.72 2360.06,-156.66 2241.42,-131.58"/>
<polygon fill="midnightblue" stroke="midnightblue" points="2242.14,-128.15 2231.62,-129.39 2240.61,-134.98 2242.14,-128.15"/>
</g>
<!-- Node43&#45;&gt;Node13 -->
<g id="edge90" class="edge">
<title>Node43&#45;&gt;Node13</title>
<path fill="none" stroke="midnightblue" d="M2729.44,-459.44C2639.71,-436.89 2392.6,-372.57 2193.04,-300 2149.43,-284.14 2100.37,-261.84 2070.86,-247.92"/>
<polygon fill="midnightblue" stroke="midnightblue" points="2072.17,-244.66 2061.63,-243.54 2069.16,-250.99 2072.17,-244.66"/>
</g>
<!-- Node43&#45;&gt;Node16 -->
<g id="edge124" class="edge">
<title>Node43&#45;&gt;Node16</title>
<path fill="none" stroke="midnightblue" d="M2754.4,-459.35C2709.22,-418.8 2518.1,-247.27 2459.32,-194.51"/>
<polygon fill="midnightblue" stroke="midnightblue" points="2461.41,-191.69 2451.64,-187.62 2456.74,-196.9 2461.41,-191.69"/>
</g>
<!-- Node43&#45;&gt;Node27 -->
<g id="edge151" class="edge">
<title>Node43&#45;&gt;Node27</title>
<path fill="none" stroke="midnightblue" d="M2711.85,-467.65C2377.49,-465.35 546.25,-451.49 432.04,-423 327.26,-396.86 228.04,-398.99 228.04,-291 228.04,-291 228.04,-291 228.04,-233 228.04,-202.9 223.42,-186.66 247.04,-168 251.23,-164.69 919.29,-132.8 1087.79,-124.81"/>
<polygon fill="midnightblue" stroke="midnightblue" points="1088.11,-128.3 1097.93,-124.33 1087.78,-121.31 1088.11,-128.3"/>
</g>
<!-- Node43&#45;&gt;Node32 -->
<g id="edge127" class="edge">
<title>Node43&#45;&gt;Node32</title>
<path fill="none" stroke="midnightblue" d="M2816.27,-467.94C2980.15,-467.36 3482.59,-462.32 3640.04,-423 3708.13,-405.99 3741.61,-412.65 3783.04,-356 3832.69,-288.09 3862.89,-229.07 3805.04,-168 3780.78,-142.4 3232.14,-135.68 3141.11,-131.77"/>
<polygon fill="midnightblue" stroke="midnightblue" points="3141.29,-128.28 3131.11,-131.21 3140.9,-135.27 3141.29,-128.28"/>
</g>
<!-- Node43&#45;&gt;Node33 -->
<g id="edge158" class="edge">
<title>Node43&#45;&gt;Node33</title>
<path fill="none" stroke="midnightblue" d="M2816.19,-467.59C3007.71,-465.83 3665.7,-457.32 3753.04,-423 3890.01,-369.17 3887.07,-277.2 3911.04,-132 3913.63,-116.3 3910.16,-98.47 3906.45,-85.47"/>
<polygon fill="midnightblue" stroke="midnightblue" points="3909.75,-84.31 3903.4,-75.83 3903.08,-86.42 3909.75,-84.31"/>
</g>
<!-- Node43&#45;&gt;Node34 -->
<g id="edge154" class="edge">
<title>Node43&#45;&gt;Node34</title>
<path fill="none" stroke="midnightblue" d="M2711.86,-468.14C2366.16,-468.95 415.98,-471.34 301.04,-423 193.52,-377.78 145.18,-237.25 239.04,-168 292.52,-128.54 497.61,-123.4 578.22,-122.94"/>
<polygon fill="midnightblue" stroke="midnightblue" points="578.32,-126.44 588.3,-122.9 578.29,-119.44 578.32,-126.44"/>
</g>
<!-- Node43&#45;&gt;Node37 -->
<g id="edge89" class="edge">
<title>Node43&#45;&gt;Node37</title>
<path fill="none" stroke="midnightblue" d="M2711.7,-468.13C2471.19,-468.48 1478.07,-467.22 1347.04,-423 1298.43,-406.59 1288.01,-393.53 1253.04,-356 1223.21,-324 1199.15,-278.16 1187.21,-253.08"/>
<polygon fill="midnightblue" stroke="midnightblue" points="1190.24,-251.3 1182.86,-243.71 1183.9,-254.25 1190.24,-251.3"/>
</g>
<!-- Node43&#45;&gt;Node39 -->
<g id="edge123" class="edge">
<title>Node43&#45;&gt;Node39</title>
<path fill="none" stroke="midnightblue" d="M2711.8,-468.25C2356.1,-469.6 304.04,-471.97 304.04,-347 304.04,-347 304.04,-347 304.04,-289 304.04,-256.58 311.34,-219.42 316.37,-197.64"/>
<polygon fill="midnightblue" stroke="midnightblue" points="319.81,-198.31 318.74,-187.77 313,-196.67 319.81,-198.31"/>
</g>
<!-- Node43&#45;&gt;Node40 -->
<g id="edge153" class="edge">
<title>Node43&#45;&gt;Node40</title>
<path fill="none" stroke="midnightblue" d="M2816.3,-459.56C2853.02,-452.53 2902.76,-440.77 2944.04,-423 2994.88,-401.11 3006.79,-391.77 3049.04,-356 3109.32,-304.96 3104.67,-271.16 3168.04,-224 3186.99,-209.9 3211.06,-198.55 3230.23,-190.78"/>
<polygon fill="midnightblue" stroke="midnightblue" points="3231.72,-193.95 3239.76,-187.05 3229.17,-187.44 3231.72,-193.95"/>
</g>
<!-- Node43&#45;&gt;Node41 -->
<g id="edge155" class="edge">
<title>Node43&#45;&gt;Node41</title>
<path fill="none" stroke="midnightblue" d="M2712.02,-468.34C2467.37,-469.64 1429.81,-472.14 1110.04,-423 832.88,-380.41 670.36,-470.49 505.04,-244 495.25,-230.6 498.32,-211.22 502.72,-197.12"/>
<polygon fill="midnightblue" stroke="midnightblue" points="506.07,-198.14 506.16,-187.54 499.48,-195.77 506.07,-198.14"/>
</g>
<!-- Node44 -->
<g id="node36" class="node">
<title>Node44</title>
<g id="a_node36"><a xlink:href="c_2Error_8h.html" target="_top" xlink:title="llvm&#45;c/Error.h">
<polygon fill="none" stroke="black" points="3365.54,-398 3365.54,-417 3440.54,-417 3440.54,-398 3365.54,-398"/>
<text text-anchor="middle" x="3403.04" y="-405" font-family="Helvetica,sans-Serif" font-size="10.00">llvm&#45;c/Error.h</text>
</a>
</g>
</g>
<!-- Node43&#45;&gt;Node44 -->
<g id="edge87" class="edge">
<title>Node43&#45;&gt;Node44</title>
<path fill="none" stroke="midnightblue" d="M2816.34,-465.78C2916.18,-461.1 3140.68,-448.51 3328.04,-423 3336.92,-421.79 3346.33,-420.21 3355.38,-418.54"/>
<polygon fill="midnightblue" stroke="midnightblue" points="3356.24,-421.94 3365.4,-416.63 3354.92,-415.06 3356.24,-421.94"/>
</g>
<!-- Node46 -->
<g id="node38" class="node">
<title>Node46</title>
<g id="a_node38"><a xlink:href="StringExtras_8h.html" target="_top" xlink:title="llvm/ADT/StringExtras.h">
<polygon fill="none" stroke="black" points="2027.54,-398 2027.54,-417 2150.54,-417 2150.54,-398 2027.54,-398"/>
<text text-anchor="middle" x="2089.04" y="-405" font-family="Helvetica,sans-Serif" font-size="10.00">llvm/ADT/StringExtras.h</text>
</a>
</g>
</g>
<!-- Node43&#45;&gt;Node46 -->
<g id="edge91" class="edge">
<title>Node43&#45;&gt;Node46</title>
<path fill="none" stroke="midnightblue" d="M2711.75,-466.07C2607.42,-461.78 2366.11,-449.65 2165.04,-423 2156.61,-421.88 2147.71,-420.43 2139.09,-418.88"/>
<polygon fill="midnightblue" stroke="midnightblue" points="2139.6,-415.42 2129.13,-417.03 2138.32,-422.3 2139.6,-415.42"/>
</g>
<!-- Node50 -->
<g id="node40" class="node">
<title>Node50</title>
<polygon fill="none" stroke="#bfbfbf" points="522.04,-224.5 522.04,-243.5 566.04,-243.5 566.04,-224.5 522.04,-224.5"/>
<text text-anchor="middle" x="544.04" y="-231.5" font-family="Helvetica,sans-Serif" font-size="10.00">vector</text>
</g>
<!-- Node43&#45;&gt;Node50 -->
<g id="edge162" class="edge">
<title>Node43&#45;&gt;Node50</title>
<path fill="none" stroke="midnightblue" d="M2711.94,-467.92C2483.52,-467.32 1569.22,-462.48 1285.04,-423 1004.79,-384.07 677.45,-279.61 575.77,-245.75"/>
<polygon fill="midnightblue" stroke="midnightblue" points="576.7,-242.37 566.11,-242.52 574.48,-249.01 576.7,-242.37"/>
</g>
<!-- Node51 -->
<g id="node41" class="node">
<title>Node51</title>
<g id="a_node41"><a xlink:href="Twine_8h.html" target="_top" xlink:title="llvm/ADT/Twine.h">
<polygon fill="none" stroke="black" points="2944.54,-336.5 2944.54,-355.5 3039.54,-355.5 3039.54,-336.5 2944.54,-336.5"/>
<text text-anchor="middle" x="2992.04" y="-343.5" font-family="Helvetica,sans-Serif" font-size="10.00">llvm/ADT/Twine.h</text>
</a>
</g>
</g>
<!-- Node43&#45;&gt;Node51 -->
<g id="edge122" class="edge">
<title>Node43&#45;&gt;Node51</title>
<path fill="none" stroke="midnightblue" d="M2810.62,-459.45C2840.69,-452.6 2879.86,-441.07 2911.04,-423 2938.17,-407.27 2963.52,-380.85 2978.4,-363.67"/>
<polygon fill="midnightblue" stroke="midnightblue" points="2981.41,-365.54 2985.18,-355.64 2976.06,-361.02 2981.41,-365.54"/>
</g>
<!-- Node52 -->
<g id="node42" class="node">
<title>Node52</title>
<g id="a_node42"><a xlink:href="Debug_8h.html" target="_top" xlink:title="llvm/Support/Debug.h">
<polygon fill="none" stroke="black" points="1898.54,-398 1898.54,-417 2009.54,-417 2009.54,-398 1898.54,-398"/>
<text text-anchor="middle" x="1954.04" y="-405" font-family="Helvetica,sans-Serif" font-size="10.00">llvm/Support/Debug.h</text>
</a>
</g>
</g>
<!-- Node43&#45;&gt;Node52 -->
<g id="edge126" class="edge">
<title>Node43&#45;&gt;Node52</title>
<path fill="none" stroke="midnightblue" d="M2711.74,-467.76C2589.64,-466.56 2276.55,-459.83 2018.04,-423 2011.22,-422.03 2004.05,-420.71 1997.07,-419.25"/>
<polygon fill="midnightblue" stroke="midnightblue" points="1997.58,-415.78 1987.06,-417.06 1996.08,-422.62 1997.58,-415.78"/>
</g>
<!-- Node53 -->
<g id="node43" class="node">
<title>Node53</title>
<g id="a_node43"><a xlink:href="ErrorOr_8h.html" target="_top" xlink:title="Provides ErrorOr&lt;T&gt; smart pointer. ">
<polygon fill="none" stroke="black" points="3210.04,-224.5 3210.04,-243.5 3324.04,-243.5 3324.04,-224.5 3210.04,-224.5"/>
<text text-anchor="middle" x="3267.04" y="-231.5" font-family="Helvetica,sans-Serif" font-size="10.00">llvm/Support/ErrorOr.h</text>
</a>
</g>
</g>
<!-- Node43&#45;&gt;Node53 -->
<g id="edge128" class="edge">
<title>Node43&#45;&gt;Node53</title>
<path fill="none" stroke="midnightblue" d="M2816.28,-466.07C2928.54,-461.46 3185.06,-448.26 3215.04,-423 3265.73,-380.29 3269.3,-292.97 3268.17,-254.24"/>
<polygon fill="midnightblue" stroke="midnightblue" points="3271.65,-253.72 3267.72,-243.88 3264.66,-254.03 3271.65,-253.72"/>
</g>
<!-- Node54 -->
<g id="node44" class="node">
<title>Node54</title>
<polygon fill="none" stroke="#bfbfbf" points="3722.04,-168.5 3722.04,-187.5 3796.04,-187.5 3796.04,-168.5 3722.04,-168.5"/>
<text text-anchor="middle" x="3759.04" y="-175.5" font-family="Helvetica,sans-Serif" font-size="10.00">system_error</text>
</g>
<!-- Node43&#45;&gt;Node54 -->
<g id="edge159" class="edge">
<title>Node43&#45;&gt;Node54</title>
<path fill="none" stroke="midnightblue" d="M2816.35,-467.27C3022.85,-463.68 3770.04,-444.03 3770.04,-347 3770.04,-347 3770.04,-347 3770.04,-289 3770.04,-256.79 3765.31,-219.53 3762.05,-197.69"/>
<polygon fill="midnightblue" stroke="midnightblue" points="3765.47,-196.87 3760.47,-187.53 3758.55,-197.95 3765.47,-196.87"/>
</g>
<!-- Node55 -->
<g id="node45" class="node">
<title>Node55</title>
<g id="a_node45"><a xlink:href="Format_8h.html" target="_top" xlink:title="llvm/Support/Format.h">
<polygon fill="none" stroke="red" points="1262.54,-336.5 1262.54,-355.5 1375.54,-355.5 1375.54,-336.5 1262.54,-336.5"/>
<text text-anchor="middle" x="1319.04" y="-343.5" font-family="Helvetica,sans-Serif" font-size="10.00">llvm/Support/Format.h</text>
</a>
</g>
</g>
<!-- Node43&#45;&gt;Node55 -->
<g id="edge134" class="edge">
<title>Node43&#45;&gt;Node55</title>
<path fill="none" stroke="midnightblue" d="M2711.97,-467.41C2468.48,-464.51 1451.23,-450.77 1390.04,-423 1362.87,-410.67 1341.2,-382.61 1329.24,-364.25"/>
<polygon fill="midnightblue" stroke="midnightblue" points="1332.16,-362.3 1323.9,-355.67 1326.22,-366.01 1332.16,-362.3"/>
</g>
<!-- Node57 -->
<g id="node46" class="node">
<title>Node57</title>
<g id="a_node46"><a xlink:href="raw__ostream_8h.html" target="_top" xlink:title="llvm/Support/raw_ostream.h">
<polygon fill="none" stroke="black" points="3488.54,-336.5 3488.54,-355.5 3627.54,-355.5 3627.54,-336.5 3488.54,-336.5"/>
<text text-anchor="middle" x="3558.04" y="-343.5" font-family="Helvetica,sans-Serif" font-size="10.00">llvm/Support/raw_ostream.h</text>
</a>
</g>
</g>
<!-- Node43&#45;&gt;Node57 -->
<g id="edge141" class="edge">
<title>Node43&#45;&gt;Node57</title>
<path fill="none" stroke="midnightblue" d="M2816.25,-468.2C2955.56,-468.18 3333.34,-464.2 3450.04,-423 3486.74,-410.04 3522.25,-380.85 3542.02,-362.66"/>
<polygon fill="midnightblue" stroke="midnightblue" points="3544.61,-365.02 3549.48,-355.61 3539.81,-359.93 3544.61,-365.02"/>
</g>
<!-- Node45 -->
<g id="node37" class="node">
<title>Node45</title>
<g id="a_node37"><a xlink:href="ExternC_8h.html" target="_top" xlink:title="llvm&#45;c/ExternC.h">
<polygon fill="none" stroke="black" points="3380.04,-336.5 3380.04,-355.5 3470.04,-355.5 3470.04,-336.5 3380.04,-336.5"/>
<text text-anchor="middle" x="3425.04" y="-343.5" font-family="Helvetica,sans-Serif" font-size="10.00">llvm&#45;c/ExternC.h</text>
</a>
</g>
</g>
<!-- Node44&#45;&gt;Node45 -->
<g id="edge88" class="edge">
<title>Node44&#45;&gt;Node45</title>
<path fill="none" stroke="midnightblue" d="M3406.19,-397.98C3409.36,-389.4 3414.34,-375.93 3418.39,-364.98"/>
<polygon fill="midnightblue" stroke="midnightblue" points="3421.7,-366.1 3421.89,-355.51 3415.14,-363.67 3421.7,-366.1"/>
</g>
<!-- Node46&#45;&gt;Node8 -->
<g id="edge121" class="edge">
<title>Node46&#45;&gt;Node8</title>
<path fill="none" stroke="midnightblue" d="M2053.47,-398C2042.21,-395.64 2029.66,-393.35 2018.04,-392 1498.2,-331.42 1361.57,-410.23 841.04,-356 700.48,-341.36 665.33,-333.5 528.04,-300 365.25,-260.28 267.38,-322.94 168.04,-188 109.46,-108.43 -257.89,-210.28 498.04,-112 673.69,-89.16 885.85,-74.06 963.6,-68.94"/>
<polygon fill="midnightblue" stroke="midnightblue" points="963.91,-72.42 973.66,-68.28 963.45,-65.44 963.91,-72.42"/>
</g>
<!-- Node46&#45;&gt;Node9 -->
<g id="edge114" class="edge">
<title>Node46&#45;&gt;Node9</title>
<path fill="none" stroke="midnightblue" d="M2148.27,-397.95C2276.12,-378.57 2586.52,-326.46 2836.04,-244 2893.45,-225.02 2927.24,-238.8 2960.04,-188 2969.21,-173.8 2963.3,-154.57 2956.57,-140.72"/>
<polygon fill="midnightblue" stroke="midnightblue" points="2959.55,-138.87 2951.73,-131.73 2953.39,-142.19 2959.55,-138.87"/>
</g>
<!-- Node46&#45;&gt;Node12 -->
<g id="edge105" class="edge">
<title>Node46&#45;&gt;Node12</title>
<path fill="none" stroke="midnightblue" d="M2082.59,-397.98C2075.84,-389.05 2065.07,-374.81 2056.62,-363.64"/>
<polygon fill="midnightblue" stroke="midnightblue" points="2059.29,-361.37 2050.47,-355.51 2053.71,-365.6 2059.29,-361.37"/>
</g>
<!-- Node46&#45;&gt;Node15 -->
<g id="edge119" class="edge">
<title>Node46&#45;&gt;Node15</title>
<path fill="none" stroke="midnightblue" d="M2053.48,-397.97C2042.21,-395.61 2029.66,-393.33 2018.04,-392 1429.68,-324.49 1275.82,-409.62 686.04,-356 524.78,-341.34 485.47,-328.28 326.04,-300 180.57,-274.2 0.04,-382.74 0.04,-235 0.04,-235 0.04,-235 0.04,-177 0.04,-146.2 -0.54,-130.56 24.04,-112 68.08,-78.73 456.85,-69.54 575.08,-67.5"/>
<polygon fill="midnightblue" stroke="midnightblue" points="575.4,-71 585.34,-67.33 575.28,-64 575.4,-71"/>
</g>
<!-- Node46&#45;&gt;Node17 -->
<g id="edge115" class="edge">
<title>Node46&#45;&gt;Node17</title>
<path fill="none" stroke="midnightblue" d="M2042.89,-397.95C1989.27,-385.04 1908.04,-354.93 1908.04,-291 1908.04,-291 1908.04,-291 1908.04,-233 1908.04,-198.81 1924.64,-161.76 1935.89,-140.57"/>
<polygon fill="midnightblue" stroke="midnightblue" points="1938.98,-142.22 1940.75,-131.77 1932.85,-138.83 1938.98,-142.22"/>
</g>
<!-- Node46&#45;&gt;Node29 -->
<g id="edge118" class="edge">
<title>Node46&#45;&gt;Node29</title>
<path fill="none" stroke="midnightblue" d="M2150.57,-405.35C2334.08,-401.61 2875.59,-388.07 3049.04,-356 3190.22,-329.9 3265.81,-358.8 3352.04,-244 3372.41,-216.88 3380.03,-194.64 3359.04,-168 3340.22,-144.11 3253.52,-131.44 3205.06,-126.11"/>
<polygon fill="midnightblue" stroke="midnightblue" points="3205.36,-122.62 3195.05,-125.06 3204.62,-129.59 3205.36,-122.62"/>
</g>
<!-- Node46&#45;&gt;Node33 -->
<g id="edge120" class="edge">
<title>Node46&#45;&gt;Node33</title>
<path fill="none" stroke="midnightblue" d="M2150.61,-406.43C2420.71,-405.85 3493.6,-400.73 3637.04,-356 3754.49,-319.38 3780.88,-284.63 3857.04,-188 3875.65,-164.38 3885.1,-160.39 3895.04,-132 3900.24,-117.13 3901.26,-99.21 3901.11,-85.95"/>
<polygon fill="midnightblue" stroke="midnightblue" points="3904.6,-85.57 3900.75,-75.7 3897.6,-85.82 3904.6,-85.57"/>
</g>
<!-- Node46&#45;&gt;Node34 -->
<g id="edge117" class="edge">
<title>Node46&#45;&gt;Node34</title>
<path fill="none" stroke="midnightblue" d="M2052.73,-397.96C2041.65,-395.66 2029.4,-393.42 2018.04,-392 1398.4,-314.62 1229.11,-418.66 616.04,-300 610.78,-298.98 250.23,-192.3 247.04,-188 241.74,-180.86 241.15,-174.66 247.04,-168 249.78,-164.89 489.56,-136.99 578.4,-126.75"/>
<polygon fill="midnightblue" stroke="midnightblue" points="578.93,-130.21 588.47,-125.59 578.13,-123.26 578.93,-130.21"/>
</g>
<!-- Node46&#45;&gt;Node36 -->
<g id="edge106" class="edge">
<title>Node46&#45;&gt;Node36</title>
<path fill="none" stroke="midnightblue" d="M2104.9,-397.82C2141.41,-377.83 2231.66,-328.43 2275.43,-304.47"/>
<polygon fill="midnightblue" stroke="midnightblue" points="2277.19,-307.5 2284.28,-299.62 2273.83,-301.36 2277.19,-307.5"/>
</g>
<!-- Node46&#45;&gt;Node40 -->
<g id="edge116" class="edge">
<title>Node46&#45;&gt;Node40</title>
<path fill="none" stroke="midnightblue" d="M2150.86,-406.03C2259.6,-404.14 2491.69,-395.37 2683.04,-356 2865.16,-318.53 2901.39,-275.57 3080.04,-224 3131.82,-209.05 3192.74,-194.71 3229.59,-186.38"/>
<polygon fill="midnightblue" stroke="midnightblue" points="3230.78,-189.7 3239.77,-184.09 3229.24,-182.87 3230.78,-189.7"/>
</g>
<!-- Node47 -->
<g id="node39" class="node">
<title>Node47</title>
<g id="a_node39"><a xlink:href="ArrayRef_8h.html" target="_top" xlink:title="llvm/ADT/ArrayRef.h">
<polygon fill="none" stroke="red" points="1266.04,-280.5 1266.04,-299.5 1374.04,-299.5 1374.04,-280.5 1266.04,-280.5"/>
<text text-anchor="middle" x="1320.04" y="-287.5" font-family="Helvetica,sans-Serif" font-size="10.00">llvm/ADT/ArrayRef.h</text>
</a>
</g>
</g>
<!-- Node46&#45;&gt;Node47 -->
<g id="edge92" class="edge">
<title>Node46&#45;&gt;Node47</title>
<path fill="none" stroke="midnightblue" d="M2049.31,-397.97C2039.14,-395.9 2028.2,-393.77 2018.04,-392 1785.44,-351.46 1507.22,-314.69 1384.08,-299.01"/>
<polygon fill="midnightblue" stroke="midnightblue" points="1384.42,-295.52 1374.06,-297.74 1383.54,-302.47 1384.42,-295.52"/>
</g>
<!-- Node46&#45;&gt;Node51 -->
<g id="edge107" class="edge">
<title>Node46&#45;&gt;Node51</title>
<path fill="none" stroke="midnightblue" d="M2150.75,-402.43C2317.02,-391.48 2772.68,-361.45 2934.27,-350.81"/>
<polygon fill="midnightblue" stroke="midnightblue" points="2934.73,-354.28 2944.48,-350.13 2934.27,-347.3 2934.73,-354.28"/>
</g>
<!-- Node47&#45;&gt;Node2 -->
<g id="edge93" class="edge">
<title>Node47&#45;&gt;Node2</title>
<path fill="none" stroke="midnightblue" d="M1265.64,-289.47C1149.22,-289.66 879.98,-285.45 800.04,-244 755.07,-220.68 721.97,-168.2 706.96,-140.65"/>
<polygon fill="midnightblue" stroke="midnightblue" points="710.02,-138.94 702.27,-131.72 703.83,-142.2 710.02,-138.94"/>
</g>
<!-- Node47&#45;&gt;Node3 -->
<g id="edge96" class="edge">
<title>Node47&#45;&gt;Node3</title>
<path fill="none" stroke="midnightblue" d="M1349.16,-280.39C1407.94,-263.01 1545,-222.43 1660.04,-188 1772.11,-154.46 1797.75,-136.96 1912.04,-112 1998.66,-93.08 2100.07,-80.56 2166.5,-73.64"/>
<polygon fill="midnightblue" stroke="midnightblue" points="2167.26,-77.08 2176.85,-72.57 2166.55,-70.11 2167.26,-77.08"/>
</g>
<!-- Node47&#45;&gt;Node7 -->
<g id="edge103" class="edge">
<title>Node47&#45;&gt;Node7</title>
<path fill="none" stroke="midnightblue" d="M1374.47,-286.59C1503.17,-280.76 1836.26,-264.78 2114.04,-244 2209.74,-236.84 2233.41,-232.12 2329.04,-224 2381,-219.58 2755.34,-219.33 2797.04,-188 2827.86,-164.84 2822.95,-113.49 2817.53,-85.71"/>
<polygon fill="midnightblue" stroke="midnightblue" points="2820.9,-84.73 2815.36,-75.71 2814.06,-86.22 2820.9,-84.73"/>
</g>
<!-- Node47&#45;&gt;Node9 -->
<g id="edge98" class="edge">
<title>Node47&#45;&gt;Node9</title>
<path fill="none" stroke="midnightblue" d="M1374.37,-287.13C1630.12,-278.09 2707.51,-237.38 2849.04,-188 2879.96,-177.21 2910.49,-154.15 2928.8,-138.61"/>
<polygon fill="midnightblue" stroke="midnightblue" points="2931.52,-140.88 2936.76,-131.66 2926.92,-135.6 2931.52,-140.88"/>
</g>
<!-- Node47&#45;&gt;Node10 -->
<g id="edge102" class="edge">
<title>Node47&#45;&gt;Node10</title>
<path fill="none" stroke="midnightblue" d="M1324.33,-280.14C1330.43,-267.61 1341.97,-244 1352.04,-224 1366.83,-194.61 1384.43,-160.64 1394.89,-140.53"/>
<polygon fill="midnightblue" stroke="midnightblue" points="1398.01,-142.11 1399.53,-131.62 1391.81,-138.87 1398.01,-142.11"/>
</g>
<!-- Node47&#45;&gt;Node13 -->
<g id="edge94" class="edge">
<title>Node47&#45;&gt;Node13</title>
<path fill="none" stroke="midnightblue" d="M1374.16,-284.96C1503.04,-275.35 1828.11,-251.11 1972.74,-240.32"/>
<polygon fill="midnightblue" stroke="midnightblue" points="1973.12,-243.8 1982.84,-239.56 1972.6,-236.82 1973.12,-243.8"/>
</g>
<!-- Node47&#45;&gt;Node15 -->
<g id="edge101" class="edge">
<title>Node47&#45;&gt;Node15</title>
<path fill="none" stroke="midnightblue" d="M1265.93,-288.11C1123.44,-285.37 740.44,-275.21 618.04,-244 597.61,-238.79 594.86,-231.15 575.04,-224 515.81,-202.64 476.48,-237.85 438.04,-188 395.21,-132.46 513.94,-91.94 575.13,-75.32"/>
<polygon fill="midnightblue" stroke="midnightblue" points="576.35,-78.62 585.13,-72.68 574.57,-71.85 576.35,-78.62"/>
</g>
<!-- Node47&#45;&gt;Node17 -->
<g id="edge99" class="edge">
<title>Node47&#45;&gt;Node17</title>
<path fill="none" stroke="midnightblue" d="M1367.53,-280.5C1450.19,-265.22 1625.48,-230.71 1770.04,-188 1822.35,-172.54 1881.54,-149.49 1916.22,-135.4"/>
<polygon fill="midnightblue" stroke="midnightblue" points="1917.81,-138.53 1925.74,-131.5 1915.16,-132.05 1917.81,-138.53"/>
</g>
<!-- Node47&#45;&gt;Node27 -->
<g id="edge97" class="edge">
<title>Node47&#45;&gt;Node27</title>
<path fill="none" stroke="midnightblue" d="M1265.87,-284.85C1210.83,-279.38 1131.03,-267.54 1112.04,-244 1088.12,-214.36 1104.78,-166.54 1116.77,-140.79"/>
<polygon fill="midnightblue" stroke="midnightblue" points="1119.92,-142.31 1121.18,-131.79 1113.63,-139.23 1119.92,-142.31"/>
</g>
<!-- Node47&#45;&gt;Node35 -->
<g id="edge100" class="edge">
<title>Node47&#45;&gt;Node35</title>
<path fill="none" stroke="midnightblue" d="M1312.58,-280.37C1296.76,-262.05 1259.62,-219.05 1239.17,-195.36"/>
<polygon fill="midnightblue" stroke="midnightblue" points="1241.64,-192.87 1232.46,-187.59 1236.34,-197.45 1241.64,-192.87"/>
</g>
<!-- Node47&#45;&gt;Node37 -->
<g id="edge95" class="edge">
<title>Node47&#45;&gt;Node37</title>
<path fill="none" stroke="midnightblue" d="M1297.69,-280.44C1274.28,-271.48 1237.3,-257.31 1210.85,-247.18"/>
<polygon fill="midnightblue" stroke="midnightblue" points="1211.86,-243.82 1201.27,-243.52 1209.36,-250.36 1211.86,-243.82"/>
</g>
<!-- Node47&#45;&gt;Node50 -->
<g id="edge104" class="edge">
<title>Node47&#45;&gt;Node50</title>
<path fill="none" stroke="midnightblue" d="M1265.82,-289.11C1143,-288.61 834.45,-283.2 580.04,-244 578.78,-243.81 577.51,-243.59 576.23,-243.35"/>
<polygon fill="midnightblue" stroke="midnightblue" points="576.88,-239.92 566.37,-241.26 575.43,-246.76 576.88,-239.92"/>
</g>
<!-- Node51&#45;&gt;Node9 -->
<g id="edge111" class="edge">
<title>Node51&#45;&gt;Node9</title>
<path fill="none" stroke="midnightblue" d="M2995.52,-336.11C3000.83,-323.12 3011.74,-298.5 3025.04,-280 3045.39,-251.67 3050.44,-242.47 3080.04,-224 3125.9,-195.37 3222.86,-209.36 3188.04,-168 3159.54,-134.15 3040.49,-141.04 2980.91,-131.71"/>
<polygon fill="midnightblue" stroke="midnightblue" points="2981.33,-128.22 2970.86,-129.84 2980.05,-135.11 2981.33,-128.22"/>
</g>
<!-- Node51&#45;&gt;Node13 -->
<g id="edge108" class="edge">
<title>Node51&#45;&gt;Node13</title>
<path fill="none" stroke="midnightblue" d="M2944.43,-344.49C2800.44,-342.58 2371.08,-334.11 2236.04,-300 2215.6,-294.84 2212.73,-287.51 2193.04,-280 2157.88,-266.59 2116.88,-254.45 2086.8,-246.17"/>
<polygon fill="midnightblue" stroke="midnightblue" points="2087.61,-242.77 2077.04,-243.52 2085.77,-249.52 2087.61,-242.77"/>
</g>
<!-- Node51&#45;&gt;Node32 -->
<g id="edge110" class="edge">
<title>Node51&#45;&gt;Node32</title>
<path fill="none" stroke="midnightblue" d="M3028.35,-336.49C3111.87,-316.61 3312.05,-267.06 3333.04,-244 3350.11,-225.24 3341.58,-213.25 3344.04,-188 3344.9,-179.15 3349.81,-174.76 3344.04,-168 3337.31,-160.13 3220.03,-143.56 3138.31,-132.87"/>
<polygon fill="midnightblue" stroke="midnightblue" points="3138.4,-129.35 3128.03,-131.53 3137.49,-136.3 3138.4,-129.35"/>
</g>
<!-- Node51&#45;&gt;Node33 -->
<g id="edge113" class="edge">
<title>Node51&#45;&gt;Node33</title>
<path fill="none" stroke="midnightblue" d="M3039.61,-337.66C3086.42,-329.98 3159.75,-316.71 3222.04,-300 3477.21,-231.54 3775.35,-116.42 3869.78,-79.08"/>
<polygon fill="midnightblue" stroke="midnightblue" points="3871.27,-82.26 3879.27,-75.32 3868.69,-75.75 3871.27,-82.26"/>
</g>
<!-- Node51&#45;&gt;Node36 -->
<g id="edge109" class="edge">
<title>Node51&#45;&gt;Node36</title>
<path fill="none" stroke="midnightblue" d="M2944.47,-341.29C2823.52,-331.85 2504.03,-306.92 2365.57,-296.11"/>
<polygon fill="midnightblue" stroke="midnightblue" points="2365.76,-292.62 2355.52,-295.33 2365.22,-299.6 2365.76,-292.62"/>
</g>
<!-- Node51&#45;&gt;Node40 -->
<g id="edge112" class="edge">
<title>Node51&#45;&gt;Node40</title>
<path fill="none" stroke="midnightblue" d="M2998.16,-336.21C3014.1,-313.98 3059.25,-255.09 3111.04,-224 3121.36,-217.8 3188.65,-199.03 3230.16,-187.79"/>
<polygon fill="midnightblue" stroke="midnightblue" points="3231.11,-191.16 3239.86,-185.17 3229.29,-184.4 3231.11,-191.16"/>
</g>
<!-- Node53&#45;&gt;Node7 -->
<g id="edge132" class="edge">
<title>Node53&#45;&gt;Node7</title>
<path fill="none" stroke="midnightblue" d="M3292.41,-224.45C3320.82,-213.45 3360.81,-192.77 3344.04,-168 3289,-86.71 2969.26,-70.83 2854.24,-67.74"/>
<polygon fill="midnightblue" stroke="midnightblue" points="2854.16,-64.24 2844.08,-67.49 2853.99,-71.24 2854.16,-64.24"/>
</g>
<!-- Node53&#45;&gt;Node8 -->
<g id="edge133" class="edge">
<title>Node53&#45;&gt;Node8</title>
<path fill="none" stroke="midnightblue" d="M3209.91,-232.74C2919.22,-231.27 1615.03,-222.76 1537.04,-188 1494.54,-169.06 1506.85,-132.4 1465.04,-112 1386.91,-73.89 1116.03,-68.04 1024.52,-67.15"/>
<polygon fill="midnightblue" stroke="midnightblue" points="1024.3,-63.65 1014.27,-67.07 1024.24,-70.65 1024.3,-63.65"/>
</g>
<!-- Node53&#45;&gt;Node9 -->
<g id="edge130" class="edge">
<title>Node53&#45;&gt;Node9</title>
<path fill="none" stroke="midnightblue" d="M3285.31,-224.48C3309.37,-212.15 3346.59,-188.57 3328.04,-168 3277.9,-112.41 3072.57,-143.47 2980.9,-131.61"/>
<polygon fill="midnightblue" stroke="midnightblue" points="2981.24,-128.12 2970.82,-130.04 2980.16,-135.03 2981.24,-128.12"/>
</g>
<!-- Node53&#45;&gt;Node16 -->
<g id="edge129" class="edge">
<title>Node53&#45;&gt;Node16</title>
<path fill="none" stroke="midnightblue" d="M3210,-229.27C3062.43,-219.61 2668.49,-193.82 2509.74,-183.43"/>
<polygon fill="midnightblue" stroke="midnightblue" points="2509.83,-179.93 2499.62,-182.77 2509.37,-186.92 2509.83,-179.93"/>
</g>
<!-- Node53&#45;&gt;Node54 -->
<g id="edge131" class="edge">
<title>Node53&#45;&gt;Node54</title>
<path fill="none" stroke="midnightblue" d="M3324.44,-226.7C3422.68,-215.92 3621.21,-194.13 3711.91,-184.17"/>
<polygon fill="midnightblue" stroke="midnightblue" points="3712.35,-187.65 3721.9,-183.08 3711.58,-180.69 3712.35,-187.65"/>
</g>
<!-- Node55&#45;&gt;Node8 -->
<g id="edge140" class="edge">
<title>Node55&#45;&gt;Node8</title>
<path fill="none" stroke="midnightblue" d="M1262.49,-345.58C1142.44,-345.9 853.62,-341.8 616.04,-300 497.47,-279.14 472.95,-252.72 356.04,-224 276.81,-204.54 227.76,-251.09 176.04,-188 170.4,-181.13 170.11,-174.63 176.04,-168 224.04,-114.33 429.21,-153.13 498.04,-132 516.28,-126.4 517.75,-117.48 536.04,-112 616.67,-87.83 874.85,-72.96 963.68,-68.46"/>
<polygon fill="midnightblue" stroke="midnightblue" points="964.07,-71.94 973.88,-67.95 963.72,-64.95 964.07,-71.94"/>
</g>
<!-- Node55&#45;&gt;Node9 -->
<g id="edge138" class="edge">
<title>Node55&#45;&gt;Node9</title>
<path fill="none" stroke="midnightblue" d="M1375.81,-344.6C1533.16,-343.04 1988,-335.56 2364.04,-300 2534.87,-283.84 2578.26,-279.98 2746.04,-244 2835.04,-224.91 2886.51,-259.35 2943.04,-188 2953.22,-175.14 2952.82,-155.96 2950.56,-141.77"/>
<polygon fill="midnightblue" stroke="midnightblue" points="2953.93,-140.78 2948.52,-131.67 2947.07,-142.16 2953.93,-140.78"/>
</g>
<!-- Node55&#45;&gt;Node36 -->
<g id="edge137" class="edge">
<title>Node55&#45;&gt;Node36</title>
<path fill="none" stroke="midnightblue" d="M1375.66,-341.88C1546.07,-332.5 2053.53,-304.57 2234.79,-294.59"/>
<polygon fill="midnightblue" stroke="midnightblue" points="2235.18,-298.08 2244.97,-294.03 2234.79,-291.09 2235.18,-298.08"/>
</g>
<!-- Node55&#45;&gt;Node37 -->
<g id="edge136" class="edge">
<title>Node55&#45;&gt;Node37</title>
<path fill="none" stroke="midnightblue" d="M1306.5,-336.28C1293.85,-327.38 1273.83,-313.07 1257.04,-300 1235.91,-283.56 1212.4,-263.75 1196.76,-250.35"/>
<polygon fill="midnightblue" stroke="midnightblue" points="1198.82,-247.5 1188.96,-243.63 1194.25,-252.81 1198.82,-247.5"/>
</g>
<!-- Node55&#45;&gt;Node42 -->
<g id="edge139" class="edge">
<title>Node55&#45;&gt;Node42</title>
<path fill="none" stroke="midnightblue" d="M1262.35,-342.16C1087.09,-332.8 562.7,-300.27 513.04,-244 496.57,-225.34 524.43,-205.1 548.41,-192.25"/>
<polygon fill="midnightblue" stroke="midnightblue" points="550.32,-195.2 557.64,-187.54 547.14,-188.96 550.32,-195.2"/>
</g>
<!-- Node55&#45;&gt;Node47 -->
<g id="edge135" class="edge">
<title>Node55&#45;&gt;Node47</title>
<path fill="none" stroke="midnightblue" d="M1319.2,-336.08C1319.33,-329.01 1319.52,-318.86 1319.68,-309.99"/>
<polygon fill="midnightblue" stroke="midnightblue" points="1323.19,-309.81 1319.87,-299.75 1316.19,-309.68 1323.19,-309.81"/>
</g>
<!-- Node57&#45;&gt;Node7 -->
<g id="edge150" class="edge">
<title>Node57&#45;&gt;Node7</title>
<path fill="none" stroke="midnightblue" d="M3569.76,-336.2C3580.09,-327.89 3594.87,-314.56 3604.04,-300 3635.37,-250.21 3655.05,-210.19 3614.04,-168 3560.49,-112.92 3011.31,-78.11 2854.59,-69.25"/>
<polygon fill="midnightblue" stroke="midnightblue" points="2854.59,-65.74 2844.41,-68.68 2854.2,-72.73 2854.59,-65.74"/>
</g>
<!-- Node57&#45;&gt;Node9 -->
<g id="edge144" class="edge">
<title>Node57&#45;&gt;Node9</title>
<path fill="none" stroke="midnightblue" d="M3551.04,-336.32C3526.43,-306.53 3440.17,-208.06 3344.04,-168 3197.05,-106.75 3142.27,-158.67 2981.08,-131.84"/>
<polygon fill="midnightblue" stroke="midnightblue" points="2981.27,-128.32 2970.82,-130.05 2980.07,-135.22 2981.27,-128.32"/>
</g>
<!-- Node57&#45;&gt;Node13 -->
<g id="edge142" class="edge">
<title>Node57&#45;&gt;Node13</title>
<path fill="none" stroke="midnightblue" d="M3488.27,-336.89C3485.15,-336.58 3482.06,-336.28 3479.04,-336 2956.58,-287.88 2325.25,-250.72 2115.56,-238.94"/>
<polygon fill="midnightblue" stroke="midnightblue" points="2115.48,-235.43 2105.3,-238.36 2115.09,-242.42 2115.48,-235.43"/>
</g>
<!-- Node57&#45;&gt;Node17 -->
<g id="edge145" class="edge">
<title>Node57&#45;&gt;Node17</title>
<path fill="none" stroke="midnightblue" d="M3506.58,-336.47C3365.37,-313.03 2959.9,-245.57 2623.04,-188 2571.9,-179.26 2559.5,-174.52 2508.04,-168 2309.28,-142.81 2069.09,-129.14 1980.77,-124.66"/>
<polygon fill="midnightblue" stroke="midnightblue" points="1980.93,-121.17 1970.77,-124.16 1980.58,-128.16 1980.93,-121.17"/>
</g>
<!-- Node57&#45;&gt;Node29 -->
<g id="edge147" class="edge">
<title>Node57&#45;&gt;Node29</title>
<path fill="none" stroke="midnightblue" d="M3564.25,-336.3C3583.6,-308.06 3638.9,-217.9 3594.04,-168 3568.16,-139.21 3300.39,-127.36 3205.31,-124.04"/>
<polygon fill="midnightblue" stroke="midnightblue" points="3205.22,-120.54 3195.11,-123.7 3204.98,-127.53 3205.22,-120.54"/>
</g>
<!-- Node57&#45;&gt;Node33 -->
<g id="edge148" class="edge">
<title>Node57&#45;&gt;Node33</title>
<path fill="none" stroke="midnightblue" d="M3598.33,-336.47C3626.45,-329.39 3664.15,-317.61 3694.04,-300 3788.88,-244.11 3814.83,-223.5 3876.04,-132 3885.55,-117.78 3891.9,-99.31 3895.66,-85.69"/>
<polygon fill="midnightblue" stroke="midnightblue" points="3899.16,-86.15 3898.23,-75.59 3892.37,-84.42 3899.16,-86.15"/>
</g>
<!-- Node57&#45;&gt;Node36 -->
<g id="edge143" class="edge">
<title>Node57&#45;&gt;Node36</title>
<path fill="none" stroke="midnightblue" d="M3488.28,-336.76C3485.16,-336.49 3482.06,-336.23 3479.04,-336 3055.03,-303.8 2543.39,-294.23 2365.07,-291.76"/>
<polygon fill="midnightblue" stroke="midnightblue" points="2365.11,-288.26 2355.07,-291.63 2365.02,-295.26 2365.11,-288.26"/>
</g>
<!-- Node57&#45;&gt;Node40 -->
<g id="edge146" class="edge">
<title>Node57&#45;&gt;Node40</title>
<path fill="none" stroke="midnightblue" d="M3534.78,-336.43C3512.95,-328.08 3479.62,-314.55 3452.04,-300 3447.71,-297.72 3333.61,-224.39 3284.83,-193.02"/>
<polygon fill="midnightblue" stroke="midnightblue" points="3286.56,-189.97 3276.26,-187.51 3282.77,-195.86 3286.56,-189.97"/>
</g>
<!-- Node57&#45;&gt;Node54 -->
<g id="edge149" class="edge">
<title>Node57&#45;&gt;Node54</title>
<path fill="none" stroke="midnightblue" d="M3592.66,-336.5C3616.2,-329.49 3647.1,-317.78 3670.04,-300 3707.34,-271.09 3736.38,-222.58 3750.2,-196.64"/>
<polygon fill="midnightblue" stroke="midnightblue" points="3753.39,-198.08 3754.88,-187.59 3747.17,-194.87 3753.39,-198.08"/>
</g>
<!-- Node58&#45;&gt;Node57 -->
<g id="edge164" class="edge">
<title>Node58&#45;&gt;Node57</title>
<path fill="none" stroke="midnightblue" d="M3965.7,-399.62C3884.06,-389.08 3727.76,-368.91 3634.21,-356.83"/>
<polygon fill="midnightblue" stroke="midnightblue" points="3634.6,-353.35 3624.24,-355.54 3633.71,-360.3 3634.6,-353.35"/>
</g>
<!-- Node59 -->
<g id="node48" class="node">
<title>Node59</title>
<polygon fill="none" stroke="#bfbfbf" points="3996.54,-336.5 3996.54,-355.5 4041.54,-355.5 4041.54,-336.5 3996.54,-336.5"/>
<text text-anchor="middle" x="4019.04" y="-343.5" font-family="Helvetica,sans-Serif" font-size="10.00">iosfwd</text>
</g>
<!-- Node58&#45;&gt;Node59 -->
<g id="edge165" class="edge">
<title>Node58&#45;&gt;Node59</title>
<path fill="none" stroke="midnightblue" d="M4019.04,-392.4C4019.04,-384.47 4019.04,-374.46 4019.04,-365.86"/>
<polygon fill="midnightblue" stroke="midnightblue" points="4022.54,-365.66 4019.04,-355.66 4015.54,-365.66 4022.54,-365.66"/>
</g>
</g>
</svg>
