<?xml version="1.0" encoding="UTF-8" standalone="no"?>
<!DOCTYPE svg PUBLIC "-//W3C//DTD SVG 1.1//EN"
 "http://www.w3.org/Graphics/SVG/1.1/DTD/svg11.dtd">
<!-- Generated by graphviz version 2.43.0 (0)
 -->
<!-- Title: include/llvm/Support/SourceMgr.h Pages: 1 -->
<svg width="6182pt" height="240pt"
 viewBox="0.00 0.00 6182.00 240.00" xmlns="http://www.w3.org/2000/svg" xmlns:xlink="http://www.w3.org/1999/xlink">
<g id="graph0" class="graph" transform="scale(1 1) rotate(0) translate(4 236)">
<title>include/llvm/Support/SourceMgr.h</title>
<!-- Node84 -->
<g id="node1" class="node">
<title>Node84</title>
<polygon fill="#bfbfbf" stroke="black" points="2990.5,-201.5 2990.5,-231.5 3095.5,-231.5 3095.5,-201.5 2990.5,-201.5"/>
<text text-anchor="start" x="2998.5" y="-219.5" font-family="Helvetica,sans-Serif" font-size="10.00">include/llvm/Support</text>
<text text-anchor="middle" x="3043" y="-208.5" font-family="Helvetica,sans-Serif" font-size="10.00">/SourceMgr.h</text>
</g>
<!-- Node85 -->
<g id="node2" class="node">
<title>Node85</title>
<g id="a_node2"><a xlink:href="AsmPrinter_8h.html" target="_top" xlink:title="include/llvm/CodeGen\l/AsmPrinter.h">
<polygon fill="none" stroke="red" points="570.5,-134.5 570.5,-164.5 683.5,-164.5 683.5,-134.5 570.5,-134.5"/>
<text text-anchor="start" x="578.5" y="-152.5" font-family="Helvetica,sans-Serif" font-size="10.00">include/llvm/CodeGen</text>
<text text-anchor="middle" x="627" y="-141.5" font-family="Helvetica,sans-Serif" font-size="10.00">/AsmPrinter.h</text>
</a>
</g>
</g>
<!-- Node84&#45;&gt;Node85 -->
<g id="edge1" class="edge">
<title>Node84&#45;&gt;Node85</title>
<path fill="none" stroke="midnightblue" d="M2980.09,-213.81C2638.45,-204.62 1009.41,-160.79 683.74,-152.03"/>
<polygon fill="midnightblue" stroke="midnightblue" points="2980.2,-217.31 2990.29,-214.08 2980.39,-210.31 2980.2,-217.31"/>
</g>
<!-- Node111 -->
<g id="node12" class="node">
<title>Node111</title>
<g id="a_node12"><a xlink:href="AsmPrinterInlineAsm_8cpp.html" target="_top" xlink:title="lib/CodeGen/AsmPrinter\l/AsmPrinterInlineAsm.cpp">
<polygon fill="none" stroke="black" points="1094.5,-67.5 1094.5,-97.5 1225.5,-97.5 1225.5,-67.5 1094.5,-67.5"/>
<text text-anchor="start" x="1102.5" y="-85.5" font-family="Helvetica,sans-Serif" font-size="10.00">lib/CodeGen/AsmPrinter</text>
<text text-anchor="middle" x="1160" y="-74.5" font-family="Helvetica,sans-Serif" font-size="10.00">/AsmPrinterInlineAsm.cpp</text>
</a>
</g>
</g>
<!-- Node84&#45;&gt;Node111 -->
<g id="edge31" class="edge">
<title>Node84&#45;&gt;Node111</title>
<path fill="none" stroke="midnightblue" d="M2979.82,-215.31C2688.39,-214.21 1481.06,-207.11 1318,-165 1264.81,-151.26 1209.2,-117.23 1180.25,-97.76"/>
<polygon fill="midnightblue" stroke="midnightblue" points="2980.19,-218.81 2990.2,-215.35 2980.22,-211.81 2980.19,-218.81"/>
</g>
<!-- Node171 -->
<g id="node14" class="node">
<title>Node171</title>
<g id="a_node14"><a xlink:href="FileCheck_8h.html" target="_top" xlink:title="include/llvm/Support\l/FileCheck.h">
<polygon fill="none" stroke="red" points="1327.5,-134.5 1327.5,-164.5 1432.5,-164.5 1432.5,-134.5 1327.5,-134.5"/>
<text text-anchor="start" x="1335.5" y="-152.5" font-family="Helvetica,sans-Serif" font-size="10.00">include/llvm/Support</text>
<text text-anchor="middle" x="1380" y="-141.5" font-family="Helvetica,sans-Serif" font-size="10.00">/FileCheck.h</text>
</a>
</g>
</g>
<!-- Node84&#45;&gt;Node171 -->
<g id="edge17" class="edge">
<title>Node84&#45;&gt;Node171</title>
<path fill="none" stroke="midnightblue" d="M2979.96,-215.21C2722.03,-213.77 1746.38,-205.68 1441,-165 1438.3,-164.64 1435.55,-164.21 1432.78,-163.73"/>
<polygon fill="midnightblue" stroke="midnightblue" points="2980.25,-218.71 2990.27,-215.27 2980.29,-211.71 2980.25,-218.71"/>
</g>
<!-- Node173 -->
<g id="node15" class="node">
<title>Node173</title>
<g id="a_node15"><a xlink:href="VirtualFileSystem_8h.html" target="_top" xlink:title="Defines the virtual file system interface vfs::FileSystem. ">
<polygon fill="none" stroke="red" points="1450.5,-134.5 1450.5,-164.5 1555.5,-164.5 1555.5,-134.5 1450.5,-134.5"/>
<text text-anchor="start" x="1458.5" y="-152.5" font-family="Helvetica,sans-Serif" font-size="10.00">include/llvm/Support</text>
<text text-anchor="middle" x="1503" y="-141.5" font-family="Helvetica,sans-Serif" font-size="10.00">/VirtualFileSystem.h</text>
</a>
</g>
</g>
<!-- Node84&#45;&gt;Node173 -->
<g id="edge18" class="edge">
<title>Node84&#45;&gt;Node173</title>
<path fill="none" stroke="midnightblue" d="M2980.26,-214.84C2736.13,-212.06 1849.27,-199.72 1570,-165 1565.28,-164.41 1560.39,-163.65 1555.51,-162.79"/>
<polygon fill="midnightblue" stroke="midnightblue" points="2980.34,-218.34 2990.38,-214.96 2980.42,-211.35 2980.34,-218.34"/>
</g>
<!-- Node1386 -->
<g id="node16" class="node">
<title>Node1386</title>
<g id="a_node16"><a xlink:href="VirtualFileSystem_8cpp.html" target="_top" xlink:title="lib/Support/VirtualFileSystem.cpp">
<polygon fill="none" stroke="black" points="1244,-73 1244,-92 1406,-92 1406,-73 1244,-73"/>
<text text-anchor="middle" x="1325" y="-80" font-family="Helvetica,sans-Serif" font-size="10.00">lib/Support/VirtualFileSystem.cpp</text>
</a>
</g>
</g>
<!-- Node84&#45;&gt;Node1386 -->
<g id="edge49" class="edge">
<title>Node84&#45;&gt;Node1386</title>
<path fill="none" stroke="midnightblue" d="M2980.25,-215.85C2719.23,-216.95 1727.03,-217.6 1598,-165 1579.06,-157.28 1582.2,-143.33 1564,-134 1547.06,-125.32 1436.38,-103.98 1371.73,-92.01"/>
<polygon fill="midnightblue" stroke="midnightblue" points="2980.33,-219.35 2990.32,-215.8 2980.3,-212.35 2980.33,-219.35"/>
</g>
<!-- Node1387 -->
<g id="node17" class="node">
<title>Node1387</title>
<g id="a_node17"><a xlink:href="YAMLTraits_8h.html" target="_top" xlink:title="include/llvm/Support\l/YAMLTraits.h">
<polygon fill="none" stroke="red" points="1688.5,-134.5 1688.5,-164.5 1793.5,-164.5 1793.5,-134.5 1688.5,-134.5"/>
<text text-anchor="start" x="1696.5" y="-152.5" font-family="Helvetica,sans-Serif" font-size="10.00">include/llvm/Support</text>
<text text-anchor="middle" x="1741" y="-141.5" font-family="Helvetica,sans-Serif" font-size="10.00">/YAMLTraits.h</text>
</a>
</g>
</g>
<!-- Node84&#45;&gt;Node1387 -->
<g id="edge20" class="edge">
<title>Node84&#45;&gt;Node1387</title>
<path fill="none" stroke="midnightblue" d="M2980.19,-214.36C2762.1,-210.19 2038.37,-194.42 1808,-165 1803.28,-164.4 1798.4,-163.63 1793.52,-162.76"/>
<polygon fill="midnightblue" stroke="midnightblue" points="2980.43,-217.87 2990.49,-214.56 2980.56,-210.87 2980.43,-217.87"/>
</g>
<!-- Node1068 -->
<g id="node18" class="node">
<title>Node1068</title>
<g id="a_node18"><a xlink:href="MIRParser_8cpp.html" target="_top" xlink:title="lib/CodeGen/MIRParser\l/MIRParser.cpp">
<polygon fill="none" stroke="black" points="1424.5,-67.5 1424.5,-97.5 1545.5,-97.5 1545.5,-67.5 1424.5,-67.5"/>
<text text-anchor="start" x="1432.5" y="-85.5" font-family="Helvetica,sans-Serif" font-size="10.00">lib/CodeGen/MIRParser</text>
<text text-anchor="middle" x="1485" y="-74.5" font-family="Helvetica,sans-Serif" font-size="10.00">/MIRParser.cpp</text>
</a>
</g>
</g>
<!-- Node84&#45;&gt;Node1068 -->
<g id="edge33" class="edge">
<title>Node84&#45;&gt;Node1068</title>
<path fill="none" stroke="midnightblue" d="M2980.05,-214.93C2725.85,-212.41 1782.56,-200.71 1654,-165 1626.59,-157.39 1623.45,-146.7 1598,-134 1571.66,-120.85 1541.15,-107.32 1518.48,-97.57"/>
<polygon fill="midnightblue" stroke="midnightblue" points="2980.18,-218.44 2990.22,-215.03 2980.25,-211.44 2980.18,-218.44"/>
</g>
<!-- Node1467 -->
<g id="node19" class="node">
<title>Node1467</title>
<g id="a_node19"><a xlink:href="YAMLRemarkParser_8h.html" target="_top" xlink:title="lib/Remarks/YAMLRemarkParser.h">
<polygon fill="none" stroke="red" points="1564,-73 1564,-92 1734,-92 1734,-73 1564,-73"/>
<text text-anchor="middle" x="1649" y="-80" font-family="Helvetica,sans-Serif" font-size="10.00">lib/Remarks/YAMLRemarkParser.h</text>
</a>
</g>
</g>
<!-- Node84&#45;&gt;Node1467 -->
<g id="edge46" class="edge">
<title>Node84&#45;&gt;Node1467</title>
<path fill="none" stroke="midnightblue" d="M2980.15,-215.11C2719.19,-213.24 1732.24,-203.62 1679,-165 1655.2,-147.74 1650.25,-109.49 1649.24,-92.24"/>
<polygon fill="midnightblue" stroke="midnightblue" points="2980.19,-218.61 2990.21,-215.18 2980.24,-211.61 2980.19,-218.61"/>
</g>
<!-- Node1474 -->
<g id="node20" class="node">
<title>Node1474</title>
<g id="a_node20"><a xlink:href="TextStub_8cpp.html" target="_top" xlink:title="lib/TextAPI/MachO/TextStub.cpp">
<polygon fill="none" stroke="black" points="1752.5,-73 1752.5,-92 1913.5,-92 1913.5,-73 1752.5,-73"/>
<text text-anchor="middle" x="1833" y="-80" font-family="Helvetica,sans-Serif" font-size="10.00">lib/TextAPI/MachO/TextStub.cpp</text>
</a>
</g>
</g>
<!-- Node84&#45;&gt;Node1474 -->
<g id="edge59" class="edge">
<title>Node84&#45;&gt;Node1474</title>
<path fill="none" stroke="midnightblue" d="M2980.13,-214.64C2743.01,-211.17 1914.05,-196.78 1868,-165 1843.16,-147.86 1835.84,-109.19 1833.77,-92.01"/>
<polygon fill="midnightblue" stroke="midnightblue" points="2980.25,-218.14 2990.3,-214.79 2980.36,-211.14 2980.25,-218.14"/>
</g>
<!-- Node1476 -->
<g id="node21" class="node">
<title>Node1476</title>
<g id="a_node21"><a xlink:href="TableGen_2Error_8h.html" target="_top" xlink:title="include/llvm/TableGen\l/Error.h">
<polygon fill="none" stroke="red" points="1888.5,-134.5 1888.5,-164.5 2001.5,-164.5 2001.5,-134.5 1888.5,-134.5"/>
<text text-anchor="start" x="1896.5" y="-152.5" font-family="Helvetica,sans-Serif" font-size="10.00">include/llvm/TableGen</text>
<text text-anchor="middle" x="1945" y="-141.5" font-family="Helvetica,sans-Serif" font-size="10.00">/Error.h</text>
</a>
</g>
</g>
<!-- Node84&#45;&gt;Node1476 -->
<g id="edge24" class="edge">
<title>Node84&#45;&gt;Node1476</title>
<path fill="none" stroke="midnightblue" d="M2980.19,-215.73C2819.23,-215.6 2379.08,-210.73 2016,-165 2011.38,-164.42 2006.62,-163.7 2001.84,-162.9"/>
<polygon fill="midnightblue" stroke="midnightblue" points="2980.38,-219.23 2990.38,-215.73 2980.38,-212.23 2980.38,-219.23"/>
</g>
<!-- Node1478 -->
<g id="node22" class="node">
<title>Node1478</title>
<g id="a_node22"><a xlink:href="TGParser_8h.html" target="_top" xlink:title="lib/TableGen/TGParser.h">
<polygon fill="none" stroke="red" points="1931.5,-73 1931.5,-92 2056.5,-92 2056.5,-73 1931.5,-73"/>
<text text-anchor="middle" x="1994" y="-80" font-family="Helvetica,sans-Serif" font-size="10.00">lib/TableGen/TGParser.h</text>
</a>
</g>
</g>
<!-- Node84&#45;&gt;Node1478 -->
<g id="edge51" class="edge">
<title>Node84&#45;&gt;Node1478</title>
<path fill="none" stroke="midnightblue" d="M2980.26,-215.15C2743.73,-213.54 1917.34,-205.04 1879,-165 1848.28,-132.92 1918.93,-105.36 1962.65,-92.04"/>
<polygon fill="midnightblue" stroke="midnightblue" points="2980.39,-218.65 2990.42,-215.22 2980.44,-211.65 2980.39,-218.65"/>
</g>
<!-- Node1482 -->
<g id="node23" class="node">
<title>Node1482</title>
<g id="a_node23"><a xlink:href="TGLexer_8cpp.html" target="_top" xlink:title="lib/TableGen/TGLexer.cpp">
<polygon fill="none" stroke="black" points="2074.5,-73 2074.5,-92 2205.5,-92 2205.5,-73 2074.5,-73"/>
<text text-anchor="middle" x="2140" y="-80" font-family="Helvetica,sans-Serif" font-size="10.00">lib/TableGen/TGLexer.cpp</text>
</a>
</g>
</g>
<!-- Node84&#45;&gt;Node1482 -->
<g id="edge52" class="edge">
<title>Node84&#45;&gt;Node1482</title>
<path fill="none" stroke="midnightblue" d="M2980.39,-214.67C2767.23,-211.53 2081.15,-198.83 2049,-165 2021.82,-136.41 2082.18,-106.34 2117.21,-92.03"/>
<polygon fill="midnightblue" stroke="midnightblue" points="2980.43,-218.17 2990.48,-214.81 2980.53,-211.17 2980.43,-218.17"/>
</g>
<!-- Node1483 -->
<g id="node24" class="node">
<title>Node1483</title>
<g id="a_node24"><a xlink:href="LLLexer_8h.html" target="_top" xlink:title="lib/AsmParser/LLLexer.h">
<polygon fill="none" stroke="red" points="2058,-140 2058,-159 2182,-159 2182,-140 2058,-140"/>
<text text-anchor="middle" x="2120" y="-147" font-family="Helvetica,sans-Serif" font-size="10.00">lib/AsmParser/LLLexer.h</text>
</a>
</g>
</g>
<!-- Node84&#45;&gt;Node1483 -->
<g id="edge27" class="edge">
<title>Node84&#45;&gt;Node1483</title>
<path fill="none" stroke="midnightblue" d="M2980.07,-214.52C2839.14,-211.72 2487.64,-201.36 2196,-165 2184.14,-163.52 2171.34,-161.32 2159.68,-159.07"/>
<polygon fill="midnightblue" stroke="midnightblue" points="2980.19,-218.02 2990.25,-214.72 2980.32,-211.02 2980.19,-218.02"/>
</g>
<!-- Node1484 -->
<g id="node25" class="node">
<title>Node1484</title>
<g id="a_node25"><a xlink:href="LLLexer_8cpp.html" target="_top" xlink:title="lib/AsmParser/LLLexer.cpp">
<polygon fill="none" stroke="black" points="2224,-73 2224,-92 2358,-92 2358,-73 2224,-73"/>
<text text-anchor="middle" x="2291" y="-80" font-family="Helvetica,sans-Serif" font-size="10.00">lib/AsmParser/LLLexer.cpp</text>
</a>
</g>
</g>
<!-- Node84&#45;&gt;Node1484 -->
<g id="edge29" class="edge">
<title>Node84&#45;&gt;Node1484</title>
<path fill="none" stroke="midnightblue" d="M2980.09,-213.93C2793.52,-208.95 2254.64,-192.28 2229,-165 2205.87,-140.39 2251.22,-107.42 2276.15,-92.05"/>
<polygon fill="midnightblue" stroke="midnightblue" points="2980.2,-217.43 2990.29,-214.19 2980.38,-210.43 2980.2,-217.43"/>
</g>
<!-- Node1487 -->
<g id="node26" class="node">
<title>Node1487</title>
<g id="a_node26"><a xlink:href="Parser_8cpp.html" target="_top" xlink:title="lib/AsmParser/Parser.cpp">
<polygon fill="none" stroke="black" points="2238,-140 2238,-159 2366,-159 2366,-140 2238,-140"/>
<text text-anchor="middle" x="2302" y="-147" font-family="Helvetica,sans-Serif" font-size="10.00">lib/AsmParser/Parser.cpp</text>
</a>
</g>
</g>
<!-- Node84&#45;&gt;Node1487 -->
<g id="edge30" class="edge">
<title>Node84&#45;&gt;Node1487</title>
<path fill="none" stroke="midnightblue" d="M2980.13,-213.21C2861.55,-208.35 2596.9,-194.9 2376,-165 2364.58,-163.45 2352.27,-161.26 2341.03,-159.04"/>
<polygon fill="midnightblue" stroke="midnightblue" points="2980.33,-216.72 2990.46,-213.63 2980.61,-209.73 2980.33,-216.72"/>
</g>
<!-- Node741 -->
<g id="node27" class="node">
<title>Node741</title>
<g id="a_node27"><a xlink:href="MIParser_8cpp.html" target="_top" xlink:title="lib/CodeGen/MIRParser\l/MIParser.cpp">
<polygon fill="none" stroke="black" points="2384.5,-134.5 2384.5,-164.5 2505.5,-164.5 2505.5,-134.5 2384.5,-134.5"/>
<text text-anchor="start" x="2392.5" y="-152.5" font-family="Helvetica,sans-Serif" font-size="10.00">lib/CodeGen/MIRParser</text>
<text text-anchor="middle" x="2445" y="-141.5" font-family="Helvetica,sans-Serif" font-size="10.00">/MIParser.cpp</text>
</a>
</g>
</g>
<!-- Node84&#45;&gt;Node741 -->
<g id="edge32" class="edge">
<title>Node84&#45;&gt;Node741</title>
<path fill="none" stroke="midnightblue" d="M2980.15,-211.71C2880.94,-205.23 2682.09,-190.22 2515,-165 2511.93,-164.54 2508.8,-164.03 2505.63,-163.48"/>
<polygon fill="midnightblue" stroke="midnightblue" points="2980.1,-215.22 2990.31,-212.37 2980.55,-208.23 2980.1,-215.22"/>
</g>
<!-- Node1251 -->
<g id="node28" class="node">
<title>Node1251</title>
<g id="a_node28"><a xlink:href="FuzzerCLI_8cpp.html" target="_top" xlink:title="lib/FuzzMutate/FuzzerCLI.cpp">
<polygon fill="none" stroke="black" points="2523.5,-140 2523.5,-159 2672.5,-159 2672.5,-140 2523.5,-140"/>
<text text-anchor="middle" x="2598" y="-147" font-family="Helvetica,sans-Serif" font-size="10.00">lib/FuzzMutate/FuzzerCLI.cpp</text>
</a>
</g>
</g>
<!-- Node84&#45;&gt;Node1251 -->
<g id="edge34" class="edge">
<title>Node84&#45;&gt;Node1251</title>
<path fill="none" stroke="midnightblue" d="M2980.04,-207.31C2907.93,-197.79 2786.29,-181.29 2682,-165 2670.3,-163.17 2657.71,-161.07 2645.93,-159.05"/>
<polygon fill="midnightblue" stroke="midnightblue" points="2979.94,-210.83 2990.31,-208.67 2980.85,-203.89 2979.94,-210.83"/>
</g>
<!-- Node1488 -->
<g id="node29" class="node">
<title>Node1488</title>
<g id="a_node29"><a xlink:href="DiagnosticPrinter_8cpp.html" target="_top" xlink:title="lib/IR/DiagnosticPrinter.cpp">
<polygon fill="none" stroke="black" points="2690.5,-140 2690.5,-159 2827.5,-159 2827.5,-140 2690.5,-140"/>
<text text-anchor="middle" x="2759" y="-147" font-family="Helvetica,sans-Serif" font-size="10.00">lib/IR/DiagnosticPrinter.cpp</text>
</a>
</g>
</g>
<!-- Node84&#45;&gt;Node1488 -->
<g id="edge35" class="edge">
<title>Node84&#45;&gt;Node1488</title>
<path fill="none" stroke="midnightblue" d="M2980.39,-201.17C2924.12,-188.29 2843.35,-169.8 2796.51,-159.09"/>
<polygon fill="midnightblue" stroke="midnightblue" points="2979.72,-204.61 2990.25,-203.43 2981.28,-197.78 2979.72,-204.61"/>
</g>
<!-- Node1489 -->
<g id="node30" class="node">
<title>Node1489</title>
<g id="a_node30"><a xlink:href="IRReader_8cpp.html" target="_top" xlink:title="lib/IRReader/IRReader.cpp">
<polygon fill="none" stroke="black" points="2845.5,-140 2845.5,-159 2980.5,-159 2980.5,-140 2845.5,-140"/>
<text text-anchor="middle" x="2913" y="-147" font-family="Helvetica,sans-Serif" font-size="10.00">lib/IRReader/IRReader.cpp</text>
</a>
</g>
</g>
<!-- Node84&#45;&gt;Node1489 -->
<g id="edge36" class="edge">
<title>Node84&#45;&gt;Node1489</title>
<path fill="none" stroke="midnightblue" d="M3005.61,-196.8C2980.68,-184.34 2949.11,-168.56 2930.01,-159.01"/>
<polygon fill="midnightblue" stroke="midnightblue" points="3004.28,-200.05 3014.79,-201.4 3007.41,-193.79 3004.28,-200.05"/>
</g>
<!-- Node333 -->
<g id="node31" class="node">
<title>Node333</title>
<g id="a_node31"><a xlink:href="LTO_8cpp.html" target="_top" xlink:title="lib/LTO/LTO.cpp">
<polygon fill="none" stroke="black" points="2998.5,-140 2998.5,-159 3087.5,-159 3087.5,-140 2998.5,-140"/>
<text text-anchor="middle" x="3043" y="-147" font-family="Helvetica,sans-Serif" font-size="10.00">lib/LTO/LTO.cpp</text>
</a>
</g>
</g>
<!-- Node84&#45;&gt;Node333 -->
<g id="edge37" class="edge">
<title>Node84&#45;&gt;Node333</title>
<path fill="none" stroke="midnightblue" d="M3043,-191.25C3043,-180.02 3043,-167.38 3043,-159.19"/>
<polygon fill="midnightblue" stroke="midnightblue" points="3039.5,-191.4 3043,-201.4 3046.5,-191.4 3039.5,-191.4"/>
</g>
<!-- Node329 -->
<g id="node32" class="node">
<title>Node329</title>
<g id="a_node32"><a xlink:href="LTOModule_8cpp.html" target="_top" xlink:title="lib/LTO/LTOModule.cpp">
<polygon fill="none" stroke="black" points="3105,-140 3105,-159 3225,-159 3225,-140 3105,-140"/>
<text text-anchor="middle" x="3165" y="-147" font-family="Helvetica,sans-Serif" font-size="10.00">lib/LTO/LTOModule.cpp</text>
</a>
</g>
</g>
<!-- Node84&#45;&gt;Node329 -->
<g id="edge38" class="edge">
<title>Node84&#45;&gt;Node329</title>
<path fill="none" stroke="midnightblue" d="M3078.4,-196.64C3101.74,-184.2 3131.19,-168.51 3149.03,-159.01"/>
<polygon fill="midnightblue" stroke="midnightblue" points="3076.65,-193.6 3069.47,-201.4 3079.94,-199.78 3076.65,-193.6"/>
</g>
<!-- Node1265 -->
<g id="node33" class="node">
<title>Node1265</title>
<g id="a_node33"><a xlink:href="MCContext_8cpp.html" target="_top" xlink:title="lib/MC/MCContext.cpp">
<polygon fill="none" stroke="black" points="3243.5,-140 3243.5,-159 3360.5,-159 3360.5,-140 3243.5,-140"/>
<text text-anchor="middle" x="3302" y="-147" font-family="Helvetica,sans-Serif" font-size="10.00">lib/MC/MCContext.cpp</text>
</a>
</g>
</g>
<!-- Node84&#45;&gt;Node1265 -->
<g id="edge39" class="edge">
<title>Node84&#45;&gt;Node1265</title>
<path fill="none" stroke="midnightblue" d="M3105.66,-199.77C3156.67,-186.97 3226.74,-169.39 3267.91,-159.06"/>
<polygon fill="midnightblue" stroke="midnightblue" points="3104.57,-196.44 3095.72,-202.27 3106.28,-203.23 3104.57,-196.44"/>
</g>
<!-- Node1490 -->
<g id="node34" class="node">
<title>Node1490</title>
<g id="a_node34"><a xlink:href="MCDwarf_8cpp.html" target="_top" xlink:title="lib/MC/MCDwarf.cpp">
<polygon fill="none" stroke="black" points="3378.5,-140 3378.5,-159 3487.5,-159 3487.5,-140 3378.5,-140"/>
<text text-anchor="middle" x="3433" y="-147" font-family="Helvetica,sans-Serif" font-size="10.00">lib/MC/MCDwarf.cpp</text>
</a>
</g>
</g>
<!-- Node84&#45;&gt;Node1490 -->
<g id="edge40" class="edge">
<title>Node84&#45;&gt;Node1490</title>
<path fill="none" stroke="midnightblue" d="M3105.83,-207.19C3171.83,-198.13 3278.57,-182.56 3370,-165 3379.15,-163.24 3388.99,-161.1 3398.11,-159.01"/>
<polygon fill="midnightblue" stroke="midnightblue" points="3105.02,-203.76 3095.59,-208.58 3105.97,-210.7 3105.02,-203.76"/>
</g>
<!-- Node1491 -->
<g id="node35" class="node">
<title>Node1491</title>
<g id="a_node35"><a xlink:href="MCObjectStreamer_8cpp.html" target="_top" xlink:title="lib/MC/MCObjectStreamer.cpp">
<polygon fill="none" stroke="black" points="3505.5,-140 3505.5,-159 3656.5,-159 3656.5,-140 3505.5,-140"/>
<text text-anchor="middle" x="3581" y="-147" font-family="Helvetica,sans-Serif" font-size="10.00">lib/MC/MCObjectStreamer.cpp</text>
</a>
</g>
</g>
<!-- Node84&#45;&gt;Node1491 -->
<g id="edge41" class="edge">
<title>Node84&#45;&gt;Node1491</title>
<path fill="none" stroke="midnightblue" d="M3105.61,-209.74C3193.32,-201.39 3357.65,-184.76 3497,-165 3509.16,-163.28 3522.27,-161.15 3534.43,-159.05"/>
<polygon fill="midnightblue" stroke="midnightblue" points="3105.19,-206.26 3095.56,-210.69 3105.85,-213.23 3105.19,-206.26"/>
</g>
<!-- Node1266 -->
<g id="node36" class="node">
<title>Node1266</title>
<g id="a_node36"><a xlink:href="AsmParser_8cpp.html" target="_top" xlink:title="lib/MC/MCParser/AsmParser.cpp">
<polygon fill="none" stroke="black" points="3674.5,-140 3674.5,-159 3837.5,-159 3837.5,-140 3674.5,-140"/>
<text text-anchor="middle" x="3756" y="-147" font-family="Helvetica,sans-Serif" font-size="10.00">lib/MC/MCParser/AsmParser.cpp</text>
</a>
</g>
</g>
<!-- Node84&#45;&gt;Node1266 -->
<g id="edge42" class="edge">
<title>Node84&#45;&gt;Node1266</title>
<path fill="none" stroke="midnightblue" d="M3105.8,-212.05C3218.36,-205.51 3461.76,-189.69 3666,-165 3679.51,-163.37 3694.1,-161.19 3707.52,-159.03"/>
<polygon fill="midnightblue" stroke="midnightblue" points="3105.43,-208.57 3095.65,-212.64 3105.84,-215.56 3105.43,-208.57"/>
</g>
<!-- Node1492 -->
<g id="node37" class="node">
<title>Node1492</title>
<g id="a_node37"><a xlink:href="DarwinAsmParser_8cpp.html" target="_top" xlink:title="lib/MC/MCParser/DarwinAsm\lParser.cpp">
<polygon fill="none" stroke="black" points="3856,-134.5 3856,-164.5 4002,-164.5 4002,-134.5 3856,-134.5"/>
<text text-anchor="start" x="3864" y="-152.5" font-family="Helvetica,sans-Serif" font-size="10.00">lib/MC/MCParser/DarwinAsm</text>
<text text-anchor="middle" x="3929" y="-141.5" font-family="Helvetica,sans-Serif" font-size="10.00">Parser.cpp</text>
</a>
</g>
</g>
<!-- Node84&#45;&gt;Node1492 -->
<g id="edge43" class="edge">
<title>Node84&#45;&gt;Node1492</title>
<path fill="none" stroke="midnightblue" d="M3106.08,-213.95C3241.96,-210.07 3572.25,-197.82 3847,-165 3849.87,-164.66 3852.79,-164.28 3855.74,-163.87"/>
<polygon fill="midnightblue" stroke="midnightblue" points="3105.76,-210.45 3095.86,-214.23 3105.96,-217.45 3105.76,-210.45"/>
</g>
<!-- Node1493 -->
<g id="node38" class="node">
<title>Node1493</title>
<g id="a_node38"><a xlink:href="ModuleSymbolTable_8cpp.html" target="_top" xlink:title="lib/Object/ModuleSymbolTable.cpp">
<polygon fill="none" stroke="black" points="4020,-140 4020,-159 4188,-159 4188,-140 4020,-140"/>
<text text-anchor="middle" x="4104" y="-147" font-family="Helvetica,sans-Serif" font-size="10.00">lib/Object/ModuleSymbolTable.cpp</text>
</a>
</g>
</g>
<!-- Node84&#45;&gt;Node1493 -->
<g id="edge44" class="edge">
<title>Node84&#45;&gt;Node1493</title>
<path fill="none" stroke="midnightblue" d="M3105.85,-214.45C3260.3,-211.39 3670.66,-200.32 4011,-165 4025.47,-163.5 4041.11,-161.29 4055.37,-159.04"/>
<polygon fill="midnightblue" stroke="midnightblue" points="3105.54,-210.96 3095.61,-214.65 3105.68,-217.96 3105.54,-210.96"/>
</g>
<!-- Node1142 -->
<g id="node39" class="node">
<title>Node1142</title>
<g id="a_node39"><a xlink:href="COFFEmitter_8cpp.html" target="_top" xlink:title="The COFF component of yaml2obj. ">
<polygon fill="none" stroke="black" points="4206.5,-140 4206.5,-159 4371.5,-159 4371.5,-140 4206.5,-140"/>
<text text-anchor="middle" x="4289" y="-147" font-family="Helvetica,sans-Serif" font-size="10.00">lib/ObjectYAML/COFFEmitter.cpp</text>
</a>
</g>
</g>
<!-- Node84&#45;&gt;Node1142 -->
<g id="edge45" class="edge">
<title>Node84&#45;&gt;Node1142</title>
<path fill="none" stroke="midnightblue" d="M3106.03,-215.23C3280.13,-213.95 3782.21,-206.63 4197,-165 4211.48,-163.55 4227.15,-161.32 4241.38,-159.05"/>
<polygon fill="midnightblue" stroke="midnightblue" points="3105.75,-211.73 3095.77,-215.3 3105.8,-218.73 3105.75,-211.73"/>
</g>
<!-- Node1494 -->
<g id="node40" class="node">
<title>Node1494</title>
<g id="a_node40"><a xlink:href="FileCheckImpl_8h.html" target="_top" xlink:title="lib/Support/FileCheckImpl.h">
<polygon fill="none" stroke="red" points="4389.5,-140 4389.5,-159 4526.5,-159 4526.5,-140 4389.5,-140"/>
<text text-anchor="middle" x="4458" y="-147" font-family="Helvetica,sans-Serif" font-size="10.00">lib/Support/FileCheckImpl.h</text>
</a>
</g>
</g>
<!-- Node84&#45;&gt;Node1494 -->
<g id="edge47" class="edge">
<title>Node84&#45;&gt;Node1494</title>
<path fill="none" stroke="midnightblue" d="M3105.97,-214.36C3335.81,-210.03 4129.18,-193.3 4381,-165 4393.44,-163.6 4406.88,-161.34 4419,-159.01"/>
<polygon fill="midnightblue" stroke="midnightblue" points="3105.71,-210.87 3095.78,-214.56 3105.84,-217.87 3105.71,-210.87"/>
</g>
<!-- Node1146 -->
<g id="node41" class="node">
<title>Node1146</title>
<g id="a_node41"><a xlink:href="SourceMgr_8cpp.html" target="_top" xlink:title="lib/Support/SourceMgr.cpp">
<polygon fill="none" stroke="black" points="4545,-140 4545,-159 4677,-159 4677,-140 4545,-140"/>
<text text-anchor="middle" x="4611" y="-147" font-family="Helvetica,sans-Serif" font-size="10.00">lib/Support/SourceMgr.cpp</text>
</a>
</g>
</g>
<!-- Node84&#45;&gt;Node1146 -->
<g id="edge48" class="edge">
<title>Node84&#45;&gt;Node1146</title>
<path fill="none" stroke="midnightblue" d="M3105.74,-214.69C3351.92,-211.32 4252.24,-197.03 4536,-165 4548.12,-163.63 4561.22,-161.37 4573.02,-159.04"/>
<polygon fill="midnightblue" stroke="midnightblue" points="3105.49,-211.2 3095.54,-214.83 3105.59,-218.2 3105.49,-211.2"/>
</g>
<!-- Node1495 -->
<g id="node42" class="node">
<title>Node1495</title>
<g id="a_node42"><a xlink:href="YAMLParser_8cpp.html" target="_top" xlink:title="lib/Support/YAMLParser.cpp">
<polygon fill="none" stroke="black" points="4695,-140 4695,-159 4835,-159 4835,-140 4695,-140"/>
<text text-anchor="middle" x="4765" y="-147" font-family="Helvetica,sans-Serif" font-size="10.00">lib/Support/YAMLParser.cpp</text>
</a>
</g>
</g>
<!-- Node84&#45;&gt;Node1495 -->
<g id="edge50" class="edge">
<title>Node84&#45;&gt;Node1495</title>
<path fill="none" stroke="midnightblue" d="M3105.89,-214.84C3367.58,-211.88 4371.14,-198.54 4686,-165 4698.76,-163.64 4712.55,-161.39 4724.98,-159.05"/>
<polygon fill="midnightblue" stroke="midnightblue" points="3105.77,-211.34 3095.81,-214.95 3105.84,-218.34 3105.77,-211.34"/>
</g>
<!-- Node1283 -->
<g id="node43" class="node">
<title>Node1283</title>
<g id="a_node43"><a xlink:href="HexagonAsmParser_8cpp.html" target="_top" xlink:title="lib/Target/Hexagon\l/AsmParser/HexagonAsmParser.cpp">
<polygon fill="none" stroke="black" points="4853,-134.5 4853,-164.5 5031,-164.5 5031,-134.5 4853,-134.5"/>
<text text-anchor="start" x="4861" y="-152.5" font-family="Helvetica,sans-Serif" font-size="10.00">lib/Target/Hexagon</text>
<text text-anchor="middle" x="4942" y="-141.5" font-family="Helvetica,sans-Serif" font-size="10.00">/AsmParser/HexagonAsmParser.cpp</text>
</a>
</g>
</g>
<!-- Node84&#45;&gt;Node1283 -->
<g id="edge53" class="edge">
<title>Node84&#45;&gt;Node1283</title>
<path fill="none" stroke="midnightblue" d="M3105.87,-214.74C3382.83,-211.24 4495.78,-195.53 4844,-165 4846.91,-164.74 4849.87,-164.46 4852.86,-164.15"/>
<polygon fill="midnightblue" stroke="midnightblue" points="3105.56,-211.24 3095.6,-214.87 3105.65,-218.24 3105.56,-211.24"/>
</g>
<!-- Node1289 -->
<g id="node44" class="node">
<title>Node1289</title>
<g id="a_node44"><a xlink:href="HexagonMCChecker_8cpp.html" target="_top" xlink:title="lib/Target/Hexagon\l/MCTargetDesc/HexagonMCChecker.cpp">
<polygon fill="none" stroke="black" points="5049,-134.5 5049,-164.5 5249,-164.5 5249,-134.5 5049,-134.5"/>
<text text-anchor="start" x="5057" y="-152.5" font-family="Helvetica,sans-Serif" font-size="10.00">lib/Target/Hexagon</text>
<text text-anchor="middle" x="5149" y="-141.5" font-family="Helvetica,sans-Serif" font-size="10.00">/MCTargetDesc/HexagonMCChecker.cpp</text>
</a>
</g>
</g>
<!-- Node84&#45;&gt;Node1289 -->
<g id="edge54" class="edge">
<title>Node84&#45;&gt;Node1289</title>
<path fill="none" stroke="midnightblue" d="M3105.84,-214.82C3400.9,-211.47 4650.69,-195.73 5040,-165 5042.95,-164.77 5045.94,-164.51 5048.96,-164.23"/>
<polygon fill="midnightblue" stroke="midnightblue" points="3105.71,-211.32 3095.75,-214.93 3105.79,-218.32 3105.71,-211.32"/>
</g>
<!-- Node1294 -->
<g id="node45" class="node">
<title>Node1294</title>
<g id="a_node45"><a xlink:href="HexagonShuffler_8cpp.html" target="_top" xlink:title="lib/Target/Hexagon\l/MCTargetDesc/HexagonShuffler.cpp">
<polygon fill="none" stroke="black" points="5267.5,-134.5 5267.5,-164.5 5448.5,-164.5 5448.5,-134.5 5267.5,-134.5"/>
<text text-anchor="start" x="5275.5" y="-152.5" font-family="Helvetica,sans-Serif" font-size="10.00">lib/Target/Hexagon</text>
<text text-anchor="middle" x="5358" y="-141.5" font-family="Helvetica,sans-Serif" font-size="10.00">/MCTargetDesc/HexagonShuffler.cpp</text>
</a>
</g>
</g>
<!-- Node84&#45;&gt;Node1294 -->
<g id="edge55" class="edge">
<title>Node84&#45;&gt;Node1294</title>
<path fill="none" stroke="midnightblue" d="M3105.92,-215.1C3420.33,-212.93 4823.33,-201.33 5258,-165 5261.06,-164.74 5264.17,-164.46 5267.3,-164.14"/>
<polygon fill="midnightblue" stroke="midnightblue" points="3105.6,-211.6 3095.63,-215.17 3105.65,-218.6 3105.6,-211.6"/>
</g>
<!-- Node1309 -->
<g id="node46" class="node">
<title>Node1309</title>
<g id="a_node46"><a xlink:href="MipsAsmParser_8cpp.html" target="_top" xlink:title="lib/Target/Mips/AsmParser\l/MipsAsmParser.cpp">
<polygon fill="none" stroke="black" points="5466.5,-134.5 5466.5,-164.5 5599.5,-164.5 5599.5,-134.5 5466.5,-134.5"/>
<text text-anchor="start" x="5474.5" y="-152.5" font-family="Helvetica,sans-Serif" font-size="10.00">lib/Target/Mips/AsmParser</text>
<text text-anchor="middle" x="5533" y="-141.5" font-family="Helvetica,sans-Serif" font-size="10.00">/MipsAsmParser.cpp</text>
</a>
</g>
</g>
<!-- Node84&#45;&gt;Node1309 -->
<g id="edge56" class="edge">
<title>Node84&#45;&gt;Node1309</title>
<path fill="none" stroke="midnightblue" d="M3106.19,-215.63C3438.07,-216.12 4982.56,-215.56 5458,-165 5460.77,-164.71 5463.59,-164.36 5466.43,-163.98"/>
<polygon fill="midnightblue" stroke="midnightblue" points="3105.81,-212.13 3095.81,-215.62 3105.8,-219.13 3105.81,-212.13"/>
</g>
<!-- Node1496 -->
<g id="node47" class="node">
<title>Node1496</title>
<g id="a_node47"><a xlink:href="PPCAsmParser_8cpp.html" target="_top" xlink:title="lib/Target/PowerPC\l/AsmParser/PPCAsmParser.cpp">
<polygon fill="none" stroke="black" points="5618,-134.5 5618,-164.5 5778,-164.5 5778,-134.5 5618,-134.5"/>
<text text-anchor="start" x="5626" y="-152.5" font-family="Helvetica,sans-Serif" font-size="10.00">lib/Target/PowerPC</text>
<text text-anchor="middle" x="5698" y="-141.5" font-family="Helvetica,sans-Serif" font-size="10.00">/AsmParser/PPCAsmParser.cpp</text>
</a>
</g>
</g>
<!-- Node84&#45;&gt;Node1496 -->
<g id="edge57" class="edge">
<title>Node84&#45;&gt;Node1496</title>
<path fill="none" stroke="midnightblue" d="M3105.92,-215.47C3449.4,-215.14 5101.04,-211.14 5609,-165 5611.81,-164.75 5614.66,-164.45 5617.53,-164.13"/>
<polygon fill="midnightblue" stroke="midnightblue" points="3105.67,-211.97 3095.67,-215.48 3105.67,-218.97 3105.67,-211.97"/>
</g>
<!-- Node1497 -->
<g id="node48" class="node">
<title>Node1497</title>
<g id="a_node48"><a xlink:href="X86AsmParser_8cpp.html" target="_top" xlink:title="lib/Target/X86/AsmParser\l/X86AsmParser.cpp">
<polygon fill="none" stroke="black" points="5796.5,-134.5 5796.5,-164.5 5925.5,-164.5 5925.5,-134.5 5796.5,-134.5"/>
<text text-anchor="start" x="5804.5" y="-152.5" font-family="Helvetica,sans-Serif" font-size="10.00">lib/Target/X86/AsmParser</text>
<text text-anchor="middle" x="5861" y="-141.5" font-family="Helvetica,sans-Serif" font-size="10.00">/X86AsmParser.cpp</text>
</a>
</g>
</g>
<!-- Node84&#45;&gt;Node1497 -->
<g id="edge58" class="edge">
<title>Node84&#45;&gt;Node1497</title>
<path fill="none" stroke="midnightblue" d="M3105.67,-215.01C3489.26,-211.89 5512.7,-194.17 5787,-165 5789.99,-164.68 5793.05,-164.3 5796.13,-163.88"/>
<polygon fill="midnightblue" stroke="midnightblue" points="3105.56,-211.51 3095.59,-215.09 3105.62,-218.51 3105.56,-211.51"/>
</g>
<!-- Node1341 -->
<g id="node49" class="node">
<title>Node1341</title>
<g id="a_node49"><a xlink:href="FunctionImport_8cpp.html" target="_top" xlink:title="lib/Transforms/IPO\l/FunctionImport.cpp">
<polygon fill="none" stroke="black" points="5944,-134.5 5944,-164.5 6048,-164.5 6048,-134.5 5944,-134.5"/>
<text text-anchor="start" x="5952" y="-152.5" font-family="Helvetica,sans-Serif" font-size="10.00">lib/Transforms/IPO</text>
<text text-anchor="middle" x="5996" y="-141.5" font-family="Helvetica,sans-Serif" font-size="10.00">/FunctionImport.cpp</text>
</a>
</g>
</g>
<!-- Node84&#45;&gt;Node1341 -->
<g id="edge60" class="edge">
<title>Node84&#45;&gt;Node1341</title>
<path fill="none" stroke="midnightblue" d="M3105.89,-215.22C3502.12,-213.33 5645.8,-201.46 5935,-165 5937.92,-164.63 5940.9,-164.18 5943.89,-163.67"/>
<polygon fill="midnightblue" stroke="midnightblue" points="3105.74,-211.72 3095.76,-215.26 3105.78,-218.72 3105.74,-211.72"/>
</g>
<!-- Node1381 -->
<g id="node50" class="node">
<title>Node1381</title>
<g id="a_node50"><a xlink:href="SymbolRewriter_8cpp.html" target="_top" xlink:title="lib/Transforms/Utils\l/SymbolRewriter.cpp">
<polygon fill="none" stroke="black" points="6066,-134.5 6066,-164.5 6174,-164.5 6174,-134.5 6066,-134.5"/>
<text text-anchor="start" x="6074" y="-152.5" font-family="Helvetica,sans-Serif" font-size="10.00">lib/Transforms/Utils</text>
<text text-anchor="middle" x="6120" y="-141.5" font-family="Helvetica,sans-Serif" font-size="10.00">/SymbolRewriter.cpp</text>
</a>
</g>
</g>
<!-- Node84&#45;&gt;Node1381 -->
<g id="edge61" class="edge">
<title>Node84&#45;&gt;Node1381</title>
<path fill="none" stroke="midnightblue" d="M3105.62,-215.24C3510.81,-213.45 5754.74,-201.9 6057,-165 6059.9,-164.65 6062.85,-164.21 6065.83,-163.73"/>
<polygon fill="midnightblue" stroke="midnightblue" points="3105.54,-211.74 3095.55,-215.28 3105.57,-218.74 3105.54,-211.74"/>
</g>
<!-- Node86 -->
<g id="node3" class="node">
<title>Node86</title>
<g id="a_node3"><a xlink:href="ByteStreamer_8h.html" target="_top" xlink:title="lib/CodeGen/AsmPrinter\l/ByteStreamer.h">
<polygon fill="none" stroke="red" points="636,-67.5 636,-97.5 758,-97.5 758,-67.5 636,-67.5"/>
<text text-anchor="start" x="644" y="-85.5" font-family="Helvetica,sans-Serif" font-size="10.00">lib/CodeGen/AsmPrinter</text>
<text text-anchor="middle" x="697" y="-74.5" font-family="Helvetica,sans-Serif" font-size="10.00">/ByteStreamer.h</text>
</a>
</g>
</g>
<!-- Node85&#45;&gt;Node86 -->
<g id="edge2" class="edge">
<title>Node85&#45;&gt;Node86</title>
<path fill="none" stroke="midnightblue" d="M649.82,-127.31C660.32,-117.56 672.49,-106.26 681.84,-97.58"/>
<polygon fill="midnightblue" stroke="midnightblue" points="647.14,-125.03 642.19,-134.4 651.9,-130.16 647.14,-125.03"/>
</g>
<!-- Node102 -->
<g id="node4" class="node">
<title>Node102</title>
<g id="a_node4"><a xlink:href="AsmPrinterDwarf_8cpp.html" target="_top" xlink:title="lib/CodeGen/AsmPrinter\l/AsmPrinterDwarf.cpp">
<polygon fill="none" stroke="black" points="680,-0.5 680,-30.5 802,-30.5 802,-0.5 680,-0.5"/>
<text text-anchor="start" x="688" y="-18.5" font-family="Helvetica,sans-Serif" font-size="10.00">lib/CodeGen/AsmPrinter</text>
<text text-anchor="middle" x="741" y="-7.5" font-family="Helvetica,sans-Serif" font-size="10.00">/AsmPrinterDwarf.cpp</text>
</a>
</g>
</g>
<!-- Node85&#45;&gt;Node102 -->
<g id="edge14" class="edge">
<title>Node85&#45;&gt;Node102</title>
<path fill="none" stroke="midnightblue" d="M693.78,-141.14C721.15,-134.46 750.27,-121.82 767,-98 781.6,-77.22 765.09,-47.84 752.52,-30.61"/>
<polygon fill="midnightblue" stroke="midnightblue" points="692.82,-137.77 683.81,-143.34 694.33,-144.6 692.82,-137.77"/>
</g>
<!-- Node97 -->
<g id="node5" class="node">
<title>Node97</title>
<g id="a_node5"><a xlink:href="DwarfUnit_8h.html" target="_top" xlink:title="lib/CodeGen/AsmPrinter\l/DwarfUnit.h">
<polygon fill="none" stroke="red" points="814,-67.5 814,-97.5 936,-97.5 936,-67.5 814,-67.5"/>
<text text-anchor="start" x="822" y="-85.5" font-family="Helvetica,sans-Serif" font-size="10.00">lib/CodeGen/AsmPrinter</text>
<text text-anchor="middle" x="875" y="-74.5" font-family="Helvetica,sans-Serif" font-size="10.00">/DwarfUnit.h</text>
</a>
</g>
</g>
<!-- Node85&#45;&gt;Node97 -->
<g id="edge4" class="edge">
<title>Node85&#45;&gt;Node97</title>
<path fill="none" stroke="midnightblue" d="M690.27,-131.92C730.74,-121.31 782.67,-107.7 821.16,-97.61"/>
<polygon fill="midnightblue" stroke="midnightblue" points="689.29,-128.55 680.51,-134.48 691.07,-135.33 689.29,-128.55"/>
</g>
<!-- Node90 -->
<g id="node6" class="node">
<title>Node90</title>
<g id="a_node6"><a xlink:href="AccelTable_8cpp.html" target="_top" xlink:title="lib/CodeGen/AsmPrinter\l/AccelTable.cpp">
<polygon fill="none" stroke="black" points="954,-67.5 954,-97.5 1076,-97.5 1076,-67.5 954,-67.5"/>
<text text-anchor="start" x="962" y="-85.5" font-family="Helvetica,sans-Serif" font-size="10.00">lib/CodeGen/AsmPrinter</text>
<text text-anchor="middle" x="1015" y="-74.5" font-family="Helvetica,sans-Serif" font-size="10.00">/AccelTable.cpp</text>
</a>
</g>
</g>
<!-- Node85&#45;&gt;Node90 -->
<g id="edge5" class="edge">
<title>Node85&#45;&gt;Node90</title>
<path fill="none" stroke="midnightblue" d="M693.75,-138.83C758.2,-129.27 858.49,-113.82 945,-98 947.93,-97.46 950.93,-96.9 953.95,-96.32"/>
<polygon fill="midnightblue" stroke="midnightblue" points="693.1,-135.39 683.72,-140.31 694.12,-142.31 693.1,-135.39"/>
</g>
<!-- Node105 -->
<g id="node7" class="node">
<title>Node105</title>
<g id="a_node7"><a xlink:href="AddressPool_8cpp.html" target="_top" xlink:title="lib/CodeGen/AsmPrinter\l/AddressPool.cpp">
<polygon fill="none" stroke="black" points="0,-67.5 0,-97.5 122,-97.5 122,-67.5 0,-67.5"/>
<text text-anchor="start" x="8" y="-85.5" font-family="Helvetica,sans-Serif" font-size="10.00">lib/CodeGen/AsmPrinter</text>
<text text-anchor="middle" x="61" y="-74.5" font-family="Helvetica,sans-Serif" font-size="10.00">/AddressPool.cpp</text>
</a>
</g>
</g>
<!-- Node85&#45;&gt;Node105 -->
<g id="edge6" class="edge">
<title>Node85&#45;&gt;Node105</title>
<path fill="none" stroke="midnightblue" d="M560.13,-143.89C464.59,-136.8 283.7,-121.52 131,-98 128.06,-97.55 125.05,-97.05 122.02,-96.52"/>
<polygon fill="midnightblue" stroke="midnightblue" points="560,-147.38 570.23,-144.63 560.51,-140.4 560,-147.38"/>
</g>
<!-- Node106 -->
<g id="node8" class="node">
<title>Node106</title>
<g id="a_node8"><a xlink:href="DwarfException_8h.html" target="_top" xlink:title="lib/CodeGen/AsmPrinter\l/DwarfException.h">
<polygon fill="none" stroke="red" points="318,-67.5 318,-97.5 440,-97.5 440,-67.5 318,-67.5"/>
<text text-anchor="start" x="326" y="-85.5" font-family="Helvetica,sans-Serif" font-size="10.00">lib/CodeGen/AsmPrinter</text>
<text text-anchor="middle" x="379" y="-74.5" font-family="Helvetica,sans-Serif" font-size="10.00">/DwarfException.h</text>
</a>
</g>
</g>
<!-- Node85&#45;&gt;Node106 -->
<g id="edge7" class="edge">
<title>Node85&#45;&gt;Node106</title>
<path fill="none" stroke="midnightblue" d="M563.73,-131.92C523.26,-121.31 471.33,-107.7 432.84,-97.61"/>
<polygon fill="midnightblue" stroke="midnightblue" points="562.93,-135.33 573.49,-134.48 564.71,-128.55 562.93,-135.33"/>
</g>
<!-- Node107 -->
<g id="node9" class="node">
<title>Node107</title>
<g id="a_node9"><a xlink:href="ARMException_8cpp.html" target="_top" xlink:title="lib/CodeGen/AsmPrinter\l/ARMException.cpp">
<polygon fill="none" stroke="black" points="388,-0.5 388,-30.5 510,-30.5 510,-0.5 388,-0.5"/>
<text text-anchor="start" x="396" y="-18.5" font-family="Helvetica,sans-Serif" font-size="10.00">lib/CodeGen/AsmPrinter</text>
<text text-anchor="middle" x="449" y="-7.5" font-family="Helvetica,sans-Serif" font-size="10.00">/ARMException.cpp</text>
</a>
</g>
</g>
<!-- Node85&#45;&gt;Node107 -->
<g id="edge10" class="edge">
<title>Node85&#45;&gt;Node107</title>
<path fill="none" stroke="midnightblue" d="M560.23,-135.91C534.89,-128.39 507.29,-116.54 487,-98 466.95,-79.68 456.6,-48.61 452.03,-30.59"/>
<polygon fill="midnightblue" stroke="midnightblue" points="559.6,-139.37 570.17,-138.68 561.48,-132.63 559.6,-139.37"/>
</g>
<!-- Node98 -->
<g id="node10" class="node">
<title>Node98</title>
<g id="a_node10"><a xlink:href="AsmPrinter_8cpp.html" target="_top" xlink:title="lib/CodeGen/AsmPrinter\l/AsmPrinter.cpp">
<polygon fill="none" stroke="black" points="229,-0.5 229,-30.5 351,-30.5 351,-0.5 229,-0.5"/>
<text text-anchor="start" x="237" y="-18.5" font-family="Helvetica,sans-Serif" font-size="10.00">lib/CodeGen/AsmPrinter</text>
<text text-anchor="middle" x="290" y="-7.5" font-family="Helvetica,sans-Serif" font-size="10.00">/AsmPrinter.cpp</text>
</a>
</g>
</g>
<!-- Node85&#45;&gt;Node98 -->
<g id="edge11" class="edge">
<title>Node85&#45;&gt;Node98</title>
<path fill="none" stroke="midnightblue" d="M560.29,-146.44C477.96,-142.49 344.5,-131.04 309,-98 290.39,-80.68 288.34,-48.95 288.91,-30.61"/>
<polygon fill="midnightblue" stroke="midnightblue" points="560.16,-149.94 570.31,-146.9 560.48,-142.95 560.16,-149.94"/>
</g>
<!-- Node109 -->
<g id="node11" class="node">
<title>Node109</title>
<g id="a_node11"><a xlink:href="WasmException_8h.html" target="_top" xlink:title="lib/CodeGen/AsmPrinter\l/WasmException.h">
<polygon fill="none" stroke="red" points="140,-67.5 140,-97.5 262,-97.5 262,-67.5 140,-67.5"/>
<text text-anchor="start" x="148" y="-85.5" font-family="Helvetica,sans-Serif" font-size="10.00">lib/CodeGen/AsmPrinter</text>
<text text-anchor="middle" x="201" y="-74.5" font-family="Helvetica,sans-Serif" font-size="10.00">/WasmException.h</text>
</a>
</g>
</g>
<!-- Node85&#45;&gt;Node109 -->
<g id="edge12" class="edge">
<title>Node85&#45;&gt;Node109</title>
<path fill="none" stroke="midnightblue" d="M560.23,-139.87C489.5,-130.49 374.66,-114.62 276,-98 271.55,-97.25 266.97,-96.44 262.35,-95.61"/>
<polygon fill="midnightblue" stroke="midnightblue" points="559.96,-143.36 570.33,-141.2 560.88,-136.42 559.96,-143.36"/>
</g>
<!-- Node85&#45;&gt;Node111 -->
<g id="edge15" class="edge">
<title>Node85&#45;&gt;Node111</title>
<path fill="none" stroke="midnightblue" d="M693.59,-142.87C782.93,-134.92 946.39,-119 1085,-98 1088.02,-97.54 1091.1,-97.05 1094.2,-96.53"/>
<polygon fill="midnightblue" stroke="midnightblue" points="693.25,-139.38 683.6,-143.75 693.87,-146.35 693.25,-139.38"/>
</g>
<!-- Node104 -->
<g id="node13" class="node">
<title>Node104</title>
<g id="a_node13"><a xlink:href="CodeViewDebug_8cpp.html" target="_top" xlink:title="lib/CodeGen/AsmPrinter\l/CodeViewDebug.cpp">
<polygon fill="none" stroke="black" points="496,-67.5 496,-97.5 618,-97.5 618,-67.5 496,-67.5"/>
<text text-anchor="start" x="504" y="-85.5" font-family="Helvetica,sans-Serif" font-size="10.00">lib/CodeGen/AsmPrinter</text>
<text text-anchor="middle" x="557" y="-74.5" font-family="Helvetica,sans-Serif" font-size="10.00">/CodeViewDebug.cpp</text>
</a>
</g>
</g>
<!-- Node85&#45;&gt;Node104 -->
<g id="edge16" class="edge">
<title>Node85&#45;&gt;Node104</title>
<path fill="none" stroke="midnightblue" d="M604.18,-127.31C593.68,-117.56 581.51,-106.26 572.16,-97.58"/>
<polygon fill="midnightblue" stroke="midnightblue" points="602.1,-130.16 611.81,-134.4 606.86,-125.03 602.1,-130.16"/>
</g>
<!-- Node86&#45;&gt;Node102 -->
<g id="edge3" class="edge">
<title>Node86&#45;&gt;Node102</title>
<path fill="none" stroke="midnightblue" d="M712.32,-58.87C718.69,-49.46 725.88,-38.83 731.47,-30.58"/>
<polygon fill="midnightblue" stroke="midnightblue" points="709.25,-57.15 706.55,-67.4 715.05,-61.08 709.25,-57.15"/>
</g>
<!-- Node106&#45;&gt;Node107 -->
<g id="edge8" class="edge">
<title>Node106&#45;&gt;Node107</title>
<path fill="none" stroke="midnightblue" d="M401.82,-60.31C412.32,-50.56 424.49,-39.26 433.84,-30.58"/>
<polygon fill="midnightblue" stroke="midnightblue" points="399.14,-58.03 394.19,-67.4 403.9,-63.16 399.14,-58.03"/>
</g>
<!-- Node106&#45;&gt;Node98 -->
<g id="edge9" class="edge">
<title>Node106&#45;&gt;Node98</title>
<path fill="none" stroke="midnightblue" d="M351.55,-61.45C337.86,-51.45 321.63,-39.6 309.27,-30.58"/>
<polygon fill="midnightblue" stroke="midnightblue" points="349.55,-64.32 359.69,-67.4 353.68,-58.67 349.55,-64.32"/>
</g>
<!-- Node109&#45;&gt;Node98 -->
<g id="edge13" class="edge">
<title>Node109&#45;&gt;Node98</title>
<path fill="none" stroke="midnightblue" d="M228.45,-61.45C242.14,-51.45 258.37,-39.6 270.73,-30.58"/>
<polygon fill="midnightblue" stroke="midnightblue" points="226.32,-58.67 220.31,-67.4 230.45,-64.32 226.32,-58.67"/>
</g>
<!-- Node173&#45;&gt;Node1386 -->
<g id="edge19" class="edge">
<title>Node173&#45;&gt;Node1386</title>
<path fill="none" stroke="midnightblue" d="M1454.93,-130.95C1420.36,-118.32 1375.25,-101.85 1348.3,-92.01"/>
<polygon fill="midnightblue" stroke="midnightblue" points="1453.78,-134.25 1464.38,-134.4 1456.18,-127.68 1453.78,-134.25"/>
</g>
<!-- Node1387&#45;&gt;Node1068 -->
<g id="edge21" class="edge">
<title>Node1387&#45;&gt;Node1068</title>
<path fill="none" stroke="midnightblue" d="M1678.37,-132.6C1636.14,-121.88 1580.93,-107.86 1540.32,-97.55"/>
<polygon fill="midnightblue" stroke="midnightblue" points="1677.71,-136.04 1688.27,-135.11 1679.44,-129.26 1677.71,-136.04"/>
</g>
<!-- Node1387&#45;&gt;Node1467 -->
<g id="edge22" class="edge">
<title>Node1387&#45;&gt;Node1467</title>
<path fill="none" stroke="midnightblue" d="M1712.42,-128.31C1695.14,-116.1 1674.02,-101.18 1661.04,-92.01"/>
<polygon fill="midnightblue" stroke="midnightblue" points="1710.85,-131.48 1721.04,-134.4 1714.89,-125.77 1710.85,-131.48"/>
</g>
<!-- Node1387&#45;&gt;Node1474 -->
<g id="edge23" class="edge">
<title>Node1387&#45;&gt;Node1474</title>
<path fill="none" stroke="midnightblue" d="M1769.58,-128.31C1786.86,-116.1 1807.98,-101.18 1820.96,-92.01"/>
<polygon fill="midnightblue" stroke="midnightblue" points="1767.11,-125.77 1760.96,-134.4 1771.15,-131.48 1767.11,-125.77"/>
</g>
<!-- Node1476&#45;&gt;Node1478 -->
<g id="edge25" class="edge">
<title>Node1476&#45;&gt;Node1478</title>
<path fill="none" stroke="midnightblue" d="M1961.72,-126.32C1970.56,-114.6 1980.9,-100.88 1987.45,-92.19"/>
<polygon fill="midnightblue" stroke="midnightblue" points="1958.86,-124.3 1955.63,-134.4 1964.45,-128.52 1958.86,-124.3"/>
</g>
<!-- Node1476&#45;&gt;Node1482 -->
<g id="edge26" class="edge">
<title>Node1476&#45;&gt;Node1482</title>
<path fill="none" stroke="midnightblue" d="M1997.18,-131.11C2035.11,-118.46 2084.82,-101.89 2114.48,-92.01"/>
<polygon fill="midnightblue" stroke="midnightblue" points="1995.69,-127.91 1987.31,-134.4 1997.91,-134.55 1995.69,-127.91"/>
</g>
<!-- Node1483&#45;&gt;Node1484 -->
<g id="edge28" class="edge">
<title>Node1483&#45;&gt;Node1484</title>
<path fill="none" stroke="midnightblue" d="M2152.17,-136.27C2186.11,-123.37 2238.71,-103.38 2268.47,-92.06"/>
<polygon fill="midnightblue" stroke="midnightblue" points="2150.81,-133.04 2142.71,-139.87 2153.3,-139.59 2150.81,-133.04"/>
</g>
</g>
</svg>
