<?xml version="1.0" encoding="UTF-8" standalone="no"?>
<!DOCTYPE svg PUBLIC "-//W3C//DTD SVG 1.1//EN"
 "http://www.w3.org/Graphics/SVG/1.1/DTD/svg11.dtd">
<!-- Generated by graphviz version 2.43.0 (0)
 -->
<!-- Title: include/llvm/Support/SymbolRemappingReader.h Pages: 1 -->
<svg width="676pt" height="173pt"
 viewBox="0.00 0.00 675.50 173.00" xmlns="http://www.w3.org/2000/svg" xmlns:xlink="http://www.w3.org/1999/xlink">
<g id="graph0" class="graph" transform="scale(1 1) rotate(0) translate(4 169)">
<title>include/llvm/Support/SymbolRemappingReader.h</title>
<!-- Node80 -->
<g id="node1" class="node">
<title>Node80</title>
<polygon fill="#bfbfbf" stroke="black" points="370,-134.5 370,-164.5 512,-164.5 512,-134.5 370,-134.5"/>
<text text-anchor="start" x="378" y="-152.5" font-family="Helvetica,sans-Serif" font-size="10.00">include/llvm/Support</text>
<text text-anchor="middle" x="441" y="-141.5" font-family="Helvetica,sans-Serif" font-size="10.00">/SymbolRemappingReader.h</text>
</g>
<!-- Node81 -->
<g id="node2" class="node">
<title>Node81</title>
<g id="a_node2"><a xlink:href="SampleProfReader_8h.html" target="_top" xlink:title="include/llvm/ProfileData\l/SampleProfReader.h">
<polygon fill="none" stroke="black" points="243,-67.5 243,-97.5 363,-97.5 363,-67.5 243,-67.5"/>
<text text-anchor="start" x="251" y="-85.5" font-family="Helvetica,sans-Serif" font-size="10.00">include/llvm/ProfileData</text>
<text text-anchor="middle" x="303" y="-74.5" font-family="Helvetica,sans-Serif" font-size="10.00">/SampleProfReader.h</text>
</a>
</g>
</g>
<!-- Node80&#45;&gt;Node81 -->
<g id="edge1" class="edge">
<title>Node80&#45;&gt;Node81</title>
<path fill="none" stroke="midnightblue" d="M402,-130.13C380.07,-119.8 353.13,-107.11 332.89,-97.58"/>
<polygon fill="midnightblue" stroke="midnightblue" points="400.52,-133.3 411.06,-134.4 403.5,-126.97 400.52,-133.3"/>
</g>
<!-- Node86 -->
<g id="node7" class="node">
<title>Node86</title>
<g id="a_node7"><a xlink:href="InstrProfReader_8cpp.html" target="_top" xlink:title="lib/ProfileData/InstrProf\lReader.cpp">
<polygon fill="none" stroke="black" points="381.5,-67.5 381.5,-97.5 500.5,-97.5 500.5,-67.5 381.5,-67.5"/>
<text text-anchor="start" x="389.5" y="-85.5" font-family="Helvetica,sans-Serif" font-size="10.00">lib/ProfileData/InstrProf</text>
<text text-anchor="middle" x="441" y="-74.5" font-family="Helvetica,sans-Serif" font-size="10.00">Reader.cpp</text>
</a>
</g>
</g>
<!-- Node80&#45;&gt;Node86 -->
<g id="edge6" class="edge">
<title>Node80&#45;&gt;Node86</title>
<path fill="none" stroke="midnightblue" d="M441,-124.11C441,-115.15 441,-105.32 441,-97.58"/>
<polygon fill="midnightblue" stroke="midnightblue" points="437.5,-124.4 441,-134.4 444.5,-124.4 437.5,-124.4"/>
</g>
<!-- Node87 -->
<g id="node8" class="node">
<title>Node87</title>
<g id="a_node8"><a xlink:href="SymbolRemappingReader_8cpp.html" target="_top" xlink:title="lib/Support/SymbolRemapping\lReader.cpp">
<polygon fill="none" stroke="black" points="518.5,-67.5 518.5,-97.5 667.5,-97.5 667.5,-67.5 518.5,-67.5"/>
<text text-anchor="start" x="526.5" y="-85.5" font-family="Helvetica,sans-Serif" font-size="10.00">lib/Support/SymbolRemapping</text>
<text text-anchor="middle" x="593" y="-74.5" font-family="Helvetica,sans-Serif" font-size="10.00">Reader.cpp</text>
</a>
</g>
</g>
<!-- Node80&#45;&gt;Node87 -->
<g id="edge7" class="edge">
<title>Node80&#45;&gt;Node87</title>
<path fill="none" stroke="midnightblue" d="M483.31,-130.41C507.58,-120.03 537.59,-107.2 560.08,-97.58"/>
<polygon fill="midnightblue" stroke="midnightblue" points="481.8,-127.25 473.98,-134.4 484.55,-133.68 481.8,-127.25"/>
</g>
<!-- Node82 -->
<g id="node3" class="node">
<title>Node82</title>
<g id="a_node3"><a xlink:href="SampleProfReader_8cpp.html" target="_top" xlink:title="lib/ProfileData/SampleProf\lReader.cpp">
<polygon fill="none" stroke="black" points="0,-0.5 0,-30.5 132,-30.5 132,-0.5 0,-0.5"/>
<text text-anchor="start" x="8" y="-18.5" font-family="Helvetica,sans-Serif" font-size="10.00">lib/ProfileData/SampleProf</text>
<text text-anchor="middle" x="66" y="-7.5" font-family="Helvetica,sans-Serif" font-size="10.00">Reader.cpp</text>
</a>
</g>
</g>
<!-- Node81&#45;&gt;Node82 -->
<g id="edge2" class="edge">
<title>Node81&#45;&gt;Node82</title>
<path fill="none" stroke="midnightblue" d="M241.8,-64.71C203.23,-54.14 154,-40.63 117.45,-30.61"/>
<polygon fill="midnightblue" stroke="midnightblue" points="241.3,-68.21 251.87,-67.48 243.15,-61.46 241.3,-68.21"/>
</g>
<!-- Node83 -->
<g id="node4" class="node">
<title>Node83</title>
<g id="a_node4"><a xlink:href="X86DiscriminateMemOps_8cpp.html" target="_top" xlink:title="lib/Target/X86/X86Discriminate\lMemOps.cpp">
<polygon fill="none" stroke="black" points="150,-0.5 150,-30.5 302,-30.5 302,-0.5 150,-0.5"/>
<text text-anchor="start" x="158" y="-18.5" font-family="Helvetica,sans-Serif" font-size="10.00">lib/Target/X86/X86Discriminate</text>
<text text-anchor="middle" x="226" y="-7.5" font-family="Helvetica,sans-Serif" font-size="10.00">MemOps.cpp</text>
</a>
</g>
</g>
<!-- Node81&#45;&gt;Node83 -->
<g id="edge3" class="edge">
<title>Node81&#45;&gt;Node83</title>
<path fill="none" stroke="midnightblue" d="M278.58,-60.88C266.88,-51.01 253.16,-39.43 242.68,-30.58"/>
<polygon fill="midnightblue" stroke="midnightblue" points="276.39,-63.62 286.29,-67.4 280.91,-58.27 276.39,-63.62"/>
</g>
<!-- Node84 -->
<g id="node5" class="node">
<title>Node84</title>
<g id="a_node5"><a xlink:href="X86InsertPrefetch_8cpp.html" target="_top" xlink:title="lib/Target/X86/X86Insert\lPrefetch.cpp">
<polygon fill="none" stroke="black" points="320,-0.5 320,-30.5 442,-30.5 442,-0.5 320,-0.5"/>
<text text-anchor="start" x="328" y="-18.5" font-family="Helvetica,sans-Serif" font-size="10.00">lib/Target/X86/X86Insert</text>
<text text-anchor="middle" x="381" y="-7.5" font-family="Helvetica,sans-Serif" font-size="10.00">Prefetch.cpp</text>
</a>
</g>
</g>
<!-- Node81&#45;&gt;Node84 -->
<g id="edge4" class="edge">
<title>Node81&#45;&gt;Node84</title>
<path fill="none" stroke="midnightblue" d="M327.74,-60.88C339.59,-51.01 353.48,-39.43 364.11,-30.58"/>
<polygon fill="midnightblue" stroke="midnightblue" points="325.37,-58.31 319.92,-67.4 329.85,-63.68 325.37,-58.31"/>
</g>
<!-- Node85 -->
<g id="node6" class="node">
<title>Node85</title>
<g id="a_node6"><a xlink:href="SampleProfile_8cpp.html" target="_top" xlink:title="lib/Transforms/IPO\l/SampleProfile.cpp">
<polygon fill="none" stroke="black" points="460.5,-0.5 460.5,-30.5 559.5,-30.5 559.5,-0.5 460.5,-0.5"/>
<text text-anchor="start" x="468.5" y="-18.5" font-family="Helvetica,sans-Serif" font-size="10.00">lib/Transforms/IPO</text>
<text text-anchor="middle" x="510" y="-7.5" font-family="Helvetica,sans-Serif" font-size="10.00">/SampleProfile.cpp</text>
</a>
</g>
</g>
<!-- Node81&#45;&gt;Node85 -->
<g id="edge5" class="edge">
<title>Node81&#45;&gt;Node85</title>
<path fill="none" stroke="midnightblue" d="M357.32,-64.44C390.87,-53.91 433.41,-40.55 465.06,-30.61"/>
<polygon fill="midnightblue" stroke="midnightblue" points="356.15,-61.14 347.66,-67.48 358.25,-67.82 356.15,-61.14"/>
</g>
</g>
</svg>
