<?xml version="1.0" encoding="UTF-8" standalone="no"?>
<!DOCTYPE svg PUBLIC "-//W3C//DTD SVG 1.1//EN"
 "http://www.w3.org/Graphics/SVG/1.1/DTD/svg11.dtd">
<!-- Generated by graphviz version 2.43.0 (0)
 -->
<!-- Title: lib/Object/TapiUniversal.cpp Pages: 1 -->
<svg width="3120pt" height="800pt"
 viewBox="0.00 0.00 3119.60 800.00" xmlns="http://www.w3.org/2000/svg" xmlns:xlink="http://www.w3.org/1999/xlink">
<g id="graph0" class="graph" transform="scale(1 1) rotate(0) translate(4 796)">
<title>lib/Object/TapiUniversal.cpp</title>
<!-- Node0 -->
<g id="node1" class="node">
<title>Node0</title>
<polygon fill="#bfbfbf" stroke="black" points="1128,-772.5 1128,-791.5 1268,-791.5 1268,-772.5 1128,-772.5"/>
<text text-anchor="middle" x="1198" y="-779.5" font-family="Helvetica,sans-Serif" font-size="10.00">lib/Object/TapiUniversal.cpp</text>
</g>
<!-- Node1 -->
<g id="node2" class="node">
<title>Node1</title>
<g id="a_node2"><a xlink:href="TapiUniversal_8h.html" target="_top" xlink:title="llvm/Object/TapiUniversal.h">
<polygon fill="none" stroke="black" points="1129.5,-716.5 1129.5,-735.5 1266.5,-735.5 1266.5,-716.5 1129.5,-716.5"/>
<text text-anchor="middle" x="1198" y="-723.5" font-family="Helvetica,sans-Serif" font-size="10.00">llvm/Object/TapiUniversal.h</text>
</a>
</g>
</g>
<!-- Node0&#45;&gt;Node1 -->
<g id="edge1" class="edge">
<title>Node0&#45;&gt;Node1</title>
<path fill="none" stroke="midnightblue" d="M1198,-772.08C1198,-765.01 1198,-754.86 1198,-745.99"/>
<polygon fill="midnightblue" stroke="midnightblue" points="1201.5,-745.75 1198,-735.75 1194.5,-745.75 1201.5,-745.75"/>
</g>
<!-- Node39 -->
<g id="node22" class="node">
<title>Node39</title>
<g id="a_node22"><a xlink:href="StringRef_8h.html" target="_top" xlink:title="llvm/ADT/StringRef.h">
<polygon fill="none" stroke="black" points="1350,-168.5 1350,-187.5 1460,-187.5 1460,-168.5 1350,-168.5"/>
<text text-anchor="middle" x="1405" y="-175.5" font-family="Helvetica,sans-Serif" font-size="10.00">llvm/ADT/StringRef.h</text>
</a>
</g>
</g>
<!-- Node0&#45;&gt;Node39 -->
<g id="edge199" class="edge">
<title>Node0&#45;&gt;Node39</title>
<path fill="none" stroke="midnightblue" d="M1225.93,-772.5C1243.43,-765.61 1264.74,-754.04 1276,-736 1351.94,-614.3 1285.13,-556.87 1298,-414 1303.38,-354.31 1298.59,-338.17 1313,-280 1319.43,-254.04 1318.04,-244.68 1335,-224 1345.94,-210.66 1361.91,-199.97 1375.83,-192.36"/>
<polygon fill="midnightblue" stroke="midnightblue" points="1377.78,-195.3 1385.06,-187.6 1374.57,-189.08 1377.78,-195.3"/>
</g>
<!-- Node48 -->
<g id="node28" class="node">
<title>Node48</title>
<g id="a_node28"><a xlink:href="Object_2Error_8h.html" target="_top" xlink:title="llvm/Object/Error.h">
<polygon fill="none" stroke="black" points="2334,-420 2334,-439 2432,-439 2432,-420 2334,-420"/>
<text text-anchor="middle" x="2383" y="-427" font-family="Helvetica,sans-Serif" font-size="10.00">llvm/Object/Error.h</text>
</a>
</g>
</g>
<!-- Node0&#45;&gt;Node48 -->
<g id="edge200" class="edge">
<title>Node0&#45;&gt;Node48</title>
<path fill="none" stroke="midnightblue" d="M1268.41,-779.54C1563.96,-772.95 2689,-743.15 2689,-671 2689,-671 2689,-671 2689,-551.5 2689,-498.62 2529,-458.95 2440.39,-441.03"/>
<polygon fill="midnightblue" stroke="midnightblue" points="2440.97,-437.58 2430.48,-439.06 2439.6,-444.44 2440.97,-437.58"/>
</g>
<!-- Node63 -->
<g id="node40" class="node">
<title>Node63</title>
<g id="a_node40"><a xlink:href="MemoryBuffer_8h.html" target="_top" xlink:title="llvm/Support/MemoryBuffer.h">
<polygon fill="none" stroke="black" points="646,-481.5 646,-500.5 790,-500.5 790,-481.5 646,-481.5"/>
<text text-anchor="middle" x="718" y="-488.5" font-family="Helvetica,sans-Serif" font-size="10.00">llvm/Support/MemoryBuffer.h</text>
</a>
</g>
</g>
<!-- Node0&#45;&gt;Node63 -->
<g id="edge201" class="edge">
<title>Node0&#45;&gt;Node63</title>
<path fill="none" stroke="midnightblue" d="M1127.85,-780.41C905.04,-777.6 228,-761.62 228,-671 228,-671 228,-671 228,-613 228,-530.03 496.17,-503.6 635.73,-495.46"/>
<polygon fill="midnightblue" stroke="midnightblue" points="636.18,-498.94 645.96,-494.88 635.78,-491.95 636.18,-498.94"/>
</g>
<!-- Node106 -->
<g id="node50" class="node">
<title>Node106</title>
<g id="a_node50"><a xlink:href="TextAPIReader_8h.html" target="_top" xlink:title="llvm/TextAPI/MachO\l/TextAPIReader.h">
<polygon fill="none" stroke="black" points="965,-537.5 965,-567.5 1073,-567.5 1073,-537.5 965,-537.5"/>
<text text-anchor="start" x="973" y="-555.5" font-family="Helvetica,sans-Serif" font-size="10.00">llvm/TextAPI/MachO</text>
<text text-anchor="middle" x="1019" y="-544.5" font-family="Helvetica,sans-Serif" font-size="10.00">/TextAPIReader.h</text>
</a>
</g>
</g>
<!-- Node0&#45;&gt;Node106 -->
<g id="edge202" class="edge">
<title>Node0&#45;&gt;Node106</title>
<path fill="none" stroke="midnightblue" d="M1179.43,-772.43C1163.08,-764.36 1139.11,-751.27 1121,-736 1069.52,-692.57 1039.08,-616.22 1026.23,-577.49"/>
<polygon fill="midnightblue" stroke="midnightblue" points="1029.45,-576.07 1023.06,-567.62 1022.78,-578.21 1029.45,-576.07"/>
</g>
<!-- Node2 -->
<g id="node3" class="node">
<title>Node2</title>
<g id="a_node3"><a xlink:href="Binary_8h.html" target="_top" xlink:title="llvm/Object/Binary.h">
<polygon fill="none" stroke="black" points="651.5,-543 651.5,-562 756.5,-562 756.5,-543 651.5,-543"/>
<text text-anchor="middle" x="704" y="-550" font-family="Helvetica,sans-Serif" font-size="10.00">llvm/Object/Binary.h</text>
</a>
</g>
</g>
<!-- Node1&#45;&gt;Node2 -->
<g id="edge2" class="edge">
<title>Node1&#45;&gt;Node2</title>
<path fill="none" stroke="midnightblue" d="M1129.25,-720.81C1040.99,-712.83 885.6,-689.85 771,-624 747.99,-610.78 727.98,-587.22 715.96,-571"/>
<polygon fill="midnightblue" stroke="midnightblue" points="718.5,-568.54 709.84,-562.43 712.81,-572.6 718.5,-568.54"/>
</g>
<!-- Node49 -->
<g id="node29" class="node">
<title>Node49</title>
<g id="a_node29"><a xlink:href="Support_2Error_8h.html" target="_top" xlink:title="llvm/Support/Error.h">
<polygon fill="none" stroke="black" points="1411,-353 1411,-372 1515,-372 1515,-353 1411,-353"/>
<text text-anchor="middle" x="1463" y="-360" font-family="Helvetica,sans-Serif" font-size="10.00">llvm/Support/Error.h</text>
</a>
</g>
</g>
<!-- Node1&#45;&gt;Node49 -->
<g id="edge195" class="edge">
<title>Node1&#45;&gt;Node49</title>
<path fill="none" stroke="midnightblue" d="M1212.15,-716.35C1259.88,-686.23 1415.09,-580.33 1470,-445 1478.23,-424.71 1474.01,-399.29 1469.34,-382.28"/>
<polygon fill="midnightblue" stroke="midnightblue" points="1472.61,-381 1466.34,-372.46 1465.92,-383.05 1472.61,-381"/>
</g>
<!-- Node1&#45;&gt;Node63 -->
<g id="edge196" class="edge">
<title>Node1&#45;&gt;Node63</title>
<path fill="none" stroke="midnightblue" d="M1149.3,-716.47C1059.82,-700.08 873.62,-662.39 821,-624 783.85,-596.9 794.25,-572.48 765,-537 756.22,-526.35 745.11,-515.61 735.9,-507.3"/>
<polygon fill="midnightblue" stroke="midnightblue" points="738.21,-504.67 728.4,-500.68 733.58,-509.92 738.21,-504.67"/>
</g>
<!-- Node83 -->
<g id="node43" class="node">
<title>Node83</title>
<g id="a_node43"><a xlink:href="TapiFile_8h.html" target="_top" xlink:title="llvm/Object/TapiFile.h">
<polygon fill="none" stroke="black" points="1083,-660.5 1083,-679.5 1195,-679.5 1195,-660.5 1083,-660.5"/>
<text text-anchor="middle" x="1139" y="-667.5" font-family="Helvetica,sans-Serif" font-size="10.00">llvm/Object/TapiFile.h</text>
</a>
</g>
</g>
<!-- Node1&#45;&gt;Node83 -->
<g id="edge155" class="edge">
<title>Node1&#45;&gt;Node83</title>
<path fill="none" stroke="midnightblue" d="M1188.52,-716.32C1179.8,-708.34 1166.66,-696.31 1156.1,-686.65"/>
<polygon fill="midnightblue" stroke="midnightblue" points="1158.39,-684 1148.65,-679.83 1153.67,-689.17 1158.39,-684"/>
</g>
<!-- Node87 -->
<g id="node45" class="node">
<title>Node87</title>
<g id="a_node45"><a xlink:href="InterfaceFile_8h.html" target="_top" xlink:title="llvm/TextAPI/MachO\l/InterfaceFile.h">
<polygon fill="none" stroke="red" points="2573,-414.5 2573,-444.5 2681,-444.5 2681,-414.5 2573,-414.5"/>
<text text-anchor="start" x="2581" y="-432.5" font-family="Helvetica,sans-Serif" font-size="10.00">llvm/TextAPI/MachO</text>
<text text-anchor="middle" x="2627" y="-421.5" font-family="Helvetica,sans-Serif" font-size="10.00">/InterfaceFile.h</text>
</a>
</g>
</g>
<!-- Node1&#45;&gt;Node87 -->
<g id="edge198" class="edge">
<title>Node1&#45;&gt;Node87</title>
<path fill="none" stroke="midnightblue" d="M1266.62,-723.44C1554.63,-716.47 2651,-685.32 2651,-615 2651,-615 2651,-615 2651,-551.5 2651,-517.36 2641.69,-478.82 2634.67,-454.6"/>
<polygon fill="midnightblue" stroke="midnightblue" points="2637.97,-453.42 2631.74,-444.85 2631.27,-455.43 2637.97,-453.42"/>
</g>
<!-- Node96 -->
<g id="node48" class="node">
<title>Node96</title>
<g id="a_node48"><a xlink:href="Architecture_8h.html" target="_top" xlink:title="llvm/TextAPI/MachO\l/Architecture.h">
<polygon fill="none" stroke="black" points="2638,-347.5 2638,-377.5 2746,-377.5 2746,-347.5 2638,-347.5"/>
<text text-anchor="start" x="2646" y="-365.5" font-family="Helvetica,sans-Serif" font-size="10.00">llvm/TextAPI/MachO</text>
<text text-anchor="middle" x="2692" y="-354.5" font-family="Helvetica,sans-Serif" font-size="10.00">/Architecture.h</text>
</a>
</g>
</g>
<!-- Node1&#45;&gt;Node96 -->
<g id="edge197" class="edge">
<title>Node1&#45;&gt;Node96</title>
<path fill="none" stroke="midnightblue" d="M1266.85,-723.85C1487.8,-719.95 2177.39,-705.95 2399,-680 2546.6,-662.72 2727,-763.61 2727,-615 2727,-615 2727,-615 2727,-490 2727,-452.95 2712.88,-411.93 2702.58,-386.93"/>
<polygon fill="midnightblue" stroke="midnightblue" points="2705.72,-385.39 2698.58,-377.57 2699.29,-388.14 2705.72,-385.39"/>
</g>
<!-- Node3 -->
<g id="node4" class="node">
<title>Node3</title>
<g id="a_node4"><a xlink:href="c_2Types_8h.html" target="_top" xlink:title="llvm&#45;c/Types.h">
<polygon fill="none" stroke="red" points="339.5,-353 339.5,-372 420.5,-372 420.5,-353 339.5,-353"/>
<text text-anchor="middle" x="380" y="-360" font-family="Helvetica,sans-Serif" font-size="10.00">llvm&#45;c/Types.h</text>
</a>
</g>
</g>
<!-- Node2&#45;&gt;Node3 -->
<g id="edge3" class="edge">
<title>Node2&#45;&gt;Node3</title>
<path fill="none" stroke="midnightblue" d="M651.35,-551.78C576.53,-548.99 441.62,-531.42 379,-445 365.8,-426.78 369.38,-399.75 373.99,-381.89"/>
<polygon fill="midnightblue" stroke="midnightblue" points="377.4,-382.69 376.85,-372.11 370.69,-380.72 377.4,-382.69"/>
</g>
<!-- Node10 -->
<g id="node5" class="node">
<title>Node10</title>
<g id="a_node5"><a xlink:href="Triple_8h.html" target="_top" xlink:title="llvm/ADT/Triple.h">
<polygon fill="none" stroke="black" points="2450.5,-286 2450.5,-305 2543.5,-305 2543.5,-286 2450.5,-286"/>
<text text-anchor="middle" x="2497" y="-293" font-family="Helvetica,sans-Serif" font-size="10.00">llvm/ADT/Triple.h</text>
</a>
</g>
</g>
<!-- Node2&#45;&gt;Node10 -->
<g id="edge4" class="edge">
<title>Node2&#45;&gt;Node10</title>
<path fill="none" stroke="midnightblue" d="M756.65,-548.46C1046.22,-531.75 2432.29,-451.43 2441,-445 2482.86,-414.11 2493.44,-348.01 2496.1,-315.43"/>
<polygon fill="midnightblue" stroke="midnightblue" points="2499.62,-315.28 2496.77,-305.08 2492.63,-314.83 2499.62,-315.28"/>
</g>
<!-- Node15 -->
<g id="node9" class="node">
<title>Node15</title>
<polygon fill="none" stroke="#bfbfbf" points="888,-0.5 888,-19.5 928,-19.5 928,-0.5 888,-0.5"/>
<text text-anchor="middle" x="908" y="-7.5" font-family="Helvetica,sans-Serif" font-size="10.00">utility</text>
</g>
<!-- Node2&#45;&gt;Node15 -->
<g id="edge154" class="edge">
<title>Node2&#45;&gt;Node15</title>
<path fill="none" stroke="midnightblue" d="M651.23,-549.92C542.83,-546.03 298.92,-533.81 223,-501 49.8,-426.16 23.78,-298.4 53,-112 57.05,-86.17 50.3,-71.96 71,-56 103.57,-30.89 731.46,-15.03 877.73,-11.67"/>
<polygon fill="midnightblue" stroke="midnightblue" points="877.87,-15.17 887.79,-11.44 877.71,-8.17 877.87,-15.17"/>
</g>
<!-- Node26 -->
<g id="node15" class="node">
<title>Node26</title>
<polygon fill="none" stroke="#bfbfbf" points="1318,-56.5 1318,-75.5 1374,-75.5 1374,-56.5 1318,-56.5"/>
<text text-anchor="middle" x="1346" y="-63.5" font-family="Helvetica,sans-Serif" font-size="10.00">algorithm</text>
</g>
<!-- Node2&#45;&gt;Node26 -->
<g id="edge152" class="edge">
<title>Node2&#45;&gt;Node26</title>
<path fill="none" stroke="midnightblue" d="M651.23,-546.91C578.2,-539.79 450.81,-524.45 411,-501 344.36,-461.75 285.46,-410.22 330,-347 531.91,-60.37 748.98,-217.51 1089,-132 1120.79,-124 1128.28,-120.3 1160,-112 1210.97,-98.66 1270.17,-84.58 1307.84,-75.79"/>
<polygon fill="midnightblue" stroke="midnightblue" points="1308.93,-79.14 1317.87,-73.46 1307.34,-72.32 1308.93,-79.14"/>
</g>
<!-- Node37 -->
<g id="node19" class="node">
<title>Node37</title>
<polygon fill="none" stroke="#bfbfbf" points="107,-56.5 107,-75.5 159,-75.5 159,-56.5 107,-56.5"/>
<text text-anchor="middle" x="133" y="-63.5" font-family="Helvetica,sans-Serif" font-size="10.00">memory</text>
</g>
<!-- Node2&#45;&gt;Node37 -->
<g id="edge153" class="edge">
<title>Node2&#45;&gt;Node37</title>
<path fill="none" stroke="midnightblue" d="M651.19,-551.8C546.06,-551.41 315.28,-545.37 252,-501 141.11,-423.24 121.55,-359.39 125,-224 126.28,-173.9 129.84,-114.9 131.75,-85.54"/>
<polygon fill="midnightblue" stroke="midnightblue" points="135.25,-85.71 132.41,-75.5 128.26,-85.25 135.25,-85.71"/>
</g>
<!-- Node2&#45;&gt;Node48 -->
<g id="edge54" class="edge">
<title>Node2&#45;&gt;Node48</title>
<path fill="none" stroke="midnightblue" d="M755.75,-542.99C869.22,-524.34 1130.28,-481.47 1135,-481 1593.05,-435.76 1710.33,-468.63 2170,-445 2221.98,-442.33 2281.02,-438.22 2323.74,-435.06"/>
<polygon fill="midnightblue" stroke="midnightblue" points="2324.25,-438.54 2333.96,-434.3 2323.73,-431.56 2324.25,-438.54"/>
</g>
<!-- Node2&#45;&gt;Node49 -->
<g id="edge128" class="edge">
<title>Node2&#45;&gt;Node49</title>
<path fill="none" stroke="midnightblue" d="M725.77,-542.84C787,-518.8 966.34,-450.63 1121,-414 1217.38,-391.17 1331.62,-376.79 1400.64,-369.45"/>
<polygon fill="midnightblue" stroke="midnightblue" points="1401.33,-372.9 1410.91,-368.38 1400.6,-365.94 1401.33,-372.9"/>
</g>
<!-- Node2&#45;&gt;Node63 -->
<g id="edge129" class="edge">
<title>Node2&#45;&gt;Node63</title>
<path fill="none" stroke="midnightblue" d="M706.01,-542.98C708,-534.49 711.13,-521.2 713.69,-510.32"/>
<polygon fill="midnightblue" stroke="midnightblue" points="717.11,-511.04 716,-500.51 710.3,-509.44 717.11,-511.04"/>
</g>
<!-- Node11 -->
<g id="node6" class="node">
<title>Node11</title>
<g id="a_node6"><a xlink:href="Twine_8h.html" target="_top" xlink:title="llvm/ADT/Twine.h">
<polygon fill="none" stroke="black" points="2071.5,-224.5 2071.5,-243.5 2166.5,-243.5 2166.5,-224.5 2071.5,-224.5"/>
<text text-anchor="middle" x="2119" y="-231.5" font-family="Helvetica,sans-Serif" font-size="10.00">llvm/ADT/Twine.h</text>
</a>
</g>
</g>
<!-- Node10&#45;&gt;Node11 -->
<g id="edge5" class="edge">
<title>Node10&#45;&gt;Node11</title>
<path fill="none" stroke="midnightblue" d="M2463.56,-285.96C2454.64,-283.85 2444.98,-281.7 2436,-280 2346.11,-262.97 2240.77,-249.24 2177.01,-241.6"/>
<polygon fill="midnightblue" stroke="midnightblue" points="2177.1,-238.09 2166.75,-240.38 2176.27,-245.04 2177.1,-238.09"/>
</g>
<!-- Node12 -->
<g id="node7" class="node">
<title>Node12</title>
<g id="a_node7"><a xlink:href="SmallVector_8h.html" target="_top" xlink:title="llvm/ADT/SmallVector.h">
<polygon fill="none" stroke="red" points="1780,-112.5 1780,-131.5 1902,-131.5 1902,-112.5 1780,-112.5"/>
<text text-anchor="middle" x="1841" y="-119.5" font-family="Helvetica,sans-Serif" font-size="10.00">llvm/ADT/SmallVector.h</text>
</a>
</g>
</g>
<!-- Node11&#45;&gt;Node12 -->
<g id="edge6" class="edge">
<title>Node11&#45;&gt;Node12</title>
<path fill="none" stroke="midnightblue" d="M2097.19,-224.37C2048.16,-204.97 1929.12,-157.87 1872.26,-135.37"/>
<polygon fill="midnightblue" stroke="midnightblue" points="1873.3,-132.02 1862.71,-131.59 1870.72,-138.53 1873.3,-132.02"/>
</g>
<!-- Node32 -->
<g id="node13" class="node">
<title>Node32</title>
<g id="a_node13"><a xlink:href="Support_2ErrorHandling_8h.html" target="_top" xlink:title="llvm/Support/ErrorHandling.h">
<polygon fill="none" stroke="black" points="2650,-56.5 2650,-75.5 2792,-75.5 2792,-56.5 2650,-56.5"/>
<text text-anchor="middle" x="2721" y="-63.5" font-family="Helvetica,sans-Serif" font-size="10.00">llvm/Support/ErrorHandling.h</text>
</a>
</g>
</g>
<!-- Node11&#45;&gt;Node32 -->
<g id="edge50" class="edge">
<title>Node11&#45;&gt;Node32</title>
<path fill="none" stroke="midnightblue" d="M2132.97,-224.4C2157.32,-209.88 2209.59,-180.84 2258,-168 2353.47,-142.68 2623.99,-193.85 2701,-132 2714.64,-121.04 2719.19,-100.98 2720.61,-86.04"/>
<polygon fill="midnightblue" stroke="midnightblue" points="2724.11,-86.02 2721.17,-75.84 2717.12,-85.63 2724.11,-86.02"/>
</g>
<!-- Node33 -->
<g id="node14" class="node">
<title>Node33</title>
<polygon fill="none" stroke="#bfbfbf" points="3022.5,-0.5 3022.5,-19.5 3063.5,-19.5 3063.5,-0.5 3022.5,-0.5"/>
<text text-anchor="middle" x="3043" y="-7.5" font-family="Helvetica,sans-Serif" font-size="10.00">string</text>
</g>
<!-- Node11&#45;&gt;Node33 -->
<g id="edge53" class="edge">
<title>Node11&#45;&gt;Node33</title>
<path fill="none" stroke="midnightblue" d="M2166.62,-225.97C2317.47,-203.7 2775.72,-135.88 2791,-132 2861.58,-114.05 2879.98,-108.8 2945,-76 2973.95,-61.39 3004.71,-39.89 3023.88,-25.67"/>
<polygon fill="midnightblue" stroke="midnightblue" points="3026.17,-28.32 3032.06,-19.52 3021.97,-22.73 3026.17,-28.32"/>
</g>
<!-- Node27 -->
<g id="node16" class="node">
<title>Node27</title>
<polygon fill="none" stroke="#bfbfbf" points="2038.5,-56.5 2038.5,-75.5 2087.5,-75.5 2087.5,-56.5 2038.5,-56.5"/>
<text text-anchor="middle" x="2063" y="-63.5" font-family="Helvetica,sans-Serif" font-size="10.00">cassert</text>
</g>
<!-- Node11&#45;&gt;Node27 -->
<g id="edge51" class="edge">
<title>Node11&#45;&gt;Node27</title>
<path fill="none" stroke="midnightblue" d="M2123.33,-224.43C2133.14,-203.67 2154.71,-149.65 2134,-112 2125.98,-97.42 2111.02,-86.9 2096.89,-79.72"/>
<polygon fill="midnightblue" stroke="midnightblue" points="2098.35,-76.54 2087.81,-75.47 2095.38,-82.88 2098.35,-76.54"/>
</g>
<!-- Node11&#45;&gt;Node39 -->
<g id="edge25" class="edge">
<title>Node11&#45;&gt;Node39</title>
<path fill="none" stroke="midnightblue" d="M2071.32,-229.39C1946.95,-219.99 1612.49,-194.69 1470.35,-183.94"/>
<polygon fill="midnightblue" stroke="midnightblue" points="1470.28,-180.43 1460.05,-183.16 1469.76,-187.41 1470.28,-180.43"/>
</g>
<!-- Node45 -->
<g id="node25" class="node">
<title>Node45</title>
<polygon fill="none" stroke="#bfbfbf" points="387,-56.5 387,-75.5 433,-75.5 433,-56.5 387,-56.5"/>
<text text-anchor="middle" x="410" y="-63.5" font-family="Helvetica,sans-Serif" font-size="10.00">cstdint</text>
</g>
<!-- Node11&#45;&gt;Node45 -->
<g id="edge52" class="edge">
<title>Node11&#45;&gt;Node45</title>
<path fill="none" stroke="midnightblue" d="M2071.39,-229.65C2044.31,-227.82 2009.77,-225.6 1979,-224 1407.2,-194.24 1256.75,-237.59 694,-132 602.42,-114.82 495.58,-88.71 442.86,-75.41"/>
<polygon fill="midnightblue" stroke="midnightblue" points="443.62,-71.99 433.06,-72.93 441.9,-78.78 443.62,-71.99"/>
</g>
<!-- Node13 -->
<g id="node8" class="node">
<title>Node13</title>
<g id="a_node8"><a xlink:href="iterator__range_8h.html" target="_top" xlink:title="This provides a very simple, boring adaptor for a begin and end iterator into a range type...">
<polygon fill="none" stroke="red" points="634,-56.5 634,-75.5 762,-75.5 762,-56.5 634,-56.5"/>
<text text-anchor="middle" x="698" y="-63.5" font-family="Helvetica,sans-Serif" font-size="10.00">llvm/ADT/iterator_range.h</text>
</a>
</g>
</g>
<!-- Node12&#45;&gt;Node13 -->
<g id="edge7" class="edge">
<title>Node12&#45;&gt;Node13</title>
<path fill="none" stroke="midnightblue" d="M1779.95,-112.82C1776.93,-112.52 1773.93,-112.24 1771,-112 1331.11,-75.88 1216.07,-110.71 772.27,-76.02"/>
<polygon fill="midnightblue" stroke="midnightblue" points="772.31,-72.51 762.06,-75.22 771.76,-79.49 772.31,-72.51"/>
</g>
<!-- Node12&#45;&gt;Node15 -->
<g id="edge24" class="edge">
<title>Node12&#45;&gt;Node15</title>
<path fill="none" stroke="midnightblue" d="M1810.73,-112.4C1759.27,-98.15 1651.25,-69.85 1558,-56 1320.95,-20.79 1031.07,-13.04 938.16,-11.41"/>
<polygon fill="midnightblue" stroke="midnightblue" points="938.13,-7.91 928.07,-11.25 938.01,-14.91 938.13,-7.91"/>
</g>
<!-- Node16 -->
<g id="node10" class="node">
<title>Node16</title>
<g id="a_node10"><a xlink:href="AlignOf_8h.html" target="_top" xlink:title="llvm/Support/AlignOf.h">
<polygon fill="none" stroke="black" points="2300.5,-56.5 2300.5,-75.5 2415.5,-75.5 2415.5,-56.5 2300.5,-56.5"/>
<text text-anchor="middle" x="2358" y="-63.5" font-family="Helvetica,sans-Serif" font-size="10.00">llvm/Support/AlignOf.h</text>
</a>
</g>
</g>
<!-- Node12&#45;&gt;Node16 -->
<g id="edge9" class="edge">
<title>Node12&#45;&gt;Node16</title>
<path fill="none" stroke="midnightblue" d="M1902.08,-114.62C1999.34,-104.46 2188.75,-84.68 2290.12,-74.09"/>
<polygon fill="midnightblue" stroke="midnightblue" points="2290.66,-77.55 2300.24,-73.03 2289.93,-70.59 2290.66,-77.55"/>
</g>
<!-- Node17 -->
<g id="node11" class="node">
<title>Node17</title>
<g id="a_node11"><a xlink:href="Compiler_8h.html" target="_top" xlink:title="llvm/Support/Compiler.h">
<polygon fill="none" stroke="red" points="2421,-0.5 2421,-19.5 2543,-19.5 2543,-0.5 2421,-0.5"/>
<text text-anchor="middle" x="2482" y="-7.5" font-family="Helvetica,sans-Serif" font-size="10.00">llvm/Support/Compiler.h</text>
</a>
</g>
</g>
<!-- Node12&#45;&gt;Node17 -->
<g id="edge12" class="edge">
<title>Node12&#45;&gt;Node17</title>
<path fill="none" stroke="midnightblue" d="M1860.97,-112.4C1894.98,-98.15 1966.61,-69.86 2030,-56 2162.6,-27.01 2321.21,-16.66 2410.92,-12.99"/>
<polygon fill="midnightblue" stroke="midnightblue" points="2411.13,-16.49 2420.98,-12.6 2410.85,-9.49 2411.13,-16.49"/>
</g>
<!-- Node20 -->
<g id="node12" class="node">
<title>Node20</title>
<polygon fill="none" stroke="#bfbfbf" points="1543.5,-0.5 1543.5,-19.5 1592.5,-19.5 1592.5,-0.5 1543.5,-0.5"/>
<text text-anchor="middle" x="1568" y="-7.5" font-family="Helvetica,sans-Serif" font-size="10.00">cstddef</text>
</g>
<!-- Node12&#45;&gt;Node20 -->
<g id="edge18" class="edge">
<title>Node12&#45;&gt;Node20</title>
<path fill="none" stroke="midnightblue" d="M1819.58,-112.37C1771.44,-92.97 1654.54,-45.87 1598.69,-23.37"/>
<polygon fill="midnightblue" stroke="midnightblue" points="1599.91,-20.08 1589.32,-19.59 1597.29,-26.58 1599.91,-20.08"/>
</g>
<!-- Node12&#45;&gt;Node32 -->
<g id="edge13" class="edge">
<title>Node12&#45;&gt;Node32</title>
<path fill="none" stroke="midnightblue" d="M1902.18,-117.25C2057.15,-107.74 2465.18,-82.7 2639.82,-71.98"/>
<polygon fill="midnightblue" stroke="midnightblue" points="2640.2,-75.46 2649.97,-71.36 2639.77,-68.48 2640.2,-75.46"/>
</g>
<!-- Node12&#45;&gt;Node26 -->
<g id="edge16" class="edge">
<title>Node12&#45;&gt;Node26</title>
<path fill="none" stroke="midnightblue" d="M1779.93,-113.07C1776.91,-112.7 1773.92,-112.34 1771,-112 1769.8,-111.86 1488.4,-82.07 1384.21,-71.04"/>
<polygon fill="midnightblue" stroke="midnightblue" points="1384.44,-67.55 1374.12,-69.98 1383.7,-74.51 1384.44,-67.55"/>
</g>
<!-- Node12&#45;&gt;Node27 -->
<g id="edge17" class="edge">
<title>Node12&#45;&gt;Node27</title>
<path fill="none" stroke="midnightblue" d="M1876.18,-112.44C1917.88,-102.3 1986.93,-85.5 2028.39,-75.42"/>
<polygon fill="midnightblue" stroke="midnightblue" points="2029.41,-78.77 2038.3,-73.01 2027.75,-71.97 2029.41,-78.77"/>
</g>
<!-- Node34 -->
<g id="node17" class="node">
<title>Node34</title>
<polygon fill="none" stroke="#bfbfbf" points="1044.5,-56.5 1044.5,-75.5 1089.5,-75.5 1089.5,-56.5 1044.5,-56.5"/>
<text text-anchor="middle" x="1067" y="-63.5" font-family="Helvetica,sans-Serif" font-size="10.00">cstdlib</text>
</g>
<!-- Node12&#45;&gt;Node34 -->
<g id="edge19" class="edge">
<title>Node12&#45;&gt;Node34</title>
<path fill="none" stroke="midnightblue" d="M1779.94,-112.92C1776.92,-112.59 1773.93,-112.28 1771,-112 1737.21,-108.75 1233.76,-77.37 1099.63,-69.03"/>
<polygon fill="midnightblue" stroke="midnightblue" points="1099.76,-65.53 1089.56,-68.4 1099.32,-72.51 1099.76,-65.53"/>
</g>
<!-- Node29 -->
<g id="node18" class="node">
<title>Node29</title>
<polygon fill="none" stroke="#bfbfbf" points="2811,-56.5 2811,-75.5 2857,-75.5 2857,-56.5 2811,-56.5"/>
<text text-anchor="middle" x="2834" y="-63.5" font-family="Helvetica,sans-Serif" font-size="10.00">cstring</text>
</g>
<!-- Node12&#45;&gt;Node29 -->
<g id="edge20" class="edge">
<title>Node12&#45;&gt;Node29</title>
<path fill="none" stroke="midnightblue" d="M1902.14,-119.89C2081.93,-116.34 2607.79,-103.96 2800.67,-75.57"/>
<polygon fill="midnightblue" stroke="midnightblue" points="2801.35,-79.01 2810.7,-74.03 2800.29,-72.09 2801.35,-79.01"/>
</g>
<!-- Node12&#45;&gt;Node37 -->
<g id="edge21" class="edge">
<title>Node12&#45;&gt;Node37</title>
<path fill="none" stroke="midnightblue" d="M1779.95,-112.78C1776.93,-112.49 1773.93,-112.23 1771,-112 1153.51,-64.45 997.01,-95.37 378,-76 303.84,-73.68 217.08,-70.35 169.26,-68.46"/>
<polygon fill="midnightblue" stroke="midnightblue" points="169.23,-64.95 159.1,-68.05 168.96,-71.95 169.23,-64.95"/>
</g>
<!-- Node38 -->
<g id="node20" class="node">
<title>Node38</title>
<polygon fill="none" stroke="#bfbfbf" points="2170.5,-56.5 2170.5,-75.5 2205.5,-75.5 2205.5,-56.5 2170.5,-56.5"/>
<text text-anchor="middle" x="2188" y="-63.5" font-family="Helvetica,sans-Serif" font-size="10.00">new</text>
</g>
<!-- Node12&#45;&gt;Node38 -->
<g id="edge22" class="edge">
<title>Node12&#45;&gt;Node38</title>
<path fill="none" stroke="midnightblue" d="M1895.98,-112.44C1971.03,-100.77 2102.74,-80.27 2160.04,-71.35"/>
<polygon fill="midnightblue" stroke="midnightblue" points="2160.82,-74.77 2170.16,-69.78 2159.74,-67.86 2160.82,-74.77"/>
</g>
<!-- Node24 -->
<g id="node21" class="node">
<title>Node24</title>
<polygon fill="none" stroke="#bfbfbf" points="1440,-56.5 1440,-75.5 1502,-75.5 1502,-56.5 1440,-56.5"/>
<text text-anchor="middle" x="1471" y="-63.5" font-family="Helvetica,sans-Serif" font-size="10.00">type_traits</text>
</g>
<!-- Node12&#45;&gt;Node24 -->
<g id="edge23" class="edge">
<title>Node12&#45;&gt;Node24</title>
<path fill="none" stroke="midnightblue" d="M1782.37,-112.44C1706.94,-101.43 1577.81,-82.59 1512.06,-72.99"/>
<polygon fill="midnightblue" stroke="midnightblue" points="1512.48,-69.52 1502.08,-71.54 1511.47,-76.44 1512.48,-69.52"/>
</g>
<!-- Node13&#45;&gt;Node15 -->
<g id="edge8" class="edge">
<title>Node13&#45;&gt;Node15</title>
<path fill="none" stroke="midnightblue" d="M731.28,-56.44C771.55,-46.09 838.8,-28.79 877.69,-18.79"/>
<polygon fill="midnightblue" stroke="midnightblue" points="879.05,-22.06 887.87,-16.18 877.31,-15.28 879.05,-22.06"/>
</g>
<!-- Node16&#45;&gt;Node17 -->
<g id="edge10" class="edge">
<title>Node16&#45;&gt;Node17</title>
<path fill="none" stroke="midnightblue" d="M2377.65,-56.44C2397.96,-47.6 2429.9,-33.69 2453.1,-23.59"/>
<polygon fill="midnightblue" stroke="midnightblue" points="2454.67,-26.72 2462.44,-19.52 2451.88,-20.3 2454.67,-26.72"/>
</g>
<!-- Node16&#45;&gt;Node20 -->
<g id="edge11" class="edge">
<title>Node16&#45;&gt;Node20</title>
<path fill="none" stroke="midnightblue" d="M2300.27,-57.46C2295.44,-56.93 2290.64,-56.44 2286,-56 2023.88,-31.43 1706.62,-16.81 1602.74,-12.42"/>
<polygon fill="midnightblue" stroke="midnightblue" points="1602.67,-8.91 1592.53,-11.99 1602.37,-15.9 1602.67,-8.91"/>
</g>
<!-- Node32&#45;&gt;Node17 -->
<g id="edge14" class="edge">
<title>Node32&#45;&gt;Node17</title>
<path fill="none" stroke="midnightblue" d="M2683.13,-56.44C2641.52,-47.04 2574.63,-31.93 2529.53,-21.74"/>
<polygon fill="midnightblue" stroke="midnightblue" points="2530.22,-18.31 2519.69,-19.52 2528.68,-25.13 2530.22,-18.31"/>
</g>
<!-- Node32&#45;&gt;Node33 -->
<g id="edge15" class="edge">
<title>Node32&#45;&gt;Node33</title>
<path fill="none" stroke="midnightblue" d="M2772.02,-56.44C2839.66,-45.1 2956.91,-25.44 3012.31,-16.15"/>
<polygon fill="midnightblue" stroke="midnightblue" points="3012.94,-19.59 3022.22,-14.48 3011.78,-12.69 3012.94,-19.59"/>
</g>
<!-- Node39&#45;&gt;Node13 -->
<g id="edge40" class="edge">
<title>Node39&#45;&gt;Node13</title>
<path fill="none" stroke="midnightblue" d="M1349.96,-171.96C1238.41,-161.67 993.04,-138.67 955,-132 876.12,-118.16 785.73,-93.1 735.92,-78.47"/>
<polygon fill="midnightblue" stroke="midnightblue" points="736.81,-75.08 726.23,-75.6 734.82,-81.8 736.81,-75.08"/>
</g>
<!-- Node39&#45;&gt;Node15 -->
<g id="edge49" class="edge">
<title>Node39&#45;&gt;Node15</title>
<path fill="none" stroke="midnightblue" d="M1396.82,-168.37C1372.6,-143.03 1301.07,-69.75 1271,-56 1211.83,-28.94 1014.79,-16.37 938.52,-12.43"/>
<polygon fill="midnightblue" stroke="midnightblue" points="938.34,-8.91 928.17,-11.91 937.99,-15.91 938.34,-8.91"/>
</g>
<!-- Node39&#45;&gt;Node17 -->
<g id="edge41" class="edge">
<title>Node39&#45;&gt;Node17</title>
<path fill="none" stroke="midnightblue" d="M1460.03,-176.82C1676.57,-175.84 2459.82,-169.7 2496,-132 2522.5,-104.39 2504.53,-55.34 2491.73,-28.97"/>
<polygon fill="midnightblue" stroke="midnightblue" points="2494.69,-27.08 2487.02,-19.77 2488.46,-30.27 2494.69,-27.08"/>
</g>
<!-- Node39&#45;&gt;Node20 -->
<g id="edge44" class="edge">
<title>Node39&#45;&gt;Node20</title>
<path fill="none" stroke="midnightblue" d="M1404.18,-168.41C1402.59,-146.64 1401.54,-88.75 1431,-56 1457.02,-27.07 1501.95,-16.68 1533.23,-12.98"/>
<polygon fill="midnightblue" stroke="midnightblue" points="1533.67,-16.46 1543.27,-11.97 1532.97,-9.49 1533.67,-16.46"/>
</g>
<!-- Node39&#45;&gt;Node33 -->
<g id="edge47" class="edge">
<title>Node39&#45;&gt;Node33</title>
<path fill="none" stroke="midnightblue" d="M1460.36,-176.27C1696.66,-172.98 2614.53,-158.61 2741,-132 2849.01,-109.28 2968.08,-50.74 3018.4,-24.31"/>
<polygon fill="midnightblue" stroke="midnightblue" points="3020.06,-27.39 3027.26,-19.62 3016.78,-21.21 3020.06,-27.39"/>
</g>
<!-- Node39&#45;&gt;Node26 -->
<g id="edge42" class="edge">
<title>Node39&#45;&gt;Node26</title>
<path fill="none" stroke="midnightblue" d="M1400.37,-168.37C1390.72,-150.38 1368.29,-108.55 1355.45,-84.63"/>
<polygon fill="midnightblue" stroke="midnightblue" points="1358.42,-82.75 1350.61,-75.59 1352.25,-86.06 1358.42,-82.75"/>
</g>
<!-- Node39&#45;&gt;Node27 -->
<g id="edge43" class="edge">
<title>Node39&#45;&gt;Node27</title>
<path fill="none" stroke="midnightblue" d="M1460.35,-174.54C1595.41,-168.28 1934.3,-150.89 1982,-132 2008.84,-121.37 2033.79,-98.62 2048.71,-83.06"/>
<polygon fill="midnightblue" stroke="midnightblue" points="2051.32,-85.39 2055.56,-75.68 2046.19,-80.63 2051.32,-85.39"/>
</g>
<!-- Node39&#45;&gt;Node29 -->
<g id="edge45" class="edge">
<title>Node39&#45;&gt;Node29</title>
<path fill="none" stroke="midnightblue" d="M1460.31,-176.44C1692.19,-173.91 2579.63,-162.3 2701,-132 2742.97,-121.52 2787.25,-96.72 2812.66,-80.96"/>
<polygon fill="midnightblue" stroke="midnightblue" points="2814.54,-83.91 2821.12,-75.61 2810.8,-77.99 2814.54,-83.91"/>
</g>
<!-- Node39&#45;&gt;Node24 -->
<g id="edge48" class="edge">
<title>Node39&#45;&gt;Node24</title>
<path fill="none" stroke="midnightblue" d="M1410.18,-168.37C1421.02,-150.3 1446.29,-108.18 1460.62,-84.31"/>
<polygon fill="midnightblue" stroke="midnightblue" points="1463.7,-85.97 1465.85,-75.59 1457.7,-82.37 1463.7,-85.97"/>
</g>
<!-- Node40 -->
<g id="node23" class="node">
<title>Node40</title>
<g id="a_node23"><a xlink:href="STLExtras_8h.html" target="_top" xlink:title="llvm/ADT/STLExtras.h">
<polygon fill="none" stroke="red" points="964,-112.5 964,-131.5 1080,-131.5 1080,-112.5 964,-112.5"/>
<text text-anchor="middle" x="1022" y="-119.5" font-family="Helvetica,sans-Serif" font-size="10.00">llvm/ADT/STLExtras.h</text>
</a>
</g>
</g>
<!-- Node39&#45;&gt;Node40 -->
<g id="edge26" class="edge">
<title>Node39&#45;&gt;Node40</title>
<path fill="none" stroke="midnightblue" d="M1349.72,-169.21C1281.16,-159.54 1164.32,-143.07 1090.25,-132.62"/>
<polygon fill="midnightblue" stroke="midnightblue" points="1090.48,-129.12 1080.09,-131.19 1089.5,-136.05 1090.48,-129.12"/>
</g>
<!-- Node30 -->
<g id="node27" class="node">
<title>Node30</title>
<polygon fill="none" stroke="#bfbfbf" points="1222,-56.5 1222,-75.5 1262,-75.5 1262,-56.5 1222,-56.5"/>
<text text-anchor="middle" x="1242" y="-63.5" font-family="Helvetica,sans-Serif" font-size="10.00">limits</text>
</g>
<!-- Node39&#45;&gt;Node30 -->
<g id="edge46" class="edge">
<title>Node39&#45;&gt;Node30</title>
<path fill="none" stroke="midnightblue" d="M1392.21,-168.37C1364.24,-149.49 1297.4,-104.38 1263.1,-81.24"/>
<polygon fill="midnightblue" stroke="midnightblue" points="1264.98,-78.28 1254.73,-75.59 1261.06,-84.09 1264.98,-78.28"/>
</g>
<!-- Node40&#45;&gt;Node13 -->
<g id="edge27" class="edge">
<title>Node40&#45;&gt;Node13</title>
<path fill="none" stroke="midnightblue" d="M970.66,-112.44C913.19,-102.87 820.13,-87.36 759,-77.17"/>
<polygon fill="midnightblue" stroke="midnightblue" points="759.54,-73.71 749.1,-75.52 758.39,-80.61 759.54,-73.71"/>
</g>
<!-- Node40&#45;&gt;Node15 -->
<g id="edge39" class="edge">
<title>Node40&#45;&gt;Node15</title>
<path fill="none" stroke="midnightblue" d="M1046.96,-112.42C1076.02,-101.07 1117.79,-79.73 1099,-56 1079.29,-31.11 987.02,-18.61 938.3,-13.65"/>
<polygon fill="midnightblue" stroke="midnightblue" points="938.34,-10.14 928.05,-12.65 937.66,-17.1 938.34,-10.14"/>
</g>
<!-- Node40&#45;&gt;Node20 -->
<g id="edge32" class="edge">
<title>Node40&#45;&gt;Node20</title>
<path fill="none" stroke="midnightblue" d="M1038.54,-112.4C1066.74,-98.16 1126.3,-69.88 1180,-56 1307.14,-23.15 1463.93,-14.25 1532.78,-11.86"/>
<polygon fill="midnightblue" stroke="midnightblue" points="1533.17,-15.35 1543.06,-11.53 1532.95,-8.35 1533.17,-15.35"/>
</g>
<!-- Node40&#45;&gt;Node32 -->
<g id="edge29" class="edge">
<title>Node40&#45;&gt;Node32</title>
<path fill="none" stroke="midnightblue" d="M1080.48,-119.14C1334.79,-111.06 2344.87,-78.95 2639.77,-69.58"/>
<polygon fill="midnightblue" stroke="midnightblue" points="2640.07,-73.07 2649.95,-69.26 2639.85,-66.08 2640.07,-73.07"/>
</g>
<!-- Node40&#45;&gt;Node26 -->
<g id="edge30" class="edge">
<title>Node40&#45;&gt;Node26</title>
<path fill="none" stroke="midnightblue" d="M1073.34,-112.44C1138.65,-101.56 1249.93,-83.01 1308.07,-73.32"/>
<polygon fill="midnightblue" stroke="midnightblue" points="1308.66,-76.77 1317.95,-71.67 1307.51,-69.87 1308.66,-76.77"/>
</g>
<!-- Node40&#45;&gt;Node27 -->
<g id="edge31" class="edge">
<title>Node40&#45;&gt;Node27</title>
<path fill="none" stroke="midnightblue" d="M1080.2,-117.98C1271.29,-108.07 1875.97,-76.7 2028.03,-68.81"/>
<polygon fill="midnightblue" stroke="midnightblue" points="2028.38,-72.3 2038.19,-68.29 2028.02,-65.31 2028.38,-72.3"/>
</g>
<!-- Node40&#45;&gt;Node34 -->
<g id="edge34" class="edge">
<title>Node40&#45;&gt;Node34</title>
<path fill="none" stroke="midnightblue" d="M1029.43,-112.08C1035.85,-104.38 1045.31,-93.03 1053.12,-83.65"/>
<polygon fill="midnightblue" stroke="midnightblue" points="1055.99,-85.67 1059.71,-75.75 1050.62,-81.19 1055.99,-85.67"/>
</g>
<!-- Node40&#45;&gt;Node37 -->
<g id="edge37" class="edge">
<title>Node40&#45;&gt;Node37</title>
<path fill="none" stroke="midnightblue" d="M963.67,-117.46C794.44,-107.18 306.66,-77.55 169.36,-69.21"/>
<polygon fill="midnightblue" stroke="midnightblue" points="169.54,-65.71 159.35,-68.6 169.12,-72.7 169.54,-65.71"/>
</g>
<!-- Node40&#45;&gt;Node24 -->
<g id="edge38" class="edge">
<title>Node40&#45;&gt;Node24</title>
<path fill="none" stroke="midnightblue" d="M1080.24,-114C1172.32,-102.92 1349.31,-81.64 1429.59,-71.98"/>
<polygon fill="midnightblue" stroke="midnightblue" points="1430.29,-75.42 1439.8,-70.75 1429.45,-68.47 1430.29,-75.42"/>
</g>
<!-- Node44 -->
<g id="node24" class="node">
<title>Node44</title>
<polygon fill="none" stroke="#bfbfbf" points="780,-56.5 780,-75.5 910,-75.5 910,-56.5 780,-56.5"/>
<text text-anchor="middle" x="845" y="-63.5" font-family="Helvetica,sans-Serif" font-size="10.00">llvm/Config/abi&#45;breaking.h</text>
</g>
<!-- Node40&#45;&gt;Node44 -->
<g id="edge28" class="edge">
<title>Node40&#45;&gt;Node44</title>
<path fill="none" stroke="midnightblue" d="M993.95,-112.44C963.92,-103.28 916.09,-88.69 882.76,-78.52"/>
<polygon fill="midnightblue" stroke="midnightblue" points="883.5,-75.09 872.91,-75.52 881.46,-81.78 883.5,-75.09"/>
</g>
<!-- Node40&#45;&gt;Node45 -->
<g id="edge33" class="edge">
<title>Node40&#45;&gt;Node45</title>
<path fill="none" stroke="midnightblue" d="M963.87,-115.87C837.78,-104.75 542.5,-78.69 443.23,-69.93"/>
<polygon fill="midnightblue" stroke="midnightblue" points="443.44,-66.44 433.18,-69.04 442.83,-73.41 443.44,-66.44"/>
</g>
<!-- Node46 -->
<g id="node26" class="node">
<title>Node46</title>
<polygon fill="none" stroke="#bfbfbf" points="928.5,-56.5 928.5,-75.5 987.5,-75.5 987.5,-56.5 928.5,-56.5"/>
<text text-anchor="middle" x="958" y="-63.5" font-family="Helvetica,sans-Serif" font-size="10.00">functional</text>
</g>
<!-- Node40&#45;&gt;Node46 -->
<g id="edge35" class="edge">
<title>Node40&#45;&gt;Node46</title>
<path fill="none" stroke="midnightblue" d="M1011.72,-112.32C1002.16,-104.26 987.72,-92.08 976.22,-82.37"/>
<polygon fill="midnightblue" stroke="midnightblue" points="978.37,-79.61 968.47,-75.83 973.86,-84.96 978.37,-79.61"/>
</g>
<!-- Node40&#45;&gt;Node30 -->
<g id="edge36" class="edge">
<title>Node40&#45;&gt;Node30</title>
<path fill="none" stroke="midnightblue" d="M1056.86,-112.44C1099.66,-101.94 1171.53,-84.3 1211.99,-74.37"/>
<polygon fill="midnightblue" stroke="midnightblue" points="1212.92,-77.74 1221.8,-71.96 1211.25,-70.94 1212.92,-77.74"/>
</g>
<!-- Node48&#45;&gt;Node11 -->
<g id="edge55" class="edge">
<title>Node48&#45;&gt;Node11</title>
<path fill="none" stroke="midnightblue" d="M2371.32,-419.94C2330.09,-389.72 2191.14,-287.87 2138.99,-249.65"/>
<polygon fill="midnightblue" stroke="midnightblue" points="2140.98,-246.77 2130.85,-243.68 2136.85,-252.42 2140.98,-246.77"/>
</g>
<!-- Node48&#45;&gt;Node49 -->
<g id="edge56" class="edge">
<title>Node48&#45;&gt;Node49</title>
<path fill="none" stroke="midnightblue" d="M2333.86,-425.03C2178.41,-414.05 1697.48,-380.07 1525.2,-367.89"/>
<polygon fill="midnightblue" stroke="midnightblue" points="1525.25,-364.39 1515.03,-367.18 1524.76,-371.37 1525.25,-364.39"/>
</g>
<!-- Node59 -->
<g id="node37" class="node">
<title>Node59</title>
<polygon fill="none" stroke="#bfbfbf" points="2786,-168.5 2786,-187.5 2860,-187.5 2860,-168.5 2786,-168.5"/>
<text text-anchor="middle" x="2823" y="-175.5" font-family="Helvetica,sans-Serif" font-size="10.00">system_error</text>
</g>
<!-- Node48&#45;&gt;Node59 -->
<g id="edge127" class="edge">
<title>Node48&#45;&gt;Node59</title>
<path fill="none" stroke="midnightblue" d="M2432.18,-424.26C2527.14,-415.74 2728.72,-395.78 2755,-378 2815.25,-337.23 2822.91,-239.36 2823.34,-197.98"/>
<polygon fill="midnightblue" stroke="midnightblue" points="2826.84,-197.89 2823.31,-187.9 2819.84,-197.91 2826.84,-197.89"/>
</g>
<!-- Node49&#45;&gt;Node11 -->
<g id="edge87" class="edge">
<title>Node49&#45;&gt;Node11</title>
<path fill="none" stroke="midnightblue" d="M1515.27,-359.43C1598.52,-355.27 1765.94,-343.33 1904,-311 1943.56,-301.74 1951.71,-293.58 1990,-280 2021.97,-268.66 2058.48,-255.95 2084.48,-246.93"/>
<polygon fill="midnightblue" stroke="midnightblue" points="2085.94,-250.13 2094.24,-243.55 2083.65,-243.52 2085.94,-250.13"/>
</g>
<!-- Node49&#45;&gt;Node12 -->
<g id="edge59" class="edge">
<title>Node49&#45;&gt;Node12</title>
<path fill="none" stroke="midnightblue" d="M1515.25,-360.43C1598.28,-357.64 1755.05,-347.55 1795,-311 1843.53,-266.61 1844.74,-180.18 1842.62,-141.96"/>
<polygon fill="midnightblue" stroke="midnightblue" points="1846.1,-141.48 1841.9,-131.75 1839.11,-141.97 1846.1,-141.48"/>
</g>
<!-- Node49&#45;&gt;Node15 -->
<g id="edge125" class="edge">
<title>Node49&#45;&gt;Node15</title>
<path fill="none" stroke="midnightblue" d="M1410.77,-362.13C1176.09,-363.68 223.62,-355.98 62,-132 41.26,-103.26 81.78,-65.45 98,-56 166.35,-16.18 738.58,-11.59 877.64,-11.07"/>
<polygon fill="midnightblue" stroke="midnightblue" points="877.98,-14.57 887.96,-11.03 877.95,-7.57 877.98,-14.57"/>
</g>
<!-- Node49&#45;&gt;Node16 -->
<g id="edge89" class="edge">
<title>Node49&#45;&gt;Node16</title>
<path fill="none" stroke="midnightblue" d="M1515.24,-359.65C1618.29,-355.41 1854.79,-342.82 2051,-311 2109.21,-301.56 2121.92,-290.15 2180,-280 2251.58,-267.49 2456.53,-298.14 2505,-244 2539.97,-204.94 2576.81,-244.81 2441,-112 2426.7,-98.01 2407.17,-87.13 2390.64,-79.58"/>
<polygon fill="midnightblue" stroke="midnightblue" points="2391.89,-76.31 2381.33,-75.52 2389.09,-82.72 2391.89,-76.31"/>
</g>
<!-- Node49&#45;&gt;Node17 -->
<g id="edge90" class="edge">
<title>Node49&#45;&gt;Node17</title>
<path fill="none" stroke="midnightblue" d="M1515.47,-359.54C1651.39,-354.14 2012.43,-337.66 2129,-311 2165.77,-302.59 2171.38,-289.05 2208,-280 2348.65,-245.24 2391.42,-279.05 2532,-244 2616.1,-223.03 2846.45,-154.12 2884,-76 2887.85,-67.99 2889.93,-62.63 2884,-56 2862.4,-31.85 2663.03,-19.13 2553.42,-13.92"/>
<polygon fill="midnightblue" stroke="midnightblue" points="2553.26,-10.4 2543.1,-13.43 2552.93,-17.4 2553.26,-10.4"/>
</g>
<!-- Node49&#45;&gt;Node32 -->
<g id="edge92" class="edge">
<title>Node49&#45;&gt;Node32</title>
<path fill="none" stroke="midnightblue" d="M1515.04,-362.04C1662.68,-362.94 2081.62,-360.89 2208,-311 2228.27,-303 2225.97,-288.58 2246,-280 2363.76,-229.55 2410.8,-285.52 2532,-244 2624.37,-212.35 2672.66,-216.84 2721,-132 2728.94,-118.06 2728.06,-99.55 2725.71,-85.85"/>
<polygon fill="midnightblue" stroke="midnightblue" points="2729.05,-84.73 2723.55,-75.68 2722.2,-86.19 2729.05,-84.73"/>
</g>
<!-- Node49&#45;&gt;Node33 -->
<g id="edge122" class="edge">
<title>Node49&#45;&gt;Node33</title>
<path fill="none" stroke="midnightblue" d="M1515.39,-361.24C1647.94,-359.97 2007.14,-352.61 2303,-311 2365.68,-302.18 2379.6,-290.62 2442,-280 2576.12,-257.16 2613.26,-273.85 2746,-244 2898.34,-209.75 2981.24,-253.75 3079,-132 3100.21,-105.58 3097.43,-87.52 3085,-56 3080.49,-44.55 3071.53,-34.29 3063.05,-26.47"/>
<polygon fill="midnightblue" stroke="midnightblue" points="3065.09,-23.61 3055.21,-19.76 3060.53,-28.93 3065.09,-23.61"/>
</g>
<!-- Node49&#45;&gt;Node26 -->
<g id="edge115" class="edge">
<title>Node49&#45;&gt;Node26</title>
<path fill="none" stroke="midnightblue" d="M1410.88,-354.13C1280.6,-335.17 949.04,-283.44 919,-244 913.61,-236.93 913.91,-231.29 919,-224 924.97,-215.45 1211.84,-114.11 1311.96,-78.93"/>
<polygon fill="midnightblue" stroke="midnightblue" points="1313.32,-82.17 1321.59,-75.55 1311,-75.56 1313.32,-82.17"/>
</g>
<!-- Node49&#45;&gt;Node27 -->
<g id="edge116" class="edge">
<title>Node49&#45;&gt;Node27</title>
<path fill="none" stroke="midnightblue" d="M1515.29,-358.26C1608.9,-351.91 1801.08,-336.2 1863,-311 1884.16,-302.39 1884.49,-291.89 1904,-280 1935.57,-260.75 1949.67,-266.52 1979,-244 2031,-204.07 2052.25,-193.49 2075,-132 2080.65,-116.71 2076.34,-98.38 2071.38,-85.09"/>
<polygon fill="midnightblue" stroke="midnightblue" points="2074.53,-83.54 2067.44,-75.66 2068.07,-86.24 2074.53,-83.54"/>
</g>
<!-- Node49&#45;&gt;Node34 -->
<g id="edge118" class="edge">
<title>Node49&#45;&gt;Node34</title>
<path fill="none" stroke="midnightblue" d="M1410.96,-356.38C1381.61,-353.53 1344.27,-349.97 1311,-347 1214.61,-338.4 959.66,-361.32 877,-311 821.95,-277.49 812.87,-218.42 853,-168 899.26,-109.88 986.94,-83.47 1034.44,-72.98"/>
<polygon fill="midnightblue" stroke="midnightblue" points="1035.43,-76.35 1044.5,-70.86 1033.99,-69.5 1035.43,-76.35"/>
</g>
<!-- Node49&#45;&gt;Node37 -->
<g id="edge120" class="edge">
<title>Node49&#45;&gt;Node37</title>
<path fill="none" stroke="midnightblue" d="M1410.74,-359.17C1247.69,-351.74 755.05,-328.14 685,-311 613.29,-293.45 600.53,-273.83 533,-244 393.91,-182.57 227.71,-108.96 161.88,-79.8"/>
<polygon fill="midnightblue" stroke="midnightblue" points="163.12,-76.52 152.56,-75.67 160.28,-82.92 163.12,-76.52"/>
</g>
<!-- Node49&#45;&gt;Node38 -->
<g id="edge121" class="edge">
<title>Node49&#45;&gt;Node38</title>
<path fill="none" stroke="midnightblue" d="M1515.43,-359.29C1633.43,-353.89 1916.65,-338.42 2008,-311 2035.99,-302.6 2038.01,-288.42 2066,-280 2148.08,-255.31 2392.29,-307.37 2450,-244 2513.98,-173.75 2658.92,-354.42 2291,-132 2262.75,-114.92 2230.66,-94.51 2209.91,-81.17"/>
<polygon fill="midnightblue" stroke="midnightblue" points="2211.53,-78.05 2201.23,-75.58 2207.74,-83.94 2211.53,-78.05"/>
</g>
<!-- Node49&#45;&gt;Node24 -->
<g id="edge124" class="edge">
<title>Node49&#45;&gt;Node24</title>
<path fill="none" stroke="midnightblue" d="M1442.2,-352.99C1425.51,-344.91 1403.24,-331.01 1393,-311 1386.72,-298.73 1388.34,-292.96 1393,-280 1410.95,-230.09 1450.64,-237.76 1469,-188 1481.68,-153.63 1478.02,-109.94 1474.39,-85.57"/>
<polygon fill="midnightblue" stroke="midnightblue" points="1477.82,-84.86 1472.73,-75.57 1470.91,-86 1477.82,-84.86"/>
</g>
<!-- Node49&#45;&gt;Node40 -->
<g id="edge58" class="edge">
<title>Node49&#45;&gt;Node40</title>
<path fill="none" stroke="midnightblue" d="M1410.67,-356.24C1293.49,-344.4 1018.67,-316.27 999,-311 927.69,-291.89 887.32,-305.84 847,-244 810.81,-188.49 911.28,-151.36 974.65,-134.11"/>
<polygon fill="midnightblue" stroke="midnightblue" points="975.71,-137.45 984.48,-131.51 973.92,-130.68 975.71,-137.45"/>
</g>
<!-- Node49&#45;&gt;Node44 -->
<g id="edge88" class="edge">
<title>Node49&#45;&gt;Node44</title>
<path fill="none" stroke="midnightblue" d="M1410.98,-356.15C1381.64,-353.23 1344.29,-349.68 1311,-347 1188.91,-337.18 874.98,-355.84 761,-311 740.72,-303.02 741.74,-291.14 723,-280 676.74,-252.5 539.42,-223.53 499,-188 471.47,-163.8 442.66,-139.4 467,-112 510.29,-63.28 687.65,-82.31 769.45,-75.95"/>
<polygon fill="midnightblue" stroke="midnightblue" points="770.02,-79.41 779.63,-74.96 769.34,-72.45 770.02,-79.41"/>
</g>
<!-- Node49&#45;&gt;Node45 -->
<g id="edge117" class="edge">
<title>Node49&#45;&gt;Node45</title>
<path fill="none" stroke="midnightblue" d="M1410.94,-358.82C1247.73,-350.29 754.94,-323.62 723,-311 702.73,-302.99 704.18,-290.36 685,-280 638.25,-254.76 619.63,-265.41 571,-244 559.61,-238.99 482.64,-196.96 474,-188 444.57,-157.45 425.06,-110.68 415.95,-85.16"/>
<polygon fill="midnightblue" stroke="midnightblue" points="419.24,-83.95 412.69,-75.63 412.62,-86.22 419.24,-83.95"/>
</g>
<!-- Node49&#45;&gt;Node46 -->
<g id="edge119" class="edge">
<title>Node49&#45;&gt;Node46</title>
<path fill="none" stroke="midnightblue" d="M1410.97,-356.21C1381.63,-353.31 1344.29,-349.76 1311,-347 1197.33,-337.58 905.04,-353.01 799,-311 778.74,-302.97 779.37,-291.73 761,-280 730.18,-260.31 719.62,-260.54 687,-244 591.96,-195.8 530.01,-223.27 475,-132 425.17,-49.32 797.85,-88.75 918.1,-75.66"/>
<polygon fill="midnightblue" stroke="midnightblue" points="918.82,-79.1 928.28,-74.33 917.91,-72.16 918.82,-79.1"/>
</g>
<!-- Node50 -->
<g id="node30" class="node">
<title>Node50</title>
<g id="a_node30"><a xlink:href="c_2Error_8h.html" target="_top" xlink:title="llvm&#45;c/Error.h">
<polygon fill="none" stroke="red" points="1581.5,-286 1581.5,-305 1656.5,-305 1656.5,-286 1581.5,-286"/>
<text text-anchor="middle" x="1619" y="-293" font-family="Helvetica,sans-Serif" font-size="10.00">llvm&#45;c/Error.h</text>
</a>
</g>
</g>
<!-- Node49&#45;&gt;Node50 -->
<g id="edge57" class="edge">
<title>Node49&#45;&gt;Node50</title>
<path fill="none" stroke="midnightblue" d="M1483.72,-352.87C1510.64,-341.65 1557.86,-321.98 1588.78,-309.09"/>
<polygon fill="midnightblue" stroke="midnightblue" points="1590.31,-312.24 1598.2,-305.17 1587.62,-305.78 1590.31,-312.24"/>
</g>
<!-- Node51 -->
<g id="node31" class="node">
<title>Node51</title>
<g id="a_node31"><a xlink:href="StringExtras_8h.html" target="_top" xlink:title="llvm/ADT/StringExtras.h">
<polygon fill="none" stroke="red" points="1401.5,-286 1401.5,-305 1524.5,-305 1524.5,-286 1401.5,-286"/>
<text text-anchor="middle" x="1463" y="-293" font-family="Helvetica,sans-Serif" font-size="10.00">llvm/ADT/StringExtras.h</text>
</a>
</g>
</g>
<!-- Node49&#45;&gt;Node51 -->
<g id="edge60" class="edge">
<title>Node49&#45;&gt;Node51</title>
<path fill="none" stroke="midnightblue" d="M1463,-352.73C1463,-343.18 1463,-327.62 1463,-315.28"/>
<polygon fill="midnightblue" stroke="midnightblue" points="1466.5,-315.13 1463,-305.13 1459.5,-315.13 1466.5,-315.13"/>
</g>
<!-- Node55 -->
<g id="node34" class="node">
<title>Node55</title>
<polygon fill="none" stroke="#bfbfbf" points="484,-112.5 484,-131.5 528,-131.5 528,-112.5 484,-112.5"/>
<text text-anchor="middle" x="506" y="-119.5" font-family="Helvetica,sans-Serif" font-size="10.00">vector</text>
</g>
<!-- Node49&#45;&gt;Node55 -->
<g id="edge126" class="edge">
<title>Node49&#45;&gt;Node55</title>
<path fill="none" stroke="midnightblue" d="M1410.96,-356.31C1381.62,-353.44 1344.28,-349.88 1311,-347 1207.96,-338.09 944.99,-344.07 847,-311 822.94,-302.88 821,-292.68 799,-280 721.16,-235.13 697.96,-230.86 619,-188 587.67,-171 552.12,-150.31 529.4,-136.91"/>
<polygon fill="midnightblue" stroke="midnightblue" points="530.89,-133.73 520.5,-131.65 527.32,-139.75 530.89,-133.73"/>
</g>
<!-- Node57 -->
<g id="node35" class="node">
<title>Node57</title>
<g id="a_node35"><a xlink:href="Debug_8h.html" target="_top" xlink:title="llvm/Support/Debug.h">
<polygon fill="none" stroke="black" points="1674.5,-286 1674.5,-305 1785.5,-305 1785.5,-286 1674.5,-286"/>
<text text-anchor="middle" x="1730" y="-293" font-family="Helvetica,sans-Serif" font-size="10.00">llvm/Support/Debug.h</text>
</a>
</g>
</g>
<!-- Node49&#45;&gt;Node57 -->
<g id="edge91" class="edge">
<title>Node49&#45;&gt;Node57</title>
<path fill="none" stroke="midnightblue" d="M1498.18,-352.94C1546.2,-341.24 1632.32,-320.28 1684.99,-307.46"/>
<polygon fill="midnightblue" stroke="midnightblue" points="1685.85,-310.85 1694.74,-305.08 1684.2,-304.05 1685.85,-310.85"/>
</g>
<!-- Node58 -->
<g id="node36" class="node">
<title>Node58</title>
<g id="a_node36"><a xlink:href="ErrorOr_8h.html" target="_top" xlink:title="Provides ErrorOr&lt;T&gt; smart pointer. ">
<polygon fill="none" stroke="black" points="1856,-224.5 1856,-243.5 1970,-243.5 1970,-224.5 1856,-224.5"/>
<text text-anchor="middle" x="1913" y="-231.5" font-family="Helvetica,sans-Serif" font-size="10.00">llvm/Support/ErrorOr.h</text>
</a>
</g>
</g>
<!-- Node49&#45;&gt;Node58 -->
<g id="edge93" class="edge">
<title>Node49&#45;&gt;Node58</title>
<path fill="none" stroke="midnightblue" d="M1515.03,-358.05C1602.16,-351.65 1773.43,-336.26 1828,-311 1857.64,-297.28 1884.38,-269.67 1899.65,-251.78"/>
<polygon fill="midnightblue" stroke="midnightblue" points="1902.51,-253.82 1906.19,-243.88 1897.11,-249.36 1902.51,-253.82"/>
</g>
<!-- Node49&#45;&gt;Node59 -->
<g id="edge123" class="edge">
<title>Node49&#45;&gt;Node59</title>
<path fill="none" stroke="midnightblue" d="M1515.11,-360.05C1666.7,-355.53 2105.64,-340.21 2246,-311 2285.78,-302.72 2292.35,-288.88 2332,-280 2497.11,-243.02 2549.88,-295.66 2711,-244 2746.22,-232.71 2782.42,-209.09 2803.8,-193.65"/>
<polygon fill="midnightblue" stroke="midnightblue" points="2806.04,-196.34 2812.01,-187.59 2801.89,-190.71 2806.04,-196.34"/>
</g>
<!-- Node60 -->
<g id="node38" class="node">
<title>Node60</title>
<g id="a_node38"><a xlink:href="Format_8h.html" target="_top" xlink:title="llvm/Support/Format.h">
<polygon fill="none" stroke="red" points="927.5,-224.5 927.5,-243.5 1040.5,-243.5 1040.5,-224.5 927.5,-224.5"/>
<text text-anchor="middle" x="984" y="-231.5" font-family="Helvetica,sans-Serif" font-size="10.00">llvm/Support/Format.h</text>
</a>
</g>
</g>
<!-- Node49&#45;&gt;Node60 -->
<g id="edge99" class="edge">
<title>Node49&#45;&gt;Node60</title>
<path fill="none" stroke="midnightblue" d="M1430.45,-352.9C1346.04,-330.61 1120.11,-270.94 1026.02,-246.1"/>
<polygon fill="midnightblue" stroke="midnightblue" points="1026.84,-242.69 1016.28,-243.52 1025.05,-249.46 1026.84,-242.69"/>
</g>
<!-- Node62 -->
<g id="node39" class="node">
<title>Node62</title>
<g id="a_node39"><a xlink:href="raw__ostream_8h.html" target="_top" xlink:title="llvm/Support/raw_ostream.h">
<polygon fill="none" stroke="black" points="2301.5,-224.5 2301.5,-243.5 2440.5,-243.5 2440.5,-224.5 2301.5,-224.5"/>
<text text-anchor="middle" x="2371" y="-231.5" font-family="Helvetica,sans-Serif" font-size="10.00">llvm/Support/raw_ostream.h</text>
</a>
</g>
</g>
<!-- Node49&#45;&gt;Node62 -->
<g id="edge105" class="edge">
<title>Node49&#45;&gt;Node62</title>
<path fill="none" stroke="midnightblue" d="M1515.29,-361.84C1607.16,-361.21 1802.79,-354.31 1961,-311 1992.65,-302.34 1996.48,-289.13 2028,-280 2115.97,-254.52 2220.85,-243.43 2291.28,-238.62"/>
<polygon fill="midnightblue" stroke="midnightblue" points="2291.66,-242.11 2301.41,-237.96 2291.2,-235.12 2291.66,-242.11"/>
</g>
<!-- Node51&#45;&gt;Node11 -->
<g id="edge79" class="edge">
<title>Node51&#45;&gt;Node11</title>
<path fill="none" stroke="midnightblue" d="M1523.45,-285.99C1539.54,-283.88 1556.91,-281.72 1573,-280 1750.66,-260.98 1961.58,-245.64 2061.29,-238.83"/>
<polygon fill="midnightblue" stroke="midnightblue" points="2061.72,-242.31 2071.45,-238.13 2061.24,-235.32 2061.72,-242.31"/>
</g>
<!-- Node51&#45;&gt;Node15 -->
<g id="edge86" class="edge">
<title>Node51&#45;&gt;Node15</title>
<path fill="none" stroke="midnightblue" d="M1401.46,-293.73C1299.84,-291.37 1091.07,-281.86 919,-244 882.62,-235.99 795.66,-201.65 761,-188 674.38,-153.9 616.3,-163.31 584,-76 580.92,-67.66 578.16,-62.7 584,-56 621.95,-12.41 804.39,-9.69 877.55,-10.4"/>
<polygon fill="midnightblue" stroke="midnightblue" points="877.88,-13.91 887.92,-10.54 877.97,-6.91 877.88,-13.91"/>
</g>
<!-- Node51&#45;&gt;Node20 -->
<g id="edge81" class="edge">
<title>Node51&#45;&gt;Node20</title>
<path fill="none" stroke="midnightblue" d="M1466.26,-285.7C1480.93,-246.1 1541.01,-83.88 1561.28,-29.14"/>
<polygon fill="midnightblue" stroke="midnightblue" points="1564.59,-30.29 1564.78,-19.69 1558.03,-27.85 1564.59,-30.29"/>
</g>
<!-- Node51&#45;&gt;Node33 -->
<g id="edge85" class="edge">
<title>Node51&#45;&gt;Node33</title>
<path fill="none" stroke="midnightblue" d="M1519.98,-285.97C1537,-283.7 1555.73,-281.47 1573,-280 1984.27,-244.99 2093.11,-307.21 2501,-244 2626.73,-224.52 2652.26,-193.04 2777,-168 2838.72,-155.61 3012.03,-175.01 3058,-132 3082.92,-108.68 3077.84,-88.97 3069,-56 3066.35,-46.1 3060.93,-36.13 3055.73,-28.1"/>
<polygon fill="midnightblue" stroke="midnightblue" points="3058.46,-25.91 3049.89,-19.68 3052.71,-29.89 3058.46,-25.91"/>
</g>
<!-- Node51&#45;&gt;Node27 -->
<g id="edge80" class="edge">
<title>Node51&#45;&gt;Node27</title>
<path fill="none" stroke="midnightblue" d="M1503.53,-285.94C1615.66,-261.75 1927.3,-190.78 2013,-132 2030.74,-119.83 2044.96,-99.38 2053.63,-84.66"/>
<polygon fill="midnightblue" stroke="midnightblue" points="2056.9,-86 2058.73,-75.56 2050.79,-82.58 2056.9,-86"/>
</g>
<!-- Node51&#45;&gt;Node34 -->
<g id="edge83" class="edge">
<title>Node51&#45;&gt;Node34</title>
<path fill="none" stroke="midnightblue" d="M1412.09,-285.94C1294.55,-265.04 1010.14,-207.54 955,-132 949.76,-124.82 950.02,-119.36 955,-112 964.24,-98.33 1004.47,-84.46 1034.09,-75.8"/>
<polygon fill="midnightblue" stroke="midnightblue" points="1035.39,-79.07 1044.05,-72.96 1033.47,-72.33 1035.39,-79.07"/>
</g>
<!-- Node51&#45;&gt;Node29 -->
<g id="edge84" class="edge">
<title>Node51&#45;&gt;Node29</title>
<path fill="none" stroke="midnightblue" d="M1519.99,-286C1537,-283.72 1555.73,-281.49 1573,-280 1961.66,-246.48 2066.78,-317 2450,-244 2550.8,-224.8 2571.02,-201.53 2668,-168 2714.63,-151.88 2731.57,-158.78 2773,-132 2792.81,-119.2 2810.65,-98.61 2821.84,-84.04"/>
<polygon fill="midnightblue" stroke="midnightblue" points="2824.76,-85.98 2827.91,-75.87 2819.14,-81.8 2824.76,-85.98"/>
</g>
<!-- Node51&#45;&gt;Node39 -->
<g id="edge78" class="edge">
<title>Node51&#45;&gt;Node39</title>
<path fill="none" stroke="midnightblue" d="M1458.64,-285.82C1449.19,-267.01 1426.67,-222.15 1414.02,-196.96"/>
<polygon fill="midnightblue" stroke="midnightblue" points="1417.03,-195.15 1409.41,-187.78 1410.77,-198.29 1417.03,-195.15"/>
</g>
<!-- Node51&#45;&gt;Node45 -->
<g id="edge82" class="edge">
<title>Node51&#45;&gt;Node45</title>
<path fill="none" stroke="midnightblue" d="M1401.28,-293.14C1294.97,-289.9 1070.83,-279.14 885,-244 798.5,-227.64 777.16,-219.63 695,-188 658.64,-174 572.97,-126.97 537,-112 505.54,-98.91 468.77,-86.14 442.91,-77.58"/>
<polygon fill="midnightblue" stroke="midnightblue" points="443.82,-74.19 433.23,-74.39 441.63,-80.84 443.82,-74.19"/>
</g>
<!-- Node52 -->
<g id="node32" class="node">
<title>Node52</title>
<g id="a_node32"><a xlink:href="ArrayRef_8h.html" target="_top" xlink:title="llvm/ADT/ArrayRef.h">
<polygon fill="none" stroke="red" points="1186,-168.5 1186,-187.5 1294,-187.5 1294,-168.5 1186,-168.5"/>
<text text-anchor="middle" x="1240" y="-175.5" font-family="Helvetica,sans-Serif" font-size="10.00">llvm/ADT/ArrayRef.h</text>
</a>
</g>
</g>
<!-- Node51&#45;&gt;Node52 -->
<g id="edge61" class="edge">
<title>Node51&#45;&gt;Node52</title>
<path fill="none" stroke="midnightblue" d="M1446.24,-285.82C1407.56,-265.79 1311.87,-216.22 1265.71,-192.32"/>
<polygon fill="midnightblue" stroke="midnightblue" points="1267.14,-189.12 1256.65,-187.62 1263.92,-195.33 1267.14,-189.12"/>
</g>
<!-- Node52&#45;&gt;Node12 -->
<g id="edge69" class="edge">
<title>Node52&#45;&gt;Node12</title>
<path fill="none" stroke="midnightblue" d="M1294.16,-169.56C1298.84,-169 1303.5,-168.47 1308,-168 1509.96,-146.8 1563.96,-152.96 1769.71,-132.08"/>
<polygon fill="midnightblue" stroke="midnightblue" points="1770.35,-135.53 1779.94,-131.03 1769.63,-128.57 1770.35,-135.53"/>
</g>
<!-- Node52&#45;&gt;Node17 -->
<g id="edge71" class="edge">
<title>Node52&#45;&gt;Node17</title>
<path fill="none" stroke="midnightblue" d="M1294.21,-171.61C1309.34,-170.26 1325.8,-168.93 1341,-168 1401.14,-164.32 2374.66,-165.12 2425,-132 2460.29,-108.78 2474.21,-57.45 2479.31,-29.69"/>
<polygon fill="midnightblue" stroke="midnightblue" points="2482.78,-30.13 2480.95,-19.7 2475.88,-29 2482.78,-30.13"/>
</g>
<!-- Node52&#45;&gt;Node20 -->
<g id="edge74" class="edge">
<title>Node52&#45;&gt;Node20</title>
<path fill="none" stroke="midnightblue" d="M1233.74,-168.45C1218.69,-146.78 1183.83,-89.1 1213,-56 1234,-32.17 1447.99,-17.7 1533.23,-12.84"/>
<polygon fill="midnightblue" stroke="midnightblue" points="1533.65,-16.32 1543.44,-12.27 1533.26,-9.33 1533.65,-16.32"/>
</g>
<!-- Node52&#45;&gt;Node26 -->
<g id="edge72" class="edge">
<title>Node52&#45;&gt;Node26</title>
<path fill="none" stroke="midnightblue" d="M1248.32,-168.37C1266.04,-149.97 1307.77,-106.67 1330.53,-83.05"/>
<polygon fill="midnightblue" stroke="midnightblue" points="1333.3,-85.22 1337.72,-75.59 1328.26,-80.36 1333.3,-85.22"/>
</g>
<!-- Node52&#45;&gt;Node27 -->
<g id="edge73" class="edge">
<title>Node52&#45;&gt;Node27</title>
<path fill="none" stroke="midnightblue" d="M1294.15,-169.48C1298.83,-168.93 1303.5,-168.43 1308,-168 1575.25,-142.37 1650.7,-197.77 1911,-132 1931.43,-126.84 1934.7,-120.47 1954,-112 1980.18,-100.52 2010.22,-88.17 2032.13,-79.32"/>
<polygon fill="midnightblue" stroke="midnightblue" points="2033.61,-82.5 2041.58,-75.52 2031,-76.01 2033.61,-82.5"/>
</g>
<!-- Node52&#45;&gt;Node37 -->
<g id="edge75" class="edge">
<title>Node52&#45;&gt;Node37</title>
<path fill="none" stroke="midnightblue" d="M1185.86,-171.62C991.51,-152.31 331.99,-86.77 169.44,-70.62"/>
<polygon fill="midnightblue" stroke="midnightblue" points="169.33,-67.09 159.03,-69.59 168.63,-74.06 169.33,-67.09"/>
</g>
<!-- Node52&#45;&gt;Node24 -->
<g id="edge76" class="edge">
<title>Node52&#45;&gt;Node24</title>
<path fill="none" stroke="midnightblue" d="M1258.13,-168.37C1298.52,-149.13 1396.14,-102.65 1443.84,-79.93"/>
<polygon fill="midnightblue" stroke="midnightblue" points="1445.43,-83.05 1452.96,-75.59 1442.42,-76.73 1445.43,-83.05"/>
</g>
<!-- Node52&#45;&gt;Node40 -->
<g id="edge70" class="edge">
<title>Node52&#45;&gt;Node40</title>
<path fill="none" stroke="midnightblue" d="M1205.46,-168.44C1167.75,-159.1 1107.26,-144.12 1066.14,-133.93"/>
<polygon fill="midnightblue" stroke="midnightblue" points="1066.93,-130.52 1056.38,-131.52 1065.25,-137.32 1066.93,-130.52"/>
</g>
<!-- Node53 -->
<g id="node33" class="node">
<title>Node53</title>
<g id="a_node33"><a xlink:href="Hashing_8h.html" target="_top" xlink:title="llvm/ADT/Hashing.h">
<polygon fill="none" stroke="red" points="2586.5,-112.5 2586.5,-131.5 2691.5,-131.5 2691.5,-112.5 2586.5,-112.5"/>
<text text-anchor="middle" x="2639" y="-119.5" font-family="Helvetica,sans-Serif" font-size="10.00">llvm/ADT/Hashing.h</text>
</a>
</g>
</g>
<!-- Node52&#45;&gt;Node53 -->
<g id="edge62" class="edge">
<title>Node52&#45;&gt;Node53</title>
<path fill="none" stroke="midnightblue" d="M1294.21,-171.59C1309.34,-170.24 1325.8,-168.91 1341,-168 1853.66,-137.2 1982.98,-156.13 2496,-132 2522.32,-130.76 2551.33,-129.01 2576.31,-127.38"/>
<polygon fill="midnightblue" stroke="midnightblue" points="2576.64,-130.86 2586.39,-126.71 2576.18,-123.88 2576.64,-130.86"/>
</g>
<!-- Node52&#45;&gt;Node55 -->
<g id="edge77" class="edge">
<title>Node52&#45;&gt;Node55</title>
<path fill="none" stroke="midnightblue" d="M1185.73,-173.01C1041.79,-162.42 653.47,-133.85 538.5,-125.39"/>
<polygon fill="midnightblue" stroke="midnightblue" points="538.47,-121.88 528.24,-124.64 537.96,-128.86 538.47,-121.88"/>
</g>
<!-- Node53&#45;&gt;Node15 -->
<g id="edge68" class="edge">
<title>Node53&#45;&gt;Node15</title>
<path fill="none" stroke="midnightblue" d="M2617.58,-112.41C2579.55,-97.63 2497.42,-67.86 2425,-56 2273.4,-31.18 1139.09,-14.24 938.32,-11.42"/>
<polygon fill="midnightblue" stroke="midnightblue" points="938.25,-7.92 928.2,-11.28 938.15,-14.91 938.25,-7.92"/>
</g>
<!-- Node53&#45;&gt;Node32 -->
<g id="edge63" class="edge">
<title>Node53&#45;&gt;Node32</title>
<path fill="none" stroke="midnightblue" d="M2652.17,-112.32C2664.85,-103.98 2684.23,-91.21 2699.21,-81.35"/>
<polygon fill="midnightblue" stroke="midnightblue" points="2701.43,-84.08 2707.86,-75.65 2697.58,-78.23 2701.43,-84.08"/>
</g>
<!-- Node53&#45;&gt;Node33 -->
<g id="edge67" class="edge">
<title>Node53&#45;&gt;Node33</title>
<path fill="none" stroke="midnightblue" d="M2636.04,-112.09C2632.04,-98.17 2626.92,-71.27 2641,-56 2666.11,-28.78 2922.74,-15.87 3012.34,-12.16"/>
<polygon fill="midnightblue" stroke="midnightblue" points="3012.56,-15.66 3022.41,-11.76 3012.27,-8.66 3012.56,-15.66"/>
</g>
<!-- Node53&#45;&gt;Node26 -->
<g id="edge64" class="edge">
<title>Node53&#45;&gt;Node26</title>
<path fill="none" stroke="midnightblue" d="M2586.24,-118.7C2542.92,-116.82 2479.99,-114.15 2425,-112 1983.27,-94.71 1871.96,-107.29 1431,-76 1415.75,-74.92 1399.02,-73.25 1384.46,-71.64"/>
<polygon fill="midnightblue" stroke="midnightblue" points="1384.62,-68.14 1374.29,-70.49 1383.83,-75.09 1384.62,-68.14"/>
</g>
<!-- Node53&#45;&gt;Node27 -->
<g id="edge65" class="edge">
<title>Node53&#45;&gt;Node27</title>
<path fill="none" stroke="midnightblue" d="M2586.36,-116.06C2470.32,-105.19 2195.12,-79.39 2097.82,-70.26"/>
<polygon fill="midnightblue" stroke="midnightblue" points="2097.93,-66.76 2087.65,-69.31 2097.27,-73.73 2097.93,-66.76"/>
</g>
<!-- Node53&#45;&gt;Node29 -->
<g id="edge66" class="edge">
<title>Node53&#45;&gt;Node29</title>
<path fill="none" stroke="midnightblue" d="M2669.9,-112.44C2705.73,-102.52 2764.54,-86.23 2801.17,-76.09"/>
<polygon fill="midnightblue" stroke="midnightblue" points="2802.18,-79.44 2810.88,-73.4 2800.31,-72.7 2802.18,-79.44"/>
</g>
<!-- Node58&#45;&gt;Node15 -->
<g id="edge98" class="edge">
<title>Node58&#45;&gt;Node15</title>
<path fill="none" stroke="midnightblue" d="M1855.54,-231.69C1731.34,-228.37 1428.73,-217.69 1177,-188 1034.05,-171.14 998.94,-161.28 858,-132 805.86,-121.17 657.96,-117.82 625,-76 619.5,-69.02 619.23,-62.76 625,-56 657.28,-18.18 811.66,-11.99 877.81,-11.09"/>
<polygon fill="midnightblue" stroke="midnightblue" points="878.04,-14.59 888,-10.98 877.96,-7.59 878.04,-14.59"/>
</g>
<!-- Node58&#45;&gt;Node16 -->
<g id="edge94" class="edge">
<title>Node58&#45;&gt;Node16</title>
<path fill="none" stroke="midnightblue" d="M1944.27,-224.47C1994.22,-211.07 2095.22,-184.88 2182,-168 2235.59,-157.58 2389.34,-173.33 2425,-132 2441.62,-112.74 2412.67,-92.67 2387.79,-80.01"/>
<polygon fill="midnightblue" stroke="midnightblue" points="2389.08,-76.75 2378.56,-75.54 2386.03,-83.05 2389.08,-76.75"/>
</g>
<!-- Node58&#45;&gt;Node27 -->
<g id="edge95" class="edge">
<title>Node58&#45;&gt;Node27</title>
<path fill="none" stroke="midnightblue" d="M1926.79,-224.36C1961.48,-202.48 2050.17,-145.68 2058,-132 2065.99,-118.03 2066.65,-99.53 2065.65,-85.84"/>
<polygon fill="midnightblue" stroke="midnightblue" points="2069.11,-85.24 2064.55,-75.67 2062.15,-85.99 2069.11,-85.24"/>
</g>
<!-- Node58&#45;&gt;Node24 -->
<g id="edge97" class="edge">
<title>Node58&#45;&gt;Node24</title>
<path fill="none" stroke="midnightblue" d="M1877.04,-224.41C1816.18,-209.32 1689.59,-175.45 1588,-132 1553.45,-117.22 1515.86,-95.18 1492.86,-80.94"/>
<polygon fill="midnightblue" stroke="midnightblue" points="1494.56,-77.88 1484.23,-75.54 1490.85,-83.81 1494.56,-77.88"/>
</g>
<!-- Node58&#45;&gt;Node59 -->
<g id="edge96" class="edge">
<title>Node58&#45;&gt;Node59</title>
<path fill="none" stroke="midnightblue" d="M1970.34,-229.55C1998.29,-227.87 2032.4,-225.82 2063,-224 2332.6,-207.93 2656.01,-188.84 2775.57,-181.8"/>
<polygon fill="midnightblue" stroke="midnightblue" points="2776.05,-185.27 2785.83,-181.19 2775.64,-178.29 2776.05,-185.27"/>
</g>
<!-- Node60&#45;&gt;Node15 -->
<g id="edge104" class="edge">
<title>Node60&#45;&gt;Node15</title>
<path fill="none" stroke="midnightblue" d="M949.5,-224.45C861.81,-201.94 634.27,-138.46 592,-76 587.02,-68.64 586.17,-62.71 592,-56 628.88,-13.5 806.09,-10.11 877.79,-10.53"/>
<polygon fill="midnightblue" stroke="midnightblue" points="877.94,-14.03 887.97,-10.61 878,-7.03 877.94,-14.03"/>
</g>
<!-- Node60&#45;&gt;Node27 -->
<g id="edge103" class="edge">
<title>Node60&#45;&gt;Node27</title>
<path fill="none" stroke="midnightblue" d="M1040.62,-227.38C1118.77,-219.21 1255.43,-203.36 1303,-188 1321.16,-182.14 1322.62,-173.13 1341,-168 1600.46,-95.64 1687.37,-207.29 1946,-132 1946.08,-131.98 2003.93,-99.83 2038.25,-80.76"/>
<polygon fill="midnightblue" stroke="midnightblue" points="2040.19,-83.68 2047.23,-75.76 2036.79,-77.56 2040.19,-83.68"/>
</g>
<!-- Node60&#45;&gt;Node39 -->
<g id="edge102" class="edge">
<title>Node60&#45;&gt;Node39</title>
<path fill="none" stroke="midnightblue" d="M1040.7,-225.8C1110.27,-216.95 1231.82,-201.45 1336,-188 1337.11,-187.86 1338.23,-187.71 1339.35,-187.57"/>
<polygon fill="midnightblue" stroke="midnightblue" points="1340.17,-190.99 1349.64,-186.23 1339.27,-184.05 1340.17,-190.99"/>
</g>
<!-- Node60&#45;&gt;Node40 -->
<g id="edge101" class="edge">
<title>Node60&#45;&gt;Node40</title>
<path fill="none" stroke="midnightblue" d="M986.98,-224.37C993.14,-206.54 1007.39,-165.3 1015.69,-141.27"/>
<polygon fill="midnightblue" stroke="midnightblue" points="1019.07,-142.19 1019.03,-131.59 1012.46,-139.9 1019.07,-142.19"/>
</g>
<!-- Node60&#45;&gt;Node52 -->
<g id="edge100" class="edge">
<title>Node60&#45;&gt;Node52</title>
<path fill="none" stroke="midnightblue" d="M1024.56,-224.44C1069.32,-215 1141.38,-199.8 1189.7,-189.61"/>
<polygon fill="midnightblue" stroke="midnightblue" points="1190.56,-193.01 1199.63,-187.52 1189.12,-186.16 1190.56,-193.01"/>
</g>
<!-- Node62&#45;&gt;Node12 -->
<g id="edge106" class="edge">
<title>Node62&#45;&gt;Node12</title>
<path fill="none" stroke="midnightblue" d="M2337.7,-224.47C2286.11,-211.42 2183.69,-186.08 2096,-168 2030.99,-154.59 1956.14,-141.68 1904.43,-133.15"/>
<polygon fill="midnightblue" stroke="midnightblue" points="1904.84,-129.67 1894.41,-131.51 1903.71,-136.58 1904.84,-129.67"/>
</g>
<!-- Node62&#45;&gt;Node20 -->
<g id="edge109" class="edge">
<title>Node62&#45;&gt;Node20</title>
<path fill="none" stroke="midnightblue" d="M2392.08,-224.42C2426.48,-210.7 2497.09,-183.79 2559,-168 2652.45,-144.16 2682.54,-165.46 2773,-132 2823.06,-113.48 2903.09,-94.39 2866,-56 2843.41,-32.61 1807,-14.83 1602.74,-11.54"/>
<polygon fill="midnightblue" stroke="midnightblue" points="1602.64,-8.04 1592.59,-11.38 1602.53,-15.04 1602.64,-8.04"/>
</g>
<!-- Node62&#45;&gt;Node33 -->
<g id="edge112" class="edge">
<title>Node62&#45;&gt;Node33</title>
<path fill="none" stroke="midnightblue" d="M2404.16,-224.39C2458.79,-210.52 2571.28,-183.23 2668,-168 2749.6,-155.15 2981.23,-192.02 3038,-132 3063.91,-104.6 3055.97,-56.19 3048.89,-29.67"/>
<polygon fill="midnightblue" stroke="midnightblue" points="3052.16,-28.39 3046.01,-19.77 3045.44,-30.34 3052.16,-28.39"/>
</g>
<!-- Node62&#45;&gt;Node27 -->
<g id="edge108" class="edge">
<title>Node62&#45;&gt;Node27</title>
<path fill="none" stroke="midnightblue" d="M2366.59,-224.39C2359.3,-210.87 2343.59,-184.52 2324,-168 2302.42,-149.8 2236.24,-122.39 2210,-112 2172.37,-97.11 2127.75,-84.07 2097.62,-75.92"/>
<polygon fill="midnightblue" stroke="midnightblue" points="2098.16,-72.44 2087.6,-73.24 2096.36,-79.2 2098.16,-72.44"/>
</g>
<!-- Node62&#45;&gt;Node29 -->
<g id="edge111" class="edge">
<title>Node62&#45;&gt;Node29</title>
<path fill="none" stroke="midnightblue" d="M2374.27,-224.47C2380.3,-210.07 2394.61,-181.2 2417,-168 2541.8,-94.41 2605.42,-183.08 2741,-132 2770.78,-120.78 2800.01,-97.83 2817.53,-82.43"/>
<polygon fill="midnightblue" stroke="midnightblue" points="2820.06,-84.86 2825.14,-75.56 2815.37,-79.66 2820.06,-84.86"/>
</g>
<!-- Node62&#45;&gt;Node24 -->
<g id="edge114" class="edge">
<title>Node62&#45;&gt;Node24</title>
<path fill="none" stroke="midnightblue" d="M2301.42,-226.48C2140.88,-210.98 1748.68,-170.35 1622,-132 1602.59,-126.13 1599.5,-120.29 1581,-112 1554.87,-100.3 1524.75,-88.06 1502.64,-79.31"/>
<polygon fill="midnightblue" stroke="midnightblue" points="1503.68,-75.95 1493.09,-75.55 1501.11,-82.47 1503.68,-75.95"/>
</g>
<!-- Node62&#45;&gt;Node39 -->
<g id="edge107" class="edge">
<title>Node62&#45;&gt;Node39</title>
<path fill="none" stroke="midnightblue" d="M2301.34,-227.62C2284.23,-226.36 2265.96,-225.08 2249,-224 1958.98,-205.57 1612.58,-188.73 1470.59,-182.04"/>
<polygon fill="midnightblue" stroke="midnightblue" points="1470.48,-178.53 1460.32,-181.56 1470.15,-185.52 1470.48,-178.53"/>
</g>
<!-- Node62&#45;&gt;Node45 -->
<g id="edge110" class="edge">
<title>Node62&#45;&gt;Node45</title>
<path fill="none" stroke="midnightblue" d="M2301.06,-229.6C2263.91,-227.84 2217.48,-225.7 2176,-224 1732.09,-205.76 1619.23,-230.69 1177,-188 1029.68,-173.78 570.81,-94.93 443.21,-72.79"/>
<polygon fill="midnightblue" stroke="midnightblue" points="443.7,-69.32 433.25,-71.06 442.51,-76.22 443.7,-69.32"/>
</g>
<!-- Node62&#45;&gt;Node59 -->
<g id="edge113" class="edge">
<title>Node62&#45;&gt;Node59</title>
<path fill="none" stroke="midnightblue" d="M2440.63,-224.68C2533.54,-213.58 2695.58,-194.22 2775.57,-184.67"/>
<polygon fill="midnightblue" stroke="midnightblue" points="2776.32,-188.1 2785.83,-183.44 2775.49,-181.15 2776.32,-188.1"/>
</g>
<!-- Node63&#45;&gt;Node3 -->
<g id="edge130" class="edge">
<title>Node63&#45;&gt;Node3</title>
<path fill="none" stroke="midnightblue" d="M645.7,-489.03C562.86,-486.38 434.03,-477.04 399,-445 381.7,-429.17 378.66,-400.9 378.78,-382.17"/>
<polygon fill="midnightblue" stroke="midnightblue" points="382.28,-382.3 379.14,-372.18 375.28,-382.04 382.28,-382.3"/>
</g>
<!-- Node63&#45;&gt;Node11 -->
<g id="edge133" class="edge">
<title>Node63&#45;&gt;Node11</title>
<path fill="none" stroke="midnightblue" d="M790.06,-488.55C924.28,-485.21 1221.49,-474.83 1470,-445 1635.93,-425.08 1679.41,-424.24 1840,-378 1916.85,-355.87 1936.39,-348.56 2007,-311 2041.46,-292.67 2078.36,-266.13 2100.02,-249.75"/>
<polygon fill="midnightblue" stroke="midnightblue" points="2102.24,-252.46 2108.06,-243.61 2097.99,-246.9 2102.24,-252.46"/>
</g>
<!-- Node63&#45;&gt;Node20 -->
<g id="edge149" class="edge">
<title>Node63&#45;&gt;Node20</title>
<path fill="none" stroke="midnightblue" d="M704.3,-481.26C692.12,-473 674.36,-459.7 662,-445 640.11,-418.97 637.06,-409.81 625,-378 609.38,-336.8 591.79,-320.13 610,-280 625.62,-245.58 642.27,-244.53 674,-224 806.58,-138.22 854.93,-144.93 997,-76 1014.53,-67.5 1017.27,-61.37 1036,-56 1130.02,-29.05 1430.55,-15.95 1533.22,-12.18"/>
<polygon fill="midnightblue" stroke="midnightblue" points="1533.5,-15.68 1543.36,-11.82 1533.24,-8.68 1533.5,-15.68"/>
</g>
<!-- Node63&#45;&gt;Node37 -->
<g id="edge151" class="edge">
<title>Node63&#45;&gt;Node37</title>
<path fill="none" stroke="midnightblue" d="M645.89,-487.02C560.04,-482.35 422.78,-470.98 379,-445 233.54,-358.67 158.4,-148.86 138.48,-85.45"/>
<polygon fill="midnightblue" stroke="midnightblue" points="141.76,-84.21 135.49,-75.67 135.07,-86.26 141.76,-84.21"/>
</g>
<!-- Node63&#45;&gt;Node39 -->
<g id="edge132" class="edge">
<title>Node63&#45;&gt;Node39</title>
<path fill="none" stroke="midnightblue" d="M723.88,-481.21C745.9,-448.96 827.18,-336.17 923,-280 933.32,-273.95 1119.3,-226.53 1131,-224 1201.86,-208.68 1284.03,-195.83 1339.76,-187.84"/>
<polygon fill="midnightblue" stroke="midnightblue" points="1340.44,-191.27 1349.85,-186.4 1339.46,-184.34 1340.44,-191.27"/>
</g>
<!-- Node63&#45;&gt;Node45 -->
<g id="edge150" class="edge">
<title>Node63&#45;&gt;Node45</title>
<path fill="none" stroke="midnightblue" d="M697.29,-481.36C677.87,-472.96 648.27,-459.4 624,-445 603.74,-432.98 600.95,-426.53 581,-414 540.33,-388.46 415.57,-352.27 391,-311 347.12,-237.29 384.27,-128.09 401.93,-85.22"/>
<polygon fill="midnightblue" stroke="midnightblue" points="405.24,-86.38 405.94,-75.81 398.8,-83.63 405.24,-86.38"/>
</g>
<!-- Node63&#45;&gt;Node52 -->
<g id="edge131" class="edge">
<title>Node63&#45;&gt;Node52</title>
<path fill="none" stroke="midnightblue" d="M711.36,-481.22C685,-445.87 590.54,-314.26 619,-280 689.12,-195.59 1031.72,-181.46 1175.88,-179.29"/>
<polygon fill="midnightblue" stroke="midnightblue" points="1175.96,-182.79 1185.91,-179.16 1175.87,-175.79 1175.96,-182.79"/>
</g>
<!-- Node63&#45;&gt;Node58 -->
<g id="edge136" class="edge">
<title>Node63&#45;&gt;Node58</title>
<path fill="none" stroke="midnightblue" d="M748.43,-481.39C801.22,-466.6 913.3,-435.86 1009,-414 1066.95,-400.76 1480.03,-335.93 1534,-311 1554.1,-301.72 1552.62,-288.66 1573,-280 1620.73,-259.73 1760.89,-246.21 1845.62,-239.64"/>
<polygon fill="midnightblue" stroke="midnightblue" points="1845.96,-243.13 1855.67,-238.87 1845.43,-236.15 1845.96,-243.13"/>
</g>
<!-- Node64 -->
<g id="node41" class="node">
<title>Node64</title>
<g id="a_node41"><a xlink:href="CBindingWrapping_8h.html" target="_top" xlink:title="llvm/Support/CBindingWrapping.h">
<polygon fill="none" stroke="red" points="408,-420 408,-439 572,-439 572,-420 408,-420"/>
<text text-anchor="middle" x="490" y="-427" font-family="Helvetica,sans-Serif" font-size="10.00">llvm/Support/CBindingWrapping.h</text>
</a>
</g>
</g>
<!-- Node63&#45;&gt;Node64 -->
<g id="edge134" class="edge">
<title>Node63&#45;&gt;Node64</title>
<path fill="none" stroke="midnightblue" d="M685.33,-481.48C645.12,-470.98 576.74,-453.14 532.48,-441.59"/>
<polygon fill="midnightblue" stroke="midnightblue" points="533.17,-438.15 522.61,-439.01 531.4,-444.92 533.17,-438.15"/>
</g>
<!-- Node66 -->
<g id="node42" class="node">
<title>Node66</title>
<g id="a_node42"><a xlink:href="FileSystem_8h.html" target="_top" xlink:title="llvm/Support/FileSystem.h">
<polygon fill="none" stroke="red" points="1329,-420 1329,-439 1461,-439 1461,-420 1329,-420"/>
<text text-anchor="middle" x="1395" y="-427" font-family="Helvetica,sans-Serif" font-size="10.00">llvm/Support/FileSystem.h</text>
</a>
</g>
</g>
<!-- Node63&#45;&gt;Node66 -->
<g id="edge137" class="edge">
<title>Node63&#45;&gt;Node66</title>
<path fill="none" stroke="midnightblue" d="M790.13,-483.66C918.8,-472.35 1186.75,-448.8 1318.5,-437.22"/>
<polygon fill="midnightblue" stroke="midnightblue" points="1318.86,-440.71 1328.52,-436.34 1318.25,-433.73 1318.86,-440.71"/>
</g>
<!-- Node64&#45;&gt;Node3 -->
<g id="edge135" class="edge">
<title>Node64&#45;&gt;Node3</title>
<path fill="none" stroke="midnightblue" d="M475.16,-419.73C456.69,-408.82 424.93,-390.05 403.22,-377.22"/>
<polygon fill="midnightblue" stroke="midnightblue" points="404.99,-374.2 394.6,-372.13 401.43,-380.23 404.99,-374.2"/>
</g>
<!-- Node66&#45;&gt;Node11 -->
<g id="edge139" class="edge">
<title>Node66&#45;&gt;Node11</title>
<path fill="none" stroke="midnightblue" d="M1461.21,-424.21C1538.22,-418.2 1668.74,-404.86 1778,-378 1862.11,-357.33 1881.21,-344.7 1961,-311 2008.57,-290.91 2062.47,-264.07 2093.43,-248.25"/>
<polygon fill="midnightblue" stroke="midnightblue" points="2095.34,-251.21 2102.64,-243.53 2092.14,-244.98 2095.34,-251.21"/>
</g>
<!-- Node66&#45;&gt;Node32 -->
<g id="edge141" class="edge">
<title>Node66&#45;&gt;Node32</title>
<path fill="none" stroke="midnightblue" d="M1461.16,-427.79C1726.09,-424.72 2698.81,-411.21 2755,-378 2846.43,-323.97 2918.6,-261.9 2869,-168 2845.23,-123 2791.39,-94.26 2755.62,-79.38"/>
<polygon fill="midnightblue" stroke="midnightblue" points="2756.64,-76.02 2746.06,-75.55 2754.04,-82.52 2756.64,-76.02"/>
</g>
<!-- Node66&#45;&gt;Node33 -->
<g id="edge146" class="edge">
<title>Node66&#45;&gt;Node33</title>
<path fill="none" stroke="midnightblue" d="M1461.33,-427.21C1730.46,-421.83 2729.64,-400.42 2793,-378 2957.5,-319.79 3030.13,-292.33 3099,-132 3112.34,-100.94 3117,-86.3 3102,-56 3095.4,-42.66 3082.74,-32.19 3070.83,-24.73"/>
<polygon fill="midnightblue" stroke="midnightblue" points="3072.39,-21.59 3061.98,-19.6 3068.88,-27.64 3072.39,-21.59"/>
</g>
<!-- Node66&#45;&gt;Node27 -->
<g id="edge143" class="edge">
<title>Node66&#45;&gt;Node27</title>
<path fill="none" stroke="midnightblue" d="M1461.2,-426.48C1549,-422.55 1708.23,-411.12 1840,-378 1995.92,-338.81 2085.8,-377.08 2176,-244 2196.99,-213.04 2236.15,-221.98 2151,-112 2137.64,-94.75 2115.85,-83.53 2097.29,-76.61"/>
<polygon fill="midnightblue" stroke="midnightblue" points="2098.26,-73.25 2087.66,-73.29 2095.97,-79.86 2098.26,-73.25"/>
</g>
<!-- Node66&#45;&gt;Node37 -->
<g id="edge145" class="edge">
<title>Node66&#45;&gt;Node37</title>
<path fill="none" stroke="midnightblue" d="M1328.69,-426.79C1223.54,-423.12 1012.5,-411.83 837,-378 734.97,-358.33 710.03,-348.18 613,-311 439.05,-244.34 396.89,-222.38 234,-132 205.22,-116.03 173.54,-95.05 153.47,-81.3"/>
<polygon fill="midnightblue" stroke="midnightblue" points="155.34,-78.34 145.12,-75.54 151.36,-84.1 155.34,-78.34"/>
</g>
<!-- Node66&#45;&gt;Node39 -->
<g id="edge138" class="edge">
<title>Node66&#45;&gt;Node39</title>
<path fill="none" stroke="midnightblue" d="M1385.29,-419.89C1361.54,-397.72 1303.66,-336.45 1321,-280 1332.13,-243.79 1364.18,-212.04 1385.32,-194.22"/>
<polygon fill="midnightblue" stroke="midnightblue" points="1387.81,-196.7 1393.35,-187.67 1383.39,-191.27 1387.81,-196.7"/>
</g>
<!-- Node66&#45;&gt;Node45 -->
<g id="edge144" class="edge">
<title>Node66&#45;&gt;Node45</title>
<path fill="none" stroke="midnightblue" d="M1328.85,-423.8C1205.63,-413.58 933.78,-384.08 717,-311 594.72,-269.78 548.3,-276.09 454,-188 424.83,-160.75 414.95,-112.64 411.64,-86.03"/>
<polygon fill="midnightblue" stroke="midnightblue" points="415.08,-85.35 410.56,-75.77 408.12,-86.08 415.08,-85.35"/>
</g>
<!-- Node66&#45;&gt;Node49 -->
<g id="edge140" class="edge">
<title>Node66&#45;&gt;Node49</title>
<path fill="none" stroke="midnightblue" d="M1404.17,-419.73C1414.98,-409.4 1433.15,-392.04 1446.44,-379.33"/>
<polygon fill="midnightblue" stroke="midnightblue" points="1449.16,-381.57 1453.97,-372.13 1444.33,-376.51 1449.16,-381.57"/>
</g>
<!-- Node66&#45;&gt;Node55 -->
<g id="edge148" class="edge">
<title>Node66&#45;&gt;Node55</title>
<path fill="none" stroke="midnightblue" d="M1360.14,-420C1294.98,-404.28 1150.15,-370.17 1027,-347 924.45,-327.71 893.45,-345.58 795,-311 691.5,-274.64 670.42,-251.55 581,-188 559.43,-172.67 536.75,-152.34 522.06,-138.53"/>
<polygon fill="midnightblue" stroke="midnightblue" points="524.43,-135.96 514.77,-131.6 519.6,-141.03 524.43,-135.96"/>
</g>
<!-- Node66&#45;&gt;Node58 -->
<g id="edge142" class="edge">
<title>Node66&#45;&gt;Node58</title>
<path fill="none" stroke="midnightblue" d="M1461.34,-426.69C1558.12,-420.99 1739.88,-398.42 1863,-311 1883.48,-296.46 1897.8,-270.66 1905.72,-253.2"/>
<polygon fill="midnightblue" stroke="midnightblue" points="1909.12,-254.15 1909.82,-243.58 1902.68,-251.41 1909.12,-254.15"/>
</g>
<!-- Node66&#45;&gt;Node59 -->
<g id="edge147" class="edge">
<title>Node66&#45;&gt;Node59</title>
<path fill="none" stroke="midnightblue" d="M1461.07,-428.16C1585.76,-426.55 1863.89,-418.28 2094,-378 2252.28,-350.29 2284.4,-311.32 2442,-280 2575.45,-253.48 2621.19,-298.17 2746,-244 2771.46,-232.95 2794.93,-210.64 2809.1,-195.26"/>
<polygon fill="midnightblue" stroke="midnightblue" points="2811.94,-197.35 2815.97,-187.55 2806.71,-192.69 2811.94,-197.35"/>
</g>
<!-- Node83&#45;&gt;Node13 -->
<g id="edge157" class="edge">
<title>Node83&#45;&gt;Node13</title>
<path fill="none" stroke="midnightblue" d="M1082.83,-665.71C932.56,-656.22 524.53,-625.7 404,-568 277.76,-507.56 258.09,-446.23 222,-311 175.12,-135.32 478.41,-85.64 623.64,-71.99"/>
<polygon fill="midnightblue" stroke="midnightblue" points="624.17,-75.45 633.81,-71.07 623.54,-68.48 624.17,-75.45"/>
</g>
<!-- Node83&#45;&gt;Node39 -->
<g id="edge156" class="edge">
<title>Node83&#45;&gt;Node39</title>
<path fill="none" stroke="midnightblue" d="M1137.17,-660.23C1127.24,-609.93 1084.54,-355.59 1207,-224 1216.47,-213.83 1289.39,-199.11 1344.01,-189.31"/>
<polygon fill="midnightblue" stroke="midnightblue" points="1344.74,-192.74 1353.98,-187.54 1343.52,-185.84 1344.74,-192.74"/>
</g>
<!-- Node83&#45;&gt;Node49 -->
<g id="edge170" class="edge">
<title>Node83&#45;&gt;Node49</title>
<path fill="none" stroke="midnightblue" d="M1174.95,-660.49C1222.68,-646.81 1301,-614.98 1301,-553.5 1301,-553.5 1301,-553.5 1301,-490 1301,-455.18 1296.57,-439.75 1320,-414 1340.84,-391.09 1372.72,-378.57 1401.1,-371.73"/>
<polygon fill="midnightblue" stroke="midnightblue" points="1401.96,-375.13 1410.96,-369.54 1400.44,-368.29 1401.96,-375.13"/>
</g>
<!-- Node83&#45;&gt;Node63 -->
<g id="edge171" class="edge">
<title>Node83&#45;&gt;Node63</title>
<path fill="none" stroke="midnightblue" d="M1082.67,-661.83C999.26,-651.01 851.63,-631.04 842,-624 807.18,-598.55 828.76,-568.22 799,-537 785.67,-523.02 767.03,-512.25 750.98,-504.76"/>
<polygon fill="midnightblue" stroke="midnightblue" points="751.96,-501.37 741.4,-500.52 749.13,-507.77 751.96,-501.37"/>
</g>
<!-- Node84 -->
<g id="node44" class="node">
<title>Node84</title>
<g id="a_node44"><a xlink:href="SymbolicFile_8h.html" target="_top" xlink:title="llvm/Object/SymbolicFile.h">
<polygon fill="none" stroke="red" points="851,-604.5 851,-623.5 985,-623.5 985,-604.5 851,-604.5"/>
<text text-anchor="middle" x="918" y="-611.5" font-family="Helvetica,sans-Serif" font-size="10.00">llvm/Object/SymbolicFile.h</text>
</a>
</g>
</g>
<!-- Node83&#45;&gt;Node84 -->
<g id="edge158" class="edge">
<title>Node83&#45;&gt;Node84</title>
<path fill="none" stroke="midnightblue" d="M1103.98,-660.44C1065.75,-651.1 1004.43,-636.12 962.74,-625.93"/>
<polygon fill="midnightblue" stroke="midnightblue" points="963.4,-622.49 952.85,-623.52 961.74,-629.29 963.4,-622.49"/>
</g>
<!-- Node83&#45;&gt;Node87 -->
<g id="edge172" class="edge">
<title>Node83&#45;&gt;Node87</title>
<path fill="none" stroke="midnightblue" d="M1192.4,-660.44C1420.74,-623.84 2314.76,-480.55 2562.85,-440.78"/>
<polygon fill="midnightblue" stroke="midnightblue" points="2563.47,-444.23 2572.79,-439.19 2562.36,-437.32 2563.47,-444.23"/>
</g>
<!-- Node84&#45;&gt;Node2 -->
<g id="edge161" class="edge">
<title>Node84&#45;&gt;Node2</title>
<path fill="none" stroke="midnightblue" d="M887.34,-604.48C849.76,-594.03 785.96,-576.29 744.4,-564.73"/>
<polygon fill="midnightblue" stroke="midnightblue" points="745.18,-561.32 734.6,-562.01 743.3,-568.06 745.18,-561.32"/>
</g>
<!-- Node84&#45;&gt;Node13 -->
<g id="edge160" class="edge">
<title>Node84&#45;&gt;Node13</title>
<path fill="none" stroke="midnightblue" d="M856.33,-604.5C800.21,-596.39 715.21,-583.19 642,-568 489.96,-536.45 381.2,-585.45 315,-445 246.62,-299.93 322.07,-203.19 454,-112 481.02,-93.32 562.44,-80.93 623.86,-73.96"/>
<polygon fill="midnightblue" stroke="midnightblue" points="624.36,-77.43 633.92,-72.85 623.59,-70.47 624.36,-77.43"/>
</g>
<!-- Node84&#45;&gt;Node29 -->
<g id="edge167" class="edge">
<title>Node84&#45;&gt;Node29</title>
<path fill="none" stroke="midnightblue" d="M985.31,-612.56C1159.5,-610.94 1639.26,-603.33 2037,-568 2254.19,-548.71 2309.2,-543.81 2523,-501 2618.56,-481.87 2645.58,-483.74 2735,-445 2837.97,-400.39 2894.64,-409.17 2949,-311 2995.36,-227.27 2894.4,-121.72 2851.8,-82.55"/>
<polygon fill="midnightblue" stroke="midnightblue" points="2853.89,-79.72 2844.12,-75.63 2849.2,-84.92 2853.89,-79.72"/>
</g>
<!-- Node84&#45;&gt;Node37 -->
<g id="edge168" class="edge">
<title>Node84&#45;&gt;Node37</title>
<path fill="none" stroke="midnightblue" d="M850.75,-613.22C695.63,-613.02 316.93,-608.28 197,-568 55.67,-520.53 0,-445.59 0,-296.5 0,-296.5 0,-296.5 0,-177 0,-126.45 57.76,-94.75 97.15,-79.02"/>
<polygon fill="midnightblue" stroke="midnightblue" points="98.63,-82.2 106.72,-75.36 96.13,-75.66 98.63,-82.2"/>
</g>
<!-- Node84&#45;&gt;Node39 -->
<g id="edge159" class="edge">
<title>Node84&#45;&gt;Node39</title>
<path fill="none" stroke="midnightblue" d="M920.33,-604.27C925.4,-584.46 937,-534.53 937,-492 937,-492 937,-492 937,-361.5 937,-356.27 974.02,-297.66 1169,-224 1199.57,-212.45 1281.13,-198.18 1339.8,-188.85"/>
<polygon fill="midnightblue" stroke="midnightblue" points="1340.41,-192.3 1349.74,-187.28 1339.32,-185.38 1340.41,-192.3"/>
</g>
<!-- Node84&#45;&gt;Node45 -->
<g id="edge166" class="edge">
<title>Node84&#45;&gt;Node45</title>
<path fill="none" stroke="midnightblue" d="M850.87,-612.72C651.4,-610.08 76,-588.77 76,-430.5 76,-430.5 76,-430.5 76,-361.5 76,-234.78 98.83,-164.87 214,-112 268.03,-87.2 336.9,-75.48 376.97,-70.41"/>
<polygon fill="midnightblue" stroke="midnightblue" points="377.47,-73.88 386.98,-69.21 376.64,-66.93 377.47,-73.88"/>
</g>
<!-- Node84&#45;&gt;Node49 -->
<g id="edge162" class="edge">
<title>Node84&#45;&gt;Node49</title>
<path fill="none" stroke="midnightblue" d="M974.89,-604.44C1007.72,-597.82 1048.91,-586.55 1082,-568 1099.55,-558.16 1099.45,-549.77 1115,-537 1187.63,-477.36 1202.38,-454.89 1287,-414 1325.42,-395.43 1371.95,-382.45 1407.51,-374.3"/>
<polygon fill="midnightblue" stroke="midnightblue" points="1408.71,-377.62 1417.7,-372.03 1407.18,-370.79 1408.71,-377.62"/>
</g>
<!-- Node84&#45;&gt;Node59 -->
<g id="edge169" class="edge">
<title>Node84&#45;&gt;Node59</title>
<path fill="none" stroke="midnightblue" d="M985.02,-611.28C1268.35,-603.3 2368.06,-565.04 2690,-445 2768.62,-415.69 2794.06,-389.76 2823,-311 2836.46,-274.36 2840.07,-262.7 2835,-224 2833.84,-215.18 2831.47,-205.63 2829.13,-197.61"/>
<polygon fill="midnightblue" stroke="midnightblue" points="2832.4,-196.34 2826.09,-187.83 2825.71,-198.42 2832.4,-196.34"/>
</g>
<!-- Node84&#45;&gt;Node60 -->
<g id="edge164" class="edge">
<title>Node84&#45;&gt;Node60</title>
<path fill="none" stroke="midnightblue" d="M915.51,-604.36C904.54,-564.5 863.62,-395.43 923,-280 929.91,-266.57 942.88,-256.14 955.09,-248.72"/>
<polygon fill="midnightblue" stroke="midnightblue" points="957.16,-251.57 964.17,-243.63 953.73,-245.47 957.16,-251.57"/>
</g>
<!-- Node84&#45;&gt;Node63 -->
<g id="edge165" class="edge">
<title>Node84&#45;&gt;Node63</title>
<path fill="none" stroke="midnightblue" d="M910.82,-604.32C897.65,-588.86 868.09,-556.39 837,-537 813.3,-522.22 783.99,-511.07 760.38,-503.56"/>
<polygon fill="midnightblue" stroke="midnightblue" points="761.23,-500.16 750.65,-500.56 759.17,-506.85 761.23,-500.16"/>
</g>
<!-- Node84&#45;&gt;Node66 -->
<g id="edge163" class="edge">
<title>Node84&#45;&gt;Node66</title>
<path fill="none" stroke="midnightblue" d="M970.37,-604.46C1010.61,-597.09 1067.22,-584.93 1115,-568 1214.57,-532.72 1324.97,-471.37 1371.88,-444.17"/>
<polygon fill="midnightblue" stroke="midnightblue" points="1373.78,-447.11 1380.65,-439.05 1370.25,-441.07 1373.78,-447.11"/>
</g>
<!-- Node87&#45;&gt;Node39 -->
<g id="edge188" class="edge">
<title>Node87&#45;&gt;Node39</title>
<path fill="none" stroke="midnightblue" d="M2572.87,-423.84C2336.14,-403.38 1403.11,-322.12 1393,-311 1364.46,-279.61 1383.25,-224.97 1396,-196.85"/>
<polygon fill="midnightblue" stroke="midnightblue" points="1399.18,-198.32 1400.33,-187.78 1392.86,-195.3 1399.18,-198.32"/>
</g>
<!-- Node87&#45;&gt;Node49 -->
<g id="edge189" class="edge">
<title>Node87&#45;&gt;Node49</title>
<path fill="none" stroke="midnightblue" d="M2572.9,-423.91C2535.8,-420.85 2485.44,-416.88 2441,-414 2095.41,-391.61 1680.6,-372.88 1525.52,-366.16"/>
<polygon fill="midnightblue" stroke="midnightblue" points="1525.38,-362.65 1515.24,-365.71 1525.08,-369.64 1525.38,-362.65"/>
</g>
<!-- Node87&#45;&gt;Node53 -->
<g id="edge187" class="edge">
<title>Node87&#45;&gt;Node53</title>
<path fill="none" stroke="midnightblue" d="M2681.24,-426.49C2753.23,-422.54 2874.46,-411.05 2902,-378 2962.47,-305.41 2938.85,-231.62 2869,-168 2844.94,-146.08 2761.11,-133.98 2701.63,-127.99"/>
<polygon fill="midnightblue" stroke="midnightblue" points="2701.86,-124.5 2691.56,-127.01 2701.18,-131.47 2701.86,-124.5"/>
</g>
<!-- Node88 -->
<g id="node46" class="node">
<title>Node88</title>
<g id="a_node46"><a xlink:href="BitmaskEnum_8h.html" target="_top" xlink:title="llvm/ADT/BitmaskEnum.h">
<polygon fill="none" stroke="red" points="1630.5,-112.5 1630.5,-131.5 1761.5,-131.5 1761.5,-112.5 1630.5,-112.5"/>
<text text-anchor="middle" x="1696" y="-119.5" font-family="Helvetica,sans-Serif" font-size="10.00">llvm/ADT/BitmaskEnum.h</text>
</a>
</g>
</g>
<!-- Node87&#45;&gt;Node88 -->
<g id="edge173" class="edge">
<title>Node87&#45;&gt;Node88</title>
<path fill="none" stroke="midnightblue" d="M2624.46,-414.21C2618.25,-383.91 2599.32,-313.28 2553,-280 2505.63,-245.96 2350.5,-253.8 2293,-244 2087.64,-209.01 1844.84,-156.22 1743.81,-133.75"/>
<polygon fill="midnightblue" stroke="midnightblue" points="1744.43,-130.3 1733.91,-131.54 1742.91,-137.13 1744.43,-130.3"/>
</g>
<!-- Node89 -->
<g id="node47" class="node">
<title>Node89</title>
<g id="a_node47"><a xlink:href="DenseMap_8h.html" target="_top" xlink:title="llvm/ADT/DenseMap.h">
<polygon fill="none" stroke="red" points="2300,-112.5 2300,-131.5 2416,-131.5 2416,-112.5 2300,-112.5"/>
<text text-anchor="middle" x="2358" y="-119.5" font-family="Helvetica,sans-Serif" font-size="10.00">llvm/ADT/DenseMap.h</text>
</a>
</g>
</g>
<!-- Node87&#45;&gt;Node89 -->
<g id="edge177" class="edge">
<title>Node87&#45;&gt;Node89</title>
<path fill="none" stroke="midnightblue" d="M2681.2,-416.02C2705.84,-408.25 2734.08,-396.17 2755,-378 2790.26,-347.36 2819.84,-318.24 2793,-280 2709.38,-160.88 2526.07,-131.74 2426.18,-124.87"/>
<polygon fill="midnightblue" stroke="midnightblue" points="2426.39,-121.38 2416.19,-124.24 2425.95,-128.36 2426.39,-121.38"/>
</g>
<!-- Node87&#45;&gt;Node96 -->
<g id="edge190" class="edge">
<title>Node87&#45;&gt;Node96</title>
<path fill="none" stroke="midnightblue" d="M2641.1,-414.4C2649.79,-405.71 2661.1,-394.4 2670.84,-384.66"/>
<polygon fill="midnightblue" stroke="midnightblue" points="2673.33,-387.12 2677.92,-377.58 2668.38,-382.17 2673.33,-387.12"/>
</g>
<!-- Node88&#45;&gt;Node15 -->
<g id="edge176" class="edge">
<title>Node88&#45;&gt;Node15</title>
<path fill="none" stroke="midnightblue" d="M1677.04,-112.45C1644.05,-98.02 1573.64,-69.1 1511,-56 1294.98,-10.82 1027.1,-9.5 938.22,-10.47"/>
<polygon fill="midnightblue" stroke="midnightblue" points="938,-6.97 928.05,-10.6 938.09,-13.97 938,-6.97"/>
</g>
<!-- Node88&#45;&gt;Node27 -->
<g id="edge174" class="edge">
<title>Node88&#45;&gt;Node27</title>
<path fill="none" stroke="midnightblue" d="M1754.15,-112.44C1831.34,-101.09 1965.22,-81.39 2028.26,-72.11"/>
<polygon fill="midnightblue" stroke="midnightblue" points="2029.09,-75.53 2038.47,-70.61 2028.07,-68.6 2029.09,-75.53"/>
</g>
<!-- Node88&#45;&gt;Node24 -->
<g id="edge175" class="edge">
<title>Node88&#45;&gt;Node24</title>
<path fill="none" stroke="midnightblue" d="M1660.35,-112.44C1619.97,-102.75 1554.28,-86.99 1511.87,-76.81"/>
<polygon fill="midnightblue" stroke="midnightblue" points="1512.68,-73.4 1502.14,-74.47 1511.04,-80.21 1512.68,-73.4"/>
</g>
<!-- Node89&#45;&gt;Node15 -->
<g id="edge186" class="edge">
<title>Node89&#45;&gt;Node15</title>
<path fill="none" stroke="midnightblue" d="M2333.92,-112.39C2311.31,-104.02 2276.75,-90.48 2248,-76 2232.68,-68.29 2231.44,-60.9 2215,-56 2151.87,-37.19 1128.7,-15.49 938.35,-11.61"/>
<polygon fill="midnightblue" stroke="midnightblue" points="938.29,-8.11 928.22,-11.4 938.15,-15.11 938.29,-8.11"/>
</g>
<!-- Node89&#45;&gt;Node16 -->
<g id="edge178" class="edge">
<title>Node89&#45;&gt;Node16</title>
<path fill="none" stroke="midnightblue" d="M2358,-112.08C2358,-105.01 2358,-94.86 2358,-85.99"/>
<polygon fill="midnightblue" stroke="midnightblue" points="2361.5,-85.75 2358,-75.75 2354.5,-85.75 2361.5,-85.75"/>
</g>
<!-- Node89&#45;&gt;Node17 -->
<g id="edge179" class="edge">
<title>Node89&#45;&gt;Node17</title>
<path fill="none" stroke="midnightblue" d="M2373.17,-112.37C2387.29,-103.99 2408.58,-90.43 2425,-76 2441.83,-61.2 2458.42,-41.56 2469.32,-27.75"/>
<polygon fill="midnightblue" stroke="midnightblue" points="2472.25,-29.68 2475.61,-19.63 2466.72,-25.4 2472.25,-29.68"/>
</g>
<!-- Node89&#45;&gt;Node20 -->
<g id="edge182" class="edge">
<title>Node89&#45;&gt;Node20</title>
<path fill="none" stroke="midnightblue" d="M2345.01,-112.28C2320.59,-96.06 2268.45,-62.32 2248,-56 2125.66,-18.17 1724.02,-12.14 1602.89,-11.18"/>
<polygon fill="midnightblue" stroke="midnightblue" points="1602.73,-7.68 1592.7,-11.11 1602.68,-14.68 1602.73,-7.68"/>
</g>
<!-- Node89&#45;&gt;Node26 -->
<g id="edge180" class="edge">
<title>Node89&#45;&gt;Node26</title>
<path fill="none" stroke="midnightblue" d="M2299.9,-119.33C2153.76,-114.88 1759.13,-101.31 1431,-76 1415.76,-74.82 1399.02,-73.14 1384.46,-71.54"/>
<polygon fill="midnightblue" stroke="midnightblue" points="1384.62,-68.04 1374.3,-70.4 1383.85,-74.99 1384.62,-68.04"/>
</g>
<!-- Node89&#45;&gt;Node27 -->
<g id="edge181" class="edge">
<title>Node89&#45;&gt;Node27</title>
<path fill="none" stroke="midnightblue" d="M2311.26,-112.44C2251.86,-101.57 2150.69,-83.05 2097.71,-73.35"/>
<polygon fill="midnightblue" stroke="midnightblue" points="2098.24,-69.89 2087.78,-71.54 2096.98,-76.78 2098.24,-69.89"/>
</g>
<!-- Node89&#45;&gt;Node29 -->
<g id="edge183" class="edge">
<title>Node89&#45;&gt;Node29</title>
<path fill="none" stroke="midnightblue" d="M2416.13,-118.16C2499.3,-113.42 2657.09,-101.92 2800.79,-75.7"/>
<polygon fill="midnightblue" stroke="midnightblue" points="2801.48,-79.14 2810.67,-73.87 2800.2,-72.25 2801.48,-79.14"/>
</g>
<!-- Node89&#45;&gt;Node38 -->
<g id="edge184" class="edge">
<title>Node89&#45;&gt;Node38</title>
<path fill="none" stroke="midnightblue" d="M2331.06,-112.44C2299.47,-102.41 2247.37,-85.86 2215.52,-75.74"/>
<polygon fill="midnightblue" stroke="midnightblue" points="2216.54,-72.39 2205.95,-72.7 2214.42,-79.06 2216.54,-72.39"/>
</g>
<!-- Node89&#45;&gt;Node24 -->
<g id="edge185" class="edge">
<title>Node89&#45;&gt;Node24</title>
<path fill="none" stroke="midnightblue" d="M2299.8,-117.46C2133.04,-107.3 1656.25,-78.28 1512.51,-69.53"/>
<polygon fill="midnightblue" stroke="midnightblue" points="1512.55,-66.02 1502.36,-68.91 1512.13,-73.01 1512.55,-66.02"/>
</g>
<!-- Node96&#45;&gt;Node10 -->
<g id="edge192" class="edge">
<title>Node96&#45;&gt;Node10</title>
<path fill="none" stroke="midnightblue" d="M2649.69,-347.4C2614.56,-335.69 2565.19,-319.23 2532.2,-308.23"/>
<polygon fill="midnightblue" stroke="midnightblue" points="2533.11,-304.85 2522.52,-305.01 2530.9,-311.49 2533.11,-304.85"/>
</g>
<!-- Node96&#45;&gt;Node39 -->
<g id="edge191" class="edge">
<title>Node96&#45;&gt;Node39</title>
<path fill="none" stroke="midnightblue" d="M2673.39,-347.33C2647.77,-328.61 2599.51,-296.14 2553,-280 2442.79,-241.76 2408.29,-261.83 2293,-244 2240.87,-235.94 2228.41,-229.99 2176,-224 1915.69,-194.25 1603.55,-183.7 1470.38,-180.37"/>
<polygon fill="midnightblue" stroke="midnightblue" points="1470.42,-176.87 1460.34,-180.12 1470.25,-183.87 1470.42,-176.87"/>
</g>
<!-- Node96&#45;&gt;Node62 -->
<g id="edge193" class="edge">
<title>Node96&#45;&gt;Node62</title>
<path fill="none" stroke="midnightblue" d="M2684.45,-347.37C2673.67,-328.69 2652.05,-296.28 2624,-280 2595.17,-263.27 2513.79,-250.74 2451.04,-243.21"/>
<polygon fill="midnightblue" stroke="midnightblue" points="2451.08,-239.69 2440.74,-241.99 2450.27,-246.64 2451.08,-239.69"/>
</g>
<!-- Node97 -->
<g id="node49" class="node">
<title>Node97</title>
<polygon fill="none" stroke="#bfbfbf" points="2676,-280.5 2676,-310.5 2784,-310.5 2784,-280.5 2676,-280.5"/>
<text text-anchor="start" x="2684" y="-298.5" font-family="Helvetica,sans-Serif" font-size="10.00">llvm/TextAPI/MachO</text>
<text text-anchor="middle" x="2730" y="-287.5" font-family="Helvetica,sans-Serif" font-size="10.00">/Architecture.def</text>
</g>
<!-- Node96&#45;&gt;Node97 -->
<g id="edge194" class="edge">
<title>Node96&#45;&gt;Node97</title>
<path fill="none" stroke="midnightblue" d="M2700.25,-347.4C2705.03,-339.22 2711.16,-328.73 2716.62,-319.39"/>
<polygon fill="midnightblue" stroke="midnightblue" points="2719.75,-320.98 2721.77,-310.58 2713.7,-317.44 2719.75,-320.98"/>
</g>
<!-- Node106&#45;&gt;Node49 -->
<g id="edge203" class="edge">
<title>Node106&#45;&gt;Node49</title>
<path fill="none" stroke="midnightblue" d="M1029.99,-537.42C1053.09,-508.94 1109.76,-444.6 1173,-414 1245.95,-378.7 1339.8,-367.76 1400.66,-364.54"/>
<polygon fill="midnightblue" stroke="midnightblue" points="1401.06,-368.02 1410.88,-364.05 1400.73,-361.03 1401.06,-368.02"/>
</g>
<!-- Node106&#45;&gt;Node63 -->
<g id="edge204" class="edge">
<title>Node106&#45;&gt;Node63</title>
<path fill="none" stroke="midnightblue" d="M964.84,-540.79C909.98,-529.95 825.66,-513.28 771.16,-502.51"/>
<polygon fill="midnightblue" stroke="midnightblue" points="771.5,-499.01 761.01,-500.5 770.15,-505.88 771.5,-499.01"/>
</g>
</g>
</svg>
