<?xml version="1.0" encoding="UTF-8" standalone="no"?>
<!DOCTYPE svg PUBLIC "-//W3C//DTD SVG 1.1//EN"
 "http://www.w3.org/Graphics/SVG/1.1/DTD/svg11.dtd">
<!-- Generated by graphviz version 2.43.0 (0)
 -->
<!-- Title: include/llvm/Support/thread.h Pages: 1 -->
<svg width="196pt" height="95pt"
 viewBox="0.00 0.00 195.50 95.00" xmlns="http://www.w3.org/2000/svg" xmlns:xlink="http://www.w3.org/1999/xlink">
<g id="graph0" class="graph" transform="scale(1 1) rotate(0) translate(4 91)">
<title>include/llvm/Support/thread.h</title>
<!-- Node0 -->
<g id="node1" class="node">
<title>Node0</title>
<polygon fill="#bfbfbf" stroke="black" points="61,-56.5 61,-86.5 166,-86.5 166,-56.5 61,-56.5"/>
<text text-anchor="start" x="69" y="-74.5" font-family="Helvetica,sans-Serif" font-size="10.00">include/llvm/Support</text>
<text text-anchor="middle" x="113.5" y="-63.5" font-family="Helvetica,sans-Serif" font-size="10.00">/thread.h</text>
</g>
<!-- Node1 -->
<g id="node2" class="node">
<title>Node1</title>
<polygon fill="none" stroke="#bfbfbf" points="0,-0.5 0,-19.5 125,-19.5 125,-0.5 0,-0.5"/>
<text text-anchor="middle" x="62.5" y="-7.5" font-family="Helvetica,sans-Serif" font-size="10.00">llvm/Config/llvm&#45;config.h</text>
</g>
<!-- Node0&#45;&gt;Node1 -->
<g id="edge1" class="edge">
<title>Node0&#45;&gt;Node1</title>
<path fill="none" stroke="midnightblue" d="M101.41,-56.4C93.93,-47.66 84.28,-36.41 76.47,-27.3"/>
<polygon fill="midnightblue" stroke="midnightblue" points="79.09,-24.97 69.92,-19.66 73.77,-29.53 79.09,-24.97"/>
</g>
<!-- Node2 -->
<g id="node3" class="node">
<title>Node2</title>
<polygon fill="none" stroke="#bfbfbf" points="143.5,-0.5 143.5,-19.5 187.5,-19.5 187.5,-0.5 143.5,-0.5"/>
<text text-anchor="middle" x="165.5" y="-7.5" font-family="Helvetica,sans-Serif" font-size="10.00">thread</text>
</g>
<!-- Node0&#45;&gt;Node2 -->
<g id="edge2" class="edge">
<title>Node0&#45;&gt;Node2</title>
<path fill="none" stroke="midnightblue" d="M125.82,-56.4C133.46,-47.66 143.29,-36.41 151.26,-27.3"/>
<polygon fill="midnightblue" stroke="midnightblue" points="153.99,-29.49 157.93,-19.66 148.72,-24.88 153.99,-29.49"/>
</g>
</g>
</svg>
