<?xml version="1.0" encoding="UTF-8" standalone="no"?>
<!DOCTYPE svg PUBLIC "-//W3C//DTD SVG 1.1//EN"
 "http://www.w3.org/Graphics/SVG/1.1/DTD/svg11.dtd">
<!-- Generated by graphviz version 2.43.0 (0)
 -->
<!-- Title: include/llvm/Transforms/Coroutines.h Pages: 1 -->
<svg width="872pt" height="173pt"
 viewBox="0.00 0.00 872.00 173.00" xmlns="http://www.w3.org/2000/svg" xmlns:xlink="http://www.w3.org/1999/xlink">
<g id="graph0" class="graph" transform="scale(1 1) rotate(0) translate(4 169)">
<title>include/llvm/Transforms/Coroutines.h</title>
<!-- Node1 -->
<g id="node1" class="node">
<title>Node1</title>
<polygon fill="#bfbfbf" stroke="black" points="491,-134.5 491,-164.5 612,-164.5 612,-134.5 491,-134.5"/>
<text text-anchor="start" x="499" y="-152.5" font-family="Helvetica,sans-Serif" font-size="10.00">include/llvm/Transforms</text>
<text text-anchor="middle" x="551.5" y="-141.5" font-family="Helvetica,sans-Serif" font-size="10.00">/Coroutines.h</text>
</g>
<!-- Node2 -->
<g id="node2" class="node">
<title>Node2</title>
<g id="a_node2"><a xlink:href="CoroInternal_8h.html" target="_top" xlink:title="lib/Transforms/Coroutines\l/CoroInternal.h">
<polygon fill="none" stroke="black" points="441,-67.5 441,-97.5 570,-97.5 570,-67.5 441,-67.5"/>
<text text-anchor="start" x="449" y="-85.5" font-family="Helvetica,sans-Serif" font-size="10.00">lib/Transforms/Coroutines</text>
<text text-anchor="middle" x="505.5" y="-74.5" font-family="Helvetica,sans-Serif" font-size="10.00">/CoroInternal.h</text>
</a>
</g>
</g>
<!-- Node1&#45;&gt;Node2 -->
<g id="edge1" class="edge">
<title>Node1&#45;&gt;Node2</title>
<path fill="none" stroke="midnightblue" d="M535.69,-126.16C528.98,-116.68 521.37,-105.92 515.46,-97.58"/>
<polygon fill="midnightblue" stroke="midnightblue" points="532.88,-128.26 541.52,-134.4 538.6,-124.21 532.88,-128.26"/>
</g>
<!-- Node8 -->
<g id="node8" class="node">
<title>Node8</title>
<g id="a_node8"><a xlink:href="Coroutines_8cpp.html" target="_top" xlink:title="lib/Transforms/Coroutines\l/Coroutines.cpp">
<polygon fill="none" stroke="black" points="735,-0.5 735,-30.5 864,-30.5 864,-0.5 735,-0.5"/>
<text text-anchor="start" x="743" y="-18.5" font-family="Helvetica,sans-Serif" font-size="10.00">lib/Transforms/Coroutines</text>
<text text-anchor="middle" x="799.5" y="-7.5" font-family="Helvetica,sans-Serif" font-size="10.00">/Coroutines.cpp</text>
</a>
</g>
</g>
<!-- Node1&#45;&gt;Node8 -->
<g id="edge8" class="edge">
<title>Node1&#45;&gt;Node8</title>
<path fill="none" stroke="midnightblue" d="M586.95,-129.63C637.29,-102.84 728.35,-54.37 773.15,-30.52"/>
<polygon fill="midnightblue" stroke="midnightblue" points="585.22,-126.59 578.04,-134.37 588.51,-132.76 585.22,-126.59"/>
</g>
<!-- Node3 -->
<g id="node3" class="node">
<title>Node3</title>
<g id="a_node3"><a xlink:href="CoroCleanup_8cpp.html" target="_top" xlink:title="lib/Transforms/Coroutines\l/CoroCleanup.cpp">
<polygon fill="none" stroke="black" points="0,-0.5 0,-30.5 129,-30.5 129,-0.5 0,-0.5"/>
<text text-anchor="start" x="8" y="-18.5" font-family="Helvetica,sans-Serif" font-size="10.00">lib/Transforms/Coroutines</text>
<text text-anchor="middle" x="64.5" y="-7.5" font-family="Helvetica,sans-Serif" font-size="10.00">/CoroCleanup.cpp</text>
</a>
</g>
</g>
<!-- Node2&#45;&gt;Node3 -->
<g id="edge2" class="edge">
<title>Node2&#45;&gt;Node3</title>
<path fill="none" stroke="midnightblue" d="M430.62,-72.55C356.12,-63.34 238.64,-47.97 137.5,-31 134.82,-30.55 132.1,-30.08 129.34,-29.59"/>
<polygon fill="midnightblue" stroke="midnightblue" points="430.49,-76.06 440.84,-73.81 431.34,-69.12 430.49,-76.06"/>
</g>
<!-- Node4 -->
<g id="node4" class="node">
<title>Node4</title>
<g id="a_node4"><a xlink:href="CoroEarly_8cpp.html" target="_top" xlink:title="lib/Transforms/Coroutines\l/CoroEarly.cpp">
<polygon fill="none" stroke="black" points="147,-0.5 147,-30.5 276,-30.5 276,-0.5 147,-0.5"/>
<text text-anchor="start" x="155" y="-18.5" font-family="Helvetica,sans-Serif" font-size="10.00">lib/Transforms/Coroutines</text>
<text text-anchor="middle" x="211.5" y="-7.5" font-family="Helvetica,sans-Serif" font-size="10.00">/CoroEarly.cpp</text>
</a>
</g>
</g>
<!-- Node2&#45;&gt;Node4 -->
<g id="edge3" class="edge">
<title>Node2&#45;&gt;Node4</title>
<path fill="none" stroke="midnightblue" d="M432.3,-65.32C383.98,-54.63 321.3,-40.77 275.07,-30.55"/>
<polygon fill="midnightblue" stroke="midnightblue" points="431.55,-68.73 442.07,-67.48 433.06,-61.9 431.55,-68.73"/>
</g>
<!-- Node5 -->
<g id="node5" class="node">
<title>Node5</title>
<g id="a_node5"><a xlink:href="CoroElide_8cpp.html" target="_top" xlink:title="lib/Transforms/Coroutines\l/CoroElide.cpp">
<polygon fill="none" stroke="black" points="294,-0.5 294,-30.5 423,-30.5 423,-0.5 294,-0.5"/>
<text text-anchor="start" x="302" y="-18.5" font-family="Helvetica,sans-Serif" font-size="10.00">lib/Transforms/Coroutines</text>
<text text-anchor="middle" x="358.5" y="-7.5" font-family="Helvetica,sans-Serif" font-size="10.00">/CoroElide.cpp</text>
</a>
</g>
</g>
<!-- Node2&#45;&gt;Node5 -->
<g id="edge4" class="edge">
<title>Node2&#45;&gt;Node5</title>
<path fill="none" stroke="midnightblue" d="M464.27,-63.27C440.86,-52.92 411.99,-40.15 390.33,-30.58"/>
<polygon fill="midnightblue" stroke="midnightblue" points="463.04,-66.55 473.6,-67.4 465.87,-60.15 463.04,-66.55"/>
</g>
<!-- Node6 -->
<g id="node6" class="node">
<title>Node6</title>
<g id="a_node6"><a xlink:href="CoroFrame_8cpp.html" target="_top" xlink:title="lib/Transforms/Coroutines\l/CoroFrame.cpp">
<polygon fill="none" stroke="black" points="441,-0.5 441,-30.5 570,-30.5 570,-0.5 441,-0.5"/>
<text text-anchor="start" x="449" y="-18.5" font-family="Helvetica,sans-Serif" font-size="10.00">lib/Transforms/Coroutines</text>
<text text-anchor="middle" x="505.5" y="-7.5" font-family="Helvetica,sans-Serif" font-size="10.00">/CoroFrame.cpp</text>
</a>
</g>
</g>
<!-- Node2&#45;&gt;Node6 -->
<g id="edge5" class="edge">
<title>Node2&#45;&gt;Node6</title>
<path fill="none" stroke="midnightblue" d="M505.5,-57.11C505.5,-48.15 505.5,-38.32 505.5,-30.58"/>
<polygon fill="midnightblue" stroke="midnightblue" points="502,-57.4 505.5,-67.4 509,-57.4 502,-57.4"/>
</g>
<!-- Node7 -->
<g id="node7" class="node">
<title>Node7</title>
<g id="a_node7"><a xlink:href="CoroSplit_8cpp.html" target="_top" xlink:title="lib/Transforms/Coroutines\l/CoroSplit.cpp">
<polygon fill="none" stroke="black" points="588,-0.5 588,-30.5 717,-30.5 717,-0.5 588,-0.5"/>
<text text-anchor="start" x="596" y="-18.5" font-family="Helvetica,sans-Serif" font-size="10.00">lib/Transforms/Coroutines</text>
<text text-anchor="middle" x="652.5" y="-7.5" font-family="Helvetica,sans-Serif" font-size="10.00">/CoroSplit.cpp</text>
</a>
</g>
</g>
<!-- Node2&#45;&gt;Node7 -->
<g id="edge6" class="edge">
<title>Node2&#45;&gt;Node7</title>
<path fill="none" stroke="midnightblue" d="M546.73,-63.27C570.14,-52.92 599.01,-40.15 620.67,-30.58"/>
<polygon fill="midnightblue" stroke="midnightblue" points="545.13,-60.15 537.4,-67.4 547.96,-66.55 545.13,-60.15"/>
</g>
<!-- Node2&#45;&gt;Node8 -->
<g id="edge7" class="edge">
<title>Node2&#45;&gt;Node8</title>
<path fill="none" stroke="midnightblue" d="M578.7,-65.32C627.02,-54.63 689.7,-40.77 735.93,-30.55"/>
<polygon fill="midnightblue" stroke="midnightblue" points="577.94,-61.9 568.93,-67.48 579.45,-68.73 577.94,-61.9"/>
</g>
</g>
</svg>
