<?xml version="1.0" encoding="UTF-8" standalone="no"?>
<!DOCTYPE svg PUBLIC "-//W3C//DTD SVG 1.1//EN"
 "http://www.w3.org/Graphics/SVG/1.1/DTD/svg11.dtd">
<!-- Generated by graphviz version 2.43.0 (0)
 -->
<!-- Title: include/llvm/Transforms/Vectorize.h Pages: 1 -->
<svg width="1098pt" height="106pt"
 viewBox="0.00 0.00 1097.50 106.00" xmlns="http://www.w3.org/2000/svg" xmlns:xlink="http://www.w3.org/1999/xlink">
<g id="graph0" class="graph" transform="scale(1 1) rotate(0) translate(4 102)">
<title>include/llvm/Transforms/Vectorize.h</title>
<!-- Node1 -->
<g id="node1" class="node">
<title>Node1</title>
<polygon fill="#bfbfbf" stroke="black" points="537.5,-67.5 537.5,-97.5 658.5,-97.5 658.5,-67.5 537.5,-67.5"/>
<text text-anchor="start" x="545.5" y="-85.5" font-family="Helvetica,sans-Serif" font-size="10.00">include/llvm/Transforms</text>
<text text-anchor="middle" x="598" y="-74.5" font-family="Helvetica,sans-Serif" font-size="10.00">/Vectorize.h</text>
</g>
<!-- Node2 -->
<g id="node2" class="node">
<title>Node2</title>
<g id="a_node2"><a xlink:href="LinkAllPasses_8h.html" target="_top" xlink:title="include/llvm/LinkAllPasses.h">
<polygon fill="none" stroke="black" points="0,-6 0,-25 142,-25 142,-6 0,-6"/>
<text text-anchor="middle" x="71" y="-13" font-family="Helvetica,sans-Serif" font-size="10.00">include/llvm/LinkAllPasses.h</text>
</a>
</g>
</g>
<!-- Node1&#45;&gt;Node2 -->
<g id="edge1" class="edge">
<title>Node1&#45;&gt;Node2</title>
<path fill="none" stroke="midnightblue" d="M527.3,-74.98C439.02,-66.51 283.48,-50.47 151,-31 139.27,-29.28 126.62,-27.12 114.93,-25.01"/>
<polygon fill="midnightblue" stroke="midnightblue" points="527.18,-78.49 537.46,-75.96 527.84,-71.52 527.18,-78.49"/>
</g>
<!-- Node3 -->
<g id="node3" class="node">
<title>Node3</title>
<g id="a_node3"><a xlink:href="AMDGPUTargetMachine_8cpp.html" target="_top" xlink:title="The AMDGPU target machine contains all of the hardware specific information needed to emit code for R...">
<polygon fill="none" stroke="black" points="160.5,-0.5 160.5,-30.5 339.5,-30.5 339.5,-0.5 160.5,-0.5"/>
<text text-anchor="start" x="168.5" y="-18.5" font-family="Helvetica,sans-Serif" font-size="10.00">lib/Target/AMDGPU/AMDGPUTarget</text>
<text text-anchor="middle" x="250" y="-7.5" font-family="Helvetica,sans-Serif" font-size="10.00">Machine.cpp</text>
</a>
</g>
</g>
<!-- Node1&#45;&gt;Node3 -->
<g id="edge2" class="edge">
<title>Node1&#45;&gt;Node3</title>
<path fill="none" stroke="midnightblue" d="M527.44,-68.32C468.63,-57.34 385.09,-41.73 325.07,-30.52"/>
<polygon fill="midnightblue" stroke="midnightblue" points="526.91,-71.78 537.38,-70.18 528.2,-64.9 526.91,-71.78"/>
</g>
<!-- Node4 -->
<g id="node4" class="node">
<title>Node4</title>
<g id="a_node4"><a xlink:href="NVPTXTargetMachine_8cpp.html" target="_top" xlink:title="lib/Target/NVPTX/NVPTXTarget\lMachine.cpp">
<polygon fill="none" stroke="black" points="358,-0.5 358,-30.5 516,-30.5 516,-0.5 358,-0.5"/>
<text text-anchor="start" x="366" y="-18.5" font-family="Helvetica,sans-Serif" font-size="10.00">lib/Target/NVPTX/NVPTXTarget</text>
<text text-anchor="middle" x="437" y="-7.5" font-family="Helvetica,sans-Serif" font-size="10.00">Machine.cpp</text>
</a>
</g>
</g>
<!-- Node1&#45;&gt;Node4 -->
<g id="edge3" class="edge">
<title>Node1&#45;&gt;Node4</title>
<path fill="none" stroke="midnightblue" d="M553.52,-63.54C527.76,-53.14 495.8,-40.24 471.87,-30.58"/>
<polygon fill="midnightblue" stroke="midnightblue" points="552.48,-66.9 563.07,-67.4 555.1,-60.41 552.48,-66.9"/>
</g>
<!-- Node5 -->
<g id="node5" class="node">
<title>Node5</title>
<g id="a_node5"><a xlink:href="PassManagerBuilder_8cpp.html" target="_top" xlink:title="lib/Transforms/IPO\l/PassManagerBuilder.cpp">
<polygon fill="none" stroke="black" points="534,-0.5 534,-30.5 662,-30.5 662,-0.5 534,-0.5"/>
<text text-anchor="start" x="542" y="-18.5" font-family="Helvetica,sans-Serif" font-size="10.00">lib/Transforms/IPO</text>
<text text-anchor="middle" x="598" y="-7.5" font-family="Helvetica,sans-Serif" font-size="10.00">/PassManagerBuilder.cpp</text>
</a>
</g>
</g>
<!-- Node1&#45;&gt;Node5 -->
<g id="edge4" class="edge">
<title>Node1&#45;&gt;Node5</title>
<path fill="none" stroke="midnightblue" d="M598,-57.11C598,-48.15 598,-38.32 598,-30.58"/>
<polygon fill="midnightblue" stroke="midnightblue" points="594.5,-57.4 598,-67.4 601.5,-57.4 594.5,-57.4"/>
</g>
<!-- Node6 -->
<g id="node6" class="node">
<title>Node6</title>
<g id="a_node6"><a xlink:href="LoadStoreVectorizer_8cpp.html" target="_top" xlink:title="lib/Transforms/Vectorize\l/LoadStoreVectorizer.cpp">
<polygon fill="none" stroke="black" points="680.5,-0.5 680.5,-30.5 807.5,-30.5 807.5,-0.5 680.5,-0.5"/>
<text text-anchor="start" x="688.5" y="-18.5" font-family="Helvetica,sans-Serif" font-size="10.00">lib/Transforms/Vectorize</text>
<text text-anchor="middle" x="744" y="-7.5" font-family="Helvetica,sans-Serif" font-size="10.00">/LoadStoreVectorizer.cpp</text>
</a>
</g>
</g>
<!-- Node1&#45;&gt;Node6 -->
<g id="edge5" class="edge">
<title>Node1&#45;&gt;Node6</title>
<path fill="none" stroke="midnightblue" d="M638.95,-63.27C662.2,-52.92 690.87,-40.15 712.38,-30.58"/>
<polygon fill="midnightblue" stroke="midnightblue" points="637.39,-60.13 629.68,-67.4 640.24,-66.53 637.39,-60.13"/>
</g>
<!-- Node7 -->
<g id="node7" class="node">
<title>Node7</title>
<g id="a_node7"><a xlink:href="SLPVectorizer_8cpp.html" target="_top" xlink:title="lib/Transforms/Vectorize\l/SLPVectorizer.cpp">
<polygon fill="none" stroke="black" points="825.5,-0.5 825.5,-30.5 948.5,-30.5 948.5,-0.5 825.5,-0.5"/>
<text text-anchor="start" x="833.5" y="-18.5" font-family="Helvetica,sans-Serif" font-size="10.00">lib/Transforms/Vectorize</text>
<text text-anchor="middle" x="887" y="-7.5" font-family="Helvetica,sans-Serif" font-size="10.00">/SLPVectorizer.cpp</text>
</a>
</g>
</g>
<!-- Node1&#45;&gt;Node7 -->
<g id="edge6" class="edge">
<title>Node1&#45;&gt;Node7</title>
<path fill="none" stroke="midnightblue" d="M668.58,-65.63C716.51,-54.85 779.3,-40.72 825.25,-30.39"/>
<polygon fill="midnightblue" stroke="midnightblue" points="667.57,-62.26 658.58,-67.87 669.11,-69.09 667.57,-62.26"/>
</g>
<!-- Node8 -->
<g id="node8" class="node">
<title>Node8</title>
<g id="a_node8"><a xlink:href="Vectorize_8cpp.html" target="_top" xlink:title="lib/Transforms/Vectorize\l/Vectorize.cpp">
<polygon fill="none" stroke="black" points="966.5,-0.5 966.5,-30.5 1089.5,-30.5 1089.5,-0.5 966.5,-0.5"/>
<text text-anchor="start" x="974.5" y="-18.5" font-family="Helvetica,sans-Serif" font-size="10.00">lib/Transforms/Vectorize</text>
<text text-anchor="middle" x="1028" y="-7.5" font-family="Helvetica,sans-Serif" font-size="10.00">/Vectorize.cpp</text>
</a>
</g>
</g>
<!-- Node1&#45;&gt;Node8 -->
<g id="edge7" class="edge">
<title>Node1&#45;&gt;Node8</title>
<path fill="none" stroke="midnightblue" d="M668.67,-72.96C741.41,-63.85 857.93,-48.36 958,-31 960.69,-30.53 963.43,-30.04 966.21,-29.53"/>
<polygon fill="midnightblue" stroke="midnightblue" points="668.19,-69.5 658.7,-74.21 669.06,-76.44 668.19,-69.5"/>
</g>
</g>
</svg>
