<?xml version="1.0" encoding="UTF-8" standalone="no"?>
<!DOCTYPE svg PUBLIC "-//W3C//DTD SVG 1.1//EN"
 "http://www.w3.org/Graphics/SVG/1.1/DTD/svg11.dtd">
<!-- Generated by graphviz version 2.43.0 (0)
 -->
<!-- Title: include/llvm/Support/TrigramIndex.h Pages: 1 -->
<svg width="384pt" height="173pt"
 viewBox="0.00 0.00 384.00 173.00" xmlns="http://www.w3.org/2000/svg" xmlns:xlink="http://www.w3.org/1999/xlink">
<g id="graph0" class="graph" transform="scale(1 1) rotate(0) translate(4 169)">
<title>include/llvm/Support/TrigramIndex.h</title>
<!-- Node49 -->
<g id="node1" class="node">
<title>Node49</title>
<polygon fill="#bfbfbf" stroke="black" points="181.5,-134.5 181.5,-164.5 286.5,-164.5 286.5,-134.5 181.5,-134.5"/>
<text text-anchor="start" x="189.5" y="-152.5" font-family="Helvetica,sans-Serif" font-size="10.00">include/llvm/Support</text>
<text text-anchor="middle" x="234" y="-141.5" font-family="Helvetica,sans-Serif" font-size="10.00">/TrigramIndex.h</text>
</g>
<!-- Node50 -->
<g id="node2" class="node">
<title>Node50</title>
<g id="a_node2"><a xlink:href="SpecialCaseList_8h.html" target="_top" xlink:title="include/llvm/Support\l/SpecialCaseList.h">
<polygon fill="none" stroke="black" points="110.5,-67.5 110.5,-97.5 215.5,-97.5 215.5,-67.5 110.5,-67.5"/>
<text text-anchor="start" x="118.5" y="-85.5" font-family="Helvetica,sans-Serif" font-size="10.00">include/llvm/Support</text>
<text text-anchor="middle" x="163" y="-74.5" font-family="Helvetica,sans-Serif" font-size="10.00">/SpecialCaseList.h</text>
</a>
</g>
</g>
<!-- Node49&#45;&gt;Node50 -->
<g id="edge1" class="edge">
<title>Node49&#45;&gt;Node50</title>
<path fill="none" stroke="midnightblue" d="M211.17,-127.6C200.45,-117.78 187.95,-106.34 178.38,-97.58"/>
<polygon fill="midnightblue" stroke="midnightblue" points="208.85,-130.22 218.59,-134.4 213.58,-125.06 208.85,-130.22"/>
</g>
<!-- Node53 -->
<g id="node5" class="node">
<title>Node53</title>
<g id="a_node5"><a xlink:href="TrigramIndex_8cpp.html" target="_top" xlink:title="lib/Support/TrigramIndex.cpp">
<polygon fill="none" stroke="black" points="234,-73 234,-92 376,-92 376,-73 234,-73"/>
<text text-anchor="middle" x="305" y="-80" font-family="Helvetica,sans-Serif" font-size="10.00">lib/Support/TrigramIndex.cpp</text>
</a>
</g>
</g>
<!-- Node49&#45;&gt;Node53 -->
<g id="edge4" class="edge">
<title>Node49&#45;&gt;Node53</title>
<path fill="none" stroke="midnightblue" d="M257.12,-127.34C270.15,-115.4 285.74,-101.14 295.5,-92.19"/>
<polygon fill="midnightblue" stroke="midnightblue" points="254.42,-125.06 249.41,-134.4 259.15,-130.22 254.42,-125.06"/>
</g>
<!-- Node51 -->
<g id="node3" class="node">
<title>Node51</title>
<g id="a_node3"><a xlink:href="SpecialCaseList_8cpp.html" target="_top" xlink:title="lib/Support/SpecialCaseList.cpp">
<polygon fill="none" stroke="black" points="0,-6 0,-25 156,-25 156,-6 0,-6"/>
<text text-anchor="middle" x="78" y="-13" font-family="Helvetica,sans-Serif" font-size="10.00">lib/Support/SpecialCaseList.cpp</text>
</a>
</g>
</g>
<!-- Node50&#45;&gt;Node51 -->
<g id="edge2" class="edge">
<title>Node50&#45;&gt;Node51</title>
<path fill="none" stroke="midnightblue" d="M136.2,-61.01C120.42,-48.94 101.28,-34.3 89.37,-25.19"/>
<polygon fill="midnightblue" stroke="midnightblue" points="134.49,-64.1 144.56,-67.4 138.74,-58.54 134.49,-64.1"/>
</g>
<!-- Node52 -->
<g id="node4" class="node">
<title>Node52</title>
<g id="a_node4"><a xlink:href="DataFlowSanitizer_8cpp.html" target="_top" xlink:title="This file is a part of DataFlowSanitizer, a generalised dynamic data flow analysis. ">
<polygon fill="none" stroke="black" points="174.5,-0.5 174.5,-30.5 323.5,-30.5 323.5,-0.5 174.5,-0.5"/>
<text text-anchor="start" x="182.5" y="-18.5" font-family="Helvetica,sans-Serif" font-size="10.00">lib/Transforms/Instrumentation</text>
<text text-anchor="middle" x="249" y="-7.5" font-family="Helvetica,sans-Serif" font-size="10.00">/DataFlowSanitizer.cpp</text>
</a>
</g>
</g>
<!-- Node50&#45;&gt;Node52 -->
<g id="edge3" class="edge">
<title>Node50&#45;&gt;Node52</title>
<path fill="none" stroke="midnightblue" d="M189.9,-61.17C203.05,-51.23 218.55,-39.51 230.38,-30.58"/>
<polygon fill="midnightblue" stroke="midnightblue" points="187.53,-58.57 181.66,-67.4 191.75,-64.16 187.53,-58.57"/>
</g>
</g>
</svg>
