<?xml version="1.0" encoding="UTF-8" standalone="no"?>
<!DOCTYPE svg PUBLIC "-//W3C//DTD SVG 1.1//EN"
 "http://www.w3.org/Graphics/SVG/1.1/DTD/svg11.dtd">
<!-- Generated by graphviz version 2.43.0 (0)
 -->
<!-- Title: include/llvm/DebugInfo/CodeView/TypeCollection.h Pages: 1 -->
<svg width="2582pt" height="374pt"
 viewBox="0.00 0.00 2582.00 374.00" xmlns="http://www.w3.org/2000/svg" xmlns:xlink="http://www.w3.org/1999/xlink">
<g id="graph0" class="graph" transform="scale(1 1) rotate(0) translate(4 370)">
<title>include/llvm/DebugInfo/CodeView/TypeCollection.h</title>
<!-- Node87 -->
<g id="node1" class="node">
<title>Node87</title>
<polygon fill="#bfbfbf" stroke="black" points="1558.5,-335.5 1558.5,-365.5 1699.5,-365.5 1699.5,-335.5 1558.5,-335.5"/>
<text text-anchor="start" x="1566.5" y="-353.5" font-family="Helvetica,sans-Serif" font-size="10.00">include/llvm/DebugInfo</text>
<text text-anchor="middle" x="1629" y="-342.5" font-family="Helvetica,sans-Serif" font-size="10.00">/CodeView/TypeCollection.h</text>
</g>
<!-- Node88 -->
<g id="node2" class="node">
<title>Node88</title>
<g id="a_node2"><a xlink:href="AppendingTypeTableBuilder_8h.html" target="_top" xlink:title="include/llvm/DebugInfo\l/CodeView/AppendingTypeTable\lBuilder.h">
<polygon fill="none" stroke="black" points="224.5,-257.5 224.5,-298.5 383.5,-298.5 383.5,-257.5 224.5,-257.5"/>
<text text-anchor="start" x="232.5" y="-286.5" font-family="Helvetica,sans-Serif" font-size="10.00">include/llvm/DebugInfo</text>
<text text-anchor="start" x="232.5" y="-275.5" font-family="Helvetica,sans-Serif" font-size="10.00">/CodeView/AppendingTypeTable</text>
<text text-anchor="middle" x="304" y="-264.5" font-family="Helvetica,sans-Serif" font-size="10.00">Builder.h</text>
</a>
</g>
</g>
<!-- Node87&#45;&gt;Node88 -->
<g id="edge1" class="edge">
<title>Node87&#45;&gt;Node88</title>
<path fill="none" stroke="midnightblue" d="M1548.23,-350.09C1352.59,-350.66 838.04,-347.04 412,-299 402.81,-297.96 393.23,-296.6 383.73,-295.08"/>
<polygon fill="midnightblue" stroke="midnightblue" points="1548.44,-353.59 1558.42,-350.06 1548.41,-346.59 1548.44,-353.59"/>
</g>
<!-- Node91 -->
<g id="node5" class="node">
<title>Node91</title>
<g id="a_node5"><a xlink:href="GlobalTypeTableBuilder_8h.html" target="_top" xlink:title="include/llvm/DebugInfo\l/CodeView/GlobalTypeTableBuilder.h">
<polygon fill="none" stroke="black" points="1587.5,-190.5 1587.5,-220.5 1766.5,-220.5 1766.5,-190.5 1587.5,-190.5"/>
<text text-anchor="start" x="1595.5" y="-208.5" font-family="Helvetica,sans-Serif" font-size="10.00">include/llvm/DebugInfo</text>
<text text-anchor="middle" x="1677" y="-197.5" font-family="Helvetica,sans-Serif" font-size="10.00">/CodeView/GlobalTypeTableBuilder.h</text>
</a>
</g>
</g>
<!-- Node87&#45;&gt;Node91 -->
<g id="edge4" class="edge">
<title>Node87&#45;&gt;Node91</title>
<path fill="none" stroke="midnightblue" d="M1626.18,-325.4C1624.89,-306.19 1625.24,-278.95 1634,-257 1639.63,-242.88 1650.89,-229.9 1660.47,-220.63"/>
<polygon fill="midnightblue" stroke="midnightblue" points="1622.7,-325.77 1627.05,-335.43 1629.67,-325.16 1622.7,-325.77"/>
</g>
<!-- Node97 -->
<g id="node11" class="node">
<title>Node97</title>
<g id="a_node11"><a xlink:href="LazyRandomTypeCollection_8h.html" target="_top" xlink:title="include/llvm/DebugInfo\l/CodeView/LazyRandomTypeCollection.h">
<polygon fill="none" stroke="black" points="1260.5,-263 1260.5,-293 1459.5,-293 1459.5,-263 1260.5,-263"/>
<text text-anchor="start" x="1268.5" y="-281" font-family="Helvetica,sans-Serif" font-size="10.00">include/llvm/DebugInfo</text>
<text text-anchor="middle" x="1360" y="-270" font-family="Helvetica,sans-Serif" font-size="10.00">/CodeView/LazyRandomTypeCollection.h</text>
</a>
</g>
</g>
<!-- Node87&#45;&gt;Node97 -->
<g id="edge10" class="edge">
<title>Node87&#45;&gt;Node97</title>
<path fill="none" stroke="midnightblue" d="M1565.64,-332.89C1519.47,-320.79 1457.61,-304.58 1413.83,-293.11"/>
<polygon fill="midnightblue" stroke="midnightblue" points="1564.97,-336.34 1575.53,-335.49 1566.75,-329.57 1564.97,-336.34"/>
</g>
<!-- Node106 -->
<g id="node20" class="node">
<title>Node106</title>
<g id="a_node20"><a xlink:href="MergingTypeTableBuilder_8h.html" target="_top" xlink:title="include/llvm/DebugInfo\l/CodeView/MergingTypeTableBuilder.h">
<polygon fill="none" stroke="black" points="1785,-190.5 1785,-220.5 1971,-220.5 1971,-190.5 1785,-190.5"/>
<text text-anchor="start" x="1793" y="-208.5" font-family="Helvetica,sans-Serif" font-size="10.00">include/llvm/DebugInfo</text>
<text text-anchor="middle" x="1878" y="-197.5" font-family="Helvetica,sans-Serif" font-size="10.00">/CodeView/MergingTypeTableBuilder.h</text>
</a>
</g>
</g>
<!-- Node87&#45;&gt;Node106 -->
<g id="edge20" class="edge">
<title>Node87&#45;&gt;Node106</title>
<path fill="none" stroke="midnightblue" d="M1632.62,-325.42C1637.06,-304.32 1646.69,-274.38 1667,-257 1685.13,-241.48 1737.04,-228.95 1784.82,-220.25"/>
<polygon fill="midnightblue" stroke="midnightblue" points="1629.18,-324.78 1630.78,-335.26 1636.06,-326.07 1629.18,-324.78"/>
</g>
<!-- Node108 -->
<g id="node22" class="node">
<title>Node108</title>
<g id="a_node22"><a xlink:href="RecordName_8h.html" target="_top" xlink:title="include/llvm/DebugInfo\l/CodeView/RecordName.h">
<polygon fill="none" stroke="black" points="872,-263 872,-293 1006,-293 1006,-263 872,-263"/>
<text text-anchor="start" x="880" y="-281" font-family="Helvetica,sans-Serif" font-size="10.00">include/llvm/DebugInfo</text>
<text text-anchor="middle" x="939" y="-270" font-family="Helvetica,sans-Serif" font-size="10.00">/CodeView/RecordName.h</text>
</a>
</g>
</g>
<!-- Node87&#45;&gt;Node108 -->
<g id="edge23" class="edge">
<title>Node87&#45;&gt;Node108</title>
<path fill="none" stroke="midnightblue" d="M1548.35,-341.26C1410.91,-327.22 1133.84,-298.91 1006.19,-285.86"/>
<polygon fill="midnightblue" stroke="midnightblue" points="1548.1,-344.75 1558.4,-342.29 1548.81,-337.79 1548.1,-344.75"/>
</g>
<!-- Node113 -->
<g id="node27" class="node">
<title>Node113</title>
<g id="a_node27"><a xlink:href="TypeHashing_8h.html" target="_top" xlink:title="include/llvm/DebugInfo\l/CodeView/TypeHashing.h">
<polygon fill="none" stroke="black" points="1676,-263 1676,-293 1810,-293 1810,-263 1676,-263"/>
<text text-anchor="start" x="1684" y="-281" font-family="Helvetica,sans-Serif" font-size="10.00">include/llvm/DebugInfo</text>
<text text-anchor="middle" x="1743" y="-270" font-family="Helvetica,sans-Serif" font-size="10.00">/CodeView/TypeHashing.h</text>
</a>
</g>
</g>
<!-- Node87&#45;&gt;Node113 -->
<g id="edge30" class="edge">
<title>Node87&#45;&gt;Node113</title>
<path fill="none" stroke="midnightblue" d="M1660.4,-330.08C1679.36,-318.36 1703.09,-303.68 1720.24,-293.07"/>
<polygon fill="midnightblue" stroke="midnightblue" points="1658.46,-327.17 1651.8,-335.4 1662.14,-333.12 1658.46,-327.17"/>
</g>
<!-- Node125 -->
<g id="node39" class="node">
<title>Node125</title>
<g id="a_node39"><a xlink:href="TypeTableCollection_8h.html" target="_top" xlink:title="include/llvm/DebugInfo\l/CodeView/TypeTableCollection.h">
<polygon fill="none" stroke="black" points="421.5,-263 421.5,-293 586.5,-293 586.5,-263 421.5,-263"/>
<text text-anchor="start" x="429.5" y="-281" font-family="Helvetica,sans-Serif" font-size="10.00">include/llvm/DebugInfo</text>
<text text-anchor="middle" x="504" y="-270" font-family="Helvetica,sans-Serif" font-size="10.00">/CodeView/TypeTableCollection.h</text>
</a>
</g>
</g>
<!-- Node87&#45;&gt;Node125 -->
<g id="edge44" class="edge">
<title>Node87&#45;&gt;Node125</title>
<path fill="none" stroke="midnightblue" d="M1548.02,-344.43C1341.2,-331.46 795.17,-297.25 586.59,-284.18"/>
<polygon fill="midnightblue" stroke="midnightblue" points="1548,-347.93 1558.2,-345.06 1548.44,-340.94 1548,-347.93"/>
</g>
<!-- Node126 -->
<g id="node40" class="node">
<title>Node126</title>
<g id="a_node40"><a xlink:href="CVTypeVisitor_8cpp.html" target="_top" xlink:title="lib/DebugInfo/CodeView\l/CVTypeVisitor.cpp">
<polygon fill="none" stroke="black" points="1828,-263 1828,-293 1950,-293 1950,-263 1828,-263"/>
<text text-anchor="start" x="1836" y="-281" font-family="Helvetica,sans-Serif" font-size="10.00">lib/DebugInfo/CodeView</text>
<text text-anchor="middle" x="1889" y="-270" font-family="Helvetica,sans-Serif" font-size="10.00">/CVTypeVisitor.cpp</text>
</a>
</g>
</g>
<!-- Node87&#45;&gt;Node126 -->
<g id="edge47" class="edge">
<title>Node87&#45;&gt;Node126</title>
<path fill="none" stroke="midnightblue" d="M1693.23,-332.74C1730.08,-323.05 1777.19,-310.53 1819,-299 1825.82,-297.12 1833.01,-295.1 1840.08,-293.1"/>
<polygon fill="midnightblue" stroke="midnightblue" points="1691.91,-329.47 1683.12,-335.4 1693.69,-336.24 1691.91,-329.47"/>
</g>
<!-- Node127 -->
<g id="node41" class="node">
<title>Node127</title>
<g id="a_node41"><a xlink:href="TypeDumpVisitor_8cpp.html" target="_top" xlink:title="lib/DebugInfo/CodeView\l/TypeDumpVisitor.cpp">
<polygon fill="none" stroke="black" points="1968,-263 1968,-293 2090,-293 2090,-263 1968,-263"/>
<text text-anchor="start" x="1976" y="-281" font-family="Helvetica,sans-Serif" font-size="10.00">lib/DebugInfo/CodeView</text>
<text text-anchor="middle" x="2029" y="-270" font-family="Helvetica,sans-Serif" font-size="10.00">/TypeDumpVisitor.cpp</text>
</a>
</g>
</g>
<!-- Node87&#45;&gt;Node127 -->
<g id="edge48" class="edge">
<title>Node87&#45;&gt;Node127</title>
<path fill="none" stroke="midnightblue" d="M1709.73,-340.04C1776.87,-331.49 1874.71,-317.41 1959,-299 1966.78,-297.3 1974.97,-295.23 1982.9,-293.06"/>
<polygon fill="midnightblue" stroke="midnightblue" points="1709.13,-336.59 1699.64,-341.32 1710,-343.54 1709.13,-336.59"/>
</g>
<!-- Node128 -->
<g id="node42" class="node">
<title>Node128</title>
<g id="a_node42"><a xlink:href="TypeIndex_8cpp.html" target="_top" xlink:title="lib/DebugInfo/CodeView\l/TypeIndex.cpp">
<polygon fill="none" stroke="black" points="2108,-263 2108,-293 2230,-293 2230,-263 2108,-263"/>
<text text-anchor="start" x="2116" y="-281" font-family="Helvetica,sans-Serif" font-size="10.00">lib/DebugInfo/CodeView</text>
<text text-anchor="middle" x="2169" y="-270" font-family="Helvetica,sans-Serif" font-size="10.00">/TypeIndex.cpp</text>
</a>
</g>
</g>
<!-- Node87&#45;&gt;Node128 -->
<g id="edge49" class="edge">
<title>Node87&#45;&gt;Node128</title>
<path fill="none" stroke="midnightblue" d="M1709.66,-345.05C1803.78,-338.88 1963.77,-325.38 2099,-299 2107.19,-297.4 2115.81,-295.3 2124.09,-293.06"/>
<polygon fill="midnightblue" stroke="midnightblue" points="1709.39,-341.56 1699.63,-345.69 1709.84,-348.54 1709.39,-341.56"/>
</g>
<!-- Node89 -->
<g id="node3" class="node">
<title>Node89</title>
<g id="a_node3"><a xlink:href="AppendingTypeTableBuilder_8cpp.html" target="_top" xlink:title="lib/DebugInfo/CodeView\l/AppendingTypeTableBuilder.cpp">
<polygon fill="none" stroke="black" points="224,-190.5 224,-220.5 384,-220.5 384,-190.5 224,-190.5"/>
<text text-anchor="start" x="232" y="-208.5" font-family="Helvetica,sans-Serif" font-size="10.00">lib/DebugInfo/CodeView</text>
<text text-anchor="middle" x="304" y="-197.5" font-family="Helvetica,sans-Serif" font-size="10.00">/AppendingTypeTableBuilder.cpp</text>
</a>
</g>
</g>
<!-- Node88&#45;&gt;Node89 -->
<g id="edge2" class="edge">
<title>Node88&#45;&gt;Node89</title>
<path fill="none" stroke="midnightblue" d="M304,-247.08C304,-238.01 304,-228.45 304,-220.89"/>
<polygon fill="midnightblue" stroke="midnightblue" points="300.5,-247.36 304,-257.36 307.5,-247.36 300.5,-247.36"/>
</g>
<!-- Node90 -->
<g id="node4" class="node">
<title>Node90</title>
<g id="a_node4"><a xlink:href="CodeViewYAMLTypes_8cpp.html" target="_top" xlink:title="lib/ObjectYAML/CodeViewYAMLTypes.cpp">
<polygon fill="none" stroke="black" points="0,-196 0,-215 206,-215 206,-196 0,-196"/>
<text text-anchor="middle" x="103" y="-203" font-family="Helvetica,sans-Serif" font-size="10.00">lib/ObjectYAML/CodeViewYAMLTypes.cpp</text>
</a>
</g>
</g>
<!-- Node88&#45;&gt;Node90 -->
<g id="edge3" class="edge">
<title>Node88&#45;&gt;Node90</title>
<path fill="none" stroke="midnightblue" d="M238.77,-254.12C200.63,-240.74 154.74,-224.65 127.27,-215.01"/>
<polygon fill="midnightblue" stroke="midnightblue" points="237.68,-257.45 248.28,-257.46 240,-250.84 237.68,-257.45"/>
</g>
<!-- Node92 -->
<g id="node6" class="node">
<title>Node92</title>
<g id="a_node6"><a xlink:href="CodeViewDebug_8h.html" target="_top" xlink:title="lib/CodeGen/AsmPrinter\l/CodeViewDebug.h">
<polygon fill="none" stroke="black" points="1553,-123.5 1553,-153.5 1675,-153.5 1675,-123.5 1553,-123.5"/>
<text text-anchor="start" x="1561" y="-141.5" font-family="Helvetica,sans-Serif" font-size="10.00">lib/CodeGen/AsmPrinter</text>
<text text-anchor="middle" x="1614" y="-130.5" font-family="Helvetica,sans-Serif" font-size="10.00">/CodeViewDebug.h</text>
</a>
</g>
</g>
<!-- Node91&#45;&gt;Node92 -->
<g id="edge5" class="edge">
<title>Node91&#45;&gt;Node92</title>
<path fill="none" stroke="midnightblue" d="M1656.19,-183.02C1646.8,-173.34 1635.98,-162.17 1627.64,-153.58"/>
<polygon fill="midnightblue" stroke="midnightblue" points="1653.86,-185.65 1663.33,-190.4 1658.88,-180.78 1653.86,-185.65"/>
</g>
<!-- Node95 -->
<g id="node9" class="node">
<title>Node95</title>
<g id="a_node9"><a xlink:href="GlobalTypeTableBuilder_8cpp.html" target="_top" xlink:title="lib/DebugInfo/CodeView\l/GlobalTypeTableBuilder.cpp">
<polygon fill="none" stroke="black" points="1693,-123.5 1693,-153.5 1835,-153.5 1835,-123.5 1693,-123.5"/>
<text text-anchor="start" x="1701" y="-141.5" font-family="Helvetica,sans-Serif" font-size="10.00">lib/DebugInfo/CodeView</text>
<text text-anchor="middle" x="1764" y="-130.5" font-family="Helvetica,sans-Serif" font-size="10.00">/GlobalTypeTableBuilder.cpp</text>
</a>
</g>
</g>
<!-- Node91&#45;&gt;Node95 -->
<g id="edge8" class="edge">
<title>Node91&#45;&gt;Node95</title>
<path fill="none" stroke="midnightblue" d="M1704.21,-184.17C1717.52,-174.23 1733.2,-162.51 1745.16,-153.58"/>
<polygon fill="midnightblue" stroke="midnightblue" points="1701.79,-181.61 1695.88,-190.4 1705.98,-187.21 1701.79,-181.61"/>
</g>
<!-- Node96 -->
<g id="node10" class="node">
<title>Node96</title>
<g id="a_node10"><a xlink:href="TypeStreamMerger_8cpp.html" target="_top" xlink:title="lib/DebugInfo/CodeView\l/TypeStreamMerger.cpp">
<polygon fill="none" stroke="black" points="1853,-123.5 1853,-153.5 1975,-153.5 1975,-123.5 1853,-123.5"/>
<text text-anchor="start" x="1861" y="-141.5" font-family="Helvetica,sans-Serif" font-size="10.00">lib/DebugInfo/CodeView</text>
<text text-anchor="middle" x="1914" y="-130.5" font-family="Helvetica,sans-Serif" font-size="10.00">/TypeStreamMerger.cpp</text>
</a>
</g>
</g>
<!-- Node91&#45;&gt;Node96 -->
<g id="edge9" class="edge">
<title>Node91&#45;&gt;Node96</title>
<path fill="none" stroke="midnightblue" d="M1738.2,-187.71C1776.77,-177.14 1826,-163.63 1862.55,-153.61"/>
<polygon fill="midnightblue" stroke="midnightblue" points="1736.85,-184.46 1728.13,-190.48 1738.7,-191.21 1736.85,-184.46"/>
</g>
<!-- Node93 -->
<g id="node7" class="node">
<title>Node93</title>
<g id="a_node7"><a xlink:href="AsmPrinter_8cpp.html" target="_top" xlink:title="lib/CodeGen/AsmPrinter\l/AsmPrinter.cpp">
<polygon fill="none" stroke="black" points="1553,-56.5 1553,-86.5 1675,-86.5 1675,-56.5 1553,-56.5"/>
<text text-anchor="start" x="1561" y="-74.5" font-family="Helvetica,sans-Serif" font-size="10.00">lib/CodeGen/AsmPrinter</text>
<text text-anchor="middle" x="1614" y="-63.5" font-family="Helvetica,sans-Serif" font-size="10.00">/AsmPrinter.cpp</text>
</a>
</g>
</g>
<!-- Node92&#45;&gt;Node93 -->
<g id="edge6" class="edge">
<title>Node92&#45;&gt;Node93</title>
<path fill="none" stroke="midnightblue" d="M1614,-113.11C1614,-104.15 1614,-94.32 1614,-86.58"/>
<polygon fill="midnightblue" stroke="midnightblue" points="1610.5,-113.4 1614,-123.4 1617.5,-113.4 1610.5,-113.4"/>
</g>
<!-- Node94 -->
<g id="node8" class="node">
<title>Node94</title>
<g id="a_node8"><a xlink:href="CodeViewDebug_8cpp.html" target="_top" xlink:title="lib/CodeGen/AsmPrinter\l/CodeViewDebug.cpp">
<polygon fill="none" stroke="black" points="882,-56.5 882,-86.5 1004,-86.5 1004,-56.5 882,-56.5"/>
<text text-anchor="start" x="890" y="-74.5" font-family="Helvetica,sans-Serif" font-size="10.00">lib/CodeGen/AsmPrinter</text>
<text text-anchor="middle" x="943" y="-63.5" font-family="Helvetica,sans-Serif" font-size="10.00">/CodeViewDebug.cpp</text>
</a>
</g>
</g>
<!-- Node92&#45;&gt;Node94 -->
<g id="edge7" class="edge">
<title>Node92&#45;&gt;Node94</title>
<path fill="none" stroke="midnightblue" d="M1543.06,-122.98C1340.36,-94.11 1111.53,-80.48 1004.27,-75.21"/>
<polygon fill="midnightblue" stroke="midnightblue" points="1542.6,-126.45 1552.99,-124.41 1543.59,-119.52 1542.6,-126.45"/>
</g>
<!-- Node98 -->
<g id="node12" class="node">
<title>Node98</title>
<g id="a_node12"><a xlink:href="NativeEnumTypes_8h.html" target="_top" xlink:title="include/llvm/DebugInfo\l/PDB/Native/NativeEnumTypes.h">
<polygon fill="none" stroke="black" points="1388,-190.5 1388,-220.5 1552,-220.5 1552,-190.5 1388,-190.5"/>
<text text-anchor="start" x="1396" y="-208.5" font-family="Helvetica,sans-Serif" font-size="10.00">include/llvm/DebugInfo</text>
<text text-anchor="middle" x="1470" y="-197.5" font-family="Helvetica,sans-Serif" font-size="10.00">/PDB/Native/NativeEnumTypes.h</text>
</a>
</g>
</g>
<!-- Node97&#45;&gt;Node98 -->
<g id="edge11" class="edge">
<title>Node97&#45;&gt;Node98</title>
<path fill="none" stroke="midnightblue" d="M1390.55,-257.42C1408.8,-245.72 1431.56,-231.13 1448.04,-220.57"/>
<polygon fill="midnightblue" stroke="midnightblue" points="1388.53,-254.56 1382,-262.9 1392.3,-260.45 1388.53,-254.56"/>
</g>
<!-- Node102 -->
<g id="node16" class="node">
<title>Node102</title>
<g id="a_node16"><a xlink:href="NativeTypeFunctionSig_8cpp.html" target="_top" xlink:title="lib/DebugInfo/PDB/Native\l/NativeTypeFunctionSig.cpp">
<polygon fill="none" stroke="black" points="803,-123.5 803,-153.5 943,-153.5 943,-123.5 803,-123.5"/>
<text text-anchor="start" x="811" y="-141.5" font-family="Helvetica,sans-Serif" font-size="10.00">lib/DebugInfo/PDB/Native</text>
<text text-anchor="middle" x="873" y="-130.5" font-family="Helvetica,sans-Serif" font-size="10.00">/NativeTypeFunctionSig.cpp</text>
</a>
</g>
</g>
<!-- Node97&#45;&gt;Node102 -->
<g id="edge18" class="edge">
<title>Node97&#45;&gt;Node102</title>
<path fill="none" stroke="midnightblue" d="M1361.86,-252.58C1361.92,-232.66 1358.39,-205.38 1341,-190 1275.96,-132.49 1038,-165.85 952,-154 949.1,-153.6 946.14,-153.17 943.16,-152.71"/>
<polygon fill="midnightblue" stroke="midnightblue" points="1358.36,-252.66 1361.52,-262.77 1365.35,-252.89 1358.36,-252.66"/>
</g>
<!-- Node104 -->
<g id="node18" class="node">
<title>Node104</title>
<g id="a_node18"><a xlink:href="LazyRandomTypeCollection_8cpp.html" target="_top" xlink:title="lib/DebugInfo/CodeView\l/LazyRandomTypeCollection.cpp">
<polygon fill="none" stroke="black" points="1022.5,-190.5 1022.5,-220.5 1183.5,-220.5 1183.5,-190.5 1022.5,-190.5"/>
<text text-anchor="start" x="1030.5" y="-208.5" font-family="Helvetica,sans-Serif" font-size="10.00">lib/DebugInfo/CodeView</text>
<text text-anchor="middle" x="1103" y="-197.5" font-family="Helvetica,sans-Serif" font-size="10.00">/LazyRandomTypeCollection.cpp</text>
</a>
</g>
</g>
<!-- Node97&#45;&gt;Node104 -->
<g id="edge17" class="edge">
<title>Node97&#45;&gt;Node104</title>
<path fill="none" stroke="midnightblue" d="M1299.19,-260.32C1255.11,-248.23 1196.16,-232.06 1154.43,-220.61"/>
<polygon fill="midnightblue" stroke="midnightblue" points="1298.35,-263.72 1308.92,-262.99 1300.2,-256.97 1298.35,-263.72"/>
</g>
<!-- Node105 -->
<g id="node19" class="node">
<title>Node105</title>
<g id="a_node19"><a xlink:href="TpiStream_8cpp.html" target="_top" xlink:title="lib/DebugInfo/PDB/Native\l/TpiStream.cpp">
<polygon fill="none" stroke="black" points="1202,-190.5 1202,-220.5 1332,-220.5 1332,-190.5 1202,-190.5"/>
<text text-anchor="start" x="1210" y="-208.5" font-family="Helvetica,sans-Serif" font-size="10.00">lib/DebugInfo/PDB/Native</text>
<text text-anchor="middle" x="1267" y="-197.5" font-family="Helvetica,sans-Serif" font-size="10.00">/TpiStream.cpp</text>
</a>
</g>
</g>
<!-- Node97&#45;&gt;Node105 -->
<g id="edge19" class="edge">
<title>Node97&#45;&gt;Node105</title>
<path fill="none" stroke="midnightblue" d="M1333.1,-256.61C1317.83,-245.03 1299.09,-230.83 1285.47,-220.5"/>
<polygon fill="midnightblue" stroke="midnightblue" points="1331.1,-259.48 1341.18,-262.73 1335.33,-253.9 1331.1,-259.48"/>
</g>
<!-- Node99 -->
<g id="node13" class="node">
<title>Node99</title>
<g id="a_node13"><a xlink:href="NativeEnumTypes_8cpp.html" target="_top" xlink:title="lib/DebugInfo/PDB/Native\l/NativeEnumTypes.cpp">
<polygon fill="none" stroke="black" points="1109,-123.5 1109,-153.5 1239,-153.5 1239,-123.5 1109,-123.5"/>
<text text-anchor="start" x="1117" y="-141.5" font-family="Helvetica,sans-Serif" font-size="10.00">lib/DebugInfo/PDB/Native</text>
<text text-anchor="middle" x="1174" y="-130.5" font-family="Helvetica,sans-Serif" font-size="10.00">/NativeEnumTypes.cpp</text>
</a>
</g>
</g>
<!-- Node98&#45;&gt;Node99 -->
<g id="edge12" class="edge">
<title>Node98&#45;&gt;Node99</title>
<path fill="none" stroke="midnightblue" d="M1396.3,-188.32C1347.65,-177.63 1284.54,-163.77 1238,-153.55"/>
<polygon fill="midnightblue" stroke="midnightblue" points="1395.62,-191.75 1406.14,-190.48 1397.12,-184.91 1395.62,-191.75"/>
</g>
<!-- Node100 -->
<g id="node14" class="node">
<title>Node100</title>
<g id="a_node14"><a xlink:href="NativeSession_8cpp.html" target="_top" xlink:title="lib/DebugInfo/PDB/Native\l/NativeSession.cpp">
<polygon fill="none" stroke="black" points="1257,-123.5 1257,-153.5 1387,-153.5 1387,-123.5 1257,-123.5"/>
<text text-anchor="start" x="1265" y="-141.5" font-family="Helvetica,sans-Serif" font-size="10.00">lib/DebugInfo/PDB/Native</text>
<text text-anchor="middle" x="1322" y="-130.5" font-family="Helvetica,sans-Serif" font-size="10.00">/NativeSession.cpp</text>
</a>
</g>
</g>
<!-- Node98&#45;&gt;Node100 -->
<g id="edge13" class="edge">
<title>Node98&#45;&gt;Node100</title>
<path fill="none" stroke="midnightblue" d="M1428.49,-186.27C1404.92,-175.92 1375.86,-163.15 1354.05,-153.58"/>
<polygon fill="midnightblue" stroke="midnightblue" points="1427.32,-189.58 1437.89,-190.4 1430.14,-183.17 1427.32,-189.58"/>
</g>
<!-- Node101 -->
<g id="node15" class="node">
<title>Node101</title>
<g id="a_node15"><a xlink:href="NativeTypeEnum_8cpp.html" target="_top" xlink:title="lib/DebugInfo/PDB/Native\l/NativeTypeEnum.cpp">
<polygon fill="none" stroke="black" points="1405,-123.5 1405,-153.5 1535,-153.5 1535,-123.5 1405,-123.5"/>
<text text-anchor="start" x="1413" y="-141.5" font-family="Helvetica,sans-Serif" font-size="10.00">lib/DebugInfo/PDB/Native</text>
<text text-anchor="middle" x="1470" y="-130.5" font-family="Helvetica,sans-Serif" font-size="10.00">/NativeTypeEnum.cpp</text>
</a>
</g>
</g>
<!-- Node98&#45;&gt;Node101 -->
<g id="edge14" class="edge">
<title>Node98&#45;&gt;Node101</title>
<path fill="none" stroke="midnightblue" d="M1470,-180.11C1470,-171.15 1470,-161.32 1470,-153.58"/>
<polygon fill="midnightblue" stroke="midnightblue" points="1466.5,-180.4 1470,-190.4 1473.5,-180.4 1466.5,-180.4"/>
</g>
<!-- Node98&#45;&gt;Node102 -->
<g id="edge15" class="edge">
<title>Node98&#45;&gt;Node102</title>
<path fill="none" stroke="midnightblue" d="M1377.84,-190.46C1376.55,-190.3 1375.27,-190.15 1374,-190 1187.06,-167.93 1138.57,-179.02 952,-154 949.1,-153.61 946.14,-153.19 943.16,-152.74"/>
<polygon fill="midnightblue" stroke="midnightblue" points="1377.47,-193.94 1387.83,-191.73 1378.35,-187 1377.47,-193.94"/>
</g>
<!-- Node103 -->
<g id="node17" class="node">
<title>Node103</title>
<g id="a_node17"><a xlink:href="SymbolCache_8cpp.html" target="_top" xlink:title="lib/DebugInfo/PDB/Native\l/SymbolCache.cpp">
<polygon fill="none" stroke="black" points="961,-123.5 961,-153.5 1091,-153.5 1091,-123.5 961,-123.5"/>
<text text-anchor="start" x="969" y="-141.5" font-family="Helvetica,sans-Serif" font-size="10.00">lib/DebugInfo/PDB/Native</text>
<text text-anchor="middle" x="1026" y="-130.5" font-family="Helvetica,sans-Serif" font-size="10.00">/SymbolCache.cpp</text>
</a>
</g>
</g>
<!-- Node98&#45;&gt;Node103 -->
<g id="edge16" class="edge">
<title>Node98&#45;&gt;Node103</title>
<path fill="none" stroke="midnightblue" d="M1377.83,-190.54C1376.54,-190.36 1375.27,-190.18 1374,-190 1252.38,-172.83 1221.21,-173.82 1100,-154 1097.16,-153.54 1094.26,-153.04 1091.33,-152.53"/>
<polygon fill="midnightblue" stroke="midnightblue" points="1377.4,-194.02 1387.8,-191.98 1378.4,-187.09 1377.4,-194.02"/>
</g>
<!-- Node106&#45;&gt;Node96 -->
<g id="edge22" class="edge">
<title>Node106&#45;&gt;Node96</title>
<path fill="none" stroke="midnightblue" d="M1890.7,-181.58C1895.87,-172.24 1901.68,-161.75 1906.2,-153.58"/>
<polygon fill="midnightblue" stroke="midnightblue" points="1887.59,-179.95 1885.81,-190.4 1893.72,-183.34 1887.59,-179.95"/>
</g>
<!-- Node107 -->
<g id="node21" class="node">
<title>Node107</title>
<g id="a_node21"><a xlink:href="MergingTypeTableBuilder_8cpp.html" target="_top" xlink:title="lib/DebugInfo/CodeView\l/MergingTypeTableBuilder.cpp">
<polygon fill="none" stroke="black" points="1993.5,-123.5 1993.5,-153.5 2142.5,-153.5 2142.5,-123.5 1993.5,-123.5"/>
<text text-anchor="start" x="2001.5" y="-141.5" font-family="Helvetica,sans-Serif" font-size="10.00">lib/DebugInfo/CodeView</text>
<text text-anchor="middle" x="2068" y="-130.5" font-family="Helvetica,sans-Serif" font-size="10.00">/MergingTypeTableBuilder.cpp</text>
</a>
</g>
</g>
<!-- Node106&#45;&gt;Node107 -->
<g id="edge21" class="edge">
<title>Node106&#45;&gt;Node107</title>
<path fill="none" stroke="midnightblue" d="M1928.89,-187.09C1959.56,-176.6 1998.11,-163.41 2026.85,-153.58"/>
<polygon fill="midnightblue" stroke="midnightblue" points="1927.56,-183.85 1919.23,-190.4 1929.82,-190.47 1927.56,-183.85"/>
</g>
<!-- Node108&#45;&gt;Node104 -->
<g id="edge24" class="edge">
<title>Node108&#45;&gt;Node104</title>
<path fill="none" stroke="midnightblue" d="M981.24,-258.84C1008.96,-246.92 1044.69,-231.57 1070.26,-220.57"/>
<polygon fill="midnightblue" stroke="midnightblue" points="979.6,-255.74 971.79,-262.9 982.36,-262.17 979.6,-255.74"/>
</g>
<!-- Node108&#45;&gt;Node105 -->
<g id="edge29" class="edge">
<title>Node108&#45;&gt;Node105</title>
<path fill="none" stroke="midnightblue" d="M1014.18,-260.84C1070.88,-248.65 1147.86,-232.11 1201.93,-220.49"/>
<polygon fill="midnightblue" stroke="midnightblue" points="1013.24,-257.46 1004.19,-262.99 1014.71,-264.31 1013.24,-257.46"/>
</g>
<!-- Node109 -->
<g id="node23" class="node">
<title>Node109</title>
<g id="a_node23"><a xlink:href="RecordName_8cpp.html" target="_top" xlink:title="lib/DebugInfo/CodeView\l/RecordName.cpp">
<polygon fill="none" stroke="black" points="734,-190.5 734,-220.5 856,-220.5 856,-190.5 734,-190.5"/>
<text text-anchor="start" x="742" y="-208.5" font-family="Helvetica,sans-Serif" font-size="10.00">lib/DebugInfo/CodeView</text>
<text text-anchor="middle" x="795" y="-197.5" font-family="Helvetica,sans-Serif" font-size="10.00">/RecordName.cpp</text>
</a>
</g>
</g>
<!-- Node108&#45;&gt;Node109 -->
<g id="edge25" class="edge">
<title>Node108&#45;&gt;Node109</title>
<path fill="none" stroke="midnightblue" d="M900.95,-258.37C876.75,-246.52 845.9,-231.42 823.74,-220.57"/>
<polygon fill="midnightblue" stroke="midnightblue" points="899.69,-261.65 910.21,-262.9 902.76,-255.36 899.69,-261.65"/>
</g>
<!-- Node110 -->
<g id="node24" class="node">
<title>Node110</title>
<g id="a_node24"><a xlink:href="TypeTableCollection_8cpp.html" target="_top" xlink:title="lib/DebugInfo/CodeView\l/TypeTableCollection.cpp">
<polygon fill="none" stroke="black" points="440,-190.5 440,-220.5 568,-220.5 568,-190.5 440,-190.5"/>
<text text-anchor="start" x="448" y="-208.5" font-family="Helvetica,sans-Serif" font-size="10.00">lib/DebugInfo/CodeView</text>
<text text-anchor="middle" x="504" y="-197.5" font-family="Helvetica,sans-Serif" font-size="10.00">/TypeTableCollection.cpp</text>
</a>
</g>
</g>
<!-- Node108&#45;&gt;Node110 -->
<g id="edge26" class="edge">
<title>Node108&#45;&gt;Node110</title>
<path fill="none" stroke="midnightblue" d="M861.72,-266.02C788.32,-255.36 674.94,-238.29 577,-221 574.07,-220.48 571.08,-219.94 568.07,-219.39"/>
<polygon fill="midnightblue" stroke="midnightblue" points="861.41,-269.51 871.81,-267.48 862.41,-262.58 861.41,-269.51"/>
</g>
<!-- Node111 -->
<g id="node25" class="node">
<title>Node111</title>
<g id="a_node25"><a xlink:href="GlobalsStream_8cpp.html" target="_top" xlink:title="lib/DebugInfo/PDB/Native\l/GlobalsStream.cpp">
<polygon fill="none" stroke="black" points="874,-190.5 874,-220.5 1004,-220.5 1004,-190.5 874,-190.5"/>
<text text-anchor="start" x="882" y="-208.5" font-family="Helvetica,sans-Serif" font-size="10.00">lib/DebugInfo/PDB/Native</text>
<text text-anchor="middle" x="939" y="-197.5" font-family="Helvetica,sans-Serif" font-size="10.00">/GlobalsStream.cpp</text>
</a>
</g>
</g>
<!-- Node108&#45;&gt;Node111 -->
<g id="edge27" class="edge">
<title>Node108&#45;&gt;Node111</title>
<path fill="none" stroke="midnightblue" d="M939,-252.73C939,-242.07 939,-229.91 939,-220.75"/>
<polygon fill="midnightblue" stroke="midnightblue" points="935.5,-252.73 939,-262.73 942.5,-252.73 935.5,-252.73"/>
</g>
<!-- Node112 -->
<g id="node26" class="node">
<title>Node112</title>
<g id="a_node26"><a xlink:href="GSIStreamBuilder_8cpp.html" target="_top" xlink:title="lib/DebugInfo/PDB/Native\l/GSIStreamBuilder.cpp">
<polygon fill="none" stroke="black" points="586,-190.5 586,-220.5 716,-220.5 716,-190.5 586,-190.5"/>
<text text-anchor="start" x="594" y="-208.5" font-family="Helvetica,sans-Serif" font-size="10.00">lib/DebugInfo/PDB/Native</text>
<text text-anchor="middle" x="651" y="-197.5" font-family="Helvetica,sans-Serif" font-size="10.00">/GSIStreamBuilder.cpp</text>
</a>
</g>
</g>
<!-- Node108&#45;&gt;Node112 -->
<g id="edge28" class="edge">
<title>Node108&#45;&gt;Node112</title>
<path fill="none" stroke="midnightblue" d="M871.78,-260.55C822.29,-248.43 755.7,-232.13 708.63,-220.61"/>
<polygon fill="midnightblue" stroke="midnightblue" points="871.21,-264.01 881.76,-262.99 872.88,-257.21 871.21,-264.01"/>
</g>
<!-- Node113&#45;&gt;Node91 -->
<g id="edge31" class="edge">
<title>Node113&#45;&gt;Node91</title>
<path fill="none" stroke="midnightblue" d="M1722.75,-255.36C1712.21,-244.11 1699.64,-230.68 1690.34,-220.75"/>
<polygon fill="midnightblue" stroke="midnightblue" points="1720.25,-257.83 1729.64,-262.73 1725.36,-253.04 1720.25,-257.83"/>
</g>
<!-- Node113&#45;&gt;Node106 -->
<g id="edge32" class="edge">
<title>Node113&#45;&gt;Node106</title>
<path fill="none" stroke="midnightblue" d="M1778.97,-258.22C1801.62,-246.39 1830.37,-231.37 1851.05,-220.57"/>
<polygon fill="midnightblue" stroke="midnightblue" points="1777.24,-255.17 1769.99,-262.9 1780.48,-261.38 1777.24,-255.17"/>
</g>
<!-- Node114 -->
<g id="node28" class="node">
<title>Node114</title>
<g id="a_node28"><a xlink:href="CodeViewYAMLTypeHashing_8h.html" target="_top" xlink:title="include/llvm/ObjectYAML\l/CodeViewYAMLTypeHashing.h">
<polygon fill="none" stroke="black" points="2145,-190.5 2145,-220.5 2303,-220.5 2303,-190.5 2145,-190.5"/>
<text text-anchor="start" x="2153" y="-208.5" font-family="Helvetica,sans-Serif" font-size="10.00">include/llvm/ObjectYAML</text>
<text text-anchor="middle" x="2224" y="-197.5" font-family="Helvetica,sans-Serif" font-size="10.00">/CodeViewYAMLTypeHashing.h</text>
</a>
</g>
</g>
<!-- Node113&#45;&gt;Node114 -->
<g id="edge33" class="edge">
<title>Node113&#45;&gt;Node114</title>
<path fill="none" stroke="midnightblue" d="M1802.3,-260.55C1807.92,-259.25 1813.56,-258.04 1819,-257 1951.35,-231.8 1986.38,-238.3 2120,-221 2128.05,-219.96 2136.44,-218.84 2144.81,-217.7"/>
<polygon fill="midnightblue" stroke="midnightblue" points="1801.14,-257.23 1792.24,-262.98 1802.78,-264.04 1801.14,-257.23"/>
</g>
<!-- Node124 -->
<g id="node38" class="node">
<title>Node124</title>
<g id="a_node38"><a xlink:href="TypeHashing_8cpp.html" target="_top" xlink:title="lib/DebugInfo/CodeView\l/TypeHashing.cpp">
<polygon fill="none" stroke="black" points="1989,-190.5 1989,-220.5 2111,-220.5 2111,-190.5 1989,-190.5"/>
<text text-anchor="start" x="1997" y="-208.5" font-family="Helvetica,sans-Serif" font-size="10.00">lib/DebugInfo/CodeView</text>
<text text-anchor="middle" x="2050" y="-197.5" font-family="Helvetica,sans-Serif" font-size="10.00">/TypeHashing.cpp</text>
</a>
</g>
</g>
<!-- Node113&#45;&gt;Node124 -->
<g id="edge43" class="edge">
<title>Node113&#45;&gt;Node124</title>
<path fill="none" stroke="midnightblue" d="M1804.98,-260.46C1809.72,-259.27 1814.43,-258.1 1819,-257 1876.27,-243.21 1941.92,-229.01 1988.56,-219.2"/>
<polygon fill="midnightblue" stroke="midnightblue" points="1804.08,-257.08 1795.26,-262.94 1805.81,-263.86 1804.08,-257.08"/>
</g>
<!-- Node115 -->
<g id="node29" class="node">
<title>Node115</title>
<g id="a_node29"><a xlink:href="COFFYAML_8h.html" target="_top" xlink:title="include/llvm/ObjectYAML\l/COFFYAML.h">
<polygon fill="none" stroke="black" points="2160.5,-123.5 2160.5,-153.5 2287.5,-153.5 2287.5,-123.5 2160.5,-123.5"/>
<text text-anchor="start" x="2168.5" y="-141.5" font-family="Helvetica,sans-Serif" font-size="10.00">include/llvm/ObjectYAML</text>
<text text-anchor="middle" x="2224" y="-130.5" font-family="Helvetica,sans-Serif" font-size="10.00">/COFFYAML.h</text>
</a>
</g>
</g>
<!-- Node114&#45;&gt;Node115 -->
<g id="edge34" class="edge">
<title>Node114&#45;&gt;Node115</title>
<path fill="none" stroke="midnightblue" d="M2224,-180.11C2224,-171.15 2224,-161.32 2224,-153.58"/>
<polygon fill="midnightblue" stroke="midnightblue" points="2220.5,-180.4 2224,-190.4 2227.5,-180.4 2220.5,-180.4"/>
</g>
<!-- Node123 -->
<g id="node37" class="node">
<title>Node123</title>
<g id="a_node37"><a xlink:href="CodeViewYAMLTypeHashing_8cpp.html" target="_top" xlink:title="lib/ObjectYAML/CodeViewYAMLType\lHashing.cpp">
<polygon fill="none" stroke="black" points="2306,-123.5 2306,-153.5 2488,-153.5 2488,-123.5 2306,-123.5"/>
<text text-anchor="start" x="2314" y="-141.5" font-family="Helvetica,sans-Serif" font-size="10.00">lib/ObjectYAML/CodeViewYAMLType</text>
<text text-anchor="middle" x="2397" y="-130.5" font-family="Helvetica,sans-Serif" font-size="10.00">Hashing.cpp</text>
</a>
</g>
</g>
<!-- Node114&#45;&gt;Node123 -->
<g id="edge42" class="edge">
<title>Node114&#45;&gt;Node123</title>
<path fill="none" stroke="midnightblue" d="M2271.06,-186.82C2298.87,-176.37 2333.59,-163.32 2359.53,-153.58"/>
<polygon fill="midnightblue" stroke="midnightblue" points="2269.67,-183.6 2261.54,-190.4 2272.13,-190.16 2269.67,-183.6"/>
</g>
<!-- Node116 -->
<g id="node30" class="node">
<title>Node116</title>
<g id="a_node30"><a xlink:href="ObjectYAML_8h.html" target="_top" xlink:title="include/llvm/ObjectYAML\l/ObjectYAML.h">
<polygon fill="none" stroke="black" points="2079.5,-56.5 2079.5,-86.5 2206.5,-86.5 2206.5,-56.5 2079.5,-56.5"/>
<text text-anchor="start" x="2087.5" y="-74.5" font-family="Helvetica,sans-Serif" font-size="10.00">include/llvm/ObjectYAML</text>
<text text-anchor="middle" x="2143" y="-63.5" font-family="Helvetica,sans-Serif" font-size="10.00">/ObjectYAML.h</text>
</a>
</g>
</g>
<!-- Node115&#45;&gt;Node116 -->
<g id="edge35" class="edge">
<title>Node115&#45;&gt;Node116</title>
<path fill="none" stroke="midnightblue" d="M2198.31,-116.88C2186,-107.01 2171.57,-95.43 2160.54,-86.58"/>
<polygon fill="midnightblue" stroke="midnightblue" points="2196.43,-119.87 2206.42,-123.4 2200.82,-114.41 2196.43,-119.87"/>
</g>
<!-- Node122 -->
<g id="node36" class="node">
<title>Node122</title>
<g id="a_node36"><a xlink:href="COFFYAML_8cpp.html" target="_top" xlink:title="lib/ObjectYAML/COFFYAML.cpp">
<polygon fill="none" stroke="black" points="2224.5,-62 2224.5,-81 2385.5,-81 2385.5,-62 2224.5,-62"/>
<text text-anchor="middle" x="2305" y="-69" font-family="Helvetica,sans-Serif" font-size="10.00">lib/ObjectYAML/COFFYAML.cpp</text>
</a>
</g>
</g>
<!-- Node115&#45;&gt;Node122 -->
<g id="edge41" class="edge">
<title>Node115&#45;&gt;Node122</title>
<path fill="none" stroke="midnightblue" d="M2249.54,-117.01C2264.57,-104.94 2282.81,-90.3 2294.17,-81.19"/>
<polygon fill="midnightblue" stroke="midnightblue" points="2247.18,-114.41 2241.58,-123.4 2251.57,-119.87 2247.18,-114.41"/>
</g>
<!-- Node117 -->
<g id="node31" class="node">
<title>Node117</title>
<g id="a_node31"><a xlink:href="COFFEmitter_8cpp.html" target="_top" xlink:title="The COFF component of yaml2obj. ">
<polygon fill="none" stroke="black" points="1690.5,-0.5 1690.5,-19.5 1855.5,-19.5 1855.5,-0.5 1690.5,-0.5"/>
<text text-anchor="middle" x="1773" y="-7.5" font-family="Helvetica,sans-Serif" font-size="10.00">lib/ObjectYAML/COFFEmitter.cpp</text>
</a>
</g>
</g>
<!-- Node116&#45;&gt;Node117 -->
<g id="edge36" class="edge">
<title>Node116&#45;&gt;Node117</title>
<path fill="none" stroke="midnightblue" d="M2069.49,-58.68C1997.56,-47.11 1889.78,-29.78 1825.9,-19.51"/>
<polygon fill="midnightblue" stroke="midnightblue" points="2068.97,-62.14 2079.39,-60.27 2070.08,-55.23 2068.97,-62.14"/>
</g>
<!-- Node118 -->
<g id="node32" class="node">
<title>Node118</title>
<g id="a_node32"><a xlink:href="MachOEmitter_8cpp.html" target="_top" xlink:title="The Mach component of yaml2obj. ">
<polygon fill="none" stroke="black" points="1874,-0.5 1874,-19.5 2044,-19.5 2044,-0.5 1874,-0.5"/>
<text text-anchor="middle" x="1959" y="-7.5" font-family="Helvetica,sans-Serif" font-size="10.00">lib/ObjectYAML/MachOEmitter.cpp</text>
</a>
</g>
</g>
<!-- Node116&#45;&gt;Node118 -->
<g id="edge37" class="edge">
<title>Node116&#45;&gt;Node118</title>
<path fill="none" stroke="midnightblue" d="M2089.56,-53.22C2055.4,-42.17 2012.59,-28.33 1985.51,-19.57"/>
<polygon fill="midnightblue" stroke="midnightblue" points="2088.8,-56.65 2099.39,-56.4 2090.96,-49.99 2088.8,-56.65"/>
</g>
<!-- Node119 -->
<g id="node33" class="node">
<title>Node119</title>
<g id="a_node33"><a xlink:href="ObjectYAML_8cpp.html" target="_top" xlink:title="lib/ObjectYAML/ObjectYAML.cpp">
<polygon fill="none" stroke="black" points="2062,-0.5 2062,-19.5 2224,-19.5 2224,-0.5 2062,-0.5"/>
<text text-anchor="middle" x="2143" y="-7.5" font-family="Helvetica,sans-Serif" font-size="10.00">lib/ObjectYAML/ObjectYAML.cpp</text>
</a>
</g>
</g>
<!-- Node116&#45;&gt;Node119 -->
<g id="edge38" class="edge">
<title>Node116&#45;&gt;Node119</title>
<path fill="none" stroke="midnightblue" d="M2143,-46.29C2143,-36.86 2143,-26.65 2143,-19.66"/>
<polygon fill="midnightblue" stroke="midnightblue" points="2139.5,-46.4 2143,-56.4 2146.5,-46.4 2139.5,-46.4"/>
</g>
<!-- Node120 -->
<g id="node34" class="node">
<title>Node120</title>
<g id="a_node34"><a xlink:href="WasmEmitter_8cpp.html" target="_top" xlink:title="The Wasm component of yaml2obj. ">
<polygon fill="none" stroke="black" points="2242.5,-0.5 2242.5,-19.5 2409.5,-19.5 2409.5,-0.5 2242.5,-0.5"/>
<text text-anchor="middle" x="2326" y="-7.5" font-family="Helvetica,sans-Serif" font-size="10.00">lib/ObjectYAML/WasmEmitter.cpp</text>
</a>
</g>
</g>
<!-- Node116&#45;&gt;Node120 -->
<g id="edge39" class="edge">
<title>Node116&#45;&gt;Node120</title>
<path fill="none" stroke="midnightblue" d="M2196.15,-53.22C2230.12,-42.17 2272.7,-28.33 2299.64,-19.57"/>
<polygon fill="midnightblue" stroke="midnightblue" points="2194.8,-49.98 2186.37,-56.4 2196.96,-56.64 2194.8,-49.98"/>
</g>
<!-- Node121 -->
<g id="node35" class="node">
<title>Node121</title>
<g id="a_node35"><a xlink:href="yaml2obj_8cpp.html" target="_top" xlink:title="lib/ObjectYAML/yaml2obj.cpp">
<polygon fill="none" stroke="black" points="2428,-0.5 2428,-19.5 2574,-19.5 2574,-0.5 2428,-0.5"/>
<text text-anchor="middle" x="2501" y="-7.5" font-family="Helvetica,sans-Serif" font-size="10.00">lib/ObjectYAML/yaml2obj.cpp</text>
</a>
</g>
</g>
<!-- Node116&#45;&gt;Node121 -->
<g id="edge40" class="edge">
<title>Node116&#45;&gt;Node121</title>
<path fill="none" stroke="midnightblue" d="M2216.7,-55.92C2301.16,-40.99 2387.27,-27.77 2442.76,-19.51"/>
<polygon fill="midnightblue" stroke="midnightblue" points="2215.91,-52.5 2206.67,-57.7 2217.13,-59.4 2215.91,-52.5"/>
</g>
<!-- Node125&#45;&gt;Node94 -->
<g id="edge45" class="edge">
<title>Node125&#45;&gt;Node94</title>
<path fill="none" stroke="midnightblue" d="M468.9,-257.52C441.93,-240.05 412.21,-213.59 431,-190 486.83,-119.91 758.61,-88.19 881.93,-77.23"/>
<polygon fill="midnightblue" stroke="midnightblue" points="467.16,-260.56 477.5,-262.87 470.85,-254.62 467.16,-260.56"/>
</g>
<!-- Node125&#45;&gt;Node110 -->
<g id="edge46" class="edge">
<title>Node125&#45;&gt;Node110</title>
<path fill="none" stroke="midnightblue" d="M504,-252.73C504,-242.07 504,-229.91 504,-220.75"/>
<polygon fill="midnightblue" stroke="midnightblue" points="500.5,-252.73 504,-262.73 507.5,-252.73 500.5,-252.73"/>
</g>
</g>
</svg>
