<?xml version="1.0" encoding="UTF-8" standalone="no"?>
<!DOCTYPE svg PUBLIC "-//W3C//DTD SVG 1.1//EN"
 "http://www.w3.org/Graphics/SVG/1.1/DTD/svg11.dtd">
<!-- Generated by graphviz version 2.43.0 (0)
 -->
<!-- Title: include/llvm/Demangle/Utility.h Pages: 1 -->
<svg width="549pt" height="151pt"
 viewBox="0.00 0.00 549.00 151.00" xmlns="http://www.w3.org/2000/svg" xmlns:xlink="http://www.w3.org/1999/xlink">
<g id="graph0" class="graph" transform="scale(1 1) rotate(0) translate(4 147)">
<title>include/llvm/Demangle/Utility.h</title>
<!-- Node0 -->
<g id="node1" class="node">
<title>Node0</title>
<polygon fill="#bfbfbf" stroke="black" points="305,-112.5 305,-142.5 421,-142.5 421,-112.5 305,-112.5"/>
<text text-anchor="start" x="313" y="-130.5" font-family="Helvetica,sans-Serif" font-size="10.00">include/llvm/Demangle</text>
<text text-anchor="middle" x="363" y="-119.5" font-family="Helvetica,sans-Serif" font-size="10.00">/Utility.h</text>
</g>
<!-- Node1 -->
<g id="node2" class="node">
<title>Node1</title>
<g id="a_node2"><a xlink:href="StringView_8h.html" target="_top" xlink:title="StringView.h">
<polygon fill="none" stroke="black" points="179,-56.5 179,-75.5 251,-75.5 251,-56.5 179,-56.5"/>
<text text-anchor="middle" x="215" y="-63.5" font-family="Helvetica,sans-Serif" font-size="10.00">StringView.h</text>
</a>
</g>
</g>
<!-- Node0&#45;&gt;Node1 -->
<g id="edge1" class="edge">
<title>Node0&#45;&gt;Node1</title>
<path fill="none" stroke="midnightblue" d="M327.93,-112.4C302.98,-102.37 269.79,-89.03 245.86,-79.4"/>
<polygon fill="midnightblue" stroke="midnightblue" points="247.12,-76.14 236.54,-75.66 244.51,-82.64 247.12,-76.14"/>
</g>
<!-- Node5 -->
<g id="node6" class="node">
<title>Node5</title>
<polygon fill="none" stroke="#bfbfbf" points="258,-0.5 258,-19.5 304,-19.5 304,-0.5 258,-0.5"/>
<text text-anchor="middle" x="281" y="-7.5" font-family="Helvetica,sans-Serif" font-size="10.00">cstring</text>
</g>
<!-- Node0&#45;&gt;Node5 -->
<g id="edge8" class="edge">
<title>Node0&#45;&gt;Node5</title>
<path fill="none" stroke="midnightblue" d="M338.2,-112.36C324.78,-103.52 308.95,-90.97 299,-76 289.79,-62.13 285.25,-43.62 283.05,-29.9"/>
<polygon fill="midnightblue" stroke="midnightblue" points="286.48,-29.15 281.69,-19.7 279.54,-30.08 286.48,-29.15"/>
</g>
<!-- Node6 -->
<g id="node7" class="node">
<title>Node6</title>
<polygon fill="none" stroke="#bfbfbf" points="308,-56.5 308,-75.5 354,-75.5 354,-56.5 308,-56.5"/>
<text text-anchor="middle" x="331" y="-63.5" font-family="Helvetica,sans-Serif" font-size="10.00">cstdint</text>
</g>
<!-- Node0&#45;&gt;Node6 -->
<g id="edge6" class="edge">
<title>Node0&#45;&gt;Node6</title>
<path fill="none" stroke="midnightblue" d="M355.42,-112.4C350.96,-104.11 345.28,-93.55 340.52,-84.71"/>
<polygon fill="midnightblue" stroke="midnightblue" points="343.48,-82.81 335.66,-75.66 337.31,-86.12 343.48,-82.81"/>
</g>
<!-- Node7 -->
<g id="node8" class="node">
<title>Node7</title>
<polygon fill="none" stroke="#bfbfbf" points="372.5,-56.5 372.5,-75.5 417.5,-75.5 417.5,-56.5 372.5,-56.5"/>
<text text-anchor="middle" x="395" y="-63.5" font-family="Helvetica,sans-Serif" font-size="10.00">cstdlib</text>
</g>
<!-- Node0&#45;&gt;Node7 -->
<g id="edge7" class="edge">
<title>Node0&#45;&gt;Node7</title>
<path fill="none" stroke="midnightblue" d="M370.58,-112.4C375.04,-104.11 380.72,-93.55 385.48,-84.71"/>
<polygon fill="midnightblue" stroke="midnightblue" points="388.69,-86.12 390.34,-75.66 382.52,-82.81 388.69,-86.12"/>
</g>
<!-- Node8 -->
<g id="node9" class="node">
<title>Node8</title>
<polygon fill="none" stroke="#bfbfbf" points="435.5,-56.5 435.5,-75.5 482.5,-75.5 482.5,-56.5 435.5,-56.5"/>
<text text-anchor="middle" x="459" y="-63.5" font-family="Helvetica,sans-Serif" font-size="10.00">iterator</text>
</g>
<!-- Node0&#45;&gt;Node8 -->
<g id="edge9" class="edge">
<title>Node0&#45;&gt;Node8</title>
<path fill="none" stroke="midnightblue" d="M385.75,-112.4C400.99,-102.95 420.99,-90.56 436.24,-81.11"/>
<polygon fill="midnightblue" stroke="midnightblue" points="438.38,-83.9 445.03,-75.66 434.69,-77.95 438.38,-83.9"/>
</g>
<!-- Node9 -->
<g id="node10" class="node">
<title>Node9</title>
<polygon fill="none" stroke="#bfbfbf" points="501,-56.5 501,-75.5 541,-75.5 541,-56.5 501,-56.5"/>
<text text-anchor="middle" x="521" y="-63.5" font-family="Helvetica,sans-Serif" font-size="10.00">limits</text>
</g>
<!-- Node0&#45;&gt;Node9 -->
<g id="edge10" class="edge">
<title>Node0&#45;&gt;Node9</title>
<path fill="none" stroke="midnightblue" d="M400.44,-112.4C428.16,-101.96 465.41,-87.93 491.13,-78.25"/>
<polygon fill="midnightblue" stroke="midnightblue" points="492.59,-81.44 500.72,-74.64 490.13,-74.89 492.59,-81.44"/>
</g>
<!-- Node2 -->
<g id="node3" class="node">
<title>Node2</title>
<g id="a_node3"><a xlink:href="DemangleConfig_8h.html" target="_top" xlink:title="DemangleConfig.h">
<polygon fill="none" stroke="black" points="0,-0.5 0,-19.5 98,-19.5 98,-0.5 0,-0.5"/>
<text text-anchor="middle" x="49" y="-7.5" font-family="Helvetica,sans-Serif" font-size="10.00">DemangleConfig.h</text>
</a>
</g>
</g>
<!-- Node1&#45;&gt;Node2 -->
<g id="edge2" class="edge">
<title>Node1&#45;&gt;Node2</title>
<path fill="none" stroke="midnightblue" d="M188.7,-56.44C160.65,-47.32 116.06,-32.81 84.82,-22.65"/>
<polygon fill="midnightblue" stroke="midnightblue" points="85.77,-19.28 75.18,-19.52 83.61,-25.94 85.77,-19.28"/>
</g>
<!-- Node3 -->
<g id="node4" class="node">
<title>Node3</title>
<polygon fill="none" stroke="#bfbfbf" points="116,-0.5 116,-19.5 172,-19.5 172,-0.5 116,-0.5"/>
<text text-anchor="middle" x="144" y="-7.5" font-family="Helvetica,sans-Serif" font-size="10.00">algorithm</text>
</g>
<!-- Node1&#45;&gt;Node3 -->
<g id="edge3" class="edge">
<title>Node1&#45;&gt;Node3</title>
<path fill="none" stroke="midnightblue" d="M203.59,-56.32C192.89,-48.18 176.66,-35.84 163.84,-26.09"/>
<polygon fill="midnightblue" stroke="midnightblue" points="165.69,-23.1 155.61,-19.83 161.46,-28.67 165.69,-23.1"/>
</g>
<!-- Node4 -->
<g id="node5" class="node">
<title>Node4</title>
<polygon fill="none" stroke="#bfbfbf" points="190.5,-0.5 190.5,-19.5 239.5,-19.5 239.5,-0.5 190.5,-0.5"/>
<text text-anchor="middle" x="215" y="-7.5" font-family="Helvetica,sans-Serif" font-size="10.00">cassert</text>
</g>
<!-- Node1&#45;&gt;Node4 -->
<g id="edge4" class="edge">
<title>Node1&#45;&gt;Node4</title>
<path fill="none" stroke="midnightblue" d="M215,-56.08C215,-49.01 215,-38.86 215,-29.99"/>
<polygon fill="midnightblue" stroke="midnightblue" points="218.5,-29.75 215,-19.75 211.5,-29.75 218.5,-29.75"/>
</g>
<!-- Node1&#45;&gt;Node5 -->
<g id="edge5" class="edge">
<title>Node1&#45;&gt;Node5</title>
<path fill="none" stroke="midnightblue" d="M225.6,-56.32C235.46,-48.26 250.35,-36.08 262.22,-26.37"/>
<polygon fill="midnightblue" stroke="midnightblue" points="264.68,-28.88 270.2,-19.83 260.25,-23.46 264.68,-28.88"/>
</g>
</g>
</svg>
