<?xml version="1.0" encoding="UTF-8" standalone="no"?>
<!DOCTYPE svg PUBLIC "-//W3C//DTD SVG 1.1//EN"
 "http://www.w3.org/Graphics/SVG/1.1/DTD/svg11.dtd">
<!-- Generated by graphviz version 2.43.0 (0)
 -->
<!-- Title: lib/Support/Valgrind.cpp Pages: 1 -->
<svg width="400pt" height="140pt"
 viewBox="0.00 0.00 399.50 140.00" xmlns="http://www.w3.org/2000/svg" xmlns:xlink="http://www.w3.org/1999/xlink">
<g id="graph0" class="graph" transform="scale(1 1) rotate(0) translate(4 136)">
<title>lib/Support/Valgrind.cpp</title>
<!-- Node0 -->
<g id="node1" class="node">
<title>Node0</title>
<polygon fill="#bfbfbf" stroke="black" points="126,-112.5 126,-131.5 246,-131.5 246,-112.5 126,-112.5"/>
<text text-anchor="middle" x="186" y="-119.5" font-family="Helvetica,sans-Serif" font-size="10.00">lib/Support/Valgrind.cpp</text>
</g>
<!-- Node1 -->
<g id="node2" class="node">
<title>Node1</title>
<g id="a_node2"><a xlink:href="Valgrind_8h.html" target="_top" xlink:title="llvm/Support/Valgrind.h">
<polygon fill="none" stroke="black" points="0,-56.5 0,-75.5 118,-75.5 118,-56.5 0,-56.5"/>
<text text-anchor="middle" x="59" y="-63.5" font-family="Helvetica,sans-Serif" font-size="10.00">llvm/Support/Valgrind.h</text>
</a>
</g>
</g>
<!-- Node0&#45;&gt;Node1 -->
<g id="edge1" class="edge">
<title>Node0&#45;&gt;Node1</title>
<path fill="none" stroke="midnightblue" d="M165.88,-112.44C144.98,-103.56 112.07,-89.56 88.28,-79.45"/>
<polygon fill="midnightblue" stroke="midnightblue" points="89.6,-76.21 79.03,-75.52 86.86,-82.65 89.6,-76.21"/>
</g>
<!-- Node2 -->
<g id="node3" class="node">
<title>Node2</title>
<polygon fill="none" stroke="#bfbfbf" points="77.5,-0.5 77.5,-19.5 126.5,-19.5 126.5,-0.5 77.5,-0.5"/>
<text text-anchor="middle" x="102" y="-7.5" font-family="Helvetica,sans-Serif" font-size="10.00">cstddef</text>
</g>
<!-- Node0&#45;&gt;Node2 -->
<g id="edge4" class="edge">
<title>Node0&#45;&gt;Node2</title>
<path fill="none" stroke="midnightblue" d="M179.41,-112.37C165.48,-94.14 132.87,-51.43 114.73,-27.68"/>
<polygon fill="midnightblue" stroke="midnightblue" points="117.41,-25.41 108.56,-19.59 111.85,-29.66 117.41,-25.41"/>
</g>
<!-- Node3 -->
<g id="node4" class="node">
<title>Node3</title>
<polygon fill="none" stroke="#bfbfbf" points="174,-56.5 174,-75.5 278,-75.5 278,-56.5 174,-56.5"/>
<text text-anchor="middle" x="226" y="-63.5" font-family="Helvetica,sans-Serif" font-size="10.00">llvm/Config/config.h</text>
</g>
<!-- Node0&#45;&gt;Node3 -->
<g id="edge3" class="edge">
<title>Node0&#45;&gt;Node3</title>
<path fill="none" stroke="midnightblue" d="M192.61,-112.08C198.26,-104.46 206.54,-93.26 213.45,-83.94"/>
<polygon fill="midnightblue" stroke="midnightblue" points="216.38,-85.87 219.52,-75.75 210.75,-81.7 216.38,-85.87"/>
</g>
<!-- Node4 -->
<g id="node5" class="node">
<title>Node4</title>
<polygon fill="none" stroke="#bfbfbf" points="296.5,-56.5 296.5,-75.5 391.5,-75.5 391.5,-56.5 296.5,-56.5"/>
<text text-anchor="middle" x="344" y="-63.5" font-family="Helvetica,sans-Serif" font-size="10.00">valgrind/valgrind.h</text>
</g>
<!-- Node0&#45;&gt;Node4 -->
<g id="edge5" class="edge">
<title>Node0&#45;&gt;Node4</title>
<path fill="none" stroke="midnightblue" d="M211.04,-112.44C237.62,-103.36 279.81,-88.94 309.52,-78.78"/>
<polygon fill="midnightblue" stroke="midnightblue" points="310.75,-82.06 319.08,-75.52 308.49,-75.44 310.75,-82.06"/>
</g>
<!-- Node1&#45;&gt;Node2 -->
<g id="edge2" class="edge">
<title>Node1&#45;&gt;Node2</title>
<path fill="none" stroke="midnightblue" d="M66.1,-56.08C72.24,-48.38 81.27,-37.03 88.74,-27.65"/>
<polygon fill="midnightblue" stroke="midnightblue" points="91.54,-29.75 95.03,-19.75 86.06,-25.39 91.54,-29.75"/>
</g>
</g>
</svg>
