<?xml version="1.0" encoding="UTF-8" standalone="no"?>
<!DOCTYPE svg PUBLIC "-//W3C//DTD SVG 1.1//EN"
 "http://www.w3.org/Graphics/SVG/1.1/DTD/svg11.dtd">
<!-- Generated by graphviz version 2.43.0 (0)
 -->
<!-- Title: lib/Target/VE/VERegisterInfo.h Pages: 1 -->
<svg width="960pt" height="341pt"
 viewBox="0.00 0.00 960.00 341.00" xmlns="http://www.w3.org/2000/svg" xmlns:xlink="http://www.w3.org/1999/xlink">
<g id="graph0" class="graph" transform="scale(1 1) rotate(0) translate(4 337)">
<title>lib/Target/VE/VERegisterInfo.h</title>
<!-- Node141 -->
<g id="node1" class="node">
<title>Node141</title>
<polygon fill="#bfbfbf" stroke="black" points="435,-302.5 435,-332.5 562,-332.5 562,-302.5 435,-302.5"/>
<text text-anchor="start" x="443" y="-320.5" font-family="Helvetica,sans-Serif" font-size="10.00">lib/Target/VE/VERegister</text>
<text text-anchor="middle" x="498.5" y="-309.5" font-family="Helvetica,sans-Serif" font-size="10.00">Info.h</text>
</g>
<!-- Node142 -->
<g id="node2" class="node">
<title>Node142</title>
<g id="a_node2"><a xlink:href="VEInstrInfo_8h.html" target="_top" xlink:title="lib/Target/VE/VEInstrInfo.h">
<polygon fill="none" stroke="black" points="431.5,-246.5 431.5,-265.5 565.5,-265.5 565.5,-246.5 431.5,-246.5"/>
<text text-anchor="middle" x="498.5" y="-253.5" font-family="Helvetica,sans-Serif" font-size="10.00">lib/Target/VE/VEInstrInfo.h</text>
</a>
</g>
</g>
<!-- Node141&#45;&gt;Node142 -->
<g id="edge1" class="edge">
<title>Node141&#45;&gt;Node142</title>
<path fill="none" stroke="midnightblue" d="M498.5,-292.29C498.5,-282.86 498.5,-272.65 498.5,-265.66"/>
<polygon fill="midnightblue" stroke="midnightblue" points="495,-292.4 498.5,-302.4 502,-292.4 495,-292.4"/>
</g>
<!-- Node146 -->
<g id="node6" class="node">
<title>Node146</title>
<g id="a_node6"><a xlink:href="VEISelLowering_8cpp.html" target="_top" xlink:title="lib/Target/VE/VEISelLowering.cpp">
<polygon fill="none" stroke="black" points="0,-62 0,-81 165,-81 165,-62 0,-62"/>
<text text-anchor="middle" x="82.5" y="-69" font-family="Helvetica,sans-Serif" font-size="10.00">lib/Target/VE/VEISelLowering.cpp</text>
</a>
</g>
</g>
<!-- Node141&#45;&gt;Node146 -->
<g id="edge18" class="edge">
<title>Node141&#45;&gt;Node146</title>
<path fill="none" stroke="midnightblue" d="M424.73,-312.83C324.82,-303.43 149.79,-270.27 69.5,-154 53.95,-131.48 68.84,-97.2 77.4,-81.24"/>
<polygon fill="midnightblue" stroke="midnightblue" points="424.48,-316.32 434.75,-313.72 425.1,-309.35 424.48,-316.32"/>
</g>
<!-- Node152 -->
<g id="node12" class="node">
<title>Node152</title>
<g id="a_node12"><a xlink:href="VERegisterInfo_8cpp.html" target="_top" xlink:title="lib/Target/VE/VERegister\lInfo.cpp">
<polygon fill="none" stroke="black" points="825,-123.5 825,-153.5 952,-153.5 952,-123.5 825,-123.5"/>
<text text-anchor="start" x="833" y="-141.5" font-family="Helvetica,sans-Serif" font-size="10.00">lib/Target/VE/VERegister</text>
<text text-anchor="middle" x="888.5" y="-130.5" font-family="Helvetica,sans-Serif" font-size="10.00">Info.cpp</text>
</a>
</g>
</g>
<!-- Node141&#45;&gt;Node152 -->
<g id="edge19" class="edge">
<title>Node141&#45;&gt;Node152</title>
<path fill="none" stroke="midnightblue" d="M541.34,-298.53C590.44,-277.78 673.19,-242.36 743.5,-210 784.57,-191.1 831.53,-167.99 860.6,-153.5"/>
<polygon fill="midnightblue" stroke="midnightblue" points="539.84,-295.36 531.99,-302.48 542.56,-301.81 539.84,-295.36"/>
</g>
<!-- Node143 -->
<g id="node3" class="node">
<title>Node143</title>
<g id="a_node3"><a xlink:href="VEAsmPrinter_8cpp.html" target="_top" xlink:title="lib/Target/VE/VEAsmPrinter.cpp">
<polygon fill="none" stroke="black" points="654.5,-62 654.5,-81 812.5,-81 812.5,-62 654.5,-62"/>
<text text-anchor="middle" x="733.5" y="-69" font-family="Helvetica,sans-Serif" font-size="10.00">lib/Target/VE/VEAsmPrinter.cpp</text>
</a>
</g>
</g>
<!-- Node142&#45;&gt;Node143 -->
<g id="edge2" class="edge">
<title>Node142&#45;&gt;Node143</title>
<path fill="none" stroke="midnightblue" d="M575.9,-250.41C641.63,-241.94 732.29,-218.45 777.5,-154 794.95,-129.12 762.65,-96.55 744.55,-81.21"/>
<polygon fill="midnightblue" stroke="midnightblue" points="575.08,-246.98 565.57,-251.65 575.92,-253.94 575.08,-246.98"/>
</g>
<!-- Node144 -->
<g id="node4" class="node">
<title>Node144</title>
<g id="a_node4"><a xlink:href="VETargetMachine_8h.html" target="_top" xlink:title="lib/Target/VE/VETargetMachine.h">
<polygon fill="none" stroke="black" points="242,-129 242,-148 405,-148 405,-129 242,-129"/>
<text text-anchor="middle" x="323.5" y="-136" font-family="Helvetica,sans-Serif" font-size="10.00">lib/Target/VE/VETargetMachine.h</text>
</a>
</g>
</g>
<!-- Node142&#45;&gt;Node144 -->
<g id="edge3" class="edge">
<title>Node142&#45;&gt;Node144</title>
<path fill="none" stroke="midnightblue" d="M473.04,-241.47C457.33,-232.89 436.93,-221.31 419.5,-210 387.58,-189.29 351.95,-161.93 334.44,-148.18"/>
<polygon fill="midnightblue" stroke="midnightblue" points="471.68,-244.72 482.14,-246.4 475.01,-238.56 471.68,-244.72"/>
</g>
<!-- Node149 -->
<g id="node9" class="node">
<title>Node149</title>
<g id="a_node9"><a xlink:href="VESubtarget_8h.html" target="_top" xlink:title="lib/Target/VE/VESubtarget.h">
<polygon fill="none" stroke="black" points="428.5,-190.5 428.5,-209.5 568.5,-209.5 568.5,-190.5 428.5,-190.5"/>
<text text-anchor="middle" x="498.5" y="-197.5" font-family="Helvetica,sans-Serif" font-size="10.00">lib/Target/VE/VESubtarget.h</text>
</a>
</g>
</g>
<!-- Node142&#45;&gt;Node149 -->
<g id="edge10" class="edge">
<title>Node142&#45;&gt;Node149</title>
<path fill="none" stroke="midnightblue" d="M498.5,-235.8C498.5,-226.91 498.5,-216.78 498.5,-209.75"/>
<polygon fill="midnightblue" stroke="midnightblue" points="495,-236.08 498.5,-246.08 502,-236.08 495,-236.08"/>
</g>
<!-- Node150 -->
<g id="node10" class="node">
<title>Node150</title>
<g id="a_node10"><a xlink:href="VEFrameLowering_8cpp.html" target="_top" xlink:title="lib/Target/VE/VEFrameLowering.cpp">
<polygon fill="none" stroke="black" points="592.5,-129 592.5,-148 768.5,-148 768.5,-129 592.5,-129"/>
<text text-anchor="middle" x="680.5" y="-136" font-family="Helvetica,sans-Serif" font-size="10.00">lib/Target/VE/VEFrameLowering.cpp</text>
</a>
</g>
</g>
<!-- Node142&#45;&gt;Node150 -->
<g id="edge16" class="edge">
<title>Node142&#45;&gt;Node150</title>
<path fill="none" stroke="midnightblue" d="M523.54,-241.43C539.23,-232.76 559.77,-221.09 577.5,-210 611.3,-188.85 649.72,-161.69 668.66,-148.08"/>
<polygon fill="midnightblue" stroke="midnightblue" points="521.55,-238.53 514.46,-246.41 524.91,-244.67 521.55,-238.53"/>
</g>
<!-- Node151 -->
<g id="node11" class="node">
<title>Node151</title>
<g id="a_node11"><a xlink:href="VEInstrInfo_8cpp.html" target="_top" xlink:title="lib/Target/VE/VEInstrInfo.cpp">
<polygon fill="none" stroke="black" points="79,-129 79,-148 224,-148 224,-129 79,-129"/>
<text text-anchor="middle" x="151.5" y="-136" font-family="Helvetica,sans-Serif" font-size="10.00">lib/Target/VE/VEInstrInfo.cpp</text>
</a>
</g>
</g>
<!-- Node142&#45;&gt;Node151 -->
<g id="edge17" class="edge">
<title>Node142&#45;&gt;Node151</title>
<path fill="none" stroke="midnightblue" d="M463.01,-243.19C393.07,-219.91 238.87,-168.58 177.47,-148.14"/>
<polygon fill="midnightblue" stroke="midnightblue" points="462.11,-246.58 472.7,-246.41 464.32,-239.93 462.11,-246.58"/>
</g>
<!-- Node144&#45;&gt;Node143 -->
<g id="edge4" class="edge">
<title>Node144&#45;&gt;Node143</title>
<path fill="none" stroke="midnightblue" d="M386.46,-127.33C395.54,-125.87 404.76,-124.39 413.5,-123 506.81,-108.12 615.46,-91.02 679.14,-81.02"/>
<polygon fill="midnightblue" stroke="midnightblue" points="385.64,-123.92 376.32,-128.96 386.75,-130.83 385.64,-123.92"/>
</g>
<!-- Node145 -->
<g id="node5" class="node">
<title>Node145</title>
<g id="a_node5"><a xlink:href="VEISelDAGToDAG_8cpp.html" target="_top" xlink:title="lib/Target/VE/VEISelDAGTo\lDAG.cpp">
<polygon fill="none" stroke="black" points="253.5,-56.5 253.5,-86.5 393.5,-86.5 393.5,-56.5 253.5,-56.5"/>
<text text-anchor="start" x="261.5" y="-74.5" font-family="Helvetica,sans-Serif" font-size="10.00">lib/Target/VE/VEISelDAGTo</text>
<text text-anchor="middle" x="323.5" y="-63.5" font-family="Helvetica,sans-Serif" font-size="10.00">DAG.cpp</text>
</a>
</g>
</g>
<!-- Node144&#45;&gt;Node145 -->
<g id="edge5" class="edge">
<title>Node144&#45;&gt;Node145</title>
<path fill="none" stroke="midnightblue" d="M323.5,-118.41C323.5,-108.22 323.5,-95.9 323.5,-86.59"/>
<polygon fill="midnightblue" stroke="midnightblue" points="320,-118.73 323.5,-128.73 327,-118.73 320,-118.73"/>
</g>
<!-- Node144&#45;&gt;Node146 -->
<g id="edge6" class="edge">
<title>Node144&#45;&gt;Node146</title>
<path fill="none" stroke="midnightblue" d="M281.8,-126.25C234.16,-113.41 157.27,-92.67 114.25,-81.06"/>
<polygon fill="midnightblue" stroke="midnightblue" points="280.93,-129.64 291.5,-128.87 282.75,-122.89 280.93,-129.64"/>
</g>
<!-- Node147 -->
<g id="node7" class="node">
<title>Node147</title>
<g id="a_node7"><a xlink:href="VETargetMachine_8cpp.html" target="_top" xlink:title="lib/Target/VE/VETargetMachine.cpp">
<polygon fill="none" stroke="black" points="272,-0.5 272,-19.5 445,-19.5 445,-0.5 272,-0.5"/>
<text text-anchor="middle" x="358.5" y="-7.5" font-family="Helvetica,sans-Serif" font-size="10.00">lib/Target/VE/VETargetMachine.cpp</text>
</a>
</g>
</g>
<!-- Node144&#45;&gt;Node147 -->
<g id="edge7" class="edge">
<title>Node144&#45;&gt;Node147</title>
<path fill="none" stroke="midnightblue" d="M288.74,-124.64C272.19,-116.54 253.98,-104.31 244.5,-87 237.88,-74.92 236.75,-67.39 244.5,-56 257.55,-36.82 280.15,-25.82 301.81,-19.5"/>
<polygon fill="midnightblue" stroke="midnightblue" points="287.66,-127.99 298.22,-128.93 290.55,-121.61 287.66,-127.99"/>
</g>
<!-- Node148 -->
<g id="node8" class="node">
<title>Node148</title>
<g id="a_node8"><a xlink:href="VETargetTransformInfo_8h.html" target="_top" xlink:title="This file a TargetTransformInfo::Concept conforming object specific to the VE target machine...">
<polygon fill="none" stroke="black" points="411.5,-56.5 411.5,-86.5 573.5,-86.5 573.5,-56.5 411.5,-56.5"/>
<text text-anchor="start" x="419.5" y="-74.5" font-family="Helvetica,sans-Serif" font-size="10.00">lib/Target/VE/VETargetTransform</text>
<text text-anchor="middle" x="492.5" y="-63.5" font-family="Helvetica,sans-Serif" font-size="10.00">Info.h</text>
</a>
</g>
</g>
<!-- Node144&#45;&gt;Node148 -->
<g id="edge8" class="edge">
<title>Node144&#45;&gt;Node148</title>
<path fill="none" stroke="midnightblue" d="M355.47,-125.2C384.11,-114.19 426.09,-98.04 456.03,-86.53"/>
<polygon fill="midnightblue" stroke="midnightblue" points="354.02,-122.01 345.94,-128.87 356.53,-128.55 354.02,-122.01"/>
</g>
<!-- Node148&#45;&gt;Node147 -->
<g id="edge9" class="edge">
<title>Node148&#45;&gt;Node147</title>
<path fill="none" stroke="midnightblue" d="M451.35,-52.23C426.95,-41.39 397.15,-28.16 378,-19.66"/>
<polygon fill="midnightblue" stroke="midnightblue" points="450.18,-55.54 460.74,-56.4 453.02,-49.14 450.18,-55.54"/>
</g>
<!-- Node149&#45;&gt;Node144 -->
<g id="edge11" class="edge">
<title>Node149&#45;&gt;Node144</title>
<path fill="none" stroke="midnightblue" d="M463.89,-187.23C429.87,-175.67 378.78,-158.3 348.53,-148.01"/>
<polygon fill="midnightblue" stroke="midnightblue" points="462.83,-190.57 473.43,-190.48 465.09,-183.94 462.83,-190.57"/>
</g>
<!-- Node149&#45;&gt;Node150 -->
<g id="edge12" class="edge">
<title>Node149&#45;&gt;Node150</title>
<path fill="none" stroke="midnightblue" d="M534.5,-187.23C569.87,-175.67 623,-158.3 654.47,-148.01"/>
<polygon fill="midnightblue" stroke="midnightblue" points="532.99,-184.04 524.58,-190.48 535.17,-190.69 532.99,-184.04"/>
</g>
<!-- Node149&#45;&gt;Node151 -->
<g id="edge13" class="edge">
<title>Node149&#45;&gt;Node151</title>
<path fill="none" stroke="midnightblue" d="M436.9,-188.75C382.97,-179.74 302.51,-166.19 232.5,-154 221.52,-152.09 209.71,-150 198.6,-148.01"/>
<polygon fill="midnightblue" stroke="midnightblue" points="436.54,-192.24 446.98,-190.43 437.7,-185.33 436.54,-192.24"/>
</g>
<!-- Node149&#45;&gt;Node152 -->
<g id="edge14" class="edge">
<title>Node149&#45;&gt;Node152</title>
<path fill="none" stroke="midnightblue" d="M564.34,-188.96C637.02,-177.87 753.21,-160.14 824.96,-149.19"/>
<polygon fill="midnightblue" stroke="midnightblue" points="563.74,-185.51 554.38,-190.48 564.79,-192.43 563.74,-185.51"/>
</g>
<!-- Node153 -->
<g id="node13" class="node">
<title>Node153</title>
<g id="a_node13"><a xlink:href="VESubtarget_8cpp.html" target="_top" xlink:title="lib/Target/VE/VESubtarget.cpp">
<polygon fill="none" stroke="black" points="423,-129 423,-148 574,-148 574,-129 423,-129"/>
<text text-anchor="middle" x="498.5" y="-136" font-family="Helvetica,sans-Serif" font-size="10.00">lib/Target/VE/VESubtarget.cpp</text>
</a>
</g>
</g>
<!-- Node149&#45;&gt;Node153 -->
<g id="edge15" class="edge">
<title>Node149&#45;&gt;Node153</title>
<path fill="none" stroke="midnightblue" d="M498.5,-180.32C498.5,-169.5 498.5,-156.4 498.5,-148.01"/>
<polygon fill="midnightblue" stroke="midnightblue" points="495,-180.48 498.5,-190.48 502,-180.48 495,-180.48"/>
</g>
</g>
</svg>
