<?xml version="1.0" encoding="UTF-8" standalone="no"?>
<!DOCTYPE svg PUBLIC "-//W3C//DTD SVG 1.1//EN"
 "http://www.w3.org/Graphics/SVG/1.1/DTD/svg11.dtd">
<!-- Generated by graphviz version 2.43.0 (0)
 -->
<!-- Title: lib/Target/WebAssembly/MCTargetDesc/WebAssemblyTargetStreamer.h Pages: 1 -->
<svg width="794pt" height="128pt"
 viewBox="0.00 0.00 794.00 128.00" xmlns="http://www.w3.org/2000/svg" xmlns:xlink="http://www.w3.org/1999/xlink">
<g id="graph0" class="graph" transform="scale(1 1) rotate(0) translate(4 124)">
<title>lib/Target/WebAssembly/MCTargetDesc/WebAssemblyTargetStreamer.h</title>
<!-- Node101 -->
<g id="node1" class="node">
<title>Node101</title>
<polygon fill="#bfbfbf" stroke="black" points="332,-78.5 332,-119.5 513,-119.5 513,-78.5 332,-78.5"/>
<text text-anchor="start" x="340" y="-107.5" font-family="Helvetica,sans-Serif" font-size="10.00">lib/Target/WebAssembly</text>
<text text-anchor="start" x="340" y="-96.5" font-family="Helvetica,sans-Serif" font-size="10.00">/MCTargetDesc/WebAssemblyTarget</text>
<text text-anchor="middle" x="422.5" y="-85.5" font-family="Helvetica,sans-Serif" font-size="10.00">Streamer.h</text>
</g>
<!-- Node102 -->
<g id="node2" class="node">
<title>Node102</title>
<g id="a_node2"><a xlink:href="WebAssemblyAsmParser_8cpp.html" target="_top" xlink:title="This file is part of the WebAssembly Assembler. ">
<polygon fill="none" stroke="black" points="0,-6 0,-36 203,-36 203,-6 0,-6"/>
<text text-anchor="start" x="8" y="-24" font-family="Helvetica,sans-Serif" font-size="10.00">lib/Target/WebAssembly</text>
<text text-anchor="middle" x="101.5" y="-13" font-family="Helvetica,sans-Serif" font-size="10.00">/AsmParser/WebAssemblyAsmParser.cpp</text>
</a>
</g>
</g>
<!-- Node101&#45;&gt;Node102 -->
<g id="edge1" class="edge">
<title>Node101&#45;&gt;Node102</title>
<path fill="none" stroke="midnightblue" d="M329.83,-76.06C275.39,-63.17 208.19,-47.26 160.83,-36.05"/>
<polygon fill="midnightblue" stroke="midnightblue" points="329.3,-79.53 339.83,-78.43 330.91,-72.72 329.3,-79.53"/>
</g>
<!-- Node103 -->
<g id="node3" class="node">
<title>Node103</title>
<g id="a_node3"><a xlink:href="WebAssemblyMCTargetDesc_8cpp.html" target="_top" xlink:title="This file provides WebAssembly&#45;specific target descriptions. ">
<polygon fill="none" stroke="black" points="221,-0.5 221,-41.5 418,-41.5 418,-0.5 221,-0.5"/>
<text text-anchor="start" x="229" y="-29.5" font-family="Helvetica,sans-Serif" font-size="10.00">lib/Target/WebAssembly</text>
<text text-anchor="start" x="229" y="-18.5" font-family="Helvetica,sans-Serif" font-size="10.00">/MCTargetDesc/WebAssemblyMCTarget</text>
<text text-anchor="middle" x="319.5" y="-7.5" font-family="Helvetica,sans-Serif" font-size="10.00">Desc.cpp</text>
</a>
</g>
</g>
<!-- Node101&#45;&gt;Node103 -->
<g id="edge2" class="edge">
<title>Node101&#45;&gt;Node103</title>
<path fill="none" stroke="midnightblue" d="M387.74,-72.35C374.08,-62.27 358.66,-50.89 345.94,-41.51"/>
<polygon fill="midnightblue" stroke="midnightblue" points="385.85,-75.31 395.97,-78.43 390.01,-69.67 385.85,-75.31"/>
</g>
<!-- Node104 -->
<g id="node4" class="node">
<title>Node104</title>
<g id="a_node4"><a xlink:href="WebAssemblyTargetStreamer_8cpp.html" target="_top" xlink:title="This file defines WebAssembly&#45;specific target streamer classes. ">
<polygon fill="none" stroke="black" points="436,-0.5 436,-41.5 617,-41.5 617,-0.5 436,-0.5"/>
<text text-anchor="start" x="444" y="-29.5" font-family="Helvetica,sans-Serif" font-size="10.00">lib/Target/WebAssembly</text>
<text text-anchor="start" x="444" y="-18.5" font-family="Helvetica,sans-Serif" font-size="10.00">/MCTargetDesc/WebAssemblyTarget</text>
<text text-anchor="middle" x="526.5" y="-7.5" font-family="Helvetica,sans-Serif" font-size="10.00">Streamer.cpp</text>
</a>
</g>
</g>
<!-- Node101&#45;&gt;Node104 -->
<g id="edge3" class="edge">
<title>Node101&#45;&gt;Node104</title>
<path fill="none" stroke="midnightblue" d="M457.6,-72.35C471.39,-62.27 486.96,-50.89 499.81,-41.51"/>
<polygon fill="midnightblue" stroke="midnightblue" points="455.29,-69.7 449.28,-78.43 459.42,-75.35 455.29,-69.7"/>
</g>
<!-- Node105 -->
<g id="node5" class="node">
<title>Node105</title>
<g id="a_node5"><a xlink:href="WebAssemblyAsmPrinter_8cpp.html" target="_top" xlink:title="This file contains a printer that converts from our internal representation of machine&#45;dependent LLVM...">
<polygon fill="none" stroke="black" points="635,-6 635,-36 786,-36 786,-6 635,-6"/>
<text text-anchor="start" x="643" y="-24" font-family="Helvetica,sans-Serif" font-size="10.00">lib/Target/WebAssembly</text>
<text text-anchor="middle" x="710.5" y="-13" font-family="Helvetica,sans-Serif" font-size="10.00">/WebAssemblyAsmPrinter.cpp</text>
</a>
</g>
</g>
<!-- Node101&#45;&gt;Node105 -->
<g id="edge4" class="edge">
<title>Node101&#45;&gt;Node105</title>
<path fill="none" stroke="midnightblue" d="M506.54,-75.82C555.14,-63 614.83,-47.25 657.04,-36.11"/>
<polygon fill="midnightblue" stroke="midnightblue" points="505.44,-72.49 496.67,-78.43 507.23,-79.26 505.44,-72.49"/>
</g>
</g>
</svg>
