<?xml version="1.0" encoding="UTF-8" standalone="no"?>
<!DOCTYPE svg PUBLIC "-//W3C//DTD SVG 1.1//EN"
 "http://www.w3.org/Graphics/SVG/1.1/DTD/svg11.dtd">
<!-- Generated by graphviz version 2.43.0 (0)
 -->
<!-- Title: lib/Target/X86/X86TargetObjectFile.h Pages: 1 -->
<svg width="467pt" height="106pt"
 viewBox="0.00 0.00 467.00 106.00" xmlns="http://www.w3.org/2000/svg" xmlns:xlink="http://www.w3.org/1999/xlink">
<g id="graph0" class="graph" transform="scale(1 1) rotate(0) translate(4 102)">
<title>lib/Target/X86/X86TargetObjectFile.h</title>
<!-- Node131 -->
<g id="node1" class="node">
<title>Node131</title>
<polygon fill="#bfbfbf" stroke="black" points="191,-67.5 191,-97.5 316,-97.5 316,-67.5 191,-67.5"/>
<text text-anchor="start" x="199" y="-85.5" font-family="Helvetica,sans-Serif" font-size="10.00">lib/Target/X86/X86Target</text>
<text text-anchor="middle" x="253.5" y="-74.5" font-family="Helvetica,sans-Serif" font-size="10.00">ObjectFile.h</text>
</g>
<!-- Node132 -->
<g id="node2" class="node">
<title>Node132</title>
<g id="a_node2"><a xlink:href="X86ISelLowering_8cpp.html" target="_top" xlink:title="lib/Target/X86/X86ISelLowering.cpp">
<polygon fill="none" stroke="black" points="0,-6 0,-25 173,-25 173,-6 0,-6"/>
<text text-anchor="middle" x="86.5" y="-13" font-family="Helvetica,sans-Serif" font-size="10.00">lib/Target/X86/X86ISelLowering.cpp</text>
</a>
</g>
</g>
<!-- Node131&#45;&gt;Node132 -->
<g id="edge1" class="edge">
<title>Node131&#45;&gt;Node132</title>
<path fill="none" stroke="midnightblue" d="M207.57,-63.62C175.24,-51.04 133.43,-34.77 108.36,-25.01"/>
<polygon fill="midnightblue" stroke="midnightblue" points="206.67,-67.03 217.26,-67.4 209.21,-60.51 206.67,-67.03"/>
</g>
<!-- Node133 -->
<g id="node3" class="node">
<title>Node133</title>
<g id="a_node3"><a xlink:href="X86TargetMachine_8cpp.html" target="_top" xlink:title="lib/Target/X86/X86Target\lMachine.cpp">
<polygon fill="none" stroke="black" points="191,-0.5 191,-30.5 316,-30.5 316,-0.5 191,-0.5"/>
<text text-anchor="start" x="199" y="-18.5" font-family="Helvetica,sans-Serif" font-size="10.00">lib/Target/X86/X86Target</text>
<text text-anchor="middle" x="253.5" y="-7.5" font-family="Helvetica,sans-Serif" font-size="10.00">Machine.cpp</text>
</a>
</g>
</g>
<!-- Node131&#45;&gt;Node133 -->
<g id="edge2" class="edge">
<title>Node131&#45;&gt;Node133</title>
<path fill="none" stroke="midnightblue" d="M253.5,-57.11C253.5,-48.15 253.5,-38.32 253.5,-30.58"/>
<polygon fill="midnightblue" stroke="midnightblue" points="250,-57.4 253.5,-67.4 257,-57.4 250,-57.4"/>
</g>
<!-- Node134 -->
<g id="node4" class="node">
<title>Node134</title>
<g id="a_node4"><a xlink:href="X86TargetObjectFile_8cpp.html" target="_top" xlink:title="lib/Target/X86/X86Target\lObjectFile.cpp">
<polygon fill="none" stroke="black" points="334,-0.5 334,-30.5 459,-30.5 459,-0.5 334,-0.5"/>
<text text-anchor="start" x="342" y="-18.5" font-family="Helvetica,sans-Serif" font-size="10.00">lib/Target/X86/X86Target</text>
<text text-anchor="middle" x="396.5" y="-7.5" font-family="Helvetica,sans-Serif" font-size="10.00">ObjectFile.cpp</text>
</a>
</g>
</g>
<!-- Node131&#45;&gt;Node134 -->
<g id="edge3" class="edge">
<title>Node131&#45;&gt;Node134</title>
<path fill="none" stroke="midnightblue" d="M293.91,-63.13C316.63,-52.8 344.56,-40.11 365.53,-30.58"/>
<polygon fill="midnightblue" stroke="midnightblue" points="292.18,-60.07 284.53,-67.4 295.08,-66.44 292.18,-60.07"/>
</g>
</g>
</svg>
