<?xml version="1.0" encoding="UTF-8" standalone="no"?>
<!DOCTYPE svg PUBLIC "-//W3C//DTD SVG 1.1//EN"
 "http://www.w3.org/Graphics/SVG/1.1/DTD/svg11.dtd">
<!-- Generated by graphviz version 2.43.0 (0)
 -->
<!-- Title: lib/Target/XCore/XCoreFrameLowering.h Pages: 1 -->
<svg width="1086pt" height="296pt"
 viewBox="0.00 0.00 1085.77 296.00" xmlns="http://www.w3.org/2000/svg" xmlns:xlink="http://www.w3.org/1999/xlink">
<g id="graph0" class="graph" transform="scale(1 1) rotate(0) translate(4 292)">
<title>lib/Target/XCore/XCoreFrameLowering.h</title>
<!-- Node153 -->
<g id="node1" class="node">
<title>Node153</title>
<polygon fill="#bfbfbf" stroke="black" points="195,-257.5 195,-287.5 341,-287.5 341,-257.5 195,-257.5"/>
<text text-anchor="start" x="203" y="-275.5" font-family="Helvetica,sans-Serif" font-size="10.00">lib/Target/XCore/XCoreFrame</text>
<text text-anchor="middle" x="268" y="-264.5" font-family="Helvetica,sans-Serif" font-size="10.00">Lowering.h</text>
</g>
<!-- Node154 -->
<g id="node2" class="node">
<title>Node154</title>
<g id="a_node2"><a xlink:href="XCoreSubtarget_8h.html" target="_top" xlink:title="lib/Target/XCore/XCoreSubtarget.h">
<polygon fill="none" stroke="black" points="366.5,-201.5 366.5,-220.5 535.5,-220.5 535.5,-201.5 366.5,-201.5"/>
<text text-anchor="middle" x="451" y="-208.5" font-family="Helvetica,sans-Serif" font-size="10.00">lib/Target/XCore/XCoreSubtarget.h</text>
</a>
</g>
</g>
<!-- Node153&#45;&gt;Node154 -->
<g id="edge1" class="edge">
<title>Node153&#45;&gt;Node154</title>
<path fill="none" stroke="midnightblue" d="M321.15,-254.22C355.12,-243.17 397.7,-229.33 424.64,-220.57"/>
<polygon fill="midnightblue" stroke="midnightblue" points="319.8,-250.98 311.37,-257.4 321.96,-257.64 319.8,-250.98"/>
</g>
<!-- Node162 -->
<g id="node10" class="node">
<title>Node162</title>
<g id="a_node10"><a xlink:href="XCoreFrameLowering_8cpp.html" target="_top" xlink:title="lib/Target/XCore/XCoreFrame\lLowering.cpp">
<polygon fill="none" stroke="black" points="12,-134.5 12,-164.5 158,-164.5 158,-134.5 12,-134.5"/>
<text text-anchor="start" x="20" y="-152.5" font-family="Helvetica,sans-Serif" font-size="10.00">lib/Target/XCore/XCoreFrame</text>
<text text-anchor="middle" x="85" y="-141.5" font-family="Helvetica,sans-Serif" font-size="10.00">Lowering.cpp</text>
</a>
</g>
</g>
<!-- Node153&#45;&gt;Node162 -->
<g id="edge17" class="edge">
<title>Node153&#45;&gt;Node162</title>
<path fill="none" stroke="midnightblue" d="M238.25,-251.83C201.19,-227.32 138.78,-186.06 106.21,-164.53"/>
<polygon fill="midnightblue" stroke="midnightblue" points="236.38,-254.79 246.65,-257.38 240.24,-248.95 236.38,-254.79"/>
</g>
<!-- Node155 -->
<g id="node3" class="node">
<title>Node155</title>
<g id="a_node3"><a xlink:href="XCoreAsmPrinter_8cpp.html" target="_top" xlink:title="lib/Target/XCore/XCoreAsm\lPrinter.cpp">
<polygon fill="none" stroke="black" points="825.5,-67.5 825.5,-97.5 964.5,-97.5 964.5,-67.5 825.5,-67.5"/>
<text text-anchor="start" x="833.5" y="-85.5" font-family="Helvetica,sans-Serif" font-size="10.00">lib/Target/XCore/XCoreAsm</text>
<text text-anchor="middle" x="895" y="-74.5" font-family="Helvetica,sans-Serif" font-size="10.00">Printer.cpp</text>
</a>
</g>
</g>
<!-- Node154&#45;&gt;Node155 -->
<g id="edge2" class="edge">
<title>Node154&#45;&gt;Node155</title>
<path fill="none" stroke="midnightblue" d="M545.9,-210.02C710.15,-209.05 1033.26,-202.37 1068,-165 1104.23,-126.03 1027.31,-103.92 964.7,-92.82"/>
<polygon fill="midnightblue" stroke="midnightblue" points="545.78,-206.52 535.8,-210.07 545.82,-213.52 545.78,-206.52"/>
</g>
<!-- Node156 -->
<g id="node4" class="node">
<title>Node156</title>
<g id="a_node4"><a xlink:href="XCoreTargetMachine_8h.html" target="_top" xlink:title="lib/Target/XCore/XCoreTarget\lMachine.h">
<polygon fill="none" stroke="black" points="214,-134.5 214,-164.5 360,-164.5 360,-134.5 214,-134.5"/>
<text text-anchor="start" x="222" y="-152.5" font-family="Helvetica,sans-Serif" font-size="10.00">lib/Target/XCore/XCoreTarget</text>
<text text-anchor="middle" x="287" y="-141.5" font-family="Helvetica,sans-Serif" font-size="10.00">Machine.h</text>
</a>
</g>
</g>
<!-- Node154&#45;&gt;Node156 -->
<g id="edge3" class="edge">
<title>Node154&#45;&gt;Node156</title>
<path fill="none" stroke="midnightblue" d="M417.86,-197.98C391.19,-188.3 353.68,-174.69 325.65,-164.52"/>
<polygon fill="midnightblue" stroke="midnightblue" points="416.91,-201.35 427.5,-201.48 419.3,-194.77 416.91,-201.35"/>
</g>
<!-- Node158 -->
<g id="node6" class="node">
<title>Node158</title>
<g id="a_node6"><a xlink:href="XCoreISelLowering_8cpp.html" target="_top" xlink:title="lib/Target/XCore/XCoreISel\lLowering.cpp">
<polygon fill="none" stroke="black" points="0,-67.5 0,-97.5 136,-97.5 136,-67.5 0,-67.5"/>
<text text-anchor="start" x="8" y="-85.5" font-family="Helvetica,sans-Serif" font-size="10.00">lib/Target/XCore/XCoreISel</text>
<text text-anchor="middle" x="68" y="-74.5" font-family="Helvetica,sans-Serif" font-size="10.00">Lowering.cpp</text>
</a>
</g>
</g>
<!-- Node154&#45;&gt;Node158 -->
<g id="edge13" class="edge">
<title>Node154&#45;&gt;Node158</title>
<path fill="none" stroke="midnightblue" d="M356.2,-203.85C309.04,-198.04 252.19,-186.79 205,-165 185.21,-155.86 185.26,-145.91 167,-134 145.51,-119.98 119.63,-106.9 99.72,-97.56"/>
<polygon fill="midnightblue" stroke="midnightblue" points="356.07,-207.36 366.41,-205.04 356.89,-200.4 356.07,-207.36"/>
</g>
<!-- Node154&#45;&gt;Node162 -->
<g id="edge11" class="edge">
<title>Node154&#45;&gt;Node162</title>
<path fill="none" stroke="midnightblue" d="M387.54,-199.86C330.98,-190.8 245.95,-177.13 172,-165 167.47,-164.26 162.8,-163.49 158.1,-162.71"/>
<polygon fill="midnightblue" stroke="midnightblue" points="387.33,-203.37 397.76,-201.5 388.44,-196.46 387.33,-203.37"/>
</g>
<!-- Node163 -->
<g id="node11" class="node">
<title>Node163</title>
<g id="a_node11"><a xlink:href="XCoreFrameToArgsOffsetElim_8cpp.html" target="_top" xlink:title="lib/Target/XCore/XCoreFrame\lToArgsOffsetElim.cpp">
<polygon fill="none" stroke="black" points="378,-134.5 378,-164.5 524,-164.5 524,-134.5 378,-134.5"/>
<text text-anchor="start" x="386" y="-152.5" font-family="Helvetica,sans-Serif" font-size="10.00">lib/Target/XCore/XCoreFrame</text>
<text text-anchor="middle" x="451" y="-141.5" font-family="Helvetica,sans-Serif" font-size="10.00">ToArgsOffsetElim.cpp</text>
</a>
</g>
</g>
<!-- Node154&#45;&gt;Node163 -->
<g id="edge12" class="edge">
<title>Node154&#45;&gt;Node163</title>
<path fill="none" stroke="midnightblue" d="M451,-191.23C451,-182.59 451,-172.5 451,-164.52"/>
<polygon fill="midnightblue" stroke="midnightblue" points="447.5,-191.48 451,-201.48 454.5,-191.48 447.5,-191.48"/>
</g>
<!-- Node164 -->
<g id="node12" class="node">
<title>Node164</title>
<g id="a_node12"><a xlink:href="XCoreRegisterInfo_8cpp.html" target="_top" xlink:title="lib/Target/XCore/XCoreRegister\lInfo.cpp">
<polygon fill="none" stroke="black" points="542.5,-134.5 542.5,-164.5 697.5,-164.5 697.5,-134.5 542.5,-134.5"/>
<text text-anchor="start" x="550.5" y="-152.5" font-family="Helvetica,sans-Serif" font-size="10.00">lib/Target/XCore/XCoreRegister</text>
<text text-anchor="middle" x="620" y="-141.5" font-family="Helvetica,sans-Serif" font-size="10.00">Info.cpp</text>
</a>
</g>
</g>
<!-- Node154&#45;&gt;Node164 -->
<g id="edge14" class="edge">
<title>Node154&#45;&gt;Node164</title>
<path fill="none" stroke="midnightblue" d="M484.79,-198.1C512.29,-188.42 551.16,-174.74 580.17,-164.52"/>
<polygon fill="midnightblue" stroke="midnightblue" points="483.48,-194.85 475.21,-201.48 485.81,-201.46 483.48,-194.85"/>
</g>
<!-- Node165 -->
<g id="node13" class="node">
<title>Node165</title>
<g id="a_node13"><a xlink:href="XCoreSubtarget_8cpp.html" target="_top" xlink:title="lib/Target/XCore/XCoreSubtarget.cpp">
<polygon fill="none" stroke="black" points="715.5,-140 715.5,-159 894.5,-159 894.5,-140 715.5,-140"/>
<text text-anchor="middle" x="805" y="-147" font-family="Helvetica,sans-Serif" font-size="10.00">lib/Target/XCore/XCoreSubtarget.cpp</text>
</a>
</g>
</g>
<!-- Node154&#45;&gt;Node165 -->
<g id="edge15" class="edge">
<title>Node154&#45;&gt;Node165</title>
<path fill="none" stroke="midnightblue" d="M511.93,-199.76C580.43,-188.25 690.41,-169.76 754.37,-159.01"/>
<polygon fill="midnightblue" stroke="midnightblue" points="511,-196.37 501.72,-201.48 512.16,-203.27 511,-196.37"/>
</g>
<!-- Node166 -->
<g id="node14" class="node">
<title>Node166</title>
<g id="a_node14"><a xlink:href="XCoreTargetObjectFile_8cpp.html" target="_top" xlink:title="lib/Target/XCore/XCoreTarget\lObjectFile.cpp">
<polygon fill="none" stroke="black" points="913,-134.5 913,-164.5 1059,-164.5 1059,-134.5 913,-134.5"/>
<text text-anchor="start" x="921" y="-152.5" font-family="Helvetica,sans-Serif" font-size="10.00">lib/Target/XCore/XCoreTarget</text>
<text text-anchor="middle" x="986" y="-141.5" font-family="Helvetica,sans-Serif" font-size="10.00">ObjectFile.cpp</text>
</a>
</g>
</g>
<!-- Node154&#45;&gt;Node166 -->
<g id="edge16" class="edge">
<title>Node154&#45;&gt;Node166</title>
<path fill="none" stroke="midnightblue" d="M545.66,-202.71C637.47,-195.13 780.62,-182.01 904,-165 906.86,-164.61 909.78,-164.18 912.73,-163.74"/>
<polygon fill="midnightblue" stroke="midnightblue" points="545.23,-199.23 535.55,-203.53 545.8,-206.2 545.23,-199.23"/>
</g>
<!-- Node156&#45;&gt;Node155 -->
<g id="edge4" class="edge">
<title>Node156&#45;&gt;Node155</title>
<path fill="none" stroke="midnightblue" d="M370.35,-133.88C539.43,-111.19 726.55,-95.79 825.45,-88.41"/>
<polygon fill="midnightblue" stroke="midnightblue" points="369.71,-130.44 360.27,-135.25 370.65,-137.37 369.71,-130.44"/>
</g>
<!-- Node157 -->
<g id="node5" class="node">
<title>Node157</title>
<g id="a_node5"><a xlink:href="XCoreISelDAGToDAG_8cpp.html" target="_top" xlink:title="lib/Target/XCore/XCoreISel\lDAGToDAG.cpp">
<polygon fill="none" stroke="black" points="533,-67.5 533,-97.5 669,-97.5 669,-67.5 533,-67.5"/>
<text text-anchor="start" x="541" y="-85.5" font-family="Helvetica,sans-Serif" font-size="10.00">lib/Target/XCore/XCoreISel</text>
<text text-anchor="middle" x="601" y="-74.5" font-family="Helvetica,sans-Serif" font-size="10.00">DAGToDAG.cpp</text>
</a>
</g>
</g>
<!-- Node156&#45;&gt;Node157 -->
<g id="edge5" class="edge">
<title>Node156&#45;&gt;Node157</title>
<path fill="none" stroke="midnightblue" d="M364.86,-132.38C416.51,-121.69 483.63,-107.8 533.1,-97.55"/>
<polygon fill="midnightblue" stroke="midnightblue" points="363.83,-129.02 354.75,-134.48 365.25,-135.88 363.83,-129.02"/>
</g>
<!-- Node156&#45;&gt;Node158 -->
<g id="edge6" class="edge">
<title>Node156&#45;&gt;Node158</title>
<path fill="none" stroke="midnightblue" d="M229.99,-131.58C194.42,-121.02 149.17,-107.59 115.54,-97.61"/>
<polygon fill="midnightblue" stroke="midnightblue" points="229.17,-134.99 239.75,-134.48 231.16,-128.28 229.17,-134.99"/>
</g>
<!-- Node159 -->
<g id="node7" class="node">
<title>Node159</title>
<g id="a_node7"><a xlink:href="XCoreSelectionDAGInfo_8cpp.html" target="_top" xlink:title="lib/Target/XCore/XCoreSelection\lDAGInfo.cpp">
<polygon fill="none" stroke="black" points="154.5,-67.5 154.5,-97.5 313.5,-97.5 313.5,-67.5 154.5,-67.5"/>
<text text-anchor="start" x="162.5" y="-85.5" font-family="Helvetica,sans-Serif" font-size="10.00">lib/Target/XCore/XCoreSelection</text>
<text text-anchor="middle" x="234" y="-74.5" font-family="Helvetica,sans-Serif" font-size="10.00">DAGInfo.cpp</text>
</a>
</g>
</g>
<!-- Node156&#45;&gt;Node159 -->
<g id="edge7" class="edge">
<title>Node156&#45;&gt;Node159</title>
<path fill="none" stroke="midnightblue" d="M269.02,-126.45C261.23,-116.9 252.35,-106 245.48,-97.58"/>
<polygon fill="midnightblue" stroke="midnightblue" points="266.47,-128.86 275.5,-134.4 271.89,-124.43 266.47,-128.86"/>
</g>
<!-- Node160 -->
<g id="node8" class="node">
<title>Node160</title>
<g id="a_node8"><a xlink:href="XCoreTargetMachine_8cpp.html" target="_top" xlink:title="lib/Target/XCore/XCoreTarget\lMachine.cpp">
<polygon fill="none" stroke="black" points="318,-0.5 318,-30.5 464,-30.5 464,-0.5 318,-0.5"/>
<text text-anchor="start" x="326" y="-18.5" font-family="Helvetica,sans-Serif" font-size="10.00">lib/Target/XCore/XCoreTarget</text>
<text text-anchor="middle" x="391" y="-7.5" font-family="Helvetica,sans-Serif" font-size="10.00">Machine.cpp</text>
</a>
</g>
</g>
<!-- Node156&#45;&gt;Node160 -->
<g id="edge8" class="edge">
<title>Node156&#45;&gt;Node160</title>
<path fill="none" stroke="midnightblue" d="M304.58,-126.19C326.11,-98.86 361.94,-53.38 379.95,-30.52"/>
<polygon fill="midnightblue" stroke="midnightblue" points="301.57,-124.35 298.13,-134.37 307.07,-128.68 301.57,-124.35"/>
</g>
<!-- Node161 -->
<g id="node9" class="node">
<title>Node161</title>
<g id="a_node9"><a xlink:href="XCoreTargetTransformInfo_8h.html" target="_top" xlink:title="This file a TargetTransformInfo::Concept conforming object specific to the XCore target machine...">
<polygon fill="none" stroke="black" points="369,-67.5 369,-97.5 515,-97.5 515,-67.5 369,-67.5"/>
<text text-anchor="start" x="377" y="-85.5" font-family="Helvetica,sans-Serif" font-size="10.00">lib/Target/XCore/XCoreTarget</text>
<text text-anchor="middle" x="442" y="-74.5" font-family="Helvetica,sans-Serif" font-size="10.00">TransformInfo.h</text>
</a>
</g>
</g>
<!-- Node156&#45;&gt;Node161 -->
<g id="edge9" class="edge">
<title>Node156&#45;&gt;Node161</title>
<path fill="none" stroke="midnightblue" d="M330.15,-130.41C354.89,-120.03 385.5,-107.2 408.43,-97.58"/>
<polygon fill="midnightblue" stroke="midnightblue" points="328.5,-127.3 320.63,-134.4 331.21,-133.76 328.5,-127.3"/>
</g>
<!-- Node161&#45;&gt;Node160 -->
<g id="edge10" class="edge">
<title>Node161&#45;&gt;Node160</title>
<path fill="none" stroke="midnightblue" d="M424.7,-59.45C417.21,-49.9 408.66,-39 402.04,-30.58"/>
<polygon fill="midnightblue" stroke="midnightblue" points="422.01,-61.69 430.93,-67.4 427.51,-57.37 422.01,-61.69"/>
</g>
</g>
</svg>
