<?xml version="1.0" encoding="UTF-8" standalone="no"?>
<!DOCTYPE svg PUBLIC "-//W3C//DTD SVG 1.1//EN"
 "http://www.w3.org/Graphics/SVG/1.1/DTD/svg11.dtd">
<!-- Generated by graphviz version 2.43.0 (0)
 -->
<!-- Title: include/llvm/XRay/XRayRecord.h Pages: 1 -->
<svg width="2237pt" height="274pt"
 viewBox="0.00 0.00 2236.50 274.00" xmlns="http://www.w3.org/2000/svg" xmlns:xlink="http://www.w3.org/1999/xlink">
<g id="graph0" class="graph" transform="scale(1 1) rotate(0) translate(4 270)">
<title>include/llvm/XRay/XRayRecord.h</title>
<!-- Node4 -->
<g id="node1" class="node">
<title>Node4</title>
<polygon fill="#bfbfbf" stroke="black" points="1541.5,-246.5 1541.5,-265.5 1705.5,-265.5 1705.5,-246.5 1541.5,-246.5"/>
<text text-anchor="middle" x="1623.5" y="-253.5" font-family="Helvetica,sans-Serif" font-size="10.00">include/llvm/XRay/XRayRecord.h</text>
</g>
<!-- Node5 -->
<g id="node2" class="node">
<title>Node5</title>
<g id="a_node2"><a xlink:href="FDRRecordProducer_8h.html" target="_top" xlink:title="include/llvm/XRay/FDRRecord\lProducer.h">
<polygon fill="none" stroke="black" points="110.5,-112.5 110.5,-142.5 262.5,-142.5 262.5,-112.5 110.5,-112.5"/>
<text text-anchor="start" x="118.5" y="-130.5" font-family="Helvetica,sans-Serif" font-size="10.00">include/llvm/XRay/FDRRecord</text>
<text text-anchor="middle" x="186.5" y="-119.5" font-family="Helvetica,sans-Serif" font-size="10.00">Producer.h</text>
</a>
</g>
</g>
<!-- Node4&#45;&gt;Node5 -->
<g id="edge1" class="edge">
<title>Node4&#45;&gt;Node5</title>
<path fill="none" stroke="midnightblue" d="M1531.29,-250.11C1313.09,-237.93 748.19,-202.82 279.5,-143 273.99,-142.3 268.3,-141.52 262.58,-140.71"/>
<polygon fill="midnightblue" stroke="midnightblue" points="1531.24,-253.61 1541.42,-250.67 1531.63,-246.62 1531.24,-253.61"/>
</g>
<!-- Node8 -->
<g id="node5" class="node">
<title>Node8</title>
<g id="a_node5"><a xlink:href="FDRRecords_8h.html" target="_top" xlink:title="include/llvm/XRay/FDRRecords.h">
<polygon fill="none" stroke="black" points="962,-185 962,-204 1127,-204 1127,-185 962,-185"/>
<text text-anchor="middle" x="1044.5" y="-192" font-family="Helvetica,sans-Serif" font-size="10.00">include/llvm/XRay/FDRRecords.h</text>
</a>
</g>
</g>
<!-- Node4&#45;&gt;Node8 -->
<g id="edge4" class="edge">
<title>Node4&#45;&gt;Node8</title>
<path fill="none" stroke="midnightblue" d="M1531.25,-245.52C1419.82,-234.07 1234.05,-214.98 1127.12,-203.99"/>
<polygon fill="midnightblue" stroke="midnightblue" points="1531.16,-249.03 1541.47,-246.57 1531.88,-242.07 1531.16,-249.03"/>
</g>
<!-- Node18 -->
<g id="node15" class="node">
<title>Node18</title>
<g id="a_node15"><a xlink:href="FDRTraceExpander_8h.html" target="_top" xlink:title="include/llvm/XRay/FDRTrace\lExpander.h">
<polygon fill="none" stroke="black" points="1548,-112.5 1548,-142.5 1693,-142.5 1693,-112.5 1548,-112.5"/>
<text text-anchor="start" x="1556" y="-130.5" font-family="Helvetica,sans-Serif" font-size="10.00">include/llvm/XRay/FDRTrace</text>
<text text-anchor="middle" x="1620.5" y="-119.5" font-family="Helvetica,sans-Serif" font-size="10.00">Expander.h</text>
</a>
</g>
</g>
<!-- Node4&#45;&gt;Node18 -->
<g id="edge29" class="edge">
<title>Node4&#45;&gt;Node18</title>
<path fill="none" stroke="midnightblue" d="M1623.05,-236.11C1622.45,-210.63 1621.38,-165.81 1620.84,-142.89"/>
<polygon fill="midnightblue" stroke="midnightblue" points="1619.56,-236.39 1623.29,-246.31 1626.56,-236.22 1619.56,-236.39"/>
</g>
<!-- Node20 -->
<g id="node17" class="node">
<title>Node20</title>
<g id="a_node17"><a xlink:href="FDRTraceWriter_8h.html" target="_top" xlink:title="include/llvm/XRay/FDRTrace\lWriter.h">
<polygon fill="none" stroke="black" points="1711,-112.5 1711,-142.5 1856,-142.5 1856,-112.5 1711,-112.5"/>
<text text-anchor="start" x="1719" y="-130.5" font-family="Helvetica,sans-Serif" font-size="10.00">include/llvm/XRay/FDRTrace</text>
<text text-anchor="middle" x="1783.5" y="-119.5" font-family="Helvetica,sans-Serif" font-size="10.00">Writer.h</text>
</a>
</g>
</g>
<!-- Node4&#45;&gt;Node20 -->
<g id="edge30" class="edge">
<title>Node4&#45;&gt;Node20</title>
<path fill="none" stroke="midnightblue" d="M1642.42,-240.05C1673.53,-215.44 1735.1,-166.77 1765.56,-142.68"/>
<polygon fill="midnightblue" stroke="midnightblue" points="1640.17,-237.36 1634.5,-246.31 1644.51,-242.85 1640.17,-237.36"/>
</g>
<!-- Node26 -->
<g id="node23" class="node">
<title>Node26</title>
<g id="a_node23"><a xlink:href="FileHeaderReader_8h.html" target="_top" xlink:title="include/llvm/XRay/FileHeader\lReader.h">
<polygon fill="none" stroke="black" points="1811.5,-179.5 1811.5,-209.5 1957.5,-209.5 1957.5,-179.5 1811.5,-179.5"/>
<text text-anchor="start" x="1819.5" y="-197.5" font-family="Helvetica,sans-Serif" font-size="10.00">include/llvm/XRay/FileHeader</text>
<text text-anchor="middle" x="1884.5" y="-186.5" font-family="Helvetica,sans-Serif" font-size="10.00">Reader.h</text>
</a>
</g>
</g>
<!-- Node4&#45;&gt;Node26 -->
<g id="edge31" class="edge">
<title>Node4&#45;&gt;Node26</title>
<path fill="none" stroke="midnightblue" d="M1670.74,-244.23C1713.39,-234.51 1776.42,-220.14 1822.99,-209.52"/>
<polygon fill="midnightblue" stroke="midnightblue" points="1669.87,-240.84 1660.89,-246.48 1671.42,-247.66 1669.87,-240.84"/>
</g>
<!-- Node28 -->
<g id="node25" class="node">
<title>Node28</title>
<g id="a_node25"><a xlink:href="XRay_2Trace_8h.html" target="_top" xlink:title="include/llvm/XRay/Trace.h">
<polygon fill="none" stroke="black" points="2030.5,-185 2030.5,-204 2162.5,-204 2162.5,-185 2030.5,-185"/>
<text text-anchor="middle" x="2096.5" y="-192" font-family="Helvetica,sans-Serif" font-size="10.00">include/llvm/XRay/Trace.h</text>
</a>
</g>
</g>
<!-- Node4&#45;&gt;Node28 -->
<g id="edge34" class="edge">
<title>Node4&#45;&gt;Node28</title>
<path fill="none" stroke="midnightblue" d="M1701.33,-245.21C1793.1,-233.67 1944.03,-214.68 2030.38,-203.82"/>
<polygon fill="midnightblue" stroke="midnightblue" points="1700.75,-241.75 1691.27,-246.48 1701.63,-248.7 1700.75,-241.75"/>
</g>
<!-- Node30 -->
<g id="node27" class="node">
<title>Node30</title>
<g id="a_node27"><a xlink:href="YAMLXRayRecord_8h.html" target="_top" xlink:title="include/llvm/XRay/YAMLXRay\lRecord.h">
<polygon fill="none" stroke="black" points="1444,-179.5 1444,-209.5 1595,-209.5 1595,-179.5 1444,-179.5"/>
<text text-anchor="start" x="1452" y="-197.5" font-family="Helvetica,sans-Serif" font-size="10.00">include/llvm/XRay/YAMLXRay</text>
<text text-anchor="middle" x="1519.5" y="-186.5" font-family="Helvetica,sans-Serif" font-size="10.00">Record.h</text>
</a>
</g>
</g>
<!-- Node4&#45;&gt;Node30 -->
<g id="edge37" class="edge">
<title>Node4&#45;&gt;Node30</title>
<path fill="none" stroke="midnightblue" d="M1599.51,-241.28C1582.87,-231.75 1560.77,-219.11 1544.01,-209.52"/>
<polygon fill="midnightblue" stroke="midnightblue" points="1598.18,-244.55 1608.6,-246.48 1601.66,-238.47 1598.18,-244.55"/>
</g>
<!-- Node6 -->
<g id="node3" class="node">
<title>Node6</title>
<g id="a_node3"><a xlink:href="FDRRecordProducer_8cpp.html" target="_top" xlink:title="lib/XRay/FDRRecordProducer.cpp">
<polygon fill="none" stroke="black" points="0,-56.5 0,-75.5 167,-75.5 167,-56.5 0,-56.5"/>
<text text-anchor="middle" x="83.5" y="-63.5" font-family="Helvetica,sans-Serif" font-size="10.00">lib/XRay/FDRRecordProducer.cpp</text>
</a>
</g>
</g>
<!-- Node5&#45;&gt;Node6 -->
<g id="edge2" class="edge">
<title>Node5&#45;&gt;Node6</title>
<path fill="none" stroke="midnightblue" d="M153.37,-107.36C134.9,-96.69 112.81,-83.93 98.49,-75.66"/>
<polygon fill="midnightblue" stroke="midnightblue" points="151.68,-110.43 162.09,-112.4 155.18,-104.37 151.68,-110.43"/>
</g>
<!-- Node7 -->
<g id="node4" class="node">
<title>Node7</title>
<g id="a_node4"><a xlink:href="XRay_2Trace_8cpp.html" target="_top" xlink:title="lib/XRay/Trace.cpp">
<polygon fill="none" stroke="black" points="1425,-56.5 1425,-75.5 1526,-75.5 1526,-56.5 1425,-56.5"/>
<text text-anchor="middle" x="1475.5" y="-63.5" font-family="Helvetica,sans-Serif" font-size="10.00">lib/XRay/Trace.cpp</text>
</a>
</g>
</g>
<!-- Node5&#45;&gt;Node7 -->
<g id="edge3" class="edge">
<title>Node5&#45;&gt;Node7</title>
<path fill="none" stroke="midnightblue" d="M272.79,-115.39C285.09,-114.08 297.61,-112.89 309.5,-112 799.94,-75.18 925.71,-120.55 1415.5,-76 1418.54,-75.72 1421.66,-75.39 1424.81,-75.03"/>
<polygon fill="midnightblue" stroke="midnightblue" points="272.07,-111.95 262.51,-116.52 272.84,-118.91 272.07,-111.95"/>
</g>
<!-- Node8&#45;&gt;Node5 -->
<g id="edge17" class="edge">
<title>Node8&#45;&gt;Node5</title>
<path fill="none" stroke="midnightblue" d="M951.71,-190.22C807.08,-184.47 519.29,-170.48 276.5,-143 271.94,-142.48 267.26,-141.9 262.54,-141.27"/>
<polygon fill="midnightblue" stroke="midnightblue" points="951.74,-193.72 961.87,-190.62 952.02,-186.73 951.74,-193.72"/>
</g>
<!-- Node8&#45;&gt;Node7 -->
<g id="edge28" class="edge">
<title>Node8&#45;&gt;Node7</title>
<path fill="none" stroke="midnightblue" d="M1137.63,-188.09C1253.61,-180.46 1439.41,-164.99 1462.5,-143 1481.11,-125.28 1479.12,-91.39 1476.96,-75.55"/>
<polygon fill="midnightblue" stroke="midnightblue" points="1137.08,-184.62 1127.33,-188.76 1137.53,-191.6 1137.08,-184.62"/>
</g>
<!-- Node9 -->
<g id="node6" class="node">
<title>Node9</title>
<g id="a_node6"><a xlink:href="BlockIndexer_8h.html" target="_top" xlink:title="include/llvm/XRay/BlockIndexer.h">
<polygon fill="none" stroke="black" points="1289.5,-118 1289.5,-137 1453.5,-137 1453.5,-118 1289.5,-118"/>
<text text-anchor="middle" x="1371.5" y="-125" font-family="Helvetica,sans-Serif" font-size="10.00">include/llvm/XRay/BlockIndexer.h</text>
</a>
</g>
</g>
<!-- Node8&#45;&gt;Node9 -->
<g id="edge5" class="edge">
<title>Node8&#45;&gt;Node9</title>
<path fill="none" stroke="midnightblue" d="M1097.53,-182.96C1161.89,-170.16 1269.16,-148.84 1328.58,-137.03"/>
<polygon fill="midnightblue" stroke="midnightblue" points="1096.71,-179.55 1087.59,-184.94 1098.08,-186.42 1096.71,-179.55"/>
</g>
<!-- Node11 -->
<g id="node8" class="node">
<title>Node11</title>
<g id="a_node8"><a xlink:href="BlockPrinter_8h.html" target="_top" xlink:title="include/llvm/XRay/BlockPrinter.h">
<polygon fill="none" stroke="black" points="185,-56.5 185,-75.5 346,-75.5 346,-56.5 185,-56.5"/>
<text text-anchor="middle" x="265.5" y="-63.5" font-family="Helvetica,sans-Serif" font-size="10.00">include/llvm/XRay/BlockPrinter.h</text>
</a>
</g>
</g>
<!-- Node8&#45;&gt;Node11 -->
<g id="edge8" class="edge">
<title>Node8&#45;&gt;Node11</title>
<path fill="none" stroke="midnightblue" d="M951.82,-191.96C766.36,-188.17 362.76,-176.19 309.5,-143 284.66,-127.52 272.33,-92.51 267.72,-75.97"/>
<polygon fill="midnightblue" stroke="midnightblue" points="951.76,-195.46 961.83,-192.16 951.9,-188.46 951.76,-195.46"/>
</g>
<!-- Node13 -->
<g id="node10" class="node">
<title>Node13</title>
<g id="a_node10"><a xlink:href="BlockVerifier_8h.html" target="_top" xlink:title="include/llvm/XRay/BlockVerifier.h">
<polygon fill="none" stroke="black" points="468,-118 468,-137 631,-137 631,-118 468,-118"/>
<text text-anchor="middle" x="549.5" y="-125" font-family="Helvetica,sans-Serif" font-size="10.00">include/llvm/XRay/BlockVerifier.h</text>
</a>
</g>
</g>
<!-- Node8&#45;&gt;Node13 -->
<g id="edge10" class="edge">
<title>Node8&#45;&gt;Node13</title>
<path fill="none" stroke="midnightblue" d="M960.32,-183.81C878.52,-174.2 750.84,-158.68 640.5,-143 627.67,-141.18 613.85,-139.06 600.95,-137.01"/>
<polygon fill="midnightblue" stroke="midnightblue" points="959.97,-187.3 970.31,-184.98 960.79,-180.34 959.97,-187.3"/>
</g>
<!-- Node15 -->
<g id="node12" class="node">
<title>Node15</title>
<g id="a_node12"><a xlink:href="FDRLogBuilder_8h.html" target="_top" xlink:title="include/llvm/XRay/FDRLog\lBuilder.h">
<polygon fill="none" stroke="black" points="1135.5,-112.5 1135.5,-142.5 1271.5,-142.5 1271.5,-112.5 1135.5,-112.5"/>
<text text-anchor="start" x="1143.5" y="-130.5" font-family="Helvetica,sans-Serif" font-size="10.00">include/llvm/XRay/FDRLog</text>
<text text-anchor="middle" x="1203.5" y="-119.5" font-family="Helvetica,sans-Serif" font-size="10.00">Builder.h</text>
</a>
</g>
</g>
<!-- Node8&#45;&gt;Node15 -->
<g id="edge13" class="edge">
<title>Node8&#45;&gt;Node15</title>
<path fill="none" stroke="midnightblue" d="M1074.94,-181.06C1101.87,-170.05 1141.14,-153.99 1169.19,-142.53"/>
<polygon fill="midnightblue" stroke="midnightblue" points="1073.55,-177.84 1065.61,-184.87 1076.19,-184.32 1073.55,-177.84"/>
</g>
<!-- Node16 -->
<g id="node13" class="node">
<title>Node16</title>
<g id="a_node13"><a xlink:href="FDRRecordConsumer_8h.html" target="_top" xlink:title="include/llvm/XRay/FDRRecord\lConsumer.h">
<polygon fill="none" stroke="black" points="649.5,-112.5 649.5,-142.5 801.5,-142.5 801.5,-112.5 649.5,-112.5"/>
<text text-anchor="start" x="657.5" y="-130.5" font-family="Helvetica,sans-Serif" font-size="10.00">include/llvm/XRay/FDRRecord</text>
<text text-anchor="middle" x="725.5" y="-119.5" font-family="Helvetica,sans-Serif" font-size="10.00">Consumer.h</text>
</a>
</g>
</g>
<!-- Node8&#45;&gt;Node16 -->
<g id="edge14" class="edge">
<title>Node8&#45;&gt;Node16</title>
<path fill="none" stroke="midnightblue" d="M992.44,-182.89C938.51,-171.9 853.96,-154.68 794.5,-142.56"/>
<polygon fill="midnightblue" stroke="midnightblue" points="991.97,-186.37 1002.47,-184.94 993.37,-179.51 991.97,-186.37"/>
</g>
<!-- Node8&#45;&gt;Node18 -->
<g id="edge18" class="edge">
<title>Node8&#45;&gt;Node18</title>
<path fill="none" stroke="midnightblue" d="M1131.5,-183.86C1222.33,-173.78 1368.93,-157.43 1495.5,-143 1512.43,-141.07 1530.65,-138.97 1547.8,-136.98"/>
<polygon fill="midnightblue" stroke="midnightblue" points="1131.07,-180.39 1121.52,-184.97 1131.84,-187.35 1131.07,-180.39"/>
</g>
<!-- Node8&#45;&gt;Node20 -->
<g id="edge21" class="edge">
<title>Node8&#45;&gt;Node20</title>
<path fill="none" stroke="midnightblue" d="M1137.34,-189.24C1264.86,-182.74 1501.22,-168.34 1701.5,-143 1704.51,-142.62 1707.58,-142.2 1710.68,-141.76"/>
<polygon fill="midnightblue" stroke="midnightblue" points="1137.03,-185.76 1127.22,-189.76 1137.38,-192.75 1137.03,-185.76"/>
</g>
<!-- Node22 -->
<g id="node19" class="node">
<title>Node22</title>
<g id="a_node19"><a xlink:href="RecordPrinter_8h.html" target="_top" xlink:title="include/llvm/XRay/Record\lPrinter.h">
<polygon fill="none" stroke="black" points="319,-112.5 319,-142.5 450,-142.5 450,-112.5 319,-112.5"/>
<text text-anchor="start" x="327" y="-130.5" font-family="Helvetica,sans-Serif" font-size="10.00">include/llvm/XRay/Record</text>
<text text-anchor="middle" x="384.5" y="-119.5" font-family="Helvetica,sans-Serif" font-size="10.00">Printer.h</text>
</a>
</g>
</g>
<!-- Node8&#45;&gt;Node22 -->
<g id="edge23" class="edge">
<title>Node8&#45;&gt;Node22</title>
<path fill="none" stroke="midnightblue" d="M951.45,-188.58C835.57,-181.74 631.74,-167.37 458.5,-143 455.78,-142.62 453,-142.2 450.21,-141.76"/>
<polygon fill="midnightblue" stroke="midnightblue" points="951.51,-192.09 961.7,-189.18 951.92,-185.1 951.51,-192.09"/>
</g>
<!-- Node24 -->
<g id="node21" class="node">
<title>Node24</title>
<g id="a_node21"><a xlink:href="FDRRecords_8cpp.html" target="_top" xlink:title="lib/XRay/FDRRecords.cpp">
<polygon fill="none" stroke="black" points="819.5,-118 819.5,-137 953.5,-137 953.5,-118 819.5,-118"/>
<text text-anchor="middle" x="886.5" y="-125" font-family="Helvetica,sans-Serif" font-size="10.00">lib/XRay/FDRRecords.cpp</text>
</a>
</g>
</g>
<!-- Node8&#45;&gt;Node24 -->
<g id="edge26" class="edge">
<title>Node8&#45;&gt;Node24</title>
<path fill="none" stroke="midnightblue" d="M1013.99,-180.95C982.71,-168.08 934.88,-148.4 907.57,-137.17"/>
<polygon fill="midnightblue" stroke="midnightblue" points="1012.94,-184.3 1023.52,-184.87 1015.6,-177.83 1012.94,-184.3"/>
</g>
<!-- Node25 -->
<g id="node22" class="node">
<title>Node25</title>
<g id="a_node22"><a xlink:href="RecordInitializer_8cpp.html" target="_top" xlink:title="lib/XRay/RecordInitializer.cpp">
<polygon fill="none" stroke="black" points="971.5,-118 971.5,-137 1117.5,-137 1117.5,-118 971.5,-118"/>
<text text-anchor="middle" x="1044.5" y="-125" font-family="Helvetica,sans-Serif" font-size="10.00">lib/XRay/RecordInitializer.cpp</text>
</a>
</g>
</g>
<!-- Node8&#45;&gt;Node25 -->
<g id="edge27" class="edge">
<title>Node8&#45;&gt;Node25</title>
<path fill="none" stroke="midnightblue" d="M1044.5,-174.54C1044.5,-162.17 1044.5,-146.62 1044.5,-137.13"/>
<polygon fill="midnightblue" stroke="midnightblue" points="1041,-174.73 1044.5,-184.73 1048,-174.73 1041,-174.73"/>
</g>
<!-- Node9&#45;&gt;Node7 -->
<g id="edge7" class="edge">
<title>Node9&#45;&gt;Node7</title>
<path fill="none" stroke="midnightblue" d="M1395.27,-112.9C1415.38,-101.4 1443.57,-85.27 1460.63,-75.51"/>
<polygon fill="midnightblue" stroke="midnightblue" points="1393.34,-109.97 1386.4,-117.98 1396.82,-116.05 1393.34,-109.97"/>
</g>
<!-- Node10 -->
<g id="node7" class="node">
<title>Node10</title>
<g id="a_node7"><a xlink:href="BlockIndexer_8cpp.html" target="_top" xlink:title="lib/XRay/BlockIndexer.cpp">
<polygon fill="none" stroke="black" points="1274,-56.5 1274,-75.5 1407,-75.5 1407,-56.5 1274,-56.5"/>
<text text-anchor="middle" x="1340.5" y="-63.5" font-family="Helvetica,sans-Serif" font-size="10.00">lib/XRay/BlockIndexer.cpp</text>
</a>
</g>
</g>
<!-- Node9&#45;&gt;Node10 -->
<g id="edge6" class="edge">
<title>Node9&#45;&gt;Node10</title>
<path fill="none" stroke="midnightblue" d="M1362.3,-108.83C1356.56,-97.83 1349.44,-84.16 1344.93,-75.51"/>
<polygon fill="midnightblue" stroke="midnightblue" points="1359.33,-110.72 1367.06,-117.98 1365.54,-107.49 1359.33,-110.72"/>
</g>
<!-- Node12 -->
<g id="node9" class="node">
<title>Node12</title>
<g id="a_node9"><a xlink:href="BlockPrinter_8cpp.html" target="_top" xlink:title="lib/XRay/BlockPrinter.cpp">
<polygon fill="none" stroke="black" points="201,-0.5 201,-19.5 330,-19.5 330,-0.5 201,-0.5"/>
<text text-anchor="middle" x="265.5" y="-7.5" font-family="Helvetica,sans-Serif" font-size="10.00">lib/XRay/BlockPrinter.cpp</text>
</a>
</g>
</g>
<!-- Node11&#45;&gt;Node12 -->
<g id="edge9" class="edge">
<title>Node11&#45;&gt;Node12</title>
<path fill="none" stroke="midnightblue" d="M265.5,-45.8C265.5,-36.91 265.5,-26.78 265.5,-19.75"/>
<polygon fill="midnightblue" stroke="midnightblue" points="262,-46.08 265.5,-56.08 269,-46.08 262,-46.08"/>
</g>
<!-- Node13&#45;&gt;Node7 -->
<g id="edge12" class="edge">
<title>Node13&#45;&gt;Node7</title>
<path fill="none" stroke="midnightblue" d="M606.7,-116.39C617.88,-114.69 629.53,-113.12 640.5,-112 983.52,-76.82 1072.33,-109.62 1415.5,-76 1418.54,-75.7 1421.66,-75.36 1424.81,-74.98"/>
<polygon fill="midnightblue" stroke="midnightblue" points="605.94,-112.96 596.6,-117.97 607.02,-119.88 605.94,-112.96"/>
</g>
<!-- Node14 -->
<g id="node11" class="node">
<title>Node14</title>
<g id="a_node11"><a xlink:href="BlockVerifier_8cpp.html" target="_top" xlink:title="lib/XRay/BlockVerifier.cpp">
<polygon fill="none" stroke="black" points="519,-56.5 519,-75.5 650,-75.5 650,-56.5 519,-56.5"/>
<text text-anchor="middle" x="584.5" y="-63.5" font-family="Helvetica,sans-Serif" font-size="10.00">lib/XRay/BlockVerifier.cpp</text>
</a>
</g>
</g>
<!-- Node13&#45;&gt;Node14 -->
<g id="edge11" class="edge">
<title>Node13&#45;&gt;Node14</title>
<path fill="none" stroke="midnightblue" d="M559.69,-109.17C566.2,-98.11 574.35,-84.25 579.49,-75.51"/>
<polygon fill="midnightblue" stroke="midnightblue" points="556.57,-107.58 554.51,-117.98 562.6,-111.13 556.57,-107.58"/>
</g>
<!-- Node16&#45;&gt;Node7 -->
<g id="edge16" class="edge">
<title>Node16&#45;&gt;Node7</title>
<path fill="none" stroke="midnightblue" d="M811.92,-111.92C1079.84,-81.85 1150.87,-103.66 1415.5,-76 1418.54,-75.68 1421.66,-75.32 1424.8,-74.93"/>
<polygon fill="midnightblue" stroke="midnightblue" points="811.44,-108.45 801.9,-113.06 812.23,-115.41 811.44,-108.45"/>
</g>
<!-- Node17 -->
<g id="node14" class="node">
<title>Node17</title>
<g id="a_node14"><a xlink:href="LogBuilderConsumer_8cpp.html" target="_top" xlink:title="lib/XRay/LogBuilderConsumer.cpp">
<polygon fill="none" stroke="black" points="668,-56.5 668,-75.5 835,-75.5 835,-56.5 668,-56.5"/>
<text text-anchor="middle" x="751.5" y="-63.5" font-family="Helvetica,sans-Serif" font-size="10.00">lib/XRay/LogBuilderConsumer.cpp</text>
</a>
</g>
</g>
<!-- Node16&#45;&gt;Node17 -->
<g id="edge15" class="edge">
<title>Node16&#45;&gt;Node17</title>
<path fill="none" stroke="midnightblue" d="M735.68,-103.2C739.91,-93.52 744.56,-82.88 747.72,-75.66"/>
<polygon fill="midnightblue" stroke="midnightblue" points="732.46,-101.83 731.66,-112.4 738.87,-104.64 732.46,-101.83"/>
</g>
<!-- Node18&#45;&gt;Node7 -->
<g id="edge20" class="edge">
<title>Node18&#45;&gt;Node7</title>
<path fill="none" stroke="midnightblue" d="M1576.67,-108.52C1550.14,-97.63 1517.5,-84.23 1496.6,-75.66"/>
<polygon fill="midnightblue" stroke="midnightblue" points="1575.56,-111.84 1586.14,-112.4 1578.21,-105.37 1575.56,-111.84"/>
</g>
<!-- Node19 -->
<g id="node16" class="node">
<title>Node19</title>
<g id="a_node16"><a xlink:href="FDRTraceExpander_8cpp.html" target="_top" xlink:title="lib/XRay/FDRTraceExpander.cpp">
<polygon fill="none" stroke="black" points="1544,-56.5 1544,-75.5 1707,-75.5 1707,-56.5 1544,-56.5"/>
<text text-anchor="middle" x="1625.5" y="-63.5" font-family="Helvetica,sans-Serif" font-size="10.00">lib/XRay/FDRTraceExpander.cpp</text>
</a>
</g>
</g>
<!-- Node18&#45;&gt;Node19 -->
<g id="edge19" class="edge">
<title>Node18&#45;&gt;Node19</title>
<path fill="none" stroke="midnightblue" d="M1622.53,-102.29C1623.33,-92.86 1624.18,-82.65 1624.77,-75.66"/>
<polygon fill="midnightblue" stroke="midnightblue" points="1619.03,-102.14 1621.68,-112.4 1626.01,-102.73 1619.03,-102.14"/>
</g>
<!-- Node21 -->
<g id="node18" class="node">
<title>Node21</title>
<g id="a_node18"><a xlink:href="FDRTraceWriter_8cpp.html" target="_top" xlink:title="lib/XRay/FDRTraceWriter.cpp">
<polygon fill="none" stroke="black" points="1725.5,-56.5 1725.5,-75.5 1873.5,-75.5 1873.5,-56.5 1725.5,-56.5"/>
<text text-anchor="middle" x="1799.5" y="-63.5" font-family="Helvetica,sans-Serif" font-size="10.00">lib/XRay/FDRTraceWriter.cpp</text>
</a>
</g>
</g>
<!-- Node20&#45;&gt;Node21 -->
<g id="edge22" class="edge">
<title>Node20&#45;&gt;Node21</title>
<path fill="none" stroke="midnightblue" d="M1789.93,-102.59C1792.49,-93.08 1795.27,-82.73 1797.17,-75.66"/>
<polygon fill="midnightblue" stroke="midnightblue" points="1786.51,-101.83 1787.29,-112.4 1793.27,-103.65 1786.51,-101.83"/>
</g>
<!-- Node22&#45;&gt;Node11 -->
<g id="edge24" class="edge">
<title>Node22&#45;&gt;Node11</title>
<path fill="none" stroke="midnightblue" d="M347.09,-107.8C325.59,-97.04 299.59,-84.05 282.82,-75.66"/>
<polygon fill="midnightblue" stroke="midnightblue" points="345.79,-111.06 356.3,-112.4 348.92,-104.8 345.79,-111.06"/>
</g>
<!-- Node23 -->
<g id="node20" class="node">
<title>Node23</title>
<g id="a_node20"><a xlink:href="RecordPrinter_8cpp.html" target="_top" xlink:title="lib/XRay/RecordPrinter.cpp">
<polygon fill="none" stroke="black" points="364.5,-56.5 364.5,-75.5 500.5,-75.5 500.5,-56.5 364.5,-56.5"/>
<text text-anchor="middle" x="432.5" y="-63.5" font-family="Helvetica,sans-Serif" font-size="10.00">lib/XRay/RecordPrinter.cpp</text>
</a>
</g>
</g>
<!-- Node22&#45;&gt;Node23 -->
<g id="edge25" class="edge">
<title>Node22&#45;&gt;Node23</title>
<path fill="none" stroke="midnightblue" d="M402.33,-104.4C410.39,-94.41 419.45,-83.18 425.52,-75.66"/>
<polygon fill="midnightblue" stroke="midnightblue" points="399.43,-102.42 395.88,-112.4 404.88,-106.81 399.43,-102.42"/>
</g>
<!-- Node26&#45;&gt;Node7 -->
<g id="edge33" class="edge">
<title>Node26&#45;&gt;Node7</title>
<path fill="none" stroke="midnightblue" d="M1885.46,-169.16C1884.77,-150.65 1880.53,-126.04 1864.5,-112 1809.01,-63.39 1607.65,-85.56 1534.5,-76 1531.73,-75.64 1528.88,-75.25 1526.01,-74.85"/>
<polygon fill="midnightblue" stroke="midnightblue" points="1881.96,-169.25 1885.52,-179.23 1888.96,-169.21 1881.96,-169.25"/>
</g>
<!-- Node27 -->
<g id="node24" class="node">
<title>Node27</title>
<g id="a_node24"><a xlink:href="FileHeaderReader_8cpp.html" target="_top" xlink:title="lib/XRay/FileHeaderReader.cpp">
<polygon fill="none" stroke="black" points="1913,-118 1913,-137 2068,-137 2068,-118 1913,-118"/>
<text text-anchor="middle" x="1990.5" y="-125" font-family="Helvetica,sans-Serif" font-size="10.00">lib/XRay/FileHeaderReader.cpp</text>
</a>
</g>
</g>
<!-- Node26&#45;&gt;Node27 -->
<g id="edge32" class="edge">
<title>Node26&#45;&gt;Node27</title>
<path fill="none" stroke="midnightblue" d="M1916.07,-174.14C1936.22,-161.79 1961.33,-146.39 1976.63,-137.01"/>
<polygon fill="midnightblue" stroke="midnightblue" points="1914.2,-171.18 1907.5,-179.4 1917.85,-177.15 1914.2,-171.18"/>
</g>
<!-- Node28&#45;&gt;Node7 -->
<g id="edge36" class="edge">
<title>Node28&#45;&gt;Node7</title>
<path fill="none" stroke="midnightblue" d="M2097.7,-174.83C2097.8,-155.87 2094.61,-127.2 2076.5,-112 2030.27,-73.2 1594.5,-82.56 1534.5,-76 1531.82,-75.71 1529.08,-75.38 1526.31,-75.03"/>
<polygon fill="midnightblue" stroke="midnightblue" points="2094.2,-174.82 2097.34,-184.93 2101.2,-175.07 2094.2,-174.82"/>
</g>
<!-- Node29 -->
<g id="node26" class="node">
<title>Node29</title>
<g id="a_node26"><a xlink:href="Profile_8cpp.html" target="_top" xlink:title="lib/XRay/Profile.cpp">
<polygon fill="none" stroke="black" points="2124.5,-118 2124.5,-137 2228.5,-137 2228.5,-118 2124.5,-118"/>
<text text-anchor="middle" x="2176.5" y="-125" font-family="Helvetica,sans-Serif" font-size="10.00">lib/XRay/Profile.cpp</text>
</a>
</g>
</g>
<!-- Node28&#45;&gt;Node29 -->
<g id="edge35" class="edge">
<title>Node28&#45;&gt;Node29</title>
<path fill="none" stroke="midnightblue" d="M2115.31,-178.21C2131.08,-165.41 2153.01,-147.59 2165.88,-137.13"/>
<polygon fill="midnightblue" stroke="midnightblue" points="2112.84,-175.71 2107.29,-184.73 2117.26,-181.14 2112.84,-175.71"/>
</g>
<!-- Node30&#45;&gt;Node7 -->
<g id="edge38" class="edge">
<title>Node30&#45;&gt;Node7</title>
<path fill="none" stroke="midnightblue" d="M1513.36,-169.63C1508.93,-153.23 1502.51,-131.08 1495.5,-112 1490.78,-99.16 1484.15,-84.79 1479.84,-75.82"/>
<polygon fill="midnightblue" stroke="midnightblue" points="1510.03,-170.71 1515.97,-179.47 1516.79,-168.91 1510.03,-170.71"/>
</g>
</g>
</svg>
