<?xml version="1.0" encoding="UTF-8" standalone="no"?>
<!DOCTYPE svg PUBLIC "-//W3C//DTD SVG 1.1//EN"
 "http://www.w3.org/Graphics/SVG/1.1/DTD/svg11.dtd">
<!-- Generated by graphviz version 2.43.0 (0)
 -->
<!-- Title: include/llvm/ObjectYAML/YAML.h Pages: 1 -->
<svg width="1802pt" height="296pt"
 viewBox="0.00 0.00 1801.50 296.00" xmlns="http://www.w3.org/2000/svg" xmlns:xlink="http://www.w3.org/1999/xlink">
<g id="graph0" class="graph" transform="scale(1 1) rotate(0) translate(4 292)">
<title>include/llvm/ObjectYAML/YAML.h</title>
<!-- Node90 -->
<g id="node1" class="node">
<title>Node90</title>
<polygon fill="#bfbfbf" stroke="black" points="989,-257.5 989,-287.5 1116,-287.5 1116,-257.5 989,-257.5"/>
<text text-anchor="start" x="997" y="-275.5" font-family="Helvetica,sans-Serif" font-size="10.00">include/llvm/ObjectYAML</text>
<text text-anchor="middle" x="1052.5" y="-264.5" font-family="Helvetica,sans-Serif" font-size="10.00">/YAML.h</text>
</g>
<!-- Node91 -->
<g id="node2" class="node">
<title>Node91</title>
<g id="a_node2"><a xlink:href="CodeViewYAMLTypeHashing_8h.html" target="_top" xlink:title="include/llvm/ObjectYAML\l/CodeViewYAMLTypeHashing.h">
<polygon fill="none" stroke="black" points="174.5,-190.5 174.5,-220.5 332.5,-220.5 332.5,-190.5 174.5,-190.5"/>
<text text-anchor="start" x="182.5" y="-208.5" font-family="Helvetica,sans-Serif" font-size="10.00">include/llvm/ObjectYAML</text>
<text text-anchor="middle" x="253.5" y="-197.5" font-family="Helvetica,sans-Serif" font-size="10.00">/CodeViewYAMLTypeHashing.h</text>
</a>
</g>
</g>
<!-- Node90&#45;&gt;Node91 -->
<g id="edge1" class="edge">
<title>Node90&#45;&gt;Node91</title>
<path fill="none" stroke="midnightblue" d="M978.74,-265.5C828.4,-253.27 487.64,-225.55 332.77,-212.95"/>
<polygon fill="midnightblue" stroke="midnightblue" points="978.55,-269 988.8,-266.32 979.12,-262.02 978.55,-269"/>
</g>
<!-- Node92 -->
<g id="node3" class="node">
<title>Node92</title>
<g id="a_node3"><a xlink:href="COFFYAML_8h.html" target="_top" xlink:title="include/llvm/ObjectYAML\l/COFFYAML.h">
<polygon fill="none" stroke="black" points="17,-123.5 17,-153.5 144,-153.5 144,-123.5 17,-123.5"/>
<text text-anchor="start" x="25" y="-141.5" font-family="Helvetica,sans-Serif" font-size="10.00">include/llvm/ObjectYAML</text>
<text text-anchor="middle" x="80.5" y="-130.5" font-family="Helvetica,sans-Serif" font-size="10.00">/COFFYAML.h</text>
</a>
</g>
</g>
<!-- Node90&#45;&gt;Node92 -->
<g id="edge11" class="edge">
<title>Node90&#45;&gt;Node92</title>
<path fill="none" stroke="midnightblue" d="M978.78,-270.22C779.32,-266.36 239.09,-253.04 165.5,-221 132.13,-206.47 104.07,-172.75 90.07,-153.54"/>
<polygon fill="midnightblue" stroke="midnightblue" points="978.8,-273.72 988.87,-270.42 978.94,-266.73 978.8,-273.72"/>
</g>
<!-- Node101 -->
<g id="node12" class="node">
<title>Node101</title>
<g id="a_node12"><a xlink:href="ELFYAML_8h.html" target="_top" xlink:title="This file declares classes for handling the YAML representation of ELF. ">
<polygon fill="none" stroke="black" points="501,-190.5 501,-220.5 628,-220.5 628,-190.5 501,-190.5"/>
<text text-anchor="start" x="509" y="-208.5" font-family="Helvetica,sans-Serif" font-size="10.00">include/llvm/ObjectYAML</text>
<text text-anchor="middle" x="564.5" y="-197.5" font-family="Helvetica,sans-Serif" font-size="10.00">/ELFYAML.h</text>
</a>
</g>
</g>
<!-- Node90&#45;&gt;Node101 -->
<g id="edge12" class="edge">
<title>Node90&#45;&gt;Node101</title>
<path fill="none" stroke="midnightblue" d="M978.55,-261.65C883.09,-248.94 718.56,-227.02 628.31,-215"/>
<polygon fill="midnightblue" stroke="midnightblue" points="978.33,-265.15 988.7,-263 979.25,-258.21 978.33,-265.15"/>
</g>
<!-- Node104 -->
<g id="node15" class="node">
<title>Node104</title>
<g id="a_node15"><a xlink:href="MachOYAML_8h.html" target="_top" xlink:title="This file declares classes for handling the YAML representation of Mach&#45;O. ">
<polygon fill="none" stroke="black" points="802,-190.5 802,-220.5 929,-220.5 929,-190.5 802,-190.5"/>
<text text-anchor="start" x="810" y="-208.5" font-family="Helvetica,sans-Serif" font-size="10.00">include/llvm/ObjectYAML</text>
<text text-anchor="middle" x="865.5" y="-197.5" font-family="Helvetica,sans-Serif" font-size="10.00">/MachOYAML.h</text>
</a>
</g>
</g>
<!-- Node90&#45;&gt;Node104 -->
<g id="edge16" class="edge">
<title>Node90&#45;&gt;Node104</title>
<path fill="none" stroke="midnightblue" d="M1002.42,-254.09C972.23,-243.6 934.28,-230.41 906,-220.58"/>
<polygon fill="midnightblue" stroke="midnightblue" points="1001.33,-257.42 1011.92,-257.4 1003.63,-250.81 1001.33,-257.42"/>
</g>
<!-- Node106 -->
<g id="node17" class="node">
<title>Node106</title>
<g id="a_node17"><a xlink:href="MinidumpYAML_8h.html" target="_top" xlink:title="include/llvm/ObjectYAML\l/MinidumpYAML.h">
<polygon fill="none" stroke="black" points="989,-190.5 989,-220.5 1116,-220.5 1116,-190.5 989,-190.5"/>
<text text-anchor="start" x="997" y="-208.5" font-family="Helvetica,sans-Serif" font-size="10.00">include/llvm/ObjectYAML</text>
<text text-anchor="middle" x="1052.5" y="-197.5" font-family="Helvetica,sans-Serif" font-size="10.00">/MinidumpYAML.h</text>
</a>
</g>
</g>
<!-- Node90&#45;&gt;Node106 -->
<g id="edge19" class="edge">
<title>Node90&#45;&gt;Node106</title>
<path fill="none" stroke="midnightblue" d="M1052.5,-247.11C1052.5,-238.15 1052.5,-228.32 1052.5,-220.58"/>
<polygon fill="midnightblue" stroke="midnightblue" points="1049,-247.4 1052.5,-257.4 1056,-247.4 1049,-247.4"/>
</g>
<!-- Node109 -->
<g id="node20" class="node">
<title>Node109</title>
<g id="a_node20"><a xlink:href="WasmYAML_8h.html" target="_top" xlink:title="This file declares classes for handling the YAML representation of wasm binaries. ...">
<polygon fill="none" stroke="black" points="1134,-190.5 1134,-220.5 1261,-220.5 1261,-190.5 1134,-190.5"/>
<text text-anchor="start" x="1142" y="-208.5" font-family="Helvetica,sans-Serif" font-size="10.00">include/llvm/ObjectYAML</text>
<text text-anchor="middle" x="1197.5" y="-197.5" font-family="Helvetica,sans-Serif" font-size="10.00">/WasmYAML.h</text>
</a>
</g>
</g>
<!-- Node90&#45;&gt;Node109 -->
<g id="edge23" class="edge">
<title>Node90&#45;&gt;Node109</title>
<path fill="none" stroke="midnightblue" d="M1093.17,-253.27C1116.26,-242.92 1144.74,-230.15 1166.1,-220.58"/>
<polygon fill="midnightblue" stroke="midnightblue" points="1091.66,-250.11 1083.96,-257.4 1094.52,-256.5 1091.66,-250.11"/>
</g>
<!-- Node111 -->
<g id="node22" class="node">
<title>Node111</title>
<g id="a_node22"><a xlink:href="XCOFFYAML_8h.html" target="_top" xlink:title="include/llvm/ObjectYAML\l/XCOFFYAML.h">
<polygon fill="none" stroke="black" points="1279,-190.5 1279,-220.5 1406,-220.5 1406,-190.5 1279,-190.5"/>
<text text-anchor="start" x="1287" y="-208.5" font-family="Helvetica,sans-Serif" font-size="10.00">include/llvm/ObjectYAML</text>
<text text-anchor="middle" x="1342.5" y="-197.5" font-family="Helvetica,sans-Serif" font-size="10.00">/XCOFFYAML.h</text>
</a>
</g>
</g>
<!-- Node90&#45;&gt;Node111 -->
<g id="edge26" class="edge">
<title>Node90&#45;&gt;Node111</title>
<path fill="none" stroke="midnightblue" d="M1124.99,-255.25C1172.52,-244.6 1234.06,-230.81 1279.54,-220.61"/>
<polygon fill="midnightblue" stroke="midnightblue" points="1124.06,-251.87 1115.07,-257.48 1125.59,-258.7 1124.06,-251.87"/>
</g>
<!-- Node113 -->
<g id="node24" class="node">
<title>Node113</title>
<g id="a_node24"><a xlink:href="CodeViewYAMLSymbols_8cpp.html" target="_top" xlink:title="lib/ObjectYAML/CodeViewYAMLSymbols.cpp">
<polygon fill="none" stroke="black" points="1424,-196 1424,-215 1641,-215 1641,-196 1424,-196"/>
<text text-anchor="middle" x="1532.5" y="-203" font-family="Helvetica,sans-Serif" font-size="10.00">lib/ObjectYAML/CodeViewYAMLSymbols.cpp</text>
</a>
</g>
</g>
<!-- Node90&#45;&gt;Node113 -->
<g id="edge28" class="edge">
<title>Node90&#45;&gt;Node113</title>
<path fill="none" stroke="midnightblue" d="M1126.24,-261.51C1220.25,-248.78 1381.17,-226.99 1469.64,-215.01"/>
<polygon fill="midnightblue" stroke="midnightblue" points="1125.68,-258.06 1116.24,-262.87 1126.62,-264.99 1125.68,-258.06"/>
</g>
<!-- Node114 -->
<g id="node25" class="node">
<title>Node114</title>
<g id="a_node25"><a xlink:href="YAML_8cpp.html" target="_top" xlink:title="lib/ObjectYAML/YAML.cpp">
<polygon fill="none" stroke="black" points="1659.5,-196 1659.5,-215 1793.5,-215 1793.5,-196 1659.5,-196"/>
<text text-anchor="middle" x="1726.5" y="-203" font-family="Helvetica,sans-Serif" font-size="10.00">lib/ObjectYAML/YAML.cpp</text>
</a>
</g>
</g>
<!-- Node90&#45;&gt;Node114 -->
<g id="edge29" class="edge">
<title>Node90&#45;&gt;Node114</title>
<path fill="none" stroke="midnightblue" d="M1126.3,-267.75C1239.48,-261.44 1462.57,-246.79 1650.5,-221 1662.08,-219.41 1674.56,-217.23 1686,-215.04"/>
<polygon fill="midnightblue" stroke="midnightblue" points="1125.82,-264.27 1116.02,-268.32 1126.2,-271.26 1125.82,-264.27"/>
</g>
<!-- Node91&#45;&gt;Node92 -->
<g id="edge2" class="edge">
<title>Node91&#45;&gt;Node92</title>
<path fill="none" stroke="midnightblue" d="M206.44,-186.82C178.63,-176.37 143.91,-163.32 117.97,-153.58"/>
<polygon fill="midnightblue" stroke="midnightblue" points="205.37,-190.16 215.96,-190.4 207.83,-183.6 205.37,-190.16"/>
</g>
<!-- Node100 -->
<g id="node11" class="node">
<title>Node100</title>
<g id="a_node11"><a xlink:href="CodeViewYAMLTypeHashing_8cpp.html" target="_top" xlink:title="lib/ObjectYAML/CodeViewYAMLType\lHashing.cpp">
<polygon fill="none" stroke="black" points="162.5,-123.5 162.5,-153.5 344.5,-153.5 344.5,-123.5 162.5,-123.5"/>
<text text-anchor="start" x="170.5" y="-141.5" font-family="Helvetica,sans-Serif" font-size="10.00">lib/ObjectYAML/CodeViewYAMLType</text>
<text text-anchor="middle" x="253.5" y="-130.5" font-family="Helvetica,sans-Serif" font-size="10.00">Hashing.cpp</text>
</a>
</g>
</g>
<!-- Node91&#45;&gt;Node100 -->
<g id="edge10" class="edge">
<title>Node91&#45;&gt;Node100</title>
<path fill="none" stroke="midnightblue" d="M253.5,-180.11C253.5,-171.15 253.5,-161.32 253.5,-153.58"/>
<polygon fill="midnightblue" stroke="midnightblue" points="250,-180.4 253.5,-190.4 257,-180.4 250,-180.4"/>
</g>
<!-- Node93 -->
<g id="node4" class="node">
<title>Node93</title>
<g id="a_node4"><a xlink:href="ObjectYAML_8h.html" target="_top" xlink:title="include/llvm/ObjectYAML\l/ObjectYAML.h">
<polygon fill="none" stroke="black" points="691,-56.5 691,-86.5 818,-86.5 818,-56.5 691,-56.5"/>
<text text-anchor="start" x="699" y="-74.5" font-family="Helvetica,sans-Serif" font-size="10.00">include/llvm/ObjectYAML</text>
<text text-anchor="middle" x="754.5" y="-63.5" font-family="Helvetica,sans-Serif" font-size="10.00">/ObjectYAML.h</text>
</a>
</g>
</g>
<!-- Node92&#45;&gt;Node93 -->
<g id="edge3" class="edge">
<title>Node92&#45;&gt;Node93</title>
<path fill="none" stroke="midnightblue" d="M154.31,-123C355.85,-95.1 582.39,-81.12 690.63,-75.51"/>
<polygon fill="midnightblue" stroke="midnightblue" points="153.55,-119.57 144.13,-124.42 154.52,-126.5 153.55,-119.57"/>
</g>
<!-- Node99 -->
<g id="node10" class="node">
<title>Node99</title>
<g id="a_node10"><a xlink:href="COFFYAML_8cpp.html" target="_top" xlink:title="lib/ObjectYAML/COFFYAML.cpp">
<polygon fill="none" stroke="black" points="0,-62 0,-81 161,-81 161,-62 0,-62"/>
<text text-anchor="middle" x="80.5" y="-69" font-family="Helvetica,sans-Serif" font-size="10.00">lib/ObjectYAML/COFFYAML.cpp</text>
</a>
</g>
</g>
<!-- Node92&#45;&gt;Node99 -->
<g id="edge9" class="edge">
<title>Node92&#45;&gt;Node99</title>
<path fill="none" stroke="midnightblue" d="M80.5,-113.25C80.5,-102.02 80.5,-89.38 80.5,-81.19"/>
<polygon fill="midnightblue" stroke="midnightblue" points="77,-113.4 80.5,-123.4 84,-113.4 77,-113.4"/>
</g>
<!-- Node94 -->
<g id="node5" class="node">
<title>Node94</title>
<g id="a_node5"><a xlink:href="COFFEmitter_8cpp.html" target="_top" xlink:title="The COFF component of yaml2obj. ">
<polygon fill="none" stroke="black" points="302,-0.5 302,-19.5 467,-19.5 467,-0.5 302,-0.5"/>
<text text-anchor="middle" x="384.5" y="-7.5" font-family="Helvetica,sans-Serif" font-size="10.00">lib/ObjectYAML/COFFEmitter.cpp</text>
</a>
</g>
</g>
<!-- Node93&#45;&gt;Node94 -->
<g id="edge4" class="edge">
<title>Node93&#45;&gt;Node94</title>
<path fill="none" stroke="midnightblue" d="M680.99,-58.68C609.06,-47.11 501.28,-29.78 437.4,-19.51"/>
<polygon fill="midnightblue" stroke="midnightblue" points="680.47,-62.14 690.89,-60.27 681.58,-55.23 680.47,-62.14"/>
</g>
<!-- Node95 -->
<g id="node6" class="node">
<title>Node95</title>
<g id="a_node6"><a xlink:href="MachOEmitter_8cpp.html" target="_top" xlink:title="The Mach component of yaml2obj. ">
<polygon fill="none" stroke="black" points="485.5,-0.5 485.5,-19.5 655.5,-19.5 655.5,-0.5 485.5,-0.5"/>
<text text-anchor="middle" x="570.5" y="-7.5" font-family="Helvetica,sans-Serif" font-size="10.00">lib/ObjectYAML/MachOEmitter.cpp</text>
</a>
</g>
</g>
<!-- Node93&#45;&gt;Node95 -->
<g id="edge5" class="edge">
<title>Node93&#45;&gt;Node95</title>
<path fill="none" stroke="midnightblue" d="M701.06,-53.22C666.9,-42.17 624.09,-28.33 597.01,-19.57"/>
<polygon fill="midnightblue" stroke="midnightblue" points="700.3,-56.65 710.89,-56.4 702.46,-49.99 700.3,-56.65"/>
</g>
<!-- Node96 -->
<g id="node7" class="node">
<title>Node96</title>
<g id="a_node7"><a xlink:href="ObjectYAML_8cpp.html" target="_top" xlink:title="lib/ObjectYAML/ObjectYAML.cpp">
<polygon fill="none" stroke="black" points="673.5,-0.5 673.5,-19.5 835.5,-19.5 835.5,-0.5 673.5,-0.5"/>
<text text-anchor="middle" x="754.5" y="-7.5" font-family="Helvetica,sans-Serif" font-size="10.00">lib/ObjectYAML/ObjectYAML.cpp</text>
</a>
</g>
</g>
<!-- Node93&#45;&gt;Node96 -->
<g id="edge6" class="edge">
<title>Node93&#45;&gt;Node96</title>
<path fill="none" stroke="midnightblue" d="M754.5,-46.29C754.5,-36.86 754.5,-26.65 754.5,-19.66"/>
<polygon fill="midnightblue" stroke="midnightblue" points="751,-46.4 754.5,-56.4 758,-46.4 751,-46.4"/>
</g>
<!-- Node97 -->
<g id="node8" class="node">
<title>Node97</title>
<g id="a_node8"><a xlink:href="WasmEmitter_8cpp.html" target="_top" xlink:title="The Wasm component of yaml2obj. ">
<polygon fill="none" stroke="black" points="854,-0.5 854,-19.5 1021,-19.5 1021,-0.5 854,-0.5"/>
<text text-anchor="middle" x="937.5" y="-7.5" font-family="Helvetica,sans-Serif" font-size="10.00">lib/ObjectYAML/WasmEmitter.cpp</text>
</a>
</g>
</g>
<!-- Node93&#45;&gt;Node97 -->
<g id="edge7" class="edge">
<title>Node93&#45;&gt;Node97</title>
<path fill="none" stroke="midnightblue" d="M807.65,-53.22C841.62,-42.17 884.2,-28.33 911.14,-19.57"/>
<polygon fill="midnightblue" stroke="midnightblue" points="806.3,-49.98 797.87,-56.4 808.46,-56.64 806.3,-49.98"/>
</g>
<!-- Node98 -->
<g id="node9" class="node">
<title>Node98</title>
<g id="a_node9"><a xlink:href="yaml2obj_8cpp.html" target="_top" xlink:title="lib/ObjectYAML/yaml2obj.cpp">
<polygon fill="none" stroke="black" points="1039.5,-0.5 1039.5,-19.5 1185.5,-19.5 1185.5,-0.5 1039.5,-0.5"/>
<text text-anchor="middle" x="1112.5" y="-7.5" font-family="Helvetica,sans-Serif" font-size="10.00">lib/ObjectYAML/yaml2obj.cpp</text>
</a>
</g>
</g>
<!-- Node93&#45;&gt;Node98 -->
<g id="edge8" class="edge">
<title>Node93&#45;&gt;Node98</title>
<path fill="none" stroke="midnightblue" d="M828.1,-58.27C897.58,-46.72 999.99,-29.7 1061.09,-19.54"/>
<polygon fill="midnightblue" stroke="midnightblue" points="827.38,-54.84 818.09,-59.93 828.53,-61.74 827.38,-54.84"/>
</g>
<!-- Node101&#45;&gt;Node93 -->
<g id="edge13" class="edge">
<title>Node101&#45;&gt;Node93</title>
<path fill="none" stroke="midnightblue" d="M490.71,-194.85C429.45,-183.87 357.43,-162.14 391.5,-123 429.57,-79.27 597.41,-72.21 690.96,-71.77"/>
<polygon fill="midnightblue" stroke="midnightblue" points="490.38,-198.35 500.83,-196.59 491.56,-191.45 490.38,-198.35"/>
</g>
<!-- Node102 -->
<g id="node13" class="node">
<title>Node102</title>
<g id="a_node13"><a xlink:href="ELFEmitter_8cpp.html" target="_top" xlink:title="The ELF component of yaml2obj. ">
<polygon fill="none" stroke="black" points="400.5,-129 400.5,-148 556.5,-148 556.5,-129 400.5,-129"/>
<text text-anchor="middle" x="478.5" y="-136" font-family="Helvetica,sans-Serif" font-size="10.00">lib/ObjectYAML/ELFEmitter.cpp</text>
</a>
</g>
</g>
<!-- Node101&#45;&gt;Node102 -->
<g id="edge14" class="edge">
<title>Node101&#45;&gt;Node102</title>
<path fill="none" stroke="midnightblue" d="M537.83,-184.34C521.78,-172.21 502.17,-157.39 490,-148.19"/>
<polygon fill="midnightblue" stroke="midnightblue" points="535.75,-187.16 545.84,-190.4 539.97,-181.57 535.75,-187.16"/>
</g>
<!-- Node103 -->
<g id="node14" class="node">
<title>Node103</title>
<g id="a_node14"><a xlink:href="ELFYAML_8cpp.html" target="_top" xlink:title="lib/ObjectYAML/ELFYAML.cpp">
<polygon fill="none" stroke="black" points="574.5,-129 574.5,-148 726.5,-148 726.5,-129 574.5,-129"/>
<text text-anchor="middle" x="650.5" y="-136" font-family="Helvetica,sans-Serif" font-size="10.00">lib/ObjectYAML/ELFYAML.cpp</text>
</a>
</g>
</g>
<!-- Node101&#45;&gt;Node103 -->
<g id="edge15" class="edge">
<title>Node101&#45;&gt;Node103</title>
<path fill="none" stroke="midnightblue" d="M591.17,-184.34C607.22,-172.21 626.83,-157.39 639,-148.19"/>
<polygon fill="midnightblue" stroke="midnightblue" points="589.03,-181.57 583.16,-190.4 593.25,-187.16 589.03,-181.57"/>
</g>
<!-- Node104&#45;&gt;Node93 -->
<g id="edge17" class="edge">
<title>Node104&#45;&gt;Node93</title>
<path fill="none" stroke="midnightblue" d="M815.27,-185.94C800.21,-178.16 784.95,-167.67 774.5,-154 759.29,-134.09 755.49,-104.14 754.63,-86.63"/>
<polygon fill="midnightblue" stroke="midnightblue" points="814.05,-189.24 824.57,-190.44 817.09,-182.94 814.05,-189.24"/>
</g>
<!-- Node105 -->
<g id="node16" class="node">
<title>Node105</title>
<g id="a_node16"><a xlink:href="MachOYAML_8cpp.html" target="_top" xlink:title="lib/ObjectYAML/MachOYAML.cpp">
<polygon fill="none" stroke="black" points="783,-129 783,-148 948,-148 948,-129 783,-129"/>
<text text-anchor="middle" x="865.5" y="-136" font-family="Helvetica,sans-Serif" font-size="10.00">lib/ObjectYAML/MachOYAML.cpp</text>
</a>
</g>
</g>
<!-- Node104&#45;&gt;Node105 -->
<g id="edge18" class="edge">
<title>Node104&#45;&gt;Node105</title>
<path fill="none" stroke="midnightblue" d="M865.5,-180.25C865.5,-169.02 865.5,-156.38 865.5,-148.19"/>
<polygon fill="midnightblue" stroke="midnightblue" points="862,-180.4 865.5,-190.4 869,-180.4 862,-180.4"/>
</g>
<!-- Node106&#45;&gt;Node93 -->
<g id="edge20" class="edge">
<title>Node106&#45;&gt;Node93</title>
<path fill="none" stroke="midnightblue" d="M1028.68,-183.58C1001.9,-160.14 961.59,-125.11 957.5,-123 913.77,-100.43 859.46,-87.61 818.02,-80.53"/>
<polygon fill="midnightblue" stroke="midnightblue" points="1026.67,-186.48 1036.5,-190.44 1031.28,-181.21 1026.67,-186.48"/>
</g>
<!-- Node107 -->
<g id="node18" class="node">
<title>Node107</title>
<g id="a_node18"><a xlink:href="MinidumpEmitter_8cpp.html" target="_top" xlink:title="lib/ObjectYAML/MinidumpEmitter.cpp">
<polygon fill="none" stroke="black" points="1004.5,-129 1004.5,-148 1184.5,-148 1184.5,-129 1004.5,-129"/>
<text text-anchor="middle" x="1094.5" y="-136" font-family="Helvetica,sans-Serif" font-size="10.00">lib/ObjectYAML/MinidumpEmitter.cpp</text>
</a>
</g>
</g>
<!-- Node106&#45;&gt;Node107 -->
<g id="edge21" class="edge">
<title>Node106&#45;&gt;Node107</title>
<path fill="none" stroke="midnightblue" d="M1067.05,-181.97C1074.58,-170.33 1083.32,-156.8 1088.88,-148.19"/>
<polygon fill="midnightblue" stroke="midnightblue" points="1064.1,-180.1 1061.61,-190.4 1069.98,-183.9 1064.1,-180.1"/>
</g>
<!-- Node108 -->
<g id="node19" class="node">
<title>Node108</title>
<g id="a_node19"><a xlink:href="MinidumpYAML_8cpp.html" target="_top" xlink:title="lib/ObjectYAML/MinidumpYAML.cpp">
<polygon fill="none" stroke="black" points="1202.5,-129 1202.5,-148 1378.5,-148 1378.5,-129 1202.5,-129"/>
<text text-anchor="middle" x="1290.5" y="-136" font-family="Helvetica,sans-Serif" font-size="10.00">lib/ObjectYAML/MinidumpYAML.cpp</text>
</a>
</g>
</g>
<!-- Node106&#45;&gt;Node108 -->
<g id="edge22" class="edge">
<title>Node106&#45;&gt;Node108</title>
<path fill="none" stroke="midnightblue" d="M1113.54,-187.83C1160.12,-175.11 1222.37,-158.11 1259.27,-148.03"/>
<polygon fill="midnightblue" stroke="midnightblue" points="1112.57,-184.46 1103.85,-190.48 1114.42,-191.22 1112.57,-184.46"/>
</g>
<!-- Node109&#45;&gt;Node93 -->
<g id="edge24" class="edge">
<title>Node109&#45;&gt;Node93</title>
<path fill="none" stroke="midnightblue" d="M1271.07,-189.42C1321.29,-178.39 1380.04,-163.7 1387.5,-154 1395.9,-143.08 1396.85,-133.12 1387.5,-123 1349.4,-81.74 970.97,-74.17 818.08,-72.8"/>
<polygon fill="midnightblue" stroke="midnightblue" points="1270.18,-186.03 1261.16,-191.58 1271.67,-192.87 1270.18,-186.03"/>
</g>
<!-- Node110 -->
<g id="node21" class="node">
<title>Node110</title>
<g id="a_node21"><a xlink:href="WasmYAML_8cpp.html" target="_top" xlink:title="lib/ObjectYAML/WasmYAML.cpp">
<polygon fill="none" stroke="black" points="1434.5,-129 1434.5,-148 1596.5,-148 1596.5,-129 1434.5,-129"/>
<text text-anchor="middle" x="1515.5" y="-136" font-family="Helvetica,sans-Serif" font-size="10.00">lib/ObjectYAML/WasmYAML.cpp</text>
</a>
</g>
</g>
<!-- Node109&#45;&gt;Node110 -->
<g id="edge25" class="edge">
<title>Node109&#45;&gt;Node110</title>
<path fill="none" stroke="midnightblue" d="M1270.96,-189.48C1333.91,-176.62 1422.33,-158.54 1473.8,-148.02"/>
<polygon fill="midnightblue" stroke="midnightblue" points="1270.18,-186.07 1261.09,-191.5 1271.59,-192.93 1270.18,-186.07"/>
</g>
<!-- Node112 -->
<g id="node23" class="node">
<title>Node112</title>
<g id="a_node23"><a xlink:href="XCOFFYAML_8cpp.html" target="_top" xlink:title="lib/ObjectYAML/XCOFFYAML.cpp">
<polygon fill="none" stroke="black" points="1615,-129 1615,-148 1782,-148 1782,-129 1615,-129"/>
<text text-anchor="middle" x="1698.5" y="-136" font-family="Helvetica,sans-Serif" font-size="10.00">lib/ObjectYAML/XCOFFYAML.cpp</text>
</a>
</g>
</g>
<!-- Node111&#45;&gt;Node112 -->
<g id="edge27" class="edge">
<title>Node111&#45;&gt;Node112</title>
<path fill="none" stroke="midnightblue" d="M1416.08,-189.91C1504.12,-173.38 1594.64,-157.47 1649.11,-148.01"/>
<polygon fill="midnightblue" stroke="midnightblue" points="1415.37,-186.48 1406.19,-191.77 1416.66,-193.36 1415.37,-186.48"/>
</g>
</g>
</svg>
