<?xml version="1.0" encoding="UTF-8" standalone="no"?>
<!DOCTYPE svg PUBLIC "-//W3C//DTD SVG 1.1//EN"
 "http://www.w3.org/Graphics/SVG/1.1/DTD/svg11.dtd">
<!-- Generated by graphviz version 2.43.0 (0)
 -->
<!-- Title: lib/Remarks/YAMLRemarkParser.h Pages: 1 -->
<svg width="362pt" height="84pt"
 viewBox="0.00 0.00 361.50 84.00" xmlns="http://www.w3.org/2000/svg" xmlns:xlink="http://www.w3.org/1999/xlink">
<g id="graph0" class="graph" transform="scale(1 1) rotate(0) translate(4 80)">
<title>lib/Remarks/YAMLRemarkParser.h</title>
<!-- Node94 -->
<g id="node1" class="node">
<title>Node94</title>
<polygon fill="#bfbfbf" stroke="black" points="85,-56.5 85,-75.5 255,-75.5 255,-56.5 85,-56.5"/>
<text text-anchor="middle" x="170" y="-63.5" font-family="Helvetica,sans-Serif" font-size="10.00">lib/Remarks/YAMLRemarkParser.h</text>
</g>
<!-- Node95 -->
<g id="node2" class="node">
<title>Node95</title>
<g id="a_node2"><a xlink:href="RemarkParser_8cpp.html" target="_top" xlink:title="lib/Remarks/RemarkParser.cpp">
<polygon fill="none" stroke="black" points="0,-0.5 0,-19.5 154,-19.5 154,-0.5 0,-0.5"/>
<text text-anchor="middle" x="77" y="-7.5" font-family="Helvetica,sans-Serif" font-size="10.00">lib/Remarks/RemarkParser.cpp</text>
</a>
</g>
</g>
<!-- Node94&#45;&gt;Node95 -->
<g id="edge1" class="edge">
<title>Node94&#45;&gt;Node95</title>
<path fill="none" stroke="midnightblue" d="M146.19,-51.18C129.08,-41.24 106.53,-28.15 91.9,-19.65"/>
<polygon fill="midnightblue" stroke="midnightblue" points="144.65,-54.33 155.06,-56.32 148.17,-48.28 144.65,-54.33"/>
</g>
<!-- Node96 -->
<g id="node3" class="node">
<title>Node96</title>
<g id="a_node3"><a xlink:href="YAMLRemarkParser_8cpp.html" target="_top" xlink:title="lib/Remarks/YAMLRemarkParser.cpp">
<polygon fill="none" stroke="black" points="172.5,-0.5 172.5,-19.5 353.5,-19.5 353.5,-0.5 172.5,-0.5"/>
<text text-anchor="middle" x="263" y="-7.5" font-family="Helvetica,sans-Serif" font-size="10.00">lib/Remarks/YAMLRemarkParser.cpp</text>
</a>
</g>
</g>
<!-- Node94&#45;&gt;Node96 -->
<g id="edge2" class="edge">
<title>Node94&#45;&gt;Node96</title>
<path fill="none" stroke="midnightblue" d="M193.81,-51.18C210.92,-41.24 233.47,-28.15 248.1,-19.65"/>
<polygon fill="midnightblue" stroke="midnightblue" points="191.83,-48.28 184.94,-56.32 195.35,-54.33 191.83,-48.28"/>
</g>
</g>
</svg>
